<svg version="1.1" xmlns="http://www.w3.org/2000/svg" xmlns:xlink="http://www.w3.org/1999/xlink" width="418.84216" height="418.84216" viewBox="0,0,418.84216,418.84216"><defs><radialGradient cx="240" cy="180" r="209.42108" gradientUnits="userSpaceOnUse" id="color-1"><stop offset="0" stop-color="#000000"/><stop offset="1" stop-color="#000000" stop-opacity="0"/></radialGradient><radialGradient cx="239.59447" cy="180.40553" r="157.5448" gradientUnits="userSpaceOnUse" id="color-2"><stop offset="0" stop-color="#330f00" stop-opacity="0"/><stop offset="1" stop-color="#330f00" stop-opacity="0.20392"/></radialGradient><radialGradient cx="240.17958" cy="180.24714" r="149.24055" gradientUnits="userSpaceOnUse" id="color-3"><stop offset="0" stop-color="#330f00" stop-opacity="0"/><stop offset="1" stop-color="#330f00" stop-opacity="0.15294"/></radialGradient><radialGradient cx="240.77086" cy="180.24714" r="141.30745" gradientUnits="userSpaceOnUse" id="color-4"><stop offset="0" stop-color="#330f00" stop-opacity="0"/><stop offset="1" stop-color="#330f00" stop-opacity="0.07843"/></radialGradient><radialGradient cx="241.27982" cy="180.24714" r="133.65191" gradientUnits="userSpaceOnUse" id="color-5"><stop offset="0" stop-color="#330f00" stop-opacity="0"/><stop offset="1" stop-color="#330f00" stop-opacity="0.03529"/></radialGradient><linearGradient x1="240" y1="11.49951" x2="240" y2="348.5005" gradientUnits="userSpaceOnUse" id="color-6"><stop offset="0" stop-color="#ffb941"/><stop offset="1" stop-color="#ff8e4f"/></linearGradient></defs><g transform="translate(-30.57892,29.42108)"><g data-paper-data="{&quot;isPaintingLayer&quot;:true}" fill-rule="nonzero" stroke-linecap="butt" stroke-linejoin="miter" stroke-miterlimit="10" stroke-dasharray="" stroke-dashoffset="0" style="mix-blend-mode: normal"><path d="M84.25155,168.98808c43.76564,32.21693 97.83256,51.25299 156.34558,51.25299c58.66198,0 112.85519,-19.13309 156.67962,-51.49929l1.20206,-0.84667c0.26449,3.74342 0.39897,7.52273 0.39897,11.33345c0,87.53435 -70.96077,158.49494 -158.49493,158.49494c-87.53435,0 -158.49493,-70.96078 -158.49493,-158.49493l-0.00002,-0.00002c0,-3.7736 0.13188,-7.51638 0.39127,-11.22401z" fill-opacity="0.07451" fill="#000000" stroke="#000000" stroke-width="0"/><path d="M30.57892,180c0,-115.66003 93.76125,-209.42108 209.42108,-209.42108c115.66003,0 209.42108,93.76125 209.42108,209.42108c0,115.66003 -93.76118,209.42108 -209.42108,209.42108c-115.66003,0 -209.42108,-93.76125 -209.42108,-209.42108zM238.87001,350.7752c93.00821,0 168.40631,-75.3981 168.40631,-168.4063c0,-93.00821 -75.3981,-168.40631 -168.4063,-168.40631c-93.00821,0 -168.4063,75.3981 -168.4063,168.40631c0,93.00821 75.3981,168.40631 168.40631,168.40631z" fill="url(#color-1)" stroke="none" stroke-width="0"/><path d="M82.04967,180.4056c0,-87.00954 70.53539,-157.54479 157.5448,-157.54479c87.00955,0 157.5448,70.53539 157.5448,157.5448c0,87.00955 -70.53539,157.54474 -157.5448,157.54474c-87.00954,0 -157.5448,-70.53532 -157.5448,-157.54473zM240.08123,329.42751c82.32889,0 149.06969,-66.74079 149.06969,-149.06968c0,-82.32889 -66.7408,-149.06969 -149.06969,-149.06969c-82.32889,0 -149.06968,66.7408 -149.06968,149.06969c0,82.32889 66.74079,149.06969 149.06969,149.06969z" fill="url(#color-2)" stroke="#ffffff" stroke-width="0"/><path d="M90.9391,180.24721c0,-82.42327 66.81742,-149.24055 149.24048,-149.24055c82.42327,0 149.24055,66.81742 149.24055,149.24055c0,82.42327 -66.81742,149.24048 -149.24055,149.24048c-82.42327,0 -149.24048,-66.81742 -149.24048,-149.24048zM240.6407,321.41415c77.98936,0 141.2121,-63.22282 141.2121,-141.21218c0,-77.98935 -63.22281,-141.2121 -141.2121,-141.2121c-77.98936,0 -141.21217,63.22281 -141.21217,141.2121c0,77.98936 63.22289,141.21218 141.21218,141.21218z" fill="url(#color-3)" stroke="#ffffff" stroke-width="0"/><path d="M99.46348,180.24721c0,-78.04192 63.26559,-141.30744 141.30745,-141.30744c78.04192,0 141.30745,63.26566 141.30745,141.30745c0,78.04192 -63.26565,141.30738 -141.30744,141.30738c-78.04192,0 -141.30745,-63.26559 -141.30745,-141.30738zM241.20744,313.91022c73.84371,0 133.70579,-59.86213 133.70579,-133.70585c0,-73.84371 -59.86207,-133.70578 -133.70579,-133.70578c-73.84371,0 -133.70585,59.86207 -133.70585,133.70578c0,73.84371 59.86213,133.70585 133.70585,133.70585z" fill="url(#color-4)" stroke="#ffffff" stroke-width="0"/><path d="M107.62797,180.24721c0,-73.81382 59.83808,-133.65184 133.65185,-133.65184c73.81382,0 133.65191,59.83815 133.65191,133.65184c0,73.81383 -59.83814,133.65184 -133.65191,133.65184c-73.81382,0 -133.65184,-59.83808 -133.65184,-133.65184zM241.69276,306.66879c69.84309,0 126.46209,-56.61906 126.46209,-126.46209c0,-69.8431 -56.619,-126.46202 -126.46209,-126.46202c-69.8431,0 -126.46209,56.619 -126.46209,126.46202c0,69.8431 56.619,126.46209 126.46209,126.46209z" fill="url(#color-5)" stroke="#ffffff" stroke-width="0"/><path d="M71.49951,180c0,-93.06027 75.44044,-168.50049 168.5005,-168.50049c93.06027,0 168.5005,75.44044 168.5005,168.5005c0,93.06027 -75.44043,168.5005 -168.50049,168.5005c-93.06027,0 -168.50049,-75.44043 -168.50049,-168.50049z" fill="none" stroke="url(#color-6)" stroke-width="22.5"/><path d="M53.67449,-13.63808c7.5,0 7.5,7.5 7.5,7.5v1.73144c0,24.33192 0.37509,48.23353 5.57339,72.16235c0.64614,2.9743 1.83152,5.80529 2.74238,8.70947c2.31535,7.38228 4.32286,15.04089 7.6717,22.05424c1.72629,3.61531 4.119,6.88778 5.82923,10.51071c1.40149,2.96891 2.4656,6.09346 3.94018,9.02675c0,0 3.3541,6.7082 -3.35411,10.0623c-6.70821,3.3541 -10.0623,-3.35411 -10.0623,-3.35411c-8.54073,-17.16101 -17.23127,-34.65586 -21.37095,-53.58494c-5.47831,-25.05006 -5.96952,-50.10481 -5.96952,-75.58679v-1.73144c0,0 0,-7.5 7.5,-7.5z" fill="#ffab19" stroke="none" stroke-width="0.5"/><path d="M53.72494,-13.59966l1.53072,0.20649c22.52793,3.03893 44.61958,6.46117 66.11233,14.29182c16.241,5.91723 30.67131,15.6867 44.82434,25.28393c0,0 5.53054,3.76527 1.76526,9.29581c-3.76528,5.53054 -9.29582,1.76526 -9.29582,1.76526c-2.41738,-1.65346 -5.05282,-2.96683 -7.51041,-4.55992c-2.99898,-1.94403 -5.60673,-4.44963 -8.59705,-6.40695c-5.80094,-3.79703 -12.3323,-6.48515 -18.58265,-9.41249c-2.45888,-1.15161 -4.82032,-2.5372 -7.37276,-3.46314c-20.53489,-7.44938 -41.62093,-10.63144 -63.13212,-13.53322l-1.53072,-0.20649c0,0 -6.63055,-0.89443 -5.73611,-7.52498c0.89444,-6.63055 7.52498,-5.73611 7.52498,-5.73611z" data-paper-data="{&quot;index&quot;:null}" fill="#ffab19" stroke="none" stroke-width="0.5"/><path d="M82.87688,-2.3832c6.42908,0 10.07847,2.30453 13.125,7.5c2.28217,3.89195 2.31401,10.86912 2.84359,15.38658c1.2068,10.29419 1.81938,20.59243 2.89006,30.95317c0.50673,4.90349 1.50885,9.83743 2.13978,14.6808c0.2546,1.95445 0.45426,4.46985 0.38504,7.08841c0.03089,0.3931 0.04663,0.79045 0.04663,1.19148c0,1.64055 -0.26336,3.21957 -0.75012,4.69712c-0.92381,3.90651 -2.88473,7.23122 -6.68474,8.25825c-1.83403,1.07327 -3.91638,1.76823 -6.13996,1.9778c0.00011,0.02345 0.00016,0.04691 0.00016,0.0704c0,2.14854 -0.45173,4.19159 -1.26538,6.03933c-0.59749,1.77244 -1.51023,3.43314 -3.10006,5.01908c-6.39806,6.38245 -17.11601,4.80065 -22.34799,-1.50271c-3.98589,-4.8021 -4.73434,-15.54342 -6.1154,-21.52504c-2.81728,-12.20207 -2.78651,-25.01239 -5.27398,-37.19224c-2.09088,-10.23799 -5.21219,-19.58569 -4.04293,-30.50024c0.48302,-4.50873 1.9028,-10.12749 6.32813,-12.65625c6.51038,-3.72021 15.53448,-3.09503 20.26561,2.7676c2.3358,-1.41895 5.01011,-2.25353 7.69657,-2.25353z" fill="#ffab19" stroke="none" stroke-width="0.5"/><path d="M141.10503,14.40651c8.28427,0 15,6.71573 15,15c0,8.28427 -6.71573,15 -15,15c-0.40289,0 -0.80208,-0.01589 -1.19696,-0.04706c-0.33843,0.96834 -0.77335,1.89138 -1.29324,2.7576c-1.12813,2.46587 -2.79345,4.56829 -5.30547,5.24721c-2.22096,1.29971 -4.80605,2.04463 -7.56514,2.04463c-1.88193,0 -3.68292,-0.34657 -5.34261,-0.97937c-0.37215,-0.08283 -0.73866,-0.17758 -1.0968,-0.29002c-0.05043,1.25812 -0.20205,2.54215 -0.46157,3.81391c-0.33333,2.74585 -1.40859,5.2629 -3.01931,7.34466c-1.36186,1.97656 -3.14646,3.63842 -5.3974,4.73853c-1.55953,0.7622 -3.57679,1.11029 -5.73902,1.07265c-0.24326,0.01172 -0.48802,0.01765 -0.73418,0.01765c-2.43719,0 -4.73862,-0.58125 -6.77323,-1.61269c-3.93898,-1.66465 -7.12158,-4.58959 -7.44111,-8.58367c-0.50947,-1.50808 -0.78566,-3.1236 -0.78566,-4.80363c0,-0.62634 0.03838,-1.24371 0.11294,-1.84989c0.44189,-13.33273 -6.36607,-31.90398 -0.73853,-43.15903c5.02088,-10.04177 21.22912,-10.04177 26.25,0c0.50709,1.01417 0.88115,1.94829 1.15585,2.83324c2.54147,-1.23819 5.41402,-1.81062 8.22451,-2.11699c3.69473,-0.40277 8.07921,2.17755 10.93158,4.91654c1.89368,-0.86329 3.99836,-1.34426 6.21536,-1.34426z" fill="#ffab19" stroke="none" stroke-width="0.5"/><path d="M433.4684,-7.36478v1.73143c0,25.48197 -0.4912,50.53673 -5.96952,75.58679c-4.13968,18.92908 -12.83022,36.42393 -21.37095,53.58494c0,0 -3.3541,6.7082 -10.0623,3.3541c-6.70821,-3.3541 -3.35411,-10.0623 -3.35411,-10.0623c1.47458,-2.93329 2.53869,-6.05784 3.94018,-9.02675c1.71022,-3.62293 4.10294,-6.8954 5.82923,-10.51071c3.34884,-7.01336 5.35634,-14.67197 7.6717,-22.05425c0.91086,-2.90418 2.09625,-5.73517 2.74239,-8.70947c5.19829,-23.92882 5.57339,-47.83043 5.57339,-72.16235v-1.73143c0,0 0,-7.5 7.5,-7.5c7.5,0 7.5,7.5 7.5,7.5z" data-paper-data="{&quot;index&quot;:null}" fill="#ffab19" stroke="none" stroke-width="0.5"/><path d="M433.44293,-9.09024c0.89443,6.63055 -5.73611,7.52498 -5.73611,7.52498l-1.53071,0.20649c-21.51119,2.90178 -42.59724,6.08385 -63.13212,13.53323c-2.55244,0.92594 -4.91387,2.31153 -7.37276,3.46315c-6.25034,2.92734 -12.78171,5.61546 -18.58265,9.41249c-2.99032,1.95732 -5.59807,4.46292 -8.59706,6.40695c-2.45759,1.59309 -5.09302,2.90646 -7.5104,4.55992c0,0 -5.53054,3.76528 -9.29582,-1.76526c-3.76527,-5.53054 1.76526,-9.29581 1.76526,-9.29581c14.15303,-9.59722 28.58335,-19.36669 44.82434,-25.28392c21.49275,-7.83065 43.58441,-11.25289 66.11233,-14.29182l1.53071,-0.20649c0,0 6.63055,-0.89444 7.52499,5.73612z" data-paper-data="{&quot;index&quot;:null}" fill="#ffab19" stroke="none" stroke-width="0.5"/><path d="M404.46258,-1.35637c4.73113,-5.86264 13.75523,-6.48782 20.26561,-2.7676c4.42532,2.52876 5.84511,8.14752 6.32813,12.65625c1.16926,10.91455 -1.95205,20.26226 -4.04293,30.50025c-2.48747,12.17985 -2.4567,24.99018 -5.27398,37.19224c-1.38106,5.98161 -2.12952,16.72294 -6.11541,21.52504c-5.23199,6.30336 -15.94993,7.88515 -22.34799,1.50271c-1.58983,-1.58594 -2.50257,-3.24664 -3.10006,-5.01908c-0.81365,-1.84774 -1.26538,-3.89078 -1.26538,-6.03932c0,-0.02348 0.00005,-0.04695 0.00016,-0.0704c-2.22358,-0.20957 -4.30593,-0.90453 -6.13996,-1.97781c-3.8,-1.02703 -5.76093,-4.35174 -6.68473,-8.25825c-0.48676,-1.47755 -0.75012,-3.05657 -0.75012,-4.69712c0,-0.40103 0.01574,-0.79838 0.04663,-1.19148c-0.06922,-2.61856 0.13044,-5.13395 0.38504,-7.0884c0.63093,-4.84337 1.63305,-9.77731 2.13978,-14.6808c1.07068,-10.36073 1.68326,-20.65898 2.89006,-30.95316c0.52958,-4.51746 0.56142,-11.49462 2.84359,-15.38657c3.04652,-5.19547 6.69592,-7.5 13.125,-7.5c2.68646,0 5.36077,0.83458 7.69657,2.25353z" data-paper-data="{&quot;index&quot;:null}" fill="#ffab19" stroke="none" stroke-width="0.5"/><path d="M344.75322,14.52407c2.85237,-2.73899 7.23685,-5.3193 10.93158,-4.91654c2.81049,0.30637 5.68304,0.8788 8.22451,2.11699c0.2747,-0.88495 0.64876,-1.81906 1.15585,-2.83323c5.02089,-10.04177 21.22911,-10.04177 26.25,0c5.62753,11.25506 -1.18043,29.8263 -0.73854,43.15904c0.07455,0.60618 0.11294,1.22355 0.11294,1.84989c0,1.68003 -0.27619,3.29556 -0.78566,4.80364c-0.31952,3.99408 -3.50212,6.91902 -7.4411,8.58368c-2.03461,1.03144 -4.33605,1.61269 -6.77324,1.61269c-0.24616,0 -0.49093,-0.00593 -0.73418,-0.01765c-2.16224,0.03763 -4.1795,-0.31046 -5.73903,-1.07265c-2.25094,-1.10011 -4.03555,-2.76198 -5.3974,-4.73854c-1.61072,-2.08176 -2.68597,-4.59881 -3.0193,-7.34466c-0.25952,-1.27176 -0.41114,-2.55579 -0.46157,-3.81391c-0.35814,0.11244 -0.72465,0.20719 -1.0968,0.29002c-1.65969,0.6328 -3.46068,0.97937 -5.34261,0.97937c-2.75909,0 -5.34418,-0.74493 -7.56513,-2.04463c-2.51202,-0.67892 -4.17735,-2.78134 -5.30547,-5.24721c-0.5199,-0.86622 -0.95482,-1.78926 -1.29324,-2.7576c-0.39488,0.03117 -0.79406,0.04706 -1.19696,0.04706c-8.28427,0 -15,-6.71573 -15,-15c0,-8.28427 6.71573,-15 15,-15c2.217,0 4.32168,0.48097 6.21536,1.34426z" data-paper-data="{&quot;index&quot;:null}" fill="#ffab19" stroke="none" stroke-width="0.5"/><path d="M80.42304,91.81407c-1.81342,-0.71183 -3.41028,-1.87099 -4.81458,-3.34446c-1.61398,-1.48618 -2.90117,-3.32185 -3.74149,-5.38695c-3.24586,-6.20998 -4.83687,-14.17136 -5.51363,-19.772c-0.29332,-2.42742 0.07482,-7.17922 -1.11486,-9.31381c-1.54801,-2.77752 -4.93089,-14.44028 -4.37908,-16.61304c1.94934,-7.67552 8.66896,-13.43845 16.91941,-13.43845c9.92685,0 16.28137,7.15988 24.42135,11.18424c3.60075,1.78019 7.20428,4.38217 9.82463,7.43924c2.42087,2.82435 4.28081,9.37201 4.28081,12.75423c0,10.60072 -4.76566,17.51965 -12.00378,24.75777c-2.83982,2.83982 -4.02181,7.17668 -8.32418,8.33949c-2.67767,2.48954 -6.26663,4.01214 -10.21121,4.01214c-0.68007,0 -1.34957,-0.04526 -2.00565,-0.13293c-1.14488,-0.03468 -2.28691,-0.07299 -3.33772,-0.48547z" fill="#ffd489" stroke="none" stroke-width="0.5"/><path d="M92.89611,73.87085c1.88935,-1.78995 3.51581,-7.27815 6.18997,-8.00747c6.82191,-1.86052 9.53517,-0.31009 11.39569,6.51183c0.55023,2.01752 -2.22088,5.75988 -3.18527,7.19993c-4.70876,7.03123 -10.59835,9.72559 -18.2994,12.28696c-2.06349,0.68631 -8.61872,4.61589 -10.58828,2.85365l-0.07432,-0.09189c-0.52434,0.03238 -1.08105,0.0478 -1.67168,0.0478c-4.53396,0 -8.86407,-11.29372 -9.57384,-12.76406c-4.91428,-10.18041 -6.2118,-21.60543 -8.00159,-32.6346c-0.20842,-1.28437 -0.73222,-5.72444 -0.69635,-9.24236c-0.02472,-0.24778 -0.03737,-0.49911 -0.03737,-0.75339c0,-0.57076 0.06376,-1.12664 0.18454,-1.66088c0.75574,-3.34289 3.74408,-5.83912 7.31546,-5.83912c2.44071,0 4.60914,1.16586 5.97872,2.97107c0.22353,0.2309 0.42033,0.48835 0.58378,0.77893c0.19494,0.34654 0.3406,0.71497 0.45448,1.09622c0.31217,0.825 0.48302,1.71943 0.48302,2.65378c1.47621,9.82412 1.18246,20.02075 4.63108,29.55695c1.16759,3.22865 2.58857,6.37075 4.09913,9.48502c3.89017,-1.07494 8.01506,-1.79836 10.81222,-4.44836z" fill="#ffd489" stroke="none" stroke-width="0.5"/><path d="M398.54601,93.13135c-0.65608,0.08767 -1.32558,0.13293 -2.00565,0.13293c-3.94458,0 -7.53354,-1.5226 -10.21122,-4.01214c-4.30237,-1.16281 -5.48437,-5.49966 -8.32418,-8.33948c-7.23813,-7.23812 -12.00378,-14.15705 -12.00378,-24.75777c0,-3.38222 1.85994,-9.92988 4.28081,-12.75423c2.62034,-3.05707 6.22387,-5.65905 9.82462,-7.43924c8.13998,-4.02435 14.49451,-11.18423 24.42135,-11.18423c8.25045,0 14.97007,5.76293 16.91941,13.43846c0.55181,2.17276 -2.83108,13.83551 -4.37908,16.61303c-1.18968,2.13459 -0.82154,6.88639 -1.11486,9.31382c-0.67676,5.60063 -2.26777,13.56202 -5.51363,19.772c-0.84032,2.0651 -2.1275,3.90077 -3.74149,5.38695c-1.40429,1.47347 -3.00116,2.63263 -4.81458,3.34446c-1.05081,0.41249 -2.19284,0.45078 -3.33772,0.48547z" data-paper-data="{&quot;index&quot;:null}" fill="#ffd489" stroke="none" stroke-width="0.5"/><path d="M400.22288,79.15103c1.51056,-3.11428 2.93154,-6.25638 4.09913,-9.48503c3.44862,-9.5362 3.15486,-19.73283 4.63108,-29.55695c0,-0.93435 0.17085,-1.82879 0.48302,-2.65378c0.11387,-0.38125 0.25954,-0.74968 0.45448,-1.09622c0.16345,-0.29057 0.36025,-0.54803 0.58378,-0.77893c1.36958,-1.80521 3.538,-2.97107 5.97872,-2.97107c3.57137,0 6.55972,2.49623 7.31546,5.83912c0.12078,0.53424 0.18454,1.09012 0.18454,1.66088c0,0.25429 -0.01265,0.50561 -0.03737,0.75339c0.03587,3.51792 -0.48792,7.958 -0.69634,9.24237c-1.78979,11.02917 -3.08732,22.4542 -8.0016,32.63461c-0.70976,1.47034 -5.03987,12.76406 -9.57384,12.76406c-0.59063,0 -1.14734,-0.01541 -1.67168,-0.04779l-0.07432,0.09189c-1.96956,1.76224 -8.52479,-2.16734 -10.58828,-2.85365c-7.70105,-2.56136 -13.59064,-5.25573 -18.2994,-12.28696c-0.9644,-1.44006 -3.7355,-5.18241 -3.18527,-7.19993c1.86052,-6.82191 4.57378,-8.37234 11.39569,-6.51183c2.67417,0.72932 4.30062,6.21751 6.18997,8.00746c2.79716,2.65 6.92206,3.37342 10.81223,4.44837z" data-paper-data="{&quot;index&quot;:null}" fill="#ffd489" stroke="none" stroke-width="0.5"/><path d="M72.96662,35.63582c-0.28003,-0.1767 0.15563,0.64491 0.26597,0.9571c0.3343,0.94584 0.51596,1.81375 0.80554,2.77385c0.63022,2.08952 3.077,7.16846 2.48389,8.94781c-2.23607,6.70821 -5.03115,8.10575 -11.73935,5.86968c-2.73893,-0.91298 -3.77257,-6.12686 -4.4425,-8.47722c-2.1797,-7.64717 -3.83629,-15.06433 -3.50884,-23.17491c0.06862,-1.6996 1.1394,-6.24687 2.81735,-6.70449c2.32245,-0.6334 4.6681,-1.18712 7.02862,-1.65923c3.02541,-0.60508 10.48167,6.18176 12.7781,7.7655c1.99291,1.37441 4.06542,1.77725 5.86954,3.41736c1.61551,1.46864 4.59767,8.88829 1.54527,10.63253c-1.30464,2.21056 -3.71095,3.69349 -6.46362,3.69349c-2.59228,0 -4.87738,-1.31516 -6.22449,-3.31464c-0.43458,-0.24894 -0.84531,-0.49326 -1.21548,-0.72684z" fill="#ffd489" stroke="none" stroke-width="0.5"/><path d="M73.76012,21.06198c0.67444,1.09786 1.75283,2.23332 1.61054,3.51391c-0.78087,7.02782 -3.22108,8.98 -10.2489,8.19913c-3.73593,-0.4151 -6.98098,-7.6396 -8.50284,-10.68333c-0.54872,-1.04223 -0.85928,-2.22938 -0.85928,-3.48906c0,-4.14213 3.35786,-7.5 7.5,-7.5c1.18289,-0.59138 2.53546,-0.03186 3.87156,1.07522c1.22092,0.7373 2.21466,1.8128 2.85146,3.09671c1.80805,2.36876 3.27374,4.96744 3.77747,5.78742z" fill="#ffd489" stroke="none" stroke-width="0.5"/><path d="M409.03138,37.59914c-1.3471,1.99948 -3.63221,3.31464 -6.22449,3.31464c-2.75267,0 -5.15898,-1.48293 -6.46362,-3.6935c-3.05241,-1.74424 -0.07024,-9.16388 1.54526,-10.63252c1.80413,-1.64011 3.87663,-2.04295 5.86954,-3.41736c2.29643,-1.58374 9.7527,-8.37057 12.7781,-7.7655c2.36052,0.47211 4.70617,1.02584 7.02862,1.65923c1.67795,0.45762 2.74873,5.00489 2.81735,6.70449c0.32745,8.11057 -1.32915,15.52773 -3.50884,23.17491c-0.66993,2.35036 -1.70357,7.56425 -4.4425,8.47722c-6.70821,2.23607 -9.50329,0.83852 -11.73935,-5.86968c-0.59312,-1.77935 1.85366,-6.85829 2.48388,-8.94782c0.28958,-0.9601 0.47124,-1.82801 0.80554,-2.77385c0.11034,-0.3122 0.54601,-1.13381 0.26597,-0.9571c-0.37017,0.23358 -0.7809,0.47791 -1.21548,0.72684z" data-paper-data="{&quot;index&quot;:null}" fill="#ffd489" stroke="none" stroke-width="0.5"/><path d="M413.23083,16.51104c0.63679,-1.28391 1.63053,-2.35941 2.85146,-3.09671c1.3361,-1.10708 2.68866,-1.6666 3.87156,-1.07521c4.14213,0 7.5,3.35787 7.5,7.5c0,1.25968 -0.31056,2.44683 -0.85928,3.48906c-1.52186,3.04373 -4.76692,10.26822 -8.50284,10.68333c-7.02782,0.78087 -9.46803,-1.17131 -10.2489,-8.19913c-0.14229,-1.28059 0.9361,-2.41605 1.61054,-3.51391c0.50373,-0.81998 1.96942,-3.41866 3.77747,-5.78742z" data-paper-data="{&quot;index&quot;:null}" fill="#ffd489" stroke="none" stroke-width="0.5"/></g></g></svg>