<svg version="1.1" xmlns="http://www.w3.org/2000/svg" xmlns:xlink="http://www.w3.org/1999/xlink" width="237.75236" height="47.09202" viewBox="0,0,237.75236,47.09202"><defs><linearGradient x1="101.31987" y1="178.85544" x2="338.89046" y2="178.85544" gradientUnits="userSpaceOnUse" id="color-1"><stop offset="0" stop-color="#8463fd"/><stop offset="1" stop-color="#5037b4"/></linearGradient></defs><g transform="translate(-101.3199,-155.19099)"><g data-paper-data="{&quot;isPaintingLayer&quot;:true}" fill-rule="nonzero" stroke-linejoin="miter" stroke-miterlimit="10" stroke-dasharray="" stroke-dashoffset="0" style="mix-blend-mode: normal"><path d="M298.92121,202.20392h-197.41954v-42.19614h197.09448l18.35725,-0.00088c0.06319,-0.00052 0.12644,-0.00078 0.18975,-0.00078c12.1111,0 21.9291,9.46403 21.9291,21.13851c0,11.65108 -9.77868,21.10056 -21.85632,21.13838z" fill="#342763" stroke="#181c4d" stroke-width="0" stroke-linecap="butt"/><path d="M298.73944,199.91479h-197.41954v-42.19614h197.09448l18.35725,-0.00088c0.06319,-0.00052 0.12644,-0.00078 0.18975,-0.00078c12.1111,0 21.9291,9.46403 21.9291,21.1385c0,11.65108 -9.77869,21.10057 -21.85633,21.13839z" fill="url(#color-1)" stroke="#181c4d" stroke-width="0" stroke-linecap="butt"/><path d="M311.27121,155.44099h0.18878v0.13429" fill="none" stroke="#000000" stroke-width="0.5" stroke-linecap="butt"/><path d="M203.47109,197.65574l-5.72275,0.15795l0.64015,-5.12123z" fill-opacity="0.23922" fill="#342763" stroke="none" stroke-width="0" stroke-linecap="round"/><path d="M192.41934,192.47547l-7.30854,0.20172l0.81755,-6.54034z" fill-opacity="0.17647" fill="#342763" stroke="none" stroke-width="0" stroke-linecap="round"/><path d="M213.63777,197.47547l-7.30854,0.20172l0.81755,-6.54034z" fill-opacity="0.1098" fill="#342763" stroke="none" stroke-width="0" stroke-linecap="round"/><path d="M232.62613,197.81268l-7.30854,0.20171l0.81755,-6.54034z" fill-opacity="0.11373" fill="#342763" stroke="none" stroke-width="0" stroke-linecap="round"/><path d="M214.1094,177.87688l-7.30854,0.20171l0.81755,-6.54034z" fill-opacity="0.15294" fill="#342763" stroke="none" stroke-width="0" stroke-linecap="round"/><path d="M180.1763,195.38664l-5.04312,0.13919l0.56413,-4.51304z" fill-opacity="0.38039" fill="#342763" stroke="none" stroke-width="0" stroke-linecap="round"/><path d="M198.17154,176.46772l-9.34742,0.25799l1.04563,-8.36491z" fill-opacity="0.11373" fill="#342763" stroke="none" stroke-width="0" stroke-linecap="round"/><path d="M256.68075,167.33288l-7.30854,0.20172l0.81755,-6.54034z" fill-opacity="0.12941" fill="#342763" stroke="none" stroke-width="0" stroke-linecap="round"/><path d="M277.29089,183.88849l-7.30854,0.20172l0.81755,-6.54034z" fill-opacity="0.13725" fill="#342763" stroke="none" stroke-width="0" stroke-linecap="round"/><path d="M288.56336,196.13677l-9.12088,0.25173l1.02028,-8.16218z" fill-opacity="0.20392" fill="#342763" stroke="none" stroke-width="0" stroke-linecap="round"/><path d="M277.77486,170.42183l-5.4962,0.15169l0.61481,-4.9185z" fill-opacity="0.16863" fill="#342763" stroke="none" stroke-width="0" stroke-linecap="round"/><path d="M304.46696,186.14414l-6.30712,0.17408l0.70553,-5.64419z" fill-opacity="0.15294" fill="#342763" stroke="none" stroke-width="0" stroke-linecap="round"/><path d="M190.36807,181.32524l9.35021,-0.11978l-1.16917,8.34853z" fill-opacity="0.11373" fill="#742d64" stroke="none" stroke-width="0" stroke-linecap="round"/><path d="M212.60013,192.3552l5.2956,-0.06784l-0.66217,4.7283z" fill-opacity="0.11373" fill="#632761" stroke="none" stroke-width="0" stroke-linecap="round"/><path d="M196.11073,162.89108l5.29561,-0.06784l-0.66217,4.7283z" fill-opacity="0.19608" fill="#953a92" stroke="none" stroke-width="0" stroke-linecap="round"/><path d="M218.95099,162.82282l5.2956,-0.06784l-0.66217,4.7283z" fill-opacity="0.11373" fill="#762e74" stroke="none" stroke-width="0" stroke-linecap="round"/><text transform="translate(227.18893,188.60009) scale(0.65582,0.65582)" font-size="40" xml:space="preserve" fill-opacity="0.30588" fill="#000000" fill-rule="nonzero" stroke="none" stroke-width="1" stroke-linecap="butt" stroke-linejoin="miter" stroke-miterlimit="10" stroke-dasharray="" stroke-dashoffset="0" font-family="Handwriting" font-weight="normal" text-anchor="start" style="mix-blend-mode: normal"><tspan x="0" dy="0">Exit</tspan></text><text transform="translate(228.39655,187.13963) scale(0.65582,0.65582)" font-size="40" xml:space="preserve" fill="#ffffff" fill-rule="nonzero" stroke="none" stroke-width="1" stroke-linecap="butt" stroke-linejoin="miter" stroke-miterlimit="10" stroke-dasharray="" stroke-dashoffset="0" font-family="Handwriting" font-weight="normal" text-anchor="start" style="mix-blend-mode: normal"><tspan x="0" dy="0">Exit</tspan></text><path d="M174.96591,196.47072l-9.34742,0.25799l1.04563,-8.36491z" fill-opacity="0.11373" fill="#342763" stroke="none" stroke-width="0" stroke-linecap="round"/><path d="M155.71439,176.63052l-7.00029,0.19321l0.78307,-6.26449z" fill-opacity="0.11373" fill="#342763" stroke="none" stroke-width="0" stroke-linecap="round"/><path d="M167.86248,185.49965l-8.14718,0.22487l0.91137,-7.29083z" fill-opacity="0.11373" fill="#342763" stroke="none" stroke-width="0" stroke-linecap="round"/><path d="M156.5716,195.36928l-5.65908,0.15619l0.63304,-5.06425z" fill-opacity="0.11373" fill="#342763" stroke="none" stroke-width="0" stroke-linecap="round"/><path d="M167.76252,173.42266l9.35021,-0.11978l-1.16917,8.34853z" fill-opacity="0.11373" fill="#742d64" stroke="none" stroke-width="0" stroke-linecap="round"/></g></g></svg>