<svg version="1.1" xmlns="http://www.w3.org/2000/svg" xmlns:xlink="http://www.w3.org/1999/xlink" width="165.84826" height="49.22094" viewBox="0,0,165.84826,49.22094"><defs><linearGradient x1="157.07587" y1="180.07355" x2="322.06775" y2="180.07355" gradientUnits="userSpaceOnUse" id="color-1"><stop offset="0" stop-color="#8463fd"/><stop offset="1" stop-color="#5037b4"/></linearGradient></defs><g transform="translate(-157.07587,-155.26453)"><g data-paper-data="{&quot;isPaintingLayer&quot;:true}" fill-rule="nonzero" stroke-linejoin="miter" stroke-miterlimit="10" stroke-dasharray="" stroke-dashoffset="0" style="mix-blend-mode: normal"><path d="M178.8245,204.47704c-11.55539,-0.09886 -20.89226,-9.49684 -20.89226,-21.07556c0,-11.48207 9.18165,-20.81964 20.60335,-21.07114l19.98856,-0.1201h83.92388l18.35725,-0.00088c0.06319,-0.00052 0.12644,-0.00078 0.18975,-0.00078c12.1111,0 21.9291,9.46403 21.9291,21.1385c0,11.65108 -9.77869,21.10057 -21.85633,21.13839l-18.29471,-0.07909h-83.99403z" fill="#342763" stroke="#181c4d" stroke-width="0" stroke-linecap="butt"/><path d="M177.96813,201.20356c-11.55539,-0.09886 -20.89226,-9.49684 -20.89226,-21.07556c0,-11.48207 9.18165,-20.81964 20.60335,-21.07114l19.98856,-0.1201h83.92388l18.35725,-0.00088c0.06319,-0.00052 0.12644,-0.00078 0.18975,-0.00078c12.1111,0 21.9291,9.46403 21.9291,21.1385c0,11.65108 -9.77869,21.10057 -21.85633,21.13839l-18.29471,-0.07909h-83.99403z" fill="url(#color-1)" stroke="#181c4d" stroke-width="0" stroke-linecap="butt"/><path d="M310.84306,155.51453h0.18878v0.13429" fill="none" stroke="#000000" stroke-width="0.5" stroke-linecap="butt"/><path d="M203.04294,197.72928l-5.72275,0.15795l0.64015,-5.12123z" fill-opacity="0.23922" fill="#342763" stroke="none" stroke-width="0" stroke-linecap="round"/><path d="M191.99119,192.54901l-7.30854,0.20172l0.81755,-6.54034z" fill-opacity="0.17647" fill="#342763" stroke="none" stroke-width="0" stroke-linecap="round"/><path d="M213.20959,197.54901l-7.30854,0.20172l0.81755,-6.54034z" fill-opacity="0.1098" fill="#342763" stroke="none" stroke-width="0" stroke-linecap="round"/><path d="M232.19795,197.88622l-7.30854,0.20171l0.81755,-6.54034z" fill-opacity="0.11373" fill="#342763" stroke="none" stroke-width="0" stroke-linecap="round"/><path d="M213.68122,177.95042l-7.30854,0.20171l0.81755,-6.54034z" fill-opacity="0.15294" fill="#342763" stroke="none" stroke-width="0" stroke-linecap="round"/><path d="M179.74815,195.46018l-5.04312,0.13919l0.56413,-4.51304z" fill-opacity="0.38039" fill="#342763" stroke="none" stroke-width="0" stroke-linecap="round"/><path d="M197.74336,176.54126l-9.34742,0.25799l1.04563,-8.36491z" fill-opacity="0.11373" fill="#342763" stroke="none" stroke-width="0" stroke-linecap="round"/><path d="M256.25255,167.40642l-7.30854,0.20172l0.81755,-6.54034z" fill-opacity="0.12941" fill="#342763" stroke="none" stroke-width="0" stroke-linecap="round"/><path d="M276.86269,183.96203l-7.30854,0.20172l0.81755,-6.54034z" fill-opacity="0.13725" fill="#342763" stroke="none" stroke-width="0" stroke-linecap="round"/><path d="M288.13516,196.21031l-9.12088,0.25173l1.02028,-8.16218z" fill-opacity="0.20392" fill="#342763" stroke="none" stroke-width="0" stroke-linecap="round"/><path d="M277.34666,170.49537l-5.4962,0.15169l0.61481,-4.9185z" fill-opacity="0.16863" fill="#342763" stroke="none" stroke-width="0" stroke-linecap="round"/><path d="M304.03878,186.21768l-6.30712,0.17408l0.70553,-5.64419z" fill-opacity="0.15294" fill="#342763" stroke="none" stroke-width="0" stroke-linecap="round"/><path d="M189.93989,181.39878l9.35021,-0.11978l-1.16917,8.34853z" fill-opacity="0.11373" fill="#742d64" stroke="none" stroke-width="0" stroke-linecap="round"/><path d="M212.17198,192.42874l5.2956,-0.06784l-0.66217,4.7283z" fill-opacity="0.11373" fill="#632761" stroke="none" stroke-width="0" stroke-linecap="round"/><path d="M195.68255,162.96462l5.29561,-0.06784l-0.66217,4.7283z" fill-opacity="0.19608" fill="#953a92" stroke="none" stroke-width="0" stroke-linecap="round"/><path d="M218.52281,162.89636l5.2956,-0.06784l-0.66217,4.7283z" fill-opacity="0.11373" fill="#762e74" stroke="none" stroke-width="0" stroke-linecap="round"/><path d="M167.33434,173.4962l9.35021,-0.11978l-1.16917,8.34853z" fill-opacity="0.11373" fill="#742d64" stroke="none" stroke-width="0" stroke-linecap="round"/><text transform="translate(172.94523,188.07749) scale(0.61597,0.61597)" font-size="40" xml:space="preserve" fill-opacity="0.30588" fill="#000000" fill-rule="nonzero" stroke="none" stroke-width="1" stroke-linecap="butt" stroke-linejoin="miter" stroke-miterlimit="10" stroke-dasharray="" stroke-dashoffset="0" font-family="Handwriting" font-weight="normal" text-anchor="start" style="mix-blend-mode: normal"><tspan x="0" dy="0">How to Play?</tspan></text><text transform="translate(174.07948,186.70577) scale(0.61597,0.61597)" font-size="40" xml:space="preserve" fill="#ffffff" fill-rule="nonzero" stroke="none" stroke-width="1" stroke-linecap="butt" stroke-linejoin="miter" stroke-miterlimit="10" stroke-dasharray="" stroke-dashoffset="0" font-family="Handwriting" font-weight="normal" text-anchor="start" style="mix-blend-mode: normal"><tspan x="0" dy="0">How to Play?</tspan></text></g></g></svg>