<svg version="1.1" xmlns="http://www.w3.org/2000/svg" xmlns:xlink="http://www.w3.org/1999/xlink" width="636.90536" height="501.0807" viewBox="0,0,636.90536,501.0807"><defs><radialGradient cx="240" cy="180.00001" r="42.48772" gradientUnits="userSpaceOnUse" id="color-1"><stop offset="0" stop-color="#000000" stop-opacity="0"/><stop offset="1" stop-color="#000000"/></radialGradient></defs><g transform="translate(78.08249,58.65566)"><g data-paper-data="{&quot;isPaintingLayer&quot;:true}" fill-rule="nonzero" stroke-linecap="butt" stroke-linejoin="miter" stroke-miterlimit="10" stroke-dasharray="" stroke-dashoffset="0" style="mix-blend-mode: normal"><path d="M173.01499,180.00005c0,-36.9948 29.99022,-66.98503 66.98503,-66.98503c36.9948,0 66.98503,29.99022 66.98503,66.98503c0,36.9948 -29.99023,66.98503 -66.98503,66.98503c-36.9948,0 -66.98503,-29.99022 -66.98503,-66.98503z" fill="none" stroke="#000000" stroke-width="50"/><path d="M-78.08249,368.77402v-375.88033h273.37384v375.88033z" fill="#000000" stroke="none" stroke-width="0"/><path d="M283.38053,442.42505v-492.01348h267.17503v492.01348z" fill="#000000" stroke="none" stroke-width="0"/><path d="M-77.81377,135.11595v-193.77161h636.63664v193.77162z" fill="#000000" stroke="none" stroke-width="0"/><path d="M-75.64883,433.83686v-209.15586h623.9612v209.15586z" fill="#000000" stroke="none" stroke-width="0"/><path d="M197.51228,180.00001c0,-23.46532 19.0224,-42.48772 42.48772,-42.48772c23.46532,0 42.48772,19.0224 42.48772,42.48772c0,23.46532 -19.0224,42.48772 -42.48772,42.48772c-23.46532,0 -42.48772,-19.0224 -42.48772,-42.48772z" fill="url(#color-1)" stroke="none" stroke-width="0"/><path d="M-7.74775,369.93995v-379.87988h495.4955v379.87988z" fill-opacity="0.69804" fill="#000000" stroke="none" stroke-width="NaN"/></g></g></svg>