<svg version="1.1" xmlns="http://www.w3.org/2000/svg" xmlns:xlink="http://www.w3.org/1999/xlink" width="116.91007" height="115.66489" viewBox="0,0,116.91007,115.66489"><g transform="translate(-181.41472,-121.86595)"><g data-paper-data="{&quot;isPaintingLayer&quot;:true}" fill-rule="nonzero" stroke="#000000" stroke-linecap="butt" stroke-linejoin="miter" stroke-miterlimit="10" stroke-dasharray="" stroke-dashoffset="0" style="mix-blend-mode: normal"><path d="M231.2201,130.48974c0,-4.76279 3.861,-8.6238 8.62379,-8.6238c4.76279,0 8.6238,3.86101 8.6238,8.6238c0,4.76279 -3.86101,8.6238 -8.6238,8.6238c-4.76279,0 -8.62379,-3.86101 -8.62379,-8.6238z" fill-opacity="0.1451" fill="#000000" stroke-width="0"/><path d="M190.55692,180c0,-27.30666 22.13642,-49.44308 49.44308,-49.44308c27.30666,0 49.44308,22.13642 49.44308,49.44308c0,27.30666 -22.13642,49.44308 -49.44308,49.44308c-27.30666,0 -49.44308,-22.13642 -49.44308,-49.44308z" fill="none" stroke-width="0.5"/><path d="M255.80177,136.96439c0,-4.76279 3.861,-8.6238 8.62379,-8.6238c4.76279,0 8.62379,3.86101 8.62379,8.6238c0,4.76279 -3.861,8.62379 -8.62379,8.62379c-4.76279,0 -8.62379,-3.861 -8.62379,-8.62379z" fill-opacity="0.29804" fill="#000000" stroke-width="0"/><path d="M274.64918,155.12244c0,-4.76279 3.861,-8.6238 8.62379,-8.6238c4.76279,0 8.6238,3.86101 8.6238,8.6238c0,4.76279 -3.86101,8.62379 -8.6238,8.62379c-4.76279,0 -8.62379,-3.861 -8.62379,-8.62379z" fill-opacity="0.45098" fill="#000000" stroke-width="0"/><path d="M281.0772,179.71188c0,-4.76279 3.861,-8.6238 8.62379,-8.6238c4.76279,0 8.62379,3.86101 8.62379,8.6238c0,4.76279 -3.861,8.62379 -8.62379,8.62379c-4.76279,0 -8.62379,-3.861 -8.62379,-8.62379z" fill-opacity="0.59608" fill="#000000" stroke-width="0"/><path d="M239.77564,220.28324c4.76279,0 8.6238,3.86101 8.6238,8.6238c0,4.76279 -3.86101,8.6238 -8.6238,8.6238c-4.76279,0 -8.62379,-3.86101 -8.62379,-8.6238c0,-4.76279 3.861,-8.6238 8.62379,-8.6238z" data-paper-data="{&quot;index&quot;:null}" fill="#000000" stroke-width="0"/><path d="M264.35731,213.8086c4.76279,0 8.62379,3.861 8.62379,8.62379c0,4.76279 -3.861,8.6238 -8.62379,8.6238c-4.76279,0 -8.62379,-3.86101 -8.62379,-8.6238c0,-4.76279 3.861,-8.62379 8.62379,-8.62379z" data-paper-data="{&quot;index&quot;:null}" fill-opacity="0.90196" fill="#000000" stroke-width="0"/><path d="M283.20472,195.65055c4.76279,0 8.6238,3.861 8.6238,8.62379c0,4.76279 -3.86101,8.6238 -8.6238,8.6238c-4.76279,0 -8.62379,-3.86101 -8.62379,-8.6238c0,-4.76279 3.861,-8.62379 8.62379,-8.62379z" data-paper-data="{&quot;index&quot;:null}" fill-opacity="0.74902" fill="#000000" stroke-width="0"/><path d="M223.93773,222.36414c0,4.76279 -3.861,8.62379 -8.62379,8.62379c-4.76279,0 -8.6238,-3.861 -8.6238,-8.62379c0,-4.76279 3.86101,-8.62379 8.6238,-8.62379c4.76279,0 8.62379,3.861 8.62379,8.62379z" data-paper-data="{&quot;index&quot;:null}" fill="#000000" stroke-width="0"/><path d="M205.09032,204.20609c0,4.76279 -3.861,8.6238 -8.62379,8.6238c-4.76279,0 -8.62379,-3.86101 -8.62379,-8.6238c0,-4.76279 3.861,-8.62379 8.62379,-8.62379c4.76279,0 8.62379,3.861 8.62379,8.62379z" data-paper-data="{&quot;index&quot;:null}" fill="#000000" stroke-width="0"/><path d="M198.6623,179.61665c0,4.76279 -3.861,8.6238 -8.62379,8.6238c-4.76279,0 -8.62379,-3.86101 -8.62379,-8.6238c0,-4.76279 3.861,-8.62379 8.62379,-8.62379c4.76279,0 8.62379,3.861 8.62379,8.62379z" data-paper-data="{&quot;index&quot;:null}" fill="#000000" stroke-width="0"/></g></g></svg>