<svg version="1.1" xmlns="http://www.w3.org/2000/svg" xmlns:xlink="http://www.w3.org/1999/xlink" width="212.97698" height="76.76733" viewBox="0,0,212.97698,76.76733"><defs><linearGradient x1="215.5102" y1="174.61512" x2="379.56224" y2="174.61512" gradientUnits="userSpaceOnUse" id="color-1"><stop offset="0" stop-color="#49efb5"/><stop offset="1" stop-color="#49efb5" stop-opacity="0"/></linearGradient></defs><g transform="translate(-166.58526,-138.02696)"><g data-paper-data="{&quot;isPaintingLayer&quot;:true}" fill-rule="nonzero" stroke="none" stroke-width="0.5" stroke-linecap="butt" stroke-linejoin="miter" stroke-miterlimit="10" stroke-dasharray="" stroke-dashoffset="0" style="mix-blend-mode: normal"><path d="M216.66606,188.61338c0.67826,-3.09324 1.35708,-6.26514 1.40723,-9.23728c0.01289,-0.76397 1.46054,0.85848 2.14945,1.18894c0.84984,0.40765 1.69643,0.82603 2.57793,1.15972c2.09584,0.79338 3.70713,1.19059 5.87943,1.72613c5.84586,-0.07145 5.72768,-4.34246 8.95055,-8.16105c6.23218,-7.38413 14.35197,-15.29256 17.10128,-24.47321c0.19627,-0.65539 9.46579,3.1186 10.05024,3.33777c6.07085,2.31695 12.54267,4.22563 18.41352,7.00291c2.90488,1.37419 5.92375,4.18199 9.12836,4.86192c2.36954,0.50276 5.02739,-1.17704 7.23738,-1.86381c6.2452,-1.94074 12.58465,-4.11014 18.56996,-6.76469c17.25737,-7.65545 35.79842,-14.93291 54.04485,-18.83683c1.9548,7.16989 4.60275,14.89267 5.73419,22.35482c1.43084,9.43673 0.67741,19.25834 1.65181,28.73899c-4.63197,-3.11991 -8.86582,-8.64695 -13.09554,-12.45172c-2.69558,-2.42476 -5.62219,-4.36959 -8.05078,-7.12734c-3.32753,-3.77853 -4.66405,-8.56257 -10.41589,-8.68728c-6.95413,1.70097 -12.13048,5.56857 -18.23437,9.2309c-11.93401,7.16041 -22.78324,16.16459 -33.69989,24.783c-4.46739,3.52689 -8.83345,7.10382 -13.08323,10.88984c-0.62615,0.55782 -4.49012,4.32098 -5.38065,4.39037c-0.42154,0.03284 0.10464,-0.90609 -0.12097,-1.26369c-1.3471,-2.13526 -3.62548,-4.552 -5.41342,-6.34682c-5.5984,-5.61992 -10.53433,-11.25152 -17.99955,-14.23379c-5.16254,-2.21127 -8.42336,3.285 -12.5602,5.8644c-8.34164,5.20117 -17.22199,10.47345 -25.99753,15.05072c2.36353,-6.90564 -0.43951,-13.85717 1.15585,-21.13292z" data-paper-data="{&quot;noHover&quot;:false,&quot;origItem&quot;:[&quot;Path&quot;,{&quot;applyMatrix&quot;:true,&quot;segments&quot;:[[[87.50623,437.36204],[2.38172,-6.95879],[8.84309,-4.6125]],[[113.51782,422.26864],[-8.40585,5.2412],[4.16869,-2.59926]],[[126.36386,416.2942],[-5.20227,-2.22829],[7.52268,3.00522]],[[144.47359,430.59414],[-5.64149,-5.66318],[1.80171,1.80863]],[[149.91192,436.97769],[-1.35747,-2.1517],[0.22734,0.36035]],[[150.03227,438.25023],[-0.42479,0.0331],[0.89739,-0.06992]],[[155.44771,433.82272],[-0.63097,0.56211],[4.28249,-3.81517]],[[168.59695,422.84019],[-4.50177,3.55403],[11.00067,-8.68474]],[[202.44995,397.97845],[-12.02587,7.21552],[6.15087,-3.69052]],[[221.02065,388.63891],[-7.00765,1.71407],[5.79611,0.12567]],[[231.5197,397.41097],[-3.35315,-3.80762],[2.44729,2.77898]],[[239.63265,404.60436],[-2.71633,-2.44343],[4.26228,3.83405]],[[252.63071,417.1301],[-4.66762,-3.14393],[-0.9819,-9.55362]],[[250.96596,388.20474],[1.44185,9.50937],[-1.14015,-7.51959]],[[245.19616,365.70455],[1.96985,7.22508],[-18.38688,3.93397]],[[190.74862,384.70699],[17.3902,-7.71438],[-6.03138,2.67498]],[[172.09341,391.55781],[6.29327,-1.95568],[-2.227,0.69206]],[[164.87132,393.42326],[2.38778,0.50663],[-3.22927,-0.68517]],[[155.69374,388.50684],[2.92724,1.38477],[-5.91604,-2.79865]],[[137.15037,381.43459],[6.11758,2.33478],[-0.58895,-0.22086]],[[127.02535,378.06675],[0.19778,-0.66044],[-2.77048,9.25131]],[[109.80502,402.67861],[6.28015,-7.44097],[-3.24768,3.84798]],[[100.78476,410.89087],[5.89085,-0.072],[-2.18902,-0.53966]],[[94.66135,409.17371],[2.11197,0.79949],[-0.88829,-0.33626]],[[92.06342,408.00326],[0.85638,0.41079],[-0.69422,-0.33301]],[[90.09694,406.79146],[0.01299,-0.76985],[-0.05053,2.99502]],[[88.67759,416.08877],[0.68348,-3.11705],[-1.60764,7.33175]]],&quot;closed&quot;:true}]}" fill="url(#color-1)"/><path d="M208.50313,205.55856c0.46039,-4.13138 2.40735,-5.24782 6.5106,-5.65827c2.60532,-0.42673 6.81545,-1.38101 9.11312,0.36213c2.57815,1.95594 3.11134,10.75215 1.11659,12.91814c-1.48036,1.60744 -4.90103,1.66856 -5.96555,-0.56173c-0.59068,-1.23753 -0.03604,-3.32143 -0.6853,-4.82667c-0.94572,-1.2704 -2.07073,-0.65725 -2.11635,0.89645c-0.08295,2.8248 0.55386,5.95706 -3.37459,6.10083c-5.25086,0.19216 -5.03457,-5.36647 -4.62501,-9.09836c0,0 0.00582,-0.05235 0.02649,-0.13253z" fill="#d78d39"/><path d="M192.04905,185.93314l0.14367,-0.9879c0.83135,-3.61325 1.71737,-4.60946 5.45993,-4.7949c9.55744,0.73727 19.01317,1.34611 28.57295,1.54294c4.69539,0.09668 11.18415,-0.89679 15.11517,2.38686c2.45822,2.0534 2.48384,5.50962 2.86528,8.41053c-0.88401,4.29566 -3.49626,7.82224 -8.24838,8.17511c-1.62561,0.12072 -2.83794,-0.26979 -4.33832,-0.79201c-0.8749,-0.30451 -1.97863,-1.79307 -2.5631,-1.07432c-0.23242,0.28581 -0.34486,5.38194 -0.76873,6.13967c-1.25952,2.2516 -2.13673,2.02215 -4.17466,2.77096c-1.81992,0.66869 -3.51964,2.10985 -5.44066,2.45353c-2.85179,0.5102 -6.29142,-1.36571 -8.88649,-2.41235c-2.20791,-1.47073 -4.08458,-2.85311 -5.05113,-5.45777c-0.27771,-0.74838 -0.34885,-1.55843 -0.48877,-2.34433c-0.09883,-0.55511 0.19582,-1.92151 -0.30563,-1.6637c-1.94799,1.00147 -2.85778,2.82185 -5.54007,2.65696c-7.4764,-0.45958 -8.4544,-9.3668 -6.35104,-15.00928z" fill="#8489a3"/><path d="M209.51846,196.71407c-0.04868,0.00646 -0.09994,0.00986 -0.15393,0.00986c-0.64782,0 -0.90334,-0.48952 -1.00411,-0.87567c-0.92318,-0.97505 -1.8692,-1.8796 -0.67598,-3.94496c0.49789,-0.86179 3.52915,-0.82107 4.39446,-0.8921c4.17873,-0.34303 8.98058,-0.41282 13.12252,0.22605c3.57916,1.36859 1.90092,5.6022 -0.65139,7.48237c-5.29138,3.89791 -10.67883,2.6305 -15.03157,-2.00555z" fill="#95262e"/><path d="M244.23277,183.87684c0.15269,0.25319 0.21311,0.46468 0.21311,0.46468c0.67418,2.39662 3.05445,5.31564 2.87014,7.83392c-0.21753,2.97221 -1.22467,3.21539 -3.38774,4.55438c-5.17888,3.20584 -8.3374,0.26379 -10.28464,-4.66569c-1.20975,-3.06251 -2.74384,-5.30344 0.38655,-7.87179c1.36666,-1.12128 4.62125,-1.4179 6.32843,-1.68369l1.82161,-0.28024c0,0 1.76219,-0.2711 2.03329,1.49107c0.00829,0.05383 0.01468,0.10629 0.01927,0.15737z" data-paper-data="{&quot;index&quot;:null}" fill="#6d4d25"/><path d="M189.74479,184.01779c0.00459,-0.05108 0.01098,-0.10354 0.01927,-0.15737c0.2711,-1.76217 2.03329,-1.49107 2.03329,-1.49107l1.82161,0.28024c1.70719,0.2658 4.96177,0.56242 6.32843,1.68369c3.13039,2.56835 1.5963,4.80928 0.38655,7.87179c-1.94724,4.92948 -5.10576,7.87153 -10.28464,4.66569c-2.16307,-1.33899 -3.17021,-1.58217 -3.38774,-4.55438c-0.18431,-2.51828 2.19596,-5.43731 2.87014,-7.83392c0,0 0.06042,-0.2115 0.21311,-0.46468z" fill="#6d4d25"/><path d="M207.36005,187.91299c0,0.5976 0.31727,2.4987 -0.41821,2.77971c-1.06279,0.40606 -2.77575,-1.90148 -2.90617,-2.72259c-0.21549,-1.35684 0.734,-3.18031 1.45039,-4.26583c1.08267,-1.62399 3.70987,-8.55582 6.68954,-5.76549l0.20405,0.3978c0,0 0.15948,0.31894 -0.15946,0.4784c-0.08925,0.04462 -0.166,0.05178 -0.23027,0.03895c-2.52325,1.67604 -4.65953,6.05582 -4.62986,9.05904z" data-paper-data="{&quot;index&quot;:null}" fill="#dc8f40"/><path d="M224.33264,179.74414c-0.06427,0.01282 -0.14104,0.00566 -0.23027,-0.03897c-0.31894,-0.15946 -0.15946,-0.4784 -0.15946,-0.4784l0.20405,-0.3978c2.97967,-2.79033 5.60688,4.1415 6.68954,5.7655c0.71639,1.08552 1.66588,2.909 1.45039,4.26583c-0.13041,0.82112 -1.84339,3.12867 -2.90617,2.72259c-0.73549,-0.28102 -0.41821,-2.18211 -0.41821,-2.77971c0.02967,-3.00323 -2.10663,-7.383 -4.62986,-9.05904z" fill="#dc8f40"/><path d="M191.02782,187.04911c-0.34998,-0.75594 0.05738,-1.57069 0.05738,-1.57069l0.78042,-1.54724c1.63238,-5.2513 4.48951,-5.09753 9.32275,-4.44154c2.1899,0.72951 3.10613,0.59324 4.31243,2.93958c1.27631,2.4825 1.16896,9.02292 1.15129,11.90122c-0.00579,0.94507 0.16544,2.00614 -0.31975,2.81718c-0.60031,1.00344 -1.56898,1.95122 -2.70313,2.23567c-0.96035,0.24085 -3.95022,-1.41917 -4.7514,-2.02695c-3.11897,-2.36609 -5.65615,-6.15608 -7.59782,-9.4816c0,0 -0.2077,-0.35605 -0.25216,-0.82563z" fill="#515464"/><path d="M242.70021,189.54156c-1.94169,3.32554 -4.47886,7.11552 -7.59782,9.4816c-0.80118,0.60779 -3.79107,2.2678 -4.7514,2.02695c-1.13416,-0.28445 -2.10282,-1.23223 -2.70313,-2.23567c-0.48521,-0.81102 -0.31396,-1.87211 -0.31977,-2.81718c-0.01766,-2.87829 -0.125,-9.41872 1.15129,-11.90122c1.2063,-2.34634 2.12253,-2.21007 4.31243,-2.93958c4.83324,-0.65598 7.69038,-0.80976 9.32275,4.44154l0.78042,1.54724c0,0 0.40736,0.81475 0.05738,1.57069c-0.04446,0.46958 -0.25216,0.82564 -0.25216,0.82564z" data-paper-data="{&quot;index&quot;:null}" fill="#515464"/><path d="M199.55207,175.0929c-0.31774,-0.00076 -0.63567,-0.00084 -0.9538,-0.00021c0,0 -1.78291,0 -1.78291,-1.78291v0v-1.15416c0,-5.21227 0.22676,-12.07134 6.74118,-12.39776c2.89392,0.3566 5.48077,-0.17598 8.3286,0.00126c2.31934,0.14433 4.45526,1.5245 6.76647,1.85341c2.68125,0.38157 5.96028,0.04155 8.62503,-0.2336c2.95608,-0.30523 6.43883,-2.36129 9.31264,-0.35347c4.55963,3.18566 2.51323,10.5298 -0.80954,13.22731c-12.13691,1.86003 -24.04648,0.86876 -36.22771,0.84015c-0.24105,0.14017 -0.5522,0.23062 -0.9538,0.23062c-1.78291,0 -1.78291,-1.78291 -1.78291,-1.78291v-0.23084c0,-1.78291 1.78291,-1.78291 1.78291,-1.78291c0.5931,0.00104 1.18545,0.0027 1.77712,0.00478c0.00311,0.2359 0.00579,0.44611 0.00579,0.62398v1.38499c0,0 0,1.07017 -0.82911,1.55229z" fill="#18619a"/><path d="M234.8765,170.28214c1.09964,0.07099 2.14564,0.40168 3.01938,1.24262c1.65242,1.59037 0.91807,3.22344 1.53028,5.12026c0.88755,2.74992 1.96622,5.76649 0.51274,8.79065c-1.7268,3.59279 -4.65642,2.92364 -7.67801,4.13534c-3.4963,1.40207 -6.25782,2.92429 -10.11153,3.73572c0,0 -1.74467,0.36729 -2.11196,-1.37736c-0.36729,-1.74467 1.37738,-2.11196 1.37738,-2.11196c3.69602,-0.77799 6.15252,-2.21195 9.50579,-3.55073c1.59254,-0.63581 3.66113,-0.30408 5.14408,-1.40754c2.16341,-1.60981 0.57102,-5.26097 0.02154,-6.96527c-0.40023,-1.24139 0.14463,-2.86384 -0.71171,-3.84766c-0.64731,-0.7437 -3.09844,0.03731 -3.91795,0.14959c-3.4807,1.82325 -5.94623,7.4221 -9.94079,8.54486c-3.73627,1.05016 -8.24343,-4.12028 -12.11209,-4.83966c-2.98232,-0.55458 -5.8064,0.20947 -8.6385,0.7802c-1.09533,0.22074 -2.43644,1.04939 -3.33053,0.37926c-0.11827,-0.08865 -0.22793,-0.1786 -0.32937,-0.26978c-1.65689,1.1102 -2.60669,3.11098 0.08294,4.51146c4.25196,2.21398 8.79152,5.04236 13.50463,6.10232l0.94123,0.10823c0,0 1.76913,0.22115 1.54799,1.99028c-0.22115,1.76913 -1.99028,1.54799 -1.99028,1.54799l-1.30075,-0.17202c-3.99442,-0.94111 -7.5635,-2.94734 -11.11522,-4.94338c-1.78131,-1.00108 -4.09513,-1.38892 -5.34904,-3.18515c-2.95497,-4.23306 -0.95952,-7.94998 2.9582,-9.63657c0.68191,-1.60441 2.24125,-3.11395 3.14989,-4.02065c4.89306,-2.87971 10.53991,-3.62976 16.05763,-4.61071c2.71445,-0.48258 5.89722,-1.60954 8.67106,-1.20883c3.06487,0.44275 6.14954,1.87853 8.9938,3.06358l1.26698,1.2326c0,0 0.23242,0.29053 0.3522,0.71229z" fill="#9a4a1f"/><path d="M197.89318,176.87834c0.5186,-0.41094 1.18883,-0.41095 1.18883,-0.41095l1.41038,0.02074c4.04605,-0.53686 7.19175,-2.87185 11.64021,-2.09727c1.91011,0.33259 7.02348,3.44967 8.32409,3.02393c3.0435,-3.84323 7.89137,-6.35673 13.00319,-5.26083c4.82391,1.03417 7.07499,8.57024 4.54216,12.6541c-2.77705,4.47761 -10.36132,5.78349 -14.99653,7.56835c-8.24704,3.40005 -13.64774,-3.18816 -20.82244,-6.17332c-1.64294,-0.68358 -4.53534,-0.52754 -5.94348,-1.28649c-4.65425,-2.50848 -2.10191,-7.07583 1.6536,-8.03824z" fill="#d78d39"/><path d="M193.42123,189.09355l0.6001,0.43403c1.68458,1.87323 6.41076,6.31759 4.62227,9.21715c-1.19866,1.94329 -9.37085,1.12604 -10.51369,-0.44964c-1.77121,-2.44202 0.7899,-7.4589 2.08116,-9.51287c0,0 0.95721,-1.50416 2.46139,-0.54697c0.40782,0.25952 0.6347,0.55925 0.74879,0.85831z" fill="#d78d39"/><path d="M241.03672,189.4338c1.50416,-0.95721 2.46137,0.54697 2.46137,0.54697c1.29125,2.05397 3.85237,7.07085 2.08116,9.51287c-1.14285,1.57568 -9.31504,2.39292 -10.51369,0.44964c-1.78849,-2.89954 2.93768,-7.34392 4.62226,-9.21713l0.6001,-0.43402c0.11408,-0.29906 0.34096,-0.59879 0.74879,-0.85831z" data-paper-data="{&quot;index&quot;:null}" fill="#d78d39"/><path d="M226.40736,177.39107l1.11895,-0.42338c7.7463,0.30198 8.10806,10.79456 1.37199,13.16766c-9.8742,3.47864 -7.88222,-8.65914 -3.85341,-12.25711c0,0 0.58802,-0.51219 1.36247,-0.48716z" fill="#cd7a32"/><path d="M210.27914,177.22983c4.02881,3.86432 6.02077,16.9007 -3.85341,13.16453c-6.73608,-2.54877 -6.3743,-13.81814 1.372,-14.14248l1.11895,0.45472c0.77445,-0.02687 1.36247,0.52323 1.36247,0.52323z" data-paper-data="{&quot;index&quot;:null}" fill="#cd7a32"/><path d="M224.14612,182.47451c-0.06701,-0.02081 -0.13677,-0.04882 -0.20927,-0.08507c-0.95681,-0.4784 -0.4784,-1.43521 -0.4784,-1.43521l0.04013,-0.00884c0.27651,-1.09394 1.10227,-2.03484 1.97676,-2.74788c2.3459,1.23211 6.02871,4.38956 6.72448,7.13058c0.51545,2.03061 -1.8306,5.7119 -4.52119,4.5411c-0.5827,-0.25356 -0.39333,-1.20866 -0.60369,-1.80831c-0.74235,-2.11618 -1.5426,-3.87132 -2.92882,-5.58637z" fill="#df9040"/><path d="M208.36285,188.43029c-0.21035,0.59964 -0.02099,1.55475 -0.60369,1.80831c-2.69059,1.17079 -5.03664,-2.51049 -4.52119,-4.5411c0.69577,-2.74102 4.37858,-5.89847 6.72448,-7.13058c0.87449,0.71304 1.70025,1.65394 1.97676,2.74788l0.04012,0.00884c0,0 0.4784,0.95681 -0.4784,1.43521c-0.0725,0.03625 -0.14225,0.06426 -0.20926,0.08507c-1.38621,1.71505 -2.18646,3.47019 -2.92882,5.58637z" data-paper-data="{&quot;index&quot;:null}" fill="#df9040"/><path d="M222.23976,188.1175c0.05031,-0.01198 0.08745,-0.01198 0.08745,-0.01198h0.17438c0.679,0.01468 0.78301,-0.34125 1.36099,-0.63024c1.86979,-1.86979 4.60882,-5.09462 6.97551,-6.27795c1.98399,-1.98399 2.73032,-0.04098 2.29941,2.11507c-0.3287,1.64473 -1.75394,3.04997 -2.88511,4.18114c-2.45534,2.43926 -5.03511,2.89948 -8.25907,1.2875c0,0 -0.31894,-0.15946 -0.15946,-0.4784c0.11187,-0.22373 0.30221,-0.21204 0.40588,-0.18512z" fill="#fdfdfd"/><path d="M224.42292,189.0598c-0.58458,-0.41364 -0.65333,-1.03773 -0.42054,-1.58292c-0.53479,0.34109 -1.11462,0.63517 -1.76935,0.85456c0,0 -0.33828,0.11277 -0.45105,-0.22552c-0.11277,-0.33828 0.22552,-0.45105 0.22552,-0.45105c2.6072,-0.86413 3.98336,-3.01737 6.16465,-4.47155c0.83392,-0.84025 3.17813,-2.26605 3.56927,-3.19707l0.66771,-0.19712c0,0 0.35658,0 0.35658,0.35658c0,0.35658 -0.35658,0.35658 -0.35658,0.35658l-0.02984,-0.19712c-0.63617,1.16441 -2.73006,2.41142 -3.75501,3.42966c-1.17227,0.78151 -2.12056,1.74652 -3.1407,2.62069c0.18725,-0.01819 0.38129,-0.00255 0.57649,0.0545c1.83026,0.53494 0.01669,3.12426 -1.30264,3.14505c0,0 -0.35658,0 -0.35658,-0.35658c0,-0.05399 0.00817,-0.0998 0.02205,-0.13868z" fill="#000000"/><path d="M212.61477,188.63315c0.15948,0.31893 -0.15946,0.4784 -0.15946,0.4784c-3.22396,1.61198 -5.80373,1.15175 -8.25907,-1.28752c-1.13115,-1.13116 -2.55641,-2.53641 -2.88512,-4.18114c-0.43089,-2.15605 0.31543,-4.09907 2.29943,-2.11507c2.36669,1.18334 5.10573,4.40817 6.97551,6.27795c0.57799,0.28899 0.68198,0.64491 1.36099,0.63024h0.17438c0,0 0.03714,0 0.08745,0.012c0.10367,-0.02691 0.29401,-0.03861 0.40588,0.18514z" data-paper-data="{&quot;index&quot;:null}" fill="#fdfdfd"/><path d="M209.52784,188.48268c0,0.35658 -0.35658,0.35658 -0.35658,0.35658c-1.31934,-0.0208 -3.1329,-2.61011 -1.30264,-3.14505c0.19519,-0.05705 0.38923,-0.07267 0.57649,-0.05449c-1.02015,-0.87417 -1.96845,-1.83918 -3.1407,-2.62069c-1.02495,-1.01824 -3.11884,-2.26527 -3.75501,-3.42966l-0.02984,0.19712c0,0 -0.35658,0 -0.35658,-0.35658c0,-0.35658 0.35658,-0.35658 0.35658,-0.35658l0.66771,0.1971c0.39114,0.93104 2.73537,2.35682 3.56929,3.19709c2.18128,1.4542 3.55746,3.60743 6.16465,4.47155c0,0 0.33828,0.11277 0.22553,0.45105c-0.11277,0.33828 -0.45105,0.22553 -0.45105,0.22553c-0.65473,-0.21938 -1.23456,-0.51345 -1.76935,-0.85456c0.23281,0.5452 0.16404,1.16929 -0.42052,1.58292c0.01388,0.03888 0.02205,0.0847 0.02205,0.13868z" data-paper-data="{&quot;index&quot;:null}" fill="#000000"/><path d="M227.08401,154.45376c2.89449,1.62188 4.8616,2.3636 6.35737,4.38547l0.54009,-0.38578l1.1421,1.59894c0.21637,0.29509 0.34416,0.65921 0.34416,1.05317c0,0.98467 -0.79824,1.78291 -1.78291,1.78291c-0.23487,0 -0.45915,-0.04541 -0.6645,-0.12794l-1.57899,-0.59213c-1.40937,0.01606 -7.40775,-0.02416 -8.00328,0.78301c-0.05715,0.07745 1.53499,5.96077 1.62845,6.70466c0.74141,5.93471 0.70278,11.04587 -2.02112,16.48426c-0.97033,1.93731 -3.34134,7.2773 -6.8492,4.3138c-0.02756,-0.02326 0.34082,-4.34922 0.50108,-5.20768c0.98452,-5.27316 1.56761,-10.58183 0.89646,-15.95094c-0.00342,-7.73824 -2.04697,-8.37939 -9.33443,-7.57208c-1.86849,0.207 -6.41415,1.8785 -7.62615,-0.6559c-0.66155,-1.38337 4.045,-6.65605 5.1298,-7.56082c0.48415,-0.40379 1.0189,-0.78046 1.60616,-1.01078c-0.80289,-1.00843 -1.18635,-3.80499 -1.29013,-4.22042c-1.74764,-14.54906 28.31555,-13.59301 23.06478,2.77559c-0.53433,1.66569 -1.11262,2.2809 -2.05976,3.40268z" fill="#131b2e"/><path d="M206.04781,174.00264c1.90425,-3.16043 11.40884,1.75234 8.75074,6.0293c-1.89834,3.0545 -8.3301,-1.70777 -9.63386,-2.98523c0,0 -1.2607,-1.2607 0,-2.52142c0.30004,-0.30004 0.60008,-0.45727 0.88314,-0.52266z" fill="#17111a"/><path d="M229.43146,152.44595c0.34965,1.74828 -1.39863,2.09794 -1.39863,2.09794l-0.87781,0.15193c-5.96843,2.20005 -13.00351,1.57474 -19.06337,0.06029c0,0 -1.72968,-0.43241 -1.29726,-2.16209c0.43242,-1.72968 2.1621,-1.29726 2.1621,-1.29726c5.30586,1.32693 11.71995,2.06169 16.9465,0.06029l1.43052,-0.30973c0,0 1.74829,-0.34966 2.09794,1.39863z" fill="#18619a"/><path d="M225.80378,195.10426c1.06975,0 1.06975,1.06975 1.06975,1.06975l-0.11294,0.82718c-4.05213,8.07051 -16.37746,6.70637 -19.72762,-1.10334c0,0 -0.42139,-0.98325 0.56186,-1.40465c0.98325,-0.42139 1.40465,0.56186 1.40465,0.56186c2.64075,6.1678 12.62442,7.46579 15.84749,0.98932l-0.11294,0.12962c0,0 0,-1.06975 1.06975,-1.06975z" fill="#194875"/><path d="M198.77568,186.36066c-1.44242,0.1047 -1.54711,-1.3377 -1.54711,-1.3377l-0.0856,-1.24394c-0.58261,-3.77981 -0.60128,-7.61477 0.17885,-11.38425c0,0 0.29559,-1.41567 1.71127,-1.12009c1.41568,0.29559 1.1201,1.71127 1.1201,1.71127c-0.72215,3.42461 -0.68042,6.9213 -0.15155,10.35244l0.11176,1.47516c0,0 0.1047,1.44241 -1.33772,1.54711z" fill="#131b2e"/><path d="M231.02764,165.12153c-0.47917,-0.10951 -1.00455,-0.43209 -1.22608,-1.27512c-0.45313,-1.72437 1.27124,-2.1775 1.27124,-2.1775l0.01288,0.01085c0.48587,-0.18201 0.96374,-0.38396 1.43613,-0.5989l1.01154,-0.99292c0.21759,-0.22164 0.49594,-0.38927 0.81816,-0.47395c0.95233,-0.25026 1.92724,0.3189 2.1775,1.27123c0.02148,0.08175 0.03692,0.16364 0.0466,0.24525l0.24235,1.81681l-0.03257,0.00434l0.04357,0.10261c0.055,4.04139 0.35015,7.72251 -0.12191,11.47473l0.48667,-0.00584l0.0338,2.81774c0.02753,0.81368 -0.50857,1.5674 -1.3292,1.78305c-0.95233,0.25026 -1.92725,-0.31891 -2.1775,-1.27124l-0.46933,-1.78601c-1.03187,-4.01173 0.21379,-7.50952 -2.22385,-10.94513z" fill="#131b2e"/><path d="M240.49992,205.41881c-0.15538,-0.20004 -0.23095,-0.3645 -0.23095,-0.3645c-0.92289,-2.00962 -1.92864,-3.95296 -2.7763,-5.99747c-1.46479,-3.53299 -1.51928,-5.55245 2.28392,-7.21903c0.91753,-0.40207 1.86109,-1.21392 2.83749,-0.99004c2.52179,0.57824 6.28592,7.48934 6.07639,10.14141c-0.25573,3.2369 -2.79331,4.12481 -5.11731,5.45445l-0.05546,0.10933c0,0 -1.31612,1.20274 -2.51887,-0.11338c-0.32507,-0.35571 -0.46613,-0.70315 -0.49892,-1.02079z" data-paper-data="{&quot;index&quot;:null}" fill="#89602f"/><path d="M239.35943,206.35274c-2.31773,1.40134 -4.68747,2.78171 -7.13572,3.97884c-5.79651,2.6256 -11.23972,2.78847 -17.22336,2.36106c-0.00269,-0.0089 -0.00533,-0.01783 -0.00792,-0.02676l0.7214,-0.62191c5.92706,-5.42524 11.93633,-10.79586 18.87277,-14.88498c1.0724,-0.49547 2.2458,-0.93181 2.91761,-0.68514c1.74023,0.63896 3.13671,5.18625 4.002,6.72435l0.43587,0.8466c0,0 0.81408,1.5862 -0.77214,2.40028c-0.80339,0.41232 -1.40872,0.20889 -1.81051,-0.09233z" data-paper-data="{&quot;index&quot;:null}" fill="#e1c8bc"/><path d="M237.65155,196.48514c1.43751,1.05468 0.38282,2.49218 0.38282,2.49218l-1.08325,1.47539c-2.6047,3.18664 -6.03576,6.75939 -7.06923,10.81616c-1.06201,0.37001 -2.11601,0.66381 -3.16774,0.89338c-0.56179,-0.66529 -0.33125,-1.59777 -0.33125,-1.59777c1.18401,-4.66851 4.74148,-8.62059 7.74966,-12.296l1.02679,-1.40054c0,0 1.05468,-1.4375 2.49219,-0.38282z" data-paper-data="{&quot;index&quot;:null}" fill="#ffe3d6"/><path d="M226.9389,205.02501l-0.79551,1.44953c-1.49501,2.03644 -2.74797,4.21768 -4.12144,6.32516c-1.43254,0.08838 -2.87652,0.09166 -4.34616,0.03968c0.04256,-0.0722 0.07218,-0.11258 0.07218,-0.11258c1.42207,-1.93458 2.62448,-4.00517 3.92246,-6.01921c1.56461,-1.35325 3.15327,-2.67588 4.78041,-3.94692c1.23677,0.86429 0.48806,2.26433 0.48806,2.26433z" data-paper-data="{&quot;index&quot;:null}" fill="#ffe3d6"/><path d="M188.79039,197.28011c-0.21844,-0.23293 -0.38843,-0.56717 -0.44407,-1.04582c-0.20589,-1.77098 1.56508,-1.97688 1.56508,-1.97688l0.11893,0.02976c2.52733,-0.88403 4.86098,-2.21885 7.47351,-0.29074c2.14051,1.57975 4.89389,8.95205 3.67802,11.23579c-0.47077,0.88423 -1.70234,1.0649 -2.60733,1.49444c-3.75122,1.78051 -5.24087,0.41591 -6.94952,-3.00581c-0.98877,-1.98012 -1.79753,-4.01335 -2.71066,-6.02742c0,0 -0.0747,-0.16486 -0.12397,-0.41331z" data-paper-data="{&quot;index&quot;:null}" fill="#89602f"/><path d="M187.33752,197.52948c0.0358,-0.50088 0.27883,-1.09143 1.11677,-1.42804c1.65441,-0.66462 2.31902,0.98978 2.31902,0.98978l0.35382,0.88404c0.59472,1.66157 3.11427,5.6964 2.45644,7.42959c-0.25395,0.6691 -1.35251,1.26944 -2.42954,1.75476c-7.63439,2.55955 -15.62912,3.57896 -23.61123,4.50048l-0.94251,0.13734c-0.00505,-0.00782 -0.01006,-0.01566 -0.01503,-0.02352c3.5985,-4.79973 7.28868,-8.80443 13.07057,-11.46206c2.50867,-1.06471 5.1043,-1.95004 7.68169,-2.78234z" data-paper-data="{&quot;index&quot;:null}" fill="#e1c8bc"/><path d="M193.67161,205.2862c-0.14543,1.77697 -1.92239,1.63156 -1.92239,1.63156l-1.73077,-0.14226c-4.74754,-0.13647 -10.06403,-0.03936 -14.36624,-2.20451c0,0 -0.85541,-0.43696 -0.98976,-1.29729c0.86265,-0.64395 1.77529,-1.24754 2.75075,-1.80723c3.74149,1.87796 8.68862,1.62774 12.80256,1.74867l1.82431,0.14867c0,0 1.77697,0.14541 1.63155,1.92238z" data-paper-data="{&quot;index&quot;:null}" fill="#ffe3d6"/><path d="M181.59119,209.6338c-2.0264,0.39607 -4.06653,0.72927 -6.11404,1.02423c-2.37189,-0.33948 -4.72386,-0.78821 -7.11706,-0.98188c0,0 -0.04992,-0.00408 -0.13234,-0.01925c0.92386,-1.14414 1.87265,-2.23267 2.8782,-3.2568c2.49195,0.34369 4.96062,0.82675 7.47856,1.03208l1.61621,0.34907c0,0 1.54815,0.35197 1.39047,1.85255z" data-paper-data="{&quot;index&quot;:null}" fill="#ffe3d6"/></g></g></svg>