<svg version="1.1" xmlns="http://www.w3.org/2000/svg" xmlns:xlink="http://www.w3.org/1999/xlink" width="115.94789" height="110.77896" viewBox="0,0,115.94789,110.77896"><defs><radialGradient cx="221.94421" cy="143.04899" r="5.46353" gradientUnits="userSpaceOnUse" id="color-1"><stop offset="0" stop-color="#707277"/><stop offset="1" stop-color="#4d4d4b"/></radialGradient><radialGradient cx="201.25377" cy="164.80064" r="5.22027" gradientUnits="userSpaceOnUse" id="color-2"><stop offset="0" stop-color="#707277"/><stop offset="1" stop-color="#4d4d4b"/></radialGradient><radialGradient cx="208.12397" cy="166.79647" r="7.57298" gradientUnits="userSpaceOnUse" id="color-3"><stop offset="0" stop-color="#ff784e"/><stop offset="1" stop-color="#f11c0f"/></radialGradient><radialGradient cx="202.31131" cy="146.68362" r="6.27921" gradientUnits="userSpaceOnUse" id="color-4"><stop offset="0" stop-color="#dedada"/><stop offset="1" stop-color="#969696"/></radialGradient><radialGradient cx="277.82901" cy="147.22431" r="6.27921" gradientUnits="userSpaceOnUse" id="color-5"><stop offset="0" stop-color="#dedada"/><stop offset="1" stop-color="#969696"/></radialGradient><radialGradient cx="240.00005" cy="132.85042" r="6.57179" gradientUnits="userSpaceOnUse" id="color-6"><stop offset="0" stop-color="#dedada"/><stop offset="1" stop-color="#969696"/></radialGradient><radialGradient cx="281.80498" cy="195.98822" r="6.66942" gradientUnits="userSpaceOnUse" id="color-7"><stop offset="0" stop-color="#6d6f73"/><stop offset="1" stop-color="#4d4d4b"/></radialGradient><radialGradient cx="286.65304" cy="197.40177" r="5.69439" gradientUnits="userSpaceOnUse" id="color-8"><stop offset="0" stop-color="#4d4d4b"/><stop offset="1" stop-color="#707277"/></radialGradient><radialGradient cx="272.56059" cy="191.46216" r="7.6486" gradientUnits="userSpaceOnUse" id="color-9"><stop offset="0" stop-color="#ff784e"/><stop offset="1" stop-color="#f11c0f"/></radialGradient><radialGradient cx="279.87689" cy="167.92501" r="5.22027" gradientUnits="userSpaceOnUse" id="color-10"><stop offset="0" stop-color="#707277"/><stop offset="1" stop-color="#4d4d4b"/></radialGradient><radialGradient cx="256.06008" cy="144.163" r="5.46353" gradientUnits="userSpaceOnUse" id="color-11"><stop offset="0" stop-color="#707277"/><stop offset="1" stop-color="#4d4d4b"/></radialGradient><radialGradient cx="253.06645" cy="204.45307" r="7.6486" gradientUnits="userSpaceOnUse" id="color-12"><stop offset="0" stop-color="#ff784e"/><stop offset="1" stop-color="#f11c0f"/></radialGradient><radialGradient cx="256.19811" cy="214.33491" r="6.66943" gradientUnits="userSpaceOnUse" id="color-13"><stop offset="0" stop-color="#707277"/><stop offset="1" stop-color="#4d4d4b"/></radialGradient><radialGradient cx="200.93984" cy="196.52504" r="6.66942" gradientUnits="userSpaceOnUse" id="color-14"><stop offset="0" stop-color="#6d6f73"/><stop offset="1" stop-color="#4d4d4b"/></radialGradient><radialGradient cx="196.09173" cy="197.93859" r="5.6944" gradientUnits="userSpaceOnUse" id="color-15"><stop offset="0" stop-color="#4d4d4b"/><stop offset="1" stop-color="#707277"/></radialGradient><radialGradient cx="225.2428" cy="148.52633" r="7.57297" gradientUnits="userSpaceOnUse" id="color-16"><stop offset="0" stop-color="#ff784e"/><stop offset="1" stop-color="#f11c0f"/></radialGradient><radialGradient cx="273.00667" cy="169.92083" r="7.57298" gradientUnits="userSpaceOnUse" id="color-17"><stop offset="0" stop-color="#ff784e"/><stop offset="1" stop-color="#f11c0f"/></radialGradient><radialGradient cx="210.18428" cy="191.99898" r="7.6486" gradientUnits="userSpaceOnUse" id="color-18"><stop offset="0" stop-color="#ff784e"/><stop offset="1" stop-color="#f11c0f"/></radialGradient><radialGradient cx="208.82" cy="166.34012" r="9.06367" gradientUnits="userSpaceOnUse" id="color-19"><stop offset="0" stop-color="#ff784e"/><stop offset="1" stop-color="#f11c0f"/></radialGradient><radialGradient cx="225.77181" cy="207.05247" r="7.6486" gradientUnits="userSpaceOnUse" id="color-20"><stop offset="0" stop-color="#ff784e"/><stop offset="1" stop-color="#f11c0f"/></radialGradient><radialGradient cx="222.64028" cy="216.9343" r="6.66942" gradientUnits="userSpaceOnUse" id="color-21"><stop offset="0" stop-color="#707277"/><stop offset="1" stop-color="#4d4d4b"/></radialGradient><radialGradient cx="239.96419" cy="166.17467" r="32.97744" gradientUnits="userSpaceOnUse" id="color-22"><stop offset="0" stop-color="#ff171a"/><stop offset="1" stop-color="#f4160b"/></radialGradient><linearGradient x1="240.54733" y1="142.87769" x2="240.54733" y2="180.17631" gradientUnits="userSpaceOnUse" id="color-23"><stop offset="0" stop-color="#f96541"/><stop offset="1" stop-color="#ff2925"/></linearGradient><radialGradient cx="239.36382" cy="208.929" r="10.69431" gradientUnits="userSpaceOnUse" id="color-24"><stop offset="0" stop-color="#ff7c51"/><stop offset="1" stop-color="#f0180c"/></radialGradient><radialGradient cx="239.36924" cy="222.57344" r="9.55231" gradientUnits="userSpaceOnUse" id="color-25"><stop offset="0" stop-color="#bdbabd"/><stop offset="1" stop-color="#969696"/></radialGradient><radialGradient cx="266.359" cy="200.50608" r="9.20011" gradientUnits="userSpaceOnUse" id="color-26"><stop offset="0" stop-color="#ff784e"/><stop offset="1" stop-color="#f11c0f"/></radialGradient><radialGradient cx="274.65563" cy="209.81406" r="8.02228" gradientUnits="userSpaceOnUse" id="color-27"><stop offset="0" stop-color="#dedada"/><stop offset="1" stop-color="#969696"/></radialGradient><radialGradient cx="205.17041" cy="209.63386" r="8.02228" gradientUnits="userSpaceOnUse" id="color-28"><stop offset="0" stop-color="#b4b2b4"/><stop offset="1" stop-color="#999899"/></radialGradient><radialGradient cx="189.17438" cy="179.49778" r="7.60876" gradientUnits="userSpaceOnUse" id="color-29"><stop offset="0" stop-color="#dedada"/><stop offset="1" stop-color="#969696"/></radialGradient><radialGradient cx="290.55537" cy="179.23563" r="7.93022" gradientUnits="userSpaceOnUse" id="color-30"><stop offset="0" stop-color="#dedada"/><stop offset="1" stop-color="#969696"/></radialGradient><radialGradient cx="208.31576" cy="152.79336" r="9.10916" gradientUnits="userSpaceOnUse" id="color-31"><stop offset="0" stop-color="#ff784e"/><stop offset="1" stop-color="#f11c0f"/></radialGradient><radialGradient cx="271.26845" cy="152.79336" r="9.10916" gradientUnits="userSpaceOnUse" id="color-32"><stop offset="0" stop-color="#ff784e"/><stop offset="1" stop-color="#f11c0f"/></radialGradient><radialGradient cx="213.09305" cy="200.11983" r="9.20011" gradientUnits="userSpaceOnUse" id="color-33"><stop offset="0" stop-color="#ff784e"/><stop offset="1" stop-color="#f11c0f"/></radialGradient><radialGradient cx="199.04668" cy="180.42384" r="10.90223" gradientUnits="userSpaceOnUse" id="color-34"><stop offset="0" stop-color="#ff784e"/><stop offset="1" stop-color="#f11c0f"/></radialGradient><radialGradient cx="280.82732" cy="179.58236" r="9.84846" gradientUnits="userSpaceOnUse" id="color-35"><stop offset="0" stop-color="#ff784e"/><stop offset="1" stop-color="#f11c0f"/></radialGradient></defs><g transform="translate(-182.02606,-124.23552)"><g data-paper-data="{&quot;isPaintingLayer&quot;:true}" fill-rule="nonzero" stroke-linejoin="miter" stroke-miterlimit="10" stroke-dasharray="" stroke-dashoffset="0" style="mix-blend-mode: normal"><g><path d="M213.91096,141.5567c0,0 3.29054,-3.54782 5.438,-4.50975c1.91526,-0.85788 6.83015,-0.98546 6.83015,-0.98546l3.79834,8.47983l-12.26814,5.49516z" data-paper-data="{&quot;index&quot;:null}" fill="none" stroke="#404320" stroke-width="1.5" stroke-linecap="butt"/><path d="M213.91101,141.55675c0,0 3.29049,-3.54782 5.43795,-4.50975c1.91526,-0.85788 6.83015,-0.98546 6.83015,-0.98546l3.79829,8.47983l-12.26814,5.4952z" data-paper-data="{&quot;index&quot;:null}" fill="url(#color-1)" stroke="none" stroke-width="0" stroke-linecap="butt"/><path d="M213.86382,141.45145c0,0 3.60281,-2.74502 5.63437,-3.65499c2.05745,-0.9216 6.63373,-1.84017 6.63373,-1.84017c0,0 -4.60217,0.9302 -6.63373,1.84017c-2.05745,0.9216 -5.63437,3.65499 -5.63437,3.65499z" data-paper-data="{&quot;index&quot;:null}" fill="none" stroke="#a6a5a5" stroke-width="0.5" stroke-linecap="round"/><path d="M191.90174,191.04467c0,-23.78295 21.57096,-43.06278 48.18012,-43.06278c26.60916,0 48.18012,19.27983 48.18012,43.06278c0,23.78295 -21.57096,43.06278 -48.18012,43.06278c-26.60915,0 -48.18011,-19.27988 -48.18011,-43.06278z" fill="none" stroke="#404320" stroke-width="1.5" stroke-linecap="butt"/><path d="M211.50731,144.95506l-10.92451,10.92451l-7.46737,-7.46737c0,0 2.16644,-5.20872 3.87195,-6.91423c1.91227,-1.91227 7.05256,-4.01028 7.05256,-4.01028z" fill="none" stroke="#404320" stroke-width="1.5" stroke-linecap="butt"/><path d="M276.10033,138.02835c0,0 5.14024,2.098 7.05255,4.01027c1.70551,1.70551 3.87195,6.91424 3.87195,6.91424l-7.46737,7.46737l-10.92451,-10.92451z" data-paper-data="{&quot;index&quot;:null}" fill="none" stroke="#404320" stroke-width="1.5" stroke-linecap="butt"/><path d="M205.0792,162.07318l-5.54583,-4.86847l12.01901,-13.69123l5.54583,4.86846z" fill="none" stroke="#404320" stroke-width="1.5" stroke-linecap="butt"/><path d="M262.48607,148.38195l5.54583,-4.86846l12.019,13.69123l-5.54583,4.86847z" data-paper-data="{&quot;index&quot;:null}" fill="none" stroke="#404320" stroke-width="1.5" stroke-linecap="butt"/><path d="M248.08481,138.43862h-16.16947v-11.17641c0,0 5.45804,-2.27669 7.9824,-2.27669c2.83035,0 8.18706,2.27669 8.18706,2.27669z" fill="none" stroke="#404320" stroke-width="1.5" stroke-linecap="butt"/><path d="M284.6135,209.76202c1.39274,1.13607 0.52996,4.49888 -1.92706,7.51108c-2.45703,3.0122 -5.57791,4.53314 -6.97065,3.39708c-1.39274,-1.13607 -0.52996,-4.49888 1.92706,-7.51108c2.45702,-3.0122 5.57791,-4.53314 6.97065,-3.39708z" fill="none" stroke="#404320" stroke-width="1.5" stroke-linecap="butt"/><path d="M202.18321,212.97884c2.45702,3.0122 3.31985,6.37501 1.92706,7.51108c-1.39274,1.13607 -4.51363,-0.38487 -6.97065,-3.39707c-2.45702,-3.0122 -3.31985,-6.37502 -1.92707,-7.51109c1.39274,-1.13607 4.51363,0.38487 6.97065,3.39708z" data-paper-data="{&quot;index&quot;:null}" fill="none" stroke="#404320" stroke-width="1.5" stroke-linecap="butt"/><path d="M182.77607,187.42805v-15.86049h12.79654v15.86049z" fill="none" stroke="#404320" stroke-width="1.5" stroke-linecap="butt"/><path d="M283.88671,187.1659v-15.86049h13.33724v15.86049z" fill="none" stroke="#404320" stroke-width="1.5" stroke-linecap="butt"/><path d="M195.37765,191.43092v-22.01416h7.33805v22.01416z" fill="none" stroke="#404320" stroke-width="1.5" stroke-linecap="butt"/><path d="M277.64111,190.01011v-20.8555h6.37256v20.8555z" fill="none" stroke="#404320" stroke-width="1.5" stroke-linecap="butt"/><path d="M191.90174,191.04467c0,-23.78295 21.57096,-43.06278 48.18012,-43.06278c26.60916,0 48.18012,19.27983 48.18012,43.06278c0,23.78295 -21.57096,43.06278 -48.18012,43.06278c-26.60915,0 -48.18011,-19.27988 -48.18011,-43.06278z" fill="#4f655a" stroke="none" stroke-width="0" stroke-linecap="butt"/><path d="M207.64351,160.36393l-4.57601,12.00136l-8.20347,-3.12788c0,0 -0.12642,-4.68826 0.58798,-6.5619c0.80106,-2.10076 3.98804,-5.4395 3.98804,-5.4395z" data-paper-data="{&quot;index&quot;:null}" fill="none" stroke="#404320" stroke-width="1.5" stroke-linecap="butt"/><path d="M207.64351,160.36393l-4.57601,12.00136l-8.20347,-3.12788c0,0 -0.12642,-4.68826 0.58798,-6.5619c0.80106,-2.10076 3.98804,-5.4395 3.98804,-5.4395z" data-paper-data="{&quot;index&quot;:null}" fill="url(#color-2)" stroke="none" stroke-width="0" stroke-linecap="butt"/><path d="M199.76348,157.3593c0,0 -2.41278,3.5898 -3.17053,5.5772c-0.76742,2.0128 -1.40544,6.42421 -1.40544,6.42421c0,0 0.64769,-4.4368 1.40544,-6.42421c0.76742,-2.01275 3.17053,-5.5772 3.17053,-5.5772z" data-paper-data="{&quot;index&quot;:null}" fill="none" stroke="#a6a5a5" stroke-width="0.5" stroke-linecap="round"/><path d="M208.82205,174.93728l-5.86229,-1.80907l4.46613,-14.47255l5.8623,1.80907z" data-paper-data="{&quot;index&quot;:null}" fill="url(#color-3)" stroke="none" stroke-width="0" stroke-linecap="butt"/><path d="M202.32753,172.09058l4.99961,-13.11244" data-paper-data="{&quot;index&quot;:null}" fill="none" stroke="#ff8e5f" stroke-width="0.5" stroke-linecap="round"/><path d="M211.50731,144.95506l-10.92451,10.92451l-7.46737,-7.46737c0,0 2.16644,-5.20872 3.87195,-6.91423c1.91227,-1.91227 7.05256,-4.01028 7.05256,-4.01028z" fill="url(#color-4)" stroke="none" stroke-width="0" stroke-linecap="butt"/><path d="M243.38198,233.43744c0,0.87098 -1.86602,1.57704 -4.16788,1.57704c-2.30186,0 -4.16788,-0.70606 -4.16788,-1.57704c0,-0.87098 1.86602,-1.57704 4.16788,-1.57704c2.30186,0 4.16788,0.70606 4.16788,1.57704z" fill="#69736f" stroke="none" stroke-width="0" stroke-linecap="butt"/><path d="M220.22333,227.30867c-0.34351,0.66329 -2.04311,0.46513 -3.79616,-0.4427c-1.75305,-0.90783 -2.89572,-2.18155 -2.5522,-2.84483c0.34351,-0.66329 2.0431,-0.46513 3.79616,0.4427c1.75305,0.90783 2.89572,2.18155 2.55221,2.84483z" fill="#69736f" stroke="none" stroke-width="0" stroke-linecap="butt"/><path d="M262.38647,225.13973c1.75306,-0.90783 3.45264,-1.10604 3.79615,-0.44271c0.34352,0.66329 -0.79915,1.93701 -2.5522,2.84484c-1.75306,0.90783 -3.45264,1.10604 -3.79615,0.44271c-0.34352,-0.66329 0.79915,-1.937 2.5522,-2.84483z" data-paper-data="{&quot;index&quot;:null}" fill="#69736f" stroke="none" stroke-width="0" stroke-linecap="butt"/><path d="M198.11144,142.34546c-1.80906,1.80907 -4.70167,6.36111 -4.70167,6.36111c0,0 2.86952,-4.52896 4.70167,-6.36111c1.80907,-1.80907 6.22284,-4.5634 6.22284,-4.5634c0,0 -4.39069,2.73125 -6.22284,4.5634z" fill="none" stroke="#d5d5d3" stroke-width="0.5" stroke-linecap="round"/><path d="M276.10033,138.02835c0,0 5.14024,2.098 7.05255,4.01027c1.70551,1.70551 3.87195,6.91424 3.87195,6.91424l-7.46737,7.46737l-10.92451,-10.92451z" data-paper-data="{&quot;index&quot;:null}" fill="url(#color-5)" stroke="none" stroke-width="0" stroke-linecap="butt"/><path d="M282.02876,142.88617c1.80907,1.80907 4.70167,6.3611 4.70167,6.3611c0,0 -2.86952,-4.52895 -4.70167,-6.3611c-1.80907,-1.80907 -6.22284,-4.56341 -6.22284,-4.56341c0,0 4.39069,2.73126 6.22284,4.56341z" data-paper-data="{&quot;index&quot;:null}" fill="none" stroke="#d5d5d3" stroke-width="0.5" stroke-linecap="round"/><path d="M248.08481,138.43866h-16.16947v-11.17641c0,0 5.45804,-2.27669 7.9824,-2.27669c2.83035,0 8.18702,2.27669 8.18702,2.27669z" fill="url(#color-6)" stroke="none" stroke-width="0" stroke-linecap="butt"/><path d="M240.1024,125.88168c-2.6776,0 -8.18702,1.24181 -8.18702,1.24181c0,0 5.47529,-1.24181 8.18702,-1.24181c2.67765,0 7.9824,1.24181 7.9824,1.24181c0,0 -5.27067,-1.24181 -7.9824,-1.24181z" fill="none" stroke="#d5d5d3" stroke-width="0.5" stroke-linecap="round"/><path d="M197.50175,186.89287c0,-21.48995 19.06372,-38.91098 42.58002,-38.91098c23.5163,0 42.57997,17.42103 42.57997,38.91098c0,21.48995 -19.06372,38.91099 -42.57997,38.91099c-23.5163,0 -42.58001,-17.42108 -42.58001,-38.91099z" fill="#98948a" stroke="none" stroke-width="0" stroke-linecap="butt"/><path d="M201.12913,180.25536c0,-23.47739 17.38704,-42.50952 38.83501,-42.50952c21.44798,0 38.83501,19.03213 38.83501,42.50952c0,23.4774 -17.38699,42.50951 -38.83497,42.50951c-21.44793,0 -38.83497,-19.03216 -38.83497,-42.50951z" fill="#b2170d" stroke="none" stroke-width="0" stroke-linecap="butt"/><path d="M284.79004,196.97033c-1.68938,4.27256 0.49498,6.69567 0.49498,6.69567l-7.81017,-2.32579c0,0 -3.20943,-3.41646 -1.81196,-7.96333c1.5401,-5.01093 6.51934,-4.38262 6.51934,-4.38262l7.14858,2.9455c0,0 -2.69801,0.37007 -4.54076,5.03066z" data-paper-data="{&quot;index&quot;:null}" fill="url(#color-7)" stroke="none" stroke-width="0" stroke-linecap="butt"/><path d="M289.34261,192.5645c1.44283,0.38861 1.93103,3.23332 1.09053,6.35376c-0.8405,3.12044 -2.69155,5.33501 -4.13432,4.9464c-1.44283,-0.38861 -1.93103,-3.23332 -1.09053,-6.35376c0.8405,-3.12044 2.69155,-5.33501 4.13432,-4.9464z" data-paper-data="{&quot;index&quot;:null}" fill="#000000" stroke="#2d1820" stroke-width="0.5" stroke-linecap="butt"/><path d="M284.89676,203.09611c0,0 -1.35312,-3.39952 -0.04576,-6.66131c1.30504,-3.256 4.25563,-4.72747 4.25563,-4.72747c0,0 -2.43867,1.31534 -4.14267,4.7719c-1.68002,3.4079 -0.06719,6.61693 -0.06719,6.61693z" data-paper-data="{&quot;index&quot;:null}" fill="url(#color-8)" stroke="#a6a5a5" stroke-width="0.5" stroke-linecap="round"/><path d="M274.73098,192.55385c-2.27931,5.80927 0.80049,8.75499 0.80049,8.75499l-7.95424,-3.56097l5.44993,-14.29346l8.4059,3.73319c0,0 -4.42259,-0.44351 -6.70209,5.36625z" data-paper-data="{&quot;index&quot;:null}" fill="url(#color-9)" stroke="none" stroke-width="0" stroke-linecap="butt"/><path d="M274.15504,200.72741c0,0 -2.04827,-4.57654 -0.27124,-9.27523c1.77703,-4.69864 6.1035,-5.35413 6.1035,-5.35413" data-paper-data="{&quot;index&quot;:null}" fill="none" stroke="#ff8e5f" stroke-width="0.5" stroke-linecap="butt"/><path d="M281.69064,160.36036c0,0 3.18697,3.33874 3.98804,5.43951c0.71439,1.87364 0.58797,6.5619 0.58797,6.5619l-8.20346,3.12789l-4.57601,-12.00136z" data-paper-data="{&quot;index&quot;:null}" fill="none" stroke="#404320" stroke-width="1.5" stroke-linecap="butt"/><path d="M219.63347,154.46719l-2.55323,-5.57858l13.77207,-6.30318l2.55323,5.57858z" fill="none" stroke="#404320" stroke-width="1.5" stroke-linecap="butt"/><path d="M267.8425,163.58909l5.8623,-1.80907l4.46613,14.47256l-5.8623,1.80907z" data-paper-data="{&quot;index&quot;:null}" fill="none" stroke="#404320" stroke-width="1.5" stroke-linecap="butt"/><path d="M260.29506,151.15054l-12.26819,-5.49516l3.79834,-8.47983c0,0 4.9149,0.12758 6.83016,0.98546c2.14746,0.96193 5.43799,4.50976 5.43799,4.50976z" fill="none" stroke="#404320" stroke-width="1.5" stroke-linecap="butt"/><path d="M200.13596,192.10632c0.8405,3.12044 0.35229,5.96509 -1.09053,6.35371c-1.44278,0.38861 -3.29383,-1.82595 -4.13433,-4.94639c-0.8405,-3.12044 -0.35229,-5.96514 1.09053,-6.35376c1.44278,-0.38861 3.29383,1.826 4.13433,4.94644z" data-paper-data="{&quot;index&quot;:null}" fill="none" stroke="#404320" stroke-width="1.5" stroke-linecap="butt"/><path d="M224.44156,221.63014c-0.29602,0.66083 -1.95175,0.56236 -3.69826,-0.2199c-1.74646,-0.78231 -2.92228,-1.95215 -2.62631,-2.61299c0.29602,-0.66083 1.95175,-0.56236 3.69821,0.2199c1.74646,0.78231 2.92233,1.95215 2.62631,2.61299z" fill="#69736f" stroke="none" stroke-width="0" stroke-linecap="butt"/><path d="M281.69064,160.36036c0,0 3.18697,3.33874 3.98804,5.43951c0.71439,1.87364 0.58797,6.5619 0.58797,6.5619l-8.20346,3.12789l-4.57601,-12.00136z" data-paper-data="{&quot;index&quot;:null}" fill="url(#color-10)" stroke="none" stroke-width="0" stroke-linecap="butt"/><path d="M284.53765,166.06086c0.75775,1.9874 1.40544,6.42421 1.40544,6.42421c0,0 -0.63802,-4.41141 -1.40544,-6.42421c-0.75775,-1.9874 -3.17052,-5.5772 -3.17052,-5.5772c0,0 2.4031,3.56445 3.17052,5.5772z" data-paper-data="{&quot;index&quot;:null}" fill="none" stroke="#a6a5a5" stroke-width="0.5" stroke-linecap="round"/><path d="M260.29506,151.15059l-12.26815,-5.4952l3.79829,-8.47983c0,0 4.9149,0.12753 6.83016,0.98546c2.14746,0.96193 5.43795,4.50976 5.43795,4.50976z" fill="url(#color-11)" stroke="none" stroke-width="0" stroke-linecap="butt"/><path d="M258.50604,138.91047c-2.03156,-0.90997 -6.63373,-1.84017 -6.63373,-1.84017c0,0 4.57628,0.91857 6.63373,1.84017c2.03161,0.91001 5.63437,3.65499 5.63437,3.65499c0,0 -3.57692,-2.73343 -5.63437,-3.65499z" fill="none" stroke="#a6a5a5" stroke-width="0.5" stroke-linecap="round"/><path d="M253.55594,206.98411c3.91991,-1.49465 7.78059,-0.91518 8.623,1.29426c0.84241,2.2094 -1.65239,5.21212 -5.5723,6.70677c-3.91991,1.49465 -7.78059,0.91518 -8.62301,-1.29422c-0.84241,-2.2094 1.65244,-5.21216 5.5723,-6.70677z" data-paper-data="{&quot;index&quot;:null}" fill="#cc2213" stroke="none" stroke-width="0" stroke-linecap="butt"/><path d="M253.69712,206.79932c-5.85209,2.16702 -5.99954,6.42621 -5.99954,6.42621l-2.63883,-8.30586l14.29346,-5.44994l2.81106,8.75749c0,0 -2.61356,-3.59515 -8.46615,-1.42794z" data-paper-data="{&quot;index&quot;:null}" fill="url(#color-12)" stroke="none" stroke-width="0" stroke-linecap="butt"/><path d="M252.78626,222.04335l-3.46449,-7.37597c0,0 0.41232,-4.66936 4.73536,-6.65387c4.76424,-2.18703 7.61059,1.94649 7.61059,1.94649l2.56165,7.29492c0,0 -2.07238,-1.76669 -6.77677,-0.03872c-4.31266,1.58408 -4.66643,4.8272 -4.66643,4.8272z" fill="url(#color-13)" stroke="none" stroke-width="0" stroke-linecap="butt"/><path d="M209.27505,196.0006c-2.2094,0.84241 -5.21212,-1.65239 -6.70672,-5.57229c-1.49465,-3.9199 -0.91518,-7.78059 1.29422,-8.623c2.2094,-0.84241 5.21216,1.65239 6.70676,5.57229c1.49465,3.91991 0.91514,7.78059 -1.2943,8.623z" fill="#cc2213" stroke="none" stroke-width="0" stroke-linecap="butt"/><path d="M263.7711,217.67962c0.67064,1.3353 -1.12685,3.5935 -4.01473,5.0439c-2.88792,1.4504 -5.77269,1.54375 -6.44332,0.20845c-0.67064,-1.3353 1.12685,-3.5935 4.01477,-5.0439c2.88792,-1.4504 5.77265,-1.54375 6.44328,-0.20845z" fill="#000000" stroke="#2d1820" stroke-width="0.5" stroke-linecap="butt"/><path d="M197.95481,197.50724c-1.84276,-4.66059 -4.54076,-5.03066 -4.54076,-5.03066l7.14858,-2.94549c0,0 4.97924,-0.6283 6.51934,4.38262c1.39747,4.54687 -1.81197,7.96332 -1.81197,7.96332l-7.81017,2.32579c0,0 2.18436,-2.42311 0.49498,-6.69567z" data-paper-data="{&quot;index&quot;:null}" fill="url(#color-14)" stroke="none" stroke-width="0" stroke-linecap="butt"/><path d="M197.53648,198.04772c0.8405,3.12044 0.35229,5.96514 -1.09053,6.35375c-1.44278,0.38861 -3.29383,-1.82596 -4.13433,-4.9464c-0.8405,-3.12044 -0.35229,-5.96514 1.09053,-6.35376c1.44278,-0.38861 3.29383,1.82596 4.13433,4.9464z" data-paper-data="{&quot;index&quot;:null}" fill="#000000" stroke="#2d1820" stroke-width="0.5" stroke-linecap="butt"/><path d="M197.84809,203.63298c0,0 1.61283,-3.20903 -0.06719,-6.61693c-1.70399,-3.45656 -4.14266,-4.7719 -4.14266,-4.7719c0,0 2.95057,1.47147 4.25562,4.72747c1.30736,3.26179 -0.04576,6.66132 -0.04576,6.66132z" fill="url(#color-15)" stroke="#a6a5a5" stroke-width="0.5" stroke-linecap="round"/><path d="M257.65315,217.13777c3.29824,-1.19404 6.36067,0.02785 6.36067,0.02785c0,0 -2.60501,-0.94388 -6.31864,0.08601c-3.66132,1.01544 -4.98187,4.3553 -4.98187,4.3553c0,0 1.63573,-3.27297 4.93985,-4.46916z" data-paper-data="{&quot;index&quot;:null}" fill="none" stroke="#a6a5a5" stroke-width="0.5" stroke-linecap="round"/><path d="M219.63347,154.46719l-2.55323,-5.57858l13.77207,-6.30318l2.55323,5.57858z" fill="url(#color-16)" stroke="none" stroke-width="0" stroke-linecap="butt"/><path d="M267.8425,163.58909l5.8623,-1.80907l4.46613,14.47256l-5.8623,1.80907z" data-paper-data="{&quot;index&quot;:null}" fill="url(#color-17)" stroke="none" stroke-width="0" stroke-linecap="butt"/><path d="M201.31178,187.72442l8.40591,-3.73319l5.44993,14.29346l-7.95424,3.56097c0,0 3.0798,-2.94572 0.80049,-8.75499c-2.27949,-5.80976 -6.70209,-5.36625 -6.70209,-5.36625z" fill="url(#color-18)" stroke="none" stroke-width="0" stroke-linecap="butt"/><path d="M202.29536,173.44454l7.48154,-16.70267l5.56758,2.49383l-7.48154,16.70268z" fill="url(#color-19)" stroke="none" stroke-width="0" stroke-linecap="butt"/><path d="M247.79618,212.42594c0,0 2.05103,-4.5753 6.74005,-6.37773c4.68898,-1.80238 8.05856,0.98937 8.05856,0.98937" fill="none" stroke="#ff8e5f" stroke-width="0.5" stroke-linecap="butt"/><path d="M202.75746,186.63487c0,0 4.32647,0.65548 6.1035,5.35413c1.77703,4.69869 -0.27124,9.27524 -0.27124,9.27524" data-paper-data="{&quot;index&quot;:null}" fill="none" stroke="#ff8e5f" stroke-width="0.5" stroke-linecap="butt"/><path d="M216.67519,210.82666l2.81101,-8.75748l14.29346,5.44993l-2.63883,8.30586c0,0 -0.14749,-4.25919 -5.99954,-6.42625c-5.85259,-2.16725 -8.4661,1.42794 -8.4661,1.42794z" data-paper-data="{&quot;index&quot;:null}" fill="url(#color-20)" stroke="none" stroke-width="0" stroke-linecap="butt"/><path d="M226.0522,224.64279c0,0 -0.35377,-3.24312 -4.66643,-4.8272c-4.70439,-1.72797 -6.77677,0.03872 -6.77677,0.03872l2.56166,-7.29496c0,0 2.84631,-4.13352 7.61054,-1.94649c4.32308,1.98451 4.7354,6.65387 4.7354,6.65387l-3.46449,7.37597z" data-paper-data="{&quot;index&quot;:null}" fill="url(#color-21)" stroke="none" stroke-width="0" stroke-linecap="butt"/><path d="M221.5105,220.48743c2.88792,1.4504 4.68541,3.70865 4.01477,5.0439c-0.67064,1.3353 -3.5554,1.24194 -6.44332,-0.20846c-2.88792,-1.4504 -4.68536,-3.70865 -4.01472,-5.0439c0.67064,-1.3353 3.55535,-1.24194 6.44328,0.20846z" data-paper-data="{&quot;index&quot;:null}" fill="#000000" stroke="#2d1820" stroke-width="0.5" stroke-linecap="butt"/><path d="M226.12501,224.20632c0,0 -1.32055,-3.3399 -4.98187,-4.3553c-3.71363,-1.02989 -6.31865,-0.08605 -6.31865,-0.08605c0,0 3.06243,-1.22185 6.36067,-0.02781c3.30412,1.19619 4.93985,4.46916 4.93985,4.46916z" data-paper-data="{&quot;index&quot;:null}" fill="none" stroke="#a6a5a5" stroke-width="0.5" stroke-linecap="round"/><path d="M216.24357,209.63698c0,0 3.36958,-2.7918 8.05856,-0.98942c4.68906,1.80238 6.74005,6.37773 6.74005,6.37773" data-paper-data="{&quot;index&quot;:null}" fill="none" stroke="#ff8e5f" stroke-width="0.5" stroke-linecap="butt"/><path d="M209.85328,157.76204l-7.13927,15.93859" fill="none" stroke="#ff8e5f" stroke-width="0.5" stroke-linecap="round"/><path d="M231.28717,144.21817l-13.98662,5.33292" fill="none" stroke="#ff8e5f" stroke-width="0.5" stroke-linecap="round"/><path d="M273.80355,162.1025l4.9996,13.11243" fill="none" stroke="#ff8e5f" stroke-width="0.5" stroke-linecap="round"/><path d="M203.8327,169.6667c0,-17.6294 16.17664,-31.92082 36.13153,-31.92082c19.95484,0 36.13152,14.29142 36.13152,31.92082c0,17.6294 -16.1766,31.92086 -36.13148,31.92086c-19.95484,0 -36.13147,-14.29146 -36.13147,-31.92086z" fill="#51444c" stroke="none" stroke-width="0" stroke-linecap="butt"/><path d="M250.60613,218.46585c0,3.30617 -4.7551,5.98631 -10.62087,5.98631c-5.86573,0 -10.62088,-2.68018 -10.62088,-5.98631c0,-3.30617 4.7551,-5.98631 10.62088,-5.98631c5.86573,0 10.62087,2.68018 10.62087,5.98631z" fill="#cc2213" stroke="#ff8e5f" stroke-width="0" stroke-linecap="butt"/><path d="M205.40975,167.30116c0,-16.32293 15.47054,-29.55527 34.55448,-29.55527c19.0839,0 34.55448,13.23235 34.55448,29.55527c0,16.32293 -15.47053,29.55527 -34.55448,29.55527c-19.0839,0 -34.55448,-13.23235 -34.55448,-29.55527z" fill="#b08199" stroke="none" stroke-width="0" stroke-linecap="butt"/><path d="M206.98679,166.17467c0,-15.70082 14.76452,-28.42883 32.97744,-28.42883c18.21292,0 32.97744,12.72801 32.97744,28.42883c0,15.70082 -14.76447,28.42883 -32.97744,28.42883c-18.21292,0 -32.97744,-12.72801 -32.97744,-28.42883z" fill="url(#color-22)" stroke="none" stroke-width="0" stroke-linecap="butt"/><path d="M220.30611,161.527c0,-10.29972 9.06237,-18.6493 20.24132,-18.6493c11.17895,0 20.24132,8.34958 20.24132,18.6493c0,10.29972 -9.06237,18.64931 -20.24132,18.64931c-11.17895,0 -20.24132,-8.34958 -20.24132,-18.64931z" fill="url(#color-23)" stroke="none" stroke-width="0" stroke-linecap="butt"/><path d="M228.05355,146.69177c0,0 7.09257,5.0623 14.49875,10.9098c7.20183,5.6861 15.87733,18.23681 15.87733,18.23681c0,0 -11.88122,-11.0024 -19.27511,-16.21051c-6.96789,-4.90807 -16.43317,-7.5429 -16.43317,-7.5429" fill="#000000" stroke="#000000" stroke-width="0" stroke-linecap="round"/><path d="M218.68674,156.95464l-2.68972,-2.68967l13.08159,-12.30736l2.68972,2.68968z" fill="#000000" stroke="none" stroke-width="0" stroke-linecap="butt"/><path d="M256.57957,151.24256c0,0 -9.35545,3.00151 -16.12687,8.1773c-7.18539,5.49218 -18.62903,16.94905 -18.62903,16.94905c0,0 8.17998,-12.87906 15.15487,-18.84144c7.17278,-6.13153 14.06277,-11.46628 14.06277,-11.46628" data-paper-data="{&quot;index&quot;:null}" fill="#000000" stroke="#000000" stroke-width="0" stroke-linecap="round"/><path d="M247.2496,144.163l2.58291,-2.79243l13.55109,11.78841l-2.58287,2.79243z" data-paper-data="{&quot;index&quot;:null}" fill="#000000" stroke="none" stroke-width="0" stroke-linecap="butt"/><path d="M229.35947,218.39126l-0.68998,-12.8416h21.38858l0.68998,12.1657c0,0 -2.31435,-5.49097 -11.0393,-5.40698c-8.72567,0.08399 -10.34928,6.08288 -10.34928,6.08288z" fill="url(#color-24)" stroke="none" stroke-width="0" stroke-linecap="butt"/><path d="M244.05528,199.14319c0,1.39359 -1.85594,2.52324 -4.14533,2.52324c-2.28939,0 -4.14533,-1.1297 -4.14533,-2.52324c0,-1.39359 1.85595,-2.52324 4.14533,-2.52324c2.28939,0 4.14533,1.1297 4.14533,2.52324z" fill="#a58795" stroke="none" stroke-width="0" stroke-linecap="butt"/><path d="M229.36443,216.05209c0,0 3.79602,-4.68661 10.60594,-4.68661c6.80983,0 10.82149,5.05798 10.82149,5.05798" fill="none" stroke="#ff8e5f" stroke-width="0.5" stroke-linecap="butt"/><path d="M230.71804,229.78276l-0.7209,-10.27326c0,0 2.93449,-6.03849 9.73256,-6.48837c7.49187,-0.49578 9.19186,6.48837 9.19186,6.48837l-0.90119,9.55231c0,0 -1.11321,-3.87713 -8.29072,-3.96513c-6.5799,-0.08066 -9.01165,4.68604 -9.01165,4.68604z" fill="url(#color-25)" stroke="none" stroke-width="0" stroke-linecap="butt"/><path d="M268.1407,203.04389c3.56819,-3.56818 8.09118,-4.8304 10.10233,-2.81925c2.01115,2.01115 0.74892,6.53414 -2.81921,10.10233c-3.56819,3.56819 -8.09117,4.8304 -10.10232,2.81925c-2.01115,-2.01115 -0.74893,-6.53414 2.81921,-10.10233z" data-paper-data="{&quot;index&quot;:null}" fill="#cc2213" stroke="none" stroke-width="0" stroke-linecap="butt"/><path d="M268.20488,202.77162c-5.35859,5.25641 -3.42618,10.00447 -3.42618,10.00447l-6.98086,-7.82024l13.01093,-13.01092l7.39197,8.23135c0,0 -4.63684,-2.66151 -9.99586,2.59534z" data-paper-data="{&quot;index&quot;:null}" fill="url(#color-26)" stroke="none" stroke-width="0" stroke-linecap="butt"/><path d="M247.84021,229.33221c0,2.14011 -3.75222,3.87499 -8.38081,3.87499c-4.62864,0 -8.38082,-1.73492 -8.38082,-3.87499c0,-2.14011 3.75222,-3.87498 8.38082,-3.87498c4.62864,0 8.38081,1.73492 8.38081,3.87498z" fill="#000000" stroke="#2d1820" stroke-width="0.5" stroke-linecap="butt"/><path d="M274.70065,219.95368l-7.43003,-6.39351c0,0 -1.84333,-5.32854 1.92653,-9.63274c4.15456,-4.74347 9.31164,-1.60543 9.31164,-1.60543l6.39907,6.74848c0,0 -3.14365,-0.9204 -7.45827,3.28968c-3.95533,3.85952 -2.74898,7.59361 -2.74898,7.59361z" fill="url(#color-27)" stroke="none" stroke-width="0" stroke-linecap="butt"/><path d="M214.13056,212.76001c-2.01115,2.01115 -6.53413,0.74892 -10.10232,-2.81926c-3.56818,-3.56818 -4.83041,-8.09117 -2.81926,-10.10232c2.01115,-2.01115 6.53414,-0.74893 10.10233,2.81921c3.56819,3.56819 4.8304,8.09118 2.81921,10.10233z" fill="#cc2213" stroke="none" stroke-width="0" stroke-linecap="butt"/><path d="M284.6135,209.76202c1.39274,1.13607 0.52996,4.49888 -1.92706,7.51108c-2.45703,3.0122 -5.57791,4.53314 -6.97065,3.39708c-1.39274,-1.13607 -0.52996,-4.49888 1.92706,-7.51108c2.45702,-3.0122 5.57791,-4.53314 6.97065,-3.39708z" fill="#000000" stroke="#2d1820" stroke-width="0.5" stroke-linecap="butt"/><path d="M202.37655,212.17987c-4.31457,-4.21008 -7.45827,-3.28968 -7.45827,-3.28968l6.39907,-6.74847c0,0 5.15708,-3.13805 9.31164,1.60542c3.76982,4.30419 1.92653,9.63275 1.92653,9.63275l-7.43003,6.39351c0,0 1.20639,-3.73409 -2.74899,-7.59361z" data-paper-data="{&quot;index&quot;:null}" fill="url(#color-28)" stroke="none" stroke-width="0" stroke-linecap="butt"/><path d="M202.18321,212.97884c2.45702,3.0122 3.31985,6.37501 1.92706,7.51108c-1.39274,1.13607 -4.51363,-0.38487 -6.97065,-3.39707c-2.45702,-3.0122 -3.31985,-6.37502 -1.92707,-7.51109c1.39274,-1.13607 4.51363,0.38487 6.97065,3.39708z" data-paper-data="{&quot;index&quot;:null}" fill="#000000" stroke="#2d1820" stroke-width="0.5" stroke-linecap="butt"/><path d="M182.77607,187.42805v-15.86049h12.79654v15.86049z" fill="url(#color-29)" stroke="none" stroke-width="0" stroke-linecap="butt"/><path d="M283.88671,187.1659v-15.86049h13.33724v15.86049z" fill="url(#color-30)" stroke="none" stroke-width="0" stroke-linecap="butt"/><path d="M183.87243,187.42805v-15.86049z" fill="none" stroke="#d5d5d3" stroke-width="0.5" stroke-linecap="round"/><path d="M296.69822,171.30541v15.86049z" fill="none" stroke="#d5d5d3" stroke-width="0.5" stroke-linecap="round"/><path d="M248.0095,228.17354c0,0 -3.52607,-3.85551 -9.02926,-3.33816c-5.5817,0.52474 -8.63356,3.15792 -8.63356,3.15792c0,0 3.52946,-3.24815 8.63169,-3.33451c5.11132,-0.08653 9.03113,3.51471 9.03113,3.51471z" fill="none" stroke="#d5d5d3" stroke-width="0.5" stroke-linecap="round"/><path d="M205.27152,218.95691c0,0 0.19259,-4.31573 -3.32734,-7.2307c-3.57019,-2.95659 -6.894,-3.20137 -6.894,-3.20137c0,0 3.96255,0.16447 6.99614,3.09705c3.03898,2.93779 3.2252,7.33503 3.2252,7.33503z" fill="none" stroke="#d5d5d3" stroke-width="0.5" stroke-linecap="round"/><path d="M277.63117,212.17546c3.03355,-2.93253 6.99614,-3.09705 6.99614,-3.09705c0,0 -3.32377,0.24477 -6.894,3.20137c-3.51993,2.91497 -3.32734,7.23071 -3.32734,7.23071c0,0 0.18626,-4.39728 3.2252,-7.33502z" data-paper-data="{&quot;index&quot;:null}" fill="none" stroke="#d5d5d3" stroke-width="0.5" stroke-linecap="round"/><path d="M205.0792,162.07318l-5.54583,-4.86847l12.01901,-13.69123l5.54583,4.86846z" fill="url(#color-31)" stroke="none" stroke-width="0" stroke-linecap="butt"/><path d="M262.48607,148.38195l5.54583,-4.86846l12.019,13.69123l-5.54583,4.86847z" data-paper-data="{&quot;index&quot;:null}" fill="url(#color-32)" stroke="none" stroke-width="0" stroke-linecap="butt"/><path d="M201.25136,199.79008l7.39197,-8.2314l13.01093,13.01092l-6.98086,7.82025c0,0 1.93237,-4.74806 -3.42617,-10.00447c-5.35903,-5.25686 -9.99587,-2.59534 -9.99587,-2.59534z" fill="url(#color-33)" stroke="none" stroke-width="0" stroke-linecap="butt"/><path d="M195.37765,191.43092v-22.01416h7.33805v22.01416z" fill="url(#color-34)" stroke="none" stroke-width="0" stroke-linecap="butt"/><path d="M277.64111,190.01011v-20.8555h6.37256v20.8555z" fill="url(#color-35)" stroke="none" stroke-width="0" stroke-linecap="butt"/><path d="M220.1391,194.02867c-0.55273,0.82745 -2.10281,0.76208 -3.46218,-0.14598c-1.35936,-0.90805 -2.01333,-2.31497 -1.46056,-3.14241c0.55273,-0.82745 2.10281,-0.76207 3.46218,0.14598c1.35936,0.90805 2.01329,2.31496 1.46051,3.14241z" fill="#a58795" stroke="none" stroke-width="0" stroke-linecap="butt"/><path d="M260.83403,190.66096c1.35937,-0.90805 2.90945,-0.97343 3.46222,-0.14598c0.55273,0.82745 -0.10119,2.23436 -1.46056,3.14241c-1.35937,0.90805 -2.90945,0.97343 -3.46218,0.14598c-0.55273,-0.82745 0.10116,-2.23436 1.46052,-3.14241z" data-paper-data="{&quot;index&quot;:null}" fill="#a58795" stroke="none" stroke-width="0" stroke-linecap="butt"/><path d="M273.54594,175.13588c0.18381,-1.60329 0.7885,-2.74559 1.35063,-2.55135c0.56213,0.19424 0.86884,1.6515 0.68503,3.25479c-0.18381,1.60329 -0.7885,2.7456 -1.35063,2.55136c-0.56213,-0.19424 -0.86884,-1.65146 -0.68503,-3.2548z" data-paper-data="{&quot;index&quot;:null}" fill="#a58795" stroke="none" stroke-width="0" stroke-linecap="butt"/><path d="M206.40808,180.86887c-0.56213,0.19424 -1.16682,-0.94803 -1.35063,-2.55136c-0.18381,-1.60329 0.12286,-3.06055 0.68499,-3.25479c0.56213,-0.19424 1.16682,0.94802 1.35063,2.55136c0.18381,1.60329 -0.12286,3.06055 -0.68503,3.2548z" data-paper-data="{&quot;index&quot;:null}" fill="#a58795" stroke="none" stroke-width="0" stroke-linecap="butt"/><path d="M264.49379,211.84977c0,0 0.00183,-6.03109 4.26297,-10.31532c4.2611,-4.28419 9.33281,-2.87638 9.33281,-2.87638" fill="none" stroke="#ff8e5f" stroke-width="0.5" stroke-linecap="butt"/><path d="M202.30276,197.88311c0,0 5.0717,-1.40785 9.33281,2.87634c4.26114,4.28423 4.26293,10.31533 4.26293,10.31533" data-paper-data="{&quot;index&quot;:null}" fill="none" stroke="#ff8e5f" stroke-width="0.5" stroke-linecap="butt"/><path d="M195.96313,170.49909v21.00714" fill="none" stroke="#ff8e5f" stroke-width="0.5" stroke-linecap="round"/><path d="M200.10085,157.82366l12.73157,-12.73157" fill="none" stroke="#ff8e5f" stroke-width="0.5" stroke-linecap="round"/><path d="M284.21347,189.97089v-19.73395" fill="none" stroke="#ff8e5f" stroke-width="0.5" stroke-linecap="round"/><path d="M280.23484,155.75477l-11.93586,-11.93586" fill="none" stroke="#ff8e5f" stroke-width="0.5" stroke-linecap="round"/></g></g></g></svg>