<svg version="1.1" xmlns="http://www.w3.org/2000/svg" xmlns:xlink="http://www.w3.org/1999/xlink" width="40.57715" height="29.56689" viewBox="0,0,40.57715,29.56689"><defs><linearGradient x1="220.21955" y1="171.65859" x2="227.66923" y2="185.02984" gradientUnits="userSpaceOnUse" id="color-1"><stop offset="0" stop-color="#954311"/><stop offset="1" stop-color="#561101"/></linearGradient><linearGradient x1="215.38157" y1="174.02525" x2="231.19655" y2="184.04372" gradientUnits="userSpaceOnUse" id="color-2"><stop offset="0" stop-color="#954311"/><stop offset="1" stop-color="#561101"/></linearGradient><linearGradient x1="212.95405" y1="181.29711" x2="235.47532" y2="181.29711" gradientUnits="userSpaceOnUse" id="color-3"><stop offset="0" stop-color="#954311"/><stop offset="1" stop-color="#561101"/></linearGradient><linearGradient x1="224.96643" y1="189.0698" x2="229.04831" y2="189.0698" gradientUnits="userSpaceOnUse" id="color-4"><stop offset="0" stop-color="#ffffff"/><stop offset="1" stop-color="#c1bec0"/></linearGradient><linearGradient x1="225.45391" y1="171.59003" x2="229.53579" y2="171.59003" gradientUnits="userSpaceOnUse" id="color-5"><stop offset="0" stop-color="#ffffff"/><stop offset="1" stop-color="#c1bec0"/></linearGradient><linearGradient x1="244.66926" y1="180.07717" x2="246.59056" y2="179.96517" gradientUnits="userSpaceOnUse" id="color-6"><stop offset="0" stop-color="#bcb7b2"/><stop offset="1" stop-color="#e2dfdf"/></linearGradient><linearGradient x1="248.51192" y1="186.05022" x2="251.53265" y2="181.16479" gradientUnits="userSpaceOnUse" id="color-7"><stop offset="0" stop-color="#4e2424"/><stop offset="1" stop-color="#542928"/></linearGradient><linearGradient x1="246.47522" y1="173.59559" x2="251.79439" y2="173.59559" gradientUnits="userSpaceOnUse" id="color-8"><stop offset="0" stop-color="#4e2424"/><stop offset="1" stop-color="#5a2b2a"/></linearGradient><linearGradient x1="236.6946" y1="170.11466" x2="240.65833" y2="170.11466" gradientUnits="userSpaceOnUse" id="color-9"><stop offset="0" stop-color="#a3521b"/><stop offset="1" stop-color="#ae5d24"/></linearGradient><linearGradient x1="237.79773" y1="190.61235" x2="241.75487" y2="190.61235" gradientUnits="userSpaceOnUse" id="color-10"><stop offset="0" stop-color="#a3521b"/><stop offset="1" stop-color="#ae5d24"/></linearGradient><radialGradient cx="237.28601" cy="180.18594" r="1.40564" gradientUnits="userSpaceOnUse" id="color-11"><stop offset="0" stop-color="#a34a1f"/><stop offset="1" stop-color="#5d2814"/></radialGradient><linearGradient x1="236.59128" y1="188.56089" x2="236.59128" y2="187.05769" gradientUnits="userSpaceOnUse" id="color-12"><stop offset="0" stop-color="#a34a1f"/><stop offset="1" stop-color="#5d2814"/></linearGradient><linearGradient x1="224.4093" y1="175.48991" x2="227.76583" y2="175.48991" gradientUnits="userSpaceOnUse" id="color-13"><stop offset="0" stop-color="#ffffff"/><stop offset="1" stop-color="#c1bec0"/></linearGradient><linearGradient x1="220.21955" y1="171.56363" x2="227.66923" y2="184.93487" gradientUnits="userSpaceOnUse" id="color-14"><stop offset="0" stop-color="#954311"/><stop offset="1" stop-color="#561101"/></linearGradient><linearGradient x1="215.38157" y1="174.02525" x2="231.19655" y2="184.04372" gradientUnits="userSpaceOnUse" id="color-15"><stop offset="0" stop-color="#954311"/><stop offset="1" stop-color="#561101"/></linearGradient><linearGradient x1="220.25026" y1="172.21987" x2="224.30935" y2="182.62629" gradientUnits="userSpaceOnUse" id="color-16"><stop offset="0" stop-color="#f2c457"/><stop offset="1" stop-color="#8a3f07"/></linearGradient><linearGradient x1="215.90327" y1="175.20027" x2="225.22525" y2="181.35419" gradientUnits="userSpaceOnUse" id="color-17"><stop offset="0" stop-color="#f2c457"/><stop offset="1" stop-color="#8a3f07"/></linearGradient><linearGradient x1="215.9468" y1="175.51061" x2="222.0981" y2="184.83431" gradientUnits="userSpaceOnUse" id="color-18"><stop offset="0" stop-color="#f2c457"/><stop offset="1" stop-color="#8a3f07"/></linearGradient><linearGradient x1="212.95405" y1="181.29711" x2="235.47532" y2="181.29711" gradientUnits="userSpaceOnUse" id="color-19"><stop offset="0" stop-color="#954311"/><stop offset="1" stop-color="#561101"/></linearGradient><linearGradient x1="212.95405" y1="181.29711" x2="235.47532" y2="181.29711" gradientUnits="userSpaceOnUse" id="color-20"><stop offset="0" stop-color="#f2c457"/><stop offset="1" stop-color="#8a3f07"/></linearGradient><linearGradient x1="212.95405" y1="181.29712" x2="235.47532" y2="181.29712" gradientUnits="userSpaceOnUse" id="color-21"><stop offset="0" stop-color="#dfac49"/><stop offset="1" stop-color="#853904"/></linearGradient><linearGradient x1="236.78978" y1="173.74368" x2="236.78978" y2="171.91836" gradientUnits="userSpaceOnUse" id="color-22"><stop offset="0" stop-color="#5d2814"/><stop offset="1" stop-color="#a34a1f"/></linearGradient><linearGradient x1="232.40039" y1="187.46421" x2="236.15573" y2="187.46421" gradientUnits="userSpaceOnUse" id="color-23"><stop offset="0" stop-color="#ffffff"/><stop offset="1" stop-color="#c1bec0"/></linearGradient><linearGradient x1="232.43668" y1="172.87611" x2="236.15573" y2="172.87611" gradientUnits="userSpaceOnUse" id="color-24"><stop offset="0" stop-color="#ffffff"/><stop offset="1" stop-color="#c1bec0"/></linearGradient><linearGradient x1="232.83581" y1="180.2951" x2="236.91768" y2="180.2951" gradientUnits="userSpaceOnUse" id="color-25"><stop offset="0" stop-color="#ffffff"/><stop offset="1" stop-color="#c1bec0"/></linearGradient><linearGradient x1="237.79634" y1="183.4365" x2="240.90855" y2="184.3778" gradientUnits="userSpaceOnUse" id="color-26"><stop offset="0" stop-color="#7a3d18"/><stop offset="1" stop-color="#5d2b11"/></linearGradient><linearGradient x1="244.79427" y1="180.30881" x2="245.42644" y2="180.30881" gradientUnits="userSpaceOnUse" id="color-27"><stop offset="0" stop-color="#c97928" stop-opacity="0"/><stop offset="1" stop-color="#c97928"/></linearGradient><linearGradient x1="230.59935" y1="171.26346" x2="233.61559" y2="170.45508" gradientUnits="userSpaceOnUse" id="color-28"><stop offset="0" stop-color="#ffffff"/><stop offset="1" stop-color="#c1bec0"/></linearGradient><linearGradient x1="229.83331" y1="189.759" x2="232.84954" y2="190.56738" gradientUnits="userSpaceOnUse" id="color-29"><stop offset="0" stop-color="#ffffff"/><stop offset="1" stop-color="#c1bec0"/></linearGradient><linearGradient x1="224.96643" y1="189.0698" x2="229.04831" y2="189.0698" gradientUnits="userSpaceOnUse" id="color-30"><stop offset="0" stop-color="#ffffff"/><stop offset="1" stop-color="#c1bec0"/></linearGradient><linearGradient x1="225.45391" y1="171.59003" x2="229.53579" y2="171.59003" gradientUnits="userSpaceOnUse" id="color-31"><stop offset="0" stop-color="#ffffff"/><stop offset="1" stop-color="#c1bec0"/></linearGradient><linearGradient x1="237.30887" y1="177.10782" x2="240.42106" y2="176.16651" gradientUnits="userSpaceOnUse" id="color-32"><stop offset="0" stop-color="#7a3d18"/><stop offset="1" stop-color="#5d2b11"/></linearGradient></defs><g transform="translate(-212.63743,-164.95011)"><g data-paper-data="{&quot;isPaintingLayer&quot;:true}" fill-rule="nonzero" stroke-linejoin="miter" stroke-miterlimit="10" stroke-dasharray="" stroke-dashoffset="0" style="mix-blend-mode: normal"><path d="M231.58736,170.32702l0.65887,-3.63594l1.39094,2.30743l0.65886,-0.20977l0.58564,1.8879l-2.0498,20.55708l-1.02489,1.39845z" fill="#6b1f07" stroke="#401e00" stroke-width="1.25" stroke-linecap="round"/><path d="M228.84528,189.8962c0,0 -2.77763,-1.16795 -2.43742,-9.74967c0.3433,-8.65963 2.43742,-9.40147 2.43742,-9.40147h6.26765c0,0 0.90533,7.3738 0.90533,10.72464c0,2.99219 -0.90533,8.4265 -0.90533,8.4265z" fill="#651e03" stroke="#401e00" stroke-width="1.25" stroke-linecap="butt"/><path d="M226.66372,188.48863l5.65675,1.25331l2.53658,-2.36215l0.52846,-13.20664l-2.64226,-3.32851l-4.90993,0.35707l-0.12464,-0.72043l3.49316,-1.38195l3.93035,1.63652l1.31023,1.50462l-0.31708,16.21305l-3.59347,2.89901l-5.11866,-1.38947z" data-paper-data="{&quot;index&quot;:null}" fill="#a34a1f" stroke="#401e00" stroke-width="1.25" stroke-linecap="round"/><path d="M222.29322,175.66915c1.10279,0.51953 2.87425,-1.08687 5.17068,0.72955c1.43353,2.24787 3.45711,7.4773 0.3776,8.40733c-3.07951,0.93003 -5.23539,0.30955 -7.36612,-2.89282c-1.69937,-2.55408 -1.48929,-7.6722 -1.28759,-9.4753c0.0512,-0.45768 0.31234,-0.39688 0.65159,0.07655c0.58413,0.81513 1.64389,2.45854 2.45382,3.15471z" fill="url(#color-1)" stroke="#401e00" stroke-width="1.25" stroke-linecap="round"/><path d="M219.9523,177.12408c3.77942,0.81422 6.67732,-2.65366 9.53068,-1.07523c2.85335,1.57844 4.53419,4.85579 1.768,7.65376c-2.76621,2.79797 -5.4454,3.39029 -9.60546,1.19328c-3.41101,-1.80142 -5.96943,-7.47812 -6.73836,-9.40128c-0.16885,-0.42231 -0.01756,-0.54408 0.37163,-0.3495c1.0263,0.51311 3.20991,1.66366 4.67353,1.97897z" fill="url(#color-2)" stroke="#401e00" stroke-width="1.25" stroke-linecap="round"/><path d="M219.59391,181.50375c4.36496,-1.60563 5.07739,-6.99535 8.99321,-7.22818c3.91582,-0.23282 7.73378,2.01566 6.72389,6.63985c-1.00988,4.62419 -3.35127,6.95086 -8.99322,7.39628c-4.70127,0.37115 -11.13682,-3.9023 -13.05536,-5.29894c-0.38388,-0.27946 -0.33038,-0.46824 0.10835,-0.51137c1.31982,-0.12974 4.47339,-0.354 6.22313,-0.99763z" fill="url(#color-3)" stroke="#401e00" stroke-width="1.25" stroke-linecap="round"/><path d="M228.88504,189.01092c-0.01834,0.62846 -0.6843,1.23649 -0.6843,1.23649l-3.23432,-1.23649l3.31331,-1.47202c0,0 0.62363,0.84357 0.60531,1.47202z" data-paper-data="{&quot;index&quot;:null}" fill="url(#color-4)" stroke="#401e00" stroke-width="1.25" stroke-linecap="round"/><path d="M229.37251,171.53115c-0.01834,0.62846 -0.6843,1.23649 -0.6843,1.23649l-3.23432,-1.23649l3.31331,-1.47202c0,0 0.62363,0.84357 0.60531,1.47202z" data-paper-data="{&quot;index&quot;:null}" fill="url(#color-5)" stroke="#401e00" stroke-width="1.25" stroke-linecap="round"/><path d="M236.45906,190.94913l-1.18209,-20.14937c0,0 -0.46054,-2.08361 0.89159,-2.55992c1.35215,-0.47631 3.80037,-0.16849 5.1436,0.85056c0.97475,0.7395 0.45007,2.10118 0.45007,2.10118c0,0 3.59704,1.17848 3.78336,8.7857c0.4015,6.23002 -2.46842,8.90208 -2.46842,8.90208c0,0 0.30778,1.16673 -0.13695,2.03152c-0.55949,1.088 -3.01548,2.26905 -5.33053,1.88422c-0.92372,-0.15355 -1.15064,-1.84596 -1.15064,-1.84596z" data-paper-data="{&quot;index&quot;:null}" fill="none" stroke="#401e00" stroke-width="1" stroke-linecap="round"/><path d="M239.69409,171.66783c0,0 1.51751,-1.31448 2.145,-1.45243c0.49633,-0.10911 5.257,0.20086 5.11447,1.79916c-0.0884,0.99137 -2.95294,0.0656 -3.82471,0.14955c-0.96292,0.09275 -1.30437,0.83057 -1.30437,0.83057" data-paper-data="{&quot;index&quot;:null}" fill="#742311" stroke="#401e00" stroke-width="0.5" stroke-linecap="round"/><path d="M231.58736,170.32701l0.65887,-3.63595l1.39094,2.30742l0.65886,-0.20977l0.58566,1.8879l-2.04979,20.55709l-1.0249,1.39844z" fill="#6b1f07" stroke="#000000" stroke-width="0" stroke-linecap="round"/><path d="M244.93879,185.19696l0.44597,-1.18924l0.96626,-0.14864" data-paper-data="{&quot;index&quot;:null}" fill="none" stroke="#692206" stroke-width="0.5" stroke-linecap="round"/><path d="M244.23561,183.88837c0,0 0.34147,-2.02288 0.41626,-3.34958c0.07477,-1.32671 -0.5924,-3.00388 -0.5924,-3.00388l4.77875,-1.16843l1.53211,1.42433l-0.45744,1.68274l-2.68114,0.41469l0.07372,1.43276l2.02197,0.2833l0.73542,1.55073l-1.52782,2.07516l-4.29945,-1.34181z" data-paper-data="{&quot;index&quot;:null}" fill="#d88e33" stroke="#692206" stroke-width="0.5" stroke-linecap="round"/><path d="M244.80683,177.87542l1.78373,2.08975l-0.75699,1.83899l-1.03684,0.4593z" fill="url(#color-6)" stroke="#000000" stroke-width="0" stroke-linecap="round"/><path d="M247.37919,183.98923l1.30174,0.35292" data-paper-data="{&quot;index&quot;:null}" fill="none" stroke="#bd6914" stroke-width="0.25" stroke-linecap="round"/><path d="M249.43368,183.02134l-1.3885,-0.37646" data-paper-data="{&quot;index&quot;:null}" fill="none" stroke="#bd6914" stroke-width="0.25" stroke-linecap="round"/><path d="M245.26066,183.18891l-0.03364,-0.39548c0,0 0.64773,0.32008 0.97147,0.41995c0.29227,0.09016 0.70987,0.18841 0.70987,0.18841l-0.09472,0.21435c0,0 -0.57138,-0.0493 -0.82344,-0.14726c-0.26498,-0.103 -0.72958,-0.27998 -0.72958,-0.27998z" fill="#a44d1f" stroke="none" stroke-width="0" stroke-linecap="butt"/><path d="M245.16183,177.75965l-0.12698,-0.7807l1.53304,-0.26573c0,0 0.35425,0.21658 0.48092,0.34952c0.1324,0.13897 0.297,0.46698 0.297,0.46698l-0.13484,1.03454c0,0 -0.63335,-0.51863 -0.97037,-0.65097c-0.3458,-0.13579 -1.07878,-0.15367 -1.07878,-0.15367z" fill="#a44d1f" stroke="none" stroke-width="0" stroke-linecap="butt"/><path d="M249.77055,178.41099l-1.49277,0.3292" data-paper-data="{&quot;index&quot;:null}" fill="none" stroke="#bd6914" stroke-width="0.25" stroke-linecap="round"/><path d="M244.71885,184.41272l3.06127,-1.60474l3.6461,-1.54277l1.12983,0.74912l0.37363,1.97762l-2.96909,2.6843l-7.09002,2.63325" data-paper-data="{&quot;index&quot;:null}" fill="#5e2813" stroke="#692206" stroke-width="0.5" stroke-linecap="round"/><path d="M249.56665,186.70237l-2.28565,-3.63181l4.35448,-1.8422l0.9972,0.77061l0.31171,1.85299z" data-paper-data="{&quot;index&quot;:null}" fill="url(#color-7)" stroke="#401e00" stroke-width="0.5" stroke-linecap="round"/><path d="M251.02249,171.25445l1.49332,2.38626l-1.34138,1.37775l-1.25645,-0.57496l-2.49586,1.0997l-0.94688,-3.82354z" data-paper-data="{&quot;index&quot;:null}" fill="url(#color-8)" stroke="#401e00" stroke-width="0.5" stroke-linecap="round"/><path d="M248.04549,177.50822l1.14152,-0.25174" data-paper-data="{&quot;index&quot;:null}" fill="none" stroke="#bd6914" stroke-width="0.25" stroke-linecap="round"/><path d="M242.93378,173.39792l3.60992,-1.71403l0.93382,3.93306l-3.60476,1.20804" data-paper-data="{&quot;index&quot;:null}" fill="#5e2813" stroke="#692206" stroke-width="0.5" stroke-linecap="round"/><path d="M245.34135,181.14147l3.48202,5.91944l-3.04678,-2.00216l0.69641,4.70073l-1.91511,-3.83023z" fill="#742311" stroke="#2d0300" stroke-width="0.5" stroke-linecap="round"/><path d="M241.59818,171.65295l5.65829,0.08705l-2.00217,2.35037l3.13382,0.87051l-3.74317,2.00216z" fill="#742311" stroke="#2d0300" stroke-width="0.5" stroke-linecap="round"/><path d="M246.58311,171.96019l-3.01092,1.2904" fill="none" stroke="#2d0300" stroke-width="0.25" stroke-linecap="round"/><path d="M236.45906,190.94913l-1.18209,-20.14937c0,0 -0.46054,-2.08361 0.89159,-2.55992c1.35215,-0.47631 3.80037,-0.16849 5.1436,0.85056c0.97475,0.7395 0.45007,2.10118 0.45007,2.10118c0,0 3.59704,1.17848 3.78336,8.7857c0.4015,6.23002 -2.46842,8.90208 -2.46842,8.90208c0,0 0.30778,1.16673 -0.13695,2.03152c-0.55949,1.088 -3.01548,2.26905 -5.33053,1.88422c-0.92372,-0.15355 -1.15064,-1.84596 -1.15064,-1.84596z" data-paper-data="{&quot;index&quot;:null}" fill="#97461e" stroke="#692206" stroke-width="0" stroke-linecap="round"/><path d="M240.30471,171.04126l-3.50636,-0.39415c0,0 -0.36522,-1.2111 0.27475,-1.38171c0.63996,-0.17061 2.05809,-0.08017 3.08715,0.48533c1.02908,0.56551 0.14446,1.29052 0.14446,1.29052z" data-paper-data="{&quot;index&quot;:null}" fill="url(#color-9)" stroke="#863a1b" stroke-width="0.25" stroke-linecap="round"/><path d="M241.39881,189.72386c0,0 0.88677,0.65359 -0.13857,1.20134c-1.02534,0.54776 -2.4414,0.66304 -3.08136,0.51878c-0.63996,-0.14427 -0.28057,-1.27673 -0.28057,-1.27673l3.50049,-0.44336z" data-paper-data="{&quot;index&quot;:null}" fill="url(#color-10)" stroke="#863a1b" stroke-width="0.25" stroke-linecap="round"/><path d="M236.05068,170.98148l5.0641,0.47213c0,0 2.10873,0.49067 3.39186,3.97593c0.19239,0.52256 0.1938,1.16991 0.33918,1.83555c0.18426,0.84372 0.56792,0.61472 0.56792,0.61472l0.09966,4.69431c0,0 -0.47952,0.05597 -0.52511,0.31494c-0.19296,1.09567 -0.27352,2.53589 -0.63986,3.30892c-1.28616,2.714 -3.2614,3.57957 -3.2614,3.57957l-3.09826,0.08745c0,0 -1.4107,-0.10269 -1.56601,-3.00921c-0.16259,-3.0428 3.61976,-6.74613 3.61976,-6.74613c0,0 -4.07909,-3.92279 -4.51749,-6.60668c-0.16211,-0.9923 0.52564,-2.52152 0.52564,-2.52152z" data-paper-data="{&quot;index&quot;:null}" fill="#df9431" stroke="#954116" stroke-width="0" stroke-linecap="round"/><path d="M243.68385,186.10415l0.69958,0.42158l-0.97275,1.70821l-0.89486,-0.56759z" data-paper-data="{&quot;index&quot;:null}" fill="#d2ec18" stroke="#000000" stroke-width="0" stroke-linecap="round"/><path d="M244.18681,183.48742l0.80796,0.12842l-0.2593,2.51033l-1.04416,-0.19749z" data-paper-data="{&quot;index&quot;:null}" fill="#d2ec18" stroke="#000000" stroke-width="0" stroke-linecap="round"/><path d="M243.32072,182.80624c1.22733,0.7973 1.41594,2.68487 0.42128,4.216c-0.99468,1.53114 -2.79595,2.126 -4.02329,1.32868c-1.22733,-0.7973 -1.41594,-2.68487 -0.42128,-4.216c0.99468,-1.53114 2.79595,-2.12601 4.02329,-1.32868z" data-paper-data="{&quot;index&quot;:null}" fill="#ffffff" stroke="#954116" stroke-width="0" stroke-linecap="butt"/><path d="M241.6909,172.80098l0.80458,-0.68964l1.20685,1.55168l-0.63216,0.51723z" fill="#d2ec18" stroke="#000000" stroke-width="0" stroke-linecap="round"/><path d="M243.10263,174.35285l1.00523,-0.34467l0.61536,2.4475l-0.78132,0.24257z" fill="#d2ec18" stroke="#000000" stroke-width="0" stroke-linecap="round"/><path d="M228.84528,189.8962c0,0 -2.77763,-1.16795 -2.43742,-9.74967c0.3433,-8.65963 2.43742,-9.40147 2.43742,-9.40147h6.26765c0,0 0.90533,7.3738 0.90533,10.72464c0,2.99219 -0.90533,8.4265 -0.90533,8.4265z" fill="#651e03" stroke="none" stroke-width="0" stroke-linecap="butt"/><path d="M242.30675,183.35653c0.73822,0.03458 1.31413,0.54372 1.28633,1.1372c-0.02781,0.59348 -0.64881,1.04655 -1.38702,1.01196c-0.73822,-0.03458 -1.31413,-0.54372 -1.28633,-1.1372c0.02781,-0.59348 0.64881,-1.04655 1.38702,-1.01195z" data-paper-data="{&quot;index&quot;:null}" fill="#3d0a00" stroke="none" stroke-width="0" stroke-linecap="butt"/><path d="M238.75645,176.43997c-0.99739,-1.52935 -0.81215,-3.41725 0.41376,-4.21676c1.2259,-0.7995 3.02823,-0.20784 4.02563,1.32151c0.99739,1.52935 0.81215,3.41725 -0.41375,4.21675c-1.2259,0.7995 -3.02824,0.20785 -4.02566,-1.32151z" data-paper-data="{&quot;index&quot;:null}" fill="#ffffff" stroke="#954116" stroke-width="0" stroke-linecap="butt"/><path d="M240.37832,176.20353c-0.02886,-0.59342 0.54615,-1.10359 1.28431,-1.1395c0.73816,-0.03591 1.35995,0.41606 1.38882,1.00948c0.02886,0.59342 -0.54614,1.10359 -1.2843,1.1395c-0.73816,0.03591 -1.35996,-0.41607 -1.38883,-1.00948z" data-paper-data="{&quot;index&quot;:null}" fill="#3d0a00" stroke="none" stroke-width="0" stroke-linecap="butt"/><path d="M232.47255,191.13779l2.97737,-2.57692l0.49626,-15.24671l-4.67418,-4.27751l4.22276,1.10835l2.53558,3.4913l0.19848,14.60246l-3.67211,3.00638z" data-paper-data="{&quot;index&quot;:null}" fill="#572712" stroke="#000000" stroke-width="0" stroke-linecap="round"/><path d="M226.66372,188.48863l5.65675,1.25331l2.53658,-2.36215l0.52846,-13.20664l-2.64226,-3.32851l-4.90993,0.35707l-0.12464,-0.72043l3.49316,-1.38195l3.93035,1.63652l1.31023,1.50462l-0.31708,16.21305l-3.59347,2.89901l-5.11866,-1.38947z" data-paper-data="{&quot;index&quot;:null}" fill="#a34a1f" stroke="#000000" stroke-width="0" stroke-linecap="round"/><path d="M238.1808,181.4259l-2.33388,-0.05889v-2.36215l2.33388,-0.11776c0,0 0.43539,0.88447 0.43539,1.29023c0,0.43802 -0.43539,1.24857 -0.43539,1.24857z" data-paper-data="{&quot;index&quot;:null}" fill="url(#color-11)" stroke="none" stroke-width="0" stroke-linecap="butt"/><path d="M228.39309,175.16772v-2.13273l0.60935,0.42654c0,0 1.03731,-1.13307 1.88899,-1.09683c0.8517,0.03624 3.83893,1.34058 3.83893,1.34058z" fill="#7f390e" stroke="#000000" stroke-width="0" stroke-linecap="round"/><path d="M237.39647,188.91418l-2.04574,-0.35328v-1.50319h3.13425l-0.38728,1.21747z" data-paper-data="{&quot;index&quot;:null}" fill="url(#color-12)" stroke="none" stroke-width="0" stroke-linecap="butt"/><path d="M233.05901,183.45494l1.81065,0.55712c0,0 -1.04897,2.03332 -2.64633,2.85526c-1.59736,0.82195 -4.52663,0.83568 -4.52663,0.83568z" fill="#7f390e" stroke="#000000" stroke-width="0" stroke-linecap="round"/><path d="M227.63157,175.43102c-0.01507,0.62846 -0.5627,1.23649 -0.5627,1.23649l-2.65958,-1.23649l2.72454,-1.47202c0,0 0.51281,0.84356 0.49775,1.47202z" data-paper-data="{&quot;index&quot;:null}" fill="url(#color-13)" stroke="#000000" stroke-width="0" stroke-linecap="round"/><path d="M222.29322,175.57419c1.10279,0.51953 2.87425,-1.08687 5.17068,0.72955c1.43353,2.24787 3.45711,7.4773 0.3776,8.40733c-3.07951,0.93003 -5.23539,0.30955 -7.36612,-2.89282c-2.13072,-3.20238 -1.07716,-9.79702 -1.07716,-9.79702c0,0 1.61463,2.45247 2.89498,3.55296z" fill="url(#color-14)" stroke="#000000" stroke-width="0" stroke-linecap="round"/><path d="M219.9523,177.12408c3.77942,0.81422 6.67732,-2.65366 9.53068,-1.07523c2.85335,1.57844 4.53419,4.85579 1.768,7.65376c-2.76621,2.79797 -5.4454,3.39029 -9.60546,1.19328c-4.16004,-2.19701 -6.8793,-9.8992 -6.8793,-9.8992c0,0 3.16746,1.69253 5.1861,2.1274z" fill="url(#color-15)" stroke="#000000" stroke-width="0" stroke-linecap="round"/><path d="M226.69767,176.34028c0.54846,1.20468 -0.7563,5.56006 -0.7563,5.56006c0,0 -0.17493,-1.46783 -1.25306,-2.19676c-1.43243,-0.96848 -4.19539,-1.89456 -4.89163,-3.35402c-1.22027,-2.55792 -0.17812,-3.97734 -0.17812,-3.97734c0,0 0.80225,1.66307 1.91898,2.75359c1.11673,1.09052 4.61168,0.00979 5.16014,1.21447z" fill="url(#color-16)" stroke="#000000" stroke-width="0" stroke-linecap="round"/><path d="M218.58772,177.08766c2.09072,0.33336 5.40802,-0.33922 6.55131,0.32781c1.14329,0.66703 0.99972,2.4038 0.99972,2.4038c0,0 -0.9902,-1.09755 -2.29135,-1.07036c-1.72873,0.03614 -4.08121,0.64068 -5.49224,-0.14907c-2.47306,-1.38418 -2.87973,-2.91049 -2.87973,-2.91049c0,0 1.5709,1.15254 3.11229,1.3983z" fill="url(#color-17)" stroke="#000000" stroke-width="0" stroke-linecap="round"/><path d="M222.61704,185.07658c0,0 -4.02613,-3.209 -5.01296,-4.48998c-1.72959,-2.24511 -2.24298,-4.79455 -2.24298,-4.79455c0,0 2.65534,3.27993 3.97594,4.112c1.32061,0.83206 3.28,5.17253 3.28,5.17253z" fill="url(#color-18)" stroke="#000000" stroke-width="0" stroke-linecap="round"/><path d="M219.59391,181.50375c4.36496,-1.60563 5.07739,-6.99535 8.99321,-7.22818c3.91582,-0.23282 7.73378,2.01566 6.72389,6.63985c-1.00988,4.62419 -3.35127,6.95086 -8.99322,7.39628c-5.64194,0.44542 -13.36373,-5.63125 -13.36373,-5.63125c0,0 4.30847,-0.3191 6.63985,-1.17669z" fill="url(#color-19)" stroke="#000000" stroke-width="0" stroke-linecap="round"/><path d="M219.59391,181.50375c3.64852,-1.87695 7.82785,-7.0093 10.47246,-7.16655c2.64461,-0.15725 4.75155,3.12662 4.75155,3.12662c0,0 -2.98693,-0.79581 -4.94318,0.79301c-2.59913,2.11095 -5.39197,5.97931 -8.61105,6.23344c-5.64194,0.44542 -8.30963,-1.80983 -8.30963,-1.80983c0,0 3.94994,0.20711 6.63985,-1.17668z" fill="url(#color-20)" stroke="#000000" stroke-width="0" stroke-linecap="round"/><path d="M229.45001,184.01402c2.22343,-2.0314 6.43943,-8.70894 5.42955,-4.08477c-1.00988,4.62419 -4.01181,8.35002 -8.56176,8.38245c-2.43686,0.01737 -3.87183,-1.13185 -3.87183,-1.13185c0,0 2.38889,1.05071 7.00406,-3.16583z" fill="url(#color-21)" stroke="#000000" stroke-width="0" stroke-linecap="round"/><path d="M237.83185,173.74368h-2.08417v-1.82531l2.1386,0.5888z" data-paper-data="{&quot;index&quot;:null}" fill="url(#color-22)" stroke="none" stroke-width="0" stroke-linecap="butt"/><path d="M235.1482,188.77394l-2.74782,-1.26017l3.47195,-0.88824c0,0 0.42882,0.70455 0.28341,1.13595c-0.1454,0.43141 -1.00753,1.01245 -1.00753,1.01245z" data-paper-data="{&quot;index&quot;:null}" fill="url(#color-23)" stroke="#000000" stroke-width="0" stroke-linecap="round"/><path d="M236.15573,172.5817c0.10916,0.39493 -0.17234,1.29536 -0.17234,1.29536l-3.54672,-1.05004l2.99339,-0.95191c0,0 0.61652,0.31164 0.72565,0.70657z" data-paper-data="{&quot;index&quot;:null}" fill="url(#color-24)" stroke="#000000" stroke-width="0" stroke-linecap="round"/><path d="M236.75441,180.23622c-0.01834,0.62846 -0.6843,1.23649 -0.6843,1.23649l-3.23432,-1.23649l3.31331,-1.47202c0,0 0.62362,0.84356 0.6053,1.47202z" data-paper-data="{&quot;index&quot;:null}" fill="url(#color-25)" stroke="#000000" stroke-width="0" stroke-linecap="round"/><path d="M249.77186,174.00531v-1.04933l0.65584,1.83632" fill="#1b0c0c" stroke="#4e0700" stroke-width="0" stroke-linecap="round"/><path d="M247.2807,181.21236c0,0.17264 -0.15161,0.31259 -0.33864,0.31259c-0.18703,0 -0.33864,-0.13996 -0.33864,-0.31259c0,-0.17264 0.15161,-0.31259 0.33864,-0.31259c0.18703,0 0.33864,0.13996 0.33864,0.31259z" fill="#cf9036" stroke="none" stroke-width="0" stroke-linecap="butt"/><path d="M237.3183,185.01707l1.96184,-2.99176l2.04029,0.99075l-1.75584,2.81517z" data-paper-data="{&quot;index&quot;:null}" fill="url(#color-26)" stroke="#602a0d" stroke-width="0" stroke-linecap="round"/><path d="M244.79427,182.81677v-5.01592h0.63216v5.01592z" fill="url(#color-27)" stroke="none" stroke-width="0" stroke-linecap="butt"/><path d="M233.56242,170.16771c0.15985,0.36176 0.09417,1.30184 0.09417,1.30184l-3.06611,-0.25401l2.25579,-1.5798c0,0 0.5563,0.17017 0.71613,0.53194z" data-paper-data="{&quot;index&quot;:null}" fill="url(#color-28)" stroke="#000000" stroke-width="0" stroke-linecap="round"/><path d="M232.79636,190.85477c-0.15983,0.36177 -0.71613,0.53195 -0.71613,0.53195l-2.25579,-1.5798l3.06611,-0.25401c0,0 0.06567,0.94009 -0.09418,1.30184z" data-paper-data="{&quot;index&quot;:null}" fill="url(#color-29)" stroke="#000000" stroke-width="0" stroke-linecap="round"/><path d="M228.88504,189.01092c-0.01834,0.62846 -0.6843,1.23649 -0.6843,1.23649l-3.23432,-1.23649l3.31331,-1.47202c0,0 0.62363,0.84357 0.60531,1.47202z" data-paper-data="{&quot;index&quot;:null}" fill="url(#color-30)" stroke="#000000" stroke-width="0" stroke-linecap="round"/><path d="M229.37251,171.53115c-0.01834,0.62846 -0.6843,1.23649 -0.6843,1.23649l-3.23432,-1.23649l3.31331,-1.47202c0,0 0.62363,0.84357 0.60531,1.47202z" data-paper-data="{&quot;index&quot;:null}" fill="url(#color-31)" stroke="#000000" stroke-width="0" stroke-linecap="round"/><path d="M239.07709,174.71306l1.75585,2.81517l-2.04029,0.99075l-1.96184,-2.99175z" data-paper-data="{&quot;index&quot;:null}" fill="url(#color-32)" stroke="#602a0d" stroke-width="0" stroke-linecap="round"/></g></g></svg>