<svg version="1.1" xmlns="http://www.w3.org/2000/svg" xmlns:xlink="http://www.w3.org/1999/xlink" width="96.6592" height="120.119" viewBox="0,0,96.6592,120.119"><defs><linearGradient x1="233.44918" y1="203.96054" x2="233.19883" y2="211.44329" gradientUnits="userSpaceOnUse" id="color-1"><stop offset="0" stop-color="#d7bba0"/><stop offset="1" stop-color="#edd5b9"/></linearGradient><linearGradient x1="243.41102" y1="204.74783" x2="243.17584" y2="211.77709" gradientUnits="userSpaceOnUse" id="color-2"><stop offset="0" stop-color="#d7bba0"/><stop offset="1" stop-color="#edd5b9"/></linearGradient><linearGradient x1="239.63676" y1="195.42788" x2="239.12847" y2="210.62017" gradientUnits="userSpaceOnUse" id="color-3"><stop offset="0" stop-color="#fffbf7"/><stop offset="1" stop-color="#e8e0be"/></linearGradient><linearGradient x1="240.48024" y1="121.13952" x2="239.21179" y2="159.05217" gradientUnits="userSpaceOnUse" id="color-4"><stop offset="0" stop-color="#5a4b39"/><stop offset="1" stop-color="#635849"/></linearGradient><linearGradient x1="214.9325" y1="176.00387" x2="200.85885" y2="175.53301" gradientUnits="userSpaceOnUse" id="color-5"><stop offset="0" stop-color="#4b3f2d"/><stop offset="1" stop-color="#5a4939"/></linearGradient><linearGradient x1="262.32331" y1="177.58943" x2="276.39692" y2="178.06029" gradientUnits="userSpaceOnUse" id="color-6"><stop offset="0" stop-color="#4b3f2d"/><stop offset="1" stop-color="#5a4939"/></linearGradient><radialGradient cx="238.62535" cy="195.80271" r="23.09021" gradientUnits="userSpaceOnUse" id="color-7"><stop offset="0" stop-color="#ff3400"/><stop offset="1" stop-color="#b81e0a"/></radialGradient><radialGradient cx="239.58511" cy="195.10375" r="3.91641" gradientUnits="userSpaceOnUse" id="color-8"><stop offset="0" stop-color="#cb1b00"/><stop offset="1" stop-color="#cb1b00" stop-opacity="0"/></radialGradient><radialGradient cx="240.16198" cy="200.63163" r="2.72965" gradientUnits="userSpaceOnUse" id="color-9"><stop offset="0" stop-color="#cb1b00"/><stop offset="1" stop-color="#cb1b00" stop-opacity="0"/></radialGradient></defs><g transform="translate(-191.6704,-119.8155)"><g data-paper-data="{&quot;isPaintingLayer&quot;:true}" fill-rule="nonzero" stroke-linejoin="miter" stroke-miterlimit="10" stroke-dasharray="" stroke-dashoffset="0" style="mix-blend-mode: normal"><g><path d="M220.753,198.62679l4.53783,1.87705l0.4495,3.75305" fill="none" stroke="#692206" stroke-width="0.5" stroke-linecap="round"/><path d="M251.94929,199.19514l4.62918,16.78745l-8.2164,5.63553l-5.89728,-3.04235l-0.83331,-7.84995l-5.52697,-0.47009l-1.94908,10.30688l-6.56159,1.55008l-5.30585,-6.10451l5.13292,-18.31507c0,0 6.39474,2.79494 11.53106,2.6775c5.13628,-0.11744 12.99728,-1.17543 12.99728,-1.17543z" data-paper-data="{&quot;index&quot;:null}" fill="#d88e33" stroke="#52402d" stroke-width="0.5" stroke-linecap="round"/><path d="M251.93255,211.35578l1.19553,5.07582" data-paper-data="{&quot;index&quot;:null}" fill="none" stroke="#bd6914" stroke-width="0.25" stroke-linecap="round"/><path d="M246.65164,213.75547l1.27522,5.41409" data-paper-data="{&quot;index&quot;:null}" fill="none" stroke="#bd6914" stroke-width="0.25" stroke-linecap="round"/><path d="M223.80996,191.24588l31.22488,0.55041l-3.00397,17.44713l-12.70689,2.61054l-11.68839,-3.42674z" fill="#362c1b" stroke="#692206" stroke-width="0" stroke-linecap="butt"/><path d="M236.78218,206.11507l-0.40882,5.43443l-6.49991,-2.48753l0.85472,-5.19252" fill="url(#color-1)" stroke="#000000" stroke-width="0" stroke-linecap="round"/><path d="M246.35877,204.84645l-0.63556,5.42685l-5.49512,1.40517l0.62797,-5.2001" fill="url(#color-2)" stroke="#000000" stroke-width="0" stroke-linecap="round"/><path d="M226.77718,195.52207l-0.13146,3.92904l12.42237,5.24139l12.72532,-3.8756l0.42596,-4.96809l0.77828,0.02604l0.57607,7.04856l-14.65291,5.19267l-13.93163,-5.73027l0.45577,-5.85946z" fill="url(#color-3)" stroke="#000000" stroke-width="0" stroke-linecap="round"/><path d="M231.53298,214.14948l-1.46509,5.72581" data-paper-data="{&quot;index&quot;:null}" fill="none" stroke="#bd6914" stroke-width="0.25" stroke-linecap="round"/><path d="M226.80247,213.09258l-1.12038,4.37855" data-paper-data="{&quot;index&quot;:null}" fill="none" stroke="#bd6914" stroke-width="0.25" stroke-linecap="round"/><path d="M267.35482,193.98857l6.61565,12.82963l-3.1938,17.80588l-5.69178,-0.12953l-0.78139,-6.62882l-5.9593,-2.96859l-1.17853,-4.56307l-3.13383,-12.99103" fill="#a6521b" stroke="#52402d" stroke-width="0.5" stroke-linecap="round"/><path d="M270.90403,131.66464c0,0 7.25605,2.26806 8.63699,3.77571c1.09232,1.19253 6.15265,14.5364 -0.41755,16.39531c-4.07532,1.15301 -4.16848,-7.91474 -5.65701,-10.16058c-1.64418,-2.4806 -5.04197,-2.36996 -5.04197,-2.36996" fill="#5a4736" stroke="#52402d" stroke-width="0.5" stroke-linecap="round"/><path d="M270.00999,224.25783l-4.15512,-0.46729l-1.48293,-7.21873l-5.81467,-1.92495l-0.8212,-5.17613l3.713,0.98981l2.32487,-2.98135l3.17194,1.37771l2.84609,-3.12277l2.84147,0.57196z" fill="#df9431" stroke="#692206" stroke-width="0" stroke-linecap="round"/><path d="M265.7077,193.03074l6.82054,11.73187l-14.13741,2.01259l-4.60336,-11.53118" fill="#9a532f" stroke="#672f0c" stroke-width="0.5" stroke-linecap="round"/><path d="M259.47457,205.38076l0.41746,-8.18088" data-paper-data="{&quot;index&quot;:null}" fill="none" stroke="#893b14" stroke-width="0.25" stroke-linecap="round"/><path d="M263.68832,195.45795l-0.74313,9.32011" data-paper-data="{&quot;index&quot;:null}" fill="none" stroke="#893b14" stroke-width="0.25" stroke-linecap="round"/><path d="M265.28245,195.07993l3.15352,8.87542" data-paper-data="{&quot;index&quot;:null}" fill="none" stroke="#893b14" stroke-width="0.25" stroke-linecap="round"/><path d="M225.98532,196.4046l-3.99513,12.75252l-0.07147,9.22647l-5.38019,-1.48725l-1.88682,2.44501l-1.03927,1.07852l-5.6877,-0.25119l-2.46677,-15.6427l7.45838,-12.35876" data-paper-data="{&quot;index&quot;:null}" fill="#a6521b" stroke="#52402d" stroke-width="0.5" stroke-linecap="round"/><path d="M226.36948,194.3266l-4.68357,11.22047l-14.65151,-2.97578l7.58945,-11.24975" data-paper-data="{&quot;index&quot;:null}" fill="#9a532f" stroke="#672f0c" stroke-width="0.5" stroke-linecap="round"/><path d="M219.13497,203.59981l-0.21461,-6.47679" fill="none" stroke="#893b14" stroke-width="0.25" stroke-linecap="round"/><path d="M214.57901,193.6711l1.13338,9.09538" fill="none" stroke="#893b14" stroke-width="0.25" stroke-linecap="round"/><path d="M210.28888,201.57861l3.7397,-8.64483" fill="none" stroke="#893b14" stroke-width="0.25" stroke-linecap="round"/><path d="M199.62168,165.1156c0,0 -1.70853,-26.35409 1.11119,-29.67355c3.51139,-4.13375 9.25789,-15.51348 41.2344,-15.37531c25.77259,0.41125 33.45227,12.31385 35.26672,16.55717c2.93543,6.32082 0.40208,26.52888 0.40208,26.52888c0,0 8.11102,-1.51028 9.77679,3.77623c1.66576,5.28659 0.15973,14.70725 -3.95176,19.766c-2.9836,3.67106 -8.17757,1.46751 -8.17757,1.46751c0,0 -10.69629,10.66722 -34.38695,11.92935c-17.9079,0.95408 -34.13241,-9.13492 -34.13241,-9.13492c0,0 -4.54829,1.0385 -7.83254,-0.79183c-4.13192,-2.30267 -8.37822,-11.94585 -6.59188,-20.84194c0.71275,-3.54962 7.28194,-4.20768 7.28194,-4.20768z" fill="#5a4b39" stroke="#52402d" stroke-width="0.5" stroke-linecap="round"/><path d="M276.05276,182.54982l1.97641,-13.49838c0,0 4.72715,-1.25468 5.30366,1.24032c0.57655,2.49499 0.04373,7.96323 -2.27451,11.86664c-2.31828,3.90345 -5.00552,0.39138 -5.00552,0.39138z" data-paper-data="{&quot;index&quot;:null}" fill="#3f3423" stroke="#9a3d0c" stroke-width="0" stroke-linecap="round"/><path d="M203.71773,184.36221c0,0 -2.64028,3.3422 -4.62432,-0.69079c-1.98408,-4.03295 -2.24648,-9.51981 -1.60626,-11.9741c0.64022,-2.45428 4.96983,-0.91911 4.96983,-0.91911l1.26071,13.58395z" data-paper-data="{&quot;index&quot;:null}" fill="#3f3423" stroke="#9a3d0c" stroke-width="0" stroke-linecap="round"/><path d="M276.8359,166.05486l-2.45937,18.91696c0,0 -7.418,13.52606 -33.99614,13.91316c-25.04388,0.36472 -36.80807,-16.38614 -36.80807,-16.38614l0.05057,-11.62222c0,0 0.57371,-5.27338 11.82459,-5.47966c11.77844,-0.21588 41.28454,-0.34208 51.71068,-1.638c3.8548,-0.47922 9.67782,2.29591 9.67782,2.29591z" fill="#c78734" stroke="#954116" stroke-width="0" stroke-linecap="round"/><path d="M232.40957,189.51921c-2.78288,4.9271 -10.02175,6.10698 -16.16849,2.63524c-6.14674,-3.47178 -8.87366,-10.28033 -6.09068,-15.20751c2.78288,-4.9271 10.02175,-6.10698 16.16849,-2.63524c6.14674,3.47178 8.87366,10.28033 6.09069,15.20751z" fill="#ffffff" stroke="#954116" stroke-width="0" stroke-linecap="butt"/><path d="M229.98701,187.44319c0.03878,2.56116 -1.59885,4.66269 -3.65779,4.69391c-2.05899,0.03122 -3.7596,-2.01974 -3.79838,-4.58089c-0.03878,-2.56116 1.59881,-4.66265 3.6578,-4.69387c2.05899,-0.03122 3.75959,2.0197 3.79838,4.58086z" fill="#3d0a00" stroke="none" stroke-width="0" stroke-linecap="butt"/><path d="M254.5149,173.68139c6.03867,-3.6564 13.30998,-2.69651 16.24094,2.144c2.93096,4.84051 0.41164,11.72861 -5.62708,15.38505c-6.03867,3.6564 -13.30997,2.69651 -16.24089,-2.14396c-2.93096,-4.84051 -0.41168,-11.72865 5.62704,-15.38514z" data-paper-data="{&quot;index&quot;:null}" fill="#ffffff" stroke="#954116" stroke-width="0" stroke-linecap="butt"/><path d="M254.7206,182.75924c2.05899,-0.03122 3.75959,2.01969 3.79838,4.58085c0.03879,2.56116 -1.59881,4.66269 -3.6578,4.69391c-2.05899,0.03122 -3.75955,-2.0197 -3.79838,-4.58085c-0.03878,-2.56116 1.59886,-4.66269 3.65776,-4.69391z" data-paper-data="{&quot;index&quot;:null}" fill="#3d0a00" stroke="none" stroke-width="0" stroke-linecap="butt"/><path d="M239.21179,159.05217c-20.90516,-0.91888 -24.52589,-9.98573 -27.87299,-19.91009c-1.90326,-5.6432 -1.57652,-10.45097 -1.57652,-10.45097c0,0 13.76011,-7.22204 30.71795,-7.55158c18.29849,-0.3556 29.55003,9.3976 29.55003,9.3976c0,0 -0.20813,5.75937 -1.677,10.51253c-3.0926,10.00742 -8.52104,18.90893 -29.14143,18.00256z" fill="url(#color-4)" stroke="none" stroke-width="0" stroke-linecap="butt"/><path d="M276.47738,175.65542c0,0 -21.54376,7.34467 -35.61957,7.5417c-14.07585,0.19708 -37.44944,-6.51874 -37.44944,-6.51874l-2.91751,-15.92941l76.48267,0.0783z" fill="#5a4b39" stroke="#000000" stroke-width="0" stroke-linecap="round"/><path d="M267.54988,193.25825c0,0 -17.93261,2.41798 -26.77637,2.79212c-8.7192,0.36888 -25.91782,-0.56276 -25.91782,-0.56276l-6.14085,-5.52861c0,0 21.51332,1.9716 32.08428,1.88659c10.80346,-0.08685 32.05408,-2.40227 32.05408,-2.40227z" fill="#5a4b39" stroke="#000000" stroke-width="0" stroke-linecap="round"/><path d="M214.34636,193.52422c0,0 -4.99821,-2.21999 -7.18348,-3.55783c-1.61275,-0.98731 -4.7116,-4.60368 -4.7116,-4.60368c0,0 -1.88228,-4.12633 -1.99607,-7.03818c-0.19021,-4.86776 0.96103,-19.45003 0.96103,-19.45003l2.86032,11.63668l4.27636,6.58267l5.79341,16.43033z" fill="url(#color-5)" stroke="#000000" stroke-width="0" stroke-linecap="round"/><path d="M261.73714,195.10973l7.95065,-13.67016l3.63477,-8.61832l3.63171,-11.41948c0,0 2.34699,9.56979 1.84683,14.27295c-0.4203,3.95211 -4.65002,12.08684 -4.65002,12.08684c0,0 -3.03327,3.47967 -5.03743,4.52931c-2.11796,1.10924 -7.37652,2.8189 -7.37652,2.8189z" data-paper-data="{&quot;index&quot;:null}" fill="url(#color-6)" stroke="#000000" stroke-width="0" stroke-linecap="round"/><path d="M218.63463,218.42424l8.74479,-5.2283l-5.03986,11.51283l3.64655,15.22571l-9.44938,-9.65111l-11.57122,3.90131l5.48439,-11.8114l-3.40239,-13.32549zM217.51928,226.65622c1.77097,-0.22757 3.02219,-1.84766 2.79462,-3.61868c-0.22757,-1.77097 -1.84767,-3.02219 -3.61868,-2.79462c-1.77097,0.22757 -3.02219,1.84767 -2.79462,3.61868c0.22757,1.77097 1.84767,3.02218 3.61868,2.79461z" fill="#2d3440" stroke="#000000" stroke-width="0" stroke-linecap="round"/><path d="M204.94558,234.34094l8.3471,-6.58875l2.82585,2.4786" fill="#4c546b" stroke="#000000" stroke-width="0" stroke-linecap="round"/><path d="M225.83631,239.51306l-5.98239,-11.43382l2.43634,-3.15472" fill="#4c546b" stroke="#000000" stroke-width="0" stroke-linecap="round"/><path d="M227.02231,213.61841l-7.28052,5.78308l-0.99125,-1.2099" fill="#4c546b" stroke="#000000" stroke-width="0" stroke-linecap="round"/><path d="M207.30384,208.46274l5.7546,10.96164l-2.68529,2.5181" fill="#4c546b" stroke="#000000" stroke-width="0" stroke-linecap="round"/><path d="M206.82987,203.996l2.86972,-0.27233l2.65548,2.57439l3.24726,-0.87353l2.14366,2.4346l3.76428,-0.54263l-1.25747,11.87277l-3.68996,-0.95291l-0.39818,-2.30762l-8.53787,-5.41162l2.83616,8.94619l-2.13383,0.18218z" data-paper-data="{&quot;index&quot;:null}" fill="#df9431" stroke="#692206" stroke-width="0" stroke-linecap="round"/><path d="M238.51996,202.06358c-13.32849,-0.22432 -24.1671,-4.38406 -23.98517,-9.21056c0.20149,-5.34445 10.82991,-1.3054 24.1584,-1.08107c13.32849,0.22432 24.19949,-3.52358 24.11819,1.30659c-0.07555,4.48704 -10.96293,9.20941 -24.29143,8.98509z" fill="url(#color-7)" stroke="none" stroke-width="0" stroke-linecap="butt"/><path d="M239.52048,197.03544c-2.48931,-0.08328 -4.47836,-1.01564 -4.44267,-2.08249c0.0357,-1.06686 2.08262,-1.86414 4.57192,-1.78085c2.48931,0.08328 4.47836,1.01564 4.44267,2.08245c-0.0357,1.06686 -2.08262,1.86417 -4.57192,1.78089z" fill="url(#color-8)" stroke="none" stroke-width="0" stroke-linecap="butt"/><path d="M240.11693,201.97796c-3.42683,-0.11465 -6.18462,-0.81036 -6.15974,-1.55392c0.02488,-0.74356 2.823,-1.25334 6.24983,-1.13869c3.42683,0.11465 6.18467,0.81032 6.1598,1.55388c-0.02488,0.74356 -2.82306,1.25339 -6.24989,1.13873z" fill="url(#color-9)" stroke="none" stroke-width="0" stroke-linecap="butt"/><path d="M237.50684,197.0841c0,0 -1.63178,-0.48827 -2.89144,-1.80899c-1.25966,-1.32072 -1.6703,-2.97368 -1.6703,-2.97368c0,0 1.93701,0.19713 3.19671,1.5178c1.25966,1.32072 1.36502,3.26487 1.36502,3.26487z" fill="#800a00" stroke="#000000" stroke-width="0" stroke-linecap="butt"/><path d="M243.32225,193.58028c1.34511,-1.23356 3.29101,-1.30075 3.29101,-1.30075c0,0 -0.52021,1.62187 -1.86532,2.85539c-1.34511,1.23356 -3.00588,1.61168 -3.00588,1.61168c0,0 0.23507,-1.93276 1.58019,-3.16633z" data-paper-data="{&quot;index&quot;:null}" fill="#800a00" stroke="#000000" stroke-width="0" stroke-linecap="butt"/><path d="M236.1677,201.01125c-1.32157,0.52994 -3.26503,0.52436 -3.26503,0.52436c0,0 0.49002,-0.71976 1.8116,-1.24971c1.32157,-0.52994 2.97435,-0.66938 2.97435,-0.66938c0,0 -0.19934,0.86483 -1.52092,1.39473z" data-paper-data="{&quot;index&quot;:null}" fill="#800a00" stroke="#000000" stroke-width="0" stroke-linecap="butt"/><path d="M242.24049,199.18275c0,0 1.63976,0.24964 2.92296,0.86673c1.2832,0.61709 1.72402,1.368 1.72402,1.368c0,0 -1.93944,-0.12432 -3.22264,-0.74141c-1.2832,-0.61709 -1.42434,-1.49331 -1.42434,-1.49331z" data-paper-data="{&quot;index&quot;:null}" fill="#800a00" stroke="#000000" stroke-width="0" stroke-linecap="butt"/><path d="M233.02567,198.40708c0,0 -2.19754,0.93561 -4.93308,1.09942c-2.34079,0.14019 -5.14075,-0.40244 -6.5665,-1.26837c-3.09193,-1.87797 -4.93736,-4.48871 -4.12191,-5.83122c0.81545,-1.34255 3.98299,-0.90848 7.07487,0.96949c1.28599,0.78108 2.54135,2.02674 4.08232,2.9303c2.16403,1.26889 4.46424,2.10043 4.46424,2.10043z" fill="#350c00" stroke="none" stroke-width="0" stroke-linecap="butt"/><path d="M229.45848,198.79573c-0.27297,0.94604 -2.32736,1.18406 -4.58861,0.53161c-0.68823,-0.19861 -1.67114,-0.60074 -2.33464,-1.29384c-1.51653,-1.58417 -2.49077,-3.99089 -2.49077,-3.99089c0,0 1.84913,1.08596 3.89188,1.72303c0.54812,0.17093 1.44367,-0.00225 1.92203,0.13577c2.2613,0.65245 3.87313,1.94824 3.60016,2.89428z" fill="#fffdf0" stroke="none" stroke-width="0" stroke-linecap="butt"/><path d="M249.19394,195.94216c1.59793,-0.79854 2.93378,-1.9575 4.26906,-2.65088c3.21054,-1.66711 6.39996,-1.88851 7.12385,-0.49445c0.72389,1.39406 -1.29191,3.8756 -4.5024,5.54271c-1.48043,0.76874 -4.31041,1.12298 -6.63659,0.82665c-2.71847,-0.34628 -4.8486,-1.42669 -4.8486,-1.42669c0,0 2.35064,-0.67592 4.59464,-1.79734z" data-paper-data="{&quot;index&quot;:null}" fill="#350c00" stroke="none" stroke-width="0" stroke-linecap="butt"/><path d="M251.9181,195.71849c0.48656,-0.10574 1.36847,0.12691 1.9268,-0.007c2.08077,-0.49915 3.99835,-1.45905 3.99835,-1.45905c0,0 -1.13293,2.33623 -2.75195,3.81549c-0.70834,0.6472 -1.71592,0.98274 -2.41594,1.1349c-2.29985,0.49984 -4.33374,0.12504 -4.54282,-0.83713c-0.20913,-0.96217 1.48575,-2.14733 3.78561,-2.64717z" data-paper-data="{&quot;index&quot;:null}" fill="#fffdf0" stroke="none" stroke-width="0" stroke-linecap="butt"/><path d="M208.88997,162.41749l-9.08289,2.87158c0,0 -2.05122,2.47026 -1.94209,-0.79148c0.10913,-3.26174 3.74198,-7.08381 7.84982,-6.94637c4.10783,0.13744 3.17516,4.86632 3.17516,4.86632z" fill="#717b9d" stroke="none" stroke-width="0" stroke-linecap="butt"/><path d="M274.8363,160.49763c4.10784,0.13744 7.4797,4.11611 7.37272,7.31348c-0.10697,3.19737 -1.99018,0.64559 -1.99018,0.64559l-8.87274,-3.40969c0,0 -0.61764,-4.68681 3.49019,-4.54938z" data-paper-data="{&quot;index&quot;:null}" fill="#717b9d" stroke="none" stroke-width="0" stroke-linecap="butt"/><path d="M209.74003,193.28854c0,0 -5.63027,-5.54263 -7.9993,-11.6084c-2.36908,-6.06581 -4.75701,-12.90715 -3.17816,-17.56749c1.58928,-4.69108 12.19165,-6.25253 12.19165,-6.25253" fill="#464c63" stroke="#000000" stroke-width="0" stroke-linecap="round"/><path d="M213.20382,162.62639l-1.34893,29.0628l-2.5179,2.09391l1.08527,-32.43785z" fill="#292e3b" stroke="#000000" stroke-width="0" stroke-linecap="round"/><path d="M209.65365,182.28027l0.3107,-9.2867l1.17556,0.03933l-0.31071,9.2867z" fill="#9498b1" stroke="none" stroke-width="0" stroke-linecap="butt"/><path d="M209.40538,187.94228c0,0 -2.61162,-0.88931 -3.98352,-3.72797c-2.52501,-5.22459 -3.24882,-13.72832 -3.25829,-15.17265c-0.00943,-1.44438 3.14638,-1.94888 3.14638,-1.94888" fill="none" stroke="#27374e" stroke-width="0.25" stroke-linecap="round"/><path d="M269.78473,160.55082c0,0 10.47413,2.27183 11.74587,7.07153c1.26344,4.76824 -1.57709,11.45306 -4.34684,17.36321c-2.76976,5.91015 -8.75834,11.07858 -8.75834,11.07858" data-paper-data="{&quot;index&quot;:null}" fill="#464c63" stroke="#000000" stroke-width="0" stroke-linecap="round"/><path d="M270.90737,163.4489l-1.11013,33.18077l-2.37065,-2.30732l0.6189,-29.75385z" data-paper-data="{&quot;index&quot;:null}" fill="#292e3b" stroke="#000000" stroke-width="0" stroke-linecap="round"/><path d="M275.62672,169.44533c0,0 3.11508,0.71431 3.00909,2.15482c-0.10595,1.44047 -1.39656,9.87685 -4.26513,14.92094c-1.55857,2.74061 -4.22379,3.45338 -4.22379,3.45338" data-paper-data="{&quot;index&quot;:null}" fill="none" stroke="#27374e" stroke-width="0.25" stroke-linecap="round"/><path d="M204.53065,154.57068c0.52259,-3.98272 3.77029,-4.26617 7.50732,-4.38875c2.40192,-0.07879 15.39892,1.79127 30.85036,2.45117c8.58913,0.36682 18.45668,-0.59874 26.44083,-0.18877c3.54977,0.18225 6.36303,3.71045 6.4731,5.19563c0.11007,1.48518 -0.29717,15.13069 -1.05998,15.54174c-6.2735,5.26603 -35.14683,11.56704 -35.14683,11.56704c0,0 -32.68082,-11.84919 -34.9197,-14.42482c-1.33771,-1.53894 -0.9502,-9.6176 -0.14509,-15.7532z" fill="#626b94" stroke="#000000" stroke-width="0" stroke-linecap="round"/><path d="M206.07523,154.45118l68.55415,2.63599c0,0 -0.09619,13.4256 -0.80536,13.83848c-5.83699,5.28064 -33.84381,13.83593 -33.84381,13.83593c0,0 -30.3127,-11.76996 -32.38515,-14.34002c-1.23827,-1.53561 -1.51982,-15.97038 -1.51982,-15.97038z" fill="#343e50" stroke="#000000" stroke-width="0" stroke-linecap="round"/><path d="M212.7275,167.7902c-0.03475,1.03877 -1.08919,1.84652 -2.35522,1.80416c-1.26598,-0.04235 -2.26412,-0.91878 -2.22937,-1.95755c0.03475,-1.03877 1.08919,-1.84652 2.35522,-1.80416c1.26598,0.04235 2.26412,0.91878 2.22937,1.95755z" fill="#989cc7" stroke="none" stroke-width="0" stroke-linecap="butt"/><path d="M272.09973,169.54125c-0.03258,0.97384 -1.02116,1.7311 -2.20799,1.69138c-1.18688,-0.03971 -2.12259,-0.86139 -2.09001,-1.83518c0.03258,-0.97384 1.02115,-1.7311 2.20799,-1.69138c1.18688,0.03971 2.12258,0.86139 2.09001,1.83518z" fill="#989cc7" stroke="none" stroke-width="0" stroke-linecap="butt"/><path d="M236.48798,156.1534l-9.13344,22.28991l-7.1185,-2.12113l6.01566,-21.19596z" fill="#394d8b" stroke="#000000" stroke-width="0" stroke-linecap="round"/><path d="M240.98261,175.30448l5.39975,-18.13535l14.22043,-0.38016l-7.80499,18.39729z" fill="#394d8b" stroke="#000000" stroke-width="0" stroke-linecap="round"/><path d="M226.58793,155.30861l2.68492,-3.50486l9.23324,0.30892l-2.68492,3.50486z" fill="#808fe9" stroke="none" stroke-width="0" stroke-linecap="butt"/><path d="M247.30017,155.31688l3.55419,-2.79108l12.45627,0.07438l-2.36872,3.17311z" fill="#808fe9" stroke="none" stroke-width="0" stroke-linecap="butt"/><path d="M226.03494,156.48837l0.22243,-1.53315l9.91721,0.3318l-0.22243,1.53315z" fill="#32418b" stroke="none" stroke-width="0" stroke-linecap="butt"/><path d="M246.54755,157.34585l0.9293,-2.19424l14.02087,0.46909l-0.73542,1.51599z" fill="#32418b" stroke="none" stroke-width="0" stroke-linecap="butt"/><path d="M256.45838,176.25559c-0.11621,3.47336 -4.39451,6.14912 -9.55589,5.97643c-5.16134,-0.17269 -9.25126,-3.12837 -9.13505,-6.60173c0.11621,-3.47336 4.39451,-6.14908 9.55593,-5.97639c5.16133,0.17269 9.2513,3.12838 9.13509,6.60178z" fill="#f3391b" stroke="#4b0b08" stroke-width="0.25" stroke-linecap="butt"/><path d="M241.28815,175.92453c-0.11295,3.37599 -4.1781,5.97983 -9.07978,5.81583c-4.90168,-0.16399 -8.7837,-3.03372 -8.67075,-6.40971c0.11295,-3.37599 4.1781,-5.97983 9.07978,-5.81583c4.90168,0.16399 8.7837,3.03372 8.67075,6.40971z" fill="#f3391b" stroke="#4b0b08" stroke-width="0.25" stroke-linecap="butt"/><path d="M227.94739,163.1213c-0.08471,2.532 -2.44279,4.50799 -5.26694,4.4135c-2.82415,-0.09449 -4.57064,-1.59513 -6.41404,-3.50979c-0.39057,-0.40564 -14.36954,-11.73246 -14.36954,-11.73246c0,0 2.20355,-0.02328 6.68582,1.24291c4.10448,1.15953 10.4623,5.79021 10.4623,5.79021c0,0 1.90616,-0.88437 3.9344,-0.72495c2.81701,0.2214 5.05279,1.98857 4.96807,4.52058z" fill="#f3391b" stroke="#4b0b08" stroke-width="0.25" stroke-linecap="butt"/><path d="M227.76798,172.0005c-0.101,3.01892 -3.15653,5.36674 -6.82462,5.24401c-3.66814,-0.12273 -5.0277,-3.00535 -7.06236,-5.23786c-2.38388,-2.61559 -4.09771,-13.09152 -4.09771,-13.09152c0,0 9.36434,7.32464 11.52588,7.39696c3.66814,0.12273 6.5599,2.66952 6.4589,5.68845z" fill="#f3391b" stroke="#4b0b08" stroke-width="0.25" stroke-linecap="butt"/><path d="M257.9666,159.53594c2.03436,-0.02351 3.87716,0.98629 3.87716,0.98629c0,0 6.65311,-4.19538 10.82592,-5.07797c4.55688,-0.96381 6.75391,-0.79325 6.75391,-0.79325c0,0 -14.70479,10.3671 -15.12159,10.74577c-1.96725,1.78716 -3.81018,3.16771 -6.63429,3.07323c-2.82415,-0.09449 -5.04488,-2.22371 -4.96017,-4.75567c0.08471,-2.53196 2.43352,-4.14578 5.25912,-4.1784z" data-paper-data="{&quot;index&quot;:null}" fill="#f3391b" stroke="#4b0b08" stroke-width="0.25" stroke-linecap="butt"/><path d="M251.78313,173.39245c0.101,-3.01892 3.15653,-5.36674 6.82466,-5.24402c2.16154,0.07232 11.99452,-6.61004 11.99452,-6.61004c0,0 -2.41025,10.33795 -4.96358,12.78835c-2.17933,2.09152 -3.72848,4.87682 -7.39666,4.7541c-3.66809,-0.12273 -6.55986,-2.66951 -6.45886,-5.68844z" data-paper-data="{&quot;index&quot;:null}" fill="#f3391b" stroke="#4b0b08" stroke-width="0.25" stroke-linecap="butt"/><path d="M222.45646,172.47006c0,0 -2.28038,0.57291 -3.50695,-0.70576c-0.62578,-0.65237 -1.2716,-1.62523 -1.16456,-3.10099c0.08637,-1.19058 2.74433,-1.90661 2.74433,-1.90661" fill="none" stroke="#760303" stroke-width="0.25" stroke-linecap="round"/><path d="M231.50806,172.7729c0,0 0.02493,-0.26959 1.88478,-0.05464c1.16253,0.13439 2.33176,1.54761 1.904,2.88812c-0.42772,1.34052 -1.63409,2.61042 -3.37803,2.47604c-1.74394,-0.13434 -4.72136,-3.10009 -4.72136,-3.10009" fill="none" stroke="#760303" stroke-width="0.25" stroke-linecap="round"/><path d="M252.57319,176.30214c0,0 -3.08553,2.36816 -4.78471,2.31131c-1.69917,-0.05685 -3.11618,-1.1569 -3.32644,-2.58268c-0.21022,-1.42577 1.68508,-2.30499 2.55909,-2.62114c0.87405,-0.31615 1.41458,-0.07038 1.41458,-0.07038" fill="none" stroke="#760303" stroke-width="0.25" stroke-linecap="round"/><path d="M259.43545,168.17609c0,0 1.97901,0.59181 2.75525,1.52076c0.86441,1.03447 0.49316,2.43911 -0.43214,2.91127c-1.75625,0.8962 -4.85509,0.89673 -4.85509,0.89673" fill="none" stroke="#760303" stroke-width="0.25" stroke-linecap="round"/><path d="M223.40996,161.55731c0,0 1.0592,1.01825 0.28581,2.01018c-0.77339,0.99193 -1.68983,0.97899 -3.08389,0.72062c-1.39401,-0.25837 -1.85286,-4.41634 -1.85286,-4.41634" fill="none" stroke="#760303" stroke-width="0.25" stroke-linecap="round"/><path d="M262.37123,161.3309c0,0 0.3128,2.20807 -0.57639,3.15821c-0.88918,0.95014 -1.78195,1.28016 -2.86453,1.19869c-1.08258,-0.08147 -1.865,0.01248 -2.21386,-0.6625c-0.34886,-0.67498 0.07079,-2.11596 0.07079,-2.11596" fill="none" stroke="#760303" stroke-width="0.25" stroke-linecap="round"/><path d="M268.73438,196.2608l0.16125,-4.81969l1.05798,0.03539l-0.16125,4.81969z" fill="#9698ba" stroke="none" stroke-width="0" stroke-linecap="butt"/></g></g></g></svg>