<svg version="1.1" xmlns="http://www.w3.org/2000/svg" xmlns:xlink="http://www.w3.org/1999/xlink" width="444.33005" height="574.23805" viewBox="0,0,444.33005,574.23805"><defs><radialGradient cx="237.57687" cy="128.28219" r="205.13265" gradientUnits="userSpaceOnUse" id="color-1"><stop offset="0" stop-color="#494949"/><stop offset="1" stop-color="#2f3231"/></radialGradient></defs><g transform="translate(-17.83498,107.74626)"><g data-paper-data="{&quot;isPaintingLayer&quot;:true}" fill-rule="nonzero" stroke-linejoin="miter" stroke-miterlimit="10" stroke-dasharray="" stroke-dashoffset="0" style="mix-blend-mode: normal"><path d="M295.93849,395.30035l12.73916,22.5784l-26.24206,47.7474l-14.7484,-47.24202l11.88579,-25.3596l-1.35194,-11.54053l-26.97943,2.12525l-0.92799,-18.52671l27.7514,-2.16392l-3.0919,-46.27812l26.28484,-0.54269l-0.03457,45.66084l23.93034,-1.19863l-1.03987,25.59022l-27.13411,-0.96252z" data-paper-data="{&quot;index&quot;:null}" fill="#060408" stroke="#000000" stroke-width="0.5" stroke-linecap="round"/><path d="M196.83877,398.31684l9.26088,24.21375l-33.01325,43.34267l-7.60146,-48.9034l15.50464,-23.32354l0.36922,-11.61357l-26.99716,-1.8871l1.82143,-18.4603l27.76633,1.96299l3.78444,-46.22663l26.07619,3.34955l-6.78526,45.15388l23.84455,2.3527l-4.81203,25.15523l-26.69358,-4.96382z" data-paper-data="{&quot;index&quot;:null}" fill="#060408" stroke="#000000" stroke-width="0.5" stroke-linecap="round"/><path d="M355.55144,262.99011l39.01131,156.35402l-132.70855,-73.45956z" data-paper-data="{&quot;index&quot;:null}" fill="#50336a" stroke="#654186" stroke-width="0.5" stroke-linecap="round"/><path d="M232.30921,326.39882l-119.77845,93.06447l14.40836,-160.5019z" data-paper-data="{&quot;index&quot;:null}" fill="#50336a" stroke="#654186" stroke-width="0.5" stroke-linecap="round"/><path d="M165.68479,267.10686l-147.35092,35.99412l78.73712,-140.60203z" data-paper-data="{&quot;index&quot;:null}" fill="#654187" stroke="#654186" stroke-width="0.5" stroke-linecap="round"/><path d="M382.92899,164.04919l78.73714,140.60203l-147.35092,-35.99413z" data-paper-data="{&quot;index&quot;:null}" fill="#654187" stroke="#654186" stroke-width="0.5" stroke-linecap="round"/><path d="M406.56568,109.59646c0,87.98473 -73.1424,203.07877 -115.43165,240.18551c-10.56745,9.27242 -93.659,2.14498 -93.659,2.14498c0,0 -119.26195,-113.67394 -119.26195,-223.64474c0,-109.9708 165.37942,-234.15546 165.37942,-234.15546c0,0 162.97318,105.49894 162.97318,215.46974z" data-paper-data="{&quot;index&quot;:null}" fill="url(#color-1)" stroke="none" stroke-width="0" stroke-linecap="butt"/><path d="M105.74166,223.78265c2.17579,-2.15672 5.21048,-0.63938 5.21048,-0.63938c6.63908,3.40606 11.70444,8.77983 18.25079,12.50986c5.49188,3.1292 11.10542,6.06704 16.70354,8.90526c4.47889,2.27079 9.20589,2.63588 13.89043,4.19101c10.46008,3.47246 20.7182,4.70866 31.57537,6.53975c9.77439,-0.00908 19.56841,2.14923 29.42091,1.14376c3.71562,-0.37917 7.42727,-1.47424 11.14694,-1.13698c4.76337,0.43187 8.91533,1.6149 13.78315,1.11805c7.17925,-0.73276 14.67905,-1.33175 21.68854,-3.23489c2.4348,-0.66108 4.72186,-1.85308 7.19635,-2.34512c1.56446,-0.31108 3.19959,0.137 4.78513,-0.03732c8.14002,-0.89491 16.32686,-3.57301 24.2586,-5.54949c8.01462,-1.33577 16.53058,-2.91156 24.26346,-5.4963c4.85991,-1.62444 9.45905,-3.98331 14.34778,-5.51879c5.57358,-1.75057 12.39751,-2.47938 17.92401,-4.47648c3.36818,-1.21714 10.05361,-9.53467 14.08628,-6.55318c2.83021,2.09248 2.16765,6.7684 2.41449,10.27946c0.37219,5.29369 -3.75536,10.95788 -6.21581,15.25885c-0.875,1.52954 -3.942,8.24339 -4.74814,9.38243c-1.60427,2.26673 -3.8443,4.04808 -5.3752,6.36499c-1.17847,2.35693 -3.37,7.30329 -5.44117,9.02267c-4.20954,3.49452 -7.20747,3.26996 -12.17504,4.42233c-6.60276,1.53171 -9.14263,2.13403 -15.16974,4.3293c-18.94421,6.90009 -38.2829,12.88063 -58.50374,14.88299c-10.78924,1.06842 -22.26089,0.02258 -33.07664,0.02258c-6.21415,-0.01543 -11.40312,1.6108 -17.43042,2.21489c-13.11426,1.31437 -27.53135,0.367 -40.5018,-1.1248c-3.07156,-0.35328 -5.92913,-1.8779 -8.99852,-2.24964c-6.73076,-0.81514 -13.666,-1.16742 -20.16423,-3.62777c-8.72284,-3.30262 -15.53852,-9.75463 -21.01632,-17.05836c-11.95409,-12.00739 -16.92247,-29.32549 -26.22599,-43.20908l-0.77885,-3.69724c0,0 0,-4.63749 4.63749,-4.63749c0.08068,0 0.16,0.00141 0.23792,0.00418z" data-paper-data="{&quot;index&quot;:null}" fill="#b757bb" stroke="none" stroke-width="0.5" stroke-linecap="butt"/><path d="M159.92934,308.36701c1.32407,-1.13606 3.17079,-0.33679 3.17079,-0.33679c4.04017,1.79417 7.12263,4.62484 11.10635,6.58965c3.34201,1.64832 6.75805,3.19585 10.16475,4.69092c2.72561,1.19615 5.60217,1.38846 8.4529,2.20765c6.36537,1.82913 12.60786,2.4803 19.21488,3.44484c5.94812,-0.0048 11.90816,1.13212 17.90379,0.60249c2.26112,-0.19974 4.51982,-0.77656 6.78338,-0.59891c2.89868,0.22749 5.4253,0.85064 8.38758,0.58894c4.36885,-0.38598 8.93278,-0.7015 13.19834,-1.70399c1.48166,-0.34823 2.87346,-0.97614 4.37928,-1.23532c0.95202,-0.16387 1.94706,0.07216 2.91194,-0.01966c4.95351,-0.47139 9.93555,-1.88211 14.76232,-2.92324c4.87723,-0.70363 10.05953,-1.53368 14.7653,-2.89521c2.95744,-0.85568 5.7562,-2.09824 8.7312,-2.90707c3.39175,-0.92214 7.54439,-1.30605 10.90749,-2.35802c2.04969,-0.64114 6.11802,-5.02247 8.57207,-3.45193c1.7223,1.10223 1.31912,3.5653 1.46933,5.41478c0.22651,2.78848 -2.28528,5.77214 -3.78257,8.0377c-0.53245,0.80568 -2.39884,4.34225 -2.88941,4.94225c-0.97625,1.19401 -2.33943,2.13234 -3.27103,3.3528c-0.71715,1.24153 -2.05079,3.84706 -3.31118,4.75274c-2.56167,1.84077 -4.38603,1.72247 -7.40899,2.3295c-4.01804,0.80683 -5.56367,1.12409 -9.23141,2.28047c-11.5283,3.63466 -23.29667,6.78494 -35.60187,7.83972c-6.56567,0.56281 -13.54664,0.0119 -20.12846,0.0119c-3.78156,-0.00812 -6.93927,0.84851 -10.60712,1.1667c-7.98054,0.69236 -16.75394,0.19333 -24.64696,-0.59249c-1.86916,-0.18609 -3.60812,-0.9892 -5.47597,-1.18502c-4.09591,-0.42938 -8.31628,-0.61495 -12.27071,-1.91096c-5.30819,-1.73967 -9.45582,-5.13832 -12.78926,-8.9856c-7.27455,-6.32497 -10.29799,-15.44741 -15.95956,-22.76069l-0.47397,-1.94756c0,0 0,-2.44281 2.82209,-2.44281c0.04911,0 0.09735,0.00072 0.14478,0.00217z" data-paper-data="{&quot;index&quot;:null}" fill="#b757bb" stroke="none" stroke-width="0.5" stroke-linecap="butt"/><g data-paper-data="{&quot;index&quot;:null}" stroke-width="0.5" stroke-linecap="round"><path d="M244.95536,402.08735l-3.37446,-203.59174l20.2467,104.60789z" fill="#573074" stroke="#573074"/><path d="M245.03907,405.4618l-26.99557,-151.8502l22.49633,-50.61672z" fill="#3e2254" stroke="#3e2254"/></g><g data-paper-data="{&quot;index&quot;:null}" stroke-width="0.5" stroke-linecap="round"><path d="M248.18522,307.74736l-3.37446,-203.59174l20.24669,104.6079z" fill="#573074" stroke="#573074"/><path d="M248.26896,311.12181l-26.99558,-151.85019l22.49634,-50.61674z" fill="#3e2254" stroke="#3e2254"/></g><g data-paper-data="{&quot;index&quot;:null}" fill="#000000" stroke="none" stroke-width="0.5" stroke-linecap="butt"><path d="M141.95571,134.30881c-0.1616,0.38804 -0.481,0.76773 -1.0644,1.05944c-1.93385,0.96695 -2.9008,-0.96695 -2.9008,-0.96695c-7.10551,-14.26691 -11.20881,-34.38738 -8.60167,-50.25648c3.75673,-22.52752 9.45425,-42.40485 26.01468,-58.68884c10.72028,-6.429 19.9212,-17.70458 32.37807,-21.13469c7.45234,-2.05206 14.87614,-1.0156 22.2266,0.44975c3.68641,0.6144 7.33778,1.40683 10.90848,2.47798c1.29951,0.38983 3.17242,0.19778 3.82683,1.38626c1.67744,3.04641 -1.74671,7.19786 -2.71492,9.88043c-3.99084,11.05713 -10.13447,22.13217 -15.50777,32.51166c-5.75349,8.07016 -7.58332,18.44167 -13.43689,26.33435c-3.8877,5.242 -8.88918,9.74661 -12.9012,14.89489c-2.63321,3.37897 -4.07278,6.95766 -7.61366,9.61334c-8.87099,11.13307 -15.24433,28.51417 -30.61334,32.43889z"/><path d="M203.73145,53.29552l-2.48232,-1.28799c-13.50821,-1.73613 -23.93556,-0.31751 -33.81096,9.57759c-14.45252,14.30957 -17.82532,41.09906 -8.78386,59.03032c0,0 1.45039,2.90082 -1.45041,4.35122c-2.9008,1.45038 -4.35122,-1.45042 -4.35122,-1.45042c-10.22787,-20.60738 -6.35182,-50.03117 9.99891,-66.51774c11.61787,-11.59663 24.51867,-13.6099 40.33159,-11.18234l3.44909,1.67774c0,0 2.90082,1.45041 1.45041,4.35123c-1.45041,2.90082 -4.35122,1.45041 -4.35122,1.45041z"/></g><g data-paper-data="{&quot;index&quot;:null}" stroke="none" stroke-width="0.5" stroke-linecap="butt"><path d="M142.87563,127.56216c-0.14377,0.34521 -0.42793,0.683 -0.94692,0.94249c-1.7204,0.86021 -2.58061,-0.86021 -2.58061,-0.86021c-6.32116,-12.69202 -9.9715,-30.59149 -7.65216,-44.70885c3.34204,-20.04078 8.41061,-37.72395 23.143,-52.21042c9.53691,-5.71932 17.72218,-15.75024 28.80399,-18.80172c6.62968,-1.82554 13.23403,-0.9035 19.77309,0.4001c3.27948,0.54659 6.52781,1.25153 9.70434,2.20444c1.15606,0.34681 2.82222,0.17595 3.40439,1.23324c1.49226,2.71015 -1.55389,6.40333 -2.41524,8.78977c-3.55029,9.83654 -9.01574,19.68909 -13.7959,28.92281c-5.11837,7.17935 -6.74621,16.40599 -11.95364,23.42741c-3.45857,4.66335 -7.90793,8.67073 -11.47708,13.2507c-2.34254,3.00598 -3.6232,6.18964 -6.77323,8.55216c-7.89175,9.90412 -13.56157,25.36658 -27.23405,28.85808z" fill="#3ad853"/><path d="M201.70304,54.20135c-1.29029,2.58059 -3.87092,1.2903 -3.87092,1.2903l-2.20828,-1.1458c-12.0171,-1.5445 -21.29341,-0.28247 -30.07871,8.52034c-12.85718,12.73 -15.85768,36.5623 -7.81427,52.5142c0,0 1.29031,2.58061 -1.2903,3.8709c-2.5806,1.29031 -3.8709,-1.2903 -3.8709,-1.2903c-9.09885,-18.3326 -5.65066,-44.50842 8.89518,-59.17511c10.33543,-10.31654 21.81216,-12.10757 35.87956,-9.94798l3.06836,1.49253c0,0 2.58059,1.2903 1.29029,3.8709z" fill="#f0f7a3"/></g><g data-paper-data="{&quot;index&quot;:null}" fill="#000000" stroke="none" stroke-width="0.5" stroke-linecap="butt"><path d="M361.52747,144.22219c-0.58338,-0.29171 -0.9028,-0.67139 -1.06439,-1.05944c-15.36901,-3.92475 -21.74235,-21.30584 -30.61334,-32.43889c-3.54089,-2.65568 -4.98046,-6.23437 -7.61366,-9.61334c-4.01201,-5.14827 -9.0135,-9.65291 -12.9012,-14.89488c-5.85357,-7.89266 -7.68341,-18.26417 -13.43689,-26.33435c-5.3733,-10.37949 -11.51693,-21.45453 -15.50776,-32.51166c-0.96823,-2.68257 -4.39237,-6.83402 -2.71493,-9.88042c0.65442,-1.18847 2.52733,-0.99642 3.82683,-1.38624c3.57072,-1.07115 7.22209,-1.86356 10.9085,-2.47797c7.35048,-1.46535 14.77428,-2.50182 22.2266,-0.44975c12.45689,3.43012 21.6578,14.70571 32.37808,21.1347c16.56045,16.28399 22.25797,36.16133 26.01468,58.68884c2.60712,15.8691 -1.49617,35.98957 -8.60167,50.25648c0,0 -0.96693,1.9339 -2.90082,0.96695z"/><path d="M298.68737,62.14946c0,0 -2.90082,1.45039 -4.35122,-1.45041c-1.45039,-2.9008 1.45041,-4.35122 1.45041,-4.35122l3.44908,-1.67773c15.81293,-2.42755 28.71372,-0.41428 40.3316,11.18235c16.35072,16.48659 20.22676,45.91038 9.99889,66.51774c0,0 -1.45039,2.90084 -4.3512,1.45043c-2.90082,-1.45041 -1.45041,-4.35124 -1.45041,-4.35124c9.04147,-17.93123 5.66866,-44.72073 -8.78388,-59.0303c-9.87543,-9.8951 -20.30272,-11.31372 -33.81095,-9.57758l-2.48233,1.28799z"/></g><g data-paper-data="{&quot;index&quot;:null}" stroke="none" stroke-width="0.5" stroke-linecap="butt"><path d="M359.54324,136.41614c-13.67248,-3.49149 -19.34231,-18.95397 -27.23405,-28.85809c-3.15004,-2.36252 -4.43071,-5.5462 -6.77323,-8.55217c-3.56916,-4.57999 -8.01853,-8.58736 -11.47708,-13.2507c-5.20739,-7.02144 -6.83526,-16.24806 -11.95364,-23.42742c-4.78015,-9.23372 -10.2456,-19.08624 -13.79591,-28.92281c-0.86136,-2.38646 -3.90751,-6.07963 -2.41524,-8.78975c0.58216,-1.05729 2.24833,-0.88642 3.40439,-1.23323c3.17654,-0.95292 6.42485,-1.65786 9.70434,-2.20445c6.53906,-1.30359 13.14341,-2.22564 19.77309,-0.4001c11.0818,3.05148 19.26707,13.08239 28.80399,18.80173c14.73239,14.48647 19.80096,32.16961 23.143,52.21041c2.31934,14.11738 -1.331,32.01683 -7.65216,44.70887c0,0 -0.86021,1.72042 -2.5806,0.86021c-0.519,-0.25949 -0.80315,-0.59727 -0.9469,-0.94249z" fill="#3ad853"/><path d="M304.58668,64.34557c0,0 -2.5806,1.29031 -3.8709,-1.2903c-1.29031,-2.5806 1.29029,-3.8709 1.29029,-3.8709l3.06837,-1.49253c14.06739,-2.15958 25.54414,-0.36854 35.87955,9.94799c14.54584,14.66671 17.99401,40.8425 8.89517,59.17511c0,0 -1.2903,2.58059 -3.8709,1.2903c-2.58059,-1.29029 -1.2903,-3.87092 -1.2903,-3.87092c8.04339,-15.9519 5.04291,-39.78422 -7.81426,-52.51419c-8.78532,-8.80281 -18.0616,-10.06484 -30.0787,-8.52034l-2.2083,1.1458z" fill="#f0f7a3"/></g><path d="M351.03242,39.46148l-26.70353,-44.35072l-82.1116,-98.98383l109.10717,92.23494l38.26995,59.48492l16.87223,47.24229v42.74301l-6.7489,17.99705l-53.82387,-21.79401l-82.11158,37.11894" data-paper-data="{&quot;index&quot;:null}" fill="none" stroke="#000000" stroke-width="2.5" stroke-linecap="round"/><path d="M133.4441,116.46058l-42.74302,-42.74301l17.11926,-38.80364l37.66274,-49.92651l97.85901,-89.98529l4.49926,113.60643l-3.66649,101.71635" data-paper-data="{&quot;index&quot;:null}" fill="none" stroke="#000000" stroke-width="2.5" stroke-linecap="round"/><path d="M167.68735,19.21477l16.03949,-30.85292l62.98971,-92.23494" data-paper-data="{&quot;index&quot;:null}" fill="none" stroke="#000000" stroke-width="2.5" stroke-linecap="round"/><path d="M156.75743,121.66212l64.11452,47.24227" data-paper-data="{&quot;index&quot;:null}" fill="none" stroke="#000000" stroke-width="2.5" stroke-linecap="round"/><path d="M296.82793,164.69406c-3.21552,2.14368 -5.3592,-1.07184 -5.3592,-1.07184l-1.76169,-2.64614c-1.66325,-2.34232 -3.14326,-4.82367 -4.43492,-7.38971c0,0 -1.72829,-3.45659 1.7283,-5.18487c3.45659,-1.72828 5.18487,1.7283 5.18487,1.7283c1.09762,2.21243 2.36919,4.3488 3.81123,6.35383l1.90326,2.85127c0,0 2.14368,3.21551 -1.07182,5.35918z" data-paper-data="{&quot;index&quot;:null}" fill="#c39748" stroke="none" stroke-width="0.5" stroke-linecap="butt"/><path d="M185.9176,131.50123c3.86456,0 3.86456,3.86456 3.86456,3.86456l-0.71984,2.70435c-2.69334,3.77015 -5.43112,7.34422 -8.48248,10.83534c0,0 -2.54484,2.90838 -5.45322,0.36354c-2.90838,-2.54484 -0.36354,-5.45322 -0.36354,-5.45322c2.66858,-3.04626 5.06911,-6.15868 7.4266,-9.42569c0.27967,-1.14486 1.13178,-2.88891 3.72794,-2.88891z" data-paper-data="{&quot;index&quot;:null}" fill="#c39748" stroke="none" stroke-width="0.5" stroke-linecap="butt"/><path d="M202.09869,-23.22048l-1.47691,-0.98703c-4.24187,-3.02988 -7.94681,-5.48195 -12.85428,-7.31424c0,0 -3.6185,-1.35696 -2.26156,-4.97546c1.35694,-3.6185 4.97544,-2.26156 4.97544,-2.26156c5.52403,2.07962 9.85788,4.85111 14.63286,8.2618l1.2718,0.84545c0,0 3.21552,2.14367 1.07184,5.3592c-2.14368,3.21552 -5.3592,1.07184 -5.3592,1.07184z" data-paper-data="{&quot;index&quot;:null}" fill="#c39748" stroke="none" stroke-width="0.5" stroke-linecap="butt"/><path d="M205.26279,-38.55547l-1.67373,-0.84132c-1.37436,-0.61082 -2.74874,-1.22165 -4.12309,-1.83249c0,0 -3.53147,-1.56955 -1.96194,-5.10103c1.56957,-3.53149 5.10106,-1.96194 5.10106,-1.96194c1.37436,0.61082 2.74874,1.22163 4.12309,1.83247l1.99121,0.99116c0,0 3.45657,1.72828 1.72828,5.18487c-1.7283,3.45658 -5.18488,1.72828 -5.18488,1.72828z" data-paper-data="{&quot;index&quot;:null}" fill="#c39748" stroke="none" stroke-width="0.5" stroke-linecap="butt"/><path d="M337.73017,-8.18266c1.52233,3.55211 -2.02977,5.07443 -2.02977,5.07443l-3.00087,1.27884c-3.80948,1.90474 -7.58084,3.80758 -11.30445,5.87721c0,0 -3.37826,1.87679 -5.25505,-1.50145c-1.8768,-3.37824 1.50144,-5.25505 1.50144,-5.25505c3.82221,-2.12249 7.69202,-4.07914 11.60148,-6.03387l3.41278,-1.46989c0,0 3.5521,-1.52234 5.07443,2.02976z" data-paper-data="{&quot;index&quot;:null}" fill="#c39748" stroke="none" stroke-width="0.5" stroke-linecap="butt"/><path d="M325.45774,-19.01352c2.73265,2.73265 0,5.46532 0,5.46532l-1.86078,1.78642c-2.30551,1.64523 -4.66857,3.21146 -7.06979,4.71361c0,0 -3.27715,2.04824 -5.32537,-1.22892c-2.04823,-3.27714 1.22894,-5.32537 1.22894,-5.32537c2.26777,-1.41597 4.49894,-2.89376 6.67375,-4.44877l0.88794,-0.9623c0,0 2.73265,-2.73265 5.46531,0z" data-paper-data="{&quot;index&quot;:null}" fill="#c39748" stroke="none" stroke-width="0.5" stroke-linecap="butt"/><path d="M250.54599,36.54351c-9.60454,0 -17.39057,-11.76554 -17.39057,-26.27908c0,-14.51353 7.78602,-26.27908 17.39057,-26.27908c9.60456,0 17.39057,11.76554 17.39057,26.27908c0,14.51354 -7.78602,26.27908 -17.39057,26.27908z" data-paper-data="{&quot;index&quot;:null}" fill="#38d74d" stroke="none" stroke-width="0" stroke-linecap="butt"/><path d="M250.54599,12.58317c-9.60454,0 -17.39057,-5.70975 -17.39057,-12.75307c0,-7.04332 7.78602,-18.16347 17.39057,-18.16347c9.60456,0 17.39057,11.12015 17.39057,18.16347c0,7.04333 -7.78602,12.75308 -17.39057,12.75308z" data-paper-data="{&quot;index&quot;:null}" fill="#2daf3f" stroke="none" stroke-width="0" stroke-linecap="butt"/><path d="M345.01088,216.85564c-3.1641,18.08059 -16.46636,30.85878 -29.71145,28.54089c-13.24509,-2.31791 -21.41731,-18.85414 -18.25323,-36.93471c3.1641,-18.08059 16.46638,-30.85878 29.71145,-28.54089c13.24507,2.31789 21.41731,18.85412 18.25321,36.93469z" data-paper-data="{&quot;index&quot;:null}" fill="#43d556" stroke="none" stroke-width="0" stroke-linecap="butt"/><path d="M345.78379,229.209c-3.1641,14.69371 -24.19551,31.26163 -37.44058,29.37792c-13.24509,-1.88371 -21.41732,-15.32236 -18.25324,-30.01608c3.1641,-14.69371 16.46638,-25.07829 29.71145,-23.19459c13.24506,1.88369 29.14645,9.13904 25.98235,23.83276z" data-paper-data="{&quot;index&quot;:null}" fill="#023725" stroke="none" stroke-width="0" stroke-linecap="butt"/><path d="M343.46505,223.05494c-2.69333,8.36327 -12.73237,14.63879 -23.82913,15.54425c-1.93964,0.15828 -3.91162,0.15247 -5.88232,-0.03494c-13.24507,-1.25957 -21.41732,-10.24545 -18.25322,-20.07057c0.88457,-2.74677 -0.16051,-5.65816 0.1454,-8.22637c0.30327,-2.54599 1.94754,-4.75472 5.07718,-6.13145c5.00573,-2.20203 18.61748,-1.70985 24.48885,-1.15149c13.24507,1.25957 21.41732,10.24545 18.25322,20.07057z" data-paper-data="{&quot;index&quot;:null}" fill="#1e6246" stroke="none" stroke-width="0" stroke-linecap="butt"/><path d="M140.91753,216.85562c-3.1641,-18.08057 5.00815,-34.61679 18.25322,-36.93468c13.24509,-2.31789 26.54737,10.46032 29.71145,28.54089c3.1641,18.08057 -5.00813,34.61679 -18.25322,36.93469c-13.24509,2.31789 -26.54737,-10.46032 -29.71145,-28.54089z" data-paper-data="{&quot;index&quot;:null}" fill="#43d556" stroke="none" stroke-width="0" stroke-linecap="butt"/><path d="M141.41723,229.20901c-3.16412,-14.69371 12.73727,-21.94906 25.98235,-23.83276c13.24509,-1.88371 26.54737,8.50088 29.71145,23.19459c3.1641,14.69371 -5.00812,28.13239 -18.25322,30.01608c-13.24508,1.88371 -34.2765,-14.6842 -37.44058,-29.37791z" data-paper-data="{&quot;index&quot;:null}" fill="#023725" stroke="none" stroke-width="0" stroke-linecap="butt"/><path d="M164.74667,238.59921c-11.09673,-0.90544 -21.13578,-7.181 -23.82911,-15.54425c-3.1641,-9.82512 5.00814,-18.81102 18.25321,-20.07057c5.87136,-0.55832 19.48308,-1.05054 24.48885,1.15149c3.12965,1.37673 4.77393,3.58544 5.0772,6.13145c0.30591,2.56821 -0.73918,5.4796 0.14541,8.22637c3.1641,9.82512 -5.00812,18.81102 -18.25322,20.07057c-1.97071,0.18741 -3.94267,0.1932 -5.88231,0.03494z" data-paper-data="{&quot;index&quot;:null}" fill="#1e6246" stroke="none" stroke-width="0" stroke-linecap="butt"/><path d="M380.65672,350.00846l21.54355,14.42033l-1.92278,54.44965l-34.4465,-35.53537l-0.81074,-27.99508l-6.40516,-9.69462l-23.1304,14.04962l-9.17336,-16.12294l23.8022,-14.43183l-23.60521,-39.92514l23.22306,-12.32381l20.53583,40.78225l20.82547,-11.84895l10.59801,23.31572l-24.6593,11.36246z" data-paper-data="{&quot;index&quot;:null}" fill="#060408" stroke="#000000" stroke-width="0.5" stroke-linecap="round"/><path d="M114.69075,329.82884l-24.6593,-11.36246l10.59802,-23.31573l20.82547,11.84894l20.53585,-40.78224l23.22305,12.32381l-23.6052,39.92515l23.80219,14.43183l-9.17337,16.12295l-23.1304,-14.04962l-6.40516,9.69462l-0.81074,27.99507l-34.4465,35.53538l-1.92278,-54.44965l21.54356,-14.42034z" data-paper-data="{&quot;index&quot;:null}" fill="#060408" stroke="#000000" stroke-width="0.5" stroke-linecap="round"/></g></g></svg>