<svg version="1.1" xmlns="http://www.w3.org/2000/svg" xmlns:xlink="http://www.w3.org/1999/xlink" width="165.18205" height="166.52848" viewBox="0,0,165.18205,166.52848"><defs><linearGradient x1="240.00023" y1="110.02636" x2="240.00023" y2="249.97377" gradientUnits="userSpaceOnUse" id="color-1"><stop offset="0" stop-color="#6bdb2b"/><stop offset="1" stop-color="#3dd214"/></linearGradient><radialGradient cx="176.33108" cy="120.20183" r="24.51573" gradientUnits="userSpaceOnUse" id="color-2"><stop offset="0" stop-color="#ffffff"/><stop offset="1" stop-color="#ffffff" stop-opacity="0"/></radialGradient></defs><g transform="translate(-157.40902,-96.7358)"><g data-paper-data="{&quot;isPaintingLayer&quot;:true}" fill-rule="nonzero" stroke-linejoin="miter" stroke-miterlimit="10" stroke-dasharray="" stroke-dashoffset="0" style="mix-blend-mode: normal"><path d="M162.40902,126.88287c0,-12.1149 18.14024,-25.14706 23.68488,-25.14706c16.70051,0 80.646,0.48508 110.49348,0.48508c6.46679,0 21.00369,14.82895 21.00369,28.74214c0,16.99586 0,70.92877 0,100.17092c0,17.08879 -8.43931,24.70468 -14.80053,24.70468c-16.76187,0 -85.45627,2.42566 -117.94506,2.42566c-9.03883,0 -22.43639,-14.29882 -22.43639,-32.42011c0,-18.1213 -0.00007,-82.50126 -0.00007,-98.96132z" fill="none" stroke="#ffffff" stroke-width="10" stroke-linecap="butt"/><path d="M162.92155,127.23356c0,-12.03481 18.02046,-24.98096 23.52839,-24.98096c16.59015,0 80.11331,0.4819 109.76351,0.4819c6.42405,0 20.86493,14.73093 20.86493,28.55225c0,16.88364 0,70.46013 0,99.50915c0,16.97587 -8.38349,24.54144 -14.70276,24.54144c-16.65114,0 -84.89174,2.40958 -117.16579,2.40958c-8.97906,0 -22.28828,-14.20434 -22.28828,-32.20596c0,-18.00155 0,-81.95616 0,-98.30746z" fill="#48d41a" stroke="#3bbf1d" stroke-width="0.5" stroke-linecap="butt"/><path d="M170.62834,132.50955c0,-10.83156 16.21871,-22.48327 21.17591,-22.48327c14.93138,0 72.10328,0.43377 98.78891,0.43377c5.78169,0 18.77873,13.2581 18.77873,25.69746c0,15.19557 0,63.41532 0,89.55985c0,15.27853 -7.54532,22.08769 -13.23276,22.08769c-14.98631,0 -76.40399,2.1687 -105.45114,2.1687c-8.0814,0 -20.05987,-12.7842 -20.05987,-28.98594c0,-16.20167 0,-73.76191 0,-88.47834z" fill="url(#color-1)" stroke="#085001" stroke-width="0" stroke-linecap="butt"/><path d="M165.63939,129.09429c0,-11.61046 17.38505,-24.1002 22.69881,-24.1002c16.00519,0 77.28865,0.46494 105.89336,0.46494c6.19752,0 20.12922,14.21151 20.12922,27.54555c0,16.28837 0,67.97581 0,96.00057c0,16.3773 -8.08791,23.67614 -14.18438,23.67614c-16.06401,0 -81.89854,2.3246 -113.03465,2.3246c-8.66248,0 -21.50243,-13.70353 -21.50243,-31.07042c0,-17.36681 0,-79.06648 0,-94.84126z" fill="none" stroke="#42d317" stroke-width="0.5" stroke-linecap="butt"/><path d="M210.34738,112.08089c0,0 -7.51004,-0.26509 -15.74705,1.52941c-5.66002,1.23308 -11.66322,3.18639 -15.80893,7.88006c-4.32216,4.89345 -4.35893,11.83303 -5.16653,18.78471c-1.10939,9.54975 -1.97768,18.69436 -1.97768,18.69436c0,0 -1.09885,-9.67344 -0.57637,-20.43908c0.32772,-6.75251 -0.15612,-13.6421 5.17819,-19.75434c4.90959,-5.62549 11.66494,-7.27335 17.05262,-8.31107c9.38713,-1.80802 17.04582,1.61595 17.04582,1.61595z" fill="url(#color-2)" stroke="#dbffff" stroke-width="0" stroke-linecap="butt"/><path d="M240.68739,141.75114l14.97611,87.77943l-28.17482,-13.19822l-4.55543,35.13625l-33.78152,-14.36871l13.26127,-29.62673l-28.15243,-11.13098l51.93807,-42.54278z" fill="#fefffd" stroke="#000000" stroke-width="0" stroke-linecap="round"/><path d="M311.79445,150.17286c0,17.00029 -13.7018,30.78175 -30.60381,30.78175c-16.90202,0 -30.60381,-13.78145 -30.60381,-30.78174c0,-17.00029 13.70179,-30.78174 30.60381,-30.78174c16.90202,0 30.60381,13.78145 30.60381,30.78174z" fill="none" stroke="#fefffd" stroke-width="2.5" stroke-linecap="butt"/><path d="M295.79184,149.75606c0,9.04062 -6.77124,16.36948 -15.12398,16.36948c-8.35274,0 -15.12398,-7.32887 -15.12398,-16.36948c0,-9.04062 6.77124,-16.36948 15.12398,-16.36948c8.35274,0 15.12398,7.32887 15.12398,16.36948z" fill="none" stroke="#fefffd" stroke-width="2.5" stroke-linecap="butt"/><path d="M286.53953,149.22228c0,3.24283 -2.46951,5.87166 -5.5158,5.87166c-3.04629,0 -5.5158,-2.62883 -5.5158,-5.87166c0,-3.24283 2.46951,-5.87166 5.5158,-5.87166c3.04629,0 5.5158,2.62883 5.5158,5.87166z" fill="none" stroke="#fefffd" stroke-width="2.5" stroke-linecap="butt"/><path d="M279.77822,114.52609l0.71172,40.21199v35.58583" fill="none" stroke="#fefffd" stroke-width="2.5" stroke-linecap="round"/><path d="M316.07577,153.31464l-69.39237,0.35586" fill="none" stroke="#fefffd" stroke-width="2.5" stroke-linecap="round"/></g></g></svg>