<svg version="1.1" xmlns="http://www.w3.org/2000/svg" xmlns:xlink="http://www.w3.org/1999/xlink" width="106.87221" height="114.46399" viewBox="0,0,106.87221,114.46399"><defs><linearGradient x1="194.12301" y1="195.39832" x2="194.00597" y2="218.45961" gradientUnits="userSpaceOnUse" id="color-1"><stop offset="0" stop-color="#0256f6"/><stop offset="1" stop-color="#0256f6" stop-opacity="0"/></linearGradient><linearGradient x1="239.50245" y1="130.09489" x2="239.75307" y2="153.00578" gradientUnits="userSpaceOnUse" id="color-2"><stop offset="0" stop-color="#ffa900"/><stop offset="1" stop-color="#fec200"/></linearGradient><radialGradient cx="241.1653" cy="172.88232" r="52.11366" gradientUnits="userSpaceOnUse" id="color-3"><stop offset="0" stop-color="#126cdf"/><stop offset="1" stop-color="#0053f8"/></radialGradient></defs><g transform="translate(-185.53059,-116.00161)"><g data-paper-data="{&quot;isPaintingLayer&quot;:true}" fill-rule="nonzero" stroke-linejoin="miter" stroke-miterlimit="10" stroke-dasharray="" stroke-dashoffset="0" style="mix-blend-mode: normal"><path d="M202.59533,199.32649l-3.735,9.03934l-4.3083,10.09655l-9.02144,-3.32293l1.57586,-11.21613l6.23447,-8.52898" data-paper-data="{&quot;index&quot;:null}" fill="url(#color-1)" stroke="#174752" stroke-width="0" stroke-linecap="round"/><path d="M195.1471,165.59044c0,0 -5.49205,-12.63856 -5.78364,-16.42502c-0.36942,-4.79783 1.42301,-10.21601 7.14577,-10.7005c5.28754,-0.44765 81.63193,-5.72962 86.564,-5.55025c4.93208,0.17934 8.68162,6.15229 8.22287,9.83426c-1.29273,10.37537 -9.58337,25.15753 -9.58337,25.15753" fill="#e3000a" stroke="#930f00" stroke-width="0.5" stroke-linecap="round"/><path d="M189.16416,143.70627c3.67559,-14.69949 92.27116,-15.0779 96.5461,-12.92628c5.68962,2.86365 4.81617,11.52705 4.81617,11.52705l-99.45115,11.20224c0,0 -3.5417,-3.28191 -1.91112,-9.80301z" fill="url(#color-2)" stroke="#930f00" stroke-width="0" stroke-linecap="round"/><path d="M221.46378,201.90338l19.89036,0.53215l-0.1004,3.75289c0,0 -4.62306,0.81521 -7.34324,0.74244c-3.63884,-0.09735 -12.54711,-1.27459 -12.54711,-1.27459z" fill="#ed0000" stroke="none" stroke-width="0" stroke-linecap="butt"/><path d="M251.74072,200.07534c0,0 5.37843,16.60238 4.69343,18.37128c-1.12176,2.8968 -2.62476,4.77938 -6.61025,4.82382c-3.98549,0.04443 -6.38214,-1.42773 -7.65265,-4.66482c-1.27051,-3.23709 -1.24651,-18.00872 -1.24651,-18.00872" data-paper-data="{&quot;index&quot;:null}" fill="#ed0000" stroke="#174752" stroke-width="0" stroke-linecap="round"/><path d="M245.9586,198.26012c1.70091,0.0455 2.16811,0.17374 3.84718,4.23712c1.09797,2.65709 2.07202,4.18962 -1.52575,5.12686c-1.59547,0.41564 -5.59581,-2.17291 -5.51174,-5.31514c0.12172,-4.54976 1.48936,-4.09434 3.19027,-4.04883z" data-paper-data="{&quot;index&quot;:null}" fill="#126ddd" stroke="none" stroke-width="0" stroke-linecap="butt"/><path d="M233.77103,206.6133c0,0 -0.7879,15.57521 -2.23446,18.91833c-1.44656,3.34312 -3.92059,4.76349 -7.89778,4.49756c-3.97719,-0.26589 -5.37451,-2.33335 -6.33541,-5.44913c-0.58673,-1.90264 5.69625,-19.11113 5.69625,-19.11113" data-paper-data="{&quot;index&quot;:null}" fill="#ed0000" stroke="#174752" stroke-width="0" stroke-linecap="round"/><path d="M231.17301,206.90728c-0.11608,4.33909 -4.3446,7.65266 -5.93825,6.97717c-3.59363,-1.52327 -2.50623,-3.57446 -1.22078,-7.1687c1.96574,-5.49648 2.4484,-5.64341 4.17869,-5.59712c1.73029,0.04629 3.14843,-0.49411 2.98034,5.78865z" fill="#126ddd" stroke="none" stroke-width="0" stroke-linecap="butt"/><path d="M251.74072,200.07534c0,0 5.37844,16.60238 4.69347,18.37127c-1.12173,2.8968 -2.6248,4.77939 -6.61026,4.82382c-3.98546,0.04443 -6.3821,-1.42768 -7.65265,-4.66482c-1.27055,-3.2371 -1.41994,-11.52646 -1.41994,-11.52646l-7.4089,-0.03342c0,0 -0.76663,15.22129 -2.16806,18.48872c-1.40143,3.26743 -3.79715,4.65611 -7.64788,4.39721c-3.85073,-0.2589 -5.20321,-2.279 -6.13277,-5.32369c-0.56763,-1.85924 5.51989,-18.67794 5.51989,-18.67794l-4.91505,-1.55726" fill="none" stroke="#174752" stroke-width="0.5" stroke-linecap="round"/><path d="M220.11873,199.07456l-1.81629,14.38342l-2.22388,16.11887l-14.19714,-1.23398l-2.1203,-16.6544l5.58973,-14.62827" data-paper-data="{&quot;index&quot;:null}" fill="#a6521b" stroke="#174752" stroke-width="0.5" stroke-linecap="round"/><path d="M251.86724,202.52902l-14.7417,3.54895l-15.10435,-3.95314" fill="#445e67" stroke="#ffa549" stroke-width="0.5" stroke-linecap="round"/><path d="M221.24387,197.15511l-2.90857,14.55188l-17.9455,-3.01324l4.47932,-14.21061" data-paper-data="{&quot;index&quot;:null}" fill="#0256f6" stroke="#174752" stroke-width="0.5" stroke-linecap="round"/><path d="M201.27763,211.34077l2.99481,-0.95846l3.44413,3.02459l3.25423,-1.86691l2.86522,2.93484l2.92478,-2.03659l-1.17739,15.23373l-12.3387,-0.72827z" data-paper-data="{&quot;index&quot;:null}" fill="#df9431" stroke="#692206" stroke-width="0" stroke-linecap="round"/><path d="M270.48717,195.88376l10.04746,12.01167l3.45521,15.01131l-13.06019,7.21472l-2.41194,-4.76365l1.3018,-4.24925l-4.20174,-1.61853l-2.0383,-3.88539l-6.39993,-13.00861" fill="#a6521b" stroke="#174752" stroke-width="0.5" stroke-linecap="round"/><path d="M269.25779,193.03384l9.04878,11.83745l-15.84836,8.94148l-7.68797,-12.693" fill="#0256f6" stroke="#174752" stroke-width="0.5" stroke-linecap="round"/><path d="M196.14035,165.42996l0.98982,-32.19906c0,0 9.93057,-16.89684 44.62089,-16.97928c27.96201,0.25892 38.37897,17.7056 38.37897,17.7056l0.6289,28.77659c0,0 8.78816,-1.69734 10.63367,4.02555c1.84546,5.72296 0.28009,15.95383 -4.14343,21.47161c-3.21008,4.00418 -8.86061,1.65141 -8.86061,1.65141c0,0 -11.52622,11.64991 -37.21753,13.19119c-19.42022,1.16511 -37.09444,-9.6619 -37.09444,-9.6619c0,0 -4.92662,1.15966 -8.50277,-0.80208c-4.49916,-2.46803 -9.17581,-12.89845 -7.30255,-22.56218c0.74747,-3.85595 7.86914,-4.61756 7.86914,-4.61756z" fill="url(#color-3)" stroke="#174752" stroke-width="0.5" stroke-linecap="round"/><path d="M279.18221,183.78795l2.04602,-14.65788c0,0 5.11907,-1.39542 5.76261,1.30703c0.64361,2.70245 0.10525,8.63851 -2.38133,12.88992c-2.48658,4.25144 -5.42733,0.46093 -5.42733,0.46093z" data-paper-data="{&quot;index&quot;:null}" fill="#df9431" stroke="#1743af" stroke-width="0.25" stroke-linecap="round"/><path d="M200.72371,186.2797c0,0 -2.84001,3.64492 -5.02169,-0.71579c-2.18171,-4.36067 -2.50624,-10.31111 -1.82953,-12.97828c0.6767,-2.66714 5.38477,-1.03316 5.38477,-1.03316l1.46635,14.72716z" data-paper-data="{&quot;index&quot;:null}" fill="#df9431" stroke="#1743af" stroke-width="0.25" stroke-linecap="round"/><path d="M277.35225,187.51637c0,0 -7.96807,15.43941 -36.79999,16.11843c-27.16756,0.6398 -40.02886,-18.29218 -40.02886,-18.29218l-0.01351,-13.20937c0,0 0.59141,-5.99853 12.79606,-6.33415c12.77693,-0.35132 27.8738,16.17813 27.8738,16.17813c0,0 16.91309,-16.93819 28.21656,-18.50481c4.1792,-0.57927 10.51284,2.52227 10.51284,2.52227z" fill="#df9431" stroke="#34418a" stroke-width="0.5" stroke-linecap="round"/><path d="M231.7871,195.40556c-2.98319,5.3653 -10.82763,6.69789 -17.52102,2.97631c-6.69339,-3.72165 -9.70115,-11.08801 -6.71788,-16.45341c2.98319,-5.3653 10.82762,-6.69789 17.52101,-2.97631c6.69339,3.72165 9.70116,11.08804 6.71789,16.45341z" fill="#ffffff" stroke="#954116" stroke-width="0" stroke-linecap="butt"/><path d="M229.19255,191.32094c0.06772,3.09912 -1.89706,5.65559 -4.3885,5.71006c-2.49146,0.05444 -4.56611,-2.41373 -4.63383,-5.51286c-0.06772,-3.09912 1.89704,-5.65559 4.3885,-5.71003c2.49146,-0.05444 4.56611,2.41373 4.63383,5.51286z" fill="#3d0a00" stroke="none" stroke-width="0" stroke-linecap="butt"/><path d="M255.65267,178.06365c6.52442,-4.01048 14.41957,-3.02197 17.63431,2.20791c3.21478,5.22985 0.53178,12.72064 -5.99268,16.73112c-6.52442,4.01048 -14.4196,3.02201 -17.63434,-2.20784c-3.21478,-5.22985 -0.53178,-12.72071 5.99267,-16.73122z" data-paper-data="{&quot;index&quot;:null}" fill="#ffffff" stroke="#954116" stroke-width="0" stroke-linecap="butt"/><path d="M256.46212,184.89068c2.49146,-0.05444 4.56611,2.41373 4.63383,5.51286c0.06772,3.09912 -1.89707,5.6556 -4.38853,5.71007c-2.49146,0.05444 -4.56611,-2.41374 -4.63383,-5.51286c-0.06772,-3.09912 1.89711,-5.65558 4.38853,-5.71002z" data-paper-data="{&quot;index&quot;:null}" fill="#3d0a00" stroke="none" stroke-width="0" stroke-linecap="butt"/><path d="M282.24521,222.02741l-11.46762,6.13155l-0.80633,-2.92391l1.01711,-4.26885l-4.41913,-2.30115l-1.86423,-4.52661l3.42848,0.97348l1.75366,-3.7077l3.68475,0.70582l2.27184,-3.98111l3.14369,-0.0687z" fill="#df9431" stroke="#692206" stroke-width="0" stroke-linecap="round"/><path d="M215.67169,221.56396l-1.36504,3.83126l-2.32683,-0.43665l-0.35001,-7.92987" data-paper-data="{&quot;index&quot;:null}" fill="#df9431" stroke="#c5832b" stroke-width="0" stroke-linecap="round"/><g stroke-linecap="round"><path d="M267.70171,195.07944l7.69268,9.3197l-12.57369,7.72728l-6.6157,-10.05434" fill="#0256f6" stroke="#174752" stroke-width="0.5"/><path d="M268.73942,193.44824l8.12819,11.03961l-14.60189,7.94358l-7.68795,-11.48933" fill="#fcbc04" stroke="#956e23" stroke-width="0.5"/><path d="M275.61855,204.66907l-5.97662,2.95635l-7.68321,-11.04432l6.70319,-3.00734" fill="#ffdc3f" stroke="#956e23" stroke-width="0"/></g><g data-paper-data="{&quot;index&quot;:null}" stroke-linecap="round"><path d="M221.59272,199.54987l-3.48872,11.51895l-14.25022,-3.83923l4.72996,-11.12033" fill="#0256f6" stroke="#174752" stroke-width="0.5"/><path d="M222.83216,198.0044l-4.1094,13.19932l-16.25637,-3.47077l4.65921,-12.89311" fill="#fcbc04" stroke="#956e23" stroke-width="0.5"/><path d="M207.23555,194.93819l7.28119,0.98034l-4.23121,12.77128l-6.57005,-1.13775" fill="#ffdc3f" stroke="#956e23" stroke-width="0"/></g></g></g></svg>