<svg version="1.1" xmlns="http://www.w3.org/2000/svg" xmlns:xlink="http://www.w3.org/1999/xlink" width="92.087" height="133.38413" viewBox="0,0,92.087,133.38413"><defs><linearGradient x1="240.47624" y1="224.68256" x2="240.83162" y2="245.34612" gradientUnits="userSpaceOnUse" id="color-1"><stop offset="0" stop-color="#2c98c3"/><stop offset="1" stop-color="#1e86c6"/></linearGradient><linearGradient x1="273.55196" y1="205.81142" x2="273.7848" y2="219.34996" gradientUnits="userSpaceOnUse" id="color-2"><stop offset="0" stop-color="#f5ffff"/><stop offset="1" stop-color="#aaf0ff"/></linearGradient><radialGradient cx="240.07418" cy="225.80991" r="10.01606" gradientUnits="userSpaceOnUse" id="color-3"><stop offset="0" stop-color="#25a2d1"/><stop offset="1" stop-color="#2a9bd1"/></radialGradient><linearGradient x1="223.20238" y1="136.39255" x2="234.36889" y2="149.89829" gradientUnits="userSpaceOnUse" id="color-4"><stop offset="0" stop-color="#f7fbfe"/><stop offset="1" stop-color="#ebedee"/></linearGradient><linearGradient x1="256.85072" y1="137.99707" x2="248.28168" y2="149.34954" gradientUnits="userSpaceOnUse" id="color-5"><stop offset="0" stop-color="#f7fbfe"/><stop offset="1" stop-color="#ebedee"/></linearGradient><linearGradient x1="251.44759" y1="124.22066" x2="246.58755" y2="148.01893" gradientUnits="userSpaceOnUse" id="color-6"><stop offset="0" stop-color="#f7fbfe"/><stop offset="1" stop-color="#ebedee"/></linearGradient><linearGradient x1="229.92408" y1="124.10722" x2="242.28054" y2="154.82412" gradientUnits="userSpaceOnUse" id="color-7"><stop offset="0" stop-color="#f7fbfe"/><stop offset="1" stop-color="#ebedee"/></linearGradient><linearGradient x1="242.50184" y1="114.45031" x2="243.09399" y2="148.88092" gradientUnits="userSpaceOnUse" id="color-8"><stop offset="0" stop-color="#f7fbfe"/><stop offset="1" stop-color="#ebedee"/></linearGradient><linearGradient x1="239.42378" y1="182.01699" x2="240.06689" y2="219.40988" gradientUnits="userSpaceOnUse" id="color-9"><stop offset="0" stop-color="#2b98dd"/><stop offset="1" stop-color="#2790bc"/></linearGradient></defs><g transform="translate(-193.6847,-112.74787)"><g data-paper-data="{&quot;isPaintingLayer&quot;:true}" fill-rule="nonzero" stroke-linejoin="miter" stroke-miterlimit="10" stroke-dasharray="" stroke-dashoffset="0" style="mix-blend-mode: normal"><path d="M267.19851,217.67462c0,0 4.16426,-4.46244 4.75238,-5.9587c0.58812,-1.49626 -0.10104,-5.87522 -0.10104,-5.87522l7.92314,0.11925c0,0 1.1817,2.29458 -0.66088,6.14384c-1.84258,3.84931 -5.75221,7.25348 -5.75221,7.25348z" fill="none" stroke="#03b7ef" stroke-width="1" stroke-linecap="round"/><path d="M228.79251,225.84171l25.71032,-1.40038l4.23448,15.39524l-6.48383,5.03938l-6.90106,-3.30341l-0.60823,-11.4879l-6.98379,-0.15367l-0.34499,11.77808l-7.1892,3.81952l-7.50494,-6.5783z" fill="none" stroke="#03b7ef" stroke-width="1" stroke-linecap="round"/><path d="M230.45849,141.00882c2.32556,2.03394 5.46225,7.6571 5.46225,7.6571l-1.91026,1.26171c0,0 -5.12509,-2.42807 -7.41727,-5.08385c-2.29218,-2.65574 -3.88404,-8.05968 -3.88404,-8.05968c0,0 5.42377,2.19079 7.74932,4.22473z" fill="none" stroke="#3ba9b4" stroke-width="1.5" stroke-linecap="round"/><path d="M252.77347,136.83966c-1.07275,4.7406 -5.73187,10.98919 -5.73187,10.98919l-3.13199,-0.35686c0,0 0.18697,-8.95268 1.70069,-12.94355c1.51372,-3.99087 6.68838,-10.13398 6.68838,-10.13398c0,0 1.5475,7.70464 0.47479,12.4452z" data-paper-data="{&quot;index&quot;:null}" fill="none" stroke="#3ba9b4" stroke-width="1.5" stroke-linecap="round"/><path d="M228.82564,124.549c0,0 8.44584,6.96715 11.45488,11.94679c3.00904,4.97959 5.45659,16.93783 5.45659,16.93783l-4.11196,1.24705c0,0 -7.78048,-7.23502 -10.38219,-13.32811c-2.60171,-6.0931 -2.41731,-16.80351 -2.41731,-16.80351z" fill="none" stroke="#03b7ef" stroke-width="1.5" stroke-linecap="round"/><path d="M254.48185,218.59074l-2.88337,14.68387l-22.45544,1.08308l-1.67192,-16.17346l-10.33057,17.25102l-11.86727,-1.18965l-2.46483,-11.63016l13.70862,-13.30207l46.154,-0.79378l16.08572,13.48653l-2.41778,11.36573l-12.54596,-0.13267z" fill="none" stroke="#03b7ef" stroke-width="1.5" stroke-linecap="round"/><path d="M247.96006,130.33277c1.07321,5.95534 -0.99164,18.48153 -0.99164,18.48153l-4.45789,-0.31621c0,0 -4.87052,-9.91902 -5.13427,-16.80473c-0.26375,-6.88571 3.89435,-17.22191 3.89435,-17.22191c0,0 5.61632,9.90599 6.68944,15.86133z" fill="none" stroke="#03b7ef" stroke-width="1.5" stroke-linecap="round"/><path d="M241.25099,145.35208c10.7085,-1.12119 18.22452,1.58365 26.94851,11.79201c8.72404,10.20839 6.99224,27.5085 6.99224,27.5085c0,0 7.0438,-0.96961 8.78569,5.43675c1.74194,6.4064 -0.71581,13.18798 -4.06192,16.52293c-3.34607,3.33495 -10.86201,0.18681 -10.86201,0.18681l-1.56781,3.83052l-0.2393,3.98726l-3.53683,0.19184l0.04296,3.09943l-3.7212,-0.34087l-2.21394,2.11898l-1.66584,-1.45741c0,0 -9.46366,1.08935 -14.18925,1.16951c-4.72559,0.08012 -13.6257,-0.69765 -13.6257,-0.69765l-3.12279,1.78601l-2.3045,-2.31464l-4.02125,1.54739l-1.11922,-3.30235l-4.75206,2.67631l-0.89291,-8.68948l-1.37721,-1.92855c0,0 -7.15409,3.81619 -11.84695,-1.40109c-4.6929,-5.21732 -4.98902,-12.97608 -4.01236,-16.69453c0.97663,-3.71845 8.91177,-2.47485 8.91177,-2.47485c0,0 -2.82443,-19.79564 5.99947,-30.21542c8.8239,-10.41975 20.74379,-11.2163 31.45224,-12.33748z" fill="none" stroke="#3ba9b4" stroke-width="1.5" stroke-linecap="round"/><path d="M230.45858,141.00882c2.32552,2.03394 5.46221,7.65714 5.46221,7.65714l-1.91026,1.26166c0,0 -5.12513,-2.42807 -7.41732,-5.08385c-2.29218,-2.65574 -3.88404,-8.05968 -3.88404,-8.05968c0,0 5.42381,2.19079 7.74941,4.22473z" fill="none" stroke="#03b7ef" stroke-width="1.5" stroke-linecap="round"/><path d="M254.36975,145.00081c-1.76225,2.23502 -5.8002,4.36277 -5.8002,4.36277l-1.56534,-0.97828c0,0 2.35611,-4.68455 4.16239,-6.41214c1.80631,-1.72759 6.09011,-3.6696 6.09011,-3.6696c0,0 -1.12473,4.46219 -2.88695,6.69724z" data-paper-data="{&quot;index&quot;:null}" fill="none" stroke="#03b7ef" stroke-width="1.5" stroke-linecap="round"/><path d="M252.29863,124.39447c0,0 1.54758,7.70464 0.47484,12.4452c-1.07275,4.7406 -5.73187,10.98919 -5.73187,10.98919l-3.13203,-0.35686c0,0 0.18696,-8.95268 1.70069,-12.94351c1.51377,-3.99083 6.68838,-10.13402 6.68838,-10.13402z" data-paper-data="{&quot;index&quot;:null}" fill="none" stroke="#03b7ef" stroke-width="1.5" stroke-linecap="round"/><path d="M241.25095,145.35201c10.70846,-1.12118 18.22449,1.58365 26.94852,11.79204c8.72408,10.20839 6.99224,27.50851 6.99224,27.50851c0,0 7.04379,-0.9696 8.78569,5.43675c1.74194,6.4064 -0.71585,13.18803 -4.06196,16.52293c-3.34607,3.33495 -10.86201,0.18681 -10.86201,0.18681l-1.56781,3.83053l-0.2393,3.98726l-3.53683,0.19184l0.04296,3.09943l-3.7212,-0.34088l-2.21394,2.11898l-1.66584,-1.45741c0,0 -9.46366,1.08935 -14.18925,1.16951c-4.72559,0.08016 -13.62574,-0.69765 -13.62574,-0.69765l-3.12276,1.78601l-2.30445,-2.31464l-4.02125,1.54739l-1.11923,-3.30235l-4.7521,2.67631l-0.89291,-8.68947l-1.37721,-1.92856c0,0 -7.15405,3.81619 -11.84695,-1.40108c-4.6929,-5.21723 -4.98898,-12.97604 -4.01235,-16.69449c0.97666,-3.71845 8.91181,-2.47485 8.91181,-2.47485c0,0 -2.82447,-19.79564 5.99947,-30.21543c8.82394,-10.41979 20.74379,-11.2163 31.45224,-12.33748z" fill="none" stroke="#03b7ef" stroke-width="1.5" stroke-linecap="round"/><path d="M259.54266,181.7115c9.88914,0.53286 13.36627,5.9912 11.8945,15.83728c-2.20644,14.76057 -19.67465,17.19868 -19.67465,17.19868c0,0 -1.38644,2.94435 -3.04168,3.98091c-1.30443,0.81685 -13.50049,0.803 -15.37965,0.42821c-1.87921,-0.37479 -3.66771,-3.86551 -3.66771,-3.86551c0,0 -17.85907,0.1965 -21.7497,-17.79577c-1.76339,-8.1549 1.66905,-15.5791 11.85351,-15.09984c12.3308,0.58029 20.73125,15.6853 20.73125,15.6853c0,0 8.99447,-15.86912 19.03413,-16.3692z" fill="none" stroke="#3ba9b4" stroke-width="1.5" stroke-linecap="round"/><path d="M230.21343,195.19755c4.61614,4.89399 5.04736,11.98431 0.96314,15.83664c-4.08418,3.85233 -11.1372,3.00787 -15.75334,-1.88616c-4.61614,-4.89399 -5.04736,-11.9843 -0.96314,-15.83663c4.08418,-3.85233 11.1372,-3.00787 15.75334,1.88616z" fill="none" stroke="#3ba9b4" stroke-width="1.5" stroke-linecap="butt"/><path d="M265.38441,191.78082c4.21423,3.70961 4.02712,10.81052 -0.418,15.86039c-4.44513,5.04983 -11.46494,6.13631 -15.67917,2.42675c-4.21423,-3.70961 -4.02712,-10.81052 0.418,-15.86039c4.44513,-5.04983 11.46494,-6.13631 15.67917,-2.42675z" data-paper-data="{&quot;index&quot;:null}" fill="none" stroke="#3ba9b4" stroke-width="1.5" stroke-linecap="butt"/><path d="M229.97677,205.25696c0.27657,2.28833 -0.77229,4.29724 -2.34269,4.48705c-1.5704,0.18976 -3.06771,-1.51138 -3.34428,-3.79968c-0.27657,-2.28833 0.7723,-4.29725 2.3427,-4.48705c1.5704,-0.18976 3.0677,1.51139 3.34427,3.79972z" fill="none" stroke="#3ba9b4" stroke-width="1.5" stroke-linecap="butt"/><path d="M253.663,200.33762c1.576,0.13566 2.69335,2.10735 2.4956,4.40384c-0.19772,2.29649 -1.63564,4.04817 -3.21164,3.91243c-1.576,-0.13566 -2.69336,-2.10735 -2.4956,-4.40384c0.19772,-2.29649 1.63564,-4.04817 3.21164,-3.91248z" data-paper-data="{&quot;index&quot;:null}" fill="none" stroke="#3ba9b4" stroke-width="1.5" stroke-linecap="butt"/><path d="M222.67126,181.88605l11.68905,3.89127l-2.32799,7.40616l-10.21347,-3.75294z" fill="none" stroke="#3ba9b4" stroke-width="1.5" stroke-linecap="round"/><path d="M258.96317,188.628l-10.07839,4.10193l-2.58132,-7.32176l11.54833,-4.29092z" data-paper-data="{&quot;index&quot;:null}" fill="none" stroke="#3ba9b4" stroke-width="1.5" stroke-linecap="round"/><path d="M204.71893,190.53616c0,0 0.91659,5.86214 1.77609,8.49793c0.74364,2.28051 2.4646,6.46739 2.4646,6.46739c0,0 -1.0097,0.97318 -3.71619,0.3696c-1.84769,-0.41206 -6.92759,-9.44413 -4.77446,-12.78556c1.7689,-2.74517 4.24997,-2.54939 4.24997,-2.54939z" data-paper-data="{&quot;index&quot;:null}" fill="none" stroke="#3ba9b4" stroke-width="1.5" stroke-linecap="round"/><path d="M278.68028,190.64399c2.55827,3.04248 -1.33909,12.64426 -3.11983,13.28655c-2.60849,0.9409 -3.73311,0.10316 -3.73311,0.10316c0,0 1.17784,-4.3708 1.62724,-6.72703c0.51944,-2.72327 0.68755,-8.65429 0.68755,-8.65429c0,0 2.43644,-0.50783 4.53815,1.99165z" data-paper-data="{&quot;index&quot;:null}" fill="none" stroke="#3ba9b4" stroke-width="1.5" stroke-linecap="round"/><path d="M202.28586,223.0178l3.62424,0.58306l-1.61097,3.90003l3.22602,-0.05549l-0.33834,2.84553l3.87788,0.32054l0.16011,1.80437l8.886,-1.18545l-9.33816,12.42309c0,0 -6.3343,-3.07908 -9.65556,-6.0297c-3.32126,-2.95058 -5.0256,-7.01287 -5.0256,-7.01287z" fill="none" stroke="#03b7ef" stroke-width="1.5" stroke-linecap="round"/><path d="M269.94648,232.63151l-0.04638,-2.69655l3.97629,0.0736l0.07847,-3.69245l2.83362,-0.3327l0.19108,-5.39799l7.89684,9.27806c0,0 -1.87364,3.67851 -5.13645,6.76071c-3.26281,3.0822 -9.25227,6.83149 -9.25227,6.83149l-8.16985,-12.77837z" fill="none" stroke="#03b7ef" stroke-width="1.5" stroke-linecap="round"/><path d="M228.79251,225.84171l25.71036,-1.40038l4.23444,15.3952l-6.48383,5.03938l-6.90106,-3.30345l-0.60823,-11.48791l-6.98379,-0.15366l-0.34499,11.77808l-7.18924,3.81957l-7.50493,-6.5783z" fill="url(#color-1)" stroke="#000000" stroke-width="0" stroke-linecap="round"/><path d="M267.19843,217.67454c0,0 4.16425,-4.4624 4.75241,-5.95866c0.58812,-1.49626 -0.10104,-5.87518 -0.10104,-5.87518l7.92314,0.11925c0,0 1.1817,2.29458 -0.66089,6.14384c-1.84254,3.8493 -5.75217,7.25348 -5.75217,7.25348z" fill="url(#color-2)" stroke="#000000" stroke-width="0" stroke-linecap="round"/><path d="M222.70913,136.78414c0,0 5.42381,2.19074 7.74937,4.22468c2.32556,2.03394 5.46225,7.6571 5.46225,7.6571l-1.91026,1.26171c0,0 -5.12509,-2.42807 -7.41727,-5.08385c-2.29218,-2.65574 -3.88404,-8.05968 -3.88404,-8.05968z" fill="none" stroke="#c8faff" stroke-width="0.5" stroke-linecap="round"/><path d="M232.97178,242.22027l-0.55644,-8.47735" fill="none" stroke="#1c86b7" stroke-width="0.25" stroke-linecap="round"/><path d="M228.87589,242.83822l0.26225,-8.62829" fill="none" stroke="#1c86b7" stroke-width="0.25" stroke-linecap="round"/><path d="M249.67867,242.61736l-0.2851,-8.61888" fill="none" stroke="#1c86b7" stroke-width="0.25" stroke-linecap="round"/><path d="M253.78634,242.68359l-0.42432,-8.75336" fill="none" stroke="#1c86b7" stroke-width="0.25" stroke-linecap="round"/><path d="M254.36975,145.00077c-1.76225,2.23502 -5.8002,4.36277 -5.8002,4.36277l-1.56534,-0.97828c0,0 2.35611,-4.68455 4.16242,-6.41213c1.80627,-1.72759 6.0901,-3.6696 6.0901,-3.6696c0,0 -1.12473,4.46223 -2.88695,6.69725z" data-paper-data="{&quot;index&quot;:null}" fill="none" stroke="#c8faff" stroke-width="0.5" stroke-linecap="round"/><path d="M252.29863,124.39447c0,0 1.54754,7.70464 0.47484,12.4452c-1.07275,4.7406 -5.73187,10.98919 -5.73187,10.98919l-3.13199,-0.35686c0,0 0.18697,-8.95268 1.70069,-12.94355c1.51372,-3.99087 6.68838,-10.13398 6.68838,-10.13398z" data-paper-data="{&quot;index&quot;:null}" fill="none" stroke="#c8faff" stroke-width="0.5" stroke-linecap="round"/><path d="M228.82564,124.549c0,0 8.44584,6.96715 11.45488,11.94679c3.00904,4.97959 5.45659,16.93783 5.45659,16.93783l-4.11196,1.24705c0,0 -7.78048,-7.23502 -10.38219,-13.32811c-2.60171,-6.0931 -2.41731,-16.80351 -2.41731,-16.80351z" fill="none" stroke="#c8faff" stroke-width="0.5" stroke-linecap="round"/><path d="M254.48185,218.59074l-2.88337,14.68387l-22.45544,1.08308l-1.67192,-16.1735l-10.33057,17.25102l-11.86727,-1.18965l-2.46483,-11.63016l13.70862,-13.30207l46.154,-0.79378l16.08572,13.48653l-2.41778,11.36573l-12.54596,-0.13267z" fill="#f7fbfe" stroke="#c8faff" stroke-width="0.25" stroke-linecap="round"/><path d="M241.27054,114.47148c0,0 5.61636,9.90598 6.68948,15.86133c1.07321,5.95534 -0.99164,18.48153 -0.99164,18.48153l-4.45789,-0.31621c0,0 -4.87053,-9.91902 -5.13427,-16.80473c-0.26375,-6.88571 3.89435,-17.22191 3.89435,-17.22191z" fill="none" stroke="#c8faff" stroke-width="0.5" stroke-linecap="round"/><path d="M250.08876,225.63767c0.09512,5.53089 -3.98105,9.04069 -9.51198,9.13581c-5.53089,0.09512 -10.42205,-3.26041 -10.51718,-8.79134c-0.09512,-5.53089 4.31141,-10.09169 9.84234,-10.18681c5.53089,-0.09512 10.09169,4.31141 10.18681,9.84234z" fill="url(#color-3)" stroke="none" stroke-width="0" stroke-linecap="butt"/><path d="M241.25099,145.35208c10.7085,-1.12119 18.22452,1.58365 26.94851,11.79201c8.72404,10.20839 6.99224,27.5085 6.99224,27.5085c0,0 7.0438,-0.96961 8.78569,5.43675c1.74194,6.4064 -0.71581,13.18798 -4.06192,16.52293c-3.34607,3.33495 -10.86201,0.18681 -10.86201,0.18681l-1.56781,3.83052l-0.2393,3.98726l-3.53683,0.19184l0.04296,3.09943l-3.7212,-0.34087l-2.21394,2.11898l-1.66584,-1.45741c0,0 -9.46366,1.08935 -14.18925,1.16951c-4.72559,0.08012 -13.6257,-0.69765 -13.6257,-0.69765l-3.12279,1.78601l-2.3045,-2.31464l-4.02125,1.54739l-1.11922,-3.30235l-4.75206,2.67631l-0.89291,-8.68948l-1.37721,-1.92855c0,0 -7.15409,3.81619 -11.84695,-1.40109c-4.6929,-5.21732 -4.98902,-12.97608 -4.01236,-16.69453c0.97663,-3.71845 8.91177,-2.47485 8.91177,-2.47485c0,0 -2.82443,-19.79564 5.99947,-30.21542c8.8239,-10.41975 20.74379,-11.2163 31.45224,-12.33748z" fill="none" stroke="#c8faff" stroke-width="0.5" stroke-linecap="round"/><path d="M230.45858,141.00882c2.32552,2.03394 5.46221,7.65714 5.46221,7.65714l-1.91026,1.26166c0,0 -5.12513,-2.42807 -7.41732,-5.08385c-2.29218,-2.65574 -3.88404,-8.05968 -3.88404,-8.05968c0,0 5.42381,2.19079 7.74941,4.22473z" fill="url(#color-4)" stroke="#c8faff" stroke-width="0" stroke-linecap="round"/><path d="M257.2567,138.30353c0,0 -1.12473,4.46223 -2.88695,6.69728c-1.76225,2.23502 -5.8002,4.36277 -5.8002,4.36277l-1.56534,-0.97828c0,0 2.35611,-4.68455 4.16239,-6.41214c1.80631,-1.72759 6.09011,-3.6696 6.09011,-3.6696z" data-paper-data="{&quot;index&quot;:null}" fill="url(#color-5)" stroke="#c8faff" stroke-width="0" stroke-linecap="round"/><path d="M252.29863,124.39447c0,0 1.54758,7.70464 0.47484,12.4452c-1.07275,4.7406 -5.73187,10.98919 -5.73187,10.98919l-3.13203,-0.35686c0,0 0.18696,-8.95268 1.70069,-12.94351c1.51377,-3.99083 6.68838,-10.13402 6.68838,-10.13402z" data-paper-data="{&quot;index&quot;:null}" fill="url(#color-6)" stroke="#c8faff" stroke-width="0" stroke-linecap="round"/><path d="M228.82564,124.54912c0,0 8.44579,6.96712 11.45483,11.94675c3.00904,4.97959 5.45659,16.93783 5.45659,16.93783l-4.11196,1.24705c0,0 -7.78044,-7.23503 -10.38215,-13.32816c-2.60171,-6.09313 -2.41731,-16.80351 -2.41731,-16.80351z" fill="url(#color-7)" stroke="#c8faff" stroke-width="0" stroke-linecap="round"/><path d="M247.96014,130.33277c1.07316,5.95534 -0.99167,18.48153 -0.99167,18.48153l-4.45789,-0.31621c0,0 -4.87052,-9.91902 -5.13431,-16.80473c-0.26379,-6.88571 3.89431,-17.22187 3.89431,-17.22187c0,0 5.6164,9.90595 6.68956,15.86129z" fill="url(#color-8)" stroke="#c8faff" stroke-width="0" stroke-linecap="round"/><path d="M241.25095,145.35201c10.70846,-1.12118 18.22449,1.58365 26.94852,11.79204c8.72408,10.20839 6.99224,27.50851 6.99224,27.50851c0,0 7.04379,-0.9696 8.78569,5.43675c1.74194,6.4064 -0.71585,13.18803 -4.06196,16.52293c-3.34607,3.33495 -10.86201,0.18681 -10.86201,0.18681l-1.56781,3.83053l-0.2393,3.98726l-3.53683,0.19184l0.04296,3.09943l-3.7212,-0.34088l-2.21394,2.11898l-1.66584,-1.45741c0,0 -9.46366,1.08935 -14.18925,1.16951c-4.72559,0.08016 -13.62574,-0.69765 -13.62574,-0.69765l-3.12276,1.78601l-2.30445,-2.31464l-4.02125,1.54739l-1.11923,-3.30235l-4.7521,2.67631l-0.89291,-8.68947l-1.37721,-1.92856c0,0 -7.15405,3.81619 -11.84695,-1.40108c-4.6929,-5.21723 -4.98898,-12.97604 -4.01235,-16.69449c0.97666,-3.71845 8.91181,-2.47485 8.91181,-2.47485c0,0 -2.82447,-19.79564 5.99947,-30.21543c8.82394,-10.41979 20.74379,-11.2163 31.45224,-12.33748z" fill="#f7fbfe" stroke="#c8faff" stroke-width="0" stroke-linecap="round"/><path d="M259.54266,181.7115c9.88914,0.53286 13.36627,5.9912 11.8945,15.83728c-2.20644,14.76057 -19.67465,17.19868 -19.67465,17.19868c0,0 -1.38644,2.94435 -3.04168,3.98091c-1.30443,0.81685 -13.50049,0.803 -15.37965,0.42821c-1.87921,-0.37479 -3.66771,-3.86551 -3.66771,-3.86551c0,0 -17.85907,0.1965 -21.7497,-17.79577c-1.76339,-8.1549 1.66905,-15.5791 11.85351,-15.09984c12.3308,0.58029 20.73125,15.6853 20.73125,15.6853c0,0 8.99447,-15.86912 19.03413,-16.3692z" fill="url(#color-9)" stroke="#347db1" stroke-width="0.25" stroke-linecap="round"/><path d="M230.21343,195.19755c4.61614,4.89399 5.04736,11.98431 0.96314,15.83664c-4.08418,3.85233 -11.1372,3.00787 -15.75334,-1.88616c-4.61614,-4.89399 -5.04736,-11.9843 -0.96314,-15.83663c4.08418,-3.85233 11.1372,-3.00787 15.75334,1.88616z" fill="#fafaf9" stroke="#549bb6" stroke-width="0.25" stroke-linecap="butt"/><path d="M265.38441,191.78082c4.21423,3.70961 4.02712,10.81052 -0.418,15.86039c-4.44513,5.04983 -11.46494,6.13631 -15.67917,2.42675c-4.21423,-3.70961 -4.02712,-10.81052 0.418,-15.86039c4.44513,-5.04983 11.46494,-6.13631 15.67917,-2.42675z" data-paper-data="{&quot;index&quot;:null}" fill="#fafaf9" stroke="#549bb6" stroke-width="0.25" stroke-linecap="butt"/><path d="M229.97677,205.25696c0.27657,2.28833 -0.77229,4.29724 -2.34269,4.48705c-1.5704,0.18976 -3.06771,-1.51138 -3.34428,-3.79968c-0.27657,-2.28833 0.7723,-4.29725 2.3427,-4.48705c1.5704,-0.18976 3.0677,1.51139 3.34427,3.79972z" fill="#459ece" stroke="none" stroke-width="0" stroke-linecap="butt"/><path d="M253.663,200.33762c1.576,0.13566 2.69335,2.10735 2.4956,4.40384c-0.19772,2.29649 -1.63564,4.04817 -3.21164,3.91243c-1.576,-0.13566 -2.69336,-2.10735 -2.4956,-4.40384c0.19772,-2.29649 1.63564,-4.04817 3.21164,-3.91248z" data-paper-data="{&quot;index&quot;:null}" fill="#459ece" stroke="none" stroke-width="0" stroke-linecap="butt"/><path d="M222.67126,181.88605l11.68905,3.89127l-2.32799,7.40616l-10.21347,-3.75294z" fill="#33c1f4" stroke="#000000" stroke-width="0" stroke-linecap="round"/><path d="M258.96317,188.628l-10.07839,4.10193l-2.58132,-7.32176l11.54833,-4.29092z" data-paper-data="{&quot;index&quot;:null}" fill="#33c1f4" stroke="#000000" stroke-width="0" stroke-linecap="round"/><path d="M204.71893,190.53616c0,0 0.91659,5.86214 1.77609,8.49793c0.74364,2.28051 2.4646,6.46739 2.4646,6.46739c0,0 -1.0097,0.97318 -3.71619,0.3696c-1.84769,-0.41206 -6.92759,-9.44413 -4.77446,-12.78556c1.7689,-2.74517 4.24997,-2.54939 4.24997,-2.54939z" data-paper-data="{&quot;index&quot;:null}" fill="#1f69a9" stroke="#000000" stroke-width="0" stroke-linecap="round"/><path d="M278.68028,190.64399c2.55827,3.04248 -1.33909,12.64426 -3.11983,13.28655c-2.60849,0.9409 -3.73311,0.10316 -3.73311,0.10316c0,0 1.17784,-4.3708 1.62724,-6.72703c0.51944,-2.72327 0.68755,-8.65429 0.68755,-8.65429c0,0 2.43644,-0.50783 4.53815,1.99165z" data-paper-data="{&quot;index&quot;:null}" fill="#1f69a9" stroke="#000000" stroke-width="0" stroke-linecap="round"/><path d="M201.89306,222.32768l3.86728,0.62216l-1.71898,4.16161l3.44236,-0.05921l-0.36098,3.03638l4.13793,0.34204l0.17085,1.92539l9.48199,-1.26496l-9.96443,13.25623c0,0 -6.7591,-3.28561 -10.30308,-6.43407c-3.54403,-3.14846 -5.36262,-7.48323 -5.36262,-7.48323z" fill="#2e99ce" stroke="#000000" stroke-width="0" stroke-linecap="round"/><path d="M269.72108,232.66878l-0.04922,-2.86169l4.21984,0.0781l0.08328,-3.91857l3.00711,-0.35304l0.20279,-5.72858l8.38042,9.84625c0,0 -1.98837,3.90375 -5.45101,7.17475c-3.46264,3.27095 -9.81886,7.24987 -9.81886,7.24987l-8.67017,-13.56092z" fill="#2e99ce" stroke="#000000" stroke-width="0" stroke-linecap="round"/></g></g></svg>