<svg version="1.1" xmlns="http://www.w3.org/2000/svg" xmlns:xlink="http://www.w3.org/1999/xlink" width="165.18205" height="228.97857" viewBox="0,0,165.18205,228.97857"><defs><linearGradient x1="240.00024" y1="110.02637" x2="240.00024" y2="249.97378" gradientUnits="userSpaceOnUse" id="color-1"><stop offset="0" stop-color="#6bdb2b"/><stop offset="1" stop-color="#3dd214"/></linearGradient><radialGradient cx="176.33108" cy="120.20183" r="24.51573" gradientUnits="userSpaceOnUse" id="color-2"><stop offset="0" stop-color="#ffffff"/><stop offset="1" stop-color="#ffffff" stop-opacity="0"/></radialGradient></defs><g transform="translate(-157.40902,-34.28572)"><g data-paper-data="{&quot;isPaintingLayer&quot;:true}" fill-rule="nonzero" stroke-linecap="butt" stroke-linejoin="miter" stroke-miterlimit="10" stroke-dasharray="" stroke-dashoffset="0" style="mix-blend-mode: normal"><path d="M182.95922,87.21859v-41.43401h115.46277v41.43401z" fill="#64da28" stroke="none" stroke-width="0"/><path d="M162.40902,126.88287c0,-12.1149 18.14024,-25.14706 23.68488,-25.14706c16.70051,0 80.646,0.48508 110.49348,0.48508c6.46679,0 21.00369,14.82895 21.00369,28.74214c0,16.99586 0,70.92877 0,100.17092c0,17.08879 -8.43931,24.70468 -14.80053,24.70468c-16.76187,0 -85.45627,2.42566 -117.94506,2.42566c-9.03883,0 -22.43639,-14.29882 -22.43639,-32.42011c0,-18.1213 -0.00007,-82.50126 -0.00007,-98.96132z" data-paper-data="{&quot;index&quot;:null}" fill="none" stroke="#ffffff" stroke-width="10"/><path d="M162.92154,127.23356c0,-12.03481 18.02046,-24.98096 23.52839,-24.98096c16.59015,0 80.11331,0.4819 109.76351,0.4819c6.42405,0 20.86493,14.73093 20.86493,28.55225c0,16.88364 0,70.46013 0,99.50915c0,16.97587 -8.38349,24.54144 -14.70276,24.54144c-16.65114,0 -84.89174,2.40958 -117.16579,2.40958c-8.97906,0 -22.28828,-14.20434 -22.28828,-32.20596c0,-18.00155 0,-81.95616 0,-98.30746z" data-paper-data="{&quot;index&quot;:null}" fill="#48d41a" stroke="#3bbf1d" stroke-width="0.5"/><path d="M170.62835,132.50955c0,-10.83156 16.21871,-22.48327 21.17591,-22.48327c14.93138,0 72.10328,0.43377 98.78891,0.43377c5.78169,0 18.77873,13.2581 18.77873,25.69746c0,15.19557 0,63.41532 0,89.55985c0,15.27853 -7.54532,22.08769 -13.23276,22.08769c-14.98631,0 -76.40399,2.1687 -105.45114,2.1687c-8.0814,0 -20.05987,-12.7842 -20.05987,-28.98594c0,-16.20167 0,-73.76191 0,-88.47834z" data-paper-data="{&quot;index&quot;:null}" fill="url(#color-1)" stroke="#085001" stroke-width="0"/><path d="M165.63939,129.09429c0,-11.61046 17.38505,-24.1002 22.69881,-24.1002c16.00519,0 77.28865,0.46494 105.89336,0.46494c6.19752,0 20.12922,14.21151 20.12922,27.54555c0,16.28837 0,67.97581 0,96.00057c0,16.3773 -8.08791,23.67614 -14.18438,23.67614c-16.06401,0 -81.89854,2.3246 -113.03465,2.3246c-8.66248,0 -21.50243,-13.70353 -21.50243,-31.07042c0,-17.36681 0,-79.06648 0,-94.84126z" data-paper-data="{&quot;index&quot;:null}" fill="none" stroke="#42d317" stroke-width="0.5"/><path d="M210.34738,112.08089c0,0 -7.51004,-0.26509 -15.74705,1.52941c-5.66002,1.23308 -11.66322,3.18639 -15.80893,7.88006c-4.32216,4.89345 -4.35893,11.83303 -5.16653,18.78471c-1.10939,9.54975 -1.97768,18.69436 -1.97768,18.69436c0,0 -1.09885,-9.67344 -0.57637,-20.43908c0.32772,-6.75251 -0.15612,-13.6421 5.17819,-19.75434c4.90959,-5.62549 11.66494,-7.27335 17.05262,-8.31107c9.38713,-1.80802 17.04582,1.61595 17.04582,1.61595z" data-paper-data="{&quot;index&quot;:null}" fill="url(#color-2)" stroke="#dbffff" stroke-width="0"/><path d="M213.06464,236.14911l-32.62987,-17.43319l53.50376,-105.73362l26.12987,19.43319z" data-paper-data="{&quot;index&quot;:null}" fill="#fefffd" stroke="none" stroke-width="0"/><path d="M222.75157,176.48236c0,11.04569 -8.39466,20 -18.75,20c-10.35534,0 -18.75,-8.95431 -18.75,-20c0,-11.04569 8.39466,-20 18.75,-20c10.35534,0 18.75,8.95431 18.75,20z" data-paper-data="{&quot;index&quot;:null}" fill="#fefffd" stroke="none" stroke-width="0"/><path d="M263.75157,209.81568c-2,1.5 -3.5,-0.5 -3.5,-0.5l-1.26777,-1.73223c-0.57741,-0.42259 -1.15482,-0.84518 -1.73223,-1.26777c0,0 -2,-1.5 -0.5,-3.5c1.5,-2 3.5,-0.5 3.5,-0.5c0.75592,0.57741 1.51184,1.15482 2.26777,1.73223l1.73223,2.26777c0,0 1.5,2 -0.5,3.5z" data-paper-data="{&quot;index&quot;:null}" fill="#fefffd" stroke="none" stroke-width="0.5"/><path d="M281.25157,213.31568c0,2.5 -2.5,2.5 -2.5,2.5l-1.99029,-0.04855c-1.85427,-0.37813 -3.6786,-0.93373 -5.43819,-1.63026c0,0 -2.32119,-0.92848 -1.39272,-3.24967c0.92848,-2.32119 3.24967,-1.39272 3.24967,-1.39272c1.4716,0.59591 3.00358,1.0654 4.56181,1.36974l1.00971,-0.04855c0,0 2.5,0 2.5,2.5z" data-paper-data="{&quot;index&quot;:null}" fill="#fefffd" stroke="none" stroke-width="0.5"/><path d="M292.90461,202.4568c0.23528,-0.72339 0.83226,-1.64109 2.34695,-1.64109c2.5,0 2.5,2.5 2.5,2.5l-1,2.5c-2.18839,1.64087 -4.31198,3.35857 -6.5,5c0,0 -2,1.5 -3.5,-0.5c-1.5,-2 0.5,-3.5 0.5,-3.5c1.90504,-1.42841 3.76097,-2.91505 5.65305,-4.35891z" data-paper-data="{&quot;index&quot;:null}" fill="#fefffd" stroke="none" stroke-width="0.5"/><path d="M291.37987,171.02513c0.79057,-2.37171 3.16228,-1.58114 3.16228,-1.58114l2.4772,1.10394c1.47879,1.49657 2.78303,3.18375 3.87597,4.98153c0,0 1.28624,2.14373 -0.85749,3.42997c-2.14373,1.28624 -3.42997,-0.85749 -3.42997,-0.85749c-0.86246,-1.4611 -1.91545,-2.8277 -3.12403,-4.01847l-0.5228,0.10394c0,0 -2.37171,-0.79057 -1.58114,-3.16228z" data-paper-data="{&quot;index&quot;:null}" fill="#fefffd" stroke="none" stroke-width="0.5"/><path d="M276.25157,169.31568c0,-2.5 2.5,-2.5 2.5,-2.5l1.99029,0.04855c1.85427,0.37813 3.6786,0.93373 5.43819,1.63026c0,0 2.32119,0.92848 1.39272,3.24967c-0.92848,2.32119 -3.24967,1.39272 -3.24967,1.39272c-1.4716,-0.59591 -3.00358,-1.0654 -4.56181,-1.36974l-1.00971,0.04855c0,0 -2.5,0 -2.5,-2.5z" data-paper-data="{&quot;index&quot;:null}" fill="#fefffd" stroke="none" stroke-width="0.5"/><path d="M274.6769,169.70936c0.60634,2.42536 -1.81902,3.0317 -1.81902,3.0317l-2.11605,0.5261c-0.83333,0.16667 -1.66667,0.33333 -2.5,0.5c0,0 -2.45145,0.49029 -2.94174,-1.96116c-0.49029,-2.45145 1.96116,-2.94174 1.96116,-2.94174c0.83333,-0.16667 1.66667,-0.33333 2.5,-0.5l1.88395,-0.4739c0,0 2.42536,-0.60634 3.0317,1.81902z" data-paper-data="{&quot;index&quot;:null}" fill="#fefffd" stroke="none" stroke-width="0.5"/><path d="M233.75764,214.88917l-11.32288,-6.04949l18.56632,-36.69057l9.06732,6.7435z" data-paper-data="{&quot;index&quot;:null}" fill="#fefffd" stroke="none" stroke-width="0"/><path d="M309.16378,207.46507c0.34697,0.07302 0.71269,0.2749 1.05479,0.69856c1.18122,1.4628 -0.28158,2.64401 -0.28158,2.64401l-0.89493,0.67574c-0.69639,0.34671 -1.33752,0.83965 -2.08917,1.04014c-1.15368,0.30773 -2.46268,-0.33956 -3.58118,0.07832c-1.33241,0.4978 -2.80384,2.55745 -4.01508,3.35446c-2.96562,1.95141 -5.74324,4.01929 -8.92373,5.66756c-3.94773,1.2234 -7.17553,2.9593 -11.41863,3.00904c-12.42024,0.14559 -22.66679,-10.83593 -27.97222,-21.02015c-1.02011,-2.73041 -2.53822,-5.34062 -3.05014,-8.25056c-1.63949,-9.31929 1.09037,-19.10087 8.32924,-26.0334c2.83613,-2.71611 4.82819,-6.89401 8.2245,-8.80709c0.25781,-0.10963 5.17735,-2.20818 5.37002,-2.2625c1.56745,-0.44191 3.25679,-0.22055 4.88354,-0.14394c5.85226,0.2756 11.36539,0.25685 16.95791,2.41416c2.74809,1.06007 5.57295,3.34868 7.59633,5.45919c0.51351,0.53562 0.99472,1.10969 1.39636,1.73359c0.12312,0.19126 -0.0652,0.74421 0.1484,0.66604c0.30297,-0.11088 0.16474,-0.67274 0.41756,-0.87317c0.59413,-0.47103 1.26854,-0.9221 2.01494,-1.05532c0.05699,-0.01017 0.11406,-0.01953 0.1712,-0.02813l-0.00924,-0.03l1.89343,-0.58321c0.72307,-0.24118 1.55109,-0.02514 2.05811,0.60276c0.50703,0.62789 0.54384,1.48284 0.15579,2.1389l-0.78425,1.3988c0.1945,4.81489 2.26642,9.50879 3.49631,14.1302c-0.02657,1.73272 0.89076,3.76247 -0.07971,5.19816c-0.53427,0.79039 -4.6563,0.22033 -5.76868,0.09933c-2.25359,-0.24513 -4.41639,0.32001 -6.64655,0.09374c-1.74647,-0.17719 -3.46121,-0.60942 -5.20857,-0.77757c-1.54791,-0.14896 -0.33786,-1.37133 -1.64154,-2.21906c-4.45794,-2.89881 -2.98275,-4.13424 -0.75741,-5.65842c1.13836,-0.77968 3.38882,-1.12113 3.30054,-2.49807c-0.01809,-0.28219 -0.57696,0.13782 -0.84667,0.05287c-0.79388,-0.25004 -1.52476,-0.66915 -2.27226,-1.03521c-4.32142,-2.11628 -8.81162,-2.93665 -13.57269,-3.50881c-3.23382,1.0698 -6.34412,3.53035 -8.20333,6.42159c-0.70596,1.09783 -1.71546,4.50018 -2.03577,5.32011c-1.07389,2.74897 -13.98727,9.58024 -14.01476,12.39374c-0.02885,2.95257 12.89262,1.88556 14.52488,4.68334c2.3566,4.03933 8.86208,5.72854 13.06857,6.83452c5.51434,-0.00961 9.25192,-3.86761 13.29674,-7.12197c1.45626,-1.17167 3.77516,-4.60438 5.82503,-4.47926c1.02226,0.0624 1.54146,1.349 2.32139,2.01279c2.83403,2.41199 5.21723,4.74116 7.5625,7.5642z" data-paper-data="{&quot;index&quot;:null}" fill="#fefffd" stroke="#000000" stroke-width="0"/><path d="M241.43055,212.55583l-6.99578,-3.73764l11.4711,-22.66908l-0.39781,12.49977z" data-paper-data="{&quot;index&quot;:null}" fill="#fefffd" stroke="none" stroke-width="0"/><path d="M295.58642,221.22412c-0.3023,0 -0.55238,-0.05221 -0.75926,-0.13861c-0.22731,0.18869 -0.4538,0.37742 -0.67955,0.56589c-1.7591,1.44128 -3.77265,2.48489 -5.93948,3.18122c-0.089,0.09916 -0.19538,0.19675 -0.32171,0.29151c-0.66825,0.50118 -1.25675,0.44418 -1.68939,0.24767c-5.03823,1.09768 -10.69083,0.53153 -15.82247,-1.1327c-0.14253,-0.00448 -0.29645,-0.02569 -0.46257,-0.06722c-0.31273,-0.07818 -0.55345,-0.19957 -0.73809,-0.34558c-2.87097,-1.04386 -5.54414,-2.42924 -7.80997,-4.05173c-0.25229,-0.07593 -0.4625,-0.20021 -0.60747,-0.3033c-0.2007,-0.04828 -0.4149,-0.14047 -0.64076,-0.29105c-0.49777,-0.33184 -0.71193,-0.72041 -0.77822,-1.08813l-0.04762,-0.04763c-2.34481,-2.34482 -5.05107,-3.83879 -6.42531,-6.84354c-0.28813,-0.08204 -0.58757,-0.26453 -0.87251,-0.60646c-0.54164,-0.64996 -0.50718,-1.24755 -0.32707,-1.69148c-1.1291,-2.2055 -2.14216,-4.61101 -2.97726,-7.1256c-0.0193,-0.02659 -0.03843,-0.05409 -0.05738,-0.08252c-0.27965,-0.41949 -0.3579,-0.79869 -0.32756,-1.126c-2.19689,-7.20253 -2.89175,-15.16154 -0.68391,-21.82052c1.12147,-3.38241 3.34704,-6.14066 5.30508,-9.0508c4.52291,-4.55662 9.66437,-8.75461 15.75614,-11.03546c7.63862,-2.86003 18.27001,-2.09144 25.24525,1.89294c1.96107,1.2255 3.85402,2.36389 5.541,3.96799c0.47563,0.45226 0.9455,1.95587 1.34667,1.43643c1.32065,-1.71003 2.23782,-5.0174 5.66645,-3.12071c1.17228,0.64849 1.72318,5.01731 2.00937,6.35332c1.48948,6.95344 2.80145,14.27716 3.26844,21.35985c-7.24163,-0.02648 -14.16129,-0.81689 -21.26682,-2.01854c-2.19729,-0.3716 -6.38227,0.53377 -7.19765,-2.74404c-0.36734,-1.47671 3.59899,-4.47478 4.60488,-5.31886c0.52439,-0.44003 1.00835,-0.93247 1.56986,-1.32403c0.16195,-0.11293 0.60897,0.02624 0.56829,-0.16696c-0.01554,-0.07382 -3.13718,-1.43517 -3.34475,-1.52356c-4.48569,-1.28334 -13.88515,-1.6065 -16.67168,3.01554c-1.2855,2.13226 -1.53204,4.73582 -2.70334,6.91911c-1.53836,2.86748 -2.31515,5.85471 -1.38986,9.08023c2.0926,4.91449 5.77072,8.09391 10.04728,9.29452c1.70642,-0.50645 4.08635,-0.28191 5.9319,0.41177c2.23912,-0.28881 4.5165,-1.06928 6.71927,-2.36929c3.00234,-1.7719 4.75011,-4.50583 8.0455,-6.14207c0.96861,-0.19434 1.9268,-0.71514 2.90584,-0.58303c0.30449,0.04109 3.38962,2.0246 3.81081,2.37098c0.9771,0.80356 1.62722,1.94726 2.56018,2.80166c1.80286,1.65106 5.11023,2.71014 5.92944,5.3408c0.33846,1.08689 0.66405,2.41352 0.1192,3.41304c-0.43347,0.79518 -4.98499,2.21142 -6.02895,2.65635c-3.1266,1.33255 -5.96035,3.28631 -8.6413,5.39321l0.01108,0.4154c0,0 0,1.75 -1.75,1.75zM283.68753,219.81036c-0.76828,-2.75319 -0.15626,-7.63059 -2.13041,-9.89212c-0.04577,-0.05242 -0.10396,-0.10362 -0.17294,-0.15335c-1.67419,0.13539 -3.31866,0.03721 -4.9044,-0.27777c-0.51155,0.67384 -0.43822,1.811 -0.76938,2.63909c-1.17146,2.92929 -2.35458,6.02714 -3.23254,9.10737c3.88696,1.14076 8.06496,1.60281 11.84904,1.01154c-0.05359,-0.83739 -0.29537,-1.67324 -0.63936,-2.43477zM272.46245,210.82204c0.23808,-0.59509 0.51619,-1.45045 0.86662,-2.27549c-0.53285,-0.21518 -1.05568,-0.45655 -1.5672,-0.72333l-0.06695,0.09027c-1.70571,3.88831 -5.32063,6.10226 -7.98404,9.23496c1.5992,1.10574 3.45886,2.10189 5.46596,2.92667c0.91226,-3.13106 2.0913,-6.2679 3.2856,-9.25308zM286.98528,218.63789c0.35784,0.87087 0.6103,1.7973 0.74346,2.73638c1.53024,-0.56592 2.94252,-1.35912 4.1782,-2.41164c0.54559,-0.45377 1.09502,-0.90781 1.64945,-1.35873c-1.85344,-3.23199 -2.85441,-6.94392 -3.69432,-10.59717c-0.50257,0.32308 -1.03178,0.62228 -1.5985,0.88786c-1.03156,0.48341 -2.06658,0.87264 -3.09861,1.17142c1.41904,2.86321 0.95529,6.64582 1.82033,9.57189zM304.5879,210.44849c1.43941,-0.62004 2.89479,-1.69887 4.47106,-1.34365c0.56343,0.12697 -0.92529,-0.69984 -1.32394,-1.11776c-0.72004,-0.75484 -1.56202,-1.39308 -2.42849,-1.974c-2.01378,-1.35011 -4.84915,-6.04532 -7.42212,-5.06479c-1.9352,0.97645 -3.43631,2.34192 -4.97071,3.67753c0.84256,3.72648 1.8383,7.3438 3.43225,10.78757c2.57481,-1.93452 5.28788,-3.69242 8.24195,-4.96491zM268.4779,206.53477l0.37816,-0.59781c-0.96164,-0.76054 -1.86267,-1.62493 -2.69114,-2.58627c-3.36455,2.16504 -6.96377,3.92183 -10.1844,6.27851c0.92884,2.25256 3.22284,3.63821 5.10664,5.30577c2.5561,-2.77308 5.96738,-4.97442 7.39074,-8.4002zM262.62838,197.64324c-0.32776,-1.1507 -0.52097,-2.31024 -0.58363,-3.47018c-2.9586,2.75033 -6.40862,4.98276 -9.781,7.20768c0.62547,1.77883 1.34086,3.4929 2.11513,5.102c3.11546,-2.18813 6.51226,-3.90562 9.72788,-5.96861c-0.54768,-0.9006 -1.04248,-1.85873 -1.47837,-2.87089zM261.35532,190.02501l1.13305,-0.50466c0.17156,-0.70068 0.38993,-1.39729 0.65417,-2.08792c0.43487,-1.13656 1.33341,-2.06322 1.73586,-3.21166c1.17989,-3.36697 2.1597,-7.09284 5.58067,-8.9607c4.83359,-2.63916 12.28726,-2.56248 17.40445,-1.10195c1.67278,0.72039 5.46056,2.2005 5.65525,4.47645c0.21085,2.46477 -3.32313,4.36235 -4.81139,5.71468c-0.13216,0.12009 -0.29996,0.28063 -0.48208,0.44446c0.14909,0.00323 0.28653,0.00969 0.39876,0.01599c2.82177,0.15812 5.48404,1.03475 8.23198,1.52847c2.84139,0.51051 5.77346,0.12546 8.64164,0.48278c1.00696,0.12545 2.08595,-0.08428 2.8565,0.18249c-1.13013,-1.69526 -1.04506,-3.80361 -1.31296,-5.97602c-0.38598,-3.12991 -1.11206,-6.28784 -1.73129,-9.38399c-0.19297,-0.96483 -1.18276,-3.62331 -1.02641,-5.09686c-0.1264,0.22266 -0.25885,0.43518 -0.354,0.55746c-0.54369,0.69869 -0.85451,1.75194 -1.68793,2.05057c-1.02272,0.36646 -2.23838,0.12151 -3.24692,-0.28234c-0.80737,-0.3233 -1.25985,-1.19958 -1.90641,-1.78123c-1.56083,-1.40413 -3.18297,-2.42182 -4.95901,-3.53201c-12.69435,-7.25682 -27.04338,-1.01547 -36.4986,8.35747c-1.69794,2.57469 -3.69793,4.97809 -4.69492,7.94921c-1.83846,5.47873 -1.38994,11.962 0.24412,18.02445c3.57027,-2.39517 7.0733,-4.85312 10.17549,-7.86514z" data-paper-data="{&quot;index&quot;:null}" fill="#060606" stroke="none" stroke-width="0.5"/><path d="M290.49836,205.42607c0.757,2.64199 1.50954,5.23996 2.05031,7.93662c0.62626,2.82489 2.81356,7.8804 1.96264,10.61856c-0.57356,1.84567 -2.96059,4.24285 -5.28228,3.26847c-0.69877,-0.29326 -1.33898,-4.1977 -1.57913,-5.05846c-1.67272,-5.99558 -3.3043,-12.26524 -4.52952,-18.37393c0,0 -0.34321,-1.71601 1.37281,-2.05922c1.71602,-0.34321 2.05922,1.37282 2.05922,1.37282c0.00002,0.00007 0.00002,0.00014 0.00004,0.0002c0.29777,-0.54067 0.87307,-0.907 1.53394,-0.907c0.76462,0 1.4147,0.49038 1.65292,1.17379l0.73566,1.96175l-0.0202,0.00758z" data-paper-data="{&quot;index&quot;:null}" fill="#45d318" stroke="none" stroke-width="0.5"/><path d="M270.3008,219.5042c-0.63892,1.49083 -1.99869,5.21304 -3.43815,5.98352c-3.06057,1.63818 -6.66133,-1.36587 -6.35743,-4.5335c0.20459,-2.13237 3.8092,-5.42625 5.19504,-6.91913c3.60247,-3.88068 7.2819,-8.74162 10.35998,-13.07813c0,0 1.01716,-1.42403 2.4412,-0.40687c1.42404,1.01717 0.40687,2.4412 0.40687,2.4412c-0.4112,0.57253 -0.83295,1.13804 -1.2622,1.69859c0.2126,0.28974 0.33817,0.64732 0.33817,1.03424c0,0.32701 -0.08969,0.63308 -0.24582,0.89493l-0.94771,1.65848c-1.69281,3.92659 -4.35633,7.5057 -6.48995,11.22666z" data-paper-data="{&quot;index&quot;:null}" fill="#46d418" stroke="none" stroke-width="0.5"/><path d="M246.27819,210.27772c-0.97072,-1.45609 0.48536,-2.42682 0.48536,-2.42682l0.75,-0.5c0.30587,-0.20392 0.61243,-0.4066 0.91958,-0.60822c-0.47493,0.12097 -1.53253,0.22828 -2.05736,-0.99633c-0.68936,-1.60851 0.91914,-2.29787 0.91914,-2.29787c4.73257,-2.02597 9.57137,-4.3916 13.5582,-7.72678c1.06928,-0.8945 3.78715,-3.89844 5.32092,-3.66368c4.10287,0.62798 4.19236,2.79266 2.4235,5.59624c-2.08274,3.30104 -7.92147,4.87042 -10.83697,7.3202c-2.78313,1.74556 -5.57236,3.46648 -8.30556,5.28861l-0.75,0.5c0,0 -1.45609,0.97072 -2.42681,-0.48537z" data-paper-data="{&quot;index&quot;:null}" fill="#48d419" stroke="none" stroke-width="0.5"/><path d="M222.66341,117.05848c2.4154,1.33838 -2.5161,14.85713 -11.01483,30.19497c-8.49873,15.33784 -17.34638,26.68664 -19.76179,25.34826c-2.4154,-1.33838 2.5161,-14.85713 11.01483,-30.19497c8.49873,-15.33784 17.34638,-26.68664 19.76179,-25.34826z" data-paper-data="{&quot;index&quot;:null}" fill="#fefffd" stroke="none" stroke-width="0"/><path d="M203.9744,155.67082c2.23169,1.62635 -4.33113,14.43282 -14.65847,28.60405c-10.32733,14.17123 -20.50844,24.34086 -22.74013,22.71451c-2.23169,-1.62635 4.33113,-14.43282 14.65847,-28.60405c10.32733,-14.17123 20.50844,-24.34086 22.74013,-22.71451z" data-paper-data="{&quot;index&quot;:null}" fill="#fefffd" stroke="none" stroke-width="0"/><text transform="translate(182.95922,80.03444) scale(0.98384,0.98384)" font-size="40" xml:space="preserve" fill="#ffffff" fill-rule="nonzero" stroke="#000000" stroke-width="1" stroke-linecap="butt" stroke-linejoin="miter" stroke-miterlimit="10" stroke-dasharray="" stroke-dashoffset="0" font-family="&quot;ヒラギノ角ゴ Pro W3&quot;, &quot;Hiragino Kaku Gothic Pro&quot;, Osaka, &quot;メイリオ&quot;, Meiryo, &quot;ＭＳ Ｐゴシック&quot;, &quot;MS PGothic&quot;" font-weight="normal" text-anchor="start" style="mix-blend-mode: normal"><tspan x="0" dy="0">RIGHT</tspan></text></g></g></svg>