<svg version="1.1" xmlns="http://www.w3.org/2000/svg" xmlns:xlink="http://www.w3.org/1999/xlink" width="31.2" height="34.29029" viewBox="0,0,31.2,34.29029"><defs><linearGradient x1="229.05761" y1="184.52346" x2="232.1354" y2="184.52346" gradientUnits="userSpaceOnUse" id="color-1"><stop offset="0" stop-color="#fcda21"/><stop offset="1" stop-color="#fcda21" stop-opacity="0"/></linearGradient></defs><g transform="translate(-224.40001,-162.85486)"><g data-paper-data="{&quot;isPaintingLayer&quot;:true}" fill-rule="nonzero" stroke-linejoin="miter" stroke-miterlimit="10" stroke-dasharray="" stroke-dashoffset="0" style="mix-blend-mode: normal"><path d="M236.64229,190.66743c0,0 2.3479,0.1449 3.50507,0.25098c1.21696,0.11155 3.68579,-0.07269 3.68579,-0.07269l-4.45714,5.94286z" fill="#555b57" stroke="#000000" stroke-width="0" stroke-linecap="round"/><path d="M239.37601,197.14515l-2.85258,-6.95315l2.91201,0.23772z" fill="#7a747e" stroke="#000000" stroke-width="0" stroke-linecap="round"/><path d="M224.40001,186.98286l4.69486,-5.58628c0,0 0.67901,1.88274 1.30742,3.09029c0.62841,1.20755 1.48571,2.79314 1.48571,2.79314z" fill="#827f76" stroke="#000000" stroke-width="0" stroke-linecap="round"/><path d="M224.99429,186.98286l5.52686,-1.84228l1.248,2.13943z" fill="#565553" stroke="#000000" stroke-width="0" stroke-linecap="round"/><path d="M231.53143,173.37372l-0.35657,-4.04115l3.56572,1.01029z" fill="#7c7b81" stroke="#000000" stroke-width="0" stroke-linecap="round"/><path d="M233.49258,171.29372l-1.84229,-1.90171l2.85257,0.65371z" fill="#5e585c" stroke="#000000" stroke-width="0" stroke-linecap="round"/><path d="M240.38442,168.16148c6.40458,0 11.59652,5.19715 11.59652,11.60816c0,6.41101 -5.19194,11.60818 -11.59652,11.60818c-6.40458,0 -11.59651,-5.19716 -11.59651,-11.60818c0,-6.41101 5.19192,-11.60816 11.59651,-11.60816z" fill="#2e2e2e" stroke="#434343" stroke-width="0" stroke-linecap="butt"/><path d="M237.77967,182.06986c4.3801,6.03987 1.40912,9.03337 1.40912,9.03337c0,0 -4.71777,-0.15809 -7.62604,-4.01154c-3.8753,-5.13476 -2.52784,-8.18132 -2.52784,-8.18132c0,0 4.13979,-3.19045 8.74475,3.15949z" fill="#474747" stroke="none" stroke-width="0" stroke-linecap="butt"/><path d="M244.8248,190.55662c0,0 4.73424,-5.82778 1.21564,-13.1638c-2.55272,-5.32221 -10.45654,-8.13187 -10.45654,-8.13187c0,0 4.53889,-2.02928 9.00959,-0.34644c2.56838,0.96678 5.53064,4.05577 6.53454,7.16986c1.09033,3.38216 0.54974,7.02402 -0.68756,9.33037c-1.99878,3.72576 -5.61567,5.14188 -5.61567,5.14188z" fill="#1e1e20" stroke="#000000" stroke-width="0" stroke-linecap="round"/><path d="M241.98908,168.08775c2.06104,0 3.67815,0.82499 3.67815,1.61212c0,0.78713 -1.61711,1.28502 -3.67815,1.28502c-2.06104,0 -3.73185,-0.35771 -3.73185,-1.14484c0,-0.78713 1.67081,-1.7523 3.73185,-1.7523z" fill="#ffdd18" stroke="none" stroke-width="0" stroke-linecap="butt"/><path d="M235.03791,173.59656c1.8521,0.45818 2.72171,2.89059 1.94232,5.43293c-0.77938,2.54235 -2.91262,4.2319 -4.76472,3.77372c-1.8521,-0.45818 -2.7217,-2.89058 -1.94232,-5.43293c0.77938,-2.54235 2.91262,-4.2319 4.76472,-3.77372z" fill="#ffce1a" stroke="none" stroke-width="0" stroke-linecap="butt"/><path d="M244.76584,184.03654c2.01193,-1.27739 4.2327,-1.38402 4.96022,-0.23815c0.72752,1.14587 -0.3137,3.1103 -2.32563,4.38769c-2.01193,1.27739 -4.23269,1.38402 -4.96021,0.23815c-0.72752,-1.14587 0.31369,-3.11031 2.32562,-4.3877z" fill="#f9ce1f" stroke="none" stroke-width="0" stroke-linecap="butt"/><path d="M248.0883,171.68069c0.95531,-0.3775 2.21229,0.77613 2.80758,2.28257c0.59528,1.50644 0.58958,3.60593 -0.36573,3.98343c-0.95531,0.3775 -2.49844,-1.10995 -3.09372,-2.61639c-0.59528,-1.50644 -0.30344,-3.27211 0.65187,-3.64961z" fill="#ffdd18" stroke="none" stroke-width="0" stroke-linecap="butt"/><path d="M233.67086,174.8c0,0 1.8986,0.35016 1.78285,2.912c-0.16603,3.67484 -3.14971,3.62515 -3.14971,3.62515l-3.62514,-4.39772z" fill="#555555" stroke="#000000" stroke-width="0" stroke-linecap="round"/><path d="M233.68032,180.9128c-0.38714,0.21395 -1.43574,0.48378 -1.43574,0.48378l-3.26857,-4.45715l5.52685,3.20915c0,0 -0.45833,0.56294 -0.82254,0.76422z" fill="#7c7980" stroke="#000000" stroke-width="0" stroke-linecap="round"/><path d="M250.54857,177.59315c0,0 -1.12159,-0.04239 -1.72342,-2.31772c-0.5411,-2.04574 0.23772,-3.20914 0.23772,-3.20914l6.53714,1.06972z" fill="#7c7c7c" stroke="#000000" stroke-width="0" stroke-linecap="round"/><path d="M243.53602,187.87428c0,0 0.00204,-2.04768 1.54514,-3.26857c1.07727,-0.85232 3.44686,-0.77257 3.44686,-0.77257l1.36685,6.71543l-6.35886,-2.67428z" fill="#515151" stroke="#000000" stroke-width="0" stroke-linecap="round"/><path d="M248.67381,173.26613c0.0638,-0.48914 0.21077,-1.19983 0.21077,-1.19983l5.70514,0.95085l-5.94286,1.248c0,0 -0.02612,-0.59217 0.02695,-0.99902z" fill="#545351" stroke="#000000" stroke-width="0" stroke-linecap="round"/><path d="M241.93143,162.91429l3.26857,6.29943c0,0 -0.98359,1.08545 -3.38743,1.12914c-1.86957,0.03398 -3.20914,-0.89143 -3.20914,-0.89143z" fill="#515151" stroke="#000000" stroke-width="0" stroke-linecap="round"/><path d="M242.76343,170.224c0,0 -1.05465,0.11619 -1.60422,0.05623c-0.53978,-0.05889 -1.66435,-0.4128 -1.66435,-0.4128l2.43658,-7.01257z" fill="#7a7a7a" stroke="#000000" stroke-width="0" stroke-linecap="round"/><path d="M243.71429,188.34972c0,0 -0.21585,-0.88958 0,-1.60457c0.21584,-0.715 0.95085,-1.54515 0.95085,-1.54515l5.408,5.22972z" fill="#77787a" stroke="#000000" stroke-width="0" stroke-linecap="round"/><path d="M232.1354,187.72562c0,0 -1.3214,-1.55148 -1.95017,-2.85983c-0.62876,-1.30835 -1.1276,-3.54449 -1.1276,-3.54449l0.34103,1.36359" fill="none" stroke="url(#color-1)" stroke-width="0.5" stroke-linecap="round"/></g></g></svg>