<svg version="1.1" xmlns="http://www.w3.org/2000/svg" xmlns:xlink="http://www.w3.org/1999/xlink" width="107.44963" height="88.84699" viewBox="0,0,107.44963,88.84699"><g transform="translate(-185.70131,-135.81753)"><g data-paper-data="{&quot;isPaintingLayer&quot;:true}" fill-rule="nonzero" stroke="none" stroke-width="0.5" stroke-linecap="butt" stroke-linejoin="miter" stroke-miterlimit="10" stroke-dasharray="" stroke-dashoffset="0" style="mix-blend-mode: normal"><path d="M270.04048,172.34872c-0.1123,0.07539 -0.25578,0.13396 -0.43885,0.16419c-0.98664,0.16293 -1.14957,-0.82371 -1.14957,-0.82371l-0.12679,-0.81516c-0.8883,-2.99843 -3.25886,-7.20941 -3.19331,-10.06603c1.56986,-1.96638 3.20487,-4.02487 5.34499,-5.41675c1.11864,-0.72753 2.87908,-1.95152 4.33668,-0.77791c0.57192,0.46048 -0.37672,1.79265 0.24102,2.18951c0.77904,0.50048 1.8978,0.87996 2.13728,1.77441c0.13166,0.49175 -0.81991,1.17884 -0.17759,1.66795c0.64587,0.49181 1.72805,0.57116 2.04859,1.31701c0.44079,1.02565 -1.41778,2.50025 -0.62837,3.2896c0.18046,0.18045 0.57107,-0.22239 0.76363,-0.05491c0.06374,0.05543 0.12453,0.11356 0.18286,0.17397l0.02955,-0.03447l0.89789,0.76937c0.22661,0.19084 0.36653,0.48003 0.35576,0.79909c-0.01693,0.50165 -0.40053,0.90451 -0.88468,0.95981l-1.02537,0.13553c-2.62806,0.95566 -6.52773,1.82692 -8.09754,4.29572c0,0 -0.22769,0.35202 -0.61615,0.45277z" fill="#9f4d1e"/><path d="M275.3172,201.67436c0.83403,0.65815 1.60681,4.65747 0.83758,5.66806c-0.82658,1.08594 -1.72508,-0.03872 -2.55704,0.69402c-0.76265,0.67168 -1.23719,1.17948 -2.13613,1.71827c-0.05014,0.06283 -0.08771,0.09796 -0.08771,0.09796l-0.49653,0.41587c-0.51832,0.20611 -1.00082,0.68223 -1.55494,0.61832c-1.34548,-0.15518 -6.59014,-0.70844 -7.11497,-2.17105c-0.03934,-0.10962 2.32417,-2.83052 2.31263,-2.91892c-0.2637,-2.0198 1.40937,-3.81411 1.98069,-5.63254c0.33949,-1.08056 0.13876,-1.99034 0.69039,-2.55708c-0.01449,-0.04596 -0.02881,-0.09244 -0.04296,-0.13945l-0.04987,-0.00168l0.04574,-1.35549c0.01863,-0.55198 0.48118,-0.98433 1.03316,-0.96571c0.55198,0.01863 0.98433,0.48118 0.96571,1.03316l-0.03245,0.9617c0.509,1.6393 1.96179,1.31776 2.95069,1.75433c1.14263,0.50443 1.87816,1.6929 3.25604,2.7802z" fill="#9f4d1e"/><path d="M278.11556,200.24004l-0.36765,-0.37425c-2.86908,0.4738 -6.52704,0.39763 -7.45726,-3.16695c-0.60192,-2.30654 1.28556,-4.90061 2.0522,-6.92514c0.93363,-2.46551 0.64626,-5.3617 0.2273,-7.90452c-0.34341,-3.20459 -3.02626,-6.95591 -1.60435,-10.18933c2.60506,-5.92392 10.97449,-6.42422 13.24411,-0.23724c1.24959,2.25144 3.00405,5.84336 2.19246,8.54437c-0.85683,2.85157 -4.92842,2.38973 -6.85592,3.71101c-1.31414,0.90083 0.32137,2.28081 1.12424,2.51152c0.72089,0.20715 1.44225,0.42649 2.1297,0.7265c2.534,1.3828 3.45442,4.24776 2.91486,7.34544c-0.16482,0.94626 0.57094,2.55402 -0.14058,3.33618c-1.4933,1.64154 -4.91538,2.90372 -7.45911,2.62241z" fill="#d48631"/><path d="M281.94457,166.57222c-0.36363,0.61829 -1.11757,0.40254 -1.11757,0.40254l-0.29623,-0.11583c-2.00638,-0.2556 -2.90456,-0.83149 -2.24781,-2.97523c-0.65384,-1.04651 -0.29305,-1.91438 -0.48688,-2.82686c-0.14437,-0.67964 -1.5728,-0.17193 -1.9403,-0.76159c-0.40971,-0.65738 0.51897,-1.6072 0.2039,-2.31483c-0.40685,-0.91373 -2.62313,-0.0563 -3.05469,-2.05244c-0.29794,-1.37811 1.15348,-3.03407 2.0837,-3.77352c2.56082,-2.03562 7.0615,-3.51032 9.99654,-1.72918c1.47302,1.5759 4.6582,6.76276 3.99275,9.04621c-0.5626,1.93053 -2.76832,1.72244 -3.54405,3.13891c-0.33923,0.61943 0.50223,1.45608 0.22709,2.10652c-0.54824,1.29601 -2.29293,1.68409 -3.81643,1.85528z" fill="#d48631"/><path d="M270.02174,210.44429l0.26949,-0.18867c0.41934,-0.27137 -0.0934,-1.06009 0.16133,-1.48975c0.78222,-1.31941 1.44126,-0.71039 2.40126,-1.04142c0.39792,-0.13721 -0.63345,-0.67578 -0.62604,-1.09663c0.01101,-0.62511 0.33516,-1.23534 0.70903,-1.73646c0.26019,-0.34874 1.34637,-0.26339 1.13543,-0.64395c-0.06553,-0.11822 -0.13373,-0.23493 -0.20368,-0.35067l-0.12882,0.14042l-0.91661,-0.84092c-0.21031,-0.19064 -0.33851,-0.46908 -0.32819,-0.775c0.01863,-0.55198 0.48118,-0.98433 1.03316,-0.96571c0.14767,0.00498 0.28679,0.04174 0.41098,0.10348l0.9151,0.42928c2.3187,1.08885 4.30704,2.72246 6.63751,3.74341c1.04267,0.45678 3.04753,1.0797 3.56311,2.21934c0.62139,1.37353 -0.52262,2.6853 -0.84195,3.93118c-0.0502,1.67923 0.82121,3.39817 0.00166,4.95779c-1.10161,2.09638 -4.27124,2.61236 -6.3335,2.07467c-3.56488,-0.92946 -5.90477,-4.56364 -8.69016,-6.69865c0,0 -0.79367,-0.60835 -0.18532,-1.40203c0.33741,-0.44018 0.73182,-0.4491 1.01622,-0.36973z" fill="#d48631"/><path d="M209.22343,188.73019c-1.40539,-0.28334 -5.31741,-0.21859 -6.04635,-1.81757c-0.803,-1.76147 1.09786,-2.18171 0.97519,-3.27627c-0.06046,-0.53943 -5.05632,-0.43061 -5.19373,-0.47095c-0.60594,-0.17786 -1.29894,-0.44246 -1.61619,-0.98849c-0.18514,-0.31865 0.47257,-0.63856 0.4569,-1.00674c-0.00783,-0.18396 -0.30541,0.27363 -0.4888,0.25727c-0.44984,-0.04014 -0.85314,-0.29931 -1.28946,-0.41594c-1.05936,-0.28317 -1.77867,-0.55582 -2.49396,-0.98863l-0.04877,0.11091l-0.89613,-0.39401c-0.37479,-0.15454 -0.63273,-0.52953 -0.61825,-0.95853c0.0125,-0.37043 0.22494,-0.687 0.53017,-0.84953l0.93281,-0.51772l0.00999,0.018l0.05033,-0.04885c2.05571,-0.79687 3.88513,-2.23344 6.08836,-2.67069c0.52789,-0.10476 1.38953,0.28495 1.60083,-0.21001c0.0886,-0.20754 0.00746,-0.67778 -0.04958,-1.12837c-0.05596,-0.44197 -1.65446,-1.0608 -1.48114,-1.19847c0.1109,-0.08809 5.1744,-0.64214 5.64198,-0.74537c2.60235,-0.57461 3.70947,0.62859 6.34259,0.68608c0.04271,-0.05161 0.07322,-0.08013 0.07322,-0.08013l0.38456,-0.35944c2.82595,-2.63334 3.67262,-6.79235 6.21449,-9.76336c2.17408,-2.53301 4.13829,-4.74441 6.93835,-6.65621c1.14844,-0.78412 3.40549,-1.38005 4.32503,-2.24378c0.63939,-0.60058 0.34373,-4.11202 0.55142,-4.98723c0.64275,-2.70852 2.46764,-4.5164 4.42507,-6.34356c2.82132,-2.25931 7.14761,-5.19103 11.01038,-3.74771c0.92858,0.34696 1.35685,0.92762 1.99445,1.6062c3.92606,4.17836 0.06423,8.182 -4.42282,9.32599c-0.94393,0.34207 -1.91819,0.53082 -2.76847,1.0848c-1.51031,0.984 -3.40583,4.35252 -1.16981,5.73642c3.00964,1.86271 6.07931,-2.03559 7.07497,-4.32079c0.68373,-1.45192 1.51558,-3.36549 2.93826,-4.26374c3.11434,-1.96632 8.79262,0.388 11.18246,2.70167c2.62272,2.53913 13.99039,20.94701 10.94581,23.89431c-0.47228,0.15354 -1.52603,1.60778 -2.22184,1.25846c-4.90716,-2.4636 -14.12423,-17.3538 -17.34328,-18.01637c-1.4461,-0.29765 -3.9771,-0.30267 -4.39115,1.22097c-0.42381,1.55954 0.07595,4.06071 0.01964,5.7296c-0.1893,5.60961 0.65046,9.982 4.27995,14.36534c1.1081,1.33825 3.03522,2.15159 4.32071,3.31582c0.49473,0.44807 1.40628,0.79642 1.36749,1.46277c-0.05889,1.01143 -1.78964,1.49631 -2.55097,1.77399c-1.77725,0.59151 -1.04652,3.37009 -2.20193,4.76025c-2.58554,3.11083 -6.02071,5.97478 -7.1876,9.3729c-0.79329,2.31017 -1.6461,3.83864 -0.80953,6.15697c0.40754,0.89103 1.21495,3.16954 2.07526,3.71362c2.00504,1.26805 7.19975,0.09953 9.46669,-0.00093c1.28515,-0.05696 5.67319,-2.21366 6.59854,-0.94875c0.83239,1.13785 -0.57702,6.74443 -1.10322,7.94835c-2.54807,3.94584 -10.10858,7.96576 -14.82115,5.57848c-2.05821,-1.04264 -3.09733,-3.52961 -3.35903,-5.72515c-0.15349,-1.28775 -0.53623,-2.37066 -0.7801,-2.12535c-4.30285,-0.85589 -7.41348,-0.611 -11.83088,-1.11228c-2.03756,-0.23122 -4.24328,-0.97513 -6.21632,-1.55147c-2.04458,-0.59723 -3.41735,-1.44049 -5.13013,-2.54839c-2.31035,-2.44355 -4.27161,-5.69452 -5.58496,-8.84403c-1.36255,-3.26748 -1.639,-7.6973 -3.79623,-10.52711c0,0 -0.01379,-0.01849 -0.03439,-0.05195c-0.28991,-0.05843 -0.57983,-0.11686 -0.86974,-0.17529z" fill="#a25121"/><path d="M246.32799,197.27255c1.19342,-3.54333 3.42848,-6.75193 5.54211,-9.79261c0.69451,-0.99912 1.6638,-2.12851 2.72017,-2.7248c0.46141,-0.26046 0.63131,-0.07854 0.85199,-0.56024c0.11445,-0.24981 -1.91452,-1.96458 -2.13996,-2.16526c-5.87106,-6.27181 -10.92245,-14.18318 -7.6244,-23.06416c1.78672,-3.67793 4.94184,-2.94956 8.24474,-2.25083c5.74808,1.21601 10.66381,2.97789 12.67173,8.93184c0.89893,2.67931 1.47019,5.53624 2.41936,8.17738c0.44561,1.23994 1.48678,1.66384 1.72501,3.1272c0.61291,3.76475 -0.67759,8.5914 -0.81243,12.45022c0.16091,2.57495 -1.12444,3.70251 -1.71664,6.03367c-1.17382,4.62066 -2.00977,10.87802 -6.43436,13.69708c-1.43084,0.91164 -3.15744,1.01334 -4.78203,1.35859c-2.69737,0.20936 -6.22011,0.79773 -8.79866,-0.20896c-5.54375,-2.16431 -4.99555,-8.81925 -2.22454,-12.69475c0,0 0.13195,-0.18415 0.3579,-0.31436z" fill="#de8f31"/><path d="M283.78556,169.55318c2.74094,2.37107 3.91263,7.40173 2.55752,10.88549c-0.73537,1.89049 -2.73789,2.5866 -4.55672,2.91081c-0.48852,0.08708 -1.32359,0.25201 -1.96511,0.26035c0.52033,0.51378 1.04891,1.25767 0.86647,1.73979c1.0499,0.22958 2.35441,0.5713 3.15592,1.0699c3.93604,2.44854 3.86115,10.48568 0.16753,12.87613c-1.42159,0.92002 -3.4359,0.97696 -5.05117,0.92587c0,0 -0.99943,-0.03373 -0.96571,-1.03316c0.03373,-0.99943 1.03316,-0.96571 1.03316,-0.96571c1.21357,0.04387 2.86605,0.07209 3.93968,-0.63287c2.38803,-1.568 2.56673,-7.99197 -0.19529,-9.48172c-0.77783,-0.41954 -1.99928,-0.71469 -2.8762,-0.88992l-1.24027,-0.04185v0v0c-0.55198,-0.01863 -0.98433,-0.48118 -0.96571,-1.03316c0.00931,-0.27598 0.12961,-0.52207 0.31658,-0.69682l0.49841,-0.46587c-0.0158,-0.07679 -0.04752,-0.1499 -0.09886,-0.21744c-0.54084,-0.71134 -1.91927,-1.23893 -1.23465,-2.59491c0.58783,-1.16429 5.00501,-0.70133 6.22287,-1.35231c3.02683,-1.61791 1.10414,-8.0379 -0.90976,-9.74391c-0.30163,-0.25846 -0.60326,-0.51693 -0.90489,-0.77539l-0.47723,-0.33732c0,0 -0.53211,-0.38127 -0.4268,-0.95738c-0.71242,0.04826 -1.40058,0.1114 -1.99764,0.24568c-2.31492,0.52063 -3.92637,1.71776 -5.83299,3.04968c0,0 -1.43462,1.00219 -2.4368,-0.43243c-1.00219,-1.43462 0.43243,-2.4368 0.43243,-2.4368c2.27852,-1.59171 4.2909,-2.95751 7.05362,-3.59158c1.81855,-0.41737 3.85192,-0.26436 5.61669,-0.68354c1.37119,-0.3257 1.49391,-2.87585 1.98481,-3.74308c0.59055,-1.04329 1.95754,-1.45329 2.649,-2.43261c0.39483,-0.55921 -0.37101,-1.33879 -0.73876,-1.91618c-1.24692,-1.95775 -2.59525,-3.9672 -3.9315,-5.88696c-1.63889,-1.97214 -2.94364,-0.39797 -5.05116,0.46558c-4.1431,1.69765 -7.36901,4.64461 -10.41355,7.89377l-1.12244,1.3959c-0.33291,0.42332 -0.85608,0.68782 -1.43557,0.66826c-0.96595,-0.0326 -1.72258,-0.84207 -1.68998,-1.80802c0.00438,-0.12994 0.02283,-0.25609 0.05382,-0.37704l0.42649,-1.8123l0.19629,0.0462c-0.03692,-0.40182 -0.0849,-0.80221 -0.15322,-1.19999c-0.48879,-2.84596 -4.21955,-6.03182 -6.52748,-7.43615c-3.55756,-2.1647 -7.51027,-2.40377 -8.84028,1.15706c0.02371,2.05724 0.03673,4.23234 -1.98462,5.51386c-2.07559,1.31593 -8.53305,1.16262 -9.71676,-1.22993c-0.45541,-0.92048 -0.08164,-2.08042 0.16929,-3.07627c0.69657,-2.76441 2.77973,-3.51997 5.21669,-4.21057c0.97568,-0.27649 2.17517,-0.29702 3.00085,-0.85026c0.11283,-0.3251 0.33364,-0.71163 0.76496,-0.93594c0.93466,-1.97564 1.8209,-5.91784 -1.1182,-6.06316c-4.64018,0.26202 -10.59684,2.41093 -13.22643,6.51014c-1.35243,2.1083 -0.87638,4.86449 -2.01063,7.0227c-1.25719,2.39214 -3.00257,2.39619 -5.00401,3.71745c-2.70219,1.78386 -4.6883,4.04961 -7.01044,6.22798c-2.13481,2.21338 -2.22728,6.81529 -4.5708,8.58236c-2.02563,1.52738 -6.25202,0.86511 -8.59068,1.01662c-1.13746,0.07369 -4.25916,0.80089 -5.39805,0.84753c-0.21895,0.00897 1.30232,-0.67103 1.36353,-0.46062c0.21325,0.73305 1.50649,1.26211 1.19003,1.95686c-0.47007,1.03198 -1.90044,1.24201 -2.89516,1.78652c-1.65295,0.90482 -3.46155,1.724 -5.24415,2.52006c1.61125,0.08694 3.18915,0.28056 4.21896,0.87818c0.52867,0.30679 0.48239,1.17464 0.94968,1.56866c0.66999,0.56495 3.78846,0.18968 4.5835,0.2165c0,0 0.41637,0.01405 0.83595,0.23159c0.45404,-0.10474 1.02564,-0.04336 1.5793,0.54898c1.195,1.27847 -0.08347,2.47346 -0.08347,2.47346l-0.73088,0.52349c-0.31813,0.12159 -0.61242,0.29137 -0.89901,0.47717c1.96257,0.09494 4.32399,0.79319 5.8985,1.00448c0,0 1.14856,0.15413 1.45095,1.14619c0.4225,0.40058 0.5521,0.94785 0.5521,0.94785c1.04996,4.44327 2.07131,8.13831 3.77684,12.35331c0.76801,1.89807 1.80409,4.42434 3.40143,5.79514c2.89936,2.48817 7.54999,4.1505 11.19267,5.02503c3.21132,0.09696 6.48645,-0.25228 9.6923,0.13232c1.07664,0.12916 2.38154,0.62386 3.17738,1.36039c1.66507,1.54098 0.09909,4.28992 2.00347,6.13569c1.27604,1.23676 4.25129,1.12916 5.82275,0.75486c4.21154,-1.00311 6.81008,-2.38214 9.56179,-5.76139c1.04463,-2.18413 1.42384,-3.28148 0.76872,-5.66053l-0.02542,-1.43506c0,0 0.05902,-1.749 1.80802,-1.68998c0.58412,0.01971 0.96658,0.22792 1.21693,0.49652c0.06887,-0.24763 0.2105,-0.50862 0.45816,-0.77311c1.19615,-1.2774 2.47354,-0.08125 2.47354,-0.08125c3.59906,3.38264 6.9439,9.92673 12.03114,11.17894c4.31137,1.06122 2.5512,-3.07421 2.95489,-5.51305c0.16086,-0.97183 1.39289,-1.92626 0.94074,-2.80142c-0.23087,-0.44688 -0.81062,-0.59574 -1.21592,-0.89361c-3.32352,-3.58366 -8.02957,-5.77878 -11.84119,-8.83857l-1.20125,-0.62006c0,0 -1.53797,-0.83496 -0.70299,-2.37293c0.83496,-1.53797 2.37293,-0.70299 2.37293,-0.70299l1.72456,0.96839c3.92941,3.16534 8.66852,5.4208 12.13358,9.10208c2.64883,2.86228 1.96856,3.30825 1.23334,6.78383c-0.23558,1.1137 0.59301,2.25311 0.46098,3.38377c-0.46878,4.01461 -4.07955,5.73065 -7.65519,4.91293c-6.00276,-1.37281 -9.42853,-8.11665 -13.62791,-12.03253c0,0 -0.04952,-0.04638 -0.11995,-0.13063l-0.03458,0.16664c0.85655,3.36457 0.3027,5.37099 -1.19631,8.42538c-4.07066,5.11076 -14.48468,11.36063 -20.72947,5.69247c-0.95667,-0.86834 -1.96834,-2.86541 -2.26506,-4.11334c-0.16563,-0.69659 -0.22387,-1.42831 -0.16363,-2.14179c0.02328,-0.27576 0.64021,-0.57761 0.40561,-0.7244c-0.27784,-0.17384 -0.5623,0.38353 -0.88769,0.42276c-0.67748,0.08169 -1.364,-0.04603 -2.04602,-0.06904c-2.67327,-0.09021 -5.32189,0.00545 -7.9904,-0.09194c-4.26255,-0.98734 -9.65289,-2.88946 -13.0206,-5.84757c-5.23991,-4.6026 -6.68509,-13.08086 -8.18384,-19.51985c-2.18714,-0.236 -4.49687,-0.2977 -6.60643,-0.70133c-1.12222,-0.21472 -2.83213,0.12632 -3.30347,-0.91451c-0.62091,-1.37111 -0.20679,-2.58809 0.63243,-3.601c-0.98814,-0.10009 -1.93304,-0.324 -2.69989,-0.81788c-0.47037,-0.30294 -0.3684,-1.12649 -0.80992,-1.47013c-0.80623,-0.62751 -2.04641,0.05356 -3.06483,-0.02775c-0.50528,-0.04034 -3.38417,-0.43286 -3.98802,-0.51389l-1.83456,-0.24619c-0.89081,-0.1085 -1.56626,-0.88226 -1.53542,-1.79605c0.01955,-0.57949 0.31871,-1.08365 0.76351,-1.38726l1.50898,-1.05413l0.23956,0.34292c1.51346,-1.26412 3.14868,-2.10915 5.32605,-3.109c1.38755,-0.63717 2.73261,-1.4614 4.23092,-1.75521c0.31808,-0.06238 0.99644,0.72461 0.87509,0.42403c-0.24582,-0.60886 -1.52609,-0.86222 -1.30102,-1.47905c0.43474,-1.19135 1.686,-1.95988 2.78612,-2.59078c2.20409,-1.26401 5.88575,-0.51801 8.31084,-0.78499c0.96238,-0.10594 2.08592,0.25647 2.89092,-0.28146c0.79781,-0.53314 0.48624,-1.86224 0.84857,-2.75076c0.87376,-2.14262 1.77963,-3.79939 3.34215,-5.50286c3.51281,-3.27077 6.72341,-5.61546 10.7057,-8.19155c0.81769,-0.52895 0.75883,-1.47213 0.94125,-2.29402c0.44985,-2.02681 0.76649,-4.08767 1.89509,-5.87933c3.29834,-5.2361 10.43236,-7.79727 16.31705,-8.13483c0.86305,0.14741 1.81943,0.02496 2.58915,0.44224c2.44979,1.32811 3.14784,4.54602 2.64278,7.53932c5.30016,-1.15101 12.23104,4.32715 15.03552,8.0616c0.51116,0.68066 1.35962,1.94166 1.87653,3.16686c2.81403,-2.73932 5.86964,-5.10888 9.56949,-6.62693c3.84252,-1.57658 5.82232,-2.73858 9.09751,0.5706c1.90192,2.71463 6.58473,7.96327 5.10562,11.52051c-0.48289,1.16136 -2.16414,1.47883 -2.73479,2.59968c-1.16524,2.28873 -1.0292,4.27813 -3.90908,5.36871c-0.49892,0.18893 -1.08648,0.29861 -1.71255,0.37128c0.28077,0.24059 0.56153,0.48116 0.8423,0.72175zM245.0215,152.26719l0.03965,-0.91775c0.06765,-0.47479 0.11277,-0.87039 0.1583,-1.22297c-2.11031,0.40688 -4.52072,0.641 -4.81158,2.88946c-0.0756,0.58444 1.14997,-0.26582 1.7339,-0.34529c0.96309,-0.13107 1.9793,0.22474 2.92039,0.00903c-0.04651,-0.23926 -0.04066,-0.4125 -0.04066,-0.4125z" fill="#783b1a"/><path d="M270.3601,195.45613c-0.95706,0.2424 -2.0101,0.41035 -2.72808,-0.68775c-0.86371,-1.32099 0.15436,-2.80645 1.28597,-3.32818c1.36341,-0.62863 3.44887,0.24761 4.88301,-0.22101c0.78402,-0.25618 1.91351,-1.84798 2.92861,-1.13759c1.00486,0.70322 0.40209,2.72484 -0.14701,3.46488c-1.0322,1.39112 -2.88392,1.39887 -4.57544,1.60483c-0.28357,0.17067 -0.60235,0.15992 -0.60235,0.15992l-0.21105,-0.03592c-0.20358,0.03954 -0.40205,0.08635 -0.59345,0.14364c0,0 -0.09781,0.02898 -0.24021,0.03719z" fill="#98461d"/><path d="M271.88094,173.28521c0.1871,0.07005 0.38196,0.13015 0.58242,0.18332l0.21299,-0.02161c0,0 0.31878,0.01076 0.5902,0.20016c1.67378,0.31952 3.52077,0.45209 4.45684,1.90963c0.49796,0.77538 0.96306,2.83304 -0.0869,3.46691c-1.06068,0.64034 -2.08029,-1.02398 -2.84526,-1.33243c-1.39929,-0.56423 -3.53908,0.16942 -4.857,-0.54969c-1.09386,-0.59684 -2.00948,-2.14754 -1.05868,-3.4073c0.57434,-0.76097 1.28014,-0.843 1.98321,-0.71342c0.26445,0.04874 0.5285,0.12741 0.78503,0.21115c0.14152,0.01778 0.23717,0.0533 0.23717,0.0533z" data-paper-data="{&quot;index&quot;:null}" fill="#98461d"/><path d="M210.05812,176.7742c-0.14022,0.22853 -0.39645,0.43916 -0.86433,0.42337c-0.99943,-0.03373 -0.96571,-1.03316 -0.96571,-1.03316l0.66584,-1.09276c1.28098,-0.45791 2.48064,-0.94018 3.76728,-1.355c0.10792,-0.28268 0.36104,-0.62561 0.95339,-0.60562c0.99943,0.03373 0.96571,1.03316 0.96571,1.03316l-0.01934,0.19451c0.01035,0.05626 0.01619,0.10992 0.01809,0.16107c0.5141,3.82352 2.09218,6.8379 1.2858,10.83885c0,0 -0.19757,0.98028 -1.17786,0.78271c-0.98028,-0.19757 -0.78271,-1.17786 -0.78271,-1.17786c0.67361,-3.34221 -0.51052,-6.04015 -1.12942,-9.15981c-0.91955,0.31055 -1.79848,0.64958 -2.71674,0.99052z" fill="#843e18"/><path d="M271.71231,192.10595c-0.05081,0.251 -0.1878,-0.1589 -0.59574,-0.00013c-0.9319,0.3627 -1.18193,0.11311 -1.18193,0.11311l-0.42852,-1.15734c0.05227,-2.9272 0.41251,-5.74448 0.68001,-8.64714c0.12934,-1.40344 -0.10136,-3.49194 0.3298,-4.80425c0.5425,-1.65116 1.04317,-1.47332 2.48447,-2.0009c1.50527,0.04497 3.47779,0.24151 4.46104,1.63234c0.89052,1.25969 0.25396,3.45626 0.29609,4.87864c0.13686,4.62056 0.16285,10.66915 -6.04523,9.98566z" fill="#de9a39"/><path d="M256.87037,176.95183c-0.10663,-0.07401 -0.16863,-0.14035 -0.16863,-0.14035l-0.1898,-0.20907c-2.16685,-2.78981 -4.14312,-5.72083 -5.58639,-8.95269c-0.25933,-2.58462 -0.07253,-6.15659 2.87325,-7.23164c2.85992,-1.04372 8.38325,1.16459 10.53703,3.09912c1.77746,1.59651 2.88177,4.19575 3.85166,6.31103c0.86385,2.23555 1.79336,6.1752 0.35841,8.38971c-1.51734,2.34164 -8.07825,2.71974 -10.18905,1.05109c-0.71972,-0.56897 -1.15405,-1.44315 -1.48646,-2.31721z" fill="#fffeff"/><path d="M259.45762,192.59738c0.05248,-0.06977 0.09495,-0.10945 0.09495,-0.10945l0.76661,-0.5492c3.44515,-0.71707 6.8007,2.9805 3.36218,5.67898c-3.46442,2.7188 -6.41091,-1.54772 -4.51349,-4.72881c0,0 0.1028,-0.16659 0.28976,-0.29151z" fill="#4d2813"/><path d="M260.62809,177.22838c-1.67866,-3.30176 1.54873,-7.35994 4.82199,-4.41379c3.24879,2.92414 -0.34839,6.38708 -3.73736,5.4394l-0.72784,-0.59963c0,0 -0.03969,-0.04246 -0.08735,-0.1156c-0.17811,-0.13725 -0.26945,-0.31038 -0.26945,-0.31038z" data-paper-data="{&quot;index&quot;:null}" fill="#4d2813"/><path d="M258.00715,189.09333c2.21849,-1.52258 8.73899,-0.70304 10.09502,1.73557c1.2824,2.3062 0.08942,6.17425 -0.92317,8.34647c-1.11028,2.04509 -2.3873,4.56395 -4.26834,6.03702c-2.27928,1.78494 -7.93894,3.61589 -10.72199,2.38175c-2.8666,-1.27119 -2.81218,-4.84763 -2.3792,-7.40888c1.65786,-3.1272 3.82722,-5.91834 6.17721,-8.55573l0.20346,-0.19579c0,0 0.06634,-0.06201 0.17772,-0.12866c0.39059,-0.84966 0.88285,-1.69259 1.63928,-2.21173z" data-paper-data="{&quot;index&quot;:null}" fill="#fffeff"/><path d="M251.03667,178.58725c-0.01689,0.01039 -0.03438,0.02061 -0.05249,0.03067c-0.82538,0.45809 -1.28348,-0.36728 -1.28348,-0.36728l-0.37183,-0.67039c-1.40261,-2.66809 -2.70815,-5.46666 -3.94401,-8.22395c1.4862,-1.92809 4.61498,-2.83931 6.91401,-1.23924c1.44278,1.00414 2.04377,3.39588 2.89607,4.83248c0.59024,0.99489 2.05363,1.92421 1.6854,3.33585c-0.55613,2.13192 -4.1542,2.00894 -5.84366,2.30186z" fill="#713617"/><path d="M256.48331,191.53401c0.27224,1.43325 -1.25047,2.2618 -1.90644,3.21464c-0.9472,1.37589 -1.70807,3.72165 -3.21525,4.62626c-2.40166,1.44146 -5.46189,0.32139 -6.81474,-1.70251c1.41892,-2.6677 2.91014,-5.3719 4.48943,-7.93937l0.41618,-0.6438c0,0 0.5127,-0.79262 1.30532,-0.27992c0.01739,0.01125 0.03416,0.02263 0.05031,0.03414c1.66587,0.40614 5.26404,0.526 5.67519,2.69056z" data-paper-data="{&quot;index&quot;:null}" fill="#713617"/><path d="M260.8112,191.62313c0.05249,-0.06976 0.09495,-0.10945 0.09495,-0.10945l0.76661,-0.5492c3.44514,-0.71706 6.8007,2.9805 3.36218,5.67897c-3.46443,2.7188 -6.4109,-1.54772 -4.51348,-4.72881c0,0 0.1028,-0.16659 0.28976,-0.29151z" data-paper-data="{&quot;index&quot;:null}" fill="#4d2813"/><path d="M285.06883,177.63387c-0.01686,0.49972 -0.51658,0.48285 -0.51658,0.48285c-0.66629,-0.02248 -1.49915,-0.05059 -2.16544,-0.07307c0,0 -0.49972,-0.01686 -0.48285,-0.51658c0.01686,-0.49972 0.51658,-0.48285 0.51658,-0.48285c0.66629,0.02248 1.33257,0.04497 1.99886,0.06745l0.16658,0.00562c0,0 0.49972,0.01686 0.48285,0.51658z" fill="#a0531a"/><path d="M284.81438,175.29062c-0.01686,0.49972 -0.51658,0.48285 -0.51658,0.48285c-0.33314,-0.01124 -0.83286,-0.0281 -1.16601,-0.03935c0,0 -0.49972,-0.01686 -0.48285,-0.51658c0.01686,-0.49972 0.51658,-0.48285 0.51658,-0.48285c0.33314,0.01124 0.66629,0.02248 0.99943,0.03373l0.16658,0.00562c0,0 0.49972,0.01686 0.48285,0.51658z" fill="#a0531a"/><path d="M283.8824,173.25803c-0.01686,0.49972 -0.51658,0.48285 -0.51658,0.48285c-0.16658,-0.00562 -0.49972,-0.01686 -0.66629,-0.02248c0,0 -0.49972,-0.01686 -0.48285,-0.51658c0.01686,-0.49972 0.51658,-0.48285 0.51658,-0.48285c0.16658,0.00562 0.33314,0.01124 0.49972,0.01686l0.16658,0.00562c0,0 0.49972,0.01686 0.48285,0.51658z" fill="#a0531a"/><path d="M284.76887,191.46495c-0.01686,0.49972 -0.51658,0.48285 -0.51658,0.48285l-0.49972,-0.01686c-0.28419,-0.01396 -0.57454,0.02778 -0.84617,0.11254c0,0 -0.4794,0.14202 -0.62144,-0.33738c-0.14202,-0.4794 0.33738,-0.62144 0.33738,-0.62144c0.37637,-0.10716 0.77271,-0.162 1.16394,-0.15316l0.49972,0.01686c0,0 0.49972,0.01686 0.48285,0.51658z" fill="#a0531a"/><path d="M285.20675,193.31411c-0.01686,0.49972 -0.51658,0.48285 -0.51658,0.48285c-0.16658,-0.00562 -0.83286,-0.0281 -0.99943,-0.03373c0,0 -0.49972,-0.01686 -0.48285,-0.51658c0.01686,-0.49972 0.51658,-0.48285 0.51658,-0.48285c0.16658,0.00562 0.33314,0.01124 0.49972,0.01686l0.49972,0.01686c0,0 0.49972,0.01686 0.48285,0.51658z" fill="#a0531a"/><path d="M283.95081,195.9399c-0.27598,-0.00931 -0.49217,-0.2406 -0.48285,-0.51658c0.00931,-0.27598 0.2406,-0.49217 0.51658,-0.48285c0.27598,0.00931 0.49217,0.2406 0.48285,0.51658c-0.00931,0.27598 -0.2406,0.49217 -0.51658,0.48285z" fill="#a0531a"/><path d="M280.54839,165.67492c0.0914,0.71303 -0.57798,1.15786 -0.57798,1.15786l-1.25917,0.83483c-2.30201,1.02809 -3.16943,0.74051 -4.75642,-1.21217c-2.01147,-2.16069 -4.58682,-7.2697 -3.83633,-10.40848c0.3832,-1.60264 1.63241,-3.30664 3.77037,-2.30969c1.04773,0.48856 0.86446,2.16103 1.49858,3.12764c1.5576,2.37429 2.57476,5.80005 4.73465,7.65768c0,0 0.55651,0.4965 0.4263,1.15235z" fill="#990000"/><path d="M276.04183,203.57435c-1.57341,1.17843 -2.43303,3.48961 -3.61583,5.05176c-0.48153,0.63597 -0.43316,1.79592 -1.1772,2.08354c-1.51828,0.58691 -2.29905,-0.64433 -2.48831,-1.76551c-0.37067,-2.19584 1.64,-5.59339 3.12533,-6.98738c1.18342,-1.27052 1.79398,-1.42816 3.331,-0.61328l0.82805,0.63332c0,0 0.44015,0.33738 0.34406,0.82402c0.05914,0.45758 -0.34709,0.77351 -0.34709,0.77351z" data-paper-data="{&quot;index&quot;:null}" fill="#990000"/><g><path d="M265.96802,212.23167c0.08034,-0.02541 0.14814,-0.02313 0.14814,-0.02313l0.19738,0.00666c2.20615,0.07445 4.80101,0.30047 6.9778,-0.05901c3.17054,0.09553 6.22077,0.5044 9.40424,0.61182c1.41809,0.04785 2.81944,-0.00774 4.24686,0.04451c0.33823,0.01238 1.19522,-0.05255 1.3542,0.4342c0.29455,0.90187 -2.49805,3.06902 -3.21802,3.23273c-3.14011,1.45431 -7.30095,0.87278 -10.49749,-0.04292c-3.23143,-0.75969 -6.26134,-2.04419 -9.15684,-3.60147c0,0 -0.34711,-0.18845 -0.15867,-0.53557c0.18845,-0.34711 0.53557,-0.15867 0.53557,-0.15867c0.05555,0.0304 0.11116,0.06067 0.16683,0.09084z" fill="#080808"/><path d="M287.71279,212.32529c0.05921,-0.04474 0.14131,-0.07481 0.25509,-0.07097c0.39475,0.01332 0.38142,0.40807 0.38142,0.40807l-0.23346,0.4444c-0.89013,0.38695 -1.67977,0.08087 -2.59789,0.04989c-1.06572,-0.29749 -1.56844,0.45034 -2.63586,0.36221c-1.94138,-0.1603 -4.45337,-0.98995 -6.43225,-1.06341c-2.45172,0.52576 -5.76477,0.40123 -8.25933,0.31705c-0.89749,-0.03029 -1.51102,0.16731 -2.16867,-0.07775l-0.08554,0.15756l-0.38057,-0.20661c-0.13139,-0.0678 -0.21914,-0.20694 -0.21382,-0.36452c0.00532,-0.15758 0.10225,-0.29049 0.2379,-0.34928l0.39363,-0.18049c0.30326,-0.13878 0.61378,-0.26202 0.92737,-0.37555c3.80848,-1.48225 7.93081,-1.85746 12.02548,-1.69715c3.60094,-0.59466 6.30054,0.06344 8.78647,2.64653z" fill="#636163"/><path d="M269.33456,210.68203c0.05881,0.0605 0.102,0.15091 0.09744,0.28594c-0.01332,0.39475 -0.40807,0.38142 -0.40807,0.38142l-0.21839,-0.01504c-0.48943,0.08083 -0.94587,0.13235 -1.40842,0.32066c-0.3203,0.1304 -0.59947,0.35266 -0.92448,0.4709c-3.60316,1.31082 4.36449,0.73726 2.64515,3.0145c-0.79547,1.46521 -3.6107,3.04905 -5.33835,2.54219c-2.1719,-0.6372 -1.24994,-2.25251 0.15429,-2.8736c0.74232,-0.64425 -1.5661,-1.9658 -1.12679,-3.365c0.43921,-1.39889 3.69759,-1.0617 1.45698,-2.27999c-0.98792,-0.67036 -1.05648,-1.89281 0.21818,-2.38378c2.27887,-0.87777 4.10589,2.05939 4.8288,3.6117c0,0 0.06563,0.14313 0.02364,0.29008z" fill="#ffe900"/><path d="M288.31753,214.27328c-0.21228,-0.00275 -0.42605,0.0213 -0.633,0.06736c-1.25388,0.20285 -2.63522,-0.92369 -1.38225,-2.09485c1.18362,-1.10634 4.82845,-0.13374 6.29389,1.06113l0.16227,-0.15167l0.28607,0.30605c0.06903,0.07385 0.10987,0.17402 0.10619,0.28303c-0.00736,0.21802 -0.19006,0.38878 -0.40807,0.38142l-0.35799,-0.01208c-1.34377,0.29756 -2.69764,0.21094 -4.06713,0.1596z" fill="#a5aaa5"/></g><path d="M248.25501,213.74255c0.12593,-0.59898 0.77814,-0.80362 0.77814,-0.80362l0.91983,-0.27681c1.24809,-0.20415 2.3747,-0.29738 3.63089,-0.35699c1.17748,-0.05587 2.17725,-0.51813 3.25858,0.46187c1.65463,1.49958 1.16041,3.86948 -0.61736,5.01914c-3.18728,2.06117 -7.57709,0.56598 -8.22507,-3.09421c0,0 -0.09178,-0.56107 0.255,-0.94938z" fill="#de8f31"/><path d="M251.2678,153.43511c0.89325,-3.60819 5.37387,-4.80404 8.41494,-2.53269c1.69624,1.26689 2.02956,3.66473 0.27761,5.04934c-1.14493,0.90487 -2.11126,0.37627 -3.2823,0.24115c-1.24931,-0.14416 -2.36708,-0.31312 -3.59856,-0.60095l-0.89908,-0.33817c0,0 -0.63692,-0.24814 -0.72219,-0.85426c-0.31981,-0.4108 -0.19042,-0.96442 -0.19042,-0.96442z" data-paper-data="{&quot;index&quot;:null}" fill="#de8f31"/></g></g></svg>