<svg version="1.1" xmlns="http://www.w3.org/2000/svg" xmlns:xlink="http://www.w3.org/1999/xlink" width="30.97484" height="43.73929" viewBox="0,0,30.97484,43.73929"><g transform="translate(-224.50422,-158.12709)"><g data-paper-data="{&quot;isPaintingLayer&quot;:true}" fill="#ffffff" fill-rule="nonzero" stroke="#000000" stroke-width="0.5" stroke-linecap="square" stroke-linejoin="miter" stroke-miterlimit="10" stroke-dasharray="" stroke-dashoffset="0" style="mix-blend-mode: normal"><path d="M255.22906,186.6774c0,2.53632 -0.45371,4.74166 -1.36113,6.61599c-0.90742,1.87435 -2.14211,3.42887 -3.70407,4.66356c-1.56196,1.22725 -3.39911,2.14583 -5.51147,2.75573c-2.10493,0.60247 -4.3586,0.90371 -6.76103,0.90371c-1.15287,0 -2.28714,-0.08182 -3.40283,-0.24545c-1.10825,-0.17108 -2.20534,-0.39793 -3.29127,-0.68057c-1.07849,-0.28264 -2.14954,-0.6099 -3.21316,-0.9818c-1.06361,-0.37189 -2.13467,-0.77354 -3.21316,-1.20494l1.11568,-11.64773c0.7066,0.38677 1.45783,0.7475 2.25368,1.08221c0.80329,0.32727 1.6289,0.60991 2.47682,0.84792c0.84792,0.23057 1.70699,0.41652 2.57723,0.55783c0.87024,0.13388 1.71443,0.20082 2.5326,0.20082c0.4909,0 1.08593,-0.04091 1.78509,-0.12273c0.7066,-0.08926 1.37974,-0.25661 2.01938,-0.50206c0.6471,-0.24545 1.19749,-0.57644 1.6512,-0.99296c0.46114,-0.42397 0.69172,-0.97808 0.69172,-1.66236c0,-0.63966 -0.18222,-1.19378 -0.54668,-1.66236c-0.35702,-0.46858 -0.8256,-0.85536 -1.40575,-1.1603c-0.57271,-0.30495 -1.21981,-0.54297 -1.94129,-0.71403c-0.72147,-0.17852 -1.45039,-0.31611 -2.18674,-0.41281c-0.72892,-0.09669 -1.42064,-0.1562 -2.07517,-0.17851c-0.65454,-0.02231 -1.19378,-0.03348 -1.61774,-0.03348c-0.88511,0 -1.78137,0.04091 -2.68879,0.12273c-0.90742,0.07438 -1.78881,0.23058 -2.64417,0.46859l1.17147,-23.66365l23.7194,-0.6471l0.6471,12.23904l-14.7047,-0.81445l-0.29008,5.21026c0.87767,-0.2157 1.75535,-0.37562 2.63301,-0.47975c0.87767,-0.11157 1.75534,-0.16735 2.63301,-0.16735c1.77765,0 3.43259,0.29008 4.96479,0.87024c1.5322,0.57271 2.8673,1.39832 4.0053,2.47682c1.14543,1.07106 2.04542,2.36525 2.69995,3.88258c0.65454,1.5099 0.9818,3.20202 0.9818,5.07636z"/></g></g></svg>