<svg version="1.1" xmlns="http://www.w3.org/2000/svg" xmlns:xlink="http://www.w3.org/1999/xlink" width="187.64836" height="180.60647" viewBox="0,0,187.64836,180.60647"><g transform="translate(-149.75491,-58.60218)"><g data-paper-data="{&quot;isPaintingLayer&quot;:true}" stroke-linecap="butt" stroke-linejoin="miter" stroke-miterlimit="10" stroke-dasharray="" stroke-dashoffset="0" style="mix-blend-mode: normal"><path d="M321.8467,144.19809c0,44.73506 -36.60072,81 -81.75,81c-45.14928,0 -81.75,-36.26494 -81.75,-81c0,-44.73506 36.60072,-81 81.75,-81c45.14928,0 81.75,36.26494 81.75,81z" fill="#ff0000" fill-rule="nonzero" stroke="#fffdff" stroke-width="4.5"/><path d="M252.14271,117.56158c0.30317,1.21268 -0.90951,1.51585 -0.90951,1.51585l-1.38197,0.34447c-3.27564,0.5473 -6.27015,0.69286 -9.58787,0.69286c-9.28828,0 -18.34414,1.66667 -27.66667,1.66667c0,0 -1.25,0 -1.25,-1.25c0,-1.25 1.25,-1.25 1.25,-1.25c9.31886,0 18.37827,-1.66667 27.66667,-1.66667c3.1515,0 5.97115,-0.12387 9.0788,-0.64048l1.2847,-0.3222c0,0 1.21268,-0.30317 1.51585,0.90951z" fill="#000000" fill-rule="nonzero" stroke="none" stroke-width="0.5"/><path d="M285.74271,95.09886c0.16106,-0.06848 0.32521,-0.13082 0.49493,-0.18616c-0.02898,-0.04152 -0.0555,-0.08488 -0.07936,-0.12987c-0.13989,0.10328 -0.27828,0.20904 -0.41557,0.31604zM289.1571,97.14876c0.11211,-0.01033 0.22898,-0.01554 0.34852,-0.01681c-0.0495,-0.02746 -0.09872,-0.05533 -0.14764,-0.08363zM294.07351,99.03712c0.53809,0.01284 1.00954,0.10288 1.35358,0.33748c0.11696,-0.02676 0.2337,-0.05469 0.35021,-0.08382l0.15273,0.06925v-0.07862h0.81026c-1.11768,-0.28946 -2.40192,-0.52689 -2.41783,-0.53045c-0.05216,-0.01169 -0.10414,-0.0234 -0.15594,-0.03515c-0.01666,0.1127 -0.04837,0.2205 -0.09301,0.3213zM269.56521,103.65025c-7.85502,2.35419 -15.55246,4.13117 -23.96851,4.13117c-1.53087,0 -3.50488,0.23505 -5.36411,0.20688c0.44227,0.19756 0.86246,0.41779 1.22892,0.67783c0.06802,0.02917 0.13598,0.05863 0.2039,0.0884c0.23726,0.06846 0.47514,0.13305 0.71364,0.19355h1.55099v0c0.69036,0 1.25,0.55964 1.25,1.25c0,0.13513 -0.02144,0.26525 -0.06111,0.38714c0.90116,0.50409 1.98067,0.7698 2.63011,1.66854c0.01755,0.02429 0.03493,0.04868 0.05214,0.07317l0.01274,-0.01274l1.66667,1.66667v0c0.22621,0.22621 0.36612,0.53871 0.36612,0.88388c0,0.69036 -0.55964,1.25 -1.25,1.25c-0.28595,0 -0.54948,-0.09602 -0.7601,-0.25758l-1.32323,-0.99242c-2.36772,-1.84111 -6.0024,-2.42002 -8.81297,-3.55062c-2.4316,-1.49692 -4.98129,-2.83303 -7.3487,-4.43419c-0.74539,-0.27963 -1.48614,-0.56336 -2.21924,-0.8546l-0.76145,-0.3759c0,0 -0.93851,-0.46926 -0.66586,-1.40777c-0.79072,-0.51327 -1.61545,-0.94783 -2.48116,-1.18379c-2.90195,-0.79096 -6.10822,-0.05135 -9.06372,-0.28073c-1.28536,-0.09976 -2.55667,-0.37288 -3.8251,-0.66963c-0.24661,0.00437 -0.49283,0.00722 -0.73846,0.00722c-5.62847,0 -11.78641,0.64069 -17.534,0.05121c-1.20221,0.34084 -2.42231,0.60836 -3.79933,0.61545c0,0 -1.25,0 -1.25,-1.25c0,-0.15761 0.01987,-0.29535 0.05461,-0.41572c-0.26932,-0.22644 -0.50402,-0.60718 -0.35062,-1.22079c0.30317,-1.21268 1.51585,-0.90951 1.51585,-0.90951c1.23829,0.30957 2.49485,0.51266 3.76468,0.63782c1.0796,-0.33232 2.15253,-0.71884 3.32458,-0.97802c1.70147,-0.37626 2.77959,-0.22662 4.32038,-0.99701l1.6078,-0.03318c0.00831,-0.00026 0.01273,-0.00026 0.01273,-0.00026c0,0 0.00474,0 0.01364,0.00029l0.78086,0.01672c0.65032,-0.10805 1.30064,-0.2161 1.95096,-0.32415c10.24423,-2.56106 21.7305,-0.60637 30.53694,5.09421l0.02077,-0.08308l0.11551,0.02888c0.01919,-0.02184 0.03077,-0.03342 0.03077,-0.03342c2.30995,-2.29901 4.55465,-5.13589 5.71153,-8.21647c0.8627,-2.29723 0.67711,-4.64665 3.44374,-5.75217c2.52129,-1.00749 7.34667,-0.06415 10.06195,-0.06415c2.42502,0 6.88386,-0.82596 8.84931,0.99951c2.20461,2.0476 3.66558,5.72524 5.46928,8.14789c0.28276,0.37978 0.76043,1.02732 1.0167,1.5742c0.97973,-1.32592 1.59545,-1.24407 3.15264,-1.94523c1.68173,-0.75723 3.98897,-1.39042 5.44785,-2.54042c0.99492,-0.78427 1.86688,-1.76678 3,-2.33333c3.70071,-3.7753 7.45836,-3.56928 12.39755,-3.56928c1.358,0 3.80832,-0.37611 4.88388,0.69945c0.59101,0.59101 1.11696,3.60397 0.44739,4.30329c-1.52378,1.59147 -4.33721,1.89413 -6.98183,1.90678c2.78775,0.71809 8.58544,1.42464 8.21776,4.87404c-0.22604,2.1206 -3.76377,3.04186 -5.32205,3.35883c-4.57398,0.93041 -9.57836,0.35761 -14.24515,0.35761c-1.47287,0 -3.05229,-0.13825 -4.51394,-0.00937c-0.74858,0.06601 -1.52063,0.303 -2.29782,0.63109c2.10421,1.06188 3.75803,2.37979 5.58102,3.80969c5.85817,4.59497 13.88641,6.75007 16.73642,14.55157c0.92536,2.53304 0.41098,5.79788 0.41098,8.43368c0,2.61697 0.44075,5.63932 -0.01614,8.20023c-0.54334,3.04547 -2.61095,5.56692 -2.99322,8.61917c-0.19386,1.54788 0.19734,3.17327 0.00328,4.7241c-0.03142,0.25113 -0.47952,0.49825 -0.3152,0.69074c0.15611,0.18287 0.23093,-0.42502 0.38317,-0.61112c0.19823,-0.24231 1.75996,-1.80699 1.86911,-1.90077c1.19282,-1.02481 2.40703,-2.05527 3.66667,-3c1.52318,-1.52852 3.36729,-4.1379 5.42372,-4.9082c2.39745,-0.89805 7.89763,-0.46741 7.63782,2.98892c-0.17164,2.28335 -2.64675,2.86949 -4.07555,4.12835c-3.20121,2.82045 -8.26784,6.62247 -8.25032,11.06859c-0.62722,0.76999 2.59904,0.1364 3.42617,-0.39665c2.17794,-1.40357 3.13135,-4.08269 5.25961,-5.61741c2.94998,-2.12728 8.72866,-6.81903 12.59349,-3.55727c1.3455,1.13554 1.05406,4.69336 1.05406,6.23799c-0.21714,4.89505 -5.40574,4.19014 -8.90964,6.38625c-2.73285,1.71285 -5.71108,3.84269 -8.19906,5.90086c-1.19352,0.98734 -2.37214,2.14545 -3.85411,2.59612c-1.04063,0.31646 -4.29742,0.27852 -5.28752,-0.01192c-1.08287,-0.31765 -1.85824,-1.38298 -2.95352,-1.65475c-1.04143,-0.25841 -2.63518,0.03344 -3.71281,0.03344c-2.4898,-0.00981 -5.87909,0.53047 -8.03731,1.83001c-1.49862,0.90237 -2.48206,2.37959 -3.97219,3.31664c-1.35109,0.84961 -3.36612,1.19104 -4.53798,2.2421c-3.45534,3.09915 -7.09949,8.50138 -11.78551,9.89923c-0.19849,0.05921 -3.54418,0.04536 -3.83367,0.04536c-4.30438,0 -7.76118,0.41027 -11.56516,2.51242c-1.24326,0.68705 -2.57282,1.41576 -3.06353,2.90458c-0.79397,2.40888 -0.20594,7.55642 0.34824,10.05876c0.28981,1.3086 1.54888,2.79155 0.84377,3.9314c-0.43275,0.69956 -2.8673,0.59284 -3.72998,0.59284c-2.60676,0 -3.37703,-0.4877 -5.47835,-1.76182c-0.66045,-0.40046 -1.42061,0.8467 -2.18831,0.76182c-0.85218,-0.09422 -1.7092,-0.52127 -2.30839,-1.13451c-1.28623,-1.31638 -0.94161,-4.80798 -0.94161,-6.44883c0,-2.24951 -0.40004,-5.09079 0.03344,-7.28719c0.62014,-3.14219 5.42597,-6.28298 7.99444,-7.83262c2.40485,-0.951 4.99153,-2.87624 5.31482,-5.69959c0.17397,-1.51934 -0.15028,-2.77024 0.40161,-4.28095c0.82557,-2.25988 2.28593,-4.11279 2.25569,-6.56632c-0.02415,-1.95932 -0.41987,-3.59455 -0.6573,-5.51394c-0.08454,-0.68345 0.68549,-1.5123 0.25538,-2.05013c-0.13182,-0.16484 -0.41487,0.07797 -0.62231,0.11695c-5.33253,-1.08706 -11.10111,-1.37398 -16.5156,-1.97563c-2.655,-0.29502 -5.54911,0.48613 -8.08071,-0.78191c-2.85608,-1.43057 -5.07369,-5.02421 -5.32281,-8.13705c-3.20251,1.34859 -7.25826,1.25837 -10.47331,1.25837c-5.72984,0 -13.39649,1.16615 -18.32383,-1.85335c-0.54752,-0.33552 -2.61206,-1.18031 -2.92936,-1.55026c-2.65615,-3.09686 -1.99681,-8.44795 -1.99681,-12.17972c0,-1.87894 -0.58355,-5.17075 2.97862,-4.51919c0.55732,0.10194 1.88845,2.28079 2.32131,3.89246c0.57445,-1.27195 1.49214,-2.56553 3.34985,-1.89096c0.81752,0.29686 1.29319,1.15067 1.79105,1.89497c0.22759,-0.76595 0.90349,-1.49354 1.60895,-1.61115c0.92137,-0.15361 1.68884,0.90136 2.28798,1.61799c1.05644,1.2636 1.47929,5.40119 1.49558,6.94921c-0.02983,3.75973 3.50279,2.75 6.41667,2.75c1.67964,0 4.09462,0.45458 5.71281,0.03344c1.59374,-0.41478 1.64307,-1.04414 2.80152,-2.06109c3.17537,-2.78751 6.15059,-5.64262 9.5722,-8.16291c1.9744,-0.67233 3.89962,-1.21839 5.81171,-1.65506c1.03479,-0.49798 2.1699,-0.79495 3.43509,-0.82105c0.33886,0 0.67941,-0.00272 1.02136,-0.00748c3.22618,-0.46642 6.4948,-0.65918 9.97864,-0.65918h0.44638c0.36908,-0.33333 0.88695,-0.33333 0.88695,-0.33333h1.33333c3.12595,0 6.34175,0.2399 9.42637,-0.31002c2.79162,-0.49768 5.31609,-1.92655 7.93191,-2.88881c0.19007,-1.97471 0.25902,-3.79878 -1.0102,-5.44858c-1.12364,-1.46055 -3.16122,-2.74898 -2.57679,-4.98167c-0.72268,0.50614 -1.46803,0.95538 -2.21227,1.33044l-0.00847,0.09918c0,0 -0.88388,0.88388 -1.76777,0c-0.88388,-0.88388 0,-1.76777 0,-1.76777l0.6582,-0.56748c2.07536,-1.02819 4.17472,-2.78574 5.57376,-4.65123c1.07626,-1.43509 1.46789,-3.1478 2.76804,-4.44795c1.5213,-1.5213 2.94539,-1.55361 4.76647,-2.28202c1.23547,-0.49417 2.44121,-1.12906 3.65323,-1.75589c-0.60476,0.08445 -1.23269,0.10302 -1.90064,0.04062zM223.2462,99.47154c0.01942,-0.02718 0.03904,-0.05312 0.05885,-0.07786c-4.24715,-0.983 -9.73493,-0.95043 -14.24543,-0.31395c0.16937,0.03522 0.33861,0.07156 0.50778,0.1087c2.79841,-0.04385 5.5586,0.11793 8.22953,0.7758c1.72956,0.12983 3.46343,0.16478 5.18795,0.21673c0.00525,-0.21314 0.07744,-0.45197 0.26133,-0.70941zM235.10915,105.93185l1.75894,-0.58631l0.00582,0.01745c0.06241,-0.0233 0.12547,-0.04517 0.18924,-0.06545c0.06014,-0.01913 3.54445,-0.01614 4.20023,-0.01614c2.9042,0 5.86828,0.15399 8.76782,0.00172c5.47266,-0.2874 10.79963,-1.58917 16.04753,-3.15166c0.13786,-0.40849 0.48108,-0.72246 0.90685,-0.81908l1.30797,-0.32699l0.00679,0.02716l0.05609,-0.04116c0.03389,-0.00479 0.06771,-0.00971 0.10147,-0.01476c-0.48183,-0.7923 -0.93813,-1.66966 -1.17977,-1.98928c-1.83049,-2.42116 -3.19835,-5.57071 -5.19739,-7.85211c-0.96451,-1.10074 -5.95469,-0.33382 -7.15069,-0.33382c-2.59385,0 -6.83378,-0.85089 -9.27138,-0.06415c-1.53696,0.49606 -1.45002,3.07425 -1.8896,4.24783c-1.22351,3.26656 -3.50425,6.25569 -5.93083,8.7533c0.0056,0.04801 0.00848,0.09684 0.00848,0.14635c0,0.69036 -0.55964,1.25 -1.25,1.25h-1.33333v-0.14022l-0.28719,0.10678c-1.11172,-0.53259 -2.22264,-0.93999 -3.33619,-1.25428c1.13493,0.73973 2.29189,1.45063 3.46916,2.10484zM276.36032,98.63731c0.22055,-0.04777 0.44518,-0.09043 0.67342,-0.12826c0.4548,-0.28743 0.91633,-0.5559 1.39061,-0.78744c0.92273,-0.45047 1.935,-0.50779 2.92748,-0.66477c-0.02981,-0.03371 -0.05932,-0.06991 -0.08846,-0.10876c-0.27211,-0.36281 -0.31386,-0.69272 -0.25659,-0.96583c-0.2222,0.19429 -0.44689,0.38472 -0.67919,0.56322c-1.80006,1.3832 -4.23793,1.78542 -6.2782,2.75085c0.75329,-0.25416 1.51714,-0.48708 2.31093,-0.65901zM296.51337,92.19809c0,0.06119 -0.0044,0.12136 -0.01289,0.1802c0.91392,-0.2911 1.4646,-0.71073 0.87901,-1.29632c-0.13626,-0.13626 -0.94636,-0.11481 -1.71104,-0.06679c0.49154,0.16828 0.84492,0.63433 0.84492,1.1829zM268.71411,107.69732c-1.53094,0.61239 -2.6429,0.46069 -3.9002,1.71798c-1.16465,1.16465 -1.58642,2.91361 -2.56529,4.21872c-0.63901,0.85198 -1.39861,1.67417 -2.23069,2.43164c1.15838,-0.89734 2.32241,-1.70666 3.51455,-2.54829c2.23208,-1.57581 4.03457,-3.99001 5.79573,-6.0887c-0.20798,0.09792 -0.41284,0.18815 -0.6141,0.26866zM298.32676,99.87406c0.01516,0.02446 0.02949,0.04949 0.04297,0.07504c-0.00406,-0.02434 -0.01876,-0.0494 -0.04297,-0.07504z" fill="#000000" fill-rule="nonzero" stroke="none" stroke-width="0.5"/><path d="M251.56588,98.82745c0.6032,-0.38254 1.07209,-1.12277 1.78339,-1.18796c5.36131,-0.49136 2.31874,6.28029 -0.79871,7.10849c-1.8563,0.49316 -3.95848,0.11997 -5.95386,-0.12727v0.16071h-1.33333c-0.32821,0 -0.62688,-0.1265 -0.84991,-0.3334c-0.0502,-0.00035 -0.10023,-0.00033 -0.15009,0.00006c0,0 -1.25,0 -1.25,-1.25c0,-1.25 1.25,-1.25 1.25,-1.25c0.58241,0.00367 1.16719,0.04854 1.74717,0.10807l0.18235,-0.04559c1.88847,-0.95968 3.58313,-2.04803 5.37299,-3.18313z" fill="#fafafa" fill-rule="nonzero" stroke="none" stroke-width="0.5"/><path d="M223.1772,98.9489c-0.00917,0.13591 -0.03215,0.256 -0.06582,0.36212c0.83335,0.0584 1.66232,0.14721 2.48532,0.28999v-0.31959h1.66667c0.69036,0 1.25,0.55964 1.25,1.25c0,0.59488 -0.41555,1.0927 -0.9722,1.21902l-1.30797,0.32699l-0.01683,-0.06733l-0.13361,0.09528c-0.79786,0.00503 -1.69459,-0.0818 -2.59845,-0.13147c-0.7646,0.09344 -1.63598,0.10604 -2.52957,0.07185c-0.7291,0.12159 -1.39667,0.36583 -1.94137,0.81899c0,0 -1,0.75 -1.75,-0.25c-0.26113,-0.34817 -0.31012,-0.66603 -0.26303,-0.93249c-0.76619,-0.09798 -1.42455,-0.19062 -1.8897,-0.24354c-0.23866,-0.02715 -2.95315,0.06245 -3.13446,-0.02407c-2.9117,-1.38954 -3.35472,-2.5427 0.28686,-4.08787c0.12871,-0.05461 4.0341,-0.0457 4.667,-0.04536c1.43293,0.00077 2.86513,0.12654 4.28942,0.28372l0.79473,0.05244c0,0 1.24716,0.08414 1.16302,1.33131z" fill="#000000" fill-rule="nonzero" stroke="none" stroke-width="0.5"/><path d="M252.06446,89.13c1.03807,-0.16379 2.39068,-0.42452 3.19795,0.20197c0.05198,0.00425 0.10401,0.00861 0.15607,0.01307c1.20107,-0.19595 2.53443,-0.37539 3.6029,-0.22449c0.65372,-0.05799 1.32289,-0.09212 2.03426,-0.09188l0.11488,0.08121l0.01285,-0.06122l1.20521,0.25304c0.57876,0.10936 1.01649,0.61768 1.01649,1.22823c0,0.10482 -0.0129,0.20663 -0.03721,0.30393c0.10936,0.05566 0.20944,0.12694 0.29729,0.2109l1.42089,1.3526l-0.1585,0.1665c0.00131,0.00119 0.00263,0.00239 0.00394,0.00358c1.17405,1.06897 3.16001,3.75219 3.63911,5.89807c0.21415,0.51618 0.43019,1.059 0.65668,1.63145l-0.00206,0.03345l0.01239,-0.00421l0.47112,1.38777c1.55181,-0.84249 3.45299,-1.45238 4.85185,-2.29286c0.9382,-0.68302 3.37315,-3.2252 4.5333,-3.44093c3.38951,-0.63029 3.56248,0.0603 2.59308,2.90442c-0.6456,1.89412 -3.19853,3.11042 -4.67262,4.235c-2.69138,2.05325 -4.79683,4.7865 -7.51006,6.9473c-1.48454,2.19479 -4.33319,4.37043 -5.93966,5.2993l-1.30203,0.81377c-0.19548,0.12667 -0.42857,0.20022 -0.67884,0.20022c-0.21808,0 -0.42311,-0.05585 -0.60158,-0.15402c-0.97889,0.56828 -2.07352,1.07021 -3.18728,1.43255c-0.51187,1.66482 -3.23366,2.26349 -4.52803,2.60981c-1.80771,0.48367 -3.67378,0.80072 -5.56469,1.00719c-0.83797,0.42663 -1.70952,0.77138 -2.74928,0.98722c-4.11708,1.64156 -8.3351,1.38515 -12.68952,1.38515c-6.45629,0 -12.89762,-0.33333 -19.33333,-0.33333c0,0 -1.25,0 -1.25,-1.25c0,-1.25 1.25,-1.25 1.25,-1.25c4.10851,0 8.21862,0.13582 12.33354,0.23406c0.212,-0.37391 0.59146,-0.55702 0.59146,-0.55702c4.0433,-1.93031 8.54858,-2.02412 12.96808,-1.53505l0.48943,0.06917c0,0 0.02706,0.00386 0.0726,0.01443c0.83827,-0.10231 1.67955,-0.25524 2.52204,-0.5071c2.07946,-0.62165 3.87683,-1.95825 5.79717,-2.91985l0.24145,-0.12073c-0.15341,-0.18801 -0.31397,-0.37517 -0.48105,-0.55979c-0.34183,-0.08822 -0.67014,-0.21059 -0.98052,-0.37251c-0.72973,-0.38069 -1.50125,-1.28042 -2.21024,-2.1338c-0.56486,-0.276 -1.15075,-0.47446 -1.74719,-0.56655c0,0 -1.22984,-0.22361 -1.00623,-1.45344c0.01571,-0.08642 0.03639,-0.16566 0.06127,-0.2383c-0.29479,-0.14976 -0.59444,-0.28992 -0.89607,-0.42288l-0.04365,-0.0507l-0.01189,0.0208l-1.1456,-0.65463c-0.38786,-0.21221 -0.65089,-0.62406 -0.65089,-1.09734c0,-0.69036 0.55964,-1.25 1.25,-1.25h0.31303c-0.23246,-0.22699 -0.37677,-0.54385 -0.37677,-0.89441c0,-0.07082 0.00589,-0.14026 0.0172,-0.20787l0.01934,-0.12858c-0.46468,0.67848 -0.86159,1.25113 -0.89012,1.26673c-1.66206,0.90879 -6.00999,-0.98097 -7.39643,-1.69143c0,0 -1.10888,-0.57697 -0.53191,-1.68585c0.57697,-1.10888 1.68585,-0.53191 1.68585,-0.53191c0.44094,0.23372 2.80693,1.24166 4.18683,1.59367c-0.00029,-0.0111 -0.00044,-0.02224 -0.00044,-0.03341c0,-0.13767 0.02226,-0.27014 0.06337,-0.39402l0.70273,-2.29358l0.03178,0.00974c0.01641,-0.07439 0.03481,-0.14848 0.05541,-0.22226c0.17208,-0.61653 0.65167,-1.07908 1.11519,-1.5494c0.79458,-1.624 1.70784,-3.2448 2.80513,-4.6875c-0.00731,-0.0207 -0.01458,-0.04159 -0.02182,-0.06267c-1.55529,-4.52744 6.52955,-8.15674 9.76801,-5.83594c0.07041,0.00138 0.14119,0.00283 0.21233,0.00437c0.07429,-0.01448 0.14831,-0.02755 0.22203,-0.03919zM244.48535,104.10151c2.03848,0.47156 4.14343,0.51608 6.25031,0.55529c1.11666,-0.32298 2.21285,-0.77145 3.28052,-1.13532c0.57067,-1.86702 1.1298,-3.58913 1.93938,-5.27075c-0.34608,-0.15932 -0.70778,-0.29518 -1.09288,-0.40756c-0.39948,0.14152 -0.84422,0.39501 -1.33739,0.78304c-1.01897,0.80174 -1.5773,2.10817 -2.62845,2.86723c-1.7147,1.23823 -4.39948,0.61034 -6.30375,1.38267c-0.39735,0.16116 -0.57074,0.56668 -0.72436,1.00402zM264.11742,104.38412l0.0133,-0.00785l-0.02912,-0.01977c-0.12732,-0.24331 -0.26529,-0.49605 -0.41136,-0.7569c-0.22747,-0.25585 -0.40755,-0.54856 -0.56003,-0.86233c-0.0032,0.06599 -0.0068,0.13211 -0.01082,0.19836c-0.03418,0.56334 0.066,1.15923 0.05771,1.72791c0.31934,-0.08178 0.63794,-0.16634 0.95567,-0.25342zM244.59743,100.02471c-0.06609,0.10218 -0.13163,0.20454 -0.19641,0.30717c0.09027,-0.01815 0.18265,-0.03437 0.2768,-0.04898c-0.02733,-0.08506 -0.05414,-0.17115 -0.08039,-0.25818zM265.03054,108.94151c-0.25432,0.16279 -0.51015,0.32258 -0.76733,0.4791c0.04827,0.02792 0.09491,0.05688 0.13987,0.0869c0.21173,-0.18824 0.42093,-0.37715 0.62747,-0.566zM270.50041,105.93015v0.04437c0.16147,-0.12044 0.32224,-0.24172 0.48209,-0.36402c1.27207,-0.97322 2.16078,-2.29841 3.2274,-3.46799c-0.48098,0.20438 -0.98527,0.40907 -1.48024,0.62082c0.06694,0.15316 0.10408,0.32232 0.10408,0.50016c0,0.499 -0.2924,0.92971 -0.7152,1.13014l-1.79391,0.89696c0.11164,0.18711 0.17579,0.40585 0.17579,0.63956z" fill="#000000" fill-rule="nonzero" stroke="none" stroke-width="0.5"/><path d="M297.65711,102.07107c-0.88388,0.88388 -1.76777,0 -1.76777,0l-0.77328,-0.82057c-1.07955,-0.34156 -2.09057,-0.90047 -3.03621,-1.52325c0,0 -1.04006,-0.69338 -0.34669,-1.73344c0.69338,-1.04006 1.73344,-0.34669 1.73344,-0.34669c0.91424,0.61845 1.92134,1.11397 2.96379,1.47675l1.22672,1.17943c0,0 0.88388,0.88388 0,1.76777z" fill="#0d0916" fill-rule="nonzero" stroke="none" stroke-width="0.5"/><path d="M291.1552,93.7462c-0.55902,-1.11803 0.55902,-1.67705 0.55902,-1.67705l1.16373,-0.56782c1.7429,-0.56347 3.08106,-0.56415 4.89528,-0.56415c0,0 1.25,0 1.25,1.25c0,1.25 -1.25,1.25 -1.25,1.25c-1.54751,0 -2.63758,-0.07232 -4.10472,0.43585l-0.83627,0.43218c0,0 -1.11803,0.55902 -1.67705,-0.55902z" fill="#0d0916" fill-rule="nonzero" stroke="none" stroke-width="0.5"/><path d="M327.22472,145.24525c0,46.47093 -38.19355,84.14307 -85.30768,84.14307c-47.11413,0 -85.30768,-37.67214 -85.30768,-84.14307c0,-46.47093 38.19355,-84.14307 85.30768,-84.14307c47.11413,0 85.30768,37.67214 85.30768,84.14307z" fill="#ec2329" fill-rule="nonzero" stroke="#ffffff" stroke-width="5"/><path d="M192.24893,136.51752l0.23817,-0.62731c-0.80742,-2.02381 -1.70654,-4.0129 -2.68267,-5.96095c0,0 -1.48921,-2.97841 1.48921,-4.46762c2.97841,-1.48921 4.46762,1.48921 4.46762,1.48921c1.04915,2.10249 2.01853,4.24718 2.89409,6.4277c0.24392,0.43801 0.33955,0.78866 0.33955,0.78866c0.96252,3.541 0.85754,9.51519 2.89692,12.58588c1.31899,1.98602 5.72786,2.13143 7.6741,2.38515c2.26777,0.29563 6.87566,1.19544 9.03584,0.47118c1.52426,-0.51105 2.60797,-3.20832 3.25914,-4.23054c2.23683,-3.51147 2.51063,-4.12784 6.46445,-6.40401c5.12043,-2.94778 11.20508,-3.13195 16.86536,-4.14128c1.52647,-0.00086 4.96518,0.18197 6.60463,-0.42973c3.12055,-1.1643 4.6734,-4.44958 8.35682,-3.74514c0.65255,0.1248 -1.2411,-0.47464 -1.8607,-0.7144c-0.7144,-0.27645 -1.45581,-0.54277 -2.22017,-0.59329c-3.64238,-0.24076 -7.6162,1.76905 -11.18542,2.17132c-4.87402,0.54933 -9.75848,-0.92164 -14.61903,-0.91581c-4.04822,0.00486 -8.38522,0.93106 -12.42687,0.31067c-2.22333,-0.34127 -5.60165,0.45537 -6.5607,-1.5793c-3.42936,-7.27546 4.23738,-8.05051 7.55785,-9.07258c5.72106,-0.5355 11.38704,-1.4034 17.07843,-2.05923c-1.77083,-1.24838 -3.89731,-2.30316 -5.82971,-3.014c-10.35579,-3.80939 -21.89754,-3.84721 -32.75021,-3.84721h-3.41739c-1.83909,0 -3.32996,-1.49088 -3.32996,-3.32996c0,-0.9959 0.43718,-1.88969 1.1301,-2.49992l2.7836,-2.4743l0.10517,0.11831c0.20393,-0.21875 0.41946,-0.42719 0.64899,-0.6232c0.915,-0.78139 7.08631,-1.16082 8.34671,-1.25831c7.01117,-0.54234 13.91425,-1.30038 20.94411,-1.56083c3.5552,-0.13172 4.60092,-0.60676 8.19364,-0.29967c1.25293,0.1071 2.52714,0.24616 3.71402,0.6616c0.48039,0.16815 0.79813,1.42227 1.12511,1.03224c0.49144,-0.5862 -0.34287,-1.58019 -0.06747,-2.29383c0.5538,-1.43503 1.57341,-2.64715 2.45948,-3.90449c5.76861,-8.18564 14.83197,-8.64608 23.531,-5.21231c4.66764,1.89337 7.66133,4.12802 10.13257,7.91081c4.02039,-3.79155 8.14187,-5.6844 14.0964,-7.16721c2.33324,-0.58103 4.66737,-1.62942 7.06544,-1.45388c0.1381,0.01011 0.27585,0.02225 0.41328,0.03631l0.00192,-0.04418l6.63622,0.28853c1.78013,0.06687 3.20274,1.53109 3.20274,3.32758c0,1.17419 -0.60773,2.20643 -1.5258,2.79935l-2.75307,1.83538l-0.00129,-0.00192l-0.00418,0.00557c-1.11867,0.73903 -2.30538,1.44533 -3.54113,2.03607c4.39155,0.82836 8.64839,2.34266 12.48048,4.79683c1.55714,0.99724 3.48428,1.81108 4.34644,3.44689c0.11548,0.21912 0.22423,0.44091 0.32694,0.66513l0.0792,-0.0396l2.94845,5.89691c0.24363,0.46275 0.38151,0.98983 0.38151,1.54912c0,1.83909 -1.49088,3.32996 -3.32996,3.32996c-0.42704,0 -0.83531,-0.08039 -1.2105,-0.22685l-3.34488,-1.21632l0.00573,-0.01574l-0.05524,-0.0027c-2.81937,-1.1324 -4.89684,-2.09188 -8.0613,-2.62285c-4.2804,-0.71821 -9.43505,0.07175 -14.04371,-0.27013c3.30998,4.27244 5.6886,9.1619 7.75217,14.41013c1.84399,4.68978 4.14997,9.48879 5.40967,14.37944c2.36025,9.16343 0.95536,19.19773 -3.69424,27.29451c4.35154,-0.08958 8.77305,-0.52948 13.04868,-1.1931c2.17148,-0.33704 4.28847,-1.53962 6.46919,-1.26878c0.14842,0.01843 0.29587,0.04068 0.44243,0.06643l0.00462,-0.06459l4.32198,0.30871c1.74134,0.10827 3.12014,1.55485 3.12014,3.32346c0,1.37428 -0.8325,2.55412 -2.02071,3.06271l-3.34869,1.52213l-0.02718,-0.05979l-0.13361,0.12784c-0.99998,0.33099 -2.05748,0.67107 -3.15566,1.00344l1.72154,-0.24593c0.17185,-0.02736 0.34808,-0.04157 0.52763,-0.04157c1.83909,0 3.32996,1.49088 3.32996,3.32996c0,1.67142 -1.23143,3.05523 -2.83652,3.29365l-3.67406,0.61235l-0.00965,-0.05789l-0.11304,0.076c-0.4533,0.04107 -0.90464,0.07591 -1.35432,0.10504l-1.39555,0.19936l-0.01441,-0.10086c-0.07121,0.04476 -0.14464,0.08683 -0.22046,0.12595c-1.26627,0.65346 -2.84986,0.00719 -4.27479,0.00838c-4.45754,0.00373 -8.44601,-0.31429 -12.77966,-1.38836l-0.14266,-0.11316l-0.02121,0.05834l-3.34442,-1.21616c-0.95205,-0.32116 -1.71141,-1.06104 -2.05902,-2.00059c-0.44771,0.18007 -0.19597,1.23678 -0.57494,1.65166c-0.83771,0.91709 -1.96304,1.52247 -2.93747,2.29275c-3.5438,2.80133 -6.78674,5.95312 -10.94178,7.87552c-5.03271,2.32846 -11.46329,4.13867 -16.91685,5.21037c-2.72795,0.53608 -6.81961,-0.57097 -9.32654,0.73992c-1.4143,0.73955 -0.77866,2.13714 -0.69398,3.32404c0.21278,2.98264 1.41629,5.82257 1.80188,8.78783c0.25167,1.93537 0.96101,4.2444 -0.1438,5.85325c-1.20626,1.75658 -3.84542,1.83721 -5.76813,2.75582c-4.08367,-0.28498 -6.74536,0.2683 -10.03465,-2.59246c-5.6439,-4.9086 -9.97274,-16.50706 -5.61014,-23.07673c2.75541,-4.1494 6.22081,-4.92719 10.57942,-6.52557c1.28898,-0.4727 2.60698,-0.87422 3.86354,-1.42737c0.42649,-0.18774 1.18567,-0.318 1.15798,-0.78317c-0.03787,-0.6361 -1.00253,-0.84267 -1.28868,-1.41204c-1.59963,-3.18284 -2.26304,-5.69494 -2.14444,-9.24716c0.01714,-0.51343 -0.0546,-2.83754 0.6854,-4.26404c-1.01652,0.04924 -2.04846,-0.24049 -3.06441,-0.37416c-4.56652,-0.60084 -5.36114,-1.03051 -10.43607,-2.383c-2.96062,-1.59846 -6.27429,-4.58611 -9.5632,-5.46736c-4.20369,-1.12637 -10.2411,-0.32399 -14.55409,-0.20237c-5.08399,0.14336 -10.19492,4.23812 -15.35152,1.93627c-8.83724,-3.94487 -6.33938,-17.48277 -12.42954,-24.17715c0,0 -2.21231,-2.48885 0.27654,-4.70116c2.48885,-2.21231 4.70115,0.27654 4.70115,0.27654c1.8171,2.08093 3.0964,4.16669 4.08739,6.36287c0.13391,-0.14262 0.28668,-0.28386 0.46033,-0.42277c0.32818,-0.26255 0.64808,-0.45054 0.95656,-0.57861c-1.29661,-1.96827 -2.89767,-3.64756 -4.4082,-5.58771c0,0 -2.0444,-2.62852 0.58412,-4.67292c2.62851,-2.0444 4.67291,0.58412 4.67291,0.58412c2.15455,2.77312 3.94199,4.92062 5.51095,7.70336c-0.17795,-0.58898 -0.17795,-1.06141 -0.17795,-1.06141zM193.22533,139.09283c-0.00791,-0.04788 -0.01584,-0.09566 -0.02382,-0.14335c-0.03622,-0.0375 -0.07105,-0.07565 -0.10457,-0.11437c0.04295,0.08523 0.08575,0.17113 0.12838,0.25773zM193.80139,142.73964l0.00784,0.42797c0.02139,-0.00199 0.04275,-0.00408 0.06408,-0.00627c-0.02442,-0.14044 -0.04837,-0.28104 -0.07191,-0.4217z" fill="#000000" fill-rule="nonzero" stroke="none" stroke-width="0.5"/><path d="M247.95554,105.7465c-1.71046,-1.71046 0,-3.42092 0,-3.42092l1.12808,-1.10167c2.17619,-1.69048 4.40627,-3.16536 6.7311,-4.64494c0,0 2.04078,-1.29868 3.33946,0.74211c1.29868,2.04078 -0.74211,3.33946 -0.74211,3.33946c-2.19805,1.39862 -4.3034,2.78183 -6.35827,4.3822l-0.67734,0.70376c0,0 -1.71046,1.71046 -3.42092,0z" fill="#ffffff" fill-rule="nonzero" stroke="none" stroke-width="0.5"/><path d="M325.63641,148.92887c0,23.59756 -8.38031,43.79259 -25.14097,60.58511c-16.76063,16.79252 -36.91421,25.17286 -60.46076,25.14097c-23.62945,0 -43.82448,-8.38032 -60.5851,-25.14097c-16.76063,-16.76063 -25.14097,-36.95568 -25.14097,-60.5851c0,-23.59756 8.38032,-43.79577 25.14097,-60.59468c16.67772,-16.67772 36.87277,-25.01978 60.58511,-25.02617c23.71236,-0.00637 43.86595,8.3293 60.46076,25.00701c16.75426,16.77339 25.13457,36.97799 25.14097,60.61381z" fill="#ec2127" fill-rule="evenodd" stroke="none" stroke-width="1"/><path d="M330.31444,148.92887c0,24.87309 -8.82675,46.13641 -26.48028,63.78993c-17.65353,17.65352 -38.92001,26.48346 -63.79948,26.48985c-24.87309,0 -46.13959,-8.82996 -63.79948,-26.48985c-17.6599,-17.6599 -26.48667,-38.92321 -26.48028,-63.78993c0,-24.87309 8.82675,-46.13959 26.48028,-63.79948c17.65353,-17.65989 38.92001,-26.48668 63.79949,-26.48028c24.87309,0 46.13959,8.82676 63.79949,26.48028c17.6599,17.65352 26.48667,38.92 26.48028,63.79948zM297.28105,91.66336c-15.78485,-15.87413 -34.86698,-23.808 -57.24638,-23.80164c-22.37939,0.00637 -41.46153,7.94025 -57.24638,23.80164c-15.84863,15.85499 -23.77293,34.9435 -23.77293,57.26551c0,22.32201 7.93388,41.40093 23.80164,57.23683c15.88052,15.86776 34.96265,23.80482 57.24638,23.81121c22.28375,0.00636 41.36586,-7.93069 57.24638,-23.81121c15.87412,-15.77848 23.80801,-34.8574 23.80164,-57.23683c-0.00637,-22.37939 -7.94983,-41.46792 -23.83035,-57.26551z" fill="#ffffff" fill-rule="evenodd" stroke="none" stroke-width="1"/><path d="M287.91539,121.35801c9.89823,8.5589 13.77906,18.36463 11.64252,29.41722c-3.48224,18.01066 -5.00012,26.34953 -4.55368,25.01659l3.61616,3.47266c3.02303,2.1429 5.96316,2.67864 8.82038,1.60719c0.72069,-0.26785 3.93185,-2.05044 9.63353,-5.34772c3.65442,-2.05999 6.90708,-2.77431 9.7579,-2.1429c3.07748,0.74108 5.86884,2.37133 8.02637,4.68761c1.01992,0.97095 1.87887,2.09792 2.54471,3.33873l-1.47326,5.21377c-2.93376,-5.70167 -5.80372,-8.6418 -8.60992,-8.82038c-1.51152,-0.17858 -3.6927,0.44325 -6.54353,1.86549c-2.39948,1.32236 -4.90504,2.44232 -7.49063,3.34831c-2.32788,0.63778 -5.85154,0.31887 -10.57108,-0.95665l-6.41918,-2.1429l3.82663,4.67806c3.18885,3.0294 6.53398,4.05623 10.03534,3.08045c5.33081,-1.53793 10.55837,-3.4136 15.65092,-5.61559l-0.40178,1.74112c-0.19468,0.92565 0.10609,1.88594 0.79402,2.53513c1.40252,0.92139 3.01478,1.47418 4.68761,1.60719c-7.38524,3.64133 -15.82324,4.5431 -23.81122,2.54471c-4.94468,-1.49554 -9.47623,-4.11497 -13.24013,-7.65326l-4.41018,-4.95549l1.07145,3.61616c-0.26785,3.11871 -3.12189,6.50527 -8.56207,10.15972c-4.78401,3.35492 -10.06537,5.93748 -15.65092,7.65327c-5.17233,0.98854 -8.99896,1.79213 -11.47989,2.41078c-2.7282,0.61619 -5.41013,1.42176 -8.02636,2.41079c-1.54179,0.72144 -2.60426,2.18502 -2.81257,3.87447c-0.47163,2.45732 -1.14027,4.87272 -1.99942,7.22277c-0.8036,2.67864 -0.53574,3.70546 0.8036,3.08044c0.49492,-0.24565 0.96574,-0.53711 1.4063,-0.87055l-2.07594,4.20929c-3.11871,3.82663 -6.94533,3.50775 -11.47989,-0.95665c-4.73863,-4.72589 -6.52122,-8.9607 -5.34773,-12.7044c0.63778,-2.2322 2.42034,-4.37193 5.34773,-6.41918c2.97916,-1.82411 6.10934,-3.38918 9.35612,-4.67806c2.41079,-1.07145 4.64299,-2.00897 6.69661,-2.81257c-1.31035,-1.12805 -2.4767,-2.41329 -3.47266,-3.82663c-2.05681,-3.12826 -2.44904,-5.84518 -1.20538,-8.16029c1.24366,-2.31511 2.41078,-4.85983 3.48223,-7.3567l1.19583,-3.08045c-3.23639,0.83381 -6.5598,1.28335 -9.90141,1.33934c-7.30886,0.26785 -12.48119,-1.2022 -15.51699,-4.41018c-3.60666,-3.68971 -8.3004,-6.12712 -13.3932,-6.95488c-4.15228,-0.90712 -8.46061,-0.8153 -12.57047,0.26785c-1.95193,0.5499 -3.86877,1.2176 -5.73993,1.99942c-1.30065,0.78457 -2.64184,1.49989 -4.01797,2.1429c-2.05999,1.07145 -4.19974,0.18176 -6.41917,-2.66906c-2.15088,-2.7221 -3.00688,-6.24729 -2.34382,-9.65268c0.53574,-2.85085 -0.26467,-6.6392 -2.40121,-11.36509l-3.48223,-6.28525l2.81257,1.59761c1.60907,0.9495 2.90837,2.34517 3.74053,4.01797c0.89927,2.04726 1.82721,4.59197 2.81257,7.65327c1.23457,-2.59401 1.42634,-5.56295 0.53574,-8.29423l-3.48224,-9.63352l3.21438,2.1429c2.31511,1.87505 3.65123,3.8362 4.00839,5.88343c0.84685,3.96477 2.01135,7.85499 3.48224,11.63295c1.1566,-2.22049 1.44315,-4.79261 0.8036,-7.21319l-2.81257,-12.17824l3.62574,2.2577c2.40121,1.9133 3.65442,3.60661 3.74054,5.21377c0.08291,2.67864 -0.14032,8.2974 -0.66967,16.8563c8.64819,2.2322 15.06735,2.2322 19.25751,0c0.98854,-0.53574 3.30684,-2.80938 6.95489,-6.82096c2.94649,-3.29728 7.13665,-5.79417 12.57047,-7.49063c8.43905,-2.79379 17.34835,-3.88631 26.21242,-3.21437c1.11383,-0.24222 2.13578,-0.79633 2.9465,-1.59761c1.60719,-1.43498 1.60719,-3.16654 0,-5.22335c-1.24787,-1.90008 -2.94717,-3.46132 -4.94592,-4.54413l-2.27686,-0.66967c0.09567,0.88968 -0.4879,1.47326 -1.74111,1.74112c-0.63778,0.08927 -3.62256,0.08927 -8.95431,0c-3.56557,-0.19814 -7.13941,-0.19814 -10.705,0c-1.69328,0.26785 -6.14174,0.53574 -13.39319,0.8036l-10.29364,0.40178l4.67806,-1.91331c3.86677,-1.22467 7.86455,-1.9889 11.91039,-2.27685c5.56427,-0.3509 11.14362,-0.3956 16.7128,-0.13393c0.17219,-5.17551 -0.88969,-8.29423 -3.21438,-9.36568c-9.5746,-4.5733 -20.00573,-7.07675 -30.61304,-7.34712c-6.416,-0.17858 -12.70122,-0.22642 -18.85573,-0.14351l-7.36625,0.14351l7.08885,-2.90823c6.71965,-2.00309 13.74617,-2.77445 20.74034,-2.27686c6.08862,0.34381 12.13205,1.25338 18.05212,2.71689c4.00521,1.16075 6.41278,1.65184 7.22277,1.47326c0.7175,-0.09567 1.2915,-0.95665 1.74112,-2.67864c0.79402,-2.93695 1.33933,-4.78328 1.59761,-5.48166c2.23857,-5.35091 6.96446,-8.11564 14.17766,-8.29422c6.69021,-0.17858 11.37146,2.05363 14.04373,6.69661c2.49369,4.36873 4.81199,6.41918 6.95489,6.15129c2.76155,-0.35716 5.07985,-2.13971 6.95489,-5.34772c1.58197,-3.00275 4.5263,-5.04774 7.89241,-5.48165c6.50527,-0.89287 10.78791,-0.53574 12.84791,1.07145l-2.81257,5.73993c-1.00905,-0.58354 -2.08951,-1.03373 -3.21438,-1.33933c-2.00638,-0.78865 -4.21903,-0.88294 -6.28525,-0.26786c-2.12302,1.01153 -4.06284,2.3694 -5.73993,4.01797c-1.19578,1.12816 -2.51843,2.11374 -3.94143,2.93695l3.27177,-1.20538c4.41223,-1.14468 9.01897,-1.32738 13.50799,-0.53574c3.88691,0.59334 7.58913,2.05854 10.82936,4.28583c1.23395,0.89082 2.3579,1.92485 3.3483,3.08045l-2.1429,5.20422c-1.13887,-1.67985 -2.53702,-3.16841 -4.14232,-4.41018c-3.46947,-2.93376 -7.1271,-4.31453 -10.97286,-4.14232c-6.60094,0 -11.23753,0.04466 -13.90981,0.13393c-4.63022,0.17219 -6.85925,0.95665 -6.69661,2.26728c0.18495,1.14163 5.4912,5.0097 15.91877,11.60424z" fill="#000000" fill-rule="evenodd" stroke="none" stroke-width="1"/><path d="M254.21234,104.23383c-1.54886,2.09361 -3.44884,3.90296 -5.61559,5.34773l-0.53573,0.40178h-0.53574c-2.40121,0.26785 -4.23799,0 -5.48165,-0.66009c-0.30714,-0.28372 -0.57716,-0.60516 -0.8036,-0.95665z" fill="#ffffff" fill-rule="evenodd" stroke="none" stroke-width="1"/></g></g></svg>