<svg version="1.1" xmlns="http://www.w3.org/2000/svg" xmlns:xlink="http://www.w3.org/1999/xlink" width="197.23468" height="162.55259" viewBox="0,0,197.23468,162.55259"><defs><radialGradient cx="212.20344" cy="179.71401" r="5.13591" gradientUnits="userSpaceOnUse" id="color-1"><stop offset="0" stop-color="#b34900"/><stop offset="1" stop-color="#a03900"/></radialGradient><linearGradient x1="234.454" y1="147.86453" x2="234.49762" y2="153.61408" gradientUnits="userSpaceOnUse" id="color-2"><stop offset="0" stop-color="#c74600"/><stop offset="1" stop-color="#e25e00"/></linearGradient><linearGradient x1="150.00416" y1="164.95823" x2="184.09557" y2="164.69962" gradientUnits="userSpaceOnUse" id="color-3"><stop offset="0" stop-color="#4c4540"/><stop offset="1" stop-color="#3f3a35"/></linearGradient><linearGradient x1="151.4994" y1="195.61289" x2="185.5908" y2="195.35428" gradientUnits="userSpaceOnUse" id="color-4"><stop offset="0" stop-color="#4c4540"/><stop offset="1" stop-color="#3f3a35"/></linearGradient><linearGradient x1="142.36704" y1="180.84214" x2="188.36429" y2="180.49321" gradientUnits="userSpaceOnUse" id="color-5"><stop offset="0" stop-color="#4c4540"/><stop offset="1" stop-color="#3f3a35"/></linearGradient><radialGradient cx="309.02223" cy="180.01839" r="17.98095" gradientUnits="userSpaceOnUse" id="color-6"><stop offset="0" stop-color="#ffe0a9"/><stop offset="1" stop-color="#ffe0a9" stop-opacity="0"/></radialGradient><radialGradient cx="308.81253" cy="179.0098" r="13.19949" gradientUnits="userSpaceOnUse" id="color-7"><stop offset="0" stop-color="#fffffd"/><stop offset="1" stop-color="#fffffd" stop-opacity="0"/></radialGradient><radialGradient cx="303.90419" cy="180.05722" r="16.76875" gradientUnits="userSpaceOnUse" id="color-8"><stop offset="0" stop-color="#ff9afa"/><stop offset="1" stop-color="#ff9afa" stop-opacity="0"/></radialGradient><radialGradient cx="303.90419" cy="180.05722" r="16.76875" gradientUnits="userSpaceOnUse" id="color-9"><stop offset="0" stop-color="#ff9afa"/><stop offset="1" stop-color="#ff9afa" stop-opacity="0"/></radialGradient><radialGradient cx="304.83574" cy="178.56855" r="12.72807" gradientUnits="userSpaceOnUse" id="color-10"><stop offset="0" stop-color="#fffffd"/><stop offset="1" stop-color="#fffffd" stop-opacity="0"/></radialGradient><radialGradient cx="307.60548" cy="179.69243" r="13.26684" gradientUnits="userSpaceOnUse" id="color-11"><stop offset="0" stop-color="#fffffd"/><stop offset="1" stop-color="#fffffd" stop-opacity="0"/></radialGradient><radialGradient cx="307.60548" cy="179.69243" r="13.26684" gradientUnits="userSpaceOnUse" id="color-12"><stop offset="0" stop-color="#fffffd"/><stop offset="1" stop-color="#fffffd" stop-opacity="0"/></radialGradient><radialGradient cx="307.60548" cy="179.69243" r="13.26684" gradientUnits="userSpaceOnUse" id="color-13"><stop offset="0" stop-color="#fffffd"/><stop offset="1" stop-color="#fffffd" stop-opacity="0"/></radialGradient><radialGradient cx="307.60548" cy="179.69243" r="13.26684" gradientUnits="userSpaceOnUse" id="color-14"><stop offset="0" stop-color="#fffffd"/><stop offset="1" stop-color="#fffffd" stop-opacity="0"/></radialGradient><radialGradient cx="224.29379" cy="154.76054" r="13.36486" gradientUnits="userSpaceOnUse" id="color-15"><stop offset="0" stop-color="#fb0adc" stop-opacity="0"/><stop offset="1" stop-color="#fb0adc"/></radialGradient></defs><g transform="translate(-141.29328,-98.44034)"><g data-paper-data="{&quot;isPaintingLayer&quot;:true}" fill-rule="nonzero" stroke-linejoin="miter" stroke-miterlimit="10" stroke-dasharray="" stroke-dashoffset="0" style="mix-blend-mode: normal"><path d="M308.05522,136.63321l-22.15065,5.17326l-0.93037,-0.763l13.82117,-6.26513l-7.23524,-13.54907l11.97696,-5.60945l14.12068,15.807z" data-paper-data="{&quot;index&quot;:null}" fill="none" stroke="#330d42" stroke-width="1.5" stroke-linecap="round"/><path d="M273.73222,141.74907l-12.24407,8.88681l9.37644,-12.38261z" fill="none" stroke="#330d42" stroke-width="1.5" stroke-linecap="round"/><path d="M271.76012,220.63875l-9.42281,-11.56356l12.50969,8.29315z" fill="none" stroke="#330d42" stroke-width="1.5" stroke-linecap="round"/><path d="M268.28755,190.90105l17.18014,17.59281l-1.05661,3.3903l-20.69237,-16.88973z" fill="none" stroke="#330d42" stroke-width="1.5" stroke-linecap="round"/><path d="M261.86338,164.43272l20.17962,-15.03509l-3.86062,8.28204l-11.15053,10.3667z" fill="none" stroke="#330d42" stroke-width="1.5" stroke-linecap="round"/><path d="M253.1421,156.17366l25.28774,-19.19539l6.7932,10.23611l-23.29723,17.89435z" data-paper-data="{&quot;index&quot;:null}" fill="none" stroke="#330d42" stroke-width="1.5" stroke-linecap="round"/><path d="M262.63541,194.86736l22.31372,16.60684l-6.28443,9.78862l-24.21692,-17.81002z" fill="none" stroke="#330d42" stroke-width="1.5" stroke-linecap="round"/><path d="M280.79127,216.24093l5.5343,-1.66548l14.39135,6.65539l-11.7469,20.92394l-19.82628,-9.72587l-0.15889,-3.11049z" fill="none" stroke="#330d42" stroke-width="1.5" stroke-linecap="round"/><path d="M287.20045,240.7338l-0.93261,1.90115l-17.51211,-7.84933l-0.02094,-2.76108z" fill="none" stroke="#330d42" stroke-width="1.5" stroke-linecap="round"/><path d="M268.89369,235.13665l-1.08945,-0.93878l-1.9186,-3.23243l-1.32757,-7.18971l4.83263,5.53964z" fill="none" stroke="#330d42" stroke-width="1.5" stroke-linecap="round"/><path d="M280.95325,216.3212l-2.49978,-5.06831l7.55534,-2.76314l5.83361,2.12041l0.03386,4.46435l-4.87304,-0.33792z" fill="none" stroke="#330d42" stroke-width="1.5" stroke-linecap="round"/><path d="M264.47739,223.67041l14.24255,-12.96069l2.33984,5.25861l-11.66908,13.34705z" fill="none" stroke="#330d42" stroke-width="1.5" stroke-linecap="round"/><path d="M320.08809,224.46618l-14.21279,16.88392l-12.35491,-5.7238l7.19653,-14.39545l-14.25401,-6.38585l0.94083,-0.81888l22.76763,5.10365z" fill="none" stroke="#330d42" stroke-width="1.5" stroke-linecap="round"/><path d="M312.28974,220.33131l0.57705,-2.57491l7.19772,3.59827l0.15685,3.27351z" fill="none" stroke="#330d42" stroke-width="1.5" stroke-linecap="round"/><path d="M267.70127,127.57055l0.10967,-2.95265l19.21187,-9.51451l11.77255,19.67494l-13.95129,6.52282l-5.42678,-1.49891z" data-paper-data="{&quot;index&quot;:null}" fill="none" stroke="#330d42" stroke-width="1.5" stroke-linecap="round"/><path d="M267.58143,125.10864l-0.18422,-2.79772l16.98026,-7.70083l0.93816,1.78963z" data-paper-data="{&quot;index&quot;:null}" fill="none" stroke="#330d42" stroke-width="1.5" stroke-linecap="round"/><path d="M268.09749,127.56754l-4.39963,5.35246l0.95396,-6.86639l1.82569,-3.094l1.04977,-0.90635z" data-paper-data="{&quot;index&quot;:null}" fill="none" stroke="#330d42" stroke-width="1.5" stroke-linecap="round"/><path d="M285.50104,140.84372l4.75423,-0.09695l0.03212,4.23494l-5.66364,2.09638l-7.41568,-2.51051l2.6024,-5.1758z" data-paper-data="{&quot;index&quot;:null}" fill="none" stroke="#330d42" stroke-width="1.5" stroke-linecap="round"/><path d="M268.09749,127.56754l11.91191,12.4869l-2.53328,5.02445l-14.09244,-12.08531z" data-paper-data="{&quot;index&quot;:null}" fill="none" stroke="#330d42" stroke-width="1.5" stroke-linecap="round"/><path d="M317.27402,130.85919l-0.00877,2.54438l-6.55878,4.49293l-0.28265,-2.43629z" data-paper-data="{&quot;index&quot;:null}" fill="none" stroke="#330d42" stroke-width="1.5" stroke-linecap="round"/><path d="M258.31351,194.68252l-0.22755,-29.9976l11.05793,-0.08389l0.22755,29.9976z" fill="none" stroke="#330d42" stroke-width="1.5" stroke-linecap="butt"/><path d="M254.41653,193.98267l8.4466,0.58533c0,0 2.13633,3.04595 1.77186,5.28997c-0.36447,2.24403 -2.99423,4.78495 -2.99423,4.78495l-15.57561,1.30871l-1.36318,-51.29205l16.01837,-0.01328c0,0 2.65613,2.77627 3.39279,4.95298c0.73667,2.17671 -1.90457,5.75079 -1.90457,5.75079l-7.35859,0.16405z" fill="none" stroke="#330d42" stroke-width="1.5" stroke-linecap="round"/><path d="M253.96004,194.5979l-0.22576,-29.76233l8.35228,-0.06336l0.22577,29.76233z" fill="none" stroke="#330d42" stroke-width="1.5" stroke-linecap="butt"/><path d="M255.36723,193.99901l-0.2213,-29.17415l0.82347,-0.00624l0.2213,29.17415z" fill="none" stroke="#330d42" stroke-width="1.5" stroke-linecap="butt"/><path d="M257.71552,193.39297l-0.21684,-28.58597l0.70583,-0.00536l0.21684,28.58597z" fill="none" stroke="#330d42" stroke-width="1.5" stroke-linecap="butt"/><path d="M260.77946,194.0756l-0.22042,-29.05651l0.70583,-0.00535l0.22041,29.0565z" fill="none" stroke="#330d42" stroke-width="1.5" stroke-linecap="butt"/><path d="M259.36602,193.85102l-0.21863,-28.82123l0.70583,-0.00535l0.21863,28.82123z" fill="none" stroke="#330d42" stroke-width="1.5" stroke-linecap="butt"/><path d="M233.23343,149.17724l0.64674,5.00086l-8.58741,0.47101l-1.17411,-12.09965z" data-paper-data="{&quot;index&quot;:null}" fill="none" stroke="#330d42" stroke-width="1.5" stroke-linecap="round"/><path d="M224.03598,143.22655l1.0451,10.2742l-9.73989,0.14153z" data-paper-data="{&quot;index&quot;:null}" fill="none" stroke="#330d42" stroke-width="1.5" stroke-linecap="round"/><path d="M228.01219,147.52571l1.42766,0.93621l4.46383,-0.10151l-0.93569,1.49531l-6.02422,-0.49547l0.11835,-2.2332z" data-paper-data="{&quot;index&quot;:null}" fill="none" stroke="#330d42" stroke-width="1.5" stroke-linecap="round"/><path d="M228.48979,148.06326l-1.47785,1.36412l-3.36319,-6.40082z" data-paper-data="{&quot;index&quot;:null}" fill="none" stroke="#330d42" stroke-width="1.5" stroke-linecap="round"/><path d="M229.03503,148.60028l-7.90082,-7.1105l-0.70156,-3.30931l13.47002,10.04465z" data-paper-data="{&quot;index&quot;:null}" fill="none" stroke="#330d42" stroke-width="1.5" stroke-linecap="round"/><path d="M227.96957,144.93987c1.03947,-2.83685 2.67017,-1.60048 3.79035,-0.89053c1.12018,0.70996 1.6521,1.7044 0.26618,3.46157c-0.43958,0.55732 -1.59611,0.51001 -2.71629,-0.19995c-1.12018,-0.70996 -1.58448,-1.70458 -1.34027,-2.37106z" data-paper-data="{&quot;index&quot;:null}" fill="none" stroke="#330d42" stroke-width="1.5" stroke-linecap="butt"/><path d="M228.83916,143.648c0.37998,-0.59955 1.59614,-0.51001 2.71632,0.19995c1.12018,0.70996 1.72025,1.77155 1.34027,2.37106c-0.37998,0.59955 -1.59614,0.51001 -2.71632,-0.19995c-1.12018,-0.70996 -1.72025,-1.77155 -1.34027,-2.37107z" data-paper-data="{&quot;index&quot;:null}" fill="none" stroke="#330d42" stroke-width="1.5" stroke-linecap="butt"/><path d="M232.45636,144.83147l-3.04181,0.29485" data-paper-data="{&quot;index&quot;:null}" fill="none" stroke="#330d42" stroke-width="1.5" stroke-linecap="round"/><path d="M224.83836,219.59232l0.99041,-12.11607l8.59357,0.34068l-0.5708,5.01011z" fill="none" stroke="#330d42" stroke-width="1.5" stroke-linecap="round"/><path d="M215.89367,208.63394l9.74091,-0.00624l-0.88915,10.28887z" fill="none" stroke="#330d42" stroke-width="1.5" stroke-linecap="round"/><path d="M227.71205,214.97061l-0.15222,-2.23115l6.01601,-0.5868l0.95827,1.48093l-4.46486,-0.03378l-1.41329,0.95776z" fill="none" stroke="#330d42" stroke-width="1.5" stroke-linecap="round"/><path d="M224.36128,219.12241l3.2657,-6.4511l1.49837,1.34155z" fill="none" stroke="#330d42" stroke-width="1.5" stroke-linecap="round"/><path d="M234.53514,213.76888l-11.76956,9.0185l-0.41714,-1.48504l7.31393,-7.83472z" fill="none" stroke="#330d42" stroke-width="1.5" stroke-linecap="round"/><path d="M223.5719,143.10788l-10.4655,12.64837l-1.14721,-1.64972l9.06571,-13.07417z" data-paper-data="{&quot;index&quot;:null}" fill="none" stroke="#330d42" stroke-width="1.5" stroke-linecap="round"/><path d="M222.24498,221.32496l-9.26301,-12.93513l1.12205,-1.66694l10.65617,12.48815z" fill="none" stroke="#330d42" stroke-width="1.5" stroke-linecap="round"/><path d="M228.07615,120.86462l-10.91254,9.47322l-10.35627,0.07532l2.62725,-4.32317c0,0 5.03959,-4.92229 8.88707,-6.86352c3.84749,-1.94123 7.38819,-2.18149 7.38819,-2.18149z" data-paper-data="{&quot;index&quot;:null}" fill="none" stroke="#330d42" stroke-width="1.5" stroke-linecap="round"/><path d="M227.79972,120.63948l-9.08874,7.43814l-7.2762,-0.93197l1.82767,-3.65566c0,0 3.49428,-3.42621 6.2396,-4.81134c2.74529,-1.38513 6.29957,-1.7067 6.29957,-1.7067z" data-paper-data="{&quot;index&quot;:null}" fill="none" stroke="#330d42" stroke-width="1.5" stroke-linecap="round"/><path d="M225.68669,245.33958c0,0 -3.51249,-0.50675 -7.20253,-2.73272c-3.69001,-2.22596 -8.34388,-7.51447 -8.34388,-7.51447l-2.29357,-4.50904l10.32104,0.85646l10.16667,10.26959z" fill="none" stroke="#330d42" stroke-width="1.5" stroke-linecap="round"/><path d="M225.83238,245.11154c0,0 -3.51986,-0.58885 -6.15286,-2.17717c-2.63299,-1.58832 -5.85878,-5.26838 -5.85878,-5.26838l-1.54664,-3.78316l7.4816,-0.25663l8.38334,8.40279z" fill="none" stroke="#330d42" stroke-width="1.5" stroke-linecap="round"/><path d="M199.76159,211.0614l12.42021,13.71481l-2.05257,0.01558l-11.75719,-12.41358l-3.63088,1.05389l-1.69566,-2.13313z" data-paper-data="{&quot;index&quot;:null}" fill="none" stroke="#330d42" stroke-width="1.5" stroke-linecap="round"/><path d="M209.84718,224.514c0,0 -5.99734,-2.23146 -9.27199,-4.59488c-3.27466,-2.36343 -6.20797,-6.5775 -6.20797,-6.5775l4.19209,-0.87155z" data-paper-data="{&quot;index&quot;:null}" fill="none" stroke="#330d42" stroke-width="1.5" stroke-linecap="round"/><path d="M249.74504,207.62377c0,0 1.28718,26.68391 -26.85271,30.48461c-21.1296,2.09502 -38.68318,-23.17698 -38.68318,-23.17698l11.37229,-0.48689c0,0 16.05614,16.79743 26.55319,14.72159c18.41126,-3.64091 18.89731,-21.7767 18.89731,-21.7767z" data-paper-data="{&quot;index&quot;:null}" fill="none" stroke="#330d42" stroke-width="1.5" stroke-linecap="round"/><path d="M246.57637,207.90716c0,0 1.69567,26.15888 -24.69353,28.83172c-19.23617,1.94835 -34.96963,-22.03444 -34.96963,-22.03444l11.7493,-0.92888c0,0 8.47174,14.35422 22.77141,12.98316c14.80758,-1.41976 16.73847,-19.72086 16.73847,-19.72086z" data-paper-data="{&quot;index&quot;:null}" fill="none" stroke="#330d42" stroke-width="1.5" stroke-linecap="round"/><path d="M246.82923,207.26098c0,0 1.44284,26.80505 -24.94634,29.4779c-19.2362,1.94835 -34.96963,-22.03444 -34.96963,-22.03444l10.35332,-0.45176c0,0 9.87689,15.08999 24.17656,13.71893c14.80758,-1.41976 17.20071,-20.28418 17.20071,-20.28418z" data-paper-data="{&quot;index&quot;:null}" fill="none" stroke="#330d42" stroke-width="1.5" stroke-linecap="round"/><path d="M195.08682,148.3031l1.66311,-2.15861l3.64644,0.99869l11.56751,-12.59052l2.05257,-0.01557l-12.21069,13.90166z" fill="none" stroke="#330d42" stroke-width="1.5" stroke-linecap="round"/><path d="M200.58227,147.04848l-4.2048,-0.80785c0,0 2.86905,-4.25809 6.10747,-6.67092c3.23842,-2.41284 9.2012,-4.73501 9.2012,-4.73501z" fill="none" stroke="#330d42" stroke-width="1.5" stroke-linecap="round"/><path d="M252.26191,195.98331l0.05278,6.95743l-6.95744,0.05278l-0.05278,-6.95743z" data-paper-data="{&quot;index&quot;:null}" fill="none" stroke="#330d42" stroke-width="1.5" stroke-linecap="butt"/><path d="M250.62996,201.665l0.04691,6.18437l-5.28249,0.04007l-0.04691,-6.18437z" data-paper-data="{&quot;index&quot;:null}" fill="none" stroke="#330d42" stroke-width="1.5" stroke-linecap="butt"/><path d="M240.14714,152.2533c0,0 -0.76111,-18.12632 -19.22549,-21.48751c-10.52734,-1.91636 -26.32679,15.12273 -26.32679,15.12273l-11.37837,-0.31432c0,0 17.16819,-25.53539 38.32713,-23.76115c28.19432,3.37337 27.31208,30.07374 27.31208,30.07374z" fill="none" stroke="#330d42" stroke-width="1.5" stroke-linecap="round"/><path d="M237.2933,152.64816c0,0 -2.2083,-18.26968 -17.03572,-19.46466c-14.31882,-1.15397 -22.57182,13.32712 -22.57182,13.32712l-11.76204,-0.75053c0,0 15.36781,-24.21872 34.63133,-22.56242c26.42668,2.2722 25.12808,28.4538 25.12808,28.4538z" fill="none" stroke="#330d42" stroke-width="1.5" stroke-linecap="round"/><path d="M237.75483,151.99153c0,0 -2.67902,-18.82596 -17.50644,-20.0209c-14.31882,-1.15397 -23.96566,14.08412 -23.96566,14.08412l-10.35898,-0.29463c0,0 15.36777,-24.21872 34.63132,-22.56242c26.42668,2.2722 25.90799,29.34984 25.90799,29.34984z" fill="none" stroke="#330d42" stroke-width="1.5" stroke-linecap="round"/><path d="M236.37649,208.08673l-0.08894,-11.72457l9.01888,-0.06842l0.08894,11.72458z" fill="none" stroke="#330d42" stroke-width="1.5" stroke-linecap="butt"/><path d="M234.41161,203.84962l-0.05767,-7.60163l3.73639,-0.02834l0.05767,7.60162z" fill="none" stroke="#330d42" stroke-width="1.5" stroke-linecap="butt"/><path d="M245.31684,163.69496l-0.05278,-6.95743l6.95743,-0.05278l0.05279,6.95743z" data-paper-data="{&quot;index&quot;:null}" fill="none" stroke="#330d42" stroke-width="1.5" stroke-linecap="butt"/><path d="M245.27385,158.02595l-0.04788,-6.31324l5.28249,-0.04007l0.04789,6.31324z" data-paper-data="{&quot;index&quot;:null}" fill="none" stroke="#330d42" stroke-width="1.5" stroke-linecap="butt"/><path d="M245.22595,151.71273l0.08894,11.72458l-9.01888,0.06841l-0.08894,-11.72457z" data-paper-data="{&quot;index&quot;:null}" fill="none" stroke="#330d42" stroke-width="1.5" stroke-linecap="butt"/><path d="M238.04309,156.01923l0.05767,7.60162l-3.73639,0.02835l-0.05767,-7.60163z" data-paper-data="{&quot;index&quot;:null}" fill="none" stroke="#330d42" stroke-width="1.5" stroke-linecap="butt"/><path d="M236.04476,197.1591l-0.26172,-34.50193l10.54277,-0.07998l0.26172,34.50194z" fill="none" stroke="#330d42" stroke-width="1.5" stroke-linecap="butt"/><path d="M211.22731,197.35201l-0.28947,-38.15924l24.9108,-0.18897l0.28947,38.15924z" fill="none" stroke="#330d42" stroke-width="1.5" stroke-linecap="butt"/><path d="M209.41724,196.05949l-0.23496,-30.97523l18.92306,-0.14354c0,0 6.46729,10.3465 6.5072,15.60813c0.03835,5.05518 -6.27222,15.36711 -6.27222,15.36711z" fill="none" stroke="#330d42" stroke-width="1.5" stroke-linecap="butt"/><path d="M226.78602,169.70925l-0.75417,-1.02062l4.38504,-0.03327l0.66088,1.02133z" fill="none" stroke="#330d42" stroke-width="1.5" stroke-linecap="butt"/><path d="M231.51834,190.8534l-0.71787,1.03179l-4.87228,0.03696l0.82153,-1.03259z" data-paper-data="{&quot;index&quot;:null}" fill="none" stroke="#330d42" stroke-width="1.5" stroke-linecap="butt"/><path d="M208.49334,193.64059l-0.20879,-27.52318l16.95238,-0.12859c0,0 6.1625,9.19029 6.19796,13.86549c0.03407,4.49184 -5.98917,13.65767 -5.98917,13.65767z" fill="none" stroke="#330d42" stroke-width="1.5" stroke-linecap="butt"/><path d="M213.37053,209.64985l9.15599,10.16542c0,0 -2.55473,0.2251 -3.76864,1.51363c-1.21391,1.28852 -2.26832,3.52733 -2.26832,3.52733l-8.37005,-10.36827c0,0 -0.28748,-1.48558 2.01797,-3.14397c1.45978,-1.05008 3.23305,-1.69413 3.23305,-1.69413z" data-paper-data="{&quot;index&quot;:null}" fill="none" stroke="#330d42" stroke-width="1.5" stroke-linecap="round"/><path d="M221.08297,224.20397c-1.76744,1.46259 -3.79307,1.93181 -4.52436,1.04811c-0.73129,-0.88369 0.10867,-2.78574 1.8761,-4.24833c1.76744,-1.46259 3.79307,-1.93186 4.52436,-1.04813c0.73129,0.88369 -0.10867,2.78576 -1.8761,4.24835z" data-paper-data="{&quot;index&quot;:null}" fill="none" stroke="#330d42" stroke-width="1.5" stroke-linecap="butt"/><path d="M220.79892,224.35474c-1.26372,1.04576 -2.71204,1.38126 -3.23489,0.7494c-0.52285,-0.63186 0.0777,-1.99181 1.34143,-3.03756c1.26372,-1.04576 2.71204,-1.38128 3.23489,-0.7494c0.52285,0.63186 -0.0777,1.99184 -1.34143,3.03756z" data-paper-data="{&quot;index&quot;:null}" fill="none" stroke="#330d42" stroke-width="1.5" stroke-linecap="butt"/><path d="M221.20803,224.89166c-1.26372,1.04576 -2.71204,1.38128 -3.23489,0.7494c-0.52285,-0.63186 0.0777,-1.99184 1.34143,-3.03756c1.26372,-1.04576 2.71204,-1.38126 3.23489,-0.7494c0.52285,0.63186 -0.07771,1.99181 -1.3414,3.03756z" data-paper-data="{&quot;index&quot;:null}" fill="none" stroke="#330d42" stroke-width="1.5" stroke-linecap="butt"/><path d="M218.17795,216.06815c0,0 -2.26446,1.73253 -3.15412,4.4706c-0.88969,2.73806 1.01803,3.31957 1.01803,3.31957l-1.78974,1.72926l-4.67604,-4.45904l7.91973,-6.00025z" data-paper-data="{&quot;index&quot;:null}" fill="none" stroke="#330d42" stroke-width="1.5" stroke-linecap="round"/><path d="M210.80633,222.01643l-5.18065,-5.53945l6.70476,-5.99103l5.30377,5.08993z" data-paper-data="{&quot;index&quot;:null}" fill="none" stroke="#330d42" stroke-width="1.5" stroke-linecap="round"/><path d="M205.32243,148.82348l10.11913,-11.76099c0,0 0.99144,2.02479 2.11501,3.18175c1.12358,1.15696 3.45385,1.32672 3.45385,1.32672l-11.59775,11.40321z" fill="none" stroke="#330d42" stroke-width="1.5" stroke-linecap="round"/><path d="M221.40246,141.43712c-0.65393,0.81511 -2.5056,0.41562 -4.1358,-0.89224c-1.6302,-1.30786 -2.42161,-3.02884 -1.76771,-3.84395c0.65393,-0.81511 2.5056,-0.41565 4.1358,0.89221c1.6302,1.30786 2.42164,3.02887 1.76771,3.84398z" fill="none" stroke="#330d42" stroke-width="1.5" stroke-linecap="butt"/><path d="M220.63784,140.20817c-0.46756,0.58281 -1.79149,0.29718 -2.95708,-0.63796c-1.16559,-0.93511 -1.73145,-2.16565 -1.2639,-2.74843c0.46756,-0.58281 1.79151,-0.29719 2.9571,0.63794c1.16559,0.93511 1.73146,2.16566 1.26391,2.74844z" fill="none" stroke="#330d42" stroke-width="1.5" stroke-linecap="butt"/><path d="M221.00308,139.71343c-0.46756,0.58281 -1.79149,0.29718 -2.95708,-0.63796c-1.16559,-0.93511 -1.73146,-2.16565 -1.26391,-2.74843c0.46756,-0.58281 1.79152,-0.29719 2.95709,0.63795c1.16559,0.93511 1.73145,2.16565 1.2639,2.74843z" fill="none" stroke="#330d42" stroke-width="1.5" stroke-linecap="butt"/><path d="M216.49258,145.90992l-7.29716,-5.35629l4.23945,-4.0028l1.48863,1.67567c0,0 -1.65746,0.17362 -0.80922,2.65546c0.84825,2.48186 2.9867,4.16238 2.9867,4.16238z" fill="none" stroke="#330d42" stroke-width="1.5" stroke-linecap="round"/><path d="M216.61185,145.41704l-4.76097,4.7098l-6.1903,-5.36468l4.59935,-5.20054z" fill="none" stroke="#330d42" stroke-width="1.5" stroke-linecap="round"/><path d="M221.06826,181.6297l-0.02897,-3.81975l1.8303,-0.01388l0.02897,3.81975z" fill="none" stroke="#330d42" stroke-width="1.5" stroke-linecap="butt"/><path d="M220.95772,180.46203l-0.00456,-0.60128l1.95703,-0.01484l0.00457,0.60127z" fill="none" stroke="#330d42" stroke-width="1.5" stroke-linecap="butt"/><path d="M221.31124,182.18494l-0.00483,-0.63664l1.75073,-0.01328l0.00483,0.63664z" fill="none" stroke="#330d42" stroke-width="1.5" stroke-linecap="butt"/><path d="M217.45948,184.79784l-0.07146,-9.41973l3.70777,-0.02812l0.07146,9.41973z" fill="none" stroke="#330d42" stroke-width="1.5" stroke-linecap="butt"/><path d="M221.24238,181.46206l-0.6931,1.10762l-1.10232,0.00836l-0.21257,-1.60183l-1.00209,0.00761" fill="none" stroke="#330d42" stroke-width="1.5" stroke-linecap="round"/><path d="M214.56297,192.33599l0.11647,-3.41877l9.68453,0.06897l-3.95382,4.44474z" fill="none" stroke="#330d42" stroke-width="1.5" stroke-linecap="round"/><path d="M216.51013,186.1975l5.13086,0.53074l2.29791,2.54599l-9.97365,-0.6364z" fill="none" stroke="#330d42" stroke-width="1.5" stroke-linecap="round"/><path d="M218.55349,192.73296l0.97738,-2.57082" fill="none" stroke="#330d42" stroke-width="1.5" stroke-linecap="round"/><path d="M231.51652,199.07195l-0.05372,7.77964l-2.58268,1.3725l-20.40864,-0.29614l5.07638,-14.46958l16.25623,2.80801z" fill="none" stroke="#330d42" stroke-width="1.5" stroke-linecap="round"/><path d="M229.84515,201.67769l-0.01625,-2.14197l-1.04113,-3.48713l2.92945,-0.2477l2.72021,1.89599l0.24769,2.92945z" fill="none" stroke="#330d42" stroke-width="1.5" stroke-linecap="round"/><path d="M229.95188,200.8877l4.84681,-0.14951l-0.73785,6.77015l-5.85543,0.94638z" fill="none" stroke="#330d42" stroke-width="1.5" stroke-linecap="round"/><path d="M233.32544,199.73469l-0.01112,-1.46556" fill="none" stroke="#330d42" stroke-width="1.5" stroke-linecap="round"/><path d="M232.35439,205.49194l0.21866,-0.90359" fill="none" stroke="#330d42" stroke-width="1.5" stroke-linecap="round"/><path d="M233.46127,202.77773l-0.11958,-0.90103" fill="none" stroke="#330d42" stroke-width="1.5" stroke-linecap="round"/><path d="M232.6781,203.57287l-2.48274,-0.31939" fill="none" stroke="#330d42" stroke-width="1.5" stroke-linecap="round"/><path d="M229.65047,205.73795l2.03011,0.09733" fill="none" stroke="#330d42" stroke-width="1.5" stroke-linecap="round"/><path d="M227.02505,201.47364l-1.07691,6.66l-14.77099,-0.22618l2.4357,-5.88108l9.92075,-0.07526z" fill="none" stroke="#330d42" stroke-width="1.5" stroke-linecap="round"/><path d="M219.48284,202.99651l-1.87973,4.86217l-5.07483,-0.18701l2.10947,-4.30021z" fill="none" stroke="#330d42" stroke-width="1.5" stroke-linecap="round"/><path d="M226.69369,202.37808l-1.08632,5.41989l-6.65313,-0.17504l2.67146,-4.52996z" fill="none" stroke="#330d42" stroke-width="1.5" stroke-linecap="round"/><path d="M214.17278,197.22162l0.341,7.40282l-6.08447,5.17297l0.21245,-9.54318z" fill="none" stroke="#330d42" stroke-width="1.5" stroke-linecap="round"/><path d="M214.3634,166.032l-3.03262,-5.53105l-1.37236,-11.95216l4.26131,-1.45646l0.36368,10.39331l2.89992,6.81378z" fill="none" stroke="#330d42" stroke-width="1.5" stroke-linecap="round"/><path d="M215.54447,171.53643l-3.04447,-7.0975l6.12441,0.09595l5.31755,6.36819z" fill="none" stroke="#330d42" stroke-width="1.5" stroke-linecap="round"/><path d="M212.96825,169.84703l10.5454,0.91689l-0.98278,1.8588l-7.96272,1.62694z" fill="none" stroke="#330d42" stroke-width="1.5" stroke-linecap="round"/><path d="M215.92522,165.40986l3.44793,3.96136" fill="none" stroke="#330d42" stroke-width="1.5" stroke-linecap="round"/><path d="M218.06659,179.78226c0.08832,11.64309 -3.32277,21.10806 -7.61887,21.14064c-4.29611,0.03258 -7.85039,-9.37955 -7.93871,-21.02263c-0.08832,-11.64309 3.32277,-21.10806 7.61888,-21.14064c4.29611,-0.03258 7.85039,9.37956 7.93871,21.02263z" fill="none" stroke="#330d42" stroke-width="1.5" stroke-linecap="butt"/><path d="M214.79551,179.5816c0.06471,8.52996 -2.65889,15.46592 -6.08331,15.49189c-3.42445,0.02598 -6.25295,-6.86786 -6.31766,-15.39783c-0.06471,-8.52996 2.65891,-15.4659 6.08334,-15.49187c3.42445,-0.02598 6.25292,6.86784 6.31763,15.39781z" fill="none" stroke="#330d42" stroke-width="1.5" stroke-linecap="butt"/><path d="M211.14877,189.30512l-0.14538,-19.16516l2.25475,-0.0171l0.14538,19.16516z" fill="none" stroke="#330d42" stroke-width="1.5" stroke-linecap="butt"/><path d="M233.26784,162.41733l-3.38208,0.02566l-11.28214,-1.04183l-2.77494,-9.1111l12.14043,-4.71455l5.63338,-0.49369z" fill="none" stroke="#330d42" stroke-width="1.5" stroke-linecap="round"/><path d="M227.83769,159.9782l-7.78563,-0.8429l-5.41219,-0.07167l-0.59534,-4.16697l0.05802,-7.21595l14.54039,-0.44853l0.09065,11.95002z" fill="none" stroke="#330d42" stroke-width="1.5" stroke-linecap="round"/><path d="M227.50807,161.10814l6.53953,0.06312l-0.19639,3.83475l-1.46643,-0.10163l-4.64184,-2.55786z" fill="none" stroke="#330d42" stroke-width="1.5" stroke-linecap="round"/><path d="M232.01148,160.28479l-0.14094,-3.71944l1.24011,-0.0094l-0.00685,-0.9019l-0.78917,0.00598l-0.02907,-3.83301l0.67726,0.10758l0.21951,-0.79084l-0.78828,0.11871l-0.02907,-3.83301l4.62303,0.07766l-0.08878,3.15744l-1.23499,0.68582l1.46643,0.10163l0.14265,3.9449l-1.91054,0.8037l2.02753,-0.24088l0.14866,4.73407z" fill="none" stroke="#330d42" stroke-width="1.5" stroke-linecap="round"/><path d="M228.53618,148.02215l0.07355,9.69532l-0.89247,1.24696l-4.51886,-1.2059l-0.52362,-9.57914z" fill="none" stroke="#330d42" stroke-width="1.5" stroke-linecap="round"/><path d="M221.5517,148.75161l-0.27407,8.45778l-1.00778,0.9096l-4.51116,-0.19128l-0.6901,-1.79863l-0.17686,-8.45435l5.41647,0.63537z" fill="none" stroke="#330d42" stroke-width="1.5" stroke-linecap="round"/><path d="M234.10305,153.61707l-0.04361,-5.74954l0.78914,-0.00598l0.04361,5.74954z" fill="none" stroke="#330d42" stroke-width="1.5" stroke-linecap="butt"/><path d="M221.04456,195.01751l4.186,-3.03823l2.11959,1.98823l-2.38375,2.82413z" fill="none" stroke="#330d42" stroke-width="1.5" stroke-linecap="round"/><path d="M224.64904,194.58932l3.57717,-4.03576l2.421,2.08614l-3.67888,3.8361z" fill="none" stroke="#330d42" stroke-width="1.5" stroke-linecap="round"/><path d="M225.15314,194.98636l-1.50997,-0.8905l2.57656,-3.82775l2.20615,0.18368z" fill="none" stroke="#330d42" stroke-width="1.5" stroke-linecap="round"/><path d="M204.88122,234.06871l2.35428,-9.44157" fill="none" stroke="#330d42" stroke-width="1.5" stroke-linecap="round"/><path d="M189.29099,220.65786l3.50786,-4.97172" fill="none" stroke="#330d42" stroke-width="1.5" stroke-linecap="round"/><path d="M219.47477,239.08976l-0.08139,-10.72937" fill="none" stroke="#330d42" stroke-width="1.5" stroke-linecap="round"/><path d="M228.33309,226.05325l6.96426,7.87805" fill="none" stroke="#330d42" stroke-width="1.5" stroke-linecap="round"/><path d="M236.65427,216.00657l10.564,2.71901" fill="none" stroke="#330d42" stroke-width="1.5" stroke-linecap="round"/><path d="M203.89915,129.2022l-0.85881,-2.51268l3.33763,9.4917" fill="none" stroke="#330d42" stroke-width="1.5" stroke-linecap="round"/><path d="M218.50884,124.05295l-0.01767,-2.33245l0.26797,10.72794" fill="none" stroke="#330d42" stroke-width="1.5" stroke-linecap="round"/><path d="M189.53195,141.72069l-1.32385,-2.32257l4.15894,7.05957" fill="none" stroke="#330d42" stroke-width="1.5" stroke-linecap="round"/><path d="M232.9942,127.11543l1.10755,-1.59458l-6.27211,9.56461" fill="none" stroke="#330d42" stroke-width="1.5" stroke-linecap="round"/><path d="M235.54952,144.17071l11.45314,-3.07263l-1.86104,0.66724" fill="none" stroke="#330d42" stroke-width="1.5" stroke-linecap="round"/><path d="M200.39402,149.29544c8.65097,-5.04037 10.51392,6.77498 10.51392,6.77498c0,0 0.48464,17.61788 0.45729,26.14785c-0.0262,8.171 -0.61805,24.0013 -0.61805,24.0013c0,0 -1.28348,5.67172 -6.08086,6.90087c-3.18838,0.81691 -13.86489,-7.26105 -17.98738,-17.00044c-4.12249,-9.73937 2.8151,-9.37585 2.77111,-15.17363c-0.04398,-5.79778 -5.74303,-12.36448 -3.56398,-18.01176c2.17905,-5.64729 5.857,-8.59881 14.50798,-13.63917z" fill="none" stroke="#330d42" stroke-width="1.5" stroke-linecap="round"/><path d="M183.64355,152.66947c0,0 17.7701,-1.71381 21.09326,-1.6031c1.46679,0.04886 2.8137,0.28152 3.45179,3.2208c0.62205,2.86551 2.77898,14.48072 2.89722,25.23237c0.11825,10.75164 -1.64472,23.95153 -2.14378,26.53332c-0.49907,2.58179 -1.84993,3.54221 -3.76057,3.63628c-2.94479,0.14499 -18.96704,-3.46388 -18.96704,-3.46388l-2.57092,-53.55578z" fill="none" stroke="#330d42" stroke-width="1.5" stroke-linecap="round"/><path d="M206.37373,164.56661c1.07649,2.51228 1.94369,9.17677 1.94369,9.17677l1.85756,0.07341l-0.13873,14.5175l-1.88831,0.78914c0,0 0.65195,5.74317 -0.9328,8.10422c-9.1857,13.68565 -18.77562,3.92752 -19.2045,-3.00051c-0.20548,-3.31938 3.07937,-14.4307 3.07937,-14.4307c0,0 -4.89363,-13.92741 -5.49602,-17.394c-0.4107,-2.36328 15.10484,-11.07969 20.77977,2.16415z" fill="none" stroke="#330d42" stroke-width="1.5" stroke-linecap="round"/><path d="M196.30031,156.57207c5.68664,-0.04314 10.3369,5.23845 10.38665,11.79677c0.04975,6.55832 -4.51987,11.90984 -10.20651,11.95297c-5.68664,0.04313 -10.3369,-5.23844 -10.38665,-11.79677c-0.04975,-6.55832 4.51987,-11.90984 10.20651,-11.95298z" fill="none" stroke="#330d42" stroke-width="1.5" stroke-linecap="butt"/><path d="M196.17867,180.17377c5.68664,-0.04313 10.33688,5.23848 10.38663,11.79677c0.04975,6.55829 -4.51984,11.90984 -10.20648,11.95297c-5.68664,0.04313 -10.33687,-5.23847 -10.38662,-11.79676c-0.04975,-6.55829 4.51984,-11.90985 10.20648,-11.95298z" fill="none" stroke="#330d42" stroke-width="1.5" stroke-linecap="butt"/><path d="M189.43515,192.85211l-0.15165,-19.99187l13.67867,-0.10376l0.15165,19.99187z" fill="none" stroke="#330d42" stroke-width="1.5" stroke-linecap="butt"/><path d="M193.39281,171.92656c-3.61773,-3.59514 -4.21435,-8.86042 -1.33257,-11.76036c2.88181,-2.89999 8.15072,-2.33646 11.76851,1.25867c3.61773,3.59514 4.21435,8.86042 1.33257,11.76036c-2.88181,2.89999 -8.15075,2.33643 -11.76851,-1.25869z" data-paper-data="{&quot;index&quot;:null}" fill="none" stroke="#330d42" stroke-width="1.5" stroke-linecap="butt"/><path d="M205.03041,188.35594c2.92541,2.85588 2.40881,8.12965 -1.154,11.77923c-3.56284,3.64958 -8.82259,4.293 -11.74807,1.43705c-2.92541,-2.85588 -2.4088,-8.12964 1.154,-11.77922c3.56284,-3.64958 8.82258,-4.29301 11.74806,-1.43706z" fill="none" stroke="#330d42" stroke-width="1.5" stroke-linecap="butt"/><path d="M201.9517,189.30824c2.00322,0.49889 3.30203,2.20882 2.90101,3.81923c-0.40105,1.61046 -2.35011,2.51154 -4.35333,2.01266c-2.00322,-0.49889 -3.30206,-2.20878 -2.90101,-3.81924c0.40105,-1.61046 2.35012,-2.51154 4.35334,-2.01265z" fill="none" stroke="#330d42" stroke-width="1.5" stroke-linecap="butt"/><path d="M197.63034,165.33823c0.70865,-0.73505 2.02437,-0.61632 2.93875,0.26517c0.91436,0.88152 1.08113,2.19201 0.37242,2.92709c-0.70865,0.73505 -2.0244,0.61635 -2.93875,-0.26517c-0.91436,-0.88152 -1.0811,-2.19201 -0.37242,-2.92709z" data-paper-data="{&quot;index&quot;:null}" fill="none" stroke="#330d42" stroke-width="1.5" stroke-linecap="butt"/><path d="M201.75849,190.08416c1.47015,0.36612 2.42335,1.62104 2.12905,2.8029c-0.29433,1.18191 -1.72473,1.84322 -3.19491,1.4771c-1.47015,-0.36612 -2.42335,-1.62102 -2.12904,-2.8029c0.29433,-1.18191 1.72473,-1.84323 3.1949,-1.4771z" fill="none" stroke="#330d42" stroke-width="1.5" stroke-linecap="butt"/><path d="M198.08129,165.773c0.51565,-0.53484 1.47297,-0.44847 2.1383,0.19294c0.66533,0.6414 0.78664,1.59499 0.27099,2.12984c-0.51565,0.53484 -1.473,0.44843 -2.1383,-0.19297c-0.66533,-0.6414 -0.78661,-1.59496 -0.27099,-2.12981z" data-paper-data="{&quot;index&quot;:null}" fill="none" stroke="#330d42" stroke-width="1.5" stroke-linecap="butt"/><path d="M195.67075,161.18941c0,0 2.16831,-0.8548 3.84381,-0.17157c1.67546,0.68323 3.87945,4.52775 3.87945,4.52775" fill="none" stroke="#330d42" stroke-width="1.5" stroke-linecap="round"/><path d="M194.55959,164.90053l-1.57509,-1.12734l1.54916,-2.29036" fill="none" stroke="#330d42" stroke-width="1.5" stroke-linecap="round"/><path d="M195.68045,162.47106l-1.15651,-2.26983" fill="none" stroke="#330d42" stroke-width="1.5" stroke-linecap="round"/><path d="M201.82325,164.98787l1.85125,-0.01404l0.00972,1.28162" fill="none" stroke="#330d42" stroke-width="1.5" stroke-linecap="round"/><path d="M203.13298,168.68064c0,0 0.9894,-0.27625 1.28273,0.13267c0.29333,0.40893 0.61617,1.38163 0.44448,2.27524c-0.17169,0.89361 -4.01311,2.36186 -5.96692,1.89661c-1.95383,-0.46524 -4.29912,-3.52768 -4.29912,-3.52768" fill="none" stroke="#330d42" stroke-width="1.5" stroke-linecap="round"/><path d="M201.58166,170.68617l0.73471,2.9851" fill="none" stroke="#330d42" stroke-width="1.5" stroke-linecap="round"/><path d="M194.30828,169.31721l-1.01518,-2.41328" fill="none" stroke="#330d42" stroke-width="1.5" stroke-linecap="round"/><path d="M193.31578,169.89439l2.27304,-0.7293" fill="none" stroke="#330d42" stroke-width="1.5" stroke-linecap="round"/><path d="M186.22707,195.62071l3.93549,-8.20065l5.47553,1.80898l-3.4759,7.68626z" fill="none" stroke="#330d42" stroke-width="1.5" stroke-linecap="round"/><path d="M192.18584,163.9395l2.84145,7.94274l-5.60419,1.3592l-3.25783,-8.49265z" data-paper-data="{&quot;index&quot;:null}" fill="none" stroke="#330d42" stroke-width="1.5" stroke-linecap="round"/><path d="M205.15659,150.07253c0,0 -10.2521,4.10476 -13.75431,12.77446c-3.50221,8.66969 1.8371,12.66417 1.85553,18.13212c0.01843,5.46795 -5.85848,7.75452 -2.8923,15.0543c2.02061,4.97269 15.13897,14.0585 15.13897,14.0585l-2.12536,2.91522c0,0 -11.35317,-6.94006 -14.72743,-16.42386c-3.37426,-9.48381 2.68529,-9.63281 2.5669,-15.4813c-0.11842,-5.84849 -4.58833,-9.84294 -3.64683,-15.04456c2.09585,-11.57902 16.59893,-18.55436 16.59893,-18.55436z" fill="none" stroke="#330d42" stroke-width="1.5" stroke-linecap="round"/><path d="M199.97836,213.39884c0,0 -8.64172,3.97771 -19.66118,0.14915c-9.13369,-3.17337 -19.9952,-8.23781 -26.07611,-13.21006c-5.98735,-4.89576 -12.26244,-11.21608 -11.8844,-20.97936c0.37805,-9.76329 4.58961,-13.97651 13.19209,-20.64716c8.25278,-6.39948 22.33954,-11.46137 26.96025,-12.91588c8.36089,-2.63179 20.03778,1.93754 20.03778,1.93754l-7.19,3.36297l-7.5204,7.37045l-2.66208,5.76641l0.97188,9.2214l2.91511,3.8087l0.20548,3.30688l-3.02943,4.89857l-1.21774,5.9296l2.40829,8.33989l7.45891,8.30157l5.09154,5.35936z" fill="none" stroke="#330d42" stroke-width="1.5" stroke-linecap="round"/><path d="M148.99973,164.65751c0,0 2.56315,-3.44911 4.74762,-5.62806c2.1845,-2.17895 7.00189,-4.38243 7.00189,-4.38243c0,0 3.80129,-0.78725 9.75409,1.72987c5.9528,2.51712 13.59127,8.19477 13.59127,8.19477l-2.26556,10.47971l-1.82839,-3.23312c0,0 -7.12156,-8.28281 -11.07694,-9.65693c-3.95538,-1.37413 -10.26511,2.24252 -10.26511,2.24252z" fill="none" stroke="#330d42" stroke-width="1.5" stroke-linecap="round"/><path d="M160.16125,196.03591c0,0 6.36388,3.52052 10.29795,2.08655c3.93407,-1.43397 10.92917,-9.82387 10.92917,-9.82387l1.77913,-3.26048l2.42428,10.44412c0,0 -7.55146,5.79286 -13.46539,8.4c-5.91393,2.60714 -9.72672,1.87765 -9.72672,1.87765c0,0 -4.85026,-2.13014 -7.06757,-4.2757c-2.21728,-2.14557 -6.08222,-5.1701 -6.08222,-5.1701z" data-paper-data="{&quot;index&quot;:null}" fill="none" stroke="#330d42" stroke-width="1.5" stroke-linecap="round"/><path d="M169.72481,196.42898c-6.61704,2.32057 -17.84235,2.11963 -17.84235,2.11963c0,0 -9.26923,-4.48574 -9.51786,-18.14702c-0.16071,-8.82999 6.91159,-16.28736 6.91159,-16.28736c0,0 3.91599,-2.12455 15.32802,-0.65744c14.5688,1.87294 23.75947,16.95666 23.75947,16.95666c0,0 -3.89705,10.84566 -18.63888,16.01553z" fill="none" stroke="#330d42" stroke-width="1.5" stroke-linecap="round"/><path d="M142.06126,182.02741l-0.01231,-1.6234l44.32783,-0.33625l0.01231,1.6234z" fill="none" stroke="#330d42" stroke-width="1.5" stroke-linecap="butt"/><path d="M197.67605,147.69257l7.21645,0.12084c0,0 -11.96148,6.30135 -15.93643,15.5706c-3.97495,9.26923 2.71136,10.5954 2.82818,16.13053c0.11683,5.53509 -5.14745,10.87273 -2.38545,18.45243c2.68402,7.36576 15.62704,14.98005 15.62704,14.98005l-7.7536,0.40993c0,0 -11.24374,-6.48734 -14.5554,-16.3927c-3.31165,-9.90535 3.69752,-11.94885 3.30866,-15.65039c-0.35043,-3.33573 -5.22021,-9.25634 -3.74074,-17.52811c0.91674,-5.12551 15.39129,-16.09314 15.39129,-16.09314z" fill="none" stroke="#330d42" stroke-width="1.5" stroke-linecap="round"/><path d="M188.80232,178.78666c1.64375,-0.01247 2.98328,0.90611 2.99198,2.05175c0.00868,1.14564 -1.31675,2.08446 -2.9605,2.09693c-1.64374,0.01247 -2.98328,-0.90614 -2.99197,-2.05178c-0.00869,-1.14564 1.31675,-2.08443 2.96049,-2.0969z" fill="none" stroke="#330d42" stroke-width="1.5" stroke-linecap="butt"/><path d="M228.65255,217.14376c-0.25429,-0.6627 0.19486,-1.66425 1.30414,-2.39112c1.10929,-0.72686 2.26498,-0.79172 2.71297,-0.24113c1.4124,1.73594 0.89564,2.73834 -0.21364,3.46521c-1.10929,0.72686 -2.72107,1.98783 -3.80345,-0.83293z" fill="none" stroke="#330d42" stroke-width="1.5" stroke-linecap="butt"/><path d="M230.84581,216.03115c1.10929,-0.72686 2.32393,-0.83484 2.71295,-0.24113c0.38902,0.59369 -0.19486,1.66425 -1.30414,2.39112c-1.10929,0.7269 -2.32393,0.83487 -2.71295,0.24116c-0.38902,-0.59371 0.19485,-1.66428 1.30414,-2.39115z" fill="none" stroke="#330d42" stroke-width="1.5" stroke-linecap="butt"/><path d="M233.1405,217.18409l-3.04593,-0.24867" fill="none" stroke="#330d42" stroke-width="1.5" stroke-linecap="round"/><path d="M239.59733,191.05426l-0.16615,-21.90303l40.32732,-0.30591l0.16614,21.90302z" fill="none" stroke="#330d42" stroke-width="1.5" stroke-linecap="butt"/><path d="M298.14248,217.85582l-0.18845,-24.84296l18.81888,-0.38874l-2.07375,24.36814z" fill="none" stroke="#330d42" stroke-width="1.5" stroke-linecap="round"/><path d="M314.12448,141.23359l2.70349,25.56182l-19.07543,-0.34728l0.05317,-26.07471z" fill="none" stroke="#330d42" stroke-width="1.5" stroke-linecap="round"/><path d="M305.41515,117.93119l8.96212,23.54646l-17.32067,-0.60653l-5.95083,-23.56933z" fill="none" stroke="#330d42" stroke-width="1.5" stroke-linecap="round"/><path d="M306.34178,240.08589l-13.12471,0.01508l4.92103,-22.82936l17.06042,-0.62139z" fill="none" stroke="#330d42" stroke-width="1.5" stroke-linecap="round"/><path d="M307.09085,239.58825l-11.14318,19.76325l-12.54342,0.58712l9.88663,-19.9997z" fill="none" stroke="#330d42" stroke-width="1.5" stroke-linecap="round"/><path d="M274.48686,169.42106l10.04571,-17.45042l4.49005,-0.03406l0.42237,55.67979l-4.49113,-0.10834l-10.15529,-16.72756z" fill="none" stroke="#330d42" stroke-width="1.5" stroke-linecap="round"/><path d="M294.98837,99.80749l11.18331,18.60993l-14.30749,-0.38344l-9.67765,-18.62136z" fill="none" stroke="#330d42" stroke-width="1.5" stroke-linecap="round"/><path d="M287.88403,141.59664l-3.75352,-19.21296l-7.65483,-18.28138l6.57966,-4.5596l9.7638,18.8667l5.58237,22.50616l-0.12062,25.62246l-10.20615,0.19739z" fill="none" stroke="#330d42" stroke-width="1.5" stroke-linecap="butt"/><path d="M254.24155,185.18421l-0.07763,-10.23449l14.46944,-0.10975l0.07763,10.23448z" fill="none" stroke="#330d42" stroke-width="1.5" stroke-linecap="butt"/><path d="M253.99648,183.89198l-0.05712,-7.52881l14.82234,-0.11243l0.05712,7.52881z" fill="none" stroke="#330d42" stroke-width="1.5" stroke-linecap="butt"/><path d="M260.55473,179.95996c0.01134,1.49432 -0.90116,2.71267 -2.03814,2.72129c-1.13698,0.00862 -2.06784,-1.19574 -2.07918,-2.69006c-0.01134,-1.49432 0.90116,-2.71266 2.03814,-2.72129c1.13698,-0.00862 2.06784,1.19574 2.07918,2.69005z" fill="none" stroke="#330d42" stroke-width="1.5" stroke-linecap="butt"/><path d="M259.73127,179.96622c0.01134,1.49432 -0.90116,2.71267 -2.03814,2.72129c-1.13698,0.00862 -2.06785,-1.19574 -2.07919,-2.69006c-0.01134,-1.49432 0.90116,-2.71266 2.03814,-2.72128c1.13698,-0.00862 2.06785,1.19573 2.07919,2.69005z" fill="none" stroke="#330d42" stroke-width="1.5" stroke-linecap="butt"/><path d="M268.59425,185.19298l-0.07942,-10.46975l7.08147,3.00505l-0.08552,4.23583z" fill="none" stroke="#330d42" stroke-width="1.5" stroke-linecap="butt"/><path d="M278.21717,254.41256l6.49297,-15.98355l3.74857,-21.0737l-0.1785,-23.53097l10.19362,-0.42817l-0.09435,23.88385l-4.93967,22.58598l-8.86837,19.90999z" fill="none" stroke="#330d42" stroke-width="1.5" stroke-linecap="butt"/><path d="M289.62394,193.65865l-0.20632,-27.19907l16.09161,-0.12206l0.20632,27.19907z" fill="none" stroke="#330d42" stroke-width="1.5" stroke-linecap="butt"/><path d="M292.308,190.79005l-0.16743,-22.07256l8.82903,-0.06697l0.16743,22.07255z" fill="none" stroke="#330d42" stroke-width="1.5" stroke-linecap="butt"/><path d="M308.05522,136.63321l-22.15065,5.17326l-0.93037,-0.763l13.82117,-6.26513l-7.23524,-13.54907l11.97696,-5.60945l14.12068,15.807z" data-paper-data="{&quot;index&quot;:null}" fill="#b61a00" stroke="#000000" stroke-width="0" stroke-linecap="round"/><path d="M273.73222,141.74907l-12.24407,8.88681l9.37644,-12.38261z" fill="#3e3645" stroke="#000000" stroke-width="0" stroke-linecap="round"/><path d="M271.76012,220.63875l-9.42281,-11.56356l12.50969,8.29315z" fill="#3e3645" stroke="#000000" stroke-width="0" stroke-linecap="round"/><path d="M268.28755,190.90105l17.18014,17.59281l-1.05661,3.3903l-20.69237,-16.88973z" fill="#3d3738" stroke="#000000" stroke-width="0" stroke-linecap="round"/><path d="M261.86338,164.43272l20.17962,-15.03509l-3.86062,8.28204l-11.15053,10.3667z" fill="#3d3738" stroke="#000000" stroke-width="0" stroke-linecap="round"/><path d="M253.1421,156.17366l25.28774,-19.19539l6.7932,10.23611l-23.29723,17.89435z" data-paper-data="{&quot;index&quot;:null}" fill="#7f7373" stroke="#938489" stroke-width="0.375" stroke-linecap="round"/><path d="M262.63541,194.86736l22.31372,16.60684l-6.28443,9.78862l-24.21692,-17.81002z" fill="#7f7373" stroke="#938489" stroke-width="0.375" stroke-linecap="round"/><path d="M280.79127,216.24093l5.5343,-1.66548l14.39135,6.65539l-11.7469,20.92394l-19.82628,-9.72587l-0.15889,-3.11049z" fill="#f24500" stroke="#000000" stroke-width="0" stroke-linecap="round"/><path d="M287.20045,240.7338l-0.93261,1.90115l-17.51211,-7.84933l-0.02094,-2.76108z" fill="#d4340d" stroke="#000000" stroke-width="0" stroke-linecap="round"/><path d="M268.89369,235.13665l-1.08945,-0.93878l-1.9186,-3.23243l-1.32757,-7.18971l4.83263,5.53964z" fill="#ed6b0a" stroke="#000000" stroke-width="0" stroke-linecap="round"/><path d="M280.95325,216.3212l-2.49978,-5.06831l7.55534,-2.76314l5.83361,2.12041l0.03386,4.46435l-4.87304,-0.33792z" fill="#f36501" stroke="#000000" stroke-width="0" stroke-linecap="round"/><path d="M264.47739,223.67041l14.24255,-12.96069l2.33984,5.25861l-11.66908,13.34705z" fill="#ff8501" stroke="#000000" stroke-width="0" stroke-linecap="round"/><path d="M320.08809,224.46618l-14.21279,16.88392l-12.35491,-5.7238l7.19653,-14.39545l-14.25401,-6.38585l0.94083,-0.81888l22.76763,5.10365z" fill="#b61a00" stroke="#000000" stroke-width="0" stroke-linecap="round"/><path d="M312.28974,220.33131l0.57705,-2.57491l7.19772,3.59827l0.15685,3.27351z" fill="#8f1800" stroke="#000000" stroke-width="0" stroke-linecap="round"/><path d="M267.70127,127.57055l0.10967,-2.95265l19.21187,-9.51451l11.77255,19.67494l-13.95129,6.52282l-5.42678,-1.49891z" data-paper-data="{&quot;index&quot;:null}" fill="#f24500" stroke="#000000" stroke-width="0" stroke-linecap="round"/><path d="M267.58143,125.10864l-0.18422,-2.79772l16.98026,-7.70083l0.93816,1.78963z" data-paper-data="{&quot;index&quot;:null}" fill="#d4340d" stroke="#000000" stroke-width="0" stroke-linecap="round"/><path d="M268.09749,127.56754l-4.39963,5.35246l0.95396,-6.86639l1.82569,-3.094l1.04977,-0.90635z" data-paper-data="{&quot;index&quot;:null}" fill="#ed6b0a" stroke="#000000" stroke-width="0" stroke-linecap="round"/><path d="M285.50104,140.84372l4.75423,-0.09695l0.03212,4.23494l-5.66364,2.09638l-7.41568,-2.51051l2.6024,-5.1758z" data-paper-data="{&quot;index&quot;:null}" fill="#f36501" stroke="#000000" stroke-width="0" stroke-linecap="round"/><path d="M268.09749,127.56754l11.91191,12.4869l-2.53328,5.02445l-14.09244,-12.08531z" data-paper-data="{&quot;index&quot;:null}" fill="#ff8501" stroke="#000000" stroke-width="0" stroke-linecap="round"/><path d="M317.27402,130.85919l-0.00877,2.54438l-6.55878,4.49293l-0.28265,-2.43629z" data-paper-data="{&quot;index&quot;:null}" fill="#8f1800" stroke="#000000" stroke-width="0" stroke-linecap="round"/><path d="M258.31351,194.68252l-0.22755,-29.9976l11.05793,-0.08389l0.22755,29.9976z" fill="#24251e" stroke="none" stroke-width="0" stroke-linecap="butt"/><path d="M254.41653,193.98267l8.4466,0.58533c0,0 2.13633,3.04595 1.77186,5.28997c-0.36447,2.24403 -2.99423,4.78495 -2.99423,4.78495l-15.57561,1.30871l-1.36318,-51.29205l16.01837,-0.01328c0,0 2.65613,2.77627 3.39279,4.95298c0.73667,2.17671 -1.90457,5.75079 -1.90457,5.75079l-7.35859,0.16405z" fill="#252324" stroke="#000000" stroke-width="0" stroke-linecap="round"/><path d="M253.96004,194.5979l-0.22576,-29.76233l8.35228,-0.06336l0.22577,29.76233z" fill="#211e1f" stroke="none" stroke-width="0" stroke-linecap="butt"/><path d="M255.36723,193.99901l-0.2213,-29.17415l0.82347,-0.00624l0.2213,29.17415z" fill="#1b1919" stroke="none" stroke-width="0" stroke-linecap="butt"/><path d="M257.71552,193.39297l-0.21684,-28.58597l0.70583,-0.00536l0.21684,28.58597z" fill="#1b1919" stroke="none" stroke-width="0" stroke-linecap="butt"/><path d="M260.77946,194.0756l-0.22042,-29.05651l0.70583,-0.00535l0.22041,29.0565z" fill="#1b1919" stroke="none" stroke-width="0" stroke-linecap="butt"/><path d="M259.36602,193.85102l-0.21863,-28.82123l0.70583,-0.00535l0.21863,28.82123z" fill="#1b1919" stroke="none" stroke-width="0" stroke-linecap="butt"/><path d="M233.23343,149.17724l0.64674,5.00086l-8.58741,0.47101l-1.17411,-12.09965z" data-paper-data="{&quot;index&quot;:null}" fill="#544f51" stroke="#000000" stroke-width="0" stroke-linecap="round"/><path d="M224.03598,143.22655l1.0451,10.2742l-9.73989,0.14153z" data-paper-data="{&quot;index&quot;:null}" fill="#7b7776" stroke="#8c8887" stroke-width="0.25" stroke-linecap="round"/><path d="M228.01219,147.52571l1.42766,0.93621l4.46383,-0.10151l-0.93569,1.49531l-6.02422,-0.49547l0.11835,-2.2332z" data-paper-data="{&quot;index&quot;:null}" fill="#1b1917" stroke="#000000" stroke-width="0" stroke-linecap="round"/><path d="M228.48979,148.06326l-1.47785,1.36412l-3.36319,-6.40082z" data-paper-data="{&quot;index&quot;:null}" fill="#393534" stroke="#000000" stroke-width="0" stroke-linecap="round"/><path d="M229.03503,148.60028l-7.90082,-7.1105l-0.70156,-3.30931l13.47002,10.04465z" data-paper-data="{&quot;index&quot;:null}" fill="#282320" stroke="#000000" stroke-width="0" stroke-linecap="round"/><path d="M227.96957,144.93987c1.03947,-2.83685 2.67017,-1.60048 3.79035,-0.89053c1.12018,0.70996 1.6521,1.7044 0.26618,3.46157c-0.43958,0.55732 -1.59611,0.51001 -2.71629,-0.19995c-1.12018,-0.70996 -1.58448,-1.70458 -1.34027,-2.37106z" data-paper-data="{&quot;index&quot;:null}" fill="#443e42" stroke="none" stroke-width="0" stroke-linecap="butt"/><path d="M228.83916,143.648c0.37998,-0.59955 1.59614,-0.51001 2.71632,0.19995c1.12018,0.70996 1.72025,1.77155 1.34027,2.37106c-0.37998,0.59955 -1.59614,0.51001 -2.71632,-0.19995c-1.12018,-0.70996 -1.72025,-1.77155 -1.34027,-2.37107z" data-paper-data="{&quot;index&quot;:null}" fill="#7c7080" stroke="none" stroke-width="0" stroke-linecap="butt"/><path d="M232.45636,144.83147l-3.04181,0.29485" data-paper-data="{&quot;index&quot;:null}" fill="none" stroke="#3f393c" stroke-width="0.25" stroke-linecap="round"/><path d="M224.83836,219.59232l0.99041,-12.11607l8.59357,0.34068l-0.5708,5.01011z" fill="#544f51" stroke="#000000" stroke-width="0" stroke-linecap="round"/><path d="M215.89367,208.63394l9.74091,-0.00624l-0.88915,10.28887z" fill="#7b7776" stroke="#8c8887" stroke-width="0.25" stroke-linecap="round"/><path d="M227.71205,214.97061l-0.15222,-2.23115l6.01601,-0.5868l0.95827,1.48093l-4.46486,-0.03378l-1.41329,0.95776z" fill="#1b1917" stroke="#000000" stroke-width="0" stroke-linecap="round"/><path d="M224.36128,219.12241l3.2657,-6.4511l1.49837,1.34155z" fill="#393534" stroke="#000000" stroke-width="0" stroke-linecap="round"/><path d="M234.53514,213.76888l-11.76956,9.0185l-0.41714,-1.48504l7.31393,-7.83472z" fill="#282320" stroke="#000000" stroke-width="0" stroke-linecap="round"/><path d="M223.5719,143.10788l-10.4655,12.64837l-1.14721,-1.64972l9.06571,-13.07417z" data-paper-data="{&quot;index&quot;:null}" fill="#393534" stroke="#000000" stroke-width="0" stroke-linecap="round"/><path d="M222.24498,221.32496l-9.26301,-12.93513l1.12205,-1.66694l10.65617,12.48815z" fill="#393534" stroke="#000000" stroke-width="0" stroke-linecap="round"/><path d="M228.07615,120.86462l-10.91254,9.47322l-10.35627,0.07532l2.62725,-4.32317c0,0 5.03959,-4.92229 8.88707,-6.86352c3.84749,-1.94123 7.38819,-2.18149 7.38819,-2.18149z" data-paper-data="{&quot;index&quot;:null}" fill="#d23e28" stroke="#000000" stroke-width="0" stroke-linecap="round"/><path d="M227.79972,120.63946l-9.08874,7.43814l-7.2762,-0.93198l1.82767,-3.65566c0,0 3.49428,-3.4262 6.2396,-4.81133c2.74529,-1.38513 6.29957,-1.70671 6.29957,-1.70671z" data-paper-data="{&quot;index&quot;:null}" fill="#941300" stroke="#000000" stroke-width="0" stroke-linecap="round"/><path d="M225.68669,245.33958c0,0 -3.51249,-0.50675 -7.20253,-2.73272c-3.69001,-2.22596 -8.34388,-7.51447 -8.34388,-7.51447l-2.29357,-4.50904l10.32104,0.85646l10.16667,10.26959z" fill="#d23e28" stroke="#000000" stroke-width="0" stroke-linecap="round"/><path d="M225.83238,245.11154c0,0 -3.51986,-0.58885 -6.15286,-2.17717c-2.63299,-1.58832 -5.85878,-5.26838 -5.85878,-5.26838l-1.54664,-3.78316l7.4816,-0.25663l8.38334,8.40279z" fill="#941300" stroke="#000000" stroke-width="0" stroke-linecap="round"/><path d="M199.76159,211.0614l12.42021,13.71481l-2.05257,0.01558l-11.75719,-12.41358l-3.63088,1.05389l-1.69566,-2.13313z" data-paper-data="{&quot;index&quot;:null}" fill="#aa4517" stroke="#000000" stroke-width="0" stroke-linecap="round"/><path d="M209.84718,224.514c0,0 -5.99734,-2.23146 -9.27199,-4.59488c-3.27466,-2.36343 -6.20797,-6.5775 -6.20797,-6.5775l4.19209,-0.87155z" data-paper-data="{&quot;index&quot;:null}" fill="#fc8200" stroke="#000000" stroke-width="0" stroke-linecap="round"/><path d="M249.74504,207.62377c0,0 1.28718,26.68391 -26.85271,30.48461c-21.1296,2.09502 -38.68318,-23.17698 -38.68318,-23.17698l11.37229,-0.48689c0,0 16.05614,16.79743 26.55319,14.72159c18.41126,-3.64091 18.89731,-21.7767 18.89731,-21.7767z" data-paper-data="{&quot;index&quot;:null}" fill="#f83b2d" stroke="#000000" stroke-width="0" stroke-linecap="round"/><path d="M246.57637,207.90716c0,0 1.69567,26.15888 -24.69353,28.83172c-19.23617,1.94835 -34.96963,-22.03444 -34.96963,-22.03444l11.7493,-0.92888c0,0 8.47174,14.35422 22.77141,12.98316c14.80758,-1.41976 16.73847,-19.72086 16.73847,-19.72086z" data-paper-data="{&quot;index&quot;:null}" fill="#aa0606" stroke="#000000" stroke-width="0" stroke-linecap="round"/><path d="M246.82923,207.26098c0,0 1.44284,26.80505 -24.94634,29.4779c-19.2362,1.94835 -34.96963,-22.03444 -34.96963,-22.03444l10.35332,-0.45176c0,0 9.87689,15.08999 24.17656,13.71893c14.80758,-1.41976 17.20071,-20.28418 17.20071,-20.28418z" data-paper-data="{&quot;index&quot;:null}" fill="#fa0000" stroke="#000000" stroke-width="0" stroke-linecap="round"/><path d="M195.08682,148.3031l1.66311,-2.15861l3.64644,0.99869l11.56751,-12.59052l2.05257,-0.01557l-12.21069,13.90166z" fill="#aa4517" stroke="#000000" stroke-width="0" stroke-linecap="round"/><path d="M200.58227,147.04848l-4.2048,-0.80785c0,0 2.86905,-4.25809 6.10747,-6.67092c3.23842,-2.41284 9.2012,-4.73501 9.2012,-4.73501z" fill="#fc8200" stroke="#000000" stroke-width="0" stroke-linecap="round"/><path d="M252.26191,195.98331l0.05278,6.95743l-6.95744,0.05278l-0.05278,-6.95743z" data-paper-data="{&quot;index&quot;:null}" fill="#514e47" stroke="none" stroke-width="0" stroke-linecap="butt"/><path d="M250.62996,201.665l0.04691,6.18437l-5.28249,0.04007l-0.04691,-6.18437z" data-paper-data="{&quot;index&quot;:null}" fill="#514e47" stroke="none" stroke-width="0" stroke-linecap="butt"/><path d="M240.14714,152.2533c0,0 -0.76111,-18.12632 -19.22549,-21.48751c-10.52734,-1.91636 -26.32679,15.12273 -26.32679,15.12273l-11.37837,-0.31432c0,0 17.16819,-25.53539 38.32713,-23.76115c28.19432,3.37337 27.31208,30.07374 27.31208,30.07374z" fill="#47a0cc" stroke="#000000" stroke-width="0" stroke-linecap="round"/><path d="M237.2933,152.64816c0,0 -2.2083,-18.26968 -17.03572,-19.46466c-14.31882,-1.15397 -22.57182,13.32712 -22.57182,13.32712l-11.76204,-0.75053c0,0 15.36781,-24.21872 34.63133,-22.56242c26.42668,2.2722 25.12808,28.4538 25.12808,28.4538z" fill="#06527f" stroke="#000000" stroke-width="0" stroke-linecap="round"/><path d="M237.75483,151.99153c0,0 -2.67902,-18.82596 -17.50644,-20.0209c-14.31882,-1.15397 -23.96566,14.08412 -23.96566,14.08412l-10.35898,-0.29463c0,0 15.36777,-24.21872 34.63132,-22.56242c26.42668,2.2722 25.90799,29.34984 25.90799,29.34984z" fill="#0b7bc1" stroke="#000000" stroke-width="0" stroke-linecap="round"/><path d="M236.37649,208.08673l-0.08894,-11.72457l9.01888,-0.06842l0.08894,11.72458z" fill="#6a6461" stroke="none" stroke-width="0" stroke-linecap="butt"/><path d="M234.41161,203.84962l-0.05767,-7.60163l3.73639,-0.02834l0.05767,7.60162z" fill="#6a6461" stroke="none" stroke-width="0" stroke-linecap="butt"/><path d="M245.31684,163.69496l-0.05278,-6.95743l6.95743,-0.05278l0.05279,6.95743z" data-paper-data="{&quot;index&quot;:null}" fill="#514e47" stroke="none" stroke-width="0" stroke-linecap="butt"/><path d="M245.27385,158.02595l-0.04788,-6.31324l5.28249,-0.04007l0.04789,6.31324z" data-paper-data="{&quot;index&quot;:null}" fill="#514e47" stroke="none" stroke-width="0" stroke-linecap="butt"/><path d="M245.22595,151.71273l0.08894,11.72458l-9.01888,0.06841l-0.08894,-11.72457z" data-paper-data="{&quot;index&quot;:null}" fill="#6a6461" stroke="none" stroke-width="0" stroke-linecap="butt"/><path d="M238.04309,156.01923l0.05767,7.60162l-3.73639,0.02835l-0.05767,-7.60163z" data-paper-data="{&quot;index&quot;:null}" fill="#6a6461" stroke="none" stroke-width="0" stroke-linecap="butt"/><path d="M236.04476,197.1591l-0.26172,-34.50193l10.54277,-0.07998l0.26172,34.50194z" fill="#1b1919" stroke="none" stroke-width="0" stroke-linecap="butt"/><path d="M211.22731,197.35201l-0.28947,-38.15924l24.9108,-0.18897l0.28947,38.15924z" fill="#282425" stroke="none" stroke-width="0" stroke-linecap="butt"/><path d="M209.41724,196.05949l-0.23496,-30.97523l18.92306,-0.14354c0,0 6.46729,10.3465 6.5072,15.60813c0.03835,5.05518 -6.27222,15.36711 -6.27222,15.36711z" fill="#f06c00" stroke="none" stroke-width="0" stroke-linecap="butt"/><path d="M226.78602,169.70925l-0.75417,-1.02062l4.38504,-0.03327l0.66088,1.02133z" fill="#8b2500" stroke="none" stroke-width="0" stroke-linecap="butt"/><path d="M231.51834,190.8534l-0.71787,1.03179l-4.87228,0.03696l0.82153,-1.03259z" data-paper-data="{&quot;index&quot;:null}" fill="#8b2500" stroke="none" stroke-width="0" stroke-linecap="butt"/><path d="M208.49334,193.64059l-0.20879,-27.52318l16.95238,-0.12859c0,0 6.1625,9.19029 6.19796,13.86549c0.03407,4.49184 -5.98917,13.65767 -5.98917,13.65767z" fill="#312c29" stroke="none" stroke-width="0" stroke-linecap="butt"/><path d="M213.37053,209.64985l9.15599,10.16542c0,0 -2.55473,0.2251 -3.76864,1.51363c-1.21391,1.28852 -2.26832,3.52733 -2.26832,3.52733l-8.37005,-10.36827c0,0 -0.28748,-1.48558 2.01797,-3.14397c1.45978,-1.05008 3.23305,-1.69413 3.23305,-1.69413z" data-paper-data="{&quot;index&quot;:null}" fill="#f2700b" stroke="#000000" stroke-width="0" stroke-linecap="round"/><path d="M221.08297,224.20397c-1.76744,1.46259 -3.79307,1.93181 -4.52436,1.04811c-0.73129,-0.88369 0.10867,-2.78574 1.8761,-4.24833c1.76744,-1.46259 3.79307,-1.93186 4.52436,-1.04813c0.73129,0.88369 -0.10867,2.78576 -1.8761,4.24835z" data-paper-data="{&quot;index&quot;:null}" fill="#b43507" stroke="#000000" stroke-width="0" stroke-linecap="butt"/><path d="M220.79892,224.35474c-1.26372,1.04576 -2.71204,1.38126 -3.23489,0.7494c-0.52285,-0.63186 0.0777,-1.99181 1.34143,-3.03756c1.26372,-1.04576 2.71204,-1.38128 3.23489,-0.7494c0.52285,0.63186 -0.0777,1.99184 -1.34143,3.03756z" data-paper-data="{&quot;index&quot;:null}" fill="#58515d" stroke="#000000" stroke-width="0" stroke-linecap="butt"/><path d="M221.20803,224.89166c-1.26372,1.04576 -2.71204,1.38128 -3.23489,0.7494c-0.52285,-0.63186 0.0777,-1.99184 1.34143,-3.03756c1.26372,-1.04576 2.71204,-1.38126 3.23489,-0.7494c0.52285,0.63186 -0.07771,1.99181 -1.3414,3.03756z" data-paper-data="{&quot;index&quot;:null}" fill="#6f6675" stroke="#000000" stroke-width="0" stroke-linecap="butt"/><path d="M218.17795,216.06815c0,0 -2.26446,1.73253 -3.15412,4.4706c-0.88969,2.73806 1.01803,3.31957 1.01803,3.31957l-1.78974,1.72926l-4.67604,-4.45904l7.91973,-6.00025z" data-paper-data="{&quot;index&quot;:null}" fill="#5b4e50" stroke="#000000" stroke-width="0" stroke-linecap="round"/><path d="M210.80633,222.01643l-5.18065,-5.53945l6.70476,-5.99103l5.30377,5.08993z" data-paper-data="{&quot;index&quot;:null}" fill="#7a7579" stroke="#847a76" stroke-width="0.25" stroke-linecap="round"/><path d="M205.32243,148.82348l10.11913,-11.76099c0,0 0.99144,2.02479 2.11501,3.18175c1.12358,1.15696 3.45385,1.32672 3.45385,1.32672l-11.59775,11.40321z" fill="#f2700b" stroke="#000000" stroke-width="0" stroke-linecap="round"/><path d="M221.40246,141.43712c-0.65393,0.81511 -2.5056,0.41562 -4.1358,-0.89224c-1.6302,-1.30786 -2.42161,-3.02884 -1.76771,-3.84395c0.65393,-0.81511 2.5056,-0.41565 4.1358,0.89221c1.6302,1.30786 2.42164,3.02887 1.76771,3.84398z" fill="#b43507" stroke="#000000" stroke-width="0" stroke-linecap="butt"/><path d="M220.63784,140.20817c-0.46756,0.58281 -1.79149,0.29718 -2.95708,-0.63796c-1.16559,-0.93511 -1.73145,-2.16565 -1.2639,-2.74843c0.46756,-0.58281 1.79151,-0.29719 2.9571,0.63794c1.16559,0.93511 1.73146,2.16566 1.26391,2.74844z" fill="#58515d" stroke="#000000" stroke-width="0" stroke-linecap="butt"/><path d="M221.00308,139.71343c-0.46756,0.58281 -1.79149,0.29718 -2.95708,-0.63796c-1.16559,-0.93511 -1.73146,-2.16565 -1.26391,-2.74843c0.46756,-0.58281 1.79152,-0.29719 2.95709,0.63795c1.16559,0.93511 1.73145,2.16565 1.2639,2.74843z" fill="#6f6675" stroke="#000000" stroke-width="0" stroke-linecap="butt"/><path d="M216.49258,145.90989l-7.29716,-5.35629l4.23945,-4.00279l1.48863,1.67567c0,0 -1.65746,0.17362 -0.80922,2.65546c0.84825,2.48186 2.9867,4.16239 2.9867,4.16239z" fill="#5b4e50" stroke="#000000" stroke-width="0" stroke-linecap="round"/><path d="M216.61185,145.41704l-4.76097,4.7098l-6.1903,-5.36468l4.59935,-5.20054z" fill="#7a7579" stroke="#847a76" stroke-width="0.25" stroke-linecap="round"/><path d="M221.06826,181.6297l-0.02897,-3.81975l1.8303,-0.01388l0.02897,3.81975z" fill="#62615d" stroke="none" stroke-width="0" stroke-linecap="butt"/><path d="M220.95772,180.46203l-0.00456,-0.60128l1.95703,-0.01484l0.00457,0.60127z" fill="#54534f" stroke="none" stroke-width="0" stroke-linecap="butt"/><path d="M221.31124,182.18494l-0.00483,-0.63664l1.75073,-0.01328l0.00483,0.63664z" fill="#7d7b77" stroke="none" stroke-width="0" stroke-linecap="butt"/><path d="M217.45948,184.79784l-0.07146,-9.41973l3.70777,-0.02812l0.07146,9.41973z" fill="#838481" stroke="#9b9496" stroke-width="0.25" stroke-linecap="butt"/><path d="M221.24238,181.46206l-0.6931,1.10762l-1.10232,0.00836l-0.21257,-1.60183l-1.00209,0.00761" fill="none" stroke="#53524e" stroke-width="0.25" stroke-linecap="round"/><path d="M214.56297,192.33599l0.11647,-3.41877l9.68453,0.06897l-3.95382,4.44474z" fill="#915f3e" stroke="#000000" stroke-width="0" stroke-linecap="round"/><path d="M216.51013,186.1975l5.13086,0.53074l2.29791,2.54599l-9.97365,-0.6364z" fill="#653c0a" stroke="#000000" stroke-width="0" stroke-linecap="round"/><path d="M218.55349,192.73296l0.97738,-2.57082" fill="none" stroke="#67360a" stroke-width="0.25" stroke-linecap="round"/><path d="M231.51652,199.07195l-0.05372,7.77964l-2.58268,1.3725l-20.40864,-0.29614l5.07638,-14.46958l16.25623,2.80801z" fill="#1e1f19" stroke="#000000" stroke-width="0" stroke-linecap="round"/><path d="M229.84515,201.67769l-0.01625,-2.14197l-1.04113,-3.48713l2.92945,-0.2477l2.72021,1.89599l0.24769,2.92945z" fill="#b34b00" stroke="#000000" stroke-width="0" stroke-linecap="round"/><path d="M229.95188,200.8877l4.84681,-0.14951l-0.73785,6.77015l-5.85543,0.94638z" fill="#e86b09" stroke="#000000" stroke-width="0" stroke-linecap="round"/><path d="M233.32544,199.73469l-0.01112,-1.46556" fill="none" stroke="#9d3000" stroke-width="0.25" stroke-linecap="round"/><path d="M232.35439,205.49194l0.21866,-0.90359" fill="none" stroke="#9d3000" stroke-width="0.25" stroke-linecap="round"/><path d="M233.46127,202.77773l-0.11958,-0.90103" fill="none" stroke="#9d3000" stroke-width="0.25" stroke-linecap="round"/><path d="M232.6781,203.57287l-2.48274,-0.31939" fill="none" stroke="#dc5c00" stroke-width="0.25" stroke-linecap="round"/><path d="M231.68058,205.83528l-2.03011,-0.09733" fill="none" stroke="#dc5c00" stroke-width="0.25" stroke-linecap="round"/><path d="M227.02505,201.47364l-1.07691,6.66l-14.77099,-0.22618l2.4357,-5.88108l9.92075,-0.07526z" fill="#982800" stroke="#000000" stroke-width="0" stroke-linecap="round"/><path d="M219.48284,202.99651l-1.87973,4.86217l-5.07483,-0.18701l2.10947,-4.30021z" fill="#ea6b05" stroke="#000000" stroke-width="0" stroke-linecap="round"/><path d="M226.69369,202.37808l-1.08632,5.41989l-6.65313,-0.17504l2.67146,-4.52996z" fill="#ea6b05" stroke="#000000" stroke-width="0" stroke-linecap="round"/><path d="M214.17278,197.22162l0.341,7.40282l-6.08447,5.17297l0.21245,-9.54318z" fill="#f0ac12" stroke="#000000" stroke-width="0" stroke-linecap="round"/><path d="M214.3634,166.032l-3.03262,-5.53105l-1.37236,-11.95216l4.26131,-1.45646l0.36368,10.39331l2.89992,6.81378z" fill="#f0ac12" stroke="#000000" stroke-width="0" stroke-linecap="round"/><path d="M215.54447,171.53643l-3.04447,-7.0975l6.12441,0.09595l5.31755,6.36819z" fill="#915f3e" stroke="#000000" stroke-width="0" stroke-linecap="round"/><path d="M212.96825,169.84703l10.5454,0.91689l-0.98278,1.8588l-7.96272,1.62694z" fill="#653c0a" stroke="#000000" stroke-width="0" stroke-linecap="round"/><path d="M219.37315,169.37122l-3.44793,-3.96136" fill="none" stroke="#67360a" stroke-width="0.25" stroke-linecap="round"/><path d="M218.06659,179.78226c0.08832,11.64309 -3.32277,21.10806 -7.61887,21.14064c-4.29611,0.03258 -7.85039,-9.37955 -7.93871,-21.02263c-0.08832,-11.64309 3.32277,-21.10806 7.61888,-21.14064c4.29611,-0.03258 7.85039,9.37956 7.93871,21.02263z" fill="#e56506" stroke="#a55314" stroke-width="0.25" stroke-linecap="butt"/><path d="M214.79551,179.5816c0.06471,8.52996 -2.65889,15.46592 -6.08331,15.49189c-3.42445,0.02598 -6.25295,-6.86786 -6.31766,-15.39783c-0.06471,-8.52996 2.65891,-15.4659 6.08334,-15.49187c3.42445,-0.02598 6.25292,6.86784 6.31763,15.39781z" fill="#921f00" stroke="none" stroke-width="0" stroke-linecap="butt"/><path d="M211.14877,189.30512l-0.14538,-19.16516l2.25475,-0.0171l0.14538,19.16516z" fill="url(#color-1)" stroke="none" stroke-width="0" stroke-linecap="butt"/><path d="M233.26784,162.41733l-3.38208,0.02566l-11.28214,-1.04183l-2.77494,-9.1111l12.14043,-4.71455l5.63338,-0.49369z" fill="#2a1c0c" stroke="#000000" stroke-width="0" stroke-linecap="round"/><path d="M227.83769,159.9782l-7.78563,-0.8429l-5.41219,-0.07167l-0.59534,-4.16697l0.05802,-7.21595l14.54039,-0.44853l0.09065,11.95002z" fill="#8b2300" stroke="#000000" stroke-width="0" stroke-linecap="round"/><path d="M227.50807,161.10814l6.53953,0.06312l-0.19639,3.83475l-1.46643,-0.10163l-4.64184,-2.55786z" fill="#f06900" stroke="#000000" stroke-width="0" stroke-linecap="round"/><path d="M232.01148,160.28479l-0.14094,-3.71944l1.24011,-0.0094l-0.00685,-0.9019l-0.78917,0.00598l-0.02907,-3.83301l0.67726,0.10758l0.21951,-0.79084l-0.78828,0.11871l-0.02907,-3.83301l4.62303,0.07766l-0.08878,3.15744l-1.23499,0.68582l1.46643,0.10163l0.14265,3.9449l-1.91054,0.8037l2.02753,-0.24088l0.14866,4.73407z" fill="#ef6b00" stroke="#000000" stroke-width="0" stroke-linecap="round"/><path d="M228.53618,148.02215l0.07355,9.69532l-0.89247,1.24696l-4.51886,-1.2059l-0.52362,-9.57914z" fill="#f06900" stroke="#000000" stroke-width="0" stroke-linecap="round"/><path d="M221.5517,148.75161l-0.27407,8.45778l-1.00778,0.9096l-4.51116,-0.19128l-0.6901,-1.79863l-0.17686,-8.45435l5.41647,0.63537z" fill="#f06900" stroke="#000000" stroke-width="0" stroke-linecap="round"/><path d="M234.10305,153.61707l-0.04361,-5.74954l0.78914,-0.00598l0.04361,5.74954z" fill="url(#color-2)" stroke="none" stroke-width="0" stroke-linecap="butt"/><path d="M221.04456,195.01751l4.186,-3.03823l2.11959,1.98823l-2.38375,2.82413z" fill="#1e1f19" stroke="#000000" stroke-width="0" stroke-linecap="round"/><path d="M224.64904,194.58932l3.57717,-4.03576l2.421,2.08614l-3.67888,3.8361z" fill="#f46901" stroke="#000000" stroke-width="0" stroke-linecap="round"/><path d="M225.15314,194.98636l-1.50997,-0.8905l2.57656,-3.82775l2.20615,0.18368z" fill="#b24501" stroke="#000000" stroke-width="0" stroke-linecap="round"/><path d="M204.88122,234.06871l2.35428,-9.44157" fill="none" stroke="#aa0606" stroke-width="0.5" stroke-linecap="round"/><path d="M189.29099,220.65786l3.50786,-4.97172" fill="none" stroke="#aa0606" stroke-width="0.5" stroke-linecap="round"/><path d="M219.39338,228.36038l0.08139,10.72937" fill="none" stroke="#aa0606" stroke-width="0.5" stroke-linecap="round"/><path d="M228.33309,226.05325l6.96426,7.87805" fill="none" stroke="#aa0606" stroke-width="0.5" stroke-linecap="round"/><path d="M236.65427,216.00657l10.564,2.71901" fill="none" stroke="#aa0606" stroke-width="0.5" stroke-linecap="round"/><path d="M203.89915,129.2022l-0.85881,-2.51268l3.33763,9.4917" fill="none" stroke="#06527f" stroke-width="0.5" stroke-linecap="round"/><path d="M218.50884,124.05295l-0.01767,-2.33245l0.26797,10.72794" fill="none" stroke="#06527f" stroke-width="0.5" stroke-linecap="round"/><path d="M189.53195,141.72069l-1.32385,-2.32257l4.15894,7.05957" fill="none" stroke="#06527f" stroke-width="0.5" stroke-linecap="round"/><path d="M232.9942,127.11543l1.10755,-1.59458l-6.27211,9.56461" fill="none" stroke="#06527f" stroke-width="0.5" stroke-linecap="round"/><path d="M235.54952,144.17071l11.45314,-3.07263l-1.86104,0.66724" fill="none" stroke="#06527f" stroke-width="0.5" stroke-linecap="round"/><path d="M200.39402,149.29544c8.65097,-5.04037 10.51392,6.77498 10.51392,6.77498c0,0 0.48464,17.61788 0.45729,26.14785c-0.0262,8.171 -0.61805,24.0013 -0.61805,24.0013c0,0 -1.28348,5.67172 -6.08086,6.90087c-3.18838,0.81691 -13.86489,-7.26105 -17.98738,-17.00044c-4.12249,-9.73937 2.8151,-9.37585 2.77111,-15.17363c-0.04398,-5.79778 -5.74303,-12.36448 -3.56398,-18.01176c2.17905,-5.64729 5.857,-8.59881 14.50798,-13.63917z" fill="#b84400" stroke="#000000" stroke-width="0" stroke-linecap="round"/><path d="M183.64355,152.66947c0,0 17.7701,-1.71381 21.09326,-1.6031c1.46679,0.04886 2.8137,0.28152 3.45179,3.2208c0.62205,2.86551 2.77898,14.48072 2.89722,25.23237c0.11825,10.75164 -1.64472,23.95153 -2.14378,26.53332c-0.49907,2.58179 -1.84993,3.54221 -3.76057,3.63628c-2.94479,0.14499 -18.96704,-3.46388 -18.96704,-3.46388l-2.57092,-53.55578z" fill="#7b2200" stroke="#000000" stroke-width="0" stroke-linecap="round"/><path d="M206.37373,164.56661c1.07649,2.51228 1.94369,9.17677 1.94369,9.17677l1.85756,0.07341l-0.13873,14.5175l-1.88831,0.78914c0,0 0.65195,5.74317 -0.9328,8.10422c-9.1857,13.68565 -18.77562,3.92752 -19.2045,-3.00051c-0.20548,-3.31938 3.07937,-14.4307 3.07937,-14.4307c0,0 -4.89363,-13.92741 -5.49602,-17.394c-0.4107,-2.36328 15.10484,-11.07969 20.77977,2.16415z" fill="#df9431" stroke="#954116" stroke-width="0" stroke-linecap="round"/><path d="M196.30031,156.57207c5.68664,-0.04314 10.3369,5.23845 10.38665,11.79677c0.04975,6.55832 -4.51987,11.90984 -10.20651,11.95297c-5.68664,0.04313 -10.3369,-5.23844 -10.38665,-11.79677c-0.04975,-6.55832 4.51987,-11.90984 10.20651,-11.95298z" fill="#98581e" stroke="none" stroke-width="0" stroke-linecap="butt"/><path d="M196.17867,180.17377c5.68664,-0.04313 10.33688,5.23848 10.38663,11.79677c0.04975,6.55829 -4.51984,11.90984 -10.20648,11.95297c-5.68664,0.04313 -10.33687,-5.23847 -10.38662,-11.79676c-0.04975,-6.55829 4.51984,-11.90985 10.20648,-11.95298z" fill="#98581e" stroke="none" stroke-width="0" stroke-linecap="butt"/><path d="M189.43515,192.85211l-0.15165,-19.99187l13.67867,-0.10376l0.15165,19.99187z" fill="#98581e" stroke="none" stroke-width="0" stroke-linecap="butt"/><path d="M193.39281,171.92656c-3.61773,-3.59514 -4.21435,-8.86042 -1.33257,-11.76036c2.88181,-2.89999 8.15072,-2.33646 11.76851,1.25867c3.61773,3.59514 4.21435,8.86042 1.33257,11.76036c-2.88181,2.89999 -8.15075,2.33643 -11.76851,-1.25869z" data-paper-data="{&quot;index&quot;:null}" fill="#01050a" stroke="#954116" stroke-width="0" stroke-linecap="butt"/><path d="M205.03041,188.35594c2.92541,2.85588 2.40881,8.12965 -1.154,11.77923c-3.56284,3.64958 -8.82259,4.293 -11.74807,1.43705c-2.92541,-2.85588 -2.4088,-8.12964 1.154,-11.77922c3.56284,-3.64958 8.82258,-4.29301 11.74806,-1.43706z" fill="#01050a" stroke="#954116" stroke-width="0" stroke-linecap="butt"/><path d="M201.9517,189.30824c2.00322,0.49889 3.30203,2.20882 2.90101,3.81923c-0.40105,1.61046 -2.35011,2.51154 -4.35333,2.01266c-2.00322,-0.49889 -3.30206,-2.20878 -2.90101,-3.81924c0.40105,-1.61046 2.35012,-2.51154 4.35334,-2.01265z" fill="#5db0c4" stroke="none" stroke-width="0" stroke-linecap="butt"/><path d="M197.63034,165.33823c0.70865,-0.73505 2.02437,-0.61632 2.93875,0.26517c0.91436,0.88152 1.08113,2.19201 0.37242,2.92709c-0.70865,0.73505 -2.0244,0.61635 -2.93875,-0.26517c-0.91436,-0.88152 -1.0811,-2.19201 -0.37242,-2.92709z" data-paper-data="{&quot;index&quot;:null}" fill="#5db0c4" stroke="none" stroke-width="0" stroke-linecap="butt"/><path d="M201.75849,190.08416c1.47015,0.36612 2.42335,1.62104 2.12905,2.8029c-0.29433,1.18191 -1.72473,1.84322 -3.19491,1.4771c-1.47015,-0.36612 -2.42335,-1.62102 -2.12904,-2.8029c0.29433,-1.18191 1.72473,-1.84323 3.1949,-1.4771z" fill="#01050a" stroke="none" stroke-width="0" stroke-linecap="butt"/><path d="M198.08129,165.773c0.51565,-0.53484 1.47297,-0.44847 2.1383,0.19294c0.66533,0.6414 0.78664,1.59499 0.27099,2.12984c-0.51565,0.53484 -1.473,0.44843 -2.1383,-0.19297c-0.66533,-0.6414 -0.78661,-1.59496 -0.27099,-2.12981z" data-paper-data="{&quot;index&quot;:null}" fill="#01050a" stroke="none" stroke-width="0" stroke-linecap="butt"/><path d="M195.67075,161.18941c0,0 2.16831,-0.8548 3.84381,-0.17157c1.67546,0.68323 3.87945,4.52775 3.87945,4.52775" fill="none" stroke="#5db0c4" stroke-width="0.25" stroke-linecap="round"/><path d="M194.55959,164.90053l-1.57509,-1.12734l1.54916,-2.29036" fill="none" stroke="#5db0c4" stroke-width="0.25" stroke-linecap="round"/><path d="M195.68045,162.47106l-1.15651,-2.26983" fill="none" stroke="#5db0c4" stroke-width="0.25" stroke-linecap="round"/><path d="M201.82325,164.98787l1.85125,-0.01404l0.00972,1.28162" fill="none" stroke="#5db0c4" stroke-width="0.25" stroke-linecap="round"/><path d="M203.13298,168.68064c0,0 0.9894,-0.27625 1.28273,0.13267c0.29333,0.40893 0.61617,1.38163 0.44448,2.27524c-0.17169,0.89361 -4.01311,2.36186 -5.96692,1.89661c-1.95383,-0.46524 -4.29912,-3.52768 -4.29912,-3.52768" fill="none" stroke="#5db0c4" stroke-width="0.25" stroke-linecap="round"/><path d="M201.58166,170.68617l0.73471,2.9851" fill="none" stroke="#5db0c4" stroke-width="0.25" stroke-linecap="round"/><path d="M194.30828,169.31721l-1.01518,-2.41328" fill="none" stroke="#5db0c4" stroke-width="0.25" stroke-linecap="round"/><path d="M193.31578,169.89439l2.27304,-0.7293" fill="none" stroke="#5db0c4" stroke-width="0.25" stroke-linecap="round"/><path d="M186.22707,195.62071l3.93549,-8.20065l5.47553,1.80898l-3.4759,7.68626z" fill="#360e03" stroke="#602a0d" stroke-width="0" stroke-linecap="round"/><path d="M192.18584,163.9395l2.84145,7.94274l-5.60419,1.3592l-3.25783,-8.49265z" data-paper-data="{&quot;index&quot;:null}" fill="#360e03" stroke="#602a0d" stroke-width="0" stroke-linecap="round"/><path d="M205.15659,150.07253c0,0 -10.2521,4.10476 -13.75431,12.77446c-3.50221,8.66969 1.8371,12.66417 1.85553,18.13212c0.01843,5.46795 -5.85848,7.75452 -2.8923,15.0543c2.02061,4.97269 15.13897,14.0585 15.13897,14.0585l-2.12536,2.91522c0,0 -11.35317,-6.94006 -14.72743,-16.42386c-3.37426,-9.48381 2.68529,-9.63281 2.5669,-15.4813c-0.11842,-5.84849 -4.58833,-9.84294 -3.64683,-15.04456c2.09585,-11.57902 16.59893,-18.55436 16.59893,-18.55436z" fill="#b84400" stroke="#000000" stroke-width="0" stroke-linecap="round"/><path d="M199.97836,213.39884c0,0 -8.64172,3.97771 -19.66118,0.14915c-9.13369,-3.17337 -19.9952,-8.23781 -26.07611,-13.21006c-5.98735,-4.89576 -12.26244,-11.21608 -11.8844,-20.97936c0.37805,-9.76329 4.58961,-13.97651 13.19209,-20.64716c8.25278,-6.39948 22.33954,-11.46137 26.96025,-12.91588c8.36089,-2.63179 20.03778,1.93754 20.03778,1.93754l-7.19,3.36297l-7.5204,7.37045l-2.66208,5.76641l0.97188,9.2214l2.91511,3.8087l0.20548,3.30688l-3.02943,4.89857l-1.21774,5.9296l2.40829,8.33989l7.45891,8.30157l5.09154,5.35936z" fill="#36322e" stroke="#000000" stroke-width="0" stroke-linecap="round"/><path d="M148.99973,164.65751c0,0 2.56315,-3.44911 4.74762,-5.62806c2.1845,-2.17895 7.00189,-4.38243 7.00189,-4.38243c0,0 3.80129,-0.78725 9.75409,1.72987c5.9528,2.51712 13.59127,8.19477 13.59127,8.19477l-2.26556,10.47971l-1.82839,-3.23312c0,0 -7.12156,-8.28281 -11.07694,-9.65693c-3.95538,-1.37413 -10.26511,2.24252 -10.26511,2.24252z" fill="url(#color-3)" stroke="#000000" stroke-width="0" stroke-linecap="round"/><path d="M160.16125,196.03591c0,0 6.36388,3.52052 10.29795,2.08655c3.93407,-1.43397 10.92917,-9.82387 10.92917,-9.82387l1.77913,-3.26048l2.42428,10.44412c0,0 -7.55146,5.79286 -13.46539,8.4c-5.91393,2.60714 -9.72672,1.87765 -9.72672,1.87765c0,0 -4.85026,-2.13014 -7.06757,-4.2757c-2.21728,-2.14557 -6.08222,-5.1701 -6.08222,-5.1701z" data-paper-data="{&quot;index&quot;:null}" fill="url(#color-4)" stroke="#000000" stroke-width="0" stroke-linecap="round"/><path d="M169.72481,196.42898c-6.61704,2.32057 -17.84235,2.11963 -17.84235,2.11963c0,0 -9.26923,-4.48574 -9.51786,-18.14702c-0.16071,-8.82999 6.91159,-16.28736 6.91159,-16.28736c0,0 3.91599,-2.12455 15.32802,-0.65744c14.5688,1.87294 23.75947,16.95666 23.75947,16.95666c0,0 -3.89705,10.84566 -18.63888,16.01553z" fill="url(#color-5)" stroke="#000000" stroke-width="0" stroke-linecap="round"/><path d="M142.06126,182.02741l-0.01231,-1.6234l44.32783,-0.33625l0.01231,1.6234z" fill="#34332c" stroke="none" stroke-width="0" stroke-linecap="butt"/><path d="M197.67605,147.69257l7.21645,0.12084c0,0 -11.96148,6.30135 -15.93643,15.5706c-3.97495,9.26923 2.71136,10.5954 2.82818,16.13053c0.11683,5.53509 -5.14745,10.87273 -2.38545,18.45243c2.68402,7.36576 15.62704,14.98005 15.62704,14.98005l-7.7536,0.40993c0,0 -11.24374,-6.48734 -14.5554,-16.3927c-3.31165,-9.90535 3.69752,-11.94885 3.30866,-15.65039c-0.35043,-3.33573 -5.22021,-9.25634 -3.74074,-17.52811c0.91674,-5.12551 15.39129,-16.09314 15.39129,-16.09314z" fill="#f56900" stroke="#000000" stroke-width="0" stroke-linecap="round"/><path d="M188.80232,178.78666c1.64375,-0.01247 2.98328,0.90611 2.99198,2.05175c0.00868,1.14564 -1.31675,2.08446 -2.9605,2.09693c-1.64374,0.01247 -2.98328,-0.90614 -2.99197,-2.05178c-0.00869,-1.14564 1.31675,-2.08443 2.96049,-2.0969z" fill="#ea5e00" stroke="none" stroke-width="0" stroke-linecap="butt"/><path d="M228.65255,217.14376c-0.25429,-0.6627 0.19486,-1.66425 1.30414,-2.39112c1.10929,-0.72686 2.26498,-0.79172 2.71297,-0.24113c1.4124,1.73594 0.89564,2.73834 -0.21364,3.46521c-1.10929,0.72686 -2.72107,1.98783 -3.80345,-0.83293z" fill="#443e42" stroke="none" stroke-width="0" stroke-linecap="butt"/><path d="M230.84581,216.03115c1.10929,-0.72686 2.32393,-0.83484 2.71295,-0.24113c0.38902,0.59369 -0.19486,1.66425 -1.30414,2.39112c-1.10929,0.7269 -2.32393,0.83487 -2.71295,0.24116c-0.38902,-0.59371 0.19485,-1.66428 1.30414,-2.39115z" fill="#7c7080" stroke="none" stroke-width="0" stroke-linecap="butt"/><path d="M233.1405,217.18409l-3.04593,-0.24867" fill="none" stroke="#3f393c" stroke-width="0.25" stroke-linecap="round"/><path d="M239.59733,191.05426l-0.16615,-21.90303l40.32732,-0.30591l0.16614,21.90302z" fill="#817c7c" stroke="none" stroke-width="0" stroke-linecap="butt"/><path d="M298.14248,217.85582l-0.18845,-24.84296l18.81888,-0.38874l-2.07375,24.36814z" fill="#fc6900" stroke="#000000" stroke-width="0" stroke-linecap="round"/><path d="M314.12448,141.23359l2.70349,25.56182l-19.07543,-0.34728l0.05317,-26.07471z" fill="#fc6900" stroke="#000000" stroke-width="0" stroke-linecap="round"/><path d="M305.41515,117.93119l8.96212,23.54646l-17.32067,-0.60653l-5.95083,-23.56933z" fill="#ef5200" stroke="#000000" stroke-width="0" stroke-linecap="round"/><path d="M306.34178,240.08589l-13.12471,0.01508l4.92103,-22.82936l17.06042,-0.62139z" fill="#ef5200" stroke="#000000" stroke-width="0" stroke-linecap="round"/><path d="M307.09085,239.58825l-11.14318,19.76325l-12.54342,0.58712l9.88663,-19.9997z" fill="#e04409" stroke="#000000" stroke-width="0" stroke-linecap="round"/><path d="M274.48686,169.42106l10.04571,-17.45042l4.49005,-0.03406l0.42237,55.67979l-4.49113,-0.10834l-10.15529,-16.72756z" fill="#8d8686" stroke="#999592" stroke-width="0.5" stroke-linecap="round"/><path d="M294.98837,99.80749l11.18331,18.60993l-14.30749,-0.38344l-9.67765,-18.62136z" fill="#e04409" stroke="#000000" stroke-width="0" stroke-linecap="round"/><path d="M287.88403,141.59664l-3.75352,-19.21296l-7.65483,-18.28138l6.57966,-4.5596l9.7638,18.8667l5.58237,22.50616l-0.12062,25.62246l-10.20615,0.19739z" fill="#ff9b0f" stroke="#000000" stroke-width="0" stroke-linecap="butt"/><path d="M254.24155,185.18421l-0.07763,-10.23449l14.46944,-0.10975l0.07763,10.23448z" fill="#f7810e" stroke="none" stroke-width="0" stroke-linecap="butt"/><path d="M253.99648,183.89198l-0.05712,-7.52881l14.82234,-0.11243l0.05712,7.52881z" fill="#ff7500" stroke="none" stroke-width="0" stroke-linecap="butt"/><path d="M260.55473,179.95996c0.01134,1.49432 -0.90116,2.71267 -2.03814,2.72129c-1.13698,0.00862 -2.06784,-1.19574 -2.07918,-2.69006c-0.01134,-1.49432 0.90116,-2.71266 2.03814,-2.72129c1.13698,-0.00862 2.06784,1.19574 2.07918,2.69005z" fill="#8e9084" stroke="#73410d" stroke-width="0.25" stroke-linecap="butt"/><path d="M259.73127,179.96622c0.01134,1.49432 -0.90116,2.71267 -2.03814,2.72129c-1.13698,0.00862 -2.06785,-1.19574 -2.07919,-2.69006c-0.01134,-1.49432 0.90116,-2.71266 2.03814,-2.72128c1.13698,-0.00862 2.06785,1.19573 2.07919,2.69005z" fill="#8e9084" stroke="#a0a49c" stroke-width="0.25" stroke-linecap="butt"/><path d="M268.59425,185.19298l-0.07942,-10.46975l7.08147,3.00505l-0.08552,4.23583z" fill="#f44c00" stroke="none" stroke-width="0" stroke-linecap="butt"/><path d="M278.21717,254.41256l6.49297,-15.98355l3.74857,-21.0737l-0.1785,-23.53097l10.19362,-0.42817l-0.09435,23.88385l-4.93967,22.58598l-8.86837,19.90999z" fill="#ff9b0f" stroke="#000000" stroke-width="0" stroke-linecap="butt"/><path d="M289.62394,193.65865l-0.20632,-27.19907l16.09161,-0.12206l0.20632,27.19907z" fill="#666462" stroke="none" stroke-width="0" stroke-linecap="butt"/><path d="M292.308,190.79005l-0.16743,-22.07256l8.82903,-0.06697l0.16743,22.07255z" fill="#000000" stroke="none" stroke-width="0" stroke-linecap="butt"/><path d="M262.23125,168.33405l11.35854,2.61965l0.08095,-6.31418l6.19124,0.85497l-3.2015,2.60125l0.0694,9.14773l-13.05404,-5.31262l-3.58705,2.73304z" fill="#ffffff" stroke="#bb44c4" stroke-width="0.375" stroke-linecap="round"/><path d="M288.68945,157.18118l-0.0878,5.41231l-13.92659,-1.44054l-2.58384,-17.89038l5.42306,1.50505l-3.84863,2.21963l4.20795,11.1779l8.13068,1.74221l-0.9068,-0.63735l-0.30362,-6.05359l7.60653,0.58655l1.30992,2.82474z" fill="#ffffff" stroke="#bb44c4" stroke-width="0.375" stroke-linecap="round"/><path d="M279.20423,180.70363l-0.18243,9.92272l2.4646,2.17172l-6.69779,0.30851l0.46455,-6.70366l-9.7851,0.97615l-1.46808,-6.68899l3.24841,3.58314z" fill="#ffffff" stroke="#bb44c4" stroke-width="0.375" stroke-linecap="round"/><path d="M264.89827,214.18401l-0.03616,-4.76712l5.18281,-13.1819l15.34578,1.68745l-0.34643,5.28543l5.54897,1.11754l0.01954,2.57683l-11.35267,-1.84661l3.31369,-4.79254l-9.1448,0.45589l-6.37073,9.45429l4.67348,4.60311z" fill="#ffffff" stroke="#bb44c4" stroke-width="0.375" stroke-linecap="round"/><path d="M320.65433,209.509l11.7324,0.94179l-5.34113,-7.6904l6.53181,-5.2035l-1.24443,5.80764l5.87603,10.26331l-15.20132,0.37302l-3.07266,2.60027z" fill="#ffffff" stroke="#bb44c4" stroke-width="0.375" stroke-linecap="round"/><path d="M321.25014,152.16682l13.54299,1.82998l-6.8939,8.42746l0.49694,14.55613l-3.18876,4.2762l-1.30324,-18.93087l3.17703,-5.82231l-8.3825,-0.96719l-0.69697,-6.95255z" fill="#ffffff" stroke="#bb44c4" stroke-width="0.375" stroke-linecap="round"/><path d="M322.69272,179.9147c0.07533,9.93028 -5.9841,18.02685 -13.53412,18.08413c-7.55,0.05728 -13.73158,-7.94642 -13.80691,-17.87672c-0.07533,-9.93028 5.9841,-18.02685 13.53412,-18.08413c7.55,-0.05728 13.73158,7.94642 13.80691,17.87672z" fill="url(#color-6)" stroke="none" stroke-width="0" stroke-linecap="butt"/><path d="M318.24046,178.93827c0.0553,7.28966 -4.12091,13.23112 -9.32783,13.27062c-5.20689,0.0395 -9.47278,-5.83793 -9.52807,-13.12759c-0.0553,-7.28966 4.12091,-13.23112 9.32783,-13.27063c5.20689,-0.0395 9.47278,5.83793 9.52807,13.12759z" fill="url(#color-7)" stroke="none" stroke-width="0" stroke-linecap="butt"/><path d="M315.15037,179.97191c0.07025,9.26082 -4.90792,16.80646 -11.11899,16.85357c-6.2111,0.04711 -11.30313,-7.42211 -11.37338,-16.68295c-0.07025,-9.26082 4.90792,-16.80646 11.11899,-16.85357c6.2111,-0.04712 11.30313,7.42211 11.37338,16.68295z" fill="url(#color-8)" stroke="none" stroke-width="0" stroke-linecap="butt"/><path d="M315.15037,179.97191c0.07025,9.26082 -4.90792,16.80646 -11.11899,16.85357c-6.2111,0.04711 -11.30313,-7.42211 -11.37338,-16.68295c-0.07025,-9.26082 4.90792,-16.80646 11.11899,-16.85357c6.2111,-0.04712 11.30313,7.42211 11.37338,16.68295z" fill="url(#color-9)" stroke="none" stroke-width="0" stroke-linecap="butt"/><path d="M317.42875,178.47302c0.05332,7.02933 -5.54152,12.77047 -12.49646,12.82324c-6.95494,0.05276 -12.63624,-5.60288 -12.68956,-12.63218c-0.05332,-7.02933 5.54152,-12.77047 12.49646,-12.82323c6.95494,-0.05276 12.63624,5.60287 12.68956,12.63217z" fill="url(#color-10)" stroke="none" stroke-width="0" stroke-linecap="butt"/><path d="M317.97619,179.61377c0.05869,7.73599 -4.53688,14.04246 -10.26446,14.0859c-5.72757,0.04344 -10.41829,-6.19258 -10.47696,-13.92857c-0.05869,-7.73599 4.53689,-14.04243 10.26446,-14.08587c5.72757,-0.04344 10.41829,6.19258 10.47696,13.92854z" fill="url(#color-11)" stroke="none" stroke-width="0" stroke-linecap="butt"/><path d="M317.97619,179.61377c0.05869,7.73599 -4.53688,14.04246 -10.26446,14.0859c-5.72757,0.04344 -10.41829,-6.19258 -10.47696,-13.92857c-0.05869,-7.73599 4.53689,-14.04243 10.26446,-14.08587c5.72757,-0.04344 10.41829,6.19258 10.47696,13.92854z" fill="url(#color-12)" stroke="none" stroke-width="0" stroke-linecap="butt"/><path d="M317.97619,179.61377c0.05869,7.73599 -4.53688,14.04246 -10.26446,14.0859c-5.72757,0.04344 -10.41829,-6.19258 -10.47696,-13.92857c-0.05869,-7.73599 4.53689,-14.04243 10.26446,-14.08587c5.72757,-0.04344 10.41829,6.19258 10.47696,13.92854z" fill="url(#color-13)" stroke="none" stroke-width="0" stroke-linecap="butt"/><path d="M317.97619,179.61377c0.05869,7.73599 -4.53688,14.04246 -10.26446,14.0859c-5.72757,0.04344 -10.41829,-6.19258 -10.47696,-13.92857c-0.05869,-7.73599 4.53689,-14.04243 10.26446,-14.08587c5.72757,-0.04344 10.41829,6.19258 10.47696,13.92854z" fill="url(#color-14)" stroke="none" stroke-width="0" stroke-linecap="butt"/><path d="M301.01926,168.94175l0.0215,2.83452l4.95166,7.3068l-9.44255,-4.82462l0.07411,-7.21607l13.46578,-8.34846l13.55766,3.76261l1.70817,4.36791l-13.04619,-4.2819z" fill="#ffffff" stroke="#bb44c4" stroke-width="0.375" stroke-linecap="round"/><path d="M303.59921,186.31675l-5.51378,3.52073l0.14546,2.18934l9.46796,8.1745l10.03299,-2.26655l0.93498,-12.63425l3.37918,3.83983l-2.10528,11.22579l-13.63274,3.32465l-10.76713,-9.58199l0.18732,-9.27853z" fill="#ffffff" stroke="#bb44c4" stroke-width="0.375" stroke-linecap="round"/><path d="M215.31053,159.00376l-2.55364,-5.13722l-1.82054,-5.47625l1.48823,-1.40012l25.28413,0.40991l-0.5715,12.81158l-3.46847,1.15902l1.15902,3.46847l-2.57136,1.36708l-2.94773,-4.0651l-12.13905,1.07522z" fill="url(#color-15)" stroke="#fb0adc" stroke-width="0" stroke-linecap="round"/></g></g></svg>