<svg version="1.1" xmlns="http://www.w3.org/2000/svg" xmlns:xlink="http://www.w3.org/1999/xlink" width="90.30262" height="143.5069" viewBox="0,0,90.30262,143.5069"><defs><linearGradient x1="240.03102" y1="227.63894" x2="241.13009" y2="249.68226" gradientUnits="userSpaceOnUse" id="color-1"><stop offset="0" stop-color="#2c98c3"/><stop offset="1" stop-color="#1e86c6"/></linearGradient><radialGradient cx="239.64113" cy="228.85625" r="10.69655" gradientUnits="userSpaceOnUse" id="color-2"><stop offset="0" stop-color="#25a2d1"/><stop offset="1" stop-color="#2a9bd1"/></radialGradient><linearGradient x1="271.70476" y1="201.76588" x2="272.3899" y2="215.09506" gradientUnits="userSpaceOnUse" id="color-3"><stop offset="0" stop-color="#f5ffff"/><stop offset="1" stop-color="#aaf0ff"/></linearGradient><linearGradient x1="219.76767" y1="135.07527" x2="231.22264" y2="148.00407" gradientUnits="userSpaceOnUse" id="color-4"><stop offset="0" stop-color="#f7fbfe"/><stop offset="1" stop-color="#ebedee"/></linearGradient><linearGradient x1="252.96918" y1="135.52316" x2="244.90987" y2="146.99512" gradientUnits="userSpaceOnUse" id="color-5"><stop offset="0" stop-color="#f7fbfe"/><stop offset="1" stop-color="#ebedee"/></linearGradient><linearGradient x1="247.1827" y1="122.1337" x2="243.19615" y2="145.74134" gradientUnits="userSpaceOnUse" id="color-6"><stop offset="0" stop-color="#f7fbfe"/><stop offset="1" stop-color="#ebedee"/></linearGradient><linearGradient x1="225.97575" y1="122.74652" x2="239.18236" y2="152.59024" gradientUnits="userSpaceOnUse" id="color-7"><stop offset="0" stop-color="#f7fbfe"/><stop offset="1" stop-color="#ebedee"/></linearGradient><linearGradient x1="238.0412" y1="112.80992" x2="239.78362" y2="146.70813" gradientUnits="userSpaceOnUse" id="color-8"><stop offset="0" stop-color="#f7fbfe"/><stop offset="1" stop-color="#ebedee"/></linearGradient><linearGradient x1="237.28355" y1="179.47453" x2="239.17589" y2="216.28918" gradientUnits="userSpaceOnUse" id="color-9"><stop offset="0" stop-color="#2b98dd"/><stop offset="1" stop-color="#2790bc"/></linearGradient><linearGradient x1="238.57135" y1="180.36679" x2="240.3058" y2="214.10986" gradientUnits="userSpaceOnUse" id="color-10"><stop offset="0" stop-color="#113f74"/><stop offset="1" stop-color="#18529d"/></linearGradient><linearGradient x1="238.57135" y1="180.36679" x2="240.3058" y2="214.10986" gradientUnits="userSpaceOnUse" id="color-11"><stop offset="0" stop-color="#2093f0"/><stop offset="1" stop-color="#2093f0" stop-opacity="0"/></linearGradient><linearGradient x1="229.83127" y1="193.40726" x2="230.87699" y2="213.75128" gradientUnits="userSpaceOnUse" id="color-12"><stop offset="0" stop-color="#dadee5"/><stop offset="1" stop-color="#dadee5" stop-opacity="0"/></linearGradient><linearGradient x1="251.78789" y1="186.99034" x2="252.97562" y2="210.09711" gradientUnits="userSpaceOnUse" id="color-13"><stop offset="0" stop-color="#dadee5"/><stop offset="1" stop-color="#dadee5" stop-opacity="0"/></linearGradient></defs><g transform="translate(-192.61847,-111.15355)"><g data-paper-data="{&quot;isPaintingLayer&quot;:true}" fill-rule="nonzero" stroke-linejoin="miter" stroke-miterlimit="10" stroke-dasharray="" stroke-dashoffset="0" style="mix-blend-mode: normal"><g><path d="M242.81624,232.67356l6.2483,8.77177c0,0 -5.2972,7.7223 -10.29818,10.58986c-5.00098,2.86755 -11.48518,1.90075 -11.48518,1.90075l-8.99275,-11.22136c0,0 -3.16515,-1.8549 -3.23705,-3.20406c-0.17917,-3.36256 0.56895,-7.59092 0.56895,-7.59092c0,0 1.26017,3.71675 4.35157,5.85507c2.16691,1.49888 6.74336,1.10555 9.74135,-1.01195c3.68617,-2.60358 5.74981,-7.84518 4.85596,-10.80422c-0.87876,-2.90914 -3.29897,-5.40404 -3.29897,-5.40404c0,0 3.52324,-1.80348 6.46821,1.96299c0.90424,1.15647 0.30864,3.8132 0.30864,3.8132l4.79145,-2.76945l2.49366,6.17914z" fill="#637689" stroke="#03b7ef" stroke-width="1" stroke-linecap="round"/><path d="M233.44493,230.97036l2.02141,-6.34933l4.98635,2.40088c0,0 -0.79392,-2.60433 0.02068,-3.82561c2.65305,-3.97749 7.01861,-2.25273 7.01861,-2.25273c0,0 -2.74286,2.64399 -3.40012,5.61107c-0.66852,3.0179 1.5847,7.92362 5.45643,10.24231c3.14889,1.88577 7.74194,1.93341 9.78986,0.27565c2.92164,-2.36501 3.25437,-6.76901 3.25437,-6.76901c0,0 1.70839,4.76294 1.78289,8.12949c0.02989,1.35076 -2.98663,3.43869 -2.98663,3.43869l-8.12238,11.86656c0,0 -6.39303,1.45227 -11.5957,-1.03066c-5.20265,-2.48292 -11.06625,-9.7845 -11.06625,-9.7845l5.57015,-9.2173z" data-paper-data="{&quot;index&quot;:null}" fill="#637689" stroke="#03b7ef" stroke-width="1" stroke-linecap="round"/><path d="M227.60051,229.28316l27.39368,-2.39027l5.056,16.28495l-6.74513,5.60473l-7.48106,-3.28559l-1.04934,-12.24068l-7.45966,0.07924l0.04201,12.5836l-7.54051,4.32726l-8.23969,-6.76007z" fill="none" stroke="#03b7ef" stroke-width="1" stroke-linecap="round"/><path d="M262.78601,211.22948l3.12571,7.1245l-6.65668,21.40638l-12.194,2.3027l-5.04044,-12.41486l9.30362,-13.35872" fill="none" stroke="#03b7ef" stroke-width="1.5" stroke-linecap="round"/><path d="M254.39932,222.91514l-2.19747,13.50729l-23.93058,1.93821l-2.02679,-14.85194" fill="none" stroke="#03b7ef" stroke-width="1.5" stroke-linecap="round"/><path d="M225.19598,214.0871l12.15337,15.15404l-5.59965,11.44013l-12.5603,-1.85251l-8.22612,-18.66722l3.65088,-10.38417" fill="none" stroke="#03b7ef" stroke-width="1.5" stroke-linecap="round"/><path d="M227.60051,229.28316l27.39373,-2.39027l5.05596,16.2849l-6.74513,5.60473l-7.48106,-3.28563l-1.04934,-12.24068l-7.45966,0.07924l0.04202,12.5836l-7.54054,4.32731l-8.23969,-6.76007z" fill="url(#color-1)" stroke="#000000" stroke-width="0" stroke-linecap="round"/><path d="M231.74263,237.59049l0.88921,9.0291" fill="none" stroke="#1c86b7" stroke-width="0.25" stroke-linecap="round"/><path d="M228.26092,238.20311l0.02061,9.21873" fill="none" stroke="#1c86b7" stroke-width="0.25" stroke-linecap="round"/><path d="M250.47813,246.4615l-0.60452,-9.18962" fill="none" stroke="#1c86b7" stroke-width="0.25" stroke-linecap="round"/><path d="M252.20185,236.42244l-23.93058,1.93821l-2.02679,-14.85194c0.65421,-0.16594 0.76491,-0.9106 0.76491,-0.9106c0.51858,-3.5599 0.37227,-7.37903 0.07868,-11.18575l26.10149,-1.30141c0.28359,3.97109 0.56798,7.94232 0.76753,11.94457c0,0 0.02785,0.55876 0.44226,0.85962z" fill="#f7fbfe" stroke="#c8faff" stroke-width="0.25" stroke-linecap="butt"/><path d="M250.32442,228.32358c0.29418,5.90019 -3.93436,9.78844 -9.8346,10.08263c-5.90019,0.29418 -11.23776,-3.11706 -11.53195,-9.0173c-0.29418,-5.90019 4.25038,-10.92176 10.15062,-11.21594c5.90019,-0.29418 10.92176,4.25038 11.21594,10.15062z" fill="url(#color-2)" stroke="none" stroke-width="0" stroke-linecap="butt"/><path d="M265.91176,218.35393l-6.65669,21.40638l-12.194,2.3027l-5.04044,-12.41486l9.30359,-13.35871c0.31265,0.01901 0.57127,-0.09442 0.57127,-0.09442c3.6696,-1.60997 7.28003,-3.28823 10.89057,-4.96559z" fill="#f7fbfe" stroke="#c8faff" stroke-width="0.25" stroke-linecap="butt"/><path d="M237.34931,229.24109l-5.59966,11.44013l-12.56029,-1.85251l-8.22612,-18.66722l3.65087,-10.38417c3.50959,1.11856 6.97028,2.37981 9.9232,4.14501c0,0 0.2979,0.17674 0.65862,0.1648z" fill="#f7fbfe" stroke="#c8faff" stroke-width="0.25" stroke-linecap="butt"/><path d="M242.81624,232.67356l6.2483,8.77177c0,0 -5.2972,7.72229 -10.29818,10.5899c-5.00094,2.86755 -11.48518,1.9007 -11.48518,1.9007l-8.99275,-11.22136c0,0 -3.16511,-1.8549 -3.23705,-3.20406c-0.17917,-3.36256 0.56895,-7.59092 0.56895,-7.59092c0,0 1.26017,3.71675 4.35157,5.85507c2.16691,1.49888 6.74336,1.10555 9.74135,-1.01195c3.68617,-2.60358 5.7498,-7.84519 4.85596,-10.80418c-0.87876,-2.90914 -3.29897,-5.40409 -3.29897,-5.40409c0,0 3.52324,-1.80343 6.46825,1.96295c0.9042,1.15648 0.3086,3.81316 0.3086,3.81316l4.79145,-2.7695l2.49367,6.17914z" fill="#3a526b" stroke="#03b7ef" stroke-width="0" stroke-linecap="round"/><path d="M237.80229,225.82048c0,0 -0.7149,9.5389 -5.27829,13.20315c-4.5634,3.66425 -14.03651,3.12471 -14.03651,3.12471" fill="none" stroke="#1e2c43" stroke-width="0.25" stroke-linecap="round"/><path d="M233.44493,230.9704l2.02141,-6.34934l4.98635,2.40089c0,0 -0.79392,-2.60433 0.02064,-3.82561c2.65305,-3.97749 7.01861,-2.25274 7.01861,-2.25274c0,0 -2.74286,2.64399 -3.40016,5.61108c-0.66852,3.0179 1.58469,7.92362 5.45643,10.24231c3.14889,1.88577 7.74199,1.93341 9.78986,0.27565c2.9216,-2.36501 3.25436,-6.76906 3.25436,-6.76906c0,0 1.70834,4.763 1.78289,8.12949c0.02993,1.35076 -2.98663,3.43869 -2.98663,3.43869l-8.12238,11.86655c0,0 -6.39308,1.45227 -11.59569,-1.03066c-5.20265,-2.48288 -11.06625,-9.7845 -11.06625,-9.7845l5.57015,-9.21731z" data-paper-data="{&quot;index&quot;:null}" fill="#3a526b" stroke="#03b7ef" stroke-width="0" stroke-linecap="round"/><path d="M261.14755,241.32205c0,0 -9.40565,1.2512 -14.23195,-2.05908c-4.8263,-3.31028 -6.25733,-12.76827 -6.25733,-12.76827" data-paper-data="{&quot;index&quot;:null}" fill="none" stroke="#1e2c43" stroke-width="0.25" stroke-linecap="round"/></g><path d="M265.84525,213.66637c0,0 3.95206,-4.5362 4.48104,-6.02999c0.52899,-1.49379 -0.29733,-5.78437 -0.29733,-5.78437l7.80923,-0.14926c0,0 1.24135,2.22065 -0.44422,6.07464c-1.68558,3.85404 -5.42241,7.33916 -5.42241,7.33916z" fill="none" stroke="#03b7ef" stroke-width="1" stroke-linecap="round"/><path d="M227.07119,139.37856c2.35941,1.92538 5.63871,7.35924 5.63871,7.35924l-1.83935,1.30724c0,0 -5.13055,-2.21939 -7.47801,-4.75847c-2.34747,-2.53905 -4.09755,-7.80897 -4.09755,-7.80897c0,0 5.41679,1.9756 7.7762,3.90098z" fill="none" stroke="#3ba9b4" stroke-width="1.5" stroke-linecap="round"/><path d="M248.91366,134.52023c-0.89719,4.70616 -5.27661,11.01859 -5.27661,11.01859l-3.09738,-0.24611c0,0 -0.11721,-8.82572 1.23964,-12.80815c1.35685,-3.98243 6.24767,-10.20829 6.24767,-10.20829c0,0 1.78383,7.53785 0.88669,12.24396z" data-paper-data="{&quot;index&quot;:null}" fill="none" stroke="#3ba9b4" stroke-width="1.5" stroke-linecap="round"/><path d="M224.90853,123.2187c0,0 8.55467,6.57912 11.68655,11.38335c3.13188,4.80417 5.94558,16.50202 5.94558,16.50202l-4.00878,1.36692c0,0 -7.90824,-6.86541 -10.67634,-12.78022c-2.7681,-5.91481 -2.94701,-16.47202 -2.94701,-16.47202z" fill="none" stroke="#03b7ef" stroke-width="1.5" stroke-linecap="round"/><path d="M243.95285,128.27224c1.25771,5.83057 -0.35471,18.23982 -0.35471,18.23982l-4.40218,-0.16143c0,0 -5.13194,-9.60742 -5.62356,-16.38176c-0.49162,-6.77435 3.25662,-17.09668 3.25662,-17.09668c0,0 5.8662,9.56947 7.12383,15.40004z" fill="none" stroke="#03b7ef" stroke-width="1.5" stroke-linecap="round"/><path d="M237.84925,143.29386c10.51136,-1.46499 18.00658,0.94656 26.94437,10.70928c8.93783,9.76276 7.81422,26.86367 7.81422,26.86367c0,0 6.9063,-1.19231 8.83793,5.06005c1.93167,6.25239 -0.26119,13.01579 -3.44522,16.41374c-3.184,3.39795 -10.69404,0.54969 -10.69404,0.54969l-1.41553,3.82628l-0.1015,3.93597l-3.47773,0.30805l0.14666,3.05185l-3.67729,-0.21053l-2.10965,2.16198l-1.69011,-1.37964c0,0 -9.28613,1.39172 -13.93868,1.62977c-4.65256,0.23802 -13.44637,-0.22856 -13.44637,-0.22856l-3.01619,1.86455l-2.34812,-2.20261l-3.90931,1.65973l-1.21373,-3.21551l-4.59122,2.79645l-1.17215,-8.53008l-1.42164,-1.85349c0,0 -6.91914,4.00024 -11.71779,-0.98141c-4.79868,-4.98167 -5.35158,-12.61499 -4.51464,-16.31097c0.83691,-3.69597 8.69581,-2.73803 8.69581,-2.73803c0,0 -3.44879,-19.4059 4.89299,-29.96765c8.34179,-10.56171 20.05743,-11.74767 30.56875,-13.21266z" fill="none" stroke="#3ba9b4" stroke-width="1.5" stroke-linecap="round"/><path d="M227.07127,139.37856c2.35938,1.92539 5.63868,7.35929 5.63868,7.35929l-1.83935,1.30719c0,0 -5.13059,-2.21939 -7.47805,-4.75847c-2.34747,-2.53905 -4.09755,-7.80897 -4.09755,-7.80897c0,0 5.41682,1.97559 7.77628,3.90097z" fill="none" stroke="#03b7ef" stroke-width="1.5" stroke-linecap="round"/><path d="M250.76092,142.50617c-1.66079,2.26107 -5.56699,4.4931 -5.56699,4.4931l-1.57498,-0.91103c0,0 2.16334,-4.69413 3.88457,-6.45682c1.72127,-1.76268 5.87592,-3.82 5.87592,-3.82c0,0 -0.95778,4.43364 -2.61852,6.69475z" data-paper-data="{&quot;index&quot;:null}" fill="none" stroke="#03b7ef" stroke-width="1.5" stroke-linecap="round"/><path d="M248.02693,122.27626c0,0 1.78392,7.53785 0.88673,12.24396c-0.89719,4.70616 -5.27661,11.01859 -5.27661,11.01859l-3.09742,-0.24611c0,0 -0.11721,-8.82571 1.23964,-12.8081c1.35688,-3.98239 6.24767,-10.20834 6.24767,-10.20834z" data-paper-data="{&quot;index&quot;:null}" fill="none" stroke="#03b7ef" stroke-width="1.5" stroke-linecap="round"/><path d="M224.90854,123.21882c0,0 8.55464,6.57909 11.68651,11.38331c3.13188,4.80417 5.94557,16.50202 5.94557,16.50202l-4.00877,1.36692c0,0 -7.9082,-6.86541 -10.67629,-12.78026c-2.7681,-5.91486 -2.94701,-16.47202 -2.94701,-16.47202z" fill="none" stroke="#03b7ef" stroke-width="1.5" stroke-linecap="round"/><path d="M237.84921,143.29377c10.51131,-1.46499 18.00653,0.94656 26.94437,10.70932c8.93788,9.76276 7.81423,26.86366 7.81423,26.86366c0,0 6.9063,-1.1923 8.83793,5.06006c1.93167,6.25239 -0.26123,13.01582 -3.44527,16.41373c-3.18399,3.39795 -10.69404,0.54969 -10.69404,0.54969l-1.41553,3.82629l-0.10151,3.93597l-3.47773,0.30805l0.14665,3.05185l-3.67729,-0.21053l-2.10965,2.16197l-1.69011,-1.37964c0,0 -9.28613,1.39172 -13.93868,1.62978c-4.65256,0.23805 -13.44641,-0.22856 -13.44641,-0.22856l-3.01615,1.86455l-2.34807,-2.20261l-3.90931,1.65973l-1.21373,-3.21551l-4.59127,2.79645l-1.17215,-8.53009l-1.42164,-1.85349c0,0 -6.91909,4.00023 -11.71779,-0.98141c-4.79868,-4.98159 -5.35155,-12.61495 -4.51464,-16.31092c0.83695,-3.69598 8.69584,-2.73803 8.69584,-2.73803c0,0 -3.44883,-19.40589 4.89299,-29.96765c8.34182,-10.56175 20.05743,-11.74767 30.56875,-13.21266z" fill="none" stroke="#03b7ef" stroke-width="1.5" stroke-linecap="round"/><path d="M257.09268,178.4963c9.75987,0.19202 13.36902,5.45205 12.25061,15.20112c-1.6767,14.61515 -18.80282,17.60501 -18.80282,17.60501c0,0 -1.26669,2.9472 -2.8624,4.02405c-1.25752,0.84861 -13.27251,1.24553 -15.13632,0.93959c-1.86385,-0.30594 -3.74324,-3.68451 -3.74324,-3.68451c0,0 -17.58664,0.79479 -22.02505,-16.7987c-2.01167,-7.97415 1.11975,-15.40339 11.16876,-15.27413c12.1668,0.15654 20.95071,14.75393 20.95071,14.75393c0,0 8.32637,-15.93571 18.19976,-16.76632z" fill="none" stroke="#3ba9b4" stroke-width="1.5" stroke-linecap="round"/><path d="M228.654,192.76895c4.71219,4.66574 5.37568,11.63601 1.48194,15.56849c-3.8937,3.93247 -10.87017,3.33803 -15.58236,-1.32776c-4.71219,-4.66574 -5.37568,-11.63601 -1.48194,-15.56848c3.8937,-3.93247 10.87017,-3.33803 15.58236,1.32775z" fill="none" stroke="#3ba9b4" stroke-width="1.5" stroke-linecap="butt"/><path d="M263.18645,188.21908c4.27639,3.51252 4.33111,10.51404 0.12215,15.63838c-4.20896,5.12431 -11.08771,6.43094 -15.36409,2.91846c-4.27639,-3.51252 -4.33111,-10.51404 -0.12215,-15.63838c4.20896,-5.12431 11.08771,-6.43094 15.36409,-2.91846z" data-paper-data="{&quot;index&quot;:null}" fill="none" stroke="#3ba9b4" stroke-width="1.5" stroke-linecap="butt"/><path d="M228.75951,202.68661c0.34948,2.24497 -0.61614,4.25927 -2.15677,4.49913c-1.54063,0.23981 -3.07292,-1.38561 -3.42241,-3.63054c-0.34948,-2.24497 0.61614,-4.25928 2.15677,-4.49913c1.54063,-0.23981 3.07292,1.38561 3.42241,3.63057z" fill="none" stroke="#3ba9b4" stroke-width="1.5" stroke-linecap="butt"/><path d="M251.92757,197.04309c1.55711,0.08058 2.72422,1.98531 2.60671,4.25428c-0.11746,2.26897 -1.47501,4.04298 -3.03212,3.96232c-1.55711,-0.08058 -2.72422,-1.98531 -2.60671,-4.25428c0.11746,-2.26897 1.47501,-4.04298 3.03212,-3.96235z" data-paper-data="{&quot;index&quot;:null}" fill="none" stroke="#3ba9b4" stroke-width="1.5" stroke-linecap="butt"/><path d="M220.77598,179.90949l11.64605,3.43985l-2.044,7.37429l-10.18779,-3.35325z" fill="none" stroke="#3ba9b4" stroke-width="1.5" stroke-linecap="round"/><path d="M256.75466,185.32935l-9.79028,4.38016l-2.78939,-7.12589l11.23199,-4.61581z" data-paper-data="{&quot;index&quot;:null}" fill="none" stroke="#3ba9b4" stroke-width="1.5" stroke-linecap="round"/><path d="M203.38205,189.0352c0,0 1.10029,5.74404 2.03573,8.31165c0.80935,2.22153 2.64563,6.28815 2.64563,6.28815c0,0 -0.96191,0.99269 -3.64844,0.4892c-1.83405,-0.34372 -7.14242,-9.07036 -5.13381,-12.43453c1.65015,-2.76386 4.10089,-2.65452 4.10089,-2.65452z" data-paper-data="{&quot;index&quot;:null}" fill="none" stroke="#3ba9b4" stroke-width="1.5" stroke-linecap="round"/><path d="M276.24615,186.65157c2.62261,2.91108 -0.8935,12.50113 -2.62611,13.19381c-2.53799,1.01471 -3.67406,0.2273 -3.67406,0.2273c0,0 1.01316,-4.34539 1.37655,-6.68168c0.42003,-2.70022 0.38597,-8.54862 0.38597,-8.54862c0,0 2.38307,-0.5823 4.53765,1.80923z" data-paper-data="{&quot;index&quot;:null}" fill="none" stroke="#3ba9b4" stroke-width="1.5" stroke-linecap="round"/><path d="M265.84517,213.6663c0,0 3.95205,-4.53616 4.48108,-6.02995c0.52899,-1.49379 -0.29732,-5.78434 -0.29732,-5.78434l7.80923,-0.14925c0,0 1.24136,2.22064 -0.44421,6.07464c-1.68553,3.85404 -5.42237,7.33916 -5.42237,7.33916z" fill="url(#color-3)" stroke="#000000" stroke-width="0" stroke-linecap="round"/><path d="M219.29495,135.47763c0,0 5.41682,1.97555 7.77625,3.90093c2.35941,1.92538 5.63871,7.35924 5.63871,7.35924l-1.83935,1.30724c0,0 -5.13055,-2.21939 -7.47801,-4.75847c-2.34747,-2.53905 -4.09755,-7.80897 -4.09755,-7.80897z" fill="none" stroke="#c8faff" stroke-width="0.5" stroke-linecap="round"/><path d="M250.76092,142.50613c-1.66079,2.26107 -5.56699,4.4931 -5.56699,4.4931l-1.57497,-0.91102c0,0 2.16334,-4.69413 3.8846,-6.45682c1.72123,-1.76267 5.87592,-3.82 5.87592,-3.82c0,0 -0.95777,4.43367 -2.61851,6.69475z" data-paper-data="{&quot;index&quot;:null}" fill="none" stroke="#c8faff" stroke-width="0.5" stroke-linecap="round"/><path d="M248.02694,122.27626c0,0 1.78387,7.53785 0.88673,12.24396c-0.89719,4.70616 -5.27661,11.01859 -5.27661,11.01859l-3.09738,-0.24611c0,0 -0.11721,-8.82572 1.23964,-12.80815c1.35685,-3.98243 6.24767,-10.20829 6.24767,-10.20829z" data-paper-data="{&quot;index&quot;:null}" fill="none" stroke="#c8faff" stroke-width="0.5" stroke-linecap="round"/><path d="M224.90853,123.2187c0,0 8.55467,6.57912 11.68655,11.38335c3.13188,4.80417 5.94558,16.50202 5.94558,16.50202l-4.00878,1.36692c0,0 -7.90824,-6.86541 -10.67634,-12.78022c-2.7681,-5.91481 -2.94701,-16.47202 -2.94701,-16.47202z" fill="none" stroke="#c8faff" stroke-width="0.5" stroke-linecap="round"/><path d="M236.82894,112.87224c0,0 5.86624,9.56947 7.12386,15.40004c1.25771,5.83057 -0.3547,18.23982 -0.3547,18.23982l-4.40218,-0.16143c0,0 -5.13194,-9.60742 -5.62356,-16.38176c-0.49162,-6.77435 3.25662,-17.09668 3.25662,-17.09668z" fill="none" stroke="#c8faff" stroke-width="0.5" stroke-linecap="round"/><path d="M237.84925,143.29386c10.51136,-1.46499 18.00658,0.94656 26.94437,10.70928c8.93783,9.76276 7.81422,26.86367 7.81422,26.86367c0,0 6.9063,-1.19231 8.83793,5.06005c1.93167,6.25239 -0.26119,13.01579 -3.44522,16.41374c-3.184,3.39795 -10.69404,0.54969 -10.69404,0.54969l-1.41553,3.82628l-0.1015,3.93597l-3.47773,0.30805l0.14666,3.05185l-3.67729,-0.21053l-2.10965,2.16198l-1.69011,-1.37964c0,0 -9.28613,1.39172 -13.93868,1.62977c-4.65256,0.23802 -13.44637,-0.22856 -13.44637,-0.22856l-3.01619,1.86455l-2.34812,-2.20261l-3.90931,1.65973l-1.21373,-3.21551l-4.59122,2.79645l-1.17215,-8.53008l-1.42164,-1.85349c0,0 -6.91914,4.00024 -11.71779,-0.98141c-4.79868,-4.98167 -5.35158,-12.61499 -4.51464,-16.31097c0.83691,-3.69597 8.69581,-2.73803 8.69581,-2.73803c0,0 -3.44879,-19.4059 4.89299,-29.96765c8.34179,-10.56171 20.05743,-11.74767 30.56875,-13.21266z" fill="none" stroke="#c8faff" stroke-width="0.5" stroke-linecap="round"/><path d="M227.07127,139.37856c2.35938,1.92539 5.63868,7.35929 5.63868,7.35929l-1.83935,1.30719c0,0 -5.13059,-2.21939 -7.47805,-4.75847c-2.34747,-2.53905 -4.09755,-7.80897 -4.09755,-7.80897c0,0 5.41682,1.97559 7.77628,3.90097z" fill="url(#color-4)" stroke="#c8faff" stroke-width="0" stroke-linecap="round"/><path d="M253.37944,135.81139c0,0 -0.95777,4.43367 -2.61851,6.69479c-1.66079,2.26107 -5.56699,4.4931 -5.56699,4.4931l-1.57498,-0.91103c0,0 2.16334,-4.69413 3.88457,-6.45682c1.72127,-1.76268 5.87592,-3.82 5.87592,-3.82z" data-paper-data="{&quot;index&quot;:null}" fill="url(#color-5)" stroke="#c8faff" stroke-width="0" stroke-linecap="round"/><path d="M248.02693,122.27626c0,0 1.78392,7.53785 0.88673,12.24396c-0.89719,4.70616 -5.27661,11.01859 -5.27661,11.01859l-3.09742,-0.24611c0,0 -0.11721,-8.82571 1.23964,-12.8081c1.35688,-3.98239 6.24767,-10.20834 6.24767,-10.20834z" data-paper-data="{&quot;index&quot;:null}" fill="url(#color-6)" stroke="#c8faff" stroke-width="0" stroke-linecap="round"/><path d="M224.90854,123.21882c0,0 8.55464,6.57909 11.68651,11.38331c3.13188,4.80417 5.94557,16.50202 5.94557,16.50202l-4.00877,1.36692c0,0 -7.9082,-6.86541 -10.67629,-12.78026c-2.7681,-5.91486 -2.94701,-16.47202 -2.94701,-16.47202z" fill="url(#color-7)" stroke="#c8faff" stroke-width="0" stroke-linecap="round"/><path d="M243.95294,128.27223c1.25768,5.83057 -0.35475,18.23982 -0.35475,18.23982l-4.40219,-0.16144c0,0 -5.13194,-9.60741 -5.62361,-16.38175c-0.49166,-6.77435 3.25659,-17.09663 3.25659,-17.09663c0,0 5.86627,9.56942 7.12395,15.4z" fill="url(#color-8)" stroke="#c8faff" stroke-width="0" stroke-linecap="round"/><path d="M237.84921,143.29377c10.51131,-1.46499 18.00653,0.94656 26.94437,10.70932c8.93788,9.76276 7.81423,26.86366 7.81423,26.86366c0,0 6.9063,-1.1923 8.83793,5.06006c1.93167,6.25239 -0.26123,13.01582 -3.44527,16.41373c-3.18399,3.39795 -10.69404,0.54969 -10.69404,0.54969l-1.41553,3.82629l-0.10151,3.93597l-3.47773,0.30805l0.14665,3.05185l-3.67729,-0.21053l-2.10965,2.16197l-1.69011,-1.37964c0,0 -9.28613,1.39172 -13.93868,1.62978c-4.65256,0.23805 -13.44641,-0.22856 -13.44641,-0.22856l-3.01615,1.86455l-2.34807,-2.20261l-3.90931,1.65973l-1.21373,-3.21551l-4.59127,2.79645l-1.17215,-8.53009l-1.42164,-1.85349c0,0 -6.91909,4.00023 -11.71779,-0.98141c-4.79868,-4.98159 -5.35155,-12.61495 -4.51464,-16.31092c0.83695,-3.69598 8.69584,-2.73803 8.69584,-2.73803c0,0 -3.44883,-19.40589 4.89299,-29.96765c8.34182,-10.56175 20.05743,-11.74767 30.56875,-13.21266z" fill="#f7fbfe" stroke="#c8faff" stroke-width="0" stroke-linecap="round"/><path d="M257.09268,178.4963c9.75987,0.19202 13.36902,5.45205 12.25061,15.20112c-1.6767,14.61515 -18.80282,17.60501 -18.80282,17.60501c0,0 -1.26669,2.9472 -2.8624,4.02405c-1.25752,0.84861 -13.27251,1.24553 -15.13632,0.93959c-1.86385,-0.30594 -3.74324,-3.68451 -3.74324,-3.68451c0,0 -17.58664,0.79479 -22.02505,-16.7987c-2.01167,-7.97415 1.11975,-15.40339 11.16876,-15.27413c12.1668,0.15654 20.95071,14.75393 20.95071,14.75393c0,0 8.32637,-15.93571 18.19976,-16.76632z" fill="url(#color-9)" stroke="#347db1" stroke-width="0.25" stroke-linecap="round"/><path d="M220.77598,179.90949l11.64605,3.43985l-2.044,7.37429l-10.18779,-3.35325z" fill="#33c1f4" stroke="#000000" stroke-width="0" stroke-linecap="round"/><path d="M256.75466,185.32935l-9.79028,4.38016l-2.78939,-7.12589l11.23199,-4.61581z" data-paper-data="{&quot;index&quot;:null}" fill="#33c1f4" stroke="#000000" stroke-width="0" stroke-linecap="round"/><path d="M203.38205,189.0352c0,0 1.10029,5.74404 2.03573,8.31165c0.80935,2.22153 2.64563,6.28815 2.64563,6.28815c0,0 -0.96191,0.99269 -3.64844,0.4892c-1.83405,-0.34372 -7.14242,-9.07036 -5.13381,-12.43453c1.65015,-2.76386 4.10089,-2.65452 4.10089,-2.65452z" data-paper-data="{&quot;index&quot;:null}" fill="#1f69a9" stroke="#000000" stroke-width="0" stroke-linecap="round"/><path d="M276.24615,186.65157c2.62261,2.91108 -0.8935,12.50113 -2.62611,13.19381c-2.53799,1.01471 -3.67406,0.2273 -3.67406,0.2273c0,0 1.01316,-4.34539 1.37655,-6.68168c0.42003,-2.70022 0.38597,-8.54862 0.38597,-8.54862c0,0 2.38307,-0.5823 4.53765,1.80923z" data-paper-data="{&quot;index&quot;:null}" fill="#1f69a9" stroke="#000000" stroke-width="0" stroke-linecap="round"/><path d="M240.15938,205.71941c0,0 -8.60089,11.45684 -19.49315,7.80123c-22.55945,-7.57126 -21.49419,-31.1287 -21.49419,-31.1287c0,0 23.90277,11.34186 39.04728,10.08049c13.39529,-1.11568 39.8172,-14.13426 39.8172,-14.13426c0,0 -1.79499,26.76613 -19.65747,33.99941c-11.32693,4.58677 -18.21971,-6.61821 -18.21971,-6.61821z" fill="url(#color-10)" stroke="url(#color-11)" stroke-width="0.25" stroke-linecap="round"/><path d="M242.99136,192.22718l-18.77015,21.86626c0,0 -2.81108,-0.30046 -3.96345,-0.67901c-1.05301,-0.34595 -2.67963,-1.5033 -2.67963,-1.5033l18.90889,-18.84597z" fill="url(#color-12)" stroke="#000000" stroke-width="0" stroke-linecap="round"/><path d="M263.91432,185.1355l-18.47352,25.34896c0,0 -2.31962,-1.03862 -3.16531,-1.80161c-0.91006,-0.82112 -2.11611,-2.96343 -2.11611,-2.96343l14.61194,-16.97446z" fill="url(#color-13)" stroke="#000000" stroke-width="0" stroke-linecap="round"/></g></g></svg>