<svg version="1.1" xmlns="http://www.w3.org/2000/svg" xmlns:xlink="http://www.w3.org/1999/xlink" width="314.33333" height="37.87458" viewBox="0,0,314.33333,37.87458"><defs><linearGradient x1="226.16667" y1="248.38889" x2="226.16667" y2="274.72222" gradientUnits="userSpaceOnUse" id="color-1"><stop offset="0" stop-color="#d4e1f6"/><stop offset="1" stop-color="#47b8e9"/></linearGradient></defs><g transform="translate(-69,-247.88888)"><g data-paper-data="{&quot;isPaintingLayer&quot;:true}" fill-rule="nonzero" stroke-linecap="butt" stroke-linejoin="miter" stroke-miterlimit="10" stroke-dasharray="" stroke-dashoffset="0" style="mix-blend-mode: normal"><path d="M69.5,274.72222v-26.33334h313.33333v26.33334z" fill="url(#color-1)" stroke="#233b1a" stroke-width="1"/><path d="M74.16666,273.27647v-22.88759h304.33334v22.88759z" fill="#000000" stroke="none" stroke-width="0"/><path d="M300.16667,273.72222v-24.33334h1v24.33334z" fill="#ffffff" stroke="none" stroke-width="0"/><path d="M220.83333,273.38889v-24.33334h1v24.33334z" fill="#ffffff" stroke="none" stroke-width="0"/><path d="M145.83333,274.05556v-24.33334h1v24.33334z" fill="#ffffff" stroke="none" stroke-width="0"/><g stroke="none"><g fill="#341702" stroke-width="0"><path d="M231.10246,271.05728c-0.6462,5.76993 -7.4881,9.73981 -15.28182,8.86696c-7.79372,-0.87285 -13.58793,-6.25789 -12.94173,-12.02783c0.6462,-5.76993 7.4881,-9.73981 15.28182,-8.86696c7.79372,0.87285 13.58793,6.25789 12.94173,12.02783z"/><path d="M213.35854,284.76346l-0.70582,-7.87912l4.48487,-0.03294l0.70582,7.87912z"/><path d="M218.74752,284.57756l-0.70582,-7.87912l4.48487,-0.03294l0.70582,7.87912z"/><path d="M224.24128,283.45607l-0.70582,-7.87912l4.48486,-0.03294l0.70582,7.87912z"/></g><path d="M230.04191,270.26887c-0.58775,5.24803 -6.81079,8.85882 -13.89955,8.06492c-7.08876,-0.7939 -12.35887,-5.69185 -11.77112,-10.93988c0.58775,-5.24803 6.81078,-8.85882 13.89954,-8.06492c7.08876,0.7939 12.35888,5.69185 11.77113,10.93988z" fill="#f6ecea" stroke-width="0"/><path d="M213.90297,282.7353l-0.64198,-7.16644l4.0792,-0.02995l0.64198,7.16644z" fill="#f6ecea" stroke-width="0"/><path d="M218.8045,282.56622l-0.64198,-7.16644l4.07919,-0.02996l0.64198,7.16644z" fill="#f6ecea" stroke-width="0"/><path d="M223.80134,281.54616l-0.64198,-7.16644l4.0792,-0.02996l0.64198,7.16644z" fill="#f6ecea" stroke-width="0"/><path d="M216.9076,268.29528c-0.1886,1.68407 -1.92896,2.8715 -3.88718,2.65219c-1.95822,-0.21931 -3.39277,-1.7623 -3.20417,-3.44637c0.1886,-1.68407 1.92895,-2.8715 3.88717,-2.65219c1.95822,0.21931 3.39278,1.7623 3.20417,3.44637z" fill="#403126" stroke-width="0"/><path d="M226.19101,267.4681c-0.1886,1.68407 -1.92896,2.87149 -3.88718,2.65218c-1.95822,-0.21931 -3.39278,-1.7623 -3.20417,-3.44637c0.1886,-1.68407 1.92896,-2.87149 3.88718,-2.65218c1.95822,0.21931 3.39278,1.7623 3.20417,3.44637z" fill="#403126" stroke-width="0"/><path d="M218.00282,272.94153c-0.01986,0.17728 -0.19714,0.15743 -0.19714,0.15743c-0.30729,-0.03442 -0.6855,-0.07677 -0.99279,-0.11118c0,0 -0.17728,-0.01986 -0.15742,-0.19714c0.01986,-0.17728 0.19714,-0.15743 0.19714,-0.15743c0.30729,0.03442 0.61459,0.06883 0.92188,0.10325l0.07091,0.00795c0,0 0.17729,0.01985 0.15743,0.19714z" fill="#403126" stroke-width="0.5"/><path d="M220.18025,271.99064l0.06478,-0.02992c0.28071,-0.12968 0.56142,-0.25934 0.84213,-0.38902c0,0 0.16194,-0.07481 0.23675,0.08713c0.07481,0.16195 -0.08713,0.23676 -0.08713,0.23676c-0.28071,0.12968 -0.62619,0.28927 -0.9069,0.41895c0,0 -0.16195,0.07481 -0.23676,-0.08714c-0.07481,-0.16195 0.08714,-0.23676 0.08714,-0.23676z" data-paper-data="{&quot;index&quot;:null}" fill="#403126" stroke-width="0.5"/></g><g stroke="none"><g fill="#341702" stroke-width="0"><path d="M314.30246,271.25728c-0.6462,5.76993 -7.4881,9.73981 -15.28182,8.86696c-7.79372,-0.87285 -13.58793,-6.25789 -12.94173,-12.02783c0.6462,-5.76993 7.4881,-9.73981 15.28182,-8.86696c7.79372,0.87285 13.58794,6.25789 12.94173,12.02783z"/><path d="M296.55854,284.96346l-0.70582,-7.87912l4.48487,-0.03294l0.70582,7.87912z"/><path d="M301.94752,284.77756l-0.70582,-7.87912l4.48487,-0.03294l0.70582,7.87912z"/><path d="M307.44128,283.65607l-0.70582,-7.87912l4.48486,-0.03294l0.70582,7.87912z"/></g><path d="M313.24191,270.46887c-0.58775,5.24803 -6.81079,8.85882 -13.89955,8.06492c-7.08876,-0.7939 -12.35887,-5.69185 -11.77112,-10.93988c0.58775,-5.24803 6.81079,-8.85882 13.89954,-8.06492c7.08876,0.7939 12.35888,5.69185 11.77113,10.93988z" fill="#f6ecea" stroke-width="0"/><path d="M297.10297,282.9353l-0.64198,-7.16644l4.0792,-0.02996l0.64198,7.16644z" fill="#f6ecea" stroke-width="0"/><path d="M302.0045,282.76622l-0.64198,-7.16644l4.07919,-0.02996l0.64198,7.16644z" fill="#f6ecea" stroke-width="0"/><path d="M307.00134,281.74617l-0.64198,-7.16644l4.0792,-0.02995l0.64198,7.16644z" fill="#f6ecea" stroke-width="0"/><path d="M300.1076,268.49529c-0.1886,1.68407 -1.92896,2.87149 -3.88718,2.65218c-1.95822,-0.21931 -3.39277,-1.7623 -3.20417,-3.44637c0.1886,-1.68407 1.92896,-2.87149 3.88718,-2.65218c1.95822,0.21931 3.39277,1.7623 3.20417,3.44637z" fill="#403126" stroke-width="0"/><path d="M309.39101,267.6681c-0.1886,1.68407 -1.92896,2.8715 -3.88718,2.65219c-1.95822,-0.21931 -3.39277,-1.7623 -3.20417,-3.44637c0.1886,-1.68407 1.92896,-2.8715 3.88718,-2.65219c1.95822,0.21931 3.39277,1.7623 3.20417,3.44637z" fill="#403126" stroke-width="0"/><path d="M301.20282,273.14153c-0.01986,0.17728 -0.19714,0.15743 -0.19714,0.15743c-0.30729,-0.03442 -0.6855,-0.07677 -0.99279,-0.11118c0,0 -0.17728,-0.01986 -0.15742,-0.19714c0.01986,-0.17728 0.19714,-0.15743 0.19714,-0.15743c0.30729,0.03442 0.61458,0.06883 0.92188,0.10325l0.07092,0.00795c0,0 0.17728,0.01985 0.15743,0.19714z" fill="#403126" stroke-width="0.5"/><path d="M303.38025,272.19065l0.06478,-0.02992c0.28071,-0.12968 0.56142,-0.25934 0.84213,-0.38902c0,0 0.16195,-0.07481 0.23676,0.08713c0.07481,0.16195 -0.08713,0.23676 -0.08713,0.23676c-0.28071,0.12968 -0.62619,0.28927 -0.9069,0.41895c0,0 -0.16195,0.07481 -0.23676,-0.08713c-0.07481,-0.16195 0.08713,-0.23676 0.08713,-0.23676z" data-paper-data="{&quot;index&quot;:null}" fill="#403126" stroke-width="0.5"/></g><g stroke="none"><g fill="#341702" stroke-width="0"><path d="M156.70246,272.05728c-0.6462,5.76993 -7.4881,9.73981 -15.28182,8.86696c-7.79372,-0.87285 -13.58793,-6.25789 -12.94173,-12.02783c0.6462,-5.76993 7.4881,-9.73981 15.28182,-8.86696c7.79372,0.87285 13.58793,6.25789 12.94173,12.02783z"/><path d="M138.95854,285.76346l-0.70582,-7.87912l4.48486,-0.03294l0.70582,7.87912z"/><path d="M144.34752,285.57756l-0.70582,-7.87912l4.48487,-0.03294l0.70582,7.87912z"/><path d="M149.84128,284.45607l-0.70582,-7.87912l4.48486,-0.03294l0.70582,7.87912z"/></g><path d="M155.64191,271.26887c-0.58775,5.24803 -6.81079,8.85882 -13.89955,8.06492c-7.08876,-0.7939 -12.35887,-5.69185 -11.77112,-10.93988c0.58775,-5.24803 6.81079,-8.85882 13.89955,-8.06492c7.08876,0.7939 12.35887,5.69185 11.77112,10.93988z" fill="#f6ecea" stroke-width="0"/><path d="M139.50297,283.7353l-0.64198,-7.16644l4.0792,-0.02995l0.64198,7.16644z" fill="#f6ecea" stroke-width="0"/><path d="M144.4045,283.56622l-0.64198,-7.16644l4.07919,-0.02996l0.64198,7.16644z" fill="#f6ecea" stroke-width="0"/><path d="M149.40134,282.54616l-0.64198,-7.16644l4.0792,-0.02996l0.64198,7.16644z" fill="#f6ecea" stroke-width="0"/><path d="M142.5076,269.29528c-0.1886,1.68407 -1.92895,2.8715 -3.88717,2.65219c-1.95822,-0.21931 -3.39278,-1.7623 -3.20417,-3.44637c0.1886,-1.68407 1.92895,-2.8715 3.88717,-2.65219c1.95822,0.21931 3.39278,1.7623 3.20417,3.44637z" fill="#403126" stroke-width="0"/><path d="M151.79101,268.4681c-0.1886,1.68407 -1.92896,2.87149 -3.88718,2.65218c-1.95822,-0.21931 -3.39277,-1.7623 -3.20417,-3.44637c0.1886,-1.68407 1.92895,-2.87149 3.88717,-2.65218c1.95822,0.21931 3.39278,1.7623 3.20417,3.44637z" fill="#403126" stroke-width="0"/><path d="M143.60282,273.94153c-0.01986,0.17728 -0.19714,0.15743 -0.19714,0.15743c-0.30729,-0.03442 -0.6855,-0.07677 -0.99279,-0.11118c0,0 -0.17728,-0.01986 -0.15742,-0.19714c0.01986,-0.17728 0.19714,-0.15743 0.19714,-0.15743c0.30729,0.03442 0.61459,0.06883 0.92188,0.10325l0.07091,0.00795c0,0 0.17729,0.01985 0.15743,0.19714z" fill="#403126" stroke-width="0.5"/><path d="M145.78025,272.99064l0.06478,-0.02992c0.28071,-0.12968 0.56142,-0.25934 0.84213,-0.38902c0,0 0.16194,-0.07481 0.23675,0.08713c0.07481,0.16195 -0.08713,0.23676 -0.08713,0.23676c-0.28071,0.12968 -0.62619,0.28927 -0.9069,0.41895c0,0 -0.16195,0.07481 -0.23676,-0.08714c-0.07481,-0.16195 0.08714,-0.23676 0.08714,-0.23676z" data-paper-data="{&quot;index&quot;:null}" fill="#403126" stroke-width="0.5"/></g></g></g></svg>