<svg version="1.1" xmlns="http://www.w3.org/2000/svg" xmlns:xlink="http://www.w3.org/1999/xlink" width="164.98364" height="196.33436" viewBox="0,0,164.98364,196.33436"><defs><linearGradient x1="239.99289" y1="79.37007" x2="239.99289" y2="208.69554" gradientUnits="userSpaceOnUse" id="color-1"><stop offset="0" stop-color="#cfae7d"/><stop offset="1" stop-color="#be904c"/></linearGradient><linearGradient x1="239.83083" y1="113.5779" x2="239.83083" y2="141.12314" gradientUnits="userSpaceOnUse" id="color-2"><stop offset="0" stop-color="#c0965b" stop-opacity="0"/><stop offset="1" stop-color="#c0965b"/></linearGradient><linearGradient x1="239.34836" y1="79.47122" x2="239.34836" y2="148.2202" gradientUnits="userSpaceOnUse" id="color-3"><stop offset="0" stop-color="#ffffcc"/><stop offset="1" stop-color="#ffffcc" stop-opacity="0"/></linearGradient><radialGradient cx="244.0712" cy="188.6597" r="56.16523" gradientUnits="userSpaceOnUse" id="color-4"><stop offset="0" stop-color="#f7cb07"/><stop offset="1" stop-color="#f7cb07" stop-opacity="0"/></radialGradient><radialGradient cx="244.09217" cy="200.9204" r="52.94808" gradientUnits="userSpaceOnUse" id="color-5"><stop offset="0" stop-color="#deb631"/><stop offset="1" stop-color="#deb631" stop-opacity="0"/></radialGradient><linearGradient x1="244.56391" y1="186.28068" x2="244.56391" y2="275.02424" gradientUnits="userSpaceOnUse" id="color-6"><stop offset="0" stop-color="#d9ba6f"/><stop offset="1" stop-color="#af7a38"/></linearGradient><linearGradient x1="231.05667" y1="225.40467" x2="231.05667" y2="243.66263" gradientUnits="userSpaceOnUse" id="color-7"><stop offset="0" stop-color="#bc8d3c"/><stop offset="1" stop-color="#c69b40"/></linearGradient><linearGradient x1="294.41987" y1="206.03634" x2="298.37385" y2="274.64751" gradientUnits="userSpaceOnUse" id="color-8"><stop offset="0" stop-color="#d3ac43"/><stop offset="1" stop-color="#a56e35"/></linearGradient><linearGradient x1="260.16095" y1="233.85074" x2="257.76318" y2="268.55285" gradientUnits="userSpaceOnUse" id="color-9"><stop offset="0" stop-color="#d3ac43"/><stop offset="1" stop-color="#a56e35"/></linearGradient><linearGradient x1="243.29173" y1="229.18581" x2="243.29173" y2="275.20441" gradientUnits="userSpaceOnUse" id="color-10"><stop offset="0" stop-color="#d3ac43"/><stop offset="1" stop-color="#a56e35"/></linearGradient><linearGradient x1="194.24984" y1="209.39502" x2="194.24984" y2="274.22938" gradientUnits="userSpaceOnUse" id="color-11"><stop offset="0" stop-color="#d3ac43"/><stop offset="1" stop-color="#a56e35"/></linearGradient><radialGradient cx="244.29814" cy="203.56196" r="59.39918" gradientUnits="userSpaceOnUse" id="color-12"><stop offset="0" stop-color="#be8823"/><stop offset="1" stop-color="#bd8b27"/></radialGradient><linearGradient x1="231.05667" y1="227.88032" x2="231.05667" y2="238.40189" gradientUnits="userSpaceOnUse" id="color-13"><stop offset="0" stop-color="#bc8d3c"/><stop offset="1" stop-color="#c69b40"/></linearGradient><linearGradient x1="244.60885" y1="183.73452" x2="244.60885" y2="243.62061" gradientUnits="userSpaceOnUse" id="color-14"><stop offset="0" stop-color="#ffffbc"/><stop offset="1" stop-color="#ffffbc" stop-opacity="0"/></linearGradient><linearGradient x1="239.88945" y1="137.84744" x2="239.88945" y2="163.96509" gradientUnits="userSpaceOnUse" id="color-15"><stop offset="0" stop-color="#c0965b"/><stop offset="1" stop-color="#c0965b" stop-opacity="0"/></linearGradient><radialGradient cx="239.99289" cy="144.0328" r="53.71144" gradientUnits="userSpaceOnUse" id="color-16"><stop offset="0" stop-color="#00f0d2"/><stop offset="1" stop-color="#00a8d6"/></radialGradient><radialGradient cx="245.11755" cy="149.38209" r="42.75405" gradientUnits="userSpaceOnUse" id="color-17"><stop offset="0" stop-color="#9eefff"/><stop offset="1" stop-color="#9eefff" stop-opacity="0"/></radialGradient><radialGradient cx="226.38557" cy="128.71293" r="29.91853" gradientUnits="userSpaceOnUse" id="color-18"><stop offset="0" stop-color="#f3fdff"/><stop offset="1" stop-color="#00ccff"/></radialGradient></defs><g transform="translate(-162.02946,-78.87005)"><g data-paper-data="{&quot;isPaintingLayer&quot;:true}" fill-rule="nonzero" stroke-linejoin="miter" stroke-miterlimit="10" stroke-dasharray="" stroke-dashoffset="0" style="mix-blend-mode: normal"><path d="M220.06136,80.81102c12.92447,-3.94403 55.79167,-0.33733 69.68452,17.64936c18.44325,23.87792 22.29943,58.0179 3.3473,87.02961c-10.87291,16.64414 -56.32524,28.2658 -73.03182,20.99666c-16.59984,-7.22271 -45.32521,-37.44814 -45.64491,-64.20716c-0.35965,-30.10444 35.41582,-58.34693 45.64491,-61.46843z" fill="url(#color-1)" stroke="#765636" stroke-width="1" stroke-linecap="round"/><path d="M298.85224,113.5779c0,0 5.48177,16.36238 6.32274,24.41851c0.01585,0.15165 -33.40628,1.44613 -65.04629,2.397c-32.3537,0.97227 -64.79297,1.46002 -65.68622,1.46002c0.5317,-9.83909 8.70573,-27.136 8.70573,-27.136z" fill="url(#color-2)" stroke="#765636" stroke-width="0" stroke-linecap="butt"/><path d="M220.06136,80.81102c12.92447,-3.94403 56.29884,0.42345 70.19169,18.41012c17.07638,17.88324 13.77273,47.32997 13.77273,47.32997c0,0 -3.53073,-36.00614 -15.46729,-47.07186c-7.73936,-7.17468 -17.14153,-11.85171 -28.02949,-14.99304c-17.04784,-4.91854 -37.05109,-3.16827 -41.56308,-1.05965c-19.38737,9.06045 -39.98755,33.51789 -42.19942,58.13794c-0.43098,4.79713 -1.83609,6.65579 -1.83609,6.65579c0,0 -0.49044,-3.97573 -0.51395,-5.9408c-0.35965,-30.10444 35.41582,-58.34693 45.64491,-61.46843z" fill="url(#color-3)" stroke="#765636" stroke-width="0" stroke-linecap="round"/><path d="M300.23641,169.84104c0,0 -4.42652,9.73388 -7.52908,14.43177c-10.99203,16.64414 -56.94226,28.26579 -73.83186,20.99665c-8.91166,-3.83553 -30.96946,-27.003 -30.96946,-27.003z" fill="url(#color-4)" stroke="#765636" stroke-width="0" stroke-linecap="round"/><path d="M297.04024,200.9204c0,11.34404 -23.70566,20.54023 -52.94808,20.54023c-29.24241,0 -52.94809,-9.19619 -52.94809,-20.54022c0,-11.34404 23.70567,-20.54022 52.9481,-20.54022c29.24241,0 52.94808,9.19618 52.94808,20.54022z" fill="url(#color-5)" stroke="none" stroke-width="0" stroke-linecap="butt"/><g stroke-width="0"><path d="M163.90867,195.41959c0,0 6.0871,-2.51082 9.31294,-2.93834c3.4887,-0.46236 10.89252,0.2605 10.89252,0.2605c0,0 12.52255,27.75222 17.77107,29.45616c6.34928,2.06128 76.64523,1.3189 83.01283,-3.40816c4.62109,-3.4305 19.7186,-32.37745 19.7186,-32.37745c0,0 4.77854,-0.69184 11.27482,1.09614c4.31324,1.18714 10.14784,4.7464 10.14784,4.7464c0,0 0.23817,19.08968 0.37857,30.91811c0.17603,14.83233 -0.37857,50.87753 -0.37857,50.87753l-162.37409,0.97375c0,0 -0.90322,-28.68552 -0.98635,-42.36134c-0.07894,-12.98558 1.2298,-37.24334 1.2298,-37.24334z" fill="url(#color-6)" stroke="#000000" stroke-linecap="round"/><path d="M225.17699,241.18696l11.65622,-0.20633l-0.20633,-15.26655l2.88827,-0.30943l0.51574,17.43274l-17.94849,0.82521l0.10315,-17.84534h3.40402z" fill="url(#color-7)" stroke="#000000" stroke-linecap="round"/><path d="M311.32291,272.73226c0,0 0.52285,-47.42544 0.6047,-54.84589c0.02081,-1.8894 -1.92638,-3.61382 -3.77867,-3.66865c-4.95137,-0.14654 -27.28001,-0.80737 -27.28001,-0.80737c0,0 1.43569,21.33304 1.1844,26.71808c-0.09273,1.98685 1.67585,4.1946 3.33637,4.29672c2.98366,0.18345 12.79522,1.06442 17.61221,1.36056c1.62831,0.10011 2.73119,-1.52508 2.81371,-3.99014c0.19059,-5.69317 0.76808,-11.42433 0.85871,-14.13188c0.04563,-1.36305 -1.16685,-2.73457 -2.90236,-2.69562c-3.16855,0.0711 -10.65685,-0.93996 -12.23433,-0.90456c-1.01215,0.02273 -2.1299,1.087 -2.10503,2.54781c0.04651,2.73095 0.11811,6.93688 0.14624,8.58828c0.02255,1.3228 1.0763,2.94129 1.87628,2.88006c1.02074,-0.07811 4.4026,-0.66687 6.16394,0.12866c0.88942,0.40169 1.36509,4.70663 0.29165,5.01325c-2.62675,0.7503 -8.56657,0.03212 -10.39246,0.12204c-1.27287,0.06268 -2.84079,-1.34237 -2.82799,-2.74881c0.02573,-2.83554 0.11967,-13.18974 0.1659,-18.28438c0.01582,-1.74302 1.25496,-2.83525 3.15892,-2.78418c5.78707,0.15528 17.81039,0.45834 20.51596,0.37315c1.24938,-0.03933 2.51137,1.07814 2.48879,2.96134c-0.0856,7.14787 -0.54489,20.64972 -0.59789,25.07525c-0.02355,1.96819 -1.32672,3.96141 -2.69608,3.92915c-3.5753,-0.08416 -19.80214,-0.46612 -27.53223,-0.64805c-2.50556,-0.05898 -4.04374,-2.18394 -3.96706,-4.32673c0.24271,-6.78179 -0.96769,-39.38755 -0.96769,-39.38755c0,0 35.83249,1.55287 40.8591,1.77071c1.13748,0.0493 2.08766,1.20382 2.08183,2.58715c-0.0286,6.8096 -0.25421,60.49672 -0.25421,60.49672" data-paper-data="{&quot;index&quot;:null}" fill="url(#color-8)" stroke="#000000" stroke-linecap="round"/><path d="M246.89017,274.94472c0,0 -0.59286,-34.73981 -0.60033,-38.18462c-0.00154,-0.69976 0.55396,-1.28236 1.21717,-1.30553c2.93072,-0.10238 23.82244,-0.83215 23.82244,-0.83215c0,0 0.69442,18.00419 0.82679,21.43527c0.0418,1.0841 -0.85778,2.15665 -2.31856,2.18259c-4.50671,0.08004 -13.96717,0.24796 -16.05159,0.28497c-0.79837,0.01418 -1.55537,-0.99615 -1.56647,-1.99183c-0.02493,-2.23884 -0.12407,-11.14273 -0.16434,-14.75877c-0.0106,-0.95267 0.72663,-1.51603 1.45492,-1.49419c2.09608,0.06289 12.19293,0.36568 12.19293,0.36568c0,0 0.06836,8.77663 0.08332,10.70185c0.00554,0.71148 -0.9104,1.41979 -1.65239,1.38612c-1.06431,-0.04836 -4.52813,0.30575 -6.05842,-0.0779c-0.62534,-0.15678 -0.34225,-2.33375 0.17679,-2.53559c1.02793,-0.39966 2.99866,-0.09658 3.59363,-0.05547c0.46628,0.03221 1.08281,-0.78489 1.09771,-1.45401c0.01864,-0.83536 0.06604,-2.96287 0.09686,-4.34432c0.01647,-0.73894 -0.63373,-1.27908 -1.22376,-1.29216c-0.91958,-0.02036 -3.69199,-0.08177 -5.53909,-0.12269c-1.01173,-0.02243 -1.72044,0.66952 -1.69567,1.35911c0.04919,1.36977 0.22778,6.34297 0.33122,9.22323c0.04478,1.24715 0.07547,2.10189 0.07547,2.10189c0,0 0.61008,-0.03091 1.55948,-0.07902c2.80861,-0.14234 8.52974,-0.57268 10.2694,-0.66087c0.96817,-0.04906 2.00218,-1.16315 1.95085,-2.16837c-0.13923,-2.72451 -0.71753,-15.02582 -0.71753,-15.02582c0,0 -13.01805,0.29955 -15.9048,0.36596c-1.07991,0.02484 -2.21744,0.89419 -2.20785,1.85c0.03766,3.7539 0.8123,35.32658 0.8123,35.32658" fill="url(#color-9)" stroke="#000000" stroke-linecap="round"/><path d="M242.11727,275.20441v-46.01859h2.34898v46.01859z" fill="url(#color-10)" stroke="none" stroke-linecap="butt"/><path d="M172.88677,273.48416c0,0 -3.59907,-50.4928 -4.05556,-56.89728c-0.09273,-1.30102 0.86531,-2.45562 2.09554,-2.58391c5.43631,-0.56689 44.18935,-4.60798 44.18935,-4.60798c0,0 3.60441,33.38836 4.29131,39.75125c0.21704,2.01044 -1.3179,4.12035 -4.03079,4.35625c-8.36966,0.72781 -25.93919,2.25558 -29.8103,2.59221c-1.48271,0.12894 -3.02008,-1.65243 -3.16863,-3.50246c-0.334,-4.15974 -1.66232,-20.70328 -2.20176,-27.42184c-0.14213,-1.7701 1.15631,-2.91229 2.51336,-2.96525c3.90559,-0.1524 22.7189,-0.8866 22.7189,-0.8866c0,0 1.2547,16.31083 1.5299,19.88869c0.10172,1.32228 -1.51044,2.75701 -2.89444,2.78968c-1.98522,0.04688 -8.38041,1.15028 -11.27525,0.63351c-1.18293,-0.21117 -0.9362,-4.29551 0.00301,-4.73747c1.85999,-0.87527 5.56337,-0.56488 6.67497,-0.56488c0.87119,0 1.91257,-1.59855 1.85434,-2.84466c-0.07269,-1.55567 -0.25783,-5.51776 -0.37807,-8.09042c-0.06429,-1.37615 -1.3427,-2.29694 -2.44149,-2.24544c-1.71256,0.08029 -6.87551,0.32229 -10.31534,0.48354c-1.88412,0.08835 -3.11299,1.46597 -2.97835,2.74506c0.26745,2.54069 1.23844,11.76499 1.8008,17.10744c0.24348,2.31321 0.41037,3.89865 0.41037,3.89865c0,0 1.13038,-0.13586 2.88959,-0.3473c5.20416,-0.62552 15.78693,-2.16081 19.0104,-2.54823c1.79398,-0.21559 3.57351,-2.42005 3.34883,-4.28258c-0.60891,-5.04818 -3.26476,-27.84731 -3.26476,-27.84731c0,0 -24.16779,2.2295 -29.52692,2.72392c-2.00483,0.18497 -4.00827,1.94751 -3.86763,3.72357c0.55234,6.97531 4.08245,51.55568 4.08245,51.55568" fill="url(#color-11)" stroke="#000000" stroke-linecap="round"/><path d="M303.69735,184.57371c0,0 -8.65462,19.28345 -12.39487,25.75188c-2.98581,5.1637 -8.2975,10.03372 -8.2975,10.03372c0,0 -24.29739,2.7456 -36.26855,3.06722c-14.66311,0.39392 -45.28364,-0.87627 -45.28364,-0.87627c0,0 -5.71213,-6.34833 -7.92415,-10.64226c-3.03889,-5.89906 -8.62974,-21.49174 -8.62974,-21.49174c0,0 13.59601,12.61962 18.76425,16.66432c3.34284,2.61615 9.96163,4.75834 9.96163,4.75834l55.99105,-1.94751c0,0 7.83524,-8.9017 13.87606,-13.38918c6.04085,-4.48749 20.20546,-11.92856 20.20546,-11.92856z" fill="url(#color-12)" stroke="#000000" stroke-linecap="round"/><path d="M230.02516,227.88032l0.2063,7.63328h4.74497v2.78512l-7.73642,0.10315l-0.10315,-9.49004z" fill="url(#color-13)" stroke="#000000" stroke-linecap="round"/><path d="M327.01311,240.69935l-1.94753,2.43441c0,0 -0.35146,-49.84701 -1.2172,-50.87886c-1.09187,-1.30143 -15.96701,-4.46697 -17.28419,-4.86876c-1.66034,-0.50648 -16.31692,33.83952 -20.2055,34.32495c-3.79438,0.47365 -83.02343,7.1767 -86.42098,3.16473c-2.07007,-2.44445 -15.62222,-26.38003 -17.52762,-30.42995c-0.58076,-1.23435 -14.42794,0.23516 -16.5539,2.92128c-3.07185,3.8812 -1.46063,46.25348 -1.46063,46.25348l-2.19093,-2.4344c0,0 -0.78653,-38.28119 0.97375,-45.27971c0.79728,-3.16985 18.04071,-5.26337 20.69236,-3.65156c1.04065,0.63255 18.74482,29.21273 18.74482,29.21273l81.30876,-1.2172l20.93579,-36.51589l22.15297,6.32941z" fill="url(#color-14)" stroke="#000000" stroke-linecap="round"/></g><path d="M304.283,158.05215l-124.30023,5.91293c0,0 -5.48086,-14.53625 -5.56629,-21.68564c-0.00217,-0.17975 -0.00117,-0.36238 0.00279,-0.54772c1.77453,0 127.0063,-3.83277 130.84585,-3.88427c0.48533,7.27384 -0.98213,20.20472 -0.98213,20.20472z" fill="url(#color-15)" stroke="#765636" stroke-width="0" stroke-linecap="butt"/><path d="M223.66831,92.25209c10.58555,-3.23028 45.6952,-0.27628 57.07392,14.45539c15.10563,19.55682 18.26399,47.51858 2.74154,71.28009c-8.90528,13.63209 -46.13221,23.15063 -59.81547,17.19695c-13.59581,-5.91564 -37.12282,-30.67125 -37.38464,-52.58776c-0.29458,-24.65654 29.00671,-47.78807 37.38464,-50.34466z" fill="url(#color-16)" stroke="#bf7d2f" stroke-width="0.5" stroke-linecap="round"/><path d="M287.87157,149.38209c0,23.33352 -19.14164,42.2491 -42.75406,42.2491c-23.6124,0 -42.75405,-18.91558 -42.75405,-42.2491c0,-23.33352 19.14164,-42.24907 42.75406,-42.24907c23.61241,0 42.75406,18.91557 42.75406,42.24907z" fill="url(#color-17)" stroke="none" stroke-width="0" stroke-linecap="butt"/><path d="M208.63898,107.8509c24.44157,-21.27899 44.17977,-6.08598 44.17977,-6.08598c0,0 -28.7025,-0.01302 -40.34783,8.79085c-11.64536,8.80388 -16.00389,33.81106 -16.00389,33.81106c0,0 -7.04351,-19.78676 12.17199,-36.51589z" fill="#0099bf" stroke="#000000" stroke-width="0" stroke-linecap="round"/><path d="M196.46701,143.33888c0,0 2.49146,-23.90465 16.22931,-32.68399c22.53329,-14.40022 40.57324,-7.66383 40.57324,-7.66383c0,0 4.59055,3.32421 2.47949,4.73354c-5.94362,3.96796 -27.08035,4.9931 -37.19216,14.65146c-10.1118,9.65837 -7.10201,30.64108 -13.07358,33.36021c-3.0264,1.37807 -5.02756,-2.7992 -6.76224,-5.18436c-1.73466,-2.38514 -2.25405,-7.21301 -2.25405,-7.21301z" fill="url(#color-18)" stroke="#000000" stroke-width="0" stroke-linecap="round"/><path d="M223.66831,92.25209c10.58555,-3.23028 45.6952,-0.27628 57.07392,14.45539c7.10808,9.20262 12.43279,31.62405 12.43279,31.62405c0,0 -6.43992,-18.57371 -17.98557,-27.63647c-15.77725,-12.38439 -40.82681,-15.98181 -49.69309,-12.60761c-26.64454,10.14006 -28.79706,25.28352 -30.67187,42.98091c-1.60862,15.1846 1.93915,28.71269 1.93915,28.71269c0,0 -10.36818,-17.82418 -10.47999,-27.18426c-0.29458,-24.65654 29.00671,-47.78807 37.38466,-50.34466z" fill="#0099bf" stroke="#bf7d2f" stroke-width="0" stroke-linecap="round"/><path d="M196.43097,220.83462c0,1.38263 -0.23941,2.59311 -0.71821,3.63142c-0.47881,1.03293 -1.13515,1.89372 -1.96903,2.58235c-0.83387,0.68324 -1.80765,1.19703 -2.92128,1.54134c-1.11363,0.33893 -2.31066,0.5084 -3.59107,0.5084c-0.49496,0 -1.03832,-0.06725 -1.6301,-0.20174c-0.59178,-0.12913 -1.19164,-0.29052 -1.79958,-0.48419c-0.60255,-0.19905 -1.18357,-0.41156 -1.74309,-0.63752c-0.5595,-0.22596 -1.05445,-0.44114 -1.48484,-0.64559l0.66173,-6.22991c0.86078,0.51647 1.81302,0.90921 2.85672,1.17821c1.04369,0.26361 2.06857,0.39541 3.0746,0.39541c0.19367,0 0.425,-0.00807 0.694,-0.0242c0.27436,-0.01615 0.53529,-0.06186 0.78277,-0.13719c0.24747,-0.07532 0.45729,-0.18829 0.62945,-0.33893c0.17216,-0.15064 0.25824,-0.36853 0.25824,-0.65366c0,-0.18829 -0.06186,-0.34969 -0.18561,-0.48419c-0.11836,-0.13987 -0.27437,-0.25285 -0.46805,-0.33893c-0.19367,-0.08609 -0.41156,-0.15064 -0.65366,-0.19367c-0.24209,-0.04842 -0.47881,-0.08069 -0.71015,-0.09684c-0.23133,-0.02151 -0.44922,-0.03228 -0.65365,-0.03228c-0.19905,0 -0.35777,0 -0.47613,0c-0.87154,0 -1.66239,-0.15064 -2.37252,-0.45191c-0.71015,-0.30666 -1.32076,-0.72898 -1.83185,-1.26697c-0.50571,-0.53799 -0.90113,-1.1782 -1.18627,-1.92061c-0.27975,-0.74242 -0.41963,-1.54673 -0.41963,-2.41288c0,-1.18895 0.23941,-2.25417 0.71821,-3.19566c0.47881,-0.94686 1.11901,-1.75114 1.92061,-2.41287c0.80161,-0.66173 1.72156,-1.16745 2.75988,-1.51713c1.03832,-0.35508 2.1116,-0.5326 3.21987,-0.5326c0.49496,0 1.00335,0.01883 1.52519,0.0565c0.52723,0.03228 1.04908,0.09414 1.56556,0.18561c0.52185,0.09146 1.03024,0.20982 1.52519,0.35508c0.49496,0.13987 0.96569,0.31471 1.41222,0.52453l-0.58103,6.14113c-0.68324,-0.23133 -1.40146,-0.425 -2.15463,-0.58103c-0.7478,-0.15601 -1.48216,-0.23402 -2.20307,-0.23402c-0.12913,0 -0.29858,0.00269 -0.50839,0.00807c-0.20444,0.00538 -0.41963,0.02151 -0.64559,0.04841c-0.22596,0.02151 -0.45462,0.05918 -0.68594,0.11297c-0.23133,0.04842 -0.43846,0.11567 -0.62138,0.20174c-0.18291,0.08609 -0.33086,0.19906 -0.44383,0.33893c-0.1076,0.13987 -0.15602,0.30665 -0.14526,0.50033c0.01076,0.22058 0.09415,0.4008 0.25017,0.54069c0.15601,0.13449 0.35776,0.23941 0.60523,0.31471c0.24747,0.07532 0.51916,0.12912 0.81505,0.16139c0.2959,0.0269 0.58909,0.04305 0.87961,0.04842c0.2959,0.00538 0.57027,0.00538 0.82312,0c0.25285,-0.00538 0.45999,0.00269 0.62138,0.0242c0.80699,0.04842 1.53327,0.22058 2.17886,0.51648c0.64559,0.29051 1.19164,0.67786 1.63817,1.16205c0.45191,0.48419 0.79623,1.06253 1.03293,1.73501c0.23672,0.66711 0.35508,1.40414 0.35508,2.21113zM216.23432,227.58906l-7.50493,0.96839l-0.90382,-3.42161h-3.45388l-0.75857,3.42161l-7.71474,-0.75857l6.02009,-20.15842l8.41682,-0.41963zM207.27681,220.50375l-1.14592,-5.26152l-1.12171,5.26152zM235.3336,221.23005c0,1.14054 -0.01345,2.26763 -0.04035,3.38125c-0.0269,1.11363 -0.06454,2.23533 -0.11297,3.36511l-8.7154,-0.14526c0.30128,-1.78612 0.56219,-3.56955 0.78277,-5.3503c0.22596,-1.78074 0.33893,-3.58032 0.33893,-5.39872c0,-0.12913 -0.00539,-0.33893 -0.01615,-0.62945c-0.01076,-0.2959 -0.03228,-0.62676 -0.06454,-0.99258c-0.0269,-0.37121 -0.06994,-0.7505 -0.12913,-1.13785c-0.05379,-0.38735 -0.12913,-0.74242 -0.22596,-1.06523c-0.09684,-0.32279 -0.2125,-0.58641 -0.347,-0.79084c-0.13449,-0.20982 -0.29858,-0.31471 -0.49225,-0.31471c-0.34431,0 -0.63481,0.10221 -0.87153,0.30666c-0.23672,0.19905 -0.43308,0.45729 -0.58909,0.7747c-0.15601,0.31742 -0.27975,0.67517 -0.37121,1.07327c-0.09146,0.39273 -0.16139,0.78547 -0.20982,1.17821c-0.04304,0.39273 -0.07263,0.76394 -0.08877,1.11363c-0.01076,0.34431 -0.01615,0.62675 -0.01615,0.84734c-0.05379,1.78612 -0.09685,3.56149 -0.12913,5.32608c-0.0269,1.75923 -0.06454,3.53457 -0.11297,5.32608l-7.71474,0.33893c0.19905,-3.56149 0.39004,-7.10146 0.57295,-10.61989c0.18829,-3.52382 0.33893,-7.06648 0.45191,-10.62795l7.1418,-0.36314l-0.0565,2.42096c0.27975,-0.34431 0.58371,-0.66711 0.91189,-0.96839c0.32818,-0.30128 0.67787,-0.55951 1.04908,-0.7747c0.3766,-0.22058 0.77201,-0.39273 1.18627,-0.51647c0.41963,-0.12913 0.86347,-0.19367 1.33153,-0.19367c0.85541,0 1.6059,0.14256 2.25148,0.4277c0.64559,0.27975 1.19972,0.66173 1.66239,1.14593c0.46267,0.48419 0.85003,1.05715 1.16206,1.71887c0.31742,0.66173 0.57027,1.3665 0.75857,2.11429c0.19367,0.7478 0.33893,1.52789 0.43577,2.34025c0.10221,0.80699 0.17216,1.6059 0.20982,2.39674c0.03767,0.78545 0.0565,1.54672 0.0565,2.28376c0,0.73705 0,1.40684 0,2.00939zM253.89518,216.87233c0,1.4149 -0.18291,2.68188 -0.54875,3.8009c-0.36045,1.11901 -0.86616,2.1116 -1.51712,2.97776c-0.65096,0.86078 -1.42567,1.59513 -2.32411,2.20306c-0.89844,0.60255 -1.88295,1.0975 -2.95356,1.48485c-1.06523,0.38735 -2.20037,0.67248 -3.40546,0.85541c-1.20509,0.17754 -2.44247,0.2663 -3.71212,0.2663c-0.47881,0 -0.94416,-0.01076 -1.39608,-0.03228c-0.45191,-0.0269 -0.91458,-0.06454 -1.38802,-0.11297l0.41963,-19.70651c1.10826,-0.34969 2.2488,-0.59717 3.42161,-0.74242c1.1782,-0.15064 2.34832,-0.22596 3.51038,-0.22596c1.44181,0 2.76795,0.20174 3.97842,0.60523c1.21047,0.40349 2.25417,0.99797 3.13109,1.78344c0.87692,0.78009 1.56017,1.74309 2.04974,2.889c0.48957,1.14592 0.73435,2.46398 0.73435,3.95422zM243.60617,222.68262c0.60793,-0.09146 1.15936,-0.27437 1.65431,-0.54874c0.50033,-0.27975 0.93072,-0.62407 1.29116,-1.03293c0.36583,-0.40887 0.64559,-0.87154 0.83926,-1.38801c0.19905,-0.52185 0.29858,-1.07598 0.29858,-1.66239c0,-0.57027 -0.06186,-1.10558 -0.18561,-1.6059c-0.11836,-0.50033 -0.31471,-0.93341 -0.58909,-1.29925c-0.26899,-0.37121 -0.62676,-0.66441 -1.07328,-0.87961c-0.44115,-0.22058 -0.98452,-0.33893 -1.6301,-0.35508zM272.44471,223.49766c0,0.83926 -0.15332,1.56285 -0.45999,2.17078c-0.30665,0.60255 -0.71822,1.11633 -1.23468,1.54134c-0.51109,0.425 -1.10287,0.77201 -1.77535,1.04101c-0.67248,0.26361 -1.37187,0.47074 -2.09815,0.62138c-0.72629,0.15064 -1.45525,0.25016 -2.18694,0.29858c-0.73166,0.05379 -1.4149,0.0807 -2.04974,0.0807c-0.62407,0 -1.27233,-0.0242 -1.94482,-0.07263c-0.6671,-0.04304 -1.33421,-0.12104 -2.00132,-0.23402c-0.6671,-0.1076 -1.32345,-0.25555 -1.96904,-0.44383c-0.64559,-0.18829 -1.2562,-0.42233 -1.83185,-0.70208l-0.03228,-19.48863c0.56488,-0.23133 1.16474,-0.44115 1.79957,-0.62945c0.6402,-0.18829 1.28849,-0.34432 1.94483,-0.46805c0.66173,-0.12374 1.32077,-0.21789 1.97712,-0.28245c0.65635,-0.06994 1.29116,-0.1049 1.90447,-0.1049c0.72091,0 1.44449,0.04573 2.17079,0.13719c0.73166,0.09146 1.43643,0.24478 2.11429,0.45999c0.67786,0.20982 1.30731,0.48419 1.88833,0.82312c0.58641,0.33354 1.0975,0.7478 1.53327,1.24275c0.44115,0.49496 0.78545,1.07059 1.03293,1.72694c0.24748,0.65635 0.37122,1.41222 0.37122,2.26763c0,0.56488 -0.0807,1.09481 -0.24209,1.58976c-0.16139,0.49496 -0.39272,0.9388 -0.694,1.33153c-0.30128,0.39273 -0.66979,0.72898 -1.10557,1.00873c-0.43578,0.27436 -0.92533,0.47881 -1.46871,0.6133c0.65635,0.17216 1.25351,0.42502 1.79149,0.75856c0.54337,0.32818 1.00335,0.73166 1.37995,1.21047c0.3766,0.47342 0.6671,1.00873 0.87154,1.6059c0.20982,0.59178 0.31471,1.22393 0.31471,1.89641zM264.76222,214.8791c0,-0.2959 -0.06186,-0.54606 -0.18561,-0.7505c-0.11836,-0.20982 -0.26631,-0.37928 -0.44384,-0.5084c-0.17754,-0.12913 -0.37121,-0.22325 -0.58103,-0.28244c-0.20443,-0.06454 -0.38736,-0.09685 -0.54874,-0.09685c-0.19906,0 -0.39541,0.03228 -0.58909,0.09685c-0.19367,0.05918 -0.37929,0.12912 -0.55683,0.20982l-0.09685,3.35705c0.23672,0 0.52453,-0.01883 0.86347,-0.05649c0.34431,-0.04304 0.67517,-0.13181 0.99258,-0.26631c0.31742,-0.13987 0.58641,-0.34162 0.807,-0.60523c0.22596,-0.26899 0.33893,-0.63482 0.33893,-1.0975zM262.60759,219.80976c-0.29052,0 -0.57296,0.02958 -0.84734,0.08876l-0.05649,3.45389c0.15064,0.0269 0.29858,0.05379 0.44384,0.08069c0.14527,0.0269 0.29051,0.04034 0.43577,0.04034c0.20982,0 0.44115,-0.02151 0.69401,-0.06454c0.25285,-0.04842 0.48957,-0.13987 0.71015,-0.27436c0.22058,-0.13987 0.40349,-0.32549 0.54874,-0.55683c0.15064,-0.23133 0.22596,-0.53799 0.22596,-0.91995c0,-0.38735 -0.07532,-0.70207 -0.22596,-0.94416c-0.14527,-0.24209 -0.32279,-0.43039 -0.5326,-0.56488c-0.20982,-0.13449 -0.44115,-0.22326 -0.69401,-0.26631c-0.25285,-0.04842 -0.48688,-0.07263 -0.70207,-0.07263zM291.60046,217.30004c0,0.91458 -0.1076,1.79957 -0.32279,2.65497c-0.20982,0.85002 -0.51377,1.64893 -0.91188,2.39674c-0.39811,0.7478 -0.8823,1.43105 -1.45257,2.04974c-0.57027,0.61869 -1.21047,1.15129 -1.92061,1.59782c-0.71015,0.44115 -1.48485,0.78545 -2.32411,1.03293c-0.83388,0.24747 -1.72157,0.37121 -2.66305,0.37121c-0.90382,0 -1.76729,-0.11567 -2.59041,-0.347c-0.82312,-0.23133 -1.59245,-0.55682 -2.30798,-0.97645c-0.71553,-0.41963 -1.36379,-0.92265 -1.94482,-1.50907c-0.58103,-0.59178 -1.07599,-1.24814 -1.48485,-1.96903c-0.40888,-0.72091 -0.72629,-1.49562 -0.95224,-2.32411c-0.22596,-0.8285 -0.33893,-1.69197 -0.33893,-2.59041c0,-0.87692 0.10492,-1.73501 0.31471,-2.57427c0.21521,-0.84464 0.52185,-1.63817 0.91996,-2.3806c0.39811,-0.7478 0.8796,-1.43373 1.44449,-2.05781c0.56488,-0.62945 1.19702,-1.17013 1.89641,-1.62204c0.6994,-0.45729 1.45795,-0.80967 2.27568,-1.05714c0.81775,-0.25285 1.68121,-0.37929 2.59042,-0.37929c1.46334,0 2.79754,0.22596 4.00263,0.67787c1.20509,0.45191 2.23265,1.10019 3.08267,1.94482c0.85541,0.84464 1.51712,1.86413 1.98517,3.05847c0.46805,1.19433 0.70208,2.52855 0.70208,4.00263zM284.88636,217.68738c0,-0.4304 -0.06455,-0.85003 -0.19367,-1.2589c-0.12373,-0.40887 -0.30665,-0.77201 -0.54874,-1.08943c-0.24209,-0.31742 -0.54337,-0.57295 -0.90382,-0.76663c-0.35508,-0.19905 -0.76663,-0.29858 -1.23468,-0.29858c-0.47343,0 -0.89576,0.08608 -1.26697,0.25823c-0.37121,0.16678 -0.69131,0.4008 -0.96032,0.70208c-0.26899,0.2959 -0.47342,0.64289 -0.6133,1.04101c-0.13987,0.39812 -0.20982,0.82044 -0.20982,1.26697c0,0.41963 0.05918,0.84195 0.17754,1.26697c0.12374,0.425 0.30665,0.80968 0.54874,1.15399c0.24209,0.33893 0.54068,0.616 0.89576,0.83119c0.36045,0.20982 0.77739,0.31471 1.25082,0.31471c0.47342,0 0.89844,-0.09146 1.27503,-0.27437c0.38198,-0.18829 0.70207,-0.44115 0.96031,-0.75857c0.2636,-0.31742 0.46537,-0.68324 0.60523,-1.09749c0.14527,-0.41425 0.21788,-0.84464 0.21788,-1.29116zM309.89172,208.27798l-5.89904,9.65151l5.32608,8.62665l-6.32676,1.96903l-3.02619,-5.87483l-3.20372,6.2057l-6.53657,-2.35639l5.56819,-8.77998l-5.08399,-8.62664l6.93198,-1.66239l2.47744,5.47942l2.63076,-5.47941z" fill="#ffffff" stroke="#000000" stroke-width="0.5" stroke-linecap="square"/><g><path d="M226.33621,173.63786l-20.91741,-51.29746c0,0 22.73275,-4.4823 35.11137,-4.4823c10.93162,0 20.17036,11.20577 20.17036,11.20577l17.43117,37.10351z" fill="#9b4b20" stroke="none" stroke-width="0" stroke-linecap="butt"/><path d="M202.2316,130.01214l17.38116,48.35705l-0.99605,13.94493l-14.94101,-38.09956z" fill="#9b4b20" stroke="#a45e18" stroke-width="2.5" stroke-linecap="round"/><path d="M220.11079,180.61035l62.00519,-17.43117l-3.23722,18.92527l-59.01697,13.19789z" fill="#c16f1e" stroke="#b66419" stroke-width="2.5" stroke-linecap="round"/><path d="M209.65211,127.56977l16.18609,43.82696l49.55434,-12.45084l-23.9056,-40.58974l-39.09564,7.22148l-8.46658,-3.98427l54.28566,-8.21757l24.40364,49.55434l-61.00911,15.93707l-19.17429,-56.2778z" fill="#e0872f" stroke="#e0872f" stroke-width="2.5" stroke-linecap="round"/><path d="M209.78985,129.69208c0.36786,-0.85831 1.22615,-0.49045 1.22615,-0.49045l0.0265,0.01136c1.82243,0.98192 2.60343,-0.47811 4.65842,-0.81706c2.72123,-0.44882 4.18236,0.27219 6.44829,1.27615c0.49038,0.21728 1.04957,-0.23142 1.58273,-0.28994c1.77769,-0.19515 3.29482,-0.75297 4.99663,-1.43431c0.77377,-0.30706 1.65374,-0.32713 2.39636,-0.70333c1.47507,-0.74728 3.23176,-2.14722 4.95739,-2.57568c1.25469,-0.31153 3.01479,-0.02634 4.32333,-0.02497c0.88719,0.00093 3.35282,-0.16216 4.07424,0.57923c1.19991,1.2331 -0.56156,3.22102 -1.18268,4.11286c-0.33974,0.48781 -0.49959,1.14282 -0.98404,1.48735c-1.65827,1.17925 -4.99519,0.17537 -6.87745,0.16351c-1.65268,-0.40262 -3.7118,-1.09742 -5.43669,-0.7569c-3.04914,0.60195 -3.33875,3.20635 -3.73784,5.71129c-0.21683,1.36097 -1.09024,2.52492 -1.23687,3.92247c-0.28772,2.74237 3.32198,4.12264 3.31093,6.89031c-0.03168,0.81479 -0.6746,1.99003 0.05928,2.04689c2.64995,0.2053 5.42533,0.52611 7.92846,1.29569c1.17194,0.3603 3.00545,-0.19114 4.19981,0.08597c1.68781,0.39162 4.03047,0.43838 5.4145,1.89359c0.65633,0.69009 0.38566,3.99883 2.1013,2.82c0.34389,-0.2363 0.5761,-0.60375 0.86414,-0.90562c1.49567,-1.00195 3.30189,-2.63469 4.94219,-3.36754c3.67801,-1.64324 11.63646,-1.10712 13.86207,2.58182c0.97401,1.61443 0.97099,3.6192 1.37177,5.47813l0.33169,0.44226c0.12068,0.15733 0.19242,0.35421 0.19242,0.56784c0,0.51573 -0.41809,0.9338 -0.93381,0.9338h-0.99605c-3.80244,0 -7.81493,1.50524 -11.5897,1.91123c-3.16929,0.34086 -6.33157,1.23405 -9.22775,2.38914c-2.35646,0.93983 -0.5488,0.57498 -2.90463,1.46619c-3.14819,0.62905 -7.46588,2.61832 -10.53706,3.59663c-1.87569,0.59749 -5.7444,1.06505 -7.88795,0.84436c-1.60766,-0.16551 -2.05599,-0.78932 -2.56317,-2.12271c-0.93387,-2.4552 -1.2363,-5.22329 -2.22887,-7.68584c-0.54719,-1.35757 -1.0519,-1.93405 -1.0519,-3.45986c-1.19495,-4.64596 -2.53127,-9.19685 -3.94955,-13.78305c-0.42301,-1.36785 -0.57494,-2.91021 -1.13111,-4.23332c-1.03577,-2.46405 -2.4933,-5.22254 -2.8258,-7.95317c-0.49741,-0.17751 -0.97211,-0.48477 -1.46875,-0.66674l-0.0265,-0.01136c0,0 -0.85831,-0.36786 -0.49046,-1.22615z" fill="#ffdb55" stroke="none" stroke-width="0.5" stroke-linecap="butt"/><path d="M224.84211,146.94305l2.24116,-15.68806l4.98034,0.24902l9.46264,0.49803l1.66938,7.38743l5.51525,2.04745l3.52311,-5.45061l10.20969,3.23722v9.21362l-14.19396,5.72739l-5.9764,-3.98427z" fill="#dce8f3" stroke="#dce8f3" stroke-width="2.5" stroke-linecap="round"/><path d="M242.77132,130.55797l5.22935,-20.17036l-7.22148,-11.20576l1.74312,-8.21757l26.39577,7.22148l-2.98819,7.22148l-13.94493,6.22543l-9.21362,22.26029z" fill="#57b1ff" stroke="#56b0fe" stroke-width="2.5" stroke-linecap="round"/><path d="M250.65508,101.66317c-1.0444,-1.21184 -2.05784,-3.1569 -1.40777,-4.53777c0.46789,-0.99389 3.89809,-0.11585 4.72977,-0.12246c1.31864,0.00831 3.91681,0.25894 4.89359,1.26958c1.00066,1.03534 1.30192,4.74088 0.35201,5.92954c-1.17812,1.47424 -4.39381,3.95137 -6.35772,2.15772c-0.13643,-0.12461 -1.91499,-3.34794 -2.01492,-3.64542c-0.10926,-0.32521 -0.15037,-0.68992 -0.19495,-1.05119z" fill="#285277" stroke="none" stroke-width="0.5" stroke-linecap="butt"/><path d="M243.02035,139.52258l9.46264,-26.14677l15.19002,-7.22148l1.99215,-8.46659l3.48623,0.99606l-0.49804,6.72345l-13.44691,7.96854l-8.46658,24.15463l-3.48623,3.73525z" fill="#4697de" stroke="#4697de" stroke-width="2.5" stroke-linecap="round"/></g></g></g></svg>