<svg version="1.1" xmlns="http://www.w3.org/2000/svg" xmlns:xlink="http://www.w3.org/1999/xlink" width="41.39966" height="12.44683" viewBox="0,0,41.39966,12.44683"><defs><radialGradient cx="256.66775" cy="179.85134" r="3.07914" gradientUnits="userSpaceOnUse" id="color-1"><stop offset="0" stop-color="#c452f7"/><stop offset="1" stop-color="#c452f7" stop-opacity="0"/></radialGradient><linearGradient x1="242.12288" y1="180.00532" x2="245.68023" y2="180.00532" gradientUnits="userSpaceOnUse" id="color-2"><stop offset="0" stop-color="#ce79f9"/><stop offset="1" stop-color="#bf5cec"/></linearGradient></defs><g transform="translate(-221.63349,-173.77659)"><g data-paper-data="{&quot;isPaintingLayer&quot;:true}" fill-rule="nonzero" stroke-linejoin="miter" stroke-miterlimit="10" stroke-dasharray="" stroke-dashoffset="0" style="mix-blend-mode: normal"><path d="M227.35521,182.03841c0,0 -1.3173,-0.39381 -2.54672,-0.66874c-1.22942,-0.27494 -3.17499,-0.61078 -3.17499,-0.61078c0,0 1.64563,-2.3131 2.75135,-2.39078c1.10572,-0.07768 1.59836,2.08518 1.59836,2.08518l0.65995,-0.4011z" fill="#b077ec" stroke="#000000" stroke-width="0" stroke-linecap="round"/><path d="M244.29904,182.73193c0,0 -1.05696,2.20787 -3.28326,2.24849c-3.35304,0.06118 -2.90679,-1.55537 -5.02943,-1.60917c-2.12263,-0.05381 -3.15679,1.19365 -4.9285,1.09258c-1.7717,-0.10107 -3.69236,-1.75379 -3.69236,-1.75379l-1.24659,-3.7868c0,0 2.14766,-2.16458 4.42826,-1.57802c2.28059,0.58656 0.8712,3.10236 2.58233,2.81304c1.71446,-0.28987 0.2627,-1.24819 0.95019,-2.14046c0.45595,-0.59177 3.13431,-0.80957 3.13431,-0.80957c0,0 2.07036,-2.0709 3.33536,-1.934c2.31471,0.25049 4.04676,1.71046 4.04676,1.71046z" fill="#f464fe" stroke="#9bf072" stroke-width="0" stroke-linecap="round"/><path d="M257.82727,175.57872c0,0 2.04302,0.81891 3.0029,1.50026c0.66326,0.47081 2.20297,2.19499 2.20297,2.19499c0,0 -1.29066,2.01582 -2.1457,2.78691c-0.90619,0.81723 -3.14695,1.98612 -3.14695,1.98612z" fill="#a333db" stroke="#000000" stroke-width="0" stroke-linecap="round"/><path d="M248.14518,183.01472l-2.96198,3.2087h-2.52772l1.1957,-3.2087z" data-paper-data="{&quot;index&quot;:null}" fill="#8d32b9" stroke="none" stroke-width="0" stroke-linecap="butt"/><path d="M247.09154,180.00337c0,1.17341 -1.54454,2.12465 -3.44982,2.12465c-1.90528,0 -3.44983,-2.12465 -3.44983,-2.12465c0,0 1.54454,-2.12465 3.44983,-2.12465c1.90528,0 3.44982,0.95124 3.44982,2.12465z" fill="#f8fef2" stroke="#9bf072" stroke-width="0.5" stroke-linecap="butt"/><path d="M243.85117,176.98529l-1.1957,-3.2087h2.52772l2.96198,3.2087z" fill="#8d32b9" stroke="none" stroke-width="0" stroke-linecap="butt"/><path d="M247.35176,183.27708v-6.71863l10.47937,-0.90731v8.3683z" fill="#1d212d" stroke="#000000" stroke-width="0" stroke-linecap="butt"/><path d="M247.35176,182.12365v-4.46705l10.47937,-0.60325v5.56387z" fill="#222735" stroke="#000000" stroke-width="0" stroke-linecap="butt"/><path d="M243.72625,183.27707v-6.55366l4.00101,-0.16497v6.71863z" fill="#a54fce" stroke="#000000" stroke-width="0" stroke-linecap="butt"/><path d="M243.72625,181.80584v-3.61121h4.00101v3.61121z" fill="#be54f3" stroke="#000000" stroke-width="0" stroke-linecap="butt"/><path d="M257.82727,177.1184c0,0 2.04302,0.52113 3.0029,0.95471c0.66328,0.2996 2.20297,1.3968 2.20297,1.3968c0,0 -1.29064,1.28279 -2.1457,1.7735c-0.90619,0.52006 -3.14695,1.26389 -3.14695,1.26389z" fill="#bc3bfe" stroke="#000000" stroke-width="0" stroke-linecap="round"/><path d="M256.7861,175.88665l-0.26029,7.92939z" fill="none" stroke="#9b43c9" stroke-width="0.5" stroke-linecap="round"/><path d="M256.78746,177.1193l-0.23944,5.46408z" fill="none" stroke="url(#color-1)" stroke-width="0.5" stroke-linecap="round"/><path d="M242.12288,180.35175v-0.69286h3.55736v0.69286z" fill="url(#color-2)" stroke="none" stroke-width="0" stroke-linecap="butt"/></g></g></svg>