<svg version="1.1" xmlns="http://www.w3.org/2000/svg" xmlns:xlink="http://www.w3.org/1999/xlink" width="552.85598" height="546.90736" viewBox="0,0,552.85598,546.90736"><defs><radialGradient cx="248.11576" cy="149.9626" r="229.70601" gradientUnits="userSpaceOnUse" id="color-1"><stop offset="0" stop-color="#93d708"/><stop offset="1" stop-color="#739e06"/></radialGradient><linearGradient x1="236.24026" y1="-2.87509" x2="329.20571" y2="-2.87509" gradientUnits="userSpaceOnUse" id="color-2"><stop offset="0" stop-color="#9c9c9c"/><stop offset="1" stop-color="#535353"/></linearGradient><linearGradient x1="162.14607" y1="30.897" x2="255.11149" y2="30.897" gradientUnits="userSpaceOnUse" id="color-3"><stop offset="0" stop-color="#484848"/><stop offset="1" stop-color="#9c9c9c"/></linearGradient></defs><g transform="translate(31.42799,88.45368)"><g data-paper-data="{&quot;isPaintingLayer&quot;:true}" fill-rule="nonzero" stroke-linejoin="miter" stroke-miterlimit="10" stroke-dasharray="" stroke-dashoffset="0" style="mix-blend-mode: normal"><g data-paper-data="{&quot;index&quot;:null}"><path d="M361.35516,304.75063l23.8121,126.69605l-105.96379,-65.78449l78.57988,-75.53033z" data-paper-data="{&quot;index&quot;:null}" fill="#cd5a1d" stroke="#cd5a1d" stroke-width="0" stroke-linecap="round"/><path d="M133.07226,287.33767l78.57991,75.53033l-105.96379,65.78449l23.8121,-126.69605z" fill="#cd5a1d" stroke="#cd5a1d" stroke-width="0" stroke-linecap="round"/><path d="M396.16585,237.37703c-4.19722,-2.143 -8.2249,-5.04405 -12.41341,-7.55111c-10.77555,-0.48011 -18.65014,-5.55095 -25.29492,-14.28225c-1.71612,-2.07226 -4.63179,-3.55254 -5.14835,-6.21678c-0.72203,-3.72384 0.41215,-7.70952 1.76257,-11.24555c0.74851,-1.95997 3.1797,-2.77192 4.27171,-4.55507c1.15159,-1.88042 1.36048,-4.23023 2.32554,-6.21752c4.33654,-8.92989 10.3491,-17.0534 14.6905,-25.96329c6.20368,-12.73184 10.00483,-25.41755 14.40515,-38.92773c2.4146,-7.41356 3.81054,-24.88079 14.30541,-25.76914c3.61296,-0.30581 6.47971,3.38047 9.45369,5.50182c7.91559,5.64628 15.02427,12.1282 23.4872,17.33243c7.4893,5.72872 15.33942,10.90848 22.88751,16.52989c22.17681,16.51614 46.65634,40.09447 55.4497,67.06988c5.57131,17.09111 4.95122,37.42604 -8.04551,51.02353c-10.89749,10.43266 -24.09912,6.94984 -37.79314,5.78195c-19.93694,-1.70029 -40.57806,-8.89186 -59.19214,-16.82434c-4.96609,-2.11632 -10.338,-3.22902 -15.15159,-5.6867z" data-paper-data="{&quot;index&quot;:null}" fill="#cd5a1d" stroke="#56300a" stroke-width="3.5" stroke-linecap="butt"/><path d="M106.24765,226.76477c-4.18851,2.50706 -8.21619,5.40809 -12.41341,7.55109c-4.81359,2.45768 -10.1855,3.57041 -15.15159,5.68672c-18.61408,7.93246 -39.25519,15.12405 -59.19213,16.82434c-13.69404,1.16788 -26.89565,4.65068 -37.79314,-5.78198c-12.99673,-13.59749 -13.61685,-33.93242 -8.04552,-51.02353c8.79336,-26.9754 33.27288,-50.55373 55.44972,-67.06987c7.54808,-5.62141 15.39821,-10.80116 22.8875,-16.52988c8.4629,-5.20423 15.57162,-11.68615 23.48721,-17.33241c2.97395,-2.12135 5.84073,-5.80763 9.45369,-5.50182c10.49486,0.88835 11.89078,18.35559 14.3054,25.76914c4.4003,13.51021 8.20147,26.19592 14.40515,38.92776c4.3414,8.9099 10.35397,17.0334 14.69051,25.96329c0.96506,1.98729 1.17395,4.3371 2.32553,6.21752c1.09202,1.78315 3.5232,2.5951 4.27172,4.55507c1.35041,3.53603 2.4846,7.5217 1.76257,11.24553c-0.51659,2.66424 -3.43225,4.14452 -5.14835,6.21678c-6.64478,8.73129 -14.51937,13.80216 -25.29493,14.28224z" fill="#cd5a1d" stroke="#56300a" stroke-width="3.5" stroke-linecap="butt"/><path d="M431.74706,117.85009c0,39.48808 -28.00996,87.7611 -45.07869,120.15836c-35.28882,66.97993 -69.3955,146.99024 -144.79425,146.99024c-78.57823,0 -101.22402,-85.32507 -134.40097,-156.94102c-14.0555,-30.34025 -42.98861,-91.92652 -42.98861,-127.97192c0,-121.12789 68.25873,-185.15925 180.12683,-185.15925c111.86808,0 187.13567,81.79571 187.13567,202.92363z" fill="url(#color-1)" stroke="none" stroke-width="0" stroke-linecap="butt"/><path d="M410.73963,9.45799c0,9.80181 8.22528,36.86834 3.66112,45.76027c-19.78154,38.53844 -103.15145,85.60101 -173.26963,85.60101c-60.12815,0 -143.04042,-49.93119 -169.16684,-80.09613c-11.37043,-13.12804 2.22933,-35.41077 2.22933,-51.26514c0,-52.28379 84.64761,-93.20046 170.94403,-93.20046c86.29644,0 165.60202,40.91667 165.60202,93.20046z" fill="#cd5a1d" stroke="none" stroke-width="0" stroke-linecap="butt"/><path d="M244.32975,88.51847c-74.86399,0 -135.55325,-35.28405 -135.55325,-78.80913c0,-43.52506 60.68926,-78.80909 135.55326,-78.80909c74.86399,0 135.55325,35.28404 135.55325,78.8091c0,43.52508 -60.68926,78.80913 -135.55325,78.80913z" fill="#172820" stroke="none" stroke-width="0" stroke-linecap="butt"/><path d="M134.7534,158.3296c-25.58153,0 -46.31947,-23.79117 -46.31947,-53.13903c0,-29.34789 20.73794,-53.13904 46.31947,-53.13904c25.58155,0 46.31948,23.79117 46.31948,53.13904c0,29.34789 -20.73795,53.13903 -46.31948,53.13903z" fill="#172921" stroke="none" stroke-width="0" stroke-linecap="butt"/><path d="M130.41616,148.57025c-18.84992,0 -34.13081,-20.09094 -34.13081,-44.8744c0,-24.78346 15.28089,-44.87441 34.13082,-44.87441c18.84992,0 34.13081,20.09095 34.13081,44.87441c0,24.78344 -15.28089,44.8744 -34.13081,44.8744z" fill="#ffffff" stroke="none" stroke-width="0" stroke-linecap="butt"/><path d="M357.19779,162.82348c-25.58153,0 -46.31948,-23.79117 -46.31948,-53.13903c0,-29.34789 20.73795,-53.13903 46.31948,-53.13903c25.58155,0 46.31948,23.79117 46.31948,53.13904c0,29.34789 -20.73795,53.13903 -46.31948,53.13903z" fill="#172921" stroke="none" stroke-width="0" stroke-linecap="butt"/><path d="M362.45168,153.33646c-18.84992,0 -34.13081,-20.09094 -34.13081,-44.8744c0,-24.78343 15.28089,-44.87441 34.13081,-44.87441c18.84992,0 34.13081,20.09095 34.13081,44.87441c0,24.78346 -15.28089,44.8744 -34.13081,44.8744z" fill="#ffffff" stroke="none" stroke-width="0" stroke-linecap="butt"/><path d="M408.62281,-1.68164c0,9.12574 8.22528,34.3254 3.66112,42.60401c-6.34751,11.51332 -6.15193,-16.04845 -17.29302,-44.87419c-6.5976,-17.07015 -19.89838,-32.90901 -33.46921,-45.8934c-34.93016,-33.42072 -101.65519,-27.25436 -135.94981,-27.25436c-19.31402,0 -33.17776,3.96604 -48.36149,6.5708c-12.69858,2.17845 -26.8254,1.07944 -41.01443,18.11184c-6.23837,7.48853 -23.16113,13.77563 -29.99612,24.77808c-16.89986,27.20411 -28.72253,81.88802 -36.35238,73.68641c-11.37043,-12.22252 2.22933,-32.96833 2.22933,-47.72918c0,-48.67755 84.64761,-86.77203 170.94403,-86.77203c86.29645,0 165.60202,38.09448 165.60202,86.77204z" fill="#bc2f2a" stroke="none" stroke-width="0" stroke-linecap="butt"/><path d="M289.63024,12.10379c-25.38313,12.25453 -49.05272,15.48252 -52.8675,7.20992c-3.81476,-8.2726 13.66985,-24.91313 39.05298,-37.16766c25.38313,-12.25453 49.05271,-15.48252 52.86749,-7.20992c3.81476,8.2726 -13.66984,24.91314 -39.05297,37.16767z" fill="url(#color-2)" stroke="none" stroke-width="0" stroke-linecap="butt"/><path d="M215.53603,45.87587c-25.38313,12.25453 -49.05271,15.48252 -52.8675,7.20992c-3.81476,-8.2726 13.66985,-24.91313 39.05298,-37.16766c25.38313,-12.25453 49.05271,-15.48252 52.8675,-7.20992c3.81476,8.2726 -13.66985,24.91313 -39.05298,37.16767z" fill="url(#color-3)" stroke="none" stroke-width="0" stroke-linecap="butt"/><path d="M243.25687,47.06838c-18.21354,0 -32.97853,-14.61226 -32.97853,-32.63739c0,-18.02516 14.765,-32.63742 32.97853,-32.63742c18.21353,0 32.97854,14.61228 32.97854,32.63742c0,18.02513 -14.765,32.6374 -32.97854,32.6374z" fill="#9c9c9c" stroke="none" stroke-width="0" stroke-linecap="butt"/><path d="M127.36574,258.33789c2.95624,-2.57351 6.58054,-0.25263 6.58054,-0.25263c11.52509,7.40375 23.85483,10.18881 36.7372,14.6044c6.88752,2.36079 13.26221,5.32591 20.74354,5.78713c3.25928,0.20094 6.55752,-0.35864 9.79793,0.03319c8.29421,1.00293 16.46105,4.36196 24.9326,4.88425c4.43685,0.27353 8.86006,-0.88157 13.30604,-0.88522c7.86601,-0.00642 15.30553,0.36766 23.03186,-0.88275c13.98231,-3.81772 28.16201,-2.53179 42.36726,-5.10253c13.45616,-2.43516 27.46967,-3.87084 40.79564,-7.02182c5.75141,-1.35994 10.80555,-4.38753 16.28579,-6.45344l4.7536,-3.65282c0.95011,-0.74301 2.16251,-1.18846 3.48321,-1.18846c3.04911,0 5.52092,2.37425 5.52092,5.30305c0,0.73874 -0.15726,1.44218 -0.44137,2.08116l-2.06184,4.95121l-0.15609,-0.05996c-0.05919,0.25464 -0.12555,0.50817 -0.19983,0.76045c-1.53442,5.21046 -8.88296,10.57407 -11.39375,15.83592c-3.82284,8.01154 -5.92827,18.19307 -12.66428,24.73435c-7.73681,7.51315 -18.5706,11.17489 -28.65875,14.20873c-10.42371,3.13477 -20.11459,8.90765 -30.74471,11.46645c-7.01116,1.68768 -14.95783,2.23376 -22.1178,3.20426c-18.52429,0.03182 -37.17086,0.34909 -55.59971,-1.01257c-8.88811,-0.65671 -17.55798,-3.35857 -26.4183,-4.05503c-6.92147,-0.54405 -13.59394,-0.748 -20.48155,-2.07923c-2.85663,-0.55212 -6.10458,-0.30086 -8.52454,-1.85998c-2.34658,-1.51187 -3.25233,-4.44067 -4.7895,-6.71798c-4.48639,-6.64657 -8.51695,-13.63255 -12.75559,-20.42803c-5.79399,-11.11519 -10.71347,-22.34552 -15.34004,-33.95145l-0.09962,-7.0783c0,0 0.00001,-4.35677 4.11117,-5.17238z" fill="#cd5a1d" stroke="none" stroke-width="0" stroke-linecap="butt"/><g stroke-width="0" stroke-linecap="round"><path d="M230.12032,444.15147l-1.29915,-83.09761l16.79767,-24.67784l14.13591,24.66697l-0.82408,83.28562c0,0 -6.39551,14.16989 -13.70303,14.12497c-7.30752,-0.04494 -15.10734,-14.30211 -15.10734,-14.30211z" fill="#cd5a1d" stroke="#cd5a1d"/><path d="M229.56144,420.87225l0.18177,-65.32443l17.22158,-19.50182l13.68359,19.30938l-2.30637,65.48489l-12.25493,11.63209z" fill="#c82624" stroke="#c82624"/></g><g stroke-width="0" stroke-linecap="round"><path d="M229.13725,354.88951l-1.22424,-58.99326l15.82916,-17.51947l13.32087,17.51175l-0.77656,59.12673c0,0 -7.6323,9.88716 -13.57719,9.85963c-5.94489,-0.02754 -13.57206,-9.98537 -13.57206,-9.98537z" fill="#cd5a1d" stroke="#cd5a1d"/><path d="M228.61061,338.36294l0.17131,-46.37561l16.22862,-13.84488l12.89463,13.70827l-2.17341,46.48951l-11.54834,8.25793z" fill="#c82624" stroke="#c82624"/></g><path d="M221.49717,293.10929l-1.92335,-83.09759c0,0 11.34869,-14.82449 24.86854,-14.82772c13.51985,-0.00322 20.92786,14.81685 20.92786,14.81685l-1.22,83.2856c0,0 -12.25008,14.74142 -21.16957,14.70439c-8.91949,-0.03704 -21.48346,-14.88153 -21.48346,-14.88153z" fill="#df6617" stroke="#cd5a1d" stroke-width="0" stroke-linecap="round"/><path d="M220.10348,273.30656l0.27905,-65.32445c0,0 12.96847,-12.49654 25.85005,-12.54878c12.88156,-0.05224 21.59318,12.35637 21.59318,12.35637l-3.54056,65.48487l-18.81282,11.6321z" fill="#c6241d" stroke="#c82624" stroke-width="0" stroke-linecap="round"/><path d="M240.90549,10.99589c0,1.15884 -1.13255,1.15884 -1.13255,1.15884l-0.92185,-0.0346c-1.98022,-0.57582 -2.74193,0.5899 -3.1233,2.49025c1.29129,5.02176 7.78721,5.1754 8.7675,-0.23868c0.81841,-4.52 -1.2229,-8.49475 -5.26009,-10.18422c-9.6074,0.12471 -13.2679,16.28945 -4.49929,20.6506c4.64887,1.97554 12.67675,2.03404 16.90746,-1.13601c0.81768,-0.61267 0.72889,-3.07357 0.87794,-3.98866c0.62867,-3.85946 1.65672,-7.77385 1.65132,-11.69743c0.04946,-8.82395 -10.20461,-17.87015 -18.68505,-11.91047c-8.8698,4.43272 -14.50419,16.24385 -9.86107,25.7456c2.68438,10.77397 10.38357,15.06066 21.35835,12.18027c12.10681,-2.06461 19.70704,-13.21055 18.22565,-25.72594c-4.3389,-11.30025 -7.92435,-17.77918 -20.37176,-20.32642c-9.83363,0.04688 -15.94984,1.60601 -21.95712,9.80609c0,0 -0.67954,0.92707 -1.58559,0.23177c-0.90605,-0.6953 -0.22651,-1.62237 -0.22651,-1.62237c6.47545,-8.82924 13.40637,-10.76436 23.99241,-10.7219c9.42184,1.9281 17.24132,6.65027 21.01309,16.31269c0.74476,1.90794 0.57872,3.85903 1.32881,5.74128c1.72192,13.73685 -6.55314,26.28799 -19.95775,28.57393c-11.86009,2.9654 -21.08423,-1.65647 -23.94402,-13.64529c-5.16503,-10.56974 1.16376,-23.50024 10.84857,-28.55427c10.09197,-6.71849 22.03674,3.25754 22.08706,13.91506c-0.00452,3.622 -0.48226,14.86197 -3.29531,17.42361c-4.54424,4.13808 -14.11204,3.59024 -19.33444,1.51277c-11.01277,-5.74932 -6.46159,-25.13219 5.85554,-25.04074c2.22476,0.89722 4.29159,2.04097 5.60305,4.17076c6.48665,10.53424 -8.71931,21.5453 -11.8033,8.58312c0.65753,-3.41456 2.26391,-5.64999 5.93717,-4.79386l0.37249,-0.0346c0,0 1.13255,0 1.13255,1.15884z" fill="#358154" stroke="none" stroke-width="0.5" stroke-linecap="butt"/></g></g></g></svg>