<svg version="1.1" xmlns="http://www.w3.org/2000/svg" xmlns:xlink="http://www.w3.org/1999/xlink" width="81.83548" height="126.65745" viewBox="0,0,81.83548,126.65745"><defs><radialGradient cx="239.99998" cy="183.4247" r="41.66018" gradientUnits="userSpaceOnUse" id="color-1"><stop offset="0" stop-color="#78f23a"/><stop offset="1" stop-color="#68c72f"/></radialGradient></defs><g transform="translate(-199.08292,-116.67128)"><g data-paper-data="{&quot;isPaintingLayer&quot;:true}" fill-rule="nonzero" stroke-linejoin="miter" stroke-miterlimit="10" stroke-dasharray="" stroke-dashoffset="0" style="mix-blend-mode: normal"><g><path d="M280.86816,183.4247c0,23.00828 -18.29731,41.66018 -40.86816,41.66018c-22.57087,0 -40.86816,-18.65189 -40.86816,-41.66018c0,-23.00828 18.29731,-41.66018 40.86816,-41.66018c22.57087,0 40.86816,18.65189 40.86816,41.66018z" fill="url(#color-1)" stroke="none" stroke-width="0" stroke-linecap="butt"/><path d="M269.46375,182.99105c0,16.35951 -13.47475,29.6215 -30.09671,29.6215c-16.62195,0 -30.09671,-13.26199 -30.09671,-29.6215c0,-16.35951 13.47475,-29.6215 30.09671,-29.6215c16.62195,0 30.09671,13.26199 30.09671,29.6215z" fill="none" stroke="#178e19" stroke-width="2" stroke-linecap="butt"/><path d="M207.68629,187.26797l-7.60337,-0.31681" fill="none" stroke="#178e19" stroke-width="2" stroke-linecap="round"/><path d="M208.3199,177.44694l-7.28657,-0.31681" fill="none" stroke="#178e19" stroke-width="2" stroke-linecap="round"/><path d="M276.75032,176.49652l-7.28657,-0.63362" fill="none" stroke="#178e19" stroke-width="2" stroke-linecap="round"/><path d="M279.9184,187.58477l-10.45465,-1.26722" fill="none" stroke="#178e19" stroke-width="2" stroke-linecap="round"/><path d="M225.16198,211.59967c-0.02045,-0.18876 -0.03125,-0.38776 -0.03125,-0.59753c0,-4.08113 4.08113,-4.08113 4.08113,-4.08113l2.20461,0.04746c2.691,0.41401 5.38184,0.82906 8.07248,1.24534c2.92705,0.26431 5.951,-1.75597 8.76869,-0.92046c8.00195,2.37277 7.24019,8.31216 7.21188,14.79705c-0.04742,10.86308 -5.38546,24.98922 -19.06624,20.32101c-2.63617,-0.89953 -7.03282,-4.12973 -8.77296,-6.34015c-3.32437,-4.22281 -3.18089,-5.32875 -3.44699,-10.33935c-0.23578,-4.43952 0.01594,-8.75149 0.67807,-13.13267c0,0 0.06709,-0.43616 0.30058,-0.99955z" fill="#76e154" stroke="none" stroke-width="0.5" stroke-linecap="butt"/><path d="M225.82152,232.17031c-0.02398,0.00228 -0.04812,0.00444 -0.07242,0.00647c-4.06703,0.33891 -4.40596,-3.72811 -4.40596,-3.72811l-0.20905,-5.13042c0.86045,-2.71795 0.7493,-5.96955 2.58133,-8.15387c1.45562,-1.73552 4.13169,-1.92571 6.33016,-2.47125c4.0711,-1.01024 5.68122,-0.06956 9.6306,-0.06956c3.20032,0 7.50437,-0.99928 10.61557,0.15698c2.61129,0.97045 5.48935,2.10792 7.13063,4.35888c2.84478,3.90153 0.31859,16.36199 -4.311,18.07146c-1.67222,0.61746 -7.50484,-3.36579 -9.75705,-4.21121c-4.50607,-1.69143 -9.04228,0.07399 -13.20644,1.82769c0,0 -2.54829,1.06178 -4.32641,-0.65706z" fill="#6b8e88" stroke="none" stroke-width="0.5" stroke-linecap="butt"/><path d="M233.83877,211.41762c0.72759,-0.30569 1.33977,-0.36134 1.33977,-0.36134l4.14514,-0.3232c2.37713,0.53549 5.42271,-0.13076 7.13137,1.60648c1.5992,1.62594 0.82021,4.48973 1.09171,6.75411c0.50125,4.18053 0.88779,10.48253 -2.99899,13.50698c-1.7887,1.39185 -4.50668,-0.48858 -6.75532,-0.77192c-2.0209,-0.25464 -4.52863,0.50976 -6.05237,-0.84195c-3.48585,-3.09236 -2.80472,-11.37373 -2.80766,-15.5493c0,0 0,-4.08113 4.08113,-4.08113c0.29601,0 0.57057,0.02147 0.8252,0.0613z" fill="#8ca1ae" stroke="none" stroke-width="0.5" stroke-linecap="butt"/><path d="M247.2699,235.55471c0,2.88698 -3.61691,5.22733 -8.0786,5.22733c-4.46168,0 -8.0786,-2.34035 -8.0786,-5.22733c0,-2.88698 3.61691,-5.22733 8.0786,-5.22733c4.46168,0 8.0786,2.34035 8.0786,5.22733z" fill="#056644" stroke="none" stroke-width="0" stroke-linecap="butt"/></g><path d="M248.25642,186.70109c-0.06595,-0.09142 -0.11878,-0.2093 -0.1491,-0.36093c-0.16345,-0.81727 0.65382,-0.98072 0.65382,-0.98072l0.67545,-0.12853c2.47266,-0.82422 5.91367,-2.91721 8.29502,-2.9429c1.68208,1.25239 3.44271,2.55645 4.66227,4.3c0.63746,0.91135 1.7065,2.34336 0.76988,3.59049c-0.36749,0.48934 -1.50383,-0.26341 -1.81704,0.26231c-0.39499,0.66299 -0.67964,1.60556 -1.41797,1.83018c-0.40592,0.12349 -1.00499,-0.64983 -1.39436,-0.10105c-0.39151,0.55182 -0.42719,1.45548 -1.03946,1.74345c-0.84195,0.396 -2.1225,-1.1107 -2.75783,-0.43095c-0.14524,0.15539 0.2013,0.46943 0.0672,0.63454c-0.04438,0.05465 -0.0911,0.10692 -0.13977,0.15721l0.02955,0.02365l-0.61563,0.76955c-0.1526,0.19413 -0.38956,0.3188 -0.65563,0.3188c-0.41834,0 -0.76469,-0.30821 -0.82437,-0.70994l-0.14171,-0.8503c-0.86992,-2.16225 -1.70527,-5.3861 -3.80585,-6.62432c0,0 -0.29963,-0.17977 -0.39446,-0.50051z" data-paper-data="{&quot;index&quot;:null}" fill="#9f4d1e" stroke="none" stroke-width="0.5" stroke-linecap="butt"/><path d="M223.97714,191.92079c-0.52478,0.71323 -3.8344,1.46935 -4.69783,0.85701c-0.9278,-0.658 -0.01624,-1.43804 -0.64998,-2.11045c-0.58093,-0.61639 -1.01725,-0.9974 -1.49132,-1.73105c-0.05375,-0.04 -0.08406,-0.07031 -0.08406,-0.07031l-0.36037,-0.40191c-0.18625,-0.42595 -0.59642,-0.81448 -0.55875,-1.27785c0.09144,-1.12512 0.40487,-5.50935 1.60845,-5.98763c0.0902,-0.03585 2.42309,1.85642 2.4964,1.84432c1.67504,-0.27643 3.21668,1.06677 4.74746,1.49155c0.90962,0.25241 1.66181,0.05964 2.1494,0.5032c0.03788,-0.01336 0.07619,-0.0266 0.11495,-0.03971v-0.04159h1.13038c0.46031,0 0.83345,0.37314 0.83345,0.83345c0,0.46031 -0.37314,0.83345 -0.83345,0.83345h-0.80199c-1.35119,0.47007 -1.04252,1.67117 -1.37838,2.50717c-0.38806,0.96596 -1.35735,1.61205 -2.22432,2.79035z" data-paper-data="{&quot;index&quot;:null}" fill="#9f4d1e" stroke="none" stroke-width="0.5" stroke-linecap="butt"/><path d="M225.25055,194.21144l0.30141,-0.31676c-0.47531,-2.37656 -0.51468,-5.4257 2.42839,-6.30075c1.90438,-0.56622 4.11823,0.93309 5.82617,1.51478c2.07995,0.70839 4.48435,0.38761 6.59068,-0.03285c2.6597,-0.37613 5.70905,-2.71633 8.44239,-1.6228c5.00772,2.00344 5.65971,8.96093 0.56989,11.02537c-1.84028,1.10417 -4.78295,2.66655 -7.05564,2.06644c-2.39937,-0.63356 -2.12912,-4.03809 -3.2839,-5.60651c-0.78731,-1.06933 -1.89083,0.33181 -2.06044,1.00706c-0.15229,0.60631 -0.31472,1.21335 -0.54529,1.79441c-1.08061,2.14963 -3.44119,2.99685 -6.03666,2.63448c-0.79285,-0.11069 -2.11139,0.54737 -2.78291,-0.02333c-1.40934,-1.19775 -2.5569,-4.01278 -2.39407,-6.13956z" data-paper-data="{&quot;index&quot;:null}" fill="#d48631" stroke="none" stroke-width="0.5" stroke-linecap="butt"/><path d="M253.40273,196.45457c-0.52524,-0.28552 -0.36672,-0.9196 -0.36672,-0.9196l0.08815,-0.25001c0.15651,-1.67846 0.61097,-2.44281 2.41512,-1.956c0.85334,-0.57405 1.5864,-0.29792 2.34102,-0.48502c0.56206,-0.13936 0.09901,-1.31494 0.57985,-1.63763c0.53607,-0.35976 1.35335,0.38711 1.93393,0.10477c0.74968,-0.36458 -0.02684,-2.18659 1.62377,-2.60218c1.13956,-0.28692 2.55974,0.87554 3.20183,1.62961c1.76761,2.07589 3.12251,5.7834 1.72136,8.27829c-1.27129,1.27129 -5.50229,4.07027 -7.42306,3.58015c-1.62391,-0.41437 -1.51256,-2.25753 -2.71426,-2.86388c-0.52551,-0.26516 -1.19876,0.45927 -1.7483,0.24837c-1.09496,-0.42024 -1.46726,-1.86262 -1.65268,-3.12685z" data-paper-data="{&quot;index&quot;:null}" fill="#d48631" stroke="none" stroke-width="0.5" stroke-linecap="butt"/><path d="M216.52314,187.7563l0.16473,0.21917c0.23783,0.34167 0.88041,-0.1076 1.24546,0.09251c1.12103,0.61449 0.63225,1.18057 0.93497,1.97092c0.12548,0.3276 0.5451,-0.54664 0.89587,-0.5523c0.52102,-0.0084 1.03843,0.24446 1.46636,0.54179c0.29781,0.20693 0.25724,1.11409 0.56831,0.92769c0.09663,-0.05791 0.19194,-0.118 0.28637,-0.17952l-0.12058,-0.10336l0.6747,-0.78715c0.15289,-0.18054 0.38122,-0.29516 0.63633,-0.29516c0.46031,0 0.83345,0.37314 0.83345,0.83345c0,0.12314 -0.0267,0.24006 -0.07464,0.34525l-0.33186,0.77433c-0.84181,1.96203 -2.14668,3.6642 -2.93161,5.63412c-0.35118,0.88136 -0.81371,2.56887 -1.74851,3.03037c-1.12665,0.55621 -2.25149,-0.35985 -3.29825,-0.59083c-1.40017,0.00538 -2.80752,0.77957 -4.12968,0.14074c-1.7772,-0.85869 -2.29609,-3.48442 -1.90618,-5.21735c0.67401,-2.99559 3.63543,-5.04682 5.33556,-7.427c0,0 0.48444,-0.67821 1.16265,-0.19378c0.37615,0.26868 0.39466,0.59697 0.33654,0.83609z" data-paper-data="{&quot;index&quot;:null}" fill="#d48631" stroke="none" stroke-width="0.5" stroke-linecap="butt"/><path d="M232.90153,136.50232c0.19651,-1.17863 0.03261,-4.43543 1.34404,-5.08756c1.4447,-0.71839 1.84818,0.85317 2.75647,0.72022c0.44763,-0.06553 0.21656,-4.22391 0.2463,-4.3395c0.13112,-0.50973 0.33205,-1.09442 0.77796,-1.37404c0.26022,-0.16317 0.54519,0.3757 0.85144,0.35229c0.15301,-0.01169 -0.23651,-0.24671 -0.22804,-0.39993c0.02079,-0.37584 0.22534,-0.71906 0.31023,-1.08578c0.2061,-0.89038 0.41299,-1.49721 0.75341,-2.1052l-0.09375,-0.03751l0.30301,-0.75753c0.11819,-0.31654 0.4233,-0.54194 0.78105,-0.54194c0.30891,0 0.57858,0.16806 0.72254,0.41774l0.45747,0.76246l-0.01471,0.00883l0.04211,0.04055c0.72156,1.68997 1.96961,3.17345 2.39576,4.9964c0.1021,0.43678 -0.1983,1.16546 0.21993,1.32756c0.17537,0.06797 0.56479,-0.01284 0.93852,-0.07302c0.36658,-0.05903 0.83712,-1.40794 0.95667,-1.26745c0.07649,0.0899 0.68033,4.29211 0.77947,4.67869c0.55179,2.15155 -0.41933,3.10757 -0.39321,5.30252c0.04419,0.03413 0.0688,0.05874 0.0688,0.05874l0.31022,0.31023c2.27295,2.27993 5.76111,2.86828 8.30734,4.9021c2.17105,1.73976 4.06831,3.31375 5.7395,5.59239c0.68544,0.93458 1.24528,2.79791 1.99059,3.53959c0.51824,0.51571 3.43488,0.17073 4.16975,0.31914c2.27421,0.45927 3.83142,1.92854 5.40843,3.50767c1.96126,2.28659 4.52492,5.80788 3.43125,9.06605c-0.26291,0.78324 -0.73455,1.1563 -1.28187,1.70648c-3.37012,3.38776 -6.81362,0.28349 -7.89266,-3.42197c-0.31147,-0.77666 -0.49608,-1.58289 -0.98143,-2.27558c-0.86211,-1.23039 -3.72129,-2.71464 -4.81119,-0.81318c-1.467,2.55932 1.86648,5.00671 3.79799,5.77184c1.22863,0.52872 2.84598,1.16784 3.63419,2.32766c1.72544,2.5389 -0.07604,7.33496 -1.93611,9.39068c-2.04131,2.25604 -17.05514,12.24247 -19.59575,9.78925c-0.14117,-0.38908 -1.38214,-1.22596 -1.11072,-1.81537c1.91419,-4.1568 14.05831,-12.25296 14.51974,-14.95298c0.20729,-1.21294 0.14033,-3.32135 -1.14047,-3.62341c-1.31098,-0.30919 -3.38035,0.17741 -4.77208,0.17741c-4.678,0 -8.2965,0.8224 -11.8457,3.9689c-1.08359,0.96064 -1.70691,2.58875 -2.64056,3.69226c-0.35933,0.42469 -0.62387,1.19379 -1.18002,1.1802c-0.84415,-0.02063 -1.2967,-1.44867 -1.5494,-2.07504c-0.54267,-1.46378 -2.83663,-0.777 -4.02707,-1.70036c-2.66393,-2.06625 -5.14609,-4.84717 -8.00945,-5.72365c-1.94662,-0.59586 -3.24377,-1.26326 -5.15137,-0.50125c-0.73075,0.36452 -2.606,1.10111 -3.03503,1.83303c-0.9999,1.7058 0.11947,6.00003 0.26687,7.88551c0.08357,1.0689 2.00339,4.66342 0.97576,5.46977c-0.92441,0.72534 -5.63418,-0.29107 -6.65181,-0.69554c-3.35842,-2.01157 -6.91944,-8.19631 -5.06335,-12.18888c0.81064,-1.74375 2.85302,-2.67922 4.67451,-2.95892c1.06835,-0.16405 1.95964,-0.51331 1.74844,-0.70954c0.59199,-3.60824 0.30057,-6.19244 0.59395,-9.88612c0.13533,-1.70374 0.69299,-3.56196 1.11761,-5.22167c0.44001,-1.71988 1.10384,-2.88707 1.97855,-4.34492c1.97048,-1.99316 4.62334,-3.71822 7.20989,-4.90074c2.68344,-1.22682 6.36561,-1.58161 8.66214,-3.45807c0,0 0.01501,-0.01201 0.04231,-0.0301c0.04052,-0.24313 0.08104,-0.48627 0.12157,-0.7294z" data-paper-data="{&quot;index&quot;:null}" fill="#a25121" stroke="none" stroke-width="0.5" stroke-linecap="butt"/><path d="M226.8289,167.64969c2.98506,0.89449 5.72058,2.66606 8.31281,4.3412c0.85176,0.55043 1.81977,1.32608 2.34616,2.18925c0.22992,0.37702 0.08317,0.52366 0.49062,0.69394c0.21131,0.08831 1.58263,-1.64998 1.74346,-1.8434c5.05925,-5.06675 11.50726,-9.49682 18.99762,-6.99926c3.11386,1.38491 2.59583,4.03353 2.10664,6.80442c-0.85134,4.8222 -2.18077,8.96642 -7.08384,10.80633c-2.20654,0.8241 -4.57024,1.38025 -6.74357,2.24513c-1.02032,0.40603 -1.34415,1.28522 -2.5564,1.5248c-3.11873,0.61636 -7.17549,-0.32292 -10.39359,-0.32678c-2.14035,0.20641 -3.11572,-0.83256 -5.07416,-1.26032c-3.8819,-0.84789 -9.11764,-1.36833 -11.59022,-4.97467c-0.7996,-1.16623 -0.93284,-2.60159 -1.26609,-3.94514c-0.25021,-2.24096 -0.83933,-5.15879 -0.07326,-7.33496c1.64699,-4.67866 7.20582,-4.40908 10.51191,-2.20982c0,0 0.15711,0.10473 0.27191,0.28928z" data-paper-data="{&quot;index&quot;:null}" fill="#de8f31" stroke="none" stroke-width="0.5" stroke-linecap="butt"/><path d="M250.97141,198.07185c-1.898,2.34979 -6.05549,3.46718 -8.99548,2.43633c-1.59541,-0.5594 -2.23154,-2.2079 -2.55272,-3.71383c-0.08627,-0.40448 -0.24713,-1.09544 -0.27211,-1.62957c-0.41334,0.44786 -1.01813,0.90907 -1.42485,0.77065c-0.16172,0.881 -0.4097,1.97723 -0.8025,2.65889c-1.92894,3.34746 -8.62581,3.51099 -10.72082,0.50148c-0.80631,-1.15829 -0.91036,-2.83457 -0.91321,-4.18149c0,0 0,-0.83345 0.83345,-0.83345c0.83345,0 0.83345,0.83345 0.83345,0.83345c-0.00243,1.01211 0.02051,2.38938 0.63791,3.26387c1.37324,1.9451 6.72928,1.91339 7.89257,-0.42919c0.3276,-0.65971 0.53913,-1.68545 0.66044,-2.42083v-1.0343v0v0c0,-0.46031 0.37314,-0.83345 0.83345,-0.83345c0.23015,0 0.43851,0.09329 0.58933,0.24412l0.40207,0.40207c0.06352,-0.01532 0.12353,-0.0438 0.17834,-0.08846c0.57733,-0.4705 0.97806,-1.63353 2.12679,-1.10137c0.98635,0.45692 0.72488,4.14935 1.30136,5.1455c1.43276,2.4758 6.72643,0.69379 8.09088,-1.0317c0.20681,-0.25852 0.41363,-0.51703 0.62045,-0.77555l0.26756,-0.407c0,0 0.30263,-0.45396 0.78548,-0.38243c-0.06023,-0.59208 -0.13216,-1.16352 -0.2608,-1.65709c-0.49875,-1.91364 -1.54122,-3.22229 -2.70428,-4.77303c0,0 -0.87512,-1.16683 0.29171,-2.04196c1.16683,-0.87512 2.04196,0.29171 2.04196,0.29171c1.38991,1.85321 2.58415,3.4911 3.18997,5.77455c0.39877,1.50308 0.32848,3.20113 0.72725,4.65936c0.30984,1.13302 2.43751,1.16356 3.17369,1.54809c0.88563,0.46259 1.26558,1.58973 2.10077,2.13818c0.47691,0.31317 1.10476,-0.34667 1.57537,-0.66923c1.59571,-1.09369 3.23164,-2.2733 4.7932,-3.44032c1.59669,-1.42059 0.24876,-2.46317 -0.5298,-4.19441c-1.53056,-3.40339 -4.07599,-6.00767 -6.86804,-8.45237l-1.1943,-0.89573c-0.36198,-0.2654 -0.597,-0.69377 -0.597,-1.17702c0,-0.80553 0.65301,-1.45854 1.45854,-1.45854c0.10836,0 0.21396,0.01182 0.31558,0.03423l1.52159,0.30432l-0.03296,0.16481c0.33367,-0.04205 0.66584,-0.09327 0.99526,-0.16136c2.35688,-0.48714 4.90576,-3.68434 6.01067,-5.64627c1.70315,-3.02421 1.79118,-6.32346 -1.2123,-7.33123c-1.71297,0.07758 -3.52441,0.14956 -4.64871,-1.49815c-1.15448,-1.69193 -1.20829,-7.07516 0.75138,-8.12841c0.75394,-0.40522 1.73065,-0.12648 2.56722,0.05454c2.32227,0.50252 3.01019,2.21651 3.65394,4.22703c0.25774,0.80495 0.30855,1.80352 0.7926,2.47574c0.27397,0.08485 0.60215,0.25791 0.80112,0.61089c1.67194,0.72302 4.98061,1.35043 5.01905,-1.10186c-0.34868,-3.8578 -2.30611,-8.75916 -5.79458,-10.83433c-1.79418,-1.06728 -4.07665,-0.59327 -5.90626,-1.47741c-2.02794,-0.97997 -2.08037,-2.43372 -3.23721,-4.06374c-1.56187,-2.20072 -3.50501,-3.79142 -5.38482,-5.66448c-1.9037,-1.71604 -5.73959,-1.6637 -7.27739,-3.56613c-1.32921,-1.64438 -0.89635,-5.18348 -1.0883,-7.12727c-0.09335,-0.94541 -0.78685,-3.52528 -0.85771,-4.47264c-0.01363,-0.18213 0.59556,1.06594 0.42201,1.12284c-0.60462,0.19824 -1.00896,1.29035 -1.59657,1.04627c-0.87283,-0.36255 -1.08799,-1.54811 -1.56951,-2.36139c-0.80016,-1.35143 -1.53335,-2.83494 -2.24656,-4.29743c-0.02713,1.34458 -0.14405,2.66438 -0.61291,3.53899c-0.24069,0.449 -0.96489,0.43484 -1.27997,0.83515c-0.45176,0.57396 -0.05151,3.16103 -0.05151,3.82403c0,0 0,0.34722 -0.16942,0.70284c0.10001,0.37526 0.06495,0.85311 -0.41289,1.33096c-1.03135,1.03135 -2.06268,0 -2.06268,0l-0.4566,-0.59409c-0.11022,-0.26158 -0.25992,-0.50194 -0.42274,-0.73545c-0.02392,1.63745 -0.53917,3.62408 -0.67091,4.94155c0,0 -0.09611,0.96105 -0.91396,1.24083c-0.3218,0.36319 -0.77402,0.48653 -0.77402,0.48653c-3.67163,0.99948 -6.7208,1.95411 -10.18387,3.49325c-1.55946,0.69309 -3.63467,1.62713 -4.73161,2.99621c-1.99109,2.48504 -3.24505,6.40563 -3.87112,9.46449c0.0095,2.67768 0.39247,5.39597 0.16221,8.07719c-0.07733,0.90044 -0.45272,2.00131 -1.04386,2.68492c-1.2368,1.43028 -3.57062,0.20312 -5.05458,1.84131c-0.99432,1.09767 -0.82107,3.57297 -0.46511,4.87144c0.95395,3.47992 2.17569,5.60569 5.06788,7.80281c1.8487,0.80876 2.77342,1.09379 4.73671,0.48122l1.19466,-0.06151c0,0 1.45854,0 1.45854,1.45854c0,0.48711 -0.16268,0.81155 -0.37939,1.02763c0.2082,0.05041 0.42959,0.16105 0.65686,0.35991c1.09766,0.96046 0.13721,2.05812 0.13721,2.05812c-2.7165,3.09301 -8.07356,6.06314 -8.97362,10.33589c-0.76278,3.62111 2.63246,2.03868 4.67531,2.30639c0.81403,0.10667 1.64368,1.1061 2.35996,0.70488c0.36575,-0.20487 0.47345,-0.69197 0.71018,-1.03796c2.89169,-2.86915 4.58789,-6.85089 7.02949,-10.11189l0.48273,-1.01804c0,0 0.65228,-1.30456 1.95684,-0.65228c1.30456,0.65228 0.65228,1.95684 0.65228,1.95684l-0.75817,1.46374c-2.52621,3.36209 -4.27175,7.37306 -7.24077,10.36285c-2.30976,2.28687 -2.70037,1.73275 -5.61611,1.21803c-0.93431,-0.16493 -1.86012,0.5573 -2.80565,0.4791c-3.35726,-0.27764 -4.88818,-3.23709 -4.30754,-6.2385c0.97479,-5.03875 6.49596,-8.08191 9.63977,-11.68996c0,0 0.03724,-0.04256 0.10544,-0.10359l-0.13978,-0.02412c-2.77854,0.80806 -4.46541,0.40312 -7.05178,-0.75967c-4.37157,-3.24711 -9.87029,-11.74609 -5.32438,-17.10718c0.69642,-0.82129 2.3315,-1.72013 3.36265,-2.00237c0.57559,-0.15755 1.18346,-0.22662 1.77946,-0.1965c0.23036,0.01164 0.49913,0.51705 0.61481,0.3175c0.13699,-0.23632 -0.33528,-0.45761 -0.3771,-0.72755c-0.08709,-0.56203 0,-1.13748 0,-1.70623c0,-2.22931 -0.15413,-4.43286 -0.14801,-6.65841c0.70262,-3.57836 2.13553,-8.12186 4.50491,-11.01024c3.68657,-4.4941 10.70815,-5.93622 16.02956,-7.36563c0.1351,-1.82847 0.12158,-3.75416 0.3985,-5.52272c0.14731,-0.94082 -0.18483,-2.35555 0.66891,-2.77742c1.12465,-0.55575 2.15001,-0.245 3.01733,0.42558c0.0556,-0.82591 0.21555,-1.61929 0.60539,-2.27194c0.23912,-0.40032 0.92798,-0.33853 1.20182,-0.71597c0.50004,-0.68921 -0.10214,-1.70311 -0.06303,-2.55371c0.0194,-0.42202 0.26544,-2.8311 0.31596,-3.33637l0.15351,-1.53507c0.06534,-0.74507 0.69088,-1.32946 1.45291,-1.32946c0.48325,0 0.91161,0.23502 1.17702,0.59699l0.92048,1.22732l-0.27891,0.20919c1.09552,1.22515 1.84538,2.5635 2.73944,4.34909c0.56975,1.13789 1.29413,2.23513 1.58097,3.47493c0.0609,0.2632 -0.57557,0.85038 -0.32861,0.74085c0.50025,-0.22187 0.67531,-1.29543 1.19544,-1.12529c1.00458,0.32864 1.67993,1.34931 2.23638,2.24795c1.11485,1.80043 0.59693,4.88814 0.88748,6.90068c0.1153,0.79866 -0.15501,1.74473 0.31571,2.40016c0.46652,0.64958 1.56487,0.35268 2.31517,0.62952c1.80932,0.66759 3.21483,1.3756 4.67771,2.62926c2.82322,2.83415 4.86654,5.44261 7.1243,8.68735c0.46359,0.66625 1.24758,0.59071 1.93733,0.71956c1.70093,0.31775 3.42648,0.52357 4.95062,1.41331c4.45427,2.60026 6.78819,8.47075 7.23479,13.36308c-0.09853,0.72304 0.03035,1.51625 -0.2956,2.16913c-1.03742,2.07795 -3.69825,2.74987 -6.2058,2.41329c1.10775,4.38256 -3.26062,10.30981 -6.2925,12.75085c-0.5526,0.44491 -1.57914,1.18711 -2.58518,1.65213c2.36089,2.26702 4.42057,4.74567 5.78907,7.7849c1.42126,3.15642 2.44483,4.77289 -0.21958,7.59406c-2.20776,1.66056 -6.44814,5.70877 -9.45282,4.57669c-0.98096,-0.36959 -1.29267,-1.76111 -2.24234,-2.20495c-1.93922,-0.90629 -3.59252,-0.73705 -4.58189,-3.10527c-0.1714,-0.41027 -0.27927,-0.89662 -0.35741,-1.41608c-0.19251,0.24063 -0.38501,0.48127 -0.57752,0.7219zM264.28063,165.29637l0.76558,0.00723c0.39739,0.04301 0.72819,0.06947 1.02315,0.09748c-0.39824,-1.74641 -0.66101,-3.74764 -2.5421,-3.92672c-0.48895,-0.04655 0.25374,0.95043 0.33636,1.4346c0.13625,0.79855 -0.13157,1.65503 0.07457,2.43287c0.19799,-0.04546 0.34246,-0.04546 0.34246,-0.04546z" data-paper-data="{&quot;index&quot;:null}" fill="#783b1a" stroke="none" stroke-width="0.5" stroke-linecap="butt"/><path d="M229.01745,187.61684c-0.22882,-0.7904 -0.39831,-1.66284 0.4962,-2.29176c1.07608,-0.75658 2.34205,0.04969 2.80845,0.97763c0.56195,1.11802 -0.10931,2.87979 0.32135,4.06123c0.23543,0.64587 1.59311,1.54197 1.0299,2.40749c-0.55752,0.85679 -2.25843,0.41153 -2.8903,-0.02506c-1.18779,-0.8207 -1.24629,-2.36292 -1.4654,-3.76613c-0.15014,-0.23141 -0.15014,-0.49725 -0.15014,-0.49725l0.02399,-0.17681c-0.03866,-0.16847 -0.08323,-0.33247 -0.13633,-0.49029c0,0 -0.02689,-0.08066 -0.03773,-0.19904z" data-paper-data="{&quot;index&quot;:null}" fill="#5cb700" stroke="none" stroke-width="0.5" stroke-linecap="butt"/><path d="M247.52809,188.26048c-0.05309,0.15782 -0.09767,0.32182 -0.13633,0.49029l0.02399,0.17681c0,0 0,0.26584 -0.15014,0.49725c-0.21911,1.4032 -0.27761,2.94543 -1.4654,3.76613c-0.63187,0.43659 -2.33279,0.88184 -2.8903,0.02506c-0.5632,-0.86552 0.79448,-1.76162 1.0299,-2.40749c0.43066,-1.18143 -0.2406,-2.94321 0.32135,-4.06123c0.46641,-0.92794 1.73237,-1.73421 2.80845,-0.97763c0.65002,0.45702 0.73818,1.04263 0.65001,1.63192c-0.03316,0.22165 -0.09127,0.44381 -0.15381,0.65984c-0.01083,0.11838 -0.03773,0.19905 -0.03773,0.19905z" data-paper-data="{&quot;index&quot;:null}" fill="#5cb700" stroke="none" stroke-width="0.5" stroke-linecap="butt"/><path d="M242.88407,136.86153c-0.1943,-0.11037 -0.37695,-0.31789 -0.37695,-0.70807c0,-0.83345 0.83345,-0.83345 0.83345,-0.83345l0.92896,0.52392c0.41743,1.05416 0.85288,2.03989 1.23458,3.09997c0.2385,0.08195 0.53127,0.28316 0.53127,0.77713c0,0.83345 -0.83345,0.83345 -0.83345,0.83345l-0.16256,-0.01064c-0.04657,0.0102 -0.0911,0.01658 -0.13366,0.01959c-3.17046,0.53571 -5.63701,1.93494 -8.99238,1.37571c0,0 -0.82211,-0.13702 -0.68509,-0.95913c0.13702,-0.82211 0.95913,-0.68509 0.95913,-0.68509c2.80292,0.46716 5.01696,-0.59503 7.59817,-1.19825c-0.28453,-0.75723 -0.59164,-1.47984 -0.90144,-2.23514z" data-paper-data="{&quot;index&quot;:null}" fill="#843e18" stroke="none" stroke-width="0.5" stroke-linecap="butt"/><path d="M231.84608,188.64904c-0.2105,-0.03527 0.12708,-0.1609 -0.01664,-0.49625c-0.32831,-0.76606 -0.12744,-0.98134 -0.12744,-0.98134l0.95199,-0.38948c2.43976,-0.03874 4.79661,0.18214 7.22198,0.32337c1.17267,0.06828 2.90586,-0.18258 4.0111,0.13968c1.39063,0.40547 1.25656,0.82753 1.73654,2.01327c0.00485,1.25512 -0.10341,2.90371 -1.23431,3.76183c-1.02426,0.77719 -2.87185,0.30869 -4.05548,0.38377c-3.84498,0.24388 -8.88259,0.43555 -8.48776,-4.75486z" data-paper-data="{&quot;index&quot;:null}" fill="#3e7b00" stroke="none" stroke-width="0.5" stroke-linecap="butt"/><path d="M231.09227,178.45497c0.05959,0.04176 0.09384,0.07601 0.09384,0.07601l0.47902,0.62313c0.69414,2.84958 -2.29153,5.74861 -4.63596,2.96025c-2.36208,-2.80937 1.10902,-5.38365 3.81212,-3.89255c0,0 0.14165,0.08094 0.25097,0.23317z" data-paper-data="{&quot;index&quot;:null}" fill="#4d2813" stroke="none" stroke-width="0.5" stroke-linecap="butt"/><path d="M244.27644,199.36793c-0.41673,0 -0.41673,-0.41673 -0.41673,-0.41673c0,-0.55564 0,-1.25018 0,-1.80581c0,0 0,-0.41673 0.41673,-0.41673c0.41673,0 0.41673,0.41673 0.41673,0.41673c0,0.55564 0,1.11127 0,1.6669v0.13891c0,0 0,0.41673 -0.41673,0.41673z" data-paper-data="{&quot;index&quot;:null}" fill="#a0531a" stroke="none" stroke-width="0.5" stroke-linecap="butt"/><path d="M246.22116,199.09012c-0.41673,0 -0.41673,-0.41673 -0.41673,-0.41673c0,-0.27781 0,-0.69454 0,-0.97236c0,0 0,-0.41673 0.41673,-0.41673c0.41673,0 0.41673,0.41673 0.41673,0.41673c0,0.27781 0,0.55564 0,0.83345v0.13891c0,0 0,0.41673 -0.41673,0.41673z" data-paper-data="{&quot;index&quot;:null}" fill="#a0531a" stroke="none" stroke-width="0.5" stroke-linecap="butt"/><path d="M247.88806,198.25666c-0.41673,0 -0.41673,-0.41673 -0.41673,-0.41673c0,-0.13891 0,-0.41673 0,-0.55564c0,0 0,-0.41673 0.41673,-0.41673c0.41673,0 0.41673,0.41673 0.41673,0.41673c0,0.13891 0,0.27781 0,0.41673v0.13891c0,0 0,0.41673 -0.41673,0.41673z" data-paper-data="{&quot;index&quot;:null}" fill="#a0531a" stroke="none" stroke-width="0.5" stroke-linecap="butt"/><path d="M232.74703,199.50684c-0.41673,0 -0.41673,-0.41673 -0.41673,-0.41673v-0.41673c0.00364,-0.23712 -0.03929,-0.4778 -0.11753,-0.70167c0,0 -0.13178,-0.39534 0.26356,-0.52712c0.39534,-0.13178 0.52712,0.26356 0.52712,0.26356c0.09984,0.31049 0.15666,0.6391 0.1603,0.96523v0.41673c0,0 0,0.41673 -0.41673,0.41673z" data-paper-data="{&quot;index&quot;:null}" fill="#a0531a" stroke="none" stroke-width="0.5" stroke-linecap="butt"/><path d="M231.21903,199.92357c-0.41673,0 -0.41673,-0.41673 -0.41673,-0.41673c0,-0.13891 0,-0.69454 0,-0.83345c0,0 0,-0.41673 0.41673,-0.41673c0.41673,0 0.41673,0.41673 0.41673,0.41673c0,0.13891 0,0.27781 0,0.41673v0.41673c0,0 0,0.41673 -0.41673,0.41673z" data-paper-data="{&quot;index&quot;:null}" fill="#a0531a" stroke="none" stroke-width="0.5" stroke-linecap="butt"/><path d="M228.9965,198.9512c0,-0.23015 0.18658,-0.41673 0.41673,-0.41673c0.23015,0 0.41673,0.18658 0.41673,0.41673c0,0.23015 -0.18658,0.41673 -0.41673,0.41673c-0.23015,0 -0.41673,-0.18658 -0.41673,-0.41673z" data-paper-data="{&quot;index&quot;:null}" fill="#a0531a" stroke="none" stroke-width="0.5" stroke-linecap="butt"/><path d="M253.03799,194.2569c-0.30281,-0.08804 -0.62036,-0.2687 -0.93792,-0.58626c-1.47334,-1.47334 0,-2.94669 0,-2.94669l0.57955,-0.57547c1.51721,-1.36219 4.65271,-4.54665 6.66911,-4.83158c2.66157,-0.37608 6.51738,1.57602 5.4599,5.23409c-0.34497,1.19333 -2.24635,1.06133 -3.36242,1.60672c-1.96881,0.96211 -3.87968,1.95138 -5.90457,2.7964c0,0 -1.61721,0.67384 -2.50366,-0.69719z" fill="#5bb500" stroke="none" stroke-width="0.5" stroke-linecap="butt"/><path d="M217.92194,189.55668c-0.29232,-0.07734 -1.95619,-0.60304 -1.55756,-2.46329c0.43658,-2.03737 2.47396,-1.6008 2.47396,-1.6008c0.6185,0.13474 1.23592,0.28514 1.84637,0.45899l0.03247,0.00013c0.8561,0.06564 1.80106,-0.18853 2.56829,0.19691c0.07172,0.03603 0.14258,0.07339 0.21265,0.112l0.01704,-0.05537l2.1219,0.65289c0.87485,0.24717 1.51594,1.05139 1.51594,2.00535c0,1.15076 -0.93287,2.08363 -2.08363,2.08363h-2.33366v-0.18794l-0.40864,0.14748c-0.73921,-0.29655 -1.4922,-0.56403 -2.25558,-0.79647l-0.66959,0.00348c0,0 -0.86465,0.00001 -1.47996,-0.55698z" fill="#5bb500" stroke="none" stroke-width="0.5" stroke-linecap="butt"/><path d="M209.20568,166.67304c-0.12329,-0.50493 -0.05038,-0.94243 -0.05038,-0.94243l1.75345,-2.68787c1.01717,-0.1705 2.03923,-0.709 3.05149,-0.51148c1.71687,0.33501 2.93548,1.94057 4.54864,2.61701c1.81469,0.76094 3.75156,1.18957 5.6341,1.76243c2.18785,0.65227 4.13442,1.96078 6.29466,2.69934c6.16516,2.10781 14.02253,0.13079 19.99613,-1.69357c0.47973,-0.14651 4.72791,-1.57847 5.08277,-1.73767c1.58371,-0.71048 2.80001,-2.09106 4.36917,-2.83312c1.24787,-0.59012 2.7181,-1.96272 3.9307,-1.30317c1.27646,0.69428 1.17624,2.70977 1.3147,4.15622c0.50464,5.27181 -5.28836,9.81848 -9.17913,12.08756c-0.73498,0.2849 -4.52954,1.7952 -5.14958,1.85678c-1.76895,0.17568 -3.59704,-0.41079 -5.33289,-0.02753c-4.60596,1.01696 -9.73787,3.56086 -14.47811,3.54269c-2.49285,-0.00955 -5.66205,-1.52798 -7.93068,-2.50035c-6.63383,-2.84333 -10.07448,-6.28663 -13.79138,-12.32583c0,0 -0.70347,-1.14315 -0.06367,-2.15905z" fill="#000000" stroke="none" stroke-width="0.5" stroke-linecap="butt"/><path d="M235.97058,176.98158c1.33063,1.80516 0.83126,7.25962 -1.16193,8.45771c-1.88497,1.13304 -5.1405,0.24804 -6.97837,-0.53437c-1.73472,-0.86736 -3.86877,-1.86028 -5.14868,-3.38574c-1.55088,-1.84842 -3.23511,-6.51132 -2.28532,-8.86423c0.9783,-2.42354 3.95892,-2.47874 6.10456,-2.19008c2.65148,1.29306 5.03742,3.02163 7.30036,4.90499l0.16881,0.16397c0,0 0.05352,0.05352 0.11217,0.14442c0.71873,0.30147 1.4347,0.68781 1.8884,1.30332z" data-paper-data="{&quot;index&quot;:null}" fill="#003600" stroke="#5bb500" stroke-width="2.5" stroke-linecap="butt"/><path d="M241.3849,175.36c0.05865,-0.0909 0.11217,-0.14441 0.11217,-0.14441l0.16882,-0.16397c2.26294,-1.88336 4.64887,-3.61193 7.30036,-4.90499c2.14564,-0.28867 5.12626,-0.23347 6.10456,2.19008c0.94978,2.35291 -0.73444,7.0158 -2.28532,8.86423c-1.2799,1.52546 -3.41396,2.51838 -5.14868,3.38574c-1.83788,0.7824 -5.0934,1.6674 -6.97837,0.53437c-1.99318,-1.19809 -2.49255,-6.65255 -1.16193,-8.45771c0.45371,-0.6155 1.16967,-1.00186 1.8884,-1.30332z" data-paper-data="{&quot;index&quot;:null}" fill="#003600" stroke="#5bb500" stroke-width="2.5" stroke-linecap="butt"/><path d="M242.52569,171.0467c-0.00913,-0.01378 -0.01814,-0.02806 -0.02702,-0.04286c-0.40478,-0.67465 0.26985,-1.07944 0.26985,-1.07944l0.54797,-0.32857c2.18304,-1.24334 4.47749,-2.40949 6.73951,-3.51643c1.64783,1.18378 2.4948,3.76437 1.2266,5.72438c-0.79587,1.23002 -2.77124,1.79787 -3.94394,2.5482c-0.81213,0.51962 -1.5451,1.76472 -2.73131,1.49766c-1.79147,-0.40332 -1.79017,-3.40388 -2.08165,-4.80293z" data-paper-data="{&quot;index&quot;:null}" fill="#713617" stroke="none" stroke-width="0.5" stroke-linecap="butt"/><path d="M231.89444,175.94755c-1.18621,0.26705 -1.91918,-0.97804 -2.73131,-1.49766c-1.17271,-0.75032 -3.14806,-1.31817 -3.94394,-2.5482c-1.26821,-1.96001 -0.42123,-4.54059 1.2266,-5.72438c2.26202,1.10694 4.55647,2.27308 6.73951,3.51643l0.54797,0.32857c0,0 0.67465,0.40479 0.26985,1.07944c-0.00888,0.0148 -0.01789,0.02909 -0.02702,0.04286c-0.29148,1.39905 -0.29018,4.39962 -2.08165,4.80293z" data-paper-data="{&quot;index&quot;:null}" fill="#713617" stroke="none" stroke-width="0.5" stroke-linecap="butt"/></g></g></svg>