<svg version="1.1" xmlns="http://www.w3.org/2000/svg" xmlns:xlink="http://www.w3.org/1999/xlink" width="204.45753" height="162.5151" viewBox="0,0,204.45753,162.5151"><defs><radialGradient cx="208.04304" cy="182.88359" r="5.13591" gradientUnits="userSpaceOnUse" id="color-1"><stop offset="0" stop-color="#b34900"/><stop offset="1" stop-color="#a03900"/></radialGradient><linearGradient x1="231.32559" y1="151.78056" x2="231.18073" y2="157.52845" gradientUnits="userSpaceOnUse" id="color-2"><stop offset="0" stop-color="#c74600"/><stop offset="1" stop-color="#e25e00"/></linearGradient><linearGradient x1="146.36084" y1="166.09698" x2="180.44241" y2="166.95596" gradientUnits="userSpaceOnUse" id="color-3"><stop offset="0" stop-color="#4c4540"/><stop offset="1" stop-color="#3f3a35"/></linearGradient><linearGradient x1="146.85049" y1="196.78419" x2="180.93204" y2="197.64316" gradientUnits="userSpaceOnUse" id="color-4"><stop offset="0" stop-color="#4c4540"/><stop offset="1" stop-color="#3f3a35"/></linearGradient><linearGradient x1="138.20718" y1="181.72203" x2="184.19116" y2="182.88098" gradientUnits="userSpaceOnUse" id="color-5"><stop offset="0" stop-color="#4c4540"/><stop offset="1" stop-color="#3f3a35"/></linearGradient><radialGradient cx="313.16925" cy="186.57232" r="17.98095" gradientUnits="userSpaceOnUse" id="color-6"><stop offset="0" stop-color="#ffe0a9"/><stop offset="1" stop-color="#ffe0a9" stop-opacity="0"/></radialGradient><radialGradient cx="312.99273" cy="185.55739" r="13.19949" gradientUnits="userSpaceOnUse" id="color-7"><stop offset="0" stop-color="#fffffd"/><stop offset="1" stop-color="#fffffd" stop-opacity="0"/></radialGradient><radialGradient cx="308.05269" cy="186.44336" r="16.76875" gradientUnits="userSpaceOnUse" id="color-8"><stop offset="0" stop-color="#ff9afa"/><stop offset="1" stop-color="#ff9afa" stop-opacity="0"/></radialGradient><radialGradient cx="308.05269" cy="186.44336" r="16.76875" gradientUnits="userSpaceOnUse" id="color-9"><stop offset="0" stop-color="#ff9afa"/><stop offset="1" stop-color="#ff9afa" stop-opacity="0"/></radialGradient><radialGradient cx="309.03254" cy="184.98604" r="12.72807" gradientUnits="userSpaceOnUse" id="color-10"><stop offset="0" stop-color="#fffffd"/><stop offset="1" stop-color="#fffffd" stop-opacity="0"/></radialGradient><radialGradient cx="311.76395" cy="186.2001" r="13.26684" gradientUnits="userSpaceOnUse" id="color-11"><stop offset="0" stop-color="#fffffd"/><stop offset="1" stop-color="#fffffd" stop-opacity="0"/></radialGradient><radialGradient cx="311.76395" cy="186.2001" r="13.26684" gradientUnits="userSpaceOnUse" id="color-12"><stop offset="0" stop-color="#fffffd"/><stop offset="1" stop-color="#fffffd" stop-opacity="0"/></radialGradient><radialGradient cx="311.76395" cy="186.2001" r="13.26684" gradientUnits="userSpaceOnUse" id="color-13"><stop offset="0" stop-color="#fffffd"/><stop offset="1" stop-color="#fffffd" stop-opacity="0"/></radialGradient><radialGradient cx="311.76395" cy="186.2001" r="13.26684" gradientUnits="userSpaceOnUse" id="color-14"><stop offset="0" stop-color="#fffffd"/><stop offset="1" stop-color="#fffffd" stop-opacity="0"/></radialGradient><radialGradient cx="220.94481" cy="158.33983" r="13.36486" gradientUnits="userSpaceOnUse" id="color-15"><stop offset="0" stop-color="#fb0adc" stop-opacity="0"/><stop offset="1" stop-color="#fb0adc"/></radialGradient></defs><g transform="translate(-137.09406,-104.19594)"><g data-paper-data="{&quot;isPaintingLayer&quot;:true}" fill-rule="nonzero" stroke-linejoin="miter" stroke-miterlimit="10" stroke-dasharray="" stroke-dashoffset="0" style="mix-blend-mode: normal"><path d="M268.88537,204.14123l-16.16351,-0.40747l0.98126,-38.92439l16.16351,0.40747z" fill="#1a1919" stroke="#330d42" stroke-width="1" stroke-linecap="butt"/><path d="M313.62484,143.17875l-22.30831,4.44443l-0.90486,-0.79309l14.0191,-5.80873l-6.78725,-13.77894l12.15439,-5.21386l13.59497,16.26135z" data-paper-data="{&quot;index&quot;:null}" fill="none" stroke="#330d42" stroke-width="1.5" stroke-linecap="round"/><path d="M279.1526,147.16684l-12.52879,8.4807l9.77728,-12.06862z" fill="none" stroke="#330d42" stroke-width="1.5" stroke-linecap="round"/><path d="M274.59572,225.94948l-9.03871,-11.86621l12.23113,8.69874z" fill="none" stroke="#330d42" stroke-width="1.5" stroke-linecap="round"/><path d="M272.09976,196.11394l16.59425,18.14648l-1.16717,3.35384l-20.12764,-17.5589z" fill="none" stroke="#330d42" stroke-width="1.5" stroke-linecap="round"/><path d="M266.54661,169.44925l20.6616,-14.36557l-4.13001,8.15105l-11.48433,9.99564z" fill="none" stroke="#330d42" stroke-width="1.5" stroke-linecap="round"/><path d="M258.10073,160.90876l25.90334,-18.3562l6.45403,10.45328l-23.87125,17.1211z" data-paper-data="{&quot;index&quot;:null}" fill="none" stroke="#330d42" stroke-width="1.5" stroke-linecap="round"/><path d="M266.32065,199.89285l21.7574,17.32931l-6.6019,9.57737l-23.62013,-18.59423z" fill="none" stroke="#330d42" stroke-width="1.5" stroke-linecap="round"/><path d="M283.76617,221.85004l5.58591,-1.48318l14.16547,7.12353l-12.42643,20.52766l-19.49683,-10.3705l-0.05685,-3.11402z" fill="none" stroke="#330d42" stroke-width="1.5" stroke-linecap="round"/><path d="M289.36908,246.53983l-0.99442,1.86956l-17.24541,-8.41912l0.06958,-2.76028z" fill="none" stroke="#330d42" stroke-width="1.5" stroke-linecap="round"/><path d="M271.25562,240.34563l-1.05809,-0.97398l-1.81161,-3.29358l-1.0912,-7.22937l4.64845,5.69507z" fill="none" stroke="#330d42" stroke-width="1.5" stroke-linecap="round"/><path d="M283.92543,221.93558l-2.33231,-5.14752l7.64185,-2.514l5.76097,2.31049l-0.11249,4.46306l-4.85935,-0.49747z" fill="none" stroke="#330d42" stroke-width="1.5" stroke-linecap="round"/><path d="M267.21753,228.74079l14.65972,-12.48689l2.16621,5.33248l-12.1003,12.95739z" fill="none" stroke="#330d42" stroke-width="1.5" stroke-linecap="round"/><path d="M322.77227,231.35894l-14.75857,16.40898l-12.16066,-6.12569l7.66451,-14.15183l-14.03704,-6.84964l0.96717,-0.78761l22.58811,5.84718z" fill="none" stroke="#330d42" stroke-width="1.5" stroke-linecap="round"/><path d="M315.11363,226.97067l0.66114,-2.55461l7.07591,3.83226l0.04946,3.27689z" fill="none" stroke="#330d42" stroke-width="1.5" stroke-linecap="round"/><path d="M273.58963,132.79825l0.2064,-2.94746l19.51341,-8.87967l11.12132,20.05025l-14.1576,6.06202l-5.37473,-1.67598z" data-paper-data="{&quot;index&quot;:null}" fill="none" stroke="#330d42" stroke-width="1.5" stroke-linecap="round"/><path d="M273.55055,130.33373l-0.09242,-2.80226l17.22355,-7.14012l0.879,1.81942z" data-paper-data="{&quot;index&quot;:null}" fill="none" stroke="#330d42" stroke-width="1.5" stroke-linecap="round"/><path d="M273.98573,132.80822l-4.57271,5.20537l1.17852,-6.83143l1.92612,-3.03249l1.07891,-0.87146z" data-paper-data="{&quot;index&quot;:null}" fill="none" stroke="#330d42" stroke-width="1.5" stroke-linecap="round"/><path d="M290.94476,146.64772l4.75485,0.05894l-0.10671,4.23372l-5.72931,1.90961l-7.32941,-2.75224l2.77066,-5.08772z" data-paper-data="{&quot;index&quot;:null}" fill="none" stroke="#330d42" stroke-width="1.5" stroke-linecap="round"/><path d="M273.98573,132.80823l11.49621,12.87064l-2.69661,4.93871l-13.68873,-12.54074z" data-paper-data="{&quot;index&quot;:null}" fill="none" stroke="#330d42" stroke-width="1.5" stroke-linecap="round"/><path d="M323.02795,137.71002l-0.09216,2.54273l-6.70253,4.27553l-0.20265,-2.44424z" data-paper-data="{&quot;index&quot;:null}" fill="none" stroke="#330d42" stroke-width="1.5" stroke-linecap="round"/><path d="M262.00712,199.56645l0.75583,-29.98894l11.05474,0.27861l-0.75583,29.98894z" fill="none" stroke="#330d42" stroke-width="1.5" stroke-linecap="butt"/><path d="M249.76575,198.52825l8.42287,0.86187c0,0 2.03534,3.11433 1.59751,5.34521c-0.43783,2.23087 -3.14946,4.68424 -3.14946,4.68424l-15.61014,0.79747l0.3188,-51.30917l16.0102,0.51177c0,0 2.5637,2.86184 3.22862,5.06152c0.66493,2.19969 -2.09204,5.68527 -2.09204,5.68527l-7.36001,-0.07724z" fill="none" stroke="#330d42" stroke-width="1.5" stroke-linecap="round"/><path d="M249.28934,199.12818l0.74991,-29.75374l8.34987,0.21045l-0.7499,29.75374z" fill="none" stroke="#330d42" stroke-width="1.5" stroke-linecap="butt"/><path d="M250.71541,198.57573l0.73508,-29.16573l0.82323,0.02075l-0.73508,29.16573z" fill="none" stroke="#330d42" stroke-width="1.5" stroke-linecap="butt"/><path d="M253.08229,198.047l0.72026,-28.57771l0.70563,0.01778l-0.72026,28.57771z" fill="none" stroke="#330d42" stroke-width="1.5" stroke-linecap="butt"/><path d="M256.12221,198.82968l0.73211,-29.04813l0.70563,0.01779l-0.73212,29.04812z" fill="none" stroke="#330d42" stroke-width="1.5" stroke-linecap="butt"/><path d="M254.71689,198.5589l0.72619,-28.81291l0.70563,0.01779l-0.72619,28.81291z" fill="none" stroke="#330d42" stroke-width="1.5" stroke-linecap="butt"/><path d="M230.06266,153.05256l0.48248,5.01937l-8.59823,0.18928l-0.77688,-12.13163z" data-paper-data="{&quot;index&quot;:null}" fill="none" stroke="#330d42" stroke-width="1.5" stroke-linecap="round"/><path d="M221.0652,146.80359l0.70778,10.30294l-9.73929,-0.1778z" data-paper-data="{&quot;index&quot;:null}" fill="none" stroke="#330d42" stroke-width="1.5" stroke-linecap="round"/><path d="M224.89836,151.23077l1.3962,0.9825l4.46476,0.04486l-0.9842,1.46383l-6.00474,-0.69267l0.19148,-2.22812z" data-paper-data="{&quot;index&quot;:null}" fill="none" stroke="#330d42" stroke-width="1.5" stroke-linecap="round"/><path d="M225.35808,151.78369l-1.52177,1.31495l-3.15158,-6.50762z" data-paper-data="{&quot;index&quot;:null}" fill="none" stroke="#330d42" stroke-width="1.5" stroke-linecap="round"/><path d="M225.88542,152.33829l-7.66351,-7.36565l-0.59271,-3.33053l13.13354,10.48077z" data-paper-data="{&quot;index&quot;:null}" fill="none" stroke="#330d42" stroke-width="1.5" stroke-linecap="round"/><path d="M224.94052,148.64492c1.1319,-2.80125 2.72119,-1.5121 3.8175,-0.76582c1.09631,0.7463 1.59534,1.75763 0.15258,3.46844c-0.45761,0.54261 -1.61197,0.45742 -2.70828,-0.28887c-1.09631,-0.7463 -1.52775,-1.7556 -1.26183,-2.41372z" data-paper-data="{&quot;index&quot;:null}" fill="none" stroke="#330d42" stroke-width="1.5" stroke-linecap="butt"/><path d="M225.85199,147.38225c0.39942,-0.58677 1.612,-0.45742 2.70831,0.28888c1.09631,0.7463 1.66125,1.82699 1.26183,2.41372c-0.39942,0.58677 -1.612,0.45742 -2.70831,-0.28888c-1.09631,-0.7463 -1.66125,-1.82699 -1.26183,-2.41373z" data-paper-data="{&quot;index&quot;:null}" fill="none" stroke="#330d42" stroke-width="1.5" stroke-linecap="butt"/><path d="M226.37861,148.87864l3.04984,-0.19499" data-paper-data="{&quot;index&quot;:null}" fill="none" stroke="#330d42" stroke-width="1.5" stroke-linecap="round"/><path d="M219.36404,223.15462l1.38702,-12.0771l8.57778,0.62218l-0.73472,4.98871z" fill="none" stroke="#330d42" stroke-width="1.5" stroke-linecap="round"/><path d="M210.78335,211.90894l9.73588,0.31305l-1.22592,10.2542z" fill="none" stroke="#330d42" stroke-width="1.5" stroke-linecap="round"/><path d="M222.38768,218.62959l-0.079,-2.23494l6.03201,-0.38929l0.90922,1.51154l-4.46136,-0.18011l-1.44393,0.91092z" fill="none" stroke="#330d42" stroke-width="1.5" stroke-linecap="round"/><path d="M218.90262,222.66933l3.4754,-6.34059l1.45359,1.38994z" fill="none" stroke="#330d42" stroke-width="1.5" stroke-linecap="round"/><path d="M229.24649,217.65216l-12.05884,8.62787l-0.36824,-1.49792l7.5668,-7.59078z" fill="none" stroke="#330d42" stroke-width="1.5" stroke-linecap="round"/><path d="M220.60526,146.66977l-10.87446,12.29853l-1.09252,-1.68644l9.48939,-12.76999z" data-paper-data="{&quot;index&quot;:null}" fill="none" stroke="#330d42" stroke-width="1.5" stroke-linecap="round"/><path d="M216.71526,224.80133l-8.83404,-13.2318l1.17608,-1.62927l10.24111,12.83073z" fill="none" stroke="#330d42" stroke-width="1.5" stroke-linecap="round"/><path d="M225.83617,124.5861l-11.21719,9.11044l-10.35317,-0.26418l2.76754,-4.23473c0,0 5.19822,-4.75446 9.10727,-6.56853c3.90905,-1.81407 7.45572,-1.93815 7.45572,-1.93815z" data-paper-data="{&quot;index&quot;:null}" fill="none" stroke="#330d42" stroke-width="1.5" stroke-linecap="round"/><path d="M225.56727,124.35202l-9.32767,7.13624l-7.24175,-1.16996l1.94652,-3.59379c0,0 3.60471,-3.30984 6.39395,-4.60424c2.78922,-1.2944 6.35213,-1.49929 6.35213,-1.49929z" data-paper-data="{&quot;index&quot;:null}" fill="none" stroke="#330d42" stroke-width="1.5" stroke-linecap="round"/><path d="M219.36797,248.91585c0,0 -3.49399,-0.62161 -7.10909,-2.96733c-3.61506,-2.34571 -8.09308,-7.78393 -8.09308,-7.78393l-2.14454,-4.58179l10.28742,1.1943l9.82459,10.59731z" fill="none" stroke="#330d42" stroke-width="1.5" stroke-linecap="round"/><path d="M219.52106,248.69271c0,0 -3.49867,-0.70391 -6.07819,-2.37767c-2.57952,-1.67377 -5.68295,-5.45759 -5.68295,-5.45759l-1.4218,-3.83182l7.48599,-0.01127l8.10341,8.67306z" fill="none" stroke="#330d42" stroke-width="1.5" stroke-linecap="round"/><path d="M194.58037,213.80633l11.96399,14.11455l-2.05198,-0.05171l-11.34398,-12.79229l-3.66347,0.93431l-1.62483,-2.18756z" data-paper-data="{&quot;index&quot;:null}" fill="none" stroke="#330d42" stroke-width="1.5" stroke-linecap="round"/><path d="M204.21959,227.58228c0,0 -5.92097,-2.42684 -9.1164,-4.89633c-3.19543,-2.46949 -5.98904,-6.77745 -5.98904,-6.77745l4.21841,-0.73367z" data-paper-data="{&quot;index&quot;:null}" fill="none" stroke="#330d42" stroke-width="1.5" stroke-linecap="round"/><path d="M244.64964,212.00889c0,0 0.41185,26.71176 -27.8375,29.58805c-21.18691,1.40131 -37.9027,-24.43247 -37.9027,-24.43247l11.38213,-0.11387c0,0 15.49693,17.31469 26.05638,15.58404c18.52071,-3.03548 19.60095,-21.14558 19.60095,-21.14558z" data-paper-data="{&quot;index&quot;:null}" fill="none" stroke="#330d42" stroke-width="1.5" stroke-linecap="round"/><path d="M241.47338,212.18827c0,0 0.83733,26.2004 -25.6253,28.00683c-19.2897,1.31678 -34.22859,-23.16883 -34.22859,-23.16883l11.77343,-0.54326c0,0 7.99669,14.62419 22.33361,13.72258c14.84616,-0.93363 17.37588,-19.16161 17.37588,-19.16161z" data-paper-data="{&quot;index&quot;:null}" fill="none" stroke="#330d42" stroke-width="1.5" stroke-linecap="round"/><path d="M241.74729,211.55073c0,0 0.56345,26.83794 -25.89916,28.64437c-19.28973,1.31678 -34.22859,-23.16883 -34.22859,-23.16883l10.36257,-0.11215c0,0 9.37696,15.40563 23.71389,14.50401c14.84616,-0.93363 17.85634,-19.70947 17.85634,-19.70947z" data-paper-data="{&quot;index&quot;:null}" fill="none" stroke="#330d42" stroke-width="1.5" stroke-linecap="round"/><path d="M191.9652,150.92852l1.73297,-2.10293l3.61175,1.11768l11.97399,-12.20459l2.05198,0.05172l-12.6598,13.49395z" fill="none" stroke="#330d42" stroke-width="1.5" stroke-linecap="round"/><path d="M197.49881,149.85471l-4.17606,-0.94524c0,0 3.00708,-4.16176 6.32285,-6.46715c3.31577,-2.30539 9.35145,-4.43087 9.35145,-4.43087z" fill="none" stroke="#330d42" stroke-width="1.5" stroke-linecap="round"/><path d="M247.5467,200.45719l-0.1753,6.95542l-6.95543,-0.1753l0.1753,-6.95542z" data-paper-data="{&quot;index&quot;:null}" fill="none" stroke="#330d42" stroke-width="1.5" stroke-linecap="butt"/><path d="M245.7294,206.08233l-0.15583,6.18259l-5.28096,-0.1331l0.15583,-6.18259z" data-paper-data="{&quot;index&quot;:null}" fill="none" stroke="#330d42" stroke-width="1.5" stroke-linecap="butt"/><path d="M236.87183,156.35359c0,0 -0.16656,-18.14153 -18.51084,-22.10613c-10.45887,-2.2604 -26.80834,14.25167 -26.80834,14.25167l-11.36195,-0.68711c0,0 17.99596,-24.95893 39.08538,-22.4921c28.0686,4.2957 26.31165,30.95281 26.31165,30.95281z" fill="none" stroke="#330d42" stroke-width="1.5" stroke-linecap="round"/><path d="M234.00658,156.65469c0,0 -1.60827,-18.33224 -16.38856,-20.01259c-14.2733,-1.62269 -22.99653,12.5801 -22.99653,12.5801l-11.73112,-1.13566c0,0 16.1534,-23.70198 35.35227,-21.41515c26.338,3.13719 24.18192,29.26215 24.18192,29.26215z" fill="none" stroke="#330d42" stroke-width="1.5" stroke-linecap="round"/><path d="M234.48938,156.01354c0,0 -2.0605,-18.90365 -16.84079,-20.58397c-14.2733,-1.62269 -24.41443,13.29101 -24.41443,13.29101l-10.34376,-0.63402c0,0 16.15336,-23.70198 35.35226,-21.41515c26.338,3.13719 24.93205,30.18328 24.93205,30.18328z" fill="none" stroke="#330d42" stroke-width="1.5" stroke-linecap="round"/><path d="M231.2731,212.03341l0.29541,-11.72119l9.01628,0.22724l-0.29542,11.7212z" fill="none" stroke="#330d42" stroke-width="1.5" stroke-linecap="butt"/><path d="M229.44815,207.73418l0.19153,-7.59944l3.73531,0.09415l-0.19153,7.59943z" fill="none" stroke="#330d42" stroke-width="1.5" stroke-linecap="butt"/><path d="M241.66372,167.95854l0.1753,-6.95542l6.95542,0.1753l-0.17529,6.95542z" data-paper-data="{&quot;index&quot;:null}" fill="none" stroke="#330d42" stroke-width="1.5" stroke-linecap="butt"/><path d="M241.80656,162.29116l0.15908,-6.31142l5.28096,0.1331l-0.15907,6.31142z" data-paper-data="{&quot;index&quot;:null}" fill="none" stroke="#330d42" stroke-width="1.5" stroke-linecap="butt"/><path d="M241.96563,155.97977l-0.29542,11.7212l-9.01628,-0.22725l0.29541,-11.72119z" data-paper-data="{&quot;index&quot;:null}" fill="none" stroke="#330d42" stroke-width="1.5" stroke-linecap="butt"/><path d="M234.64546,160.04852l-0.19153,7.59943l-3.73531,-0.09414l0.19153,-7.59944z" data-paper-data="{&quot;index&quot;:null}" fill="none" stroke="#330d42" stroke-width="1.5" stroke-linecap="butt"/><path d="M231.29973,201.10078l0.86932,-34.49197l10.53972,0.26563l-0.86932,34.49198z" fill="none" stroke="#330d42" stroke-width="1.5" stroke-linecap="butt"/><path d="M206.4893,200.48013l0.96147,-38.14823l24.90361,0.62766l-0.96147,38.14823z" fill="none" stroke="#330d42" stroke-width="1.5" stroke-linecap="butt"/><path d="M204.72257,199.12896l0.78046,-30.96629l18.91759,0.47679c0,0 6.12468,10.55292 5.9921,15.81303c-0.12737,5.05373 -6.77256,15.15326 -6.77256,15.15326z" fill="none" stroke="#330d42" stroke-width="1.5" stroke-linecap="butt"/><path d="M222.94571,173.3622l-0.72031,-1.04479l4.38378,0.11048l0.62705,1.04244z" fill="none" stroke="#330d42" stroke-width="1.5" stroke-linecap="butt"/><path d="M226.98243,194.6501l-0.7513,1.00771l-4.87087,-0.12276l0.85493,-1.0051z" data-paper-data="{&quot;index&quot;:null}" fill="none" stroke="#330d42" stroke-width="1.5" stroke-linecap="butt"/><path d="M203.87845,196.68108l0.69347,-27.51523l16.94749,0.42714c0,0 5.85795,9.38734 5.74015,14.0612c-0.11318,4.49054 -6.43362,13.45402 -6.43362,13.45402z" fill="none" stroke="#330d42" stroke-width="1.5" stroke-linecap="butt"/><path d="M208.22827,212.84161l8.81787,10.46008c0,0 -2.56073,0.14124 -3.81622,1.38929c-1.25549,1.24804 -2.38272,3.45109 -2.38272,3.45109l-8.0257,-10.63705c0,0 -0.23863,-1.49421 2.11994,-3.07613c1.49342,-1.00167 3.28684,-1.58725 3.28684,-1.58725z" data-paper-data="{&quot;index&quot;:null}" fill="none" stroke="#330d42" stroke-width="1.5" stroke-linecap="round"/><path d="M215.45951,227.64071c-1.81443,1.40387 -3.85435,1.80644 -4.55628,0.89925c-0.70193,-0.90719 0.19992,-2.78068 2.01435,-4.18455c1.81443,-1.40387 3.85435,-1.80649 4.55628,-0.89927c0.70193,0.90719 -0.19992,2.7807 -2.01435,4.18457z" data-paper-data="{&quot;index&quot;:null}" fill="none" stroke="#330d42" stroke-width="1.5" stroke-linecap="butt"/><path d="M215.17067,227.78208c-1.29732,1.00377 -2.75586,1.29162 -3.25772,0.64296c-0.50186,-0.64865 0.14294,-1.98819 1.44027,-2.99196c1.29732,-1.00377 2.75586,-1.29164 3.25772,-0.64296c0.50186,0.64865 -0.14294,1.98822 -1.44027,2.99196z" data-paper-data="{&quot;index&quot;:null}" fill="none" stroke="#330d42" stroke-width="1.5" stroke-linecap="butt"/><path d="M215.56196,228.33213c-1.29732,1.00377 -2.75586,1.29164 -3.25772,0.64296c-0.50186,-0.64865 0.14294,-1.98822 1.44027,-2.99196c1.29732,-1.00377 2.75586,-1.29162 3.25772,-0.64296c0.50186,0.64865 -0.14295,1.98819 -1.44024,2.99196z" data-paper-data="{&quot;index&quot;:null}" fill="none" stroke="#330d42" stroke-width="1.5" stroke-linecap="butt"/><path d="M212.82272,219.41403c0,0 -2.32004,1.65738 -3.29896,4.36481c-0.97896,2.70743 0.90867,3.35115 0.90867,3.35115l-1.84546,1.66966l-4.52737,-4.60991l8.11215,-5.73743z" data-paper-data="{&quot;index&quot;:null}" fill="none" stroke="#330d42" stroke-width="1.5" stroke-linecap="round"/><path d="M205.2601,225.11749l-4.99629,-5.70629l6.89753,-5.76804l5.13408,5.26104z" data-paper-data="{&quot;index&quot;:null}" fill="none" stroke="#330d42" stroke-width="1.5" stroke-linecap="round"/><path d="M202.17825,151.78412l10.49919,-11.42298c0,0 0.92453,2.0562 2.00958,3.24937c1.08506,1.19316 3.4085,1.43922 3.4085,1.43922l-11.96529,11.01694z" fill="none" stroke="#330d42" stroke-width="1.5" stroke-linecap="round"/><path d="M218.49175,144.9288c-0.6803,0.79324 -2.51788,0.33327 -4.10433,-1.02732c-1.58645,-1.36059 -2.32103,-3.10659 -1.64076,-3.89983c0.6803,-0.79324 2.51788,-0.3333 4.10433,1.02729c1.58645,1.36059 2.32106,3.10662 1.64076,3.89986z" fill="none" stroke="#330d42" stroke-width="1.5" stroke-linecap="butt"/><path d="M217.76782,143.67545c-0.48641,0.56717 -1.80027,0.2383 -2.93458,-0.73454c-1.13431,-0.97282 -1.65954,-2.22124 -1.17313,-2.78838c0.48641,-0.56717 1.80029,-0.23831 2.9346,0.73453c1.13431,0.97282 1.65955,2.22125 1.17314,2.78839z" fill="none" stroke="#330d42" stroke-width="1.5" stroke-linecap="butt"/><path d="M218.14908,143.19295c-0.48641,0.56717 -1.80027,0.2383 -2.93458,-0.73454c-1.13431,-0.97282 -1.65955,-2.22124 -1.17314,-2.78838c0.48641,-0.56717 1.8003,-0.23831 2.93459,0.73454c1.13431,0.97282 1.65954,2.22124 1.17313,2.78838z" fill="none" stroke="#330d42" stroke-width="1.5" stroke-linecap="butt"/><path d="M213.4379,149.23826l-7.11767,-5.5926l4.36838,-3.86169l1.43291,1.72357c0,0 -1.66226,0.1192 -0.89582,2.62751c0.76644,2.50833 2.84867,4.25804 2.84867,4.25804z" fill="none" stroke="#330d42" stroke-width="1.5" stroke-linecap="round"/><path d="M213.57326,148.74955l-4.91279,4.55122l-6.01113,-5.56471l4.76735,-5.04699z" fill="none" stroke="#330d42" stroke-width="1.5" stroke-linecap="round"/><path d="M216.8403,185.08883l0.09625,-3.81865l1.82977,0.04612l-0.09625,3.81865z" fill="none" stroke="#330d42" stroke-width="1.5" stroke-linecap="butt"/><path d="M216.7681,183.91816l0.01515,-0.60111l1.95647,0.04931l-0.01514,0.6011z" fill="none" stroke="#330d42" stroke-width="1.5" stroke-linecap="butt"/><path d="M217.06495,185.65173l0.01604,-0.63646l1.75022,0.04411l-0.01604,0.63646z" fill="none" stroke="#330d42" stroke-width="1.5" stroke-linecap="butt"/><path d="M213.12962,188.13697l0.23734,-9.41701l3.7067,0.09342l-0.23734,9.41701z" fill="none" stroke="#330d42" stroke-width="1.5" stroke-linecap="butt"/><path d="M217.01982,184.92698l-0.72904,1.0843l-1.102,-0.02778l-0.15995,-1.60794l-1.0018,-0.02524" fill="none" stroke="#330d42" stroke-width="1.5" stroke-linecap="round"/><path d="M209.98757,195.57613l0.22847,-3.41312l9.67707,0.38637l-4.09739,4.31275z" fill="none" stroke="#330d42" stroke-width="1.5" stroke-linecap="round"/><path d="M212.13489,189.50477l5.11071,0.69863l2.21323,2.61994l-9.94743,-0.96298z" fill="none" stroke="#330d42" stroke-width="1.5" stroke-linecap="round"/><path d="M213.96294,196.10369l1.06112,-2.5374" fill="none" stroke="#330d42" stroke-width="1.5" stroke-linecap="round"/><path d="M226.71123,202.86418l-0.30869,7.7737l-2.62628,1.28711l-20.38797,-0.96493l5.54794,-14.29541l16.15545,3.33934z" fill="none" stroke="#330d42" stroke-width="1.5" stroke-linecap="round"/><path d="M224.95535,205.41374l0.05397,-2.14135l-0.92627,-3.51938l2.93599,-0.15155l2.6566,1.98413l0.15154,2.93599z" fill="none" stroke="#330d42" stroke-width="1.5" stroke-linecap="round"/><path d="M225.08791,204.62767l4.8491,0.00944l-0.95936,6.74232l-5.8833,0.75394z" fill="none" stroke="#330d42" stroke-width="1.5" stroke-linecap="round"/><path d="M228.53438,202.12072l-0.03693,1.46513" fill="none" stroke="#330d42" stroke-width="1.5" stroke-linecap="round"/><path d="M227.58637,208.41224l-0.24816,0.89594" fill="none" stroke="#330d42" stroke-width="1.5" stroke-linecap="round"/><path d="M228.53347,206.63171l-0.08998,-0.90447" fill="none" stroke="#330d42" stroke-width="1.5" stroke-linecap="round"/><path d="M225.25371,207.00016l2.47094,0.4006" fill="none" stroke="#330d42" stroke-width="1.5" stroke-linecap="round"/><path d="M226.65351,209.62925l-2.02583,-0.16382" fill="none" stroke="#330d42" stroke-width="1.5" stroke-linecap="round"/><path d="M222.14345,205.11736l-1.29463,6.62113l-14.75564,-0.71022l2.62716,-5.79808l9.91789,0.24996z" fill="none" stroke="#330d42" stroke-width="1.5" stroke-linecap="round"/><path d="M214.55537,206.39219l-2.03809,4.79794l-5.06598,-0.35325l2.24929,-4.22876z" fill="none" stroke="#330d42" stroke-width="1.5" stroke-linecap="round"/><path d="M221.78262,206.01045l-1.26339,5.38137l-6.64382,-0.39302l2.81851,-4.43996z" fill="none" stroke="#330d42" stroke-width="1.5" stroke-linecap="round"/><path d="M209.43745,200.44635l0.09817,7.41002l-6.25076,4.97075l0.52514,-9.53109z" fill="none" stroke="#330d42" stroke-width="1.5" stroke-linecap="round"/><path d="M210.6503,169.27974l-2.84969,-5.62748l-0.97986,-11.99072l4.30676,-1.316l0.02281,10.39965l2.67502,6.90517z" fill="none" stroke="#330d42" stroke-width="1.5" stroke-linecap="round"/><path d="M211.65032,174.81992l-2.8102,-7.19348l6.11798,0.29665l5.10596,6.53906z" fill="none" stroke="#330d42" stroke-width="1.5" stroke-linecap="round"/><path d="M209.13085,173.04698l10.50968,1.26205l-1.04318,1.82559l-8.01177,1.36507z" fill="none" stroke="#330d42" stroke-width="1.5" stroke-linecap="round"/><path d="M215.54791,172.78137l-3.31624,-4.07225" fill="none" stroke="#330d42" stroke-width="1.5" stroke-linecap="round"/><path d="M213.9008,183.14399c-0.29336,11.63972 -4.01286,20.98781 -8.30772,20.87955c-4.29487,-0.10825 -7.53873,-9.63183 -7.24537,-21.27155c0.29336,-11.63972 4.01286,-20.98781 8.30773,-20.87955c4.29487,0.10825 7.53873,9.63184 7.24537,21.27155z" fill="none" stroke="#330d42" stroke-width="1.5" stroke-linecap="butt"/><path d="M210.63806,182.83622c-0.21492,8.5275 -3.1644,15.37045 -6.58784,15.28417c-3.42346,-0.08628 -6.02448,-7.06913 -5.80956,-15.59663c0.21492,-8.5275 3.16442,-15.37043 6.58787,-15.28415c3.42346,0.08628 6.02445,7.06911 5.80953,15.59661z" fill="none" stroke="#330d42" stroke-width="1.5" stroke-linecap="butt"/><path d="M206.67455,192.43498l0.48289,-19.15963l2.25409,0.05681l-0.48289,19.15963z" fill="none" stroke="#330d42" stroke-width="1.5" stroke-linecap="butt"/><path d="M229.66307,166.28666l-3.38111,-0.08522l-11.24193,-1.41107l-2.4748,-9.19716l12.28844,-4.31408l5.64654,-0.30878z" fill="none" stroke="#330d42" stroke-width="1.5" stroke-linecap="round"/><path d="M224.31578,163.67085l-7.75382,-1.09765l-5.40693,-0.24903l-0.45844,-4.18424l0.29451,-7.21017l14.54728,0.02831l-0.3011,11.94657z" fill="none" stroke="#330d42" stroke-width="1.5" stroke-linecap="round"/><path d="M223.9493,164.78938l6.53394,0.27743l-0.32198,3.82625l-1.46231,-0.14964l-4.55551,-2.70864z" fill="none" stroke="#330d42" stroke-width="1.5" stroke-linecap="round"/><path d="M228.47728,164.11409l-0.01894,-3.72206l1.23976,0.03125l0.02272,-0.90164l-0.78894,-0.01989l0.09658,-3.8319l0.67337,0.12972l0.24532,-0.78322l-0.79175,0.09281l0.09658,-3.8319l4.618,0.22915l-0.19223,3.15284l-1.2568,0.64497l1.46231,0.14964l0.01327,3.94746l-1.93586,0.74065l2.03434,-0.1743l-0.0066,4.7364z" fill="none" stroke="#330d42" stroke-width="1.5" stroke-linecap="round"/><path d="M225.40579,151.74413l-0.24428,9.69252l-0.93287,1.21704l-4.4769,-1.35337l-0.20936,-9.59115z" fill="none" stroke="#330d42" stroke-width="1.5" stroke-linecap="round"/><path d="M218.40115,152.24425l-0.55115,8.44425l-1.03706,0.87608l-4.50247,-0.33905l-0.63078,-1.82028l0.10036,-8.45561l5.39273,0.81257z" fill="none" stroke="#330d42" stroke-width="1.5" stroke-linecap="round"/><path d="M230.78628,157.5185l0.14487,-5.74788l0.78891,0.01989l-0.14487,5.74788z" fill="none" stroke="#330d42" stroke-width="1.5" stroke-linecap="butt"/><path d="M216.37779,198.46866l4.28334,-2.89938l2.05328,2.05664l-2.47504,2.74448z" fill="none" stroke="#330d42" stroke-width="1.5" stroke-linecap="round"/><path d="M219.99436,198.15886l3.70754,-3.91634l2.35132,2.16437l-3.80264,3.71346z" fill="none" stroke="#330d42" stroke-width="1.5" stroke-linecap="round"/><path d="M220.48518,198.57221l-1.47997,-0.93952l2.70064,-3.74124l2.19894,0.2559z" fill="none" stroke="#330d42" stroke-width="1.5" stroke-linecap="round"/><path d="M198.94312,236.96908l2.66249,-9.35932" fill="none" stroke="#330d42" stroke-width="1.5" stroke-linecap="round"/><path d="M183.80084,223.05442l3.66893,-4.85407" fill="none" stroke="#330d42" stroke-width="1.5" stroke-linecap="round"/><path d="M213.63459,231.73951l-0.27034,10.72627" fill="none" stroke="#330d42" stroke-width="1.5" stroke-linecap="round"/><path d="M222.64512,229.72664l6.70229,8.10209" fill="none" stroke="#330d42" stroke-width="1.5" stroke-linecap="round"/><path d="M231.29114,219.95811l10.4692,3.06381" fill="none" stroke="#330d42" stroke-width="1.5" stroke-linecap="round"/><path d="M201.39887,132.12673l-0.77599,-2.53948l3.02472,9.59601" fill="none" stroke="#330d42" stroke-width="1.5" stroke-linecap="round"/><path d="M216.1695,127.45912l0.05879,-2.33178l-0.08381,10.73096" fill="none" stroke="#330d42" stroke-width="1.5" stroke-linecap="round"/><path d="M186.62907,144.16756l-1.24701,-2.36472l3.92531,7.1921" fill="none" stroke="#330d42" stroke-width="1.5" stroke-linecap="round"/><path d="M230.5467,130.99476l1.15922,-1.55742l-6.58225,9.35389" fill="none" stroke="#330d42" stroke-width="1.5" stroke-linecap="round"/><path d="M232.5416,148.12463l11.5477,-2.69557l-1.88191,0.60589" fill="none" stroke="#330d42" stroke-width="1.5" stroke-linecap="round"/><path d="M197.23702,152.09429c8.81154,-4.7541 10.2862,7.11597 10.2862,7.11597c0,0 -0.0931,17.6243 -0.40002,26.14878c-0.29401,8.16575 -1.40443,23.96815 -1.40443,23.96815c0,0 -1.4687,5.6266 -6.30379,6.69784c-3.21344,0.71196 -13.61944,-7.71161 -17.42048,-17.5809c-3.80104,-9.86927 3.1209,-9.27854 3.26698,-15.07465c0.14609,-5.79611 -5.33466,-12.54608 -2.97168,-18.11891c2.36298,-5.57283 6.13571,-8.40221 14.94725,-13.1563z" fill="none" stroke="#330d42" stroke-width="1.5" stroke-linecap="round"/><path d="M180.38495,154.91746c0,0 17.81673,-1.13042 21.13447,-0.91085c1.4644,0.09692 2.80297,0.3736 3.34437,3.33221c0.52779,2.88436 2.30284,14.56403 2.0686,25.31377c-0.23423,10.74974 -2.42891,23.88475 -3.01234,26.4488c-0.58342,2.56404 -1.96505,3.47967 -3.87774,3.51106c-2.94796,0.04839 -18.84331,-4.08372 -18.84331,-4.08372l-0.8141,-53.61127z" fill="none" stroke="#330d42" stroke-width="1.5" stroke-linecap="round"/><path d="M202.71296,167.55325c0.99357,2.54622 1.64185,9.23555 1.64185,9.23555l1.85416,0.13426l-0.61451,14.50515l-1.91316,0.72682c0,0 0.46335,5.76146 -1.19794,8.06929c-9.62935,13.3772 -18.89427,3.30999 -19.09583,-3.62839c-0.09656,-3.32433 3.55072,-14.32202 3.55072,-14.32202c0,0 -4.43449,-14.08033 -4.92292,-17.5648c-0.33302,-2.37548 15.4599,-10.57863 20.69767,2.8441z" fill="none" stroke="#330d42" stroke-width="1.5" stroke-linecap="round"/><path d="M192.90699,159.23283c5.68499,0.14328 10.15964,5.57446 9.9944,12.13089c-0.16524,6.55643 -4.90782,11.75529 -10.59281,11.612c-5.68499,-0.14329 -10.15964,-5.57445 -9.9944,-12.13089c0.16524,-6.55643 4.90782,-11.75529 10.59281,-11.61201z" fill="none" stroke="#330d42" stroke-width="1.5" stroke-linecap="butt"/><path d="M192.0118,182.81785c5.68499,0.14329 10.15962,5.57449 9.99438,12.13089c-0.16524,6.5564 -4.90779,11.75529 -10.59278,11.612c-5.68499,-0.14329 -10.15961,-5.57448 -9.99437,-12.13088c0.16524,-6.5564 4.90779,-11.7553 10.59278,-11.61201z" fill="none" stroke="#330d42" stroke-width="1.5" stroke-linecap="butt"/><path d="M184.85634,195.26834l0.50372,-19.9861l13.67472,0.34465l-0.50372,19.9861z" fill="none" stroke="#330d42" stroke-width="1.5" stroke-linecap="butt"/><path d="M189.49777,174.48376c-3.49795,-3.71179 -3.92166,-8.9938 -0.94637,-11.79772c2.97532,-2.80397 8.22293,-2.06804 11.72093,1.64374c3.49795,3.71179 3.92166,8.9938 0.94637,11.79772c-2.97532,2.80397 -8.22295,2.06801 -11.72093,-1.64376z" data-paper-data="{&quot;index&quot;:null}" fill="none" stroke="#330d42" stroke-width="1.5" stroke-linecap="butt"/><path d="M200.59059,191.28577c2.83023,2.95023 2.14104,8.20423 -1.53948,11.73507c-3.68055,3.53084 -8.95857,4.00151 -11.78886,1.0512c-2.83023,-2.95023 -2.14103,-8.20422 1.53948,-11.73506c3.68055,-3.53084 8.95856,-4.00152 11.78885,-1.05121z" fill="none" stroke="#330d42" stroke-width="1.5" stroke-linecap="butt"/><path d="M197.48232,192.13664c1.98579,0.56428 3.22785,2.31586 2.77427,3.91227c-0.45362,1.59645 -2.43117,2.43316 -4.41696,1.86889c-1.98579,-0.56428 -3.22788,-2.31582 -2.77427,-3.91228c0.45362,-1.59645 2.43118,-2.43316 4.41697,-1.86888z" fill="none" stroke="#330d42" stroke-width="1.5" stroke-linecap="butt"/><path d="M193.94897,168.03787c0.73236,-0.71143 2.04348,-0.54964 2.92848,0.36136c0.88497,0.91102 1.0087,2.22627 0.27627,2.93773c-0.73236,0.71143 -2.04351,0.54967 -2.92848,-0.36136c-0.88497,-0.91102 -1.00867,-2.22627 -0.27627,-2.93773z" data-paper-data="{&quot;index&quot;:null}" fill="none" stroke="#330d42" stroke-width="1.5" stroke-linecap="butt"/><path d="M197.26379,192.90581c1.45736,0.41411 2.36891,1.6996 2.03603,2.87118c-0.33291,1.17163 -1.78422,1.78569 -3.24161,1.37158c-1.45736,-0.41411 -2.36891,-1.69958 -2.03602,-2.87118c0.33291,-1.17163 1.78422,-1.7857 3.2416,-1.37158z" fill="none" stroke="#330d42" stroke-width="1.5" stroke-linecap="butt"/><path d="M194.38543,168.48718c0.5329,-0.51765 1.48688,-0.39995 2.13083,0.26292c0.64395,0.66286 0.73394,1.61992 0.20103,2.13758c-0.5329,0.51765 -1.48691,0.3999 -2.13083,-0.26295c-0.64395,-0.66286 -0.73391,-1.61989 -0.20103,-2.13755z" data-paper-data="{&quot;index&quot;:null}" fill="none" stroke="#330d42" stroke-width="1.5" stroke-linecap="butt"/><path d="M192.12643,163.82704c0,0 2.19517,-0.78327 3.84737,-0.04549c1.65216,0.73778 3.72896,4.65247 3.72896,4.65247" fill="none" stroke="#330d42" stroke-width="1.5" stroke-linecap="round"/><path d="M190.89423,167.49975l-1.53729,-1.17837l1.62341,-2.23835" fill="none" stroke="#330d42" stroke-width="1.5" stroke-linecap="round"/><path d="M192.09411,165.10832l-1.08149,-2.30652" fill="none" stroke="#330d42" stroke-width="1.5" stroke-linecap="round"/><path d="M198.15111,167.82513l1.85071,0.04665l-0.03229,1.28125" fill="none" stroke="#330d42" stroke-width="1.5" stroke-linecap="round"/><path d="M199.3391,171.55885c0,0 0.99793,-0.24367 1.27769,0.17465c0.27977,0.41832 0.57055,1.40108 0.36966,2.28858c-0.20089,0.8875 -4.08837,2.22904 -6.02588,1.70001c-1.93753,-0.52904 -4.18118,-3.6667 -4.18118,-3.6667" fill="none" stroke="#330d42" stroke-width="1.5" stroke-linecap="round"/><path d="M197.72288,173.51244l0.63647,3.00758" fill="none" stroke="#330d42" stroke-width="1.5" stroke-linecap="round"/><path d="M190.49828,171.90581l-0.93553,-2.44526" fill="none" stroke="#330d42" stroke-width="1.5" stroke-linecap="round"/><path d="M191.78311,171.79575l-2.29572,0.6544" fill="none" stroke="#330d42" stroke-width="1.5" stroke-linecap="round"/><path d="M181.55924,197.9303l4.20217,-8.06725l5.41329,1.98748l-3.72597,7.56819z" fill="none" stroke="#330d42" stroke-width="1.5" stroke-linecap="round"/><path d="M188.55325,166.46143l2.57958,8.03161l-5.64573,1.17477l-2.97771,-8.59487z" data-paper-data="{&quot;index&quot;:null}" fill="none" stroke="#330d42" stroke-width="1.5" stroke-linecap="round"/><path d="M201.97156,153.02707c0,0 -10.38114,3.76652 -14.16564,12.31676c-3.7845,8.55024 1.42101,12.71758 1.2602,18.18319c-0.16081,5.46561 -6.10951,7.55832 -3.38419,14.95141c1.85653,5.03625 14.67003,14.54717 14.67003,14.54717l-2.21977,2.84399c0,0 -11.11959,-7.30846 -14.18118,-16.89777c-3.06159,-9.58931 2.99959,-9.53962 3.07297,-15.38884c0.07334,-5.84923 -4.26323,-9.98804 -3.15174,-15.15601c2.47426,-11.5041 17.19819,-18.00031 17.19819,-18.00031z" fill="none" stroke="#330d42" stroke-width="1.5" stroke-linecap="round"/><path d="M194.72041,216.14961c0,0 -8.76746,3.69232 -19.65551,-0.49538c-9.02476,-3.47105 -19.71444,-8.88879 -25.6291,-14.05769c-5.82366,-5.08938 -11.88822,-11.61199 -11.19035,-21.35764c0.69787,-9.74565 5.04526,-13.81856 13.86177,-20.20366c8.45811,-6.12553 22.70322,-10.72297 27.36912,-12.02524c8.44266,-2.35632 19.96351,2.59329 19.96351,2.59329l-7.29636,3.12549l-7.75795,7.11999l-2.84966,5.67606l0.6691,9.2483l2.7887,3.90221l0.09698,3.31184l-3.18837,4.79664l-1.41145,5.8865l2.13363,8.41434l7.18279,8.5416l4.91313,5.52337z" fill="none" stroke="#330d42" stroke-width="1.5" stroke-linecap="round"/><path d="M145.36681,165.7635c0,0 2.67483,-3.36324 4.92954,-5.46942c2.25474,-2.10618 7.14178,-4.15056 7.14178,-4.15056c0,0 3.82505,-0.66223 9.69215,2.04866c5.8671,2.71089 13.31536,8.63586 13.31536,8.63586l-2.60785,10.39982l-1.72143,-3.29132c0,0 -6.84624,-8.51179 -10.75446,-10.01482c-3.90821,-1.50304 -10.3331,1.90485 -10.3331,1.90485z" fill="none" stroke="#330d42" stroke-width="1.5" stroke-linecap="round"/><path d="M155.49381,197.4909c0,0 6.24506,3.72722 10.22402,2.42297c3.97896,-1.30425 11.24531,-9.46036 11.24531,-9.46036l1.88504,-3.20041l2.08064,10.51797c0,0 -7.73728,5.54223 -13.73349,7.95412c-5.99621,2.41189 -9.78304,1.55782 -9.78304,1.55782c0,0 -4.77784,-2.28798 -6.92362,-4.50507c-2.14576,-2.21709 -5.90949,-5.36668 -5.90949,-5.36668z" data-paper-data="{&quot;index&quot;:null}" fill="none" stroke="#330d42" stroke-width="1.5" stroke-linecap="round"/><path d="M165.03935,198.19722c-6.68955,2.10243 -17.90224,1.53365 -17.90224,1.53365c0,0 -9.11721,-4.78716 -8.91792,-18.44924c0.1288,-8.83051 7.44174,-16.05207 7.44174,-16.05207c0,0 3.98352,-1.99505 15.34133,-0.15467c14.49959,2.34947 23.1909,17.72633 23.1909,17.72633c0,0 -4.25045,10.71209 -19.15381,15.39599z" fill="none" stroke="#330d42" stroke-width="1.5" stroke-linecap="round"/><path d="M137.86272,182.89664l0.0409,-1.62293l44.31504,1.1169l-0.0409,1.62293z" fill="none" stroke="#330d42" stroke-width="1.5" stroke-linecap="butt"/><path d="M194.57304,150.40318l7.20861,0.35731c0,0 -12.1616,5.9059 -16.43824,15.03987c-4.27664,9.13396 2.3626,10.67858 2.29794,16.21456c-0.06466,5.53595 -5.50107,10.69816 -2.989,18.36433c2.44114,7.44978 15.12763,15.48423 15.12763,15.48423l-7.76287,0.15556c0,0 -11.02506,-6.8524 -14.01026,-16.86098c-2.9852,-10.00858 4.08719,-11.82123 3.81987,-15.53353c-0.24091,-3.34542 -4.914,-9.42247 -3.1642,-17.64131c1.08425,-5.0927 15.91052,-15.58 15.91052,-15.58z" fill="none" stroke="#330d42" stroke-width="1.5" stroke-linecap="round"/><path d="M184.68489,181.18971c1.64328,0.04142 2.95198,1.00341 2.92312,2.14872c-0.02887,1.14531 -1.38437,2.04018 -3.02764,1.99876c-1.64327,-0.04142 -2.95198,-1.00344 -2.92311,-2.14875c0.02886,-1.14531 1.38436,-2.04015 3.02763,-1.99873z" fill="none" stroke="#330d42" stroke-width="1.5" stroke-linecap="butt"/><path d="M223.25644,220.8324c-0.23243,-0.67068 0.24931,-1.65697 1.38182,-2.34709c1.13252,-0.69011 2.28972,-0.71705 2.71942,-0.15208c1.35474,1.78131 0.8054,2.76623 -0.32711,3.45634c-1.13252,0.69011 -2.78477,1.89757 -3.77411,-0.95715z" fill="none" stroke="#330d42" stroke-width="1.5" stroke-linecap="butt"/><path d="M225.48499,219.79228c1.13252,-0.69011 2.35004,-0.75822 2.7194,-0.15208c0.36935,0.60612 -0.24931,1.65697 -1.38182,2.34709c-1.13252,0.69015 -2.35005,0.75825 -2.7194,0.15211c-0.36935,-0.60614 0.2493,-1.657 1.38182,-2.34712z" fill="none" stroke="#330d42" stroke-width="1.5" stroke-linecap="butt"/><path d="M227.74065,221.01982l-3.03614,-0.34838" fill="none" stroke="#330d42" stroke-width="1.5" stroke-linecap="round"/><path d="M243.41993,195.32667l0.55187,-21.89671l40.31568,1.0161l-0.55188,21.8967z" fill="none" stroke="#330d42" stroke-width="1.5" stroke-linecap="butt"/><path d="M301.05512,224.03279l0.62595,-24.83578l18.82151,0.22831l-2.87137,24.28707z" fill="none" stroke="#330d42" stroke-width="1.5" stroke-linecap="round"/><path d="M319.54005,147.9756l1.86418,25.6367l-19.0538,-0.97234l0.90781,-26.05896z" fill="none" stroke="#330d42" stroke-width="1.5" stroke-linecap="round"/><path d="M311.5992,124.40025l8.1855,23.82756l-17.29149,-1.17394l-5.17508,-23.75172z" fill="none" stroke="#330d42" stroke-width="1.5" stroke-linecap="round"/><path d="M308.52136,246.51969l-13.11815,-0.41513l5.66668,-22.6558l17.07162,-0.06185z" fill="none" stroke="#330d42" stroke-width="1.5" stroke-linecap="round"/><path d="M309.28634,246.04687l-11.78499,19.38738l-12.55592,0.17566l10.53686,-19.66489z" fill="none" stroke="#330d42" stroke-width="1.5" stroke-linecap="round"/><path d="M278.99981,174.84869l10.6123,-17.11177l4.48875,0.11313l-1.40292,55.66371l-4.48517,-0.25549l-9.60154,-17.05144z" fill="none" stroke="#330d42" stroke-width="1.5" stroke-linecap="round"/><path d="M301.77208,105.94452l10.5673,18.9665l-14.28723,-0.8522l-9.06208,-18.92857z" fill="none" stroke="#330d42" stroke-width="1.5" stroke-linecap="round"/><path d="M293.3018,147.47835l-3.12175,-19.32567l-7.0515,-18.52246l6.72558,-4.34148l9.14014,19.1766l4.84166,22.67705l-0.9604,25.60474l-10.20713,-0.13725z" fill="none" stroke="#330d42" stroke-width="1.5" stroke-linecap="butt"/><path d="M258.24869,189.93976l0.25787,-10.23153l14.46527,0.36458l-0.25787,10.23152z" fill="none" stroke="#330d42" stroke-width="1.5" stroke-linecap="butt"/><path d="M258.0461,188.64019l0.18969,-7.52664l14.81806,0.37348l-0.18969,7.52664z" fill="none" stroke="#330d42" stroke-width="1.5" stroke-linecap="butt"/><path d="M256.36029,184.71427c-0.03765,1.49389 -0.98959,2.68167 -2.12625,2.65302c-1.13665,-0.02865 -2.02754,-1.26288 -1.98989,-2.75676c0.03765,-1.49389 0.98959,-2.68166 2.12625,-2.65302c1.13665,0.02865 2.02754,1.26288 1.98989,2.75675z" fill="none" stroke="#330d42" stroke-width="1.5" stroke-linecap="butt"/><path d="M255.53706,184.69353c-0.03765,1.49389 -0.98959,2.68167 -2.12625,2.65302c-1.13665,-0.02865 -2.02755,-1.26288 -1.9899,-2.75676c0.03765,-1.49389 0.98959,-2.68166 2.12625,-2.65301c1.13665,0.02865 2.02755,1.26287 1.9899,2.75675z" fill="none" stroke="#330d42" stroke-width="1.5" stroke-linecap="butt"/><path d="M272.59339,190.41898l0.2638,-10.46673l6.97917,3.23555l-0.22431,4.23075z" fill="none" stroke="#330d42" stroke-width="1.5" stroke-linecap="butt"/><path d="M279.94226,259.91679l7.01339,-15.76214l4.43731,-20.9395l0.59289,-23.52418l10.20217,-0.09381l-0.87717,23.86792l-5.67734,22.41193l-9.51621,19.60861z" fill="none" stroke="#330d42" stroke-width="1.5" stroke-linecap="butt"/><path d="M293.33429,199.56941l0.68532,-27.19122l16.08696,0.40545l-0.68532,27.19122z" fill="none" stroke="#330d42" stroke-width="1.5" stroke-linecap="butt"/><path d="M296.11094,196.79033l0.55615,-22.06619l8.82648,0.22246l-0.55615,22.06618z" fill="none" stroke="#330d42" stroke-width="1.5" stroke-linecap="butt"/><path d="M313.62484,143.17875l-22.30831,4.44443l-0.90486,-0.79309l14.0191,-5.80873l-6.78725,-13.77894l12.15439,-5.21386l13.59497,16.26135z" data-paper-data="{&quot;index&quot;:null}" fill="#b61a00" stroke="#000000" stroke-width="0" stroke-linecap="round"/><path d="M279.1526,147.16684l-12.52879,8.4807l9.77728,-12.06862z" fill="#3e3645" stroke="#000000" stroke-width="0" stroke-linecap="round"/><path d="M274.59572,225.94948l-9.03871,-11.86621l12.23113,8.69874z" fill="#3e3645" stroke="#000000" stroke-width="0" stroke-linecap="round"/><path d="M272.09976,196.11394l16.59425,18.14648l-1.16717,3.35384l-20.12764,-17.5589z" fill="#3d3738" stroke="#000000" stroke-width="0" stroke-linecap="round"/><path d="M266.54661,169.44925l20.6616,-14.36557l-4.13001,8.15105l-11.48433,9.99564z" fill="#3d3738" stroke="#000000" stroke-width="0" stroke-linecap="round"/><path d="M258.10073,160.90876l25.90334,-18.3562l6.45403,10.45328l-23.87125,17.1211z" data-paper-data="{&quot;index&quot;:null}" fill="#7f7373" stroke="#938489" stroke-width="0.375" stroke-linecap="round"/><path d="M266.32065,199.89285l21.7574,17.32931l-6.6019,9.57737l-23.62013,-18.59423z" fill="#7f7373" stroke="#938489" stroke-width="0.375" stroke-linecap="round"/><path d="M283.76617,221.85004l5.58591,-1.48318l14.16547,7.12353l-12.42643,20.52766l-19.49683,-10.3705l-0.05685,-3.11402z" fill="#f24500" stroke="#000000" stroke-width="0" stroke-linecap="round"/><path d="M289.36908,246.53983l-0.99442,1.86956l-17.24541,-8.41912l0.06958,-2.76028z" fill="#d4340d" stroke="#000000" stroke-width="0" stroke-linecap="round"/><path d="M271.25562,240.34563l-1.05809,-0.97398l-1.81161,-3.29358l-1.0912,-7.22937l4.64845,5.69507z" fill="#ed6b0a" stroke="#000000" stroke-width="0" stroke-linecap="round"/><path d="M283.92543,221.93558l-2.33231,-5.14752l7.64185,-2.514l5.76097,2.31049l-0.11249,4.46306l-4.85935,-0.49747z" fill="#f36501" stroke="#000000" stroke-width="0" stroke-linecap="round"/><path d="M267.21753,228.74079l14.65972,-12.48689l2.16621,5.33248l-12.1003,12.95739z" fill="#ff8501" stroke="#000000" stroke-width="0" stroke-linecap="round"/><path d="M322.77227,231.35894l-14.75857,16.40898l-12.16066,-6.12569l7.66451,-14.15183l-14.03704,-6.84964l0.96717,-0.78761l22.58811,5.84718z" fill="#b61a00" stroke="#000000" stroke-width="0" stroke-linecap="round"/><path d="M315.11363,226.97067l0.66114,-2.55461l7.07591,3.83226l0.04946,3.27689z" fill="#8f1800" stroke="#000000" stroke-width="0" stroke-linecap="round"/><path d="M273.58963,132.79825l0.2064,-2.94746l19.51341,-8.87967l11.12132,20.05025l-14.1576,6.06202l-5.37473,-1.67598z" data-paper-data="{&quot;index&quot;:null}" fill="#f24500" stroke="#000000" stroke-width="0" stroke-linecap="round"/><path d="M273.55055,130.33373l-0.09242,-2.80226l17.22355,-7.14012l0.879,1.81942z" data-paper-data="{&quot;index&quot;:null}" fill="#d4340d" stroke="#000000" stroke-width="0" stroke-linecap="round"/><path d="M273.98573,132.80822l-4.57271,5.20537l1.17852,-6.83143l1.92612,-3.03249l1.07891,-0.87146z" data-paper-data="{&quot;index&quot;:null}" fill="#ed6b0a" stroke="#000000" stroke-width="0" stroke-linecap="round"/><path d="M290.94476,146.64772l4.75485,0.05894l-0.10671,4.23372l-5.72931,1.90961l-7.32941,-2.75224l2.77066,-5.08772z" data-paper-data="{&quot;index&quot;:null}" fill="#f36501" stroke="#000000" stroke-width="0" stroke-linecap="round"/><path d="M273.98573,132.80823l11.49621,12.87064l-2.69661,4.93871l-13.68873,-12.54074z" data-paper-data="{&quot;index&quot;:null}" fill="#ff8501" stroke="#000000" stroke-width="0" stroke-linecap="round"/><path d="M323.02795,137.71002l-0.09216,2.54273l-6.70253,4.27553l-0.20265,-2.44424z" data-paper-data="{&quot;index&quot;:null}" fill="#8f1800" stroke="#000000" stroke-width="0" stroke-linecap="round"/><path d="M262.00712,199.56645l0.75583,-29.98894l11.05474,0.27861l-0.75583,29.98894z" fill="#24251e" stroke="none" stroke-width="0" stroke-linecap="butt"/><path d="M249.76575,198.52825l8.42287,0.86187c0,0 2.03534,3.11433 1.59751,5.34521c-0.43783,2.23087 -3.14946,4.68424 -3.14946,4.68424l-15.61014,0.79747l0.3188,-51.30917l16.0102,0.51177c0,0 2.5637,2.86184 3.22862,5.06152c0.66493,2.19969 -2.09204,5.68527 -2.09204,5.68527l-7.36001,-0.07724z" fill="#252324" stroke="#000000" stroke-width="0" stroke-linecap="round"/><path d="M249.28934,199.12818l0.74991,-29.75374l8.34987,0.21045l-0.7499,29.75374z" fill="#211e1f" stroke="none" stroke-width="0" stroke-linecap="butt"/><path d="M250.71541,198.57573l0.73508,-29.16573l0.82323,0.02075l-0.73508,29.16573z" fill="#1b1919" stroke="none" stroke-width="0" stroke-linecap="butt"/><path d="M253.08229,198.047l0.72026,-28.57771l0.70563,0.01778l-0.72026,28.57771z" fill="#1b1919" stroke="none" stroke-width="0" stroke-linecap="butt"/><path d="M256.12221,198.82968l0.73211,-29.04813l0.70563,0.01779l-0.73212,29.04812z" fill="#1b1919" stroke="none" stroke-width="0" stroke-linecap="butt"/><path d="M254.71689,198.5589l0.72619,-28.81291l0.70563,0.01779l-0.72619,28.81291z" fill="#1b1919" stroke="none" stroke-width="0" stroke-linecap="butt"/><path d="M230.06266,153.05256l0.48248,5.01937l-8.59823,0.18928l-0.77688,-12.13163z" data-paper-data="{&quot;index&quot;:null}" fill="#544f51" stroke="#000000" stroke-width="0" stroke-linecap="round"/><path d="M221.0652,146.80359l0.70778,10.30294l-9.73929,-0.1778z" data-paper-data="{&quot;index&quot;:null}" fill="#7b7776" stroke="#8c8887" stroke-width="0.25" stroke-linecap="round"/><path d="M224.89836,151.23077l1.3962,0.9825l4.46476,0.04486l-0.9842,1.46383l-6.00474,-0.69267l0.19148,-2.22812z" data-paper-data="{&quot;index&quot;:null}" fill="#1b1917" stroke="#000000" stroke-width="0" stroke-linecap="round"/><path d="M225.35808,151.78369l-1.52177,1.31495l-3.15158,-6.50762z" data-paper-data="{&quot;index&quot;:null}" fill="#393534" stroke="#000000" stroke-width="0" stroke-linecap="round"/><path d="M225.88542,152.33829l-7.66351,-7.36565l-0.59271,-3.33053l13.13354,10.48077z" data-paper-data="{&quot;index&quot;:null}" fill="#282320" stroke="#000000" stroke-width="0" stroke-linecap="round"/><path d="M224.94052,148.64492c1.1319,-2.80125 2.72119,-1.5121 3.8175,-0.76582c1.09631,0.7463 1.59534,1.75763 0.15258,3.46844c-0.45761,0.54261 -1.61197,0.45742 -2.70828,-0.28887c-1.09631,-0.7463 -1.52775,-1.7556 -1.26183,-2.41372z" data-paper-data="{&quot;index&quot;:null}" fill="#443e42" stroke="none" stroke-width="0" stroke-linecap="butt"/><path d="M225.85199,147.38225c0.39942,-0.58677 1.612,-0.45742 2.70831,0.28888c1.09631,0.7463 1.66125,1.82699 1.26183,2.41372c-0.39942,0.58677 -1.612,0.45742 -2.70831,-0.28888c-1.09631,-0.7463 -1.66125,-1.82699 -1.26183,-2.41373z" data-paper-data="{&quot;index&quot;:null}" fill="#7c7080" stroke="none" stroke-width="0" stroke-linecap="butt"/><path d="M226.37861,148.87864l3.04984,-0.19499" data-paper-data="{&quot;index&quot;:null}" fill="none" stroke="#3f393c" stroke-width="0.25" stroke-linecap="round"/><path d="M219.36404,223.15462l1.38702,-12.0771l8.57778,0.62218l-0.73472,4.98871z" fill="#544f51" stroke="#000000" stroke-width="0" stroke-linecap="round"/><path d="M210.78335,211.90894l9.73588,0.31305l-1.22592,10.2542z" fill="#7b7776" stroke="#8c8887" stroke-width="0.25" stroke-linecap="round"/><path d="M222.38768,218.62959l-0.079,-2.23494l6.03201,-0.38929l0.90922,1.51154l-4.46136,-0.18011l-1.44393,0.91092z" fill="#1b1917" stroke="#000000" stroke-width="0" stroke-linecap="round"/><path d="M218.90262,222.66933l3.4754,-6.34059l1.45359,1.38994z" fill="#393534" stroke="#000000" stroke-width="0" stroke-linecap="round"/><path d="M229.24649,217.65216l-12.05884,8.62787l-0.36824,-1.49792l7.5668,-7.59078z" fill="#282320" stroke="#000000" stroke-width="0" stroke-linecap="round"/><path d="M220.60526,146.66977l-10.87446,12.29853l-1.09252,-1.68644l9.48939,-12.76999z" data-paper-data="{&quot;index&quot;:null}" fill="#393534" stroke="#000000" stroke-width="0" stroke-linecap="round"/><path d="M216.71526,224.80133l-8.83404,-13.2318l1.17608,-1.62927l10.24111,12.83073z" fill="#393534" stroke="#000000" stroke-width="0" stroke-linecap="round"/><path d="M225.83617,124.5861l-11.21719,9.11044l-10.35317,-0.26418l2.76754,-4.23473c0,0 5.19822,-4.75446 9.10727,-6.56853c3.90905,-1.81407 7.45572,-1.93815 7.45572,-1.93815z" data-paper-data="{&quot;index&quot;:null}" fill="#d23e28" stroke="#000000" stroke-width="0" stroke-linecap="round"/><path d="M225.56727,124.352l-9.32767,7.13624l-7.24174,-1.16997l1.94652,-3.59379c0,0 3.60471,-3.30983 6.39395,-4.60423c2.78922,-1.2944 6.35213,-1.4993 6.35213,-1.4993z" data-paper-data="{&quot;index&quot;:null}" fill="#941300" stroke="#000000" stroke-width="0" stroke-linecap="round"/><path d="M219.36797,248.91585c0,0 -3.49399,-0.62161 -7.10909,-2.96733c-3.61506,-2.34571 -8.09308,-7.78393 -8.09308,-7.78393l-2.14454,-4.58179l10.28742,1.1943l9.82459,10.59731z" fill="#d23e28" stroke="#000000" stroke-width="0" stroke-linecap="round"/><path d="M219.52106,248.69271c0,0 -3.49867,-0.70391 -6.07819,-2.37767c-2.57952,-1.67377 -5.68295,-5.45759 -5.68295,-5.45759l-1.4218,-3.83182l7.48599,-0.01127l8.10341,8.67306z" fill="#941300" stroke="#000000" stroke-width="0" stroke-linecap="round"/><path d="M194.58037,213.80633l11.96399,14.11455l-2.05198,-0.05171l-11.34398,-12.79229l-3.66347,0.93431l-1.62483,-2.18756z" data-paper-data="{&quot;index&quot;:null}" fill="#aa4517" stroke="#000000" stroke-width="0" stroke-linecap="round"/><path d="M204.21959,227.58228c0,0 -5.92097,-2.42684 -9.1164,-4.89633c-3.19543,-2.46949 -5.98904,-6.77745 -5.98904,-6.77745l4.21841,-0.73367z" data-paper-data="{&quot;index&quot;:null}" fill="#fc8200" stroke="#000000" stroke-width="0" stroke-linecap="round"/><path d="M244.64964,212.00889c0,0 0.41185,26.71176 -27.8375,29.58805c-21.18691,1.40131 -37.9027,-24.43247 -37.9027,-24.43247l11.38213,-0.11387c0,0 15.49693,17.31469 26.05638,15.58404c18.52071,-3.03548 19.60095,-21.14558 19.60095,-21.14558z" data-paper-data="{&quot;index&quot;:null}" fill="#f83b2d" stroke="#000000" stroke-width="0" stroke-linecap="round"/><path d="M241.47338,212.18827c0,0 0.83733,26.2004 -25.6253,28.00683c-19.2897,1.31678 -34.22859,-23.16883 -34.22859,-23.16883l11.77343,-0.54326c0,0 7.99669,14.62419 22.33361,13.72258c14.84616,-0.93363 17.37588,-19.16161 17.37588,-19.16161z" data-paper-data="{&quot;index&quot;:null}" fill="#aa0606" stroke="#000000" stroke-width="0" stroke-linecap="round"/><path d="M241.74729,211.55073c0,0 0.56345,26.83794 -25.89916,28.64437c-19.28973,1.31678 -34.22859,-23.16883 -34.22859,-23.16883l10.36257,-0.11215c0,0 9.37696,15.40563 23.71389,14.50401c14.84616,-0.93363 17.85634,-19.70947 17.85634,-19.70947z" data-paper-data="{&quot;index&quot;:null}" fill="#fa0000" stroke="#000000" stroke-width="0" stroke-linecap="round"/><path d="M191.9652,150.92852l1.73297,-2.10293l3.61175,1.11768l11.97399,-12.20459l2.05198,0.05172l-12.6598,13.49395z" fill="#aa4517" stroke="#000000" stroke-width="0" stroke-linecap="round"/><path d="M197.49881,149.85471l-4.17606,-0.94524c0,0 3.00708,-4.16176 6.32285,-6.46715c3.31577,-2.30539 9.35145,-4.43087 9.35145,-4.43087z" fill="#fc8200" stroke="#000000" stroke-width="0" stroke-linecap="round"/><path d="M247.5467,200.45719l-0.1753,6.95542l-6.95543,-0.1753l0.1753,-6.95542z" data-paper-data="{&quot;index&quot;:null}" fill="#514e47" stroke="none" stroke-width="0" stroke-linecap="butt"/><path d="M245.7294,206.08233l-0.15583,6.18259l-5.28096,-0.1331l0.15583,-6.18259z" data-paper-data="{&quot;index&quot;:null}" fill="#514e47" stroke="none" stroke-width="0" stroke-linecap="butt"/><path d="M236.87183,156.35359c0,0 -0.16656,-18.14153 -18.51084,-22.10613c-10.45887,-2.2604 -26.80834,14.25167 -26.80834,14.25167l-11.36195,-0.68711c0,0 17.99596,-24.95893 39.08538,-22.4921c28.0686,4.2957 26.31165,30.95281 26.31165,30.95281z" fill="#47a0cc" stroke="#000000" stroke-width="0" stroke-linecap="round"/><path d="M234.00658,156.65469c0,0 -1.60827,-18.33224 -16.38856,-20.01259c-14.2733,-1.62269 -22.99653,12.5801 -22.99653,12.5801l-11.73112,-1.13566c0,0 16.1534,-23.70198 35.35227,-21.41515c26.338,3.13719 24.18192,29.26215 24.18192,29.26215z" fill="#06527f" stroke="#000000" stroke-width="0" stroke-linecap="round"/><path d="M234.48938,156.01354c0,0 -2.0605,-18.90365 -16.84079,-20.58397c-14.2733,-1.62269 -24.41443,13.29101 -24.41443,13.29101l-10.34376,-0.63402c0,0 16.15336,-23.70198 35.35226,-21.41515c26.338,3.13719 24.93205,30.18328 24.93205,30.18328z" fill="#0b7bc1" stroke="#000000" stroke-width="0" stroke-linecap="round"/><path d="M231.2731,212.03341l0.29541,-11.72119l9.01628,0.22724l-0.29542,11.7212z" fill="#6a6461" stroke="none" stroke-width="0" stroke-linecap="butt"/><path d="M229.44815,207.73418l0.19153,-7.59944l3.73531,0.09415l-0.19153,7.59943z" fill="#6a6461" stroke="none" stroke-width="0" stroke-linecap="butt"/><path d="M241.66372,167.95854l0.1753,-6.95542l6.95542,0.1753l-0.17529,6.95542z" data-paper-data="{&quot;index&quot;:null}" fill="#514e47" stroke="none" stroke-width="0" stroke-linecap="butt"/><path d="M241.80656,162.29116l0.15908,-6.31142l5.28096,0.1331l-0.15907,6.31142z" data-paper-data="{&quot;index&quot;:null}" fill="#514e47" stroke="none" stroke-width="0" stroke-linecap="butt"/><path d="M241.96563,155.97977l-0.29542,11.7212l-9.01628,-0.22725l0.29541,-11.72119z" data-paper-data="{&quot;index&quot;:null}" fill="#6a6461" stroke="none" stroke-width="0" stroke-linecap="butt"/><path d="M234.64546,160.04852l-0.19153,7.59943l-3.73531,-0.09414l0.19153,-7.59944z" data-paper-data="{&quot;index&quot;:null}" fill="#6a6461" stroke="none" stroke-width="0" stroke-linecap="butt"/><path d="M231.29973,201.10078l0.86932,-34.49197l10.53972,0.26563l-0.86932,34.49198z" fill="#1b1919" stroke="none" stroke-width="0" stroke-linecap="butt"/><path d="M206.4893,200.48013l0.96147,-38.14823l24.90361,0.62766l-0.96147,38.14823z" fill="#282425" stroke="none" stroke-width="0" stroke-linecap="butt"/><path d="M204.72257,199.12896l0.78046,-30.96629l18.91759,0.47679c0,0 6.12468,10.55292 5.9921,15.81303c-0.12737,5.05373 -6.77256,15.15326 -6.77256,15.15326z" fill="#f06c00" stroke="none" stroke-width="0" stroke-linecap="butt"/><path d="M222.94571,173.3622l-0.72031,-1.04479l4.38378,0.11048l0.62705,1.04244z" fill="#8b2500" stroke="none" stroke-width="0" stroke-linecap="butt"/><path d="M226.98243,194.6501l-0.7513,1.00771l-4.87087,-0.12276l0.85493,-1.0051z" data-paper-data="{&quot;index&quot;:null}" fill="#8b2500" stroke="none" stroke-width="0" stroke-linecap="butt"/><path d="M203.87845,196.68108l0.69347,-27.51523l16.94749,0.42714c0,0 5.85795,9.38734 5.74015,14.0612c-0.11318,4.49054 -6.43362,13.45402 -6.43362,13.45402z" fill="#312c29" stroke="none" stroke-width="0" stroke-linecap="butt"/><path d="M208.22827,212.84161l8.81787,10.46008c0,0 -2.56073,0.14124 -3.81622,1.38929c-1.25549,1.24804 -2.38272,3.45109 -2.38272,3.45109l-8.0257,-10.63705c0,0 -0.23863,-1.49421 2.11994,-3.07613c1.49342,-1.00167 3.28684,-1.58725 3.28684,-1.58725z" data-paper-data="{&quot;index&quot;:null}" fill="#f2700b" stroke="#000000" stroke-width="0" stroke-linecap="round"/><path d="M215.45951,227.64071c-1.81443,1.40387 -3.85435,1.80644 -4.55628,0.89925c-0.70193,-0.90719 0.19992,-2.78068 2.01435,-4.18455c1.81443,-1.40387 3.85435,-1.80649 4.55628,-0.89927c0.70193,0.90719 -0.19992,2.7807 -2.01435,4.18457z" data-paper-data="{&quot;index&quot;:null}" fill="#b43507" stroke="#000000" stroke-width="0" stroke-linecap="butt"/><path d="M215.17067,227.78208c-1.29732,1.00377 -2.75586,1.29162 -3.25772,0.64296c-0.50186,-0.64865 0.14294,-1.98819 1.44027,-2.99196c1.29732,-1.00377 2.75586,-1.29164 3.25772,-0.64296c0.50186,0.64865 -0.14294,1.98822 -1.44027,2.99196z" data-paper-data="{&quot;index&quot;:null}" fill="#58515d" stroke="#000000" stroke-width="0" stroke-linecap="butt"/><path d="M215.56196,228.33213c-1.29732,1.00377 -2.75586,1.29164 -3.25772,0.64296c-0.50186,-0.64865 0.14294,-1.98822 1.44027,-2.99196c1.29732,-1.00377 2.75586,-1.29162 3.25772,-0.64296c0.50186,0.64865 -0.14295,1.98819 -1.44024,2.99196z" data-paper-data="{&quot;index&quot;:null}" fill="#6f6675" stroke="#000000" stroke-width="0" stroke-linecap="butt"/><path d="M212.82272,219.41403c0,0 -2.32004,1.65738 -3.29896,4.36481c-0.97896,2.70743 0.90867,3.35115 0.90867,3.35115l-1.84546,1.66966l-4.52737,-4.60991l8.11215,-5.73743z" data-paper-data="{&quot;index&quot;:null}" fill="#5b4e50" stroke="#000000" stroke-width="0" stroke-linecap="round"/><path d="M205.2601,225.11749l-4.99629,-5.70629l6.89753,-5.76804l5.13408,5.26104z" data-paper-data="{&quot;index&quot;:null}" fill="#7a7579" stroke="#847a76" stroke-width="0.25" stroke-linecap="round"/><path d="M202.17825,151.78412l10.49919,-11.42298c0,0 0.92453,2.0562 2.00958,3.24937c1.08506,1.19316 3.4085,1.43922 3.4085,1.43922l-11.96529,11.01694z" fill="#f2700b" stroke="#000000" stroke-width="0" stroke-linecap="round"/><path d="M218.49175,144.9288c-0.6803,0.79324 -2.51788,0.33327 -4.10433,-1.02732c-1.58645,-1.36059 -2.32103,-3.10659 -1.64076,-3.89983c0.6803,-0.79324 2.51788,-0.3333 4.10433,1.02729c1.58645,1.36059 2.32106,3.10662 1.64076,3.89986z" fill="#b43507" stroke="#000000" stroke-width="0" stroke-linecap="butt"/><path d="M217.76782,143.67545c-0.48641,0.56717 -1.80027,0.2383 -2.93458,-0.73454c-1.13431,-0.97282 -1.65954,-2.22124 -1.17313,-2.78838c0.48641,-0.56717 1.80029,-0.23831 2.9346,0.73453c1.13431,0.97282 1.65955,2.22125 1.17314,2.78839z" fill="#58515d" stroke="#000000" stroke-width="0" stroke-linecap="butt"/><path d="M218.14908,143.19295c-0.48641,0.56717 -1.80027,0.2383 -2.93458,-0.73454c-1.13431,-0.97282 -1.65955,-2.22124 -1.17314,-2.78838c0.48641,-0.56717 1.8003,-0.23831 2.93459,0.73454c1.13431,0.97282 1.65954,2.22124 1.17313,2.78838z" fill="#6f6675" stroke="#000000" stroke-width="0" stroke-linecap="butt"/><path d="M213.4379,149.23823l-7.11767,-5.5926l4.36838,-3.86168l1.43291,1.72357c0,0 -1.66226,0.1192 -0.89582,2.62751c0.76644,2.50833 2.84867,4.25805 2.84867,4.25805z" fill="#5b4e50" stroke="#000000" stroke-width="0" stroke-linecap="round"/><path d="M213.57326,148.74955l-4.91279,4.55122l-6.01113,-5.56471l4.76735,-5.04699z" fill="#7a7579" stroke="#847a76" stroke-width="0.25" stroke-linecap="round"/><path d="M216.8403,185.08883l0.09625,-3.81865l1.82977,0.04612l-0.09625,3.81865z" fill="#62615d" stroke="none" stroke-width="0" stroke-linecap="butt"/><path d="M216.7681,183.91816l0.01515,-0.60111l1.95647,0.04931l-0.01514,0.6011z" fill="#54534f" stroke="none" stroke-width="0" stroke-linecap="butt"/><path d="M217.06495,185.65173l0.01604,-0.63646l1.75022,0.04411l-0.01604,0.63646z" fill="#7d7b77" stroke="none" stroke-width="0" stroke-linecap="butt"/><path d="M213.12962,188.13697l0.23734,-9.41701l3.7067,0.09342l-0.23734,9.41701z" fill="#838481" stroke="#9b9496" stroke-width="0.25" stroke-linecap="butt"/><path d="M217.01982,184.92698l-0.72904,1.0843l-1.102,-0.02778l-0.15995,-1.60794l-1.0018,-0.02524" fill="none" stroke="#53524e" stroke-width="0.25" stroke-linecap="round"/><path d="M209.98757,195.57613l0.22847,-3.41312l9.67707,0.38637l-4.09739,4.31275z" fill="#915f3e" stroke="#000000" stroke-width="0" stroke-linecap="round"/><path d="M212.13489,189.50477l5.11071,0.69863l2.21323,2.61994l-9.94743,-0.96298z" fill="#653c0a" stroke="#000000" stroke-width="0" stroke-linecap="round"/><path d="M213.96294,196.10369l1.06112,-2.5374" fill="none" stroke="#67360a" stroke-width="0.25" stroke-linecap="round"/><path d="M226.71123,202.86418l-0.30869,7.7737l-2.62628,1.28711l-20.38797,-0.96493l5.54794,-14.29541l16.15545,3.33934z" fill="#1e1f19" stroke="#000000" stroke-width="0" stroke-linecap="round"/><path d="M224.95535,205.41374l0.05397,-2.14135l-0.92627,-3.51938l2.93599,-0.15155l2.6566,1.98413l0.15154,2.93599z" fill="#b34b00" stroke="#000000" stroke-width="0" stroke-linecap="round"/><path d="M225.08791,204.62767l4.8491,0.00944l-0.95936,6.74232l-5.8833,0.75394z" fill="#e86b09" stroke="#000000" stroke-width="0" stroke-linecap="round"/><path d="M228.53438,202.12072l-0.03693,1.46513" fill="none" stroke="#9d3000" stroke-width="0.25" stroke-linecap="round"/><path d="M227.58637,208.41224l-0.24816,0.89594" fill="none" stroke="#9d3000" stroke-width="0.25" stroke-linecap="round"/><path d="M228.53347,206.63171l-0.08998,-0.90447" fill="none" stroke="#9d3000" stroke-width="0.25" stroke-linecap="round"/><path d="M225.25371,207.00016l2.47094,0.4006" fill="none" stroke="#dc5c00" stroke-width="0.25" stroke-linecap="round"/><path d="M224.62768,209.46543l2.02583,0.16382" fill="none" stroke="#dc5c00" stroke-width="0.25" stroke-linecap="round"/><path d="M222.14345,205.11736l-1.29463,6.62113l-14.75564,-0.71022l2.62716,-5.79808l9.91789,0.24996z" fill="#982800" stroke="#000000" stroke-width="0" stroke-linecap="round"/><path d="M214.55537,206.39219l-2.03809,4.79794l-5.06598,-0.35325l2.24929,-4.22876z" fill="#ea6b05" stroke="#000000" stroke-width="0" stroke-linecap="round"/><path d="M221.78262,206.01045l-1.26339,5.38137l-6.64382,-0.39302l2.81851,-4.43996z" fill="#ea6b05" stroke="#000000" stroke-width="0" stroke-linecap="round"/><path d="M209.43745,200.44635l0.09817,7.41002l-6.25076,4.97075l0.52514,-9.53109z" fill="#f0ac12" stroke="#000000" stroke-width="0" stroke-linecap="round"/><path d="M210.6503,169.27974l-2.84969,-5.62748l-0.97986,-11.99072l4.30676,-1.316l0.02281,10.39965l2.67502,6.90517z" fill="#f0ac12" stroke="#000000" stroke-width="0" stroke-linecap="round"/><path d="M211.65032,174.81992l-2.8102,-7.19348l6.11798,0.29665l5.10596,6.53906z" fill="#915f3e" stroke="#000000" stroke-width="0" stroke-linecap="round"/><path d="M209.13085,173.04698l10.50968,1.26205l-1.04318,1.82559l-8.01177,1.36507z" fill="#653c0a" stroke="#000000" stroke-width="0" stroke-linecap="round"/><path d="M212.23167,168.70912l3.31624,4.07225" fill="none" stroke="#67360a" stroke-width="0.25" stroke-linecap="round"/><path d="M213.9008,183.14399c-0.29336,11.63972 -4.01286,20.98781 -8.30772,20.87955c-4.29487,-0.10825 -7.53873,-9.63183 -7.24537,-21.27155c0.29336,-11.63972 4.01286,-20.98781 8.30773,-20.87955c4.29487,0.10825 7.53873,9.63184 7.24537,21.27155z" fill="#e56506" stroke="#a55314" stroke-width="0.25" stroke-linecap="butt"/><path d="M210.63806,182.83622c-0.21492,8.5275 -3.1644,15.37045 -6.58784,15.28417c-3.42346,-0.08628 -6.02448,-7.06913 -5.80956,-15.59663c0.21492,-8.5275 3.16442,-15.37043 6.58787,-15.28415c3.42346,0.08628 6.02445,7.06911 5.80953,15.59661z" fill="#921f00" stroke="none" stroke-width="0" stroke-linecap="butt"/><path d="M206.67455,192.43498l0.48289,-19.15963l2.25409,0.05681l-0.48289,19.15963z" fill="url(#color-1)" stroke="none" stroke-width="0" stroke-linecap="butt"/><path d="M229.66307,166.28666l-3.38111,-0.08522l-11.24193,-1.41107l-2.4748,-9.19716l12.28844,-4.31408l5.64654,-0.30878z" fill="#2a1c0c" stroke="#000000" stroke-width="0" stroke-linecap="round"/><path d="M224.31578,163.67085l-7.75382,-1.09765l-5.40693,-0.24903l-0.45844,-4.18424l0.29451,-7.21017l14.54728,0.02831l-0.3011,11.94657z" fill="#8b2300" stroke="#000000" stroke-width="0" stroke-linecap="round"/><path d="M223.9493,164.78938l6.53394,0.27743l-0.32198,3.82625l-1.46231,-0.14964l-4.55551,-2.70864z" fill="#f06900" stroke="#000000" stroke-width="0" stroke-linecap="round"/><path d="M228.47728,164.11409l-0.01894,-3.72206l1.23976,0.03125l0.02272,-0.90164l-0.78894,-0.01989l0.09658,-3.8319l0.67337,0.12972l0.24532,-0.78322l-0.79175,0.09281l0.09658,-3.8319l4.618,0.22915l-0.19223,3.15284l-1.2568,0.64497l1.46231,0.14964l0.01327,3.94746l-1.93586,0.74065l2.03434,-0.1743l-0.0066,4.7364z" fill="#ef6b00" stroke="#000000" stroke-width="0" stroke-linecap="round"/><path d="M225.40579,151.74413l-0.24428,9.69252l-0.93287,1.21704l-4.4769,-1.35337l-0.20936,-9.59115z" fill="#f06900" stroke="#000000" stroke-width="0" stroke-linecap="round"/><path d="M218.40115,152.24425l-0.55115,8.44425l-1.03706,0.87608l-4.50247,-0.33905l-0.63078,-1.82028l0.10036,-8.45561l5.39273,0.81257z" fill="#f06900" stroke="#000000" stroke-width="0" stroke-linecap="round"/><path d="M230.78628,157.5185l0.14487,-5.74788l0.78891,0.01989l-0.14487,5.74788z" fill="url(#color-2)" stroke="none" stroke-width="0" stroke-linecap="butt"/><path d="M216.37779,198.46866l4.28334,-2.89938l2.05328,2.05664l-2.47504,2.74448z" fill="#1e1f19" stroke="#000000" stroke-width="0" stroke-linecap="round"/><path d="M219.99436,198.15886l3.70754,-3.91634l2.35132,2.16437l-3.80264,3.71346z" fill="#f46901" stroke="#000000" stroke-width="0" stroke-linecap="round"/><path d="M220.48518,198.57221l-1.47997,-0.93952l2.70064,-3.74124l2.19894,0.2559z" fill="#b24501" stroke="#000000" stroke-width="0" stroke-linecap="round"/><path d="M198.94312,236.96908l2.66249,-9.35932" fill="none" stroke="#aa0606" stroke-width="0.5" stroke-linecap="round"/><path d="M183.80084,223.05442l3.66893,-4.85407" fill="none" stroke="#aa0606" stroke-width="0.5" stroke-linecap="round"/><path d="M213.63459,231.7395l-0.27034,10.72627" fill="none" stroke="#aa0606" stroke-width="0.5" stroke-linecap="round"/><path d="M222.64512,229.72664l6.70229,8.10209" fill="none" stroke="#aa0606" stroke-width="0.5" stroke-linecap="round"/><path d="M231.29114,219.95811l10.4692,3.06381" fill="none" stroke="#aa0606" stroke-width="0.5" stroke-linecap="round"/><path d="M201.39887,132.12673l-0.77599,-2.53948l3.02472,9.59601" fill="none" stroke="#06527f" stroke-width="0.5" stroke-linecap="round"/><path d="M216.1695,127.45912l0.05879,-2.33178l-0.08381,10.73096" fill="none" stroke="#06527f" stroke-width="0.5" stroke-linecap="round"/><path d="M186.62907,144.16756l-1.24701,-2.36472l3.92531,7.1921" fill="none" stroke="#06527f" stroke-width="0.5" stroke-linecap="round"/><path d="M230.5467,130.99476l1.15922,-1.55742l-6.58225,9.35389" fill="none" stroke="#06527f" stroke-width="0.5" stroke-linecap="round"/><path d="M232.5416,148.12463l11.5477,-2.69557l-1.88191,0.60589" fill="none" stroke="#06527f" stroke-width="0.5" stroke-linecap="round"/><path d="M197.23702,152.09429c8.81154,-4.7541 10.2862,7.11597 10.2862,7.11597c0,0 -0.0931,17.6243 -0.40002,26.14878c-0.29401,8.16575 -1.40443,23.96815 -1.40443,23.96815c0,0 -1.4687,5.6266 -6.30379,6.69784c-3.21344,0.71196 -13.61944,-7.71161 -17.42048,-17.5809c-3.80104,-9.86927 3.1209,-9.27854 3.26698,-15.07465c0.14609,-5.79611 -5.33466,-12.54608 -2.97168,-18.11891c2.36298,-5.57283 6.13571,-8.40221 14.94725,-13.1563z" fill="#b84400" stroke="#000000" stroke-width="0" stroke-linecap="round"/><path d="M180.38495,154.91746c0,0 17.81673,-1.13042 21.13447,-0.91085c1.4644,0.09692 2.80297,0.3736 3.34437,3.33221c0.52779,2.88436 2.30284,14.56403 2.0686,25.31377c-0.23423,10.74974 -2.42891,23.88475 -3.01234,26.4488c-0.58342,2.56404 -1.96505,3.47967 -3.87774,3.51106c-2.94796,0.04839 -18.84331,-4.08372 -18.84331,-4.08372l-0.8141,-53.61127z" fill="#7b2200" stroke="#000000" stroke-width="0" stroke-linecap="round"/><path d="M202.71296,167.55325c0.99357,2.54622 1.64185,9.23555 1.64185,9.23555l1.85416,0.13426l-0.61451,14.50515l-1.91316,0.72682c0,0 0.46335,5.76146 -1.19794,8.06929c-9.62935,13.3772 -18.89427,3.30999 -19.09583,-3.62839c-0.09656,-3.32433 3.55072,-14.32202 3.55072,-14.32202c0,0 -4.43449,-14.08033 -4.92292,-17.5648c-0.33302,-2.37548 15.4599,-10.57863 20.69767,2.8441z" fill="#df9431" stroke="#954116" stroke-width="0" stroke-linecap="round"/><path d="M192.90699,159.23283c5.68499,0.14328 10.15964,5.57446 9.9944,12.13089c-0.16524,6.55643 -4.90782,11.75529 -10.59281,11.612c-5.68499,-0.14329 -10.15964,-5.57445 -9.9944,-12.13089c0.16524,-6.55643 4.90782,-11.75529 10.59281,-11.61201z" fill="#98581e" stroke="none" stroke-width="0" stroke-linecap="butt"/><path d="M192.0118,182.81785c5.68499,0.14329 10.15962,5.57449 9.99438,12.13089c-0.16524,6.5564 -4.90779,11.75529 -10.59278,11.612c-5.68499,-0.14329 -10.15961,-5.57448 -9.99437,-12.13088c0.16524,-6.5564 4.90779,-11.7553 10.59278,-11.61201z" fill="#98581e" stroke="none" stroke-width="0" stroke-linecap="butt"/><path d="M184.85634,195.26834l0.50372,-19.9861l13.67472,0.34465l-0.50372,19.9861z" fill="#98581e" stroke="none" stroke-width="0" stroke-linecap="butt"/><path d="M189.49777,174.48376c-3.49795,-3.71179 -3.92166,-8.9938 -0.94637,-11.79772c2.97532,-2.80397 8.22293,-2.06804 11.72093,1.64374c3.49795,3.71179 3.92166,8.9938 0.94637,11.79772c-2.97532,2.80397 -8.22295,2.06801 -11.72093,-1.64376z" data-paper-data="{&quot;index&quot;:null}" fill="#01050a" stroke="#954116" stroke-width="0" stroke-linecap="butt"/><path d="M200.59059,191.28577c2.83023,2.95023 2.14104,8.20423 -1.53948,11.73507c-3.68055,3.53084 -8.95857,4.00151 -11.78886,1.0512c-2.83023,-2.95023 -2.14103,-8.20422 1.53948,-11.73506c3.68055,-3.53084 8.95856,-4.00152 11.78885,-1.05121z" fill="#01050a" stroke="#954116" stroke-width="0" stroke-linecap="butt"/><path d="M197.48232,192.13664c1.98579,0.56428 3.22785,2.31586 2.77427,3.91227c-0.45362,1.59645 -2.43117,2.43316 -4.41696,1.86889c-1.98579,-0.56428 -3.22788,-2.31582 -2.77427,-3.91228c0.45362,-1.59645 2.43118,-2.43316 4.41697,-1.86888z" fill="#5db0c4" stroke="none" stroke-width="0" stroke-linecap="butt"/><path d="M193.94897,168.03787c0.73236,-0.71143 2.04348,-0.54964 2.92848,0.36136c0.88497,0.91102 1.0087,2.22627 0.27627,2.93773c-0.73236,0.71143 -2.04351,0.54967 -2.92848,-0.36136c-0.88497,-0.91102 -1.00867,-2.22627 -0.27627,-2.93773z" data-paper-data="{&quot;index&quot;:null}" fill="#5db0c4" stroke="none" stroke-width="0" stroke-linecap="butt"/><path d="M197.26379,192.90581c1.45736,0.41411 2.36891,1.6996 2.03603,2.87118c-0.33291,1.17163 -1.78422,1.78569 -3.24161,1.37158c-1.45736,-0.41411 -2.36891,-1.69958 -2.03602,-2.87118c0.33291,-1.17163 1.78422,-1.7857 3.2416,-1.37158z" fill="#01050a" stroke="none" stroke-width="0" stroke-linecap="butt"/><path d="M194.38543,168.48718c0.5329,-0.51765 1.48688,-0.39995 2.13083,0.26292c0.64395,0.66286 0.73394,1.61992 0.20103,2.13758c-0.5329,0.51765 -1.48691,0.3999 -2.13083,-0.26295c-0.64395,-0.66286 -0.73391,-1.61989 -0.20103,-2.13755z" data-paper-data="{&quot;index&quot;:null}" fill="#01050a" stroke="none" stroke-width="0" stroke-linecap="butt"/><path d="M192.12643,163.82704c0,0 2.19517,-0.78327 3.84737,-0.04549c1.65216,0.73778 3.72896,4.65247 3.72896,4.65247" fill="none" stroke="#5db0c4" stroke-width="0.25" stroke-linecap="round"/><path d="M190.89423,167.49975l-1.53729,-1.17837l1.62341,-2.23835" fill="none" stroke="#5db0c4" stroke-width="0.25" stroke-linecap="round"/><path d="M192.09411,165.10832l-1.08149,-2.30652" fill="none" stroke="#5db0c4" stroke-width="0.25" stroke-linecap="round"/><path d="M198.15111,167.82513l1.85071,0.04665l-0.03229,1.28125" fill="none" stroke="#5db0c4" stroke-width="0.25" stroke-linecap="round"/><path d="M199.3391,171.55885c0,0 0.99793,-0.24367 1.27769,0.17465c0.27977,0.41832 0.57055,1.40108 0.36966,2.28858c-0.20089,0.8875 -4.08837,2.22904 -6.02588,1.70001c-1.93753,-0.52904 -4.18118,-3.6667 -4.18118,-3.6667" fill="none" stroke="#5db0c4" stroke-width="0.25" stroke-linecap="round"/><path d="M197.72288,173.51244l0.63647,3.00758" fill="none" stroke="#5db0c4" stroke-width="0.25" stroke-linecap="round"/><path d="M190.49828,171.90581l-0.93553,-2.44526" fill="none" stroke="#5db0c4" stroke-width="0.25" stroke-linecap="round"/><path d="M191.78311,171.79575l-2.29572,0.6544" fill="none" stroke="#5db0c4" stroke-width="0.25" stroke-linecap="round"/><path d="M181.55924,197.9303l4.20217,-8.06725l5.41329,1.98748l-3.72597,7.56819z" fill="#360e03" stroke="#602a0d" stroke-width="0" stroke-linecap="round"/><path d="M188.55325,166.46143l2.57958,8.03161l-5.64573,1.17477l-2.97771,-8.59487z" data-paper-data="{&quot;index&quot;:null}" fill="#360e03" stroke="#602a0d" stroke-width="0" stroke-linecap="round"/><path d="M201.97156,153.02707c0,0 -10.38114,3.76652 -14.16564,12.31676c-3.7845,8.55024 1.42101,12.71758 1.2602,18.18319c-0.16081,5.46561 -6.10951,7.55832 -3.38419,14.95141c1.85653,5.03625 14.67003,14.54717 14.67003,14.54717l-2.21977,2.84399c0,0 -11.11959,-7.30846 -14.18118,-16.89777c-3.06159,-9.58931 2.99959,-9.53962 3.07297,-15.38884c0.07334,-5.84923 -4.26323,-9.98804 -3.15174,-15.15601c2.47426,-11.5041 17.19819,-18.00031 17.19819,-18.00031z" fill="#b84400" stroke="#000000" stroke-width="0" stroke-linecap="round"/><path d="M194.72041,216.14961c0,0 -8.76746,3.69232 -19.65551,-0.49538c-9.02476,-3.47105 -19.71444,-8.88879 -25.6291,-14.05769c-5.82366,-5.08938 -11.88822,-11.61199 -11.19035,-21.35764c0.69787,-9.74565 5.04526,-13.81856 13.86177,-20.20366c8.45811,-6.12553 22.70322,-10.72297 27.36912,-12.02524c8.44266,-2.35632 19.96351,2.59329 19.96351,2.59329l-7.29636,3.12549l-7.75795,7.11999l-2.84966,5.67606l0.6691,9.2483l2.7887,3.90221l0.09698,3.31184l-3.18837,4.79664l-1.41145,5.8865l2.13363,8.41434l7.18279,8.5416l4.91313,5.52337z" fill="#36322e" stroke="#000000" stroke-width="0" stroke-linecap="round"/><path d="M145.36681,165.7635c0,0 2.67483,-3.36324 4.92954,-5.46942c2.25474,-2.10618 7.14178,-4.15056 7.14178,-4.15056c0,0 3.82505,-0.66223 9.69215,2.04866c5.8671,2.71089 13.31536,8.63586 13.31536,8.63586l-2.60785,10.39982l-1.72143,-3.29132c0,0 -6.84624,-8.51179 -10.75446,-10.01482c-3.90821,-1.50304 -10.3331,1.90485 -10.3331,1.90485z" fill="url(#color-3)" stroke="#000000" stroke-width="0" stroke-linecap="round"/><path d="M155.49381,197.4909c0,0 6.24506,3.72722 10.22402,2.42297c3.97896,-1.30425 11.24531,-9.46036 11.24531,-9.46036l1.88504,-3.20041l2.08064,10.51797c0,0 -7.73728,5.54223 -13.73349,7.95412c-5.99621,2.41189 -9.78304,1.55782 -9.78304,1.55782c0,0 -4.77784,-2.28798 -6.92362,-4.50507c-2.14576,-2.21709 -5.90949,-5.36668 -5.90949,-5.36668z" data-paper-data="{&quot;index&quot;:null}" fill="url(#color-4)" stroke="#000000" stroke-width="0" stroke-linecap="round"/><path d="M165.03935,198.19722c-6.68955,2.10243 -17.90224,1.53365 -17.90224,1.53365c0,0 -9.11721,-4.78716 -8.91792,-18.44924c0.1288,-8.83051 7.44174,-16.05207 7.44174,-16.05207c0,0 3.98352,-1.99505 15.34133,-0.15467c14.49959,2.34947 23.1909,17.72633 23.1909,17.72633c0,0 -4.25045,10.71209 -19.15381,15.39599z" fill="url(#color-5)" stroke="#000000" stroke-width="0" stroke-linecap="round"/><path d="M137.86272,182.89664l0.0409,-1.62293l44.31504,1.1169l-0.0409,1.62293z" fill="#34332c" stroke="none" stroke-width="0" stroke-linecap="butt"/><path d="M194.57304,150.40318l7.20861,0.35731c0,0 -12.1616,5.9059 -16.43824,15.03987c-4.27664,9.13396 2.3626,10.67858 2.29794,16.21456c-0.06466,5.53595 -5.50107,10.69816 -2.989,18.36433c2.44114,7.44978 15.12763,15.48423 15.12763,15.48423l-7.76287,0.15556c0,0 -11.02506,-6.8524 -14.01026,-16.86098c-2.9852,-10.00858 4.08719,-11.82123 3.81987,-15.53353c-0.24091,-3.34542 -4.914,-9.42247 -3.1642,-17.64131c1.08425,-5.0927 15.91052,-15.58 15.91052,-15.58z" fill="#f56900" stroke="#000000" stroke-width="0" stroke-linecap="round"/><path d="M184.68489,181.18971c1.64328,0.04142 2.95198,1.00341 2.92312,2.14872c-0.02887,1.14531 -1.38437,2.04018 -3.02764,1.99876c-1.64327,-0.04142 -2.95198,-1.00344 -2.92311,-2.14875c0.02886,-1.14531 1.38436,-2.04015 3.02763,-1.99873z" fill="#ea5e00" stroke="none" stroke-width="0" stroke-linecap="butt"/><path d="M223.25644,220.8324c-0.23243,-0.67068 0.24931,-1.65697 1.38182,-2.34709c1.13252,-0.69011 2.28972,-0.71705 2.71942,-0.15208c1.35474,1.78131 0.8054,2.76623 -0.32711,3.45634c-1.13252,0.69011 -2.78477,1.89757 -3.77411,-0.95715z" fill="#443e42" stroke="none" stroke-width="0" stroke-linecap="butt"/><path d="M225.48499,219.79228c1.13252,-0.69011 2.35004,-0.75822 2.7194,-0.15208c0.36935,0.60612 -0.24931,1.65697 -1.38182,2.34709c-1.13252,0.69015 -2.35005,0.75825 -2.7194,0.15211c-0.36935,-0.60614 0.2493,-1.657 1.38182,-2.34712z" fill="#7c7080" stroke="none" stroke-width="0" stroke-linecap="butt"/><path d="M227.74065,221.01982l-3.03614,-0.34838" fill="none" stroke="#3f393c" stroke-width="0.25" stroke-linecap="round"/><path d="M243.41993,195.32667l0.55187,-21.89671l40.31568,1.0161l-0.55188,21.8967z" fill="#817c7c" stroke="none" stroke-width="0" stroke-linecap="butt"/><path d="M301.05512,224.03279l0.62595,-24.83578l18.82151,0.22831l-2.87137,24.28707z" fill="#fc6900" stroke="#000000" stroke-width="0" stroke-linecap="round"/><path d="M319.54005,147.9756l1.86418,25.6367l-19.0538,-0.97234l0.90781,-26.05896z" fill="#fc6900" stroke="#000000" stroke-width="0" stroke-linecap="round"/><path d="M311.5992,124.40025l8.1855,23.82756l-17.29149,-1.17394l-5.17508,-23.75172z" fill="#ef5200" stroke="#000000" stroke-width="0" stroke-linecap="round"/><path d="M308.52136,246.51969l-13.11815,-0.41513l5.66668,-22.6558l17.07162,-0.06185z" fill="#ef5200" stroke="#000000" stroke-width="0" stroke-linecap="round"/><path d="M309.28634,246.04687l-11.78499,19.38738l-12.55592,0.17566l10.53686,-19.66489z" fill="#e04409" stroke="#000000" stroke-width="0" stroke-linecap="round"/><path d="M278.99981,174.84869l10.6123,-17.11177l4.48875,0.11313l-1.40292,55.66371l-4.48517,-0.25549l-9.60154,-17.05144z" fill="#8d8686" stroke="#999592" stroke-width="0.5" stroke-linecap="round"/><path d="M301.77208,105.94452l10.5673,18.9665l-14.28723,-0.8522l-9.06208,-18.92857z" fill="#e04409" stroke="#000000" stroke-width="0" stroke-linecap="round"/><path d="M293.3018,147.47835l-3.12175,-19.32567l-7.0515,-18.52246l6.72558,-4.34148l9.14014,19.1766l4.84166,22.67705l-0.9604,25.60474l-10.20713,-0.13725z" fill="#ff9b0f" stroke="#000000" stroke-width="0" stroke-linecap="butt"/><path d="M258.24869,189.93976l0.25787,-10.23153l14.46527,0.36458l-0.25787,10.23152z" fill="#f7810e" stroke="none" stroke-width="0" stroke-linecap="butt"/><path d="M258.0461,188.64019l0.18969,-7.52664l14.81806,0.37348l-0.18969,7.52664z" fill="#ff7500" stroke="none" stroke-width="0" stroke-linecap="butt"/><path d="M256.36029,184.71427c-0.03765,1.49389 -0.98959,2.68167 -2.12625,2.65302c-1.13665,-0.02865 -2.02754,-1.26288 -1.98989,-2.75676c0.03765,-1.49389 0.98959,-2.68166 2.12625,-2.65302c1.13665,0.02865 2.02754,1.26288 1.98989,2.75675z" fill="#8e9084" stroke="#73410d" stroke-width="0.25" stroke-linecap="butt"/><path d="M255.53706,184.69353c-0.03765,1.49389 -0.98959,2.68167 -2.12625,2.65302c-1.13665,-0.02865 -2.02755,-1.26288 -1.9899,-2.75676c0.03765,-1.49389 0.98959,-2.68166 2.12625,-2.65301c1.13665,0.02865 2.02755,1.26287 1.9899,2.75675z" fill="#8e9084" stroke="#a0a49c" stroke-width="0.25" stroke-linecap="butt"/><path d="M272.59339,190.41898l0.2638,-10.46673l6.97917,3.23555l-0.22431,4.23075z" fill="#f44c00" stroke="none" stroke-width="0" stroke-linecap="butt"/><path d="M279.94226,259.91679l7.01339,-15.76214l4.43731,-20.9395l0.59289,-23.52418l10.20217,-0.09381l-0.87717,23.86792l-5.67734,22.41193l-9.51621,19.60861z" fill="#ff9b0f" stroke="#000000" stroke-width="0" stroke-linecap="butt"/><path d="M293.33429,199.56941l0.68532,-27.19122l16.08696,0.40545l-0.68532,27.19122z" fill="#666462" stroke="none" stroke-width="0" stroke-linecap="butt"/><path d="M296.11094,196.79033l0.55615,-22.06619l8.82648,0.22246l-0.55615,22.06618z" fill="#000000" stroke="none" stroke-width="0" stroke-linecap="butt"/><path d="M266.78641,173.36055l11.26657,2.99055l0.28788,-6.30814l6.15989,1.05744l-3.28504,2.49491l-0.23048,9.14509l-12.87289,-5.73765l-3.6747,2.61399z" fill="#ffffff" stroke="#bb44c4" stroke-width="0.375" stroke-linecap="round"/><path d="M293.59596,163.08091l-0.26516,5.40652l-13.87189,-1.89625l-1.99604,-17.96546l5.37082,1.682l-3.91931,2.09229l3.83931,11.30982l8.0692,2.00778l-0.88542,-0.66673l-0.10504,-6.06029l7.58322,0.83556l1.21662,2.86616z" fill="#ffffff" stroke="#bb44c4" stroke-width="0.375" stroke-linecap="round"/><path d="M283.34481,186.27982l-0.50757,9.91141l2.39209,2.25134l-6.70431,0.0888l0.68403,-6.68483l-9.81184,0.6549l-1.24804,-6.73352l3.12922,3.68769z" fill="#ffffff" stroke="#bb44c4" stroke-width="0.375" stroke-linecap="round"/><path d="M267.94913,219.27328l0.12011,-4.76575l5.6121,-13.00494l15.28222,2.18955l-0.51949,5.27123l5.50936,1.29883l-0.06493,2.57608l-11.28604,-2.21773l3.469,-4.68135l-9.15483,0.15589l-6.6772,9.24039l4.52009,4.75382z" fill="#ffffff" stroke="#bb44c4" stroke-width="0.375" stroke-linecap="round"/><path d="M323.82846,216.42836l11.69522,1.32585l-5.08619,-7.86134l6.69886,-4.9866l-1.43412,5.76373l5.53646,10.4504l-15.20538,-0.12545l-3.15624,2.49816z" fill="#ffffff" stroke="#bb44c4" stroke-width="0.375" stroke-linecap="round"/><path d="M326.30351,159.13652l13.47573,2.27291l-7.16643,8.19697l0.01956,14.5646l-3.32721,4.16938l-0.68203,-18.96341l3.36617,-5.71504l-8.34629,-1.24143l-0.4687,-6.97166z" fill="#ffffff" stroke="#bb44c4" stroke-width="0.375" stroke-linecap="round"/><path d="M326.83579,186.91677c-0.2502,9.92742 -6.57176,17.82102 -14.11961,17.63079c-7.54782,-0.19023 -13.46374,-8.39224 -13.21353,-18.31968c0.2502,-9.92742 6.57176,-17.82102 14.11961,-17.63079c7.54782,0.19023 13.46374,8.39224 13.21353,18.31968z" fill="url(#color-6)" stroke="none" stroke-width="0" stroke-linecap="butt"/><path d="M322.41793,185.79493c-0.18367,7.28756 -4.55239,13.08894 -9.7578,12.95774c-5.20539,-0.1312 -9.27634,-6.14529 -9.09266,-13.43284c0.18367,-7.28756 4.55239,-13.08894 9.7578,-12.95775c5.20539,0.1312 9.27634,6.14529 9.09266,13.43284z" fill="url(#color-7)" stroke="none" stroke-width="0" stroke-linecap="butt"/><path d="M319.29563,186.72673c-0.23333,9.25815 -5.45616,16.63656 -11.66544,16.48006c-6.20931,-0.1565 -11.05378,-7.78862 -10.82043,-17.04678c0.23333,-9.25815 5.45616,-16.63656 11.66544,-16.48006c6.20931,0.15649 11.05378,7.78862 10.82043,17.04678z" fill="url(#color-8)" stroke="none" stroke-width="0" stroke-linecap="butt"/><path d="M319.29563,186.72673c-0.23333,9.25815 -5.45616,16.63656 -11.66544,16.48006c-6.20931,-0.1565 -11.05378,-7.78862 -10.82043,-17.04678c0.23333,-9.25815 5.45616,-16.63656 11.66544,-16.48006c6.20931,0.15649 11.05378,7.78862 10.82043,17.04678z" fill="url(#color-9)" stroke="none" stroke-width="0" stroke-linecap="butt"/><path d="M321.62191,185.30333c-0.17711,7.0273 -5.95714,12.58197 -12.91007,12.40674c-6.95293,-0.17524 -12.4458,-6.01406 -12.26869,-13.04133c0.17711,-7.0273 5.95714,-12.58197 12.91007,-12.40673c6.95293,0.17524 12.4458,6.01405 12.26869,13.04132z" fill="url(#color-10)" stroke="none" stroke-width="0" stroke-linecap="butt"/><path d="M322.13167,186.4614c-0.19491,7.73375 -4.99473,13.88621 -10.72065,13.74189c-5.72591,-0.14432 -10.20971,-6.53074 -10.01478,-14.2645c0.19491,-7.73375 4.99473,-13.88618 10.72065,-13.74186c5.72591,0.14432 10.20971,6.53074 10.01479,14.26447z" fill="url(#color-11)" stroke="none" stroke-width="0" stroke-linecap="butt"/><path d="M322.13167,186.4614c-0.19491,7.73375 -4.99473,13.88621 -10.72065,13.74189c-5.72591,-0.14432 -10.20971,-6.53074 -10.01478,-14.2645c0.19491,-7.73375 4.99473,-13.88618 10.72065,-13.74186c5.72591,0.14432 10.20971,6.53074 10.01479,14.26447z" fill="url(#color-12)" stroke="none" stroke-width="0" stroke-linecap="butt"/><path d="M322.13167,186.4614c-0.19491,7.73375 -4.99473,13.88621 -10.72065,13.74189c-5.72591,-0.14432 -10.20971,-6.53074 -10.01478,-14.2645c0.19491,-7.73375 4.99473,-13.88618 10.72065,-13.74186c5.72591,0.14432 10.20971,6.53074 10.01479,14.26447z" fill="url(#color-13)" stroke="none" stroke-width="0" stroke-linecap="butt"/><path d="M322.13167,186.4614c-0.19491,7.73375 -4.99473,13.88621 -10.72065,13.74189c-5.72591,-0.14432 -10.20971,-6.53074 -10.01478,-14.2645c0.19491,-7.73375 4.99473,-13.88618 10.72065,-13.74186c5.72591,0.14432 10.20971,6.53074 10.01479,14.26447z" fill="url(#color-14)" stroke="none" stroke-width="0" stroke-linecap="butt"/><path d="M305.53366,175.2393l-0.07142,2.8337l4.7095,7.46518l-9.27934,-5.13153l0.3106,-7.20976l13.73219,-7.9026l13.42704,4.20498l1.56408,4.42155l-12.89883,-4.70722z" fill="#ffffff" stroke="#bb44c4" stroke-width="0.375" stroke-linecap="round"/><path d="M307.5427,192.68954l-5.62622,3.33811l0.07362,2.19293l9.19493,8.48045l10.10189,-1.93647l1.3486,-12.59681l3.2515,3.94853l-2.47211,11.15075l-13.73439,2.87601l-10.44726,-9.92976l0.49135,-9.2674z" fill="#ffffff" stroke="#bb44c4" stroke-width="0.375" stroke-linecap="round"/><path d="M211.82729,162.28632l-2.38388,-5.21816l-1.64006,-5.53298l1.53332,-1.35059l25.25711,1.23845l-0.99113,12.78596l-3.5046,1.04471l1.04471,3.5046l-2.61479,1.28206l-2.8129,-4.15954l-12.16777,0.67675z" fill="url(#color-15)" stroke="#fb0adc" stroke-width="0" stroke-linecap="round"/></g></g></svg>