<svg version="1.1" xmlns="http://www.w3.org/2000/svg" xmlns:xlink="http://www.w3.org/1999/xlink" width="221.64255" height="104.08287" viewBox="0,0,221.64255,104.08287"><defs><linearGradient x1="219.16382" y1="195.16447" x2="243.8036" y2="195.16447" gradientUnits="userSpaceOnUse" id="color-1"><stop offset="0" stop-color="#303030"/><stop offset="1" stop-color="#1f1f1f"/></linearGradient><linearGradient x1="328.51181" y1="184.22176" x2="337.17379" y2="184.22176" gradientUnits="userSpaceOnUse" id="color-2"><stop offset="0" stop-color="#92ff00"/><stop offset="1" stop-color="#92ff00" stop-opacity="0"/></linearGradient></defs><g transform="translate(-127.32212,-127.95856)"><g data-paper-data="{&quot;isPaintingLayer&quot;:true}" fill-rule="nonzero" stroke-width="0" stroke-linejoin="miter" stroke-miterlimit="10" stroke-dasharray="" stroke-dashoffset="0" style="mix-blend-mode: normal"><path d="M264.07677,161.03221l0.24287,-2.9492l20.69762,-11.47159l2.86423,13.4377z" fill="none" stroke="#000239" stroke-linecap="round"/><path d="M286.41057,143.05772l-27.06657,17.90589" fill="none" stroke="#000239" stroke-linecap="round"/><path d="M285.36955,157.76681v-16.46456h13.18626v16.46456z" fill="none" stroke="#000239" stroke-linecap="butt"/><path d="M285.9501,221.74407l-25.6345,-16.47377" data-paper-data="{&quot;index&quot;:null}" fill="none" stroke="#000239" stroke-linecap="round"/><path d="M298.83345,206.67471v15.7993h-10.41026v-15.79929z" data-paper-data="{&quot;index&quot;:null}" fill="none" stroke="#000239" stroke-linecap="butt"/><path d="M299.52745,221.06965v3.86207h-13.18627v-3.86207z" data-paper-data="{&quot;index&quot;:null}" fill="none" stroke="#000239" stroke-linecap="butt"/><path d="M201.61051,204.95317l16.07742,-8.72777c0,0 1.46562,9.46194 -1.37807,15.84774c-0.89817,2.01695 -2.00697,6.38556 -3.73221,8.27635c-3.73689,4.09545 -8.211,6.19328 -8.211,6.19328z" fill="none" stroke="#0e0e0e" stroke-linecap="round"/><path d="M204.36665,130.07835c0,0 9.55889,6.93549 12.40257,13.32128c2.84368,6.3858 1.37807,15.84774 1.37807,15.84774l-16.07742,-8.72772z" data-paper-data="{&quot;index&quot;:null}" fill="none" stroke="#0e0e0e" stroke-linecap="round"/><path d="M164.98145,213.94709c0,0 -7.73826,8.72567 -15.48908,4.22988c-10.67568,-6.19235 -23.14724,-18.41681 -22.10958,-41.54282c0.90284,-20.12116 13.87301,-31.7393 24.13374,-37.82263c6.8733,-4.07504 12.53078,0.17188 12.53078,0.17188c0,0 6.98422,25.96532 7.14222,38.64743c0.15319,12.29369 -6.20808,36.31627 -6.20808,36.31627z" fill="none" stroke="#0e0e0e" stroke-linecap="round"/><path d="M160.14565,223.01073c-5.11846,-1.26296 -10.29618,-4.86662 -10.29618,-4.86662c0,0 15.94401,-3.57114 16.0949,-39.70428c0.14909,-35.71122 -14.41343,-39.74322 -14.41343,-39.74322c0,0 8.75036,-3.65401 14.24077,-4.55748c5.57762,-0.91779 5.29224,-6.55291 25.86545,-5.74712c11.26168,0.44109 14.35344,2.82299 14.35344,2.82299l-0.34576,15.63944l12.50419,10.32583l0.398,43.96074l-13.28739,8.56519l-0.47956,17.00543c0,0 -10.85316,5.25222 -14.23469,5.3102c-26.6692,0.45736 -23.1504,-7.22247 -30.3997,-9.01111z" fill="none" stroke="#0e0e0e" stroke-linecap="round"/><path d="M218.14729,193.69895v-27.10192h2.06705v27.10192z" fill="#112049" stroke="none" stroke-linecap="butt"/><path d="M332.96604,164.21016c0,0 15.80505,2.09501 15.99494,8.1386c0.28451,9.0541 -16.00209,8.73722 -16.00209,8.73722" fill="none" stroke="#013400" stroke-linecap="round"/><path d="M332.75676,169.45834c0,0 15.83752,1.28 16.16147,3.96461c0.48526,4.02187 -15.79394,3.51977 -15.79394,3.51977" fill="none" stroke="#013400" stroke-linecap="round"/><path d="M332.96604,183.93025c0,0 15.80505,2.09505 15.99494,8.13865c0.28451,9.0541 -16.00209,8.73721 -16.00209,8.73721" fill="none" stroke="#013400" stroke-linecap="round"/><path d="M332.75676,189.17842c0,0 15.83752,1.28005 16.16147,3.96466c0.48526,4.02187 -15.79394,3.51977 -15.79394,3.51977" fill="none" stroke="#013400" stroke-linecap="round"/><path d="M329.31417,164.21016c0,0 15.80499,2.09501 15.99493,8.1386c0.28451,9.05405 -16.00209,8.73722 -16.00209,8.73722" fill="none" stroke="#013400" stroke-linecap="round"/><path d="M329.1049,169.45829c0,0 15.83752,1.28006 16.16146,3.96466c0.48526,4.02187 -15.79394,3.51977 -15.79394,3.51977" fill="none" stroke="#013400" stroke-linecap="round"/><path d="M329.31417,183.93025c0,0 15.80504,2.09501 15.99493,8.1386c0.28451,9.0541 -16.00209,8.73721 -16.00209,8.73721" fill="none" stroke="#013400" stroke-linecap="round"/><path d="M329.1049,189.17842c0,0 15.83752,1.28001 16.16146,3.96462c0.48526,4.02187 -15.79394,3.51977 -15.79394,3.51977" fill="none" stroke="#013400" stroke-linecap="round"/><path d="M289.51383,205.37221v-44.89504h44.79629v44.89504z" fill="none" stroke="#000239" stroke-linecap="butt"/><path d="M290.28107,206.45896v-47.06853h15.90588v47.06854z" fill="none" stroke="#2d005b" stroke-linecap="butt"/><path d="M251.97702,206.45896v-47.06853h40.57634v47.06854z" fill="none" stroke="#2d005b" stroke-linecap="butt"/><path d="M219.73229,145.73717l2.70199,-3.68877h7.20533l0.60041,4.79539h4.80357c0,0 2.40648,2.44675 2.70199,5.53311c0.29551,3.08637 -1.50111,7.00862 -1.50111,7.00862l-6.9051,1.84438l-0.85838,-9.47124l-8.44852,-0.48837l-4.20311,1.4755l-3.60269,-6.63977z" fill="none" stroke="#1a1713" stroke-linecap="round"/><path d="M218.69268,191.72704l9.2514,-5.35608l8.76448,7.79065l-1.46075,7.30374l-19.02715,14.04567z" fill="none" stroke="#0e0e0e" stroke-linecap="round"/><path d="M227.43145,207.75737v-49.6654h34.48361v49.6654z" fill="none" stroke="#2d005b" stroke-linecap="butt"/><path d="M237.5443,207.75737v-49.6654h24.37076v49.6654z" fill="#5c5a5d" stroke="none" stroke-linecap="butt"/><path d="M214.89644,206.45896v-47.06853h17.72875v47.06854z" fill="#a719e2" stroke="none" stroke-linecap="butt"/><path d="M264.07677,161.03221l0.24292,-2.9492l23.5618,-13.76297v15.72908z" fill="#5a70ad" stroke="#000000" stroke-linecap="round"/><path d="M259.34395,160.96361l27.06662,-17.90589" fill="none" stroke="#a618e2" stroke-linecap="round"/><path d="M287.4516,159.55919v-15.79934h10.4102v15.79934z" fill="#1e2431" stroke="none" stroke-linecap="butt"/><path d="M285.36955,145.16426v-3.86207h13.18631v3.86207z" fill="#cf55f0" stroke="none" stroke-linecap="butt"/><path d="M296.62611,151.20153v-3.68649l0.4858,8.35611l-7.53006,0.24575l2.91487,-0.24575v-8.11031l0.24293,4.91537" fill="none" stroke="#394768" stroke-linecap="round"/><path d="M288.85314,206.18478v15.72908l-23.5618,-13.76296l-0.24292,-2.9492z" data-paper-data="{&quot;index&quot;:null}" fill="#5a70ad" stroke="#000000" stroke-linecap="round"/><path d="M260.31555,205.2703l27.06662,17.90589" data-paper-data="{&quot;index&quot;:null}" fill="none" stroke="#a618e2" stroke-linecap="round"/><path d="M298.8334,206.67471v15.79934h-10.41021v-15.79934z" data-paper-data="{&quot;index&quot;:null}" fill="#1e2431" stroke="none" stroke-linecap="butt"/><path d="M299.52745,221.06965v3.86207h-13.18631v-3.86207z" data-paper-data="{&quot;index&quot;:null}" fill="#cf55f0" stroke="none" stroke-linecap="butt"/><path d="M293.71124,213.5578l-0.24292,4.91537v-8.11031l-2.91487,-0.24574l7.53006,0.24574l-0.48579,8.35611v-3.68649" data-paper-data="{&quot;index&quot;:null}" fill="none" stroke="#394768" stroke-linecap="round"/><path d="M214.89644,190.22841v-14.60747h17.72875v14.60747z" fill="#cf55f0" stroke="none" stroke-linecap="butt"/><path d="M231.07709,207.75737v-49.6654h13.9832v49.6654z" fill="#949493" stroke="none" stroke-linecap="butt"/><path d="M231.07709,190.55303v-15.25668h13.98325v15.25668z" fill="#b2b3b3" stroke="none" stroke-linecap="butt"/><path d="M219.14765,162.07168v-11.83h7.71523v11.83001z" fill="#471e21" stroke="none" stroke-linecap="butt"/><path d="M239.04746,169.41237l-2.0652,1.32436l-1.3637,14.66541l-4.73462,0.74912l1.31613,-17.94947l1.49819,-2.99643l4.58981,-0.94155z" fill="#3c3c3c" stroke="#000000" stroke-linecap="round"/><path d="M237.16431,167.26025l-1.12366,3.7455l-1.49819,13.8584l-4.86916,0.74907l0.37458,-18.35297l1.49819,-2.99643h6.74194l1.12365,2.99643z" fill="#6c6c68" stroke="#000000" stroke-linecap="round"/><path d="M219.73229,145.73717l2.70199,-3.68877h7.20533l0.60041,4.79539h4.80357c0,0 2.40648,2.44675 2.70199,5.53311c0.29551,3.08637 -1.50111,7.00862 -1.50111,7.00862l-6.9051,1.84438l-0.85838,-9.47124l-8.44852,-0.48837l-4.20311,1.4755l-3.60269,-6.63977z" fill="#27231f" stroke="#d48d32" stroke-linecap="round"/><path d="M211.80238,195.40189l16.14174,-9.03087l8.76448,7.79065l-1.46075,7.30373l-26.07292,18.87947z" fill="#182547" stroke="#000000" stroke-linecap="round"/><path d="M226.67849,183.45638l0.37103,-3.7435l4.22341,-2.27122l3.11826,1.54489l5.50624,-0.54471c0,0 3.14675,7.60689 3.73167,11.49247c0.58493,3.88554 -0.48779,10.05657 -0.48779,10.05657l-8.10764,0.8021l-11.69708,12.0943l-4.17277,-8.89771c0,0 0.62428,-5.02789 1.11265,-7.32691c0.6865,-3.23181 0.59486,-10.32486 0.59486,-10.32486z" fill="url(#color-1)" stroke="#000000" stroke-linecap="round"/><path d="M235.7285,185.6049l4.44145,-2.14808" fill="none" stroke="#0b0b0b" stroke-linecap="round"/><path d="M238.23971,193.44814l4.17248,-1.87905" fill="none" stroke="#0b0b0b" stroke-linecap="round"/><path d="M201.61051,204.95317l16.07742,-8.72777c0,0 1.46562,9.46194 -1.37807,15.84774c-0.89817,2.01695 -2.00697,6.38556 -3.73221,8.27635c-3.73689,4.09545 -8.211,6.19328 -8.211,6.19328z" fill="#1b151b" stroke="#000000" stroke-linecap="round"/><path d="M204.36665,130.07835c0,0 9.55889,6.93549 12.40257,13.32128c2.84368,6.3858 1.37807,15.84774 1.37807,15.84774l-16.07742,-8.72772z" data-paper-data="{&quot;index&quot;:null}" fill="#1b151b" stroke="#000000" stroke-linecap="round"/><path d="M195.03247,157.40741l5.90152,10.08412l-7.28041,3.28508l-6.6091,-10.72607z" data-paper-data="{&quot;index&quot;:null}" fill="#773710" stroke="#602a0d" stroke-linecap="round"/><path d="M164.98145,213.94709c0,0 -7.73826,8.72567 -15.48908,4.22988c-10.67568,-6.19235 -23.14724,-18.41681 -22.10958,-41.54282c0.90284,-20.12116 13.87301,-31.7393 24.13374,-37.82263c6.8733,-4.07504 12.53078,0.17188 12.53078,0.17188c0,0 6.98422,25.96532 7.14222,38.64743c0.15319,12.29369 -6.20808,36.31627 -6.20808,36.31627z" fill="#545252" stroke="#000000" stroke-linecap="round"/><path d="M216.85462,161.39209c0,0 -1.03469,-4.94891 -2.18688,-7.5528c-1.38698,-3.13457 -4.41355,-7.20348 -4.41355,-7.20348l0.86666,-5.60089c0,0 4.00805,3.73372 6.45621,7.27243c2.09983,3.03514 3.90384,11.07416 3.90384,11.07416z" data-paper-data="{&quot;index&quot;:null}" fill="#9920ea" stroke="#221b12" stroke-linecap="round"/><path d="M160.14565,223.01073c-5.11846,-1.26296 -10.29618,-4.86662 -10.29618,-4.86662c0,0 15.94401,-3.57114 16.0949,-39.70428c0.14909,-35.71122 -14.41343,-39.74322 -14.41343,-39.74322c0,0 8.75036,-3.65401 14.24077,-4.55748c5.57762,-0.91779 5.29224,-6.55291 25.86545,-5.74712c11.26168,0.44109 14.35344,2.82299 14.35344,2.82299l-0.34576,15.63944l12.50419,10.32583l0.398,43.96074l-13.28739,8.56519l-0.47956,17.00543c0,0 -10.85316,5.25222 -14.23469,5.3102c-26.6692,0.45736 -23.1504,-7.22247 -30.3997,-9.01111z" fill="#313131" stroke="#692206" stroke-linecap="round"/><path d="M145.686,161.43002c-0.50859,5.84635 -3.31658,10.37729 -6.27191,10.1202c-2.95533,-0.25709 -4.93879,-5.20484 -4.43021,-11.05119c0.50859,-5.84635 3.31658,-10.37734 6.27192,-10.12025c2.95533,0.25709 4.93879,5.20484 4.4302,11.05124z" fill="#969192" stroke="none" stroke-linecap="butt"/><path d="M169.77879,164.72654l18.13912,14.31332l-18.13912,14.31332l-2.98577,-4.70716v-19.9819z" fill="none" stroke="#363431" stroke-linecap="butt"/><path d="M168.03173,181.29638l-40.65283,-1.60775l0.00209,-2.24955l40.51027,-0.96599z" fill="#363431" stroke="#000000" stroke-linecap="round"/><path d="M173.91294,167.71235l14.00492,11.32751l-13.54556,10.86816z" fill="none" stroke="#232729" stroke-linecap="butt"/><path d="M236.01524,155.37985c0,4.07446 -3.08115,7.3775 -6.88192,7.3775c-3.80077,0 -6.88197,-3.30304 -6.88197,-7.3775c0,-4.07446 3.08115,-7.37751 6.88197,-7.37751c3.80077,0 6.88192,3.30305 6.88192,7.37751z" fill="#c70000" stroke="none" stroke-linecap="butt"/><path d="M236.01529,155.37985c0.14417,5.76557 -4.7649,6.5307 -4.7649,6.5307c0,0 3.27976,-2.45619 3.27976,-6.5307c0,-4.07446 -3.06806,-6.74242 -3.06806,-6.74242c0,0 4.40362,0.76076 4.5532,6.74242z" fill="#b00000" stroke="none" stroke-linecap="butt"/><path d="M169.77879,164.72654l18.13912,14.31332l-18.13912,14.31332l-2.98582,-4.70716v-19.9819z" fill="#81ff00" stroke="none" stroke-linecap="butt"/><path d="M290.28107,206.45896v-47.06853h15.90588v47.06854z" fill="#4d0092" stroke="none" stroke-linecap="butt"/><path d="M188.24331,176.70281l27.3316,2.29679l-27.3316,2.0671z" fill="#232729" stroke="#363431" stroke-linecap="round"/><path d="M246.35874,206.45896v-47.06853h46.19462v47.06854z" fill="#a719e2" stroke="none" stroke-linecap="butt"/><path d="M246.35874,190.22841v-14.60747h46.19462v14.60747z" fill="#cf55f0" stroke="none" stroke-linecap="butt"/><path d="M294.8256,205.37221v-44.89504h43.3798v44.89504z" fill="#384668" stroke="none" stroke-linecap="butt"/><path d="M294.8256,203.63115v-42.29817h30.27734v42.29817z" fill="#5a70ab" stroke="none" stroke-linecap="butt"/><path d="M294.8256,189.78575v-14.60747h30.27734v14.60747z" fill="#7c91d2" stroke="none" stroke-linecap="butt"/><path d="M329.5832,203.21284l-0.32462,-39.27788c0,0 3.70679,-1.62304 5.51836,-1.62304c1.75747,0 5.19378,2.59687 5.19378,2.59687v36.68096c0,0 -3.70679,1.94766 -5.51836,1.94766c-1.75747,0 -4.86916,-0.32462 -4.86916,-0.32462z" fill="#1f2333" stroke="none" stroke-linecap="butt"/><path d="M217.45825,168.20477v20.90061l-4.13421,-6.20126l-0.22962,-7.57933z" fill="#85ff00" stroke="#232729" stroke-linecap="round"/><path d="M214.01308,176.93249h2.98582" fill="none" stroke="#232729" stroke-linecap="round"/><path d="M216.99889,181.75573h-2.75614" fill="none" stroke="#232729" stroke-linecap="round"/><path d="M215.89014,154.9889l3.50263,-1.4423" fill="none" stroke="#7312ad" stroke-linecap="round"/><path d="M214.75085,145.63847l-1.57858,3.48144" fill="none" stroke="#7312ad" stroke-linecap="round"/><path d="M209.18994,160.85512l7.57933,-5.2826l6.8903,10.33547l-6.20127,6.20126z" fill="#31302e" stroke="#000000" stroke-linecap="round"/><path d="M224.1029,205.46697c0,0 -1.49444,6.62425 -3.37058,9.54939c-1.91733,2.98932 -11.51843,5.4908 -11.51843,5.4908l1.09994,-5.69366c0,0 4.53421,-0.06334 6.00032,-2.59273c1.51144,-2.60748 3.16621,-8.69086 3.16621,-8.69086z" fill="#9920ea" stroke="#221b12" stroke-linecap="round"/><path d="M217.67327,209.50612l4.01087,1.10243" fill="none" stroke="#7312ad" stroke-linecap="round"/><path d="M215.65354,217.63319l-1.15535,-2.97428" fill="none" stroke="#7312ad" stroke-linecap="round"/><path d="M209.18984,160.85507l7.57938,-5.28255l3.6748,5.28255l-6.66061,5.97163z" fill="#49494b" stroke="#000000" stroke-linecap="round"/><path d="M222.83969,158.20712c2.20874,2.84957 2.82396,6.49935 1.37402,8.15209c-1.44994,1.65274 -4.41593,0.68246 -6.62468,-2.16707c-2.20874,-2.84957 -2.82392,-6.49935 -1.37398,-8.15208c1.44994,-1.65274 4.41589,-0.68247 6.62463,2.16706z" fill="#abb9a1" stroke="none" stroke-linecap="butt"/><path d="M222.41905,158.72598c1.74106,2.24614 2.22593,5.12309 1.08304,6.42583c-1.14289,1.30274 -3.48082,0.53794 -5.22188,-1.7082c-1.74106,-2.24614 -2.22593,-5.12308 -1.08304,-6.42583c1.14289,-1.30274 3.48082,-0.53789 5.22188,1.70825z" fill="#82ff00" stroke="none" stroke-linecap="butt"/><path d="M221.1014,191.61597l5.66069,5.66073l-6.28968,9.43453l-6.91863,-4.82212z" data-paper-data="{&quot;index&quot;:null}" fill="#31302e" stroke="#000000" stroke-linecap="round"/><path d="M217.74685,196.43804l6.08002,5.45107l-3.35446,4.82212l-6.91868,-4.82212z" data-paper-data="{&quot;index&quot;:null}" fill="#49494b" stroke="#000000" stroke-linecap="round"/><path d="M219.96655,206.28445c-1.32359,-1.50866 -0.76202,-4.84028 1.2542,-7.44143c2.01627,-2.60115 4.72366,-3.48685 6.04725,-1.97819c1.32359,1.50866 0.76202,4.84034 -1.25425,7.44149c-2.01622,2.60115 -4.72361,3.4868 -6.0472,1.97814z" data-paper-data="{&quot;index&quot;:null}" fill="#abb9a1" stroke="none" stroke-linecap="butt"/><path d="M196.21957,145.24275c0,0 10.73859,1.74491 17.19991,11.55252c3.31103,5.02575 0.50264,14.54948 0.50264,14.54948l-5.56574,0.99896l-12.13681,-27.101z" fill="#367600" stroke="#000000" stroke-linecap="round"/><path d="M220.86306,205.39198c-1.04332,-1.1892 -0.60066,-3.81537 0.98863,-5.86572c1.58929,-2.05035 3.7234,-2.74849 4.76666,-1.5593c1.04332,1.1892 0.60066,3.81537 -0.98863,5.86572c-1.58929,2.05035 -3.7234,2.74849 -4.76671,1.5593z" data-paper-data="{&quot;index&quot;:null}" fill="#82ff00" stroke="none" stroke-linecap="butt"/><path d="M212.09127,156.98687c2.92218,4.43551 0.44363,12.8407 0.44363,12.8407l-4.9121,0.88166l-10.71136,-23.91812c0,0 9.47737,1.54001 15.17984,10.19577z" fill="#b8fb00" stroke="#000000" stroke-linecap="round"/><path d="M198.60804,149.75685c0,0 9.33641,2.24133 14.37867,11.29757c2.58387,4.64075 -0.5135,12.83811 -0.5135,12.83811l-4.96411,0.51355l-8.90111,-24.64918z" fill="#83fc00" stroke="#000000" stroke-linecap="round"/><path d="M203.67552,163.71682l-4.05406,-11.55407l13.78381,10.33785c0,0 0.47479,2.71801 0.50893,4.25442c0.0334,1.5034 -0.50893,4.86716 -0.50893,4.86716z" fill="#b8fb00" stroke="#000000" stroke-linecap="round"/><path d="M198.36575,213.93326l10.43402,-27.80103l5.61696,0.65217c0,0 3.39317,9.3314 0.3999,14.55264c-5.84109,10.18915 -16.45088,12.59622 -16.45088,12.59622z" data-paper-data="{&quot;index&quot;:null}" fill="#367600" stroke="#000000" stroke-linecap="round"/><path d="M198.77569,211.14845l9.53464,-25.40463l5.13278,0.59593c0,0 3.10063,8.52701 0.36543,13.2982c-5.33762,9.3109 -15.03284,11.51045 -15.03284,11.51045z" data-paper-data="{&quot;index&quot;:null}" fill="#b8fb00" stroke="#000000" stroke-linecap="round"/><path d="M200.33864,207.97468l7.61687,-26.0439l5.16291,0.2122c0,0 3.72685,8.2725 1.3544,13.23413c-4.62969,9.68241 -14.13423,12.59763 -14.13423,12.59763z" data-paper-data="{&quot;index&quot;:null}" fill="#83fc00" stroke="#000000" stroke-linecap="round"/><path d="M214.25688,184.90403c0,0 0.77634,3.44133 0.83828,4.99716c0.0633,1.58998 -0.25295,4.42928 -0.25295,4.42928l-13.581,11.56766l3.44814,-12.20021z" data-paper-data="{&quot;index&quot;:null}" fill="#b8fb00" stroke="#000000" stroke-linecap="round"/><path d="M167.9565,134.8565c0,0 4.66129,-3.88203 8.8048,-5.09377c3.6581,-1.0698 14.78184,-1.80417 14.78184,-1.80417l-0.44504,7.30373c0,0 -7.05882,-1.38327 -11.11191,-1.45573c-3.39531,-0.06072 -12.02964,1.04994 -12.02964,1.04994z" fill="#404040" stroke="#000000" stroke-linecap="round"/><path d="M163.95128,224.93595c0,0 8.63433,1.11066 12.02964,1.04999c4.05309,-0.07245 11.11191,-1.45574 11.11191,-1.45574l0.44504,7.30373c0,0 -11.12368,-0.73436 -14.78178,-1.80416c-4.14351,-1.21174 -8.8048,-5.09378 -8.8048,-5.09378z" data-paper-data="{&quot;index&quot;:null}" fill="#404040" stroke="#000000" stroke-linecap="round"/><path d="M280.50512,198.64246v-30.83798h6.08644v30.83798z" fill="#1f2132" stroke="none" stroke-linecap="butt"/><path d="M261.43428,200.67129v-36.92447h19.88243v36.92447z" fill="#cf57f0" stroke="none" stroke-linecap="butt"/><path d="M281.41438,195.17138v-24.54055h1.7529v24.54055z" fill="#374969" stroke="none" stroke-linecap="butt"/><path d="M282.19344,184.84877v-3.11626h3.11626v3.11626z" fill="#374969" stroke="none" stroke-linecap="butt"/><path d="M282.58298,173.16279v-2.14243h2.72673v2.14243z" fill="#374969" stroke="none" stroke-linecap="butt"/><path d="M281.41438,194.19755v-1.55813h4.09009v1.55813z" fill="#374969" stroke="none" stroke-linecap="butt"/><path d="M296.71089,219.08873l-6.3299,-0.73038l6.81682,0.24346" fill="none" stroke="#394768" stroke-linecap="round"/><path d="M328.51181,207.78233v-47.12114h8.66197v47.12114z" fill="url(#color-2)" stroke="none" stroke-linecap="butt"/></g></g></svg>