<svg version="1.1" xmlns="http://www.w3.org/2000/svg" xmlns:xlink="http://www.w3.org/1999/xlink" width="159.13798" height="116.08152" viewBox="0,0,159.13798,116.08152"><defs><radialGradient cx="200.53561" cy="195.48402" r="33.83362" gradientUnits="userSpaceOnUse" id="color-1"><stop offset="0" stop-color="#62ad15"/><stop offset="1" stop-color="#519d20"/></radialGradient><radialGradient cx="199.98499" cy="187.54169" r="33.32357" gradientUnits="userSpaceOnUse" id="color-2"><stop offset="0" stop-color="#ffe838"/><stop offset="1" stop-color="#dfdc1f"/></radialGradient><radialGradient cx="200.22363" cy="152.24869" r="23.12247" gradientUnits="userSpaceOnUse" id="color-3"><stop offset="0" stop-color="#e8c307"/><stop offset="1" stop-color="#e86807"/></radialGradient></defs><g transform="translate(-160.43102,-122.78254)"><g data-paper-data="{&quot;isPaintingLayer&quot;:true}" fill-rule="nonzero" stroke="none" stroke-linejoin="miter" stroke-miterlimit="10" stroke-dasharray="" stroke-dashoffset="0" style="mix-blend-mode: normal"><path d="M268.94633,238.86406v-22.23655h18.78604v22.23655z" fill="#384038" stroke-width="0" stroke-linecap="butt"/><path d="M271.69633,235.60388v-15.72634h13.28604v15.72634z" fill="#6a796a" stroke-width="0" stroke-linecap="butt"/><path d="M275.96745,231.80787v-18.40692h4.06716v18.40692z" fill="#4e708e" stroke-width="0" stroke-linecap="butt"/><path d="M160.43102,237.21749v-65.17254h79.70932v65.17255z" fill="#8aca42" stroke-width="0" stroke-linecap="butt"/><path d="M160.43102,232.33691v-65.17255h79.70932v65.17255z" fill="#b3de3d" stroke-width="0" stroke-linecap="butt"/><path d="M164.49818,228.67647v-58.6651h71.75038v58.6651z" fill="#68bc04" stroke-width="0" stroke-linecap="butt"/><path d="M235.47258,222.3c0,2.24623 -2.45826,4.06715 -5.49066,4.06715c-3.03241,0 -5.49066,-1.82093 -5.49066,-4.06715c0,-2.24623 2.45825,-4.06716 5.49066,-4.06716c3.03241,0 5.49066,1.82093 5.49066,4.06716z" fill="#abee2d" stroke-width="0" stroke-linecap="butt"/><path d="M176.29549,222.50336c0,2.24623 -2.45826,4.06716 -5.49066,4.06716c-3.03241,0 -5.49066,-1.82093 -5.49066,-4.06716c0,-2.24623 2.45825,-4.06715 5.49066,-4.06715c3.03241,0 5.49066,1.82093 5.49066,4.06715z" fill="#abee2d" stroke-width="0" stroke-linecap="butt"/><path d="M176.29549,224.33359c0,1.23542 -2.45826,2.23694 -5.49066,2.23694c-3.03241,0 -5.49066,-1.00151 -5.49066,-2.23694c0,-1.23542 2.45825,-2.23693 5.49066,-2.23693c3.03241,0 5.49066,1.00151 5.49066,2.23693z" fill="#509400" stroke-width="0" stroke-linecap="butt"/><path d="M235.67594,224.33359c0,1.23542 -2.45825,2.23694 -5.49066,2.23694c-3.03241,0 -5.49066,-1.00151 -5.49066,-2.23694c0,-1.23542 2.45825,-2.23693 5.49066,-2.23693c3.03241,0 5.49066,1.00151 5.49066,2.23693z" fill="#509400" stroke-width="0" stroke-linecap="butt"/><path d="M167.81745,210.66445v-58.62549h64.26687v58.62549c0,0 -21.3411,9.04174 -32.10072,9.04174c-10.66178,0 -32.16615,-9.04174 -32.16615,-9.04174z" fill="url(#color-1)" stroke-width="0" stroke-linecap="butt"/><path d="M233.07787,160.54118c0,16.54153 -14.91946,29.95107 -33.32355,29.95107c-18.4041,0 -33.32356,-13.40955 -33.32356,-29.95107c0,-16.54153 14.91947,-29.95106 33.32356,-29.95106c18.4041,0 33.32356,13.40955 33.32356,29.95107z" fill="url(#color-2)" stroke-width="0" stroke-linecap="butt"/><path d="M233.43118,152.73361c0,16.54152 -15.14783,29.95107 -33.83361,29.95107c-18.6858,0 -33.83361,-13.40954 -33.83361,-29.95107c0,-16.54152 15.14782,-29.95107 33.83361,-29.95107c18.6858,0 33.83361,13.40954 33.83361,29.95107z" fill="#a9dc46" stroke-width="0" stroke-linecap="butt"/><path d="M230.38414,152.71902c0,15.21155 -13.9299,27.54295 -31.11333,27.54295c-17.18341,0 -31.11333,-12.3314 -31.11333,-27.54295c0,-15.21155 13.9299,-27.54294 31.11333,-27.54294c17.18341,0 31.11333,12.3314 31.11333,27.54294z" fill="#72be24" stroke-width="0" stroke-linecap="butt"/><path d="M222.55002,152.91757c0,11.5726 -10.35228,20.95404 -23.12246,20.95404c-12.77019,0 -23.12247,-9.38145 -23.12247,-20.95404c0,-11.5726 10.35228,-20.95403 23.12247,-20.95403c12.77019,0 23.12246,9.38144 23.12246,20.95403z" fill="url(#color-3)" stroke-width="0" stroke-linecap="butt"/><path d="M288.22714,196.34697c-0.06777,-0.09635 -0.12148,-0.22017 -0.15127,-0.37901c-0.1605,-0.85599 0.69549,-1.01649 0.69549,-1.01649l0.70736,-0.1258c2.59395,-0.83009 6.21566,-2.97367 8.70415,-2.97056c0.43854,0.3348 0.88225,0.67308 1.3207,1.02119c-2.86181,0.03965 -4.69778,0.55867 -7.45877,1.48928c-1.38407,0.0922 -2.3834,1.60021 -3.29597,2.58223c-0.03818,-0.02496 -0.0768,-0.04927 -0.11584,-0.07292c0,0 -0.31081,-0.1916 -0.40586,-0.52793z" data-paper-data="{&quot;index&quot;:null}" fill="#9f4d1e" stroke-width="0.5" stroke-linecap="butt"/><path d="M256.41442,190.2138c0.0947,-0.03633 2.50843,1.97017 2.58518,1.95845c1.75366,-0.26777 3.34756,1.15509 4.94166,1.61818c0.94725,0.27518 1.73561,0.08322 2.23949,0.55281c0.03975,-0.01349 0.07995,-0.02684 0.12061,-0.04004l0.00052,-0.04345l1.18108,0.01422c0.48095,0.00579 0.86614,0.40037 0.86035,0.88132c-0.00579,0.48095 -0.40037,0.86615 -0.88132,0.86035l-0.83796,-0.0101c-1.13247,0.37876 -1.16418,1.25821 -1.31531,2.03985c-0.25878,-0.61587 -0.62821,-1.17152 -1.1053,-1.58863c-0.82414,-0.72053 -1.26376,1.36332 -2.08087,0.63748c-1.98534,-0.14666 -4.84791,1.43072 -6.82042,0.7435c0.24824,-1.68416 0.31325,-7.3175 1.11231,-7.62395z" data-paper-data="{&quot;index&quot;:null}" fill="#9f4d1e" stroke-width="0.5" stroke-linecap="butt"/><path d="M267.03028,197.02479c1.99693,-0.56768 4.29125,1.02676 6.06847,1.65603c2.16435,0.76633 4.68063,0.46141 6.88674,0.04859c2.72166,-0.35153 5.85611,-2.66002 8.6508,-1.66286c-0.06556,0.06769 -0.13074,0.13222 -0.19564,0.19282c-0.09815,0.09166 -0.8428,0.64666 -0.84857,0.76515c-0.02326,0.47747 0.91629,1.13464 1.09174,1.50916c1.97877,1.9949 2.67698,4.4286 2.67698,7.18123c0,0.21776 -0.00638,0.43234 -0.01652,0.64511c-0.54771,0.53454 -1.23291,0.983 -2.0605,1.30713c-1.93672,1.13055 -5.03105,2.72601 -7.39814,2.07038c-2.49904,-0.69217 -2.17383,-4.24601 -3.36068,-5.89933c-0.80918,-1.1272 -1.97983,0.32291 -2.16553,1.02631c-0.16676,0.6316 -0.34411,1.26381 -0.59233,1.86804c-1.15612,2.23247 -3.63325,3.088 -6.3406,2.67672c-0.82702,-0.12563 -2.213,0.54537 -2.90746,-0.05938c-0.95431,-0.83103 -1.78262,-2.38507 -2.18556,-3.98226c0.47852,-1.60864 0.86543,-3.31 1.27186,-4.83774c0.2805,-1.05475 0.17212,-2.38426 -0.30678,-3.50855c0.42189,-0.43854 0.98683,-0.78482 1.73173,-0.99657z" data-paper-data="{&quot;index&quot;:null}" fill="#d48631" stroke-width="0.5" stroke-linecap="butt"/><path d="M264.09477,203.90483l0.31892,-0.32718c-0.32578,-1.73747 -0.42552,-3.81466 0.5935,-5.20912c0.37505,1.00319 0.44347,2.1611 0.2051,3.05683c-0.34226,1.28657 -0.66953,2.70656 -1.05211,4.0875c-0.08433,-0.55515 -0.11037,-1.10078 -0.06538,-1.60801z" data-paper-data="{&quot;index&quot;:null}" fill="#d48631" stroke-width="0.5" stroke-linecap="butt"/><path d="M291.76751,206.71493c0,-2.80868 -0.7091,-5.39203 -2.75375,-7.41904c-0.14173,-0.26908 -1.01182,-0.96233 -1.02022,-1.2062c-0.00191,-0.0556 0.6384,-0.54794 1.02993,-0.8649c4.01938,1.80446 5.15099,6.72126 2.74257,9.67433c0.00096,-0.06115 0.00147,-0.12253 0.00147,-0.18418z" data-paper-data="{&quot;index&quot;:null}" fill="#d48631" stroke-width="0.5" stroke-linecap="butt"/><path d="M272.81493,143.70315c0.22015,-1.22903 0.08986,-4.63398 1.46833,-5.29887c1.51854,-0.73245 1.92035,0.91469 2.87106,0.78721c0.46853,-0.06284 0.27942,-4.41067 0.31194,-4.53106c0.14341,-0.53095 0.36071,-1.13934 0.83015,-1.42588c0.27395,-0.16722 0.56491,0.3994 0.8852,0.3788c0.15744,-0.01012 -0.23109,-0.25272 -0.23345,-0.41291c1.90743,0.11299 4.13532,0.6473 5.70352,1.58536c0.04645,0.0189 0.0931,0.03804 0.13993,0.05742c0.0164,0.06452 0.03185,0.12942 0.04629,0.19473c0.10118,0.45766 -0.22186,1.21525 0.2131,1.38988c0.18239,0.07323 0.59028,-0.00631 0.98154,-0.06448c0.18397,-0.02736 0.39663,-0.36414 0.58177,-0.69105c0.19906,0.09809 0.39862,0.19878 0.59789,0.30165c0.20289,1.33743 0.5206,3.68473 0.59145,3.97549c0.54948,2.25501 -0.47724,3.2417 -0.47755,5.53545c0.04574,0.03622 0.07115,0.06224 0.07115,0.06224l0.32024,0.32806c2.34623,2.4108 5.98347,3.06943 8.61834,5.22651c2.24656,1.84511 4.20912,3.51358 5.92662,5.91547c0.70443,0.98513 1.26594,2.93908 2.03535,3.7234c0.53501,0.54537 3.58682,0.2216 4.35278,0.38591c2.37045,0.50848 3.97904,2.06325 5.60692,3.73306c2.02047,2.41384 4.65483,6.12535 3.47112,9.51592c-0.28456,0.81506 -0.78203,1.19893 -1.36083,1.76691c-3.56392,3.49734 -7.12284,0.2105 -8.20367,-3.67477c-0.31567,-0.81543 -0.49841,-1.66013 -0.99683,-2.39001c-0.8853,-1.29642 -3.85406,-2.88323 -5.01678,-0.91019c-1.565,2.65568 1.88723,5.2548 3.89575,6.07854c1.27709,0.56788 2.95895,1.25603 3.76793,2.47779c1.77089,2.6745 -0.17173,7.66302 -2.1411,9.78757c-0.87962,0.94893 -4.02056,3.20877 -7.61332,5.38031c-0.16937,-0.01048 -0.33633,-0.01595 -0.50033,-0.01601c-2.89386,0.03365 -4.73569,0.55335 -7.5146,1.48999c-1.54136,0.10268 -2.60557,1.96125 -3.60417,2.89381c-0.07054,0.06588 -0.47503,0.37109 -0.69915,0.58157c-0.27235,-0.06608 -0.49689,-0.18014 -0.66638,-0.34779c-0.14261,-0.40831 -1.42872,-1.29833 -1.13772,-1.91078c2.05235,-4.31919 14.8431,-12.62577 15.35919,-15.44111c0.23185,-1.26475 0.1884,-3.46858 -1.14605,-3.8003c-1.3659,-0.33954 -3.53422,0.14284 -4.98838,0.12534c-4.88785,-0.05885 -8.67902,0.75492 -12.42702,3.99792c-1.14429,0.9901 -1.81604,2.6834 -2.80545,3.82467c-0.38079,0.43922 -0.66688,1.2395 -1.24779,1.21831c-0.88176,-0.03217 -1.33664,-1.52997 -1.59279,-2.18761c-0.54861,-1.53628 -2.9541,-0.84754 -4.18634,-1.82729c-2.75743,-2.19245 -5.31597,-5.12935 -8.29674,-6.08116c-2.02645,-0.64708 -3.37339,-1.36074 -5.37615,-0.58854c-0.76812,0.37169 -2.73676,1.11773 -3.19423,1.87708c-1.06622,1.76975 0.04935,6.27068 0.17965,8.2426c0.07388,1.11791 2.03459,4.89782 0.95072,5.72742c-0.97501,0.74626 -5.88326,-0.37499 -6.94146,-0.81042c-3.48378,-2.14405 -7.12674,-8.65104 -5.13716,-12.79936c0.86894,-1.81178 3.01471,-2.76351 4.92142,-3.03285c1.11834,-0.15797 2.05401,-0.51168 1.8358,-0.71938c0.66395,-3.76266 0.39194,-6.46645 0.74496,-10.32214c0.16282,-1.77846 0.76889,-3.71302 1.23343,-5.44184c0.48138,-1.7915 1.18967,-3.00269 2.12196,-4.51495c2.08395,-2.05777 4.87752,-3.82684 7.59498,-5.02987c2.81925,-1.24809 6.67106,-1.57249 9.09422,-3.50424c0,0 0.01583,-0.01236 0.04459,-0.03093c0.0454,-0.25353 0.0908,-0.50706 0.1362,-0.7606z" data-paper-data="{&quot;index&quot;:null}" fill="#a25121" stroke-width="0.5" stroke-linecap="butt"/><path d="M289.30295,196.98485c0.70305,-0.75751 -0.16171,-3.80996 1.03753,-3.87426c2.70929,-0.89488 6.65873,-1.36143 9.44946,-1.35621c-1.67022,0.9891 -1.43637,5.3623 -3.14854,6.43265c-2.61554,1.63509 -7.05702,-0.19469 -8.46084,-0.28254c0.33356,-0.28317 1.00712,-0.79543 1.12239,-0.91964z" data-paper-data="{&quot;index&quot;:null}" fill="#a25121" stroke-width="0.5" stroke-linecap="butt"/><path d="M266.07806,176.17138c3.10771,0.97217 5.94366,2.85762 8.6311,4.64051c0.88305,0.58583 1.88471,1.40846 2.42386,2.31698c0.2355,0.39683 0.08032,0.54819 0.50391,0.73125c0.21967,0.09492 1.67439,-1.70409 1.84486,-1.90417c5.34994,-5.23039 12.14293,-9.77808 19.93788,-7.07426c3.23611,1.48621 2.66153,4.24713 2.11554,7.13616c-0.95019,5.02782 -2.39138,9.34121 -7.53755,11.20198c-2.31588,0.8333 -4.79263,1.38469 -7.07433,2.26102c-1.07121,0.41141 -1.42061,1.32597 -2.69027,1.56104c-3.26638,0.60478 -7.49331,-0.42766 -10.85573,-0.47218c-2.23896,0.18874 -3.24501,-0.90911 -5.28593,-1.38068c-4.04538,-0.93475 -9.50943,-1.54441 -12.04757,-5.34364c-0.82079,-1.22861 -0.94196,-2.73003 -1.27325,-4.13804c-0.23325,-2.34464 -0.81208,-5.40077 0.01573,-7.66493c1.77974,-4.86783 7.58454,-4.51622 11.01126,-2.17672c0,0 0.16283,0.1114 0.28046,0.30568z" data-paper-data="{&quot;index&quot;:null}" fill="#de8f31" stroke-width="0.5" stroke-linecap="butt"/><path d="M297.50149,192.14821c0.01013,-0.84167 0.70065,-1.51575 1.54233,-1.50563c0.11322,0.00136 0.22341,0.01504 0.32931,0.03973l1.58602,0.33711l-0.03652,0.17178c0.34917,-0.03974 0.69688,-0.08907 1.04194,-0.15607c2.46874,-0.47934 5.17219,-3.7879 6.35134,-5.82395c1.8176,-3.13845 1.95108,-6.58458 -1.17446,-7.67535c-1.7908,0.05951 -3.6844,0.11192 -4.8384,-1.62385c-1.18498,-1.78235 -1.17349,-7.40775 0.88733,-8.48359c0.79287,-0.41392 1.80987,-0.11039 2.68171,0.08928c2.42013,0.55427 3.11735,2.35382 3.76468,4.46262c0.25917,0.84429 0.2997,1.88832 0.79701,2.59678c0.28519,0.0921 0.62592,0.27706 0.82938,0.64837c1.73784,0.77649 5.18705,1.47366 5.25807,-1.08816c-0.31579,-4.03524 -2.29939,-9.1811 -5.91824,-11.39324c-1.86124,-1.13774 -4.25205,-0.67116 -6.15262,-1.61798c-2.10658,-1.04945 -2.14308,-2.56907 -3.33131,-4.28675c-1.60426,-2.31909 -3.61454,-4.0056 -5.55512,-5.98633c-1.96752,-1.81697 -5.97615,-1.81054 -7.55899,-3.81766c-1.36816,-1.73487 -0.87135,-5.42727 -1.04746,-7.46068c-0.05946,-0.68647 -0.41111,-2.19937 -0.64145,-3.39202c-0.51718,0.34713 -0.91815,1.18936 -1.45299,0.95961c-0.90742,-0.3898 -1.11732,-1.63126 -1.61021,-2.48707c-0.12919,-0.22431 -0.25659,-0.45203 -0.38241,-0.68253c0.644,0.22433 1.25043,0.49561 1.78127,0.81314c1.69145,0.68812 3.63342,1.69877 5.26103,2.73386c0.21789,1.70774 0.00389,3.68068 0.19508,5.12805c0.11043,0.83595 -0.1839,1.82104 0.29967,2.5118c0.47927,0.68458 1.63063,0.38818 2.41111,0.68687c1.88209,0.72029 3.34174,1.47775 4.85447,2.80605c2.91422,2.9968 5.01639,5.74799 7.33461,9.16669c0.47601,0.70198 1.29611,0.63289 2.01518,0.7762c1.77324,0.3534 3.5736,0.59017 5.15492,1.539c4.62137,2.77293 6.98613,8.93614 7.39123,14.05355c-0.11204,0.75424 0.01264,1.58465 -0.33615,2.26272c-1.1101,2.15812 -3.89873,2.8267 -6.51454,2.44349c1.10231,4.5931 -3.53659,10.73128 -6.73518,13.24369c-0.51675,0.40589 -1.42551,1.05114 -2.36144,1.52209c-1.35843,-0.46175 -2.79833,-0.78384 -4.06225,-0.78423c-0.65552,0.00762 -1.25706,0.04018 -1.82774,0.09688c-0.1491,-0.23886 -0.23382,-0.5218 -0.23019,-0.82426zM305.23945,174.18363l0.79984,0.01719c0.41467,0.04994 0.75998,0.08175 1.06782,0.11472c-0.39414,-1.82976 -0.64352,-3.92407 -2.60674,-4.13484c-0.51031,-0.05478 0.25317,0.99625 0.3334,1.50319c0.13232,0.83608 -0.15829,1.72762 0.04731,2.54295c0.20744,-0.04502 0.3584,-0.0432 0.3584,-0.0432z" data-paper-data="{&quot;index&quot;:null}" fill="#783b1a" stroke-width="0.5" stroke-linecap="butt"/><path d="M280.27461,133.82675c-0.25714,0.46611 -1.01364,0.44221 -1.34789,0.85652c-0.47924,0.59402 -0.09357,3.30219 -0.10193,3.99492c0,0 -0.00437,0.3628 -0.18586,0.73225c0.09977,0.39335 0.05713,0.89219 -0.44816,1.38547c-1.09058,1.06465 -2.15521,-0.02595 -2.15521,-0.02595l-0.46961,-0.62648c-0.11187,-0.2747 -0.26526,-0.52774 -0.43246,-0.77376c-0.04559,1.71061 -0.60895,3.77988 -0.76317,5.15479c0,0 -0.1125,1.00295 -0.97056,1.28499c-0.3408,0.37544 -0.81487,0.49863 -0.81487,0.49863c-3.84891,0.99813 -7.04688,1.95721 -10.68465,3.52185c-1.63813,0.70457 -3.81819,1.65441 -4.98156,3.0711c-2.11168,2.57147 -3.47121,6.65216 -4.16384,9.84035c-0.02375,2.79791 0.34219,5.64298 0.06788,8.44158c-0.09212,0.93987 -0.49822,2.08539 -1.12447,2.79224c-1.31027,1.47888 -3.73335,0.16732 -5.30448,1.86034c-1.05274,1.1344 -0.90285,3.72291 -0.54726,5.08412c0.95298,3.64803 2.20278,5.88453 5.19708,8.2166c1.92146,0.86829 2.88407,1.17774 4.94313,0.5624l1.24903,-0.04924c0,0 1.52398,0.01835 1.50563,1.54233c-0.00612,0.50895 -0.18019,0.8459 -0.40933,1.06895c0.21692,0.0553 0.44684,0.17369 0.6818,0.38433c0.95833,0.85913 0.38188,1.802 0.17938,2.07452c-1.29413,-0.03743 -2.64086,-0.10291 -3.83771,-0.43631c0.53678,-0.49991 1.04519,-1.00438 1.50616,-1.52072c0,0 0.03945,-0.04399 0.11147,-0.1069l-0.14574,-0.02695c-2.91334,0.80935 -4.67079,0.36502 -7.35856,-0.88247c-4.52683,-3.44778 -10.1653,-12.39718 -5.34803,-17.94157c0.73799,-0.84937 2.45773,-1.76796 3.53869,-2.04989c0.60339,-0.15737 1.2394,-0.2219 1.86175,-0.18294c0.24054,0.01506 0.51502,0.54653 0.6384,0.33949c0.14612,-0.24519 -0.34456,-0.48235 -0.38487,-0.76493c-0.08393,-0.58834 0.0143,-1.18851 0.02146,-1.78277c0.02804,-2.32932 -0.10528,-4.63366 -0.07089,-6.95896c0.77916,-3.73004 2.33351,-8.45934 4.84549,-11.44748c3.90849,-4.64933 11.26319,-6.0678 16.84129,-7.49439c0.16417,-1.90879 0.17426,-3.92104 0.48586,-5.76545c0.16576,-0.98117 -0.16348,-2.46355 0.73386,-2.8936c1.1821,-0.56653 2.24953,-0.22895 3.14733,0.48263c0.06849,-0.86227 0.24559,-1.68921 0.66113,-2.36624c0.00241,-0.00392 0.00485,-0.0078 0.00734,-0.01163c0.59108,0.01683 1.16859,0.07796 1.75491,0.26927c0.70983,0 1.48955,0.06559 2.27947,0.19568c-0.06114,0.16126 -0.12995,0.31291 -0.20742,0.45333z" data-paper-data="{&quot;index&quot;:null}" fill="#783b1a" stroke-width="0.5" stroke-linecap="butt"/><path d="M265.16521,197.16607l0.5172,-1.05764c0,0 0.69795,-1.35487 2.05282,-0.65691c1.35487,0.69795 0.65692,2.05282 0.65692,2.05282l-0.8106,1.51988c-0.75687,0.98245 -1.44942,2.01969 -2.12426,3.07191c0.04919,-0.191 0.09847,-0.3799 0.14803,-0.56622c0.33395,-1.25575 0.11669,-2.90095 -0.62081,-4.12563c0.05983,-0.0798 0.12005,-0.15922 0.18069,-0.23821z" data-paper-data="{&quot;index&quot;:null}" fill="#783b1a" stroke-width="0.5" stroke-linecap="butt"/><path d="M290.92087,208.26198c-2.01271,2.43132 -6.37076,3.54654 -9.42966,2.43246c-1.65994,-0.60456 -2.30387,-2.33501 -2.62051,-3.91254c-0.08505,-0.42372 -0.24443,-1.14768 -0.26382,-1.70609c-0.43752,0.46275 -1.07524,0.93704 -1.49847,0.7873c-0.18006,0.91849 -0.45295,2.06077 -0.87195,2.76806c-2.05758,3.47335 -9.05692,3.55998 -11.20806,0.38912c-0.44957,-0.6627 -0.68086,-1.48238 -0.79613,-2.3185c0.294,-0.95318 0.55251,-1.94612 0.79925,-2.92191c0.84728,0.02564 0.83698,0.88083 0.83698,0.88083c-0.01527,1.05749 -0.00863,2.49682 0.62546,3.41831c1.41037,2.04963 7.00707,2.08387 8.25203,-0.34917c0.3506,-0.68518 0.5845,-1.75427 0.72051,-2.52111l0.01301,-1.0807c0.00579,-0.48095 0.40037,-0.86614 0.88132,-0.86035c0.24048,0.0029 0.45701,0.10298 0.61271,0.26248l0.41505,0.42516c0.06655,-0.01521 0.12961,-0.04421 0.18745,-0.09019c0.60915,-0.48434 1.04248,-1.69451 2.23606,-1.12402c1.02485,0.48983 0.7052,4.34459 1.29502,5.39269c1.46589,2.60488 7.01945,0.80954 8.46681,-0.97619c0.21934,-0.26752 0.43869,-0.53502 0.65804,-0.80254l0.28469,-0.42189c0,0 0.31041,-0.45369 0.79844,-0.39355c0.03105,0.38484 0.04568,0.77673 0.04568,1.1753c0,0.35996 -0.01744,0.71122 -0.04045,1.05999c-0.13315,0.1624 -0.2663,0.32479 -0.39946,0.48719z" data-paper-data="{&quot;index&quot;:null}" fill="#783b1a" stroke-width="0.5" stroke-linecap="butt"/><path d="M264.12683,204.63972c0,0 0.00684,-0.56753 0.46762,-0.78076c-0.14558,0.57641 -0.29589,1.15792 -0.45602,1.73211c-0.0129,-0.32734 -0.01462,-0.64739 -0.0116,-0.95135z" data-paper-data="{&quot;index&quot;:null}" fill="#783b1a" stroke-width="0.5" stroke-linecap="butt"/><path d="M288.65547,196.65772c0.21365,-0.15625 0.41734,-0.24826 0.60807,-0.29363c-0.28423,0.33046 -0.5559,0.64598 -0.82289,0.89531c-0.0455,0.0425 -0.23,0.18461 -0.41539,0.33662c0.05183,-0.31155 0.22611,-0.64275 0.63021,-0.9383z" data-paper-data="{&quot;index&quot;:null}" fill="#783b1a" stroke-width="0.5" stroke-linecap="butt"/><path d="M268.11359,197.06178c-0.22913,-0.82873 -0.39525,-1.74244 0.5473,-2.38833c1.13386,-0.77699 2.44648,0.08139 2.92213,1.05682c0.5731,1.17524 -0.15043,3.00761 0.28468,4.24746c0.23787,0.67781 1.64518,1.63118 1.04582,2.52845c-0.59331,0.88821 -2.36492,0.40157 -3.01965,-0.06254c-1.23075,-0.87246 -1.27248,-2.48459 -1.48376,-3.9535c-0.15396,-0.24368 -0.15062,-0.52144 -0.15062,-0.52144l0.02729,-0.18444c-0.03827,-0.1765 -0.08278,-0.34843 -0.13628,-0.51399c0,0 -0.02707,-0.08462 -0.03692,-0.20845z" data-paper-data="{&quot;index&quot;:null}" fill="#98461d" stroke-width="0.5" stroke-linecap="butt"/><path d="M287.4465,197.96715c-0.05746,0.16423 -0.1061,0.33503 -0.14861,0.51057l0.02285,0.18505c0,0 -0.00335,0.27776 -0.16313,0.51765c-0.24659,1.46338 -0.32713,3.07407 -1.57852,3.91663c-0.66572,0.44822 -2.44853,0.89206 -3.02027,-0.01017c-0.57758,-0.91144 0.85228,-1.83065 1.10639,-2.50254c0.46485,-1.22902 -0.21437,-3.07826 0.38685,-4.23936c0.49901,-0.9637 1.8319,-1.79022 2.94673,-0.98615c0.67343,0.4857 0.75817,1.09869 0.65864,1.7133c-0.03744,0.23118 -0.10096,0.46257 -0.16902,0.68751c-0.01281,0.12356 -0.04192,0.20752 -0.04192,0.20752z" data-paper-data="{&quot;index&quot;:null}" fill="#98461d" stroke-width="0.5" stroke-linecap="butt"/><path d="M283.24075,144.20405c-0.20164,-0.11776 -0.38987,-0.33689 -0.38495,-0.74457c0.01049,-0.87085 0.88133,-0.86036 0.88133,-0.86036l0.96403,0.5591c0.42291,1.1067 0.86547,2.14212 1.25096,3.25457c0.24816,0.08863 0.55154,0.30255 0.54532,0.81867c-0.01049,0.87085 -0.88131,0.86035 -0.88131,0.86035l-0.16973,-0.01317c-0.0488,0.01006 -0.09539,0.01617 -0.1399,0.0188c-3.31942,0.51986 -5.91422,1.95083 -9.41307,1.3243c0,0 -0.85726,-0.1535 -0.70376,-1.01076c0.1535,-0.85727 1.01077,-0.70376 1.01077,-0.70376c2.92278,0.52338 5.2495,-0.55862 7.95409,-1.15644c-0.28776,-0.79478 -0.59956,-1.55366 -0.91377,-2.34676z" data-paper-data="{&quot;index&quot;:null}" fill="#843e18" stroke-width="0.5" stroke-linecap="butt"/><path d="M271.05615,198.17586c-0.21951,-0.0395 0.1348,-0.16651 -0.01114,-0.51872c-0.33341,-0.80455 -0.12082,-1.02696 -0.12082,-1.02696l0.9996,-0.39498c2.5497,-0.00978 5.0095,0.25065 7.54189,0.42873c1.22442,0.08611 3.0385,-0.15421 4.18927,0.19641c1.44791,0.44116 1.30253,0.88046 1.78912,2.12543c-0.01072,1.31148 -0.14459,3.03267 -1.33701,3.91505c-1.07999,0.79916 -3.00455,0.28641 -4.24222,0.34996c-4.02053,0.20644 -9.28654,0.34335 -8.8087,-5.07492z" data-paper-data="{&quot;index&quot;:null}" fill="#de9a39" stroke-width="0.5" stroke-linecap="butt"/><path d="M283.97042,184.96674c0.06243,-0.09424 0.11902,-0.14948 0.11902,-0.14948l0.17845,-0.16921c2.38815,-1.93938 4.90285,-3.71548 7.68955,-5.03319c2.24552,-0.27463 5.35917,-0.17945 6.35086,2.36512c0.9628,2.4704 -0.85564,7.32128 -2.49935,9.23312c-1.3565,1.57779 -3.59879,2.58841 -5.42224,3.47286c-1.93018,0.79439 -5.34285,1.67812 -7.29813,0.47055c-2.06752,-1.2769 -2.52069,-6.98234 -1.10766,-8.85173c0.4818,-0.63741 1.23474,-1.03209 1.98951,-1.33803z" data-paper-data="{&quot;index&quot;:null}" fill="#fffeff" stroke-width="0.5" stroke-linecap="butt"/><path d="M270.39675,187.515c0.06174,0.04438 0.0971,0.08059 0.0971,0.08059l0.49266,0.6571c0.68942,2.98614 -2.46665,5.97766 -4.88117,3.03472c-2.43269,-2.96511 1.22649,-5.6112 4.03211,-4.01922c0,0 0.14699,0.08637 0.25929,0.24678z" data-paper-data="{&quot;index&quot;:null}" fill="#4d2813" stroke-width="0.5" stroke-linecap="butt"/><path d="M283.80063,188.24381c2.84313,-1.52399 6.43754,1.20944 3.93416,4.11512c-2.48467,2.88395 -5.5678,-0.18267 -4.80668,-3.15135l0.50835,-0.64506c0,0 0.03622,-0.03536 0.099,-0.07823c0.11613,-0.15768 0.26517,-0.24047 0.26517,-0.24047z" data-paper-data="{&quot;index&quot;:null}" fill="#4d2813" stroke-width="0.5" stroke-linecap="butt"/><path d="M273.42032,186.18588c1.36762,1.90287 0.77723,7.59574 -1.32045,8.8225c-1.98379,1.16016 -5.37421,0.19449 -7.28469,-0.64613c-1.80163,-0.92809 -4.01893,-1.9924 -5.33706,-3.6024c-1.59719,-1.95085 -3.29832,-6.8441 -2.27634,-9.29062c1.05268,-2.51996 4.1677,-2.54014 6.40596,-2.21153c2.75416,1.38442 5.2254,3.22055 7.56616,5.21687l0.17431,0.17345c0,0 0.05524,0.0566 0.11537,0.15231c0.74718,0.32404 1.49041,0.73671 1.95672,1.38553z" data-paper-data="{&quot;index&quot;:null}" fill="#fffeff" stroke-width="0.5" stroke-linecap="butt"/><path d="M282.43626,179.91825c-0.00937,-0.0145 -0.01859,-0.02955 -0.02769,-0.04513c-0.41445,-0.71 0.29554,-1.12447 0.29554,-1.12447l0.57668,-0.33642c2.2966,-1.27166 4.70865,-2.46125 7.08607,-3.58939c1.70686,1.25761 2.55935,3.96462 1.20961,5.9966c-0.84705,1.27519 -2.91817,1.84367 -4.15292,2.6129c-0.8551,0.53271 -1.63662,1.82443 -2.87268,1.53048c-1.86676,-0.44394 -1.82766,-3.5791 -2.11462,-5.04457z" data-paper-data="{&quot;index&quot;:null}" fill="#713617" stroke-width="0.5" stroke-linecap="butt"/><path d="M271.26644,184.9052c-1.24278,0.26411 -1.99297,-1.04606 -2.835,-1.59921c-1.21587,-0.79873 -3.27271,-1.4169 -4.08881,-2.71212c-1.30045,-2.0639 -0.38302,-4.74957 1.35363,-5.96573c2.34958,1.18506 4.73227,2.43237 6.9976,3.75896l0.56843,0.3502c0,0 0.69982,0.43143 0.26838,1.13126c-0.00947,0.01535 -0.01906,0.03017 -0.02876,0.04445c-0.32216,1.45815 -0.35856,4.59332 -2.23547,4.9922z" data-paper-data="{&quot;index&quot;:null}" fill="#713617" stroke-width="0.5" stroke-linecap="butt"/><path d="M271.2706,188.67518c0.06173,0.04439 0.0971,0.08061 0.0971,0.08061l0.49266,0.65711c0.68941,2.98613 -2.46665,5.97765 -4.88115,3.03472c-2.43269,-2.96512 1.22648,-5.61119 4.0321,-4.01921c0,0 0.147,0.08636 0.2593,0.24678z" data-paper-data="{&quot;index&quot;:null}" fill="#4d2813" stroke-width="0.5" stroke-linecap="butt"/><path d="M283.90928,209.53197c-0.43541,-0.00525 -0.43018,-0.44066 -0.43018,-0.44066c0.00699,-0.58056 0.01573,-1.30625 0.02272,-1.88681c0,0 0.00525,-0.43543 0.44066,-0.43018c0.43541,0.00525 0.43018,0.44066 0.43018,0.44066c-0.00699,0.58056 -0.01398,1.16111 -0.02097,1.74168l-0.00174,0.14514c0,0 -0.00525,0.43542 -0.44066,0.43017z" data-paper-data="{&quot;index&quot;:null}" fill="#a0531a" stroke-width="0.5" stroke-linecap="butt"/><path d="M285.94473,209.26616c-0.43541,-0.00525 -0.43018,-0.44066 -0.43018,-0.44066c0.00349,-0.29028 0.00873,-0.7257 0.01223,-1.01597c0,0 0.00525,-0.43543 0.44066,-0.43018c0.43541,0.00525 0.43018,0.44066 0.43018,0.44066c-0.00349,0.29028 -0.00699,0.58057 -0.01049,0.87085l-0.00175,0.14514c0,0 -0.00524,0.43542 -0.44065,0.43017z" data-paper-data="{&quot;index&quot;:null}" fill="#a0531a" stroke-width="0.5" stroke-linecap="butt"/><path d="M287.69689,208.41629c-0.43541,-0.00525 -0.43018,-0.44066 -0.43018,-0.44066c0.00174,-0.14515 0.00525,-0.43542 0.007,-0.58056c0,0 0.00524,-0.43542 0.44065,-0.43018c0.43541,0.00525 0.43018,0.44066 0.43018,0.44066c-0.00174,0.14515 -0.00349,0.29028 -0.00525,0.43543l-0.00174,0.14514c0,0 -0.00525,0.43542 -0.44066,0.43018z" data-paper-data="{&quot;index&quot;:null}" fill="#a0531a" stroke-width="0.5" stroke-linecap="butt"/><path d="M271.86092,209.53207c-0.43541,-0.00525 -0.43018,-0.44066 -0.43018,-0.44066l0.00525,-0.43541c0.00678,-0.24771 -0.03503,-0.49973 -0.11397,-0.73463c0,0 -0.13272,-0.41473 0.28202,-0.54745c0.41473,-0.13271 0.54744,0.28202 0.54744,0.28202c0.10041,0.32568 0.15566,0.66974 0.15535,1.01054l-0.00524,0.43542c0,0 -0.00525,0.43543 -0.44066,0.43018z" data-paper-data="{&quot;index&quot;:null}" fill="#a0531a" stroke-width="0.5" stroke-linecap="butt"/><path d="M270.25912,209.94828c-0.43541,-0.00525 -0.43018,-0.44066 -0.43018,-0.44066c0.00174,-0.14515 0.00874,-0.7257 0.01049,-0.87084c0,0 0.00525,-0.43542 0.44066,-0.43017c0.43541,0.00525 0.43018,0.44066 0.43018,0.44066c-0.00174,0.14515 -0.00349,0.29028 -0.00524,0.43542l-0.00525,0.43542c0,0 -0.00525,0.43542 -0.44066,0.43017z" data-paper-data="{&quot;index&quot;:null}" fill="#a0531a" stroke-width="0.5" stroke-linecap="butt"/><path d="M267.94912,208.90433c0.0029,-0.24048 0.20018,-0.43308 0.44066,-0.43018c0.24048,0.0029 0.43308,0.2002 0.43018,0.44066c-0.0029,0.24048 -0.2002,0.43307 -0.44066,0.43017c-0.24048,-0.0029 -0.43308,-0.20018 -0.43018,-0.44065z" data-paper-data="{&quot;index&quot;:null}" fill="#a0531a" stroke-width="0.5" stroke-linecap="butt"/><path d="M251.77408,178.16038c0.52391,0.09833 0.71442,0.66234 0.71442,0.66234l0.2584,0.79566c0.20133,1.08284 0.30379,2.06203 0.37941,3.15465c0.07089,1.02418 0.49226,1.88594 -0.34059,2.84597c-1.27443,1.46901 -3.34723,1.08348 -4.38183,-0.44271c-1.85486,-2.73622 -0.63593,-6.58667 2.53875,-7.22002c0,0 0.4868,-0.0905 0.83145,0.2041z" fill="#de8f31" stroke-width="0.5" stroke-linecap="butt"/><path d="M304.34056,179.64434c3.15851,0.70959 4.28438,4.58826 2.36418,7.27903c-1.07103,1.50084 -3.15253,1.83636 -4.39121,0.3371c-0.8095,-0.97979 -0.3675,-1.83116 -0.27197,-2.85334c0.10192,-1.0905 0.22791,-2.06693 0.45526,-3.14461l0.27746,-0.78922c0,0 0.20403,-0.55925 0.73016,-0.64495c0.35163,-0.28621 0.83612,-0.18401 0.83612,-0.18401z" data-paper-data="{&quot;index&quot;:null}" fill="#de8f31" stroke-width="0.5" stroke-linecap="butt"/><path d="M254.80254,217.97792v-5.69402h45.82327v5.69402z" fill="#909893" stroke-width="0" stroke-linecap="butt"/><path d="M300.72723,208.15967c0.21717,1.14167 0.62267,2.96445 -0.80425,3.75189c-0.55987,0.30897 -1.32047,-0.89524 -1.84419,-0.52834c-0.66046,0.4627 -1.33551,1.23913 -2.13544,1.13695c-0.43977,-0.05618 -0.67949,-1.04986 -1.28567,-0.69359c-0.60953,0.35823 -1.03065,1.20423 -1.73754,1.21642c-0.9721,0.01677 -1.54717,-1.9678 -2.44387,-1.59207c-0.20499,0.08589 -0.00923,0.53364 -0.20776,0.63357c-0.06572,0.03307 -0.13263,0.06289 -0.20056,0.08996l0.01804,0.03519l-0.9164,0.46974c-0.2286,0.11965 -0.50786,0.13699 -0.76144,0.02301c-0.39871,-0.1792 -0.59681,-0.62131 -0.48159,-1.02977l0.22917,-0.87113c0.09026,-2.26198 0.60189,-5.38539 -0.50838,-7.48486c0.13683,-0.03851 -1.00731,-5.57067 -0.96094,-5.59095c0.94687,-0.41415 3.34533,-2.3305 4.47066,-1.91105c2.37348,0.21738 3.57247,-1.37959 5.55805,-0.68338c0.27038,0.09481 0.8371,3.40093 1.34002,5.93166c0.30444,1.53196 0.58549,2.77978 0.76328,2.85914c0.13951,0.06074 0.27957,0.12698 0.41984,0.19822c0.65469,1.28679 1.21968,2.6238 1.48897,4.03941z" data-paper-data="{&quot;index&quot;:null}" fill="#9f4d1e" stroke-width="0.5" stroke-linecap="butt"/><path d="M287.93135,213.71207c-0.37831,-0.49712 0.0444,-1.03355 0.0444,-1.03355l0.19111,-0.20054c0.86816,-1.53269 1.62872,-2.06652 3.13972,-0.82972c1.05921,-0.18159 1.63961,0.3956 2.43899,0.54053c0.59541,0.10794 0.65763,-1.21086 1.25416,-1.31245c0.66502,-0.11326 1.12406,0.94869 1.79835,0.92828c0.87069,-0.02634 0.91107,-2.09553 2.66228,-1.78457c1.20902,0.21467 2.06464,1.93095 2.35361,2.9247c0.79548,2.7357 0.4987,6.84973 -1.90544,8.6274c-1.75622,0.66709 -6.98777,1.52242 -8.60851,0.23252c-1.37025,-1.09054 -0.47459,-2.79957 -1.36019,-3.89223c-0.38727,-0.47783 -1.33927,-0.07575 -1.7727,-0.51217c-0.86359,-0.86956 -0.60057,-2.40378 -0.23576,-3.68814z" data-paper-data="{&quot;index&quot;:null}" fill="#d48631" stroke-width="0.5" stroke-linecap="butt"/><path d="M289.29443,203.82009c0.53088,2.36167 0.96751,4.4343 0.56678,6.87018c-0.26379,1.6034 -1.05816,3.19171 -1.30274,4.75237c-0.19002,1.2126 1.82477,2.15312 2.36171,2.83496c0.64594,0.82026 0.52524,2.05729 1.08635,2.93778c0.32039,0.50277 1.20144,0.14282 1.78814,0.03698c1.98936,-0.35886 4.05386,-0.78238 6.04209,-1.22577c2.13032,-0.67001 1.29222,-2.24109 1.29176,-4.22463c-0.0009,-3.89939 -1.31139,-7.4719 -2.9253,-10.99794l-0.75458,-1.36531c-0.01443,-0.02546 -0.02812,-0.05131 -0.04106,-0.07752c0.45202,0.15654 -1.47228,-9.22202 -0.97993,-9.00225c1.11205,0.48417 0.36304,-1.6002 1.38592,-0.67283c1.22271,3.08789 6.36076,18.72975 6.36313,22.11583c0.00252,3.61719 0.28566,5.5963 -3.46227,7.14384c-2.81553,0.63697 -8.59111,2.67891 -10.96994,0.31285c-0.77663,-0.77246 -0.47765,-2.23222 -1.19267,-3.06206c-1.46004,-1.69447 -3.1083,-2.24136 -3.03683,-4.92232c0.00578,-0.21657 0.03179,-0.44299 0.07293,-0.67657c0.25133,-0.47839 0.50393,-0.95403 0.72689,-1.46652c1.12046,-2.57551 1.50079,-5.22727 0.43451,-7.90167c-0.0184,-0.24674 -0.36685,-0.9432 -0.44792,-1.31656c0.00855,-0.07235 0.02191,-0.14811 0.04181,-0.22518c0.25212,-0.10538 1.40625,-0.38029 1.59323,-0.46207c0.22577,-0.09875 0.4772,-0.22605 0.74449,-0.35698c0.47882,0.35215 0.61353,0.95141 0.61353,0.95141z" data-paper-data="{&quot;index&quot;:null}" fill="#783b1a" stroke-width="0.5" stroke-linecap="butt"/><path d="M256.20783,197.09049c0.14028,-0.07123 2.78033,-0.38747 2.91984,-0.44822c2.62829,-1.17318 1.51902,-1.59253 4.41135,-1.85743c1.12534,-0.41945 1.27379,0.49691 2.22066,0.91106c0.04637,0.02029 0.90223,8.55244 1.03906,8.59095c-1.11028,2.09948 -0.59865,5.22288 -0.50839,7.48486l0.22917,0.87113c0.11522,0.40846 -0.08288,0.85057 -0.48159,1.02978c-0.25358,0.11398 -0.53284,0.09664 -0.76144,-0.02301l-0.9164,-0.46974l0.01804,-0.03519c-0.06793,-0.02707 -0.13484,-0.05689 -0.20056,-0.08996c-0.19853,-0.09993 -0.00277,-0.54768 -0.20776,-0.63357c-0.8967,-0.37573 -1.47178,1.60886 -2.44388,1.59208c-0.70689,-0.01219 -1.128,-0.85819 -1.73753,-1.21642c-0.60618,-0.35627 -0.84589,0.63741 -1.28566,0.69359c-0.79993,0.10218 -1.47499,-0.67425 -2.13545,-1.13695c-0.52373,-0.3669 -1.28433,0.83731 -1.8442,0.52834c-1.42692,-0.78744 -1.02142,-2.61022 -0.80424,-3.75189c0.26929,-1.41561 1.83428,-10.75262 2.48897,-12.03941z" data-paper-data="{&quot;index&quot;:null}" fill="#9f4d1e" stroke-width="0.5" stroke-linecap="butt"/><path d="M266.51473,214.68232c0.36482,1.28437 0.62783,2.81858 -0.23576,3.68814c-0.43342,0.43642 -1.38543,0.03434 -1.7727,0.51218c-0.8856,1.09267 0.01006,2.80169 -1.36019,3.89223c-1.62074,1.28991 -6.85228,0.43458 -8.60851,-0.23252c-2.40414,-1.77767 -2.70093,-5.89169 -1.90544,-8.6274c0.28896,-0.99375 1.14459,-2.71004 2.35361,-2.92471c1.75121,-0.31096 1.79159,1.75824 2.66228,1.78458c0.67429,0.02041 1.13333,-1.04154 1.79835,-0.92828c0.59653,0.10159 0.65875,1.42039 1.25416,1.31245c0.79938,-0.14493 1.37978,-0.72212 2.43898,-0.54053c1.511,-1.2368 2.27157,-0.70297 3.13972,0.82972l0.19112,0.20052c0,0 0.42271,0.53644 0.0444,1.03356z" data-paper-data="{&quot;index&quot;:null}" fill="#d48631" stroke-width="0.5" stroke-linecap="butt"/><path d="M265.76518,203.83891c0.26729,0.13093 0.51873,0.25824 0.7445,0.35699c0.18698,0.08178 1.34111,0.35668 1.59323,0.46206c0.0199,0.07707 0.03326,0.15284 0.0418,0.22519c-0.08107,0.37336 -0.42952,1.06982 -0.44792,1.31655c-1.06628,2.67441 -0.68594,5.32617 0.43452,7.90168c0.22296,0.5125 0.47555,0.98814 0.72688,1.46652c0.04114,0.23358 0.06716,0.46 0.07294,0.67657c0.07147,2.68096 -1.57679,3.22787 -3.03683,4.92233c-0.71502,0.82984 -0.41604,2.28959 -1.19267,3.06205c-2.37883,2.36606 -8.15441,0.32412 -10.96994,-0.31285c-3.74794,-1.54755 -3.46479,-3.52666 -3.46227,-7.14384c0.00236,-3.38608 4.27668,-19.40971 5.49939,-22.49759c1.02287,-0.92737 0.01484,-0.22026 1.1269,-0.70443c0.49235,-0.21977 -0.3092,10.91782 0.14282,10.76127c-0.01294,0.02621 -0.02663,0.05206 -0.04106,0.07752l-0.75459,1.36531c-1.61391,3.52604 -2.9244,7.09853 -2.9253,10.99793c-0.00046,1.98354 -0.83856,3.55463 1.29176,4.22464c1.98823,0.4434 4.05273,0.86692 6.04208,1.22577c0.5867,0.10584 1.46775,0.46578 1.78814,-0.03698c0.5611,-0.88048 0.44041,-2.11752 1.08635,-2.93778c0.53694,-0.68184 2.55173,-1.62235 2.3617,-2.83496c-0.24458,-1.56066 -1.03895,-3.14897 -1.30273,-4.75237c-0.40073,-2.43588 0.0359,-4.50851 0.56678,-6.87018c0,0 0.1347,-0.59926 0.61352,-0.95141z" data-paper-data="{&quot;index&quot;:null}" fill="#783b1a" stroke-width="0.5" stroke-linecap="butt"/><g stroke-width="0"><path d="M307.38297,153.81957c0,3.04241 -2.87317,8.84364 -8.1154,12.79886c-5.56714,4.20036 -13.75765,8.15213 -22.30178,8.15213c-8.94549,0 -17.43601,-3.61009 -22.83729,-8.07564c-4.61551,-3.81592 -6.82184,-9.98471 -6.82184,-12.87535c0,-6.27338 12.93287,-15.39771 29.52248,-15.39771c16.58961,0 30.55383,9.12433 30.55383,15.39771z" fill="#57703a" stroke-linecap="butt"/><path d="M304.65306,151.38223c0,3.04241 -2.55125,8.84364 -7.20612,12.79886c-4.94337,4.20036 -12.21618,6.46931 -19.80299,6.46931c-7.9432,0 -15.4824,-1.92727 -20.27849,-6.39282c-4.09837,-3.81592 -6.05749,-9.98471 -6.05749,-12.87535c0,-6.27338 11.4838,-15.39772 26.21464,-15.39772c14.73084,0 27.13044,9.12434 27.13044,15.39772z" fill="#66a31e" stroke-linecap="butt"/><path d="M296.75041,148.69628c0,6.27338 -8.77734,11.35896 -19.60473,11.35896c-10.8274,0 -19.60474,-5.08558 -19.60474,-11.35896c0,-6.27338 8.44078,-15.84963 19.26817,-15.84963c10.8274,0 19.94129,9.57625 19.94129,15.84963z" fill="#7ec32a" stroke-linecap="butt"/><path d="M278.02242,147.17419l10.16602,13.32877l-4.06641,2.48503l-6.55143,-10.16602l-8.58463,10.84375l-2.25912,-3.61458z" fill="#ecf400" stroke-linecap="round"/></g></g></g></svg>