<svg version="1.1" xmlns="http://www.w3.org/2000/svg" xmlns:xlink="http://www.w3.org/1999/xlink" width="41.88682" height="142.09316" viewBox="0,0,41.88682,142.09316"><g transform="translate(-219.05659,-150.86098)"><g data-paper-data="{&quot;isPaintingLayer&quot;:true}" fill-rule="nonzero" stroke-linejoin="miter" stroke-miterlimit="10" stroke-dasharray="" stroke-dashoffset="0" style="mix-blend-mode: normal"><path d="M235.56539,199.922l-9.73874,9.21702l-6.43453,-6.95624l4.52156,-5.21718l4.17375,-1.39125h7.30406z" data-paper-data="{&quot;index&quot;:null}" fill="#5f5f5f" stroke="#5f5f5f" stroke-width="0.5" stroke-linecap="round"/><path d="M244.60851,194.70482h7.30406l4.17375,1.39125l4.52156,5.21718l-6.43453,6.95624l-9.73874,-9.21702z" fill="#5f5f5f" stroke="#5f5f5f" stroke-width="0.5" stroke-linecap="round"/><path d="M258.9362,173.81658c0,12.67803 -8.60358,22.9556 -19.21662,22.9556c-10.61305,0 -19.21662,-10.27757 -19.21662,-22.9556c0,-12.67803 8.60358,-22.9556 19.21662,-22.9556c10.61305,0 19.21662,10.27757 19.21662,22.9556z" fill="#5a5a5a" stroke="none" stroke-width="0" stroke-linecap="butt"/><path d="M226.69618,197.13465v-5.7389h26.08591v5.7389l-14.05666,6.95624z" fill="#383838" stroke="none" stroke-width="0" stroke-linecap="butt"/><path d="M221.3015,173.44535c-0.01531,0.13021 -0.09573,0.47219 -0.51812,0.47219c-0.52172,0 -0.52172,-0.52172 -0.52172,-0.52172v-0.52172c0,-2.81326 -0.18679,-5.28607 1.32784,-7.79903c2.2799,-2.28724 6.62256,-4.82297 9.89249,-5.23719c1.05595,-0.13376 2.10891,0.16656 3.13031,-0.17391c3.7071,-0.01447 7.54343,-0.79886 11.27139,-0.35134c1.59242,0.19116 3.06853,0.9231 4.63304,1.24237c1.12453,0.55654 2.37952,0.72648 3.50846,1.22882c3.25441,1.44811 4.7233,4.11542 5.07214,7.43903c0.10984,1.04651 0.19955,1.5799 0.0573,2.22538l0.15468,0.04419l-0.28348,0.9922c-0.05854,0.2241 -0.26237,0.38948 -0.50481,0.38948c-0.18396,0 -0.34569,-0.09522 -0.43858,-0.23905l-0.32182,-0.48273c-2.02017,-2.01316 -4.97596,-2.63768 -7.28436,-4.19577c-4.47459,-1.24124 -8.49562,-1.82622 -13.1428,-1.51778c-1.27654,0.08473 -2.70371,-0.08232 -3.91739,0.33969c-2.51798,0.83933 -5.03863,1.46005 -7.31511,2.88741c-1.76682,1.1078 -3.06427,2.60945 -4.79944,3.77948z" fill="#b5b5b5" stroke="none" stroke-width="0.5" stroke-linecap="butt"/><path d="M247.65453,220.54021c0,5.56736 -3.51936,10.0806 -7.86071,10.0806c-4.34135,0 -7.86071,-4.51324 -7.86071,-10.0806c0,-5.56736 3.51936,-10.0806 7.86071,-10.0806c4.34135,0 7.86071,4.51324 7.86071,10.0806z" fill="#2d2d2d" stroke="none" stroke-width="NaN" stroke-linecap="butt"/><path d="M247.3212,249.20688c0,5.56736 -3.51936,10.0806 -7.86071,10.0806c-4.34135,0 -7.86071,-4.51324 -7.86071,-10.0806c0,-5.56736 3.51936,-10.08059 7.86071,-10.08059c4.34135,0 7.86071,4.51323 7.86071,10.08059z" fill="#797979" stroke="none" stroke-width="NaN" stroke-linecap="butt"/><path d="M246.98786,282.87354c0,5.56736 -3.51936,10.0806 -7.86071,10.0806c-4.34135,0 -7.86071,-4.51324 -7.86071,-10.0806c0,-5.56736 3.51936,-10.08059 7.86071,-10.08059c4.34135,0 7.86071,4.51324 7.86071,10.08059z" fill="#bbbbbb" stroke="none" stroke-width="NaN" stroke-linecap="butt"/></g></g></svg>