<svg version="1.1" xmlns="http://www.w3.org/2000/svg" xmlns:xlink="http://www.w3.org/1999/xlink" width="44.00639" height="60.65821" viewBox="0,0,44.00639,60.65821"><defs><linearGradient x1="240.0519" y1="164.08442" x2="240.0519" y2="183.43638" gradientUnits="userSpaceOnUse" id="color-1"><stop offset="0" stop-color="#abb69e"/><stop offset="1" stop-color="#535e41"/></linearGradient></defs><g transform="translate(-217.9968,-149.67089)"><g data-paper-data="{&quot;isPaintingLayer&quot;:true}" fill-rule="nonzero" stroke="none" stroke-linecap="butt" stroke-linejoin="miter" stroke-miterlimit="10" stroke-dasharray="" stroke-dashoffset="0" style="mix-blend-mode: normal"><path d="M227.14664,181.5814c0.04904,-0.0055 0.07837,-0.0055 0.07837,-0.0055h0.69935c4.02443,0.00973 8.01502,0.6 12.0638,0.6c2.99695,0.00713 5.97535,-0.65878 8.93809,-1.01547c1.75423,-0.21119 4.18079,-1.16656 5.6782,0.61908c1.43512,1.71136 0.18196,4.39069 -0.07517,6.24661c-0.52393,3.78143 -0.05659,8.48288 0.35412,12.23386c0.30921,2.51322 0.71732,6.23518 -1.6434,7.68395c-1.38148,0.84781 -3.8838,0.27787 -5.48276,0.69853c-2.6303,0.69199 -5.33962,0.40762 -8.04129,0.63029c-3.89692,0.32119 -7.35912,0.87601 -11.1076,-0.76007c-4.43178,-4.01505 -4.04462,-14.31445 -4.04961,-20.28678c-0.00217,-2.59853 -0.48444,-4.71992 1.2843,-6.57609c0,0 0.67431,-0.61708 1.30361,-0.06842z" fill="#758965" stroke-width="0.5"/><path d="M227.94147,164.91277c3.28623,-0.00628 6.80253,-0.65115 10.06099,0.00313c4.77097,-0.01308 9.57002,0.45195 14.3403,0.79765c2.17819,0.15785 3.85095,-1.53928 6.13545,-0.3098c2.50738,1.34943 1.87102,5.11208 1.37452,7.90848c-0.71089,2.72128 -1.9607,3.46538 -3.96781,3.08795c-0.76929,-0.14467 -2.59474,-0.8144 -3.25504,0.24371c-0.13351,0.21393 0.10683,0.54986 0.1414,0.83025c0.17855,1.44807 0.14181,3.20788 -0.00636,4.66198c-0.03836,0.37645 -0.08761,0.73553 -0.14714,1.07796c-5.25177,0.47548 -10.52762,-0.33928 -15.80052,-0.25133c-2.48621,0.04147 -6.85957,0.61312 -10.23548,1.27363c-0.21022,-1.74446 0.72684,-4.43084 0.26598,-5.97153c-2.12158,0.54439 -5.71121,-0.67615 -6.6575,-3.80576c-0.77083,-2.54934 -0.47723,-8.14868 1.41456,-9.61437c1.64616,-1.27538 4.02876,-0.62875 5.77289,-0.32231c0,0 0.33248,0.05841 0.56376,0.39037z" fill="url(#color-1)" stroke-width="0.5"/><path d="M232.11689,166.94878c4.21648,2.02571 8.77882,2.24679 13.23537,1.04981c2.1391,-0.57453 4.98746,-1.46767 6.36249,-3.52125c2.03659,-3.4087 -0.5829,-7.41297 -3.18356,-9.19493c-4.27878,-2.9318 -11.74422,-1.58577 -16.59579,-1.02819c-1.14123,0.21681 -2.8572,0.31601 -3.87627,1.17499c-4.92122,4.14812 -0.27225,9.32196 3.63794,11.23701zM229.58883,168.26237c-4.91246,-3.12321 -8.77052,-9.94247 -2.80755,-14.86127c1.38736,-1.14443 3.25266,-1.3165 4.86561,-1.625c4.86541,-0.55421 12.36136,-1.86323 16.88425,0.51617c4.38901,2.30896 7.9072,8.4918 4.94777,13.66071c-4.59872,6.39861 -14.43245,6.42173 -21.18866,3.72111c-0.38402,0.03779 -0.71163,-0.18706 -0.71163,-0.18706l-0.45652,-0.32156c-0.42269,-0.20005 -0.8296,-0.41117 -1.21834,-0.63228c0,0 -0.15783,-0.09027 -0.31494,-0.27082z" fill="#c0cf9a" stroke-width="0.5"/><path d="M231.66044,166.69348c-3.91019,-1.91505 -8.56245,-7.13648 -3.64124,-11.2846c1.01908,-0.85898 2.74125,-0.96966 3.88249,-1.18647c4.85157,-0.55758 12.38913,-1.89569 16.66791,1.03611c2.60066,1.78196 5.22428,5.82161 3.18769,9.23031c-1.37503,2.05358 -4.23469,2.97021 -6.37379,3.54475c-4.45656,1.19698 -9.08553,0.97023 -13.30201,-1.05548z" data-paper-data="{&quot;noHover&quot;:false,&quot;origItem&quot;:[&quot;Path&quot;,{&quot;applyMatrix&quot;:true,&quot;segments&quot;:[[[463.94595,371.16339],[0,0],[9.64661,4.05142]],[[494.22632,373.26302],[-10.19587,2.39395],[4.89392,-1.14907]],[[508.78266,366.22051],[-3.14585,4.10717],[4.65937,-6.81741]],[[501.49921,347.83065],[5.94988,3.56392],[-9.78914,-5.8636]],[[463.53076,345.77426],[11.0996,-1.11515],[-2.61094,0.43362]],[[454.66248,348.12425],[2.33147,-1.71796],[-11.25893,8.29625]],[[462.9855,370.59828],[-8.94588,-3.83011],[0,0]]],&quot;closed&quot;:true}]}" fill="#a7b78d" stroke-width="0.5"/><path d="M248.61062,176.56549c-0.36525,2.01296 0.40418,4.30362 -1.42658,5.82261c-1.34996,1.12008 -4.32954,0.83456 -5.92283,1.01682c-2.95951,0.41842 -8.13559,0.82146 -9.38536,-3.27993c-0.39788,-1.30572 0.31897,-3.33742 -0.97786,-4.33688c-1.49453,-1.15183 -3.16981,0.13825 -3.43721,-2.93673c-0.48125,-5.534 7.20658,-3.17533 9.39447,-2.23441c1.0416,0.60083 2.40209,2.25517 3.68309,1.92924c0.98297,-0.2501 1.30227,-1.70502 2.0118,-2.35552c0.95968,-0.87983 2.59777,-1.55879 3.78099,-1.85044c2.80141,-0.69052 6.40555,0.13318 5.46985,4.38475c-0.38222,1.73671 -1.683,2.58153 -2.81095,3.61386c0,0 -0.15218,0.13927 -0.37942,0.22665z" fill="#506539" stroke-width="0.5"/><path d="M241.25496,176.30438c-1.41022,-4.27942 3.07531,-7.87055 6.55963,-4.87323c2.75493,2.36989 0.6067,6.9174 -2.12963,7.80287c-1.60414,0.5191 -2.92955,-0.37999 -4.11017,-1.43204c0,0 -0.70606,-0.64614 -0.31983,-1.49761z" fill="#bdf430" stroke-width="0.5"/><path d="M231.28921,176.90438c-1.41022,-4.27943 3.07532,-7.87055 6.55963,-4.87322c2.75493,2.36989 0.6067,6.91739 -2.12963,7.80287c-1.60413,0.51909 -2.92956,-0.37999 -4.11018,-1.43204c0,0 -0.70606,-0.64614 -0.31983,-1.4976z" fill="#bdf430" stroke-width="0.5"/><path d="M242.90572,176.43405c-0.89317,-2.71037 1.94774,-4.98481 4.15454,-3.08646c1.74484,1.50097 0.38425,4.38113 -1.3488,4.94195c-1.01597,0.32877 -1.85544,-0.24067 -2.60317,-0.90698c0,0 -0.44718,-0.40923 -0.20256,-0.94851z" fill="#e6fbb0" stroke-width="0.5"/><path d="M233.11481,176.63405c-0.89316,-2.71037 1.94775,-4.98481 4.15454,-3.08646c1.74484,1.50097 0.38425,4.38113 -1.3488,4.94195c-1.01597,0.32877 -1.85543,-0.24067 -2.60317,-0.90698c0,0 -0.44719,-0.40923 -0.20257,-0.94851z" fill="#e6fbb0" stroke-width="0.5"/><path d="M244.18427,181.56257c0,1.47092 -1.83952,2.66333 -4.10868,2.66333c-2.26917,0 -4.10868,-1.19241 -4.10868,-2.66333c0,-1.47092 1.83952,-2.66333 4.10868,-2.66333c2.26917,0 4.10868,1.19241 4.10868,2.66333z" fill="#bdeb5e" stroke-width="0"/><path d="M242.8147,180.73397c0,1.0133 -1.26722,1.83474 -2.83043,1.83474c-1.56321,0 -2.83043,-0.82144 -2.83043,-1.83474c0,-1.0133 1.26722,-1.83474 2.83043,-1.83474c1.56321,0 2.83043,0.82144 2.83043,1.83474z" fill="#e6fbb0" stroke-width="0"/><path d="M252.65052,183.12572c-0.29169,-0.14398 -0.60652,-0.45479 -0.60652,-1.12575c0,-1.25 1.09274,-1.25 1.09274,-1.25l0.32938,0.01256c1.20852,0.21162 3.16305,0.72414 4.09186,1.72797c2.39048,2.58352 2.04805,10.04199 0.0343,12.58026c-0.9265,1.16783 -2.51911,1.70518 -3.78292,2.12337c-1.9649,0.72181 -7.31314,1.16775 -8.75323,-1.10605c-0.1989,-0.31404 -0.19496,-2.88221 -0.18048,-3.48811c0.01657,-0.69325 -0.17552,-1.45115 0.08318,-2.07835c1.18919,-2.88313 3.05753,-0.87972 4.74156,-2.3357c1.3322,-1.1518 2.20864,-3.31687 2.95012,-5.0602z" fill="#526548" stroke-width="0.5"/><path d="M253.2477,198.77148c-0.20319,-0.1003 -0.4225,-0.3168 -0.4225,-0.78419c0,-0.87074 0.76119,-0.87074 0.76119,-0.87074l0.22944,0.00875c0.84185,0.14741 2.20336,0.50443 2.85037,1.20369c1.66519,1.79966 1.42666,6.99518 0.0239,8.76332c-0.64539,0.8135 -1.7548,1.18781 -2.63516,1.47912c-1.36874,0.50281 -5.09429,0.81345 -6.09744,-0.77046c-0.13855,-0.21876 -0.13581,-2.00773 -0.12572,-2.4298c0.01155,-0.48291 -0.12226,-1.01086 0.05794,-1.44777c0.82839,-2.00837 2.12986,-0.6128 3.30295,-1.62703c0.928,-0.80234 1.53852,-2.31051 2.05503,-3.5249z" fill="#526548" stroke-width="0.5"/><path d="M229.34906,188.58592c1.68403,1.45598 3.55237,-0.54743 4.74156,2.3357c0.2587,0.6272 0.0666,1.3851 0.08318,2.07835c0.01449,0.60591 0.01842,3.17407 -0.18048,3.48811c-1.44009,2.2738 -6.78832,1.82786 -8.75323,1.10605c-1.26381,-0.41819 -2.85643,-0.95554 -3.78292,-2.12337c-2.01374,-2.53827 -2.35617,-9.99675 0.0343,-12.58026c0.92882,-1.00383 2.88335,-1.51636 4.09187,-1.72797l0.32938,-0.01256c0,0 1.09274,0 1.09274,1.25c0,0.67096 -0.31484,0.98176 -0.60653,1.12574c0.74149,1.74333 1.61793,3.9084 2.95012,5.0602z" data-paper-data="{&quot;index&quot;:null}" fill="#526548" stroke-width="0.5"/><path d="M227.85681,202.69638c1.17308,1.01423 2.47456,-0.38134 3.30294,1.62703c0.18021,0.4369 0.04639,0.96485 0.05794,1.44777c0.0101,0.42207 0.01283,2.21104 -0.12572,2.4298c-1.00315,1.58391 -4.7287,1.27327 -6.09744,0.77046c-0.88036,-0.29131 -1.98977,-0.66562 -2.63516,-1.47912c-1.40276,-1.76815 -1.6413,-6.96367 0.0239,-8.76333c0.64701,-0.69926 2.00852,-1.05628 2.85036,-1.20369l0.22944,-0.00876c0,0 0.76119,0 0.76119,0.87074c0,0.46739 -0.21932,0.68389 -0.4225,0.78419c0.51651,1.21439 1.12704,2.72257 2.05504,3.5249z" data-paper-data="{&quot;index&quot;:null}" fill="#526548" stroke-width="0.5"/><path d="M233.97133,191.62319c0.15454,1.23744 -0.92722,1.41421 -0.92722,1.41421l-1.22386,0.2c0,0 -1.08176,0.17678 -1.23629,-1.06066c-0.15454,-1.23744 0.92722,-1.41421 0.92722,-1.41421l1.22386,-0.2c0,0 1.08176,-0.17678 1.23629,1.06066z" fill="#435334" stroke-width="0.5"/><path d="M230.57298,194.59997c0,-0.69036 0.48923,-1.25 1.09274,-1.25c0.6035,0 1.09274,0.55964 1.09274,1.25c0,0.69036 -0.48923,1.25 -1.09274,1.25c-0.6035,0 -1.09274,-0.55964 -1.09274,-1.25z" fill="#435334" stroke-width="0.5"/><path d="M231.70943,206.39997c0,1.25 -1.09274,1.25 -1.09274,1.25l-0.32938,-0.01256c-0.40796,-0.06667 -0.81591,-0.13333 -1.22386,-0.2c0,0 -1.08176,-0.17678 -0.92722,-1.41421c0.04457,-0.35684 0.16623,-0.59608 0.31683,-0.75586c-0.25786,-0.16412 -0.50265,-0.47573 -0.50265,-1.06736c0,-1.25 1.09274,-1.25 1.09274,-1.25c0.40796,0 0.81591,0 1.22386,0h0.34968c0,0 1.09274,0 1.09274,1.25c0,0.63345 -0.28061,0.94589 -0.55744,1.1c0.27683,0.15411 0.55744,0.46655 0.55744,1.1z" fill="#435334" stroke-width="0.5"/><path d="M248.319,193.79997c0,1.25 -1.09274,1.25 -1.09274,1.25l-0.19514,-0.01256c-0.40796,0.06667 -0.81591,0.13333 -1.22386,0.2c0,0 -1.08176,0.17678 -1.23629,-1.06066c-0.15454,-1.23744 0.92722,-1.41421 0.92722,-1.41421c0.22961,-0.03752 0.4592,-0.07504 0.68881,-0.11256c-0.25094,0 -0.50246,0 -0.70912,0c0,0 -1.09274,0 -1.09274,-1.25c0,-1.25 1.09274,-1.25 1.09274,-1.25c0.40796,0 0.81591,0 1.22386,0h0.17484c0,0 1.09274,0 1.09274,1.25c0,0.72029 -0.36284,1.02553 -0.67035,1.15488c0.24424,0.0261 1.02003,0.19189 1.02003,1.24512z" fill="#435334" stroke-width="0.5"/><path d="M251.29124,204.19997c0,1.25 -1.09274,1.25 -1.09274,1.25c-0.46623,0 -1.10731,0 -1.57354,0c0,0 -1.09274,0 -1.09274,-1.25c0,-1.25 1.09274,-1.25 1.09274,-1.25c0.46623,0 0.93247,0 1.3987,0h0.17484c0,0 1.09274,0 1.09274,1.25z" fill="#435334" stroke-width="0.5"/><path d="M251.1164,207.19997c0,1.25 -1.09274,1.25 -1.09274,1.25c-0.40796,0 -1.69009,0 -2.09805,0c0,0 -1.09274,0 -1.09274,-1.25c0,-1.25 1.09274,-1.25 1.09274,-1.25c0.40796,0 0.81591,0 1.22386,0h0.87419c0,0 1.09274,0 1.09274,1.25z" fill="#435334" stroke-width="0.5"/><path d="M225.82481,168.17184c0.82612,0.18469 0.82612,1.22205 0.82612,1.22205l-0.01098,0.02322c0.11628,0.94516 0.33858,2.22396 0.17171,3.177c-1.18191,6.7503 -9.49082,-0.18308 -4.85071,-4.22557c0.64915,-0.56554 1.97425,-0.68343 2.74336,-0.81209c0,0 0.79698,-0.13024 1.12051,0.61539z" fill="#2b3320" stroke-width="0.5"/><path d="M255.07651,167.15645c0.76912,0.12866 2.09422,0.24656 2.74336,0.81209c4.64011,4.0425 -3.66879,10.97587 -4.85071,4.22557c-0.16687,-0.95305 0.05544,-2.23185 0.17171,-3.17701l-0.01098,-0.02322c0,0 0,-1.03736 0.82612,-1.22205c0.32353,-0.74563 1.12051,-0.61539 1.12051,-0.61539z" data-paper-data="{&quot;index&quot;:null}" fill="#2b3320" stroke-width="0.5"/><path d="M225.04772,166.07633c-0.42049,0 -0.67918,-0.1851 -0.83832,-0.41284c-0.76915,-0.01463 -1.65538,0.00584 -2.25879,0.42615c-2.2636,1.57674 -1.78123,8.24933 0.11249,9.9646c1.36754,1.23867 3.61178,0.27112 4.74527,2.04119c0.74547,1.16413 0.21498,3.26378 0.06105,4.41477c-5.11885,0.98351 -8.88905,5.08392 -5.13134,10.98523c0.53507,0.84031 3.82215,3.2552 3.87177,3.9992c0.09069,1.3597 -2.73764,2.8669 -3.15511,4.33192c0.01042,1.01867 -0.05798,2.5497 0.27395,3.50344c1.34718,3.87084 5.533,1.87051 7.99128,2.04948c4.41405,0.32135 8.10095,0.64275 12.54064,0.00792c2.75618,-0.44373 6.11969,0.59665 8.73594,-0.3542c3.47155,-1.2617 5.81475,-4.12505 3.37403,-7.95251l-1.00779,-0.49407c-0.40177,-0.18473 -0.68543,-0.63461 -0.68543,-1.16028c0,-0.47329 0.22994,-0.88514 0.569,-1.09734l1.20545,-0.78796l0.09536,0.1909c0.23734,-0.2302 0.46585,-0.47089 0.67661,-0.73285c1.64418,-2.04361 1.81998,-9.04684 0.58901,-11.31558c-1.08972,-2.0084 -4.04836,-1.03409 -5.31397,-2.63557c-1.9758,-2.50014 -0.2705,-5.38907 1.69773,-6.47159c1.83623,0.87729 6.45085,1.99304 6.60454,-1.86226c0.07836,-1.96578 -0.54693,-6.23296 -2.47532,-6.66871c-0.45816,-0.10353 -4.1106,-0.03821 -4.12265,-0.05236c-0.37621,-0.44156 -0.28749,-4.47179 -0.39028,-5.40076c-1.35679,-10.86177 -14.27123,-8.6257 -21.04509,-7.54936c-3.24796,1.25658 -8.13221,3.08375 -6.71295,8.4626c0.23464,0.88926 0.7694,1.64563 1.02956,2.52555l0.05608,0.79528c0,0 0,1.25 -1.09274,1.25zM223.32756,163.20167c-0.1553,-0.3402 -0.29658,-0.68616 -0.38499,-1.0545c-1.66417,-6.93343 3.78674,-9.82878 8.32309,-11.5374c8.17975,-1.36779 22.1218,-3.09661 23.71334,9.65064c0.02014,0.18641 0.423,2.32953 0.17681,3.32118c0.3815,-0.12613 0.82907,-0.22065 1.08091,-0.20285c0.83881,0.05929 2.13514,0.24261 2.90203,0.74956c1.96215,1.29707 3.04759,6.28729 2.83901,8.81028c-0.38349,4.63855 -5.71629,6.43953 -8.78118,4.13774c-0.39767,0.30068 -0.24412,2.06589 -0.05065,2.32841c0.38915,0.52804 1.19545,0.22355 1.7723,0.42743c1.466,0.51814 2.85372,0.93911 3.75366,2.537c1.65275,2.93453 1.07784,8.28026 0.29446,11.40665c-0.31848,1.271 -0.88725,3.2627 -2.00313,3.67191c0.61475,0.81895 0.86172,1.09447 1.27303,2.32545c1.60653,4.80808 -1.8047,8.34555 -5.58804,9.6463c-2.84189,0.97707 -6.15513,-0.04299 -9.0975,0.4458c-4.57227,0.65379 -8.43235,0.43211 -12.98565,0.00792c-1.72854,-0.16103 -3.34543,0.692 -5.14439,0.39106c-4.06997,-0.68084 -5.15018,-4.8229 -5.12316,-8.83815c0.4949,-1.6801 0.34765,-1.81301 1.57212,-3.12955c0.13683,-0.14712 0.3782,-0.32922 0.63143,-0.47983c-0.6787,-0.54511 -1.48022,-1.62833 -1.54793,-1.70651c-1.53381,-1.77074 -2.6637,-4.39218 -2.93206,-6.91051c-0.37491,-3.51832 3.66435,-10.49079 7.303,-8.45726c-0.23204,-0.31263 -0.10708,-0.83158 -0.28863,-1.18523c-0.27626,-0.53814 -1.08129,-0.1754 -1.61431,-0.30837c-1.55689,-0.38839 -2.76795,-0.98097 -3.66479,-2.54882c-1.91567,-3.34894 -2.28509,-10.26115 1.04532,-12.73701c0.71788,-0.53368 1.6281,-0.70616 2.52591,-0.76135z" fill="#3e4239" stroke-width="0.5"/></g></g></svg>