<svg version="1.1" xmlns="http://www.w3.org/2000/svg" xmlns:xlink="http://www.w3.org/1999/xlink" width="95.86233" height="126.2865" viewBox="0,0,95.86233,126.2865"><defs><linearGradient x1="235.51244" y1="148.21749" x2="235.51244" y2="231.12268" gradientUnits="userSpaceOnUse" id="color-1"><stop offset="0" stop-color="#30455d"/><stop offset="1" stop-color="#273b52"/></linearGradient><linearGradient x1="234.83315" y1="116.85674" x2="234.83315" y2="199.72039" gradientUnits="userSpaceOnUse" id="color-2"><stop offset="0" stop-color="#693013"/><stop offset="1" stop-color="#a65120"/></linearGradient><linearGradient x1="234.27336" y1="119.03847" x2="234.27336" y2="195.46927" gradientUnits="userSpaceOnUse" id="color-3"><stop offset="0" stop-color="#693013"/><stop offset="1" stop-color="#a65120"/></linearGradient><linearGradient x1="233.05083" y1="223.23282" x2="233.05083" y2="237.63282" gradientUnits="userSpaceOnUse" id="color-4"><stop offset="0" stop-color="#717983"/><stop offset="1" stop-color="#353b41"/></linearGradient><linearGradient x1="221.55083" y1="184.23282" x2="221.55083" y2="191.43282" gradientUnits="userSpaceOnUse" id="color-5"><stop offset="0" stop-color="#282c28"/><stop offset="1" stop-color="#6c7066"/></linearGradient><linearGradient x1="245.15083" y1="184.03282" x2="245.15083" y2="191.23282" gradientUnits="userSpaceOnUse" id="color-6"><stop offset="0" stop-color="#282c28"/><stop offset="1" stop-color="#6c7066"/></linearGradient></defs><g transform="translate(-192.06885,-116.85676)"><g data-paper-data="{&quot;isPaintingLayer&quot;:true}" fill-rule="nonzero" stroke-linejoin="miter" stroke-miterlimit="10" stroke-dasharray="" stroke-dashoffset="0" style="mix-blend-mode: normal"><path d="M207.10083,190.03282c0,0.09063 -0.00657,0.1747 -0.01876,0.25267c0.74585,0.58825 0.2868,1.50635 0.2868,1.50635c-4.50674,9.00418 -10.06804,17.36986 -10.06804,27.84099c-0.12596,2.43722 3.04928,4.77727 4.76349,6.25093c3.28503,2.82404 7.66902,2.8695 11.81586,3.28458c4.7636,0.47681 9.58904,1.62523 14.37065,1.61449c8.38916,0 16.58871,-0.00921 24.85345,-0.99138c3.74742,-0.44533 7.38963,-0.61588 10.9278,-2.13639c12.21808,-3.46426 12.55545,-17.3006 7.16616,-26.74801c-2.40026,-3.36943 -5.58155,-7.50276 -6.18534,-11.70084c-0.8732,-6.07136 2.95623,-10.52027 4.64819,-15.95682c0.64866,-2.08427 0.87518,-4.20732 1.56738,-6.278c0.19587,-2.03921 0.52792,-3.89677 0.18849,-5.93833c-1.97838,-11.89939 -14.96762,-10.95023 -24.36614,-10.95023c-8.25939,0 -16.33462,0.80218 -24.54335,1.19871c-4.65664,0.22494 -10.62919,-0.0943 -14.67749,2.45902c-1.76972,0.7563 -3.87221,1.73753 -5.42042,2.88565c-2.25621,1.67317 -3.16748,4.30598 -3.73919,6.88085c-1.51943,6.84328 -0.02331,11.95632 2.35879,18.3086c0.75571,2.29349 1.12429,4.47384 2.15563,6.69123c0.15596,0.33532 0.30944,0.75801 0.49223,1.14962c0.1203,-0.09448 0.21478,-0.14172 0.21478,-0.14172c0.4,-0.2 0.8,-0.4 1.2,-0.6l0.75902,-0.13197c0,0 1.25,0 1.25,1.25zM203.92853,193.03794c-3.50564,-1.04051 -4.1902,-7.23551 -5.25604,-10.38796c-3.12872,-8.34325 -6.45437,-21.45085 2.21959,-28.01055c1.63723,-1.23816 3.89697,-2.30528 5.77958,-3.11435c4.40542,-2.73013 10.67125,-2.50406 15.72251,-2.74098c8.24481,-0.3867 16.36124,-1.20129 24.65664,-1.20129c10.80166,0 24.59449,-0.35811 26.83386,13.04977c0.39378,2.35773 0.03184,4.5113 -0.2115,6.86167c-1.08959,3.27801 -1.52085,6.60788 -2.96107,9.80794c-1.66598,3.70166 -3.82569,7.30336 -3.22336,11.55724c0.53479,3.77684 3.6574,7.68743 5.81466,10.69916c6.16537,10.77307 5.36438,26.48103 -8.43384,30.45199c-4.32527,1.84875 -8.67435,1.54299 -13.15058,2.44313c-7.55171,1.51859 -15.73322,0.8291 -23.46815,0.8291c-4.88143,-0.00988 -9.78098,-1.14362 -14.64206,-1.62927c-4.72255,-0.47181 -9.42625,-0.66971 -13.17143,-3.87166c-2.51852,-2.15321 -5.53057,-4.66807 -5.63651,-8.14907c0,-9.99481 4.72958,-18.0927 9.1277,-26.59488z" fill="#0c1219" stroke="none" stroke-width="0.5" stroke-linecap="butt"/><path d="M201.88694,187.6996c-1.05802,-2.27476 -1.43474,-4.52081 -2.21,-6.87363c-2.44373,-6.51661 -3.97033,-11.77969 -2.41158,-18.79999c0.5865,-2.64148 1.52681,-5.34879 3.84139,-7.06524c1.58826,-1.17783 3.75006,-2.18873 5.56557,-2.9646c4.15303,-2.61937 10.29464,-2.29967 15.07175,-2.53043c8.4211,-0.40679 16.73551,-1.23065 25.20856,-1.23065c9.64165,0 22.99279,-0.95699 25.02235,11.25025c0.34821,2.09438 0.01078,4.00432 -0.19016,6.09628c-0.7101,2.12425 -0.9395,4.30733 -1.60495,6.44553c-1.73573,5.57719 -5.65869,10.16232 -4.76289,16.39074c0.6194,4.30668 3.88091,8.5637 6.34327,12.0203c5.52871,9.6918 5.16436,23.91241 -7.3698,27.46629c-3.6297,1.55985 -7.37652,1.74089 -11.22089,2.19774c-8.47855,1.00758 -16.92032,1.02041 -25.52651,1.02041c-4.90531,0.01101 -9.87138,-1.17292 -14.75821,-1.66206c-4.25412,-0.42581 -8.76157,-0.47994 -12.1316,-3.37703c-1.75856,-1.51177 -5.02143,-3.91853 -4.89221,-6.4188c0,-10.74202 5.69483,-19.3526 10.31816,-28.58972c0,0 0.57342,-1.14996 -0.57353,-1.72343c-0.6039,-0.30195 -0.94624,-0.12606 -1.23217,0.10735c-0.41103,0.09246 -0.74325,0.34617 -0.87156,0.60051c-0.84491,-0.12697 -1.22223,-1.51531 -1.61501,-2.35981z" data-paper-data="{&quot;noHover&quot;:false,&quot;origItem&quot;:[&quot;Path&quot;,{&quot;applyMatrix&quot;:true,&quot;segments&quot;:[[[403.61669,365.74167],[-1.6472,-0.24754],[0.25013,-0.49584]],[[405.11585,364.57149],[-0.80133,0.18024],[0.55744,-0.45505]],[[407.71803,364.36393],[-1.17734,-0.58867],[2.23607,1.11803]],[[408.83607,367.71803],[0,0],[-9.01349,18.00836]],[[388.7,423.4],[0,-20.94226],[-0.25192,4.87443]],[[398.22698,435.90186],[-3.42842,-2.94731],[6.57007,5.64808]],[[421.8587,442.47101],[-8.29369,-0.83015],[9.52719,0.95361]],[[450.6,445.7],[-9.56322,0.02147],[16.77832,0]],[[500.30691,443.71724],[-16.52949,1.96433],[7.49485,-0.89067]],[[522.16252,439.44445],[-7.07635,3.04103],[24.43617,-6.92852]],[[536.49484,385.94844],[10.77858,18.89481],[-4.80053,-6.73886]],[[524.12416,362.54675],[1.20757,8.39616],[-1.74641,-12.14271]],[[533.42053,330.63312],[-3.38392,10.87308],[1.29733,-4.16854]],[[536.55529,318.07712],[-1.3844,4.14135],[0.39174,-4.07842]],[[536.93228,306.20046],[0.67886,4.08313],[-3.95676,-23.79879]],[[488.2,284.3],[18.79703,0],[-16.51877,0]],[[439.11329,286.69743],[16.41747,-0.79307],[-9.31329,0.44989]],[[409.75832,291.61547],[8.09659,-5.10664],[-3.53945,1.51261]],[[398.91748,297.38677],[3.09642,-2.29625],[-4.51243,3.34634]],[[391.43909,311.14847],[1.14342,-5.14975],[-3.03887,13.68655]],[[396.15667,347.76567],[-4.76421,-12.70456],[1.51141,4.58697]],[[400.46794,361.14813],[-2.06268,-4.43479],[0.76577,1.64642]]],&quot;closed&quot;:true}]}" fill="url(#color-1)" stroke="none" stroke-width="0.5" stroke-linecap="butt"/><path d="M259.63671,193.81913l-1.36677,-0.21023c-0.48716,-0.54602 -1.39075,-0.90972 -1.46148,-1.63805c-0.17706,-1.82325 3.53619,-4.19007 4.86899,-4.84878c4.02135,-1.98749 11.48447,-1.434 15.54279,-0.08342c3.91117,1.11953 9.05386,2.79173 10.23927,7.2755c0.94155,3.56137 0.37485,8.17038 -0.83036,11.53583c-0.91241,2.54781 -2.59886,4.88324 -5.80387,3.75817c-1.11931,-0.39292 -2.19605,-1.95467 -2.88901,-2.80939c-0.81801,-3.13032 0.55882,-7.6018 -0.80836,-10.41676c-2.2806,-4.69566 -12.47669,-3.31429 -16.37393,-2.33651c0,0 -0.65005,0.16251 -1.11727,-0.22637z" fill="#8a4118" stroke="none" stroke-width="0.5" stroke-linecap="butt"/><path d="M204.23048,230.58255c-0.09766,-0.42042 0.05975,-0.81397 0.05975,-0.81397l0.77972,-1.51184c0.95398,-0.76318 2.12471,-2.03636 3.2261,-2.54406c3.78496,-1.74473 9.03382,-1.11284 13.05946,-1.32621c7.30478,-0.38718 14.43809,-1.20435 21.81716,-1.20306c6.47449,0.00114 13.42028,-0.48094 19.76534,1.03286c2.48529,0.59294 4.97804,1.3749 6.68039,3.42518c2.32661,2.80212 1.35652,8.59172 -1.75171,10.47913c-2.80371,1.70249 -6.70201,0.12202 -9.08667,-1.39096c-2.15081,-3.166 -5.95871,-3.21579 -9.48425,-3.65643c-4.41108,-0.55132 -8.57136,-0.19266 -12.98831,0.00836c-3.34197,0.1521 -6.7085,-0.22254 -10.03952,0.1327c-2.19108,0.22879 -5.21452,0.33965 -7.17464,1.49084c-2.23805,1.3144 -2.72556,4.51544 -5.28024,5.32411c-6.20358,1.96372 -9.61223,-4.20096 -9.61223,-9.19637c0,0 0,-0.10319 0.02965,-0.25027z" fill="#212325" stroke="none" stroke-width="0.5" stroke-linecap="butt"/><path d="M214.88843,233.36599c-0.23802,-0.52743 0.04436,-1.09219 0.04436,-1.09219l0.47797,-0.93436c4.53705,-6.74859 13.20606,-8.19893 20.59319,-9.94797c5.391,-0.01764 12.94739,-1.10214 17.99812,1.31945c4.12324,1.9769 7.91869,10.12372 5.31207,14.17906c-1.18513,1.8438 -3.05391,2.16612 -5.01534,2.59192c-2.17155,-0.28743 -4.65986,-0.03554 -6.22006,-1.86324c-1.61472,-1.89158 -1.2513,-6.21144 -3.58693,-7.46781c-1.32824,-0.71448 -4.02768,0.03325 -5.39102,0.30672c-1.24797,0.25033 -3.07546,0.12097 -4.1928,0.83856c-1.59601,1.025 -2.49409,3.40869 -3.30231,5.01504c-0.69797,2.11136 -1.19054,6.03139 -3.80696,6.72226c-1.57754,0.41655 -3.84909,-0.46393 -5.39786,-0.77586c-4.35863,-0.87783 -10.5064,-1.11697 -8.11843,-7.46898c0.21288,-0.56626 0.40232,-0.99742 0.606,-1.4226z" fill="#d78e34" stroke="none" stroke-width="0.5" stroke-linecap="butt"/><path d="M208.62256,192.8956c0.06458,-0.27982 0.24773,-0.57004 0.66925,-0.78081c1.11803,-0.55901 1.67705,0.55902 1.67705,0.55902l0.0575,0.27895c0.0231,0.04939 0.04175,0.09833 0.05643,0.14667c1.91436,1.61616 4.58839,2.96263 6.9852,3.75507c6.65138,2.5122 14.99108,2.71572 21.85591,0.97185c1.81118,-0.4601 3.51914,-1.9406 5.19431,-2.72436c2.05388,-0.96095 4.305,-1.19114 6.27545,-2.33247c6.0289,-3.85258 12.85645,3.56847 12.90716,9.46331c0.01767,2.05357 0.78683,6.05731 -1.88551,6.99568c-2.12714,0.74693 -3.42677,-1.73257 -4.6983,-2.58374c-1.28879,-0.86273 -3.27944,-1.43457 -4.78951,-1.80447c-2.22606,-0.65807 -3.51727,0.2629 -5.74106,0.24088c-0.82411,-0.00816 -2.6986,-1.32385 -3.54578,-0.94625c-0.56259,0.25075 -0.44492,1.15493 -0.56731,1.7586c-0.49465,2.43992 -0.32381,4.93537 -0.79608,7.38088c-0.96309,4.98709 -4.86282,5.20275 -9.22644,5.20843c-2.68154,0 -6.03784,0.21511 -8.45717,-1.18669c-1.84151,-1.067 -2.98131,-3.71725 -3.70781,-5.61016c-0.52722,-1.37368 -0.72493,-3.74893 -2.23454,-4.5563c-0.87333,-0.46707 -3.01069,-0.24337 -4.00049,-0.24685c-0.87673,-0.00308 -1.77648,0.06077 -2.60853,0.33712c-1.3951,0.46336 -1.95374,0.94522 -2.97741,1.94377c-0.64781,1.2956 -0.49634,4.34891 -2.64874,4.51863c-0.86206,0.06797 -1.23842,-1.22578 -1.71112,-1.94988c-1.50324,-2.30268 -2.29565,-5.05375 -2.10106,-7.78825c0.32927,-4.62712 2.8777,-7.86471 6.01859,-11.04862z" fill="#d3d3ae" stroke="none" stroke-width="0.5" stroke-linecap="butt"/><path d="M242.29818,200.47897c-7.43888,2.98437 -16.66773,3.64692 -23.35655,-1.30792c-0.13638,-0.06449 -0.36782,-0.19817 -0.53904,-0.42323c-0.20677,-0.20176 -0.77995,-0.88075 -0.12785,-1.69588c0.78087,-0.97609 1.75696,-0.19522 1.75696,-0.19522c0.03782,0.03046 0.07575,0.06069 0.11379,0.0907l0.24874,0.08348c1.88778,0.54634 3.54236,1.61055 5.48612,1.97316c3.5335,0.65918 8.22602,0.47016 11.74095,-0.2c1.37973,-0.26306 3.57722,-1.26722 5.16327,-1.2536c0.30738,-0.14154 0.60994,-0.28689 0.90723,-0.43569l1.1775,-0.58876c0.17371,-0.09145 0.37157,-0.14321 0.58151,-0.14321c0.69036,0 1.25,0.55964 1.25,1.25c0,0.44076 -0.22813,0.82825 -0.57276,1.05082l-1.18387,0.78925l-0.02772,-0.04158c-0.04565,0.04653 -0.0926,0.09193 -0.14099,0.13608c-0.5179,0.47252 -1.48194,0.73538 -2.47731,0.91159z" fill="#a8ac8f" stroke="none" stroke-width="0.5" stroke-linecap="butt"/><path d="M246.5619,208.95924c-0.14927,-0.27316 -0.21682,-0.65751 0.08924,-1.11659c0.6268,-0.94019 1.56699,-0.3134 1.56699,-0.3134l0.27292,0.2298c0.8916,0.30665 1.8436,0.49535 2.78642,0.48659c2.5517,0.32667 4.70936,1.47117 7.134,2.21785c0.75851,0.23359 2.27496,0.53827 2.81541,1.18446c0.46672,0.55804 0.88735,1.27563 0.86707,2.00284c-0.01639,0.58763 -1.25657,1.72925 -1.61824,2.29792c-1.16231,1.82761 -2.69461,7.6471 -5.27332,7.91607c-1.21805,0.12705 -2.45741,-0.70578 -2.67512,-1.67226c-0.15734,0.13911 -0.31469,0.27822 -0.47204,0.41733c-0.69312,-0.47673 -1.62371,-0.72303 -2.07935,-1.43018c-0.13922,-0.21606 -0.20844,-0.57079 -0.21194,-0.93619c-0.32569,0.21598 -0.67685,0.37108 -0.93784,0.37453c-0.78945,0.01041 -1.73623,-0.24566 -2.19598,-0.88751c-0.18337,-0.256 0.22604,-2.79619 0.63977,-4.04123c-0.97994,0.30702 -2.92271,0.29982 -3.43884,-0.34871c-1.77419,-2.22936 1.04093,-4.80109 2.73085,-6.3813z" fill="#d38a34" stroke="none" stroke-width="0.5" stroke-linecap="butt"/><path d="M211.07252,223.86856c-0.06914,0.0093 -0.14294,0.01426 -0.22169,0.01426c-1.25,0 -1.25,-1.25 -1.25,-1.25l0.01256,-0.62323c-0.19994,-1.42081 -0.68508,-4.35977 0.26535,-5.56262c1.58807,-2.00984 3.50153,-0.16688 5.17232,0.15198c0.77679,0.14825 1.50153,-0.62197 2.29228,-0.61151c0.60398,0.00798 1.07995,0.66337 1.68395,0.66931c0.76923,0.00756 0.57028,-1.43304 0.93964,-2.10782c0.73853,-0.31972 1.41094,-0.94492 2.21558,-0.95916c0.54405,-0.00962 0.859,0.6948 1.36465,0.89581c1.54958,0.61602 4.80806,0.75604 5.6448,2.63703c0.45862,1.03098 -0.51441,2.19866 -0.70727,3.31044c-0.34143,1.96827 1.53491,3.73684 0.74568,5.81353c-0.33861,0.89098 -2.95847,3.03863 -3.85572,1.77215c0.11063,0.47115 0.18324,1.03544 0.03103,1.29244c-0.44627,0.7535 -1.10343,1.54959 -1.95462,1.7555c-1.07719,0.26059 -1.63812,0.22743 -1.90562,0.03614c-0.27433,0.3399 -0.56363,0.65939 -0.94541,0.8529c-4.45617,2.2586 -7.51635,-4.6786 -9.5275,-8.08715z" fill="#d38a34" stroke="none" stroke-width="0.5" stroke-linecap="butt"/><path d="M204.77945,212.1472c-0.6889,-0.58892 -0.24666,-1.4734 -0.24666,-1.4734l0.4,-0.8c2.26081,-4.51766 5.6787,-5.52366 10.51826,-5.47485c1.4443,0.46426 3.65734,0.63809 4.74409,1.81486c1.31926,1.42855 3.25604,6.99397 3.10129,8.91434c-0.08284,1.02809 0.00474,2.36032 -0.81626,2.98466c-2.0316,1.54496 -1.91953,-0.82781 -3.18319,-0.85448c-0.89183,-0.01882 -0.67803,1.966 -1.54226,2.18697c-0.73469,0.18785 -1.38621,-0.62219 -2.04172,-1.00347c-0.5938,-0.34539 -1.9501,-1.90277 -1.5783,-1.32514c0.5133,0.79746 0.60577,1.55109 0.51077,2.31611h0.05534v1.4c0,0.69036 -0.55964,1.25 -1.25,1.25c-0.29903,0 -0.57352,-0.105 -0.78865,-0.28014l-0.99222,-0.79378l0.04122,-0.05152l-0.18173,-0.07983c-1.89018,-2.80014 -4.34101,-5.22941 -6.45471,-7.86386c0,0 -0.30871,-0.38588 -0.29529,-0.86649z" fill="#b26525" stroke="none" stroke-width="0.5" stroke-linecap="butt"/><path d="M249.53608,204.59237l0.91003,-0.5454c0.82802,0.276 1.65569,0.55308 2.48307,0.83101c1.33007,0.66193 2.70278,1.19361 4.04758,1.82088c1.2376,0.57727 4.76809,1.71492 4.91774,3.40836c0.19226,2.17562 -2.51346,2.81116 -3.90393,2.48779c-0.4683,-0.10891 -0.53717,-0.8474 -0.95973,-1.07677c-1.65713,-0.8995 -4.58063,-1.82466 -6.45652,-2.26637c-1.45929,-0.34362 -1.90818,2.03633 -3.5868,-0.56187c-0.84256,-1.30412 0.63166,-2.79647 1.28723,-3.63804c0,0 0.52943,-0.66179 1.26134,-0.45958zM250.46463,206.73949c0.0607,0.00143 0.12073,0.00418 0.17942,0.00811c-0.04259,-0.01415 -0.08518,-0.0283 -0.12777,-0.04245c-0.01675,0.01174 -0.03396,0.02321 -0.05165,0.03434z" fill="#b26525" stroke="none" stroke-width="0.5" stroke-linecap="butt"/><path d="M205.06723,213.63382l-0.31443,-0.40364c-0.48002,-1.38599 -1.44535,-2.64539 -1.88783,-4.00207c-0.97135,-2.97821 -0.44707,-8.51987 1.66448,-10.84001c3.4115,-3.74851 15.14993,-4.61094 13.82347,2.65491c0.79206,0.32389 1.82785,0.08156 2.49039,0.62314c1.27821,1.04485 1.90564,6.646 0.98361,7.74657c-0.54736,0.65335 -5.30922,-1.07725 -6.24522,-1.13181c-3.79879,-0.22144 -6.21998,1.87652 -7.70299,5.08804c0.09445,0.35 0.0744,0.82283 -0.44701,1.23996c-0.04435,0.03548 -0.08831,0.06734 -0.1318,0.09582c-0.20011,0.31625 -0.66179,0.80832 -1.48798,0.4985c-1.04176,-0.39066 -0.80855,-1.36085 -0.7447,-1.56941z" fill="#b6ba9a" stroke="none" stroke-width="0.5" stroke-linecap="butt"/><path d="M250.59308,204.97862c-0.0608,0.11146 -0.14506,0.22478 -0.25837,0.33809c-0.88388,0.88388 -1.76777,0 -1.76777,0l-0.75618,-0.79051c-1.0891,-1.79875 -2.53275,-8.21888 -0.17234,-9.78308c0.58391,-0.38694 1.40057,0.03515 2.10102,0.04285c3.47079,0.03815 6.50136,0.28533 9.73013,1.66908c2.74896,0.78074 6.09973,2.65515 5.1608,6.19153c-0.23906,0.90037 -1.18196,0.98116 -1.12983,1.95908c0.10639,1.99576 2.38476,4.15295 -1.27029,5.26421c-0.77189,0.23468 -3.84513,-1.91665 -4.60682,-2.35592c-2.04875,-1.1815 -4.6289,-1.9563 -7.03033,-2.53535z" fill="#b6ba9a" stroke="none" stroke-width="0.5" stroke-linecap="butt"/><path d="M230.63208,197.6937c-0.08553,-0.37116 -0.09398,-1.00207 0.65973,-1.37892c1.11803,-0.55901 1.67705,0.55902 1.67705,0.55902c0.2,0.4 0.6,1.2 0.8,1.6c0.85851,1.72649 1.39242,3.62921 2.34991,5.30941c0.76674,1.34547 1.71239,1.30697 1.1322,3.39909c-0.48468,1.74772 -3.52507,4.7274 -5.27438,4.67006c-0.84278,-0.02763 -3.66229,-4.42822 -3.76471,-5.25363c-0.22367,-1.80259 0.66899,-1.79305 1.34091,-2.96327c0.78669,-1.37007 0.66537,-3.81879 0.85769,-5.35769c0,0 0.03728,-0.29832 0.2216,-0.58407z" fill="#242937" stroke="none" stroke-width="0.5" stroke-linecap="butt"/><path d="M222.27983,138.05263c-0.46075,0.75176 -1.26746,1.08789 -1.26746,1.08789c-2.28292,0.95097 -5.04148,1.63726 -7.06922,3.09804c-3.60218,2.595 -5.69851,8.14212 -5.99961,12.3849c-0.23227,3.2729 1.08731,8.40251 -0.13823,11.44984c-2.31323,5.75194 -7.4283,3.58018 -11.04479,6.51624c0.4318,3.57459 0.13998,7.30619 3.1238,9.95076c2.28075,2.02145 4.65104,0.28065 7.1836,1.40878c2.31591,1.03162 4.11567,4.5358 6.34184,5.98534c7.2305,4.70809 16.66776,4.74964 24.93561,4.81714c4.01846,-1.03103 8.44432,-1.81606 12.23103,-3.57608c3.34345,-1.55399 5.05921,-5.78385 8.56334,-7.07073c2.53001,-0.92914 5.69943,0.95742 7.91637,-0.26798c2.49015,-1.37642 3.9455,-5.68912 4.57117,-8.21748c0.23038,-0.93097 0.30155,-1.89871 0.56174,-2.82179c0.11806,-0.41881 0.74266,-0.77927 0.56534,-1.17664c-0.46573,-1.04362 -6.81875,-1.31591 -6.91887,-1.32726c-3.59163,-7.20115 -2.29724,-14.63247 -4.20411,-22.23129c-0.99331,-3.9583 -4.83452,-5.6474 -5.81367,-9.65511c-0.71391,-2.92209 -0.19981,-7.45764 0.25841,-10.44124c0.1119,-0.72858 -1.10556,0.98141 -1.71504,1.39601c-1.23222,0.8382 -5.57359,3.59751 -6.94003,3.02913c-3.17589,-1.32102 -2.63662,-5.34314 -2.67022,-7.75828c0.01619,-0.70324 0.02129,-1.40681 0.04855,-2.10971c0.0105,-0.27071 0.3247,-0.73404 0.0647,-0.81016c-0.47385,-0.13873 -0.93911,0.3126 -1.42263,0.41259c-2.27581,0.47067 -4.55405,0.84039 -6.66007,1.93704c-5.7595,2.99913 -9.59067,6.92127 -13.0214,12.31243l0.06256,0.04838c0,0 -0.41428,1.24282 -1.54271,1.62923zM219.22596,134.47666l0.31571,-0.78602c4.38142,-6.88509 10.01794,-12.37936 17.86493,-15.21095c2.51624,-0.90799 7.75289,-2.56947 10.23098,-0.92698c2.48703,1.64843 2.07638,4.73286 2.11325,7.08012c-0.00957,0.49468 0.03815,0.99615 0.04154,1.49237c2.72562,-2.36307 7.21834,-4.5814 10.23317,-1.2255c0.95907,1.06757 0.57439,2.81672 0.7237,4.24403c0.27127,2.59312 -0.5623,5.57733 -0.06529,8.11473c0.37759,1.92767 1.57556,2.17653 2.70024,3.58941c1.49716,1.88082 2.46745,3.62319 3.0861,5.95548c0.63087,2.37837 0.35224,3.40312 0.66082,5.71601c0.59245,4.44061 1.52244,9.17206 1.53507,13.6527c2.92019,-0.84203 7.1731,0.53118 8.68113,3.47275c0.61287,1.19546 -0.07301,2.68972 -0.23466,4.02336c-0.53273,4.39492 -2.21007,8.87413 -5.17317,12.20268c-2.24409,2.52086 -2.81479,2.99106 -6.41559,3.26093c-0.64543,0.04837 -3.57394,-0.75762 -4.56196,-0.37086c-3.10801,1.21662 -5.07052,5.38466 -8.23665,6.92927c-4.20236,2.05014 -9.26741,2.92338 -13.76897,4.02392c-9.44133,0.06087 -20.04441,-0.21559 -28.2644,-5.58286c-1.32422,-0.86465 -3.59163,-2.96895 -4.6547,-4.17772c-0.38582,-0.43869 -0.46339,-1.21417 -1.00346,-1.43694c-1.61091,-0.66448 -3.58453,0.28116 -5.21748,-0.32717c-7.3795,-2.74911 -8.0212,-10.86094 -7.67513,-17.51329c0.96592,-1.00996 1.7159,-2.2841 2.89778,-3.02989c1.82623,-1.1524 7.17583,-0.42337 8.05743,-3.25386c0.8554,-2.74636 -0.36272,-7.22113 -0.13823,-10.15016c0.43802,-5.71512 3.222,-12.51777 8.00039,-16.01511c2.38177,-1.74322 5.43688,-2.57921 8.13079,-3.70196c0,0 0.04937,-0.02058 0.13667,-0.04847z" fill="url(#color-2)" stroke="none" stroke-width="0.5" stroke-linecap="butt"/><path d="M222.80995,134.43711l-0.06542,-0.05051c3.58398,-5.63196 7.61285,-9.7348 13.62961,-12.86788c2.20008,-1.14564 4.58921,-1.53051 6.96668,-2.0222c0.50511,-0.10447 0.99286,-0.57552 1.48789,-0.43059c0.27161,0.07952 -0.05641,0.56361 -0.06738,0.84641c-0.02848,0.73429 0.36694,1.46951 0.35003,2.20416c0.0351,2.52301 -0.92017,6.72794 2.39759,8.10797c1.42747,0.59376 5.96912,-2.2851 7.25638,-3.16074c0.63671,-0.43311 1.90928,-2.21898 1.79239,-1.45785c-0.47869,3.11686 -1.0078,7.86192 -0.262,10.91453c1.02289,4.18672 5.04649,5.96859 6.08417,10.10369c1.99205,7.93823 0.63967,15.73889 4.39172,23.26169c0.10459,0.01186 6.74196,0.29476 7.22849,1.385c0.18525,0.41511 -0.46785,0.79325 -0.59118,1.23077c-0.27182,0.96431 -0.34759,1.97861 -0.58826,2.95117c-0.65363,2.6413 -2.18029,7.15679 -4.78167,8.5947c-2.31596,1.28014 -5.63207,-0.68512 -8.27508,0.28552c-3.66065,1.34436 -5.46627,5.77221 -8.95906,7.39562c-3.95586,1.83864 -8.5969,2.66362 -12.79485,3.7407c-8.63715,-0.07051 -18.5302,-0.12258 -26.08367,-5.04096c-2.3256,-1.5143 -4.21484,-5.18276 -6.6342,-6.26047c-2.64568,-1.17852 -5.12642,0.63435 -7.50904,-1.47738c-3.11709,-2.7627 -2.81824,-6.67237 -3.26934,-10.40663c3.77803,-3.06721 9.12027,-0.80231 11.53683,-6.81117c1.28027,-3.18345 -0.09985,-8.56373 0.14279,-11.98281c0.31455,-4.43228 2.51484,-10.25202 6.27792,-12.96294c2.1183,-1.52603 5.01098,-2.25354 7.39586,-3.24699c0,0 0.84579,-0.35318 1.32712,-1.13852c1.17883,-0.40368 1.61567,-1.70428 1.61567,-1.70428z" data-paper-data="{&quot;noHover&quot;:false,&quot;origItem&quot;:[&quot;Path&quot;,{&quot;applyMatrix&quot;:true,&quot;segments&quot;:[[[438.65801,260.23961],[2.25686,-0.77284],[-0.9215,1.50351]],[[436.12308,262.41538],[0,0],[-4.56583,1.90194]],[[421.98465,268.61146],[4.05547,-2.92156],[-7.20436,5.19001]],[[409.98544,293.38125],[0.60219,-8.48554],[-0.46453,6.54579]],[[409.70898,316.28093],[2.45107,-6.09466],[-4.62647,11.50388]],[[387.6194,329.31342],[7.23299,-5.87213],[0.86361,7.14918]],[[393.86699,349.21493],[-5.96762,-5.28914],[4.5615,4.04289]],[[408.23419,352.0325],[-5.06512,-2.25626],[4.63183,2.06325]],[[420.91787,364.00319],[-4.45233,-2.8991],[14.461,9.41617]],[[470.78908,373.63746],[-16.53569,-0.13499],[8.03692,-2.06206]],[[495.25114,366.48531],[-7.57343,3.52004],[6.6869,-3.10799]],[[512.37783,352.34385],[-7.00826,2.57376],[5.06002,-1.85827]],[[528.21057,351.80789],[-4.43387,2.4508],[4.9803,-2.75284]],[[537.35291,335.37293],[-1.25135,5.05673],[0.46076,-1.86194]],[[538.47639,329.72935],[-0.52039,1.84616],[0.23611,-0.83763]],[[539.60706,327.37607],[0.35465,0.79473],[-0.93145,-2.08725]],[[525.76932,324.72156],[0.20024,0.0227],[-7.18325,-14.4023]],[[517.3611,280.25898],[3.81375,15.19764],[-1.98662,-7.9166]],[[505.73376,260.94876],[1.9583,8.01542],[-1.42782,-5.84417]],[[506.25058,240.06628],[-0.91644,5.96719],[0.22379,-1.45717]],[[502.82049,242.85829],[1.21897,-0.82918],[-2.46444,1.6764]],[[488.94044,248.91655],[2.73287,1.13675],[-6.35179,-2.64205]],[[483.6,233.4],[0.06719,4.83027],[0.03237,-1.40647]],[[483.6971,229.18058],[-0.05452,1.40579],[0.021,-0.54142]],[[483.8265,227.56025],[0.52,0.15224],[-0.94771,-0.27747]],[[480.98125,228.38544],[0.96703,-0.2],[-4.55163,0.94135]],[[467.66111,232.25953],[4.21203,-2.19331],[-11.51901,5.99825]],[[441.61831,256.88438],[6.86147,-10.78231],[0,0]],[441.74342,256.98114]],&quot;closed&quot;:true}]}" fill="url(#color-3)" stroke="none" stroke-width="0.5" stroke-linecap="butt"/><path d="M205.80471,186.96716c-2.9264,-6.09211 -5.04072,-15.38492 2.39366,-17.9477c1.02533,-0.35345 2.168,-0.07311 3.25245,-0.08664c7.38562,-0.09215 13.49543,3.19292 18.84461,8.05963c0.07501,0.04138 2.58654,1.52832 2.98101,1.40725c0.60058,-0.18433 0.78992,-1.01451 1.33011,-1.33524c2.47909,-1.47195 4.18484,-2.46018 6.53176,-4.22219c3.8453,-2.88696 9.26126,-4.26763 13.97088,-4.88599c2.38681,-0.31338 4.71289,-0.50934 6.88173,0.96606c3.23411,2.20007 3.39199,3.82038 3.35854,7.39294c-0.07084,7.56548 -5.59785,13.01565 -11.88972,16.20491c-3.42284,1.31647 -6.86937,2.55742 -10.26096,3.82593c-1.62306,0.60705 -2.43533,2.66601 -4.07418,3.22903c-1.18633,0.40755 -2.50853,-0.03546 -3.76288,-0.04393c-2.75122,-0.01856 -7.31616,0.75575 -9.79126,-0.55117c-1.36995,-0.72337 -1.87675,-2.68531 -3.3174,-3.25499c-4.443,-1.75688 -8.95744,-2.43835 -13.08746,-4.60369c-0.95694,-0.07887 -1.50042,-0.55417 -1.80907,-1.0686c-0.19311,-0.12829 -0.38517,-0.2609 -0.57613,-0.39812c0,0 -1.50128,-1.09185 -0.97568,-2.6875z" fill="#df9234" stroke="none" stroke-width="0.5" stroke-linecap="butt"/><path d="M197.42756,173.31568c0.06566,-0.32785 0.27477,-0.6843 0.82798,-0.86871c1.18586,-0.39529 1.58114,0.79057 1.58114,0.79057l0.25158,0.81851c0.27643,1.93505 0.62043,3.81979 0.98732,5.72681c0.62302,3.23836 -0.99074,6.50626 -4.53972,3.87531c-2.24522,-1.66444 -2.41219,-8.2878 -0.01593,-10.0394c0.26191,-0.19145 0.57753,-0.2634 0.90762,-0.30309z" fill="#df9234" stroke="none" stroke-width="0.5" stroke-linecap="butt"/><path d="M272.27326,173.01877c2.39627,1.7516 2.22929,8.37496 -0.01593,10.0394c-3.54898,2.63095 -5.16273,-0.63695 -4.53972,-3.87531c0.36689,-1.90702 0.71088,-3.79176 0.98732,-5.72681l0.25158,-0.81851c0,0 0.39529,-1.18586 1.58114,-0.79057c0.55321,0.1844 0.76231,0.54086 0.82798,0.86871c0.3301,0.03969 0.64571,0.11164 0.90762,0.30309z" data-paper-data="{&quot;index&quot;:null}" fill="#df9234" stroke="none" stroke-width="0.5" stroke-linecap="butt"/><path d="M250.37138,120.43236c1.60046,1.92055 -0.3201,3.52101 -0.3201,3.52101l-0.84829,0.64119c-3.00825,3.714 -2.13474,6.30264 -1.85846,10.86103c0.18319,3.02243 0.08438,6.77643 -0.42709,9.78437c-0.91932,5.40654 -3.98956,9.08261 -7.01054,13.415c-1.42461,2.04304 -2.55829,4.28898 -3.66,6.54901l0.09756,0.00697l-0.14085,1.97194c6.5481,-5.64905 12.53695,-13.38536 15.72285,-21.47057c1.42173,-3.60808 1.8646,-7.21993 3.72962,-10.67661l2.02697,-2.17063c0,0 1.76776,-1.76776 3.53553,0c1.76776,1.76776 0,3.53553 0,3.53553l-1.17303,1.02936c-1.78152,3.22316 -2.13391,6.71259 -3.47038,10.12339c-3.48337,8.88989 -10.0428,17.32719 -17.22574,23.51379c-1.21413,1.21562 -5.96059,6.92652 -7.49863,6.86569c-3.99601,-0.15804 -5.83064,-8.03169 -7.36228,-10.64518c-1.35235,-2.30759 -3.02344,-4.50363 -4.24847,-6.8875c-3.84013,-7.47281 -4.57066,-16.85025 -1.96097,-24.75789c0,0 0.79057,-2.37171 3.16228,-1.58114c2.37171,0.79057 1.58114,3.16228 1.58114,3.16228c-2.94016,8.72039 -0.45839,17.51501 4.16782,25.11622c1.58272,2.60052 2.80469,5.05035 4.10927,7.80103c0.17455,0.36803 0.43574,0.70166 0.65558,1.04967c0.25587,-0.35655 0.54628,-0.68694 0.85788,-1.0013c-0.91784,-0.32636 -1.5887,-1.17382 -1.6566,-2.18643l-0.18863,-2.45209c-1.33969,-6.25309 -0.22484,-11.73024 -0.01566,-18.00086c0.24427,-7.32254 -0.4992,-14.67479 -2.13736,-21.75465c0,0 -0.56215,-2.43598 1.87383,-2.99813c2.43598,-0.56215 2.99813,1.87383 2.99813,1.87383c1.72553,7.49858 2.52076,15.29636 2.26264,23.04534c-0.10401,3.12222 -0.45,6.02171 -0.57964,8.92533c2.18732,-3.09695 4.69619,-5.9877 5.91406,-9.61318c1.14244,-3.40092 1.30342,-7.65303 1.07325,-11.21812c-0.18066,-2.7983 -1.02094,-6.15247 -0.33941,-8.95161c0.55451,-2.27743 1.90639,-3.6517 3.28095,-5.38736l1.55171,-1.35882c0,0 1.92056,-1.60046 3.52102,0.3201z" fill="#8a4518" stroke="none" stroke-width="0.5" stroke-linecap="butt"/><path d="M236.93432,173.06169c-0.90527,-0.5804 -0.40153,-1.58788 -0.40153,-1.58788l0.82564,-0.98991c2.43394,-1.04115 4.97492,-1.79299 7.41404,-2.80592c2.54737,-1.05788 4.09318,-2.6448 6.95671,-1.8c1.34931,0.67095 4.29538,1.64762 4.37165,3.55485c0.03406,0.85188 -0.91189,1.46881 -1.54922,2.03509c-2.23685,1.98749 -5.86344,3.55952 -8.42278,5.21506c-1.3366,0.8646 -4.53262,3.74704 -6.23396,3.26942c-0.73952,-0.20761 -0.53289,-1.4416 -0.8372,-2.14685c-0.68456,-1.5865 -1.42858,-3.1562 -2.12336,-4.74384z" fill="#693013" stroke="none" stroke-width="0.5" stroke-linecap="butt"/><path d="M212.67047,169.44167c-0.30954,-0.07941 -0.63289,-0.29574 -0.8055,-0.81356c-0.39529,-1.18586 0.79057,-1.58114 0.79057,-1.58114l0.65188,-0.21605c2.4948,-0.71276 5.00338,-1.95597 7.41709,-0.45102c3.10306,1.93475 1.99645,7.38288 -1.80456,8.10101c-0.70032,0.13232 -1.2543,-0.68071 -1.85,-1.072c-1.50204,-0.9866 -3.07057,-2.21802 -4.19521,-3.59521c0,0 -0.11741,-0.14678 -0.20427,-0.37202z" fill="#693013" stroke="none" stroke-width="0.5" stroke-linecap="butt"/><path d="M222.95899,176.8805c-1.15816,-0.05967 -1.15816,-1.24767 -1.15816,-1.24767l0.00833,-0.12924c-0.05347,-0.19854 -0.05781,-0.42984 0.04394,-0.68168l0.01188,-0.18436c0.39718,-1.1906 0.58897,-2.90108 1.26296,-3.95391c0.44103,-0.68893 0.82533,-1.60236 1.60206,-1.85894c0.67299,-0.22231 1.35129,0.42881 2.02048,0.66233c2.169,0.75689 3.89228,0.38055 4.34928,3.29385c0.16566,1.05608 -1.09198,3.39188 -1.49999,4.34435c-0.33619,0.78482 -1.2085,3.14575 -2.08078,3.3285c-1.26345,0.26469 -3.29405,-2.22086 -4.55999,-3.57323z" fill="#693013" stroke="none" stroke-width="0.5" stroke-linecap="butt"/><path d="M207.65083,226.43282l1.6,-3l47.2,-0.2h1.6l0.4,7.6l-4.6,5.8l-40.8,1l-5.2,-10" fill="url(#color-4)" stroke="#9da5b1" stroke-width="1.5" stroke-linecap="round"/><path d="M233.21556,225.91252c-2.24016,-0.2947 -4.63615,-0.77582 -6.60753,0.23925c-2.5152,1.29509 -4.91291,4.74684 -1.18383,6.57031c1.5316,0.74893 3.5949,0.46075 5.22663,0.46075c1.99712,0 5.17769,0.44225 7.02664,-0.46075c1.93718,-0.94609 4.01333,-5.25799 1.12723,-6.32157c-1.52267,-0.56114 -3.71202,-0.10246 -5.33065,-0.33024zM235.74977,223.68385c1.36038,-0.01299 2.77245,-0.081 3.94719,0.3813c4.96328,1.95318 3.06967,8.88317 -0.87276,10.87842c-2.24479,1.13608 -5.73856,0.73925 -8.17337,0.73925c-2.06957,0 -4.45086,0.23461 -6.37336,-0.73925c-4.36014,-2.20868 -4.06875,-7.60907 -0.32928,-10.14456c3.0005,-2.03445 5.84727,-1.56053 8.96947,-1.31522c0.46952,-0.24899 0.90464,-0.08419 1.1656,0.07506c0.3842,0.01774 0.77314,0.02733 1.16757,0.02399c0,0 0.23366,0 0.49894,0.10102z" fill="#333639" stroke="none" stroke-width="0.5" stroke-linecap="butt"/><path d="M231.99366,225.76951c0.87876,-0.57754 3.4073,0.96346 3.8978,1.7708c2.6499,4.36164 -2.51259,7.00985 -6.03592,5.87837c0,0 -1.18586,-0.39529 -0.79057,-1.58114c0.01232,-0.03694 0.0254,-0.07235 0.03919,-0.10628c-0.06647,-0.1527 -0.10333,-0.32127 -0.10333,-0.49844c0,-0.49901 0.2924,-0.92971 0.7152,-1.13014l1.17578,-0.58789l0.00173,0.00346c1.09916,-0.58434 0.01935,-3.03845 1.10012,-3.74874z" fill="#babec7" stroke="none" stroke-width="0.5" stroke-linecap="butt"/><path d="M211.69783,191.26493c-0.07637,0.01163 -0.15856,0.01789 -0.24701,0.01789c-0.72375,0 -1.02845,-0.41906 -1.15672,-0.7719c-1.09641,-0.86104 -2.11928,-1.60551 -3.12062,-2.64419c-0.8419,-2.79423 -1.15832,-7.13058 -0.31902,-9.99614c1.74999,-5.97486 9.08938,-5.92672 13.03002,-2.36918c1.89375,1.70964 2.89037,4.24321 3.87408,6.55225c0.75252,1.20075 1.98068,2.87578 2.30882,4.29197c0.95076,4.10329 -1.37754,6.92123 -5.41656,6.93719c-2.91548,0.01152 -6.35483,-0.45101 -8.95299,-2.01789z" fill="#ffffff" stroke="none" stroke-width="0.5" stroke-linecap="butt"/><path d="M245.98987,193.48282c-4.03902,-0.01596 -6.36732,-2.8339 -5.41656,-6.93719c0.32814,-1.41619 1.5563,-3.09122 2.30883,-4.29197c0.98371,-2.30904 1.98033,-4.8426 3.87409,-6.55225c3.94064,-3.55754 11.28003,-3.60568 13.03001,2.36918c0.83929,2.86556 0.52288,7.20191 -0.31903,9.99614c-1.00134,1.03868 -2.0242,1.78315 -3.12061,2.64419c-0.12828,0.35284 -0.43298,0.7719 -1.15673,0.7719c-0.08845,0 -0.17064,-0.00626 -0.24701,-0.01789c-2.59816,1.56688 -6.03752,2.02941 -8.953,2.01789z" data-paper-data="{&quot;index&quot;:null}" fill="#ffffff" stroke="none" stroke-width="0.5" stroke-linecap="butt"/><path d="M224.85083,187.83282c0,1.98823 -1.47746,3.6 -3.3,3.6c-1.82254,0 -3.3,-1.61177 -3.3,-3.6c0,-1.98822 1.47746,-3.6 3.3,-3.6c1.82254,0 3.3,1.61177 3.3,3.6z" fill="url(#color-5)" stroke="none" stroke-width="0" stroke-linecap="butt"/><path d="M248.45083,187.63282c0,1.98823 -1.47746,3.6 -3.3,3.6c-1.82254,0 -3.3,-1.61177 -3.3,-3.6c0,-1.98822 1.47746,-3.6 3.3,-3.6c1.82254,0 3.3,1.61178 3.3,3.6z" fill="url(#color-6)" stroke="none" stroke-width="0" stroke-linecap="butt"/><path d="M248.18548,205.82632c-0.27636,-0.23492 -0.39882,-0.54107 -0.39882,-0.54107l-0.15724,-1.94245c2.58289,-3.56811 5.18791,-2.6813 8.98026,-1.9912c3.95225,1.21169 9.80286,1.30263 9.8235,6.32573c0.00417,1.01431 0.13124,2.96502 -0.76851,3.68104c-1.17411,0.93436 -3.33911,-0.07094 -4.42499,-0.37225c-4.28435,-1.18885 -8.23348,-2.70816 -12.32221,-4.40993c0,0 -0.54936,-0.2289 -0.73201,-0.74987z" fill="#868686" stroke="none" stroke-width="0.5" stroke-linecap="butt"/><path d="M251.20225,202.11502l-0.902,3.00665" fill="none" stroke="#00fc14" stroke-width="2.5" stroke-linecap="round"/><path d="M256.16323,203.31768l-1.05233,3.30732" fill="none" stroke="#00fc14" stroke-width="2.5" stroke-linecap="round"/><path d="M259.92154,204.21968l-0.902,3.60798" fill="none" stroke="#00fc14" stroke-width="2.5" stroke-linecap="round"/><path d="M262.9282,208.87999l0.902,-3.90865" fill="none" stroke="#00fc14" stroke-width="2.5" stroke-linecap="round"/></g></g></svg>