<svg version="1.1" xmlns="http://www.w3.org/2000/svg" xmlns:xlink="http://www.w3.org/1999/xlink" width="125.49761" height="58.65728" viewBox="0,0,125.49761,58.65728"><defs><linearGradient x1="252.6" y1="147.64689" x2="252.6" y2="190.35312" gradientUnits="userSpaceOnUse" id="color-1"><stop offset="0" stop-color="#ff0000"/><stop offset="1" stop-color="#dc00ff"/></linearGradient><linearGradient x1="245.4" y1="154.44689" x2="245.4" y2="197.15312" gradientUnits="userSpaceOnUse" id="color-2"><stop offset="0" stop-color="#ff0000"/><stop offset="1" stop-color="#dc00ff"/></linearGradient><linearGradient x1="240" y1="158.64688" x2="240" y2="201.35312" gradientUnits="userSpaceOnUse" id="color-3"><stop offset="0" stop-color="#ff0000"/><stop offset="1" stop-color="#dc00ff"/></linearGradient><linearGradient x1="238.03251" y1="174.11504" x2="238.03251" y2="183.97381" gradientUnits="userSpaceOnUse" id="color-4"><stop offset="0" stop-color="#57ff33"/><stop offset="1" stop-color="#2ad367"/></linearGradient><linearGradient x1="238.00841" y1="176.92631" x2="238.00841" y2="181.14715" gradientUnits="userSpaceOnUse" id="color-5"><stop offset="0" stop-color="#57ff33"/><stop offset="1" stop-color="#2ad367"/></linearGradient><linearGradient x1="317.56097" y1="146.32288" x2="317.56097" y2="189.02911" gradientUnits="userSpaceOnUse" id="color-6"><stop offset="0" stop-color="#ff0000"/><stop offset="1" stop-color="#dc00ff"/></linearGradient><linearGradient x1="310.36097" y1="153.12288" x2="310.36097" y2="195.82911" gradientUnits="userSpaceOnUse" id="color-7"><stop offset="0" stop-color="#ff0000"/><stop offset="1" stop-color="#dc00ff"/></linearGradient><linearGradient x1="304.96097" y1="157.32287" x2="304.96097" y2="200.02911" gradientUnits="userSpaceOnUse" id="color-8"><stop offset="0" stop-color="#ff0000"/><stop offset="1" stop-color="#dc00ff"/></linearGradient><linearGradient x1="302.99348" y1="172.79103" x2="302.99348" y2="182.6498" gradientUnits="userSpaceOnUse" id="color-9"><stop offset="0" stop-color="#57ff33"/><stop offset="1" stop-color="#2ad367"/></linearGradient><linearGradient x1="302.96938" y1="175.6023" x2="302.96938" y2="179.82314" gradientUnits="userSpaceOnUse" id="color-10"><stop offset="0" stop-color="#57ff33"/><stop offset="1" stop-color="#2ad367"/></linearGradient></defs><g transform="translate(-215.78938,-145.2858)"><g data-paper-data="{&quot;isPaintingLayer&quot;:true}" fill-rule="nonzero" stroke-linejoin="miter" stroke-miterlimit="10" stroke-dasharray="" stroke-dashoffset="0" style="mix-blend-mode: normal"><path d="M245.18022,160.44743l2.7187,-6.45691l8.60921,-6.34363l1.01951,0.11328l-2.49214,5.21084l-0.33983,7.47642l6.91002,-0.33984l4.53116,1.24607l7.36315,5.55068l-10.42168,0.45312l-3.51165,2.1523l-0.22656,1.92574l2.26558,5.32412l-0.33983,7.81626l-3.96477,5.77723l-1.35935,-7.81626l-4.30461,-5.32412l-2.1523,-0.11328l-4.19133,3.17182l-4.19133,0.67968l-9.40217,-1.01952l8.83577,-4.75772l1.47263,-2.7187l0.45312,-1.24607l-5.89052,-4.98428l-3.62493,-8.26937l0.33984,-4.64444l7.70298,7.47642z" fill="url(#color-1)" stroke="#e60096" stroke-width="2" stroke-linecap="round"/><path d="M237.98022,167.24743l2.7187,-6.45691l8.60922,-6.34363l1.01951,0.11328l-2.49214,5.21084l-0.33983,7.47642l6.91002,-0.33984l4.53117,1.24607l7.36314,5.55068l-10.42168,0.45312l-3.51166,2.1523l-0.22656,1.92574l2.26558,5.32412l-0.33983,7.81626l-3.96477,5.77723l-1.35935,-7.81626l-4.30461,-5.32412l-2.1523,-0.11328l-4.19133,3.17182l-4.19133,0.67968l-9.40217,-1.01952l8.83577,-4.75772l1.47263,-2.7187l0.45312,-1.24607l-5.89052,-4.98428l-3.62493,-8.26937l0.33984,-4.64444l7.70298,7.47642z" fill="url(#color-2)" stroke="#e60096" stroke-width="2" stroke-linecap="round"/><path d="M232.58022,171.44743l2.7187,-6.45691l8.60921,-6.34363l1.01951,0.11328l-2.49214,5.21084l-0.33984,7.47642l6.91003,-0.33984l4.53117,1.24607l7.36314,5.55068l-10.42168,0.45312l-3.51165,2.1523l-0.22656,1.92575l2.26558,5.32412l-0.33984,7.81626l-3.96477,5.77724l-1.35935,-7.81626l-4.30461,-5.32412l-2.1523,-0.11328l-4.19133,3.17182l-4.19133,0.67967l-9.40217,-1.01951l8.83577,-4.75772l1.47263,-2.7187l0.45312,-1.24607l-5.89051,-4.98428l-3.62493,-8.26938l0.33984,-4.64444l7.70298,7.47642z" fill="url(#color-3)" stroke="#e60096" stroke-width="2" stroke-linecap="round"/><path d="M237.8636,167.33289c-0.08799,0.04823 -0.18706,0.09156 -0.2985,0.1287c-1.33881,0.44627 -1.78508,-0.89254 -1.78508,-0.89254l-0.51153,-1.98837c0.92968,-1.56295 2.1131,-3.62044 4.11425,-4.10221c0.01514,-0.00364 0.03029,-0.00723 0.04544,-0.01075l-0.00511,-0.01023l1.55519,-0.77759c0.19611,-0.10325 0.41949,-0.16168 0.65652,-0.16168c0.7794,0 1.41123,0.63183 1.41123,1.41123c0,0.44452 -0.20552,0.84103 -0.52672,1.09971l-1.14593,0.93758c-0.92685,1.16877 -1.26507,1.92929 -1.64905,3.40676c0,0 -0.36362,1.36358 -1.7272,0.99996c-0.04648,-0.01239 -0.09095,-0.02595 -0.13349,-0.04058z" fill="#6e6e6e" stroke="none" stroke-width="0.5" stroke-linecap="butt"/><path d="M247.90064,172.67089c0,-1.41123 1.41123,-1.41123 1.41123,-1.41123h0.56449c2.147,0.00426 5.51822,0.18165 7.20993,1.74539c0.02925,0.02703 0.05815,0.05437 0.08674,0.082l0.01458,-0.02267l1.56093,1.00345c0.40085,0.24894 0.66775,0.69316 0.66775,1.19973c0,0.7794 -0.63183,1.41123 -1.41123,1.41123c-0.1676,0 -0.32838,-0.02922 -0.47752,-0.08284l-1.30252,-0.43417c-1.5315,-0.44424 -2.71835,-0.50009 -4.31648,-0.49908c0,0 -1.41123,0 -1.41123,-1.41123c0,-0.06111 0.00265,-0.11958 0.00771,-0.17552c-0.20804,0.00232 -0.41735,0.0057 -0.62865,0.00618h-0.56449c0,0 -1.41123,0 -1.41123,-1.41123z" fill="#6e6e6e" stroke="none" stroke-width="0.5" stroke-linecap="butt"/><path d="M246.18162,189.69595c0.01089,-0.18323 0.06331,-0.38607 0.17453,-0.6085c0.63112,-1.26225 1.89337,-0.63112 1.89337,-0.63112l1.45334,1.49271c0.09331,1.369 0.20454,3.92254 -0.65098,5.12181c-0.03684,0.05164 -0.0747,0.1024 -0.1135,0.15234l0.03546,0.01909l-0.77654,1.44216c-0.23396,0.45581 -0.70871,0.76769 -1.25629,0.76769c-0.7794,0 -1.41123,-0.63183 -1.41123,-1.41123v-1.46768c0.00738,-1.06131 -0.14561,-2.12956 -0.40946,-3.15758c0,0 -0.34227,-1.3691 1.02682,-1.71137c0.01157,-0.00289 0.02306,-0.00566 0.03448,-0.00831z" fill="#6e6e6e" stroke="none" stroke-width="0.5" stroke-linecap="butt"/><path d="M230.62717,189.15408c1.12899,0.84674 0.28225,1.97572 0.28225,1.97572l-1.52961,1.44027c-2.93436,0.57565 -6.32741,0.76151 -9.19043,-0.15791c0,0 -1.33881,-0.44627 -0.89254,-1.78508c0.44627,-1.33881 1.78508,-0.89254 1.78508,-0.89254c2.32889,0.81573 5.34835,0.55787 7.74435,0.06789l-0.17483,-0.3661c0,0 0.84674,-1.12899 1.97572,-0.28225z" fill="#6e6e6e" stroke="none" stroke-width="0.5" stroke-linecap="butt"/><path d="M222.28407,169.04372c0.15517,0.07906 0.24925,0.15432 0.24925,0.15432l0.62697,0.50462c1.5463,1.41234 5.99498,7.38324 0.10458,7.16833c-0.8342,-0.03044 -1.1596,-1.20502 -1.67475,-1.86186c-1.76766,-2.25383 -2.04313,-5.27075 -2.46219,-7.99437c0,0 -0.21459,-1.39482 1.18023,-1.60941c1.39482,-0.21459 1.60941,1.18023 1.60941,1.18023c0.12473,0.8108 0.22699,1.63816 0.3665,2.45814z" fill="#6e6e6e" stroke="none" stroke-width="0.5" stroke-linecap="butt"/><path d="M226.84532,172.96474c-1.08414,0.90345 -1.98759,-0.18069 -1.98759,-0.18069l-0.47825,-0.58295c-1.8994,-1.8994 -3.94808,-3.50683 -4.85686,-6.08365c0,0 -0.44627,-1.33881 0.89254,-1.78508c1.33881,-0.44627 1.78508,0.89254 1.78508,0.89254c0.62475,2.05082 2.68037,3.48575 4.17502,4.98041l0.65074,0.77183c0,0 0.90345,1.08414 -0.18069,1.98759z" fill="#9b9b9b" stroke="none" stroke-width="0.5" stroke-linecap="butt"/><path d="M245.06696,159.13055c0.78281,1.17422 -0.39141,1.95703 -0.39141,1.95703l-0.31889,0.10743c-1.27415,1.73954 -1.97617,3.71878 -3.10059,5.5545c0,0 -0.73962,1.20189 -1.94151,0.46226c-1.20189,-0.73962 -0.46226,-1.94151 -0.46226,-1.94151c1.1722,-1.89486 1.90851,-3.91857 3.22173,-5.73535l1.03589,-0.79576c0,0 1.17422,-0.78281 1.95703,0.39141z" fill="#9b9b9b" stroke="none" stroke-width="0.5" stroke-linecap="butt"/><path d="M260.88398,176.73524c0,1.41123 -1.41123,1.41123 -1.41123,1.41123h-1.24188c-2.02893,-0.00138 -4.07845,0.06455 -6.10118,0.22164c0,0 -1.40707,0.10824 -1.51531,-1.29884c-0.10824,-1.40707 1.29884,-1.51531 1.29884,-1.51531c2.09591,-0.15979 4.2156,-0.22862 6.31766,-0.22995h1.24188c0,0 1.41123,0 1.41123,1.41123z" fill="#9b9b9b" stroke="none" stroke-width="0.5" stroke-linecap="butt"/><path d="M244.28789,200.10524c0,-0.28553 0.05777,-0.51328 0.14993,-0.69496c0.09414,-2.40301 -0.385,-3.92802 -1.74696,-6.12962c0,0 -0.73962,-1.20189 0.46226,-1.94151c1.20189,-0.73962 1.94151,0.46226 1.94151,0.46226c1.75143,2.85938 2.36144,5.06893 2.12503,8.40437l-1.52054,1.31068c0,0 -1.41123,0 -1.41123,-1.41123z" fill="#9b9b9b" stroke="none" stroke-width="0.5" stroke-linecap="butt"/><path d="M229.48696,187.12939c0.78281,1.17422 -0.39141,1.95703 -0.39141,1.95703l-0.67523,0.39039c-2.28091,0.76016 -4.09949,1.37213 -6.53813,1.19725c0,0 -1.40707,-0.10824 -1.29884,-1.51531c0.10824,-1.40707 1.51531,-1.29884 1.51531,-1.29884c2.04243,0.17025 3.51195,-0.42155 5.42912,-1.06072l0.00216,-0.0612c0,0 1.17422,-0.78281 1.95703,0.39141z" fill="#9b9b9b" stroke="none" stroke-width="0.5" stroke-linecap="butt"/><path d="M235.23935,178.36124c0.53437,0.26261 0.73453,0.86309 0.73453,0.86309c0.22276,0.78056 0.14156,1.19928 0.92522,1.58245c1.10832,0.54191 3.98218,0.5801 3.88929,-1.33056c-0.09017,-1.85481 -3.98074,-3.31435 -5.26833,-2.08178c-0.29003,0.27763 -0.32035,0.61972 -0.28071,0.96681zM233.62854,181.09652c-0.16377,-0.1396 -0.25474,-0.26696 -0.25474,-0.26696l-0.8232,-1.50232c-0.08206,-1.67064 -0.43071,-2.50535 0.97368,-3.92859c3.01892,-3.05944 9.9464,-0.22167 10.08588,4.01474c0.13504,4.10148 -5.0697,5.56629 -8.07796,3.86278c-1.34179,-0.75983 -1.58936,-1.24671 -1.90365,-2.17965z" fill="url(#color-4)" stroke="none" stroke-width="0.5" stroke-linecap="butt"/><path d="M235.49649,177.37891c1.28759,-1.23256 5.2296,0.24694 5.31977,2.10175c0.09289,1.91066 -2.82381,1.89197 -3.93213,1.35005c-0.78366,-0.38317 -0.71559,-0.82318 -0.93836,-1.60374c0,0 -0.19949,-0.60977 -0.73385,-0.87238c-0.03964,-0.34709 -0.00546,-0.69804 0.28456,-0.97567z" data-paper-data="{&quot;noHover&quot;:false,&quot;origItem&quot;:[&quot;Path&quot;,{&quot;applyMatrix&quot;:true,&quot;segments&quot;:[[[463.13296,354.19388],[-0.14044,-1.22974],[1.89326,0.93043]],[[465.73539,357.2518],[0,0],[0.78925,2.76554]],[[469.01345,362.85842],[-2.7765,-1.35757],[3.92677,1.92]],[[482.79321,358.14425],[0.32911,6.76948],[-0.31949,-6.5716]],[[464.12751,350.76848],[4.56192,-4.36697],[-1.02756,0.98365]]],&quot;closed&quot;:true}]}" fill="url(#color-5)" stroke="none" stroke-width="0.5" stroke-linecap="butt"/><path d="M226.46698,171.93559c0.40356,-0.56303 1.16837,-0.56303 1.16837,-0.56303h0.67739c1.74004,0.00829 3.22748,0.03879 4.25551,-1.53232c0.46949,-0.71752 1.73405,-3.27927 2.34234,-3.37679c3.24827,-0.52072 3.40982,2.30263 2.67678,4.13578c-0.38137,0.95371 -2.16007,2.06596 -2.99532,2.59142c-2.81078,1.76829 -5.29317,2.74396 -8.51557,1.46032c0,0 -1.30268,-0.54278 -0.75989,-1.84546c0.27696,-0.6647 0.75176,-0.84891 1.15039,-0.86992z" fill="#343434" stroke="none" stroke-width="0.5" stroke-linecap="butt"/><path d="M231.83079,192.52284c-0.40076,-0.40076 -0.47962,-0.80152 -0.4305,-1.13764c-0.28637,-0.00892 -0.60533,-0.12398 -0.92428,-0.44293c-0.55889,-0.55889 -0.49174,-1.11778 -0.3245,-1.50136c-1.19556,0.07581 -1.42086,-1.16336 -1.42086,-1.16336l-0.10364,-0.5739c-0.47988,-0.41339 -0.86555,-1.01869 -1.18023,-1.54383c-0.5182,-0.86476 -0.03966,-2.04758 -0.36257,-3.0026c-0.64498,-1.90756 -1.87099,-3.26435 -3.33352,-4.58746c0,0 -1.04423,-0.9493 -0.09493,-1.99352c0.29015,-0.31916 0.58916,-0.45209 0.86452,-0.48282c0.01236,-0.11466 0.03897,-0.2375 0.08278,-0.36894c0.44627,-1.33881 1.78508,-0.89254 1.78508,-0.89254l0.64614,0.21578c3.55963,1.14135 5.71735,3.70111 5.85082,7.54942c0.04371,1.26028 -0.22817,3.76177 -1.41895,4.94932l0.04143,0.22618c0,0 0.01025,0.05637 0.01526,0.14845c1.60269,-1.50707 3.36104,-2.73339 5.80732,-2.17267c0.10019,0.02297 2.98291,1.42878 3.30644,1.61311c0.21985,0.12525 0.44459,0.24604 0.66337,0.37535c0.06492,0.01266 0.12956,0.02618 0.19389,0.04059c0.47689,0.10684 0.91129,0.35383 1.36118,0.54472c0.029,0.01231 0.06006,0.03482 0.09162,0.06091c0.13498,-0.12057 0.27841,-0.24054 0.42798,-0.35792c0.02795,-0.49765 -0.21339,-1.06909 -0.21574,-1.58066c-0.00779,-1.69422 -0.21152,-3.5905 0.14308,-5.25781c0.11158,-0.52463 1.1197,-3.08179 1.33556,-3.56191c0.17749,-0.39478 0.40219,-0.76659 0.60372,-1.14965c0.08599,-0.16344 0.3874,-0.35725 0.25886,-0.48986c-0.19758,-0.20383 -0.57566,-0.02112 -0.84398,-0.11378c-0.52708,-0.18202 -1.02516,-0.44201 -1.51843,-0.70206c-1.43123,-0.75451 -4.18514,-2.47 -4.46414,-4.3623c-0.00933,-0.06325 -0.01685,-0.12654 -0.02274,-0.18987l-0.04834,0.01611l-0.44118,-1.32353c-0.05362,-0.14914 -0.08284,-0.30992 -0.08284,-0.47752c0,-0.7794 0.63183,-1.41123 1.41123,-1.41123c0.59858,0 1.11012,0.37267 1.31525,0.89864l0.42125,1.01099c1.98346,1.13144 3.48457,2.55285 5.80465,3.09366c0.69969,0.1631 3.56225,0.43567 3.73051,0.60339c1.47562,1.47081 0.08263,4.80757 -0.64824,6.11996c-1.41752,1.57035 -1.92909,2.75047 -1.76499,4.93119c0.09078,1.2063 0.72831,2.96625 0.1546,4.08577c-0.13464,0.26273 -1.919,1.38948 -3.13632,2.12428c-0.0964,0.15387 -0.21266,0.29256 -0.35542,0.40989c-0.51244,0.4212 -0.96889,0.59608 -1.39799,0.62706c-0.46689,0.27934 -0.94972,0.52183 -1.4652,0.47165c-0.74046,-0.07208 -1.20389,-0.87475 -1.81842,-1.29406c-0.04076,-0.02781 -0.08224,-0.05609 -0.12438,-0.08477c-1.09691,-0.1165 -2.30376,0.04444 -3.35661,0.11558c-0.81525,0.28981 -1.59224,0.71232 -2.28646,1.22874l-0.73534,0.75977c0,0 -0.99789,0.99789 -1.99578,0zM247.95763,177.25395c0.24555,-0.53781 0.25936,-1.17826 0.39461,-1.7606c0.04719,-0.20317 0.61711,-0.42523 0.41334,-0.46979c-0.23181,-0.05069 -0.38549,0.2971 -0.60358,0.38825c0.03912,0.5917 -0.10024,1.22948 -0.19863,1.80931c-0.00186,0.01095 -0.00377,0.02189 -0.00573,0.03283z" fill="#343434" stroke="none" stroke-width="0.5" stroke-linecap="butt"/><path d="M232.20224,176.20947c1.13595,1.43614 1.84403,3.20614 2.2338,5.09253c0.07484,0.3622 0.31637,2.01235 0.30795,2.9409c1.3081,-0.51429 4.02905,-0.51442 5.37092,-0.4502c0.51459,0.02463 1.06025,0.01657 1.54747,0.17377c-0.00489,-0.43275 0.08615,-0.87221 0.1689,-1.29738c0.0243,-0.12486 0.84724,-2.57257 0.92877,-2.81623c0.11145,-0.48395 0.14344,-0.9934 0.33435,-1.45186c0.09771,-0.23465 0.56192,-0.32109 0.50728,-0.56934c-0.04503,-0.20462 -0.43305,0.09592 -0.62824,0.01976c-0.49334,-0.1925 -0.91523,-0.53303 -1.37236,-0.80038c-1.60993,-0.94154 -2.78562,-1.95307 -3.88553,-3.2556c-1.3512,1.10494 -3.76658,1.73434 -4.90858,2.2103zM230.04748,174.25763c0.29064,-0.40011 0.75436,-0.55468 0.75436,-0.55468l0.91958,-0.30256c1.01362,-0.42223 3.42767,-0.90402 4.21198,-1.90211v-1.08536c0,-0.7794 0.63183,-1.41123 1.41123,-1.41123c0.59858,0 1.11012,0.37267 1.31525,0.89864l0.50366,1.20878c1.13756,1.53858 2.19805,2.53735 3.8597,3.50396c0.60046,0.3493 3.01307,1.69433 3.19273,2.15474c0.11504,0.29481 -0.59322,3.21932 -0.73895,3.84952c-0.46515,1.40041 -0.61495,2.67771 -0.97135,4.05807c-0.23766,0.92047 -0.16423,2.18254 -0.97405,2.68047c-0.71171,0.4376 -1.62014,-0.4109 -2.43776,-0.58267c-0.86111,-0.18091 -1.76145,-0.1102 -2.63927,-0.04955c-1.05673,0.07301 -2.11156,0.17731 -3.16302,0.30557c-0.94503,0.11527 -2.04394,0.86189 -2.83645,0.33436c-0.82646,-0.55012 -0.51616,-3.008 -0.58297,-3.98675c-0.17444,-2.55556 -1.1858,-5.64605 -3.55778,-6.87035c0,0 -1.23891,-0.67577 -0.56314,-1.91469c0.67577,-1.23891 1.91468,-0.56314 1.91468,-0.56314c0.1301,0.07361 0.25728,0.14997 0.38157,0.22898z" fill="#494949" stroke="none" stroke-width="0.5" stroke-linecap="butt"/><path d="M310.14119,159.12342l2.7187,-6.45691l8.60921,-6.34363l1.01951,0.11328l-2.49214,5.21084l-0.33983,7.47642l6.91002,-0.33984l4.53116,1.24607l7.36315,5.55068l-10.42168,0.45312l-3.51165,2.1523l-0.22656,1.92574l2.26558,5.32412l-0.33983,7.81626l-3.96477,5.77723l-1.35935,-7.81626l-4.30461,-5.32412l-2.1523,-0.11328l-4.19133,3.17182l-4.19133,0.67968l-9.40217,-1.01952l8.83577,-4.75772l1.47263,-2.7187l0.45312,-1.24607l-5.89052,-4.98428l-3.62493,-8.26937l0.33984,-4.64444l7.70298,7.47642z" fill="url(#color-6)" stroke="#e60096" stroke-width="2" stroke-linecap="round"/><path d="M302.94119,165.92342l2.7187,-6.45691l8.60922,-6.34363l1.01951,0.11328l-2.49214,5.21084l-0.33983,7.47642l6.91002,-0.33984l4.53117,1.24607l7.36314,5.55068l-10.42168,0.45312l-3.51166,2.1523l-0.22656,1.92574l2.26558,5.32412l-0.33983,7.81626l-3.96477,5.77723l-1.35935,-7.81626l-4.30461,-5.32412l-2.1523,-0.11328l-4.19133,3.17182l-4.19133,0.67968l-9.40217,-1.01952l8.83577,-4.75772l1.47263,-2.7187l0.45312,-1.24607l-5.89052,-4.98428l-3.62493,-8.26937l0.33984,-4.64444l7.70298,7.47642z" fill="url(#color-7)" stroke="#e60096" stroke-width="2" stroke-linecap="round"/><path d="M297.54119,170.12342l2.7187,-6.45691l8.60921,-6.34363l1.01951,0.11328l-2.49214,5.21084l-0.33984,7.47642l6.91003,-0.33984l4.53117,1.24607l7.36314,5.55068l-10.42168,0.45312l-3.51165,2.1523l-0.22656,1.92575l2.26558,5.32412l-0.33984,7.81626l-3.96477,5.77724l-1.35935,-7.81626l-4.30461,-5.32412l-2.1523,-0.11328l-4.19133,3.17182l-4.19133,0.67967l-9.40217,-1.01951l8.83577,-4.75772l1.47263,-2.7187l0.45312,-1.24607l-5.89051,-4.98428l-3.62493,-8.26938l0.33984,-4.64444l7.70298,7.47642z" fill="url(#color-8)" stroke="#e60096" stroke-width="2" stroke-linecap="round"/><path d="M302.82457,166.00888c-0.08799,0.04823 -0.18706,0.09156 -0.2985,0.1287c-1.33881,0.44627 -1.78508,-0.89254 -1.78508,-0.89254l-0.51153,-1.98837c0.92968,-1.56295 2.1131,-3.62044 4.11425,-4.10221c0.01514,-0.00364 0.03029,-0.00723 0.04544,-0.01075l-0.00511,-0.01023l1.55519,-0.77759c0.19611,-0.10325 0.41949,-0.16168 0.65652,-0.16168c0.7794,0 1.41123,0.63183 1.41123,1.41123c0,0.44452 -0.20552,0.84103 -0.52672,1.09971l-1.14593,0.93758c-0.92685,1.16877 -1.26507,1.92929 -1.64905,3.40676c0,0 -0.36362,1.36358 -1.7272,0.99996c-0.04648,-0.01239 -0.09095,-0.02595 -0.13349,-0.04058z" fill="#6e6e6e" stroke="none" stroke-width="0.5" stroke-linecap="butt"/><path d="M312.86161,171.34688c0,-1.41123 1.41123,-1.41123 1.41123,-1.41123h0.56449c2.147,0.00426 5.51822,0.18165 7.20993,1.74539c0.02925,0.02703 0.05815,0.05437 0.08674,0.082l0.01458,-0.02267l1.56093,1.00345c0.40085,0.24894 0.66775,0.69316 0.66775,1.19973c0,0.7794 -0.63183,1.41123 -1.41123,1.41123c-0.1676,0 -0.32838,-0.02922 -0.47752,-0.08284l-1.30252,-0.43417c-1.5315,-0.44424 -2.71835,-0.50009 -4.31648,-0.49908c0,0 -1.41123,0 -1.41123,-1.41123c0,-0.06111 0.00265,-0.11958 0.00771,-0.17552c-0.20804,0.00232 -0.41735,0.0057 -0.62865,0.00618h-0.56449c0,0 -1.41123,0 -1.41123,-1.41123z" fill="#6e6e6e" stroke="none" stroke-width="0.5" stroke-linecap="butt"/><path d="M311.14259,188.37194c0.01089,-0.18323 0.06331,-0.38607 0.17453,-0.6085c0.63112,-1.26225 1.89337,-0.63112 1.89337,-0.63112l1.45334,1.49271c0.09331,1.369 0.20454,3.92254 -0.65098,5.12181c-0.03684,0.05164 -0.0747,0.1024 -0.1135,0.15234l0.03546,0.01909l-0.77654,1.44216c-0.23396,0.45581 -0.70871,0.76769 -1.25629,0.76769c-0.7794,0 -1.41123,-0.63183 -1.41123,-1.41123v-1.46768c0.00738,-1.06131 -0.14561,-2.12956 -0.40946,-3.15758c0,0 -0.34227,-1.3691 1.02682,-1.71137c0.01157,-0.00289 0.02306,-0.00566 0.03448,-0.00831z" fill="#6e6e6e" stroke="none" stroke-width="0.5" stroke-linecap="butt"/><path d="M295.58814,187.83007c1.12899,0.84674 0.28225,1.97572 0.28225,1.97572l-1.52961,1.44027c-2.93436,0.57565 -6.32741,0.76151 -9.19043,-0.15791c0,0 -1.33881,-0.44627 -0.89254,-1.78508c0.44627,-1.33881 1.78508,-0.89254 1.78508,-0.89254c2.32889,0.81573 5.34835,0.55787 7.74435,0.06789l-0.17483,-0.3661c0,0 0.84674,-1.12899 1.97572,-0.28225z" fill="#6e6e6e" stroke="none" stroke-width="0.5" stroke-linecap="butt"/><path d="M287.24504,167.71971c0.15517,0.07906 0.24925,0.15432 0.24925,0.15432l0.62697,0.50462c1.5463,1.41234 5.99498,7.38324 0.10458,7.16833c-0.8342,-0.03044 -1.1596,-1.20502 -1.67475,-1.86186c-1.76766,-2.25383 -2.04313,-5.27075 -2.46219,-7.99437c0,0 -0.21459,-1.39482 1.18023,-1.60941c1.39482,-0.21459 1.60941,1.18023 1.60941,1.18023c0.12473,0.8108 0.22699,1.63816 0.3665,2.45814z" fill="#6e6e6e" stroke="none" stroke-width="0.5" stroke-linecap="butt"/><path d="M291.80629,171.64073c-1.08414,0.90345 -1.98759,-0.18069 -1.98759,-0.18069l-0.47825,-0.58295c-1.8994,-1.8994 -3.94808,-3.50683 -4.85686,-6.08365c0,0 -0.44627,-1.33881 0.89254,-1.78508c1.33881,-0.44627 1.78508,0.89254 1.78508,0.89254c0.62475,2.05082 2.68037,3.48575 4.17502,4.98041l0.65074,0.77183c0,0 0.90345,1.08414 -0.18069,1.98759z" fill="#9b9b9b" stroke="none" stroke-width="0.5" stroke-linecap="butt"/><path d="M310.02793,157.80654c0.78281,1.17422 -0.39141,1.95703 -0.39141,1.95703l-0.31889,0.10743c-1.27415,1.73954 -1.97617,3.71878 -3.10059,5.5545c0,0 -0.73962,1.20189 -1.94151,0.46226c-1.20189,-0.73962 -0.46226,-1.94151 -0.46226,-1.94151c1.1722,-1.89486 1.90851,-3.91857 3.22173,-5.73535l1.03589,-0.79576c0,0 1.17422,-0.78281 1.95703,0.39141z" fill="#9b9b9b" stroke="none" stroke-width="0.5" stroke-linecap="butt"/><path d="M325.84495,175.41123c0,1.41123 -1.41123,1.41123 -1.41123,1.41123h-1.24188c-2.02893,-0.00138 -4.07845,0.06455 -6.10118,0.22164c0,0 -1.40707,0.10824 -1.51531,-1.29884c-0.10824,-1.40707 1.29884,-1.51531 1.29884,-1.51531c2.09591,-0.15979 4.2156,-0.22862 6.31766,-0.22995h1.24188c0,0 1.41123,0 1.41123,1.41123z" fill="#9b9b9b" stroke="none" stroke-width="0.5" stroke-linecap="butt"/><path d="M309.24886,198.78123c0,-0.28553 0.05777,-0.51328 0.14993,-0.69496c0.09414,-2.40301 -0.385,-3.92802 -1.74696,-6.12962c0,0 -0.73962,-1.20189 0.46226,-1.94151c1.20189,-0.73962 1.94151,0.46226 1.94151,0.46226c1.75143,2.85938 2.36144,5.06893 2.12503,8.40437l-1.52054,1.31068c0,0 -1.41123,0 -1.41123,-1.41123z" fill="#9b9b9b" stroke="none" stroke-width="0.5" stroke-linecap="butt"/><path d="M294.44793,185.80538c0.78281,1.17422 -0.39141,1.95703 -0.39141,1.95703l-0.67523,0.39039c-2.28091,0.76016 -4.09949,1.37213 -6.53813,1.19725c0,0 -1.40707,-0.10824 -1.29884,-1.51531c0.10824,-1.40707 1.51531,-1.29884 1.51531,-1.29884c2.04243,0.17025 3.51195,-0.42155 5.42912,-1.06072l0.00216,-0.0612c0,0 1.17422,-0.78281 1.95703,0.39141z" fill="#9b9b9b" stroke="none" stroke-width="0.5" stroke-linecap="butt"/><path d="M300.20032,177.03723c0.53437,0.26261 0.73453,0.86309 0.73453,0.86309c0.22276,0.78056 0.14156,1.19928 0.92522,1.58245c1.10832,0.54191 3.98218,0.5801 3.88929,-1.33056c-0.09017,-1.85481 -3.98074,-3.31435 -5.26833,-2.08178c-0.29003,0.27763 -0.32035,0.61972 -0.28071,0.96681zM298.58951,179.77251c-0.16377,-0.1396 -0.25474,-0.26696 -0.25474,-0.26696l-0.8232,-1.50232c-0.08206,-1.67064 -0.43071,-2.50535 0.97368,-3.92859c3.01892,-3.05944 9.9464,-0.22167 10.08588,4.01474c0.13504,4.10148 -5.0697,5.56629 -8.07796,3.86278c-1.34179,-0.75983 -1.58936,-1.24671 -1.90365,-2.17965z" fill="url(#color-9)" stroke="none" stroke-width="0.5" stroke-linecap="butt"/><path d="M300.45746,176.0549c1.28759,-1.23256 5.2296,0.24694 5.31977,2.10175c0.09289,1.91066 -2.82381,1.89197 -3.93213,1.35005c-0.78366,-0.38317 -0.71559,-0.82318 -0.93836,-1.60374c0,0 -0.19949,-0.60977 -0.73385,-0.87238c-0.03964,-0.34709 -0.00546,-0.69804 0.28456,-0.97567z" data-paper-data="{&quot;noHover&quot;:false,&quot;origItem&quot;:[&quot;Path&quot;,{&quot;applyMatrix&quot;:true,&quot;segments&quot;:[[[463.13296,354.19388],[-0.14044,-1.22974],[1.89326,0.93043]],[[465.73539,357.2518],[0,0],[0.78925,2.76554]],[[469.01345,362.85842],[-2.7765,-1.35757],[3.92677,1.92]],[[482.79321,358.14425],[0.32911,6.76948],[-0.31949,-6.5716]],[[464.12751,350.76848],[4.56192,-4.36697],[-1.02756,0.98365]]],&quot;closed&quot;:true}]}" fill="url(#color-10)" stroke="none" stroke-width="0.5" stroke-linecap="butt"/><path d="M291.42795,170.61158c0.40356,-0.56303 1.16837,-0.56303 1.16837,-0.56303h0.67739c1.74004,0.00829 3.22748,0.03879 4.25551,-1.53232c0.46949,-0.71752 1.73405,-3.27927 2.34234,-3.37679c3.24827,-0.52072 3.40982,2.30263 2.67678,4.13578c-0.38137,0.95371 -2.16007,2.06596 -2.99532,2.59142c-2.81078,1.76829 -5.29317,2.74396 -8.51557,1.46032c0,0 -1.30268,-0.54278 -0.75989,-1.84546c0.27696,-0.6647 0.75176,-0.84891 1.15039,-0.86992z" fill="#343434" stroke="none" stroke-width="0.5" stroke-linecap="butt"/><path d="M296.79176,191.19883c-0.40076,-0.40076 -0.47962,-0.80152 -0.4305,-1.13764c-0.28637,-0.00892 -0.60533,-0.12398 -0.92428,-0.44293c-0.55889,-0.55889 -0.49174,-1.11778 -0.3245,-1.50136c-1.19556,0.07581 -1.42086,-1.16336 -1.42086,-1.16336l-0.10364,-0.5739c-0.47988,-0.41339 -0.86555,-1.01869 -1.18023,-1.54383c-0.5182,-0.86476 -0.03966,-2.04758 -0.36257,-3.0026c-0.64498,-1.90756 -1.87099,-3.26435 -3.33352,-4.58746c0,0 -1.04423,-0.9493 -0.09493,-1.99352c0.29015,-0.31916 0.58916,-0.45209 0.86452,-0.48282c0.01236,-0.11466 0.03897,-0.2375 0.08278,-0.36894c0.44627,-1.33881 1.78508,-0.89254 1.78508,-0.89254l0.64614,0.21578c3.55963,1.14135 5.71735,3.70111 5.85082,7.54942c0.04371,1.26028 -0.22817,3.76177 -1.41895,4.94932l0.04143,0.22618c0,0 0.01025,0.05637 0.01526,0.14845c1.60269,-1.50707 3.36104,-2.73339 5.80732,-2.17267c0.10019,0.02297 2.98291,1.42878 3.30644,1.61311c0.21985,0.12525 0.44459,0.24604 0.66337,0.37535c0.06492,0.01266 0.12956,0.02618 0.19389,0.04059c0.47689,0.10684 0.91129,0.35383 1.36118,0.54472c0.029,0.01231 0.06006,0.03482 0.09162,0.06091c0.13498,-0.12057 0.27841,-0.24054 0.42798,-0.35792c0.02795,-0.49765 -0.21339,-1.06909 -0.21574,-1.58066c-0.00779,-1.69422 -0.21152,-3.5905 0.14308,-5.25781c0.11158,-0.52463 1.1197,-3.08179 1.33556,-3.56191c0.17749,-0.39478 0.40219,-0.76659 0.60372,-1.14965c0.08599,-0.16344 0.3874,-0.35725 0.25886,-0.48986c-0.19758,-0.20383 -0.57566,-0.02112 -0.84398,-0.11378c-0.52708,-0.18202 -1.02516,-0.44201 -1.51843,-0.70206c-1.43123,-0.75451 -4.18514,-2.47 -4.46414,-4.3623c-0.00933,-0.06325 -0.01685,-0.12654 -0.02274,-0.18987l-0.04834,0.01611l-0.44118,-1.32353c-0.05362,-0.14914 -0.08284,-0.30992 -0.08284,-0.47752c0,-0.7794 0.63183,-1.41123 1.41123,-1.41123c0.59858,0 1.11012,0.37267 1.31525,0.89864l0.42125,1.01099c1.98346,1.13144 3.48457,2.55285 5.80465,3.09366c0.69969,0.1631 3.56225,0.43567 3.73051,0.60339c1.47562,1.47081 0.08263,4.80757 -0.64824,6.11996c-1.41752,1.57035 -1.92909,2.75047 -1.76499,4.93119c0.09078,1.2063 0.72831,2.96625 0.1546,4.08577c-0.13464,0.26273 -1.919,1.38948 -3.13632,2.12428c-0.0964,0.15387 -0.21266,0.29256 -0.35542,0.40989c-0.51244,0.4212 -0.96889,0.59608 -1.39799,0.62706c-0.46689,0.27934 -0.94972,0.52183 -1.4652,0.47165c-0.74046,-0.07208 -1.20389,-0.87475 -1.81842,-1.29406c-0.04076,-0.02781 -0.08224,-0.05609 -0.12438,-0.08477c-1.09691,-0.1165 -2.30376,0.04444 -3.35661,0.11558c-0.81525,0.28981 -1.59224,0.71232 -2.28646,1.22874l-0.73534,0.75977c0,0 -0.99789,0.99789 -1.99578,0zM312.9186,175.92994c0.24555,-0.53781 0.25936,-1.17826 0.39461,-1.7606c0.04719,-0.20317 0.61711,-0.42523 0.41334,-0.46979c-0.23181,-0.05069 -0.38549,0.2971 -0.60358,0.38825c0.03912,0.5917 -0.10024,1.22948 -0.19863,1.80931c-0.00186,0.01095 -0.00377,0.02189 -0.00573,0.03283z" fill="#343434" stroke="none" stroke-width="0.5" stroke-linecap="butt"/><path d="M297.16321,174.88546c1.13595,1.43614 1.84403,3.20614 2.2338,5.09253c0.07484,0.3622 0.31637,2.01235 0.30795,2.9409c1.3081,-0.51429 4.02905,-0.51442 5.37092,-0.4502c0.51459,0.02463 1.06025,0.01657 1.54747,0.17377c-0.00489,-0.43275 0.08615,-0.87221 0.1689,-1.29738c0.0243,-0.12486 0.84724,-2.57257 0.92877,-2.81623c0.11145,-0.48395 0.14344,-0.9934 0.33435,-1.45186c0.09771,-0.23465 0.56192,-0.32109 0.50728,-0.56934c-0.04503,-0.20462 -0.43305,0.09592 -0.62824,0.01976c-0.49334,-0.1925 -0.91523,-0.53303 -1.37236,-0.80038c-1.60993,-0.94154 -2.78562,-1.95307 -3.88553,-3.2556c-1.3512,1.10494 -3.76658,1.73434 -4.90858,2.2103zM295.00845,172.93362c0.29064,-0.40011 0.75436,-0.55468 0.75436,-0.55468l0.91958,-0.30256c1.01362,-0.42223 3.42767,-0.90402 4.21198,-1.90211v-1.08536c0,-0.7794 0.63183,-1.41123 1.41123,-1.41123c0.59858,0 1.11012,0.37267 1.31525,0.89864l0.50366,1.20878c1.13756,1.53858 2.19805,2.53735 3.8597,3.50396c0.60046,0.3493 3.01307,1.69433 3.19273,2.15474c0.11504,0.29481 -0.59322,3.21932 -0.73895,3.84952c-0.46515,1.40041 -0.61495,2.67771 -0.97135,4.05807c-0.23766,0.92047 -0.16423,2.18254 -0.97405,2.68047c-0.71171,0.4376 -1.62014,-0.4109 -2.43776,-0.58267c-0.86111,-0.18091 -1.76145,-0.1102 -2.63927,-0.04955c-1.05673,0.07301 -2.11156,0.17731 -3.16302,0.30557c-0.94503,0.11527 -2.04394,0.86189 -2.83645,0.33436c-0.82646,-0.55012 -0.51616,-3.008 -0.58297,-3.98675c-0.17444,-2.55556 -1.1858,-5.64605 -3.55778,-6.87035c0,0 -1.23891,-0.67577 -0.56314,-1.91469c0.67577,-1.23891 1.91468,-0.56314 1.91468,-0.56314c0.1301,0.07361 0.25728,0.14997 0.38157,0.22898z" fill="#494949" stroke="none" stroke-width="0.5" stroke-linecap="butt"/></g></g></svg>