<svg version="1.1" xmlns="http://www.w3.org/2000/svg" xmlns:xlink="http://www.w3.org/1999/xlink" width="578.86801" height="584.57656" viewBox="0,0,578.86801,584.57656"><defs><radialGradient cx="257.23337" cy="184.81311" r="246.16506" gradientUnits="userSpaceOnUse" id="color-1"><stop offset="0" stop-color="#18be54"/><stop offset="1" stop-color="#108e3f"/></radialGradient><linearGradient x1="230.8255" y1="-10.88435" x2="328.19287" y2="-10.88435" gradientUnits="userSpaceOnUse" id="color-2"><stop offset="0" stop-color="#9c9c9c"/><stop offset="1" stop-color="#535353"/></linearGradient><linearGradient x1="153.22296" y1="24.48681" x2="250.59028" y2="24.48681" gradientUnits="userSpaceOnUse" id="color-3"><stop offset="0" stop-color="#484848"/><stop offset="1" stop-color="#9c9c9c"/></linearGradient><linearGradient x1="274.34437" y1="87.66142" x2="258.12206" y2="-8.34504" gradientUnits="userSpaceOnUse" id="color-4"><stop offset="0" stop-color="#484848"/><stop offset="1" stop-color="#9c9c9c"/></linearGradient><linearGradient x1="185.53129" y1="-62.3673" x2="259.54805" y2="0.89337" gradientUnits="userSpaceOnUse" id="color-5"><stop offset="0" stop-color="#484848"/><stop offset="1" stop-color="#9c9c9c"/></linearGradient></defs><g transform="translate(49.434,112.28828)"><g data-paper-data="{&quot;isPaintingLayer&quot;:true}" fill-rule="nonzero" stroke-linejoin="miter" stroke-miterlimit="10" stroke-dasharray="" stroke-dashoffset="0" style="mix-blend-mode: normal"><path d="M447.06556,95.25608c0,57.83209 -66.457,220.92458 -101.50711,259.03515c-34.82569,37.86654 21.43056,40.75115 -41.71063,40.75115c-35.70778,0 -79.8151,29.04305 -107.31801,14.13534c-70.07587,-37.984 -158.4844,-244.47452 -158.4844,-327.27246c0,-49.22325 12.08925,-114.87322 38.58616,-147.52116c35.56587,-43.82215 95.14363,-46.67237 167.74448,-46.67237c61.46599,0 115.17623,14.04205 152.98205,51.88899c12.10344,12.11657 18.2195,37.56616 28.10913,51.59834c22.88949,32.47744 21.59836,62.60859 21.59836,104.05701z" data-paper-data="{&quot;index&quot;:null}" fill="#36f4c5" stroke="none" stroke-width="0.5" stroke-linecap="butt"/><path d="M361.86458,311.30743l24.93961,132.69509l-110.98117,-68.89939l82.30064,-79.10668z" data-paper-data="{&quot;index&quot;:null}" fill="#cd5a1d" stroke="#cd5a1d" stroke-width="0" stroke-linecap="round"/><path d="M122.77253,293.06994l82.30063,79.10668l-110.98117,68.89939l24.93959,-132.6951z" data-paper-data="{&quot;index&quot;:null}" fill="#cd5a1d" stroke="#cd5a1d" stroke-width="0" stroke-linecap="round"/><path d="M398.32352,240.74367c-4.396,-2.24448 -8.61439,-5.2829 -13.00119,-7.90867c-11.2858,-0.50283 -19.53323,-5.81378 -26.49267,-14.9585c-1.79737,-2.17038 -4.85108,-3.72074 -5.39212,-6.51114c-0.75619,-3.90016 0.43171,-8.07459 1.84606,-11.77804c0.78395,-2.05277 3.33024,-2.90317 4.47394,-4.77075c1.20612,-1.96946 1.42492,-4.43054 2.43569,-6.51192c4.54188,-9.35272 10.83913,-17.86088 15.3861,-27.19265c6.49743,-13.33468 10.47859,-26.62108 15.08727,-40.77097c2.52893,-7.76458 3.99095,-26.0589 14.98275,-26.98931c3.78402,-0.32029 6.78654,3.54054 9.90132,5.76233c8.29038,5.91365 15.73571,12.70247 24.59933,18.15313c7.84391,5.99997 16.06572,11.42498 23.97122,17.31256c23.2269,17.29817 48.86556,41.99294 58.07528,70.24562c5.83512,17.90036 5.1856,39.19817 -8.42649,53.43949c-11.41347,10.92664 -25.24018,7.2789 -39.58263,6.05573c-20.88097,-1.7808 -42.49946,-9.31291 -61.99489,-17.62098c-5.20123,-2.21652 -10.82751,-3.38191 -15.86901,-5.95596z" data-paper-data="{&quot;index&quot;:null}" fill="#cd5a1d" stroke="#36f4c5" stroke-width="3.5" stroke-linecap="butt"/><path d="M94.6777,229.62895c-4.3868,2.62576 -8.60522,5.66416 -13.00119,7.90862c-5.04151,2.57405 -10.66778,3.73946 -15.86901,5.95598c-19.49543,8.30808 -41.11394,15.84018 -61.99489,17.62098c-14.34242,1.22317 -28.16913,4.87088 -39.5826,-6.05576c-13.61214,-14.24132 -14.26161,-35.5391 -8.42648,-53.43948c9.20972,-28.25268 34.84835,-52.94746 58.07525,-70.24563c7.90545,-5.88756 16.1273,-11.3126 23.97122,-17.31256c8.86366,-5.45065 16.30897,-12.23949 24.59935,-18.1531c3.11479,-2.22179 6.11728,-6.08262 9.90132,-5.76233c10.99175,0.93041 12.45382,19.22473 14.98275,26.98931c4.60868,14.14992 8.58984,27.43631 15.08727,40.77099c4.54698,9.33177 10.84422,17.83994 15.38608,27.19266c1.01079,2.0814 1.22956,4.54245 2.43568,6.51191c1.14373,1.86758 3.69,2.71797 4.47397,4.77075c1.41438,3.70348 2.60222,7.87786 1.84603,11.77802c-0.54101,2.7904 -3.59474,4.34076 -5.39209,6.51114c-6.95944,9.14471 -15.20689,14.45569 -26.49267,14.9585z" data-paper-data="{&quot;index&quot;:null}" fill="#cd5a1d" stroke="#36f4c5" stroke-width="3.5" stroke-linecap="butt"/><path d="M435.58954,115.55716c0,41.35784 -29.33622,91.91659 -47.21316,125.84786c-36.95975,70.15145 -72.68137,153.95022 -151.65025,153.95022c-82.29891,0 -106.01702,-89.36521 -140.76489,-164.37218c-14.72102,-31.77688 -45.02412,-96.27926 -45.02412,-134.0314c0,-126.86332 71.49079,-193.92653 188.65585,-193.92653c117.16503,0 195.99654,85.66873 195.99654,212.53202z" data-paper-data="{&quot;index&quot;:null}" fill="url(#color-1)" stroke="none" stroke-width="0" stroke-linecap="butt"/><path d="M417.42191,49.95969c-20.71819,40.36323 -108.03567,89.65421 -181.47394,89.65421c-62.97522,0 -149.81336,-52.29544 -177.17687,-83.88867c-11.90882,-13.74965 2.33485,-37.08747 2.33485,-53.69255c0,-54.75942 88.65567,-97.6135 179.03822,-97.6135c90.3826,0 173.44328,42.85408 173.44328,97.6135c0,10.26592 8.61473,38.61404 3.83447,47.92702z" data-paper-data="{&quot;index&quot;:null}" fill="#cc2826" stroke="none" stroke-width="0" stroke-linecap="butt"/><path d="M239.29803,84.83664c-78.40879,0 -141.9717,-36.95471 -141.9717,-82.5407c0,-45.58596 63.56291,-82.5407 141.9717,-82.5407c78.40879,0 141.97169,36.95471 141.97169,82.5407c0,45.58597 -63.5629,82.54071 -141.97169,82.54071z" data-paper-data="{&quot;index&quot;:null}" fill="#172820" stroke="none" stroke-width="0" stroke-linecap="butt"/><path d="M124.53325,157.95337c-26.79282,0 -48.5127,-24.91769 -48.5127,-55.65518c0,-30.73753 21.71986,-55.65518 48.5127,-55.65518c26.79283,0 48.5127,24.91769 48.5127,55.65518c0,30.73753 -21.71986,55.65518 -48.5127,55.65518z" data-paper-data="{&quot;index&quot;:null}" fill="#172921" stroke="none" stroke-width="0" stroke-linecap="butt"/><path d="M119.99063,147.7319c-19.74247,0 -35.7469,-21.04227 -35.7469,-46.99922c0,-25.95695 16.00443,-46.99921 35.7469,-46.99921c19.74247,0 35.7469,21.04226 35.7469,46.99922c0,25.95693 -16.00443,46.99922 -35.7469,46.99922z" data-paper-data="{&quot;index&quot;:null}" fill="#fff11c" stroke="none" stroke-width="0" stroke-linecap="butt"/><path d="M357.51039,162.66003c-26.79282,0 -48.51269,-24.91769 -48.51269,-55.65518c0,-30.73753 21.71986,-55.65517 48.51269,-55.65517c26.79284,0 48.5127,24.91769 48.5127,55.65518c0,30.73753 -21.71986,55.65518 -48.5127,55.65518z" data-paper-data="{&quot;index&quot;:null}" fill="#172921" stroke="none" stroke-width="0" stroke-linecap="butt"/><path d="M363.01305,152.72378c-19.74245,0 -35.74688,-21.04226 -35.74688,-46.99921c0,-25.95693 16.00441,-46.99922 35.74688,-46.99922c19.74247,0 35.7469,21.04227 35.7469,46.99922c0,25.95695 -16.00443,46.99921 -35.7469,46.99921z" data-paper-data="{&quot;index&quot;:null}" fill="#fff11c" stroke="none" stroke-width="0" stroke-linecap="butt"/><path d="M411.37039,-9.63441c0,9.55786 8.6147,35.95071 3.83444,44.62132c-6.64806,12.05845 -6.44322,-16.80834 -18.11185,-46.99899c-6.90997,-17.87842 -20.84056,-34.46723 -35.05397,-48.06643c-36.58411,-35.0032 -106.46856,-28.54485 -142.38704,-28.54485c-20.22852,0 -34.74874,4.15382 -50.65143,6.88192c-13.29987,2.28161 -28.09558,1.13057 -42.95647,18.96945c-6.53378,7.84309 -24.25779,14.42787 -31.41643,25.95129c-17.70008,28.49223 -30.08255,85.7654 -38.07364,77.17545c-11.90882,-12.8013 2.33485,-34.52939 2.33485,-49.98916c0,-50.98246 88.65566,-90.88071 179.03822,-90.88071c90.3826,0 173.44327,39.89827 173.44327,90.88071z" data-paper-data="{&quot;index&quot;:null}" fill="#7f1c24" stroke="none" stroke-width="0" stroke-linecap="butt"/><path d="M327.64564,-34.12377c3.99541,8.66432 -14.31712,26.09278 -40.90213,38.92757c-26.58504,12.83479 -51.37537,16.2156 -55.37078,7.55129c-3.99542,-8.66433 14.31709,-26.09278 40.90211,-38.92756c26.58504,-12.83478 51.37537,-16.21561 55.37079,-7.55131z" data-paper-data="{&quot;index&quot;:null}" fill="url(#color-2)" stroke="none" stroke-width="0" stroke-linecap="butt"/><path d="M250.0431,1.24738c3.99542,8.66433 -14.31712,26.09278 -40.90214,38.92757c-26.58504,12.83479 -51.37536,16.21562 -55.37078,7.55131c-3.99542,-8.66432 14.31709,-26.09278 40.90211,-38.92756c26.58504,-12.83478 51.37536,-16.21559 55.37078,-7.55129z" data-paper-data="{&quot;index&quot;:null}" fill="url(#color-3)" stroke="none" stroke-width="0" stroke-linecap="butt"/><path d="M116.79585,262.69712c3.09625,-2.69533 6.89214,-0.26457 6.89214,-0.26457c12.07078,7.75432 24.98435,10.67123 38.4767,15.29591c7.21363,2.47256 13.89019,5.5781 21.72575,6.06112c3.41363,0.21043 6.86801,-0.37562 10.26185,0.03477c8.68693,1.05042 17.24048,4.5685 26.11316,5.11552c4.64693,0.28648 9.27963,-0.92335 13.93609,-0.92713c8.23846,-0.00674 16.03023,0.38504 24.1224,-0.92456c14.64438,-3.99849 29.4955,-2.65169 44.37334,-5.34413c14.09328,-2.55047 28.77033,-4.05414 42.72728,-7.35431c6.02373,-1.42435 11.31718,-4.59527 17.05691,-6.759l4.97868,-3.82578c0.99514,-0.77821 2.26491,-1.24474 3.64815,-1.24474c3.1935,0 5.78234,2.48668 5.78234,5.55417c0,0.7737 -0.16469,1.51048 -0.46226,2.17971l-2.15945,5.18567l-0.16351,-0.06283c-0.062,0.2667 -0.13147,0.53224 -0.20929,0.79647c-1.60708,5.45721 -9.30355,11.07477 -11.93323,16.58576c-4.00387,8.39089 -6.209,19.05454 -13.26395,25.90552c-8.10316,7.8689 -19.44994,11.70401 -30.01575,14.88151c-10.91726,3.28321 -21.06702,9.32943 -32.20047,12.0094c-7.34315,1.76758 -15.66607,2.33954 -23.16508,3.35599c-19.40142,0.0333 -38.93089,0.36558 -58.23235,-1.06055c-9.30897,-0.68782 -18.38932,-3.51762 -27.66919,-4.24704c-7.24918,-0.56982 -14.23761,-0.78342 -21.45135,-2.17769c-2.99192,-0.57826 -6.39365,-0.31511 -8.92819,-1.94805c-2.45771,-1.58346 -3.40634,-4.65091 -5.01629,-7.03606c-4.69882,-6.9613 -8.92023,-14.27806 -13.35957,-21.39531c-6.06831,-11.64148 -11.22074,-23.40357 -16.06639,-35.55904l-0.10433,-7.41349c0,0 0,-4.56306 4.30581,-5.41731z" data-paper-data="{&quot;index&quot;:null}" fill="#ca2826" stroke="none" stroke-width="0" stroke-linecap="butt"/><g data-paper-data="{&quot;index&quot;:null}" stroke-width="0" stroke-linecap="round"><path d="M224.41579,457.30888l-1.36065,-87.03228l17.59305,-25.84634l14.80523,25.83495l-0.86309,87.22916c0,0 -6.69833,14.84087 -14.35187,14.79379c-7.65354,-0.04703 -15.82265,-14.97931 -15.82265,-14.97931z" fill="#ca2826" stroke="#cd5a1d"/><path d="M223.83045,432.92736l0.19037,-68.41754l18.03701,-20.42522l14.33152,20.22368l-2.41561,68.58556l-12.8352,12.18289z" fill="#941e1c" stroke="#c82624"/></g><g data-paper-data="{&quot;index&quot;:null}" stroke-width="0" stroke-linecap="round"><path d="M223.3862,363.82031l-1.28221,-61.7866l16.57867,-18.34902l13.95161,18.34094l-0.81333,61.92636c0,0 -7.9937,10.35533 -14.22008,10.3265c-6.2264,-0.02884 -14.21471,-10.45819 -14.21471,-10.45819z" fill="#ca2826" stroke="#cd5a1d"/><path d="M222.8346,346.51123l0.17937,-48.57149l16.99707,-14.50043l13.50519,14.35735l-2.2763,48.69079l-12.09517,8.64895z" fill="#941e1c" stroke="#c82624"/></g><path d="M215.38432,299.11487l-2.01443,-87.03228c0,0 11.88607,-15.52647 26.04607,-15.52982c14.16,-0.00334 21.91878,15.51843 21.91878,15.51843l-1.27779,87.22917c0,0 -12.83011,15.43941 -22.17196,15.40064c-9.34186,-0.03881 -22.50069,-15.58615 -22.50069,-15.58615z" data-paper-data="{&quot;index&quot;:null}" fill="#ca2826" stroke="#cd5a1d" stroke-width="0" stroke-linecap="round"/><path d="M213.92463,278.37449l0.29226,-68.41756c0,0 13.58252,-13.08824 27.07403,-13.14298c13.4915,-0.05476 22.61561,12.94144 22.61561,12.94144l-3.70822,68.58557l-19.70359,12.18288z" data-paper-data="{&quot;index&quot;:null}" fill="#941e1c" stroke="#c82624" stroke-width="0" stroke-linecap="round"/><path d="M363.98229,154.73541c-20.1094,0 -36.41129,-21.6 -36.41129,-48.24496c0,-26.64495 16.30189,-48.24496 36.41129,-48.24496c20.1094,0 36.41129,21.60001 36.41129,48.24496c0,26.64496 -16.30189,48.24496 -36.41129,48.24496z" data-paper-data="{&quot;index&quot;:null}" fill="none" stroke="#a20f12" stroke-width="2.5" stroke-linecap="butt"/><path d="M83.61535,101.02874c0,-26.64495 16.30188,-48.24496 36.41129,-48.24496c20.1094,0 36.4113,21.60001 36.4113,48.24497c0,26.64496 -16.30189,48.24497 -36.4113,48.24497c-20.1094,0 -36.41129,-21.60001 -36.41129,-48.24497z" data-paper-data="{&quot;index&quot;:null}" fill="none" stroke="#a20f12" stroke-width="2.5" stroke-linecap="butt"/><path d="M92.71819,99.71641c0,-17.98537 11.00378,-32.56536 24.57762,-32.56536c13.57383,0 24.57762,14.58004 24.57762,32.56537c0,17.98537 -11.00379,32.56536 -24.57762,32.56536c-13.57384,0 -24.57762,-14.58003 -24.57762,-32.56536z" data-paper-data="{&quot;index&quot;:null}" fill="none" stroke="#a20f12" stroke-width="2.5" stroke-linecap="butt"/><path d="M342.74238,108.21239c0,-17.98537 11.00379,-32.56536 24.57762,-32.56536c13.57383,0 24.57762,14.58004 24.57762,32.56537c0,17.98537 -11.00379,32.56537 -24.57762,32.56537c-13.57383,0 -24.57762,-14.58004 -24.57762,-32.56536z" data-paper-data="{&quot;index&quot;:null}" fill="none" stroke="#a20f12" stroke-width="2.5" stroke-linecap="butt"/><path d="M354.27258,108.81925c0,-10.6119 6.49257,-19.21454 14.50156,-19.21454c8.00898,0 14.50156,8.60265 14.50156,19.21455c0,10.6119 -6.49258,19.21455 -14.50156,19.21455c-8.00898,0 -14.50156,-8.60265 -14.50156,-19.21454z" data-paper-data="{&quot;index&quot;:null}" fill="none" stroke="#a20f12" stroke-width="2.5" stroke-linecap="butt"/><path d="M101.21412,99.10957c0,-10.6119 6.49258,-19.21455 14.50156,-19.21455c8.00899,0 14.50156,8.60265 14.50156,19.21455c0,10.6119 -6.49257,19.21455 -14.50156,19.21455c-8.00898,0 -14.50156,-8.60265 -14.50156,-19.21454z" data-paper-data="{&quot;index&quot;:null}" fill="none" stroke="#a20f12" stroke-width="2.5" stroke-linecap="butt"/><path d="M235.29865,-3.93358c7.87754,-5.38308 28.11341,9.76971 45.19813,33.84476c17.08472,24.07505 24.54856,47.95561 16.67102,53.33873c-7.87754,5.38311 -28.11341,-9.76968 -45.19813,-33.84473c-17.08471,-24.07505 -24.54859,-47.95561 -16.67104,-53.33872z" data-paper-data="{&quot;index&quot;:null}" fill="url(#color-4)" stroke="none" stroke-width="0" stroke-linecap="butt"/><path d="M238.23184,-37.96259c11.87053,27.02938 14.46789,52.176 5.80134,56.16658c-8.66655,3.99058 -25.31511,-14.686 -37.18563,-41.71537c-11.87052,-27.02935 -14.46789,-52.17597 -5.80134,-56.16655c8.66653,-3.99058 25.31509,14.686 37.18561,41.71537z" data-paper-data="{&quot;index&quot;:null}" fill="url(#color-5)" stroke="none" stroke-width="0" stroke-linecap="butt"/><path d="M203.63429,7.24113c0,-18.87864 15.46413,-34.18279 34.54007,-34.18279c19.07594,0 34.54005,15.30417 34.54005,34.18279c0,18.87864 -15.46411,34.18279 -34.54005,34.18279c-19.07594,0 -34.54007,-15.30416 -34.54007,-34.18279z" data-paper-data="{&quot;index&quot;:null}" fill="#9c9c9c" stroke="none" stroke-width="0" stroke-linecap="butt"/><path d="M232.09802,7.2845l-0.9655,-0.03624c-2.07402,-0.60308 -2.87176,0.61782 -3.2712,2.60816c1.35242,5.25955 8.1559,5.42045 9.18263,-0.24997c0.85718,-4.73402 -1.2808,-8.89694 -5.50915,-10.66642c-10.06229,0.13062 -13.89611,17.06076 -4.71232,21.62841c4.869,2.0691 13.27701,2.13036 17.70803,-1.1898c0.85638,-0.64173 0.76339,-3.21912 0.9195,-4.17752c0.65843,-4.0422 1.73517,-8.14194 1.72951,-12.2513c0.0518,-9.24176 -10.68779,-18.71628 -19.56977,-12.47443c-9.28978,4.64258 -15.19098,17.013 -10.328,26.96463c2.81149,11.28413 10.8752,15.77378 22.36965,12.75702c12.68007,-2.16238 20.6402,-13.83606 19.08867,-26.94406c-4.54434,-11.83529 -8.29957,-18.62104 -21.33636,-21.28889c-10.29924,0.0491 -16.70504,1.68206 -22.99678,10.27043c0,0 -0.7117,0.97098 -1.66065,0.24275c-0.94895,-0.72823 -0.23725,-1.6992 -0.23725,-1.6992c6.78208,-9.24731 14.04116,-11.27402 25.12845,-11.22955c9.86797,2.0194 18.0577,6.96516 22.00806,17.0851c0.78003,1.99827 0.60611,4.04174 1.39173,6.01313c1.80345,14.38733 -6.86343,27.53273 -20.90275,29.92691c-12.42167,3.10583 -22.08257,-1.73491 -25.07777,-14.29138c-5.40958,-11.07026 1.21888,-24.61297 11.36226,-29.90632c10.56984,-7.03656 23.08019,3.41179 23.13291,14.57394c-0.00475,3.79349 -0.5051,15.56569 -3.45136,18.24861c-4.75942,4.334 -14.78025,3.76024 -20.24993,1.5844c-11.53424,-6.02158 -6.76759,-26.32221 6.13279,-26.22645c2.33014,0.93972 4.49485,2.13761 5.86838,4.36824c6.79379,11.03304 -9.13216,22.56547 -12.36219,8.98955c0.68865,-3.57627 2.37112,-5.91754 6.21831,-5.02087l0.39011,-0.03624c0,0 1.18617,0 1.18617,1.2137c0,1.21371 -1.18617,1.21371 -1.18617,1.21371z" data-paper-data="{&quot;index&quot;:null}" fill="#358154" stroke="none" stroke-width="0.5" stroke-linecap="butt"/><g data-paper-data="{&quot;index&quot;:null}" stroke-width="0.5" stroke-linecap="round"><path d="M159.53049,350.95944l8.72085,-93.74917l27.25267,50.14493z" fill="#af3883" stroke="#af3883"/><path d="M158.48695,352.39169l-16.35158,-81.75802l25.07246,-11.99117z" fill="#d945a3" stroke="#d945a3"/></g><g data-paper-data="{&quot;index&quot;:null}" stroke-width="0.5" stroke-linecap="round"><path d="M132.82888,267.61806l8.72085,-93.74917l27.25266,50.1449z" fill="#af3883" stroke="#af3883"/><path d="M131.78534,269.05031l-16.3516,-81.75801l25.07246,-11.99118z" fill="#d945a3" stroke="#d945a3"/></g><g data-paper-data="{&quot;index&quot;:null}" stroke-width="0.5" stroke-linecap="round"><path d="M295.87188,312.21001l27.25266,-50.1449l8.72087,93.74917z" fill="#af3883" stroke="#af3883"/><path d="M324.16811,263.49736l25.07245,11.99118l-16.35161,81.75799z" fill="#d945a3" stroke="#d945a3"/></g><g data-paper-data="{&quot;index&quot;:null}" stroke-width="0.5" stroke-linecap="round"><path d="M319.33695,230.48688l27.25266,-50.14491l8.72088,93.74917z" fill="#af3883" stroke="#af3883"/><path d="M347.63316,181.77425l25.07245,11.99118l-16.35158,81.75799z" fill="#d945a3" stroke="#d945a3"/></g></g></g></svg>