<svg version="1.1" xmlns="http://www.w3.org/2000/svg" xmlns:xlink="http://www.w3.org/1999/xlink" width="400.10594" height="604.53583" viewBox="0,0,400.10594,604.53583"><defs><linearGradient x1="284.63869" y1="235.82731" x2="440.05297" y2="235.82731" gradientUnits="userSpaceOnUse" id="color-1"><stop offset="0" stop-color="#feca47"/><stop offset="1" stop-color="#feca47" stop-opacity="0"/></linearGradient><linearGradient x1="281.59359" y1="137.96971" x2="437.00787" y2="137.96971" gradientUnits="userSpaceOnUse" id="color-2"><stop offset="0" stop-color="#feca47"/><stop offset="1" stop-color="#feca47" stop-opacity="0"/></linearGradient><linearGradient x1="241.57536" y1="99.70676" x2="241.57536" y2="115.00071" gradientUnits="userSpaceOnUse" id="color-3"><stop offset="0" stop-color="#1f1f1f"/><stop offset="1" stop-color="#5a5a5a"/></linearGradient><linearGradient x1="243.69952" y1="150.26176" x2="243.69952" y2="165.55571" gradientUnits="userSpaceOnUse" id="color-4"><stop offset="0" stop-color="#5a5a5a"/><stop offset="1" stop-color="#1f1f1f"/></linearGradient><linearGradient x1="241.57536" y1="261.99255" x2="241.57536" y2="246.69862" gradientUnits="userSpaceOnUse" id="color-5"><stop offset="0" stop-color="#1f1f1f"/><stop offset="1" stop-color="#5a5a5a"/></linearGradient><linearGradient x1="243.69952" y1="211.43757" x2="243.69952" y2="196.14362" gradientUnits="userSpaceOnUse" id="color-6"><stop offset="0" stop-color="#5a5a5a"/><stop offset="1" stop-color="#1f1f1f"/></linearGradient><radialGradient cx="58.02948" cy="90.58596" r="10.72879" gradientUnits="userSpaceOnUse" id="color-7"><stop offset="0" stop-color="#eb28a3"/><stop offset="1" stop-color="#eb0095"/></radialGradient><radialGradient cx="56.96825" cy="90.90965" r="10.72877" gradientUnits="userSpaceOnUse" id="color-8"><stop offset="0" stop-color="#ffffff"/><stop offset="1" stop-color="#ffffff" stop-opacity="0"/></radialGradient><radialGradient cx="60.87285" cy="85.39924" r="5.46879" gradientUnits="userSpaceOnUse" id="color-9"><stop offset="0" stop-color="#ffffff"/><stop offset="1" stop-color="#ffffff" stop-opacity="0"/></radialGradient><radialGradient cx="69.36277" cy="94.46231" r="5.4688" gradientUnits="userSpaceOnUse" id="color-10"><stop offset="0" stop-color="#ffffff"/><stop offset="1" stop-color="#ffffff" stop-opacity="0"/></radialGradient><radialGradient cx="62.64158" cy="95.21758" r="5.46879" gradientUnits="userSpaceOnUse" id="color-11"><stop offset="0" stop-color="#ffffff"/><stop offset="1" stop-color="#ffffff" stop-opacity="0"/></radialGradient><radialGradient cx="58.3966" cy="90.87484" r="5.42842" gradientUnits="userSpaceOnUse" id="color-12"><stop offset="0" stop-color="#ffffff"/><stop offset="1" stop-color="#ffffff" stop-opacity="0"/></radialGradient><radialGradient cx="66.5332" cy="90.11959" r="6.56129" gradientUnits="userSpaceOnUse" id="color-13"><stop offset="0" stop-color="#ffffff"/><stop offset="1" stop-color="#ffffff" stop-opacity="0"/></radialGradient><radialGradient cx="73.01884" cy="89.74197" r="7.31654" gradientUnits="userSpaceOnUse" id="color-14"><stop offset="0" stop-color="#ffffff"/><stop offset="1" stop-color="#ffffff" stop-opacity="0"/></radialGradient><radialGradient cx="59.72881" cy="259.66906" r="10.72879" gradientUnits="userSpaceOnUse" id="color-15"><stop offset="0" stop-color="#eb28a3"/><stop offset="1" stop-color="#eb0095"/></radialGradient><radialGradient cx="58.66758" cy="259.99276" r="10.72877" gradientUnits="userSpaceOnUse" id="color-16"><stop offset="0" stop-color="#ffffff"/><stop offset="1" stop-color="#ffffff" stop-opacity="0"/></radialGradient><radialGradient cx="62.57218" cy="254.48232" r="5.46879" gradientUnits="userSpaceOnUse" id="color-17"><stop offset="0" stop-color="#ffffff"/><stop offset="1" stop-color="#ffffff" stop-opacity="0"/></radialGradient><radialGradient cx="71.0621" cy="263.54543" r="5.46879" gradientUnits="userSpaceOnUse" id="color-18"><stop offset="0" stop-color="#ffffff"/><stop offset="1" stop-color="#ffffff" stop-opacity="0"/></radialGradient><radialGradient cx="64.3409" cy="264.3007" r="5.4688" gradientUnits="userSpaceOnUse" id="color-19"><stop offset="0" stop-color="#ffffff"/><stop offset="1" stop-color="#ffffff" stop-opacity="0"/></radialGradient><radialGradient cx="60.09593" cy="259.95795" r="5.4284" gradientUnits="userSpaceOnUse" id="color-20"><stop offset="0" stop-color="#ffffff"/><stop offset="1" stop-color="#ffffff" stop-opacity="0"/></radialGradient><radialGradient cx="68.23253" cy="259.20269" r="6.5613" gradientUnits="userSpaceOnUse" id="color-21"><stop offset="0" stop-color="#ffffff"/><stop offset="1" stop-color="#ffffff" stop-opacity="0"/></radialGradient><radialGradient cx="74.71817" cy="258.82508" r="7.31655" gradientUnits="userSpaceOnUse" id="color-22"><stop offset="0" stop-color="#ffffff"/><stop offset="1" stop-color="#ffffff" stop-opacity="0"/></radialGradient></defs><g transform="translate(-39.94703,122.26792)"><g data-paper-data="{&quot;isPaintingLayer&quot;:true}" fill-rule="nonzero" stroke-width="0" stroke-linejoin="miter" stroke-miterlimit="10" stroke-dasharray="" stroke-dashoffset="0" style="mix-blend-mode: normal"><path d="M288.54849,215.78962l151.50448,-45.94007l-0.97744,131.95552l-154.43684,-60.6018z" fill="url(#color-1)" stroke="#feca47" stroke-linecap="round"/><path d="M285.50338,117.93202l151.50448,-45.94007l-0.97744,131.95552l-154.43684,-60.6018z" fill="url(#color-2)" stroke="#feca47" stroke-linecap="round"/><g data-paper-data="{&quot;index&quot;:null}" fill="#1f1f1f" stroke="#1f1f1f"><path d="M221.08084,-10.96931c15.12619,-1.0877 56.40647,4.88512 57.1955,15.85791c0.78903,10.97282 -39.2119,22.79047 -54.33813,23.87818c-15.12622,1.0877 -17.98359,-38.64838 -2.85737,-39.73609z" stroke-linecap="butt"/><path d="M239.1961,-9.52178l4.96783,35.08944l-22.32132,4.0497l-7.30014,-8.03114l-3.78738,-18.67328c0,0 1.05782,-6.71397 4.77251,-10.12157c3.7147,-3.40759 11.85406,-5.13045 11.85406,-5.13045z" stroke-linecap="round"/><path d="M213.71178,10.03407c-0.53123,-7.38742 2.16858,-13.60121 6.0302,-13.8789c3.86162,-0.27769 7.42271,5.48591 7.95392,12.87334c0.53123,7.38742 -2.16859,13.60122 -6.0302,13.87891c-3.86162,0.27769 -7.4227,-5.48591 -7.95392,-12.87335z" stroke-linecap="butt"/></g><g stroke="none" stroke-linecap="butt"><path d="M203.50845,37.60021c-23.46123,0.27286 -65.98891,-4.91082 -66.59521,-27.25127c-0.50342,-18.5496 42.51145,-26.00107 65.97268,-26.27393c23.46123,-0.27286 24.08376,53.25235 0.62253,53.52521z" fill="#6d1214"/><path d="M165.8676,34.10178c-8.91527,0.1037 -30.3304,-14.21177 -30.41735,-21.68899c-0.03159,-2.7167 1.14453,-8.01323 6.57842,-12.68259c9.52191,-8.18224 20.89167,-11.83345 22.58661,-8.96728c1.04456,1.76635 4.38456,20.41194 4.40908,22.51899c0.08697,7.47723 5.75853,20.71621 -3.15674,20.81989z" fill="#1f1f1f"/></g><path d="M179.5499,149.76611h86.66571v33.42012h-86.66571z" fill="#6d1214" stroke="none" stroke-linecap="butt"/><path d="M185.60376,102.893l-8.49664,-197.97168l-18.6926,-27.18924l51.82949,7.64697l33.98656,24.64026l8.49664,184.37706" fill="#1f1f1f" stroke="#171717" stroke-linecap="round"/><path d="M191.5514,103.74266l-10.19597,-197.12201l6.79731,-12.74496l50.97984,28.03891l5.94765,180.9784" fill="#6d1214" stroke="#5d0709" stroke-linecap="round"/><path d="M206.17271,-55.14448c-4.92719,0 -8.92147,-4.56489 -8.92147,-10.19597c0,-5.63108 3.99428,-10.19597 8.92147,-10.19597c4.92719,0 8.92147,4.56489 8.92147,10.19597c0,5.63108 -3.99429,10.19597 -8.92147,10.19597z" fill="#feca47" stroke="#171717" stroke-linecap="butt"/><g><path d="M268.8732,49.43713c-15.12864,1.05365 -56.39532,-5.01208 -57.15966,-15.98664c-0.76434,-10.97456 39.26313,-22.70212 54.39174,-23.75577c15.12864,-1.05365 17.89656,38.68877 2.76792,39.74241z" fill="#5d0709" stroke="#6d1214" stroke-linecap="butt"/><path d="M259.67434,9.22605c0,0 8.3009,0.55925 12.45852,3.40967c4.15761,2.8504 6.15054,9.34846 6.15054,9.34846l-1.1195,19.02057l-6.0962,8.9793l-22.6692,-0.86539l-0.02401,-35.43934z" fill="#1f1f1f" stroke="#171717" stroke-linecap="round"/><path d="M270.29777,43.3161c-3.86223,0.26899 -7.41033,-5.50259 -7.92492,-12.8912c-0.51459,-7.38861 2.19921,-13.5963 6.06144,-13.86531c3.86223,-0.26899 7.41033,5.5026 7.92492,12.89121c0.51459,7.38861 -2.19921,13.5963 -6.06144,13.86531z" fill="#feca47" stroke="#171717" stroke-linecap="butt"/></g><g><path d="M266.3242,4.40494c-15.12864,1.05365 -56.39531,-5.0121 -57.15965,-15.98664c-0.76434,-10.97457 39.26313,-22.70212 54.39174,-23.75577c15.12864,-1.05365 17.89656,38.68877 2.76792,39.74242z" fill="#5d0709" stroke="#6d1214" stroke-linecap="butt"/><path d="M257.12534,-35.80616c0,0 8.30088,0.55926 12.4585,3.40966c4.15762,2.85042 6.15057,9.34848 6.15057,9.34848l-1.1195,19.02058l-6.0962,8.97932l-22.66919,-0.86538l-0.02401,-35.43935z" fill="#1f1f1f" stroke="#171717" stroke-linecap="round"/><path d="M267.74878,-1.71607c-3.86223,0.26899 -7.41034,-5.50259 -7.92493,-12.8912c-0.51459,-7.38861 2.1992,-13.59632 6.06143,-13.8653c3.86223,-0.26899 7.41033,5.50259 7.92492,12.8912c0.51459,7.38861 -2.1992,13.59633 -6.06143,13.86531z" fill="#feca47" stroke="#171717" stroke-linecap="butt"/></g><path d="M179.13296,-48.78002l67.35441,-2.80952l0.31972,7.92353l-67.35442,2.80951z" fill="#1f1f1f" stroke="#171717" stroke-linecap="butt"/><path d="M179.16487,-35.6968l68.49318,-3.28787l0.25003,8.85826l-68.49317,3.28787z" fill="#1f1f1f" stroke="#171717" stroke-linecap="butt"/><g data-paper-data="{&quot;index&quot;:null}" fill="#1f1f1f" stroke="#1f1f1f"><path d="M223.93821,331.23321c15.12622,1.08771 55.12716,12.90535 54.33813,23.87817c-0.78905,10.97282 -42.06931,16.94563 -57.1955,15.85793c-15.12622,-1.08771 -12.26885,-40.8238 2.85737,-39.73609z" stroke-linecap="butt"/><path d="M227.38166,372.3391c0,0 -8.13935,-1.72287 -11.85407,-5.13046c-3.7147,-3.4076 -4.77251,-10.12158 -4.77251,-10.12158l3.78737,-18.67329l7.30016,-8.03116l22.32132,4.04969l-4.96783,35.08944z" stroke-linecap="round"/><path d="M221.66568,337.09257c3.86162,0.27769 6.56143,6.49148 6.03022,13.8789c-0.53121,7.38742 -4.0923,13.15103 -7.95392,12.87334c-3.86162,-0.27769 -6.56141,-6.49148 -6.0302,-13.8789c0.53121,-7.38742 4.0923,-13.15103 7.9539,-12.87334z" stroke-linecap="butt"/></g><g data-paper-data="{&quot;index&quot;:null}" stroke="none" stroke-linecap="butt"><path d="M202.88592,375.925c-23.46124,-0.27286 -66.4761,-7.72431 -65.97268,-26.27394c0.6063,-22.34045 43.13399,-27.52413 66.59521,-27.25127c23.46123,0.27286 22.83871,53.79807 -0.62253,53.52521z" fill="#6d1214"/><path d="M169.02433,346.71812c-0.02451,2.10706 -3.36452,20.75265 -4.40908,22.519c-1.69494,2.86617 -13.0647,-0.78504 -22.58663,-8.9673c-5.43387,-4.66936 -6.61001,-9.96591 -6.57842,-12.68259c0.08697,-7.47723 21.5021,-21.79269 30.41737,-21.689c8.91527,0.1037 3.24371,13.34268 3.15674,20.81991z" fill="#1f1f1f"/></g><path d="M179.5499,176.81376h86.66571v33.4201h-86.66571z" data-paper-data="{&quot;index&quot;:null}" fill="#6d1214" stroke="none" stroke-linecap="butt"/><path d="M252.72719,265.60363l-8.49664,184.37706l-33.98656,24.64025l-51.82949,7.64697l18.69261,-27.18924l8.49664,-197.97168" data-paper-data="{&quot;index&quot;:null}" fill="#1f1f1f" stroke="#171717" stroke-linecap="round"/><path d="M245.08021,257.107l-5.94765,180.9784l-50.97983,28.03891l-6.79731,-12.74496l10.19597,-197.12201" data-paper-data="{&quot;index&quot;:null}" fill="#6d1214" stroke="#5d0709" stroke-linecap="round"/><path d="M215.09418,425.34044c0,5.63108 -3.99427,10.19597 -8.92147,10.19597c-4.9272,0 -8.92147,-4.56489 -8.92147,-10.19597c0,-5.63108 3.99427,-10.19597 8.92147,-10.19597c4.9272,0 8.92147,4.56489 8.92147,10.19597z" data-paper-data="{&quot;index&quot;:null}" fill="#feca47" stroke="#171717" stroke-linecap="butt"/><g data-paper-data="{&quot;index&quot;:null}"><path d="M266.10528,350.30529c-15.1286,-1.05365 -55.15608,-12.78123 -54.39174,-23.75577c0.76434,-10.97454 42.03102,-17.0403 57.15966,-15.98665c15.12864,1.05365 12.36072,40.79607 -2.76792,39.74242z" fill="#5d0709" stroke="#6d1214" stroke-linecap="butt"/><path d="M248.37449,346.32066l0.02401,-35.43935l22.66919,-0.86539l6.0962,8.97931l1.1195,19.02058c0,0 -1.99294,6.49807 -6.15056,9.34847c-4.15762,2.8504 -12.4585,3.40966 -12.4585,3.40966z" fill="#1f1f1f" stroke="#171717" stroke-linecap="round"/><path d="M276.35921,330.54919c-0.51459,7.38859 -4.06269,13.16019 -7.92492,12.89121c-3.86223,-0.26898 -6.57603,-6.4767 -6.06144,-13.86531c0.51459,-7.38859 4.0627,-13.16019 7.92494,-12.8912c3.86223,0.26898 6.57603,6.47669 6.06144,13.8653z" fill="#feca47" stroke="#171717" stroke-linecap="butt"/></g><g data-paper-data="{&quot;index&quot;:null}"><path d="M263.55628,395.33746c-15.1286,-1.05365 -55.15608,-12.78123 -54.39174,-23.75577c0.76434,-10.97454 42.03101,-17.0403 57.15965,-15.98665c15.12864,1.05365 12.36073,40.79607 -2.76792,39.74241z" fill="#5d0709" stroke="#6d1214" stroke-linecap="butt"/><path d="M245.8255,391.35284l0.02401,-35.43934l22.66919,-0.86538l6.0962,8.97931l1.1195,19.02058c0,0 -1.99294,6.49806 -6.15057,9.34846c-4.15762,2.8504 -12.4585,3.40967 -12.4585,3.40967z" fill="#1f1f1f" stroke="#171717" stroke-linecap="round"/><path d="M273.81022,375.58138c-0.51459,7.38859 -4.06268,13.16019 -7.92491,12.89121c-3.86223,-0.26898 -6.57603,-6.4767 -6.06144,-13.86531c0.51459,-7.38859 4.0627,-13.16018 7.92494,-12.8912c3.86223,0.26898 6.57603,6.47669 6.06144,13.8653z" fill="#feca47" stroke="#171717" stroke-linecap="butt"/></g><path d="M179.45267,400.85649l67.3544,2.80952l-0.31971,7.92352l-67.3544,-2.80952z" data-paper-data="{&quot;index&quot;:null}" fill="#1f1f1f" stroke="#171717" stroke-linecap="butt"/><path d="M179.41489,386.83854l68.49317,3.28788l-0.25004,8.85827l-68.49317,-3.28789z" data-paper-data="{&quot;index&quot;:null}" fill="#1f1f1f" stroke="#171717" stroke-linecap="butt"/><path d="M150.48656,290.17499l-16.89057,80.71806l-17.4957,28.77531l-19.41332,-10.0827l-3.12788,-410.38764l20.69607,-5.10092l16.83854,21.24454l19.39287,72.22143z" fill="#6d1214" stroke="#000000" stroke-linecap="round"/><g><path d="M267.63173,151.74868c-3.20658,0 -5.80604,-9.19318 -5.80604,-20.53354c0,-11.34036 2.59945,-20.53353 5.80604,-20.53353c3.20658,0 5.80605,9.19317 5.80605,20.53353c0,11.34036 -2.59945,20.53354 -5.80605,20.53354z" fill="#000000" stroke="#000000" stroke-linecap="butt"/><path d="M278.81897,168.31713l-35.68588,3.39866l-59.47647,-1.69933l-28.03891,-7.64697l-14.01945,-26.76442l7.00973,-24.85266l27.40166,-11.25804l63.72479,-5.94765l39.08454,5.09799l11.89529,14.44428l8.93245,13.5788l13.15881,9.36212l-12.68094,6.14173z" fill="#6d1214" stroke="#000000" stroke-linecap="round"/><path d="M260.21123,169.77854c0,0 8.19351,-25.05938 8.19628,-37.14736c0.0027,-11.77237 -6.46834,-35.2316 -6.46834,-35.2316c0,0 10.89308,2.82304 13.85623,5.20181c3.12041,2.50504 5.15404,9.66761 5.15404,9.66761l-0.32991,7.45616l-3.79288,5.01276l-0.05329,17.4081l5.07396,4.24991l0.75885,7.61274c0,0 -0.228,7.57466 -3.05483,10.00003c-3.17424,2.72346 -19.34012,5.76987 -19.34012,5.76987z" fill="#feca47" stroke="#000000" stroke-linecap="round"/><path d="M299.49413,127.10844l13.59463,8.77985l-12.46173,5.94765l-6.5141,7.64697c0,0 -9.68788,-9.73893 -9.98165,-15.51607c-0.27082,-5.32622 8.28232,-17.90405 8.28232,-17.90405z" fill="#000000" stroke="#000000" stroke-linecap="round"/><path d="M264.30387,131.99399l-121.92676,3.39865" fill="none" stroke="#5d0709" stroke-linecap="round"/><path d="M223.52001,171.50336c0,0 -9.18252,-24.80839 -9.10794,-38.23355c0.06597,-11.87374 9.53277,-38.2362 9.53277,-38.2362" fill="none" stroke="#5e0808" stroke-linecap="round"/><path d="M179.76232,98.00743l23.36576,-0.84967l1.69933,73.92076l-25.06508,-0.42483l-23.79137,-6.64508l-16.14283,-26.4918l7.29657,-26.717z" fill="#1f1f1f" stroke="#000000" stroke-linecap="butt"/><path d="M181.46165,171.92819c0,0 -10.13134,-24.17105 -10.54229,-36.1571c-0.4371,-12.74873 7.99329,-38.18848 7.99329,-38.18848" fill="none" stroke="#171717" stroke-linecap="round"/><path d="M138.12879,137.5168l65.84895,-3.82349" fill="none" stroke="#171717" stroke-linecap="round"/><path d="M238.81396,109.47789l-10.19597,-9.77114c0,0 10.19285,2.73522 14.06516,5.02051c4.62987,2.73237 11.84958,10.27344 11.84958,10.27344z" fill="url(#color-3)" stroke="#000000" stroke-linecap="round"/><path d="M256.6569,150.26176c0,0 -7.21971,7.54108 -11.84958,10.27344c-3.87231,2.2853 -14.06516,5.02051 -14.06516,5.02051l10.19597,-9.77113z" data-paper-data="{&quot;index&quot;:null}" fill="url(#color-4)" stroke="#000000" stroke-linecap="round"/><g stroke="#000000"><path d="M203.97773,152.81075c-14.07769,0 -25.48991,-8.27386 -25.48991,-18.48019c0,-10.20633 11.41222,-18.48019 25.48991,-18.48019c14.07769,0 25.48992,8.27386 25.48992,18.48019c0,10.20633 -11.41223,18.48019 -25.48992,18.48019z" fill="#feca47" stroke-linecap="butt"/><path d="M203.97773,144.31411c-9.38511,0 -16.99327,-4.46979 -16.99327,-9.98355c0,-5.51376 7.60816,-9.98355 16.99327,-9.98355c9.38511,0 16.99328,4.46979 16.99328,9.98355c0,5.51376 -7.60817,9.98355 -16.99328,9.98355z" fill="none" stroke-linecap="butt"/><path d="M215.87303,126.47117c0,0 -0.03605,-3.3914 0.76256,-4.4078c0.75687,-0.96328 3.9106,-1.53985 3.9106,-1.53985" fill="none" stroke-linecap="round"/><path d="M221.49026,146.67429c0,0 -3.15373,-0.57656 -3.91061,-1.53984c-0.7986,-1.0164 -0.76254,-4.4078 -0.76254,-4.4078" data-paper-data="{&quot;index&quot;:null}" fill="none" stroke-linecap="round"/><path d="M203.48211,152.17349c0,0 -3.30713,-11.27362 -3.53377,-17.55484c-0.21308,-5.90557 2.21206,-19.0751 2.21206,-19.0751" fill="none" stroke-linecap="round"/><path d="M188.94341,148.3972c0,0 -3.45742,-9.4727 -3.58244,-14.16119c-0.1267,-4.75137 2.82719,-14.16092 2.82719,-14.16092" fill="none" stroke-linecap="round"/></g></g><g data-paper-data="{&quot;index&quot;:null}"><path d="M273.43778,230.48419c0,11.34036 -2.59947,20.53354 -5.80605,20.53354c-3.20659,0 -5.80604,-9.19318 -5.80604,-20.53354c0,-11.34036 2.59946,-20.53353 5.80604,-20.53353c3.20659,0 5.80605,9.19317 5.80605,20.53354z" fill="#000000" stroke="#000000" stroke-linecap="butt"/><path d="M300.12458,219.52769l12.68094,6.14173l-13.15881,9.36212l-8.93245,13.5788l-11.89529,14.44428l-39.08454,5.09798l-63.72479,-5.94764l-27.40166,-11.25804l-7.00973,-24.85267l14.01945,-26.76441l28.03891,-7.64697l59.47647,-1.69933l35.68588,3.39866z" fill="#6d1214" stroke="#000000" stroke-linecap="round"/><path d="M260.21123,191.92075c0,0 16.16588,3.04641 19.34012,5.76987c2.82683,2.42536 3.05483,10.00003 3.05483,10.00003l-0.75885,7.61273l-5.07396,4.24992l0.05329,17.4081l3.79288,5.01276l0.32991,7.45616c0,0 -2.03364,7.16256 -5.15404,9.6676c-2.96315,2.37877 -13.85623,5.20182 -13.85623,5.20182c0,0 6.47104,-23.45923 6.46834,-35.2316c-0.00277,-12.08798 -8.19628,-37.14736 -8.19628,-37.14736z" fill="#feca47" stroke="#000000" stroke-linecap="round"/><path d="M292.41359,245.63653c0,0 -8.55314,-12.57783 -8.28232,-17.90405c0.29377,-5.77713 9.98165,-15.51606 9.98165,-15.51606l6.5141,7.64697l12.46173,5.94764l-13.59463,8.77985z" fill="#000000" stroke="#000000" stroke-linecap="round"/><path d="M142.37711,226.30668l121.92676,3.39866" fill="none" stroke="#5d0709" stroke-linecap="round"/><path d="M223.94484,266.6657c0,0 -9.4668,-26.36245 -9.53277,-38.23619c-0.07459,-13.42516 9.10794,-38.23355 9.10794,-38.23355" fill="none" stroke="#5e0808" stroke-linecap="round"/><path d="M147.12469,250.89953l-7.29657,-26.717l16.14283,-26.4918l23.79137,-6.64508l25.06508,-0.42484l-1.69933,73.92075l-23.36576,-0.84966z" fill="#1f1f1f" stroke="#000000" stroke-linecap="butt"/><path d="M178.91265,264.11671c0,0 -8.43039,-25.43974 -7.99329,-38.18847c0.41095,-11.98605 10.54229,-36.15711 10.54229,-36.15711" fill="none" stroke="#171717" stroke-linecap="round"/><path d="M138.12879,224.18253l65.84895,3.82349" fill="none" stroke="#171717" stroke-linecap="round"/><path d="M254.53273,246.69862c0,0 -7.21971,7.54107 -11.84958,10.27344c-3.87231,2.2853 -14.06516,5.02051 -14.06516,5.02051l10.19597,-9.77113z" fill="url(#color-5)" stroke="#000000" stroke-linecap="round"/><path d="M240.93812,205.91475l-10.19597,-9.77113c0,0 10.19287,2.73521 14.06516,5.02051c4.62985,2.73236 11.84958,10.27344 11.84958,10.27344z" data-paper-data="{&quot;index&quot;:null}" fill="url(#color-6)" stroke="#000000" stroke-linecap="round"/><g stroke="#000000"><path d="M229.46765,227.36877c0,10.20633 -11.41223,18.48019 -25.48992,18.48019c-14.07769,0 -25.48991,-8.27385 -25.48991,-18.48019c0,-10.20631 11.41222,-18.48019 25.48991,-18.48019c14.07769,0 25.48992,8.27388 25.48992,18.48019z" fill="#feca47" stroke-linecap="butt"/><path d="M220.97102,227.36877c0,5.51378 -7.60817,9.98355 -16.99328,9.98355c-9.38511,0 -16.99327,-4.46977 -16.99327,-9.98355c0,-5.51376 7.60816,-9.98355 16.99327,-9.98355c9.38511,0 16.99328,4.4698 16.99328,9.98355z" fill="none" stroke-linecap="butt"/><path d="M220.54618,241.1758c0,0 -3.15373,-0.57655 -3.91061,-1.53985c-0.7986,-1.01642 -0.76254,-4.4078 -0.76254,-4.4078" fill="none" stroke-linecap="round"/><path d="M216.81711,220.97267c0,0 -0.03606,-3.39138 0.76254,-4.4078c0.75687,-0.9633 3.91061,-1.53984 3.91061,-1.53984" data-paper-data="{&quot;index&quot;:null}" fill="none" stroke-linecap="round"/><path d="M202.16041,246.15579c0,0 -2.42514,-13.16952 -2.21206,-19.07511c0.22664,-6.28123 3.53375,-17.55486 3.53375,-17.55486" fill="none" stroke-linecap="round"/><path d="M188.18815,241.62424c0,0 -2.95388,-9.40955 -2.82718,-14.16094c0.12503,-4.68849 3.58244,-14.16121 3.58244,-14.16121" fill="none" stroke-linecap="round"/></g></g><path d="M99.72679,118.81764c7.69328,1.65355 23.57052,8.01694 23.57052,8.01694l-42.48319,1.92235v-11.05351c0,0 12.82334,-0.1946 18.91267,1.11422z" data-paper-data="{&quot;index&quot;:null}" fill="#1f1f1f" stroke="#000000" stroke-linecap="round"/><path d="M100.57645,210.58133c7.69328,1.65356 23.57053,8.01694 23.57053,8.01694l-42.48319,1.92235v-11.0535c0,0 12.82333,-0.1946 18.91267,1.11422z" data-paper-data="{&quot;index&quot;:null}" fill="#1f1f1f" stroke="#000000" stroke-linecap="round"/><path d="M93.77914,8.36133c7.69328,1.65355 23.57053,8.01693 23.57053,8.01693l-42.48319,1.92235v-11.0535c0,0 12.82333,-0.1946 18.91267,1.11422z" data-paper-data="{&quot;index&quot;:null}" fill="#1f1f1f" stroke="#000000" stroke-linecap="round"/><path d="M142.83958,126.18985l-20.39193,0.84967" fill="none" stroke="#5d0709" stroke-linecap="round"/><path d="M140.29059,228.99918l-45.03218,0.84966" fill="none" stroke="#5d0709" stroke-linecap="round"/><path d="M151.33622,69.26237l-57.77714,-3.39866l1.69932,-85.81605l19.54227,-7.64698l16.14362,22.09126z" fill="#1f1f1f" stroke="#171717" stroke-linecap="round"/><path d="M132.64361,377.69035l-16.14361,22.09126l-19.54227,-7.64697l-1.69933,-85.81605l53.52883,-2.54899z" data-paper-data="{&quot;index&quot;:null}" fill="#1f1f1f" stroke="#171717" stroke-linecap="round"/><path d="M95.47847,336.3316c7.69328,1.65357 23.57053,8.01693 23.57053,8.01693l-42.4832,1.92235v-11.05349c0,0 12.82334,-0.19461 18.91267,1.11422z" data-paper-data="{&quot;index&quot;:null}" fill="#1f1f1f" stroke="#000000" stroke-linecap="round"/><path d="M92.70941,66.71338l59.47647,1.69933" fill="none" stroke="#171717" stroke-linecap="round"/><path d="M94.40874,305.46892l51.8295,-2.54899" fill="none" stroke="#171717" stroke-linecap="round"/><g><path d="M48.453,96.08313c0,0 -7.09634,-2.87309 -7.42346,-4.25826c-0.40726,-1.72453 5.16723,-5.29566 5.16723,-5.29566c0,0 7.01758,-3.70737 10.12799,-3.91665c3.86203,-0.25984 11.28119,2.47624 11.28119,2.47624c0,0 -3.37599,3.82194 -2.97293,5.52865c0.33721,1.42794 5.22917,4.02526 5.22917,4.02526c0,0 -8.80772,2.68597 -12.14829,2.91072c-3.74867,0.25222 -9.2609,-1.47033 -9.2609,-1.47033z" fill="url(#color-7)" stroke="none" stroke-linecap="butt"/><path d="M61.93408,88.80464c-5.65866,0 -10.2459,-1.66956 -10.2459,-3.72909c0,-2.05952 4.58722,-3.72909 10.2459,-3.72909c5.65866,0 10.24591,1.66956 10.24591,3.72909c0,2.05952 -4.58725,3.72909 -10.24591,3.72909z" fill="#eb28a3" stroke="none" stroke-linecap="butt"/><path d="M70.424,97.86771c-5.65866,0 -10.24588,-1.66956 -10.24588,-3.72909c0,-2.05952 4.58722,-3.72909 10.24588,-3.72909c5.65866,0 10.24591,1.66956 10.24591,3.72909c0,2.05952 -4.58727,3.72909 -10.24591,3.72909z" fill="#eb37a9" stroke="none" stroke-linecap="butt"/><path d="M63.70281,98.62298c-5.65866,0 -10.2459,-1.66956 -10.2459,-3.72909c0,-2.05952 4.58724,-3.72909 10.2459,-3.72909c5.65866,0 10.24591,1.66956 10.24591,3.72909c0,2.05952 -4.58727,3.72909 -10.24591,3.72909z" fill="#eb28a3" stroke="none" stroke-linecap="butt"/><path d="M59.45783,95.97957c-4.68182,0 -8.47715,-2.43037 -8.47715,-5.42842c0,-2.99802 3.79535,-5.42842 8.47715,-5.42842c4.68182,0 8.47718,2.43038 8.47718,5.42842c0,2.99802 -3.79536,5.42842 -8.47718,5.42842z" fill="#eb37a9" stroke="none" stroke-linecap="butt"/><path d="M67.59444,96.35721c-5.65888,0 -10.2463,-2.93759 -10.2463,-6.56131c0,-3.62369 4.58742,-6.56129 10.2463,-6.56129c5.65888,0 10.24633,2.9376 10.24633,6.56129c0,3.62369 -4.58744,6.56131 -10.24633,6.56131z" fill="#eb0095" stroke="none" stroke-linecap="butt"/><path d="M74.08009,96.73484c-6.31026,0 -11.42575,-3.27573 -11.42575,-7.31654c0,-4.04081 5.11549,-7.31654 11.42575,-7.31654c6.31026,0 11.42575,3.27573 11.42575,7.31654c0,4.04081 -5.11549,7.31654 -11.42575,7.31654z" fill="#bb0077" stroke="none" stroke-linecap="butt"/><g stroke="none" stroke-linecap="butt"><path d="M47.39177,96.4068c0,0 -7.09634,-2.8731 -7.42346,-4.25826c-0.40726,-1.72453 5.16723,-5.29567 5.16723,-5.29567c0,0 7.01758,-3.70737 10.12799,-3.91664c3.86201,-0.25984 11.28119,2.47624 11.28119,2.47624c0,0 -3.37599,3.82194 -2.97293,5.52864c0.33722,1.42794 5.22915,4.02527 5.22915,4.02527c0,0 -8.80772,2.68597 -12.14829,2.91073c-3.74867,0.25222 -9.2609,-1.47031 -9.2609,-1.47031z" fill="url(#color-8)"/><path d="M60.87283,89.12831c-5.65866,0 -10.24588,-1.66956 -10.24588,-3.72909c0,-2.05952 4.58722,-3.72909 10.24588,-3.72909c5.65866,0 10.24593,1.66956 10.24593,3.72909c0,2.05952 -4.58727,3.72909 -10.24592,3.72909z" fill="url(#color-9)"/><path d="M69.36276,98.1914c-5.65866,0 -10.2459,-1.66956 -10.2459,-3.72909c0,-2.05952 4.58724,-3.72909 10.2459,-3.72909c5.65866,0 10.24591,1.66956 10.24591,3.72909c0,2.05952 -4.58727,3.72909 -10.24591,3.72909z" fill="url(#color-10)"/><path d="M62.64156,98.94665c-5.65866,0 -10.24589,-1.66956 -10.24589,-3.72909c0,-2.05952 4.58723,-3.72909 10.24589,-3.72909c5.65866,0 10.24591,1.66956 10.24591,3.72909c0,2.05952 -4.58727,3.72909 -10.24591,3.72909z" fill="url(#color-11)"/><path d="M58.39659,96.30326c-4.68182,0 -8.47715,-2.43038 -8.47715,-5.42842c0,-2.99802 3.79533,-5.42842 8.47715,-5.42842c4.68182,0 8.47718,2.43037 8.47718,5.42842c0,2.99802 -3.79536,5.42842 -8.47718,5.42842z" fill="url(#color-12)"/><path d="M66.53319,96.68089c-5.65888,0 -10.2463,-2.9376 -10.2463,-6.5613c0,-3.62369 4.58742,-6.56129 10.2463,-6.56129c5.65888,0 10.24632,2.9376 10.24632,6.56129c0,3.62369 -4.58744,6.5613 -10.24632,6.5613z" fill="url(#color-13)"/><path d="M73.01884,97.05851c-6.31026,0 -11.42573,-3.27573 -11.42573,-7.31655c0,-4.04081 5.11547,-7.31654 11.42573,-7.31654c6.31026,0 11.42576,3.27573 11.42576,7.31654c0,4.04081 -5.11549,7.31655 -11.42576,7.31655z" fill="url(#color-14)"/></g><g><path d="M114.94002,104.54901c-15.82409,0 -43.75543,-5.73161 -43.75543,-14.77187c0,-9.04026 27.93134,-17.96578 43.75543,-17.96578c15.82409,0 15.82409,32.73765 0,32.73765z" fill="#1f1f1f" stroke="#171717" stroke-linecap="butt"/><path d="M110.71996,104.94825l-11.99387,-17.1673l7.10747,-15.17111" fill="none" stroke="#171717" stroke-linecap="round"/><path d="M119.6043,102.95205c-3.18935,0 -3.55374,-5.19537 -3.55374,-13.57415c0,-8.37878 -0.07984,-16.76807 3.10953,-16.76807c3.18935,0 8.44014,8.38929 8.44014,16.76807c0,8.37878 -4.80657,13.57415 -7.99591,13.57415z" fill="#feca47" stroke="#ffb700" stroke-linecap="butt"/><path d="M121.011,79.99576l6.21904,7.98481l-5.9229,8.51712l2.96146,-8.51712z" fill="#ffb700" stroke="#ffb700" stroke-linecap="round"/></g></g><g><path d="M50.15233,265.16625c0,0 -7.09634,-2.87309 -7.42346,-4.25826c-0.40726,-1.72451 5.16723,-5.29566 5.16723,-5.29566c0,0 7.01758,-3.70738 10.12799,-3.91665c3.86203,-0.25983 11.28117,2.47625 11.28117,2.47625c0,0 -3.37598,3.82194 -2.97292,5.52866c0.33721,1.42795 5.22917,4.02526 5.22917,4.02526c0,0 -8.80772,2.68597 -12.14829,2.91073c-3.74867,0.25221 -9.2609,-1.47031 -9.2609,-1.47031z" fill="url(#color-15)" stroke="none" stroke-linecap="butt"/><path d="M63.63341,257.88775c-5.65866,0 -10.2459,-1.66958 -10.2459,-3.7291c0,-2.05952 4.58724,-3.72907 10.2459,-3.72907c5.65866,0 10.24591,1.66956 10.24591,3.72907c0,2.05951 -4.58724,3.7291 -10.24591,3.7291z" fill="#eb28a3" stroke="none" stroke-linecap="butt"/><path d="M72.12333,266.95083c-5.65866,0 -10.24587,-1.66956 -10.24587,-3.72908c0,-2.05951 4.58721,-3.72909 10.24587,-3.72909c5.65866,0 10.24591,1.66958 10.24591,3.72909c0,2.05951 -4.58727,3.72908 -10.24591,3.72908z" fill="#eb37a9" stroke="none" stroke-linecap="butt"/><path d="M65.40213,267.7061c-5.65866,0 -10.24589,-1.66958 -10.24589,-3.72909c0,-2.05951 4.58723,-3.72908 10.24589,-3.72908c5.65866,0 10.24591,1.66956 10.24591,3.72908c0,2.05951 -4.58727,3.72909 -10.24591,3.72909z" fill="#eb28a3" stroke="none" stroke-linecap="butt"/><path d="M61.15716,265.06269c-4.68182,0 -8.47715,-2.43038 -8.47715,-5.4284c0,-2.99804 3.79535,-5.42842 8.47715,-5.42842c4.68182,0 8.47718,2.43038 8.47718,5.42842c0,2.99804 -3.79536,5.4284 -8.47718,5.4284z" fill="#eb37a9" stroke="none" stroke-linecap="butt"/><path d="M69.29376,265.44031c-5.65888,0 -10.2463,-2.93759 -10.2463,-6.56129c0,-3.62369 4.58742,-6.5613 10.2463,-6.5613c5.65888,0 10.24634,2.9376 10.24634,6.5613c0,3.62369 -4.58744,6.56129 -10.24634,6.56129z" fill="#eb0095" stroke="none" stroke-linecap="butt"/><path d="M75.77942,265.81796c-6.31026,0 -11.42575,-3.27573 -11.42575,-7.31656c0,-4.04083 5.11549,-7.31654 11.42575,-7.31654c6.31026,0 11.42575,3.27572 11.42575,7.31654c0,4.04083 -5.11549,7.31656 -11.42575,7.31656z" fill="#bb0077" stroke="none" stroke-linecap="butt"/><g stroke="none" stroke-linecap="butt"><path d="M49.0911,265.48992c0,0 -7.09634,-2.87309 -7.42346,-4.25826c-0.40726,-1.72451 5.16723,-5.29566 5.16723,-5.29566c0,0 7.01757,-3.70738 10.12799,-3.91665c3.86201,-0.25983 11.28118,2.47625 11.28118,2.47625c0,0 -3.37599,3.82194 -2.97292,5.52866c0.33721,1.42795 5.22915,4.02526 5.22915,4.02526c0,0 -8.80772,2.68597 -12.14829,2.91073c-3.74867,0.25221 -9.26089,-1.47031 -9.26089,-1.47031z" fill="url(#color-16)"/><path d="M62.57216,258.21142c-5.65866,0 -10.24587,-1.66958 -10.24587,-3.7291c0,-2.05952 4.58722,-3.72907 10.24587,-3.72907c5.65866,0 10.24592,1.66955 10.24592,3.72907c0,2.05951 -4.58726,3.7291 -10.24592,3.7291z" fill="url(#color-17)"/><path d="M71.06208,267.27451c-5.65866,0 -10.24589,-1.66956 -10.24589,-3.72908c0,-2.05951 4.58723,-3.72909 10.24589,-3.72909c5.65866,0 10.24591,1.66958 10.24591,3.72909c0,2.05951 -4.58727,3.72908 -10.24591,3.72908z" fill="url(#color-18)"/><path d="M64.34089,268.02977c-5.65866,0 -10.2459,-1.66958 -10.2459,-3.72909c0,-2.05951 4.58724,-3.72908 10.2459,-3.72908c5.65866,0 10.24591,1.66956 10.24591,3.72908c0,2.05951 -4.58727,3.72909 -10.24591,3.72909z" fill="url(#color-19)"/><path d="M60.09591,265.38637c-4.68182,0 -8.47714,-2.43039 -8.47714,-5.4284c0,-2.99804 3.79532,-5.42841 8.47714,-5.42841c4.68182,0 8.47719,2.43037 8.47719,5.42841c0,2.99804 -3.79537,5.4284 -8.47719,5.4284z" fill="url(#color-20)"/><path d="M68.23252,265.764c-5.65888,0 -10.2463,-2.93759 -10.2463,-6.56131c0,-3.62369 4.58742,-6.56129 10.2463,-6.56129c5.65888,0 10.24631,2.9376 10.24631,6.56129c0,3.62369 -4.58743,6.56131 -10.24631,6.56131z" fill="url(#color-21)"/><path d="M74.71817,266.14162c-6.31026,0 -11.42573,-3.27573 -11.42573,-7.31656c0,-4.04083 5.11547,-7.31653 11.42573,-7.31653c6.31026,0 11.42575,3.27572 11.42575,7.31653c0,4.04083 -5.11549,7.31656 -11.42575,7.31656z" fill="url(#color-22)"/></g><g><path d="M116.63935,273.63212c-15.82409,0 -43.75543,-5.73162 -43.75543,-14.77187c0,-9.04026 27.93134,-17.96579 43.75543,-17.96579c15.82409,0 15.82409,32.73766 0,32.73766z" fill="#1f1f1f" stroke="#171717" stroke-linecap="butt"/><path d="M112.41929,274.03136l-11.99388,-17.16731l7.10747,-15.1711" fill="none" stroke="#171717" stroke-linecap="round"/><path d="M121.30363,272.03517c-3.18935,0 -3.55373,-5.19537 -3.55373,-13.57414c0,-8.37877 -0.07984,-16.76807 3.10953,-16.76807c3.18935,0 8.44013,8.3893 8.44013,16.76807c0,8.37878 -4.80657,13.57414 -7.99591,13.57414z" fill="#feca47" stroke="#ffb700" stroke-linecap="butt"/><path d="M122.71033,249.07888l6.21905,7.9848l-5.9229,8.51713l2.96145,-8.51713z" fill="#ffb700" stroke="#ffb700" stroke-linecap="round"/></g></g></g></g></svg>