<svg version="1.1" xmlns="http://www.w3.org/2000/svg" xmlns:xlink="http://www.w3.org/1999/xlink" width="32.8273" height="29.72376" viewBox="0,0,32.8273,29.72376"><defs><radialGradient cx="238.50004" cy="180.40005" r="14.61188" gradientUnits="userSpaceOnUse" id="color-1"><stop offset="0" stop-color="#126cdf"/><stop offset="1" stop-color="#0053f8"/></radialGradient><linearGradient x1="238.4237" y1="177.31655" x2="238.4237" y2="175.50148" gradientUnits="userSpaceOnUse" id="color-2"><stop offset="0" stop-color="#ffffff" stop-opacity="0"/><stop offset="1" stop-color="#ffffff"/></linearGradient><linearGradient x1="238.4237" y1="175.51331" x2="238.4237" y2="173.91502" gradientUnits="userSpaceOnUse" id="color-3"><stop offset="0" stop-color="#ffffff"/><stop offset="1" stop-color="#ffffff" stop-opacity="0"/></linearGradient><linearGradient x1="240.10935" y1="175.55653" x2="242.52325" y2="175.55653" gradientUnits="userSpaceOnUse" id="color-4"><stop offset="0" stop-color="#e186cb"/><stop offset="1" stop-color="#e186cb" stop-opacity="0"/></linearGradient><linearGradient x1="238.36285" y1="187.07813" x2="238.36285" y2="185.26305" gradientUnits="userSpaceOnUse" id="color-5"><stop offset="0" stop-color="#ffffff" stop-opacity="0"/><stop offset="1" stop-color="#ffffff"/></linearGradient><linearGradient x1="238.36285" y1="185.27489" x2="238.36285" y2="183.6766" gradientUnits="userSpaceOnUse" id="color-6"><stop offset="0" stop-color="#ffffff"/><stop offset="1" stop-color="#ffffff" stop-opacity="0"/></linearGradient><linearGradient x1="240.0485" y1="185.3181" x2="242.4624" y2="185.3181" gradientUnits="userSpaceOnUse" id="color-7"><stop offset="0" stop-color="#e186cb"/><stop offset="1" stop-color="#e186cb" stop-opacity="0"/></linearGradient><linearGradient x1="231.00005" y1="182.64105" x2="231.00005" y2="180.82597" gradientUnits="userSpaceOnUse" id="color-8"><stop offset="0" stop-color="#ffffff" stop-opacity="0"/><stop offset="1" stop-color="#ffffff"/></linearGradient><linearGradient x1="231.00005" y1="180.83781" x2="231.00005" y2="179.23952" gradientUnits="userSpaceOnUse" id="color-9"><stop offset="0" stop-color="#ffffff"/><stop offset="1" stop-color="#ffffff" stop-opacity="0"/></linearGradient><linearGradient x1="232.68569" y1="180.88103" x2="235.09959" y2="180.88103" gradientUnits="userSpaceOnUse" id="color-10"><stop offset="0" stop-color="#e186cb"/><stop offset="1" stop-color="#e186cb" stop-opacity="0"/></linearGradient></defs><g transform="translate(-222.37298,-165.86038)"><g data-paper-data="{&quot;isPaintingLayer&quot;:true}" fill-rule="nonzero" stroke-linejoin="miter" stroke-miterlimit="10" stroke-dasharray="" stroke-dashoffset="0" style="mix-blend-mode: normal"><path d="M246.78193,185.70446v-5.57895h1.05263c0,0 0.26316,1.28966 0.26316,2.05263c0,1.02064 -0.26316,3.52632 -0.26316,3.52632z" fill="#ed0000" stroke="none" stroke-width="0" stroke-linecap="butt"/><path d="M246.04252,177.23201c0,0 4.61306,-1.63199 5.11399,-1.45326c0.82034,0.29269 1.35927,0.69984 1.40161,1.81658c0.04234,1.11674 -0.35231,1.79952 -1.25009,2.1799c-0.89778,0.38038 -5.03822,0.48442 -5.03822,0.48442" data-paper-data="{&quot;index&quot;:null}" fill="#ed0000" stroke="#174752" stroke-width="0" stroke-linecap="round"/><path d="M245.5771,178.86626c0,-0.47708 0.03244,-0.60899 1.15875,-1.11008c0.73651,-0.32767 1.15875,-0.61217 1.44842,0.3892c0.12846,0.44407 -0.56707,1.58471 -1.44842,1.58471c-1.27614,0 -1.15875,-0.38674 -1.15875,-0.86382z" data-paper-data="{&quot;index&quot;:null}" fill="#126ddd" stroke="none" stroke-width="0" stroke-linecap="butt"/><path d="M248.00976,182.21961c0,0 4.3714,0.10404 5.31927,0.48442c0.94787,0.38038 1.36453,1.06316 1.31982,2.1799c-0.0447,1.11674 -0.6137,1.52389 -1.4798,1.81658c-0.52888,0.17872 -5.39927,-1.45326 -5.39927,-1.45326" data-paper-data="{&quot;index&quot;:null}" fill="#ed0000" stroke="#174752" stroke-width="0" stroke-linecap="round"/><path d="M248.11164,182.94559c1.21705,0 2.1775,1.16034 2.00012,1.61208c-0.4,1.01866 -0.98307,0.72926 -2.00012,0.39592c-1.55532,-0.50975 -1.60012,-0.64393 -1.60012,-1.12925c0,-0.48532 -0.1621,-0.87875 1.60012,-0.87875z" fill="#126ddd" stroke="none" stroke-width="0" stroke-linecap="butt"/><path d="M246.04252,177.23201c0,0 4.61306,-1.63199 5.11399,-1.45327c0.82034,0.29268 1.35927,0.69985 1.40161,1.81658c0.04234,1.11673 -0.3523,1.79951 -1.25009,2.1799c-0.89778,0.38039 -3.22004,0.48442 -3.22004,0.48442l0.04619,2.07685c0,0 4.27204,0.10073 5.19836,0.46903c0.92632,0.3683 1.33351,1.02937 1.28982,2.11061c-0.04369,1.08124 -0.59975,1.47547 -1.44616,1.75884c-0.51686,0.17304 -5.27653,-1.40708 -5.27653,-1.40708l-0.39962,1.38929" fill="none" stroke="#174752" stroke-width="0.5" stroke-linecap="round"/><path d="M236.80132,193.35292c0,0 -3.50121,1.63411 -4.56031,1.74423c-1.34199,0.13952 -2.87406,-0.32224 -3.05277,-1.92261c-0.16512,-1.47866 -2.21806,-22.8372 -2.20477,-24.22093c0.01328,-1.38373 1.65929,-2.47946 2.69473,-2.37849c2.91775,0.28453 7.12313,2.49742 7.12313,2.49742" fill="#e3000a" stroke="#930f00" stroke-width="0.5" stroke-linecap="round"/><path d="M246.7293,177.17815l1.10526,4.10526l-0.99474,4.26316" fill="#445e67" stroke="#ffa549" stroke-width="0.5" stroke-linecap="round"/><path d="M247.24158,186.37489l3.59812,1.89135l1.07373,0.60044l0.42214,1.18982l1.20076,-0.33301l1.31709,0.71175l-2.12011,3.60647l-4.18153,-1.08101l-3.29134,-2.90622" data-paper-data="{&quot;index&quot;:null}" fill="#a6521b" stroke="#174752" stroke-width="0.5" stroke-linecap="round"/><path d="M246.84587,185.68853l3.5,2.25l-2.625,4.375l-3.25,-2.625" data-paper-data="{&quot;index&quot;:null}" fill="#0256f6" stroke="#174752" stroke-width="0.5" stroke-linecap="round"/><path d="M248.60957,192.52827l0.04283,-0.88061l1.13288,-0.60691l-0.1702,-1.03807l1.05236,-0.46372l-0.24714,-0.96825l1.25476,0.55646l0.61184,1.25587l1.20412,-0.25307l0.81348,0.24793l-1.80457,3.16822z" data-paper-data="{&quot;index&quot;:null}" fill="#df9431" stroke="#692206" stroke-width="0" stroke-linecap="round"/><path d="M244.72711,172.0091l3.29134,-2.90622l4.18153,-1.08101l2.12011,3.60647l-1.31709,0.71175l-1.20076,-0.33301l-0.42214,1.18982l-1.07373,0.60044l-3.59812,1.89135" fill="#a6521b" stroke="#174752" stroke-width="0.5" stroke-linecap="round"/><path d="M243.93754,172.37505l3.25,-2.625l2.625,4.375l-3.5,2.25" fill="#0256f6" stroke="#174752" stroke-width="0.5" stroke-linecap="round"/><path d="M236.74889,193.07573l-9.03232,-0.03598c0,0 -4.81039,-2.65668 -5.09363,-12.37922c-0.13711,-7.83926 4.67481,-10.8898 4.67481,-10.8898l8.06092,-0.39206c0,0 -0.54164,-2.45046 1.04856,-3.01064c1.59022,-0.56017 4.46951,-0.19814 6.04923,1.00033c1.14638,0.86971 0.52931,2.47111 0.52931,2.47111c0,0 3.35172,3.14326 3.97637,10.33258c0.47219,5.43445 -2.42992,10.46945 -2.42992,10.46945c0,0 0.36198,1.37216 -0.16105,2.38921c-0.65801,1.27955 -3.54643,2.66856 -6.26907,2.21598c-1.08637,-0.18059 -1.35324,-2.17097 -1.35324,-2.17097z" fill="url(#color-1)" stroke="#174752" stroke-width="0.5" stroke-linecap="round"/><path d="M241.27164,169.66272l-4.12372,-0.46355c0,0 -0.4295,-1.42433 0.32313,-1.62497c0.75263,-0.20066 2.42045,-0.09428 3.6307,0.57079c1.21026,0.66507 0.16989,1.51774 0.16989,1.51774z" data-paper-data="{&quot;index&quot;:null}" fill="#df9431" stroke="#1743af" stroke-width="0.25" stroke-linecap="round"/><path d="M242.55838,191.63474c0,0 1.04291,0.76868 -0.16297,1.41287c-1.20587,0.6442 -2.87125,0.77978 -3.62389,0.61011c-0.75263,-0.16967 -0.32996,-1.50152 -0.32996,-1.50152l4.1168,-0.52143z" data-paper-data="{&quot;index&quot;:null}" fill="#df9431" stroke="#1743af" stroke-width="0.25" stroke-linecap="round"/><path d="M242.33038,170.14767c0,0 4.38718,2.11755 4.7937,10.1936c0.38305,7.60985 -4.82685,11.35664 -4.82685,11.35664l-3.70228,0.10284c0,0 -1.68573,-0.12078 -1.87132,-3.53904c-0.19428,-3.57854 4.32546,-7.93391 4.32546,-7.93391c0,0 -4.87434,-4.61346 -5.3982,-7.7699c-0.1937,-1.16702 0.62812,-2.9655 0.62812,-2.9655z" fill="#df9431" stroke="#34418a" stroke-width="0.5" stroke-linecap="round"/><path d="M251.9666,168.51746l1.80457,3.16822l-0.81348,0.24793l-1.20412,-0.25307l-0.61184,1.25587l-1.25476,0.55646l0.24714,-0.96825l-1.05236,-0.46372l0.1702,-1.03807l-1.13288,-0.60691l-0.04283,-0.88061z" fill="#df9431" stroke="#692206" stroke-width="0" stroke-linecap="round"/><path d="M239.50429,177.31655h-1.93241c0,0 -0.22085,-0.55782 -0.22085,-0.82772c0,-0.25842 0.03786,-1.10165 0.03786,-1.10165l1.80946,0.11431c0,0 0.13084,0.67212 0.13084,0.94201c0,0.25842 0.1751,0.87306 0.1751,0.87306z" fill="url(#color-2)" stroke="none" stroke-width="0" stroke-linecap="butt"/><path d="M239.19476,175.51331h-1.85164c0,0 0.09225,-0.57385 0.09225,-0.85549c0,-0.26966 0.17866,-0.79172 0.17866,-0.79172l1.89026,0.04892c0,0 -0.22085,0.58207 -0.22085,0.86371c0,0.26966 -0.08867,0.73457 -0.08867,0.73457z" fill="url(#color-3)" stroke="none" stroke-width="0" stroke-linecap="butt"/><path d="M237.32789,175.52754c0,-2.6867 1.94147,-4.86469 4.3364,-4.86469c1.47771,0 1.65891,-0.11264 1.65891,-0.11264l0.70786,9.71793c0,0 -1.32945,0.1241 -2.36677,0.1241c-2.39494,0 -4.3364,-2.17799 -4.3364,-4.86469z" fill="#fadd3f" stroke="none" stroke-width="0" stroke-linecap="butt"/><path d="M238.7426,175.52754c0,-2.6867 1.94147,-4.8647 4.33641,-4.8647c2.39494,0 4.3364,2.17799 4.3364,4.8647c0,2.6867 -1.94147,4.8647 -4.3364,4.8647c-2.39494,0 -4.33641,-2.178 -4.33641,-4.8647z" fill="#ffc01e" stroke="none" stroke-width="0" stroke-linecap="butt"/><path d="M240.0535,175.52753c0,-1.98807 1.43661,-3.5997 3.20878,-3.5997c1.77217,0 3.20878,1.61164 3.20878,3.59971c0,1.98807 -1.43661,3.5997 -3.20878,3.5997c-1.77217,0 -3.20878,-1.61164 -3.20878,-3.5997z" fill="#c023a5" stroke="none" stroke-width="0" stroke-linecap="butt"/><path d="M240.77341,173.4354l5.22455,3.92275c0,0 -0.11808,0.51539 -0.902,1.17584c-0.78391,0.66045 -1.19605,0.43942 -1.19605,0.43942l-3.86698,-2.81515c0,0 -0.00932,-0.80551 0.18516,-1.56313c0.16083,-0.62658 0.55533,-1.15973 0.55533,-1.15973z" fill="#ffffff" stroke="#000000" stroke-width="0" stroke-linecap="round"/><path d="M246.24478,176.75819l-5.10113,-3.96888l0.57594,-0.50766l4.7293,3.5997c0,0 -0.02422,0.33973 -0.05316,0.4939c-0.02548,0.13575 -0.15095,0.38294 -0.15095,0.38294z" fill="#ffffff" stroke="#000000" stroke-width="0" stroke-linecap="round"/><path d="M241.87199,178.73472c0,0 -1.99243,-0.54462 -1.8887,-3.87227c0.21296,-2.66996 2.47484,-2.84941 2.47484,-2.84941c0,0 -0.89932,1.74534 -1.10717,3.14165c-0.1441,0.96803 0.52102,3.58003 0.52102,3.58003z" fill="url(#color-4)" stroke="#000000" stroke-width="0" stroke-linecap="round"/><path d="M240.04089,170.94825c0.96656,-0.40071 2.62294,-0.34008 2.62294,-0.34008l-2.76792,1.75956h-1.47622c0,0 0.65465,-1.01877 1.6212,-1.41949z" fill="#ffc01e" stroke="#000000" stroke-width="0" stroke-linecap="round"/><path d="M242.66382,180.33754c0,0 -2.04238,0.26232 -3.04471,-0.31051c-1.00233,-0.57282 -1.84528,-2.48409 -1.84528,-2.48409l1.29169,-0.10351z" fill="#ffc01e" stroke="#000000" stroke-width="0" stroke-linecap="round"/><path d="M239.44343,187.07813h-1.93241c0,0 -0.22085,-0.55781 -0.22085,-0.82772c0,-0.25842 0.03786,-1.10164 0.03786,-1.10164l1.80946,0.11431c0,0 0.13084,0.67213 0.13084,0.94202c0,0.25842 0.1751,0.87305 0.1751,0.87305z" fill="url(#color-5)" stroke="none" stroke-width="0" stroke-linecap="butt"/><path d="M239.13391,185.27489h-1.85164c0,0 0.09225,-0.57385 0.09225,-0.85549c0,-0.26966 0.17866,-0.79172 0.17866,-0.79172l1.89026,0.04892c0,0 -0.22085,0.58206 -0.22085,0.8637c0,0.26966 -0.08867,0.73457 -0.08867,0.73457z" fill="url(#color-6)" stroke="none" stroke-width="0" stroke-linecap="butt"/><path d="M237.26704,185.28912c0,-2.6867 1.94147,-4.86469 4.3364,-4.86469c1.47771,0 1.65891,-0.11264 1.65891,-0.11264l0.70786,9.71793c0,0 -1.32945,0.1241 -2.36677,0.1241c-2.39494,0 -4.3364,-2.178 -4.3364,-4.86469z" fill="#fadd3f" stroke="none" stroke-width="0" stroke-linecap="butt"/><path d="M238.68175,185.28912c0,-2.6867 1.94147,-4.8647 4.33641,-4.8647c2.39494,0 4.3364,2.178 4.3364,4.8647c0,2.6867 -1.94147,4.8647 -4.3364,4.8647c-2.39494,0 -4.33641,-2.178 -4.33641,-4.8647z" fill="#ffc01e" stroke="none" stroke-width="0" stroke-linecap="butt"/><path d="M239.99266,185.2891c0,-1.98807 1.43661,-3.59971 3.20878,-3.59971c1.77217,0 3.20878,1.61165 3.20878,3.59971c0,1.98807 -1.43661,3.59969 -3.20878,3.59969c-1.77217,0 -3.20878,-1.61163 -3.20878,-3.59969z" fill="#c023a5" stroke="none" stroke-width="0" stroke-linecap="butt"/><path d="M240.71257,183.19697l5.22455,3.92275c0,0 -0.11808,0.51538 -0.902,1.17583c-0.78391,0.66045 -1.19605,0.43942 -1.19605,0.43942l-3.86698,-2.81515c0,0 -0.00932,-0.80551 0.18516,-1.56313c0.16083,-0.62658 0.55533,-1.15972 0.55533,-1.15972z" fill="#ffffff" stroke="#000000" stroke-width="0" stroke-linecap="round"/><path d="M246.18394,186.51977l-5.10113,-3.96889l0.57594,-0.50765l4.7293,3.59969c0,0 -0.02422,0.33973 -0.05316,0.49391c-0.02548,0.13575 -0.15095,0.38294 -0.15095,0.38294z" fill="#ffffff" stroke="#000000" stroke-width="0" stroke-linecap="round"/><path d="M241.81114,188.49629c0,0 -1.99243,-0.54461 -1.8887,-3.87226c0.21296,-2.66996 2.47483,-2.84941 2.47483,-2.84941c0,0 -0.89932,1.74534 -1.10717,3.14165c-0.1441,0.96803 0.52102,3.58002 0.52102,3.58002z" fill="url(#color-7)" stroke="#000000" stroke-width="0" stroke-linecap="round"/><path d="M239.98003,180.70982c0.96656,-0.40071 2.62293,-0.34008 2.62293,-0.34008l-2.76792,1.75956h-1.47622c0,0 0.65465,-1.01877 1.6212,-1.41948z" fill="#ffc01e" stroke="#000000" stroke-width="0" stroke-linecap="round"/><path d="M242.60297,190.09912c0,0 -2.04237,0.26232 -3.04471,-0.31051c-1.00233,-0.57282 -1.84528,-2.48409 -1.84528,-2.48409l1.29169,-0.10351z" fill="#ffc01e" stroke="#000000" stroke-width="0" stroke-linecap="round"/><path d="M232.08063,182.64105h-1.93241c0,0 -0.22085,-0.55781 -0.22085,-0.82771c0,-0.25842 0.03786,-1.10165 0.03786,-1.10165l1.80946,0.11431c0,0 0.13084,0.67212 0.13084,0.94201c0,0.25842 0.1751,0.87305 0.1751,0.87305z" fill="url(#color-8)" stroke="none" stroke-width="0" stroke-linecap="butt"/><path d="M231.7711,180.83781h-1.85164c0,0 0.09225,-0.57385 0.09225,-0.85549c0,-0.26966 0.17866,-0.79172 0.17866,-0.79172l1.89026,0.04892c0,0 -0.22085,0.58207 -0.22085,0.86371c0,0.26966 -0.08867,0.73457 -0.08867,0.73457z" fill="url(#color-9)" stroke="none" stroke-width="0" stroke-linecap="butt"/><path d="M229.90422,180.85204c0,-2.6867 1.94147,-4.86469 4.3364,-4.86469c1.47771,0 1.65891,-0.11264 1.65891,-0.11264l0.70786,9.71793c0,0 -1.32945,0.1241 -2.36676,0.1241c-2.39494,0 -4.3364,-2.178 -4.3364,-4.86469z" fill="#fadd3f" stroke="none" stroke-width="0" stroke-linecap="butt"/><path d="M231.31895,180.85204c0,-2.6867 1.94147,-4.8647 4.33641,-4.8647c2.39494,0 4.3364,2.178 4.3364,4.8647c0,2.6867 -1.94147,4.8647 -4.3364,4.8647c-2.39494,0 -4.33641,-2.178 -4.33641,-4.8647z" fill="#ffc01e" stroke="none" stroke-width="0" stroke-linecap="butt"/><path d="M232.62984,180.85202c0,-1.98807 1.43662,-3.59971 3.20878,-3.59971c1.77217,0 3.20878,1.61164 3.20878,3.59971c0,1.98807 -1.43661,3.59969 -3.20878,3.59969c-1.77217,0 -3.20878,-1.61163 -3.20878,-3.59969z" fill="#c023a5" stroke="none" stroke-width="0" stroke-linecap="butt"/><path d="M233.34975,178.75989l5.22455,3.92275c0,0 -0.11809,0.51539 -0.902,1.17584c-0.78391,0.66045 -1.19605,0.43942 -1.19605,0.43942l-3.86699,-2.81515c0,0 -0.00932,-0.80551 0.18516,-1.56312c0.16083,-0.62658 0.55533,-1.15973 0.55533,-1.15973z" fill="#ffffff" stroke="#000000" stroke-width="0" stroke-linecap="round"/><path d="M238.82112,182.08269l-5.10113,-3.96889l0.57594,-0.50765l4.7293,3.59969c0,0 -0.02422,0.33973 -0.05316,0.49391c-0.02548,0.13575 -0.15095,0.38294 -0.15095,0.38294z" fill="#ffffff" stroke="#000000" stroke-width="0" stroke-linecap="round"/><path d="M234.44832,184.05921c0,0 -1.99243,-0.54461 -1.8887,-3.87226c0.21296,-2.66996 2.47483,-2.84941 2.47483,-2.84941c0,0 -0.89932,1.74534 -1.10717,3.14165c-0.1441,0.96803 0.52102,3.58003 0.52102,3.58003z" fill="url(#color-10)" stroke="#000000" stroke-width="0" stroke-linecap="round"/><path d="M232.61723,176.27274c0.96656,-0.40071 2.62293,-0.34008 2.62293,-0.34008l-2.76792,1.75956h-1.47622c0,0 0.65465,-1.01877 1.6212,-1.41949z" fill="#ffc01e" stroke="#000000" stroke-width="0" stroke-linecap="round"/><path d="M235.24016,185.66204c0,0 -2.04237,0.26232 -3.04471,-0.31051c-1.00233,-0.57282 -1.84528,-2.48409 -1.84528,-2.48409l1.29169,-0.10351z" fill="#ffc01e" stroke="#000000" stroke-width="0" stroke-linecap="round"/></g></g></svg>