<svg version="1.1" xmlns="http://www.w3.org/2000/svg" xmlns:xlink="http://www.w3.org/1999/xlink" width="23.04083" height="12.32867" viewBox="0,0,23.04083,12.32867"><g transform="translate(-242.48987,-175.03999)"><g data-paper-data="{&quot;isPaintingLayer&quot;:true}" fill-rule="nonzero" stroke="none" stroke-width="0.5" stroke-linecap="butt" stroke-linejoin="miter" stroke-miterlimit="10" stroke-dasharray="" stroke-dashoffset="0" style="mix-blend-mode: normal"><g><path d="M251.56628,183.01116c-1.11003,1.44895 -2.55312,3.23932 -4.25305,4.03361c-0.66817,0.31221 -1.87606,0.49828 -2.53603,0.08589c-1.53054,-0.95638 -0.88154,-3.20912 -0.15349,-4.35234c1.41485,-2.22166 3.42742,-2.46142 5.89486,-2.12587c0.26977,0.21728 0.53953,0.43456 0.8093,0.65184l0.43978,0.66071c0,0 0.35583,0.59781 -0.17014,0.99971c-0.01853,0.02984 -0.03124,0.04644 -0.03124,0.04644z" data-paper-data="{&quot;index&quot;:null}" fill="#ffe010"/><path d="M250.5312,178.58702c0.57901,0.32081 0.31426,0.96416 0.31426,0.96416l-0.33862,0.71784c-0.23516,0.25434 -0.47032,0.50867 -0.70548,0.763c-2.39202,0.69216 -4.41803,0.74876 -6.14205,-1.24254c-0.88714,-1.02468 -1.85805,-3.15855 -0.48353,-4.32812c0.59269,-0.50432 1.8148,-0.49656 2.52139,-0.28525c1.79767,0.53761 3.48666,2.09814 4.79633,3.36952c0,0 0.01499,0.01456 0.03768,0.04138z" fill="#ffbf01"/><path d="M247.91031,182.65024c-0.80629,0.00872 -1.74264,-0.04522 -2.15797,-0.6794c-1.09603,-1.67352 -0.18161,-1.91906 1.12996,-2.37269c1.11556,-0.38584 2.26207,-0.3103 3.41284,-0.34491c1.15586,-0.03476 2.36001,-0.23138 3.49958,-0.41986c1.73268,-0.12853 6.05258,-0.8689 5.93953,1.96097c-0.02018,0.5052 -0.06991,1.08732 -0.41175,1.45985c-0.55987,0.61014 -2.22446,0.37785 -2.96397,0.40124c-2.63958,0.08346 -5.22598,-0.02389 -7.87089,0.17021c0,0 -0.33155,0.02433 -0.57731,-0.17542z" fill="#875020"/><path d="M258.87523,184.33206c-0.15983,-0.15613 -0.22307,-0.34808 -0.22307,-0.34808l-0.24718,-0.82464c-0.06624,-0.91436 -0.2134,-1.80602 -0.28054,-2.72091c-0.13604,-0.81786 -0.73941,-2.65696 0.1809,-3.27404c0.51622,-0.34614 1.89419,0.43293 2.38482,0.63509c1.0831,0.44627 2.18455,0.6899 3.20357,1.28542c0.31866,0.18623 0.73647,0.27072 0.94688,0.57396c0.35153,0.50662 0.77192,1.12606 0.65247,1.73101c-0.0916,0.46389 -0.76152,0.56147 -1.15648,0.82145c-0.71107,0.46804 -1.50889,0.78887 -2.27045,1.16928c-0.35004,0.17484 -2.5178,1.4634 -2.92263,1.29444c-0.11173,-0.04663 -0.19925,-0.17211 -0.26828,-0.34298z" fill="#c8c7d0"/><path d="M259.00822,181.16876c-0.03463,0.01521 -0.07209,0.02901 -0.11258,0.04118c-0.70214,0.211 -0.91314,-0.49114 -0.91314,-0.49114l-0.23251,-0.83438c-0.05753,-0.7951 -0.50192,-2.13204 0.02931,-2.845c1.25677,-1.68669 3.79421,0.28535 5.08476,0.91125c0.83932,0.40706 3.02041,0.99052 2.61749,2.47472c-0.12653,0.46609 -0.89355,0.37621 -1.36163,0.4952c-1.03628,0.26344 -1.97454,0.06668 -3.00816,0.14422c-0.63133,0.04736 -1.26127,0.13755 -1.89438,0.13686c0,0 -0.0912,-0.00032 -0.20916,-0.0329z" fill="#a3a6b3"/></g></g></g></svg>