<svg version="1.1" xmlns="http://www.w3.org/2000/svg" xmlns:xlink="http://www.w3.org/1999/xlink" width="27.78369" height="41.40029" viewBox="0,0,27.78369,41.40029"><g transform="translate(-226.10144,-159.29984)"><g data-paper-data="{&quot;isPaintingLayer&quot;:true}" fill="#ffffff" fill-rule="nonzero" stroke="#000000" stroke-width="0.5" stroke-linecap="square" stroke-linejoin="miter" stroke-miterlimit="10" stroke-dasharray="" stroke-dashoffset="0" style="mix-blend-mode: normal"><path d="M253.6351,186.65839c0,2.35082 -0.37722,4.38843 -1.13163,6.11282c-0.74768,1.72439 -1.79511,3.15913 -3.14228,4.30424c-1.34045,1.13837 -2.94358,1.98709 -4.80943,2.54617c-1.86584,0.55234 -3.91354,0.82851 -6.14312,0.82851c-1.01039,0 -2.04771,-0.09767 -3.11198,-0.29301c-1.05753,-0.19534 -2.10834,-0.4614 -3.1524,-0.7982c-1.03733,-0.3368 -2.04771,-0.73421 -3.03115,-1.19225c-0.98345,-0.45805 -1.89952,-0.95313 -2.74824,-1.48525l1.01039,-10.65954c0.67358,0.45805 1.42463,0.89587 2.25314,1.31349c0.83525,0.41762 1.69745,0.79146 2.58658,1.12152c0.89587,0.32333 1.79849,0.58266 2.70783,0.778c0.90935,0.1886 1.78838,0.28291 2.6371,0.28291c0.49845,0 1.00702,-0.03704 1.52568,-0.11114c0.51866,-0.08083 0.99018,-0.22566 1.41453,-0.43447c0.42436,-0.21555 0.77463,-0.51866 1.0508,-0.90935c0.27617,-0.39068 0.41425,-0.89588 0.41425,-1.51557c0,-0.38395 -0.1785,-0.74431 -0.5355,-1.08111c-0.35027,-0.3368 -0.77463,-0.62307 -1.27308,-0.85883c-0.49172,-0.24249 -1.00364,-0.42773 -1.53578,-0.55572c-0.53214,-0.13472 -0.97334,-0.20208 -1.32361,-0.20208c-0.24923,0 -0.5456,0.01348 -0.88914,0.04042c-0.34353,0.02695 -0.69379,0.06736 -1.05079,0.12125c-0.35027,0.04715 -0.69044,0.12124 -1.02049,0.22229c-0.32333,0.09431 -0.57592,0.21218 -0.75779,0.35364l0.16166,-7.58798c0.30311,0.04042 0.58603,0.07073 0.84872,0.09094c0.2627,0.01348 0.5456,0.02021 0.84872,0.02021c0.61969,0 1.28992,-0.05726 2.01067,-0.17177c0.72747,-0.11451 1.40106,-0.31658 2.02076,-0.60623c0.61969,-0.29638 1.135,-0.70053 1.54588,-1.21246c0.41762,-0.51192 0.62644,-1.17541 0.62644,-1.99045c0,-0.57929 -0.15829,-1.0508 -0.47488,-1.41454c-0.31658,-0.36373 -0.71064,-0.64327 -1.18215,-0.83861c-0.46478,-0.19534 -0.97333,-0.32669 -1.52568,-0.39404c-0.5456,-0.0741 -1.04069,-0.11114 -1.48525,-0.11114c-1.42801,0 -2.83581,0.24922 -4.22341,0.74767c-1.38758,0.49172 -2.61352,1.21583 -3.67779,2.17232l-2.22284,-9.65926c1.62335,-1.32023 3.47234,-2.33062 5.547,-3.03115c2.08139,-0.70053 4.17289,-1.0508 6.27448,-1.0508c1.92646,0 3.76873,0.27954 5.52679,0.83861c1.7648,0.55908 3.31743,1.38085 4.65787,2.46533c1.34718,1.08447 2.41818,2.42492 3.21302,4.02132c0.79484,1.58967 1.19225,3.42857 1.19225,5.5167c0,0.5995 -0.08757,1.2091 -0.2627,1.82879c-0.17513,0.61969 -0.41425,1.22256 -0.71736,1.80858c-0.30311,0.57929 -0.65675,1.12153 -1.0609,1.62672c-0.40415,0.50519 -0.83861,0.94302 -1.30339,1.31349c0.74768,0.3368 1.35728,0.78811 1.8288,1.35392c0.47825,0.56581 0.85883,1.19225 1.14174,1.87932c0.28291,0.68706 0.47825,1.4179 0.58603,2.19253c0.10777,0.76789 0.16166,1.52231 0.16166,2.26326z"/></g></g></svg>