<svg version="1.1" xmlns="http://www.w3.org/2000/svg" xmlns:xlink="http://www.w3.org/1999/xlink" width="248.9473" height="143.50846" viewBox="0,0,248.9473,143.50846"><defs><linearGradient x1="319.08248" y1="203.02188" x2="363.27599" y2="201.04937" gradientUnits="userSpaceOnUse" id="color-1"><stop offset="0" stop-color="#242324"/><stop offset="1" stop-color="#111211"/></linearGradient><linearGradient x1="319.51357" y1="176.8299" x2="363.728" y2="178.25771" gradientUnits="userSpaceOnUse" id="color-2"><stop offset="0" stop-color="#242324"/><stop offset="1" stop-color="#111211"/></linearGradient><linearGradient x1="257.04735" y1="190.5845" x2="275.97775" y2="190.46789" gradientUnits="userSpaceOnUse" id="color-3"><stop offset="0" stop-color="#ff7d05"/><stop offset="1" stop-color="#ff6902"/></linearGradient><radialGradient cx="291.11082" cy="127.80232" r="14.45916" gradientUnits="userSpaceOnUse" id="color-4"><stop offset="0" stop-color="#9d4c1b"/><stop offset="1" stop-color="#873f11"/></radialGradient><linearGradient x1="247.78008" y1="152.38025" x2="257.65301" y2="152.31941" gradientUnits="userSpaceOnUse" id="color-5"><stop offset="0" stop-color="#7a360f"/><stop offset="1" stop-color="#642d0a"/></linearGradient><linearGradient x1="250.50698" y1="132.71167" x2="258.48127" y2="132.66253" gradientUnits="userSpaceOnUse" id="color-6"><stop offset="0" stop-color="#7a360f"/><stop offset="1" stop-color="#642d0a"/></linearGradient><linearGradient x1="276.35971" y1="148.48055" x2="294.72066" y2="148.36744" gradientUnits="userSpaceOnUse" id="color-7"><stop offset="0" stop-color="#8b4115"/><stop offset="1" stop-color="#9d4b18"/></linearGradient></defs><g transform="translate(-115.52283,-108.26245)"><g data-paper-data="{&quot;isPaintingLayer&quot;:true}" fill-rule="nonzero" stroke-linejoin="miter" stroke-miterlimit="10" stroke-dasharray="" stroke-dashoffset="0" style="mix-blend-mode: normal"><path d="M302.39017,123.70177l-12.19239,-1.85278l-11.03395,15.49138l-2.5211,-10.93862l3.89419,-7.99859c0,0 8.13057,0.3558 12.41594,0.7683c3.96064,0.38121 12.57798,2.23252 12.57798,2.23252z" fill="none" stroke="#793813" stroke-width="0" stroke-linecap="round"/><path d="M227.38737,139.97428l-11.19263,1.58793l2.62765,-4.95288l-11.23824,-5.81676l11.57235,-1.59026l-0.76765,-1.32434c0,0 2.77932,-1.956 4.73613,-1.73804c1.95671,0.21795 4.95405,2.81756 4.95405,2.81756z" fill="none" stroke="#793813" stroke-width="0" stroke-linecap="round"/><path d="M259.33056,116.42327c0,0 0.09528,-12.27762 11.16107,-6.7143c10.83395,5.44675 3.49828,13.0796 3.49828,13.0796z" fill="none" stroke="#793813" stroke-width="0" stroke-linecap="round"/><path d="M232.26387,161.02003c-10.49759,-13.04891 -6.57618,-35.74453 3.90795,-43.69457c8.93878,-6.77818 30.93792,-0.00841 39.34173,6.21324c4.52631,3.35099 6.13635,31.91087 -2.80859,37.23212c-3.19948,1.90333 -30.31195,12.84011 -40.44112,0.24919z" fill="none" stroke="#793813" stroke-width="0" stroke-linecap="round"/><path d="M312.45773,136.25886l-3.97089,-4.44482l-1.70888,7.10884l-1.84402,-0.60209l-6.72955,-11.26323l6.54093,-5.123l1.40204,-0.00864l2.57311,5.15452l6.96107,6.17906z" fill="none" stroke="#793813" stroke-width="0" stroke-linecap="round"/><path d="M130.23452,214.0082l-13.04521,-1.72997l5.90809,-10.71746z" fill="none" stroke="#292929" stroke-width="0" stroke-linecap="round"/><path d="M125.67145,208.15825c-5.38864,-10.86644 -7.52325,-21.60368 -4.2473,-32.72993c3.46659,-11.77366 12.29217,-21.249 23.80242,-26.95694c15.94738,-7.90828 38.48417,-3.66299 49.64963,3.29977c5.83768,3.64039 8.15008,12.28734 11.34057,18.72111c11.09081,22.36519 1.93286,49.49558 -20.45476,60.59756c-9.71315,4.8167 -22.24405,5.86893 -31.82,1.50235c-4.40891,-2.01044 -24.20708,-16.23974 -28.27054,-24.43395z" fill="none" stroke="#292929" stroke-width="0" stroke-linecap="butt"/><path d="M207.46318,204.14851c3.47843,1.76952 0.21085,6.99966 -2.38283,12.09824c-2.59368,5.09854 -10.24666,6.4782 -10.24666,6.4782c0,0 -0.29039,-7.4346 0.92754,-9.82871c2.59368,-5.09854 8.22349,-10.5172 11.70192,-8.74768z" fill="none" stroke="#292929" stroke-width="0" stroke-linecap="butt"/><path d="M182.66423,231.96967l-11.10217,19.80125l-11.87615,-17.66825c0,0 4.19767,0.55133 7.24369,0.32159c4.33251,-0.32676 15.7346,-2.45455 15.7346,-2.45455z" fill="none" stroke="#292929" stroke-width="0" stroke-linecap="round"/><path d="M183.95477,147.59952l19.13879,-8.26451l-1.31104,22.27535c0,0 -3.68399,-7.24465 -6.70533,-9.61912c-2.91761,-2.29298 -11.12238,-4.39175 -11.12238,-4.39175z" fill="none" stroke="#292929" stroke-width="0" stroke-linecap="round"/><path d="M123.26208,169.51657l-7.73925,-22.03858l22.47536,4.38736c0,0 -0.08298,2.35668 -1.445,3.94913c-1.21279,1.41806 -4.03302,3.83253 -6.76273,6.65488c-3.33013,3.44316 -6.52842,7.04716 -6.52842,7.04716z" fill="none" stroke="#292929" stroke-width="0" stroke-linecap="round"/><path d="M143.84316,228.88759l-11.92812,-10.28727l0.47249,-4.68193c0,0 4.84792,-3.29831 10.87093,1.437c4.60871,3.6234 6.93359,13.32599 6.93359,13.32599z" fill="none" stroke="#292929" stroke-width="0" stroke-linecap="round"/><path d="M146.2732,231.46975l-20.59255,7.36829l4.56841,-22.47647c0,0 7.10354,2.16731 9.83854,4.78073c2.84525,2.71875 6.18556,10.32741 6.18556,10.32741z" fill="none" stroke="#292929" stroke-width="0" stroke-linecap="round"/><path d="M196.38559,225.91099c0,0 0.70621,-7.0865 4.52885,-12.05375c3.11649,-4.04961 9.29538,-6.67802 9.29538,-6.67802l8.27233,20.40594z" fill="none" stroke="#292929" stroke-width="0" stroke-linecap="round"/><path d="M195.86408,175.64587c-3.74804,-7.28816 0.13449,-12.55152 0.13449,-12.55152l20.10636,1.86752l-9.30302,17.97978c0,0 -7.26267,1.00089 -10.93782,-7.29571z" fill="none" stroke="#292929" stroke-width="0" stroke-linecap="round"/><path d="M151.1809,146.53418l10.57247,-17.6255l12.41252,16.57872c0,0 -6.26366,5.47291 -10.43913,5.68984c-9.45923,0.49142 -12.54583,-4.64302 -12.54583,-4.64302z" fill="none" stroke="#292929" stroke-width="0" stroke-linecap="round"/><path d="M283.93741,138.53441l-14.12022,0.08698c0,0 -0.00621,-1.00987 -0.00889,-1.44364c-0.00222,-0.35598 0.75063,-0.97676 1.49442,-0.98135c2.15715,-0.01329 12.61974,-0.07776 12.61974,-0.07776z" data-paper-data="{&quot;index&quot;:null}" fill="none" stroke="#292929" stroke-width="0" stroke-linecap="butt"/><path d="M293.22544,136.06138c1.10346,-0.0068 1.87388,0.76352 1.87632,1.15987c0.00254,0.40848 0.00766,1.24435 0.00766,1.24435l-12.7237,0.07843l-0.01487,-2.41575c0,0 8.60463,-0.05301 10.85459,-0.06687z" data-paper-data="{&quot;index&quot;:null}" fill="none" stroke="#292929" stroke-width="0" stroke-linecap="butt"/><path d="M316.6221,138.33305l-14.12022,0.087c0,0 -0.0062,-1.00988 -0.00888,-1.44365c-0.00222,-0.35598 0.75064,-0.97675 1.49443,-0.98134c2.15715,-0.01329 12.61973,-0.07777 12.61973,-0.07777z" data-paper-data="{&quot;index&quot;:null}" fill="none" stroke="#292929" stroke-width="0" stroke-linecap="butt"/><path d="M327.7864,137.0199c0.0025,0.40851 0.00766,1.24436 0.00766,1.24436l-12.72371,0.07842l-0.01487,-2.41574c0,0 8.60464,-0.05302 10.8546,-0.06688c1.10346,-0.0068 1.87388,0.76353 1.87632,1.15988z" data-paper-data="{&quot;index&quot;:null}" fill="none" stroke="#292929" stroke-width="0" stroke-linecap="butt"/><path d="M334.2948,138.11805c1.14586,-0.00707 2.59649,0.89855 2.59946,1.37909c0.00316,0.51371 0.00984,1.59435 0.00984,1.59435l-12.65531,0.07797l-0.01843,-2.98945c0,0 7.80605,-0.04808 10.06448,-0.06199z" data-paper-data="{&quot;index&quot;:null}" fill="none" stroke="#292929" stroke-width="0" stroke-linecap="butt"/><path d="M262.34367,142.77236l0.11558,18.76108" data-paper-data="{&quot;index&quot;:null}" fill="none" stroke="#292929" stroke-width="0" stroke-linecap="round"/><path d="M261.35502,142.56822l75.90007,-0.46765z" data-paper-data="{&quot;index&quot;:null}" fill="none" stroke="#292929" stroke-width="0" stroke-linecap="round"/><path d="M337.01911,160.28407l-0.11074,-17.97114" data-paper-data="{&quot;index&quot;:null}" fill="none" stroke="#292929" stroke-width="0" stroke-linecap="round"/><path d="M324.4484,141.22583l-62.55839,19.93723c0,0 -0.12814,-20.79532 -0.1315,-21.3447c-0.00286,-0.46684 0.81248,-1.30052 1.88533,-1.30712c6.07904,-0.03745 60.78554,-0.37452 60.78554,-0.37452z" data-paper-data="{&quot;index&quot;:null}" fill="none" stroke="#292929" stroke-width="0" stroke-linecap="butt"/><path d="M284.58489,243.61985c0,0 -10.46259,0.06447 -12.61974,0.07777c-0.74382,0.0046 -1.50421,-0.60692 -1.50641,-0.96287c-0.00269,-0.43381 -0.00889,-1.44364 -0.00889,-1.44364l14.12023,-0.08699z" fill="none" stroke="#292929" stroke-width="0" stroke-linecap="butt"/><path d="M293.88778,243.56247c-2.24999,0.01384 -10.85459,0.06688 -10.85459,0.06688l-0.01488,-2.41574l12.7237,-0.07841c0,0 0.00516,0.83585 0.00765,1.24435c0.00245,0.39635 -0.75841,1.17609 -1.86189,1.18288z" fill="none" stroke="#292929" stroke-width="0" stroke-linecap="butt"/><path d="M317.26958,243.41842c0,0 -10.46258,0.06448 -12.61973,0.07777c-0.74382,0.0046 -1.50421,-0.60692 -1.50641,-0.96287c-0.00269,-0.43381 -0.00889,-1.44364 -0.00889,-1.44364l14.12023,-0.08699z" fill="none" stroke="#292929" stroke-width="0" stroke-linecap="butt"/><path d="M326.57246,243.3611c-2.24999,0.01384 -10.85459,0.06687 -10.85459,0.06687l-0.01488,-2.41575l12.72371,-0.07841c0,0 0.00515,0.83586 0.00765,1.24436c0.00245,0.39635 -0.7584,1.17613 -1.86188,1.18292z" fill="none" stroke="#292929" stroke-width="0" stroke-linecap="butt"/><path d="M328.62709,197.90218l-13.18917,0.08125l-0.11284,-18.30967l13.18918,-0.08126z" fill="none" stroke="#292929" stroke-width="0" stroke-linecap="butt"/><path d="M334.92871,240.99997c-2.25844,0.01391 -10.06448,0.062 -10.06448,0.062l-0.01843,-2.98944l12.65532,-0.07797c0,0 0.00666,1.08062 0.00982,1.59435c0.00296,0.48055 -1.43641,1.404 -2.58227,1.41103z" fill="none" stroke="#292929" stroke-width="0" stroke-linecap="butt"/><path d="M262.81008,218.47146l0.1156,18.76108" fill="none" stroke="#292929" stroke-width="0" stroke-linecap="round"/><path d="M337.83968,236.98118l-75.90007,0.46764z" fill="none" stroke="#292929" stroke-width="0" stroke-linecap="round"/><path d="M337.06936,218.80389l0.11073,17.97114" fill="none" stroke="#292929" stroke-width="0" stroke-linecap="round"/><path d="M358.29598,208.76404l-16.021,10.84169l-36.34332,-0.76354l13.21445,-13.53288z" fill="none" stroke="#292929" stroke-width="0" stroke-linecap="round"/><path d="M319.22346,175.04952l-14.41392,-15.32345l37.59918,-0.40236l16.434,11.41074z" data-paper-data="{&quot;index&quot;:null}" fill="none" stroke="#292929" stroke-width="0" stroke-linecap="round"/><path d="M363.41685,204.20607l-43.88601,1.50509l-0.59981,-7.5528l44.20403,-0.26571z" fill="none" stroke="#292929" stroke-width="0" stroke-linecap="butt"/><path d="M363.62604,181.41595l-44.83031,-0.64812l0.82274,-6.63048l44.21158,0.96228z" data-paper-data="{&quot;index&quot;:null}" fill="none" stroke="#292929" stroke-width="0" stroke-linecap="butt"/><path d="M251.90561,219.40764c-0.67824,0.0093 -1.90436,-0.73496 -1.92448,-1.72482c-0.10119,-4.98012 -0.92134,-45.34645 -1.11269,-54.76391c-0.02548,-1.25388 1.19389,-1.97604 2.67849,-1.99644c6.72837,-0.0922 55.23522,-1.35851 55.23522,-1.35851l12.66592,12.84972l-0.14567,8.51863l-5.46861,0.04078l0.34088,16.82813l5.23246,0.12417l0.05779,9.37956l-13.47906,11.73507c0,0 -49.32325,0.30224 -54.08025,0.36751z" fill="none" stroke="#292929" stroke-width="0" stroke-linecap="round"/><path d="M250.11074,198.07556l-20.48202,0.12621l-0.09463,-15.36154l20.48201,-0.12621z" fill="none" stroke="#292929" stroke-width="0" stroke-linecap="butt"/><path d="M325.06382,241.10284c0,0 -54.70653,0.33704 -60.78554,0.37451c-1.07289,0.0066 -1.89841,-0.81695 -1.90131,-1.28378c-0.0034,-0.54935 -0.1315,-21.3447 -0.1315,-21.3447l62.79931,19.16483z" fill="none" stroke="#292929" stroke-width="0" stroke-linecap="butt"/><path d="M171.75646,157.86331l53.36524,3.29185l5.86279,11.30872l0.20672,33.5505l-5.96437,11.3816l-52.12567,2.01085z" fill="none" stroke="#292929" stroke-width="0" stroke-linecap="round"/><path d="M283.93741,138.53441l-14.12022,0.08698c0,0 -0.00621,-1.00987 -0.00889,-1.44364c-0.00222,-0.35598 0.75063,-0.97676 1.49442,-0.98135c2.15715,-0.01329 12.61974,-0.07776 12.61974,-0.07776z" data-paper-data="{&quot;index&quot;:null}" fill="#ff8303" stroke="none" stroke-width="0" stroke-linecap="butt"/><path d="M293.22544,136.06138c1.10346,-0.0068 1.87388,0.76352 1.87632,1.15987c0.00254,0.40848 0.00766,1.24435 0.00766,1.24435l-12.7237,0.07843l-0.01487,-2.41575c0,0 8.60463,-0.05301 10.85459,-0.06687z" data-paper-data="{&quot;index&quot;:null}" fill="#ff4500" stroke="none" stroke-width="0" stroke-linecap="butt"/><path d="M316.6221,138.33305l-14.12022,0.087c0,0 -0.0062,-1.00988 -0.00888,-1.44365c-0.00222,-0.35598 0.75064,-0.97675 1.49443,-0.98134c2.15715,-0.01329 12.61973,-0.07777 12.61973,-0.07777z" data-paper-data="{&quot;index&quot;:null}" fill="#ff8303" stroke="none" stroke-width="0" stroke-linecap="butt"/><path d="M327.7864,137.0199c0.0025,0.40851 0.00766,1.24436 0.00766,1.24436l-12.72371,0.07842l-0.01487,-2.41574c0,0 8.60464,-0.05302 10.8546,-0.06688c1.10346,-0.0068 1.87388,0.76353 1.87632,1.15988z" data-paper-data="{&quot;index&quot;:null}" fill="#ff4500" stroke="none" stroke-width="0" stroke-linecap="butt"/><path d="M322.95196,160.56827l-60.43045,0.37233l-0.10707,-17.3787l60.43043,-0.37233z" data-paper-data="{&quot;index&quot;:null}" fill="#1e1f1e" stroke="none" stroke-width="0" stroke-linecap="butt"/><path d="M336.58448,161.47174l-13.03405,0.0803l-0.11546,-18.73912l13.03405,-0.08031z" data-paper-data="{&quot;index&quot;:null}" fill="#111211" stroke="none" stroke-width="0" stroke-linecap="butt"/><path d="M277.8607,161.0436l-0.11073,-17.97114" data-paper-data="{&quot;index&quot;:null}" fill="none" stroke="#515151" stroke-width="0" stroke-linecap="round"/><path d="M289.70857,160.77308l-0.11073,-17.97113" data-paper-data="{&quot;index&quot;:null}" fill="none" stroke="#515151" stroke-width="0" stroke-linecap="round"/><path d="M302.15135,160.89388l-0.1095,-17.77362" data-paper-data="{&quot;index&quot;:null}" fill="none" stroke="#515151" stroke-width="0" stroke-linecap="round"/><path d="M323.76519,142.98636l0.11441,18.56361" data-paper-data="{&quot;index&quot;:null}" fill="none" stroke="#515151" stroke-width="0" stroke-linecap="round"/><path d="M265.81772,161.71024l-0.1095,-17.77362" data-paper-data="{&quot;index&quot;:null}" fill="none" stroke="#515151" stroke-width="0" stroke-linecap="round"/><path d="M288.92112,161.17296l-0.11559,-18.76109" data-paper-data="{&quot;index&quot;:null}" fill="none" stroke="#070707" stroke-width="0" stroke-linecap="round"/><path d="M300.77266,161.49487l-0.11559,-18.76108" data-paper-data="{&quot;index&quot;:null}" fill="none" stroke="#070707" stroke-width="0" stroke-linecap="round"/><path d="M276.75896,142.48608l0.11558,18.76109" data-paper-data="{&quot;index&quot;:null}" fill="none" stroke="#070707" stroke-width="0" stroke-linecap="round"/><path d="M264.82915,161.51885l-0.11559,-18.76109" data-paper-data="{&quot;index&quot;:null}" fill="none" stroke="#070707" stroke-width="0" stroke-linecap="round"/><path d="M334.2948,138.11805c1.14586,-0.00707 2.59649,0.89855 2.59946,1.37909c0.00316,0.51371 0.00984,1.59435 0.00984,1.59435l-12.65531,0.07797l-0.01843,-2.98945c0,0 7.80605,-0.04808 10.06448,-0.06199z" data-paper-data="{&quot;index&quot;:null}" fill="#030403" stroke="none" stroke-width="0" stroke-linecap="butt"/><path d="M327.44116,141.74779l-2.11163,-3.07623" data-paper-data="{&quot;index&quot;:null}" fill="none" stroke="#444a44" stroke-width="0" stroke-linecap="round"/><path d="M331.62767,141.92119l-1.41594,-3.37944" data-paper-data="{&quot;index&quot;:null}" fill="none" stroke="#444a44" stroke-width="0" stroke-linecap="round"/><path d="M333.69753,138.22143l1.51743,3.67781" data-paper-data="{&quot;index&quot;:null}" fill="none" stroke="#222022" stroke-width="0" stroke-linecap="round"/><path d="M262.34367,142.77236l0.11558,18.76108" data-paper-data="{&quot;index&quot;:null}" fill="none" stroke="#070707" stroke-width="0" stroke-linecap="round"/><path d="M321.78916,142.80106l0.11559,18.76109" data-paper-data="{&quot;index&quot;:null}" fill="none" stroke="#070707" stroke-width="0" stroke-linecap="round"/><path d="M337.25506,142.10065l-75.90007,0.46765z" data-paper-data="{&quot;index&quot;:null}" fill="none" stroke="#515151" stroke-width="0" stroke-linecap="round"/><path d="M336.7088,160.28599l-0.11073,-17.97114" data-paper-data="{&quot;index&quot;:null}" fill="none" stroke="#515151" stroke-width="0" stroke-linecap="round"/><path d="M324.4484,141.22583l-62.67887,0.38619c0,0 -0.00766,-1.24432 -0.01106,-1.79367c-0.00286,-0.46684 0.81249,-1.30052 1.88535,-1.30712c6.07904,-0.03745 60.78553,-0.37452 60.78553,-0.37452z" data-paper-data="{&quot;index&quot;:null}" fill="#1e1e1e" stroke="none" stroke-width="0" stroke-linecap="butt"/><path d="M284.58489,243.61985c0,0 -10.46259,0.06447 -12.61974,0.07777c-0.74382,0.0046 -1.50421,-0.60692 -1.50641,-0.96287c-0.00269,-0.43381 -0.00889,-1.44364 -0.00889,-1.44364l14.12023,-0.08699z" fill="#ff8303" stroke="none" stroke-width="0" stroke-linecap="butt"/><path d="M293.88778,243.56247c-2.24999,0.01384 -10.85459,0.06688 -10.85459,0.06688l-0.01488,-2.41574l12.7237,-0.07841c0,0 0.00516,0.83585 0.00765,1.24435c0.00245,0.39635 -0.75841,1.17609 -1.86189,1.18288z" fill="#ff4500" stroke="none" stroke-width="0" stroke-linecap="butt"/><path d="M317.26958,243.41842c0,0 -10.46258,0.06448 -12.61973,0.07777c-0.74382,0.0046 -1.50421,-0.60692 -1.50641,-0.96287c-0.00269,-0.43381 -0.00889,-1.44364 -0.00889,-1.44364l14.12023,-0.08699z" fill="#ff8303" stroke="none" stroke-width="0" stroke-linecap="butt"/><path d="M326.57246,243.3611c-2.24999,0.01384 -10.85459,0.06687 -10.85459,0.06687l-0.01488,-2.41575l12.72371,-0.07841c0,0 0.00515,0.83586 0.00765,1.24436c0.00245,0.39635 -0.7584,1.17613 -1.86188,1.18292z" fill="#ff4500" stroke="none" stroke-width="0" stroke-linecap="butt"/><path d="M328.62709,197.90218l-13.18917,0.08125l-0.11284,-18.30967l13.18918,-0.08126z" fill="#151515" stroke="none" stroke-width="0" stroke-linecap="butt"/><path d="M323.41716,236.06988l-60.43044,0.37234l-0.10707,-17.37869l60.43046,-0.37234z" fill="#1e1f1e" stroke="none" stroke-width="0" stroke-linecap="butt"/><path d="M337.04588,236.35896l-13.03405,0.08031l-0.11545,-18.73913l13.03403,-0.0803z" fill="#111211" stroke="none" stroke-width="0" stroke-linecap="butt"/><path d="M278.21639,218.77159l0.11073,17.97113" fill="none" stroke="#515151" stroke-width="0" stroke-linecap="round"/><path d="M290.17743,236.86716l-0.11074,-17.97114" fill="none" stroke="#515151" stroke-width="0" stroke-linecap="round"/><path d="M302.61657,236.39553l-0.1095,-17.77363" fill="none" stroke="#515151" stroke-width="0" stroke-linecap="round"/><path d="M324.22554,217.6981l0.11439,18.5636" fill="none" stroke="#515151" stroke-width="0" stroke-linecap="round"/><path d="M266.16615,218.25329l0.10949,17.77363" fill="none" stroke="#515151" stroke-width="0" stroke-linecap="round"/><path d="M289.38998,237.26702l-0.1156,-18.7611" fill="none" stroke="#070707" stroke-width="0" stroke-linecap="round"/><path d="M301.23665,236.79904l-0.1156,-18.76108" fill="none" stroke="#070707" stroke-width="0" stroke-linecap="round"/><path d="M277.2278,218.58015l0.11559,18.76108" fill="none" stroke="#070707" stroke-width="0" stroke-linecap="round"/><path d="M265.29558,237.21795l-0.11559,-18.76109" fill="none" stroke="#070707" stroke-width="0" stroke-linecap="round"/><path d="M334.92871,240.99997c-2.25844,0.01391 -10.06448,0.062 -10.06448,0.062l-0.01843,-2.98944l12.65532,-0.07797c0,0 0.00666,1.08062 0.00982,1.59435c0.00296,0.48055 -1.43641,1.404 -2.58227,1.41103z" fill="#030403" stroke="none" stroke-width="0" stroke-linecap="butt"/><path d="M325.95731,240.557l2.07358,-3.10202" fill="none" stroke="#444a44" stroke-width="0" stroke-linecap="round"/><path d="M330.8407,240.62649l1.37418,-3.39663" fill="none" stroke="#444a44" stroke-width="0" stroke-linecap="round"/><path d="M335.80219,237.20773l-1.47198,3.69623" fill="none" stroke="#222022" stroke-width="0" stroke-linecap="round"/><path d="M262.81008,218.47146l0.1156,18.76108" fill="none" stroke="#070707" stroke-width="0" stroke-linecap="round"/><path d="M322.25069,217.71028l0.11559,18.76108" fill="none" stroke="#070707" stroke-width="0" stroke-linecap="round"/><path d="M337.83968,236.98118l-75.90007,0.46764z" fill="none" stroke="#515151" stroke-width="0" stroke-linecap="round"/><path d="M337.69003,218.80006l0.11073,17.97113" fill="none" stroke="#515151" stroke-width="0" stroke-linecap="round"/><path d="M364.47013,203.45011l-22.19522,16.15562l-36.34332,-0.76354l13.21446,-13.53288z" fill="#0e100e" stroke="#000000" stroke-width="0" stroke-linecap="round"/><path d="M319.22346,175.04952l-14.41392,-15.32345l37.59918,-0.40236l21.43184,16.65584z" data-paper-data="{&quot;index&quot;:null}" fill="#0e100e" stroke="#000000" stroke-width="0" stroke-linecap="round"/><path d="M319.60077,173.13719l4.85383,0.23873l2.48784,0.95471" fill="none" stroke="#7a7a7a" stroke-width="0" stroke-linecap="round"/><path d="M326.79922,205.42652l-2.36186,1.06897l-5.0084,0.25551" data-paper-data="{&quot;index&quot;:null}" fill="none" stroke="#7a7a7a" stroke-width="0" stroke-linecap="round"/><path d="M363.41685,204.20607l-43.88601,1.50509l-0.59981,-7.5528l44.20403,-0.26571z" fill="url(#color-1)" stroke="#403f40" stroke-width="0" stroke-linecap="butt"/><path d="M363.62604,181.41595l-44.83031,-0.64812l0.82274,-6.63048l44.21158,0.96228z" data-paper-data="{&quot;index&quot;:null}" fill="url(#color-2)" stroke="#403f40" stroke-width="0" stroke-linecap="butt"/><path d="M251.90561,219.40764c-0.67824,0.0093 -1.90436,-0.73496 -1.92448,-1.72482c-0.10119,-4.98012 -0.92134,-45.34645 -1.11269,-54.76391c-0.02548,-1.25388 1.19389,-1.97604 2.67849,-1.99644c6.72837,-0.0922 55.23522,-1.35851 55.23522,-1.35851l12.66592,12.84972l-0.14567,8.51863l-5.46861,0.04078l0.34088,16.82813l5.23246,0.12417l0.05779,9.37956l-13.47906,11.73507c0,0 -49.32325,0.30224 -54.08025,0.36751z" fill="#393839" stroke="#000000" stroke-width="0" stroke-linecap="round"/><path d="M248.84688,163.89606l55.88587,-0.73934l11.3345,12.56967l0.1825,29.62274l-10.60211,10.13744l-55.68835,0.7381z" fill="#1e1f1e" stroke="#000000" stroke-width="0" stroke-linecap="round"/><path d="M316.37752,199.37415l-67.58113,0.41639l-0.12115,-19.66221l67.58113,-0.41638z" fill="#2a2b2a" stroke="#393839" stroke-width="0" stroke-linecap="butt"/><path d="M250.11074,198.07556l-20.48202,0.12621l-0.09463,-15.36154l20.48201,-0.12621z" fill="#2a2b2a" stroke="none" stroke-width="0" stroke-linecap="butt"/><path d="M316.49156,192.70101l-87.20381,0.53728l-0.04685,-7.60317l87.20381,-0.53729z" fill="#636163" stroke="none" stroke-width="0" stroke-linecap="butt"/><path d="M276.03701,200.08825l-19.24065,0.11855c0,0 1.78689,-6.51626 1.4886,-10.25057c-0.3363,-4.20963 -1.45197,-8.99108 -1.45197,-8.99108l19.08553,-0.1176c0,0 3.43678,3.72922 3.47201,9.44412c0.03871,6.28387 -3.35345,9.79654 -3.35345,9.79654z" fill="url(#color-3)" stroke="none" stroke-width="0" stroke-linecap="butt"/><path d="M250.26239,199.28132l-2.51676,0.01552l-0.00979,-1.58953l2.51676,-0.01552z" fill="#2a2b2a" stroke="none" stroke-width="0" stroke-linecap="butt"/><path d="M250.16139,182.88823l-2.51676,0.01553l-0.0135,-2.19291l2.51676,-0.01551z" fill="#2a2b2a" stroke="none" stroke-width="0" stroke-linecap="butt"/><path d="M325.06382,241.10284c0,0 -54.70653,0.33704 -60.78554,0.37451c-1.07289,0.0066 -1.89841,-0.81695 -1.90131,-1.28378c-0.0034,-0.54935 -0.01105,-1.79367 -0.01105,-1.79367l62.67886,-0.3862z" fill="#1e1e1e" stroke="none" stroke-width="0" stroke-linecap="butt"/><path d="M130.23452,214.0082l-13.04521,-1.72997l5.90809,-10.71746z" fill="#dad9da" stroke="#000000" stroke-width="0" stroke-linecap="round"/><path d="M171.75646,157.86331l53.36524,3.29185l5.86279,11.30872l0.20672,33.5505l-5.96437,11.3816l-52.12567,2.01085z" fill="#1e1e1e" stroke="#000000" stroke-width="0" stroke-linecap="round"/><path d="M125.67148,208.15825c-5.38864,-10.86644 -7.52326,-21.60368 -4.2473,-32.72993c3.46659,-11.77366 12.29217,-21.24901 23.80242,-26.95694c15.94738,-7.90826 38.4842,-3.66299 49.64963,3.29977c5.83768,3.64039 8.15009,12.28734 11.34058,18.72112c11.0908,22.36519 1.93289,49.49558 -20.45476,60.59756c-9.71315,4.8167 -22.24406,5.86893 -31.82001,1.50235c-4.40891,-2.01044 -24.20707,-16.23974 -28.27053,-24.43395z" fill="#2e2e2e" stroke="#434343" stroke-width="0" stroke-linecap="butt"/><path d="M178.22358,195.70673c13.50659,-25.75476 26.96599,-15.11959 26.96599,-15.11959c0,0 11.2037,11.11434 2.78346,27.94317c-11.22,22.42464 -26.57011,19.02682 -26.57011,19.02682c0,0 -17.37931,-4.77342 -3.17936,-31.85038z" fill="#474747" stroke="none" stroke-width="0" stroke-linecap="butt"/><path d="M161.19529,145.39639c0,0 -5.904,-3.8643 -25.42864,21.12667c-2.46118,3.76862 -5.42778,16.95732 -4.6405,26.27525c1.21272,14.35225 7.39295,25.5085 7.39295,25.5085c0,0 -16.16893,-5.08702 -18.03427,-23.61314c-0.71532,-7.10473 -0.6079,-16.98967 3.70686,-25.07185c2.14893,-4.02517 5.34374,-7.91894 8.38113,-10.87729c4.65252,-5.88131 10.1628,-10.08075 14.39261,-12.11385c7.55158,-3.62973 14.22989,-1.23422 14.22989,-1.23422z" fill="#1e1e20" stroke="#000000" stroke-width="0" stroke-linecap="round"/><path d="M143.36635,171.24297c6.2247,2.29066 8.91973,10.53648 6.01948,18.41783c-2.90022,7.88124 -10.29744,12.4134 -16.5221,10.1228c-6.2247,-2.29066 -8.91973,-10.53649 -6.01948,-18.41784c2.90022,-7.88124 10.29743,-12.41339 16.52209,-10.12279z" fill="#ff8108" stroke="none" stroke-width="0" stroke-linecap="butt"/><path d="M173.89051,188.93739c8.09833,-0.04989 14.7077,7.12302 14.76251,16.02114c0.05482,8.89815 -6.46572,16.15191 -14.56398,16.2018c-8.09833,0.04989 -14.70769,-7.12301 -14.76251,-16.02113c-0.05482,-8.89815 6.46571,-16.15192 14.56398,-16.20181z" fill="#ff8108" stroke="none" stroke-width="0" stroke-linecap="butt"/><path d="M161.8853,141.97678c8.30779,-0.80245 15.40573,2.01466 15.85356,6.29217c0.44787,4.2775 -5.9239,8.39555 -14.23169,9.19804c-8.30779,0.80245 -15.40573,-2.01465 -15.85355,-6.29216c-0.44787,-4.2775 5.9239,-8.3956 14.23169,-9.19805z" fill="#ff8108" stroke="none" stroke-width="0" stroke-linecap="butt"/><path d="M207.4632,204.1485c3.47843,1.76952 0.21086,6.99967 -2.38282,12.09826c-2.59368,5.09854 -10.24667,6.4782 -10.24667,6.4782c0,0 -0.29037,-7.4346 0.92755,-9.82871c2.59368,-5.09854 8.22349,-10.5172 11.70192,-8.74768z" fill="#ff8108" stroke="none" stroke-width="0" stroke-linecap="butt"/><path d="M191.3506,160.44526c4.24879,-2.33692 13.27694,4.01017 16.52646,10.7681c3.24951,6.75793 2.34107,13.93974 -2.02901,16.04105c-4.37011,2.10135 -11.63547,-2.02889 -14.88498,-8.78681c-3.2495,-6.75793 -5.42414,-14.82592 0.3875,-18.02237z" fill="#ff8108" stroke="none" stroke-width="0" stroke-linecap="butt"/><path d="M143.7025,215.87398c3.07245,2.71359 3.92673,6.76624 1.90806,9.05186c-2.01867,2.28562 -6.14581,1.93864 -9.21829,-0.77496c-3.07245,-2.71359 -3.92673,-6.76624 -1.90806,-9.05186c2.01867,-2.28562 6.14581,-1.93863 9.21829,0.77496z" fill="#ff8108" stroke="none" stroke-width="0" stroke-linecap="butt"/><path d="M188.43776,170.02016l-20.09297,0.30482l-2.07722,-13.92692" fill="none" stroke="#ff8108" stroke-width="0" stroke-linecap="round"/><path d="M142.46557,171.75171c0,0 2.0412,-5.815 3.92568,-9.25694c1.88458,-3.44195 5.02531,-7.09134 5.02531,-7.09134" fill="none" stroke="#f74c00" stroke-width="0" stroke-linecap="round"/><path d="M132.49756,199.33042l3.70753,14.09789" fill="none" stroke="#f74c00" stroke-width="0" stroke-linecap="round"/><path d="M126.49496,165.33286l1.5252,12.48202" fill="none" stroke="#ff8108" stroke-width="0" stroke-linecap="round"/><path d="M149.32612,227.46815l11.63039,7.16974" fill="none" stroke="#f74c00" stroke-width="0" stroke-linecap="round"/><path d="M182.66423,231.96967l-11.10213,19.80125l-11.87616,-17.66825c0,0 4.19768,0.55133 7.2437,0.32159c4.33251,-0.32676 15.73459,-2.45456 15.73459,-2.45456z" fill="#a3a3a3" stroke="#000000" stroke-width="0" stroke-linecap="round"/><path d="M183.95477,147.59949l19.13879,-8.2645l-1.31104,22.27533c0,0 -3.68399,-7.24464 -6.70534,-9.61912c-2.91761,-2.29298 -11.12238,-4.39175 -11.12238,-4.39175z" fill="#a3a3a3" stroke="#000000" stroke-width="0" stroke-linecap="round"/><path d="M123.26208,169.51657l-7.73925,-22.03858l22.47536,4.38736c0,0 -0.08298,2.35668 -1.445,3.94913c-1.21279,1.41806 -4.03302,3.83253 -6.76273,6.65488c-3.33013,3.44316 -6.52842,7.04716 -6.52842,7.04716z" fill="#a3a3a3" stroke="#000000" stroke-width="0" stroke-linecap="round"/><path d="M171.73867,251.04567l0.79807,-17.38427l9.0436,-1.32294z" fill="#dad9da" stroke="#000000" stroke-width="0" stroke-linecap="round"/><path d="M193.75481,151.52187c0,0 -2.10427,-1.71613 -3.37485,-2.31641c-1.65345,-0.78114 -6.60738,-1.78591 -6.60738,-1.78591l19.50754,-7.18054z" fill="#dad9da" stroke="#000000" stroke-width="0" stroke-linecap="round"/><path d="M132.25328,159.68529l-15.81858,-11.12672l21.56351,3.30675l-0.88283,3.62612z" fill="#dad9da" stroke="#000000" stroke-width="0" stroke-linecap="round"/><path d="M143.84319,228.88759l-11.92813,-10.28727l0.4725,-4.68193c0,0 4.84792,-3.29831 10.87093,1.437c4.60871,3.6234 6.93358,13.32599 6.93358,13.32599z" fill="#ff4600" stroke="#000000" stroke-width="0" stroke-linecap="round"/><path d="M136.66884,219.55401l0.98214,-6.52329c0,0 3.69613,0.98221 5.3819,2.39484c1.6858,1.41262 3.09598,4.70912 3.09598,4.70912l-5.59971,3.74036z" fill="#ff8108" stroke="#000000" stroke-width="0" stroke-linecap="round"/><path d="M149.05335,176.28493l-7.77203,3.75375l-2.99755,11.26394l1.96952,8.54976c0,0 -4.76369,2.13996 -7.53295,1.06874c-2.7693,-1.07121 -5.14839,-5.97439 -5.14839,-5.97439l6.10294,-5.02136l2.10466,-11.00291l-1.82441,-5.73928c0,0 5.22946,-3.85428 8.79824,-3.12116c3.56878,0.73317 6.30005,6.22289 6.30005,6.22289z" fill="#ff4600" stroke="#000000" stroke-width="0" stroke-linecap="round"/><path d="M184.18654,216.32207l-5.4213,-8.78408l-6.01221,-0.98528l-7.2089,12.18438c0,0 -7.04701,-6.40827 -6.85448,-13.24785c0.20694,-7.35029 5.42622,-11.15109 5.42622,-11.15109l8.35557,7.99926l4.3486,0.61215l6.96436,-10.39381c0,0 5.60964,6.76102 5.69574,11.84932c0.08606,5.08821 -5.29369,11.91705 -5.29369,11.91705z" fill="#ff4600" stroke="#000000" stroke-width="0" stroke-linecap="round"/><path d="M194.55045,218.43063c0,0 1.11322,-4.79965 2.7648,-7.55658c1.65167,-2.75695 5.45697,-6.16749 5.45697,-6.16749l0.19471,10.86086z" fill="#ff8108" stroke="#000000" stroke-width="0" stroke-linecap="round"/><path d="M193.30299,181.89058l7.62534,-6.8198l-11.71028,-13.21791c0,0 3.18153,-2.42115 5.35516,-1.94982c2.17361,0.47133 7.8248,4.8078 7.8248,4.8078l4.18589,15.69231l1.94826,5.09957c0,0 -4.26376,3.8235 -7.26483,3.11173c-3.00108,-0.71176 -7.96434,-6.72379 -7.96434,-6.72379z" fill="#ff4600" stroke="#000000" stroke-width="0" stroke-linecap="round"/><path d="M177.77751,150.93348l-13.6997,-4.26042l-5.68493,10.64153c0,0 -5.45219,-0.58555 -7.47907,-1.61592c-1.94358,-0.98799 -4.44269,-4.4445 -4.44269,-4.4445l22.82303,-8.31912l8.44871,2.37595z" fill="#ff4600" stroke="#000000" stroke-width="0" stroke-linecap="round"/><path d="M146.2732,231.46975l-20.59255,7.36829l4.56841,-22.47647c0,0 7.10354,2.16731 9.83854,4.78073c2.84525,2.71875 6.18556,10.32741 6.18556,10.32741z" fill="#a3a3a3" stroke="#000000" stroke-width="0" stroke-linecap="round"/><path d="M126.03937,238.29274l13.65327,-17.10137l6.39732,9.91748z" fill="#dad9da" stroke="#000000" stroke-width="0" stroke-linecap="round"/><path d="M175.93645,197.79553c5.79882,-0.03572 10.52809,4.55508 10.56319,10.25388c0.03511,5.6988 -4.6373,10.34756 -10.43605,10.38328c-5.79882,0.03572 -10.52808,-4.55508 -10.56318,-10.25388c-0.03511,-5.6988 4.63729,-10.34756 10.43604,-10.38328z" fill="#dad9da" stroke="none" stroke-width="0" stroke-linecap="butt"/><path d="M181.30674,217.31422l-0.92129,-2.61128l1.5806,-7.91112l1.96132,-4.88166c0,0 3.16287,2.8259 2.04172,8.16837c-0.72267,3.44363 -4.66232,7.23575 -4.66232,7.23575z" fill="#a3a3a3" stroke="#000000" stroke-width="0" stroke-linecap="round"/><path d="M196.38559,225.91099c0,0 0.70621,-7.0865 4.52885,-12.05375c3.11649,-4.04961 9.29538,-6.67802 9.29538,-6.67802l8.27233,20.40594z" fill="#a3a3a3" stroke="#000000" stroke-width="0" stroke-linecap="round"/><path d="M195.86411,175.64587c-3.74804,-7.28816 0.1345,-12.55152 0.1345,-12.55152l20.10636,1.86752l-9.30302,17.97978c0,0 -7.26268,1.00089 -10.93783,-7.29571z" fill="#a3a3a3" stroke="#000000" stroke-width="0" stroke-linecap="round"/><path d="M202.81561,211.75067c1.82744,-1.77463 5.40855,-3.654 5.40855,-3.654l10.25801,19.48859l-19.07599,-10.92556c0,0 1.58195,-3.13434 3.4094,-4.90897z" fill="#dad9da" stroke="#000000" stroke-width="0" stroke-linecap="round"/><path d="M195.71123,175.22535c-1.05961,-2.45558 -1.48951,-6.68912 -1.48951,-6.68912l21.5278,-2.48612l-16.38542,14.40271c0,0 -2.59326,-2.77192 -3.65287,-5.2275z" fill="#dad9da" stroke="#000000" stroke-width="0" stroke-linecap="round"/><path d="M169.71205,215.93737c0,0 -4.4879,-3.57634 -3.67629,-9.02908c0.87172,-5.85695 6.28355,-8.54733 6.28355,-8.54733l6.78729,14.44093l-0.53529,1.27055l-8.85921,1.86493z" fill="#a3a3a3" stroke="#000000" stroke-width="0" stroke-linecap="round"/><path d="M143.2689,184.60024c-1.58141,9.78024 -10.44161,9.47813 -10.44161,9.47813l-10.93977,-12.60507l14.97175,-8.7819c0,0 8.00884,2.01846 6.40959,11.9088z" fill="#a3a3a3" stroke="#000000" stroke-width="0" stroke-linecap="round"/><path d="M143.61754,182.42566l-21.00815,-1.31885l14.24989,-8.41543c0,0 3.68229,1.54218 4.90897,3.40937c1.22666,1.86727 1.84933,6.32485 1.84933,6.32485z" fill="#dad9da" stroke="#000000" stroke-width="0" stroke-linecap="round"/><path d="M151.18093,146.53418l10.57248,-17.6255l12.41251,16.57872c0,0 -6.26366,5.47291 -10.43912,5.68984c-9.45923,0.49142 -12.54582,-4.64302 -12.54582,-4.64302z" fill="#dad9da" stroke="#000000" stroke-width="0" stroke-linecap="round"/><path d="M155.1836,149.76813l6.57536,-19.95433l9.70156,17.3196c0,0 -4.39105,3.48529 -7.75971,4.03054c-3.36862,0.54529 -8.51721,-1.39581 -8.51721,-1.39581z" fill="#a3a3a3" stroke="#000000" stroke-width="0" stroke-linecap="round"/><path d="M282.29027,146.96069l-4.58644,-4.7916l1.4578,-5.17933l5.70996,2.24326z" fill="#cf8129" stroke="#000000" stroke-width="0" stroke-linecap="round"/><path d="M302.39017,123.70177l-12.19239,-1.85278l-11.03395,15.49138l-2.5211,-10.93862l3.89419,-7.99859c0,0 8.13057,0.3558 12.41594,0.7683c3.96064,0.38121 12.57798,2.23252 12.57798,2.23252z" fill="url(#color-4)" stroke="#000000" stroke-width="0" stroke-linecap="round"/><path d="M278.98693,137.0785l10.85815,-15.57798l13.24447,1.934l-6.01942,4.41873l-5.34165,0.64635l-7.11652,11.26092z" fill="#9d4c1b" stroke="#000000" stroke-width="0" stroke-linecap="round"/><path d="M227.38737,139.97428l-11.19263,1.58793l2.62765,-4.95288l-11.23824,-5.81676l11.57235,-1.59026l-0.76765,-1.32434c0,0 2.77932,-1.956 4.73613,-1.73804c1.95671,0.21795 4.95405,2.81756 4.95405,2.81756z" fill="#9f4c1b" stroke="#000000" stroke-width="0" stroke-linecap="round"/><path d="M269.30961,164.39932c0,0 3.64511,9.66376 -6.96299,10.10608c-12.98004,0.54126 -9.54931,-9.05501 -9.54931,-9.05501z" fill="#984416" stroke="#000000" stroke-width="0" stroke-linecap="round"/><path d="M259.33056,116.42327c0,0 0.09528,-12.27762 11.16107,-6.7143c10.83395,5.44675 3.49828,13.0796 3.49828,13.0796z" fill="#9b4618" stroke="#000000" stroke-width="0" stroke-linecap="round"/><path d="M265.93075,165.29134c0,0 1.89749,4.46859 -3.63508,4.66662c-6.76967,0.24233 -4.97703,-4.20071 -4.97703,-4.20071z" fill="#c77524" stroke="#000000" stroke-width="0" stroke-linecap="round"/><path d="M295.60312,131.5429l14.01694,-0.6998l-3.77255,13.51876l-10.95155,0.41803z" fill="#2a2c2a" stroke="#000000" stroke-width="0" stroke-linecap="round"/><path d="M305.32285,144.54033l4.03922,-12.90697l3.08057,2.17188l-3.33389,13.60365l-12.616,0.5159l-2.12366,-3.31695z" fill="#1e1f1e" stroke="#000000" stroke-width="0" stroke-linecap="round"/><path d="M300.30311,140.54014c-2.08104,0.0128 -3.77851,-1.6638 -3.79133,-3.74488c-0.0128,-2.08104 1.6638,-3.77852 3.74488,-3.79134c2.08104,-0.0128 3.77851,1.66381 3.79133,3.74489c0.0128,2.08104 -1.6638,3.77851 -3.74488,3.79133z" fill="#a3a3a3" stroke="none" stroke-width="0" stroke-linecap="butt"/><path d="M263.07431,117.62091c0,0 0.18279,-6.76258 6.03549,-3.82008c5.73013,2.88081 1.85025,6.91786 1.85025,6.91786z" fill="#c77324" stroke="#000000" stroke-width="0" stroke-linecap="round"/><path d="M232.26387,161.02003c-10.49759,-13.04891 -6.57618,-35.74453 3.90795,-43.69457c8.93878,-6.77818 30.93792,-0.00841 39.34173,6.21324c4.52631,3.35099 6.13635,31.91087 -2.80859,37.23212c-3.19948,1.90333 -30.31195,12.84011 -40.44112,0.24919z" fill="#a5501b" stroke="#000000" stroke-width="0" stroke-linecap="round"/><path d="M312.45773,136.25886l-3.97089,-4.44482l-1.70888,7.10884l-1.84402,-0.60209l-6.72955,-11.26323l6.54093,-5.123l1.40204,-0.00864l2.57311,5.15452l6.96107,6.17906z" fill="#da8b2d" stroke="#000000" stroke-width="0" stroke-linecap="round"/><path d="M265.70804,165.37091c-9.7308,1.21765 -17.15086,0.70053 -17.71121,-8.62498c-0.44401,-7.38949 13.77353,-14.13534 13.77353,-14.13534c0,0 -12.75785,-7.98021 -9.59497,-16.45972c3.95436,-10.6014 9.70818,-8.93385 19.90417,-5.24916c5.67902,2.05233 4.4558,14.40278 4.4558,14.40278l3.41989,0.35873l-2.36877,16.15368l-2.84797,0.01754c0,0 0.70038,12.31885 -9.03043,13.53654z" fill="#df9431" stroke="#000000" stroke-width="0" stroke-linecap="round"/><path d="M247.79528,154.84847l3.94502,-6.85966l5.89278,1.10292l-4.32005,7.6215z" fill="url(#color-5)" stroke="#000000" stroke-width="0" stroke-linecap="round"/><path d="M296.12772,138.4627c-3.70234,0.0228 -6.72221,-2.96002 -6.745,-6.66239c-0.0228,-3.70234 2.96001,-6.72221 6.66238,-6.74501c3.70234,-0.0228 6.72221,2.96003 6.745,6.66239c0.0228,3.70234 -2.96001,6.7222 -6.66238,6.745z" fill="#ff4500" stroke="none" stroke-width="0" stroke-linecap="butt"/><path d="M252.24208,136.97308l-1.76144,-8.53338l6.26552,-0.03861l1.76145,8.53338z" fill="url(#color-6)" stroke="#000000" stroke-width="0" stroke-linecap="round"/><path d="M289.08891,147.93172l-0.15382,-3.2157l-2.6738,1.08869l-0.28623,-2.94682l-2.81194,0.41941l6.2049,-15.31735l10.8987,6.90226l-6.08737,12.63605z" fill="#d78f31" stroke="#000000" stroke-width="0" stroke-linecap="round"/><path d="M279.32178,140.63075l3.00329,5.53334l1.62472,-5.70615l10.76056,6.23298c0,0 -6.21071,8.3651 -9.18973,9.43855c-4.01246,1.44582 -9.13333,-3.16034 -9.13333,-3.16034z" fill="url(#color-7)" stroke="#000000" stroke-width="0" stroke-linecap="round"/><path d="M297.18655,135.28335l0.66435,-0.94229" fill="none" stroke="#cf872d" stroke-width="0" stroke-linecap="round"/><path d="M294.35642,132.75424l1.20952,0.52865l-0.52617,1.6116" fill="none" stroke="#cf872d" stroke-width="0" stroke-linecap="round"/><path d="M292.20959,132.3654l0.26146,-1.07382" fill="none" stroke="#cf872d" stroke-width="0" stroke-linecap="round"/><path d="M261.41591,124.11165c3.1996,-3.00427 8.48597,-2.64205 11.80746,0.80904c3.32145,3.4511 3.4203,8.6842 0.22068,11.68848c-3.1996,3.00427 -8.48597,2.64205 -11.8075,-0.80901c-3.32145,-3.4511 -3.42025,-8.68424 -0.22064,-11.68847z" fill="#ffffff" stroke="none" stroke-width="0" stroke-linecap="butt"/><path d="M269.11319,131.80727c1.76391,0.11323 3.10593,1.12761 2.9974,2.26585c-0.10851,1.13812 -1.62644,1.96902 -3.39036,1.85577c-1.76391,-0.11323 -3.10595,-1.12767 -2.99741,-2.26584c0.10851,-1.13812 1.62644,-1.96903 3.39037,-1.85577z" fill="#3d0a00" stroke="none" stroke-width="0" stroke-linecap="butt"/><path d="M260.11404,150.38552c3.72853,-3.00674 8.60828,-4.04011 11.4053,-0.65793c2.79709,3.3822 1.63662,8.02792 -2.09184,11.0347c-3.7285,3.00678 -10.48616,3.78369 -13.28325,0.40146c-2.79709,-3.3822 0.24126,-7.77144 3.96976,-10.77822z" data-paper-data="{&quot;index&quot;:null}" fill="#ffffff" stroke="none" stroke-width="0" stroke-linecap="butt"/><path d="M262.95959,153.73052c-0.07335,-1.14095 1.29929,-2.11353 3.06589,-2.17229c1.7666,-0.05876 3.2582,0.81852 3.33153,1.95951c0.07335,1.14095 -1.2993,2.11352 -3.0659,2.17225c-1.7666,0.05876 -3.25819,-0.81847 -3.33151,-1.95951z" data-paper-data="{&quot;index&quot;:null}" fill="#3d0a00" stroke="none" stroke-width="0" stroke-linecap="butt"/><path d="M274.54323,142.1793c0.24954,-0.01514 0.26468,0.2344 0.26468,0.2344l0.02327,0.41893c0.20283,0.61128 0.16356,1.17787 0.16406,1.81767c0,0 0.00019,0.25 -0.24981,0.25019c-0.25,0.00019 -0.25019,-0.24981 -0.25019,-0.24981c-0.00047,-0.61104 0.04088,-1.14127 -0.15492,-1.72286l-0.0315,-0.48385c0,0 -0.01514,-0.24954 0.2344,-0.26468z" fill="#6e310c" stroke="none" stroke-width="0.5" stroke-linecap="butt"/></g></g></svg>