<svg version="1.1" xmlns="http://www.w3.org/2000/svg" xmlns:xlink="http://www.w3.org/1999/xlink" width="171.38548" height="244.37795" viewBox="0,0,171.38548,244.37795"><defs><linearGradient x1="234.93465" y1="88.00188" x2="234.93465" y2="292.18567" gradientUnits="userSpaceOnUse" id="color-1"><stop offset="0" stop-color="#6b87b6"/><stop offset="1" stop-color="#263040"/></linearGradient></defs><g transform="translate(-148.82297,-58.56599)"><g data-paper-data="{&quot;isPaintingLayer&quot;:true}" fill-rule="nonzero" stroke-linejoin="miter" stroke-miterlimit="10" stroke-dasharray="" stroke-dashoffset="0" style="mix-blend-mode: normal"><path d="M288.44034,247.19447v-59.30981h29.01488v59.30981z" fill="#435471" stroke="none" stroke-width="0" stroke-linecap="butt"/><path d="M218.46328,300.10395v-71.25711h80.64429v71.25711z" fill="#435471" stroke="none" stroke-width="0" stroke-linecap="butt"/><path d="M151.04638,232.18307v-102.83213h159.58181v102.83213z" fill="#435471" stroke="none" stroke-width="0" stroke-linecap="butt"/><path d="M225.63538,124.54061c-0.47187,-0.4498 -0.83156,-1.13553 -0.83156,-2.18095c0,-3.03848 3.03849,-3.03848 3.03849,-3.03848l1.37121,0.01858c7.39817,-0.81337 14.88604,-0.48007 22.28551,-0.01271c3.61246,0.22817 7.28476,1.27296 10.90512,1.27419c6.51114,0.00221 16.30276,-4.06059 22.25772,0.14684c4.82987,3.41253 2.96861,12.43649 2.96861,17.39908c0,6.28086 -0.43088,12.51732 -0.42669,18.77432c0.00316,4.71652 0.39171,9.57515 -0.48396,14.24127c-0.69926,3.72608 -2.21765,8.77204 -5.63276,10.94681c-4.75772,3.02975 -12.31368,1.60893 -17.5542,1.31456c-7.61218,-0.42759 -15.18947,0.95788 -22.7385,1.70675c-1.84768,-0.02584 -3.73924,0.3236 -5.54304,-0.07751c-10.18439,-2.26467 -10.36026,-12.02263 -10.86831,-20.26266c-0.5464,-8.86214 -0.52304,-18.39313 0,-27.25904c0.2594,-4.39708 1.10541,-8.60304 1.25239,-12.99105z" fill="#59719c" stroke="none" stroke-width="0.5" stroke-linecap="butt"/><path d="M207.09194,189.73731l0.01267,-2.10687c2.75315,-11.23441 3.22906,-25.41676 2.12547,-36.878c-0.4863,-5.05047 -1.29618,-9.43482 -1.31546,-14.61082c-0.73739,-11.03881 -1.47222,-22.10903 -2.42835,-33.13411c-0.33999,-3.92046 -2.98672,-12.52874 -1.03172,-16.28486c1.82257,-3.50171 8.79733,-4.85675 12.11426,-5.76301c13.12203,-3.58521 28.04129,-5.65487 41.59938,-5.65096c11.31971,-1.27158 20.81356,-2.82621 31.58997,1.6742c2.84209,1.18691 8.50944,3.23102 10.64032,5.87126c3.93445,4.87494 0.81785,11.81602 0.2135,17.15439c-1.30966,11.56847 2.84765,22.86691 3.1344,34.37987c0.1908,7.82313 0.3504,15.69767 -0.13531,23.50713c-0.31368,5.04354 -2.29488,9.99425 -2.55964,14.926c-0.0962,1.79179 1.05307,6.92309 1.25582,8.35651c0.49711,3.51437 1.7625,13.64354 -1.69799,15.96513c-1.67602,1.12442 -3.92361,-1.07872 -5.70577,-2.02594c-2.85373,-1.51676 -4.80352,-4.58534 -7.71957,-6.15064c-3.08354,-1.65521 -6.59183,-2.39239 -9.96726,-3.14004c-17.4781,-4.98816 -37.53515,-6.43487 -54.21688,1.906c-3.5547,1.77736 -7.11048,2.79967 -10.15687,5.06626c-0.27744,0.6252 -0.79857,1.28128 -1.7774,1.54018c-0.02562,0.0259 -0.05121,0.05194 -0.07674,0.0781c0,0 -2.14853,2.14853 -4.29706,0c-2.14853,-2.14853 0,-4.29706 0,-4.29706c0.13287,-0.13035 0.26627,-0.2579 0.4002,-0.38274z" fill="#687793" stroke="none" stroke-width="0.5" stroke-linecap="butt"/><path d="M157.70388,227.52931l-1.28006,-119.04633h40.96217l10.66723,-13.65406l85.33786,-6.82704l20.0544,16.64088l-0.42669,141.35796l-20.25656,46.18495l-74.94926,-0.40513l-22.28221,-50.6414z" fill="url(#color-1)" stroke="#465875" stroke-width="3" stroke-linecap="round"/><path d="M182.78595,106.90588l31.20791,-18.889l87.05365,-2.05316l7.80198,6.42735l9.85512,8.62324l-0.82125,145.80585l-18.06774,53.79259l-85.41112,0.82125l-21.7634,-56.667l-39.0099,-12.31891v-9.85512" fill="none" stroke="#cc1c1e" stroke-width="3" stroke-linecap="round"/><path d="M184.73055,109.86048l30.25382,-18.31152l84.39225,-1.99039l7.56346,6.23086l9.55384,8.35961l-0.79615,141.34826l-17.51538,52.14804l-82.79994,0.79616l-21.09807,-54.93456l-37.81728,-11.94229v-9.55385" fill="none" stroke="#fff2ff" stroke-width="3" stroke-linecap="round"/><path d="M294.3605,83.6744c1.56328,-2.60547 4.16876,-1.04219 4.16876,-1.04219l1.41117,0.84708c0.00412,-0.00002 0.00824,-0.00002 0.01238,-0.00002c1.62454,0 2.38052,0.86858 2.73231,1.67695c3.5933,2.1778 7.2531,4.23695 10.8616,6.39404c7.09909,10.3128 3.07277,20.59733 3.09856,32.06866c0.03084,13.7219 -1.94165,27.49451 -1.28464,41.24164c0.31237,6.53589 -0.14298,12.59954 1.26657,19.0375c0.02973,7.58708 0.27892,15.43786 -1.08966,22.93761c-0.46952,2.57294 -0.06279,5.7096 -1.84141,7.62713c-1.56935,1.69191 -4.4615,2.02892 -6.73189,1.61575c-2.2488,-0.40923 -2.78697,-3.78114 -4.75891,-4.93696c-2.79178,-1.63636 -5.1365,-1.07338 -7.37358,-4.36894c-2.68092,-3.94941 -0.30993,-11.18309 -0.045,-15.47811c0.5761,-9.33997 -0.00586,-18.60954 -0.00586,-27.97269c0,-11.47666 0.28003,-22.84756 0.85716,-34.2865c0.40081,-7.94434 -0.3991,-15.94952 0,-23.8946c0.27825,-5.53942 1.05977,-10.8929 1.23924,-16.41323l-1.47458,-0.88433c0,0 -2.60547,-1.56329 -1.04219,-4.16877z" fill="#455875" stroke="none" stroke-width="0.5" stroke-linecap="butt"/><path d="M200.64532,93.66908c0.15688,-0.4437 0.34753,-0.72968 0.34753,-0.72968l1.88514,-2.80105c1.39127,-1.28922 2.3933,-3.21386 4.17383,-3.86765c4.76358,-1.74915 7.56172,0.22932 9.19116,4.48682c1.09964,2.87323 0.13038,8.42752 0.13038,11.54774c0,8.02357 0.03419,16.0508 0.83962,24.03257c0.92177,10.14908 -0.35908,20.64031 0.84933,30.68196c1.29253,10.74068 2.69254,21.22872 3.16448,32.10053c0.02049,0.47217 0.53592,9.48621 0.18556,10.74151c-1.75483,6.28721 -4.60887,4.57443 -8.38608,8.18325c-1.36723,1.30627 -2.75526,2.60307 -4.18963,3.84295l0.40489,0.34705l-2.54728,2.97183c-0.55736,0.65821 -1.3898,1.07606 -2.31984,1.07606c-1.67811,0 -3.03848,-1.36038 -3.03848,-3.03849v-3.41352c0.01836,-12.81688 -2.13044,-25.74511 -0.84961,-38.5534c0,-9.13152 2.12467,-18.19364 1.28394,-27.36805c-0.48899,-5.33616 -1.85274,-10.49891 -2.13797,-15.86522c-0.55564,-10.45378 -0.41768,-21.26151 -0.42981,-31.7127c0,0 0,-1.84942 1.44285,-2.66254z" fill="#455875" stroke="none" stroke-width="0.5" stroke-linecap="butt"/><path d="M232.90583,121.53966c0.83451,-1.3651 2.61688,-1.3651 2.61688,-1.3651h1.28006c7.35601,0.01198 14.59396,1.30032 21.99905,0.85925c6.54993,-0.39014 13.13744,-0.91286 19.69922,-0.62796c1.3387,1.27548 2.99433,2.28536 4.01613,3.82643c3.60087,5.4307 1.25616,13.66718 -4.64474,15.94407c-4.90276,1.89176 -11.65274,0.15309 -16.74837,0.15593c-7.86792,0.00438 -18.67484,1.32426 -24.79743,-4.76508c-2.84049,-2.82509 -3.67421,-7.06135 -4.60508,-10.76384c0,0 -0.54651,-2.18604 1.18427,-3.26369z" fill="#2c3a57" stroke="none" stroke-width="0.5" stroke-linecap="butt"/><path d="M228.57733,149.6596c-0.87441,-0.16173 -2.49344,-0.76068 -2.49344,-2.97865c0,-3.03848 3.03848,-3.03848 3.03848,-3.03848l0.80357,0.02347c6.57338,0.83373 13.19561,0.12849 19.80381,0.40586c3.88355,0.163 7.75871,1.09702 11.653,0.85541c5.56841,-0.34549 14.78613,-2.8726 19.74697,0.48757c4.50869,3.05392 4.39308,7.5591 3.85241,12.2336c-0.63887,1.55205 -0.82232,3.38354 -1.9166,4.65617c-1.10166,1.28121 -2.76086,2.01779 -4.3397,2.6198c-3.12586,1.19188 -7.34556,0.76584 -10.64347,1.38433c-7.70741,1.44544 -14.72744,2.64775 -22.65463,1.73983c-3.31281,-0.37942 -5.23038,-0.22483 -8.11027,-2.15529c-5.69011,-3.81421 -7.02579,-10.06117 -8.74011,-16.2336z" fill="#2c3a57" stroke="none" stroke-width="0.5" stroke-linecap="butt"/><path d="M233.86887,72.93149c0.01275,8.81622 0.08011,17.73317 -0.43259,26.55497c-0.24105,4.14755 -1.77351,10.98319 1.70919,14.35924c4.28008,4.14902 9.29982,3.03204 14.59596,2.5024c4.31447,-0.38813 8.50925,-1.53914 12.85151,-1.28794c4.0223,0.23268 9.15992,1.84249 13.10874,0.24541c4.27878,-1.73055 4.51521,-8.53647 5.0273,-12.13791c1.59432,-11.21253 1.51771,-23.15469 -1.43407,-34.10456c-3.87521,-5.44949 -9.47778,-3.73391 -15.44265,-3.40609c-5.9073,0.32466 -12.17842,0.28709 -18.03918,-0.44551c-3.27823,-0.40979 -6.38544,-0.28806 -9.67486,-0.4091c-0.59433,-0.02186 -1.23096,-0.41776 -1.77528,-0.17811c-1.24403,0.54774 0.14557,2.7183 0.33947,4.06367l0.01858,2.0423c0,0 0,1.30183 -0.85212,2.20124zM228.49256,67.84884c-0.36548,-2.92057 -0.74171,-5.71681 2.21629,-8.0802c1.34271,-1.07281 3.3453,-0.82694 5.05175,-1.03149c3.49806,-0.41931 7.33732,0.01067 10.80622,0.44429c5.50081,0.6876 11.40619,0.71928 16.94936,0.40787c4.90021,-0.27529 10.42696,-1.48213 15.09744,0.70266c3.67646,1.7198 3.79832,2.84026 6.15518,6.13181c3.55561,12.02676 3.7584,25.18013 1.97944,37.57925c-0.89695,6.25167 -1.9695,13.93737 -8.62677,16.87695c-4.87173,2.15116 -10.90214,0.58638 -15.90614,0.24541c-3.93918,-0.26842 -7.97069,0.9118 -11.89647,1.27219c-0.17692,0.0177 -8.58462,0.86117 -8.65021,0.85646c-6.85872,-0.49187 -12.94107,-5.59326 -14.24742,-12.25448c-0.80342,-4.09674 -0.2957,-7.76816 -0.05262,-11.84915c0.57952,-9.72972 0.43056,-19.57862 0.42204,-29.27354c0,0 0,-1.14394 0.70191,-2.02802z" fill="#8aa2d8" stroke="none" stroke-width="0.5" stroke-linecap="butt"/><path d="M234.67547,70.69l-0.0166,-2.04444c-0.1939,-1.34537 -1.58011,-3.51916 -0.33608,-4.06691c0.54431,-0.23965 1.18263,0.15482 1.77695,0.17668c3.28943,0.12104 6.41009,-0.00902 9.68832,0.40075c5.86076,0.73259 12.17219,0.76673 18.07947,0.44207c5.96487,-0.32782 11.59542,-2.02726 15.47063,3.42223c2.95178,10.94986 3.03877,22.96326 1.44445,34.17576c-0.51209,3.60145 -0.76579,10.42752 -5.04458,12.15806c-3.94881,1.59709 -9.10997,-0.00201 -13.13226,-0.2347c-4.34228,-0.25119 -8.56714,0.89869 -12.88161,1.28683c-5.29614,0.52963 -10.3407,1.63222 -14.62078,-2.51681c-3.4827,-3.37606 -1.96523,-10.23461 -1.72418,-14.38216c0.5127,-8.8218 0.45396,-17.7964 0.44122,-26.61262c0.85212,-0.89941 0.85503,-2.20479 0.85503,-2.20479z" data-paper-data="{&quot;noHover&quot;:false,&quot;origItem&quot;:[&quot;Path&quot;,{&quot;applyMatrix&quot;:true,&quot;segments&quot;:[[[239.18453,88.33603],[0.70111,-0.74002],[0.01049,7.2538]],[[238.8286,110.1849],[0.42184,-7.25839],[-0.19833,3.41252]],[[240.23489,121.99938],[-2.8655,-2.77775],[3.52156,3.41372]],[[252.24414,124.05829],[-4.35755,0.43577],[3.54985,-0.31935]],[[262.8181,122.9986],[-3.57273,-0.20667],[3.30946,0.19145]],[[273.60368,123.20051],[-3.249,1.31405],[3.52049,-1.42386]],[[277.74003,113.21369],[-0.42134,2.9632],[1.31177,-9.22543]],[[276.56011,85.15317],[2.42866,9.00932],[-3.18844,-4.48372]],[[263.85422,82.35072],[4.90777,-0.26972],[-4.8604,0.26712]],[[249.01197,81.98417],[4.82211,0.60276],[-2.69726,-0.33716]],[[241.0517,81.64757],[2.70647,0.09959],[-0.489,-0.01799]],[[239.59104,81.50103],[0.44784,-0.19718],[-1.02356,0.45067]],[[239.87035,84.84453],[-0.15954,-1.10694],[0,0]],[239.88564,86.52489]],&quot;closed&quot;:true}]}" fill="#48576f" stroke="none" stroke-width="0.5" stroke-linecap="butt"/><path d="M277.76496,92.49141c0,10.13313 -8.97866,18.34764 -20.05441,18.34764c-11.07573,0 -20.0544,-8.21451 -20.0544,-18.34764c0,-10.13312 8.97865,-18.34764 20.0544,-18.34764c11.07573,0 20.05441,8.21452 20.05441,18.34764z" fill="none" stroke="#ffffff" stroke-width="2.5" stroke-linecap="butt"/><text transform="translate(247.04333,99.21245) scale(0.6077,0.6077)" font-size="40" xml:space="preserve" fill="#ffffff" fill-rule="nonzero" stroke="none" stroke-width="1" stroke-linecap="butt" stroke-linejoin="miter" stroke-miterlimit="10" stroke-dasharray="" stroke-dashoffset="0" font-family="Sans Serif" font-weight="normal" text-anchor="start" style="mix-blend-mode: normal"><tspan x="0" dy="0">m</tspan></text><path d="M215.895,291.35636l-0.42669,-79.7909" fill="none" stroke="#faf3ff" stroke-width="5" stroke-linecap="round"/><path d="M292.27239,208.15194l-0.42669,82.35105" fill="none" stroke="#faf3ff" stroke-width="5" stroke-linecap="round"/><path d="M254.72374,220.09924v-17.06758" fill="none" stroke="#faf3ff" stroke-width="5" stroke-linecap="round"/><path d="M255.15042,226.92628l-0.85338,18.77433" fill="none" stroke="#faf3ff" stroke-width="5" stroke-linecap="round"/><path d="M255.57711,253.8077l-0.85337,21.33447" fill="none" stroke="#faf3ff" stroke-width="5" stroke-linecap="round"/><path d="M169.15238,147.79383c-0.36256,-0.3456 -0.63891,-0.87247 -0.63891,-1.6757c0,-2.33456 2.33456,-2.33456 2.33456,-2.33456l1.05356,0.01428c5.68426,-0.62495 11.43743,-0.36885 17.12268,-0.00977c2.77556,0.17531 5.59712,0.97806 8.37877,0.97899c5.00272,0.00169 12.52594,-3.11989 17.10132,0.11283c3.71097,2.62196 2.28088,9.55537 2.28088,13.36827c0,4.82579 -0.33105,9.61747 -0.32783,14.42493c0.00243,3.62385 0.30097,7.35689 -0.37185,10.94202c-0.53728,2.86287 -1.70389,6.73985 -4.32783,8.41079c-3.6555,2.32784 -9.461,1.23618 -13.48747,1.01001c-5.84868,-0.32853 -11.67056,0.73597 -17.47073,1.31136c-1.41963,-0.01984 -2.87299,0.24863 -4.2589,-0.05955c-7.825,-1.74004 -7.96012,-9.23738 -8.35047,-15.56846c-0.41981,-6.80908 -0.40186,-14.13204 0,-20.944c0.1993,-3.37842 0.84933,-6.61 0.96224,-9.98145z" fill="#59719c" stroke="none" stroke-width="0.5" stroke-linecap="butt"/><path d="M155.54444,187.65321l0.00973,-1.61878c2.11533,-8.63175 2.48099,-19.52853 1.63307,-28.33457c-0.37365,-3.88043 -0.99589,-7.24909 -1.0107,-11.22596c-0.56656,-8.48148 -1.13115,-16.98708 -1.86579,-25.458c-0.26123,-3.01222 -2.29478,-9.62624 -0.7927,-12.51219c1.40035,-2.69049 6.75928,-3.73161 9.30778,-4.4279c10.08209,-2.75463 21.54503,-4.34482 31.96215,-4.34181c8.69731,-0.97699 15.99174,-2.17148 24.27161,1.28635c2.18367,0.91193 6.53808,2.48249 8.17529,4.51108c3.02296,3.74558 0.62839,9.07863 0.16404,13.18029c-1.00625,8.88844 2.18795,17.56939 2.40826,26.41518c0.1466,6.01077 0.26922,12.06102 -0.10396,18.06129c-0.24101,3.87512 -1.76323,7.67891 -1.96665,11.46814c-0.07391,1.37669 0.8091,5.31925 0.96488,6.42059c0.38194,2.7002 1.35419,10.48277 -1.30461,12.26652c-1.28775,0.86392 -3.01463,-0.82881 -4.38392,-1.5566c-2.19262,-1.16538 -3.6907,-3.52306 -5.93121,-4.72574c-2.36917,-1.27175 -5.06471,-1.83816 -7.65816,-2.4126c-13.42899,-3.83257 -28.83948,-4.94412 -41.6566,1.46444c-2.73119,1.3656 -5.46322,2.15109 -7.80385,3.89258c-0.21317,0.48036 -0.61357,0.98444 -1.36564,1.18336c-0.01968,0.01989 -0.03934,0.0399 -0.05895,0.06002c0,0 -1.65079,1.65078 -3.30158,0c-1.65078,-1.65078 0,-3.30158 0,-3.30158c0.10207,-0.10015 0.20459,-0.19814 0.30749,-0.29407z" fill="#687793" stroke="none" stroke-width="0.5" stroke-linecap="butt"/><path d="M152.55833,108.24345c0.12053,-0.34092 0.26701,-0.56064 0.26701,-0.56064l1.44842,-2.15215c1.06896,-0.99055 1.83885,-2.4693 3.20689,-2.97163c3.66002,-1.34392 5.80993,0.1762 7.06187,3.44738c0.84489,2.20761 0.10018,6.47513 0.10018,8.87251c0,6.16478 0.02628,12.33235 0.64511,18.46501c0.70823,7.79788 -0.27589,15.85863 0.65257,23.57396c0.99309,8.25241 2.06878,16.31071 2.43138,24.66388c0.01575,0.36278 0.41176,7.28857 0.14256,8.25306c-1.34828,4.83068 -3.54114,3.51469 -6.4433,6.28745c-1.05049,1.00365 -2.11695,2.00003 -3.21903,2.95267l0.31109,0.26664l-1.95716,2.28336c-0.42825,0.50572 -1.06783,0.82677 -1.78242,0.82677c-1.28934,0 -2.33456,-1.04523 -2.33456,-2.33456v-2.62272c0.01411,-9.84762 -1.63688,-19.78081 -0.65278,-29.62184c0,-7.01605 1.63246,-13.97876 0.9865,-21.02776c-0.37572,-4.09995 -1.42354,-8.06665 -1.64268,-12.18977c-0.42691,-8.03197 -0.32092,-16.33591 -0.33023,-24.36591c0,0 0,-1.42096 1.1086,-2.04572z" fill="#455875" stroke="none" stroke-width="0.5" stroke-linecap="butt"/><path d="M175.3781,135.25473c0.64119,-1.04885 2.01063,-1.04884 2.01063,-1.04884h0.98352c5.65188,0.00921 11.21302,0.99907 16.90259,0.66018c5.03253,-0.29975 10.09392,-0.70138 15.13555,-0.48248c1.02857,0.97999 2.30064,1.75591 3.08573,2.93997c2.76667,4.1726 0.96515,10.50094 -3.56872,12.25035c-3.76695,1.45351 -8.95319,0.11763 -12.86831,0.11981c-6.04518,0.00337 -14.34849,1.01748 -19.05267,-3.66116c-2.18245,-2.1706 -2.82302,-5.42545 -3.53823,-8.27021c0,0 -0.41991,-1.67961 0.9099,-2.50761z" fill="#2c3a57" stroke="none" stroke-width="0.5" stroke-linecap="butt"/><path d="M172.05238,156.86021c-0.67183,-0.12428 -1.9158,-0.58446 -1.9158,-2.2886c0,-2.33456 2.33456,-2.33456 2.33456,-2.33456l0.61741,0.01802c5.05054,0.64059 10.1386,0.09873 15.21589,0.31183c2.98386,0.12523 5.96128,0.84288 8.95337,0.65723c4.27839,-0.26545 11.36067,-2.20711 15.17224,0.37461c3.46418,2.34642 3.37536,5.80791 2.95994,9.39947c-0.49086,1.1925 -0.63182,2.59969 -1.47258,3.5775c-0.84643,0.98439 -2.12127,1.55034 -3.33434,2.01287c-2.4017,0.91576 -5.64383,0.58842 -8.17772,1.06362c-5.92187,1.11057 -11.31556,2.03435 -17.40628,1.33678c-2.54534,-0.29153 -4.01868,-0.17274 -6.23139,-1.65598c-4.37189,-2.9306 -5.39814,-7.73033 -6.7153,-12.47281z" fill="#2c3a57" stroke="none" stroke-width="0.5" stroke-linecap="butt"/><path d="M176.11802,97.90749c0.00979,6.77379 0.06157,13.62497 -0.33237,20.40305c-0.1852,3.1867 -1.36265,8.43873 1.31323,11.03267c3.28853,3.18782 7.14536,2.3296 11.21456,1.92267c3.31495,-0.29821 6.53793,-1.18256 9.87423,-0.98956c3.09047,0.17877 7.03786,1.41566 10.07187,0.18855c3.28753,-1.32964 3.46918,-6.55884 3.86264,-9.32595c1.22496,-8.61494 1.16611,-17.7905 -1.10184,-26.20365c-2.97745,-4.18702 -7.28209,-2.86888 -11.86509,-2.61702c-4.53877,0.24944 -9.35707,0.22058 -13.86008,-0.34229c-2.51877,-0.31484 -4.90614,-0.22132 -7.43351,-0.31433c-0.45663,-0.01681 -0.94579,-0.32099 -1.364,-0.13686c-0.95583,0.42084 0.11183,2.08856 0.26082,3.12225l0.01428,1.56917c0,0 0.00001,1.00025 -0.65471,1.69129zM171.98723,94.00234c-0.28081,-2.24396 -0.56987,-4.39241 1.70284,-6.20828c1.03165,-0.82428 2.57032,-0.63536 3.88144,-0.79253c2.68767,-0.32217 5.63751,0.00819 8.30277,0.34136c4.22646,0.52831 8.76374,0.55265 13.02275,0.31338c3.765,-0.21151 8.01138,-1.13877 11.59986,0.53987c2.82475,1.32137 2.91838,2.18228 4.72923,4.71126c2.73189,9.24055 2.8877,19.34671 1.52087,28.87336c-0.68916,4.80336 -1.51323,10.70854 -6.62822,12.96712c-3.74311,1.65281 -8.37648,0.45053 -12.22121,0.18855c-3.0266,-0.20624 -6.12413,0.70057 -9.14045,0.97747c-0.13595,0.01358 -6.59584,0.66166 -6.64623,0.65804c-5.26978,-0.37792 -9.94305,-4.29749 -10.94676,-9.41551c-0.6173,-3.14766 -0.2272,-5.96853 -0.04044,-9.10409c0.44527,-7.47566 0.33082,-15.04289 0.32426,-22.49182c0,0 0,-0.87893 0.53929,-1.55819z" fill="#8aa2d8" stroke="none" stroke-width="0.5" stroke-linecap="butt"/><path d="M176.73777,96.18528l-0.01275,-1.57081c-0.14899,-1.03369 -1.21406,-2.70389 -0.25822,-3.12473c0.41821,-0.18413 0.90866,0.11895 1.36529,0.13575c2.52738,0.09299 4.92509,-0.00692 7.44386,0.30792c4.50301,0.56287 9.3523,0.58911 13.89106,0.33966c4.58301,-0.25188 8.90914,-1.55761 11.88658,2.62941c2.26795,8.41313 2.33478,17.64341 1.10982,26.25835c-0.39345,2.76711 -0.58838,8.0118 -3.87591,9.34143c-3.034,1.2271 -6.99949,-0.00154 -10.08994,-0.18032c-3.3363,-0.19301 -6.58242,0.69049 -9.89737,0.9887c-4.0692,0.40693 -7.9451,1.25407 -11.23363,-1.93374c-2.67589,-2.59394 -1.50994,-7.86358 -1.32474,-11.05028c0.39393,-6.77807 0.34879,-13.67356 0.33899,-20.44734c0.65472,-0.69105 0.65695,-1.694 0.65695,-1.694z" data-paper-data="{&quot;noHover&quot;:false,&quot;origItem&quot;:[&quot;Path&quot;,{&quot;applyMatrix&quot;:true,&quot;segments&quot;:[[[478.36906,176.67206],[1.40223,-1.48003],[0.02098,14.5076]],[[477.65721,220.36979],[0.84369,-14.51677],[-0.39666,6.82503]],[[480.46979,243.99875],[-5.731,-5.55551],[7.04312,6.82745]],[[504.48829,248.11658],[-8.7151,0.87154],[7.0997,-0.63869]],[[525.63619,245.9972],[-7.14545,-0.41335],[6.61892,0.38289]],[[547.20736,246.40103],[-6.49799,2.62811],[7.04098,-2.84772]],[[555.48007,226.42738],[-0.84268,5.9264],[2.62353,-18.45085]],[[553.12022,170.30635],[4.85733,18.01864],[-6.37687,-8.96745]],[[527.70843,164.70143],[9.81555,-0.53945],[-9.72079,0.53424]],[[498.02394,163.96833],[9.64422,1.20553],[-5.39452,-0.67431]],[[482.10339,163.29514],[5.41294,0.19917],[-0.978,-0.03599]],[[479.18208,163.00205],[0.89569,-0.39436],[-2.04713,0.90133]],[[479.7407,169.68906],[-0.31909,-2.21389],[0,0]],[479.77129,173.04978]],&quot;closed&quot;:true}]}" fill="#48576f" stroke="none" stroke-width="0.5" stroke-linecap="butt"/><path d="M209.84482,112.93601c0,7.7856 -6.89859,14.09709 -15.40845,14.09709c-8.50986,0 -15.40846,-6.31147 -15.40846,-14.09709c0,-7.7856 6.8986,-14.09709 15.40846,-14.09709c8.50986,0 15.40845,6.31147 15.40845,14.09709z" fill="none" stroke="#ffffff" stroke-width="2.5" stroke-linecap="butt"/><text transform="translate(186.2404,118.83711) scale(0.46692,0.46692)" font-size="40" xml:space="preserve" fill="#ffffff" fill-rule="nonzero" stroke="none" stroke-width="1" stroke-linecap="butt" stroke-linejoin="miter" stroke-miterlimit="10" stroke-dasharray="" stroke-dashoffset="0" font-family="Sans Serif" font-weight="normal" text-anchor="start" style="mix-blend-mode: normal"><tspan x="0" dy="0">m</tspan></text><path d="M150.32297,109.39431l2.2107,120.64158" fill="none" stroke="#cc1c1e" stroke-width="3" stroke-linecap="round"/></g></g></svg>