<svg version="1.1" xmlns="http://www.w3.org/2000/svg" xmlns:xlink="http://www.w3.org/1999/xlink" width="59.97069" height="42.67791" viewBox="0,0,59.97069,42.67791"><defs><radialGradient cx="242.43239" cy="180.81342" r="21.33896" gradientUnits="userSpaceOnUse" id="color-1"><stop offset="0" stop-color="#13c3ff"/><stop offset="1" stop-color="#13c3ff" stop-opacity="0"/></radialGradient><radialGradient cx="242.43239" cy="180.81342" r="21.33896" gradientUnits="userSpaceOnUse" id="color-2"><stop offset="0" stop-color="#000000"/><stop offset="1" stop-color="#000000" stop-opacity="0"/></radialGradient><radialGradient cx="226.80318" cy="168.32951" r="14.62693" gradientUnits="userSpaceOnUse" id="color-3"><stop offset="0" stop-color="#2be1fa"/><stop offset="1" stop-color="#2be1fa" stop-opacity="0"/></radialGradient><radialGradient cx="224.25409" cy="175.36986" r="14.62693" gradientUnits="userSpaceOnUse" id="color-4"><stop offset="0" stop-color="#2be1fa"/><stop offset="1" stop-color="#2be1fa" stop-opacity="0"/></radialGradient><radialGradient cx="218.4276" cy="180.8929" r="14.62693" gradientUnits="userSpaceOnUse" id="color-5"><stop offset="0" stop-color="#2be1fa"/><stop offset="1" stop-color="#2be1fa" stop-opacity="0"/></radialGradient><radialGradient cx="223.4044" cy="191.02857" r="14.62693" gradientUnits="userSpaceOnUse" id="color-6"><stop offset="0" stop-color="#2be1fa"/><stop offset="1" stop-color="#2be1fa" stop-opacity="0"/></radialGradient><radialGradient cx="230.32336" cy="194.30597" r="14.62693" gradientUnits="userSpaceOnUse" id="color-7"><stop offset="0" stop-color="#2be1fa"/><stop offset="1" stop-color="#2be1fa" stop-opacity="0"/></radialGradient><linearGradient x1="249.68327" y1="185.40925" x2="249.68327" y2="193.64478" gradientUnits="userSpaceOnUse" id="color-8"><stop offset="0" stop-color="#7d28a7" stop-opacity="0"/><stop offset="1" stop-color="#7d28a7"/></linearGradient><linearGradient x1="249.51519" y1="169.05025" x2="249.51519" y2="176.78157" gradientUnits="userSpaceOnUse" id="color-9"><stop offset="0" stop-color="#7d28a7"/><stop offset="1" stop-color="#7d28a7" stop-opacity="0"/></linearGradient><linearGradient x1="242.1737" y1="189.10728" x2="252.47455" y2="190.69752" gradientUnits="userSpaceOnUse" id="color-10"><stop offset="0" stop-color="#11abff"/><stop offset="1" stop-color="#00dcff"/></linearGradient><radialGradient cx="246.94061" cy="192.84728" r="1.70628" gradientUnits="userSpaceOnUse" id="color-11"><stop offset="0" stop-color="#2de0ff"/><stop offset="1" stop-color="#11d4ff"/></radialGradient><radialGradient cx="249.09388" cy="186.47977" r="1.42551" gradientUnits="userSpaceOnUse" id="color-12"><stop offset="0" stop-color="#13c5ff"/><stop offset="1" stop-color="#2ddcff"/></radialGradient><linearGradient x1="218.95911" y1="186.35066" x2="223.18952" y2="182.84612" gradientUnits="userSpaceOnUse" id="color-13"><stop offset="0" stop-color="#f7fbfe"/><stop offset="1" stop-color="#ebedee"/></linearGradient><linearGradient x1="219.63338" y1="175.57484" x2="223.09394" y2="178.38388" gradientUnits="userSpaceOnUse" id="color-14"><stop offset="0" stop-color="#f7fbfe"/><stop offset="1" stop-color="#ebedee"/></linearGradient><linearGradient x1="215.35" y1="177.23065" x2="222.67399" y2="178.91955" gradientUnits="userSpaceOnUse" id="color-15"><stop offset="0" stop-color="#f7fbfe"/><stop offset="1" stop-color="#ebedee"/></linearGradient><linearGradient x1="215.20062" y1="184.12856" x2="224.75284" y2="180.3375" gradientUnits="userSpaceOnUse" id="color-16"><stop offset="0" stop-color="#f7fbfe"/><stop offset="1" stop-color="#ebedee"/></linearGradient><linearGradient x1="212.36344" y1="180.07889" x2="223.00007" y2="180.07889" gradientUnits="userSpaceOnUse" id="color-17"><stop offset="0" stop-color="#f7fbfe"/><stop offset="1" stop-color="#ebedee"/></linearGradient><linearGradient x1="240.93032" y1="171.11217" x2="251.07014" y2="167.22277" gradientUnits="userSpaceOnUse" id="color-18"><stop offset="0" stop-color="#11abff"/><stop offset="1" stop-color="#00dcff"/></linearGradient><radialGradient cx="245.26463" cy="166.52577" r="1.5972" gradientUnits="userSpaceOnUse" id="color-19"><stop offset="0" stop-color="#2de0ff"/><stop offset="1" stop-color="#11d4ff"/></radialGradient><radialGradient cx="248.18284" cy="171.92744" r="1.33438" gradientUnits="userSpaceOnUse" id="color-20"><stop offset="0" stop-color="#13c5ff"/><stop offset="1" stop-color="#2ddcff"/></radialGradient><linearGradient x1="224.80057" y1="193.81382" x2="234.72382" y2="193.81382" gradientUnits="userSpaceOnUse" id="color-21"><stop offset="0" stop-color="#dff7ff"/><stop offset="1" stop-color="#dff7ff" stop-opacity="0"/></linearGradient><linearGradient x1="224.80057" y1="167.8222" x2="234.72382" y2="167.8222" gradientUnits="userSpaceOnUse" id="color-22"><stop offset="0" stop-color="#dff7ff"/><stop offset="1" stop-color="#dff7ff" stop-opacity="0"/></linearGradient></defs><g transform="translate(-203.80065,-159.47446)"><g data-paper-data="{&quot;isPaintingLayer&quot;:true}" fill-rule="nonzero" stroke-linejoin="miter" stroke-miterlimit="10" stroke-dasharray="" stroke-dashoffset="0" style="mix-blend-mode: normal"><path d="M221.09343,180.81342c0,-11.78518 9.55378,-21.33896 21.33896,-21.33896c11.78518,0 21.33896,9.55378 21.33896,21.33896c0,11.78518 -9.55378,21.33896 -21.33896,21.33896c-11.78518,0 -21.33896,-9.55378 -21.33896,-21.33896z" fill="url(#color-1)" stroke="url(#color-2)" stroke-width="0" stroke-linecap="butt"/><path d="M243.27219,191.63041l-0.72564,-1.74328l1.51474,-1.50612l-1.22993,-2.29494l2.11167,-1.31538l7.09587,1.35929l0.80008,0.58664l-0.73834,7.51363l-3.15778,0.26841l-0.15617,0.93792l-3.23691,-0.32791l-0.19404,-0.85457l-3.47725,-2.35782z" fill="none" stroke="#03b7ef" stroke-width="1.5" stroke-linecap="round"/><path d="M240.30188,168.59433l3.20583,-3.00206l0.09272,-0.83816l3.20678,-1.06283l0.2684,0.8334l3.19851,-0.49116l1.63597,6.79644l-0.73236,0.73167l-6.9535,2.92397l-2.2743,-0.72518l0.95979,-2.41701l-1.69846,-1.04203l0.51987,-1.7871z" data-paper-data="{&quot;index&quot;:null}" fill="none" stroke="#03b7ef" stroke-width="1.5" stroke-linecap="round"/><path d="M226.80318,171.12138c-8.07824,0 -14.62694,-1.24997 -14.62694,-2.79186c0,-1.54191 6.5487,-2.79186 14.62694,-2.79186c8.07823,0 14.62693,1.24997 14.62693,2.79186c0,1.54189 -6.54869,2.79186 -14.62693,2.79186z" data-paper-data="{&quot;index&quot;:null}" fill="url(#color-3)" stroke="none" stroke-width="0" stroke-linecap="butt"/><path d="M224.2541,176.5837c-8.07824,0 -14.62694,-0.54346 -14.62694,-1.21385c0,-0.67039 6.5487,-1.21385 14.62694,-1.21385c8.07823,0 14.62693,0.54346 14.62693,1.21385c0,0.67039 -6.54869,1.21385 -14.62693,1.21385z" data-paper-data="{&quot;index&quot;:null}" fill="url(#color-4)" stroke="none" stroke-width="0" stroke-linecap="butt"/><path d="M218.42759,183.50268c-8.07824,0 -14.62694,-1.16844 -14.62694,-2.60978c0,-1.44135 6.5487,-2.60979 14.62694,-2.60979c8.07823,0 14.62693,1.16845 14.62693,2.60979c0,1.44135 -6.54869,2.60978 -14.62693,2.60978z" data-paper-data="{&quot;index&quot;:null}" fill="url(#color-5)" stroke="none" stroke-width="0" stroke-linecap="butt"/><path d="M223.40439,192.72796c-8.07824,0 -14.62694,-0.76084 -14.62694,-1.69939c0,-0.93854 6.5487,-1.69939 14.62694,-1.69939c8.07823,0 14.62693,0.76084 14.62693,1.69939c0,0.93855 -6.54869,1.69939 -14.62693,1.69939z" data-paper-data="{&quot;index&quot;:null}" fill="url(#color-6)" stroke="none" stroke-width="0" stroke-linecap="butt"/><path d="M230.32335,195.6412c-8.07824,0 -14.62694,-0.59781 -14.62694,-1.33523c0,-0.73744 6.5487,-1.33523 14.62694,-1.33523c8.07823,0 14.62693,0.59781 14.62693,1.33523c0,0.73744 -6.54869,1.33523 -14.62693,1.33523z" data-paper-data="{&quot;index&quot;:null}" fill="url(#color-7)" stroke="none" stroke-width="0" stroke-linecap="butt"/><path d="M247.53114,185.32108l4.64299,2.36702l-0.18208,3.7326l-4.00571,2.27598l-6.28169,-6.09962l3.45948,-3.64156z" fill="none" stroke="#03b7ef" stroke-width="1.5" stroke-linecap="round"/><path d="M243.79853,178.16401l-2.64013,-3.45948l7.37416,-5.8265l3.18636,2.54909l0.27312,3.45948z" fill="none" stroke="#03b7ef" stroke-width="1.5" stroke-linecap="round"/><path d="M245.05349,174.17585l2.34678,0.48554c0,0 1.94216,3.83612 1.94216,6.47387c0,2.63776 -1.94216,5.1791 -1.94216,5.1791l-1.53755,1.3757c0,0 -6.17115,-4.97077 -6.30479,-7.20264c-0.13606,-2.27217 5.49556,-6.31161 5.49556,-6.31161z" fill="none" stroke="#03b7ef" stroke-width="1.5" stroke-linecap="round"/><path d="M249.42335,181.01389c0,3.4637 -2.1195,6.27157 -4.73402,6.27157c-2.61452,0 -4.73402,-2.80788 -4.73402,-6.27157c0,-3.4637 2.1195,-6.27157 4.73402,-6.27157c2.61452,0 4.73402,2.80788 4.73402,6.27157z" fill="none" stroke="#03b7ef" stroke-width="1.5" stroke-linecap="butt"/><path d="M220.42333,184.05041c0.64052,-0.73416 2.39383,-1.70849 2.39383,-1.70849l0.3795,0.61922c0,0 -0.7771,1.62929 -1.60948,2.34932c-0.83238,0.72003 -2.50977,1.20044 -2.50977,1.20044c0,0 0.7054,-1.72632 1.34592,-2.46048z" fill="none" stroke="#03b7ef" stroke-width="1.5" stroke-linecap="round"/><path d="M219.73017,175.4464c0,0 1.37212,0.38509 2.05303,0.96221c0.6809,0.57714 1.31657,1.88308 1.31657,1.88308l-0.31044,0.49632c0,0 -1.43427,-0.78098 -1.9582,-1.36944c-0.52394,-0.58848 -1.10096,-1.97217 -1.10096,-1.97217z" data-paper-data="{&quot;index&quot;:null}" fill="none" stroke="#03b7ef" stroke-width="1.5" stroke-linecap="round"/><path d="M219.25428,176.87523c1.45838,0.36997 3.36343,1.89772 3.36343,1.89772l-0.12686,1.00189c0,0 -2.76393,-0.10928 -3.98843,-0.61645c-1.22448,-0.50717 -3.09424,-2.19957 -3.09424,-2.19957c0,0 2.38773,-0.45353 3.84609,-0.08358z" data-paper-data="{&quot;index&quot;:null}" fill="none" stroke="#03b7ef" stroke-width="1.5" stroke-linecap="round"/><path d="M215.33129,184.48304c0,0 2.19657,-2.66856 3.75045,-3.60555c1.55388,-0.93698 5.26003,-1.65553 5.26003,-1.65553l0.3633,1.32481c0,0 -2.27578,2.45384 -4.17138,3.25413c-1.89562,0.80028 -5.20241,0.68215 -5.20241,0.68215z" fill="none" stroke="#03b7ef" stroke-width="1.5" stroke-linecap="round"/><path d="M217.29754,178.417c1.84493,-0.31113 5.70253,0.41972 5.70253,0.41972l-0.12134,1.42706c0,0 -3.08924,1.50639 -5.21721,1.55297c-2.12797,0.04658 -5.29808,-1.3431 -5.29808,-1.3431c0,0 3.08915,-1.74551 4.9341,-2.05665z" fill="none" stroke="#03b7ef" stroke-width="1.5" stroke-linecap="round"/><path d="M222.0648,180.04878c-0.28938,-3.43835 0.5859,-5.83244 3.78498,-8.5723c3.19906,-2.73988 8.53283,-2.08946 8.53283,-2.08946c0,0 -0.26205,-2.26297 1.72575,-2.78594c1.98779,-0.523 4.06916,0.30214 5.08135,1.39298c1.01218,1.09084 0.3237,1.94487 0.3237,1.94487l3.53776,-0.51063l-1.09247,3.80514l3.06148,0.48884l-2.36904,1.95244l2.57843,1.40698l-1.87528,1.86981l1.84854,1.84393l-1.63725,1.34717l1.76007,2.24219l-2.6765,0.20755l1.96384,3.11487l-2.72524,0.25962l0.80131,1.53786l-2.68839,0.23828l-0.60293,0.43079c0,0 1.14057,2.31398 -0.49562,3.78936c-1.63622,1.47538 -4.034,1.52748 -5.17723,1.19399c-1.14321,-0.33353 -0.71698,-2.86998 -0.71698,-2.86998c0,0 -6.12865,0.79614 -9.29982,-2.08946c-3.17116,-2.8856 -3.35383,-6.71045 -3.64323,-10.1488z" fill="none" stroke="#03b7ef" stroke-width="1.5" stroke-linecap="round"/><path d="M228.44213,191.6289l-1.6387,-0.09104l8.83077,-9.19494l-0.91039,9.92325l-3.00429,4.73402l-0.54624,-0.18208v-2.45806l-6.37272,4.36987z" fill="none" stroke="#03b7ef" stroke-width="1.5" stroke-linecap="round"/><path d="M228.6242,169.50642l-3.82364,-7.01l6.46377,4.09675l-0.09104,-2.36702l0.7283,-0.18208l2.82221,5.00714l2.91324,11.56195l-11.01571,-10.92467z" fill="none" stroke="#03b7ef" stroke-width="1.5" stroke-linecap="round"/><path d="M247.53114,185.32108l4.64299,2.36702l-0.18208,3.7326l-4.00571,2.27598l-6.28169,-6.09962l3.45948,-3.64156z" fill="#9242da" stroke="#000000" stroke-width="0" stroke-linecap="round"/><path d="M243.79853,178.16402l-2.64013,-3.45948l7.37416,-5.8265l3.18636,2.54909l0.27312,3.45948z" fill="#9242da" stroke="#000000" stroke-width="0" stroke-linecap="round"/><path d="M249.01097,192.24418l-1.06445,-0.7283l1.96084,0.4482l1.06446,-0.84036l0.05602,-0.84036l-2.68915,-1.1765l2.5771,0.44819l0.16807,-1.28855l-3.86564,-2.85722l4.93012,2.35301l-0.22409,3.64156l-3.86564,2.24096l-0.78434,-0.7283z" fill="url(#color-8)" stroke="#000000" stroke-width="0" stroke-linecap="round"/><path d="M248.67482,169.05024l2.96927,2.35301l0.16807,3.47349l-4.59397,1.90482l3.86564,-2.46504v-1.06446l-2.74519,0.39217l2.68915,-1.12049l-0.16807,-0.89638l-0.61626,-0.28011l-0.67229,-0.28011l-1.84879,0.16807l1.4006,-0.67228l-1.1765,-1.06446z" fill="url(#color-9)" stroke="#000000" stroke-width="0" stroke-linecap="round"/><path d="M242.01417,173.59527l4.18778,-1.45663l1.45663,3.18636l-0.81935,1.54766l0.09104,7.82935l1.09247,1.54766l-0.54624,1.54766l-1.27454,1.82078l-3.36844,-1.6387z" fill="#eff7ff" stroke="#9341d8" stroke-width="0" stroke-linecap="round"/><path d="M245.05349,174.17585l2.34678,0.48554c0,0 1.94216,3.83612 1.94216,6.47387c0,2.63776 -1.94216,5.1791 -1.94216,5.1791l-1.53755,1.3757c0,0 -6.17115,-4.97077 -6.30479,-7.20264c-0.13606,-2.27217 5.49556,-6.31161 5.49556,-6.31161z" fill="#f7fbff" stroke="#000000" stroke-width="0" stroke-linecap="round"/><path d="M249.42335,181.01389c0,3.4637 -2.1195,6.27157 -4.73402,6.27157c-2.61452,0 -4.73402,-2.80788 -4.73402,-6.27157c0,-3.4637 2.1195,-6.27157 4.73402,-6.27157c2.61452,0 4.73402,2.80788 4.73402,6.27157z" fill="#9846df" stroke="none" stroke-width="0" stroke-linecap="butt"/><path d="M239.22824,185.88439l5.39836,-0.47224l-0.38813,7.43026l-3.97647,-1.40412z" fill="#eff7ff" stroke="#000000" stroke-width="0" stroke-linecap="round"/><path d="M243.2722,191.63042l-0.72564,-1.74328l1.51474,-1.50612l-1.22993,-2.29494l2.11167,-1.31538l7.09587,1.35929l0.80008,0.58664l-0.73834,7.51363l-3.15778,0.26841l-0.15617,0.93792l-3.23691,-0.32791l-0.19404,-0.85457l-3.47725,-2.35782z" fill="url(#color-10)" stroke="#0087ff" stroke-width="0" stroke-linecap="round"/><path d="M246.12001,191.99907l0.0922,-3.55906l0.88857,0.20589l-0.57036,2.96986z" fill="#ade8ff" stroke="#000000" stroke-width="0" stroke-linecap="round"/><path d="M248.38797,192.07431l-0.18311,1.99889l-2.98014,-0.87238l0.07283,-1.22566l1.19122,-0.50327z" fill="url(#color-11)" stroke="#000000" stroke-width="0" stroke-linecap="round"/><path d="M247.8576,189.82785l1.03084,0.74324l-0.46597,1.71471l-1.45134,-0.53328z" fill="#11bcff" stroke="#000000" stroke-width="0" stroke-linecap="round"/><path d="M243.46315,192.10428l-1.31117,-2.12649l1.90722,-1.35476l-1.52079,-2.29629l2.05496,-1.67555l-0.87974,0.51701" fill="none" stroke="#0087ff" stroke-width="1" stroke-linecap="round"/><path d="M245.3552,192.77431l1.13565,0.82814l1.34359,0.20742l0.15531,0.95166l-2.49313,0.43972z" fill="#aee4ff" stroke="#000000" stroke-width="0" stroke-linecap="round"/><path d="M243.71149,192.17696l-1.31117,-2.12649l1.90722,-1.35476l-1.52079,-2.29629l2.05496,-1.67555l-0.87974,0.51701" fill="none" stroke="#cdf4ff" stroke-width="1" stroke-linecap="round"/><path d="M246.58219,191.93297l1.29983,-2.067l1.06956,0.64613l-0.99213,3.72936l0.47396,0.89777" fill="none" stroke="#e3f6ff" stroke-width="0.5" stroke-linecap="round"/><path d="M245.79211,194.55969l0.22098,-0.2064l1.91479,-0.08235" fill="none" stroke="#e3f6ff" stroke-width="0.5" stroke-linecap="round"/><path d="M250.81416,193.34219l-1.6134,-0.07729l0.31655,-2.18443l1.6997,0.60597l-0.41294,1.48239l0.9433,0.76408" fill="none" stroke="#e3f6ff" stroke-width="0.5" stroke-linecap="round"/><path d="M248.10806,187.46141l0.18016,-2.23986l1.74263,0.20031l-0.51017,2.66992z" fill="url(#color-12)" stroke="#000000" stroke-width="0" stroke-linecap="round"/><path d="M251.97761,191.21978l-0.48112,-0.83016l-1.84743,-0.28521l0.024,-1.30192l-0.0202,-0.34671l1.86469,0.39095l-0.0383,1.43714" fill="none" stroke="#e3f6ff" stroke-width="0.5" stroke-linecap="round"/><path d="M252.5223,188.76133l-0.83133,-0.74679l-1.98381,-0.34062l0.28076,-1.84639" fill="none" stroke="#e3f6ff" stroke-width="0.5" stroke-linecap="round"/><path d="M247.2978,185.17173l4.73708,0.93746l0.74377,0.76764" fill="none" stroke="#e3f6ff" stroke-width="0.5" stroke-linecap="round"/><path d="M251.90145,186.29474l-0.1688,1.86367" fill="none" stroke="#e3f6ff" stroke-width="0.5" stroke-linecap="round"/><path d="M252.18597,191.93912l-0.857,-0.23538" fill="none" stroke="#b7f3ff" stroke-width="0.5" stroke-linecap="round"/><path d="M251.75874,188.98703l0.65327,0.54752" fill="none" stroke="#b7f3ff" stroke-width="0.5" stroke-linecap="round"/><path d="M249.09639,189.95036l-1.38693,-1.1418l-1.03127,2.48641l1.40508,-5.21173" fill="none" stroke="#00a3ff" stroke-width="1" stroke-linecap="round"/><path d="M249.18393,194.49921l-0.45964,-1.03299l0.5245,-2.80516l2.4662,0.62125" fill="none" stroke="#00a3ff" stroke-width="0.5" stroke-linecap="round"/><path d="M247.83826,187.59155l4.29216,1.10927" fill="none" stroke="#00a3ff" stroke-width="0.5" stroke-linecap="round"/><path d="M249.56614,191.15671l1.46566,0.39806l-0.26224,1.40258l-1.41389,-0.08085z" fill="#00c4ff" stroke="#00a3ff" stroke-width="0" stroke-linecap="round"/><path d="M249.83091,188.65507l1.47281,0.33045l-0.06567,1.15805l-1.46987,-0.08948z" fill="#00c4ff" stroke="#00a3ff" stroke-width="0" stroke-linecap="round"/><path d="M250.19755,185.99734l1.46566,0.39806l-0.14312,1.35225l-1.55321,-0.37722z" fill="#00c4ff" stroke="#00a3ff" stroke-width="0" stroke-linecap="round"/><path d="M248.87497,193.38641l2.3555,0.05442l0.66631,0.96183l-2.4502,0.03403z" fill="#00e8ff" stroke="#000000" stroke-width="0" stroke-linecap="round"/><path d="M252.25498,192.36208l-0.26519,1.16161l-0.62169,-0.577l0.09302,-0.87897z" fill="#00e8ff" stroke="#000000" stroke-width="0" stroke-linecap="round"/><path d="M251.61856,190.58026l0.13597,-1.28464l0.82838,0.50583l-0.31823,1.39394z" fill="#00e8ff" stroke="#000000" stroke-width="0" stroke-linecap="round"/><path d="M252.04077,186.59113l0.72652,0.66189l-0.01096,1.71623l-0.9075,-1.10213z" fill="#00e8ff" stroke="#000000" stroke-width="0" stroke-linecap="round"/><path d="M248.26125,195.42191l-2.67412,-0.00054l0.28834,-0.57393l2.01665,-0.23842z" fill="#24ccff" stroke="#000000" stroke-width="0" stroke-linecap="round"/><path d="M245.38217,187.14366l-0.34223,2.69586" fill="none" stroke="#4fbeff" stroke-width="0.25" stroke-linecap="round"/><path d="M220.42333,184.05041c0.64052,-0.73416 2.39383,-1.70849 2.39383,-1.70849l0.3795,0.61922c0,0 -0.7771,1.62929 -1.60948,2.34932c-0.83238,0.72003 -2.50977,1.20044 -2.50977,1.20044c0,0 0.7054,-1.72632 1.34592,-2.46048z" fill="url(#color-13)" stroke="#c8faff" stroke-width="0" stroke-linecap="round"/><path d="M219.73017,175.44641c0,0 1.37212,0.38509 2.05303,0.96221c0.6809,0.57714 1.31657,1.88308 1.31657,1.88308l-0.31044,0.49632c0,0 -1.43427,-0.78098 -1.9582,-1.36944c-0.52394,-0.58848 -1.10096,-1.97217 -1.10096,-1.97217z" data-paper-data="{&quot;index&quot;:null}" fill="url(#color-14)" stroke="#c8faff" stroke-width="0" stroke-linecap="round"/><path d="M215.40818,176.95884c0,0 2.38771,-0.45354 3.84606,-0.0836c1.45838,0.36997 3.36343,1.89772 3.36343,1.89772l-0.12686,1.00189c0,0 -2.76393,-0.10928 -3.98843,-0.61645c-1.22448,-0.50717 -3.09424,-2.19957 -3.09424,-2.19957z" data-paper-data="{&quot;index&quot;:null}" fill="url(#color-15)" stroke="#c8faff" stroke-width="0" stroke-linecap="round"/><path d="M215.33129,184.48305c0,0 2.19657,-2.66856 3.75045,-3.60555c1.55388,-0.93698 5.26003,-1.65553 5.26003,-1.65553l0.3633,1.32481c0,0 -2.27578,2.45384 -4.17138,3.25413c-1.89562,0.80028 -5.20241,0.68215 -5.20241,0.68215z" fill="url(#color-16)" stroke="#c8faff" stroke-width="0" stroke-linecap="round"/><path d="M217.29754,178.41701c1.84493,-0.31113 5.70253,0.41972 5.70253,0.41972l-0.12134,1.42706c0,0 -3.08924,1.50639 -5.21721,1.55297c-2.12797,0.04658 -5.29808,-1.3431 -5.29808,-1.3431c0,0 3.08915,-1.74551 4.9341,-2.05665z" fill="url(#color-17)" stroke="#c8faff" stroke-width="0" stroke-linecap="round"/><path d="M238.7355,169.39804l3.8201,-2.23445l1.27484,6.80118l-5.4696,0.82724z" data-paper-data="{&quot;index&quot;:null}" fill="#eff7ff" stroke="#000000" stroke-width="0" stroke-linecap="round"/><path d="M240.30188,168.59433l3.20583,-3.00206l0.09272,-0.83817l3.20678,-1.06283l0.2684,0.8334l3.19851,-0.49116l1.63597,6.79644l-0.73236,0.73167l-6.9535,2.92397l-2.2743,-0.72518l0.95979,-2.41701l-1.69846,-1.04203l0.51987,-1.7871z" data-paper-data="{&quot;index&quot;:null}" fill="url(#color-18)" stroke="#0087ff" stroke-width="0" stroke-linecap="round"/><path d="M245.0001,167.76423l0.92595,2.62111l-0.86649,0.39925l-0.51669,-3.2797z" data-paper-data="{&quot;index&quot;:null}" fill="#ade8ff" stroke="#000000" stroke-width="0" stroke-linecap="round"/><path d="M244.97546,167.90745l-1.25451,-0.18762l-0.21912,-1.11983l2.88441,-1.50769l0.42188,1.8112z" data-paper-data="{&quot;index&quot;:null}" fill="url(#color-19)" stroke="#000000" stroke-width="0" stroke-linecap="round"/><path d="M245.42573,167.53409l1.39179,-0.83483l0.67165,1.48132l-0.94511,0.93102z" data-paper-data="{&quot;index&quot;:null}" fill="#11bcff" stroke="#000000" stroke-width="0" stroke-linecap="round"/><path d="M242.94402,174.4051l0.94379,0.27337l-2.26036,-1.07256l1.25129,-2.48644l-2.07399,-0.80965l1.06133,-2.27981" data-paper-data="{&quot;index&quot;:null}" fill="none" stroke="#0087ff" stroke-width="1" stroke-linecap="round"/><path d="M243.53606,164.68071l2.55245,-0.17648l-0.0423,0.91914l-1.32259,0.50731l-1.04009,1.03433z" data-paper-data="{&quot;index&quot;:null}" fill="#aee4ff" stroke="#000000" stroke-width="0" stroke-linecap="round"/><path d="M243.18439,174.27946l0.94379,0.27337l-2.26036,-1.07256l1.25129,-2.48644l-2.07399,-0.80965l1.06133,-2.27981" data-paper-data="{&quot;index&quot;:null}" fill="none" stroke="#cdf4ff" stroke-width="1" stroke-linecap="round"/><path d="M246.48838,164.04989l-0.36827,0.94384l1.4394,3.22673l-0.99551,0.85002l-1.5498,-1.61264" data-paper-data="{&quot;index&quot;:null}" fill="none" stroke="#e3f6ff" stroke-width="0.5" stroke-linecap="round"/><path d="M246.08494,164.97378l-1.92991,0.37242l-0.2462,-0.13966" data-paper-data="{&quot;index&quot;:null}" fill="none" stroke="#e3f6ff" stroke-width="0.5" stroke-linecap="round"/><path d="M249.95527,164.39213l-0.85483,0.92982l0.59077,1.27824l-1.63217,0.96047l-0.5778,-1.95205l1.60865,-0.44985" data-paper-data="{&quot;index&quot;:null}" fill="none" stroke="#e3f6ff" stroke-width="0.5" stroke-linecap="round"/><path d="M248.41869,170.33213l0.82982,2.35699l-1.72358,0.59423l-0.44764,-2.03542z" data-paper-data="{&quot;index&quot;:null}" fill="url(#color-20)" stroke="#000000" stroke-width="0" stroke-linecap="round"/><path d="M250.12137,167.83974l0.20971,1.32408l-1.82326,0.79968l-0.02106,-0.32633l-0.17925,-1.20201l1.81855,-0.69755l0.38349,-0.8828" data-paper-data="{&quot;index&quot;:null}" fill="none" stroke="#e3f6ff" stroke-width="0.5" stroke-linecap="round"/><path d="M249.1571,172.32289l-0.50162,-1.64687l1.9487,-0.78092l0.74462,-0.88756" data-paper-data="{&quot;index&quot;:null}" fill="none" stroke="#e3f6ff" stroke-width="0.5" stroke-linecap="round"/><path d="M251.83048,170.69549l-0.65432,0.88638l-4.63845,1.97984" data-paper-data="{&quot;index&quot;:null}" fill="none" stroke="#e3f6ff" stroke-width="0.5" stroke-linecap="round"/><path d="M249.80144,166.55792l0.83132,-0.4192" data-paper-data="{&quot;index&quot;:null}" fill="none" stroke="#b7f3ff" stroke-width="0.5" stroke-linecap="round"/><path d="M251.14604,168.31617l-0.58982,0.66098" data-paper-data="{&quot;index&quot;:null}" fill="none" stroke="#b7f3ff" stroke-width="0.5" stroke-linecap="round"/><path d="M247.21666,172.53212l-2.03017,-4.50498l1.3305,2.06462l1.25468,-1.38418" data-paper-data="{&quot;index&quot;:null}" fill="none" stroke="#00a3ff" stroke-width="1" stroke-linecap="round"/><path d="M250.23873,166.85838l-2.39897,1.15428l-0.86029,-2.47907l0.33779,-1.06592" data-paper-data="{&quot;index&quot;:null}" fill="none" stroke="#00a3ff" stroke-width="0.5" stroke-linecap="round"/><path d="M250.96305,169.1555l-4.17182,2.03495" data-paper-data="{&quot;index&quot;:null}" fill="none" stroke="#00a3ff" stroke-width="0.5" stroke-linecap="round"/><path d="M247.68289,165.93259l1.40816,-0.40639l0.43015,1.23953l-1.42227,0.71276z" data-paper-data="{&quot;index&quot;:null}" fill="#00c4ff" stroke="#00a3ff" stroke-width="0" stroke-linecap="round"/><path d="M248.43296,168.45394l1.46327,-0.42752l0.20388,1.0588l-1.43751,0.65172z" data-paper-data="{&quot;index&quot;:null}" fill="#00c4ff" stroke="#00a3ff" stroke-width="0" stroke-linecap="round"/><path d="M248.9521,170.89666l1.51255,-0.71393l0.3047,1.22077l-1.42227,0.71276z" data-paper-data="{&quot;index&quot;:null}" fill="#00c4ff" stroke="#00a3ff" stroke-width="0" stroke-linecap="round"/><path d="M247.58808,164.4641l2.46104,-0.54271l-0.55353,1.04834l-2.35553,0.60255z" data-paper-data="{&quot;index&quot;:null}" fill="#00e8ff" stroke="#000000" stroke-width="0" stroke-linecap="round"/><path d="M249.89059,166.18932l-0.19806,-0.7935l0.55464,-0.68093l0.40439,1.01533z" data-paper-data="{&quot;index&quot;:null}" fill="#00e8ff" stroke="#000000" stroke-width="0" stroke-linecap="round"/><path d="M250.80035,166.81015l0.48525,1.2184l-0.77037,0.66336l-0.28947,-1.15973z" data-paper-data="{&quot;index&quot;:null}" fill="#00e8ff" stroke="#000000" stroke-width="0" stroke-linecap="round"/><path d="M250.78005,169.99486l0.77865,-1.23503l0.21555,1.58939l-0.64964,0.78425z" data-paper-data="{&quot;index&quot;:null}" fill="#00e8ff" stroke="#000000" stroke-width="0" stroke-linecap="round"/><path d="M246.00877,164.66859l-2.05066,0.25153l-0.35754,-0.46478l2.68147,-0.62725z" data-paper-data="{&quot;index&quot;:null}" fill="#24ccff" stroke="#000000" stroke-width="0" stroke-linecap="round"/><path d="M222.0648,180.04878c-0.28938,-3.43835 0.5859,-5.83244 3.78498,-8.5723c3.19906,-2.73988 8.53283,-2.08946 8.53283,-2.08946c0,0 -0.26205,-2.26297 1.72575,-2.78594c1.98779,-0.523 4.06916,0.30214 5.08135,1.39298c1.01218,1.09084 0.3237,1.94487 0.3237,1.94487l3.53776,-0.51063l-1.09247,3.80514l3.06148,0.48884l-2.36904,1.95244l2.57843,1.40698l-1.87528,1.86981l1.84854,1.84393l-1.63725,1.34717l1.76007,2.24219l-2.6765,0.20755l1.96384,3.11487l-2.72524,0.25962l0.80131,1.53786l-2.68839,0.23828l-0.60293,0.43079c0,0 1.14057,2.31398 -0.49562,3.78936c-1.63622,1.47538 -4.034,1.52748 -5.17723,1.19399c-1.14321,-0.33353 -0.71698,-2.86998 -0.71698,-2.86998c0,0 -6.12865,0.79614 -9.29982,-2.08946c-3.17116,-2.8856 -3.35383,-6.71045 -3.64323,-10.1488z" fill="#f7fbfe" stroke="#c8faff" stroke-width="0" stroke-linecap="round"/><path d="M234.44925,174.38654c0.21708,-3.16665 1.92131,-4.25102 4.95434,-3.72503c4.5469,0.78855 5.2071,6.40075 5.2071,6.40075c0,0 0.90198,0.46059 1.2133,0.99684c0.24534,0.42258 0.17629,4.33148 0.05057,4.9317c-0.12574,0.60025 -1.2133,1.15424 -1.2133,1.15424c0,0 -0.03417,5.72511 -5.61153,6.87293c-2.5279,0.52024 -4.80255,-0.62084 -4.60045,-3.88241c0.24471,-3.94896 4.56928,-6.55813 4.56928,-6.55813c0,0 -4.46815,-2.97032 -4.56928,-6.19088z" fill="#9545df" stroke="#347db1" stroke-width="0" stroke-linecap="round"/><path d="M238.04774,183.86123c1.53598,-1.45256 3.72801,-1.55167 4.89607,-0.22141c1.16805,1.33026 0.86977,3.58618 -0.6662,5.03872c-1.53598,1.45256 -3.72801,1.55166 -4.89606,0.22141c-1.16805,-1.33026 -0.86977,-3.58617 0.66619,-5.03872z" fill="#5a2b94" stroke="#549bb6" stroke-width="0" stroke-linecap="butt"/><path d="M237.17933,172.56969c1.16805,-1.33026 3.3601,-1.23116 4.89607,0.22141c1.53598,1.45256 1.83422,3.70846 0.66619,5.03872c-1.16805,1.33026 -3.3601,1.23116 -4.89607,-0.22141c-1.53598,-1.45256 -1.83422,-3.70846 -0.66619,-5.03872z" data-paper-data="{&quot;index&quot;:null}" fill="#5a2b94" stroke="#549bb6" stroke-width="0" stroke-linecap="butt"/><path d="M236.47229,192.08312c0,0 1.34852,-0.19423 1.95664,-0.38808c0.52613,-0.16772 1.49349,-0.56033 1.49349,-0.56033c0,0 0.2193,0.24439 0.07015,0.88632c-0.10182,0.43825 -2.19404,1.61075 -2.95216,1.08443c-0.62282,-0.4324 -0.56813,-1.02233 -0.56813,-1.02233z" data-paper-data="{&quot;index&quot;:null}" fill="#8331bb" stroke="#000000" stroke-width="0" stroke-linecap="round"/><path d="M236.32685,168.28051c0.82632,-0.69625 3.37895,0.43247 3.5427,0.93029c0.23988,0.72924 0.01042,1.03769 0.01042,1.03769c0,0 -1.16473,-0.34812 -1.79347,-0.48426c-0.72666,-0.15732 -2.31377,-0.23238 -2.31377,-0.23238c0,0 -0.12474,-0.67936 0.5541,-1.25138z" data-paper-data="{&quot;index&quot;:null}" fill="#8331bb" stroke="#000000" stroke-width="0" stroke-linecap="round"/><path d="M238.53441,183.59484c1.43803,-1.35992 3.49028,-1.45271 4.58385,-0.20729c1.09356,1.24542 0.81431,3.35748 -0.62371,4.71743c-1.43803,1.35992 -3.49028,1.45271 -4.58385,0.20729c-1.09356,-1.24542 -0.81431,-3.35748 0.62371,-4.71743z" fill="#ffffff" stroke="#549bb6" stroke-width="0" stroke-linecap="butt"/><path d="M237.72876,173.153c1.0944,-1.24636 3.1482,-1.15351 4.58729,0.20744c1.4391,1.36094 1.71856,3.47459 0.62417,4.72097c-1.0944,1.24636 -3.14821,1.15351 -4.5873,-0.20744c-1.4391,-1.36094 -1.71856,-3.47459 -0.62417,-4.72097z" data-paper-data="{&quot;index&quot;:null}" fill="#ffffff" stroke="#549bb6" stroke-width="0" stroke-linecap="butt"/><path d="M244.24976,183.80575c0,0 0.19427,-1.81738 0.13786,-3.17101c-0.05641,-1.3536 -0.4136,-3.44675 -0.4136,-3.44675l1.86124,1.44763v4.48076l-1.5855,0.68935z" fill="#572992" stroke="#000000" stroke-width="0" stroke-linecap="round"/><path d="M244.52551,180.70368c-0.04376,-1.37108 -0.48255,-3.44675 -0.48255,-3.44675l1.65444,1.51656l-0.6204,0.2068c0,0 0.2068,0.7744 0.2068,1.5855c0,0.8111 -0.2068,2.06804 -0.2068,2.06804l0.75828,0.06894l-1.5855,1.03403c0,0 0.3195,-1.66206 0.27575,-3.03313z" fill="#faf8fc" stroke="#000000" stroke-width="0" stroke-linecap="round"/><path d="M240.83264,180.61731l-9.24396,16.52708l-0.33615,-0.22409l0.16807,-2.63313l-6.55481,4.36987l14.45419,-18.31984l-14.39816,-17.70357l6.10662,4.03373l0.11205,-2.40903l0.89638,-0.16807z" fill="#36b7ff" stroke="#000000" stroke-width="0" stroke-linecap="round"/><path d="M228.78749,169.41253l-4.14578,-7.11505l15.91081,18.37586l-15.91081,18.20779l3.80963,-7.17107l-1.4006,-0.28011l10.58853,-10.75661l-10.75661,-11.2048z" fill="#459afa" stroke="#000000" stroke-width="0" stroke-linecap="round"/><path d="M238.12248,176.86371l0.47621,5.86852l-7.79434,-0.2101l4.59397,-1.73675l-4.03373,-2.29699z" fill="#008fff" stroke="#000000" stroke-width="0" stroke-linecap="round"/><path d="M235.95855,185.15527l-4.98613,-2.5771l7.78733,-1.1765l-6.33071,-3.52951l4.98613,-1.34458l2.68915,4.53795l-3.0253,4.31384l-1.1765,0.16807z" fill="#00ccff" stroke="#000000" stroke-width="0" stroke-linecap="round"/><path d="M234.10977,168.29205l6.72288,12.3813l-6.61083,12.26925l-0.50422,-0.78433l0.22409,-1.06446l-1.23253,0.11204l0.95241,-1.73674l-0.28011,-0.67229l4.59397,-8.29154l-5.77048,-9.74817l0.89638,0.11205l-0.4482,-1.28855l1.1765,0.61626z" fill="#0076fa" stroke="#000000" stroke-width="0" stroke-linecap="round"/><path d="M228.44213,191.6289l-1.6387,-0.09104l8.83077,-9.19494l-0.91039,9.92325l-3.00429,4.73402l-0.54624,-0.18208v-2.45806l-6.37272,4.36987z" fill="url(#color-21)" stroke="#000000" stroke-width="0" stroke-linecap="round"/><path d="M228.6242,169.50643l-3.82364,-7.01l6.46377,4.09675l-0.09104,-2.36702l0.7283,-0.18208l2.82221,5.00714l2.91324,11.56195l-11.01571,-10.92467z" fill="url(#color-22)" stroke="#000000" stroke-width="0" stroke-linecap="round"/><path d="M237.08309,184.13362l-0.67004,-0.08739l-3.90375,-3.35023l3.81635,-3.61242h0.78657z" fill="#95b0be" stroke="#000000" stroke-width="0" stroke-linecap="round"/><path d="M248.2095,180.99045v-0.7283" fill="none" stroke="#9341d8" stroke-width="0.5" stroke-linecap="round"/><path d="M237.11221,177.1127l6.46742,3.46676l-6.58394,3.58329l-3.23371,-3.67069z" fill="#abc7d7" stroke="#000000" stroke-width="0" stroke-linecap="round"/><path d="M234.54856,181.54084l4.22421,-3.46676l1.54402,0.75744l-4.66119,3.78721z" fill="#ccedff" stroke="#000000" stroke-width="0" stroke-linecap="round"/><path d="M242.7348,180.25902l-5.73909,3.81635l-0.40786,-0.40786l5.30211,-3.90375z" fill="#ccedff" stroke="#000000" stroke-width="0" stroke-linecap="round"/><path d="M248.12849,180.52028l0.46988,-0.07832" fill="none" stroke="#9341d8" stroke-width="0.5" stroke-linecap="round"/><path d="M242.00647,180.87078l-4.5738,2.44713l-2.59279,-2.62192l2.70932,-2.59279z" fill="#7a93a0" stroke="#000000" stroke-width="0" stroke-linecap="round"/><path d="M237.66574,178.86065l3.23371,1.89362l-3.11717,1.89362l-1.95188,-1.89362z" fill="#abc7d7" stroke="#000000" stroke-width="0" stroke-linecap="round"/><path d="M235.88866,180.78339l1.83534,-1.83534l1.22357,0.64091l-2.38887,1.80622z" fill="#ccefff" stroke="#000000" stroke-width="0" stroke-linecap="round"/><path d="M237.66574,182.18175l2.68018,-1.63142l0.37872,0.26218l-2.88411,1.71882z" fill="#ccefff" stroke="#000000" stroke-width="0" stroke-linecap="round"/></g></g></svg>