<svg version="1.1" xmlns="http://www.w3.org/2000/svg" xmlns:xlink="http://www.w3.org/1999/xlink" width="196.36948" height="148.12665" viewBox="0,0,196.36948,148.12665"><defs><linearGradient x1="234.90244" y1="228.90179" x2="234.90244" y2="219.65179" gradientUnits="userSpaceOnUse" id="color-1"><stop offset="0" stop-color="#d10284"/><stop offset="1" stop-color="#d10284" stop-opacity="0"/></linearGradient><linearGradient x1="147.32671" y1="208.49676" x2="196.66005" y2="208.49676" gradientUnits="userSpaceOnUse" id="color-2"><stop offset="0" stop-color="#a01700"/><stop offset="1" stop-color="#a01700" stop-opacity="0"/></linearGradient><linearGradient x1="193.26653" y1="254.64912" x2="228.72022" y2="220.34439" gradientUnits="userSpaceOnUse" id="color-3"><stop offset="0" stop-color="#f9ef04"/><stop offset="1" stop-color="#f9ef04" stop-opacity="0"/></linearGradient><linearGradient x1="254.80811" y1="258.03238" x2="274.33775" y2="212.72927" gradientUnits="userSpaceOnUse" id="color-4"><stop offset="0" stop-color="#15fa05"/><stop offset="1" stop-color="#15fa05" stop-opacity="0"/></linearGradient><linearGradient x1="308.01838" y1="232.93192" x2="301.37345" y2="184.04815" gradientUnits="userSpaceOnUse" id="color-5"><stop offset="0" stop-color="#20e4df"/><stop offset="1" stop-color="#20e4df" stop-opacity="0"/></linearGradient></defs><g transform="translate(-131.87035,-112.76442)"><g data-paper-data="{&quot;isPaintingLayer&quot;:true}" fill-rule="nonzero" stroke-linejoin="miter" stroke-miterlimit="10" stroke-dasharray="" stroke-dashoffset="0" style="mix-blend-mode: normal"><g data-paper-data="{&quot;index&quot;:null}" stroke="none" stroke-width="0.5" stroke-linecap="butt"><path d="M318.46394,207.08772c-0.35531,0.52559 -0.68269,1.07589 -1.09864,1.55186c-0.65121,0.74518 -2.79908,1.95612 -3.50054,2.49908c-4.30412,3.33157 -8.51489,7.03891 -12.6255,10.63139c-2.18414,1.90884 -4.69923,3.38074 -6.76943,5.41598c-3.29405,1.68535 -6.52164,3.46788 -9.83854,5.10398c-0.97819,0.48251 -1.6489,1.78793 -2.73962,1.78927c-2.01482,0.00247 -4.43362,-2.76058 -5.91973,-3.92029c-4.86395,-3.79565 -8.93563,-8.08613 -14.26382,-11.28304c-5.48172,-4.16045 -9.60738,-10.01805 -10.21604,-16.94869c-0.24275,-2.76418 0.73093,-5.47141 1.00111,-8.19172c0.33462,-3.369 0.66504,-6.85475 0.66987,-10.2605c-0.50911,-2.29097 -0.3408,-4.62865 -0.3408,-6.96973v-1.33333h0.4135l0.35815,-1.15485c0.34953,0.18548 0.70318,0.37699 1.05964,0.57356l0.30259,-0.30259l1,1l-0.02281,0.02282c2.09275,1.20048 4.22696,2.53236 6.14595,3.80815c4.12158,2.7401 7.40738,6.33585 11.88533,8.60155c1.00883,0.51044 2.30229,2.05398 3.39484,2.2348c2.18957,0.36238 5.41814,0.17808 7.56008,-0.35741c4.01484,0.05256 8.39909,-3.18961 11.42184,-5.44009c1.08306,-0.80635 2.41423,-1.21949 3.55498,-1.94191c1.55409,-0.98418 2.63618,-2.4016 4.16888,-3.43028c3.60559,-2.41989 7.43981,-3.9048 11.67369,-4.86374l1.6365,0.37065c0,0 1.21267,0.30317 0.9095,1.51585c-0.08386,0.33544 -0.23731,0.55489 -0.41544,0.69687c0.45276,0.36479 0.45276,0.99996 0.45276,0.99996c0,5.82688 1.3528,11.6523 2.21833,17.39905c0.52152,3.46269 -0.8406,6.62936 -0.88432,10.00447c0.03841,0.16745 0.03102,0.32639 -0.00068,0.46965v0.46016c0,0 0,1.21081 -1.19168,1.24908z" fill="#333333"/><path d="M319.13061,169.08772c-0.35531,0.52559 -0.68269,1.07589 -1.09863,1.55186c-0.65121,0.74518 -2.79908,1.95612 -3.50054,2.49908c-4.30412,3.33157 -8.51489,7.03891 -12.6255,10.63139c-2.18414,1.90884 -4.69923,3.38074 -6.76943,5.41598c-3.29405,1.68535 -6.52164,3.46788 -9.83854,5.10398c-0.97819,0.48251 -1.6489,1.78793 -2.73962,1.78927c-2.01482,0.00247 -4.43362,-2.76058 -5.91974,-3.92029c-4.86395,-3.79565 -8.93562,-8.08613 -14.26382,-11.28304c-5.48172,-4.16045 -9.60737,-10.01805 -10.21603,-16.94869c-0.24275,-2.76418 0.73093,-5.47141 1.00111,-8.19172c0.33462,-3.369 0.66504,-6.85475 0.66987,-10.2605c-0.50911,-2.29097 -0.34079,-4.62865 -0.34079,-6.96973v-1.33333h0.4135l0.35814,-1.15485c0.34953,0.18548 0.70318,0.37699 1.05964,0.57356l0.30259,-0.30259l1,1l-0.02281,0.02282c2.09275,1.20048 4.22695,2.53236 6.14596,3.80815c4.12158,2.7401 7.40738,6.33585 11.88533,8.60155c1.00883,0.51044 2.30229,2.05398 3.39484,2.2348c2.18957,0.36238 5.41815,0.17808 7.56008,-0.35741c4.01484,0.05256 8.39909,-3.18961 11.42184,-5.44009c1.08306,-0.80635 2.41423,-1.21949 3.55498,-1.94191c1.55409,-0.98418 2.63617,-2.4016 4.16888,-3.43028c3.60559,-2.41989 7.43981,-3.9048 11.67369,-4.86374l1.6365,0.37065c0,0 1.21267,0.30317 0.90951,1.51585c-0.08386,0.33544 -0.23732,0.55489 -0.41544,0.69687c0.45276,0.36479 0.45276,0.99996 0.45276,0.99996c0,5.82688 1.35279,11.6523 2.21833,17.39905c0.52152,3.46269 -0.8406,6.62936 -0.88432,10.00447c0.03841,0.16745 0.03102,0.32639 -0.00068,0.46965v0.46016c0,0 0,1.21081 -1.19168,1.24908z" fill="#0e0e0e"/><path d="M266.07229,139.30288c-0.69036,0 -1.25,-0.55964 -1.25,-1.25c0,-0.69036 0.55964,-1.25 1.25,-1.25c0.69036,0 1.25,0.55964 1.25,1.25c0,0.69036 -0.55964,1.25 -1.25,1.25z" fill="#32413d"/><path d="M261.77821,143.13401c-1.73051,-1.03767 -6.97033,-3.25048 -7.27312,-5.54758c-0.19996,-1.51698 1.28333,-2.66194 2.16221,-3.54221c6.18109,-3.24798 13.21638,-5.822 19.11091,-9.40582c3.48031,-2.11599 6.34667,-3.48255 10.32424,-4.46488c1.01801,-0.25141 1.92143,-1.05728 2.96983,-1.03732c1.8532,0.03529 4.22793,2.14039 5.65048,3.18259c6.12224,3.04577 12.99791,4.98778 18.45212,9.08215c1.04601,0.78522 4.50082,2.20486 4.47759,3.89665c-0.03377,2.45847 -2.51571,2.77908 -4.05043,3.48821c-3.7203,1.71899 -7.33152,3.78151 -10.90332,5.78607c-3.6983,2.47292 -7.17937,5.18236 -10.96927,7.54432c-3.4726,2.16421 -6.18293,5.17356 -10.627,4.14936l-1.24739,-0.99546c0,0 -0.81478,-0.81477 -0.09749,-1.66206c-6.16393,-3.20915 -12.0104,-6.89485 -17.97936,-10.47402z" fill="#32413d"/><path d="M300.96622,129.63619h-0.66667c-0.09825,0 -0.19649,0 -0.29474,0c1.72213,2.32871 2.67507,5.1734 3.2932,8.17152l0.02427,0.91181c0,0 0,0.80413 -0.64496,1.12247c-0.04898,0.66371 -0.71269,0.99557 -0.71269,0.99557c-1.52421,0.76089 -3.13604,1.57451 -4.78556,2.31802c1.43461,1.39889 2.42285,2.33376 2.99982,4.59411l0.03732,0.6365c0,0 0,1.25 -1.25,1.25c-1.25,0 -1.25,-1.25 -1.25,-1.25l0.03732,-0.03017c-0.51571,-2.117 -1.503,-2.59068 -3.00454,-4.08595c0,0 -0.0244,-0.0244 -0.06104,-0.06915c-1.10399,0.42386 -2.21355,0.7906 -3.31435,1.06508c-6.30849,1.57291 -12.40466,-1.03247 -17.12125,-5.06153c-2.10738,2.16073 -3.70414,4.45194 -5.19475,7.12447l0.15862,0.39058c0,0 0,1.25 -1.25,1.25c-1.25,0 -1.25,-1.25 -1.25,-1.25l0.15861,-1.60941c1.58821,-2.84128 3.30747,-5.30409 5.54735,-7.60958c-4.59665,-4.81197 -2.54447,-11.38065 3.54632,-13.61619c6.53656,-2.39915 14.21432,-1.64272 20.37195,1.40609c0.43723,0.26469 0.84821,0.54802 1.23474,0.84849c0.03663,-0.00273 0.05768,-0.00273 0.05768,-0.00273c0.88889,0 2.44444,0 3.33333,0c0,0 1.25,0 1.25,1.25c0,1.25 -1.25,1.25 -1.25,1.25zM300.84656,138.298c-0.74291,-3.85906 -2.19517,-7.73077 -5.70912,-9.81606c-5.51658,-2.79292 -12.50544,-3.33743 -18.36566,-1.23017c-4.34508,1.56243 -6.02257,6.13648 -2.48228,9.58387c4.2745,4.27451 10.23667,7.57031 16.48147,6.00408c3.43349,-0.86114 6.9221,-2.65891 10.05759,-4.2292z" fill="#a01700"/><path d="M321.18344,160.93676l-0.33333,0.33333c-2.11215,2.11214 -4.08976,4.14063 -5.88388,6.53278c0,0 -0.099,0.132 -0.27302,0.26412c0.48386,0.56889 0.95094,1.16455 1.40169,1.782c0.95802,4.29942 -1.79653,4.61116 -4.98365,6.0254c-1.99699,0.88613 -3.96073,2.21312 -5.87685,3.27425c-2.26479,1.25422 -4.21764,4.50092 -6.45649,5.39243c-3.25151,1.29475 -5.24088,-3.09507 -6.01469,-6.52534c-3.74286,-1.84367 -7.92394,-2.98365 -11.68935,-4.84481l-0.83627,-0.26552c0,0 -1.18586,-0.39528 -0.79057,-1.58113c0.39529,-1.18586 1.58114,-0.79057 1.58114,-0.79057l1.16373,0.40115c3.27462,1.65993 6.86169,2.73273 10.22835,4.18442c0.71587,-2.90084 1.71341,-5.44956 3.57929,-7.85887c0.68266,-0.88148 1.37471,-1.77077 2.18038,-2.54048c-0.12152,-0.10462 -0.235,-0.24788 -0.33174,-0.44135c-0.55901,-1.11803 0.55902,-1.67705 0.55902,-1.67705l0.92251,-0.42798c0.33729,-0.08423 0.67084,-0.15602 1.00072,-0.21577c-0.18527,-1.09259 -0.53409,-2.37681 -0.60996,-3.13512c-0.30219,-3.02026 -0.71334,-5.86125 -1.31332,-8.85796c0,0 -0.24514,-1.22572 0.98058,-1.47087c1.22573,-0.24515 1.47087,0.98058 1.47087,0.98058c0.61661,3.08649 1.04248,6.0317 1.35335,9.14204c0.06305,0.63085 0.36291,1.91418 0.55305,3.11277c3.97702,-0.01657 7.36569,1.76819 10.23427,4.52965c1.85639,-2.46789 3.90151,-4.57499 6.08305,-6.75653l0.33334,-0.33334c0,0 0.88388,-0.88388 1.76776,0c0.88389,0.88388 0,1.76777 0,1.76777zM300.0854,166.3583c-2.70529,2.36171 -4.33494,5.78378 -5.21188,9.18065c0,1.77025 1.03807,5.64232 2.57106,6.69242c0.46263,0.31691 0.92149,-0.6527 1.30442,-1.06237c1.58645,-1.69718 3.24318,-3.0756 5.28238,-4.21187c2.46143,-1.37153 4.88809,-2.77 7.50116,-3.74327c1.18693,-0.44208 2.78893,-0.83578 2.30501,-2.29043c-2.982,-3.83492 -6.50921,-6.71738 -11.07038,-6.69425c-0.46664,1.0006 -1.82858,1.3843 -2.68177,2.12912z" fill="#f9ef04"/><path d="M256.85857,161.93482c0,0 0.00625,0.00313 0.01758,0.00938c2.07193,-1.10152 4.74532,-1.32446 7.17721,-0.67294c0.0729,-4.31119 1.17572,-8.57112 2.02045,-12.79689c0,0 0.24515,-1.22573 1.47087,-0.98058c1.22573,0.24515 0.98058,1.47087 0.98058,1.47087c-0.84136,4.20469 -1.97573,8.46333 -1.97573,12.75485v0.33334c0,0 0,0.15895 -0.05668,0.3635c1.9739,1.59356 3.56552,3.03682 4.85009,5.08773c0.44765,0.07767 0.91847,0.26464 1.34118,0.35941c2.5788,0.57815 4.83762,2.56959 7.17443,3.738c0,0 1.11803,0.55901 0.55901,1.67705c-0.55901,1.11803 -1.67705,0.55902 -1.67705,0.55902c-1.81694,-0.90847 -3.45027,-2.16499 -5.28638,-2.97773c-0.09686,-0.04288 -0.50421,-0.1277 -0.91233,-0.28469c-0.02215,0.22482 -0.10318,0.47742 -0.31482,0.68607c0.11969,0.43204 0.25633,0.86165 0.31318,1.3056c0.24027,1.87615 0.29829,3.4703 -0.00764,5.35822c-0.25475,1.57213 -0.56938,3.08087 -0.99236,4.6139c-0.21044,0.76272 0.12477,2.12617 -0.65081,2.2827c-1.80005,0.36328 -3.36541,-1.45199 -4.4737,-2.55155c-2.66982,-2.66982 -5.59422,-5.61147 -8.54831,-7.89572c-1.58051,-1.22213 -4.17925,-2.96907 -4.47341,-5.15558c-0.32004,-2.37886 0.26967,-4.24566 1.39704,-5.6022c-1.40358,-0.92443 -2.47144,-2.10929 -3.70865,-3.3465l-0.36612,-1.21722c0,0 0,-1.25 1.25,-1.25c0.93432,0 1.17028,0.69837 1.22987,1.0511c1.14057,1.17489 2.16934,2.3575 3.66249,3.08086zM264.62586,164.1058c-3.92291,-1.93946 -9.09235,-0.49803 -8.75404,4.78117c0.08005,1.24905 2.69772,2.86285 3.52659,3.51108c3.02759,2.3678 6.04294,5.3622 8.78502,8.10428c0.19304,0.19486 0.54219,0.5078 0.85793,0.86001c0.16167,-1.77519 1.34724,-3.92368 1.34168,-5.62264c-0.00559,-1.70808 -1.23021,-4.05433 -1.00016,-5.68682c0.03436,-0.24381 0.06729,-0.506 0.11359,-0.76723c-1.2346,-2.17182 -2.79715,-3.51218 -4.87061,-5.17984z" fill="#15fa05"/><path d="M305.88289,182.71955l-0.00937,1.18061c0.5534,2.2136 0.62917,4.33155 1.38903,6.49733c2.50217,-0.51485 5.25297,0.34582 7.692,1.92094l0.79445,-1.14943c0.88683,-0.87321 1.88371,-1.66696 2.99153,-2.23415c0,0 1.11804,-0.55901 1.67705,0.55902c0.55901,1.11803 -0.55901,1.67705 -0.55901,1.67705c-0.87984,0.42625 -1.65715,1.06795 -2.3418,1.76585l-0.51049,0.80949c0,0 -0.01977,0.02967 -0.05766,0.07564c2.50797,2.18222 4.41234,5.03844 4.90082,7.61046c0.46519,2.44934 -1.42602,3.49209 -2.56463,5.38979c-1.26241,1.27758 -2.46449,2.48196 -3.90193,3.56407l-0.85765,0.45137c0,0 -0.22357,0.11178 -0.52075,0.1354c-2.79627,1.8807 -5.89092,3.41928 -8.81258,4.8646c-2.02714,1.0028 -2.90223,3.18997 -5.289,0.53913c-0.4118,-0.45736 -0.06589,-1.23251 -0.17732,-1.83777c-0.20432,-1.10977 -0.35994,-2.21828 -0.46398,-3.32667c-0.28925,0.30291 -0.68502,0.39285 -0.68502,0.39285c-4.56179,1.03677 -12.26691,1.4455 -15.72648,4.9983l-1.21722,0.36611c0,0 -1.25,0 -1.25,-1.25c0,-0.95678 0.73235,-1.18122 1.07593,-1.23386c4.11158,-3.62772 11.47807,-4.16256 16.56371,-5.31838c0,0 0.65734,-0.1494 1.11629,0.25396c-0.11293,-2.62634 0.07223,-5.25536 0.59355,-7.90194c0.47178,-3.68689 1.85498,-8.01947 5.21241,-10.17666c0.00115,-0.00073 0.0023,-0.00147 0.00344,-0.00221c-0.83729,-2.37889 -0.95036,-4.71245 -1.55596,-7.13484l-0.00937,-1.48607c0,0 0,-1.25 1.25,-1.25c1.25,0 1.25,1.25 1.25,1.25zM317.3143,205.28362c0.59461,-0.99101 1.511,-1.75536 2.16374,-2.70909c0.35512,-0.51889 -1.52406,-3.65866 -1.8592,-4.12409c-2.02042,-2.80588 -7.45841,-7.72408 -11.29784,-5.02067c-2.71639,1.91266 -3.74373,5.39312 -4.12092,8.49001c-0.55075,2.7089 -0.68741,5.67625 -0.65076,8.44251c0.01734,1.30876 0.48645,2.57355 0.65753,3.87121c0.04031,0.30573 -0.29736,1.1619 -0.10753,0.91887c1.65532,-2.11921 4.91213,-2.89081 7.25449,-4.18918c2.37443,-1.31615 5.16034,-3.208 7.06186,-5.12751c0,0 0.29685,-0.29685 0.71852,-0.37446c0.05987,-0.05906 0.11989,-0.11827 0.18011,-0.17759z" fill="#20e4df"/><path d="M262.21622,176.71955v0.66535c0.00451,4.28229 0.57476,8.45234 0.65687,12.7027c1.33561,0.48959 2.59486,1.21037 3.80673,1.939c1.35807,1.09316 3.09218,2.5254 4.21465,3.85578c3.04784,3.6124 2.60371,9.29411 1.62365,13.69531c1.12297,0.35372 2.48799,1.52896 3.14998,2.0119c2.00417,1.46208 4.12968,2.38461 6.42903,3.3027c0,0 1.16059,0.46424 0.69635,1.62484c-0.46424,1.1606 -1.62484,0.69635 -1.62484,0.69635c-2.4981,-1.00093 -4.78567,-2.0175 -6.97296,-3.60349c-0.69334,-0.50274 -1.15379,-1.77129 -1.98032,-1.66444l0.00086,0.10734c0,0 0,1.16869 -1.13004,1.24599c-0.08687,0.13936 -0.18391,0.26587 -0.30096,0.36499c-1.62324,1.3746 -4.44501,2.76257 -6.53181,3.27224c-4.22548,1.03202 -6.83562,-2.09657 -9.77286,-4.27224c-4.76529,-4.76529 -5.9823,-11.16134 -2.9657,-17.17c1.55892,-3.10514 4.30478,-6.01005 8.0883,-6.02397c0.25524,-0.00094 0.5075,0.0103 0.75694,0.03255c-0.11646,-4.04504 -0.63957,-8.03176 -0.64387,-12.11492v-0.66799c0,0 0,-1.25 1.25,-1.25c1.25,0 1.25,1.25 1.25,1.25zM260.90117,192.10148c-0.40403,-0.08265 -0.81667,-0.13002 -1.23855,-0.13227c-2.8345,-0.01508 -4.78099,2.3713 -5.9117,4.64271c-2.469,4.95979 -1.6083,10.1874 2.36764,14.16333c2.18021,1.65351 4.35631,4.55604 7.56047,3.72776c1.69526,-0.43823 4.13897,-1.5711 5.46818,-2.72776c0.1458,-0.12687 0.34625,-0.33118 0.57433,-0.56688l0.00404,-0.64153c0.88094,-3.60584 2.25105,-9.81041 -0.68761,-13.0101c-1.10302,-1.201 -2.4935,-2.45202 -3.78536,-3.47755c-1.12291,-0.67215 -2.30919,-1.37565 -3.58105,-1.7767c-0.01276,0.00027 -0.02566,0.00041 -0.03868,0.00041c-0.3179,0 -0.55495,-0.08084 -0.73172,-0.20142z" fill="#e32088"/></g><g stroke="none" stroke-width="0.5" stroke-linecap="butt"><path d="M134.13639,204.33865v-0.46016c-0.0317,-0.14326 -0.03909,-0.3022 -0.00068,-0.46965c-0.04371,-3.37511 -1.40584,-6.54178 -0.88432,-10.00447c0.86553,-5.74676 2.21833,-11.57217 2.21833,-17.39905c0,0 0,-0.63517 0.45276,-0.99996c-0.17812,-0.14198 -0.33158,-0.36142 -0.41544,-0.69687c-0.30317,-1.21268 0.90951,-1.51585 0.90951,-1.51585l1.6365,-0.37065c4.23388,0.95894 8.0681,2.44385 11.67369,4.86374c1.5327,1.02868 2.61479,2.4461 4.16888,3.43028c1.14076,0.72242 2.47192,1.13556 3.55498,1.94191c3.02275,2.25047 7.407,5.49264 11.42184,5.44009c2.14193,0.53548 5.37052,0.71979 7.56008,0.35741c1.09255,-0.18082 2.38601,-1.72437 3.39484,-2.2348c4.47795,-2.2657 7.76375,-5.86145 11.88532,-8.60155c1.919,-1.27579 4.0532,-2.60767 6.14595,-3.80815l-0.02281,-0.02282l1,-1l0.30259,0.3026c0.35646,-0.19657 0.71011,-0.38808 1.05964,-0.57356l0.35815,1.15485h0.4135v1.33334c0,2.34108 0.16831,4.67876 -0.3408,6.96973c0.00483,3.40575 0.33525,6.8915 0.66987,10.2605c0.27018,2.72031 1.24387,5.42754 1.00111,8.19172c-0.60866,6.93064 -4.73432,12.78824 -10.21604,16.94869c-5.32819,3.19691 -9.39987,7.48739 -14.26381,11.28304c-1.48612,1.15971 -3.90492,3.92275 -5.91974,3.92029c-1.09072,-0.00134 -1.76143,-1.30676 -2.73962,-1.78927c-3.3169,-1.6361 -6.54449,-3.41863 -9.83854,-5.10398c-2.0702,-2.03524 -4.5853,-3.50714 -6.76943,-5.41598c-4.11061,-3.59249 -8.32138,-7.29982 -12.6255,-10.63139c-0.70146,-0.54296 -2.84933,-1.75389 -3.50054,-2.49908c-0.41594,-0.47597 -0.74332,-1.02627 -1.09864,-1.55186c-1.19168,-0.03826 -1.19168,-1.24908 -1.19168,-1.24908z" fill="#333333"/><path d="M133.46973,166.33864v-0.46016c-0.0317,-0.14326 -0.0391,-0.3022 -0.00069,-0.46965c-0.04371,-3.37511 -1.40584,-6.54178 -0.88431,-10.00447c0.86553,-5.74676 2.21833,-11.57217 2.21833,-17.39905c0,0 0,-0.63517 0.45276,-0.99996c-0.17812,-0.14198 -0.33158,-0.36142 -0.41544,-0.69687c-0.30317,-1.21268 0.9095,-1.51585 0.9095,-1.51585l1.6365,-0.37066c4.23388,0.95894 8.0681,2.44385 11.67369,4.86375c1.5327,1.02868 2.61479,2.4461 4.16888,3.43028c1.14076,0.72242 2.47192,1.13556 3.55498,1.94191c3.02275,2.25047 7.407,5.49264 11.42184,5.44009c2.14193,0.53548 5.37052,0.71979 7.56008,0.35741c1.09255,-0.18082 2.38601,-1.72437 3.39484,-2.2348c4.47795,-2.2657 7.76375,-5.86146 11.88533,-8.60155c1.919,-1.27579 4.0532,-2.60766 6.14595,-3.80815l-0.02281,-0.02281l1,-1l0.30259,0.30259c0.35646,-0.19657 0.71011,-0.38808 1.05964,-0.57356l0.35815,1.15485h0.4135v1.33334c0,2.34108 0.16831,4.67876 -0.3408,6.96973c0.00483,3.40575 0.33525,6.8915 0.66987,10.2605c0.27018,2.72031 1.24387,5.42754 1.00111,8.19172c-0.60866,6.93064 -4.73432,12.78824 -10.21604,16.94869c-5.32819,3.19691 -9.39987,7.48739 -14.26381,11.28304c-1.48612,1.15971 -3.90492,3.92275 -5.91974,3.92029c-1.09072,-0.00134 -1.76143,-1.30676 -2.73962,-1.78927c-3.3169,-1.6361 -6.54449,-3.41863 -9.83854,-5.10398c-2.0702,-2.03524 -4.5853,-3.50714 -6.76943,-5.41598c-4.11061,-3.59249 -8.32138,-7.29982 -12.6255,-10.63139c-0.70146,-0.54296 -2.84933,-1.75389 -3.50054,-2.49908c-0.41594,-0.47597 -0.74332,-1.02627 -1.09864,-1.55186c-1.19168,-0.03826 -1.19168,-1.24908 -1.19168,-1.24908z" fill="#0e0e0e"/><path d="M186.46972,136.55288c0,-0.69035 0.55964,-1.25 1.25,-1.25c0.69036,0 1.25,0.55965 1.25,1.25c0,0.69036 -0.55964,1.25 -1.25,1.25c-0.69036,0 -1.25,-0.55964 -1.25,-1.25z" fill="#32413d"/><path d="M174.03444,152.10804c0.71729,0.84728 -0.0975,1.66206 -0.0975,1.66206l-1.24739,0.99546c-4.44407,1.0242 -7.1544,-1.98516 -10.627,-4.14936c-3.7899,-2.36196 -7.27098,-5.0714 -10.96928,-7.54432c-3.5718,-2.00455 -7.18302,-4.06707 -10.90332,-5.78607c-1.53473,-0.70913 -4.01667,-1.02974 -4.05043,-3.48821c-0.02323,-1.6918 3.43158,-3.11143 4.47759,-3.89665c5.45421,-4.09438 12.32988,-6.03639 18.45212,-9.08215c1.42255,-1.04219 3.79729,-3.1473 5.65048,-3.18259c1.04841,-0.01996 1.95182,0.78591 2.96983,1.03732c3.97757,0.98233 6.84394,2.34888 10.32424,4.46487c5.89453,3.58382 12.92982,6.15784 19.11092,9.40582c0.87887,0.88027 2.36217,2.02523 2.16221,3.54221c-0.30279,2.29709 -5.54261,4.50991 -7.27312,5.54758c-5.96896,3.57917 -11.81543,7.26487 -17.97936,10.47402z" fill="#32413d"/><path d="M151.57579,126.88622c0,-1.25 1.25,-1.25 1.25,-1.25c0.88889,0 2.44445,0 3.33334,0c0,0 0.02105,0 0.05768,0.00273c0.38653,-0.30046 0.79751,-0.5838 1.23474,-0.84849c6.15763,-3.04881 13.83539,-3.80524 20.37195,-1.40609c6.0908,2.23554 8.14298,8.80421 3.54632,13.61619c2.23988,2.30549 3.95914,4.76829 5.54735,7.60958l0.15861,1.60941c0,0 0,1.25 -1.25,1.25c-1.25,0 -1.25,-1.25 -1.25,-1.25l0.15862,-0.39059c-1.49061,-2.67253 -3.08737,-4.96374 -5.19475,-7.12447c-4.71659,4.02906 -10.81276,6.63444 -17.12125,5.06153c-1.10081,-0.27447 -2.21036,-0.64122 -3.31435,-1.06508c-0.03664,0.04475 -0.06105,0.06915 -0.06105,0.06915c-1.50154,1.49527 -2.48883,1.96896 -3.00454,4.08596l0.03732,0.03016c0,0 0,1.25 -1.25,1.25c-1.25,0 -1.25,-1.25 -1.25,-1.25l0.03732,-0.6365c0.57697,-2.26034 1.56521,-3.19521 2.99982,-4.5941c-1.64952,-0.74352 -3.26134,-1.55714 -4.78556,-2.31803c0,0 -0.66371,-0.33185 -0.71269,-0.99557c-0.64496,-0.31833 -0.64496,-1.12246 -0.64496,-1.12246l0.02427,-0.91181c0.61813,-2.99812 1.57107,-5.84281 3.2932,-8.17152c-0.09825,0 -0.19649,0 -0.29474,0h-0.66667c0,0 -1.25,0 -1.25,-1.25zM152.96345,137.11054c3.13549,1.57029 6.6241,3.36805 10.05759,4.22919c6.24481,1.56624 12.20696,-1.72957 16.48147,-6.00407c3.54029,-3.44738 1.8628,-8.02143 -2.48228,-9.58387c-5.86023,-2.10726 -12.84907,-1.56275 -18.36566,1.23017c-3.51395,2.08528 -4.96621,5.957 -5.70912,9.81606z" fill="#a01700"/><path d="M132.60857,157.66897c0.88388,-0.88388 1.76776,0 1.76776,0l0.33334,0.33334c2.18154,2.18154 4.22666,4.28864 6.08306,6.75653c2.86857,-2.76146 6.25725,-4.54622 10.23426,-4.52965c0.19014,-1.19859 0.49,-2.48192 0.55306,-3.11277c0.31087,-3.11034 0.73674,-6.05556 1.35335,-9.14204c0,0 0.24514,-1.22573 1.47087,-0.98058c1.22573,0.24515 0.98058,1.47087 0.98058,1.47087c-0.59998,2.99671 -1.01112,5.8377 -1.31332,8.85796c-0.07587,0.75831 -0.42468,2.04253 -0.60995,3.13512c0.32987,0.05974 0.66343,0.13153 1.00072,0.21576l0.92252,0.42798c0,0 1.11803,0.55901 0.55901,1.67705c-0.09673,0.19347 -0.21021,0.33673 -0.33174,0.44135c0.80567,0.76971 1.49772,1.659 2.18038,2.54048c1.86588,2.40931 2.86341,4.95804 3.57929,7.85887c3.36666,-1.45169 6.95373,-2.52449 10.22835,-4.18442l1.16374,-0.40115c0,0 1.18585,-0.39529 1.58114,0.79057c0.39529,1.18586 -0.79057,1.58113 -0.79057,1.58113l-0.83627,0.26552c-3.7654,1.86116 -7.94648,3.00114 -11.68935,4.84481c-0.77381,3.43027 -2.76318,7.82008 -6.01469,6.52534c-2.23884,-0.8915 -4.1917,-4.1382 -6.45649,-5.39243c-1.91611,-1.06113 -3.87985,-2.38811 -5.87685,-3.27425c-3.18712,-1.41423 -5.94167,-1.72598 -4.98365,-6.0254c0.45075,-0.61746 0.91783,-1.21311 1.40169,-1.782c-0.17402,-0.13211 -0.27302,-0.26412 -0.27302,-0.26412c-1.79412,-2.39216 -3.77174,-4.42064 -5.88388,-6.53278l-0.33334,-0.33333c0,0 -0.88388,-0.88389 0,-1.76777zM151.02484,162.72918c-4.56117,-0.02312 -8.08837,2.85933 -11.07038,6.69425c-0.48391,1.45465 1.11808,1.84835 2.30501,2.29043c2.61307,0.97326 5.03974,2.37173 7.50116,3.74326c2.0392,1.13627 3.69592,2.51469 5.28238,4.21187c0.38294,0.40966 0.84179,1.37928 1.30443,1.06237c1.53298,-1.0501 2.57105,-4.92217 2.57105,-6.69242c-0.87694,-3.39687 -2.50658,-6.81894 -5.21188,-9.18065c-0.85318,-0.74482 -2.21513,-1.12852 -2.68177,-2.12912z" fill="#f9ef04"/><path d="M200.59592,157.35398c0.05959,-0.35273 0.29555,-1.0511 1.22987,-1.0511c1.25,0 1.25,1.25 1.25,1.25l-0.36612,1.21722c-1.2372,1.2372 -2.30506,2.42207 -3.70864,3.3465c1.12737,1.35655 1.71707,3.22334 1.39703,5.6022c-0.29416,2.18651 -2.8929,3.93345 -4.47341,5.15558c-2.95409,2.28425 -5.87849,5.2259 -8.54831,7.89572c-1.10829,1.09956 -2.67366,2.91483 -4.4737,2.55155c-0.77559,-0.15652 -0.44037,-1.51997 -0.65081,-2.28269c-0.42298,-1.53303 -0.73761,-3.04177 -0.99236,-4.6139c-0.30593,-1.88792 -0.24792,-3.48208 -0.00764,-5.35823c0.05686,-0.44395 0.19349,-0.87356 0.31319,-1.3056c-0.21164,-0.20865 -0.29267,-0.46125 -0.31482,-0.68607c-0.40812,0.15699 -0.81547,0.24182 -0.91233,0.28469c-1.83611,0.81275 -3.46945,2.06927 -5.28638,2.97773c0,0 -1.11804,0.55902 -1.67705,-0.55902c-0.55901,-1.11803 0.55902,-1.67705 0.55902,-1.67705c2.33682,-1.16841 4.59562,-3.15985 7.17443,-3.738c0.42271,-0.09477 0.89353,-0.28173 1.34118,-0.35941c1.28457,-2.05091 2.87619,-3.49418 4.85009,-5.08773c-0.05668,-0.20454 -0.05668,-0.3635 -0.05668,-0.3635v-0.33333c0,-4.29153 -1.13437,-8.55017 -1.97573,-12.75486c0,0 -0.24514,-1.22572 0.98059,-1.47087c1.22573,-0.24515 1.47087,0.98058 1.47087,0.98058c0.84473,4.22576 1.94755,8.48569 2.02045,12.79689c2.43189,-0.65152 5.10528,-0.42858 7.17721,0.67294c0.01134,-0.00625 0.01759,-0.00938 0.01759,-0.00938c1.49314,-0.72337 2.52191,-1.90597 3.66248,-3.08086zM184.29553,167.78565c0.0463,0.26124 0.07923,0.52343 0.11359,0.76723c0.23005,1.63249 -0.99457,3.97875 -1.00017,5.68682c-0.00556,1.69896 1.18001,3.84744 1.34168,5.62264c0.31574,-0.3522 0.6649,-0.66514 0.85793,-0.86001c2.74208,-2.74208 5.75743,-5.73648 8.78502,-8.10428c0.82887,-0.64823 3.44654,-2.26203 3.52659,-3.51109c0.33831,-5.27919 -4.83113,-6.72062 -8.75403,-4.78117c-2.07346,1.66766 -3.63602,3.00803 -4.87062,5.17985z" fill="#15fa05"/><path d="M149.15912,179.96955c1.25,0 1.25,1.25 1.25,1.25l-0.00937,1.48606c-0.6056,2.42239 -0.71867,4.75595 -1.55596,7.13484c0.00115,0.00073 0.00229,0.00148 0.00344,0.00221c3.35743,2.15718 4.74063,6.48976 5.21241,10.17665c0.52132,2.64658 0.70648,5.2756 0.59355,7.90194c0.45894,-0.40336 1.11629,-0.25395 1.11629,-0.25395c5.08563,1.15582 12.45214,1.69065 16.56371,5.31838c0.34357,0.05265 1.07593,0.27708 1.07593,1.23387c0,1.25 -1.25,1.25 -1.25,1.25l-1.21722,-0.36612c-3.45957,-3.5528 -11.1647,-3.96153 -15.72648,-4.9983c0,0 -0.39577,-0.08995 -0.68502,-0.39285c-0.10405,1.10839 -0.25966,2.2169 -0.46398,3.32667c-0.11144,0.60526 0.23448,1.3804 -0.17732,1.83776c-2.38676,2.65084 -3.26185,0.46367 -5.289,-0.53913c-2.92166,-1.44531 -6.01631,-2.9839 -8.81258,-4.8646c-0.29718,-0.02362 -0.52075,-0.1354 -0.52075,-0.1354l-0.85765,-0.45137c-1.43743,-1.08211 -2.63952,-2.28648 -3.90193,-3.56407c-1.13862,-1.8977 -3.02982,-2.94045 -2.56464,-5.38979c0.48848,-2.57202 2.39285,-5.42824 4.90082,-7.61046c-0.03788,-0.04597 -0.05766,-0.07564 -0.05766,-0.07564l-0.51049,-0.80949c-0.68465,-0.69789 -1.46196,-1.3396 -2.3418,-1.76585c0,0 -1.11803,-0.55902 -0.55902,-1.67705c0.55901,-1.11803 1.67705,-0.55902 1.67705,-0.55902c1.10782,0.56719 2.1047,1.36094 2.99153,2.23415l0.79445,1.14943c2.43902,-1.57512 5.18983,-2.43579 7.692,-1.92094c0.75986,-2.16578 0.83563,-4.28373 1.38903,-6.49733l-0.00936,-1.1806c0,0 0,-1.25 1.25,-1.25zM136.65782,203.96119c0.42167,0.07761 0.71852,0.37446 0.71852,0.37446c1.90151,1.91951 4.68743,3.81136 7.06186,5.12751c2.34236,1.29837 5.59918,2.06997 7.25449,4.18918c0.18983,0.24303 -0.14784,-0.61313 -0.10753,-0.91887c0.17109,-1.29765 0.64019,-2.56244 0.65753,-3.87121c0.03665,-2.76625 -0.10001,-5.73361 -0.65075,-8.44251c-0.37719,-3.09688 -1.40454,-6.57735 -4.12092,-8.49001c-3.83943,-2.70341 -9.27741,2.21479 -11.29783,5.02067c-0.33514,0.46543 -2.21433,3.6052 -1.8592,4.12409c0.65274,0.95373 1.56914,1.71808 2.16374,2.70909c0.06022,0.05933 0.12024,0.11854 0.1801,0.17759z" fill="#20e4df"/><path d="M192.82579,173.96955c1.25,0 1.25,1.25 1.25,1.25v0.66798c-0.0043,4.08316 -0.52741,8.06988 -0.64387,12.11492c0.24944,-0.02225 0.5017,-0.03349 0.75694,-0.03255c3.78352,0.01391 6.52938,2.91882 8.0883,6.02397c3.0166,6.00866 1.79959,12.40471 -2.9657,17.17c-2.93724,2.17568 -5.54738,5.30426 -9.77286,4.27224c-2.0868,-0.50967 -4.90858,-1.89765 -6.53181,-3.27224c-0.11705,-0.09912 -0.21409,-0.22563 -0.30096,-0.36499c-1.13004,-0.0773 -1.13004,-1.24599 -1.13004,-1.24599l0.00086,-0.10733c-0.82653,-0.10684 -1.28697,1.1617 -1.98032,1.66444c-2.18729,1.58599 -4.47486,2.60255 -6.97296,3.60349c0,0 -1.1606,0.46424 -1.62483,-0.69635c-0.46424,-1.1606 0.69635,-1.62484 0.69635,-1.62484c2.29935,-0.91809 4.42486,-1.84062 6.42903,-3.3027c0.66199,-0.48293 2.02701,-1.65817 3.14998,-2.0119c-0.98006,-4.40121 -1.42419,-10.08291 1.62365,-13.69531c1.12247,-1.33039 2.85658,-2.76262 4.21464,-3.85578c1.21187,-0.72863 2.47112,-1.44941 3.80673,-1.939c0.08211,-4.25036 0.65236,-8.42041 0.65687,-12.7027v-0.66535c0,0 0,-1.25 1.25,-1.25zM192.15912,190.80288c-0.01303,0 -0.02593,-0.00014 -0.03869,-0.00041c-1.27185,0.40105 -2.45814,1.10455 -3.58104,1.7767c-1.29186,1.02552 -2.68234,2.27655 -3.78536,3.47755c-2.93866,3.19969 -1.56856,9.40426 -0.68761,13.0101l0.00404,0.64154c0.22808,0.2357 0.42853,0.44001 0.57433,0.56687c1.32922,1.15665 3.77292,2.28952 5.46818,2.72776c3.20416,0.82828 5.38027,-2.07424 7.56048,-3.72776c3.97593,-3.97593 4.83663,-9.20353 2.36763,-14.16333c-1.13071,-2.27141 -3.0772,-4.65779 -5.9117,-4.64271c-0.42189,0.00224 -0.83452,0.04962 -1.23855,0.13227c-0.17676,0.12058 -0.41381,0.20142 -0.73171,0.20142z" fill="#e32088"/></g><path d="M177.48825,255.11699v-22.33333h116.33333v22.33333z" fill="#737373" stroke="none" stroke-width="0" stroke-linecap="butt"/><path d="M177.15492,234.78369v-8h117.33333v8z" fill="#424242" stroke="none" stroke-width="0" stroke-linecap="butt"/><path d="M177.15492,227.78369v-22.33333h117v22.33333z" fill="#0a0007" stroke="none" stroke-width="0" stroke-linecap="butt"/><path d="M195.59011,250.22441v-16.66667h76v16.66667z" fill="#000000" stroke="none" stroke-width="0" stroke-linecap="butt"/><path d="M195.59011,234.64269l4.66667,-29h68.66667l2.66667,28.66667c0,0 -0.35536,0.06039 -1.67818,0.13856c-7.2784,0.43009 -74.32182,0.19477 -74.32182,0.19477z" fill="#222021" stroke="none" stroke-width="0" stroke-linecap="butt"/><path d="M259.63671,193.81917l-1.36677,-0.21023c-0.48716,-0.54602 -1.39075,-0.90972 -1.46148,-1.63805c-0.17706,-1.82325 3.53619,-4.19007 4.86899,-4.84878c4.02135,-1.98749 11.48447,-1.434 15.54279,-0.08342c3.91117,1.11953 9.05386,2.79173 10.23927,7.2755c0.94155,3.56137 0.37485,8.17038 -0.83036,11.53583c-0.91241,2.54781 -2.59886,4.88324 -5.80387,3.75817c-1.11931,-0.39292 -2.19605,-1.95467 -2.88901,-2.80939c-0.81801,-3.13032 0.55882,-7.6018 -0.80836,-10.41676c-2.2806,-4.69566 -12.47669,-3.31429 -16.37393,-2.33651c0,0 -0.65005,0.16251 -1.11727,-0.22637z" fill="#81827f" stroke="none" stroke-width="0.5" stroke-linecap="butt"/><path d="M208.62255,192.89563c0.06458,-0.27982 0.24773,-0.57004 0.66925,-0.78081c1.11803,-0.55901 1.67705,0.55902 1.67705,0.55902l0.0575,0.27895c0.0231,0.04939 0.04175,0.09833 0.05643,0.14667c1.91436,1.61616 4.58839,2.96263 6.9852,3.75507c6.65138,2.5122 14.99108,2.71572 21.85591,0.97185c1.81118,-0.4601 3.51914,-1.9406 5.19431,-2.72436c2.05388,-0.96095 4.305,-1.19114 6.27545,-2.33247c6.0289,-3.85258 12.85645,3.56847 12.90716,9.46331c0.01767,2.05357 0.78683,6.05731 -1.88551,6.99568c-2.12714,0.74693 -3.42677,-1.73257 -4.6983,-2.58374c-1.28879,-0.86273 -3.27944,-1.43457 -4.78951,-1.80447c-2.22606,-0.65807 -3.51727,0.2629 -5.74106,0.24088c-0.82411,-0.00816 -2.6986,-1.32385 -3.54578,-0.94625c-0.56259,0.25075 -0.44492,1.15493 -0.56731,1.7586c-0.49465,2.43992 -0.32381,4.93537 -0.79608,7.38088c-0.96309,4.98709 -4.86282,5.20275 -9.22644,5.20843c-2.68154,0 -6.03784,0.21511 -8.45717,-1.18669c-1.84151,-1.067 -2.98131,-3.71725 -3.70781,-5.61016c-0.52722,-1.37368 -0.72493,-3.74893 -2.23454,-4.5563c-0.87333,-0.46707 -3.01069,-0.24337 -4.00049,-0.24685c-0.87673,-0.00308 -1.77648,0.06077 -2.60853,0.33712c-1.3951,0.46336 -1.95374,0.94522 -2.97741,1.94377c-0.64781,1.2956 -0.49634,4.34891 -2.64874,4.51863c-0.86206,0.06797 -1.23842,-1.22578 -1.71112,-1.94988c-1.50324,-2.30268 -2.29565,-5.05375 -2.10106,-7.78825c0.32927,-4.62712 2.8777,-7.86471 6.01859,-11.04862z" fill="#ffffff" stroke="none" stroke-width="0.5" stroke-linecap="butt"/><path d="M242.29817,200.479c-7.43888,2.98437 -16.66773,3.64692 -23.35655,-1.30792c-0.13638,-0.06449 -0.36782,-0.19817 -0.53904,-0.42323c-0.20677,-0.20176 -0.77995,-0.88075 -0.12785,-1.69588c0.78087,-0.97609 1.75696,-0.19522 1.75696,-0.19522c0.03782,0.03046 0.07575,0.06069 0.11379,0.0907l0.24874,0.08348c1.88778,0.54634 3.54236,1.61055 5.48612,1.97316c3.5335,0.65918 8.22602,0.47016 11.74095,-0.2c1.37973,-0.26306 3.57722,-1.26722 5.16327,-1.2536c0.30738,-0.14154 0.60994,-0.28689 0.90723,-0.43569l1.1775,-0.58876c0.17371,-0.09145 0.37157,-0.14321 0.58151,-0.14321c0.69036,0 1.25,0.55964 1.25,1.25c0,0.44076 -0.22813,0.82825 -0.57276,1.05082l-1.18387,0.78925l-0.02772,-0.04158c-0.04565,0.04653 -0.0926,0.09193 -0.14099,0.13608c-0.5179,0.47252 -1.48194,0.73538 -2.47731,0.91159z" fill="#fefff9" stroke="none" stroke-width="0.5" stroke-linecap="butt"/><path d="M210.07251,215.53524c-0.06914,0.0093 -0.14294,0.01426 -0.22169,0.01426c-1.25,0 -1.25,-1.25 -1.25,-1.25l0.01256,-0.62323c-0.19994,-1.42081 -0.68508,-4.35977 0.26535,-5.56262c1.58807,-2.00984 3.50153,-0.16688 5.17232,0.15198c0.77679,0.14825 1.50153,-0.62197 2.29228,-0.61151c0.60398,0.00798 1.07995,0.66337 1.68395,0.66931c0.76923,0.00756 0.57028,-1.43304 0.93964,-2.10782c0.73853,-0.31972 1.41094,-0.94492 2.21558,-0.95916c0.54405,-0.00962 0.859,0.6948 1.36465,0.89581c1.54958,0.61602 4.80806,0.75604 5.6448,2.63703c0.45862,1.03098 -0.51441,2.19866 -0.70727,3.31044c-0.34143,1.96827 1.53491,3.73684 0.74568,5.81353c-0.33861,0.89098 -2.95847,3.03863 -3.85572,1.77215c0.11063,0.47115 0.18324,1.03544 0.03103,1.29244c-0.44627,0.7535 -1.10343,1.54959 -1.95462,1.7555c-1.07719,0.26059 -1.63812,0.22743 -1.90562,0.03614c-0.27433,0.3399 -0.56363,0.65939 -0.94541,0.8529c-4.45617,2.2586 -7.51635,-4.6786 -9.5275,-8.08715z" fill="#fefff9" stroke="none" stroke-width="0.5" stroke-linecap="butt"/><path d="M204.77944,212.14723c-0.6889,-0.58892 -0.24666,-1.4734 -0.24666,-1.4734l0.4,-0.8c2.26081,-4.51766 5.6787,-5.52366 10.51826,-5.47485c1.4443,0.46426 3.65734,0.63809 4.74409,1.81486c1.31926,1.42855 3.25604,6.99397 3.10129,8.91434c-0.08284,1.02809 0.00474,2.36032 -0.81626,2.98466c-2.0316,1.54496 -1.91953,-0.82781 -3.18319,-0.85448c-0.89183,-0.01882 -0.67803,1.966 -1.54226,2.18697c-0.73469,0.18785 -1.38621,-0.62219 -2.04172,-1.00347c-0.5938,-0.34539 -1.9501,-1.90277 -1.5783,-1.32514c0.5133,0.79746 0.60577,1.55109 0.51077,2.31611h0.05534v1.4c0,0.69036 -0.55964,1.25 -1.25,1.25c-0.29903,0 -0.57352,-0.105 -0.78865,-0.28014l-0.99222,-0.79378l0.04122,-0.05152l-0.18173,-0.07983c-1.89018,-2.80014 -4.34101,-5.22941 -6.45471,-7.86386c0,0 -0.30871,-0.38588 -0.29529,-0.86649z" fill="#fefff9" stroke="none" stroke-width="0.5" stroke-linecap="butt"/><path d="M249.53607,204.59238l0.91003,-0.5454c0.82802,0.276 1.65569,0.55308 2.48307,0.83101c1.33007,0.66193 2.70278,1.19361 4.04758,1.82088c1.2376,0.57727 4.76809,1.71492 4.91774,3.40836c0.19226,2.17562 -2.51346,2.81116 -3.90393,2.48779c-0.4683,-0.10891 -0.53717,-0.8474 -0.95973,-1.07677c-1.65713,-0.8995 -4.58063,-1.82466 -6.45652,-2.26637c-1.45929,-0.34362 -1.90818,2.03633 -3.5868,-0.56187c-0.84256,-1.30412 0.63166,-2.79647 1.28723,-3.63804c0,0 0.52943,-0.66179 1.26134,-0.45958zM250.46462,206.73952c0.0607,0.00143 0.12073,0.00418 0.17942,0.00811c-0.04259,-0.01415 -0.08518,-0.0283 -0.12777,-0.04245c-0.01675,0.01174 -0.03396,0.02321 -0.05165,0.03434z" fill="#fefff9" stroke="none" stroke-width="0.5" stroke-linecap="butt"/><path d="M205.06722,213.63383l-0.31443,-0.40364c-0.48002,-1.38599 -1.44535,-2.64539 -1.88783,-4.00207c-0.97135,-2.97821 -0.44707,-8.51987 1.66448,-10.84001c3.4115,-3.74851 15.14993,-4.61094 13.82347,2.65491c0.79206,0.32389 1.82785,0.08156 2.49039,0.62314c1.27821,1.04485 1.90564,6.646 0.98361,7.74657c-0.54736,0.65335 -5.30922,-1.07725 -6.24522,-1.13181c-3.79879,-0.22144 -6.21998,1.87652 -7.70299,5.08804c0.09445,0.35 0.0744,0.82283 -0.44701,1.23996c-0.04435,0.03548 -0.08831,0.06734 -0.1318,0.09582c-0.20011,0.31625 -0.66179,0.80832 -1.48798,0.4985c-1.04176,-0.39066 -0.80855,-1.36085 -0.7447,-1.56941z" fill="#dadada" stroke="none" stroke-width="0.5" stroke-linecap="butt"/><path d="M250.59307,204.97865c-0.0608,0.11146 -0.14506,0.22478 -0.25837,0.33809c-0.88388,0.88388 -1.76777,0 -1.76777,0l-0.75618,-0.79051c-1.0891,-1.79875 -2.53275,-8.21888 -0.17234,-9.78308c0.58391,-0.38694 1.40057,0.03515 2.10102,0.04285c3.47079,0.03815 6.50136,0.28533 9.73013,1.66908c2.74896,0.78074 6.09973,2.65515 5.1608,6.19153c-0.23906,0.90037 -1.18196,0.98116 -1.12983,1.95908c0.10639,1.99576 2.38476,4.15295 -1.27029,5.26421c-0.77189,0.23468 -3.84513,-1.91665 -4.60682,-2.35592c-2.04875,-1.1815 -4.6289,-1.9563 -7.03033,-2.53535z" fill="#dadada" stroke="none" stroke-width="0.5" stroke-linecap="butt"/><path d="M222.27982,138.05264c-0.46075,0.75176 -1.26746,1.08789 -1.26746,1.08789c-2.28292,0.95097 -5.04148,1.63726 -7.06922,3.09804c-3.60218,2.595 -5.69851,8.14212 -5.99961,12.3849c-0.23227,3.2729 1.08731,8.40251 -0.13823,11.44984c-2.31323,5.75194 -7.4283,3.58018 -11.04479,6.51624c0.4318,3.57459 0.13998,7.30619 3.1238,9.95076c2.28075,2.02145 4.65104,0.28065 7.1836,1.40878c2.31591,1.03162 4.11567,4.5358 6.34184,5.98534c7.2305,4.70809 16.66776,4.74964 24.93561,4.81714c4.01846,-1.03103 8.44432,-1.81606 12.23103,-3.57608c3.34345,-1.55399 5.05921,-5.78385 8.56334,-7.07073c2.53001,-0.92914 5.69943,0.95742 7.91637,-0.26798c2.49015,-1.37642 3.9455,-5.68912 4.57117,-8.21748c0.23038,-0.93097 0.30155,-1.89871 0.56174,-2.82179c0.11806,-0.41881 0.74266,-0.77927 0.56534,-1.17664c-0.46573,-1.04362 -6.81875,-1.31591 -6.91887,-1.32726c-3.59163,-7.20115 -2.29724,-14.63247 -4.20411,-22.23129c-0.99331,-3.9583 -4.83452,-5.6474 -5.81367,-9.65511c-0.71391,-2.92209 -0.19981,-7.45764 0.25841,-10.44124c0.1119,-0.72858 -1.10556,0.98141 -1.71504,1.39601c-1.23222,0.8382 -5.57359,3.59751 -6.94003,3.02913c-3.17589,-1.32102 -2.63662,-5.34314 -2.67022,-7.75828c0.01619,-0.70324 0.02129,-1.40681 0.04855,-2.10971c0.0105,-0.27071 0.3247,-0.73404 0.0647,-0.81016c-0.47385,-0.13873 -0.93911,0.3126 -1.42263,0.41259c-2.27581,0.47067 -4.55405,0.84039 -6.66007,1.93704c-5.7595,2.99913 -9.59067,6.92127 -13.0214,12.31243l0.06256,0.04838c0,0 -0.41428,1.24282 -1.54271,1.62923zM219.22595,134.47668l0.31571,-0.78602c4.38142,-6.88509 10.01794,-12.37936 17.86493,-15.21095c2.51624,-0.90799 7.75289,-2.56947 10.23098,-0.92698c2.48703,1.64843 2.07638,4.73286 2.11325,7.08012c-0.00957,0.49468 0.03815,0.99615 0.04154,1.49237c2.72562,-2.36307 7.21834,-4.5814 10.23317,-1.2255c0.95907,1.06757 0.57439,2.81672 0.7237,4.24403c0.27127,2.59312 -0.5623,5.57733 -0.06529,8.11473c0.37759,1.92767 1.57556,2.17653 2.70024,3.58941c1.49716,1.88082 2.46745,3.62319 3.0861,5.95548c0.63087,2.37837 0.35224,3.40312 0.66082,5.71601c0.59245,4.44061 1.52244,9.17206 1.53507,13.6527c2.92019,-0.84203 7.1731,0.53118 8.68113,3.47275c0.61287,1.19546 -0.07301,2.68972 -0.23466,4.02336c-0.53273,4.39492 -2.21007,8.87413 -5.17317,12.20268c-2.24409,2.52086 -2.81479,2.99106 -6.41559,3.26093c-0.64543,0.04837 -3.57394,-0.75762 -4.56196,-0.37086c-3.10801,1.21662 -5.07052,5.38466 -8.23665,6.92927c-4.20236,2.05014 -9.26741,2.92338 -13.76897,4.02392c-9.44133,0.06087 -20.04441,-0.21559 -28.2644,-5.58286c-1.32422,-0.86465 -3.59163,-2.96895 -4.6547,-4.17772c-0.38582,-0.43869 -0.46339,-1.21417 -1.00346,-1.43694c-1.61091,-0.66448 -3.58453,0.28116 -5.21748,-0.32717c-7.3795,-2.74911 -8.0212,-10.86094 -7.67513,-17.51329c0.96592,-1.00996 1.7159,-2.2841 2.89778,-3.02989c1.82623,-1.1524 7.17583,-0.42337 8.05743,-3.25386c0.8554,-2.74636 -0.36272,-7.22113 -0.13823,-10.15016c0.43802,-5.71512 3.222,-12.51777 8.00039,-16.01511c2.38177,-1.74322 5.43688,-2.57921 8.13079,-3.70196c0,0 0.04937,-0.02058 0.13667,-0.04847z" fill="#fefff9" stroke="none" stroke-width="0.5" stroke-linecap="butt"/><path d="M205.8047,186.96719c-0.45916,-0.95587 -0.89833,-1.99054 -1.28376,-3.06565c-2.35855,-0.59529 -4.58814,0.69424 -6.73786,-1.21107c-3.11709,-2.7627 -2.81824,-6.67237 -3.26934,-10.40663c3.77803,-3.06721 9.12027,-0.80231 11.53683,-6.81117c1.28027,-3.18345 -0.09985,-8.56373 0.14279,-11.98281c0.31455,-4.43228 2.51484,-10.25202 6.27792,-12.96294c2.1183,-1.52603 5.01098,-2.25354 7.39586,-3.24699c0,0 0.84579,-0.35318 1.32712,-1.13852c1.17883,-0.40368 1.61567,-1.70428 1.61567,-1.70428l0.00001,-0.00001l-0.06542,-0.05051c3.58398,-5.63196 7.61285,-9.7348 13.62961,-12.86788c2.20008,-1.14564 4.58921,-1.53051 6.96668,-2.0222c0.50511,-0.10447 0.99286,-0.57552 1.48789,-0.43059c0.27161,0.07952 -0.05641,0.56361 -0.06738,0.84641c-0.02848,0.73429 0.36694,1.46951 0.35003,2.20416c0.0351,2.52301 -0.92017,6.72794 2.39759,8.10797c1.42747,0.59376 5.96912,-2.2851 7.25638,-3.16074c0.63671,-0.43311 1.90928,-2.21898 1.79239,-1.45785c-0.47869,3.11686 -1.0078,7.86192 -0.262,10.91453c1.02289,4.18672 5.04649,5.96859 6.08417,10.10369c1.99205,7.93823 0.63967,15.73889 4.39172,23.26169c0.10459,0.01186 6.74196,0.29476 7.22849,1.385c0.18525,0.41511 -0.46785,0.79325 -0.59118,1.23077c-0.27182,0.96431 -0.34759,1.97861 -0.58826,2.95117c-0.65363,2.6413 -2.18029,7.15679 -4.78167,8.5947c-1.4115,0.7802 -3.1945,0.3549 -4.97021,0.12346c-2.20296,3.60568 -5.76311,6.39987 -9.60904,8.34932c-3.42284,1.31647 -6.86937,2.55742 -10.26096,3.82593c-1.62306,0.60705 -2.43533,2.66601 -4.07418,3.22903c-1.18633,0.40755 -2.50853,-0.03546 -3.76288,-0.04393c-2.75122,-0.01856 -7.31616,0.75575 -9.79126,-0.55117c-1.36995,-0.72337 -1.87675,-2.68531 -3.3174,-3.25499c-4.443,-1.75688 -8.95744,-2.43835 -13.08746,-4.60369c-0.95694,-0.07887 -1.50042,-0.55417 -1.80907,-1.0686c-0.19311,-0.12829 -0.38517,-0.2609 -0.57613,-0.39812c0,0 -1.50128,-1.09185 -0.97568,-2.6875z" fill="#fefff9" stroke="none" stroke-width="0.5" stroke-linecap="butt"/><path d="M197.42755,173.3157c0.06566,-0.32785 0.27477,-0.6843 0.82798,-0.86871c1.18586,-0.39529 1.58114,0.79057 1.58114,0.79057l0.25158,0.81851c0.27643,1.93505 0.62043,3.81979 0.98732,5.72681c0.62302,3.23836 -0.99074,6.50626 -4.53972,3.87531c-2.24522,-1.66444 -2.41219,-8.2878 -0.01593,-10.0394c0.26191,-0.19145 0.57753,-0.2634 0.90762,-0.30309z" fill="#fefff9" stroke="none" stroke-width="0.5" stroke-linecap="butt"/><path d="M198.75388,210.45088l2.07341,-2.00257l38.12726,12.1536l1.29068,0.41746l-1.66024,6.2351l-5.22398,3.47853l-33.17326,-9.83844l-1.58562,-9.42348" fill="#ffffff" stroke="#9da5b1" stroke-width="1.5" stroke-linecap="round"/><path d="M211.69782,191.26496c-0.07637,0.01163 -0.15856,0.01789 -0.24701,0.01789c-0.72375,0 -1.02845,-0.41906 -1.15672,-0.7719c-1.09641,-0.86104 -2.11928,-1.60551 -3.12062,-2.64419c-0.8419,-2.79423 -1.15832,-7.13058 -0.31902,-9.99614c1.74999,-5.97486 9.08938,-5.92672 13.03002,-2.36918c1.89375,1.70964 2.89037,4.24321 3.87408,6.55225c0.75252,1.20075 1.98068,2.87578 2.30882,4.29197c0.95076,4.10329 -1.37754,6.92123 -5.41656,6.93719c-2.91548,0.01152 -6.35483,-0.45101 -8.95299,-2.01789z" fill="#ffffff" stroke="none" stroke-width="0.5" stroke-linecap="butt"/><path d="M245.98986,193.48285c-4.03902,-0.01596 -6.36732,-2.8339 -5.41656,-6.93719c0.32814,-1.41619 1.5563,-3.09122 2.30883,-4.29197c0.98371,-2.30904 1.98033,-4.8426 3.87409,-6.55225c3.94064,-3.55754 11.28003,-3.60568 13.03001,2.36918c0.83929,2.86556 0.52288,7.20191 -0.31903,9.99614c-1.00134,1.03868 -2.0242,1.78315 -3.12061,2.64419c-0.12828,0.35284 -0.43298,0.7719 -1.15673,0.7719c-0.08845,0 -0.17064,-0.00626 -0.24701,-0.01789c-2.59816,1.56688 -6.03752,2.02941 -8.953,2.01789z" data-paper-data="{&quot;index&quot;:null}" fill="#ffffff" stroke="none" stroke-width="0.5" stroke-linecap="butt"/><path d="M203.76142,159.91213c-1.0503,-0.54601 -1.96244,-1.09973 -2.89498,-2.01382c-2.37427,-2.50077 -1.76308,-5.5502 -1.35675,-8.70328c0.29445,-2.28488 -0.51539,-4.8874 0.02407,-7.13446c1.27251,-5.30053 3.89148,-10.38359 7.15325,-14.70331c5.55035,-10.90845 22.04607,-14.56985 33.39665,-14.59284c6.29573,0 11.1899,1.07667 16.15234,5.30568c1.49858,1.2771 2.74571,2.63245 3.63237,4.3853c0.23211,0.45886 0.57144,0.87966 0.68893,1.38028c0.07499,0.31952 -0.46045,0.92481 -0.13613,0.97516c0.34011,0.0528 0.16736,-0.74171 0.45862,-0.9251c0.50057,-0.31518 1.13249,-0.35987 1.71782,-0.4453c2.79269,-0.40757 5.14308,-0.14704 7.71175,1.1226c1.92473,0.96381 4.53735,2.16086 6.20134,3.45922c2.49103,1.94367 2.49595,5.19431 2.48964,7.99215c-0.01207,5.34998 -2.31507,10.48947 -6.46201,13.97035c-1.43881,1.20772 -3.24706,1.9333 -4.75717,3.06696c-3.61012,2.10637 -5.72149,6.39043 -9.37366,8.69267c-3.19067,2.01133 -6.42777,2.94122 -9.94134,4.12673c-4.72452,1.5941 -8.88632,3.71928 -13.96054,3.72348c-3.37678,0.48651 -6.757,0.98047 -10.19171,0.66555c-4.88329,-0.44773 -9.26633,-2.79629 -13.2947,-5.22241c-2.17197,-1.30809 -4.71459,-1.97219 -6.91199,-3.2848c0,0 -1.07187,-0.64312 -0.42875,-1.71499c0.02694,-0.0449 0.05463,-0.08679 0.08297,-0.12585z" fill="#fefff9" stroke="none" stroke-width="0.5" stroke-linecap="butt"/><path d="M233.53332,120.88127c0.22203,0 0.43054,0.05789 0.61126,0.15939c6.66616,-3.8468 14.94393,-3.82606 22.38874,-3.82606c0,0 1.25,0 1.25,1.25c0,1.25 -1.25,1.25 -1.25,1.25c-6.7181,0 -14.36216,-0.13545 -20.49531,3.12959c3.45819,2.12052 5.97389,4.98408 8.79532,7.82792c4.47972,6.68706 7.98581,13.74178 11.49533,20.92194c1.24861,2.55454 0.4596,5.54303 2.20466,7.78721l0.25,1.41667c0,0 0,1.25 -1.25,1.25c-1.25,0 -1.25,-1.25 -1.25,-1.25l0.25,0.08333c-1.92823,-2.6414 -1.04416,-5.45338 -2.46201,-8.21279c-3.57475,-6.95718 -6.81648,-13.84294 -11.17134,-20.4114c-2.69906,-2.67375 -5.02591,-5.39408 -8.33911,-7.38489c-0.30346,-0.18234 -0.6103,-0.35559 -0.92026,-0.52003c-2.41532,1.74918 -4.56823,3.94011 -6.95495,5.72342c-8.72166,8.72166 -17.64054,17.46753 -22.2963,29.10694l-0.31002,1.25192c0,0 -0.30317,1.21268 -1.51585,0.90951c-1.21268,-0.30317 -0.90951,-1.51585 -0.90951,-1.51585l0.35664,-1.41475c4.84282,-12.10706 13.96163,-21.15099 23.03703,-30.2264c2.05465,-1.54603 3.95441,-3.3794 5.98397,-4.99201c-5.77651,-2.10047 -12.31893,-1.65338 -18.19513,-0.18433c0,0 -1.21268,0.30317 -1.51585,-0.90951c-0.30317,-1.21268 0.90951,-1.51585 0.90951,-1.51585c6.66065,-1.66516 14.04656,-2.02942 20.49797,0.58986c0.21751,-0.18336 0.49845,-0.29385 0.8052,-0.29385z" fill="#a6a7a3" stroke="none" stroke-width="0.5" stroke-linecap="butt"/><g stroke="none" stroke-linecap="butt"><path d="M220.56244,218.42983c-0.75854,1.84131 -3.40696,2.49627 -5.91541,1.4629c-2.50845,-1.03337 -3.92703,-3.36376 -3.1685,-5.20507c0.75854,-1.84131 3.40696,-2.49627 5.91541,-1.4629c2.50845,1.03337 3.92703,3.36376 3.1685,5.20507z" fill="#333639" stroke-width="0"/><path d="M227.42369,221.25633c-0.75854,1.84131 -3.40696,2.49627 -5.9154,1.4629c-2.50845,-1.03337 -3.92703,-3.36376 -3.1685,-5.20507c0.75854,-1.84131 3.40696,-2.49627 5.91541,-1.4629c2.50845,1.03337 3.92703,3.36376 3.16849,5.20507z" fill="#333639" stroke-width="0"/><path d="M221.99982,223.99559c-0.75854,1.84131 -3.40696,2.49627 -5.9154,1.4629c-2.50845,-1.03337 -3.92703,-3.36376 -3.1685,-5.20507c0.75854,-1.84131 3.40696,-2.49627 5.91541,-1.4629c2.50845,1.03337 3.92703,3.36376 3.16849,5.20507z" fill="#333639" stroke-width="0"/><path d="M219.07112,218.15277c-0.53902,1.30845 -2.42101,1.77387 -4.20353,1.03955c-1.78252,-0.73432 -2.79058,-2.39031 -2.25156,-3.69876c0.53902,-1.30845 2.42101,-1.77387 4.20353,-1.03955c1.78252,0.73432 2.79058,2.39031 2.25156,3.69876z" fill="#ffffff" stroke-width="0"/><path d="M226.18246,221.19536c-0.53902,1.30845 -2.42101,1.77387 -4.20353,1.03955c-1.78252,-0.73432 -2.79058,-2.39031 -2.25156,-3.69876c0.53902,-1.30845 2.42101,-1.77387 4.20353,-1.03955c1.78252,0.73432 2.79058,2.39031 2.25156,3.69876z" fill="#ffffff" stroke-width="0"/><path d="M216.07603,217.64573c-0.36181,0.15069 -0.5125,-0.21113 -0.5125,-0.21113l-0.00948,-0.05319c-0.42524,-0.57476 -0.91873,-0.99987 -1.45939,-1.46685c0,0 -0.29658,-0.25623 -0.04036,-0.55281c0.25623,-0.29658 0.55281,-0.04036 0.55281,-0.04036c0.58388,0.50455 1.11319,0.97325 1.57586,1.59214l0.10418,0.2197c0,0 0.15069,0.36181 -0.21113,0.5125z" fill="#333639" stroke-width="0.5"/><path d="M224.90493,219.39153c0.0768,0.38434 -0.30753,0.46114 -0.30753,0.46114l-0.34833,0.06899c-0.98352,0.25396 -1.77278,0.51041 -2.78943,0.28634c0,0 -0.382,-0.08768 -0.29432,-0.46968c0.08768,-0.382 0.46968,-0.29432 0.46968,-0.29432c0.87259,0.21023 1.56985,-0.06222 2.41806,-0.2813l0.39073,-0.0787c0,0 0.38434,-0.0768 0.46114,0.30753z" fill="#333639" stroke-width="0.5"/><path d="M228.09351,220.49832l0.46589,-0.49153c1.70942,0.46486 2.88087,2.19064 2.52728,4.02024c-0.12042,0.62309 -0.46699,1.20591 -0.78166,1.78367c0.0351,0.20394 -0.1388,0.35535 -0.1388,0.35535l-0.07482,0.05241c-0.05612,0.11355 -0.10866,0.22723 -0.15566,0.3413c0,0 -0.07957,0.19316 -0.26355,0.23934c-0.67464,0.79897 -1.77951,1.16914 -2.82782,1.04118c-0.52475,-0.06406 -1.01305,-0.14093 -1.17684,-0.78131c-0.10696,-0.41819 0.58053,-1.56518 0.74095,-1.95229c0.58495,-1.41152 0.88589,-2.79674 1.69059,-4.13005c-0.19528,-0.22123 -0.00556,-0.47832 -0.00556,-0.47832z" fill="#333639" stroke-width="0.5"/><path d="M211.19313,213.78605c-0.36795,1.51323 -1.13005,2.70847 -1.70907,4.12243c-0.1588,0.38778 -0.47871,1.68619 -0.84919,1.90769c-0.56733,0.33919 -0.96809,0.04981 -1.38569,-0.27434c-0.83425,-0.64757 -1.35778,-1.68857 -1.27389,-2.7309c-0.09806,-0.16237 -0.01849,-0.35553 -0.01849,-0.35553c0.04699,-0.11407 0.08977,-0.23177 0.12992,-0.35191l-0.0162,-0.0899c0,0 -0.01679,-0.22997 0.15178,-0.35001c0.18359,-0.63176 0.34812,-1.28958 0.70153,-1.81669c1.03773,-1.54776 3.08486,-1.94763 4.62569,-1.07353l-0.01552,0.67706c0,0 -0.04642,0.31613 -0.34086,0.33561z" data-paper-data="{&quot;index&quot;:null}" fill="#333639" stroke-width="0.5"/></g><path d="M207.92344,255.22441v-15.66667h53.33333v15.66667z" fill="#808080" stroke="none" stroke-width="0" stroke-linecap="butt"/><path d="M234.59011,252.39108c0,4.51033 -3.73096,8.16667 -8.33333,8.16667c-4.60237,0 -8.33333,-3.65634 -8.33333,-8.16667c0,-4.51033 3.73096,-8.16667 8.33333,-8.16667c4.60237,0 8.33333,3.65634 8.33333,8.16667z" fill="#d1037b" stroke="none" stroke-width="0" stroke-linecap="butt"/><path d="M253.92344,252.72441c0,4.51033 -3.73095,8.16666 -8.33333,8.16666c-4.60237,0 -8.33334,-3.65634 -8.33334,-8.16666c0,-4.51033 3.73096,-8.16667 8.33334,-8.16667c4.60237,0 8.33333,3.65634 8.33333,8.16667z" fill="#820026" stroke="none" stroke-width="0" stroke-linecap="butt"/><path d="M265.40081,220.5476c0,3.6819 -4.92487,6.66667 -11,6.66667c-6.07513,0 -11,-2.98477 -11,-6.66667c0,-3.6819 4.92487,-6.66667 11,-6.66667c6.07513,0 11,2.98477 11,6.66667z" fill="none" stroke="#6d7272" stroke-width="2" stroke-linecap="butt"/><path d="M246.56189,208.95928c-0.14927,-0.27316 -0.21682,-0.65751 0.08924,-1.11659c0.6268,-0.94019 1.56699,-0.3134 1.56699,-0.3134l0.27292,0.2298c0.8916,0.30665 1.8436,0.49535 2.78642,0.48659c2.5517,0.32667 4.70936,1.47117 7.134,2.21785c0.75851,0.23359 2.27496,0.53827 2.81541,1.18446c0.46672,0.55804 0.88735,1.27563 0.86707,2.00284c-0.01639,0.58763 -1.25657,1.72925 -1.61824,2.29792c-1.16231,1.82761 -2.69461,7.6471 -5.27332,7.91607c-1.21805,0.12705 -2.45741,-0.70578 -2.67512,-1.67226c-0.15734,0.13911 -0.31469,0.27822 -0.47204,0.41733c-0.69312,-0.47673 -1.62371,-0.72303 -2.07935,-1.43018c-0.13922,-0.21606 -0.20844,-0.57079 -0.21194,-0.93619c-0.32569,0.21598 -0.67685,0.37108 -0.93784,0.37453c-0.78945,0.01041 -1.73623,-0.24566 -2.19598,-0.88751c-0.18337,-0.256 0.22604,-2.79619 0.63977,-4.04123c-0.97994,0.30702 -2.92271,0.29982 -3.43884,-0.34871c-1.77419,-2.22936 1.04093,-4.80109 2.73085,-6.3813z" fill="#fefff9" stroke="none" stroke-width="0.5" stroke-linecap="butt"/><path d="M200.48825,154.25497c-1.25,0 -1.25,-1.25 -1.25,-1.25v-0.66667c0.0335,-4.2224 -1.57626,-7.76197 0.4653,-11.89235c3.06593,-6.08385 9.17396,-8.31342 15.66153,-9.01823c4.54628,-0.49391 9.17439,-1.81428 13.51511,-2.97552c2.4545,-0.65663 5.17758,-0.5767 7.69619,-1.02224c7.76782,0.19171 17.54619,0.8636 23.74905,6.31343c2.11674,1.85977 3.89178,5.16722 5.30235,7.55735c2.46676,4.17979 5.74532,9.14278 0.57408,12.39718c-1.20227,0.93995 -2.11812,2.07546 -3.85,1.88291c-1.84705,-0.20536 -2.76852,-1.88684 -4.01594,-2.96489c-1.1288,-0.97553 -2.54698,-1.63193 -3.82156,-2.39497c-7.58641,-4.54165 -14.64778,-7.62507 -23.28809,-8.96966c-7.27639,0.01101 -14.39665,1.38481 -20.74752,5.31695c-2.99704,1.85562 -5.59459,4.06691 -8.74106,5.70577c0.00024,0.02141 0.00043,0.04282 0.00056,0.06425v0.66667c0,0 0,1.25 -1.25,1.25z" fill="#d10284" stroke="none" stroke-width="0.5" stroke-linecap="butt"/><path d="M235.95,174.22562c0,8.58837 -7.01421,15.55062 -15.66667,15.55062c-8.65246,0 -15.66667,-6.96225 -15.66667,-15.55062c0,-8.58837 7.01421,-15.55062 15.66667,-15.55062c8.65246,0 15.66667,6.96225 15.66667,15.55062z" fill="#d10284" stroke="none" stroke-width="0" stroke-linecap="butt"/><path d="M231.25,175.1066c0,5.99358 -4.89502,10.85235 -10.93333,10.85235c-6.03831,0 -10.93333,-4.85876 -10.93333,-10.85235c0,-5.99358 4.89502,-10.85235 10.93333,-10.85235c6.03831,0 10.93333,4.85876 10.93333,10.85235z" fill="#000000" stroke="none" stroke-width="0" stroke-linecap="butt"/><path d="M263.28333,175.22561c0,8.58837 -7.01421,15.55062 -15.66666,15.55062c-8.65246,0 -15.66667,-6.96225 -15.66667,-15.55062c0,-8.58837 7.01421,-15.55061 15.66667,-15.55061c8.65246,0 15.66666,6.96224 15.66666,15.55061z" fill="#d10284" stroke="none" stroke-width="0" stroke-linecap="butt"/><path d="M257.91667,174.60661c0,5.99358 -4.89502,10.85234 -10.93333,10.85234c-6.03832,0 -10.93333,-4.85876 -10.93333,-10.85234c0,-5.99358 4.89502,-10.85235 10.93333,-10.85235c6.03831,0 10.93333,4.85876 10.93333,10.85235z" fill="#000000" stroke="none" stroke-width="0" stroke-linecap="butt"/><path d="M227.98652,176.83143c0,0.77943 -0.77943,0.77943 -0.77943,0.77943l-0.03877,-0.01856c-1.75579,0.39003 -3.61792,0.83656 -5.42877,0.74343c-3.73685,-0.19217 -7.14421,-2.51683 -10.4435,-4.01636c0,0 -0.70956,-0.32253 -0.38703,-1.03209c0.32253,-0.70956 1.03209,-0.38703 1.03209,-0.38703c3.11113,1.41429 6.40085,3.72198 9.92548,3.88182c1.65206,0.07492 3.36197,-0.35545 4.96357,-0.7115l0.37693,-0.01856c0,0 0.77943,0 0.77943,0.77943z" fill="#fefff9" stroke="none" stroke-width="0.5" stroke-linecap="butt"/><path d="M238.77107,176.38534l0.37693,0.01856c1.6016,0.35604 3.31151,0.78641 4.96357,0.71149c3.52463,-0.15983 6.81435,-2.46752 9.92548,-3.88181c0,0 0.70956,-0.32253 1.03209,0.38703c0.32253,0.70956 -0.38703,1.03209 -0.38703,1.03209c-3.29928,1.49953 -6.70665,3.82418 -10.4435,4.01636c-1.81085,0.09312 -3.67297,-0.3534 -5.42876,-0.74343l-0.03877,0.01856c0,0 -0.77943,0 -0.77943,-0.77943c0,-0.77943 0.77943,-0.77943 0.77943,-0.77943z" data-paper-data="{&quot;index&quot;:null}" fill="#fefff9" stroke="none" stroke-width="0.5" stroke-linecap="butt"/><path d="M293.40244,219.65179v9.25h-117v-9.25z" data-paper-data="{&quot;index&quot;:null}" fill="url(#color-1)" stroke="none" stroke-width="0" stroke-linecap="butt"/><path d="M169.66005,183.83009l27,32l-18,17.33333l-31.33334,-32z" fill="url(#color-2)" stroke="none" stroke-width="0" stroke-linecap="round"/><path d="M192.16415,221.39243l41.65542,4.2221l-0.8828,24.97329l-44.7696,-1.20884z" fill="url(#color-3)" stroke="none" stroke-width="0" stroke-linecap="round"/><path d="M240.99768,227.75872l40.07431,-12.12639l8.79163,23.39127l-41.78975,16.10573z" fill="url(#color-4)" stroke="none" stroke-width="0" stroke-linecap="round"/><path d="M280.56832,214.12457l28.07163,-31.06418l19.59988,15.50127l-27.48795,35.35803z" fill="url(#color-5)" stroke="none" stroke-width="0" stroke-linecap="round"/></g></g></svg>