<svg version="1.1" xmlns="http://www.w3.org/2000/svg" xmlns:xlink="http://www.w3.org/1999/xlink" width="97.21023" height="119.65132" viewBox="0,0,97.21023,119.65132"><defs><linearGradient x1="204.06589" y1="191.15452" x2="205.64749" y2="238.6588" gradientUnits="userSpaceOnUse" id="color-1"><stop offset="0" stop-color="#1e0d09"/><stop offset="1" stop-color="#361b0c"/></linearGradient><radialGradient cx="239.96109" cy="155.90253" r="33.31417" gradientUnits="userSpaceOnUse" id="color-2"><stop offset="0" stop-color="#1f1f1f"/><stop offset="1" stop-color="#242424"/></radialGradient></defs><g transform="translate(-191.27735,-122.26398)"><g data-paper-data="{&quot;isPaintingLayer&quot;:true}" fill-rule="nonzero" stroke-linecap="butt" stroke-linejoin="miter" stroke-miterlimit="10" stroke-dasharray="" stroke-dashoffset="0" style="mix-blend-mode: normal"><path d="M197.24126,234.78706l16.08127,2.01583l0.5058,2.5344c0,0 -2.84072,1.17445 -4.95438,1.54722c-0.31795,0.05607 -0.61945,0.094 -0.89235,0.10707c-2.3659,0.11326 -7.61742,-1.00977 -7.61742,-1.00977c0,0 -2.15424,-1.08354 -2.57736,-1.78736c-0.57219,-0.95177 -0.54559,-3.40739 -0.54559,-3.40739z" fill="#000000" stroke="none" stroke-width="0"/><path d="M200.25409,192.45926c0.21192,-0.28646 0.57839,-0.38475 0.57839,-0.38475l0.88066,-0.23513c1.46836,-0.3244 2.87147,-0.69627 4.38197,-0.75242c9.86443,-0.32842 11.14609,13.50704 11.34521,20.25284c-0.63718,3.53681 -0.09567,7.21115 -0.271,10.77742c-0.13259,2.6972 -0.94731,5.25599 -1.21453,7.92539c-0.21579,2.15571 0.00951,4.0847 -0.27606,6.08736l0.26489,0.02631l-0.1632,1.36586c-0.04621,0.45229 -0.44737,0.81419 -0.94743,0.83084c-0.27113,0.00903 -0.51998,-0.08514 -0.70317,-0.24473l-0.86804,-0.7561l0.01373,-0.01369l-0.06279,-0.0322c-2.52824,-2.9341 -6.83593,-4.26962 -10.89518,-3.0842c-2.37448,0.69341 -3.80482,2.04443 -6.39017,2.27151c-3.67151,-7.45656 -4.14566,-16.82939 -3.18481,-24.96878c1.2463,-6.73708 -0.31454,-15.91853 7.51153,-19.06558z" fill="url(#color-1)" stroke="none" stroke-width="0.5"/><path d="M215.49419,240.0142c-0.30941,0.22845 -0.6188,0.45689 -0.92823,0.68534c-1.43078,0.57785 -3.13385,0.95173 -4.94878,1.1173c-5.2672,0.48054 -11.47661,-0.79316 -14.70749,-3.92557c-0.38544,-0.11288 -0.66986,-0.44246 -0.6831,-0.84056c-0.00081,-0.02411 -0.00061,-0.04806 0.00057,-0.07178c-0.06229,-0.25181 -0.02993,-0.58041 0.36112,-0.87341c0.06948,-0.05206 0.13772,-0.09357 0.20432,-0.126l0.21738,-0.28916c0.47042,-0.6228 0.99994,-1.20807 1.55858,-1.76419c6.11544,-4.60252 14.59839,-1.65443 18.74141,3.77492c0.03661,0.02334 0.07312,0.04681 0.10953,0.07041l0.24673,-0.1913c0,0 0.98183,-0.03269 1.01226,0.88173c0.03044,0.91444 -0.95138,0.94712 -0.95138,0.94712l-0.07278,-0.00684zM213.55083,239.13722c0.07806,-0.05958 0.15613,-0.11917 0.23418,-0.17875c-3.40016,-2.03224 -7.47595,-2.68021 -11.55209,-2.24323c-1.73553,0.18605 -3.24283,0.63464 -4.79801,0.82479c4.0759,2.78508 11.95434,3.35966 16.11591,1.5972z" fill="#6d3618" stroke="none" stroke-width="0.5"/><path d="M205.67279,203.54165c-0.17259,-0.09565 -0.33405,-0.27637 -0.34541,-0.61753c-0.02495,-0.74958 0.72463,-0.77455 0.72463,-0.77455l0.19801,0.14349c0.73633,-0.59153 1.9104,-2.16456 2.72479,-2.46078c1.03143,-0.37517 3.52692,0.47485 4.5557,0.63264c3.35512,0.5146 6.70399,0.72469 10.05889,1.28276c1.73195,0.43436 8.81252,2.35775 8.08769,4.91046c-0.19585,0.68976 -1.26674,1.03708 -1.81869,1.29037c-3.12776,1.43538 -5.78868,0.88394 -9.1016,1.00363c-4.94015,0.14391 -11.56544,-0.68937 -14.91638,-4.79052c0,0 -0.23038,-0.28677 -0.16762,-0.61998z" fill="#a25121" stroke="none" stroke-width="0.5"/><path d="M229.52982,205.65836l1.22014,-0.62115c0.07383,-0.40881 0.29064,-0.7976 0.75063,-1.13632h-0.00001c1.2709,-0.93585 2.81069,-0.00197 3.39456,1.09886c0.39517,0.74505 0.3289,1.74402 0.29198,2.72571c0.54695,0.22995 1.07246,0.44621 1.56244,0.60119c2.51362,0.79505 5.38935,0.34706 7.90493,-0.2127c3.18053,-0.52111 6.77682,-3.40845 10.08433,-2.16858c6.05964,2.27156 7.02468,10.6002 0.9735,13.21042c-2.17846,1.37289 -5.66723,3.3244 -8.40919,2.6643c-2.89479,-0.69689 -2.66014,-4.78788 -4.08659,-6.6389c-0.97253,-1.262 -2.25941,0.44773 -2.44511,1.26217c-0.16674,0.7313 -0.34562,1.46374 -0.60692,2.1668c-1.23972,2.60699 -4.04905,3.68532 -7.17195,3.31889c-0.95396,-0.11193 -2.51831,0.7121 -3.33883,0.04519c-1.72206,-1.39969 -3.17262,-4.74627 -3.03321,-7.30171l-0.00001,-0.00001l0.35323,-0.38789c-0.55558,-2.49258 -0.72151,-5.61619 1.62178,-7.10349c0.37793,-0.85213 0.74021,-1.44339 0.93434,-1.5228zM226.81559,214.84354c0,0 -0.17079,0.18257 0.01177,0.35336c0.18256,0.1708 0.35336,-0.01177 0.35336,-0.01177c0.20636,-0.22404 0.43801,-0.43062 0.681,-0.62992c-0.12451,-0.14435 -0.22649,-0.3113 -0.30829,-0.49707c-0.2305,0.24868 -0.47559,0.50873 -0.73784,0.78539z" fill="#151515" stroke="none" stroke-width="0.5"/><path d="M239.91798,141.41432c-1.09188,-3.73082 -6.1331,-9.10451 -3.19298,-13.28534c4.40146,-6.25887 2.79939,3.07725 5.61411,2.98061c0.6585,-0.02261 0.6378,-1.22377 1.19607,-1.57373c3.30772,-2.07349 6.58488,0.49005 7.58488,3.49968c0.03775,0.94939 -0.70528,5.28613 0.87239,5.61714c0.62873,0.13192 0.69561,-1.16893 1.276,-1.44436c2.32453,-1.10308 4.36551,0.48506 4.79635,2.68156c0.75277,3.83776 -2.55564,3.92081 -4.67461,5.72348c-0.7168,0.60981 -0.9487,1.4281 -1.05864,2.28095c2.74082,2.07773 6.42869,2.78764 9.22962,4.92605c2.65002,2.02983 4.96723,3.86802 7.03181,6.55741c0.84678,1.10306 1.56733,3.32346 2.48085,4.19354c0.63521,0.605 4.12478,0.11449 5.01018,0.27319c2.74008,0.49111 4.64665,2.21263 6.57985,4.06541c2.41273,2.69129 5.58053,6.84782 4.35429,10.7849c-0.29477,0.94643 -0.85071,1.40634 -1.49278,2.08071c-3.95353,4.15237 -8.16577,0.5192 -9.55754,-3.89728c-0.39404,-0.92346 -0.63668,-1.8857 -1.2371,-2.70385c-1.06647,-1.45324 -4.53521,-3.15847 -5.7926,-0.84895c-1.69244,3.10858 2.37057,5.95669 4.70759,6.82369c1.48769,0.60191 3.44457,1.32604 4.42056,2.69657c2.13649,3.00015 0.10163,8.80058 -2.07554,11.31541c-2.38932,2.75989 -20.13646,15.13378 -23.24852,12.25781c-0.17956,-0.46301 -1.69016,-1.43424 -1.3801,-2.14841c2.18686,-5.03658 16.54137,-15.06756 17.02388,-18.31848c0.21676,-1.46042 0.081,-3.98779 -1.46331,-4.31644c-1.5807,-0.3364 -4.05021,0.30169 -5.71964,0.33828c-5.61145,0.12298 -9.93036,1.20464 -14.10506,5.07231c-1.27455,1.18081 -1.97944,3.15019 -3.07039,4.49844c-0.41986,0.5189 -0.71697,1.44839 -1.38446,1.44673c-1.01314,-0.00255 -1.59353,-1.70365 -1.91312,-2.44835c-0.68945,-1.74161 -3.42308,-0.85747 -4.87535,-1.93377c-3.24981,-2.40851 -6.3004,-5.67908 -9.75815,-6.65517c-2.35072,-0.66357 -3.92425,-1.43005 -6.19246,-0.46583c-0.86698,0.45647 -3.09706,1.38936 -3.59245,2.2786c-1.15457,2.07247 0.30105,7.19414 0.52745,9.45199c0.12836,1.28 2.52577,5.54129 1.31428,6.53556c-1.08979,0.89439 -6.76607,-0.20101 -7.9974,-0.65943c-4.08146,-2.32465 -8.51566,-9.64989 -6.39418,-14.48795c0.92655,-2.11301 3.35187,-3.28885 5.52946,-3.67224c1.27722,-0.22487 2.33717,-0.66726 2.07867,-0.8971c0.61525,-4.3438 0.19773,-7.43599 0.45255,-11.87442c0.11753,-2.04727 0.73761,-4.29093 1.20333,-6.29298c0.4826,-2.07464 1.2482,-3.49218 2.25911,-5.26393c2.31127,-2.44268 5.44813,-4.58172 8.51972,-6.0682c3.18664,-1.54217 7.59424,-2.06458 10.29968,-4.37585c0,0 0.01768,-0.0148 0.04996,-0.03723c0.01526,-0.10579 0.03052,-0.21157 0.04576,-0.31736c1.71773,-0.01922 3.43925,0.01804 5.16822,0.11636c-0.12462,-1.44696 0.58705,-3.24656 0.54977,-4.5097z" fill="#a25121" stroke="none" stroke-width="0.5"/><path d="M236.00628,135.58726c-0.36305,-2.27002 -1.4599,-8.08137 0.54975,-9.85239c2.80045,-2.4679 3.21978,0.07129 4.35098,2.01952c0.33398,0.57521 0.20282,1.91599 0.85805,1.80153c0.30855,-0.05391 0.28515,-0.63043 0.57835,-0.74064c0.52787,-0.1984 1.1249,-0.08254 1.68808,-0.11124c0.23504,-0.01197 3.00421,-0.1117 3.17085,-0.06728c3.79166,1.01071 3.94455,4.94681 4.91922,8.00265c1.15649,2.36404 -0.37318,-0.61216 1.9895,-1.026c1.94981,-0.34153 3.78018,2.51056 4.23956,3.97178c1.295,4.11929 -2.32863,6.403 -5.30377,8.06519c-0.23445,0.13098 0.51243,0.16227 0.76278,0.25948c0.78343,0.3042 1.53826,0.67603 2.29629,1.0403c0.00361,-0.00391 0.0072,-0.00785 0.01078,-0.01184c0.21889,0.06835 0.43763,0.13803 0.65625,0.20913c2.56561,1.13708 5.21665,2.12248 7.73855,3.33577c2.48961,2.59458 4.53491,5.15802 6.75438,8.20318c0.56943,0.78127 1.50102,0.67085 2.32574,0.80628c2.03374,0.33397 4.09389,0.53403 5.93205,1.55375c5.37197,2.98012 8.30441,9.90974 8.96391,15.72384c-0.09846,0.86358 0.07572,1.80475 -0.29538,2.5907c-1.18112,2.50148 -4.33209,3.37104 -7.32684,3.03571c1.4335,5.18981 -3.61364,12.36195 -7.16025,15.34786c-0.64643,0.54421 -1.84945,1.45481 -3.03528,2.03482c2.87051,2.63793 5.38785,5.53575 7.09677,9.11912c1.7748,3.72155 3.03586,5.6197 -0.06326,9.04868c-2.58564,2.03501 -7.5294,6.96627 -11.13689,5.69661c-1.17777,-0.41451 -1.58526,-2.06338 -2.72773,-2.56711c-2.33286,-1.02859 -4.29718,-0.7839 -5.53713,-3.57815c-0.21481,-0.48408 -0.35597,-1.06041 -0.46256,-1.67692c-0.22297,0.29157 -0.44589,0.58314 -0.66887,0.87471l-0.00007,-0.00014c-2.19879,2.84766 -7.12034,4.28674 -10.64817,3.13594c-1.91441,-0.62448 -2.71494,-2.5709 -3.1367,-4.35578c-0.11329,-0.47941 -0.32286,-1.298 -0.36655,-1.93338c-0.48053,0.5441 -1.18865,1.10909 -1.67659,0.95487c-0.16959,1.05332 -0.43626,2.36516 -0.88622,3.18713c-2.2096,4.03647 -10.1799,4.40601 -12.75318,0.87699c-0.99038,-1.35825 -1.15804,-3.35163 -1.19659,-4.95545c0,0 -0.00417,-0.18994 0.07424,-0.40545c0.01298,0.02968 0.03408,0.06004 0.06615,0.09004c0.18122,0.16955 0.35078,-0.01168 0.35078,-0.01168c0.21995,-0.2388 0.46882,-0.45761 0.72955,-0.66895c0.74628,0.13426 0.76422,0.95254 0.76422,0.95254c0.02352,1.20529 0.08678,2.84472 0.84481,3.86995c1.68601,2.28037 8.06312,2.10282 9.38722,-0.71709c0.37288,-0.79413 0.59799,-2.02109 0.72326,-2.89994l-0.027,-1.23162c-0.01202,-0.54812 0.42259,-1.00221 0.97072,-1.01423c0.27406,-0.006 0.52462,0.09965 0.70816,0.27531l0.48928,0.46828c0.07523,-0.0199 0.14595,-0.05538 0.21006,-0.11001c0.67521,-0.57534 1.12203,-1.97075 2.50383,-1.36702c1.18647,0.51835 0.97148,4.9221 1.68396,6.09326c1.77075,2.91078 8.02789,0.6506 9.60764,-1.43972c0.23952,-0.31324 0.47905,-0.62648 0.71859,-0.93971l0.30799,-0.49164c0,0 0.34853,-0.54847 0.92536,-0.4759c-0.08717,-0.70347 -0.18774,-1.38207 -0.35381,-1.96643c-0.64385,-2.26572 -1.91939,-3.79685 -3.34481,-5.6131c0,0 -1.07255,-1.3666 0.29405,-2.43916c1.3666,-1.07255 2.43916,0.29406 2.43916,0.29406c1.70346,2.17051 3.16831,4.08972 3.94931,6.79303c0.51408,1.77945 0.4747,3.80331 0.98762,5.52936c0.39852,1.3411 2.93293,1.32192 3.81961,1.76062c1.06668,0.52773 1.54854,1.86001 2.5574,2.49129c0.57606,0.36047 1.3065,-0.44166 1.85846,-0.83802c1.87161,-1.344 3.78888,-2.79137 5.61792,-4.22183c1.86425,-1.73332 0.23193,-2.93963 -0.74037,-4.98085c-1.91141,-4.01278 -5.01044,-7.04751 -8.39902,-9.88575l-1.44555,-1.03545c-0.43796,-0.3066 -0.72901,-0.81054 -0.74162,-1.38601c-0.02102,-0.95922 0.73953,-1.75386 1.69875,-1.77489c0.12902,-0.00282 0.25508,0.00849 0.37669,0.03252l1.81984,0.32266l-0.03496,0.19713c0.39624,-0.05878 0.79045,-0.12845 1.18094,-0.21812c2.79384,-0.6416 5.74558,-4.51532 7.0101,-6.88042c1.94917,-3.64567 1.96788,-7.57667 -1.63494,-8.69833c-2.03777,0.13708 -4.19294,0.27008 -5.57476,-1.66267c-1.41891,-1.9846 -1.62349,-8.39351 0.68257,-9.69885c0.88721,-0.5022 2.05754,-0.1958 3.05845,-0.00207c2.77847,0.53779 3.64237,2.56084 4.46141,4.93816c0.32792,0.9518 0.41449,2.13957 1.00845,2.92741c0.32846,0.09388 0.72378,0.2914 0.96992,0.70654c2.0098,0.81733 5.96612,1.47808 5.94789,-1.44309c-0.5159,-4.58475 -2.97473,-10.37016 -7.18294,-12.7502c-2.16435,-1.22409 -4.86992,-0.60006 -7.0717,-1.60515c-2.44043,-1.11401 -2.54081,-2.84375 -3.96091,-4.75458c-1.9173,-2.57984 -4.27271,-4.42332 -6.56005,-6.60468c-0.85277,-0.73549 -2.01238,-1.17755 -3.23079,-1.55429c-0.52803,0.29969 -1.13721,0.02079 -1.13721,0.02079c-1.03114,-0.47206 -2.08191,-0.90339 -3.0934,-1.41617c-0.55214,-0.27992 -1.3109,-0.36601 -1.62467,-0.89965c-2.66699,-4.53617 6.37368,-4.38383 4.8335,-8.92986c-0.23647,-0.69798 -0.82266,-1.22307 -1.22007,-1.84369c-0.08483,-0.13247 -0.02329,-0.6093 -0.08436,-0.46433c-0.36174,0.85854 -0.83146,2.08739 -1.75927,2.17176c-1.87508,0.17051 -2.41811,-1.42292 -3.08086,-2.58266c-0.5874,-1.79823 -0.73366,-6.03046 -3.19282,-6.56213c-0.77689,-0.16796 -2.75292,-0.13152 -3.50435,0.10864c-0.59063,0.18877 -1.04373,0.98671 -1.65034,0.85829c-0.67355,-0.1426 -2.8411,-2.36798 -3.31287,-3.88934c-0.00339,0.01957 -0.00652,0.03784 -0.00935,0.05461c-0.07124,0.42161 -0.09543,0.85095 -0.10558,1.27843c-0.04392,1.84884 0.0713,3.75852 0.36324,5.58164c0.76708,2.68704 2.71734,5.65846 2.19351,8.58516c-0.74961,4.1881 -5.22383,6.08897 -8.99425,6.24856l-0.38015,0.01305c0,0 -0.25086,0.00861 -0.53081,-0.09474c-3.02848,0.97227 -5.81492,2.0151 -8.86838,3.45315c-1.83891,0.86603 -4.28567,2.03245 -5.55617,3.69136c-2.30612,3.01114 -3.697,7.7125 -4.36268,11.37129c0.08121,3.18831 0.60819,6.41524 0.40398,9.61403c-0.06857,1.07426 -0.48687,2.39496 -1.17293,3.22444c-1.43546,1.73545 -4.24656,0.33507 -5.9709,2.32456c-1.15537,1.33305 -0.88446,4.27609 -0.4267,5.81301c1.22679,4.11897 2.7371,6.61844 6.23846,9.15926c2.22252,0.91482 3.33111,1.23009 5.65299,0.4494l1.42099,-0.10443c0,0 1.73681,-0.03807 1.77489,1.69875c0.01272,0.58004 -0.17253,0.97062 -0.42495,1.2336c0.24924,0.05459 0.51575,0.18056 0.79158,0.41143c0.00185,0.00156 0.00372,0.0031 0.00556,0.00466c-0.71647,-0.07779 -1.44287,-0.11206 -2.18516,-0.08276c-0.16255,0.05915 -0.32279,0.125 -0.48105,0.19634c-3.18843,0.96706 -5.19137,0.52154 -8.24783,-0.77285c-5.29038,-3.75255 -12.06006,-13.72954 -6.78675,-20.23214c0.80785,-0.99617 2.73144,-2.10918 3.95196,-2.47217c0.68129,-0.20264 1.40335,-0.30075 2.11384,-0.28045c0.27461,0.00786 0.60786,0.60267 0.74039,0.36204c0.15695,-0.28499 -0.41118,-0.53616 -0.46805,-0.85652c-0.11838,-0.66699 -0.02968,-1.35449 -0.04452,-2.03175c-0.05818,-2.65466 -0.29925,-5.27461 -0.35004,-7.92493c0.74327,-4.27943 2.33099,-9.72721 5.07704,-13.22849c3.52722,-4.49733 9.81522,-6.57718 15.44604,-8.20179c2.12073,-0.1546 4.24177,-0.22897 6.3702,-0.21428c4.45907,-2.218 1.8726,-6.56136 0.64741,-10.81762zM272.16317,179.31997l0.91185,-0.01136c0.47434,0.04085 0.86893,0.06372 1.2209,0.08939c-0.51981,-2.06922 -0.88494,-4.4454 -3.1296,-4.60954c-0.58346,-0.04266 0.32696,1.12513 0.43797,1.69954c0.1831,0.94736 -0.11347,1.97424 0.15229,2.89511c0.23458,-0.05931 0.40659,-0.06308 0.40659,-0.06308z" fill="#2e2e2e" stroke="none" stroke-width="0.5"/><path d="M208.95457,176.89574c-0.02815,-0.29547 0.04227,-0.53372 0.04227,-0.53372l0.24145,-0.77247c1.41943,-2.98813 -0.22652,-6.84367 0.34847,-10.11959c1.02896,-5.86235 6.03874,-11.05816 10.70739,-14.39634c2.8536,-1.54591 6.72948,-3.20811 9.88634,-3.89207c2.67732,-0.58005 5.52204,-0.68103 7.3599,-3.03063c1.78578,-2.28302 0.67649,-3.98321 -0.07978,-6.48346c-0.71525,-2.36462 -1.13666,-4.95203 -1.49164,-7.3937c-0.04196,-1.21415 -0.28999,-3.98587 0.80424,-4.65166c1.53105,-0.93156 4.00736,3.48595 5.29041,4.0127c1.93643,0.79498 3.29905,-1.52077 5.11482,-1.2465c2.1806,0.32938 3.90136,3.72897 4.55857,5.48591c0.11966,0.31991 0.49049,2.89066 0.93896,3.07566c0.82206,0.33911 1.7607,-0.59697 2.63347,-0.42646c1.66066,0.32445 2.1987,1.98602 2.88892,3.20084c-0.60948,2.52239 -1.72509,3.56442 -3.32662,5.4742c-0.40819,0.48674 -1.96003,1.85193 -2.04145,2.50609c-0.07114,0.57149 1.14368,0.14549 1.70796,0.26065c0.54545,0.1113 1.09069,0.22417 1.63311,0.34939c1.71598,0.39615 3.23869,0.91977 4.78378,1.77268c5.12487,2.82899 8.32322,5.84865 11.27754,10.7877c1.83666,4.88013 2.25147,10.66331 -0.34611,15.36901c-1.49374,2.70602 -3.75197,5.73167 -6.91648,3.62258c-0.60497,-0.40321 0.26841,1.61072 -0.19305,2.17253c-1.94013,2.36193 -4.76044,1.10037 -7.11342,3.05134c-2.60116,2.15678 -5.84346,-1.54797 -8.23792,-1.66645c-2.99321,-0.1481 -4.11239,7.41394 -7.25697,6.81428c-1.63026,-0.31088 -3.58454,-5.27912 -4.90121,-6.27987c-0.56815,-0.43182 -0.62551,-1.75183 -1.33486,-1.67377c-0.25966,0.02858 -0.13394,0.57494 -0.36734,0.69227c-1.50253,0.75526 -3.11008,0.625 -4.71926,0.68499c-2.85943,0.09818 -7.08596,1.25176 -9.83277,0.25911c-0.66941,-0.24192 -1.31985,-0.62459 -1.7981,-1.15178c-0.2232,-0.24604 -0.41428,-0.84412 -0.47975,-1.32368c-0.33323,0.23844 -0.81912,0.46359 -1.10884,0.5874c-1.27615,0.54538 -2.59836,1.09952 -3.98102,1.2187c-1.89817,0.16361 -5.84685,-1.03046 -6.18392,-3.30783c-0.14934,-1.00906 0.82635,-2.21751 1.4929,-3.04805z" fill="url(#color-2)" stroke="none" stroke-width="0.5"/><path d="M228.91673,209.29516c-0.23864,2.1884 -0.37043,4.4614 0.01978,6.63465c0,0 0.21785,1.23087 -1.01301,1.44873c-1.23087,0.21785 -1.44873,-1.01301 -1.44873,-1.01301c-0.41189,-2.35706 -0.31498,-4.79196 -0.05627,-7.16451l-0.00833,-0.23271c-7.16038,2.27111 -15.71987,2.04683 -21.54016,-3.096c-0.29369,-0.18197 -0.58737,-0.36395 -0.88106,-0.54592l-0.90095,-1.5046c0,0 -0.5026,-1.14451 0.64191,-1.64711c1.14451,-0.5026 1.6471,0.6419 1.6471,0.6419l-0.07129,0.38468c0.14606,0.0905 0.29213,0.181 0.43818,0.2715c0.32056,0.10241 0.53686,0.30479 0.53686,0.30479c0.02922,0.02761 0.05852,0.05504 0.08793,0.08234c0.03713,0.02301 0.07426,0.04602 0.1114,0.06903c0,0 0.21344,0.13224 0.38972,0.37387c6.11868,5.1469 15.74057,4.08131 22.35629,0.86536l0.83947,-0.25927c0,0 1.20191,-0.34335 1.54528,0.85857c0.34335,1.20191 -0.85856,1.54528 -0.85856,1.54528l-0.43536,0.10491c-0.46856,0.22661 -0.94856,0.44257 -1.43844,0.64697z" fill="#2e2e2e" stroke="none" stroke-width="0.5"/><g stroke="none" stroke-width="0.5"><path d="M212.56073,202.9688c-0.89431,0.57356 -4.92686,-0.00123 -5.63106,-1.05814c-0.75671,-1.13573 0.5996,-1.61797 0.17851,-2.64353c-0.386,-0.9401 -0.71111,-1.55439 -0.92701,-2.57994c-0.04304,-0.0679 -0.06396,-0.11489 -0.06396,-0.11489l-0.23105,-0.60506c-0.02566,-0.55721 -0.31825,-1.16867 -0.07698,-1.6716c0.32557,-0.67867 1.16041,-2.45562 2.10462,-3.90367c0.19499,-0.01159 0.38995,-0.01583 0.58492,-0.01075c2.81018,1.06456 5.00322,2.9635 7.4391,4.64071c1.11613,0.89693 2.71259,2.16648 3.03261,3.59744l-0.09778,-0.03749c-1.71567,-0.05388 -1.88587,1.4243 -2.62128,2.21657c-0.84972,0.91543 -2.21317,1.22281 -3.69063,2.17039z" data-paper-data="{&quot;index&quot;:null}" fill="#9f4d1e"/><path d="M204.5821,193.9631l0.09038,0.3163c0.11965,0.48495 1.03253,0.25769 1.35552,0.6387c0.99187,1.16999 0.20112,1.59419 0.20071,2.60966c-0.00017,0.42092 0.8455,-0.37821 1.2409,-0.23386c0.58728,0.21443 1.05831,0.71998 1.40996,1.23693c0.24472,0.35977 -0.19044,1.35862 0.23812,1.28343c0.13313,-0.02336 0.26571,-0.04974 0.39795,-0.07809l-0.09069,-0.16759l1.09403,-0.59197c0.24884,-0.13658 0.55387,-0.16688 0.83967,-0.05729c0.51567,0.19775 0.7734,0.77607 0.57565,1.29176c-0.05291,0.13795 -0.13304,0.25747 -0.23195,0.35472l-0.70443,0.72489c-1.78598,1.83637 -3.97905,3.1827 -5.7047,5.05234c-0.77206,0.83649 -2.01519,2.52827 -3.26069,2.64369c-1.50112,0.13909 -2.3677,-1.3704 -3.44114,-2.07885c-1.57089,-0.5955 -3.48011,-0.33281 -4.68686,-1.61649c-1.62207,-1.72547 -1.07532,-4.88994 0.10598,-6.6638c2.04202,-3.06634 6.24086,-4.09203 9.16803,-6.0281c0,0 0.83407,-0.55167 1.38574,0.2824c0.30597,0.46259 0.18566,0.83833 0.01782,1.08124z" data-paper-data="{&quot;index&quot;:null}" fill="#060301"/><path d="M209.86715,193.15891c-4.37203,2.298 -11.64944,3.32393 -14.49337,7.72393c-2.41019,3.72895 2.07325,3.41482 4.2468,4.59237c0.86611,0.46921 1.3662,1.94528 2.34098,1.80352c0.49777,-0.07238 0.82768,-0.57181 1.24151,-0.85769c4.4721,-1.97195 8.08294,-5.70391 12.21917,-8.30819l0.97815,-0.93312c0,0 0.63655,-0.58234 1.42464,-0.48232c0.77285,0.83258 1.34569,1.78588 1.17089,2.79406c-0.125,0.17178 -0.23306,0.27065 -0.23306,0.27065l-1.4782,1.31407c-4.27444,2.68119 -7.95309,6.42469 -12.56367,8.49858c-3.57004,1.56964 -3.76957,0.78106 -6.8149,-1.04821c-0.97583,-0.58616 -2.32328,-0.1748 -3.34894,-0.66862c-3.64179,-1.75334 -4.08544,-5.72646 -2.14551,-8.83944c3.10713,-4.98595 10.06989,-6.15912 15.10768,-8.59365c0.32656,-0.03452 0.65297,-0.05215 0.97941,-0.04364c0.8216,0.31125 1.59046,0.69382 2.32805,1.1213c0.11791,1.0875 -0.95961,1.6564 -0.95961,1.6564z" data-paper-data="{&quot;index&quot;:null}" fill="#2e2e2e"/><path d="M213.69628,200.62266c-0.86855,2.34427 -3.21283,1.47571 -3.21283,1.47571l-1.06305,-0.40064c-1.70303,-0.77847 -3.35694,-1.67882 -4.92438,-2.70324c0,0 -2.08893,-1.37345 -0.71548,-3.46238c1.37345,-2.08894 3.46237,-0.71548 3.46237,-0.71548c1.34547,0.89079 2.77289,1.6657 4.24423,2.32824l0.73344,0.26497c0,0 2.34427,0.86855 1.47572,3.21283z" fill="#8e0000"/></g><path d="M234.38585,207.8268c-0.25344,-0.03678 0.14821,-0.19634 -0.033,-0.59482c-0.41397,-0.91029 -0.17868,-1.1738 -0.17868,-1.1738l1.13172,-0.49224c2.92558,-0.11061 5.75852,0.09237 8.67157,0.19803c1.40847,0.05108 3.48089,-0.29542 4.81516,0.06209c1.67878,0.44982 1.52906,0.95962 2.13598,2.36935c0.03881,1.50544 -0.0477,3.48584 -1.38171,4.54492c-1.20821,0.9592 -3.39757,1.58797 -4.81541,1.70915c-0.49476,0.04228 -1.27198,0.66511 -1.79012,0.69853c-4.30524,0.27771 -8.85644,-1.75464 -8.55552,-7.32119z" data-paper-data="{&quot;index&quot;:null}" fill="#393939" stroke="none" stroke-width="0.5"/><path d="M254.01951,205.05868c-0.08151,-0.10793 -0.14799,-0.24793 -0.18836,-0.42904c-0.21755,-0.97605 0.75849,-1.19361 0.75849,-1.19361l0.80684,-0.17193c2.94438,-1.05369 7.017,-3.6548 9.87284,-3.74824c2.05066,1.45806 4.19689,2.97606 5.70565,5.03545c0.78861,1.07644 2.10863,2.76608 1.01789,4.28671c-0.42795,0.59664 -1.81083,-0.27643 -2.17272,0.36243c-0.45637,0.80568 -0.77304,1.94381 -1.65279,2.23266c-0.48366,0.1588 -1.22261,-0.75308 -1.67524,-0.08455c-0.45513,0.67222 -0.47417,1.75715 -1.20104,2.11867c-0.99954,0.49716 -2.57523,-1.27652 -3.31945,-0.44444c-0.17013,0.19022 0.2538,0.5578 0.0973,0.75939c-0.0518,0.06671 -0.10645,0.13065 -0.16352,0.19224l0.03607,0.02759l-0.71824,0.93929c-0.17795,0.23687 -0.45891,0.39266 -0.77807,0.39965c-0.50182,0.011 -0.92538,-0.3496 -1.00752,-0.82993l-0.19235,-1.01624c-1.10035,-2.57084 -2.18715,-6.41602 -4.73944,-7.84609c0,0 -0.36415,-0.20775 -0.48634,-0.59001z" data-paper-data="{&quot;index&quot;:null}" fill="#9f4d1e" stroke="none" stroke-width="0.5"/><path d="M219.01549,199.77753c0.10725,-0.04538 2.95541,2.16315 3.04301,2.1467c1.84421,-0.34603 3.58878,0.95956 5.29642,1.53434c-0.11383,-0.03488 -0.22632,-0.06864 -0.33699,-0.10142c-2.96129,-0.63876 -5.77587,-1.60852 -8.86271,-1.48664c-0.10529,0.03833 -0.20962,0.07942 -0.31308,0.123c0.2599,-1.09524 0.63329,-1.98753 1.17335,-2.21597z" data-paper-data="{&quot;index&quot;:null}" fill="#9f4d1e" stroke="none" stroke-width="0.5"/><path d="M227.7925,203.58858c1.09777,0.27886 1.99498,0.02785 2.59152,0.5471c0.04509,-0.01701 0.0907,-0.0339 0.13684,-0.05066l-0.00109,-0.04989l1.35593,-0.02971c0.55215,-0.01211 1.00957,0.42569 1.02168,0.97785c0.01211,0.55215 -0.42569,1.00957 -0.97785,1.02168l-0.33402,0.00732c-0.71007,-1.27088 -2.41136,-1.97689 -3.94805,-2.46555c0.0517,0.01477 0.1034,0.02876 0.15505,0.04187z" data-paper-data="{&quot;index&quot;:null}" fill="#9f4d1e" stroke="none" stroke-width="0.5"/><path d="M260.44915,216.62308c-0.63756,-0.32868 -0.46407,-1.09345 -0.46407,-1.09345l0.09917,-0.30222c0.14362,-2.0175 0.66867,-2.94631 2.8456,-2.4098c1.00852,-0.71104 1.89512,-0.39907 2.7954,-0.64336c0.67056,-0.18195 0.08418,-1.57993 0.6525,-1.97966c0.63357,-0.44564 1.63358,0.42878 2.32259,0.07484c0.88968,-0.45704 -0.08968,-2.62221 1.87936,-3.16411c1.3594,-0.37412 3.09353,0.98294 3.88358,1.87059c2.17489,2.44364 3.89764,6.85534 2.2825,9.88489c-1.49155,1.55838 -6.49321,5.02713 -8.81015,4.48971c-1.95884,-0.45435 -1.87374,-2.66823 -3.33117,-3.36397c-0.63734,-0.30426 -1.42589,0.58244 -2.09062,0.34389c-1.32449,-0.47531 -1.809,-2.19571 -2.06467,-3.70734z" data-paper-data="{&quot;index&quot;:null}" fill="#060301" stroke="none" stroke-width="0.5"/><path d="M227.81541,182.76912c3.60422,0.9945 6.93217,3.04764 10.0857,4.98888c1.0362,0.63786 2.21775,1.54284 2.87187,2.56441c0.28572,0.4462 0.11354,0.62596 0.60676,0.81951c0.2558,0.10037 1.85505,-2.02083 2.04288,-2.25708c5.93557,-6.2108 13.55374,-11.69439 22.6044,-8.89539c3.77162,1.57938 3.21986,4.77014 2.70591,8.10679c-0.89443,5.80682 -2.38017,10.81292 -8.21324,13.14889c-2.62518,1.04655 -5.4459,1.77584 -8.03017,2.87042c-1.21324,0.51387 -1.57856,1.57702 -3.02641,1.89628c-3.72483,0.82135 -8.61579,-0.19869 -12.47614,-0.11872c-2.56203,0.30387 -3.75931,-0.91678 -6.11981,-1.37839c-0.44594,-0.08721 -0.90655,-0.17053 -1.37765,-0.25359c-0.79745,-0.38641 -1.6812,-0.66972 -2.47158,-0.90398c-2.10313,-0.45366 -4.13228,-1.07426 -6.23751,-1.3522c-1.5543,-0.73669 -2.92936,-1.73615 -3.94701,-3.15282c-0.9898,-1.37792 -1.18738,-3.0962 -1.62246,-4.69907c-0.35906,-2.68154 -1.14244,-6.16612 -0.28073,-8.79666c1.85262,-5.65555 8.52775,-5.47832 12.55137,-2.92716c0,0 0.19121,0.12149 0.33378,0.33986z" data-paper-data="{&quot;index&quot;:null}" fill="#de8f31" stroke="none" stroke-width="0.5"/><path d="M225.45214,203.50577c-0.5139,-0.11292 -1.02665,-0.23628 -1.53363,-0.37409c0.51035,0.1222 1.02078,0.24942 1.53363,0.37409z" data-paper-data="{&quot;index&quot;:null}" fill="#de8f31" stroke="none" stroke-width="0.5"/><path d="M230.46865,204.82985c0.45919,0.21715 0.72206,0.50455 0.8639,0.80313c-0.23574,-0.30167 -0.53068,-0.5674 -0.86434,-0.80335c0.00014,0.00008 0.00028,0.00014 0.00042,0.0002z" data-paper-data="{&quot;index&quot;:null}" fill="#783b1a" stroke="none" stroke-width="0.5"/><path d="M253.18683,206.94837c-0.05954,0.1907 -0.1087,0.3886 -0.15065,0.59171l0.03343,0.21146c0,0 0.00699,0.31889 -0.16702,0.60041c-0.22594,1.68895 -0.25557,3.54047 -1.6588,4.55615c-0.74649,0.54033 -2.7751,1.11915 -3.46638,0.10605c-0.69834,-1.02342 0.9067,-2.13402 1.17211,-2.91497c0.48554,-1.42851 -0.36599,-3.52418 0.2787,-4.88006c0.53508,-1.12536 2.03246,-2.12581 3.34314,-1.24655c0.79174,0.53113 0.91289,1.23127 0.82261,1.94047c-0.03395,0.26675 -0.09781,0.53478 -0.16716,0.79555c-0.00989,0.14228 -0.04002,0.23977 -0.04002,0.23977z" data-paper-data="{&quot;index&quot;:null}" fill="#151515" stroke="none" stroke-width="0.5"/><path d="M248.69103,192.16497c0.06797,-0.11059 0.13075,-0.17618 0.13075,-0.17618l0.19818,-0.20114c2.66497,-2.31867 5.48155,-4.45489 8.62813,-6.07569c2.56619,-0.40268 6.14303,-0.41483 7.38026,2.46658c1.20117,2.79744 -0.69653,8.43505 -2.50828,10.6931c-1.49517,1.86351 -4.02897,3.11066 -6.08704,4.1967c-2.18404,0.98686 -6.0659,2.13404 -8.35679,0.82448c-2.42241,-1.38475 -3.16482,-7.91448 -1.61616,-10.11482c0.52805,-0.75024 1.37673,-1.23253 2.23095,-1.61303z" data-paper-data="{&quot;index&quot;:null}" fill="#fffeff" stroke="none" stroke-width="0.5"/><path d="M233.21359,195.61839c0.07259,0.04852 0.11456,0.08871 0.11456,0.08871l0.59098,0.73487c0.90756,3.39994 -2.59765,6.95594 -5.48319,3.67283c-2.90727,-3.30786 1.18876,-6.48707 4.47046,-4.76951c0,0 0.17206,0.09338 0.30719,0.27309z" data-paper-data="{&quot;index&quot;:null}" fill="#4d2813" stroke="none" stroke-width="0.5"/><path d="M248.6239,195.93226c3.20329,-1.85971 7.43469,1.13699 4.67515,4.56904c-2.73892,3.40639 -6.39658,0.0074 -5.63885,-3.42905l0.55822,-0.76006c0,0 0.04018,-0.04199 0.11056,-0.09364c0.12713,-0.18547 0.29492,-0.28629 0.29492,-0.28629z" data-paper-data="{&quot;index&quot;:null}" fill="#07064e" stroke="none" stroke-width="0.5"/><path d="M236.63154,193.97529c1.64361,2.13037 1.188,8.68636 -1.17141,10.17592c-1.39429,0.88026 -3.45124,0.82936 -5.34119,0.45011c-0.93799,-0.56845 -2.09513,-0.94603 -3.101,-1.24415c-0.42795,-0.09231 -0.85284,-0.19153 -1.27594,-0.29338c-1.78223,-0.85483 -3.67741,-1.86582 -4.93186,-3.29607c-1.90894,-2.17648 -4.05184,-7.72554 -2.97441,-10.57292c1.1098,-2.93286 4.68372,-3.07744 7.26508,-2.78759c3.21456,1.48137 6.12204,3.49212 8.88605,5.6918l0.2068,0.19226c0,0 0.0656,0.0628 0.13835,0.17029c0.87006,0.34272 1.73907,0.78734 2.29948,1.51373z" data-paper-data="{&quot;index&quot;:null}" fill="#fffeff" stroke="none" stroke-width="0.5"/><path d="M246.73366,186.43126c-0.0113,-0.01629 -0.02249,-0.03318 -0.03354,-0.05071c-0.50329,-0.79863 0.29532,-1.30194 0.29532,-1.30194l0.64868,-0.40854c2.58596,-1.54884 5.30758,-3.00801 7.99187,-4.3953c2.00777,1.37666 3.0916,4.44993 1.62186,6.83438c-0.92234,1.49639 -3.27694,2.22949 -4.66393,3.16036c-0.96052,0.64466 -1.80702,2.15748 -3.23695,1.86832c-1.2723,-0.25727 -1.82186,-1.6123 -2.13771,-3.02392c-0.22025,-0.9844 -0.32685,-1.99632 -0.48561,-2.68267z" data-paper-data="{&quot;index&quot;:null}" fill="#713617" stroke="none" stroke-width="0.5"/><path d="M234.10989,192.58955c-1.41589,0.35153 -2.32785,-1.12275 -3.3157,-1.7247c-1.42644,-0.8692 -3.81089,-1.49843 -4.79791,-2.95297c-1.57281,-2.31777 -0.62467,-5.43556 1.32084,-6.89888c2.7425,1.26835 5.52545,2.60685 8.17677,4.04091l0.66595,0.37973c0,0 0.81991,0.46783 0.35209,1.28774c-0.01027,0.01799 -0.02071,0.03536 -0.03128,0.05214c-0.31286,1.68589 -0.23242,5.28515 -2.37075,5.81604z" data-paper-data="{&quot;index&quot;:null}" fill="#713617" stroke="none" stroke-width="0.5"/><path d="M234.26161,196.91571c0.07258,0.04853 0.11456,0.08871 0.11456,0.08871l0.59098,0.73487c0.90755,3.39993 -2.59765,6.95594 -5.48318,3.67283c-2.90727,-3.30787 1.18876,-6.48706 4.47046,-4.7695c0,0 0.17206,0.09338 0.30719,0.27309z" data-paper-data="{&quot;index&quot;:null}" fill="#07064e" stroke="none" stroke-width="0.5"/><path d="M211.47809,185.60919c0.60506,0.09243 0.84567,0.73223 0.84567,0.73223l0.32754,0.90301c0.27325,1.2348 0.429,2.35449 0.55838,3.6054c0.12127,1.17254 0.63842,2.14507 -0.27992,3.27922c-1.40523,1.73547 -3.79895,1.37382 -5.04572,-0.33725c-2.23524,-3.0677 -0.98653,-7.53389 2.63195,-8.38444c0,0 0.5551,-0.12284 0.9621,0.2018z" fill="#de8f31" stroke="none" stroke-width="0.5"/><path d="M271.85977,185.26311c3.65228,0.69118 5.09548,5.09836 2.9968,8.26105c-1.17059,1.76408 -3.54618,2.23025 -5.02608,0.55802c-0.96715,-1.09283 -0.4931,-2.08707 -0.42333,-3.26381c0.07444,-1.25539 0.18097,-2.38083 0.39988,-3.62642l0.28764,-0.91649c0,0 0.21234,-0.64974 0.81277,-0.76858c0.39237,-0.34216 0.95234,-0.24377 0.95234,-0.24377z" data-paper-data="{&quot;index&quot;:null}" fill="#de8f31" stroke="none" stroke-width="0.5"/><path d="M258.50746,212.57337c-0.61403,-2.43233 2.03314,-3.01125 2.03314,-3.01125l0.77034,-0.15536c2.7434,-0.84362 4.52616,-2.20219 6.87684,-3.75385c0,0 2.214,-1.46142 3.78971,0.56728c1.57571,2.0287 -0.6383,3.49011 -0.6383,3.49011c-2.78623,1.83915 -5.02632,3.35316 -8.27208,4.41941l-1.29845,0.29707c0,0 -1.19056,1.212 -2.07381,0.87499c-0.61092,-0.23309 -0.93636,-1.73391 -1.18741,-2.7284z" fill="#8e0000" stroke="none" stroke-width="0.5"/><path d="M273.51338,163.28954c-1.70606,1.82738 -3.53345,0.12132 -3.53345,0.12132l-1.15151,-1.08264c-4.87517,-5.20017 -9.72338,-9.23719 -16.49402,-11.7795c0,0 -2.33934,-0.8818 -1.45755,-3.22112c0.27042,-0.71742 0.67792,-1.13188 1.11299,-1.36173c-0.78264,-2.13974 1.36508,-3.08556 1.36508,-3.08556c2.38137,-0.95682 3.28549,-1.62965 2.84078,-4.33064c-0.03529,-0.2143 -0.10485,0.45095 -0.2686,0.59363c-0.74679,0.65068 -1.42752,1.60708 -2.40913,1.73949c-1.54219,0.20805 -3.29362,0.05096 -4.60046,-0.7939c-2.17935,-1.40893 -2.32652,-4.40871 -2.89015,-6.55775c-0.24701,-0.94182 0.03439,-2.63637 -0.93021,-2.76897c-0.66249,-0.09107 -1.26925,0.56123 -1.93684,0.5227c-2.02676,-0.11694 -3.06946,-0.50478 -4.20189,-1.17363c0.0652,0.75924 0.1024,1.58219 0.36799,2.39129c1.05411,3.21141 3.92094,8.36012 2.28214,11.87708c-2.40702,5.16561 -10.09631,5.89818 -14.82634,6.94323c-6.69521,1.47924 -10.72411,6.40581 -12.94077,12.5712c-1.34989,5.05153 0.08716,10.13535 -1.19497,15.19409l-2.75886,2.09637c-0.40914,0.4628 -0.988,0.77404 -1.64345,0.83395c-0.73654,0.09642 -1.77796,-0.0424 -2.43629,-1.31285c-0.0306,-0.05727 -0.05904,-0.1159 -0.08521,-0.17578c-0.58747,-1.29937 -0.05308,-2.20203 0.47704,-2.72052c0.4358,-0.45991 1.04557,-0.75541 1.72882,-0.77887c0.02555,-0.00088 0.05103,-0.00137 0.07643,-0.00148c1.04241,-4.77336 -0.20741,-9.73148 1.06228,-14.62045c2.55202,-7.05608 6.62649,-12.25962 13.77877,-15.01764c3.60177,-1.38889 7.21524,-1.56184 10.8116,-3.08993c0.36391,-0.15461 2.99723,-1.06189 3.32216,-1.81187c0.86878,-2.00523 -1.8576,-6.71376 -2.41895,-8.47358c-0.97288,-3.04988 -1.11731,-4.90814 -0.54443,-6.94507l-0.4527,-0.10692l0.6427,-2.72127c0.23315,-1.09685 1.18851,-1.93652 2.35975,-1.97674c0.82783,-0.02842 1.57544,0.34897 2.05138,0.95344l1.34872,1.67529c1.30857,0.81486 1.78458,1.30544 3.46132,1.39781c1.18042,0.06502 2.46674,-0.65542 3.54275,-0.16572c4.46004,2.02977 2.75488,6.71372 4.84405,9.88727c0.43093,0.65462 1.16989,-1.12365 1.91648,-1.36207c1.5018,-0.47957 3.28542,-1.28508 4.69414,-0.57736c1.42787,0.71734 1.97668,2.60657 2.40779,4.14525c1.27929,4.566 -0.93037,6.88584 -4.29611,8.66073c6.26791,2.83041 11.14268,6.91186 15.93946,12.02842l0.91594,0.84757c0,0 1.82738,1.70606 0.12132,3.53345z" fill="#000000" stroke="none" stroke-width="0.5"/><path d="M213.36613,163.22269c0.57981,-0.72999 1.54166,-0.33793 1.54166,-0.33793c4.13397,1.73359 7.71144,4.70288 12.16332,5.95434c4.58906,1.29003 9.24341,0.58226 13.87401,0.79101c7.51904,0.61359 15.30723,-4.32141 21.35427,-8.11517c1.032,-0.64745 4.81271,-3.43827 5.9345,-3.02595c0.83787,0.30797 2.23676,2.01684 2.67542,2.76036c0.89094,4.2416 4.91973,0.55979 2.81621,4.59742c-0.80124,1.53799 -3.83911,6.51963 -6.40307,10.02711c-1.29453,1.77092 -2.46826,3.16606 -3.1723,3.55245c-3.62633,1.99015 -6.57018,2.75511 -10.69317,3.54765c-5.65928,0.78681 -9.60493,1.18271 -15.14001,0.41543c-1.51907,-0.21057 -4.98476,-0.33759 -6.52826,-0.43121c-4.34336,-0.26346 -9.75577,-2.31629 -13.92964,-3.33882c-0.38839,-0.09946 -5.05609,-0.99567 -5.25926,-1.11461c-4.55085,-2.66419 -0.90446,-8.70271 -1.15452,-12.89011l0.7311,-1.69781c0,0 0.40827,-0.73498 1.18973,-0.69417z" fill="#0e0c93" stroke="#050434" stroke-width="1"/><path d="M281.76741,172.61243c0.03851,-0.27871 0.19075,-0.57771 0.57561,-0.82697c1.04917,-0.67952 1.72868,0.36964 1.72868,0.36964l0.68299,1.06128c0.48728,0.91908 0.83768,1.925 1.0212,2.94893c0.21313,1.1892 0.52895,2.27446 0.02442,3.48577c-1.84314,4.42506 -6.81655,3.3196 -8.51367,-0.33747c-0.28923,-0.62324 -1.10003,-2.95758 -0.88068,-3.40916c0.76552,-1.57606 2.10786,-0.87496 3.22851,-1.32023c0.59669,-0.23707 1.58452,-1.43962 1.90219,-1.78253c0,0 0.08528,-0.09134 0.23076,-0.18929z" fill="#1b1b1b" stroke="none" stroke-width="0.5"/><path d="M216.01607,216.64731c0.33064,0.10209 0.52715,0.32304 0.64382,0.54419c0.05846,0.08629 0.11035,0.18482 0.14624,0.295c1.99952,2.13767 0.95423,4.57282 0.20602,7.28033c-0.37226,1.34707 -0.14251,2.90575 -0.41799,4.27367c-0.34571,1.71661 -0.47986,3.49253 -3.079,3.07676c-1.42491,-0.22793 -2.97804,-3.86245 -3.81017,-4.91222c-1.36825,-1.72613 -3.60825,-2.27947 -5.65621,-2.72562c-1.0512,0.0429 -4.28779,0.53724 -5.07346,-0.1223c-1.17906,-0.98977 -0.85136,-5.05926 -1.04102,-6.52304c-0.13003,-1.00354 -0.69738,-2.06814 -0.34373,-3.01624c0.46096,-1.23579 4.37517,-1.67358 5.30316,-1.79094c5.17687,-0.65474 8.78762,1.12277 13.1223,3.62043z" fill="#522319" stroke="none" stroke-width="0.5"/><path d="M236.89153,147.57995c-0.00566,-0.04653 -0.0066,-0.07393 -0.0066,-0.07393l0.32871,-1.09581c2.36702,-2.36176 3.59422,-1.45261 6.23805,-0.24835c1.81214,0.82962 3.05796,1.3706 5.08839,1.29419c0.75304,-0.02834 3.27676,-0.18231 3.69427,0.23949c2.62093,2.64787 -1.43086,5.46206 -3.51199,5.84576c-4.33367,0.79902 -9.40138,-0.78623 -11.96929,-4.33637c0,0 -0.65269,-0.90978 0.13844,-1.62497z" fill="#520f00" stroke="none" stroke-width="0.5"/><path d="M240.47849,142.25831c0.17289,-0.12025 0.35551,0.0271 0.35551,0.0271c0.7817,0.64377 1.3627,1.5187 2.2445,2.07883c0.90899,0.57739 1.96197,0.72678 2.95024,1.07294c1.58687,0.62149 3.59261,0.06002 5.14749,-0.3677c0.26536,-0.07299 1.26472,-0.43105 1.48063,-0.26894c0.16125,0.12109 0.35283,0.58174 0.3994,0.77111c-0.08295,0.97558 1.02801,0.44089 0.31047,1.1777c-0.41132,0.42238 -2.42543,2.2028 -2.95431,2.31556c-0.91391,0.19487 -1.60054,0.16902 -2.54407,0.07248c-1.27553,-0.19762 -2.15491,-0.36843 -3.30255,-0.89421c-0.31497,-0.1443 -1.05652,-0.39704 -1.38437,-0.51762c-0.92256,-0.33933 -1.96011,-1.13525 -2.79667,-1.62777c-0.07757,-0.04676 -1.02917,-0.54406 -1.06539,-0.58299c-0.81141,-0.8722 0.36999,-1.94162 0.58807,-2.86383l0.26852,-0.3198c0,0 0.1361,-0.13248 0.30253,-0.07286z" fill="#0b0981" stroke="#050434" stroke-width="0.5"/></g></g></svg>