<svg version="1.1" xmlns="http://www.w3.org/2000/svg" xmlns:xlink="http://www.w3.org/1999/xlink" width="484" height="365" viewBox="0,0,484,365"><defs><radialGradient cx="240.5" cy="178.50002" r="242" gradientUnits="userSpaceOnUse" id="color-1"><stop offset="0" stop-color="#ccf2fa"/><stop offset="1" stop-color="#9eeafd"/></radialGradient></defs><g transform="translate(1.5,3.99999)"><g data-paper-data="{&quot;isPaintingLayer&quot;:true}" fill-rule="nonzero" stroke="none" stroke-linejoin="miter" stroke-miterlimit="10" stroke-dasharray="" stroke-dashoffset="0" style="mix-blend-mode: normal"><path d="M-1.5,361.00001v-365h484v365z" fill="url(#color-1)" stroke-width="0" stroke-linecap="butt"/><path d="M25.82598,182.22747c0,1.52741 -0.26472,2.86274 -0.79416,4.00595c-0.52475,1.13853 -1.2463,2.08732 -2.16462,2.84634c-0.91832,0.75434 -1.9936,1.32126 -3.22583,1.70077c-1.22755,0.37483 -2.54881,0.56224 -3.96378,0.56224c-0.5435,0 -1.14088,-0.07263 -1.79213,-0.21787c-0.65125,-0.14524 -1.31189,-0.32563 -1.98189,-0.54115c-0.66531,-0.21552 -1.3072,-0.44745 -1.92567,-0.69577c-0.61846,-0.25301 -1.16665,-0.49196 -1.64455,-0.71685l0.73794,-6.87337c0.94643,0.56692 1.99361,0.99797 3.14151,1.29315c1.15259,0.29518 2.28644,0.44277 3.40154,0.44277c0.21084,0 0.46619,-0.00703 0.76605,-0.02108c0.29986,-0.01874 0.58567,-0.07028 0.85741,-0.15462c0.27175,-0.08434 0.50133,-0.20849 0.68874,-0.37248c0.19209,-0.16867 0.28815,-0.40996 0.28815,-0.72388c0,-0.21084 -0.06794,-0.39122 -0.20381,-0.54115c-0.13119,-0.14993 -0.3022,-0.27175 -0.51304,-0.36545c-0.21084,-0.09371 -0.44979,-0.16633 -0.71685,-0.21787c-0.26706,-0.05154 -0.52944,-0.08668 -0.78713,-0.10542c-0.25301,-0.02343 -0.49196,-0.03514 -0.71685,-0.03514c-0.22021,0 -0.39825,0 -0.53413,0c-0.95581,0 -1.82728,-0.16633 -2.61441,-0.49898c-0.78244,-0.33734 -1.45478,-0.80354 -2.01702,-1.39857c-0.56224,-0.59503 -1.00032,-1.30017 -1.31423,-2.11542c-0.30923,-0.81993 -0.46385,-1.7078 -0.46385,-2.6636c0,-1.31188 0.26472,-2.4879 0.79417,-3.52804c0.52945,-1.04014 1.23458,-1.92567 2.11542,-2.65658c0.88553,-0.73091 1.90225,-1.29081 3.05015,-1.67969c1.14791,-0.38888 2.33328,-0.58332 3.55615,-0.58332c0.5435,0 1.10339,0.02108 1.67969,0.06325c0.58098,0.03749 1.15727,0.10777 1.72888,0.21084c0.57629,0.09839 1.13619,0.2249 1.67968,0.37951c0.54818,0.15462 1.06591,0.34905 1.55319,0.58333l-0.63252,6.77497c-0.75902,-0.25301 -1.55318,-0.46619 -2.38248,-0.63954c-0.82462,-0.17335 -1.63283,-0.26003 -2.42465,-0.26003c-0.14524,0 -0.33266,0.00234 -0.56224,0.00703c-0.2249,0.00468 -0.46385,0.02109 -0.71685,0.0492c-0.24832,0.02811 -0.50132,0.07028 -0.75902,0.1265c-0.25301,0.05623 -0.48025,0.13119 -0.68172,0.2249c-0.20147,0.09371 -0.36311,0.22021 -0.48493,0.37951c-0.12182,0.15462 -0.17805,0.33734 -0.16868,0.54818c0.01405,0.24364 0.10543,0.44042 0.27409,0.59035c0.17336,0.14993 0.39591,0.26706 0.66766,0.3514c0.27643,0.08434 0.57864,0.1429 0.90661,0.1757c0.32797,0.03279 0.65126,0.05388 0.96986,0.06325c0.32328,0.00468 0.62316,0.00468 0.89959,0c0.28112,-0.00938 0.5107,-0.00234 0.68874,0.02109c0.89021,0.05623 1.69141,0.24598 2.40357,0.56926c0.71217,0.32328 1.31658,0.752 1.81321,1.28613c0.49665,0.53412 0.87382,1.17132 1.13151,1.91161c0.26238,0.73559 0.39356,1.5485 0.39356,2.43871zM44.15231,167.57413l-0.16165,7.07717l-4.97581,0.20382l-0.6044,15.48967l-7.04203,0.36545l-0.63252,-15.48967l-4.97581,0.26706l0.20381,-7.87836zM63.40193,177.62415c0,0.96986 -0.06793,1.93738 -0.20381,2.90256c-1.90224,0.12182 -3.79511,0.32094 -5.67861,0.59738c-1.87882,0.27175 -3.75762,0.54116 -5.63643,0.80822c0.29049,0.80119 0.74262,1.44074 1.3564,1.91864c0.61846,0.4779 1.3564,0.71686 2.21381,0.71686c0.44511,0 0.93238,-0.082 1.46182,-0.24598c0.52945,-0.16867 1.0542,-0.37717 1.57426,-0.6255c0.52475,-0.25301 1.02609,-0.52475 1.50399,-0.81525c0.4779,-0.29049 0.89021,-0.55286 1.23692,-0.78713l-0.80119,7.58319c-0.43573,0.33266 -0.90661,0.61611 -1.41263,0.85038c-0.50601,0.23427 -1.03311,0.42403 -1.58129,0.56927c-0.5435,0.14524 -1.09403,0.25066 -1.65158,0.31626c-0.55286,0.0656 -1.09636,0.09839 -1.63049,0.09839c-1.10104,0 -2.1084,-0.14993 -3.02203,-0.44979c-0.91363,-0.29986 -1.7406,-0.7192 -2.48088,-1.25801c-0.74029,-0.5435 -1.3892,-1.1807 -1.94674,-1.91161c-0.55286,-0.73559 -1.01438,-1.53679 -1.38451,-2.40357c-0.36545,-0.87147 -0.64423,-1.78979 -0.83632,-2.75497c-0.18742,-0.96986 -0.28112,-1.94909 -0.28112,-2.93769c0,-1.03546 0.0937,-2.07091 0.28112,-3.10637c0.1921,-1.03546 0.48024,-2.03108 0.86444,-2.98689c0.38419,-0.9558 0.86679,-1.84367 1.44777,-2.6636c0.58567,-0.81993 1.26738,-1.53445 2.04514,-2.14354c0.78245,-0.61378 1.66563,-1.09168 2.64955,-1.43371c0.98392,-0.34671 2.07091,-0.52007 3.26098,-0.52007c0.99329,0 1.89756,0.13587 2.7128,0.40762c0.81993,0.27175 1.5485,0.65126 2.1857,1.13853c0.64189,0.48259 1.19944,1.05888 1.67266,1.72888c0.47322,0.66531 0.86209,1.39623 1.16665,2.19273c0.30923,0.7965 0.53881,1.63752 0.68874,2.52304c0.14993,0.88084 0.2249,1.77809 0.2249,2.69172zM56.72536,176.75268c0,-0.30923 -0.03514,-0.62784 -0.10542,-0.9558c-0.0656,-0.32797 -0.17335,-0.62548 -0.32328,-0.89255c-0.14993,-0.26707 -0.34672,-0.48728 -0.59035,-0.66063c-0.24363,-0.17335 -0.55053,-0.26004 -0.92066,-0.26004c-0.44511,0 -0.83868,0.11948 -1.1807,0.35843c-0.33734,0.23895 -0.62783,0.54116 -0.87147,0.90661c-0.24363,0.36077 -0.4451,0.75199 -0.6044,1.17368c-0.15461,0.42168 -0.26941,0.81057 -0.34437,1.16665l4.94067,-0.46385zM83.92978,175.71956c0,1.08231 -0.16165,2.04046 -0.48493,2.87445c-0.32328,0.83399 -0.76604,1.56489 -1.32828,2.19273c-0.56224,0.62784 -1.22287,1.15727 -1.98189,1.58832c-0.75434,0.42636 -1.56256,0.77542 -2.42465,1.04717c-0.86209,0.27175 -1.75465,0.47322 -2.67766,0.60441c-0.92301,0.12651 -1.82962,0.19445 -2.71982,0.20382v7.11231h-7.77997c0,-1.26972 0.00234,-2.50431 0.00703,-3.70375c0.00938,-1.20413 0.0164,-2.39653 0.02109,-3.57724c0.00468,-1.18538 0.00938,-2.3778 0.01405,-3.57725c0.00468,-1.20413 0.01406,-2.44808 0.02811,-3.73185c0.02343,-1.35405 0.02811,-2.71046 0.01405,-4.0692c-0.00938,-1.35874 0.01874,-2.72686 0.08433,-4.10434c1.42433,-0.42636 2.84868,-0.74497 4.27301,-0.9558c1.42433,-0.21084 2.89318,-0.31625 4.40654,-0.31625c0.85742,0 1.71483,0.07028 2.57224,0.21084c0.85742,0.14056 1.67734,0.36077 2.45979,0.66063c0.78714,0.29986 1.5157,0.67469 2.1857,1.12448c0.67468,0.44979 1.25567,0.98626 1.74294,1.60941c0.49196,0.62314 0.8785,1.33532 1.15962,2.1365c0.2858,0.80119 0.42871,1.6914 0.42871,2.67063zM76.52229,176.28882c0,-0.72153 -0.22021,-1.28611 -0.66063,-1.69374c-0.44042,-0.40762 -1.01203,-0.61143 -1.71483,-0.61143c-0.23427,0 -0.47556,0.02108 -0.72388,0.06325c-0.24832,0.03749 -0.48493,0.08434 -0.70982,0.14056l-0.19678,4.87039c0.15462,0.02343 0.30455,0.03514 0.44979,0.03514c0.14524,0 0.29518,0 0.44979,0c0.39825,0 0.78245,-0.0656 1.15259,-0.19678c0.37483,-0.13587 0.70747,-0.32797 0.99797,-0.57629c0.2905,-0.25301 0.52241,-0.54818 0.69577,-0.88553c0.17336,-0.34203 0.26004,-0.72388 0.26004,-1.14556zM138.89735,178.32694c0,1.01203 -0.11713,1.98892 -0.35139,2.93067c-0.23426,0.93706 -0.57161,1.8179 -1.01203,2.64252c-0.44042,0.82462 -0.97455,1.57895 -1.60238,2.26301c-0.62783,0.68406 -1.33531,1.27206 -2.12245,1.76403c-0.78244,0.48728 -1.63518,0.86679 -2.55819,1.13853c-0.923,0.27175 -1.90223,0.40762 -2.93769,0.40762c-1.00266,0 -1.95846,-0.1265 -2.86741,-0.37951c-0.90427,-0.25769 -1.75232,-0.61612 -2.54413,-1.07528c-0.78714,-0.46384 -1.50164,-1.02141 -2.14353,-1.67266c-0.6372,-0.65125 -1.18304,-1.37514 -1.63752,-2.17165c-0.44979,-0.7965 -0.80119,-1.64923 -1.0542,-2.55818c-0.24832,-0.91363 -0.37248,-1.8671 -0.37248,-2.86039c0,-0.96518 0.11713,-1.91161 0.3514,-2.8393c0.23427,-0.93238 0.57161,-1.80854 1.01203,-2.62847c0.44042,-0.82462 0.9722,-1.5813 1.59535,-2.27004c0.62314,-0.69342 1.32126,-1.2908 2.09434,-1.79213c0.77308,-0.50133 1.60941,-0.89021 2.50899,-1.16665c0.90427,-0.27643 1.85538,-0.41464 2.85336,-0.41464c1.61643,0 3.08763,0.25066 4.41357,0.75199c1.33064,0.49664 2.46682,1.21115 3.40857,2.14353c0.94175,0.9277 1.67031,2.05217 2.1857,3.37343c0.52007,1.31658 0.78011,2.78776 0.78011,4.41357zM131.48284,178.75565c0,-0.4779 -0.07028,-0.94175 -0.21084,-1.39154c-0.13587,-0.44979 -0.33734,-0.85038 -0.60441,-1.20178c-0.26707,-0.3514 -0.59972,-0.63487 -0.99797,-0.85039c-0.39356,-0.21552 -0.8457,-0.32328 -1.3564,-0.32328c-0.52475,0 -0.99329,0.0937 -1.4056,0.28111c-0.40762,0.18741 -0.75902,0.44745 -1.0542,0.78011c-0.29518,0.32797 -0.52241,0.71218 -0.68171,1.15259c-0.15462,0.43573 -0.23192,0.89958 -0.23192,1.39154c0,0.46384 0.0656,0.93004 0.19678,1.39857c0.13587,0.46853 0.33734,0.89255 0.60441,1.27206c0.26707,0.37483 0.59739,0.67936 0.99095,0.91363c0.39825,0.23427 0.85742,0.3514 1.37749,0.3514c0.52475,0 0.99563,-0.10308 1.41262,-0.30923c0.41699,-0.20615 0.77073,-0.48259 1.06122,-0.8293c0.29049,-0.3514 0.51305,-0.75434 0.66766,-1.20882c0.15462,-0.45917 0.23192,-0.93471 0.23192,-1.42667zM155.68719,167.37735c-0.0656,1.04483 -0.1265,2.08029 -0.18273,3.10637c-0.05623,1.0214 -0.12884,2.05452 -0.21786,3.09934l-7.07717,0.36545v2.10839h6.14245l-0.33734,5.17259l-5.84025,0.16867l0.03514,9.21369l-8.44763,0.16164l0.53413,-23.39614zM180.82363,177.45546c0,1.05888 -0.08434,2.1248 -0.25301,3.19773c-0.16398,1.07294 -0.42167,2.11308 -0.77307,3.12042c-0.3514,1.00734 -0.80119,1.95144 -1.34937,2.83228c-0.5435,0.87615 -1.19476,1.63987 -1.95378,2.29112c-0.75433,0.65125 -1.62346,1.16664 -2.60737,1.54615c-0.98391,0.37951 -2.08731,0.56927 -3.31018,0.56927c-0.53412,0 -1.09402,-0.02577 -1.67968,-0.0773c-0.58567,-0.05154 -1.16431,-0.13587 -1.73591,-0.25301c-0.57161,-0.11713 -1.13151,-0.27644 -1.67969,-0.4779c-0.5435,-0.20615 -1.03779,-0.47088 -1.4829,-0.79416l0.87147,-6.31113c0.34203,0.20147 0.72857,0.38888 1.15962,0.56224c0.43573,0.16867 0.88084,0.32094 1.33532,0.45682c0.45916,0.13118 0.91598,0.23427 1.37045,0.30924c0.45916,0.07028 0.8949,0.10542 1.30721,0.10542c0.64658,0 1.20413,-0.09136 1.67266,-0.27409c0.47322,-0.18273 0.87381,-0.44511 1.20178,-0.78714c0.33265,-0.34671 0.59738,-0.76137 0.79417,-1.24395c0.20147,-0.48728 0.34671,-1.03077 0.43573,-1.63049c-0.66531,0.35608 -1.36577,0.62784 -2.10136,0.81525c-0.73559,0.18741 -1.48056,0.28111 -2.2349,0.28111c-0.93706,0 -1.82962,-0.1429 -2.67766,-0.4287c-0.84336,-0.29049 -1.58363,-0.70514 -2.22084,-1.24395c-0.63252,-0.53881 -1.13853,-1.1971 -1.51805,-1.97486c-0.37482,-0.78245 -0.56224,-1.66798 -0.56224,-2.65658c0,-1.26972 0.22958,-2.43169 0.68874,-3.48588c0.46384,-1.05888 1.09637,-1.96549 1.89756,-2.71982c0.80119,-0.75902 1.74997,-1.34937 2.84634,-1.77105c1.09636,-0.42636 2.2794,-0.63954 3.54913,-0.63954c1.54615,0 2.88381,0.28815 4.01298,0.86444c1.12917,0.57161 2.06388,1.34469 2.80416,2.31923c0.74028,0.96986 1.29081,2.10137 1.65158,3.39452c0.36077,1.28847 0.54116,2.65658 0.54116,4.10434zM173.91513,175.01676c0,-0.33266 -0.07496,-0.63251 -0.2249,-0.89958c-0.14993,-0.26707 -0.34203,-0.4943 -0.57629,-0.68171c-0.23426,-0.1921 -0.50133,-0.33734 -0.80119,-0.43573c-0.29986,-0.09839 -0.59972,-0.14759 -0.89958,-0.14759c-0.30454,0 -0.60206,0.04685 -0.89255,0.14056c-0.28581,0.09371 -0.54584,0.23192 -0.78011,0.41465c-0.23426,0.18273 -0.42167,0.40528 -0.56223,0.66766c-0.13587,0.26238 -0.20381,0.55522 -0.20381,0.8785c0,0.32328 0.07496,0.61846 0.2249,0.88553c0.14993,0.26707 0.34203,0.49664 0.57629,0.68874c0.23426,0.18741 0.50133,0.335 0.80119,0.44277c0.29986,0.10307 0.59973,0.15462 0.89959,0.15462c0.29986,0 0.59503,-0.0492 0.88553,-0.14759c0.29049,-0.10307 0.55052,-0.24598 0.7801,-0.4287c0.23426,-0.18273 0.42168,-0.40294 0.56224,-0.66063c0.14056,-0.25769 0.21084,-0.54818 0.21084,-0.87147z" data-paper-data="{&quot;index&quot;:null}" fill="#ffffff" stroke-width="1" stroke-linecap="square"/><path d="M106.79892,165.55044l-1.0995,27.10216l-8.31443,-0.38522l0.45745,-18.0253l-3.0497,2.09466l-2.85708,-6.51672l6.21175,-4.6548z" fill="#ffffff" stroke-width="1" stroke-linecap="butt"/><path d="M100.23133,339.0601c0,0.97237 -0.14548,1.83564 -0.43642,2.5898c-0.29094,0.75417 -0.69099,1.41262 -1.20015,1.97537c-0.50532,0.56275 -1.10062,1.04127 -1.78587,1.43559c-0.68143,0.39048 -1.41262,0.70822 -2.19358,0.95323c-0.77713,0.24501 -1.58298,0.42685 -2.41753,0.54552c-0.83455,0.11485 -1.6538,0.1761 -2.45772,0.18375v7.02864h-7.0229c0,-2.30076 0.00382,-4.59197 0.01148,-6.87359c0.01148,-2.28162 0.0268,-4.58431 0.04594,-6.90805c0.02296,-1.22503 0.02871,-2.45007 0.01723,-3.6751c-0.01148,-1.22503 0.0134,-2.46155 0.07465,-3.70956c1.28629,-0.38283 2.57257,-0.66803 3.85886,-0.8556c1.28629,-0.19142 2.61277,-0.28712 3.97945,-0.28712c0.7733,0 1.54661,0.06316 2.31991,0.1895c0.7733,0.1225 1.51407,0.31966 2.22229,0.59146c0.71205,0.2718 1.3705,0.61252 1.97536,1.02213c0.60869,0.40579 1.13316,0.89007 1.57341,1.45281c0.44408,0.56275 0.79436,1.20398 1.05085,1.92369c0.25649,0.71588 0.38473,1.52172 0.38473,2.41753zM93.54149,339.57118c0,-0.65463 -0.19907,-1.16378 -0.59721,-1.52747c-0.39814,-0.36751 -0.91304,-0.55127 -1.5447,-0.55127c-0.21055,0 -0.42876,0.01723 -0.65463,0.05169c-0.22586,0.03445 -0.44025,0.07657 -0.64315,0.12633l-0.17802,4.40438c0.13782,0.01914 0.27181,0.02871 0.40197,0.02871c0.13398,0 0.26989,0 0.40771,0c0.36369,0 0.71397,-0.05933 1.05085,-0.17801c0.33688,-0.12251 0.63549,-0.29669 0.8958,-0.52256c0.26032,-0.22586 0.46896,-0.49193 0.62592,-0.79819c0.15696,-0.30626 0.23543,-0.65079 0.23543,-1.03362zM118.72457,339.02565c0,0.78479 -0.067,1.49685 -0.20098,2.13616c-0.13398,0.63932 -0.34838,1.22503 -0.64315,1.75716c-0.29094,0.53212 -0.66803,1.02405 -1.13125,1.47578c-0.45938,0.45173 -1.01639,0.88432 -1.67102,1.29777l3.58898,6.39123l-6.78173,1.32648l-2.32566,-6.42569l-1.86626,0.06317l-0.26988,6.27065h-6.48312c0.04976,-2.29312 0.09763,-4.57474 0.14356,-6.84489c0.04594,-2.27014 0.09762,-4.55176 0.15504,-6.84488c0.02296,-1.15229 0.04403,-2.29694 0.06316,-3.43393c0.01914,-1.13698 0.05934,-2.28355 0.12059,-3.43968c0.7044,-0.26032 1.3973,-0.4747 2.07873,-0.64314c0.68525,-0.17228 1.37051,-0.30626 2.05576,-0.40197c0.68908,-0.09571 1.38773,-0.16078 2.09596,-0.19524c0.70822,-0.03445 1.43559,-0.05169 2.18209,-0.05169c1.14464,0 2.251,0.15887 3.31909,0.47662c1.07191,0.31391 2.0194,0.78861 2.84247,1.4241c0.8269,0.63166 1.48727,1.42028 1.98111,2.36586c0.49767,0.94174 0.74651,2.04044 0.74651,3.29611zM111.97157,339.50801c0,-0.42111 -0.05743,-0.80775 -0.17228,-1.15995c-0.11485,-0.3522 -0.2852,-0.65463 -0.51106,-0.90729c-0.22586,-0.25649 -0.50725,-0.45748 -0.84413,-0.60295c-0.33688,-0.1493 -0.73119,-0.22395 -1.18292,-0.22395c-0.2029,0 -0.40005,0.0134 -0.59146,0.0402c-0.18758,0.0268 -0.37325,0.06508 -0.55701,0.11485l-0.24118,5.60454h0.36177c0.43259,0 0.87283,-0.05551 1.32074,-0.16653c0.44791,-0.11102 0.84987,-0.28137 1.2059,-0.51107c0.35603,-0.22969 0.64697,-0.52447 0.87284,-0.88432c0.22586,-0.36368 0.3388,-0.79818 0.3388,-1.30351zM136.43614,341.38001c0,0.87283 -0.05934,1.74759 -0.17801,2.62425c-1.71888,0.11102 -3.42819,0.28904 -5.12792,0.53404c-1.69591,0.24501 -3.39373,0.4881 -5.09347,0.72928c0.26032,0.72354 0.66994,1.3016 1.22886,1.73419c0.55893,0.43259 1.22504,0.64889 1.99834,0.64889c0.40196,0 0.8403,-0.07465 1.315,-0.22395c0.47853,-0.15313 0.95323,-0.34263 1.4241,-0.56849c0.4747,-0.22586 0.92835,-0.46896 1.36094,-0.72928c0.43259,-0.26032 0.80393,-0.49767 1.11401,-0.71205l-0.72353,6.84488c-0.39048,0.30243 -0.81542,0.55892 -1.27481,0.76947c-0.45556,0.21055 -0.93026,0.38283 -1.4241,0.51681c-0.49001,0.13016 -0.98769,0.22396 -1.49301,0.28138c-0.5015,0.06125 -0.99342,0.09188 -1.47578,0.09188c-0.99534,0 -1.90454,-0.1359 -2.72762,-0.40771c-0.82307,-0.2718 -1.56957,-0.6508 -2.23952,-1.13698c-0.66611,-0.48618 -1.25183,-1.06042 -1.75716,-1.72271c-0.5015,-0.66611 -0.91877,-1.38965 -1.25183,-2.17061c-0.32922,-0.78479 -0.57997,-1.6136 -0.75224,-2.48644c-0.16844,-0.87667 -0.25267,-1.7629 -0.25267,-2.6587c0,-0.93409 0.08423,-1.86818 0.25267,-2.80228c0.17227,-0.93409 0.43068,-1.83373 0.77522,-2.69891c0.34837,-0.86518 0.7867,-1.66719 1.315,-2.40604c0.5283,-0.73885 1.14273,-1.38391 1.8433,-1.93517c0.7044,-0.55127 1.50067,-0.98194 2.38882,-1.29203c0.89198,-0.31391 1.87584,-0.47087 2.95157,-0.47087c0.89198,0 1.70739,0.12441 2.44625,0.37326c0.73885,0.245 1.39731,0.58571 1.97537,1.02213c0.57806,0.43642 1.07957,0.95706 1.50449,1.56193c0.42876,0.60103 0.78096,1.26141 1.05659,1.98111c0.27946,0.71588 0.48619,1.47386 0.62018,2.27397c0.13398,0.8001 0.20098,1.61169 0.20098,2.43476zM130.40668,340.59331c0,-0.27946 -0.03063,-0.56658 -0.09188,-0.86135c-0.05743,-0.2986 -0.15505,-0.56849 -0.29287,-0.80968c-0.13398,-0.24118 -0.312,-0.43833 -0.53404,-0.59146c-0.21821,-0.15696 -0.49384,-0.23543 -0.8269,-0.23543c-0.40197,0 -0.75608,0.1091 -1.06233,0.32731c-0.30626,0.21438 -0.5704,0.48427 -0.79245,0.80967c-0.22204,0.3254 -0.40388,0.67951 -0.54552,1.06233c-0.13782,0.38282 -0.24309,0.73503 -0.31583,1.05659l4.46181,-0.42493zM154.97892,339.66305c0,0.97237 -0.14548,1.83564 -0.43642,2.58981c-0.29094,0.75416 -0.69099,1.41645 -1.20015,1.98685c-0.50532,0.56658 -1.10063,1.04319 -1.78588,1.42985c-0.68142,0.38665 -1.41261,0.70248 -2.19358,0.94748c-0.77713,0.245 -1.58298,0.42685 -2.41753,0.54552c-0.83455,0.11485 -1.6538,0.1761 -2.45772,0.18375v6.42569h-7.0229c0,-1.14847 0.00191,-2.2644 0.00574,-3.34779c0.00383,-1.08721 0.00765,-2.16487 0.01149,-3.23294c0.00765,-1.07191 0.0134,-2.14956 0.01723,-3.23294c0.00765,-1.08722 0.01531,-2.20889 0.02296,-3.36502c0.02296,-1.22503 0.02871,-2.45008 0.01723,-3.67511c-0.01148,-1.22503 0.0134,-2.46155 0.07465,-3.70956c1.28629,-0.38282 2.57257,-0.66803 3.85886,-0.85561c1.28629,-0.19142 2.61277,-0.28712 3.97945,-0.28712c0.7733,0 1.54661,0.06316 2.31991,0.1895c0.7733,0.1225 1.51407,0.31966 2.22229,0.59146c0.71205,0.2718 1.37051,0.61252 1.97537,1.02213c0.60869,0.40579 1.13315,0.89007 1.5734,1.45282c0.44408,0.56275 0.79436,1.20589 1.05085,1.92942c0.25649,0.72354 0.38474,1.52747 0.38474,2.41179zM148.28907,340.17412c0,-0.65463 -0.19906,-1.16378 -0.5972,-1.52747c-0.39814,-0.36751 -0.91303,-0.55126 -1.54469,-0.55126c-0.21055,0 -0.42876,0.01722 -0.65463,0.05168c-0.22586,0.03445 -0.44025,0.07657 -0.64315,0.12633l-0.17802,4.40438c0.13782,0.01914 0.27181,0.02871 0.40197,0.02871c0.13398,0 0.26989,0 0.40771,0c0.36369,0 0.71397,-0.05933 1.05085,-0.17801c0.33688,-0.12251 0.63548,-0.29669 0.8958,-0.52256c0.26032,-0.22586 0.46896,-0.49193 0.62592,-0.79818c0.15696,-0.30626 0.23543,-0.6508 0.23543,-1.03363zM173.45924,352.26178l-7.47654,0.96472l-0.90155,-3.40521h-3.43967l-0.75225,3.40521l-7.68901,-0.75225l6.00075,-20.08101l8.37809,-0.41919zM164.53563,345.21017l-1.14273,-5.24851l-1.11976,5.24851zM191.43998,339.02565c0,0.78479 -0.067,1.49685 -0.20099,2.13616c-0.13398,0.63932 -0.34838,1.22503 -0.64315,1.75716c-0.29094,0.53212 -0.66803,1.02405 -1.13125,1.47578c-0.45938,0.45173 -1.01639,0.88432 -1.67102,1.29777l3.58897,6.39123l-6.78172,1.32648l-2.32566,-6.42569l-1.86626,0.06317l-0.26989,6.27065h-6.48311c0.04977,-2.29312 0.09763,-4.57474 0.14356,-6.84489c0.04594,-2.27014 0.09762,-4.55176 0.15504,-6.84488c0.02296,-1.15229 0.04403,-2.29694 0.06316,-3.43393c0.01914,-1.13698 0.05934,-2.28355 0.12059,-3.43968c0.7044,-0.26032 1.3973,-0.4747 2.07873,-0.64314c0.68525,-0.17228 1.37051,-0.30626 2.05576,-0.40197c0.68909,-0.09571 1.38773,-0.16078 2.09596,-0.19524c0.70822,-0.03445 1.43558,-0.05169 2.18209,-0.05169c1.14464,0 2.251,0.15887 3.31909,0.47662c1.0719,0.31391 2.0194,0.78861 2.84247,1.4241c0.8269,0.63166 1.48727,1.42028 1.98111,2.36586c0.49767,0.94174 0.74651,2.04044 0.74651,3.29611zM184.68698,339.50801c0,-0.42111 -0.05743,-0.80775 -0.17227,-1.15995c-0.11485,-0.3522 -0.28521,-0.65463 -0.51107,-0.90729c-0.22586,-0.25649 -0.50724,-0.45748 -0.84412,-0.60295c-0.33688,-0.1493 -0.7312,-0.22395 -1.18293,-0.22395c-0.2029,0 -0.40004,0.0134 -0.59146,0.0402c-0.18759,0.0268 -0.37325,0.06508 -0.55701,0.11485l-0.24118,5.60454h0.36177c0.43259,0 0.87284,-0.05551 1.32074,-0.16653c0.4479,-0.11102 0.84987,-0.28137 1.20589,-0.51107c0.35602,-0.22969 0.64697,-0.52447 0.87284,-0.88432c0.22586,-0.36368 0.3388,-0.79818 0.3388,-1.30351zM200.34996,332.33581l-1.05659,20.52891l-6.35678,0.33306l-0.60295,-20.44277zM220.28095,345.9337c0,1.13315 -0.0134,2.25483 -0.0402,3.36502c-0.0268,1.11019 -0.06508,2.22803 -0.11485,3.35353l-8.68243,-0.1493c0.30243,-1.7763 0.56466,-3.55068 0.7867,-5.32315c0.22204,-1.7763 0.33306,-3.56984 0.33306,-5.38059c0,-0.13016 -0.00575,-0.34071 -0.01723,-0.63165c-0.01148,-0.29095 -0.03254,-0.62018 -0.06316,-0.98768c-0.0268,-0.36751 -0.06891,-0.7446 -0.12633,-1.13125c-0.0536,-0.38665 -0.12824,-0.74077 -0.22395,-1.06233c-0.09571,-0.32157 -0.21247,-0.5838 -0.35028,-0.7867c-0.13398,-0.20673 -0.29668,-0.31009 -0.4881,-0.31009c-0.34071,0 -0.62975,0.10145 -0.8671,0.30434c-0.23735,0.19907 -0.43451,0.45748 -0.59146,0.77522c-0.15312,0.31391 -0.27563,0.66803 -0.36751,1.06234c-0.08804,0.39048 -0.15504,0.78287 -0.20098,1.17718c-0.04594,0.39048 -0.07657,0.75991 -0.09188,1.10827c-0.01531,0.34454 -0.02297,0.62592 -0.02297,0.84413c-0.04977,1.78013 -0.08997,3.54686 -0.12059,5.30019c-0.03062,1.75334 -0.07082,3.52389 -0.12059,5.31167l-7.68327,0.33306c0.19906,-3.54495 0.39048,-7.07075 0.57424,-10.57741c0.18759,-3.51049 0.33688,-7.03821 0.4479,-10.58316l7.11478,-0.36176l-0.05742,2.41179c0.27946,-0.34454 0.58189,-0.66612 0.90729,-0.96472c0.32923,-0.30243 0.67952,-0.56083 1.05086,-0.77522c0.37134,-0.21821 0.76564,-0.39047 1.18292,-0.51681c0.41728,-0.12634 0.85752,-0.1895 1.32074,-0.1895c0.85369,0 1.60211,0.14164 2.24526,0.42493c0.64315,0.27946 1.19441,0.66037 1.6538,1.14273c0.46322,0.48236 0.84987,1.05277 1.15995,1.71123c0.31391,0.65846 0.56658,1.36093 0.75799,2.10744c0.19142,0.74268 0.33688,1.5179 0.43642,2.32565c0.09954,0.80775 0.16653,1.60403 0.20099,2.38882c0.03828,0.78479 0.05742,1.54469 0.05742,2.27971c0,0.73119 0,1.39922 0,2.00409zM239.92195,350.18304c-0.4747,0.59338 -1.05851,1.1121 -1.75142,1.55618c-0.69291,0.44025 -1.43751,0.80584 -2.23378,1.09679c-0.79244,0.29094 -1.60595,0.50915 -2.44051,0.65463c-0.83455,0.14548 -1.627,0.21821 -2.37733,0.21821c-1.45855,0 -2.80227,-0.245 -4.03114,-0.73503c-1.22503,-0.49384 -2.28162,-1.17909 -3.16977,-2.05576c-0.88815,-0.88049 -1.58489,-1.92943 -2.09022,-3.14681c-0.5015,-1.21738 -0.75224,-2.54386 -0.75224,-3.97945c0,-1.09488 0.12633,-2.15913 0.37899,-3.19275c0.25267,-1.03745 0.61252,-2.00791 1.07957,-2.91137c0.46705,-0.90347 1.03554,-1.73228 1.70548,-2.48644c0.67377,-0.75416 1.43751,-1.40304 2.2912,-1.94665c0.85753,-0.54361 1.79544,-0.96281 2.81375,-1.25758c1.02213,-0.2986 2.10553,-0.4479 3.25017,-0.4479c0.43259,0 0.89389,0.01914 1.3839,0.05743c0.49384,0.03445 0.98385,0.09379 1.47004,0.17801c0.49001,0.08422 0.96472,0.2029 1.4241,0.35603c0.46322,0.1493 0.88624,0.33497 1.26906,0.55701l-0.42494,5.75958c-0.56275,-0.21055 -1.14273,-0.35411 -1.73993,-0.43067c-0.59721,-0.07657 -1.18292,-0.11485 -1.75716,-0.11485c-0.80393,0 -1.55618,0.10911 -2.25674,0.32732c-0.69674,0.21438 -1.30352,0.53404 -1.82032,0.95897c-0.51681,0.42111 -0.92643,0.94749 -1.22886,1.57915c-0.2986,0.63166 -0.4479,1.36477 -0.4479,2.19932c0,0.52447 0.0689,1.0298 0.20672,1.51598c0.14165,0.48619 0.35603,0.91878 0.64315,1.29777c0.28712,0.37517 0.64315,0.67952 1.06807,0.91304c0.42876,0.22969 0.92452,0.34454 1.48727,0.34454c0.38282,0 0.77713,-0.04977 1.18292,-0.1493c0.40579,-0.10336 0.75417,-0.27563 1.04511,-0.51682l0.06316,-1.17144l-3.61768,-0.06317l0.17802,-4.51923c1.49684,-0.04976 2.99368,-0.09187 4.49052,-0.12633c1.50067,-0.03828 3.00899,-0.08805 4.52497,-0.1493zM261.47372,332.96747l-0.53978,6.36253c-0.29094,-0.0804 -0.57807,-0.1359 -0.86135,-0.16653c-0.27946,-0.03063 -0.56658,-0.04594 -0.86135,-0.04594c-0.71205,0 -1.39347,0.09188 -2.04428,0.27564c-0.64697,0.17992 -1.21929,0.45556 -1.71696,0.82689c-0.49385,0.37134 -0.89007,0.84221 -1.18867,1.41262c-0.29477,0.56658 -0.44216,1.23652 -0.44216,2.00982c0,0.56275 0.08231,1.05277 0.24693,1.47004c0.16462,0.41728 0.40004,0.76373 0.70631,1.03937c0.30626,0.27563 0.67759,0.48427 1.11401,0.62591c0.44024,0.13782 0.92643,0.20673 1.45856,0.20673c0.37134,0 0.75225,-0.03636 1.14273,-0.1091c0.3943,-0.07656 0.7867,-0.17993 1.17718,-0.31009c0.39431,-0.13016 0.77139,-0.27946 1.13125,-0.44791c0.36369,-0.17227 0.70056,-0.3541 1.01066,-0.54552l-0.24118,7.08032c-0.39048,0.2029 -0.8135,0.38283 -1.26906,0.53978c-0.45173,0.15312 -0.91686,0.28712 -1.39539,0.40196c-0.4747,0.11868 -0.95132,0.20673 -1.42985,0.26414c-0.4747,0.06126 -0.92835,0.09188 -1.36094,0.09188c-1.42793,0 -2.72761,-0.26606 -3.89905,-0.79818c-1.17144,-0.53213 -2.17635,-1.25758 -3.01473,-2.17635c-0.83839,-0.91878 -1.48918,-1.98685 -1.9524,-3.20423c-0.46322,-1.21738 -0.69483,-2.51324 -0.69483,-3.88758c0,-1.64997 0.23352,-3.187 0.70056,-4.6111c0.47087,-1.42793 1.15996,-2.66637 2.06725,-3.71531c0.91111,-1.05277 2.03662,-1.87775 3.3765,-2.47496c1.34371,-0.59721 2.88457,-0.8958 4.62259,-0.8958c0.69291,0 1.3954,0.05551 2.10744,0.16653c0.71588,0.1072 1.39922,0.312 2.05002,0.61444zM281.92941,352.26178l-7.47654,0.96472l-0.90155,-3.40521h-3.43967l-0.75225,3.40521l-7.68901,-0.75225l6.00076,-20.08101l8.37809,-0.41919zM273.00579,345.21017l-1.14273,-5.24851l-1.11976,5.24851zM300.95526,345.9337c0,1.13315 -0.01339,2.25483 -0.04019,3.36502c-0.0268,1.11019 -0.06509,2.22803 -0.11485,3.35353l-8.68243,-0.1493c0.30243,-1.7763 0.56466,-3.55068 0.7867,-5.32315c0.22204,-1.7763 0.33305,-3.56984 0.33305,-5.38059c0,-0.13016 -0.00574,-0.34071 -0.01722,-0.63165c-0.01148,-0.29095 -0.03255,-0.62018 -0.06317,-0.98768c-0.0268,-0.36751 -0.06891,-0.7446 -0.12634,-1.13125c-0.05359,-0.38665 -0.12824,-0.74077 -0.22395,-1.06233c-0.09571,-0.32157 -0.21247,-0.5838 -0.35028,-0.7867c-0.13399,-0.20673 -0.29669,-0.31009 -0.4881,-0.31009c-0.34071,0 -0.62975,0.10145 -0.86709,0.30434c-0.23735,0.19907 -0.4345,0.45748 -0.59146,0.77522c-0.15312,0.31391 -0.27563,0.66803 -0.36751,1.06234c-0.08805,0.39048 -0.15504,0.78287 -0.20098,1.17718c-0.04594,0.39048 -0.07656,0.75991 -0.09188,1.10827c-0.01531,0.34454 -0.02297,0.62592 -0.02297,0.84413c-0.04976,1.78013 -0.08997,3.54686 -0.12059,5.30019c-0.03062,1.75334 -0.07083,3.52389 -0.12059,5.31167l-7.68327,0.33306c0.19907,-3.54495 0.39047,-7.07075 0.57423,-10.57741c0.18759,-3.51049 0.33689,-7.03821 0.4479,-10.58316l7.11478,-0.36176l-0.05742,2.41179c0.27946,-0.34454 0.58189,-0.66612 0.90729,-0.96472c0.32923,-0.30243 0.67952,-0.56083 1.05085,-0.77522c0.37134,-0.21821 0.76564,-0.39047 1.18292,-0.51681c0.41728,-0.12634 0.85753,-0.1895 1.32074,-0.1895c0.8537,0 1.60212,0.14164 2.24526,0.42493c0.64315,0.27946 1.19441,0.66037 1.65379,1.14273c0.46322,0.48236 0.84987,1.05277 1.15995,1.71123c0.31391,0.65846 0.56658,1.36093 0.758,2.10744c0.19142,0.74268 0.33688,1.5179 0.43642,2.32565c0.09953,0.80775 0.16653,1.60403 0.20098,2.38882c0.03828,0.78479 0.05743,1.54469 0.05743,2.27971c0,0.73119 0,1.39922 0,2.00409zM321.07861,345.9337c0,1.13315 -0.0134,2.25483 -0.0402,3.36502c-0.0268,1.11019 -0.06508,2.22803 -0.11484,3.35353l-8.68244,-0.1493c0.30243,-1.7763 0.56466,-3.55068 0.7867,-5.32315c0.22204,-1.7763 0.33306,-3.56984 0.33306,-5.38059c0,-0.13016 -0.00575,-0.34071 -0.01723,-0.63165c-0.01148,-0.29095 -0.03255,-0.62018 -0.06317,-0.98768c-0.0268,-0.36751 -0.0689,-0.7446 -0.12633,-1.13125c-0.05359,-0.38665 -0.12824,-0.74077 -0.22395,-1.06233c-0.0957,-0.32157 -0.21247,-0.5838 -0.35028,-0.7867c-0.13398,-0.20673 -0.29668,-0.31009 -0.4881,-0.31009c-0.34071,0 -0.62975,0.10145 -0.8671,0.30434c-0.23735,0.19907 -0.4345,0.45748 -0.59146,0.77522c-0.15313,0.31391 -0.27563,0.66803 -0.36751,1.06234c-0.08804,0.39048 -0.15504,0.78287 -0.20098,1.17718c-0.04594,0.39048 -0.07657,0.75991 -0.09188,1.10827c-0.01531,0.34454 -0.02296,0.62592 -0.02296,0.84413c-0.04976,1.78013 -0.08997,3.54686 -0.12059,5.30019c-0.03062,1.75334 -0.07083,3.52389 -0.12059,5.31167l-7.68327,0.33306c0.19907,-3.54495 0.39048,-7.07075 0.57424,-10.57741c0.18759,-3.51049 0.33688,-7.03821 0.4479,-10.58316l7.11478,-0.36176l-0.05743,2.41179c0.27946,-0.34454 0.58189,-0.66612 0.90729,-0.96472c0.32922,-0.30243 0.67951,-0.56083 1.05085,-0.77522c0.37134,-0.21821 0.76564,-0.39047 1.18292,-0.51681c0.41728,-0.12634 0.85752,-0.1895 1.32074,-0.1895c0.8537,0 1.60212,0.14164 2.24527,0.42493c0.64315,0.27946 1.19441,0.66037 1.6538,1.14273c0.46322,0.48236 0.84987,1.05277 1.15995,1.71123c0.31391,0.65846 0.56657,1.36093 0.75799,2.10744c0.19142,0.74268 0.33689,1.5179 0.43642,2.32565c0.09954,0.80775 0.16653,1.60403 0.20098,2.38882c0.03828,0.78479 0.05743,1.54469 0.05743,2.27971c0,0.73119 0,1.39922 0,2.00409zM341.12158,342.01167c0,0.91495 -0.10528,1.79735 -0.31583,2.64722c-0.21055,0.84987 -0.51489,1.64614 -0.91303,2.38882c-0.39431,0.74268 -0.87667,1.4241 -1.44708,2.04428c-0.56658,0.61634 -1.20398,1.14656 -1.9122,1.59063c-0.70823,0.44025 -1.47961,0.78479 -2.31417,1.03362c-0.83456,0.24501 -1.71888,0.36751 -2.65296,0.36751c-0.90346,0 -1.76481,-0.11484 -2.58406,-0.34454c-0.81925,-0.23352 -1.5868,-0.55893 -2.30268,-0.9762c-0.71205,-0.41728 -1.35711,-0.91877 -1.93517,-1.5045c-0.57807,-0.58955 -1.07,-1.24226 -1.47579,-1.95815c-0.40579,-0.71971 -0.72163,-1.49109 -0.94749,-2.31417c-0.22586,-0.82689 -0.33879,-1.68825 -0.33879,-2.58406c0,-0.87284 0.10527,-1.72845 0.31583,-2.56683c0.21055,-0.83838 0.51299,-1.62891 0.90729,-2.37159c0.39814,-0.7465 0.87858,-1.42985 1.44133,-2.05001c0.56275,-0.62401 1.19249,-1.16187 1.88924,-1.6136c0.70056,-0.45556 1.45664,-0.80775 2.26823,-1.05659c0.81541,-0.25266 1.67676,-0.37899 2.58405,-0.37899c1.45473,0 2.78313,0.22587 3.9852,0.6776c1.20206,0.45173 2.22611,1.0987 3.07216,1.94091c0.84987,0.83839 1.50832,1.85287 1.97537,3.04345c0.46704,1.19058 0.70056,2.51898 0.70056,3.98519zM334.43174,342.40215c0,-0.42876 -0.06316,-0.84604 -0.18949,-1.25184c-0.12634,-0.40962 -0.31009,-0.77139 -0.55127,-1.08531c-0.24118,-0.31775 -0.53978,-0.57423 -0.8958,-0.76947c-0.35602,-0.19906 -0.76564,-0.2986 -1.22886,-0.2986c-0.47087,0 -0.89198,0.08614 -1.26332,0.25841c-0.37134,0.16844 -0.69099,0.40197 -0.95898,0.70056c-0.26798,0.29477 -0.47279,0.64123 -0.61443,1.03937c-0.13782,0.39814 -0.20673,0.81733 -0.20673,1.25757c0,0.42111 0.05934,0.84413 0.17801,1.26906c0.12251,0.42111 0.30435,0.80202 0.54552,1.14273c0.24118,0.34071 0.53978,0.61826 0.8958,0.83264c0.35603,0.21055 0.77139,0.31583 1.24609,0.31583c0.47087,0 0.8939,-0.09188 1.26906,-0.27564c0.37899,-0.18759 0.69866,-0.44025 0.95898,-0.75799c0.26032,-0.31775 0.4613,-0.68142 0.60294,-1.09105c0.14164,-0.41345 0.21247,-0.84221 0.21247,-1.28629zM360.72238,345.9337c0,1.13315 -0.0134,2.25483 -0.0402,3.36502c-0.0268,1.11019 -0.06508,2.22803 -0.11484,3.35353l-8.68244,-0.1493c0.30243,-1.7763 0.56466,-3.55068 0.7867,-5.32315c0.22204,-1.7763 0.33306,-3.56984 0.33306,-5.38059c0,-0.13016 -0.00575,-0.34071 -0.01723,-0.63165c-0.01148,-0.29095 -0.03254,-0.62018 -0.06316,-0.98768c-0.0268,-0.36751 -0.06891,-0.7446 -0.12633,-1.13125c-0.05359,-0.38665 -0.12824,-0.74077 -0.22395,-1.06233c-0.0957,-0.32157 -0.21246,-0.5838 -0.35028,-0.7867c-0.13398,-0.20673 -0.29669,-0.31009 -0.48811,-0.31009c-0.34071,0 -0.62974,0.10145 -0.86709,0.30434c-0.23735,0.19907 -0.4345,0.45748 -0.59146,0.77522c-0.15313,0.31391 -0.27563,0.66803 -0.36751,1.06234c-0.08804,0.39048 -0.15504,0.78287 -0.20098,1.17718c-0.04594,0.39048 -0.07657,0.75991 -0.09188,1.10827c-0.01531,0.34454 -0.02296,0.62592 -0.02296,0.84413c-0.04976,1.78013 -0.08997,3.54686 -0.12059,5.30019c-0.03062,1.75334 -0.07083,3.52389 -0.12059,5.31167l-7.68327,0.33306c0.19907,-3.54495 0.39048,-7.07075 0.57424,-10.57741c0.18759,-3.51049 0.33688,-7.03821 0.4479,-10.58316l7.11478,-0.36176l-0.05743,2.41179c0.27946,-0.34454 0.58189,-0.66612 0.90729,-0.96472c0.32923,-0.30243 0.67951,-0.56083 1.05085,-0.77522c0.37134,-0.21821 0.76564,-0.39047 1.18292,-0.51681c0.41728,-0.12634 0.85752,-0.1895 1.32074,-0.1895c0.8537,0 1.60212,0.14164 2.24527,0.42493c0.64315,0.27946 1.19441,0.66037 1.65379,1.14273c0.46322,0.48236 0.84987,1.05277 1.15996,1.71123c0.31391,0.65846 0.56657,1.36093 0.75799,2.10744c0.19142,0.74268 0.33689,1.5179 0.43642,2.32565c0.09954,0.80775 0.16653,1.60403 0.20099,2.38882c0.03828,0.78479 0.05742,1.54469 0.05742,2.27971c0,0.73119 0,1.39922 0,2.00409zM377.58982,345.84182c0,1.37816 -0.23927,2.56683 -0.7178,3.566c-0.47853,0.99917 -1.13315,1.82415 -1.96389,2.47495c-0.82689,0.64697 -1.79544,1.12358 -2.90563,1.42985c-1.11019,0.30626 -2.30268,0.45938 -3.57749,0.45938c-0.49384,0 -1.03554,-0.06699 -1.62509,-0.20098c-0.58572,-0.13016 -1.18101,-0.29287 -1.78587,-0.4881c-0.60103,-0.19524 -1.18102,-0.40579 -1.73994,-0.63166c-0.55892,-0.22586 -1.05276,-0.44025 -1.48153,-0.64315l0.66037,-5.90888c0.8537,0.51298 1.80118,0.90346 2.84247,1.17144c1.04128,0.26415 2.06342,0.39622 3.06642,0.39622c0.19142,0 0.42303,-0.00574 0.69483,-0.01723c0.2718,-0.01531 0.53021,-0.06126 0.77522,-0.13782c0.245,-0.07656 0.45365,-0.18949 0.62591,-0.3388c0.17228,-0.15312 0.25841,-0.36942 0.25841,-0.64888c0,-0.19142 -0.06125,-0.35411 -0.18376,-0.48811c-0.11867,-0.13782 -0.27371,-0.24883 -0.46513,-0.33306c-0.19142,-0.08422 -0.40771,-0.14929 -0.64889,-0.19523c-0.24118,-0.04594 -0.47853,-0.07848 -0.71205,-0.09762c-0.22969,-0.02296 -0.44598,-0.03446 -0.64888,-0.03446c-0.19907,0 -0.35794,0 -0.47662,0c-0.86518,0 -1.65188,-0.13398 -2.36011,-0.40196c-0.70823,-0.27181 -1.31692,-0.65654 -1.82607,-1.15421c-0.50532,-0.49767 -0.89964,-1.10062 -1.18292,-1.80885c-0.27946,-0.70822 -0.41919,-1.49493 -0.41919,-2.36011c0,-1.18675 0.23735,-2.24909 0.71205,-3.187c0.47853,-0.94174 1.11594,-1.74185 1.9122,-2.40031c0.80011,-0.65846 1.71697,-1.16187 2.75059,-1.51024c1.03745,-0.3522 2.10936,-0.5283 3.21572,-0.5283c0.49001,0 0.99534,0.01723 1.51598,0.05169c0.52446,0.03445 1.04511,0.09762 1.56192,0.18949c0.52064,0.08805 1.02597,0.2029 1.51598,0.34454c0.49384,0.14164 0.9628,0.31775 1.40688,0.5283l-0.57424,6.12135c-0.68525,-0.23352 -1.40305,-0.42685 -2.15338,-0.57998c-0.74651,-0.15696 -1.47579,-0.23543 -2.18784,-0.23543c-0.13016,0 -0.2986,0.00383 -0.50532,0.01148c-0.20673,0.00383 -0.42302,0.01914 -0.64889,0.04594c-0.22586,0.02296 -0.45556,0.05934 -0.68908,0.1091c-0.22969,0.04976 -0.4345,0.11867 -0.61443,0.20672c-0.17993,0.08422 -0.3254,0.19716 -0.43642,0.3388c-0.11102,0.13782 -0.16079,0.30243 -0.1493,0.49385c0.00765,0.22204 0.08997,0.3943 0.24693,0.51681c0.15696,0.11867 0.35794,0.20673 0.60294,0.26415c0.245,0.0536 0.5149,0.08039 0.80967,0.08039c0.2986,0 0.59338,-0.00765 0.88433,-0.02296c0.29094,-0.01532 0.56275,-0.03063 0.81541,-0.04594c0.25266,-0.01531 0.45939,-0.01914 0.62018,-0.01148c0.80393,0.0536 1.52747,0.22586 2.17061,0.51681c0.64315,0.29095 1.18675,0.67759 1.63083,1.15996c0.4479,0.48236 0.79053,1.0585 1.02788,1.72845c0.23735,0.66611 0.35602,1.40114 0.35602,2.20507zM384.38661,350.45293c0,0.44408 -0.08613,0.85753 -0.25841,1.24035c-0.16844,0.37899 -0.39622,0.71205 -0.68334,0.99917c-0.28712,0.28712 -0.62208,0.51489 -1.00491,0.68334c-0.38283,0.16461 -0.78862,0.24692 -1.21738,0.24692c-0.44408,0 -0.85752,-0.08231 -1.24035,-0.24692c-0.37899,-0.16844 -0.71205,-0.39622 -0.99917,-0.68334c-0.28712,-0.28712 -0.5149,-0.62017 -0.68335,-0.99917c-0.16462,-0.38282 -0.24692,-0.79627 -0.24692,-1.24035c0,-0.43259 0.0823,-0.84413 0.24692,-1.2346c0.16844,-0.39048 0.39622,-0.72928 0.68335,-1.01639c0.28712,-0.28712 0.62017,-0.5149 0.99917,-0.68334c0.38283,-0.17227 0.79627,-0.25841 1.24035,-0.25841c0.42876,0 0.83456,0.08614 1.21738,0.25841c0.38283,0.16844 0.71779,0.39622 1.00491,0.68334c0.28712,0.28712 0.5149,0.62591 0.68334,1.01639c0.17228,0.39048 0.25841,0.80201 0.25841,1.2346zM392.82787,350.45293c0,0.44408 -0.08614,0.85753 -0.25841,1.24035c-0.16844,0.37899 -0.39622,0.71205 -0.68334,0.99917c-0.28712,0.28712 -0.62208,0.51489 -1.00491,0.68334c-0.38283,0.16461 -0.78862,0.24692 -1.21738,0.24692c-0.44408,0 -0.85753,-0.08231 -1.24035,-0.24692c-0.37899,-0.16844 -0.71205,-0.39622 -0.99917,-0.68334c-0.28712,-0.28712 -0.51489,-0.62017 -0.68334,-0.99917c-0.16462,-0.38282 -0.24692,-0.79627 -0.24692,-1.24035c0,-0.43259 0.08231,-0.84413 0.24692,-1.2346c0.16844,-0.39048 0.39622,-0.72928 0.68334,-1.01639c0.28712,-0.28712 0.62017,-0.5149 0.99917,-0.68334c0.38283,-0.17227 0.79627,-0.25841 1.24035,-0.25841c0.42876,0 0.83456,0.08614 1.21738,0.25841c0.38283,0.16844 0.71779,0.39622 1.00491,0.68334c0.28712,0.28712 0.5149,0.62591 0.68334,1.01639c0.17228,0.39048 0.25841,0.80201 0.25841,1.2346zM401.26913,350.45293c0,0.44408 -0.08614,0.85753 -0.25841,1.24035c-0.16844,0.37899 -0.39622,0.71205 -0.68334,0.99917c-0.28712,0.28712 -0.62209,0.51489 -1.00492,0.68334c-0.38283,0.16461 -0.78861,0.24692 -1.21737,0.24692c-0.44408,0 -0.85753,-0.08231 -1.24035,-0.24692c-0.37899,-0.16844 -0.71205,-0.39622 -0.99917,-0.68334c-0.28712,-0.28712 -0.5149,-0.62017 -0.68334,-0.99917c-0.16462,-0.38282 -0.24693,-0.79627 -0.24693,-1.24035c0,-0.43259 0.08231,-0.84413 0.24693,-1.2346c0.16844,-0.39048 0.39622,-0.72928 0.68334,-1.01639c0.28712,-0.28712 0.62017,-0.5149 0.99917,-0.68334c0.38283,-0.17227 0.79627,-0.25841 1.24035,-0.25841c0.42876,0 0.83456,0.08614 1.21737,0.25841c0.38283,0.16844 0.7178,0.39622 1.00492,0.68334c0.28712,0.28712 0.51489,0.62591 0.68334,1.01639c0.17228,0.39048 0.25841,0.80201 0.25841,1.2346z" fill="#000000" stroke-width="1" stroke-linecap="square"/></g></g></svg>