<svg version="1.1" xmlns="http://www.w3.org/2000/svg" xmlns:xlink="http://www.w3.org/1999/xlink" width="91.76469" height="115.57315" viewBox="0,0,91.76469,115.57315"><defs><linearGradient x1="235.4407" y1="199.9763" x2="235.47553" y2="206.93113" gradientUnits="userSpaceOnUse" id="color-1"><stop offset="0" stop-color="#d7bba0"/><stop offset="1" stop-color="#edd5b9"/></linearGradient><linearGradient x1="243.79084" y1="200.72677" x2="243.82356" y2="207.26009" gradientUnits="userSpaceOnUse" id="color-2"><stop offset="0" stop-color="#d7bba0"/><stop offset="1" stop-color="#edd5b9"/></linearGradient><linearGradient x1="240.69606" y1="192.20656" x2="240.76678" y2="206.32701" gradientUnits="userSpaceOnUse" id="color-3"><stop offset="0" stop-color="#fffbf7"/><stop offset="1" stop-color="#e8e0be"/></linearGradient><linearGradient x1="265.54805" y1="171.94742" x2="277.10714" y2="169.56908" gradientUnits="userSpaceOnUse" id="color-4"><stop offset="0" stop-color="#4b3f2d"/><stop offset="1" stop-color="#5a4939"/></linearGradient><linearGradient x1="216.10531" y1="176.02212" x2="204.52294" y2="173.75968" gradientUnits="userSpaceOnUse" id="color-5"><stop offset="0" stop-color="#4b3f2d"/><stop offset="1" stop-color="#5a4939"/></linearGradient><linearGradient x1="238.82608" y1="123.21811" x2="239.00255" y2="158.45589" gradientUnits="userSpaceOnUse" id="color-6"><stop offset="0" stop-color="#5a4b39"/><stop offset="1" stop-color="#635849"/></linearGradient><linearGradient x1="202.29869" y1="130.63979" x2="202.3958" y2="150.03165" gradientUnits="userSpaceOnUse" id="color-7"><stop offset="0" stop-color="#fc3600"/><stop offset="1" stop-color="#fe3600"/></linearGradient><linearGradient x1="277.04092" y1="130.26547" x2="277.13804" y2="149.65732" gradientUnits="userSpaceOnUse" id="color-8"><stop offset="0" stop-color="#fc3600"/><stop offset="1" stop-color="#fe3600"/></linearGradient></defs><g transform="translate(-194.02824,-121.89968)"><g data-paper-data="{&quot;isPaintingLayer&quot;:true}" fill-rule="nonzero" stroke-linejoin="miter" stroke-miterlimit="10" stroke-dasharray="" stroke-dashoffset="0" style="mix-blend-mode: normal"><path d="M204.11296,160.58757c0,0 -8.78342,-10.11414 -9.49929,-18.47656c-0.927,-10.82838 5.99541,-16.52802 5.99541,-16.52802c0,0 6.42304,10.09569 10.06221,15.2898c3.63913,5.19419 8.58753,9.79796 8.58753,9.79796c0,0 -2.21721,6.00929 -5.4586,8.13157c-3.24144,2.12236 -9.68726,1.78517 -9.68726,1.78517z" fill="none" stroke="#2d584f" stroke-width="1" stroke-linecap="round"/><path d="M265.82202,158.54186c-3.26253,-2.08978 -5.53978,-8.0765 -5.53978,-8.0765c0,0 4.90204,-4.6531 8.48896,-9.88348c3.58696,-5.23034 9.90856,-15.38981 9.90856,-15.38981c0,0 6.97918,5.63002 6.16065,16.46714c-0.63211,8.36914 -9.3137,18.57078 -9.3137,18.57078c0,0 -6.44215,0.40165 -9.70465,-1.68805z" data-paper-data="{&quot;index&quot;:null}" fill="none" stroke="#2d584f" stroke-width="1" stroke-linecap="round"/><path d="M261.48386,211.02429l-11.73785,5.34304l-6.65208,-10.03165l-5.14721,-0.23898l-6.39478,9.9304l-11.39492,-7.1522l8.55244,-13.9435c0,0 6.76378,2.18013 11.52738,1.88773c4.76356,-0.29244 12.749,-2.10564 12.749,-2.10564z" data-paper-data="{&quot;index&quot;:null}" fill="#c81700" stroke="#2d584f" stroke-width="0.5" stroke-linecap="round"/><path d="M226.16157,210.6553l2.50693,-2.85883l-0.84847,3.58253l4.33536,2.11602l-0.5398,0.98806l-10.45388,-5.4862l0.56816,-1.1331z" data-paper-data="{&quot;index&quot;:null}" fill="#a70100" stroke="#000000" stroke-width="0" stroke-linecap="round"/><path d="M225.85546,188.88982l29.00422,-0.60416l-2.16539,16.3026l-11.70199,2.87703l-10.97217,-2.76347z" fill="#362c1b" stroke="#692206" stroke-width="0" stroke-linecap="butt"/><path d="M238.7969,201.85632l-0.19778,5.05917l-6.48081,-2.07512l0.64502,-4.85066" fill="url(#color-1)" stroke="#000000" stroke-width="0" stroke-linecap="round"/><path d="M247.27214,200.70933l-0.51025,5.06074l-6.41966,1.50745l0.51131,-4.84999" fill="url(#color-2)" stroke="#000000" stroke-width="0" stroke-linecap="round"/><path d="M228.7625,192.75321l0.01829,3.65183l11.71825,4.42172l11.67391,-4.05195l0.21797,-4.62685l0.72338,-0.00362l0.78645,6.52228l-13.41615,5.34336l-13.1367,-4.82163l0.21383,-5.45532z" fill="url(#color-3)" stroke="#000000" stroke-width="0" stroke-linecap="round"/><path d="M272.86382,148.2257c0,0 6.81645,1.84622 8.15213,3.19635c1.05653,1.06798 6.2303,13.27374 0.19792,15.23387c-3.74174,1.21581 -4.15205,-7.19801 -5.61398,-9.22957c-1.61479,-2.24392 -4.76485,-2.01988 -4.76485,-2.01988" fill="#5a4736" stroke="#2d584f" stroke-width="0.5" stroke-linecap="round"/><path d="M267.10806,181.57846l11.77292,11.93585c0,0 4.44983,6.97612 5.74229,12.47518c1.19971,5.10457 0.88139,13.25254 0.88139,13.25254l-8.1809,0.96173l-4.2991,-4.58873l-6.41955,0.28256l-3.10849,-7.38583l-3.9011,-4.56838l0.7168,-1.80672l-7.71462,-14.00367" fill="#f24300" stroke="#2d584f" stroke-width="0.5" stroke-linecap="round"/><path d="M265.0331,180.82317l10.1824,11.98553l-15.71405,5.19065l-7.61218,-12.21062" fill="#9a532f" stroke="#672f0c" stroke-width="0.5" stroke-linecap="round"/><path d="M259.37307,188.80925l1.29417,11.03382" data-paper-data="{&quot;index&quot;:null}" fill="none" stroke="#893b14" stroke-width="0.25" stroke-linecap="round"/><path d="M264.50266,198.44489l-1.09539,-11.37126" data-paper-data="{&quot;index&quot;:null}" fill="none" stroke="#893b14" stroke-width="0.25" stroke-linecap="round"/><path d="M264.44891,181.95095l5.93329,10.77492" data-paper-data="{&quot;index&quot;:null}" fill="none" stroke="#893b14" stroke-width="0.25" stroke-linecap="round"/><path d="M228.48056,189.55212l-6.01896,14.81181l0.92374,1.71017l-3.33835,4.99438l-2.2208,7.69944l-6.40835,0.47225l-3.73124,5.06125l-8.23721,0.00436c0,0 -1.27178,-8.05443 -0.67899,-13.2645c0.63857,-5.61271 4.23952,-13.06253 4.23952,-13.06253l10.2918,-13.23425" data-paper-data="{&quot;index&quot;:null}" fill="#f24300" stroke="#2d584f" stroke-width="0.5" stroke-linecap="round"/><path d="M228.90929,187.14093l-6.12756,13.01913l-16.21442,-3.31185l8.70644,-13.09707" data-paper-data="{&quot;index&quot;:null}" fill="#9a532f" stroke="#672f0c" stroke-width="0.5" stroke-linecap="round"/><path d="M221.84021,202.12777l-0.00883,-11.10941" data-paper-data="{&quot;index&quot;:null}" fill="none" stroke="#893b14" stroke-width="0.25" stroke-linecap="round"/><path d="M217.65214,197.53293l-0.24576,-11.42128" data-paper-data="{&quot;index&quot;:null}" fill="none" stroke="#893b14" stroke-width="0.25" stroke-linecap="round"/><path d="M215.98618,184.8027l-4.62862,11.39648" data-paper-data="{&quot;index&quot;:null}" fill="none" stroke="#893b14" stroke-width="0.25" stroke-linecap="round"/><path d="M203.29379,195.46741c3.65989,-5.22439 5.48864,-0.23044 12.09183,1.45856c3.17228,0.81138 9.03221,2.96121 9.03221,2.96121l-2.23449,4.05676c0,0 -0.95005,-0.33157 -7.55323,-2.02057c-6.60318,-1.68896 -12.89053,-4.23739 -11.33628,-6.45593z" data-paper-data="{&quot;index&quot;:null}" fill="#ee1100" stroke="#2d584f" stroke-width="0" stroke-linecap="butt"/><path d="M221.76363,205.21427c0,0 -6.88304,-0.78441 -10.13193,-1.76337c-3.24889,-0.97896 -7.88432,-3.66525 -7.88432,-3.66525" data-paper-data="{&quot;index&quot;:null}" fill="none" stroke="#f10e00" stroke-width="0.25" stroke-linecap="round"/><path d="M207.1764,223.53542l-4.23527,0.0782l4.17851,-2.55572l-1.22687,-7.91336l5.11789,5.37244z" data-paper-data="{&quot;index&quot;:null}" fill="#c40901" stroke="#2d584f" stroke-width="0" stroke-linecap="round"/><path d="M202.46948,165.49811c0,0 -2.52708,-24.40225 -0.02823,-27.58424c3.11182,-3.96257 8.03965,-14.73103 37.72687,-15.74471c23.93814,-0.53861 31.49189,10.23573 33.3277,14.1098c2.95053,5.76248 1.3206,24.61112 1.3206,24.61112c0,0 7.47513,-1.69158 9.21019,3.15615c1.73503,4.84781 0.67348,13.64631 -2.96238,18.48895c-2.63843,3.51423 -7.53842,1.65424 -7.53842,1.65424c0,0 -9.5479,10.28386 -31.49375,12.30146c-16.58898,1.52513 -32.00972,-7.2606 -32.00972,-7.2606c0,0 -4.18487,1.12641 -7.29885,-0.45531c-3.91769,-1.98991 -8.2037,-10.78957 -6.86323,-19.11116c0.53485,-3.32042 6.60922,-4.16586 6.60922,-4.16586z" fill="#5a4b39" stroke="#2d584f" stroke-width="0.5" stroke-linecap="round"/><path d="M274.03938,178.95201l1.35257,-12.60049c0,0 4.34319,-1.33348 4.96744,0.96194c0.62429,2.29538 0.32496,7.39031 -1.68755,11.09648c-2.01255,3.70617 -4.63242,0.54204 -4.63242,0.54204z" data-paper-data="{&quot;index&quot;:null}" fill="#3f3423" stroke="#9a3d0c" stroke-width="0" stroke-linecap="round"/><path d="M206.95899,183.21754c0,0 -2.33149,3.19669 -4.31719,-0.47609c-1.98575,-3.67274 -2.42526,-8.75655 -1.91864,-11.05764c0.50666,-2.30105 4.58042,-1.03065 4.58042,-1.03065l1.65534,12.5643z" data-paper-data="{&quot;index&quot;:null}" fill="#3f3423" stroke="#9a3d0c" stroke-width="0" stroke-linecap="round"/><path d="M268.50884,186.33743l3.7951,-12.69834l1.27017,-7.73524l0.71789,-10.01694c0,0 3.79035,7.33656 4.30583,11.26669c0.4332,3.30256 -1.41663,10.76052 -1.41663,10.76052c0,0 -1.78852,3.43041 -3.21547,4.67895c-1.50796,1.3194 -5.45693,3.74439 -5.45693,3.74439z" data-paper-data="{&quot;index&quot;:null}" fill="url(#color-4)" stroke="#000000" stroke-width="0" stroke-linecap="round"/><path d="M213.2888,190.44111c0,0 -3.97306,-2.38531 -5.49416,-3.68954c-1.43935,-1.23419 -3.26217,-4.64651 -3.26217,-4.64651c0,0 -1.92439,-7.43906 -1.5243,-10.74579c0.47613,-3.9351 4.19277,-11.30926 4.19277,-11.30926l0.81818,10.00925l1.34754,7.72213l3.92214,12.65969z" data-paper-data="{&quot;index&quot;:null}" fill="url(#color-5)" stroke="#000000" stroke-width="0" stroke-linecap="round"/><path d="M239.00255,158.45589c-19.43807,-0.10641 -23.12281,-8.39341 -26.58418,-17.48619c-1.96822,-5.17033 -1.83662,-9.64486 -1.83662,-9.64486c0,0 12.51493,-7.19526 28.24432,-8.10677c16.97291,-0.98356 27.7655,7.66809 27.7655,7.66809c0,0 0.01246,5.35357 -1.18128,9.81818c-2.51332,9.39985 -7.23443,17.85656 -26.4077,17.75159z" fill="url(#color-6)" stroke="none" stroke-width="0" stroke-linecap="butt"/><path d="M216.92918,218.20489l7.64159,-5.58426l-3.67695,11.08046l4.67552,13.77174l-9.56621,-8.11887l-10.36954,4.59855l4.06256,-11.3946l-4.2871,-12.03489zM216.60173,225.91481c1.61865,-0.362 2.63746,-1.96762 2.27542,-3.58631c-0.362,-1.61865 -1.96763,-2.63742 -3.58632,-2.27542c-1.61865,0.362 -2.63745,1.96758 -2.27542,3.58631c0.362,1.61865 1.96762,2.63746 3.58631,2.27542z" fill="#2d3440" stroke="#000000" stroke-width="0" stroke-linecap="round"/><path d="M205.62056,233.9628l7.15734,-6.8086l2.82593,2.05091" fill="#4c546b" stroke="#000000" stroke-width="0" stroke-linecap="round"/><path d="M225.38678,236.9598l-6.51183,-10.06439l1.98373,-3.12652" fill="#4c546b" stroke="#000000" stroke-width="0" stroke-linecap="round"/><path d="M224.26863,212.90604l-6.2397,5.97211l-1.02043,-1.03436" fill="#4c546b" stroke="#000000" stroke-width="0" stroke-linecap="round"/><path d="M205.59614,209.95989l6.26071,9.64716l-2.26844,2.55897" fill="#4c546b" stroke="#000000" stroke-width="0" stroke-linecap="round"/><path d="M259.8085,209.11011l0.57268,1.13083l-10.87351,5.52761l-0.54379,-0.98589l4.76851,-2.13295l-0.86283,-3.5791l2.51833,2.84879z" fill="#a70100" stroke="#000000" stroke-width="0" stroke-linecap="round"/><path d="M267.80359,198.79438c-6.35951,2.45175 -7.2641,2.89238 -7.2641,2.89238l-2.69484,-3.76667c0,0 5.5674,-2.82227 8.62256,-4.00008c6.35951,-2.45175 7.58996,-7.62571 11.83729,-2.86661c1.80365,2.02093 -4.1414,5.28923 -10.50087,7.74094z" fill="#ee1100" stroke="#2d584f" stroke-width="0" stroke-linecap="butt"/><path d="M278.3605,195.39503c0,0 -4.28835,3.21147 -7.4,4.56466c-3.11165,1.3533 -9.85518,2.9395 -9.85518,2.9395" fill="none" stroke="#f10e00" stroke-width="0.25" stroke-linecap="round"/><path d="M273.34414,214.84901l4.45252,-5.93564l-0.29024,8.00263l4.44937,2.04798l-4.21516,0.41909z" fill="#c40901" stroke="#2d584f" stroke-width="0" stroke-linecap="round"/><path d="M217.59976,215.8357l0.15201,2.5834l-5.9266,0.14407l-0.51999,-5.35868" fill="#f24300" stroke="#000000" stroke-width="0" stroke-linecap="round"/><path d="M203.43529,223.21821l-0.75183,-1.1837l-0.02413,-5.04677" fill="none" stroke="#a82206" stroke-width="0.25" stroke-linecap="round"/><path d="M207.66127,156.65787l0.49682,14.14874c0,0 -3.66599,-5.31656 -4.5827,-7.83884c-0.91671,-2.52228 -0.45617,-6.02511 -0.45617,-6.02511z" fill="#fc3800" stroke="#4c0200" stroke-width="0" stroke-linecap="round"/><path d="M276.88268,156.04911c0,0 0.48335,3.4981 -0.38482,6.02932c-0.86817,2.53122 -4.38715,7.88376 -4.38715,7.88376l0.34409,-14.15295z" data-paper-data="{&quot;index&quot;:null}" fill="#fc3800" stroke="#4c0200" stroke-width="0" stroke-linecap="round"/><path d="M208.65101,144.74925c0,0 8.71652,-7.99619 31.70804,-7.82193c22.20744,0.16827 31.47123,7.3491 31.47123,7.3491c0,0 2.158,36.15791 1.60482,39.4023c-0.81708,4.79209 -7.69274,9.71448 -10.36361,10.37367c-3.71358,0.91655 -42.82184,0.62124 -45.82121,0.22948c-4.85221,-0.63373 -9.48879,-5.69161 -10.28018,-10.42666c-0.6294,-3.76595 1.6808,-39.10597 1.6808,-39.10597z" fill="#f02000" stroke="#000000" stroke-width="0" stroke-linecap="round"/><path d="M228.58979,142.86161c0,0 6.38642,-3.79527 11.05787,-3.79084c4.67148,0.00443 10.5621,3.81139 10.5621,3.81139c0,0 -3.8954,3.95138 -5.58726,6.33043c-1.70938,2.40371 -4.61698,8.0186 -4.61698,8.0186c0,0 -3.60555,-6.40567 -5.59,-8.90362c-1.80344,-2.27008 -5.82572,-5.46591 -5.82572,-5.46591z" fill="#fd3700" stroke="#000000" stroke-width="0" stroke-linecap="round"/><path d="M219.6201,157.12209c-2.6839,-3.33901 -5.82944,-12.81171 -5.82944,-12.81171c0,0 13.4048,-1.229 18.09609,2.79201c4.69125,4.02101 6.56096,12.04267 2.30358,15.18789c-5.90383,4.3616 -11.55094,-1.41206 -14.57015,-5.16823z" fill="#fe3600" stroke="#000000" stroke-width="0" stroke-linecap="round"/><path d="M272.06675,164.06606c0,0 -1.32772,21.7199 -4.72459,24.65724c-1.93376,1.67217 -25.02271,0.78048 -25.02271,0.78048c0,0 -26.39101,0.58889 -28.30958,-1.43058c-1.32904,-1.39896 -5.49346,-24.21299 -5.49346,-24.21299c0,0 5.83704,11.22669 8.14753,13.22281c2.49988,2.15973 7.78605,2.55202 7.78605,2.55202l6.26631,-4.61742c0,0 7.26438,2.40568 9.97049,2.43962c2.70611,0.03394 8.63461,-2.66384 8.63461,-2.66384l7.88915,5.46373c0,0 4.93165,-0.59738 6.79161,-2.62442c2.7415,-2.9878 8.06469,-13.56665 8.06469,-13.56665z" fill="#f83900" stroke="#000000" stroke-width="0" stroke-linecap="round"/><path d="M259.89049,156.00321c-2.98144,3.78622 -8.57048,9.61615 -14.51765,5.3139c-4.28867,-3.10242 -2.4994,-11.14241 2.15134,-15.2102c4.65074,-4.06779 18.06721,-2.97312 18.06721,-2.97312c0,0 -3.05051,9.50374 -5.70082,12.86946z" data-paper-data="{&quot;index&quot;:null}" fill="#fe3600" stroke="#000000" stroke-width="0" stroke-linecap="round"/><path d="M262.36856,191.08446l-44.10016,0.37724c0,0 -6.82793,-3.79553 -3.79636,-8.58244c1.74018,-3.88138 7.47881,2.12236 26.75853,1.98692c13.67435,-0.09608 23.70456,-5.56126 26.41671,-1.47124c1.80833,2.16856 -5.27877,7.68952 -5.27877,7.68952z" fill="#4f1300" stroke="#000000" stroke-width="0" stroke-linecap="round"/><path d="M228.10179,189.00727c0.00949,1.89528 -2.0314,3.442 -4.55844,3.45466c-0.9587,0.0048 -3.53496,-0.07579 -5.15264,-1.40089c-2.64646,-2.16776 -2.61969,-6.023 -2.61969,-6.023c0,0 1.51544,1.42787 4.55261,1.57879c0.95958,0.04766 2.57862,-1.0153 3.18531,-1.01834c2.52704,-0.01265 4.58332,1.5135 4.59281,3.40882z" fill="#f7fef8" stroke="none" stroke-width="0" stroke-linecap="butt"/><path d="M256.08415,185.65326c0.60669,-0.00304 2.2363,1.04373 3.19535,0.98639c3.0355,-0.18134 4.86234,-1.84386 4.86234,-1.84386c0,0 -0.26031,4.07429 -2.885,6.26848c-1.60433,1.3412 -4.1797,1.44759 -5.13836,1.4524c-2.52704,0.01265 -4.58332,-1.51351 -4.59281,-3.40883c-0.00949,-1.89528 2.0314,-3.442 4.55844,-3.45465z" data-paper-data="{&quot;index&quot;:null}" fill="#f7fef8" stroke="none" stroke-width="0" stroke-linecap="butt"/><path d="M231.71019,174.22706c0.01718,3.42956 -3.11492,6.22551 -6.99575,6.24495c-3.88083,0.01944 -7.04077,-2.74504 -7.05795,-6.17456c-0.01718,-3.42956 3.11492,-6.22551 6.99575,-6.24495c3.88083,-0.01944 7.04077,2.74504 7.05795,6.17456z" fill="#fafefb" stroke="#4a0501" stroke-width="0.25" stroke-linecap="butt"/><path d="M262.97635,173.96155c0.01718,3.42956 -3.11492,6.22551 -6.99575,6.24495c-3.88083,0.01944 -7.04078,-2.74504 -7.05795,-6.17456c-0.01718,-3.42956 3.11492,-6.22555 6.99575,-6.24498c3.88083,-0.01944 7.04078,2.74503 7.05795,6.17459z" fill="#fafefb" stroke="#4a0501" stroke-width="0.25" stroke-linecap="butt"/><path d="M204.11296,160.58757c0,0 -8.78342,-10.11413 -9.49925,-18.47652c-0.927,-10.82838 5.9954,-16.52802 5.9954,-16.52802c0,0 6.42304,10.09572 10.06221,15.28983c3.63913,5.19419 8.58749,9.79792 8.58749,9.79792c0,0 -2.21721,6.0093 -5.4586,8.13158c-3.2414,2.12232 -9.68725,1.78517 -9.68725,1.78517z" fill="#f41c00" stroke="#000000" stroke-width="0" stroke-linecap="round"/><path d="M207.33994,140.3107c0.10443,5.35399 -2.18675,9.70715 -4.94414,9.72096c-2.75735,0.01381 -5.55376,-5.52663 -6.34949,-10.82216c-1.34738,-8.96631 4.92674,-13.19414 4.92674,-13.19414c0,0 2.29606,2.91825 4.18191,7.12468c0.95229,2.12409 2.11963,3.8203 2.18497,7.17063z" fill="url(#color-7)" stroke="none" stroke-width="0" stroke-linecap="butt"/><path d="M265.82206,158.54186c-3.2625,-2.08975 -5.53978,-8.0765 -5.53978,-8.0765c0,0 4.90204,-4.65307 8.48892,-9.88344c3.58696,-5.23034 9.90856,-15.38985 9.90856,-15.38985c0,0 6.97914,5.63001 6.16065,16.46714c-0.63211,8.36914 -9.3137,18.57074 -9.3137,18.57074c0,0 -6.44215,0.40166 -9.70465,-1.68805z" data-paper-data="{&quot;index&quot;:null}" fill="#f41c00" stroke="#000000" stroke-width="0" stroke-linecap="round"/><path d="M272.09675,139.98638c0.03178,-3.35081 1.18207,-5.05863 2.11304,-7.19215c1.84366,-4.22515 4.11034,-7.16622 4.11034,-7.16622c0,0 6.31615,4.16477 5.05865,13.14413c-0.74265,5.3032 -3.48339,10.8714 -6.24077,10.88521c-2.75735,0.01381 -5.09201,-4.31617 -5.04125,-9.67094z" data-paper-data="{&quot;index&quot;:null}" fill="url(#color-8)" stroke="none" stroke-width="0" stroke-linecap="butt"/><path d="M242.62848,179.89624c0.68746,-0.61141 2.38738,-1.41248 2.38738,-1.41248c0,0 -0.78104,1.03057 -0.77469,2.29692c0.00634,1.26635 -0.63382,2.29621 -1.4298,2.3002c-0.79601,0.00399 -0.59751,-2.81589 -0.18293,-3.1846z" data-paper-data="{&quot;index&quot;:null}" fill="#4d0700" stroke="none" stroke-width="0" stroke-linecap="butt"/><path d="M237.5568,183.23824c-0.79601,0.00399 -1.44642,-1.01941 -1.45277,-2.28576c-0.00634,-1.26635 -0.79767,-2.28905 -0.79767,-2.28905c0,0 1.70786,0.784 2.40141,1.3885c0.41825,0.36458 0.64499,3.18229 -0.15102,3.18627z" data-paper-data="{&quot;index&quot;:null}" fill="#4d0700" stroke="none" stroke-width="0" stroke-linecap="butt"/><path d="M212.20854,142.35287l-0.00004,0c0,0 17.31636,-1.7685 21.77988,5.65566c9.23484,15.36037 4.67479,19.73875 1.41595,21.22031c-2.32891,1.05872 -14.20306,-6.81173 -19.79187,-8.16436c-2.22478,-0.53847 -4.36934,1.30089 -4.4152,2.65878c-0.04123,1.21978 1.91416,1.94843 1.91416,1.94843" fill="none" stroke="#4c0200" stroke-width="0.4" stroke-linecap="round"/><path d="M267.30481,165.40023c0,0 1.94799,-0.74812 1.89454,-1.96751c-0.05946,-1.35736 -2.22233,-3.17511 -4.4416,-2.61439c-5.5749,1.40854 -17.3697,9.39752 -19.7091,8.36219c-3.27352,-1.4488 -7.87716,-5.78132 1.20332,-21.23342c4.38889,-7.46853 21.72214,-5.87353 21.72214,-5.87353l-0.00004,0" data-paper-data="{&quot;index&quot;:null}" fill="none" stroke="#4c0200" stroke-width="0.4" stroke-linecap="round"/><path d="M212.47385,143.00673c0,0 6.82953,3.94547 6.20545,9.40303c-0.64046,5.60139 -10.95957,9.358 -10.95957,9.358" fill="none" stroke="#4c0200" stroke-width="0.4" stroke-linecap="round"/><path d="M272.36157,161.83711c0,0 -9.30997,-4.05135 -10.00651,-9.64604c-0.67871,-5.45104 6.11095,-9.46472 6.11095,-9.46472" data-paper-data="{&quot;index&quot;:null}" fill="none" stroke="#4c0200" stroke-width="0.4" stroke-linecap="round"/><path d="M206.96706,168.45401c0,0 3.89271,2.27619 5.41278,8.09673c1.52007,5.82054 -2.95192,12.33157 -2.95192,12.33157" fill="none" stroke="#510600" stroke-width="0.25" stroke-linecap="round"/><path d="M271.22954,187.05199c0,0 -4.2651,-6.50363 -3.56728,-11.34165c0.69783,-4.83795 5.73647,-8.41211 5.73647,-8.41211" data-paper-data="{&quot;index&quot;:null}" fill="none" stroke="#510600" stroke-width="0.25" stroke-linecap="round"/><path d="M219.03511,194.59955c-2.92102,-0.48067 -5.39403,-1.67638 -5.39403,-1.67638l52.54024,-0.52521c0,0 -1.35128,1.4725 -3.14627,1.98119c-2.12454,0.60211 -42.59417,0.45171 -43.99995,0.22036z" fill="#a50c00" stroke="none" stroke-width="0" stroke-linecap="butt"/></g></g></svg>