<svg version="1.1" xmlns="http://www.w3.org/2000/svg" xmlns:xlink="http://www.w3.org/1999/xlink" width="137.73391" height="179.90308" viewBox="0,0,137.73391,179.90308"><defs><linearGradient x1="296.49728" y1="152.7918" x2="296.49728" y2="181.13151" gradientUnits="userSpaceOnUse" id="color-1"><stop offset="0" stop-color="#e44002"/><stop offset="1" stop-color="#f07914"/></linearGradient><linearGradient x1="281.03205" y1="192.1566" x2="281.03205" y2="209.58936" gradientUnits="userSpaceOnUse" id="color-2"><stop offset="0" stop-color="#e44002"/><stop offset="1" stop-color="#f07914"/></linearGradient><linearGradient x1="213.9741" y1="203.82435" x2="213.9741" y2="207.76627" gradientUnits="userSpaceOnUse" id="color-3"><stop offset="0" stop-color="#e44002"/><stop offset="1" stop-color="#f07914"/></linearGradient><linearGradient x1="236.09877" y1="158.08652" x2="236.09877" y2="193.82023" gradientUnits="userSpaceOnUse" id="color-4"><stop offset="0" stop-color="#fa8502"/><stop offset="1" stop-color="#e12a00"/></linearGradient><linearGradient x1="222.91499" y1="163.72221" x2="176.09432" y2="207.82308" gradientUnits="userSpaceOnUse" id="color-5"><stop offset="0" stop-color="#e44002"/><stop offset="1" stop-color="#f07914"/></linearGradient><linearGradient x1="227.82949" y1="233.47233" x2="201.193" y2="258.56152" gradientUnits="userSpaceOnUse" id="color-6"><stop offset="0" stop-color="#e44002"/><stop offset="1" stop-color="#f07914"/></linearGradient></defs><g transform="translate(-170.4335,-90.1745)"><g data-paper-data="{&quot;isPaintingLayer&quot;:true}" fill-rule="nonzero" stroke-linejoin="miter" stroke-miterlimit="10" stroke-dasharray="" stroke-dashoffset="0" style="mix-blend-mode: normal"><path d="M219.26271,152.70561l-0.78181,-10.55442v-21.89065l7.03628,-10.16352c0,0 1.43411,-4.03872 5.59966,-6.24586c2.07723,-1.10064 6.88959,-1.15842 8.44663,-1.20291c4.42777,-0.12651 13.31701,6.66696 13.31701,6.66696l9.38171,7.03628v33.61778l-6.25447,11.72713c0,0 -13.64601,12.06697 -19.79807,11.67006c-5.95988,-0.38451 -16.55605,-14.01549 -16.55605,-14.01549z" fill="#686669" stroke="#686669" stroke-width="3.5" stroke-linecap="round"/><path d="M204.01743,137.96702l1.17271,15.63618l-11.72713,11.72713l2.34543,10.16352h4.29995l2.34543,4.29995l-7.81809,-0.3909l-7.03628,-17.5907l8.9908,-9.38171l2.73633,-24.62698l8.5999,-11.72713z" fill="#4a4245" stroke="#4a4245" stroke-width="3.5" stroke-linecap="round"/><path d="M217.06272,128.44766l-0.50574,3.13071c0,0 0.90101,6.56049 1.08918,9.87232c0.1906,3.35448 0.04721,12.94566 0.04721,12.94566l-10.72715,-1.9083c0,0 -1.65028,-11.10079 -1.77231,-14.39548c-0.06263,-1.6909 1.09047,-4.01414 1.09047,-4.01414z" fill="#f88703" stroke="#ff9501" stroke-width="2" stroke-linecap="round"/><path d="M210.55764,111.24411l13.69199,-3.33548l-7.18692,14.98194v6.18773l-10.55106,4.77286z" fill="#fe6200" stroke="#fc670c" stroke-width="2" stroke-linecap="round"/><path d="M272.69518,139.35115l-0.68184,18.40961l-9.31844,-0.90912c0,0 -2.57635,0.44124 -2.51352,-0.66473c0.17652,-3.10678 3.64991,-19.33583 3.64991,-19.33583l-0.68183,-2.95463c0,0 0.70626,-0.97612 1.45146,-1.03784c1.17301,-0.09715 2.70269,0.77031 3.71206,1.34709c1.52062,0.86892 4.3822,5.14544 4.3822,5.14544z" data-paper-data="{&quot;index&quot;:null}" fill="#f88703" stroke="#ff9501" stroke-width="2" stroke-linecap="round"/><path d="M273.17939,137.37287l-8.90543,-5.50517c0,0 -1.17782,-2.86819 -1.08462,-4.02604c0.07071,-0.87842 1.59524,-2.31726 1.59524,-2.31726l-3.71029,-10.55931l8.07219,4.52604z" data-paper-data="{&quot;index&quot;:null}" fill="#fe6200" stroke="#fc670c" stroke-width="2" stroke-linecap="round"/><path d="M269.46522,119.0763l8.5999,11.72713l2.73633,24.62698l8.9908,9.38171l-7.03628,17.5907l-7.81809,0.3909l2.34543,-4.29995h4.29995l2.34543,-10.16352l-11.72713,-11.72713l1.17271,-15.63618z" data-paper-data="{&quot;index&quot;:null}" fill="#4a4245" stroke="#4a4245" stroke-width="3.5" stroke-linecap="round"/><path d="M194.50128,168.73505c-1.13261,-1.31037 0.09454,-2.57701 0.13452,-2.61762c0.3313,-0.74793 0.49426,-1.6556 1.16913,-2.07755c1.27982,-0.80017 2.96794,-1.75371 4.36862,-1.19127c1.11946,0.44952 0.83429,2.2654 1.18258,3.42037c0.52608,1.74455 1.6452,5.25128 0.85981,6.99574c-1.71846,3.81694 -3.04262,4.18679 -6.09206,1.41273c-1.5531,-1.41285 -1.64531,-3.84673 -1.62259,-5.9424zM194.63142,166.12731l-0.13346,0.2698c0.04801,-0.08659 0.09206,-0.17694 0.13346,-0.2698z" fill="#434341" stroke="none" stroke-width="0.5" stroke-linecap="butt"/><path d="M273.28621,174.5334c-0.2399,-0.37343 -0.48435,-0.79715 -0.73485,-1.26867c-0.40432,-0.76109 -0.06231,-1.72263 -0.07574,-2.58434c-0.051,-3.27045 -0.99076,-7.13743 3.92564,-7.40324c0.99072,-0.05356 1.7461,0.94787 2.57411,1.49447c3.39665,2.24224 4.47037,6.74147 2.43037,10.41932c-0.2694,0.48568 -0.53402,0.89785 -0.79848,1.24743c0.06212,0.19074 0.0957,0.39435 0.0957,0.60582c0,1.07945 -0.87507,1.95452 -1.95452,1.95452c-0.08265,0 -0.16411,-0.00513 -0.24407,-0.01509l-2.01729,-0.22414l0.0438,-0.39422l-0.04097,-0.01366c-0.06358,0.00068 -0.12782,0.00098 -0.19273,0.00096c-0.39532,0.21764 -0.93481,0.02392 -1.42361,-0.02521c-0.28659,-0.00588 -0.58546,-0.01047 -0.89799,-0.01047c0,0 -1.95452,0 -1.95452,-1.95452c0,-1.17175 0.70248,-1.64102 1.26515,-1.82897z" fill="#434341" stroke="none" stroke-width="0.5" stroke-linecap="butt"/><path d="M207.69544,151.77318c0.2296,-0.07496 4.28208,-0.12908 4.77607,-0.09124c1.0856,0.08318 2.27471,-0.09284 3.24053,0.4098c2.52111,1.31207 4.38423,6.56261 1.83817,8.90834c-0.76981,0.70923 -4.32569,0.43263 -5.51373,0.49516c-1.71697,0.09037 -4.25298,0.07763 -5.80313,0.92189c-1.24872,0.6801 -2.23959,1.75408 -3.39647,2.58078c0,0 -1.59046,1.13605 -2.7265,-0.45442c-0.77831,-1.08964 -0.27688,-1.96599 0.11609,-2.40985c-0.01685,-0.10322 -0.0256,-0.20917 -0.0256,-0.31714c0,-0.32827 0.08093,-0.63765 0.22393,-0.90926l0.87713,-1.75427c1.23615,-2.74951 3.26696,-6.35912 6.39352,-7.3798z" fill="#857f78" stroke="none" stroke-width="0.5" stroke-linecap="butt"/><path d="M262.63534,159.65148c0.00622,-0.00579 0.01245,-0.0115 0.01871,-0.01715c-0.4598,-0.06369 -1.00881,-0.162 -0.73229,-0.09558c0.24636,0.03018 0.48374,0.06793 0.71358,0.11272zM258.29274,160.8595c-0.36676,-0.52627 -0.6337,-1.07398 -0.58477,-1.68955c0.33537,-4.21957 5.10431,-3.54522 7.73909,-3.39601c2.89584,0.16399 7.56151,1.32877 9.24934,4.0548c1.036,1.67327 0.8386,3.69639 0.52543,5.49006c-0.34967,2.0027 -0.84914,4.72262 -3.51047,5.25632c-0.82029,0.1645 -3.6711,-1.98995 -4.55379,-2.62257c-2.49441,-1.78773 -5.00579,-3.04647 -8.04917,-3.52628c0,0 -1.92793,-0.32132 -1.60661,-2.24925c0.11401,-0.68407 0.43029,-1.08496 0.79095,-1.31751z" fill="#857f78" stroke="none" stroke-width="0.5" stroke-linecap="butt"/><path d="M286.21901,159.49108c-0.1427,-0.00946 -0.75217,-0.09028 -0.75217,-0.78056c0,-0.78181 0.78181,-0.78181 0.78181,-0.78181l0.3322,0.08254c2.39191,-1.14413 5.66224,-0.98139 8.3131,-1.64231c3.27541,-1.08806 7.05515,-4.32423 10.62577,-3.41944c0.3948,0.10004 1.89024,0.90048 2.10063,1.3011c0.12532,0.23865 0.09251,2.43953 0.09251,2.64169c0,2.75915 0.34172,5.53172 -2.20763,7.26729c-1.93985,0.97349 -2.56522,0.70916 -2.56522,2.73299c0,0.22966 -0.27166,1.6789 0.19921,1.77777c1.55542,0.32662 3.52107,0.228 3.18906,2.49287c-0.17767,1.21205 -1.46308,2.39623 -2.2018,3.27067c-0.07279,0.08617 -0.15972,0.21164 -0.25195,0.33536c0.20626,-0.02234 0.41735,-0.02776 0.55645,-0.02188c0.42674,0.01805 0.85202,0.06167 1.27802,0.0925c1.382,2.18443 0.00425,3.43497 -2.17387,4.16054c-1.77593,0.59159 -3.4665,1.53088 -5.34273,1.84606c-2.337,0.39259 -4.85114,0.23738 -7.22556,0.23738c-2.38899,0 -7.60709,0.68561 -4.97861,-3.14361c0.42016,-1.73703 1.47366,-2.72435 2.30744,-4.15993c0.52473,-0.90347 0.62205,-2.39928 0.82402,-3.41047c0.39317,-1.96854 1.39286,-4.78332 0.32766,-6.70271c-0.60568,-1.09137 -2.29721,-2.29428 -3.12735,-3.33181c0,0 -0.3372,-0.42151 -0.10099,-0.84424z" fill="url(#color-1)" stroke="none" stroke-width="0.5" stroke-linecap="butt"/><path d="M308.16742,157.57413c0,0.78181 -0.78181,0.78181 -0.78181,0.78181l-0.10493,-0.08254c-0.61644,0.30822 -1.21209,0.69195 -1.8072,1.0785c0.04359,-0.01257 0.08744,-0.02463 0.13155,-0.03617l0.87145,-0.02334c0,0 0.78181,0 0.78181,0.78181c0,0.78181 -0.78181,0.78181 -0.78181,0.78181l-0.49222,-0.02334c-1.79612,0.42189 -3.17781,1.88868 -4.93603,2.48109c-3.40187,1.14623 -6.86129,2.08574 -10.48129,2.08783c0,0 -0.78181,0 -0.78181,-0.78181c0,-0.78181 0.78181,-0.78181 0.78181,-0.78181c3.45548,0.00211 6.72313,-0.93291 9.97383,-2.0032c0.58638,-0.19307 1.12777,-0.47327 1.65482,-0.7806c-3.70989,1.20621 -8.04947,0.71095 -11.85593,0.71095c0,0 -0.78181,0 -0.78181,-0.78181c0,-0.78181 0.78181,-0.78181 0.78181,-0.78181c3.80324,0 8.34636,0.60005 11.96622,-0.84638c1.48208,-0.59221 2.82635,-1.75568 4.27552,-2.48027l0.80419,-0.08254c0,0 0.78181,0 0.78181,0.78181z" fill="#040201" stroke="none" stroke-width="0.5" stroke-linecap="butt"/><path d="M305.21279,170.52904c0,0.78181 -0.78181,0.78181 -0.78181,0.78181l-0.30123,-0.01518c-5.02419,0.98876 -10.54686,2.51525 -15.60831,2.51525c0,0 -0.78181,0 -0.78181,-0.78181c0,-0.78181 0.78181,-0.78181 0.78181,-0.78181c4.93302,0 10.40416,-1.48746 15.30165,-2.48489l0.60789,-0.01518c0,0 0.78181,0 0.78181,0.78181z" fill="#040201" stroke="none" stroke-width="0.5" stroke-linecap="butt"/><path d="M307.94014,174.84734c0,0.78181 -0.78181,0.78181 -0.78181,0.78181h-0.45455c-1.75626,-0.01265 -3.60457,0.58841 -5.35518,0.83678c-5.14421,0.72986 -10.13146,1.89514 -15.09402,3.44594c0,0 -0.74622,0.23319 -0.97942,-0.51302c-0.23319,-0.74622 0.51303,-0.97941 0.51303,-0.97941c5.04303,-1.57595 10.1129,-2.75989 15.34077,-3.50161c1.8383,-0.26082 3.72856,-0.84152 5.57482,-0.85228h0.45455c0,0 0.78181,0 0.78181,0.78181z" fill="#040201" stroke="none" stroke-width="0.5" stroke-linecap="butt"/><path d="M212.61023,189.26519l11.36395,5.4547v6.59109l-18.63689,0.68184z" fill="#746d6d" stroke="#746d6d" stroke-width="2" stroke-linecap="round"/><path d="M259.42972,193.12893l4.31831,-3.86374l7.27293,9.09116l-3.63647,3.86375h-10.22756l-4.77286,-7.72749z" fill="#746d6d" stroke="#746d6d" stroke-width="2" stroke-linecap="round"/><path d="M223.02973,203.55773v6.13654l-17.95505,-2.04551l0.68183,-2.72735z" fill="#fe6104" stroke="#fe6104" stroke-width="2" stroke-linecap="round"/><path d="M223.02972,215.17851l1.36368,-5.22742l9.77299,1.59095v10.00028l-11.13667,-0.22728z" fill="#4e494b" stroke="#333032" stroke-width="2" stroke-linecap="round"/><path d="M252.16675,221.58762l-11.13667,0.22728v-10.00028l9.773,-1.59095l1.36368,5.22742z" data-paper-data="{&quot;index&quot;:null}" fill="#4e494b" stroke="#333032" stroke-width="2" stroke-linecap="round"/><path d="M204.25152,209.37738l17.95505,1.59096v12.27307h-6.13654l0.22728,7.50021l-18.40961,-7.27293z" fill="#17110f" stroke="#17110f" stroke-width="2" stroke-linecap="round"/><path d="M233.11596,204.41203h11.59123l8.63661,-4.31831l0.45456,7.04565l-8.6366,2.27279l-9.31844,0.90912l-10.45484,-1.81823v-5.90926z" fill="#ad6733" stroke="#ad6733" stroke-width="2" stroke-linecap="round"/><path d="M206.29703,186.68425l50.00141,24.31887h14.0913v9.09117l-2.04551,2.50007l-10.68212,-6.81837l-0.68183,-4.09103" fill="none" stroke="#665f56" stroke-width="4" stroke-linecap="round"/><path d="M266.98054,214.86687l-0.68183,3.18191l-4.77286,-4.3183h6.81837l-0.68184,7.27293l-9.773,-8.18205" fill="none" stroke="#665f56" stroke-width="4" stroke-linecap="round"/><path d="M277.43539,214.63959l-5.4547,5.4547l1.36368,-2.72736l-0.68183,-3.86374l6.81837,-1.81824l-1.1364,2.50007l-4.3183,4.77286v-8.6366l5.90926,-2.04551l1.36368,5.90926l-9.09117,7.27293" fill="none" stroke="#665f56" stroke-width="4" stroke-linecap="round"/><path d="M282.61685,193.21313l5.81092,-1.05653l-6.51528,13.20664l-8.27616,4.22612v-6.86745z" fill="url(#color-2)" stroke="#e53f17" stroke-width="4" stroke-linecap="round"/><path d="M282.85509,156.69828c1.01759,-1.18719 2.20477,-0.1696 2.20477,-0.1696l1.27743,1.09646c4.15646,4.16464 4.71883,10.31859 2.88785,15.89999c-0.88878,2.70928 -2.42553,5.22828 -2.38662,8.13879c0,0 -0.00001,1.53422 -1.51974,1.5632c-0.11961,2.07966 -1.67721,5.49641 -1.96502,6.31883c-0.62322,1.7808 -1.79413,2.8714 -2.51972,4.53952c-1.22336,2.81249 -3.42159,7.14283 -6.74708,7.15594l-0.16691,1.50217l-0.06571,-0.0073l0.04378,0.14689c-0.44559,1.50206 -0.72268,4.94494 -1.70838,6.10875c-0.09753,0.11516 -0.19505,0.22025 -0.29272,0.31616c0.4677,-0.00467 0.89563,0.06071 1.16938,0.39761c0.3872,0.47652 0.56099,1.05909 0.66293,1.67734l0.83368,-0.40976c0.98976,-0.61561 2.05374,-1.10317 3.08854,-1.63965c0.34813,-0.18049 0.62469,-0.63173 0.98122,-0.71537l1.36415,-1.19363l0.54143,0.61878l1.63005,-0.51028c-0.21314,0.5362 -0.37721,1.09819 -0.55941,1.65066l0.52323,0.52323l-1.23262,1.23262l-0.03452,-0.03452c-0.03154,0.05138 -0.06407,0.10224 -0.09769,0.15253c-0.29317,0.43859 -0.88741,0.81968 -1.56934,1.16459c-1.75787,1.43544 -3.62208,2.8319 -5.50402,4.03584c-0.19364,0.19625 -0.47157,0.35237 -0.87029,0.40471c-0.28531,0.05908 -0.64099,0.0619 -0.98372,-0.12783c-0.35278,-0.17034 -0.55576,-0.46241 -0.67222,-0.7295c-0.18746,-0.35591 -0.22038,-0.67308 -0.17182,-0.94454l-0.03234,-0.64581c0.06865,-2.36627 0.65457,-2.5374 -0.50237,-1.76097c0,0 -1.56362,0 -1.56362,-1.56362c0,-0.2283 0.03333,-0.42326 0.09027,-0.58977c-0.32681,0.00068 -0.66695,-0.00715 -1.02412,-0.00312c-2.99872,0.03386 -6.07534,0.16858 -9.06698,-0.00239c-1.38478,-0.07914 -3.23871,-0.31243 -4.31795,-1.29103c-1.46652,-1.32976 -1.41653,-3.74744 -1.29758,-5.8588c-0.31887,-0.29116 -0.5902,-0.76651 -0.38894,-1.49997c-0.21045,0.18756 -0.42954,0.36065 -0.65215,0.51696c-3.32938,2.07617 -7.39081,3.56632 -11.38068,2.26352c-0.71556,-0.23365 -1.43758,-0.64725 -2.16593,-1.08417c0.16841,0.33582 0.22493,0.78385 -0.05519,1.3441c-0.69927,1.39855 -2.09781,0.69927 -2.09781,0.69927l-0.34428,-0.22433c-1.22427,-0.27363 -3.44473,-0.66014 -5.31173,-1.22003c-1.0379,0.048 -2.06745,0.0291 -2.81555,-0.24858c-0.04163,-0.01545 -0.67071,-0.51038 -1.37882,-1.07317c-0.06699,0.13997 -0.14451,0.25953 -0.23418,0.35319c-0.05813,0.06072 -0.25515,0.13149 -0.53415,0.20684c0.07211,1.75139 0.1526,3.54306 -0.06441,5.2028c-0.12646,0.96718 0.13958,2.27968 -0.64935,2.85327c-0.46432,0.33759 -3.70778,-0.50755 -4.57646,-0.59162c-3.66631,-0.35479 -7.32641,-0.18559 -11.01871,-0.60216c-2.02648,-0.22863 -5.0757,-0.09014 -6.67132,-1.81531c-0.56626,-0.61223 -0.19033,-1.65701 -0.28549,-2.48552c0,0 0,-1.19664 1.04683,-1.49623c-0.3598,-0.20884 -0.69465,-0.59758 -0.69465,-1.32118c0,-1.56362 1.56362,-1.56362 1.56362,-1.56362c5.35581,0 11.87777,0.87864 17.03143,-0.47589c0.37309,-0.09806 0.748,-0.20429 1.12686,-0.28112v-0.84897c0,0 0.00001,-1.33429 1.23257,-1.53774c0.00005,-0.01568 0.00007,-0.03137 0.00005,-0.04706v-1.05653c0,0 0,-0.3615 0.17382,-0.73685c-2.16079,-1.45666 -4.30702,-2.94296 -6.58919,-4.20906c0,0 -0.24457,-0.13588 -0.46934,-0.39613c-0.16301,-0.06467 -0.32616,-0.1284 -0.48951,-0.19082c-0.53314,0.17655 -1.06539,-0.00088 -1.06539,-0.00088l-0.66885,-0.23062c-3.01519,-1.34405 -7.46503,-2.13883 -10.02419,-4.25597c-2.05315,-1.69853 -2.19083,-4.55146 -2.97426,-6.89156c0,0 -0.45598,-1.36795 0.82148,-1.91444c0.02592,-0.26877 0.05495,-0.53603 0.08588,-0.80237c-0.13257,0.10343 -0.29935,0.16506 -0.48052,0.16506c-0.43179,0 -0.78181,-0.35002 -0.78181,-0.78181v-0.05506c-0.3961,-0.42159 -0.5848,-1.17403 -0.79132,-1.72713c-0.5026,-1.3461 -0.37589,-3.60329 -0.01015,-5.44679c-0.05059,-0.10351 -0.07898,-0.21986 -0.07898,-0.34282v-0.78716c-0.24043,-0.70858 -0.72355,-1.72505 -1.08212,-2.74388c-0.23473,-0.16574 -0.44549,-0.35897 -0.61926,-0.57199c-0.07226,-0.45665 -0.13406,-0.91633 -0.17622,-1.37741l-0.38696,0.29023c-0.13173,0.10104 -0.29656,0.1611 -0.47541,0.1611c-0.43179,0 -0.78181,-0.35002 -0.78181,-0.78181c0,-0.17885 0.06006,-0.34367 0.16111,-0.4754l0.49157,-0.65543c0.10344,-0.20917 0.20687,-0.41834 0.31031,-0.62751c0,0 0.20093,-0.40188 0.60281,-0.44398c0.22107,-0.31186 0.48731,-0.61766 0.70363,-0.90809l0.59006,-0.38173l0.00108,-0.06246c0.00633,-0.42632 0.35389,-0.76996 0.78172,-0.76996c0.41205,0 0.74966,0.31877 0.77964,0.72317l0.13163,1.55052c0.03657,0.43089 0.07714,0.85123 0.11722,1.26368c0.18849,0.62944 0.32468,1.3223 0.42547,2.02339c0.32967,-0.06054 0.66432,-0.067 0.9745,0.09698c0.22668,-0.36735 0.49223,-0.73459 0.78741,-1.00592c0.13391,-0.3034 0.29054,-0.60329 0.47343,-0.89927l0.07516,-0.03668l-0.02407,-0.02285l0.57879,-0.60976c0.14252,-0.15077 0.34439,-0.24484 0.56823,-0.24484c0.43179,0 0.78181,0.35002 0.78181,0.78181c0,0.10891 -0.02227,0.21261 -0.06251,0.30681l-0.34559,0.86398l-0.29508,-0.11803l-0.05131,0.05405c-0.38581,0.61343 -0.62067,1.27604 -0.75886,1.96761c0.28072,0.22848 0.28072,0.62343 0.28072,0.62343v0.88044c0,3.29679 0.5367,7.50572 -0.35556,10.83439c0.00138,0.12018 0.0024,0.2402 0.00303,0.36009l0.1658,0.02764l-0.12699,0.76191c0.44642,1.4822 0.63161,4.34156 1.91498,5.30406c2.04181,1.53131 5.14815,2.29814 7.7627,3.22428c0.43889,-0.09505 0.83095,0.01188 0.83095,0.01188c2.85426,0.77934 5.62612,2.46719 8.52225,2.96851c4.75101,0.82239 9.68206,0.22666 14.4641,0.68186c3.42083,0.32563 6.58405,1.04892 10.05907,1.04892c1.23262,0 2.46524,0 3.69786,0l0.71875,-0.26135c2.10519,-1.69281 5.31969,-2.02241 7.6634,-2.96531c2.05913,-0.8284 3.68011,-2.63226 5.71002,-3.65181l-0.40033,-0.06262c0,0 0.35735,-0.89337 1.2122,-0.99818l0.02816,-0.16893c-0.18602,-0.25728 -0.29566,-0.57343 -0.29566,-0.91519c0,-0.1857 0.03237,-0.36384 0.09178,-0.52908l0.84375,-2.53125c0.44291,-2.64771 1.0576,-5.29038 0.73645,-8.0652c-0.13019,-1.12481 -1.38114,-2.53857 -2.05349,-3.44313l-0.62974,-0.47231c-0.19403,-0.14226 -0.32,-0.37187 -0.32,-0.6309c0,-0.3843 0.27728,-0.70384 0.64269,-0.76947l0.86624,-0.17325l0.02919,0.14596c1.0799,-0.32231 2.16985,-0.3352 3.32457,0.29129c0.53747,0.2916 1.39452,1.44492 2.2668,2.15108c0.44945,-0.20474 0.89739,-0.41311 1.30274,-1.05895c0.72503,-1.15519 0.65298,-3.00432 0.64692,-4.28452c0.00146,-1.23304 0.05123,-2.46876 0.18565,-3.69445l-0.00956,-0.00342c0,0 0,-1.56362 1.56362,-1.56362c1.56362,0 1.56362,1.56362 1.56362,1.56362l-0.00956,0.34876c-0.00707,0.0627 -0.01387,0.12543 -0.02042,0.18819c0.60873,0.24906 2.56673,1.35942 2.86591,1.52561c1.16733,1.70939 4.08473,6.20858 2.82601,8.47726c-0.93475,1.68477 -3.6719,2.53246 -5.22888,3.50742c-1.0771,0.67447 -2.62572,1.49718 -3.95301,2.4906c-0.00193,0.00602 -0.00388,0.01202 -0.00584,0.01801c1.01261,-0.02517 2.10128,0.05832 2.46862,0.85918c0.56305,1.22753 -0.90193,3.46054 -2.69655,4.8602c0.98226,-0.14753 1.95917,-0.30681 2.9227,-0.50359c1.37631,-0.2811 2.53949,-0.5199 3.71808,-0.50193c0.30272,-0.08894 0.61014,-0.17261 0.92298,-0.25033c0.65466,0.06462 1.4203,-0.10464 2.10302,-0.09914c0.10262,-3.20438 1.52062,-5.8687 2.53853,-8.86467c0.61135,-1.79939 0.6272,-3.97333 0.62574,-5.84963c-0.00116,-1.5047 0.27363,-2.97418 -0.50925,-4.3502c-0.47217,-0.82992 -1.49193,-1.76088 -2.15913,-2.42652l-1.18781,-1.0166c0,0 -1.18718,-1.01759 -0.1696,-2.20478zM205.78334,205.74049c-0.64849,1.55388 3.45015,1.11367 4.20245,1.1959c3.1247,0.34156 6.0583,0.58016 9.20146,0.58616c0.97783,0.00187 2.42396,-0.06494 3.46273,0.23509c-0.0088,-0.49163 0.08022,-0.9961 0.08022,-1.48889c0,-0.81196 0,-1.6239 0,-2.43586c-0.13534,0.02793 -0.24615,0.05258 -0.3242,0.07315c-5.25121,1.38364 -11.66403,0.64208 -17.18835,0.58414c0.56569,0.45641 0.56569,1.2503 0.56569,1.2503zM266.75231,203.85872c-3.03491,1.13999 -7.03226,0.96232 -10.44562,0.26608c-0.03888,1.18097 0.01866,2.31028 0.38963,2.57812c1.78702,1.29019 5.88862,0.46747 7.92177,0.46747c0.70715,0 1.41434,-0.00628 2.12149,-0.0069l0.00174,-0.0092c1.05805,-2.11046 2.38525,-3.73186 3.87417,-5.33301l0.00829,-0.02487c-1.24775,0.76324 -2.47,1.53589 -3.87146,2.06232zM264.21494,201.37603c2.10254,-0.32224 3.91596,-1.71508 5.71586,-2.8046c-0.22287,-0.44257 -0.45192,-0.88209 -0.79503,-1.21929c-1.6713,-1.64252 -3.34065,-3.16004 -4.85383,-4.93253c-0.26096,-0.12358 -0.51332,-0.35106 -0.71023,-0.74487c-0.05654,-0.11307 -0.09935,-0.22157 -0.13031,-0.32551c-0.02153,0.01467 -0.04314,0.02934 -0.06484,0.04398c-1.70091,1.14842 -3.5931,1.25992 -5.45549,1.93638c-1.0787,0.39181 -2.48034,0.58498 -3.26282,1.36517c-0.04876,0.06409 -0.10163,0.12217 -0.15641,0.17464c-0.077,0.09675 -0.14546,0.20149 -0.20408,0.31532c-0.15252,0.29619 0.38663,0.57231 0.42884,0.90277c0.10366,0.8115 0.10705,1.64323 0,2.45429c-0.05122,0.38804 -0.16713,0.76724 -0.33237,1.13067c0.15502,-0.04691 0.3335,-0.0739 0.53897,-0.0739c1.22096,0 1.48853,0.95338 1.54716,1.37125c2.48865,0.55165 5.36404,0.76952 7.73456,0.40621zM277.62747,164.18833c-0.00758,1.90979 -0.0564,4.23244 -1.11397,5.92861c-0.30436,0.48814 -0.84932,0.77282 -1.38047,1.0652c-0.07131,0.07535 -0.1518,0.13868 -0.24295,0.18651c-0.10579,0.05551 -0.20985,0.10241 -0.31226,0.1413c-0.3118,0.20757 -0.58074,0.4492 -0.74063,0.77979c-0.14307,0.29584 0.38069,0.56052 0.43526,0.88457c0.05965,0.35423 0.16903,1.07431 0.20032,1.85425c1.0304,-0.68111 2.07822,-1.28039 2.94008,-1.81987c1.23771,-0.77474 3.85762,-1.55454 4.63208,-2.83177c0.25017,-0.41258 0.00023,-0.97319 -0.10755,-1.44349c-0.4164,-1.81711 -1.34826,-3.66969 -2.34909,-5.22286c-0.34436,-0.17559 -1.20012,-0.86544 -1.92878,-1.11745c-0.02342,0.53147 -0.03273,1.06367 -0.03205,1.59521z" fill="#4a4245" stroke="none" stroke-width="0.5" stroke-linecap="butt"/><path d="M205.74425,205.74022c0,0 0.00043,-0.79939 -0.56526,-1.2558c5.52432,0.05794 12.01394,0.79672 17.26515,-0.58692c0.07805,-0.02057 0.18886,-0.04521 0.3242,-0.07315c0,0.81196 0.00089,1.63456 0.00089,2.44651c0,0.49279 -0.08993,1.00377 -0.08113,1.4954c-1.03877,-0.30003 -2.48592,-0.22955 -3.46375,-0.23142c-3.14316,-0.006 -6.15144,-0.24614 -9.27615,-0.5877c-0.7523,-0.08223 -4.85245,0.34696 -4.20396,-1.20692z" data-paper-data="{&quot;noHover&quot;:false,&quot;origItem&quot;:[&quot;Path&quot;,{&quot;applyMatrix&quot;:true,&quot;segments&quot;:[[[200.60596,215.46631],[0,0],[-0.82948,1.98754]],[[205.98125,216.99597],[-0.96225,-0.10518],[3.99676,0.43688]],[[217.7507,217.74572],[-4.02037,-0.00768],[1.25073,0.00239]],[[222.17982,218.04642],[-1.32867,-0.38376],[-0.01126,-0.62884]],[[222.28243,216.142],[0,0.63032],[0,-1.03856]],[[222.28243,213.02633],[0,1.03856],[-0.17311,0.03573]],[[221.86775,213.11989],[0.09983,-0.02631],[-6.71675,1.76979]],[[199.88239,213.86705],[7.06607,0.07411],[0.72357,0.58379]],[200.60596,215.46629]],&quot;closed&quot;:true,&quot;fillColor&quot;:[0,0,0,1]}]}" fill="url(#color-3)" stroke="none" stroke-width="0.5" stroke-linecap="butt"/><path d="M206.29247,158.08653h8.35458l19.49403,15.66485l20.02231,-11.48402h12.28395l1.68603,4.81723l-0.24086,14.93343l-2.89034,5.29896l-14.69257,6.50327l-36.61098,-5.0581l-9.39361,-5.0581l-0.24086,-20.71411z" fill="url(#color-4)" stroke="#f37b08" stroke-width="3.5" stroke-linecap="round"/><path d="M244.58432,98.56011l-0.69622,30.63348l-9.74701,-0.34811l3.82918,-36.5513z" fill="#fe6200" stroke="#fc670c" stroke-width="2" stroke-linecap="round"/><path d="M243.93705,128.74539v17.60009l-10.44323,-1.80513l0.34811,-15.34366z" fill="#f88703" stroke="#f88703" stroke-width="2" stroke-linecap="round"/><path d="M210.81788,108.9972l-5.91783,26.80429l2.78486,17.40538l-4.17729,3.13297l-15.31674,-37.94373z" fill="#4a4245" stroke="#4a4245" stroke-width="3.5" stroke-linecap="round"/><path d="M287.23531,115.5776l-11.05018,39.39826l-4.49656,-2.65448l0.85346,-17.60609l-8.83026,-25.99071z" data-paper-data="{&quot;index&quot;:null}" fill="#4a4245" stroke="#4a4245" stroke-width="3.5" stroke-linecap="round"/><path d="M283.9531,134.15109c0.8533,-0.3005 1.71911,-0.59547 2.59004,-0.87727c-0.97724,0.14603 -2.29679,0.37876 -2.56948,0.8412c-0.00705,0.01196 -0.0139,0.02399 -0.02056,0.03607zM280.68423,139.07896c-0.21645,0.18631 -0.43345,0.37198 -0.65104,0.55695c-0.40029,1.25306 -1.8535,1.25306 -1.8535,1.25306l-1.59936,-3.45603c1.21327,-1.01105 2.4459,-2.00117 3.72177,-2.93198c0.14607,-0.86091 -0.11267,-1.9052 0.43819,-2.58274c1.25223,-1.5402 3.59042,-1.69767 5.42334,-2.45971c1.79361,-0.7457 3.33872,-2.16174 5.24352,-2.54235c0.84743,-0.16933 1.75089,0.24278 2.59217,0.04513c0.63658,-0.14956 1.01561,-0.93712 1.66068,-1.04432c1.87322,-0.3113 6.95736,-0.53078 8.43856,1.73345c2.69916,4.12602 0.24865,4.91204 -2.41778,6.41817c-2.77034,1.56481 -4.64513,0.6629 -7.49017,1.21979c-4.00382,0.7837 -8.35397,2.29249 -12.19167,3.73562c0,0 -0.64625,0.24235 -1.3147,0.05498z" fill="#e44002" stroke="none" stroke-width="0.5" stroke-linecap="butt"/><path d="M285.6131,132.99662c0.60065,-0.21153 1.21012,-0.41916 1.82317,-0.61753c-0.68789,0.10278 -1.61675,0.26661 -1.8087,0.59213c-0.00496,0.00842 -0.00979,0.01688 -0.01447,0.02539zM283.31209,136.46544c-0.15237,0.13115 -0.30512,0.26184 -0.45828,0.39205c-0.28178,0.88205 -1.30471,0.88205 -1.30471,0.88205l-1.12582,-2.43275c0.85403,-0.7117 1.72172,-1.40866 2.61982,-2.06387c0.10282,-0.60601 -0.07931,-1.34111 0.30845,-1.81803c0.88147,-1.08417 2.52735,-1.19502 3.81758,-1.73143c1.26256,-0.52491 2.35019,-1.52168 3.69101,-1.7896c0.59653,-0.11919 1.23248,0.1709 1.82467,0.03176c0.4481,-0.10528 0.7149,-0.65965 1.16898,-0.73511c1.3186,-0.21913 4.8974,-0.37363 5.94005,1.2202c1.89998,2.90438 0.17503,3.45767 -1.70192,4.51785c-1.95009,1.1015 -3.26978,0.46662 -5.27246,0.85863c-2.81835,0.55166 -5.8805,1.61372 -8.58192,2.62957c0,0 -0.4549,0.17059 -0.92544,0.0387z" fill="#ffe927" stroke="none" stroke-width="0.5" stroke-linecap="butt"/><path d="M282.94405,126.88266c0.85329,-0.30051 1.71911,-0.59547 2.59004,-0.87727c-0.97723,0.14602 -2.29679,0.37876 -2.56948,0.8412c-0.00705,0.01195 -0.0139,0.02398 -0.02056,0.03607zM279.67519,131.81055c-0.21645,0.18631 -0.43346,0.37198 -0.65104,0.55695c-0.4003,1.25306 -1.8535,1.25306 -1.8535,1.25306l-1.59936,-3.45603c1.21327,-1.01105 2.4459,-2.00118 3.72177,-2.93198c0.14607,-0.86091 -0.11267,-1.9052 0.4382,-2.58274c1.25222,-1.5402 3.59042,-1.69767 5.42334,-2.45971c1.79362,-0.7457 3.33872,-2.16174 5.24352,-2.54234c0.84743,-0.16932 1.75089,0.24278 2.59217,0.04513c0.63659,-0.14956 1.0156,-0.93712 1.66067,-1.04432c1.87322,-0.3113 6.95736,-0.53078 8.43856,1.73344c2.69916,4.12603 0.24865,4.91204 -2.41779,6.41817c-2.77034,1.56481 -4.64513,0.6629 -7.49017,1.21979c-4.00382,0.7837 -8.35397,2.29249 -12.19167,3.73562c0,0 -0.64625,0.24235 -1.31471,0.05498z" fill="#e44002" stroke="none" stroke-width="0.5" stroke-linecap="butt"/><path d="M284.7531,125.87724c0.60065,-0.21153 1.21012,-0.41916 1.82317,-0.61753c-0.68789,0.10278 -1.61675,0.26661 -1.8087,0.59213c-0.00496,0.00842 -0.00979,0.01689 -0.01447,0.02539zM282.45208,129.34605c-0.15237,0.13114 -0.30512,0.26184 -0.45828,0.39204c-0.28177,0.88205 -1.30471,0.88205 -1.30471,0.88205l-1.12582,-2.43276c0.85403,-0.7117 1.72172,-1.40866 2.61982,-2.06387c0.10282,-0.60601 -0.07931,-1.34111 0.30845,-1.81803c0.88147,-1.08417 2.52735,-1.19502 3.81758,-1.73143c1.26255,-0.52491 2.35018,-1.52168 3.69101,-1.7896c0.59653,-0.11919 1.23248,0.1709 1.82467,0.03176c0.4481,-0.10528 0.7149,-0.65966 1.16898,-0.73511c1.3186,-0.21913 4.8974,-0.37362 5.94005,1.22021c1.89998,2.90438 0.17503,3.45767 -1.70192,4.51785c-1.95009,1.1015 -3.26978,0.46662 -5.27246,0.85863c-2.81835,0.55166 -5.8805,1.61372 -8.58192,2.62957c0,0 -0.4549,0.17059 -0.92544,0.0387z" fill="#ffe927" stroke="none" stroke-width="0.5" stroke-linecap="butt"/><path d="M285.0647,141.37305c0.85329,-0.30051 1.71911,-0.59547 2.59004,-0.87727c-0.97723,0.14602 -2.29679,0.37876 -2.56948,0.8412c-0.00705,0.01195 -0.0139,0.02398 -0.02056,0.03607zM281.79584,146.30092c-0.21645,0.18631 -0.43346,0.37198 -0.65104,0.55695c-0.4003,1.25306 -1.8535,1.25306 -1.8535,1.25306l-1.59936,-3.45603c1.21327,-1.01105 2.4459,-2.00117 3.72177,-2.93198c0.14607,-0.86091 -0.11267,-1.9052 0.4382,-2.58274c1.25222,-1.5402 3.59042,-1.69767 5.42334,-2.45971c1.79362,-0.7457 3.33872,-2.16174 5.24352,-2.54234c0.84743,-0.16932 1.75089,0.24278 2.59217,0.04513c0.63659,-0.14956 1.0156,-0.93712 1.66067,-1.04432c1.87322,-0.3113 6.95736,-0.53078 8.43856,1.73344c2.69916,4.12603 0.24865,4.91204 -2.41779,6.41817c-2.77034,1.56481 -4.64513,0.6629 -7.49017,1.21979c-4.00382,0.7837 -8.35397,2.29249 -12.19167,3.73562c0,0 -0.64625,0.24235 -1.31471,0.05498z" fill="#e44002" stroke="none" stroke-width="0.5" stroke-linecap="butt"/><path d="M286.72471,140.21857c0.60065,-0.21153 1.21012,-0.41916 1.82317,-0.61753c-0.68789,0.10278 -1.61675,0.26661 -1.8087,0.59213c-0.00496,0.00841 -0.00979,0.01688 -0.01447,0.02539zM284.4237,143.6874c-0.15237,0.13114 -0.30512,0.26184 -0.45828,0.39204c-0.28177,0.88205 -1.30471,0.88205 -1.30471,0.88205l-1.12582,-2.43276c0.85403,-0.7117 1.72172,-1.40866 2.61982,-2.06387c0.10282,-0.60601 -0.07931,-1.34111 0.30845,-1.81803c0.88147,-1.08417 2.52735,-1.19502 3.81758,-1.73143c1.26255,-0.52491 2.35018,-1.52168 3.69101,-1.7896c0.59653,-0.11919 1.23248,0.1709 1.82467,0.03176c0.4481,-0.10528 0.7149,-0.65966 1.16898,-0.73511c1.3186,-0.21913 4.8974,-0.37362 5.94005,1.22021c1.89998,2.90438 0.17503,3.45767 -1.70192,4.51785c-1.95009,1.1015 -3.26978,0.46663 -5.27246,0.85863c-2.81835,0.55166 -5.8805,1.61372 -8.58192,2.62957c0,0 -0.4549,0.17059 -0.92544,0.0387z" fill="#ffe927" stroke="none" stroke-width="0.5" stroke-linecap="butt"/><path d="M211.4946,185.10381l11.07964,-19.5098l6.26241,5.78068l-8.67102,14.69257l-1.68603,2.40862z" fill="#f8bc01" stroke="#f6be06" stroke-width="3.5" stroke-linecap="round"/><path d="M235.54121,190.27406l11.63723,-22.72634l11.07964,-3.85379l-12.04309,25.29049l-1.68603,2.40862z" fill="#f8bc01" stroke="#f6be06" stroke-width="3.5" stroke-linecap="round"/><path d="M256.25205,186.89689l5.6636,-12.03513l2.75797,-2.26544c0,0 1.34494,6.98553 0.73619,9.70792c-0.45204,2.02159 -4.06053,5.15901 -4.06053,5.15901l-0.99113,1.4159z" fill="#f8bc01" stroke="#f6be06" stroke-width="3.5" stroke-linecap="round"/><g><path d="M208.89411,159.44402l5.60587,-4.65578l-1.5137,12.97811l3.84985,11.04837l-12.8202,3.95763l-3.359,-0.58283l-8.33948,10.04062l-1.23499,3.66105l0.50801,4.5171l4.28439,1.89677l-1.59472,4.93655l-6.33699,2.22217l3.45923,7.98182l-5.95806,0.30412l-8.16306,-11.98131l0.16132,-10.7676l-5.61,-5.95598l30.31469,-29.80263z" fill="url(#color-5)" stroke="#bc590d" stroke-width="2" stroke-linecap="round"/><path d="M211.43207,176.72367c-2.19293,2.06555 -5.78465,1.81413 -8.02232,-0.56154c-2.23768,-2.37567 -2.27395,-5.976 -0.08101,-8.04155c2.19293,-2.06555 5.78466,-1.81414 8.02233,0.56153c2.23768,2.37567 2.27395,5.976 0.08101,8.04155z" fill="#000000" stroke="#424243" stroke-width="2" stroke-linecap="butt"/><path d="M189.22207,193.58457c-2.10156,1.97949 -5.47968,1.80645 -7.54521,-0.38648c-2.06555,-2.19293 -2.03635,-5.57535 0.06522,-7.55483c2.10156,-1.97949 5.47967,-1.80644 7.54521,0.38649c2.06555,2.19293 2.03635,5.57534 -0.06521,7.55482z" fill="#000000" stroke="#424243" stroke-width="2" stroke-linecap="butt"/><path d="M187.86627,212.03401c-1.18784,1.11884 -3.12754,0.98883 -4.33244,-0.29038c-1.2049,-1.27921 -1.21874,-3.22321 -0.0309,-4.34205c1.18784,-1.11884 3.12754,-0.98883 4.33244,0.29038c1.2049,1.27921 1.21874,3.22321 0.0309,4.34205z" fill="#000000" stroke="#424243" stroke-width="2" stroke-linecap="butt"/><path d="M216.52446,178.48383l6.2354,11.92365l5.52899,-2.08556l1.11212,5.82144l-33.48562,12.18248l1.22538,-3.33977l21.7178,-5.78165l1.108,-4.79033l-5.27157,-11.89482z" fill="#1f211f" stroke="#424243" stroke-width="2" stroke-linecap="round"/><path d="M209.80982,260.74867l-12.82433,-6.65415l-5.46036,-21.70819l1.88715,-3.96311l0.61166,-4.32283l6.55255,1.32148l3.74,3.97066l4.04754,-6.31021l10.79095,10.13052l-6.22166,-1.63315l-2.81255,2.64917l0.75241,7.09693l8.41501,8.93398l5.12122,0.79633l5.47133,-0.1579l-3.65557,-12.16803l6.05828,7.09487l8.63605,1.5446l2.86474,6.35621l0.01167,4.98461l-6.3157,6.8855l-9.04382,1.33729z" fill="url(#color-6)" stroke="#bc590d" stroke-width="2" stroke-linecap="round"/><path d="M201.28668,236.61751c-1.05078,0.98975 -2.56541,1.0884 -3.38303,0.22037c-0.81761,-0.86803 -0.6286,-2.37406 0.42219,-3.3638c1.05078,-0.98975 2.56541,-1.0884 3.38302,-0.22036c0.81761,0.86803 0.6286,2.37406 -0.42218,3.3638z" fill="#040200" stroke="#000000" stroke-width="2" stroke-linecap="butt"/><path d="M205.24431,249.43771c-1.23352,1.16187 -3.1405,1.14082 -4.25933,-0.04702c-1.11884,-1.18784 -1.02587,-3.09266 0.20766,-4.25453c1.23352,-1.16187 3.1405,-1.14082 4.25933,0.04702c1.11884,1.18784 1.02587,3.09266 -0.20766,4.25453z" fill="#040200" stroke="#000000" stroke-width="2" stroke-linecap="butt"/><path d="M241.22568,258.63356c-0.73098,0.68852 -1.95147,0.58002 -2.72606,-0.24232c-0.77458,-0.82235 -0.80992,-2.04714 -0.07895,-2.73567c0.73098,-0.68852 1.95147,-0.58002 2.72605,0.24233c0.77458,0.82235 0.80992,2.04714 0.07895,2.73566z" fill="#040200" stroke="#000000" stroke-width="2" stroke-linecap="butt"/><path d="M228.68448,188.95548l16.58085,53.07188l9.66167,10.25753l-6.61777,6.23334l-3.22238,0.22517l-2.36085,-12.45088l2.5105,-3.30133" fill="none" stroke="#665f56" stroke-width="4" stroke-linecap="round"/><path d="M249.77694,252.45238l-2.78371,1.68534l-0.12907,-6.43515l4.67501,4.96332l-5.7617,4.49034l-0.74485,-12.7241" fill="none" stroke="#665f56" stroke-width="4" stroke-linecap="round"/><path d="M200.50829,183.95293l-2.98765,2.92122l-10.10228,-12.7546l8.69169,-6.40635l1.72695,3.46378l0.71221,3.52231l3.30561,6.12164z" data-paper-data="{&quot;index&quot;:null}" fill="#fe6104" stroke="#fe6104" stroke-width="2" stroke-linecap="round"/></g><path d="M256.73505,198.53189c2.77986,-1.36606 6.5784,-1.23229 9.30324,-0.84382c1.08747,0.15503 2.42967,0.06803 3.17786,0.8723c0.81217,0.87305 0.75843,2.28376 0.86309,3.47158c0.2211,2.50925 -1.31496,5.57802 -2.49138,7.66288c-3.62197,6.41886 -10.36157,8.91341 -14.31236,15.03735c-0.21826,0.29541 -4.47313,6.12797 -4.81808,6.29767c-2.04065,1.00383 -6.28782,0.13241 -7.61205,-1.87326c-0.70308,-1.06489 -0.48751,-2.5267 -0.44606,-3.80207c0.0265,-0.81543 0.44513,-1.57006 0.64637,-2.36072c0.74142,-2.91302 1.08416,-6.10428 2.81099,-8.66014c1.278,-1.89154 3.26022,-3.17112 4.77981,-4.82398c2.21117,-2.4051 4.21545,-6.9104 5.27789,-9.934c0,0 0.65738,-1.84065 2.49804,-1.18328c0.11745,0.04194 0.22473,0.08871 0.32266,0.13951zM259.90511,201.67069c0.06315,-0.03583 0.12679,-0.07151 0.19091,-0.10705c-0.06619,0.00557 -0.13221,0.01185 -0.19795,0.0189z" fill="#746d6d" stroke="none" stroke-width="0.5" stroke-linecap="butt"/><path d="M246.82124,229.87331l7.39472,0.61904l-8.87254,3.01544l-8.27574,-5.19843l1.74184,-3.20023z" fill="#fe6104" stroke="#746d6d" stroke-width="2" stroke-linecap="round"/><path d="M214.42395,247.70885c0.45756,0.19411 1.61561,0.85777 1.02712,2.43705c-0.72521,1.94618 -2.65233,1.39048 -2.65233,1.39048l-3.4989,-1.70978c0.44153,-1.38012 0.55562,-2.88373 1.32456,-4.14035c0.01667,-0.02725 3.60719,-2.74711 3.96267,-3.01668c0,0 1.69319,-1.28382 2.86488,0.28086c1.17167,1.56468 -0.52152,2.84851 -0.52152,2.84851c-0.67491,0.51166 -1.58348,1.42529 -2.50647,1.90991z" fill="#60575a" stroke="none" stroke-width="0.5" stroke-linecap="butt"/><path d="M234.74125,222.35596l7.94997,9.79718l-37.72638,30.61328l-7.94997,-9.79718z" fill="#60575a" stroke="none" stroke-width="0" stroke-linecap="butt"/><path d="M206.1701,264.59173l-16.25733,3.11409l6.98237,-14.54413l7.12293,8.61721z" fill="#616161" stroke="#000000" stroke-width="3.5" stroke-linecap="round"/></g></g></svg>