<svg version="1.1" xmlns="http://www.w3.org/2000/svg" xmlns:xlink="http://www.w3.org/1999/xlink" width="107.85302" height="88.79554" viewBox="0,0,107.85302,88.79554"><g transform="translate(-185.70904,-135.75463)"><g data-paper-data="{&quot;isPaintingLayer&quot;:true}" fill-rule="nonzero" stroke="none" stroke-width="0.5" stroke-linecap="butt" stroke-linejoin="miter" stroke-miterlimit="10" stroke-dasharray="" stroke-dashoffset="0" style="mix-blend-mode: normal"><path d="M269.94402,171.97959c-0.11136,0.07676 -0.25412,0.1371 -0.43679,0.16958c-0.98456,0.17506 -1.15962,-0.8095 -1.15962,-0.8095l-0.13681,-0.81354c-0.92514,-2.98727 -3.34734,-7.16876 -3.31695,-10.02597c1.54554,-1.98556 3.1551,-4.06401 5.27792,-5.48212c1.1096,-0.74124 2.85485,-1.98681 4.32678,-0.83122c0.57754,0.45341 -0.35463,1.79716 0.26795,2.18638c0.78514,0.49085 1.90849,0.85653 2.15896,1.74797c0.1377,0.49009 -0.80534,1.18884 -0.15705,1.67001c0.65187,0.48383 1.73495,0.54985 2.06464,1.2917c0.45338,1.02015 -1.3869,2.51751 -0.58784,3.29708c0.18266,0.17821 0.56828,-0.2294 0.76289,-0.0643c0.06441,0.05464 0.12592,0.11202 0.18498,0.1717l0.02912,-0.03483l0.90729,0.75826c0.22894,0.18804 0.37241,0.47549 0.36557,0.79465c-0.01075,0.50182 -0.38937,0.90937 -0.8728,0.97062l-1.02363,0.14813c-2.61609,0.98793 -6.50475,1.90712 -8.04406,4.39505c0,0 -0.22334,0.3548 -0.61053,0.46032z" data-paper-data="{&quot;index&quot;:null}" fill="#9f4d1e"/><path d="M275.58126,201.23807c0.84206,0.64784 1.66401,4.63734 0.90727,5.65732c-0.81316,1.09603 -1.72542,-0.01749 -2.54831,0.72543c-0.75432,0.68102 -1.22258,1.19461 -2.11483,1.74442c-0.04936,0.06345 -0.0865,0.09903 -0.0865,0.09903l-0.49137,0.42195c-0.51574,0.21247 -0.99235,0.6945 -1.54721,0.63741c-1.34729,-0.1386 -6.59836,-0.62728 -7.14115,-2.08332c-0.04068,-0.10913 2.28916,-2.85891 2.27653,-2.94716c-0.28854,-2.0164 1.36233,-3.83116 1.91122,-5.65649c0.32616,-1.08465 0.11426,-1.9919 0.65887,-2.56538c-0.01505,-0.04578 -0.02994,-0.09208 -0.04467,-0.13891l-0.04989,-0.00107l0.02906,-1.35595c0.01183,-0.55216 0.46903,-0.99018 1.02119,-0.97835c0.55216,0.01183 0.99018,0.46903 0.97835,1.02119l-0.02061,0.96203c0.52914,1.63291 1.97786,1.29352 2.97206,1.71788c1.14875,0.49033 1.89886,1.66965 3.29001,2.73992z" data-paper-data="{&quot;index&quot;:null}" fill="#9f4d1e"/><path d="M278.36175,199.76942l-0.37223,-0.3697c-2.86303,0.50907 -6.52166,0.47793 -7.49568,-3.07494c-0.63026,-2.29896 1.22515,-4.91606 1.96682,-6.94987c0.90322,-2.47681 0.58023,-5.36925 0.13001,-7.90672c-0.38282,-3.20013 -3.11164,-6.91814 -1.72963,-10.16882c2.53196,-5.95553 10.8946,-6.5588 13.24018,-0.40022c1.2772,2.23589 3.07573,5.80594 2.29745,8.51674c-0.82167,2.86189 -4.89863,2.4502 -6.80973,3.79511c-1.30295,0.91694 0.34942,2.27668 1.15506,2.4975c0.72339,0.19826 1.44739,0.40871 2.13848,0.70023c2.55082,1.35151 3.50643,4.20492 3.00504,7.30901c-0.15316,0.94822 0.60233,2.5468 -0.09952,3.33765c-1.47299,1.6598 -4.87927,2.96399 -7.42627,2.71401z" data-paper-data="{&quot;index&quot;:null}" fill="#d48631"/><path d="M281.77613,166.05702c-0.35599,0.62272 -1.11253,0.41626 -1.11253,0.41626l-0.29764,-0.11217c-2.00937,-0.23089 -2.91457,-0.79568 -2.28425,-2.94734c-0.66667,-1.03838 -0.31659,-1.91063 -0.52163,-2.82065c-0.15272,-0.67781 -1.57479,-0.15256 -1.94952,-0.73765c-0.41777,-0.65229 0.49915,-1.61347 0.17539,-2.31716c-0.41806,-0.90865 -2.62363,-0.02401 -3.07972,-2.01469c-0.31488,-1.37434 1.11605,-3.04804 2.0371,-3.79888c2.53557,-2.06698 7.01777,-3.59696 9.97451,-1.85208c1.4923,1.55766 4.74108,6.70492 4.10378,8.99639c-0.5388,1.93731 -2.74691,1.75638 -3.50515,3.18229c-0.33158,0.62356 0.52011,1.44979 0.25299,2.10356c-0.53225,1.30266 -2.27203,1.71218 -3.79331,1.90211z" data-paper-data="{&quot;index&quot;:null}" fill="#d48631"/><path d="M270.39413,210.0725l0.26714,-0.19197c0.41597,-0.27651 -0.10644,-1.05886 0.14299,-1.49162c0.76593,-1.32894 1.43241,-0.72807 2.38826,-1.07089c0.39621,-0.14209 -0.64172,-0.66793 -0.63949,-1.08884c0.00331,-0.6252 0.31993,-1.23937 0.6876,-1.74505c0.25588,-0.35192 1.34303,-0.27994 1.12742,-0.65788c-0.06698,-0.1174 -0.13661,-0.23327 -0.20798,-0.34814l-0.12708,0.14199l-0.92689,-0.82958c-0.21264,-0.18804 -0.34426,-0.46488 -0.3377,-0.7709c0.01183,-0.55216 0.46903,-0.99018 1.02119,-0.97835c0.14772,0.00317 0.28728,0.0382 0.41223,0.09841l0.92032,0.41798c2.33192,1.06023 4.34022,2.66924 6.68307,3.66144c1.04821,0.44392 3.06059,1.04212 3.59015,2.17532c0.63825,1.36578 -0.48953,2.69153 -0.79351,3.94125c-0.02953,1.67972 0.86297,3.3878 0.06267,4.95739c-1.07572,2.10978 -4.23877,2.66472 -6.30749,2.15246c-3.57605,-0.88551 -5.96049,-4.49062 -8.77194,-6.59119c0,0 -0.8011,-0.59854 -0.20256,-1.39964c0.33196,-0.4443 0.72624,-0.45808 1.01159,-0.38221z" data-paper-data="{&quot;index&quot;:null}" fill="#d48631"/><path d="M209.33319,189.1083c-1.40877,-0.26602 -5.3197,-0.15313 -6.06826,-1.74302c-0.82462,-1.75146 1.07093,-2.19506 0.93479,-3.28803c-0.0671,-0.53864 -5.06124,-0.36835 -5.19913,-0.40699c-0.60808,-0.17039 -1.30428,-0.42644 -1.62823,-0.96852c-0.18905,-0.31634 0.46468,-0.64432 0.44448,-1.01229c-0.01009,-0.18385 -0.30202,0.27736 -0.4856,0.26327c-0.4503,-0.0346 -0.85676,-0.28879 -1.29448,-0.40004c-1.06277,-0.27011 -1.78537,-0.53389 -2.50593,-0.95786l-0.0474,0.1115l-0.90091,-0.38295c-0.37666,-0.14991 -0.6392,-0.5217 -0.63,-0.95084c0.00794,-0.37055 0.21647,-0.68972 0.51968,-0.85599l0.92637,-0.52917l0.01021,0.01787l0.04972,-0.04947c2.04575,-0.82211 3.85735,-2.28109 6.05503,-2.74541c0.52656,-0.11124 1.39293,0.26783 1.59813,-0.2297c0.08604,-0.20861 -0.00088,-0.67782 -0.06347,-1.12768c-0.06139,-0.44125 -1.66739,-1.04036 -1.49578,-1.18016c0.10981,-0.08945 5.16611,-0.70577 5.63238,-0.81475c2.59508,-0.60659 3.71693,0.58289 6.35055,0.60797c0.04208,-0.05213 0.07223,-0.08102 0.07223,-0.08102l0.38011,-0.36415c2.79333,-2.66792 3.58874,-6.83704 6.09386,-9.8391c2.14275,-2.55957 4.07959,-4.79498 6.85591,-6.74109c1.1387,-0.7982 3.38825,-1.42186 4.29709,-2.29684c0.63195,-0.6084 0.29309,-4.11594 0.49,-4.99364c0.60937,-2.71623 2.41187,-4.54642 4.34666,-6.39754c2.7933,-2.29387 7.08318,-5.2786 10.96342,-3.88293c0.93278,0.33551 1.36816,0.91085 2.01407,1.58153c3.97718,4.12972 0.16492,8.18059 -4.30771,9.37972c-0.93965,0.35366 -1.91152,0.55439 -2.75491,1.11879c-1.49808,1.00252 -3.352,4.39411 -1.09912,5.75038c3.03234,1.82553 6.0538,-2.11025 7.02125,-4.40753c0.66581,-1.46022 1.47404,-3.38389 2.88556,-4.29958c3.0899,-2.00449 8.79673,0.27976 11.21486,2.56384c2.65377,2.50666 14.24712,20.77324 11.23905,23.75779c-0.47035,0.15934 -1.50613,1.62644 -2.20618,1.28571c-4.9371,-2.40302 -14.33673,-17.17866 -17.5637,-17.80156c-1.44966,-0.27983 -3.98053,-0.2537 -4.37579,1.27492c-0.40458,1.56464 0.12592,4.05947 0.09015,5.72893c-0.12024,5.61151 0.77326,9.97323 4.45643,14.31157c1.12448,1.32451 3.06147,2.11407 4.36119,3.2624c0.50021,0.44195 1.41598,0.77905 1.38538,1.44583c-0.04644,1.01208 -1.77109,1.51823 -2.52894,1.80525c-1.76984,0.61334 -1.00497,3.38272 -2.14318,4.78699c-2.54705,3.14242 -5.94672,6.04842 -7.0717,9.46064c-0.7648,2.31976 -1.59873,3.85861 -0.73369,6.16647c0.41848,0.88595 1.25386,3.15435 2.1208,3.6878c2.0205,1.24328 7.20043,0.01092 9.46596,-0.11744c1.28435,-0.07277 5.64552,-2.28331 6.58636,-1.02989c0.84633,1.12752 -0.49397,6.75102 -1.00532,7.96133c-2.49931,3.9769 -10.00978,8.08957 -14.75137,5.76046c-2.07088,-1.01723 -3.14054,-3.49122 -3.42923,-5.68338c-0.16932,-1.28576 -0.56537,-2.36388 -0.80619,-2.11559c-4.31306,-0.80287 -7.42044,-0.51972 -11.84367,-0.96659c-2.04025,-0.20613 -4.25496,-0.92284 -6.23495,-1.47485c-2.05178,-0.57203 -3.43482,-1.39833 -5.16111,-2.48506c-2.34025,-2.41493 -4.34137,-5.64152 -5.69338,-8.77462c-1.40266,-3.25047 -1.7336,-7.67655 -3.9255,-10.47959c0,0 -0.01402,-0.01831 -0.03502,-0.05152c-0.29061,-0.05486 -0.58122,-0.10972 -0.87183,-0.16458z" data-paper-data="{&quot;index&quot;:null}" fill="#a25121"/><path d="M246.54006,197.19336c1.14972,-3.55775 3.34513,-6.79362 5.42118,-9.86007c0.68216,-1.00759 1.63748,-2.14882 2.68643,-2.75807c0.45817,-0.26612 0.63029,-0.08631 0.84503,-0.57069c0.11137,-0.2512 -1.93856,-1.94087 -2.16645,-2.13876c-5.9478,-6.19908 -11.09617,-14.04769 -7.90768,-22.96858c1.74132,-3.69964 4.90516,-3.01016 8.21642,-2.35213c5.76261,1.14518 10.69965,2.84642 12.78069,8.77522c0.93184,2.66805 1.53822,5.51773 2.51982,8.14698c0.46083,1.23437 1.50715,1.64542 1.76337,3.10573c0.6592,3.75692 -0.5718,8.59908 -0.65915,12.45928c0.19259,2.57278 -1.07879,3.71607 -1.64225,6.05434c-1.11687,4.63476 -1.87574,10.90193 -6.26531,13.77523c-1.41951,0.92918 -3.14473,1.05212 -4.76495,1.41734c-2.69458,0.24254 -6.20982,0.87422 -8.80056,-0.10066c-5.56997,-2.09592 -5.10371,-8.75711 -2.3806,-12.66641c0,0 0.12967,-0.18576 0.354,-0.31874z" data-paper-data="{&quot;index&quot;:null}" fill="#de8f31"/><path d="M283.65366,169.0151c2.76992,2.33716 4.00342,7.35301 2.69129,10.85319c-0.71204,1.8994 -2.70585,2.6201 -4.52055,2.96667c-0.48742,0.09309 -1.32039,0.26828 -1.96176,0.28452c0.52661,0.50734 1.06431,1.24467 0.88781,1.729c1.05265,0.21664 2.36126,0.54228 3.16885,1.03098c3.96588,2.39991 3.98991,10.43737 0.32598,12.8731c-1.41016,0.93745 -3.42362,1.01917 -5.03939,0.98797c0,0 -0.99977,-0.02142 -0.97835,-1.02119c0.02142,-0.99977 1.02119,-0.97835 1.02119,-0.97835c1.21402,0.02893 2.86672,0.03681 3.93159,-0.68131c2.36855,-1.59728 2.46818,-8.02296 -0.31197,-9.4786c-0.78294,-0.40994 -2.00793,-0.69003 -2.88694,-0.85445l-1.2407,-0.02659v0v0c-0.55216,-0.01183 -0.99018,-0.46903 -0.97835,-1.02119c0.00592,-0.27608 0.12318,-0.52362 0.30798,-0.70066l0.49263,-0.47196c-0.01674,-0.07659 -0.04936,-0.1493 -0.10153,-0.2162c-0.54955,-0.70463 -1.93437,-1.21522 -1.26649,-2.57951c0.57346,-1.17143 4.996,-0.76288 6.20575,-1.42879c3.00669,-1.65504 1.00514,-8.05088 -1.02961,-9.73197c-0.30479,-0.25473 -0.60958,-0.50947 -0.91437,-0.76419l-0.48134,-0.33142c0,0 -0.53677,-0.3747 -0.43855,-0.95205c-0.71177,0.05702 -1.39911,0.12863 -1.99447,0.27024c-2.30833,0.54908 -3.90493,1.76595 -5.79502,3.12124c0,0 -1.42217,1.01977 -2.44194,-0.40241c-1.01977,-1.42217 0.40241,-2.44194 0.40241,-2.44194c2.25876,-1.61963 4.25418,-3.01009 7.00888,-3.67811c1.81328,-0.43972 3.84837,-0.31175 5.60785,-0.75262c1.36708,-0.34255 1.4584,-2.89402 1.93859,-3.76722c0.57767,-1.05048 1.9395,-1.47727 2.61886,-2.46503c0.38792,-0.56403 -0.38746,-1.33413 -0.76228,-1.90694c-1.27092,-1.94225 -2.64388,-3.93496 -4.00365,-5.83813c-1.66304,-1.95183 -2.94832,-0.36171 -5.04504,0.52771c-4.12189,1.74851 -7.31129,4.73495 -10.31561,8.02133l-1.10517,1.40961c-0.32767,0.42739 -0.84755,0.6983 -1.42724,0.68588c-0.96628,-0.02071 -1.73281,-0.82081 -1.71211,-1.78709c0.00279,-0.12998 0.01968,-0.25635 0.04917,-0.37767l0.40416,-1.81741l0.19685,0.04378c-0.04186,-0.40134 -0.09477,-0.8011 -0.16797,-1.19801c-0.52377,-2.83973 -4.29347,-5.97943 -6.61851,-7.35526c-3.58393,-2.12076 -7.53929,-2.31115 -8.82537,1.26577c0.04903,2.05679 0.08882,4.23156 -1.91661,5.53787c-2.05924,1.34137 -8.5181,1.26755 -9.73116,-1.11026c-0.4667,-0.91481 -0.10724,-2.07925 0.13141,-3.07812c0.66249,-2.77277 2.7362,-3.55392 5.16448,-4.27445c0.9722,-0.28848 2.17135,-0.32377 2.99016,-0.88713c0.10882,-0.32646 0.32486,-0.71568 0.75338,-0.94529c0.91028,-1.987 1.74793,-5.9398 -1.19274,-6.04894c-4.6366,0.3191 -10.56636,2.54116 -13.14531,6.67243c-1.32638,2.12478 -0.81644,4.87491 -1.92405,7.04691c-1.22766,2.40743 -2.97285,2.43296 -4.95788,3.77875c-2.68003,1.81698 -4.63811,4.107 -6.93326,6.31379c-2.10741,2.23949 -2.14323,6.84219 -4.46483,8.63796c-2.00668,1.5522 -6.2409,0.94199 -8.57752,1.12227c-1.13647,0.08768 -4.24898,0.85325 -5.38721,0.9139c-0.21882,0.01166 1.29396,-0.68701 1.35776,-0.47736c0.22225,0.73037 1.52191,1.24347 1.21402,1.94206c-0.45734,1.03769 -1.88501,1.26531 -2.87295,1.82201c-1.64169,0.92509 -3.44007,1.76647 -5.21274,2.58441c1.6122,0.0671 3.19236,0.24129 4.22945,0.82619c0.53241,0.30026 0.49681,1.16861 0.96891,1.55685c0.67689,0.55666 3.79051,0.14304 4.58581,0.16008c0,0 0.41651,0.00893 0.83874,0.22129c0.45272,-0.11032 1.02502,-0.05598 1.58594,0.5295c1.21065,1.26367 -0.05302,2.4743 -0.05302,2.4743l-0.72438,0.53244c-0.31661,0.1255 -0.60878,0.29889 -0.89307,0.4882c1.96359,0.07078 4.33342,0.73991 5.91041,0.93181c0,0 1.15037,0.13999 1.46495,1.12824c0.4274,0.39535 0.56372,0.94098 0.56372,0.94098c1.10456,4.43001 2.17131,8.1122 3.92858,12.3059c0.79131,1.88848 1.85841,4.4018 3.47249,5.75284c2.92977,2.4523 7.6005,4.05727 11.25367,4.8869c3.21227,0.05743 6.48285,-0.33209 9.6932,0.01303c1.07814,0.1159 2.38904,0.59451 3.19388,1.32119c1.68391,1.52037 0.15187,4.28838 2.07883,6.11057c1.29116,1.22096 4.26486,1.07675 5.8316,0.68314c4.19887,-1.05487 6.78025,-2.46577 9.49016,-5.87863c1.01767,-2.19682 1.38335,-3.29875 0.699,-5.66957l-0.04308,-1.43464c0,0 0.03749,-1.7496 1.78709,-1.71211c0.58432,0.01252 0.96931,0.21601 1.22295,0.48151c0.06582,-0.24846 0.20423,-0.51117 0.44861,-0.77869c1.18034,-1.29202 2.47235,-0.11169 2.47235,-0.11169c3.64041,3.33809 7.06555,9.84052 12.16781,11.03002c4.32411,1.00808 2.51317,-3.10537 2.88682,-5.549c0.14888,-0.97373 1.36907,-1.94326 0.9062,-2.81278c-0.23635,-0.44401 -0.81789,-0.58572 -1.22683,-0.87857c-3.36737,-3.54248 -8.10009,-5.67952 -11.94907,-8.69217l-1.20879,-0.60522c0,0 -1.54812,-0.81597 -0.73214,-2.3641c0.81597,-1.54812 2.3641,-0.73214 2.3641,-0.73214l1.73635,0.9471c3.96807,3.11674 8.73458,5.31371 12.24468,8.95206c2.68386,2.82947 2.00912,3.28378 1.31674,6.76814c-0.22186,1.11651 0.62069,2.24564 0.50259,3.37784c-0.41934,4.02008 -4.00871,5.78043 -7.59414,5.00677c-6.0192,-1.29883 -9.52771,-8 -13.77496,-11.8639c0,0 -0.05009,-0.04576 -0.12155,-0.12914l-0.03253,0.16705c0.89789,3.35378 0.36878,5.36686 -1.09253,8.43946c-4.00745,5.16047 -14.34377,11.53803 -20.65785,5.94716c-0.96728,-0.8565 -2.00346,-2.84097 -2.31552,-4.08515c-0.17419,-0.6945 -0.24143,-1.42545 -0.18998,-2.13961c0.01989,-0.27603 0.63306,-0.58544 0.39667,-0.72934c-0.27995,-0.17041 -0.55754,0.39043 -0.88242,0.43366c-0.67642,0.09002 -1.36447,-0.02924 -2.04671,-0.04386c-2.67418,-0.0573 -5.32142,0.07095 -7.99093,0.0064c-4.27437,-0.9348 -9.68772,-2.77045 -13.09158,-5.68689c-5.29615,-4.53776 -6.84557,-12.9976 -8.42345,-19.41765c-2.18987,-0.20906 -4.50019,-0.24233 -6.61456,-0.61998c-1.12477,-0.20089 -2.83036,0.16116 -3.31447,-0.87379c-0.63774,-1.36337 -0.23863,-2.58535 0.58806,-3.60851c-0.98929,-0.08792 -1.93688,-0.30018 -2.70975,-0.78459c-0.47406,-0.29712 -0.38223,-1.12187 -0.82795,-1.46005c-0.81389,-0.61754 -2.0456,0.07875 -3.06494,0.00997c-0.50574,-0.03412 -3.38924,-0.39118 -3.99404,-0.46477l-1.83745,-0.2236c-0.89208,-0.09753 -1.577,-0.86292 -1.55741,-1.77702c0.01242,-0.57969 0.30535,-1.08749 0.74638,-1.39655l1.49589,-1.07262l0.24376,0.33995c1.49779,-1.28265 3.12249,-2.14774 5.28739,-3.17432c1.3796,-0.65419 2.71442,-1.49492 4.209,-1.80715c0.31729,-0.06629 1.00528,0.71229 0.88024,0.41323c-0.25329,-0.60579 -1.53659,-0.84337 -1.31912,-1.46293c0.42004,-1.19661 1.66175,-1.98048 2.75402,-2.62487c2.18837,-1.29104 5.87893,-0.59041 8.30055,-0.88721c0.961,-0.11778 2.08892,0.23078 2.88723,-0.31702c0.79119,-0.54291 0.46329,-1.86808 0.81466,-2.76099c0.84732,-2.15321 1.73274,-3.82101 3.27417,-5.54358c3.47229,-3.31375 6.65379,-5.69778 10.60407,-8.32269c0.81112,-0.53898 0.74066,-1.48135 0.91295,-2.30543c0.42487,-2.03219 0.71612,-4.09679 1.82259,-5.90221c3.23365,-5.2763 10.33561,-7.92507 16.2157,-8.33503c0.8648,0.13678 1.8196,0.00256 2.59439,0.41034c2.46595,1.29786 3.20355,4.50693 2.73536,7.50622c5.2856,-1.21616 12.28337,4.1763 15.1336,7.87595c0.51949,0.67431 1.38341,1.92478 1.91537,3.14352c2.7801,-2.77375 5.80632,-5.18073 9.48721,-6.7442c3.82282,-1.62375 5.78818,-2.81002 9.10384,0.4586c1.93518,2.69102 6.68224,7.88163 5.24701,11.45681c-0.46856,1.16722 -2.14577,1.50536 -2.70259,2.63314c-1.13699,2.3029 -0.97647,4.29048 -3.84271,5.41641c-0.49655,0.19506 -1.08272,0.31196 -1.70785,0.39233c0.28371,0.23711 0.56741,0.47421 0.85112,0.71133zM244.67979,152.20749l0.02836,-0.91817c0.0618,-0.47559 0.10205,-0.87171 0.14323,-1.22482c-2.10515,0.43282 -4.51249,0.69659 -4.77565,2.94846c-0.06841,0.58533 1.14661,-0.27995 1.72952,-0.3666c0.9614,-0.14292 1.98191,0.20036 2.92028,-0.02692c-0.04945,-0.23867 -0.04573,-0.41196 -0.04573,-0.41196z" data-paper-data="{&quot;index&quot;:null}" fill="#783b1a"/><path d="M270.548,195.08132c-0.954,0.25416 -2.0049,0.43506 -2.73633,-0.65412c-0.8799,-1.31026 0.11981,-2.80814 1.24491,-3.34376c1.35557,-0.64536 3.45166,0.20514 4.87992,-0.28109c0.7808,-0.26581 1.89062,-1.87139 2.91439,-1.17354c1.01343,0.6908 0.4356,2.71969 -0.10436,3.46643c-1.015,1.40372 -2.86648,1.43426 -4.55534,1.66102c-0.28145,0.17415 -0.60033,0.16732 -0.60033,0.16732l-0.21147,-0.03332c-0.20308,0.04204 -0.40096,0.09129 -0.59164,0.15093c0,0 -0.09745,0.03018 -0.23974,0.04014z" data-paper-data="{&quot;index&quot;:null}" fill="#98461d"/><path d="M271.79587,172.89336c0.18795,0.06774 0.38353,0.12544 0.58463,0.17613l0.21271,-0.02423c0,0 0.31889,0.00683 0.59261,0.19288c1.67758,0.2989 3.52606,0.40872 4.48001,1.85463c0.50747,0.76919 0.99786,2.82097 -0.04423,3.46772c-1.05272,0.65335 -2.09273,-0.9983 -2.86144,-1.29731c-1.40612,-0.54697 -3.53672,0.21296 -4.8634,-0.48987c-1.10113,-0.58333 -2.03575,-2.12265 -1.10053,-3.39402c0.56493,-0.76798 1.26967,-0.85869 1.97428,-0.73777c0.26503,0.04548 0.53003,0.12089 0.78756,0.20147c0.14173,0.01604 0.23781,0.05038 0.23781,0.05038z" data-paper-data="{&quot;index&quot;:null}" fill="#98461d"/><path d="M210.02067,177.14294c-0.13739,0.23024 -0.39101,0.44401 -0.85905,0.43398c-0.99977,-0.02142 -0.97835,-1.02119 -0.97835,-1.02119l0.65234,-1.10087c1.27525,-0.47364 2.46888,-0.97064 3.75032,-1.40126c0.10444,-0.28399 0.35332,-0.63001 0.94586,-0.61731c0.99977,0.02142 0.97835,1.02119 0.97835,1.02119l-0.01695,0.19473c0.01104,0.05613 0.01754,0.10971 0.02007,0.16084c0.56112,3.81691 2.17617,6.81163 1.4191,10.82221c0,0 -0.18549,0.98264 -1.16814,0.79715c-0.98264,-0.18549 -0.79715,-1.16814 -0.79715,-1.16814c0.63243,-3.35025 -0.58482,-6.03341 -1.24207,-9.14522c-0.91566,0.32185 -1.79035,0.67167 -2.70435,1.02388z" data-paper-data="{&quot;index&quot;:null}" fill="#843e18"/><path d="M271.85888,191.71475c-0.04772,0.25161 -0.18974,-0.15658 -0.5957,0.0072c-0.92737,0.37414 -1.18045,0.12765 -1.18045,0.12765l-0.44273,-1.15198c0.01624,-2.92762 0.34178,-5.74912 0.57353,-8.65485c0.11205,-1.40492 -0.14433,-3.49043 0.27065,-4.80795c0.52213,-1.65771 1.02496,-1.48604 2.45966,-2.03132c1.50571,0.02644 3.4805,0.19869 4.48079,1.57731c0.90596,1.24863 0.29648,3.45287 0.35611,4.87463c0.19371,4.61853 0.29414,10.66634 -5.92188,10.0593z" data-paper-data="{&quot;index&quot;:null}" fill="#de9a39"/><path d="M256.83156,176.74443c-0.10754,-0.07269 -0.17035,-0.13826 -0.17035,-0.13826l-0.19236,-0.20672c-2.20102,-2.76293 -4.21321,-5.66941 -5.69615,-8.88326c-0.29112,-2.58123 -0.14829,-6.15523 2.78403,-7.26646c2.84686,-1.07884 8.39695,1.06133 10.57438,2.96921c1.79697,1.57452 2.93318,4.15996 3.92904,6.26315c0.89129,2.22474 1.86922,6.15267 0.46163,8.38466c-1.4884,2.36014 -8.04417,2.81896 -10.17535,1.1764c-0.72667,-0.56007 -1.17172,-1.42884 -1.51486,-2.29874z" data-paper-data="{&quot;index&quot;:null}" fill="#fffeff"/><path d="M259.61116,192.35696c0.05162,-0.07041 0.09359,-0.11061 0.09359,-0.11061l0.75979,-0.55859c3.43607,-0.75941 6.83687,2.89658 3.43181,5.63717c-3.4307,2.76123 -6.42947,-1.46871 -4.57134,-4.6729c0,0 0.10074,-0.16784 0.28615,-0.29506z" data-paper-data="{&quot;index&quot;:null}" fill="#4d2813"/><path d="M260.5924,176.97472c-1.71917,-3.28085 1.45803,-7.37845 4.7673,-4.4728c3.28453,2.88394 -0.26975,6.39089 -3.67014,5.48498l-0.73517,-0.59063c0,0 -0.04021,-0.04197 -0.08877,-0.11452c-0.17979,-0.13504 -0.27324,-0.30704 -0.27324,-0.30704z" data-paper-data="{&quot;index&quot;:null}" fill="#4d2813"/><path d="M258.11768,188.87103c2.19959,-1.54976 8.72968,-0.81054 10.11561,1.6112c1.31069,2.29024 0.1654,6.17268 -0.82037,8.3572c-1.08503,2.0586 -2.33095,4.59299 -4.19372,6.0891c-2.25714,1.81285 -7.89384,3.71332 -10.69186,2.51352c-2.88203,-1.23582 -2.87163,-4.81265 -2.47021,-7.37904c1.61925,-3.14736 3.75409,-5.96499 6.07145,-8.6311l0.20103,-0.19828c0,0 0.06557,-0.06282 0.17612,-0.13084c0.3801,-0.8544 0.86195,-1.70333 1.61194,-2.23174z" data-paper-data="{&quot;index&quot;:null}" fill="#fffeff"/><path d="M251.01843,178.45153c-0.01676,0.01059 -0.03413,0.02103 -0.05211,0.03131c-0.81968,0.46822 -1.28791,-0.35145 -1.28791,-0.35145l-0.38005,-0.66576c-1.43534,-2.65063 -2.77523,-5.43292 -4.04492,-8.17479c1.46236,-1.94624 4.57969,-2.89589 6.89823,-1.32423c1.45502,0.98631 2.08541,3.37047 2.95532,4.79647c0.60244,0.98755 2.07716,1.89879 1.72632,3.31485c-0.52985,2.1386 -4.12916,2.05991 -5.81488,2.3736z" data-paper-data="{&quot;index&quot;:null}" fill="#713617"/><path d="M256.62399,191.33027c0.28986,1.42979 -1.22254,2.27702 -1.86673,3.23786c-0.9302,1.38744 -1.66213,3.74239 -3.15807,4.66548c-2.38374,1.47091 -5.45752,0.38858 -6.83518,-1.61851c1.38598,-2.68496 2.8438,-5.40731 4.39138,-7.99402l0.40822,-0.64887c0,0 0.50291,-0.79887 1.30178,-0.29596c0.01753,0.01104 0.03443,0.02221 0.05072,0.03351c1.67074,0.38561 5.27012,0.46118 5.70787,2.62051z" data-paper-data="{&quot;index&quot;:null}" fill="#713617"/><path d="M260.95266,191.36613c0.05163,-0.0704 0.09359,-0.11061 0.09359,-0.11061l0.75979,-0.55859c3.43606,-0.7594 6.83687,2.89658 3.43181,5.63716c-3.43071,2.76123 -6.42946,-1.46871 -4.57133,-4.6729c0,0 0.10074,-0.16784 0.28615,-0.29506z" data-paper-data="{&quot;index&quot;:null}" fill="#4d2813"/><path d="M285.03628,177.07938c-0.01071,0.49989 -0.5106,0.48917 -0.5106,0.48917c-0.66652,-0.01428 -1.49966,-0.03213 -2.16617,-0.04642c0,0 -0.49989,-0.01071 -0.48917,-0.5106c0.01071,-0.49989 0.5106,-0.48917 0.5106,-0.48917c0.66652,0.01428 1.33302,0.02856 1.99954,0.04285l0.16663,0.00357c0,0 0.49989,0.01071 0.48917,0.5106z" data-paper-data="{&quot;index&quot;:null}" fill="#a0531a"/><path d="M284.75302,174.73945c-0.01071,0.49989 -0.5106,0.48917 -0.5106,0.48917c-0.33325,-0.00714 -0.83314,-0.01785 -1.1664,-0.02499c0,0 -0.49989,-0.01071 -0.48917,-0.5106c0.01071,-0.49989 0.5106,-0.48917 0.5106,-0.48917c0.33325,0.00714 0.66652,0.01428 0.99977,0.02142l0.16663,0.00357c0,0 0.49989,0.01071 0.48917,0.5106z" data-paper-data="{&quot;index&quot;:null}" fill="#a0531a"/><path d="M283.79609,172.71848c-0.01071,0.49989 -0.5106,0.48917 -0.5106,0.48917c-0.16663,-0.00357 -0.49989,-0.01071 -0.66652,-0.01428c0,0 -0.49989,-0.01071 -0.48917,-0.5106c0.01071,-0.49989 0.5106,-0.48917 0.5106,-0.48917c0.16663,0.00357 0.33325,0.00714 0.49989,0.01071l0.16663,0.00357c0,0 0.49989,0.01071 0.48917,0.5106z" data-paper-data="{&quot;index&quot;:null}" fill="#a0531a"/><path d="M284.90656,190.91311c-0.01071,0.49989 -0.5106,0.48917 -0.5106,0.48917l-0.49989,-0.01071c-0.28434,-0.01046 -0.57416,0.03485 -0.84472,0.12294c0,0 -0.47762,0.14791 -0.62554,-0.32971c-0.14791,-0.47762 0.32971,-0.62554 0.32971,-0.62554c0.37502,-0.11178 0.77066,-0.1715 1.16196,-0.16748l0.49989,0.01071c0,0 0.49989,0.01071 0.48917,0.5106z" data-paper-data="{&quot;index&quot;:null}" fill="#a0531a"/><path d="M285.36717,192.75674c-0.01071,0.49989 -0.5106,0.48917 -0.5106,0.48917c-0.16663,-0.00357 -0.83314,-0.01785 -0.99977,-0.02142c0,0 -0.49989,-0.01071 -0.48917,-0.5106c0.01071,-0.49989 0.5106,-0.48917 0.5106,-0.48917c0.16663,0.00357 0.33325,0.00714 0.49989,0.01071l0.49989,0.01071c0,0 0.49989,0.01071 0.48917,0.5106z" data-paper-data="{&quot;index&quot;:null}" fill="#a0531a"/><path d="M284.14364,195.39779c-0.27608,-0.00592 -0.49509,-0.23452 -0.48917,-0.5106c0.00592,-0.27608 0.23452,-0.49509 0.5106,-0.48917c0.27608,0.00592 0.49509,0.23452 0.48917,0.5106c-0.00592,0.27608 -0.23452,0.49509 -0.5106,0.48917z" data-paper-data="{&quot;index&quot;:null}" fill="#a0531a"/><g data-paper-data="{&quot;index&quot;:null}"><path d="M266.36272,211.90964c0.08002,-0.0264 0.14785,-0.02495 0.14785,-0.02495l0.19744,0.00423c2.2069,0.04729 4.80434,0.24136 6.97654,-0.14488c3.17148,0.05651 6.2265,0.4278 9.41105,0.49604c1.41857,0.0304 2.81914,-0.04244 4.24709,-0.00776c0.33836,0.00822 1.19448,-0.06726 1.35944,0.4175c0.30563,0.89817 -2.46009,3.09953 -3.17799,3.27209c-3.12198,1.49284 -7.28965,0.96256 -10.49723,0.08628c-3.24053,-0.71987 -6.28602,-1.96698 -9.20047,-3.4885c0,0 -0.3494,-0.18417 -0.16525,-0.53357c0.18417,-0.3494 0.53357,-0.16525 0.53357,-0.16525c0.05592,0.02971 0.1119,0.0593 0.16794,0.08878z" fill="#080808"/><path d="M288.10699,211.73564c0.05866,-0.04546 0.14038,-0.07654 0.2542,-0.0741c0.39488,0.00846 0.38642,0.40334 0.38642,0.40334l-0.22797,0.44724c-0.8853,0.39788 -1.67865,0.10154 -2.59708,0.08186c-1.0693,-0.28435 -1.56278,0.46961 -2.6312,0.39462c-1.9432,-0.13639 -4.46521,-0.93506 -6.44485,-0.98416c-2.44506,0.5559 -5.7594,0.47214 -8.2548,0.41867c-0.89779,-0.01924 -1.50885,0.18589 -2.16946,-0.05106l-0.0836,0.15861l-0.38308,-0.20191c-0.13221,-0.06618 -0.22167,-0.20423 -0.21829,-0.36186c0.00338,-0.15763 0.09866,-0.29172 0.23359,-0.35218l0.39138,-0.18532c0.30153,-0.1425 0.6105,-0.26955 0.92268,-0.38693c3.78995,-1.52901 7.90735,-1.95492 12.00368,-1.84502c3.59335,-0.63894 6.30085,-0.01411 8.81838,2.5382z" fill="#636163"/><path d="M269.70993,210.31868c0.05955,0.05977 0.10385,0.14964 0.10095,0.28472c-0.00846,0.39488 -0.40334,0.38642 -0.40334,0.38642l-0.21856,-0.01235c-0.4884,0.08685 -0.94417,0.14398 -1.40436,0.33797c-0.31867,0.13433 -0.59509,0.36001 -0.91861,0.48224c-3.58675,1.35506 4.37323,0.68349 2.68205,2.98172c-0.77737,1.47488 -3.5729,3.09326 -5.30666,2.60769c-2.17957,-0.61042 -1.27757,-2.23695 0.11891,-2.87528c0.73434,-0.65334 -1.59018,-1.94637 -1.16812,-3.35087c0.42196,-1.40419 3.68424,-1.10713 1.42881,-2.29775c-0.9961,-0.65815 -1.0797,-1.87966 0.18882,-2.38628c2.26789,-0.90575 4.13093,2.0087 4.87288,3.552c0,0 0.06739,0.14232 0.02721,0.28977z" fill="#ffe900"/><path d="M288.73566,213.67604c-0.2123,-0.00014 -0.42576,0.02655 -0.63212,0.07515c-1.25129,0.21826 -2.64639,-0.89119 -1.40792,-2.07768c1.16991,-1.12082 4.82644,-0.19316 6.30648,0.98359l0.16039,-0.15366l0.28982,0.30251c0.06993,0.07299 0.11201,0.17266 0.10967,0.2817c-0.00467,0.21809 -0.18526,0.39109 -0.40334,0.38642l-0.35811,-0.00767c-1.34001,0.31408 -2.69484,0.24412 -4.06485,0.20965z" fill="#a5aaa5"/></g><path d="M225.69971,211.21729c-1.2014,-1.28513 -0.19346,-2.93097 -0.19346,-2.93097c8.37155,-13.63676 7.77404,-30.31102 0.59379,-44.20116c-0.9835,-1.41508 -3.69032,-4.83584 -2.92033,-6.58593c0.7084,-1.61009 2.84252,-2.16431 4.49734,-2.76081c0.98366,-0.35457 2.09129,-0.00331 3.13684,0.009c3.19589,0.03763 6.82984,-0.81576 9.47214,1.67574c3.43222,3.23633 2.3556,9.09665 2.6971,13.22006c0.88682,10.70815 2.43416,20.72848 0.52174,31.57289c-0.45914,4.56984 -1.87369,11.53959 -6.94315,13.32724c-2.42854,0.85638 -6.53155,-0.24944 -8.99514,-0.681z" fill="#009826"/><path d="M248.66964,213.63839c0.11855,-0.60049 0.76819,-0.81314 0.76819,-0.81314l0.91635,-0.28811c1.24548,-0.2195 2.37086,-0.32658 3.62622,-0.40165c1.17671,-0.07036 2.17071,-0.54488 3.26401,0.42173c1.67296,1.4791 1.20794,3.8549 -0.55555,5.02636c-3.16167,2.10024 -7.56955,0.65919 -8.26253,-2.99275c0,0 -0.09868,-0.5599 0.2433,-0.95245z" fill="#de8f31"/><path d="M250.94,153.29844c0.84877,-3.61891 5.31434,-4.86981 8.38314,-2.63606c1.7117,1.24592 2.07451,3.63948 0.33973,5.04555c-1.13371,0.91889 -2.10647,0.40223 -3.27908,0.28153c-1.25099,-0.12877 -2.37075,-0.28396 -3.60568,-0.55661l-0.90317,-0.32708c0,0 -0.63993,-0.24028 -0.73265,-0.84531c-0.32484,-0.40683 -0.20228,-0.962 -0.20228,-0.962z" data-paper-data="{&quot;index&quot;:null}" fill="#de8f31"/></g></g></svg>