<svg version="1.1" xmlns="http://www.w3.org/2000/svg" xmlns:xlink="http://www.w3.org/1999/xlink" width="105.96748" height="125.84624" viewBox="0,0,105.96748,125.84624"><g transform="translate(-187.01626,-117.07688)"><g data-paper-data="{&quot;isPaintingLayer&quot;:true}" fill-rule="nonzero" stroke="none" stroke-width="0.5" stroke-linecap="butt" stroke-linejoin="miter" stroke-miterlimit="10" stroke-dasharray="" stroke-dashoffset="0" style="mix-blend-mode: normal"><path d="M216.9277,227.91221l0.43725,-0.44857c-0.6399,-3.41267 -0.64372,-7.7813 3.58738,-8.98406c2.73782,-0.77829 5.88336,1.4077 8.31997,2.27044c2.96736,1.05066 6.41722,0.6326 9.44183,0.06661c3.81656,-0.49294 8.22517,-3.79273 12.12188,-2.17908c7.1391,2.95634 7.95309,12.93431 0.62623,15.80389c-2.65528,1.55 -6.89765,3.7374 -10.14298,2.83852c-3.42622,-0.94897 -2.98036,-5.82136 -4.60755,-8.08808c-1.1094,-1.54541 -2.71437,0.44272 -2.96898,1.4071c-0.22862,0.86593 -0.47177,1.7327 -0.81209,2.56112c-1.58506,3.06076 -4.98124,4.23369 -8.69306,3.66983c-1.13386,-0.17224 -3.03405,0.74771 -3.98617,-0.08141c-1.99826,-1.74011 -3.5936,-5.79247 -3.32367,-8.83631z" data-paper-data="{&quot;index&quot;:null}" fill="#e5b175"/><path d="M217.70998,227.43156l-1.24554,-0.54332c-4.79252,-3.43202 -10.35777,-3.62579 -15.74486,-5.75456c-1.33831,-0.52884 -4.44527,-1.41382 -4.16628,-3.64811c0.09882,-0.79136 4.60668,-2.17329 5.09729,-2.38946c4.02685,-1.77433 6.23796,-4.33726 8.69634,-7.85007c2.03988,-2.94988 4.62803,-2.6278 7.94709,-3.49048c3.97591,-1.03341 7.89285,-2.83554 11.23346,-5.25343c4.18121,-3.02632 8.70417,-5.92546 12.74236,-9.1586c0.76825,-0.61508 4.32882,-4.74894 5.62526,-4.35147c0.97281,0.29824 2.72816,4.54879 3.10249,5.36658c4.87185,8.53224 9.39437,16.8807 15.97525,24.24916c1.47695,1.65371 11.74006,-0.05104 12.1473,2.64922c0.09247,0.61307 -7.03803,5.44586 -7.28423,6.0714c-0.48834,1.24076 -3.47485,1.35167 -4.64763,1.5472c-4.49761,0.74987 -8.68472,2.2929 -13.24698,2.28936c-7.36732,0.61721 -14.58771,0.43247 -21.9844,0.7644c-4.49314,0.20163 -8.7688,0.55423 -13.27927,-0.00924c0,0 -0.57892,-0.07237 -0.96761,-0.48856z" fill="#1a7b07"/><path d="M250.01357,217.55026c-0.09291,-0.13209 -0.16654,-0.30186 -0.20738,-0.51963c-0.22005,-1.17357 0.95352,-1.39363 0.95352,-1.39363l0.96981,-0.17246c3.55635,-1.13807 8.52177,-4.07696 11.93353,-4.0727c2.38801,1.82308 4.88767,3.72154 6.60464,6.24024c0.89745,1.31653 2.40417,3.38633 1.04094,5.15673c-0.53487,0.69465 -2.14973,-0.40328 -2.60748,0.34443c-0.57726,0.94293 -1.00128,2.28827 -2.06284,2.59732c-0.58361,0.1699 -1.42846,-0.94824 -1.99569,-0.1688c-0.57037,0.78374 -0.63708,2.07765 -1.51912,2.4796c-1.21295,0.55276 -3.02136,-1.62771 -3.9432,-0.66491c-0.21073,0.22009 0.28026,0.67595 0.08532,0.91016c-0.06452,0.07752 -0.13235,0.15159 -0.20294,0.22278l0.04192,0.03438l-0.89517,1.09178c-0.22196,0.27545 -0.56355,0.44998 -0.9447,0.44538c-0.59928,-0.00722 -1.09013,-0.4547 -1.16867,-1.03123l-0.18833,-1.22053c-1.20888,-3.11247 -2.34993,-7.74511 -5.33771,-9.55511c0,0 -0.42612,-0.26268 -0.55644,-0.72379z" data-paper-data="{&quot;index&quot;:null}" fill="#eee3a5"/><path d="M215.14302,224.60884c-0.76407,1.01266 -5.5182,2.03873 -6.7445,1.14665c-1.31773,-0.9586 0.00154,-2.0603 -0.8947,-3.03446c-0.82157,-0.893 -1.44004,-1.44635 -2.10649,-2.50549c-0.07631,-0.05822 -0.1192,-0.10216 -0.1192,-0.10216l-0.5093,-0.58195c-0.25946,-0.6134 -0.84034,-1.17704 -0.77839,-1.84018c0.1504,-1.61019 0.67502,-7.88526 2.4074,-8.54966c0.12984,-0.0498 3.43911,2.70114 3.54432,2.68507c2.40429,-0.36711 4.58956,1.58366 6.77509,2.21855c1.2987,0.37728 2.37954,0.1141 3.07037,0.75792c0.0545,-0.01848 0.10961,-0.03679 0.16535,-0.0549l0.00072,-0.05958l1.61928,0.0195c0.6594,0.00794 1.1875,0.54892 1.17956,1.2083c-0.00794,0.6594 -0.54892,1.18751 -1.2083,1.17956l-1.14886,-0.01384c-1.94372,0.65007 -1.52226,2.376 -2.01779,3.56781c-0.57257,1.37707 -1.97224,2.28588 -3.23451,3.95887z" data-paper-data="{&quot;index&quot;:null}" fill="#eee3a5"/><path d="M257.21753,231.61106c-0.74751,-0.41806 -0.50948,-1.32367 -0.50948,-1.32367l0.13059,-0.35663c0.25316,-2.40173 0.91737,-3.48884 3.49345,-2.76035c1.23231,-0.80761 2.27768,-0.39941 3.36192,-0.65442c0.80758,-0.18994 0.1645,-1.88197 0.8589,-2.33595c0.77412,-0.50611 1.93203,0.57789 2.76859,0.18345c1.08022,-0.50933 -0.00073,-3.1328 2.37097,-3.69966c1.63739,-0.39136 3.65177,1.29837 4.55857,2.38967c2.49633,3.00424 4.37332,8.3387 2.32311,11.88849c-1.84307,1.79921 -7.95234,5.73584 -10.69543,5.00061c-2.31912,-0.6216 -2.12784,-3.26004 -3.83883,-4.14937c-0.74822,-0.38892 -1.72517,0.63725 -2.50876,0.32565c-1.56129,-0.62089 -2.06975,-2.69355 -2.31357,-4.50778z" data-paper-data="{&quot;index&quot;:null}" fill="#e5b175"/><path d="M204.53685,218.51457l0.2322,0.31681c0.3348,0.49356 1.26306,-0.13896 1.78254,0.154c1.5953,0.8996 0.88534,1.70209 1.30538,2.83952c0.1741,0.47147 0.7903,-0.77368 1.29287,-0.77573c0.7465,-0.00304 1.48336,0.3681 2.09125,0.80143c0.42304,0.30157 0.34929,1.6004 0.79811,1.33874c0.13941,-0.08129 0.27698,-0.16573 0.41333,-0.25223l-0.17096,-0.15015l0.9801,-1.11598c0.22212,-0.25599 0.55121,-0.41625 0.91665,-0.41184c0.6594,0.00794 1.1875,0.54892 1.17956,1.20831c-0.00213,0.1764 -0.04239,0.34342 -0.11288,0.49329l-0.48874,1.10351c-1.23974,2.79612 -3.13835,5.212 -4.29676,8.02041c-0.51828,1.2565 -1.20996,3.66592 -2.55703,4.31091c-1.62355,0.77736 -3.21909,-0.55432 -4.71462,-0.90325c-2.00586,-0.01644 -4.03526,1.06833 -5.91826,0.13039c-2.53106,-1.26074 -3.2291,-5.03109 -2.64065,-7.50683c1.0172,-4.27962 5.29487,-7.16696 7.77137,-10.54728c0,0 0.70565,-0.96319 1.66886,-0.25754c0.53421,0.39138 0.55508,0.86198 0.46767,1.20351z" data-paper-data="{&quot;index&quot;:null}" fill="#e5b175"/><path d="M228.88318,145.37474c0.30184,-1.68502 0.12321,-6.35327 2.01311,-7.26485c2.08194,-1.0042 2.63283,1.25406 3.93627,1.07928c0.64237,-0.08615 0.38309,-6.0471 0.42767,-6.21216c0.19662,-0.72794 0.49454,-1.56206 1.13814,-1.95491c0.37559,-0.22926 0.7745,0.54759 1.21363,0.51934c0.2194,-0.01411 -0.33455,-0.3575 -0.31978,-0.57684c0.03626,-0.53804 0.33521,-1.02618 0.46313,-1.55006c0.3106,-1.27193 0.61745,-2.13766 1.11557,-3.00274l-0.13366,-0.05535l0.44714,-1.07996c0.17477,-0.4514 0.61575,-0.76905 1.12822,-0.76287c0.44253,0.00533 0.82593,0.25072 1.02786,0.61089l0.64219,1.10012l-0.02123,0.01239l0.05962,0.05881c1.00451,2.43336 2.76678,4.57999 3.3458,7.19877c0.13872,0.62746 -0.30418,1.66613 0.29217,1.90555c0.25005,0.10039 0.80928,-0.00866 1.3457,-0.08842c0.52616,-0.07824 1.22348,-2.00246 1.39231,-1.79915c0.10804,0.13011 0.90056,6.16027 1.03591,6.71575c0.75334,3.09166 -0.65431,4.44442 -0.65473,7.58919c0.06271,0.04966 0.09754,0.08534 0.09754,0.08534l0.43905,0.44976c3.21672,3.30524 8.20343,4.20823 11.81587,7.16562c3.08007,2.52968 5.77077,4.81717 8.12549,8.1102c0.96578,1.35063 1.73563,4.02954 2.7905,5.10485c0.7335,0.74771 4.91759,0.30382 5.96773,0.52908c3.24992,0.69713 5.45532,2.82876 7.68717,5.11809c2.77011,3.30941 6.38186,8.39795 4.75896,13.04647c-0.39013,1.11746 -1.07218,1.64375 -1.86572,2.42247c-4.88619,4.79492 -9.76552,0.2886 -11.24736,-5.03816c-0.43279,-1.11796 -0.68334,-2.27607 -1.36668,-3.27674c-1.21376,-1.77742 -5.28399,-3.95295 -6.87809,-1.24788c-2.14565,3.64098 2.58742,7.20441 5.34113,8.33377c1.75091,0.77857 4.05677,1.72204 5.1659,3.39709c2.42792,3.66678 -0.23545,10.50614 -2.93548,13.41892c-2.96313,3.19661 -24.64296,17.24343 -28.24012,13.68532c-0.19552,-0.55981 -1.95879,-1.78004 -1.55983,-2.61971c2.8138,-5.92168 20.35013,-17.31013 21.0577,-21.17001c0.31787,-1.73398 0.2583,-4.75548 -1.57126,-5.21027c-1.87267,-0.46551 -4.84547,0.19584 -6.83915,0.17184c-6.70132,-0.08068 -11.89907,1.035 -17.03764,5.48122c-1.56884,1.35745 -2.48982,3.679 -3.84633,5.24369c-0.52206,0.60218 -0.9143,1.69937 -1.71075,1.67032c-1.20891,-0.04411 -1.83256,-2.09761 -2.18375,-2.99925c-0.75215,-2.10627 -4.05011,-1.16199 -5.73953,-2.50525c-3.78049,-3.00589 -7.28827,-7.03242 -11.37497,-8.33738c-2.77829,-0.88716 -4.62497,-1.8656 -7.37078,-0.8069c-1.0531,0.50958 -3.75214,1.53242 -4.37935,2.5735c-1.46181,2.42635 0.06765,8.59721 0.2463,11.30075c0.10129,1.53267 2.78946,6.71499 1.30345,7.85238c-1.33674,1.02313 -8.06604,-0.51412 -9.51684,-1.1111c-4.77631,-2.93953 -9.77087,-11.86072 -7.04313,-17.54813c1.19134,-2.48397 4.13321,-3.78882 6.74735,-4.15809c1.53326,-0.21658 2.81608,-0.70152 2.51691,-0.98627c0.91027,-5.15866 0.53737,-8.8656 1.02135,-14.15181c0.22323,-2.4383 1.05415,-5.09063 1.69106,-7.46086c0.65998,-2.45617 1.63106,-4.11674 2.90923,-6.19006c2.85713,-2.82125 6.68715,-5.24668 10.41284,-6.89604c3.86524,-1.71115 9.14614,-2.1559 12.46832,-4.80436c0,0 0.02171,-0.01694 0.06113,-0.0424c0.06224,-0.34759 0.12449,-0.6952 0.18673,-1.0428z" data-paper-data="{&quot;index&quot;:null}" fill="#eee3a5"/><path d="M219.64684,189.88921c4.26072,1.33286 8.14885,3.91785 11.83338,6.36223c1.21068,0.80318 2.58397,1.93102 3.32315,3.17661c0.32288,0.54406 0.11011,0.75158 0.69086,1.00255c0.30118,0.13015 2.29561,-2.33633 2.52933,-2.61065c7.33486,-7.17096 16.64815,-13.4059 27.33516,-9.69892c4.43677,2.03762 3.649,5.82289 2.90045,9.78379c-1.30273,6.89322 -3.27863,12.80695 -10.3341,15.35809c-3.17512,1.14248 -6.57077,1.89842 -9.69902,3.09988c-1.46863,0.56404 -1.94768,1.81793 -3.68839,2.14021c-4.47826,0.82916 -10.27345,-0.58634 -14.88339,-0.64737c-3.06965,0.25877 -4.44896,-1.2464 -7.24709,-1.89294c-5.54628,-1.28156 -13.03758,-2.11741 -16.51742,-7.32621c-1.12532,-1.68444 -1.29144,-3.74292 -1.74565,-5.67332c-0.31978,-3.21453 -1.11338,-7.40454 0.02156,-10.50873c2.44004,-6.67387 10.39852,-6.19182 15.09661,-2.98431c0,0 0.22325,0.15273 0.38452,0.41909z" data-paper-data="{&quot;index&quot;:null}" fill="#e5b175"/><path d="M253.70671,233.88592c-2.75946,3.33339 -8.7344,4.86237 -12.92821,3.33494c-2.27581,-0.82887 -3.15865,-3.20134 -3.59276,-5.36415c-0.11661,-0.58093 -0.33511,-1.57349 -0.36169,-2.33908c-0.59985,0.63444 -1.47418,1.2847 -2.05442,1.0794c-0.24686,1.25926 -0.621,2.82535 -1.19545,3.79506c-2.82097,4.76202 -12.41718,4.88079 -15.36643,0.53349c-1.13508,-1.67318 -1.25523,-4.07628 -1.23608,-6.00581c0,0 0.01439,-1.19394 1.20831,-1.17956c1.19394,0.01438 1.17956,1.20831 1.17956,1.20831c-0.02094,1.44983 -0.01183,3.42318 0.85752,4.68656c1.93365,2.81008 9.60681,2.85702 11.31366,-0.47871c0.48068,-0.9394 0.80137,-2.40514 0.98784,-3.45649l0.01785,-1.48165v0v0c0.00794,-0.6594 0.54892,-1.1875 1.2083,-1.17956c0.32969,0.00398 0.62656,0.14119 0.84003,0.35987l0.56903,0.5829c0.09125,-0.02085 0.17771,-0.06061 0.257,-0.12365c0.83515,-0.66404 1.42926,-2.32321 3.06566,-1.54105c1.40508,0.67157 0.96684,5.95651 1.77549,7.39347c2.00977,3.57134 9.62378,1.10988 11.60814,-1.33838c0.30073,-0.36677 0.60145,-0.73352 0.90218,-1.10029l0.39031,-0.57842c0,0 0.44136,-0.64508 1.1318,-0.53429c-0.07606,-0.8492 -0.16925,-1.66904 -0.34501,-2.3783c-0.68145,-2.74992 -2.15225,-4.64257 -3.7916,-6.8841c0,0 -1.23351,-1.6866 0.45308,-2.92011c1.6866,-1.23351 2.92011,0.45308 2.92011,0.45308c1.9591,2.67873 3.64164,5.04563 4.4701,8.32718c0.54532,2.16007 0.41534,4.59135 0.96144,6.68718c0.42432,1.62842 3.47171,1.70886 4.51967,2.2724c1.26071,0.67794 1.78554,2.29915 2.97253,3.0992c0.67777,0.45684 1.58856,-0.47756 2.26827,-0.9315c2.30475,-1.5392 4.6686,-3.2008 6.92568,-4.84566c2.31178,-2.00748 0.39884,-3.52426 -0.68661,-6.01771c-2.13386,-4.90182 -5.73532,-8.67641 -9.69283,-12.22663l-1.6954,-1.30375c-0.51395,-0.38645 -0.84324,-1.00412 -0.83492,-1.69639c0.0139,-1.15394 0.9606,-2.07812 2.11455,-2.06424c0.15522,0.00187 0.30629,0.02062 0.45148,0.05447l2.17446,0.46218l-0.05007,0.23552c0.47872,-0.05448 0.95543,-0.12212 1.4285,-0.21398c3.38468,-0.65719 7.09115,-5.19327 8.70779,-7.98472c2.49196,-4.30287 2.67496,-9.02757 -1.6102,-10.52303c-2.45521,0.08159 -5.05137,0.15346 -6.63353,-2.22631c-1.62463,-2.44364 -1.60887,-10.15615 1.21655,-11.63113c1.08703,-0.56748 2.48136,-0.15134 3.67666,0.12241c3.31803,0.75992 4.27393,3.22712 5.16145,6.11832c0.35533,1.15754 0.4109,2.5889 1.09271,3.56021c0.39101,0.12627 0.85814,0.37985 1.13709,0.88893c2.38261,1.06458 7.11153,2.02042 7.20889,-1.49188c-0.43295,-5.53238 -3.15249,-12.58744 -8.114,-15.62031c-2.55179,-1.55986 -5.82963,-0.92017 -8.43535,-2.21828c-2.88816,-1.43881 -2.93819,-3.52223 -4.56728,-5.8772c-2.19946,-3.17951 -4.95561,-5.49174 -7.61616,-8.20735c-2.6975,-2.49109 -8.19339,-2.48229 -10.3635,-5.23407c-1.87576,-2.37853 -1.19464,-7.44088 -1.43609,-10.22872c-0.11743,-1.35593 -1.06637,-5.0636 -1.15154,-6.42193c-0.01638,-0.26113 0.83476,1.53726 0.58517,1.61577c-0.86955,0.27355 -1.46761,1.83104 -2.30514,1.47127c-1.2441,-0.53442 -1.53186,-2.23647 -2.20761,-3.4098c-1.12293,-1.94975 -2.14766,-4.08753 -3.14412,-6.19488c-0.06205,1.92567 -0.25231,3.81429 -0.93905,5.05909c-0.35253,0.63904 -1.38972,0.60628 -1.84798,1.1743c-0.65705,0.81442 -0.1283,4.52735 -0.13975,5.47711c0,0 -0.00599,0.49741 -0.25482,1.00392c0.13679,0.53929 0.07833,1.22322 -0.61443,1.8995c-1.49521,1.45964 -2.95483,-0.03558 -2.95483,-0.03558l-0.64384,-0.85892c-0.15338,-0.37662 -0.36368,-0.72353 -0.5929,-1.06084c-0.06251,2.34527 -0.83487,5.18227 -1.04632,7.0673c0,0 -0.15424,1.37506 -1.33067,1.76174c-0.46724,0.51473 -1.1172,0.68361 -1.1172,0.68361c-5.27692,1.36846 -9.66138,2.68337 -14.64883,4.82852c-2.24591,0.96598 -5.23479,2.26822 -6.82979,4.21053c-2.89514,3.52553 -4.75908,9.12023 -5.70869,13.49129c-0.03257,3.83599 0.46916,7.7366 0.09306,11.57353c-0.12629,1.28858 -0.68305,2.8591 -1.54166,3.8282c-1.79641,2.02757 -5.11848,0.2294 -7.27254,2.55055c-1.44332,1.55529 -1.23782,5.10418 -0.7503,6.97041c1.30655,5.00151 3.02004,8.06778 7.12527,11.26508c2.63435,1.19044 3.95411,1.6147 6.77712,0.77105l1.71244,-0.0675c0,0 2.08939,0.02516 2.06424,2.11455c-0.00839,0.69779 -0.24704,1.15975 -0.5612,1.46555c0.2974,0.07581 0.61262,0.23812 0.93476,0.52691c1.55587,1.39482 0.16106,2.95065 0.16106,2.95065c-3.94479,4.38395 -11.67011,8.54632 -13.03315,14.65159c-1.15514,5.17415 3.73588,2.96585 6.65767,3.3846c1.16427,0.16685 2.33553,1.61285 3.36853,1.05044c0.52748,-0.28717 0.69017,-0.9831 1.03524,-1.47463c4.19188,-4.06024 6.69039,-9.73491 10.24428,-14.36424l0.70908,-1.45004c0,0 0.9569,-1.85755 2.81445,-0.90064c1.85755,0.9569 0.90065,2.81445 0.90065,2.81445l-1.11134,2.08377c-3.67682,4.77268 -6.24653,10.48836 -10.55126,14.72009c-3.34822,3.23615 -3.89821,2.43564 -8.0662,1.648c-1.33557,-0.25238 -2.67427,0.76625 -4.02741,0.63793c-4.80455,-0.45563 -6.94659,-4.7215 -6.06304,-9.01107c1.48331,-7.20129 9.44498,-11.46544 14.01077,-16.57983c0,0 0.05409,-0.06032 0.15282,-0.14657l-0.19982,-0.03695c-3.99424,1.10963 -6.40373,0.50045 -10.0887,-1.20988c-6.20636,-4.72695 -13.9368,-16.99672 -7.33224,-24.59819c1.01179,-1.16451 3.36958,-2.4239 4.8516,-2.81044c0.82725,-0.21576 1.69924,-0.30422 2.5525,-0.2508c0.32979,0.02066 0.7061,0.7493 0.87525,0.46544c0.20032,-0.33616 -0.47239,-0.66132 -0.52766,-1.04873c-0.11507,-0.80662 0.01961,-1.62946 0.02942,-2.4442c0.03845,-3.19353 -0.14433,-6.35282 -0.09718,-9.54084c1.06823,-5.11395 3.19927,-11.59789 6.64325,-15.69468c5.35859,-6.3743 15.44201,-8.31906 23.08968,-10.27494c0.22507,-2.61699 0.23891,-5.37581 0.66612,-7.90452c0.22726,-1.3452 -0.22414,-3.37757 1.00613,-3.96716c1.62067,-0.77672 3.08415,-0.31388 4.31504,0.66169c0.0939,-1.18218 0.3367,-2.31594 0.90642,-3.24416c0.34944,-0.56936 1.33518,-0.46895 1.73398,-1.0049c0.7282,-0.97868 -0.11695,-2.44149 -0.04626,-3.65933c0.03507,-0.60421 0.42907,-4.05103 0.51017,-4.77397l0.24637,-2.19637c0.10646,-1.0662 1.01264,-1.89256 2.10426,-1.8794c0.69226,0.00833 1.30184,0.35238 1.67581,0.8755l1.29744,1.77403l-0.40315,0.29486c1.54823,1.77395 2.59933,3.70408 3.84929,6.2774c0.79656,1.63987 1.81532,3.22419 2.20484,5.00517c0.08271,0.3781 -0.83918,1.20825 -0.48352,1.05561c0.72045,-0.30922 0.98974,-1.8441 1.73189,-1.59139c1.43342,0.4881 2.38327,1.96189 3.16489,3.2588c1.566,2.59837 0.77081,7.01263 1.15231,9.90066c0.15139,1.14609 -0.25213,2.49669 0.41086,3.44371c0.65709,0.93857 2.23563,0.53221 3.30567,0.94173c2.58038,0.98754 4.58158,2.02602 6.65555,3.84714c3.99544,4.10866 6.87754,7.88058 10.05586,12.56766c0.65262,0.96242 1.77699,0.86772 2.76285,1.06418c2.43114,0.48451 4.89947,0.80912 7.06749,2.10998c6.33597,3.80174 9.5781,12.25158 10.13348,19.26764c-0.15361,1.03407 0.01734,2.17258 -0.46087,3.10222c-1.52197,2.95881 -5.34523,3.87545 -8.93155,3.35006c1.51129,6.29721 -4.84872,14.71276 -9.23404,18.15731c-0.79929,0.62782 -2.28264,1.67331 -3.73181,2.32212c3.34293,3.28826 6.2507,6.87451 8.15868,11.25185c1.98154,4.54614 3.41995,6.87942 -0.44554,10.87486c-3.1913,2.3407 -9.33554,8.0667 -13.62028,6.39316c-1.39887,-0.54637 -1.82138,-2.54511 -3.17418,-3.1973c-2.76233,-1.33173 -5.13364,-1.1178 -6.51009,-4.52738c-0.23846,-0.59068 -0.38461,-1.28925 -0.48758,-2.03471c-0.27993,0.34139 -0.55984,0.68278 -0.83977,1.02418zM273.33772,187.16397l1.09659,0.02357c0.56852,0.06847 1.04195,0.11208 1.464,0.15729c-0.54037,-2.50863 -0.88227,-5.37996 -3.57389,-5.66893c-0.69964,-0.0751 0.3471,1.36588 0.4571,2.06089c0.18141,1.14628 -0.21701,2.36859 0.06487,3.48642c0.2844,-0.06172 0.49136,-0.05922 0.49136,-0.05922z" data-paper-data="{&quot;index&quot;:null}" fill="#fff3b0"/><path d="M222.43758,218.53029c-0.31415,-1.13621 -0.54191,-2.38892 0.75035,-3.27444c1.55454,-1.06527 3.35417,0.11158 4.00629,1.44891c0.78573,1.61127 -0.20624,4.12347 0.3903,5.82333c0.32612,0.92928 2.25557,2.23638 1.43384,3.46654c-0.81344,1.21775 -3.24234,0.55056 -4.13998,-0.08574c-1.68738,-1.19615 -1.74459,-3.40642 -2.03425,-5.42032c-0.21108,-0.33409 -0.20651,-0.71491 -0.20651,-0.71491l0.03741,-0.25287c-0.05247,-0.24199 -0.11349,-0.4777 -0.18684,-0.7047c0,0 -0.03712,-0.11601 -0.05061,-0.28579z" data-paper-data="{&quot;index&quot;:null}" fill="#eee3a5"/><path d="M248.94331,219.77156c-0.07877,0.22516 -0.14547,0.45933 -0.20375,0.7l0.03132,0.25369c0,0 -0.00459,0.38082 -0.22365,0.70971c-0.33808,2.00633 -0.4485,4.2146 -2.16418,5.36977c-0.91271,0.61452 -3.35698,1.22302 -4.14084,-0.01395c-0.79188,-1.24959 1.16848,-2.50985 1.51687,-3.43102c0.63731,-1.685 -0.29391,-4.22034 0.53038,-5.81224c0.68414,-1.32124 2.51157,-2.45442 4.04001,-1.35203c0.92328,0.66591 1.03947,1.50632 0.903,2.34896c-0.05133,0.31694 -0.13841,0.63419 -0.23172,0.94258c-0.01756,0.1694 -0.05748,0.2845 -0.05748,0.2845z" data-paper-data="{&quot;index&quot;:null}" fill="#eee3a5"/><path d="M226.47187,220.0577c-0.30094,-0.05416 0.18482,-0.22829 -0.01527,-0.71117c-0.45711,-1.10306 -0.16565,-1.40798 -0.16565,-1.40798l1.37047,-0.54152c3.49568,-0.01341 6.8681,0.34365 10.34005,0.5878c1.67869,0.11805 4.16585,-0.21144 5.74357,0.26928c1.98511,0.60483 1.78578,1.20712 2.4529,2.914c-0.0147,1.79807 -0.19823,4.15783 -1.83306,5.36761c-1.48068,1.09567 -4.1193,0.39267 -5.81616,0.47981c-5.51221,0.28303 -12.73199,0.47073 -12.07686,-6.9578z" data-paper-data="{&quot;index&quot;:null}" fill="#e5b175"/><path d="M244.17755,201.94778c0.08559,-0.12921 0.16318,-0.20494 0.16318,-0.20494l0.24466,-0.23199c3.27419,-2.65892 6.72189,-5.09398 10.54251,-6.90059c3.07864,-0.37652 7.3475,-0.24603 8.70713,3.24262c1.32,3.38696 -1.1731,10.03759 -3.42664,12.65876c-1.85978,2.16317 -4.934,3.54875 -7.43398,4.76134c-2.6463,1.08912 -7.32513,2.30074 -10.00585,0.64513c-2.83461,-1.75065 -3.45589,-9.5729 -1.51862,-12.13587c0.66056,-0.87389 1.69285,-1.41501 2.72765,-1.83446z" data-paper-data="{&quot;index&quot;:null}" fill="#fffeff"/><path d="M225.56782,205.4415c0.08464,0.06085 0.13312,0.11049 0.13312,0.11049l0.67545,0.9009c0.94521,4.09405 -3.38182,8.19547 -6.69216,4.16065c-3.33526,-4.06521 1.68154,-7.69305 5.52808,-5.51041c0,0 0.20153,0.11841 0.3555,0.33834z" data-paper-data="{&quot;index&quot;:null}" fill="#4d2813"/><path d="M243.94475,206.4407c3.89798,-2.08941 8.82597,1.65816 5.3938,5.6419c-3.40652,3.95394 -7.63355,-0.25046 -6.59003,-4.32056l0.69695,-0.88439c0,0 0.04966,-0.04848 0.13574,-0.10726c0.15922,-0.21618 0.36354,-0.32968 0.36354,-0.32968z" data-paper-data="{&quot;index&quot;:null}" fill="#4d2813"/><path d="M229.71318,203.61926c1.87502,2.60887 1.06559,10.41388 -1.81035,12.09579c-2.7198,1.59059 -7.36813,0.26666 -9.98743,-0.88584c-2.47006,-1.27242 -5.51,-2.73161 -7.31719,-4.93894c-2.18978,-2.67466 -4.52205,-9.38338 -3.12089,-12.73759c1.44324,-3.4549 5.71398,-3.48258 8.78266,-3.03205c3.776,1.89806 7.1641,4.41542 10.37332,7.15241l0.23898,0.2378c0,0 0.07575,0.0776 0.15818,0.20882c1.02439,0.44426 2.04338,1.01005 2.68269,1.89959z" data-paper-data="{&quot;index&quot;:null}" fill="#fffeff"/><path d="M242.07418,195.02622c-0.01284,-0.01988 -0.02549,-0.04053 -0.03796,-0.06187c-0.56822,-0.97343 0.40519,-1.54166 0.40519,-1.54166l0.79065,-0.46124c3.14868,-1.74346 6.45563,-3.37443 9.71511,-4.92113c2.34014,1.7242 3.50892,5.43556 1.6584,8.22144c-1.16132,1.74831 -4.00086,2.5277 -5.69373,3.58232c-1.17235,0.73036 -2.24383,2.50133 -3.93848,2.09833c-2.55936,-0.60865 -2.50575,-4.907 -2.89917,-6.91619z" data-paper-data="{&quot;index&quot;:null}" fill="#713617"/><path d="M226.76017,201.86341c-1.70387,0.3621 -2.73239,-1.43416 -3.88683,-2.19253c-1.66699,-1.09507 -4.48693,-1.94259 -5.60582,-3.71836c-1.78294,-2.82963 -0.52512,-6.51174 1.85586,-8.17912c3.2213,1.62473 6.48803,3.33481 9.59382,5.15359l0.77931,0.48014c0,0 0.95947,0.59151 0.36796,1.55097c-0.01298,0.02105 -0.02614,0.04135 -0.03944,0.06094c-0.44168,1.99914 -0.49158,6.29752 -3.06485,6.84438z" data-paper-data="{&quot;index&quot;:null}" fill="#713617"/><path d="M226.76588,207.03211c0.08463,0.06086 0.13312,0.11051 0.13312,0.11051l0.67545,0.9009c0.9452,4.09404 -3.3818,8.19547 -6.69213,4.16065c-3.33526,-4.06523 1.68153,-7.69303 5.52807,-5.5104c0,0 0.20153,0.1184 0.3555,0.33834z" data-paper-data="{&quot;index&quot;:null}" fill="#4d2813"/><path d="M244.09372,235.6271c-0.59696,-0.00719 -0.58978,-0.60415 -0.58978,-0.60415c0.00959,-0.79596 0.02156,-1.7909 0.03115,-2.58686c0,0 0.00719,-0.59698 0.60415,-0.58978c0.59696,0.00719 0.58978,0.60415 0.58978,0.60415c-0.00959,0.79596 -0.01916,1.59191 -0.02875,2.38788l-0.00239,0.19898c0,0 -0.00719,0.59698 -0.60415,0.58978z" data-paper-data="{&quot;index&quot;:null}" fill="#a0531a"/><path d="M246.88435,235.26267c-0.59696,-0.00719 -0.58978,-0.60415 -0.58978,-0.60415c0.00479,-0.39798 0.01198,-0.99494 0.01678,-1.39292c0,0 0.00719,-0.59698 0.60415,-0.58978c0.59696,0.00719 0.58978,0.60415 0.58978,0.60415c-0.00479,0.39798 -0.00959,0.79596 -0.01439,1.19394l-0.00239,0.199c0,0 -0.00719,0.59696 -0.60415,0.58978z" data-paper-data="{&quot;index&quot;:null}" fill="#a0531a"/><path d="M249.28659,234.09749c-0.59696,-0.00719 -0.58978,-0.60415 -0.58978,-0.60415c0.00239,-0.199 0.00719,-0.59696 0.00959,-0.79596c0,0 0.00719,-0.59696 0.60415,-0.58978c0.59696,0.00719 0.58978,0.60415 0.58978,0.60415c-0.00239,0.199 -0.00479,0.39798 -0.00719,0.59698l-0.00239,0.199c0,0 -0.00719,0.59696 -0.60415,0.58978z" data-paper-data="{&quot;index&quot;:null}" fill="#a0531a"/><path d="M227.57522,235.62725c-0.59696,-0.00719 -0.58978,-0.60415 -0.58978,-0.60415l0.00719,-0.59696c0.0093,-0.33962 -0.04804,-0.68514 -0.15625,-1.00719c0,0 -0.18196,-0.56861 0.38665,-0.75056c0.56861,-0.18196 0.75056,0.38665 0.75056,0.38665c0.13767,0.44652 0.21341,0.91823 0.21298,1.38547l-0.00719,0.59696c0,0 -0.00719,0.59698 -0.60415,0.58978z" data-paper-data="{&quot;index&quot;:null}" fill="#a0531a"/><path d="M225.37913,236.19787c-0.59696,-0.00719 -0.58978,-0.60415 -0.58978,-0.60415c0.00239,-0.199 0.01198,-0.99494 0.01438,-1.19394c0,0 0.00719,-0.59696 0.60415,-0.58978c0.59696,0.00719 0.58978,0.60415 0.58978,0.60415c-0.00239,0.199 -0.00479,0.39798 -0.00719,0.59698l-0.00719,0.59696c0,0 -0.00719,0.59696 -0.60415,0.58978z" data-paper-data="{&quot;index&quot;:null}" fill="#a0531a"/><path d="M222.21208,234.76661c0.00398,-0.32969 0.27446,-0.59375 0.60415,-0.58978c0.32969,0.00398 0.59375,0.27447 0.58978,0.60415c-0.00398,0.32969 -0.27447,0.59375 -0.60415,0.58978c-0.32969,-0.00398 -0.59375,-0.27446 -0.58978,-0.60415z" data-paper-data="{&quot;index&quot;:null}" fill="#a0531a"/><path d="M200.03584,192.61614c0.71829,0.13482 0.97948,0.90808 0.97948,0.90808l0.35427,1.09087c0.27602,1.4846 0.4165,2.82707 0.52019,4.32508c0.09719,1.40416 0.6749,2.58565 -0.46696,3.90186c-1.74726,2.01404 -4.5891,1.48546 -6.00755,-0.60697c-2.54305,-3.7514 -0.87187,-9.03042 3.48066,-9.89875c0,0 0.6674,-0.12408 1.13992,0.27982z" fill="#e5b175"/><path d="M272.10533,194.65069c4.33037,0.97285 5.87395,6.29058 3.24133,9.97967c-1.46841,2.05768 -4.32217,2.51768 -6.02041,0.46217c-1.10983,-1.34331 -0.50385,-2.51055 -0.37288,-3.91197c0.13972,-1.49508 0.31248,-2.8338 0.62417,-4.31131l0.3804,-1.08202c0,0 0.27974,-0.76674 1.00107,-0.88423c0.4821,-0.3924 1.14633,-0.25228 1.14633,-0.25228z" data-paper-data="{&quot;index&quot;:null}" fill="#e5b175"/><path d="M262.08642,180.97954c-0.46533,-0.70914 0.00515,-1.53247 0.00515,-1.53247c3.5479,-6.20884 6.68276,-12.04041 12.69082,-16.17591c1.13812,-0.7834 4.48114,-2.84175 5.85198,-2.31443c3.92461,1.50966 1.22246,4.48607 -0.13416,6.29789c-4.00246,6.34289 -9.78621,10.16671 -15.39188,14.84494l-1.52953,0.34593c0,0 -1.47476,0 -1.49236,-1.46595z" fill="#6c3520"/><path d="M273.09389,171.13747c0.06591,-0.50045 0.59793,-0.68864 0.59793,-0.68864c4.01213,-1.41923 7.69145,-2.82896 12.00646,-2.35761c0.8174,0.08929 3.12403,0.46095 3.53688,1.23141c1.18197,2.20573 -1.19265,2.49689 -2.50823,2.78617c-4.26908,1.30296 -8.36185,0.77832 -12.70646,0.70796l-0.82377,-0.43858c0,0 -0.66464,-0.57318 -0.10282,-1.2407z" fill="#00a70d"/><path d="M271.4167,168.50298c-0.29612,-0.13475 -0.31208,-0.49813 -0.31208,-0.49813c-0.12036,-2.74032 -0.29745,-5.27366 0.80465,-7.84513c0.20877,-0.48711 0.87172,-1.83921 1.42432,-1.94883c1.58208,-0.31382 1.31498,1.20483 1.24588,2.07028c0.00036,2.87685 -1.0928,5.3013 -1.95328,7.96642l-0.42531,0.42536c0,0 -0.47835,0.30193 -0.7842,-0.16996z" fill="#b15835"/><path d="M221.95997,217.16117c-0.00673,-0.06578 -0.01027,-0.13491 -0.01027,-0.2076c0,-1.49253 1.49253,-1.49253 1.49253,-1.49253h1.14808c4.27554,0.00673 8.16581,2.66993 12.43738,2.66551c3.58851,-0.00371 7.55876,-2.67835 11.14604,-2.64623c0.97855,0.56813 2.56948,0.63375 2.93565,1.70438c0.31418,0.91861 -0.95451,1.69337 -1.49857,2.49746c-1.76285,2.60542 -4.65339,4.02935 -7.59221,4.83287c-6.70804,1.83411 -15.58064,-0.52716 -19.7704,-6.09191c0,0 -0.44714,-0.59618 -0.28824,-1.26195z" fill="#28b90b"/></g></g></svg>