<svg version="1.1" xmlns="http://www.w3.org/2000/svg" xmlns:xlink="http://www.w3.org/1999/xlink" width="468.83816" height="398.08452" viewBox="0,0,468.83816,398.08452"><defs><linearGradient x1="237.5" y1="60.77953" x2="237.5" y2="336.13708" gradientUnits="userSpaceOnUse" id="color-1"><stop offset="0" stop-color="#6798d3"/><stop offset="1" stop-color="#5686ce"/></linearGradient><linearGradient x1="235.50823" y1="30.62658" x2="235.50823" y2="101.61207" gradientUnits="userSpaceOnUse" id="color-2"><stop offset="0" stop-color="#faec08"/><stop offset="1" stop-color="#fac207"/></linearGradient><linearGradient x1="355.00307" y1="308.71452" x2="355.00307" y2="401.28561" gradientUnits="userSpaceOnUse" id="color-3"><stop offset="0" stop-color="#76de30"/><stop offset="1" stop-color="#3bd214"/></linearGradient><linearGradient x1="355.00309" y1="305.5711" x2="355.00309" y2="404.42885" gradientUnits="userSpaceOnUse" id="color-4"><stop offset="0" stop-color="#75de30"/><stop offset="1" stop-color="#3cd214"/></linearGradient><linearGradient x1="114.45183" y1="310.93366" x2="114.45183" y2="403.50475" gradientUnits="userSpaceOnUse" id="color-5"><stop offset="0" stop-color="#76de30"/><stop offset="1" stop-color="#3bd214"/></linearGradient><linearGradient x1="114.58117" y1="307.98369" x2="114.58117" y2="406.84144" gradientUnits="userSpaceOnUse" id="color-6"><stop offset="0" stop-color="#00ddff"/><stop offset="1" stop-color="#00c1ff"/></linearGradient><linearGradient x1="235.00307" y1="309.71452" x2="235.00307" y2="402.28561" gradientUnits="userSpaceOnUse" id="color-7"><stop offset="0" stop-color="#76de30"/><stop offset="1" stop-color="#3bd214"/></linearGradient><linearGradient x1="235.13241" y1="306.76455" x2="235.13241" y2="405.6223" gradientUnits="userSpaceOnUse" id="color-8"><stop offset="0" stop-color="#00ddff"/><stop offset="1" stop-color="#00c1ff"/></linearGradient></defs><g transform="translate(-3.08092,-30.62658)"><g data-paper-data="{&quot;isPaintingLayer&quot;:true}" fill-rule="nonzero" stroke-linejoin="miter" stroke-miterlimit="10" stroke-dasharray="" stroke-dashoffset="0" style="mix-blend-mode: normal"><path d="M3.33092,336.13708v-275.35756h468.33816v275.35756z" data-paper-data="{&quot;index&quot;:null}" fill="url(#color-1)" stroke="#3a567d" stroke-width="0.5" stroke-linecap="butt"/><path d="M15.07589,304.12752v-87.56857h442.3601v87.56857z" fill="#376099" stroke="none" stroke-width="0" stroke-linecap="butt"/><path d="M170.00025,209.11389c0,1.00885 -0.08612,1.92419 -0.25837,2.74603c-0.17224,0.82184 -0.44782,1.57479 -0.82677,2.25883c-0.37401,0.68405 -0.85876,1.31643 -1.45422,1.89713c-0.59055,0.58071 -1.30658,1.1368 -2.14812,1.6683l4.61365,8.21597l-8.71793,1.7052l-2.98963,-8.26027l-2.3991,0.0812l-0.34695,8.06095h-8.33408c0.06397,-2.94781 0.12549,-5.88086 0.18455,-8.79913c0.05905,-2.91828 0.12549,-5.85132 0.19931,-8.79913c0.02953,-1.48129 0.05659,-2.95273 0.0812,-4.41433c0.02461,-1.4616 0.07628,-2.93551 0.15502,-4.42172c0.90551,-0.33464 1.79624,-0.61022 2.67222,-0.82677c0.8809,-0.22145 1.76179,-0.3937 2.6427,-0.51673c0.88582,-0.12302 1.78394,-0.20669 2.69437,-0.25098c0.91043,-0.04429 1.84545,-0.06643 2.8051,-0.06643c1.47144,0 2.89368,0.20422 4.2667,0.61269c1.37794,0.40354 2.59594,1.01378 3.654,1.8307c1.06298,0.812 1.9119,1.82578 2.54673,3.04132c0.63976,1.21062 0.95963,2.62301 0.95963,4.23717zM161.31921,209.73396c0,-0.54133 -0.07382,-1.03837 -0.22145,-1.49113c-0.14763,-0.45276 -0.36662,-0.84153 -0.65698,-1.16633c-0.29036,-0.32972 -0.65206,-0.58809 -1.08513,-0.7751c-0.43307,-0.19193 -0.93996,-0.28789 -1.52065,-0.28789c-0.26083,0 -0.51427,0.01723 -0.76033,0.05167c-0.24114,0.03445 -0.47982,0.08366 -0.71603,0.14763l-0.31003,7.20467h0.46505c0.5561,0 1.12203,-0.07136 1.69782,-0.21407c0.57578,-0.14271 1.09252,-0.36172 1.55018,-0.65698c0.45767,-0.29527 0.83169,-0.67421 1.12203,-1.1368c0.29036,-0.46751 0.43553,-1.02607 0.43553,-1.67567zM189.69218,199.85707c-0.07874,1.21062 -0.1501,2.41139 -0.21407,3.60233c-0.06397,1.18601 -0.14763,2.38679 -0.25098,3.60233l-8.21597,0.42815l-0.19193,2.44338h5.77258l-0.42815,6.00143l-5.8095,0.19931l-0.19931,2.82723h4.80557h3.4104c-0.07382,1.42224 -0.15502,2.83462 -0.2436,4.23717c-0.08366,1.39763 -0.15748,2.80018 -0.22145,4.20764l-16.69769,0.39123l0.62007,-27.94022zM225.30304,200.89791l-4.53245,26.86247l-11.0063,0.22883l-2.36218,-13.91475l-2.36218,12.91082l-11.0063,0.38385l-4.57673,-26.47123l9.61114,-0.84892l1.94142,16.085l2.59102,-16.085h7.55899l3.02655,16.27693l1.55018,-16.27693zM249.41117,226.12899l-9.61114,1.24015l-1.15895,-4.37742h-4.42172l-0.96702,4.37742l-9.88427,-0.96702l7.71402,-25.81425l10.77008,-0.53887zM237.9398,217.06411l-1.46898,-6.74699l-1.43945,6.74699zM272.52551,209.11389c0,1.00885 -0.08612,1.92419 -0.25837,2.74603c-0.17224,0.82184 -0.44782,1.57479 -0.82677,2.25883c-0.37401,0.68405 -0.85876,1.31643 -1.45422,1.89713c-0.59055,0.58071 -1.30658,1.1368 -2.14812,1.6683l4.61365,8.21597l-8.71793,1.7052l-2.98963,-8.26027l-2.3991,0.0812l-0.34695,8.06095h-8.33408c0.06397,-2.94781 0.12549,-5.88086 0.18455,-8.79913c0.05905,-2.91828 0.12549,-5.85132 0.19931,-8.79913c0.02953,-1.48129 0.05659,-2.95273 0.0812,-4.41433c0.02461,-1.4616 0.07628,-2.93551 0.15502,-4.42172c0.90551,-0.33464 1.79624,-0.61022 2.67222,-0.82677c0.8809,-0.22145 1.76179,-0.3937 2.6427,-0.51673c0.88582,-0.12302 1.78394,-0.20669 2.69437,-0.25098c0.91043,-0.04429 1.84545,-0.06643 2.8051,-0.06643c1.47144,0 2.89368,0.20422 4.2667,0.61269c1.37794,0.40354 2.59594,1.01378 3.654,1.8307c1.06298,0.812 1.9119,1.82578 2.54673,3.04132c0.63976,1.21062 0.95963,2.62301 0.95963,4.23717zM263.84448,209.73396c0,-0.54133 -0.07382,-1.03837 -0.22145,-1.49113c-0.14763,-0.45276 -0.36662,-0.84153 -0.65698,-1.16633c-0.29036,-0.32972 -0.65206,-0.58809 -1.08513,-0.7751c-0.43307,-0.19193 -0.93996,-0.28789 -1.52065,-0.28789c-0.26083,0 -0.51427,0.01723 -0.76033,0.05167c-0.24114,0.03445 -0.47982,0.08366 -0.71603,0.14763l-0.31003,7.20467h0.46505c0.5561,0 1.12203,-0.07136 1.69782,-0.21407c0.57578,-0.14271 1.09252,-0.36172 1.55018,-0.65698c0.45767,-0.29527 0.83169,-0.67421 1.12203,-1.1368c0.29036,-0.46751 0.43553,-1.02607 0.43553,-1.67567zM295.81979,212.41356c0,1.80609 -0.23376,3.43747 -0.70127,4.89415c-0.46259,1.45176 -1.11219,2.74357 -1.9488,3.87547c-0.83169,1.12696 -1.82332,2.0989 -2.97488,2.91582c-1.14664,0.812 -2.40402,1.48129 -3.77212,2.00785c-1.3681,0.52165 -2.82477,0.90797 -4.37004,1.15895c-1.54526,0.25098 -3.1299,0.37647 -4.7539,0.37647c-0.61022,0 -1.2057,-0.01477 -1.7864,-0.04429c-0.58071,-0.03445 -1.17372,-0.08366 -1.77902,-0.14763l0.53887,-26.00618c1.42224,-0.45276 2.88384,-0.77262 4.3848,-0.95963c1.5059,-0.18701 3.00194,-0.28052 4.48815,-0.28052c1.85037,0 3.55067,0.27805 5.10085,0.83415c1.55018,0.5561 2.8863,1.35825 4.00833,2.40648c1.12203,1.0433 1.99556,2.32036 2.62055,3.83117c0.62991,1.51081 0.94487,3.22339 0.94487,5.13775zM287.87695,213.65371c0.00984,-0.69881 -0.06643,-1.37056 -0.22883,-2.01523c-0.15748,-0.6496 -0.42077,-1.22292 -0.78985,-1.71997c-0.36909,-0.49704 -0.83907,-0.89566 -1.40993,-1.19585c-0.56594,-0.30511 -1.24261,-0.46997 -2.03,-0.49458l-0.7751,12.01023c0.77756,-0.11319 1.48129,-0.36662 2.1112,-0.76033c0.63483,-0.39862 1.1811,-0.88336 1.63877,-1.45422c0.45767,-0.57578 0.812,-1.21554 1.06298,-1.91928c0.25591,-0.70373 0.39616,-1.43207 0.42077,-2.18502zM316.82571,217.48487c0,1.77163 -0.30757,3.31936 -0.92273,4.64317c-0.61022,1.32381 -1.4493,2.42616 -2.5172,3.30706c-1.06791,0.87597 -2.31544,1.53542 -3.74258,1.97833c-1.42716,0.43799 -2.96012,0.65698 -4.59888,0.65698c-0.63483,0 -1.33119,-0.08612 -2.08905,-0.25837c-0.75295,-0.16732 -1.51819,-0.37647 -2.29575,-0.62745c-0.77262,-0.25098 -1.51819,-0.52165 -2.2367,-0.812c-0.71357,-0.29036 -1.34841,-0.56594 -1.90452,-0.82677l0.84892,-7.97975c1.10236,0.65944 2.32036,1.16141 3.654,1.5059c1.33858,0.33957 2.65254,0.50935 3.9419,0.50935c0.24606,0 0.54379,-0.00984 0.8932,-0.02953c0.34941,-0.01969 0.68159,-0.07628 0.99655,-0.16978c0.31988,-0.09843 0.58809,-0.2436 0.80462,-0.43553c0.22145,-0.19685 0.33218,-0.47736 0.33218,-0.84153c0,-0.24114 -0.07874,-0.44782 -0.23622,-0.62007c-0.15256,-0.17717 -0.35187,-0.31988 -0.59793,-0.42815c-0.24606,-0.11319 -0.52412,-0.19931 -0.83415,-0.25837c-0.31003,-0.05905 -0.61516,-0.10089 -0.91535,-0.12549c-0.29527,-0.02461 -0.57332,-0.03691 -0.83415,-0.03691c-0.25591,0 -0.46013,0 -0.61269,0c-1.11219,0 -2.12351,-0.19439 -3.03393,-0.58317c-0.91043,-0.38877 -1.6929,-0.92765 -2.34742,-1.61662c-0.6496,-0.68898 -1.15649,-1.50836 -1.52065,-2.45815c-0.35925,-0.94979 -0.53887,-1.98079 -0.53887,-3.09298c0,-1.52557 0.30511,-2.89122 0.91535,-4.09692c0.61516,-1.21062 1.43699,-2.23916 2.46553,-3.0856c1.02853,-0.84645 2.20717,-1.49359 3.5359,-1.94142c1.32873,-0.45276 2.70421,-0.67913 4.12644,-0.67913c0.63483,0 1.2869,0.02215 1.95618,0.06643c0.67421,0.04429 1.3435,0.12549 2.00785,0.2436c0.66437,0.11319 1.31151,0.26083 1.94142,0.44292c0.63483,0.18209 1.23769,0.40846 1.80855,0.67913l-0.73818,7.86903c-0.87597,-0.30019 -1.79624,-0.54871 -2.7608,-0.74557c-0.95963,-0.20178 -1.89959,-0.30265 -2.81985,-0.30265c-0.16732,0 -0.38385,0.00492 -0.6496,0.01477c-0.26575,0.00492 -0.54379,0.02461 -0.83415,0.05905c-0.29036,0.02953 -0.58317,0.07628 -0.87843,0.14025c-0.29527,0.06397 -0.56102,0.15256 -0.79723,0.26575c-0.2313,0.10827 -0.41831,0.25344 -0.56102,0.43553c-0.14271,0.17717 -0.20669,0.38877 -0.19193,0.63483c0.01477,0.28542 0.12058,0.51673 0.31742,0.6939c0.20178,0.17224 0.46013,0.30757 0.7751,0.406c0.31988,0.09351 0.66929,0.15994 1.04822,0.19931c0.37893,0.03938 0.75541,0.06151 1.12942,0.06643c0.37893,0.00492 0.72834,0.00492 1.04822,0c0.3248,-0.00492 0.59055,0.00492 0.79723,0.02953c1.03345,0.06397 1.96357,0.28298 2.79033,0.65698c0.82677,0.37401 1.52803,0.87105 2.10382,1.49113c0.57578,0.62007 1.01378,1.36071 1.31397,2.22193c0.30511,0.8563 0.45767,1.80117 0.45767,2.83462zM326.04838,223.80372c0,0.57086 -0.11073,1.10236 -0.33218,1.59447c-0.21653,0.4872 -0.50935,0.91535 -0.87843,1.28443c-0.36909,0.36909 -0.7997,0.66191 -1.29182,0.87843c-0.4872,0.21161 -1.00885,0.31742 -1.56495,0.31742c-0.57086,0 -1.10236,-0.10581 -1.59447,-0.31742c-0.4872,-0.21653 -0.91535,-0.50935 -1.28443,-0.87843c-0.36909,-0.36909 -0.65944,-0.79723 -0.87105,-1.28443c-0.21161,-0.49212 -0.31742,-1.02361 -0.31742,-1.59447c0,-0.5561 0.10581,-1.08513 0.31742,-1.5871c0.21161,-0.50197 0.50197,-0.9375 0.87105,-1.30658c0.36909,-0.36909 0.79723,-0.66191 1.28443,-0.87843c0.49212,-0.22145 1.02361,-0.33218 1.59447,-0.33218c0.5561,0 1.07775,0.11073 1.56495,0.33218c0.49212,0.21653 0.92273,0.50935 1.29182,0.87843c0.36909,0.36909 0.66191,0.80462 0.87843,1.30658c0.22145,0.50197 0.33218,1.03099 0.33218,1.5871zM326.04838,211.40225c0,0.57086 -0.11073,1.10236 -0.33218,1.59447c-0.21653,0.4872 -0.50935,0.91535 -0.87843,1.28443c-0.36909,0.36909 -0.7997,0.65944 -1.29182,0.87105c-0.4872,0.21161 -1.00885,0.31742 -1.56495,0.31742c-0.57086,0 -1.10236,-0.10581 -1.59447,-0.31742c-0.4872,-0.21161 -0.91535,-0.50197 -1.28443,-0.87105c-0.36909,-0.36909 -0.65944,-0.79723 -0.87105,-1.28443c-0.21161,-0.49212 -0.31742,-1.02361 -0.31742,-1.59447c0,-0.5561 0.10581,-1.08513 0.31742,-1.5871c0.21161,-0.50197 0.50197,-0.9375 0.87105,-1.30658c0.36909,-0.36909 0.79723,-0.66191 1.28443,-0.87843c0.49212,-0.22145 1.02361,-0.33218 1.59447,-0.33218c0.5561,0 1.07775,0.11073 1.56495,0.33218c0.49212,0.21653 0.92273,0.50935 1.29182,0.87843c0.36909,0.36909 0.66191,0.80462 0.87843,1.30658c0.22145,0.50197 0.33218,1.03099 0.33218,1.5871z" fill="#f9f9f9" stroke="#000000" stroke-width="0.5" stroke-linecap="square"/><g stroke="none" stroke-width="0" stroke-linecap="square"><path d="M117.91546,39.38974l-17.23908,65.61627l-23.38051,1.31088l-21.22563,-66.28069l22.35695,-2.06509l9.05052,38.64429l8.7632,-38.64429zM144.8762,39.10243l-5.17173,64.19764l-19.89676,1.04152v-63.92827zM194.32636,39.19222l-2.63973,19.89677c-0.90984,-0.2514 -1.81968,-0.42498 -2.72952,-0.52077c-0.90984,-0.09577 -1.81969,-0.14366 -2.72952,-0.14366c-2.32249,0 -4.53724,0.31126 -6.64424,0.93379c-2.10699,0.61055 -3.97455,1.54433 -5.60269,2.80136c-1.61616,1.25701 -2.90311,2.83128 -3.86083,4.7228c-0.95772,1.87955 -1.43659,4.08829 -1.43659,6.62627c0,1.6401 0.25739,3.05874 0.77217,4.2559c0.52675,1.18518 1.25701,2.17284 2.1908,2.96298c0.94575,0.77814 2.0651,1.35878 3.35804,1.74187c1.29294,0.37113 2.70557,0.55669 4.23793,0.55669c1.16125,0 2.37037,-0.12569 3.6274,-0.37711c1.25701,-0.2514 2.49608,-0.58063 3.71717,-0.98765c1.23308,-0.40704 2.43023,-0.87394 3.59147,-1.40067c1.16125,-0.53872 2.23269,-1.08942 3.21438,-1.65207l-1.88552,22.14144c-1.23308,0.63448 -2.56193,1.19715 -3.98654,1.68799c-1.42461,0.47886 -2.89114,0.90386 -4.39955,1.27499c-1.50842,0.35915 -3.01684,0.63449 -4.52526,0.82604c-1.50842,0.17957 -2.95698,0.26937 -4.34569,0.26937c-3.98654,0 -7.7097,-0.73625 -11.16948,-2.20876c-3.45979,-1.48448 -6.46465,-3.51366 -9.01461,-6.08755c-2.53797,-2.57389 -4.53724,-5.60869 -5.99777,-9.10439c-1.46052,-3.50768 -2.1908,-7.29069 -2.1908,-11.34907c0,-5.37525 0.76619,-10.43922 2.29855,-15.19193c1.54433,-4.76468 3.80697,-8.93679 6.78789,-12.51628c2.9929,-3.59147 6.69212,-6.42276 11.09766,-8.49384c4.41751,-2.07108 9.50543,-3.10661 15.26377,-3.10661c2.16686,0 4.38759,0.17359 6.66218,0.52078c2.28656,0.33521 4.39956,0.97569 6.33895,1.92144zM247.13449,38.0609l-0.48484,19.98656l-14.04268,0.57464l-3.57351,44.67796l-19.89677,1.04152l0.08979,-44.6959l-14.04268,0.75421l0.55668,-22.24919zM306.13573,72.19789c0,2.86121 -0.32922,5.62067 -0.98765,8.27836c-0.65843,2.64571 -1.61017,5.13582 -2.85522,7.47027c-1.23308,2.32249 -2.74151,4.45342 -4.52526,6.39282c-1.7718,1.92741 -3.76506,3.58549 -5.9798,4.9742c-2.21474,1.37674 -4.627,2.44819 -7.23683,3.21438c-2.6098,0.76618 -5.37525,1.14928 -8.29631,1.14928c-2.82529,0 -5.5189,-0.35915 -8.08081,-1.07743c-2.56193,-0.73028 -4.96222,-1.74186 -7.2009,-3.0348c-2.22672,-1.30491 -4.24392,-2.87917 -6.05163,-4.7228c-1.80772,-1.84363 -3.34607,-3.88478 -4.61505,-6.12345c-1.26899,-2.25065 -2.25664,-4.66295 -2.96296,-7.23683c-0.70632,-2.57389 -1.05947,-5.26151 -1.05947,-8.06285c0,-2.72952 0.32921,-5.40517 0.98766,-8.02694c0.65843,-2.63376 1.60418,-5.11188 2.83727,-7.43435c1.24505,-2.32249 2.74749,-4.45941 4.50731,-6.41078c1.75982,-1.95137 3.72914,-3.63339 5.90799,-5.04603c2.1908,-1.41265 4.55519,-2.50805 7.09318,-3.28619c2.54994,-0.79013 5.24356,-1.18518 8.08082,-1.18518c4.5492,0 8.70334,0.70632 12.46241,2.11897c3.75908,1.41265 6.96147,3.42987 9.60721,6.05164c2.65769,2.62179 4.71681,5.79425 6.17734,9.51742c1.46052,3.72317 2.1908,7.88329 2.1908,12.48037zM285.21538,73.41898c0,-1.35279 -0.19753,-2.66368 -0.59259,-3.93266c-0.39506,-1.28096 -0.9697,-2.41228 -1.72391,-3.39394c-0.75421,-0.99365 -1.68799,-1.79574 -2.80136,-2.40629c-1.11336,-0.61055 -2.39431,-0.91582 -3.84287,-0.91582c-1.47251,0 -2.78938,0.26937 -3.95063,0.80807c-1.16125,0.52675 -2.16087,1.25701 -2.99887,2.1908c-0.83801,0.92181 -1.4785,2.00524 -1.92143,3.2503c-0.43099,1.23308 -0.64647,2.54397 -0.64647,3.93266c0,1.31688 0.18556,2.63376 0.55669,3.95063c0.38308,1.31688 0.95174,2.51404 1.70596,3.59147c0.75421,1.06547 1.68799,1.92741 2.80136,2.58586c1.11336,0.65843 2.41227,0.98766 3.89676,0.98766c1.47251,0 2.79536,-0.28732 3.96859,-0.86195c1.18518,-0.58662 2.18481,-1.37075 2.99888,-2.35242c0.81407,-0.99365 1.44258,-2.13692 1.88553,-3.42985c0.44295,-1.29294 0.66443,-2.62777 0.66443,-4.0045zM364.68127,60.02279c0,2.45419 -0.20951,4.68089 -0.62851,6.68014c-0.419,1.99925 -1.08941,3.8309 -2.01122,5.49497c-0.90985,1.66405 -2.08905,3.2024 -3.5376,4.61505c-1.43659,1.41265 -3.17845,2.76543 -5.2256,4.05836l11.22337,19.98656l-21.20767,4.14816l-7.27274,-20.0943l-5.83614,0.19754l-0.844,19.60946h-20.27388c0.15564,-7.17097 0.30528,-14.30604 0.44894,-21.40519c0.14366,-7.09915 0.30528,-14.23421 0.48485,-21.40519c0.07182,-3.60345 0.13768,-7.18296 0.19754,-10.73851c0.05985,-3.55555 0.18556,-7.14104 0.37712,-10.75647c2.20277,-0.81407 4.36963,-1.48447 6.50058,-2.01122c2.1429,-0.53872 4.28583,-0.95772 6.42874,-1.257c2.15488,-0.2993 4.3397,-0.50281 6.55444,-0.61056c2.21474,-0.10775 4.48935,-0.16161 6.8238,-0.16161c3.5795,0 7.03929,0.49681 10.37937,1.49046c3.35204,0.98167 6.31501,2.46614 8.8889,4.45343c2.58586,1.97532 4.65097,4.44145 6.1953,7.39844c1.55631,2.94502 2.33446,6.38086 2.33446,10.30753zM343.56341,61.53121c0,-1.31688 -0.17957,-2.52601 -0.53872,-3.6274c-0.35915,-1.10138 -0.89188,-2.04714 -1.5982,-2.83727c-0.70632,-0.8021 -1.58624,-1.4306 -2.63973,-1.88552c-1.0535,-0.4669 -2.28657,-0.70034 -3.69922,-0.70034c-0.63448,0 -1.25102,0.0419 -1.84961,0.12571c-0.58662,0.08381 -1.16722,0.20351 -1.74186,0.35914l-0.75421,17.5264h1.13133c1.35279,0 2.72952,-0.17359 4.1302,-0.52076c1.40067,-0.34718 2.6577,-0.87992 3.77104,-1.5982c1.11336,-0.71829 2.0232,-1.6401 2.72952,-2.76543c0.70632,-1.13729 1.0595,-2.49608 1.0595,-4.07633zM426.43896,41.65238l-25.93045,36.20208l-1.22109,29.50397h-22.33898l0.55669,-29.32439l-13.46804,-34.98097l24.02697,-3.01685l3.77105,20.36367l11.97758,-20.36367z" fill="#770000"/><path d="M112.16909,33.64338l-17.23909,65.61627l-23.38051,1.31089l-21.22563,-66.28069l22.35694,-2.06509l9.05052,38.64428l8.7632,-38.64428zM139.12984,33.35607l-5.17173,64.19764l-19.89677,1.04152v-63.92827zM188.57998,33.44586l-2.63973,19.89677c-0.90984,-0.2514 -1.81968,-0.42498 -2.72952,-0.52076c-0.90984,-0.09577 -1.81969,-0.14366 -2.72952,-0.14366c-2.32249,0 -4.53724,0.31127 -6.64424,0.9338c-2.10699,0.61055 -3.97455,1.54433 -5.60269,2.80136c-1.61616,1.25701 -2.90311,2.83128 -3.86083,4.7228c-0.95772,1.87955 -1.43659,4.0883 -1.43659,6.62627c0,1.6401 0.25739,3.05873 0.77217,4.2559c0.52675,1.18518 1.25701,2.17284 2.1908,2.96298c0.94575,0.77814 2.0651,1.35877 3.35804,1.74187c1.29294,0.37113 2.70557,0.55669 4.23793,0.55669c1.16125,0 2.37037,-0.12569 3.6274,-0.37711c1.25701,-0.2514 2.49608,-0.58063 3.71717,-0.98765c1.23308,-0.40704 2.43023,-0.87394 3.59147,-1.40067c1.16125,-0.53872 2.23269,-1.08942 3.21438,-1.65208l-1.88552,22.14144c-1.23308,0.63448 -2.56193,1.19715 -3.98654,1.68799c-1.42461,0.47886 -2.89114,0.90386 -4.39956,1.27499c-1.50842,0.35915 -3.01684,0.63449 -4.52526,0.82605c-1.50842,0.17957 -2.95698,0.26936 -4.34569,0.26936c-3.98654,0 -7.7097,-0.73625 -11.16948,-2.20876c-3.45979,-1.48448 -6.46465,-3.51366 -9.01461,-6.08755c-2.53797,-2.57389 -4.53724,-5.60869 -5.99777,-9.10439c-1.46052,-3.50768 -2.1908,-7.29069 -2.1908,-11.34907c0,-5.37525 0.76619,-10.43922 2.29855,-15.19193c1.54433,-4.76468 3.80697,-8.93679 6.78789,-12.51629c2.9929,-3.59147 6.69212,-6.42275 11.09766,-8.49383c4.41751,-2.07108 9.50544,-3.10662 15.26378,-3.10662c2.16686,0 4.38758,0.17359 6.66218,0.52078c2.28656,0.33521 4.39956,0.97569 6.33895,1.92145zM241.38814,32.31454l-0.48484,19.98656l-14.04268,0.57464l-3.57351,44.67796l-19.89677,1.04152l0.08979,-44.6959l-14.04268,0.75421l0.55669,-22.24919zM300.38937,66.45152c0,2.86121 -0.32922,5.62067 -0.98764,8.27836c-0.65843,2.64571 -1.61017,5.13582 -2.85523,7.47027c-1.23308,2.32249 -2.74151,4.45342 -4.52526,6.39283c-1.7718,1.92741 -3.76506,3.58548 -5.9798,4.9742c-2.21474,1.37674 -4.627,2.4482 -7.23682,3.21439c-2.6098,0.76618 -5.37525,1.14928 -8.29631,1.14928c-2.82529,0 -5.5189,-0.35915 -8.08081,-1.07743c-2.56193,-0.73028 -4.96223,-1.74186 -7.2009,-3.0348c-2.22672,-1.30491 -4.24392,-2.87917 -6.05163,-4.72279c-1.80772,-1.84363 -3.34607,-3.88479 -4.61505,-6.12346c-1.26899,-2.25065 -2.25664,-4.66294 -2.96296,-7.23682c-0.70632,-2.57389 -1.05947,-5.26152 -1.05947,-8.06286c0,-2.72952 0.32921,-5.40517 0.98766,-8.02694c0.65843,-2.63376 1.60418,-5.11188 2.83727,-7.43436c1.24505,-2.32249 2.74749,-4.45941 4.50731,-6.41078c1.75982,-1.95137 3.72914,-3.63338 5.90799,-5.04602c2.1908,-1.41265 4.55519,-2.50805 7.09317,-3.28619c2.54995,-0.79013 5.24356,-1.18518 8.08082,-1.18518c4.5492,0 8.70335,0.70632 12.46242,2.11897c3.75908,1.41265 6.96147,3.42987 9.60721,6.05163c2.65769,2.62179 4.7168,5.79425 6.17733,9.51742c1.46052,3.72317 2.1908,7.88329 2.1908,12.48037zM279.46903,67.67263c0,-1.35279 -0.19753,-2.66368 -0.59259,-3.93266c-0.39506,-1.28095 -0.9697,-2.41228 -1.72391,-3.39393c-0.75421,-0.99365 -1.68799,-1.79574 -2.80136,-2.40629c-1.11336,-0.61055 -2.39431,-0.91582 -3.84287,-0.91582c-1.47251,0 -2.78938,0.26937 -3.95063,0.80807c-1.16125,0.52675 -2.16087,1.25701 -2.99887,2.1908c-0.83801,0.92181 -1.4785,2.00524 -1.92143,3.2503c-0.43099,1.23308 -0.64647,2.54396 -0.64647,3.93266c0,1.31688 0.18556,2.63376 0.55669,3.95063c0.38308,1.31688 0.95175,2.51404 1.70596,3.59147c0.75421,1.06547 1.68799,1.92741 2.80135,2.58586c1.11337,0.65843 2.41228,0.98766 3.89677,0.98766c1.47251,0 2.79536,-0.28732 3.96859,-0.86195c1.18518,-0.58662 2.18481,-1.37075 2.99888,-2.35242c0.81407,-0.99365 1.44258,-2.13692 1.88553,-3.42985c0.44295,-1.29294 0.66442,-2.62776 0.66442,-4.00449zM358.9349,54.27642c0,2.45419 -0.20951,4.68089 -0.62851,6.68014c-0.419,1.99925 -1.08942,3.8309 -2.01123,5.49497c-0.90985,1.66405 -2.08905,3.2024 -3.5376,4.61505c-1.43659,1.41265 -3.17845,2.76543 -5.2256,4.05836l11.22337,19.98655l-21.20767,4.14815l-7.27274,-20.0943l-5.83614,0.19754l-0.844,19.60946h-20.27387c0.15564,-7.17097 0.30528,-14.30604 0.44894,-21.40519c0.14366,-7.09915 0.30527,-14.23421 0.48485,-21.40519c0.07182,-3.60345 0.13768,-7.18296 0.19754,-10.73851c0.05985,-3.55555 0.18556,-7.14104 0.37712,-10.75646c2.20277,-0.81407 4.36962,-1.48448 6.50057,-2.01123c2.1429,-0.53872 4.28583,-0.95772 6.42874,-1.25701c2.15488,-0.2993 4.3397,-0.50281 6.55444,-0.61056c2.21474,-0.10775 4.48935,-0.16161 6.82381,-0.16161c3.5795,0 7.03929,0.49681 10.37936,1.49046c3.35204,0.98167 6.31501,2.46614 8.88891,4.45343c2.58586,1.97532 4.65096,4.44146 6.19529,7.39845c1.55631,2.94502 2.33446,6.38085 2.33446,10.30752zM337.81704,55.78484c0,-1.31688 -0.17957,-2.52601 -0.53872,-3.6274c-0.35915,-1.10138 -0.89188,-2.04714 -1.5982,-2.83727c-0.70632,-0.8021 -1.58624,-1.4306 -2.63973,-1.88552c-1.0535,-0.4669 -2.28656,-0.70034 -3.69921,-0.70034c-0.63448,0 -1.25103,0.0419 -1.84961,0.12571c-0.58662,0.08381 -1.16721,0.20352 -1.74186,0.35915l-0.75421,17.52639h1.13133c1.35279,0 2.72952,-0.17359 4.1302,-0.52076c1.40067,-0.34717 2.65769,-0.87991 3.77104,-1.5982c1.11336,-0.71829 2.02321,-1.6401 2.72953,-2.76544c0.70632,-1.1373 1.05949,-2.49608 1.05949,-4.07633zM420.6926,35.90602l-25.93045,36.20208l-1.22109,29.50397h-22.33898l0.55669,-29.32439l-13.46803,-34.98097l24.02697,-3.01684l3.77104,20.36367l11.97758,-20.36367z" fill="url(#color-2)"/></g><text transform="translate(48.97339,153.00111) scale(0.64088,0.64088)" font-size="40" xml:space="preserve" fill="#ffffff" fill-rule="nonzero" stroke="none" stroke-width="1" stroke-linecap="butt" stroke-linejoin="miter" stroke-miterlimit="10" stroke-dasharray="" stroke-dashoffset="0" font-family="&quot;ヒラギノ角ゴ Pro W3&quot;, &quot;Hiragino Kaku Gothic Pro&quot;, Osaka, &quot;メイリオ&quot;, Meiryo, &quot;ＭＳ Ｐゴシック&quot;, &quot;MS PGothic&quot;" font-weight="normal" text-anchor="start" style="mix-blend-mode: normal"><tspan x="0" dy="0">You have defeated the bloons!</tspan></text><path d="M309.11557,323.58648c0,-7.16474 10.72821,-14.87201 14.00725,-14.87201c9.87664,0 47.69419,0.28692 65.34597,0.28692c3.82441,0 12.42161,8.76983 12.42161,16.99812c0,10.05142 0,41.94736 0,59.24121c0,10.10629 -4.991,14.61037 -8.75308,14.61037c-9.913,0 -50.539,1.43454 -69.75282,1.43454c-5.34563,0 -13.26901,-8.45636 -13.26901,-19.17335c0,-10.71693 0,-48.79133 0,-58.52582z" fill="url(#color-3)" stroke="#085001" stroke-width="0" stroke-linecap="butt"/><path d="M335.38865,310.07354c0,0 -4.96767,-0.17534 -10.41621,1.01166c-3.74392,0.81566 -7.71488,2.10771 -10.45716,5.21243c-2.85899,3.2369 -2.88329,7.8272 -3.4175,12.42551c-0.73382,6.31688 -1.30817,12.36577 -1.30817,12.36577c0,0 -0.72684,-6.39868 -0.38126,-13.51985c0.21678,-4.46659 -0.10324,-9.02383 3.42523,-13.06694c3.24754,-3.72108 7.71602,-4.81111 11.27982,-5.49752c6.20933,-1.19596 11.27532,1.06891 11.27532,1.06891z" fill="#bcff84" stroke="#dbffff" stroke-width="0" stroke-linecap="butt"/><path d="M305.0634,317.46146c0,-9.54893 3.29658,-11.8904 6.92186,-11.8904c10.91955,0 66.68709,0 86.20271,0c4.2282,0 6.75482,4.90465 6.75482,15.87109c0,13.39619 0,47.11128 0,70.15998c0,13.46934 -3.93202,12.82172 -8.0913,12.82172c-10.95974,0 -60.9506,0 -82.19322,0c-5.91002,0 -9.59484,-0.0313 -9.59484,-14.31453c0,-14.28316 -0.00003,-59.67416 -0.00003,-72.64792z" fill="none" stroke="#056300" stroke-width="2.5" stroke-linecap="butt"/><path d="M305.0634,317.46146c0,-9.54893 3.29658,-11.8904 6.92186,-11.8904c10.91955,0 66.68709,0 86.20271,0c4.2282,0 6.75482,4.90465 6.75482,15.87109c0,13.39619 0,47.11128 0,70.15998c0,13.46934 -3.93202,12.82172 -8.0913,12.82172c-10.95974,0 -60.9506,0 -82.19322,0c-5.91002,0 -9.59484,-0.0313 -9.59484,-14.31453c0,-14.28316 -0.00003,-59.67416 -0.00003,-72.64792z" fill="url(#color-4)" stroke="#3bbf1d" stroke-width="1.5" stroke-linecap="butt"/><path d="M328.28308,323.82845c6.65647,3.48509 9.07352,4.99807 16.17798,10.43741c7.10445,5.43934 15.93925,13.87427 17.22171,15.13424c1.28246,1.26 4.67143,3.59534 0.52188,8.69786c-4.14958,5.10252 -4.00531,5.46252 -11.82906,12.00303c-7.82375,6.5405 -19.17146,14.23007 -21.04878,15.48217c-1.87729,1.25209 -6.69252,4.18412 -7.82805,-2.08748c-2.04241,-11.28016 -2.89158,-18.58526 -2.95725,-29.22474c-0.0657,-10.63948 2.34042,-25.40349 2.60935,-27.13727c0.26894,-1.73378 0.47576,-6.79027 7.13224,-3.30521z" fill="#ffffff" stroke="#68b623" stroke-width="0.5" stroke-linecap="round"/><path d="M322.07196,308.78767c-2.25985,0.07583 -7.05181,0.92221 -9.86315,4.10516c-2.931,3.31843 -3.33707,9.73943 -3.88473,14.45364c-0.75231,6.47604 -1.34115,12.67738 -1.34115,12.67738c0,0 -0.74515,-6.55993 -0.39085,-13.86053c0.22224,-4.57915 -1.29684,-13.06231 2.32057,-17.20728c3.32937,-3.81485 7.77396,-2.37954 12.99319,-2.30133c5.45567,0.08175 11.08304,0.61944 11.08304,0.61944c0,0 -8.16488,1.42119 -10.91693,1.51355z" fill="#bcff84" stroke="#dbffff" stroke-width="0" stroke-linecap="butt"/><path d="M303.37523,320.33307c0,-3.77815 1.49629,-8.91721 4.76961,-11.9813c3.60046,-3.37026 9.0892,-4.48707 11.02605,-4.48707c11.13771,0 53.78367,0.31769 73.68921,0.31769c2.59799,0 7.77255,2.91161 10.98085,7.70564c2.11766,3.1643 3.02672,7.49429 3.02672,11.11706c0,11.1303 0,46.45006 0,65.6002c0,5.10853 0.07441,8.92444 -1.60403,11.5633c-1.99842,3.142 -5.96085,4.61538 -8.26662,4.61538c-11.17866,0 -56.99167,1.5885 -78.65875,1.5885c-3.01904,0 -9.26159,-1.73639 -12.25126,-5.57208c-2.97983,-3.82301 -2.7118,-9.73547 -2.7118,-15.65928c0,-11.86731 -0.00006,-54.02864 -0.00006,-64.80805z" fill="none" stroke="#ffffff" stroke-width="1.5" stroke-linecap="butt"/><path d="M360.5437,324.11027c6.65647,3.48509 9.07352,4.99807 16.17798,10.43741c7.10445,5.43934 15.93925,13.87427 17.22171,15.13424c1.28246,1.26 4.67143,3.59534 0.52188,8.69786c-4.14958,5.10252 -4.00531,5.46252 -11.82906,12.00303c-7.82375,6.5405 -19.17146,14.23007 -21.04878,15.48217c-1.87729,1.25209 -6.69252,4.18412 -7.82805,-2.08748c-2.04241,-11.28016 -2.89158,-18.58526 -2.95725,-29.22474c-0.0657,-10.63948 2.34042,-25.40349 2.60935,-27.13727c0.26894,-1.73378 0.47576,-6.79027 7.13224,-3.30521z" fill="#ffffff" stroke="#68b623" stroke-width="0.5" stroke-linecap="round"/><path d="M313.77785,408.97052c-0.05134,0.78935 -0.09787,1.57228 -0.13959,2.3488c-0.04171,0.7733 -0.09626,1.55624 -0.16364,2.3488l-5.35701,0.27917v1.59315h4.64948l-0.25509,3.91307l-4.41845,0.12995l0.02407,7.4796l-6.39183,0.12514l0.4043,-18.21768zM329.22677,415.00618c0,0.65779 -0.05615,1.25462 -0.16846,1.79048c-0.11231,0.53586 -0.292,1.02681 -0.53908,1.47282c-0.24386,0.44601 -0.55992,0.85834 -0.94818,1.23697c-0.38505,0.37863 -0.85192,0.74122 -1.40062,1.08776l3.0082,5.35701l-5.6843,1.11183l-1.94932,-5.38588l-1.56426,0.05295l-0.22622,5.25593h-5.43402c0.04171,-1.92204 0.08183,-3.83446 0.12033,-5.73725c0.0385,-1.90279 0.08182,-3.8152 0.12995,-5.73724c0.01925,-0.96584 0.0369,-1.92526 0.05294,-2.87826c0.01605,-0.953 0.04974,-1.91402 0.10108,-2.88306c0.59041,-0.21819 1.1712,-0.39788 1.74235,-0.53907c0.57437,-0.14439 1.14874,-0.25671 1.7231,-0.33693c0.57757,-0.08022 1.16318,-0.13476 1.75679,-0.16364c0.59361,-0.02888 1.20328,-0.04332 1.82898,-0.04332c0.95941,0 1.88675,0.13317 2.78199,0.39949c0.89845,0.26312 1.69261,0.661 2.3825,1.19365c0.6931,0.52945 1.2466,1.19045 1.66053,1.98301c0.41713,0.78935 0.62571,1.71027 0.62571,2.76273zM323.56655,415.41048c0,-0.35296 -0.04813,-0.67705 -0.1444,-0.97225c-0.09627,-0.29521 -0.23905,-0.5487 -0.42836,-0.76047c-0.18932,-0.21499 -0.42516,-0.38344 -0.70754,-0.50538c-0.28237,-0.12514 -0.61287,-0.18771 -0.9915,-0.18771c-0.17006,0 -0.33531,0.01123 -0.49574,0.03369c-0.15722,0.02246 -0.31286,0.05455 -0.46688,0.09627l-0.20216,4.69761h0.30323c0.36259,0 0.73159,-0.04653 1.10701,-0.13958c0.37542,-0.09305 0.71234,-0.23585 1.01076,-0.42837c0.29841,-0.19252 0.54228,-0.4396 0.7316,-0.74122c0.18932,-0.30483 0.28397,-0.66903 0.28397,-1.09258zM342.0664,408.97052c-0.05134,0.78935 -0.09787,1.57228 -0.13959,2.3488c-0.04171,0.7733 -0.09626,1.55624 -0.16364,2.3488l-5.35701,0.27917l-0.12514,1.59315h3.76387l-0.27917,3.91307l-3.78792,0.12995l-0.12995,1.84343h3.13334h2.22366c-0.04813,0.92732 -0.10107,1.84823 -0.15883,2.76273c-0.05455,0.91129 -0.10269,1.82578 -0.1444,2.74348l-10.88728,0.2551l0.4043,-18.21768zM354.4608,408.97052c-0.05134,0.78935 -0.09787,1.57228 -0.13959,2.3488c-0.04171,0.7733 -0.09626,1.55624 -0.16364,2.3488l-5.35701,0.27917l-0.12514,1.59315h3.76387l-0.27916,3.91307l-3.78793,0.12995l-0.12995,1.84343h3.13334h2.22366c-0.04813,0.92732 -0.10108,1.84823 -0.15883,2.76273c-0.05455,0.91129 -0.10268,1.82578 -0.14439,2.74348l-10.88729,0.2551l0.4043,-18.21768zM369.6083,415.03505c0,0.81502 -0.12193,1.53859 -0.3658,2.17072c-0.24386,0.63212 -0.57918,1.18403 -1.00594,1.65572c-0.42356,0.47168 -0.92252,0.87278 -1.49689,1.20328c-0.57115,0.32729 -1.18403,0.59362 -1.83862,0.79898c-0.65137,0.20536 -1.32682,0.35778 -2.02632,0.45725c-0.69951,0.09627 -1.38618,0.14761 -2.06001,0.15402v5.89127h-5.88645c0,-1.92845 0.00321,-3.84889 0.00963,-5.7613c0.00963,-1.91242 0.02246,-3.84248 0.0385,-5.7902c0.01925,-1.02681 0.02407,-2.05359 0.01444,-3.0804c-0.00963,-1.02681 0.01123,-2.06322 0.06257,-3.10928c1.07815,-0.32088 2.15628,-0.55993 3.23442,-0.71715c1.07815,-0.16044 2.18997,-0.24066 3.3355,-0.24066c0.64817,0 1.29633,0.05295 1.9445,0.15884c0.64817,0.10268 1.26906,0.26793 1.86268,0.49575c0.59683,0.22782 1.14873,0.5134 1.65571,0.85674c0.5102,0.34013 0.94979,0.74604 1.31879,1.21772c0.37221,0.47168 0.66582,1.00915 0.88081,1.6124c0.21499,0.60003 0.32248,1.27547 0.32248,2.02632zM364.00101,415.46342c0,-0.5487 -0.16685,-0.97546 -0.50056,-1.28029c-0.33371,-0.30804 -0.76529,-0.46206 -1.29474,-0.46206c-0.17649,0 -0.35938,0.01443 -0.5487,0.04332c-0.18932,0.02888 -0.369,0.06417 -0.53907,0.10589l-0.1492,3.69167c0.11552,0.01605 0.22782,0.02407 0.33692,0.02407c0.11231,0 0.22622,0 0.34173,0c0.30483,0 0.59843,-0.04973 0.88081,-0.1492c0.28237,-0.10268 0.53265,-0.24868 0.75085,-0.438c0.21819,-0.18932 0.39307,-0.41232 0.52463,-0.66902c0.13156,-0.2567 0.19734,-0.54549 0.19734,-0.86637zM381.40767,419.98776l-0.52944,5.60729l-10.63701,0.83267c0.05134,-2.93921 0.10749,-5.86079 0.16846,-8.76471c0.06417,-2.90713 0.14279,-5.83029 0.23585,-8.76951h6.56991c-0.19574,1.84503 -0.38184,3.68846 -0.55833,5.53028c-0.17649,1.83862 -0.30162,3.69327 -0.37542,5.56397c0.39468,0.01605 0.78454,0.02407 1.16959,0.02407c0.38826,0 0.78133,0 1.17922,0c0.47168,0 0.93374,-0.00321 1.38618,-0.00963c0.45564,-0.00963 0.91931,-0.01443 1.39099,-0.01443zM397.93474,426.10043l-6.26669,0.80861l-0.75566,-2.85419h-2.88307l-0.63052,2.85419l-6.44477,-0.63052l5.02972,-16.8315l7.02235,-0.35136zM390.45514,420.18991l-0.95781,-4.3992l-0.93856,4.3992zM412.86867,410.08235l-6.95015,9.70327l-0.32729,7.90796h-5.98753l0.1492,-7.85983l-3.60985,-9.37597l6.43996,-0.80861l1.01076,5.45809l3.21035,-5.45809z" fill="#ffffff" stroke="#000000" stroke-width="0.5" stroke-linecap="square"/><path d="M68.56435,325.80562c0,-7.16474 10.72821,-14.87201 14.00725,-14.87201c9.87664,0 47.69419,0.28692 65.34597,0.28692c3.82441,0 12.42161,8.76983 12.42161,16.99812c0,10.05142 0,41.94736 0,59.24121c0,10.10629 -4.991,14.61037 -8.75308,14.61037c-9.913,0 -50.539,1.43454 -69.75282,1.43454c-5.34563,0 -13.26901,-8.45636 -13.26901,-19.17335c0,-10.71693 0,-48.79133 0,-58.52582z" fill="url(#color-5)" stroke="#085001" stroke-width="0" stroke-linecap="butt"/><path d="M94.83741,312.29269c0,0 -4.96767,-0.17534 -10.41621,1.01166c-3.74392,0.81566 -7.71488,2.10771 -10.45716,5.21243c-2.85899,3.2369 -2.88329,7.8272 -3.4175,12.42551c-0.73382,6.31688 -1.30817,12.36577 -1.30817,12.36577c0,0 -0.72684,-6.39868 -0.38126,-13.51985c0.21678,-4.46659 -0.10324,-9.02383 3.42523,-13.06694c3.24754,-3.72108 7.71602,-4.81111 11.27982,-5.49752c6.20933,-1.19596 11.27532,1.06891 11.27532,1.06891z" fill="#bcff84" stroke="#dbffff" stroke-width="0" stroke-linecap="butt"/><path d="M64.51216,319.68061c0,-9.54893 3.29658,-11.8904 6.92186,-11.8904c10.91955,0 66.68709,0 86.20271,0c4.2282,0 6.75482,4.90465 6.75482,15.87109c0,13.39619 0,47.11128 0,70.15998c0,13.46934 -3.93202,12.82172 -8.0913,12.82172c-10.95974,0 -60.9506,0 -82.19322,0c-5.91002,0 -9.59484,-0.0313 -9.59484,-14.31453c0,-14.28316 -0.00003,-59.67416 -0.00003,-72.64792z" fill="none" stroke="#056300" stroke-width="2.5" stroke-linecap="butt"/><path d="M64.64148,319.87406c0,-9.54893 3.29658,-11.8904 6.92186,-11.8904c10.91955,0 66.68709,0 86.20271,0c4.2282,0 6.75482,4.90465 6.75482,15.87109c0,13.39619 0,47.11128 0,70.15998c0,13.46934 -3.93202,12.82172 -8.0913,12.82172c-10.95974,0 -60.9506,0 -82.19322,0c-5.91002,0 -9.59484,-0.0313 -9.59484,-14.31453c0,-14.28316 -0.00003,-59.67416 -0.00003,-72.64792z" fill="url(#color-6)" stroke="#0087d7" stroke-width="1.5" stroke-linecap="butt"/><path d="M81.52073,311.00681c-2.25985,0.07583 -7.05181,0.92221 -9.86315,4.10516c-2.931,3.31843 -3.33707,9.73943 -3.88473,14.45364c-0.75231,6.47604 -1.34115,12.67738 -1.34115,12.67738c0,0 -0.74515,-6.55993 -0.39085,-13.86053c0.22224,-4.57915 -1.29684,-13.06231 2.32057,-17.20728c3.32937,-3.81485 7.77396,-2.37954 12.99319,-2.30133c5.45567,0.08175 11.08304,0.61944 11.08304,0.61944c0,0 -8.16488,1.42119 -10.91693,1.51355z" fill="#ffffff" stroke="#dbffff" stroke-width="0" stroke-linecap="butt"/><path d="M62.82399,322.55221c0,-3.77815 1.49629,-8.91721 4.76961,-11.9813c3.60046,-3.37026 9.0892,-4.48707 11.02605,-4.48707c11.13771,0 53.78367,0.31769 73.68921,0.31769c2.59799,0 7.77255,2.91161 10.98085,7.70564c2.11766,3.1643 3.02672,7.49429 3.02672,11.11706c0,11.1303 0,46.45006 0,65.6002c0,5.10853 0.07441,8.92444 -1.60403,11.5633c-1.99842,3.142 -5.96085,4.61538 -8.26662,4.61538c-11.17866,0 -56.99167,1.5885 -78.65875,1.5885c-3.01904,0 -9.26159,-1.73639 -12.25126,-5.57208c-2.97983,-3.82301 -2.7118,-9.73547 -2.7118,-15.65928c0,-11.86731 -0.00006,-54.02864 -0.00006,-64.80805z" fill="none" stroke="#ffffff" stroke-width="1.5" stroke-linecap="butt"/><g stroke-width="0.5"><path d="M87.71768,393.35054l0.85955,-40.82865l50.49859,-2.14888l1.07444,42.97753z" fill="#ffffff" stroke="#00c0de" stroke-linecap="butt"/><path d="M113.26817,317.25312l36.24121,45.35938l-68.33011,-0.86731z" fill="#ffffff" stroke="#00c0de" stroke-linecap="round"/><path d="M136.26129,360.3834c1.78019,0 3.22331,1.44313 3.22331,3.22331c0,1.78019 -1.44313,3.22331 -3.22331,3.22331c-0.42996,0 -0.84026,-0.08418 -1.21531,-0.23697c-2.00628,0.73454 -4.93758,0.26073 -6.30576,0.23697c-7.90125,-0.1372 -15.922,0.23134 -24.03445,0c-0.93185,-0.02657 -10.18418,0.25994 -10.62932,-1.96576c-0.04523,-0.05188 -0.08882,-0.10522 -0.1307,-0.15994c-0.5723,0.51968 -1.33227,0.83638 -2.16621,0.83638c-1.78019,0 -3.22331,-1.44313 -3.22331,-3.22331c0,-1.78019 1.44313,-3.22331 3.22331,-3.22331c1.04411,0 1.97227,0.49644 2.56132,1.26616c0.32684,-0.2968 0.7149,-0.52738 1.14299,-0.67058c0.11957,-0.05792 0.24777,-0.1014 0.38616,-0.1278c4.90289,-0.93537 13.15817,1.63673 18.58334,1.25133c4.13246,-0.29357 8.66603,-2.00637 12.73932,-0.92465c1.8325,0.48665 5.57966,-0.19301 7.91004,0.70936c0.35955,-0.13854 0.75019,-0.21448 1.15858,-0.21448z" fill="#ffffff" stroke="none" stroke-linecap="butt"/><path d="M106.63712,384.44049v-17.4059h14.61236v17.4059z" fill="#00cfff" stroke="#00c0de" stroke-linecap="butt"/></g><path d="M102.36858,428.08749l-6.02035,0.28886l-0.04586,-5.56183h-2.76945l-0.16965,5.27296h-5.39218l0.45852,-16.92394l5.73149,0.26594l-0.36223,8.64308h2.67317l0.02293,-9.29417l5.48847,0.14673zM118.38579,419.59114c0,0.73057 -0.08406,1.43516 -0.25218,2.11377c-0.16813,0.67555 -0.41114,1.31137 -0.72904,1.90744c-0.31485,0.59301 -0.70001,1.13713 -1.15547,1.63233c-0.4524,0.49214 -0.96137,0.91551 -1.52687,1.2701c-0.56551,0.35154 -1.18145,0.62511 -1.84783,0.82074c-0.66638,0.19563 -1.3725,0.29345 -2.11835,0.29345c-0.72141,0 -1.40918,-0.0917 -2.06334,-0.27511c-0.65416,-0.18646 -1.26704,-0.44476 -1.83866,-0.7749c-0.56856,-0.33319 -1.08363,-0.73516 -1.5452,-1.2059c-0.46157,-0.47075 -0.85437,-0.99193 -1.17839,-1.56355c-0.32402,-0.57468 -0.5762,-1.19062 -0.75656,-1.84783c-0.18035,-0.65721 -0.27053,-1.34346 -0.27053,-2.05876c0,-0.69695 0.08406,-1.38014 0.25218,-2.04958c0.16813,-0.67249 0.40961,-1.30525 0.72446,-1.89827c0.3179,-0.59301 0.70153,-1.13865 1.15088,-1.63691c0.44935,-0.49825 0.95219,-0.92774 1.50853,-1.28844c0.55939,-0.3607 1.16311,-0.6404 1.81115,-0.83909c0.65109,-0.20175 1.33887,-0.30262 2.06334,-0.30262c1.16159,0 2.22229,0.18034 3.18212,0.54105c0.95983,0.3607 1.77752,0.87577 2.45307,1.54521c0.67861,0.66944 1.20437,1.47949 1.5773,2.43015c0.37293,0.95066 0.55939,2.0129 0.55939,3.18671zM113.04404,419.90293c0,-0.34542 -0.05043,-0.68014 -0.15131,-1.00416c-0.10088,-0.32707 -0.2476,-0.61594 -0.44018,-0.8666c-0.19258,-0.25371 -0.43101,-0.45852 -0.71529,-0.61442c-0.28428,-0.1559 -0.61136,-0.23384 -0.98123,-0.23384c-0.37598,0 -0.71223,0.06878 -1.00874,0.20633c-0.29651,0.1345 -0.55175,0.32097 -0.76573,0.55939c-0.21398,0.23537 -0.37752,0.51202 -0.49062,0.82992c-0.11004,0.31485 -0.16507,0.64956 -0.16507,1.00415c0,0.33625 0.04739,0.67249 0.14214,1.00874c0.09782,0.33625 0.24301,0.64193 0.43559,0.91703c0.19258,0.27206 0.43101,0.49215 0.71529,0.66027c0.28428,0.16812 0.61594,0.25218 0.99498,0.25218c0.37599,0 0.71377,-0.07336 1.01333,-0.22009c0.30262,-0.14978 0.55786,-0.35 0.76572,-0.60066c0.20786,-0.25371 0.36835,-0.54564 0.48145,-0.87577c0.1131,-0.33013 0.16965,-0.67096 0.16965,-1.0225zM137.8373,410.53998l-1.10503,17.66673l-5.48847,0.24302l0.04586,-9.31711l-2.48059,7.51054h-2.11835l-1.89827,-6.71731l-0.02751,7.7994l-5.55725,0.16966l0.23843,-16.63507l6.18542,-0.23843l2.45767,7.96447l3.27382,-8.44592zM150.11587,410.73255c-0.0489,0.75198 -0.09323,1.49783 -0.13297,2.23757c-0.03974,0.73669 -0.0917,1.48255 -0.1559,2.23757l-5.10332,0.26594l-0.11921,1.5177h3.58561l-0.26594,3.72776l-3.60854,0.12379l-0.1238,1.75613h2.98495h2.11836c-0.04585,0.88342 -0.09629,1.76071 -0.15132,2.6319c-0.05196,0.86813 -0.09781,1.73931 -0.13755,2.61356l-10.3717,0.24302l0.38515,-17.35494z" fill="#ffffff" stroke="#000000" stroke-width="0.5" stroke-linecap="square"/><path d="M189.11559,324.58648c0,-7.16474 10.72821,-14.87201 14.00725,-14.87201c9.87664,0 47.69419,0.28692 65.34597,0.28692c3.82441,0 12.42161,8.76983 12.42161,16.99812c0,10.05142 0,41.94736 0,59.24121c0,10.10629 -4.991,14.61037 -8.75308,14.61037c-9.913,0 -50.539,1.43454 -69.75282,1.43454c-5.34563,0 -13.26901,-8.45636 -13.26901,-19.17335c0,-10.71693 0,-48.79133 0,-58.52582z" fill="url(#color-7)" stroke="#085001" stroke-width="0" stroke-linecap="butt"/><path d="M215.38865,311.07355c0,0 -4.96767,-0.17534 -10.41621,1.01166c-3.74392,0.81566 -7.71488,2.10771 -10.45716,5.21243c-2.85899,3.2369 -2.88329,7.8272 -3.4175,12.42551c-0.73382,6.31688 -1.30817,12.36577 -1.30817,12.36577c0,0 -0.72684,-6.39868 -0.38126,-13.51985c0.21678,-4.46659 -0.10324,-9.02383 3.42523,-13.06694c3.24754,-3.72108 7.71602,-4.81111 11.27982,-5.49752c6.20933,-1.19596 11.27532,1.06891 11.27532,1.06891z" fill="#bcff84" stroke="#dbffff" stroke-width="0" stroke-linecap="butt"/><path d="M185.0634,318.46146c0,-9.54893 3.29658,-11.8904 6.92186,-11.8904c10.91955,0 66.68709,0 86.20271,0c4.2282,0 6.75482,4.90465 6.75482,15.87109c0,13.39619 0,47.11128 0,70.15998c0,13.46934 -3.93202,12.82172 -8.0913,12.82172c-10.95974,0 -60.9506,0 -82.19322,0c-5.91002,0 -9.59484,-0.0313 -9.59484,-14.31453c0,-14.28316 -0.00003,-59.67416 -0.00003,-72.64792z" fill="none" stroke="#056300" stroke-width="2.5" stroke-linecap="butt"/><path d="M185.19272,318.65492c0,-9.54893 3.29658,-11.8904 6.92186,-11.8904c10.91955,0 66.68709,0 86.20271,0c4.2282,0 6.75482,4.90465 6.75482,15.87109c0,13.39619 0,47.11128 0,70.15998c0,13.46934 -3.93202,12.82172 -8.0913,12.82172c-10.95974,0 -60.9506,0 -82.19322,0c-5.91002,0 -9.59484,-0.0313 -9.59484,-14.31453c0,-14.28316 -0.00003,-59.67416 -0.00003,-72.64792z" fill="url(#color-8)" stroke="#0087d7" stroke-width="1.5" stroke-linecap="butt"/><path d="M202.07197,309.78767c-2.25985,0.07583 -7.05181,0.92221 -9.86315,4.10516c-2.931,3.31843 -3.33707,9.73943 -3.88473,14.45364c-0.75231,6.47604 -1.34115,12.67738 -1.34115,12.67738c0,0 -0.74515,-6.55993 -0.39085,-13.86053c0.22224,-4.57915 -1.29684,-13.06231 2.32057,-17.20728c3.32937,-3.81485 7.77396,-2.37954 12.99319,-2.30133c5.45567,0.08175 11.08304,0.61944 11.08304,0.61944c0,0 -8.16488,1.42119 -10.91693,1.51355z" fill="#ffffff" stroke="#dbffff" stroke-width="0" stroke-linecap="butt"/><path d="M183.37523,321.33306c0,-3.77815 1.49629,-8.91721 4.76961,-11.9813c3.60046,-3.37026 9.0892,-4.48707 11.02605,-4.48707c11.13771,0 53.78367,0.31769 73.68921,0.31769c2.59799,0 7.77255,2.91161 10.98085,7.70564c2.11766,3.1643 3.02672,7.49429 3.02672,11.11706c0,11.1303 0,46.45006 0,65.6002c0,5.10853 0.07441,8.92444 -1.60403,11.5633c-1.99842,3.142 -5.96085,4.61538 -8.26662,4.61538c-11.17866,0 -56.99167,1.5885 -78.65875,1.5885c-3.01904,0 -9.26159,-1.73639 -12.25126,-5.57208c-2.97983,-3.82301 -2.7118,-9.73547 -2.7118,-15.65928c0,-11.86731 -0.00006,-54.02864 -0.00006,-64.80805z" fill="none" stroke="#ffffff" stroke-width="1.5" stroke-linecap="butt"/><g stroke-width="0.5" stroke-linecap="butt"><path d="M261.6772,370.83874c7.97501,12.74695 9.46672,26.1919 3.33183,30.03014c-6.13489,3.83824 -17.57323,-3.38369 -25.54825,-16.13064c-7.97501,-12.74695 -9.46672,-26.1919 -3.33183,-30.03014c6.13489,-3.83824 17.57323,3.38369 25.54825,16.13064z" fill="#ffffff" stroke="#00bede"/><path d="M263.21584,345.7581c0,17.76998 -14.73133,32.1754 -32.90335,32.1754c-18.17202,0 -32.90335,-14.40542 -32.90335,-32.1754c0,-17.76998 14.73133,-32.1754 32.90335,-32.1754c18.17202,0 32.90335,14.40542 32.90335,32.1754z" fill="#ffffff" stroke="#00bede"/><path d="M252.90154,346.17701c0,11.71273 -10.14586,21.20778 -22.66142,21.20778c-12.51556,0 -22.66142,-9.49505 -22.66142,-21.20778c0,-11.71273 10.14586,-21.20778 22.66142,-21.20778c12.51556,0 22.66142,9.49505 22.66142,21.20778z" fill="#00daff" stroke="#00bede"/><path d="M240.10116,373.8876c2.34628,-1.79235 6.48388,-2.65662 8.41817,-4.58116c0.6971,-0.69358 2.70857,-3.1732 3.63147,-3.44947c0.3561,-0.1066 0.67098,-0.18464 0.95203,-0.2298c0.15222,-1.05737 1.06195,-1.86992 2.16145,-1.86992c1.20611,0 2.18385,0.97774 2.18385,2.18385c0,1.08728 -0.79458,1.98898 -1.83475,2.1561c-0.15062,0.91826 -1.36948,1.79415 -1.81802,2.30357c-2.19773,2.49599 -5.82116,4.73285 -8.84611,6.12407c-0.70309,0.32336 -3.63227,2.14862 -4.39408,1.64075l-0.91893,-0.98446c-0.21362,0.98203 -1.0879,1.71749 -2.13394,1.71749c-1.20611,0 -2.18385,-0.97774 -2.18385,-2.18385c0,-1.20611 0.97774,-2.18385 2.18385,-2.18385c0.55455,0 1.06083,0.2067 1.44599,0.54726c0.29319,-0.44364 0.68785,-0.83533 1.15288,-1.19058z" fill="#ffffff" stroke="none"/></g><path d="M186.63841,416.05663c0,0.56023 -0.04782,1.06855 -0.14347,1.52494c-0.09565,0.45639 -0.24869,0.87452 -0.45912,1.25439c-0.2077,0.37987 -0.47689,0.73104 -0.80756,1.05352c-0.32794,0.32247 -0.72556,0.63129 -1.19289,0.92644l2.56206,4.56251l-4.84126,0.94693l-1.66021,-4.5871l-1.33227,0.0451l-0.19267,4.47643h-4.6281c0.03553,-1.63698 0.06969,-3.26577 0.10249,-4.88635c0.03279,-1.62059 0.06969,-3.24937 0.11068,-4.88636c0.01639,-0.82259 0.03143,-1.63972 0.0451,-2.45137c0.01367,-0.81167 0.04236,-1.63015 0.08608,-2.45547c0.50285,-0.18583 0.9975,-0.33887 1.48395,-0.45912c0.48918,-0.12297 0.97836,-0.21863 1.46755,-0.28696c0.49192,-0.06832 0.99066,-0.11478 1.49624,-0.13938c0.50557,-0.02459 1.02482,-0.03689 1.55773,-0.03689c0.81713,0 1.60693,0.11341 2.36939,0.34024c0.76521,0.22409 1.44158,0.56297 2.02915,1.01662c0.5903,0.45092 1.06172,1.01389 1.41425,1.68891c0.35527,0.67228 0.5329,1.45661 0.5329,2.353zM181.81765,416.40097c0,-0.30061 -0.041,-0.57664 -0.12297,-0.82805c-0.08199,-0.25142 -0.2036,-0.46732 -0.36483,-0.64769c-0.16124,-0.1831 -0.3621,-0.32657 -0.60259,-0.43042c-0.24049,-0.10658 -0.52197,-0.15987 -0.84446,-0.15987c-0.14484,0 -0.28558,0.00957 -0.42223,0.0287c-0.13391,0.01913 -0.26645,0.04646 -0.39763,0.08199l-0.17217,4.0009h0.25826c0.30882,0 0.62308,-0.03964 0.94283,-0.11889c0.31975,-0.07925 0.6067,-0.20086 0.86086,-0.36483c0.25415,-0.16397 0.46185,-0.3744 0.62309,-0.63129c0.16124,-0.25963 0.24185,-0.5698 0.24185,-0.93054zM197.57378,410.91612c-0.04372,0.67228 -0.08335,1.3391 -0.11888,2.00045c-0.03553,0.65861 -0.08199,1.32544 -0.13938,2.00046l-4.56251,0.23776l-0.10658,1.35686h3.20565l-0.23776,3.33272l-3.22615,0.11068l-0.11068,1.57003h2.66864h1.89387c-0.041,0.7898 -0.08608,1.57413 -0.13527,2.35299c-0.04646,0.77614 -0.08746,1.555 -0.12297,2.33659l-9.27259,0.21726l0.34434,-15.51582zM211.09785,411.34655l-3.93532,14.97881l-5.33728,0.29925l-4.84536,-15.13048l5.10362,-0.47142l2.06604,8.82167l2.00046,-8.82167zM217.25243,411.28096l-1.18059,14.65496l-4.54201,0.23776v-14.59348zM228.1878,410.91612c-0.04372,0.67228 -0.08335,1.3391 -0.11888,2.00045c-0.03553,0.65861 -0.08199,1.32544 -0.13938,2.00046l-4.56251,0.23776l-0.10658,1.35686h3.20565l-0.23776,3.33272l-3.22615,0.11068l-0.11067,1.57003h2.66864h1.89387c-0.041,0.7898 -0.08608,1.57413 -0.13527,2.35299c-0.04646,0.77614 -0.08746,1.555 -0.12297,2.33659l-9.27259,0.21726l0.34434,-15.51582zM247.96328,411.49412l-2.51696,14.91731l-6.11204,0.12707l-1.31177,-7.72716l-1.31177,7.16966l-6.11204,0.21316l-2.54156,-14.70006l5.33728,-0.47141l1.07812,8.93235l1.43885,-8.93234h4.19768l1.68071,9.03894l0.86086,-9.03894zM269.49634,410.74395l-0.98793,15.79458l-4.90685,0.21726l0.041,-8.32975l-2.21772,6.71464h-1.89387l-1.69711,-6.00546l-0.02459,6.9729l-4.96834,0.15168l0.21316,-14.87223l5.52994,-0.21316l2.19721,7.12047l2.92689,-7.55089zM283.66861,425.50549l-5.33728,0.68868l-0.64359,-2.43088h-2.45547l-0.53701,2.43088l-5.48895,-0.537l4.28377,-14.33522l5.98086,-0.29925zM277.29832,420.47157l-0.81576,-3.74675l-0.79936,3.74675zM296.43073,416.08123c0,0.69414 -0.10385,1.31041 -0.31155,1.84878c-0.2077,0.53837 -0.49328,1.00843 -0.85675,1.41016c-0.36074,0.40173 -0.78569,0.74333 -1.27488,1.02482c-0.48645,0.27875 -1.00842,0.50558 -1.56592,0.68049c-0.55477,0.17491 -1.13004,0.30471 -1.7258,0.38943c-0.59576,0.08199 -1.1806,0.12571 -1.7545,0.13118v5.01753h-5.01344c0,-1.64245 0.00273,-3.27807 0.0082,-4.90685c0.0082,-1.62878 0.01913,-3.27259 0.0328,-4.93144c0.01639,-0.87451 0.02049,-1.74904 0.0123,-2.62355c-0.0082,-0.87451 0.00957,-1.75723 0.05329,-2.64814c0.91824,-0.27328 1.83648,-0.47688 2.75473,-0.61079c0.91824,-0.13664 1.86517,-0.20496 2.8408,-0.20496c0.55204,0 1.10408,0.0451 1.65611,0.13527c0.55204,0.08745 1.08085,0.2282 1.58643,0.42223c0.50831,0.19403 0.97836,0.43725 1.41016,0.72967c0.43453,0.28969 0.80892,0.63539 1.1232,1.03713c0.31702,0.40173 0.56706,0.85948 0.75016,1.37327c0.1831,0.51105 0.27466,1.08631 0.27466,1.7258zM291.65506,416.44606c0,-0.46731 -0.14211,-0.83079 -0.42633,-1.09041c-0.28422,-0.26235 -0.65179,-0.39353 -1.10271,-0.39353c-0.15031,0 -0.30608,0.0123 -0.46731,0.03689c-0.16124,0.02459 -0.31428,0.05466 -0.45912,0.09019l-0.12708,3.14415c0.09838,0.01367 0.19403,0.0205 0.28696,0.0205c0.09565,0 0.19268,0 0.29105,0c0.25963,0 0.50967,-0.04235 0.75016,-0.12707c0.24049,-0.08745 0.45365,-0.2118 0.63949,-0.37304c0.18583,-0.16124 0.33478,-0.35117 0.44683,-0.5698c0.11205,-0.21863 0.16807,-0.46459 0.16807,-0.73787z" fill="#fdfdfd" stroke="#000000" stroke-width="0.5" stroke-linecap="square"/></g></g></svg>