<svg version="1.1" xmlns="http://www.w3.org/2000/svg" xmlns:xlink="http://www.w3.org/1999/xlink" width="114.3593" height="114.3593" viewBox="0,0,114.3593,114.3593"><defs><radialGradient cx="239.12569" cy="179.94229" r="16.6299" gradientUnits="userSpaceOnUse" id="color-1"><stop offset="0" stop-color="#ffffff"/><stop offset="1" stop-color="#6bd1ff"/></radialGradient><linearGradient x1="197.03252" y1="200.80815" x2="282.43859" y2="200.80815" gradientUnits="userSpaceOnUse" id="color-2"><stop offset="0" stop-color="#55d6ff"/><stop offset="1" stop-color="#82cfff"/></linearGradient></defs><g transform="translate(-182.15698,-122.82035)"><g data-paper-data="{&quot;isPaintingLayer&quot;:true}" fill-rule="nonzero" stroke-linejoin="miter" stroke-miterlimit="10" stroke-dasharray="" stroke-dashoffset="0" style="mix-blend-mode: normal"><path d="M192.05459,172.14408l27.81046,5.26144" fill="none" stroke="#72ebff" stroke-width="0.5" stroke-linecap="round"/><path d="M222.30788,170.07708l-27.99838,-15.03268" fill="none" stroke="#2593d3" stroke-width="0.5" stroke-linecap="round"/><path d="M211.22126,181.91533l-23.30066,0.93953" fill="none" stroke="#72ebff" stroke-width="0.5" stroke-linecap="round"/><path d="M190.73924,189.24375l27.81046,-3.94607" fill="none" stroke="#72ebff" stroke-width="0.5" stroke-linecap="round"/><path d="M192.43042,202.02153l27.43464,-11.0866" fill="none" stroke="#6be6ff" stroke-width="0.5" stroke-linecap="round"/><path d="M227.75722,194.69311l-26.49511,22.73693" fill="none" stroke="#6aeaff" stroke-width="0.5" stroke-linecap="round"/><path d="M226.62977,199.20292l-17.4755,19.91831" fill="none" stroke="#319dff" stroke-width="0.5" stroke-linecap="round"/><path d="M230.20004,201.45782l-14.28105,19.54248" fill="none" stroke="#4cd1ff" stroke-width="0.5" stroke-linecap="round"/><path d="M224.37487,226.63757l11.0866,-26.49511" fill="none" stroke="#58dcff" stroke-width="0.5" stroke-linecap="round"/><path d="M263.83567,174.96271l27.24674,-8.83169" fill="none" stroke="#92efff" stroke-width="0.5" stroke-linecap="round"/><path d="M295.96802,186.98886l-28.75001,-4.3219" fill="none" stroke="#76d3ff" stroke-width="0.5" stroke-linecap="round"/><path d="M280.74743,211.60487l-22.92484,-18.79085" fill="none" stroke="#6ae4ff" stroke-width="0.5" stroke-linecap="round"/><path d="M266.65429,192.06239l21.60947,10.71079" fill="none" stroke="#6ae4ff" stroke-width="0.5" stroke-linecap="round"/><path d="M267.59382,189.61959l22.54902,6.95261" fill="none" stroke="#6ae4ff" stroke-width="0.5" stroke-linecap="round"/><path d="M269.84872,219.68495l-13.71732,-18.97876" fill="none" stroke="#6ae4ff" stroke-width="0.5" stroke-linecap="round"/><path d="M260.07749,224.38265l-8.08007,-21.79739" fill="none" stroke="#359dff" stroke-width="0.5" stroke-linecap="round"/><path d="M249.55462,204.27645l5.44934,21.60947" fill="none" stroke="#359dff" stroke-width="0.5" stroke-linecap="round"/><path d="M247.48762,204.27645l2.06699,21.79739" fill="none" stroke="#359dff" stroke-width="0.5" stroke-linecap="round"/><path d="M243.91736,203.71271l-0.56372,23.48857" fill="none" stroke="#359dff" stroke-width="0.5" stroke-linecap="round"/><path d="M238.84382,228.89246l2.44282,-27.81046" fill="none" stroke="#359dff" stroke-width="0.5" stroke-linecap="round"/><path d="M236.2131,204.27645l-6.38889,24.42811" fill="none" stroke="#359dff" stroke-width="0.5" stroke-linecap="round"/><path d="M234.33403,226.26174l2.4428,-13.15359" fill="none" stroke="#359dff" stroke-width="0.5" stroke-linecap="round"/><path d="M258.0105,200.33036l14.28105,16.34804" fill="none" stroke="#359dff" stroke-width="0.5" stroke-linecap="round"/><path d="M258.76212,199.20292l16.34804,15.22058" fill="none" stroke="#359dff" stroke-width="0.5" stroke-linecap="round"/><path d="M264.9631,193.94147l20.66994,12.02615" fill="none" stroke="#359dff" stroke-width="0.5" stroke-linecap="round"/><path d="M281.49906,208.41043l-15.78432,-12.02615" fill="none" stroke="#359dff" stroke-width="0.5" stroke-linecap="round"/><path d="M263.83567,221.37613l-9.58334,-18.60295" fill="none" stroke="#359dff" stroke-width="0.5" stroke-linecap="round"/><path d="M266.65429,218.7454l-9.20752,-13.15359" fill="none" stroke="#359dff" stroke-width="0.5" stroke-linecap="round"/><path d="M277.74088,211.79279l-14.46896,-11.0866" fill="none" stroke="#359dff" stroke-width="0.5" stroke-linecap="round"/><path d="M289.39122,192.62611l-19.35458,-4.3219" fill="none" stroke="#359dff" stroke-width="0.5" stroke-linecap="round"/><path d="M267.78174,185.67349l25.74347,3.94609" fill="none" stroke="#359dff" stroke-width="0.5" stroke-linecap="round"/><path d="M199.19512,147.52806l22.92484,18.79086" fill="none" stroke="#52ccff" stroke-width="0.5" stroke-linecap="round"/><path d="M279.80786,145.64898l-18.79085,17.85131" fill="none" stroke="#8cfefe" stroke-width="0.5" stroke-linecap="round"/><path d="M290.33076,161.99702l-24.42811,10.52288" fill="none" stroke="#84eeff" stroke-width="0.5" stroke-linecap="round"/><path d="M265.90266,170.45291l23.48857,-10.71079" fill="none" stroke="#84eeff" stroke-width="0.5" stroke-linecap="round"/><path d="M280.18369,150.5346l-13.15359,12.02615" fill="none" stroke="#7de5fe" stroke-width="0.5" stroke-linecap="round"/><path d="M280.93533,155.98394l-15.4085,10.14706" fill="none" stroke="#7de5fe" stroke-width="0.5" stroke-linecap="round"/><path d="M222.49578,179.94229c0,-8.45799 7.44547,-15.31454 16.62991,-15.31454c9.18444,0 16.6299,6.85655 16.6299,15.31454c0,8.45799 -7.44546,15.31455 -16.6299,15.31455c-9.18444,0 -16.62991,-6.85656 -16.62991,-15.31455z" fill="none" stroke="url(#color-1)" stroke-width="0.5" stroke-linecap="butt"/><path d="M198.06767,178.90879c0,0 2.05202,37.99828 41.7157,38.52125c32.16632,0.42411 42.65524,-30.817 42.65524,-30.817c0,0 -0.30093,36.97458 -42.46733,36.07844c-53.36681,-1.13418 -41.9036,-43.78268 -41.9036,-43.78268z" fill="url(#color-2)" stroke="#77ffff" stroke-width="0" stroke-linecap="round"/><path d="M184.03198,180c0,-30.54391 24.76074,-55.30465 55.30465,-55.30465c30.54391,0 55.30465,24.76074 55.30465,55.30465c0,30.54391 -24.76074,55.30465 -55.30465,55.30465c-30.54391,0 -55.30465,-24.76074 -55.30465,-55.30465z" fill="none" stroke="#77ffff" stroke-width="3.75" stroke-linecap="butt"/><path d="M184.03198,180c0,-30.54391 24.76074,-55.30465 55.30465,-55.30465c30.54391,0 55.30465,24.76074 55.30465,55.30465c0,30.54391 -24.76074,55.30465 -55.30465,55.30465c-30.54391,0 -55.30465,-24.76074 -55.30465,-55.30465z" fill="none" stroke="#ffffff" stroke-width="2" stroke-linecap="butt"/></g></g></svg>