<svg version="1.1" xmlns="http://www.w3.org/2000/svg" xmlns:xlink="http://www.w3.org/1999/xlink" width="192.71367" height="135.43518" viewBox="0,0,192.71367,135.43518"><defs><linearGradient x1="319.08249" y1="203.02188" x2="363.27599" y2="201.04937" gradientUnits="userSpaceOnUse" id="color-1"><stop offset="0" stop-color="#242324"/><stop offset="1" stop-color="#111211"/></linearGradient><linearGradient x1="319.51358" y1="176.82991" x2="363.72801" y2="178.25771" gradientUnits="userSpaceOnUse" id="color-2"><stop offset="0" stop-color="#242324"/><stop offset="1" stop-color="#111211"/></linearGradient><linearGradient x1="257.04735" y1="190.5845" x2="275.97775" y2="190.46789" gradientUnits="userSpaceOnUse" id="color-3"><stop offset="0" stop-color="#ff7d05"/><stop offset="1" stop-color="#ff6902"/></linearGradient><radialGradient cx="291.11082" cy="127.80233" r="14.45916" gradientUnits="userSpaceOnUse" id="color-4"><stop offset="0" stop-color="#9d4c1b"/><stop offset="1" stop-color="#873f11"/></radialGradient><linearGradient x1="247.98009" y1="152.38025" x2="257.85301" y2="152.3194" gradientUnits="userSpaceOnUse" id="color-5"><stop offset="0" stop-color="#7a360f"/><stop offset="1" stop-color="#642d0a"/></linearGradient><linearGradient x1="250.50698" y1="132.71167" x2="258.48127" y2="132.66253" gradientUnits="userSpaceOnUse" id="color-6"><stop offset="0" stop-color="#7a360f"/><stop offset="1" stop-color="#642d0a"/></linearGradient><linearGradient x1="278.05896" y1="142.20754" x2="296.15687" y2="139.10866" gradientUnits="userSpaceOnUse" id="color-7"><stop offset="0" stop-color="#8b4115"/><stop offset="1" stop-color="#9d4b18"/></linearGradient></defs><g transform="translate(-171.75646,-108.26246)"><g data-paper-data="{&quot;isPaintingLayer&quot;:true}" fill-rule="nonzero" stroke-linejoin="miter" stroke-miterlimit="10" stroke-dasharray="" stroke-dashoffset="0" style="mix-blend-mode: normal"><path d="M302.39017,123.70177l-12.19239,-1.85277l-11.03395,15.49138l-2.52111,-10.93862l3.89419,-7.99859c0,0 8.13057,0.3558 12.41594,0.7683c3.96064,0.38121 12.57799,2.23252 12.57799,2.23252z" fill="none" stroke="#793813" stroke-width="0" stroke-linecap="round"/><path d="M227.38737,139.97428l-11.19263,1.58793l2.62765,-4.95288l-11.23825,-5.81675l11.57235,-1.59026l-0.76764,-1.32434c0,0 2.77932,-1.956 4.73613,-1.73804c1.95671,0.21796 4.95405,2.81756 4.95405,2.81756z" fill="none" stroke="#793813" stroke-width="0" stroke-linecap="round"/><path d="M259.33056,116.42328c0,0 0.09528,-12.27762 11.16107,-6.7143c10.83394,5.44675 3.49829,13.07961 3.49829,13.07961z" fill="none" stroke="#793813" stroke-width="0" stroke-linecap="round"/><path d="M232.26387,161.02003c-10.49759,-13.04891 -6.57618,-35.74453 3.90795,-43.69457c8.93877,-6.77818 30.93793,-0.00841 39.34173,6.21324c4.52631,3.35099 6.13634,31.91087 -2.80859,37.23212c-3.19948,1.90333 -30.31195,12.84011 -40.44111,0.24919z" fill="none" stroke="#793813" stroke-width="0" stroke-linecap="round"/><path d="M312.45773,136.25886l-3.97089,-4.44482l-1.70888,7.10884l-1.84402,-0.60209l-6.72954,-11.26323l6.54093,-5.123l1.40204,-0.00864l2.5731,5.15452l6.96107,6.17906z" fill="none" stroke="#793813" stroke-width="0" stroke-linecap="round"/><path d="M207.46319,204.14851c3.47843,1.76952 0.21084,6.99966 -2.38283,12.09824c-2.59367,5.09855 -10.24666,6.4782 -10.24666,6.4782c0,0 -0.29039,-7.4346 0.92754,-9.82871c2.59367,-5.09855 8.22349,-10.5172 11.70192,-8.74768z" fill="none" stroke="#292929" stroke-width="0" stroke-linecap="butt"/><path d="M183.95477,147.59953l19.13879,-8.26451l-1.31104,22.27535c0,0 -3.68399,-7.24464 -6.70533,-9.61912c-2.91761,-2.29298 -11.12238,-4.39175 -11.12238,-4.39175z" fill="none" stroke="#292929" stroke-width="0" stroke-linecap="round"/><path d="M196.38559,225.91099c0,0 0.70622,-7.08651 4.52886,-12.05375c3.11649,-4.04961 9.29538,-6.67802 9.29538,-6.67802l8.27232,20.40595z" fill="none" stroke="#292929" stroke-width="0" stroke-linecap="round"/><path d="M195.86408,175.64587c-3.74804,-7.28815 0.13449,-12.55151 0.13449,-12.55151l20.10636,1.86752l-9.30302,17.97977c0,0 -7.26266,1.0009 -10.93782,-7.29571z" fill="none" stroke="#292929" stroke-width="0" stroke-linecap="round"/><path d="M283.93741,138.53441l-14.12022,0.08698c0,0 -0.00621,-1.00986 -0.00889,-1.44365c-0.00221,-0.35598 0.75064,-0.97677 1.49442,-0.98135c2.15715,-0.01329 12.61974,-0.07775 12.61974,-0.07775z" data-paper-data="{&quot;index&quot;:null}" fill="none" stroke="#292929" stroke-width="0" stroke-linecap="butt"/><path d="M293.22544,136.06138c1.10345,-0.0068 1.87389,0.76351 1.87632,1.15986c0.00254,0.40848 0.00766,1.24436 0.00766,1.24436l-12.7237,0.07843l-0.01487,-2.41575c0,0 8.60463,-0.05301 10.85459,-0.06687z" data-paper-data="{&quot;index&quot;:null}" fill="none" stroke="#292929" stroke-width="0" stroke-linecap="butt"/><path d="M316.6221,138.33306l-14.12021,0.087c0,0 -0.00621,-1.00987 -0.00888,-1.44365c-0.00221,-0.35598 0.75065,-0.97676 1.49443,-0.98134c2.15715,-0.01329 12.61973,-0.07776 12.61973,-0.07776z" data-paper-data="{&quot;index&quot;:null}" fill="none" stroke="#292929" stroke-width="0" stroke-linecap="butt"/><path d="M327.7864,137.0199c0.0025,0.40851 0.00766,1.24437 0.00766,1.24437l-12.72371,0.07842l-0.01488,-2.41574c0,0 8.60464,-0.05302 10.8546,-0.06688c1.10345,-0.0068 1.87389,0.76352 1.87632,1.15987z" data-paper-data="{&quot;index&quot;:null}" fill="none" stroke="#292929" stroke-width="0" stroke-linecap="butt"/><path d="M334.2948,138.11805c1.14587,-0.00707 2.59648,0.89854 2.59946,1.37909c0.00316,0.51371 0.00984,1.59435 0.00984,1.59435l-12.65531,0.07797l-0.01843,-2.98944c0,0 7.80605,-0.04808 10.06449,-0.06199z" data-paper-data="{&quot;index&quot;:null}" fill="none" stroke="#292929" stroke-width="0" stroke-linecap="butt"/><path d="M262.34367,142.77236l0.11558,18.76108" data-paper-data="{&quot;index&quot;:null}" fill="none" stroke="#292929" stroke-width="0" stroke-linecap="round"/><path d="M261.35502,142.56822l75.90007,-0.46765z" data-paper-data="{&quot;index&quot;:null}" fill="none" stroke="#292929" stroke-width="0" stroke-linecap="round"/><path d="M337.01911,160.28408l-0.11074,-17.97114" data-paper-data="{&quot;index&quot;:null}" fill="none" stroke="#292929" stroke-width="0" stroke-linecap="round"/><path d="M324.4484,141.22582l-62.55838,19.93723c0,0 -0.12814,-20.79532 -0.13151,-21.34471c-0.00286,-0.46684 0.81249,-1.30053 1.88533,-1.30713c6.07905,-0.03745 60.78553,-0.37452 60.78553,-0.37452z" data-paper-data="{&quot;index&quot;:null}" fill="none" stroke="#292929" stroke-width="0" stroke-linecap="butt"/><path d="M284.58489,243.61985c0,0 -10.46259,0.06447 -12.61974,0.07776c-0.74381,0.00459 -1.50421,-0.60692 -1.50641,-0.96287c-0.00268,-0.43381 -0.00889,-1.44365 -0.00889,-1.44365l14.12023,-0.08699z" fill="none" stroke="#292929" stroke-width="0" stroke-linecap="butt"/><path d="M293.88779,243.56248c-2.24999,0.01385 -10.8546,0.06687 -10.8546,0.06687l-0.01488,-2.41573l12.7237,-0.07841c0,0 0.00516,0.83584 0.00765,1.24435c0.00245,0.39635 -0.75841,1.17609 -1.86189,1.18288z" fill="none" stroke="#292929" stroke-width="0" stroke-linecap="butt"/><path d="M317.26958,243.41843c0,0 -10.46258,0.06448 -12.61973,0.07776c-0.74381,0.00459 -1.50421,-0.60693 -1.50641,-0.96288c-0.00268,-0.43381 -0.00889,-1.44364 -0.00889,-1.44364l14.12023,-0.08699z" fill="none" stroke="#292929" stroke-width="0" stroke-linecap="butt"/><path d="M326.57246,243.3611c-2.24999,0.01385 -10.85459,0.06687 -10.85459,0.06687l-0.01488,-2.41574l12.72371,-0.07841c0,0 0.00515,0.83586 0.00765,1.24437c0.00245,0.39635 -0.7584,1.17613 -1.86188,1.18292z" fill="none" stroke="#292929" stroke-width="0" stroke-linecap="butt"/><path d="M328.62709,197.90219l-13.18917,0.08124l-0.11283,-18.30967l13.18918,-0.08125z" fill="none" stroke="#292929" stroke-width="0" stroke-linecap="butt"/><path d="M334.92871,240.99997c-2.25844,0.01391 -10.06449,0.062 -10.06449,0.062l-0.01843,-2.98944l12.65533,-0.07797c0,0 0.00666,1.08061 0.00982,1.59435c0.00297,0.48055 -1.43641,1.40401 -2.58227,1.41104z" fill="none" stroke="#292929" stroke-width="0" stroke-linecap="butt"/><path d="M262.81008,218.47146l0.11559,18.76108" fill="none" stroke="#292929" stroke-width="0" stroke-linecap="round"/><path d="M337.83969,236.98118l-75.90007,0.46764z" fill="none" stroke="#292929" stroke-width="0" stroke-linecap="round"/><path d="M337.06936,218.80389l0.11073,17.97114" fill="none" stroke="#292929" stroke-width="0" stroke-linecap="round"/><path d="M358.29598,208.76404l-16.021,10.84169l-36.34332,-0.76354l13.21445,-13.53288z" fill="none" stroke="#292929" stroke-width="0" stroke-linecap="round"/><path d="M319.22346,175.04952l-14.41392,-15.32345l37.59918,-0.40235l16.43401,11.41074z" data-paper-data="{&quot;index&quot;:null}" fill="none" stroke="#292929" stroke-width="0" stroke-linecap="round"/><path d="M363.41685,204.20607l-43.88601,1.5051l-0.59981,-7.5528l44.20403,-0.2657z" fill="none" stroke="#292929" stroke-width="0" stroke-linecap="butt"/><path d="M363.62605,181.41595l-44.83031,-0.64812l0.82274,-6.63048l44.21158,0.96228z" data-paper-data="{&quot;index&quot;:null}" fill="none" stroke="#292929" stroke-width="0" stroke-linecap="butt"/><path d="M251.90561,219.40765c-0.67825,0.0093 -1.90436,-0.73496 -1.92448,-1.72482c-0.10119,-4.98012 -0.92134,-45.34645 -1.11268,-54.76391c-0.02548,-1.25388 1.19389,-1.97604 2.67849,-1.99644c6.72837,-0.0922 55.23522,-1.35851 55.23522,-1.35851l12.66592,12.84972l-0.14567,8.51863l-5.46861,0.04078l0.34088,16.82813l5.23246,0.12417l0.05779,9.37956l-13.47906,11.73507c0,0 -49.32325,0.30224 -54.08025,0.36751z" fill="none" stroke="#292929" stroke-width="0" stroke-linecap="round"/><path d="M250.11074,198.07556l-20.48202,0.12621l-0.09463,-15.36154l20.48201,-0.12622z" fill="none" stroke="#292929" stroke-width="0" stroke-linecap="butt"/><path d="M325.06381,241.10284c0,0 -54.70652,0.33704 -60.78553,0.37451c-1.07288,0.0066 -1.89842,-0.81695 -1.90131,-1.28378c-0.0034,-0.54935 -0.1315,-21.34471 -0.1315,-21.34471l62.79931,19.16483z" fill="none" stroke="#292929" stroke-width="0" stroke-linecap="butt"/><path d="M171.75646,157.86331l53.36524,3.29185l5.86279,11.30871l0.20672,33.5505l-5.96437,11.3816l-52.12566,2.01085z" fill="none" stroke="#292929" stroke-width="0" stroke-linecap="round"/><path d="M283.93741,138.53441l-14.12022,0.08698c0,0 -0.00621,-1.00986 -0.00889,-1.44365c-0.00221,-0.35598 0.75064,-0.97677 1.49442,-0.98135c2.15715,-0.01329 12.61974,-0.07775 12.61974,-0.07775z" data-paper-data="{&quot;index&quot;:null}" fill="#ff8303" stroke="none" stroke-width="0" stroke-linecap="butt"/><path d="M293.22544,136.06138c1.10345,-0.0068 1.87389,0.76351 1.87632,1.15986c0.00254,0.40848 0.00766,1.24436 0.00766,1.24436l-12.7237,0.07843l-0.01487,-2.41575c0,0 8.60463,-0.05301 10.85459,-0.06687z" data-paper-data="{&quot;index&quot;:null}" fill="#ff4500" stroke="none" stroke-width="0" stroke-linecap="butt"/><path d="M316.6221,138.33306l-14.12021,0.087c0,0 -0.00621,-1.00987 -0.00888,-1.44365c-0.00221,-0.35598 0.75065,-0.97676 1.49443,-0.98134c2.15715,-0.01329 12.61973,-0.07776 12.61973,-0.07776z" data-paper-data="{&quot;index&quot;:null}" fill="#ff8303" stroke="none" stroke-width="0" stroke-linecap="butt"/><path d="M327.7864,137.0199c0.0025,0.40851 0.00766,1.24437 0.00766,1.24437l-12.72371,0.07842l-0.01488,-2.41574c0,0 8.60464,-0.05302 10.8546,-0.06688c1.10345,-0.0068 1.87389,0.76352 1.87632,1.15987z" data-paper-data="{&quot;index&quot;:null}" fill="#ff4500" stroke="none" stroke-width="0" stroke-linecap="butt"/><path d="M322.95196,160.56827l-60.43045,0.37233l-0.10707,-17.3787l60.43043,-0.37233z" data-paper-data="{&quot;index&quot;:null}" fill="#1e1f1e" stroke="none" stroke-width="0" stroke-linecap="butt"/><path d="M336.58448,161.47174l-13.03405,0.0803l-0.11547,-18.73912l13.03406,-0.0803z" data-paper-data="{&quot;index&quot;:null}" fill="#111211" stroke="none" stroke-width="0" stroke-linecap="butt"/><path d="M277.8607,161.0436l-0.11073,-17.97114" data-paper-data="{&quot;index&quot;:null}" fill="none" stroke="#515151" stroke-width="0" stroke-linecap="round"/><path d="M289.70858,160.77308l-0.11073,-17.97113" data-paper-data="{&quot;index&quot;:null}" fill="none" stroke="#515151" stroke-width="0" stroke-linecap="round"/><path d="M302.15135,160.89388l-0.1095,-17.77362" data-paper-data="{&quot;index&quot;:null}" fill="none" stroke="#515151" stroke-width="0" stroke-linecap="round"/><path d="M323.76519,142.98636l0.1144,18.56361" data-paper-data="{&quot;index&quot;:null}" fill="none" stroke="#515151" stroke-width="0" stroke-linecap="round"/><path d="M265.81773,161.71024l-0.10951,-17.77362" data-paper-data="{&quot;index&quot;:null}" fill="none" stroke="#515151" stroke-width="0" stroke-linecap="round"/><path d="M288.92113,161.17296l-0.11559,-18.76108" data-paper-data="{&quot;index&quot;:null}" fill="none" stroke="#070707" stroke-width="0" stroke-linecap="round"/><path d="M300.77266,161.49487l-0.11559,-18.76108" data-paper-data="{&quot;index&quot;:null}" fill="none" stroke="#070707" stroke-width="0" stroke-linecap="round"/><path d="M276.75896,142.48608l0.11557,18.76109" data-paper-data="{&quot;index&quot;:null}" fill="none" stroke="#070707" stroke-width="0" stroke-linecap="round"/><path d="M264.82916,161.51886l-0.11559,-18.76109" data-paper-data="{&quot;index&quot;:null}" fill="none" stroke="#070707" stroke-width="0" stroke-linecap="round"/><path d="M334.2948,138.11805c1.14587,-0.00707 2.59648,0.89854 2.59946,1.37909c0.00316,0.51371 0.00984,1.59435 0.00984,1.59435l-12.65531,0.07797l-0.01843,-2.98944c0,0 7.80605,-0.04808 10.06449,-0.06199z" data-paper-data="{&quot;index&quot;:null}" fill="#030403" stroke="none" stroke-width="0" stroke-linecap="butt"/><path d="M327.44116,141.74779l-2.11163,-3.07623" data-paper-data="{&quot;index&quot;:null}" fill="none" stroke="#444a44" stroke-width="0" stroke-linecap="round"/><path d="M331.62766,141.92119l-1.41594,-3.37945" data-paper-data="{&quot;index&quot;:null}" fill="none" stroke="#444a44" stroke-width="0" stroke-linecap="round"/><path d="M333.69753,138.22144l1.51743,3.67781" data-paper-data="{&quot;index&quot;:null}" fill="none" stroke="#222022" stroke-width="0" stroke-linecap="round"/><path d="M262.34367,142.77236l0.11558,18.76108" data-paper-data="{&quot;index&quot;:null}" fill="none" stroke="#070707" stroke-width="0" stroke-linecap="round"/><path d="M321.78916,142.80106l0.11559,18.76108" data-paper-data="{&quot;index&quot;:null}" fill="none" stroke="#070707" stroke-width="0" stroke-linecap="round"/><path d="M337.25506,142.10064l-75.90007,0.46765z" data-paper-data="{&quot;index&quot;:null}" fill="none" stroke="#515151" stroke-width="0" stroke-linecap="round"/><path d="M336.7088,160.286l-0.11073,-17.97114" data-paper-data="{&quot;index&quot;:null}" fill="none" stroke="#515151" stroke-width="0" stroke-linecap="round"/><path d="M324.4484,141.22582l-62.67887,0.3862c0,0 -0.00766,-1.24432 -0.01106,-1.79367c-0.00286,-0.46684 0.8125,-1.30053 1.88535,-1.30713c6.07905,-0.03745 60.78553,-0.37452 60.78553,-0.37452z" data-paper-data="{&quot;index&quot;:null}" fill="#1e1e1e" stroke="none" stroke-width="0" stroke-linecap="butt"/><path d="M284.58489,243.61985c0,0 -10.46259,0.06447 -12.61974,0.07776c-0.74381,0.00459 -1.50421,-0.60692 -1.50641,-0.96287c-0.00268,-0.43381 -0.00889,-1.44365 -0.00889,-1.44365l14.12023,-0.08699z" fill="#ff8303" stroke="none" stroke-width="0" stroke-linecap="butt"/><path d="M293.88779,243.56248c-2.24999,0.01385 -10.8546,0.06687 -10.8546,0.06687l-0.01488,-2.41573l12.7237,-0.07841c0,0 0.00516,0.83584 0.00765,1.24435c0.00245,0.39635 -0.75841,1.17609 -1.86189,1.18288z" fill="#ff4500" stroke="none" stroke-width="0" stroke-linecap="butt"/><path d="M317.26958,243.41843c0,0 -10.46258,0.06448 -12.61973,0.07776c-0.74381,0.00459 -1.50421,-0.60693 -1.50641,-0.96288c-0.00268,-0.43381 -0.00889,-1.44364 -0.00889,-1.44364l14.12023,-0.08699z" fill="#ff8303" stroke="none" stroke-width="0" stroke-linecap="butt"/><path d="M326.57246,243.3611c-2.24999,0.01385 -10.85459,0.06687 -10.85459,0.06687l-0.01488,-2.41574l12.72371,-0.07841c0,0 0.00515,0.83586 0.00765,1.24437c0.00245,0.39635 -0.7584,1.17613 -1.86188,1.18292z" fill="#ff4500" stroke="none" stroke-width="0" stroke-linecap="butt"/><path d="M328.62709,197.90219l-13.18917,0.08124l-0.11283,-18.30967l13.18918,-0.08125z" fill="#151515" stroke="none" stroke-width="0" stroke-linecap="butt"/><path d="M323.41716,236.06989l-60.43044,0.37234l-0.10707,-17.37869l60.43046,-0.37234z" fill="#1e1f1e" stroke="none" stroke-width="0" stroke-linecap="butt"/><path d="M337.04588,236.35896l-13.03405,0.08031l-0.11545,-18.73913l13.03403,-0.08029z" fill="#111211" stroke="none" stroke-width="0" stroke-linecap="butt"/><path d="M278.21639,218.77159l0.11073,17.97113" fill="none" stroke="#515151" stroke-width="0" stroke-linecap="round"/><path d="M290.17743,236.86716l-0.11074,-17.97114" fill="none" stroke="#515151" stroke-width="0" stroke-linecap="round"/><path d="M302.61657,236.39554l-0.10951,-17.77363" fill="none" stroke="#515151" stroke-width="0" stroke-linecap="round"/><path d="M324.33992,236.2617l-0.11439,-18.5636" fill="none" stroke="#515151" stroke-width="0" stroke-linecap="round"/><path d="M266.16615,218.2533l0.10949,17.77363" fill="none" stroke="#515151" stroke-width="0" stroke-linecap="round"/><path d="M289.38998,237.26702l-0.1156,-18.7611" fill="none" stroke="#070707" stroke-width="0" stroke-linecap="round"/><path d="M301.23665,236.79905l-0.11559,-18.76108" fill="none" stroke="#070707" stroke-width="0" stroke-linecap="round"/><path d="M277.2278,218.58015l0.11559,18.76108" fill="none" stroke="#070707" stroke-width="0" stroke-linecap="round"/><path d="M265.29558,237.21796l-0.11559,-18.76108" fill="none" stroke="#070707" stroke-width="0" stroke-linecap="round"/><path d="M334.92871,240.99997c-2.25844,0.01391 -10.06449,0.062 -10.06449,0.062l-0.01843,-2.98944l12.65533,-0.07797c0,0 0.00666,1.08061 0.00982,1.59435c0.00297,0.48055 -1.43641,1.40401 -2.58227,1.41104z" fill="#030403" stroke="none" stroke-width="0" stroke-linecap="butt"/><path d="M328.0309,237.45498l-2.07358,3.10202" fill="none" stroke="#444a44" stroke-width="0" stroke-linecap="round"/><path d="M330.8407,240.62649l1.37417,-3.39663" fill="none" stroke="#444a44" stroke-width="0" stroke-linecap="round"/><path d="M335.80219,237.20773l-1.47199,3.69624" fill="none" stroke="#222022" stroke-width="0" stroke-linecap="round"/><path d="M262.81008,218.47146l0.11559,18.76108" fill="none" stroke="#070707" stroke-width="0" stroke-linecap="round"/><path d="M322.25068,217.71029l0.11559,18.76108" fill="none" stroke="#070707" stroke-width="0" stroke-linecap="round"/><path d="M337.83969,236.98118l-75.90007,0.46764z" fill="none" stroke="#515151" stroke-width="0" stroke-linecap="round"/><path d="M337.69004,218.80006l0.11073,17.97113" fill="none" stroke="#515151" stroke-width="0" stroke-linecap="round"/><path d="M364.47013,203.45011l-22.19522,16.15562l-36.34332,-0.76354l13.21446,-13.53288z" fill="#0e100e" stroke="#000000" stroke-width="0" stroke-linecap="round"/><path d="M319.22346,175.04952l-14.41392,-15.32345l37.59918,-0.40235l21.43185,16.65583z" data-paper-data="{&quot;index&quot;:null}" fill="#0e100e" stroke="#000000" stroke-width="0" stroke-linecap="round"/><path d="M319.60077,173.1372l4.85382,0.23873l2.48784,0.95471" fill="none" stroke="#7a7a7a" stroke-width="0" stroke-linecap="round"/><path d="M326.79922,205.42652l-2.36186,1.06897l-5.00841,0.25552" data-paper-data="{&quot;index&quot;:null}" fill="none" stroke="#7a7a7a" stroke-width="0" stroke-linecap="round"/><path d="M363.41685,204.20607l-43.88601,1.5051l-0.59981,-7.5528l44.20403,-0.2657z" fill="url(#color-1)" stroke="#403f40" stroke-width="0" stroke-linecap="butt"/><path d="M363.62605,181.41595l-44.83031,-0.64812l0.82274,-6.63048l44.21158,0.96228z" data-paper-data="{&quot;index&quot;:null}" fill="url(#color-2)" stroke="#403f40" stroke-width="0" stroke-linecap="butt"/><path d="M251.90561,219.40765c-0.67825,0.0093 -1.90436,-0.73496 -1.92448,-1.72482c-0.10119,-4.98012 -0.92134,-45.34645 -1.11268,-54.76391c-0.02548,-1.25388 1.19389,-1.97604 2.67849,-1.99644c6.72837,-0.0922 55.23522,-1.35851 55.23522,-1.35851l12.66592,12.84972l-0.14567,8.51863l-5.46861,0.04078l0.34088,16.82813l5.23246,0.12417l0.05779,9.37956l-13.47906,11.73507c0,0 -49.32325,0.30224 -54.08025,0.36751z" fill="#393839" stroke="#000000" stroke-width="0" stroke-linecap="round"/><path d="M248.84689,163.89606l55.88587,-0.73934l11.3345,12.56967l0.1825,29.62274l-10.60211,10.13744l-55.68835,0.73811z" fill="#1e1f1e" stroke="#000000" stroke-width="0" stroke-linecap="round"/><path d="M316.37753,199.37415l-67.58113,0.41639l-0.12114,-19.66222l67.58113,-0.41637z" fill="#2a2b2a" stroke="#393839" stroke-width="0" stroke-linecap="butt"/><path d="M250.11074,198.07556l-20.48202,0.12621l-0.09463,-15.36154l20.48201,-0.12622z" fill="#2a2b2a" stroke="none" stroke-width="0" stroke-linecap="butt"/><path d="M316.49156,192.70101l-87.20381,0.53728l-0.04684,-7.60316l87.20381,-0.5373z" fill="#636163" stroke="none" stroke-width="0" stroke-linecap="butt"/><path d="M276.03701,200.08826l-19.24066,0.11855c0,0 1.78689,-6.51626 1.48861,-10.25057c-0.3363,-4.20963 -1.45198,-8.99107 -1.45198,-8.99107l19.08553,-0.1176c0,0 3.43678,3.72922 3.47201,9.44412c0.03872,6.28387 -3.35345,9.79654 -3.35345,9.79654z" fill="url(#color-3)" stroke="none" stroke-width="0" stroke-linecap="butt"/><path d="M250.2624,199.28132l-2.51676,0.01552l-0.00979,-1.58953l2.51676,-0.01552z" fill="#2a2b2a" stroke="none" stroke-width="0" stroke-linecap="butt"/><path d="M250.16139,182.88824l-2.51676,0.01553l-0.0135,-2.19291l2.51676,-0.01551z" fill="#2a2b2a" stroke="none" stroke-width="0" stroke-linecap="butt"/><path d="M325.06381,241.10284c0,0 -54.70652,0.33704 -60.78553,0.37451c-1.07288,0.0066 -1.89842,-0.81695 -1.90131,-1.28378c-0.0034,-0.54935 -0.01105,-1.79368 -0.01105,-1.79368l62.67886,-0.3862z" fill="#1e1e1e" stroke="none" stroke-width="0" stroke-linecap="butt"/><path d="M241.94954,220.40682l-11.89704,-2.01085l-1.36129,-11.3816l0.04718,-33.5505l1.33811,-11.30871l12.17996,-3.29185z" fill="#1e1e1e" stroke="#000000" stroke-width="0" stroke-linecap="round"/><path d="M282.29027,146.96069l-4.58643,-4.79161l1.4578,-5.17934l5.70996,2.24327z" fill="#cf8129" stroke="#000000" stroke-width="0" stroke-linecap="round"/><path d="M302.39017,123.70177l-12.19239,-1.85277l-11.03395,15.49138l-2.52111,-10.93862l3.89419,-7.99859c0,0 8.13057,0.3558 12.41594,0.7683c3.96064,0.38121 12.57799,2.23252 12.57799,2.23252z" fill="url(#color-4)" stroke="#000000" stroke-width="0" stroke-linecap="round"/><path d="M278.98693,137.0785l10.85816,-15.57798l13.24448,1.934l-6.01942,4.41872l-5.34165,0.64635l-7.11652,11.26092z" fill="#9d4c1b" stroke="#000000" stroke-width="0" stroke-linecap="round"/><path d="M227.38737,139.97428l-11.19263,1.58793l2.62765,-4.95288l-11.23825,-5.81675l11.57235,-1.59026l-0.76764,-1.32434c0,0 2.77932,-1.956 4.73613,-1.73804c1.95671,0.21796 4.95405,2.81756 4.95405,2.81756z" fill="#9f4c1b" stroke="#000000" stroke-width="0" stroke-linecap="round"/><path d="M269.30961,164.39932c0,0 3.64511,9.66376 -6.96299,10.10609c-12.98004,0.54126 -9.54932,-9.05501 -9.54932,-9.05501z" fill="#984416" stroke="#000000" stroke-width="0" stroke-linecap="round"/><path d="M259.33056,116.42328c0,0 0.09528,-12.27762 11.16107,-6.7143c10.83394,5.44675 3.49829,13.07961 3.49829,13.07961z" fill="#9b4618" stroke="#000000" stroke-width="0" stroke-linecap="round"/><path d="M265.93075,165.29134c0,0 1.89749,4.46859 -3.63508,4.66662c-6.76968,0.24233 -4.97703,-4.20071 -4.97703,-4.20071z" fill="#c77524" stroke="#000000" stroke-width="0" stroke-linecap="round"/><path d="M295.60312,131.5429l14.01694,-0.6998l-3.77255,13.51876l-10.95155,0.41804z" fill="#2a2c2a" stroke="#000000" stroke-width="0" stroke-linecap="round"/><path d="M305.32285,144.54033l4.03922,-12.90697l3.08056,2.17189l-3.33389,13.60365l-12.616,0.5159l-2.12366,-3.31695z" fill="#1e1f1e" stroke="#000000" stroke-width="0" stroke-linecap="round"/><path d="M300.30311,140.54014c-2.08104,0.0128 -3.77851,-1.6638 -3.79133,-3.74488c-0.01281,-2.08104 1.66381,-3.77852 3.74489,-3.79134c2.08104,-0.0128 3.77851,1.66381 3.79133,3.74489c0.01281,2.08104 -1.66381,3.77851 -3.74489,3.79133z" fill="#a3a3a3" stroke="none" stroke-width="0" stroke-linecap="butt"/><path d="M263.07432,117.62091c0,0 0.18278,-6.76258 6.03549,-3.82008c5.73012,2.8808 1.85026,6.91785 1.85026,6.91785z" fill="#c77324" stroke="#000000" stroke-width="0" stroke-linecap="round"/><path d="M232.26387,161.02003c-10.49759,-13.04891 -6.57618,-35.74453 3.90795,-43.69457c8.93877,-6.77818 30.93793,-0.00841 39.34173,6.21324c4.52631,3.35099 6.13634,31.91087 -2.80859,37.23212c-3.19948,1.90333 -30.31195,12.84011 -40.44111,0.24919z" fill="#a5501b" stroke="#000000" stroke-width="0" stroke-linecap="round"/><path d="M312.45773,136.25886l-3.97089,-4.44482l-1.70888,7.10884l-1.84402,-0.60209l-6.72954,-11.26323l6.54093,-5.123l1.40204,-0.00864l2.5731,5.15452l6.96107,6.17906z" fill="#da8b2d" stroke="#000000" stroke-width="0" stroke-linecap="round"/><path d="M265.70804,165.37092c-9.7308,1.21765 -17.15086,0.70053 -17.71121,-8.62498c-0.44401,-7.38949 13.77353,-14.13534 13.77353,-14.13534c0,0 -12.75785,-7.98021 -9.59496,-16.45973c3.95436,-10.6014 9.70818,-8.93385 19.90417,-5.24916c5.67903,2.05232 4.4558,14.40278 4.4558,14.40278l3.41989,0.35873l-2.36877,16.15368l-2.84796,0.01754c0,0 0.70038,12.31885 -9.03043,13.53654z" fill="#df9431" stroke="#000000" stroke-width="0" stroke-linecap="round"/><path d="M247.99528,154.84847l3.94502,-6.85966l5.89278,1.10292l-4.32005,7.6215z" fill="url(#color-5)" stroke="#000000" stroke-width="0" stroke-linecap="round"/><path d="M296.12773,138.4627c-3.70234,0.0228 -6.72221,-2.96001 -6.745,-6.66239c-0.0228,-3.70235 2.96001,-6.72221 6.66239,-6.74501c3.70234,-0.0228 6.7222,2.96003 6.74499,6.6624c0.0228,3.70235 -2.96,6.72219 -6.66238,6.74499z" fill="#ff4500" stroke="none" stroke-width="0" stroke-linecap="butt"/><path d="M252.24208,136.97308l-1.76144,-8.53338l6.26552,-0.03861l1.76145,8.53338z" fill="url(#color-6)" stroke="#000000" stroke-width="0" stroke-linecap="round"/><path d="M285.46374,141.76631l0.14149,-3.21627l-2.76231,0.83911l-0.015,-2.96065l-2.83854,0.15998l7.58237,-14.68433l10.22037,7.8719l-7.21965,12.02509z" fill="#d78f31" stroke="#000000" stroke-width="0" stroke-linecap="round"/><path d="M279.70442,133.98041l3.86354,4.97099l0.67469,-5.89446l11.63127,4.39922c0,0 -4.76698,9.2641 -7.53167,10.80793c-3.72377,2.07937 -9.52582,-1.63227 -9.52582,-1.63227z" fill="url(#color-7)" stroke="#000000" stroke-width="0" stroke-linecap="round"/><path d="M297.18655,135.28336l0.66435,-0.94228" fill="none" stroke="#cf872d" stroke-width="0" stroke-linecap="round"/><path d="M294.35642,132.75424l1.20952,0.52865l-0.52617,1.6116" fill="none" stroke="#cf872d" stroke-width="0" stroke-linecap="round"/><path d="M292.20959,132.36541l0.26146,-1.07382" fill="none" stroke="#cf872d" stroke-width="0" stroke-linecap="round"/><path d="M261.41591,124.11165c3.1996,-3.00427 8.48597,-2.64205 11.80746,0.80904c3.32144,3.4511 3.4203,8.6842 0.22069,11.68848c-3.1996,3.00427 -8.48597,2.64205 -11.8075,-0.80901c-3.32144,-3.4511 -3.42024,-8.68424 -0.22064,-11.68847z" fill="#ffffff" stroke="none" stroke-width="0" stroke-linecap="butt"/><path d="M269.11319,131.80728c1.76391,0.11323 3.10593,1.12761 2.9974,2.26584c-0.1085,1.13813 -1.62645,1.96902 -3.39037,1.85577c-1.76391,-0.11323 -3.10594,-1.12768 -2.9974,-2.26584c0.1085,-1.13813 1.62644,-1.96902 3.39037,-1.85576z" fill="#3d0a00" stroke="none" stroke-width="0" stroke-linecap="butt"/><path d="M260.11404,150.38552c3.72853,-3.00674 8.60828,-4.04011 11.4053,-0.65794c2.7971,3.3822 1.63662,8.02793 -2.09184,11.0347c-3.7285,3.00678 -10.48616,3.78369 -13.28325,0.40146c-2.7971,-3.3822 0.24126,-7.77144 3.96976,-10.77822z" data-paper-data="{&quot;index&quot;:null}" fill="#ffffff" stroke="none" stroke-width="0" stroke-linecap="butt"/><path d="M262.95959,153.73052c-0.07335,-1.14095 1.29929,-2.11353 3.06589,-2.17229c1.76661,-0.05876 3.2582,0.81852 3.33153,1.95951c0.07335,1.14095 -1.2993,2.11352 -3.0659,2.17225c-1.76661,0.05876 -3.25818,-0.81848 -3.33151,-1.95951z" data-paper-data="{&quot;index&quot;:null}" fill="#3d0a00" stroke="none" stroke-width="0" stroke-linecap="butt"/><path d="M274.54323,142.1793c0.24954,-0.01514 0.26468,0.23441 0.26468,0.23441l0.02328,0.41893c0.20283,0.61129 0.16357,1.17788 0.16406,1.81768c0,0 0.00019,0.25 -0.24981,0.25019c-0.25,0.00019 -0.25019,-0.2498 -0.25019,-0.2498c-0.00047,-0.61104 0.04087,-1.14127 -0.15492,-1.72286l-0.0315,-0.48385c0,0 -0.01514,-0.24954 0.23441,-0.26468z" fill="#6e310c" stroke="none" stroke-width="0.5" stroke-linecap="butt"/></g></g></svg>