<svg version="1.1" xmlns="http://www.w3.org/2000/svg" xmlns:xlink="http://www.w3.org/1999/xlink" width="46.16514" height="65.2389" viewBox="0,0,46.16514,65.2389"><g transform="translate(-216.92049,-147.38057)"><g data-paper-data="{&quot;isPaintingLayer&quot;:true}" fill="#868686" fill-rule="nonzero" stroke="#447717" stroke-width="0.5" stroke-linecap="round" stroke-linejoin="miter" stroke-miterlimit="10" stroke-dasharray="" stroke-dashoffset="0" style="mix-blend-mode: normal"><path d="M253.09273,148.82847c6.65648,-3.48506 6.8633,1.57143 7.13224,3.30521c0.26893,1.73378 2.67505,16.49779 2.60935,27.13727c-0.06567,10.63948 -0.91484,17.94458 -2.95725,29.22474c-1.13553,6.2716 -5.95076,3.33957 -7.82805,2.08748c-1.87732,-1.2521 -13.22503,-8.94167 -21.04878,-15.48217c-7.82375,-6.54051 -7.67948,-6.90051 -11.82906,-12.00303c-4.14955,-5.10252 -0.76058,-7.43786 0.52188,-8.69786c1.28246,-1.25997 10.11726,-9.6949 17.22171,-15.13424c7.10446,-5.43934 9.52151,-6.95232 16.17798,-10.43741z" data-paper-data="{&quot;index&quot;:null}"/></g></g></svg>