<svg version="1.1" xmlns="http://www.w3.org/2000/svg" xmlns:xlink="http://www.w3.org/1999/xlink" width="59.85774" height="34.07014" viewBox="0,0,59.85774,34.07014"><g transform="translate(-210.07113,-162.96493)"><g data-paper-data="{&quot;isPaintingLayer&quot;:true}" fill-rule="nonzero" stroke="none" stroke-width="0.5" stroke-linecap="butt" stroke-linejoin="miter" stroke-miterlimit="10" stroke-dasharray="" stroke-dashoffset="0" style="mix-blend-mode: normal"><path d="M223.10864,173.86986c-0.12779,-0.0744 -0.25733,-0.17373 -0.38688,-0.30328c-1.11082,-1.11082 0,-2.22165 0,-2.22165l-0.0706,0.11375c0.67908,-1.01392 1.42145,-1.99013 2.23627,-2.89857c1.96035,-2.52412 5.41887,-5.50918 8.87232,-5.58771c1.06339,-0.02418 2.27591,-0.02675 3.13363,0.60229c1.04699,0.76784 1.44999,4.05957 0.9418,5.12155c-1.36031,2.84269 -3.27316,1.50805 -5.4099,2.5388c-1.36746,0.65965 -2.6575,2.05904 -3.66961,3.16762c-0.50403,0.55207 -0.7496,1.37333 -1.38889,1.76078c-0.92743,0.56208 -2.1352,1.44501 -3.10724,0.96417c-0.97084,-0.48025 -0.87432,-1.99616 -1.11421,-3.05239c-0.01546,-0.06809 -0.0275,-0.13656 -0.03668,-0.20536z" fill="#8a8a8a"/><path d="M210.69211,188.75152c0.65815,-2.57262 1.91123,-4.80966 3.42081,-6.9989c0.82349,-1.23484 2.63432,-4.61479 4.03167,-5.0666c4.21747,-1.36365 4.49322,2.16005 4.10474,5.01456c-0.28031,2.05973 -1.71518,3.32539 -2.72552,5.01142c-1.39638,2.33023 -2.30717,6.35555 -4.48788,8.07243c-0.89762,0.7067 -1.9425,1.8247 -3.05315,1.55712c-1.79371,-0.43214 -1.94259,-2.75407 -1.83088,-4.66158c-0.05239,-0.15666 -0.08077,-0.32431 -0.08077,-0.49859c0,-0.16242 0.02465,-0.31909 0.07041,-0.46646l0.1326,-0.46409c0.02139,-0.21414 0.04037,-0.40714 0.05297,-0.57237c0,0 0.03932,-0.51111 0.365,-0.92694z" fill="#8d8d8d"/><path d="M245.97518,165.2154c1.95244,0.71323 5.64329,1.28545 6.74025,2.87532c1.10354,1.59941 1.13486,4.83067 -1.42603,5.52787c-0.98541,0.26828 -1.84771,-0.87108 -2.76079,-1.32858c-2.10928,-1.05687 -4.43295,-1.67296 -5.32562,-4.11722c-0.13043,-0.35713 -0.16016,-0.73697 -0.16934,-1.12146c-0.19116,-0.32106 -0.27945,-0.76076 -0.04891,-1.33711c0.01633,-0.04083 0.03335,-0.08006 0.051,-0.11775c0.08919,-0.47257 0.39545,-1.16951 1.42133,-1.24279c0.90563,-0.06469 1.32523,0.43142 1.5181,0.86171z" fill="#8d8d8d"/><path d="M264.62409,175.33476c1.62093,1.79427 5.29333,3.76651 4.76171,6.65988c-0.22013,1.19806 -0.75387,2.63115 -1.85728,3.14719c-0.86125,0.40278 -1.79617,-0.63345 -2.65769,-1.03566c-4.36909,-2.03981 -5.14069,-5.50227 -6.00717,-9.83422c0,0 -0.30809,-1.54044 1.23235,-1.84852c1.54044,-0.30809 1.84852,1.23235 1.84852,1.23235c0.01792,0.08961 0.03512,0.1805 0.05178,0.27251c0.0949,-0.0179 0.19281,-0.02726 0.29291,-0.02726c0.3758,0 0.72078,0.13196 0.99113,0.35206l1.24698,0.99759l-0.02677,0.03346z" fill="#8d8d8d"/><path d="M219.85353,174.60295c0.16995,-0.26928 0.35324,-0.53019 0.54648,-0.78444l-0.109,-0.0545l0.73883,-1.47766c0.25189,-0.53136 0.79319,-0.89884 1.42031,-0.89884c0.71923,0 1.32558,0.48334 1.51193,1.14293l0.4643,1.50898c0.27943,0.56448 0.80849,1.07234 0.80944,1.69998c0.00018,0.12072 -0.0039,0.24101 -0.01169,0.36093h0.05371l0,2.26216c0,0.86761 -0.70333,1.57094 -1.57094,1.57094c-0.35163,0 -0.67628,-0.11553 -0.93806,-0.3107l-1.36835,-0.99517l0.02191,-0.03013l-0.11846,-0.04604c-0.31532,-0.31397 -0.63063,-0.62795 -0.94595,-0.94192c-0.07889,-0.02767 -0.16028,-0.0621 -0.24417,-0.10405c-0.7619,-0.38095 -0.9041,-0.96847 -0.87463,-1.42653c-0.07772,-0.38862 -0.0097,-0.86468 0.46636,-1.34074c0.04936,-0.04936 0.09872,-0.09433 0.14798,-0.13521z" fill="#c8c8c8"/><path d="M237.95808,163.10278c2.90757,0.44518 6.66362,0.30055 6.90096,4.17723c0.07236,1.18192 0.49694,2.70249 -0.3445,3.53564c-0.68333,0.67659 -1.90783,-0.243 -2.86225,-0.36049c-0.65969,-0.08121 -4.43691,-0.50929 -4.52754,-0.58771c-0.68313,-0.5911 -0.4818,-1.73157 -0.71873,-2.61259c-0.0778,-0.07025 -0.15131,-0.14438 -0.21995,-0.22269c-0.06009,-0.06856 -0.11715,-0.13916 -0.17153,-0.21154l-0.02805,0.02525l-1.12705,-1.25227c-0.25309,-0.27888 -0.4073,-0.64912 -0.4073,-1.05538c0,-0.86761 0.70333,-1.57094 1.57094,-1.57094c0.04313,0 0.08585,0.00174 0.1281,0.00515l1.74328,0.12452l-0.00145,0.02034z" fill="#c8c8c8"/><path d="M255.28226,169.93328c2.07192,0.6484 9.24143,3.91969 4.23699,7.10637c-0.84561,0.53846 -1.92259,-0.57488 -2.86006,-0.93004c-1.08861,-0.41241 -2.13876,-0.93292 -3.2522,-1.27266c0,0 -1.50147,-0.46199 -1.03948,-1.96346c0.00213,-0.00694 0.00429,-0.01383 0.00647,-0.02069l-0.52433,-1.04867c-0.11493,-0.2183 -0.17998,-0.46696 -0.17998,-0.73081c0,-0.86761 0.70333,-1.57094 1.57094,-1.57094c0.13344,0 0.263,0.01664 0.38671,0.04795l1.60031,0.3693l-0.00384,0.01665z" fill="#c8c8c8"/><path d="M224.69271,179.04772c0.09396,-0.18487 0.18618,-0.29758 0.18618,-0.29758l1.18214,-1.44176c2.63098,-2.63604 5.56592,-6.39518 9.39484,-7.27122c3.28806,-0.75229 7.83261,0.3208 11.01378,1.14883c0.99295,0.25846 3.40193,0.9027 4.12243,1.59575c0.05685,0.05468 0.112,0.11079 0.16562,0.16818l0.02073,-0.0228l1.37771,1.25246c0.31865,0.28751 0.51893,0.70371 0.51893,1.16669c0,0.79476 -0.59018,1.45167 -1.35618,1.55638l-1.60967,0.24764l-0.02995,-0.19471l-0.47988,0.18943c-4.65402,-2.30076 -9.75756,-4.33227 -14.95482,-2.23592c-2.8387,1.14501 -5.55364,4.58595 -7.66739,6.70068c0,0 -1.11082,1.11082 -2.22165,0c-1.11082,-1.11082 0,-2.22165 0,-2.22165c0.11145,-0.1114 0.22385,-0.22498 0.33718,-0.34043z" fill="#545454"/><path d="M218.99497,187.88322c0.0099,-0.21908 0.12934,-1.54034 1.57005,-1.54034c1.57094,0 1.57094,1.57094 1.57094,1.57094l-0.19182,1.12927c-1.5064,2.76173 -3.19338,4.91622 -5.42099,7.14504c0,0 -1.11082,1.11082 -2.22165,0c-1.11082,-1.11082 0,-2.22165 0,-2.22165c1.93144,-1.93035 3.37848,-3.7466 4.69347,-6.08327z" fill="#545454"/><path d="M269.54834,185.25059c-0.98136,1.2267 -2.20806,0.24534 -2.20806,0.24534l-0.34956,-0.32431c-2.94135,-1.47991 -5.87969,-2.01505 -8.3974,-4.2643c0,0 -1.1624,-1.05673 -0.10567,-2.21913c1.05673,-1.1624 2.21913,-0.10567 2.21913,-0.10567c2.17924,2.02624 5.06563,2.47442 7.68904,3.77892l0.90719,0.68109c0,0 1.2267,0.98136 0.24534,2.20806z" fill="#545454"/><path d="M214.38426,196.15689c-0.70255,-1.40509 0.70255,-2.10764 0.70255,-2.10764l-0.15693,0.16859c2.11077,-2.09245 4.56767,-3.35386 6.40077,-5.75374c0,0 0.95782,-1.24517 2.20299,-0.28735c1.24517,0.95782 0.28735,2.20299 0.28735,2.20299c-1.95039,2.52005 -4.48598,3.85304 -6.66946,6.05974l-0.65963,0.41994c0,0 -1.40509,0.70255 -2.10764,-0.70255z" fill="#343434"/><path d="M251.96607,178.98494c-0.49678,1.49033 -1.9871,0.99355 -1.9871,0.99355l-0.75405,-0.25135c-1.65264,-0.55462 -3.39894,-0.69622 -5.0387,-1.2607c-1.03587,-0.35659 -1.93567,-1.08341 -3.0004,-1.34133c-5.46478,-1.32378 -10.10576,3.1358 -12.30357,7.59532c0,0 -0.70255,1.40509 -2.10764,0.70255c-1.40509,-0.70255 -0.70255,-2.10764 -0.70255,-2.10764c2.92422,-5.78006 8.87924,-10.90681 15.84771,-9.24518c1.41834,0.3382 1.9534,0.96009 3.28337,1.42353c1.62016,0.56455 3.37242,0.70845 5.01533,1.25281l0.75405,0.25135c0,0 1.49033,0.49678 0.99355,1.9871z" fill="#343434"/><path d="M268.99149,186.41263c-0.25826,1.54957 -1.80783,1.29131 -1.80783,1.29131l-0.84903,-0.14453c-3.52797,-0.82219 -6.57887,-2.70613 -9.64438,-4.59144c0,0 -1.33791,-0.82333 -0.51458,-2.16123c0.82333,-1.33791 2.16123,-0.51458 2.16123,-0.51458c2.7566,1.69745 5.52813,3.48114 8.70421,4.20583l0.65907,0.10682c0,0 1.54957,0.25826 1.29131,1.80783z" fill="#343434"/><path d="M255.50822,175.01983c0.26413,0.01259 0.52256,0.06097 0.76962,0.15278c2.60098,0.96658 1.77645,4.65082 0.39829,5.86854c-1.99215,1.76023 -4.6355,0.91447 -5.48736,-1.66376c-0.12394,-0.37513 0.16556,-1.07257 0.56703,-1.7944c0.0743,-0.56683 0.16296,-1.12311 0.59291,-1.42901c0.16771,-0.11932 0.3462,-0.236 0.53278,-0.3464c0.12619,-0.18447 0.23337,-0.33967 0.30877,-0.45297c0,0 0.8714,-1.3071 2.1785,-0.4357c0.04957,0.03304 0.096,0.06671 0.13946,0.10092z" fill="#83ff0c"/><path d="M223.48937,185.46239c0.02653,0.02069 0.05321,0.0412 0.08005,0.0615c0.12518,0.09466 0.40637,0.293 0.56471,0.40834c-0.17839,-0.23739 -0.12944,-0.85011 -0.37745,-0.73342c-0.11604,0.0546 -0.19729,0.15216 -0.26731,0.26357zM220.8778,184.27677l0.7808,-1.11313c0.83374,-0.36025 1.60417,-1.22287 2.50122,-1.08074c3.29046,0.52134 4.42051,5.77437 0.59493,6.87144c-0.88132,0.25274 -1.83548,-0.28129 -2.66982,-0.6614c-0.63357,-0.28864 -1.08997,-0.86651 -1.63495,-1.29976c0,0 -1.21584,-0.99478 -0.22106,-2.21062c0.21092,-0.2578 0.43179,-0.41621 0.64889,-0.50579z" fill="#83ff0c"/></g></g></svg>