<svg version="1.1" xmlns="http://www.w3.org/2000/svg" xmlns:xlink="http://www.w3.org/1999/xlink" width="99.16043" height="34.91294" viewBox="0,0,99.16043,34.91294"><defs><linearGradient x1="239.99999" y1="163.04353" x2="239.99999" y2="196.95647" gradientUnits="userSpaceOnUse" id="color-1"><stop offset="0" stop-color="#fc8d00"/><stop offset="1" stop-color="#f62e00"/></linearGradient></defs><g transform="translate(-190.44,-162.54353)"><g data-paper-data="{&quot;isPaintingLayer&quot;:true}" fill="url(#color-1)" fill-rule="nonzero" stroke="#000000" stroke-width="1" stroke-linecap="square" stroke-linejoin="miter" stroke-miterlimit="10" stroke-dasharray="" stroke-dashoffset="0" style="mix-blend-mode: normal"><path d="M213.14198,164.76663l-1.20464,9.11868c-0.41679,-0.11183 -0.83867,-0.18807 -1.26564,-0.22872c-0.41679,-0.05083 -0.83359,-0.07624 -1.25038,-0.07624c-1.05724,0 -2.06873,0.14232 -3.03448,0.42697c-0.96575,0.28464 -1.81967,0.71668 -2.56177,1.29613c-0.74209,0.56929 -1.3368,1.28597 -1.78409,2.15006c-0.43713,0.86408 -0.65569,1.88066 -0.65569,3.04972c0,0.74209 0.11691,1.38762 0.35071,1.93658c0.24398,0.54896 0.57945,1.00641 1.00641,1.37237c0.43713,0.35581 0.9505,0.62011 1.54011,0.79293c0.58961,0.17282 1.24022,0.25923 1.95182,0.25923c0.52862,0 1.07757,-0.05591 1.64685,-0.16774c0.57945,-0.12199 1.14873,-0.27447 1.70784,-0.45746c0.56929,-0.19315 1.11823,-0.41171 1.64685,-0.65569c0.53878,-0.24398 1.03182,-0.49304 1.47912,-0.74719l-0.86917,10.14034c-0.55912,0.29481 -1.16906,0.55404 -1.82983,0.77768c-0.65061,0.22364 -1.32154,0.41679 -2.01282,0.57945c-0.69128,0.16266 -1.38254,0.28972 -2.07381,0.38122c-0.69128,0.08132 -1.35204,0.12199 -1.98232,0.12199c-1.82983,0 -3.53768,-0.33547 -5.12353,-1.00641c-1.58585,-0.68111 -2.96332,-1.61127 -4.13238,-2.7905c-1.1589,-1.17923 -2.07381,-2.57194 -2.74475,-4.17813c-0.67094,-1.60619 -1.00641,-3.33945 -1.00641,-5.19978c0,-2.46011 0.35071,-4.7779 1.05215,-6.95337c0.7116,-2.18564 1.74851,-4.09679 3.11072,-5.73349c1.37237,-1.64685 3.07005,-2.94298 5.09304,-3.8884c2.02298,-0.95558 4.35094,-1.43337 6.98387,-1.43337c0.99624,0 2.01282,0.08132 3.04972,0.24398c1.04707,0.15248 2.0179,0.44221 2.91249,0.86917zM239.81174,174.31226c0,1.12839 -0.09657,2.15005 -0.28972,3.06497c-0.19315,0.91492 -0.49812,1.75359 -0.91492,2.51602c-0.41679,0.76243 -0.95558,1.46895 -1.61635,2.11956c-0.66077,0.65061 -1.45879,1.27072 -2.39403,1.86033l5.13878,9.14917l-9.72862,1.90607l-3.3242,-9.21016l-2.66851,0.09149l-0.39646,8.98144h-9.28642c0.07116,-3.28354 0.13724,-6.55182 0.19823,-9.80486c0.07116,-3.25304 0.1474,-6.52133 0.22872,-9.80486c0.03049,-1.65702 0.061,-3.29879 0.09149,-4.9253c0.03049,-1.62652 0.0864,-3.26828 0.16774,-4.9253c1.00641,-0.37613 1.99757,-0.68619 2.97348,-0.93016c0.98607,-0.24398 1.97215,-0.43205 2.95824,-0.5642c0.98607,-0.14232 1.98741,-0.2389 3.00397,-0.28972c1.01658,-0.05083 2.05857,-0.07624 3.12596,-0.07624c1.63668,0 3.22255,0.22872 4.75756,0.68619c1.53503,0.45746 2.89216,1.13857 4.07138,2.04332c1.17923,0.90475 2.12464,2.03315 2.83625,3.38519c0.7116,1.35204 1.06741,2.92773 1.06741,4.72707zM230.14412,175.0137c0,-0.60994 -0.0864,-1.16398 -0.25923,-1.6621c-0.16266,-0.50829 -0.40663,-0.94542 -0.73193,-1.31138c-0.32531,-0.36597 -0.72685,-0.65061 -1.20464,-0.85392c-0.47779,-0.21348 -1.04199,-0.32022 -1.6926,-0.32022c-0.29481,0 -0.57945,0.02033 -0.85392,0.061c-0.26431,0.03049 -0.52862,0.08132 -0.79293,0.15248l-0.33547,8.03603h0.50321c0.62011,0 1.25038,-0.07624 1.89083,-0.22872c0.64044,-0.16266 1.21481,-0.40663 1.7231,-0.73193c0.51845,-0.33547 0.94032,-0.76243 1.26564,-1.28089c0.32531,-0.51845 0.48796,-1.13857 0.48796,-1.86033zM252.9695,164.73613l-2.37879,29.41459l-9.10343,0.4727v-29.29261zM277.28574,164.24818l-0.21348,9.16443l-6.43491,0.25923l-1.6316,20.4789l-9.11868,0.4727l0.04575,-20.4789l-6.45017,0.35071l0.25923,-10.20133zM289.06,163.04353l-1.76884,22.72045h-7.99027l-0.82343,-22.72045zM287.64188,192.42763c0,0.63028 -0.12199,1.21989 -0.36597,1.76884c-0.24398,0.54896 -0.57436,1.02674 -0.99116,1.43337c-0.40663,0.40663 -0.88442,0.72685 -1.43337,0.96066c-0.54896,0.24398 -1.13349,0.36597 -1.75359,0.36597c-0.63028,0 -1.21989,-0.12199 -1.76884,-0.36597c-0.54896,-0.23382 -1.02674,-0.55404 -1.43337,-0.96066c-0.40663,-0.40663 -0.73193,-0.88442 -0.97591,-1.43337c-0.23382,-0.54896 -0.35071,-1.13857 -0.35071,-1.76884c0,-0.62011 0.11691,-1.20973 0.35071,-1.76884c0.24398,-0.56929 0.56929,-1.05724 0.97591,-1.46387c0.40663,-0.41679 0.88442,-0.74719 1.43337,-0.99116c0.54896,-0.24398 1.13857,-0.36597 1.76884,-0.36597c0.62011,0 1.20464,0.12199 1.75359,0.36597c0.54896,0.24398 1.02674,0.57436 1.43337,0.99116c0.41679,0.40663 0.74719,0.89459 0.99116,1.46387c0.24398,0.55912 0.36597,1.14873 0.36597,1.76884z"/></g></g></svg>