<svg version="1.1" xmlns="http://www.w3.org/2000/svg" xmlns:xlink="http://www.w3.org/1999/xlink" width="95.86233" height="148.45996" viewBox="0,0,95.86233,148.45996"><defs><linearGradient x1="234.83314" y1="116.85675" x2="234.83314" y2="199.7204" gradientUnits="userSpaceOnUse" id="color-1"><stop offset="0" stop-color="#693013"/><stop offset="1" stop-color="#a65120"/></linearGradient><linearGradient x1="234.27335" y1="119.03848" x2="234.27335" y2="195.46928" gradientUnits="userSpaceOnUse" id="color-2"><stop offset="0" stop-color="#693013"/><stop offset="1" stop-color="#a65120"/></linearGradient><linearGradient x1="221.55082" y1="184.23283" x2="221.55082" y2="191.43283" gradientUnits="userSpaceOnUse" id="color-3"><stop offset="0" stop-color="#282c28"/><stop offset="1" stop-color="#6c7066"/></linearGradient><linearGradient x1="245.15082" y1="184.03283" x2="245.15082" y2="191.23283" gradientUnits="userSpaceOnUse" id="color-4"><stop offset="0" stop-color="#282c28"/><stop offset="1" stop-color="#6c7066"/></linearGradient></defs><g transform="translate(-192.06885,-112.76441)"><g data-paper-data="{&quot;isPaintingLayer&quot;:true}" fill-rule="nonzero" stroke-linejoin="miter" stroke-miterlimit="10" stroke-dasharray="" stroke-dashoffset="0" style="mix-blend-mode: normal"><path d="M195.59011,250.22438v-16.66667h76v16.66667z" fill="#000000" stroke="none" stroke-width="0" stroke-linecap="butt"/><path d="M195.59011,234.64267l4.66667,-29h68.66667l2.66667,28.66667c0,0 -0.35536,0.06039 -1.67818,0.13856c-7.2784,0.43009 -74.32182,0.19477 -74.32182,0.19477z" fill="#222021" stroke="none" stroke-width="0" stroke-linecap="butt"/><path d="M259.63671,193.81914l-1.36677,-0.21023c-0.48716,-0.54602 -1.39075,-0.90972 -1.46148,-1.63805c-0.17706,-1.82325 3.53619,-4.19007 4.86899,-4.84878c4.02135,-1.98749 11.48447,-1.434 15.54279,-0.08342c3.91117,1.11953 9.05386,2.79173 10.23927,7.2755c0.94155,3.56137 0.37485,8.17038 -0.83036,11.53583c-0.91241,2.54781 -2.59886,4.88324 -5.80387,3.75817c-1.11931,-0.39292 -2.19605,-1.95467 -2.88901,-2.80939c-0.81801,-3.13032 0.55882,-7.6018 -0.80836,-10.41676c-2.2806,-4.69566 -12.47669,-3.31429 -16.37393,-2.33651c0,0 -0.65005,0.16251 -1.11727,-0.22637z" fill="#8a4118" stroke="none" stroke-width="0.5" stroke-linecap="butt"/><path d="M208.62255,192.89561c0.06458,-0.27982 0.24773,-0.57004 0.66925,-0.78081c1.11803,-0.55901 1.67705,0.55902 1.67705,0.55902l0.0575,0.27895c0.0231,0.04939 0.04175,0.09833 0.05643,0.14667c1.91436,1.61616 4.58839,2.96263 6.9852,3.75507c6.65138,2.5122 14.99108,2.71572 21.85591,0.97185c1.81118,-0.4601 3.51914,-1.9406 5.19431,-2.72436c2.05388,-0.96095 4.305,-1.19114 6.27545,-2.33247c6.0289,-3.85258 12.85645,3.56847 12.90716,9.46331c0.01767,2.05357 0.78683,6.05731 -1.88551,6.99568c-2.12714,0.74693 -3.42677,-1.73257 -4.6983,-2.58374c-1.28879,-0.86273 -3.27944,-1.43457 -4.78951,-1.80447c-2.22606,-0.65807 -3.51727,0.2629 -5.74106,0.24088c-0.82411,-0.00816 -2.6986,-1.32385 -3.54578,-0.94625c-0.56259,0.25075 -0.44492,1.15493 -0.56731,1.7586c-0.49465,2.43992 -0.32381,4.93537 -0.79608,7.38088c-0.96309,4.98709 -4.86282,5.20275 -9.22644,5.20843c-2.68154,0 -6.03784,0.21511 -8.45717,-1.18669c-1.84151,-1.067 -2.98131,-3.71725 -3.70781,-5.61016c-0.52722,-1.37368 -0.72493,-3.74893 -2.23454,-4.5563c-0.87333,-0.46707 -3.01069,-0.24337 -4.00049,-0.24685c-0.87673,-0.00308 -1.77648,0.06077 -2.60853,0.33712c-1.3951,0.46336 -1.95374,0.94522 -2.97741,1.94377c-0.64781,1.2956 -0.49634,4.34891 -2.64874,4.51863c-0.86206,0.06797 -1.23842,-1.22578 -1.71112,-1.94988c-1.50324,-2.30268 -2.29565,-5.05375 -2.10106,-7.78825c0.32927,-4.62712 2.8777,-7.86471 6.01859,-11.04862z" fill="#ffffff" stroke="none" stroke-width="0.5" stroke-linecap="butt"/><path d="M242.29817,200.47898c-7.43888,2.98437 -16.66773,3.64692 -23.35655,-1.30792c-0.13638,-0.06449 -0.36782,-0.19817 -0.53904,-0.42323c-0.20677,-0.20176 -0.77995,-0.88075 -0.12785,-1.69588c0.78087,-0.97609 1.75696,-0.19522 1.75696,-0.19522c0.03782,0.03046 0.07575,0.06069 0.11379,0.0907l0.24874,0.08348c1.88778,0.54634 3.54236,1.61055 5.48612,1.97316c3.5335,0.65918 8.22602,0.47016 11.74095,-0.2c1.37973,-0.26306 3.57722,-1.26722 5.16327,-1.2536c0.30738,-0.14154 0.60994,-0.28689 0.90723,-0.43569l1.1775,-0.58876c0.17371,-0.09145 0.37157,-0.14321 0.58151,-0.14321c0.69036,0 1.25,0.55964 1.25,1.25c0,0.44076 -0.22813,0.82825 -0.57276,1.05082l-1.18387,0.78925l-0.02772,-0.04158c-0.04565,0.04653 -0.0926,0.09193 -0.14099,0.13608c-0.5179,0.47252 -1.48194,0.73538 -2.47731,0.91159z" fill="#a8ac8f" stroke="none" stroke-width="0.5" stroke-linecap="butt"/><path d="M210.07251,215.53524c-0.06914,0.0093 -0.14294,0.01426 -0.22169,0.01426c-1.25,0 -1.25,-1.25 -1.25,-1.25l0.01256,-0.62323c-0.19994,-1.42081 -0.68508,-4.35977 0.26535,-5.56262c1.58807,-2.00984 3.50153,-0.16688 5.17232,0.15198c0.77679,0.14825 1.50153,-0.62197 2.29228,-0.61151c0.60398,0.00798 1.07995,0.66337 1.68395,0.66931c0.76923,0.00756 0.57028,-1.43304 0.93964,-2.10782c0.73853,-0.31972 1.41094,-0.94492 2.21558,-0.95916c0.54405,-0.00962 0.859,0.6948 1.36465,0.89581c1.54958,0.61602 4.80806,0.75604 5.6448,2.63703c0.45862,1.03098 -0.51441,2.19866 -0.70727,3.31044c-0.34143,1.96827 1.53491,3.73684 0.74568,5.81353c-0.33861,0.89098 -2.95847,3.03863 -3.85572,1.77215c0.11063,0.47115 0.18324,1.03544 0.03103,1.29244c-0.44627,0.7535 -1.10343,1.54959 -1.95462,1.7555c-1.07719,0.26059 -1.63812,0.22743 -1.90562,0.03614c-0.27433,0.3399 -0.56363,0.65939 -0.94541,0.8529c-4.45617,2.2586 -7.51635,-4.6786 -9.5275,-8.08715z" fill="#d38a34" stroke="none" stroke-width="0.5" stroke-linecap="butt"/><path d="M204.77944,212.14721c-0.6889,-0.58892 -0.24666,-1.4734 -0.24666,-1.4734l0.4,-0.8c2.26081,-4.51766 5.6787,-5.52366 10.51826,-5.47485c1.4443,0.46426 3.65734,0.63809 4.74409,1.81486c1.31926,1.42855 3.25604,6.99397 3.10129,8.91434c-0.08284,1.02809 0.00474,2.36032 -0.81626,2.98466c-2.0316,1.54496 -1.91953,-0.82781 -3.18319,-0.85448c-0.89183,-0.01882 -0.67803,1.966 -1.54226,2.18697c-0.73469,0.18785 -1.38621,-0.62219 -2.04172,-1.00347c-0.5938,-0.34539 -1.9501,-1.90277 -1.5783,-1.32514c0.5133,0.79746 0.60577,1.55109 0.51077,2.31611h0.05534v1.4c0,0.69036 -0.55964,1.25 -1.25,1.25c-0.29903,0 -0.57352,-0.105 -0.78865,-0.28014l-0.99222,-0.79378l0.04122,-0.05152l-0.18173,-0.07983c-1.89018,-2.80014 -4.34101,-5.22941 -6.45471,-7.86386c0,0 -0.30871,-0.38588 -0.29529,-0.86649z" fill="#b26525" stroke="none" stroke-width="0.5" stroke-linecap="butt"/><path d="M249.53607,204.59238l0.91003,-0.5454c0.82802,0.276 1.65569,0.55308 2.48307,0.83101c1.33007,0.66193 2.70278,1.19361 4.04758,1.82088c1.2376,0.57727 4.76809,1.71492 4.91774,3.40836c0.19226,2.17562 -2.51346,2.81116 -3.90393,2.48779c-0.4683,-0.10891 -0.53717,-0.8474 -0.95973,-1.07677c-1.65713,-0.8995 -4.58063,-1.82466 -6.45652,-2.26637c-1.45929,-0.34362 -1.90818,2.03633 -3.5868,-0.56187c-0.84256,-1.30412 0.63166,-2.79647 1.28723,-3.63804c0,0 0.52943,-0.66179 1.26134,-0.45958zM250.46462,206.7395c0.0607,0.00143 0.12073,0.00418 0.17942,0.00811c-0.04259,-0.01415 -0.08518,-0.0283 -0.12777,-0.04245c-0.01675,0.01174 -0.03396,0.02321 -0.05165,0.03434z" fill="#b26525" stroke="none" stroke-width="0.5" stroke-linecap="butt"/><path d="M205.06722,213.63383l-0.31443,-0.40364c-0.48002,-1.38599 -1.44535,-2.64539 -1.88783,-4.00207c-0.97135,-2.97821 -0.44707,-8.51987 1.66448,-10.84001c3.4115,-3.74851 15.14993,-4.61094 13.82347,2.65491c0.79206,0.32389 1.82785,0.08156 2.49039,0.62314c1.27821,1.04485 1.90564,6.646 0.98361,7.74657c-0.54736,0.65335 -5.30922,-1.07725 -6.24522,-1.13181c-3.79879,-0.22144 -6.21998,1.87652 -7.70299,5.08804c0.09445,0.35 0.0744,0.82283 -0.44701,1.23996c-0.04435,0.03548 -0.08831,0.06734 -0.1318,0.09582c-0.20011,0.31625 -0.66179,0.80832 -1.48798,0.4985c-1.04176,-0.39066 -0.80855,-1.36085 -0.7447,-1.56941z" fill="#dadada" stroke="none" stroke-width="0.5" stroke-linecap="butt"/><path d="M250.59307,204.97863c-0.0608,0.11146 -0.14506,0.22478 -0.25837,0.33809c-0.88388,0.88388 -1.76777,0 -1.76777,0l-0.75618,-0.79051c-1.0891,-1.79875 -2.53275,-8.21888 -0.17234,-9.78308c0.58391,-0.38694 1.40057,0.03515 2.10102,0.04285c3.47079,0.03815 6.50136,0.28533 9.73013,1.66908c2.74896,0.78074 6.09973,2.65515 5.1608,6.19153c-0.23906,0.90037 -1.18196,0.98116 -1.12983,1.95908c0.10639,1.99576 2.38476,4.15295 -1.27029,5.26421c-0.77189,0.23468 -3.84513,-1.91665 -4.60682,-2.35592c-2.04875,-1.1815 -4.6289,-1.9563 -7.03033,-2.53535z" fill="#dadada" stroke="none" stroke-width="0.5" stroke-linecap="butt"/><path d="M222.27982,138.05264c-0.46075,0.75176 -1.26746,1.08789 -1.26746,1.08789c-2.28292,0.95097 -5.04148,1.63726 -7.06922,3.09804c-3.60218,2.595 -5.69851,8.14212 -5.99961,12.3849c-0.23227,3.2729 1.08731,8.40251 -0.13823,11.44984c-2.31323,5.75194 -7.4283,3.58018 -11.04479,6.51624c0.4318,3.57459 0.13998,7.30619 3.1238,9.95076c2.28075,2.02145 4.65104,0.28065 7.1836,1.40878c2.31591,1.03162 4.11567,4.5358 6.34184,5.98534c7.2305,4.70809 16.66776,4.74964 24.93561,4.81714c4.01846,-1.03103 8.44432,-1.81606 12.23103,-3.57608c3.34345,-1.55399 5.05921,-5.78385 8.56334,-7.07073c2.53001,-0.92914 5.69943,0.95742 7.91637,-0.26798c2.49015,-1.37642 3.9455,-5.68912 4.57117,-8.21748c0.23038,-0.93097 0.30155,-1.89871 0.56174,-2.82179c0.11806,-0.41881 0.74266,-0.77927 0.56534,-1.17664c-0.46573,-1.04362 -6.81875,-1.31591 -6.91887,-1.32726c-3.59163,-7.20115 -2.29724,-14.63247 -4.20411,-22.23129c-0.99331,-3.9583 -4.83452,-5.6474 -5.81367,-9.65511c-0.71391,-2.92209 -0.19981,-7.45764 0.25841,-10.44124c0.1119,-0.72858 -1.10556,0.98141 -1.71504,1.39601c-1.23222,0.8382 -5.57359,3.59751 -6.94003,3.02913c-3.17589,-1.32102 -2.63662,-5.34314 -2.67022,-7.75828c0.01619,-0.70324 0.02129,-1.40681 0.04855,-2.10971c0.0105,-0.27071 0.3247,-0.73404 0.0647,-0.81016c-0.47385,-0.13873 -0.93911,0.3126 -1.42263,0.41259c-2.27581,0.47067 -4.55405,0.84039 -6.66007,1.93704c-5.7595,2.99913 -9.59067,6.92127 -13.0214,12.31243l0.06256,0.04838c0,0 -0.41428,1.24282 -1.54271,1.62923zM219.22595,134.47667l0.31571,-0.78602c4.38142,-6.88509 10.01794,-12.37936 17.86493,-15.21095c2.51624,-0.90799 7.75289,-2.56947 10.23098,-0.92698c2.48703,1.64843 2.07638,4.73286 2.11325,7.08012c-0.00957,0.49468 0.03815,0.99615 0.04154,1.49237c2.72562,-2.36307 7.21834,-4.5814 10.23317,-1.2255c0.95907,1.06757 0.57439,2.81672 0.7237,4.24403c0.27127,2.59312 -0.5623,5.57733 -0.06529,8.11473c0.37759,1.92767 1.57556,2.17653 2.70024,3.58941c1.49716,1.88082 2.46745,3.62319 3.0861,5.95548c0.63087,2.37837 0.35224,3.40312 0.66082,5.71601c0.59245,4.44061 1.52244,9.17206 1.53507,13.6527c2.92019,-0.84203 7.1731,0.53118 8.68113,3.47275c0.61287,1.19546 -0.07301,2.68972 -0.23466,4.02336c-0.53273,4.39492 -2.21007,8.87413 -5.17317,12.20268c-2.24409,2.52086 -2.81479,2.99106 -6.41559,3.26093c-0.64543,0.04837 -3.57394,-0.75762 -4.56196,-0.37086c-3.10801,1.21662 -5.07052,5.38466 -8.23665,6.92927c-4.20236,2.05014 -9.26741,2.92338 -13.76897,4.02392c-9.44133,0.06087 -20.04441,-0.21559 -28.2644,-5.58286c-1.32422,-0.86465 -3.59163,-2.96895 -4.6547,-4.17772c-0.38582,-0.43869 -0.46339,-1.21417 -1.00346,-1.43694c-1.61091,-0.66448 -3.58453,0.28116 -5.21748,-0.32717c-7.3795,-2.74911 -8.0212,-10.86094 -7.67513,-17.51329c0.96592,-1.00996 1.7159,-2.2841 2.89778,-3.02989c1.82623,-1.1524 7.17583,-0.42337 8.05743,-3.25386c0.8554,-2.74636 -0.36272,-7.22113 -0.13823,-10.15016c0.43802,-5.71512 3.222,-12.51777 8.00039,-16.01511c2.38177,-1.74322 5.43688,-2.57921 8.13079,-3.70196c0,0 0.04937,-0.02058 0.13667,-0.04847z" fill="url(#color-1)" stroke="none" stroke-width="0.5" stroke-linecap="butt"/><path d="M222.80994,134.43712l-0.06542,-0.05051c3.58398,-5.63196 7.61285,-9.7348 13.62961,-12.86788c2.20008,-1.14564 4.58921,-1.53051 6.96668,-2.0222c0.50511,-0.10447 0.99286,-0.57552 1.48789,-0.43059c0.27161,0.07952 -0.05641,0.56361 -0.06738,0.84641c-0.02848,0.73429 0.36694,1.46951 0.35003,2.20416c0.0351,2.52301 -0.92017,6.72794 2.39759,8.10797c1.42747,0.59376 5.96912,-2.2851 7.25638,-3.16074c0.63671,-0.43311 1.90928,-2.21898 1.79239,-1.45785c-0.47869,3.11686 -1.0078,7.86192 -0.262,10.91453c1.02289,4.18672 5.04649,5.96859 6.08417,10.10369c1.99205,7.93823 0.63967,15.73889 4.39172,23.26169c0.10459,0.01186 6.74196,0.29476 7.22849,1.385c0.18525,0.41511 -0.46785,0.79325 -0.59118,1.23077c-0.27182,0.96431 -0.34759,1.97861 -0.58826,2.95117c-0.65363,2.6413 -2.18029,7.15679 -4.78167,8.5947c-2.31596,1.28014 -5.63207,-0.68512 -8.27508,0.28552c-3.66065,1.34436 -5.46627,5.77221 -8.95906,7.39562c-3.95586,1.83864 -8.5969,2.66362 -12.79485,3.7407c-8.63715,-0.07051 -18.5302,-0.12258 -26.08367,-5.04096c-2.3256,-1.5143 -4.21484,-5.18276 -6.6342,-6.26047c-2.64568,-1.17852 -5.12642,0.63435 -7.50904,-1.47738c-3.11709,-2.7627 -2.81824,-6.67237 -3.26934,-10.40663c3.77803,-3.06721 9.12027,-0.80231 11.53683,-6.81117c1.28027,-3.18345 -0.09985,-8.56373 0.14279,-11.98281c0.31455,-4.43228 2.51484,-10.25202 6.27792,-12.96294c2.1183,-1.52603 5.01098,-2.25354 7.39586,-3.24699c0,0 0.84579,-0.35318 1.32712,-1.13852c1.17883,-0.40368 1.61567,-1.70428 1.61567,-1.70428z" data-paper-data="{&quot;noHover&quot;:false,&quot;origItem&quot;:[&quot;Path&quot;,{&quot;applyMatrix&quot;:true,&quot;segments&quot;:[[[438.65801,260.23961],[2.25686,-0.77284],[-0.9215,1.50351]],[[436.12308,262.41538],[0,0],[-4.56583,1.90194]],[[421.98465,268.61146],[4.05547,-2.92156],[-7.20436,5.19001]],[[409.98544,293.38125],[0.60219,-8.48554],[-0.46453,6.54579]],[[409.70898,316.28093],[2.45107,-6.09466],[-4.62647,11.50388]],[[387.6194,329.31342],[7.23299,-5.87213],[0.86361,7.14918]],[[393.86699,349.21493],[-5.96762,-5.28914],[4.5615,4.04289]],[[408.23419,352.0325],[-5.06512,-2.25626],[4.63183,2.06325]],[[420.91787,364.00319],[-4.45233,-2.8991],[14.461,9.41617]],[[470.78908,373.63746],[-16.53569,-0.13499],[8.03692,-2.06206]],[[495.25114,366.48531],[-7.57343,3.52004],[6.6869,-3.10799]],[[512.37783,352.34385],[-7.00826,2.57376],[5.06002,-1.85827]],[[528.21057,351.80789],[-4.43387,2.4508],[4.9803,-2.75284]],[[537.35291,335.37293],[-1.25135,5.05673],[0.46076,-1.86194]],[[538.47639,329.72935],[-0.52039,1.84616],[0.23611,-0.83763]],[[539.60706,327.37607],[0.35465,0.79473],[-0.93145,-2.08725]],[[525.76932,324.72156],[0.20024,0.0227],[-7.18325,-14.4023]],[[517.3611,280.25898],[3.81375,15.19764],[-1.98662,-7.9166]],[[505.73376,260.94876],[1.9583,8.01542],[-1.42782,-5.84417]],[[506.25058,240.06628],[-0.91644,5.96719],[0.22379,-1.45717]],[[502.82049,242.85829],[1.21897,-0.82918],[-2.46444,1.6764]],[[488.94044,248.91655],[2.73287,1.13675],[-6.35179,-2.64205]],[[483.6,233.4],[0.06719,4.83027],[0.03237,-1.40647]],[[483.6971,229.18058],[-0.05452,1.40579],[0.021,-0.54142]],[[483.8265,227.56025],[0.52,0.15224],[-0.94771,-0.27747]],[[480.98125,228.38544],[0.96703,-0.2],[-4.55163,0.94135]],[[467.66111,232.25953],[4.21203,-2.19331],[-11.51901,5.99825]],[[441.61831,256.88438],[6.86147,-10.78231],[0,0]],[441.74342,256.98114]],&quot;closed&quot;:true}]}" fill="url(#color-2)" stroke="none" stroke-width="0.5" stroke-linecap="butt"/><path d="M205.8047,186.96717c-2.9264,-6.09211 -5.04072,-15.38492 2.39366,-17.9477c1.02533,-0.35345 2.168,-0.07311 3.25245,-0.08664c7.38562,-0.09215 13.49543,3.19292 18.84461,8.05963c0.07501,0.04138 2.58654,1.52832 2.98101,1.40725c0.60058,-0.18433 0.78992,-1.01451 1.33011,-1.33524c2.47909,-1.47195 4.18484,-2.46018 6.53176,-4.22219c3.8453,-2.88696 9.26126,-4.26763 13.97088,-4.88599c2.38681,-0.31338 4.71289,-0.50934 6.88173,0.96606c3.23411,2.20007 3.39199,3.82038 3.35854,7.39294c-0.07084,7.56548 -5.59785,13.01565 -11.88972,16.20491c-3.42284,1.31647 -6.86937,2.55742 -10.26096,3.82593c-1.62306,0.60705 -2.43533,2.66601 -4.07418,3.22903c-1.18633,0.40755 -2.50853,-0.03546 -3.76288,-0.04393c-2.75122,-0.01856 -7.31616,0.75575 -9.79126,-0.55117c-1.36995,-0.72337 -1.87675,-2.68531 -3.3174,-3.25499c-4.443,-1.75688 -8.95744,-2.43835 -13.08746,-4.60369c-0.95694,-0.07887 -1.50042,-0.55417 -1.80907,-1.0686c-0.19311,-0.12829 -0.38517,-0.2609 -0.57613,-0.39812c0,0 -1.50128,-1.09185 -0.97568,-2.6875z" fill="#df9234" stroke="none" stroke-width="0.5" stroke-linecap="butt"/><path d="M197.42755,173.31569c0.06566,-0.32785 0.27477,-0.6843 0.82798,-0.86871c1.18586,-0.39529 1.58114,0.79057 1.58114,0.79057l0.25158,0.81851c0.27643,1.93505 0.62043,3.81979 0.98732,5.72681c0.62302,3.23836 -0.99074,6.50626 -4.53972,3.87531c-2.24522,-1.66444 -2.41219,-8.2878 -0.01593,-10.0394c0.26191,-0.19145 0.57753,-0.2634 0.90762,-0.30309z" fill="#df9234" stroke="none" stroke-width="0.5" stroke-linecap="butt"/><path d="M272.27326,173.01878c2.39627,1.7516 2.22929,8.37496 -0.01593,10.0394c-3.54898,2.63095 -5.16273,-0.63695 -4.53972,-3.87531c0.36689,-1.90702 0.71088,-3.79176 0.98732,-5.72681l0.25158,-0.81851c0,0 0.39529,-1.18586 1.58114,-0.79057c0.55321,0.1844 0.76231,0.54086 0.82798,0.86871c0.3301,0.03969 0.64571,0.11164 0.90762,0.30309z" data-paper-data="{&quot;index&quot;:null}" fill="#df9234" stroke="none" stroke-width="0.5" stroke-linecap="butt"/><path d="M225.9592,157.38126c-0.14759,0.6023 -0.3046,1.2747 -0.44487,1.96037c0.5183,1.01737 1.0793,2.01761 1.67598,2.99799c0.09229,0.15164 0.18335,0.30276 0.27327,0.45346c1.01029,-0.1382 1.98412,-0.27311 3.00885,-0.45785c-0.18549,-1.91365 -0.18291,-3.77677 -0.09964,-5.63953c-1.21035,0.39015 -2.45614,0.67703 -3.80688,0.68555zM236.43281,154.69846c-0.32633,0.06346 -0.6475,0.13904 -0.96464,0.22387c-0.03888,0.57401 -0.07286,1.14645 -0.09842,1.71904c0.4795,-0.6789 0.97445,-1.3479 1.46786,-2.0169c-0.134,0.02205 -0.27002,0.04777 -0.4048,0.07398zM225.01149,155.21533c0.36913,-0.33407 0.88776,-0.33407 0.88776,-0.33407h0.66667c1.16408,0.00923 2.53811,-0.39319 3.97177,-0.8886c0.15213,-2.09453 0.34027,-4.21886 0.41446,-6.44301c0.24427,-7.32254 -0.4992,-14.67479 -2.13736,-21.75465c0,0 -0.56215,-2.43598 1.87383,-2.99813c2.43598,-0.56215 2.99813,1.87383 2.99813,1.87383c1.72553,7.49858 2.52076,15.29636 2.26264,23.04534c-0.05323,1.59785 -0.16983,3.13736 -0.28838,4.64895c1.01752,-0.19772 1.9684,-0.23557 2.79003,0.01922c1.15033,-1.67047 2.17809,-3.40708 2.83277,-5.35602c1.14244,-3.40092 1.30342,-7.65303 1.07325,-11.21812c-0.18066,-2.7983 -1.02094,-6.15247 -0.33941,-8.95161c0.55451,-2.27743 1.90639,-3.6517 3.28095,-5.38736l1.55171,-1.35882c0,0 1.92056,-1.60046 3.52102,0.3201l0.00004,-0.00001c1.60046,1.92055 -0.3201,3.52101 -0.3201,3.52101l-0.84829,0.64119c-3.00825,3.714 -2.13474,6.30264 -1.85846,10.86103c0.18319,3.02243 0.08438,6.77643 -0.42709,9.78437c-0.81499,4.79297 -3.3204,8.22595 -5.98333,11.96186c0.04324,0.93403 0.02998,1.87163 -0.21334,2.40779c-0.49631,1.09363 -1.64544,2.01143 -3.04997,2.76884c-0.49305,0.93004 -0.96129,1.87653 -1.4239,2.82552l0.09756,0.00697l-0.14085,1.97194c6.5481,-5.64905 12.53695,-13.38536 15.72285,-21.47057c1.42173,-3.60808 1.8646,-7.21993 3.72962,-10.67661l2.02697,-2.17063c0,0 1.76776,-1.76776 3.53553,0c1.76776,1.76776 0,3.53553 0,3.53553l-1.17303,1.02936c-1.78152,3.22316 -2.13391,6.71259 -3.47038,10.12339c-3.48337,8.88989 -10.0428,17.32719 -17.22574,23.51379c-1.21413,1.21562 -5.96059,6.92652 -7.49863,6.86569c-3.99601,-0.15804 -5.83064,-8.03169 -7.36228,-10.64518c-1.35235,-2.30759 -3.02344,-4.50363 -4.24847,-6.8875c-3.84013,-7.47281 -4.57066,-16.85025 -1.96097,-24.75789c0,0 0.79057,-2.37171 3.16228,-1.58114c2.37171,0.79057 1.58114,3.16228 1.58114,3.16228c-2.11972,6.28701 -1.42126,12.6126 0.86721,18.50174c0.18949,-0.28322 0.53378,-0.58656 1.12179,-0.50982zM229.84015,165.01747c-0.31203,0.06877 -0.6437,0.14828 -0.98754,0.22756c0.85493,1.58791 1.63495,3.18348 2.44697,4.89562c0.17455,0.36803 0.43574,0.70166 0.65558,1.04967c0.25587,-0.35655 0.54628,-0.68694 0.85788,-1.0013c-0.91784,-0.32636 -1.5887,-1.17382 -1.6566,-2.18643l-0.18863,-2.45209c-0.05438,-0.25381 -0.10471,-0.50634 -0.15122,-0.75769c-0.35789,0.08599 -0.68649,0.16076 -0.97644,0.22466z" fill="#8a4518" stroke="none" stroke-width="0.5" stroke-linecap="butt"/><path d="M236.93431,173.0617c-0.90527,-0.5804 -0.40153,-1.58788 -0.40153,-1.58788l0.82564,-0.98991c2.43394,-1.04115 4.97492,-1.79299 7.41404,-2.80592c2.54737,-1.05788 4.09318,-2.6448 6.95671,-1.8c1.34931,0.67095 4.29538,1.64762 4.37165,3.55485c0.03406,0.85188 -0.91189,1.46881 -1.54922,2.03509c-2.23685,1.98749 -5.86344,3.55952 -8.42278,5.21506c-1.3366,0.8646 -4.53262,3.74704 -6.23396,3.26942c-0.73952,-0.20761 -0.53289,-1.4416 -0.8372,-2.14685c-0.68456,-1.5865 -1.42858,-3.1562 -2.12336,-4.74384z" fill="#693013" stroke="none" stroke-width="0.5" stroke-linecap="butt"/><path d="M212.67046,169.44168c-0.30954,-0.07941 -0.63289,-0.29574 -0.8055,-0.81356c-0.39529,-1.18586 0.79057,-1.58114 0.79057,-1.58114l0.65188,-0.21605c2.4948,-0.71276 5.00338,-1.95597 7.41709,-0.45102c3.10306,1.93475 1.99645,7.38288 -1.80456,8.10101c-0.70032,0.13232 -1.2543,-0.68071 -1.85,-1.072c-1.50204,-0.9866 -3.07057,-2.21802 -4.19521,-3.59521c0,0 -0.11741,-0.14678 -0.20427,-0.37202z" fill="#693013" stroke="none" stroke-width="0.5" stroke-linecap="butt"/><path d="M222.95898,176.88051c-1.15816,-0.05967 -1.15816,-1.24767 -1.15816,-1.24767l0.00833,-0.12924c-0.05347,-0.19854 -0.05781,-0.42984 0.04394,-0.68168l0.01188,-0.18436c0.39718,-1.1906 0.58897,-2.90108 1.26296,-3.95391c0.44103,-0.68893 0.82533,-1.60236 1.60206,-1.85894c0.67299,-0.22231 1.35129,0.42881 2.02048,0.66233c2.169,0.75689 3.89228,0.38055 4.34928,3.29385c0.16566,1.05608 -1.09198,3.39188 -1.49999,4.34435c-0.33619,0.78482 -1.2085,3.14575 -2.08078,3.3285c-1.26345,0.26469 -3.29405,-2.22086 -4.55999,-3.57323z" fill="#693013" stroke="none" stroke-width="0.5" stroke-linecap="butt"/><path d="M198.75388,210.45086l2.07341,-2.00257l38.12726,12.1536l1.29068,0.41746l-1.66024,6.2351l-5.22398,3.47853l-33.17326,-9.83844l-1.58562,-9.42348" fill="#ffffff" stroke="#9da5b1" stroke-width="1.5" stroke-linecap="round"/><path d="M211.69782,191.26494c-0.07637,0.01163 -0.15856,0.01789 -0.24701,0.01789c-0.72375,0 -1.02845,-0.41906 -1.15672,-0.7719c-1.09641,-0.86104 -2.11928,-1.60551 -3.12062,-2.64419c-0.8419,-2.79423 -1.15832,-7.13058 -0.31902,-9.99614c1.74999,-5.97486 9.08938,-5.92672 13.03002,-2.36918c1.89375,1.70964 2.89037,4.24321 3.87408,6.55225c0.75252,1.20075 1.98068,2.87578 2.30882,4.29197c0.95076,4.10329 -1.37754,6.92123 -5.41656,6.93719c-2.91548,0.01152 -6.35483,-0.45101 -8.95299,-2.01789z" fill="#ffffff" stroke="none" stroke-width="0.5" stroke-linecap="butt"/><path d="M245.98986,193.48283c-4.03902,-0.01596 -6.36732,-2.8339 -5.41656,-6.93719c0.32814,-1.41619 1.5563,-3.09122 2.30883,-4.29197c0.98371,-2.30904 1.98033,-4.8426 3.87409,-6.55225c3.94064,-3.55754 11.28003,-3.60568 13.03001,2.36918c0.83929,2.86556 0.52288,7.20191 -0.31903,9.99614c-1.00134,1.03868 -2.0242,1.78315 -3.12061,2.64419c-0.12828,0.35284 -0.43298,0.7719 -1.15673,0.7719c-0.08845,0 -0.17064,-0.00626 -0.24701,-0.01789c-2.59816,1.56688 -6.03752,2.02941 -8.953,2.01789z" data-paper-data="{&quot;index&quot;:null}" fill="#ffffff" stroke="none" stroke-width="0.5" stroke-linecap="butt"/><path d="M224.85082,187.83283c0,1.98823 -1.47746,3.6 -3.3,3.6c-1.82254,0 -3.3,-1.61177 -3.3,-3.6c0,-1.98822 1.47746,-3.6 3.3,-3.6c1.82254,0 3.3,1.61177 3.3,3.6z" fill="url(#color-3)" stroke="none" stroke-width="0" stroke-linecap="butt"/><path d="M248.45082,187.63283c0,1.98823 -1.47746,3.6 -3.3,3.6c-1.82254,0 -3.3,-1.61177 -3.3,-3.6c0,-1.98822 1.47746,-3.6 3.3,-3.6c1.82254,0 3.3,1.61178 3.3,3.6z" fill="url(#color-4)" stroke="none" stroke-width="0" stroke-linecap="butt"/><path d="M260.19177,187.82259c-0.09508,-0.39327 0.02701,-0.75953 0.02701,-0.75953l0.6353,-1.4886c2.03223,-2.02261 3.54603,-4.89086 4.82057,-7.43995c1.3779,-1.8372 2.79662,-4.1511 2.79034,-6.55473c-0.00706,-2.69947 -2.94779,-6.10859 -0.38419,-8.18475c0.29257,-0.23694 3.20069,-0.18804 3.65716,-0.18669c6.4861,0.01927 10.53579,6.4345 10.57725,12.37317c-0.46664,2.37373 -0.55901,5.03767 -1.40489,7.31051c-3.44357,9.25264 -11.87719,8.42646 -19.80886,6.44566c0,0 -1.21218,-0.30304 -0.9097,-1.5151z" fill="#ff0139" stroke="none" stroke-width="0.5" stroke-linecap="butt"/><path d="M235.13176,197.96227c-2.49886,7.784 -6.24347,15.38574 -15.92115,13.43334c-2.37725,-0.47959 -4.68952,-1.80567 -6.95255,-2.66071c-5.0243,-3.16638 -8.34019,-9.98988 -4.93677,-15.51134c0.23952,-0.38859 1.73128,-2.88543 2.08686,-3.0091c3.1158,-1.08367 9.46207,2.87923 11.75211,4.30851c2.03908,1.27265 -0.24676,1.62049 2.04083,1.41833c2.83799,0.26101 6.07332,0.487 8.86344,-0.17339l1.59984,0.24504c0,0 0.37558,0.08937 0.65962,0.37751c1.18937,0.38203 0.80776,1.57181 0.80776,1.57181z" data-paper-data="{&quot;index&quot;:null}" fill="#ff0139" stroke="none" stroke-width="0.5" stroke-linecap="butt"/><path d="M203.76142,159.91213c-1.0503,-0.54601 -1.96244,-1.09973 -2.89498,-2.01382c-2.37427,-2.50077 -1.76308,-5.5502 -1.35675,-8.70328c0.29445,-2.28488 -0.51539,-4.8874 0.02407,-7.13446c1.27251,-5.30053 3.89148,-10.38359 7.15325,-14.70331c5.55035,-10.90845 22.04607,-14.56985 33.39665,-14.59284c6.29573,0 11.1899,1.07667 16.15234,5.30568c1.49858,1.2771 2.74571,2.63245 3.63237,4.3853c0.23211,0.45886 0.57144,0.87966 0.68893,1.38028c0.07499,0.31952 -0.46045,0.92481 -0.13613,0.97516c0.34011,0.0528 0.16736,-0.74171 0.45862,-0.9251c0.50057,-0.31518 1.13249,-0.35987 1.71782,-0.4453c2.79269,-0.40757 5.14308,-0.14704 7.71175,1.1226c1.92473,0.96381 4.53735,2.16086 6.20134,3.45922c2.49103,1.94367 2.49595,5.19431 2.48964,7.99215c-0.01207,5.34998 -2.31507,10.48947 -6.46201,13.97035c-1.43881,1.20772 -3.24706,1.9333 -4.75717,3.06696c-3.61012,2.10637 -5.72149,6.39043 -9.37366,8.69267c-3.19067,2.01133 -6.42777,2.94122 -9.94134,4.12673c-4.72452,1.5941 -8.88632,3.71928 -13.96054,3.72348c-3.37678,0.48651 -6.757,0.98047 -10.19171,0.66555c-4.88329,-0.44773 -9.26633,-2.79629 -13.2947,-5.22241c-2.17197,-1.30809 -4.71459,-1.97219 -6.91199,-3.2848c0,0 -1.07187,-0.64312 -0.42875,-1.71499c0.02694,-0.0449 0.05463,-0.08679 0.08297,-0.12585z" fill="#fefff9" stroke="none" stroke-width="0.5" stroke-linecap="butt"/><path d="M233.53332,120.88126c0.22203,0 0.43054,0.05789 0.61126,0.15939c6.66616,-3.8468 14.94393,-3.82606 22.38874,-3.82606c0,0 1.25,0 1.25,1.25c0,1.25 -1.25,1.25 -1.25,1.25c-6.7181,0 -14.36216,-0.13545 -20.49531,3.12959c3.45819,2.12052 5.97389,4.98408 8.79532,7.82792c4.47972,6.68706 7.98581,13.74178 11.49533,20.92194c1.24861,2.55454 0.4596,5.54303 2.20466,7.78721l0.25,1.41667c0,0 0,1.25 -1.25,1.25c-1.25,0 -1.25,-1.25 -1.25,-1.25l0.25,0.08333c-1.92823,-2.6414 -1.04416,-5.45338 -2.46201,-8.21279c-3.57475,-6.95718 -6.81648,-13.84294 -11.17134,-20.4114c-2.69906,-2.67375 -5.02591,-5.39408 -8.33911,-7.38489c-0.30346,-0.18234 -0.6103,-0.35559 -0.92026,-0.52003c-2.41532,1.74918 -4.56823,3.94011 -6.95495,5.72342c-8.72166,8.72166 -17.64054,17.46753 -22.2963,29.10694l-0.31002,1.25192c0,0 -0.30317,1.21268 -1.51585,0.90951c-1.21268,-0.30317 -0.90951,-1.51585 -0.90951,-1.51585l0.35664,-1.41475c4.84282,-12.10706 13.96163,-21.15099 23.03703,-30.2264c2.05465,-1.54603 3.95441,-3.3794 5.98397,-4.99201c-5.77651,-2.10047 -12.31893,-1.65338 -18.19513,-0.18433c0,0 -1.21268,0.30317 -1.51585,-0.90951c-0.30317,-1.21268 0.90951,-1.51585 0.90951,-1.51585c6.66065,-1.66516 14.04656,-2.02942 20.49797,0.58986c0.21751,-0.18336 0.49845,-0.29385 0.8052,-0.29385z" fill="#a6a7a3" stroke="none" stroke-width="0.5" stroke-linecap="butt"/><path d="M224.88541,153.04993c0.17062,-0.10223 0.39235,-0.16866 0.68051,-0.16866c1.25,0 1.25,1.25 1.25,1.25l-0.36612,-0.21722c1.21864,1.49449 3.83309,-0.46214 5.63005,-0.69008c3.63579,-0.46119 10.0306,-3.37264 12.86075,0.5492c0.90082,1.2483 0.58247,3.8105 0.85058,5.2722c-3.58682,5.1513 -11.48701,4.6674 -17.22527,4.66924c-2.25345,0.00072 -7.07255,1.11105 -7.90053,-2.04977c-0.17719,-0.67641 0.51377,-1.3017 0.72817,-1.96724c0.61554,-1.91082 1.14098,-3.92227 1.62634,-5.86949c0,0 0.30317,-1.21268 1.51585,-0.90951c0.13433,0.03358 0.25005,0.07832 0.34965,0.13134z" fill="#8a4518" stroke="none" stroke-width="0.5" stroke-linecap="butt"/><g stroke="none" stroke-linecap="butt"><path d="M220.56244,218.4298c-0.75854,1.84131 -3.40696,2.49627 -5.91541,1.4629c-2.50845,-1.03337 -3.92703,-3.36376 -3.1685,-5.20507c0.75854,-1.84131 3.40696,-2.49627 5.91541,-1.4629c2.50845,1.03337 3.92703,3.36376 3.1685,5.20507z" fill="#333639" stroke-width="0"/><path d="M227.42369,221.25633c-0.75854,1.84131 -3.40696,2.49627 -5.9154,1.4629c-2.50845,-1.03337 -3.92703,-3.36376 -3.1685,-5.20507c0.75854,-1.84131 3.40696,-2.49627 5.91541,-1.4629c2.50845,1.03337 3.92703,3.36376 3.16849,5.20507z" fill="#333639" stroke-width="0"/><path d="M221.99982,223.99558c-0.75854,1.84131 -3.40696,2.49627 -5.9154,1.4629c-2.50845,-1.03337 -3.92703,-3.36376 -3.1685,-5.20507c0.75854,-1.84131 3.40696,-2.49627 5.91541,-1.4629c2.50845,1.03337 3.92703,3.36376 3.16849,5.20507z" fill="#333639" stroke-width="0"/><path d="M219.07112,218.15275c-0.53902,1.30845 -2.42101,1.77387 -4.20353,1.03955c-1.78252,-0.73432 -2.79058,-2.39031 -2.25156,-3.69876c0.53902,-1.30845 2.42101,-1.77387 4.20353,-1.03955c1.78252,0.73432 2.79058,2.39031 2.25156,3.69876z" fill="#ffffff" stroke-width="0"/><path d="M226.18246,221.19535c-0.53902,1.30845 -2.42101,1.77387 -4.20353,1.03955c-1.78252,-0.73432 -2.79058,-2.39031 -2.25156,-3.69876c0.53902,-1.30845 2.42101,-1.77387 4.20353,-1.03955c1.78252,0.73432 2.79058,2.39031 2.25156,3.69876z" fill="#ffffff" stroke-width="0"/><path d="M216.07603,217.64571c-0.36181,0.15069 -0.5125,-0.21113 -0.5125,-0.21113l-0.00948,-0.05319c-0.42524,-0.57476 -0.91873,-0.99987 -1.45939,-1.46685c0,0 -0.29658,-0.25623 -0.04036,-0.55281c0.25623,-0.29658 0.55281,-0.04036 0.55281,-0.04036c0.58388,0.50455 1.11319,0.97325 1.57586,1.59214l0.10418,0.2197c0,0 0.15069,0.36181 -0.21113,0.5125z" fill="#333639" stroke-width="0.5"/><path d="M224.90493,219.39152c0.0768,0.38434 -0.30753,0.46114 -0.30753,0.46114l-0.34833,0.06899c-0.98352,0.25396 -1.77278,0.51041 -2.78943,0.28634c0,0 -0.382,-0.08768 -0.29432,-0.46968c0.08768,-0.382 0.46968,-0.29432 0.46968,-0.29432c0.87259,0.21023 1.56985,-0.06222 2.41806,-0.2813l0.39073,-0.0787c0,0 0.38434,-0.0768 0.46114,0.30753z" fill="#333639" stroke-width="0.5"/><path d="M228.09351,220.49829l0.46589,-0.49153c1.70942,0.46486 2.88087,2.19064 2.52728,4.02024c-0.12042,0.62309 -0.46699,1.20591 -0.78166,1.78367c0.0351,0.20394 -0.1388,0.35535 -0.1388,0.35535l-0.07482,0.05241c-0.05612,0.11355 -0.10866,0.22723 -0.15566,0.3413c0,0 -0.07957,0.19316 -0.26355,0.23934c-0.67464,0.79897 -1.77951,1.16914 -2.82782,1.04118c-0.52475,-0.06406 -1.01305,-0.14093 -1.17684,-0.78131c-0.10696,-0.41819 0.58053,-1.56518 0.74095,-1.95229c0.58495,-1.41152 0.88589,-2.79674 1.69059,-4.13005c-0.19528,-0.22123 -0.00556,-0.47832 -0.00556,-0.47832z" fill="#333639" stroke-width="0.5"/><path d="M211.19313,213.78602c-0.36795,1.51323 -1.13005,2.70847 -1.70907,4.12243c-0.1588,0.38778 -0.47871,1.68619 -0.84919,1.90769c-0.56733,0.33919 -0.96809,0.04981 -1.38569,-0.27434c-0.83425,-0.64757 -1.35778,-1.68857 -1.27389,-2.7309c-0.09806,-0.16237 -0.01849,-0.35553 -0.01849,-0.35553c0.04699,-0.11407 0.08977,-0.23177 0.12992,-0.35191l-0.0162,-0.0899c0,0 -0.01679,-0.22997 0.15178,-0.35001c0.18359,-0.63176 0.34812,-1.28958 0.70153,-1.81669c1.03773,-1.54776 3.08486,-1.94763 4.62569,-1.07353l-0.01552,0.67706c0,0 -0.04642,0.31613 -0.34086,0.33561z" data-paper-data="{&quot;index&quot;:null}" fill="#333639" stroke-width="0.5"/></g><path d="M207.92344,255.22438v-15.66667h53.33333v15.66667z" fill="#808080" stroke="none" stroke-width="0" stroke-linecap="butt"/><path d="M234.59011,252.39105c0,4.51033 -3.73096,8.16667 -8.33333,8.16667c-4.60237,0 -8.33333,-3.65634 -8.33333,-8.16667c0,-4.51033 3.73096,-8.16667 8.33333,-8.16667c4.60237,0 8.33333,3.65634 8.33333,8.16667z" fill="#d2d2d2" stroke="none" stroke-width="0" stroke-linecap="butt"/><path d="M254.25677,253.05772c0,4.51033 -3.73095,8.16666 -8.33333,8.16666c-4.60237,0 -8.33334,-3.65634 -8.33334,-8.16666c0,-4.51033 3.73096,-8.16667 8.33334,-8.16667c4.60237,0 8.33333,3.65634 8.33333,8.16667z" fill="#d2d2d2" stroke="none" stroke-width="0" stroke-linecap="butt"/><path d="M266.92344,191.17726c-1.25,0 -1.25,-1.25 -1.25,-1.25l0.36612,-1.55055c2.1017,-1.93236 2.48476,-6.20006 3.36821,-8.85512c0.8482,-2.54914 2.05894,-5.12242 2.27073,-7.87325c0.2109,-2.73928 -0.66366,-5.33554 -0.67172,-8.05441c0,0 0,-1.25 1.25,-1.25c1.25,0 1.25,1.25 1.25,1.25c-0.00969,2.7996 0.87978,5.44073 0.66162,8.27892c-0.22687,2.95144 -1.48165,5.72247 -2.39594,8.46008c-1.08114,3.23722 -1.56698,7.28563 -3.96512,9.81155l0.36612,-0.21722c0,0 0,1.25 -1.25,1.25z" fill="#000000" stroke="none" stroke-width="0.5" stroke-linecap="butt"/><path d="M277.28694,167.0479c1.21268,-0.30317 1.51585,0.90951 1.51585,0.90951l0.34447,1.38197c1.12688,6.82422 0.06637,13.28527 -3.48528,19.23099c0,0 -0.64312,1.07187 -1.71499,0.42875c-1.07187,-0.64312 -0.42875,-1.71499 -0.42875,-1.71499c3.23674,-5.36818 4.22261,-11.25475 3.18139,-17.43568l-0.3222,-1.2847c0,0 -0.30317,-1.21268 0.90951,-1.51585z" fill="#000000" stroke="none" stroke-width="0.5" stroke-linecap="butt"/><path d="M233.84011,201.92726c0,1.25 -1.14394,1.25 -1.14394,1.25l-0.83445,-0.02427c-5.08109,-1.11162 -10.08576,-2.66039 -14.80053,-5.25036c-1.99214,-1.09435 -4.28114,-2.30252 -5.53673,-4.31472l-0.05481,0.13975l-0.45387,-0.21255c-0.27853,-0.02106 -0.48979,-0.13648 -0.48979,-0.13648l-1.19804,-0.65456c-0.38693,-0.20043 -0.65452,-0.63114 -0.65452,-1.13014c0,-0.69036 0.51216,-1.25 1.14394,-1.25c0.16902,0 0.32948,0.04006 0.47386,0.11195l2.07965,0.97391l-0.01102,0.02811c0.05462,0.01825 0.10899,0.03769 0.1631,0.05839c1.72573,0.66019 3.79757,3.18292 5.5652,4.15235c4.54131,2.49064 9.33874,3.96681 14.22224,5.03289l0.38576,-0.02427c0,0 1.14394,0 1.14394,1.25z" fill="#000000" stroke="none" stroke-width="0.5" stroke-linecap="butt"/><path d="M228.50677,209.26059c0,1.25 -1.25,1.25 -1.25,1.25l-0.6365,-0.03732c-4.04871,-1.04522 -8.83333,-1.34183 -12.58494,-3.42587c-3.48429,-1.93554 -5.50097,-5.62874 -8.52856,-7.78681c0,0 -1,-0.75 -0.25,-1.75c0.75,-1 1.75,-0.25 1.75,-0.25c2.83528,2.20326 4.82045,5.70317 8.13811,7.54652c3.5761,1.98694 8.19342,2.29402 12.08172,3.2408l0.03016,-0.03732c0,0 1.25,0 1.25,1.25z" fill="#000000" stroke="none" stroke-width="0.5" stroke-linecap="butt"/><path d="M265.40081,220.54758c0,3.6819 -4.92487,6.66667 -11,6.66667c-6.07513,0 -11,-2.98477 -11,-6.66667c0,-3.6819 4.92487,-6.66667 11,-6.66667c6.07513,0 11,2.98477 11,6.66667z" fill="none" stroke="#6d7272" stroke-width="2" stroke-linecap="butt"/><path d="M246.56189,208.95925c-0.14927,-0.27316 -0.21682,-0.65751 0.08924,-1.11659c0.6268,-0.94019 1.56699,-0.3134 1.56699,-0.3134l0.27292,0.2298c0.8916,0.30665 1.8436,0.49535 2.78642,0.48659c2.5517,0.32667 4.70936,1.47117 7.134,2.21785c0.75851,0.23359 2.27496,0.53827 2.81541,1.18446c0.46672,0.55804 0.88735,1.27563 0.86707,2.00284c-0.01639,0.58763 -1.25657,1.72925 -1.61824,2.29792c-1.16231,1.82761 -2.69461,7.6471 -5.27332,7.91607c-1.21805,0.12705 -2.45741,-0.70578 -2.67512,-1.67226c-0.15734,0.13911 -0.31469,0.27822 -0.47204,0.41733c-0.69312,-0.47673 -1.62371,-0.72303 -2.07935,-1.43018c-0.13922,-0.21606 -0.20844,-0.57079 -0.21194,-0.93619c-0.32569,0.21598 -0.67685,0.37108 -0.93784,0.37453c-0.78945,0.01041 -1.73623,-0.24566 -2.19598,-0.88751c-0.18337,-0.256 0.22604,-2.79619 0.63977,-4.04123c-0.97994,0.30702 -2.92271,0.29982 -3.43884,-0.34871c-1.77419,-2.22936 1.04093,-4.80109 2.73085,-6.3813z" fill="#d38a34" stroke="none" stroke-width="0.5" stroke-linecap="butt"/></g></g></svg>