<svg version="1.1" xmlns="http://www.w3.org/2000/svg" xmlns:xlink="http://www.w3.org/1999/xlink" width="80.17178" height="46.85956" viewBox="0,0,80.17178,46.85956"><defs><linearGradient x1="246.48854" y1="184.40529" x2="260.15934" y2="183.87949" gradientUnits="userSpaceOnUse" id="color-1"><stop offset="0" stop-color="#242324"/><stop offset="1" stop-color="#111211"/></linearGradient><linearGradient x1="246.67176" y1="176.30612" x2="260.34256" y2="176.83192" gradientUnits="userSpaceOnUse" id="color-2"><stop offset="0" stop-color="#242324"/><stop offset="1" stop-color="#111211"/></linearGradient><linearGradient x1="227.32758" y1="180.44077" x2="233.18211" y2="180.44077" gradientUnits="userSpaceOnUse" id="color-3"><stop offset="0" stop-color="#ff7d05"/><stop offset="1" stop-color="#ff6902"/></linearGradient><radialGradient cx="237.98149" cy="161.08999" r="4.47165" gradientUnits="userSpaceOnUse" id="color-4"><stop offset="0" stop-color="#9d4c1b"/><stop offset="1" stop-color="#873f11"/></radialGradient><linearGradient x1="224.53442" y1="168.60826" x2="227.58779" y2="168.60826" gradientUnits="userSpaceOnUse" id="color-5"><stop offset="0" stop-color="#7a360f"/><stop offset="1" stop-color="#642d0a"/></linearGradient><linearGradient x1="225.41521" y1="162.53086" x2="227.88139" y2="162.53086" gradientUnits="userSpaceOnUse" id="color-6"><stop offset="0" stop-color="#7a360f"/><stop offset="1" stop-color="#642d0a"/></linearGradient><linearGradient x1="233.38024" y1="167.45672" x2="239.05867" y2="167.45672" gradientUnits="userSpaceOnUse" id="color-7"><stop offset="0" stop-color="#8b4115"/><stop offset="1" stop-color="#9d4b18"/></linearGradient></defs><g transform="translate(-182.12873,-154.24819)"><g data-paper-data="{&quot;isPaintingLayer&quot;:true}" fill-rule="nonzero" stroke-linejoin="miter" stroke-miterlimit="10" stroke-dasharray="" stroke-dashoffset="0" style="mix-blend-mode: normal"><path d="M241.4775,159.84336l-3.76702,-0.59622l-3.44182,4.76976l-0.75882,-3.38762l1.21954,-2.46618c0,0 2.51374,0.12553 3.83823,0.26126c1.22412,0.12544 3.88555,0.71438 3.88555,0.71438z" fill="none" stroke="#793813" stroke-width="1.5" stroke-linecap="round"/><path d="M218.25152,164.7328l-3.4644,0.46975l0.82205,-1.5267l-3.4644,-1.82027l3.58184,-0.46975l-0.23487,-0.41102c0,0 0.86325,-0.5996 1.46798,-0.52847c0.60471,0.07113 1.52669,0.88078 1.52669,0.88078z" fill="none" stroke="#793813" stroke-width="1.5" stroke-linecap="round"/><path d="M228.17498,157.51041c0,0 0.05286,-3.79673 3.4644,-2.05516c3.34007,1.70508 1.05694,4.0516 1.05694,4.0516z" fill="none" stroke="#793813" stroke-width="1.5" stroke-linecap="round"/><path d="M219.7195,171.25059c-3.22157,-4.05544 -1.96561,-11.0667 1.29181,-13.50531c2.77727,-2.07915 9.56772,0.05635 12.15478,1.99644c1.3934,1.04493 1.83689,9.88028 -0.93951,11.50886c-0.99308,0.58252 -9.39858,3.9131 -12.50708,0z" fill="none" stroke="#793813" stroke-width="1.5" stroke-linecap="round"/><path d="M244.56701,163.74589l-1.21955,-1.38215l-0.54202,2.19518l-0.56912,-0.18971l-2.05968,-3.49603l2.03257,-1.57185h0.43361l0.78592,1.59896l2.14097,1.92417z" fill="none" stroke="#793813" stroke-width="1.5" stroke-linecap="round"/><path d="M188.06548,187.44302l-4.03099,-0.55986l1.84753,-3.30317z" fill="none" stroke="#292929" stroke-width="2" stroke-linecap="round"/><path d="M186.66547,185.6252c-1.64575,-3.37077 -2.28544,-6.69538 -1.25113,-10.12998c1.0945,-3.63446 3.8419,-6.54793 7.41238,-8.2912c4.94687,-2.41529 11.90839,-1.05947 15.3481,1.11507c1.7984,1.13693 2.49704,3.81545 3.47145,5.8112c3.38727,6.93767 0.50343,15.31043 -6.4412,18.70111c-3.01302,1.47108 -6.89026,1.77261 -9.84335,0.40397c-1.35965,-0.63014 -7.45521,-5.06834 -8.69624,-7.61018z" fill="none" stroke="#292929" stroke-width="2" stroke-linecap="butt"/><path d="M211.96759,184.54102c1.07235,0.55386 0.05187,2.16508 -0.75995,3.7369c-0.81182,1.57181 -3.18117,1.98388 -3.18117,1.98388c0,0 -0.07563,-2.29974 0.30558,-3.03781c0.81182,-1.57181 2.56319,-3.23682 3.63554,-2.68296z" fill="none" stroke="#292929" stroke-width="2" stroke-linecap="butt"/><path d="M204.24539,193.09759l-3.47113,6.10247l-3.63909,-5.48662c0,0 1.2971,0.1785 2.23953,0.11326c1.34047,-0.0928 4.87068,-0.7291 4.87068,-0.7291z" fill="none" stroke="#292929" stroke-width="2" stroke-linecap="round"/><path d="M204.80526,167.00818l5.93451,-2.51937l-0.44789,6.88626c0,0 -1.12549,-2.24746 -2.05533,-2.98754c-0.89791,-0.71467 -3.43128,-1.37936 -3.43128,-1.37936z" fill="none" stroke="#292929" stroke-width="2" stroke-linecap="round"/><path d="M185.994,173.67049l-2.35141,-6.83028l6.94225,1.39964c0,0 -0.03016,0.72866 -0.4544,1.21854c-0.37776,0.43623 -1.25453,1.17754 -2.10409,2.04516c-1.03642,1.05847 -2.03237,2.16693 -2.03237,2.16693z" fill="none" stroke="#292929" stroke-width="2" stroke-linecap="round"/><path d="M192.24566,192.07047l-3.66923,-3.20411l0.15504,-1.44701c0,0 1.50553,-1.01078 3.35915,0.46511c1.41836,1.12933 2.11885,4.13434 2.11885,4.13434z" fill="none" stroke="#292929" stroke-width="2" stroke-linecap="round"/><path d="M192.99224,192.87365l-6.38238,2.23944l1.45563,-6.94225c0,0 2.19268,0.68379 3.03351,1.49721c0.87472,0.84621 1.89324,3.20559 1.89324,3.20559z" fill="none" stroke="#292929" stroke-width="2" stroke-linecap="round"/><path d="M208.50033,191.25006c0,0 0.2319,-2.19019 1.42354,-3.71905c0.9715,-1.24642 2.88736,-2.0475 2.88736,-2.0475l2.51937,6.3264z" fill="none" stroke="#292929" stroke-width="2" stroke-linecap="round"/><path d="M208.43482,175.70434c-1.14521,-2.26104 0.06551,-3.88136 0.06551,-3.88136l6.21443,0.61585l-2.91126,5.5426c0,0 -2.24792,0.29569 -3.36867,-2.27707z" fill="none" stroke="#292929" stroke-width="2" stroke-linecap="round"/><path d="M194.67181,166.61627l3.30317,-5.43063l3.80704,5.1507c0,0 -1.94749,1.68059 -3.23919,1.73972c-2.92625,0.13395 -3.87101,-1.45978 -3.87101,-1.45978z" fill="none" stroke="#292929" stroke-width="2" stroke-linecap="round"/><path d="M235.74263,164.39527h-4.36691c0,0 0,-0.31232 0,-0.44647c0,-0.11009 0.234,-0.30064 0.46403,-0.30064c0.66714,0 3.90286,0 3.90286,0z" data-paper-data="{&quot;index&quot;:null}" fill="none" stroke="#292929" stroke-width="1.5" stroke-linecap="butt"/><path d="M238.61971,163.64817c0.34126,0 0.57805,0.23969 0.57805,0.36227c0,0.12633 0,0.38484 0,0.38484h-3.93501v-0.74711c0,0 2.66112,0 3.35696,0z" data-paper-data="{&quot;index&quot;:null}" fill="none" stroke="#292929" stroke-width="1.5" stroke-linecap="butt"/><path d="M245.85091,164.39528h-4.36691c0,0 0,-0.31232 0,-0.44647c0,-0.11009 0.234,-0.30064 0.46403,-0.30064c0.66714,0 3.90286,0 3.90286,0z" data-paper-data="{&quot;index&quot;:null}" fill="none" stroke="#292929" stroke-width="1.5" stroke-linecap="butt"/><path d="M249.30603,164.01045c0,0.12634 0,0.38484 0,0.38484h-3.93501v-0.74711c0,0 2.66112,0 3.35696,0c0.34126,0 0.57805,0.23969 0.57805,0.36227z" data-paper-data="{&quot;index&quot;:null}" fill="none" stroke="#292929" stroke-width="1.5" stroke-linecap="butt"/><path d="M251.31669,164.36246c0.35438,0 0.80127,0.28283 0.80127,0.43145c0,0.15887 0,0.49308 0,0.49308h-3.91387v-0.92454c0,0 2.41415,0 3.11261,0z" data-paper-data="{&quot;index&quot;:null}" fill="none" stroke="#292929" stroke-width="1.5" stroke-linecap="butt"/><path d="M229.05659,165.66473v5.80217" data-paper-data="{&quot;index&quot;:null}" fill="none" stroke="#292929" stroke-width="1.5" stroke-linecap="round"/><path d="M252.22458,165.59972h-23.47335z" data-paper-data="{&quot;index&quot;:null}" fill="none" stroke="#292929" stroke-width="1.5" stroke-linecap="round"/><path d="M252.11696,165.66473v5.55787" data-paper-data="{&quot;index&quot;:null}" fill="none" stroke="#292929" stroke-width="1.5" stroke-linecap="round"/><path d="M248.26572,165.30479l-19.38447,6.04648c0,0 0,-6.4313 0,-6.6012c0,-0.14438 0.25374,-0.40064 0.58554,-0.40064c1.88004,0 18.79893,0 18.79893,0z" data-paper-data="{&quot;index&quot;:null}" fill="none" stroke="#292929" stroke-width="1.5" stroke-linecap="butt"/><path d="M235.74263,196.89467c0,0 -3.23573,0 -3.90286,0c-0.23004,0 -0.46403,-0.19056 -0.46403,-0.30064c0,-0.13416 0,-0.44647 0,-0.44647h4.36691z" fill="none" stroke="#292929" stroke-width="1.5" stroke-linecap="butt"/><path d="M238.61971,196.89466c-0.69585,0 -3.35696,0 -3.35696,0v-0.74711h3.93501c0,0 0,0.2585 0,0.38484c0,0.12258 -0.23678,0.36227 -0.57805,0.36227z" fill="none" stroke="#292929" stroke-width="1.5" stroke-linecap="butt"/><path d="M245.85091,196.89466c0,0 -3.23573,0 -3.90286,0c-0.23004,0 -0.46403,-0.19056 -0.46403,-0.30064c0,-0.13416 0,-0.44647 0,-0.44647h4.36691z" fill="none" stroke="#292929" stroke-width="1.5" stroke-linecap="butt"/><path d="M248.72798,196.89466c-0.69585,0 -3.35696,0 -3.35696,0v-0.74711h3.93501c0,0 0,0.2585 0,0.38484c0,0.12258 -0.23678,0.36228 -0.57805,0.36228z" fill="none" stroke="#292929" stroke-width="1.5" stroke-linecap="butt"/><path d="M249.45,182.84018h-4.07897v-5.66257h4.07897z" fill="none" stroke="#292929" stroke-width="2.5" stroke-linecap="butt"/><path d="M251.31669,196.18039c-0.69846,0 -3.11261,0 -3.11261,0v-0.92454h3.91387c0,0 0,0.3342 0,0.49308c0,0.14862 -0.44689,0.43145 -0.80127,0.43145z" fill="none" stroke="#292929" stroke-width="1.5" stroke-linecap="butt"/><path d="M229.05659,189.07592v5.80217" fill="none" stroke="#292929" stroke-width="1.5" stroke-linecap="round"/><path d="M252.22458,194.9431h-23.47335z" fill="none" stroke="#292929" stroke-width="1.5" stroke-linecap="round"/><path d="M252.02099,194.8781v-5.55787" fill="none" stroke="#292929" stroke-width="1.5" stroke-linecap="round"/><path d="M258.60455,186.2558l-4.97523,3.32231l-11.23789,-0.30538l4.11242,-4.15993z" fill="none" stroke="#292929" stroke-width="2.5" stroke-linecap="round"/><path d="M246.58543,175.75497l-4.42837,-4.76631l11.62849,-0.05279l5.06055,3.56014z" data-paper-data="{&quot;index&quot;:null}" fill="none" stroke="#292929" stroke-width="2.5" stroke-linecap="round"/><path d="M260.19689,184.85598l-13.57482,0.38183l-0.1711,-2.33688l13.67081,0.00206z" fill="none" stroke="#292929" stroke-width="2.5" stroke-linecap="butt"/><path d="M260.30501,177.80843l-13.86275,-0.28586l0.26707,-2.04894l13.67081,0.38183z" data-paper-data="{&quot;index&quot;:null}" fill="none" stroke="#292929" stroke-width="2.5" stroke-linecap="butt"/><path d="M225.68255,189.34466c-0.20977,0.00158 -0.58753,-0.23092 -0.59187,-0.53708c-0.0218,-1.54032 -0.19852,-14.02536 -0.23975,-16.93812c-0.00549,-0.38782 0.37298,-0.60882 0.83214,-0.6123c2.08096,-0.01569 17.08434,-0.31488 17.08434,-0.31488l3.89251,3.99797l-0.06128,2.63414l-1.69127,0.00219l0.07335,5.20483l1.61792,0.04837v2.90079l-4.19083,3.60344c0,0 -15.25403,-0.00052 -16.72527,0.01061z" fill="none" stroke="#292929" stroke-width="1.5" stroke-linecap="round"/><path d="M225.16812,182.74419h-6.3344v-4.75081h6.3344z" fill="none" stroke="#292929" stroke-width="1.5" stroke-linecap="butt"/><path d="M248.26572,196.1934c0,0 -16.91889,0 -18.79893,0c-0.33181,0 -0.58554,-0.25626 -0.58554,-0.40064c0,-0.1699 0,-6.6012 0,-6.6012l19.38447,6.04648z" fill="none" stroke="#292929" stroke-width="1.5" stroke-linecap="butt"/><path d="M201.01332,170.15906l16.49718,1.11971l1.79155,3.50845v10.37604l-1.8662,3.50845l-16.12394,0.52254z" fill="none" stroke="#292929" stroke-width="1.5" stroke-linecap="round"/><path d="M235.74263,164.39527h-4.36691c0,0 0,-0.31232 0,-0.44647c0,-0.11009 0.234,-0.30064 0.46403,-0.30064c0.66714,0 3.90286,0 3.90286,0z" data-paper-data="{&quot;index&quot;:null}" fill="#ff8303" stroke="none" stroke-width="NaN" stroke-linecap="butt"/><path d="M238.61971,163.64817c0.34126,0 0.57805,0.23969 0.57805,0.36227c0,0.12633 0,0.38484 0,0.38484h-3.93501v-0.74711c0,0 2.66112,0 3.35696,0z" data-paper-data="{&quot;index&quot;:null}" fill="#ff4500" stroke="none" stroke-width="NaN" stroke-linecap="butt"/><path d="M245.85091,164.39528h-4.36691c0,0 0,-0.31232 0,-0.44647c0,-0.11009 0.234,-0.30064 0.46403,-0.30064c0.66714,0 3.90286,0 3.90286,0z" data-paper-data="{&quot;index&quot;:null}" fill="#ff8303" stroke="none" stroke-width="NaN" stroke-linecap="butt"/><path d="M249.30603,164.01045c0,0.12634 0,0.38484 0,0.38484h-3.93501v-0.74711c0,0 2.66112,0 3.35696,0c0.34126,0 0.57805,0.23969 0.57805,0.36227z" data-paper-data="{&quot;index&quot;:null}" fill="#ff4500" stroke="none" stroke-width="NaN" stroke-linecap="butt"/><path d="M247.76609,171.28368h-18.68911v-5.37465h18.6891z" data-paper-data="{&quot;index&quot;:null}" fill="#1e1f1e" stroke="none" stroke-width="0" stroke-linecap="butt"/><path d="M251.98028,171.58906h-4.03099v-5.79538h4.03099z" data-paper-data="{&quot;index&quot;:null}" fill="#111211" stroke="none" stroke-width="0" stroke-linecap="butt"/><path d="M233.82049,171.34476v-5.55787" data-paper-data="{&quot;index&quot;:null}" fill="none" stroke="#515151" stroke-width="0.6" stroke-linecap="round"/><path d="M237.48502,165.72581v5.55787" data-paper-data="{&quot;index&quot;:null}" fill="none" stroke="#515151" stroke-width="0.5" stroke-linecap="round"/><path d="M241.33278,171.34475v-5.49679" data-paper-data="{&quot;index&quot;:null}" fill="none" stroke="#515151" stroke-width="0.5" stroke-linecap="round"/><path d="M248.05109,171.58905v-5.7411" data-paper-data="{&quot;index&quot;:null}" fill="none" stroke="#515151" stroke-width="0.75" stroke-linecap="round"/><path d="M230.09488,166.03119v5.49679" data-paper-data="{&quot;index&quot;:null}" fill="none" stroke="#515151" stroke-width="0.5" stroke-linecap="round"/><path d="M237.24073,171.40584v-5.80217" data-paper-data="{&quot;index&quot;:null}" fill="none" stroke="#070707" stroke-width="0.5" stroke-linecap="round"/><path d="M240.90526,165.72581v5.80217" data-paper-data="{&quot;index&quot;:null}" fill="none" stroke="#070707" stroke-width="0.5" stroke-linecap="round"/><path d="M233.51513,165.60366v5.80217" data-paper-data="{&quot;index&quot;:null}" fill="none" stroke="#070707" stroke-width="0.5" stroke-linecap="round"/><path d="M229.78952,171.46691v-5.80217" data-paper-data="{&quot;index&quot;:null}" fill="none" stroke="#070707" stroke-width="0.5" stroke-linecap="round"/><path d="M251.31669,164.36246c0.35438,0 0.80127,0.28283 0.80127,0.43145c0,0.15887 0,0.49308 0,0.49308h-3.91387v-0.92454c0,0 2.41415,0 3.11261,0z" data-paper-data="{&quot;index&quot;:null}" fill="#030403" stroke="none" stroke-width="0" stroke-linecap="butt"/><path d="M248.54308,164.51655l0.64717,0.95536" data-paper-data="{&quot;index&quot;:null}" fill="none" stroke="#444a44" stroke-width="0.5" stroke-linecap="round"/><path d="M250.48462,165.53352l-0.43145,-1.0478" data-paper-data="{&quot;index&quot;:null}" fill="none" stroke="#444a44" stroke-width="0.5" stroke-linecap="round"/><path d="M251.13178,164.39329l0.46226,1.14027" data-paper-data="{&quot;index&quot;:null}" fill="none" stroke="#222022" stroke-width="0.5" stroke-linecap="round"/><path d="M229.05659,165.66473v5.80217" data-paper-data="{&quot;index&quot;:null}" fill="none" stroke="#070707" stroke-width="1" stroke-linecap="round"/><path d="M247.44033,171.58905v-5.80217" data-paper-data="{&quot;index&quot;:null}" fill="none" stroke="#070707" stroke-width="0.75" stroke-linecap="round"/><path d="M228.75123,165.59973h23.47335z" data-paper-data="{&quot;index&quot;:null}" fill="none" stroke="#515151" stroke-width="1.25" stroke-linecap="round"/><path d="M252.02099,165.66473v5.55787" data-paper-data="{&quot;index&quot;:null}" fill="none" stroke="#515151" stroke-width="0.5" stroke-linecap="round"/><path d="M248.26572,165.30479h-19.38447c0,0 0,-0.38483 0,-0.55472c0,-0.14438 0.25374,-0.40064 0.58554,-0.40064c1.88004,0 18.79893,0 18.79893,0z" data-paper-data="{&quot;index&quot;:null}" fill="#1e1e1e" stroke="none" stroke-width="0" stroke-linecap="butt"/><path d="M235.74263,196.89467c0,0 -3.23573,0 -3.90286,0c-0.23004,0 -0.46403,-0.19056 -0.46403,-0.30064c0,-0.13416 0,-0.44647 0,-0.44647h4.36691z" fill="#ff8303" stroke="none" stroke-width="NaN" stroke-linecap="butt"/><path d="M238.61971,196.89466c-0.69585,0 -3.35696,0 -3.35696,0v-0.74711h3.93501c0,0 0,0.2585 0,0.38484c0,0.12258 -0.23678,0.36227 -0.57805,0.36227z" fill="#ff4500" stroke="none" stroke-width="NaN" stroke-linecap="butt"/><path d="M245.85091,196.89466c0,0 -3.23573,0 -3.90286,0c-0.23004,0 -0.46403,-0.19056 -0.46403,-0.30064c0,-0.13416 0,-0.44647 0,-0.44647h4.36691z" fill="#ff8303" stroke="none" stroke-width="NaN" stroke-linecap="butt"/><path d="M248.72798,196.89466c-0.69585,0 -3.35696,0 -3.35696,0v-0.74711h3.93501c0,0 0,0.2585 0,0.38484c0,0.12258 -0.23678,0.36228 -0.57805,0.36228z" fill="#ff4500" stroke="none" stroke-width="NaN" stroke-linecap="butt"/><path d="M249.45,182.84018h-4.07897v-5.66257h4.07897z" fill="#151515" stroke="none" stroke-width="0" stroke-linecap="butt"/><path d="M247.76608,194.6338h-18.6891v-5.37465h18.68911z" fill="#1e1f1e" stroke="none" stroke-width="0" stroke-linecap="butt"/><path d="M251.98028,194.74917h-4.03099v-5.79538h4.03099z" fill="#111211" stroke="none" stroke-width="0" stroke-linecap="butt"/><path d="M233.82049,189.19809v5.55787" fill="none" stroke="#515151" stroke-width="0.6" stroke-linecap="round"/><path d="M237.48502,189.25916v5.55787" fill="none" stroke="#515151" stroke-width="0.5" stroke-linecap="round"/><path d="M241.33278,194.69488v-5.49679" fill="none" stroke="#515151" stroke-width="0.5" stroke-linecap="round"/><path d="M248.05109,194.69488v-5.7411" fill="none" stroke="#515151" stroke-width="0.75" stroke-linecap="round"/><path d="M230.09488,189.01485v5.49679" fill="none" stroke="#515151" stroke-width="0.5" stroke-linecap="round"/><path d="M237.24073,189.13701v5.80217" fill="none" stroke="#070707" stroke-width="0.5" stroke-linecap="round"/><path d="M240.90526,194.81703v-5.80217" fill="none" stroke="#070707" stroke-width="0.5" stroke-linecap="round"/><path d="M233.51513,194.93918v-5.80217" fill="none" stroke="#070707" stroke-width="0.5" stroke-linecap="round"/><path d="M229.78952,189.07592v5.80217" fill="none" stroke="#070707" stroke-width="0.5" stroke-linecap="round"/><path d="M251.31669,196.18039c-0.69846,0 -3.11261,0 -3.11261,0v-0.92454h3.91387c0,0 0,0.3342 0,0.49308c0,0.14862 -0.44689,0.43145 -0.80127,0.43145z" fill="#030403" stroke="none" stroke-width="0" stroke-linecap="butt"/><path d="M248.54309,196.0263l0.64717,-0.95536" fill="none" stroke="#444a44" stroke-width="0.5" stroke-linecap="round"/><path d="M250.05316,196.0571l0.43145,-1.0478" fill="none" stroke="#444a44" stroke-width="0.5" stroke-linecap="round"/><path d="M251.13178,196.14956l0.46226,-1.14027" fill="none" stroke="#222022" stroke-width="0.5" stroke-linecap="round"/><path d="M229.05659,189.07592v5.80217" fill="none" stroke="#070707" stroke-width="1" stroke-linecap="round"/><path d="M247.44033,194.75596v-5.80217" fill="none" stroke="#070707" stroke-width="0.75" stroke-linecap="round"/><path d="M252.22458,194.9431h-23.47335z" fill="none" stroke="#515151" stroke-width="1.25" stroke-linecap="round"/><path d="M252.21294,189.32022v5.55787" fill="none" stroke="#515151" stroke-width="0.5" stroke-linecap="round"/><path d="M260.52406,184.62421l-6.89476,4.95391l-11.23789,-0.30538l4.11242,-4.15993z" fill="#0e100e" stroke="#000000" stroke-width="0" stroke-linecap="round"/><path d="M246.58543,175.75497l-4.42837,-4.76631l11.62849,-0.05279l6.59616,5.19173z" data-paper-data="{&quot;index&quot;:null}" fill="#0e100e" stroke="#000000" stroke-width="0" stroke-linecap="round"/><path d="M246.70576,175.1643l1.50061,0.08308l0.76756,0.29999" fill="none" stroke="#7a7a7a" stroke-width="0.5" stroke-linecap="round"/><path d="M248.87039,185.16364l-0.73245,0.32609l-1.54936,0.06947" data-paper-data="{&quot;index&quot;:null}" fill="none" stroke="#7a7a7a" stroke-width="0.5" stroke-linecap="round"/><path d="M260.19689,184.85598l-13.57482,0.38183l-0.1711,-2.33688l13.67081,0.00206z" fill="url(#color-1)" stroke="#403f40" stroke-width="0.25" stroke-linecap="butt"/><path d="M260.30501,177.80843l-13.86275,-0.28586l0.26707,-2.04894l13.67081,0.38183z" data-paper-data="{&quot;index&quot;:null}" fill="url(#color-2)" stroke="#403f40" stroke-width="0.25" stroke-linecap="butt"/><path d="M225.68255,189.34466c-0.20977,0.00158 -0.58753,-0.23092 -0.59187,-0.53708c-0.0218,-1.54032 -0.19852,-14.02536 -0.23975,-16.93812c-0.00549,-0.38782 0.37298,-0.60882 0.83214,-0.6123c2.08096,-0.01569 17.08434,-0.31488 17.08434,-0.31488l3.89251,3.99797l-0.06128,2.63414l-1.69127,0.00219l0.07335,5.20483l1.61792,0.04837v2.90079l-4.19083,3.60344c0,0 -15.25403,-0.00052 -16.72527,0.01061z" fill="#393839" stroke="#000000" stroke-width="0" stroke-linecap="round"/><path d="M224.8424,172.17161l17.28437,-0.12215l3.4813,3.90883v9.16132l-3.29807,3.11485l-17.22329,0.12215z" fill="#1e1f1e" stroke="#000000" stroke-width="0" stroke-linecap="round"/><path d="M245.65897,183.27206h-20.90058v-6.08086h20.90058z" fill="#2a2b2a" stroke="#393839" stroke-width="0.5" stroke-linecap="butt"/><path d="M225.16812,182.74419h-6.3344v-4.75081h6.3344z" fill="#2a2b2a" stroke="none" stroke-width="0" stroke-linecap="butt"/><path d="M245.70694,181.20858h-26.96921v-2.35141h26.96921z" fill="#636163" stroke="none" stroke-width="0" stroke-linecap="butt"/><path d="M233.18211,183.41603h-5.95049c0,0 0.56502,-2.01178 0.47989,-3.1672c-0.09598,-1.30249 -0.4319,-2.7833 -0.4319,-2.7833h5.90251c0,0 1.05574,1.15983 1.05574,2.92726c0,1.94339 -1.05574,3.02323 -1.05574,3.02323z" fill="url(#color-3)" stroke="none" stroke-width="0" stroke-linecap="butt"/><path d="M225.21272,183.11737h-0.77835v-0.49159h0.77835z" fill="#2a2b2a" stroke="none" stroke-width="0" stroke-linecap="butt"/><path d="M225.21272,178.04754h-0.77835v-0.67819h0.77835z" fill="#2a2b2a" stroke="none" stroke-width="0" stroke-linecap="butt"/><path d="M248.26572,196.1934c0,0 -16.91889,0 -18.79893,0c-0.33181,0 -0.58554,-0.25626 -0.58554,-0.40064c0,-0.1699 0,-0.55472 0,-0.55472h19.38447z" fill="#1e1e1e" stroke="none" stroke-width="0" stroke-linecap="butt"/><path d="M188.06548,187.44302l-4.03099,-0.55986l1.84753,-3.30317z" fill="#dad9da" stroke="#000000" stroke-width="0" stroke-linecap="round"/><path d="M201.01332,170.15906l16.49718,1.11971l1.79155,3.50845v10.37604l-1.8662,3.50845l-16.12394,0.52254z" fill="#1e1e1e" stroke="#000000" stroke-width="0" stroke-linecap="round"/><path d="M186.66548,185.6252c-1.64575,-3.37077 -2.28544,-6.69538 -1.25113,-10.12998c1.0945,-3.63446 3.8419,-6.54793 7.41238,-8.2912c4.94687,-2.41528 11.9084,-1.05947 15.3481,1.11507c1.7984,1.13693 2.49704,3.81545 3.47145,5.8112c3.38727,6.93767 0.50344,15.31043 -6.4412,18.70111c-3.01302,1.47108 -6.89026,1.77261 -9.84335,0.40397c-1.35965,-0.63014 -7.45521,-5.06834 -8.69624,-7.61018z" fill="#2e2e2e" stroke="#434343" stroke-width="0" stroke-linecap="butt"/><path d="M202.94119,181.87464c4.22605,-7.93905 8.36817,-4.62442 8.36817,-4.62442c0,0 3.44362,3.45851 0.80755,8.64686c-3.51257,6.91355 -8.25319,5.83351 -8.25319,5.83351c0,0 -5.36554,-1.50932 -0.92254,-9.85594z" fill="#474747" stroke="none" stroke-width="0" stroke-linecap="butt"/><path d="M197.77098,166.28349c0,0 -1.81848,-1.2063 -7.90419,6.48507c-0.76831,1.16077 -1.71088,5.23379 -1.48516,8.1169c0.34769,4.44081 2.2377,7.90271 2.2377,7.90271c0,0 -4.99062,-1.604 -5.53219,-7.33684c-0.20768,-2.19853 -0.15563,-5.2553 1.19414,-7.74652c0.67224,-1.24071 1.66767,-2.43879 2.61263,-3.34788c1.45002,-1.80996 3.1621,-3.09815 4.47407,-3.71884c2.34228,-1.10812 4.40301,-0.35458 4.40301,-0.35458z" fill="#1e1e20" stroke="#000000" stroke-width="0" stroke-linecap="round"/><path d="M192.20804,174.24269c1.92065,0.72026 2.73839,3.27546 1.82646,5.70727c-0.91192,2.43179 -3.20818,3.81928 -5.12882,3.09904c-1.92065,-0.72026 -2.73839,-3.27546 -1.82646,-5.70727c0.91192,-2.43179 3.20818,-3.81928 5.12882,-3.09904z" fill="#ff8108" stroke="none" stroke-width="0" stroke-linecap="butt"/><path d="M201.61407,179.77294c2.50454,0 4.53485,2.23085 4.53485,4.98274c0,2.7519 -2.03033,4.98274 -4.53485,4.98274c-2.50454,0 -4.53485,-2.23085 -4.53485,-4.98274c0,-2.7519 2.03033,-4.98274 4.53485,-4.98274z" fill="#ff8108" stroke="none" stroke-width="0" stroke-linecap="butt"/><path d="M197.99088,165.22727c2.57075,-0.23233 4.76045,0.6524 4.8908,1.97609c0.13036,1.32369 -1.84799,2.58508 -4.41874,2.81742c-2.57075,0.23233 -4.76045,-0.6524 -4.8908,-1.97609c-0.13036,-1.32369 1.84799,-2.58509 4.41874,-2.81742z" fill="#ff8108" stroke="none" stroke-width="0" stroke-linecap="butt"/><path d="M211.9676,184.54102c1.07235,0.55386 0.05187,2.16508 -0.75995,3.7369c-0.81182,1.57181 -3.18117,1.98388 -3.18117,1.98388c0,0 -0.07563,-2.29974 0.30558,-3.03781c0.81182,-1.57181 2.56319,-3.23682 3.63554,-2.68296z" fill="#ff8108" stroke="none" stroke-width="0" stroke-linecap="butt"/><path d="M207.06798,170.99488c1.31841,-0.7146 4.09832,1.26546 5.09036,3.36157c0.99205,2.09611 0.69743,4.31539 -0.65805,4.95691c-1.35548,0.64152 -3.59446,-0.64961 -4.5865,-2.74573c-0.99205,-2.09611 -1.64919,-4.59532 0.15418,-5.57276z" fill="#ff8108" stroke="none" stroke-width="0" stroke-linecap="butt"/><path d="M192.22696,188.04568c0.945,0.84505 1.20147,2.09997 0.57283,2.80297c-0.62864,0.70299 -1.90431,0.58782 -2.84932,-0.25723c-0.945,-0.84505 -1.20147,-2.09997 -0.57283,-2.80297c0.62864,-0.70299 1.90431,-0.58782 2.84932,0.25723z" fill="#ff8108" stroke="none" stroke-width="0" stroke-linecap="butt"/><path d="M206.14892,173.95042l-6.21443,0.05598l-0.61585,-4.31092" fill="none" stroke="#ff8108" stroke-width="1" stroke-linecap="round"/><path d="M191.9285,174.39831c0,0 0.64233,-1.79443 1.23168,-2.85527c0.58937,-1.06085 1.56761,-2.18345 1.56761,-2.18345" fill="none" stroke="#f74c00" stroke-width="0.75" stroke-linecap="round"/><path d="M188.7933,182.90816l1.11971,4.36691" fill="none" stroke="#f74c00" stroke-width="0.5" stroke-linecap="round"/><path d="M187.44964,176.24584l-0.44789,-3.86303" fill="none" stroke="#ff8108" stroke-width="0.5" stroke-linecap="round"/><path d="M193.944,191.64195l3.58309,2.23944" fill="none" stroke="#f74c00" stroke-width="0.5" stroke-linecap="round"/><path d="M204.24539,193.09759l-3.47112,6.10247l-3.63909,-5.48662c0,0 1.2971,0.1785 2.23953,0.11326c1.34047,-0.0928 4.87068,-0.7291 4.87068,-0.7291z" fill="#a3a3a3" stroke="#000000" stroke-width="0" stroke-linecap="round"/><path d="M204.80526,167.00817l5.93451,-2.51937l-0.44789,6.88626c0,0 -1.12549,-2.24746 -2.05533,-2.98754c-0.89791,-0.71467 -3.43128,-1.37936 -3.43128,-1.37936z" fill="#a3a3a3" stroke="#000000" stroke-width="0" stroke-linecap="round"/><path d="M185.994,173.67049l-2.35141,-6.83028l6.94225,1.39964c0,0 -0.03016,0.72866 -0.4544,1.21854c-0.37776,0.43623 -1.25453,1.17754 -2.10409,2.04516c-1.03642,1.05847 -2.03237,2.16693 -2.03237,2.16693z" fill="#a3a3a3" stroke="#000000" stroke-width="0" stroke-linecap="round"/><path d="M200.83026,198.97611l0.27993,-5.37465l2.79929,-0.3919z" fill="#dad9da" stroke="#000000" stroke-width="0" stroke-linecap="round"/><path d="M207.82849,168.23986c0,0 -0.64749,-0.53473 -1.03927,-0.72279c-0.50985,-0.24472 -2.03996,-0.56489 -2.03996,-0.56489l6.04648,-2.18345z" fill="#dad9da" stroke="#000000" stroke-width="0" stroke-linecap="round"/><path d="M188.7933,170.64725l-4.87077,-3.47113l6.66232,1.06372l-0.27993,1.11971z" fill="#dad9da" stroke="#000000" stroke-width="0" stroke-linecap="round"/><path d="M192.24567,192.07047l-3.66923,-3.20411l0.15504,-1.44701c0,0 1.50553,-1.01078 3.35915,0.46511c1.41836,1.12933 2.11885,4.13434 2.11885,4.13434z" fill="#ff4600" stroke="#000000" stroke-width="0" stroke-linecap="round"/><path d="M190.04475,189.17035l0.31616,-2.01549c0,0 1.14117,0.3108 1.65981,0.75087c0.51865,0.44007 0.94847,1.46222 0.94847,1.46222l-1.73886,1.14605z" fill="#ff8108" stroke="#000000" stroke-width="0" stroke-linecap="round"/><path d="M193.95717,175.81278l-2.41069,1.14605l-0.94847,3.47771l0.59279,2.6478c0,0 -1.47727,0.65272 -2.33164,0.31616c-0.85438,-0.33656 -1.58078,-1.85742 -1.58078,-1.85742l1.89693,-1.54125l0.67184,-3.39869l-0.55327,-1.77837c0,0 1.62458,-1.18199 2.72684,-0.94847c1.10226,0.23354 1.93646,1.93646 1.93646,1.93646z" fill="#ff4600" stroke="#000000" stroke-width="0" stroke-linecap="round"/><path d="M204.74598,188.2614l-1.65982,-2.72685l-1.85743,-0.31616l-2.25261,3.75434c0,0 -2.16711,-1.99521 -2.09454,-4.11002c0.078,-2.27272 1.69933,-3.43819 1.69933,-3.43819l2.56876,2.48973l1.34366,0.1976l2.17356,-3.20107c0,0 1.72193,2.10157 1.73886,3.67531c0.01692,1.57372 -1.65981,3.67532 -1.65981,3.67532z" fill="#ff4600" stroke="#000000" stroke-width="0" stroke-linecap="round"/><path d="M207.94705,188.93323c0,0 0.35341,-1.4822 0.86942,-2.33164c0.51604,-0.84945 1.69934,-1.89693 1.69934,-1.89693l0.03952,3.35915z" fill="#ff8108" stroke="#000000" stroke-width="0" stroke-linecap="round"/><path d="M207.6309,177.63067l2.37117,-2.09452l-3.59627,-4.11002c0,0 0.98852,-0.74269 1.65982,-0.59279c0.6713,0.1499 2.41069,1.50174 2.41069,1.50174l1.26461,4.8609l0.59279,1.58078c0,0 -1.32587,1.17431 -2.25261,0.94847c-0.92674,-0.22584 -2.4502,-2.09454 -2.4502,-2.09454z" fill="#ff4600" stroke="#000000" stroke-width="0" stroke-linecap="round"/><path d="M202.88856,168.02745l-4.22858,-1.34366l-1.77837,3.28011c0,0 -1.685,-0.19147 -2.30986,-0.51398c-0.59918,-0.30925 -1.36545,-1.38295 -1.36545,-1.38295l7.07398,-2.52924l2.60828,0.75087z" fill="#ff4600" stroke="#000000" stroke-width="0" stroke-linecap="round"/><path d="M192.99224,192.87365l-6.38238,2.23944l1.45563,-6.94225c0,0 2.19268,0.68379 3.03351,1.49721c0.87472,0.84621 1.89324,3.20559 1.89324,3.20559z" fill="#a3a3a3" stroke="#000000" stroke-width="0" stroke-linecap="round"/><path d="M186.72183,194.94513l4.25493,-5.26267l1.95951,3.07922z" fill="#dad9da" stroke="#000000" stroke-width="0" stroke-linecap="round"/><path d="M202.22991,182.51626c1.79338,0 3.24718,1.42874 3.24718,3.19119c0,1.76245 -1.45382,3.19119 -3.24718,3.19119c-1.79338,0 -3.24718,-1.42874 -3.24718,-3.19119c0,-1.76245 1.45382,-3.19119 3.24718,-3.19119z" fill="#dad9da" stroke="none" stroke-width="0" stroke-linecap="butt"/><path d="M203.8535,188.56274l-0.27993,-0.80931l0.50388,-2.44354l0.61585,-1.50594c0,0 0.97275,0.87995 0.61585,2.53c-0.23005,1.06358 -1.45563,2.2288 -1.45563,2.2288z" fill="#a3a3a3" stroke="#000000" stroke-width="0" stroke-linecap="round"/><path d="M208.50033,191.25006c0,0 0.2319,-2.19019 1.42354,-3.71905c0.9715,-1.24642 2.88736,-2.0475 2.88736,-2.0475l2.51937,6.3264z" fill="#a3a3a3" stroke="#000000" stroke-width="0" stroke-linecap="round"/><path d="M208.43483,175.70434c-1.14521,-2.26104 0.06551,-3.88136 0.06551,-3.88136l6.21443,0.61585l-2.91126,5.5426c0,0 -2.24792,0.29569 -3.36867,-2.27707z" fill="#a3a3a3" stroke="#000000" stroke-width="0" stroke-linecap="round"/><path d="M210.51583,186.88317c0.56853,-0.54533 1.67958,-1.11971 1.67958,-1.11971l3.1352,6.04648l-5.87852,-3.41513c0,0 0.4952,-0.96629 1.06373,-1.51162z" fill="#dad9da" stroke="#000000" stroke-width="0" stroke-linecap="round"/><path d="M208.38836,175.574c-0.32301,-0.76142 -0.44789,-2.07148 -0.44789,-2.07148l6.66231,-0.72782l-5.09471,4.42288c0,0 -0.7967,-0.86217 -1.11971,-1.62359z" fill="#dad9da" stroke="#000000" stroke-width="0" stroke-linecap="round"/><path d="M200.27041,188.11485c0,0 -1.38109,-1.11455 -1.11971,-2.79929c0.28074,-1.80963 1.95951,-2.63133 1.95951,-2.63133l2.07148,4.47886l-0.16796,0.3919l-2.7433,0.55986z" fill="#a3a3a3" stroke="#000000" stroke-width="0" stroke-linecap="round"/><path d="M192.15245,178.3733c-0.50769,3.02157 -3.24718,2.91126 -3.24718,2.91126l-3.35915,-3.91902l4.64682,-2.68732c0,0 2.47292,0.63948 1.9595,3.69507z" fill="#a3a3a3" stroke="#000000" stroke-width="0" stroke-linecap="round"/><path d="M192.26442,177.70147l-6.49436,-0.44789l4.42288,-2.57536c0,0 1.13582,0.48394 1.51162,1.06372c0.37579,0.5798 0.55986,1.95951 0.55986,1.95951z" fill="#dad9da" stroke="#000000" stroke-width="0" stroke-linecap="round"/><path d="M194.67182,166.61627l3.30317,-5.43063l3.80704,5.1507c0,0 -1.94749,1.68059 -3.23919,1.73972c-2.92625,0.13395 -3.87101,-1.45978 -3.87101,-1.45978z" fill="#dad9da" stroke="#000000" stroke-width="0" stroke-linecap="round"/><path d="M195.90351,167.62401l2.07148,-6.15844l2.96725,5.37465c0,0 -1.36459,1.06947 -2.4074,1.23168c-1.0428,0.16221 -2.63133,-0.44789 -2.63133,-0.44789z" fill="#a3a3a3" stroke="#000000" stroke-width="0" stroke-linecap="round"/><path d="M235.21719,166.998l-1.40925,-1.49056l0.46071,-1.59896l1.76156,0.70462z" fill="#cf8129" stroke="#000000" stroke-width="0" stroke-linecap="round"/><path d="M241.4775,159.84336l-3.76702,-0.59622l-3.44182,4.76976l-0.75882,-3.38762l1.21954,-2.46618c0,0 2.51374,0.12553 3.83823,0.26126c1.22412,0.12544 3.88555,0.71438 3.88555,0.71438z" fill="url(#color-4)" stroke="#000000" stroke-width="0" stroke-linecap="round"/><path d="M234.21445,163.93559l3.38762,-4.79687l4.09223,0.62333l-1.86996,1.35504l-1.65316,0.18971l-2.22227,3.46893z" fill="#9d4c1b" stroke="#000000" stroke-width="0" stroke-linecap="round"/><path d="M218.25152,164.7328l-3.4644,0.46975l0.82205,-1.5267l-3.4644,-1.82027l3.58184,-0.46975l-0.23487,-0.41102c0,0 0.86325,-0.5996 1.46798,-0.52847c0.60471,0.07113 1.52669,0.88078 1.52669,0.88078z" fill="#9f4c1b" stroke="#000000" stroke-width="0" stroke-linecap="round"/><path d="M231.16963,172.36624c0,0 1.10886,2.99551 -2.17259,3.11209c-4.01517,0.14265 -2.93592,-2.8185 -2.93592,-2.8185z" fill="#984416" stroke="#000000" stroke-width="0" stroke-linecap="round"/><path d="M228.17498,157.51041c0,0 0.05286,-3.79673 3.4644,-2.05516c3.34007,1.70508 1.05694,4.0516 1.05694,4.0516z" fill="#9b4618" stroke="#000000" stroke-width="0" stroke-linecap="round"/><path d="M230.123,172.63566c0,0 0.57829,1.38555 -1.13306,1.43625c-2.09401,0.06204 -1.53116,-1.30857 -1.53116,-1.30857z" fill="#c77524" stroke="#000000" stroke-width="0" stroke-linecap="round"/><path d="M239.36363,162.25534l4.33614,-0.18971l-1.19244,4.17355l-3.38762,0.10841z" fill="#2a2c2a" stroke="#000000" stroke-width="0" stroke-linecap="round"/><path d="M242.34474,166.29338l1.27374,-3.98384l0.94854,0.67753l-1.05694,4.20064l-3.90254,0.13551l-0.65043,-1.02983z" fill="#1e1f1e" stroke="#000000" stroke-width="0" stroke-linecap="round"/><path d="M240.79998,165.04673c-0.6436,0 -1.16535,-0.52174 -1.16535,-1.16535c0,-0.6436 0.52174,-1.16535 1.16535,-1.16535c0.6436,0 1.16535,0.52174 1.16535,1.16535c0,0.6436 -0.52174,1.16535 -1.16535,1.16535z" fill="#a3a3a3" stroke="none" stroke-width="0" stroke-linecap="butt"/><path d="M229.33047,157.88791c0,0 0.06941,-2.09101 1.87378,-1.16988c1.76658,0.90182 0.55902,2.14291 0.55902,2.14291z" fill="#c77324" stroke="#000000" stroke-width="0" stroke-linecap="round"/><path d="M219.7195,171.25059c-3.22157,-4.05544 -1.96561,-11.0667 1.29181,-13.50531c2.77727,-2.07915 9.56772,0.05635 12.15478,1.99644c1.3934,1.04493 1.83689,9.88028 -0.93951,11.50886c-0.99308,0.58252 -9.39858,3.9131 -12.50708,0z" fill="#a5501b" stroke="#000000" stroke-width="0" stroke-linecap="round"/><path d="M244.56701,163.74589l-1.21955,-1.38215l-0.54202,2.19518l-0.56912,-0.18971l-2.05968,-3.49603l2.03257,-1.57185h0.43361l0.78592,1.59896l2.14097,1.92417z" fill="#da8b2d" stroke="#000000" stroke-width="0" stroke-linecap="round"/><path d="M230.05398,172.65985c-3.01162,0.35802 -5.30532,0.18396 -5.46084,-2.70106c-0.12323,-2.28608 4.28647,-4.34518 4.28647,-4.34518c0,0 -3.93022,-2.49223 -2.93592,-5.10853c1.24311,-3.271 3.01932,-2.74434 6.16546,-1.5854c1.75235,0.64551 1.35053,4.46262 1.35053,4.46262l1.05694,0.11745l-0.76334,4.99109h-0.88078c0,0 0.19312,3.811 -2.8185,4.16903z" fill="#df9431" stroke="#000000" stroke-width="0" stroke-linecap="round"/><path d="M224.53442,169.3716l1.23309,-2.11387l1.82027,0.35231l-1.35052,2.34875z" fill="url(#color-5)" stroke="#000000" stroke-width="0" stroke-linecap="round"/><path d="M239.51268,164.39632c-1.14501,0 -2.07323,-0.92821 -2.07323,-2.07323c0,-1.14501 0.92821,-2.07323 2.07323,-2.07323c1.14501,0 2.07323,0.92821 2.07323,2.07323c0,1.14501 -0.92821,2.07323 -2.07323,2.07323z" fill="#ff4500" stroke="none" stroke-width="0" stroke-linecap="butt"/><path d="M225.94368,163.85202l-0.52847,-2.64235h1.93772l0.52847,2.64235z" fill="url(#color-6)" stroke="#000000" stroke-width="0" stroke-linecap="round"/><path d="M237.31785,167.31125l-0.04145,-0.99476l-0.82896,0.33159l-0.0829,-0.91186l-0.87041,0.12435l1.94808,-4.72514l3.35732,2.15532l-1.90663,3.89616z" fill="#d78f31" stroke="#000000" stroke-width="0" stroke-linecap="round"/><path d="M234.31123,165.03478l0.91824,1.71693l0.51332,-1.76156l3.31587,1.94808c0,0 -1.93663,2.57511 -2.85995,2.9014c-1.24363,0.43948 -2.8185,-0.99476 -2.8185,-0.99476z" fill="url(#color-7)" stroke="#000000" stroke-width="0" stroke-linecap="round"/><path d="M240.05344,163.12497l-0.20725,0.29014" fill="none" stroke="#cf872d" stroke-width="0.5" stroke-linecap="round"/><path d="M238.97577,162.62758l0.37304,0.16579l-0.16579,0.49739" fill="none" stroke="#cf872d" stroke-width="0.5" stroke-linecap="round"/><path d="M238.3955,162.17165l-0.0829,0.33159" fill="none" stroke="#cf872d" stroke-width="0.5" stroke-linecap="round"/><path d="M228.80523,159.89205c0.99522,-0.92299 2.62936,-0.8009 3.64997,0.2727c1.0206,1.0736 1.04119,2.69215 0.04598,3.61514c-0.99522,0.92299 -2.62936,0.8009 -3.64998,-0.27269c-1.0206,-1.0736 -1.04118,-2.69216 -0.04597,-3.61514z" fill="#ffffff" stroke="none" stroke-width="0" stroke-linecap="butt"/><path d="M231.17099,162.28662c0.54528,0.03838 0.95838,0.35464 0.92264,0.70643c-0.03572,0.35177 -0.50674,0.60583 -1.05202,0.56745c-0.54528,-0.03838 -0.95838,-0.35466 -0.92264,-0.70643c0.03572,-0.35177 0.50674,-0.60583 1.05202,-0.56745z" fill="#3d0a00" stroke="none" stroke-width="0" stroke-linecap="butt"/><path d="M228.35256,168.01488c1.15879,-0.92275 2.66985,-1.23302 3.5284,-0.18173c0.85857,1.05129 0.49084,2.48579 -0.66794,3.40854c-1.15878,0.92275 -3.2501,1.15014 -4.10867,0.09884c-0.85857,-1.05129 0.08942,-2.4029 1.2482,-3.32565z" data-paper-data="{&quot;index&quot;:null}" fill="#ffffff" stroke="none" stroke-width="0" stroke-linecap="butt"/><path d="M229.22619,169.05477c-0.02051,-0.35299 0.40584,-0.65114 0.95228,-0.66595c0.54644,-0.01481 1.00605,0.25934 1.02655,0.61233c0.02051,0.35299 -0.40584,0.65114 -0.95228,0.66594c-0.54644,0.01481 -1.00605,-0.25933 -1.02655,-0.61233z" data-paper-data="{&quot;index&quot;:null}" fill="#3d0a00" stroke="none" stroke-width="0" stroke-linecap="butt"/></g></g></svg>