<svg version="1.1" xmlns="http://www.w3.org/2000/svg" xmlns:xlink="http://www.w3.org/1999/xlink" width="263.03045" height="160.49979" viewBox="0,0,263.03045,160.49979"><defs><linearGradient x1="255.94149" y1="159.15177" x2="310.39198" y2="159.15177" gradientUnits="userSpaceOnUse" id="color-1"><stop offset="0" stop-color="#1360d1"/><stop offset="1" stop-color="#46a3e4"/></linearGradient><linearGradient x1="252.78497" y1="180.72154" x2="306.18321" y2="180.72154" gradientUnits="userSpaceOnUse" id="color-2"><stop offset="0" stop-color="#0761e0"/><stop offset="1" stop-color="#33a1ec"/></linearGradient><linearGradient x1="255.94153" y1="200.97604" x2="310.39198" y2="200.97604" gradientUnits="userSpaceOnUse" id="color-3"><stop offset="0" stop-color="#1360d1"/><stop offset="1" stop-color="#46a3e4"/></linearGradient><linearGradient x1="137.00484" y1="182.66575" x2="137.00484" y2="198.67724" gradientUnits="userSpaceOnUse" id="color-4"><stop offset="0" stop-color="#6f6d6d"/><stop offset="1" stop-color="#89898b"/></linearGradient><linearGradient x1="189.57611" y1="181.65302" x2="124.6454" y2="244.90631" gradientUnits="userSpaceOnUse" id="color-5"><stop offset="0" stop-color="#464644" stop-opacity="0"/><stop offset="1" stop-color="#464644"/></linearGradient><linearGradient x1="128.67074" y1="241.18629" x2="184.2597" y2="184.53119" gradientUnits="userSpaceOnUse" id="color-6"><stop offset="0" stop-color="#343431"/><stop offset="1" stop-color="#1f1d1f"/></linearGradient><linearGradient x1="197.79885" y1="173.68238" x2="262.72956" y2="110.42904" gradientUnits="userSpaceOnUse" id="color-7"><stop offset="0" stop-color="#464644" stop-opacity="0"/><stop offset="1" stop-color="#464644"/></linearGradient><linearGradient x1="258.70421" y1="114.14908" x2="203.11525" y2="170.8042" gradientUnits="userSpaceOnUse" id="color-8"><stop offset="0" stop-color="#343431"/><stop offset="1" stop-color="#1f1d1f"/></linearGradient><linearGradient x1="189.70215" y1="173.55628" x2="126.44879" y2="108.62553" gradientUnits="userSpaceOnUse" id="color-9"><stop offset="0" stop-color="#464644" stop-opacity="0"/><stop offset="1" stop-color="#464644"/></linearGradient><linearGradient x1="130.16885" y1="112.6509" x2="186.82397" y2="168.23988" gradientUnits="userSpaceOnUse" id="color-10"><stop offset="0" stop-color="#343431"/><stop offset="1" stop-color="#1f1d1f"/></linearGradient><linearGradient x1="197.67282" y1="181.77905" x2="260.92609" y2="246.70973" gradientUnits="userSpaceOnUse" id="color-11"><stop offset="0" stop-color="#464644" stop-opacity="0"/><stop offset="1" stop-color="#464644"/></linearGradient><linearGradient x1="257.20608" y1="242.6844" x2="200.55099" y2="187.09545" gradientUnits="userSpaceOnUse" id="color-12"><stop offset="0" stop-color="#343431"/><stop offset="1" stop-color="#1f1d1f"/></linearGradient></defs><g transform="translate(-108.48479,-99.38111)"><g data-paper-data="{&quot;isPaintingLayer&quot;:true}" fill-rule="nonzero" stroke-linejoin="miter" stroke-miterlimit="10" stroke-dasharray="" stroke-dashoffset="0" style="mix-blend-mode: normal"><path d="M370.89247,184.97408c0,2.34384 -0.90679,4.24381 -2.02546,4.24381c-1.11864,0 -2.02547,-1.90001 -2.02547,-4.24381c0,-2.34384 0.9068,-4.24385 2.02547,-4.24385c1.11864,0 2.02546,1.90002 2.02546,4.24385z" fill="none" stroke="#17181a" stroke-width="1" stroke-linecap="butt"/><path d="M371.01525,175.64473c0,2.34384 -0.90679,4.24381 -2.02546,4.24381c-1.11864,0 -2.02547,-1.90002 -2.02547,-4.24381c0,-2.34384 0.9068,-4.24385 2.02547,-4.24385c1.11864,0 2.02546,1.90002 2.02546,4.24385z" fill="none" stroke="#17181a" stroke-width="1" stroke-linecap="butt"/><path d="M338.8535,193.9352v-8.22455h26.14675v8.22455z" fill="none" stroke="#17181a" stroke-width="1" stroke-linecap="butt"/><path d="M366.96436,189.7615c0,2.34384 -0.9068,4.24385 -2.02547,4.24385c-1.11864,0 -2.02546,-1.90001 -2.02546,-4.24385c0,-2.34384 0.90679,-4.24386 2.02546,-4.24386c1.11864,0 2.02547,1.90002 2.02547,4.24386z" fill="none" stroke="#17181a" stroke-width="1" stroke-linecap="butt"/><path d="M338.97625,175.64476v-8.22458h26.51501v8.22458z" fill="none" stroke="#17181a" stroke-width="1" stroke-linecap="butt"/><path d="M367.45534,171.47108c0,2.34384 -0.9068,4.24381 -2.02547,4.24381c-1.11864,0 -2.02546,-1.90002 -2.02546,-4.24381c0,-2.34384 0.90679,-4.24385 2.02546,-4.24385c1.11864,0 2.02547,1.90001 2.02547,4.24385z" fill="none" stroke="#17181a" stroke-width="1" stroke-linecap="butt"/><path d="M304.76473,139.56491h-27.38309v-13.16717h27.38309z" data-paper-data="{&quot;index&quot;:null}" fill="none" stroke="#17181a" stroke-width="1" stroke-linecap="butt"/><path d="M300.10571,133.06099c0,-3.60167 1.48462,-6.52148 3.31601,-6.52148c1.83138,0 4.65515,2.91979 4.65515,6.52148c0,3.60164 -2.82376,6.52143 -4.65515,6.52143c-1.83138,0 -3.31601,-2.91976 -3.31601,-6.52143z" data-paper-data="{&quot;index&quot;:null}" fill="none" stroke="#17181a" stroke-width="1" stroke-linecap="butt"/><path d="M303.84407,235.2581h-27.38309v-13.16717h27.38309z" fill="none" stroke="#17181a" stroke-width="1" stroke-linecap="butt"/><path d="M249.43663,142.11718c0,0 0,-25.32133 0,-31.88315c0,-3.74959 2.53718,-8.83833 6.26048,-8.83833c8.40428,0 22.85188,0 27.80393,0c3.28096,0 7.18115,4.96754 7.18115,8.83833c0,7.41197 0,32.40721 0,32.40721z" fill="none" stroke="#17181a" stroke-width="1" stroke-linecap="round"/><path d="M246.49053,142.11718c0,0 0,-25.32133 0,-31.88315c0,-3.74959 2.53718,-8.83833 6.26048,-8.83833c8.40429,0 22.85188,0 27.80393,0c3.28096,0 7.18115,4.96754 7.18115,8.83833c0,7.41197 0,32.40721 0,32.40721z" fill="none" stroke="#17181a" stroke-width="1" stroke-linecap="round"/><path d="M290.68219,218.13536c0,0 0,24.99523 0,32.40721c0,3.87079 -3.90017,8.83833 -7.18115,8.83833c-4.95205,0 -19.39963,0 -27.80393,0c-3.72328,0 -6.26048,-5.08873 -6.26048,-8.83833c0,-6.56181 0,-31.88316 0,-31.88316z" data-paper-data="{&quot;index&quot;:null}" fill="none" stroke="#17181a" stroke-width="1" stroke-linecap="round"/><path d="M287.73607,218.13536c0,0 0,24.99523 0,32.40721c0,3.87079 -3.90017,8.83833 -7.18114,8.83833c-4.95205,0 -19.39963,0 -27.80393,0c-3.72328,0 -6.26048,-5.08873 -6.26048,-8.83833c0,-6.56181 0,-31.88316 0,-31.88316z" data-paper-data="{&quot;index&quot;:null}" fill="none" stroke="#17181a" stroke-width="1" stroke-linecap="round"/><path d="M302.50109,222.07335c1.83138,0 4.65515,2.91978 4.65515,6.52143c0,3.60168 -2.82376,6.52148 -4.65515,6.52148c-1.83138,0 -3.316,-2.91979 -3.316,-6.52148c0,-3.60167 1.48462,-6.52143 3.316,-6.52143z" fill="none" stroke="#17181a" stroke-width="1" stroke-linecap="butt"/><path d="M296.97668,160.0724l-56.95863,-20.82682l-0.01705,-1.76878l70.9171,1.55198l12.88923,23.14802z" fill="none" stroke="#17181a" stroke-width="1" stroke-linecap="round"/><path d="M228.45326,148.84037l11.17942,-11.12683l54.18742,1.57825l12.62619,20.78061z" fill="none" stroke="#17181a" stroke-width="1" stroke-linecap="round"/><path d="M207.015,164.80721l32.09159,-25.51542l54.18742,2.36744l10.25875,18.15014z" fill="none" stroke="#17181a" stroke-width="1" stroke-linecap="round"/><path d="M323.80733,197.95101l-12.88923,23.14802l-71.10124,1.92023l-0.3799,-2.42846l57.53972,-20.53543z" data-paper-data="{&quot;index&quot;:null}" fill="none" stroke="#17181a" stroke-width="1" stroke-linecap="round"/><path d="M303.5528,200.31838l-10.25875,18.15014l-54.18743,2.36744l-32.09156,-25.51541z" data-paper-data="{&quot;index&quot;:null}" fill="none" stroke="#17181a" stroke-width="1" stroke-linecap="round"/><path d="M333.01608,160.99954h-15.94296c0,0 -10.17244,-9.50314 -7.11628,-13.16912c1.84147,-2.20895 23.05924,-1.26859 23.05924,-1.26859z" data-paper-data="{&quot;index&quot;:null}" fill="none" stroke="#17181a" stroke-width="1" stroke-linecap="butt"/><path d="M328.56228,153.86808c0,-3.9492 1.47284,-7.15073 3.28973,-7.15073c1.81689,0 4.45003,3.20151 4.45003,7.15073c0,3.9492 -2.63311,7.15071 -4.45003,7.15071c-1.81689,0 -3.28973,-3.20151 -3.28973,-7.15071z" data-paper-data="{&quot;index&quot;:null}" fill="none" stroke="#17181a" stroke-width="1" stroke-linecap="butt"/><path d="M333.01608,213.29677c0,0 -21.21777,0.94036 -23.05924,-1.26856c-3.05615,-3.66595 7.11628,-13.16912 7.11628,-13.16912h15.94296z" data-paper-data="{&quot;index&quot;:null}" fill="none" stroke="#17181a" stroke-width="1" stroke-linecap="butt"/><path d="M331.85202,198.83985c1.81689,0 4.45003,3.20154 4.45003,7.15073c0,3.94927 -2.63311,7.15073 -4.45003,7.15073c-1.81689,0 -3.28973,-3.20154 -3.28973,-7.15073c0,-3.9492 1.47281,-7.15073 3.28973,-7.15073z" data-paper-data="{&quot;index&quot;:null}" fill="none" stroke="#17181a" stroke-width="1" stroke-linecap="butt"/><path d="M117.84249,182.69435v-5.78702l26.04152,0.78915l-0.26303,-1.57826l64.70925,-11.57398l46.29604,-14.20448l85.48983,12.62619v34.98506l-85.22676,12.36312l-46.55904,-14.20445l-63.39402,-11.31098l-0.78911,-1.84134z" fill="none" stroke="#17181a" stroke-width="1" stroke-linecap="round"/><path d="M130.92049,198.67724v-16.01149h12.16871v16.01149z" fill="none" stroke="#17181a" stroke-width="1" stroke-linecap="butt"/><path d="M108.9848,196.4356v-2.08145h23.85709v2.08145z" fill="none" stroke="#17181a" stroke-width="1" stroke-linecap="butt"/><path d="M134.76326,196.59572v-2.24157h30.58194v2.24157z" fill="none" stroke="#17181a" stroke-width="1" stroke-linecap="butt"/><path d="M347.32358,189.14773v-8.22455h21.60481v8.22455z" fill="#3f3f3f" stroke="none" stroke-width="0" stroke-linecap="butt"/><path d="M347.56912,184.97408v-2.94609h20.50004v2.94609z" fill="#5f6160" stroke="none" stroke-width="0" stroke-linecap="butt"/><path d="M370.89247,184.97408c0,2.34384 -0.90679,4.24381 -2.02546,4.24381c-1.11864,0 -2.02547,-1.90001 -2.02547,-4.24381c0,-2.34384 0.9068,-4.24385 2.02547,-4.24385c1.11864,0 2.02546,1.90002 2.02546,4.24385z" fill="#9f9c9d" stroke="none" stroke-width="0" stroke-linecap="butt"/><path d="M370.36979,184.97408c0,1.73893 -0.67281,3.14862 -1.50279,3.14862c-0.82995,0 -1.50273,-1.40968 -1.50273,-3.14862c0,-1.73893 0.67278,-3.14862 1.50273,-3.14862c0.82995,0 1.50279,1.40969 1.50279,3.14862z" fill="#1a1a1a" stroke="none" stroke-width="0" stroke-linecap="butt"/><path d="M347.44637,179.81838v-8.22458h21.60484v8.22458z" fill="#3f3f3f" stroke="none" stroke-width="0" stroke-linecap="butt"/><path d="M347.69184,175.64473v-2.9461h20.50003v2.9461z" fill="#5f6160" stroke="none" stroke-width="0" stroke-linecap="butt"/><path d="M371.01525,175.64473c0,2.34384 -0.90679,4.24381 -2.02546,4.24381c-1.11864,0 -2.02547,-1.90002 -2.02547,-4.24381c0,-2.34384 0.9068,-4.24385 2.02547,-4.24385c1.11864,0 2.02546,1.90002 2.02546,4.24385z" fill="#9f9c9d" stroke="none" stroke-width="0" stroke-linecap="butt"/><path d="M338.8535,193.9352v-8.22455h26.14675v8.22455z" fill="#3f3f3f" stroke="none" stroke-width="0" stroke-linecap="butt"/><path d="M339.15061,189.7615v-2.9461h24.80969v2.9461z" fill="#5f6160" stroke="none" stroke-width="0" stroke-linecap="butt"/><path d="M366.96436,189.7615c0,2.34384 -0.9068,4.24385 -2.02547,4.24385c-1.11864,0 -2.02546,-1.90001 -2.02546,-4.24385c0,-2.34384 0.90679,-4.24386 2.02546,-4.24386c1.11864,0 2.02547,1.90002 2.02547,4.24386z" fill="#9f9c9d" stroke="none" stroke-width="0" stroke-linecap="butt"/><path d="M366.44165,189.7615c0,1.73893 -0.67281,3.14861 -1.50279,3.14861c-0.82995,0 -1.50272,-1.40968 -1.50272,-3.14861c0,-1.73893 0.67278,-3.14862 1.50272,-3.14862c0.82995,0 1.50279,1.40969 1.50279,3.14862z" fill="#1a1a1a" stroke="none" stroke-width="0" stroke-linecap="butt"/><path d="M338.97625,175.64476v-8.22458h26.51501v8.22458z" fill="#3f3f3f" stroke="none" stroke-width="0" stroke-linecap="butt"/><path d="M339.27755,171.47108v-2.94609h25.15914v2.94609z" fill="#5f6160" stroke="none" stroke-width="0" stroke-linecap="butt"/><path d="M367.45534,171.47108c0,2.34384 -0.9068,4.24381 -2.02547,4.24381c-1.11864,0 -2.02546,-1.90002 -2.02546,-4.24381c0,-2.34384 0.90679,-4.24385 2.02546,-4.24385c1.11864,0 2.02547,1.90001 2.02547,4.24385z" fill="#9f9c9d" stroke="none" stroke-width="0" stroke-linecap="butt"/><path d="M366.93263,171.47108c0,1.73893 -0.67281,3.14861 -1.50279,3.14861c-0.82995,0 -1.50272,-1.40968 -1.50272,-3.14861c0,-1.73893 0.67278,-3.14862 1.50272,-3.14862c0.82995,0 1.50279,1.40968 1.50279,3.14862z" fill="#1a1a1a" stroke="none" stroke-width="0" stroke-linecap="butt"/><path d="M370.49254,175.64473c0,1.73893 -0.67278,3.14861 -1.50273,3.14861c-0.82995,0 -1.50278,-1.40968 -1.50278,-3.14861c0,-1.73893 0.6728,-3.14862 1.50278,-3.14862c0.82995,0 1.50273,1.40969 1.50273,3.14862z" fill="#1a1a1a" stroke="none" stroke-width="0" stroke-linecap="butt"/><path d="M339.59002,184.60584v-8.22459h25.6557v8.22459z" fill="#3f3f3f" stroke="none" stroke-width="0" stroke-linecap="butt"/><path d="M343.88646,180.43219v-2.9461h20.50004v2.9461z" fill="#5f6160" stroke="none" stroke-width="0" stroke-linecap="butt"/><path d="M367.20985,180.43219c0,2.34384 -0.90679,4.24381 -2.02546,4.24381c-1.11864,0 -2.02547,-1.90001 -2.02547,-4.24381c0,-2.34384 0.9068,-4.24385 2.02547,-4.24385c1.11864,0 2.02546,1.90002 2.02546,4.24385z" fill="#9f9c9d" stroke="none" stroke-width="0" stroke-linecap="butt"/><path d="M366.68717,180.43219c0,1.73893 -0.6728,3.14862 -1.50278,3.14862c-0.82995,0 -1.50273,-1.40968 -1.50273,-3.14862c0,-1.73893 0.67278,-3.14862 1.50273,-3.14862c0.82995,0 1.50278,1.40969 1.50278,3.14862z" fill="#1a1a1a" stroke="none" stroke-width="0" stroke-linecap="butt"/><path d="M338.36251,189.51604v-8.22458h22.9551v8.22458z" fill="#3f3f3f" stroke="none" stroke-width="0" stroke-linecap="butt"/><path d="M338.62337,185.34236v-2.94609h21.78126v2.94609z" fill="#5f6160" stroke="none" stroke-width="0" stroke-linecap="butt"/><path d="M363.28169,185.34236c0,2.34384 -0.90679,4.24385 -2.02546,4.24385c-1.11864,0 -2.02547,-1.90001 -2.02547,-4.24385c0,-2.34384 0.9068,-4.24381 2.02547,-4.24381c1.11864,0 2.02546,1.90002 2.02546,4.24381z" fill="#9f9c9d" stroke="none" stroke-width="0" stroke-linecap="butt"/><path d="M362.75898,185.34236c0,1.73893 -0.67281,3.14862 -1.50279,3.14862c-0.82995,0 -1.50273,-1.40968 -1.50273,-3.14862c0,-1.73893 0.67278,-3.14862 1.50273,-3.14862c0.82995,0 1.50279,1.40968 1.50279,3.14862z" fill="#1a1a1a" stroke="none" stroke-width="0" stroke-linecap="butt"/><path d="M339.09904,180.43219v-8.22459h22.46405v8.22459z" fill="#3f3f3f" stroke="none" stroke-width="0" stroke-linecap="butt"/><path d="M339.35431,176.25853v-2.94609h21.31533v2.94609z" fill="#5f6160" stroke="none" stroke-width="0" stroke-linecap="butt"/><path d="M363.52719,176.25853c0,2.34384 -0.90679,4.24381 -2.02546,4.24381c-1.11864,0 -2.02547,-1.90002 -2.02547,-4.24381c0,-2.34384 0.9068,-4.24385 2.02547,-4.24385c1.11864,0 2.02546,1.90001 2.02546,4.24385z" fill="#9f9c9d" stroke="none" stroke-width="0" stroke-linecap="butt"/><path d="M363.00451,176.25853c0,1.73893 -0.6728,3.14862 -1.50278,3.14862c-0.82995,0 -1.50273,-1.40968 -1.50273,-3.14862c0,-1.73893 0.67278,-3.14862 1.50273,-3.14862c0.82995,0 1.50278,1.40968 1.50278,3.14862z" fill="#1a1a1a" stroke="none" stroke-width="0" stroke-linecap="butt"/><path d="M304.76473,139.56491h-27.38309v-13.16717h27.38309z" data-paper-data="{&quot;index&quot;:null}" fill="#636366" stroke="none" stroke-width="0" stroke-linecap="butt"/><path d="M300.10571,133.06099c0,-3.60167 1.48462,-6.52148 3.31601,-6.52148c1.83138,0 4.65515,2.91979 4.65515,6.52148c0,3.60164 -2.82376,6.52143 -4.65515,6.52143c-1.83138,0 -3.31601,-2.91976 -3.31601,-6.52143z" data-paper-data="{&quot;index&quot;:null}" fill="#c41f17" stroke="none" stroke-width="0" stroke-linecap="butt"/><path d="M302.08081,133.06099c0,-2.91099 1.1999,-5.2708 2.68005,-5.2708c1.48016,0 2.68008,2.35984 2.68008,5.2708c0,2.91099 -1.19992,5.27079 -2.68008,5.27079c-1.48016,0 -2.68005,-2.35984 -2.68005,-5.27079z" data-paper-data="{&quot;index&quot;:null}" fill="#000000" stroke="none" stroke-width="0" stroke-linecap="butt"/><path d="M303.84407,235.2581h-27.38309v-13.16717h27.38309z" fill="#636366" stroke="none" stroke-width="0" stroke-linecap="butt"/><path d="M249.43663,142.11718c0,0 0,-25.32133 0,-31.88315c0,-3.74959 2.53718,-8.83833 6.26048,-8.83833c8.40428,0 22.85188,0 27.80393,0c3.28096,0 7.18115,4.96754 7.18115,8.83833c0,7.41197 0,32.40721 0,32.40721z" fill="#23303a" stroke="#000000" stroke-width="0" stroke-linecap="round"/><path d="M246.49053,142.11718c0,0 0,-25.32133 0,-31.88315c0,-3.74959 2.53718,-8.83833 6.26048,-8.83833c8.40429,0 22.85188,0 27.80393,0c3.28096,0 7.18115,4.96754 7.18115,8.83833c0,7.41197 0,32.40721 0,32.40721z" fill="#414955" stroke="#000000" stroke-width="0" stroke-linecap="round"/><path d="M247.59531,141.04046c0,0 0,-23.96487 0,-30.17514c0,-3.54871 2.40127,-8.36487 5.92509,-8.36487c7.95406,0 21.62765,0 26.31445,0c3.10521,0 6.79647,4.70146 6.79647,8.36487c0,7.01493 0,30.67112 0,30.67112z" fill="#323c46" stroke="#000000" stroke-width="0" stroke-linecap="round"/><path d="M285.99226,133.23061v-16.38774h4.44986v16.38774z" fill="#9b0b02" stroke="none" stroke-width="0" stroke-linecap="butt"/><path d="M246.51133,133.23061v-16.38774h41.06143v16.38774z" fill="#d30701" stroke="none" stroke-width="0" stroke-linecap="butt"/><path d="M290.68219,218.13536c0,0 0,24.99523 0,32.40721c0,3.87079 -3.90017,8.83833 -7.18115,8.83833c-4.95205,0 -19.39963,0 -27.80393,0c-3.72328,0 -6.26048,-5.08873 -6.26048,-8.83833c0,-6.56181 0,-31.88316 0,-31.88316z" data-paper-data="{&quot;index&quot;:null}" fill="#23303a" stroke="#000000" stroke-width="0" stroke-linecap="round"/><path d="M287.73607,218.13536c0,0 0,24.99523 0,32.40721c0,3.87079 -3.90017,8.83833 -7.18114,8.83833c-4.95205,0 -19.39963,0 -27.80393,0c-3.72328,0 -6.26048,-5.08873 -6.26048,-8.83833c0,-6.56181 0,-31.88316 0,-31.88316z" data-paper-data="{&quot;index&quot;:null}" fill="#414955" stroke="#000000" stroke-width="0" stroke-linecap="round"/><path d="M286.63131,219.2402c0,0 0,23.65621 0,30.67112c0,3.66343 -3.69126,8.36487 -6.79647,8.36487c-4.6868,0 -18.36038,0 -26.31445,0c-3.52386,0 -5.92509,-4.81617 -5.92509,-8.36487c0,-6.21027 0,-30.17514 0,-30.17514z" data-paper-data="{&quot;index&quot;:null}" fill="#323c46" stroke="#000000" stroke-width="0" stroke-linecap="round"/><path d="M290.44212,227.54604v16.38775h-4.44986v-16.38775z" data-paper-data="{&quot;index&quot;:null}" fill="#9b0b02" stroke="none" stroke-width="0" stroke-linecap="butt"/><path d="M287.57275,227.54604v16.38775h-41.06144v-16.38775z" data-paper-data="{&quot;index&quot;:null}" fill="#d30701" stroke="none" stroke-width="0" stroke-linecap="butt"/><path d="M302.50109,222.07335c1.83138,0 4.65515,2.91978 4.65515,6.52143c0,3.60168 -2.82376,6.52148 -4.65515,6.52148c-1.83138,0 -3.316,-2.91979 -3.316,-6.52148c0,-3.60167 1.48462,-6.52143 3.316,-6.52143z" fill="#c41f17" stroke="none" stroke-width="0" stroke-linecap="butt"/><path d="M303.84022,223.32406c1.48016,0 2.68008,2.35981 2.68008,5.27079c0,2.91094 -1.19992,5.27079 -2.68008,5.27079c-1.48016,0 -2.68004,-2.35981 -2.68004,-5.27079c0,-2.91094 1.1999,-5.27079 2.68004,-5.27079z" fill="#000000" stroke="none" stroke-width="0" stroke-linecap="butt"/><path d="M297.14761,127.17457c0,0.45761 -0.65952,0.8286 -1.47305,0.8286c-0.81351,0 -1.47305,-0.37099 -1.47305,-0.8286c0,-0.45761 0.65953,-0.82859 1.47305,-0.82859c0.81351,0 1.47305,0.37098 1.47305,0.82859z" fill="#1e1c1b" stroke="none" stroke-width="0" stroke-linecap="butt"/><path d="M298.62066,130.39689c0,0.71185 -0.49459,1.2889 -1.1048,1.2889c-0.61018,0 -1.1048,-0.57706 -1.1048,-1.2889c0,-0.71185 0.4946,-1.2889 1.1048,-1.2889c0.61018,0 1.1048,0.57706 1.1048,1.2889z" fill="#1e1c1b" stroke="none" stroke-width="0" stroke-linecap="butt"/><path d="M294.20151,134.63193c0,0.81351 -0.45342,1.47305 -1.01274,1.47305c-0.55932,0 -1.01274,-0.65953 -1.01274,-1.47305c0,-0.81351 0.45342,-1.47305 1.01274,-1.47305c0.55932,0 1.01274,0.65953 1.01274,1.47305z" fill="#1e1c1b" stroke="none" stroke-width="0" stroke-linecap="butt"/><path d="M298.62066,137.76217c0,0.4068 -0.53584,0.73651 -1.19687,0.73651c-0.66099,0 -1.19687,-0.32973 -1.19687,-0.73651c0,-0.4068 0.53584,-0.73652 1.19687,-0.73652c0.66099,0 1.19687,0.32973 1.19687,0.73652z" fill="#1e1c1b" stroke="none" stroke-width="0" stroke-linecap="butt"/><path d="M295.67456,235.16798c-0.81351,0 -1.47305,-0.37098 -1.47305,-0.82859c0,-0.45764 0.6595,-0.8286 1.47305,-0.8286c0.81351,0 1.47305,0.37096 1.47305,0.8286c0,0.45764 -0.65952,0.82859 -1.47305,0.82859z" data-paper-data="{&quot;index&quot;:null}" fill="#1e1c1b" stroke="none" stroke-width="0" stroke-linecap="butt"/><path d="M297.51588,232.40602c-0.61013,0 -1.1048,-0.57706 -1.1048,-1.2889c0,-0.71185 0.4946,-1.2889 1.1048,-1.2889c0.61013,0 1.1048,0.57706 1.1048,1.2889c0,0.71185 -0.49467,1.2889 -1.1048,1.2889z" data-paper-data="{&quot;index&quot;:null}" fill="#1e1c1b" stroke="none" stroke-width="0" stroke-linecap="butt"/><path d="M293.18877,228.35511c-0.55932,0 -1.01274,-0.65949 -1.01274,-1.47305c0,-0.81351 0.45342,-1.47305 1.01274,-1.47305c0.55932,0 1.01274,0.65953 1.01274,1.47305c0,0.81351 -0.45342,1.47305 -1.01274,1.47305z" data-paper-data="{&quot;index&quot;:null}" fill="#1e1c1b" stroke="none" stroke-width="0" stroke-linecap="butt"/><path d="M297.42382,224.48831c-0.66103,0 -1.19687,-0.32977 -1.19687,-0.73652c0,-0.4068 0.53584,-0.73652 1.19687,-0.73652c0.66103,0 1.19687,0.32973 1.19687,0.73652c0,0.4068 -0.53581,0.73652 -1.19687,0.73652z" data-paper-data="{&quot;index&quot;:null}" fill="#1e1c1b" stroke="none" stroke-width="0" stroke-linecap="butt"/><path d="M296.97668,160.0724l-56.95863,-20.82682l-0.01705,-1.76878l70.9171,1.55198l12.88923,23.14802z" fill="#1f2731" stroke="#000000" stroke-width="0" stroke-linecap="round"/><path d="M228.45326,148.84037l11.17942,-11.12683l54.18742,1.57825l12.62619,20.78061z" fill="#3d4252" stroke="#000000" stroke-width="0" stroke-linecap="round"/><path d="M207.015,164.80721l32.09159,-25.51542l54.18742,2.36744l10.25875,18.15014z" fill="#343946" stroke="#000000" stroke-width="0" stroke-linecap="round"/><path d="M323.80733,197.95101l-12.88923,23.14802l-71.10124,1.92023l-0.3799,-2.42846l57.53972,-20.53543z" data-paper-data="{&quot;index&quot;:null}" fill="#1f2731" stroke="#000000" stroke-width="0" stroke-linecap="round"/><path d="M306.44629,200.05535l-12.62619,20.78061l-54.18738,1.57826l-10.25879,-10.39031z" data-paper-data="{&quot;index&quot;:null}" fill="#3d4252" stroke="#000000" stroke-width="0" stroke-linecap="round"/><path d="M303.5528,200.31838l-10.25875,18.15014l-54.18743,2.36744l-32.09156,-25.51541z" data-paper-data="{&quot;index&quot;:null}" fill="#343946" stroke="#000000" stroke-width="0" stroke-linecap="round"/><path d="M333.01608,160.99954h-15.94296c0,0 -10.17244,-9.50313 -7.11628,-13.16907c1.84147,-2.20891 23.05924,-1.2686 23.05924,-1.2686z" data-paper-data="{&quot;index&quot;:null}" fill="#636366" stroke="none" stroke-width="0" stroke-linecap="butt"/><path d="M328.56228,153.86808c0,-3.9492 1.47288,-7.15077 3.28973,-7.15077c1.81689,0 4.45003,3.2015 4.45003,7.15077c0,3.9492 -2.63311,7.15071 -4.45003,7.15071c-1.81689,0 -3.28973,-3.20151 -3.28973,-7.15071z" data-paper-data="{&quot;index&quot;:null}" fill="#c41f17" stroke="none" stroke-width="0" stroke-linecap="butt"/><path d="M330.35346,153.86808c0,-3.19185 1.19044,-5.77936 2.65884,-5.77936c1.4684,0 2.65886,2.58751 2.65886,5.77936c0,3.19185 -1.19046,5.77936 -2.65886,5.77936c-1.4684,0 -2.65884,-2.58749 -2.65884,-5.77936z" data-paper-data="{&quot;index&quot;:null}" fill="#000000" stroke="none" stroke-width="0" stroke-linecap="butt"/><path d="M317.78322,148.14066c-0.59274,0 -1.07319,-0.38619 -1.07319,-0.86263c0,-0.47644 0.4805,-0.86263 1.07319,-0.86263c0.59274,0 1.07319,0.3862 1.07319,0.86263c0,0.47644 -0.48049,0.86263 -1.07319,0.86263z" fill="#1e1c1b" stroke="none" stroke-width="0" stroke-linecap="butt"/><path d="M328.22231,147.17021c0,0.53591 -0.48049,0.97043 -1.07319,0.97043c-0.59274,0 -1.07319,-0.43452 -1.07319,-0.97043c0,-0.53591 0.4805,-0.97044 1.07319,-0.97044c0.59274,0 1.07319,0.43453 1.07319,0.97044z" fill="#1e1c1b" stroke="none" stroke-width="0" stroke-linecap="butt"/><path d="M322.36861,149.65024c0,0.59551 -0.52412,1.07828 -1.17073,1.07828c-0.6466,0 -1.17074,-0.48274 -1.17074,-1.07828c0,-0.59551 0.52413,-1.07829 1.17074,-1.07829c0.6466,0 1.17073,0.48275 1.17073,1.07829z" fill="#1e1c1b" stroke="none" stroke-width="0" stroke-linecap="butt"/><path d="M316.71002,153.53208c0,0.83372 -0.65517,1.50959 -1.46345,1.50959c-0.80825,0 -1.46344,-0.67586 -1.46344,-1.50959c0,-0.83372 0.65516,-1.50959 1.46344,-1.50959c0.80825,0 1.46345,0.67586 1.46345,1.50959z" fill="#1e1c1b" stroke="none" stroke-width="0" stroke-linecap="butt"/><path d="M325.68575,154.17906c0,0.83372 -0.4805,1.5096 -1.07319,1.5096c-0.59274,0 -1.07319,-0.67586 -1.07319,-1.5096c0,-0.83372 0.48049,-1.50959 1.07319,-1.50959c0.59274,0 1.07319,0.67586 1.07319,1.50959z" fill="#1e1c1b" stroke="none" stroke-width="0" stroke-linecap="butt"/><path d="M322.1735,159.03132c0,0.77417 -0.56787,1.40174 -1.26832,1.40174c-0.70045,0 -1.26832,-0.62761 -1.26832,-1.40174c0,-0.77417 0.56787,-1.40174 1.26832,-1.40174c0.70045,0 1.26832,0.62762 1.26832,1.40174z" fill="#1e1c1b" stroke="none" stroke-width="0" stroke-linecap="butt"/><path d="M333.01608,160.99954h-15.94296c0,0 -10.17244,-9.50314 -7.11628,-13.16912c1.84147,-2.20895 23.05924,-1.26859 23.05924,-1.26859z" data-paper-data="{&quot;index&quot;:null}" fill="#636366" stroke="none" stroke-width="0" stroke-linecap="butt"/><path d="M328.56228,153.86808c0,-3.9492 1.47284,-7.15073 3.28973,-7.15073c1.81689,0 4.45003,3.20151 4.45003,7.15073c0,3.9492 -2.63311,7.15071 -4.45003,7.15071c-1.81689,0 -3.28973,-3.20151 -3.28973,-7.15071z" data-paper-data="{&quot;index&quot;:null}" fill="#c41f17" stroke="none" stroke-width="0" stroke-linecap="butt"/><path d="M330.35346,153.86808c0,-3.19185 1.19044,-5.77934 2.65884,-5.77934c1.4684,0 2.65886,2.58752 2.65886,5.77934c0,3.19185 -1.19046,5.77936 -2.65886,5.77936c-1.4684,0 -2.65884,-2.58749 -2.65884,-5.77936z" data-paper-data="{&quot;index&quot;:null}" fill="#000000" stroke="none" stroke-width="0" stroke-linecap="butt"/><path d="M317.78322,148.14066c-0.59269,0 -1.07319,-0.38619 -1.07319,-0.86263c0,-0.47644 0.4805,-0.86268 1.07319,-0.86268c0.59269,0 1.07319,0.38624 1.07319,0.86268c0,0.47644 -0.48049,0.86263 -1.07319,0.86263z" fill="#1e1c1b" stroke="none" stroke-width="0" stroke-linecap="butt"/><path d="M328.22231,147.17021c0,0.53591 -0.48052,0.97043 -1.07319,0.97043c-0.59269,0 -1.07319,-0.43452 -1.07319,-0.97043c0,-0.53591 0.4805,-0.97048 1.07319,-0.97048c0.59269,0 1.07319,0.43453 1.07319,0.97048z" fill="#1e1c1b" stroke="none" stroke-width="0" stroke-linecap="butt"/><path d="M322.36866,149.65028c0,0.59551 -0.52413,1.07829 -1.17074,1.07829c-0.6466,0 -1.17074,-0.48275 -1.17074,-1.07829c0,-0.59551 0.52413,-1.07829 1.17074,-1.07829c0.6466,0 1.17074,0.48275 1.17074,1.07829z" fill="#1e1c1b" stroke="none" stroke-width="0" stroke-linecap="butt"/><path d="M316.71007,153.53208c0,0.83372 -0.6552,1.50959 -1.46345,1.50959c-0.80825,0 -1.46344,-0.67586 -1.46344,-1.50959c0,-0.83372 0.65516,-1.50962 1.46344,-1.50962c0.80825,0 1.46345,0.67585 1.46345,1.50962z" fill="#1e1c1b" stroke="none" stroke-width="0" stroke-linecap="butt"/><path d="M325.68575,154.17906c0,0.83372 -0.4805,1.5096 -1.07319,1.5096c-0.59269,0 -1.07319,-0.67586 -1.07319,-1.5096c0,-0.83372 0.48052,-1.50959 1.07319,-1.50959c0.59269,0 1.07319,0.67586 1.07319,1.50959z" fill="#1e1c1b" stroke="none" stroke-width="0" stroke-linecap="butt"/><path d="M322.1735,159.03132c0,0.77417 -0.56787,1.40181 -1.26832,1.40181c-0.70045,0 -1.26832,-0.62764 -1.26832,-1.40181c0,-0.77417 0.56782,-1.40174 1.26832,-1.40174c0.70045,0 1.26832,0.62762 1.26832,1.40174z" fill="#1e1c1b" stroke="none" stroke-width="0" stroke-linecap="butt"/><path d="M333.01608,213.29677c0,0 -21.21777,0.94036 -23.05924,-1.26856c-3.05615,-3.66595 7.11628,-13.16912 7.11628,-13.16912h15.94296z" data-paper-data="{&quot;index&quot;:null}" fill="#636366" stroke="none" stroke-width="0" stroke-linecap="butt"/><path d="M331.85202,198.83985c1.81689,0 4.45003,3.20154 4.45003,7.15073c0,3.94927 -2.63311,7.15073 -4.45003,7.15073c-1.81689,0 -3.28973,-3.20154 -3.28973,-7.15073c0,-3.9492 1.47281,-7.15073 3.28973,-7.15073z" data-paper-data="{&quot;index&quot;:null}" fill="#c41f17" stroke="none" stroke-width="0" stroke-linecap="butt"/><path d="M333.0123,200.21119c1.4684,0 2.65886,2.58749 2.65886,5.77936c0,3.19177 -1.19046,5.77933 -2.65886,5.77933c-1.4684,0 -2.65884,-2.58749 -2.65884,-5.77933c0,-3.19185 1.19044,-5.77936 2.65884,-5.77936z" data-paper-data="{&quot;index&quot;:null}" fill="#000000" stroke="none" stroke-width="0" stroke-linecap="butt"/><path d="M318.85641,212.58059c0,0.47644 -0.48049,0.86267 -1.07319,0.86267c-0.59269,0 -1.07319,-0.38624 -1.07319,-0.86267c0,-0.47644 0.4805,-0.86263 1.07319,-0.86263c0.59269,0 1.07319,0.38619 1.07319,0.86263z" data-paper-data="{&quot;index&quot;:null}" fill="#1e1c1b" stroke="none" stroke-width="0" stroke-linecap="butt"/><path d="M327.14914,213.65887c-0.59269,0 -1.07319,-0.43452 -1.07319,-0.97048c0,-0.53591 0.4805,-0.97044 1.07319,-0.97044c0.59269,0 1.07319,0.43453 1.07319,0.97044c0,0.53591 -0.48052,0.97048 -1.07319,0.97048z" data-paper-data="{&quot;index&quot;:null}" fill="#1e1c1b" stroke="none" stroke-width="0" stroke-linecap="butt"/><path d="M321.19789,211.28665c-0.6466,0 -1.17074,-0.48275 -1.17074,-1.07829c0,-0.59551 0.52413,-1.07829 1.17074,-1.07829c0.6466,0 1.17073,0.48275 1.17073,1.07829c0,0.59551 -0.52412,1.07829 -1.17073,1.07829z" data-paper-data="{&quot;index&quot;:null}" fill="#1e1c1b" stroke="none" stroke-width="0" stroke-linecap="butt"/><path d="M315.24663,207.83615c-0.80825,0 -1.46344,-0.67585 -1.46344,-1.50961c0,-0.83372 0.65516,-1.50959 1.46344,-1.50959c0.80825,0 1.46345,0.67586 1.46345,1.50959c0,0.83372 -0.6552,1.50961 -1.46345,1.50961z" data-paper-data="{&quot;index&quot;:null}" fill="#1e1c1b" stroke="none" stroke-width="0" stroke-linecap="butt"/><path d="M324.61253,207.18916c-0.59269,0 -1.07319,-0.67585 -1.07319,-1.50959c0,-0.83372 0.48052,-1.50959 1.07319,-1.50959c0.59269,0 1.07319,0.67586 1.07319,1.50959c0,0.83372 -0.4805,1.50959 -1.07319,1.50959z" data-paper-data="{&quot;index&quot;:null}" fill="#1e1c1b" stroke="none" stroke-width="0" stroke-linecap="butt"/><path d="M320.9052,202.22907c-0.70045,0 -1.26832,-0.62762 -1.26832,-1.40174c0,-0.77417 0.56782,-1.40174 1.26832,-1.40174c0.70045,0 1.26832,0.62761 1.26832,1.40174c0,0.77417 -0.56788,1.40174 -1.26832,1.40174z" data-paper-data="{&quot;index&quot;:null}" fill="#1e1c1b" stroke="none" stroke-width="0" stroke-linecap="butt"/><path d="M117.84249,182.69435v-5.78702l26.04152,0.78915l-0.26303,-1.57826l64.70925,-11.57398l46.29604,-14.20448l85.48983,12.62619v34.98506l-85.22676,12.36312l-46.55904,-14.20445l-63.39402,-11.31098l-0.78911,-1.84134z" fill="#202631" stroke="#000000" stroke-width="0" stroke-linecap="round"/><path d="M194.16586,176.74148l0.64043,6.40458l-38.42757,-2.08145l-11.68837,-3.84278z" fill="#363a46" stroke="#000000" stroke-width="0" stroke-linecap="round"/><path d="M192.54752,171.12034l61.2896,-9.20661l69.97017,6.31309l16.57187,-5.78701v36.03728l-14.99358,-4.99791l-71.54843,4.73484l-61.2896,-9.73264z" fill="#38404b" stroke="#000000" stroke-width="0" stroke-linecap="round"/><path d="M339.59002,194.79443l-12.36319,-3.9457v-21.04365l12.36319,-4.99783z" fill="#222530" stroke="#000000" stroke-width="0" stroke-linecap="round"/><path d="M323.80726,170.85731v19.99147l-71.28535,4.47176l-59.44833,-9.20661v-12.88922l59.71137,-8.6805z" fill="#343945" stroke="#000000" stroke-width="0" stroke-linecap="round"/><path d="M255.94153,161.65069l10.52182,-7.89138l43.92863,6.31309l-3.41958,4.47181z" fill="url(#color-1)" stroke="#000000" stroke-width="0" stroke-linecap="round"/><path d="M252.78497,193.47925v-25.51541l53.39828,2.63047v18.93929z" fill="url(#color-2)" stroke="#000000" stroke-width="0" stroke-linecap="round"/><path d="M306.97238,195.58357l3.41958,4.47177l-43.92863,6.3131l-10.52182,-7.89139z" data-paper-data="{&quot;index&quot;:null}" fill="url(#color-3)" stroke="#000000" stroke-width="0" stroke-linecap="round"/><path d="M130.92049,198.67724v-16.01149h12.16871v16.01149z" fill="url(#color-4)" stroke="none" stroke-width="0" stroke-linecap="butt"/><path d="M108.9848,196.4356v-2.08145h23.85709v2.08145z" fill="#565a5f" stroke="none" stroke-width="0" stroke-linecap="butt"/><path d="M134.76326,196.59572v-2.24157h30.58194v2.24157z" fill="#565a5f" stroke="none" stroke-width="0" stroke-linecap="butt"/><path d="M216.25352,185.69446c-2.17913,0 -3.9457,-2.35538 -3.9457,-5.26092c0,-2.90553 1.76653,-5.26091 3.9457,-5.26091c2.17913,0 3.9457,2.35538 3.9457,5.26091c0,2.90553 -1.76652,5.26092 -3.9457,5.26092z" fill="#000000" stroke="none" stroke-width="0" stroke-linecap="butt"/><g><path d="M123.36137,237.53795c0,0 50.40638,-48.62861 60.4315,-58.24593c1.19894,-1.15011 2.59651,-0.96908 3.21577,-0.2724c0.92085,1.03598 3.5858,4.03408 5.23005,5.8839c0.79876,0.89865 0.77345,2.08232 -0.28116,3.08821c-9.37077,8.9377 -69.11599,66.44831 -69.11599,66.44831z" data-paper-data="{&quot;index&quot;:null}" fill="none" stroke="url(#color-5)" stroke-width="1.25" stroke-linecap="butt"/><path d="M122.67044,238.21102l3.14469,-3.0335l8.37472,8.35345l-12.51759,12.04813z" data-paper-data="{&quot;index&quot;:null}" fill="#a5a1a4" stroke="none" stroke-width="0" stroke-linecap="butt"/><path d="M123.5208,237.38264c0,0 44.29425,-42.67439 54.31936,-52.29169c1.19894,-1.15011 9.21927,7.69382 8.16466,8.69971c-9.37077,8.9377 -63.4822,60.96006 -63.4822,60.96006z" data-paper-data="{&quot;index&quot;:null}" fill="#565657" stroke="none" stroke-width="0" stroke-linecap="butt"/><path d="M124.96431,238.86879c0,0 49.12973,-47.65056 58.13313,-56.33823c0.97692,-0.94263 6.59319,5.21211 5.74597,6.02998c-8.3377,8.04868 -65.96232,64.03079 -65.96232,64.03079z" data-paper-data="{&quot;index&quot;:null}" fill="url(#color-6)" stroke="none" stroke-width="0" stroke-linecap="butt"/><path d="M127.16823,233.8603l8.11847,8.33375l-1.70077,1.65683l-8.11846,-8.33375z" data-paper-data="{&quot;index&quot;:null}" fill="#a41415" stroke="none" stroke-width="0" stroke-linecap="butt"/><path d="M132.10044,229.05551l8.11847,8.33375l-1.70077,1.65683l-8.11847,-8.33375z" data-paper-data="{&quot;index&quot;:null}" fill="#a41415" stroke="none" stroke-width="0" stroke-linecap="butt"/><path d="M264.01356,117.79745c0,0 -50.40638,48.62861 -60.43151,58.24593c-1.19894,1.15011 -2.59651,0.96907 -3.21577,0.2724c-0.92085,-1.03598 -3.58579,-4.03408 -5.23004,-5.8839c-0.79876,-0.89865 -0.77346,-2.08231 0.28116,-3.08821c9.37077,-8.9377 69.116,-66.44831 69.116,-66.44831z" data-paper-data="{&quot;index&quot;:null}" fill="none" stroke="url(#color-7)" stroke-width="1.25" stroke-linecap="butt"/><path d="M264.70455,117.12433l-3.14468,3.03351l-8.3747,-8.35342l12.51758,-12.04814z" data-paper-data="{&quot;index&quot;:null}" fill="#a5a1a4" stroke="none" stroke-width="0" stroke-linecap="butt"/><path d="M263.85418,117.9527c0,0 -44.08165,42.46728 -54.10677,52.0846c-1.19894,1.15011 -2.59651,0.96907 -3.21577,0.27239c-0.92085,-1.03598 -3.58579,-4.03408 -5.23005,-5.88389c-0.79876,-0.89865 -0.77345,-2.08231 0.28117,-3.08821c9.37077,-8.9377 63.2696,-60.75295 63.2696,-60.75295z" data-paper-data="{&quot;index&quot;:null}" fill="#565657" stroke="none" stroke-width="0" stroke-linecap="butt"/><path d="M262.41067,116.46656c0,0 -44.59436,43.23234 -53.59776,51.92001c-0.97692,0.94263 -2.24267,0.64565 -2.79298,0.0273c-0.60809,-0.68328 -2.04021,-2.29241 -3.07734,-3.45774c-0.67789,-0.76166 -0.72286,-1.78167 0.12436,-2.59954c8.33771,-8.04868 61.42694,-59.61258 61.42694,-59.61258z" data-paper-data="{&quot;index&quot;:null}" fill="url(#color-8)" stroke="none" stroke-width="0" stroke-linecap="butt"/><path d="M260.20673,121.47505l-8.11846,-8.33375l1.70078,-1.65684l8.11846,8.33375z" data-paper-data="{&quot;index&quot;:null}" fill="#a41415" stroke="none" stroke-width="0" stroke-linecap="butt"/><path d="M255.27454,126.27984l-8.11846,-8.33375l1.70077,-1.65684l8.11847,8.33376z" data-paper-data="{&quot;index&quot;:null}" fill="#a41415" stroke="none" stroke-width="0" stroke-linecap="butt"/><path d="M133.81722,107.34155c0,0 48.6286,50.40638 58.24593,60.43151c1.15011,1.19894 0.96907,2.59651 0.2724,3.21577c-1.03598,0.92085 -4.03408,3.5858 -5.88389,5.23005c-0.89865,0.79876 -2.08231,0.77345 -3.08821,-0.28117c-8.9377,-9.37077 -66.44831,-69.11599 -66.44831,-69.11599z" data-paper-data="{&quot;index&quot;:null}" fill="none" stroke="url(#color-9)" stroke-width="1.25" stroke-linecap="butt"/><path d="M133.14412,106.6506l3.0335,3.14468l-8.35345,8.37473l-12.04813,-12.51759z" data-paper-data="{&quot;index&quot;:null}" fill="#a5a1a4" stroke="none" stroke-width="0" stroke-linecap="butt"/><path d="M133.97251,107.50097c0,0 42.19114,43.79819 51.80846,53.82332c1.15011,1.19894 0.96907,2.59652 0.2724,3.21578c-1.03598,0.92085 -4.03408,3.58579 -5.8839,5.23004c-0.89865,0.79876 -2.08232,0.77345 -3.08821,-0.28117c-8.9377,-9.37077 -60.47681,-62.98614 -60.47681,-62.98614z" data-paper-data="{&quot;index&quot;:null}" fill="#565657" stroke="none" stroke-width="0" stroke-linecap="butt"/><path d="M132.48636,108.94447c0,0 42.9562,44.31089 51.64388,53.31429c0.94263,0.97692 0.64565,2.24267 0.0273,2.79298c-0.68328,0.60809 -2.29241,2.04021 -3.45774,3.07735c-0.76166,0.67789 -1.78167,0.72286 -2.59954,-0.12436c-8.04868,-8.3377 -59.33644,-61.14349 -59.33644,-61.14349z" data-paper-data="{&quot;index&quot;:null}" fill="url(#color-10)" stroke="none" stroke-width="0" stroke-linecap="butt"/><path d="M137.49486,111.14834l-8.33376,8.11847l-1.65684,-1.70077l8.33376,-8.11846z" data-paper-data="{&quot;index&quot;:null}" fill="#a41415" stroke="none" stroke-width="0" stroke-linecap="butt"/><path d="M142.29969,116.0806l-8.33376,8.11847l-1.65684,-1.70078l8.33375,-8.11846z" data-paper-data="{&quot;index&quot;:null}" fill="#a41415" stroke="none" stroke-width="0" stroke-linecap="butt"/><path d="M253.55775,247.99372c0,0 -48.62861,-50.40637 -58.24593,-60.4315c-1.15011,-1.19894 -0.96907,-2.59652 -0.27239,-3.21577c1.03598,-0.92085 4.03408,-3.58579 5.88389,-5.23004c0.89865,-0.79876 2.08232,-0.77346 3.08821,0.28116c8.9377,9.37077 66.44831,69.116 66.44831,69.116z" data-paper-data="{&quot;index&quot;:null}" fill="none" stroke="url(#color-11)" stroke-width="1.25" stroke-linecap="butt"/><path d="M254.23089,248.68473l-3.03348,-3.1447l8.35343,-8.37471l12.04813,12.51758z" data-paper-data="{&quot;index&quot;:null}" fill="#a5a1a4" stroke="none" stroke-width="0" stroke-linecap="butt"/><path d="M253.40246,247.83433c0,0 -41.43177,-43.01869 -51.04909,-53.04381c-1.15011,-1.19894 -0.96908,-2.59652 -0.2724,-3.21577c1.03598,-0.92085 4.03408,-3.5858 5.8839,-5.23005c0.89865,-0.79876 2.08232,-0.77345 3.08821,0.28117c8.9377,9.37077 59.71745,62.20665 59.71745,62.20665z" data-paper-data="{&quot;index&quot;:null}" fill="#565657" stroke="none" stroke-width="0" stroke-linecap="butt"/><path d="M254.88853,246.39078c0,0 -42.19684,-43.53139 -50.88451,-52.53479c-0.94263,-0.97692 -0.64564,-2.24267 -0.0273,-2.79299c0.68328,-0.60809 2.29241,-2.0402 3.45774,-3.07734c0.76166,-0.67789 1.78167,-0.72286 2.59954,0.12436c8.04868,8.33771 58.57708,60.36399 58.57708,60.36399z" data-paper-data="{&quot;index&quot;:null}" fill="url(#color-12)" stroke="none" stroke-width="0" stroke-linecap="butt"/><path d="M249.8801,244.1869l8.33375,-8.11846l1.65684,1.70076l-8.33376,8.11847z" data-paper-data="{&quot;index&quot;:null}" fill="#a41415" stroke="none" stroke-width="0" stroke-linecap="butt"/><path d="M245.07531,239.25469l8.33375,-8.11847l1.65684,1.70077l-8.33376,8.11847z" data-paper-data="{&quot;index&quot;:null}" fill="#a41415" stroke="none" stroke-width="0" stroke-linecap="butt"/><path d="M184.73725,195.12532l-8.50109,-8.72653c0,0 8.10953,-9.56238 12.97886,-4.80436c4.79863,4.68895 -4.4778,13.53087 -4.4778,13.53087z" fill="#707582" stroke="#000000" stroke-width="0" stroke-linecap="round"/><path d="M184.78868,193.33142l-6.7693,-6.94881c0,0 6.45753,-7.61441 10.33492,-3.82565c3.82111,3.73374 -3.56559,10.77448 -3.56559,10.77448z" fill="#545a63" stroke="#000000" stroke-width="0" stroke-linecap="round"/><path d="M186.05288,183.21365c0.46342,-0.45144 1.20504,-0.44177 1.65651,0.02167c0.45144,0.46342 0.44176,1.20505 -0.02168,1.65652c-0.46342,0.45144 -1.20504,0.44176 -1.65651,-0.02168c-0.45144,-0.46342 -0.44176,-1.20504 0.02168,-1.65651z" fill="#888f9a" stroke="none" stroke-width="0" stroke-linecap="butt"/><path d="M202.11179,160.80394l8.50109,8.72653c0,0 -8.10954,9.56239 -12.97887,4.80438c-4.79866,-4.68898 4.4778,-13.53088 4.4778,-13.53088z" data-paper-data="{&quot;index&quot;:null}" fill="#707582" stroke="#000000" stroke-width="0" stroke-linecap="round"/><path d="M202.06036,162.59778l6.7693,6.94881c0,0 -6.45747,7.61442 -10.33489,3.82568c-3.82109,-3.73372 3.5656,-10.7745 3.5656,-10.7745z" data-paper-data="{&quot;index&quot;:null}" fill="#545a63" stroke="#000000" stroke-width="0" stroke-linecap="round"/><path d="M200.79616,172.71556c-0.46342,0.45144 -1.20505,0.44176 -1.65652,-0.02168c-0.45144,-0.46342 -0.44176,-1.20505 0.02168,-1.65652c0.46342,-0.45144 1.20508,-0.44174 1.65652,0.02168c0.45144,0.46342 0.44174,1.20508 -0.02168,1.65652z" data-paper-data="{&quot;index&quot;:null}" fill="#888f9a" stroke="none" stroke-width="0" stroke-linecap="butt"/><path d="M176.47641,169.07026l8.72653,-8.50109c0,0 9.56238,8.10952 4.80437,12.97885c-4.68895,4.79863 -13.53087,-4.47778 -13.53087,-4.47778z" fill="#707582" stroke="#000000" stroke-width="0" stroke-linecap="round"/><path d="M178.27032,169.1217l6.94881,-6.7693c0,0 7.6144,6.45753 3.82565,10.33492c-3.73374,3.82111 -10.77448,-3.5656 -10.77448,-3.5656z" fill="#545a63" stroke="#000000" stroke-width="0" stroke-linecap="round"/><path d="M188.3881,170.38589c0.45144,0.46342 0.44176,1.20505 -0.02168,1.65652c-0.46342,0.45144 -1.20505,0.44176 -1.65652,-0.02168c-0.45144,-0.46342 -0.44176,-1.20505 0.02168,-1.65652c0.46342,-0.45144 1.20505,-0.44176 1.65652,0.02168z" fill="#888f9a" stroke="none" stroke-width="0" stroke-linecap="butt"/><path d="M210.79783,186.44483l-8.72653,8.50109c0,0 -9.56241,-8.10955 -4.8044,-12.97888c4.68898,-4.79866 13.5309,4.47781 13.5309,4.47781z" data-paper-data="{&quot;index&quot;:null}" fill="#707582" stroke="#000000" stroke-width="0" stroke-linecap="round"/><path d="M209.00398,186.3934l-6.94882,6.7693c0,0 -7.61438,-6.4575 -3.82565,-10.33492c3.73372,-3.82109 10.77449,3.5656 10.77449,3.5656z" data-paper-data="{&quot;index&quot;:null}" fill="#545a63" stroke="#000000" stroke-width="0" stroke-linecap="round"/><path d="M198.88617,185.12918c-0.45144,-0.46342 -0.44175,-1.20508 0.02167,-1.65652c0.46342,-0.45144 1.20508,-0.44175 1.65652,0.02167c0.45144,0.46342 0.44174,1.20508 -0.02168,1.65652c-0.46342,0.45144 -1.20507,0.44175 -1.65651,-0.02167z" data-paper-data="{&quot;index&quot;:null}" fill="#888f9a" stroke="none" stroke-width="0" stroke-linecap="butt"/><path d="M189.82125,174.45313c2.84608,-2.77256 7.02261,-3.10131 9.32852,-0.73425c2.30591,2.36705 1.868,6.53352 -0.97811,9.30611c-2.84608,2.77256 -7.02262,3.10132 -9.32853,0.73426c-2.30591,-2.36705 -1.86797,-6.53356 0.97812,-9.30612z" fill="#262e37" stroke="none" stroke-width="0" stroke-linecap="butt"/><path d="M189.1254,173.73881c2.8461,-2.77258 7.02261,-3.10131 9.32852,-0.73426c2.30591,2.36705 1.868,6.53353 -0.97811,9.30611c-2.8461,2.77258 -7.02261,3.10132 -9.32852,0.73426c-2.30591,-2.36705 -1.868,-6.53353 0.97811,-9.30612z" fill="#333a45" stroke="none" stroke-width="0" stroke-linecap="butt"/></g></g></g></svg>