<svg version="1.1" xmlns="http://www.w3.org/2000/svg" xmlns:xlink="http://www.w3.org/1999/xlink" width="143.63531" height="129.53535" viewBox="0,0,143.63531,129.53535"><g transform="translate(-168.18236,-115.23233)"><g data-paper-data="{&quot;isPaintingLayer&quot;:true}" fill-rule="nonzero" stroke="none" stroke-width="0.5" stroke-linecap="butt" stroke-linejoin="miter" stroke-miterlimit="10" stroke-dasharray="" stroke-dashoffset="0" style="mix-blend-mode: normal"><path d="M263.42802,226.14509c0.37914,0.36106 0.67031,0.9094 0.691,1.74201c0.06209,2.49923 -2.43713,2.56132 -2.43713,2.56132l-1.62248,0.04031c-6.12977,0.1523 -12.40809,1.15089 -18.48025,1.10854c-2.85265,-0.01989 -5.10377,-0.3499 -6.81669,-3.08022c-0.65436,-1.04303 -0.56497,-2.40181 -0.71629,-3.62377c-0.45505,-3.67458 -0.19462,-7.61202 -0.28279,-11.31268c0.26328,-3.55246 -0.15156,-8.01264 3.16371,-10.5039c1.23251,-0.92616 5.30922,-0.84848 6.84367,-0.88778c4.7371,-0.12132 11.83508,-1.43681 16.05436,1.33517c2.91709,1.91648 2.67993,3.25187 3.17445,6.22224c0.90199,5.41777 0.33171,10.92976 0.42842,16.39876z" fill="#282e2c"/><path d="M234.87221,231.74177c-0.03504,-0.46394 0.04314,-0.81336 0.04314,-0.81336l1.08425,-2.64035c5.05946,-4.16223 13.76093,-3.14876 20.08768,-2.67466c2.36683,0.42493 5.56747,0.62583 7.39676,2.56446c2.83739,3.00698 2.77518,11.64365 -0.33502,14.40471c-1.14461,1.01612 -5.08071,0.94355 -6.66111,0.98281c-5.91915,0.14706 -16.7638,3.84711 -20.49209,-2.51641c-1.28964,-2.20119 -0.72206,-6.36471 -1.10496,-8.87853c0,0 -0.02562,-0.1705 -0.01864,-0.42866z" fill="#53504d"/><path d="M231.83773,134.31266c-0.83087,-1.116 -0.17024,-2.52361 -0.17024,-2.52361l2.50829,-2.72419c4.88834,-0.73477 9.62912,-0.91094 14.57128,-1.03073c3.66359,-0.08879 7.61734,-0.25502 10.8987,1.8072c2.42451,1.52372 2.86407,3.52099 3.44382,6.04731c1.21805,5.30776 0.5077,9.96237 -0.66748,15.1813c-1.06565,2.86426 -1.06296,4.52081 -4.31116,5.93608c-1.12399,0.48973 -4.37511,0.07764 -5.76673,0.27772c-4.99366,0.71795 -14.41403,4.71517 -18.5059,-0.19129c-2.56773,-3.07889 -1.1678,-8.73413 -0.79143,-12.1863c0.31652,-2.90323 -0.36341,-6.68012 -1.15295,-9.44961c0,0 -0.14384,-0.52009 -0.05623,-1.14386z" fill="#282e2c"/><path d="M260.03395,132.70467c-0.26872,0.05726 -0.45428,0.06187 -0.45428,0.06187l-2.59597,0.06449c-6.26773,0.15572 -12.4885,-0.00476 -18.751,0.12901c-4.79731,-0.88891 -8.21039,-1.82145 -8.60979,-7.50276c-0.07602,-1.08125 0.38002,-2.13611 0.64466,-3.18722c0.30772,-1.22224 0.22311,-2.69357 1.07073,-3.62636c1.0796,-1.18807 2.734,-1.7504 4.2621,-2.24228c2.44311,-0.78642 5.95285,-0.07116 8.5261,-0.26414c3.33312,-0.24998 6.56949,-0.99448 9.92654,-0.89603c2.74581,0.08052 6.30651,-0.06731 8.39909,2.34862c2.60904,3.01221 0.83289,9.34407 0.52977,12.86754c0,0 -0.21429,2.4908 -2.70509,2.27652c-0.08399,-0.00723 -0.1649,-0.01704 -0.24285,-0.02926z" fill="#53504d"/><path d="M236.74806,220.37651c-0.28184,0.65854 -0.88851,1.35526 -2.19332,1.38768c-0.2848,0.00707 -0.53795,-0.01911 -0.76297,-0.07107c-0.61469,0.1628 -1.15498,0.07838 -1.15498,0.07838c-6.5205,-1.02209 -14.13701,-1.75865 -20.02747,-4.9344c-7.89422,-4.25605 -16.12476,-13.66208 -17.02643,-22.87314c-0.48607,-4.96555 0.35497,-10.04405 1.65851,-14.82504c0.9456,-5.42181 3.46469,-9.94201 4.7943,-15.15836c1.71884,-6.74341 5.56282,-15.22888 11.58276,-19.3371c1.91366,-1.30595 4.23424,-1.89638 6.42326,-2.65518c2.38118,-0.82541 7.56229,-4.54493 10.08927,-3.65847c3.5123,1.23211 2.38462,4.96804 4.92166,6.64829c6.72619,1.99714 13.87856,1.18934 20.51135,4.06043c1.35178,0.58513 3.01282,0.89102 3.90967,2.0595c2.70002,3.5178 3.5173,11.29949 4.30308,15.58839c0.93977,5.12949 2.05397,10.86325 1.96963,16.08316c-0.08237,5.09812 -1.72553,9.97906 -2.90024,14.86142c-0.77659,3.22767 -0.64111,7.21924 -2.5293,10.11254c-0.72297,1.10782 -1.81071,1.92899 -2.71607,2.89348c-3.37609,2.02339 -6.56455,4.26994 -10.15441,5.93673c-3.43865,1.59658 -7.38164,2.13 -10.69829,3.80276z" fill="#8e582d"/><path d="M228.03819,207.37636c-0.17357,1.32144 -1.53934,1.9075 -1.53934,1.9075l-3.17622,0.52388c-1.1322,-0.52662 -2.44831,-0.7675 -3.3966,-1.57987c-2.92244,-2.50353 -3.68202,-7.91222 -4.25322,-11.44544c-1.45332,-8.9896 -3.80935,-20.38309 -1.11913,-29.26817c1.09595,-3.61962 2.30958,-8.84226 6.44292,-10.33055c1.42633,-0.51358 3.03187,-0.023 4.5478,-0.0345c8.75044,8.54248 8.88207,20.53478 8.64428,32.08566c-0.15185,7.37622 -1.02832,13.06923 -6.15046,18.14145z" fill="#e09137"/><path d="M227.5265,178.36319c-0.23978,0.61464 -0.69317,0.97245 -1.13169,1.18063c-0.41449,0.25322 -0.96248,0.43693 -1.60861,0.30079l-0.25979,0.00645c-4.92213,0.09156 -12.48766,-0.96364 -15.29811,-5.76808c-3.34385,-5.71629 1.47801,-12.47192 6.94263,-14.35493c7.38845,-2.54593 14.75636,4.85826 14.32746,12.32585c-0.15034,2.61754 -1.58704,4.33104 -2.9719,6.30928z" fill="#ffffff"/><path d="M223.87822,203.66624c-4.17065,1.14552 -9.16166,1.44121 -12.58729,-1.91201c-3.95029,-3.86682 -3.19011,-10.74776 1.36987,-13.75448c4.08077,-2.69073 14.67111,-2.16346 17.63613,2.04458c3.03662,4.30967 -0.21319,10.43591 -3.2926,13.39424c0,0 -1.55846,1.43355 -3.12613,0.22768z" fill="#ffffff"/><path d="M271.03461,199.60556c4.12465,-4.00141 8.31885,-7.70846 12.70841,-11.22063c0.17811,-0.22142 0.35396,-0.44132 0.52742,-0.6594c1.12369,-1.4127 1.68075,-3.22208 2.81576,-4.62571c0.67349,-0.83289 1.50659,-1.52456 2.21506,-2.32792c0.55827,-0.63306 1.74628,-1.57022 1.21172,-2.22342c-0.96199,-1.17551 -2.44893,-1.81079 -3.54933,-2.85784c-6.0369,-6.87569 -12.87387,-13.59526 -20.28526,-19.00952c-2.98606,-2.18141 -8.11133,-3.98096 -9.73775,-7.59914c-1.83911,-4.09134 0.72116,-12.03328 5.51236,-12.98317c2.64494,-0.52438 7.50263,2.2286 10.05063,3.11285c3.19056,0.97617 6.42176,1.88154 9.33569,3.56985c4.65391,2.69643 7.7083,6.96959 11.00464,11.0406c3.14671,3.88622 5.6405,7.70166 7.69216,12.01085c0.43991,-0.4538 1.0511,-0.74211 1.73284,-0.75905c0.88126,-0.0219 1.66733,0.41497 2.12944,1.09295l1.50234,2.13657l-0.04159,0.02925c0.05085,0.04603 0.10112,0.09277 0.15083,0.14026c2.13043,2.03598 2.63966,6.30874 2.74451,8.9909l-0.48122,2.76062c0,0 -0.28625,1.45833 -1.54173,1.90549c0.0025,0.06585 0.00409,0.13126 0.00475,0.19622c0.02954,2.92639 -2.61473,6.40779 -4.03157,8.80525c-3.96611,7.34153 -8.65584,15.4659 -14.91956,21.10786c-3.08189,2.77597 -6.54985,4.10631 -10.05236,6.08749c-4.57276,2.58655 -8.04985,4.6655 -13.39281,5.47758c0,0 -0.60278,0.0906 -1.25781,-0.11531c-0.27643,0.11098 -0.60592,0.18093 -0.99868,0.19069c-2.49923,0.06209 -2.56133,-2.43714 -2.56133,-2.43714c-0.0215,-0.86533 -0.0833,-3.35314 -0.1048,-4.21847c-0.05955,-3.1284 0.04462,-6.72971 1.78526,-9.51568c2.19617,-3.51507 5.8919,-3.95602 9.05216,-5.87848c-0.22872,-1.2459 0.77981,-2.22438 0.77981,-2.22438z" fill="#c47c35"/><path d="M259.96558,134.73717c-0.06209,-2.49923 2.43714,-2.56133 2.43714,-2.56133l2.09774,0.21191c7.03778,3.32425 13.60294,7.65955 20.65487,10.99511c8.02101,6.27665 16.29336,14.34282 21.51667,23.06391c2.04777,3.41906 5.44351,6.82635 5.12473,11.12933c-0.03776,0.50967 -1.68358,4.98008 -1.9192,5.7492c-1.26752,4.13768 -2.99558,7.69891 -5.04822,11.49601c-4.85111,11.69636 -15.03011,23.03748 -26.93798,27.84801c-4.27148,1.72558 -8.9391,2.49416 -13.23111,4.23412c0,0 -2.31829,0.93568 -3.25397,-1.38263c-0.93568,-2.3183 1.38262,-3.25398 1.38262,-3.25398c4.28167,-1.7212 8.93421,-2.50141 13.1842,-4.21492c10.8332,-4.36771 19.93773,-14.77521 24.3407,-25.3777c2.53783,-4.72209 5.69949,-10.19051 6.50427,-15.55931c0.37064,-2.4726 -3.31357,-6.20428 -4.44494,-8.11479c-4.76987,-8.05478 -12.53762,-15.48541 -19.84974,-21.36606c-6.89317,-3.20821 -13.26764,-7.515 -20.1472,-10.72003l0.15076,0.26027c0,0 -2.49923,0.06209 -2.56133,-2.43714z" fill="#403412"/><path d="M260.173,205.91538l-0.57153,-0.81485c-1.69961,-2.29112 -2.43617,-4.80741 -4.09116,-7.06892c-0.57208,-0.78173 -1.43337,-1.3601 -1.86912,-2.22526c-0.29212,-0.57999 -0.6207,-3.66804 -1.5836,-4.49033c-0.6323,-0.53997 -1.59099,-0.60164 -2.21001,-1.15678c-1.37113,-1.22966 -1.80278,-3.27522 -3.12707,-4.55518c-1.49021,-1.44032 -3.54422,-2.15935 -5.21381,-3.38721c0.4061,-1.66656 0.40533,-3.48925 1.21832,-4.99968c0.52398,-0.97347 1.76257,-1.3386 2.5887,-2.07326c1.58908,-1.41315 3.16506,-3.77777 4.18545,-5.62233c0.89119,-1.61101 0.59651,-3.72185 1.53535,-5.30557c0.20236,-0.34138 3.50242,-3.2665 4.15204,-3.78897c0.28628,-0.23025 0.91992,-0.25334 0.91081,-0.62061c-0.02453,-0.9885 -1.32574,-1.86232 -0.99554,-2.79436c0.91842,-2.5924 4.59785,-4.48588 7.19854,-4.28942c0.98271,0.07423 4.93192,2.56426 5.88923,3.1069c5.36807,3.04284 9.50506,7.16843 14.55828,10.59158c2.81792,2.67226 5.84902,5.52 8.46093,8.35591c1.25461,1.36221 3.04946,2.55189 3.44096,4.36198c0.68453,3.16488 -4.01045,6.66568 -5.96916,8.24645c-2.62295,2.11684 -4.98903,4.51171 -7.75377,6.44804c-2.22103,1.55553 -4.72143,2.69267 -6.9058,4.29929c-1.44546,1.06315 -2.36147,2.71498 -3.70078,3.90908c-1.94482,1.73397 -4.0904,3.3083 -6.05967,5.03403c0,0 -1.88021,1.64767 -3.52788,-0.23254c-0.2789,-0.31826 -0.45671,-0.62986 -0.55968,-0.92793z" fill="#5f3617"/><path d="M281.65948,165.43399c0.06209,2.49923 -2.43714,2.56132 -2.43714,2.56132l-1.94699,0.04837c-8.25058,0.19214 -16.51939,0.66202 -24.64455,1.89178c0,0 -2.47223,0.3716 -2.84383,-2.10063c-0.3716,-2.47223 2.10063,-2.84383 2.10063,-2.84383c8.33947,-1.24404 16.80194,-1.72371 25.26358,-1.94578l1.94699,-0.04837c0,0 2.49923,-0.06209 2.56132,2.43714z" fill="#321d0c"/><path d="M294.35714,181.84385c-0.42925,2.46287 -2.89212,2.03362 -2.89212,2.03362l-1.13921,-0.24783c-15.92759,0.37754 -31.81722,1.74935 -47.71132,0.19198c0,0 -2.48763,-0.24838 -2.23925,-2.73601c0.24837,-2.48763 2.73601,-2.23924 2.73601,-2.23924c15.65867,1.58942 31.38594,0.19473 47.09038,-0.21518l2.12189,0.32055c0,0 2.46287,0.42925 2.03362,2.89212z" fill="#321d0c"/><path d="M279.14815,195.0439c0.06209,2.49923 -2.43714,2.56132 -2.43714,2.56132l-0.3245,0.00806c-7.14364,0.16494 -14.28771,-0.958 -21.4491,-0.76588c0,0 -2.49922,0.06209 -2.56132,-2.43714c-0.06209,-2.49923 2.43713,-2.56133 2.43713,-2.56133c7.15658,-0.16524 14.31574,0.95725 21.4491,0.76589l0.3245,-0.00806c0,0 2.49923,-0.06209 2.56132,2.43714z" fill="#321d0c"/><path d="M217.31234,231.48801c0.09918,0.26542 0.16124,0.57805 0.17039,0.94628c0.06209,2.49923 -2.43714,2.56133 -2.43714,2.56133l-0.96146,0.01361c-1.92198,-0.1286 -3.86586,0.11806 -5.77764,-0.11782c-1.0555,-0.13023 -2.10085,-0.41611 -3.08093,-0.82904c-1.11563,-0.47003 -2.34969,-0.89475 -3.15529,-1.79841c-4.74216,-5.31933 0.96385,-12.74115 -1.13087,-18.5415c-0.49807,-1.37918 -2.45599,-1.38879 -3.42945,-1.79998c-3.26192,-1.37784 -6.45135,-3.36013 -8.37915,-6.41512c-2.79499,-4.42925 -1.90608,-9.98697 -3.97967,-14.72895c-3.77748,-9.16751 1.4912,-20.01554 7.03254,-27.41192c2.19885,-2.93495 4.81399,-5.85458 6.33854,-9.24273c3.10452,-6.89948 0.86034,-15.18813 2.14575,-22.37081c2.6536,-3.15067 6.75557,-6.43107 11.11523,-3.08488c4.28573,3.28945 1.47429,10.23737 2.89774,14.65255c1.70333,5.28332 3.21766,10.7526 5.03563,15.99018c2.42954,6.99955 5.06078,13.60836 5.78089,21.02978c1.59697,17.43131 -0.38702,35.30104 -8.1851,51.14743z" fill="#1e2422"/><path d="M206.73408,234.74194c-0.2158,2.37393 -2.63269,2.23286 -2.63269,2.23286c-2.08552,-0.12331 -4.30157,0.49586 -6.26359,-0.22184c-9.54226,-3.49051 -7.3186,-15.52272 -13.11284,-21.71134c-4.43699,-4.73897 -10.57453,-9.34338 -13.71831,-15.13046c-2.14189,-3.94281 -1.78474,-9.59278 -2.30477,-13.9095c-0.44588,-3.83475 -0.93167,-6.80424 0.06453,-10.703c0.8343,-3.26514 3.09591,-6.42066 4.60819,-9.37858c1.57724,-3.08497 2.41278,-6.26766 4.34462,-9.19315c2.28563,-3.46124 5.23558,-6.15053 7.23947,-9.80454c1.35981,-2.47956 2.97593,-4.80968 4.46621,-7.2131c2.71546,-4.37931 4.31941,-9.52956 9.92847,-11.17085c1.3994,-0.40948 2.8911,-0.38165 4.33665,-0.57248c1.27754,1.39947 3.09774,2.45181 3.83259,4.19839c1.39675,3.31975 -0.93794,5.98471 -2.09209,8.68359c-1.17266,2.74217 -2.03244,5.65162 -3.21726,8.40115c-0.36997,0.85855 -1.09784,1.59955 -1.21704,2.52678c-0.10985,0.8544 0.65138,1.6637 0.56807,2.5211c-0.17111,1.76112 -1.60751,6.02693 -2.61297,7.82363c-5.25839,9.3964 -13.27205,17.16082 -10.95519,28.81017c0.36936,3.30659 1.32072,7.0765 3.60046,9.65662c1.89701,2.14695 4.23274,3.75594 5.93543,6.17096c1.60032,2.26984 3.51797,5.73587 4.95905,8.05218c1.40369,2.25621 3.31612,4.25114 4.27158,6.73063c1.19435,3.09941 0.82153,6.66233 0.63598,9.88058l-0.2044,2.06862c0,0 -0.06485,0.64948 -0.46013,1.25159z" fill="#494c49"/><path d="M180.21736,194.39485c-0.17269,0.46026 -0.53169,0.91663 -1.20784,1.27596c-2.20761,1.17323 -3.38083,-1.03438 -3.38083,-1.03438l-0.80592,-2.07888c-0.07398,-3.56425 -0.59859,-7.19415 -1.00248,-10.75138c0.39487,-7.13026 0.95367,-13.51633 5.4496,-19.34293c1.40314,-1.81842 4.12288,-6.485 7.77303,-3.39479c1.37798,1.16661 -0.07686,6.22441 -0.62492,8.00423c-1.18806,3.85825 -3.5017,7.19083 -4.32225,11.18255c-0.97022,4.71982 -1.12801,9.74907 -1.28917,14.54564c0,0 -0.03032,0.8937 -0.58919,1.59398z" fill="#232423"/><path d="M194.00184,176.71588c-0.6379,-4.32755 0.62123,-8.69722 5.42498,-10.23501c3.60969,-1.15555 7.06039,0.76888 9.57233,3.11352c2.46906,2.30462 2.63974,4.98703 6.17994,3.57183c1.62124,0.0809 3.6342,-0.81716 4.86371,0.24268c1.22036,1.05194 0.89837,3.13373 0.92218,4.74472c0.01944,1.3151 -0.15917,2.71346 -0.79493,3.86485c-0.40283,0.72953 -1.22926,1.13176 -1.99143,1.51287c3.40239,0.73348 3.40256,6.29805 1.25222,8.63754c-1.58034,1.71935 -4.46375,1.42377 -6.57041,2.43156c-1.44148,0.68957 -2.11496,2.41216 -3.33738,3.44128c-2.09429,1.76313 -3.6483,2.60314 -6.46771,2.92624c-6.28815,0.72062 -11.80351,-3.93373 -12.0183,-10.26562c-0.06868,-2.02458 0.59492,-3.9996 1.12414,-5.91406c0.10439,-1.71778 0.21381,-3.43527 0.327,-5.15249l1.02407,-2.31132c0,0 0.16805,-0.29655 0.48954,-0.60859zM197.11878,185.23746c0.11035,-0.35057 0.15453,-0.7066 0.07374,-1.05982c-0.02445,0.35327 -0.04903,0.70656 -0.07374,1.05982z" fill="#f5f5f5"/><path d="M206.09037,197.76376c-5.47112,4.54708 -13.81656,-3.27713 -8.92433,-9.78828c3.32829,-4.42969 11.33294,-4.19101 12.9822,1.60635c1.15052,4.04423 -0.14286,4.4238 -2.33265,7.24927c0,0 -0.70086,0.82906 -1.72522,0.93267z" fill="#000000"/><path d="M207.02634,170.94747c2.3274,2.71324 3.63804,3.02811 2.68977,7.12448c-1.35933,5.87211 -9.34225,6.50799 -12.88641,2.24905c-5.20954,-6.26017 2.73706,-14.48916 8.42724,-10.21938c1.02824,0.05262 1.76941,0.84584 1.76941,0.84584z" data-paper-data="{&quot;index&quot;:null}" fill="#000000"/><path d="M230.4971,198.58365l0.078,-0.25074c0.69615,-1.87408 2.23892,-8.02967 3.79656,-8.93346c3.17643,-1.84303 10.19247,1.88669 11.17438,5.06537c0.57858,1.87302 -1.01016,3.82933 -1.03331,5.78953c-0.02766,2.34134 0.66691,6.77396 -1.92884,8.16716c-1.4125,0.75812 -2.95632,-1.24738 -4.38693,-1.97072c-2.38178,-1.20426 -4.73735,-2.55434 -7.12508,-3.7804c0,0 -2.2238,-1.14225 -1.08155,-3.36604c0.1523,-0.29651 0.32384,-0.53319 0.50677,-0.7207z" fill="#974f19"/><path d="M233.3155,175.45667c-0.08068,0.00782 -0.16434,0.01292 -0.25108,0.01507c-2.49923,0.06209 -2.56132,-2.43714 -2.56132,-2.43714l0.00371,-0.26394c-0.19902,-1.7292 -0.00961,-3.50343 -0.35255,-5.20992c-0.63166,-3.14326 -2.57065,-3.95165 -0.20958,-7.53382c0.73557,-1.11598 2.20466,-1.53259 3.41143,-2.10721c4.19806,-1.99895 7.81523,-1.22598 9.74728,3.28909c0.51737,1.20906 1.1992,2.52008 0.99148,3.81866c-0.22104,1.38184 -1.51976,2.35427 -2.17656,3.58998c-1.77328,3.33628 -2.86315,4.74832 -6.17202,6.71811c0,0 -1.26785,0.74616 -2.43079,0.12114z" fill="#974f19"/><path d="M240.44834,206.52955c-0.20505,-0.85918 0.13081,-1.66846 0.13081,-1.66846l0.76416,-1.65685c0.30035,-1.68306 0.82431,-3.51346 2.0565,-4.69863c-0.32155,-0.2744 -0.79515,-0.43596 -0.96467,-0.82319c-0.64365,-1.47031 -2.00761,-3.11363 -1.41107,-4.60368c0.19576,-0.48898 5.19377,-2.68746 6.423,-3.17666c1.09472,-0.43567 2.13781,-1.36482 3.30954,-1.24129c1.78641,0.18834 3.89911,0.66144 4.95746,2.11286c0.88958,1.21996 0.10666,3.03461 -0.11498,4.5281c-0.06859,0.46214 -0.85151,0.74171 -0.73417,1.19393c0.10422,0.40166 0.8144,0.22137 1.16072,0.44998c0.93939,0.62009 2.00585,1.1618 2.66418,2.0748c0.80278,1.11335 1.44121,2.43853 1.57517,3.80457c0.11971,1.22074 -0.38828,2.44406 -0.851,3.58004c-3.37514,8.28584 -11.28857,6.14464 -17.65483,2.85406c0,0 -1.78606,-0.93498 -1.31083,-2.72959z" fill="#d68839"/><path d="M238.99395,174.64863c-0.888,-0.84735 -0.69848,-2.18924 -0.69848,-2.18924l0.46901,-2.28578c0.37509,-0.71507 0.75018,-1.43013 1.12527,-2.1452c0.35453,-0.27137 1.29532,-0.43248 1.06359,-0.8141c-0.41477,-0.68313 -1.92247,-0.25416 -2.17302,-1.01306c-0.60951,-1.84611 1.19206,-3.83329 0.92358,-5.75878c-0.17864,-1.28119 -1.74338,-2.54459 -1.1651,-3.70172c0.7472,-1.49512 2.76925,-1.90961 4.30224,-2.57563c3.8854,-1.68802 11.69957,-1.37674 13.58692,3.32552c1.67496,4.17309 -0.12656,5.25541 -2.84625,7.45204c-0.5476,0.44228 -1.40913,0.51526 -1.80374,1.09815c-0.99038,1.4629 0.32297,3.67695 -0.41099,5.28388c-2.01868,4.41964 -5.883,4.57946 -10.02579,4.7063c0,0 -1.73037,0.04299 -2.34726,-1.38237z" fill="#d68839"/><path d="M228.38216,196.91433c-1.38028,0.03429 -2.52703,-1.05685 -2.56133,-2.43714c-0.03429,-1.38028 1.05685,-2.52703 2.43714,-2.56132c1.38028,-0.03429 2.52703,1.05685 2.56132,2.43714c0.03429,1.38028 -1.05685,2.52703 -2.43713,2.56132z" fill="#000000"/><path d="M227.58332,174.6274c-1.38028,0.03429 -2.52703,-1.05686 -2.56133,-2.43714c-0.03429,-1.38028 1.05685,-2.52703 2.43714,-2.56132c1.38028,-0.03429 2.52703,1.05685 2.56132,2.43714c0.03429,1.38028 -1.05685,2.52703 -2.43713,2.56132z" fill="#000000"/><path d="M232.91313,186.62156c-0.54219,-1.73089 -0.44784,-4.27178 -0.47771,-6.06011c-0.01693,-1.01418 -0.52541,-2.06557 -0.22563,-3.0346c0.48023,-1.55238 0.98361,-3.53853 2.46537,-4.20551c4.18649,-1.88444 6.06328,1.42966 7.26364,4.18888c1.76334,4.05333 1.16785,11.71634 -3.68901,13.5797c-1.19837,0.45977 -2.54848,-0.30854 -3.82272,-0.46281c0,0 -2.44919,-0.50147 -1.94771,-2.95066c0.09015,-0.44031 0.24326,-0.78527 0.43377,-1.0549z" fill="#e09137"/><path d="M230.21348,181.92711c0.44152,-0.23465 0.67616,0.20688 0.67616,0.20688l0.12986,0.24435c0.48343,0.92555 0.62117,1.70253 0.19015,2.67083c0,0 -0.21243,0.45262 -0.66506,0.2402c-0.45263,-0.21243 -0.2402,-0.66506 -0.2402,-0.66506c0.32578,-0.64247 0.16693,-1.16017 -0.16793,-1.77669l-0.12986,-0.24435c0,0 -0.23465,-0.44152 0.20688,-0.67616z" fill="#000000"/></g></g></svg>