<svg version="1.1" xmlns="http://www.w3.org/2000/svg" xmlns:xlink="http://www.w3.org/1999/xlink" width="114.65401" height="129.13596" viewBox="0,0,114.65401,129.13596"><g transform="translate(-182.47002,-115.43261)"><g data-paper-data="{&quot;isPaintingLayer&quot;:true}" fill-rule="nonzero" stroke-linecap="butt" stroke-linejoin="miter" stroke-miterlimit="10" stroke-dasharray="" stroke-dashoffset="0" style="mix-blend-mode: normal"><g stroke-width="0"><path d="M293.6468,173.11522l0.19197,-16.92757l3.28526,0.03726l-0.19197,16.92757z" data-paper-data="{&quot;index&quot;:null}" fill="none" stroke="#5a2800"/><path d="M288.02869,176.09764l0.26589,-23.44557l3.99055,0.04526l-0.26589,23.44557z" data-paper-data="{&quot;index&quot;:null}" fill="none" stroke="#5a2800"/><path d="M291.03963,175.98962l0.26182,-23.08644l3.25528,0.03692l-0.26182,23.08644z" data-paper-data="{&quot;index&quot;:null}" fill="none" stroke="#5a2800"/><path d="M281.92368,195.12113l0.68175,-60.11428l6.51061,0.07384l-0.68175,60.11428z" data-paper-data="{&quot;index&quot;:null}" fill="none" stroke="#5a2800"/><path d="M273.2417,195.1349l0.68548,-60.44351l8.89773,0.10091l-0.68548,60.44351z" data-paper-data="{&quot;index&quot;:null}" fill="none" stroke="#5a2800"/><path d="M293.6468,173.11522l0.19197,-16.92751l3.28526,0.03726l-0.19197,16.92751z" data-paper-data="{&quot;index&quot;:null}" fill="#542a00" stroke="none"/><path d="M288.02874,176.09764l0.26589,-23.44557l3.99055,0.04526l-0.26589,23.44557z" data-paper-data="{&quot;index&quot;:null}" fill="#613000" stroke="none"/><path d="M287.79472,172.39764l0.12552,-11.06803l3.50225,0.03972l-0.12552,11.06803z" data-paper-data="{&quot;index&quot;:null}" fill="#723f00" stroke="none"/><path d="M291.03963,175.98957l0.26182,-23.08644l3.25528,0.03692l-0.26182,23.08644z" data-paper-data="{&quot;index&quot;:null}" fill="#6d3e0f" stroke="none"/><path d="M291.29194,172.8714l0.12798,-11.28501l3.0383,0.03446l-0.12798,11.28501z" data-paper-data="{&quot;index&quot;:null}" fill="#794b16" stroke="none"/><path d="M281.92368,195.12108l0.68175,-60.11432l6.51061,0.07384l-0.68175,60.11432z" data-paper-data="{&quot;index&quot;:null}" fill="#895621" stroke="none"/><path d="M282.31198,189.91631l0.43071,-37.97836l5.85208,0.06637l-0.43071,37.97836z" data-paper-data="{&quot;index&quot;:null}" fill="#ae6e1d" stroke="none"/><path d="M273.24174,195.1349l0.68548,-60.44356l8.89773,0.10091l-0.68548,60.44356z" data-paper-data="{&quot;index&quot;:null}" fill="#7b4911" stroke="none"/><path d="M273.45126,189.85321l0.43223,-38.11306l8.6807,0.09845l-0.43223,38.11306z" data-paper-data="{&quot;index&quot;:null}" fill="#9a5a0b" stroke="none"/><path d="M190.46575,194.51021l0.68175,-60.11432l6.51061,0.07384l-0.68175,60.11432z" fill="none" stroke="#5a2800"/><path d="M196.75801,194.69379l0.68548,-60.44362l8.89773,0.10091l-0.68548,60.44362z" fill="none" stroke="#5a2800"/><path d="M182.47003,172.28066l0.19197,-16.92757l3.28522,0.03726l-0.19197,16.92757z" fill="none" stroke="#5a2800"/><path d="M187.31375,175.38173l0.26589,-23.44557l3.99055,0.04526l-0.26589,23.44557z" fill="none" stroke="#5a2800"/><path d="M185.04131,175.2138l0.26182,-23.08629l3.25528,0.03692l-0.26182,23.08629z" fill="none" stroke="#5a2800"/><path d="M182.47003,172.28066l0.19197,-16.92751l3.28522,0.03726l-0.19197,16.92751z" fill="#542a00" stroke="none"/><path d="M187.31375,175.38173l0.26589,-23.44557l3.99055,0.04526l-0.26589,23.44557z" fill="#613000" stroke="none"/><path d="M188.11997,171.69352l0.12552,-11.06803l3.50225,0.03972l-0.12552,11.06803z" fill="#723f00" stroke="none"/><path d="M185.04131,175.21375l0.26182,-23.08639l3.25528,0.03692l-0.26182,23.08639z" fill="#6d3e0f" stroke="none"/><path d="M185.0767,172.09312l0.12798,-11.28501l3.03825,0.03446l-0.12798,11.28501z" fill="#794b16" stroke="none"/><path d="M190.4658,194.51015l0.68175,-60.11432l6.51061,0.07384l-0.68175,60.11438z" fill="#895621" stroke="none"/><path d="M190.85421,189.30539l0.43071,-37.97841l5.85208,0.06637l-0.43071,37.97841z" fill="#ae6e1d" stroke="none"/><path d="M196.75801,194.69379l0.68548,-60.44362l8.89773,0.10091l-0.68548,60.44362z" fill="#7b4911" stroke="none"/><path d="M196.88541,189.41118l0.43223,-38.11306l8.68081,0.09845l-0.43223,38.11306z" fill="#9a5a0b" stroke="none"/><path d="M278.05954,165.88816c-0.31331,27.6269 -17.57086,49.83012 -38.54571,49.59225c-20.97486,-0.23787 -37.72442,-22.82671 -37.41111,-50.45366c0.31331,-27.6269 17.57086,-49.83012 38.54571,-49.59225c20.97486,0.23787 37.72442,22.82676 37.41111,50.45366z" fill="none" stroke="#0f0a0c"/><path d="M213.68367,215.62154l0.22889,-20.18279l52.51864,0.59561l-0.22889,20.18279z" fill="none" stroke="#0f0a0c"/><path d="M268.962,221.67462c-0.14272,12.58493 -13.37543,22.63824 -29.55603,22.45474c-16.18059,-0.1835 -29.1819,-10.53437 -29.03918,-23.11926c0.14272,-12.58493 13.37543,-22.63824 29.55603,-22.45474c16.18059,0.1835 29.1819,10.53437 29.03918,23.11926z" fill="none" stroke="#0f0a0c"/><path d="M268.71176,224.6019c-0.12709,11.20654 -13.1528,20.14475 -29.09372,19.96397c-15.94092,-0.18078 -28.76058,-9.41205 -28.63348,-20.61864c0.12709,-11.20654 13.1528,-20.14475 29.09372,-19.96397c15.94092,0.18078 28.76057,9.41211 28.63348,20.61864z" fill="none" stroke="#0f0a0c"/><path d="M278.05954,165.88816c-0.31331,27.6269 -17.57086,49.83012 -38.54571,49.59225c-20.97486,-0.23787 -37.72442,-22.82671 -37.41111,-50.45366c0.31331,-27.6269 17.57086,-49.83012 38.54571,-49.59225c20.97486,0.23787 37.72442,22.82676 37.41111,50.45366z" fill="#1d1e39" stroke="none"/><path d="M213.68367,215.62154l0.22889,-20.18279l52.51864,0.59561l-0.22889,20.18279z" fill="#1d1e39" stroke="none"/><path d="M225.3284,203.16483c0,0 1.65269,-9.45033 0.14767,-13.02116c-1.69083,-4.01171 -13.15736,-26.41189 -13.15736,-26.41189l57.52489,-0.64984c0,0 -13.49435,22.43808 -15.06496,26.96009c-1.2828,3.69329 -0.15259,13.45516 -0.15259,13.45516z" fill="#252e4b" stroke="none"/><path d="M268.962,221.67462c-0.14272,12.58493 -13.37543,22.63824 -29.55603,22.45474c-16.18059,-0.1835 -29.1819,-10.53437 -29.03918,-23.11926c0.14272,-12.58493 13.37543,-22.63824 29.55603,-22.45474c16.18059,0.1835 29.1819,10.53437 29.03918,23.11926z" fill="#3f4768" stroke="none"/><path d="M268.71176,224.6019c-0.12709,11.20654 -13.1528,20.14475 -29.09372,19.96397c-15.94092,-0.18078 -28.76058,-9.41205 -28.63348,-20.61864c0.12709,-11.20654 13.1528,-20.14475 29.09372,-19.96397c15.94092,0.18078 28.76057,9.41211 28.63348,20.61864z" fill="#2e304f" stroke="none"/><path d="M258.30592,223.5072c-0.08971,7.91053 -8.42131,14.22965 -18.60913,14.11411c-10.18783,-0.11554 -18.37397,-6.62188 -18.28426,-14.53251c0.08971,-7.91053 8.42131,-14.22965 18.60913,-14.11411c10.18783,0.11554 18.37397,6.62188 18.28426,14.53251z" fill="#131313" stroke="#222531"/><path d="M272.57327,152.04343c-0.227,20.01602 -14.59679,36.08127 -32.09574,35.88282c-17.49906,-0.19845 -31.50081,-16.58552 -31.27381,-36.60149c0.227,-20.01602 14.59679,-36.08133 32.09584,-35.88287c17.49906,0.19845 31.50071,16.58552 31.27371,36.60154z" fill="#252e4b" stroke="none"/><path d="M229.04228,201.03651c0,0 0.25658,-22.62438 0.32488,-28.64658c0.03146,-2.77361 -8.84408,-23.97549 -8.84408,-23.97549l41.45061,0.47008c0,0 -10.00672,21.12509 -10.03908,23.97839c-0.06877,6.06425 -0.32241,28.42955 -0.32241,28.42955z" fill="#3d456b" stroke="none"/><path d="M233.63506,236.25025l0.2978,-26.25935l12.15311,0.13783l-0.2978,26.25935z" fill="#2d2d2d" stroke="none"/><path d="M228.7786,205.15743l-0.15796,-5.21091c0,0 7.0711,-1.43913 10.86819,-1.39607c3.86948,0.04388 12.13583,1.65695 12.13583,1.65695l-0.05907,5.20845c0,0 -8.18875,-1.61219 -12.35286,-1.65941c-3.13603,-0.03557 -10.43414,1.40099 -10.43414,1.40099z" fill="#5e6398" stroke="none"/><path d="M262.85661,147.59228c-0.15903,14.0232 -9.95572,25.28155 -21.88136,25.1463c-11.9257,-0.13525 -21.46443,-11.61293 -21.30539,-25.63608c0.15903,-14.0232 9.95566,-25.28161 21.88131,-25.14636c11.9257,0.13525 21.46448,11.61298 21.30545,25.63613z" fill="#3d456b" stroke="none"/></g><g><path d="M239.93242,164.33209c-13.4751,0.16469 -24.50023,-7.9958 -24.62527,-18.2269c-0.12504,-10.2311 10.69736,-18.65853 24.17246,-18.82322c13.4751,-0.16469 24.50023,7.99573 24.62527,18.22683c0.12504,10.2311 -10.69736,18.6586 -24.17246,18.82329z" fill="none" stroke="#ff0005" stroke-width="0.5"/><path d="M240.10405,161.38614c-11.5483,0.14114 -20.99426,-6.6226 -21.09796,-15.10714c-0.10369,-8.48453 9.17414,-15.47698 20.72244,-15.61811c11.5483,-0.14114 20.99413,6.62247 21.09782,15.107c0.10369,8.48453 -9.17401,15.47711 -20.72231,15.61825z" fill="#ff0005" stroke="none" stroke-width="0"/></g></g></g></svg>