<svg version="1.1" xmlns="http://www.w3.org/2000/svg" xmlns:xlink="http://www.w3.org/1999/xlink" width="36.53624" height="36.26858" viewBox="0,0,36.53624,36.26858"><g transform="translate(-221.73188,-161.86571)"><g data-paper-data="{&quot;isPaintingLayer&quot;:true}" fill-rule="nonzero" stroke="none" stroke-width="0" stroke-linecap="butt" stroke-linejoin="miter" stroke-miterlimit="10" stroke-dasharray="" stroke-dashoffset="0" style="mix-blend-mode: normal"><path d="M258.26812,180c0,10.01529 -8.17891,18.13429 -18.26812,18.13429c-10.08921,0 -18.26812,-8.11899 -18.26812,-18.13429c0,-10.01529 8.17891,-18.13429 18.26812,-18.13429c10.08921,0 18.26812,8.11899 18.26812,18.13429z" fill="#0e0e0e"/><path d="M255.03359,179.06317c0,7.13266 -5.7172,12.91483 -12.76972,12.91483c-7.05252,0 -12.76971,-5.78217 -12.76971,-12.91483c0,-7.13266 5.7172,-12.91482 12.76971,-12.91482c7.05252,0 12.76972,5.78216 12.76972,12.91482z" fill="#454545"/><path d="M252.3795,176.85494c0,2.51306 -1.82752,4.5503 -4.08189,4.5503c-2.25436,0 -4.08188,-2.03724 -4.08188,-4.5503c0,-2.51306 1.82752,-4.55031 4.08188,-4.55031c2.25436,0 4.08189,2.03725 4.08189,4.55031z" fill="#a8a8a8"/></g></g></svg>