<svg version="1.1" xmlns="http://www.w3.org/2000/svg" xmlns:xlink="http://www.w3.org/1999/xlink" width="180.65204" height="186.35923" viewBox="0,0,180.65204,186.35923"><g transform="translate(-148.74413,-85.32531)"><g data-paper-data="{&quot;isPaintingLayer&quot;:true}" fill-rule="nonzero" stroke-linecap="butt" stroke-linejoin="miter" stroke-miterlimit="10" stroke-dasharray="" stroke-dashoffset="0" style="mix-blend-mode: normal"><g fill="none" stroke-width="2"><path d="M208.19499,118.24589c0,-17.62925 14.29133,-31.92058 31.92057,-31.92058c17.62925,0 31.92057,14.29133 31.92057,31.92058c0,17.62925 -14.29133,31.92056 -31.92057,31.92056c-17.62925,0 -31.92057,-14.29131 -31.92057,-31.92056z" stroke="#f27f21"/><path d="M209.89632,118.24589c0,-16.68964 13.52961,-30.21926 30.21925,-30.21926c16.68964,0 30.21924,13.52964 30.21924,30.21926c0,16.68964 -13.5296,30.21923 -30.21924,30.21923c-16.68964,0 -30.21924,-13.52962 -30.21924,-30.21923z" stroke="#feb133"/><path d="M211.77673,118.24589c0,-15.6511 12.68772,-28.33883 28.33882,-28.33883c15.65111,0 28.33883,12.68774 28.33883,28.33883c0,15.65111 -12.68771,28.33882 -28.33883,28.33882c-15.6511,0 -28.33882,-12.68774 -28.33882,-28.33882z" stroke="#ffed6e"/></g><g fill="none" stroke-width="2"><path d="M264.21033,147.12541c0,-17.62925 14.29133,-31.92058 31.92057,-31.92058c17.62925,0 31.92057,14.29133 31.92057,31.92058c0,17.62925 -14.29133,31.92056 -31.92057,31.92056c-17.62925,0 -31.92057,-14.29131 -31.92057,-31.92056z" stroke="#f27f21"/><path d="M265.91166,147.12541c0,-16.68964 13.52961,-30.21926 30.21924,-30.21926c16.68964,0 30.21925,13.52964 30.21925,30.21926c0,16.68964 -13.5296,30.21923 -30.21924,30.21923c-16.68964,0 -30.21924,-13.52962 -30.21924,-30.21923z" stroke="#feb133"/><path d="M267.79207,147.12541c0,-15.6511 12.68772,-28.33883 28.33882,-28.33883c15.6511,0 28.33883,12.68774 28.33883,28.33883c0,15.65111 -12.68771,28.33882 -28.33883,28.33882c-15.65111,0 -28.33882,-12.68774 -28.33882,-28.33882z" stroke="#ffed6e"/></g><g fill="none" stroke-width="2"><path d="M150.47098,144.64293c0,-17.62925 14.29133,-31.92058 31.92057,-31.92058c17.62925,0 31.92056,14.29133 31.92056,31.92058c0,17.62925 -14.29133,31.92056 -31.92056,31.92056c-17.62925,0 -31.92057,-14.29131 -31.92057,-31.92056z" stroke="#f27f21"/><path d="M152.17231,144.64293c0,-16.68964 13.52961,-30.21926 30.21924,-30.21926c16.68964,0 30.21924,13.52964 30.21924,30.21926c0,16.68964 -13.5296,30.21923 -30.21924,30.21923c-16.68964,0 -30.21924,-13.52962 -30.21924,-30.21923z" stroke="#feb133"/><path d="M154.05272,144.64293c0,-15.6511 12.68772,-28.33883 28.33882,-28.33883c15.6511,0 28.33883,12.68774 28.33883,28.33883c0,15.65111 -12.68771,28.33882 -28.33883,28.33882c-15.65111,0 -28.33882,-12.68774 -28.33882,-28.33882z" stroke="#ffed6e"/></g><g fill="none" stroke-width="2"><path d="M151.12925,207.71359c0,-17.62925 14.29133,-31.92058 31.92057,-31.92058c17.62925,0 31.92056,14.29133 31.92056,31.92058c0,17.62925 -14.29133,31.92056 -31.92056,31.92056c-17.62925,0 -31.92057,-14.29131 -31.92057,-31.92056z" stroke="#f27f21"/><path d="M152.83058,207.71359c0,-16.68964 13.52961,-30.21926 30.21924,-30.21926c16.68964,0 30.21924,13.52964 30.21924,30.21926c0,16.68964 -13.5296,30.21923 -30.21924,30.21923c-16.68964,0 -30.21924,-13.52962 -30.21924,-30.21923z" stroke="#feb133"/><path d="M154.71099,207.71359c0,-15.6511 12.68772,-28.33883 28.33882,-28.33883c15.65111,0 28.33883,12.68774 28.33883,28.33883c0,15.65111 -12.68771,28.33882 -28.33883,28.33882c-15.65111,0 -28.33882,-12.68774 -28.33882,-28.33882z" stroke="#ffed6e"/></g><g fill="none" stroke-width="2"><path d="M206.60188,238.76398c0,-17.62925 14.29133,-31.92058 31.92057,-31.92058c17.62925,0 31.92057,14.29133 31.92057,31.92058c0,17.62925 -14.29133,31.92056 -31.92057,31.92056c-17.62925,0 -31.92057,-14.29131 -31.92057,-31.92056z" stroke="#f27f21"/><path d="M208.30321,238.76398c0,-16.68964 13.52961,-30.21926 30.21924,-30.21926c16.68964,0 30.21925,13.52964 30.21925,30.21926c0,16.68964 -13.5296,30.21924 -30.21924,30.21924c-16.68964,0 -30.21924,-13.52962 -30.21924,-30.21924z" stroke="#feb133"/><path d="M210.18362,238.76398c0,-15.6511 12.68772,-28.33883 28.33882,-28.33883c15.6511,0 28.33883,12.68774 28.33883,28.33883c0,15.6511 -12.68771,28.33883 -28.33883,28.33883c-15.65111,0 -28.33882,-12.68774 -28.33882,-28.33883z" stroke="#ffed6e"/></g><g fill="none" stroke-width="2"><path d="M262.69774,209.11064c0,-17.62925 14.29133,-31.92058 31.92057,-31.92058c17.62925,0 31.92057,14.29133 31.92057,31.92058c0,17.62925 -14.29133,31.92056 -31.92057,31.92056c-17.62925,0 -31.92057,-14.29131 -31.92057,-31.92056z" stroke="#f27f21"/><path d="M264.39907,209.11064c0,-16.68964 13.52961,-30.21926 30.21925,-30.21926c16.68964,0 30.21924,13.52964 30.21924,30.21926c0,16.68964 -13.5296,30.21923 -30.21924,30.21923c-16.68964,0 -30.21924,-13.52962 -30.21924,-30.21923z" stroke="#feb133"/><path d="M266.27948,209.11064c0,-15.6511 12.68772,-28.33883 28.33881,-28.33883c15.65111,0 28.33884,12.68774 28.33884,28.33883c0,15.65111 -12.68771,28.33882 -28.33884,28.33882c-15.6511,0 -28.33881,-12.68774 -28.33881,-28.33882z" stroke="#ffed6e"/></g><g stroke="none" stroke-width="0"><path d="M171.14236,173.40974c-4.24382,-0.74849 -6.97039,-5.40187 -6.08999,-10.39358c0.8804,-4.99172 5.0344,-8.43154 9.27821,-7.68305c4.24382,0.74849 6.97041,5.40185 6.09,10.39358c-0.8804,4.99172 -5.0344,8.43154 -9.27822,7.68305z" fill="#fe8400"/><path d="M162.59369,161.40783c-4.96428,1.88435 -10.04424,0.17088 -11.34644,-3.82713c-1.3022,-3.99801 1.6665,-8.76658 6.63078,-10.65092c4.96428,-1.88434 10.04424,-0.17088 11.34644,3.82713c1.3022,3.99801 -1.6665,8.76658 -6.63078,10.65092z" fill="#fe8400"/><path d="M161.37915,152.32594c-4.19243,1.48416 -8.52929,-0.41534 -9.68667,-4.24268c-1.15737,-3.82735 1.30303,-8.13317 5.49546,-9.61733c4.19243,-1.48416 8.5293,0.41535 9.68668,4.24269c1.15737,3.82735 -1.30304,8.13317 -5.49546,9.61733z" fill="#fe8400"/><path d="M156.54903,142.85841c-4.24382,-0.74849 -7.18727,-4.1722 -6.5744,-7.64706c0.61287,-3.47486 4.54999,-5.68501 8.7938,-4.93652c4.24382,0.74849 7.18728,4.17219 6.57441,7.64705c-0.61287,3.47486 -4.54999,5.68502 -8.79381,4.93652z" fill="#fe8400"/><path d="M164.93217,132.43552c-3.60185,1.6858 -7.53224,0.56671 -8.77881,-2.49952c-1.24656,-3.06625 0.66278,-6.91852 4.26463,-8.60432c3.60185,-1.6858 7.53223,-0.56671 8.7788,2.49952c1.24656,3.06625 -0.66278,6.91852 -4.26462,8.60432z" fill="#fe8400"/><path d="M196.31209,171.79201c-5.07957,0.46417 -9.386,-2.09911 -9.61868,-5.72523c-0.23266,-3.62611 3.69653,-6.94194 8.7761,-7.40611c5.07957,-0.46417 9.386,2.09911 9.61868,5.72523c0.23266,3.62611 -3.69653,6.94194 -8.7761,7.40611z" fill="#fe8400"/><path d="M199.18131,167.45954c-3.92652,-0.69253 -6.58181,-4.24638 -5.93075,-7.93773c0.65105,-3.69136 4.36192,-6.12238 8.28843,-5.42985c3.92652,0.69253 6.58181,4.24638 5.93075,7.93773c-0.65105,3.69136 -4.36191,6.12239 -8.28843,5.42985z" fill="#fe8400"/><path d="M207.09547,161.85318c-3.88827,0.54664 -7.43007,-2.59812 -7.91085,-7.02403c-0.48077,-4.4259 2.28155,-8.45695 6.16981,-9.00359c3.88827,-0.54664 7.43008,2.59814 7.91085,7.02404c0.48077,4.4259 -2.28155,8.45694 -6.16982,9.00358z" fill="#fe8400"/><path d="M206.67338,149.97605c-4.00585,-0.70652 -6.8394,-3.62562 -6.32891,-6.51998c0.51049,-2.89436 4.17169,-4.66794 8.17754,-3.96142c4.00585,0.70652 6.8394,3.62561 6.32891,6.51996c-0.51049,2.89436 -4.1717,4.66796 -8.17755,3.96144z" fill="#fe8400"/><path d="M209.62866,143.49466c-4.97069,1.2956 -9.59657,-0.39658 -10.33219,-3.77959c-0.73562,-3.383 2.69759,-7.17576 7.66828,-8.47135c4.97069,-1.2956 9.59657,0.39658 10.33219,3.77959c0.73562,3.383 -2.69759,7.17576 -7.66828,8.47135z" fill="#fe8400"/><path d="M205.80544,132.72746c-2.93498,-0.51765 -4.95439,-2.97758 -4.51049,-5.49442c0.4439,-2.51683 3.18302,-4.1375 6.11799,-3.61985c2.93498,0.51765 4.95439,2.97758 4.51049,5.49442c-0.4439,2.51683 -3.18302,4.1375 -6.11799,3.61985z" fill="#fe8400"/><path d="M197.48247,136.64419c-3.25227,-0.57361 -5.38495,-3.89504 -4.76349,-7.4186c0.62146,-3.52357 3.76173,-5.91499 7.01401,-5.34137c3.25227,0.57361 5.38495,3.89504 4.76349,7.4186c-0.62146,3.52357 -3.76174,5.91498 -7.01401,5.34137z" fill="#fe8400"/><path d="M200.18412,128.92429c-2.06241,-0.36375 -3.38048,-2.66493 -2.94398,-5.13982c0.4365,-2.47488 2.46228,-4.18631 4.5247,-3.82255c2.06241,0.36375 3.38048,2.66492 2.94398,5.13982c-0.4365,2.47488 -2.46228,4.18631 -4.5247,3.82255z" fill="#fe8400"/><path d="M200.99897,136.89951c0.08878,-0.50337 0.1929,-0.90575 0.23256,-0.89876c0.03966,0.007 -0.00016,0.42073 -0.08894,0.92409c-0.08878,0.50337 -0.1929,0.90576 -0.23256,0.89877c-0.03966,-0.007 0.00016,-0.42073 0.08894,-0.9241z" fill="#fe8400"/><path d="M200.18899,130.04273c-2.81599,-0.49666 -4.54702,-4.02774 -3.86637,-7.88689c0.68065,-3.85914 3.51522,-6.58498 6.33122,-6.08832c2.81599,0.49666 4.54702,4.02774 3.86637,7.88689c-0.68065,3.85914 -3.51523,6.58498 -6.33122,6.08832z" fill="#fe8400"/><path d="M194.23718,125.77828c-3.41091,-0.60159 -5.67821,-3.9117 -5.06414,-7.39332c0.61406,-3.48162 3.87696,-5.81635 7.28787,-5.21476c3.41091,0.60159 5.67822,3.9117 5.06415,7.39332c-0.61406,3.48162 -3.87696,5.81635 -7.28788,5.21476z" fill="#fe8400"/><path d="M185.49509,120.14117c-2.89531,-0.51065 -4.8406,-3.20295 -4.34491,-6.01342c0.49569,-2.81046 3.24464,-4.67483 6.13996,-4.16417c2.89531,0.51065 4.8406,3.20295 4.34491,6.01342c-0.49569,2.81046 -3.24464,4.67483 -6.13996,4.16417z" fill="#fe8400"/><path d="M170.98106,123.47395c-3.49024,-0.61558 -5.83983,-3.83502 -5.24796,-7.19079c0.59187,-3.35579 3.90108,-5.57714 7.3913,-4.96156c3.49024,0.61558 5.83983,3.83501 5.24796,7.19078c-0.59187,3.35579 -3.90108,5.57715 -7.3913,4.96157z" fill="#fe8400"/><path d="M176.69762,174.91165c-4.30932,-0.00346 -7.7994,-4.11531 -7.79534,-9.18407c0.00406,-5.06876 3.50075,-9.17502 7.81006,-9.17156c4.30932,0.00346 7.79941,4.1153 7.79535,9.18408c-0.00406,5.06876 -3.50076,9.17502 -7.81008,9.17156z" fill="#fef24a"/><path d="M166.20256,164.56858c-4.56371,2.7143 -9.86342,1.90498 -11.83728,-1.80766c-1.97385,-3.71264 0.12564,-8.9227 4.68934,-11.63698c4.5637,-2.71428 9.86341,-1.90498 11.83727,1.80766c1.97385,3.71264 -0.12564,8.9227 -4.68934,11.63698z" fill="#fef24a"/><path d="M163.43603,155.83348c-3.87267,2.18669 -8.47264,1.06565 -10.27434,-2.50394c-1.80169,-3.5696 -0.12284,-8.23597 3.74983,-10.42266c3.87267,-2.18669 8.47265,-1.06563 10.27436,2.50395c1.80169,3.5696 0.12282,8.23597 -3.74984,10.42267z" fill="#fef24a"/><path d="M157.04171,147.34367c-4.30932,-0.00346 -7.80041,-2.86667 -7.79758,-6.39515c0.00283,-3.52849 3.49851,-6.38608 7.80783,-6.38263c4.30932,0.00346 7.80042,2.86665 7.79758,6.39514c-0.00283,3.52849 -3.49851,6.3861 -7.80783,6.38264z" fill="#fef24a"/><path d="M163.49644,135.62829c-3.25612,2.28318 -7.32082,1.86051 -9.07876,-0.94401c-1.75794,-2.80452 -0.54342,-6.92892 2.7127,-9.21209c3.25612,-2.28318 7.32081,-1.86052 9.07875,0.94401c1.75794,2.80452 0.54343,6.92892 -2.71268,9.21209z" fill="#fef24a"/><path d="M201.20857,168.96639c-4.92282,1.33545 -9.60758,-0.44463 -10.4637,-3.97591c-0.85613,-3.53127 2.44057,-7.47653 7.3634,-8.81197c4.92282,-1.33545 9.60758,0.44464 10.4637,3.97591c0.85613,3.53127 -2.44057,7.47653 -7.3634,8.81197z" fill="#fef24a"/><path d="M203.28549,164.20307c-3.98713,-0.00319 -7.21689,-3.04443 -7.21388,-6.79275c0.00301,-3.74834 3.23765,-6.78436 7.22476,-6.78116c3.98713,0.00319 7.21689,3.04442 7.21388,6.79274c-0.00301,3.74834 -3.23764,6.78436 -7.22476,6.78117z" fill="#fef24a"/><path d="M210.1111,157.31278c-3.7352,1.21069 -7.76739,-1.27432 -9.00617,-5.55044c-1.23878,-4.27612 0.78496,-8.72406 4.52016,-9.93476c3.7352,-1.21069 7.7674,1.27434 9.00618,5.55046c1.23878,4.27612 -0.78496,8.72406 -4.52016,9.93474z" fill="#fef24a"/><path d="M207.64178,145.68751c-4.06768,-0.00327 -7.36326,-2.38847 -7.36091,-5.3275c0.00236,-2.93903 3.30176,-5.31894 7.36944,-5.31568c4.06768,0.00327 7.36326,2.38846 7.3609,5.32749c-0.00236,2.93903 -3.30177,5.31895 -7.36944,5.31569z" fill="#fef24a"/><path d="M209.43191,138.79277c-4.67182,2.13554 -9.52061,1.26866 -10.83007,-1.93622c-1.30947,-3.20486 1.41626,-7.53411 6.08807,-9.66964c4.67182,-2.13554 9.52061,-1.26866 10.83007,1.93622c1.30947,3.20486 -1.41626,7.53411 -6.08807,9.66964z" fill="#fef24a"/><path d="M203.80461,128.84877c-2.98027,-0.00239 -5.3946,-2.07611 -5.39255,-4.63179c0.00206,-2.55569 2.4197,-4.62553 5.39998,-4.62314c2.98027,0.00239 5.3946,2.07611 5.39255,4.63179c-0.00206,2.55569 -2.4197,4.62553 -5.39998,4.62314z" fill="#fef24a"/><path d="M196.28419,134.14557c-3.30247,-0.00265 -5.97732,-2.9053 -5.97445,-6.48325c0.00287,-3.57795 2.68237,-6.47632 5.98484,-6.47367c3.30247,0.00265 5.97732,2.90531 5.97444,6.48325c-0.00287,3.57795 -2.68238,6.47631 -5.98483,6.47367z" fill="#fef24a"/><path d="M197.61037,126.07482c-2.09424,-0.00168 -3.79034,-2.04031 -3.78833,-4.55339c0.00202,-2.51307 1.70138,-4.54899 3.79562,-4.54731c2.09424,0.00168 3.79033,2.0403 3.78832,4.55339c-0.00202,2.51307 -1.70138,4.54898 -3.79562,4.54731z" fill="#fef24a"/><path d="M199.79188,133.78903c0.00041,-0.51114 0.03339,-0.92547 0.07366,-0.92543c0.04028,0.00003 0.07259,0.41442 0.07218,0.92554c-0.00041,0.51114 -0.03339,0.92547 -0.07367,0.92544c-0.04028,-0.00003 -0.07259,-0.41442 -0.07218,-0.92555z" fill="#fef24a"/><path d="M197.80856,127.17557c-2.85945,-0.00229 -5.17495,-3.18088 -5.1718,-7.0996c0.00314,-3.9187 2.32373,-7.0936 5.18318,-7.0913c2.85945,0.00229 5.17495,3.18089 5.1718,7.0996c-0.00314,3.9187 -2.32373,7.09359 -5.18318,7.0913z" fill="#fef24a"/><path d="M191.20904,124.00442c-3.46356,-0.00278 -6.26903,-2.87101 -6.26619,-6.40637c0.00283,-3.53536 2.81291,-6.39909 6.27646,-6.39631c3.46356,0.00278 6.26904,2.87101 6.2662,6.40637c-0.00283,3.53536 -2.8129,6.39908 -6.27648,6.39631z" fill="#fef24a"/><path d="M181.62396,119.96373c-2.93999,-0.00236 -5.32148,-2.31776 -5.3192,-5.17161c0.00229,-2.85383 2.38749,-5.16543 5.32749,-5.16307c2.93999,0.00236 5.32148,2.31776 5.3192,5.17161c-0.00229,2.85383 -2.38749,5.16543 -5.32749,5.16306z" fill="#fef24a"/><path d="M167.90476,125.75584c-3.54411,-0.00284 -6.41495,-2.76754 -6.41222,-6.17511c0.00274,-3.40758 2.87802,-6.16765 6.42211,-6.1648c3.54411,0.00284 6.41495,2.76753 6.41222,6.1751c-0.00274,3.40758 -2.87802,6.16766 -6.42212,6.16481z" fill="#fef24a"/><path d="M206.98431,160.33119c-1.26226,2.78531 -4.94138,3.83964 -8.21755,2.35493c-3.27617,-1.4847 -4.90878,-4.94623 -3.64652,-7.73153c1.26226,-2.78531 4.94138,-3.83964 8.21756,-2.35494c3.27617,1.4847 4.90877,4.94624 3.64652,7.73154z" fill="#fefefe"/><path d="M193.03698,166.90037c0.38786,3.45286 -1.52363,6.39448 -4.26941,6.57033c-2.74578,0.17584 -5.28609,-2.4807 -5.67393,-5.93355c-0.38785,-3.45285 1.52362,-6.39448 4.26941,-6.57032c2.74578,-0.17584 5.28609,2.48068 5.67394,5.93354z" fill="#fefefe"/><path d="M183.77552,165.77293c0.24378,2.72198 -1.54859,5.01367 -4.0034,5.11863c-2.4548,0.10496 -4.64244,-2.01655 -4.88623,-4.73853c-0.24378,-2.72198 1.5486,-5.01368 4.00341,-5.11864c2.4548,-0.10496 4.64244,2.01656 4.88622,4.73854z" fill="#fefefe"/><path d="M174.61024,167.26421c-1.29477,2.85704 -4.2408,4.31369 -6.58015,3.25353c-2.33935,-1.06016 -3.18616,-4.23567 -1.89139,-7.0927c1.29477,-2.85704 4.24079,-4.3137 6.58015,-3.25354c2.33935,1.06016 3.18617,4.23567 1.8914,7.09271z" fill="#fefefe"/><path d="M166.39059,157.51647c0.51626,2.73103 -0.92342,5.19775 -3.21562,5.50959c-2.2922,0.31183 -4.56889,-1.6493 -5.08515,-4.38034c-0.51626,-2.73103 0.92342,-5.19774 3.21562,-5.50958c2.2922,-0.31183 4.56889,1.6493 5.08515,4.38032z" fill="#fefefe"/><path d="M211.95407,136.24347c-0.54292,3.36864 -2.91919,5.73343 -5.30754,5.28191c-2.38835,-0.45152 -3.88436,-3.54836 -3.34144,-6.91701c0.54292,-3.36864 2.91919,-5.73343 5.30754,-5.28191c2.38835,0.45152 3.88436,3.54836 3.34144,6.91701z" fill="#fefefe"/><path d="M208.96813,132.04895c-1.20871,2.66715 -4.22123,3.90812 -6.72862,2.7718c-2.50741,-1.13632 -3.56021,-4.21963 -2.3515,-6.88678c1.20871,-2.66715 4.22122,-3.90812 6.72862,-2.77181c2.50741,1.13632 3.56021,4.21963 2.35151,6.88678z" fill="#fefefe"/><path d="M204.35254,123.33347c-0.28341,2.53697 -2.83563,4.25986 -5.70056,3.84819c-2.86492,-0.41167 -4.95767,-2.80202 -4.67426,-5.339c0.28341,-2.53697 2.83564,-4.25986 5.70057,-3.84819c2.86492,0.41167 4.95766,2.80202 4.67425,5.339z" fill="#fefefe"/><path d="M194.34913,120.6574c-1.26856,2.7992 -3.93649,4.32536 -5.95901,3.40879c-2.02252,-0.91658 -2.63372,-3.92879 -1.36516,-6.72799c1.26856,-2.7992 3.93648,-4.32536 5.959,-3.40879c2.02252,0.91658 2.63373,3.92879 1.36518,6.72799z" fill="#fefefe"/><path d="M187.51578,116.6313c0.0126,3.1083 -1.67433,5.56558 -3.76785,5.48848c-2.09352,-0.07709 -3.80087,-2.65938 -3.81346,-5.76767c-0.0126,-3.1083 1.67433,-5.56558 3.76785,-5.48848c2.09352,0.07709 3.80087,2.65938 3.81346,5.76767z" fill="#fefefe"/><path d="M177.57759,117.28446c-0.92879,2.0495 -3.10648,3.06527 -4.86399,2.2688c-1.75751,-0.79647 -2.42931,-3.10359 -1.50052,-5.15309c0.92879,-2.0495 3.10648,-3.06527 4.86399,-2.2688c1.75751,0.79647 2.42931,3.10359 1.5005,5.15309z" fill="#fefefe"/><path d="M178.65008,126.02246c-0.97331,2.14771 -3.64864,3.03394 -5.97551,1.97943c-2.32687,-1.05451 -3.42415,-3.65041 -2.45084,-5.79812c0.97331,-2.14771 3.64864,-3.03394 5.97551,-1.97943c2.32687,1.05451 3.42415,3.65041 2.45085,5.79812z" fill="#fefefe"/><path d="M173.53037,122.25339c-0.86445,1.9075 -3.42084,2.61292 -5.70984,1.57558c-2.289,-1.03734 -3.44383,-3.42463 -2.57937,-5.33213c0.86445,-1.9075 3.42083,-2.61292 5.70985,-1.57558c2.289,1.03734 3.44382,3.42462 2.57937,5.33212z" fill="#fefefe"/><path d="M181.45815,123.44428c-0.46556,-0.21099 -0.82949,-0.41175 -0.81287,-0.44843c0.01662,-0.03668 0.40751,0.10462 0.87307,0.31559c0.46556,0.21099 0.82949,0.41176 0.81287,0.44844c-0.01662,0.03668 -0.40751,-0.10461 -0.87307,-0.3156z" fill="#fefefe"/><path d="M172.98925,121.78961c-0.8834,1.94931 -3.76514,2.54813 -6.43656,1.33748c-2.67142,-1.21064 -4.1209,-3.77229 -3.2375,-5.72161c0.8834,-1.94931 3.76514,-2.54813 6.43657,-1.33748c2.67142,1.21064 4.1209,3.7723 3.2375,5.72161z" fill="#fefefe"/><path d="M167.05509,126.34871c-0.95124,2.099 -3.45921,3.01347 -5.60173,2.04251c-2.14252,-0.97095 -3.10825,-3.45965 -2.15701,-5.55865c0.95124,-2.099 3.45922,-3.01348 5.60174,-2.04252c2.14252,0.97095 3.10823,3.45966 2.157,5.55866z" fill="#fefefe"/><path d="M160.68036,133.98677c-1.03443,2.28259 -3.6692,3.31901 -5.8849,2.31489c-2.2157,-1.00412 -3.17332,-3.66853 -2.13888,-5.95113c1.03443,-2.28259 3.6692,-3.31901 5.88491,-2.31488c2.2157,1.00412 3.17331,3.66853 2.13888,5.95113z" fill="#fefefe"/><path d="M160.16123,148.80866c-1.24466,2.74648 -4.39433,4.00279 -7.03499,2.80608c-2.64067,-1.19671 -3.77235,-4.39328 -2.5277,-7.13974c1.24466,-2.74648 4.39433,-4.0028 7.03499,-2.80609c2.64067,1.19671 3.77236,4.39329 2.5277,7.13975z" fill="#fefefe"/></g><g data-paper-data="{&quot;index&quot;:null}" stroke="none" stroke-width="0"><path d="M242.21971,142.22669c-0.8804,-4.99174 1.84618,-9.64509 6.09,-10.39359c4.24381,-0.74849 8.39781,2.69133 9.27821,7.68305c0.8804,4.99171 -1.84617,9.64509 -6.08999,10.39358c-4.24382,0.74849 -8.39781,-2.69132 -9.27822,-7.68305z" fill="#fe8400"/><path d="M253.41583,127.25691c1.3022,-3.99802 6.38216,-5.71147 11.34644,-3.82713c4.96428,1.88433 7.93297,6.6529 6.63077,10.65091c-1.3022,3.99802 -6.38216,5.71148 -11.34644,3.82713c-4.96428,-1.88433 -7.93297,-6.6529 -6.63077,-10.65091z" fill="#fe8400"/><path d="M261.26115,128.82594c-4.19242,-1.48415 -6.65283,-5.78998 -5.49546,-9.61733c1.15738,-3.82734 5.49424,-5.72685 9.68667,-4.24269c4.19243,1.48415 6.65283,5.78998 5.49546,9.61733c-1.15738,3.82735 -5.49423,5.72685 -9.68667,4.24268z" fill="#fe8400"/><path d="M266.09126,119.35841c-4.24382,0.74849 -8.18094,-1.46166 -8.79381,-4.93652c-0.61287,-3.47486 2.3306,-6.89855 6.57442,-7.64705c4.24381,-0.74849 8.18093,1.46165 8.79379,4.93651c0.61287,3.47486 -2.33058,6.89856 -6.5744,7.64705z" fill="#fe8400"/><path d="M253.44351,100.33119c1.24656,-3.06623 5.17695,-4.18532 8.77879,-2.49952c3.60185,1.6858 5.51119,5.53807 4.26463,8.60432c-1.24657,3.06624 -5.17696,4.18533 -8.77881,2.49953c-3.60183,-1.6858 -5.51118,-5.53807 -4.26462,-8.60432z" fill="#fe8400"/><path d="M217.55211,140.88591c0.23268,-3.62613 4.53911,-6.1894 9.61867,-5.72523c5.07957,0.46417 9.00877,3.78 8.7761,7.40611c-0.23268,3.62613 -4.53911,6.18939 -9.61867,5.72523c-5.07957,-0.46417 -9.00877,-3.78 -8.7761,-7.40611z" fill="#fe8400"/><path d="M215.17055,138.52969c-0.65106,-3.69135 2.00423,-7.2452 5.93075,-7.93774c3.92651,-0.69253 7.63737,1.7385 8.28843,5.42986c0.65106,3.69135 -2.00423,7.24519 -5.93076,7.93773c-3.92652,0.69253 -7.63737,-1.7385 -8.28843,-5.42985z" fill="#fe8400"/><path d="M215.54484,138.35318c-3.88828,-0.54664 -6.65059,-4.57767 -6.16982,-9.00357c0.48076,-4.4259 4.02258,-7.57068 7.91084,-7.02405c3.88827,0.54664 6.65058,4.57769 6.16981,9.00359c-0.48077,4.42591 -4.02259,7.57067 -7.91085,7.02403z" fill="#fe8400"/><path d="M215.96692,126.47606c-4.00585,0.70652 -7.66707,-1.06709 -8.17755,-3.96144c-0.51048,-2.89435 2.32306,-5.81343 6.32891,-6.51996c4.00585,-0.70652 7.66706,1.06707 8.17754,3.96142c0.51048,2.89436 -2.32306,5.81346 -6.32891,6.51998z" fill="#fe8400"/><path d="M205.34337,111.52331c0.73562,-3.38302 5.3615,-5.07519 10.33219,-3.77959c4.97069,1.29559 8.4039,5.08836 7.66827,8.47135c-0.73562,3.38302 -5.3615,5.0752 -10.33219,3.7796c-4.97069,-1.29559 -8.4039,-5.08836 -7.66827,-8.47136z" fill="#fe8400"/><path d="M210.71686,105.60762c-0.4439,-2.51684 1.57551,-4.97677 4.51049,-5.49442c2.93498,-0.51765 5.67409,1.10301 6.118,3.61984c0.44391,2.51684 -1.5755,4.97677 -4.51048,5.49442c-2.93498,0.51765 -5.6741,-1.10301 -6.118,-3.61985z" fill="#fe8400"/><path d="M218.14382,107.80282c-0.62146,-3.52357 1.51122,-6.84499 4.76349,-7.41861c3.25227,-0.57361 6.39255,1.81781 7.01401,5.34138c0.62146,3.52356 -1.51122,6.84499 -4.76349,7.4186c-3.25226,0.57361 -6.39254,-1.8178 -7.01401,-5.34137z" fill="#fe8400"/><path d="M217.93148,101.60174c-0.43651,-2.4749 0.88156,-4.77607 2.94397,-5.13983c2.06241,-0.36375 4.08819,1.34767 4.52469,3.82255c0.43651,2.47489 -0.88156,4.77607 -2.94397,5.13982c-2.06241,0.36375 -4.08819,-1.34767 -4.52469,-3.82255z" fill="#fe8400"/><path d="M221.73027,114.32361c-0.03965,0.00699 -0.14378,-0.3954 -0.23256,-0.89876c-0.08878,-0.50335 -0.1286,-0.9171 -0.08895,-0.92409c0.03966,-0.00699 0.14378,0.39539 0.23256,0.89876c0.08878,0.50337 0.1286,0.9171 0.08894,0.92409z" fill="#fe8400"/><path d="M216.12008,100.45441c-0.68065,-3.85916 1.05039,-7.39023 3.86638,-7.88689c2.816,-0.49666 5.65057,2.22917 6.33122,6.08831c0.68065,3.85916 -1.05039,7.39022 -3.86637,7.88689c-2.81599,0.49667 -5.65057,-2.22917 -6.33122,-6.08831z" fill="#fe8400"/><path d="M228.40312,102.27828c-3.41092,0.60159 -6.67381,-1.73314 -7.28788,-5.21476c-0.61407,-3.48162 1.65324,-6.79173 5.06415,-7.39332c3.41091,-0.60159 6.6738,1.73314 7.28787,5.21477c0.61407,3.48162 -1.65323,6.79173 -5.06414,7.39332z" fill="#fe8400"/><path d="M231.00525,92.477c-0.49569,-2.81047 1.44959,-5.50276 4.3449,-6.01342c2.89532,-0.51065 5.64427,1.35371 6.13996,4.16418c0.49569,2.81047 -1.4496,5.50276 -4.34491,6.01342c-2.89532,0.51065 -5.64427,-1.35371 -6.13995,-4.16417z" fill="#fe8400"/><path d="M251.65924,99.97395c-3.49023,0.61558 -6.79943,-1.60578 -7.3913,-4.96157c-0.59187,-3.35577 1.75772,-6.57519 5.24796,-7.19078c3.49022,-0.61558 6.79943,1.60576 7.3913,4.96155c0.59187,3.35577 -1.75772,6.57521 -5.24796,7.19079z" fill="#fe8400"/><path d="M245.94268,151.41165c-4.30932,0.00346 -7.80602,-4.1028 -7.81008,-9.17156c-0.00406,-5.06877 3.48603,-9.18062 7.79535,-9.18408c4.30931,-0.00346 7.806,4.10281 7.81006,9.17157c0.00406,5.06876 -3.48602,9.18061 -7.79534,9.18407z" fill="#fef24a"/><path d="M256.43774,141.06858c-4.5637,-2.71428 -6.66319,-7.92434 -4.68934,-11.63698c1.97386,-3.71264 7.27356,-4.52194 11.83727,-1.80766c4.56371,2.71428 6.66319,7.92434 4.68935,11.63698c-1.97386,3.71264 -7.27357,4.52196 -11.83728,1.80766z" fill="#fef24a"/><path d="M259.20426,132.3335c-3.87267,-2.1867 -5.55153,-6.85307 -3.74984,-10.42266c1.80171,-3.56958 6.4017,-4.69063 10.27436,-2.50395c3.87267,2.18669 5.55152,6.85306 3.74983,10.42266c-1.8017,3.56958 -6.40167,4.69063 -10.27434,2.50394z" fill="#fef24a"/><path d="M257.79076,117.46103c-0.00284,-3.52849 3.48827,-6.39169 7.79758,-6.39515c4.30932,-0.00345 7.80499,2.85414 7.80782,6.38263c0.00284,3.52848 -3.48826,6.39169 -7.79758,6.39515c-4.30932,0.00346 -7.805,-2.85415 -7.80783,-6.38264z" fill="#fef24a"/><path d="M259.14385,112.12829c-3.25612,-2.28317 -4.47062,-6.40757 -2.71268,-9.21209c1.75794,-2.80453 5.82262,-3.22719 9.07874,-0.94401c3.25612,2.28318 4.47064,6.40757 2.7127,9.2121c-1.75794,2.80453 -5.82264,3.22718 -9.07876,0.94401z" fill="#fef24a"/><path d="M214.06833,136.65442c0.85612,-3.53127 5.54089,-5.31136 10.4637,-3.97591c4.92282,1.33544 8.21953,5.2807 7.3634,8.81197c-0.85612,3.53128 -5.54089,5.31136 -10.46371,3.97591c-4.92282,-1.33544 -8.21953,-5.2807 -7.3634,-8.81197z" fill="#fef24a"/><path d="M219.35481,140.70308c-3.98713,0.00319 -7.22176,-3.03284 -7.22477,-6.78118c-0.003,-3.74832 3.22675,-6.78955 7.21388,-6.79274c3.98711,-0.0032 7.22176,3.03283 7.22477,6.78116c0.00301,3.74832 -3.22675,6.78956 -7.21388,6.79275z" fill="#fef24a"/><path d="M212.52919,133.81279c-3.7352,-1.21069 -5.75894,-5.65862 -4.52016,-9.93474c1.23877,-4.27612 5.27098,-6.76114 9.00618,-5.55046c3.7352,1.2107 5.75894,5.65864 4.52016,9.93476c-1.23878,4.27612 -5.27098,6.76112 -9.00618,5.55044z" fill="#fef24a"/><path d="M214.99852,122.1875c-4.06768,0.00326 -7.36709,-2.37666 -7.36944,-5.31569c-0.00236,-2.93902 3.29323,-5.32422 7.36091,-5.32748c4.06768,-0.00326 7.36708,2.37665 7.36944,5.31568c0.00236,2.93903 -3.29323,5.32423 -7.36091,5.32749z" fill="#fef24a"/><path d="M207.12031,105.62313c1.30946,-3.20488 6.15825,-4.07175 10.83007,-1.93622c4.67181,2.13552 7.39754,6.46478 6.08807,9.66964c-1.30946,3.20488 -6.15825,4.07175 -10.83007,1.93622c-4.67181,-2.13552 -7.39754,-6.46478 -6.08808,-9.66963z" fill="#fef24a"/><path d="M213.43571,100.72563c-0.00205,-2.55568 2.41227,-4.6294 5.39255,-4.63179c2.98028,-0.00239 5.39792,2.06746 5.39998,4.62315c0.00206,2.55569 -2.41228,4.6294 -5.39255,4.63179c-2.98028,0.00239 -5.39792,-2.06746 -5.39997,-4.62314z" fill="#fef24a"/><path d="M226.35611,110.64558c-3.30245,0.00265 -5.98197,-2.89572 -5.98483,-6.47367c-0.00287,-3.57794 2.67198,-6.4806 5.97444,-6.48325c3.30247,-0.00265 5.98197,2.89571 5.98484,6.47366c0.00287,3.57796 -2.67198,6.48061 -5.97445,6.48326z" fill="#fef24a"/><path d="M225.02993,102.57481c-2.09424,0.00167 -3.7936,-2.03423 -3.79562,-4.54731c-0.00202,-2.5131 1.69408,-4.55172 3.78832,-4.5534c2.09424,-0.00168 3.7936,2.03424 3.79562,4.54731c0.00202,2.51309 -1.69409,4.55172 -3.78833,4.55339z" fill="#fef24a"/><path d="M222.84843,110.28903c0.00041,0.51113 -0.0319,0.92552 -0.07217,0.92555c-0.04028,0.00003 -0.07326,-0.4143 -0.07367,-0.92544c-0.00041,-0.51112 0.0319,-0.92551 0.07218,-0.92554c0.04027,-0.00003 0.07325,0.41429 0.07366,0.92543z" fill="#fef24a"/><path d="M219.64856,96.58427c-0.00314,-3.91871 2.31234,-7.09731 5.1718,-7.0996c2.85945,-0.0023 5.18004,3.17259 5.18319,7.0913c0.00314,3.91872 -2.31235,7.09731 -5.1718,7.0996c-2.85945,0.00229 -5.18004,-3.1726 -5.18318,-7.0913z" fill="#fef24a"/><path d="M231.43126,100.50443c-3.46357,0.00278 -6.27364,-2.86095 -6.27648,-6.3963c-0.00284,-3.53536 2.80264,-6.40359 6.2662,-6.40637c3.46355,-0.00278 6.27363,2.86095 6.27646,6.39631c0.00284,3.53536 -2.80264,6.40358 -6.2662,6.40636z" fill="#fef24a"/><path d="M241.01633,96.46373c-2.94,0.00236 -5.3252,-2.30923 -5.32748,-5.16306c-0.00229,-2.85385 2.37921,-5.16926 5.3192,-5.17162c2.94,-0.00235 5.3252,2.30925 5.32749,5.16308c0.00228,2.85385 -2.37922,5.16925 -5.31921,5.1716z" fill="#fef24a"/><path d="M254.73555,102.25583c-3.5441,0.00285 -6.41939,-2.75723 -6.42213,-6.16481c-0.00274,-3.40757 2.86811,-6.17225 6.41222,-6.17509c3.54409,-0.00285 6.41938,2.75723 6.42211,6.16481c0.00273,3.40757 -2.86811,6.17226 -6.41222,6.1751z" fill="#fef24a"/><path d="M215.65598,136.83119c-1.26225,-2.7853 0.37035,-6.24684 3.64652,-7.73154c3.27619,-1.4847 6.9553,-0.43037 8.21756,2.35494c1.26226,2.7853 -0.37035,6.24683 -3.64652,7.73153c-3.27617,1.4847 -6.95528,0.43038 -8.21755,-2.35493z" fill="#fefefe"/><path d="M229.6033,143.40037c0.38785,-3.45285 2.92816,-6.10938 5.67394,-5.93354c2.74579,0.17584 4.65726,3.11747 4.26941,6.57032c-0.38784,3.45285 -2.92815,6.1094 -5.67393,5.93355c-2.74578,-0.17585 -4.65726,-3.11748 -4.26941,-6.57033z" fill="#fefefe"/><path d="M238.86478,142.27293c0.24378,-2.72198 2.43142,-4.84351 4.88622,-4.73855c2.4548,0.10496 4.24719,2.39667 4.00341,5.11865c-0.24379,2.72198 -2.43143,4.8435 -4.88623,4.73854c-2.45481,-0.10496 -4.24718,-2.39666 -4.0034,-5.11864z" fill="#fefefe"/><path d="M248.03006,143.76421c-1.29477,-2.85703 -0.44795,-6.03254 1.8914,-7.0927c2.33936,-1.06016 5.28538,0.39651 6.58015,3.25354c1.29476,2.85702 0.44795,6.03253 -1.89139,7.09269c-2.33936,1.06016 -5.28539,-0.3965 -6.58015,-3.25353z" fill="#fefefe"/><path d="M261.33486,129.63614c2.29219,0.31184 3.73187,2.77855 3.21562,5.50958c-0.51626,2.73103 -2.79296,4.69217 -5.08515,4.38034c-2.2922,-0.31184 -3.73187,-2.77856 -3.21562,-5.50959c0.51626,-2.73102 2.79296,-4.69216 5.08515,-4.38032z" fill="#fefefe"/><path d="M214.02767,105.82647c2.38835,-0.45152 4.76462,1.91327 5.30755,5.28191c0.54292,3.36864 -0.9531,6.46549 -3.34145,6.917c-2.38835,0.45152 -4.76462,-1.91327 -5.30754,-5.28191c-0.54292,-3.36864 0.95309,-6.46549 3.34144,-6.917z" fill="#fefefe"/><path d="M213.67216,108.54895c-1.20871,-2.66715 -0.1559,-5.75047 2.35151,-6.88678c2.50741,-1.13631 5.51991,0.10466 6.72862,2.77182c1.20872,2.66715 0.15591,5.75046 -2.3515,6.88677c-2.5074,1.13631 -5.51991,-0.10465 -6.72862,-2.7718z" fill="#fefefe"/><path d="M218.28776,99.83347c-0.28341,-2.53697 1.80932,-4.92733 4.67425,-5.339c2.86493,-0.41167 5.41716,1.31121 5.70057,3.84818c0.28341,2.53697 -1.80934,4.92733 -4.67426,5.339c-2.86492,0.41168 -5.41714,-1.31121 -5.70055,-3.84819z" fill="#fefefe"/><path d="M228.29116,97.1574c-1.26856,-2.7992 -0.65735,-5.81141 1.36517,-6.72799c2.02252,-0.91657 4.69045,0.6096 5.959,3.40879c1.26856,2.7992 0.65735,5.81141 -1.36517,6.72799c-2.02252,0.91657 -4.69045,-0.60959 -5.959,-3.40879z" fill="#fefefe"/><path d="M238.93798,87.36363c2.09352,-0.0771 3.78045,2.38017 3.76785,5.48848c-0.0126,3.10829 -1.71994,5.69058 -3.81346,5.76768c-2.09352,0.0771 -3.78045,-2.38018 -3.76785,-5.48849c0.0126,-3.10829 1.71994,-5.69057 3.81346,-5.76767z" fill="#fefefe"/><path d="M245.06272,93.78447c-0.92881,-2.0495 -0.25701,-4.35662 1.50051,-5.15309c1.75751,-0.79647 3.93519,0.21931 4.86399,2.26881c0.9288,2.04949 0.257,4.35661 -1.50052,5.15308c-1.75751,0.79647 -3.93519,-0.21931 -4.86399,-2.2688z" fill="#fefefe"/><path d="M243.99021,102.52247c-0.97331,-2.14772 0.12397,-4.74362 2.45084,-5.79813c2.32687,-1.05451 5.0022,-0.16828 5.9755,1.97943c0.97332,2.14771 -0.12396,4.74361 -2.45083,5.79812c-2.32688,1.05451 -5.00221,0.16828 -5.97552,-1.97943z" fill="#fefefe"/><path d="M249.10991,98.75339c-0.86445,-1.90751 0.29038,-4.29478 2.57937,-5.33212c2.28902,-1.03735 4.8454,-0.33192 5.70985,1.57558c0.86446,1.90751 -0.29037,4.29479 -2.57937,5.33213c-2.28899,1.03734 -4.84539,0.33192 -5.70984,-1.57558z" fill="#fefefe"/><path d="M241.18214,99.94428c-0.46556,0.21099 -0.85645,0.35229 -0.87307,0.31561c-0.01662,-0.03668 0.34731,-0.23745 0.81287,-0.44844c0.46555,-0.21098 0.85646,-0.35227 0.87307,-0.31559c0.01662,0.03668 -0.34731,0.23744 -0.81287,0.44843z" fill="#fefefe"/><path d="M249.65104,98.28962c-0.8834,-1.94931 0.56609,-4.51097 3.2375,-5.72161c2.67142,-1.21066 5.55318,-0.61184 6.43657,1.33747c0.8834,1.94932 -0.56609,4.51097 -3.2375,5.72161c-2.67142,1.21065 -5.55316,0.61184 -6.43656,-1.33748z" fill="#fefefe"/><path d="M255.5852,102.84872c-0.95123,-2.099 0.01448,-4.58771 2.157,-5.55866c2.14252,-0.97096 4.65051,-0.05648 5.60175,2.04252c0.95123,2.099 -0.0145,4.5877 -2.15702,5.55865c-2.14252,0.97096 -4.6505,0.05649 -5.60173,-2.04252z" fill="#fefefe"/><path d="M261.95993,110.48678c-1.03443,-2.2826 -0.07682,-4.94701 2.13888,-5.95113c2.21571,-1.00412 4.85048,0.0323 5.88491,2.31489c1.03445,2.2826 0.07683,4.94701 -2.13887,5.95113c-2.2157,1.00412 -4.85047,-0.0323 -5.8849,-2.31489z" fill="#fefefe"/><path d="M262.47906,125.30865c-1.24465,-2.74645 -0.11297,-5.94303 2.5277,-7.13974c2.64067,-1.19671 5.79033,0.05961 7.03499,2.80609c1.24465,2.74645 0.11297,5.94303 -2.5277,7.13974c-2.64066,1.19671 -5.79033,-0.05961 -7.03499,-2.80609z" fill="#fefefe"/></g><g stroke="none" stroke-width="0"><path d="M283.14236,177.90974c-4.24382,-0.74849 -6.97039,-5.40187 -6.08999,-10.39358c0.8804,-4.99173 5.0344,-8.43154 9.27821,-7.68305c4.24382,0.74849 6.97041,5.40185 6.09,10.39359c-0.8804,4.99173 -5.0344,8.43154 -9.27822,7.68305z" fill="#fe8400"/><path d="M274.59369,165.90782c-4.96428,1.88434 -10.04423,0.17088 -11.34644,-3.82713c-1.3022,-3.99802 1.66649,-8.76658 6.63078,-10.65091c4.96428,-1.88433 10.04423,-0.17088 11.34644,3.82713c1.3022,3.99802 -1.66649,8.76658 -6.63078,10.65091z" fill="#fe8400"/><path d="M273.37914,156.82594c-4.19243,1.48416 -8.52929,-0.41534 -9.68667,-4.24268c-1.15737,-3.82735 1.30303,-8.13318 5.49545,-9.61733c4.19244,-1.48416 8.5293,0.41535 9.68668,4.24269c1.15737,3.82735 -1.30304,8.13317 -5.49546,9.61733z" fill="#fe8400"/><path d="M268.54903,147.35841c-4.24382,-0.74849 -7.18727,-4.17219 -6.5744,-7.64705c0.61287,-3.47486 4.54998,-5.685 8.7938,-4.93651c4.24382,0.74849 7.18728,4.17219 6.57441,7.64705c-0.61287,3.47486 -4.54999,5.68501 -8.79381,4.93652z" fill="#fe8400"/><path d="M276.93217,136.93551c-3.60184,1.6858 -7.53224,0.56671 -8.7788,-2.49953c-1.24656,-3.06625 0.66278,-6.91852 4.26463,-8.60431c3.60185,-1.6858 7.53224,-0.56672 8.7788,2.49952c1.24656,3.06625 -0.66278,6.91852 -4.26462,8.60432z" fill="#fe8400"/><path d="M308.31208,176.29201c-5.07957,0.46417 -9.386,-2.0991 -9.61867,-5.72523c-0.23266,-3.62611 3.69653,-6.94195 8.7761,-7.40611c5.07957,-0.46417 9.386,2.09911 9.61867,5.72523c0.23266,3.62611 -3.69653,6.94194 -8.7761,7.40611z" fill="#fe8400"/><path d="M311.18131,171.95953c-3.92652,-0.69253 -6.58181,-4.24638 -5.93075,-7.93773c0.65106,-3.69135 4.36192,-6.12239 8.28843,-5.42986c3.92653,0.69253 6.58181,4.24639 5.93075,7.93774c-0.65105,3.69135 -4.3619,6.12238 -8.28843,5.42985z" fill="#fe8400"/><path d="M319.09547,166.35318c-3.88827,0.54664 -7.43008,-2.59813 -7.91085,-7.02403c-0.48077,-4.4259 2.28154,-8.45695 6.16982,-9.00359c3.88826,-0.54664 7.43008,2.59814 7.91084,7.02405c0.48077,4.42591 -2.28155,8.45694 -6.16982,9.00357z" fill="#fe8400"/><path d="M318.67338,154.47605c-4.00585,-0.70652 -6.83939,-3.62562 -6.32891,-6.51998c0.51048,-2.89435 4.17169,-4.66795 8.17754,-3.96142c4.00585,0.70652 6.8394,3.62561 6.32891,6.51996c-0.51049,2.89435 -4.1717,4.66797 -8.17755,3.96144z" fill="#fe8400"/><path d="M321.62865,147.99466c-4.97069,1.2956 -9.59657,-0.39658 -10.33219,-3.7796c-0.73562,-3.38299 2.69759,-7.17576 7.66827,-8.47135c4.97069,-1.2956 9.59657,0.39657 10.33219,3.77959c0.73562,3.38299 -2.69759,7.17577 -7.66827,8.47136z" fill="#fe8400"/><path d="M317.80544,137.22746c-2.93498,-0.51765 -4.95439,-2.97759 -4.51049,-5.49442c0.4439,-2.51684 3.18302,-4.1375 6.118,-3.61984c2.93498,0.51765 4.95439,2.97758 4.51048,5.49442c-0.4439,2.51683 -3.18302,4.1375 -6.11799,3.61985z" fill="#fe8400"/><path d="M309.48247,141.14419c-3.25227,-0.57361 -5.38495,-3.89504 -4.76349,-7.4186c0.62146,-3.52357 3.76173,-5.91499 7.01401,-5.34138c3.25227,0.57361 5.38495,3.89504 4.76349,7.41861c-0.62146,3.52357 -3.76174,5.91498 -7.014,5.34137z" fill="#fe8400"/><path d="M312.18412,133.42429c-2.06241,-0.36375 -3.38048,-2.66493 -2.94397,-5.13982c0.4365,-2.47488 2.46228,-4.18631 4.52469,-3.82255c2.06241,0.36375 3.38048,2.66493 2.94398,5.13983c-0.4365,2.47488 -2.46229,4.18631 -4.5247,3.82255z" fill="#fe8400"/><path d="M312.99897,141.39951c0.08878,-0.50337 0.1929,-0.90575 0.23256,-0.89876c0.03966,0.00699 -0.00016,0.42074 -0.08894,0.92409c-0.08878,0.50337 -0.1929,0.90576 -0.23256,0.89876c-0.03966,-0.00699 0.00017,-0.42073 0.08895,-0.92409z" fill="#fe8400"/><path d="M312.18899,134.54272c-2.81599,-0.49667 -4.54703,-4.02773 -3.86638,-7.88689c0.68065,-3.85914 3.51522,-6.58498 6.33122,-6.08831c2.81599,0.49666 4.54703,4.02774 3.86638,7.88689c-0.68065,3.85915 -3.51523,6.58498 -6.33122,6.08831z" fill="#fe8400"/><path d="M306.23718,130.27828c-3.41092,-0.60159 -5.67821,-3.9117 -5.06415,-7.39332c0.61407,-3.48162 3.87696,-5.81636 7.28787,-5.21476c3.41092,0.60159 5.67822,3.91169 5.06416,7.39332c-0.61406,3.48163 -3.87696,5.81635 -7.28787,5.21476z" fill="#fe8400"/><path d="M297.49509,124.64117c-2.89531,-0.51065 -4.8406,-3.20295 -4.34491,-6.01342c0.49568,-2.81046 3.24464,-4.67483 6.13996,-4.16417c2.89531,0.51065 4.8406,3.20295 4.3449,6.01342c-0.49569,2.81046 -3.24464,4.67483 -6.13995,4.16417z" fill="#fe8400"/><path d="M282.98106,127.97394c-3.49024,-0.61559 -5.83983,-3.83502 -5.24796,-7.19079c0.59187,-3.35579 3.90108,-5.57713 7.3913,-4.96155c3.49024,0.61558 5.83983,3.835 5.24796,7.19078c-0.59187,3.35579 -3.90108,5.57715 -7.3913,4.96157z" fill="#fe8400"/><path d="M288.69762,179.41164c-4.30932,-0.00346 -7.7994,-4.11531 -7.79534,-9.18407c0.00406,-5.06876 3.50075,-9.17502 7.81006,-9.17157c4.30932,0.00346 7.79942,4.11531 7.79535,9.18408c-0.00406,5.06876 -3.50076,9.17502 -7.81008,9.17156z" fill="#fef24a"/><path d="M278.20256,169.06858c-4.56371,2.7143 -9.86342,1.90498 -11.83728,-1.80766c-1.97385,-3.71264 0.12564,-8.9227 4.68934,-11.63698c4.5637,-2.71428 9.86341,-1.90498 11.83727,1.80766c1.97384,3.71264 -0.12565,8.9227 -4.68934,11.63698z" fill="#fef24a"/><path d="M275.43602,160.33348c-3.87267,2.18669 -8.47264,1.06564 -10.27434,-2.50394c-1.80168,-3.56959 -0.12284,-8.23597 3.74984,-10.42266c3.87267,-2.18669 8.47265,-1.06563 10.27436,2.50395c1.80168,3.56959 0.12282,8.23596 -3.74984,10.42266z" fill="#fef24a"/><path d="M269.04171,151.84366c-4.30932,-0.00346 -7.80042,-2.86667 -7.79758,-6.39515c0.00284,-3.52849 3.49851,-6.38608 7.80782,-6.38263c4.30932,0.00346 7.80042,2.86666 7.79759,6.39515c-0.00284,3.52849 -3.49851,6.38609 -7.80783,6.38264z" fill="#fef24a"/><path d="M275.49644,140.12829c-3.25612,2.28318 -7.32082,1.86052 -9.07876,-0.94401c-1.75794,-2.80453 -0.54342,-6.92892 2.7127,-9.2121c3.25612,-2.28317 7.32081,-1.86052 9.07875,0.94401c1.75794,2.80452 0.54343,6.92892 -2.71268,9.21209z" fill="#fef24a"/><path d="M313.20856,173.46639c-4.92282,1.33544 -9.60758,-0.44463 -10.46371,-3.97591c-0.85613,-3.53127 2.44058,-7.47653 7.3634,-8.81197c4.92282,-1.33544 9.60758,0.44464 10.46371,3.97591c0.85613,3.53127 -2.44058,7.47653 -7.3634,8.81197z" fill="#fef24a"/><path d="M315.28549,168.70308c-3.98713,-0.00319 -7.21689,-3.04443 -7.21388,-6.79275c0.003,-3.74833 3.23765,-6.78436 7.22476,-6.78116c3.98713,0.00319 7.21688,3.04442 7.21388,6.79274c-0.003,3.74833 -3.23763,6.78437 -7.22476,6.78118z" fill="#fef24a"/><path d="M322.1111,161.81278c-3.7352,1.21069 -7.7674,-1.27432 -9.00617,-5.55044c-1.23878,-4.27612 0.78496,-8.72406 4.52016,-9.93476c3.7352,-1.21069 7.7674,1.27434 9.00618,5.55046c1.23877,4.27612 -0.78496,8.72405 -4.52016,9.93474z" fill="#fef24a"/><path d="M319.64178,150.1875c-4.06768,-0.00326 -7.36326,-2.38846 -7.36091,-5.32749c0.00236,-2.93903 3.30177,-5.31894 7.36944,-5.31568c4.06768,0.00326 7.36326,2.38846 7.36091,5.32748c-0.00236,2.93903 -3.30177,5.31895 -7.36945,5.31569z" fill="#fef24a"/><path d="M321.43191,143.29276c-4.67181,2.13554 -9.5206,1.26866 -10.83006,-1.93622c-1.30946,-3.20486 1.41626,-7.53411 6.08807,-9.66963c4.67182,-2.13554 9.52061,-1.26866 10.83007,1.93622c1.30947,3.20486 -1.41626,7.53411 -6.08808,9.66964z" fill="#fef24a"/><path d="M315.80461,133.34877c-2.98028,-0.0024 -5.3946,-2.07611 -5.39255,-4.63179c0.00205,-2.55569 2.4197,-4.62553 5.39997,-4.62314c2.98028,0.00239 5.39461,2.07611 5.39255,4.63179c-0.00206,2.55569 -2.4197,4.62553 -5.39998,4.62314z" fill="#fef24a"/><path d="M308.28419,138.64557c-3.30247,-0.00265 -5.97732,-2.9053 -5.97445,-6.48326c0.00287,-3.57796 2.68237,-6.47631 5.98484,-6.47367c3.30247,0.00265 5.97732,2.9053 5.97444,6.48325c-0.00287,3.57796 -2.68238,6.47632 -5.98483,6.47367z" fill="#fef24a"/><path d="M309.61037,130.57481c-2.09424,-0.00168 -3.79034,-2.0403 -3.78833,-4.55339c0.00202,-2.51307 1.70138,-4.54899 3.79562,-4.54731c2.09424,0.00168 3.79033,2.0403 3.78832,4.5534c-0.00202,2.51307 -1.70138,4.54898 -3.79562,4.5473z" fill="#fef24a"/><path d="M311.79187,138.28903c0.00041,-0.51114 0.03339,-0.92547 0.07365,-0.92543c0.04028,0.00003 0.07259,0.41442 0.07218,0.92554c-0.00041,0.51114 -0.03339,0.92547 -0.07367,0.92544c-0.04028,-0.00003 -0.07259,-0.41442 -0.07218,-0.92555z" fill="#fef24a"/><path d="M309.80855,131.67557c-2.85945,-0.00229 -5.17494,-3.18088 -5.1718,-7.0996c0.00314,-3.91871 2.32373,-7.0936 5.18319,-7.0913c2.85945,0.00229 5.17494,3.18089 5.17179,7.0996c-0.00315,3.9187 -2.32373,7.09359 -5.18318,7.0913z" fill="#fef24a"/><path d="M303.20904,128.50442c-3.46356,-0.00278 -6.26903,-2.871 -6.2662,-6.40636c0.00284,-3.53536 2.81291,-6.39909 6.27646,-6.39631c3.46356,0.00278 6.26904,2.87101 6.2662,6.40637c-0.00284,3.53536 -2.81291,6.39908 -6.27648,6.3963z" fill="#fef24a"/><path d="M293.62396,124.46373c-2.93999,-0.00236 -5.32148,-2.31776 -5.31921,-5.1716c0.00229,-2.85383 2.38749,-5.16543 5.32749,-5.16308c2.93999,0.00236 5.32148,2.31777 5.3192,5.17162c-0.00229,2.85383 -2.38748,5.16542 -5.32748,5.16306z" fill="#fef24a"/><path d="M279.90476,130.25583c-3.54411,-0.00284 -6.41495,-2.76753 -6.41222,-6.1751c0.00274,-3.40758 2.87802,-6.16766 6.42211,-6.16481c3.54411,0.00284 6.41495,2.76752 6.41222,6.1751c-0.00274,3.40758 -2.87803,6.16766 -6.42213,6.16481z" fill="#fef24a"/><path d="M318.98431,164.83119c-1.26226,2.78531 -4.94137,3.83963 -8.21754,2.35493c-3.27617,-1.4847 -4.90878,-4.94623 -3.64652,-7.73153c1.26226,-2.78531 4.94137,-3.83964 8.21756,-2.35494c3.27617,1.4847 4.90878,4.94624 3.64652,7.73154z" fill="#fefefe"/><path d="M305.03698,171.40037c0.38786,3.45285 -1.52363,6.39449 -4.26941,6.57034c-2.74578,0.17585 -5.28609,-2.48069 -5.67393,-5.93355c-0.38785,-3.45285 1.52362,-6.39448 4.26941,-6.57032c2.74578,-0.17585 5.28609,2.48068 5.67394,5.93354z" fill="#fefefe"/><path d="M295.77552,170.27293c0.24378,2.72198 -1.54859,5.01368 -4.0034,5.11864c-2.45481,0.10496 -4.64245,-2.01655 -4.88624,-4.73854c-0.24378,-2.72198 1.54861,-5.01369 4.00341,-5.11865c2.4548,-0.10496 4.64244,2.01656 4.88622,4.73855z" fill="#fefefe"/><path d="M286.61023,171.76421c-1.29477,2.85703 -4.24079,4.31369 -6.58015,3.25353c-2.33935,-1.06016 -3.18616,-4.23567 -1.89139,-7.09269c1.29477,-2.85703 4.24079,-4.3137 6.58015,-3.25354c2.33935,1.06016 3.18617,4.23567 1.89141,7.0927z" fill="#fefefe"/><path d="M278.39059,162.01646c0.51626,2.73103 -0.92342,5.19775 -3.21562,5.50959c-2.29219,0.31184 -4.56888,-1.6493 -5.08515,-4.38034c-0.51626,-2.73103 0.92343,-5.19774 3.21562,-5.50958c2.29219,-0.31184 4.56888,1.6493 5.08515,4.38032z" fill="#fefefe"/><path d="M323.95406,140.74347c-0.54292,3.36864 -2.91919,5.73343 -5.30754,5.28191c-2.38835,-0.45152 -3.88437,-3.54836 -3.34144,-6.917c0.54292,-3.36864 2.91919,-5.73343 5.30755,-5.28191c2.38835,0.45152 3.88436,3.54836 3.34144,6.917z" fill="#fefefe"/><path d="M320.96812,136.54895c-1.20872,2.66715 -4.22123,3.90811 -6.72863,2.7718c-2.5074,-1.13631 -3.56021,-4.21962 -2.3515,-6.88677c1.20872,-2.66715 4.22122,-3.90813 6.72863,-2.77182c2.50741,1.13631 3.56022,4.21963 2.35151,6.88678z" fill="#fefefe"/><path d="M316.35253,127.83347c-0.28341,2.53698 -2.83563,4.25986 -5.70055,3.84819c-2.86493,-0.41167 -4.95767,-2.80203 -4.67426,-5.339c0.28341,-2.53697 2.83564,-4.25985 5.70057,-3.84818c2.86492,0.41167 4.95765,2.80202 4.67425,5.339z" fill="#fefefe"/><path d="M306.34913,125.1574c-1.26855,2.79919 -3.93649,4.32536 -5.959,3.40879c-2.02252,-0.91657 -2.63373,-3.92879 -1.36516,-6.72799c1.26855,-2.79919 3.93648,-4.32536 5.959,-3.40879c2.02252,0.91657 2.63374,3.92879 1.36518,6.72799z" fill="#fefefe"/><path d="M299.51577,121.13129c0.0126,3.10831 -1.67433,5.56559 -3.76785,5.48848c-2.09352,-0.07709 -3.80086,-2.65938 -3.81346,-5.76767c-0.0126,-3.10831 1.67433,-5.56558 3.76785,-5.48848c2.09352,0.07709 3.80086,2.65938 3.81346,5.76767z" fill="#fefefe"/><path d="M289.57759,121.78446c-0.92879,2.04949 -3.10648,3.06527 -4.86399,2.2688c-1.75752,-0.79648 -2.42931,-3.10359 -1.50051,-5.15309c0.92879,-2.04949 3.10648,-3.06527 4.86399,-2.26881c1.75752,0.79648 2.42931,3.10359 1.50051,5.15309z" fill="#fefefe"/><path d="M290.65008,130.52246c-0.97331,2.14771 -3.64864,3.03394 -5.97552,1.97943c-2.32687,-1.05451 -3.42415,-3.65041 -2.45083,-5.79812c0.97331,-2.14771 3.64864,-3.03394 5.9755,-1.97943c2.32687,1.05451 3.42415,3.65041 2.45085,5.79813z" fill="#fefefe"/><path d="M285.53037,126.75339c-0.86445,1.9075 -3.42084,2.61292 -5.70984,1.57558c-2.28899,-1.03734 -3.44383,-3.42463 -2.57937,-5.33213c0.86445,-1.9075 3.42084,-2.61292 5.70985,-1.57558c2.289,1.03734 3.44383,3.42462 2.57937,5.33212z" fill="#fefefe"/><path d="M293.45815,127.94428c-0.46556,-0.21099 -0.82948,-0.41175 -0.81287,-0.44843c0.01662,-0.03668 0.40751,0.10461 0.87307,0.31559c0.46556,0.21099 0.82948,0.41177 0.81287,0.44844c-0.01662,0.03668 -0.40751,-0.10461 -0.87307,-0.31561z" fill="#fefefe"/><path d="M284.98925,126.28961c-0.8834,1.94931 -3.76514,2.54812 -6.43655,1.33748c-2.67142,-1.21064 -4.1209,-3.77229 -3.23751,-5.72161c0.8834,-1.94931 3.76515,-2.54813 6.43657,-1.33747c2.67141,1.21064 4.1209,3.7723 3.2375,5.72161z" fill="#fefefe"/><path d="M279.05509,130.84871c-0.95123,2.09901 -3.45921,3.01347 -5.60173,2.04252c-2.14252,-0.97095 -3.10825,-3.45964 -2.15702,-5.55865c0.95123,-2.09901 3.45923,-3.01348 5.60174,-2.04252c2.14252,0.97095 3.10823,3.45966 2.157,5.55866z" fill="#fefefe"/><path d="M272.68036,138.48677c-1.03443,2.28259 -3.6692,3.31901 -5.8849,2.31489c-2.2157,-1.00412 -3.17332,-3.66853 -2.13887,-5.95113c1.03443,-2.28259 3.6692,-3.31901 5.88491,-2.31489c2.2157,1.00412 3.17332,3.66853 2.13888,5.95113z" fill="#fefefe"/><path d="M272.16123,153.30865c-1.24466,2.74648 -4.39433,4.00279 -7.03499,2.80609c-2.64067,-1.19671 -3.77235,-4.39329 -2.5277,-7.13974c1.24466,-2.74648 4.39433,-4.00279 7.03499,-2.80609c2.64067,1.19671 3.77236,4.39329 2.5277,7.13974z" fill="#fefefe"/></g><g stroke="none" stroke-width="0"><path d="M226.64236,269.90974c-4.24382,-0.74849 -6.97039,-5.40186 -6.08999,-10.39358c0.8804,-4.99173 5.0344,-8.43154 9.27821,-7.68305c4.24382,0.74849 6.9704,5.40185 6.09,10.39358c-0.8804,4.99173 -5.0344,8.43154 -9.27822,7.68305z" fill="#fe8400"/><path d="M218.09369,257.90783c-4.96428,1.88434 -10.04424,0.17088 -11.34644,-3.82713c-1.3022,-3.99802 1.66649,-8.76658 6.63078,-10.65091c4.96428,-1.88433 10.04424,-0.17088 11.34644,3.82713c1.3022,3.99802 -1.66649,8.76658 -6.63077,10.65091z" fill="#fe8400"/><path d="M216.87914,248.82595c-4.19243,1.48416 -8.52929,-0.41534 -9.68667,-4.24268c-1.15737,-3.82735 1.30303,-8.13318 5.49546,-9.61733c4.19243,-1.48416 8.52929,0.41535 9.68667,4.24269c1.15737,3.82735 -1.30304,8.13317 -5.49546,9.61733z" fill="#fe8400"/><path d="M212.04903,239.35841c-4.24382,-0.74849 -7.18727,-4.17219 -6.5744,-7.64705c0.61287,-3.47486 4.54998,-5.685 8.79379,-4.93651c4.24382,0.74849 7.18729,4.17219 6.57442,7.64705c-0.61287,3.47486 -4.54999,5.68501 -8.79381,4.93652z" fill="#fe8400"/><path d="M220.43217,228.93552c-3.60184,1.6858 -7.53224,0.56671 -8.77881,-2.49953c-1.24656,-3.06625 0.66278,-6.91852 4.26463,-8.60431c3.60184,-1.6858 7.53224,-0.56672 8.7788,2.49952c1.24656,3.06625 -0.66278,6.91852 -4.26462,8.60432z" fill="#fe8400"/><path d="M251.81208,268.29202c-5.07957,0.46416 -9.386,-2.09911 -9.61867,-5.72523c-0.23266,-3.62611 3.69653,-6.94194 8.7761,-7.40611c5.07957,-0.46416 9.386,2.09911 9.61867,5.72523c0.23266,3.62611 -3.69653,6.94195 -8.7761,7.40611z" fill="#fe8400"/><path d="M254.68131,263.95953c-3.92652,-0.69253 -6.58181,-4.24638 -5.93076,-7.93773c0.65106,-3.69135 4.36192,-6.12238 8.28843,-5.42985c3.92653,0.69253 6.58181,4.24639 5.93076,7.93773c-0.65106,3.69136 -4.36191,6.12239 -8.28843,5.42985z" fill="#fe8400"/><path d="M262.59547,258.35318c-3.88827,0.54664 -7.43008,-2.59813 -7.91085,-7.02403c-0.48077,-4.4259 2.28154,-8.45695 6.16982,-9.00359c3.88827,-0.54664 7.43008,2.59814 7.91084,7.02405c0.48077,4.42591 -2.28154,8.45694 -6.16982,9.00357z" fill="#fe8400"/><path d="M262.17338,246.47606c-4.00585,-0.70652 -6.83939,-3.62562 -6.32891,-6.51998c0.51048,-2.89435 4.17169,-4.66795 8.17754,-3.96142c4.00585,0.70652 6.8394,3.62561 6.32891,6.51996c-0.51048,2.89435 -4.1717,4.66797 -8.17755,3.96144z" fill="#fe8400"/><path d="M265.12865,239.99466c-4.97069,1.2956 -9.59657,-0.39658 -10.33219,-3.7796c-0.73562,-3.38299 2.69759,-7.17576 7.66828,-8.47135c4.97069,-1.2956 9.59657,0.39657 10.33219,3.77959c0.73562,3.38299 -2.69759,7.17577 -7.66827,8.47136z" fill="#fe8400"/><path d="M261.30544,229.22747c-2.93498,-0.51765 -4.95439,-2.97759 -4.51049,-5.49442c0.4439,-2.51684 3.18302,-4.1375 6.118,-3.61984c2.93498,0.51765 4.95439,2.97758 4.51049,5.49442c-0.4439,2.51683 -3.18302,4.1375 -6.118,3.61985z" fill="#fe8400"/><path d="M252.98247,233.14419c-3.25227,-0.57361 -5.38495,-3.89504 -4.76349,-7.4186c0.62146,-3.52357 3.76173,-5.91499 7.01401,-5.34138c3.25227,0.57361 5.38495,3.89504 4.76349,7.41861c-0.62146,3.52357 -3.76174,5.91498 -7.014,5.34137z" fill="#fe8400"/><path d="M255.68412,225.42429c-2.06241,-0.36375 -3.38048,-2.66493 -2.94397,-5.13982c0.4365,-2.47488 2.46228,-4.18631 4.52469,-3.82255c2.06241,0.36375 3.38048,2.66493 2.94398,5.13983c-0.4365,2.47488 -2.46229,4.18631 -4.5247,3.82255z" fill="#fe8400"/><path d="M256.49897,233.39952c0.08878,-0.50337 0.1929,-0.90575 0.23256,-0.89876c0.03966,0.00699 -0.00016,0.42074 -0.08894,0.92409c-0.08878,0.50337 -0.1929,0.90576 -0.23256,0.89876c-0.03966,-0.00699 0.00017,-0.42073 0.08895,-0.92409z" fill="#fe8400"/><path d="M255.68899,226.54273c-2.81599,-0.49667 -4.54702,-4.02773 -3.86638,-7.88689c0.68065,-3.85914 3.51522,-6.58498 6.33122,-6.08831c2.81599,0.49667 4.54703,4.02774 3.86638,7.88689c-0.68065,3.85915 -3.51523,6.58498 -6.33122,6.08831z" fill="#fe8400"/><path d="M249.73718,222.27828c-3.41091,-0.60159 -5.67821,-3.9117 -5.06414,-7.39332c0.61407,-3.48162 3.87696,-5.81636 7.28787,-5.21476c3.41091,0.60159 5.67822,3.91169 5.06415,7.39332c-0.61406,3.48163 -3.87696,5.81635 -7.28788,5.21476z" fill="#fe8400"/><path d="M240.99509,216.64117c-2.89531,-0.51065 -4.8406,-3.20295 -4.34491,-6.01342c0.49569,-2.81046 3.24464,-4.67483 6.13996,-4.16417c2.89531,0.51066 4.84059,3.20295 4.3449,6.01342c-0.49569,2.81046 -3.24464,4.67483 -6.13995,4.16418z" fill="#fe8400"/><path d="M226.48106,219.97395c-3.49024,-0.61559 -5.83983,-3.83502 -5.24796,-7.19079c0.59187,-3.35579 3.90108,-5.57713 7.3913,-4.96156c3.49024,0.61559 5.83982,3.83501 5.24796,7.19078c-0.59187,3.35579 -3.90108,5.57715 -7.3913,4.96157z" fill="#fe8400"/><path d="M232.19762,271.41165c-4.30932,-0.00346 -7.7994,-4.11531 -7.79534,-9.18407c0.00406,-5.06876 3.50075,-9.17502 7.81006,-9.17157c4.30932,0.00346 7.79942,4.11531 7.79535,9.18408c-0.00406,5.06876 -3.50076,9.17501 -7.81008,9.17156z" fill="#fef24a"/><path d="M221.70256,261.06858c-4.56371,2.7143 -9.86342,1.90498 -11.83728,-1.80766c-1.97385,-3.71264 0.12564,-8.9227 4.68934,-11.63698c4.5637,-2.71428 9.86341,-1.90498 11.83727,1.80766c1.97385,3.71264 -0.12565,8.92269 -4.68934,11.63698z" fill="#fef24a"/><path d="M218.93602,252.33348c-3.87267,2.18669 -8.47264,1.06564 -10.27434,-2.50394c-1.80168,-3.56959 -0.12284,-8.23597 3.74983,-10.42266c3.87267,-2.18669 8.47265,-1.06563 10.27436,2.50395c1.80168,3.56959 0.12282,8.23596 -3.74984,10.42266z" fill="#fef24a"/><path d="M212.54171,243.84367c-4.30932,-0.00346 -7.80041,-2.86667 -7.79758,-6.39515c0.00284,-3.52849 3.49851,-6.38608 7.80782,-6.38263c4.30932,0.00346 7.80042,2.86666 7.79758,6.39515c-0.00284,3.52849 -3.49851,6.38609 -7.80783,6.38264z" fill="#fef24a"/><path d="M218.99644,232.12829c-3.25612,2.28318 -7.32082,1.86052 -9.07876,-0.94401c-1.75794,-2.80453 -0.54342,-6.92892 2.7127,-9.2121c3.25612,-2.28317 7.32081,-1.86052 9.07874,0.94401c1.75794,2.80452 0.54344,6.92892 -2.71268,9.21209z" fill="#fef24a"/><path d="M256.70856,265.46639c-4.92282,1.33544 -9.60758,-0.44463 -10.4637,-3.97591c-0.85613,-3.53127 2.44058,-7.47653 7.3634,-8.81197c4.92282,-1.33544 9.60758,0.44464 10.46371,3.97591c0.85613,3.53128 -2.44058,7.47653 -7.3634,8.81197z" fill="#fef24a"/><path d="M258.78549,260.70308c-3.98713,-0.00319 -7.21689,-3.04443 -7.21388,-6.79275c0.00301,-3.74833 3.23765,-6.78436 7.22477,-6.78116c3.98713,0.00319 7.21688,3.04442 7.21388,6.79274c-0.00301,3.74833 -3.23764,6.78437 -7.22477,6.78118z" fill="#fef24a"/><path d="M265.6111,253.81279c-3.7352,1.21068 -7.7674,-1.27432 -9.00617,-5.55044c-1.23878,-4.27612 0.78496,-8.72406 4.52016,-9.93476c3.7352,-1.21069 7.7674,1.27434 9.00618,5.55046c1.23878,4.27612 -0.78496,8.72405 -4.52016,9.93474z" fill="#fef24a"/><path d="M263.14179,242.18751c-4.06768,-0.00326 -7.36327,-2.38846 -7.36091,-5.32749c0.00235,-2.93903 3.30177,-5.31894 7.36944,-5.31568c4.06768,0.00326 7.36326,2.38846 7.36091,5.32748c-0.00235,2.93903 -3.30177,5.31895 -7.36945,5.31569z" fill="#fef24a"/><path d="M264.93191,235.29277c-4.67182,2.13554 -9.52061,1.26866 -10.83007,-1.93622c-1.30946,-3.20486 1.41626,-7.53411 6.08807,-9.66963c4.67182,-2.13554 9.52061,-1.26866 10.83007,1.93622c1.30946,3.20486 -1.41627,7.53411 -6.08808,9.66964z" fill="#fef24a"/><path d="M259.30461,225.34878c-2.98028,-0.0024 -5.3946,-2.07611 -5.39255,-4.63179c0.00206,-2.55569 2.4197,-4.62553 5.39997,-4.62314c2.98028,0.00239 5.39461,2.07611 5.39255,4.63179c-0.00205,2.55569 -2.4197,4.62553 -5.39998,4.62314z" fill="#fef24a"/><path d="M251.78419,230.64558c-3.30247,-0.00265 -5.97732,-2.9053 -5.97445,-6.48326c0.00287,-3.57796 2.68237,-6.47631 5.98484,-6.47367c3.30247,0.00265 5.97732,2.9053 5.97444,6.48325c-0.00287,3.57796 -2.68238,6.47632 -5.98483,6.47367z" fill="#fef24a"/><path d="M253.11037,222.57482c-2.09424,-0.00168 -3.79034,-2.0403 -3.78833,-4.55339c0.00202,-2.51307 1.70138,-4.54899 3.79562,-4.54731c2.09424,0.00168 3.79033,2.0403 3.78832,4.5534c-0.00202,2.51307 -1.70138,4.54898 -3.79562,4.5473z" fill="#fef24a"/><path d="M255.29187,230.28903c0.00041,-0.51114 0.03339,-0.92547 0.07366,-0.92543c0.04028,0.00003 0.07259,0.41442 0.07218,0.92554c-0.00041,0.51114 -0.03339,0.92547 -0.07367,0.92544c-0.04028,-0.00003 -0.07258,-0.41442 -0.07217,-0.92555z" fill="#fef24a"/><path d="M253.30855,223.67557c-2.85945,-0.00229 -5.17495,-3.18088 -5.1718,-7.0996c0.00314,-3.9187 2.32373,-7.09359 5.18319,-7.0913c2.85945,0.00229 5.17494,3.18089 5.1718,7.0996c-0.00315,3.9187 -2.32373,7.09359 -5.18318,7.0913z" fill="#fef24a"/><path d="M246.70904,220.50443c-3.46356,-0.00278 -6.26903,-2.871 -6.2662,-6.40636c0.00284,-3.53536 2.81291,-6.39909 6.27646,-6.39631c3.46356,0.00278 6.26904,2.87101 6.2662,6.40637c-0.00284,3.53536 -2.81291,6.39908 -6.27648,6.39631z" fill="#fef24a"/><path d="M237.12396,216.46374c-2.93999,-0.00236 -5.32149,-2.31776 -5.31921,-5.1716c0.00229,-2.85383 2.38749,-5.16543 5.32749,-5.16307c2.93999,0.00236 5.32148,2.31777 5.3192,5.17162c-0.00229,2.85383 -2.38748,5.16542 -5.32748,5.16306z" fill="#fef24a"/><path d="M223.40476,222.25584c-3.54411,-0.00284 -6.41495,-2.76753 -6.41222,-6.1751c0.00274,-3.40758 2.87802,-6.16766 6.42211,-6.16481c3.54411,0.00284 6.41495,2.76752 6.41222,6.17509c-0.00274,3.40758 -2.87803,6.16766 -6.42213,6.16481z" fill="#fef24a"/><path d="M262.48431,256.83119c-1.26226,2.78531 -4.94137,3.83963 -8.21755,2.35493c-3.27617,-1.4847 -4.90878,-4.94623 -3.64652,-7.73153c1.26226,-2.78531 4.94137,-3.83964 8.21756,-2.35494c3.27617,1.4847 4.90878,4.94624 3.64652,7.73154z" fill="#fefefe"/><path d="M248.53698,263.40037c0.38786,3.45285 -1.52363,6.39448 -4.26941,6.57034c-2.74578,0.17585 -5.28609,-2.4807 -5.67393,-5.93355c-0.38785,-3.45285 1.52362,-6.39448 4.26941,-6.57032c2.74578,-0.17585 5.28609,2.48068 5.67394,5.93354z" fill="#fefefe"/><path d="M239.27552,262.27293c0.24378,2.72198 -1.54859,5.01368 -4.0034,5.11864c-2.4548,0.10496 -4.64245,-2.01655 -4.88623,-4.73854c-0.24378,-2.72198 1.54861,-5.01369 4.00341,-5.11865c2.4548,-0.10496 4.64244,2.01656 4.88622,4.73854z" fill="#fefefe"/><path d="M230.11023,263.76421c-1.29477,2.85703 -4.24079,4.31369 -6.58015,3.25353c-2.33935,-1.06016 -3.18616,-4.23567 -1.89139,-7.09269c1.29477,-2.85703 4.24079,-4.3137 6.58015,-3.25354c2.33935,1.06016 3.18617,4.23567 1.8914,7.0927z" fill="#fefefe"/><path d="M221.89059,254.01647c0.51626,2.73103 -0.92342,5.19775 -3.21562,5.50959c-2.29219,0.31183 -4.56888,-1.6493 -5.08515,-4.38034c-0.51626,-2.73103 0.92343,-5.19774 3.21562,-5.50958c2.29219,-0.31184 4.56888,1.6493 5.08515,4.38032z" fill="#fefefe"/><path d="M267.45407,232.74347c-0.54292,3.36864 -2.91919,5.73343 -5.30754,5.28191c-2.38835,-0.45152 -3.88437,-3.54836 -3.34145,-6.917c0.54292,-3.36864 2.91919,-5.73343 5.30755,-5.28191c2.38835,0.45152 3.88436,3.54836 3.34144,6.917z" fill="#fefefe"/><path d="M264.46813,228.54896c-1.20871,2.66715 -4.22123,3.90811 -6.72863,2.7718c-2.5074,-1.13631 -3.56021,-4.21962 -2.3515,-6.88677c1.20872,-2.66715 4.22122,-3.90813 6.72863,-2.77182c2.5074,1.13631 3.56021,4.21963 2.35151,6.88678z" fill="#fefefe"/><path d="M259.85253,219.83347c-0.28341,2.53698 -2.83563,4.25986 -5.70055,3.84819c-2.86492,-0.41167 -4.95767,-2.80203 -4.67426,-5.339c0.28341,-2.53697 2.83564,-4.25985 5.70057,-3.84818c2.86492,0.41167 4.95765,2.80202 4.67425,5.339z" fill="#fefefe"/><path d="M249.84913,217.15741c-1.26855,2.79919 -3.93649,4.32536 -5.959,3.40879c-2.02252,-0.91657 -2.63373,-3.92879 -1.36517,-6.72798c1.26855,-2.79919 3.93648,-4.32537 5.959,-3.40879c2.02252,0.91657 2.63374,3.92879 1.36517,6.72799z" fill="#fefefe"/><path d="M243.01577,213.1313c0.0126,3.10831 -1.67433,5.56559 -3.76785,5.48848c-2.09352,-0.07709 -3.80087,-2.65938 -3.81346,-5.76767c-0.0126,-3.10831 1.67433,-5.56558 3.76785,-5.48848c2.09352,0.07709 3.80086,2.65938 3.81346,5.76767z" fill="#fefefe"/><path d="M233.07759,213.78447c-0.9288,2.04949 -3.10648,3.06527 -4.86399,2.2688c-1.75752,-0.79648 -2.42931,-3.10359 -1.50052,-5.15309c0.9288,-2.0495 3.10648,-3.06528 4.86399,-2.26881c1.75752,0.79648 2.42931,3.10359 1.50051,5.1531z" fill="#fefefe"/><path d="M234.15008,222.52246c-0.97331,2.14771 -3.64864,3.03394 -5.97552,1.97943c-2.32687,-1.05451 -3.42415,-3.65041 -2.45083,-5.79812c0.97331,-2.14771 3.64863,-3.03394 5.9755,-1.97943c2.32687,1.05451 3.42415,3.65041 2.45084,5.79813z" fill="#fefefe"/><path d="M229.03037,218.75339c-0.86445,1.9075 -3.42085,2.61292 -5.70984,1.57558c-2.28899,-1.03734 -3.44383,-3.42463 -2.57937,-5.33213c0.86445,-1.9075 3.42083,-2.61292 5.70985,-1.57557c2.289,1.03734 3.44383,3.42462 2.57937,5.33212z" fill="#fefefe"/><path d="M236.95815,219.94428c-0.46556,-0.21099 -0.82949,-0.41175 -0.81287,-0.44843c0.01662,-0.03668 0.40752,0.10461 0.87307,0.31559c0.46556,0.21099 0.82948,0.41177 0.81287,0.44844c-0.01662,0.03668 -0.40751,-0.10461 -0.87307,-0.31561z" fill="#fefefe"/><path d="M228.48924,218.28962c-0.8834,1.94931 -3.76514,2.54812 -6.43655,1.33748c-2.67141,-1.21064 -4.1209,-3.77229 -3.2375,-5.72161c0.8834,-1.94932 3.76514,-2.54813 6.43657,-1.33748c2.67141,1.21064 4.1209,3.7723 3.2375,5.72161z" fill="#fefefe"/><path d="M222.55509,222.84871c-0.95123,2.09901 -3.45921,3.01347 -5.60173,2.04252c-2.14252,-0.97095 -3.10825,-3.45964 -2.15702,-5.55865c0.95123,-2.09901 3.45923,-3.01348 5.60175,-2.04252c2.14252,0.97095 3.10823,3.45966 2.157,5.55866z" fill="#fefefe"/><path d="M216.18036,230.48677c-1.03443,2.28259 -3.6692,3.31901 -5.8849,2.31489c-2.2157,-1.00412 -3.17332,-3.66853 -2.13887,-5.95113c1.03443,-2.28259 3.6692,-3.31901 5.88491,-2.31489c2.2157,1.00412 3.17332,3.66853 2.13888,5.95113z" fill="#fefefe"/><path d="M215.66123,245.30866c-1.24466,2.74648 -4.39433,4.00279 -7.03499,2.80609c-2.64067,-1.19671 -3.77235,-4.39329 -2.5277,-7.13974c1.24466,-2.74648 4.39433,-4.00279 7.03499,-2.80609c2.64067,1.19671 3.77236,4.39329 2.5277,7.13974z" fill="#fefefe"/></g><g data-paper-data="{&quot;index&quot;:null}" stroke="none" stroke-width="0"><path d="M295.71971,235.22669c-0.8804,-4.99174 1.84618,-9.64509 6.09,-10.39359c4.24381,-0.74849 8.3978,2.69133 9.27821,7.68305c0.8804,4.99171 -1.84617,9.64509 -6.08999,10.39358c-4.24382,0.74849 -8.39782,-2.69132 -9.27822,-7.68305z" fill="#fe8400"/><path d="M306.91583,220.25691c1.3022,-3.99802 6.38216,-5.71147 11.34644,-3.82713c4.96428,1.88433 7.93297,6.6529 6.63078,10.65091c-1.30221,3.99802 -6.38216,5.71148 -11.34644,3.82713c-4.96428,-1.88433 -7.93297,-6.6529 -6.63077,-10.65091z" fill="#fe8400"/><path d="M314.76115,221.82595c-4.19242,-1.48415 -6.65283,-5.78998 -5.49546,-9.61733c1.15738,-3.82734 5.49424,-5.72685 9.68668,-4.24269c4.19242,1.48415 6.65283,5.78998 5.49545,9.61733c-1.15738,3.82735 -5.49423,5.72685 -9.68666,4.24268z" fill="#fe8400"/><path d="M319.59126,212.35841c-4.24382,0.74849 -8.18094,-1.46166 -8.79381,-4.93652c-0.61287,-3.47486 2.3306,-6.89855 6.57441,-7.64705c4.24381,-0.74849 8.18093,1.46165 8.7938,4.93651c0.61287,3.47486 -2.33058,6.89856 -6.5744,7.64705z" fill="#fe8400"/><path d="M306.94351,193.33119c1.24656,-3.06624 5.17695,-4.18532 8.7788,-2.49952c3.60185,1.6858 5.51119,5.53806 4.26463,8.60431c-1.24657,3.06624 -5.17696,4.18533 -8.77881,2.49953c-3.60184,-1.6858 -5.51118,-5.53807 -4.26462,-8.60432z" fill="#fe8400"/><path d="M271.05211,233.88591c0.23267,-3.62613 4.53911,-6.1894 9.61867,-5.72523c5.07957,0.46417 9.00876,3.78 8.7761,7.40611c-0.23267,3.62613 -4.5391,6.18939 -9.61867,5.72523c-5.07957,-0.46417 -9.00877,-3.78 -8.7761,-7.40611z" fill="#fe8400"/><path d="M268.67055,231.52969c-0.65105,-3.69135 2.00423,-7.2452 5.93075,-7.93774c3.92651,-0.69253 7.63737,1.7385 8.28843,5.42986c0.65106,3.69135 -2.00423,7.24519 -5.93075,7.93773c-3.92653,0.69253 -7.63738,-1.7385 -8.28843,-5.42985z" fill="#fe8400"/><path d="M269.04484,231.35318c-3.88827,-0.54664 -6.65059,-4.57767 -6.16982,-9.00357c0.48077,-4.4259 4.02258,-7.57068 7.91084,-7.02405c3.88827,0.54664 6.65059,4.57769 6.16982,9.00359c-0.48077,4.42591 -4.02258,7.57067 -7.91085,7.02403z" fill="#fe8400"/><path d="M269.46692,219.47606c-4.00585,0.70652 -7.66706,-1.06709 -8.17755,-3.96144c-0.51049,-2.89435 2.32306,-5.81343 6.32891,-6.51996c4.00585,-0.70652 7.66706,1.06707 8.17754,3.96142c0.51048,2.89436 -2.32306,5.81346 -6.32891,6.51998z" fill="#fe8400"/><path d="M258.84337,204.52331c0.73562,-3.38302 5.3615,-5.07519 10.33219,-3.77959c4.97069,1.29559 8.40389,5.08836 7.66827,8.47135c-0.73562,3.38302 -5.3615,5.0752 -10.33219,3.7796c-4.97069,-1.29559 -8.40389,-5.08836 -7.66827,-8.47136z" fill="#fe8400"/><path d="M264.21686,198.60762c-0.44391,-2.51684 1.5755,-4.97677 4.51048,-5.49442c2.93498,-0.51765 5.6741,1.10301 6.118,3.61984c0.4439,2.51684 -1.57551,4.97677 -4.51049,5.49442c-2.93498,0.51765 -5.67409,-1.10301 -6.11799,-3.61985z" fill="#fe8400"/><path d="M271.64382,200.80282c-0.62146,-3.52357 1.51122,-6.84499 4.76349,-7.41861c3.25228,-0.57361 6.39255,1.81781 7.01401,5.34138c0.62146,3.52356 -1.51122,6.84499 -4.76349,7.4186c-3.25227,0.57361 -6.39255,-1.8178 -7.014,-5.34137z" fill="#fe8400"/><path d="M271.43148,194.60174c-0.43651,-2.4749 0.88156,-4.77607 2.94398,-5.13983c2.06241,-0.36375 4.08819,1.34768 4.52469,3.82255c0.43651,2.47489 -0.88156,4.77607 -2.94397,5.13982c-2.06241,0.36375 -4.08819,-1.34767 -4.5247,-3.82255z" fill="#fe8400"/><path d="M275.23027,207.32361c-0.03966,0.00699 -0.14378,-0.3954 -0.23256,-0.89876c-0.08878,-0.50335 -0.1286,-0.9171 -0.08894,-0.92409c0.03966,-0.00699 0.14378,0.39539 0.23256,0.89876c0.08878,0.50337 0.12861,0.9171 0.08895,0.92409z" fill="#fe8400"/><path d="M269.62008,193.45441c-0.68065,-3.85915 1.05039,-7.39022 3.86638,-7.88689c2.816,-0.49667 5.65057,2.22917 6.33122,6.08831c0.68065,3.85916 -1.05039,7.39022 -3.86638,7.88689c-2.81599,0.49667 -5.65057,-2.22917 -6.33122,-6.08831z" fill="#fe8400"/><path d="M281.90312,195.27828c-3.41092,0.60159 -6.67381,-1.73314 -7.28787,-5.21476c-0.61406,-3.48163 1.65324,-6.79173 5.06416,-7.39332c3.41091,-0.60159 6.6738,1.73314 7.28787,5.21477c0.61406,3.48162 -1.65323,6.79173 -5.06415,7.39332z" fill="#fe8400"/><path d="M284.50525,185.477c-0.49569,-2.81047 1.44959,-5.50276 4.3449,-6.01342c2.89531,-0.51065 5.64427,1.35372 6.13996,4.16418c0.49569,2.81047 -1.4496,5.50277 -4.34491,6.01342c-2.89532,0.51066 -5.64427,-1.35371 -6.13995,-4.16417z" fill="#fe8400"/><path d="M305.15924,192.97395c-3.49023,0.61558 -6.79943,-1.60578 -7.3913,-4.96157c-0.59186,-3.35577 1.75772,-6.57519 5.24796,-7.19078c3.49022,-0.61558 6.79943,1.60577 7.3913,4.96156c0.59186,3.35577 -1.75772,6.57521 -5.24796,7.19079z" fill="#fe8400"/><path d="M299.44268,244.41165c-4.30932,0.00346 -7.80602,-4.1028 -7.81008,-9.17156c-0.00407,-5.06877 3.48603,-9.18062 7.79535,-9.18408c4.30931,-0.00346 7.806,4.10281 7.81006,9.17157c0.00406,5.06876 -3.48602,9.18061 -7.79534,9.18407z" fill="#fef24a"/><path d="M309.93774,234.06858c-4.56369,-2.71428 -6.66318,-7.92434 -4.68934,-11.63698c1.97386,-3.71264 7.27357,-4.52194 11.83727,-1.80766c4.5637,2.71428 6.66319,7.92434 4.68934,11.63698c-1.97386,3.71264 -7.27357,4.52196 -11.83728,1.80766z" fill="#fef24a"/><path d="M312.70426,225.3335c-3.87266,-2.1867 -5.55153,-6.85307 -3.74984,-10.42266c1.80171,-3.56958 6.40169,-4.69063 10.27436,-2.50395c3.87267,2.18669 5.55152,6.85306 3.74983,10.42266c-1.8017,3.56958 -6.40167,4.69063 -10.27434,2.50394z" fill="#fef24a"/><path d="M311.29076,210.46103c-0.00284,-3.52849 3.48827,-6.39169 7.79759,-6.39515c4.30931,-0.00345 7.80499,2.85414 7.80782,6.38263c0.00284,3.52848 -3.48826,6.39169 -7.79758,6.39515c-4.30932,0.00346 -7.80499,-2.85415 -7.80783,-6.38264z" fill="#fef24a"/><path d="M312.64385,205.12829c-3.25611,-2.28317 -4.47062,-6.40757 -2.71268,-9.21209c1.75794,-2.80453 5.82263,-3.22719 9.07875,-0.94401c3.25612,2.28318 4.47064,6.40757 2.7127,9.2121c-1.75794,2.80453 -5.82264,3.22718 -9.07876,0.94401z" fill="#fef24a"/><path d="M267.56833,229.65442c0.85613,-3.53127 5.54089,-5.31136 10.46371,-3.97591c4.92282,1.33544 8.21953,5.2807 7.3634,8.81197c-0.85613,3.53128 -5.54089,5.31136 -10.46371,3.97591c-4.92282,-1.33544 -8.21953,-5.2807 -7.3634,-8.81197z" fill="#fef24a"/><path d="M272.85481,233.70308c-3.98713,0.00319 -7.22176,-3.03284 -7.22476,-6.78118c-0.00301,-3.74832 3.22675,-6.78955 7.21388,-6.79274c3.98711,-0.0032 7.22176,3.03283 7.22476,6.78116c0.00301,3.74832 -3.22675,6.78956 -7.21388,6.79275z" fill="#fef24a"/><path d="M266.02919,226.81279c-3.7352,-1.21069 -5.75894,-5.65862 -4.52016,-9.93474c1.23878,-4.27612 5.27098,-6.76114 9.00618,-5.55046c3.7352,1.2107 5.75894,5.65864 4.52016,9.93476c-1.23878,4.27612 -5.27098,6.76112 -9.00617,5.55044z" fill="#fef24a"/><path d="M268.49852,215.18751c-4.06768,0.00326 -7.36709,-2.37666 -7.36945,-5.31569c-0.00235,-2.93902 3.29323,-5.32422 7.36091,-5.32748c4.06768,-0.00326 7.36709,2.37665 7.36944,5.31568c0.00235,2.93903 -3.29323,5.32423 -7.36091,5.32749z" fill="#fef24a"/><path d="M260.62031,198.62313c1.30946,-3.20488 6.15825,-4.07175 10.83007,-1.93622c4.67181,2.13552 7.39753,6.46478 6.08807,9.66964c-1.30946,3.20488 -6.15825,4.07175 -10.83006,1.93622c-4.67181,-2.13552 -7.39754,-6.46478 -6.08808,-9.66963z" fill="#fef24a"/><path d="M266.93571,193.72563c-0.00206,-2.55569 2.41228,-4.6294 5.39255,-4.63179c2.98028,-0.00239 5.39792,2.06746 5.39997,4.62314c0.00205,2.55569 -2.41227,4.6294 -5.39255,4.63179c-2.98028,0.00239 -5.39792,-2.06746 -5.39998,-4.62314z" fill="#fef24a"/><path d="M279.85611,203.64558c-3.30245,0.00265 -5.98196,-2.89572 -5.98483,-6.47367c-0.00288,-3.57794 2.67197,-6.4806 5.97444,-6.48325c3.30247,-0.00265 5.98197,2.89571 5.98484,6.47367c0.00286,3.57796 -2.67199,6.48061 -5.97445,6.48326z" fill="#fef24a"/><path d="M278.52993,195.57481c-2.09424,0.00167 -3.7936,-2.03423 -3.79562,-4.5473c-0.00201,-2.5131 1.69408,-4.55172 3.78832,-4.5534c2.09424,-0.00168 3.7936,2.03424 3.79562,4.54731c0.00201,2.51309 -1.69409,4.55172 -3.78833,4.55339z" fill="#fef24a"/><path d="M276.34843,203.28903c0.00041,0.51113 -0.0319,0.92552 -0.07218,0.92555c-0.04028,0.00003 -0.07326,-0.4143 -0.07367,-0.92544c-0.00041,-0.51112 0.0319,-0.92551 0.07218,-0.92554c0.04026,-0.00003 0.07324,0.41429 0.07365,0.92543z" fill="#fef24a"/><path d="M273.14856,189.58427c-0.00315,-3.91871 2.31234,-7.09731 5.17179,-7.0996c2.85946,-0.0023 5.18004,3.17259 5.18319,7.0913c0.00314,3.91872 -2.31235,7.09731 -5.1718,7.0996c-2.85945,0.00229 -5.18003,-3.1726 -5.18318,-7.0913z" fill="#fef24a"/><path d="M284.93126,193.50443c-3.46357,0.00278 -6.27364,-2.86094 -6.27648,-6.39631c-0.00284,-3.53536 2.80264,-6.40359 6.2662,-6.40637c3.46355,-0.00278 6.27363,2.86095 6.27646,6.39631c0.00284,3.53536 -2.80264,6.40358 -6.2662,6.40636z" fill="#fef24a"/><path d="M294.51633,189.46373c-2.94,0.00236 -5.3252,-2.30923 -5.32748,-5.16306c-0.00229,-2.85385 2.37921,-5.16925 5.3192,-5.17162c2.94,-0.00235 5.3252,2.30925 5.32749,5.16307c0.00228,2.85385 -2.37921,5.16925 -5.31921,5.1716z" fill="#fef24a"/><path d="M308.23555,195.25583c-3.5441,0.00285 -6.41939,-2.75723 -6.42213,-6.16481c-0.00273,-3.40757 2.86811,-6.17225 6.41222,-6.17509c3.54409,-0.00285 6.41937,2.75723 6.42211,6.16481c0.00274,3.40757 -2.86811,6.17226 -6.41221,6.1751z" fill="#fef24a"/><path d="M269.15598,229.83119c-1.26226,-2.7853 0.37035,-6.24684 3.64652,-7.73154c3.27618,-1.4847 6.9553,-0.43037 8.21756,2.35494c1.26226,2.7853 -0.37035,6.24683 -3.64652,7.73153c-3.27617,1.4847 -6.95529,0.43038 -8.21754,-2.35493z" fill="#fefefe"/><path d="M283.1033,236.40037c0.38785,-3.45285 2.92816,-6.10938 5.67394,-5.93354c2.74579,0.17584 4.65726,3.11747 4.26941,6.57032c-0.38784,3.45285 -2.92815,6.1094 -5.67393,5.93355c-2.74578,-0.17585 -4.65726,-3.11748 -4.26941,-6.57033z" fill="#fefefe"/><path d="M292.36478,235.27293c0.24378,-2.72198 2.43142,-4.84351 4.88622,-4.73855c2.4548,0.10496 4.24719,2.39667 4.00341,5.11865c-0.24379,2.72198 -2.43143,4.8435 -4.88624,4.73854c-2.45481,-0.10496 -4.24718,-2.39666 -4.0034,-5.11864z" fill="#fefefe"/><path d="M301.53006,236.76421c-1.29477,-2.85703 -0.44795,-6.03254 1.89141,-7.0927c2.33936,-1.06016 5.28538,0.39651 6.58015,3.25354c1.29476,2.85702 0.44795,6.03253 -1.89139,7.09269c-2.33936,1.06016 -5.28539,-0.3965 -6.58015,-3.25353z" fill="#fefefe"/><path d="M314.83486,222.63614c2.29219,0.31184 3.73188,2.77855 3.21562,5.50958c-0.51626,2.73103 -2.79296,4.69217 -5.08515,4.38034c-2.2922,-0.31184 -3.73188,-2.77856 -3.21562,-5.50959c0.51627,-2.73102 2.79296,-4.69216 5.08515,-4.38032z" fill="#fefefe"/><path d="M267.52767,198.82647c2.38835,-0.45152 4.76463,1.91327 5.30755,5.28191c0.54292,3.36864 -0.95309,6.46549 -3.34144,6.917c-2.38835,0.45152 -4.76462,-1.91327 -5.30754,-5.28191c-0.54292,-3.36864 0.95309,-6.46549 3.34144,-6.917z" fill="#fefefe"/><path d="M267.17216,201.54895c-1.20871,-2.66715 -0.15589,-5.75047 2.35151,-6.88678c2.50741,-1.13631 5.51991,0.10466 6.72863,2.77182c1.20871,2.66715 0.1559,5.75046 -2.3515,6.88677c-2.5074,1.13631 -5.51991,-0.10465 -6.72863,-2.7718z" fill="#fefefe"/><path d="M271.78776,192.83347c-0.2834,-2.53698 1.80933,-4.92733 4.67425,-5.339c2.86493,-0.41167 5.41716,1.31121 5.70057,3.84818c0.28341,2.53698 -1.80933,4.92733 -4.67426,5.339c-2.86492,0.41168 -5.41714,-1.31121 -5.70055,-3.84819z" fill="#fefefe"/><path d="M281.79116,190.1574c-1.26856,-2.7992 -0.65735,-5.81142 1.36518,-6.72799c2.02252,-0.91657 4.69044,0.6096 5.959,3.40879c1.26856,2.7992 0.65735,5.81141 -1.36516,6.72798c-2.02252,0.91657 -4.69045,-0.60959 -5.959,-3.40879z" fill="#fefefe"/><path d="M292.43798,180.36363c2.09352,-0.0771 3.78045,2.38017 3.76785,5.48848c-0.0126,3.10829 -1.71994,5.69058 -3.81346,5.76767c-2.09352,0.0771 -3.78045,-2.38018 -3.76785,-5.48848c0.0126,-3.10829 1.71994,-5.69057 3.81346,-5.76767z" fill="#fefefe"/><path d="M298.56272,186.78447c-0.92881,-2.04951 -0.25701,-4.35662 1.50051,-5.1531c1.75751,-0.79647 3.9352,0.21931 4.86399,2.26881c0.9288,2.0495 0.257,4.35661 -1.50051,5.15309c-1.75751,0.79647 -3.9352,-0.21931 -4.86399,-2.2688z" fill="#fefefe"/><path d="M297.49021,195.52247c-0.97331,-2.14772 0.12397,-4.74362 2.45085,-5.79813c2.32687,-1.05451 5.0022,-0.16828 5.9755,1.97943c0.97331,2.14771 -0.12396,4.74361 -2.45083,5.79812c-2.32687,1.05451 -5.00221,0.16828 -5.97552,-1.97943z" fill="#fefefe"/><path d="M302.60991,191.75338c-0.86445,-1.9075 0.29038,-4.29478 2.57938,-5.33212c2.28901,-1.03735 4.8454,-0.33193 5.70985,1.57557c0.86446,1.9075 -0.29038,4.29479 -2.57937,5.33213c-2.28899,1.03734 -4.84539,0.33192 -5.70984,-1.57558z" fill="#fefefe"/><path d="M294.68214,192.94428c-0.46556,0.21099 -0.85645,0.35229 -0.87307,0.31561c-0.01662,-0.03668 0.34731,-0.23745 0.81287,-0.44844c0.46555,-0.21098 0.85645,-0.35227 0.87307,-0.31559c0.01662,0.03668 -0.34731,0.23744 -0.81287,0.44843z" fill="#fefefe"/><path d="M303.15104,191.28962c-0.8834,-1.94931 0.56609,-4.51097 3.23751,-5.72161c2.67142,-1.21066 5.55317,-0.61184 6.43657,1.33748c0.8834,1.94932 -0.56609,4.51097 -3.23751,5.72161c-2.67141,1.21065 -5.55316,0.61184 -6.43655,-1.33748z" fill="#fefefe"/><path d="M309.0852,195.84872c-0.95123,-2.099 0.01448,-4.58771 2.157,-5.55866c2.14252,-0.97096 4.65051,-0.05649 5.60174,2.04252c0.95123,2.099 -0.0145,4.5877 -2.15702,5.55865c-2.14252,0.97096 -4.65049,0.05649 -5.60173,-2.04252z" fill="#fefefe"/><path d="M315.45993,203.48678c-1.03444,-2.2826 -0.07682,-4.94701 2.13888,-5.95113c2.21571,-1.00412 4.85048,0.0323 5.88491,2.31489c1.03445,2.2826 0.07682,4.94701 -2.13887,5.95113c-2.2157,1.00412 -4.85047,-0.0323 -5.8849,-2.31489z" fill="#fefefe"/><path d="M315.97906,218.30866c-1.24465,-2.74645 -0.11297,-5.94303 2.5277,-7.13974c2.64067,-1.19671 5.79034,0.05961 7.03499,2.80609c1.24465,2.74645 0.11297,5.94303 -2.5277,7.13974c-2.64066,1.19671 -5.79033,-0.05961 -7.03499,-2.80609z" fill="#fefefe"/></g><g stroke="none" stroke-width="0"><path d="M170.64237,238.90974c-4.24382,-0.74849 -6.97039,-5.40187 -6.08999,-10.39358c0.8804,-4.99173 5.0344,-8.43154 9.27821,-7.68305c4.24382,0.74849 6.9704,5.40185 6.09,10.39359c-0.8804,4.99173 -5.0344,8.43154 -9.27822,7.68305z" fill="#fe8400"/><path d="M162.09369,226.90783c-4.96428,1.88434 -10.04424,0.17088 -11.34644,-3.82713c-1.3022,-3.99802 1.66649,-8.76658 6.63078,-10.65091c4.96428,-1.88433 10.04424,-0.17088 11.34644,3.82713c1.3022,3.99802 -1.66649,8.76658 -6.63077,10.65091z" fill="#fe8400"/><path d="M160.87915,217.82595c-4.19243,1.48416 -8.52929,-0.41534 -9.68667,-4.24268c-1.15737,-3.82735 1.30303,-8.13318 5.49546,-9.61733c4.19243,-1.48416 8.52929,0.41535 9.68667,4.24269c1.15737,3.82735 -1.30304,8.13317 -5.49546,9.61733z" fill="#fe8400"/><path d="M156.04904,208.35841c-4.24382,-0.74849 -7.18727,-4.17219 -6.5744,-7.64705c0.61287,-3.47486 4.54998,-5.685 8.79379,-4.93651c4.24382,0.74849 7.18729,4.17219 6.57442,7.64705c-0.61287,3.47486 -4.54999,5.68501 -8.79381,4.93652z" fill="#fe8400"/><path d="M164.43217,197.93552c-3.60184,1.6858 -7.53224,0.56671 -8.77881,-2.49953c-1.24656,-3.06625 0.66278,-6.91852 4.26463,-8.60431c3.60184,-1.6858 7.53224,-0.56672 8.7788,2.49952c1.24656,3.06625 -0.66278,6.91852 -4.26462,8.60432z" fill="#fe8400"/><path d="M195.81209,237.29202c-5.07957,0.46417 -9.386,-2.0991 -9.61867,-5.72523c-0.23266,-3.62611 3.69653,-6.94195 8.7761,-7.40611c5.07957,-0.46417 9.386,2.09911 9.61867,5.72523c0.23266,3.62611 -3.69653,6.94194 -8.7761,7.40611z" fill="#fe8400"/><path d="M198.68132,232.95954c-3.92652,-0.69253 -6.58181,-4.24638 -5.93076,-7.93773c0.65106,-3.69135 4.36192,-6.12239 8.28843,-5.42986c3.92652,0.69253 6.58181,4.24639 5.93075,7.93774c-0.65106,3.69135 -4.3619,6.12238 -8.28843,5.42985z" fill="#fe8400"/><path d="M206.59547,227.35318c-3.88826,0.54664 -7.43008,-2.59813 -7.91085,-7.02403c-0.48077,-4.4259 2.28154,-8.45695 6.16982,-9.00359c3.88826,-0.54664 7.43008,2.59814 7.91084,7.02405c0.48077,4.42591 -2.28154,8.45694 -6.16982,9.00357z" fill="#fe8400"/><path d="M206.17339,215.47606c-4.00585,-0.70652 -6.83939,-3.62562 -6.32891,-6.51998c0.51048,-2.89435 4.17169,-4.66795 8.17754,-3.96142c4.00585,0.70652 6.8394,3.62561 6.32891,6.51996c-0.51048,2.89435 -4.1717,4.66797 -8.17755,3.96144z" fill="#fe8400"/><path d="M209.12866,208.99466c-4.97069,1.2956 -9.59657,-0.39658 -10.33219,-3.7796c-0.73562,-3.38299 2.69759,-7.17576 7.66827,-8.47135c4.97069,-1.2956 9.59657,0.39657 10.33219,3.77959c0.73562,3.38299 -2.69759,7.17577 -7.66827,8.47136z" fill="#fe8400"/><path d="M205.30545,198.22747c-2.93498,-0.51765 -4.95439,-2.97759 -4.51048,-5.49442c0.4439,-2.51684 3.18302,-4.1375 6.118,-3.61984c2.93498,0.51765 4.95439,2.97758 4.51048,5.49442c-0.4439,2.51683 -3.18302,4.1375 -6.118,3.61985z" fill="#fe8400"/><path d="M196.98247,202.14419c-3.25227,-0.57361 -5.38495,-3.89504 -4.76349,-7.4186c0.62146,-3.52357 3.76173,-5.91499 7.01401,-5.34138c3.25227,0.57361 5.38495,3.89504 4.76349,7.41861c-0.62146,3.52357 -3.76174,5.91498 -7.014,5.34137z" fill="#fe8400"/><path d="M199.68412,194.42429c-2.06241,-0.36375 -3.38048,-2.66493 -2.94397,-5.13982c0.4365,-2.47488 2.46228,-4.18631 4.52469,-3.82255c2.06241,0.36375 3.38048,2.66493 2.94397,5.13983c-0.4365,2.47488 -2.46228,4.18631 -4.52469,3.82255z" fill="#fe8400"/><path d="M200.49897,202.39952c0.08878,-0.50337 0.1929,-0.90575 0.23256,-0.89876c0.03966,0.00699 -0.00016,0.42074 -0.08894,0.92409c-0.08878,0.50337 -0.1929,0.90576 -0.23256,0.89876c-0.03966,-0.00699 0.00017,-0.42073 0.08895,-0.92409z" fill="#fe8400"/><path d="M199.689,195.54273c-2.81599,-0.49667 -4.54702,-4.02773 -3.86638,-7.88689c0.68065,-3.85914 3.51522,-6.58498 6.33122,-6.08831c2.81599,0.49667 4.54703,4.02774 3.86638,7.88689c-0.68065,3.85915 -3.51523,6.58498 -6.33122,6.08831z" fill="#fe8400"/><path d="M193.73718,191.27828c-3.41091,-0.60159 -5.67821,-3.9117 -5.06414,-7.39332c0.61407,-3.48162 3.87696,-5.81636 7.28787,-5.21476c3.41091,0.60159 5.67822,3.91169 5.06415,7.39332c-0.61407,3.48163 -3.87696,5.81635 -7.28788,5.21476z" fill="#fe8400"/><path d="M184.99509,185.64117c-2.89531,-0.51065 -4.8406,-3.20295 -4.34491,-6.01342c0.49569,-2.81046 3.24464,-4.67483 6.13996,-4.16417c2.89531,0.51066 4.84059,3.20295 4.3449,6.01342c-0.49569,2.81046 -3.24464,4.67483 -6.13995,4.16418z" fill="#fe8400"/><path d="M170.48106,188.97395c-3.49024,-0.61559 -5.83983,-3.83502 -5.24796,-7.19079c0.59187,-3.35579 3.90108,-5.57713 7.3913,-4.96156c3.49024,0.61559 5.83982,3.83501 5.24796,7.19078c-0.59187,3.35579 -3.90108,5.57715 -7.3913,4.96157z" fill="#fe8400"/><path d="M176.19763,240.41165c-4.30932,-0.00346 -7.7994,-4.11531 -7.79534,-9.18407c0.00406,-5.06876 3.50075,-9.17502 7.81006,-9.17157c4.30932,0.00346 7.79942,4.11531 7.79535,9.18408c-0.00406,5.06876 -3.50076,9.17502 -7.81008,9.17156z" fill="#fef24a"/><path d="M165.70256,230.06858c-4.56371,2.7143 -9.86342,1.90498 -11.83728,-1.80766c-1.97385,-3.71264 0.12564,-8.9227 4.68934,-11.63698c4.5637,-2.71428 9.86341,-1.90498 11.83727,1.80766c1.97385,3.71264 -0.12565,8.9227 -4.68934,11.63698z" fill="#fef24a"/><path d="M162.93603,221.33348c-3.87267,2.18669 -8.47264,1.06564 -10.27434,-2.50394c-1.80168,-3.56959 -0.12284,-8.23597 3.74983,-10.42266c3.87267,-2.18669 8.47265,-1.06563 10.27436,2.50395c1.80168,3.56959 0.12282,8.23596 -3.74984,10.42266z" fill="#fef24a"/><path d="M156.54171,212.84367c-4.30932,-0.00346 -7.80041,-2.86667 -7.79758,-6.39515c0.00284,-3.52849 3.49851,-6.38608 7.80782,-6.38263c4.30932,0.00346 7.80042,2.86666 7.79758,6.39515c-0.00284,3.52849 -3.49851,6.38609 -7.80783,6.38264z" fill="#fef24a"/><path d="M162.99645,201.12829c-3.25612,2.28318 -7.32082,1.86052 -9.07876,-0.94401c-1.75794,-2.80453 -0.54342,-6.92892 2.7127,-9.2121c3.25612,-2.28317 7.32081,-1.86052 9.07874,0.94401c1.75794,2.80452 0.54344,6.92892 -2.71268,9.21209z" fill="#fef24a"/><path d="M200.70857,234.46639c-4.92282,1.33544 -9.60758,-0.44463 -10.46371,-3.97591c-0.85613,-3.53127 2.44058,-7.47653 7.3634,-8.81197c4.92282,-1.33544 9.60758,0.44464 10.46371,3.97591c0.85613,3.53127 -2.44058,7.47653 -7.3634,8.81197z" fill="#fef24a"/><path d="M202.78549,229.70308c-3.98713,-0.00319 -7.21689,-3.04443 -7.21388,-6.79275c0.00301,-3.74833 3.23765,-6.78436 7.22477,-6.78116c3.98713,0.00319 7.21688,3.04442 7.21388,6.79274c-0.00301,3.74833 -3.23763,6.78437 -7.22476,6.78118z" fill="#fef24a"/><path d="M209.61111,222.81279c-3.7352,1.21069 -7.7674,-1.27432 -9.00618,-5.55044c-1.23878,-4.27612 0.78496,-8.72406 4.52016,-9.93476c3.7352,-1.21069 7.7674,1.27434 9.00618,5.55046c1.23878,4.27612 -0.78496,8.72405 -4.52016,9.93474z" fill="#fef24a"/><path d="M207.14179,211.18751c-4.06768,-0.00326 -7.36326,-2.38846 -7.36091,-5.32749c0.00235,-2.93903 3.30176,-5.31894 7.36944,-5.31568c4.06768,0.00326 7.36326,2.38846 7.36091,5.32748c-0.00235,2.93903 -3.30177,5.31895 -7.36945,5.31569z" fill="#fef24a"/><path d="M208.93191,204.29277c-4.67182,2.13554 -9.5206,1.26866 -10.83006,-1.93622c-1.30946,-3.20486 1.41626,-7.53411 6.08807,-9.66963c4.67182,-2.13554 9.52061,-1.26866 10.83007,1.93622c1.30946,3.20486 -1.41627,7.53411 -6.08808,9.66964z" fill="#fef24a"/><path d="M203.30461,194.34878c-2.98028,-0.0024 -5.39461,-2.07611 -5.39255,-4.63179c0.00206,-2.55569 2.4197,-4.62553 5.39998,-4.62314c2.98028,0.00239 5.39461,2.07611 5.39255,4.63179c-0.00206,2.55569 -2.4197,4.62553 -5.39998,4.62314z" fill="#fef24a"/><path d="M195.78419,199.64558c-3.30247,-0.00265 -5.97732,-2.9053 -5.97445,-6.48326c0.00287,-3.57796 2.68237,-6.47631 5.98484,-6.47367c3.30247,0.00265 5.97732,2.9053 5.97444,6.48325c-0.00287,3.57796 -2.68238,6.47632 -5.98483,6.47367z" fill="#fef24a"/><path d="M197.11038,191.57482c-2.09424,-0.00168 -3.79034,-2.0403 -3.78833,-4.55339c0.00202,-2.51307 1.70138,-4.54899 3.79562,-4.54731c2.09424,0.00168 3.79033,2.0403 3.78832,4.5534c-0.00202,2.51307 -1.70138,4.54898 -3.79562,4.5473z" fill="#fef24a"/><path d="M199.29188,199.28903c0.00041,-0.51114 0.03339,-0.92547 0.07366,-0.92543c0.04028,0.00003 0.07259,0.41442 0.07218,0.92554c-0.00041,0.51114 -0.03339,0.92547 -0.07367,0.92544c-0.04028,-0.00003 -0.07258,-0.41442 -0.07217,-0.92555z" fill="#fef24a"/><path d="M197.30856,192.67557c-2.85945,-0.00229 -5.17495,-3.18088 -5.1718,-7.0996c0.00314,-3.9187 2.32373,-7.09359 5.18319,-7.0913c2.85945,0.00229 5.17494,3.18089 5.1718,7.0996c-0.00314,3.9187 -2.32373,7.09359 -5.18318,7.0913z" fill="#fef24a"/><path d="M190.70905,189.50443c-3.46356,-0.00278 -6.26903,-2.871 -6.2662,-6.40636c0.00284,-3.53536 2.81291,-6.39909 6.27646,-6.39631c3.46356,0.00278 6.26904,2.87101 6.2662,6.40637c-0.00284,3.53536 -2.81291,6.39908 -6.27648,6.39631z" fill="#fef24a"/><path d="M181.12397,185.46374c-2.93999,-0.00236 -5.32149,-2.31776 -5.31921,-5.1716c0.00229,-2.85383 2.38749,-5.16543 5.32749,-5.16307c2.93999,0.00236 5.32148,2.31777 5.3192,5.17162c-0.00229,2.85383 -2.38748,5.16542 -5.32748,5.16306z" fill="#fef24a"/><path d="M167.40476,191.25584c-3.54411,-0.00284 -6.41495,-2.76753 -6.41222,-6.1751c0.00274,-3.40758 2.87802,-6.16766 6.42211,-6.16481c3.54411,0.00284 6.41495,2.76752 6.41222,6.17509c-0.00274,3.40758 -2.87803,6.16766 -6.42213,6.16481z" fill="#fef24a"/><path d="M206.48431,225.83119c-1.26226,2.78531 -4.94137,3.83963 -8.21755,2.35493c-3.27617,-1.4847 -4.90878,-4.94623 -3.64652,-7.73153c1.26226,-2.78531 4.94137,-3.83964 8.21756,-2.35494c3.27617,1.4847 4.90878,4.94624 3.64652,7.73154z" fill="#fefefe"/><path d="M192.53698,232.40037c0.38786,3.45285 -1.52363,6.39449 -4.26941,6.57034c-2.74578,0.17585 -5.28609,-2.48069 -5.67393,-5.93355c-0.38785,-3.45285 1.52362,-6.39448 4.26941,-6.57032c2.74578,-0.17585 5.28609,2.48068 5.67394,5.93354z" fill="#fefefe"/><path d="M183.27553,231.27293c0.24378,2.72198 -1.54859,5.01368 -4.0034,5.11864c-2.4548,0.10496 -4.64245,-2.01655 -4.88623,-4.73854c-0.24378,-2.72198 1.54861,-5.01369 4.00341,-5.11865c2.4548,-0.10496 4.64244,2.01656 4.88622,4.73855z" fill="#fefefe"/><path d="M174.11024,232.76421c-1.29477,2.85703 -4.24079,4.31369 -6.58015,3.25353c-2.33935,-1.06016 -3.18616,-4.23567 -1.89139,-7.09269c1.29477,-2.85703 4.24079,-4.3137 6.58015,-3.25354c2.33935,1.06016 3.18617,4.23567 1.8914,7.0927z" fill="#fefefe"/><path d="M165.89059,223.01647c0.51626,2.73103 -0.92342,5.19775 -3.21562,5.50959c-2.29219,0.31184 -4.56888,-1.6493 -5.08515,-4.38034c-0.51626,-2.73103 0.92343,-5.19774 3.21562,-5.50958c2.29219,-0.31184 4.56888,1.6493 5.08515,4.38032z" fill="#fefefe"/><path d="M211.45407,201.74347c-0.54292,3.36864 -2.91919,5.73343 -5.30754,5.28191c-2.38835,-0.45152 -3.88437,-3.54836 -3.34144,-6.917c0.54292,-3.36864 2.9192,-5.73343 5.30755,-5.28191c2.38835,0.45152 3.88436,3.54836 3.34144,6.917z" fill="#fefefe"/><path d="M208.46813,197.54896c-1.20872,2.66715 -4.22123,3.90811 -6.72862,2.7718c-2.50741,-1.13631 -3.56021,-4.21962 -2.3515,-6.88677c1.20872,-2.66715 4.22122,-3.90813 6.72862,-2.77182c2.50741,1.13631 3.56021,4.21963 2.35151,6.88678z" fill="#fefefe"/><path d="M203.85254,188.83347c-0.28341,2.53698 -2.83563,4.25986 -5.70055,3.84819c-2.86492,-0.41167 -4.95767,-2.80203 -4.67426,-5.339c0.28341,-2.53697 2.83564,-4.25985 5.70057,-3.84818c2.86492,0.41167 4.95765,2.80202 4.67425,5.339z" fill="#fefefe"/><path d="M193.84913,186.15741c-1.26855,2.79919 -3.93649,4.32536 -5.959,3.40879c-2.02252,-0.91657 -2.63373,-3.92879 -1.36517,-6.72798c1.26855,-2.79919 3.93648,-4.32537 5.959,-3.40879c2.02252,0.91657 2.63374,3.92879 1.36517,6.72799z" fill="#fefefe"/><path d="M187.01578,182.1313c0.0126,3.10831 -1.67433,5.56559 -3.76785,5.48848c-2.09352,-0.07709 -3.80087,-2.65938 -3.81346,-5.76767c-0.0126,-3.10831 1.67433,-5.56558 3.76785,-5.48848c2.09352,0.07709 3.80086,2.65938 3.81346,5.76767z" fill="#fefefe"/><path d="M177.07759,182.78447c-0.9288,2.04949 -3.10648,3.06527 -4.86399,2.2688c-1.75752,-0.79648 -2.42931,-3.10359 -1.50052,-5.15309c0.9288,-2.0495 3.10648,-3.06528 4.86399,-2.26881c1.75752,0.79648 2.42931,3.10359 1.50051,5.1531z" fill="#fefefe"/><path d="M178.15009,191.52246c-0.97331,2.14771 -3.64864,3.03394 -5.97552,1.97943c-2.32687,-1.05451 -3.42415,-3.65041 -2.45083,-5.79812c0.97331,-2.14771 3.64863,-3.03394 5.9755,-1.97943c2.32687,1.05451 3.42415,3.65041 2.45084,5.79813z" fill="#fefefe"/><path d="M173.03037,187.75339c-0.86445,1.9075 -3.42085,2.61292 -5.70984,1.57558c-2.28899,-1.03734 -3.44383,-3.42463 -2.57937,-5.33213c0.86445,-1.9075 3.42083,-2.61292 5.70985,-1.57557c2.289,1.03734 3.44383,3.42462 2.57937,5.33212z" fill="#fefefe"/><path d="M180.95816,188.94428c-0.46556,-0.21099 -0.82949,-0.41175 -0.81287,-0.44843c0.01662,-0.03668 0.40752,0.10461 0.87307,0.31559c0.46556,0.21099 0.82948,0.41177 0.81287,0.44844c-0.01662,0.03668 -0.40751,-0.10461 -0.87307,-0.31561z" fill="#fefefe"/><path d="M172.48925,187.28962c-0.8834,1.94931 -3.76514,2.54812 -6.43655,1.33748c-2.67141,-1.21064 -4.1209,-3.77229 -3.2375,-5.72161c0.8834,-1.94932 3.76514,-2.54813 6.43657,-1.33748c2.67141,1.21064 4.1209,3.7723 3.2375,5.72161z" fill="#fefefe"/><path d="M166.5551,191.84871c-0.95123,2.09901 -3.45921,3.01347 -5.60173,2.04252c-2.14252,-0.97095 -3.10825,-3.45964 -2.15702,-5.55865c0.95123,-2.09901 3.45923,-3.01348 5.60175,-2.04252c2.14252,0.97095 3.10823,3.45966 2.157,5.55866z" fill="#fefefe"/><path d="M160.18036,199.48677c-1.03443,2.28259 -3.6692,3.31901 -5.8849,2.31489c-2.2157,-1.00412 -3.17332,-3.66853 -2.13887,-5.95113c1.03443,-2.28259 3.6692,-3.31901 5.88491,-2.31489c2.2157,1.00412 3.17332,3.66853 2.13888,5.95113z" fill="#fefefe"/><path d="M159.66123,214.30866c-1.24466,2.74648 -4.39433,4.00279 -7.03499,2.80609c-2.64067,-1.19671 -3.77235,-4.39329 -2.5277,-7.13974c1.24466,-2.74648 4.39433,-4.00279 7.03499,-2.80609c2.64067,1.19671 3.77236,4.39329 2.5277,7.13974z" fill="#fefefe"/></g></g></g></svg>