<svg version="1.1" xmlns="http://www.w3.org/2000/svg" xmlns:xlink="http://www.w3.org/1999/xlink" width="198.01064" height="162.51529" viewBox="0,0,198.01064,162.51529"><defs><radialGradient cx="212.65724" cy="179.6387" r="5.13591" gradientUnits="userSpaceOnUse" id="color-1"><stop offset="0" stop-color="#b34900"/><stop offset="1" stop-color="#a03900"/></radialGradient><linearGradient x1="234.45912" y1="147.48043" x2="234.58334" y2="153.2288" gradientUnits="userSpaceOnUse" id="color-2"><stop offset="0" stop-color="#c74600"/><stop offset="1" stop-color="#e25e00"/></linearGradient><linearGradient x1="150.25722" y1="165.75631" x2="184.34165" y2="165.01982" gradientUnits="userSpaceOnUse" id="color-3"><stop offset="0" stop-color="#4c4540"/><stop offset="1" stop-color="#3f3a35"/></linearGradient><linearGradient x1="152.18205" y1="196.387" x2="186.26647" y2="195.6505" gradientUnits="userSpaceOnUse" id="color-4"><stop offset="0" stop-color="#4c4540"/><stop offset="1" stop-color="#3f3a35"/></linearGradient><linearGradient x1="142.84351" y1="181.74572" x2="188.83136" y2="180.75201" gradientUnits="userSpaceOnUse" id="color-5"><stop offset="0" stop-color="#4c4540"/><stop offset="1" stop-color="#3f3a35"/></linearGradient><radialGradient cx="309.47078" cy="178.58579" r="17.98095" gradientUnits="userSpaceOnUse" id="color-6"><stop offset="0" stop-color="#ffe0a9"/><stop offset="1" stop-color="#ffe0a9" stop-opacity="0"/></radialGradient><radialGradient cx="309.24696" cy="177.58023" r="13.19949" gradientUnits="userSpaceOnUse" id="color-7"><stop offset="0" stop-color="#fffffd"/><stop offset="1" stop-color="#fffffd" stop-opacity="0"/></radialGradient><radialGradient cx="304.35378" cy="178.69636" r="16.76875" gradientUnits="userSpaceOnUse" id="color-8"><stop offset="0" stop-color="#ff9afa"/><stop offset="1" stop-color="#ff9afa" stop-opacity="0"/></radialGradient><radialGradient cx="304.35378" cy="178.69636" r="16.76875" gradientUnits="userSpaceOnUse" id="color-9"><stop offset="0" stop-color="#ff9afa"/><stop offset="1" stop-color="#ff9afa" stop-opacity="0"/></radialGradient><radialGradient cx="305.26438" cy="177.19479" r="12.72807" gradientUnits="userSpaceOnUse" id="color-10"><stop offset="0" stop-color="#fffffd"/><stop offset="1" stop-color="#fffffd" stop-opacity="0"/></radialGradient><radialGradient cx="308.0496" cy="178.27973" r="13.26684" gradientUnits="userSpaceOnUse" id="color-11"><stop offset="0" stop-color="#fffffd"/><stop offset="1" stop-color="#fffffd" stop-opacity="0"/></radialGradient><radialGradient cx="308.0496" cy="178.27973" r="13.26684" gradientUnits="userSpaceOnUse" id="color-12"><stop offset="0" stop-color="#fffffd"/><stop offset="1" stop-color="#fffffd" stop-opacity="0"/></radialGradient><radialGradient cx="308.0496" cy="178.27973" r="13.26684" gradientUnits="userSpaceOnUse" id="color-13"><stop offset="0" stop-color="#fffffd"/><stop offset="1" stop-color="#fffffd" stop-opacity="0"/></radialGradient><radialGradient cx="308.0496" cy="178.27973" r="13.26684" gradientUnits="userSpaceOnUse" id="color-14"><stop offset="0" stop-color="#fffffd"/><stop offset="1" stop-color="#fffffd" stop-opacity="0"/></radialGradient><radialGradient cx="224.39659" cy="154.51819" r="13.36486" gradientUnits="userSpaceOnUse" id="color-15"><stop offset="0" stop-color="#fb0adc" stop-opacity="0"/><stop offset="1" stop-color="#fb0adc"/></radialGradient></defs><g transform="translate(-141.43664,-97.37593)"><g data-paper-data="{&quot;isPaintingLayer&quot;:true}" fill-rule="nonzero" stroke-linejoin="miter" stroke-miterlimit="10" stroke-dasharray="" stroke-dashoffset="0" style="mix-blend-mode: normal"><path d="M307.89567,135.21843l-22.07595,5.48327l-0.94097,-0.74988l13.73198,-6.45827l-7.42447,-13.44631l11.89714,-5.7768l14.34088,15.60749z" data-paper-data="{&quot;index&quot;:null}" fill="none" stroke="#330d42" stroke-width="1.5" stroke-linecap="round"/><path d="M273.64776,140.81494l-12.11829,9.05758l9.20194,-12.51284z" fill="none" stroke="#330d42" stroke-width="1.5" stroke-linecap="round"/><path d="M272.78177,219.72452l-9.58399,-11.43033l12.62472,8.11697z" fill="none" stroke="#330d42" stroke-width="1.5" stroke-linecap="round"/><path d="M268.89267,190.03842l17.42508,17.35024l-1.00898,3.40478l-20.92711,-16.59799z" fill="none" stroke="#330d42" stroke-width="1.5" stroke-linecap="round"/><path d="M262.09808,163.66275l19.96687,-15.31651l-3.74414,8.33535l-11.0041,10.522z" fill="none" stroke="#330d42" stroke-width="1.5" stroke-linecap="round"/><path d="M253.26187,155.52676l25.01617,-19.548l6.93603,10.13988l-23.04409,18.21918z" data-paper-data="{&quot;index&quot;:null}" fill="none" stroke="#330d42" stroke-width="1.5" stroke-linecap="round"/><path d="M263.29668,194.08358l22.54433,16.2924l-6.14659,9.87576l-24.46421,-17.46878z" fill="none" stroke="#330d42" stroke-width="1.5" stroke-linecap="round"/><path d="M281.75038,215.20053l5.5104,-1.74289l14.48323,6.45299l-11.45243,21.08656l-19.96067,-9.44697l-0.20248,-3.10795z" fill="none" stroke="#330d42" stroke-width="1.5" stroke-linecap="round"/><path d="M288.50228,239.60114l-0.90586,1.91404l-17.62042,-7.60307l-0.05964,-2.76052z" fill="none" stroke="#330d42" stroke-width="1.5" stroke-linecap="round"/><path d="M270.11886,234.26118l-1.1025,-0.92341l-1.96372,-3.20522l-1.42823,-7.1704l4.90981,5.47135z" fill="none" stroke="#330d42" stroke-width="1.5" stroke-linecap="round"/><path d="M281.91347,215.27852l-2.57058,-5.03277l7.51587,-2.86878l5.86276,2.03843l0.09644,4.46344l-4.8773,-0.26958z" fill="none" stroke="#330d42" stroke-width="1.5" stroke-linecap="round"/><path d="M265.54226,222.85797l14.05946,-13.15908l2.41332,5.22529l-11.48083,13.50932z" fill="none" stroke="#330d42" stroke-width="1.5" stroke-linecap="round"/><path d="M321.15865,222.87408l-13.9747,17.0815l-12.43393,-5.55004l6.99402,-14.49492l-14.34213,-6.18541l0.92926,-0.83199l22.83694,4.78398z" fill="none" stroke="#330d42" stroke-width="1.5" stroke-linecap="round"/><path d="M313.30309,218.84894l0.5409,-2.58274l7.24746,3.49701l0.20272,3.27098z" fill="none" stroke="#330d42" stroke-width="1.5" stroke-linecap="round"/><path d="M267.41864,126.72237l0.06827,-2.95389l19.0766,-9.7829l12.0472,19.50798l-13.85848,6.71776l-5.44726,-1.42269z" data-paper-data="{&quot;index&quot;:null}" fill="none" stroke="#330d42" stroke-width="1.5" stroke-linecap="round"/><path d="M267.2643,124.26238l-0.22342,-2.79487l16.87064,-7.93812l0.96316,1.7763z" data-paper-data="{&quot;index&quot;:null}" fill="none" stroke="#330d42" stroke-width="1.5" stroke-linecap="round"/><path d="M267.81478,126.7138l-4.32416,5.41361l0.85761,-6.87909l1.78214,-3.11929l1.03696,-0.92098z" data-paper-data="{&quot;index&quot;:null}" fill="none" stroke="#330d42" stroke-width="1.5" stroke-linecap="round"/><path d="M285.40273,139.7447l4.75241,-0.16359l0.09148,4.23407l-5.6337,2.17557l-7.45015,-2.40631l2.52959,-5.21178z" data-paper-data="{&quot;index&quot;:null}" fill="none" stroke="#330d42" stroke-width="1.5" stroke-linecap="round"/><path d="M267.81478,126.7138l12.08578,12.31869l-2.4626,5.05946l-14.26047,-11.88657z" data-paper-data="{&quot;index&quot;:null}" fill="none" stroke="#330d42" stroke-width="1.5" stroke-linecap="round"/><path d="M317.03262,129.31574l0.0269,2.54425l-6.49516,4.58443l-0.31678,-2.43209z" data-paper-data="{&quot;index&quot;:null}" fill="none" stroke="#330d42" stroke-width="1.5" stroke-linecap="round"/><path d="M258.97261,193.95935l-0.64806,-29.99146l11.05567,-0.23889l0.64806,29.99146z" fill="none" stroke="#330d42" stroke-width="1.5" stroke-linecap="butt"/><path d="M255.06621,193.31419l8.45397,0.46686c0,0 2.17882,3.0157 1.84584,5.26461c-0.33298,2.24892 -2.92686,4.82646 -2.92686,4.82646l-15.55573,1.52693l-2.08209,-51.2679l16.01661,-0.23784c0,0 2.69479,2.73876 3.46189,4.90493c0.76711,2.16617 -1.82376,5.77693 -1.82376,5.77693l-7.35557,0.26719z" fill="none" stroke="#330d42" stroke-width="1.5" stroke-linecap="round"/><path d="M254.61839,193.93576l-0.64296,-29.75624l8.35057,-0.18044l0.64297,29.75624z" fill="none" stroke="#330d42" stroke-width="1.5" stroke-linecap="butt"/><path d="M256.01705,193.3172l-0.63026,-29.16818l0.8233,-0.01778l0.63026,29.16818z" fill="none" stroke="#330d42" stroke-width="1.5" stroke-linecap="butt"/><path d="M258.3566,192.6783l-0.61756,-28.58012l0.70569,-0.01525l0.61756,28.58012z" fill="none" stroke="#330d42" stroke-width="1.5" stroke-linecap="butt"/><path d="M261.42981,193.31791l-0.62773,-29.05057l0.70569,-0.01524l0.62772,29.05056z" fill="none" stroke="#330d42" stroke-width="1.5" stroke-linecap="butt"/><path d="M260.01336,193.11317l-0.62264,-28.81533l0.70569,-0.01524l0.62264,28.81533z" fill="none" stroke="#330d42" stroke-width="1.5" stroke-linecap="butt"/><path d="M233.25708,148.81012l0.71678,4.9913l-8.57996,0.59135l-1.34362,-12.082z" data-paper-data="{&quot;index&quot;:null}" fill="none" stroke="#330d42" stroke-width="1.5" stroke-linecap="round"/><path d="M223.97712,142.98895l1.18903,10.25854l-9.73695,0.27805z" data-paper-data="{&quot;index&quot;:null}" fill="none" stroke="#330d42" stroke-width="1.5" stroke-linecap="round"/><path d="M228.0132,147.23195l1.44064,0.9161l4.46197,-0.16407l-0.91464,1.50828l-6.03057,-0.41097l0.08703,-2.23464z" data-paper-data="{&quot;index&quot;:null}" fill="none" stroke="#330d42" stroke-width="1.5" stroke-linecap="round"/><path d="M228.49829,147.76274l-1.45858,1.3847l-3.45259,-6.35305z" data-paper-data="{&quot;index&quot;:null}" fill="none" stroke="#330d42" stroke-width="1.5" stroke-linecap="round"/><path d="M229.051,148.29207l-7.99972,-6.99904l-0.74789,-3.29915l13.60951,9.85483z" data-paper-data="{&quot;index&quot;:null}" fill="none" stroke="#330d42" stroke-width="1.5" stroke-linecap="round"/><path d="M227.93434,144.64696c0.9996,-2.85114 2.64747,-1.63776 3.77749,-0.94358c1.13003,0.69419 1.67583,1.68107 0.31468,3.4575c-0.43172,0.56343 -1.5888,0.53234 -2.71883,-0.16185c-1.13003,-0.69419 -1.60822,-1.6822 -1.37338,-2.35204z" data-paper-data="{&quot;index&quot;:null}" fill="none" stroke="#330d42" stroke-width="1.5" stroke-linecap="butt"/><path d="M228.78573,143.34303c0.37153,-0.60482 1.58883,-0.53234 2.71886,0.16185c1.13003,0.69419 1.74491,1.74726 1.37338,2.35204c-0.37153,0.60482 -1.58883,0.53234 -2.71886,-0.16185c-1.13003,-0.69419 -1.74491,-1.74726 -1.37338,-2.35205z" data-paper-data="{&quot;index&quot;:null}" fill="none" stroke="#330d42" stroke-width="1.5" stroke-linecap="butt"/><path d="M232.41916,144.47567l-3.03738,0.33747" data-paper-data="{&quot;index&quot;:null}" fill="none" stroke="#330d42" stroke-width="1.5" stroke-linecap="round"/><path d="M225.84996,219.33596l0.82047,-12.12877l8.5975,0.22018l-0.50051,5.01762z" fill="none" stroke="#330d42" stroke-width="1.5" stroke-linecap="round"/><path d="M216.75252,208.50405l9.73987,-0.14279l-0.74483,10.30033z" fill="none" stroke="#330d42" stroke-width="1.5" stroke-linecap="round"/><path d="M228.65858,214.67443l-0.18348,-2.2288l6.00719,-0.67107l0.97894,1.46735l-4.4649,0.02881l-1.39973,0.97748z" fill="none" stroke="#330d42" stroke-width="1.5" stroke-linecap="round"/><path d="M225.36633,218.87279l3.17494,-6.49624l1.51703,1.32041z" fill="none" stroke="#330d42" stroke-width="1.5" stroke-linecap="round"/><path d="M235.46415,213.37717l-11.64198,9.1826l-0.43792,-1.47905l7.20338,-7.93648z" fill="none" stroke="#330d42" stroke-width="1.5" stroke-linecap="round"/><path d="M223.51142,142.8768l-10.28716,12.79384l-1.17022,-1.63348l8.88154,-13.19997z" data-paper-data="{&quot;index&quot;:null}" fill="none" stroke="#330d42" stroke-width="1.5" stroke-linecap="round"/><path d="M223.28112,221.1048l-9.44343,-12.80401l1.09857,-1.68251l10.83019,12.33754z" fill="none" stroke="#330d42" stroke-width="1.5" stroke-linecap="round"/><path d="M227.7034,120.57258l-10.77867,9.62527l-10.35419,0.22049l2.56639,-4.35957c0,0 4.97009,-4.99245 8.78998,-6.98743c3.8199,-1.99497 7.35688,-2.28485 7.35688,-2.28485z" data-paper-data="{&quot;index&quot;:null}" fill="none" stroke="#330d42" stroke-width="1.5" stroke-linecap="round"/><path d="M227.42385,120.35134l-8.98358,7.56482l-7.28855,-0.82987l1.77625,-3.68092c0,0 3.44591,-3.47486 6.17154,-4.89834c2.7256,-1.42348 6.27503,-1.79484 6.27503,-1.79484z" data-paper-data="{&quot;index&quot;:null}" fill="none" stroke="#330d42" stroke-width="1.5" stroke-linecap="round"/><path d="M227.05914,245.0688c0,0 -3.51925,-0.45746 -7.24013,-2.63148c-3.72085,-2.17401 -8.4484,-7.39677 -8.4484,-7.39677l-2.35656,-4.47644l10.33203,0.71169l10.30964,10.12606z" fill="none" stroke="#330d42" stroke-width="1.5" stroke-linecap="round"/><path d="M227.20161,244.83874c0,0 -3.52777,-0.53945 -6.18277,-2.0907c-2.655,-1.55125 -5.93206,-5.18574 -5.93206,-5.18574l-1.59952,-3.7611l7.47727,-0.36149l8.50031,8.28444z" fill="none" stroke="#330d42" stroke-width="1.5" stroke-linecap="round"/><path d="M200.65606,211.15743l12.61125,13.53935l-2.05215,0.04435l-11.93005,-12.24754l-3.61575,1.10469l-1.72539,-2.10915z" data-paper-data="{&quot;index&quot;:null}" fill="none" stroke="#330d42" stroke-width="1.5" stroke-linecap="round"/><path d="M210.92924,224.46732c0,0 -6.02803,-2.14716 -9.3355,-4.46445c-3.30747,-2.31729 -6.29957,-6.48982 -6.29957,-6.48982l4.17946,-0.93023z" data-paper-data="{&quot;index&quot;:null}" fill="none" stroke="#330d42" stroke-width="1.5" stroke-linecap="round"/><path d="M250.58641,207.01944c0,0 1.66112,26.66324 -26.42272,30.85805c-21.09815,2.39102 -39.00429,-22.63242 -39.00429,-22.63242l11.36434,-0.64627c0,0 16.29004,16.5707 26.75695,14.34791c18.35841,-3.89865 18.59017,-22.03947 18.59017,-22.03947z" data-paper-data="{&quot;index&quot;:null}" fill="none" stroke="#330d42" stroke-width="1.5" stroke-linecap="round"/><path d="M247.42202,207.34722c0,0 2.06221,26.13254 -24.28692,29.17506c-19.20697,2.21782 -35.27508,-21.54205 -35.27508,-21.54205l11.73512,-1.0935c0,0 8.67213,14.23405 22.95118,12.66266c14.78623,-1.6272 16.46036,-19.95357 16.46036,-19.95357z" data-paper-data="{&quot;index&quot;:null}" fill="none" stroke="#330d42" stroke-width="1.5" stroke-linecap="round"/><path d="M247.66579,206.69756c0,0 1.81847,26.78219 -24.53065,29.82471c-19.207,2.21782 -35.27508,-21.54205 -35.27508,-21.54205l10.34597,-0.59685c0,0 10.08746,14.95005 24.3665,13.37866c14.78623,-1.6272 16.91466,-20.52331 16.91466,-20.52331z" data-paper-data="{&quot;index&quot;:null}" fill="none" stroke="#330d42" stroke-width="1.5" stroke-linecap="round"/><path d="M195.10196,148.47083l1.63268,-2.18171l3.66009,0.94747l11.38987,-12.75144l2.05215,-0.04434l-12.01461,14.07147z" fill="none" stroke="#330d42" stroke-width="1.5" stroke-linecap="round"/><path d="M200.57928,147.13929l-4.21572,-0.74883c0,0 2.80907,-4.29789 6.01336,-6.75589c3.20428,-2.458 9.13391,-4.86353 9.13391,-4.86353z" fill="none" stroke="#330d42" stroke-width="1.5" stroke-linecap="round"/><path d="M252.93984,195.34484l0.1503,6.95601l-6.95602,0.1503l-0.1503,-6.95601z" data-paper-data="{&quot;index&quot;:null}" fill="none" stroke="#330d42" stroke-width="1.5" stroke-linecap="butt"/><path d="M251.38771,201.04885l0.1336,6.18311l-5.28141,0.11412l-0.1336,-6.18311z" data-paper-data="{&quot;index&quot;:null}" fill="none" stroke="#330d42" stroke-width="1.5" stroke-linecap="butt"/><path d="M240.21324,151.78896c0,0 -1.01514,-18.11387 -19.52482,-21.21588c-10.55317,-1.7686 -26.11221,15.49031 -26.11221,15.49031l-11.38166,-0.15478c0,0 16.80853,-25.77355 37.99027,-24.29611c28.23884,2.97779 27.73099,29.68791 27.73099,29.68791z" fill="none" stroke="#330d42" stroke-width="1.5" stroke-linecap="round"/><path d="M237.36521,152.22379c0,0 -2.4642,-18.23692 -17.30691,-19.22393c-14.33359,-0.95313 -22.38278,13.64223 -22.38278,13.64223l-11.7714,-0.58557c0,0 15.02679,-24.43177 34.31164,-23.04568c26.45594,1.90152 25.52449,28.09874 25.52449,28.09874z" fill="none" stroke="#330d42" stroke-width="1.5" stroke-linecap="round"/><path d="M237.81749,151.56075c0,0 -2.94267,-18.78655 -17.78539,-19.77352c-14.33359,-0.95313 -23.76586,14.4187 -23.76586,14.4187l-10.36209,-0.14939c0,0 15.02675,-24.43177 34.31163,-23.04568c26.45594,1.90152 26.31689,28.98377 26.31689,28.98377z" fill="none" stroke="#330d42" stroke-width="1.5" stroke-linecap="round"/><path d="M237.22565,207.66976l-0.25329,-11.72217l9.01704,-0.19485l0.25329,11.72218z" fill="none" stroke="#330d42" stroke-width="1.5" stroke-linecap="butt"/><path d="M235.20157,203.46061l-0.16423,-7.60008l3.73563,-0.08072l0.16423,7.60007z" fill="none" stroke="#330d42" stroke-width="1.5" stroke-linecap="butt"/><path d="M245.54282,163.15702l-0.1503,-6.95601l6.95601,-0.1503l0.15031,6.95601z" data-paper-data="{&quot;index&quot;:null}" fill="none" stroke="#330d42" stroke-width="1.5" stroke-linecap="butt"/><path d="M245.42036,157.48917l-0.13638,-6.31195l5.28141,-0.11412l0.13639,6.31195z" data-paper-data="{&quot;index&quot;:null}" fill="none" stroke="#330d42" stroke-width="1.5" stroke-linecap="butt"/><path d="M245.28397,151.17724l0.25329,11.72218l-9.01704,0.19484l-0.25329,-11.72217z" data-paper-data="{&quot;index&quot;:null}" fill="none" stroke="#330d42" stroke-width="1.5" stroke-linecap="butt"/><path d="M238.16218,155.58402l0.16423,7.60007l-3.73563,0.08073l-0.16423,-7.60008z" data-paper-data="{&quot;index&quot;:null}" fill="none" stroke="#330d42" stroke-width="1.5" stroke-linecap="butt"/><path d="M236.74077,196.74786l-0.74536,-34.49487l10.54061,-0.22777l0.74536,34.49488z" fill="none" stroke="#330d42" stroke-width="1.5" stroke-linecap="butt"/><path d="M211.92846,197.28865l-0.82438,-38.15143l24.90571,-0.53816l0.82438,38.15143z" fill="none" stroke="#330d42" stroke-width="1.5" stroke-linecap="butt"/><path d="M210.10045,196.02163l-0.66917,-30.96889l18.91918,-0.4088c0,0 6.61169,10.25482 6.72536,15.51537c0.10921,5.05415 -6.05618,15.45353 -6.05618,15.45353z" fill="none" stroke="#330d42" stroke-width="1.5" stroke-linecap="butt"/><path d="M227.09813,169.4305l-0.7684,-1.00995l4.38415,-0.09474l0.67513,1.01197z" fill="none" stroke="#330d42" stroke-width="1.5" stroke-linecap="butt"/><path d="M232.12639,190.50623l-0.70334,1.04175l-4.87128,0.10526l0.80697,-1.044z" data-paper-data="{&quot;index&quot;:null}" fill="none" stroke="#330d42" stroke-width="1.5" stroke-linecap="butt"/><path d="M209.14273,193.61592l-0.5946,-27.51755l16.94891,-0.36623c0,0 6.29072,9.10299 6.39173,13.77724c0.09703,4.49092 -5.79712,13.74028 -5.79712,13.74028z" fill="none" stroke="#330d42" stroke-width="1.5" stroke-linecap="butt"/><path d="M214.24387,209.55524l9.2976,10.03607c0,0 -2.55132,0.26089 -3.74705,1.56631c-1.19573,1.30541 -2.21865,3.55879 -2.21865,3.55879l-8.51457,-10.24991c0,0 -0.30828,-1.48141 1.9737,-3.17195c1.44492,-1.07045 3.20899,-1.73929 3.20899,-1.73929z" data-paper-data="{&quot;index&quot;:null}" fill="none" stroke="#330d42" stroke-width="1.5" stroke-linecap="round"/><path d="M222.15958,223.99981c-1.74676,1.48722 -3.76561,1.98479 -4.50922,1.11143c-0.74361,-0.87335 0.06961,-2.78699 1.81636,-4.27421c1.74676,-1.48722 3.76561,-1.98484 4.50922,-1.11145c0.74361,0.87335 -0.06961,2.78701 -1.81636,4.27423z" data-paper-data="{&quot;index&quot;:null}" fill="none" stroke="#330d42" stroke-width="1.5" stroke-linecap="butt"/><path d="M221.87768,224.15455c-1.24894,1.06337 -2.69241,1.41914 -3.22407,0.79468c-0.53166,-0.62446 0.04977,-1.9927 1.29871,-3.05607c1.24894,-1.06337 2.69241,-1.41916 3.22407,-0.79468c0.53166,0.62446 -0.04976,1.99273 -1.29871,3.05607z" data-paper-data="{&quot;index&quot;:null}" fill="none" stroke="#330d42" stroke-width="1.5" stroke-linecap="butt"/><path d="M222.29426,224.68568c-1.24894,1.06337 -2.69241,1.41916 -3.22407,0.79468c-0.53166,-0.62446 0.04976,-1.99273 1.29871,-3.05607c1.24894,-1.06337 2.69241,-1.41914 3.22407,-0.79468c0.53166,0.62446 -0.04978,1.9927 -1.29868,3.05607z" data-paper-data="{&quot;index&quot;:null}" fill="none" stroke="#330d42" stroke-width="1.5" stroke-linecap="butt"/><path d="M219.14079,215.90551c0,0 -2.23995,1.76411 -3.09113,4.51437c-0.85122,2.75027 1.06447,3.30497 1.06447,3.30497l-1.76533,1.75417l-4.73809,-4.39305l7.83484,-6.11068z" data-paper-data="{&quot;index&quot;:null}" fill="none" stroke="#330d42" stroke-width="1.5" stroke-linecap="round"/><path d="M211.85329,221.95655l-5.25779,-5.46628l6.62012,-6.08443l5.3746,5.01507z" data-paper-data="{&quot;index&quot;:null}" fill="none" stroke="#330d42" stroke-width="1.5" stroke-linecap="round"/><path d="M205.34386,148.84766l9.95326,-11.90169c0,0 1.01972,2.0107 2.1594,3.15179c1.13969,1.14109 3.4721,1.27817 3.4721,1.27817l-11.43676,11.56468z" fill="none" stroke="#330d42" stroke-width="1.5" stroke-linecap="round"/><path d="M221.31877,141.23662c-0.64244,0.8242 -2.49953,0.45071 -4.1479,-0.83417c-1.64837,-1.28488 -2.46383,-2.9946 -1.82142,-3.81879c0.64244,-0.8242 2.49953,-0.45074 4.1479,0.83414c1.64837,1.28488 2.46386,2.99463 1.82142,3.81882z" fill="none" stroke="#330d42" stroke-width="1.5" stroke-linecap="butt"/><path d="M220.53699,140.01851c-0.45934,0.58931 -1.78715,0.32226 -2.96573,-0.59644c-1.17859,-0.91868 -1.76164,-2.14116 -1.3023,-2.73044c0.45934,-0.58931 1.78717,-0.32227 2.96575,0.59643c1.17859,0.91868 1.76165,2.14117 1.30231,2.73045z" fill="none" stroke="#330d42" stroke-width="1.5" stroke-linecap="butt"/><path d="M220.89526,139.51869c-0.45934,0.58931 -1.78715,0.32226 -2.96573,-0.59644c-1.17859,-0.91868 -1.76165,-2.14116 -1.30231,-2.73044c0.45934,-0.58931 1.78718,-0.32227 2.96574,0.59644c1.17859,0.91868 1.76164,2.14116 1.3023,2.73044z" fill="none" stroke="#330d42" stroke-width="1.5" stroke-linecap="butt"/><path d="M216.47208,145.7778l-7.37153,-5.25347l4.18292,-4.06184l1.51198,1.65464c0,0 -1.65486,0.19684 -0.77191,2.66654c0.88295,2.46973 3.04476,4.1201 3.04476,4.1201z" fill="none" stroke="#330d42" stroke-width="1.5" stroke-linecap="round"/><path d="M216.58442,145.2833l-4.69448,4.77608l-6.2649,-5.27738l4.526,-5.26451z" fill="none" stroke="#330d42" stroke-width="1.5" stroke-linecap="round"/><path d="M221.54804,181.42993l-0.08252,-3.81897l1.82992,-0.03954l0.08252,3.81897z" fill="none" stroke="#330d42" stroke-width="1.5" stroke-linecap="butt"/><path d="M221.42115,180.26392l-0.01299,-0.60116l1.95663,-0.04228l0.013,0.60115z" fill="none" stroke="#330d42" stroke-width="1.5" stroke-linecap="butt"/><path d="M221.79878,181.9817l-0.01375,-0.63651l1.75037,-0.03782l0.01375,0.63651z" fill="none" stroke="#330d42" stroke-width="1.5" stroke-linecap="butt"/><path d="M217.98403,184.64834l-0.2035,-9.4178l3.70701,-0.0801l0.2035,9.4178z" fill="none" stroke="#330d42" stroke-width="1.5" stroke-linecap="butt"/><path d="M221.71979,181.25986l-0.67751,1.11722l-1.10209,0.02381l-0.235,-1.5987l-1.00189,0.02165" fill="none" stroke="#330d42" stroke-width="1.5" stroke-linecap="round"/><path d="M215.19347,192.22636l0.06853,-3.42007l9.68455,-0.0668l-3.89113,4.49973z" fill="none" stroke="#330d42" stroke-width="1.5" stroke-linecap="round"/><path d="M217.05439,186.06118l5.1378,0.45876l2.33338,2.51352l-9.98159,-0.49652z" fill="none" stroke="#330d42" stroke-width="1.5" stroke-linecap="round"/><path d="M219.18917,192.56735l0.94125,-2.58427" fill="none" stroke="#330d42" stroke-width="1.5" stroke-linecap="round"/><path d="M232.23979,198.724l0.05535,7.77963l-2.56319,1.40858l-20.41079,-0.01001l4.87304,-14.53932l16.294,2.57984z" fill="none" stroke="#330d42" stroke-width="1.5" stroke-linecap="round"/><path d="M230.60512,201.35291l-0.04627,-2.14153l-1.08991,-3.47219l2.92569,-0.28874l2.74652,1.85767l0.28873,2.92569z" fill="none" stroke="#330d42" stroke-width="1.5" stroke-linecap="round"/><path d="M230.70076,200.5615l4.84423,-0.21744l-0.64287,6.77983l-5.84158,1.02837z" fill="none" stroke="#330d42" stroke-width="1.5" stroke-linecap="round"/><path d="M234.02617,197.89605l0.03166,1.46526" fill="none" stroke="#330d42" stroke-width="1.5" stroke-linecap="round"/><path d="M233.16758,205.13161l0.20597,-0.90657" fill="none" stroke="#330d42" stroke-width="1.5" stroke-linecap="round"/><path d="M234.2363,202.40214l-0.1322,-0.89926" fill="none" stroke="#330d42" stroke-width="1.5" stroke-linecap="round"/><path d="M233.46435,203.20819l-2.48698,-0.28456" fill="none" stroke="#330d42" stroke-width="1.5" stroke-linecap="round"/><path d="M230.46737,205.4155l2.03127,0.06886" fill="none" stroke="#330d42" stroke-width="1.5" stroke-linecap="round"/><path d="M227.78243,201.18842l-0.98344,6.67445l-14.77271,-0.01909l2.35302,-5.91465l9.91872,-0.21432z" fill="none" stroke="#330d42" stroke-width="1.5" stroke-linecap="round"/><path d="M220.26231,202.81687l-1.81139,4.88804l-5.07696,-0.11585l2.04898,-4.32936z" fill="none" stroke="#330d42" stroke-width="1.5" stroke-linecap="round"/><path d="M227.46378,202.09741l-1.01024,5.43459l-6.65493,-0.08175l2.6077,-4.56696z" fill="none" stroke="#330d42" stroke-width="1.5" stroke-linecap="round"/><path d="M214.87181,197.11699l0.44474,7.39731l-6.01135,5.25775l0.07865,-9.54522z" fill="none" stroke="#330d42" stroke-width="1.5" stroke-linecap="round"/><path d="M214.62518,165.92776l-3.10986,-5.488l-1.53978,-11.93175l4.24048,-1.51605l0.50934,10.38719l2.99515,6.77245z" fill="none" stroke="#330d42" stroke-width="1.5" stroke-linecap="round"/><path d="M215.88331,171.41509l-3.14367,-7.05412l6.12516,0.01009l5.4063,6.29302z" fill="none" stroke="#330d42" stroke-width="1.5" stroke-linecap="round"/><path d="M213.28365,169.76196l10.55722,0.76897l-0.95663,1.8724l-7.93913,1.73841z" fill="none" stroke="#330d42" stroke-width="1.5" stroke-linecap="round"/><path d="M216.17813,165.28378l3.50313,3.91264" fill="none" stroke="#330d42" stroke-width="1.5" stroke-linecap="round"/><path d="M218.52076,179.62475c0.25153,11.6407 -3.02654,21.15257 -7.32176,21.24537c-4.29523,0.09281 -7.9811,-9.26857 -8.23264,-20.90928c-0.25153,-11.6407 3.02654,-21.15257 7.32177,-21.24537c4.29523,-0.09281 7.9811,9.26858 8.23264,20.90928z" fill="none" stroke="#330d42" stroke-width="1.5" stroke-linecap="butt"/><path d="M215.2472,179.46996c0.18428,8.52822 -2.44182,15.50167 -5.86554,15.57565c-3.42375,0.07398 -6.34862,-6.77953 -6.53289,-15.30775c-0.18428,-8.52822 2.44184,-15.50165 5.86557,-15.57563c3.42375,-0.07398 6.34859,6.77951 6.53286,15.30773z" fill="none" stroke="#330d42" stroke-width="1.5" stroke-linecap="butt"/><path d="M211.73712,189.24365l-0.41403,-19.16124l2.25428,-0.04871l0.41403,19.16124z" fill="none" stroke="#330d42" stroke-width="1.5" stroke-linecap="butt"/><path d="M233.4771,162.04843l-3.38139,0.07306l-11.29564,-0.88356l-2.90239,-9.0713l12.07315,-4.88428l5.62591,-0.57262z" fill="none" stroke="#330d42" stroke-width="1.5" stroke-linecap="round"/><path d="M228.01329,159.68566l-7.79668,-0.73368l-5.41266,0.00421l-0.6537,-4.15821l-0.04314,-7.21605l14.53267,-0.65232l0.25816,11.94757z" fill="none" stroke="#330d42" stroke-width="1.5" stroke-linecap="round"/><path d="M227.69953,160.82011l6.53977,-0.02857l-0.14261,3.83712l-1.46771,-0.08106l-4.67724,-2.49254z" fill="none" stroke="#330d42" stroke-width="1.5" stroke-linecap="round"/><path d="M232.19096,159.93371l-0.19306,-3.7171l1.23986,-0.02678l-0.01949,-0.90172l-0.78901,0.01704l-0.0828,-3.83223l0.67871,0.09807l0.2084,-0.79384l-0.78654,0.12975l-0.0828,-3.83223l4.62367,0.01285l-0.04451,3.15838l-1.22525,0.70307l1.46771,0.08106l0.19794,3.94251l-1.89909,0.83041l2.02396,-0.26928l0.21501,4.73152z" fill="none" stroke="#330d42" stroke-width="1.5" stroke-linecap="round"/><path d="M228.5441,147.72099l0.20946,9.69334l-0.87491,1.25935l-4.53532,-1.14244l-0.65785,-9.57085z" fill="none" stroke="#330d42" stroke-width="1.5" stroke-linecap="round"/><path d="M221.57053,148.5483l-0.15548,8.46079l-0.99493,0.92364l-4.5134,-0.12802l-0.71525,-1.78878l-0.29536,-8.45104l5.42485,0.55938z" fill="none" stroke="#330d42" stroke-width="1.5" stroke-linecap="round"/><path d="M234.18885,153.23732l-0.12421,-5.74837l0.78898,-0.01704l0.12421,5.74837z" fill="none" stroke="#330d42" stroke-width="1.5" stroke-linecap="butt"/><path d="M221.71202,194.81675l4.143,-3.09661l2.14725,1.95832l-2.34393,2.85727z" fill="none" stroke="#330d42" stroke-width="1.5" stroke-linecap="round"/><path d="M225.31014,194.33808l3.52025,-4.08551l2.45001,2.052l-3.62474,3.8873z" fill="none" stroke="#330d42" stroke-width="1.5" stroke-linecap="round"/><path d="M225.81976,194.72802l-1.52231,-0.86925l2.52265,-3.86349l2.2085,0.15274z" fill="none" stroke="#330d42" stroke-width="1.5" stroke-linecap="round"/><path d="M206.09772,234.0907l2.2217,-9.47364" fill="none" stroke="#330d42" stroke-width="1.5" stroke-linecap="round"/><path d="M190.32101,220.89973l3.43782,-5.02041" fill="none" stroke="#330d42" stroke-width="1.5" stroke-linecap="round"/><path d="M220.76022,238.90668l-0.23179,-10.72718" fill="none" stroke="#330d42" stroke-width="1.5" stroke-linecap="round"/><path d="M229.43492,225.74727l7.07402,7.77965" fill="none" stroke="#330d42" stroke-width="1.5" stroke-linecap="round"/><path d="M248.21552,218.15558l-10.60108,-2.57065" fill="none" stroke="#330d42" stroke-width="1.5" stroke-linecap="round"/><path d="M203.64566,129.24827l-0.89395,-2.5004l3.47036,9.44398" fill="none" stroke="#330d42" stroke-width="1.5" stroke-linecap="round"/><path d="M218.18173,123.89471l-0.05037,-2.33198l0.41833,10.72313" fill="none" stroke="#330d42" stroke-width="1.5" stroke-linecap="round"/><path d="M189.45536,141.96693l-1.35628,-2.30379l4.25749,7.00057" fill="none" stroke="#330d42" stroke-width="1.5" stroke-linecap="round"/><path d="M232.7086,126.75383l1.08508,-1.60995l-6.13742,9.6516" fill="none" stroke="#330d42" stroke-width="1.5" stroke-linecap="round"/><path d="M235.50276,143.77162l11.40894,-3.23288l-1.8515,0.69327" fill="none" stroke="#330d42" stroke-width="1.5" stroke-linecap="round"/><path d="M200.42256,149.38867c8.57947,-5.16114 10.60787,6.62693 10.60787,6.62693c0,0 0.73157,17.60936 0.8238,26.13887c0.08835,8.17057 -0.28152,24.00761 -0.28152,24.00761c0,0 -1.20384,5.68916 -5.98352,6.98544c-3.17661,0.86153 -13.96532,-7.06597 -18.22394,-16.74661c-4.25862,-9.68062 2.68338,-9.41439 2.55813,-15.21099c-0.12525,-5.7966 -5.9158,-12.28275 -3.81613,-17.96003c2.09967,-5.67728 5.73588,-8.68007 14.31535,-13.84121z" fill="none" stroke="#330d42" stroke-width="1.5" stroke-linecap="round"/><path d="M183.72102,152.99719c0,0 17.74433,-1.96275 21.06871,-1.89864c1.46733,0.0283 2.81737,0.24205 3.4966,3.17209c0.66216,2.85651 2.9817,14.44034 3.25066,25.18927c0.26896,10.74893 -1.30879,23.97224 -1.77161,26.56077c-0.46282,2.58853 -1.8001,3.5678 -3.70922,3.68864c-2.94246,0.18626 -19.01373,-3.19765 -19.01373,-3.19765l-3.32144,-53.51448z" fill="none" stroke="#330d42" stroke-width="1.5" stroke-linecap="round"/><path d="M206.61576,164.57451c1.11161,2.49695 2.07215,9.14862 2.07215,9.14862l1.85841,0.04737l0.0648,14.51802l-1.87706,0.81553c0,0 0.7324,5.73347 -0.8191,8.1165c-8.99295,13.81307 -18.71872,4.19034 -19.24468,-2.731c-0.25199,-3.31617 2.87677,-14.47246 2.87677,-14.47246c0,0 -5.0884,-13.85744 -5.73932,-17.31525c-0.44379,-2.3573 14.94804,-11.29035 20.80807,1.87264z" fill="none" stroke="#330d42" stroke-width="1.5" stroke-linecap="round"/><path d="M196.43125,156.72197c5.68547,-0.12286 10.40932,5.09303 10.55101,11.65001c0.14168,6.55698 -4.35247,11.97203 -10.03794,12.09488c-5.68547,0.12285 -10.40932,-5.09302 -10.55101,-11.65001c-0.14168,-6.55698 4.35247,-11.97203 10.03794,-12.09489z" fill="none" stroke="#330d42" stroke-width="1.5" stroke-linecap="butt"/><path d="M196.64048,180.32306c5.68547,-0.12285 10.4093,5.09306 10.55099,11.65001c0.14168,6.55695 -4.35244,11.97203 -10.03791,12.09488c-5.68547,0.12285 -10.40929,-5.09305 -10.55098,-11.65c-0.14168,-6.55695 4.35244,-11.97204 10.03791,-12.09489z" fill="none" stroke="#330d42" stroke-width="1.5" stroke-linecap="butt"/><path d="M190.07536,193.09469l-0.4319,-19.98778l13.67587,-0.29551l0.4319,19.98778z" fill="none" stroke="#330d42" stroke-width="1.5" stroke-linecap="butt"/><path d="M193.73928,172.11571c-3.66778,-3.54407 -4.33815,-8.80047 -1.4973,-11.74052c2.84088,-2.9401 8.11717,-2.45049 11.785,1.09357c3.66778,3.54407 4.33815,8.80047 1.4973,11.74052c-2.84088,2.9401 -8.11719,2.45046 -11.785,-1.09359z" data-paper-data="{&quot;index&quot;:null}" fill="none" stroke="#330d42" stroke-width="1.5" stroke-linecap="butt"/><path d="M205.60606,188.38034c2.96516,2.81459 2.52254,8.09508 -0.98876,11.79425c-3.51133,3.69917 -8.76155,4.41626 -11.72677,1.6016c-2.96516,-2.81459 -2.52253,-8.09507 0.98876,-11.79424c3.51133,-3.69917 8.76154,-4.41627 11.72676,-1.60161z" fill="none" stroke="#330d42" stroke-width="1.5" stroke-linecap="butt"/><path d="M202.541,189.3757c2.01002,0.47076 3.33267,2.16231 2.95427,3.77819c-0.37843,1.61592 -2.31467,2.54424 -4.32469,2.07349c-2.01002,-0.47076 -3.3327,-2.16227 -2.95427,-3.7782c0.37843,-1.61592 2.31468,-2.54424 4.3247,-2.07348z" fill="none" stroke="#330d42" stroke-width="1.5" stroke-linecap="butt"/><path d="M197.88404,165.46863c0.69827,-0.74491 2.01553,-0.64464 2.94218,0.22395c0.92663,0.86862 1.11175,2.17664 0.41341,2.92158c-0.69827,0.74491 -2.01556,0.64467 -2.94218,-0.22395c-0.92663,-0.86862 -1.11172,-2.17664 -0.41341,-2.92158z" data-paper-data="{&quot;index&quot;:null}" fill="none" stroke="#330d42" stroke-width="1.5" stroke-linecap="butt"/><path d="M202.35869,190.15426c1.47514,0.34547 2.44583,1.58691 2.16813,2.77278c-0.27773,1.18592 -1.69872,1.86721 -3.17389,1.52174c-1.47514,-0.34547 -2.44583,-1.58689 -2.16812,-2.77278c0.27773,-1.18592 1.69872,-1.86722 3.17388,-1.52174z" fill="none" stroke="#330d42" stroke-width="1.5" stroke-linecap="butt"/><path d="M198.34104,165.89703c0.5081,-0.54202 1.46654,-0.46907 2.1408,0.16294c0.67426,0.63201 0.80892,1.58381 0.30082,2.12583c-0.5081,0.54202 -1.46657,0.46903 -2.1408,-0.16297c-0.67426,-0.63201 -0.80889,-1.58378 -0.30082,-2.1258z" data-paper-data="{&quot;index&quot;:null}" fill="none" stroke="#330d42" stroke-width="1.5" stroke-linecap="butt"/><path d="M195.86648,161.34768c0,0 2.15612,-0.88511 3.84103,-0.22544c1.68487,0.65968 3.94254,4.47292 3.94254,4.47292" fill="none" stroke="#330d42" stroke-width="1.5" stroke-linecap="round"/><path d="M194.80746,165.07402l-1.59074,-1.10515l1.5169,-2.31185" fill="none" stroke="#330d42" stroke-width="1.5" stroke-linecap="round"/><path d="M195.89415,162.62907l-1.18821,-2.25339" fill="none" stroke="#330d42" stroke-width="1.5" stroke-linecap="round"/><path d="M202.07162,165.05952l1.85087,-0.03999l0.02769,1.28136" fill="none" stroke="#330d42" stroke-width="1.5" stroke-linecap="round"/><path d="M203.433,168.73357c0,0 0.98543,-0.29009 1.28447,0.11468c0.29903,0.40478 0.63548,1.37286 0.47633,2.26878c-0.15915,0.89593 -3.97961,2.41788 -5.93974,1.98007c-1.96016,-0.43781 -4.34815,-3.46706 -4.34815,-3.46706" fill="none" stroke="#330d42" stroke-width="1.5" stroke-linecap="round"/><path d="M202.68642,173.73515l-0.77648,-2.9745" fill="none" stroke="#330d42" stroke-width="1.5" stroke-linecap="round"/><path d="M194.61809,169.49378l-1.04891,-2.39882" fill="none" stroke="#330d42" stroke-width="1.5" stroke-linecap="round"/><path d="M195.89637,169.32372l-2.26259,0.76109" fill="none" stroke="#330d42" stroke-width="1.5" stroke-linecap="round"/><path d="M186.90641,195.90799l3.82014,-8.25502l5.50035,1.73204l-3.36781,7.73423z" fill="none" stroke="#330d42" stroke-width="1.5" stroke-linecap="round"/><path d="M192.42047,164.14636l2.95252,7.90213l-5.58458,1.43763l-3.37657,-8.44615z" data-paper-data="{&quot;index&quot;:null}" fill="none" stroke="#330d42" stroke-width="1.5" stroke-linecap="round"/><path d="M205.19555,150.09892c0,0 -10.19355,4.24808 -13.57388,12.96602c-3.38033,8.71794 2.01445,12.63717 2.10953,18.10432c0.09508,5.46715 -5.7492,7.83588 -2.68097,15.09337c2.09012,4.94387 15.33456,13.84489 15.33456,13.84489l-2.08428,2.94473c0,0 -11.44934,-6.78022 -14.95622,-16.21579c-3.50688,-9.43557 2.54999,-9.66951 2.34962,-15.51576c-0.2004,-5.84626 -4.72586,-9.77765 -3.85737,-14.99196c1.93332,-11.60726 16.3372,-18.78523 16.3372,-18.78523z" fill="none" stroke="#330d42" stroke-width="1.5" stroke-linecap="round"/><path d="M200.90558,213.49159c0,0 -8.58511,4.09847 -19.65716,0.42475c-9.17727,-3.04502 -20.10872,-7.9567 -26.25873,-12.84322c-6.05539,-4.81134 -12.41847,-11.04307 -12.17733,-20.8107c0.24115,-9.76763 4.39322,-14.03947 12.90135,-20.83007c8.16226,-6.51454 22.17667,-11.77341 26.77654,-13.29255c8.32318,-2.74874 20.06297,1.65645 20.06297,1.65645l-7.14215,3.46344l-7.41634,7.47515l-2.58098,5.80316l1.10106,9.20687l2.96822,3.76746l0.25182,3.30367l-2.96046,4.94056l-1.1345,5.94609l2.52497,8.30531l7.57455,8.19619l5.16617,5.28746z" fill="none" stroke="#330d42" stroke-width="1.5" stroke-linecap="round"/><path d="M149.24867,165.4697c0,0 2.51455,-3.4847 4.66825,-5.69406c2.15374,-2.20936 6.93977,-4.48015 6.93977,-4.48015c0,0 3.78988,-0.84047 9.77738,1.59296c5.9875,2.43343 13.70482,8.00343 13.70482,8.00343l-2.11843,10.51044l-1.87353,-3.20718c0,0 -7.23698,-8.18216 -11.21123,-9.5007c-3.97425,-1.31855 -10.23266,2.3862 -10.23266,2.3862z" fill="none" stroke="#330d42" stroke-width="1.5" stroke-linecap="round"/><path d="M160.84897,196.68855c0,0 6.4126,3.43096 10.32619,1.94198c3.91359,-1.48898 10.79038,-9.97612 10.79038,-9.97612l1.73325,-3.2851l2.57045,10.4091c0,0 -7.46951,5.89815 -13.34631,8.58794c-5.8768,2.68979 -9.69944,2.01382 -9.69944,2.01382c0,0 -4.87965,-2.06194 -7.12682,-4.17621c-2.24714,-2.11427 -6.1541,-5.08433 -6.1541,-5.08433z" data-paper-data="{&quot;index&quot;:null}" fill="none" stroke="#330d42" stroke-width="1.5" stroke-linecap="round"/><path d="M170.4171,196.94751c-6.58386,2.4131 -17.81088,2.36954 -17.81088,2.36954c0,0 -9.3312,-4.35536 -9.77132,-18.01181c-0.28448,-8.82686 6.68258,-16.38265 6.68258,-16.38265c0,0 3.88582,-2.17924 15.31729,-0.87225c14.59363,1.66852 23.99484,16.62192 23.99484,16.62192c0,0 -3.74462,10.89922 -18.41253,16.27525z" fill="none" stroke="#330d42" stroke-width="1.5" stroke-linecap="round"/><path d="M142.55438,182.93516l-0.03507,-1.62307l44.31877,-0.95763l0.03507,1.62307z" fill="none" stroke="#330d42" stroke-width="1.5" stroke-linecap="butt"/><path d="M197.68238,147.82406l7.21744,0.01966c0,0 -11.87197,6.46842 -15.71659,15.79247c-3.84462,9.32405 2.85962,10.55635 3.05403,16.08929c0.19441,5.53291 -4.99452,10.94382 -2.12654,18.48406c2.78701,7.32741 15.8355,14.75951 15.8355,14.75951l-7.74709,0.51858c0,0 -11.33358,-6.32909 -14.78377,-16.18704c-3.45019,-9.85796 3.52965,-11.99951 3.08894,-15.69523c-0.39716,-3.33049 -5.34946,-9.18225 -3.98609,-17.47395c0.8448,-5.13785 15.16418,-16.30732 15.16418,-16.30732z" fill="none" stroke="#330d42" stroke-width="1.5" stroke-linecap="round"/><path d="M189.24542,179.03949c1.64342,-0.03551 2.99569,0.8642 3.02045,2.00961c0.02474,1.1454 -1.2874,2.10271 -2.93081,2.13823c-1.64341,0.03551 -2.99569,-0.86423 -3.02044,-2.00964c-0.02475,-1.1454 1.2874,-2.10268 2.93081,-2.1382z" fill="none" stroke="#330d42" stroke-width="1.5" stroke-linecap="butt"/><path d="M229.62945,216.83417c-0.26356,-0.65907 0.17151,-1.66682 1.2705,-2.40917c1.09899,-0.74234 2.25366,-0.82339 2.70932,-0.27914c1.43659,1.71597 0.93394,2.72552 -0.16504,3.46786c-1.09899,0.74234 -2.69294,2.02578 -3.81476,-0.77952z" fill="none" stroke="#330d42" stroke-width="1.5" stroke-linecap="butt"/><path d="M231.80689,215.69093c1.09899,-0.74234 2.312,-0.86733 2.7093,-0.27914c0.39731,0.58818 -0.17151,1.66682 -1.2705,2.40917c-1.09899,0.74238 -2.312,0.86736 -2.7093,0.27917c-0.39731,-0.5882 0.1715,-1.66685 1.27049,-2.4092z" fill="none" stroke="#330d42" stroke-width="1.5" stroke-linecap="butt"/><path d="M234.11751,216.81159l-3.04912,-0.20595" fill="none" stroke="#330d42" stroke-width="1.5" stroke-linecap="round"/><path d="M240.20741,190.59381l-0.47318,-21.89855l40.31907,-0.87121l0.47317,21.89854z" fill="none" stroke="#330d42" stroke-width="1.5" stroke-linecap="butt"/><path d="M299.12252,216.57202l-0.5367,-24.83787l18.81159,-0.65251l-1.73194,24.39481z" fill="none" stroke="#330d42" stroke-width="1.5" stroke-linecap="round"/><path d="M314.02883,139.73327l3.06157,25.52141l-19.07842,-0.07983l-0.31237,-26.0729z" fill="none" stroke="#330d42" stroke-width="1.5" stroke-linecap="round"/><path d="M304.99369,116.55526l9.29133,23.41851l-17.32748,-0.36366l-6.28065,-23.48359z" fill="none" stroke="#330d42" stroke-width="1.5" stroke-linecap="round"/><path d="M307.63265,238.68496l-13.12321,0.19907l4.60051,-22.89611l17.05003,-0.86049z" fill="none" stroke="#330d42" stroke-width="1.5" stroke-linecap="round"/><path d="M308.37467,238.17688l-10.86504,19.91752l-12.53396,0.7629l9.60529,-20.13633z" fill="none" stroke="#330d42" stroke-width="1.5" stroke-linecap="round"/><path d="M274.79025,168.47364l9.8001,-17.58953l4.48913,-0.097l1.20288,55.6684l-4.49221,-0.04537l-10.38879,-16.58355z" fill="none" stroke="#330d42" stroke-width="1.5" stroke-linecap="round"/><path d="M294.31386,98.57951l11.44309,18.45133l-14.31146,-0.18283l-9.93774,-18.48387z" fill="none" stroke="#330d42" stroke-width="1.5" stroke-linecap="round"/><path d="M287.79604,140.46414l-4.02249,-19.15845l-7.91036,-18.17227l6.51509,-4.65139l10.02733,18.72797l5.89732,22.4257l0.23858,25.62163l-10.20238,0.34045z" fill="none" stroke="#330d42" stroke-width="1.5" stroke-linecap="butt"/><path d="M254.7679,184.51904l-0.2211,-10.23239l14.46648,-0.31258l0.2211,10.23238z" fill="none" stroke="#330d42" stroke-width="1.5" stroke-linecap="butt"/><path d="M254.50474,183.23038l-0.16265,-7.52727l14.81931,-0.32021l0.16265,7.52727z" fill="none" stroke="#330d42" stroke-width="1.5" stroke-linecap="butt"/><path d="M261.00723,179.20681c0.03228,1.49401 -0.86304,2.72503 -1.99979,2.74959c-1.13674,0.02456 -2.0844,-1.16664 -2.11669,-2.66065c-0.03228,-1.49401 0.86304,-2.72502 1.99979,-2.74959c1.13674,-0.02456 2.0844,1.16664 2.11669,2.66064z" fill="none" stroke="#330d42" stroke-width="1.5" stroke-linecap="butt"/><path d="M260.18393,179.22461c0.03228,1.49401 -0.86304,2.72503 -1.99979,2.74959c-1.13674,0.02456 -2.08441,-1.16664 -2.1167,-2.66065c-0.03228,-1.49401 0.86304,-2.72502 1.99979,-2.74958c1.13674,-0.02456 2.08441,1.16663 2.1167,2.66064z" fill="none" stroke="#330d42" stroke-width="1.5" stroke-linecap="butt"/><path d="M269.11931,184.32661l-0.22618,-10.46761l7.1229,2.90548l-0.02613,4.23661z" fill="none" stroke="#330d42" stroke-width="1.5" stroke-linecap="butt"/><path d="M279.71164,253.40449l6.26826,-16.073l3.45278,-21.12418l-0.50835,-23.52616l10.18661,-0.57102l0.24047,23.88283l-4.62256,22.65301l-8.58839,20.03236z" fill="none" stroke="#330d42" stroke-width="1.5" stroke-linecap="butt"/><path d="M290.26561,192.49664l-0.58759,-27.1935l16.08831,-0.34763l0.58759,27.1935z" fill="none" stroke="#330d42" stroke-width="1.5" stroke-linecap="butt"/><path d="M292.9092,189.5907l-0.47684,-22.06805l8.82722,-0.19074l0.47684,22.06804z" fill="none" stroke="#330d42" stroke-width="1.5" stroke-linecap="butt"/><path d="M307.89567,135.21843l-22.07595,5.48327l-0.94097,-0.74988l13.73198,-6.45827l-7.42447,-13.44631l11.89714,-5.7768l14.34088,15.60749z" data-paper-data="{&quot;index&quot;:null}" fill="#b61a00" stroke="#000000" stroke-width="0" stroke-linecap="round"/><path d="M273.64776,140.81494l-12.11829,9.05758l9.20194,-12.51284z" fill="#3e3645" stroke="#000000" stroke-width="0" stroke-linecap="round"/><path d="M272.78177,219.72452l-9.58399,-11.43033l12.62472,8.11697z" fill="#3e3645" stroke="#000000" stroke-width="0" stroke-linecap="round"/><path d="M268.89267,190.03842l17.42508,17.35024l-1.00898,3.40478l-20.92711,-16.59799z" fill="#3d3738" stroke="#000000" stroke-width="0" stroke-linecap="round"/><path d="M262.09808,163.66275l19.96687,-15.31651l-3.74414,8.33535l-11.0041,10.522z" fill="#3d3738" stroke="#000000" stroke-width="0" stroke-linecap="round"/><path d="M253.26187,155.52676l25.01617,-19.548l6.93603,10.13988l-23.04409,18.21918z" data-paper-data="{&quot;index&quot;:null}" fill="#7f7373" stroke="#938489" stroke-width="0.375" stroke-linecap="round"/><path d="M263.29668,194.08358l22.54433,16.2924l-6.14659,9.87576l-24.46421,-17.46878z" fill="#7f7373" stroke="#938489" stroke-width="0.375" stroke-linecap="round"/><path d="M281.75038,215.20053l5.5104,-1.74289l14.48323,6.45299l-11.45243,21.08656l-19.96067,-9.44697l-0.20248,-3.10795z" fill="#f24500" stroke="#000000" stroke-width="0" stroke-linecap="round"/><path d="M288.50228,239.60114l-0.90586,1.91404l-17.62042,-7.60307l-0.05964,-2.76052z" fill="#d4340d" stroke="#000000" stroke-width="0" stroke-linecap="round"/><path d="M270.11886,234.26118l-1.1025,-0.92341l-1.96372,-3.20522l-1.42823,-7.1704l4.90981,5.47135z" fill="#ed6b0a" stroke="#000000" stroke-width="0" stroke-linecap="round"/><path d="M281.91347,215.27852l-2.57058,-5.03277l7.51587,-2.86878l5.86276,2.03843l0.09644,4.46344l-4.8773,-0.26958z" fill="#f36501" stroke="#000000" stroke-width="0" stroke-linecap="round"/><path d="M265.54226,222.85797l14.05946,-13.15908l2.41332,5.22529l-11.48083,13.50932z" fill="#ff8501" stroke="#000000" stroke-width="0" stroke-linecap="round"/><path d="M321.15865,222.87408l-13.9747,17.0815l-12.43393,-5.55004l6.99402,-14.49492l-14.34213,-6.18541l0.92926,-0.83199l22.83694,4.78398z" fill="#b61a00" stroke="#000000" stroke-width="0" stroke-linecap="round"/><path d="M313.30309,218.84894l0.5409,-2.58274l7.24746,3.49701l0.20272,3.27098z" fill="#8f1800" stroke="#000000" stroke-width="0" stroke-linecap="round"/><path d="M267.41864,126.72237l0.06827,-2.95389l19.0766,-9.7829l12.0472,19.50798l-13.85848,6.71776l-5.44726,-1.42269z" data-paper-data="{&quot;index&quot;:null}" fill="#f24500" stroke="#000000" stroke-width="0" stroke-linecap="round"/><path d="M267.2643,124.26238l-0.22342,-2.79487l16.87064,-7.93812l0.96316,1.7763z" data-paper-data="{&quot;index&quot;:null}" fill="#d4340d" stroke="#000000" stroke-width="0" stroke-linecap="round"/><path d="M267.81478,126.7138l-4.32416,5.41361l0.85761,-6.87909l1.78214,-3.11929l1.03696,-0.92098z" data-paper-data="{&quot;index&quot;:null}" fill="#ed6b0a" stroke="#000000" stroke-width="0" stroke-linecap="round"/><path d="M285.40273,139.7447l4.75241,-0.16359l0.09148,4.23407l-5.6337,2.17557l-7.45015,-2.40631l2.52959,-5.21178z" data-paper-data="{&quot;index&quot;:null}" fill="#f36501" stroke="#000000" stroke-width="0" stroke-linecap="round"/><path d="M267.81478,126.7138l12.08578,12.31869l-2.4626,5.05946l-14.26047,-11.88657z" data-paper-data="{&quot;index&quot;:null}" fill="#ff8501" stroke="#000000" stroke-width="0" stroke-linecap="round"/><path d="M317.03262,129.31574l0.0269,2.54425l-6.49516,4.58443l-0.31678,-2.43209z" data-paper-data="{&quot;index&quot;:null}" fill="#8f1800" stroke="#000000" stroke-width="0" stroke-linecap="round"/><path d="M258.97261,193.95935l-0.64806,-29.99146l11.05567,-0.23889l0.64806,29.99146z" fill="#24251e" stroke="none" stroke-width="0" stroke-linecap="butt"/><path d="M255.06621,193.31419l8.45397,0.46686c0,0 2.17882,3.0157 1.84584,5.26461c-0.33298,2.24892 -2.92686,4.82646 -2.92686,4.82646l-15.55573,1.52693l-2.08209,-51.2679l16.01661,-0.23784c0,0 2.69479,2.73876 3.46189,4.90493c0.76711,2.16617 -1.82376,5.77693 -1.82376,5.77693l-7.35557,0.26719z" fill="#252324" stroke="#000000" stroke-width="0" stroke-linecap="round"/><path d="M254.61839,193.93576l-0.64296,-29.75624l8.35057,-0.18044l0.64297,29.75624z" fill="#211e1f" stroke="none" stroke-width="0" stroke-linecap="butt"/><path d="M256.01705,193.3172l-0.63026,-29.16818l0.8233,-0.01778l0.63026,29.16818z" fill="#1b1919" stroke="none" stroke-width="0" stroke-linecap="butt"/><path d="M258.3566,192.6783l-0.61756,-28.58012l0.70569,-0.01525l0.61756,28.58012z" fill="#1b1919" stroke="none" stroke-width="0" stroke-linecap="butt"/><path d="M261.42981,193.31791l-0.62773,-29.05057l0.70569,-0.01524l0.62772,29.05056z" fill="#1b1919" stroke="none" stroke-width="0" stroke-linecap="butt"/><path d="M260.01336,193.11317l-0.62264,-28.81533l0.70569,-0.01524l0.62264,28.81533z" fill="#1b1919" stroke="none" stroke-width="0" stroke-linecap="butt"/><path d="M233.25708,148.81012l0.71678,4.9913l-8.57996,0.59135l-1.34362,-12.082z" data-paper-data="{&quot;index&quot;:null}" fill="#544f51" stroke="#000000" stroke-width="0" stroke-linecap="round"/><path d="M223.97712,142.98895l1.18903,10.25854l-9.73695,0.27805z" data-paper-data="{&quot;index&quot;:null}" fill="#7b7776" stroke="#8c8887" stroke-width="0.25" stroke-linecap="round"/><path d="M228.0132,147.23195l1.44064,0.9161l4.46197,-0.16407l-0.91464,1.50828l-6.03057,-0.41097l0.08703,-2.23464z" data-paper-data="{&quot;index&quot;:null}" fill="#1b1917" stroke="#000000" stroke-width="0" stroke-linecap="round"/><path d="M228.49829,147.76274l-1.45858,1.3847l-3.45259,-6.35305z" data-paper-data="{&quot;index&quot;:null}" fill="#393534" stroke="#000000" stroke-width="0" stroke-linecap="round"/><path d="M229.051,148.29207l-7.99972,-6.99904l-0.74789,-3.29915l13.60951,9.85483z" data-paper-data="{&quot;index&quot;:null}" fill="#282320" stroke="#000000" stroke-width="0" stroke-linecap="round"/><path d="M227.93434,144.64696c0.9996,-2.85114 2.64747,-1.63776 3.77749,-0.94358c1.13003,0.69419 1.67583,1.68107 0.31468,3.4575c-0.43172,0.56343 -1.5888,0.53234 -2.71883,-0.16185c-1.13003,-0.69419 -1.60822,-1.6822 -1.37338,-2.35204z" data-paper-data="{&quot;index&quot;:null}" fill="#443e42" stroke="none" stroke-width="0" stroke-linecap="butt"/><path d="M228.78573,143.34303c0.37153,-0.60482 1.58883,-0.53234 2.71886,0.16185c1.13003,0.69419 1.74491,1.74726 1.37338,2.35204c-0.37153,0.60482 -1.58883,0.53234 -2.71886,-0.16185c-1.13003,-0.69419 -1.74491,-1.74726 -1.37338,-2.35205z" data-paper-data="{&quot;index&quot;:null}" fill="#7c7080" stroke="none" stroke-width="0" stroke-linecap="butt"/><path d="M232.41916,144.47567l-3.03738,0.33747" data-paper-data="{&quot;index&quot;:null}" fill="none" stroke="#3f393c" stroke-width="0.25" stroke-linecap="round"/><path d="M225.84996,219.33596l0.82047,-12.12877l8.5975,0.22018l-0.50051,5.01762z" fill="#544f51" stroke="#000000" stroke-width="0" stroke-linecap="round"/><path d="M216.75252,208.50405l9.73987,-0.14279l-0.74483,10.30033z" fill="#7b7776" stroke="#8c8887" stroke-width="0.25" stroke-linecap="round"/><path d="M228.65858,214.67443l-0.18348,-2.2288l6.00719,-0.67107l0.97894,1.46735l-4.4649,0.02881l-1.39973,0.97748z" fill="#1b1917" stroke="#000000" stroke-width="0" stroke-linecap="round"/><path d="M225.36633,218.87279l3.17494,-6.49624l1.51703,1.32041z" fill="#393534" stroke="#000000" stroke-width="0" stroke-linecap="round"/><path d="M235.46415,213.37717l-11.64198,9.1826l-0.43792,-1.47905l7.20338,-7.93648z" fill="#282320" stroke="#000000" stroke-width="0" stroke-linecap="round"/><path d="M223.51142,142.8768l-10.28716,12.79384l-1.17022,-1.63348l8.88154,-13.19997z" data-paper-data="{&quot;index&quot;:null}" fill="#393534" stroke="#000000" stroke-width="0" stroke-linecap="round"/><path d="M223.28112,221.1048l-9.44343,-12.80401l1.09857,-1.68251l10.83019,12.33754z" fill="#393534" stroke="#000000" stroke-width="0" stroke-linecap="round"/><path d="M227.7034,120.57258l-10.77867,9.62527l-10.35419,0.22049l2.56639,-4.35957c0,0 4.97009,-4.99245 8.78998,-6.98743c3.8199,-1.99497 7.35688,-2.28485 7.35688,-2.28485z" data-paper-data="{&quot;index&quot;:null}" fill="#d23e28" stroke="#000000" stroke-width="0" stroke-linecap="round"/><path d="M227.42385,120.35132l-8.98358,7.56482l-7.28855,-0.82988l1.77625,-3.68092c0,0 3.44591,-3.47485 6.17154,-4.89833c2.7256,-1.42348 6.27503,-1.79485 6.27503,-1.79485z" data-paper-data="{&quot;index&quot;:null}" fill="#941300" stroke="#000000" stroke-width="0" stroke-linecap="round"/><path d="M227.05914,245.0688c0,0 -3.51925,-0.45746 -7.24013,-2.63148c-3.72085,-2.17401 -8.4484,-7.39677 -8.4484,-7.39677l-2.35656,-4.47644l10.33203,0.71169l10.30964,10.12606z" fill="#d23e28" stroke="#000000" stroke-width="0" stroke-linecap="round"/><path d="M227.20161,244.83874c0,0 -3.52777,-0.53945 -6.18277,-2.0907c-2.655,-1.55125 -5.93206,-5.18574 -5.93206,-5.18574l-1.59952,-3.7611l7.47727,-0.36149l8.50031,8.28444z" fill="#941300" stroke="#000000" stroke-width="0" stroke-linecap="round"/><path d="M200.65606,211.15743l12.61125,13.53935l-2.05215,0.04435l-11.93005,-12.24754l-3.61575,1.10469l-1.72539,-2.10915z" data-paper-data="{&quot;index&quot;:null}" fill="#aa4517" stroke="#000000" stroke-width="0" stroke-linecap="round"/><path d="M210.92924,224.46732c0,0 -6.02803,-2.14716 -9.3355,-4.46445c-3.30747,-2.31729 -6.29957,-6.48982 -6.29957,-6.48982l4.17946,-0.93023z" data-paper-data="{&quot;index&quot;:null}" fill="#fc8200" stroke="#000000" stroke-width="0" stroke-linecap="round"/><path d="M250.58641,207.01944c0,0 1.66112,26.66324 -26.42272,30.85805c-21.09815,2.39102 -39.00429,-22.63242 -39.00429,-22.63242l11.36434,-0.64627c0,0 16.29004,16.5707 26.75695,14.34791c18.35841,-3.89865 18.59017,-22.03947 18.59017,-22.03947z" data-paper-data="{&quot;index&quot;:null}" fill="#f83b2d" stroke="#000000" stroke-width="0" stroke-linecap="round"/><path d="M247.42202,207.34722c0,0 2.06221,26.13254 -24.28692,29.17506c-19.20697,2.21782 -35.27508,-21.54205 -35.27508,-21.54205l11.73512,-1.0935c0,0 8.67213,14.23405 22.95118,12.66266c14.78623,-1.6272 16.46036,-19.95357 16.46036,-19.95357z" data-paper-data="{&quot;index&quot;:null}" fill="#aa0606" stroke="#000000" stroke-width="0" stroke-linecap="round"/><path d="M247.66579,206.69756c0,0 1.81847,26.78219 -24.53065,29.82471c-19.207,2.21782 -35.27508,-21.54205 -35.27508,-21.54205l10.34597,-0.59685c0,0 10.08746,14.95005 24.3665,13.37866c14.78623,-1.6272 16.91466,-20.52331 16.91466,-20.52331z" data-paper-data="{&quot;index&quot;:null}" fill="#fa0000" stroke="#000000" stroke-width="0" stroke-linecap="round"/><path d="M195.10196,148.47083l1.63268,-2.18171l3.66009,0.94747l11.38987,-12.75144l2.05215,-0.04434l-12.01461,14.07147z" fill="#aa4517" stroke="#000000" stroke-width="0" stroke-linecap="round"/><path d="M200.57928,147.13929l-4.21572,-0.74883c0,0 2.80907,-4.29789 6.01336,-6.75589c3.20428,-2.458 9.13391,-4.86353 9.13391,-4.86353z" fill="#fc8200" stroke="#000000" stroke-width="0" stroke-linecap="round"/><path d="M252.93984,195.34484l0.1503,6.95601l-6.95602,0.1503l-0.1503,-6.95601z" data-paper-data="{&quot;index&quot;:null}" fill="#514e47" stroke="none" stroke-width="0" stroke-linecap="butt"/><path d="M251.38771,201.04885l0.1336,6.18311l-5.28141,0.11412l-0.1336,-6.18311z" data-paper-data="{&quot;index&quot;:null}" fill="#514e47" stroke="none" stroke-width="0" stroke-linecap="butt"/><path d="M240.21324,151.78896c0,0 -1.01514,-18.11387 -19.52482,-21.21588c-10.55317,-1.7686 -26.11221,15.49031 -26.11221,15.49031l-11.38166,-0.15478c0,0 16.80853,-25.77355 37.99027,-24.29611c28.23884,2.97779 27.73099,29.68791 27.73099,29.68791z" fill="#47a0cc" stroke="#000000" stroke-width="0" stroke-linecap="round"/><path d="M237.36521,152.22379c0,0 -2.4642,-18.23692 -17.30691,-19.22393c-14.33359,-0.95313 -22.38278,13.64223 -22.38278,13.64223l-11.7714,-0.58557c0,0 15.02679,-24.43177 34.31164,-23.04568c26.45594,1.90152 25.52449,28.09874 25.52449,28.09874z" fill="#06527f" stroke="#000000" stroke-width="0" stroke-linecap="round"/><path d="M237.81749,151.56075c0,0 -2.94267,-18.78655 -17.78539,-19.77352c-14.33359,-0.95313 -23.76586,14.4187 -23.76586,14.4187l-10.36209,-0.14939c0,0 15.02675,-24.43177 34.31163,-23.04568c26.45594,1.90152 26.31689,28.98377 26.31689,28.98377z" fill="#0b7bc1" stroke="#000000" stroke-width="0" stroke-linecap="round"/><path d="M237.22565,207.66976l-0.25329,-11.72217l9.01704,-0.19485l0.25329,11.72218z" fill="#6a6461" stroke="none" stroke-width="0" stroke-linecap="butt"/><path d="M235.20157,203.46061l-0.16423,-7.60008l3.73563,-0.08072l0.16423,7.60007z" fill="#6a6461" stroke="none" stroke-width="0" stroke-linecap="butt"/><path d="M245.54282,163.15702l-0.1503,-6.95601l6.95601,-0.1503l0.15031,6.95601z" data-paper-data="{&quot;index&quot;:null}" fill="#514e47" stroke="none" stroke-width="0" stroke-linecap="butt"/><path d="M245.42036,157.48917l-0.13638,-6.31195l5.28141,-0.11412l0.13639,6.31195z" data-paper-data="{&quot;index&quot;:null}" fill="#514e47" stroke="none" stroke-width="0" stroke-linecap="butt"/><path d="M245.28397,151.17724l0.25329,11.72218l-9.01704,0.19484l-0.25329,-11.72217z" data-paper-data="{&quot;index&quot;:null}" fill="#6a6461" stroke="none" stroke-width="0" stroke-linecap="butt"/><path d="M238.16218,155.58402l0.16423,7.60007l-3.73563,0.08073l-0.16423,-7.60008z" data-paper-data="{&quot;index&quot;:null}" fill="#6a6461" stroke="none" stroke-width="0" stroke-linecap="butt"/><path d="M236.74077,196.74786l-0.74536,-34.49487l10.54061,-0.22777l0.74536,34.49488z" fill="#1b1919" stroke="none" stroke-width="0" stroke-linecap="butt"/><path d="M211.92846,197.28865l-0.82438,-38.15143l24.90571,-0.53816l0.82438,38.15143z" fill="#282425" stroke="none" stroke-width="0" stroke-linecap="butt"/><path d="M210.10045,196.02163l-0.66917,-30.96889l18.91918,-0.4088c0,0 6.61169,10.25482 6.72536,15.51537c0.10921,5.05415 -6.05618,15.45353 -6.05618,15.45353z" fill="#f06c00" stroke="none" stroke-width="0" stroke-linecap="butt"/><path d="M227.09813,169.4305l-0.7684,-1.00995l4.38415,-0.09474l0.67513,1.01197z" fill="#8b2500" stroke="none" stroke-width="0" stroke-linecap="butt"/><path d="M232.12639,190.50623l-0.70334,1.04175l-4.87128,0.10526l0.80697,-1.044z" data-paper-data="{&quot;index&quot;:null}" fill="#8b2500" stroke="none" stroke-width="0" stroke-linecap="butt"/><path d="M209.14273,193.61592l-0.5946,-27.51755l16.94891,-0.36623c0,0 6.29072,9.10299 6.39173,13.77724c0.09703,4.49092 -5.79712,13.74028 -5.79712,13.74028z" fill="#312c29" stroke="none" stroke-width="0" stroke-linecap="butt"/><path d="M214.24387,209.55524l9.2976,10.03607c0,0 -2.55132,0.26089 -3.74705,1.56631c-1.19573,1.30541 -2.21865,3.55879 -2.21865,3.55879l-8.51457,-10.24991c0,0 -0.30828,-1.48141 1.9737,-3.17195c1.44492,-1.07045 3.20899,-1.73929 3.20899,-1.73929z" data-paper-data="{&quot;index&quot;:null}" fill="#f2700b" stroke="#000000" stroke-width="0" stroke-linecap="round"/><path d="M222.15958,223.99981c-1.74676,1.48722 -3.76561,1.98479 -4.50922,1.11143c-0.74361,-0.87335 0.06961,-2.78699 1.81636,-4.27421c1.74676,-1.48722 3.76561,-1.98484 4.50922,-1.11145c0.74361,0.87335 -0.06961,2.78701 -1.81636,4.27423z" data-paper-data="{&quot;index&quot;:null}" fill="#b43507" stroke="#000000" stroke-width="0" stroke-linecap="butt"/><path d="M221.87768,224.15455c-1.24894,1.06337 -2.69241,1.41914 -3.22407,0.79468c-0.53166,-0.62446 0.04977,-1.9927 1.29871,-3.05607c1.24894,-1.06337 2.69241,-1.41916 3.22407,-0.79468c0.53166,0.62446 -0.04976,1.99273 -1.29871,3.05607z" data-paper-data="{&quot;index&quot;:null}" fill="#58515d" stroke="#000000" stroke-width="0" stroke-linecap="butt"/><path d="M222.29426,224.68568c-1.24894,1.06337 -2.69241,1.41916 -3.22407,0.79468c-0.53166,-0.62446 0.04976,-1.99273 1.29871,-3.05607c1.24894,-1.06337 2.69241,-1.41914 3.22407,-0.79468c0.53166,0.62446 -0.04978,1.9927 -1.29868,3.05607z" data-paper-data="{&quot;index&quot;:null}" fill="#6f6675" stroke="#000000" stroke-width="0" stroke-linecap="butt"/><path d="M219.14079,215.90551c0,0 -2.23995,1.76411 -3.09113,4.51437c-0.85122,2.75027 1.06447,3.30497 1.06447,3.30497l-1.76533,1.75417l-4.73809,-4.39305l7.83484,-6.11068z" data-paper-data="{&quot;index&quot;:null}" fill="#5b4e50" stroke="#000000" stroke-width="0" stroke-linecap="round"/><path d="M211.85329,221.95655l-5.25779,-5.46628l6.62012,-6.08443l5.3746,5.01507z" data-paper-data="{&quot;index&quot;:null}" fill="#7a7579" stroke="#847a76" stroke-width="0.25" stroke-linecap="round"/><path d="M205.34386,148.84766l9.95326,-11.90169c0,0 1.01972,2.0107 2.1594,3.15179c1.13969,1.14109 3.4721,1.27817 3.4721,1.27817l-11.43676,11.56468z" fill="#f2700b" stroke="#000000" stroke-width="0" stroke-linecap="round"/><path d="M221.31877,141.23662c-0.64244,0.8242 -2.49953,0.45071 -4.1479,-0.83417c-1.64837,-1.28488 -2.46383,-2.9946 -1.82142,-3.81879c0.64244,-0.8242 2.49953,-0.45074 4.1479,0.83414c1.64837,1.28488 2.46386,2.99463 1.82142,3.81882z" fill="#b43507" stroke="#000000" stroke-width="0" stroke-linecap="butt"/><path d="M220.53699,140.01851c-0.45934,0.58931 -1.78715,0.32226 -2.96573,-0.59644c-1.17859,-0.91868 -1.76164,-2.14116 -1.3023,-2.73044c0.45934,-0.58931 1.78717,-0.32227 2.96575,0.59643c1.17859,0.91868 1.76165,2.14117 1.30231,2.73045z" fill="#58515d" stroke="#000000" stroke-width="0" stroke-linecap="butt"/><path d="M220.89526,139.51869c-0.45934,0.58931 -1.78715,0.32226 -2.96573,-0.59644c-1.17859,-0.91868 -1.76165,-2.14116 -1.30231,-2.73044c0.45934,-0.58931 1.78718,-0.32227 2.96574,0.59644c1.17859,0.91868 1.76164,2.14116 1.3023,2.73044z" fill="#6f6675" stroke="#000000" stroke-width="0" stroke-linecap="butt"/><path d="M216.47208,145.77777l-7.37153,-5.25347l4.18292,-4.06183l1.51198,1.65464c0,0 -1.65486,0.19684 -0.77191,2.66654c0.88295,2.46973 3.04476,4.12011 3.04476,4.12011z" fill="#5b4e50" stroke="#000000" stroke-width="0" stroke-linecap="round"/><path d="M216.58442,145.2833l-4.69448,4.77608l-6.2649,-5.27738l4.526,-5.26451z" fill="#7a7579" stroke="#847a76" stroke-width="0.25" stroke-linecap="round"/><path d="M221.54804,181.42993l-0.08252,-3.81897l1.82992,-0.03954l0.08252,3.81897z" fill="#62615d" stroke="none" stroke-width="0" stroke-linecap="butt"/><path d="M221.42115,180.26392l-0.01299,-0.60116l1.95663,-0.04228l0.013,0.60115z" fill="#54534f" stroke="none" stroke-width="0" stroke-linecap="butt"/><path d="M221.79878,181.9817l-0.01375,-0.63651l1.75037,-0.03782l0.01375,0.63651z" fill="#7d7b77" stroke="none" stroke-width="0" stroke-linecap="butt"/><path d="M217.98403,184.64834l-0.2035,-9.4178l3.70701,-0.0801l0.2035,9.4178z" fill="#838481" stroke="#9b9496" stroke-width="0.25" stroke-linecap="butt"/><path d="M221.71979,181.25986l-0.67751,1.11722l-1.10209,0.02381l-0.235,-1.5987l-1.00189,0.02165" fill="none" stroke="#53524e" stroke-width="0.25" stroke-linecap="round"/><path d="M215.19347,192.22636l0.06853,-3.42007l9.68455,-0.0668l-3.89113,4.49973z" fill="#915f3e" stroke="#000000" stroke-width="0" stroke-linecap="round"/><path d="M217.05439,186.06118l5.1378,0.45876l2.33338,2.51352l-9.98159,-0.49652z" fill="#653c0a" stroke="#000000" stroke-width="0" stroke-linecap="round"/><path d="M219.18917,192.56735l0.94125,-2.58427" fill="none" stroke="#67360a" stroke-width="0.25" stroke-linecap="round"/><path d="M232.23979,198.724l0.05535,7.77963l-2.56319,1.40858l-20.41079,-0.01001l4.87304,-14.53932l16.294,2.57984z" fill="#1e1f19" stroke="#000000" stroke-width="0" stroke-linecap="round"/><path d="M230.60512,201.35291l-0.04627,-2.14153l-1.08991,-3.47219l2.92569,-0.28874l2.74652,1.85767l0.28873,2.92569z" fill="#b34b00" stroke="#000000" stroke-width="0" stroke-linecap="round"/><path d="M230.70076,200.5615l4.84423,-0.21744l-0.64287,6.77983l-5.84158,1.02837z" fill="#e86b09" stroke="#000000" stroke-width="0" stroke-linecap="round"/><path d="M234.02617,197.89605l0.03166,1.46526" fill="none" stroke="#9d3000" stroke-width="0.25" stroke-linecap="round"/><path d="M233.16758,205.13161l0.20597,-0.90657" fill="none" stroke="#9d3000" stroke-width="0.25" stroke-linecap="round"/><path d="M234.2363,202.40214l-0.1322,-0.89926" fill="none" stroke="#9d3000" stroke-width="0.25" stroke-linecap="round"/><path d="M233.46435,203.20819l-2.48698,-0.28456" fill="none" stroke="#dc5c00" stroke-width="0.25" stroke-linecap="round"/><path d="M232.49864,205.48436l-2.03127,-0.06886" fill="none" stroke="#dc5c00" stroke-width="0.25" stroke-linecap="round"/><path d="M227.78243,201.18842l-0.98344,6.67445l-14.77271,-0.01909l2.35302,-5.91465l9.91872,-0.21432z" fill="#982800" stroke="#000000" stroke-width="0" stroke-linecap="round"/><path d="M220.26231,202.81687l-1.81139,4.88804l-5.07696,-0.11585l2.04898,-4.32936z" fill="#ea6b05" stroke="#000000" stroke-width="0" stroke-linecap="round"/><path d="M227.46378,202.09741l-1.01024,5.43459l-6.65493,-0.08175l2.6077,-4.56696z" fill="#ea6b05" stroke="#000000" stroke-width="0" stroke-linecap="round"/><path d="M214.87181,197.11699l0.44474,7.39731l-6.01135,5.25775l0.07865,-9.54522z" fill="#f0ac12" stroke="#000000" stroke-width="0" stroke-linecap="round"/><path d="M214.62518,165.92776l-3.10986,-5.488l-1.53978,-11.93175l4.24048,-1.51605l0.50934,10.38719l2.99515,6.77245z" fill="#f0ac12" stroke="#000000" stroke-width="0" stroke-linecap="round"/><path d="M215.88331,171.41509l-3.14367,-7.05412l6.12516,0.01009l5.4063,6.29302z" fill="#915f3e" stroke="#000000" stroke-width="0" stroke-linecap="round"/><path d="M213.28365,169.76196l10.55722,0.76897l-0.95663,1.8724l-7.93913,1.73841z" fill="#653c0a" stroke="#000000" stroke-width="0" stroke-linecap="round"/><path d="M219.68126,169.19641l-3.50313,-3.91264" fill="none" stroke="#67360a" stroke-width="0.25" stroke-linecap="round"/><path d="M218.52076,179.62475c0.25153,11.6407 -3.02654,21.15257 -7.32176,21.24537c-4.29523,0.09281 -7.9811,-9.26857 -8.23264,-20.90928c-0.25153,-11.6407 3.02654,-21.15257 7.32177,-21.24537c4.29523,-0.09281 7.9811,9.26858 8.23264,20.90928z" fill="#e56506" stroke="#a55314" stroke-width="0.25" stroke-linecap="butt"/><path d="M215.2472,179.46996c0.18428,8.52822 -2.44182,15.50167 -5.86554,15.57565c-3.42375,0.07398 -6.34862,-6.77953 -6.53289,-15.30775c-0.18428,-8.52822 2.44184,-15.50165 5.86557,-15.57563c3.42375,-0.07398 6.34859,6.77951 6.53286,15.30773z" fill="#921f00" stroke="none" stroke-width="0" stroke-linecap="butt"/><path d="M211.73712,189.24365l-0.41403,-19.16124l2.25428,-0.04871l0.41403,19.16124z" fill="url(#color-1)" stroke="none" stroke-width="0" stroke-linecap="butt"/><path d="M233.4771,162.04843l-3.38139,0.07306l-11.29564,-0.88356l-2.90239,-9.0713l12.07315,-4.88428l5.62591,-0.57262z" fill="#2a1c0c" stroke="#000000" stroke-width="0" stroke-linecap="round"/><path d="M228.01329,159.68566l-7.79668,-0.73368l-5.41266,0.00421l-0.6537,-4.15821l-0.04314,-7.21605l14.53267,-0.65232l0.25816,11.94757z" fill="#8b2300" stroke="#000000" stroke-width="0" stroke-linecap="round"/><path d="M227.69953,160.82011l6.53977,-0.02857l-0.14261,3.83712l-1.46771,-0.08106l-4.67724,-2.49254z" fill="#f06900" stroke="#000000" stroke-width="0" stroke-linecap="round"/><path d="M232.19096,159.93371l-0.19306,-3.7171l1.23986,-0.02678l-0.01949,-0.90172l-0.78901,0.01704l-0.0828,-3.83223l0.67871,0.09807l0.2084,-0.79384l-0.78654,0.12975l-0.0828,-3.83223l4.62367,0.01285l-0.04451,3.15838l-1.22525,0.70307l1.46771,0.08106l0.19794,3.94251l-1.89909,0.83041l2.02396,-0.26928l0.21501,4.73152z" fill="#ef6b00" stroke="#000000" stroke-width="0" stroke-linecap="round"/><path d="M228.5441,147.72099l0.20946,9.69334l-0.87491,1.25935l-4.53532,-1.14244l-0.65785,-9.57085z" fill="#f06900" stroke="#000000" stroke-width="0" stroke-linecap="round"/><path d="M221.57053,148.5483l-0.15548,8.46079l-0.99493,0.92364l-4.5134,-0.12802l-0.71525,-1.78878l-0.29536,-8.45104l5.42485,0.55938z" fill="#f06900" stroke="#000000" stroke-width="0" stroke-linecap="round"/><path d="M234.18885,153.23732l-0.12421,-5.74837l0.78898,-0.01704l0.12421,5.74837z" fill="url(#color-2)" stroke="none" stroke-width="0" stroke-linecap="butt"/><path d="M221.71202,194.81675l4.143,-3.09661l2.14725,1.95832l-2.34393,2.85727z" fill="#1e1f19" stroke="#000000" stroke-width="0" stroke-linecap="round"/><path d="M225.31014,194.33808l3.52025,-4.08551l2.45001,2.052l-3.62474,3.8873z" fill="#f46901" stroke="#000000" stroke-width="0" stroke-linecap="round"/><path d="M225.81976,194.72802l-1.52231,-0.86925l2.52265,-3.86349l2.2085,0.15274z" fill="#b24501" stroke="#000000" stroke-width="0" stroke-linecap="round"/><path d="M206.09772,234.0907l2.2217,-9.47364" fill="none" stroke="#aa0606" stroke-width="0.5" stroke-linecap="round"/><path d="M190.32101,220.89973l3.43782,-5.02041" fill="none" stroke="#aa0606" stroke-width="0.5" stroke-linecap="round"/><path d="M220.52843,228.1795l0.23179,10.72718" fill="none" stroke="#aa0606" stroke-width="0.5" stroke-linecap="round"/><path d="M229.43492,225.74727l7.07402,7.77965" fill="none" stroke="#aa0606" stroke-width="0.5" stroke-linecap="round"/><path d="M248.21552,218.15558l-10.60108,-2.57065" fill="none" stroke="#aa0606" stroke-width="0.5" stroke-linecap="round"/><path d="M203.64566,129.24827l-0.89395,-2.5004l3.47036,9.44398" fill="none" stroke="#06527f" stroke-width="0.5" stroke-linecap="round"/><path d="M218.18173,123.89471l-0.05037,-2.33198l0.41833,10.72313" fill="none" stroke="#06527f" stroke-width="0.5" stroke-linecap="round"/><path d="M189.45536,141.96693l-1.35628,-2.30379l4.25749,7.00057" fill="none" stroke="#06527f" stroke-width="0.5" stroke-linecap="round"/><path d="M232.7086,126.75383l1.08508,-1.60995l-6.13742,9.6516" fill="none" stroke="#06527f" stroke-width="0.5" stroke-linecap="round"/><path d="M235.50276,143.77162l11.40894,-3.23288l-1.8515,0.69327" fill="none" stroke="#06527f" stroke-width="0.5" stroke-linecap="round"/><path d="M200.42256,149.38867c8.57947,-5.16114 10.60787,6.62693 10.60787,6.62693c0,0 0.73157,17.60936 0.8238,26.13887c0.08835,8.17057 -0.28152,24.00761 -0.28152,24.00761c0,0 -1.20384,5.68916 -5.98352,6.98544c-3.17661,0.86153 -13.96532,-7.06597 -18.22394,-16.74661c-4.25862,-9.68062 2.68338,-9.41439 2.55813,-15.21099c-0.12525,-5.7966 -5.9158,-12.28275 -3.81613,-17.96003c2.09967,-5.67728 5.73588,-8.68007 14.31535,-13.84121z" fill="#b84400" stroke="#000000" stroke-width="0" stroke-linecap="round"/><path d="M183.72102,152.99719c0,0 17.74433,-1.96275 21.06871,-1.89864c1.46733,0.0283 2.81737,0.24205 3.4966,3.17209c0.66216,2.85651 2.9817,14.44034 3.25066,25.18927c0.26896,10.74893 -1.30879,23.97224 -1.77161,26.56077c-0.46282,2.58853 -1.8001,3.5678 -3.70922,3.68864c-2.94246,0.18626 -19.01373,-3.19765 -19.01373,-3.19765l-3.32144,-53.51448z" fill="#7b2200" stroke="#000000" stroke-width="0" stroke-linecap="round"/><path d="M206.61576,164.57451c1.11161,2.49695 2.07215,9.14862 2.07215,9.14862l1.85841,0.04737l0.0648,14.51802l-1.87706,0.81553c0,0 0.7324,5.73347 -0.8191,8.1165c-8.99295,13.81307 -18.71872,4.19034 -19.24468,-2.731c-0.25199,-3.31617 2.87677,-14.47246 2.87677,-14.47246c0,0 -5.0884,-13.85744 -5.73932,-17.31525c-0.44379,-2.3573 14.94804,-11.29035 20.80807,1.87264z" fill="#df9431" stroke="#954116" stroke-width="0" stroke-linecap="round"/><path d="M196.43125,156.72197c5.68547,-0.12286 10.40932,5.09303 10.55101,11.65001c0.14168,6.55698 -4.35247,11.97203 -10.03794,12.09488c-5.68547,0.12285 -10.40932,-5.09302 -10.55101,-11.65001c-0.14168,-6.55698 4.35247,-11.97203 10.03794,-12.09489z" fill="#98581e" stroke="none" stroke-width="0" stroke-linecap="butt"/><path d="M196.64048,180.32306c5.68547,-0.12285 10.4093,5.09306 10.55099,11.65001c0.14168,6.55695 -4.35244,11.97203 -10.03791,12.09488c-5.68547,0.12285 -10.40929,-5.09305 -10.55098,-11.65c-0.14168,-6.55695 4.35244,-11.97204 10.03791,-12.09489z" fill="#98581e" stroke="none" stroke-width="0" stroke-linecap="butt"/><path d="M190.07536,193.09469l-0.4319,-19.98778l13.67587,-0.29551l0.4319,19.98778z" fill="#98581e" stroke="none" stroke-width="0" stroke-linecap="butt"/><path d="M193.73928,172.11571c-3.66778,-3.54407 -4.33815,-8.80047 -1.4973,-11.74052c2.84088,-2.9401 8.11717,-2.45049 11.785,1.09357c3.66778,3.54407 4.33815,8.80047 1.4973,11.74052c-2.84088,2.9401 -8.11719,2.45046 -11.785,-1.09359z" data-paper-data="{&quot;index&quot;:null}" fill="#01050a" stroke="#954116" stroke-width="0" stroke-linecap="butt"/><path d="M205.60606,188.38034c2.96516,2.81459 2.52254,8.09508 -0.98876,11.79425c-3.51133,3.69917 -8.76155,4.41626 -11.72677,1.6016c-2.96516,-2.81459 -2.52253,-8.09507 0.98876,-11.79424c3.51133,-3.69917 8.76154,-4.41627 11.72676,-1.60161z" fill="#01050a" stroke="#954116" stroke-width="0" stroke-linecap="butt"/><path d="M202.541,189.3757c2.01002,0.47076 3.33267,2.16231 2.95427,3.77819c-0.37843,1.61592 -2.31467,2.54424 -4.32469,2.07349c-2.01002,-0.47076 -3.3327,-2.16227 -2.95427,-3.7782c0.37843,-1.61592 2.31468,-2.54424 4.3247,-2.07348z" fill="#5db0c4" stroke="none" stroke-width="0" stroke-linecap="butt"/><path d="M197.88404,165.46863c0.69827,-0.74491 2.01553,-0.64464 2.94218,0.22395c0.92663,0.86862 1.11175,2.17664 0.41341,2.92158c-0.69827,0.74491 -2.01556,0.64467 -2.94218,-0.22395c-0.92663,-0.86862 -1.11172,-2.17664 -0.41341,-2.92158z" data-paper-data="{&quot;index&quot;:null}" fill="#5db0c4" stroke="none" stroke-width="0" stroke-linecap="butt"/><path d="M202.35869,190.15426c1.47514,0.34547 2.44583,1.58691 2.16813,2.77278c-0.27773,1.18592 -1.69872,1.86721 -3.17389,1.52174c-1.47514,-0.34547 -2.44583,-1.58689 -2.16812,-2.77278c0.27773,-1.18592 1.69872,-1.86722 3.17388,-1.52174z" fill="#01050a" stroke="none" stroke-width="0" stroke-linecap="butt"/><path d="M198.34104,165.89703c0.5081,-0.54202 1.46654,-0.46907 2.1408,0.16294c0.67426,0.63201 0.80892,1.58381 0.30082,2.12583c-0.5081,0.54202 -1.46657,0.46903 -2.1408,-0.16297c-0.67426,-0.63201 -0.80889,-1.58378 -0.30082,-2.1258z" data-paper-data="{&quot;index&quot;:null}" fill="#01050a" stroke="none" stroke-width="0" stroke-linecap="butt"/><path d="M195.86648,161.34768c0,0 2.15612,-0.88511 3.84103,-0.22544c1.68487,0.65968 3.94254,4.47292 3.94254,4.47292" fill="none" stroke="#5db0c4" stroke-width="0.25" stroke-linecap="round"/><path d="M194.80746,165.07402l-1.59074,-1.10515l1.5169,-2.31185" fill="none" stroke="#5db0c4" stroke-width="0.25" stroke-linecap="round"/><path d="M195.89415,162.62907l-1.18821,-2.25339" fill="none" stroke="#5db0c4" stroke-width="0.25" stroke-linecap="round"/><path d="M202.07162,165.05952l1.85087,-0.03999l0.02769,1.28136" fill="none" stroke="#5db0c4" stroke-width="0.25" stroke-linecap="round"/><path d="M203.433,168.73357c0,0 0.98543,-0.29009 1.28447,0.11468c0.29903,0.40478 0.63548,1.37286 0.47633,2.26878c-0.15915,0.89593 -3.97961,2.41788 -5.93974,1.98007c-1.96016,-0.43781 -4.34815,-3.46706 -4.34815,-3.46706" fill="none" stroke="#5db0c4" stroke-width="0.25" stroke-linecap="round"/><path d="M202.68642,173.73515l-0.77648,-2.9745" fill="none" stroke="#5db0c4" stroke-width="0.25" stroke-linecap="round"/><path d="M194.61809,169.49378l-1.04891,-2.39882" fill="none" stroke="#5db0c4" stroke-width="0.25" stroke-linecap="round"/><path d="M195.89637,169.32372l-2.26259,0.76109" fill="none" stroke="#5db0c4" stroke-width="0.25" stroke-linecap="round"/><path d="M186.90641,195.90799l3.82014,-8.25502l5.50035,1.73204l-3.36781,7.73423z" fill="#360e03" stroke="#602a0d" stroke-width="0" stroke-linecap="round"/><path d="M192.42047,164.14636l2.95252,7.90213l-5.58458,1.43763l-3.37657,-8.44615z" data-paper-data="{&quot;index&quot;:null}" fill="#360e03" stroke="#602a0d" stroke-width="0" stroke-linecap="round"/><path d="M205.19555,150.09892c0,0 -10.19355,4.24808 -13.57388,12.96602c-3.38033,8.71794 2.01445,12.63717 2.10953,18.10432c0.09508,5.46715 -5.7492,7.83588 -2.68097,15.09337c2.09012,4.94387 15.33456,13.84489 15.33456,13.84489l-2.08428,2.94473c0,0 -11.44934,-6.78022 -14.95622,-16.21579c-3.50688,-9.43557 2.54999,-9.66951 2.34962,-15.51576c-0.2004,-5.84626 -4.72586,-9.77765 -3.85737,-14.99196c1.93332,-11.60726 16.3372,-18.78523 16.3372,-18.78523z" fill="#b84400" stroke="#000000" stroke-width="0" stroke-linecap="round"/><path d="M200.90558,213.49159c0,0 -8.58511,4.09847 -19.65716,0.42475c-9.17727,-3.04502 -20.10872,-7.9567 -26.25873,-12.84322c-6.05539,-4.81134 -12.41847,-11.04307 -12.17733,-20.8107c0.24115,-9.76763 4.39322,-14.03947 12.90135,-20.83007c8.16226,-6.51454 22.17667,-11.77341 26.77654,-13.29255c8.32318,-2.74874 20.06297,1.65645 20.06297,1.65645l-7.14215,3.46344l-7.41634,7.47515l-2.58098,5.80316l1.10106,9.20687l2.96822,3.76746l0.25182,3.30367l-2.96046,4.94056l-1.1345,5.94609l2.52497,8.30531l7.57455,8.19619l5.16617,5.28746z" fill="#36322e" stroke="#000000" stroke-width="0" stroke-linecap="round"/><path d="M149.24867,165.4697c0,0 2.51455,-3.4847 4.66825,-5.69406c2.15374,-2.20936 6.93977,-4.48015 6.93977,-4.48015c0,0 3.78988,-0.84047 9.77738,1.59296c5.9875,2.43343 13.70482,8.00343 13.70482,8.00343l-2.11843,10.51044l-1.87353,-3.20718c0,0 -7.23698,-8.18216 -11.21123,-9.5007c-3.97425,-1.31855 -10.23266,2.3862 -10.23266,2.3862z" fill="url(#color-3)" stroke="#000000" stroke-width="0" stroke-linecap="round"/><path d="M160.84897,196.68855c0,0 6.4126,3.43096 10.32619,1.94198c3.91359,-1.48898 10.79038,-9.97612 10.79038,-9.97612l1.73325,-3.2851l2.57045,10.4091c0,0 -7.46951,5.89815 -13.34631,8.58794c-5.8768,2.68979 -9.69944,2.01382 -9.69944,2.01382c0,0 -4.87965,-2.06194 -7.12682,-4.17621c-2.24714,-2.11427 -6.1541,-5.08433 -6.1541,-5.08433z" data-paper-data="{&quot;index&quot;:null}" fill="url(#color-4)" stroke="#000000" stroke-width="0" stroke-linecap="round"/><path d="M170.4171,196.94751c-6.58386,2.4131 -17.81088,2.36954 -17.81088,2.36954c0,0 -9.3312,-4.35536 -9.77132,-18.01181c-0.28448,-8.82686 6.68258,-16.38265 6.68258,-16.38265c0,0 3.88582,-2.17924 15.31729,-0.87225c14.59363,1.66852 23.99484,16.62192 23.99484,16.62192c0,0 -3.74462,10.89922 -18.41253,16.27525z" fill="url(#color-5)" stroke="#000000" stroke-width="0" stroke-linecap="round"/><path d="M142.55438,182.93516l-0.03507,-1.62307l44.31877,-0.95763l0.03507,1.62307z" fill="#34332c" stroke="none" stroke-width="0" stroke-linecap="butt"/><path d="M197.68238,147.82406l7.21744,0.01966c0,0 -11.87197,6.46842 -15.71659,15.79247c-3.84462,9.32405 2.85962,10.55635 3.05403,16.08929c0.19441,5.53291 -4.99452,10.94382 -2.12654,18.48406c2.78701,7.32741 15.8355,14.75951 15.8355,14.75951l-7.74709,0.51858c0,0 -11.33358,-6.32909 -14.78377,-16.18704c-3.45019,-9.85796 3.52965,-11.99951 3.08894,-15.69523c-0.39716,-3.33049 -5.34946,-9.18225 -3.98609,-17.47395c0.8448,-5.13785 15.16418,-16.30732 15.16418,-16.30732z" fill="#f56900" stroke="#000000" stroke-width="0" stroke-linecap="round"/><path d="M189.24542,179.03949c1.64342,-0.03551 2.99569,0.8642 3.02045,2.00961c0.02474,1.1454 -1.2874,2.10271 -2.93081,2.13823c-1.64341,0.03551 -2.99569,-0.86423 -3.02044,-2.00964c-0.02475,-1.1454 1.2874,-2.10268 2.93081,-2.1382z" fill="#ea5e00" stroke="none" stroke-width="0" stroke-linecap="butt"/><path d="M229.62945,216.83417c-0.26356,-0.65907 0.17151,-1.66682 1.2705,-2.40917c1.09899,-0.74234 2.25366,-0.82339 2.70932,-0.27914c1.43659,1.71597 0.93394,2.72552 -0.16504,3.46786c-1.09899,0.74234 -2.69294,2.02578 -3.81476,-0.77952z" fill="#443e42" stroke="none" stroke-width="0" stroke-linecap="butt"/><path d="M231.80689,215.69093c1.09899,-0.74234 2.312,-0.86733 2.7093,-0.27914c0.39731,0.58818 -0.17151,1.66682 -1.2705,2.40917c-1.09899,0.74238 -2.312,0.86736 -2.7093,0.27917c-0.39731,-0.5882 0.1715,-1.66685 1.27049,-2.4092z" fill="#7c7080" stroke="none" stroke-width="0" stroke-linecap="butt"/><path d="M234.11751,216.81159l-3.04912,-0.20595" fill="none" stroke="#3f393c" stroke-width="0.25" stroke-linecap="round"/><path d="M240.20741,190.59381l-0.47318,-21.89855l40.31907,-0.87121l0.47317,21.89854z" fill="#817c7c" stroke="none" stroke-width="0" stroke-linecap="butt"/><path d="M299.12252,216.57202l-0.5367,-24.83787l18.81159,-0.65251l-1.73194,24.39481z" fill="#fc6900" stroke="#000000" stroke-width="0" stroke-linecap="round"/><path d="M314.02883,139.73327l3.06157,25.52141l-19.07842,-0.07983l-0.31237,-26.0729z" fill="#fc6900" stroke="#000000" stroke-width="0" stroke-linecap="round"/><path d="M304.99369,116.55526l9.29133,23.41851l-17.32748,-0.36366l-6.28065,-23.48359z" fill="#ef5200" stroke="#000000" stroke-width="0" stroke-linecap="round"/><path d="M307.63265,238.68496l-13.12321,0.19907l4.60051,-22.89611l17.05003,-0.86049z" fill="#ef5200" stroke="#000000" stroke-width="0" stroke-linecap="round"/><path d="M308.37467,238.17688l-10.86504,19.91752l-12.53396,0.7629l9.60529,-20.13633z" fill="#e04409" stroke="#000000" stroke-width="0" stroke-linecap="round"/><path d="M274.79025,168.47364l9.8001,-17.58953l4.48913,-0.097l1.20288,55.6684l-4.49221,-0.04537l-10.38879,-16.58355z" fill="#8d8686" stroke="#999592" stroke-width="0.5" stroke-linecap="round"/><path d="M294.31386,98.57951l11.44309,18.45133l-14.31146,-0.18283l-9.93774,-18.48387z" fill="#e04409" stroke="#000000" stroke-width="0" stroke-linecap="round"/><path d="M287.79604,140.46414l-4.02249,-19.15845l-7.91036,-18.17227l6.51509,-4.65139l10.02733,18.72797l5.89732,22.4257l0.23858,25.62163l-10.20238,0.34045z" fill="#ff9b0f" stroke="#000000" stroke-width="0" stroke-linecap="butt"/><path d="M254.7679,184.51904l-0.2211,-10.23239l14.46648,-0.31258l0.2211,10.23238z" fill="#f7810e" stroke="none" stroke-width="0" stroke-linecap="butt"/><path d="M254.50474,183.23038l-0.16265,-7.52727l14.81931,-0.32021l0.16265,7.52727z" fill="#ff7500" stroke="none" stroke-width="0" stroke-linecap="butt"/><path d="M261.00723,179.20681c0.03228,1.49401 -0.86304,2.72503 -1.99979,2.74959c-1.13674,0.02456 -2.0844,-1.16664 -2.11669,-2.66065c-0.03228,-1.49401 0.86304,-2.72502 1.99979,-2.74959c1.13674,-0.02456 2.0844,1.16664 2.11669,2.66064z" fill="#8e9084" stroke="#73410d" stroke-width="0.25" stroke-linecap="butt"/><path d="M260.18393,179.22461c0.03228,1.49401 -0.86304,2.72503 -1.99979,2.74959c-1.13674,0.02456 -2.08441,-1.16664 -2.1167,-2.66065c-0.03228,-1.49401 0.86304,-2.72502 1.99979,-2.74958c1.13674,-0.02456 2.08441,1.16663 2.1167,2.66064z" fill="#8e9084" stroke="#a0a49c" stroke-width="0.25" stroke-linecap="butt"/><path d="M269.11931,184.32661l-0.22618,-10.46761l7.1229,2.90548l-0.02613,4.23661z" fill="#f44c00" stroke="none" stroke-width="0" stroke-linecap="butt"/><path d="M279.71164,253.40449l6.26826,-16.073l3.45278,-21.12418l-0.50835,-23.52616l10.18661,-0.57102l0.24047,23.88283l-4.62256,22.65301l-8.58839,20.03236z" fill="#ff9b0f" stroke="#000000" stroke-width="0" stroke-linecap="butt"/><path d="M290.26561,192.49664l-0.58759,-27.1935l16.08831,-0.34763l0.58759,27.1935z" fill="#666462" stroke="none" stroke-width="0" stroke-linecap="butt"/><path d="M292.9092,189.5907l-0.47684,-22.06805l8.82722,-0.19074l0.47684,22.06804z" fill="#000000" stroke="none" stroke-width="0" stroke-linecap="butt"/><path d="M262.5206,167.55854l11.39415,2.46016l-0.00757,-6.3147l6.20262,0.76809l-3.16472,2.64588l0.19763,9.14586l-13.12723,-5.1291l-3.54838,2.78305z" fill="#ffffff" stroke="#bb44c4" stroke-width="0.375" stroke-linecap="round"/><path d="M288.81985,156.03586l-0.01192,5.41301l-13.94541,-1.24517l-2.83438,-17.8524l5.44363,1.42888l-3.81713,2.27337l4.36424,11.11781l8.1543,1.62806l-0.91564,-0.62457l-0.38845,-6.04874l7.61401,0.47986l1.34939,2.8061z" fill="#ffffff" stroke="#bb44c4" stroke-width="0.375" stroke-linecap="round"/><path d="M279.66531,179.68897l-0.04331,9.9243l2.4948,2.13696l-6.69281,0.40237l0.37053,-6.70952l-9.77046,1.11323l-1.56171,-6.66776l3.29832,3.53725z" fill="#ffffff" stroke="#bb44c4" stroke-width="0.375" stroke-linecap="round"/><path d="M265.83011,213.3666l-0.10299,-4.76615l4.99751,-13.25326l15.36793,1.47216l-0.2723,5.28976l5.56409,1.03965l0.05566,2.5763l-11.37744,-1.68728l3.24618,-4.83853l-9.13751,0.58404l-6.23757,9.54267l4.73755,4.53714z" fill="#ffffff" stroke="#bb44c4" stroke-width="0.375" stroke-linecap="round"/><path d="M321.51515,207.91043l11.74445,0.77723l-5.44842,-7.61477l6.45822,-5.29455l-1.16289,5.82451l6.01933,10.17993l-15.1946,0.58608l-3.03591,2.64309z" fill="#ffffff" stroke="#bb44c4" stroke-width="0.375" stroke-linecap="round"/><path d="M321.30705,150.56554l13.56731,1.63995l-6.77508,8.52328l0.70095,14.54773l-3.1285,4.32048l-1.5685,-18.91074l3.0951,-5.86627l-8.39524,-0.84959l-0.79436,-6.94209z" fill="#ffffff" stroke="#bb44c4" stroke-width="0.375" stroke-linecap="round"/><path d="M323.13847,178.29047c0.21453,9.92825 -5.7308,18.10897 -13.27928,18.27208c-7.54846,0.16311 -13.84163,-7.75314 -14.05616,-17.68141c-0.21453,-9.92825 5.7308,-18.10897 13.27928,-18.27208c7.54846,-0.16311 13.84163,7.75314 14.05616,17.68141z" fill="url(#color-6)" stroke="none" stroke-width="0" stroke-linecap="butt"/><path d="M318.67296,177.37655c0.15749,7.28817 -3.93503,13.28759 -9.14088,13.40008c-5.20582,0.11249 -9.55369,-5.70456 -9.71117,-12.99273c-0.15749,-7.28817 3.93503,-13.28759 9.14088,-13.40009c5.20582,-0.11249 9.55369,5.70456 9.71117,12.99273z" fill="url(#color-7)" stroke="none" stroke-width="0" stroke-linecap="butt"/><path d="M315.59767,178.45341c0.20007,9.25893 -4.67183,16.87361 -10.88163,17.00779c-6.20983,0.13417 -11.40607,-7.26293 -11.60613,-16.52188c-0.20007,-9.25893 4.67183,-16.87361 10.88163,-17.00779c6.20983,-0.13418 11.40607,7.26293 11.60613,16.52188z" fill="url(#color-8)" stroke="none" stroke-width="0" stroke-linecap="butt"/><path d="M315.59767,178.45341c0.20007,9.25893 -4.67183,16.87361 -10.88163,17.00779c-6.20983,0.13417 -11.40607,-7.26293 -11.60613,-16.52188c-0.20007,-9.25893 4.67183,-16.87361 10.88163,-17.00779c6.20983,-0.13418 11.40607,7.26293 11.60613,16.52188z" fill="url(#color-9)" stroke="none" stroke-width="0" stroke-linecap="butt"/><path d="M317.85481,176.92273c0.15186,7.02789 -5.36196,12.8469 -12.31547,12.99716c-6.95352,0.15025 -12.71354,-5.42519 -12.8654,-12.45305c-0.15186,-7.02789 5.36196,-12.8469 12.31547,-12.99715c6.95352,-0.15025 12.71354,5.42518 12.8654,12.45304z" fill="url(#color-10)" stroke="none" stroke-width="0" stroke-linecap="butt"/><path d="M318.41819,178.05568c0.16713,7.7344 -4.33958,14.10468 -10.06599,14.22841c-5.72639,0.12373 -10.50407,-6.04592 -10.67119,-13.78033c-0.16713,-7.7344 4.33958,-14.10465 10.06599,-14.22838c5.72639,-0.12373 10.50407,6.04592 10.67119,13.7803z" fill="url(#color-11)" stroke="none" stroke-width="0" stroke-linecap="butt"/><path d="M318.41819,178.05568c0.16713,7.7344 -4.33958,14.10468 -10.06599,14.22841c-5.72639,0.12373 -10.50407,-6.04592 -10.67119,-13.78033c-0.16713,-7.7344 4.33958,-14.10465 10.06599,-14.22838c5.72639,-0.12373 10.50407,6.04592 10.67119,13.7803z" fill="url(#color-12)" stroke="none" stroke-width="0" stroke-linecap="butt"/><path d="M318.41819,178.05568c0.16713,7.7344 -4.33958,14.10468 -10.06599,14.22841c-5.72639,0.12373 -10.50407,-6.04592 -10.67119,-13.78033c-0.16713,-7.7344 4.33958,-14.10465 10.06599,-14.22838c5.72639,-0.12373 10.50407,6.04592 10.67119,13.7803z" fill="url(#color-13)" stroke="none" stroke-width="0" stroke-linecap="butt"/><path d="M318.41819,178.05568c0.16713,7.7344 -4.33958,14.10468 -10.06599,14.22841c-5.72639,0.12373 -10.50407,-6.04592 -10.67119,-13.78033c-0.16713,-7.7344 4.33958,-14.10465 10.06599,-14.22838c5.72639,-0.12373 10.50407,6.04592 10.67119,13.7803z" fill="url(#color-14)" stroke="none" stroke-width="0" stroke-linecap="butt"/><path d="M301.31332,167.62242l0.06124,2.83394l5.05361,7.23667l-9.50926,-4.69177l-0.02706,-7.2164l13.34742,-8.53641l13.60907,3.57218l1.76923,4.34353l-13.10493,-4.09859z" fill="#ffffff" stroke="#bb44c4" stroke-width="0.375" stroke-linecap="round"/><path d="M304.13659,184.95955l-5.46389,3.59768l0.17614,2.18709l9.58163,8.04097l10.00023,-2.40698l0.75777,-12.64612l3.43268,3.79208l-1.94771,11.2542l-13.5848,3.51543l-10.90039,-9.4301l0.05723,-9.28024z" fill="#ffffff" stroke="#bb44c4" stroke-width="0.375" stroke-linecap="round"/><path d="M215.47369,158.88693l-2.62541,-5.10092l-1.89713,-5.45019l1.46846,-1.42085l25.2874,0.05542l-0.39184,12.81833l-3.45189,1.20753l1.20753,3.45189l-2.55194,1.40299l-3.00442,-4.02338l-12.12278,1.24529z" fill="url(#color-15)" stroke="#fb0adc" stroke-width="0" stroke-linecap="round"/><g stroke="none" stroke-width="0.5" stroke-linecap="butt"><path d="M181.40192,195.57343c0.32929,1.20585 -0.87656,1.53514 -0.87656,1.53514l-0.30769,-0.20608c-2.35762,3.09398 -6.69215,4.2673 -10.27913,5.42144c-2.23407,0.71884 -4.03297,1.63321 -6.44811,1.68538c-4.33888,0.96568 -11.50634,-0.26555 -14.64886,-3.60938c-2.3693,-2.52107 -3.25488,-5.71481 -5.06377,-8.56852c0,0 -0.66612,-1.05773 0.39161,-1.72385c1.05773,-0.66612 1.72384,0.3916 1.72384,0.3916c1.72117,2.74865 2.62899,5.75294 4.80115,8.22235c2.46995,2.80794 9.03791,3.57551 12.49602,2.80587c3.69879,-0.0799 9.32232,-1.93261 12.34087,-4.06087c0.98857,-0.697 2.01299,-1.02204 2.65447,-2.02049l1.68104,-0.74916c0,0 1.20585,-0.32929 1.53514,0.87656z" fill="#70f0f9"/><path d="M157.22037,205.82303c-0.25325,-0.07735 -0.55387,-0.24132 -0.71832,-0.58873c-0.11864,-0.20471 -0.18347,-0.46946 -0.11086,-0.80302c0.04187,-0.33881 0.19067,-0.56718 0.37037,-0.72109c0.26663,-0.26982 0.59928,-0.32717 0.86227,-0.31822l0.97849,-0.02114c3.19546,-0.06903 6.37632,-0.08309 9.51207,-0.68511c4.02418,-0.87686 6.71664,-4.07762 10.39136,-5.65681c0.63639,-0.27349 2.78383,-1.23867 3.27844,-1.11404c0.67572,0.17026 1.03915,0.93641 1.482,1.47443c0.7962,0.96729 2.88467,4.23236 3.0621,5.41928c0.10703,0.71592 -0.03521,1.50092 -0.37805,2.13846c-0.83447,1.55179 -3.77545,2.21788 -5.28276,2.85889c-4.26949,1.81571 -7.82523,2.00887 -12.42161,2.10816c-1.78672,0.0386 -4.04312,0.42075 -5.74799,-0.2267c-2.06744,-0.78513 -3.17975,-3.11435 -5.27753,-3.86434z" fill="#00a8e8"/><path d="M179.74855,194.19775c0.43907,-1.17036 1.60941,-0.73129 1.60941,-0.73129l1.5602,0.6349c2.17024,2.65406 4.26288,6.25377 5.60475,9.40906c0,0 0.4892,1.1503 -0.66111,1.63949c-1.1503,0.4892 -1.63949,-0.66111 -1.63949,-0.66111c-1.20243,-2.82741 -3.00439,-5.86826 -4.78167,-8.37077l-0.96082,-0.31087c0,0 -1.17036,-0.43907 -0.73128,-1.60941z" fill="#00788d"/></g><g data-paper-data="{&quot;index&quot;:null}" stroke="none" stroke-width="0.5" stroke-linecap="butt"><path d="M177.54442,168.22004l-1.71183,-0.67587c-0.684,-0.96981 -1.72149,-1.25031 -2.73925,-1.90397c-3.10764,-1.99592 -8.80593,-3.60405 -12.50472,-3.52415c-3.48813,-0.6196 -10.01681,0.43088 -12.3632,3.34287c-2.06349,2.56091 -2.84073,5.6016 -4.4416,8.42201c0,0 -0.61982,1.08551 -1.70533,0.46568c-1.08551,-0.61982 -0.46568,-1.70533 -0.46568,-1.70533c1.68398,-2.92915 2.43082,-6.15815 4.68903,-8.7792c2.99519,-3.47642 10.1028,-5.01602 14.47933,-4.23862c2.41516,-0.05217 4.25187,0.78368 6.51488,1.40537c3.63347,0.99817 8.01463,1.98321 10.50366,4.97249l0.29851,-0.21918c0,0 1.21894,0.27691 0.94204,1.49585c-0.27691,1.21894 -1.49585,0.94204 -1.49585,0.94204z" fill="#70f0f9"/><path d="M159.54439,153.99358c1.67532,-0.72046 3.94611,-0.43612 5.73283,-0.47471c4.59638,-0.09929 8.15714,-0.05986 12.50106,1.56978c1.53358,0.57533 4.50058,1.11377 5.40129,2.62809c0.37005,0.62214 0.54606,1.40027 0.47005,2.12015c-0.12601,1.19348 -2.07154,4.54568 -2.82522,5.54645c-0.41921,0.55664 -0.7492,1.33777 -1.41694,1.53705c-0.48876,0.14587 -2.67589,-0.72568 -3.3235,-0.97143c-3.73949,-1.41903 -6.56767,-4.50053 -10.62595,-5.20281c-3.15882,-0.46605 -6.33731,-0.34273 -9.53278,-0.2737l-0.97849,0.02114c-0.26235,0.0203 -0.59717,-0.02263 -0.87521,-0.28069c-0.18619,-0.146 -0.3447,-0.36773 -0.40117,-0.70442c-0.08695,-0.33013 -0.03362,-0.59742 0.07608,-0.80706c0.1493,-0.35418 0.44256,-0.53099 0.69223,-0.6192c2.06343,-0.83988 3.07411,-3.21496 5.10573,-4.08864z" fill="#00a8e8"/><path d="M178.10895,167.08432l0.9465,-0.35207c1.66755,-2.57693 3.3365,-5.69276 4.41573,-8.56946c0,0 0.43907,-1.17035 1.60941,-0.73128c1.17036,0.43907 0.73129,1.60942 0.73129,1.60942c-1.20436,3.21029 -3.13961,6.897 -5.19321,9.64231l-1.53132,0.70169c0,0 -1.15029,0.4892 -1.63949,-0.66111c-0.4892,-1.1503 0.6611,-1.63949 0.6611,-1.63949z" fill="#00788d"/></g></g></g></svg>