<svg version="1.1" xmlns="http://www.w3.org/2000/svg" xmlns:xlink="http://www.w3.org/1999/xlink" width="151.78429" height="212.25588" viewBox="0,0,151.78429,212.25588"><defs><linearGradient x1="291.63317" y1="217.77328" x2="262.03608" y2="217.85268" gradientUnits="userSpaceOnUse" id="color-1"><stop offset="0" stop-color="#07a7f7"/><stop offset="1" stop-color="#23d0fe"/></linearGradient><radialGradient cx="249.07296" cy="229.18406" r="18.76295" gradientUnits="userSpaceOnUse" id="color-2"><stop offset="0" stop-color="#2cdbff"/><stop offset="1" stop-color="#0caff7"/></radialGradient><linearGradient x1="256.92289" y1="179.11962" x2="257.00027" y2="207.96105" gradientUnits="userSpaceOnUse" id="color-3"><stop offset="0" stop-color="#1c8bc0"/><stop offset="1" stop-color="#289dd5"/></linearGradient><linearGradient x1="261.41122" y1="149.97254" x2="261.52941" y2="194.02878" gradientUnits="userSpaceOnUse" id="color-4"><stop offset="0" stop-color="#2b98dd"/><stop offset="1" stop-color="#2790bc"/></linearGradient><linearGradient x1="245.50937" y1="172.79544" x2="245.53567" y2="182.60125" gradientUnits="userSpaceOnUse" id="color-5"><stop offset="0" stop-color="#459ece"/><stop offset="1" stop-color="#2dc9f4"/></linearGradient><linearGradient x1="276.35594" y1="171.94137" x2="276.38225" y2="181.74727" gradientUnits="userSpaceOnUse" id="color-6"><stop offset="0" stop-color="#459ece"/><stop offset="1" stop-color="#2dc9f4"/></linearGradient><linearGradient x1="261.62561" y1="101.5974" x2="261.80615" y2="168.89839" gradientUnits="userSpaceOnUse" id="color-7"><stop offset="0" stop-color="#009ae4"/><stop offset="1" stop-color="#00ccff"/></linearGradient><linearGradient x1="199.60163" y1="159.04043" x2="199.70981" y2="199.36436" gradientUnits="userSpaceOnUse" id="color-8"><stop offset="0" stop-color="#6be5fe"/><stop offset="1" stop-color="#00a0e7"/></linearGradient><linearGradient x1="192.37899" y1="221.12959" x2="192.54946" y2="284.67675" gradientUnits="userSpaceOnUse" id="color-9"><stop offset="0" stop-color="#85e8ff"/><stop offset="1" stop-color="#4adafc"/></linearGradient><linearGradient x1="209.22079" y1="242.61882" x2="192.75343" y2="242.663" gradientUnits="userSpaceOnUse" id="color-10"><stop offset="0" stop-color="#cbf6ff"/><stop offset="1" stop-color="#1fd6fd"/></linearGradient><linearGradient x1="229.30975" y1="254.7044" x2="207.77549" y2="254.76217" gradientUnits="userSpaceOnUse" id="color-11"><stop offset="0" stop-color="#cbf6ff"/><stop offset="1" stop-color="#1fd6fd"/></linearGradient><linearGradient x1="188.08664" y1="234.44178" x2="169.08587" y2="234.49275" gradientUnits="userSpaceOnUse" id="color-12"><stop offset="0" stop-color="#cbf6ff"/><stop offset="1" stop-color="#1fd6fd"/></linearGradient><linearGradient x1="176.47026" y1="232.67839" x2="165.70313" y2="232.70727" gradientUnits="userSpaceOnUse" id="color-13"><stop offset="0" stop-color="#cbf6ff"/><stop offset="1" stop-color="#1fd6fd"/></linearGradient><linearGradient x1="237.78087" y1="264.49887" x2="220.89126" y2="264.54418" gradientUnits="userSpaceOnUse" id="color-14"><stop offset="0" stop-color="#cbf6ff"/><stop offset="1" stop-color="#1fd6fd"/></linearGradient></defs><g transform="translate(-158.04875,-73.12931)"><g data-paper-data="{&quot;isPaintingLayer&quot;:true}" fill-rule="nonzero" stroke-linejoin="miter" stroke-miterlimit="10" stroke-dasharray="" stroke-dashoffset="0" style="mix-blend-mode: normal"><path d="M273.78343,200.94148l16.92299,16.14058l0.93734,4.62205l-4.58979,12.96111l-14.79915,-0.19153l-10.22672,-19.62698z" fill="none" stroke="#0c60a7" stroke-width="1.25" stroke-linecap="round"/><path d="M262.28413,219.94057c0,0 -3.31275,22.88483 -13.71142,27.1353c-6.50126,2.22507 -12.68888,-0.43591 -12.68888,-0.43591l2.45076,-20.68287l15.46554,-15.54874z" fill="none" stroke="#0c60a7" stroke-width="1.25" stroke-linecap="round"/><path d="M267.06593,192.35932l8.30434,0.91757l-0.92051,7.20785l2.35126,0.62029l-1.08556,4.0755l-1.87921,0.16165l2.35336,1.40344l-0.3032,3.76019l-10.17973,0.65385l1.07799,-6.89497l3.59884,-1.41944l2.02914,-2.66829l-0.63411,-2.81784l-2.65993,1.10363l-0.61604,3.91759l-2.9728,1.26112l-0.75504,10.4968l-2.8107,3.29689l-4.87382,-6.72236z" fill="none" stroke="#0c60a7" stroke-width="1.25" stroke-linecap="round"/><path d="M250.17096,190.83075l-5.97713,12.96479l-35.88789,-17.70831l11.51666,-16.67936z" fill="none" stroke="#0c60a7" stroke-width="1.25" stroke-linecap="round"/><path d="M222.93815,118.16867c12.04059,-12.71844 40.27975,-16.57559 40.27975,-16.57559c0,0 28.55236,6.30266 37.41194,16.15597c8.85958,9.85331 8.54111,35.86781 8.54111,35.86781c0,0 -14.88693,-1.83076 -23.64259,1.11902c-8.7557,2.94978 -20.01349,14.15251 -20.01349,14.15251l-4.43913,-0.15285c0,0 -18.76616,-11.09251 -25.79231,-13.23148c-7.02614,-2.13897 -20.26758,0.05437 -20.26758,0.05437c0,0 -4.11825,-24.67141 7.92234,-37.38976z" fill="none" stroke="#0c60a7" stroke-width="1.25" stroke-linecap="round"/><path d="M250.96527,192.60388l20.33453,0.12529c0,0 18.55915,-7.37197 22.95301,-12.47081c10.36824,-12.03177 7.35256,-27.53592 7.35256,-27.53592l7.60267,-0.20023c0,0 0.03153,15.16949 -9.82849,27.36272c-9.86002,12.19323 -28.25082,15.00287 -28.25082,15.00287l-19.97989,0.23344c0,0 -18.60974,-6.38585 -27.15644,-17.01237c-8.54669,-10.62652 -9.37899,-24.25382 -9.37899,-24.25382l6.1896,0.34307c0,0 2.09161,17.74395 7.31566,24.61904c5.22405,6.87509 22.84655,13.78671 22.84655,13.78671z" fill="none" stroke="#0c60a7" stroke-width="1.25" stroke-linecap="round"/><path d="M248.31857,107.49484c0.18063,-7.02699 11.90847,-32.88002 11.90847,-32.88002c0,0 11.68904,24.6629 12.36732,31.67233c0.5963,6.16279 -4.0523,35.59084 -11.9008,35.73636c-7.27113,0.1349 -12.541,-28.0707 -12.37498,-34.52867z" fill="none" stroke="#0c60a7" stroke-width="1.25" stroke-linecap="round"/><path d="M187.76911,194.75171l12.14928,-35.71213l8.47484,11.16672l3.2087,15.61439l-13.89767,13.5491z" fill="none" stroke="#0c60a7" stroke-width="1.25" stroke-linecap="round"/><path d="M158.79195,253.52131l30.24955,-56.66175l-8.37177,27.25715l-12.37794,29.16802l4.87161,5.89836l9.49644,-1.50335l1.06521,3.58619l5.06406,-1.06917l2.54364,3.79337l9.50381,1.24124l-0.40464,6.5459l6.54363,-0.4398l0.00963,3.58903l5.06916,0.83089l-5.05897,2.96928l1.05784,0.84165l8.01971,-1.07711l3.79055,-3.59922l6.34546,4.41652l-10.75353,5.09578l-7.59978,0.23153l-0.42673,-1.68784l-38.89198,-16.99654z" fill="none" stroke="#0c60a7" stroke-width="1.25" stroke-linecap="round"/><path d="M190.13014,269.0769c10.01049,5.03587 17.20085,10.95649 16.06011,13.22409c-1.14074,2.26751 -10.18054,0.02337 -20.19103,-5.0125c-10.0105,-5.03591 -17.20085,-10.9565 -16.06011,-13.2241c1.14074,-2.26756 10.18054,-0.02341 20.19104,5.01246z" fill="none" stroke="#0c60a7" stroke-width="1.25" stroke-linecap="butt"/><path d="M231.74507,218.06823l18.55304,-9.55025l-14.5186,18.19541l-4.52629,44.13657l-9.78246,2.83074c0,0 -0.1545,-12.61741 -3.83369,-13.4352c-3.203,-0.71191 -9.87357,7.33994 -12.32606,5.83585c-5.01894,-3.07812 -1.34293,-12.68245 -5.20627,-13.95872c-2.90471,-0.95959 -8.61039,4.73964 -12.35916,3.64466c-4.51354,-1.31833 -7.13117,-9.35079 -11.03779,-9.29291c-4.33802,0.0642 -8.21335,3.64292 -8.21335,3.64292l19.07032,-52.83157l4.00282,-3.17755l2.97773,8.22575l22.78569,-5.7614z" fill="none" stroke="#0c60a7" stroke-width="1.25" stroke-linecap="round"/><path d="M219.45576,201.63371l15.28224,30.36046l16.00492,-15.03254l-24.1089,63.40119l-7.6162,-5.89099l5.23612,-15.63704l-10.99809,-7.35975l-11.90087,-29.10289z" fill="none" stroke="#0c60a7" stroke-width="1.25" stroke-linecap="round"/><path d="M275.40682,206.90436l-5.02626,-5.15561l8.91617,-4.56641l-3.73615,8.62515" fill="#00b5ef" stroke="#000000" stroke-width="0" stroke-linecap="round"/><path d="M273.78339,200.94148l16.92299,16.14058l0.93734,4.62205l-4.58979,12.96111l-14.79915,-0.19153l-10.22671,-19.62698z" fill="url(#color-1)" stroke="#000000" stroke-width="0" stroke-linecap="round"/><path d="M291.17255,218.46823l0.24115,3.69898l-4.82412,11.80557l-12.25317,0.72659" fill="none" stroke="#19c2fb" stroke-width="0.25" stroke-linecap="round"/><path d="M262.28413,219.94057c0,0 -3.31275,22.88483 -13.71142,27.1353c-6.50126,2.22507 -12.68888,-0.43591 -12.68888,-0.43591l2.45076,-20.68287l15.46554,-15.54874z" fill="url(#color-2)" stroke="#000000" stroke-width="0" stroke-linecap="round"/><path d="M273.54033,194.28965c0.02254,8.40274 -6.80843,13.64529 -15.96349,13.66985c-3.30099,0.00886 -7.27379,5.61935 -9.95666,4.36407c-4.75786,-2.22617 -7.21867,-12.57199 -7.23309,-17.94499c-0.02254,-8.40274 7.38074,-15.23445 16.5358,-15.25901c9.15502,-0.02456 16.5949,6.76725 16.61744,15.17007z" fill="url(#color-3)" stroke="none" stroke-width="0" stroke-linecap="butt"/><path d="M267.06593,192.35932l8.30434,0.91757l-0.92051,7.20785l2.35126,0.62029l-1.08556,4.0755l-1.87921,0.16165l2.35336,1.40344l-0.3032,3.76019l-10.17973,0.65385l1.07799,-6.89497l3.59884,-1.41944l2.02914,-2.66829l-0.63411,-2.81784l-2.65993,1.10363l-0.61604,3.91759l-2.9728,1.26112l-0.75504,10.4968l-2.8107,3.29689l-4.87382,-6.72236z" fill="#eff7ff" stroke="#000000" stroke-width="0" stroke-linecap="round"/><path d="M263.21384,216.17869l-1.24637,2.50959l-2.51,-1.40301l-1.88934,-3.59758l-5.95476,-0.92387l3.43303,-4.865l3.91591,-0.01051z" fill="#a1dffe" stroke="#25d1fe" stroke-width="0" stroke-linecap="round"/><path d="M285.1146,149.95666c4.99043,0.34156 16.64627,2.30208 16.64627,2.30208c0,0 -1.82,9.94528 -2.90648,16.55609c-2.85134,17.34882 -23.46891,19.92203 -23.46891,19.92203c0,0 -1.68347,3.44447 -3.65089,4.63712c-1.55045,0.93989 -15.916,0.71501 -18.12311,0.24143c-2.20711,-0.47358 -4.25412,-4.61591 -4.25412,-4.61591c0,0 -21.03963,-0.07391 -25.31481,-21.33358c-0.81342,-4.04503 -1.96756,-12.97671 -1.96756,-12.97671c0,0 9.23242,-5.03536 16.18804,-4.60683c14.51461,0.89433 35.01721,0.2917 46.85151,-0.12568z" fill="url(#color-4)" stroke="#347db1" stroke-width="0" stroke-linecap="round"/><path d="M250.17096,190.83075l-5.97713,12.96479l-35.88789,-17.70831l11.51666,-16.67936z" fill="#9eedff" stroke="#000000" stroke-width="0" stroke-linecap="round"/><path d="M249.3276,165.18554c5.35368,5.84357 5.74039,14.20268 0.8637,18.67052c-4.87664,4.46785 -13.16997,3.35256 -18.5237,-2.49105c-5.35369,-5.84357 -5.7404,-14.20267 -0.86371,-18.67052c4.87664,-4.46785 13.16997,-3.35256 18.52371,2.49105z" fill="#fafaf9" stroke="#549bb6" stroke-width="0.125" stroke-linecap="butt"/><path d="M290.81415,161.76228c4.90054,4.44162 4.55873,12.80263 -0.76352,18.67489c-5.32225,5.87221 -13.60954,7.03197 -18.51008,2.5904c-4.90054,-4.44162 -4.55872,-12.80263 0.76353,-18.67488c5.32225,-5.87221 13.60953,-7.03198 18.51007,-2.5904z" data-paper-data="{&quot;index&quot;:null}" fill="#fafaf9" stroke="#549bb6" stroke-width="0.125" stroke-linecap="butt"/><path d="M248.87773,177.34209c0.28665,2.70018 -0.98317,5.04852 -2.8362,5.24526c-1.85304,0.1967 -3.58761,-1.83271 -3.87426,-4.53284c-0.28665,-2.70018 0.98316,-5.04853 2.8362,-5.24526c1.85304,-0.1967 3.58761,1.83272 3.87427,4.53289z" fill="url(#color-5)" stroke="none" stroke-width="0" stroke-linecap="butt"/><path d="M276.86196,171.95256c1.85406,0.18675 3.1365,2.52829 2.8643,5.22997c-0.27216,2.70167 -1.99583,4.7404 -3.84989,4.55356c-1.85406,-0.18675 -3.1365,-2.5283 -2.8643,-5.22997c0.27216,-2.70167 1.99583,-4.7404 3.84989,-4.55361z" data-paper-data="{&quot;index&quot;:null}" fill="url(#color-6)" stroke="none" stroke-width="0" stroke-linecap="butt"/><path d="M223.36911,153.33742c0,0 1.09955,17.39977 6.57337,25.04428c5.47377,7.64442 17.66383,8.71953 18.87861,9.94656c1.68381,1.70077 2.29198,2.56463 2.29198,2.56463l19.70792,-0.3385c0,0 2.67399,-2.28433 4.56097,-3.43986c1.88698,-1.15553 12.45304,-3.05129 15.97323,-8.32627c7.87188,-11.79608 7.40752,-26.79554 7.40752,-26.79554l5.66033,0.1964c0,0 0.57264,16.10521 -6.21422,26.00949c-6.78681,9.90428 -24.8072,16.06212 -24.8072,16.06212l-25.13651,-0.2182c0,0 -24.29488,-14.16416 -24.99762,-19.4408c-0.71371,-5.35911 -2.91249,-20.93877 -2.91249,-20.93877z" fill="#007ad7" stroke="#000000" stroke-width="0" stroke-linecap="round"/><path d="M222.93815,118.16867c12.04059,-12.71844 40.27975,-16.57559 40.27975,-16.57559c0,0 28.55236,6.30266 37.41194,16.15597c8.85958,9.85331 8.54111,35.86781 8.54111,35.86781c0,0 -14.88693,-1.83076 -23.64259,1.11902c-8.7557,2.94978 -20.01349,14.15251 -20.01349,14.15251l-4.43913,-0.15285c0,0 -18.76616,-11.09251 -25.79231,-13.23148c-7.02614,-2.13897 -20.26758,0.05437 -20.26758,0.05437c0,0 -4.11825,-24.67141 7.92234,-37.38976z" fill="url(#color-7)" stroke="#000000" stroke-width="0" stroke-linecap="round"/><path d="M250.96527,192.60388l20.33453,0.12529c0,0 18.55915,-7.37197 22.95301,-12.47081c10.36824,-12.03177 7.35256,-27.53592 7.35256,-27.53592l7.60267,-0.20023c0,0 0.03153,15.16949 -9.82849,27.36272c-9.86002,12.19323 -28.25082,15.00287 -28.25082,15.00287l-19.97989,0.23344c0,0 -18.60974,-6.38585 -27.15644,-17.01237c-8.54669,-10.62652 -9.37899,-24.25382 -9.37899,-24.25382l6.1896,0.34307c0,0 2.09161,17.74395 7.31566,24.61904c5.22405,6.87509 22.84655,13.78671 22.84655,13.78671z" fill="#00c2fa" stroke="#000000" stroke-width="0" stroke-linecap="round"/><path d="M223.16741,124.92392l3.36773,-3.80923l10.12072,-4.88294l43.70073,-0.53943l18.5967,6.70597l-5.8791,12.04972l-9.9368,-5.25142l-10.11171,8.26091l-14.77161,2.57309l-11.8329,-3.76845l-3.83302,-12.23481l-12.42947,9.95607z" fill="#019bf5" stroke="#000000" stroke-width="0" stroke-linecap="round"/><path d="M254.40124,120.38799l-14.0173,12.93466l-8.48931,-7.29194l6.31766,-12.91401l13.4584,-6.00338z" fill="#0090df" stroke="#000000" stroke-width="0" stroke-linecap="round"/><path d="M268.48992,105.16808l14.37568,6.32031l6.80588,13.72505l-9.00451,7.81886l-15.01089,-13.70303z" data-paper-data="{&quot;index&quot;:null}" fill="#0090df" stroke="#000000" stroke-width="0" stroke-linecap="round"/><path d="M257.26852,165.79018l-19.81603,-12.35607" fill="none" stroke="#95e3fb" stroke-width="0.25" stroke-linecap="round"/><path d="M266.08807,168.46417l8.78485,-10.27471l8.61795,-5.41842" fill="none" stroke="#95e3fb" stroke-width="0.25" stroke-linecap="round"/><path d="M248.31857,107.49484c0.18063,-7.02699 11.90847,-32.88002 11.90847,-32.88002c0,0 11.68904,24.6629 12.36732,31.67233c0.5963,6.16279 -4.0523,35.59084 -11.9008,35.73636c-7.27113,0.1349 -12.541,-28.0707 -12.37498,-34.52867z" fill="#00b4f4" stroke="#000000" stroke-width="0" stroke-linecap="round"/><path d="M259.83125,140.02636l0.49157,-29.7074" fill="none" stroke="#abeafb" stroke-width="0.25" stroke-linecap="round"/><path d="M251.72779,100.6304l6.53203,-14.01362" fill="none" stroke="#abeafb" stroke-width="0.25" stroke-linecap="round"/><path d="M267.43918,101.15956l-5.75096,-14.26635" fill="none" stroke="#abeafb" stroke-width="0.25" stroke-linecap="round"/><path d="M259.6826,84.61353l0.55287,-6.85673" fill="none" stroke="#abeafb" stroke-width="0.25" stroke-linecap="round"/><path d="M259.53976,84.61392c1.02537,-0.00275 1.85885,0.82621 1.8616,1.85163c0.00275,1.02537 -0.82621,1.85885 -1.85163,1.8616c-1.02537,0.00275 -1.8589,-0.82622 -1.86165,-1.85164c-0.00275,-1.02537 0.82626,-1.85884 1.85168,-1.86159z" fill="#fdffff" stroke="none" stroke-width="0" stroke-linecap="butt"/><path d="M260.31746,108.31955c0.63101,-0.00169 1.14394,0.50844 1.14563,1.1395c0.00169,0.63102 -0.50844,1.14389 -1.1395,1.14558c-0.63101,0.00169 -1.14389,-0.50844 -1.14558,-1.13945c-0.00169,-0.63102 0.50844,-1.14393 1.13945,-1.14563z" fill="#fdffff" stroke="none" stroke-width="0" stroke-linecap="butt"/><path d="M277.87125,133.6443l-6.3557,-8.2167" fill="none" stroke="#38adf0" stroke-width="0.25" stroke-linecap="round"/><path d="M289.88188,124.95609l-8.63157,9.10135" fill="none" stroke="#38adf0" stroke-width="0.25" stroke-linecap="round"/><path d="M241.97917,133.10724l7.58052,-7.40959" fill="none" stroke="#38adf0" stroke-width="0.25" stroke-linecap="round"/><path d="M231.19849,128.06923l9.09115,4.83139" fill="none" stroke="#38adf0" stroke-width="0.25" stroke-linecap="round"/><path d="M243.88211,134.15772l-4.01019,0.433" fill="none" stroke="#5fc3f3" stroke-width="0.25" stroke-linecap="round"/><path d="M276.81911,134.91385l2.95569,-0.00793" fill="none" stroke="#5fc3f3" stroke-width="0.25" stroke-linecap="round"/><path d="M274.42536,108.31901l8.66781,4.41029l6.99528,10.5373" fill="none" stroke="#28a2ef" stroke-width="0.25" stroke-linecap="round"/><path d="M231.19392,126.38026l4.82574,-11.2024l12.4351,-7.8449" fill="none" stroke="#28a2ef" stroke-width="0.25" stroke-linecap="round"/><path d="M226.77282,131.03685l-8.42954,5.72289l0.01926,7.1781l-0.25305,-15.62232l6.30586,-10.36192" fill="none" stroke="#7ed7fa" stroke-width="0.25" stroke-linecap="round"/><path d="M269.49155,157.9458l-5.08502,-6.74227" fill="none" stroke="#54e2ff" stroke-width="0.25" stroke-linecap="round"/><path d="M252.80912,156.51268l-2.31155,4.01755" fill="none" stroke="#a3edff" stroke-width="0.25" stroke-linecap="round"/><path d="M253.65073,155.45479l4.20878,-5.07822" fill="none" stroke="#60dcff" stroke-width="0.25" stroke-linecap="round"/><path d="M269.07676,160.69148l5.06689,-0.0136" fill="none" stroke="#dff7ff" stroke-width="0.25" stroke-linecap="round"/><path d="M269.07336,159.42476l1.27522,3.16339l-5.47555,5.08162" fill="none" stroke="#98e9fc" stroke-width="0.25" stroke-linecap="round"/><path d="M240.13688,154.64659l-5.07369,-2.51986" fill="none" stroke="#fcffff" stroke-width="0.25" stroke-linecap="round"/><path d="M247.53958,159.69367l3.59469,2.10162" fill="none" stroke="#fcffff" stroke-width="0.25" stroke-linecap="round"/><path d="M237.80716,151.90823l-0.64867,-5.69853" fill="none" stroke="#cdf5fe" stroke-width="0.25" stroke-linecap="round"/><path d="M239.25549,140.92604l-2.10106,3.80584" fill="none" stroke="#5ed5fa" stroke-width="0.25" stroke-linecap="round"/><path d="M284.6668,148.40462l0.01302,4.85575" fill="none" stroke="#d5f7fe" stroke-width="0.25" stroke-linecap="round"/><path d="M284.4516,146.92732l-2.9715,-5.90345" fill="none" stroke="#8ee6fa" stroke-width="0.25" stroke-linecap="round"/><path d="M302.83328,152.15608l-18.36804,-0.16187" fill="none" stroke="#b8e1f9" stroke-width="0.25" stroke-linecap="round"/><path d="M301.09731,134.63758l2.11687,2.10558" fill="none" stroke="#e6f7fe" stroke-width="0.25" stroke-linecap="round"/><path d="M291.36763,127.90781l8.45955,5.46644" fill="none" stroke="#81cef7" stroke-width="0.25" stroke-linecap="round"/><path d="M287.32631,116.72925l7.60147,0.40181" fill="none" stroke="#ace2f9" stroke-width="0.25" stroke-linecap="round"/><path d="M303.81301,123.86313l-6.1423,-7.37277" fill="none" stroke="#ace2f9" stroke-width="0.25" stroke-linecap="round"/><path d="M300.97848,169.05079l-1.04539,3.80296" fill="none" stroke="#b4ffff" stroke-width="0.25" stroke-linecap="round"/><path d="M226.90365,179.80557c0,0 -4.94629,-6.13371 -6.27667,-10.83639c-1.33038,-4.70267 -1.18332,-15.53385 -1.18332,-15.53385" fill="none" stroke="#7bd7f6" stroke-width="0.25" stroke-linecap="round"/><path d="M189.75349,278.42415c-18.33384,-6.50106 -30.41689,-19.60969 -26.98828,-29.27891c3.42861,-9.66922 21.07062,-12.23751 39.40446,-5.73645c18.33384,6.50106 30.41689,19.60965 26.98828,29.27886c-1.53714,4.3349 -4.78422,12.68854 -4.78422,12.68854c0,0 -10.30229,0.23541 -20.19878,-1.70301c-5.53768,-1.0847 -10.79243,-3.96227 -14.42142,-5.24908z" fill="#008ce4" stroke="none" stroke-width="0" stroke-linecap="butt"/><path d="M219.44026,152.16869l13.72395,0.38539" fill="none" stroke="#9ef0fc" stroke-width="0.25" stroke-linecap="round"/><path d="M187.76911,194.75171l12.14928,-35.71213l8.47484,11.16672l3.2087,15.61439l-13.89767,13.5491z" fill="url(#color-8)" stroke="#000000" stroke-width="0" stroke-linecap="round"/><path d="M218.80348,150.90363l0.40299,-7.17924" fill="none" stroke="#7ed7fa" stroke-width="0.25" stroke-linecap="round"/><path d="M225.89828,119.84975l6.9562,-4.03001" fill="none" stroke="#07abeb" stroke-width="0.25" stroke-linecap="round"/><path d="M158.79195,253.52131l30.24955,-56.66175l-8.37177,27.25715l-12.37794,29.16802l4.87161,5.89836l9.49644,-1.50335l1.06521,3.58619l5.06406,-1.06917l2.54364,3.79337l9.50381,1.24124l-0.40464,6.5459l6.54363,-0.4398l0.00963,3.58903l5.06916,0.83089l-5.05897,2.96928l1.05784,0.84165l8.01971,-1.07711l3.79055,-3.59922l6.34546,4.41652l-10.75353,5.09578l-7.59978,0.23153l-0.42673,-1.68784l-38.89198,-16.99654z" fill="url(#color-9)" stroke="#000000" stroke-width="0" stroke-linecap="round"/><path d="M186.7208,197.49913l12.41301,-16.0785l2.75026,2.10385l0.85807,5.06463l4.4177,-5.92327l4.64522,0.19869l30.65661,16.38529l5.51514,9.69682l8.23255,-0.44433l-21.04236,26.02445l-41.53277,-29.87148z" fill="#0090ea" stroke="#000000" stroke-width="0" stroke-linecap="round"/><path d="M300.71863,150.89502l0.82749,-6.33588" fill="none" stroke="#a3e8fd" stroke-width="0.25" stroke-linecap="round"/><path d="M298.67656,176.65736l-3.15829,3.17529" fill="none" stroke="#5aa2e2" stroke-width="0.25" stroke-linecap="round"/><path d="M302.02844,166.93675l0.17716,-12.66781" fill="none" stroke="#76beed" stroke-width="0.25" stroke-linecap="round"/><path d="M190.13009,269.0769c10.01049,5.03587 17.20085,10.95649 16.06011,13.22409c-1.14074,2.26751 -10.18054,0.02337 -20.19103,-5.0125c-10.0105,-5.03591 -17.20085,-10.9565 -16.06011,-13.2241c1.14074,-2.26756 10.18054,-0.02341 20.19104,5.01246z" fill="#fcfeff" stroke="none" stroke-width="0" stroke-linecap="butt"/><path d="M231.74502,218.06823l18.55304,-9.55025l-14.5186,18.19541l-4.52629,44.13657l-9.78246,2.83074c0,0 -0.15451,-12.61741 -3.8337,-13.4352c-3.203,-0.71191 -9.87356,7.33994 -12.32605,5.83585c-5.01894,-3.07812 -1.34294,-12.68245 -5.20627,-13.95872c-2.90471,-0.95959 -8.61039,4.73964 -12.35916,3.64466c-4.51354,-1.31833 -7.13116,-9.35079 -11.03778,-9.29291c-4.33802,0.0642 -8.21336,3.64292 -8.21336,3.64292l19.07032,-52.83157l4.00282,-3.17755l2.97773,8.22575l22.78569,-5.7614z" fill="#00a9f7" stroke="#e9f4fd" stroke-width="0" stroke-linecap="round"/><path d="M219.45572,201.63371l15.28224,30.36046l16.00491,-15.03254l-24.1089,63.40119l-7.6162,-5.89099l5.23612,-15.63704l-10.99809,-7.35975l-11.90087,-29.10289z" fill="#00cdff" stroke="#000000" stroke-width="0" stroke-linecap="round"/><path d="M201.28704,275.78626l-2.74001,1.69633l-2.74572,-0.41488l1.04425,-4.22524l-9.51683,-6.09699l-3.15659,3.80867l-4.01585,-1.6782l-4.86878,-4.84273l-2.32684,-1.68273l15.41911,2.7032l13.11497,9.46529z" fill="#a4feff" stroke="#000000" stroke-width="0" stroke-linecap="round"/><path d="M200.03271,201.68586l-4.5546,33.58058l-5.45685,12.04858l-3.99603,5.711" fill="none" stroke="#50ebfd" stroke-width="0.5" stroke-linecap="round"/><path d="M191.50761,250.47784l-2.30984,4.65088l-5.06576,0.43579" fill="none" stroke="#fdffff" stroke-width="0.5" stroke-linecap="round"/><path d="M210.94483,255.70373l19.33244,-33.83132l4.24393,8.01122l17.06337,-13.97984l-5.03461,12.04745l-16.63599,15.87877l-3.80924,-3.36774l-11.35351,17.55354z" fill="#5ff9ff" stroke="#5ff9ff" stroke-width="0" stroke-linecap="round"/><path d="M203.94794,244.53305l-11.17011,7.20812l16.41017,-21.36729l-2.46775,24.49674z" fill="url(#color-10)" stroke="#000000" stroke-width="0" stroke-linecap="round"/><path d="M219.82043,258.84673l-12.00728,9.95493l17.44767,-28.12598l4.02034,3.36717l-7.75821,19.86625z" fill="url(#color-11)" stroke="#000000" stroke-width="0" stroke-linecap="round"/><path d="M188.05153,221.3523l-2.24925,27.24072l-3.62528,-13.502l-13.05489,12.91341l16.39317,-27.70092z" fill="url(#color-12)" stroke="#000000" stroke-width="0" stroke-linecap="round"/><path d="M176.45581,227.29478l-10.73031,13.7517l6.92221,-16.69724z" fill="url(#color-13)" stroke="#000000" stroke-width="0" stroke-linecap="round"/><path d="M226.20097,276.35269l-5.28819,-3.78597l16.83637,-19.8906z" fill="url(#color-14)" stroke="#000000" stroke-width="0" stroke-linecap="round"/><path d="M202.82657,220.04593l18.10933,-17.57166" fill="none" stroke="#58f2ff" stroke-width="0.25" stroke-linecap="round"/><path d="M249.66067,207.04185l-16.20926,17.56661" fill="none" stroke="#0eb9f5" stroke-width="0.5" stroke-linecap="round"/><path d="M199.60145,198.30902l-4.87104,-5.6872" fill="none" stroke="#00b7f3" stroke-width="0.5" stroke-linecap="round"/><path d="M191.97902,190.09577l-0.00906,-3.37793" fill="none" stroke="#b6cee4" stroke-width="0.5" stroke-linecap="round"/><path d="M193.65944,186.92445l0.22304,4.43299" fill="none" stroke="#50bef0" stroke-width="0.5" stroke-linecap="round"/><path d="M186.72533,199.18809l-4.82744,10.56902" fill="none" stroke="#33c2e4" stroke-width="0.5" stroke-linecap="round"/><path d="M184.84566,206.79349l0.20435,-2.53401" fill="none" stroke="#60fcff" stroke-width="0.5" stroke-linecap="round"/><path d="M245.63703,202.40801l-7.41242,-8.6361l-7.60487,-1.66858l-10.79602,-10.73825l-10.34663,-0.60564l-1.93069,-11.39541l-8.89534,-10.5322" fill="none" stroke="#e9f4fd" stroke-width="0.5" stroke-linecap="round"/><path d="M246.25843,197.97276l-7.62016,-7.36882l-7.39259,-1.2469l-8.25747,-8.84498l-11.61619,-1.65781l-1.71501,-9.70701l-4.02657,-5.68948l-5.08502,-6.74222" fill="none" stroke="#b8f1ff" stroke-width="0.5" stroke-linecap="round"/><path d="M247.53596,201.98063l-9.10361,-9.47606l-7.18263,-1.6697l-10.58204,-9.68323l-10.55826,-0.81617l-1.71671,-10.34032l-8.89992,-12.22121" fill="none" stroke="#7fdcfb" stroke-width="0.5" stroke-linecap="round"/><path d="M210.98221,269.63765l-9.09568,-6.52041" fill="none" stroke="#cce3f9" stroke-width="0.5" stroke-linecap="round"/><path d="M253.02319,212.75999l4.69995,0.30069l1.73438,4.22459l3.76389,1.71294" fill="none" stroke="#25d1fe" stroke-width="0.3" stroke-linecap="round"/></g></g></svg>