<svg version="1.1" xmlns="http://www.w3.org/2000/svg" xmlns:xlink="http://www.w3.org/1999/xlink" width="122.81503" height="150.60009" viewBox="0,0,122.81503,150.60009"><defs><radialGradient cx="257.83571" cy="125.03627" r="5.09301" gradientUnits="userSpaceOnUse" id="color-1"><stop offset="0" stop-color="#dedada"/><stop offset="1" stop-color="#969696"/></radialGradient><radialGradient cx="254.86991" cy="131.31961" r="7.38831" gradientUnits="userSpaceOnUse" id="color-2"><stop offset="0" stop-color="#5b5765"/><stop offset="1" stop-color="#3c3b4b"/></radialGradient><radialGradient cx="222.21505" cy="124.37125" r="5.093" gradientUnits="userSpaceOnUse" id="color-3"><stop offset="0" stop-color="#dedada"/><stop offset="1" stop-color="#969696"/></radialGradient><radialGradient cx="224.51579" cy="127.66191" r="7.38835" gradientUnits="userSpaceOnUse" id="color-4"><stop offset="0" stop-color="#5b5765"/><stop offset="1" stop-color="#3c3b4b"/></radialGradient><radialGradient cx="283.92767" cy="153.35644" r="6.30477" gradientUnits="userSpaceOnUse" id="color-5"><stop offset="0" stop-color="#5b5765"/><stop offset="1" stop-color="#3c3b4b"/></radialGradient><radialGradient cx="197.81356" cy="139.49912" r="7.02853" gradientUnits="userSpaceOnUse" id="color-6"><stop offset="0" stop-color="#dedada"/><stop offset="1" stop-color="#969696"/></radialGradient><radialGradient cx="282.3434" cy="140.10434" r="7.02853" gradientUnits="userSpaceOnUse" id="color-7"><stop offset="0" stop-color="#dedada"/><stop offset="1" stop-color="#969696"/></radialGradient><radialGradient cx="204.53472" cy="146.33798" r="10.19619" gradientUnits="userSpaceOnUse" id="color-8"><stop offset="0" stop-color="#2b2b34"/><stop offset="1" stop-color="#181921"/></radialGradient><radialGradient cx="274.99974" cy="146.33798" r="10.19619" gradientUnits="userSpaceOnUse" id="color-9"><stop offset="0" stop-color="#2b2b34"/><stop offset="1" stop-color="#181921"/></radialGradient><radialGradient cx="196.72059" cy="154.02147" r="6.30476" gradientUnits="userSpaceOnUse" id="color-10"><stop offset="0" stop-color="#5b5765"/><stop offset="1" stop-color="#3c3b4b"/></radialGradient><radialGradient cx="219.78936" cy="139.32418" r="6.11552" gradientUnits="userSpaceOnUse" id="color-11"><stop offset="0" stop-color="#707277"/><stop offset="1" stop-color="#4d4d4b"/></radialGradient><radialGradient cx="196.62998" cy="163.6716" r="5.84325" gradientUnits="userSpaceOnUse" id="color-12"><stop offset="0" stop-color="#707277"/><stop offset="1" stop-color="#4d4d4b"/></radialGradient><radialGradient cx="204.31992" cy="165.90558" r="8.47669" gradientUnits="userSpaceOnUse" id="color-13"><stop offset="0" stop-color="#ff784e"/><stop offset="1" stop-color="#f11c0f"/></radialGradient><radialGradient cx="198.66244" cy="127.61535" r="6.44889" gradientUnits="userSpaceOnUse" id="color-14"><stop offset="0" stop-color="#dedada"/><stop offset="1" stop-color="#969696"/></radialGradient><radialGradient cx="281.70677" cy="128.00837" r="6.59383" gradientUnits="userSpaceOnUse" id="color-15"><stop offset="0" stop-color="#dedada"/><stop offset="1" stop-color="#969696"/></radialGradient><radialGradient cx="240.00013" cy="112.51647" r="7.35605" gradientUnits="userSpaceOnUse" id="color-16"><stop offset="0" stop-color="#dedada"/><stop offset="1" stop-color="#969696"/></radialGradient><radialGradient cx="193.05313" cy="190.02547" r="7.46534" gradientUnits="userSpaceOnUse" id="color-17"><stop offset="0" stop-color="#6d6f73"/><stop offset="1" stop-color="#4d4d4b"/></radialGradient><radialGradient cx="203.40058" cy="184.95929" r="8.56136" gradientUnits="userSpaceOnUse" id="color-18"><stop offset="0" stop-color="#5b5765"/><stop offset="1" stop-color="#3c3b4b"/></radialGradient><radialGradient cx="276.44629" cy="188.8387" r="8.56136" gradientUnits="userSpaceOnUse" id="color-19"><stop offset="0" stop-color="#5b5765"/><stop offset="1" stop-color="#3c3b4b"/></radialGradient><radialGradient cx="284.63556" cy="167.16882" r="5.84325" gradientUnits="userSpaceOnUse" id="color-20"><stop offset="0" stop-color="#707277"/><stop offset="1" stop-color="#4d4d4b"/></radialGradient><radialGradient cx="257.97654" cy="140.57112" r="6.11551" gradientUnits="userSpaceOnUse" id="color-21"><stop offset="0" stop-color="#707277"/><stop offset="1" stop-color="#4d4d4b"/></radialGradient><radialGradient cx="254.62561" cy="212.97867" r="8.56137" gradientUnits="userSpaceOnUse" id="color-22"><stop offset="0" stop-color="#5b5765"/><stop offset="1" stop-color="#3c3b4b"/></radialGradient><radialGradient cx="258.13103" cy="224.03978" r="7.46534" gradientUnits="userSpaceOnUse" id="color-23"><stop offset="0" stop-color="#707277"/><stop offset="1" stop-color="#4d4d4b"/></radialGradient><radialGradient cx="260.75479" cy="230.72322" r="6.01013" gradientUnits="userSpaceOnUse" id="color-24"><stop offset="0" stop-color="#f70006"/><stop offset="1" stop-color="#9f1b17"/></radialGradient><radialGradient cx="224.07376" cy="215.88828" r="8.56136" gradientUnits="userSpaceOnUse" id="color-25"><stop offset="0" stop-color="#5b5765"/><stop offset="1" stop-color="#3c3b4b"/></radialGradient><radialGradient cx="220.56868" cy="226.9494" r="7.46534" gradientUnits="userSpaceOnUse" id="color-26"><stop offset="0" stop-color="#707277"/><stop offset="1" stop-color="#4d4d4b"/></radialGradient><radialGradient cx="217.94479" cy="233.63279" r="6.01013" gradientUnits="userSpaceOnUse" id="color-27"><stop offset="0" stop-color="#f70006"/><stop offset="1" stop-color="#9f1b17"/></radialGradient><radialGradient cx="239.28774" cy="208.37681" r="11.97052" gradientUnits="userSpaceOnUse" id="color-28"><stop offset="0" stop-color="#2b2b34"/><stop offset="1" stop-color="#181921"/></radialGradient><radialGradient cx="269.5046" cy="198.94874" r="10.29801" gradientUnits="userSpaceOnUse" id="color-29"><stop offset="0" stop-color="#2b2b34"/><stop offset="1" stop-color="#181921"/></radialGradient><radialGradient cx="239.39474" cy="231.21486" r="9.38096" gradientUnits="userSpaceOnUse" id="color-30"><stop offset="0" stop-color="#f70006"/><stop offset="1" stop-color="#9f1b17"/></radialGradient><radialGradient cx="278.79116" cy="209.36749" r="8.97964" gradientUnits="userSpaceOnUse" id="color-31"><stop offset="0" stop-color="#dedada"/><stop offset="1" stop-color="#969696"/></radialGradient><radialGradient cx="284.95761" cy="215.41421" r="6.52649" gradientUnits="userSpaceOnUse" id="color-32"><stop offset="0" stop-color="#f70006"/><stop offset="1" stop-color="#9f1b17"/></radialGradient><radialGradient cx="186.31936" cy="192.51754" r="6.37386" gradientUnits="userSpaceOnUse" id="color-33"><stop offset="0" stop-color="#b41517"/><stop offset="1" stop-color="#8a3834"/></radialGradient><radialGradient cx="187.62637" cy="191.60771" r="6.37395" gradientUnits="userSpaceOnUse" id="color-34"><stop offset="0" stop-color="#4d4d4b"/><stop offset="1" stop-color="#707277"/></radialGradient><radialGradient cx="201.01398" cy="209.16581" r="8.97963" gradientUnits="userSpaceOnUse" id="color-35"><stop offset="0" stop-color="#b4b2b4"/><stop offset="1" stop-color="#999899"/></radialGradient><radialGradient cx="194.84741" cy="215.21244" r="6.52648" gradientUnits="userSpaceOnUse" id="color-36"><stop offset="0" stop-color="#f70006"/><stop offset="1" stop-color="#9f1b17"/></radialGradient><radialGradient cx="209.88203" cy="198.51638" r="10.29801" gradientUnits="userSpaceOnUse" id="color-37"><stop offset="0" stop-color="#2b2b34"/><stop offset="1" stop-color="#181921"/></radialGradient><radialGradient cx="254.62565" cy="201.04185" r="8.56136" gradientUnits="userSpaceOnUse" id="color-38"><stop offset="0" stop-color="#5b5765"/><stop offset="1" stop-color="#3c3b4b"/></radialGradient><radialGradient cx="258.13106" cy="212.10296" r="7.46534" gradientUnits="userSpaceOnUse" id="color-39"><stop offset="0" stop-color="#707277"/><stop offset="1" stop-color="#4d4d4b"/></radialGradient><radialGradient cx="260.75483" cy="218.7864" r="6.01013" gradientUnits="userSpaceOnUse" id="color-40"><stop offset="0" stop-color="#f70006"/><stop offset="1" stop-color="#9f1b17"/></radialGradient><radialGradient cx="196.27856" cy="199.18187" r="7.46534" gradientUnits="userSpaceOnUse" id="color-41"><stop offset="0" stop-color="#6d6f73"/><stop offset="1" stop-color="#4d4d4b"/></radialGradient><radialGradient cx="223.48165" cy="145.45518" r="8.4767" gradientUnits="userSpaceOnUse" id="color-42"><stop offset="0" stop-color="#ff784e"/><stop offset="1" stop-color="#f11c0f"/></radialGradient><radialGradient cx="186.12477" cy="180.79632" r="8.0653" gradientUnits="userSpaceOnUse" id="color-43"><stop offset="0" stop-color="#dedada"/><stop offset="1" stop-color="#969696"/></radialGradient><radialGradient cx="293.58867" cy="180.50288" r="8.40603" gradientUnits="userSpaceOnUse" id="color-44"><stop offset="0" stop-color="#dedada"/><stop offset="1" stop-color="#969696"/></radialGradient><radialGradient cx="186.12481" cy="163.49657" r="8.0653" gradientUnits="userSpaceOnUse" id="color-45"><stop offset="0" stop-color="#dedada"/><stop offset="1" stop-color="#969696"/></radialGradient><radialGradient cx="293.58875" cy="163.20312" r="8.40603" gradientUnits="userSpaceOnUse" id="color-46"><stop offset="0" stop-color="#dedada"/><stop offset="1" stop-color="#969696"/></radialGradient><radialGradient cx="276.94562" cy="169.4028" r="8.47669" gradientUnits="userSpaceOnUse" id="color-47"><stop offset="0" stop-color="#5b5765"/><stop offset="1" stop-color="#3c3b4b"/></radialGradient><radialGradient cx="206.62622" cy="194.11569" r="8.56136" gradientUnits="userSpaceOnUse" id="color-48"><stop offset="0" stop-color="#5b5765"/><stop offset="1" stop-color="#3c3b4b"/></radialGradient><radialGradient cx="281.15128" cy="179.71736" r="25.08027" gradientUnits="userSpaceOnUse" id="color-49"><stop offset="0" stop-color="#2b2b34"/><stop offset="1" stop-color="#181921"/></radialGradient><radialGradient cx="196.79983" cy="181.83288" r="20.04966" gradientUnits="userSpaceOnUse" id="color-50"><stop offset="0" stop-color="#2b2b34"/><stop offset="1" stop-color="#181921"/></radialGradient><radialGradient cx="205.09916" cy="165.39479" r="10.1453" gradientUnits="userSpaceOnUse" id="color-51"><stop offset="0" stop-color="#5d5c64"/><stop offset="1" stop-color="#403e52"/></radialGradient><radialGradient cx="286.7937" cy="193.90488" r="7.46535" gradientUnits="userSpaceOnUse" id="color-52"><stop offset="0" stop-color="#6d6f73"/><stop offset="1" stop-color="#4d4d4b"/></radialGradient><radialGradient cx="293.52747" cy="196.39695" r="6.37386" gradientUnits="userSpaceOnUse" id="color-53"><stop offset="0" stop-color="#b41517"/><stop offset="1" stop-color="#8a3834"/></radialGradient><radialGradient cx="292.22047" cy="195.48712" r="6.37394" gradientUnits="userSpaceOnUse" id="color-54"><stop offset="0" stop-color="#4d4d4b"/><stop offset="1" stop-color="#707277"/></radialGradient><radialGradient cx="281.15133" cy="162.41761" r="25.08027" gradientUnits="userSpaceOnUse" id="color-55"><stop offset="0" stop-color="#2b2b34"/><stop offset="1" stop-color="#181921"/></radialGradient><radialGradient cx="224.0738" cy="203.95146" r="8.56136" gradientUnits="userSpaceOnUse" id="color-56"><stop offset="0" stop-color="#5b5765"/><stop offset="1" stop-color="#3c3b4b"/></radialGradient><radialGradient cx="220.56873" cy="215.01258" r="7.46534" gradientUnits="userSpaceOnUse" id="color-57"><stop offset="0" stop-color="#707277"/><stop offset="1" stop-color="#4d4d4b"/></radialGradient><radialGradient cx="217.94483" cy="221.69597" r="6.01013" gradientUnits="userSpaceOnUse" id="color-58"><stop offset="0" stop-color="#f70006"/><stop offset="1" stop-color="#9f1b17"/></radialGradient><radialGradient cx="196.79987" cy="164.53313" r="20.04966" gradientUnits="userSpaceOnUse" id="color-59"><stop offset="0" stop-color="#2b2b34"/><stop offset="1" stop-color="#181921"/></radialGradient><radialGradient cx="204.53476" cy="133.60537" r="10.19619" gradientUnits="userSpaceOnUse" id="color-60"><stop offset="0" stop-color="#2b2b34"/><stop offset="1" stop-color="#181921"/></radialGradient><radialGradient cx="274.99978" cy="133.60537" r="10.19619" gradientUnits="userSpaceOnUse" id="color-61"><stop offset="0" stop-color="#2b2b34"/><stop offset="1" stop-color="#181921"/></radialGradient><radialGradient cx="239.28783" cy="196.43999" r="11.97052" gradientUnits="userSpaceOnUse" id="color-62"><stop offset="0" stop-color="#2b2b34"/><stop offset="1" stop-color="#181921"/></radialGradient><radialGradient cx="239.29406" cy="211.71271" r="10.69225" gradientUnits="userSpaceOnUse" id="color-63"><stop offset="0" stop-color="#bdbabd"/><stop offset="1" stop-color="#969696"/></radialGradient><radialGradient cx="269.50464" cy="187.01191" r="10.298" gradientUnits="userSpaceOnUse" id="color-64"><stop offset="0" stop-color="#2b2b34"/><stop offset="1" stop-color="#181921"/></radialGradient><radialGradient cx="239.39478" cy="219.27804" r="9.38097" gradientUnits="userSpaceOnUse" id="color-65"><stop offset="0" stop-color="#f70006"/><stop offset="1" stop-color="#9f1b17"/></radialGradient><radialGradient cx="278.79121" cy="197.43067" r="8.97963" gradientUnits="userSpaceOnUse" id="color-66"><stop offset="0" stop-color="#dedada"/><stop offset="1" stop-color="#969696"/></radialGradient><radialGradient cx="284.95766" cy="203.47738" r="6.52648" gradientUnits="userSpaceOnUse" id="color-67"><stop offset="0" stop-color="#f70006"/><stop offset="1" stop-color="#9f1b17"/></radialGradient><radialGradient cx="201.01403" cy="197.22898" r="8.97963" gradientUnits="userSpaceOnUse" id="color-68"><stop offset="0" stop-color="#b4b2b4"/><stop offset="1" stop-color="#999899"/></radialGradient><radialGradient cx="194.84745" cy="203.27562" r="6.52648" gradientUnits="userSpaceOnUse" id="color-69"><stop offset="0" stop-color="#f70006"/><stop offset="1" stop-color="#9f1b17"/></radialGradient><radialGradient cx="209.88208" cy="186.57956" r="10.29801" gradientUnits="userSpaceOnUse" id="color-70"><stop offset="0" stop-color="#2b2b34"/><stop offset="1" stop-color="#181921"/></radialGradient></defs><g transform="translate(-178.59248,-104.69995)"><g data-paper-data="{&quot;isPaintingLayer&quot;:true}" fill-rule="nonzero" stroke-linejoin="miter" stroke-miterlimit="10" stroke-dasharray="" stroke-dashoffset="0" style="mix-blend-mode: normal"><g><path d="M179.34249,172.37319v-17.7532h13.56435v17.7532z" fill="none" stroke="#1c1c1c" stroke-width="1.5" stroke-linecap="butt"/><path d="M286.51999,172.07979v-17.7532h14.13752v17.7532z" fill="none" stroke="#1c1c1c" stroke-width="1.5" stroke-linecap="butt"/><path d="M179.34249,189.67294v-17.7532h13.56435v17.7532z" fill="none" stroke="#1c1c1c" stroke-width="1.5" stroke-linecap="butt"/><path d="M286.51999,189.37954v-17.7532h14.13748v17.7532z" fill="none" stroke="#1c1c1c" stroke-width="1.5" stroke-linecap="butt"/><path d="M208.10715,125.84005l-11.21976,11.21976l-7.66919,-7.66919c0,0 2.22502,-5.34952 3.9766,-7.10115c1.96397,-1.96397 7.24316,-4.11866 7.24316,-4.11866z" fill="none" stroke="#1c1c1c" stroke-width="1.5" stroke-linecap="butt"/><path d="M279.89135,118.35162c0,0 5.39782,2.20308 7.40597,4.21118c1.79097,1.79097 4.06594,7.26068 4.06594,7.26068l-7.84155,7.84151l-11.47191,-11.47187z" data-paper-data="{&quot;index&quot;:null}" fill="none" stroke="#1c1c1c" stroke-width="1.5" stroke-linecap="butt"/><path d="M249.04953,117.53758h-18.09906v-10.04199c0,0 6.1094,-2.04563 8.93498,-2.04563c3.16813,0 9.16408,2.04563 9.16408,2.04563z" fill="none" stroke="#1c1c1c" stroke-width="1.5" stroke-linecap="butt"/><path d="M208.10715,137.56427l-12.22819,12.22818l-8.35849,-8.35849c0,0 2.42497,-5.8303 4.33401,-7.73935c2.14048,-2.14048 7.89418,-4.48884 7.89418,-4.48884z" fill="none" stroke="#1c1c1c" stroke-width="1.5" stroke-linecap="butt"/><path d="M280.4083,129.81096c0,0 5.75366,2.34836 7.89418,4.48884c1.90904,1.90904 4.33401,7.73934 4.33401,7.73934l-8.35849,8.3585l-12.22818,-12.22818z" data-paper-data="{&quot;index&quot;:null}" fill="none" stroke="#1c1c1c" stroke-width="1.5" stroke-linecap="butt"/><path d="M254.0546,118.4559c0,0 4.49712,0.23313 6.47249,1.18659c1.76186,0.85037 4.81271,4.26042 4.81271,4.26042l-3.72327,7.71392l-11.28521,-5.44701z" data-paper-data="{&quot;index&quot;:null}" fill="none" stroke="#1c1c1c" stroke-width="1.5" stroke-linecap="butt"/><path d="M246.9655,130.28801l2.94616,-5.21018l12.86266,7.27333l-2.9462,5.21018z" data-paper-data="{&quot;index&quot;:null}" fill="none" stroke="#383935" stroke-width="1.5" stroke-linecap="butt"/><path d="M254.0546,118.4559c0,0 4.49712,0.23313 6.47249,1.18659c1.76186,0.85037 4.81271,4.26042 4.81271,4.26042l-3.72327,7.71392l-11.28521,-5.44701z" data-paper-data="{&quot;index&quot;:null}" fill="url(#color-1)" stroke="none" stroke-width="0" stroke-linecap="butt"/><path d="M259.89284,120.59183c1.86885,0.90198 5.30038,3.61508 5.30038,3.61508c0,0 -3.40768,-2.70156 -5.30038,-3.61508c-1.86881,-0.90198 -5.98488,-1.83192 -5.98488,-1.83192c0,0 4.09222,0.9184 5.98488,1.83192z" data-paper-data="{&quot;index&quot;:null}" fill="none" stroke="#949390" stroke-width="0.25" stroke-linecap="round"/><path d="M246.9655,130.28801l2.94616,-5.21018l12.86266,7.27333l-2.9462,5.21018z" data-paper-data="{&quot;index&quot;:null}" fill="url(#color-2)" stroke="none" stroke-width="0" stroke-linecap="butt"/><path d="M249.35325,126.62874l13.15194,6.34806" data-paper-data="{&quot;index&quot;:null}" fill="none" stroke="#6c6a74" stroke-width="0.25" stroke-linecap="round"/><path d="M229.71948,125.50471l-11.28521,5.44705l-3.72327,-7.71392c0,0 3.05091,-3.41001 4.81271,-4.26042c1.97542,-0.95346 6.47249,-1.18663 6.47249,-1.18663z" fill="none" stroke="#1c1c1c" stroke-width="1.5" stroke-linecap="butt"/><path d="M219.5575,133.90361l-2.94616,-5.21018l12.86265,-7.27334l2.94616,5.21018z" fill="none" stroke="#383935" stroke-width="1.5" stroke-linecap="butt"/><path d="M229.71948,125.50471l-11.28521,5.44705l-3.72327,-7.71392c0,0 3.05091,-3.41001 4.81271,-4.26042c1.97542,-0.95346 6.47249,-1.18663 6.47249,-1.18663z" fill="url(#color-3)" stroke="none" stroke-width="0" stroke-linecap="butt"/><path d="M226.14276,118.09484c0,0 -4.11611,0.92995 -5.98488,1.83192c-1.89262,0.91352 -5.30033,3.61509 -5.30033,3.61509c0,0 3.43152,-2.71307 5.30033,-3.61509c1.89262,-0.91352 5.98488,-1.83192 5.98488,-1.83192z" fill="none" stroke="#949390" stroke-width="0.25" stroke-linecap="round"/><path d="M219.5575,133.90361l-2.94616,-5.21018l12.86265,-7.27334l2.94616,5.21018z" fill="url(#color-4)" stroke="none" stroke-width="0" stroke-linecap="butt"/><path d="M230.03241,122.97101l-13.15194,6.34806" fill="none" stroke="#6c6a74" stroke-width="0.25" stroke-linecap="round"/><path d="M290.28035,144.37724c0,0 2.86136,2.56498 3.66215,4.25685c0.71422,1.5089 0.91259,5.40839 0.91259,5.40839l-6.60661,3.127l-4.57475,-9.66523z" data-paper-data="{&quot;index&quot;:null}" fill="none" stroke="#1c1c1c" stroke-width="1.5" stroke-linecap="butt"/><path d="M279.23163,148.43521l4.74876,-1.8809l4.64342,11.72342l-4.74876,1.8809z" data-paper-data="{&quot;index&quot;:null}" fill="none" stroke="#1c1c1c" stroke-width="1.5" stroke-linecap="butt"/><path d="M290.28035,144.37724c0,0 2.86136,2.56498 3.66215,4.25685c0.71422,1.5089 0.91259,5.40839 0.91259,5.40839l-6.60661,3.127l-4.57475,-9.66523z" data-paper-data="{&quot;index&quot;:null}" fill="#616160" stroke="none" stroke-width="0" stroke-linecap="butt"/><path d="M290.02006,144.50062c0,0 2.23496,2.82346 2.9925,4.42399c0.76722,1.62095 1.58223,5.2412 1.58223,5.2412c0,0 -0.82468,-3.64071 -1.58223,-5.2412c-0.76722,-1.62095 -2.9925,-4.42399 -2.9925,-4.42399z" data-paper-data="{&quot;index&quot;:null}" fill="none" stroke="#a8aaa8" stroke-width="0.5" stroke-linecap="round"/><path d="M279.23163,148.43521l4.74876,-1.8809l4.64342,11.72342l-4.74876,1.8809z" data-paper-data="{&quot;index&quot;:null}" fill="url(#color-5)" stroke="none" stroke-width="0" stroke-linecap="butt"/><path d="M282.7783,147.2849l5.33144,11.26399" data-paper-data="{&quot;index&quot;:null}" fill="none" stroke="#6c6a74" stroke-width="0.25" stroke-linecap="round"/><path d="M196.97439,148.16935l-4.57474,9.66524l-6.60661,-3.127c0,0 0.19842,-3.89949 0.91263,-5.40839c0.80079,-1.69182 3.66211,-4.2568 3.66211,-4.2568z" fill="none" stroke="#1c1c1c" stroke-width="1.5" stroke-linecap="butt"/><path d="M196.77309,160.82365l-4.74875,-1.8809l4.64345,-11.72342l4.74876,1.88091z" fill="none" stroke="#383935" stroke-width="1.5" stroke-linecap="butt"/><path d="M196.97439,148.16935l-4.57474,9.66524l-6.60661,-3.127c0,0 0.19842,-3.89949 0.91263,-5.40839c0.80079,-1.69182 3.66211,-4.2568 3.66211,-4.2568z" fill="#616160" stroke="none" stroke-width="0" stroke-linecap="butt"/><path d="M200.91174,156.7252l-6.20766,-5.44943l13.45332,-15.3251l6.20766,5.44943z" fill="none" stroke="#1c1c1c" stroke-width="1.5" stroke-linecap="butt"/><path d="M265.16932,141.39997l6.20765,-5.44943l13.45332,15.3251l-6.20765,5.44943z" data-paper-data="{&quot;index&quot;:null}" fill="none" stroke="#1c1c1c" stroke-width="1.5" stroke-linecap="butt"/><path d="M208.10715,137.56427l-12.22819,12.22818l-8.35849,-8.35849c0,0 2.42497,-5.8303 4.33401,-7.73935c2.14048,-2.14048 7.89418,-4.48884 7.89418,-4.48884z" fill="url(#color-6)" stroke="none" stroke-width="0" stroke-linecap="butt"/><path d="M200.07797,129.53518c0,0 -4.94051,3.08303 -6.96546,5.10798c-2.0508,2.0508 -5.26277,7.1202 -5.26277,7.1202c0,0 3.23782,-5.09526 5.26277,-7.1202c2.0508,-2.0508 6.96546,-5.10798 6.96546,-5.10798z" fill="none" stroke="#d5d5d3" stroke-width="0.5" stroke-linecap="round"/><path d="M280.4083,129.81096c0,0 5.75366,2.34836 7.89418,4.48884c1.90904,1.90904 4.33401,7.73934 4.33401,7.73934l-8.35849,8.3585l-12.22818,-12.22818z" data-paper-data="{&quot;index&quot;:null}" fill="url(#color-7)" stroke="none" stroke-width="0" stroke-linecap="butt"/><path d="M287.04415,135.24847c2.02499,2.02495 5.26277,7.1202 5.26277,7.1202c0,0 -3.21197,-5.0694 -5.26277,-7.1202c-2.02495,-2.02495 -6.96546,-5.10799 -6.96546,-5.10799c0,0 4.91466,3.05719 6.96546,5.10799z" data-paper-data="{&quot;index&quot;:null}" fill="none" stroke="#d5d5d3" stroke-width="0.5" stroke-linecap="round"/><path d="M200.91174,156.7252l-6.20766,-5.44943l13.45332,-15.3251l6.20766,5.44943z" fill="url(#color-8)" stroke="none" stroke-width="0" stroke-linecap="butt"/><path d="M265.16932,141.39997l6.20765,-5.44943l13.45332,15.3251l-6.20765,5.44943z" data-paper-data="{&quot;index&quot;:null}" fill="url(#color-9)" stroke="none" stroke-width="0" stroke-linecap="butt"/><path d="M195.33931,151.96855l14.25093,-14.25093" fill="none" stroke="#6c6a74" stroke-width="0.25" stroke-linecap="round"/><path d="M271.6761,136.2925l13.36024,13.36024" fill="none" stroke="#6c6a74" stroke-width="0.25" stroke-linecap="round"/><path d="M187.63562,149.58963c-0.75755,1.60053 -1.58223,5.24125 -1.58223,5.24125c0,0 0.81501,-3.62031 1.58223,-5.24125c0.75755,-1.60053 2.9925,-4.42399 2.9925,-4.42399c0,0 -2.22528,2.80304 -2.9925,4.42399z" fill="none" stroke="#a8aaa8" stroke-width="0.5" stroke-linecap="round"/><path d="M196.77309,160.82365l-4.74875,-1.8809l4.64345,-11.72342l4.74876,1.88091z" fill="url(#color-10)" stroke="none" stroke-width="0" stroke-linecap="butt"/><path d="M192.5384,159.21391l5.33144,-11.26399" fill="none" stroke="#6c6a74" stroke-width="0.25" stroke-linecap="round"/><path d="M210.79768,137.65383c0,0 3.68321,-3.97122 6.08695,-5.04793c2.14383,-0.96025 7.64525,-1.10307 7.64525,-1.10307l4.25163,9.49178l-13.73216,6.15095z" data-paper-data="{&quot;index&quot;:null}" fill="none" stroke="#383935" stroke-width="1.5" stroke-linecap="butt"/><path d="M210.79768,137.65387c0,0 3.68317,-3.97122 6.08691,-5.04792c2.14383,-0.96025 7.64525,-1.10307 7.64525,-1.10307l4.25159,9.49178l-13.73216,6.15099z" data-paper-data="{&quot;index&quot;:null}" fill="url(#color-11)" stroke="none" stroke-width="0" stroke-linecap="butt"/><path d="M210.74488,137.536c0,0 4.03276,-3.07259 6.30676,-4.09115c2.30299,-1.0316 7.42536,-2.05975 7.42536,-2.05975c0,0 -5.15136,1.04119 -7.42536,2.05975c-2.30299,1.0316 -6.30676,4.09115 -6.30676,4.09115z" data-paper-data="{&quot;index&quot;:null}" fill="none" stroke="#a6a5a5" stroke-width="0.5" stroke-linecap="round"/><path d="M186.16178,206.34833c0,-26.62113 24.14515,-48.20171 53.92973,-48.20171c29.78459,0 53.92973,21.58063 53.92973,48.20171c0,26.62113 -24.14514,48.20172 -53.92973,48.20172c-29.78458,0 -53.92973,-21.58068 -53.92973,-48.20172z" fill="none" stroke="#1c1c1c" stroke-width="1.5" stroke-linecap="butt"/><path d="M200.91178,143.99254l-6.20765,-5.44943l13.45332,-15.3251l6.20766,5.44943z" fill="none" stroke="#1c1c1c" stroke-width="1.5" stroke-linecap="butt"/><path d="M265.16936,128.66736l6.20765,-5.44943l13.45332,15.3251l-6.20765,5.44943z" data-paper-data="{&quot;index&quot;:null}" fill="none" stroke="#1c1c1c" stroke-width="1.5" stroke-linecap="butt"/><path d="M289.93742,197.37244c1.55894,1.27165 0.59322,5.03575 -2.15703,8.40743c-2.75025,3.37168 -6.24356,5.07412 -7.8025,3.80247c-1.55894,-1.27165 -0.59321,-5.03575 2.15703,-8.40743c2.75025,-3.37168 6.24356,-5.07412 7.8025,-3.80247z" fill="none" stroke="#383935" stroke-width="1.5" stroke-linecap="butt"/><path d="M197.67019,200.97314c2.75025,3.37168 3.71601,7.13577 2.15703,8.40742c-1.55894,1.27165 -5.05226,-0.43079 -7.8025,-3.80247c-2.75025,-3.37168 -3.71601,-7.13578 -2.15703,-8.40743c1.55894,-1.27165 5.05226,0.43079 7.8025,3.80247z" data-paper-data="{&quot;index&quot;:null}" fill="none" stroke="#383935" stroke-width="1.5" stroke-linecap="butt"/><path d="M190.05261,193.47982v-24.64124h8.21376v24.64125z" fill="none" stroke="#1c1c1c" stroke-width="1.5" stroke-linecap="butt"/><path d="M282.1331,191.88948v-23.3443h7.13302v23.3443z" fill="none" stroke="#1c1c1c" stroke-width="1.5" stroke-linecap="butt"/><path d="M186.16178,206.34833c0,-26.62113 24.14515,-48.20171 53.92973,-48.20171c29.78459,0 53.92973,21.58063 53.92973,48.20171c0,26.62113 -24.14514,48.20172 -53.92973,48.20172c-29.78458,0 -53.92973,-21.58068 -53.92973,-48.20172z" fill="#5d5c63" stroke="none" stroke-width="0" stroke-linecap="butt"/><path d="M203.78218,158.70541l-5.12212,13.43354l-9.18241,-3.50117c0,0 -0.14151,-5.24775 0.65814,-7.34498c0.89667,-2.35146 4.46397,-6.08865 4.46397,-6.08865z" data-paper-data="{&quot;index&quot;:null}" fill="none" stroke="#383935" stroke-width="1.5" stroke-linecap="butt"/><path d="M203.78218,158.70541l-5.12212,13.43354l-9.18241,-3.50117c0,0 -0.14151,-5.24775 0.65814,-7.34498c0.89667,-2.35146 4.46397,-6.08865 4.46397,-6.08865z" data-paper-data="{&quot;index&quot;:null}" fill="url(#color-12)" stroke="none" stroke-width="0" stroke-linecap="butt"/><path d="M194.96184,155.34222c0,0 -2.70072,4.0182 -3.54888,6.24275c-0.85898,2.25299 -1.57316,7.19083 -1.57316,7.19083c0,0 0.725,-4.96627 1.57316,-7.19083c0.85898,-2.25295 3.54888,-6.24275 3.54888,-6.24275z" data-paper-data="{&quot;index&quot;:null}" fill="none" stroke="#a6a5a5" stroke-width="0.5" stroke-linecap="round"/><path d="M205.10145,175.01788l-6.56188,-2.02495l4.99908,-16.19966l6.56188,2.02495z" data-paper-data="{&quot;index&quot;:null}" fill="url(#color-13)" stroke="none" stroke-width="0" stroke-linecap="butt"/><path d="M203.42804,157.15424l-5.59624,14.67722" data-paper-data="{&quot;index&quot;:null}" fill="none" stroke="#6c6a74" stroke-width="0.25" stroke-linecap="round"/><path d="M208.10715,125.84005l-11.21976,11.21976l-7.66919,-7.66919c0,0 2.22502,-5.34952 3.9766,-7.10115c1.96397,-1.96397 7.24316,-4.11866 7.24316,-4.11866z" fill="url(#color-14)" stroke="none" stroke-width="0" stroke-linecap="butt"/><path d="M194.34906,123.15983c-1.85794,1.85798 -4.82876,6.53306 -4.82876,6.53306c0,0 2.94709,-4.6514 4.82876,-6.53306c1.85799,-1.85794 6.39105,-4.68675 6.39105,-4.68675c0,0 -4.50939,2.80509 -6.39105,4.68675z" fill="none" stroke="#d5d5d3" stroke-width="0.5" stroke-linecap="round"/><path d="M279.89135,118.35162c0,0 5.39782,2.20308 7.40597,4.21118c1.79097,1.79097 4.06594,7.26068 4.06594,7.26068l-7.84155,7.84151l-11.47191,-11.47187z" data-paper-data="{&quot;index&quot;:null}" fill="url(#color-15)" stroke="none" stroke-width="0" stroke-linecap="butt"/><path d="M286.11679,123.45281c1.89975,1.8997 4.93728,6.67982 4.93728,6.67982c0,0 -3.0133,-4.75585 -4.93728,-6.67982c-1.8997,-1.89971 -6.53463,-4.79209 -6.53463,-4.79209c0,0 4.61069,2.86811 6.53463,4.79209z" data-paper-data="{&quot;index&quot;:null}" fill="none" stroke="#d5d5d3" stroke-width="0.5" stroke-linecap="round"/><path d="M249.04953,117.53762h-18.09906v-10.04204c0,0 6.1094,-2.04558 8.93498,-2.04558c3.16813,0 9.16404,2.04558 9.16404,2.04558z" fill="url(#color-16)" stroke="none" stroke-width="0" stroke-linecap="butt"/><path d="M240.11455,106.25517c-2.99713,0 -9.16404,1.11575 -9.16404,1.11575c0,0 6.12867,-1.11575 9.16404,-1.11575c2.99717,0 8.93498,1.11575 8.93498,1.11575c0,0 -5.89965,-1.11575 -8.93498,-1.11575z" fill="none" stroke="#d5d5d3" stroke-width="0.5" stroke-linecap="round"/><path d="M240.09138,245.25554c-26.32259,0 -47.6613,-19.49999 -47.6613,-43.55448c0,-24.05449 21.33867,-43.55448 47.6613,-43.55448c26.32263,0 47.66134,19.49999 47.66134,43.55448c0,24.05444 -21.33871,43.55448 -47.66134,43.55448z" data-paper-data="{&quot;index&quot;:null}" fill="#959597" stroke="none" stroke-width="0" stroke-linecap="butt"/><path d="M239.95977,118.97895c29.16434,0 51.10899,29.13866 51.10899,62.9889c0,33.85028 -21.94466,59.59354 -51.10895,59.59354c-29.1643,0 -49.41122,-27.44102 -49.41122,-61.29122c0,-33.8502 20.24688,-61.29121 49.41118,-61.29121z" fill="#24222e" stroke="none" stroke-width="0" stroke-linecap="butt"/><path d="M189.71167,191.12489c-2.06268,-5.21676 -5.08264,-5.631 -5.08264,-5.631l8.00168,-3.29698c0,0 5.57344,-0.70326 7.29735,4.90562c1.56424,5.08948 -2.02822,8.91363 -2.02822,8.91363l-8.74221,2.60335c0,0 2.44504,-2.71225 0.55404,-7.49471z" data-paper-data="{&quot;index&quot;:null}" fill="url(#color-17)" stroke="none" stroke-width="0" stroke-linecap="butt"/><path d="M193.4694,180.17463l9.40901,-4.17872l6.10032,15.9992l-8.90345,3.9859c0,0 3.44735,-3.29724 0.89599,-9.79978c-2.55153,-6.5031 -7.50188,-6.00665 -7.50188,-6.00665z" data-paper-data="{&quot;index&quot;:null}" fill="url(#color-18)" stroke="none" stroke-width="0" stroke-linecap="butt"/><path d="M195.08755,178.95502c0,0 4.84276,0.73369 6.83185,5.99307c1.98909,5.25941 -0.30358,10.38209 -0.30358,10.38209" data-paper-data="{&quot;index&quot;:null}" fill="none" stroke="#6c6a74" stroke-width="0.25" stroke-linecap="butt"/><path d="M278.87554,190.06069c-2.55132,6.50254 0.89599,9.79978 0.89599,9.79978l-8.90344,-3.9859l6.10032,-15.9992l9.40902,4.17871c0,0 -4.95036,-0.49644 -7.50189,6.00665z" data-paper-data="{&quot;index&quot;:null}" fill="url(#color-19)" stroke="none" stroke-width="0" stroke-linecap="butt"/><path d="M278.23102,199.20963c0,0 -2.29271,-5.12271 -0.30358,-10.38208c1.98909,-5.25938 6.83185,-5.99307 6.83185,-5.99307" data-paper-data="{&quot;index&quot;:null}" fill="none" stroke="#6c6a74" stroke-width="0.25" stroke-linecap="butt"/><path d="M286.66591,158.70142c0,0 3.56729,3.73719 4.46396,6.08865c0.79965,2.09723 0.65815,7.34498 0.65815,7.34498l-9.18242,3.50117l-5.12212,-13.43354z" data-paper-data="{&quot;index&quot;:null}" fill="none" stroke="#1c1c1c" stroke-width="1.5" stroke-linecap="butt"/><path d="M217.20303,152.105l-2.85791,-6.24433l15.41558,-7.0554l2.85792,6.24433z" fill="none" stroke="#404320" stroke-width="1.5" stroke-linecap="butt"/><path d="M262.71693,148.39255l-13.73225,-6.15096l4.25163,-9.49177c0,0 5.50143,0.14281 7.64526,1.10306c2.40375,1.07671 6.08695,5.04793 6.08695,5.04793z" fill="none" stroke="#383935" stroke-width="1.5" stroke-linecap="butt"/><path d="M286.66591,158.70142c0,0 3.56729,3.73719 4.46396,6.08865c0.79965,2.09723 0.65815,7.34498 0.65815,7.34498l-9.18242,3.50117l-5.12212,-13.43354z" data-paper-data="{&quot;index&quot;:null}" fill="url(#color-20)" stroke="none" stroke-width="0" stroke-linecap="butt"/><path d="M289.85249,165.0822c0.84816,2.22456 1.57316,7.19082 1.57316,7.19082c0,0 -0.71417,-4.93783 -1.57316,-7.19082c-0.84816,-2.22456 -3.54887,-6.24275 -3.54887,-6.24275c0,0 2.68989,3.9898 3.54887,6.24275z" data-paper-data="{&quot;index&quot;:null}" fill="none" stroke="#a6a5a5" stroke-width="0.5" stroke-linecap="round"/><path d="M262.71693,148.39259l-13.73216,-6.151l4.25159,-9.49177c0,0 5.50142,0.14273 7.64525,1.10306c2.40375,1.07671 6.08691,5.04793 6.08691,5.04793z" fill="url(#color-21)" stroke="none" stroke-width="0" stroke-linecap="butt"/><path d="M267.02115,138.78295c0,0 -4.03271,-3.07254 -6.30676,-4.09115c-2.30295,-1.03155 -7.42536,-2.05976 -7.42536,-2.05976c0,0 5.15136,1.04119 7.42536,2.05976c2.30299,1.03151 6.30676,4.09115 6.30676,4.09115z" fill="none" stroke="#a6a5a5" stroke-width="0.5" stroke-linecap="round"/><path d="M255.17354,215.81176c4.3877,-1.67302 8.70911,-1.02438 9.65204,1.44872c0.94293,2.47305 -1.84958,5.83413 -6.23728,7.5071c-4.3877,1.67302 -8.70911,1.02438 -9.65204,-1.44868c-0.94294,-2.47305 1.84963,-5.83416 6.23728,-7.5071z" data-paper-data="{&quot;index&quot;:null}" fill="#0b0e19" stroke="none" stroke-width="0" stroke-linecap="butt"/><path d="M255.33163,215.60494c-6.55046,2.42565 -6.71552,7.19307 -6.71552,7.19307l-2.95376,-9.29705l15.9992,-6.10032l3.14652,9.80258c0,0 -2.92545,-4.02418 -9.47646,-1.59837z" data-paper-data="{&quot;index&quot;:null}" fill="url(#color-22)" stroke="none" stroke-width="0" stroke-linecap="butt"/><path d="M254.31201,232.66812l-3.87793,-8.2562c0,0 0.46151,-5.22661 5.30046,-7.4479c5.3328,-2.44801 8.5188,2.17876 8.5188,2.17876l2.86734,8.16547c0,0 -2.31967,-1.97751 -7.5855,-0.04334c-4.82731,1.7731 -5.2233,5.40325 -5.2233,5.40325z" fill="url(#color-23)" stroke="none" stroke-width="0" stroke-linecap="butt"/><path d="M266.6078,227.78364c0.75067,1.49464 -1.26134,4.02231 -4.49385,5.64581c-3.23255,1.62349 -6.46159,1.72799 -7.21226,0.23335c-0.75067,-1.49464 1.26133,-4.02231 4.49389,-5.6458c3.23255,-1.62349 6.46155,-1.72799 7.21218,-0.23335z" fill="url(#color-24)" stroke="#2d1820" stroke-width="0.5" stroke-linecap="butt"/><path d="M259.75982,227.17714c3.69182,-1.33654 7.11973,0.03119 7.11973,0.03119c0,0 -2.91589,-1.05651 -7.07266,0.09626c-4.09824,1.13664 -5.57638,4.87506 -5.57638,4.87506c0,0 1.83095,-3.66356 5.52935,-5.00248z" data-paper-data="{&quot;index&quot;:null}" fill="none" stroke="#a6a5a5" stroke-width="0.5" stroke-linecap="round"/><path d="M248.72655,221.903c0,0 2.29577,-5.12131 7.54436,-7.13883c5.24855,-2.01748 9.02025,1.10744 9.02025,1.10744" fill="none" stroke="#6c6a74" stroke-width="0.25" stroke-linecap="butt"/><path d="M213.89166,220.11288l3.14649,-9.80258l15.9992,6.10032l-2.95375,9.29706c0,0 -0.1651,-4.76747 -6.71552,-7.19316c-6.55101,-2.42586 -9.47642,1.59837 -9.47642,1.59837z" data-paper-data="{&quot;index&quot;:null}" fill="url(#color-25)" stroke="none" stroke-width="0" stroke-linecap="butt"/><path d="M224.38774,235.57778c0,0 -0.39598,-3.63015 -5.2233,-5.40325c-5.26578,-1.93417 -7.5855,0.04333 -7.5855,0.04333l2.86734,-8.1655c0,0 3.18595,-4.62681 8.51875,-2.17876c4.83899,2.22133 5.3005,7.44789 5.3005,7.44789l-3.87792,8.2562z" data-paper-data="{&quot;index&quot;:null}" fill="url(#color-26)" stroke="none" stroke-width="0" stroke-linecap="butt"/><path d="M219.30391,230.92651c3.23255,1.62349 5.24456,4.15121 4.49389,5.64581c-0.75067,1.49464 -3.9797,1.39015 -7.21225,-0.23334c-3.23255,-1.62349 -5.24448,-4.15122 -4.49385,-5.64581c0.75067,-1.49464 3.97962,-1.39015 7.21218,0.23335z" data-paper-data="{&quot;index&quot;:null}" fill="url(#color-27)" stroke="#2d1820" stroke-width="0.5" stroke-linecap="butt"/><path d="M224.46906,235.08923c0,0 -1.47813,-3.73846 -5.57638,-4.87506c-4.15681,-1.15277 -7.07267,-0.0963 -7.07267,-0.0963c0,0 3.42788,-1.36765 7.11973,-0.03111c3.69844,1.33892 5.52935,5.00247 5.52935,5.00247z" data-paper-data="{&quot;index&quot;:null}" fill="none" stroke="#a6a5a5" stroke-width="0.5" stroke-linecap="round"/><path d="M213.40854,218.78122c0,0 3.7717,-3.12497 9.02025,-1.10748c5.24864,2.01748 7.54437,7.13884 7.54437,7.13884" data-paper-data="{&quot;index&quot;:null}" fill="none" stroke="#6c6a74" stroke-width="0.25" stroke-linecap="butt"/><path d="M228.08967,218.96826l-0.77232,-14.37405h23.941l0.77232,13.61753c0,0 -2.59054,-6.14624 -12.3567,-6.05223c-9.76697,0.09401 -11.58434,6.80876 -11.58434,6.80876z" fill="url(#color-28)" stroke="none" stroke-width="0" stroke-linecap="butt"/><path d="M228.0951,216.34997c0,0 4.24904,-5.24587 11.87163,-5.24587c7.6225,0 12.11287,5.66159 12.11287,5.66159" fill="none" stroke="#6c6a74" stroke-width="0.25" stroke-linecap="butt"/><path d="M271.49878,201.78942c3.99401,-3.994 9.05674,-5.40686 11.30791,-3.15569c2.25117,2.25117 0.83832,7.31391 -3.15565,11.30791c-3.99401,3.994 -9.05675,5.40686 -11.30792,3.15569c-2.25117,-2.25117 -0.83831,-7.31391 3.15565,-11.30791z" data-paper-data="{&quot;index&quot;:null}" fill="#0b0e19" stroke="none" stroke-width="0" stroke-linecap="butt"/><path d="M271.57063,201.48465c-5.99808,5.88369 -3.83501,11.19837 -3.83501,11.19837l-7.81392,-8.7535l14.5636,-14.5636l8.27411,9.21365c0,0 -5.19019,-2.97913 -11.18874,2.90508z" data-paper-data="{&quot;index&quot;:null}" fill="url(#color-29)" stroke="none" stroke-width="0" stroke-linecap="butt"/><path d="M248.7757,231.21486c0,2.39551 -4.19998,4.33741 -9.38096,4.33741c-5.18098,0 -9.38097,-1.94198 -9.38097,-4.33741c0,-2.39551 4.19998,-4.3374 9.38097,-4.3374c5.18098,0 9.38096,1.94197 9.38096,4.3374z" fill="url(#color-30)" stroke="#2d1820" stroke-width="0.5" stroke-linecap="butt"/><path d="M278.84151,220.71713l-8.31669,-7.15649c0,0 -2.06332,-5.96443 2.15644,-10.78227c4.65033,-5.30954 10.42287,-1.79699 10.42287,-1.79699l7.16273,7.55379c0,0 -3.51883,-1.03024 -8.34831,3.68227c-4.42734,4.32009 -3.07704,8.49979 -3.07704,8.49979z" fill="url(#color-31)" stroke="none" stroke-width="0" stroke-linecap="butt"/><path d="M211.04325,212.66502c-2.25117,2.25117 -7.31391,0.83831 -11.30792,-3.15569c-3.994,-3.994 -5.40686,-9.05675 -3.15569,-11.30792c2.25117,-2.25117 7.31391,-0.83831 11.30791,3.15565c3.994,3.994 5.40686,9.05675 3.15565,11.30792z" fill="#0b0e19" stroke="none" stroke-width="0" stroke-linecap="butt"/><path d="M289.93734,209.30926c1.55894,1.27165 0.59321,5.03575 -2.15703,8.40743c-2.75025,3.37168 -6.24356,5.07411 -7.8025,3.80246c-1.55894,-1.27165 -0.59321,-5.03574 2.15703,-8.40742c2.75025,-3.37168 6.24356,-5.07412 7.8025,-3.80247z" fill="url(#color-32)" stroke="#2d1820" stroke-width="0.5" stroke-linecap="butt"/><path d="M189.24349,191.72986c0.94081,3.49281 0.39433,6.67698 -1.22067,7.11197c-1.61496,0.43499 -3.6869,-2.04388 -4.62771,-5.53669c-0.94081,-3.49281 -0.39433,-6.67698 1.22068,-7.11197c1.61496,-0.43499 3.6869,2.04388 4.62771,5.53669z" data-paper-data="{&quot;index&quot;:null}" fill="url(#color-33)" stroke="#2d1820" stroke-width="0.5" stroke-linecap="butt"/><path d="M189.59232,197.98165c0,0 1.80527,-3.592 -0.07521,-7.40656c-1.90734,-3.86906 -4.63705,-5.34137 -4.63705,-5.34137c0,0 3.30267,1.64709 4.76348,5.29163c1.46336,3.65104 -0.05123,7.45625 -0.05123,7.45625z" data-paper-data="{&quot;index&quot;:null}" fill="url(#color-34)" stroke="#a6a5a5" stroke-width="0.5" stroke-linecap="round"/><path d="M197.88673,212.01566c-4.82948,-4.71251 -8.34831,-3.68228 -8.34831,-3.68228l7.16273,-7.55379c0,0 5.77249,-3.51254 10.42287,1.797c4.21972,4.81785 2.15644,10.78227 2.15644,10.78227l-8.31669,7.15649c0,0 1.35034,-4.17969 -3.07704,-8.49978z" data-paper-data="{&quot;index&quot;:null}" fill="url(#color-35)" stroke="none" stroke-width="0" stroke-linecap="butt"/><path d="M197.67015,212.90996c2.75025,3.37168 3.71601,7.13578 2.15703,8.40743c-1.55894,1.27165 -5.05226,-0.43079 -7.8025,-3.80247c-2.75025,-3.37168 -3.71601,-7.13577 -2.15703,-8.40742c1.55894,-1.27165 5.05225,0.43078 7.8025,3.80246z" data-paper-data="{&quot;index&quot;:null}" fill="url(#color-36)" stroke="#2d1820" stroke-width="0.5" stroke-linecap="butt"/><path d="M248.9652,229.91792c0,0 -3.94686,-4.31563 -10.10677,-3.73651c-6.2478,0.58736 -9.66383,3.53478 -9.66383,3.53478c0,0 3.95067,-3.63575 9.66176,-3.73244c5.72127,-0.09686 10.10888,3.93417 10.10888,3.93417z" fill="none" stroke="#d5d5d3" stroke-width="0.5" stroke-linecap="round"/><path d="M282.12189,212.01069c3.39558,-3.28247 7.83102,-3.46662 7.83102,-3.46662c0,0 -3.72042,0.27397 -7.71672,3.58343c-3.93998,3.26281 -3.72441,8.09361 -3.72441,8.09361c0,0 0.20848,-4.92204 3.61008,-8.21037z" data-paper-data="{&quot;index&quot;:null}" fill="none" stroke="#d5d5d3" stroke-width="0.5" stroke-linecap="round"/><path d="M196.62726,198.1473l8.27411,-9.2137l14.5636,14.5636l-7.81392,8.75349c0,0 2.16297,-5.31467 -3.83502,-11.19837c-5.99855,-5.88421 -11.18874,-2.90508 -11.18874,-2.90508z" fill="url(#color-37)" stroke="none" stroke-width="0" stroke-linecap="butt"/><path d="M267.41666,211.64616c0,0 0.00204,-6.75083 4.77172,-11.54632c4.76959,-4.79544 10.44655,-3.21965 10.44655,-3.21965" fill="none" stroke="#6c6a74" stroke-width="0.25" stroke-linecap="butt"/><path d="M197.80409,196.01277c0,0 5.67696,-1.57588 10.44655,3.21961c4.76963,4.79549 4.77163,11.54631 4.77163,11.54631" data-paper-data="{&quot;index&quot;:null}" fill="none" stroke="#6c6a74" stroke-width="0.25" stroke-linecap="butt"/><path d="M201.95136,218.43964c0,0 0.21556,-4.83075 -3.72441,-8.09361c-3.9963,-3.30942 -7.71673,-3.58342 -7.71673,-3.58342c0,0 4.43549,0.18416 7.83102,3.46662c3.4016,3.28832 3.61008,8.21037 3.61008,8.21037z" data-paper-data="{&quot;index&quot;:null}" fill="none" stroke="#d5d5d3" stroke-width="0.5" stroke-linecap="round"/><path d="M255.17358,203.87494c4.3877,-1.67302 8.7091,-1.02437 9.65204,1.44872c0.94293,2.47305 -1.84958,5.83412 -6.23728,7.5071c-4.3877,1.67302 -8.7091,1.02438 -9.65204,-1.44867c-0.94294,-2.47305 1.84963,-5.83416 6.23729,-7.5071z" data-paper-data="{&quot;index&quot;:null}" fill="#0b0e19" stroke="none" stroke-width="0" stroke-linecap="butt"/><path d="M255.33168,203.66812c-6.55046,2.42565 -6.71552,7.19307 -6.71552,7.19307l-2.95375,-9.29705l15.9992,-6.10032l3.14652,9.80258c0,0 -2.92545,-4.02419 -9.47645,-1.59837z" data-paper-data="{&quot;index&quot;:null}" fill="url(#color-38)" stroke="none" stroke-width="0" stroke-linecap="butt"/><path d="M254.31205,220.7313l-3.87793,-8.2562c0,0 0.46151,-5.22661 5.30046,-7.4479c5.3328,-2.44801 8.5188,2.17876 8.5188,2.17876l2.86734,8.16547c0,0 -2.31966,-1.9775 -7.58549,-0.04333c-4.82731,1.7731 -5.2233,5.40325 -5.2233,5.40325z" fill="url(#color-39)" stroke="none" stroke-width="0" stroke-linecap="butt"/><path d="M205.60842,198.59485c-2.47305,0.94294 -5.83412,-1.84958 -7.50706,-6.23728c-1.67302,-4.3877 -1.02438,-8.7091 1.44867,-9.65204c2.47305,-0.94294 5.83416,1.84958 7.5071,6.23728c1.67302,4.3877 1.02434,8.7091 -1.44876,9.65204z" fill="#0b0e19" stroke="none" stroke-width="0" stroke-linecap="butt"/><path d="M266.6078,215.84682c0.75067,1.49464 -1.26134,4.02232 -4.49385,5.64581c-3.23255,1.62349 -6.46159,1.72798 -7.21226,0.23334c-0.75067,-1.49464 1.26133,-4.02231 4.49389,-5.64581c3.23255,-1.62349 6.46155,-1.72799 7.21218,-0.23335z" fill="url(#color-40)" stroke="#2d1820" stroke-width="0.5" stroke-linecap="butt"/><path d="M192.93735,200.28129c-2.06268,-5.21676 -5.08265,-5.63099 -5.08265,-5.63099l8.00168,-3.29699c0,0 5.57345,-0.70326 7.29736,4.90562c1.56424,5.08948 -2.02822,8.91363 -2.02822,8.91363l-8.74221,2.60335c0,0 2.44505,-2.71225 0.55404,-7.49471z" data-paper-data="{&quot;index&quot;:null}" fill="url(#color-41)" stroke="none" stroke-width="0" stroke-linecap="butt"/><path d="M259.75987,215.24032c3.69182,-1.33654 7.11973,0.03119 7.11973,0.03119c0,0 -2.91589,-1.05651 -7.07267,0.09626c-4.09824,1.13664 -5.57637,4.87507 -5.57637,4.87507c0,0 1.83095,-3.66356 5.52935,-5.00248z" data-paper-data="{&quot;index&quot;:null}" fill="none" stroke="#a6a5a5" stroke-width="0.5" stroke-linecap="round"/><path d="M217.20303,152.105l-2.85791,-6.24433l15.41558,-7.0554l2.85792,6.24433z" fill="url(#color-42)" stroke="none" stroke-width="0" stroke-linecap="butt"/><path d="M179.34249,189.67294v-17.7532h13.56435v17.7532z" fill="url(#color-43)" stroke="none" stroke-width="0" stroke-linecap="butt"/><path d="M286.51999,189.37954v-17.7532h14.13748v17.7532z" fill="url(#color-44)" stroke="none" stroke-width="0" stroke-linecap="butt"/><path d="M179.34249,172.37319v-17.7532h13.56435v17.7532z" fill="url(#color-45)" stroke="none" stroke-width="0" stroke-linecap="butt"/><path d="M286.51999,172.07979v-17.7532h14.13752v17.7532z" fill="url(#color-46)" stroke="none" stroke-width="0" stroke-linecap="butt"/><path d="M271.16514,162.31545l6.56188,-2.02495l4.99908,16.19966l-6.56187,2.02495z" data-paper-data="{&quot;index&quot;:null}" fill="url(#color-47)" stroke="none" stroke-width="0" stroke-linecap="butt"/><path d="M196.69479,189.33099l9.40902,-4.17872l6.10032,15.99921l-8.90344,3.9859c0,0 3.44735,-3.29724 0.89599,-9.79978c-2.55153,-6.5031 -7.50188,-6.00665 -7.50188,-6.00665z" fill="url(#color-48)" stroke="none" stroke-width="0" stroke-linecap="butt"/><path d="M273.0376,191.38951v-23.3443h16.22848v23.3443z" fill="url(#color-49)" stroke="none" stroke-width="0" stroke-linecap="butt"/><path d="M190.05257,194.15351v-24.64125h13.49495v24.64125z" fill="url(#color-50)" stroke="none" stroke-width="0" stroke-linecap="butt"/><path d="M190.70787,170.72377v23.51403" fill="none" stroke="#6c6a74" stroke-width="0.25" stroke-linecap="round"/><path d="M289.48974,168.27868v22.08891" fill="none" stroke="#6c6a74" stroke-width="0.25" stroke-linecap="round"/><path d="M197.79573,173.34702l8.37437,-18.69592l6.23198,2.79146l-8.37437,18.69592z" fill="url(#color-51)" stroke="none" stroke-width="0" stroke-linecap="butt"/><path d="M290.13516,195.00422c-1.89101,4.78241 0.55403,7.49471 0.55403,7.49471l-8.74221,-2.60336c0,0 -3.59242,-3.82415 -2.02822,-8.91363c1.72391,-5.60892 7.29736,-4.90562 7.29736,-4.90562l8.00168,3.29698c0,0 -3.01996,0.41424 -5.08265,5.631z" data-paper-data="{&quot;index&quot;:null}" fill="url(#color-52)" stroke="none" stroke-width="0" stroke-linecap="butt"/><path d="M295.23105,190.07258c1.615,0.43499 2.16149,3.61916 1.22068,7.11197c-0.94081,3.49281 -3.01275,5.97168 -4.62771,5.53669c-1.615,-0.43499 -2.16148,-3.61916 -1.22067,-7.11197c0.94081,-3.49281 3.01275,-5.97168 4.62771,-5.53669z" data-paper-data="{&quot;index&quot;:null}" fill="url(#color-53)" stroke="#2d1820" stroke-width="0.5" stroke-linecap="butt"/><path d="M290.25447,201.86102c0,0 -1.51459,-3.80522 -0.05123,-7.45626c1.46077,-3.64454 4.76348,-5.29163 4.76348,-5.29163c0,0 -2.7297,1.47232 -4.63705,5.34137c-1.88052,3.81461 -0.07521,7.40655 -0.07521,7.40655z" data-paper-data="{&quot;index&quot;:null}" fill="url(#color-54)" stroke="#a6a5a5" stroke-width="0.5" stroke-linecap="round"/><path d="M248.72659,209.96618c0,0 2.29578,-5.12131 7.54437,-7.13883c5.24855,-2.01748 9.02024,1.10744 9.02024,1.10744" fill="none" stroke="#6c6a74" stroke-width="0.25" stroke-linecap="butt"/><path d="M198.31293,188.11142c0,0 4.84276,0.7337 6.83185,5.99307c1.98909,5.25941 -0.30359,10.38208 -0.30359,10.38208" data-paper-data="{&quot;index&quot;:null}" fill="none" stroke="#6c6a74" stroke-width="0.25" stroke-linecap="butt"/><path d="M273.03764,174.08976v-23.3443h16.22848v23.3443z" fill="url(#color-55)" stroke="none" stroke-width="0" stroke-linecap="butt"/><path d="M213.89174,208.17606l3.14649,-9.80258l15.9992,6.10032l-2.95375,9.29706c0,0 -0.1651,-4.76747 -6.71552,-7.19316c-6.55101,-2.42586 -9.47642,1.59837 -9.47642,1.59837z" data-paper-data="{&quot;index&quot;:null}" fill="url(#color-56)" stroke="none" stroke-width="0" stroke-linecap="butt"/><path d="M224.38774,223.64096c0,0 -0.39598,-3.63016 -5.2233,-5.40326c-5.26578,-1.93417 -7.5855,0.04334 -7.5855,0.04334l2.86734,-8.1655c0,0 3.18595,-4.62682 8.51875,-2.17876c4.83899,2.22133 5.3005,7.4479 5.3005,7.4479l-3.87792,8.2562z" data-paper-data="{&quot;index&quot;:null}" fill="url(#color-57)" stroke="none" stroke-width="0" stroke-linecap="butt"/><path d="M219.30395,218.98969c3.23255,1.62349 5.24456,4.15122 4.49389,5.64581c-0.75067,1.49464 -3.97971,1.39014 -7.21226,-0.23335c-3.23255,-1.62349 -5.24447,-4.15121 -4.49384,-5.6458c0.75067,-1.49464 3.97962,-1.39015 7.21218,0.23334z" data-paper-data="{&quot;index&quot;:null}" fill="url(#color-58)" stroke="#2d1820" stroke-width="0.5" stroke-linecap="butt"/><path d="M190.05261,176.85375v-24.64125h13.49496v24.64125z" fill="url(#color-59)" stroke="none" stroke-width="0" stroke-linecap="butt"/><path d="M224.46911,223.15241c0,0 -1.47813,-3.73846 -5.57638,-4.87506c-4.15681,-1.15277 -7.07267,-0.09631 -7.07267,-0.09631c0,0 3.42788,-1.36765 7.11973,-0.03111c3.69844,1.33892 5.52935,5.00247 5.52935,5.00247z" data-paper-data="{&quot;index&quot;:null}" fill="none" stroke="#a6a5a5" stroke-width="0.5" stroke-linecap="round"/><path d="M213.40858,206.8444c0,0 3.7717,-3.12497 9.02025,-1.10748c5.24864,2.01748 7.54437,7.13884 7.54437,7.13884" data-paper-data="{&quot;index&quot;:null}" fill="none" stroke="#6c6a74" stroke-width="0.25" stroke-linecap="butt"/><path d="M230.24738,140.63288l-15.65572,5.96934" fill="none" stroke="#ff8e5f" stroke-width="0.5" stroke-linecap="round"/><path d="M200.91178,143.99254l-6.20765,-5.44943l13.45332,-15.3251l6.20766,5.44943z" fill="url(#color-60)" stroke="none" stroke-width="0" stroke-linecap="butt"/><path d="M265.16936,128.66736l6.20765,-5.44943l13.45332,15.3251l-6.20765,5.44943z" data-paper-data="{&quot;index&quot;:null}" fill="url(#color-61)" stroke="none" stroke-width="0" stroke-linecap="butt"/><path d="M209.59029,124.98501l-14.25093,14.25093" fill="none" stroke="#6c6a74" stroke-width="0.25" stroke-linecap="round"/><path d="M271.67615,123.55989l13.36024,13.36024" fill="none" stroke="#6c6a74" stroke-width="0.25" stroke-linecap="round"/><path d="M251.87168,207.11492c0,3.70074 -5.32257,6.7007 -11.88831,6.7007c-6.56574,0 -11.88831,-3.00001 -11.88831,-6.7007c0,-3.70074 5.32257,-6.7007 11.88831,-6.7007c6.56574,0 11.88831,3.00001 11.88831,6.7007z" fill="#0b0e19" stroke="#ff8e5f" stroke-width="0" stroke-linecap="butt"/><path d="M198.08591,153.56394c0,-20.32506 18.74762,-36.80174 41.87394,-36.80174c23.12632,0 41.87395,16.47668 41.87395,36.80174c0,20.32506 -18.74754,36.80183 -41.87391,36.80183c-23.12628,0 -41.8739,-16.47676 -41.8739,-36.80183z" fill="#4e4f4e" stroke="none" stroke-width="0" stroke-linecap="butt"/><path d="M244.70109,187.54762c0,1.60668 -2.15087,2.90906 -4.80414,2.90906c-2.65327,0 -4.80414,-1.30241 -4.80414,-2.90906c0,-1.60668 2.15092,-2.90906 4.80414,-2.90906c2.65327,0 4.80414,1.30242 4.80414,2.90906z" fill="#7a7776" stroke="none" stroke-width="0" stroke-linecap="butt"/><path d="M216.9839,181.65102c-0.64058,0.95392 -2.43703,0.87864 -4.01243,-0.16828c-1.5754,-1.04692 -2.33334,-2.66897 -1.69272,-3.62294c0.64058,-0.95392 2.43703,-0.87859 4.01243,0.16833c1.5754,1.04692 2.33325,2.66893 1.69267,3.6229z" fill="#7a7776" stroke="none" stroke-width="0" stroke-linecap="butt"/><path d="M264.14663,177.76842c1.5754,-1.04692 3.37189,-1.12225 4.01247,-0.16828c0.64058,0.95392 -0.11727,2.57597 -1.69268,3.6229c-1.5754,1.04692 -3.37189,1.12225 -4.01243,0.16833c-0.64058,-0.95392 0.11723,-2.57597 1.69263,-3.62294z" data-paper-data="{&quot;index&quot;:null}" fill="#7a7776" stroke="none" stroke-width="0" stroke-linecap="butt"/><path d="M278.87872,159.86943c0.21306,-1.84843 0.91382,-3.16541 1.56531,-2.94148c0.65145,0.22393 1.00694,1.90408 0.79388,3.75251c-0.21306,1.84843 -0.91382,3.16537 -1.56531,2.94149c-0.65145,-0.22393 -1.00694,-1.90395 -0.79388,-3.75251z" data-paper-data="{&quot;index&quot;:null}" fill="#7a7776" stroke="none" stroke-width="0" stroke-linecap="butt"/><path d="M201.07077,166.47901c-0.65144,0.22393 -1.35225,-1.09301 -1.56531,-2.94149c-0.21306,-1.84843 0.14239,-3.52855 0.79384,-3.75251c0.65144,-0.22393 1.35225,1.09301 1.56531,2.94149c0.21306,1.84843 -0.14239,3.52855 -0.79388,3.75251z" data-paper-data="{&quot;index&quot;:null}" fill="#7a7776" stroke="none" stroke-width="0" stroke-linecap="butt"/><path d="M200.08972,150.44054c0,-18.60005 17.85048,-33.67838 39.87025,-33.67838c22.01973,0 39.87026,15.07833 39.87026,33.67838c0,18.60005 -17.85049,33.67839 -39.87026,33.67839c-22.01973,0 -39.87025,-15.07834 -39.87025,-33.67839z" fill="#9bacaa" stroke="none" stroke-width="0" stroke-linecap="butt"/><path d="M201.28192,149.45865c0,-18.05773 17.31672,-32.69645 38.67805,-32.69645c21.36129,0 38.67806,14.63872 38.67806,32.69645c0,18.05773 -17.31673,32.69645 -38.67806,32.69645c-21.36129,0 -38.67805,-14.63872 -38.67805,-32.69645z" fill="#ed191a" stroke="none" stroke-width="0" stroke-linecap="butt"/><path d="M203.04704,149.00796c0,-17.57448 16.52645,-31.82142 36.91285,-31.82142c20.3864,0 36.91286,14.2469 36.91286,31.82142c0,17.57448 -16.52642,31.82142 -36.91286,31.82142c-20.38639,0 -36.91285,-14.24689 -36.91285,-31.82142z" fill="#403f4d" stroke="none" stroke-width="0" stroke-linecap="butt"/><path d="M226.62796,126.77551l16.22898,12.21171l-3.31358,1.61517l-18.88394,-7.79006" fill="#eceeec" stroke="#000000" stroke-width="0" stroke-linecap="round"/><path d="M216.14321,138.68763l-3.01071,-3.01066l14.64271,-13.77609l3.01071,3.01067z" fill="#eceeec" stroke="none" stroke-width="0" stroke-linecap="butt"/><path d="M258.55799,131.86949l-18.0514,9.15318l-3.88875,-2.11824l15.74099,-12.8346" data-paper-data="{&quot;index&quot;:null}" fill="#eceeec" stroke="#000000" stroke-width="0" stroke-linecap="round"/><path d="M248.11471,123.94505l2.89115,-3.12568l15.16823,13.19519l-2.89111,3.12568z" data-paper-data="{&quot;index&quot;:null}" fill="#eceeec" stroke="none" stroke-width="0" stroke-linecap="butt"/><path d="M228.08971,207.03144l-0.77232,-14.37405h23.941l0.77232,13.61753c0,0 -2.59054,-6.14624 -12.3567,-6.05223c-9.76697,0.09401 -11.58434,6.80876 -11.58434,6.80876z" fill="url(#color-62)" stroke="none" stroke-width="0" stroke-linecap="butt"/><path d="M228.09514,204.41315c0,0 4.24904,-5.24588 11.87163,-5.24588c7.6225,0 12.11287,5.6616 12.11287,5.6616" fill="none" stroke="#6c6a74" stroke-width="0.25" stroke-linecap="butt"/><path d="M229.61045,219.78238l-0.80695,-11.49925c0,0 3.28468,-6.7591 10.89402,-7.26268c8.38591,-0.55493 10.2888,7.26268 10.2888,7.26268l-1.00872,10.69225c0,0 -1.24606,-4.33982 -9.28008,-4.43833c-7.36514,-0.09027 -10.08707,5.24524 -10.08707,5.24524z" fill="url(#color-63)" stroke="none" stroke-width="0" stroke-linecap="butt"/><path d="M271.49882,189.8526c3.99401,-3.994 9.05674,-5.40687 11.30791,-3.1557c2.25117,2.25117 0.83832,7.31391 -3.15565,11.30792c-3.99401,3.994 -9.05675,5.40687 -11.30792,3.1557c-2.25117,-2.25117 -0.83831,-7.31391 3.15565,-11.30792z" data-paper-data="{&quot;index&quot;:null}" fill="#0b0e19" stroke="none" stroke-width="0" stroke-linecap="butt"/><path d="M271.57068,189.54783c-5.99808,5.88369 -3.83502,11.19837 -3.83502,11.19837l-7.81392,-8.7535l14.5636,-14.5636l8.27411,9.21366c0,0 -5.1902,-2.97913 -11.18874,2.90507z" data-paper-data="{&quot;index&quot;:null}" fill="url(#color-64)" stroke="none" stroke-width="0" stroke-linecap="butt"/><path d="M248.77574,219.27804c0,2.39551 -4.19998,4.3374 -9.38097,4.3374c-5.18098,0 -9.38096,-1.94197 -9.38096,-4.3374c0,-2.39551 4.19998,-4.33741 9.38096,-4.33741c5.18098,0 9.38097,1.94198 9.38097,4.33741z" fill="url(#color-65)" stroke="#2d1820" stroke-width="0.5" stroke-linecap="butt"/><path d="M278.84159,208.7803l-8.31669,-7.15649c0,0 -2.06332,-5.96442 2.15643,-10.78227c4.65033,-5.30954 10.42287,-1.797 10.42287,-1.797l7.16273,7.55379c0,0 -3.51882,-1.03024 -8.3483,3.68227c-4.42734,4.32009 -3.07704,8.49978 -3.07704,8.49978z" fill="url(#color-66)" stroke="none" stroke-width="0" stroke-linecap="butt"/><path d="M211.04325,200.7282c-2.25117,2.25117 -7.31391,0.83831 -11.30792,-3.15569c-3.994,-3.994 -5.40686,-9.05675 -3.15569,-11.30792c2.25117,-2.25117 7.31391,-0.83831 11.30791,3.15565c3.994,3.994 5.40686,9.05674 3.15565,11.30791z" fill="#0b0e19" stroke="none" stroke-width="0" stroke-linecap="butt"/><path d="M289.93742,197.37244c1.55894,1.27165 0.59322,5.03575 -2.15703,8.40743c-2.75025,3.37168 -6.24356,5.07412 -7.8025,3.80247c-1.55894,-1.27165 -0.59321,-5.03575 2.15703,-8.40743c2.75025,-3.37168 6.24356,-5.07412 7.8025,-3.80247z" fill="url(#color-67)" stroke="#2d1820" stroke-width="0.5" stroke-linecap="butt"/><path d="M197.88677,200.07884c-4.82948,-4.71251 -8.34831,-3.68227 -8.34831,-3.68227l7.16273,-7.55379c0,0 5.7725,-3.51254 10.42288,1.797c4.21972,4.81785 2.15643,10.78227 2.15643,10.78227l-8.31668,7.15649c0,0 1.35034,-4.17969 -3.07704,-8.49978z" data-paper-data="{&quot;index&quot;:null}" fill="url(#color-68)" stroke="none" stroke-width="0" stroke-linecap="butt"/><path d="M197.67019,200.97314c2.75025,3.37168 3.71601,7.13577 2.15703,8.40742c-1.55894,1.27165 -5.05226,-0.43079 -7.8025,-3.80247c-2.75025,-3.37168 -3.71601,-7.13578 -2.15703,-8.40743c1.55894,-1.27165 5.05226,0.43079 7.8025,3.80247z" data-paper-data="{&quot;index&quot;:null}" fill="url(#color-69)" stroke="#2d1820" stroke-width="0.5" stroke-linecap="butt"/><path d="M180.50468,189.67294v-17.7532z" fill="none" stroke="#d5d5d3" stroke-width="0.5" stroke-linecap="round"/><path d="M300.10017,189.3795v-17.75321z" fill="none" stroke="#d5d5d3" stroke-width="0.5" stroke-linecap="round"/><path d="M180.50476,172.37319v-17.7532z" fill="none" stroke="#d5d5d3" stroke-width="0.5" stroke-linecap="round"/><path d="M300.10025,154.32654v17.75321z" fill="none" stroke="#d5d5d3" stroke-width="0.5" stroke-linecap="round"/><path d="M248.9652,217.9811c0,0 -3.94686,-4.31563 -10.10677,-3.73651c-6.2478,0.58736 -9.66383,3.53478 -9.66383,3.53478c0,0 3.95067,-3.63575 9.66176,-3.73244c5.72127,-0.09686 10.10888,3.93417 10.10888,3.93417z" fill="none" stroke="#d5d5d3" stroke-width="0.5" stroke-linecap="round"/><path d="M282.12194,200.07387c3.39558,-3.28247 7.83102,-3.46662 7.83102,-3.46662c0,0 -3.72042,0.27396 -7.71672,3.58342c-3.93998,3.26281 -3.72441,8.09361 -3.72441,8.09361c0,0 0.20848,-4.92204 3.61007,-8.21036z" data-paper-data="{&quot;index&quot;:null}" fill="none" stroke="#d5d5d3" stroke-width="0.5" stroke-linecap="round"/><path d="M196.6273,186.21048l8.27411,-9.2137l14.56361,14.5636l-7.81392,8.7535c0,0 2.16297,-5.31468 -3.83502,-11.19837c-5.99855,-5.88421 -11.18874,-2.90508 -11.18874,-2.90508z" fill="url(#color-70)" stroke="none" stroke-width="0" stroke-linecap="butt"/><path d="M267.4167,199.70934c0,0 0.00204,-6.75082 4.77172,-11.54631c4.76959,-4.79544 10.44655,-3.21966 10.44655,-3.21966" fill="none" stroke="#6c6a74" stroke-width="0.25" stroke-linecap="butt"/><path d="M197.80414,184.07594c0,0 5.67695,-1.57588 10.44655,3.21961c4.76963,4.79549 4.77163,11.54632 4.77163,11.54632" data-paper-data="{&quot;index&quot;:null}" fill="none" stroke="#6c6a74" stroke-width="0.25" stroke-linecap="butt"/><path d="M190.70791,153.42401v23.51403" fill="none" stroke="#6c6a74" stroke-width="0.25" stroke-linecap="round"/><path d="M289.48979,173.06784v-22.08891" fill="none" stroke="#6c6a74" stroke-width="0.25" stroke-linecap="round"/><path d="M207.91599,243.32824l2.24803,-3.37703l8.23057,4.77936l-4.47182,2.86399c0,0 -2.96131,-0.31094 -3.9991,-0.93046c-1.63936,-0.97867 -2.00768,-3.33586 -2.00768,-3.33586z" fill="#313431" stroke="none" stroke-width="0" stroke-linecap="butt"/><path d="M208.05159,243.41669l1.93112,-3.50978l6.98039,4.05338l-3.79257,2.42892c0,0 -1.197,0.12266 -1.98667,-0.33707c-2.41452,-1.40568 -3.13226,-2.63544 -3.13226,-2.63544z" fill="#777777" stroke="none" stroke-width="0" stroke-linecap="butt"/><path d="M293.19031,203.68679l4.36783,1.68508l0.19176,8.73207l-4.84344,2.0797z" data-paper-data="{&quot;index&quot;:null}" fill="#777777" stroke="#000000" stroke-width="0" stroke-linecap="round"/><path d="M188.49477,218.2532l-4.84344,-2.07971l0.19175,-8.73206l4.36784,-1.68508z" data-paper-data="{&quot;index&quot;:null}" fill="#777777" stroke="#000000" stroke-width="0" stroke-linecap="round"/><path d="M201.9514,206.50282c0,0 0.21556,-4.83075 -3.72441,-8.09361c-3.9963,-3.30942 -7.71673,-3.58343 -7.71673,-3.58343c0,0 4.43549,0.18416 7.83102,3.46662c3.4016,3.28832 3.61007,8.21037 3.61007,8.21037z" data-paper-data="{&quot;index&quot;:null}" fill="none" stroke="#d5d5d3" stroke-width="0.5" stroke-linecap="round"/><path d="M233.94913,179.618v-61.96536h12.30819v61.96536z" fill="#313040" stroke="none" stroke-width="0" stroke-linecap="butt"/><path d="M204.23971,157.54815c0,0 -1.38527,-4.28482 -1.48844,-6.37314c-0.07898,-1.5996 0.92252,-5.08621 0.92252,-5.08621c0,0 17.98112,-8.4884 36.21723,-8.4884c18.51937,0 36.50015,7.35664 36.50015,7.35664c0,0 0.53273,5.33132 0.27791,7.59925c-0.20652,1.83817 -1.69267,4.99186 -1.69267,4.99186c0,0 -19.31198,-7.21515 -35.50985,-6.79073c-18.45511,0.48354 -35.22689,6.79073 -35.22689,6.79073z" fill="#313040" stroke="none" stroke-width="0" stroke-linecap="butt"/><path d="M217.50038,155.90432l7.48945,-8.22879l4.00292,3.01844l-6.10172,11.76836" data-paper-data="{&quot;index&quot;:null}" fill="#eceeec" stroke="#000000" stroke-width="0" stroke-linecap="round"/><path d="M229.18679,165.52148l-2.58604,3.38241l-15.59176,-12.69199l2.58604,-3.38246z" data-paper-data="{&quot;index&quot;:null}" fill="#eceeec" stroke="none" stroke-width="0" stroke-linecap="butt"/><path d="M259.17964,161.61057l-7.76256,-11.45048l4.15516,-2.8746l8.22136,7.19923" data-paper-data="{&quot;index&quot;:null}" fill="#eceeec" stroke="#000000" stroke-width="0" stroke-linecap="round"/><path d="M266.90651,149.05685l3.21053,2.79664l-12.73685,15.55505l-3.21052,-2.79659z" data-paper-data="{&quot;index&quot;:null}" fill="#eceeec" stroke="none" stroke-width="0" stroke-linecap="butt"/><path d="M249.69338,153.15921l1.13745,5.00494c0,0 -0.14057,2.62657 -3.63992,3.18493c-4.76811,0.76082 -6.14238,-0.22753 -6.14238,-0.22753l-1.13744,-6.59736l-0.90996,5.9149c0,0 -1.90285,1.19033 -4.7774,1.13744c-5.60053,-0.103 -4.77744,-3.86745 -4.77744,-3.86745l0.91,-6.14238c0,0 -10.08987,-0.01749 -9.78233,-9.55481c0.24477,-7.59063 9.94523,-14.50096 19.33714,-14.33221c9.39187,0.16875 18.14002,6.04094 18.65463,15.01472c0.04864,7.87741 -8.8723,10.4648 -8.8723,10.4648zM249.36764,137.62038c-3.95712,0.02856 -7.55608,2.59902 -7.25147,6.5219c0.30461,3.92291 2.9097,5.6863 6.91831,5.65731c4.0086,-0.02894 6.51277,-2.47887 6.22832,-6.14217c-0.28445,-3.6633 -1.93807,-6.06564 -5.8952,-6.03708zM224.52343,144.24792c0.2024,3.55758 2.95859,5.83679 7.00977,5.98954c4.05118,0.15275 6.34869,-2.53773 6.1384,-6.23329c-0.21026,-3.69552 -2.49937,-5.86005 -6.49618,-6.01072c-3.99681,-0.15071 -6.85443,2.69689 -6.65203,6.25447zM237.94925,151.72009l3.21842,-0.21556l-1.57762,-4.75019z" fill="#eceeec" stroke="#000000" stroke-width="0" stroke-linecap="round"/><path d="M237.46231,144.13566c0,2.77155 -2.35273,5.0183 -5.255,5.0183c-2.90227,0 -5.255,-2.24676 -5.255,-5.0183c0,-2.77155 2.35273,-5.0183 5.255,-5.0183c2.90227,0 5.255,2.24675 5.255,5.0183z" fill="#ff0000" stroke="none" stroke-width="0" stroke-linecap="butt"/><path d="M252.94724,144.42235c0,2.77155 -2.35277,5.0183 -5.255,5.0183c-2.90227,0 -5.25496,-2.24676 -5.25496,-5.0183c0,-2.77155 2.35273,-5.0183 5.25496,-5.0183c2.90227,0 5.255,2.24675 5.255,5.0183z" fill="#ff0000" stroke="none" stroke-width="0" stroke-linecap="butt"/><path d="M271.95851,245.44275c-1.0378,0.61953 -3.99906,0.93042 -3.99906,0.93042l-4.47182,-2.86395l8.23057,-4.77936l2.24802,3.37703c0,0 -0.36836,2.35719 -2.00772,3.33586z" data-paper-data="{&quot;index&quot;:null}" fill="#313431" stroke="none" stroke-width="0" stroke-linecap="butt"/><path d="M270.69837,244.83078c-0.78967,0.45973 -1.98667,0.33707 -1.98667,0.33707l-3.79258,-2.42891l6.9804,-4.05338l1.93111,3.50978c0,0 -0.71774,1.22976 -3.13226,2.63544z" data-paper-data="{&quot;index&quot;:null}" fill="#777777" stroke="none" stroke-width="0" stroke-linecap="butt"/><path d="M235.5834,174.73386c0,1.3185 -1.42511,2.38736 -3.18315,2.38736c-1.75804,0 -3.18315,-1.06886 -3.18315,-2.38736c0,-1.3185 1.42512,-2.38737 3.18315,-2.38737c1.75804,0 3.18315,1.06886 3.18315,2.38737z" fill="#494957" stroke="none" stroke-width="0" stroke-linecap="butt"/><path d="M250.74127,174.12753c0,1.3185 -1.42511,2.38736 -3.18315,2.38736c-1.75804,0 -3.18315,-1.06886 -3.18315,-2.38736c0,-1.3185 1.42512,-2.38737 3.18315,-2.38737c1.75804,0 3.18315,1.06886 3.18315,2.38737z" fill="#494957" stroke="none" stroke-width="0" stroke-linecap="butt"/><path d="M209.73425,159.61282c-1.18727,0.57348 -2.76955,-0.24493 -3.53419,-1.82793c-0.76463,-1.583 -0.42201,-3.33119 0.76527,-3.90466c1.18727,-0.57348 2.76955,0.24493 3.53419,1.82793c0.76463,1.583 0.42201,3.33119 -0.76527,3.90466z" fill="#494957" stroke="none" stroke-width="0" stroke-linecap="butt"/><path d="M270.06517,155.10183c0.76463,-1.58301 2.34696,-2.40142 3.53423,-1.82794c1.18723,0.57348 1.52986,2.32163 0.76527,3.90467c-0.76463,1.58301 -2.34696,2.40141 -3.53419,1.82793c-1.18723,-0.57348 -1.5299,-2.32162 -0.76527,-3.90466z" data-paper-data="{&quot;index&quot;:null}" fill="#494957" stroke="none" stroke-width="0" stroke-linecap="butt"/></g></g></g></svg>