<svg version="1.1" xmlns="http://www.w3.org/2000/svg" xmlns:xlink="http://www.w3.org/1999/xlink" width="163" height="298.24692" viewBox="0,0,163,298.24692"><defs><linearGradient x1="239.75" y1="31.12654" x2="239.75" y2="328.37346" gradientUnits="userSpaceOnUse" id="color-1"><stop offset="0" stop-color="#c19860"/><stop offset="1" stop-color="#a77842"/></linearGradient><radialGradient cx="240.7613" cy="317.31297" r="77" gradientUnits="userSpaceOnUse" id="color-2"><stop offset="0" stop-color="#804924"/><stop offset="1" stop-color="#6f3b12"/></radialGradient><radialGradient cx="239.33334" cy="88.54321" r="76.25" gradientUnits="userSpaceOnUse" id="color-3"><stop offset="0" stop-color="#def1f7"/><stop offset="1" stop-color="#41b7ed"/></radialGradient></defs><g transform="translate(-158.25,-30.62654)"><g data-paper-data="{&quot;isPaintingLayer&quot;:true}" fill-rule="nonzero" stroke-linecap="butt" stroke-linejoin="miter" stroke-miterlimit="10" stroke-dasharray="" stroke-dashoffset="0" style="mix-blend-mode: normal"><path d="M158.75,328.37346v-297.24692h162v297.24692z" fill="url(#color-1)" stroke="#7c552d" stroke-width="1"/><path d="M163.7613,326.89339v-19.16085h154v19.16085z" fill="url(#color-2)" stroke="none" stroke-width="0"/><path d="M163.08334,141.79321v-106.5h152.5v106.5z" fill="url(#color-3)" stroke="#788fa6" stroke-width="1"/><path d="M163.25,223.04075v-65h152v65z" fill="#a17944" stroke="#98703c" stroke-width="1"/><path d="M163.75,304.70741v-65h152v65z" fill="#a17944" stroke="#98703c" stroke-width="1"/><path d="M246.69618,224.96794l-26.23412,-34.10435l26.23412,-35.15371h71.3568v69.25806z" fill="#35af00" stroke="none" stroke-width="0"/><path d="M248.05297,223.45988l-25,-32.5l25,-33.5h68v66z" fill="#42d700" stroke="none" stroke-width="0"/><path d="M246.02951,306.30127l-26.23411,-34.10435l26.23411,-35.15372h71.3568v69.25806z" fill="#35af00" stroke="none" stroke-width="0"/><path d="M247.38631,304.45988l-25,-32.5l25,-33.5h68v66z" fill="#42d700" stroke="none" stroke-width="0"/></g></g></svg>