<svg version="1.1" xmlns="http://www.w3.org/2000/svg" xmlns:xlink="http://www.w3.org/1999/xlink" width="199.88437" height="132.00784" viewBox="0,0,199.88437,132.00784"><defs><linearGradient x1="240.00307" y1="133.71452" x2="240.00307" y2="226.28561" gradientUnits="userSpaceOnUse" id="color-1"><stop offset="0" stop-color="#76de30"/><stop offset="1" stop-color="#3bd214"/></linearGradient><linearGradient x1="240.13241" y1="130.76455" x2="240.13241" y2="229.6223" gradientUnits="userSpaceOnUse" id="color-2"><stop offset="0" stop-color="#00ddff"/><stop offset="1" stop-color="#00c1ff"/></linearGradient></defs><g transform="translate(-145.68743,-128.1147)"><g data-paper-data="{&quot;isPaintingLayer&quot;:true}" fill-rule="nonzero" stroke-linejoin="miter" stroke-miterlimit="10" stroke-dasharray="" stroke-dashoffset="0" style="mix-blend-mode: normal"><path d="M194.11559,148.58648c0,-7.16474 10.72821,-14.87201 14.00725,-14.87201c9.87664,0 47.69419,0.28692 65.34597,0.28692c3.82441,0 12.42161,8.76983 12.42161,16.99812c0,10.05142 0,41.94736 0,59.24121c0,10.10629 -4.991,14.61037 -8.75308,14.61037c-9.913,0 -50.539,1.43454 -69.75282,1.43454c-5.34563,0 -13.26901,-8.45636 -13.26901,-19.17335c0,-10.71693 0,-48.79133 0,-58.52582z" fill="url(#color-1)" stroke="#085001" stroke-width="0" stroke-linecap="butt"/><path d="M220.38865,135.07355c0,0 -4.96767,-0.17534 -10.41621,1.01166c-3.74392,0.81566 -7.71488,2.10771 -10.45716,5.21243c-2.85899,3.2369 -2.88329,7.8272 -3.4175,12.42551c-0.73382,6.31688 -1.30817,12.36577 -1.30817,12.36577c0,0 -0.72684,-6.39868 -0.38126,-13.51985c0.21678,-4.46659 -0.10324,-9.02383 3.42523,-13.06694c3.24754,-3.72108 7.71602,-4.81111 11.27982,-5.49752c6.20933,-1.19596 11.27532,1.06891 11.27532,1.06891z" fill="#bcff84" stroke="#dbffff" stroke-width="0" stroke-linecap="butt"/><path d="M190.0634,142.46147c0,-9.54893 3.29658,-11.8904 6.92186,-11.8904c10.91955,0 66.68709,0 86.20271,0c4.2282,0 6.75482,4.90465 6.75482,15.87109c0,13.39619 0,47.11128 0,70.15998c0,13.46934 -3.93202,12.82172 -8.0913,12.82172c-10.95974,0 -60.9506,0 -82.19322,0c-5.91002,0 -9.59484,-0.0313 -9.59484,-14.31453c0,-14.28316 -0.00003,-59.67416 -0.00003,-72.64792z" fill="none" stroke="#056300" stroke-width="2.5" stroke-linecap="butt"/><path d="M190.19272,142.65492c0,-9.54893 3.29658,-11.8904 6.92186,-11.8904c10.91955,0 66.68709,0 86.20271,0c4.2282,0 6.75482,4.90465 6.75482,15.87109c0,13.39619 0,47.11128 0,70.15998c0,13.46934 -3.93202,12.82172 -8.0913,12.82172c-10.95974,0 -60.9506,0 -82.19322,0c-5.91002,0 -9.59484,-0.0313 -9.59484,-14.31453c0,-14.28316 -0.00003,-59.67416 -0.00003,-72.64792z" fill="url(#color-2)" stroke="#0087d7" stroke-width="1.5" stroke-linecap="butt"/><path d="M207.07197,133.78767c-2.25985,0.07583 -7.05181,0.92221 -9.86315,4.10516c-2.931,3.31843 -3.33707,9.73943 -3.88473,14.45364c-0.75231,6.47604 -1.34115,12.67738 -1.34115,12.67738c0,0 -0.74515,-6.55993 -0.39085,-13.86053c0.22224,-4.57915 -1.29684,-13.06231 2.32057,-17.20728c3.32937,-3.81485 7.77396,-2.37954 12.99319,-2.30133c5.45567,0.08175 11.08304,0.61944 11.08304,0.61944c0,0 -8.16488,1.42119 -10.91693,1.51355z" fill="#ffffff" stroke="#dbffff" stroke-width="0" stroke-linecap="butt"/><path d="M188.37523,145.33307c0,-3.77815 1.49629,-8.91721 4.76961,-11.9813c3.60046,-3.37026 9.0892,-4.48707 11.02605,-4.48707c11.13771,0 53.78367,0.31769 73.68921,0.31769c2.59799,0 7.77255,2.91161 10.98085,7.70564c2.11766,3.1643 3.02672,7.49429 3.02672,11.11706c0,11.1303 0,46.45006 0,65.6002c0,5.10853 0.07441,8.92444 -1.60403,11.5633c-1.99842,3.142 -5.96085,4.61538 -8.26662,4.61538c-11.17866,0 -56.99167,1.5885 -78.65875,1.5885c-3.01904,0 -9.26159,-1.73639 -12.25126,-5.57208c-2.97983,-3.82301 -2.7118,-9.73547 -2.7118,-15.65928c0,-11.86731 -0.00006,-54.02864 -0.00006,-64.80805z" fill="none" stroke="#ffffff" stroke-width="1.5" stroke-linecap="butt"/><g stroke-width="0.5" stroke-linecap="butt"><path d="M266.6772,194.83874c7.97501,12.74695 9.46672,26.1919 3.33183,30.03014c-6.13489,3.83824 -17.57323,-3.38369 -25.54825,-16.13064c-7.97501,-12.74695 -9.46672,-26.1919 -3.33183,-30.03014c6.13489,-3.83824 17.57323,3.38369 25.54825,16.13064z" fill="#ffffff" stroke="#00bede"/><path d="M268.21584,169.7581c0,17.76998 -14.73133,32.1754 -32.90335,32.1754c-18.17202,0 -32.90335,-14.40542 -32.90335,-32.1754c0,-17.76998 14.73133,-32.1754 32.90335,-32.1754c18.17202,0 32.90335,14.40542 32.90335,32.1754z" fill="#ffffff" stroke="#00bede"/><path d="M257.90154,170.17701c0,11.71273 -10.14586,21.20778 -22.66142,21.20778c-12.51556,0 -22.66142,-9.49505 -22.66142,-21.20778c0,-11.71273 10.14586,-21.20778 22.66142,-21.20778c12.51556,0 22.66142,9.49505 22.66142,21.20778z" fill="#00daff" stroke="#00bede"/><path d="M245.10116,197.8876c2.34628,-1.79235 6.48388,-2.65662 8.41817,-4.58116c0.6971,-0.69358 2.70857,-3.1732 3.63147,-3.44947c0.3561,-0.1066 0.67098,-0.18464 0.95203,-0.2298c0.15222,-1.05737 1.06195,-1.86992 2.16145,-1.86992c1.20611,0 2.18385,0.97774 2.18385,2.18385c0,1.08728 -0.79458,1.98898 -1.83475,2.1561c-0.15062,0.91826 -1.36948,1.79415 -1.81802,2.30357c-2.19773,2.49599 -5.82116,4.73285 -8.84611,6.12407c-0.70309,0.32336 -3.63227,2.14862 -4.39408,1.64075l-0.91893,-0.98446c-0.21362,0.98203 -1.0879,1.71749 -2.13394,1.71749c-1.20611,0 -2.18385,-0.97774 -2.18385,-2.18385c0,-1.20611 0.97774,-2.18385 2.18385,-2.18385c0.55455,0 1.06083,0.2067 1.44599,0.54726c0.29319,-0.44364 0.68785,-0.83533 1.15288,-1.19058z" fill="#ffffff" stroke="none"/></g><path d="M166.60794,242.44567c0,0.91192 -0.07785,1.73932 -0.23354,2.48221c-0.15569,0.74288 -0.4048,1.42349 -0.74733,2.04182c-0.33808,0.61833 -0.77625,1.18995 -1.3145,1.71486c-0.5338,0.52491 -1.18104,1.02758 -1.94173,1.50801l4.17038,7.4266l-7.88034,1.54137l-2.7024,-7.46663l-2.16859,0.0734l-0.31361,7.28648h-7.53336c0.05783,-2.66459 0.11344,-5.31584 0.16682,-7.95374c0.05338,-2.6379 0.11344,-5.28915 0.18016,-7.95374c0.02669,-1.33897 0.05115,-2.66904 0.0734,-3.99021c0.02224,-1.32118 0.06895,-2.65347 0.14012,-3.99688c0.8185,-0.30249 1.62366,-0.5516 2.41548,-0.74733c0.79626,-0.20017 1.59253,-0.35587 2.38879,-0.46709c0.80071,-0.11121 1.61254,-0.18683 2.4355,-0.22687c0.82295,-0.04003 1.66815,-0.06005 2.53559,-0.06005c1.33007,0 2.61566,0.18461 3.85676,0.55382c1.24556,0.36477 2.34653,0.91637 3.30294,1.6548c0.96086,0.73399 1.72821,1.65035 2.30204,2.74911c0.57829,1.0943 0.86743,2.37099 0.86743,3.83007zM158.76097,243.00617c0,-0.48932 -0.06673,-0.93862 -0.20017,-1.34786c-0.13346,-0.40925 -0.33141,-0.76067 -0.59386,-1.05427c-0.26246,-0.29804 -0.58941,-0.53158 -0.98087,-0.70062c-0.39146,-0.17349 -0.84964,-0.26023 -1.37456,-0.26023c-0.23576,0 -0.46485,0.01557 -0.68728,0.04671c-0.21797,0.03114 -0.43371,0.07562 -0.64724,0.13346l-0.28025,6.51245h0.42038c0.50267,0 1.01423,-0.06451 1.53469,-0.19351c0.52046,-0.129 0.98755,-0.32695 1.40125,-0.59386c0.4137,-0.2669 0.75178,-0.60943 1.01423,-1.02758c0.26246,-0.4226 0.39368,-0.92749 0.39368,-1.51468zM184.40793,234.07823c-0.07117,1.0943 -0.13568,2.17972 -0.19351,3.25623c-0.05783,1.07206 -0.13346,2.15748 -0.22687,3.25623l-7.4266,0.38701l-0.17349,2.20863h5.21797l-0.38701,5.42482l-5.25134,0.18016l-0.18015,2.55561h4.34386h3.08274c-0.06673,1.28559 -0.14012,2.56228 -0.22019,3.83007c-0.07562,1.26335 -0.14235,2.53114 -0.20017,3.80338l-15.09341,0.35365l0.5605,-25.25578zM206.42166,234.77886l-6.40569,24.38167l-8.68773,0.48711l-7.88701,-24.62856l8.30739,-0.76735l3.36299,14.35943l3.25623,-14.35943zM216.43974,234.6721l-1.92171,23.85454l-7.39324,0.38701v-23.75445zM234.23973,234.07823c-0.07117,1.0943 -0.13568,2.17972 -0.19351,3.25623c-0.05783,1.07206 -0.13346,2.15748 -0.22687,3.25623l-7.4266,0.38701l-0.17349,2.20863h5.21797l-0.38701,5.42482l-5.25134,0.18016l-0.18015,2.55561h4.34386h3.08274c-0.06673,1.28559 -0.14012,2.56228 -0.22019,3.83007c-0.07562,1.26335 -0.14235,2.53114 -0.20017,3.80338l-15.09342,0.35365l0.5605,-25.25578zM266.42917,235.01907l-4.09697,24.28158l-9.94885,0.20685l-2.13523,-12.57785l-2.13523,11.67037l-9.94884,0.34697l-4.13701,-23.92793l8.68773,-0.76735l1.7549,14.53959l2.34208,-14.53958h6.83274l2.73577,14.71308l1.40125,-14.71308zM301.47949,233.79799l-1.6081,25.70953l-7.98709,0.35365l0.06673,-13.55872l-3.60988,10.92972h-3.08274l-2.76245,-9.77535l-0.04003,11.3501l-8.08718,0.24689l0.34697,-24.20819l9.00133,-0.34697l3.57651,11.5903l4.76423,-12.29092zM324.54832,257.82601l-8.68773,1.121l-1.0476,-3.95685h-3.99688l-0.87411,3.95685l-8.93461,-0.87411l6.97287,-23.33407l9.73532,-0.4871zM314.17911,249.63206l-1.32784,-6.09875l-1.30115,6.09875zM345.32179,242.48571c0,1.12989 -0.16904,2.133 -0.50712,3.00934c-0.33808,0.87633 -0.80294,1.64146 -1.39457,2.29538c-0.58719,0.65392 -1.27891,1.20996 -2.07518,1.66815c-0.79182,0.45373 -1.64146,0.82295 -2.54893,1.10765c-0.90302,0.2847 -1.83941,0.496 -2.80916,0.6339c-0.96975,0.13346 -1.92171,0.20463 -2.85587,0.21353v8.16726h-8.16059c0,-2.67349 0.00445,-5.33585 0.01334,-7.98709c0.01334,-2.65124 0.03114,-5.32695 0.05338,-8.02713c0.02669,-1.42349 0.03336,-2.84698 0.02002,-4.27046c-0.01334,-1.42349 0.01557,-2.86032 0.08675,-4.3105c1.49466,-0.44484 2.98932,-0.77625 4.48399,-0.99421c1.49466,-0.22242 3.03603,-0.33363 4.62411,-0.33363c0.89858,0 1.79715,0.0734 2.69573,0.22019c0.89858,0.14235 1.75934,0.37144 2.5823,0.68728c0.8274,0.31583 1.59253,0.71174 2.29538,1.18772c0.7073,0.47153 1.31672,1.03425 1.82829,1.68817c0.51602,0.65392 0.92304,1.39902 1.22108,2.23533c0.29804,0.83186 0.44707,1.76824 0.44707,2.80917zM337.54822,243.07957c0,-0.76067 -0.23132,-1.35232 -0.69395,-1.77491c-0.46263,-0.42704 -1.06094,-0.64057 -1.79493,-0.64057c-0.24466,0 -0.49822,0.02002 -0.76067,0.06005c-0.26246,0.04003 -0.51157,0.08897 -0.74733,0.1468l-0.20685,5.11788c0.16014,0.02224 0.31583,0.03336 0.46709,0.03336c0.15569,0 0.31362,0 0.47375,0c0.4226,0 0.82962,-0.06895 1.22108,-0.20685c0.39146,-0.14235 0.73843,-0.34475 1.04093,-0.60721c0.30249,-0.26246 0.54493,-0.57162 0.72732,-0.92749c0.18239,-0.35587 0.27358,-0.75623 0.27358,-1.20106z" fill="#fdfdfd" stroke="#000000" stroke-width="0.5" stroke-linecap="square"/></g></g></svg>