<svg version="1.1" xmlns="http://www.w3.org/2000/svg" xmlns:xlink="http://www.w3.org/1999/xlink" width="130.73472" height="82.42005" viewBox="0,0,130.73472,82.42005"><defs><radialGradient cx="232.66888" cy="180" r="64.53277" gradientUnits="userSpaceOnUse" id="color-1"><stop offset="0" stop-color="#c003b0"/><stop offset="1" stop-color="#3e0050"/></radialGradient></defs><g transform="translate(-167.22124,-138.79164)"><g data-paper-data="{&quot;isPaintingLayer&quot;:true}" fill-rule="nonzero" stroke-linejoin="miter" stroke-miterlimit="10" stroke-dasharray="" stroke-dashoffset="0" style="mix-blend-mode: normal"><path d="M297.20165,219.21832l-100.12914,1.23847l-28.9364,-42.10808l27.55848,-38.80549l101.04776,0.41282z" fill="url(#color-1)" stroke="#4b0059" stroke-width="1.5" stroke-linecap="round"/><path d="M210.34591,142.15947c-0.30869,2.41182 -0.57267,4.81211 -0.79192,7.20085c-0.21926,2.38586 -0.42842,4.78902 -0.62748,7.2095l-4.21059,0.30725l0.18175,-1.58384c-0.13559,0.15867 -0.29427,0.29715 -0.47602,0.41544c-0.18175,0.1154 -0.37505,0.20915 -0.57987,0.28128c-0.20483,0.06924 -0.41688,0.11973 -0.63613,0.15146c-0.21926,0.03173 -0.42842,0.04327 -0.62748,0.03462c-0.46736,-0.00577 -0.90731,-0.0952 -1.31986,-0.2683c-0.40966,-0.17598 -0.78615,-0.40967 -1.12946,-0.70105c-0.34043,-0.29138 -0.64768,-0.63036 -0.92175,-1.01694c-0.27407,-0.38658 -0.50631,-0.79336 -0.69671,-1.22034c-0.18752,-0.42986 -0.33177,-0.86693 -0.43274,-1.31122c-0.09809,-0.44717 -0.14713,-0.87991 -0.14713,-1.29823c0,-0.61738 0.01154,-1.25639 0.03462,-1.91705c0.02597,-0.66065 0.06924,-1.32275 0.12982,-1.98629c0.06347,-0.66643 0.14425,-1.3242 0.24234,-1.97331c0.09809,-0.652 0.22358,-1.27659 0.37649,-1.87378c0.83375,0.04327 1.67183,0.08222 2.51424,0.11684c0.84529,0.03173 1.68481,0.04183 2.51856,0.03029c-0.15579,0.5943 -0.31158,1.19149 -0.46736,1.79156c-0.15291,0.60007 -0.29138,1.20303 -0.41544,1.80887c-0.12405,0.60584 -0.22358,1.21456 -0.29859,1.82618c-0.07501,0.60872 -0.11252,1.22466 -0.11252,1.84781c0,0.14425 0.00721,0.35052 0.02164,0.61882c0.01442,0.26541 0.05049,0.52939 0.10819,0.79192c0.0577,0.25965 0.14569,0.48756 0.26397,0.68373c0.12117,0.1933 0.29138,0.28994 0.51064,0.28994c0.25965,0 0.49188,-0.11107 0.69671,-0.33321c0.20772,-0.22214 0.38947,-0.52074 0.54525,-0.89578c0.15867,-0.37793 0.29427,-0.81356 0.40678,-1.30688c0.1154,-0.49332 0.21204,-1.00829 0.28993,-1.54489c0.0779,-0.53949 0.13992,-1.0833 0.18608,-1.63144c0.04905,-0.54814 0.0851,-1.0631 0.10818,-1.54489c0.02597,-0.48467 0.04327,-0.91885 0.05193,-1.30255c0.01154,-0.3837 0.01731,-0.6823 0.01731,-0.89578c0,-0.13559 -0.00432,-0.2683 -0.01298,-0.39813c-0.00577,-0.1327 -0.01443,-0.26685 -0.02597,-0.40245c0.44428,0.01442 0.88568,0.02452 1.3242,0.03029c0.43851,0.00577 0.87991,0.00866 1.32419,0.00866c0.34331,0 0.68806,-0.00144 1.03426,-0.00433c0.34619,-0.00288 0.69384,-0.01442 1.04291,-0.03462zM222.93657,147.15333c0,0.66643 -0.09953,1.2564 -0.29859,1.76992c-0.19906,0.51352 -0.47169,0.96357 -0.81789,1.35016c-0.34619,0.38658 -0.75297,0.71258 -1.22034,0.97799c-0.46448,0.26253 -0.96213,0.47746 -1.49296,0.64479c-0.53083,0.16733 -1.08041,0.29138 -1.64875,0.37216c-0.56833,0.0779 -1.12658,0.11972 -1.67472,0.1255v4.37936h-4.79046c0,-0.78182 0.00144,-1.542 0.00432,-2.28055c0.00577,-0.74143 0.0101,-1.47565 0.01298,-2.20266c0.00288,-0.72989 0.00577,-1.46411 0.00866,-2.20266c0.00288,-0.74143 0.00866,-1.50739 0.01731,-2.29787c0.01442,-0.83375 0.01731,-1.66895 0.00866,-2.50558c-0.00577,-0.83664 0.01154,-1.67905 0.05193,-2.52722c0.87703,-0.26253 1.75405,-0.4587 2.63107,-0.58853c0.87703,-0.12983 1.78146,-0.19474 2.7133,-0.19474c0.52794,0 1.0559,0.04328 1.58384,0.12983c0.52794,0.08655 1.03281,0.22214 1.5146,0.40677c0.48467,0.18463 0.93328,0.41544 1.34583,0.69239c0.41544,0.27695 0.77316,0.60728 1.0732,0.99098c0.30292,0.3837 0.54093,0.82221 0.71403,1.31554c0.17598,0.49332 0.26397,1.04147 0.26397,1.64442zM218.37546,147.50385c0,-0.44428 -0.13559,-0.79192 -0.40678,-1.04291c-0.27119,-0.25099 -0.62315,-0.37649 -1.05589,-0.37649c-0.14425,0 -0.29282,0.01298 -0.44573,0.03894c-0.15291,0.02308 -0.29859,0.05193 -0.43707,0.08655l-0.12117,2.99891c0.0952,0.01442 0.18752,0.02164 0.27696,0.02164c0.08944,0 0.18175,0 0.27695,0c0.24522,0 0.48179,-0.04038 0.7097,-0.12116c0.2308,-0.08366 0.43563,-0.20194 0.6145,-0.35485c0.17887,-0.15579 0.32167,-0.33754 0.42842,-0.54526c0.10674,-0.2106 0.16011,-0.44573 0.16011,-0.70537zM235.95023,154.32821c-0.32312,0.4039 -0.72123,0.7573 -1.19437,1.06022c-0.47314,0.30004 -0.98089,0.54959 -1.52326,0.74865c-0.53949,0.19906 -1.0934,0.34907 -1.66173,0.45005c-0.56833,0.09809 -1.10927,0.14714 -1.62279,0.14714c-0.99531,0 -1.91128,-0.16733 -2.74792,-0.50199c-0.83375,-0.33754 -1.55499,-0.80634 -2.16371,-1.40641c-0.60584,-0.60007 -1.08041,-1.3141 -1.42372,-2.14208c-0.34043,-0.82799 -0.51064,-1.73242 -0.51064,-2.7133c0,-0.74721 0.0851,-1.47277 0.25532,-2.1767c0.17309,-0.70682 0.41832,-1.36891 0.73566,-1.98629c0.31734,-0.61738 0.70537,-1.18283 1.16408,-1.69635c0.46159,-0.51352 0.98233,-0.95492 1.5622,-1.32419c0.58276,-0.36927 1.22178,-0.65489 1.91706,-0.85683c0.69816,-0.20483 1.43671,-0.30724 2.21565,-0.30724c0.29426,0 0.60872,0.01298 0.94338,0.03894c0.33754,0.02308 0.67219,0.06347 1.00396,0.12117c0.33465,0.0577 0.65921,0.13847 0.97367,0.24233c0.31446,0.10386 0.60151,0.2308 0.86115,0.38082l-0.28561,3.92498c-0.3837,-0.14425 -0.78038,-0.24089 -1.19004,-0.28994c-0.40678,-0.05193 -0.8049,-0.0779 -1.19437,-0.0779c-0.54814,0 -1.06023,0.07357 -1.53624,0.2207c-0.47601,0.14713 -0.89145,0.36495 -1.2463,0.65345c-0.35197,0.28561 -0.63037,0.64478 -0.83519,1.07753c-0.20483,0.43275 -0.30724,0.93328 -0.30724,1.50162c0,0.35485 0.0476,0.6996 0.14281,1.03426c0.0952,0.33177 0.23945,0.62604 0.43274,0.8828c0.19618,0.25676 0.43995,0.46448 0.73134,0.62315c0.29138,0.15579 0.62892,0.23368 1.01262,0.23368c0.26253,0 0.53228,-0.03462 0.80923,-0.10386c0.27695,-0.06924 0.51496,-0.18608 0.71402,-0.35052l0.03895,-0.80058l-2.46663,-0.03894l0.1255,-3.08546c1.02128,-0.03462 2.0411,-0.06347 3.05949,-0.08655c1.02128,-0.02308 2.04976,-0.05626 3.08546,-0.09953zM248.7762,146.72058c0,0.5366 -0.04616,1.02271 -0.13848,1.45834c-0.09232,0.43275 -0.23801,0.83087 -0.43707,1.19437c-0.19906,0.36351 -0.45727,0.6996 -0.77461,1.00829c-0.31446,0.30869 -0.69384,0.60296 -1.13811,0.8828l2.445,4.35772l-4.62602,0.90444l-1.57951,-4.37937l-1.27659,0.04327l-0.18608,4.27551h-4.41831c0.03462,-1.56365 0.06636,-3.11864 0.09521,-4.66497c0.03173,-1.54922 0.06924,-3.10565 0.11252,-4.6693c0.01154,-0.78759 0.02452,-1.56797 0.03894,-2.34114c0.01442,-0.77317 0.04183,-1.555 0.08222,-2.34547c0.4789,-0.17598 0.95059,-0.32167 1.41507,-0.43707c0.46736,-0.11828 0.93617,-0.20916 1.40642,-0.27263c0.47025,-0.06635 0.94627,-0.11107 1.42806,-0.13415c0.48467,-0.02597 0.97944,-0.03894 1.48431,-0.03894c0.78182,0 1.53768,0.10818 2.26757,0.32456c0.72989,0.21637 1.37613,0.54093 1.93869,0.97367c0.56257,0.42986 1.01262,0.9679 1.35016,1.61413c0.34043,0.64335 0.51064,1.39199 0.51064,2.24594zM244.17181,147.04947c0,-0.28561 -0.04039,-0.54814 -0.12117,-0.78759c-0.0779,-0.24233 -0.19473,-0.45006 -0.35052,-0.62315c-0.15291,-0.17598 -0.34475,-0.31301 -0.57555,-0.4111c-0.22791,-0.10098 -0.49621,-0.15146 -0.8049,-0.15146c-0.13559,0 -0.26975,0.00866 -0.40246,0.02597c-0.12983,0.01731 -0.25531,0.04327 -0.37649,0.07789l-0.16444,3.82545h0.24666c0.29426,0 0.59286,-0.0375 0.89578,-0.11251c0.3058,-0.0779 0.57987,-0.19474 0.82221,-0.35052c0.24522,-0.15867 0.44428,-0.36062 0.59719,-0.60584c0.15579,-0.24811 0.23368,-0.54381 0.23368,-0.88712zM262.44385,155.74761l-5.09771,0.65777l-0.61449,-2.32383h-2.34547l-0.51496,2.32383l-5.24052,-0.51496l4.08943,-13.69199l5.71653,-0.28561zM256.35948,150.9355l-0.77894,-3.57446l-0.76163,3.57446zM274.30426,148.46887c0,0.96069 -0.12405,1.82184 -0.37216,2.58347c-0.24522,0.75875 -0.58853,1.43094 -1.02993,2.01659c-0.4414,0.58564 -0.9679,1.08474 -1.57951,1.49729c-0.60872,0.40966 -1.27659,0.74721 -2.0036,1.01262c-0.72701,0.26253 -1.50018,0.45582 -2.3195,0.57988c-0.81644,0.12117 -1.65597,0.18175 -2.51857,0.18175c-0.32311,0 -0.63901,-0.00722 -0.9477,-0.02164c-0.30869,-0.01731 -0.62315,-0.04328 -0.94338,-0.0779l0.28561,-13.38474c0.75297,-0.23945 1.52902,-0.40822 2.32815,-0.50631c0.79913,-0.10098 1.5925,-0.15146 2.38009,-0.15146c0.978,0 1.87811,0.13704 2.70031,0.41111c0.82221,0.27407 1.53191,0.67797 2.1291,1.21168c0.59719,0.53083 1.06167,1.18572 1.39344,1.96465c0.33177,0.77606 0.49766,1.67039 0.49766,2.68301zM267.31546,152.41548c0.41255,-0.06059 0.78759,-0.18464 1.12513,-0.37216c0.34042,-0.1904 0.63325,-0.42409 0.87847,-0.70104c0.24811,-0.27695 0.43851,-0.59141 0.57122,-0.94338c0.1327,-0.35485 0.19906,-0.73134 0.19906,-1.12946c0,-0.38947 -0.04183,-0.75298 -0.1255,-1.09052c-0.08078,-0.34043 -0.21349,-0.63469 -0.39812,-0.88279c-0.18464,-0.25099 -0.42842,-0.45005 -0.73134,-0.59718c-0.30003,-0.15001 -0.66931,-0.2308 -1.10782,-0.24233l-0.41111,5.95887zM286.41294,148.32606c0,0.59718 -0.04183,1.19293 -0.1255,1.78723c-1.17129,0.07501 -2.33682,0.19761 -3.49656,0.36783c-1.15686,0.16733 -2.31374,0.33321 -3.4706,0.49766c0.17887,0.49332 0.45727,0.88712 0.83519,1.18138c0.38081,0.29426 0.83519,0.44141 1.36314,0.44141c0.27407,0 0.5741,-0.05048 0.9001,-0.15146c0.326,-0.10386 0.64912,-0.23224 0.96935,-0.38514c0.32311,-0.15579 0.6318,-0.32312 0.92607,-0.50199c0.29426,-0.17887 0.54814,-0.34042 0.76163,-0.48467l-0.49333,4.6693c-0.2683,0.20483 -0.55824,0.37937 -0.86981,0.52362c-0.31158,0.14425 -0.63614,0.26109 -0.97368,0.35052c-0.33465,0.08944 -0.67363,0.15435 -1.01694,0.19474c-0.34042,0.04039 -0.67508,0.06058 -1.00396,0.06058c-0.67796,0 -1.29823,-0.09232 -1.86079,-0.27695c-0.56257,-0.18463 -1.07175,-0.44284 -1.52758,-0.77461c-0.45583,-0.33465 -0.85539,-0.72701 -1.1987,-1.17706c-0.34042,-0.45293 -0.62459,-0.94627 -0.85251,-1.47998c-0.22503,-0.5366 -0.39668,-1.10205 -0.51496,-1.69635c-0.1154,-0.59718 -0.1731,-1.20014 -0.1731,-1.80887c0,-0.63757 0.0577,-1.27515 0.1731,-1.91272c0.11829,-0.63757 0.29571,-1.25063 0.53227,-1.83916c0.23656,-0.58853 0.53372,-1.13523 0.89145,-1.6401c0.36062,-0.50486 0.78038,-0.94482 1.25928,-1.31986c0.48179,-0.37793 1.0256,-0.6722 1.63144,-0.8828c0.60584,-0.21348 1.27515,-0.32023 2.00793,-0.32023c0.61161,0 1.16841,0.08366 1.67039,0.25099c0.50486,0.16733 0.95348,0.40101 1.34583,0.70104c0.39524,0.29715 0.73855,0.65199 1.02993,1.06455c0.29138,0.40966 0.53083,0.85971 0.71835,1.35016c0.1904,0.49044 0.33177,1.0083 0.42409,1.55355c0.09232,0.54237 0.13848,1.09484 0.13848,1.65741zM282.30189,147.78946c0,-0.1904 -0.02164,-0.38659 -0.06491,-0.58853c-0.04039,-0.20194 -0.10674,-0.38514 -0.19906,-0.54958c-0.09232,-0.16444 -0.21349,-0.30004 -0.3635,-0.40678c-0.15001,-0.10674 -0.33899,-0.16011 -0.5669,-0.16011c-0.27407,0 -0.51641,0.07357 -0.72701,0.2207c-0.20772,0.14713 -0.38659,0.33321 -0.5366,0.55823c-0.15001,0.22214 -0.27407,0.46304 -0.37216,0.72269c-0.09521,0.25965 -0.16589,0.49909 -0.21204,0.71835l3.04219,-0.28561z" fill="#ffffff" stroke="#450051" stroke-width="0.5" stroke-linecap="square"/><g fill="#ffffff" stroke="#4b0059" stroke-width="0.5"><path d="" stroke-linecap="butt"/><path d="" stroke-linecap="butt"/><path d="" stroke-linecap="butt"/><path d="M190.91772,201.64812l0.14,-5.58016c-0.3,-0.05334 -0.60668,-0.12001 -0.92003,-0.20001c-0.31334,-0.08 -0.62002,-0.16334 -0.92002,-0.25c-0.29334,-0.09333 -0.57668,-0.18667 -0.85003,-0.28001c-0.27335,-0.09333 -0.52002,-0.19 -0.74002,-0.29001l0.49002,-3.4801c0.59335,0.3 1.25671,0.52668 1.99006,0.68002c0.74002,0.15334 1.47338,0.23001 2.20006,0.23001c0.13333,0 0.29667,-0.00333 0.49001,-0.01c0.19334,-0.01334 0.38001,-0.04001 0.56001,-0.08c0.18,-0.04666 0.33335,-0.11667 0.46001,-0.21001c0.12667,-0.09333 0.19,-0.22001 0.19,-0.38002c0,-0.17334 -0.09333,-0.30334 -0.28,-0.39001c-0.18,-0.09333 -0.39668,-0.16 -0.65002,-0.20001c-0.24668,-0.04666 -0.50002,-0.07334 -0.76003,-0.08c-0.25334,-0.00666 -0.44668,-0.01 -0.58002,-0.01c-0.61336,0 -1.17003,-0.08 -1.67005,-0.24c-0.50001,-0.16667 -0.93336,-0.39668 -1.30004,-0.69002c-0.36001,-0.3 -0.64002,-0.65669 -0.84002,-1.07003c-0.20001,-0.41334 -0.3,-0.88003 -0.3,-1.40004c0,-0.48668 0.08334,-0.9367 0.25001,-1.35004c0.16667,-0.41334 0.39667,-0.79002 0.69001,-1.13003c0.3,-0.34001 0.65336,-0.64002 1.06003,-0.90003c0.41334,-0.26001 0.86336,-0.47668 1.35004,-0.65002l-0.23001,-5.97018l1.53004,0.14v5.49016c0.13333,-0.02667 0.26001,-0.04666 0.38001,-0.06c0.12667,-0.01334 0.25668,-0.03 0.39001,-0.05l-0.03001,-5.52016l1.53005,0.02l-0.20001,5.50016c0.62002,0.02 1.2467,0.08 1.88005,0.18c0.63335,0.10001 1.21337,0.25668 1.74005,0.47001l-0.36001,3.60011c-0.50001,-0.13333 -1.01669,-0.24668 -1.55005,-0.34001c-0.52668,-0.09333 -1.03002,-0.14 -1.51004,-0.14c-0.15334,0 -0.35668,0.00666 -0.61002,0.02c-0.24668,0.00666 -0.49001,0.03334 -0.73002,0.08c-0.24,0.04666 -0.45002,0.11666 -0.63002,0.21c-0.17334,0.09333 -0.25334,0.22668 -0.24,0.40001c0.00666,0.14001 0.06667,0.24668 0.18,0.32001c0.11334,0.06667 0.25668,0.11667 0.43001,0.15001c0.18,0.03333 0.37668,0.05 0.59002,0.05c0.22,0 0.43002,-0.00334 0.63002,-0.01c0.20667,-0.01334 0.39668,-0.02333 0.57002,-0.03c0.18,-0.01334 0.32334,-0.01334 0.43001,0c0.56668,0.02667 1.0767,0.12667 1.53005,0.3c0.45335,0.16667 0.84002,0.39335 1.16003,0.68002c0.32001,0.28667 0.56335,0.63002 0.73002,1.03003c0.17334,0.39335 0.26001,0.82669 0.26001,1.30004c0,0.66002 -0.11001,1.2467 -0.33001,1.76005c-0.22,0.50668 -0.53001,0.9467 -0.93003,1.32004c-0.39335,0.37334 -0.86669,0.68336 -1.42004,0.93003c-0.55336,0.24 -1.16003,0.41668 -1.82005,0.53001l0.22,5.58016l-1.38004,0.14l-0.06,-5.58016c-0.13333,0.02 -0.26668,0.03 -0.40001,0.03c-0.12667,0 -0.25668,0 -0.39001,0h-0.06l0.03,5.52017z" stroke-linecap="square"/></g></g></g></svg>