<svg version="1.1" xmlns="http://www.w3.org/2000/svg" xmlns:xlink="http://www.w3.org/1999/xlink" width="151.92029" height="173.59482" viewBox="0,0,151.92029,173.59482"><defs><linearGradient x1="168.57378" y1="147.64915" x2="232.85551" y2="147.64915" gradientUnits="userSpaceOnUse" id="color-1"><stop offset="0" stop-color="#49585a"/><stop offset="1" stop-color="#677678"/></linearGradient></defs><g transform="translate(-163.64969,-93.10702)"><g data-paper-data="{&quot;isPaintingLayer&quot;:true}" fill-rule="nonzero" stroke-linejoin="miter" stroke-miterlimit="10" stroke-dasharray="" stroke-dashoffset="0" style="mix-blend-mode: normal"><path d="M284.71384,252.41867c0,0 -2.96385,7.29024 -3.90285,9.69896c-0.53026,1.36017 -2.26923,3.19718 -4.10336,3.20595c-14.7625,0.07058 -81.75232,0.50106 -89.15156,0.62836c-1.30855,0.02249 -2.99626,-1.35428 -3.58071,-2.47796c-1.18469,-2.27773 -5.58894,-10.13395 -5.58894,-10.13395z" fill="none" stroke="#3f5f80" stroke-width="1.5" stroke-linecap="round"/><path d="M284.47284,190.36547c0,0 0.22461,61.52002 0.22526,63.15651c0.00063,1.6365 -2.24872,4.04118 -4.7305,4.35562c-2.56287,0.32472 -90.8526,-0.20418 -93.93402,-0.21779c-3.08142,-0.01363 -7.6754,-1.99624 -7.88415,-5.22675c-0.20875,-3.23051 0,-50.30743 0,-50.30743z" fill="none" stroke="#3f5f80" stroke-width="1.5" stroke-linecap="round"/><path d="M288.88241,243.41518v-9.7233h25.80105v9.7233z" fill="none" stroke="#3f5f80" stroke-width="1.5" stroke-linecap="butt"/><path d="M288.60938,241.01959c0,-5.83698 5.86745,-10.5688 13.1053,-10.5688c7.23785,0 13.1053,4.7318 13.1053,10.5688c0,5.83698 -5.86745,10.5688 -13.1053,10.5688c-7.23785,0 -13.1053,-4.73179 -13.1053,-10.5688z" fill="none" stroke="#3f5f80" stroke-width="1.5" stroke-linecap="butt"/><path d="M288.75032,233.83281c0,-5.83698 5.80435,-10.5688 12.96439,-10.5688c7.16001,0 12.96439,4.7318 12.96439,10.5688c0,5.83698 -5.80435,10.5688 -12.96439,10.5688c-7.16001,0 -12.96439,-4.7318 -12.96439,-10.5688z" fill="none" stroke="#3f5f80" stroke-width="1.5" stroke-linecap="butt"/><path d="M283.53636,201.14003c0,0 12.04901,0.80626 19.44657,10.70971c6.7468,9.03229 5.91853,21.98308 5.91853,21.98308c0,0 -1.91422,3.67122 -6.20034,3.80475c-5.55782,0.17316 -8.03227,-3.80475 -8.03227,-3.80475c0,0 -0.91292,-7.75405 -4.36844,-11.55521c-3.39249,-3.73181 -11.4143,-6.90494 -11.4143,-6.90494z" fill="none" stroke="#3f5f80" stroke-width="1.5" stroke-linecap="round"/><path d="M176.83177,189.39384l110.415,1.08889l-16.26942,53.79191l-77.87618,-0.43556z" fill="none" stroke="#3f5f80" stroke-width="1.5" stroke-linecap="round"/><path d="M197.32088,190.86962v-57.29458h89.43541v57.29458z" fill="none" stroke="#3f5f80" stroke-width="1.5" stroke-linecap="butt"/><path d="M241.24008,154.93575l3.39377,-47.51258l29.74525,0.5989l4.19229,47.51258c0,0 -2.32122,14.76228 -18.56584,14.7728c-17.04744,0.01104 -18.76546,-15.37169 -18.76546,-15.37169z" fill="none" stroke="#3f5f80" stroke-width="1.5" stroke-linecap="round"/><path d="M234.6522,105.62647v56.49606l-1.99632,-0.79855l-0.39927,-54.30006z" fill="none" stroke="#3f5f80" stroke-width="1.5" stroke-linecap="round"/><path d="M231.85734,159.92656l-62.28538,37.13167l-0.99815,-53.10229l63.48318,-45.71587l0.79852,60.48869" fill="none" stroke="#3f5f80" stroke-width="1.5" stroke-linecap="round"/><path d="M244.83347,108.22171c0,-6.84003 6.74807,-12.38497 15.07227,-12.38497c8.3242,0 15.07225,5.54494 15.07225,12.38497c0,6.84004 -6.74807,12.38497 -15.07225,12.38497c-8.3242,0 -15.07227,-5.54493 -15.07227,-12.38497z" fill="none" stroke="#3f5f80" stroke-width="1.5" stroke-linecap="butt"/><path d="M233.45441,108.42133l-64.28171,38.92837l-3.99266,-1.99632l64.08208,-40.12616z" fill="none" stroke="#3f5f80" stroke-width="1.5" stroke-linecap="round"/><path d="M233.45441,108.62096l-3.59339,-2.79484l-64.48135,39.72689l-0.19963,-11.57869l64.68098,-39.92653l3.59339,3.39377z" fill="none" stroke="#3f5f80" stroke-width="1.5" stroke-linecap="round"/><path d="M233.65403,139.56403l-64.28173,38.92837l-3.99263,-1.99632l64.08208,-40.12616z" fill="none" stroke="#3f5f80" stroke-width="1.5" stroke-linecap="round"/><path d="M233.65403,139.76365l-3.59339,-2.79484l-64.48135,39.72689l-0.19962,-11.57869l64.68097,-39.92653l3.59339,3.39376z" fill="none" stroke="#3f5f80" stroke-width="1.5" stroke-linecap="round"/><path d="M235.24437,171.08357l-65.967,39.94896l-4.09733,-2.04869l65.76216,-41.17816z" fill="none" stroke="#3f5f80" stroke-width="1.5" stroke-linecap="round"/><path d="M235.24437,171.28842l-3.68761,-2.86815l-66.17187,40.76842l-0.20487,-11.88225l66.37675,-40.97329l3.68761,3.48274z" fill="none" stroke="#3f5f80" stroke-width="1.5" stroke-linecap="round"/><path d="M284.71384,252.41867c0,0 -2.96385,7.29024 -3.90285,9.69896c-0.53026,1.36017 -2.26923,3.19718 -4.10336,3.20595c-14.7625,0.07058 -81.75232,0.50106 -89.15156,0.62836c-1.30855,0.02249 -2.99626,-1.35428 -3.58071,-2.47796c-1.18469,-2.27773 -5.58894,-10.13395 -5.58894,-10.13395z" fill="#514751" stroke="#000000" stroke-width="0" stroke-linecap="round"/><path d="M284.47284,190.36547c0,0 0.22461,61.52002 0.22526,63.15651c0.00063,1.6365 -2.24872,4.04118 -4.7305,4.35562c-2.56287,0.32472 -90.8526,-0.20418 -93.93402,-0.21779c-3.08142,-0.01363 -7.6754,-1.99624 -7.88415,-5.22675c-0.20875,-3.23051 0,-50.30743 0,-50.30743z" fill="#716b79" stroke="#000000" stroke-width="0" stroke-linecap="round"/><path d="M282.70964,188.52271c0,0 0.21718,61.52002 0.21778,63.15652c0.0006,1.6365 -2.17404,4.04117 -4.5734,4.35561c-2.47778,0.32472 -87.83562,-0.20417 -90.8147,-0.21778c-2.97911,-0.01363 -7.42051,-1.99625 -7.62234,-5.22675c-0.20183,-3.2305 0,-50.30742 0,-50.30742z" fill="#6b6370" stroke="#000000" stroke-width="0" stroke-linecap="round"/><path d="M288.88241,243.41515v-9.72328h25.80105v9.72328z" fill="#8d969b" stroke="none" stroke-width="0" stroke-linecap="butt"/><path d="M288.60938,241.01959c0,-5.83698 5.86745,-10.5688 13.1053,-10.5688c7.23785,0 13.1053,4.7318 13.1053,10.5688c0,5.83698 -5.86745,10.5688 -13.1053,10.5688c-7.23785,0 -13.1053,-4.73179 -13.1053,-10.5688z" fill="#8d969b" stroke="none" stroke-width="0" stroke-linecap="butt"/><path d="M288.75029,233.83279c0,-5.83698 5.80435,-10.56878 12.96437,-10.56878c7.16004,0 12.96437,4.7318 12.96437,10.56878c0,5.83698 -5.80435,10.56877 -12.96437,10.56877c-7.16004,0 -12.96437,-4.73179 -12.96437,-10.56877z" fill="#bdcbcf" stroke="none" stroke-width="0" stroke-linecap="butt"/><path d="M283.53636,201.14c0,0 12.04904,0.80626 19.44657,10.70971c6.74683,9.03229 5.91853,21.98308 5.91853,21.98308c0,0 -1.91425,3.67124 -6.20037,3.80478c-5.55782,0.17313 -8.03227,-3.80478 -8.03227,-3.80478c0,0 -0.91292,-7.75406 -4.36844,-11.55521c-3.39247,-3.73181 -11.41427,-6.90493 -11.41427,-6.90493z" fill="#3278d3" stroke="#000000" stroke-width="0" stroke-linecap="round"/><path d="M299.88277,228.19613c0,0 -2.14171,0.50023 -3.52293,0.5989c-1.38122,0.09867 -2.67744,-0.17615 -2.67744,-0.17615l-0.98643,-2.25468c0,0 1.84965,-0.19292 2.8066,-0.44623c0.95695,-0.25331 3.19412,-1.56183 3.19412,-1.56183c0,0 2.07273,-1.16783 4.61503,-3.33505c2.5423,-2.16719 3.33503,-3.11192 3.33503,-3.11192c0,0 0.82391,1.58505 1.12734,2.67744c0.30345,1.09239 0.28182,2.39559 0.28182,2.39559l-2.5365,2.25468z" fill="#11ace8" stroke="#000000" stroke-width="0" stroke-linecap="round"/><path d="M284.7107,217.92088c0,0 1.09735,-5.15699 2.84184,-8.29061c1.74449,-3.13362 5.00255,-5.67192 5.00255,-5.67192l2.67741,0.70459l2.39559,2.11375c0,0 -3.99357,3.62477 -5.77762,5.91853c-1.78404,2.29378 -4.08659,7.23376 -4.08659,7.23376z" fill="#11ace8" stroke="#000000" stroke-width="0" stroke-linecap="round"/><path d="M298.75543,215.51358c4.74646,5.9055 7.04584,21.13758 7.04584,21.13758l-4.36843,0.70459c0,0 -2.24297,-11.88889 -6.90494,-17.61467c-4.66197,-5.72577 -14.50272,-8.1732 -14.50272,-8.1732l1.53836,-5.073c0,0 12.44543,3.11321 17.19189,9.01869z" fill="#118ff0" stroke="#000000" stroke-width="0" stroke-linecap="round"/><path d="M288.3393,208.3268l4.77945,2.81834l-3.32331,4.54458l-4.03962,-2.11375z" fill="#01b7f7" stroke="#000000" stroke-width="0" stroke-linecap="round"/><path d="M302.27834,221.99576l1.26825,4.36844l-4.50934,2.11375l-1.40918,-3.52294z" fill="#01b7f7" stroke="#000000" stroke-width="0" stroke-linecap="round"/><path d="M176.83177,189.39384l110.415,1.08889l-16.26942,53.79191l-77.87618,-0.43556z" fill="#96a3a7" stroke="#000000" stroke-width="0" stroke-linecap="round"/><path d="M197.32088,190.86962v-57.29458h89.43541v57.29458z" fill="#dfe8e8" stroke="none" stroke-width="0" stroke-linecap="butt"/><path d="M202.25688,190.80597l68.26584,0.161c0,0 -3.95634,4.77593 -7.40618,6.44017c-3.44987,1.66427 -14.40546,8.22361 -24.63368,8.69425c-10.22822,0.47062 -27.85373,-6.27918 -27.85373,-6.27918c0,0 -2.49137,-1.28459 -3.86411,-2.41507c-1.37275,-1.13048 -1.61005,-2.09305 -1.61005,-2.09305l-2.73706,-1.12703c0,0 -0.29155,-0.97 -0.32202,-1.61006c-0.03047,-0.64005 0.16101,-1.77103 0.16101,-1.77103z" fill="#6b7a85" stroke="#000000" stroke-width="0" stroke-linecap="round"/><path d="M187.49814,222.48008l-0.80667,-2.01666h17.54488l0.80667,2.21832z" fill="#748385" stroke="#000000" stroke-width="0" stroke-linecap="round"/><path d="M201.00973,209.97679l9.07494,-0.40332l0.40332,2.42001l-9.8816,-0.40332z" fill="#748385" stroke="#000000" stroke-width="0" stroke-linecap="round"/><path d="M267.35759,200.90188l-11.29327,-1.00833l1.20999,-2.01666l9.67994,0.40332z" fill="#748385" stroke="#000000" stroke-width="0" stroke-linecap="round"/><path d="M265.34095,229.53835l10.08326,0.20166l-0.80667,2.21831h-9.47828z" fill="#748385" stroke="#000000" stroke-width="0" stroke-linecap="round"/><path d="M189.11145,228.12668l-2.01663,-5.84829h17.94821l0.40332,4.23497l-2.21832,1.00833z" fill="#647375" stroke="#000000" stroke-width="0" stroke-linecap="round"/><path d="M264.53429,231.55504h10.08326l-1.00833,4.63829l-8.46995,-0.20168z" fill="#647375" stroke="#000000" stroke-width="0" stroke-linecap="round"/><path d="M253.44267,202.71688l0.80667,-2.41998l13.71325,0.20166l1.41165,1.81497l-2.21832,2.21832l-12.50324,-0.20166z" fill="#647375" stroke="#000000" stroke-width="0" stroke-linecap="round"/><path d="M208.67302,211.79181l0.60498,4.43663l-7.86497,0.20168l-2.21832,-2.82332l1.00833,-1.815z" fill="#647375" stroke="#000000" stroke-width="0" stroke-linecap="round"/><path d="M184.14513,187.47586v-51.10595h99.21741v51.10595z" fill="#becccf" stroke="none" stroke-width="0" stroke-linecap="butt"/><path d="M241.24008,154.93575l3.39377,-47.51258l29.74525,0.5989l4.19229,47.51258c0,0 -2.32122,14.76228 -18.56584,14.7728c-17.04744,0.01104 -18.76546,-15.37169 -18.76546,-15.37169z" fill="#717e82" stroke="#000000" stroke-width="0" stroke-linecap="round"/><path d="M234.6522,105.62647v56.49606l-1.99632,-0.79855l-0.39927,-54.30006z" fill="#8da2a3" stroke="#000000" stroke-width="0" stroke-linecap="round"/><path d="M243.2364,123.59341c0,0 5.60273,12.18347 16.76914,11.77833c13.76873,-0.49957 15.57135,-12.37724 15.57135,-12.37724l1.1978,13.57503c0,0 -6.94288,10.69776 -16.5695,10.38089c-14.19875,-0.46735 -17.56769,-12.37721 -17.56769,-12.37721z" fill="#d5af28" stroke="#000000" stroke-width="0" stroke-linecap="round"/><path d="M249.82427,167.91185l1.99634,-49.10963l15.9706,0.79855l2.59524,47.91184c0,0 -6.31052,2.71195 -10.58053,2.79484c-4.27,0.08291 -9.98164,-2.39559 -9.98164,-2.39559z" fill="#859295" stroke="#000000" stroke-width="0" stroke-linecap="round"/><path d="M251.02207,132.77652c0,0 5.60887,2.75279 9.18311,2.79484c3.57425,0.04205 8.5842,-2.59521 8.5842,-2.59521l0.5989,10.97979c0,0 -5.26714,2.46892 -9.18309,2.59524c-3.91595,0.12632 -9.38274,-1.99635 -9.38274,-1.99635z" fill="#ffcc31" stroke="#000000" stroke-width="0" stroke-linecap="round"/><path d="M231.85734,159.92656l-62.28538,37.13167l-0.99815,-53.10229l63.48318,-45.71587l0.79852,60.48869" fill="url(#color-1)" stroke="#000000" stroke-width="0" stroke-linecap="round"/><path d="M184.34478,186.27806v-51.70484" fill="none" stroke="#39464c" stroke-width="0.5" stroke-linecap="round"/><path d="M202.31171,125.989v49.70853" fill="none" stroke="#495051" stroke-width="0.5" stroke-linecap="round"/><path d="M218.08268,116.60628v54.10044" fill="none" stroke="#3f4d4e" stroke-width="0.5" stroke-linecap="round"/><path d="M244.83347,108.22171c0,-6.84003 6.74807,-12.38497 15.07227,-12.38497c8.3242,0 15.07225,5.54494 15.07225,12.38497c0,6.84004 -6.74807,12.38497 -15.07225,12.38497c-8.3242,0 -15.07227,-5.54493 -15.07227,-12.38497z" fill="#d9e6e9" stroke="none" stroke-width="0" stroke-linecap="butt"/><path d="M247.02941,108.22168c0,-5.84347 5.76493,-10.58053 12.87631,-10.58053c7.11138,0 12.87631,4.73707 12.87631,10.58053c0,5.84347 -5.76492,10.58054 -12.87631,10.58054c-7.11138,0 -12.87631,-4.73707 -12.87631,-10.58054z" fill="#bccbcc" stroke="none" stroke-width="0" stroke-linecap="butt"/><path d="M233.45441,108.42133l-64.28171,38.92837l-3.99266,-1.99632l64.08208,-40.12616z" fill="#747e7c" stroke="#000000" stroke-width="0" stroke-linecap="round"/><path d="M250.6228,108.82061c0,-4.41017 4.15612,-7.9853 9.28292,-7.9853c5.1268,0 9.28292,3.57514 9.28292,7.9853c0,4.41017 -4.15611,7.98529 -9.28292,7.98529c-5.1268,0 -9.28292,-3.57513 -9.28292,-7.98529z" fill="#686471" stroke="none" stroke-width="0" stroke-linecap="butt"/><path d="M233.45441,108.62096l-3.59339,-2.79484l-64.48135,39.72689l-0.19963,-11.57869l64.68098,-39.92653l3.59339,3.39377z" fill="#d7e4e8" stroke="#000000" stroke-width="0" stroke-linecap="round"/><path d="M228.6632,97.2419l0.19962,6.38826l-61.68649,38.52909l-0.39925,-6.1886z" fill="#92a0a3" stroke="#000000" stroke-width="0" stroke-linecap="round"/><path d="M233.65403,139.56403l-64.28173,38.92837l-3.99263,-1.99632l64.08208,-40.12616z" fill="#747e7c" stroke="#000000" stroke-width="0" stroke-linecap="round"/><path d="M233.65403,139.76365l-3.59339,-2.79484l-64.48135,39.72689l-0.19962,-11.57869l64.68097,-39.92653l3.59339,3.39376z" fill="#d7e4e8" stroke="#000000" stroke-width="0" stroke-linecap="round"/><path d="M228.86287,128.38459l0.19962,6.38826l-61.68649,38.52909l-0.39927,-6.1886z" fill="#92a0a3" stroke="#000000" stroke-width="0" stroke-linecap="round"/><path d="M235.24437,171.08357l-65.967,39.94896l-4.09733,-2.04869l65.76216,-41.17816z" fill="#747e7c" stroke="#000000" stroke-width="0" stroke-linecap="round"/><path d="M235.24437,171.28842l-3.68761,-2.86815l-66.17187,40.76842l-0.20487,-11.88225l66.37675,-40.97329l3.68761,3.48274z" fill="#d7e4e8" stroke="#000000" stroke-width="0" stroke-linecap="round"/><path d="M230.32758,159.61103l0.20487,6.55573l-63.30375,39.53922l-0.40974,-6.35085z" fill="#92a0a3" stroke="#000000" stroke-width="0" stroke-linecap="round"/><path d="M202.51134,178.09312c0,0 16.69967,0.9128 27.34966,0.19965c10.64998,-0.71317 17.36804,-3.19414 17.36804,-3.19414l-1.39742,-1.1978v-2.99449h10.58051l-0.19965,4.39193c0,0 6.20336,3.85417 5.98898,8.78382c-0.30354,6.98037 -8.59558,13.18086 -14.57317,15.9706c-4.68477,2.18639 -14.10392,1.83768 -21.3607,1.79669c-7.25678,-0.04099 -17.16839,-1.39742 -17.16839,-1.39742l-0.39925,-3.59339l2.79484,-1.39745c0,0 -4.03683,-1.14641 -6.38823,-2.39559c-2.35139,-1.24918 -6.38825,-4.39193 -6.38825,-4.39193l2.19597,-3.39374c0,0 -0.69232,-1.18073 -0.99817,-1.99634c-0.30585,-0.81558 -0.79852,-2.79484 -0.79852,-2.79484z" fill="#b68700" stroke="#000000" stroke-width="0" stroke-linecap="round"/><path d="M202.71096,179.49056c0,0 16.69967,0.91281 27.34966,0.19962c10.64998,-0.71317 17.36804,-3.19411 17.36804,-3.19411l-1.39742,-1.1978v-2.99449h10.58054l-0.19965,4.39191c0,0 6.20336,3.85417 5.98898,8.78384c-0.30357,6.98035 -8.59555,13.18086 -14.57317,15.9706c-4.68477,2.18639 -14.10393,1.83768 -21.3607,1.79669c-7.25678,-0.04099 -17.16839,-1.39742 -17.16839,-1.39742l-0.39928,-3.59339l2.79487,-1.39742c0,0 -4.03684,-1.14641 -6.38826,-2.39559c-2.35142,-1.24918 -6.38825,-4.39191 -6.38825,-4.39191l2.19597,-3.39377c0,0 -0.69232,-1.18074 -0.99817,-1.99632c-0.30585,-0.81558 -0.79852,-2.79487 -0.79852,-2.79487z" fill="#866100" stroke="#000000" stroke-width="0" stroke-linecap="round"/><path d="M255.18345,174.27289l-0.09216,3.59339l-4.42262,0.09213c0,0 -0.25541,-0.69767 -0.53091,-1.03161c-0.54269,-0.6578 -2.50967,-2.65391 -2.50967,-2.65391z" fill="#cf9903" stroke="#000000" stroke-width="0" stroke-linecap="round"/><path d="M250.57651,178.32695c0,0 -2.52909,4.21069 -7.4632,7.09464c-19.66728,11.49542 -29.92331,9.88016 -33.81469,8.4767c-3.89138,-1.40346 -7.18677,-4.05408 -7.18677,-4.05408l0.7371,-1.47422c0,0 15.86145,0.13676 25.70654,-1.9349c9.84509,-2.07166 22.02102,-8.10817 22.02102,-8.10817z" fill="#ffcc2d" stroke="#000000" stroke-width="0" stroke-linecap="round"/><path d="M206.90303,187.54078c-2.61467,-1.1984 -5.06759,-5.06759 -5.06759,-5.06759l2.39559,-1.01352c0,0 12.2101,1.80036 19.99397,1.10566c7.7839,-0.6947 25.43012,-5.15975 25.43012,-5.15975c0,0 -10.063,5.78919 -17.13771,7.73961c-7.07468,1.95042 -22.99971,3.59399 -25.61441,2.39559z" fill="#ffcc2d" stroke="#000000" stroke-width="0" stroke-linecap="round"/><path d="M211.60208,197.76809c0,0 15.11256,-3.81767 22.94239,-7.27891c12.47914,-5.51649 17.87481,-12.71506 17.87481,-12.71506l2.94842,0.36856c0,0 5.25184,3.43202 4.97546,7.83174c-0.67048,10.67392 -14.95444,15.12883 -24.23233,16.40058c-6.54886,0.89767 -23.95592,-1.38207 -23.95592,-1.38207l-0.55283,-3.22482z" fill="#ffcc2d" stroke="#000000" stroke-width="0" stroke-linecap="round"/><path d="M206.90303,187.54078c-2.76725,-0.78429 -5.06761,-5.06761 -5.06761,-5.06761l2.39559,-1.0135c0,0 7.05957,5.63333 14.84347,4.93861c1.50797,-0.13458 5.69981,0.17335 5.69981,0.17335c0,0 -13.22031,2.28731 -17.87126,0.96913z" fill="#cc9605" stroke="#000000" stroke-width="0" stroke-linecap="round"/><path d="M211.60211,197.76809c0,0 15.59169,3.00978 31.80608,-3.32618c16.07253,-6.95385 11.95953,-16.29923 11.95953,-16.29923c0,0 5.25181,3.43202 4.97545,7.83174c-0.6705,10.67394 -14.95443,15.12885 -24.23234,16.4006c-6.54886,0.89765 -23.95592,-1.38209 -23.95592,-1.38209l-0.55283,-3.22482z" fill="#cf9704" stroke="#000000" stroke-width="0" stroke-linecap="round"/><path d="M209.29862,194.13788c-3.71511,-1.81943 -7.18679,-4.29364 -7.18679,-4.29364l0.8569,-1.35442c0,0 6.24377,2.82203 10.51996,3.35934c4.5546,0.57228 16.02504,-0.02396 16.02504,-0.02396c0,0 -11.30087,6.67831 -20.2151,2.31266z" fill="#cf9704" stroke="#000000" stroke-width="0" stroke-linecap="round"/><path d="M245.57773,243.85659h-22.38484l-3.22664,-24.4015h28.83814z" fill="#000c24" stroke="#000000" stroke-width="0" stroke-linecap="round"/><path d="M215.79849,248.49489l-8.53715,-36.33878h53.84463l-9.08971,35.92818l-5.90403,-0.2053l3.38732,-29.97434l-30.94005,0.6159l1.50841,29.15313z" fill="#a9b3b3" stroke="#000000" stroke-width="0" stroke-linecap="round"/><path d="M217.7479,248.09157l-8.26827,-34.8881l49.60966,-0.40333l-9.67994,35.08977l-6.25163,0.40333l3.4283,-25.81315l-25.61148,-0.60501l2.82332,26.21649z" fill="#829095" stroke="#000000" stroke-width="0" stroke-linecap="round"/><path d="M207.26134,212.39682v-3.22665h53.44129v3.22665z" fill="#e9f1f1" stroke="none" stroke-width="0" stroke-linecap="butt"/><path d="M207.05968,210.78348v-3.42831h53.84461v3.42831z" fill="#c7d8df" stroke="none" stroke-width="0" stroke-linecap="butt"/><path d="M252.62477,201.23135l0.35546,-0.92425l3.5548,0.28439l-2.98604,2.48834l-1.13754,-0.99534z" fill="#4c6065" stroke="#000000" stroke-width="0" stroke-linecap="round"/><path d="M260.79276,198.15977l-3.88184,1.42334l-0.64698,0.97046l-2.07032,-0.32348l0.38819,-1.48804l0.97045,-0.77636z" fill="#465b60" stroke="#000000" stroke-width="0" stroke-linecap="round"/></g></g></svg>