<svg version="1.1" xmlns="http://www.w3.org/2000/svg" xmlns:xlink="http://www.w3.org/1999/xlink" width="205.35702" height="162.55828" viewBox="0,0,205.35702,162.55828"><defs><radialGradient cx="209.33804" cy="183.92524" r="5.13591" gradientUnits="userSpaceOnUse" id="color-1"><stop offset="0" stop-color="#b34900"/><stop offset="1" stop-color="#a03900"/></radialGradient><linearGradient x1="231.75318" y1="152.19138" x2="231.76704" y2="157.94108" gradientUnits="userSpaceOnUse" id="color-2"><stop offset="0" stop-color="#c74600"/><stop offset="1" stop-color="#e25e00"/></linearGradient><linearGradient x1="147.21599" y1="168.84766" x2="181.30828" y2="168.76554" gradientUnits="userSpaceOnUse" id="color-3"><stop offset="0" stop-color="#4c4540"/><stop offset="1" stop-color="#3f3a35"/></linearGradient><linearGradient x1="148.55251" y1="199.50966" x2="182.64479" y2="199.42753" gradientUnits="userSpaceOnUse" id="color-4"><stop offset="0" stop-color="#4c4540"/><stop offset="1" stop-color="#3f3a35"/></linearGradient><linearGradient x1="139.49673" y1="184.69182" x2="185.49518" y2="184.58102" gradientUnits="userSpaceOnUse" id="color-5"><stop offset="0" stop-color="#4c4540"/><stop offset="1" stop-color="#3f3a35"/></linearGradient><radialGradient cx="314.27801" cy="183.97261" r="17.98095" gradientUnits="userSpaceOnUse" id="color-6"><stop offset="0" stop-color="#ffe0a9"/><stop offset="1" stop-color="#ffe0a9" stop-opacity="0"/></radialGradient><radialGradient cx="314.07353" cy="182.96294" r="13.19949" gradientUnits="userSpaceOnUse" id="color-7"><stop offset="0" stop-color="#fffffd"/><stop offset="1" stop-color="#fffffd" stop-opacity="0"/></radialGradient><radialGradient cx="309.15983" cy="183.98494" r="16.76875" gradientUnits="userSpaceOnUse" id="color-8"><stop offset="0" stop-color="#ff9afa"/><stop offset="1" stop-color="#ff9afa" stop-opacity="0"/></radialGradient><radialGradient cx="309.15983" cy="183.98494" r="16.76875" gradientUnits="userSpaceOnUse" id="color-9"><stop offset="0" stop-color="#ff9afa"/><stop offset="1" stop-color="#ff9afa" stop-opacity="0"/></radialGradient><radialGradient cx="310.09908" cy="182.50112" r="12.72807" gradientUnits="userSpaceOnUse" id="color-10"><stop offset="0" stop-color="#fffffd"/><stop offset="1" stop-color="#fffffd" stop-opacity="0"/></radialGradient><radialGradient cx="312.86296" cy="183.63932" r="13.26684" gradientUnits="userSpaceOnUse" id="color-11"><stop offset="0" stop-color="#fffffd"/><stop offset="1" stop-color="#fffffd" stop-opacity="0"/></radialGradient><radialGradient cx="312.86296" cy="183.63932" r="13.26684" gradientUnits="userSpaceOnUse" id="color-12"><stop offset="0" stop-color="#fffffd"/><stop offset="1" stop-color="#fffffd" stop-opacity="0"/></radialGradient><radialGradient cx="312.86296" cy="183.63932" r="13.26684" gradientUnits="userSpaceOnUse" id="color-13"><stop offset="0" stop-color="#fffffd"/><stop offset="1" stop-color="#fffffd" stop-opacity="0"/></radialGradient><radialGradient cx="312.86296" cy="183.63932" r="13.26684" gradientUnits="userSpaceOnUse" id="color-14"><stop offset="0" stop-color="#fffffd"/><stop offset="1" stop-color="#fffffd" stop-opacity="0"/></radialGradient><radialGradient cx="221.55741" cy="159.0347" r="13.36486" gradientUnits="userSpaceOnUse" id="color-15"><stop offset="0" stop-color="#fb0adc" stop-opacity="0"/><stop offset="1" stop-color="#fb0adc"/></radialGradient></defs><g transform="translate(-138.2514,-102.26264)"><g data-paper-data="{&quot;isPaintingLayer&quot;:true}" fill-rule="nonzero" stroke-linejoin="miter" stroke-miterlimit="10" stroke-dasharray="" stroke-dashoffset="0" style="mix-blend-mode: normal"><path d="M270.74396,203.49533l-16.1686,0.03885l-0.09355,-38.93665l16.1686,-0.03885z" fill="#1a1919" stroke="#330d42" stroke-width="1" stroke-linecap="butt"/><path d="M313.53562,140.583l-22.17713,5.05852l-0.92641,-0.76781l13.85342,-6.19349l-7.165,-13.58634l12.00584,-5.54737l14.03865,15.87989z" data-paper-data="{&quot;index&quot;:null}" fill="none" stroke="#330d42" stroke-width="1.5" stroke-linecap="round"/><path d="M279.18659,145.52111l-12.28992,8.8233l9.44042,-12.33391z" fill="none" stroke="#330d42" stroke-width="1.5" stroke-linecap="round"/><path d="M276.80611,224.39952l-9.36282,-11.61219l12.46659,8.3578z" fill="none" stroke="#330d42" stroke-width="1.5" stroke-linecap="round"/><path d="M273.48754,194.64424l17.08883,17.68151l-1.07415,3.38478l-20.60466,-16.99662z" fill="none" stroke="#330d42" stroke-width="1.5" stroke-linecap="round"/><path d="M267.20048,168.14301l20.25719,-14.93042l-3.90344,8.26194l-11.20404,10.30884z" fill="none" stroke="#330d42" stroke-width="1.5" stroke-linecap="round"/><path d="M258.52207,159.83891l25.38678,-19.06422l6.74012,10.27115l-23.38955,17.7735z" data-paper-data="{&quot;index&quot;:null}" fill="none" stroke="#330d42" stroke-width="1.5" stroke-linecap="round"/><path d="M267.81495,198.58124l22.22745,16.72213l-6.33502,9.75596l-24.12439,-17.93515z" fill="none" stroke="#330d42" stroke-width="1.5" stroke-linecap="round"/><path d="M285.85991,220.04852l5.54284,-1.6368l14.3567,6.7298l-11.85507,20.86284l-19.77566,-9.82837l-0.14279,-3.11127z" fill="none" stroke="#330d42" stroke-width="1.5" stroke-linecap="round"/><path d="M292.1422,244.57423l-0.94244,1.8963l-17.47124,-7.93989l-0.00664,-2.76115z" fill="none" stroke="#330d42" stroke-width="1.5" stroke-linecap="round"/><path d="M273.86466,238.88239l-1.08457,-0.94441l-1.90184,-3.24232l-1.29033,-7.19649l4.80388,5.56458z" fill="none" stroke="#330d42" stroke-width="1.5" stroke-linecap="round"/><path d="M286.02147,220.12962l-2.47351,-5.08118l7.56955,-2.72399l5.82255,2.15059l0.01075,4.46447l-4.87123,-0.36315z" fill="none" stroke="#330d42" stroke-width="1.5" stroke-linecap="round"/><path d="M269.50779,227.39344l14.30946,-12.88679l2.31258,5.27065l-11.73802,13.28646z" fill="none" stroke="#330d42" stroke-width="1.5" stroke-linecap="round"/><path d="M325.11362,228.47709l-14.3,16.81012l-12.32511,-5.78768l7.27095,-14.358l-14.22076,-6.45956l0.94506,-0.814l22.7409,5.22145z" fill="none" stroke="#330d42" stroke-width="1.5" stroke-linecap="round"/><path d="M317.33678,224.3019l0.59037,-2.57189l7.179,3.63548l0.1399,3.27427z" fill="none" stroke="#330d42" stroke-width="1.5" stroke-linecap="round"/><path d="M273.22912,131.31156l0.12496,-2.95204l19.26086,-9.41492l11.67053,19.73563l-13.98487,6.45051l-5.41894,-1.52698z" data-paper-data="{&quot;index&quot;:null}" fill="none" stroke="#330d42" stroke-width="1.5" stroke-linecap="round"/><path d="M273.12203,128.84906l-0.16973,-2.79864l17.0199,-7.61283l0.92888,1.79446z" data-paper-data="{&quot;index&quot;:null}" fill="none" stroke="#330d42" stroke-width="1.5" stroke-linecap="round"/><path d="M273.62535,131.3106l-4.42728,5.32961l0.9895,-6.86136l1.84168,-3.0845l1.05445,-0.90091z" data-paper-data="{&quot;index&quot;:null}" fill="none" stroke="#330d42" stroke-width="1.5" stroke-linecap="round"/><path d="M290.95994,144.6767l4.75467,-0.07233l0.0102,4.23505l-5.67442,2.06703l-7.40259,-2.54887l2.62916,-5.16226z" data-paper-data="{&quot;index&quot;:null}" fill="none" stroke="#330d42" stroke-width="1.5" stroke-linecap="round"/><path d="M273.62535,131.3106l11.8471,12.5484l-2.55926,5.01126l-14.02968,-12.15811z" data-paper-data="{&quot;index&quot;:null}" fill="none" stroke="#330d42" stroke-width="1.5" stroke-linecap="round"/><path d="M322.78418,134.85679l-0.02194,2.5443l-6.58196,4.45892l-0.27004,-2.43772z" data-paper-data="{&quot;index&quot;:null}" fill="none" stroke="#330d42" stroke-width="1.5" stroke-linecap="round"/><path d="M263.49406,198.37403l-0.07226,-29.99837l11.05822,-0.02664l0.07226,29.99837z" fill="none" stroke="#330d42" stroke-width="1.5" stroke-linecap="butt"/><path d="M251.4767,198.41225l8.44346,0.62904c0,0 2.12053,3.05696 1.74445,5.29907c-0.37608,2.24211 -3.01896,4.76939 -3.01896,4.76939l-15.58217,1.22806l-1.09763,-51.29842l16.01822,0.06964c0,0 2.64172,2.78998 3.3671,4.97047c0.72539,2.18049 -1.93431,5.74085 -1.93431,5.74085l-7.35934,0.12595z" fill="none" stroke="#330d42" stroke-width="1.5" stroke-linecap="round"/><path d="M251.01703,199.0251l-0.07168,-29.7631l8.3525,-0.02012l0.07169,29.7631z" fill="none" stroke="#330d42" stroke-width="1.5" stroke-linecap="butt"/><path d="M252.42731,198.4335l-0.07027,-29.17491l0.82349,-0.00198l0.07027,29.17491z" fill="none" stroke="#330d42" stroke-width="1.5" stroke-linecap="butt"/><path d="M254.7787,197.83963l-0.06885,-28.58671l0.70585,-0.00171l0.06885,28.58671z" fill="none" stroke="#330d42" stroke-width="1.5" stroke-linecap="butt"/><path d="M257.83906,198.53811l-0.07,-29.05727l0.70585,-0.0017l0.06999,29.05726z" fill="none" stroke="#330d42" stroke-width="1.5" stroke-linecap="butt"/><path d="M256.4268,198.30622l-0.06942,-28.82198l0.70585,-0.0017l0.06942,28.82198z" fill="none" stroke="#330d42" stroke-width="1.5" stroke-linecap="butt"/><path d="M230.52584,153.49776l0.62085,5.00414l-8.58973,0.42655l-1.11146,-12.10556z" data-paper-data="{&quot;index&quot;:null}" fill="none" stroke="#330d42" stroke-width="1.5" stroke-linecap="round"/><path d="M221.35932,147.49953l0.9919,10.27948l-9.74049,0.0911z" data-paper-data="{&quot;index&quot;:null}" fill="none" stroke="#330d42" stroke-width="1.5" stroke-linecap="round"/><path d="M225.31322,151.81922l1.42279,0.94358l4.46429,-0.0784l-0.94342,1.49044l-6.02157,-0.52665l0.12991,-2.23256z" data-paper-data="{&quot;index&quot;:null}" fill="none" stroke="#330d42" stroke-width="1.5" stroke-linecap="round"/><path d="M225.78803,152.35923l-1.4849,1.35645l-3.33001,-6.41815z" data-paper-data="{&quot;index&quot;:null}" fill="none" stroke="#330d42" stroke-width="1.5" stroke-linecap="round"/><path d="M226.33048,152.89906l-7.86391,-7.15131l-0.68442,-3.3129l13.41784,10.11425z" data-paper-data="{&quot;index&quot;:null}" fill="none" stroke="#330d42" stroke-width="1.5" stroke-linecap="round"/><path d="M225.28399,149.23319c1.05414,-2.83143 2.67842,-1.58664 3.79491,-0.8709c1.11649,0.71575 1.64325,1.71293 0.24826,3.4629c-0.44246,0.55503 -1.59873,0.50174 -2.71522,-0.21401c-1.11649,-0.71575 -1.57563,-1.71276 -1.32798,-2.37797z" data-paper-data="{&quot;index&quot;:null}" fill="none" stroke="#330d42" stroke-width="1.5" stroke-linecap="butt"/><path d="M226.16025,147.94584c0.38308,-0.59757 1.59876,-0.50174 2.71525,0.21401c1.11649,0.71575 1.71105,1.78043 1.32798,2.37797c-0.38308,0.59757 -1.59876,0.50174 -2.71525,-0.21401c-1.11649,-0.71575 -1.71105,-1.78043 -1.32798,-2.37798z" data-paper-data="{&quot;index&quot;:null}" fill="none" stroke="#330d42" stroke-width="1.5" stroke-linecap="butt"/><path d="M226.72798,149.42712l3.0433,-0.2791" data-paper-data="{&quot;index&quot;:null}" fill="none" stroke="#330d42" stroke-width="1.5" stroke-linecap="round"/><path d="M221.76635,223.86843l1.05312,-12.11079l8.59169,0.38517l-0.59673,5.00709z" fill="none" stroke="#330d42" stroke-width="1.5" stroke-linecap="round"/><path d="M212.8785,212.86389l9.74081,0.04419l-0.9424,10.28413z" fill="none" stroke="#330d42" stroke-width="1.5" stroke-linecap="round"/><path d="M224.66392,219.26166l-0.14066,-2.23191l6.01896,-0.55564l0.95059,1.48587l-4.46463,-0.05689l-1.41823,0.95043z" fill="none" stroke="#330d42" stroke-width="1.5" stroke-linecap="round"/><path d="M221.2917,223.39605l3.29905,-6.43411l1.49141,1.34929z" fill="none" stroke="#330d42" stroke-width="1.5" stroke-linecap="round"/><path d="M231.49315,218.09527l-11.81609,8.95745l-0.40944,-1.48718l7.35439,-7.79675z" fill="none" stroke="#330d42" stroke-width="1.5" stroke-linecap="round"/><path d="M220.89586,147.37846l-10.53084,12.59402l-1.13865,-1.65564l9.13328,-13.02706z" data-paper-data="{&quot;index&quot;:null}" fill="none" stroke="#330d42" stroke-width="1.5" stroke-linecap="round"/><path d="M219.16403,225.58762l-9.19592,-12.98291l1.13066,-1.66111l10.59138,12.54315z" fill="none" stroke="#330d42" stroke-width="1.5" stroke-linecap="round"/><path d="M225.51519,125.15881l-10.96144,9.4166l-10.35652,0.0217l2.64959,-4.30951c0,0 5.065,-4.89613 8.92249,-6.81742c3.85748,-1.92128 7.39938,-2.14321 7.39938,-2.14321z" data-paper-data="{&quot;index&quot;:null}" fill="none" stroke="#330d42" stroke-width="1.5" stroke-linecap="round"/><path d="M225.23994,124.93224l-9.12713,7.39099l-7.27128,-0.96962l1.84657,-3.64615c0,0 3.51197,-3.40808 6.26443,-4.77898c2.75242,-1.3709 6.30833,-1.67406 6.30833,-1.67406z" data-paper-data="{&quot;index&quot;:null}" fill="none" stroke="#330d42" stroke-width="1.5" stroke-linecap="round"/><path d="M222.48137,249.61973c0,0 -3.50982,-0.52493 -7.18829,-2.76997c-3.67843,-2.24503 -8.30486,-7.55757 -8.30486,-7.55757l-2.2702,-4.52085l10.31647,0.90988l10.11337,10.32208z" fill="none" stroke="#330d42" stroke-width="1.5" stroke-linecap="round"/><path d="M222.62823,249.39245c0,0 -3.51677,-0.60706 -6.14151,-2.20899c-2.62474,-1.60193 -5.83143,-5.29864 -5.83143,-5.29864l-1.52703,-3.79111l7.48283,-0.2179l8.33973,8.44608z" fill="none" stroke="#330d42" stroke-width="1.5" stroke-linecap="round"/><path d="M196.73407,215.20781l12.34904,13.77893l-2.05262,0.00495l-11.69277,-12.47428l-3.63628,1.03508l-1.68459,-2.14188z" data-paper-data="{&quot;index&quot;:null}" fill="none" stroke="#330d42" stroke-width="1.5" stroke-linecap="round"/><path d="M206.74988,228.71244c0,0 -5.9857,-2.26247 -9.24808,-4.64282c-3.26238,-2.38035 -6.17384,-6.60955 -6.17384,-6.60955l4.19655,-0.84984z" data-paper-data="{&quot;index&quot;:null}" fill="none" stroke="#330d42" stroke-width="1.5" stroke-linecap="round"/><path d="M246.73466,212.02898c0,0 1.14902,26.69022 -27.01017,30.34518c-21.14016,1.98561 -38.56268,-23.37692 -38.56268,-23.37692l11.37465,-0.42801c0,0 15.96896,16.88033 26.47662,14.85886c18.42986,-3.54555 19.00979,-21.67858 19.00979,-21.67858z" data-paper-data="{&quot;index&quot;:null}" fill="none" stroke="#330d42" stroke-width="1.5" stroke-linecap="round"/><path d="M243.56456,212.29596c0,0 1.56023,26.16731 -24.84246,28.7035c-19.246,1.84874 -34.85509,-22.21518 -34.85509,-22.21518l11.75395,-0.86804c0,0 8.39732,14.39789 22.70389,13.10087c14.81474,-1.34308 16.84033,-19.63394 16.84033,-19.63394z" data-paper-data="{&quot;index&quot;:null}" fill="none" stroke="#330d42" stroke-width="1.5" stroke-linecap="round"/><path d="M243.82076,211.6511c0,0 1.30405,26.81216 -25.09861,29.34836c-19.24603,1.84874 -34.85509,-22.21518 -34.85509,-22.21518l10.35552,-0.39815c0,0 9.79864,15.14092 24.10521,13.8439c14.81474,-1.34308 17.30549,-20.19486 17.30549,-20.19486z" data-paper-data="{&quot;index&quot;:null}" fill="none" stroke="#330d42" stroke-width="1.5" stroke-linecap="round"/><path d="M192.38426,152.42615l1.67426,-2.14997l3.64123,1.01755l11.63254,-12.53047l2.05262,-0.00494l-12.2825,13.83826z" fill="none" stroke="#330d42" stroke-width="1.5" stroke-linecap="round"/><path d="M197.88613,151.19999l-4.20057,-0.82961c0,0 2.89105,-4.24318 6.14193,-6.63922c3.25087,-2.39604 9.22558,-4.68731 9.22558,-4.68731z" fill="none" stroke="#330d42" stroke-width="1.5" stroke-linecap="round"/><path d="M249.31175,200.40171l0.01676,6.95761l-6.95762,0.01676l-0.01676,-6.95761z" data-paper-data="{&quot;index&quot;:null}" fill="none" stroke="#330d42" stroke-width="1.5" stroke-linecap="butt"/><path d="M247.65041,206.07487l0.01489,6.18453l-5.28262,0.01272l-0.01489,-6.18453z" data-paper-data="{&quot;index&quot;:null}" fill="none" stroke="#330d42" stroke-width="1.5" stroke-linecap="butt"/><path d="M237.42353,156.60956c0,0 -0.66726,-18.13002 -19.11399,-21.58675c-10.51728,-1.97084 -26.40473,14.98624 -26.40473,14.98624l-11.37659,-0.37322c0,0 17.30015,-25.44617 38.44963,-23.56242c28.17648,3.51928 27.15602,30.21473 27.15602,30.21473z" fill="none" stroke="#330d42" stroke-width="1.5" stroke-linecap="round"/><path d="M234.56769,156.98965c0,0 -2.11369,-18.28086 -16.93473,-19.55259c-14.31265,-1.22808 -22.64052,13.21009 -22.64052,13.21009l-11.75799,-0.81141c0,0 15.49299,-24.13883 34.74767,-22.38283c26.41456,2.40898 24.98044,28.5835 24.98044,28.5835z" fill="none" stroke="#330d42" stroke-width="1.5" stroke-linecap="round"/><path d="M235.03261,156.33542c0,0 -2.58152,-18.83957 -17.40256,-20.11127c-14.31265,-1.22808 -24.03825,13.95987 -24.03825,13.95987l-10.35732,-0.34826c0,0 15.49295,-24.13883 34.74766,-22.38283c26.41456,2.40898 25.7557,29.48357 25.7557,29.48357z" fill="none" stroke="#330d42" stroke-width="1.5" stroke-linecap="round"/><path d="M233.36388,212.42273l-0.02824,-11.72488l9.01911,-0.02173l0.02824,11.72489z" fill="none" stroke="#330d42" stroke-width="1.5" stroke-linecap="butt"/><path d="M231.42096,208.1755l-0.01831,-7.60183l3.73649,-0.009l0.01831,7.60182z" fill="none" stroke="#330d42" stroke-width="1.5" stroke-linecap="butt"/><path d="M242.53393,168.07784l-0.01676,-6.95761l6.95761,-0.01676l0.01677,6.95761z" data-paper-data="{&quot;index&quot;:null}" fill="none" stroke="#330d42" stroke-width="1.5" stroke-linecap="butt"/><path d="M242.52028,162.40867l-0.0152,-6.3134l5.28262,-0.01272l0.01521,6.3134z" data-paper-data="{&quot;index&quot;:null}" fill="none" stroke="#330d42" stroke-width="1.5" stroke-linecap="butt"/><path d="M242.50507,156.09529l0.02824,11.72489l-9.01911,0.02172l-0.02824,-11.72488z" data-paper-data="{&quot;index&quot;:null}" fill="none" stroke="#330d42" stroke-width="1.5" stroke-linecap="butt"/><path d="M235.30001,160.36456l0.01831,7.60182l-3.73649,0.00901l-0.01831,-7.60183z" data-paper-data="{&quot;index&quot;:null}" fill="none" stroke="#330d42" stroke-width="1.5" stroke-linecap="butt"/><path d="M233.08873,201.49353l-0.0831,-34.50282l10.54304,-0.0254l0.0831,34.50283z" fill="none" stroke="#330d42" stroke-width="1.5" stroke-linecap="butt"/><path d="M208.27061,201.55796l-0.09192,-38.16023l24.91145,-0.06l0.09192,38.16023z" fill="none" stroke="#330d42" stroke-width="1.5" stroke-linecap="butt"/><path d="M206.46726,200.25608l-0.07461,-30.97603l18.92355,-0.04558c0,0 6.41364,10.37984 6.42631,15.6416c0.01218,5.05532 -6.35169,15.33444 -6.35169,15.33444z" fill="none" stroke="#330d42" stroke-width="1.5" stroke-linecap="butt"/><path d="M223.97222,173.99611l-0.74887,-1.02451l4.38516,-0.01057l0.65558,1.02474z" fill="none" stroke="#330d42" stroke-width="1.5" stroke-linecap="butt"/><path d="M228.59501,195.16448l-0.7232,1.02806l-4.87241,0.01174l0.82686,-1.02832z" data-paper-data="{&quot;index&quot;:null}" fill="none" stroke="#330d42" stroke-width="1.5" stroke-linecap="butt"/><path d="M205.5559,197.83243l-0.0663,-27.52389l16.95282,-0.04083c0,0 6.11484,9.22206 6.1261,13.89739c0.01081,4.49196 -6.0598,13.62648 -6.0598,13.62648z" fill="none" stroke="#330d42" stroke-width="1.5" stroke-linecap="butt"/><path d="M210.35015,213.86673l9.10324,10.21269c0,0 -2.55586,0.21187 -3.77642,1.4941c-1.22056,1.28222 -2.28655,3.51554 -2.28655,3.51554l-8.31626,-10.41146c0,0 -0.27978,-1.48705 2.03422,-3.13348c1.4652,-1.04251 3.24178,-1.67737 3.24178,-1.67737z" data-paper-data="{&quot;index&quot;:null}" fill="none" stroke="#330d42" stroke-width="1.5" stroke-linecap="round"/><path d="M217.98713,228.46058c-1.77498,1.45342 -3.80302,1.91214 -4.52972,1.02468c-0.7267,-0.88747 0.12309,-2.78514 1.89807,-4.23856c1.77498,-1.45342 3.80302,-1.91219 4.52972,-1.0247c0.7267,0.88747 -0.12309,2.78516 -1.89807,4.23858z" data-paper-data="{&quot;index&quot;:null}" fill="none" stroke="#330d42" stroke-width="1.5" stroke-linecap="butt"/><path d="M217.7023,228.60987c-1.26912,1.0392 -2.71915,1.3672 -3.23873,0.73264c-0.51958,-0.63455 0.08801,-1.99138 1.35713,-3.03058c1.26912,-1.0392 2.71915,-1.36722 3.23873,-0.73264c0.51958,0.63455 -0.08801,1.99141 -1.35713,3.03058z" data-paper-data="{&quot;index&quot;:null}" fill="none" stroke="#330d42" stroke-width="1.5" stroke-linecap="butt"/><path d="M218.10863,229.14891c-1.26912,1.0392 -2.71915,1.36722 -3.23873,0.73264c-0.51958,-0.63455 0.08801,-1.99141 1.35713,-3.03058c1.26912,-1.0392 2.71915,-1.3672 3.23873,-0.73264c0.51958,0.63455 -0.08802,1.99138 -1.3571,3.03058z" data-paper-data="{&quot;index&quot;:null}" fill="none" stroke="#330d42" stroke-width="1.5" stroke-linecap="butt"/><path d="M215.12427,220.30982c0,0 -2.2734,1.72079 -3.17722,4.45421c-0.90386,2.73342 1.00083,3.32479 1.00083,3.32479l-1.79867,1.71997l-4.6529,-4.48318l7.95068,-5.95917z" data-paper-data="{&quot;index&quot;:null}" fill="none" stroke="#330d42" stroke-width="1.5" stroke-linecap="round"/><path d="M207.72196,226.21987l-5.1519,-5.5662l6.73569,-5.95624l5.27735,5.11731z" data-paper-data="{&quot;index&quot;:null}" fill="none" stroke="#330d42" stroke-width="1.5" stroke-linecap="round"/><path d="M202.61703,152.9995l10.17988,-11.70844c0,0 0.98094,2.0299 2.09851,3.19266c1.11758,1.16276 3.44693,1.34458 3.44693,1.34458l-11.65663,11.34302z" fill="none" stroke="#330d42" stroke-width="1.5" stroke-linecap="round"/><path d="M218.73509,145.69649c-0.65814,0.81171 -2.50772,0.40265 -4.13113,-0.91364c-1.62341,-1.31628 -2.40589,-3.04134 -1.74778,-3.85305c0.65814,-0.81171 2.50772,-0.40268 4.13113,0.91361c1.62341,1.31628 2.40592,3.04137 1.74778,3.85308z" fill="none" stroke="#330d42" stroke-width="1.5" stroke-linecap="butt"/><path d="M217.97684,144.4636c-0.47057,0.58038 -1.793,0.2879 -2.95374,-0.65325c-1.16073,-0.94113 -1.72022,-2.17458 -1.24965,-2.75494c0.47057,-0.58038 1.79302,-0.28791 2.95376,0.65324c1.16073,0.94113 1.72023,2.17459 1.24966,2.75495z" fill="none" stroke="#330d42" stroke-width="1.5" stroke-linecap="butt"/><path d="M218.34464,143.97076c-0.47057,0.58038 -1.793,0.2879 -2.95374,-0.65325c-1.16073,-0.94113 -1.72023,-2.17458 -1.24966,-2.75494c0.47057,-0.58038 1.79303,-0.28791 2.95375,0.65325c1.16073,0.94113 1.72022,2.17458 1.24965,2.75494z" fill="none" stroke="#330d42" stroke-width="1.5" stroke-linecap="butt"/><path d="M213.80213,150.14381l-7.26933,-5.394l4.26012,-3.9808l1.47994,1.68336c0,0 -1.65834,0.16503 -0.82295,2.65123c0.83539,2.48622 2.96512,4.17779 2.96512,4.17779z" fill="none" stroke="#330d42" stroke-width="1.5" stroke-linecap="round"/><path d="M213.92394,149.65155l-4.78529,4.68509l-6.16244,-5.39666l4.62622,-5.17666z" fill="none" stroke="#330d42" stroke-width="1.5" stroke-linecap="round"/><path d="M218.19282,185.8868l-0.0092,-3.81985l1.83034,-0.00441l0.0092,3.81985z" fill="none" stroke="#330d42" stroke-width="1.5" stroke-linecap="butt"/><path d="M218.08833,184.71857l-0.00144,-0.6013l1.95708,-0.00471l0.00145,0.60129z" fill="none" stroke="#330d42" stroke-width="1.5" stroke-linecap="butt"/><path d="M218.43292,186.44329l-0.00153,-0.63666l1.75077,-0.00422l0.00153,0.63666z" fill="none" stroke="#330d42" stroke-width="1.5" stroke-linecap="butt"/><path d="M214.5677,189.03621l-0.02269,-9.41997l3.70787,-0.00893l0.02269,9.41997z" fill="none" stroke="#330d42" stroke-width="1.5" stroke-linecap="butt"/><path d="M218.36781,185.72006l-0.69883,1.10401l-1.10235,0.00265l-0.20427,-1.60291l-1.00212,0.00242" fill="none" stroke="#330d42" stroke-width="1.5" stroke-linecap="round"/><path d="M211.6322,196.55927l0.13417,-3.41812l9.68404,0.1191l-3.97678,4.42421z" fill="none" stroke="#330d42" stroke-width="1.5" stroke-linecap="round"/><path d="M213.6111,190.43094l5.12804,0.55729l2.2847,2.55785l-9.97022,-0.68803z" fill="none" stroke="#330d42" stroke-width="1.5" stroke-linecap="round"/><path d="M215.62061,196.97689l0.99068,-2.56573" fill="none" stroke="#330d42" stroke-width="1.5" stroke-linecap="round"/><path d="M228.55065,203.38291l-0.09399,7.77926l-2.58975,1.35912l-20.40683,-0.40179l5.15122,-14.44311l16.24148,2.89213z" fill="none" stroke="#330d42" stroke-width="1.5" stroke-linecap="round"/><path d="M226.86581,205.97996l-0.00516,-2.14202l-1.02306,-3.49247l2.93069,-0.23253l2.71036,1.91004l0.23252,2.93069z" fill="none" stroke="#330d42" stroke-width="1.5" stroke-linecap="round"/><path d="M226.97663,205.19053l4.84752,-0.12442l-0.77289,6.76624l-5.86025,0.91605z" fill="none" stroke="#330d42" stroke-width="1.5" stroke-linecap="round"/><path d="M230.35259,202.5894l0.00353,1.4656" fill="none" stroke="#330d42" stroke-width="1.5" stroke-linecap="round"/><path d="M229.35528,209.80715l0.22333,-0.90245" fill="none" stroke="#330d42" stroke-width="1.5" stroke-linecap="round"/><path d="M230.36128,206.19706l0.11492,0.90164" fill="none" stroke="#330d42" stroke-width="1.5" stroke-linecap="round"/><path d="M229.68891,207.88978l-2.48106,-0.33224" fill="none" stroke="#330d42" stroke-width="1.5" stroke-linecap="round"/><path d="M226.65012,210.03916l2.02957,0.10783" fill="none" stroke="#330d42" stroke-width="1.5" stroke-linecap="round"/><path d="M224.04681,205.76131l-1.11137,6.65434l-14.76962,-0.30264l2.46612,-5.86839l9.92101,-0.0239z" fill="none" stroke="#330d42" stroke-width="1.5" stroke-linecap="round"/><path d="M216.49681,207.24512l-1.90488,4.85237l-5.0738,-0.21328l2.1317,-4.28923z" fill="none" stroke="#330d42" stroke-width="1.5" stroke-linecap="round"/><path d="M223.71077,206.66402l-1.11436,5.41419l-6.65213,-0.20948l2.69488,-4.51607z" fill="none" stroke="#330d42" stroke-width="1.5" stroke-linecap="round"/><path d="M211.21671,201.44282l0.30267,7.40448l-6.11116,5.1414l0.26185,-9.54196z" fill="none" stroke="#330d42" stroke-width="1.5" stroke-linecap="round"/><path d="M211.56879,170.2546l-3.00395,-5.54668l-1.31047,-11.95911l4.2688,-1.43438l0.30987,10.39506l2.86461,6.8287z" fill="none" stroke="#330d42" stroke-width="1.5" stroke-linecap="round"/><path d="M212.72136,175.76507l-3.00769,-7.11316l6.12383,0.12766l5.28451,6.39563z" fill="none" stroke="#330d42" stroke-width="1.5" stroke-linecap="round"/><path d="M210.15392,174.06235l10.54051,0.97147l-0.99239,1.85369l-7.97103,1.5857z" fill="none" stroke="#330d42" stroke-width="1.5" stroke-linecap="round"/><path d="M216.5612,173.61971l-3.42738,-3.97916" fill="none" stroke="#330d42" stroke-width="1.5" stroke-linecap="round"/><path d="M215.20076,184.02385c0.02805,11.64339 -3.432,21.09058 -7.72821,21.10092c-4.29622,0.01034 -7.80173,-9.42006 -7.82977,-21.06345c-0.02805,-11.64339 3.432,-21.09058 7.72822,-21.10092c4.29622,-0.01034 7.80173,9.42007 7.82977,21.06345z" fill="none" stroke="#330d42" stroke-width="1.5" stroke-linecap="butt"/><path d="M211.93076,183.80625c0.02055,8.53019 -2.73892,15.45195 -6.16343,15.46019c-3.42454,0.00825 -6.21732,-6.90014 -6.23786,-15.43033c-0.02055,-8.53019 2.73894,-15.45193 6.16346,-15.46017c3.42454,-0.00825 6.21729,6.90012 6.23783,15.43031z" fill="none" stroke="#330d42" stroke-width="1.5" stroke-linecap="butt"/><path d="M208.23372,193.51076l-0.04616,-19.16565l2.2548,-0.00543l0.04616,19.16565z" fill="none" stroke="#330d42" stroke-width="1.5" stroke-linecap="butt"/><path d="M230.49171,166.73785l-3.38217,0.00815l-11.2766,-1.10022l-2.72773,-9.12534l12.16468,-4.65164l5.63586,-0.46452z" fill="none" stroke="#330d42" stroke-width="1.5" stroke-linecap="round"/><path d="M225.07425,164.27064l-7.78116,-0.8832l-5.41175,-0.09969l-0.57376,-4.16999l0.09537,-7.21555l14.54252,-0.37325l0.02878,11.95033z" fill="none" stroke="#330d42" stroke-width="1.5" stroke-linecap="round"/><path d="M224.73878,165.39886l6.53911,0.09697l-0.21624,3.83368l-1.46589,-0.10922l-4.62854,-2.58186z" fill="none" stroke="#330d42" stroke-width="1.5" stroke-linecap="round"/><path d="M229.2464,164.59883l-0.12168,-3.72012l1.24015,-0.00298l-0.00218,-0.90193l-0.78919,0.0019l-0.00923,-3.83311l0.6767,0.11108l0.2236,-0.78969l-0.78889,0.11463l-0.00923,-3.83311l4.62257,0.10159l-0.10513,3.15694l-1.23852,0.67942l1.46589,0.10922l0.12223,3.94559l-1.91468,0.7938l2.02875,-0.23039l0.12415,4.73478z" fill="none" stroke="#330d42" stroke-width="1.5" stroke-linecap="round"/><path d="M225.83463,152.31836l0.02336,9.69557l-0.89892,1.24232l-4.51256,-1.22928l-0.47402,-9.58172z" fill="none" stroke="#330d42" stroke-width="1.5" stroke-linecap="round"/><path d="M218.84646,153.01166l-0.31785,8.45625l-1.01248,0.90438l-4.51011,-0.21463l-0.68078,-1.80218l-0.13309,-8.45515l5.41311,0.66341z" fill="none" stroke="#330d42" stroke-width="1.5" stroke-linecap="round"/><path d="M231.37246,157.94203l-0.01384,-5.74969l0.78916,-0.0019l0.01384,5.74969z" fill="none" stroke="#330d42" stroke-width="1.5" stroke-linecap="butt"/><path d="M218.09982,199.2743l4.20167,-3.01651l2.10927,1.99918l-2.39834,2.81175z" fill="none" stroke="#330d42" stroke-width="1.5" stroke-linecap="round"/><path d="M221.70646,198.86479l3.59802,-4.01719l2.41017,2.09865l-3.69869,3.81701z" fill="none" stroke="#330d42" stroke-width="1.5" stroke-linecap="round"/><path d="M222.20851,199.26443l-1.50534,-0.89831l2.59634,-3.81436l2.20517,0.1951z" fill="none" stroke="#330d42" stroke-width="1.5" stroke-linecap="round"/><path d="M201.73453,238.24131l2.40313,-9.42925" fill="none" stroke="#330d42" stroke-width="1.5" stroke-linecap="round"/><path d="M186.21394,224.74993l3.53355,-4.95349" fill="none" stroke="#330d42" stroke-width="1.5" stroke-linecap="round"/><path d="M216.27604,232.60819l0.02584,10.72965" fill="none" stroke="#330d42" stroke-width="1.5" stroke-linecap="round"/><path d="M225.22759,230.34737l6.92338,7.914" fill="none" stroke="#330d42" stroke-width="1.5" stroke-linecap="round"/><path d="M244.15045,223.11756l-10.54978,-2.77366" fill="none" stroke="#330d42" stroke-width="1.5" stroke-linecap="round"/><path d="M201.29535,133.37112l-0.84579,-2.5171l3.28845,9.50886" fill="none" stroke="#330d42" stroke-width="1.5" stroke-linecap="round"/><path d="M215.93151,128.29757l-0.00559,-2.33251l0.21243,10.72918" fill="none" stroke="#330d42" stroke-width="1.5" stroke-linecap="round"/><path d="M186.86354,145.81506l-1.31181,-2.32939l4.12234,7.08101" fill="none" stroke="#330d42" stroke-width="1.5" stroke-linecap="round"/><path d="M230.40083,131.435l1.11579,-1.58883l-6.32155,9.53202" fill="none" stroke="#330d42" stroke-width="1.5" stroke-linecap="round"/><path d="M232.86781,148.50328l11.46889,-3.01329l-1.86447,0.6576" fill="none" stroke="#330d42" stroke-width="1.5" stroke-linecap="round"/><path d="M197.68626,153.44595c8.67695,-4.99551 10.47871,6.82932 10.47871,6.82932c0,0 0.39343,17.62016 0.32192,26.14986c-0.0685,8.17076 -0.74229,23.99778 -0.74229,23.99778c0,0 -1.31282,5.665 -6.1165,6.8693c-3.19257,0.80039 -13.82712,-7.33273 -17.89913,-17.09333c-4.07201,-9.76058 2.8636,-9.36115 2.84963,-15.15908c-0.01396,-5.79793 -5.67895,-12.39404 -3.47069,-18.02997c2.20826,-5.63593 5.90144,-8.56837 14.57839,-13.56388z" fill="none" stroke="#330d42" stroke-width="1.5" stroke-linecap="round"/><path d="M180.91854,156.73322c0,0 17.77873,-1.62179 21.10127,-1.49388c1.46652,0.05646 2.81221,0.29608 3.43507,3.23863c0.6072,2.86869 2.70397,14.49492 2.76656,25.24703c0.06258,10.75211 -1.76869,23.9427 -2.28111,26.52187c-0.51242,2.57917 -1.86825,3.53259 -3.77934,3.61676c-2.9455,0.12975 -18.94885,-3.56202 -18.94885,-3.56202l-2.29363,-53.56837z" fill="none" stroke="#330d42" stroke-width="1.5" stroke-linecap="round"/><path d="M203.58682,168.74787c1.06347,2.51782 1.89616,9.18671 1.89616,9.18671l1.85715,0.08303l-0.21388,14.51659l-1.89237,0.77935c0,0 0.62221,5.74647 -0.97474,8.09929c-9.25643,13.63791 -18.7957,3.83027 -19.18871,-3.09989c-0.18829,-3.3204 3.15404,-14.41457 3.15404,-14.41457c0,0 -4.82147,-13.95256 -5.4059,-17.42222c-0.39846,-2.36538 15.162,-11.00134 20.76829,2.2717z" fill="none" stroke="#330d42" stroke-width="1.5" stroke-linecap="round"/><path d="M193.55492,160.70129c5.68678,-0.0137 10.30964,5.29189 10.32544,11.85039c0.0158,6.55849 -4.58146,11.88628 -10.26825,11.89998c-5.68678,0.01369 -10.30964,-5.29188 -10.32544,-11.85039c-0.0158,-6.55849 4.58146,-11.88628 10.26825,-11.89999z" fill="none" stroke="#330d42" stroke-width="1.5" stroke-linecap="butt"/><path d="M193.3111,184.30204c5.68678,-0.01369 10.30962,5.29192 10.32542,11.85039c0.0158,6.55846 -4.58143,11.88628 -10.26822,11.89998c-5.68678,0.01369 -10.30961,-5.29191 -10.32541,-11.85038c-0.0158,-6.55846 4.58143,-11.88629 10.26822,-11.89999z" fill="none" stroke="#330d42" stroke-width="1.5" stroke-linecap="butt"/><path d="M186.50203,196.9453l-0.04816,-19.99239l13.67902,-0.03295l0.04816,19.99239z" fill="none" stroke="#330d42" stroke-width="1.5" stroke-linecap="butt"/><path d="M190.56797,176.04052c-3.59907,-3.61382 -4.16842,-8.88212 -1.27167,-11.7671c2.89679,-2.88503 8.16271,-2.29423 11.76183,1.31957c3.59907,3.61382 4.16842,8.88212 1.27167,11.7671c-2.89679,2.88503 -8.16273,2.2942 -11.76183,-1.31959z" data-paper-data="{&quot;index&quot;:null}" fill="none" stroke="#330d42" stroke-width="1.5" stroke-linecap="butt"/><path d="M202.12037,192.52993c2.91059,2.87099 2.36669,8.14201 -1.21497,11.77309c-3.58169,3.63109 -8.8447,4.24727 -11.75535,1.37621c-2.91059,-2.87099 -2.36668,-8.142 1.21497,-11.77308c3.58169,-3.63109 8.84469,-4.24728 11.75534,-1.37622z" fill="none" stroke="#330d42" stroke-width="1.5" stroke-linecap="butt"/><path d="M199.03677,193.46627c2.00061,0.50925 3.29055,2.22588 2.8812,3.8342c-0.40938,1.60836 -2.36308,2.49934 -4.36369,1.9901c-2.00061,-0.50925 -3.29058,-2.22584 -2.8812,-3.83421c0.40938,-1.60836 2.36309,-2.49934 4.3637,-1.99009z" fill="none" stroke="#330d42" stroke-width="1.5" stroke-linecap="butt"/><path d="M194.83956,169.47422c0.71244,-0.73137 2.02753,-0.60583 2.93734,0.28038c0.90978,0.88625 1.06976,2.19758 0.35726,2.92898c-0.71244,0.73137 -2.02756,0.60586 -2.93734,-0.28038c-0.90978,-0.88625 -1.06973,-2.19758 -0.35726,-2.92898z" data-paper-data="{&quot;index&quot;:null}" fill="none" stroke="#330d42" stroke-width="1.5" stroke-linecap="butt"/><path d="M198.83955,194.24119c1.46823,0.37372 2.41492,1.63356 2.11451,2.81389c-0.30044,1.18038 -1.73425,1.83426 -3.20251,1.46054c-1.46823,-0.37372 -2.41492,-1.63354 -2.1145,-2.81389c0.30044,-1.18038 1.73425,-1.83427 3.2025,-1.46054z" fill="none" stroke="#330d42" stroke-width="1.5" stroke-linecap="butt"/><path d="M195.28825,169.91131c0.51841,-0.53217 1.47528,-0.44084 2.13728,0.20401c0.662,0.64483 0.77837,1.59904 0.25996,2.13121c-0.51841,0.53217 -1.47531,0.4408 -2.13728,-0.20404c-0.662,-0.64483 -0.77834,-1.59901 -0.25996,-2.13118z" data-paper-data="{&quot;index&quot;:null}" fill="none" stroke="#330d42" stroke-width="1.5" stroke-linecap="butt"/><path d="M192.90147,165.3153c0,0 2.17271,-0.84356 3.84465,-0.15167c1.6719,0.69189 3.85596,4.54777 3.85596,4.54777" fill="none" stroke="#330d42" stroke-width="1.5" stroke-linecap="round"/><path d="M191.77112,169.02063l-1.56923,-1.13548l1.561,-2.28231" fill="none" stroke="#330d42" stroke-width="1.5" stroke-linecap="round"/><path d="M192.90454,166.59699l-1.14474,-2.27579" fill="none" stroke="#330d42" stroke-width="1.5" stroke-linecap="round"/><path d="M199.03421,169.14557l1.85129,-0.00446l0.00309,1.28166" fill="none" stroke="#330d42" stroke-width="1.5" stroke-linecap="round"/><path d="M200.32482,172.84507c0,0 0.99082,-0.27112 1.28203,0.13931c0.29121,0.41044 0.60901,1.3848 0.43269,2.27751c-0.17632,0.89271 -4.02529,2.34105 -5.97665,1.8657c-1.9514,-0.47535 -4.2808,-3.54988 -4.2808,-3.54988" fill="none" stroke="#330d42" stroke-width="1.5" stroke-linecap="round"/><path d="M199.48237,177.83139l-0.71924,-2.98886" fill="none" stroke="#330d42" stroke-width="1.5" stroke-linecap="round"/><path d="M191.49695,173.43594l-1.00267,-2.41851" fill="none" stroke="#330d42" stroke-width="1.5" stroke-linecap="round"/><path d="M192.77825,173.29045l-2.27678,0.71752" fill="none" stroke="#330d42" stroke-width="1.5" stroke-linecap="round"/><path d="M183.27967,199.69726l3.97789,-8.18017l5.46609,1.8373l-3.51565,7.66816z" fill="none" stroke="#330d42" stroke-width="1.5" stroke-linecap="round"/><path d="M189.40238,168.04732l2.8003,7.95734l-5.61115,1.33017l-3.21382,-8.5094z" data-paper-data="{&quot;index&quot;:null}" fill="none" stroke="#330d42" stroke-width="1.5" stroke-linecap="round"/><path d="M202.44474,154.24768c0,0 -10.27321,4.05163 -13.82026,12.70308c-3.54704,8.65145 1.77152,12.67351 1.76163,18.14148c-0.00988,5.46797 -5.89855,7.72408 -2.97019,15.03913c1.99484,4.98308 15.06599,14.13668 15.06599,14.13668l-2.14042,2.90418c0,0 -11.31709,-6.99874 -14.64221,-16.49989c-3.32512,-9.50115 2.73513,-9.61878 2.64701,-15.4678c-0.08814,-5.84903 -4.53731,-9.86656 -3.56889,-15.06324c2.15576,-11.56801 16.69477,-18.46818 16.69477,-18.46818z" fill="none" stroke="#330d42" stroke-width="1.5" stroke-linecap="round"/><path d="M196.93874,217.54633c0,0 -8.6622,3.93292 -19.66169,0.04736c-9.11713,-3.22061 -19.95229,-8.34122 -26.00737,-13.34488c-5.96192,-4.92669 -12.20422,-11.27941 -11.77563,-21.04061c0.42859,-9.7612 4.6619,-13.95256 13.2988,-20.57859c8.2858,-6.35667 22.39857,-11.34557 27.02675,-12.77613c8.3744,-2.58847 20.02748,2.04125 20.02748,2.04125l-7.20731,3.32571l-7.55846,7.33142l-2.6919,5.75255l0.92413,9.22631l2.89536,3.82374l0.18836,3.3079l-3.05475,4.88282l-1.24842,5.92322l2.36508,8.35224l7.41583,8.34008l5.06372,5.38565z" fill="none" stroke="#330d42" stroke-width="1.5" stroke-linecap="round"/><path d="M146.21313,168.54175c0,0 2.58097,-3.43579 4.77669,-5.6034c2.19575,-2.16761 7.02449,-4.34612 7.02449,-4.34612c0,0 3.80532,-0.76757 9.74501,1.78034c5.93969,2.54791 13.54867,8.26502 13.54867,8.26502l-2.31979,10.46784l-1.81163,-3.24255c0,0 -7.07859,-8.31957 -11.0268,-9.71414c-3.94821,-1.39459 -10.27658,2.18935 -10.27658,2.18935z" fill="none" stroke="#330d42" stroke-width="1.5" stroke-linecap="round"/><path d="M157.21205,199.97751c0,0 6.34557,3.55341 10.28701,2.13983c3.94144,-1.41358 10.97988,-9.76716 10.97988,-9.76716l1.79598,-3.25122l2.37018,10.45653c0,0 -7.58135,5.75369 -13.50869,8.33018c-5.92735,2.57649 -9.73631,1.82727 -9.73631,1.82727c0,0 -4.83917,-2.15522 -7.04534,-4.31223c-2.20614,-2.15702 -6.05538,-5.20152 -6.05538,-5.20152z" data-paper-data="{&quot;index&quot;:null}" fill="none" stroke="#330d42" stroke-width="1.5" stroke-linecap="round"/><path d="M166.77345,200.42008c-6.62897,2.28628 -17.85308,2.02723 -17.85308,2.02723c0,0 -9.24588,-4.53367 -9.42379,-18.19605c-0.115,-8.8307 6.99581,-16.25137 6.99581,-16.25137c0,0 3.92694,-2.10425 15.33122,-0.57808c14.55891,1.94834 23.67136,17.07943 23.67136,17.07943c0,0 -3.95314,10.82534 -18.72154,15.91883z" fill="none" stroke="#330d42" stroke-width="1.5" stroke-linecap="round"/><path d="M139.18483,185.87549l-0.00391,-1.62345l44.32898,-0.10677l0.00391,1.62345z" fill="none" stroke="#330d42" stroke-width="1.5" stroke-linecap="butt"/><path d="M194.97661,151.82903l7.21573,0.15819c0,0 -11.99394,6.23935 -16.01682,15.48789c-4.02288,9.24853 2.65647,10.6093 2.74464,16.14495c0.08817,5.53562 -5.20367,10.84593 -2.48094,18.43983c2.64585,7.37955 15.54928,15.06075 15.54928,15.06075l-7.75561,0.36979c0,0 -11.21001,-6.54546 -14.47034,-16.46783c-3.26033,-9.92237 3.75933,-11.92955 3.38964,-15.63305c-0.33316,-3.3375 -5.17222,-9.28324 -3.64995,-17.54724c0.94326,-5.12069 15.4744,-16.01325 15.4744,-16.01325z" fill="none" stroke="#330d42" stroke-width="1.5" stroke-linecap="round"/><path d="M185.94204,182.87676c1.6438,-0.00396 2.97855,0.92155 2.98132,2.06721c0.00275,1.14567 -1.32752,2.07762 -2.97132,2.08158c-1.64379,0.00396 -2.97855,-0.92158 -2.98131,-2.06724c-0.00276,-1.14567 1.32752,-2.07759 2.97131,-2.08155z" fill="none" stroke="#330d42" stroke-width="1.5" stroke-linecap="butt"/><path d="M225.59317,221.43964c-0.25086,-0.66401 0.20347,-1.66322 1.3165,-2.38434c1.11304,-0.72111 2.26905,-0.77998 2.71418,-0.22708c1.40339,1.74323 0.88145,2.74294 -0.23158,3.46406c-1.11304,0.72111 -2.73133,1.97372 -3.79909,-0.8526z" fill="none" stroke="#330d42" stroke-width="1.5" stroke-linecap="butt"/><path d="M227.79216,220.33841c1.11304,-0.72111 2.32822,-0.8228 2.71416,-0.22708c0.38594,0.59569 -0.20347,1.66322 -1.3165,2.38434c-1.11304,0.72115 -2.32822,0.82283 -2.71416,0.22711c-0.38594,-0.59571 0.20346,-1.66325 1.3165,-2.38437z" fill="none" stroke="#330d42" stroke-width="1.5" stroke-linecap="butt"/><path d="M230.08084,221.50321l-3.0446,-0.26444" fill="none" stroke="#330d42" stroke-width="1.5" stroke-linecap="round"/><path d="M244.79691,194.64893l-0.05276,-21.9036l40.32836,-0.09714l0.05275,21.90359z" fill="none" stroke="#330d42" stroke-width="1.5" stroke-linecap="butt"/><path d="M303.20252,221.7532l-0.05984,-24.8436l18.82064,-0.29131l-2.19987,24.35708z" fill="none" stroke="#330d42" stroke-width="1.5" stroke-linecap="round"/><path d="M319.58098,145.21474l2.57113,25.57548l-19.07338,-0.44602l0.18815,-26.07409z" fill="none" stroke="#330d42" stroke-width="1.5" stroke-linecap="round"/><path d="M310.9924,121.86757l8.8401,23.59254l-17.3173,-0.69619l-5.82873,-23.59982z" fill="none" stroke="#330d42" stroke-width="1.5" stroke-linecap="round"/><path d="M311.28663,244.02543l-13.12461,-0.05287l5.03914,-22.80358l17.06341,-0.53306z" fill="none" stroke="#330d42" stroke-width="1.5" stroke-linecap="round"/><path d="M312.03826,243.53168l-11.24535,19.7053l-12.54629,0.52218l9.99003,-19.94825z" fill="none" stroke="#330d42" stroke-width="1.5" stroke-linecap="round"/><path d="M279.79797,173.19664l10.13592,-17.39818l4.49017,-0.01082l0.13411,55.68123l-4.49051,-0.13159l-10.06856,-16.77991z" fill="none" stroke="#330d42" stroke-width="1.5" stroke-linecap="round"/><path d="M300.65959,103.69013l11.08681,18.66758l-14.30531,-0.4575l-9.58112,-18.67121z" fill="none" stroke="#330d42" stroke-width="1.5" stroke-linecap="round"/><path d="M293.339,145.44194l-3.65401,-19.23214l-7.56009,-18.32076l6.60318,-4.52548l9.666,18.91699l5.46578,22.53476l-0.25326,25.62149l-10.20703,0.14455z" fill="none" stroke="#330d42" stroke-width="1.5" stroke-linecap="butt"/><path d="M259.47132,188.85476l-0.02465,-10.23475l14.46982,-0.03485l0.02465,10.23474z" fill="none" stroke="#330d42" stroke-width="1.5" stroke-linecap="butt"/><path d="M259.23294,187.56128l-0.01814,-7.52901l14.82273,-0.03569l0.01814,7.52901z" fill="none" stroke="#330d42" stroke-width="1.5" stroke-linecap="butt"/><path d="M257.68741,184.42151c0.0036,1.49436 -0.91519,2.70797 -2.0522,2.7107c-1.13701,0.00273 -2.06162,-1.20643 -2.06523,-2.70079c-0.0036,-1.49436 0.91519,-2.70796 2.0522,-2.7107c1.13701,-0.00273 2.06162,1.20643 2.06523,2.70078z" fill="none" stroke="#330d42" stroke-width="1.5" stroke-linecap="butt"/><path d="M256.86393,184.42349c0.0036,1.49436 -0.91519,2.70797 -2.0522,2.7107c-1.13701,0.00273 -2.06163,-1.20643 -2.06524,-2.70079c-0.0036,-1.49436 0.91519,-2.70796 2.0522,-2.71069c1.13701,-0.00273 2.06163,1.20642 2.06524,2.70078z" fill="none" stroke="#330d42" stroke-width="1.5" stroke-linecap="butt"/><path d="M273.82378,188.93784l-0.02522,-10.47002l7.06582,3.04167l-0.10744,4.23533z" fill="none" stroke="#330d42" stroke-width="1.5" stroke-linecap="butt"/><path d="M283.08823,258.20631l6.57563,-15.94973l3.85762,-21.05401l-0.05668,-23.53158l10.1957,-0.37539l-0.218,23.88304l-5.05653,22.5601l-8.97132,19.86381z" fill="none" stroke="#330d42" stroke-width="1.5" stroke-linecap="butt"/><path d="M294.80936,197.51226l-0.06551,-27.19977l16.09202,-0.03875l0.06551,27.19977z" fill="none" stroke="#330d42" stroke-width="1.5" stroke-linecap="butt"/><path d="M297.50824,194.6576l-0.05316,-22.07314l8.82925,-0.02126l0.05316,22.07313z" fill="none" stroke="#330d42" stroke-width="1.5" stroke-linecap="butt"/><path d="M313.53562,140.583l-22.17713,5.05852l-0.92641,-0.76781l13.85342,-6.19349l-7.165,-13.58634l12.00584,-5.54737l14.03865,15.87989z" data-paper-data="{&quot;index&quot;:null}" fill="#b61a00" stroke="#000000" stroke-width="0" stroke-linecap="round"/><path d="M279.18659,145.52111l-12.28992,8.8233l9.44042,-12.33391z" fill="#3e3645" stroke="#000000" stroke-width="0" stroke-linecap="round"/><path d="M276.80611,224.39952l-9.36282,-11.61219l12.46659,8.3578z" fill="#3e3645" stroke="#000000" stroke-width="0" stroke-linecap="round"/><path d="M273.48754,194.64424l17.08883,17.68151l-1.07415,3.38478l-20.60466,-16.99662z" fill="#3d3738" stroke="#000000" stroke-width="0" stroke-linecap="round"/><path d="M267.20048,168.14301l20.25719,-14.93042l-3.90344,8.26194l-11.20404,10.30884z" fill="#3d3738" stroke="#000000" stroke-width="0" stroke-linecap="round"/><path d="M258.52207,159.83891l25.38678,-19.06422l6.74012,10.27115l-23.38955,17.7735z" data-paper-data="{&quot;index&quot;:null}" fill="#7f7373" stroke="#938489" stroke-width="0.375" stroke-linecap="round"/><path d="M267.81495,198.58124l22.22745,16.72213l-6.33502,9.75596l-24.12439,-17.93515z" fill="#7f7373" stroke="#938489" stroke-width="0.375" stroke-linecap="round"/><path d="M285.85991,220.04852l5.54284,-1.6368l14.3567,6.7298l-11.85507,20.86284l-19.77566,-9.82837l-0.14279,-3.11127z" fill="#f24500" stroke="#000000" stroke-width="0" stroke-linecap="round"/><path d="M292.1422,244.57423l-0.94244,1.8963l-17.47124,-7.93989l-0.00664,-2.76115z" fill="#d4340d" stroke="#000000" stroke-width="0" stroke-linecap="round"/><path d="M273.86466,238.88239l-1.08457,-0.94441l-1.90184,-3.24232l-1.29033,-7.19649l4.80388,5.56458z" fill="#ed6b0a" stroke="#000000" stroke-width="0" stroke-linecap="round"/><path d="M286.02147,220.12962l-2.47351,-5.08118l7.56955,-2.72399l5.82255,2.15059l0.01075,4.46447l-4.87123,-0.36315z" fill="#f36501" stroke="#000000" stroke-width="0" stroke-linecap="round"/><path d="M269.50779,227.39344l14.30946,-12.88679l2.31258,5.27065l-11.73802,13.28646z" fill="#ff8501" stroke="#000000" stroke-width="0" stroke-linecap="round"/><path d="M325.11362,228.47709l-14.3,16.81012l-12.32511,-5.78768l7.27095,-14.358l-14.22076,-6.45956l0.94506,-0.814l22.7409,5.22145z" fill="#b61a00" stroke="#000000" stroke-width="0" stroke-linecap="round"/><path d="M317.33678,224.3019l0.59037,-2.57189l7.179,3.63548l0.1399,3.27427z" fill="#8f1800" stroke="#000000" stroke-width="0" stroke-linecap="round"/><path d="M273.22912,131.31156l0.12496,-2.95204l19.26086,-9.41492l11.67053,19.73563l-13.98487,6.45051l-5.41894,-1.52698z" data-paper-data="{&quot;index&quot;:null}" fill="#f24500" stroke="#000000" stroke-width="0" stroke-linecap="round"/><path d="M273.12203,128.84906l-0.16973,-2.79864l17.0199,-7.61283l0.92888,1.79446z" data-paper-data="{&quot;index&quot;:null}" fill="#d4340d" stroke="#000000" stroke-width="0" stroke-linecap="round"/><path d="M273.62535,131.3106l-4.42728,5.32961l0.9895,-6.86136l1.84168,-3.0845l1.05445,-0.90091z" data-paper-data="{&quot;index&quot;:null}" fill="#ed6b0a" stroke="#000000" stroke-width="0" stroke-linecap="round"/><path d="M290.95994,144.6767l4.75467,-0.07233l0.0102,4.23505l-5.67442,2.06703l-7.40259,-2.54887l2.62916,-5.16226z" data-paper-data="{&quot;index&quot;:null}" fill="#f36501" stroke="#000000" stroke-width="0" stroke-linecap="round"/><path d="M273.62535,131.3106l11.8471,12.5484l-2.55926,5.01126l-14.02968,-12.15811z" data-paper-data="{&quot;index&quot;:null}" fill="#ff8501" stroke="#000000" stroke-width="0" stroke-linecap="round"/><path d="M322.78418,134.85679l-0.02194,2.5443l-6.58196,4.45892l-0.27004,-2.43772z" data-paper-data="{&quot;index&quot;:null}" fill="#8f1800" stroke="#000000" stroke-width="0" stroke-linecap="round"/><path d="M263.49406,198.37403l-0.07226,-29.99837l11.05822,-0.02664l0.07226,29.99837z" fill="#24251e" stroke="none" stroke-width="0" stroke-linecap="butt"/><path d="M251.4767,198.41225l8.44346,0.62904c0,0 2.12053,3.05696 1.74445,5.29907c-0.37608,2.24211 -3.01896,4.76939 -3.01896,4.76939l-15.58217,1.22806l-1.09763,-51.29842l16.01822,0.06964c0,0 2.64172,2.78998 3.3671,4.97047c0.72539,2.18049 -1.93431,5.74085 -1.93431,5.74085l-7.35934,0.12595z" fill="#252324" stroke="#000000" stroke-width="0" stroke-linecap="round"/><path d="M251.01703,199.0251l-0.07168,-29.7631l8.3525,-0.02012l0.07169,29.7631z" fill="#211e1f" stroke="none" stroke-width="0" stroke-linecap="butt"/><path d="M252.42731,198.4335l-0.07027,-29.17491l0.82349,-0.00198l0.07027,29.17491z" fill="#1b1919" stroke="none" stroke-width="0" stroke-linecap="butt"/><path d="M254.7787,197.83963l-0.06885,-28.58671l0.70585,-0.00171l0.06885,28.58671z" fill="#1b1919" stroke="none" stroke-width="0" stroke-linecap="butt"/><path d="M257.83906,198.53811l-0.07,-29.05727l0.70585,-0.0017l0.06999,29.05726z" fill="#1b1919" stroke="none" stroke-width="0" stroke-linecap="butt"/><path d="M256.4268,198.30622l-0.06942,-28.82198l0.70585,-0.0017l0.06942,28.82198z" fill="#1b1919" stroke="none" stroke-width="0" stroke-linecap="butt"/><path d="M230.52584,153.49776l0.62085,5.00414l-8.58973,0.42655l-1.11146,-12.10556z" data-paper-data="{&quot;index&quot;:null}" fill="#544f51" stroke="#000000" stroke-width="0" stroke-linecap="round"/><path d="M221.35932,147.49953l0.9919,10.27948l-9.74049,0.0911z" data-paper-data="{&quot;index&quot;:null}" fill="#7b7776" stroke="#8c8887" stroke-width="0.25" stroke-linecap="round"/><path d="M225.31322,151.81922l1.42279,0.94358l4.46429,-0.0784l-0.94342,1.49044l-6.02157,-0.52665l0.12991,-2.23256z" data-paper-data="{&quot;index&quot;:null}" fill="#1b1917" stroke="#000000" stroke-width="0" stroke-linecap="round"/><path d="M225.78803,152.35923l-1.4849,1.35645l-3.33001,-6.41815z" data-paper-data="{&quot;index&quot;:null}" fill="#393534" stroke="#000000" stroke-width="0" stroke-linecap="round"/><path d="M226.33048,152.89906l-7.86391,-7.15131l-0.68442,-3.3129l13.41784,10.11425z" data-paper-data="{&quot;index&quot;:null}" fill="#282320" stroke="#000000" stroke-width="0" stroke-linecap="round"/><path d="M225.28399,149.23319c1.05414,-2.83143 2.67842,-1.58664 3.79491,-0.8709c1.11649,0.71575 1.64325,1.71293 0.24826,3.4629c-0.44246,0.55503 -1.59873,0.50174 -2.71522,-0.21401c-1.11649,-0.71575 -1.57563,-1.71276 -1.32798,-2.37797z" data-paper-data="{&quot;index&quot;:null}" fill="#443e42" stroke="none" stroke-width="0" stroke-linecap="butt"/><path d="M226.16025,147.94584c0.38308,-0.59757 1.59876,-0.50174 2.71525,0.21401c1.11649,0.71575 1.71105,1.78043 1.32798,2.37797c-0.38308,0.59757 -1.59876,0.50174 -2.71525,-0.21401c-1.11649,-0.71575 -1.71105,-1.78043 -1.32798,-2.37798z" data-paper-data="{&quot;index&quot;:null}" fill="#7c7080" stroke="none" stroke-width="0" stroke-linecap="butt"/><path d="M226.72798,149.42712l3.0433,-0.2791" data-paper-data="{&quot;index&quot;:null}" fill="none" stroke="#3f393c" stroke-width="0.25" stroke-linecap="round"/><path d="M221.76635,223.86843l1.05312,-12.11079l8.59169,0.38517l-0.59673,5.00709z" fill="#544f51" stroke="#000000" stroke-width="0" stroke-linecap="round"/><path d="M212.8785,212.86389l9.74081,0.04419l-0.9424,10.28413z" fill="#7b7776" stroke="#8c8887" stroke-width="0.25" stroke-linecap="round"/><path d="M224.66392,219.26166l-0.14066,-2.23191l6.01896,-0.55564l0.95059,1.48587l-4.46463,-0.05689l-1.41823,0.95043z" fill="#1b1917" stroke="#000000" stroke-width="0" stroke-linecap="round"/><path d="M221.2917,223.39605l3.29905,-6.43411l1.49141,1.34929z" fill="#393534" stroke="#000000" stroke-width="0" stroke-linecap="round"/><path d="M231.49315,218.09527l-11.81609,8.95745l-0.40944,-1.48718l7.35439,-7.79675z" fill="#282320" stroke="#000000" stroke-width="0" stroke-linecap="round"/><path d="M220.89586,147.37846l-10.53084,12.59402l-1.13865,-1.65564l9.13328,-13.02706z" data-paper-data="{&quot;index&quot;:null}" fill="#393534" stroke="#000000" stroke-width="0" stroke-linecap="round"/><path d="M219.16403,225.58762l-9.19592,-12.98291l1.13066,-1.66111l10.59138,12.54315z" fill="#393534" stroke="#000000" stroke-width="0" stroke-linecap="round"/><path d="M225.51519,125.15881l-10.96144,9.4166l-10.35652,0.0217l2.64959,-4.30951c0,0 5.065,-4.89613 8.92249,-6.81742c3.85748,-1.92128 7.39938,-2.14321 7.39938,-2.14321z" data-paper-data="{&quot;index&quot;:null}" fill="#d23e28" stroke="#000000" stroke-width="0" stroke-linecap="round"/><path d="M225.23994,124.93222l-9.12713,7.39099l-7.27128,-0.96963l1.84657,-3.64615c0,0 3.51197,-3.40807 6.26443,-4.77897c2.75242,-1.3709 6.30833,-1.67407 6.30833,-1.67407z" data-paper-data="{&quot;index&quot;:null}" fill="#941300" stroke="#000000" stroke-width="0" stroke-linecap="round"/><path d="M222.48137,249.61973c0,0 -3.50982,-0.52493 -7.18829,-2.76997c-3.67843,-2.24503 -8.30486,-7.55757 -8.30486,-7.55757l-2.2702,-4.52085l10.31647,0.90988l10.11337,10.32208z" fill="#d23e28" stroke="#000000" stroke-width="0" stroke-linecap="round"/><path d="M222.62823,249.39245c0,0 -3.51677,-0.60706 -6.14151,-2.20899c-2.62474,-1.60193 -5.83143,-5.29864 -5.83143,-5.29864l-1.52703,-3.79111l7.48283,-0.2179l8.33973,8.44608z" fill="#941300" stroke="#000000" stroke-width="0" stroke-linecap="round"/><path d="M196.73407,215.20781l12.34904,13.77893l-2.05262,0.00495l-11.69277,-12.47428l-3.63628,1.03508l-1.68459,-2.14188z" data-paper-data="{&quot;index&quot;:null}" fill="#aa4517" stroke="#000000" stroke-width="0" stroke-linecap="round"/><path d="M206.74988,228.71244c0,0 -5.9857,-2.26247 -9.24808,-4.64282c-3.26238,-2.38035 -6.17384,-6.60955 -6.17384,-6.60955l4.19655,-0.84984z" data-paper-data="{&quot;index&quot;:null}" fill="#fc8200" stroke="#000000" stroke-width="0" stroke-linecap="round"/><path d="M246.73466,212.02898c0,0 1.14902,26.69022 -27.01017,30.34518c-21.14016,1.98561 -38.56268,-23.37692 -38.56268,-23.37692l11.37465,-0.42801c0,0 15.96896,16.88033 26.47662,14.85886c18.42986,-3.54555 19.00979,-21.67858 19.00979,-21.67858z" data-paper-data="{&quot;index&quot;:null}" fill="#f83b2d" stroke="#000000" stroke-width="0" stroke-linecap="round"/><path d="M243.56456,212.29596c0,0 1.56023,26.16731 -24.84246,28.7035c-19.246,1.84874 -34.85509,-22.21518 -34.85509,-22.21518l11.75395,-0.86804c0,0 8.39732,14.39789 22.70389,13.10087c14.81474,-1.34308 16.84033,-19.63394 16.84033,-19.63394z" data-paper-data="{&quot;index&quot;:null}" fill="#aa0606" stroke="#000000" stroke-width="0" stroke-linecap="round"/><path d="M243.82076,211.6511c0,0 1.30405,26.81216 -25.09861,29.34836c-19.24603,1.84874 -34.85509,-22.21518 -34.85509,-22.21518l10.35552,-0.39815c0,0 9.79864,15.14092 24.10521,13.8439c14.81474,-1.34308 17.30549,-20.19486 17.30549,-20.19486z" data-paper-data="{&quot;index&quot;:null}" fill="#fa0000" stroke="#000000" stroke-width="0" stroke-linecap="round"/><path d="M192.38426,152.42615l1.67426,-2.14997l3.64123,1.01755l11.63254,-12.53047l2.05262,-0.00494l-12.2825,13.83826z" fill="#aa4517" stroke="#000000" stroke-width="0" stroke-linecap="round"/><path d="M197.88613,151.19999l-4.20057,-0.82961c0,0 2.89105,-4.24318 6.14193,-6.63922c3.25087,-2.39604 9.22558,-4.68731 9.22558,-4.68731z" fill="#fc8200" stroke="#000000" stroke-width="0" stroke-linecap="round"/><path d="M249.31175,200.40171l0.01676,6.95761l-6.95762,0.01676l-0.01676,-6.95761z" data-paper-data="{&quot;index&quot;:null}" fill="#514e47" stroke="none" stroke-width="0" stroke-linecap="butt"/><path d="M247.65041,206.07487l0.01489,6.18453l-5.28262,0.01272l-0.01489,-6.18453z" data-paper-data="{&quot;index&quot;:null}" fill="#514e47" stroke="none" stroke-width="0" stroke-linecap="butt"/><path d="M237.42353,156.60956c0,0 -0.66726,-18.13002 -19.11399,-21.58675c-10.51728,-1.97084 -26.40473,14.98624 -26.40473,14.98624l-11.37659,-0.37322c0,0 17.30015,-25.44617 38.44963,-23.56242c28.17648,3.51928 27.15602,30.21473 27.15602,30.21473z" fill="#47a0cc" stroke="#000000" stroke-width="0" stroke-linecap="round"/><path d="M234.56769,156.98965c0,0 -2.11369,-18.28086 -16.93473,-19.55259c-14.31265,-1.22808 -22.64052,13.21009 -22.64052,13.21009l-11.75799,-0.81141c0,0 15.49299,-24.13883 34.74767,-22.38283c26.41456,2.40898 24.98044,28.5835 24.98044,28.5835z" fill="#06527f" stroke="#000000" stroke-width="0" stroke-linecap="round"/><path d="M235.03261,156.33542c0,0 -2.58152,-18.83957 -17.40256,-20.11127c-14.31265,-1.22808 -24.03825,13.95987 -24.03825,13.95987l-10.35732,-0.34826c0,0 15.49295,-24.13883 34.74766,-22.38283c26.41456,2.40898 25.7557,29.48357 25.7557,29.48357z" fill="#0b7bc1" stroke="#000000" stroke-width="0" stroke-linecap="round"/><path d="M233.36388,212.42273l-0.02824,-11.72488l9.01911,-0.02173l0.02824,11.72489z" fill="#6a6461" stroke="none" stroke-width="0" stroke-linecap="butt"/><path d="M231.42096,208.1755l-0.01831,-7.60183l3.73649,-0.009l0.01831,7.60182z" fill="#6a6461" stroke="none" stroke-width="0" stroke-linecap="butt"/><path d="M242.53393,168.07784l-0.01676,-6.95761l6.95761,-0.01676l0.01677,6.95761z" data-paper-data="{&quot;index&quot;:null}" fill="#514e47" stroke="none" stroke-width="0" stroke-linecap="butt"/><path d="M242.52028,162.40867l-0.0152,-6.3134l5.28262,-0.01272l0.01521,6.3134z" data-paper-data="{&quot;index&quot;:null}" fill="#514e47" stroke="none" stroke-width="0" stroke-linecap="butt"/><path d="M242.50507,156.09529l0.02824,11.72489l-9.01911,0.02172l-0.02824,-11.72488z" data-paper-data="{&quot;index&quot;:null}" fill="#6a6461" stroke="none" stroke-width="0" stroke-linecap="butt"/><path d="M235.30001,160.36456l0.01831,7.60182l-3.73649,0.00901l-0.01831,-7.60183z" data-paper-data="{&quot;index&quot;:null}" fill="#6a6461" stroke="none" stroke-width="0" stroke-linecap="butt"/><path d="M233.08873,201.49353l-0.0831,-34.50282l10.54304,-0.0254l0.0831,34.50283z" fill="#1b1919" stroke="none" stroke-width="0" stroke-linecap="butt"/><path d="M208.27061,201.55796l-0.09192,-38.16023l24.91145,-0.06l0.09192,38.16023z" fill="#282425" stroke="none" stroke-width="0" stroke-linecap="butt"/><path d="M206.46726,200.25608l-0.07461,-30.97603l18.92355,-0.04558c0,0 6.41364,10.37984 6.42631,15.6416c0.01218,5.05532 -6.35169,15.33444 -6.35169,15.33444z" fill="#f06c00" stroke="none" stroke-width="0" stroke-linecap="butt"/><path d="M223.97222,173.99611l-0.74887,-1.02451l4.38516,-0.01057l0.65558,1.02474z" fill="#8b2500" stroke="none" stroke-width="0" stroke-linecap="butt"/><path d="M228.59501,195.16448l-0.7232,1.02806l-4.87241,0.01174l0.82686,-1.02832z" data-paper-data="{&quot;index&quot;:null}" fill="#8b2500" stroke="none" stroke-width="0" stroke-linecap="butt"/><path d="M205.5559,197.83243l-0.0663,-27.52389l16.95282,-0.04083c0,0 6.11484,9.22206 6.1261,13.89739c0.01081,4.49196 -6.0598,13.62648 -6.0598,13.62648z" fill="#312c29" stroke="none" stroke-width="0" stroke-linecap="butt"/><path d="M210.35015,213.86673l9.10324,10.21269c0,0 -2.55586,0.21187 -3.77642,1.4941c-1.22056,1.28222 -2.28655,3.51554 -2.28655,3.51554l-8.31626,-10.41146c0,0 -0.27978,-1.48705 2.03422,-3.13348c1.4652,-1.04251 3.24178,-1.67737 3.24178,-1.67737z" data-paper-data="{&quot;index&quot;:null}" fill="#f2700b" stroke="#000000" stroke-width="0" stroke-linecap="round"/><path d="M217.98713,228.46058c-1.77498,1.45342 -3.80302,1.91214 -4.52972,1.02468c-0.7267,-0.88747 0.12309,-2.78514 1.89807,-4.23856c1.77498,-1.45342 3.80302,-1.91219 4.52972,-1.0247c0.7267,0.88747 -0.12309,2.78516 -1.89807,4.23858z" data-paper-data="{&quot;index&quot;:null}" fill="#b43507" stroke="#000000" stroke-width="0" stroke-linecap="butt"/><path d="M217.7023,228.60987c-1.26912,1.0392 -2.71915,1.3672 -3.23873,0.73264c-0.51958,-0.63455 0.08801,-1.99138 1.35713,-3.03058c1.26912,-1.0392 2.71915,-1.36722 3.23873,-0.73264c0.51958,0.63455 -0.08801,1.99141 -1.35713,3.03058z" data-paper-data="{&quot;index&quot;:null}" fill="#58515d" stroke="#000000" stroke-width="0" stroke-linecap="butt"/><path d="M218.10863,229.14891c-1.26912,1.0392 -2.71915,1.36722 -3.23873,0.73264c-0.51958,-0.63455 0.08801,-1.99141 1.35713,-3.03058c1.26912,-1.0392 2.71915,-1.3672 3.23873,-0.73264c0.51958,0.63455 -0.08802,1.99138 -1.3571,3.03058z" data-paper-data="{&quot;index&quot;:null}" fill="#6f6675" stroke="#000000" stroke-width="0" stroke-linecap="butt"/><path d="M215.12427,220.30982c0,0 -2.2734,1.72079 -3.17722,4.45421c-0.90386,2.73342 1.00083,3.32479 1.00083,3.32479l-1.79867,1.71997l-4.6529,-4.48318l7.95068,-5.95917z" data-paper-data="{&quot;index&quot;:null}" fill="#5b4e50" stroke="#000000" stroke-width="0" stroke-linecap="round"/><path d="M207.72196,226.21987l-5.1519,-5.5662l6.73569,-5.95624l5.27735,5.11731z" data-paper-data="{&quot;index&quot;:null}" fill="#7a7579" stroke="#847a76" stroke-width="0.25" stroke-linecap="round"/><path d="M202.61703,152.9995l10.17988,-11.70844c0,0 0.98094,2.0299 2.09851,3.19266c1.11758,1.16276 3.44693,1.34458 3.44693,1.34458l-11.65663,11.34302z" fill="#f2700b" stroke="#000000" stroke-width="0" stroke-linecap="round"/><path d="M218.73509,145.69649c-0.65814,0.81171 -2.50772,0.40265 -4.13113,-0.91364c-1.62341,-1.31628 -2.40589,-3.04134 -1.74778,-3.85305c0.65814,-0.81171 2.50772,-0.40268 4.13113,0.91361c1.62341,1.31628 2.40592,3.04137 1.74778,3.85308z" fill="#b43507" stroke="#000000" stroke-width="0" stroke-linecap="butt"/><path d="M217.97684,144.4636c-0.47057,0.58038 -1.793,0.2879 -2.95374,-0.65325c-1.16073,-0.94113 -1.72022,-2.17458 -1.24965,-2.75494c0.47057,-0.58038 1.79302,-0.28791 2.95376,0.65324c1.16073,0.94113 1.72023,2.17459 1.24966,2.75495z" fill="#58515d" stroke="#000000" stroke-width="0" stroke-linecap="butt"/><path d="M218.34464,143.97076c-0.47057,0.58038 -1.793,0.2879 -2.95374,-0.65325c-1.16073,-0.94113 -1.72023,-2.17458 -1.24966,-2.75494c0.47057,-0.58038 1.79303,-0.28791 2.95375,0.65325c1.16073,0.94113 1.72022,2.17458 1.24965,2.75494z" fill="#6f6675" stroke="#000000" stroke-width="0" stroke-linecap="butt"/><path d="M213.80213,150.14378l-7.26933,-5.394l4.26012,-3.98079l1.47994,1.68336c0,0 -1.65834,0.16503 -0.82295,2.65123c0.83539,2.48622 2.96512,4.1778 2.96512,4.1778z" fill="#5b4e50" stroke="#000000" stroke-width="0" stroke-linecap="round"/><path d="M213.92394,149.65155l-4.78529,4.68509l-6.16244,-5.39666l4.62622,-5.17666z" fill="#7a7579" stroke="#847a76" stroke-width="0.25" stroke-linecap="round"/><path d="M218.19282,185.8868l-0.0092,-3.81985l1.83034,-0.00441l0.0092,3.81985z" fill="#62615d" stroke="none" stroke-width="0" stroke-linecap="butt"/><path d="M218.08833,184.71857l-0.00144,-0.6013l1.95708,-0.00471l0.00145,0.60129z" fill="#54534f" stroke="none" stroke-width="0" stroke-linecap="butt"/><path d="M218.43292,186.44329l-0.00153,-0.63666l1.75077,-0.00422l0.00153,0.63666z" fill="#7d7b77" stroke="none" stroke-width="0" stroke-linecap="butt"/><path d="M214.5677,189.03621l-0.02269,-9.41997l3.70787,-0.00893l0.02269,9.41997z" fill="#838481" stroke="#9b9496" stroke-width="0.25" stroke-linecap="butt"/><path d="M218.36781,185.72006l-0.69883,1.10401l-1.10235,0.00265l-0.20427,-1.60291l-1.00212,0.00242" fill="none" stroke="#53524e" stroke-width="0.25" stroke-linecap="round"/><path d="M211.6322,196.55927l0.13417,-3.41812l9.68404,0.1191l-3.97678,4.42421z" fill="#915f3e" stroke="#000000" stroke-width="0" stroke-linecap="round"/><path d="M213.6111,190.43094l5.12804,0.55729l2.2847,2.55785l-9.97022,-0.68803z" fill="#653c0a" stroke="#000000" stroke-width="0" stroke-linecap="round"/><path d="M215.62061,196.97689l0.99068,-2.56573" fill="none" stroke="#67360a" stroke-width="0.25" stroke-linecap="round"/><path d="M228.55065,203.38291l-0.09399,7.77926l-2.58975,1.35912l-20.40683,-0.40179l5.15122,-14.44311l16.24148,2.89213z" fill="#1e1f19" stroke="#000000" stroke-width="0" stroke-linecap="round"/><path d="M226.86581,205.97996l-0.00516,-2.14202l-1.02306,-3.49247l2.93069,-0.23253l2.71036,1.91004l0.23252,2.93069z" fill="#b34b00" stroke="#000000" stroke-width="0" stroke-linecap="round"/><path d="M226.97663,205.19053l4.84752,-0.12442l-0.77289,6.76624l-5.86025,0.91605z" fill="#e86b09" stroke="#000000" stroke-width="0" stroke-linecap="round"/><path d="M230.35259,202.5894l0.00353,1.4656" fill="none" stroke="#9d3000" stroke-width="0.25" stroke-linecap="round"/><path d="M229.35528,209.80715l0.22333,-0.90245" fill="none" stroke="#9d3000" stroke-width="0.25" stroke-linecap="round"/><path d="M230.36128,206.19706l0.11492,0.90164" fill="none" stroke="#9d3000" stroke-width="0.25" stroke-linecap="round"/><path d="M229.68891,207.88978l-2.48106,-0.33224" fill="none" stroke="#dc5c00" stroke-width="0.25" stroke-linecap="round"/><path d="M228.67969,210.147l-2.02957,-0.10783" fill="none" stroke="#dc5c00" stroke-width="0.25" stroke-linecap="round"/><path d="M224.04681,205.76131l-1.11137,6.65434l-14.76962,-0.30264l2.46612,-5.86839l9.92101,-0.0239z" fill="#982800" stroke="#000000" stroke-width="0" stroke-linecap="round"/><path d="M216.49681,207.24512l-1.90488,4.85237l-5.0738,-0.21328l2.1317,-4.28923z" fill="#ea6b05" stroke="#000000" stroke-width="0" stroke-linecap="round"/><path d="M223.71077,206.66402l-1.11436,5.41419l-6.65213,-0.20948l2.69488,-4.51607z" fill="#ea6b05" stroke="#000000" stroke-width="0" stroke-linecap="round"/><path d="M211.21671,201.44282l0.30267,7.40448l-6.11116,5.1414l0.26185,-9.54196z" fill="#f0ac12" stroke="#000000" stroke-width="0" stroke-linecap="round"/><path d="M211.56879,170.2546l-3.00395,-5.54668l-1.31047,-11.95911l4.2688,-1.43438l0.30987,10.39506l2.86461,6.8287z" fill="#f0ac12" stroke="#000000" stroke-width="0" stroke-linecap="round"/><path d="M212.72136,175.76507l-3.00769,-7.11316l6.12383,0.12766l5.28451,6.39563z" fill="#915f3e" stroke="#000000" stroke-width="0" stroke-linecap="round"/><path d="M210.15392,174.06235l10.54051,0.97147l-0.99239,1.85369l-7.97103,1.5857z" fill="#653c0a" stroke="#000000" stroke-width="0" stroke-linecap="round"/><path d="M213.13382,169.64055l3.42738,3.97916" fill="none" stroke="#67360a" stroke-width="0.25" stroke-linecap="round"/><path d="M215.20076,184.02385c0.02805,11.64339 -3.432,21.09058 -7.72821,21.10092c-4.29622,0.01034 -7.80173,-9.42006 -7.82977,-21.06345c-0.02805,-11.64339 3.432,-21.09058 7.72822,-21.10092c4.29622,-0.01034 7.80173,9.42007 7.82977,21.06345z" fill="#e56506" stroke="#a55314" stroke-width="0.25" stroke-linecap="butt"/><path d="M211.93076,183.80625c0.02055,8.53019 -2.73892,15.45195 -6.16343,15.46019c-3.42454,0.00825 -6.21732,-6.90014 -6.23786,-15.43033c-0.02055,-8.53019 2.73894,-15.45193 6.16346,-15.46017c3.42454,-0.00825 6.21729,6.90012 6.23783,15.43031z" fill="#921f00" stroke="none" stroke-width="0" stroke-linecap="butt"/><path d="M208.23372,193.51076l-0.04616,-19.16565l2.2548,-0.00543l0.04616,19.16565z" fill="url(#color-1)" stroke="none" stroke-width="0" stroke-linecap="butt"/><path d="M230.49171,166.73785l-3.38217,0.00815l-11.2766,-1.10022l-2.72773,-9.12534l12.16468,-4.65164l5.63586,-0.46452z" fill="#2a1c0c" stroke="#000000" stroke-width="0" stroke-linecap="round"/><path d="M225.07425,164.27064l-7.78116,-0.8832l-5.41175,-0.09969l-0.57376,-4.16999l0.09537,-7.21555l14.54252,-0.37325l0.02878,11.95033z" fill="#8b2300" stroke="#000000" stroke-width="0" stroke-linecap="round"/><path d="M224.73878,165.39886l6.53911,0.09697l-0.21624,3.83368l-1.46589,-0.10922l-4.62854,-2.58186z" fill="#f06900" stroke="#000000" stroke-width="0" stroke-linecap="round"/><path d="M229.2464,164.59883l-0.12168,-3.72012l1.24015,-0.00298l-0.00218,-0.90193l-0.78919,0.0019l-0.00923,-3.83311l0.6767,0.11108l0.2236,-0.78969l-0.78889,0.11463l-0.00923,-3.83311l4.62257,0.10159l-0.10513,3.15694l-1.23852,0.67942l1.46589,0.10922l0.12223,3.94559l-1.91468,0.7938l2.02875,-0.23039l0.12415,4.73478z" fill="#ef6b00" stroke="#000000" stroke-width="0" stroke-linecap="round"/><path d="M225.83463,152.31836l0.02336,9.69557l-0.89892,1.24232l-4.51256,-1.22928l-0.47402,-9.58172z" fill="#f06900" stroke="#000000" stroke-width="0" stroke-linecap="round"/><path d="M218.84646,153.01166l-0.31785,8.45625l-1.01248,0.90438l-4.51011,-0.21463l-0.68078,-1.80218l-0.13309,-8.45515l5.41311,0.66341z" fill="#f06900" stroke="#000000" stroke-width="0" stroke-linecap="round"/><path d="M231.37246,157.94203l-0.01384,-5.74969l0.78916,-0.0019l0.01384,5.74969z" fill="url(#color-2)" stroke="none" stroke-width="0" stroke-linecap="butt"/><path d="M218.09982,199.2743l4.20167,-3.01651l2.10927,1.99918l-2.39834,2.81175z" fill="#1e1f19" stroke="#000000" stroke-width="0" stroke-linecap="round"/><path d="M221.70646,198.86479l3.59802,-4.01719l2.41017,2.09865l-3.69869,3.81701z" fill="#f46901" stroke="#000000" stroke-width="0" stroke-linecap="round"/><path d="M222.20851,199.26443l-1.50534,-0.89831l2.59634,-3.81436l2.20517,0.1951z" fill="#b24501" stroke="#000000" stroke-width="0" stroke-linecap="round"/><path d="M201.73453,238.24131l2.40313,-9.42925" fill="none" stroke="#aa0606" stroke-width="0.5" stroke-linecap="round"/><path d="M186.21394,224.74993l3.53355,-4.95349" fill="none" stroke="#aa0606" stroke-width="0.5" stroke-linecap="round"/><path d="M216.27605,232.60818l0.02584,10.72965" fill="none" stroke="#aa0606" stroke-width="0.5" stroke-linecap="round"/><path d="M225.22759,230.34737l6.92338,7.914" fill="none" stroke="#aa0606" stroke-width="0.5" stroke-linecap="round"/><path d="M244.15045,223.11756l-10.54978,-2.77366" fill="none" stroke="#aa0606" stroke-width="0.5" stroke-linecap="round"/><path d="M201.29535,133.37112l-0.84579,-2.5171l3.28845,9.50886" fill="none" stroke="#06527f" stroke-width="0.5" stroke-linecap="round"/><path d="M215.93151,128.29757l-0.00559,-2.33251l0.21243,10.72918" fill="none" stroke="#06527f" stroke-width="0.5" stroke-linecap="round"/><path d="M186.86354,145.81506l-1.31181,-2.32939l4.12234,7.08101" fill="none" stroke="#06527f" stroke-width="0.5" stroke-linecap="round"/><path d="M230.40083,131.435l1.11579,-1.58883l-6.32155,9.53202" fill="none" stroke="#06527f" stroke-width="0.5" stroke-linecap="round"/><path d="M232.86781,148.50328l11.46889,-3.01329l-1.86447,0.6576" fill="none" stroke="#06527f" stroke-width="0.5" stroke-linecap="round"/><path d="M197.68626,153.44595c8.67695,-4.99551 10.47871,6.82932 10.47871,6.82932c0,0 0.39343,17.62016 0.32192,26.14986c-0.0685,8.17076 -0.74229,23.99778 -0.74229,23.99778c0,0 -1.31282,5.665 -6.1165,6.8693c-3.19257,0.80039 -13.82712,-7.33273 -17.89913,-17.09333c-4.07201,-9.76058 2.8636,-9.36115 2.84963,-15.15908c-0.01396,-5.79793 -5.67895,-12.39404 -3.47069,-18.02997c2.20826,-5.63593 5.90144,-8.56837 14.57839,-13.56388z" fill="#b84400" stroke="#000000" stroke-width="0" stroke-linecap="round"/><path d="M180.91854,156.73322c0,0 17.77873,-1.62179 21.10127,-1.49388c1.46652,0.05646 2.81221,0.29608 3.43507,3.23863c0.6072,2.86869 2.70397,14.49492 2.76656,25.24703c0.06258,10.75211 -1.76869,23.9427 -2.28111,26.52187c-0.51242,2.57917 -1.86825,3.53259 -3.77934,3.61676c-2.9455,0.12975 -18.94885,-3.56202 -18.94885,-3.56202l-2.29363,-53.56837z" fill="#7b2200" stroke="#000000" stroke-width="0" stroke-linecap="round"/><path d="M203.58682,168.74787c1.06347,2.51782 1.89616,9.18671 1.89616,9.18671l1.85715,0.08303l-0.21388,14.51659l-1.89237,0.77935c0,0 0.62221,5.74647 -0.97474,8.09929c-9.25643,13.63791 -18.7957,3.83027 -19.18871,-3.09989c-0.18829,-3.3204 3.15404,-14.41457 3.15404,-14.41457c0,0 -4.82147,-13.95256 -5.4059,-17.42222c-0.39846,-2.36538 15.162,-11.00134 20.76829,2.2717z" fill="#df9431" stroke="#954116" stroke-width="0" stroke-linecap="round"/><path d="M193.55492,160.70129c5.68678,-0.0137 10.30964,5.29189 10.32544,11.85039c0.0158,6.55849 -4.58146,11.88628 -10.26825,11.89998c-5.68678,0.01369 -10.30964,-5.29188 -10.32544,-11.85039c-0.0158,-6.55849 4.58146,-11.88628 10.26825,-11.89999z" fill="#98581e" stroke="none" stroke-width="0" stroke-linecap="butt"/><path d="M193.3111,184.30204c5.68678,-0.01369 10.30962,5.29192 10.32542,11.85039c0.0158,6.55846 -4.58143,11.88628 -10.26822,11.89998c-5.68678,0.01369 -10.30961,-5.29191 -10.32541,-11.85038c-0.0158,-6.55846 4.58143,-11.88629 10.26822,-11.89999z" fill="#98581e" stroke="none" stroke-width="0" stroke-linecap="butt"/><path d="M186.50203,196.9453l-0.04816,-19.99239l13.67902,-0.03295l0.04816,19.99239z" fill="#98581e" stroke="none" stroke-width="0" stroke-linecap="butt"/><path d="M190.56797,176.04052c-3.59907,-3.61382 -4.16842,-8.88212 -1.27167,-11.7671c2.89679,-2.88503 8.16271,-2.29423 11.76183,1.31957c3.59907,3.61382 4.16842,8.88212 1.27167,11.7671c-2.89679,2.88503 -8.16273,2.2942 -11.76183,-1.31959z" data-paper-data="{&quot;index&quot;:null}" fill="#01050a" stroke="#954116" stroke-width="0" stroke-linecap="butt"/><path d="M202.12037,192.52993c2.91059,2.87099 2.36669,8.14201 -1.21497,11.77309c-3.58169,3.63109 -8.8447,4.24727 -11.75535,1.37621c-2.91059,-2.87099 -2.36668,-8.142 1.21497,-11.77308c3.58169,-3.63109 8.84469,-4.24728 11.75534,-1.37622z" fill="#01050a" stroke="#954116" stroke-width="0" stroke-linecap="butt"/><path d="M199.03677,193.46627c2.00061,0.50925 3.29055,2.22588 2.8812,3.8342c-0.40938,1.60836 -2.36308,2.49934 -4.36369,1.9901c-2.00061,-0.50925 -3.29058,-2.22584 -2.8812,-3.83421c0.40938,-1.60836 2.36309,-2.49934 4.3637,-1.99009z" fill="#5db0c4" stroke="none" stroke-width="0" stroke-linecap="butt"/><path d="M194.83956,169.47422c0.71244,-0.73137 2.02753,-0.60583 2.93734,0.28038c0.90978,0.88625 1.06976,2.19758 0.35726,2.92898c-0.71244,0.73137 -2.02756,0.60586 -2.93734,-0.28038c-0.90978,-0.88625 -1.06973,-2.19758 -0.35726,-2.92898z" data-paper-data="{&quot;index&quot;:null}" fill="#5db0c4" stroke="none" stroke-width="0" stroke-linecap="butt"/><path d="M198.83955,194.24119c1.46823,0.37372 2.41492,1.63356 2.11451,2.81389c-0.30044,1.18038 -1.73425,1.83426 -3.20251,1.46054c-1.46823,-0.37372 -2.41492,-1.63354 -2.1145,-2.81389c0.30044,-1.18038 1.73425,-1.83427 3.2025,-1.46054z" fill="#01050a" stroke="none" stroke-width="0" stroke-linecap="butt"/><path d="M195.28825,169.91131c0.51841,-0.53217 1.47528,-0.44084 2.13728,0.20401c0.662,0.64483 0.77837,1.59904 0.25996,2.13121c-0.51841,0.53217 -1.47531,0.4408 -2.13728,-0.20404c-0.662,-0.64483 -0.77834,-1.59901 -0.25996,-2.13118z" data-paper-data="{&quot;index&quot;:null}" fill="#01050a" stroke="none" stroke-width="0" stroke-linecap="butt"/><path d="M192.90147,165.3153c0,0 2.17271,-0.84356 3.84465,-0.15167c1.6719,0.69189 3.85596,4.54777 3.85596,4.54777" fill="none" stroke="#5db0c4" stroke-width="0.25" stroke-linecap="round"/><path d="M191.77112,169.02063l-1.56923,-1.13548l1.561,-2.28231" fill="none" stroke="#5db0c4" stroke-width="0.25" stroke-linecap="round"/><path d="M192.90454,166.59699l-1.14474,-2.27579" fill="none" stroke="#5db0c4" stroke-width="0.25" stroke-linecap="round"/><path d="M199.03421,169.14557l1.85129,-0.00446l0.00309,1.28166" fill="none" stroke="#5db0c4" stroke-width="0.25" stroke-linecap="round"/><path d="M200.32482,172.84507c0,0 0.99082,-0.27112 1.28203,0.13931c0.29121,0.41044 0.60901,1.3848 0.43269,2.27751c-0.17632,0.89271 -4.02529,2.34105 -5.97665,1.8657c-1.9514,-0.47535 -4.2808,-3.54988 -4.2808,-3.54988" fill="none" stroke="#5db0c4" stroke-width="0.25" stroke-linecap="round"/><path d="M199.48237,177.83139l-0.71924,-2.98886" fill="none" stroke="#5db0c4" stroke-width="0.25" stroke-linecap="round"/><path d="M191.49695,173.43594l-1.00267,-2.41851" fill="none" stroke="#5db0c4" stroke-width="0.25" stroke-linecap="round"/><path d="M192.77825,173.29045l-2.27678,0.71752" fill="none" stroke="#5db0c4" stroke-width="0.25" stroke-linecap="round"/><path d="M183.27967,199.69726l3.97789,-8.18017l5.46609,1.8373l-3.51565,7.66816z" fill="#360e03" stroke="#602a0d" stroke-width="0" stroke-linecap="round"/><path d="M189.40238,168.04732l2.8003,7.95734l-5.61115,1.33017l-3.21382,-8.5094z" data-paper-data="{&quot;index&quot;:null}" fill="#360e03" stroke="#602a0d" stroke-width="0" stroke-linecap="round"/><path d="M202.44474,154.24768c0,0 -10.27321,4.05163 -13.82026,12.70308c-3.54704,8.65145 1.77152,12.67351 1.76163,18.14148c-0.00988,5.46797 -5.89855,7.72408 -2.97019,15.03913c1.99484,4.98308 15.06599,14.13668 15.06599,14.13668l-2.14042,2.90418c0,0 -11.31709,-6.99874 -14.64221,-16.49989c-3.32512,-9.50115 2.73513,-9.61878 2.64701,-15.4678c-0.08814,-5.84903 -4.53731,-9.86656 -3.56889,-15.06324c2.15576,-11.56801 16.69477,-18.46818 16.69477,-18.46818z" fill="#b84400" stroke="#000000" stroke-width="0" stroke-linecap="round"/><path d="M196.93874,217.54633c0,0 -8.6622,3.93292 -19.66169,0.04736c-9.11713,-3.22061 -19.95229,-8.34122 -26.00737,-13.34488c-5.96192,-4.92669 -12.20422,-11.27941 -11.77563,-21.04061c0.42859,-9.7612 4.6619,-13.95256 13.2988,-20.57859c8.2858,-6.35667 22.39857,-11.34557 27.02675,-12.77613c8.3744,-2.58847 20.02748,2.04125 20.02748,2.04125l-7.20731,3.32571l-7.55846,7.33142l-2.6919,5.75255l0.92413,9.22631l2.89536,3.82374l0.18836,3.3079l-3.05475,4.88282l-1.24842,5.92322l2.36508,8.35224l7.41583,8.34008l5.06372,5.38565z" fill="#36322e" stroke="#000000" stroke-width="0" stroke-linecap="round"/><path d="M146.21313,168.54175c0,0 2.58097,-3.43579 4.77669,-5.6034c2.19575,-2.16761 7.02449,-4.34612 7.02449,-4.34612c0,0 3.80532,-0.76757 9.74501,1.78034c5.93969,2.54791 13.54867,8.26502 13.54867,8.26502l-2.31979,10.46784l-1.81163,-3.24255c0,0 -7.07859,-8.31957 -11.0268,-9.71414c-3.94821,-1.39459 -10.27658,2.18935 -10.27658,2.18935z" fill="url(#color-3)" stroke="#000000" stroke-width="0" stroke-linecap="round"/><path d="M157.21205,199.97751c0,0 6.34557,3.55341 10.28701,2.13983c3.94144,-1.41358 10.97988,-9.76716 10.97988,-9.76716l1.79598,-3.25122l2.37018,10.45653c0,0 -7.58135,5.75369 -13.50869,8.33018c-5.92735,2.57649 -9.73631,1.82727 -9.73631,1.82727c0,0 -4.83917,-2.15522 -7.04534,-4.31223c-2.20614,-2.15702 -6.05538,-5.20152 -6.05538,-5.20152z" data-paper-data="{&quot;index&quot;:null}" fill="url(#color-4)" stroke="#000000" stroke-width="0" stroke-linecap="round"/><path d="M166.77345,200.42008c-6.62897,2.28628 -17.85308,2.02723 -17.85308,2.02723c0,0 -9.24588,-4.53367 -9.42379,-18.19605c-0.115,-8.8307 6.99581,-16.25137 6.99581,-16.25137c0,0 3.92694,-2.10425 15.33122,-0.57808c14.55891,1.94834 23.67136,17.07943 23.67136,17.07943c0,0 -3.95314,10.82534 -18.72154,15.91883z" fill="url(#color-5)" stroke="#000000" stroke-width="0" stroke-linecap="round"/><path d="M139.18483,185.87549l-0.00391,-1.62345l44.32898,-0.10677l0.00391,1.62345z" fill="#34332c" stroke="none" stroke-width="0" stroke-linecap="butt"/><path d="M194.97661,151.82903l7.21573,0.15819c0,0 -11.99394,6.23935 -16.01682,15.48789c-4.02288,9.24853 2.65647,10.6093 2.74464,16.14495c0.08817,5.53562 -5.20367,10.84593 -2.48094,18.43983c2.64585,7.37955 15.54928,15.06075 15.54928,15.06075l-7.75561,0.36979c0,0 -11.21001,-6.54546 -14.47034,-16.46783c-3.26033,-9.92237 3.75933,-11.92955 3.38964,-15.63305c-0.33316,-3.3375 -5.17222,-9.28324 -3.64995,-17.54724c0.94326,-5.12069 15.4744,-16.01325 15.4744,-16.01325z" fill="#f56900" stroke="#000000" stroke-width="0" stroke-linecap="round"/><path d="M185.94204,182.87676c1.6438,-0.00396 2.97855,0.92155 2.98132,2.06721c0.00275,1.14567 -1.32752,2.07762 -2.97132,2.08158c-1.64379,0.00396 -2.97855,-0.92158 -2.98131,-2.06724c-0.00276,-1.14567 1.32752,-2.07759 2.97131,-2.08155z" fill="#ea5e00" stroke="none" stroke-width="0" stroke-linecap="butt"/><path d="M225.59317,221.43964c-0.25086,-0.66401 0.20347,-1.66322 1.3165,-2.38434c1.11304,-0.72111 2.26905,-0.77998 2.71418,-0.22708c1.40339,1.74323 0.88145,2.74294 -0.23158,3.46406c-1.11304,0.72111 -2.73133,1.97372 -3.79909,-0.8526z" fill="#443e42" stroke="none" stroke-width="0" stroke-linecap="butt"/><path d="M227.79216,220.33841c1.11304,-0.72111 2.32822,-0.8228 2.71416,-0.22708c0.38594,0.59569 -0.20347,1.66322 -1.3165,2.38434c-1.11304,0.72115 -2.32822,0.82283 -2.71416,0.22711c-0.38594,-0.59571 0.20346,-1.66325 1.3165,-2.38437z" fill="#7c7080" stroke="none" stroke-width="0" stroke-linecap="butt"/><path d="M230.08084,221.50321l-3.0446,-0.26444" fill="none" stroke="#3f393c" stroke-width="0.25" stroke-linecap="round"/><path d="M244.79691,194.64893l-0.05276,-21.9036l40.32836,-0.09714l0.05275,21.90359z" fill="#817c7c" stroke="none" stroke-width="0" stroke-linecap="butt"/><path d="M303.20252,221.7532l-0.05984,-24.8436l18.82064,-0.29131l-2.19987,24.35708z" fill="#fc6900" stroke="#000000" stroke-width="0" stroke-linecap="round"/><path d="M319.58098,145.21474l2.57113,25.57548l-19.07338,-0.44602l0.18815,-26.07409z" fill="#fc6900" stroke="#000000" stroke-width="0" stroke-linecap="round"/><path d="M310.9924,121.86757l8.8401,23.59254l-17.3173,-0.69619l-5.82873,-23.59982z" fill="#ef5200" stroke="#000000" stroke-width="0" stroke-linecap="round"/><path d="M311.28663,244.02543l-13.12461,-0.05287l5.03914,-22.80358l17.06341,-0.53306z" fill="#ef5200" stroke="#000000" stroke-width="0" stroke-linecap="round"/><path d="M312.03826,243.53168l-11.24535,19.7053l-12.54629,0.52218l9.99003,-19.94825z" fill="#e04409" stroke="#000000" stroke-width="0" stroke-linecap="round"/><path d="M279.79797,173.19664l10.13592,-17.39818l4.49017,-0.01082l0.13411,55.68123l-4.49051,-0.13159l-10.06856,-16.77991z" fill="#8d8686" stroke="#999592" stroke-width="0.5" stroke-linecap="round"/><path d="M300.65959,103.69013l11.08681,18.66758l-14.30531,-0.4575l-9.58112,-18.67121z" fill="#e04409" stroke="#000000" stroke-width="0" stroke-linecap="round"/><path d="M293.339,145.44194l-3.65401,-19.23214l-7.56009,-18.32076l6.60318,-4.52548l9.666,18.91699l5.46578,22.53476l-0.25326,25.62149l-10.20703,0.14455z" fill="#ff9b0f" stroke="#000000" stroke-width="0" stroke-linecap="butt"/><path d="M259.47132,188.85476l-0.02465,-10.23475l14.46982,-0.03485l0.02465,10.23474z" fill="#f7810e" stroke="none" stroke-width="0" stroke-linecap="butt"/><path d="M259.23294,187.56128l-0.01814,-7.52901l14.82273,-0.03569l0.01814,7.52901z" fill="#ff7500" stroke="none" stroke-width="0" stroke-linecap="butt"/><path d="M257.68741,184.42151c0.0036,1.49436 -0.91519,2.70797 -2.0522,2.7107c-1.13701,0.00273 -2.06162,-1.20643 -2.06523,-2.70079c-0.0036,-1.49436 0.91519,-2.70796 2.0522,-2.7107c1.13701,-0.00273 2.06162,1.20643 2.06523,2.70078z" fill="#8e9084" stroke="#73410d" stroke-width="0.25" stroke-linecap="butt"/><path d="M256.86393,184.42349c0.0036,1.49436 -0.91519,2.70797 -2.0522,2.7107c-1.13701,0.00273 -2.06163,-1.20643 -2.06524,-2.70079c-0.0036,-1.49436 0.91519,-2.70796 2.0522,-2.71069c1.13701,-0.00273 2.06163,1.20642 2.06524,2.70078z" fill="#8e9084" stroke="#a0a49c" stroke-width="0.25" stroke-linecap="butt"/><path d="M273.82378,188.93784l-0.02522,-10.47002l7.06582,3.04167l-0.10744,4.23533z" fill="#f44c00" stroke="none" stroke-width="0" stroke-linecap="butt"/><path d="M283.08823,258.20631l6.57563,-15.94973l3.85762,-21.05401l-0.05668,-23.53158l10.1957,-0.37539l-0.218,23.88304l-5.05653,22.5601l-8.97132,19.86381z" fill="#ff9b0f" stroke="#000000" stroke-width="0" stroke-linecap="butt"/><path d="M294.80936,197.51226l-0.06551,-27.19977l16.09202,-0.03875l0.06551,27.19977z" fill="#666462" stroke="none" stroke-width="0" stroke-linecap="butt"/><path d="M297.50824,194.6576l-0.05316,-22.07314l8.82925,-0.02126l0.05316,22.07313z" fill="#000000" stroke="none" stroke-width="0" stroke-linecap="butt"/><path d="M267.54815,172.0462l11.34483,2.67842l0.11364,-6.31368l6.18673,0.88701l-3.21492,2.58464l0.02204,9.14796l-13.02636,-5.38013l-3.60115,2.71443z" fill="#ffffff" stroke="#bb44c4" stroke-width="0.375" stroke-linecap="round"/><path d="M294.06373,161.03045l-0.11582,5.41178l-13.91894,-1.51262l-2.49118,-17.90352l5.4152,1.5331l-3.86007,2.19968l4.15003,11.19953l8.12155,1.78428l-0.90349,-0.64203l-0.27228,-6.05508l7.6034,0.62592l1.29528,2.83149z" fill="#ffffff" stroke="#bb44c4" stroke-width="0.375" stroke-linecap="round"/><path d="M284.45686,184.50348l-0.23379,9.92164l2.45333,2.18445l-6.6993,0.27383l0.49925,-6.70117l-9.79002,0.92548l-1.43343,-6.69651l3.22982,3.59991z" fill="#ffffff" stroke="#bb44c4" stroke-width="0.375" stroke-linecap="round"/><path d="M269.97777,217.90934l-0.01148,-4.76725l5.25098,-13.15489l15.33684,1.76688l-0.37379,5.28356l5.54311,1.14625l0.0062,2.57689l-11.34296,-1.90535l3.33846,-4.77533l-9.14703,0.40854l-6.41959,9.42118l4.64959,4.62724z" fill="#ffffff" stroke="#bb44c4" stroke-width="0.375" stroke-linecap="round"/><path d="M325.75728,213.52304l11.72736,1.00252l-5.30125,-7.71795l6.55866,-5.16961l-1.27448,5.80112l5.82282,10.29359l-15.20305,0.29432l-3.08608,2.58433z" fill="#ffffff" stroke="#bb44c4" stroke-width="0.375" stroke-linecap="round"/><path d="M326.64994,156.18472l13.53333,1.90007l-6.93744,8.39166l0.42158,14.55851l-3.21085,4.25964l-1.20522,-18.93736l3.20713,-5.80578l-8.37738,-1.01057l-0.66097,-6.95606z" fill="#ffffff" stroke="#bb44c4" stroke-width="0.375" stroke-linecap="round"/><path d="M327.94885,183.93969c0.02392,9.93054 -6.07734,17.99563 -13.62756,18.01382c-7.5502,0.01819 -13.69026,-8.0174 -13.71418,-17.94796c-0.02392,-9.93054 6.07734,-17.99563 13.62756,-18.01382c7.5502,-0.01819 13.69026,8.0174 13.71418,17.94796z" fill="url(#color-6)" stroke="none" stroke-width="0" stroke-linecap="butt"/><path d="M323.50171,182.94023c0.01757,7.28985 -4.18935,13.20961 -9.39641,13.22215c-5.20702,0.01254 -9.44243,-5.88689 -9.45999,-13.17674c-0.01757,-7.28985 4.18935,-13.20961 9.39641,-13.22216c5.20702,-0.01254 9.44243,5.88689 9.45999,13.17674z" fill="url(#color-7)" stroke="none" stroke-width="0" stroke-linecap="butt"/><path d="M320.40631,183.95786c0.02231,9.26106 -4.99486,16.78083 -11.20609,16.79578c-6.21126,0.01495 -11.26456,-7.48053 -11.28686,-16.74161c-0.02231,-9.26106 4.99486,-16.78083 11.20609,-16.79578c6.21126,-0.01496 11.26456,7.48053 11.28686,16.74161z" fill="url(#color-8)" stroke="none" stroke-width="0" stroke-linecap="butt"/><path d="M320.40631,183.95786c0.02231,9.26106 -4.99486,16.78083 -11.20609,16.79578c-6.21126,0.01495 -11.26456,-7.48053 -11.28686,-16.74161c-0.02231,-9.26106 4.99486,-16.78083 11.20609,-16.79578c6.21126,-0.01496 11.26456,7.48053 11.28686,16.74161z" fill="url(#color-9)" stroke="none" stroke-width="0" stroke-linecap="butt"/><path d="M322.69242,182.47078c0.01693,7.02951 -5.60756,12.74161 -12.56268,12.75837c-6.95512,0.01675 -12.60707,-5.66823 -12.62399,-12.69771c-0.01693,-7.02951 5.60756,-12.74161 12.56268,-12.75836c6.95512,-0.01675 12.60707,5.66822 12.62399,12.6977z" fill="url(#color-10)" stroke="none" stroke-width="0" stroke-linecap="butt"/><path d="M323.23394,183.61435c0.01864,7.73619 -4.60952,14.01879 -10.33724,14.03258c-5.72771,0.01379 -10.38609,-6.24643 -10.40472,-13.98262c-0.01864,-7.73619 4.60952,-14.01876 10.33724,-14.03255c5.72771,-0.01379 10.38609,6.24643 10.40472,13.98259z" fill="url(#color-11)" stroke="none" stroke-width="0" stroke-linecap="butt"/><path d="M323.23394,183.61435c0.01864,7.73619 -4.60952,14.01879 -10.33724,14.03258c-5.72771,0.01379 -10.38609,-6.24643 -10.40472,-13.98262c-0.01864,-7.73619 4.60952,-14.01876 10.33724,-14.03255c5.72771,-0.01379 10.38609,6.24643 10.40472,13.98259z" fill="url(#color-12)" stroke="none" stroke-width="0" stroke-linecap="butt"/><path d="M323.23394,183.61435c0.01864,7.73619 -4.60952,14.01879 -10.33724,14.03258c-5.72771,0.01379 -10.38609,-6.24643 -10.40472,-13.98262c-0.01864,-7.73619 4.60952,-14.01876 10.33724,-14.03255c5.72771,-0.01379 10.38609,6.24643 10.40472,13.98259z" fill="url(#color-13)" stroke="none" stroke-width="0" stroke-linecap="butt"/><path d="M323.23394,183.61435c0.01864,7.73619 -4.60952,14.01879 -10.33724,14.03258c-5.72771,0.01379 -10.38609,-6.24643 -10.40472,-13.98262c-0.01864,-7.73619 4.60952,-14.01876 10.33724,-14.03255c5.72771,-0.01379 10.38609,6.24643 10.40472,13.98259z" fill="url(#color-14)" stroke="none" stroke-width="0" stroke-linecap="butt"/><path d="M306.33249,172.85468l0.00683,2.83459l4.91377,7.33233l-9.41745,-4.87344l0.11146,-7.21559l13.50882,-8.27864l13.538,3.83274l1.68553,4.37669l-13.02385,-4.34938z" fill="#ffffff" stroke="#bb44c4" stroke-width="0.375" stroke-linecap="round"/><path d="M308.82246,190.24281l-5.53194,3.49214l0.13412,2.19006l9.42552,8.22341l10.04459,-2.21458l1.00037,-12.62924l3.35926,3.85727l-2.16337,11.21474l-13.64977,3.25403l-10.71738,-9.6376l0.23535,-9.27743z" fill="#ffffff" stroke="#bb44c4" stroke-width="0.375" stroke-linecap="round"/><path d="M212.5523,163.23136l-2.52701,-5.15037l-1.79217,-5.4856l1.49546,-1.3924l25.28167,0.5408l-0.63782,12.80845l-3.47443,1.14105l1.14105,3.47443l-2.5784,1.35375l-2.92664,-4.08031l-12.14445,1.01236z" fill="url(#color-15)" stroke="#fb0adc" stroke-width="0" stroke-linecap="round"/><g stroke="none" stroke-width="0.5" stroke-linecap="butt"><path d="M177.78262,199.2571c0.30608,1.21195 -0.90587,1.51803 -0.90587,1.51803l-0.30368,-0.21195c-2.41657,3.04816 -6.77283,4.13805 -10.3813,5.22314c-2.24745,0.67582 -4.06357,1.5555 -6.47928,1.5613c-4.35661,0.88222 -11.49912,-0.48636 -14.57688,-3.8899c-2.32047,-2.56608 -3.14459,-5.77623 -4.89837,-8.66414c0,0 -0.64569,-1.07032 0.42463,-1.71602c1.07032,-0.64569 1.71601,0.42462 1.71601,0.42462c1.6681,2.78118 2.51808,5.80235 4.64244,8.31299c2.4156,2.85483 8.96761,3.74833 12.43986,3.04521c3.69964,-0.00889 9.35769,-1.75332 12.41654,-3.82324c1.00176,-0.6779 2.03223,-0.98322 2.69277,-1.96917l1.69511,-0.71675c0,0 1.21195,-0.30608 1.51803,0.90587z" fill="#70f0f9"/><path d="M153.40879,209.04065c-0.25172,-0.0822 -0.54914,-0.25191 -0.70689,-0.60241c-0.11469,-0.20695 -0.17443,-0.47289 -0.09542,-0.805c0.04837,-0.33795 0.20152,-0.56342 0.38415,-0.71385c0.27176,-0.26465 0.60545,-0.31561 0.86822,-0.30161l0.97872,-0.00235c3.1962,-0.00768 6.37674,0.03932 9.52347,-0.5024c4.04027,-0.79946 6.79367,-3.94794 10.49803,-5.45631c0.64152,-0.26122 2.80709,-1.18501 3.29922,-1.05091c0.67233,0.1832 1.02098,0.95618 1.45342,1.5026c0.77748,0.98239 2.8029,4.28695 2.95752,5.47706c0.09327,0.71784 -0.06402,1.49997 -0.41903,2.13081c-0.8641,1.53549 -3.81733,2.145 -5.33666,2.75696c-4.30356,1.73343 -7.86235,1.8583 -12.45978,1.86934c-1.78713,0.00429 -4.05045,0.34306 -5.74258,-0.33699c-2.05199,-0.82467 -3.11939,-3.17481 -5.20238,-3.96493z" fill="#00a8e8"/><path d="M176.15596,197.84994c0.46145,-1.16171 1.62315,-0.70026 1.62315,-0.70026l1.54772,0.66473c2.11889,2.69523 4.14205,6.33445 5.42312,9.51491c0,0 0.46703,1.15948 -0.69245,1.6265c-1.15948,0.46703 -1.6265,-0.69245 -1.6265,-0.69245c-1.14794,-2.84997 -2.89119,-5.92485 -4.62011,-8.46101l-0.95467,-0.32926c0,0 -1.16171,-0.46145 -0.70025,-1.62315z" fill="#00788d"/></g><g data-paper-data="{&quot;index&quot;:null}" stroke="none" stroke-width="0.5" stroke-linecap="butt"><path d="M174.45087,171.83471l-1.69854,-0.7086c-0.66526,-0.98276 -1.69718,-1.28313 -2.7022,-1.9562c-3.06876,-2.0552 -8.73513,-3.77241 -12.43477,-3.76352c-3.47559,-0.68644 -10.02324,0.23853 -12.42509,3.10494c-2.11227,2.52083 -2.94772,5.54604 -4.60244,8.3352c0,0 -0.64054,1.07341 -1.71395,0.43286c-1.07341,-0.64054 -0.43286,-1.71395 -0.43286,-1.71395c1.7399,-2.89629 2.54858,-6.11036 4.85668,-8.68757c3.06137,-3.41829 10.19722,-4.82117 14.55802,-3.95991c2.41571,-0.0058 4.23604,0.86514 6.48671,1.53016c3.61365,1.06773 7.97509,2.13668 10.40628,5.17319l0.30266,-0.21341c0,0 1.2134,0.30026 0.91315,1.51366c-0.30026,1.2134 -1.51366,0.91315 -1.51366,0.91315z" fill="#70f0f9"/><path d="M156.72724,157.26536c1.68884,-0.68817 3.95376,-0.36029 5.74089,-0.36458c4.59744,-0.01105 8.15679,0.09672 12.46862,1.80945c1.52226,0.60466 4.47838,1.19995 5.34985,2.73128c0.35804,0.62913 0.51908,1.4105 0.42927,2.12878c-0.1489,1.19084 -2.15841,4.50508 -2.93116,5.4912c-0.42981,0.54849 -0.77474,1.32315 -1.44619,1.50957c-0.49147,0.13646 -2.66146,-0.77691 -3.30424,-1.03504c-3.71156,-1.49055 -6.48007,-4.62576 -10.52413,-5.40581c-3.14929,-0.52659 -6.32956,-0.46431 -9.52577,-0.45663l-0.97872,0.00235c-0.26269,0.01526 -0.59662,-0.03409 -0.86966,-0.29744c-0.18335,-0.14955 -0.33758,-0.37428 -0.38757,-0.71199c-0.0806,-0.33174 -0.02215,-0.59796 0.09156,-0.80545c0.15607,-0.35125 0.45267,-0.5224 0.70399,-0.6058c2.07917,-0.80012 3.13526,-3.15536 5.18327,-3.98989z" fill="#00a8e8"/><path d="M175.0371,170.71003l0.95308,-0.33384c1.7167,-2.54445 3.44516,-5.62766 4.5794,-8.48313c0,0 0.46145,-1.1617 1.62315,-0.70025c1.16171,0.46145 0.70026,1.62316 0.70026,1.62316c-1.26576,3.18658 -3.27142,6.83547 -5.37733,9.54085l-1.54451,0.67216c0,0 -1.15947,0.46703 -1.6265,-0.69245c-0.46703,-1.15948 0.69244,-1.6265 0.69244,-1.6265z" fill="#00788d"/></g></g></g></svg>