<svg version="1.1" xmlns="http://www.w3.org/2000/svg" xmlns:xlink="http://www.w3.org/1999/xlink" width="254.70386" height="414.46017" viewBox="0,0,254.70386,414.46017"><defs><linearGradient x1="151.11901" y1="313.07196" x2="242.68458" y2="313.42284" gradientUnits="userSpaceOnUse" id="color-1"><stop offset="0" stop-color="#be0405"/><stop offset="1" stop-color="#910100"/></linearGradient><linearGradient x1="237.6688" y1="311.75049" x2="329.23443" y2="312.10137" gradientUnits="userSpaceOnUse" id="color-2"><stop offset="0" stop-color="#910003"/><stop offset="1" stop-color="#c20406"/></linearGradient><radialGradient cx="242.53986" cy="151.65678" r="178.36723" gradientUnits="userSpaceOnUse" id="color-3"><stop offset="0" stop-color="#bc0603"/><stop offset="1" stop-color="#cc0905"/></radialGradient><linearGradient x1="242.2047" y1="386.7303" x2="242.68791" y2="260.62797" gradientUnits="userSpaceOnUse" id="color-4"><stop offset="0" stop-color="#c00405"/><stop offset="1" stop-color="#a30303"/></linearGradient><radialGradient cx="331.54119" cy="274.793" r="45.12071" gradientUnits="userSpaceOnUse" id="color-5"><stop offset="0" stop-color="#d81718"/><stop offset="1" stop-color="#c20406"/></radialGradient><linearGradient x1="331.47197" y1="264.32294" x2="331.60434" y2="229.78158" gradientUnits="userSpaceOnUse" id="color-6"><stop offset="0" stop-color="#ffffff"/><stop offset="1" stop-color="#d7d7d9"/></linearGradient><radialGradient cx="148.31616" cy="275.11184" r="45.12083" gradientUnits="userSpaceOnUse" id="color-7"><stop offset="0" stop-color="#d81718"/><stop offset="1" stop-color="#c20406"/></radialGradient><linearGradient x1="148.46555" y1="264.64258" x2="148.59791" y2="230.10119" gradientUnits="userSpaceOnUse" id="color-8"><stop offset="0" stop-color="#ffffff"/><stop offset="1" stop-color="#d7d7d9"/></linearGradient></defs><g transform="translate(-112.64807,27.2301)"><g data-paper-data="{&quot;isPaintingLayer&quot;:true}" fill-rule="nonzero" stroke-linejoin="miter" stroke-miterlimit="10" stroke-dasharray="" stroke-dashoffset="0" style="mix-blend-mode: normal"><path d="M316.43321,288.76998l-144.86351,-0.55511l0.08062,-21.04148l144.86351,0.55511z" fill="#cc0000" stroke="#8c0000" stroke-width="1" stroke-linecap="butt"/><path d="M242.61763,330.89483c0,0 -62.20074,21.26001 -88.38467,13.07323c-17.57402,-5.49466 42.61955,-63.42375 42.61955,-63.42375z" data-paper-data="{&quot;index&quot;:null}" fill="url(#color-1)" stroke="#8c0000" stroke-width="1" stroke-linecap="round"/><path d="M283.75146,279.22422c0,0 59.74785,58.38837 42.13224,63.74818c-26.24591,7.98622 -88.28189,-13.74986 -88.28189,-13.74986z" data-paper-data="{&quot;index&quot;:null}" fill="url(#color-2)" stroke="#8c0000" stroke-width="1" stroke-linecap="round"/><path d="M135.29797,123.32954c3.31319,-105.5211 56.65097,-150.97426 103.73227,-150.04571c40.45251,0.79785 112.66008,48.43587 111.01205,147.75049c-0.91624,90.95861 -109.57205,208.98301 -109.57205,208.98301c0,0 -108.29751,-107.15932 -105.17227,-206.68813z" fill="url(#color-3)" stroke="#8c0000" stroke-width="1" stroke-linecap="butt"/><path d="M304.5823,12.63599c0,0 -29.84424,22.85728 -67.82403,22.71174c-37.97942,-0.14553 -65.30531,-19.68769 -65.30531,-19.68769" fill="none" stroke="#9d0301" stroke-width="3" stroke-linecap="round"/><path d="M236.58751,-26.57939c29.895,0.11455 55.15032,17.78994 55.11866,26.05235c-0.03166,8.26239 -25.39884,19.75955 -55.29377,19.645c-29.895,-0.11455 -57.89953,-10.18406 -57.86786,-18.44654c0.03166,-8.26239 28.14801,-27.36541 58.04297,-27.25085z" fill="#910200" stroke="none" stroke-width="0" stroke-linecap="butt"/><path d="M159.53676,223.11066c0,0 51.06277,6.81745 77.76787,6.99617c25.97439,0.17386 80.33138,-5.93807 80.33138,-5.93807l-14.74624,14.41686c0,0 -42.59485,5.89932 -64.04936,5.74212c-21.68217,-0.15886 -65.36777,-6.69035 -65.36777,-6.69035z" fill="#980000" stroke="none" stroke-width="0" stroke-linecap="round"/><path d="M152.42222,196.59503c0,0 57.41292,4.53993 86.80208,4.57252c29.73898,0.03289 90.59461,-4.37609 90.59461,-4.37609l-7.74036,16.40487c0,0 -56.06683,3.63308 -83.33295,3.6911c-26.81296,0.057 -78.92712,-3.34618 -78.92712,-3.34618z" fill="#980000" stroke="none" stroke-width="0" stroke-linecap="round"/><path d="M238.87262,-25.77305l-1.36572,356.40308" fill="none" stroke="#870301" stroke-width="0.5" stroke-linecap="round"/><path d="M194.40635,143.69702c32.47348,-340.26912 97.03709,-75.99599 96.95246,-2.89066c-0.08426,73.10499 -50.99587,181.67877 -50.99587,181.67877c0,0 -52.06301,-114.8039 -45.95659,-178.78811z" fill="none" stroke="#870301" stroke-width="0.5" stroke-linecap="round"/><path d="M202.49917,291.43255c0,0 -41.97409,-97.23359 -42.51069,-157.45357c-0.53659,-60.21963 39.76999,-150.14707 39.76999,-150.14707" fill="none" stroke="#870301" stroke-width="0.5" stroke-linecap="round"/><path d="M278.93596,-11.67008c0,0 39.61653,90.23373 38.61847,150.44745c-0.9981,60.21406 -38.97047,145.95597 -38.97047,145.95597" data-paper-data="{&quot;index&quot;:null}" fill="none" stroke="#870301" stroke-width="0.5" stroke-linecap="round"/><path d="M249.66766,261.64801c5.26168,25.89553 16.98565,125.01435 -7.45777,125.08206c-25.25638,0.07014 -9.47207,-103.21255 -4.73234,-125.26992c0.58862,-2.7391 11.34498,-3.97134 12.19012,0.18786z" data-paper-data="{&quot;index&quot;:null}" fill="url(#color-4)" stroke="#8c0000" stroke-width="1" stroke-linecap="butt"/><path d="M200.19311,44.08647l-19.40009,43.68012c0,0 -23.73343,-9.76176 -15.61613,-29.21103c9.34384,-22.388 35.01619,-14.4691 35.01619,-14.4691z" fill="#800402" stroke="none" stroke-width="0" stroke-linecap="round"/><path d="M198.13624,48.40074l-14.61734,35.37289c0,0 -17.86873,-7.89905 -11.75228,-23.64923c7.04042,-18.12996 26.36962,-11.72368 26.36962,-11.72368z" fill="#ffffff" stroke="#a50000" stroke-width="0.5" stroke-linecap="round"/><path d="M319.12606,54.17246c7.96993,19.01671 -15.83671,28.35098 -15.83671,28.35098l-19.06901,-42.71757c0,0 25.73152,-7.52354 34.90569,14.3666z" fill="#800402" stroke="none" stroke-width="0" stroke-linecap="round"/><path d="M312.52754,54.95103c5.99522,15.7966 -11.93319,23.55848 -11.93319,23.55848l-14.34582,-35.48352c0,0 19.37739,-6.25797 26.27901,11.92507z" fill="#ffffff" stroke="#a50000" stroke-width="0.5" stroke-linecap="round"/><path d="M332.24016,229.67461c29.59946,0.11342 40.48153,6.83655 31.6137,50.8695c-8.88356,44.11042 -16.37987,36.56124 -32.82944,39.02286c-11.3024,0.92333 -28.49497,2.76433 -33.39326,-41.20989c-5.11551,-45.92515 5.00991,-48.7959 34.60903,-48.68249z" fill="url(#color-5)" stroke="#8c0000" stroke-width="1" stroke-linecap="butt"/><path d="M332.13066,229.78359c23.42787,0.08977 35.13005,4.32053 34.59405,27.9151c-0.67298,0.2588 -1.34289,0.5183 -2.00933,0.77919c-12.70827,4.99172 -26.64096,5.81439 -40.10174,5.76282c-9.16412,-0.03512 -19.10885,0.36102 -28.29375,-1.22635c-1.03867,-31.15264 9.9581,-33.32989 35.81076,-33.23082z" fill="url(#color-6)" stroke="#8c0000" stroke-width="1" stroke-linecap="butt"/><path d="M355.39758,307.68372c0,0 -16.34397,3.28358 -24.68926,3.2516c-7.78826,-0.02984 -23.82702,-3.43752 -23.82702,-3.43752" fill="none" stroke="#8c0000" stroke-width="1" stroke-linecap="round"/><path d="M358.78057,298.07686c0,0 -18.29848,4.53089 -27.62175,4.49515c-8.76619,-0.03359 -26.75019,-4.70351 -26.75019,-4.70351" fill="none" stroke="#8c0000" stroke-width="1" stroke-linecap="round"/><path d="M331.29249,233.18007c11.26892,0.04318 20.39753,1.81905 20.3893,3.96644c-0.00823,2.14746 -9.15018,3.85325 -20.4191,3.81008c-11.26892,-0.04318 -20.39753,-1.81905 -20.3893,-3.96645c0.00823,-2.14746 9.15018,-3.85325 20.4191,-3.81007z" fill="#250000" stroke="none" stroke-width="0" stroke-linecap="butt"/><path d="M182.19786,278.93558c-5.23517,43.93573 -22.41311,41.96269 -33.70811,40.95311c-16.43022,-2.58795 -23.98416,4.90355 -32.52941,-39.27367c-8.53008,-44.09963 2.40316,-50.73915 32.00228,-50.62574c29.59946,0.11342 39.7026,3.06166 34.23524,48.94629z" fill="url(#color-7)" stroke="#8c0000" stroke-width="1" stroke-linecap="butt"/><path d="M183.62665,263.60374c-9.19679,1.51659 -19.13823,1.04426 -28.30231,1.00914c-13.46078,-0.05158 -27.38673,-0.98104 -40.05674,-6.06997c-0.66411,-0.26599 -1.33197,-0.53062 -2.00295,-0.79457c-0.35515,-23.59833 11.37911,-27.73894 34.80697,-27.64917c25.85267,0.09906 36.83245,2.36052 35.55504,33.50429z" fill="url(#color-8)" stroke="#8c0000" stroke-width="1" stroke-linecap="butt"/><path d="M172.72464,308.00491c0,0 -16.06441,3.28431 -23.85297,3.25446c-8.34498,-0.03198 -24.66331,-3.44037 -24.66331,-3.44037" fill="none" stroke="#8c0000" stroke-width="1" stroke-linecap="round"/><path d="M175.27107,298.39454c0,0 -18.01926,4.53196 -26.78545,4.49837c-9.32325,-0.03572 -27.58648,-4.70671 -27.58648,-4.70671" fill="none" stroke="#8c0000" stroke-width="1" stroke-linecap="round"/><path d="M169.27304,237.46841c-0.00823,2.14739 -9.15018,3.85328 -20.4191,3.8101c-11.26892,-0.04318 -20.39753,-1.81905 -20.3893,-3.96647c0.00823,-2.14739 9.15018,-3.85328 20.4191,-3.81011c11.26892,0.04318 20.39753,1.81905 20.3893,3.96648z" fill="#250000" stroke="none" stroke-width="0" stroke-linecap="butt"/><path d="M235.70546,138.98128c-13.07951,-0.00156 -27.70587,7.01886 -33.65124,15.24515c-8.34718,11.54958 -5.13479,25.45489 -5.13479,25.45489c0,0 -9.15302,-16.34536 -3.15136,-33.87749c4.96198,-14.49503 19.27107,-25.86333 41.01471,-26.46633c21.74364,-0.60294 36.7576,6.61454 45.80602,25.25455c9.04833,18.63998 0.48885,38.99982 0.48885,38.99982c0,0 2.08436,-12.15602 -5.27248,-23.78748c-6.90246,-10.91302 -22.66327,-21.36632 -40.09974,-20.82308z" fill="#ffffff" stroke="none" stroke-width="0" stroke-linecap="round"/><path d="M285.06288,121.99672c-13.17652,-13.50596 -25.97892,-19.97484 -49.79403,-19.9102c-23.81514,0.06464 -36.32577,8.90155 -48.88727,22.42834c-16.84902,18.14376 -7.97856,34.65611 -7.97856,34.65611c0,0 -11.69085,-31.30803 -5.18209,-44.4112c9.96099,-18.80707 24.24039,-34.51815 60.4718,-35.29498c36.23141,-0.77681 48.20494,6.03613 63.30623,30.91693c9.41057,17.9985 1.55944,55.61415 1.55944,55.61415c0,0 5.26451,-24.77004 -13.49552,-43.99911z" fill="#ffffff" stroke="none" stroke-width="0" stroke-linecap="round"/></g></g></svg>