<svg version="1.1" xmlns="http://www.w3.org/2000/svg" xmlns:xlink="http://www.w3.org/1999/xlink" width="123.35081" height="145.3343" viewBox="0,0,123.35081,145.3343"><defs><linearGradient x1="291.27853" y1="137.73857" x2="291.27853" y2="155.17729" gradientUnits="userSpaceOnUse" id="color-1"><stop offset="0" stop-color="#db642b"/><stop offset="1" stop-color="#db312c"/></linearGradient><linearGradient x1="291.25019" y1="125.1465" x2="291.25019" y2="146.67219" gradientUnits="userSpaceOnUse" id="color-2"><stop offset="0" stop-color="#db642b"/><stop offset="1" stop-color="#db312c"/></linearGradient><linearGradient x1="219.16044" y1="115.74621" x2="219.16044" y2="157.00674" gradientUnits="userSpaceOnUse" id="color-3"><stop offset="0" stop-color="#dc712b"/><stop offset="1" stop-color="#db2c2c"/></linearGradient><linearGradient x1="273.59607" y1="117.34216" x2="273.59607" y2="157.40178" gradientUnits="userSpaceOnUse" id="color-4"><stop offset="0" stop-color="#dc712b"/><stop offset="1" stop-color="#db2c2c"/></linearGradient></defs><g transform="translate(-177.59181,-107.33286)"><g data-paper-data="{&quot;isPaintingLayer&quot;:true}" fill-rule="nonzero" stroke-linecap="butt" stroke-linejoin="miter" stroke-miterlimit="10" stroke-dasharray="" stroke-dashoffset="0" style="mix-blend-mode: normal"><path d="M296.50172,141.27631c0.97308,0.97308 0,1.94615 0,1.94615l-0.00978,-0.00978c-0.27523,0.36697 -0.55045,0.73393 -0.82568,1.10091c0,0 -0.82568,1.10091 -1.92659,0.27523c-1.10091,-0.82568 -0.27523,-1.92659 -0.27523,-1.92659c0.27523,-0.36697 0.55045,-0.73393 0.82568,-1.10091l0.26544,-0.28501c0,0 0.97308,-0.97308 1.94615,0z" fill="#b9431e" stroke="none" stroke-width="0.5"/><path d="M289.89419,153.97471c0.03859,0.08469 0.06227,0.18866 0.06227,0.31633c0,0.68807 -0.68807,0.68806 -0.68807,0.68806h-0.36697c-0.0279,0 -0.05589,0.00012 -0.08394,0.00033c-0.0927,0.08091 -0.49309,0.38596 -0.90499,0.0266c-0.868,0.03158 -1.76002,0.04643 -2.55252,-0.25314c-2.07734,-0.78526 -2.31247,-2.90259 -1.49787,-4.76183c1.29118,-2.94697 3.81011,-6.00293 6.42336,-7.96287c1.15334,-1.15882 2.17503,-2.78028 3.53472,-3.70809c0.53931,-0.368 1.71066,-0.9274 2.35674,-0.29532c0.64038,0.62651 -0.26517,3.32006 -0.58478,4.05258c-0.06271,0.14372 -0.14631,0.27654 -0.23366,0.40746c0.76065,-0.59242 1.265,-0.98543 1.89683,-1.30414l-0.08409,-0.14014l0.90773,-0.54464c0.10552,-0.06583 0.23017,-0.10387 0.36371,-0.10387c0.38001,0 0.68807,0.30806 0.68807,0.68807c0,0.11557 -0.02849,0.22447 -0.07883,0.32009l-0.36078,0.72156l-0.02015,-0.01008l-0.00998,0.0641c-1.4136,1.8848 -1.87117,4.25374 -3.11925,6.23849c-1.37747,2.1905 -3.67714,3.82007 -5.64755,5.56043z" fill="url(#color-1)" stroke="none" stroke-width="0.5"/><path d="M290.24789,152.90503c2.94671,-2.41475 4.70753,-6.96534 6.26504,-10.04531c0.38893,-1.55573 2.11467,-3.1933 0.21444,-1.29308l-0.55046,0.55045c-0.12451,0.12451 -0.29653,0.20153 -0.48653,0.20153c-0.38001,0 -0.68807,-0.30806 -0.68807,-0.68807v-0.91742h0.16607c-0.02056,-0.48435 0.01913,-0.93256 0.01741,-1.65137c-0.00045,-0.18895 -0.08448,-0.53473 0.01531,-0.77615c-0.20362,0.15964 -0.47849,0.35896 -0.62459,0.44874c-0.99261,0.60994 -1.59831,1.38101 -2.47198,2.13161c-0.99672,0.85633 -2.43206,1.55164 -3.19536,2.63479c-0.67929,0.96393 -1.24281,1.97912 -2.08999,2.83649c-1.34621,1.31088 -2.34771,3.36674 -2.55409,5.2693c-0.04302,0.39659 -0.30958,1.43269 -0.08597,1.79501c0.49199,0.79716 1.86752,0.9162 2.64874,0.61111c0.74034,-0.28913 1.48893,-0.56097 2.20182,-0.91742l0.80578,-0.20569c0,0 0.20257,-0.05064 0.41243,0.01546zM287.02547,155.39114c-1.7509,0.4694 -4.22324,-0.28498 -4.31667,-2.3845c-0.11903,-2.6746 1.32036,-5.78883 3.13729,-7.64246c0.80313,-0.79129 1.3018,-1.77572 1.94669,-2.66805c0.85981,-1.18974 2.31002,-1.92918 3.4101,-2.86976c1.10128,-0.94161 2.21848,-2.62026 3.75337,-2.89557c0.46432,-0.08329 1.04827,-0.13307 1.40415,0.17657c0.41406,0.36026 0.41762,1.62829 0.20165,2.6257c0.68702,-0.68134 1.48477,-1.15244 2.32224,0.14211c0.45834,0.7085 -0.89267,2.70989 -1.0807,3.46199c-2.19076,4.42627 -4.74951,11.0378 -10.01968,12.35533c0,0 -0.52236,0.13059 -0.75843,-0.30136z" fill="#561f0e" stroke="none" stroke-width="0.5"/><path d="M297.69748,129.51334c1.20113,1.20113 0,2.40226 0,2.40226l-0.01207,-0.01207c-0.33973,0.45298 -0.67946,0.90594 -1.01919,1.35892c0,0 -1.01919,1.35892 -2.37811,0.33973c-1.35892,-1.01919 -0.33973,-2.37811 -0.33973,-2.37811c0.33973,-0.45298 0.67946,-0.90594 1.01919,-1.35892l0.32766,-0.3518c0,0 1.20113,-1.20113 2.40225,0z" fill="#b9431e" stroke="none" stroke-width="0.5"/><path d="M289.5414,145.18776c0.04763,0.10453 0.07687,0.23288 0.07687,0.39047c0,0.84933 -0.84933,0.84933 -0.84933,0.84933h-0.45298c-0.03444,0 -0.06899,0.00013 -0.10362,0.0004c-0.11443,0.09987 -0.60865,0.47641 -1.11708,0.03283c-1.07143,0.03898 -2.1725,0.05731 -3.15073,-0.31247c-2.56419,-0.9693 -2.85443,-3.58285 -1.84892,-5.87782c1.59378,-3.63763 4.70306,-7.40979 7.92875,-9.82906c1.42363,-1.43041 2.68477,-3.43187 4.36312,-4.57712c0.6657,-0.45425 2.11157,-1.14475 2.90906,-0.36453c0.79046,0.77334 -0.32731,4.09816 -0.72183,5.00235c-0.07741,0.17741 -0.1806,0.34135 -0.28842,0.50296c0.93892,-0.73125 1.56147,-1.21638 2.34138,-1.60978l-0.10379,-0.17298l1.12046,-0.67228c0.13024,-0.08126 0.28411,-0.12822 0.44895,-0.12822c0.46907,0 0.84933,0.38025 0.84933,0.84933c0,0.14265 -0.03517,0.27709 -0.0973,0.39512l-0.44533,0.89066l-0.02486,-0.01243l-0.01232,0.07912c-1.74489,2.32652 -2.3097,5.25067 -3.85028,7.70056c-1.7003,2.70387 -4.53891,4.71534 -6.97112,6.86357z" fill="url(#color-2)" stroke="none" stroke-width="0.5"/><path d="M289.978,143.86739c3.6373,-2.98067 5.8108,-8.59775 7.73332,-12.39955c0.48009,-1.92033 2.61026,-3.94169 0.2647,-1.59612l-0.67946,0.67946c-0.15369,0.15369 -0.36602,0.24876 -0.60056,0.24876c-0.46907,0 -0.84933,-0.38025 -0.84933,-0.84933v-1.13243h0.20499c-0.02538,-0.59786 0.02361,-1.15112 0.02149,-2.03838c-0.00056,-0.23322 -0.10428,-0.66005 0.0189,-0.95805c-0.25134,0.19706 -0.59064,0.44309 -0.77098,0.5539c-1.22524,0.75289 -1.9729,1.70466 -3.05131,2.63118c-1.23031,1.05702 -3.00204,1.91529 -3.94424,3.25228c-0.83849,1.18984 -1.53408,2.44296 -2.5798,3.50126c-1.6617,1.6181 -2.89792,4.15578 -3.15267,6.50422c-0.05311,0.48953 -0.38213,1.76846 -0.10611,2.21569c0.60729,0.98399 2.3052,1.13092 3.2695,0.75432c0.91385,-0.35689 1.83787,-0.69245 2.71784,-1.13243l0.99462,-0.25389c0,0 0.25005,-0.06251 0.50909,0.01909zM286.00037,146.93616c-2.16124,0.5794 -5.213,-0.35178 -5.32833,-2.94334c-0.14693,-3.30142 1.6298,-7.1455 3.87255,-9.43355c0.99134,-0.97673 1.60689,-2.19188 2.40291,-3.29334c1.06132,-1.46857 2.8514,-2.38131 4.20929,-3.54232c1.35938,-1.16229 2.73841,-3.23435 4.63302,-3.57418c0.57315,-0.10281 1.29393,-0.16427 1.73322,0.21794c0.5111,0.44469 0.5155,2.0099 0.24892,3.24108c0.84803,-0.84102 1.83274,-1.42253 2.86647,0.17541c0.56576,0.87454 -1.10188,3.34499 -1.33397,4.27335c-2.70419,5.46362 -5.86262,13.62463 -12.3679,15.25094c0,0 -0.64479,0.16119 -0.93618,-0.37199z" fill="#561f0e" stroke="none" stroke-width="0.5"/><path d="M291.80883,192.47671c1.20113,1.20113 0,2.40226 0,2.40226l-0.01207,-0.01207c-0.33973,0.45298 -0.67946,0.90594 -1.01919,1.35892c0,0 -1.01919,1.35892 -2.37811,0.33973c-1.35892,-1.01919 -0.33973,-2.37811 -0.33973,-2.37811c0.33973,-0.45298 0.67946,-0.90594 1.01919,-1.35892l0.32766,-0.3518c0,0 1.20113,-1.20113 2.40225,0z" fill="#b9431e" stroke="none" stroke-width="0.5"/><path d="M243.03565,195.54234c0,1.69865 -1.69865,1.69865 -1.69865,1.69865l-1.91745,-0.00328c-3.45672,-0.4263 -6.79135,-0.89514 -10.27171,-0.91281c-1.49761,-0.32764 -3.05351,-0.35583 -4.5419,-0.72309c-2.34654,-0.579 -4.11256,-2.20202 -5.75983,-3.84106c-2.75741,-2.74363 -4.97136,-5.11386 -5.47009,-9.16931c-0.32873,-2.67306 -0.59068,-5.42931 -0.3825,-8.12493c-0.06823,-0.08492 -0.13134,-0.17465 -0.18853,-0.26989c-0.48312,-0.80447 -0.01348,-1.88713 0.15,-2.81117c0.53221,-3.00835 2.15827,-5.14611 4.4194,-7.04433l1.35035,-1.1253c0.29582,-0.25008 0.67831,-0.40085 1.09602,-0.40085c0.93814,0 1.69865,0.76051 1.69865,1.69865c0,0.43136 -0.16079,0.82517 -0.4257,1.12477l-0.36648,0.41883c1.30212,-0.73565 2.74145,-1.2238 4.36543,-1.6114c3.13011,-0.74708 7.24691,-1.64196 10.42883,-0.64137c3.38249,1.06366 6.29819,3.94006 8.75326,6.67524c3.68935,-3.50937 9.19438,-4.5503 14.14365,-5.58816c1.85977,-0.38999 3.80252,-0.73406 5.68236,-0.45646c2.97225,0.43892 5.17689,2.95568 6.56899,5.35093c0,0 0.84277,1.47484 -0.63207,2.31761c-1.47484,0.84277 -2.31762,-0.63208 -2.31762,-0.63208c-3.0964,-5.5388 -9.92583,-3.70883 -14.89134,-1.75279c-2.39085,0.94182 -4.73791,1.69122 -6.44873,3.40556c0.15456,0.4709 0.16407,1.12239 -0.52711,1.72716c-0.37809,0.33084 -0.74222,0.45199 -1.06755,0.45856l-0.22307,0.33775c0,0 -0.94224,1.41337 -2.35561,0.47113c-1.41336,-0.94224 -0.47113,-2.35561 -0.47113,-2.35561l0.38521,-0.57067c-1.48385,-1.62149 -2.94377,-3.02064 -4.8988,-4.32264c-0.23435,-0.15607 -2.25134,-1.68018 -2.75268,-1.83528c-1.50166,-0.46459 -3.42921,-0.10533 -4.93692,0.07181c-2.65098,0.31146 -6.06488,0.72168 -8.25303,2.39992c-1.5465,1.18612 -1.87587,2.99449 -2.90373,4.41239c-0.57124,0.788 -1.32662,1.42074 -2.03274,2.09501c0.06902,1.48183 0.32106,2.94373 0.41705,4.47481c0.10958,1.74788 0.07691,3.35279 0.93624,4.96902c1.23528,2.32335 4.26384,5.08461 6.53545,6.31447c1.59685,0.86455 3.52962,0.77864 5.28698,1.17574c3.42416,-0.02135 6.71642,0.46838 10.11211,0.89909l1.70634,-0.00328c0,0 1.69865,0 1.69865,1.69865z" fill="#c3540b" stroke="none" stroke-width="0.5"/><path d="M215.87788,190.72494c-0.30714,-0.39101 -0.05859,-0.88812 -0.05859,-0.88812l0.22649,-0.45297c0.77031,-1.51961 1.02815,-2.35268 2.46805,-3.43261c1.84155,-1.82611 4.44536,-2.89139 6.82993,-3.77874c2.35836,-0.87759 4.08044,-2.61197 6.2202,-3.79412c2.92412,-1.61548 6.53265,-2.05757 9.27359,-3.93482c2.09058,0.26158 4.08686,0.26612 6.11724,0.92016c3.6592,1.17872 6.95709,3.08445 10.67614,4.14323c5.10299,1.45278 10.3045,1.73972 14.18818,5.6415c2.47397,3.69776 4.48751,7.38642 3.57397,12.02608c-0.35834,1.81995 -1.70313,2.31353 -2.99484,3.42269c-2.13934,1.83699 -4.48948,3.89588 -7.5778,3.12121c-0.80646,-0.2023 -1.44759,-0.81992 -2.1915,-1.19128c-1.45873,-0.7372 -2.91898,-1.85546 -3.9134,-3.1813c-0.55936,-0.74578 -0.46101,-2.33447 -1.38857,-2.42765c-1.70143,-0.17091 -4.07947,0.26568 -5.86903,0.26293c-3.43357,-0.00528 -7.17313,-0.35324 -10.57151,-0.91986c-2.21731,-0.44325 -5.67561,-2.06112 -7.86816,-0.97151c-2.75952,1.37138 -2.78591,5.14787 -3.71921,7.66572c-0.39624,1.06898 -0.58066,2.22383 -1.75019,2.76751c-1.03601,0.48161 -3.29158,0.07815 -4.36164,-0.18253c-2.41111,-0.49422 -4.73941,-1.52381 -7.09289,-2.28435c-1.33373,-0.431 -2.39351,-0.41212 -3.22522,-1.80016c-0.52077,-0.86912 0.17257,-2.63382 0.39451,-3.51824c0.62737,-2.50014 1.77999,-4.80329 2.61426,-7.21277z" fill="#514542" stroke="#151211" stroke-width="1.5"/><path d="M228.70321,218.5801c-0.5051,0.25431 -0.94749,-0.18809 -0.94749,-0.18809l-0.67946,-0.67946c-2.5855,-2.72326 -1.52801,-9.32362 0.0237,-12.42703c0.51532,-2.57663 2.17141,-6.64883 4.05307,-8.47845c1.39255,-1.35404 3.49829,-1.2149 5.19617,-1.59236c2.93265,-0.65197 5.46534,-0.92127 8.54063,-0.92127c3.25684,0.01381 6.43798,0.6026 9.63161,1.27688c1.64878,0.34812 3.3077,0.66851 4.55818,1.91622c1.1324,1.1299 1.40872,2.52475 1.80527,4.00467c1.11656,4.16702 0.67891,8.64949 0.22193,12.91254c-1.99867,4.07244 -6.61346,7.34832 -11.33803,6.72204c-1.74734,-0.23162 -3.34031,-1.62944 -4.70907,-2.65486c-0.97692,-0.73187 -2.72239,-1.97 -3.32569,-3.21644c0.2818,2.47074 -3.21315,5.57729 -5.1821,6.28705c-2.46122,0.88721 -5.60334,-0.84227 -7.84869,-2.96142z" fill="#251e1f" stroke="none" stroke-width="0.5"/><path d="M212.03205,167.92628c-0.4246,-0.42973 -0.4246,-1.01034 -0.4246,-1.01034l0.24207,-1.78722c1.05316,-1.48997 1.22311,-2.88955 1.99986,-4.48451c0.74128,-1.52215 2.07835,-2.84667 3.18937,-4.16038c0.79707,-0.9425 1.29391,-2.07273 2.19374,-2.94389c4.39483,-4.25479 12.3859,-5.3076 18.552,-6.1847c1.45134,0 2.89193,-0.26856 4.34326,-0.26359c4.21488,0.01444 8.28329,1.59341 12.22148,2.65431c6.14057,1.65419 12.97063,4.43818 17.29311,8.72187c3.72315,3.68974 5.49837,8.8256 5.50908,13.62026c0,2.35428 0.09789,4.89663 -0.32216,7.21677c-0.32101,1.77316 -1.23994,3.64954 -1.8553,5.3702c-0.5408,1.51217 -0.69892,2.52844 -1.66678,3.94011c-1.94146,2.83172 -4.84047,3.09869 -8.04672,4.2321c-3.45383,1.22093 -6.43917,3.01218 -10.08458,3.92901c-3.25721,0.81921 -7.08782,0.82494 -10.44003,0.82321c-11.98813,-1.15176 -24.05712,-5.07031 -30.76354,-14.12608c-1.49672,-2.02106 -2.78063,-4.32055 -3.47203,-6.63109c-0.33779,-1.12884 -1.31936,-2.26537 -0.97983,-3.39381c0.05859,-0.19472 0.15196,-0.37298 0.2711,-0.53906l-0.04358,-0.02253l0.88466,-1.27004c0.29341,-0.43834 0.843,-0.73338 1.47259,-0.73338c0.76412,0 1.4104,0.4346 1.62387,1.03249l0.54383,1.40531c0.90216,1.30072 1.36852,2.90055 2.47368,4.07288c2.02775,2.151 4.72909,3.71232 7.5135,5.01682c1.84819,0.86588 3.99252,-0.13917 6.1127,0.44852c2.1504,0.59606 3.25491,2.29942 4.56174,3.72076c2.6869,1.9731 4.95822,1.55342 8.28859,1.37413c2.29906,-0.12377 5.57522,0.31911 7.7001,-0.60076c0.8108,-0.351 0.96868,-1.3225 1.42121,-2.00002c0.93593,-1.40126 1.83819,-2.02431 3.48437,-2.69895c2.80499,-1.14953 6.20227,-1.53026 8.90479,-2.80065c1.50894,-0.70931 2.99405,-2.09525 4.32523,-3.0284c3.19527,-4.66584 -0.08043,-8.68496 -4.93132,-10.95455c-0.23713,-0.11095 -2.50947,-1.33567 -2.87534,-1.41023c-0.93617,-0.19079 -2.49937,0.2367 -3.37256,0.29276c-3.89091,0.24981 -6.55443,1.92867 -9.66436,3.87243c-1.47409,0.92133 -2.62495,1.19215 -3.75595,2.44036c-0.28827,0.46679 1.32759,5.25506 0.95778,5.77906c-0.66047,0.93586 -3.48876,-2.50553 -5.16308,-2.81265c-1.11173,-0.20392 -1.56296,-1.4258 -2.26362,-2.19675c-1.20818,-1.32938 -1.92903,-2.65209 -3.51292,-3.76687c-3.40101,-2.39371 -6.9687,-2.81428 -11.12377,-2.53978c-1.9522,0.12897 -4.63144,-0.01614 -6.42813,0.80768c-1.08876,0.49922 -1.25244,1.83276 -1.79987,2.78481c0,0 -0.75965,1.30871 -2.27898,0.65435c-1.24922,-0.53802 -0.95774,-1.51844 -0.81461,-1.85001z" fill="#c3540b" stroke="none" stroke-width="0.5"/><path d="M244.40062,175.51314c1.39778,-2.37004 3.33362,-3.70373 5.8124,-5.52754c1.80779,-1.3301 4.00705,-2.94571 6.27699,-3.33167c2.53993,-0.43186 4.55113,0.31152 6.82747,1.20443c5.32392,2.08838 10.20166,6.00853 9.83022,12.15834c-0.55503,2.78913 -2.11595,5.1638 -3.8083,7.46322c-0.52451,0.71267 -0.90295,1.58127 -1.61462,2.10714c-3.01712,2.22942 -8.30972,2.66017 -11.84958,3.78617c-1.094,0.34799 -2.36885,0.46598 -3.21044,1.2468c-0.96312,0.89357 -1.66594,2.18678 -2.8786,2.69224c-3.91457,1.63165 -11.1982,-0.27677 -14.54861,-2.43512c-1.43315,-1.14477 -2.78594,-2.40972 -4.47768,-3.16995c-3.29301,-1.47981 -7.03109,-1.80677 -10.12018,-3.79747c-4.73273,-3.04992 -7.64411,-10.94033 -4.47965,-16.03554c0.42978,-0.692 2.08854,-2.00694 2.6692,-2.71452c1.44346,-1.75901 2.74552,-2.98088 4.67674,-4.25676c1.65494,-0.63866 2.73417,-1.22937 4.51373,-1.30322c4.99396,-0.20723 9.89325,3.15145 12.77141,7.05805c1.27507,1.73068 2.13312,3.3217 3.60952,4.8554z" fill="#ffa325" stroke="none" stroke-width="0.5"/><path d="M294.34082,164.03796c0.43281,0.75018 0.27122,1.7129 0.47846,2.55383c0.97122,3.94104 0.76675,6.55228 -1.04667,10.18042c-1.19873,2.39833 -1.94395,4.64867 -4.00497,6.51126c-2.23411,2.01904 -4.58696,1.8223 -7.17277,2.72315l-1.13762,0.08716c0,0 -1.13429,0 -1.54906,-0.9269c-0.94519,0.33739 -1.88331,0.41816 -2.72095,0.02396c-0.9536,-0.44877 -0.52181,-2.04332 -0.72684,-3.07711c-0.55852,-2.81617 -0.15232,-5.60867 -0.29763,-8.37418c-0.10099,-1.92216 -1.63406,-2.88089 -2.81182,-4.05525c-0.52283,-0.52131 -0.86015,-1.21405 -1.40497,-1.71234c-3.76174,-3.44042 -10.51489,-2.86842 -14.99545,-1.74378c-4.51107,1.12748 -9.02265,2.78558 -13.72745,2.44924c-3.7315,-0.26675 -7.21954,-1.2458 -10.81181,-2.14839c-3.94278,-0.99066 -8.37589,-0.83686 -12.36012,-0.55615c-1.96312,0.13831 -3.48021,-0.21094 -5.33285,0.39972c-2.23877,1.75298 -3.87606,6.47826 -3.3382,9.34412c0.49313,2.62754 2.36387,4.28458 -1.35149,6.05456c-0.94056,0.44808 -2.09173,-0.04293 -3.11731,-0.22633c-2.51524,-0.4498 -4.3142,-2.00231 -5.97927,-3.82282c-3.09944,-3.38877 -3.73542,-7.47162 -3.73542,-11.94099c0,-1.36016 -0.10835,-3.62131 0.43987,-4.87764c0.35599,-0.8158 1.09474,-1.40378 1.64209,-2.10567c1.04748,-0.63914 1.7013,-1.13536 2.61219,-1.48398c-0.48635,-4.10108 0.15945,-8.59791 2.09232,-12.27779c1.79941,-5.06009 5.93175,-8.81737 8.24896,-13.54814c-0.09746,-0.82233 -0.31921,-1.64777 -0.3186,-2.47439c0.176,-0.84028 0.10605,-1.77318 0.528,-2.52085c0.38403,-0.68048 1.21867,-0.98391 1.7651,-1.54241c1.48928,-1.52224 2.68043,-3.28089 4.20315,-4.80361c1.86596,-1.86596 4.07281,-4.04695 6.21242,-5.58095c2.53759,-1.81933 5.98969,-2.41688 8.92461,-3.25515c3.17918,-0.90804 6.57493,-2.26749 9.84654,-2.75335c2.02301,-0.30043 3.77466,0.34422 5.79979,-0.01063c1.81733,-0.00541 4.57098,-0.41243 6.29781,0.05584c1.80238,0.48876 2.6923,1.90219 3.98192,3.07334c1.47767,1.34192 3.28137,3.01509 5.042,3.95518c3.69489,1.97288 7.65927,3.08404 10.47552,6.47283c3.27154,3.93664 4.17655,8.86416 6.75512,13.13766c0.99309,1.98473 2.26816,3.77211 3.30702,5.71261c2.18962,4.09001 3.83024,9.11928 4.67087,13.66372c0.38095,2.05941 0.46916,4.17276 0.42633,6.28946c1.73072,0.72823 3.41749,1.78972 4.19119,3.13073z" fill="#3e3d39" stroke="none" stroke-width="0.5"/><path d="M259.43995,164.85171c-2.95713,1.21445 -5.75887,3.09387 -8.86458,3.79432c-4.24459,0.9573 -9.64682,-1.11266 -13.72616,-2.13463c-0.97725,-0.32505 -2.09446,-0.60225 -3.15711,-0.99349c-1.6368,1.31241 -3.49299,0.57292 -5.65019,0.33726c-2.25148,-0.24596 -4.49658,-0.54707 -6.74464,-0.82252c-1.10823,-0.13579 -2.25205,-0.58989 -3.33458,-0.3165c-1.80661,0.45627 -3.14328,3.29547 -3.62691,4.84512c-0.32949,1.05574 -0.23548,2.039 -0.2317,3.12508c0,1.76339 -0.17831,3.5646 0.25014,5.29482c0.56984,2.30122 1.90202,4.48871 2.66495,6.77749l-0.17365,-0.7741c0,0 1.61148,0.53716 1.07432,2.14865c-0.53716,1.61148 -2.14865,1.07432 -2.14865,1.07432l-1.97499,-1.37455c-0.79649,-2.38947 -2.13082,-4.61642 -2.73911,-7.03288c-0.50741,-2.01576 -0.35032,-4.05982 -0.35032,-6.11374c0.0124,-4.15575 1.69896,-9.93063 6.34906,-11.24423c1.12605,-0.31809 3.5394,0.08306 4.65269,0.21821c2.24836,0.27295 4.50072,0.51519 6.74464,0.82252c0.51138,0.07004 1.18053,0.35513 1.78578,0.52848c-0.6205,-1.13794 -0.56708,-2.51376 -0.86811,-3.72588c-0.68939,-2.77593 -0.35032,-4.83305 -0.35032,-7.61487c0,-1.83105 -0.44063,-3.64368 -0.29595,-5.52447c0.27581,-3.58554 1.00877,-7.09955 1.51327,-10.62308c0.42228,-2.94927 0.2001,-5.35538 1.57666,-8.12153c0.92782,-4.73742 2.48974,-9.36766 4.2221,-13.86277c1.19501,-3.10083 2.76804,-5.85675 6.55873,-6.19361c1.36506,-0.12131 2.65591,0.69187 4.00767,0.9174c2.75424,0.45953 6.38987,-0.71269 8.12106,2.35847c0.52248,0.92689 0.24792,2.11673 0.47137,3.15701c0.58705,2.73305 1.89575,5.28715 2.66569,7.96847c2.90254,8.70137 4.75423,18.29034 3.36195,27.4577c-0.10939,0.7203 -0.49032,1.38139 -0.60045,2.10158c-0.31998,2.09248 0.4835,4.50646 0.61427,6.57565c0.0528,0.83533 -0.1984,2.4034 0.00608,3.38816c0.31831,0.14763 0.64563,0.41039 0.80233,0.87811c0.18153,0.0032 0.39868,-0.04669 0.65792,-0.16092c3.04333,0 5.71386,-0.58107 8.65576,0.75007c2.86489,1.29629 6.43915,4.25809 7.73864,7.13819c2.52246,5.59062 0.05579,14.04833 -3.5193,18.58356c0,0 -1.06114,1.32643 -2.38756,0.26529c-1.32642,-1.06114 -0.26528,-2.38756 -0.26528,-2.38756c2.24753,-2.75751 3.54799,-6.80222 3.5307,-10.34743c-0.00795,-1.62999 0.25557,-3.17101 -0.44504,-4.69427c-0.99487,-2.16302 -3.93065,-4.49168 -6.07173,-5.47128c-2.3292,-1.06566 -4.53386,-0.45084 -6.95596,-0.45084c-0.87225,0.05534 -1.85001,0.58557 -2.61672,0.16603c-0.35451,-0.19399 -0.66123,-0.42504 -0.92673,-0.68677z" fill="#595959" stroke="none" stroke-width="0.5"/><path d="M257.24935,115.40657c0.53716,1.61148 -1.07432,2.14864 -1.07432,2.14864l-1.80135,0.60045c-4.76443,1.5746 -10.60078,2.20717 -15.47328,0.60435c-1.23977,-0.40783 -2.37543,-1.09529 -3.61457,-1.50503c0,0 -1.61148,-0.53716 -1.07432,-2.14865c0.53716,-1.61148 2.14864,-1.07432 2.14864,-1.07432c1.2294,0.4127 2.36257,1.08119 3.59084,1.49723c4.13488,1.40056 9.31366,0.76157 13.34836,-0.59655l1.80135,-0.60045c0,0 1.61148,-0.53716 2.14864,1.07432z" fill="#343434" stroke="none" stroke-width="0.5"/><path d="M263.44398,133.65679c1.20112,1.20112 0,2.40225 0,2.40225l-0.62741,0.55568c-2.19092,1.2901 -3.79065,3.20148 -6.16867,4.28982c-8.45795,3.8709 -20.59996,4.85746 -27.73031,-2.14347c0,0 -1.20112,-1.20113 0,-2.40226c1.20112,-1.20112 2.40225,0 2.40225,0c5.94392,6.08649 16.86944,4.63366 23.90847,1.45923c2.2412,-1.01073 3.77334,-2.85793 5.84035,-4.11648l-0.02696,-0.04477c0,0 1.20113,-1.20112 2.40225,0z" fill="#343434" stroke="none" stroke-width="0.5"/><path d="M261.29762,150.19616c0.87395,1.45658 -0.58263,2.33053 -0.58263,2.33053l-1.55767,0.93314c-4.86383,2.4334 -9.84586,4.75788 -15.2687,5.59369c-2.4864,0.38322 -5.61102,0.7899 -8.05207,-0.08464c-1.16736,-0.41822 -2.4509,-1.62509 -3.52465,-2.20203c-1.20463,-0.64726 -2.49348,-1.13724 -3.66758,-1.83836c0,0 -1.45658,-0.87395 -0.58264,-2.33053c0.87395,-1.45658 2.33054,-0.58264 2.33054,-0.58264c1.12838,0.68069 2.37807,1.13862 3.53783,1.76434c1.07758,0.58139 1.93283,1.57395 3.08031,2.00113c1.84075,0.68526 4.4946,0.20156 6.35875,-0.08464c5.02439,-0.77138 9.64675,-2.96264 14.1534,-5.21443l1.44458,-0.86821c0,0 1.45658,-0.87395 2.33053,0.58264z" fill="#343434" stroke="none" stroke-width="0.5"/><path d="M259.3986,121.82972c1.01919,1.35892 -0.33973,2.37811 -0.33973,2.37811l-1.15896,0.86818c-3.97159,3.16504 -9.94219,5.33439 -15.10711,4.55897c-3.43089,-0.51509 -6.57357,-2.06848 -9.74052,-3.42341c0,0 -1.56131,-0.66913 -0.89217,-2.23044c0.66913,-1.56131 2.23044,-0.89218 2.23044,-0.89218c2.88833,1.24012 5.75998,2.68854 8.87346,3.18155c4.22588,0.66915 9.28989,-1.25714 12.51363,-3.84735l1.24285,-0.93317c0,0 1.35892,-1.01919 2.37811,0.33973z" fill="#343434" stroke="none" stroke-width="0.5"/><path d="M217.99767,151.82185c-0.00925,0.13776 -0.02147,0.27382 -0.03715,0.40433c0.04351,-0.01894 0.08497,-0.03238 0.123,-0.03918c-0.03039,-0.12211 -0.05898,-0.24382 -0.08585,-0.36515zM221.22365,116.16361c0.24823,-0.24501 0.59758,-0.4174 1.08921,-0.4174c1.69865,0 1.69865,2.05805 1.69865,2.05805l-0.02311,1.06584c-1.58448,11.5138 -3.24235,23.43437 -2.85026,35.11843c-1.2354,1.09771 -3.86359,4.13505 -5.82301,2.58756c-0.90942,-0.71823 -0.55043,-2.55029 -0.70544,-3.85207c-0.26278,-2.20695 -0.2981,-4.6721 -0.30022,-6.9112c-0.00671,-7.08671 0.30334,-14.59558 2.18484,-21.37004c0.6636,-2.38934 1.93252,-4.75504 2.75611,-7.08546c0,0 0.59534,-1.68306 1.97322,-1.19369z" fill="url(#color-3)" stroke="none" stroke-width="0.5"/><path d="M274.673,152.72233c0.03803,0.0066 0.07949,0.01965 0.123,0.03804c-0.01568,-0.12673 -0.0279,-0.25883 -0.03715,-0.39257c-0.02687,0.1178 -0.05546,0.23597 -0.08585,0.35453zM273.50609,118.90637c0.82359,2.26259 2.09251,4.55943 2.75611,6.87924c1.8815,6.5773 2.19155,13.86762 2.18484,20.74806c-0.00212,2.17394 -0.03744,4.56733 -0.30022,6.71005c-0.155,1.26389 0.20398,3.04262 -0.70544,3.73994c-1.95942,1.50245 -4.58762,-1.44648 -5.82301,-2.51224c0.39209,-11.34398 -1.26578,-22.91761 -2.85026,-34.09629l-0.02311,-1.03481c0,0 0,-1.99816 1.69865,-1.99816c0.49164,0 0.84098,0.16739 1.08921,0.40526c1.37788,-0.47512 1.97322,1.15895 1.97322,1.15895z" data-paper-data="{&quot;index&quot;:null}" fill="url(#color-4)" stroke="none" stroke-width="0.5"/><path d="M207.18009,162.7139l0.97763,0.39195c1.64343,2.84182 2.30098,7.65013 1.39288,10.89063c-0.56221,2.00619 -1.29516,4.38109 -4.32246,3.96928c-2.34907,-0.31955 -2.87045,-2.78216 -3.44097,-4.44203c-0.81494,-2.37099 -2.02661,-6.01267 -0.83325,-8.4506c1.01646,-2.07655 1.96292,-2.39745 3.67236,-3.45058c0,0 1.45658,-0.87395 2.33053,0.58264c0.1071,0.17851 0.17921,0.34826 0.22328,0.50873z" fill="#1c1b19" stroke="none" stroke-width="0.5"/><path d="M284.91377,164.70181c0.87395,-1.45658 2.33053,-0.58264 2.33053,-0.58264c1.70944,1.05313 2.6559,1.37403 3.67237,3.45058c1.19336,2.43793 -0.01831,6.07961 -0.83325,8.4506c-0.57051,1.65987 -1.09189,4.12248 -3.44097,4.44203c-3.02729,0.41182 -3.76026,-1.96308 -4.32246,-3.96928c-0.9081,-3.2405 -0.25055,-8.04881 1.39288,-10.89063l0.97763,-0.39196c0.04407,-0.16047 0.11617,-0.33022 0.22328,-0.50872z" data-paper-data="{&quot;index&quot;:null}" fill="#1c1b19" stroke="none" stroke-width="0.5"/><path d="M251.07819,178.92744l1.01958,-1.53967c1.55553,-1.03299 3.14871,-1.62348 4.77344,-2.48067c3.71698,-1.96104 7.72152,-4.11174 11.59719,-0.91991c1.62033,1.33443 1.75687,2.1192 2.6409,3.94554c0.0257,2.0021 0.25473,2.7199 -0.58531,4.6003c-1.42854,3.19771 -4.85559,4.94923 -7.74132,6.52303c-2.53035,1.37998 -5.27563,2.88967 -8.30416,2.59318c-6.85202,-0.67082 -7.86548,-8.21006 -3.75527,-12.45542c0,0 0.13308,-0.13308 0.35495,-0.26636z" fill="#fbf7f6" stroke="none" stroke-width="0.5"/><path d="M250.089,186.00126c-0.82227,-2.58434 1.71975,-5.20718 4.35231,-3.86572c2.11679,1.07863 2.5573,4.8099 0.40952,6.17181c-1.92175,1.21858 -2.82352,0.12607 -4.23058,-0.77555c0,0 -0.87694,-0.61386 -0.53127,-1.53053z" fill="#3f2012" stroke="none" stroke-width="0.5"/><path d="M250.09181,186.27465c-0.57381,-1.80343 1.20009,-3.63372 3.03717,-2.69762c1.47716,0.7527 1.78456,3.3565 0.28578,4.30687c-1.34105,0.85036 -1.97032,0.08797 -2.95221,-0.5412c0,0 -0.61195,-0.42837 -0.37074,-1.06804z" fill="#633b2b" stroke="none" stroke-width="0.5"/><path d="M236.96349,178.1746c4.11021,4.24537 3.09675,11.7846 -3.75527,12.45542c-3.02853,0.2965 -5.77379,-1.21319 -8.30416,-2.59318c-2.88572,-1.5738 -6.31278,-3.32531 -7.74133,-6.52303c-0.84004,-1.8804 -0.611,-2.59819 -0.58531,-4.6003c0.88402,-1.82634 1.02057,-2.61111 2.64089,-3.94554c3.87568,-3.19183 7.88022,-1.04113 11.5972,0.91991c1.62472,0.85719 3.21791,1.44767 4.77344,2.48067l1.01958,1.53967c0.22187,0.13327 0.35495,0.26636 0.35495,0.26636z" data-paper-data="{&quot;index&quot;:null}" fill="#fbf7f6" stroke="none" stroke-width="0.5"/><path d="M237.72133,172.63009c-0.08478,0.92319 -0.24855,3.68456 -0.77278,4.31885c-0.70167,0.84896 -1.7529,1.53109 -2.84386,1.68227c-0.97532,0.13516 -1.8808,-0.5843 -2.81406,-0.8982c-2.22175,-0.74728 -5.9235,-1.75678 -7.23274,-3.89824c-1.19088,-1.94784 -1.00233,-6.27697 1.41499,-7.37975c1.26101,-0.57527 3.67094,0.42756 4.87748,0.96536c1.67639,0.74725 3.20433,1.7614 4.84517,2.58033l1.27504,0.63752c0,0 0.26072,0.13036 0.51216,0.39109c0.83786,0.50916 0.73861,1.60078 0.73861,1.60078z" data-paper-data="{&quot;index&quot;:null}" fill="#751a00" stroke="none" stroke-width="0.5"/><path d="M250.49316,172.254c0.25144,-0.26072 0.51216,-0.39108 0.51216,-0.39108l1.27503,-0.63752c1.64084,-0.81892 3.16879,-1.83308 4.84518,-2.58033c1.20653,-0.53781 3.61646,-1.54064 4.87747,-0.96536c2.41731,1.10278 2.60587,5.43191 1.41499,7.37975c-1.30925,2.14146 -5.01099,3.15096 -7.23274,3.89824c-0.93327,0.3139 -1.83874,1.03337 -2.81406,0.89821c-1.09097,-0.15118 -2.1422,-0.83331 -2.84386,-1.68227c-0.52424,-0.63428 -0.688,-3.39566 -0.77278,-4.31884c0,0 -0.09924,-1.09162 0.73862,-1.60078z" fill="#751a00" stroke="none" stroke-width="0.5"/><path d="M236.71744,186.34274c-1.40706,0.90162 -2.30881,1.99413 -4.23057,0.77555c-2.14777,-1.3619 -1.70725,-5.09318 0.40953,-6.17181c2.63257,-1.34145 5.17458,1.28138 4.35231,3.86572c0.34567,0.91667 -0.53127,1.53053 -0.53127,1.53053z" data-paper-data="{&quot;index&quot;:null}" fill="#3f2012" stroke="none" stroke-width="0.5"/><path d="M236.93182,186.49337c-0.98189,0.62917 -1.61117,1.39156 -2.95222,0.5412c-1.49878,-0.95038 -1.19137,-3.55417 0.28578,-4.30687c1.83708,-0.9361 3.61098,0.89418 3.03717,2.69762c0.24122,0.63968 -0.37074,1.06804 -0.37074,1.06804z" data-paper-data="{&quot;index&quot;:null}" fill="#633b2b" stroke="none" stroke-width="0.5"/><path d="M244.55001,191.9587c0,0.33973 -0.33973,0.33973 -0.33973,0.33973h-0.33973c-0.56058,0 -0.99496,0.03954 -1.51086,-0.20574c0,0 -0.30386,-0.15193 -0.15193,-0.45579c0.15193,-0.30386 0.4558,-0.15193 0.4558,-0.15193c0.3823,0.20576 0.7754,0.134 1.20699,0.134h0.33973c0,0 0.33973,0 0.33973,0.33973z" fill="#1b0e08" stroke="none" stroke-width="0.5"/><path d="M215.13059,191.34967c0,-0.84933 0.84933,-0.84933 0.84933,-0.84933h0.22648c4.20834,0.22103 2.44216,5.76475 1.22777,8.21835c-1.80323,4.5081 -4.525,8.60129 -6.32424,13.09457c-0.30502,0.76175 -0.33065,1.6317 -0.71998,2.35401c-1.11811,2.0744 -2.75419,3.80901 -3.32501,6.15222c-0.45126,1.80506 -1.01534,3.49142 -1.59846,5.25572c-1.29571,3.92039 -1.09794,11.90805 -7.35854,10.31039c-0.78188,-0.19953 -1.51166,-0.61112 -2.16239,-1.08829c-1.06988,-1.07363 -2.36329,-1.79373 -3.56392,-2.67046c-0.86746,-0.63343 -1.30594,-1.62393 -2.1082,-2.32102c-1.51086,-1.3128 -2.86881,-2.54811 -3.98866,-4.2357c-1.86166,-2.80552 -2.43427,-6.52903 -3.48999,-9.69423c-1.26483,-3.16498 -1.38339,-6.49838 -2.28528,-9.80222c-0.6433,-2.35655 -1.14221,-4.91336 -1.38397,-7.37266c-0.23364,-2.37669 0.20569,-4.73651 0.24285,-7.09352c1.19407,-2.48571 1.80277,-5.30104 4.18027,-7.062c4.08831,-3.02811 11.36164,-1.03865 15.10889,1.4977c3.90862,0.91139 7.73194,2.13163 11.63972,3.12357c1.87545,0.47606 4.1719,0.95771 5.14949,-1.14127c0,0 0.37983,-0.75966 1.13949,-0.37983c0.75966,0.37983 0.37983,1.1395 0.37983,1.1395c-1.50821,2.87974 -4.31824,2.71071 -7.0808,2.02954c-4.02949,-0.99356 -7.91489,-2.17066 -11.91492,-3.21806c-3.22082,-2.11816 -9.85193,-4.40465 -13.42847,-1.67312c-2.0177,1.541 -2.42555,3.98691 -3.52028,6.07424c0.04237,2.153 -0.43175,4.31993 -0.21013,6.4957c0.24228,2.37858 0.71419,4.84824 1.33387,7.1225c0.88849,3.26084 0.99914,6.56495 2.24446,9.67566c1.00456,3.01541 1.52089,6.66916 3.30461,9.33067c2.48961,3.71476 6.29793,5.83588 9.36412,8.89176c2.53808,1.9687 4.44139,0.51889 5.44156,-2.1444c0.52836,-1.40696 0.51322,-2.97974 0.87855,-4.44107c0.59283,-2.37132 1.44423,-4.64451 2.03838,-7.02109c0.6358,-2.49083 2.2508,-4.32789 3.4696,-6.53105c0.75139,-1.35825 1.14668,-3.03776 1.78877,-4.48226c1.64444,-3.69947 3.70493,-7.11069 5.2092,-10.87137c0.48554,-0.96016 2.47338,-6.06328 0.32181,-5.82384h-0.22648c0,0 -0.84933,0 -0.84933,-0.84933z" fill="#36382d" stroke="none" stroke-width="0.5"/><path d="M198.25804,229.22984c1.46285,-6.4317 2.15995,-13.46086 5.88943,-19.05509c0.94353,-1.8919 2.66683,-3.49935 3.32854,-5.51151c0.51814,-1.57562 0.75817,-3.2514 1.3776,-4.80561c0.42532,-1.06716 1.02566,-1.77821 1.68107,-2.66295c0.1337,-0.18048 0.20961,-0.49285 0.33361,-0.69299c-0.35249,0.08444 -0.84415,0.17301 -1.09038,0.21548c-0.47556,0.08201 -0.9478,0.19265 -1.4285,0.23515c-1.56833,0.13865 -3.17836,-0.21938 -4.71729,-0.45835c-1.76906,-0.35183 -4.69928,-1.49294 -6.40853,-0.94127c-1.13162,0.36523 -1.91015,2.91669 -2.16245,3.92999c-0.9541,3.83192 -1.53513,7.52469 -1.56641,11.46755c0.50169,1.94706 0.52643,4.09294 1.10359,5.97691c0.65758,2.14652 1.33539,4.01518 1.61426,6.25338c0.163,1.30818 0.30651,2.58751 0.52577,3.90401c0.08596,0.51613 -0.14821,1.16618 0.19972,1.55698c0.3208,0.36032 0.85798,0.41783 1.31997,0.58831zM197.96867,231.08166c-0.15693,-0.0773 -0.25529,-0.17567 -0.25529,-0.17567l-0.00576,-0.06739c-0.32827,-0.16413 -1.94682,-0.95201 -2.09457,-1.13416c-1.10967,-1.36808 -0.88003,-4.67085 -1.08641,-6.31633c-0.27044,-2.15626 -0.94565,-3.90482 -1.55656,-5.97691c-0.58597,-1.98748 -0.66282,-4.20727 -1.16129,-6.25338c-0.02712,-4.3034 0.45048,-8.93382 1.84673,-13.04836c0.47557,-1.40146 1.56866,-3.58392 3.0309,-4.16822c1.9382,-0.77449 5.24463,0.48314 7.24171,0.8801c1.38465,0.21502 2.86852,0.57067 4.28117,0.43813c0.29713,-0.02787 2.63973,-0.47848 2.82179,-0.45519c0.56965,0.07288 1.29294,0.15306 1.60035,0.63816c0.8394,1.32461 -1.28459,3.21015 -1.78053,4.21411c-0.87811,1.77763 -1.14272,3.70333 -1.7682,5.55797c-0.72131,2.13882 -2.46054,3.80671 -3.46606,5.81284c-3.88985,5.83477 -4.3729,13.31845 -6.02577,19.93703c0,0 -0.20599,0.82397 -1.02996,0.61797c-0.35829,-0.08957 -0.52183,-0.29599 -0.59225,-0.5007z" fill="#36382d" stroke="none" stroke-width="0.5"/><path d="M198.48893,224.53023c0.59278,-1.23158 1.25274,-2.39677 1.73856,-3.71532c0.79431,-2.15584 1.23673,-4.51635 2.07407,-6.65918c0.4164,-1.06558 1.16879,-1.98441 1.54434,-3.06507c1.74839,-5.03102 2.7852,-10.96922 5.96961,-15.40419c-1.56669,-0.06469 -3.31854,-0.6518 -4.93344,-0.65639c-2.05415,-0.00583 -4.07736,-0.24271 -6.05016,-0.7338c-1.02934,-0.03814 -2.05931,-0.06973 -3.08155,-0.18972c-0.55788,-0.06549 -1.13154,-0.05907 -1.6715,-0.21385c-0.15836,-0.04539 -0.25595,-0.50538 -0.33667,-0.36178c-0.32176,0.57247 -0.55062,1.18908 -0.77186,1.80976c2.09317,0.8062 1.45192,3.05058 1.45192,3.05058c-0.72359,2.52922 -2.04563,5.87917 -2.17356,8.54445c-0.1917,3.99377 1.22688,7.89433 1.99562,11.77212c0.46593,2.35036 0.97698,5.02958 2.33738,7.01036c0.16236,0.2364 0.57247,0.78282 0.98216,1.36982l0.03369,-0.26948l0.16656,0.02083l-0.12312,-0.26842c0.02973,-0.08919 0.0603,-0.1776 0.09163,-0.2653c-0.00172,-0.01101 -0.00311,-0.02236 -0.00414,-0.03408c-0.05767,-0.65152 0.30772,-1.20815 0.76046,-1.74136zM213.88028,190.93704c0.73115,-1.00291 2.09964,-1.00291 2.09964,-1.00291l2.75478,2.23194c0.45411,4.28956 -1.86782,7.48568 -3.30893,11.39067c-2.11514,5.73141 -4.64002,11.80191 -7.64192,17.12368c-0.57952,1.02737 -1.23695,2.04219 -1.93923,3.04494v0.69141h-0.09385c0.0283,0.09188 0.05458,0.18453 0.07863,0.27803c0.2113,0.82142 -0.30558,1.67164 -0.54322,2.48583c-0.75714,2.59394 -2.65303,7.7189 -5.77255,8.14715c-1.21973,0.16745 -2.38015,-0.69761 -3.46416,-1.28133c-2.09616,-1.12875 -2.44257,-2.01128 -3.9083,-3.5952c-5.4617,-5.90212 -9.04433,-13.56128 -10.39076,-21.52102c-0.17971,-1.44059 -0.46482,-2.86615 -0.67927,-4.30198c-1.04203,-6.97665 -0.8721,-20.67836 9.31575,-20.80925c1.52592,-0.0196 3.02433,0.81315 4.43113,1.26372c3.35663,1.07507 6.38924,2.40908 9.67791,3.60299l4.78711,1.30557c0.39535,0.09833 0.75422,0.289 1.05236,0.54778c0.17276,0.02861 0.34611,0.05972 0.52015,0.09364c0.97191,0.18941 2.21784,-0.17106 3.02473,0.30436zM187.2653,210.56111c-0.02714,-0.27317 -0.0506,-0.54575 -0.07011,-0.81756c-0.03665,0.00292 -0.07352,0.00508 -0.11059,0.00644c0.0569,0.26989 0.11717,0.54032 0.1807,0.81112z" fill="#333324" stroke="none" stroke-width="0.5"/><path d="M240.62319,235.45736c-0.00934,0.00714 -0.01866,0.01379 -0.02794,0.01996c-0.04354,0.08232 -0.08811,0.16455 -0.13384,0.2467l-0.28114,0.0904l0.12781,0.10882l-0.17605,0.20679c0.70962,-0.0941 1.3896,-0.16047 1.6736,-0.20031c2.37966,-0.33378 4.70111,-1.76564 6.74951,-3.00876c3.37961,-2.05099 7.21473,-3.63795 10.03146,-6.47574c1.87977,-1.89382 3.45842,-5.13076 4.83565,-7.37214c0,0 1.22271,-1.98832 3.23063,-0.98852c0.30851,-0.58226 0.60885,-1.16739 0.81392,-1.79124c0.05144,-0.15649 -0.35378,0.08207 -0.49418,-0.0041c-0.47873,-0.29383 -0.86131,-0.72135 -1.28626,-1.08867c-0.77867,-0.67307 -1.49735,-1.41153 -2.22044,-2.14512c-1.6942,-1.12375 -3.23489,-2.45631 -4.62604,-3.96769c-1.09367,-1.1882 -2.70953,-2.08413 -3.81499,-3.19617c-1.12167,5.34333 -4.80221,10.11732 -7.33309,14.80375c-0.54363,1.00664 -0.71346,2.18201 -1.2184,3.20861c-1.01541,2.06441 -2.45801,3.98446 -3.51208,6.02591c-0.64468,1.2486 -1.05866,2.5221 -1.56697,3.79089c-0.08768,0.69398 -0.2516,1.33933 -0.77115,1.73666zM258.05081,201.71227c0.14253,0.10549 0.28252,0.21237 0.42026,0.32049c0.39218,0.04522 0.77513,0.18123 1.11459,0.40648l4.19509,2.64993c3.10106,1.61994 6.13258,2.9564 9.19185,4.70671c1.28217,0.73357 2.90812,1.27669 3.92388,2.41559c6.78171,7.6038 -3.21109,16.97979 -9.0612,20.92135c-1.20398,0.81119 -2.44808,1.56333 -3.63212,2.40337c-6.78081,4.38073 -14.84966,6.90892 -22.89101,6.86469c-2.15801,-0.01187 -3.04292,0.32843 -5.29079,-0.45582c-1.16246,-0.40556 -2.58405,-0.67754 -3.28403,-1.69037c-1.79022,-2.59035 0.7104,-7.44901 2.11273,-9.75883c0.44017,-0.72501 0.7184,-1.68032 1.46701,-2.07902c0.08521,-0.04539 0.17129,-0.08856 0.25819,-0.1297l-0.06336,-0.06923l0.51004,-0.46679c0.26557,-1.19507 0.57033,-2.3652 0.93695,-3.48632c1.89907,-5.80743 4.67254,-11.76845 7.47249,-17.19829c1.90769,-3.69951 2.69779,-7.57021 6.16872,-10.1313l3.50635,0.52528c0,0 0.92392,1.00952 0.67772,2.22599c0.89549,0.27425 1.47075,1.43673 2.26666,2.02581zM259.99708,232.15472c-0.02402,-0.02827 -0.04733,-0.05692 -0.06992,-0.08592c-0.21368,0.16912 -0.43058,0.33584 -0.65043,0.50025c0.24265,-0.13596 0.48283,-0.27409 0.72035,-0.41433z" data-paper-data="{&quot;index&quot;:null}" fill="#333324" stroke="none" stroke-width="0.5"/><path d="M227.86826,229.27623c1.79119,0.4802 3.46056,1.53998 5.25519,2.05154c1.53828,0.4385 3.0954,0.83664 4.6778,1.07029c0.91893,0.13569 2.06708,-0.34067 2.7744,0.26144c1.09833,0.93497 1.39105,2.52852 2.02502,3.82412c0.57625,1.17762 0.9646,2.11481 1.2225,3.01844c0.01564,-0.00678 0.03127,-0.01346 0.04693,-0.02004c2.8071,-1.17908 5.88591,0.10452 8.01944,1.96659c0.21663,0.18907 0.0761,0.7305 0.3585,0.78455c0.23477,0.04494 -0.15084,-0.52701 -0.00587,-0.71705c0.40015,-0.52455 0.99737,-0.86504 1.51996,-1.26774c3.09848,-2.38763 6.02813,-4.47216 8.81494,-7.25897c0.87027,-0.86776 1.62058,-1.85059 2.49136,-2.71784c1.91087,-1.90314 4.2387,-3.16973 6.33488,-4.72544c1.71891,-1.27572 3.25477,-4.13761 4.39723,-5.91028c1.45242,-2.2536 2.17914,-5.66325 -0.39346,-7.42192c-0.8168,-0.55838 -1.83663,-0.73711 -2.74605,-1.12686c0,0 -2.34196,-1.00369 -1.33826,-3.34566c1.00369,-2.34197 3.34566,-1.33826 3.34566,-1.33826c0.44499,0.19071 3.38643,1.4383 3.59558,1.59099c4.83811,3.53188 4.78282,9.55351 1.87141,14.32083c-1.42614,2.33524 -3.39416,5.51294 -5.56819,7.22596c-0.58554,0.46138 -1.36336,0.61895 -1.98445,1.03123c-2.43775,1.61821 -4.36117,3.97424 -6.40232,6.02065c-2.93642,2.93642 -6.03387,5.17911 -9.304,7.68917c-0.87896,0.67466 -3.34818,2.95158 -3.92159,2.99791c-1.91312,0.15457 -4.02891,-1.81457 -5.5918,-2.74693c-0.10284,-0.06136 -1.06737,-0.63173 -1.43137,-0.39058c-1.89289,1.254 -3.60566,3.86755 -5.01353,5.63259c-0.74176,0.92994 -1.03574,2.52374 -2.18801,2.81916c-1.42988,0.3666 -2.85729,-0.74474 -4.27303,-1.16266c-2.28929,-0.67581 -4.03688,-1.8775 -6.03839,-3.12911c-2.9308,-1.73669 -4.2575,-4.39034 -6.6093,-6.72684c-1.40506,-1.39592 -2.93631,-2.51359 -4.11241,-4.15771c-1.18452,-1.65589 -1.72272,-3.75567 -2.88884,-5.36189c-0.90073,-1.24069 -2.63619,-1.23706 -3.92634,-1.6169c-1.37634,-0.40521 -2.70894,-0.94951 -4.08345,-1.36092l-1.55323,-0.44355c0,0 -2.44995,-0.69998 -1.74996,-3.14993c0.04557,-0.15946 0.09854,-0.30558 0.15777,-0.43941c-0.12349,-0.45635 -0.10772,-1.01254 0.1767,-1.6762v-0.00003c1.00369,-2.34197 3.34566,-1.33826 3.34566,-1.33826c3.44403,1.47851 7.92546,2.68164 10.81139,5.13413c0.02138,0.01818 0.04266,0.03641 0.06382,0.05472c3.28785,0.47725 6.70018,1.22086 9.81773,2.05664z" fill="#333324" stroke="none" stroke-width="0.5"/><path d="M216.64665,192.17995c0,-0.5096 0.5096,-0.5096 0.5096,-0.5096l0.64225,0.03646c0.21713,0.08754 0.43428,0.17509 0.65141,0.26263c3.02551,0.63585 6.39173,1.36049 9.29554,2.44746c2.67703,1.00207 5.28569,2.01411 8.20921,2.00968c3.86911,0 7.44724,0.68205 11.01949,2.21391c1.29056,0.55342 2.81173,0.79755 3.83601,1.78562c0,0 0.36034,0.36033 0,0.72067c-0.36034,0.36034 -0.72067,0 -0.72067,0c-0.84285,-0.88791 -2.41794,-1.09901 -3.53345,-1.57681c-3.44326,-1.47484 -6.87626,-2.1242 -10.60137,-2.1242c-3.04665,-0.00427 -5.77096,-1.02404 -8.56211,-2.07273c-2.88295,-1.08317 -6.23398,-1.79026 -9.23836,-2.42825c-0.24475,-0.09723 -0.4895,-0.19446 -0.73425,-0.29169l-0.2637,0.03645c0,0 -0.5096,0 -0.5096,-0.5096z" fill="#000000" stroke="none" stroke-width="0.5"/><path d="M283.65274,208.15112c0.04763,0.10453 0.07687,0.23288 0.07687,0.39047c0,0.84933 -0.84933,0.84933 -0.84933,0.84933h-0.45297c-0.03444,0 -0.06899,0.00013 -0.10362,0.0004c-0.11443,0.09987 -0.60865,0.47641 -1.11708,0.03283c-1.07143,0.03898 -2.1725,0.05731 -3.15073,-0.31247c-2.56419,-0.9693 -2.85443,-3.58285 -1.84892,-5.87782c1.59378,-3.63763 4.70306,-7.40979 7.92875,-9.82906c1.42363,-1.43041 2.68477,-3.43187 4.36312,-4.57712c0.6657,-0.45425 2.11158,-1.14475 2.90907,-0.36453c0.79046,0.77334 -0.32731,4.09816 -0.72183,5.00235c-0.07741,0.17741 -0.1806,0.34135 -0.28842,0.50296c0.93892,-0.73125 1.56147,-1.21638 2.34138,-1.60978l-0.10379,-0.17298l1.12046,-0.67228c0.13024,-0.08126 0.28412,-0.12822 0.44895,-0.12822c0.46907,0 0.84933,0.38025 0.84933,0.84933c0,0.14265 -0.03517,0.27709 -0.09731,0.39512l-0.44533,0.89066l-0.02486,-0.01243l-0.01232,0.07912c-1.74489,2.32652 -2.3097,5.25067 -3.85028,7.70056c-1.7003,2.70387 -4.53891,4.71534 -6.97112,6.86357z" fill="#b9431e" stroke="none" stroke-width="0.5"/><path d="M284.08934,206.83076c3.6373,-2.98067 5.8108,-8.59775 7.73332,-12.39955c0.48009,-1.92033 2.61026,-3.94169 0.2647,-1.59612l-0.67946,0.67946c-0.15369,0.15369 -0.36602,0.24876 -0.60056,0.24876c-0.46907,0 -0.84933,-0.38025 -0.84933,-0.84933v-1.13243h0.20499c-0.02538,-0.59786 0.02361,-1.15112 0.02149,-2.03838c-0.00056,-0.23322 -0.10429,-0.66005 0.01889,-0.95805c-0.25134,0.19706 -0.59063,0.44309 -0.77097,0.5539c-1.22524,0.75289 -1.9729,1.70466 -3.05131,2.63118c-1.23031,1.05702 -3.00204,1.91529 -3.94424,3.25228c-0.83849,1.18984 -1.53408,2.44296 -2.5798,3.50126c-1.6617,1.6181 -2.89792,4.15577 -3.15267,6.50422c-0.05311,0.48953 -0.38213,1.76846 -0.10611,2.21569c0.60729,0.98399 2.3052,1.13092 3.2695,0.75432c0.91385,-0.35689 1.83787,-0.69245 2.71784,-1.13243l0.99462,-0.25389c0,0 0.25004,-0.06251 0.50909,0.01909zM280.1117,209.89952c-2.16124,0.5794 -5.213,-0.35178 -5.32833,-2.94334c-0.14693,-3.30142 1.6298,-7.1455 3.87255,-9.43355c0.99134,-0.97673 1.6069,-2.19188 2.40292,-3.29334c1.06132,-1.46857 2.8514,-2.38131 4.20929,-3.54232c1.35938,-1.16229 2.73841,-3.23435 4.63302,-3.57418c0.57315,-0.10281 1.29393,-0.16427 1.73322,0.21794c0.5111,0.44469 0.5155,2.0099 0.24892,3.24108c0.84803,-0.84102 1.83274,-1.42253 2.86647,0.17541c0.56576,0.87454 -1.10188,3.34499 -1.33397,4.27335c-2.70419,5.46362 -5.86262,13.62463 -12.3679,15.25094c0,0 -0.64479,0.1612 -0.93618,-0.37198z" fill="#561f0e" stroke="none" stroke-width="0.5"/><path d="M184.74211,214.7153c-1.67554,0.27926 -1.95479,-1.39628 -1.95479,-1.39628l-0.12134,-0.81035c-0.77638,-2.59177 -1.79967,-4.99372 -2.25467,-7.6706c-0.91583,-5.0387 -1.53746,-10.45545 0.43415,-15.35631c0.93953,-2.33539 3.25805,-6.51157 6.57553,-3.57118c1.31758,1.16782 -0.00487,4.82188 -0.07253,6.32038c-0.09405,2.08328 -0.35123,4.32007 -0.13648,6.42758c1.17984,-2.05858 2.95503,-3.63234 5.02678,-4.68331c0.01544,-0.15638 0.03088,-0.31275 0.04632,-0.46913c0,0 0.16902,-1.69022 1.85924,-1.5212c0.73919,0.07392 1.12277,0.43878 1.32042,0.82596c0.25853,-0.05972 0.51896,-0.11255 0.78088,-0.15843c0.85829,-0.35673 1.6011,-0.63741 1.719,-0.65637c1.60014,-0.25722 3.11714,0.25412 4.61026,0.86426c1.28515,0.23369 3.41867,0.64605 3.80515,0.89448c0.02018,0.01297 0.04027,0.02604 0.06029,0.03922l0.00605,-0.01664l1.8313,0.66592c0.67171,0.22659 1.15537,0.86178 1.15537,1.60992c0,0.93814 -0.76051,1.69865 -1.69865,1.69865c-0.06484,0 -0.12882,-0.00364 -0.19176,-0.0107l-1.67592,-0.16759l0.00427,-0.0427l-0.09813,0.03066c-0.90406,-0.19916 -1.83639,-0.29753 -2.71219,-0.59748c-0.64615,-0.2213 -1.31396,-0.64742 -2.00814,-1.01215c-1.13317,-0.21914 -2.29494,-0.36359 -3.34267,-0.24668c-0.16365,0.01826 -0.32735,0.04067 -0.49087,0.06717c-0.49483,0.22167 -0.99301,0.50304 -1.4786,0.81046l-0.80208,1.33681c-0.29341,0.50887 -0.843,0.8514 -1.4726,0.8514c-0.54918,0 -1.03749,-0.26061 -1.348,-0.66492c-1.32535,1.11913 -2.33998,2.57954 -2.77749,4.29628c-0.54506,2.13877 0.2795,4.65888 0.69805,6.75164l-0.00375,0.01582l0.00648,-0.00117l0.33374,1.83554c0.0219,0.10887 0.03339,0.22151 0.03339,0.33684c0,0.93814 -0.76051,1.69865 -1.69865,1.69865c-0.76412,0 -1.4104,-0.50454 -1.62387,-1.19865l-1.06194,-3.18581l0.0082,-0.00273c-0.00775,-0.01475 -0.01546,-0.02952 -0.02313,-0.04431c-0.90992,-1.75447 -0.92335,-4.17318 -1.33624,-6.07434c-0.66505,-3.06223 -0.82698,-5.40453 -0.7186,-8.56619c0.01508,-0.44012 -0.07491,-1.79283 -0.00984,-3.08019c-0.44895,1.18867 -0.45227,1.91929 -0.69811,3.2637c-0.62404,3.41271 -0.10389,6.71624 0.51222,10.1037c0.41271,2.53393 1.42439,4.82287 2.16182,7.27753l0.21839,1.22804c0,0 0.27926,1.67554 -1.39629,1.9548z" fill="#333324" stroke="none" stroke-width="0.5"/><path d="M186.23416,226.77406c-0.38678,-0.08333 -0.7906,-0.33068 -1.08238,-0.91422c-0.75966,-1.51932 0.75966,-2.27898 0.75966,-2.27898l1.77225,-0.48607c3.39001,0.678 6.63362,1.82548 10.11162,1.49783c2.24496,0.42702 6.95382,0.64498 8.21675,2.94757c0.43882,0.80005 0.08329,1.82834 0.00497,2.73747c-0.23949,2.78007 -1.94723,6.35156 -4.82103,7.16838c-2.34926,0.66773 -4.45556,-0.61068 -6.3659,-1.69891c-4.08931,-2.32949 -6.26685,-5.02954 -8.59594,-8.97306z" fill="#000000" stroke="none" stroke-width="0.5"/><path d="M248.08019,242.78762c-3.67656,0.58421 -7.32451,1.39861 -11.07425,0.80904c-1.70625,-0.26827 -3.7075,-0.68598 -4.85017,-2.1981c-1.6806,-2.22396 -1.15881,-7.26917 0.84373,-9.17611c3.01986,-2.8757 8.54625,-1.23721 9.56823,2.64388c2.29826,-0.81785 4.15832,-3.34707 6.97905,-2.29337c0.82133,0.30682 1.01864,1.42738 1.53679,2.13466c1.34623,1.83761 3.90366,4.15942 2.18963,6.80262c-1.19779,1.84711 -3.32221,1.4437 -5.193,1.27739z" fill="#000000" stroke="none" stroke-width="0.5"/><path d="M257.46007,234.62471c-1.20113,-1.20113 0,-2.40225 0,-2.40225l0.2625,-0.25717c1.19286,-1.36188 2.413,-2.53346 3.41355,-4.04215c0.11681,-0.18261 0.2676,-0.3414 0.44344,-0.46745c0.4008,-0.31067 1.06294,-0.58691 1.89014,-0.05836c0.0247,0.0155 0.04898,0.03162 0.0728,0.04833c0.81073,0.5588 0.81412,1.2758 0.68269,1.76673c-0.04886,0.21673 -0.13915,0.41777 -0.2621,0.59435c-1.10216,1.63159 -2.39152,2.9172 -3.68379,4.39569l-0.41697,0.42229c0,0 -1.20113,1.20113 -2.40225,0z" fill="#333324" stroke="none" stroke-width="0.5"/><path d="M289.03161,201.66098c0.75376,0.75376 0,1.50753 0,1.50753l-0.00758,-0.00758c-0.21319,0.28426 -0.42639,0.56852 -0.63959,0.85278c0,0 -0.63959,0.85278 -1.49238,0.21319c-0.85278,-0.63959 -0.21319,-1.49238 -0.21319,-1.49238c0.21319,-0.28426 0.42639,-0.56852 0.63959,-0.85278l0.20562,-0.22077c0,0 0.75376,-0.75376 1.50753,0z" fill="#b9431e" stroke="none" stroke-width="0.5"/><path d="M283.9133,211.49737c0.02989,0.0656 0.04823,0.14614 0.04823,0.24503c0,0.53299 -0.53299,0.53299 -0.53299,0.53299h-0.28426c-0.02161,0 -0.04329,0.00009 -0.06503,0.00025c-0.0718,0.06267 -0.38195,0.29897 -0.70101,0.0206c-0.67237,0.02446 -1.36335,0.03597 -1.97723,-0.19609c-1.60915,-0.60827 -1.79128,-2.2484 -1.16028,-3.6886c1.00017,-2.28278 2.95138,-4.64997 4.97565,-6.16817c0.89339,-0.89764 1.68481,-2.15365 2.73805,-2.87234c0.41776,-0.28506 1.32511,-0.71838 1.82557,-0.22876c0.49605,0.48531 -0.2054,2.57178 -0.45298,3.1392c-0.04858,0.11133 -0.11333,0.21421 -0.18099,0.31563c0.58921,-0.45889 0.97989,-0.76333 1.46932,-1.01021l-0.06513,-0.10855l0.70314,-0.42188c0.08174,-0.05099 0.1783,-0.08046 0.28173,-0.08046c0.29436,0 0.53299,0.23863 0.53299,0.53299c0,0.08952 -0.02207,0.17388 -0.06106,0.24795l-0.27947,0.55893l-0.0156,-0.0078l-0.00773,0.04965c-1.095,1.46 -1.44944,3.29503 -2.41622,4.83244c-1.06701,1.6968 -2.84837,2.95908 -4.37469,4.30719z" fill="#b9431e" stroke="none" stroke-width="0.5"/><path d="M284.18728,210.66879c2.28257,-1.87051 3.64654,-5.39547 4.853,-7.78127c0.30127,-1.20509 1.63806,-2.47358 0.16611,-1.00164l-0.42639,0.42639c-0.09645,0.09645 -0.2297,0.15611 -0.37687,0.15611c-0.29436,0 -0.53299,-0.23863 -0.53299,-0.53299v-0.71065h0.12864c-0.01593,-0.37518 0.01482,-0.72238 0.01349,-1.27917c-0.00035,-0.14636 -0.06544,-0.4142 0.01186,-0.60121c-0.15773,0.12366 -0.37065,0.27805 -0.48382,0.3476c-0.76889,0.47247 -1.23808,1.06975 -1.91484,1.65119c-0.77207,0.66333 -1.88391,1.20193 -2.47518,2.04095c-0.52619,0.74667 -0.9627,1.53307 -1.61894,2.1972c-1.0428,1.01543 -1.81858,2.60793 -1.97845,4.08169c-0.03333,0.30721 -0.2398,1.10979 -0.06659,1.39044c0.3811,0.6175 1.44661,0.7097 2.05175,0.47337c0.57348,-0.22397 1.15335,-0.43454 1.70557,-0.71065l0.62417,-0.15933c0,0 0.15692,-0.03922 0.31948,0.01198zM281.69115,212.59457c-1.35628,0.3636 -3.27139,-0.22075 -3.34377,-1.84707c-0.0922,-2.07179 1.02277,-4.48413 2.4302,-5.91998c0.62212,-0.61294 1.00839,-1.37551 1.50793,-2.06672c0.66602,-0.92159 1.78939,-1.49437 2.64152,-2.22296c0.85307,-0.72939 1.71847,-2.0297 2.90743,-2.24296c0.35967,-0.06451 0.812,-0.10309 1.08767,0.13677c0.32074,0.27907 0.3235,1.2613 0.15621,2.03392c0.53217,-0.52778 1.15013,-0.89271 1.79884,0.11007c0.35504,0.54881 -0.69148,2.09913 -0.83713,2.68172c-1.697,3.42867 -3.67905,8.55007 -7.7614,9.57066c0,0 -0.40463,0.10115 -0.5875,-0.23345z" fill="#561f0e" stroke="none" stroke-width="0.5"/><path d="M214.18662,209.60943c-0.36233,0.26687 -0.89162,0.43079 -1.60955,0.12311c-1.56131,-0.66913 -0.89217,-2.23044 -0.89217,-2.23044l0.58602,-1.34487c1.03383,-1.86091 1.74881,-3.96335 3.92569,-4.83455c2.1835,-0.87385 4.39253,0.14601 6.41711,0.81969c0.86717,0.28855 3.17704,0.87556 3.85433,1.31473c0.86777,0.56267 1.91439,1.12343 2.29914,2.08343c0.35475,0.88515 -0.07336,1.92247 -0.32506,2.84224c-1.3014,4.7557 -5.35906,5.09275 -9.3473,3.58348c-1.65671,-0.62694 -3.30964,-1.53931 -4.9082,-2.35683z" fill="#dc6b2b" stroke="none" stroke-width="0.5"/><path d="M261.01075,202.45656c0.56817,-1.33955 2.02978,-0.90107 2.02978,-0.90107l1.54063,0.47034c2.93507,0.29486 4.83765,-0.82449 6.91973,-2.88829c0.63708,-0.63149 0.96327,-1.77476 1.84019,-1.96357c4.90421,-1.05588 4.77409,4.12339 3.46352,6.95195c-1.66402,3.59144 -8.16402,7.1685 -12.0715,5.76402c-2.58795,-0.93019 -3.19849,-3.55423 -3.96203,-5.83055c0,0 -0.30709,-0.92126 0.23968,-1.60284z" fill="#dc6b2b" stroke="none" stroke-width="0.5"/><path d="M211.76242,208.14341c0.42998,-0.88413 1.5291,-0.88413 1.5291,-0.88413l1.14046,0.12149c2.8333,1.13648 5.57259,1.53303 8.58572,1.93039c0.43636,0.05754 2.54462,0.28724 3.03221,0.18702c1.4882,-0.30591 2.98671,-0.67327 4.50597,-0.68644c1.78121,2.77202 3.09489,5.67964 -0.85726,7.50709c-0.1394,0.06446 -2.77546,0.19744 -3.30576,0.55229c-2.58542,1.73005 -3.74206,4.55557 -7.05393,5.44768c-3.56871,0.96129 -8.77127,-1.87129 -9.89267,-5.43338c-0.21644,-0.68751 -0.01398,-3.4168 0.14061,-4.18081c0.35914,-1.77492 0.71383,-2.23055 1.50588,-3.82689c0,0 0.22322,-0.44646 0.66968,-0.73433z" fill="#000000" stroke="none" stroke-width="0.5"/><path d="M261.68451,208.93739c-0.15485,-1.11243 0.95758,-1.66865 0.95758,-1.66865l0.93037,-0.34076c2.69426,-0.26623 5.76362,0.24546 8.39029,-0.45956c1.06839,-0.28677 1.78123,-1.32168 2.74396,-1.86651c0.01296,-0.00733 0.02593,-0.01463 0.03892,-0.02191l-0.00486,-0.00607l1.68809,-1.35047c0.29233,-0.238 0.66535,-0.38068 1.0717,-0.38068c0.93814,0 1.69865,0.76051 1.69865,1.69865c0,0.04663 -0.00188,0.09283 -0.00556,0.13851l-0.16538,2.31519c0.00211,4.55083 -0.27653,9.44976 -5.83761,10.60327c-1.07353,0.22267 -2.22502,-0.47845 -3.2835,-0.19265c-2.52698,0.68229 -4.04038,2.77516 -6.97507,0.92382c-3.00914,-1.8983 -2.44644,-6.81351 -1.24758,-9.39217z" fill="#000000" stroke="none" stroke-width="0.5"/><path d="M181.73996,206.2109c-0.36366,0.46118 -1.00667,0.46118 -1.00667,0.46118l-1.32187,-0.60688c-1.72582,-2.89316 -2.28711,-6.5283 -1.41113,-9.84862c0.2082,-0.78915 0.12387,-1.82847 0.77294,-2.32325c0.58475,-0.44576 1.47259,-0.00958 2.2052,0.05302c1.60964,0.13755 3.28695,0.16359 4.87803,0.48181c2.2771,0.00249 9.08745,0.34906 10.52034,2.48906c0.40012,0.59758 -0.30017,1.40668 -0.44533,2.11104c-0.45634,2.2143 -0.61599,6.63858 -3.08595,7.59018c-0.99297,0.38256 -3.38097,-0.61834 -4.46533,-0.70062c-1.954,-0.14828 -3.75263,0.10016 -5.65175,0.47998c0,0 -0.55138,0.11028 -0.98848,-0.18691z" fill="#dc6b2b" stroke="none" stroke-width="0.5"/><path d="M260.93621,225.12229l-1.44036,-1.52343c0.63619,-1.24138 2.32816,-4.77935 3.62156,-5.51453c1.46075,-0.8303 3.34466,0.26136 4.70269,0.63398c2.79936,0.7681 6.01515,1.18817 8.89957,1.22632c0.54919,0.21065 3.35048,1.25284 3.52767,1.49656c0.76351,1.05018 0.09688,2.89557 -0.42435,3.84329c-1.16659,2.12116 -6.49918,5.84789 -8.92379,6.12653c-2.48679,0.28578 -3.33761,-2.21421 -4.9584,-3.52226c-1.32693,-1.07089 -3.00651,-1.59423 -4.51653,-2.34864c0,0 -0.27855,-0.13928 -0.48806,-0.41783z" fill="#dc6b2b" stroke="none" stroke-width="0.5"/></g></g></svg>