<svg version="1.1" xmlns="http://www.w3.org/2000/svg" xmlns:xlink="http://www.w3.org/1999/xlink" width="91" height="95.66666" viewBox="0,0,91,95.66666"><defs><radialGradient cx="240" cy="180" r="47.83333" gradientUnits="userSpaceOnUse" id="color-1"><stop offset="0" stop-color="#fffc00"/><stop offset="1" stop-color="#fffc00" stop-opacity="0"/></radialGradient></defs><g transform="translate(-194.5,-132.16666)"><g data-paper-data="{&quot;isPaintingLayer&quot;:true}" fill-rule="nonzero" stroke-width="0" stroke-linejoin="miter" stroke-miterlimit="10" stroke-dasharray="" stroke-dashoffset="0" style="mix-blend-mode: normal"><path d="M199.44356,181.87988l13.30539,-9.62211l20.37302,1.98044l-10.29122,7.30167l-1.89667,2.57674z" data-paper-data="{&quot;index&quot;:null}" fill="#900000" stroke="#ca0000" stroke-linecap="round"/><path d="M222.14695,179.25995l-0.8,0.3l21.66458,8.5l-10.64895,17.43334l-27.18485,-8.72122z" fill="#ca0000" stroke="#ca0000" stroke-linecap="round"/><path d="M236.82924,191.09026l19.85878,-12.16666l0.16503,-0.91905c0,0 12.04561,11.32743 12.10897,12.06c0.43203,4.99558 -21.33278,15.79237 -21.33278,15.79237z" fill="#8a0000" stroke="#dd0000" stroke-linecap="round"/><path d="M230.6148,173.01709l29.22857,6.70952l-18.82857,12.79048c0,0 -1.17833,0.12241 -2.03622,-0.18355c-3.15981,-1.12692 -22.39712,-9.91646 -22.39712,-9.91646z" fill="#ff0000" stroke="#ff0000" stroke-linecap="round"/><path d="M230.75,173.21369l10.6,-6.4l26.4,5.8l-9.4,8.4z" fill="#400000" stroke="none" stroke-linecap="butt"/><path d="M285.5,180c0,26.41762 -20.37104,47.83333 -45.5,47.83333c-25.12896,0 -45.5,-21.41571 -45.5,-47.83333c0,-26.41762 20.37104,-47.83333 45.5,-47.83333c25.12896,0 45.5,21.41571 45.5,47.83333z" fill="url(#color-1)" stroke="none" stroke-linecap="butt"/></g></g></svg>