<svg version="1.1" xmlns="http://www.w3.org/2000/svg" xmlns:xlink="http://www.w3.org/1999/xlink" width="125.9213" height="103.51201" viewBox="0,0,125.9213,103.51201"><defs><radialGradient cx="57.57129" cy="295.65407" r="32.421" gradientUnits="userSpaceOnUse" id="color-1"><stop offset="0" stop-color="#02c0fc"/><stop offset="1" stop-color="#0783fd"/></radialGradient></defs><g transform="translate(-5.03185,-246.34592)"><g data-paper-data="{&quot;isPaintingLayer&quot;:true}" fill-rule="nonzero" stroke-linejoin="miter" stroke-miterlimit="10" stroke-dasharray="" stroke-dashoffset="0" style="mix-blend-mode: normal"><g stroke-linecap="butt"><path d="M104.36903,294.04036c0,25.9267 -21.01774,46.94445 -46.94444,46.94445c-25.9267,0 -46.94445,-21.01775 -46.94445,-46.94445c0,-25.9267 21.01775,-46.94444 46.94445,-46.94444c25.9267,0 46.94444,21.01774 46.94444,46.94444z" fill="#234e79" stroke="#201a26" stroke-width="1.5"/><path d="M96.44716,295.06728c0,21.30851 -17.27395,38.58246 -38.58246,38.58246c-21.30851,0 -38.58246,-17.27395 -38.58246,-38.58246c0,-21.30851 17.27395,-38.58246 38.58246,-38.58246c21.30851,0 38.58246,17.27395 38.58246,38.58246z" fill="#cba35e" stroke="#965b15" stroke-width="0.5"/><path d="M89.99229,295.65407c0,17.90563 -14.51537,32.42101 -32.421,32.42101c-17.90563,0 -32.42101,-14.51538 -32.42101,-32.42101c0,-17.90563 14.51538,-32.421 32.42101,-32.421c17.90563,0 32.421,14.51537 32.421,32.421z" fill="url(#color-1)" stroke="#03589d" stroke-width="0.5"/><path d="M55.42837,279.19737c6.53409,-1.85892 13.32478,-0.0654 19.47387,-2.74482c1.55834,-0.67904 4.63954,-3.3965 6.46071,-2.03789c1.29608,0.96689 0.96618,3.1466 0.92014,4.76295c-0.04479,1.57216 -1.75672,3.4297 -2.33467,4.81602c-1.15666,2.77445 -0.3862,6.07118 -1.19865,9.00266c-3.40791,11.849 -12.44428,12.93039 -20.31272,20.05585c-3.16476,2.86592 -3.43658,8.05057 -6.94746,10.37968c-4.78172,3.17218 -8.95476,-0.11746 -11.11094,-4.19655c-0.0874,-0.30172 -1.36229,-4.66781 -1.39591,-4.92766c-0.16448,-1.27116 1.6606,-2.89913 0.72584,-3.77615c-2.78986,-2.61753 -12.62471,-0.89948 -10.87466,-9.31334c1.61721,-7.77519 9.47359,-4.09091 13.48106,-7.31384c2.34885,-1.88902 4.51159,-6.78736 6.22023,-9.35814c0.91871,-1.36569 1.96824,-2.65264 3.12715,-3.82143l2.0015,-1.27557c0,0 0.86506,-0.51903 1.76451,-0.25177z" fill="#000000" stroke="none" stroke-width="0.5"/><path d="M47.62566,283.3427l0.54032,-0.70357c2.43297,-2.43297 5.54498,-6.77876 9.45768,-3.60662c2.3006,1.86518 1.38016,5.08749 1.54668,7.50724c0.31455,4.57112 2.68361,8.18682 4.82356,12.07131c1.55324,1.25226 5.81899,4.00086 5.73428,6.16181c-0.07424,1.89375 -6.35535,5.19493 -7.92,4.97701c-0.91252,-0.12709 -5.23563,-3.80666 -6.11706,-4.48477c-6.98736,-5.37569 -10.34769,-11.51459 -9.26352,-20.29763c0,0 0.15444,-1.23552 1.19806,-1.62479z" fill="#fcc400" stroke="none" stroke-width="0.5"/><path d="M38.67653,315.78624l0.00075,-2.91819c3.12391,-3.98647 15.43501,-2.65689 17.07579,3.0077c1.32867,4.58704 -3.70602,10.59118 -8.35255,10.02994c-4.52396,-0.54642 -7.01259,-5.1372 -8.60232,-8.8117c0,0 -0.27004,-0.63009 -0.12167,-1.30774z" fill="#fcc400" stroke="none" stroke-width="0.5"/><path d="M41.47008,293.23299c0.21926,0.0296 0.36153,0.07701 0.36153,0.07701l1.97346,1.18965c2.94596,6.85912 -2.63052,6.53318 -7.37266,7.88455c-3.6145,1.03002 -4.24614,3.99253 -8.07019,0.65989c-3.37436,-2.94075 -3.36111,-8.41723 0.71804,-10.75228c4.05809,-2.323 8.66656,-1.08388 12.38983,0.94117z" fill="#fcc400" stroke="none" stroke-width="0.5"/><path d="M38.19424,312.51486c-3.45532,2.3082 -7.66515,3.502 -9.44408,-1.48593c-4.37536,-12.26804 28.47103,-12.05056 15.47118,-1.39879c-1.23002,1.00785 -2.62482,1.79622 -3.91871,2.72062c0,0 -1.08361,0.77401 -2.10839,0.1641z" fill="#ff930d" stroke="none" stroke-width="0.5"/></g><path d="M13.9961,343.75177l-0.41128,4.37847l-8.29835,0.65149c0.03882,-2.29539 0.0825,-4.57622 0.13103,-6.8425c0.04853,-2.26628 0.10919,-4.54589 0.18198,-6.83886h5.12459c-0.15044,1.43887 -0.29481,2.87652 -0.43311,4.31296c-0.13831,1.43401 -0.23657,2.88016 -0.29481,4.33844c0.30816,0.01456 0.61267,0.02184 0.91355,0.02184c0.3033,0 0.61024,0 0.92083,0c0.36639,0 0.72671,-0.00364 1.08097,-0.01092c0.35668,-0.00728 0.71822,-0.01092 1.08461,-0.01092zM23.79621,335.15861c-0.04125,0.61874 -0.07886,1.23019 -0.11283,1.83437c-0.03154,0.60418 -0.07279,1.21442 -0.12375,1.83073l-4.18193,0.21838l-0.09827,1.24111h2.93718l-0.21474,3.05729l-2.95902,0.09827l-0.09827,1.43765h2.44583h1.73246c-0.03882,0.72307 -0.08007,1.44129 -0.12375,2.15466c-0.04125,0.71337 -0.07886,1.42795 -0.11283,2.14374l-8.49489,0.19654l0.31665,-14.21274zM36.55876,348.52332l-4.88802,0.62966l-0.59326,-2.22745h-2.24565l-0.49499,2.22745l-5.02632,-0.49135l3.92352,-13.12813l5.48128,-0.27661zM30.72444,343.91191l-0.74976,-3.43217l-0.72793,3.43217zM47.93138,341.54615c0,0.91961 -0.1189,1.74945 -0.35668,2.4895c-0.23536,0.73763 -0.56535,1.39398 -0.98998,1.96904c-0.4222,0.57506 -0.92568,1.07005 -1.51044,1.48497c-0.58477,0.41249 -1.22534,0.75219 -1.92172,1.0191c-0.69638,0.26691 -1.43765,0.46466 -2.22381,0.59326c-0.78373,0.12617 -1.59052,0.18926 -2.42035,0.18926c-0.30816,0 -0.61024,-0.00728 -0.90627,-0.02184c-0.29602,-0.01699 -0.59811,-0.04246 -0.90627,-0.07643l0.27661,-13.2264c0.72307,-0.23051 1.46677,-0.39308 2.23109,-0.48771c0.76675,-0.09463 1.52743,-0.14194 2.28205,-0.14194c0.93902,0 1.80283,0.14195 2.59141,0.42584c0.78859,0.28146 1.4692,0.68789 2.04183,1.21928c0.57263,0.53139 1.01788,1.18167 1.33574,1.95084c0.31786,0.76917 0.47679,1.64026 0.47679,2.61325zM43.8914,342.17581c0.00728,-0.35426 -0.03033,-0.69517 -0.11283,-1.02273c-0.0825,-0.32999 -0.21716,-0.62116 -0.404,-0.87351c-0.18683,-0.25235 -0.42584,-0.45617 -0.71701,-0.61146c-0.28874,-0.15529 -0.6333,-0.239 -1.03365,-0.25113l-0.39308,6.11093c0.39308,-0.05823 0.75098,-0.18805 1.07369,-0.38944c0.32271,-0.20139 0.60054,-0.44767 0.83348,-0.73884c0.23294,-0.2936 0.4137,-0.61874 0.54231,-0.97542c0.1286,-0.35911 0.19897,-0.72914 0.2111,-1.11009zM57.85903,335.15861c-0.04125,0.61874 -0.07886,1.23019 -0.11283,1.83437c-0.03154,0.60418 -0.07279,1.21442 -0.12375,1.83073l-4.18193,0.21838l-0.09827,1.24111h2.93718l-0.21474,3.05729l-2.95902,0.09827l-0.09827,1.43765h2.44583h1.73246c-0.03882,0.72307 -0.08007,1.44129 -0.12375,2.15466c-0.04125,0.71337 -0.07886,1.42795 -0.11283,2.14374l-8.49489,0.19654l0.31665,-14.21274zM69.74443,339.86828c0,0.5144 -0.04489,0.98027 -0.13467,1.39762c-0.08735,0.41734 -0.22687,0.80072 -0.41856,1.15012c-0.18926,0.34698 -0.43554,0.66848 -0.73884,0.9645c-0.30088,0.2936 -0.66484,0.57506 -1.09189,0.84439l2.34392,4.18193l-4.4367,0.86623l-1.51772,-4.20013l-1.21927,0.04004l-0.17835,4.10186h-4.24016c0.03397,-1.49953 0.06551,-2.99177 0.09463,-4.47674c0.02912,-1.48497 0.0643,-2.976 0.10555,-4.4731c0.01213,-0.75704 0.02426,-1.50681 0.0364,-2.24929c0.01456,-0.74248 0.04125,-1.49103 0.08007,-2.24565c0.46102,-0.16985 0.91476,-0.31058 1.36122,-0.4222c0.44646,-0.11404 0.89413,-0.20139 1.34302,-0.26205c0.45131,-0.06309 0.9087,-0.10555 1.37215,-0.12739c0.46345,-0.02426 0.93781,-0.0364 1.4231,-0.0364c0.74976,0 1.47405,0.10434 2.17286,0.31301c0.70124,0.20625 1.32119,0.51683 1.85985,0.93174c0.53866,0.41249 0.97057,0.92811 1.29571,1.54684c0.32514,0.61631 0.48771,1.33453 0.48771,2.15466zM65.32957,340.18493c0,-0.27661 -0.03882,-0.52896 -0.11647,-0.75704c-0.07522,-0.23051 -0.18683,-0.42948 -0.33485,-0.5969c-0.14559,-0.16742 -0.32878,-0.29845 -0.54958,-0.39308c-0.2208,-0.09706 -0.47922,-0.14559 -0.77524,-0.14559c-0.13103,0 -0.25963,0.00849 -0.3858,0.02548c-0.12375,0.01699 -0.24507,0.04125 -0.36396,0.07279l-0.1565,3.66874h0.23658c0.28389,0 0.57142,-0.0364 0.86259,-0.10919c0.2936,-0.07279 0.55686,-0.18441 0.7898,-0.33485c0.23294,-0.15044 0.42341,-0.34334 0.57142,-0.5787c0.14801,-0.23779 0.22202,-0.52168 0.22202,-0.85167zM81.89583,345.86275c0,0.54594 -0.1007,1.01667 -0.30209,1.41218c-0.19897,0.39308 -0.46587,0.72793 -0.80072,1.00454c-0.33485,0.27418 -0.72065,0.49863 -1.1574,0.67333c-0.43676,0.1747 -0.89171,0.31179 -1.36486,0.41128c-0.47315,0.09706 -0.94873,0.16136 -1.42673,0.1929c-0.47558,0.03397 -0.92082,0.05095 -1.33574,0.05095c-0.40521,0 -0.82741,-0.01456 -1.26659,-0.04368c-0.43676,-0.02912 -0.8723,-0.08007 -1.30662,-0.15286c-0.4319,-0.07279 -0.85895,-0.16985 -1.28115,-0.29117c-0.41977,-0.12132 -0.81649,-0.27418 -1.19016,-0.45859l-0.0182,-12.69502c0.36639,-0.15044 0.75583,-0.28632 1.16832,-0.40764c0.41492,-0.12132 0.83711,-0.22323 1.26659,-0.30573c0.4319,-0.0825 0.86138,-0.14437 1.28843,-0.18562c0.42705,-0.04368 0.84075,-0.06551 1.24111,-0.06551c0.4683,0 0.94024,0.02912 1.41582,0.08735c0.47558,0.05823 0.93296,0.15651 1.37214,0.29481c0.44161,0.13831 0.85289,0.31786 1.23383,0.53866c0.38095,0.2208 0.71458,0.49256 1.0009,0.81528c0.28632,0.32029 0.50955,0.69396 0.66969,1.12101c0.16257,0.42705 0.24386,0.91961 0.24386,1.47769c0,0.36881 -0.05338,0.71458 -0.16014,1.03729c-0.10434,0.32029 -0.25599,0.60903 -0.45495,0.86623c-0.19654,0.2572 -0.43554,0.47558 -0.71701,0.65513c-0.28146,0.17955 -0.60054,0.31301 -0.95722,0.40036c0.42705,0.11162 0.81649,0.2754 1.16832,0.49135c0.35183,0.21595 0.65028,0.47922 0.89535,0.7898c0.24749,0.30816 0.43797,0.65635 0.57142,1.04457c0.13588,0.38823 0.20382,0.80193 0.20382,1.24111zM76.89134,340.24317c0,-0.18926 -0.04003,-0.35062 -0.12011,-0.48407c-0.07764,-0.13588 -0.1747,-0.24628 -0.29117,-0.3312c-0.11404,-0.08735 -0.239,-0.15044 -0.37488,-0.18926c-0.13345,-0.03882 -0.25356,-0.05823 -0.36032,-0.05823c-0.13103,0 -0.25963,0.01941 -0.3858,0.05823c-0.12375,0.03882 -0.24385,0.08492 -0.36032,0.13831l-0.06187,2.18742c0.15286,0 0.34091,-0.01213 0.56414,-0.0364c0.22323,-0.02669 0.43797,-0.08492 0.64422,-0.1747c0.20625,-0.08978 0.38216,-0.2208 0.52775,-0.39308c0.14559,-0.1747 0.21838,-0.4137 0.21838,-0.71701zM75.49008,343.45696c-0.19169,0 -0.37609,0.01941 -0.55322,0.05823l-0.0364,2.24929c0.09706,0.01941 0.1929,0.03761 0.28753,0.0546c0.09706,0.01699 0.19169,0.02548 0.28389,0.02548c0.13588,0 0.28632,-0.01456 0.45131,-0.04368c0.165,-0.03154 0.31907,-0.09099 0.46223,-0.17834c0.14559,-0.08978 0.26569,-0.20988 0.36032,-0.36032c0.09706,-0.15286 0.14559,-0.35304 0.14559,-0.60054c0,-0.24992 -0.04853,-0.45374 -0.14559,-0.61146c-0.09463,-0.15772 -0.2111,-0.28025 -0.3494,-0.3676c-0.13831,-0.08978 -0.28996,-0.14922 -0.45495,-0.17834c-0.16257,-0.03154 -0.31301,-0.04731 -0.45131,-0.04731zM94.41318,342.41238c0,0.59933 -0.06915,1.17681 -0.20746,1.73246c-0.13831,0.55322 -0.33727,1.07369 -0.5969,1.5614c-0.2572,0.48528 -0.57142,0.93053 -0.94266,1.33574c-0.37124,0.40279 -0.78859,0.74855 -1.25203,1.03729c-0.46345,0.28874 -0.96814,0.5144 -1.51408,0.67697c-0.54594,0.16014 -1.12464,0.24022 -1.7361,0.24022c-0.58962,0 -1.15255,-0.07522 -1.68879,-0.22566c-0.53624,-0.15044 -1.03729,-0.36154 -1.50316,-0.6333c-0.46587,-0.27418 -0.88807,-0.60296 -1.26659,-0.98634c-0.37852,-0.3858 -0.70124,-0.81285 -0.96814,-1.28115c-0.26448,-0.47072 -0.47072,-0.97542 -0.61874,-1.51408c-0.14801,-0.53866 -0.22202,-1.10038 -0.22202,-1.68515c0,-0.57263 0.06915,-1.13314 0.20746,-1.68151c0.13831,-0.54837 0.33727,-1.0652 0.5969,-1.55048c0.25963,-0.48771 0.57263,-0.93538 0.93902,-1.34302c0.36881,-0.40764 0.78131,-0.75947 1.23747,-1.05549c0.45617,-0.29602 0.94994,-0.52532 1.48133,-0.68789c0.53381,-0.165 1.09674,-0.24749 1.68879,-0.24749c0.95116,0 1.81981,0.14801 2.60597,0.44403c0.78616,0.29602 1.45585,0.71822 2.00907,1.26659c0.55565,0.54837 0.98634,1.212 1.29207,1.99088c0.30573,0.77888 0.45859,1.64754 0.45859,2.60597zM90.03835,342.6708c0,-0.28389 -0.04125,-0.55808 -0.12375,-0.82256c-0.0825,-0.26691 -0.20261,-0.50348 -0.36032,-0.70973c-0.15772,-0.20867 -0.35304,-0.37609 -0.58598,-0.50227c-0.23294,-0.1286 -0.50105,-0.1929 -0.80436,-0.1929c-0.30816,0 -0.58355,0.05581 -0.82619,0.16742c-0.24264,0.11162 -0.45131,0.26448 -0.62602,0.45859c-0.1747,0.19169 -0.30816,0.41734 -0.40036,0.67697c-0.0922,0.25963 -0.13831,0.53381 -0.13831,0.82256c0,0.27661 0.03882,0.55322 0.11647,0.82983c0.08007,0.27661 0.19897,0.52653 0.35668,0.74976c0.15772,0.22323 0.35304,0.404 0.58598,0.54231c0.23536,0.13831 0.50712,0.20746 0.81528,0.20746c0.30816,0 0.58477,-0.06066 0.82983,-0.18198c0.24749,-0.12375 0.45617,-0.28874 0.62602,-0.49499c0.17227,-0.20625 0.30452,-0.44403 0.39672,-0.71337c0.0922,-0.26933 0.13831,-0.54837 0.13831,-0.83711zM107.09908,348.52332l-4.88802,0.62966l-0.59326,-2.22745h-2.24565l-0.49499,2.22745l-5.02632,-0.49135l3.92352,-13.12813l5.48128,-0.27661zM101.26475,343.91191l-0.74976,-3.43217l-0.72793,3.43217zM118.85749,339.86828c0,0.5144 -0.04489,0.98027 -0.13467,1.39762c-0.08735,0.41734 -0.22687,0.80072 -0.41856,1.15012c-0.18926,0.34698 -0.43554,0.66848 -0.73884,0.9645c-0.30088,0.2936 -0.66484,0.57506 -1.09189,0.84439l2.34392,4.18193l-4.4367,0.86623l-1.51772,-4.20013l-1.21927,0.04004l-0.17834,4.10186h-4.24016c0.03397,-1.49953 0.06551,-2.99177 0.09463,-4.47674c0.02912,-1.48497 0.0643,-2.976 0.10555,-4.4731c0.01213,-0.75704 0.02426,-1.50681 0.0364,-2.24929c0.01456,-0.74248 0.04125,-1.49103 0.08007,-2.24565c0.46102,-0.16985 0.91476,-0.31058 1.36122,-0.4222c0.44646,-0.11404 0.89413,-0.20139 1.34302,-0.26205c0.45131,-0.06309 0.90869,-0.10555 1.37214,-0.12739c0.46345,-0.02426 0.93781,-0.0364 1.4231,-0.0364c0.74976,0 1.47405,0.10434 2.17286,0.31301c0.70124,0.20625 1.32119,0.51683 1.85985,0.93174c0.53866,0.41249 0.97057,0.92811 1.29571,1.54684c0.32514,0.61631 0.48771,1.33453 0.48771,2.15466zM114.44263,340.18493c0,-0.27661 -0.03882,-0.52896 -0.11647,-0.75704c-0.07522,-0.23051 -0.18683,-0.42948 -0.33485,-0.5969c-0.14559,-0.16742 -0.32878,-0.29845 -0.54958,-0.39308c-0.2208,-0.09706 -0.47922,-0.14559 -0.77524,-0.14559c-0.13103,0 -0.25963,0.00849 -0.3858,0.02548c-0.12375,0.01699 -0.24507,0.04125 -0.36396,0.07279l-0.1565,3.66874h0.23658c0.28389,0 0.57142,-0.0364 0.86259,-0.10919c0.2936,-0.07279 0.55686,-0.18441 0.7898,-0.33485c0.23294,-0.15044 0.42341,-0.34334 0.57142,-0.5787c0.14801,-0.23779 0.22202,-0.52168 0.22202,-0.85167zM130.70316,341.54615c0,0.91961 -0.1189,1.74945 -0.35668,2.4895c-0.23536,0.73763 -0.56535,1.39398 -0.98998,1.96904c-0.4222,0.57506 -0.92568,1.07005 -1.51044,1.48497c-0.58477,0.41249 -1.22534,0.75219 -1.92172,1.0191c-0.69638,0.26691 -1.43765,0.46466 -2.22381,0.59326c-0.78373,0.12617 -1.59052,0.18926 -2.42035,0.18926c-0.30816,0 -0.61024,-0.00728 -0.90627,-0.02184c-0.29602,-0.01699 -0.59811,-0.04246 -0.90627,-0.07643l0.27661,-13.2264c0.72307,-0.23051 1.46677,-0.39308 2.23109,-0.48771c0.76675,-0.09463 1.52743,-0.14194 2.28205,-0.14194c0.93902,0 1.80283,0.14195 2.59141,0.42584c0.78859,0.28146 1.4692,0.68789 2.04183,1.21928c0.57263,0.53139 1.01788,1.18167 1.33574,1.95084c0.31786,0.76917 0.47679,1.64026 0.47679,2.61325zM126.66317,342.17581c0.00728,-0.35426 -0.03033,-0.69517 -0.11283,-1.02273c-0.0825,-0.32999 -0.21716,-0.62116 -0.404,-0.87351c-0.18683,-0.25235 -0.42584,-0.45617 -0.71701,-0.61146c-0.28874,-0.15529 -0.6333,-0.239 -1.03365,-0.25113l-0.39308,6.11093c0.39308,-0.05823 0.75098,-0.18805 1.07369,-0.38944c0.32271,-0.20139 0.60054,-0.44767 0.83348,-0.73884c0.23294,-0.2936 0.4137,-0.61874 0.54231,-0.97542c0.1286,-0.35911 0.19897,-0.72914 0.2111,-1.11009z" fill="#fdfdfd" stroke="#000000" stroke-width="0.5" stroke-linecap="square"/></g></g></svg>