<svg version="1.1" xmlns="http://www.w3.org/2000/svg" xmlns:xlink="http://www.w3.org/1999/xlink" width="106.33543" height="117.82234" viewBox="0,0,106.33543,117.82234"><defs><linearGradient x1="200.37861" y1="192.27237" x2="200.37861" y2="228.08984" gradientUnits="userSpaceOnUse" id="color-1"><stop offset="0" stop-color="#b6af2c"/><stop offset="1" stop-color="#776c1f"/></linearGradient></defs><g transform="translate(-186.83229,-121.08883)"><g data-paper-data="{&quot;isPaintingLayer&quot;:true}" fill-rule="nonzero" stroke-linecap="butt" stroke-linejoin="miter" stroke-miterlimit="10" stroke-dasharray="" stroke-dashoffset="0" style="mix-blend-mode: normal"><path d="M230.41485,220.57692c-0.19045,0.17398 -1.38956,1.17443 -2.58867,-0.02469c-1.30742,-1.30742 0,-2.61487 0,-2.61487l0.33207,-0.33207c0.13992,-0.22785 0.31859,-0.39135 0.50839,-0.50839c0.49306,-0.49306 1.329,-1.329 1.82208,-1.82208c4.12533,-4.12533 7.1166,-6.48486 13.23501,-7.03893c4.24106,-0.38407 10.68759,2.55634 7.61848,8.24412c-0.41529,0.76965 -4.70325,1.84157 -5.42395,2.04751c-5.2978,1.51381 -10.05588,2.49914 -15.50338,2.04936z" fill="#912c2f" stroke="none" stroke-width="0.5"/><path d="M220.30747,206.93179c-0.54556,-0.15248 -1.3063,-0.57774 -1.3063,-1.76376c0,-1.84898 1.84898,-1.84898 1.84898,-1.84898h1.47919c7.19835,0 14.31374,-0.82569 21.49386,-1.18052c2.57693,-0.12735 8.59609,-2.20039 10.89368,-1.4296c4.77993,1.60356 2.61624,3.2434 1.23644,5.69224c-7.62446,7.6307 -19.36457,13.04806 -29.59127,6.53692c-2.46729,-1.57086 -4.25391,-3.75589 -6.05459,-6.0063z" fill="#6f99a1" stroke="none" stroke-width="0.5"/><path d="M230.5845,231.44795c-1.82071,-0.01875 -1.82071,-1.84884 -1.82071,-1.84884l0.09489,-0.30282c-0.54531,-1.63597 -3.95179,-7.36037 -3.45691,-8.49714c0.84009,-1.92979 5.43524,-0.88658 7.02141,-2.11627c3.13458,-2.43013 0.68895,-9.1309 7.2557,-7.73025c3.08942,0.65897 2.73055,3.73798 4.26207,5.4053c0.67408,0.73386 4.11362,-0.89263 4.53573,-1.02398c1.39303,0.42112 3.36587,0.05649 4.1791,1.26335c0.68763,1.02049 -0.46859,2.43019 -0.91852,3.57553c-1.31883,3.35725 -3.62976,5.51573 -5.74869,8.17923c-1.44869,1.82097 0.40646,8.98852 -4.4586,8.39236c-2.98917,-0.36629 -1.7441,-7.01541 -4.86935,-7.96354c-0.82547,-0.25042 -0.05499,0.95703 -0.05993,1.21628c-0.01942,1.01723 0.08579,2.11424 -0.3541,3.03166c-0.03926,0.08189 -0.08068,0.16242 -0.12403,0.24173l0.03562,0.01526l-0.87072,2.03169c-0.27325,0.67983 -0.9387,1.1598 -1.71627,1.1598c-0.83174,0 -1.53522,-0.54919 -1.76759,-1.30473l-0.57819,-1.73459l0.05663,-0.01887l-0.10206,-0.14101c-0.0564,-0.62705 -0.26184,-1.27431 -0.59546,-1.83019z" fill="#272f1c" stroke="none" stroke-width="0.5"/><path d="M222.2128,237.61122c-4.01751,-0.62293 -9.85708,-4.46877 -11.80937,-7.94589c-2.67246,-4.75983 1.18251,-7.22998 5.61086,-7.53252c2.54688,-0.17402 4.55566,0.58473 6.91523,1.40458c2.59977,2.04935 3.75086,4.09615 5.20774,7.00989l0.29584,0.59167c0,0 0.43339,0.86677 0.04514,1.65907c0.50234,3.70261 -2.41586,5.41013 -6.26544,4.81323z" data-paper-data="{&quot;index&quot;:null}" fill="#f9d3c6" stroke="none" stroke-width="0.5"/><path d="M246.36826,233.98133c-0.38825,-0.79229 0.04515,-1.65908 0.04515,-1.65908l0.29584,-0.59167c1.45687,-2.91375 2.60795,-4.96052 5.20774,-7.00988c2.35957,-0.81984 4.36836,-1.57857 6.91524,-1.40458c4.42833,0.30254 8.28334,2.77269 5.61087,7.53251c-1.95229,3.47714 -7.79185,7.32297 -11.80937,7.9459c-3.84958,0.59688 -6.76779,-1.11062 -6.26545,-4.81322z" fill="#f9d3c6" stroke="none" stroke-width="0.5"/><path d="M198.64915,192.69124l0.63923,-0.34198c1.69046,-0.20769 3.46368,0.0148 5.07944,0.55339c4.91329,4.76814 5.80489,10.4537 7.88026,16.66192c1.11041,3.32168 2.00856,5.77916 1.55807,9.42603c-0.73759,5.97115 -3.36151,9.87164 -9.78436,8.96987c-2.46154,-0.34559 -4.32609,-1.02645 -6.6056,-2.01935c-3.542,-2.81422 -7.5762,-4.97556 -9.35216,-9.49505c-3.42821,-8.72421 0.36268,-22.68832 10.58512,-23.75483z" fill="url(#color-1)" stroke="none" stroke-width="0.5"/><path d="M272.6655,187.68068c-0.29253,0.41714 -1.07582,1.25243 -2.34989,0.61538c-1.65377,-0.8269 -0.8269,-2.48067 -0.8269,-2.48067l0.29584,-0.59168c0.90624,-1.78735 1.16829,-2.6702 2.78465,-4.09848c6.55791,-5.79474 11.20692,2.63908 16.07059,5.9082c2.61172,3.02937 5.00898,6.00726 4.44475,10.2593c-0.86527,6.52072 -11.32591,10.57097 -16.53853,6.51144c-5.20954,-4.05713 -0.50531,-11.13037 -3.88049,-16.12351z" fill="#7d1e0f" stroke="none" stroke-width="0.5"/><path d="M205.1856,201.92233c-0.68046,-0.53816 -0.68046,-1.4877 -0.68046,-1.4877v-0.59168c0.00418,-4.46113 0.16084,-7.13428 3.77736,-9.98042c14.75847,-2.47013 29.40047,-5.14434 44.44914,-5.76225c7.2367,-0.29714 16.02304,0.48428 18.42803,8.48367c1.31916,5.96944 2.49166,14.93963 0.55359,20.86053c-1.06579,3.25602 -2.57089,7.43098 -6.90029,7.17732c-2.82074,-0.16527 -4.30208,-2.70128 -6.31435,-4.20961c-2.29116,-1.71738 -4.9396,-2.71147 -7.56196,-3.78847l-0.0637,0.25482l-2.32917,-0.5823c-0.8234,-0.18686 -1.43806,-0.92321 -1.43806,-1.80316c0,-0.59028 0.27661,-1.11597 0.70727,-1.45449l1.46583,-1.17269c2.91793,-2.33265 5.67217,-4.2133 7.56474,-7.49481c-2.05471,0.77985 -4.66735,1.46598 -5.08651,1.5646c-7.5341,1.77249 -15.917,1.65309 -23.61321,1.23257c-1.30845,-0.07149 -4.04395,-0.24424 -6.1569,-0.85183c1.08784,1.41219 2.23706,2.76391 3.36428,4.14877c0.83268,1.02299 2.49476,1.87682 2.34511,3.18735c-0.13382,1.17195 -1.95657,1.31809 -2.93485,1.97713c-2.87786,1.22295 -5.96696,3.04542 -7.67892,5.77665c-0.94807,1.51254 -1.29268,3.7196 -3.41825,4.33196c-1.10372,0.31797 -2.31993,-0.32255 -3.3385,-0.85341c-0.59757,-0.31144 -0.76251,-1.1364 -1.28821,-1.55797c-2.19026,-1.75648 -4.64413,-2.19377 -5.38406,-5.51284c-0.81891,-3.67337 0.91502,-7.96491 1.53204,-11.89177z" fill="#e45723" stroke="none" stroke-width="0.5"/><path d="M192.84769,166.53725c1.65097,-1.21642 5.14601,0.35092 5.95831,-1.53205c0.88421,-2.04971 -0.22078,-4.47839 0.02745,-6.69684c0.2158,-1.9287 1.06978,-6.94334 1.62443,-8.67759c0.91243,-2.85304 2.90977,-5.26121 4.72688,-7.64249c3.40167,-4.45779 5.64296,-8.93902 9.69244,-12.98152c11.80703,-8.76376 29.98425,-11.10457 42.91641,-2.66098c8.04381,5.25192 13.4466,14.64255 16.54683,23.49523c0.24541,0.52274 0.47942,1.05442 0.69759,1.59851c0.23233,0.57939 -0.07707,1.5276 0.47949,1.81028c0.50734,0.25767 1.09978,0.02856 1.68815,-0.12273c1.74496,3.52169 3.82677,7.2395 4.4586,8.95244c1.7816,4.83023 0.15271,10.95095 -1.34038,16.48841c-1.36492,1.57716 -2.85547,3.00548 -4.44166,4.2061c-1.36813,1.03556 -2.57389,1.72725 -3.65638,2.34245c-0.36291,0.20624 -0.71195,0.40388 -1.04863,0.60301c-1.12903,-2.30188 -2.5637,-3.94397 -4.91926,-5.14607c1.37115,-1.34252 2.22201,-3.21435 2.22201,-5.28491c0,-0.27731 -0.01526,-0.55106 -0.04499,-0.82045c1.15138,-2.66258 -5.9579,-8.85509 -7.5158,-10.3971c-8.78112,-8.69157 -26.43297,-9.68414 -37.45983,-4.86436c-8.12734,3.55241 -11.26424,12.42167 -12.87978,20.54737c-0.77497,3.89786 -0.51738,8.03632 -1.41926,11.83432c-0.0086,0.03617 -0.01507,0.07476 -0.01991,0.11522c-0.28987,0.43609 -0.55454,0.89755 -0.80087,1.37749c-2.01999,0.14689 -5.11695,-0.00786 -7.04335,-0.49029c-0.81418,-0.2039 -1.57592,-0.40498 -2.28853,-0.60604c-0.97946,-1.32382 -1.83363,-2.51838 -2.24135,-3.42629c-2.35763,-5.25009 -4.59622,-14.83648 -4.8784,-21.23828c0.30898,-0.27829 0.63011,-0.53987 0.95982,-0.7828z" fill="#daa07e" stroke="none" stroke-width="0.5"/><path d="M192.53528,168.02693c4.02469,-2.30914 6.26155,-4.89577 11.47013,-1.1857c1.55783,1.10964 1.63517,3.46211 2.3202,5.24786c1.4469,3.77167 2.79619,8.73135 3.1001,12.75252c0.06766,0.89522 0.24561,1.84258 0.33879,2.7746c-0.10533,1.13837 -0.2448,2.26495 -0.47039,3.36598c-0.44812,0.78682 -1.28665,1.51913 -2.34154,2.15111c-1.87629,0.01557 -4.13259,-0.161 -5.65641,-0.54263c-0.81418,-0.2039 -1.57593,-0.40498 -2.28854,-0.60604c-0.97946,-1.32382 -1.83362,-2.51838 -2.24134,-3.42629c-2.23933,-4.98664 -4.37125,-13.8853 -4.82137,-20.25142z" fill="#ac6244" stroke="none" stroke-width="0.5"/><path d="M275.88221,182.77401c-0.85937,0.65048 -1.6547,1.16528 -2.39563,1.61068c-2.71408,-0.76444 -5.28523,-2.15845 -6.19135,-3.7819c-0.14697,-0.26334 -0.2564,-0.53808 -0.33569,-0.82169c0.9537,-1.24539 1.52039,-2.80282 1.52039,-4.49262c0,-0.27731 -0.01526,-0.55106 -0.04499,-0.82045c0.34877,-0.80654 -0.06045,-1.93696 -0.84371,-3.16392c0.57635,-3.26109 1.60417,-6.74766 2.68662,-9.56933c0.68504,-1.78575 0.76237,-4.13822 2.3202,-5.24786c2.20634,-1.57157 3.87945,-2.01331 5.3811,-1.82488c1.54375,3.02103 3.1447,5.95249 3.68506,7.41748c1.7816,4.83023 0.15271,10.95095 -1.34038,16.48841c-1.36492,1.57716 -2.85547,3.00548 -4.44165,4.2061z" fill="#ac6244" stroke="none" stroke-width="0.5"/><path d="M266.10476,167.47616c1.9314,-0.52375 3.51087,1.05572 3.51087,1.05572l0.29583,0.29584c4.96197,5.19994 5.79593,10.74865 5.79593,17.7963c-1.17971,5.14483 -4.81533,15.55235 -13.18409,9.81404c-1.80914,-1.24048 -1.20692,-4.22678 -1.5777,-6.38878c-0.78366,-4.56952 0.80135,-10.28111 -2.05434,-14.39822c-1.02634,-1.4797 -2.30719,-0.83183 -3.75651,-0.55305c-4.09706,0.78811 -5.81509,2.577 -9.16343,4.82753c-1.88856,1.26936 -3.59529,3.60298 -5.86792,3.48841c-2.13157,-0.10745 -3.24488,-2.78038 -4.97161,-4.03482c-4.86633,-3.53531 -12.38178,-2.43162 -16.32629,1.75804c-0.52392,2.77078 -0.21542,9.12504 -1.24289,11.27006c-1.08607,2.26732 -2.51325,5.07601 -4.95134,5.68922c-4.91961,1.23734 -9.81543,-4.33267 -10.51376,-8.41056c-0.39395,-2.30043 1.84251,-6.46482 2.04824,-9.05365c0.15836,-1.99279 -0.80929,-5.12896 -0.87475,-7.00141c-0.0757,-2.16512 -0.89614,-4.64502 0.23092,-6.49522c1.42541,-2.33999 7.58077,-3.7021 10.17097,-4.06341c0.78639,-0.10969 1.69158,0.41664 2.38192,0.02437c2.44681,-1.39036 -0.38254,-6.36899 1.69111,-8.27163c1.5832,-1.45264 8.91711,-1.04984 12.7326,0.24448c0.0493,-1.86491 0.09054,-3.73458 1.38595,-4.86573c2.51709,-2.19788 8.94849,0.45942 11.48253,1.58437c2.59038,1.14997 4.65854,3.27683 7.21877,4.49244c1.10839,0.52626 2.46543,0.30567 3.59768,0.77842c4.77352,1.99319 8.8776,6.16819 11.94133,10.41725z" fill="#a94c12" stroke="none" stroke-width="0.5"/><path d="M217.01635,176.46265c5.69009,-3.9057 12.53881,-6.02065 19.40175,-2.85241c1.9679,0.90847 3.21802,2.58909 4.83785,3.77002c0.61466,0.44812 1.05532,-1.10409 1.49061,-1.72788c1.30512,-1.87028 2.80858,-3.43172 4.57712,-4.85148c4.13054,-2.35343 10.63832,-3.83865 15.20013,-1.59297c7.04164,3.46644 11.24838,13.01171 9.22668,20.44295c-1.0853,3.98923 -4.29503,6.4176 -7.41616,8.85791c-3.04235,1.05854 -6.31539,1.44555 -9.05804,3.18749c-2.48348,1.57732 -4.30863,3.52932 -7.26496,4.35391c-7.4892,2.08889 -19.97097,1.49862 -25.94951,-3.28421c-0.97582,-1.21365 -3.09922,-0.04582 -5.00167,-0.56168c-0.92968,-0.25209 -3.6906,-1.88958 -4.32166,-2.53307c-3.64844,-3.72024 -5.1974,-13.28319 -2.68345,-17.87041c1.04344,-1.90399 2.96857,-3.09227 4.61086,-4.4061l0.43931,-0.45529c0,0 0.87614,-0.87614 1.91119,-0.47677z" fill="#dc953c" stroke="none" stroke-width="0.5"/><path d="M235.8862,193.80606l-1.22534,-1.27447c-0.26404,-1.09025 -1.12109,-2.19832 -0.79211,-3.27077c0.79003,-2.57554 7.52334,-4.19608 9.78124,-3.29194c4.89007,1.95816 3.04955,8.25663 -1.07473,9.46102c-0.3853,0.11252 -4.3036,0.58568 -4.63304,0.62687c0,0 -1.83471,0.22933 -2.06404,-1.60536c-0.03026,-0.24198 -0.02458,-0.45603 0.00803,-0.64532z" fill="#7cacc1" stroke="none" stroke-width="0.5"/><path d="M238.28253,189.63658c0,7.10731 -5.82291,12.86893 -13.00582,12.86893c-7.18292,0 -13.00583,-5.76161 -13.00583,-12.86893c0,-7.10731 5.82291,-12.86891 13.00583,-12.86891c7.18292,0 13.00582,5.7616 13.00582,12.86891z" fill="#9eddf8" stroke="none" stroke-width="0"/><path d="M267.86626,189.0449c0,7.10731 -5.8229,12.86892 -13.00583,12.86892c-7.18292,0 -13.00583,-5.76162 -13.00583,-12.86892c0,-7.10731 5.82291,-12.86892 13.00583,-12.86892c7.18293,0 13.00583,5.76161 13.00583,12.86892z" fill="#9eddf8" stroke="none" stroke-width="0"/><path d="M227.43254,208.42225c0,1.84898 -1.84898,1.84898 -1.84898,1.84898l0.23522,-0.1952c-5.27607,2.5923 -9.099,8.02216 -12.69575,12.5181c0,0 -1.15505,1.44382 -2.59885,0.28877c-1.44382,-1.15505 -0.28877,-2.59885 -0.28877,-2.59885c3.98448,-4.98059 8.13562,-10.57785 13.9296,-13.51558l1.41857,-0.19521c0,0 1.84898,0 1.84898,1.84898z" fill="#e38a6a" stroke="none" stroke-width="0.5"/><path d="M265.95554,222.38586c-1.53845,1.02564 -2.56407,-0.51282 -2.56407,-0.51282l-0.49704,-0.75809c-3.70743,-4.64932 -10.60919,-6.96857 -16.22271,-8.54816c0,0 -1.77784,-0.50795 -1.26988,-2.2858c0.50796,-1.77784 2.2858,-1.26988 2.2858,-1.26988c6.42964,1.8608 13.82259,4.46945 18.09441,9.79375l0.68632,1.01693c0,0 1.02564,1.53844 -0.51282,2.56408z" fill="#e38a6a" stroke="none" stroke-width="0.5"/><path d="M247.49726,214.80178c-0.51413,-0.13595 -1.09408,-0.50668 -1.25389,-1.46559c-0.30398,-1.82382 1.51985,-2.12779 1.51985,-2.12779l2.34049,-0.3024c3.9277,0.5801 7.31192,2.29624 10.59251,4.47958c2.17393,1.75176 4.90002,3.86033 3.88191,7.20257c-0.7828,2.56975 -7.10326,6.819 -9.41224,7.57985c-2.60477,0.85833 -6.64375,1.33856 -8.17353,-1.83877c-0.95277,-1.97893 0.05478,-5.7907 0.84577,-7.72111c0.36209,-0.88371 1.6499,-1.60562 1.36717,-2.51783c-0.36556,-1.17942 -1.3256,-2.11685 -1.70804,-3.28848z" fill="#df8a2a" stroke="none" stroke-width="0.5"/><path d="M228.96401,218.09027c-0.28273,0.91221 1.00506,1.63413 1.36716,2.51783c0.79097,1.93043 1.79855,5.7422 0.84577,7.72112c-1.52978,3.17733 -5.56875,2.69709 -8.17353,1.83877c-2.30898,-0.76085 -8.62944,-5.01008 -9.41224,-7.57985c-1.01811,-3.34223 1.708,-5.45081 3.88193,-7.20257c3.28062,-2.18334 6.66483,-3.89949 10.59251,-4.47959l2.34047,0.3024c0,0 1.82382,0.30398 1.51985,2.1278c-0.15981,0.95891 -0.73976,1.32962 -1.25389,1.46558c-0.38243,1.17164 -1.34251,2.10906 -1.70805,3.28848z" data-paper-data="{&quot;index&quot;:null}" fill="#df8a2a" stroke="none" stroke-width="0.5"/><path d="M240.00576,132.35484l1.59535,0.81856c0.30634,0.40303 0.61266,0.80607 0.91899,1.20911l1.03576,0.59067c1.0949,0.94971 2.09728,2.01717 2.97827,3.16809c1.08615,1.82416 3.3257,5.25102 2.69403,7.58795c-1.79242,6.63124 -20.26146,6.38205 -19.26044,-1.61741c0.46232,-3.69454 5.16721,-8.03686 7.16799,-11.17445c0,0 0.94677,-1.48396 2.44068,-0.63228c0.25439,0.00579 0.42938,0.04976 0.42938,0.04976z" fill="#e1c52a" stroke="#e0812b" stroke-width="1"/><path d="M216.58435,198.49271c-1.30742,-1.30742 0,-2.61486 0,-2.61486l0.75113,-0.73514c3.60491,-4.41299 6.10703,-10.82664 8.66515,-15.94289c0,0 0.8269,-1.65377 2.48067,-0.8269c1.65377,0.8269 0.8269,2.48067 0.8269,2.48067c-2.70399,5.40801 -5.35465,11.86048 -9.08508,16.5992l-1.0239,1.03988c0,0 -1.30743,1.30742 -2.61487,0z" fill="#c9eaf7" stroke="none" stroke-width="0.5"/><path d="M224.55793,201.97793c-1.53844,-1.02564 -0.51282,-2.56408 -0.51282,-2.56408l1.1226,-1.67744c2.70599,-5.43795 5.501,-10.71415 8.22886,-16.16989c0,0 0.8269,-1.65377 2.48067,-0.8269c1.65377,0.8269 0.82689,2.48067 0.82689,2.48067c-2.76177,5.52353 -5.57684,10.87328 -8.33802,16.37222l-1.2441,1.8726c0,0 -1.02564,1.53844 -2.56408,0.51282z" fill="#c9eaf7" stroke="none" stroke-width="0.5"/><path d="M246.05818,192.32593c-0.05258,0.45715 -0.33375,1.6791 -1.83689,1.6791c-1.84898,0 -1.84898,-1.84898 -1.84898,-1.84898l0.19521,-1.12274c2.28929,-4.57456 5.57983,-8.67672 8.39878,-12.91975c0,0 1.02564,-1.53844 2.56409,-0.51282c1.53844,1.02564 0.51282,2.56408 0.51282,2.56408c-2.66701,3.98523 -5.78153,7.87685 -7.98501,12.1611z" fill="#c9eaf7" stroke="none" stroke-width="0.5"/><path d="M248.47588,200.51742c-1.45703,-0.97135 -0.48567,-2.42838 -0.48567,-2.42838l0.45113,-0.65233c3.52521,-7.05042 7.13924,-12.87475 11.95161,-19.06409c0,0 1.07509,-1.38226 2.45736,-0.30717c1.38225,1.07509 0.30717,2.45737 0.30717,2.45737c-4.68367,6.01994 -8.14981,11.61259 -11.5836,18.48017l-0.66959,1.02876c0,0 -0.97135,1.45703 -2.42838,0.48568z" fill="#c9eaf7" stroke="none" stroke-width="0.5"/><path d="M217.32893,171.09943c-0.30985,-0.58378 -0.21172,-1.23533 -0.21172,-1.23533l2.10673,-3.3288c2.62646,0.02541 4.44655,0.29842 6.85228,1.38429c1.87425,0.84598 4.45396,1.76251 5.96546,3.19627c2.57225,2.43991 2.90615,5.94657 -0.29997,8.25638c-2.59231,1.86759 -12.41485,0.69842 -14.31073,-2.18428c-1.09151,-1.65967 -0.53355,-3.7876 -0.28557,-5.52457c0,0 0.03873,-0.2571 0.18352,-0.56395z" fill="#672e0b" stroke="none" stroke-width="0.5"/><path d="M260.53207,169.51411c0.51441,1.67749 1.39572,3.69311 0.57486,5.50202c-1.42575,3.1419 -10.94806,5.8206 -13.79868,4.37772c-3.52561,-1.78452 -3.73969,-5.30053 -1.57706,-8.1099c1.27083,-1.65086 3.67712,-2.95647 5.39744,-4.08294c2.20816,-1.44591 3.96388,-1.99794 6.55461,-2.43046l2.59759,2.9617c0,0 0.19801,0.62844 -0.01753,1.25322c0.19065,0.28068 0.26878,0.52867 0.26878,0.52867z" data-paper-data="{&quot;index&quot;:null}" fill="#672e0b" stroke="none" stroke-width="0.5"/></g></g></svg>