<svg version="1.1" xmlns="http://www.w3.org/2000/svg" xmlns:xlink="http://www.w3.org/1999/xlink" width="275.50843" height="259.24963" viewBox="0,0,275.50843,259.24963"><g transform="translate(-102.24579,-50.37519)"><g data-paper-data="{&quot;isPaintingLayer&quot;:true}" fill="#cbcbcb" fill-rule="nonzero" stroke="none" stroke-linecap="butt" stroke-linejoin="miter" stroke-miterlimit="10" stroke-dasharray="" stroke-dashoffset="0" style="mix-blend-mode: normal"><path d="M229.8526,179.36152c0,-10.24643 8.3064,-18.55283 18.55283,-18.55283c10.24643,0 18.55283,8.3064 18.55283,18.55283c0,10.24643 -8.3064,18.55283 -18.55283,18.55283c-10.24643,0 -18.55283,-8.3064 -18.55283,-18.55283z" stroke-width="0.5"/><path d="M118.50457,180c0,-71.58981 58.03501,-129.62481 129.62483,-129.62481c71.58981,0 129.62481,58.03501 129.62481,129.62481c0,71.58981 -58.03501,129.62481 -129.62481,129.62481c-71.58981,0 -129.62481,-58.03501 -129.62481,-129.62481z" stroke-width="0"/><path d="M102.24579,222.09466v0v0z" stroke-width="0"/></g></g></svg>