<svg version="1.1" xmlns="http://www.w3.org/2000/svg" xmlns:xlink="http://www.w3.org/1999/xlink" width="570.87401" height="596.94629" viewBox="0,0,570.87401,596.94629"><defs><radialGradient cx="110.27447" cy="346.82183" r="57.44865" gradientUnits="userSpaceOnUse" id="color-1"><stop offset="0" stop-color="#858585"/><stop offset="1" stop-color="#656565"/></radialGradient><radialGradient cx="223.49637" cy="202.74452" r="242.7449" gradientUnits="userSpaceOnUse" id="color-2"><stop offset="0" stop-color="#433122"/><stop offset="1" stop-color="#4c3624"/></radialGradient><radialGradient cx="215.52209" cy="328.33947" r="130.36358" gradientUnits="userSpaceOnUse" id="color-3"><stop offset="0" stop-color="#ffde41"/><stop offset="1" stop-color="#fecf40"/></radialGradient><radialGradient cx="233.36715" cy="15.34089" r="187.6876" gradientUnits="userSpaceOnUse" id="color-4"><stop offset="0" stop-color="#9c9c9c"/><stop offset="1" stop-color="#2b2b2b"/></radialGradient><radialGradient cx="208.13939" cy="241.76364" r="174.03618" gradientUnits="userSpaceOnUse" id="color-5"><stop offset="0" stop-color="#ffde41"/><stop offset="1" stop-color="#fecf40"/></radialGradient><radialGradient cx="245.50628" cy="450.27257" r="63.04082" gradientUnits="userSpaceOnUse" id="color-6"><stop offset="0" stop-color="#ffde41"/><stop offset="1" stop-color="#fecf40"/></radialGradient></defs><g transform="translate(43.93551,130.89101)"><g data-paper-data="{&quot;isPaintingLayer&quot;:true}" fill-rule="nonzero" stroke-linejoin="miter" stroke-miterlimit="10" stroke-dasharray="" stroke-dashoffset="0" style="mix-blend-mode: normal"><path d="M124.63663,369.56191c-26.43999,0 -47.87388,-25.72064 -47.87388,-57.44865c0,-31.728 21.43388,-57.44864 47.87388,-57.44864c26.44,0 47.87387,25.72064 47.87387,57.44865c0,31.728 -21.43387,57.44865 -47.87387,57.44865z" data-paper-data="{&quot;index&quot;:null}" fill="url(#color-1)" stroke="none" stroke-width="0" stroke-linecap="butt"/><path d="M233.91287,-130.89101l129.27765,73.21205l6.37285,60.19656l-137.4713,-76.46589l-115.62155,69.95819l-2.7312,-40.67338l40.05786,-30.91175z" data-paper-data="{&quot;index&quot;:null}" fill="#c9c9ca" stroke="none" stroke-width="0" stroke-linecap="round"/><path d="M232.19424,-87.98197l143.514,73.21205l7.07464,60.19656l-152.60996,-76.46589l-128.35406,69.95819l-3.032,-40.67336l44.46914,-30.91175z" data-paper-data="{&quot;index&quot;:null}" fill="#dfdfdf" stroke="none" stroke-width="0" stroke-linecap="round"/><path d="M361.67294,316.87559l24.59309,130.85148l-109.43925,-67.94211l81.15717,-78.00761z" data-paper-data="{&quot;index&quot;:null}" fill="#ffdd40" stroke="#cd5a1d" stroke-width="0" stroke-linecap="round"/><path d="M125.90271,298.89151l81.15721,78.0076l-109.43925,67.94212l24.59309,-130.85147z" data-paper-data="{&quot;index&quot;:null}" fill="#ffdd40" stroke="#cd5a1d" stroke-width="0" stroke-linecap="round"/><path d="M397.62535,247.29226c-4.33488,-2.21328 -8.49467,-5.20949 -12.82056,-7.79877c-11.12898,-0.49585 -19.26184,-5.73301 -26.12455,-14.75069c-1.77242,-2.14023 -4.78369,-3.66906 -5.31721,-6.42068c-0.7457,-3.84598 0.42568,-7.96239 1.82038,-11.61439c0.77306,-2.02426 3.28398,-2.86283 4.41181,-4.70446c1.18935,-1.9421 1.4051,-4.36897 2.40181,-6.42144c4.47877,-9.22278 10.68854,-17.61273 15.17233,-26.81486c6.40715,-13.14943 10.33298,-26.2512 14.87762,-40.20449c2.4938,-7.6567 3.93552,-25.69685 14.7746,-26.61434c3.73146,-0.31584 6.69224,3.49134 9.76376,5.68227c8.17521,5.83147 15.51704,12.52599 24.25755,17.90091c7.73494,5.91662 15.84252,11.26626 23.63819,17.07204c22.90418,17.05785 48.18661,41.4095 57.26838,69.26967c5.75403,17.65167 5.1136,38.65356 -8.3094,52.69703c-11.25491,10.77483 -24.88952,7.17778 -39.03269,5.97159c-20.59084,-1.75606 -41.90896,-9.1835 -61.13355,-17.37616c-5.12896,-2.18573 -10.67708,-3.33492 -15.64854,-5.87321z" data-paper-data="{&quot;index&quot;:null}" fill="#ffdd40" stroke="#e7a22a" stroke-width="3.5" stroke-linecap="butt"/><path d="M98.19829,236.33192c-4.32588,2.58928 -8.48568,5.58546 -12.82056,7.79875c-4.97146,2.5383 -10.51956,3.68752 -15.64853,5.87325c-19.22459,8.19263 -40.5427,15.62009 -61.13354,17.37616c-14.14319,1.20618 -27.77779,4.80321 -39.0327,-5.97162c-13.42299,-14.04346 -14.06345,-35.04535 -8.3094,-52.69703c9.08178,-27.86015 34.36418,-52.21183 57.26838,-69.26967c7.79564,-5.80579 15.90325,-11.15543 23.63819,-17.07203c8.74048,-5.37492 16.08233,-12.06944 24.25755,-17.90088c3.07149,-2.19092 6.0323,-5.99811 9.76376,-5.68227c10.83908,0.91747 12.28078,18.95763 14.7746,26.61433c4.54462,13.95332 8.47047,27.0551 14.87762,40.20452c4.48379,9.20212 10.69356,17.59208 15.17233,26.81486c0.9967,2.05247 1.21245,4.47934 2.40181,6.42144c1.12783,1.84163 3.63875,2.68023 4.41181,4.70447c1.3947,3.65201 2.56609,7.76839 1.82038,11.61436c-0.53354,2.75162 -3.54482,4.28045 -5.31722,6.42068c-6.86273,9.01766 -14.99558,14.25485 -26.12455,14.75069z" data-paper-data="{&quot;index&quot;:null}" fill="#ffdd40" stroke="#e7a22a" stroke-width="3.5" stroke-linecap="butt"/><path d="M434.37358,123.845c0,40.78323 -28.92866,90.63954 -46.5572,124.09937c-36.44623,69.17677 -71.67156,151.81128 -149.54328,151.81128c-81.15548,0 -104.54403,-88.12359 -138.80913,-162.08843c-14.5165,-31.33536 -44.39857,-94.94157 -44.39857,-132.1692c0,-19.83759 19.62355,-34.98654 28.45188,-51.41577c16.49468,-30.6961 83.21757,-35.84538 100.65765,-56.5772c0.97134,-1.15469 36.54546,12.4703 37.51856,11.42392c31.17501,-33.52284 -24.6691,-50.1936 36.40968,-50.1936c50.79128,0 54.38036,42.98097 72.79802,59.47443c15.78284,14.13393 49.10468,-1.35327 57.43388,34.57215c4.06092,17.51554 46.03848,48.08574 46.03848,71.06309z" data-paper-data="{&quot;index&quot;:null}" fill="url(#color-2)" stroke="none" stroke-width="0" stroke-linecap="butt"/><path d="M120.00903,268.94059c3.0532,-2.65791 6.79637,-0.26092 6.79637,-0.26092c11.90309,7.64659 24.63724,10.52299 37.94213,15.08341c7.11341,2.43822 13.69719,5.5006 21.4239,5.97694c3.36618,0.20754 6.77259,-0.3704 10.11929,0.03428c8.56625,1.03582 17.00095,4.50503 25.75036,5.04445c4.58237,0.28251 9.15066,-0.91048 13.74246,-0.91424c8.12401,-0.00663 15.80751,0.37972 23.78726,-0.91171c14.44091,-3.94294 29.08568,-2.61482 43.75685,-5.26988c13.8975,-2.51503 28.37063,-3.9978 42.13368,-7.25213c5.94004,-1.40454 11.15996,-4.53143 16.81994,-6.6651l4.90951,-3.77263c0.98127,-0.76737 2.23343,-1.22744 3.59746,-1.22744c3.14912,0 5.702,2.45212 5.702,5.47699c0,0.76297 -0.16242,1.48948 -0.45586,2.14942l-2.12945,5.11361l-0.16122,-0.06193c-0.06113,0.263 -0.12967,0.52485 -0.20638,0.7854c-1.58475,5.38135 -9.17431,10.92088 -11.76745,16.35531c-3.94823,8.2743 -6.12271,18.78978 -13.07965,25.54559c-7.99055,7.75957 -19.17968,11.54141 -29.59871,14.67475c-10.7656,3.23759 -20.77431,9.19979 -31.75308,11.84253c-7.24111,1.74304 -15.44842,2.30703 -22.84323,3.30935c-19.13186,0.03287 -38.39002,0.36053 -57.4233,-1.04578c-9.17962,-0.67825 -18.13386,-3.46873 -27.28478,-4.18803c-7.14847,-0.56189 -14.0398,-0.77254 -21.1533,-2.14743c-2.95032,-0.57022 -6.3048,-0.31072 -8.80412,-1.92098c-2.42354,-1.56146 -3.359,-4.58632 -4.94659,-6.93831c-4.63354,-6.86456 -8.7963,-14.07968 -13.17395,-21.09804c-5.98402,-11.47975 -11.06484,-23.07842 -15.84316,-35.06501l-0.10289,-7.31046c0,0 0,-4.49966 4.246,-5.34203z" data-paper-data="{&quot;index&quot;:null}" fill="url(#color-3)" stroke="none" stroke-width="0" stroke-linecap="butt"/><g data-paper-data="{&quot;index&quot;:null}" stroke-linecap="round"><path d="M90.65389,174.516l-18.37356,-28.7744l8.03843,-28.77442l95.31288,-26.15855z" fill="#7b2fe7" stroke="#7938c0" stroke-width="0.5"/><path d="M96.87494,170.39509l-14.0864,-22.06038l6.1628,-22.06041l73.07322,-20.05487z" fill="#e8e8e8" stroke="none" stroke-width="0"/></g><g data-paper-data="{&quot;index&quot;:null}" stroke-linecap="round"><path d="M308.10154,98.45907l97.5204,26.15856l8.22461,28.77443l-18.79912,28.7744z" fill="#7b2fe7" stroke="#7938c0" stroke-width="0.5"/><path d="M322.02379,113.86988l74.76564,20.0549l6.30554,22.0604l-14.41265,22.06038z" fill="#e8e8e8" stroke="none" stroke-width="0"/></g><path d="M231.94788,-63.14739l162.74043,73.21205l8.02241,60.19656l-173.05494,-76.46592l-145.54953,69.95819l-3.43818,-40.67336l50.4266,-30.91175z" data-paper-data="{&quot;index&quot;:null}" fill="#c9c9c9" stroke="none" stroke-width="0" stroke-linecap="round"/><path d="M227.53407,-6.70942l201.42085,73.24394v40.54577l-200.11291,-74.55187l-175.2623,64.08844l9.1555,-36.62195l49.70124,-22.23476z" data-paper-data="{&quot;index&quot;:null}" fill="url(#color-4)" stroke="#b6b6b6" stroke-width="0" stroke-linecap="round"/><path d="M80.62884,182.36475c4.07605,-2.65791 9.0732,-0.26091 9.0732,-0.26091c15.8907,7.64658 32.89086,10.52298 50.65297,15.08341c9.49645,2.43822 18.28583,5.50059 28.60103,5.97693c4.49388,0.20754 9.04146,-0.3704 13.50931,0.03428c11.43599,1.03582 22.69637,4.50503 34.37688,5.04445c6.11749,0.2825 12.21619,-0.91048 18.34628,-0.91424c10.84559,-0.00663 21.10314,0.37972 31.75613,-0.91171c19.27871,-3.94294 38.82956,-2.61482 58.41565,-5.26988c18.55323,-2.51503 37.87496,-3.9978 56.24872,-7.25213c7.93,-1.40455 14.89858,-4.53142 22.4547,-6.6651l6.55422,-3.77263c1.31,-0.76737 2.98166,-1.22745 4.80263,-1.22745c4.20409,0 7.61219,2.45213 7.61219,5.477c0,0.76297 -0.21682,1.48948 -0.60858,2.14942l-2.84282,5.11361l-0.21522,-0.06193c-0.08159,0.263 -0.17308,0.52484 -0.27551,0.78539c-2.11563,5.38136 -12.24776,10.92089 -15.70962,16.35532c-5.27091,8.2743 -8.17385,18.78978 -17.4614,25.54559c-10.66745,7.75957 -25.605,11.54141 -39.51448,14.67475c-14.37212,3.2376 -27.73384,9.1998 -42.39056,11.84253c-9.66694,1.74304 -20.62372,2.30702 -30.49585,3.30935c-25.54114,0.03287 -51.2509,0.36054 -76.66046,-1.04578c-12.25488,-0.67825 -24.20881,-3.46873 -36.42536,-4.18803c-9.54325,-0.5619 -18.74322,-0.77255 -28.23979,-2.14743c-3.9387,-0.57023 -8.41694,-0.31073 -11.75357,-1.92099c-3.23543,-1.56146 -4.48427,-4.58632 -6.60372,-6.93831c-6.1858,-6.86456 -11.74311,-14.07968 -17.58731,-21.09804c-7.98871,-11.47975 -14.77165,-23.07842 -21.15073,-35.06501l-0.13734,-7.31046c0,0 0.00001,-4.49966 5.66844,-5.34203z" data-paper-data="{&quot;index&quot;:null}" fill="url(#color-5)" stroke="none" stroke-width="0" stroke-linecap="butt"/><path d="M95.09628,231.55465c2.16647,-1.13375 4.63864,-0.42742 4.63864,-0.42742c8.27018,2.36378 16.64058,3.84488 24.93231,5.93046c13.26238,3.33578 25.34393,9.75671 39.01201,11.86927c35.04296,5.41626 71.12916,1.38858 105.77036,-4.38152c15.69872,-1.75681 30.94516,-3.34743 46.05184,-7.4429c14.95314,-4.05383 30.22172,-3.93489 44.59212,-10.44548c4.18471,-1.8959 7.70231,-5.04746 11.80984,-7.10528c3.918,-1.96283 7.35118,-5.00795 11.53842,-6.30042c2.5303,-0.78101 5.30454,0.04036 7.94179,-0.19911c3.51018,-0.31875 8.03351,-4.01886 10.47083,-1.47279c3.4862,3.64176 2.77472,9.9023 2.41217,14.93066c-0.19418,2.6932 -2.80385,4.62357 -3.99668,7.04601c-2.37476,4.82286 -3.87757,10.02828 -5.76515,15.06181c-3.32257,8.30775 -6.36799,21.18438 -14.04947,26.62963c-2.36696,1.67791 -5.54674,1.75675 -8.17956,2.9758c-13.69593,6.34147 -27.75586,8.25058 -42.70036,10.85114c-37.85913,6.58807 -77.52877,7.69142 -115.88385,7.62866c-21.8042,-3.57799 -43.5485,-5.31558 -65.28651,-9.666c-6.77135,-1.35514 -13.70542,-3.46702 -20.32767,-4.78375c-2.08883,-0.41532 -4.3974,0.66327 -6.38852,-0.09249c-4.10009,-1.55626 -8.17296,-3.62649 -11.35638,-6.6429c-1.88779,-1.78875 -1.91557,-4.85142 -3.17545,-7.12654c-5.04936,-9.1182 -11.90767,-18.74278 -19.2817,-26.08192l-1.75274,-5.42835c0,0 0,-5.98423 5.98424,-5.98423c1.23321,0 2.21229,0.25414 2.9896,0.65766z" data-paper-data="{&quot;index&quot;:null}" fill="#858585" stroke="none" stroke-width="0.5" stroke-linecap="butt"/><path d="M131.03474,316.88718c1.5965,-0.8568 3.41832,-0.32301 3.41832,-0.32301c6.09449,1.78634 12.26281,2.90562 18.3732,4.48172c9.77336,2.52092 18.67653,7.37332 28.74886,8.9698c25.82396,4.09314 52.41673,1.04937 77.94463,-3.31118c11.56877,-1.32763 22.80421,-2.5297 33.93668,-5.6247c11.01929,-3.06354 22.27107,-2.97366 32.86097,-7.8938c3.08382,-1.43277 5.676,-3.81445 8.70295,-5.36956c2.88725,-1.48334 5.41726,-3.78458 8.50293,-4.76132c1.86464,-0.59022 3.90902,0.0305 5.85249,-0.15047c2.58674,-0.24086 5.92008,-3.03709 7.71619,-1.11299c2.56906,2.75212 2.04474,7.4833 1.77757,11.28331c-0.1431,2.03528 -2.06624,3.4941 -2.94525,5.32477c-1.75002,3.64469 -2.85747,7.5785 -4.24847,11.38242c-2.44848,6.2783 -4.69274,16.00936 -10.3534,20.1244c-1.74428,1.26801 -4.08754,1.3276 -6.02773,2.24885c-10.09286,4.79234 -20.45394,6.23507 -31.4669,8.20036c-27.89927,4.97868 -57.13275,5.81251 -85.39751,5.76509c-16.06805,-2.70394 -32.09192,-4.01707 -48.11115,-7.30473c-4.98998,-1.02411 -10.09985,-2.62009 -14.97995,-3.61515c-1.53931,-0.31385 -3.24053,0.50126 -4.70785,-0.0699c-3.02147,-1.17612 -6.02285,-2.74061 -8.36878,-5.02015c-1.39117,-1.35179 -1.41165,-3.66628 -2.34007,-5.38562c-3.72099,-6.89075 -8.77505,-14.16421 -14.20916,-19.71049l-1.29164,-4.10226c0,0 0,-4.52239 4.40992,-4.52239c0.90879,0 1.63029,0.19205 2.20311,0.49701z" data-paper-data="{&quot;index&quot;:null}" fill="#5f5f5f" stroke="none" stroke-width="0.5" stroke-linecap="butt"/><g data-paper-data="{&quot;index&quot;:null}" stroke-width="0" stroke-linecap="round"><path d="M224.22087,442.79072l-1.34177,-135.16995l17.34861,-40.14197l14.59955,40.1243l-0.85111,135.47576c0,0 -6.60527,23.04931 -14.15248,22.97626c-7.54719,-0.0731 -15.60284,-23.26438 -15.60284,-23.26438z" fill="url(#color-6)" stroke="#cd5a1d"/><path d="M223.64366,404.92383l0.18774,-106.25936l17.78641,-31.72245l14.1324,31.40943l-2.38202,106.52035l-12.65686,18.92124z" fill="#cab133" stroke="#c82624"/></g></g></g></svg>