<svg version="1.1" xmlns="http://www.w3.org/2000/svg" xmlns:xlink="http://www.w3.org/1999/xlink" width="197.39045" height="157.72248" viewBox="0,0,197.39045,157.72248"><defs><linearGradient x1="250.12169" y1="216.68711" x2="249.86021" y2="232.79435" gradientUnits="userSpaceOnUse" id="color-1"><stop offset="0" stop-color="#5f6163"/><stop offset="1" stop-color="#454849"/></linearGradient><linearGradient x1="281.27045" y1="216.07022" x2="252.3965" y2="215.60149" gradientUnits="userSpaceOnUse" id="color-2"><stop offset="0" stop-color="#323433"/><stop offset="1" stop-color="#323433" stop-opacity="0"/></linearGradient></defs><g transform="translate(-142.12357,-93.00825)"><g data-paper-data="{&quot;isPaintingLayer&quot;:true}" fill-rule="nonzero" stroke-linejoin="miter" stroke-miterlimit="10" stroke-dasharray="" stroke-dashoffset="0" style="mix-blend-mode: normal"><path d="M202.28683,205.31459l28.05476,-25.07434l15.91776,-14.15115l-21.72143,49.07434z" fill="#2b302e" stroke="none" stroke-width="0" stroke-linecap="butt"/><path d="M257.97062,229.42346l-4.63332,21.11491l-11.20218,-0.35701l-9.59037,-7.94875l8.76274,-16.58213z" fill="none" stroke="#562800" stroke-width="0.375" stroke-linecap="round"/><path d="M273.16863,215.57265l12.76851,-4.4335l6.42593,24.88443l-11.13511,6.29886l-11.00153,-1.92986l0.25153,-15.49444z" fill="none" stroke="#562800" stroke-width="0.375" stroke-linecap="round"/><path d="M194.14397,134.11626l-13.88729,10.20812l-2.22563,-3.87471l14.14222,-10.75071z" fill="none" stroke="#48071c" stroke-width="1.5" stroke-linecap="butt"/><path d="M201.34876,140.93114l-10.11207,14.33286l-11.27223,-13.04797l13.55358,-9.8247z" fill="none" stroke="#48071c" stroke-width="1.5" stroke-linecap="butt"/><path d="M194.14397,134.11626l-13.88729,10.20812l-2.22563,-3.87471l14.14222,-10.75071z" fill="#3e4140" stroke="#000000" stroke-width="0" stroke-linecap="butt"/><path d="M192.98295,149.48044l-2.61224,6.65043l-11.1199,-11.75697l-1.04622,-3.68171z" fill="#28312a" stroke="#000000" stroke-width="0" stroke-linecap="butt"/><path d="M201.34876,140.93114l-10.11207,14.33286l-11.27223,-13.04797l13.55358,-9.8247z" fill="#415555" stroke="#000000" stroke-width="0" stroke-linecap="butt"/><path d="M283.63984,212.4153l3.83639,11.79565l-19.04435,2.66797l0.58407,-9.00946z" fill="none" stroke="#48071c" stroke-width="1.5" stroke-linecap="round"/><path d="M259.52053,220.2546l0.29475,3.41973l-0.61048,5.24384l-3.65449,3.96855l-7.86574,-0.91577l-7.55483,-3.8878l2.02677,-6.18406l6.21442,-5.2404z" fill="none" stroke="#48071c" stroke-width="1.5" stroke-linecap="round"/><path d="M276.57647,221.40712l-8.43927,2.05204l-9.18736,-0.41184l-5.11224,-3.32279l0.29102,-1.74654l23.01859,0.63638z" fill="none" stroke="#48071c" stroke-width="1.5" stroke-linecap="round"/><path d="M306.70955,192.53618l-0.73848,2.04556l5.848,5.81851l2.54567,1.26067l-0.7298,4.96713l6.75122,7.72185l5.36515,3.81864l0.71763,3.04032l-8.37027,12.11413l-5.03189,1.57681l-4.54224,-0.92757l0.89986,-4.52153l-11.66987,-8.77343l-4.74868,0.38318l-3.97098,-3.10947l-0.24214,-4.88761l0.61997,-1.8151l7.63407,-11.57001l6.68275,-7.72457z" data-paper-data="{&quot;index&quot;:null}" fill="none" stroke="#48071c" stroke-width="1.5" stroke-linecap="round"/><path d="M289.16183,211.65584l10.30814,-8.39671l5.79743,-10.83931l1.95935,1.10684l3.01266,6.99373l3.55229,1.37367l-1.14995,3.96046l-6.69048,7.05581l-11.56816,7.80222l-4.41179,-2.69099l-0.99773,-2.42328z" data-paper-data="{&quot;index&quot;:null}" fill="none" stroke="#48071c" stroke-width="1.5" stroke-linecap="round"/><path d="M306.31533,215.30739l6.95852,-8.69811l1.5894,2.60225l10.28215,8.73037l0.05831,1.95651l-7.18415,9.30924l-5.9105,4.59081l-5.17933,-1.31045l-5.88105,-8.89184l-5.68038,-2.87046z" data-paper-data="{&quot;index&quot;:null}" fill="none" stroke="#48071c" stroke-width="1.5" stroke-linecap="round"/><path d="M320.35048,237.87173l-1.02176,-1.67292l-6.10289,-2.27357l4.44304,-2.9269l6.00107,-8.50619l4.59449,1.10321l-1.32476,7.62076l-1.54892,-0.4263l-0.74153,4.04739l-1.79845,-0.38463l-0.85933,3.77739z" data-paper-data="{&quot;index&quot;:null}" fill="none" stroke="#48071c" stroke-width="1.5" stroke-linecap="round"/><path d="M307.07348,213.74718l5.60828,-7.36685l1.34907,-0.55277l10.52367,11.1069l-0.57732,3.53724l-5.2201,7.30208l-3.79851,-0.63617l-7.80737,-10.78174z" data-paper-data="{&quot;index&quot;:null}" fill="none" stroke="#48071c" stroke-width="1.5" stroke-linecap="round"/><path d="M300.62876,206.95734l1.07336,-7.34764l1.84393,-3.58469l1.94348,-1.88085l4.10426,1.07675l3.50629,4.7403l-1.13168,5.39117l-5.13644,6.01825l-4.24743,-0.9709z" data-paper-data="{&quot;index&quot;:null}" fill="none" stroke="#48071c" stroke-width="1.5" stroke-linecap="round"/><path d="M223.79644,181.86351l4.77287,1.14223l7.98056,8.51453l10.22183,1.62998l3.21503,-1.27875l1.95702,2.42748l13.42823,0.88346l3.90841,-2.99773l4.87568,3.00723l17.25888,2.67589l8.98714,-12.49811l2.96403,-2.21449l3.56453,1.7881l-1.12063,3.44227l-9.68484,14.4832l-13.88011,10.55535l-0.35468,5.45112l-26.89318,0.49508l-18.47715,-9.61658l-13.84209,-24.58105z" fill="none" stroke="#48071c" stroke-width="1.5" stroke-linecap="round"/><path d="M295.00887,206.04495l-3.1295,4.20823l-13.66065,5.23512l-27.8138,-0.18533l-14.01361,-5.81748l-4.76336,-9.92634l3.66303,3.91922l17.61917,5.07744l23.15671,0.10974l17.64164,-4.50503l2.56054,-1.95485z" fill="none" stroke="#48071c" stroke-width="1.5" stroke-linecap="round"/><path d="M287.68235,98.49046l16.93937,6.36164l23.2325,18.63709l10.59945,34.4602l-3.59309,8.86877l-9.46212,7.96192l-15.12173,6.65272l-21.15738,3.51143l-23.15282,1.45014l-22.08265,-1.98158l-19.60915,-4.37612l-16.5205,-7.16639l-10.41571,-8.28461l-3.70569,-9.19012l13.37787,-36.70853l22.15311,-14.857l18.16427,-6.60332l20.50279,-0.68161z" fill="none" stroke="#48071c" stroke-width="2" stroke-linecap="round"/><path d="M273.2778,98.45952l-0.62828,1.20712l-5.30332,1.7399l-5.6596,-1.30919l-0.98784,-1.63916l0.43531,-1.81893l6.93919,-2.52492l5.02148,3.12486z" fill="none" stroke="#48071c" stroke-width="2" stroke-linecap="round"/><path d="M314.16486,104.39835l1.19725,1.23675l4.37544,17.92523l0.11919,17.65323l-2.94177,6.24177l-2.86604,1.5766l-11.34889,-0.79291l-5.53118,-9.21976l9.35147,-13.64459l5.40673,-20.60684z" fill="none" stroke="#48071c" stroke-width="1.5" stroke-linecap="round"/><path d="M222.13496,103.31016l4.73501,20.77147l8.90365,13.94094l-5.82753,9.03537l-11.36865,0.42412l-2.81335,-1.66879l-2.73762,-6.33397l0.69214,-17.64006l4.95497,-17.77376l1.23675,-1.19724z" data-paper-data="{&quot;index&quot;:null}" fill="none" stroke="#48071c" stroke-width="1.5" stroke-linecap="round"/><path d="M306.67859,231.94414l2.66916,-0.30205l3.80976,2.38075l-1.18095,2.84247l-1.24995,1.01578l-2.57739,-2.3114z" fill="none" stroke="#48071c" stroke-width="1.5" stroke-linecap="round"/><path d="M257.97066,229.42349l-4.63332,21.11491l-11.20219,-0.35701l-9.59037,-7.94875l8.76273,-16.58214z" fill="#8c5524" stroke="#000000" stroke-width="0" stroke-linecap="round"/><path d="M273.16866,215.57269l12.76852,-4.4335l6.42592,24.88443l-11.13511,6.29886l-11.00152,-1.92986l0.25153,-15.49443z" fill="#8c5524" stroke="#000000" stroke-width="0" stroke-linecap="round"/><path d="M281.87487,240.23147l-11.61572,-1.85226l0.22027,-13.56856l8.6661,-10.62951l7.28281,-0.93252l5.35896,20.48902z" fill="#9e6f43" stroke="#000000" stroke-width="0" stroke-linecap="round"/><path d="M257.69673,230.11959l-3.88471,18.14989l-11.20648,-0.09434l-8.98328,-7.58866l6.23917,-12.15744z" fill="#9e6f43" stroke="#000000" stroke-width="0" stroke-linecap="round"/><path d="M254.77095,232.34868l-3.01014,12.82279l-9.10553,-0.06024l-5.58487,-6.57028l1.02686,-3.92363l3.52631,-6.86019z" fill="#39423e" stroke="#000000" stroke-width="0" stroke-linecap="round"/><path d="M287.80365,225.61726l0.23361,7.18389l-6.73114,4.70663l-8.11132,-1.97048l0.22253,-8.31481z" fill="#39423e" stroke="#000000" stroke-width="0" stroke-linecap="round"/><path d="M287.36595,225.61015l-0.07247,4.46452l-2.14355,2.59206l-4.40112,1.41712l-3.85172,-0.06253l-2.84474,-2.76061l0.0611,-3.76419z" fill="#48534e" stroke="#000000" stroke-width="0" stroke-linecap="round"/><path d="M254.24001,232.6903l-2.3192,8.01807l-1.33154,1.11671l-5.87082,0.25497l-4.69869,-1.82754l-1.86335,-3.88297l3.19603,-8.09142z" fill="#48534e" stroke="#000000" stroke-width="0" stroke-linecap="round"/><path d="M282.46321,230.95943l0.31178,2.36926l-1.55494,4.09018l-0.61703,0.25267l-0.28908,-3.76987l-0.31607,-2.10663z" fill="#474641" stroke="#000000" stroke-width="0" stroke-linecap="round"/><path d="M244.93899,239.28162l0.05487,2.01481l-1.70588,2.5992l-1.46117,-1.6874l1.97984,-3.29523z" fill="#434640" stroke="#000000" stroke-width="0" stroke-linecap="round"/><path d="M281.19697,228.04929l-5.67298,-1.14284l0.06111,-3.76416l10.08405,-0.88705l0.12962,2.80411z" fill="#626262" stroke="#000000" stroke-width="0" stroke-linecap="round"/><path d="M278.2391,226.86297l0.13729,-3.06244l4.46452,0.07248l-0.03268,2.01339z" fill="#424242" stroke="#000000" stroke-width="0" stroke-linecap="round"/><path d="M287.11046,225.16818l1.20992,0.98285l-7.71541,6.00413l-7.38968,-3.27221l0.73014,-1.82695z" fill="#28302d" stroke="#000000" stroke-width="0" stroke-linecap="round"/><path d="M240.12405,228.4333l2.93655,2.49941l0.7509,2.28881l3.30233,1.54214l7.5497,-1.19085l-1.30513,4.88229l-9.05777,2.39228l-5.57638,-7.09551z" fill="#28302d" stroke="#000000" stroke-width="0" stroke-linecap="round"/><path d="M239.77238,228.51513l6.79198,7.72821l2.03901,-1.54304l5.0801,-0.09265l0.04349,2.71514l-7.10773,0.93536l-2.96778,-0.57354l-4.64327,-5.24158z" fill="#6b6b6b" stroke="#000000" stroke-width="0" stroke-linecap="round"/><path d="M273.8849,225.39134l6.63735,1.07092l5.82022,-2.53238l1.4626,1.59985l-7.1859,5.75003l-7.29501,-3.70849z" fill="#6b6b6b" stroke="#000000" stroke-width="0" stroke-linecap="round"/><path d="M281.71997,222.80406l-0.13216,8.14112l-1.40346,0.15237l-1.12239,-0.98143l0.09379,-5.77759z" fill="#545454" stroke="#000000" stroke-width="0" stroke-linecap="round"/><path d="M245.26557,235.34662l1.66182,0.11455l-0.14723,3.67522l-2.71088,-0.21913l-0.68185,-1.14939z" fill="#545454" stroke="#000000" stroke-width="0" stroke-linecap="round"/><path d="M283.63984,212.4153l3.83639,11.79565l-19.04435,2.66797l0.58407,-9.00946z" fill="#5f6161" stroke="#000000" stroke-width="0" stroke-linecap="round"/><path d="M259.52053,220.2546l0.29475,3.41973l-0.61048,5.24384l-3.65449,3.96855l-7.86574,-0.91577l-7.55483,-3.8878l2.02677,-6.18406l6.21442,-5.2404z" fill="url(#color-1)" stroke="#000000" stroke-width="0" stroke-linecap="round"/><path d="M276.57647,221.40712l-8.43927,2.05204l-9.18736,-0.41184l-5.11224,-3.32279l0.29102,-1.74654l23.01859,0.63638z" fill="#5f6163" stroke="#000000" stroke-width="0" stroke-linecap="round"/><path d="M261.03001,218.9657l0.45843,4.12286l-2.01343,-0.03269l-1.24628,-4.13565z" fill="#424448" stroke="#000000" stroke-width="0" stroke-linecap="round"/><path d="M266.98551,218.88726l1.72096,1.86674l-0.30668,2.70945l-2.62193,-0.30526l0.32657,-3.935z" fill="#424448" stroke="#000000" stroke-width="0" stroke-linecap="round"/><path d="M254.7044,220.26396l3.65678,1.28524l-0.01847,1.13802l-3.8304,-1.3756z" fill="#424448" stroke="#000000" stroke-width="0" stroke-linecap="round"/><path d="M276.2263,221.40143l-4.7527,1.49896l-0.16089,-0.87821l4.66233,-1.3253z" fill="#424448" stroke="#000000" stroke-width="0" stroke-linecap="round"/><path d="M231.70554,190.48199l-4.63671,-9.01758l75.69457,0.18901l-1.92245,9.53498l-16.50286,10.96196l-43.64502,-1.64434z" fill="#970037" stroke="#000000" stroke-width="0" stroke-linecap="round"/><path d="M292.1349,183.04058l-0.94975,7.2632l-7.22507,3.1061l-6.55071,-0.00236l-5.54596,-4.24925l-2.0318,-2.94443z" fill="#530e23" stroke="#000000" stroke-width="0" stroke-linecap="round"/><path d="M274.72077,186.08525l16.14138,-1.50564l-0.23997,1.97174l-3.78956,2.84992l-2.73485,1.93123l-3.12027,0.05333l-4.23001,-2.04429l-2.14251,-2.53031z" fill="#54c242" stroke="#000000" stroke-width="0" stroke-linecap="round"/><path d="M279.30145,185.74369l3.53609,-0.04658l7.17782,-0.19541l-0.23323,1.55592l-3.67548,2.2279l-3.01463,-0.04894l-3.30793,-1.19749z" fill="#f5ee68" stroke="#000000" stroke-width="0" stroke-linecap="round"/><path d="M269.42356,192.13409l-1.66224,6.31582l-26.46918,-2.82124l-5.97965,-9.55928l11.20328,1.63759l21.18277,1.7996z" fill="#df0d2d" stroke="#000000" stroke-width="0" stroke-linecap="round"/><path d="M315.0127,235.06901c-0.00524,-0.00152 -0.01039,-0.00303 -0.01563,-0.00455l0.00052,-0.0462c0.00509,0.01695 0.01003,0.03383 0.01508,0.05078z" data-paper-data="{&quot;index&quot;:null}" fill="#8593a4" stroke="#000000" stroke-width="0" stroke-linecap="butt"/><path d="M306.70955,192.53618l-0.73848,2.04556l5.848,5.81851l2.54567,1.26067l-0.7298,4.96713l6.75122,7.72185l5.36515,3.81864l0.71763,3.04032l-8.37027,12.11413l-5.03189,1.57681l-4.54224,-0.92757l0.89986,-4.52153l-11.66987,-8.77343l-4.74868,0.38318l-3.97098,-3.10947l-0.24214,-4.88761l0.61997,-1.8151l7.63407,-11.57001l6.68275,-7.72457z" data-paper-data="{&quot;index&quot;:null}" fill="#bb1c5c" stroke="#000000" stroke-width="0" stroke-linecap="round"/><path d="M289.16183,211.65584l10.30814,-8.39671l5.79743,-10.83931l1.95935,1.10684l3.01266,6.99373l3.55229,1.37367l-1.14995,3.96046l-6.69048,7.05581l-11.56816,7.80222l-4.41179,-2.69099l-0.99773,-2.42328z" data-paper-data="{&quot;index&quot;:null}" fill="#e70b2a" stroke="#000000" stroke-width="0" stroke-linecap="round"/><path d="M306.31533,215.30739l6.95852,-8.69811l1.5894,2.60225l10.28215,8.73037l0.05831,1.95651l-7.18415,9.30924l-5.9105,4.59081l-5.17933,-1.31045l-5.88105,-8.89184l-5.68038,-2.87046z" data-paper-data="{&quot;index&quot;:null}" fill="#e70b2a" stroke="#000000" stroke-width="0" stroke-linecap="round"/><path d="M320.35048,237.87173l-1.02176,-1.67292l-6.10289,-2.27357l4.44304,-2.9269l6.00107,-8.50619l4.59449,1.10321l-1.32476,7.62076l-1.54892,-0.4263l-0.74153,4.04739l-1.79845,-0.38463l-0.85933,3.77739z" data-paper-data="{&quot;index&quot;:null}" fill="#e70b2a" stroke="#000000" stroke-width="0" stroke-linecap="round"/><path d="M307.07348,213.74718l5.60828,-7.36685l1.34907,-0.55277l10.52367,11.1069l-0.57732,3.53724l-5.2201,7.30208l-3.79851,-0.63617l-7.80737,-10.78174z" data-paper-data="{&quot;index&quot;:null}" fill="#ff5b06" stroke="#000000" stroke-width="0" stroke-linecap="round"/><path d="M300.62876,206.95734l1.07336,-7.34764l1.84393,-3.58469l1.94348,-1.88085l4.10426,1.07675l3.50629,4.7403l-1.13168,5.39117l-5.13644,6.01825l-4.24743,-0.9709z" data-paper-data="{&quot;index&quot;:null}" fill="#ff5b06" stroke="#000000" stroke-width="0" stroke-linecap="round"/><path d="M314.29387,220.17901c-2.56541,-2.60245 -3.51241,-6.44577 -2.11511,-8.58425c1.39731,-2.13847 4.6097,-1.76237 7.17511,0.84008c2.56541,2.60245 3.51241,6.44577 2.1151,8.58425c-1.39731,2.13847 -4.6097,1.76237 -7.17511,-0.84008z" data-paper-data="{&quot;index&quot;:null}" fill="#8f3926" stroke="none" stroke-width="0" stroke-linecap="butt"/><path d="M314.9476,219.1785c-1.90254,-1.93001 -2.60482,-4.78026 -1.56859,-6.3662c1.03627,-1.5859 3.41863,-1.307 5.32116,0.62302c1.90254,1.93001 2.60482,4.7803 1.56856,6.3662c-1.03627,1.5859 -3.41863,1.307 -5.32116,-0.62302z" data-paper-data="{&quot;index&quot;:null}" fill="#33e86f" stroke="none" stroke-width="0" stroke-linecap="butt"/><path d="M318.9586,229.62447l0.45127,-1.22224l1.79796,-0.218l1.48866,1.6769l-0.57736,3.53724l-1.85981,0.59702l-1.95701,-2.66385z" data-paper-data="{&quot;index&quot;:null}" fill="#fe5513" stroke="#000000" stroke-width="0" stroke-linecap="round"/><path d="M322.37836,224.09743l1.61356,0.14046l1.1611,2.14124l-0.57617,2.75871l-1.57348,0.38539l-2.32458,-2.72542z" data-paper-data="{&quot;index&quot;:null}" fill="#fe5513" stroke="#000000" stroke-width="0" stroke-linecap="round"/><path d="M325.67322,220.10683l1.95816,1.88537l-0.76054,3.11718l-1.24714,0.69964l-2.07836,-3.4629z" data-paper-data="{&quot;index&quot;:null}" fill="#fe5513" stroke="#000000" stroke-width="0" stroke-linecap="round"/><path d="M223.79644,181.86351l4.77287,1.14223l7.98056,8.51453l10.22183,1.62998l3.21503,-1.27875l1.95702,2.42748l13.42823,0.88346l3.90841,-2.99773l4.87568,3.00723l17.25888,2.67589l8.98714,-12.49811l2.96403,-2.21449l3.56453,1.7881l-1.12063,3.44227l-9.68484,14.4832l-13.88011,10.55535l-0.35468,5.45112l-26.89318,0.49508l-18.47715,-9.61658l-13.84209,-24.58105z" fill="#2b302e" stroke="#000000" stroke-width="0" stroke-linecap="round"/><path d="M252.37922,216.66596l27.41678,0.04579l0.18059,-2.92516l1.33276,-0.11146l-0.20002,4.12269l-28.08639,0.20952z" fill="url(#color-2)" stroke="#000000" stroke-width="0" stroke-linecap="round"/><path d="M295.00887,206.04495l-3.1295,4.20823l-13.66065,5.23512l-27.8138,-0.18533l-14.01361,-5.81748l-4.76336,-9.92634l3.66303,3.91922l17.61917,5.07744l23.15671,0.10974l17.64164,-4.50503l2.56054,-1.95485z" fill="#3a4039" stroke="#000000" stroke-width="0" stroke-linecap="round"/><path d="M234.20793,196.40676l33.14396,7.99135l27.9218,-6.46765l4.14429,-1.13057l-3.54595,5.26622l-3.99179,-0.0648l-53.3591,-0.73313l-4.65493,-0.20866l-3.90755,-5.25413z" fill="#3a4039" stroke="#000000" stroke-width="0" stroke-linecap="round"/><path d="M251.59598,215.72159l-8.16546,-5.32325l-0.88822,-2.67632l1.09256,-1.71249l9.53494,2.94978l23.01932,0.37369l8.55903,-2.52295l-0.32013,3.32218l-0.97246,2.51301l-6.71346,3.61767z" fill="#425555" stroke="#000000" stroke-width="0" stroke-linecap="round"/><path d="M234.20793,196.40676l16.57846,3.5965l27.66777,0.98154l18.5601,-3.69154l0.23588,1.86715l-4.44497,3.25521l-14.31082,4.2929l-27.67426,-0.58236l-14.29485,-4.89037l-3.92267,-4.32272z" fill="#425555" stroke="#000000" stroke-width="0" stroke-linecap="round"/><path d="M327.3676,226.11499l-0.58246,3.07289" data-paper-data="{&quot;index&quot;:null}" fill="none" stroke="#ff5b06" stroke-width="0.25" stroke-linecap="round"/><path d="M324.42918,232.71457l0.52944,-2.748" data-paper-data="{&quot;index&quot;:null}" fill="none" stroke="#ff5b06" stroke-width="0.25" stroke-linecap="round"/><path d="M321.72936,237.85235l0.715,-3.88501" data-paper-data="{&quot;index&quot;:null}" fill="none" stroke="#ff5b06" stroke-width="0.25" stroke-linecap="round"/><path d="M287.68235,98.49046l16.93937,6.36164l23.2325,18.63709l10.59945,34.4602l-3.59309,8.86877l-9.46212,7.96192l-15.12173,6.65272l-21.15738,3.51143l-23.15282,1.45014l-22.08265,-1.98158l-19.60915,-4.37612l-16.5205,-7.16639l-10.41571,-8.28461l-3.70569,-9.19012l13.37787,-36.70853l22.15311,-14.857l18.16427,-6.60332l20.50279,-0.68161z" fill="#a26e3e" stroke="#000000" stroke-width="0" stroke-linecap="round"/><path d="M307.28505,125.99848l-2.72978,1.61937l-10.04361,3.7882l-13.77578,3.10374l-13.93306,-0.01823l-14.96247,-0.65882l-12.63162,-3.32447l-14.66005,-6.4768" fill="none" stroke="#cc8754" stroke-width="0.5" stroke-linecap="round"/><path d="M304.01795,135.0957l-6.68336,1.76315l-14.60065,2.67443l-16.43806,0.56499l-16.41106,-1.09825l-18.65077,-4.04606" fill="none" stroke="#cc8754" stroke-width="0.5" stroke-linecap="round"/><path d="M266.30398,126.78896c-20.89783,-0.33925 -37.73157,-7.22315 -37.59922,-15.37558c0.13234,-8.15243 17.18066,-14.48629 38.07849,-14.14704c20.89783,0.33925 37.73156,7.22314 37.59922,15.37557c-0.13234,8.15243 -17.18066,14.4863 -38.07848,14.14705z" fill="#d8873f" stroke="#000000" stroke-width="0" stroke-linecap="butt"/><path d="M265.55674,185.62963l1.38716,-85.44927" fill="none" stroke="#7b4029" stroke-width="0.5" stroke-linecap="round"/><path d="M268.59702,100.83108l11.95121,32.4279l4.07914,17.74287l3.6181,33.33243" fill="none" stroke="#7b4029" stroke-width="0.5" stroke-linecap="round"/><path d="M270.70308,99.20158l12.16721,19.12193l10.81313,12.86113l9.85999,20.33225l4.71838,29.607" fill="none" stroke="#7b4029" stroke-width="0.5" stroke-linecap="round"/><path d="M272.75851,100.69067l9.39828,10.34264l11.09528,8.29058l11.70213,9.34024l12.21447,16.21125l6.385,29.4261" fill="none" stroke="#7b4029" stroke-width="0.375" stroke-linecap="round"/><path d="M272.78551,99.02743l11.50435,8.71314l15.46131,8.36146l9.68719,5.35627l16.77826,16.90923l6.50651,21.94149l0.78437,2.92418l0.36181,3.33324" fill="none" stroke="#7b4029" stroke-width="0.25" stroke-linecap="round"/><path d="M270.7267,97.74624l15.45118,8.98517l22.95604,7.85925l12.95294,9.15257l6.97767,5.72821" fill="none" stroke="#7b4029" stroke-width="0.25" stroke-linecap="round"/><path d="M309.63411,109.39977l-23.61688,-5.58241l-18.21471,-5.28675l34.41786,6.38163" fill="none" stroke="#7b4029" stroke-width="0.25" stroke-linecap="round"/><path d="M242.92538,183.3906l4.69813,-33.19742l4.6529,-17.60112l12.99749,-32.02288" data-paper-data="{&quot;index&quot;:null}" fill="none" stroke="#7b4029" stroke-width="0.5" stroke-linecap="round"/><path d="M223.44299,179.33104l5.25772,-29.23709l10.51477,-20.00148l11.22489,-12.50338l12.78148,-18.71692" data-paper-data="{&quot;index&quot;:null}" fill="none" stroke="#7b4029" stroke-width="0.5" stroke-linecap="round"/><path d="M207.96144,172.21701l7.33678,-29.20333l12.73423,-15.80624l11.99913,-8.95548l11.35854,-7.92607l9.72905,-10.03213" data-paper-data="{&quot;index&quot;:null}" fill="none" stroke="#7b4029" stroke-width="0.375" stroke-linecap="round"/><path d="M197.90231,164.15121l0.46981,-3.31974l0.87887,-2.89719l7.21528,-21.71872l17.31828,-16.35571l9.85595,-5.03901l15.72456,-7.8552l11.7811,-8.33513" data-paper-data="{&quot;index&quot;:null}" fill="none" stroke="#7b4029" stroke-width="0.25" stroke-linecap="round"/><path d="M203.90862,127.23174l7.15992,-5.49871l13.24319,-8.72732l23.19905,-7.10997l15.73469,-8.47891" data-paper-data="{&quot;index&quot;:null}" fill="none" stroke="#7b4029" stroke-width="0.25" stroke-linecap="round"/><path d="M231.53579,103.5568l34.60687,-5.26109l-18.37671,4.69273l-23.78564,4.81289" data-paper-data="{&quot;index&quot;:null}" fill="none" stroke="#7b4029" stroke-width="0.25" stroke-linecap="round"/><path d="M266.51932,119.92972c-15.21408,-0.24698 -27.46819,-5.33406 -27.37033,-11.36226c0.09786,-6.0282 12.51063,-10.71483 27.72471,-10.46785c15.21408,0.24698 27.46818,5.33406 27.37032,11.36226c-0.09786,6.0282 -12.51062,10.71483 -27.7247,10.46786z" fill="none" stroke="#7b4029" stroke-width="0.375" stroke-linecap="butt"/><path d="M266.61719,113.90045c-10.85079,-0.17615 -19.58968,-3.85608 -19.51884,-8.21937c0.07083,-4.36329 8.92457,-7.75762 19.77535,-7.58147c10.85078,0.17615 19.58968,3.85608 19.51884,8.21937c-0.07083,4.36329 -8.92457,7.75762 -19.77535,7.58147z" fill="none" stroke="#7b4029" stroke-width="0.375" stroke-linecap="butt"/><path d="M273.2778,98.45952l-0.62828,1.20712l-5.30332,1.7399l-5.6596,-1.30919l-0.98784,-1.63916l0.43531,-1.81893l6.93919,-2.52492l5.02148,3.12486z" fill="#7b4029" stroke="#000000" stroke-width="0" stroke-linecap="round"/><path d="M328.46106,128.21389l0.36856,2.91743l-3.24009,7.43398l-7.58586,6.11568l-14.23885,6.00767l-18.14517,3.24076l-19.35886,1.14146l-19.72742,-1.77597l-17.82589,-3.61675l-13.83519,-6.04749l-7.99357,-7.20042l-3.22524,-6.29118l0.69797,-4.5638" fill="none" stroke="#7b4029" stroke-width="0.5" stroke-linecap="round"/><path d="M331.6323,137.83156l-5.12474,8.23523l-8.62202,5.89088l-14.23884,6.00767l-18.14518,3.24076l-19.35886,1.14146l-19.72742,-1.77597l-17.8259,-3.61675l-13.83518,-6.04749l-7.99358,-7.20042l-4.87161,-7.3577" fill="none" stroke="#7b4029" stroke-width="0.5" stroke-linecap="round"/><path d="M332.99314,143.67654l-3.25697,8.47351l-10.09423,6.90679l-14.45013,6.2122l-18.38008,4.90064l-21.22327,0.69527l-20.35451,-1.57819l-20.09261,-4.90131l-13.39237,-7.70399l-9.65007,-7.64324l-3.01059,-6.70361" fill="none" stroke="#7b4029" stroke-width="0.5" stroke-linecap="round"/><path d="M336.97912,154.34724l-3.25697,8.47351l-11.14726,7.72155l-14.86932,6.41335l-20.0197,3.4183l-22.68536,1.08746l-21.81323,-1.39391l-19.68017,-4.68666l-14.45552,-6.26552l-10.88063,-8.70302l-2.77568,-8.36348" fill="none" stroke="#7b4029" stroke-width="0.5" stroke-linecap="round"/><path d="M314.16486,104.39835l1.19725,1.23675l4.37544,17.92523l0.11919,17.65323l-2.94177,6.24177l-2.86604,1.5766l-11.34889,-0.79291l-5.53118,-9.21976l9.35147,-13.64459l5.40673,-20.60684z" fill="#e3101d" stroke="#000000" stroke-width="0" stroke-linecap="round"/><path d="M319.89474,133.62132c-0.13362,0.08124 -0.27501,0.16822 -0.42314,0.26038c-1.15018,0.49857 -6.77736,2.35962 -8.65389,5.44227c-0.46731,0.76769 -0.27064,1.44668 -0.21693,2.39086c0.02146,0.37711 0.11102,0.80233 0.36775,1.20688c0.53283,0.8396 1.78584,1.59013 4.64476,1.63654c0.99616,-0.00279 1.98721,-0.18442 2.98639,-0.39393l-1.28977,2.50966c-5.24169,-0.22404 -11.57283,-1.63707 -8.75906,-8.29734c2.33797,-3.73195 7.35794,-4.5974 11.33319,-6.3356z" fill="#710726" stroke="#000000" stroke-width="0" stroke-linecap="butt"/><path d="M319.73751,123.56033l0.04131,6.1176c-6.1267,1.68564 -6.42662,-1.17192 -6.31155,-8.2602c0.10263,-6.3218 0.25116,-10.80255 1.91967,-15.68084z" fill="#fb5909" stroke="#000000" stroke-width="0" stroke-linecap="butt"/><path d="M297.16886,139.01925l8.7269,-12.73335c6.32659,1.33689 1.55303,11.23549 0.32539,14.19968c-0.40554,2.35099 -2.54208,4.97047 -3.73701,7.3935z" fill="#b2154f" stroke="#000000" stroke-width="0" stroke-linecap="butt"/><path d="M316.73064,140.9617c-0.6309,-0.01024 -1.13405,-0.52997 -1.12381,-1.16087c0.01024,-0.6309 0.52999,-1.13405 1.16089,-1.12381c0.6309,0.01024 1.13405,0.53 1.12381,1.1609c-0.01024,0.6309 -0.52999,1.13402 -1.16089,1.12377z" fill="#710726" stroke="#000000" stroke-width="0" stroke-linecap="butt"/><path d="M222.13496,103.31016l4.73501,20.77147l8.90365,13.94094l-5.82753,9.03537l-11.36865,0.42412l-2.81335,-1.66879l-2.73762,-6.33397l0.69214,-17.64006l4.95497,-17.77376l1.23675,-1.19724z" data-paper-data="{&quot;index&quot;:null}" fill="#e3101d" stroke="#000000" stroke-width="0" stroke-linecap="round"/><path d="M213.29686,130.31073c3.91676,1.86632 8.90597,2.89422 11.12157,6.70013c2.5961,6.74809 -3.77757,7.95487 -9.02377,8.00866l-1.20759,-2.5502c0.99185,0.24183 1.97648,0.45552 2.97203,0.49066c2.85892,0.04641 4.1356,-0.66306 4.6954,-1.48491c0.26976,-0.39601 0.37307,-0.8181 0.40676,-1.19431c0.08434,-0.94194 0.30294,-1.61418 -0.13921,-2.39664c-1.77545,-3.14198 -7.33929,-5.18466 -8.47268,-5.7203c-0.14503,-0.09692 -0.28353,-0.1884 -0.41447,-0.27398z" data-paper-data="{&quot;index&quot;:null}" fill="#710726" stroke="#000000" stroke-width="0" stroke-linecap="butt"/><path d="M218.64542,104.16641c1.50929,4.92985 1.51231,9.41306 1.40968,15.73489c-0.11507,7.08829 -0.50759,9.93461 -6.57635,8.05098l0.23986,-6.11304z" data-paper-data="{&quot;index&quot;:null}" fill="#fb5909" stroke="#000000" stroke-width="0" stroke-linecap="butt"/><path d="M230.17355,146.70521c-1.11565,-2.46053 -3.16604,-5.14796 -3.49509,-7.51091c-1.13078,-3.00248 -5.58055,-13.0508 0.78613,-14.18163l8.30899,13.00991z" data-paper-data="{&quot;index&quot;:null}" fill="#b2154f" stroke="#000000" stroke-width="0" stroke-linecap="butt"/><path d="M215.03526,138.16815c0.01024,-0.6309 0.52996,-1.13405 1.16086,-1.12381c0.6309,0.01024 1.13405,0.52999 1.12381,1.16089c-0.01024,0.6309 -0.53,1.13402 -1.1609,1.12378c-0.6309,-0.01024 -1.13401,-0.52997 -1.12377,-1.16087z" data-paper-data="{&quot;index&quot;:null}" fill="#710726" stroke="#000000" stroke-width="0" stroke-linecap="butt"/><path d="M224.86058,236.18432l0.03314,0.02972c-0.00241,0.00482 -0.00479,0.00962 -0.00721,0.01444c-0.00863,-0.01474 -0.0173,-0.02942 -0.02593,-0.04416z" fill="#8593a4" stroke="#000000" stroke-width="0" stroke-linecap="butt"/><path d="M201.84831,199.85789l9.93239,0.1278l13.2927,1.93484l1.70012,0.72752l0.97166,8.09621l-1.98632,3.05479l-1.12817,14.66765l3.80525,2.28532l-2.37168,3.93807l-4.47351,2.66583l-14.16942,-1.74904l-1.6766,-2.50746l0.87109,-6.42552l-0.97136,-9.98574l-4.00772,-2.70044l0.80404,-2.68969l-0.22452,-8.08279l-1.94248,-0.79067z" fill="#bb1c5c" stroke="#000000" stroke-width="0" stroke-linecap="round"/><path d="M226.60895,203.73263l0.8931,3.37333l-1.64868,5.24802l-10.63132,2.7877l-9.46349,0.31356l-3.57435,-1.73624l1.3953,-3.50206l-2.94845,-6.76748l0.52209,-2.15915l11.5499,2.80684l12.82663,-2.09515z" fill="#e70b2a" stroke="#000000" stroke-width="0" stroke-linecap="round"/><path d="M225.72924,213.44906l2.29714,9.57743l-2.02575,5.14982l1.55462,1.4518l-1.63291,3.6415l-7.19597,1.34705l-11.39011,-0.79219l-1.348,-1.31745l0.66854,-13.23427l-0.7847,-2.86187l10.80643,0.55966z" fill="#e70b2a" stroke="#000000" stroke-width="0" stroke-linecap="round"/><path d="M222.47316,243.40977l-3.25074,-1.83027l-0.92675,1.57057l-3.3636,-2.09264l-0.73079,1.41453l-6.28558,-3.9926l2.28203,-4.09081l10.03183,1.13734l5.03781,-1.35403l-2.45835,5.96036l0.50446,1.83978z" fill="#e70b2a" stroke="#000000" stroke-width="0" stroke-linecap="round"/><path d="M216.86423,218.26717l2.43612,12.75435l-2.08227,3.20236l-8.65747,-0.92609l-2.89246,-1.88077l-0.85506,-14.95983l1.29154,-0.62998l8.96227,0.68331z" fill="#ff5b06" stroke="#000000" stroke-width="0" stroke-linecap="round"/><path d="M215.68765,211.03508l-2.14437,3.74991l-7.69161,-0.15103l-4.57633,-2.68174l-1.02186,-5.6617l1.97388,-3.71377l2.62934,-0.20102l3.77076,0.98208l5.92433,3.99918z" fill="#ff5b06" stroke="#000000" stroke-width="0" stroke-linecap="round"/><path d="M214.03668,231.58541c-2.76303,0.92564 -5.95791,-1.1748 -7.13601,-4.69138c-1.17805,-3.51659 0.10681,-7.11772 2.86984,-8.04336c2.76303,-0.92564 5.95794,1.17481 7.13602,4.69137c1.17805,3.51659 -0.10681,7.11773 -2.86985,8.04336z" fill="#8f3926" stroke="none" stroke-width="0" stroke-linecap="butt"/><path d="M213.48551,229.94015c-2.04908,0.68646 -4.41847,-0.8712 -5.29214,-3.47918c-0.87368,-2.60797 0.0792,-5.27859 2.1283,-5.96508c2.04908,-0.68646 4.41849,0.87122 5.29217,3.4792c0.87365,2.60796 -0.07923,5.27857 -2.12833,5.96506z" fill="#33e86f" stroke="none" stroke-width="0" stroke-linecap="butt"/><path d="M220.04333,236.20794l0.58319,3.17178l-1.6635,0.97603l-2.89246,-1.88077l-0.19592,-2.18509l1.35357,-1.17756l1.16735,0.46511z" fill="#fe5513" stroke="#000000" stroke-width="0" stroke-linecap="round"/><path d="M215.24465,234.99839l0.38171,3.4817l-1.32255,0.90379l-2.33983,-1.37444l-0.74348,-2.24715l0.97654,-1.27577z" fill="#fe5513" stroke="#000000" stroke-width="0" stroke-linecap="round"/><path d="M210.17728,234.20205l1.06867,3.78143l-1.32764,0.45951l-2.71686,-1.47265l-0.03059,-2.66546z" fill="#fe5513" stroke="#000000" stroke-width="0" stroke-linecap="round"/><path d="M212.86654,241.0372l-2.56669,-1.57446" fill="none" stroke="#ff5b06" stroke-width="0.25" stroke-linecap="round"/><path d="M214.63666,240.20398l2.30105,1.40173" fill="none" stroke="#ff5b06" stroke-width="0.25" stroke-linecap="round"/><path d="M222.38023,242.97144l-3.23079,-2.00628" fill="none" stroke="#ff5b06" stroke-width="0.25" stroke-linecap="round"/><path d="M236.54576,193.36803l-2.93195,-5.14263l-0.24604,-4.05922l5.18414,0.916l10.6626,9.32336l-3.9924,2.53469l-5.29991,-0.19001z" fill="#fdffff" stroke="#000000" stroke-width="0" stroke-linecap="round"/><path d="M281.12805,194.92361l13.05048,-9.66627l4.48179,-0.65511l-0.35742,2.80167l-7.33981,10.17489l-6.96822,0.09484z" fill="#fdffff" stroke="#000000" stroke-width="0" stroke-linecap="round"/><path d="M250.45182,195.0495l2.50229,-6.82208l3.32244,6.70868l-0.23996,1.97173l-1.78745,1.21874l-1.34463,-0.43775l-1.74864,-1.17217z" fill="#fdffff" stroke="#000000" stroke-width="0" stroke-linecap="round"/><path d="M262.72839,194.62491l0.2781,2.08412l-1.80433,2.25827l-1.86946,-0.13433l-2.04699,-2.00886l-0.2781,-2.08412l2.9883,-4.73458z" fill="#fdffff" stroke="#000000" stroke-width="0" stroke-linecap="round"/><path d="M279.64571,196.56323l-2.21001,1.62781l-1.66493,0.07695l-1.65143,-0.75467l0.13264,-1.76551l4.36164,-6.06403l0.86976,4.06935z" fill="#fdffff" stroke="#000000" stroke-width="0" stroke-linecap="round"/><path d="M249.14512,194.3692l-3.92301,2.57102l-5.29991,-0.19001l-2.51568,-2.51994c3.67322,-0.32817 5.63554,-0.31052 9.16156,-2.13877z" fill="#e1c3ac" stroke="#000000" stroke-width="0" stroke-linecap="butt"/><path d="M281.12805,194.92361l3.17816,-2.35399c2.05924,3.03811 5.25298,2.60536 8.52473,2.41986l-1.86783,2.58935l-6.96822,0.09484z" fill="#e1c3ac" stroke="#000000" stroke-width="0" stroke-linecap="butt"/><path d="M256.03659,196.90783l-1.78745,1.21874l-1.34463,-0.43775l-1.74864,-1.17217l-0.30411,-0.63374c1.78324,-0.04951 3.52661,0.10057 5.2756,0.27919z" fill="#e1c3ac" stroke="#000000" stroke-width="0" stroke-linecap="butt"/><path d="M263.00649,196.70903l-1.80433,2.25827l-1.86946,-0.13433l-2.04699,-2.00886l-0.07331,-0.54921c1.8913,0.19747 3.80003,0.38691 5.78332,0.35352z" fill="#e1c3ac" stroke="#000000" stroke-width="0" stroke-linecap="butt"/><path d="M279.64571,196.56323l-2.21001,1.62781l-1.66493,0.07695l-1.65143,-0.75467l0.10717,-1.42677c1.84989,-0.08666 3.66353,-0.28018 5.40232,0.18449z" fill="#e1c3ac" stroke="#000000" stroke-width="0" stroke-linecap="butt"/><path d="M306.67859,231.94411l2.66917,-0.30205l3.80971,2.38075l-1.18091,2.84243l-1.24995,1.01582l-2.57739,-2.3114z" fill="#e70b2a" stroke="#000000" stroke-width="0" stroke-linecap="round"/><path d="M310.14706,234.07256l-0.80331,-2.18392l3.56309,2.37676l-0.9628,1.56321l-1.23072,-0.16798z" fill="#fe5513" stroke="#000000" stroke-width="0" stroke-linecap="round"/><path d="M311.83337,236.56695l-0.65563,0.87744l-0.86702,-1.29688l1.58002,-0.07304z" fill="#fe5513" stroke="#000000" stroke-width="0" stroke-linecap="round"/><path d="M152.74974,139.80579l36.50771,31.37082l24.65979,5.39138l5.99004,2.14371l-14.15236,1.05115l-20.79395,-0.1296l-10.35141,-2.87153l-15.70297,-6.28578l-15.86024,-9.40774l4.96544,-24.04282z" fill="none" stroke="#48071c" stroke-width="1.5" stroke-linecap="round"/><path d="M152.74974,139.80579l2.25189,1.93502c-0.22131,0.26479 -0.46292,0.5237 -0.73259,0.79916c-1.72048,5.83546 -4.8596,10.87214 -4.96191,17.17412c0,0 -0.0019,0.11753 0.03989,0.26494c-2.13997,0.37576 -4.18663,0.89767 -6.28971,1.03599l4.95446,-23.98963z" fill="none" stroke="#48071c" stroke-width="1.5" stroke-linecap="butt"/><path d="M156.24363,142.35805l12.14494,7.68374l13.20471,6.45318l11.37069,4.13584l5.31443,5.70121l6.35733,5.51018l10.52219,5.16187l-27.24578,0.18158l-12.00453,-3.52225l-16.73237,-6.92637l-12.15844,-6.85212l4.92156,-21.34004z" fill="none" stroke="#48071c" stroke-width="1.5" stroke-linecap="round"/><path d="M152.74974,139.80579l36.50771,31.37082l24.65979,5.39138l2.24983,2.32409l-10.41216,0.87078l-20.79395,-0.1296l-10.35141,-2.87153l-15.70297,-6.28578l-15.86024,-9.40774l4.96544,-24.04282z" fill="#28312a" stroke="#000000" stroke-width="0" stroke-linecap="round"/><path d="M152.74974,139.80579l2.25189,1.93502c-0.22131,0.26479 -0.46292,0.5237 -0.73259,0.79916c-1.72048,5.83546 -4.8596,10.87214 -4.96191,17.17412c0,0 -0.0019,0.11753 0.03989,0.26494c-2.13997,0.37576 -4.18663,0.89767 -6.28971,1.03599l4.95446,-23.98963z" fill="#3e4140" stroke="#000000" stroke-width="0" stroke-linecap="butt"/><path d="M156.24363,142.35805l12.14494,7.68374l13.20471,6.45318l11.37069,4.13584l5.31443,5.70121l6.35733,5.51018l10.52219,5.16187l-27.24578,0.18158l-12.00453,-3.52225l-16.73237,-6.92637l-12.15844,-6.85212l4.92156,-21.34004z" fill="#415555" stroke="#000000" stroke-width="0" stroke-linecap="round"/><path d="M181.59329,156.49493l11.37069,4.13584l5.28862,5.67358c-1.51871,3.41894 -2.62617,6.83803 -2.98072,10.83224l-7.35974,0.04905l-10.88951,-3.17347c0,0 0.69957,-6.07686 1.46221,-8.99965c0.7609,-2.91627 3.10845,-8.51755 3.10845,-8.51755z" fill="#3c413d" stroke="#000000" stroke-width="0" stroke-linecap="butt"/></g></g></svg>