<svg version="1.1" xmlns="http://www.w3.org/2000/svg" xmlns:xlink="http://www.w3.org/1999/xlink" width="105.61281" height="88.79554" viewBox="0,0,105.61281,88.79554"><g transform="translate(-185.70904,-135.75463)"><g data-paper-data="{&quot;isPaintingLayer&quot;:true}" fill-rule="nonzero" stroke="none" stroke-width="0.5" stroke-linecap="butt" stroke-linejoin="miter" stroke-miterlimit="10" stroke-dasharray="" stroke-dashoffset="0" style="mix-blend-mode: normal"><path d="M269.94402,171.97959c-0.11136,0.07676 -0.25411,0.13709 -0.43679,0.16958c-0.98456,0.17506 -1.15963,-0.8095 -1.15963,-0.8095l-0.13682,-0.81354c-0.92514,-2.98728 -3.34734,-7.16876 -3.31695,-10.02597c1.54554,-1.98556 3.1551,-4.06401 5.27792,-5.48212c1.1096,-0.74124 2.85485,-1.98681 4.32678,-0.83122c0.57754,0.45341 -0.35463,1.79716 0.26796,2.18639c0.78515,0.49086 1.90849,0.85653 2.15896,1.74797c0.1377,0.49009 -0.80534,1.18884 -0.15706,1.67001c0.65188,0.48382 1.73494,0.54985 2.06464,1.2917c0.45338,1.02015 -1.38689,2.51751 -0.58783,3.29708c0.18266,0.17821 0.56828,-0.22939 0.76289,-0.0643c0.06441,0.05464 0.12592,0.11202 0.18498,0.1717l0.02912,-0.03483l0.90729,0.75826c0.22895,0.18804 0.37241,0.47549 0.36557,0.79466c-0.01076,0.50182 -0.38936,0.90937 -0.8728,0.97062l-1.02363,0.14813c-2.61609,0.98793 -6.50475,1.90712 -8.04406,4.39505c0,0 -0.22335,0.35479 -0.61054,0.46032z" data-paper-data="{&quot;index&quot;:null}" fill="#9f4d1e"/><path d="M275.58126,201.23807c0.84206,0.64784 1.66401,4.63734 0.90727,5.65733c-0.81315,1.09603 -1.72542,-0.01748 -2.54831,0.72544c-0.75432,0.68102 -1.22258,1.19461 -2.11482,1.74442c-0.04936,0.06345 -0.0865,0.09903 -0.0865,0.09903l-0.49138,0.42195c-0.51574,0.21247 -0.99235,0.6945 -1.54721,0.63741c-1.34729,-0.13861 -6.59836,-0.62728 -7.14115,-2.08332c-0.04068,-0.10913 2.28916,-2.85891 2.27653,-2.94716c-0.28854,-2.0164 1.36233,-3.83116 1.91122,-5.6565c0.32616,-1.08465 0.11426,-1.9919 0.65887,-2.56538c-0.01506,-0.04578 -0.02994,-0.09208 -0.04467,-0.13891l-0.04989,-0.00106l0.02906,-1.35595c0.01183,-0.55217 0.46903,-0.99018 1.02119,-0.97835c0.55217,0.01183 0.99017,0.46903 0.97834,1.0212l-0.02061,0.96203c0.52914,1.63291 1.97787,1.29352 2.97206,1.71788c1.14875,0.49033 1.89886,1.66965 3.29001,2.73992z" data-paper-data="{&quot;index&quot;:null}" fill="#9f4d1e"/><path d="M278.36175,199.76942l-0.37222,-0.3697c-2.86304,0.50907 -6.52166,0.47792 -7.49568,-3.07494c-0.63027,-2.29896 1.22515,-4.91606 1.96682,-6.94987c0.90322,-2.47681 0.58023,-5.36925 0.13,-7.90672c-0.38282,-3.20012 -3.11163,-6.91814 -1.72963,-10.16881c2.53195,-5.95553 10.89459,-6.55881 13.24018,-0.40022c1.2772,2.23589 3.07574,5.80595 2.29746,8.51675c-0.82167,2.8619 -4.89864,2.4502 -6.80973,3.7951c-1.30295,0.91693 0.34941,2.27668 1.15506,2.4975c0.72339,0.19826 1.44738,0.40871 2.13848,0.70023c2.55082,1.35151 3.50644,4.20493 3.00504,7.30902c-0.15316,0.94822 0.60232,2.5468 -0.09952,3.33765c-1.47298,1.6598 -4.87926,2.96399 -7.42627,2.71401z" data-paper-data="{&quot;index&quot;:null}" fill="#d48631"/><path d="M281.77612,166.05702c-0.35599,0.62271 -1.11253,0.41626 -1.11253,0.41626l-0.29764,-0.11217c-2.00937,-0.23089 -2.91457,-0.79568 -2.28425,-2.94734c-0.66667,-1.03838 -0.3166,-1.91063 -0.52164,-2.82065c-0.15272,-0.67781 -1.57479,-0.15257 -1.94952,-0.73766c-0.41777,-0.65229 0.49915,-1.61347 0.17539,-2.31716c-0.41806,-0.90866 -2.62363,-0.02401 -3.07972,-2.01469c-0.31488,-1.37434 1.11606,-3.04804 2.03711,-3.79888c2.53557,-2.06698 7.01776,-3.59697 9.9745,-1.85208c1.4923,1.55766 4.74108,6.70492 4.10378,8.99639c-0.53879,1.93731 -2.74691,1.75637 -3.50515,3.18229c-0.33159,0.62356 0.52011,1.44978 0.25299,2.10356c-0.53225,1.30265 -2.27203,1.71218 -3.79331,1.90211z" data-paper-data="{&quot;index&quot;:null}" fill="#d48631"/><path d="M270.39413,210.07251l0.26714,-0.19197c0.41597,-0.27651 -0.10645,-1.05887 0.14299,-1.49162c0.76592,-1.32894 1.43241,-0.72808 2.38826,-1.0709c0.39621,-0.1421 -0.64172,-0.66793 -0.63949,-1.08884c0.00331,-0.6252 0.31993,-1.23937 0.6876,-1.74505c0.25588,-0.35192 1.34303,-0.27994 1.12743,-0.65787c-0.06698,-0.1174 -0.13662,-0.23327 -0.20798,-0.34814l-0.12708,0.14199l-0.92689,-0.82958c-0.21264,-0.18804 -0.34426,-0.46488 -0.33771,-0.7709c0.01183,-0.55217 0.46903,-0.99018 1.0212,-0.97835c0.14772,0.00316 0.28727,0.0382 0.41222,0.09841l0.92032,0.41799c2.33192,1.06023 4.34022,2.66924 6.68307,3.66144c1.04821,0.44392 3.06059,1.04211 3.59016,2.17532c0.63824,1.36578 -0.48954,2.69153 -0.79351,3.94125c-0.02953,1.67972 0.86297,3.3878 0.06267,4.95739c-1.07572,2.10978 -4.23877,2.66473 -6.30749,2.15246c-3.57605,-0.88551 -5.96048,-4.49062 -8.77194,-6.59119c0,0 -0.8011,-0.59854 -0.20256,-1.39964c0.33197,-0.4443 0.72624,-0.45808 1.01159,-0.3822z" data-paper-data="{&quot;index&quot;:null}" fill="#d48631"/><path d="M209.33319,189.1083c-1.40877,-0.26602 -5.3197,-0.15313 -6.06826,-1.74302c-0.82462,-1.75146 1.07093,-2.19506 0.9348,-3.28803c-0.06709,-0.53864 -5.06124,-0.36835 -5.19914,-0.40699c-0.60808,-0.17039 -1.30428,-0.42644 -1.62823,-0.96852c-0.18904,-0.31635 0.46468,-0.64433 0.44448,-1.01229c-0.0101,-0.18385 -0.30202,0.27736 -0.4856,0.26326c-0.4503,-0.0346 -0.85676,-0.28878 -1.29448,-0.40004c-1.06277,-0.27011 -1.78537,-0.53389 -2.50593,-0.95786l-0.0474,0.1115l-0.90091,-0.38295c-0.37667,-0.14991 -0.6392,-0.5217 -0.63001,-0.95084c0.00794,-0.37055 0.21646,-0.68973 0.51968,-0.856l0.92637,-0.52917l0.01021,0.01788l0.04972,-0.04946c2.04575,-0.82211 3.85736,-2.28109 6.05504,-2.74542c0.52657,-0.11124 1.39293,0.26784 1.59813,-0.22969c0.08604,-0.20862 -0.00089,-0.67782 -0.06347,-1.12768c-0.06139,-0.44125 -1.66738,-1.04036 -1.49578,-1.18015c0.10981,-0.08945 5.16611,-0.70577 5.63238,-0.81476c2.59508,-0.60659 3.71693,0.5829 6.35055,0.60797c0.04208,-0.05213 0.07224,-0.08102 0.07224,-0.08102l0.3801,-0.36415c2.79333,-2.66792 3.58874,-6.83704 6.09386,-9.8391c2.14274,-2.55957 4.07959,-4.79498 6.85591,-6.7411c1.1387,-0.7982 3.38825,-1.42186 4.2971,-2.29684c0.63195,-0.6084 0.29309,-4.11594 0.49,-4.99364c0.60937,-2.71623 2.41187,-4.54642 4.34666,-6.39754c2.79331,-2.29387 7.08318,-5.27859 10.96342,-3.88293c0.93277,0.33551 1.36816,0.91085 2.01407,1.58153c3.97718,4.12972 0.16493,8.18059 -4.30771,9.37972c-0.93965,0.35366 -1.91152,0.55439 -2.75491,1.11879c-1.49808,1.00251 -3.352,4.3941 -1.09912,5.75038c3.03234,1.82553 6.0538,-2.11025 7.02125,-4.40753c0.66581,-1.46022 1.47404,-3.38389 2.88556,-4.29958c3.0899,-2.00449 8.79673,0.27975 11.21486,2.56384c2.65377,2.50665 14.24712,20.77325 11.23904,23.75779c-0.47035,0.15934 -1.50613,1.62644 -2.20618,1.28571c-4.9371,-2.40302 -14.33673,-17.17866 -17.5637,-17.80157c-1.44966,-0.27983 -3.98052,-0.2537 -4.37579,1.27492c-0.40458,1.56464 0.12593,4.05947 0.09015,5.72893c-0.12025,5.61151 0.77326,9.97324 4.45642,14.31158c1.12448,1.32451 3.06147,2.11407 4.36119,3.26239c0.5002,0.44195 1.41598,0.77905 1.38538,1.44583c-0.04644,1.01208 -1.77109,1.51823 -2.52895,1.80525c-1.76984,0.61334 -1.00497,3.38271 -2.14318,4.78698c-2.54706,3.14242 -5.94672,6.04842 -7.0717,9.46065c-0.7648,2.31976 -1.59873,3.85861 -0.7337,6.16647c0.41848,0.88595 1.25387,3.15434 2.12081,3.6878c2.0205,1.24328 7.20042,0.01092 9.46596,-0.11744c1.28436,-0.07277 5.64552,-2.28331 6.58637,-1.02989c0.84633,1.12752 -0.49397,6.75101 -1.00531,7.96133c-2.49931,3.9769 -10.00978,8.08957 -14.75137,5.76047c-2.07089,-1.01723 -3.14054,-3.49122 -3.42924,-5.68338c-0.16932,-1.28576 -0.56537,-2.36389 -0.80619,-2.11559c-4.31306,-0.80288 -7.42045,-0.51972 -11.84367,-0.96659c-2.04025,-0.20612 -4.25496,-0.92283 -6.23495,-1.47485c-2.05177,-0.57202 -3.43482,-1.39832 -5.1611,-2.48505c-2.34025,-2.41493 -4.34137,-5.64152 -5.69338,-8.77463c-1.40266,-3.25046 -1.7336,-7.67655 -3.9255,-10.47959c0,0 -0.01402,-0.01832 -0.03502,-0.05152c-0.29061,-0.05486 -0.58123,-0.10971 -0.87184,-0.16457z" data-paper-data="{&quot;index&quot;:null}" fill="#a25121"/><path d="M246.54007,197.19336c1.14972,-3.55775 3.34512,-6.79362 5.42118,-9.86008c0.68216,-1.00759 1.63748,-2.14882 2.68643,-2.75807c0.45817,-0.26612 0.6303,-0.08631 0.84503,-0.57069c0.11137,-0.2512 -1.93856,-1.94086 -2.16645,-2.13876c-5.9478,-6.19908 -11.09617,-14.04769 -7.90768,-22.96858c1.74131,-3.69965 4.90517,-3.01015 8.21642,-2.35213c5.76261,1.14517 10.69964,2.84642 12.78069,8.77522c0.93183,2.66805 1.53821,5.51773 2.51981,8.14698c0.46083,1.23436 1.50715,1.64541 1.76337,3.10573c0.6592,3.75692 -0.5718,8.59908 -0.65915,12.45928c0.19259,2.57278 -1.07879,3.71607 -1.64225,6.05434c-1.11687,4.63476 -1.87574,10.90193 -6.26531,13.77523c-1.41951,0.92918 -3.14474,1.05212 -4.76495,1.41734c-2.69458,0.24254 -6.20982,0.87421 -8.80056,-0.10066c-5.56996,-2.09591 -5.10371,-8.7571 -2.38061,-12.6664c0,0 0.12967,-0.18577 0.354,-0.31874z" data-paper-data="{&quot;index&quot;:null}" fill="#de8f31"/><path d="M283.65366,169.0151c2.76992,2.33715 4.00342,7.35301 2.69129,10.85318c-0.71204,1.8994 -2.70585,2.62011 -4.52055,2.96667c-0.48741,0.09309 -1.32039,0.26828 -1.96175,0.28451c0.52661,0.50734 1.0643,1.24467 0.88781,1.729c1.05265,0.21664 2.36127,0.54227 3.16885,1.03098c3.96587,2.39991 3.98991,10.43738 0.32599,12.8731c-1.41015,0.93744 -3.42362,1.01916 -5.03939,0.98796c0,0 -0.99977,-0.02142 -0.97835,-1.02119c0.02143,-0.99977 1.02119,-0.97835 1.02119,-0.97835c1.21402,0.02893 2.86672,0.03681 3.93159,-0.68131c2.36855,-1.59727 2.46818,-8.02295 -0.31198,-9.47859c-0.78294,-0.40993 -2.00793,-0.69003 -2.88693,-0.85446l-1.2407,-0.02659v0v0c-0.55217,-0.01183 -0.99018,-0.46903 -0.97835,-1.0212c0.00592,-0.27607 0.12318,-0.52362 0.30798,-0.70066l0.49264,-0.47196c-0.01675,-0.07658 -0.04936,-0.1493 -0.10153,-0.21621c-0.54955,-0.70463 -1.93437,-1.21522 -1.26649,-2.57952c0.57346,-1.17144 4.996,-0.76288 6.20576,-1.42879c3.00669,-1.65504 1.00513,-8.05089 -1.02961,-9.73197c-0.3048,-0.25473 -0.60957,-0.50946 -0.91437,-0.76419l-0.48134,-0.33142c0,0 -0.53677,-0.3747 -0.43856,-0.95206c-0.71177,0.05703 -1.3991,0.12862 -1.99446,0.27024c-2.30833,0.54908 -3.90493,1.76595 -5.79502,3.12124c0,0 -1.42217,1.01977 -2.44194,-0.4024c-1.01977,-1.42218 0.4024,-2.44194 0.4024,-2.44194c2.25876,-1.61963 4.25418,-3.0101 7.00889,-3.67812c1.81327,-0.43972 3.84837,-0.31175 5.60785,-0.75261c1.36708,-0.34255 1.45841,-2.89402 1.93859,-3.76722c0.57767,-1.05048 1.9395,-1.47727 2.61886,-2.46503c0.38792,-0.56403 -0.38746,-1.33413 -0.76229,-1.90694c-1.27092,-1.94225 -2.64387,-3.93497 -4.00365,-5.83813c-1.66304,-1.95183 -2.94832,-0.36171 -5.04504,0.52772c-4.12189,1.74851 -7.3113,4.73494 -10.31561,8.02133l-1.10517,1.40961c-0.32767,0.42739 -0.84755,0.6983 -1.42724,0.68588c-0.96628,-0.0207 -1.73282,-0.8208 -1.71211,-1.78708c0.00279,-0.12998 0.01968,-0.25635 0.04917,-0.37768l0.40416,-1.81741l0.19684,0.04378c-0.04186,-0.40134 -0.09477,-0.80111 -0.16797,-1.19801c-0.52378,-2.83973 -4.29347,-5.97943 -6.61851,-7.35525c-3.58393,-2.12076 -7.53929,-2.31116 -8.82537,1.26577c0.04903,2.05679 0.08882,4.23156 -1.91661,5.53787c-2.05924,1.34137 -8.51809,1.26755 -9.73116,-1.11025c-0.4667,-0.91481 -0.10725,-2.07926 0.13141,-3.07812c0.6625,-2.77277 2.7362,-3.55391 5.16448,-4.27445c0.97221,-0.28848 2.17136,-0.32377 2.99016,-0.88712c0.10882,-0.32647 0.32486,-0.71569 0.75339,-0.94529c0.91028,-1.987 1.74792,-5.93979 -1.19274,-6.04894c-4.6366,0.31911 -10.56636,2.54116 -13.14531,6.67243c-1.32638,2.12478 -0.81644,4.87491 -1.92405,7.04691c-1.22765,2.40743 -2.97285,2.43296 -4.95788,3.77875c-2.68003,1.81698 -4.63811,4.107 -6.93327,6.31379c-2.10741,2.23949 -2.14323,6.84219 -4.46482,8.63796c-2.00669,1.5522 -6.2409,0.94199 -8.57752,1.12227c-1.13647,0.08768 -4.24899,0.85325 -5.38721,0.9139c-0.21882,0.01166 1.29396,-0.68701 1.35776,-0.47736c0.22225,0.73037 1.52191,1.24347 1.21402,1.94207c-0.45734,1.03769 -1.88501,1.2653 -2.87295,1.82201c-1.64168,0.92509 -3.44007,1.76647 -5.21274,2.58441c1.6122,0.0671 3.19236,0.24129 4.22945,0.82619c0.53241,0.30026 0.49681,1.16861 0.96891,1.55685c0.67689,0.55666 3.7905,0.14303 4.58581,0.16008c0,0 0.41652,0.00893 0.83875,0.22129c0.45272,-0.11032 1.02502,-0.05598 1.58594,0.5295c1.21064,1.26367 -0.05302,2.4743 -0.05302,2.4743l-0.72438,0.53244c-0.31661,0.1255 -0.60878,0.29889 -0.89307,0.4882c1.96359,0.07078 4.33342,0.73991 5.91041,0.93181c0,0 1.15037,0.13999 1.46495,1.12824c0.4274,0.39534 0.56372,0.94098 0.56372,0.94098c1.10456,4.43001 2.17131,8.1122 3.92858,12.3059c0.79131,1.88847 1.85841,4.4018 3.4725,5.75284c2.92977,2.45229 7.60049,4.05727 11.25367,4.8869c3.21227,0.05743 6.48285,-0.33209 9.6932,0.01303c1.07815,0.1159 2.38905,0.5945 3.19388,1.32118c1.68391,1.52038 0.15187,4.28838 2.07883,6.11057c1.29116,1.22096 4.26486,1.07676 5.8316,0.68314c4.19887,-1.05487 6.78025,-2.46577 9.49016,-5.87863c1.01767,-2.19682 1.38335,-3.29875 0.699,-5.66957l-0.04308,-1.43464c0,0 0.03749,-1.7496 1.78709,-1.71211c0.58432,0.01252 0.96931,0.216 1.22294,0.48151c0.06582,-0.24846 0.20423,-0.51117 0.44862,-0.77868c1.18034,-1.29202 2.47235,-0.11169 2.47235,-0.11169c3.64042,3.3381 7.06555,9.84052 12.16781,11.03002c4.3241,1.00807 2.51317,-3.10537 2.88682,-5.549c0.14889,-0.97374 1.36908,-1.94325 0.9062,-2.81278c-0.23635,-0.44401 -0.81789,-0.58572 -1.22683,-0.87858c-3.36737,-3.54248 -8.10008,-5.67952 -11.94907,-8.69217l-1.2088,-0.60522c0,0 -1.54813,-0.81597 -0.73214,-2.36409c0.81597,-1.54812 2.3641,-0.73215 2.3641,-0.73215l1.73635,0.94709c3.96807,3.11675 8.73458,5.31372 12.24468,8.95207c2.68386,2.82946 2.00913,3.28377 1.31674,6.76814c-0.22186,1.11651 0.62069,2.24564 0.50259,3.37785c-0.41934,4.02008 -4.00871,5.78043 -7.59414,5.00677c-6.0192,-1.29883 -9.52772,-8 -13.77497,-11.8639c0,0 -0.05009,-0.04576 -0.12155,-0.12914l-0.03253,0.16705c0.89789,3.35378 0.36878,5.36687 -1.09253,8.43947c-4.00745,5.16047 -14.34377,11.53803 -20.65784,5.94716c-0.96729,-0.8565 -2.00346,-2.84098 -2.31552,-4.08516c-0.17419,-0.6945 -0.24143,-1.42545 -0.18998,-2.13961c0.01989,-0.27603 0.63305,-0.58545 0.39666,-0.72934c-0.27996,-0.1704 -0.55754,0.39042 -0.88242,0.43365c-0.67642,0.09002 -1.36446,-0.02923 -2.04671,-0.04385c-2.67417,-0.0573 -5.32142,0.07094 -7.99093,0.0064c-4.27437,-0.93481 -9.68772,-2.77044 -13.09159,-5.68688c-5.29615,-4.53776 -6.84557,-12.9976 -8.42345,-19.41765c-2.18988,-0.20906 -4.50019,-0.24233 -6.61455,-0.61998c-1.12477,-0.20089 -2.83036,0.16117 -3.31447,-0.87378c-0.63774,-1.36336 -0.23863,-2.58534 0.58806,-3.60851c-0.98929,-0.08793 -1.93688,-0.30018 -2.70976,-0.78459c-0.47406,-0.29712 -0.38223,-1.12187 -0.82795,-1.46006c-0.81388,-0.61754 -2.0456,0.07875 -3.06494,0.00998c-0.50573,-0.03412 -3.38924,-0.39118 -3.99404,-0.46478l-1.83745,-0.2236c-0.89208,-0.09753 -1.577,-0.86292 -1.55741,-1.77702c0.01242,-0.57969 0.30535,-1.08748 0.74638,-1.39655l1.49589,-1.07262l0.24376,0.33995c1.49779,-1.28265 3.12249,-2.14774 5.28739,-3.17432c1.3796,-0.65419 2.71442,-1.49492 4.209,-1.80714c0.3173,-0.06629 1.00528,0.71229 0.88024,0.41323c-0.25329,-0.60578 -1.53659,-0.84337 -1.31913,-1.46292c0.42004,-1.19661 1.66175,-1.98049 2.75403,-2.62488c2.18837,-1.29104 5.87892,-0.59041 8.30055,-0.88721c0.96101,-0.11778 2.08892,0.23079 2.88724,-0.31702c0.79119,-0.54291 0.46328,-1.86808 0.81465,-2.76099c0.84733,-2.15321 1.73274,-3.821 3.27418,-5.54358c3.47229,-3.31375 6.65379,-5.69778 10.60407,-8.32269c0.81113,-0.53897 0.74066,-1.48135 0.91295,-2.30543c0.42487,-2.0322 0.71612,-4.09679 1.82259,-5.90221c3.23364,-5.2763 10.33562,-7.92507 16.21571,-8.33503c0.8648,0.13678 1.8196,0.00256 2.59439,0.41034c2.46595,1.29785 3.20355,4.50693 2.73536,7.50623c5.2856,-1.21615 12.28337,4.1763 15.1336,7.87595c0.5195,0.67432 1.38341,1.92478 1.91536,3.14352c2.7801,-2.77375 5.80632,-5.18073 9.48721,-6.7442c3.82283,-1.62375 5.78818,-2.81002 9.10385,0.4586c1.93518,2.69101 6.68223,7.88163 5.24701,11.45681c-0.46857,1.16722 -2.14577,1.50536 -2.70259,2.63314c-1.13698,2.3029 -0.97647,4.29047 -3.84271,5.41641c-0.49656,0.19505 -1.08272,0.31196 -1.70785,0.39234c0.2837,0.23711 0.56741,0.47422 0.85112,0.71133zM244.67979,152.2075l0.02836,-0.91817c0.0618,-0.47558 0.10205,-0.87171 0.14323,-1.22482c-2.10514,0.43282 -4.51249,0.69658 -4.77565,2.94845c-0.06841,0.58533 1.14661,-0.27995 1.72952,-0.3666c0.9614,-0.14291 1.98191,0.20037 2.92028,-0.02692c-0.04945,-0.23868 -0.04574,-0.41197 -0.04574,-0.41197z" data-paper-data="{&quot;index&quot;:null}" fill="#783b1a"/><path d="M270.548,195.08132c-0.954,0.25416 -2.0049,0.43506 -2.73633,-0.65412c-0.8799,-1.31026 0.1198,-2.80814 1.24491,-3.34376c1.35557,-0.64536 3.45165,0.20514 4.87992,-0.28109c0.7808,-0.26582 1.89063,-1.87139 2.91439,-1.17354c1.01344,0.6908 0.43559,2.71968 -0.10435,3.46643c-1.015,1.40372 -2.86649,1.43426 -4.55534,1.66102c-0.28145,0.17415 -0.60033,0.16732 -0.60033,0.16732l-0.21148,-0.03332c-0.20308,0.04204 -0.40096,0.09129 -0.59164,0.15093c0,0 -0.09745,0.03018 -0.23973,0.04014z" data-paper-data="{&quot;index&quot;:null}" fill="#98461d"/><path d="M271.79587,172.89336c0.18795,0.06774 0.38353,0.12543 0.58463,0.17613l0.21271,-0.02423c0,0 0.31889,0.00683 0.59262,0.19288c1.67758,0.29889 3.52606,0.40873 4.48001,1.85464c0.50747,0.76919 0.99785,2.82097 -0.04423,3.46771c-1.05272,0.65335 -2.09274,-0.99831 -2.86145,-1.29731c-1.40612,-0.54697 -3.53672,0.21296 -4.8634,-0.48987c-1.10113,-0.58334 -2.03575,-2.12265 -1.10053,-3.39401c0.56493,-0.76799 1.26967,-0.85869 1.97428,-0.73777c0.26502,0.04548 0.53003,0.12089 0.78756,0.20147c0.14173,0.01604 0.2378,0.05038 0.2378,0.05038z" data-paper-data="{&quot;index&quot;:null}" fill="#98461d"/><path d="M210.02068,177.14295c-0.13739,0.23024 -0.39101,0.44401 -0.85906,0.43398c-0.99977,-0.02142 -0.97834,-1.0212 -0.97834,-1.0212l0.65234,-1.10086c1.27525,-0.47364 2.46888,-0.97065 3.75032,-1.40126c0.10444,-0.28399 0.35332,-0.63 0.94586,-0.61731c0.99977,0.02142 0.97834,1.02119 0.97834,1.02119l-0.01694,0.19473c0.01104,0.05613 0.01755,0.10971 0.02007,0.16084c0.56112,3.8169 2.17617,6.81163 1.4191,10.8222c0,0 -0.18549,0.98264 -1.16813,0.79715c-0.98264,-0.1855 -0.79715,-1.16813 -0.79715,-1.16813c0.63243,-3.35025 -0.58482,-6.03341 -1.24206,-9.14522c-0.91565,0.32185 -1.79035,0.67167 -2.70434,1.02388z" data-paper-data="{&quot;index&quot;:null}" fill="#843e18"/><path d="M271.85889,191.71475c-0.04772,0.25161 -0.18974,-0.15658 -0.5957,0.0072c-0.92737,0.37414 -1.18045,0.12765 -1.18045,0.12765l-0.44273,-1.15198c0.01624,-2.92763 0.34178,-5.74912 0.57354,-8.65485c0.11205,-1.40492 -0.14433,-3.49043 0.27065,-4.80794c0.52213,-1.65771 1.02496,-1.48604 2.45966,-2.03132c1.50571,0.02644 3.4805,0.19869 4.48079,1.57731c0.90596,1.24864 0.29648,3.45287 0.35611,4.87462c0.19371,4.61853 0.29414,10.66634 -5.92188,10.05931z" data-paper-data="{&quot;index&quot;:null}" fill="#de9a39"/><path d="M256.83157,176.74444c-0.10753,-0.07269 -0.17035,-0.13826 -0.17035,-0.13826l-0.19236,-0.20672c-2.20102,-2.76292 -4.21321,-5.66941 -5.69615,-8.88326c-0.29112,-2.58123 -0.14829,-6.15523 2.78403,-7.26646c2.84686,-1.07884 8.39695,1.06134 10.57438,2.96921c1.79697,1.57452 2.93319,4.15996 3.92904,6.26314c0.8913,2.22475 1.86922,6.15267 0.46163,8.38467c-1.48841,2.36014 -8.04417,2.81896 -10.17535,1.1764c-0.72667,-0.56007 -1.17172,-1.42884 -1.51486,-2.29874z" data-paper-data="{&quot;index&quot;:null}" fill="#fffeff"/><path d="M259.61117,192.35697c0.05162,-0.07041 0.09359,-0.11061 0.09359,-0.11061l0.75979,-0.55859c3.43607,-0.75941 6.83687,2.89658 3.43182,5.63717c-3.4307,2.76123 -6.42947,-1.46871 -4.57134,-4.67291c0,0 0.10074,-0.16784 0.28615,-0.29505z" data-paper-data="{&quot;index&quot;:null}" fill="#4d2813"/><path d="M260.59241,176.97472c-1.71917,-3.28086 1.45803,-7.37844 4.76731,-4.47279c3.28453,2.88394 -0.26975,6.39088 -3.67014,5.48498l-0.73516,-0.59062c0,0 -0.04021,-0.04197 -0.08877,-0.11452c-0.17979,-0.13504 -0.27324,-0.30704 -0.27324,-0.30704z" data-paper-data="{&quot;index&quot;:null}" fill="#4d2813"/><path d="M258.11768,188.87103c2.19959,-1.54977 8.72968,-0.81054 10.11561,1.6112c1.31068,2.29024 0.1654,6.17268 -0.82038,8.3572c-1.08503,2.0586 -2.33095,4.59299 -4.19372,6.0891c-2.25714,1.81285 -7.89384,3.71332 -10.69186,2.51352c-2.88202,-1.23582 -2.87163,-4.81265 -2.47021,-7.37904c1.61925,-3.14737 3.75409,-5.965 6.07145,-8.6311l0.20103,-0.19828c0,0 0.06557,-0.06282 0.17613,-0.13083c0.3801,-0.85441 0.86195,-1.70333 1.61194,-2.23174z" data-paper-data="{&quot;index&quot;:null}" fill="#fffeff"/><path d="M251.01843,178.45153c-0.01676,0.01059 -0.03413,0.02104 -0.05211,0.03131c-0.81968,0.46821 -1.2879,-0.35145 -1.2879,-0.35145l-0.38006,-0.66577c-1.43535,-2.65063 -2.77523,-5.43292 -4.04492,-8.17479c1.46236,-1.94624 4.57969,-2.89589 6.89824,-1.32423c1.45503,0.9863 2.08541,3.37047 2.95532,4.79647c0.60244,0.98755 2.07716,1.8988 1.72633,3.31486c-0.52985,2.1386 -4.12916,2.05991 -5.81489,2.3736z" data-paper-data="{&quot;index&quot;:null}" fill="#713617"/><path d="M256.62399,191.33028c0.28985,1.42979 -1.22254,2.27702 -1.86673,3.23786c-0.93019,1.38744 -1.66214,3.74239 -3.15807,4.66547c-2.38374,1.47091 -5.45752,0.38859 -6.83517,-1.61851c1.38598,-2.68497 2.8438,-5.40731 4.39138,-7.99402l0.40822,-0.64887c0,0 0.50291,-0.79887 1.30178,-0.29596c0.01753,0.01104 0.03444,0.02221 0.05072,0.03351c1.67074,0.38561 5.27012,0.46117 5.70787,2.62051z" data-paper-data="{&quot;index&quot;:null}" fill="#713617"/><path d="M260.95266,191.36613c0.05163,-0.0704 0.09359,-0.11061 0.09359,-0.11061l0.75979,-0.55859c3.43606,-0.7594 6.83687,2.89659 3.43182,5.63717c-3.43071,2.76122 -6.42946,-1.4687 -4.57133,-4.67291c0,0 0.10074,-0.16784 0.28615,-0.29506z" data-paper-data="{&quot;index&quot;:null}" fill="#4d2813"/><path d="M285.03628,177.07938c-0.01071,0.49989 -0.51059,0.48918 -0.51059,0.48918c-0.66652,-0.01428 -1.49966,-0.03213 -2.16618,-0.04641c0,0 -0.49988,-0.01072 -0.48917,-0.5106c0.01071,-0.49989 0.5106,-0.48917 0.5106,-0.48917c0.66652,0.01428 1.33302,0.02856 1.99954,0.04284l0.16663,0.00357c0,0 0.49988,0.01071 0.48917,0.51059z" data-paper-data="{&quot;index&quot;:null}" fill="#a0531a"/><path d="M284.75302,174.73945c-0.01071,0.49989 -0.5106,0.48918 -0.5106,0.48918c-0.33326,-0.00714 -0.83314,-0.01786 -1.1664,-0.025c0,0 -0.49988,-0.01071 -0.48917,-0.51059c0.01071,-0.49989 0.5106,-0.48917 0.5106,-0.48917c0.33326,0.00714 0.66652,0.01429 0.99977,0.02142l0.16663,0.00357c0,0 0.49989,0.01071 0.48917,0.51059z" data-paper-data="{&quot;index&quot;:null}" fill="#a0531a"/><path d="M283.79609,172.71848c-0.01071,0.49989 -0.51059,0.48917 -0.51059,0.48917c-0.16663,-0.00357 -0.49989,-0.01071 -0.66652,-0.01428c0,0 -0.49988,-0.01072 -0.48917,-0.5106c0.01071,-0.49989 0.5106,-0.48917 0.5106,-0.48917c0.16663,0.00357 0.33326,0.00714 0.49989,0.01071l0.16663,0.00357c0,0 0.49989,0.01071 0.48917,0.51059z" data-paper-data="{&quot;index&quot;:null}" fill="#a0531a"/><path d="M284.90656,190.91311c-0.01071,0.49989 -0.5106,0.48917 -0.5106,0.48917l-0.49989,-0.01071c-0.28434,-0.01047 -0.57416,0.03484 -0.84472,0.12294c0,0 -0.47762,0.14792 -0.62554,-0.3297c-0.14791,-0.47762 0.32971,-0.62554 0.32971,-0.62554c0.37502,-0.11178 0.77066,-0.1715 1.16196,-0.16748l0.49989,0.01071c0,0 0.49988,0.01071 0.48917,0.51059z" data-paper-data="{&quot;index&quot;:null}" fill="#a0531a"/><path d="M285.36717,192.75674c-0.01071,0.49989 -0.51059,0.48917 -0.51059,0.48917c-0.16663,-0.00357 -0.83314,-0.01785 -0.99977,-0.02142c0,0 -0.49989,-0.01072 -0.48917,-0.5106c0.01071,-0.49989 0.51059,-0.48917 0.51059,-0.48917c0.16663,0.00357 0.33326,0.00714 0.49989,0.01071l0.49989,0.01071c0,0 0.49988,0.01072 0.48917,0.5106z" data-paper-data="{&quot;index&quot;:null}" fill="#a0531a"/><path d="M284.14364,195.39779c-0.27607,-0.00591 -0.49509,-0.23452 -0.48917,-0.51059c0.00592,-0.27607 0.23452,-0.49509 0.5106,-0.48917c0.27607,0.00591 0.49509,0.23453 0.48917,0.5106c-0.00592,0.27607 -0.23453,0.49508 -0.5106,0.48917z" data-paper-data="{&quot;index&quot;:null}" fill="#a0531a"/><path d="M225.69971,211.21729c-1.2014,-1.28513 -0.19346,-2.93097 -0.19346,-2.93097c8.37155,-13.63675 7.77403,-30.31102 0.59378,-44.20116c-0.9835,-1.41509 -3.69032,-4.83584 -2.92033,-6.58593c0.70839,-1.6101 2.84252,-2.16431 4.49734,-2.76081c0.98366,-0.35457 2.09129,-0.00331 3.13683,0.00901c3.19589,0.03763 6.82985,-0.81576 9.47215,1.67574c3.43222,3.23633 2.3556,9.09665 2.69709,13.22007c0.88682,10.70815 2.43417,20.72848 0.52175,31.57289c-0.45914,4.56984 -1.8737,11.53959 -6.94316,13.32724c-2.42855,0.85638 -6.53154,-0.24944 -8.99513,-0.681z" fill="#009826"/><path d="M248.66964,213.63839c0.11855,-0.60049 0.76819,-0.81314 0.76819,-0.81314l0.91636,-0.28811c1.24548,-0.2195 2.37086,-0.32659 3.62621,-0.40165c1.1767,-0.07036 2.17071,-0.54488 3.26402,0.42173c1.67296,1.4791 1.20794,3.85491 -0.55554,5.02636c-3.16167,2.10024 -7.56955,0.65919 -8.26254,-2.99274c0,0 -0.09868,-0.5599 0.2433,-0.95245z" fill="#de8f31"/><path d="M250.94,153.29844c0.84877,-3.61891 5.31434,-4.86981 8.38314,-2.63607c1.7117,1.24591 2.07451,3.63948 0.33973,5.04555c-1.13371,0.91889 -2.10647,0.40222 -3.27909,0.28152c-1.25099,-0.12877 -2.37075,-0.28396 -3.60568,-0.55661l-0.90317,-0.32709c0,0 -0.63993,-0.24029 -0.73265,-0.84531c-0.32484,-0.40683 -0.20228,-0.962 -0.20228,-0.962z" data-paper-data="{&quot;index&quot;:null}" fill="#de8f31"/></g></g></svg>