<svg version="1.1" xmlns="http://www.w3.org/2000/svg" xmlns:xlink="http://www.w3.org/1999/xlink" width="205.0905" height="94.68587" viewBox="0,0,205.0905,94.68587"><defs><linearGradient x1="330.03469" y1="178.56176" x2="339.37281" y2="178.56176" gradientUnits="userSpaceOnUse" id="color-1"><stop offset="0" stop-color="#73e112"/><stop offset="1" stop-color="#75c501"/></linearGradient><linearGradient x1="323.31876" y1="188.19329" x2="332.7403" y2="188.19329" gradientUnits="userSpaceOnUse" id="color-2"><stop offset="0" stop-color="#73e112"/><stop offset="1" stop-color="#75c501"/></linearGradient><linearGradient x1="323.31876" y1="170.47005" x2="332.7403" y2="170.47005" gradientUnits="userSpaceOnUse" id="color-3"><stop offset="0" stop-color="#73e112"/><stop offset="1" stop-color="#75c501"/></linearGradient><linearGradient x1="316.54156" y1="178.56171" x2="325.87966" y2="178.56171" gradientUnits="userSpaceOnUse" id="color-4"><stop offset="0" stop-color="#73e112"/><stop offset="1" stop-color="#75c501"/></linearGradient><radialGradient cx="333.90519" cy="180.3137" r="16.05017" gradientUnits="userSpaceOnUse" id="color-5"><stop offset="0" stop-color="#fce400"/><stop offset="1" stop-color="#fce400" stop-opacity="0"/></radialGradient></defs><g transform="translate(-140.62719,-132.65707)"><g data-paper-data="{&quot;isPaintingLayer&quot;:true}" fill-rule="nonzero" stroke-width="0" stroke-linejoin="miter" stroke-miterlimit="10" stroke-dasharray="" stroke-dashoffset="0" style="mix-blend-mode: normal"><g><path d="M339.37281,178.56171c0,3.84163 -2.09037,6.95589 -4.66904,6.95589c-2.57867,0 -4.66903,-3.11426 -4.66903,-6.95589c0,-3.84163 2.09036,-6.95589 4.66903,-6.95589c2.57867,0 4.66904,3.11426 4.66904,6.95589z" fill="none" stroke="#343332" stroke-linecap="butt"/><path d="M272.93312,196.26719c0,0 -4.5762,-1.36817 -4.5762,-7.97827c0,-6.4204 4.5762,-8.35824 4.5762,-8.35824l50.67134,0.6425c0,0 -0.44662,0.89522 -0.33333,7.71569c0.09108,5.48122 0.33333,6.51472 0.33333,6.51472z" fill="none" stroke="#343332" stroke-linecap="butt"/><path d="M332.7403,188.19329c0,4.18323 -2.10911,7.57447 -4.71077,7.57447c-2.60165,0 -4.71077,-3.39123 -4.71077,-7.57447c0,-4.18323 2.10911,-7.57442 4.71077,-7.57442c2.60165,0 4.71077,3.39119 4.71077,7.57442z" fill="none" stroke="#343332" stroke-linecap="butt"/><path d="M272.93312,178.54381c0,0 -4.5762,-1.36811 -4.5762,-7.97826c0,-6.4204 4.5762,-8.35824 4.5762,-8.35824l50.52853,1.14228c0,0 -0.30382,0.39553 -0.19052,7.21596c0.09108,5.48122 1.61836,7.65699 1.61836,7.65699z" fill="none" stroke="#343332" stroke-linecap="butt"/><path d="M332.7403,170.47005c0,4.18319 -2.10911,7.57447 -4.71077,7.57447c-2.60165,0 -4.71077,-3.39123 -4.71077,-7.57447c0,-4.18319 2.10907,-7.57442 4.71077,-7.57442c2.60165,0 4.71077,3.39114 4.71077,7.57442z" fill="none" stroke="#343332" stroke-linecap="butt"/><path d="M280.09555,185.97623c0,0 -4.53563,-1.25644 -4.53563,-7.32682c0,-5.89614 4.53563,-7.67566 4.53563,-7.67566h54.07881c0,0 -4.29909,1.41219 -4.18679,7.67566c0.09026,5.03366 4.18679,7.32682 4.18679,7.32682z" fill="#8c8d8c" stroke="none" stroke-linecap="butt"/><path d="M276.66527,183.49889c0,0 -1.14296,-2.51548 -1.23813,-4.06148c-0.09539,-1.54915 0.66643,-5.22392 0.66643,-5.22392l54.84107,0.38119c0,0 -0.70865,2.8041 -0.67915,4.24053c0.03351,1.63325 0.86977,5.04473 0.86977,5.04473z" fill="#76de14" stroke="none" stroke-linecap="butt"/><path d="M277.05541,178.84763h51.4547" fill="none" stroke="#96f302" stroke-linecap="round"/><path d="M266.8169,179.45212c0,11.53821 -0.65244,21.8288 -11.70287,20.89175c-6.44563,-0.54656 -11.70287,-9.35354 -11.70287,-20.89175c0,-11.53821 4.40079,-20.54196 10.85685,-20.89174c13.83546,-0.74959 12.5489,9.35353 12.5489,20.89174z" fill="none" stroke="#013600" stroke-linecap="butt"/><path d="M317.38281,179.07733c0,11.53821 -4.94488,20.89174 -11.04467,20.89174c-6.09979,0 -11.04467,-9.35353 -11.04467,-20.89174c0,-11.53821 4.14643,-20.89174 10.24624,-20.89174c6.0998,0 11.84306,9.35353 11.84306,20.89174z" fill="none" stroke="#390455" stroke-linecap="butt"/><path d="M281.05514,179.07733c0,11.53821 -4.94488,20.89174 -11.04467,20.89174c-6.09979,0 -11.04467,-9.35353 -11.04467,-20.89174c0,-11.53821 4.14644,-20.89174 10.24624,-20.89174c6.0998,0 11.84311,9.35353 11.84311,20.89174z" fill="none" stroke="#390455" stroke-linecap="butt"/><path d="M259.23191,201.43281c0,0 -9.46791,-9.20093 -8.33903,-24.86125c0.06796,-16.32617 8.0729,-19.58359 8.0729,-19.58359l8.51638,0.13304c0,0 -9.11281,11.71619 -10.11319,21.69018c-1.31819,13.14219 9.29578,22.22244 9.29578,22.22244z" fill="none" stroke="#390455" stroke-linecap="round"/><path d="M221.09386,158.17919h30.15762c0,0 -9.33073,7.37872 -9.16553,20.23971c0.15796,12.29935 8.27854,22.20746 8.27854,22.20746h-29.56626z" fill="none" stroke="#390455" stroke-linecap="round"/><path d="M295.55959,201.43281c0,0 -9.46792,-9.20093 -8.33903,-24.86125c0.06795,-16.32617 8.0729,-19.58359 8.0729,-19.58359l8.51638,0.13304c0,0 -9.11282,11.71619 -10.1132,21.69018c-1.31819,13.14219 9.93829,22.22244 9.93829,22.22244z" fill="none" stroke="#390455" stroke-linecap="round"/><path d="M227.57327,149.45192l3.06663,-3.40738h8.17765l0.68144,4.42958h5.45177c0,0 2.73123,2.2601 3.06663,5.11102c0.3354,2.85092 -1.70369,6.47397 -1.70369,6.47397l-7.83691,1.70369l-0.97421,-8.74873l-9.58858,-0.45112l-4.77028,1.36294l-4.08883,-6.13326z" fill="none" stroke="#1a1713" stroke-linecap="round"/><path d="M317.38281,179.07733c0,11.53821 -4.94488,20.89174 -11.04467,20.89174c-6.09979,0 -11.04467,-9.35353 -11.04467,-20.89174c0,-11.53821 4.14643,-20.89174 10.24624,-20.89174c6.0998,0 11.84306,9.35353 11.84306,20.89174z" fill="#550685" stroke="#6a2194" stroke-linecap="butt"/><path d="M281.05514,179.07733c0,11.53821 -4.94488,20.89174 -11.04467,20.89174c-6.09979,0 -11.04467,-9.35353 -11.04467,-20.89174c0,-11.53821 4.14644,-20.89174 10.24624,-20.89174c6.0998,0 11.84311,9.35353 11.84311,20.89174z" fill="#550685" stroke="#6a2194" stroke-linecap="butt"/><path d="M272.93312,196.26719c0,0 -4.5762,-1.36817 -4.5762,-7.97827c0,-6.4204 4.5762,-8.35824 4.5762,-8.35824h54.56221c0,0 -4.33751,1.53777 -4.22421,8.35824c0.09108,5.48122 3.04626,7.97827 3.04626,7.97827z" fill="#53c929" stroke="none" stroke-linecap="butt"/><path d="M269.47213,193.5695c0,0 -1.15317,-2.73911 -1.24924,-4.42256c-0.09625,-1.68691 0.67242,-5.68843 0.67242,-5.68843l55.33133,0.41505c0,0 -0.715,3.05336 -0.68523,4.61766c0.03382,1.77848 0.8775,5.49334 0.8775,5.49334z" fill="#87ff17" stroke="none" stroke-linecap="butt"/><path d="M269.86577,188.50458h51.91473" fill="none" stroke="#96f302" stroke-linecap="round"/><path d="M272.93312,178.54381c0,0 -4.5762,-1.36811 -4.5762,-7.97826c0,-6.4204 4.5762,-8.35824 4.5762,-8.35824h54.56221c0,0 -4.33751,1.53781 -4.22421,8.35824c0.09108,5.48122 4.22421,7.97826 4.22421,7.97826z" fill="#53c929" stroke="none" stroke-linecap="butt"/><path d="M269.47217,175.84621c0,0 -1.15317,-2.7391 -1.24924,-4.42255c-0.09625,-1.68691 0.67237,-5.68843 0.67237,-5.68843l55.33128,0.41504c0,0 -0.71495,3.05341 -0.68523,4.61766c0.03382,1.77848 0.8775,5.49333 0.8775,5.49333z" fill="#87ff17" stroke="none" stroke-linecap="butt"/><path d="M321.78054,170.7813h-51.91469" fill="none" stroke="#96f302" stroke-linecap="round"/><path d="M339.37281,178.56176c0,3.84163 -2.09037,6.95589 -4.66904,6.95589c-2.57867,0 -4.66903,-3.11426 -4.66903,-6.95589c0,-3.84163 2.09036,-6.95589 4.66903,-6.95589c2.57867,0 4.66904,3.11426 4.66904,6.95589z" fill="#1a191a" stroke="url(#color-1)" stroke-linecap="butt"/><path d="M332.7403,188.19329c0,4.18323 -2.10911,7.57447 -4.71077,7.57447c-2.60165,0 -4.71077,-3.39123 -4.71077,-7.57447c0,-4.18323 2.10911,-7.57442 4.71077,-7.57442c2.60165,0 4.71077,3.39119 4.71077,7.57442z" fill="#1a191a" stroke="url(#color-2)" stroke-linecap="butt"/><path d="M332.7403,170.47005c0,4.18319 -2.10911,7.57447 -4.71077,7.57447c-2.60165,0 -4.71077,-3.39123 -4.71077,-7.57447c0,-4.18319 2.10907,-7.57442 4.71077,-7.57442c2.60165,0 4.71077,3.39114 4.71077,7.57442z" fill="#1a191a" stroke="url(#color-3)" stroke-linecap="butt"/><path d="M266.60241,185.97619c0,0 -4.53564,-1.25644 -4.53564,-7.32683c0,-5.89614 4.53564,-7.67566 4.53564,-7.67566h54.0788c0,0 -4.29909,1.41219 -4.18678,7.67566c0.09026,5.03366 4.18678,7.32683 4.18678,7.32683z" fill="#53c929" stroke="none" stroke-linecap="butt"/><path d="M263.17213,183.49885c0,0 -1.14297,-2.51548 -1.23813,-4.06148c-0.09539,-1.54915 0.66643,-5.22392 0.66643,-5.22392l54.84107,0.38118c0,0 -0.70866,2.8041 -0.67915,4.24053c0.03351,1.63325 0.86976,5.04473 0.86976,5.04473z" fill="#87ff17" stroke="none" stroke-linecap="butt"/><path d="M263.56227,178.84758h51.4547" fill="none" stroke="#96f302" stroke-linecap="round"/><path d="M306.338,199.75484c0,0 -11.2464,-3.35772 -11.04467,-20.67756c0.21418,-18.39187 10.24624,-20.03507 10.24624,-20.03507l-1.10437,3.30843c0,0 -2.80401,1.00771 -2.97897,4.21885c-0.1603,2.94196 0.1325,4.30872 0.1325,4.30872c0,0 -3.14759,0.92654 -3.05363,8.19911c0.06279,4.85888 1.81815,5.43742 1.81815,5.43742c0,0 0.42516,1.96191 0.43417,6.11127c0.00725,3.34832 4.0815,5.38777 4.0815,5.38777z" fill="#550685" stroke="#1a9b00" stroke-linecap="butt"/><path d="M306.77895,199.95275c-0.14623,0.01083 -0.29316,0.01632 -0.44082,0.01632c-6.09979,0 -11.04467,-9.35353 -11.04467,-20.89174c0,-11.53821 4.14643,-20.89174 10.24624,-20.89174c0.31619,0 0.63139,0.02514 0.94493,0.07439" fill="none" stroke="#6a2194" stroke-linecap="butt"/><path d="M325.87966,178.56171c0,3.84163 -2.09036,6.95589 -4.66903,6.95589c-2.57867,0 -4.66904,-3.11426 -4.66904,-6.95589c0,-3.84163 2.09037,-6.95589 4.66904,-6.95589c2.57867,0 4.66903,3.11426 4.66903,6.95589z" fill="#1a191a" stroke="url(#color-4)" stroke-linecap="butt"/><path d="M228.29866,189.48017l8.54566,-4.94749l8.09589,7.19635l-1.34932,6.74657l-17.57567,12.9742z" fill="none" stroke="#823813" stroke-linecap="round"/><path d="M259.23191,201.43281c0,0 -9.46791,-9.20093 -8.33903,-24.86125c0.06796,-16.32617 8.0729,-19.58359 8.0729,-19.58359l8.51638,0.13304c0,0 -9.11281,11.71619 -10.11319,21.69018c-1.31819,13.14219 12.50841,22.22244 12.50841,22.22244z" fill="#7414ad" stroke="#000000" stroke-linecap="round"/><path d="M255.10679,195.04556c0,0 -4.27827,-5.74115 -4.347,-17.01022c-0.06508,-9.80578 3.54861,-16.12381 3.54861,-16.12381l8.11716,0.13304c0,0 -3.40176,9.15662 -3.59287,15.1698c-0.45058,8.21485 3.85899,17.56506 3.85899,17.56506z" fill="#a227c8" stroke="#000000" stroke-linecap="round"/><path d="M251.38088,185.46462c0,0 -0.79838,-5.03209 -0.79838,-7.45182c0,-2.22053 0.79838,-6.52033 0.79838,-6.52033l8.25024,-0.26613c0,0 -0.66535,4.97906 -0.66535,7.31877c0,2.31749 0.93148,7.05259 0.93148,7.05259z" fill="#c95ade" stroke="none" stroke-linecap="butt"/><path d="M221.09386,158.17919h30.15762c0,0 -9.33073,7.37872 -9.16553,20.23971c0.15796,12.29935 8.27854,22.20746 8.27854,22.20746h-29.56626z" fill="#a422d0" stroke="#823813" stroke-linecap="round"/><path d="M228.48545,183.75994v-10.68206h14.02032c0,0 -0.41981,3.55495 -0.41981,5.33415c0,1.78145 0.41981,5.34791 0.41981,5.34791z" fill="#c95ade" stroke="none" stroke-linecap="butt"/><path d="M208.84497,147.14841c0,0 6.17104,-0.54844 9.88327,0.51796c3.71223,1.06641 9.72586,5.11511 9.72586,5.11511c0,0 0.64646,1.88131 0.22561,3.06236c-0.42085,1.18105 -1.96425,1.8174 -1.96425,1.8174l-8.5739,-5.97369l-10.4593,-0.08865z" data-paper-data="{&quot;index&quot;:null}" fill="none" stroke="#3d5800" stroke-linecap="round"/><path d="M208.45348,213.67248l10.28052,-1.92758l7.38912,-7.38907c0,0 1.63133,0.35482 2.2534,1.4434c0.62204,1.08858 0.63345,3.68777 0.63345,3.68777c0,0 -5.52418,4.41019 -8.99089,6.11311c-3.4667,1.70292 -9.63797,2.24886 -9.63797,2.24886z" fill="none" stroke="#3d5800" stroke-linecap="round"/><path d="M175.41368,212.45846c0,0 -7.14794,8.06004 -14.3075,3.90721c-9.86128,-5.71997 -21.38146,-17.01189 -20.42295,-38.37373c0.83397,-18.58622 12.81471,-29.31808 22.2927,-34.93734c6.34897,-3.76418 11.57486,0.15877 11.57486,0.15877z" fill="none" stroke="#3d5800" stroke-linecap="round"/><path d="M197.80591,225.30915c0,0 -20.16285,-2.82628 -26.85913,-4.47846c-4.728,-1.16662 -9.51073,-4.49537 -9.51073,-4.49537c0,0 11.12105,-3.51088 11.26043,-36.8876c0.13772,-32.987 -9.29836,-36.09037 -9.29836,-36.09037c0,0 7.67396,-3.78415 12.74553,-4.61871c5.15213,-0.84778 17.52058,-0.83792 17.52058,-0.83792c0,0 7.49361,-5.6498 11.99388,-5.22036c4.714,0.44986 7.67315,4.93921 7.63636,8.02469c-0.04039,3.39128 -3.92601,11.47618 -3.92601,11.47618l-0.99233,54.66261c0,0 5.38682,8.37617 4.01232,13.37444c-1.3745,4.99827 -4.09341,5.51514 -6.98922,6.68725c-2.89577,1.17207 -7.59318,-1.59633 -7.59318,-1.59633z" fill="none" stroke="#3d5800" stroke-linecap="round"/><path d="M225.44783,164.54036v-10.92756h7.12668v10.92756z" fill="#471e21" stroke="none" stroke-linecap="butt"/><path d="M227.57327,149.45192l3.06663,-3.40738h8.17765l0.68144,4.42958h5.45177c0,0 2.73123,2.2601 3.06663,5.11102c0.3354,2.85092 -1.70369,6.47397 -1.70369,6.47397l-7.83691,1.70369l-0.97421,-8.74873l-9.58858,-0.45112l-4.77028,1.36294l-4.08883,-6.13326z" fill="#27231f" stroke="#d48d32" stroke-linecap="round"/><path d="M228.29866,189.48017l8.54566,-4.94749l8.09589,7.19635l-1.34932,6.74657l-20.68949,15.742z" fill="#a6521b" stroke="#000000" stroke-linecap="round"/><path d="M203.17227,160.23191l5.45132,9.31485l-6.72503,3.03447l-6.10493,-9.90784z" data-paper-data="{&quot;index&quot;:null}" fill="#773710" stroke="#602a0d" stroke-linecap="round"/><path d="M192.52376,146.31719l25.70758,1.44718c0,0 11.29718,9.8714 13.4026,32.44942c1.59156,17.06689 -8.1902,32.87928 -8.1902,32.87928l-26.23427,7.64468z" fill="#a6521b" stroke="#692206" stroke-linecap="round"/><path d="M195.52314,146.56938l19.45163,1.73328c0,0 14.10231,6.6102 15.40899,31.82065c1.23125,23.75512 -15.51553,35.45121 -15.51553,35.45121l-11.90073,0.321c0,0 -5.41862,-0.37699 -6.0152,-11.0475c-0.6245,-11.17088 13.90387,-24.76671 13.90387,-24.76671c0,0 -15.66824,-14.40154 -17.35214,-24.25473c-0.62262,-3.64301 2.01902,-9.25715 2.01902,-9.25715z" fill="#df9431" stroke="#954116" stroke-linecap="round"/><path d="M208.84497,147.14841c0,0 6.17104,-0.54841 9.88327,0.518c3.71223,1.06641 9.7259,5.11512 9.7259,5.11512c0,0 0.64641,1.8813 0.22561,3.06236c-0.42081,1.18105 -1.96425,1.81739 -1.96425,1.81739l-8.57395,-5.97373l-10.45926,-0.08869z" data-paper-data="{&quot;index&quot;:null}" fill="#2a2929" stroke="#000000" stroke-linecap="round"/><path d="M208.45344,213.67248l10.28047,-1.92758l7.38912,-7.38912c0,0 1.63136,0.35487 2.2534,1.44345c0.62208,1.08858 0.63351,3.68776 0.63351,3.68776c0,0 -5.52418,4.41014 -8.99089,6.11307c-3.4667,1.70292 -9.63797,2.24885 -9.63797,2.24885z" fill="#2a2929" stroke="#000000" stroke-linecap="round"/><path d="M207.51369,166.56482c-2.97097,-6.59977 -1.09074,-13.88053 4.19951,-16.26202c5.29035,-2.38154 11.98735,1.03806 14.95836,7.63783c2.97097,6.59977 1.09074,13.88048 -4.19951,16.26198c-5.29035,2.38154 -11.98735,-1.03803 -14.95836,-7.6378z" data-paper-data="{&quot;index&quot;:null}" fill="#ffffff" stroke="#954116" stroke-linecap="butt"/><path d="M218.07639,166.55016c0.19777,-1.85337 2.227,-3.15632 4.53234,-2.91029c2.30535,0.24603 4.01394,1.94783 3.81618,3.8012c-0.19777,1.85333 -2.227,3.15631 -4.53235,2.91033c-2.30535,-0.24603 -4.01393,-1.94787 -3.81618,-3.8012z" data-paper-data="{&quot;index&quot;:null}" fill="#3d0a00" stroke="none" stroke-linecap="butt"/><path d="M207.51626,161.65435l4.52159,9.79989l-6.98774,2.36751l-5.11457,-10.45355z" data-paper-data="{&quot;index&quot;:null}" fill="#773710" stroke="#602a0d" stroke-linecap="round"/><path d="M222.10342,189.38127c5.29026,2.38149 7.17048,9.66226 4.19951,16.26202c-2.97101,6.59977 -9.66801,10.01934 -14.95836,7.6378c-5.29026,-2.38149 -7.17048,-9.66222 -4.19951,-16.26199c2.97101,-6.59977 9.66801,-10.01937 14.95836,-7.63783z" fill="#ffffff" stroke="#954116" stroke-linecap="butt"/><path d="M221.52389,193.23257c2.30535,-0.24603 4.33458,1.05701 4.53234,2.91029c0.19777,1.85337 -1.51078,3.55522 -3.81618,3.8012c-2.30535,0.24603 -4.33458,-1.05696 -4.53234,-2.91029c-0.19777,-1.85337 1.51078,-3.55523 3.81618,-3.8012z" fill="#3d0a00" stroke="none" stroke-linecap="butt"/><path d="M199.56691,200.21564l5.11457,-10.45354l6.98774,2.3675l-4.52159,9.79989z" fill="#773710" stroke="#602a0d" stroke-linecap="round"/><path d="M175.41368,212.45846c0,0 -7.14794,8.06004 -14.3075,3.90721c-9.86128,-5.71997 -21.38146,-17.01189 -20.42295,-38.37373c0.83397,-18.58622 12.81471,-29.31808 22.2927,-34.93734c6.34897,-3.76418 11.57486,0.15877 11.57486,0.15877z" fill="#7aac02" stroke="#000000" stroke-linecap="round"/><path d="M197.80591,225.30915c0,0 -20.16285,-2.82628 -26.85913,-4.47846c-4.728,-1.16662 -9.51073,-4.49537 -9.51073,-4.49537c0,0 11.12105,-3.51088 11.26043,-36.8876c0.13772,-32.987 -9.70723,-36.49926 -9.70723,-36.49926c0,0 8.08284,-3.37527 13.15442,-4.20982c5.15213,-0.84778 17.52058,-0.83792 17.52058,-0.83792c0,0 7.4936,-5.6498 11.99388,-5.22036c4.71401,0.44986 7.67314,4.93921 7.63635,8.02469c-0.04039,3.39128 -3.92601,11.47618 -3.92601,11.47618l-0.99233,54.66261c0,0 5.38682,8.37617 4.01232,13.37444c-1.3745,4.99827 -4.09341,5.51514 -6.98923,6.68725c-2.89577,1.17207 -7.59318,-1.59633 -7.59318,-1.59633z" fill="#5a9300" stroke="#692206" stroke-linecap="round"/><path d="M201.2997,160.90207c0,0 -1.79086,-9.36473 -4.74576,-15.7473c-2.95491,-6.38261 -6.04008,-7.55009 -6.04008,-7.55009l3.32017,0.65797c0,0 1.74377,-1.77839 2.93557,-2.51642c1.3491,-0.83545 4.74581,-2.24013 4.74581,-2.24013z" fill="#407b00" stroke="#000000" stroke-linecap="round"/><path d="M250.91551,201.43285c0,0 -9.46792,-9.20093 -8.33903,-24.86125c0.06796,-16.32617 8.0729,-19.58358 8.0729,-19.58358l8.51638,0.13304c0,0 -9.11282,11.71619 -10.1132,21.69019c-1.31819,13.14219 12.50842,22.22244 12.50842,22.22244z" fill="#7d7b77" stroke="#000000" stroke-linecap="round"/><path d="M246.79038,195.0456c0,0 -4.27828,-5.74115 -4.347,-17.01022c-0.06508,-9.80578 3.54861,-16.12381 3.54861,-16.12381l8.11716,0.13304c0,0 -3.40176,9.15662 -3.59286,15.1698c-0.45054,8.21485 3.85899,17.56506 3.85899,17.56506z" fill="#898780" stroke="#000000" stroke-linecap="round"/><path d="M243.06448,185.46466c0,0 -0.79839,-5.03209 -0.79839,-7.45182c0,-2.22053 0.79839,-6.52033 0.79839,-6.52033l8.25025,-0.26613c0,0 -0.66535,4.97906 -0.66535,7.31877c0,2.31749 0.93147,7.05259 0.93147,7.05259z" fill="#b0ada9" stroke="none" stroke-linecap="butt"/><path d="M241.10406,182.90758c0,0 0.30053,-10.55884 1.03794,-13.14718c0.7374,-2.58839 2.96314,-4.51625 5.65097,-5.42033c2.68784,-0.90408 6.68891,-0.11532 6.68891,-0.11532l-2.07587,3.5751c0,0 -4.8009,-0.19353 -6.45827,3.80579c-1.65741,3.99932 -0.69198,11.41726 -0.69198,11.41726z" fill="#7d7b77" stroke="#000000" stroke-linecap="round"/><path d="M245.37108,182.33097c0,0 -0.35104,-8.26989 1.15326,-11.53258c1.36964,-2.97065 5.18969,-2.76785 5.18969,-2.76785" fill="none" stroke="#63605d" stroke-linecap="round"/><path d="M236.72526,181.48108l0.6815,-3.40738l4.08882,-1.70369l2.72589,1.70369h5.11102c0,0 2.20082,7.27865 2.38513,10.90354c0.18431,3.62489 -1.36294,9.19989 -1.36294,9.19989l-6.78449,0.67165l-11.44902,8.10438l-4.08055,-8.60152c0,0 0.7414,-4.87462 1.69833,-6.31681c0.89028,-1.3418 2.94357,-6.07929 2.94357,-6.07929l0.2946,-2.08933z" fill="#3e362d" stroke="#000000" stroke-linecap="round"/><path d="M189.21955,223.89138c0,0 5.88959,-0.87036 9.27587,-7.98151c3.38628,-7.11115 3.66721,-19.19876 3.66721,-19.19876l2.1571,30.63182c0,0 -2.0882,-0.24804 -2.92315,-0.51678c-1.0217,-0.32879 -2.76048,-1.31239 -2.76048,-1.31239l-9.4166,-1.62232z" fill="#407b00" stroke="#000000" stroke-linecap="round"/><path d="M163.98063,167.2657c0,5.42074 -2.22133,9.81509 -4.96151,9.81509c-2.74018,0 -4.96152,-4.39436 -4.96152,-9.81509c0,-5.42074 2.22133,-9.81514 4.96152,-9.81514c2.74018,0 4.96151,4.39437 4.96151,9.81514z" fill="#aed114" stroke="none" stroke-linecap="butt"/><path d="M246.60656,184.20697h-3.74813" fill="none" stroke="#221b12" stroke-linecap="round"/><path d="M242.85844,191.36238h3.74813" fill="none" stroke="#221b12" stroke-linecap="round"/><path d="M241.02867,158.35901c0,3.76364 -2.8461,6.81471 -6.35693,6.81471c-3.51083,0 -6.35699,-3.05107 -6.35699,-6.81471c0,-3.76364 2.84611,-6.81471 6.35699,-6.81471c3.51083,0 6.35693,3.05107 6.35693,6.81471z" fill="#c70000" stroke="none" stroke-linecap="butt"/><path d="M241.02872,158.35901c0.13318,5.32575 -4.40142,6.03252 -4.40142,6.03252c0,0 3.02957,-2.26883 3.02957,-6.03252c0,-3.76364 -2.83401,-6.22807 -2.83401,-6.22807c0,0 4.06769,0.70272 4.20586,6.22807z" fill="#b00000" stroke="none" stroke-linecap="butt"/><path d="M295.55959,201.43281c0,0 -9.46792,-9.20093 -8.33903,-24.86125c0.06795,-16.32617 8.0729,-19.58359 8.0729,-19.58359l8.51638,0.13304c0,0 -9.11282,11.71619 -10.1132,21.69018c-1.31819,13.14219 12.50841,22.22244 12.50841,22.22244z" fill="#7414ad" stroke="#000000" stroke-linecap="round"/><path d="M291.43447,195.04556c0,0 -4.27827,-5.74115 -4.347,-17.01022c-0.06508,-9.80578 3.54861,-16.12381 3.54861,-16.12381l8.11716,0.13304c0,0 -3.40176,9.15662 -3.59287,15.1698c-0.45054,8.21485 3.85899,17.56506 3.85899,17.56506z" fill="#a227c8" stroke="#000000" stroke-linecap="round"/><path d="M287.70856,185.46462c0,0 -0.79839,-5.03209 -0.79839,-7.45182c0,-2.22053 0.79839,-6.52033 0.79839,-6.52033l8.25024,-0.26613c0,0 -0.66535,4.97906 -0.66535,7.31877c0,2.31749 0.93148,7.05259 0.93148,7.05259z" fill="#c65bd7" stroke="none" stroke-linecap="butt"/><path d="M182.22929,166.99264l16.75537,13.22144l-16.75537,13.22144z" fill="#89ed03" stroke="none" stroke-linecap="butt"/></g><path d="M345.71769,180.3137c0,8.86426 -5.28863,16.05016 -11.8125,16.05016c-6.52387,0 -11.8125,-7.1859 -11.8125,-16.05016c0,-8.86426 5.28863,-16.05017 11.8125,-16.05017c6.52387,0 11.8125,7.18591 11.8125,16.05017z" fill="url(#color-5)" stroke="none" stroke-linecap="butt"/></g></g></svg>