<svg version="1.1" xmlns="http://www.w3.org/2000/svg" xmlns:xlink="http://www.w3.org/1999/xlink" width="439.82555" height="566.87839" viewBox="0,0,439.82555,566.87839"><defs><radialGradient cx="237.60149" cy="128.64637" r="203.04839" gradientUnits="userSpaceOnUse" id="color-1"><stop offset="0" stop-color="#494949"/><stop offset="1" stop-color="#2f3231"/></radialGradient><linearGradient x1="172.35738" y1="305.22643" x2="172.35738" y2="143.34184" gradientUnits="userSpaceOnUse" id="color-2"><stop offset="0" stop-color="#03e290"/><stop offset="1" stop-color="#03e290" stop-opacity="0"/></linearGradient><linearGradient x1="350.78869" y1="370.26214" x2="350.78869" y2="208.37753" gradientUnits="userSpaceOnUse" id="color-3"><stop offset="0" stop-color="#03e290"/><stop offset="1" stop-color="#03e290" stop-opacity="0"/></linearGradient><linearGradient x1="211.54556" y1="439.46681" x2="211.54556" y2="277.5822" gradientUnits="userSpaceOnUse" id="color-4"><stop offset="0" stop-color="#03e290"/><stop offset="1" stop-color="#03e290" stop-opacity="0"/></linearGradient><linearGradient x1="290.75572" y1="402.78" x2="290.75572" y2="240.89539" gradientUnits="userSpaceOnUse" id="color-5"><stop offset="0" stop-color="#03e290"/><stop offset="1" stop-color="#03e290" stop-opacity="0"/></linearGradient></defs><g transform="translate(-20.08723,103.12993)"><g data-paper-data="{&quot;isPaintingLayer&quot;:true}" fill-rule="nonzero" stroke-linejoin="miter" stroke-miterlimit="10" stroke-dasharray="" stroke-dashoffset="0" style="mix-blend-mode: normal"><path d="M404.87328,110.1505c0,87.09076 -72.39923,201.01538 -114.2588,237.7451c-10.46008,9.1782 -92.70737,2.12318 -92.70737,2.12318c0,0 -118.05019,-112.51895 -118.05019,-221.37238c0,-108.85343 163.69907,-231.77631 163.69907,-231.77631c0,0 161.31728,104.42701 161.31728,213.28045z" data-paper-data="{&quot;index&quot;:null}" fill="url(#color-1)" stroke="none" stroke-width="0" stroke-linecap="butt"/><path d="M168.42208,21.00974l15.87652,-30.53943l62.3497,-91.29778" data-paper-data="{&quot;index&quot;:null}" fill="none" stroke="#000000" stroke-width="2.5" stroke-linecap="round"/><path d="M135.73422,118.93506l-42.30873,-42.30872l16.94532,-38.40937l37.28007,-49.41923l96.8647,-89.07099l4.45354,112.45213l-3.62924,100.68285" data-paper-data="{&quot;index&quot;:null}" fill="none" stroke="#000000" stroke-width="2.5" stroke-linecap="round"/><path d="M349.90427,41.05072l-26.43221,-43.90008l-81.2773,-97.9781l107.99859,91.29778l37.8811,58.88052l16.70081,46.76228v42.30871l-6.68033,17.8142l-53.27699,-21.57258l-81.27728,36.74179l-42.47434,-2.2268l-63.46308,-46.76226" data-paper-data="{&quot;index&quot;:null}" fill="none" stroke="#000000" stroke-width="2.5" stroke-linecap="round"/><path d="M97.86631,148.9117c-0.90369,-1.16899 -1.61572,-3.22584 2.43647,-4.90636c3.91658,-1.62428 7.19737,-0.78752 9.0166,-0.001c1.59214,-0.20905 3.52877,-0.10685 5.72069,0.70117c3.4584,1.27489 3.73913,2.90118 3.29476,4.10395c8.36438,3.24105 19.9198,5.33163 28.37595,7.14109c15.54899,3.32719 34.21918,6.32494 50.83945,7.25226c21.90571,1.22222 45.08324,-0.0203 67.11183,-0.0203c21.76956,0.03114 49.32086,-1.82137 68.68464,-7.8033c12.39724,-3.8298 30.10627,-16.20533 45.78391,-12.72413c4.02895,0.89461 6.29134,3.3128 9.59406,4.87111c5.79372,2.73359 12.15163,5.26548 17.67842,8.1522c3.18757,1.66493 8.88137,2.8876 8.98726,5.3115c0.24815,5.68042 -11.97863,9.10002 -18.59453,11.57549c-7.68969,2.42498 -15.25466,6.30714 -23.08285,8.48435c-20.66366,5.74705 -44.91148,6.17351 -67.27183,7.93841c-12.72769,1.0046 -23.99274,4.26898 -36.51252,5.02436c-19.95202,1.20383 -39.35005,1.68787 -59.55034,1.68787c-25.77403,0 -46.97746,-3.4053 -70.65481,-8.63609c-12.89812,-2.84945 -25.5577,-6.19824 -35.62059,-11.71649c-2.28519,-1.25314 -3.76638,-2.90474 -6.03153,-4.16895c-8.4894,-4.73805 -27.74687,-8.92139 -17.17003,-18.14352c1.94722,-1.69781 7.03814,-1.10019 10.29261,-1.99658c2.29425,-0.63189 4.47564,-1.38906 6.67244,-2.12705z" data-paper-data="{&quot;index&quot;:null}" fill="#6cd529" stroke="none" stroke-width="0.5" stroke-linecap="butt"/><path d="M295.37012,393.27408l12.60973,22.34899l-25.97543,47.26225l-14.59855,-46.76201l11.76502,-25.10194l-1.3382,-11.42327l-26.70531,2.10366l-0.91856,-18.33846l27.46943,-2.14193l-3.06048,-45.8079l26.01777,-0.53718l-0.03422,45.1969l23.68719,-1.18645l-1.0293,25.33021l-26.85841,-0.95274z" data-paper-data="{&quot;index&quot;:null}" fill="#060408" stroke="#000000" stroke-width="0.5" stroke-linecap="round"/><path d="M197.27731,396.25992l9.16678,23.96773l-32.67781,42.90229l-7.52423,-48.40652l15.34711,-23.08655l0.36547,-11.49558l-26.72286,-1.86793l1.80292,-18.27273l27.48421,1.94305l3.74599,-45.75694l25.81124,3.31552l-6.71632,44.69509l23.60227,2.3288l-4.76313,24.89964l-26.42236,-4.91338z" data-paper-data="{&quot;index&quot;:null}" fill="#060408" stroke="#000000" stroke-width="0.5" stroke-linecap="round"/><path d="M354.37737,262.30818l38.61494,154.76538l-131.36016,-72.71318z" data-paper-data="{&quot;index&quot;:null}" fill="#50336a" stroke="#654186" stroke-width="0.5" stroke-linecap="round"/><path d="M232.38736,325.07263l-118.56144,92.11888l14.26197,-158.87112z" data-paper-data="{&quot;index&quot;:null}" fill="#50336a" stroke="#654186" stroke-width="0.5" stroke-linecap="round"/><path d="M166.43988,266.3831l-145.85375,35.6284l77.93712,-139.17344z" data-paper-data="{&quot;index&quot;:null}" fill="#654187" stroke="#654186" stroke-width="0.5" stroke-linecap="round"/><path d="M381.47675,164.37255l77.93713,139.17344l-145.85375,-35.62842z" data-paper-data="{&quot;index&quot;:null}" fill="#654187" stroke="#654186" stroke-width="0.5" stroke-linecap="round"/><path d="M107.10579,223.49909c2.15368,-2.1348 5.15753,-0.63288 5.15753,-0.63288c6.57162,3.37145 11.58551,8.69062 18.06535,12.38275c5.43608,3.0974 10.99258,6.0054 16.53383,8.81477c4.43338,2.24772 9.11236,2.6091 13.7493,4.14843c10.3538,3.43717 20.5077,4.66082 31.25455,6.47331c9.67508,-0.00899 19.36959,2.12738 29.12197,1.13213c3.67787,-0.37532 7.35181,-1.45926 11.03368,-1.12543c4.71497,0.42748 8.82474,1.5985 13.6431,1.10669c7.1063,-0.72532 14.5299,-1.31822 21.46817,-3.20202c2.41005,-0.65436 4.67388,-1.83426 7.12323,-2.32129c1.54857,-0.30792 3.16709,0.1356 4.73652,-0.03694c8.05731,-0.88582 16.16098,-3.53671 24.01212,-5.4931c7.93319,-1.32219 16.36262,-2.88198 24.01694,-5.44045c4.81052,-1.60793 9.36294,-3.94283 14.202,-5.46272c5.51695,-1.73279 12.27154,-2.4542 17.7419,-4.431c3.33397,-1.20478 9.95146,-9.4378 13.94316,-6.48659c2.80145,2.07122 2.14562,6.69963 2.38996,10.17502c0.3684,5.23991 -3.71721,10.84654 -6.15266,15.10381c-0.86611,1.514 -3.90195,8.15963 -4.6999,9.2871c-1.58797,2.2437 -3.80523,4.00695 -5.32058,6.30033c-1.16649,2.33298 -3.33577,7.22909 -5.38589,8.93099c-4.16677,3.45902 -7.13423,3.23674 -12.05133,4.37741c-6.53567,1.51615 -9.04974,2.11234 -15.01561,4.2853c-18.75173,6.82999 -37.89392,12.74976 -57.90931,14.73178c-10.67962,1.05757 -22.0347,0.02234 -32.74056,0.02234c-6.15101,-0.01527 -11.28726,1.59444 -17.25332,2.19239c-12.98101,1.30102 -27.25162,0.36327 -40.09028,-1.11338c-3.04036,-0.34969 -5.86889,-1.85882 -8.90709,-2.22679c-6.66237,-0.80686 -13.52714,-1.15555 -19.95934,-3.5909c-8.63421,-3.26906 -15.38065,-9.65552 -20.80279,-16.88504c-11.83263,-11.8854 -16.75053,-29.02752 -25.95952,-42.77005l-0.77094,-3.65968c0,0 0,-4.59037 4.59037,-4.59037c0.07986,0 0.15838,0.0014 0.2355,0.00413z" data-paper-data="{&quot;index&quot;:null}" fill="#b757bb" stroke="none" stroke-width="0.5" stroke-linecap="butt"/><path d="M160.7429,307.22403c1.31062,-1.12451 3.13858,-0.33336 3.13858,-0.33336c3.99911,1.77594 7.05025,4.57785 10.99351,6.52269c3.30805,1.63158 6.68939,3.16337 10.06148,4.64325c2.69791,1.184 5.54524,1.37436 8.36701,2.18522c6.30069,1.81054 12.47975,2.4551 19.01964,3.40984c5.88769,-0.00475 11.78717,1.12061 17.72188,0.59636c2.23815,-0.19771 4.47388,-0.76867 6.71445,-0.59283c2.86923,0.22517 5.37018,0.842 8.30236,0.58296c4.32446,-0.38206 8.84202,-0.69437 13.06424,-1.68668c1.46661,-0.34469 2.84426,-0.96623 4.33478,-1.22277c0.94235,-0.1622 1.92727,0.07142 2.88235,-0.01946c4.90317,-0.46661 9.8346,-1.86298 14.61232,-2.89353c4.82767,-0.69648 9.95731,-1.5181 14.61527,-2.86579c2.92739,-0.84698 5.69771,-2.07693 8.64248,-2.87753c3.3573,-0.91277 7.46773,-1.29277 10.79666,-2.33406c2.02886,-0.63463 6.05586,-4.97143 8.48498,-3.41685c1.70481,1.09103 1.30572,3.52907 1.4544,5.35976c0.2242,2.76015 -2.26206,5.71348 -3.74414,7.95603c-0.52704,0.79749 -2.37447,4.29813 -2.86005,4.89204c-0.96633,1.18188 -2.31565,2.11068 -3.2378,3.31874c-0.70986,1.22891 -2.02994,3.80797 -3.27753,4.70445c-2.53564,1.82207 -4.34146,1.70496 -7.33371,2.30583c-3.97722,0.79864 -5.50715,1.11268 -9.13762,2.25731c-11.41116,3.59773 -23.05996,6.71601 -35.24013,7.76006c-6.49895,0.55709 -13.40899,0.01177 -19.92394,0.01177c-3.74314,-0.00804 -6.86875,0.83989 -10.49935,1.15485c-7.89945,0.68532 -16.5837,0.19138 -24.39653,-0.58647c-1.85017,-0.1842 -3.57146,-0.97915 -5.42033,-1.17298c-4.05429,-0.42501 -8.23178,-0.6087 -12.14603,-1.89154c-5.25425,-1.72199 -9.35974,-5.08611 -12.65932,-8.8943c-7.20064,-6.2607 -10.19336,-15.29045 -15.7974,-22.52943l-0.46916,-1.92777c0,0 0,-2.41799 2.79342,-2.41799c0.04861,0 0.09637,0.00071 0.14332,0.00215z" data-paper-data="{&quot;index&quot;:null}" fill="#b757bb" stroke="none" stroke-width="0.5" stroke-linecap="butt"/><g data-paper-data="{&quot;index&quot;:null}" stroke-width="0.5" stroke-linecap="round"><path d="M244.90501,399.99211l-3.34017,-201.52314l20.04099,103.54502z" fill="#573074" stroke="#573074"/><path d="M244.98787,403.33228l-26.72128,-150.30732l22.26776,-50.10243z" fill="#3e2254" stroke="#3e2254"/></g><g data-paper-data="{&quot;index&quot;:null}" fill="#000000" stroke="none" stroke-width="0.5" stroke-linecap="butt"><path d="M142.9519,134.93436c-0.15995,0.3841 -0.47612,0.75994 -1.05358,1.04868c-1.9142,0.95712 -2.87132,-0.95713 -2.87132,-0.95713c-7.03331,-14.12195 -11.09493,-34.03799 -8.51428,-49.74585c3.71856,-22.29862 9.35819,-41.97399 25.75036,-58.09253c10.61136,-6.36368 19.7188,-17.52469 32.0491,-20.91996c7.37661,-2.03121 14.72498,-1.00528 22.00076,0.44518c3.64896,0.60815 7.26323,1.39253 10.79765,2.4528c1.2863,0.38586 3.14019,0.19578 3.78795,1.37217c1.66039,3.01546 -1.72897,7.12473 -2.68734,9.78004c-3.95029,10.94478 -10.03149,21.9073 -15.3502,32.18132c-5.69502,7.98817 -7.50627,18.25429 -13.30037,26.06678c-3.8482,5.18873 -8.79887,9.64758 -12.77011,14.74354c-2.60645,3.34463 -4.0314,6.88696 -7.5363,9.51566c-8.78086,11.01995 -15.08944,28.22445 -30.30229,32.1093z"/><path d="M204.09996,54.74421l-2.4571,-1.2749c-13.37096,-1.71849 -23.69236,-0.31429 -33.46742,9.48027c-14.30567,14.16418 -17.6442,40.68147 -8.69461,58.43053c0,0 1.43566,2.87134 -1.43567,4.30701c-2.87133,1.43564 -4.30702,-1.43568 -4.30702,-1.43568c-10.12394,-20.398 -6.28729,-49.52283 9.89731,-65.84189c11.49983,-11.47881 24.26954,-13.47161 39.92181,-11.06873l3.41405,1.66069c0,0 2.87134,1.43567 1.43567,4.30702c-1.43567,2.87134 -4.30702,1.43567 -4.30702,1.43567z"/></g><g data-paper-data="{&quot;index&quot;:null}" stroke="none" stroke-width="0.5" stroke-linecap="butt"><path d="M143.86246,128.25626c-0.14231,0.3417 -0.42358,0.67605 -0.9373,0.93291c-1.70292,0.85147 -2.55438,-0.85146 -2.55438,-0.85146c-6.25693,-12.56306 -9.87018,-30.28066 -7.57441,-44.25459c3.30809,-19.83716 8.32515,-37.34065 22.90786,-51.67992c9.44001,-5.66121 17.54212,-15.59021 28.51133,-18.61069c6.56232,-1.80699 13.09956,-0.89432 19.57218,0.39604c3.24616,0.54103 6.46148,1.23881 9.60574,2.18204c1.14431,0.34329 2.79353,0.17417 3.3698,1.22071c1.47709,2.6826 -1.53809,6.33827 -2.39069,8.70046c-3.51422,9.7366 -8.92414,19.48903 -13.65573,28.62894c-5.06636,7.1064 -6.67766,16.2393 -11.83218,23.18938c-3.42343,4.61597 -7.82758,8.58263 -11.36047,13.11607c-2.31874,2.97544 -3.58638,6.12675 -6.70441,8.46527c-7.81158,9.80348 -13.42377,25.10884 -26.95733,28.56486z" fill="#3ad853"/><path d="M202.09215,55.64083c-1.27719,2.55437 -3.83158,1.27718 -3.83158,1.27718l-2.18585,-1.13415c-11.895,-1.5288 -21.07706,-0.2796 -29.7731,8.43377c-12.72654,12.60065 -15.69655,36.1908 -7.73486,51.98063c0,0 1.2772,2.55438 -1.27719,3.83157c-2.55438,1.2772 -3.83157,-1.27719 -3.83157,-1.27719c-9.00639,-18.14633 -5.59324,-44.05619 8.8048,-58.57386c10.23041,-10.21173 21.59054,-11.98455 35.515,-9.84691l3.03718,1.47736c0,0 2.55437,1.27719 1.27719,3.83157z" fill="#f0f7a3"/></g><g data-paper-data="{&quot;index&quot;:null}" fill="#000000" stroke="none" stroke-width="0.5" stroke-linecap="butt"><path d="M360.29269,144.74701c-0.57745,-0.28874 -0.89362,-0.66457 -1.05358,-1.04868c-15.21285,-3.88486 -21.52143,-21.08936 -30.30228,-32.1093c-3.50491,-2.62869 -4.92986,-6.17102 -7.53631,-9.51565c-3.97125,-5.09596 -8.92192,-9.55483 -12.77011,-14.74355c-5.7941,-7.81248 -7.60534,-18.07859 -13.30037,-26.06677c-5.31871,-10.27403 -11.39991,-21.23655 -15.3502,-32.18133c-0.95839,-2.65531 -4.34773,-6.76458 -2.68734,-9.78004c0.64777,-1.17639 2.50166,-0.98629 3.78795,-1.37215c3.53444,-1.06027 7.14871,-1.84463 10.79766,-2.45279c7.2758,-1.45047 14.62417,-2.47639 22.00077,-0.44517c12.33032,3.39526 21.43774,14.55629 32.0491,20.91995c16.39218,16.11854 22.03181,35.7939 25.75036,58.09253c2.58063,15.70786 -1.48096,35.62389 -8.51427,49.74585c0,0 -0.95711,1.91425 -2.87134,0.95713z"/><path d="M298.09108,63.50819c0,0 -2.87134,1.43566 -4.30701,-1.43567c-1.43565,-2.87133 1.43567,-4.30702 1.43567,-4.30702l3.41404,-1.66068c15.65226,-2.40288 28.42197,-0.41007 39.9218,11.06873c16.18459,16.31907 20.02124,45.4439 9.8973,65.84188c0,0 -1.43565,2.87136 -4.307,1.43569c-2.87135,-1.43567 -1.43567,-4.30703 -1.43567,-4.30703c8.94959,-17.74904 5.61106,-44.26634 -8.69463,-58.43051c-9.77508,-9.79456 -20.09643,-11.19877 -33.46741,-9.48028l-2.4571,1.2749z"/></g><g data-paper-data="{&quot;index&quot;:null}" stroke="none" stroke-width="0.5" stroke-linecap="butt"><path d="M358.32861,137.02027c-13.53357,-3.45602 -19.14578,-18.76138 -26.95733,-28.56486c-3.11803,-2.33852 -4.38569,-5.48985 -6.70441,-8.46528c-3.53289,-4.53346 -7.93706,-8.5001 -11.36047,-13.11607c-5.15448,-6.9501 -6.76581,-16.08298 -11.83218,-23.18938c-4.73158,-9.1399 -10.1415,-18.8923 -13.65573,-28.62893c-0.8526,-2.36221 -3.86781,-6.01785 -2.3907,-8.70044c0.57625,-1.04654 2.22549,-0.87741 3.3698,-1.2207c3.14426,-0.94324 6.35958,-1.64101 9.60574,-2.18204c6.47262,-1.29034 13.00986,-2.20303 19.57218,-0.39604c10.9692,3.02048 19.0713,12.94946 28.51132,18.61069c14.5827,14.33928 19.59978,31.84275 22.90786,51.67993c2.29577,13.97394 -1.31748,31.69152 -7.57441,44.2546c0,0 -0.85146,1.70294 -2.55438,0.85147c-0.51373,-0.25686 -0.79499,-0.59121 -0.93729,-0.93292z" fill="#3ad853"/><path d="M303.93044,65.68198c0,0 -2.55439,1.2772 -3.83157,-1.27719c-1.2772,-2.55438 1.27719,-3.83157 1.27719,-3.83157l3.03718,-1.47736c13.92446,-2.13764 25.2846,-0.3648 35.515,9.8469c14.39804,14.51769 17.81118,40.42752 8.80479,58.57386c0,0 -1.27718,2.55437 -3.83157,1.27718c-2.55437,-1.27719 -1.27719,-3.83158 -1.27719,-3.83158c7.96167,-15.78982 4.99168,-39.37999 -7.73486,-51.98062c-8.69606,-8.71337 -17.87808,-9.96257 -29.77308,-8.43377l-2.18586,1.13416z" fill="#f0f7a3"/></g><path d="M296.25052,165.01087c-3.18285,2.1219 -5.30474,-1.06095 -5.30474,-1.06095l-1.74379,-2.61925c-1.64636,-2.31852 -3.11133,-4.77465 -4.38986,-7.31464c0,0 -1.71073,-3.42146 1.71073,-5.13218c3.42146,-1.71072 5.13218,1.71073 5.13218,1.71073c1.08646,2.18995 2.34512,4.30462 3.77251,6.28927l1.88392,2.8223c0,0 2.1219,3.18283 -1.06093,5.30473z" data-paper-data="{&quot;index&quot;:null}" fill="#c39748" stroke="none" stroke-width="0.5" stroke-linecap="butt"/><path d="M186.46711,132.1553c3.8253,0 3.8253,3.8253 3.8253,3.8253l-0.71252,2.67687c-2.66598,3.73185 -5.37593,7.26961 -8.39629,10.72526c0,0 -2.51899,2.87883 -5.39782,0.35985c-2.87883,-2.51898 -0.35985,-5.39782 -0.35985,-5.39782c2.64147,-3.01531 5.01761,-6.09611 7.35114,-9.32993c0.27684,-1.13322 1.12027,-2.85955 3.69006,-2.85955z" data-paper-data="{&quot;index&quot;:null}" fill="#c39748" stroke="none" stroke-width="0.5" stroke-linecap="butt"/><path d="M202.48379,-20.99434l-1.46191,-0.97701c-4.19877,-2.9991 -7.86607,-5.42624 -12.72367,-7.23992c0,0 -3.58174,-1.34317 -2.23858,-4.92491c1.34315,-3.58174 4.92489,-2.23858 4.92489,-2.23858c5.4679,2.0585 9.75772,4.80183 14.48418,8.17786l1.25887,0.83685c0,0 3.18285,2.1219 1.06095,5.30475c-2.1219,3.18285 -5.30474,1.06095 -5.30474,1.06095z" data-paper-data="{&quot;index&quot;:null}" fill="#c39748" stroke="none" stroke-width="0.5" stroke-linecap="butt"/><path d="M205.61574,-36.17353l-1.65672,-0.83277c-1.3604,-0.60462 -2.72081,-1.20923 -4.08119,-1.81386c0,0 -3.49559,-1.5536 -1.942,-5.04921c1.55362,-3.4956 5.04922,-1.942 5.04922,-1.942c1.3604,0.60462 2.72082,1.20922 4.0812,1.81385l1.97098,0.98109c0,0 3.42145,1.71072 1.71072,5.13219c-1.71074,3.42146 -5.1322,1.71073 -5.1322,1.71073z" data-paper-data="{&quot;index&quot;:null}" fill="#c39748" stroke="none" stroke-width="0.5" stroke-linecap="butt"/><path d="M336.73719,-6.10932c1.50686,3.51602 -2.00916,5.02288 -2.00916,5.02288l-2.97038,1.26585c-3.77077,1.88539 -7.50382,3.76889 -11.18959,5.8175c0,0 -3.34394,1.85772 -5.20166,-1.4862c-1.85773,-3.34392 1.48618,-5.20166 1.48618,-5.20166c3.78337,-2.10092 7.61387,-4.0377 11.48361,-5.97256l3.37811,-1.45495c0,0 3.51601,-1.50688 5.02287,2.00913z" data-paper-data="{&quot;index&quot;:null}" fill="#c39748" stroke="none" stroke-width="0.5" stroke-linecap="butt"/><path d="M324.58945,-16.83011c2.70488,2.70489 0,5.40978 0,5.40978l-1.84188,1.76827c-2.28208,1.62851 -4.62114,3.17883 -6.99796,4.66571c0,0 -3.24385,2.02743 -5.27126,-1.21643c-2.02742,-3.24385 1.21645,-5.27126 1.21645,-5.27126c2.24473,-1.40159 4.45323,-2.86436 6.60595,-4.40357l0.87892,-0.95252c0,0 2.70488,-2.70489 5.40978,0z" data-paper-data="{&quot;index&quot;:null}" fill="#c39748" stroke="none" stroke-width="0.5" stroke-linecap="butt"/><path d="M250.43883,38.16242c-9.50696,0 -17.21386,-11.646 -17.21386,-26.01207c0,-14.36607 7.70691,-26.01206 17.21386,-26.01206c9.50697,0 17.21387,11.646 17.21387,26.01207c0,14.36607 -7.70691,26.01207 -17.21387,26.01207z" data-paper-data="{&quot;index&quot;:null}" fill="#38d74d" stroke="none" stroke-width="0" stroke-linecap="butt"/><path d="M250.43883,14.44551c-9.50696,0 -17.21386,-5.65173 -17.21386,-12.62349c0,-6.97176 7.70691,-17.97892 17.21386,-17.97892c9.50697,0 17.21387,11.00717 17.21387,17.97893c0,6.97176 -7.70691,12.62349 -17.21387,12.62349z" data-paper-data="{&quot;index&quot;:null}" fill="#2daf3f" stroke="none" stroke-width="0" stroke-linecap="butt"/><path d="M343.94391,216.64247c-3.13196,17.89687 -16.29905,30.54524 -29.40957,28.25089c-13.11052,-2.29436 -21.19971,-18.66256 -18.06777,-36.55942c3.13196,-17.89687 16.29906,-30.54524 29.40956,-28.2509c13.1105,2.29434 21.19971,18.66255 18.06776,36.55941z" data-paper-data="{&quot;index&quot;:null}" fill="#43d556" stroke="none" stroke-width="0" stroke-linecap="butt"/><path d="M344.70896,228.87032c-3.13196,14.54442 -23.94966,30.94399 -37.06016,29.07941c-13.11052,-1.86457 -21.1997,-15.16668 -18.06777,-29.7111c3.13196,-14.54442 16.29906,-24.82347 29.40956,-22.95892c13.11048,1.86455 28.85031,9.04618 25.71836,23.5906z" data-paper-data="{&quot;index&quot;:null}" fill="#023725" stroke="none" stroke-width="0" stroke-linecap="butt"/><path d="M342.41379,222.77878c-2.66596,8.2783 -12.603,14.49005 -23.58702,15.38631c-1.91994,0.15667 -3.87188,0.15091 -5.82255,-0.03459c-13.1105,-1.24677 -21.19971,-10.14135 -18.06775,-19.86664c0.87558,-2.71886 -0.15887,-5.60067 0.14393,-8.14279c0.30018,-2.52012 1.92775,-4.70639 5.02559,-6.06914c4.95487,-2.17966 18.42832,-1.69248 24.24003,-1.1398c13.1105,1.24677 21.19971,10.14136 18.06775,19.86665z" data-paper-data="{&quot;index&quot;:null}" fill="#1e6246" stroke="none" stroke-width="0" stroke-linecap="butt"/><path d="M141.92426,216.64243c-3.13196,-17.89686 4.95726,-34.26506 18.06776,-36.5594c13.11051,-2.29434 26.27763,10.35403 29.40957,28.25089c3.13196,17.89686 -4.95724,34.26506 -18.06776,36.55941c-13.11051,2.29434 -26.27763,-10.35403 -29.40957,-28.25089z" data-paper-data="{&quot;index&quot;:null}" fill="#43d556" stroke="none" stroke-width="0" stroke-linecap="butt"/><path d="M142.41888,228.87032c-3.13197,-14.54442 12.60786,-21.72605 25.71836,-23.5906c13.11051,-1.86458 26.27763,8.4145 29.40957,22.95892c3.13196,14.54442 -4.95724,27.84655 -18.06776,29.7111c-13.1105,1.86457 -33.92823,-14.535 -37.06017,-29.07942z" data-paper-data="{&quot;index&quot;:null}" fill="#023725" stroke="none" stroke-width="0" stroke-linecap="butt"/><path d="M165.51128,238.16511c-10.98398,-0.89624 -20.92103,-7.10804 -23.587,-15.38632c-3.13196,-9.72529 4.95725,-18.61989 18.06775,-19.86664c5.81171,-0.55265 19.28512,-1.03987 24.24003,1.13979c3.09785,1.36275 4.72543,3.54901 5.02561,6.06915c0.3028,2.54211 -0.73166,5.42392 0.14393,8.14279c3.13196,9.72529 -4.95724,18.61989 -18.06776,19.86664c-1.95069,0.1855 -3.9026,0.19124 -5.82254,0.03459z" data-paper-data="{&quot;index&quot;:null}" fill="#1e6246" stroke="none" stroke-width="0" stroke-linecap="butt"/><path d="M379.22757,348.44238l21.32466,14.27382l-1.90325,53.89641l-34.0965,-35.17431l-0.80251,-27.71063l-6.34008,-9.59612l-22.89539,13.90687l-9.08015,-15.95913l23.56036,-14.28519l-23.36536,-39.51948l22.9871,-12.1986l20.32718,40.36788l20.61386,-11.72856l10.49033,23.07882l-24.40876,11.24701z" data-paper-data="{&quot;index&quot;:null}" fill="#060408" stroke="#000000" stroke-width="0.5" stroke-linecap="round"/><path d="M115.96396,328.46779l-24.40875,-11.24701l10.49035,-23.07882l20.61387,11.72854l20.3272,-40.36786l22.98709,12.1986l-23.36536,39.51948l23.56036,14.28519l-9.08017,15.95913l-22.89539,-13.90687l-6.34008,9.59612l-0.80251,27.71063l-34.0965,35.17431l-1.90325,-53.89641l21.32466,-14.27382z" data-paper-data="{&quot;index&quot;:null}" fill="#060408" stroke="#000000" stroke-width="0.5" stroke-linecap="round"/><path d="M246.46188,137.96449c0,0 -22.51236,-18.29174 -22.51236,-40.85576c0,-22.56402 22.51236,-40.85577 22.51236,-40.85577c0,0 22.51236,18.29175 22.51236,40.85577c0,22.56403 -22.51236,40.85576 -22.51236,40.85576z" data-paper-data="{&quot;index&quot;:null}" fill="#4ad559" stroke="none" stroke-width="0" stroke-linecap="butt"/><path d="M246.83114,60.42191l-0.83379,75.0412" data-paper-data="{&quot;index&quot;:null}" fill="none" stroke="#f0f7a3" stroke-width="2.5" stroke-linecap="round"/><path d="M156.17357,270.78475c0.34347,-0.80057 0.60377,-1.62551 0.72016,-2.49173c0.94685,-7.04643 -1.12984,-14.85054 -2.33782,-21.70279c-1.698,-9.63179 -3.2268,-19.74898 -4.35394,-29.45375c-2.47104,-21.27595 2.36807,-47.7096 16.1755,-64.39856c3.521,-2.92552 6.6538,-6.24353 11.24556,-7.52551c2.74931,-0.76759 6.389,-3.04353 8.49081,-1.11213c2.31667,2.12884 0.95737,6.30243 0.55295,9.42259c-0.76245,5.88242 -5.11003,10.00326 -4.0546,16.50339c1.32489,8.15968 7.54847,15.0812 9.15031,23.22557c0.90086,4.58033 -0.39889,9.22454 -0.77886,13.70605c-0.82407,9.71936 0.85409,19.81026 0.85409,29.60569c0,9.94613 -1.46945,19.49708 -0.04361,29.41512c1.24962,8.69229 5.13839,18.12077 2.35534,26.85815c-4.39041,13.7837 -22.1736,15.43306 -32.95561,8.0739c-5.72455,-3.90723 -7.40375,-9.26064 -8.5301,-15.64343c-0.00661,-2.10132 -0.0111,-4.20266 -0.01307,-6.30399c-0.03915,-0.33762 -0.03274,-0.66445 -0.00072,-0.96548c-0.00027,-0.47076 -0.0004,-0.94153 -0.0004,-1.41229v-1.66759c0,0 0,-3.72708 3.52402,-4.13319z" data-paper-data="{&quot;index&quot;:null}" fill="url(#color-2)" stroke="none" stroke-width="0.5" stroke-linecap="butt"/><path d="M366.97247,335.82048c3.52402,0.40611 3.52402,4.13317 3.52402,4.13317v1.66759c0,0.47076 -0.00014,0.94153 -0.00041,1.41229c0.03202,0.30103 0.03845,0.62786 -0.00072,0.96548c-0.00198,2.10134 -0.00648,4.20267 -0.01309,6.30399c-1.12635,6.38279 -2.80556,11.73619 -8.5301,15.64342c-10.78202,7.35917 -28.56521,5.70982 -32.95562,-8.0739c-2.78305,-8.73738 1.10574,-18.16586 2.35534,-26.85814c1.42584,-9.91805 -0.0436,-19.46901 -0.0436,-29.41514c0,-9.79544 1.67816,-19.88635 0.85408,-29.60568c-0.37998,-4.48151 -1.67972,-9.12572 -0.77886,-13.70605c1.60186,-8.14435 7.82542,-15.06589 9.15032,-23.22555c1.05543,-6.50013 -3.29216,-10.62098 -4.05461,-16.50339c-0.40444,-3.12017 -1.76373,-7.29376 0.55295,-9.42259c2.10181,-1.9314 5.74152,0.34454 8.49081,1.11213c4.59175,1.28197 7.72456,4.59998 11.24556,7.52552c13.80743,16.68896 18.64654,43.1226 16.1755,64.39856c-1.12714,9.70478 -2.65594,19.82196 -4.35394,29.45376c-1.20798,6.85223 -3.28467,14.65635 -2.3378,21.70279c0.1164,0.86622 0.37669,1.69116 0.72015,2.49175z" data-paper-data="{&quot;index&quot;:null}" fill="url(#color-3)" stroke="none" stroke-width="0.5" stroke-linecap="butt"/><path d="M195.36179,405.02513c0.34346,-0.80057 0.60375,-1.62551 0.72014,-2.49174c0.94685,-7.04643 -1.12983,-14.85055 -2.33781,-21.70279c-1.698,-9.63179 -3.22681,-19.74897 -4.35395,-29.45375c-2.47104,-21.27596 2.36807,-47.70959 16.1755,-64.39856c3.521,-2.92552 6.65381,-6.24353 11.24556,-7.52552c2.74931,-0.76759 6.389,-3.04352 8.49081,-1.11212c2.31669,2.12883 0.95737,6.30243 0.55295,9.42259c-0.76245,5.88241 -5.11004,10.00326 -4.05461,16.5034c1.32489,8.15967 7.54846,15.08118 9.15033,23.22555c0.90086,4.58033 -0.39889,9.22454 -0.77886,13.70605c-0.82407,9.71934 0.85408,19.81026 0.85408,29.60569c0,9.94615 -1.46945,19.49711 -0.04361,29.41514c1.24962,8.69227 5.13839,18.12075 2.35534,26.85813c-4.39041,13.7837 -22.1736,15.43306 -32.95561,8.0739c-5.72455,-3.90723 -7.40376,-9.26064 -8.53011,-15.64343c-0.00662,-2.10132 -0.01112,-4.20266 -0.01309,-6.30399c-0.03917,-0.33762 -0.03273,-0.66445 -0.00071,-0.96548c-0.00027,-0.47076 -0.0004,-0.94153 -0.0004,-1.41229v-1.66759c0,0 -0.00001,-3.72706 3.52402,-4.13317z" data-paper-data="{&quot;index&quot;:null}" fill="url(#color-4)" stroke="none" stroke-width="0.5" stroke-linecap="butt"/><path d="M306.93951,368.33833c3.52402,0.40611 3.52402,4.13317 3.52402,4.13317v1.66759c0,0.47076 -0.00014,0.94153 -0.0004,1.41229c0.03202,0.30103 0.03845,0.62786 -0.00072,0.96548c-0.00198,2.10134 -0.00648,4.20267 -0.01309,6.30399c-1.12635,6.38279 -2.80556,11.73619 -8.5301,15.64342c-10.78202,7.35917 -28.5652,5.70982 -32.95561,-8.0739c-2.78305,-8.73738 1.10574,-18.16586 2.35534,-26.85814c1.42584,-9.91805 -0.0436,-19.46901 -0.0436,-29.41514c0,-9.79545 1.67816,-19.88635 0.85408,-29.60568c-0.37998,-4.48151 -1.67972,-9.12571 -0.77886,-13.70604c1.60186,-8.14436 7.82543,-15.06589 9.15033,-23.22556c1.05543,-6.50013 -3.29216,-10.62098 -4.05461,-16.5034c-0.40444,-3.12016 -1.76373,-7.29375 0.55295,-9.42259c2.10181,-1.9314 5.74151,0.34454 8.49081,1.11213c4.59175,1.28197 7.72456,4.59998 11.24556,7.52552c13.80743,16.68897 18.64653,43.1226 16.17549,64.39856c-1.12714,9.70478 -2.65594,19.82196 -4.35394,29.45376c-1.20798,6.85223 -3.28467,14.65635 -2.3378,21.70279c0.1164,0.86622 0.37669,1.69116 0.72015,2.49175z" data-paper-data="{&quot;index&quot;:null}" fill="url(#color-5)" stroke="none" stroke-width="0.5" stroke-linecap="butt"/><g data-paper-data="{&quot;index&quot;:null}" stroke-width="0.5" stroke-linecap="round"><path d="M203.91112,307.44446l-3.34016,-201.52313l20.04097,103.54502z" fill="#573074" stroke="#573074"/><path d="M203.99402,310.78463l-26.72129,-150.30731l22.26776,-50.10244z" fill="#3e2254" stroke="#3e2254"/></g><g data-paper-data="{&quot;index&quot;:null}" stroke-width="0.5" stroke-linecap="round"><path d="M268.98975,214.4691l20.04097,-103.54503l-3.34016,201.52314z" fill="#573074" stroke="#573074"/><path d="M290.06119,115.37762l22.26776,50.10245l-26.72129,150.30731z" fill="#3e2254" stroke="#3e2254"/></g><path d="M167.27572,-32.85477c-0.49971,-1.16899 -0.89343,-3.22584 1.34725,-4.90636c2.16569,-1.62427 3.97982,-0.78752 4.98577,-0.001c0.88038,-0.20905 1.95126,-0.10685 3.16329,0.70117c1.91234,1.27488 2.06758,2.90118 1.82185,4.10395c4.62512,3.24105 11.01475,5.33162 15.69062,7.14108c8.59789,3.32719 18.92165,6.32494 28.11191,7.25227c12.11287,1.22222 24.92899,-0.02029 37.10981,-0.02029c12.03758,0.03113 27.27221,-1.82137 37.97951,-7.80331c6.85512,-3.82981 16.64741,-16.20533 25.31644,-12.72413c2.22782,0.89461 3.47882,3.31281 5.30508,4.87111c3.20366,2.73359 6.71931,5.26547 9.77537,8.15219c1.76259,1.66493 4.911,2.8876 4.96955,5.3115c0.13723,5.68042 -6.62364,9.10002 -10.28193,11.57549c-4.25205,2.42498 -8.43513,6.30715 -12.76377,8.48436c-11.42608,5.74706 -24.83402,6.17351 -37.19828,7.93841c-7.03783,1.0046 -13.2669,4.26897 -20.18977,5.02436c-11.03256,1.20383 -21.7588,1.68788 -32.92865,1.68788c-14.25188,0 -25.97641,-3.40531 -39.06891,-8.6361c-7.13208,-2.84945 -14.13227,-6.19823 -19.69659,-11.71648c-1.26361,-1.25314 -2.08264,-2.90475 -3.33516,-4.16896c-4.69424,-4.73805 -15.34276,-8.92138 -9.49425,-18.14351c1.07673,-1.69781 3.89177,-1.10019 5.69134,-1.99658c1.26862,-0.6319 2.47483,-1.38906 3.68956,-2.12705z" data-paper-data="{&quot;index&quot;:null}" fill="#6cd529" stroke="none" stroke-width="0.5" stroke-linecap="butt"/></g></g></svg>