<svg version="1.1" xmlns="http://www.w3.org/2000/svg" xmlns:xlink="http://www.w3.org/1999/xlink" width="273.45293" height="297.87476" viewBox="0,0,273.45293,297.87476"><g transform="translate(-105.21585,-30.92244)"><g data-paper-data="{&quot;isPaintingLayer&quot;:true}" fill-rule="nonzero" stroke-linejoin="miter" stroke-miterlimit="10" stroke-dasharray="" stroke-dashoffset="0" style="mix-blend-mode: normal"><path d="M116.50602,179.47771c0,-41.60079 31.44415,-75.32504 70.23261,-75.32504c38.78826,0 70.23261,33.72415 70.23261,75.32504c0,41.60079 -31.44415,75.32504 -70.23261,75.32504c-38.78826,0 -70.23261,-33.72415 -70.23261,-75.32504z" fill="none" stroke="#202020" stroke-width="1.5" stroke-linecap="butt"/><path d="M127.29898,197.13606c0,0 -19.4195,-20.24417 -17.44169,-42.65328c1.97777,-22.40901 23.5776,-41.81965 23.5776,-41.81965" fill="none" stroke="#202020" stroke-width="4.5" stroke-linecap="round"/><path d="M307.85051,54.83014v-20.47313h13.48973v20.47313z" data-paper-data="{&quot;index&quot;:null}" fill="none" stroke="#390145" stroke-width="1" stroke-linecap="butt"/><path d="M256.57525,302.81953l35.07339,23.20277" data-paper-data="{&quot;index&quot;:null}" fill="none" stroke="#390245" stroke-width="1.5" stroke-linecap="round"/><path d="M306.48737,304.63942v20.47313h-13.48973v-20.47313z" data-paper-data="{&quot;index&quot;:null}" fill="none" stroke="#390245" stroke-width="1" stroke-linecap="butt"/><path d="M307.38673,323.29261v5.00459h-17.08709v-5.00459z" data-paper-data="{&quot;index&quot;:null}" fill="none" stroke="#390245" stroke-width="1" stroke-linecap="butt"/><path d="M202.89751,304.35981v-60.99223h95.45214v60.99223z" fill="none" stroke="#390245" stroke-width="1.5" stroke-linecap="butt"/><path d="M301.29403,300.6955v-54.81082h39.23403v54.81082z" fill="none" stroke="#390245" stroke-width="1.5" stroke-linecap="butt"/><path d="M343.11726,293.90412v-41.74h15.53118v41.74z" fill="none" stroke="#390245" stroke-width="1.5" stroke-linecap="butt"/><path d="M343.11726,292.44805v-40.28403h5.82422v40.28403z" fill="none" stroke="#390245" stroke-width="1.5" stroke-linecap="butt"/><path d="M333.4103,274.49015v-14.0751h10.19231v14.0751z" fill="none" stroke="#390245" stroke-width="1.5" stroke-linecap="butt"/><path d="M197.86592,300.75442c0,-1.4891 0,-32.8071 0,-53.8053c0,-3.77277 1.28253,-4.21251 2.10342,-4.21251c0.82089,0 2.68535,0 2.68535,0v61.83354c0,0 -1.72138,0 -2.8231,0c-1.10172,0 -1.96562,-2.32644 -1.96562,-3.81563z" fill="none" stroke="#390245" stroke-width="1.5" stroke-linecap="butt"/><path d="M277.56105,56.73898l0.31482,-3.82161l30.53185,-17.83425v20.38201z" data-paper-data="{&quot;index&quot;:null}" fill="none" stroke="#390245" stroke-width="1.5" stroke-linecap="round"/><path d="M271.42813,56.65008l35.07339,-23.20276" data-paper-data="{&quot;index&quot;:null}" fill="none" stroke="#390245" stroke-width="1.5" stroke-linecap="round"/><path d="M305.15257,36.17704v-5.0046h17.08709v5.0046z" data-paper-data="{&quot;index&quot;:null}" fill="none" stroke="#390245" stroke-width="0.5" stroke-linecap="butt"/><path d="M313.20247,55.1097v60.99223h-95.45213v-60.99223z" data-paper-data="{&quot;index&quot;:null}" fill="none" stroke="#390245" stroke-width="1.5" stroke-linecap="butt"/><path d="M301.29403,302.9516v-58.17584h57.92748l2.33918,6.90296v45.13755l-2.33918,6.13537z" fill="none" stroke="#390245" stroke-width="1" stroke-linecap="butt"/><path d="M374.0743,56.51782l2.33923,6.13537v45.13756l-2.33923,6.90301h-57.92748v-58.17589z" data-paper-data="{&quot;index&quot;:null}" fill="none" stroke="#390245" stroke-width="1" stroke-linecap="butt"/><path d="M355.38079,58.77406v54.81081h-39.23397v-54.81081z" data-paper-data="{&quot;index&quot;:null}" fill="none" stroke="#390245" stroke-width="1.5" stroke-linecap="butt"/><path d="M373.50132,65.56544v41.74h-15.53118v-41.74z" data-paper-data="{&quot;index&quot;:null}" fill="none" stroke="#390245" stroke-width="1.5" stroke-linecap="butt"/><path d="M363.79426,67.02151v40.28402h-5.82422v-40.28402z" data-paper-data="{&quot;index&quot;:null}" fill="none" stroke="#390245" stroke-width="1.5" stroke-linecap="butt"/><path d="M358.45538,84.97946v14.0751h-10.1923v-14.0751z" data-paper-data="{&quot;index&quot;:null}" fill="none" stroke="#390245" stroke-width="1.5" stroke-linecap="butt"/><path d="M214.68447,54.8996c1.10172,0 2.8231,0 2.8231,0v61.83355c0,0 -1.86456,0 -2.68535,0c-0.82089,0 -2.10346,-0.43975 -2.10346,-4.21251c0,-20.99819 0,-52.31625 0,-53.8053c0,-1.48909 0.8639,-3.81564 1.96562,-3.81564z" data-paper-data="{&quot;index&quot;:null}" fill="none" stroke="#390245" stroke-width="1.5" stroke-linecap="butt"/><path d="M173.51142,297.63368c0,0 -6.76732,-6.00281 -8.55513,-10.07777c-1.59912,-3.64492 -1.66863,-13.22575 -1.66863,-13.22575h35.14438v23.30343z" fill="none" stroke="#343224" stroke-width="1.5" stroke-linecap="butt"/><path d="M189.17579,276.83972v-34.77611h10.2145v34.77611z" fill="none" stroke="#343224" stroke-width="1.5" stroke-linecap="butt"/><path d="M151.7857,271.10346c0,-3.76209 2.71778,-6.81185 6.07041,-6.81185c3.35258,0 6.07041,3.04976 6.07041,6.81185c0,3.7621 -2.71778,6.81176 -6.07041,6.81176c-3.35258,0 -6.07041,-3.04971 -6.07041,-6.81176z" fill="none" stroke="#343224" stroke-width="1.5" stroke-linecap="butt"/><path d="M176.38674,292.25593l3.54397,2.78675l-0.84665,0.08068c0,0 -3.02424,-2.82825 -4.29471,-5.37698c-2.11282,-4.23897 -2.23646,-12.18962 -2.23646,-12.18962" fill="none" stroke="#343224" stroke-width="1.5" stroke-linecap="round"/><path d="M158.49522,277.91523l-6.70942,-6.81176v-8.60441h22.68416v15.41626z" fill="none" stroke="#343224" stroke-width="1.5" stroke-linecap="butt"/><path d="M157.89339,251.05687c0,-5.42436 3.9187,-9.82169 8.75263,-9.82169c4.83393,0 8.75274,4.39723 8.75274,9.82169c0,5.42435 -3.9187,9.82178 -8.75274,9.82178c-4.83393,0 -8.75263,-4.39733 -8.75263,-9.82178z" fill="none" stroke="#343224" stroke-width="1.5" stroke-linecap="butt"/><path d="M169.35798,276.77202c-2.15657,-1.52862 -2.55598,-18.5751 -2.55598,-18.5751h22.68406v18.97036c0,0 -18.20424,0.96853 -20.12807,-0.39521z" fill="none" stroke="#343224" stroke-width="1.5" stroke-linecap="butt"/><path d="M167.56748,260.87846l-9.67405,-9.82179v-12.40623h32.70738v22.22802z" fill="none" stroke="#343224" stroke-width="1.5" stroke-linecap="butt"/><path d="M166.63858,263.02958v-3.58502h15.33573v3.58502z" fill="none" stroke="#343224" stroke-width="1.5" stroke-linecap="butt"/><path d="M180.24185,261.23698c-2.58175,-1.38671 -3.05999,-19.3598 -3.05999,-19.3598h27.15703v19.71837c0,0 -21.79386,0.87854 -24.09704,-0.35852z" fill="none" stroke="#343224" stroke-width="1.5" stroke-linecap="butt"/><path d="M181.97445,263.02405v-3.64032h22.04511v3.64032z" fill="none" stroke="#343224" stroke-width="1.5" stroke-linecap="butt"/><path d="M202.74149,263.02948v-3.58516h10.86281v3.58516z" fill="none" stroke="#343224" stroke-width="1.5" stroke-linecap="butt"/><path d="M213.28477,63.33927v23.30353h-35.14437c0,0 0.06961,-9.58078 1.66867,-13.22565c1.7878,-4.07487 8.55508,-10.07788 8.55508,-10.07788z" data-paper-data="{&quot;index&quot;:null}" fill="none" stroke="#343224" stroke-width="1.5" stroke-linecap="butt"/><path d="M214.24326,84.13325v34.77605h-10.21454v-34.77605z" data-paper-data="{&quot;index&quot;:null}" fill="none" stroke="#343224" stroke-width="1.5" stroke-linecap="butt"/><path d="M172.70899,83.05763c3.35258,0 6.07041,3.04975 6.07041,6.8119c0,3.7621 -2.71778,6.81176 -6.07041,6.81176c-3.35258,0 -6.07041,-3.04971 -6.07041,-6.81176c0,-3.7621 2.71778,-6.8119 6.07041,-6.8119z" data-paper-data="{&quot;index&quot;:null}" fill="none" stroke="#343224" stroke-width="1.5" stroke-linecap="butt"/><path d="M187.40576,83.41615c0,0 0.12364,-7.95065 2.23646,-12.18957c1.27042,-2.54878 4.29476,-5.37698 4.29476,-5.37698l0.84665,0.08072l-3.54396,2.78666" data-paper-data="{&quot;index&quot;:null}" fill="none" stroke="#343224" stroke-width="1.5" stroke-linecap="round"/><path d="M189.32274,83.05763v15.41621h-22.68416v-8.60436l6.70937,-6.81185z" data-paper-data="{&quot;index&quot;:null}" fill="none" stroke="#343224" stroke-width="1.5" stroke-linecap="butt"/><path d="M166.64602,100.62487c4.83393,0 8.75274,4.39733 8.75274,9.82169c0,5.4244 -3.9187,9.82169 -8.75274,9.82169c-4.83393,0 -8.75263,-4.39724 -8.75263,-9.82169c0,-5.4244 3.91865,-9.82169 8.75263,-9.82169z" data-paper-data="{&quot;index&quot;:null}" fill="none" stroke="#343224" stroke-width="1.5" stroke-linecap="butt"/><path d="M204.33899,83.80553v18.97037h-22.68406c0,0 0.39942,-17.04643 2.55599,-18.57511c1.92383,-1.36384 20.12812,-0.39526 20.12812,-0.39526z" data-paper-data="{&quot;index&quot;:null}" fill="none" stroke="#343224" stroke-width="1.5" stroke-linecap="butt"/><path d="M190.60071,100.62487v22.22802h-32.70728v-12.40623l9.6739,-9.82169z" data-paper-data="{&quot;index&quot;:null}" fill="none" stroke="#343224" stroke-width="1.5" stroke-linecap="butt"/><path d="M181.9744,98.47384v3.58511h-15.33572v-3.58511z" data-paper-data="{&quot;index&quot;:null}" fill="none" stroke="#343224" stroke-width="1.5" stroke-linecap="butt"/><path d="M204.33899,99.90788v19.71836h-27.15703c0,0 0.47814,-17.97308 3.0599,-19.3598c2.30312,-1.23712 24.09704,-0.35856 24.09704,-0.35856z" data-paper-data="{&quot;index&quot;:null}" fill="none" stroke="#343224" stroke-width="1.5" stroke-linecap="butt"/><path d="M204.01946,98.47933v3.64032h-22.0452v-3.64032z" data-paper-data="{&quot;index&quot;:null}" fill="none" stroke="#343224" stroke-width="1.5" stroke-linecap="butt"/><path d="M213.60425,98.47389v3.58512h-10.8628v-3.58512z" data-paper-data="{&quot;index&quot;:null}" fill="none" stroke="#343224" stroke-width="1.5" stroke-linecap="butt"/><path d="M282.88954,109.81989l47.16083,-3.4817c0,0 2.56456,18.78133 3.16517,22.15605c0.6006,3.37477 2.35862,7.89878 -1.89905,10.12848c-4.0269,2.1088 -38.29837,10.76156 -38.29837,10.76156z" data-paper-data="{&quot;index&quot;:null}" fill="none" stroke="#3b0564" stroke-width="1" stroke-linecap="round"/><path d="M275.92622,112.03543l47.16084,-3.48171c0,0 2.56455,18.78133 3.16516,22.15605c0.6006,3.37477 2.35863,7.89878 -1.89905,10.12848c-4.0269,2.1088 -38.29836,10.76156 -38.29836,10.76156z" data-paper-data="{&quot;index&quot;:null}" fill="none" stroke="#3b0564" stroke-width="1" stroke-linecap="round"/><path d="M292.116,210.75453c0,0 34.27147,8.65276 38.29837,10.76156c4.25772,2.22965 2.49965,6.75375 1.89905,10.12848c-0.6006,3.37477 -3.16517,22.15605 -3.16517,22.15605l-47.16082,-3.48171z" fill="none" stroke="#3b0564" stroke-width="1" stroke-linecap="round"/><path d="M285.15269,208.53888c0,0 34.27146,8.65276 38.29837,10.76156c4.25772,2.22965 2.49965,6.75375 1.89905,10.12848c-0.6006,3.37477 -3.16516,22.15605 -3.16516,22.15605l-47.16083,-3.48171z" fill="none" stroke="#3b0564" stroke-width="1" stroke-linecap="round"/><path d="M272.0596,181.16275c0,39.02555 -28.06903,70.66215 -62.69387,70.66215c-34.62484,0 -62.69387,-31.6366 -62.69387,-70.66215c0,-39.02555 28.06903,-70.66216 62.69387,-70.66216c34.62484,0 62.69387,31.63661 62.69387,70.66216z" fill="#3e3e3f" stroke="none" stroke-width="0" stroke-linecap="butt"/><path d="M295.24757,156.70846c-3.84267,21.9001 -52.95624,-1.78761 -52.95624,-1.78761l-14.13246,-39.08977l51.41801,-1.80411l6.91585,35.48143c0,0 10.35273,-1.90663 8.75479,7.20002z" data-paper-data="{&quot;index&quot;:null}" fill="#31353a" stroke="#000000" stroke-width="0" stroke-linecap="round"/><path d="M237.1796,154.62018l-14.13246,-39.08977l51.41802,-1.80412l6.91585,35.48144z" data-paper-data="{&quot;index&quot;:null}" fill="#6a6d6b" stroke="#000000" stroke-width="0" stroke-linecap="round"/><path d="M282.88954,109.81989l47.16083,-3.4817c0,0 2.56456,18.78133 3.16517,22.15605c0.6006,3.37477 2.35862,7.89878 -1.89905,10.12848c-4.0269,2.1088 -38.29837,10.76156 -38.29837,10.76156z" data-paper-data="{&quot;index&quot;:null}" fill="#4a0191" stroke="#000000" stroke-width="0" stroke-linecap="round"/><path d="M275.92622,112.03543l47.16084,-3.48171c0,0 2.56455,18.78133 3.16516,22.15605c0.6006,3.37477 2.35863,7.89878 -1.89905,10.12848c-4.0269,2.1088 -38.29836,10.76156 -38.29836,10.76156z" data-paper-data="{&quot;index&quot;:null}" fill="#6807c5" stroke="#000000" stroke-width="0" stroke-linecap="round"/><path d="M285.59072,210.63035l-6.91584,35.48144l-51.41802,-1.80411l14.13246,-39.08977c0,0 49.11362,-23.68771 52.95625,-1.78761c1.59785,9.1067 -8.75479,7.20001 -8.75479,7.20001z" data-paper-data="{&quot;index&quot;:null}" fill="#31353a" stroke="#000000" stroke-width="0" stroke-linecap="round"/><path d="M280.47899,210.93102l-6.91585,35.48144l-51.41802,-1.80411l14.13246,-39.08977z" data-paper-data="{&quot;index&quot;:null}" fill="#6a6d6b" stroke="#000000" stroke-width="0" stroke-linecap="round"/><path d="M272.05969,181.16275c0,39.02569 -28.06902,70.66215 -62.69386,70.66215c-34.62484,0 -62.69387,-31.63651 -62.69387,-70.66215c0,-39.02569 28.06903,-70.66216 62.69387,-70.66216c34.62484,0 62.69386,31.63652 62.69386,70.66216z" fill="#3e3e3f" stroke="none" stroke-width="0" stroke-linecap="butt"/><path d="M270.25552,184.47031c-1.73647,37.7877 -18.14526,47.46875 -18.14526,47.46875l-19.39933,1.30408c0,0 -88.7453,-10.94987 -88.7453,-49.97556c0,-38.30821 87.40219,-49.98589 87.40219,-49.98589l20.75782,-3.35596c0,0 20.00209,13.79961 18.12984,54.54468z" fill="#686766" stroke="none" stroke-width="0" stroke-linecap="butt"/><path d="M271.75897,180.26069c-0.13632,14.66875 -5.72262,30.32935 -5.72262,30.32935l-16.42271,1.00341c0,0 -105.64801,10.69983 -105.64801,-28.32587c0,-38.30821 104.91829,-35.5528 104.91829,-35.5528l15.68837,-0.34902c0,0 7.35931,14.30361 7.18659,32.89493z" fill="#777c6f" stroke="none" stroke-width="0" stroke-linecap="butt"/><path d="M292.116,210.75453c0,0 34.27147,8.65276 38.29837,10.76156c4.25772,2.22965 2.49965,6.75375 1.89905,10.12848c-0.6006,3.37477 -3.16517,22.15605 -3.16517,22.15605l-47.16082,-3.48171z" fill="#4a0191" stroke="#000000" stroke-width="0" stroke-linecap="round"/><path d="M285.15269,208.53888c0,0 34.27146,8.65276 38.29837,10.76156c4.25772,2.22965 2.49965,6.75375 1.89905,10.12848c-0.6006,3.37477 -3.16516,22.15605 -3.16516,22.15605l-47.16083,-3.48171z" fill="#6807c5" stroke="#000000" stroke-width="0" stroke-linecap="round"/><path d="M127.29898,197.13606c0,0 -19.4195,-20.24417 -17.44169,-42.65328c1.97777,-22.40901 23.5776,-41.81965 23.5776,-41.81965" fill="none" stroke="#29292a" stroke-width="9" stroke-linecap="round"/><path d="M293.55484,304.00444v20.38202l-30.53185,-17.83426l-0.31482,-3.82161z" data-paper-data="{&quot;index&quot;:null}" fill="#595f5e" stroke="#000000" stroke-width="0" stroke-linecap="round"/><path d="M256.57535,302.81944l35.07339,23.20276" data-paper-data="{&quot;index&quot;:null}" fill="none" stroke="#a618e2" stroke-width="0.75" stroke-linecap="round"/><path d="M306.48747,304.63933v20.47312h-13.48973v-20.47312z" data-paper-data="{&quot;index&quot;:null}" fill="#201f1e" stroke="none" stroke-width="0" stroke-linecap="butt"/><path d="M307.38688,323.29252v5.0046h-17.08709v-5.0046z" data-paper-data="{&quot;index&quot;:null}" fill="#cf55f0" stroke="none" stroke-width="0" stroke-linecap="butt"/><path d="M299.85005,313.55852l-0.31483,6.36947v-10.50958l-3.77708,-0.31845l9.75756,0.31845l-0.6295,10.82794v-4.77697" data-paper-data="{&quot;index&quot;:null}" fill="none" stroke="#3d3d3d" stroke-width="0.5" stroke-linecap="round"/><path d="M295.40521,304.35977v-60.99223h20.61117v60.99223z" fill="#4d0092" stroke="none" stroke-width="0" stroke-linecap="butt"/><path d="M202.89756,304.35977v-60.99223h95.45213v60.99223z" fill="#a719e2" stroke="none" stroke-width="0" stroke-linecap="butt"/><path d="M202.89756,283.32787v-18.92872h95.45213v18.92872z" fill="#cf55f0" stroke="none" stroke-width="0" stroke-linecap="butt"/><path d="M301.29403,302.95151v-58.17584h60.09512l2.42676,6.90295v45.13756l-2.42676,6.13537z" fill="#1b1c25" stroke="none" stroke-width="0" stroke-linecap="butt"/><path d="M301.29408,300.69545v-54.81081h39.23403v54.81081z" fill="#595c65" stroke="none" stroke-width="0" stroke-linecap="butt"/><path d="M282.73729,294.23089v-39.96042h7.88698v39.96042z" fill="#201f1e" stroke="none" stroke-width="0" stroke-linecap="butt"/><path d="M258.02496,296.85992v-47.8474h25.764v47.8474z" fill="#cf57f0" stroke="none" stroke-width="0" stroke-linecap="butt"/><path d="M283.91563,289.73305v-31.80012h2.27143v31.80012z" fill="#3d3d3d" stroke="none" stroke-width="0" stroke-linecap="butt"/><path d="M284.92516,276.35682v-4.03817h4.03808v4.03817z" fill="#3d3d3d" stroke="none" stroke-width="0" stroke-linecap="butt"/><path d="M300.28273,261.74441v-2.77623h3.53339v2.77623z" fill="#3d3d3d" stroke="none" stroke-width="0" stroke-linecap="butt"/><path d="M283.91563,288.47106v-2.01902h5.30003v2.01902z" fill="#3d3d3d" stroke="none" stroke-width="0" stroke-linecap="butt"/><path d="M303.73706,320.72556l-8.2024,-0.94644l8.83332,0.31547" fill="none" stroke="#3d3d3d" stroke-width="0.5" stroke-linecap="round"/><path d="M343.11726,293.90403v-41.74001h15.53118v41.74001z" fill="#1b580a" stroke="none" stroke-width="0" stroke-linecap="butt"/><path d="M343.11736,292.448v-40.28403h5.82421v40.28403z" fill="#95ff0e" stroke="none" stroke-width="0" stroke-linecap="butt"/><path d="M333.41035,274.49006v-14.07511h10.19231v14.07511z" fill="#95ff0e" stroke="none" stroke-width="0" stroke-linecap="butt"/><path d="M231.12858,304.14934v-60.99228h4.62697v60.99228z" fill="#441a44" stroke="none" stroke-width="0" stroke-linecap="butt"/><path d="M226.50161,300.75438c0,-1.4891 0,-32.8071 0,-53.8053c0,-3.77277 1.80245,-4.21251 2.95604,-4.21251c1.15359,0 3.7741,0 3.7741,0v61.83355c0,0 -2.41927,0 -3.96759,0c-1.54846,0 -2.76255,-2.32645 -2.76255,-3.81564z" fill="#9ee93d" stroke="none" stroke-width="0" stroke-linecap="butt"/><path d="M197.86596,300.75438c0,-1.4891 0,-32.8071 0,-53.8053c0,-3.77277 1.28253,-4.21251 2.10342,-4.21251c0.82089,0 2.68535,0 2.68535,0v61.83355c0,0 -1.72138,0 -2.8231,0c-1.10172,0 -1.96561,-2.32645 -1.96561,-3.81564z" fill="#9ee93d" stroke="none" stroke-width="0" stroke-linecap="butt"/><path d="M173.51142,297.63368c0,0 -6.76732,-6.00281 -8.55513,-10.07777c-1.59912,-3.64492 -1.66863,-13.22575 -1.66863,-13.22575h35.14438v23.30343z" fill="#605d5d" stroke="none" stroke-width="0" stroke-linecap="butt"/><path d="M189.17579,276.83972v-34.77606h10.21455v34.77606z" fill="#313828" stroke="none" stroke-width="0" stroke-linecap="butt"/><path d="M151.7857,271.10337c0,-3.76209 2.71778,-6.81175 6.07041,-6.81175c3.35258,0 6.07041,3.04976 6.07041,6.81175c0,3.7621 -2.71778,6.81175 -6.07041,6.81175c-3.35258,0 -6.07041,-3.04976 -6.07041,-6.81175z" fill="#6e6e6d" stroke="none" stroke-width="0" stroke-linecap="butt"/><path d="M176.38674,292.25593l3.54397,2.7868l-0.84665,0.08068c0,0 -3.02424,-2.82824 -4.29471,-5.37698c-2.11282,-4.23897 -2.23646,-12.18957 -2.23646,-12.18957" fill="none" stroke="#22211f" stroke-width="0.75" stroke-linecap="round"/><path d="M158.49512,277.91523l-6.70943,-6.81176v-8.60441h22.68416v15.41626z" fill="#6e6e6d" stroke="none" stroke-width="0" stroke-linecap="butt"/><path d="M157.89339,251.05687c0,-5.42436 3.9187,-9.82169 8.75263,-9.82169c4.83393,0 8.75264,4.39723 8.75264,9.82169c0,5.42435 -3.91866,9.82178 -8.75264,9.82178c-4.83393,0 -8.75263,-4.39733 -8.75263,-9.82178z" fill="#6e6e6d" stroke="none" stroke-width="0" stroke-linecap="butt"/><path d="M169.35793,276.77202c-2.15647,-1.52862 -2.55594,-18.5751 -2.55594,-18.5751h22.68401v18.97036c0,0 -18.20424,0.96853 -20.12807,-0.39521z" fill="#5a5a5a" stroke="none" stroke-width="0" stroke-linecap="butt"/><path d="M167.56748,260.87846l-9.6739,-9.82179v-12.40628h32.70727v22.22797z" fill="#6e6e6d" stroke="none" stroke-width="0" stroke-linecap="butt"/><path d="M166.63858,263.02958v-3.58511h15.33577v3.58511z" fill="#5d5c5c" stroke="none" stroke-width="0" stroke-linecap="butt"/><path d="M180.24185,261.23693c-2.58175,-1.38671 -3.05999,-19.3598 -3.05999,-19.3598h27.15703v19.71837c0,0 -21.79386,0.87854 -24.09704,-0.35852z" fill="#5a5a5a" stroke="none" stroke-width="0" stroke-linecap="butt"/><path d="M181.97445,263.024v-3.64032h22.04511v3.64032z" fill="#414141" stroke="none" stroke-width="0" stroke-linecap="butt"/><path d="M202.74149,263.02948v-3.58516h10.86286v3.58516z" fill="#1b2229" stroke="none" stroke-width="0" stroke-linecap="butt"/><path d="M213.28472,63.33927v23.30353h-35.14437c0,0 0.06961,-9.58078 1.66868,-13.22575c1.7878,-4.07487 8.55508,-10.07788 8.55508,-10.07788z" data-paper-data="{&quot;index&quot;:null}" fill="#605d5d" stroke="none" stroke-width="0" stroke-linecap="butt"/><path d="M214.24326,84.1332v34.77605h-10.21459v-34.77605z" data-paper-data="{&quot;index&quot;:null}" fill="#313828" stroke="none" stroke-width="0" stroke-linecap="butt"/><path d="M172.70899,83.05763c3.35258,0 6.07041,3.04976 6.07041,6.81185c0,3.7621 -2.71778,6.81176 -6.07041,6.81176c-3.35258,0 -6.07041,-3.04976 -6.07041,-6.81176c0,-3.7621 2.71778,-6.81185 6.07041,-6.81185z" data-paper-data="{&quot;index&quot;:null}" fill="#6e6e6d" stroke="none" stroke-width="0" stroke-linecap="butt"/><path d="M187.40571,83.41615c0,0 0.12364,-7.95065 2.23646,-12.18957c1.27042,-2.54878 4.29476,-5.37698 4.29476,-5.37698l0.84665,0.08068l-3.54397,2.78676" data-paper-data="{&quot;index&quot;:null}" fill="none" stroke="#22211f" stroke-width="0.75" stroke-linecap="round"/><path d="M189.32274,83.05763v15.41621h-22.68416v-8.60436l6.70943,-6.81185z" data-paper-data="{&quot;index&quot;:null}" fill="#6e6e6d" stroke="none" stroke-width="0" stroke-linecap="butt"/><path d="M166.64602,100.62487c4.83403,0 8.75264,4.39733 8.75264,9.82169c0,5.4244 -3.91866,9.82169 -8.75264,9.82169c-4.83403,0 -8.75263,-4.39724 -8.75263,-9.82169c0,-5.4244 3.91865,-9.82169 8.75263,-9.82169z" data-paper-data="{&quot;index&quot;:null}" fill="#6e6e6d" stroke="none" stroke-width="0" stroke-linecap="butt"/><path d="M204.33899,83.80553v18.97037h-22.68406c0,0 0.39942,-17.04643 2.55594,-18.57516c1.92383,-1.36379 20.12813,-0.39521 20.12813,-0.39521z" data-paper-data="{&quot;index&quot;:null}" fill="#5a5a5a" stroke="none" stroke-width="0" stroke-linecap="butt"/><path d="M190.60071,100.62487v22.22796h-32.70728v-12.40628l9.6739,-9.82169z" data-paper-data="{&quot;index&quot;:null}" fill="#6e6e6d" stroke="none" stroke-width="0" stroke-linecap="butt"/><path d="M181.9744,98.47384v3.58516h-15.33572v-3.58516z" data-paper-data="{&quot;index&quot;:null}" fill="#5d5c5c" stroke="none" stroke-width="0" stroke-linecap="butt"/><path d="M204.33899,99.90788v19.71836h-27.15703c0,0 0.47814,-17.97308 3.0599,-19.3598c2.30312,-1.23712 24.09704,-0.35856 24.09704,-0.35856z" data-paper-data="{&quot;index&quot;:null}" fill="#5a5a5a" stroke="none" stroke-width="0" stroke-linecap="butt"/><path d="M204.01941,98.47933v3.64042h-22.0451v-3.64042z" data-paper-data="{&quot;index&quot;:null}" fill="#414141" stroke="none" stroke-width="0" stroke-linecap="butt"/><path d="M213.60425,98.47389v3.58517h-10.86285v-3.58517z" data-paper-data="{&quot;index&quot;:null}" fill="#1b2229" stroke="none" stroke-width="0" stroke-linecap="butt"/><path d="M307.14862,115.24846v20.38201l-30.53185,-17.83426l-0.31478,-3.82152z" data-paper-data="{&quot;index&quot;:null}" fill="#595f5e" stroke="#000000" stroke-width="0" stroke-linecap="round"/><path d="M270.16917,114.06356l35.0734,23.20277" data-paper-data="{&quot;index&quot;:null}" fill="none" stroke="#a618e2" stroke-width="0.75" stroke-linecap="round"/><path d="M320.08134,115.88345v20.47313h-13.48973v-20.47313z" data-paper-data="{&quot;index&quot;:null}" fill="#201f1e" stroke="none" stroke-width="0" stroke-linecap="butt"/><path d="M320.98065,134.53663v5.0046h-17.08709v-5.0046z" data-paper-data="{&quot;index&quot;:null}" fill="#cf55f0" stroke="none" stroke-width="0" stroke-linecap="butt"/><path d="M313.44392,124.80249l-0.31482,6.36942v-10.50949l-3.77714,-0.31845l9.75757,0.31845l-0.6295,10.82793v-4.77696" data-paper-data="{&quot;index&quot;:null}" fill="none" stroke="#3d3d3d" stroke-width="0.5" stroke-linecap="round"/><path d="M277.56105,56.73898l0.31482,-3.82161l30.53185,-17.83425v20.38201z" data-paper-data="{&quot;index&quot;:null}" fill="#595f5e" stroke="#000000" stroke-width="0" stroke-linecap="round"/><path d="M271.42818,56.65003l35.0734,-23.20277" data-paper-data="{&quot;index&quot;:null}" fill="none" stroke="#a618e2" stroke-width="0.75" stroke-linecap="round"/><path d="M307.85051,54.83014v-20.47313h13.48973v20.47313z" data-paper-data="{&quot;index&quot;:null}" fill="#201f1e" stroke="none" stroke-width="0" stroke-linecap="butt"/><path d="M305.15257,36.17695v-5.0046h17.08709v5.0046z" data-paper-data="{&quot;index&quot;:null}" fill="#cf55f0" stroke="none" stroke-width="0" stroke-linecap="butt"/><path d="M319.73908,44.00005v-4.77697l0.62946,10.82794l-9.75756,0.31846l3.77708,-0.31846v-10.50958l0.31482,6.36942" data-paper-data="{&quot;index&quot;:null}" fill="none" stroke="#3d3d3d" stroke-width="0.5" stroke-linecap="round"/><path d="M330.86915,55.1097v60.99223h-20.61117v-60.99223z" data-paper-data="{&quot;index&quot;:null}" fill="#4d0092" stroke="none" stroke-width="0" stroke-linecap="butt"/><path d="M313.20252,55.1097v60.99223h-95.45213v-60.99223z" data-paper-data="{&quot;index&quot;:null}" fill="#a719e2" stroke="none" stroke-width="0" stroke-linecap="butt"/><path d="M313.20252,76.14164v18.92873h-95.45213v-18.92872z" data-paper-data="{&quot;index&quot;:null}" fill="#cf55f0" stroke="none" stroke-width="0" stroke-linecap="butt"/><path d="M376.24198,56.51782l2.42681,6.13537v45.13756l-2.42681,6.90301h-60.09512v-58.17589z" data-paper-data="{&quot;index&quot;:null}" fill="#1b1c25" stroke="none" stroke-width="0" stroke-linecap="butt"/><path d="M355.38089,58.77406v54.81081h-39.23398v-54.81081z" data-paper-data="{&quot;index&quot;:null}" fill="#595c65" stroke="none" stroke-width="0" stroke-linecap="butt"/><path d="M305.4771,65.23856v39.96043h-7.88698v-39.96043z" data-paper-data="{&quot;index&quot;:null}" fill="#201f1e" stroke="none" stroke-width="0" stroke-linecap="butt"/><path d="M298.64188,62.60953v47.84741h-25.76399v-47.84741z" data-paper-data="{&quot;index&quot;:null}" fill="#cf57f0" stroke="none" stroke-width="0" stroke-linecap="butt"/><path d="M301.03989,69.73641v31.80012h-2.27149v-31.80012z" data-paper-data="{&quot;index&quot;:null}" fill="#3d3d3d" stroke="none" stroke-width="0" stroke-linecap="butt"/><path d="M303.81606,83.11254v4.03808h-4.03807v-4.03808z" data-paper-data="{&quot;index&quot;:null}" fill="#3d3d3d" stroke="none" stroke-width="0" stroke-linecap="butt"/><path d="M303.81606,98.25557v2.77622h-3.53338v-2.77622z" data-paper-data="{&quot;index&quot;:null}" fill="#3d3d3d" stroke="none" stroke-width="0" stroke-linecap="butt"/><path d="M304.06844,70.99841v2.01901h-5.30004v-2.01901z" data-paper-data="{&quot;index&quot;:null}" fill="#3d3d3d" stroke="none" stroke-width="0" stroke-linecap="butt"/><path d="M319.22087,39.37488l-8.83332,0.31546l8.2024,-0.94644" data-paper-data="{&quot;index&quot;:null}" fill="none" stroke="#3d3d3d" stroke-width="0.5" stroke-linecap="round"/><path d="M373.50137,65.56544v41.74h-15.53118v-41.74z" data-paper-data="{&quot;index&quot;:null}" fill="#1b580a" stroke="none" stroke-width="0" stroke-linecap="butt"/><path d="M363.7944,67.02151v40.28402h-5.82421v-40.28402z" data-paper-data="{&quot;index&quot;:null}" fill="#95ff0e" stroke="none" stroke-width="0" stroke-linecap="butt"/><path d="M358.45544,84.97946v14.0751h-10.19231v-14.0751z" data-paper-data="{&quot;index&quot;:null}" fill="#95ff0e" stroke="none" stroke-width="0" stroke-linecap="butt"/><path d="M250.60849,55.32018v60.99223h-4.62703v-60.99223z" data-paper-data="{&quot;index&quot;:null}" fill="#441a44" stroke="none" stroke-width="0" stroke-linecap="butt"/><path d="M241.35434,58.71518c0,-1.48909 1.21419,-3.81564 2.76261,-3.81564c1.54846,0 3.96759,0 3.96759,0v61.83355c0,0 -2.62041,0 -3.774,0c-1.15359,0 -2.95604,-0.43974 -2.95604,-4.21251c0,-20.99819 0,-52.31626 0,-53.8053z" data-paper-data="{&quot;index&quot;:null}" fill="#9ee93d" stroke="none" stroke-width="0" stroke-linecap="butt"/><path d="M214.68451,54.89955c1.10172,0 2.8231,0 2.8231,0v61.83355c0,0 -1.86456,0 -2.68535,0c-0.82089,0 -2.10346,-0.43974 -2.10346,-4.21251c0,-20.99819 0,-52.31626 0,-53.8053c0,-1.48909 0.8639,-3.81564 1.96562,-3.81564z" data-paper-data="{&quot;index&quot;:null}" fill="#9ee93d" stroke="none" stroke-width="0" stroke-linecap="butt"/><path d="M276.30204,246.02528l0.31478,-3.82161l30.53185,-17.83426v20.38211z" fill="#595f5e" stroke="#000000" stroke-width="0" stroke-linecap="round"/><path d="M305.24261,222.73365l-35.0734,23.20277" fill="none" stroke="#a618e2" stroke-width="0.75" stroke-linecap="round"/><path d="M306.59156,244.11658v-20.47313h13.48973v20.47313z" fill="#201f1e" stroke="none" stroke-width="0" stroke-linecap="butt"/><path d="M303.89361,225.46334v-5.0046h17.08709v5.0046z" fill="#cf55f0" stroke="none" stroke-width="0" stroke-linecap="butt"/><path d="M318.48012,233.28654v-4.77697l0.62946,10.82793l-9.75756,0.31845l3.77713,-0.31845v-10.50948l0.31483,6.36942" fill="none" stroke="#3d3d3d" stroke-width="0.5" stroke-linecap="round"/><path d="M165.12905,123.1681c0,0 6.04009,-5.03042 11.40934,-6.60063c4.74027,-1.38632 19.1546,-2.33785 19.1546,-2.33785l-0.57675,9.46434c0,0 -9.14697,-1.7925 -14.39904,-1.88636c-4.39969,-0.07867 -15.58815,1.36051 -15.58815,1.36051z" fill="#404040" stroke="#000000" stroke-width="0" stroke-linecap="round"/><path d="M115.64688,179.47771c0,-39.26283 31.82883,-71.09171 71.09171,-71.09171c39.26283,0 71.0917,31.82883 71.0917,71.09171c0,39.26283 -31.82882,71.0917 -71.0917,71.0917c-39.26283,0 -71.09171,-31.82882 -71.09171,-71.0917z" fill="#8d8e87" stroke="none" stroke-width="0" stroke-linecap="butt"/><path d="M119.08332,179.47771c0,-37.36491 30.29031,-67.65521 67.65522,-67.65521c37.36491,0 67.65521,30.29026 67.65521,67.65522c0,37.36491 -30.29025,67.65521 -67.65521,67.65521c-37.36491,0 -67.65522,-30.2903 -67.65522,-67.65521z" fill="#5c5d5f" stroke="none" stroke-width="0" stroke-linecap="butt"/><path d="M116.50602,179.47771c0,-41.60079 31.44415,-75.32504 70.23261,-75.32504c38.78826,0 70.23261,33.72415 70.23261,75.32504c0,41.60079 -31.44415,75.32504 -70.23261,75.32504c-38.78826,0 -70.23261,-33.72415 -70.23261,-75.32504z" fill="#8d8e87" stroke="none" stroke-width="0" stroke-linecap="butt"/><path d="M119.08332,179.47766c0,-40.07422 30.29031,-72.56081 67.65522,-72.56081c37.36491,0 67.65521,32.48659 67.65521,72.56081c0,40.07422 -30.29025,72.56082 -67.65521,72.56082c-37.36491,0 -67.65522,-32.4866 -67.65522,-72.56082z" fill="#5c5d5f" stroke="none" stroke-width="0" stroke-linecap="butt"/><path d="M244.44137,179.78749c0,25.24205 -15.79575,45.7049 -35.2809,45.7049c-19.48515,0 -35.28094,-20.46279 -35.28094,-45.7049c0,-25.24205 15.79589,-45.70489 35.28094,-45.70489c19.48515,0 35.2809,20.46279 35.2809,45.70489z" fill="#92d1ec" stroke="none" stroke-width="NaN" stroke-linecap="butt"/><path d="M230.44583,198.50705v-33.4731h2.55299v33.4731z" fill="#112049" stroke="none" stroke-width="0" stroke-linecap="butt"/><path d="M210.02158,212.40688l19.8569,-10.77949c0,0 1.81015,11.6863 -1.70203,19.57328c-1.10932,2.49108 -2.47874,7.88673 -4.60958,10.22199c-4.61536,5.05819 -10.14127,7.6492 -10.14127,7.6492z" fill="#1b151b" stroke="#000000" stroke-width="0" stroke-linecap="round"/><path d="M213.42565,119.93054c0,0 11.80602,8.56586 15.31819,16.45288c3.51218,7.88698 1.70203,19.57327 1.70203,19.57327l-19.8569,-10.77944z" data-paper-data="{&quot;index&quot;:null}" fill="#1b151b" stroke="#000000" stroke-width="0" stroke-linecap="round"/><path d="M201.89723,153.68413l7.28882,12.45473l-8.99188,4.05732l-8.16281,-13.24755z" data-paper-data="{&quot;index&quot;:null}" fill="#773710" stroke="#602a0d" stroke-width="0.25" stroke-linecap="round"/><path d="M164.46521,223.19867c0,0 -9.55741,10.77689 -19.13026,5.2243c-13.18534,-7.64802 -28.58867,-22.74622 -27.30707,-51.30868c1.11509,-24.85126 17.13431,-39.20057 29.80712,-46.71403c8.4891,-5.03301 15.47651,0.2123 15.47651,0.2123c0,0 8.6261,32.06929 8.82121,47.73268c0.18918,15.18373 -7.66743,44.85353 -7.66743,44.85353z" fill="#545252" stroke="#000000" stroke-width="0" stroke-linecap="round"/><path d="M228.84931,158.6055c0,0 -1.27792,-6.11235 -2.70093,-9.32831c-1.71301,-3.87148 -5.4511,-8.89685 -5.4511,-8.89685l1.07037,-6.91751c0,0 4.95028,4.61144 7.97392,8.98203c2.59341,3.74863 4.82154,13.67744 4.82154,13.67744z" data-paper-data="{&quot;index&quot;:null}" fill="#9920ea" stroke="#221b12" stroke-width="0" stroke-linecap="round"/><path d="M158.80916,234.7094c-6.32171,-1.55988 -12.7166,-6.0107 -12.7166,-6.0107c0,0 19.69211,-4.41066 19.8785,-49.03793c0.18413,-44.10622 -17.80173,-49.08609 -17.80173,-49.08609c0,0 10.80741,-4.51303 17.5885,-5.62886c6.88886,-1.13351 6.53636,-8.0934 31.9459,-7.09817c13.90909,0.54481 17.72761,3.4866 17.72761,3.4866l-0.427,19.31595l15.44369,12.75324l0.49156,54.29506l-16.411,10.5787l-0.59228,21.0031c0,0 -13.40449,6.48689 -17.58101,6.55855c-32.93858,0.56484 -28.59259,-8.92031 -37.54616,-11.12944z" fill="#313131" stroke="#692206" stroke-width="0" stroke-linecap="round"/><path d="M140.95031,158.65233c-0.62813,7.22073 -4.09622,12.81673 -7.74633,12.49926c-3.65007,-0.31752 -6.09981,-6.42835 -5.47167,-13.64912c0.62813,-7.22073 4.09622,-12.81687 7.74634,-12.4993c3.65007,0.31752 6.0998,6.42835 5.47167,13.64917z" fill="#969192" stroke="none" stroke-width="0" stroke-linecap="butt"/><path d="M168.54909,183.18891l-50.20952,-1.98571l0.0026,-2.77838l50.03346,-1.19308z" fill="#363431" stroke="#000000" stroke-width="0" stroke-linecap="round"/><path d="M171.38169,163.56283l21.72847,16.83898l-21.47756,16.58822l-1.62964,-4.99916l0.20251,-23.75312z" fill="none" stroke="#232729" stroke-width="1.5" stroke-linecap="butt"/><path d="M170.70688,162.72377l22.40323,17.67809l-22.40323,17.67809l-3.68769,-5.81368v-24.67932z" fill="#81ff00" stroke="none" stroke-width="0" stroke-linecap="butt"/><path d="M193.51203,177.51552l33.75668,2.83672l-33.75667,2.55304z" fill="#232729" stroke="#363431" stroke-width="0" stroke-linecap="round"/><path d="M229.59486,167.01965v25.81391l-5.10609,-7.65904l-0.28358,-9.36113z" fill="#85ff00" stroke="#232729" stroke-width="0.25" stroke-linecap="round"/><path d="M229.02746,177.79914h-3.68768" fill="none" stroke="#232729" stroke-width="0.25" stroke-linecap="round"/><path d="M225.62345,183.75625h3.40406" fill="none" stroke="#232729" stroke-width="0.25" stroke-linecap="round"/><path d="M231.9842,148.91568l-4.32611,1.78139" fill="none" stroke="#7312ad" stroke-width="0.25" stroke-linecap="round"/><path d="M226.251,139.14847l-1.94965,4.29985" fill="none" stroke="#7312ad" stroke-width="0.25" stroke-linecap="round"/><path d="M236.45256,206.11491c0,0 -0.56989,8.36771 -2.30587,12.29302c-1.77409,4.01138 -13.01859,8.88216 -13.01859,8.88216l0.26457,-7.15725c0,0 5.52193,-0.93561 6.83238,-4.30029c1.351,-3.46858 2.21897,-11.20645 2.21897,-11.20645z" fill="#9920ea" stroke="#221b12" stroke-width="0" stroke-linecap="round"/><path d="M229.36992,212.26184l5.10394,0.58615" fill="none" stroke="#7312ad" stroke-width="0.25" stroke-linecap="round"/><path d="M226.4704,219.15182l1.97311,3.41141" fill="none" stroke="#7312ad" stroke-width="0.25" stroke-linecap="round"/><path d="M208.80891,223.26587l7.40551,-35.9197l8.69664,-0.2802c0,0 6.35712,2.57402 1.55738,17.67962c-5.17522,13.55106 -17.65943,18.52033 -17.65943,18.52033z" data-paper-data="{&quot;index&quot;:null}" fill="#367600" stroke="#000000" stroke-width="0" stroke-linecap="round"/><path d="M222.35542,185.14728c5.36023,-0.03865 6.48224,10.59305 3.5521,16.72112c-5.71802,11.95861 -16.20404,15.55905 -16.20404,15.55905c0,0 0.08019,-31.84337 12.65189,-32.28017z" data-paper-data="{&quot;index&quot;:null}" fill="#83fc00" stroke="#000000" stroke-width="0" stroke-linecap="round"/><path d="M226.76842,188.93328c0,0 0.20716,4.25033 0.28358,6.17191c0.07818,1.96371 -0.68829,5.47055 -0.68829,5.47055l-16.39777,13.7858l2.00358,-15.31873z" data-paper-data="{&quot;index&quot;:null}" fill="#b8fb00" stroke="#000000" stroke-width="0" stroke-linecap="round"/><path d="M163.50941,237.08728c0,0 10.66408,1.37182 14.85759,1.29683c5.00588,-0.08945 13.72413,-1.7979 13.72413,-1.7979l0.54966,9.02069c0,0 -13.73862,-0.90701 -18.2567,-2.22828c-5.11756,-1.49659 -10.87467,-6.29124 -10.87467,-6.29124z" data-paper-data="{&quot;index&quot;:null}" fill="#404040" stroke="#000000" stroke-width="0" stroke-linecap="round"/><path d="M224.19162,153.87228c6.4641,15.37976 -1.44506,19.98 -1.44506,19.98l-7.8424,-2.04605l-9.35804,-35.46111c0,0 12.73727,4.27937 18.6455,17.52721z" data-paper-data="{&quot;index&quot;:null}" fill="#367600" stroke="#000000" stroke-width="0" stroke-linecap="round"/><path d="M223.65239,158.12947c2.93018,6.12802 1.80823,16.75977 -3.5521,16.72112c-12.5718,-0.4368 -12.90245,-32.28013 -12.90245,-32.28013c0,0 10.73653,3.60045 16.45454,15.55906z" data-paper-data="{&quot;index&quot;:null}" fill="#83fc00" stroke="#000000" stroke-width="0" stroke-linecap="round"/><path d="M209.71445,160.95512l-2.50465,-15.06822l16.89889,13.53528c0,0 0.76647,3.50679 0.68829,5.47055c-0.07652,1.92158 -0.28358,6.17191 -0.28358,6.17191z" data-paper-data="{&quot;index&quot;:null}" fill="#b8fb00" stroke="#000000" stroke-width="0" stroke-linecap="round"/><path d="M230.28236,197.35517c3.8485,-4.38142 10.44325,0.70142 14.98857,5.62073c2.56495,2.77608 0.62451,12.17815 0.62451,12.17815c0,0 -6.93456,-1.33302 -10.61686,-2.81036c-7.596,-3.0473 -8.26225,-11.27007 -4.99622,-14.98857z" fill="#79ed1e" stroke="#000000" stroke-width="0" stroke-linecap="round"/><path d="M230.96722,197.81328l14.92798,17.34078c0,0 -6.93456,-1.33312 -10.61686,-2.81036c-7.596,-3.04736 -8.2622,-11.27013 -4.99617,-14.98857c0.84979,-0.96746 0.68506,0.45811 0.68506,0.45811z" fill="#b6fd2d" stroke="#000000" stroke-width="0" stroke-linecap="round"/><path d="M237.77652,213.59262c0,0 0.92724,-3.92404 2.49809,-5.62068c1.57095,-1.6966 5.62069,-1.87358 5.62069,-1.87358" fill="none" stroke="#4ca000" stroke-width="0.25" stroke-linecap="round"/><path d="M231.21905,208.59649c0,0 0.58865,-4.78643 2.18576,-6.86971c1.59715,-2.08324 6.55752,-2.49809 6.55752,-2.49809" fill="none" stroke="#4ca000" stroke-width="0.25" stroke-linecap="round"/><path d="M228.67864,164.17206c-3.26608,-3.71836 -2.59993,-11.94117 4.99617,-14.98857c3.68234,-1.47724 10.61686,-2.81026 10.61686,-2.81026c0,0 1.94049,9.40207 -0.62451,12.17815c-4.54531,4.91926 -11.13996,10.00205 -14.98857,5.62069z" data-paper-data="{&quot;index&quot;:null}" fill="#79ed1e" stroke="#000000" stroke-width="0" stroke-linecap="round"/><path d="M228.67855,164.17206c-3.26608,-3.71836 -2.59993,-11.94117 4.99617,-14.98857c3.68234,-1.47724 10.61681,-2.81026 10.61681,-2.81026l-14.92793,17.34073c0,0 0.16479,1.4256 -0.68505,0.4581z" data-paper-data="{&quot;index&quot;:null}" fill="#b6fd2d" stroke="#000000" stroke-width="0" stroke-linecap="round"/><path d="M244.29163,155.42868c0,0 -4.04973,-0.17693 -5.62069,-1.87357c-1.57095,-1.69664 -2.49804,-5.62073 -2.49804,-5.62073" data-paper-data="{&quot;index&quot;:null}" fill="none" stroke="#4ca000" stroke-width="0.25" stroke-linecap="round"/><path d="M238.35871,162.29853c0,0 -4.96037,-0.41481 -6.55752,-2.49804c-1.59715,-2.08324 -2.18581,-6.86975 -2.18581,-6.86975" data-paper-data="{&quot;index&quot;:null}" fill="none" stroke="#4ca000" stroke-width="0.25" stroke-linecap="round"/><path d="M183.12932,172.5262l9.98078,7.87571l-9.97364,7.87017l-3.45667,-7.7168z" fill="#438116" stroke="none" stroke-width="0" stroke-linecap="butt"/><path d="M183.13961,172.04914l-4.11468,8.86246l4.43118,7.91288l-4.74773,-8.54591z" fill="none" stroke="#bcfb30" stroke-width="0.5" stroke-linecap="round"/><path d="M179.02492,180.27857l-12.34412,0.31654l12.02763,-0.31654" fill="none" stroke="#bcfb30" stroke-width="0.5" stroke-linecap="round"/><path d="M150.85508,180.12035c0.80526,24.29244 -27.33264,24.58267 -27.33264,24.58267c0,0 -4.86092,-2.02122 -5.58502,-24.26613c-0.46737,-14.3574 4.35976,-22.74906 4.35976,-22.74906c0,0 27.595,-6.61263 28.5579,22.43253z" fill="#7af614" stroke="none" stroke-width="0" stroke-linecap="butt"/><path d="M142.17298,179.63946c0.57866,17.45644 -22.01454,17.66506 -22.01454,17.66506c0,0 -1.70551,-2.03831 -2.22573,-18.02348c-0.33584,-10.31712 2.13653,-15.76146 2.13653,-15.76146c0,0 21.41198,-4.75173 22.10389,16.11993z" fill="#e4fb1e" stroke="none" stroke-width="0" stroke-linecap="butt"/><path d="M118.25396,182.49416v-6.33028h24.37174v6.33028z" fill="#433812" stroke="none" stroke-width="0" stroke-linecap="butt"/><path d="M118.5705,170.46653l1.26607,-6.33028h22.15605v6.33028z" fill="#433812" stroke="none" stroke-width="0" stroke-linecap="butt"/><path d="M119.20348,194.20524l-1.26611,-6.64682h24.37174v6.33028z" fill="#433812" stroke="none" stroke-width="0" stroke-linecap="butt"/><path d="M168.07403,219.05131l-0.16449,2.69393l-22.35292,12.69039c0,0 -4.33351,-3.49606 -5.36273,-4.95038c-1.46632,-2.07197 -2.59767,-6.298 -2.59767,-6.298z" fill="#7112c6" stroke="#000000" stroke-width="0" stroke-linecap="round"/><path d="M149.78657,229.71827c0,0 5.55327,-2.51474 9.61947,-4.84608c4.06615,-2.33139 8.65134,-6.17705 8.65134,-6.17705l8.32333,6.72686c0,0 -3.91189,3.32192 -7.02866,5.34245c-3.11676,2.02053 -8.75827,4.56491 -8.75827,4.56491l-10.80716,-5.61123z" fill="#9d21f3" stroke="#000000" stroke-width="0" stroke-linecap="round"/><path d="M140.60154,231.40204c0,0 4.35795,0.03683 8.81411,-1.41626c4.45616,-1.45305 10.52633,-5.78252 10.52633,-5.78252l7.04115,8.32764c0,0 -4.46263,2.18943 -7.92587,3.53187c-3.46323,1.34243 -9.02009,3.03672 -9.02009,3.03672l-9.43559,-7.69739z" fill="#cb4af3" stroke="#000000" stroke-width="0" stroke-linecap="round"/><path d="M138.02567,137.09811c0,0 1.13141,-4.22608 2.59768,-6.29805c1.02918,-1.45426 5.36273,-4.95037 5.36273,-4.95037l22.35297,12.69039l0.16449,2.69393z" data-paper-data="{&quot;index&quot;:null}" fill="#7112c6" stroke="#000000" stroke-width="0" stroke-linecap="round"/><path d="M150.21597,130.56704l10.80716,-5.61123c0,0 5.64155,2.54447 8.75827,4.56491c3.11671,2.02053 7.02867,5.34245 7.02867,5.34245l-8.32334,6.72696c0,0 -4.58519,-3.84572 -8.65134,-6.17706c-4.06619,-2.33139 -9.61947,-4.84608 -9.61947,-4.84608z" data-paper-data="{&quot;index&quot;:null}" fill="#9d21f3" stroke="#000000" stroke-width="0" stroke-linecap="round"/><path d="M141.03108,128.88308l9.43554,-7.6974c0,0 5.5568,1.69424 9.02009,3.03673c3.46323,1.34243 7.92587,3.53181 7.92587,3.53181l-7.04115,8.32764c0,0 -6.07017,-4.32949 -10.52633,-5.78243c-4.45616,-1.45305 -8.81411,-1.41625 -8.81411,-1.41625z" data-paper-data="{&quot;index&quot;:null}" fill="#cb4af3" stroke="#000000" stroke-width="0" stroke-linecap="round"/><path d="M265.44446,157.70893l13.83179,19.84558l-12.02762,21.04831l-6.61517,-6.01378l-1.5035,-25.25798z" fill="#3f720d" stroke="#000000" stroke-width="0" stroke-linecap="round"/><path d="M265.74519,158.61099l15.63586,18.94342l-13.83179,21.34898l-4.81107,-6.31451l-1.50349,-25.25797z" fill="#adef0f" stroke="#000000" stroke-width="0" stroke-linecap="round"/><path d="M271.45831,190.78482l-9.3214,-8.4193l-0.30072,-14.7338l15.33524,15.93653z" fill="#dffc13" stroke="#000000" stroke-width="0" stroke-linecap="round"/></g></g></svg>