<svg version="1.1" xmlns="http://www.w3.org/2000/svg" xmlns:xlink="http://www.w3.org/1999/xlink" width="54.6712" height="58.69504" viewBox="0,0,54.6712,58.69504"><defs><linearGradient x1="215.9089" y1="180.63" x2="264.16115" y2="179.42977" gradientUnits="userSpaceOnUse" id="color-1"><stop offset="0" stop-color="#362e2b"/><stop offset="1" stop-color="#000000"/></linearGradient><linearGradient x1="225.87948" y1="207.14225" x2="225.34113" y2="185.49916" gradientUnits="userSpaceOnUse" id="color-2"><stop offset="0" stop-color="#da461d"/><stop offset="1" stop-color="#ff8669"/></linearGradient><linearGradient x1="224.4674" y1="176.03215" x2="223.92906" y2="154.38905" gradientUnits="userSpaceOnUse" id="color-3"><stop offset="0" stop-color="#ff8669"/><stop offset="1" stop-color="#da461d"/></linearGradient><linearGradient x1="252.63404" y1="174.31034" x2="252.09569" y2="152.66724" gradientUnits="userSpaceOnUse" id="color-4"><stop offset="0" stop-color="#ff8669"/><stop offset="1" stop-color="#da461d"/></linearGradient><linearGradient x1="252.5629" y1="207.37206" x2="252.02455" y2="185.72895" gradientUnits="userSpaceOnUse" id="color-5"><stop offset="0" stop-color="#da461d"/><stop offset="1" stop-color="#ff8669"/></linearGradient></defs><g transform="translate(-212.30149,-150.32886)"><g data-paper-data="{&quot;isPaintingLayer&quot;:true}" fill-rule="nonzero" stroke-linecap="butt" stroke-linejoin="miter" stroke-miterlimit="10" stroke-dasharray="" stroke-dashoffset="0" style="mix-blend-mode: normal"><path d="M216.71135,187.12075c-2.52995,-1.0178 -3.04926,-3.30618 -3.3201,-5.68034c-0.0509,-2.1568 -0.19477,-4.45719 1.27479,-6.26734c0.38366,-0.47258 0.90812,-0.83908 1.4642,-1.09817c-0.41998,-0.34796 -0.86669,-0.90931 -1.12517,-1.25354c-1.14256,-1.52162 -2.06466,-3.42191 -2.4453,-5.30042c-1.19899,-5.91712 1.89432,-10.84287 6.83424,-13.72491l0.10243,-0.18455c4.9784,-2.44874 10.37909,-3.71086 15.11069,0.1151c1.53152,1.23839 2.90561,2.82286 3.64446,4.66705c0.31708,0.79145 -0.13556,2.15259 0.65471,2.47261c0.67897,0.27495 2.12531,-0.12327 2.28781,-0.70777c0.42625,-2.2504 0.89327,-5.56045 2.69104,-7.18117c0.71346,-0.64319 3.19405,-1.3599 4.05333,-1.6694c4.3946,-1.58288 9.53572,-1.29824 13.65041,1.23333c2.10039,1.29228 2.62551,3.16495 3.4551,5.31475c1.34038,3.47346 2.19793,5.84445 1.85173,9.63391c-0.24558,2.08093 -0.4725,3.91776 -1.43531,5.81685c-0.57876,1.14154 -2.68812,2.96424 -2.77377,4.31359c-0.08104,1.27682 0.69557,2.64807 0.2115,3.83235c-0.38857,0.95064 -1.71327,1.20543 -2.3039,2.04558c-0.3959,0.56315 1.1928,0.73034 1.64317,1.25095c0.5536,0.63994 1.51685,2.86514 1.8,3.6969c1.60683,4.72009 2.83439,9.15075 0.11946,13.78734c-1.44862,1.8997 -3.27811,3.95931 -5.36549,5.19175c-3.88488,2.29373 -9.69071,2.08321 -13.33504,-0.39973c-1.87639,-1.27842 -2.97172,-2.58526 -3.55492,-4.8096c-0.1607,-0.61293 0.07547,-1.6856 -0.54341,-1.82164c-0.85946,-0.18893 -1.73847,0.25599 -2.60483,0.4285l-0.20607,0.53039c-1.42028,4.48449 -4.55111,6.65384 -9.06604,7.38062c-2.72881,0.24634 -5.5802,0.26794 -8.10926,-1.01373c-0.10159,-0.05148 -2.67846,-1.99907 -2.86146,-2.14806c-6.01249,-4.89526 -5.70496,-12.66981 -1.54045,-18.36796c-0.0876,-0.02187 -0.17389,-0.04918 -0.25858,-0.08326zM217.09731,159.55541c-2.14818,2.78055 -1.88816,7.24491 -0.34006,10.17199c0.53682,1.015 3.52024,3.7551 3.4728,4.54417c-0.14946,2.48603 -2.07548,1.83341 -3.14264,2.9785c-0.8607,0.92355 -0.54169,2.88148 -0.51241,3.98869c0.15872,1.89678 0.41684,2.8922 2.4289,2.87752l0.38784,-0.01434c0,0 0.66128,-0.01645 1.14273,0.39768c0.22711,0.07364 0.46346,0.21682 0.6975,0.46174c1.10198,1.1532 -0.05124,2.25518 -0.05124,2.25518c-5.55683,5.28008 -5.68024,13.89568 1.67557,17.6798c1.89852,0.97667 4.192,0.86214 6.22886,0.67195c3.29087,-0.51345 5.47508,-1.93382 6.44749,-5.25915l0.60612,-1.56592c0.07006,-0.19409 0.17675,-0.37098 0.31195,-0.52208c0.2823,-0.34084 0.77817,-0.70171 1.54263,-0.49708c0.05168,-0.01376 0.10442,-0.02498 0.15807,-0.03356c2.67696,-0.47442 4.74019,-1.01833 6.42277,1.75911c0.90075,1.48688 0.17579,2.83035 1.57579,4.11133c2.76269,2.52781 7.72017,3.13133 11.01038,1.12262c1.67201,-1.02077 3.18833,-2.69713 4.35616,-4.24047c1.78448,-2.83899 1.16604,-5.98016 0.08262,-8.88311c-0.49529,-1.32712 -0.70274,-3.56856 -1.74383,-4.68885c-0.42611,-0.45853 -1.22233,-0.55067 -1.52168,-1.1004c-0.52068,-0.95619 -0.99433,-2.09477 -0.80172,-3.16635c0.20214,-1.12465 1.95046,-1.3777 2.4357,-2.41222c0.40012,-0.85304 -0.59491,-1.85532 -0.46375,-2.78837c0.36081,-2.5666 2.05225,-3.44905 3.10823,-5.53371c0.77971,-1.53927 0.91302,-3.02278 1.11094,-4.71334c0.30871,-3.29198 -0.48536,-5.11335 -1.65407,-8.14912c-0.23826,-0.6189 -0.74156,-2.33441 -1.24598,-2.98757c-0.65214,-0.84441 -1.45635,-0.98212 -2.42821,-1.34277c-3.39274,-1.25903 -5.96662,-1.60292 -9.36893,-0.37025c-1.00507,0.36414 -2.21282,0.36674 -3.02688,1.0596c-1.22271,1.04068 -1.51868,4.50151 -1.83281,5.95111c-0.51399,0.74151 -0.77731,1.74567 -1.54199,2.22454c-0.55942,0.35034 -4.92414,0.30993 -5.28511,0.10259c-1.91566,-1.10023 -1.60895,-3.69232 -2.69979,-5.29321c-3.37476,-4.95276 -8.4916,-4.31945 -13.18985,-2.13826c-0.15002,0.1955 -0.36442,0.36831 -0.67077,0.46649c-1.3102,0.75863 -2.75402,1.67526 -3.68133,2.87554z" fill="#382b29" stroke="none" stroke-width="0.5"/><path d="M220.75835,156.65526c0.30635,-0.0982 0.52143,-0.27153 0.67144,-0.46703c4.69824,-2.18119 9.82701,-2.82032 13.20177,2.13245c1.09084,1.60089 0.78665,4.19247 2.70232,5.2927c0.36099,0.20733 4.73582,0.24769 5.29525,-0.10263c0.76467,-0.47886 1.02992,-1.48266 1.54392,-2.22417c0.31412,-1.4496 0.61072,-4.91028 1.83343,-5.95096c0.81405,-0.69287 2.02484,-0.69457 3.02991,-1.05871c3.40231,-1.23266 5.98438,-0.88451 9.37711,0.37452c0.97186,0.36065 1.77823,0.50008 2.43038,1.34449c0.50443,0.65316 1.00992,2.37077 1.24819,2.98968c1.16871,3.03577 1.96772,4.86391 1.65902,8.15591c-0.19792,1.69056 -0.32927,3.17846 -1.10897,4.71773c-1.05597,2.08467 -2.74581,2.97369 -3.10662,5.54028c-0.13117,0.93305 0.86416,1.93985 0.46404,2.7929c-0.48525,1.03454 -2.2339,1.29195 -2.43605,2.4166c-0.1926,1.07158 0.27993,2.21507 0.8006,3.17125c0.29935,0.54974 1.09528,0.64273 1.52139,1.10126c1.04108,1.12029 1.2465,3.36637 1.74181,4.69348c1.08342,2.90295 1.69686,6.05105 -0.08763,8.89004c-1.16783,1.54335 -2.68907,3.22392 -4.36109,4.24471c-3.29022,2.00871 -8.25788,1.40986 -11.02057,-1.11795c-1.40001,-1.28097 -0.67581,-2.62427 -1.57656,-4.11114c-1.68257,-2.77744 -3.75644,-2.23288 -6.43341,-1.75846c-0.05365,0.00857 -0.10666,0.01978 -0.15835,0.03354c-0.76445,-0.20462 -1.26283,0.15585 -1.54513,0.49669c-0.13519,0.1511 -0.24225,0.32793 -0.3123,0.52202l-0.60652,1.56584c-0.97241,3.32533 -3.16228,4.74387 -6.45315,5.25733c-2.03685,0.19019 -4.3359,0.30165 -6.23442,-0.67502c-7.35581,-3.78413 -7.24407,-12.41461 -1.68724,-17.6947c0,0 1.15215,-1.10525 0.05019,-2.25846c-0.23403,-0.24492 -0.47061,-0.38908 -0.69773,-0.46271c-0.48145,-0.41413 -1.14293,-0.39864 -1.14293,-0.39864l-0.38787,0.01426c-2.01207,0.01469 -2.27072,-0.98518 -2.42944,-2.88196c-0.02926,-1.10721 -0.34809,-3.07062 0.5126,-3.99417c1.06716,-1.14509 2.99421,-0.49755 3.14367,-2.98356c0.04744,-0.78907 -2.93452,-3.53318 -3.47134,-4.54817c-1.5481,-2.92708 -1.80274,-7.39978 0.34544,-10.18033c0.9273,-1.20028 2.37462,-2.12027 3.68482,-2.87891z" data-paper-data="{&quot;noHover&quot;:false,&quot;origItem&quot;:[&quot;Path&quot;,{&quot;applyMatrix&quot;:true,&quot;segments&quot;:[[[383.61605,369.0228],[3.68903,2.99946],[-8.54595,-6.9485]],[[351.76657,367.16427],[9.29327,-4.62312],[-3.22252,1.6031]],[[337.25581,377.69278],[2.46902,0.21017],[-7.7788,-0.66214]],[[328.16705,367.61253],[3.50517,3.43341],[-2.82703,-2.76915]],[[315.70763,365.69586],[3.47194,-0.00541],[-5.95631,0.34954]],[[306.50102,373.08303],[0.11083,-6.30637],[0,0]],[306.51574,374.29955],[[305.18045,377.84951],[1.33529,-1.47645],[-0.24846,0.70598]],[[303.67911,379.99925],[0.78573,-0.7143],[-3.6997,3.36336]],[[296.61604,379.66291],[0,0],[-16.11307,-17.82502]],[[241.08219,383.53555],[12.43169,-22.75597],[-3.20859,5.87326]],[[238.49098,403.00257],[-0.43721,-6.39772],[1.35249,10.35263]],[[254.46902,423.61702],[-10.34481,-3.30645],[0,0]],[[259.32891,425.63845],[0,0],[0.60275,0.23464]],[[260.94065,426.65672],[-0.46298,-0.43545],[1.04609,0.91123]],[[262.37812,431.52959],[0.70081,-2.37962],[0.03908,0.16303]],[[262.47097,432.02756],[-0.02268,-0.1688],[1.27804,8.42577]],[[256.45779,452.01747],[8.8348,-5.05617],[-4.72964,2.70678]],[[243.45128,456.63508],[4.12332,-4.28733],[-8.13675,8.46042]],[[239.07508,491.05084],[-6.03823,-10.46712],[3.06849,5.31915]],[[252.02391,505.03229],[-4.74538,-3.77995],[8.75746,5.81333]],[[279.85447,505.9836],[-9.18142,3.16884],[4.19742,-1.44868]],[[294.68387,500.88445],[-3.59182,3.17513],[1.47011,-1.29956]],[[298.25079,496.20173],[-1.74604,0.89523],[3.03698,-1.55712]],[[308.23569,493.93617],[-3.34302,-0.68709],[3.50859,0.72112]],[[315.60503,501.75698],[-3.20409,-1.60126],[2.64201,1.32036]],[[324.37911,500.52106],[-2.91368,-0.48376],[8.01483,1.33071]],[[341.47783,510.69267],[-6.45041,-3.4716],[4.76283,2.56334]],[[356.16145,514.54141],[-5.28229,-0.75202],[10.29203,1.22398]],[[381.82729,509.99326],[-9.60429,3.42577],[1.95801,-0.69841]],[[391.28657,506.32159],[-2.08611,1.52981],[2.697,-1.9778]],[[395.68369,498.81697],[-1.20593,3.0174],[4.20989,-10.53369]],[[397.57423,469.48639],[3.5976,10.75789],[-1.06276,-3.17796]],[[394.48969,459.91845],[2.10778,2.60502],[-3.16587,-3.91272]],[[375.98356,453.71113],[4.51813,1.09736],[-2.28362,-1.66851]],[[369.13271,448.70559],[1.44102,2.43358],[-1.05424,-1.78039]],[[369.22316,432.13561],[-0.67784,1.11505],[3.59713,-5.91734]],[[386.02098,424.08787],[-5.10176,3.29356],[15.78356,-10.18944]],[[393.74976,382.92149],[6.46899,14.89291],[-0.60095,-0.48536]],[[392.34019,380.78312],[0.28383,0.96768],[-2.27519,-4.16492]]],&quot;closed&quot;:true}]}" fill="url(#color-1)" stroke="none" stroke-width="0.5"/><path d="M250.53839,184.15688l-19.90023,0.495l-0.22846,-9.18473l19.90023,-0.495z" fill="#6d7f84" stroke="none" stroke-width="0"/><path d="M251.44722,184.77249l-9.69499,0.24115l-0.25067,-10.07768l9.69499,-0.24115z" fill="#e62929" stroke="none" stroke-width="0"/><path d="M263.217,182.82036l-11.73604,0.29192l-0.16817,-6.76098l11.73604,-0.29192z" fill="#000000" stroke="none" stroke-width="0"/><path d="M261.80808,177.49433c0.63407,-0.01577 1.17296,0.97092 1.20362,2.20384c0.03067,1.23292 -0.45849,2.24519 -1.09257,2.26096c-0.63407,0.01577 -1.17295,-0.97092 -1.20361,-2.20384c-0.03067,-1.23292 0.45848,-2.24518 1.09256,-2.26096z" fill="#313030" stroke="none" stroke-width="0"/><path d="M230.86762,183.62502l-11.73604,0.29192l-0.18721,-7.52637l11.73604,-0.29192z" fill="#8f999f" stroke="none" stroke-width="0"/><path d="M221.7673,187.54287c-2.75026,2.01828 -5.10249,4.93661 -4.478,8.56311c0.2479,1.43959 0.94634,2.66501 1.41516,4.03412c1.83203,2.09765 4.02785,5.61603 7.2231,5.53074c1.3309,-0.03553 2.68731,-0.71875 3.77727,-1.39028c1.04814,-0.64577 1.87997,-0.87219 2.64528,-1.88899c3.3082,-5.22914 1.57869,-12.19898 -4.10034,-14.89447c-1.80785,-0.47935 -4.26235,-0.50058 -6.11243,-0.18464l-0.26201,0.1856c0,0 -0.04082,0.02169 -0.10803,0.0448zM221.62636,185.85507l0.24619,-0.11555c2.14511,-0.35647 4.81773,-0.27832 6.9183,0.2571c6.66523,3.09803 8.73037,11.17844 4.86981,17.30413c-0.92279,1.20535 -1.88376,1.57404 -3.12119,2.33907c-0.82105,0.5076 -1.51455,0.86764 -2.44617,1.15796c-4.94394,1.54065 -7.97816,-2.45434 -10.7706,-5.86082c-0.57398,-1.52758 -1.33868,-2.94508 -1.60706,-4.57053c-0.72727,-4.40455 2.04687,-7.95792 5.45103,-10.35573c0,0 0.20173,-0.14185 0.45971,-0.15563z" fill="url(#color-2)" stroke="none" stroke-width="0.5"/><path d="M221.86292,187.46867l0.26296,-0.18599c1.85009,-0.31594 4.32508,-0.29552 6.13293,0.18383c5.67902,2.69549 7.42327,9.71717 4.11507,14.94632c-0.7653,1.0168 -1.60629,1.25032 -2.65442,1.89608c-1.08995,0.67152 -2.45996,1.35829 -3.79085,1.39382c-3.19525,0.08529 -5.42015,-3.44972 -7.25217,-5.54737c-0.46882,-1.36911 -1.17111,-2.61082 -1.41902,-4.05041c-0.62449,-3.6265 1.74687,-6.57303 4.49714,-8.59131c0.06721,-0.02312 0.10838,-0.04496 0.10838,-0.04496z" data-paper-data="{&quot;noHover&quot;:false,&quot;origItem&quot;:[&quot;Path&quot;,{&quot;applyMatrix&quot;:true,&quot;segments&quot;:[[[294.74768,383.07558],[0.0672,0.2124],[-6.11033,-8.77583]],[[268.2625,368.37538],[11.41306,-1.67428],[-4.53059,0.66463]],[[255.51046,372.4956],[4.32693,-1.36241],[-6.71623,5.57754]],[[237.61574,394.69955],[-0.01819,-10.01961],[0.00758,4.17341]],[[241.67802,406.64473],[-2.0194,-3.46793],[1.94194,3.3349]],[[247.39137,415.0815],[-3.12673,-2.47748],[16.1287,10.77453]],[[294.38581,403.39324],[-8.88952,17.58626],[1.64307,-5.62789]],[[295.44087,384.2531],[0.84585,5.82225],[0,0]],[294.87967,383.41758]],&quot;closed&quot;:true}]}" fill="#3a302d" stroke="none" stroke-width="0.5"/><path d="M226.02868,191.78699c2.21925,-0.0552 4.06805,1.899 4.12938,4.36484c0.06134,2.46585 -1.68801,4.50955 -3.90726,4.56475c-2.21925,0.0552 -4.06804,-1.899 -4.12937,-4.36485c-0.06134,-2.46585 1.68801,-4.50954 3.90726,-4.56474z" fill="#000000" stroke="#d67025" stroke-width="1"/><path d="M220.90652,174.20799l0.27091,0.17235c1.86351,0.22357 4.31391,0.08034 6.09569,-0.4883c5.53799,-2.9745 6.91885,-10.0217 3.35476,-15.07991c-0.81491,-0.9775 -1.65697,-1.16229 -2.73592,-1.75514c-1.12199,-0.6165 -2.5107,-1.23145 -3.84171,-1.20076c-3.19554,0.07367 -5.21372,3.69687 -6.93921,5.88302c-0.40017,1.39072 -1.03681,2.64935 -1.21284,4.09949c-0.44342,3.65307 2.05099,6.45082 4.8982,8.32989c0.06827,0.01975 0.11011,0.03937 0.11011,0.03937zM220.27268,175.72877c-3.51916,-2.2256 -6.46653,-5.63665 -5.95914,-10.07191c0.18724,-1.63678 0.88052,-3.09056 1.37784,-4.64478c2.61963,-3.5411 5.45148,-7.682 10.46589,-6.38904c0.9449,0.24364 1.65544,0.56875 2.50072,1.03491c1.27394,0.70256 2.25204,1.02302 3.23362,2.181c4.16033,5.92619 2.49948,14.09927 -4.00348,17.52484c-2.07135,0.63919 -4.73679,0.85013 -6.89696,0.60075l-0.25162,-0.10316c-0.25834,-0.00094 -0.46688,-0.13257 -0.46688,-0.13257z" fill="url(#color-3)" stroke="none" stroke-width="0.5"/><path d="M220.78513,174.19846c-2.84721,-1.87906 -5.36213,-4.70404 -4.91871,-8.3571c0.17603,-1.45014 0.81573,-2.72523 1.21589,-4.11595c1.72547,-2.18614 3.77187,-5.82739 6.96741,-5.90107c1.33102,-0.03069 2.73347,0.58712 3.85546,1.20362c1.07895,0.59286 1.9305,0.78426 2.74541,1.76177c3.56409,5.0582 2.17109,12.15792 -3.36689,15.13242c-1.78178,0.56864 -4.2527,0.71208 -6.1162,0.48852l-0.27188,-0.17268c0,0 -0.0422,-0.01977 -0.11048,-0.03952z" data-paper-data="{&quot;noHover&quot;:false,&quot;origItem&quot;:[&quot;Path&quot;,{&quot;applyMatrix&quot;:true,&quot;segments&quot;:[[[294.74768,383.07558],[0.0672,0.2124],[-6.11033,-8.77583]],[[268.2625,368.37538],[11.41306,-1.67428],[-4.53059,0.66463]],[[255.51046,372.4956],[4.32693,-1.36241],[-6.71623,5.57754]],[[237.61574,394.69955],[-0.01819,-10.01961],[0.00758,4.17341]],[[241.67802,406.64473],[-2.0194,-3.46793],[1.94194,3.3349]],[[247.39137,415.0815],[-3.12673,-2.47748],[16.1287,10.77453]],[[294.38581,403.39324],[-8.88952,17.58626],[1.64307,-5.62789]],[[295.44087,384.2531],[0.84585,5.82225],[0,0]],[294.87967,383.41758]],&quot;closed&quot;:true}]}" fill="#3a302d" stroke="none" stroke-width="0.5"/><path d="M220.71213,165.35306c-0.06134,-2.46585 1.68801,-4.50955 3.90726,-4.56475c2.21925,-0.0552 4.06804,1.899 4.12937,4.36485c0.06134,2.46585 -1.688,4.50955 -3.90726,4.56475c-2.21925,0.0552 -4.06804,-1.899 -4.12937,-4.36485z" fill="#000000" stroke="#d47027" stroke-width="1"/><path d="M249.07314,172.48622l0.27092,0.17235c1.86351,0.22357 4.31391,0.08034 6.09568,-0.4883c5.53799,-2.9745 6.91885,-10.0217 3.35476,-15.07991c-0.81491,-0.9775 -1.65697,-1.16229 -2.73592,-1.75514c-1.12199,-0.6165 -2.5107,-1.23145 -3.84171,-1.20076c-3.19554,0.07367 -5.21372,3.69687 -6.93921,5.88301c-0.40017,1.39072 -1.03681,2.64935 -1.21284,4.09949c-0.44342,3.65307 2.05099,6.45083 4.8982,8.32989c0.06827,0.01975 0.11011,0.03937 0.11011,0.03937zM248.43931,174.00698c-3.51916,-2.2256 -6.46653,-5.63665 -5.95914,-10.07192c0.18724,-1.63678 0.88051,-3.09055 1.37784,-4.64478c2.61963,-3.5411 5.45148,-7.682 10.46589,-6.38905c0.9449,0.24364 1.65545,0.56875 2.50073,1.03491c1.27394,0.70256 2.25205,1.02302 3.23363,2.181c4.16033,5.92619 2.49948,14.09927 -4.00348,17.52484c-2.07135,0.63919 -4.73679,0.85013 -6.89696,0.60075l-0.25162,-0.10316c-0.25834,-0.00094 -0.46687,-0.13257 -0.46687,-0.13257z" fill="url(#color-4)" stroke="none" stroke-width="0.5"/><path d="M248.95174,172.47669c-2.84721,-1.87906 -5.36213,-4.70404 -4.91871,-8.3571c0.17603,-1.45014 0.81573,-2.72522 1.21589,-4.11595c1.72547,-2.18614 3.77187,-5.82739 6.96742,-5.90108c1.33102,-0.03069 2.73347,0.58712 3.85546,1.20363c1.07895,0.59286 1.9305,0.78426 2.74541,1.76176c3.56409,5.0582 2.17109,12.15792 -3.36689,15.13242c-1.78178,0.56864 -4.2527,0.71208 -6.1162,0.48852l-0.27189,-0.17267c0,0 -0.0422,-0.01978 -0.11047,-0.03953z" data-paper-data="{&quot;noHover&quot;:false,&quot;origItem&quot;:[&quot;Path&quot;,{&quot;applyMatrix&quot;:true,&quot;segments&quot;:[[[294.74768,383.07558],[0.0672,0.2124],[-6.11033,-8.77583]],[[268.2625,368.37538],[11.41306,-1.67428],[-4.53059,0.66463]],[[255.51046,372.4956],[4.32693,-1.36241],[-6.71623,5.57754]],[[237.61574,394.69955],[-0.01819,-10.01961],[0.00758,4.17341]],[[241.67802,406.64473],[-2.0194,-3.46793],[1.94194,3.3349]],[[247.39137,415.0815],[-3.12673,-2.47748],[16.1287,10.77453]],[[294.38581,403.39324],[-8.88952,17.58626],[1.64307,-5.62789]],[[295.44087,384.2531],[0.84585,5.82225],[0,0]],[294.87967,383.41758]],&quot;closed&quot;:true}]}" fill="#3a302d" stroke="none" stroke-width="0.5"/><path d="M248.87876,163.63128c-0.06134,-2.46585 1.688,-4.50955 3.90726,-4.56475c2.21925,-0.0552 4.06804,1.899 4.12937,4.36485c0.06134,2.46585 -1.68801,4.50955 -3.90726,4.56475c-2.21925,0.0552 -4.06804,-1.899 -4.12937,-4.36485z" fill="#000000" stroke="#d47027" stroke-width="1"/><path d="M248.45072,187.77267c-2.75026,2.01828 -5.10249,4.93661 -4.478,8.56311c0.2479,1.43959 0.94633,2.66501 1.41515,4.03413c1.83203,2.09765 4.02785,5.61603 7.22311,5.53074c1.3309,-0.03553 2.68731,-0.71875 3.77727,-1.39028c1.04814,-0.64577 1.87997,-0.87219 2.64528,-1.88899c3.3082,-5.22914 1.57869,-12.19898 -4.10034,-14.89447c-1.80785,-0.47935 -4.26234,-0.50058 -6.11242,-0.18464l-0.26202,0.1856c0,0 -0.04081,0.02169 -0.10802,0.0448zM248.3098,186.08487l0.24618,-0.11555c2.14511,-0.35647 4.81774,-0.27833 6.9183,0.25711c6.66523,3.09803 8.73037,11.17844 4.86981,17.30413c-0.92279,1.20535 -1.88376,1.57404 -3.1212,2.33907c-0.82105,0.5076 -1.51456,0.86764 -2.44618,1.15796c-4.94394,1.54065 -7.97816,-2.45434 -10.7706,-5.86081c-0.57398,-1.52758 -1.33867,-2.94509 -1.60706,-4.57053c-0.72727,-4.40455 2.04687,-7.95792 5.45103,-10.35573c0,0 0.20172,-0.14186 0.45971,-0.15563z" fill="url(#color-5)" stroke="none" stroke-width="0.5"/><path d="M248.54635,187.69847l0.26297,-0.18599c1.85009,-0.31594 4.32508,-0.29552 6.13293,0.18383c5.67902,2.69549 7.42327,9.71717 4.11507,14.94632c-0.7653,1.0168 -1.60628,1.25032 -2.65442,1.89608c-1.08995,0.67152 -2.45996,1.35829 -3.79085,1.39382c-3.19525,0.08529 -5.42016,-3.44971 -7.25218,-5.54737c-0.46882,-1.36911 -1.17111,-2.61082 -1.41902,-4.05041c-0.62449,-3.6265 1.74687,-6.57303 4.49714,-8.59131c0.06721,-0.02312 0.10838,-0.04496 0.10838,-0.04496z" data-paper-data="{&quot;noHover&quot;:false,&quot;origItem&quot;:[&quot;Path&quot;,{&quot;applyMatrix&quot;:true,&quot;segments&quot;:[[[294.74768,383.07558],[0.0672,0.2124],[-6.11033,-8.77583]],[[268.2625,368.37538],[11.41306,-1.67428],[-4.53059,0.66463]],[[255.51046,372.4956],[4.32693,-1.36241],[-6.71623,5.57754]],[[237.61574,394.69955],[-0.01819,-10.01961],[0.00758,4.17341]],[[241.67802,406.64473],[-2.0194,-3.46793],[1.94194,3.3349]],[[247.39137,415.0815],[-3.12673,-2.47748],[16.1287,10.77453]],[[294.38581,403.39324],[-8.88952,17.58626],[1.64307,-5.62789]],[[295.44087,384.2531],[0.84585,5.82225],[0,0]],[294.87967,383.41758]],&quot;closed&quot;:true}]}" fill="#3a302d" stroke="none" stroke-width="0.5"/><path d="M252.71211,192.01679c2.21925,-0.0552 4.06804,1.899 4.12937,4.36484c0.06134,2.46585 -1.688,4.50955 -3.90726,4.56475c-2.21925,0.0552 -4.06804,-1.899 -4.12937,-4.36485c-0.06134,-2.46585 1.68801,-4.50954 3.90726,-4.56474z" fill="#000000" stroke="#cf722b" stroke-width="1"/><path d="M231.2809,185.10358c-0.39245,0.6557 -1.23665,0.53649 -1.23665,0.53649l-0.99875,-0.15821c-3.46561,0.0862 -6.93116,0.18735 -10.39742,0.24248c-0.69557,-0.30836 -1.65393,-0.29931 -2.08674,-0.9251c-0.40686,-0.58829 -0.02231,-1.43039 -0.0369,-2.14552c-0.0436,-2.13506 -0.43596,-5.91541 1.67708,-7.25743c0.29916,-0.19 2.82969,-0.21834 3.38509,-0.23216c2.03339,-0.05058 5.58736,-0.51099 7.47668,0.30461c2.78209,1.201 0.52767,5.43297 2.37318,8.00966c0,0 0.64502,0.91727 -0.15559,1.62517z" fill="#7f8a8f" stroke="none" stroke-width="0.5"/><path d="M226.17177,182.55241c-0.69015,0.01717 -1.26353,-0.52838 -1.2807,-1.21853c-0.01717,-0.69015 0.52838,-1.26353 1.21853,-1.2807c0.69015,-0.01717 1.26353,0.52838 1.2807,1.21853c0.01717,0.69015 -0.52838,1.26353 -1.21853,1.2807z" fill="#7f8a8f" stroke="none" stroke-width="0.5"/><path d="M231.94631,174.37542c0.8049,0.95637 -0.15147,1.76126 -0.15147,1.76126l-0.87911,0.72989c-1.68681,2.0245 0.12496,5.5726 0.89374,7.70099c0,0 0.42465,1.17565 -0.75101,1.60031c-1.17565,0.42465 -1.60031,-0.75101 -1.60031,-0.75101c-1.2454,-3.44794 -2.72406,-7.01568 -0.3536,-10.27355l1.08048,-0.91935c0,0 0.95637,-0.8049 1.76126,0.15147z" fill="#a1afb5" stroke="none" stroke-width="0.5"/></g></g></svg>