<svg version="1.1" xmlns="http://www.w3.org/2000/svg" xmlns:xlink="http://www.w3.org/1999/xlink" width="136.56104" height="170.90433" viewBox="0,0,136.56104,170.90433"><defs><linearGradient x1="214.73738" y1="94.5793" x2="214.73738" y2="119.02174" gradientUnits="userSpaceOnUse" id="color-1"><stop offset="0" stop-color="#ff6d00"/><stop offset="1" stop-color="#ff3800"/></linearGradient></defs><g transform="translate(-176.18702,-94.57929)"><g data-paper-data="{&quot;isPaintingLayer&quot;:true}" fill-rule="nonzero" stroke="none" stroke-linecap="butt" stroke-linejoin="miter" stroke-miterlimit="10" stroke-dasharray="" stroke-dashoffset="0" style="mix-blend-mode: normal"><path d="M236.75154,110.77608c-0.56027,-0.29939 -1.5456,0.17951 -1.87016,-0.36658c-0.51848,-0.87238 -0.104,-2.01964 -0.15562,-3.03315c-1.37554,-0.89704 -2.54946,-2.22408 -4.1262,-2.68308c-5.17667,-1.50695 -10.04153,2.20458 -11.87849,6.62004c-0.12366,0.29725 0.20805,-0.73741 0.06571,-1.02618c-0.50145,-1.01726 -1.05259,-2.1071 -1.98331,-2.75518c-1.37571,-0.95795 -2.91814,-1.60437 -4.58045,-1.82111c-1.6961,-0.22115 -3.53866,-0.1446 -5.09404,0.56706c-0.67641,0.30949 -0.09337,1.75972 -0.76236,2.08495c-0.46574,0.22642 -0.29616,-1.16635 -0.76042,-1.39579c-2.53123,-1.25096 -8.55092,-1.89556 -11.10283,-0.11615c-2.61587,1.82402 -3.64036,4.77988 -2.35924,7.75031c0.23321,0.54073 2.13518,0.27665 1.60263,0.52798c-0.7313,0.34512 -2.00153,-0.92609 -2.32753,-0.18607c-0.90507,2.05449 -1.18051,3.29792 -0.89341,4.07862c-5.14291,-0.71716 -12.62546,-1.72751 -12.32814,-7.79921c0.08787,-1.42382 -0.21652,-2.46261 0.91837,-3.47276c0.76278,-0.67894 1.79008,-1.02707 2.52796,-1.73299c0.96886,-0.9269 2.01763,-1.8893 2.54103,-3.12375c0.05863,-0.13828 -0.03484,-3.88667 0.45017,-4.71318c0.50114,-0.854 3.04612,-0.37406 3.17902,-0.36071c2.74006,0.27528 5.40364,2.06156 8.11237,1.56512c1.49736,-0.27443 2.75816,-1.47499 3.73819,-2.63987c0.45297,-0.5384 -0.13705,-1.51089 0.2467,-2.10063c0.17102,-0.26283 0.52351,0.35556 0.81644,0.46744c0.72087,0.27533 1.48583,0.42548 2.21214,0.6861c3.28276,1.17798 6.78428,3.96936 9.98449,4.82048c1.54919,0.41202 3.42743,0.71059 4.84491,-0.03806c1.04101,-0.54982 0.71428,-2.28669 1.40381,-3.24092c0.99455,-1.37635 2.27134,-0.9412 3.62614,-0.87273c4.77958,-0.00357 8.32253,0.17592 12.44649,3.02372c2.57932,1.78115 3.14575,6.16008 6.11579,7.16224c1.15183,0.38865 1.51006,-1.91391 2.60551,-2.44093c0.52715,-0.25361 1.24257,0.26884 1.82642,0.3053c1.32336,0.08264 2.80593,-0.07609 3.92778,0.6307c2.52165,1.58868 1.28974,7.16105 1.07301,9.64646c-0.05677,0.65108 0.12189,1.37668 -0.18315,1.95468c-0.78561,1.48861 -5.02546,1.95607 -7.12551,2.16788c-1.00682,-3.84857 -2.99877,-6.14393 -6.73424,-8.14003z" data-paper-data="{&quot;noHover&quot;:false,&quot;origItem&quot;:[&quot;Path&quot;,{&quot;applyMatrix&quot;:true,&quot;segments&quot;:[[[497.21549,222.91051],[-2.01365,-7.69714],[4.20011,-0.42363]],[[511.27799,218.50921],[-1.57122,2.97722],[0.61008,-1.156]],[[511.64302,214.60493],[-0.11355,1.30216],[0.43345,-4.97082]],[[509.49474,195.33838],[5.0433,3.17736],[-2.24371,-1.41357]],[[501.63933,194.0796],[2.64672,0.16528],[-1.1677,-0.07292]],[[498.18582,193.45282],[1.05431,-0.50722],[-2.19091,1.05403]],[[492.77519,198.34409],[2.30366,0.7773],[-5.94007,-2.00431]],[[480.54943,184.05264],[5.15865,3.5623],[-8.24791,-5.6956]],[[455.68915,178.05047],[9.55916,-0.00715],[-2.70958,-0.13695]],[[448.45594,179.80762],[1.9891,-2.7527],[-1.37905,1.90846]],[[445.64696,186.28881],[2.08202,-1.09964],[-2.83497,1.49732]],[[436.02904,186.371],[3.09838,0.82404],[-6.40042,-1.70223]],[[416.10505,176.7023],[6.56552,2.35596],[-1.45262,-0.52125]],[[411.68442,175.32595],[1.44173,0.55066],[-0.58586,-0.22376]],[[410.0521,174.39041],[0.34204,-0.52565],[-0.76749,1.17948]],[[409.56456,178.58377],[0.90593,-1.0768],[-1.96006,2.32975]],[[402.09804,183.84469],[2.99472,-0.54886],[-5.41747,0.99288]],[[385.87513,180.70941],[5.48011,0.55056],[-0.2658,-0.0267]],[[379.51837,181.42671],[1.00228,-1.708],[-0.97002,1.65303]],[[378.62109,190.83824],[0.11726,-0.27656],[-1.04681,2.46891]],[[373.5398,197.07542],[1.93772,-1.85379],[-1.47576,1.41184]],[[368.48387,200.53637],[1.52556,-1.35788],[-2.26978,2.02029]],[[366.64643,207.47253],[0.17574,-2.84764],[-0.59464,12.14338]],[[391.29272,223.03789],[-10.28581,-1.43432],[-0.57421,-1.56141]],[[392.89585,214.95865],[-1.81014,4.10898],[0.65201,-1.48004]],[[397.73828,215.26097],[-1.4626,0.69024],[1.0651,-0.50265]],[[394.34554,214.2745],[0.46642,1.08145],[-2.56225,-5.94087]],[[399.05854,198.74148],[-5.23175,3.64804],[5.10381,-3.55882]],[[421.46418,198.97179],[-5.06247,-2.50191],[0.92852,0.45888]],[[422.78671,201.78343],[-0.93148,0.45283],[1.33797,-0.65044]],[[424.30998,197.58832],[-1.35282,0.61898],[3.11075,-1.42332]],[[434.50612,196.42122],[-3.39219,-0.44231],[3.32461,0.4335]],[[443.85305,200.13654],[-2.75142,-1.91589],[1.86145,1.29618]],[[447.80116,205.67892],[-1.00289,-2.03452],[0.28469,0.57754]],[[447.52771,207.59116],[-0.24733,0.5945],[3.67392,-8.83092]],[[471.45004,194.41281],[-10.35334,-3.0139],[3.15348,0.91799]],[[479.70327,199.79503],[-2.75108,-1.79407],[0.10324,2.02702]],[[480.01298,205.87608],[-1.03697,-1.74475],[0.64911,1.09216]],[[483.75327,206.60937],[-1.12055,-0.59878],[7.47093,3.9922]]],&quot;closed&quot;:true}]}" fill="url(#color-1)" stroke-width="0.5"/><path d="M185.71155,146.81471c0.48506,-2.19848 1.03589,-4.35742 1.76638,-6.59803c0.80471,-2.46827 1.34738,-5.24953 3.14004,-7.12738c2.08179,-2.18073 6.42484,-2.6975 9.18988,-3.4699c9.03155,-2.5229 18.04406,-5.12981 27.09831,-7.56959c2.10056,-0.56602 8.05197,-2.16161 9.64821,-1.78458c5.89507,1.3924 5.04441,6.04977 5.36089,10.45708c-1.32024,12.53344 -0.84453,25.32909 -0.07274,37.92922c0.39053,6.37577 1.79815,12.6332 2.32916,18.98339c0.66459,7.94755 0.23194,16.05513 -0.63163,23.96217c-0.9051,4.69511 -1.09123,9.53835 -1.9654,14.17837c-0.26262,1.39396 -0.18538,3.15407 -1.27761,4.05913c-1.26995,1.05233 -3.21986,0.72093 -4.84313,1.01276c-4.45607,0.8011 -4.57817,0.65665 -9.00096,1.04302c-10.80984,0.94432 -21.5391,2.0065 -32.34524,0.48462c-2.43527,-0.34297 -9.17793,-0.99091 -10.99999,-2.69333c-1.06489,-0.99496 -0.58043,-2.85769 -0.79595,-4.29903c-0.5458,-3.65024 -0.37767,-4.09871 -0.35521,-8.01559c0.28498,-2.60609 0.07644,-5.2438 0.20794,-7.86212c0.21014,-4.18409 1.1843,-8.38126 1.1706,-12.61795c-0.02458,-7.60138 -0.88529,-15.23208 -0.87056,-22.84557c0.01668,-8.62037 1.43223,-16.97855 2.35065,-25.49847c0,0 0.11596,-1.06843 0.89633,-1.72822z" fill="#1f7304" stroke-width="0.5"/><path d="M303.08769,161.33516c3.71222,13.2891 -10.18785,28.78558 -31.04668,34.61236c-20.85883,5.82678 -40.77761,-0.22263 -44.48983,-13.51172c-3.71222,-13.2891 10.18785,-28.78558 31.04668,-34.61236c20.85883,-5.82678 40.77761,0.22263 44.48983,13.51172z" fill="#2e490a" stroke-width="0"/><path d="M311.02633,162.26353c0,10.88691 -15.52737,19.7125 -34.68134,19.7125c-19.15398,0 -34.68134,-8.82558 -34.68134,-19.7125c0,-10.88691 15.52737,-19.7125 34.68134,-19.7125c19.15398,0 34.68134,8.82558 34.68134,19.7125z" fill="#161815" stroke-width="0"/><path d="M204.37839,160.6661c-0.34492,0.67454 -1.06953,1.46552 -2.54357,1.24903c-2.47347,-0.36327 -2.11019,-2.83674 -2.11019,-2.83674l0.40091,-2.71274c0.8402,-3.51394 1.28564,-7.09733 2.0569,-10.61967c1.07962,-4.93071 2.4407,-8.48865 1.91804,-13.63536c3.80173,-1.71754 5.14759,-2.59446 9.34542,-3.36762c1.38366,-0.25484 2.96891,-0.9724 4.20951,-0.30879c1.48589,0.79483 2.36162,2.53562 2.92346,4.12431c0.35869,1.01422 -0.30674,2.13494 -0.32948,3.21047c-0.11386,5.38484 -0.03515,10.92316 -0.46957,16.33462c-0.07507,0.93522 -1.09544,6.88799 -1.11047,6.90362c-1.02897,1.07071 -2.88076,0.73784 -4.34596,0.9795c-3.30262,0.5447 -6.6073,0.21031 -9.94499,0.67935z" fill="#6aa51e" stroke-width="0.5"/><path d="M196.93816,220.52677c1.49587,-0.28986 3.41112,-1.45684 4.54947,-0.44401c1.61488,1.43682 1.86174,4.03458 1.91477,6.19547c0.03024,1.23255 -1.03885,2.2423 -1.68191,3.29424c-1.37625,2.25131 -2.95712,4.61582 -4.47441,6.79002c-0.73055,1.04684 -1.196,2.38909 -2.26344,3.08919c-1.3329,0.87421 -3.93668,1.27151 -6.27651,1.6318c-0.46707,0.30838 -0.96748,0.5455 -1.51811,0.66924c-0.30562,0.06869 -0.61023,0.08897 -0.91409,0.07257l-0.00265,0.05363l-2.47377,-0.12218c-1.06842,-0.02774 -2.0395,-0.74406 -2.34207,-1.82719c-0.23717,-0.84903 -0.00623,-1.71818 0.53784,-2.33233l2.40198,-2.79231c3.23311,-5.05958 6.11011,-13.03162 12.5429,-14.27815z" fill="#67921c" stroke-width="0.5"/><path d="M225.18848,240.24232c-0.31269,0.33683 -0.77846,0.61128 -1.46909,0.72397c-2.46737,0.40259 -2.86997,-2.06478 -2.86997,-2.06478l-0.42175,-2.83783c0.05959,-2.90272 -0.20059,-5.68445 -0.54262,-8.5693c-0.18115,-1.5279 -1.15253,-3.15156 -0.57913,-4.57933c2.36599,-5.8912 10.39014,-3.06937 14.95222,-2.48572c1.08387,0.43452 2.2717,0.66847 3.25161,1.30357c2.51192,1.62802 3.47209,4.45039 5.46124,6.44498c0.69989,0.70181 1.69578,1.05923 2.39642,1.7603c2.52804,2.52961 3.69973,5.79686 4.56956,9.16855c0.80581,3.12358 2.2963,6.66688 -2.49699,8.83645c-0.36625,0.16577 -5.63833,-3.24603 -6.45131,-3.78016c-3.59063,-2.35907 -7.61358,-1.84193 -11.7506,-2.82509c-1.35989,-0.32318 -2.69592,-0.74841 -4.04958,-1.09564z" fill="#42403b" stroke-width="0.5"/><path d="M242.68386,152.66721c-0.33696,0.56675 -0.9573,1.08843 -2.09932,1.08843c-2.5,0 -2.5,-2.5 -2.5,-2.5v-2.13722c0.01795,-2.05536 0.34362,-4.12406 0.91805,-6.0976c2.94542,-8.72779 9.32826,-15.94492 18.58474,-18.22839c7.41027,-1.82803 14.71194,0.71424 21.78368,2.39298c5.06905,1.20333 10.65425,2.35841 15.11249,5.08624c7.78896,4.33635 15.72717,9.90615 17.48661,19.34168c1.18247,6.34139 1.56408,15.60141 -2.92257,20.71868c-2.58654,2.95009 -3.09725,4.12299 -7.47849,2.58937c-1.13371,-0.39685 -1.873,-1.50479 -2.78868,-2.28217c-3.21626,-2.73052 -4.81569,-6.1686 -7.2997,-9.46462c-2.67814,-3.57597 -5.4785,-8.07741 -9.23883,-10.61893c-3.93836,-2.66184 -9.4078,-2.00583 -13.87348,-2.00583c-8.75472,0 -17.02733,1.90179 -25.68451,2.11739z" fill="#4d7805" stroke-width="0.5"/><path d="M234.98119,166.03973c0.44846,0.20555 0.87955,0.59777 1.18922,1.30199c1.00636,2.2885 -1.28213,3.29487 -1.28213,3.29487l-2.06299,0.87975c-3.54375,0.94621 -3.90887,0.8693 -2.81692,4.46304c0.35763,1.06284 0.53161,2.82133 1.85972,3.35053c3.21296,1.28023 7.33791,-4.47445 9.56975,1.86966c3.03215,8.61905 -10.10165,6.02163 -13.34955,4.71926c-1.3484,-0.54069 -2.84207,-1.00487 -3.84076,-2.05992c-2.42359,-2.56033 -3.32123,-9.38548 -2.8166,-12.69394c0.20215,-1.3253 0.06642,-2.8782 0.91441,-3.91656c2.13409,-2.61313 7.45625,-2.44446 10.38993,-2.47115c0,0 1.59685,-0.00981 2.24592,1.26247z" fill="#2e490a" stroke-width="0.5"/><path d="M235.03085,181.49739c-2.40782,0.67261 -3.08043,-1.73521 -3.08043,-1.73521c-0.23959,-0.85768 -1.19793,-4.28837 -1.43751,-5.14603c0,0 -0.67261,-2.40782 1.73521,-3.08043c2.40782,-0.67261 3.08043,1.73521 3.08043,1.73521c0.23959,0.85768 0.47917,1.71534 0.71876,2.57302l0.71876,2.57302c0,0 0.67261,2.40782 -1.73521,3.08043z" fill="#2e490a" stroke-width="0.5"/><path d="M297.51058,188.34557c2.23607,1.11803 1.11803,3.3541 1.11803,3.3541l-1.18468,2.34418c-0.44525,0.71241 -0.89051,1.42481 -1.33576,2.13722c0,0 -1.325,2.12 -3.44499,0.795c-2.12,-1.325 -0.795,-3.44499 -0.795,-3.44499c0.44525,-0.71241 0.89051,-1.42481 1.33576,-2.13722l0.95254,-1.93025c0,0 1.11803,-2.23607 3.3541,-1.11803z" fill="#c0692d" stroke-width="0.5"/><path d="M285.35077,198.82214c-0.00468,-0.07295 -0.00709,-0.14823 -0.00709,-0.22593c0,-2.5 2.5,-2.5 2.5,-2.5l2.17803,0.01027c1.80549,-0.14573 4.48824,-0.07933 5.56031,-1.99806c0.97545,-1.74581 -0.49773,-7.68409 0.27209,-8.38711c1.30619,-1.19283 3.5685,-0.54008 5.30315,-0.19369c6.62338,1.32264 4.84466,9.41747 1.64798,13.12367c-4.18645,4.85374 -9.73877,4.31498 -15.49587,4.31498c0,0 -2.5,0 -2.5,-2.5c0,-0.75111 0.22567,-1.27655 0.5414,-1.64413z" fill="#2e490a" stroke-width="0.5"/><path d="M236.75038,205.88194c-0.26592,-1.476 -1.27234,-3.1936 -0.48913,-4.47261c2.20454,-3.60009 9.59944,-2.28305 11.81124,0.31651c0.7848,0.92239 0.79853,2.2872 1.15944,3.44325c0.21838,0.6995 1.61323,5.80288 1.60156,6.07047c-0.23522,5.39308 -4.99172,7.97474 -9.26605,10.00352c0,0 -2.26448,1.0593 -3.32378,-1.20519c-1.0593,-2.26448 1.20519,-3.32378 1.20519,-3.32378c0.03966,-0.01822 0.08065,-0.03694 0.12288,-0.05616l0.73605,-1.53772c-1.16605,-3.00752 -2.99312,-6.10639 -3.55738,-9.2383z" fill="#8f4818" stroke-width="0.5"/><path d="M240.7647,213.61142c0.36659,-3.72753 0.47753,-7.55016 -0.23838,-11.24638c-0.5222,-2.69613 -2.92167,-3.99365 -3.56458,-6.70641l-1.2891,-2.57821c-0.18291,-0.34741 -0.28642,-0.74312 -0.28642,-1.16302c0,-1.38071 1.11929,-2.5 2.5,-2.5c0.50054,0 0.96673,0.1471 1.35768,0.40043l1.99282,1.24551c5.63529,2.50255 11.91166,4.20532 17.83151,5.99373c2.30315,1.04496 4.88186,2.3148 7.39185,2.83455c2.15131,0.44548 4.11883,-0.10109 6.10213,1.36703c1.29535,0.95887 2.91421,2.12958 3.07204,3.73346c0.39946,4.05915 -2.92246,4.70505 -5.4335,5.59327c-4.02978,1.42545 -7.83427,0.66337 -12.01096,0.6626c-1.44956,-0.00027 -3.01275,-0.50291 -4.34824,0.0607c-1.05404,0.44483 -2.47437,3.25248 -2.9188,3.69892c-2.9881,3.0017 -3.91187,2.35293 -8.35109,3.15232c0,0 -2.46598,0.411 -2.87698,-2.05499c-0.22921,-1.37528 0.4364,-2.1114 1.07004,-2.49352z" fill="#487200" stroke-width="0.5"/><path d="M239.08654,162.11032c-0.6862,0.07456 -1.53227,-0.11225 -2.21184,-1.1316c-1.38675,-2.08013 0.69338,-3.46688 0.69338,-3.46688l1.66467,-1.10848c8.49852,-5.21978 19.68273,-5.2123 29.33334,-5.17864c4.32249,0.77306 9.1355,1.51676 13.24974,3.10326c6.57071,2.53374 11.16117,8.47008 16.24078,13.01574c3.07586,2.75254 9.30215,5.72379 4.82401,10.93084c-0.93973,1.09269 -2.79719,0.72581 -4.2263,0.91205c-5.58278,0.72755 -11.82411,0.01261 -17.44679,-0.007c-1.69144,-0.73326 -4.30372,-0.52503 -5.07432,-2.19979c-0.21269,-0.46224 2.58849,-4.63343 2.84394,-6.10593c0.69398,-4.00027 0.3374,-10.11909 -4.02474,-11.87666c-2.91513,-1.17455 -6.49939,0.77114 -9.23295,1.42272c-2.42891,0.57896 -2.86422,0.20276 -4.96908,1.35142c-0.53529,0.29212 -2.29039,1.61519 -2.59324,2.35129c-0.55743,1.3549 0.79703,1.66319 1.14454,2.79528c0.01178,0.03837 0.02338,0.07679 0.03481,0.11524l0.02077,-0.01039l1.31327,2.62654c0.18291,0.34741 0.28642,0.74312 0.28642,1.16302c0,1.38071 -1.11929,2.5 -2.5,2.5c-0.27016,0 -0.53031,-0.04285 -0.77403,-0.12213l-2.61586,-0.78476l0.00329,-0.01095l-0.03947,-0.0002c-2.52714,-0.84207 -5.64701,-1.48116 -7.87389,-2.99415c-2.88336,-1.95902 -5.36285,-4.98631 -8.07042,-7.28984z" fill="#161815" stroke-width="0.5"/><path d="M308.40854,174.487c-0.79057,2.37171 -3.16228,1.58114 -3.16228,1.58114l-2.40437,-0.80146c-7.10557,-2.45568 -10.45273,-8.68026 -16.41534,-12.61986c-3.84134,-2.88642 -8.90786,-7.20514 -13.76131,-8.14268c-6.29421,-1.21586 -12.76476,1.49875 -18.88743,2.42981c-4.96769,0.75542 -9.77018,0.82898 -14.79619,0.82898c0,0 -2.5,0 -2.5,-2.5c0,-2.5 2.5,-2.5 2.5,-2.5c4.78854,0 9.32503,-0.07492 14.05625,-0.77393c6.77894,-1.00154 13.67618,-3.8079 20.6511,-2.37893c5.63009,1.15345 11.13158,5.59073 15.62544,8.95506c5.40884,3.63451 8.64526,9.91178 15.10862,11.95814l2.40437,0.80146c0,0 2.37171,0.79057 1.58114,3.16228z" fill="#3b6209" stroke-width="0.5"/><path d="M236.72198,184.70429v-0.26715c0.00299,-2.69208 0.27043,-5.32395 0.26715,-8.01457c0,0 0,-2.5 2.5,-2.5c2.5,0 2.5,2.5 2.5,2.5c-0.00299,2.69208 -0.27043,5.32395 -0.26715,8.01457v0.26715c0,0 0,0.11313 -0.02407,0.29127c3.35397,3.749 7.42629,5.81204 11.85611,7.26887c0.01063,-0.09751 0.02618,-0.19848 0.04709,-0.30301c0.2306,-1.15298 0.89502,-1.65523 1.53417,-1.86381c0.10839,-0.61552 0.33457,-1.26938 0.6985,-1.95815c2.41584,-4.57226 12.59055,-2.80683 14.55033,1.21833c0.58592,1.20342 -0.09815,2.68794 -0.37153,3.9982c-0.24063,1.15333 -0.1672,2.63005 -0.69943,3.63509c4.79061,1.7776 9.80195,3.2384 14.24587,0.29986c1.21215,-0.80153 2.26428,-1.81899 3.37887,-2.75432c0.04296,-0.60638 0.27263,-1.06571 0.27263,-1.06571l0.50322,-0.91627c1.80324,-2.36317 7.58698,-8.98594 10.497,-2.28469c1.87051,4.30745 -5.40378,6.63534 -7.71698,7.78138c-2.4014,1.81437 -4.23252,3.69153 -7.12453,4.75922c-8.11606,2.99632 -14.58522,-1.58502 -22.2773,-3.38327c-8.82212,-2.06243 -16.97088,-4.20003 -23.20418,-11.19199c0,0 -0.78297,-0.88084 -0.66897,-1.97055c-0.49681,-0.70908 -0.49681,-1.56043 -0.49681,-1.56043zM259.924,190.73894c0.65378,0.15902 1.30448,0.3296 1.95029,0.51624c-0.06421,-0.20557 -0.10059,-0.43088 -0.09396,-0.67476c-0.27501,-0.00958 -0.55053,-0.00536 -0.82623,0.01693c-0.23191,0.01874 -0.72246,0.08848 -1.0301,0.1416z" fill="#e7a043" stroke-width="0.5"/><path d="M269.66011,204.19564c-1.325,2.12 -3.44499,0.795 -3.44499,0.795l-2.16824,-1.35547c-2.06806,-1.37871 -4.45247,-3.3511 -6.75858,-4.31007c-0.19896,-0.08273 -0.40351,-0.14086 -0.61223,-0.18097c-1.56343,0.13878 -3.16129,0.34917 -4.36363,0.34917c0,0 -0.89366,0 -1.61237,-0.5343c-0.30899,0 -0.52485,0 -0.52485,0c-1.38071,0 -2.5,-1.11929 -2.5,-2.5c0,-1.1246 0.74256,-2.07576 1.76412,-2.38994l2.34968,-0.78323c3.47048,-1.1341 9.12613,-2.17032 12.65154,-0.49198c2.3078,1.09867 6.01506,4.38052 3.85312,7.59974l0.57143,0.35706c0,0 2.12,1.325 0.795,3.44499z" fill="#83400b" stroke-width="0.5"/><path d="M241.96182,188.44955c-1.76687,-0.43342 -1.76687,-2.417 -1.76687,-2.417v-0.5343c0,-2.6888 -0.99396,-8.91778 2.39515,-10.3445c1.4462,-0.60881 3.01433,0.88642 4.47702,1.45445c2.60516,1.0117 5.04102,2.43348 7.48698,3.74369c0.8798,0.47127 2.00217,0.56462 2.71445,1.26377c1.21867,1.19619 2.82317,2.52645 2.88555,4.23295c0.05363,1.46721 -1.63159,2.45192 -2.60091,3.55464c-3.15481,3.58893 -5.88027,3.72428 -10.04784,1.82888c-0.02116,-0.00963 -5.34018,-2.66937 -5.39411,-2.69634c0,0 -0.05748,-0.02874 -0.1494,-0.08622z" fill="#f5fdf5" stroke-width="0.5"/><path d="M267.32895,198.21692c-1.27532,-1.17682 -0.42199,-2.88346 -0.42199,-2.88346l0.39866,-0.74114c0.52014,-1.55826 1.71177,-5.55626 2.8402,-6.35549c1.1141,-0.78908 2.71062,-0.343 4.07309,-0.42983c2.80394,-0.17869 5.74027,-0.05629 8.54887,0c1.15459,0.02314 2.44963,-0.42717 3.46209,0.12829c1.59643,0.87584 3.66254,2.06873 3.84488,3.88048c0.16565,1.64598 -1.92167,2.70707 -3.0612,3.9063c-4.75923,5.00862 -11.08559,4.03088 -17.33623,4.03088c0,0 -1.80681,0 -2.34838,-1.53603z" fill="#f5fdf5" stroke-width="0.5"/><path d="M248.74382,187.36831c0,-2.56106 2.07615,-4.63722 4.63722,-4.63722c2.56106,0 4.63722,2.07615 4.63722,4.63722c0,2.56106 -2.07615,4.63722 -4.63722,4.63722c-2.56106,0 -4.63722,-2.07615 -4.63722,-4.63722z" fill="#5c2e10" stroke-width="0.5"/><path d="M267.90289,194.23838c0,-2.56107 2.07615,-4.63722 4.63722,-4.63722c2.56107,0 4.63722,2.07616 4.63722,4.63722c0,2.56107 -2.07615,4.63721 -4.63722,4.63721c-2.56107,0 -4.63722,-2.07615 -4.63722,-4.63721z" fill="#5c2e10" stroke-width="0.5"/><path d="M261.30462,185.41457c-0.02434,-0.01733 -0.04876,-0.03517 -0.07325,-0.05354c-2,-1.5 -0.5,-3.5 -0.5,-3.5c1.33888,-1.18993 0.78358,-1.97855 -0.32475,-2.51328c-1.0776,-0.25831 -2.15118,-0.55497 -3.22068,-0.89558c-6.54283,-1.03208 -18.35521,1.3676 -19.60721,-7.39156c-0.5838,-4.08433 -0.54875,-6.41972 4.81328,-6.48514c2.47217,-0.03016 4.10586,2.42685 5.68109,3.80646c2.00983,1.76025 4.54693,2.72039 6.90922,3.90219c9.90317,4.40047 20.37181,3.76816 30.9913,3.76816c4.29034,0 8.41651,-0.06419 12.64783,0.56019c1.09963,0.16226 2.28164,-0.05492 3.31597,0.3521c3.45765,1.36061 5.91453,3.27401 3.82292,7.66427c-1.57368,3.30314 -7.69794,3.34569 -10.5697,3.33712c-5.43618,-1.75337 -10.01235,-3.51332 -15.70316,-4.26561c-1.85446,-0.24515 -5.6648,-0.83265 -7.56665,-0.14716c-1.18958,0.42876 -2.83735,3.27424 -3.41983,3.58835c-1.08442,0.58479 -2.43386,0.38476 -3.6508,0.57715l-1.05022,0.01241c0,0 -2.37613,0 -2.49536,-2.31652zM267.79278,180.57821c-0.25976,-0.02687 -0.5193,-0.05518 -0.77863,-0.085c0.01363,0.50004 -0.11644,0.94794 -0.34996,1.41438c0.3909,-0.38073 0.71746,-0.85223 1.12859,-1.32937z" fill="#3c3a40" stroke-width="0.5"/><path d="M269.1842,189.32048c-1.95217,-1.56174 -0.39043,-3.51391 -0.39043,-3.51391l1.69578,-1.89402c5.82959,-3.40332 12.0519,-0.56789 18.34733,-0.10549c0,0 2.49264,0.19174 2.30089,2.68438c-0.19174,2.49264 -2.68438,2.30089 -2.68438,2.30089c-4.38285,-0.35043 -11.44948,-3.34906 -15.31385,-0.63979l-0.44143,0.7775c0,0 -1.56174,1.95217 -3.51391,0.39043z" fill="#f7d326" stroke-width="0.5"/><path d="M263.57991,184.65278c-0.49029,2.45145 -2.94174,1.96116 -2.94174,1.96116l-2.17047,-0.59861c-4.72642,-2.97342 -7.92658,-5.49259 -13.59151,-6.6145c0,0 -2.45145,-0.49029 -1.96116,-2.94174c0.49029,-2.45145 2.94174,-1.96116 2.94174,-1.96116c2.90594,0.58626 5.92773,1.31597 8.61998,2.60873c2.47863,1.19018 4.32107,3.22989 6.64095,4.66869l0.50105,-0.0643c0,0 2.45145,0.49029 1.96116,2.94174z" fill="#f7d326" stroke-width="0.5"/><path d="M260.35966,161.19828c0,0 0.79057,-2.37171 3.16228,-1.58114c2.37171,0.79057 1.58114,3.16228 1.58114,3.16228c-0.92897,2.76815 -2.00438,5.10239 -0.36182,7.60677c2.79602,0.14933 5.58948,0.32305 8.40905,0.32305h1.02805c0.34572,-0.16397 0.61887,-0.2186 0.61887,-0.2186c3.32975,-0.42996 3.60837,-2.99579 1.62827,-4.9855c-0.7231,-0.13754 -2.03506,-0.63663 -2.03506,-2.44768c0,-2.5 2.5,-2.5 2.5,-2.5l2.18057,0.61856c0.88489,0.83305 2.06165,1.43834 2.65467,2.49916c2.01915,3.61201 0.96333,8.63367 -2.51428,10.89631c-0.68902,0.4483 -1.53229,0.53771 -2.36819,0.64425c-0.70812,0.49349 -1.55568,0.49349 -1.55568,0.49349h-2.13722c-4.92603,0 -9.77686,-0.53852 -14.69337,-0.5343c0,0 -2.5,0 -2.5,-2.5c0,-2.5 2.5,-2.5 2.5,-2.5c0.28895,0.00023 0.57764,0.00228 0.86611,0.00593c-0.77197,-2.92108 -0.08175,-5.6073 1.03662,-8.98259z" fill="#f7d326" stroke-width="0.5"/><path d="M264.06713,165.55746c-2.5,0 -2.5,-2.5 -2.5,-2.5l0.38,-2.39361c0.74795,-0.99961 1.14557,-2.40514 2.24384,-2.99883c1.14245,-0.61757 2.58596,-0.25755 3.88344,-0.31339c2.8998,-0.12481 9.01988,-0.14212 10.42441,3.34924c3.07846,7.65241 -1.3588,5.84053 -5.52028,5.65578c-0.51976,1.60741 -1.28744,3.90609 -1.46381,4.43733c0,0 -0.79057,2.37171 -3.16228,1.58114c-2.37171,-0.79057 -1.58114,-3.16228 -1.58114,-3.16228c0.28078,-0.83927 0.44604,-1.72651 0.84234,-2.51781c0.05302,-0.10588 0.14963,-0.22031 0.25746,-0.33612h-1.39961c-0.74521,0 -1.41427,-0.32606 -1.87229,-0.84329c-0.16341,0.02714 -0.3404,0.04184 -0.53208,0.04184z" fill="#f4f6e9" stroke-width="0.5"/><path d="M263.33583,215.47461c-0.9452,-1.5566 0.45855,-2.96036 0.45855,-2.96036l0.53492,-0.49939c2.28099,-1.69834 4.92395,-2.7044 7.12814,-4.47494c0.97118,-0.78011 1.57352,-2.15164 2.76548,-2.51356c7.95766,-2.41624 8.99077,6.79345 7.36292,12.09655c-1.83986,5.99376 -10.9809,9.44564 -16.07318,4.9125c-2.47802,-2.20593 -2.15067,-3.88531 -2.17682,-6.5608z" fill="#5a3411" stroke-width="0.5"/><path d="M187.49554,161.60589c-2.08509,0.51441 -2.67144,-1.58462 -2.67144,-1.58462l-0.77442,-2.99562c0.6178,-3.60043 1.63685,-7.10719 2.00966,-10.69578c1.12371,-4.09175 0.77028,-7.96596 1.40576,-12.10555c0.4166,-2.7138 1.23544,-5.42059 1.37058,-8.19339c0.09482,-1.94554 0.21494,-3.9069 0.63484,-5.80896c0.26415,-1.19651 -0.07444,-2.63434 0.65807,-3.61661c1.98995,-2.66846 3.87297,-1.87742 6.42473,-2.32263c1.85011,-0.32279 3.57994,-1.17143 5.42556,-1.519c2.21841,-0.41777 4.51142,-0.20296 6.76878,-0.21498c4.68686,-0.02497 8.94293,-0.49019 13.65379,0.02108c3.99385,0.43345 7.96701,0.59042 11.96616,0.91452c1.93227,0.1566 5.22191,0.35349 6.6499,1.96549c1.68246,1.89925 2.11144,6.95196 2.29773,9.42207c0.39269,5.20708 -0.96153,10.30394 -1.73547,15.4336c-0.52807,3.5001 0.01233,7.05305 -0.18379,10.55706c-0.10785,1.92698 -1.12167,4.64949 -1.65155,6.3407c-1.26302,0.87913 -2.36325,2.0585 -3.78907,2.63741c-2.20827,0.89661 -3.85577,0.17116 -5.95695,-0.14179c-2.3637,-0.35205 -5.04782,-0.47322 -7.40337,-0.51762c-10.9535,-0.20647 -21.93687,0.35491 -32.60104,3.33387c0,0 -1.68792,0.47151 -2.49849,-0.90926z" fill="#1f7304" stroke-width="0.5"/><path d="M240.96257,246.65597c0.01783,0.27054 0.04825,0.53699 0.19441,0.73882c0.19954,0.27553 -0.01772,-0.20845 -0.19441,-0.73882zM187.10527,249.07723c-1.25722,-0.24211 -2.46427,-0.67287 -3.28465,-1.56328c-1.20848,-1.31164 -1.44603,-5.26236 -1.6013,-6.90362c-0.52153,-5.51293 -1.43781,-14.18011 4.35788,-17.51764c3.72613,-2.14574 8.13095,-1.38737 12.1253,-1.82134c3.9103,-0.42484 7.94502,-1.33414 11.88335,-1.70632c2.21568,-0.20939 4.46438,0.00989 6.67071,-0.28203c3.98719,-1.1052 7.77464,-1.00098 11.86159,-1.1097c2.98672,-0.07945 5.43968,-0.32025 8.36605,0.63802c1.35626,0.44412 5.7634,2.36746 6.68837,3.48546c0.33162,0.40082 1.55205,4.91452 1.78285,5.74669c1.55189,5.59556 1.28381,10.52712 -0.06471,16.12642c-0.48104,1.99739 -1.69218,6.96631 -3.81808,7.62347c-1.44856,0.44779 -2.53404,-1.67362 -3.87207,-2.38673c-0.84379,-0.4497 -1.76864,-0.72719 -2.65296,-1.09078c-3.4233,-1.36575 -6.39422,-0.79532 -9.91166,-1.1813c-1.7185,-0.18857 -3.31079,-1.20984 -5.03954,-1.22571c-1.98217,-0.0182 -4.05158,0.39296 -5.94344,-0.19879c-1.76805,-0.55302 -3.54478,-1.57056 -5.38631,-1.36903c-2.3851,0.26102 -4.72285,1.58945 -7.0927,2.01142c-0.90155,0.16053 -1.89716,-0.12897 -2.73706,0.23592c-0.27343,0.11879 0.37144,0.469 0.52146,0.72663c0.69811,1.1988 1.65959,2.2253 2.42433,3.38274c1.34544,2.03633 1.85786,3.71991 1.9912,5.55287l0.20539,-0.05737l0.69343,2.48236v0c0.33379,1.19492 -0.36429,2.4342 -1.55922,2.768c-0.86371,0.24127 -1.7506,-0.05658 -2.30196,-0.6915l-1.33039,-1.46864c-4.76587,-2.64239 -9.28267,-6.19625 -12.97588,-10.20622zM194.1736,249.66133c1.38388,1.18974 2.83921,2.30598 4.33983,3.34756c-0.84668,-1.16193 -2.27028,-2.79094 -3.04436,-4.51213c-0.27797,0.69458 -0.81164,1.01723 -1.29547,1.16457z" fill="#42403b" stroke-width="0.5"/><path d="M210.1518,263.74295c-0.28662,1.19775 -1.61153,1.56785 -1.61153,1.56785l-3.95852,0.17282c-0.73288,-0.56664 -1.46576,-1.13327 -2.19864,-1.6999c-3.46425,-3.79652 -6.03488,-6.94503 -7.44465,-11.99173c-0.5068,-1.81425 -1.43703,-4.45402 -0.87946,-6.35005c1.35738,-4.61573 6.43313,-5.56196 10.28781,-6.63874c9.69369,-2.70787 19.82914,-7.40385 29.40679,-2.17931c2.65426,1.49515 6.34387,2.95382 8.62808,4.91287c2.94651,2.52707 4.37314,7.28796 1.85064,10.70178c-1.89857,2.56942 -8.02404,3.20593 -10.92674,4.01339c-7.78076,2.16441 -15.38203,5.11192 -23.15378,7.49102z" fill="#032a06" stroke-width="0.5"/><path d="M240.31856,223.36069c-1.28995,-0.34531 -1.69063,-1.7797 -1.69063,-1.7797l-0.46302,-1.65753c-0.47856,-1.71317 -0.632,-3.54588 -1.40457,-5.1481c-1.90651,-3.9539 -4.92806,-4.5497 -5.06278,-9.72352c-0.03874,-1.48774 0.16747,-3.1948 1.14758,-4.31474c0.55128,-0.62993 5.49714,-1.92326 6.69052,-2.25662c4.78249,-1.33596 9.49327,-2.99935 14.45238,-3.39115c3.18077,-0.2284 8.22114,-0.73789 10.70134,1.96886c1.45,1.58245 1.47611,5.16236 1.63104,7.17052c0.40596,5.26181 1.05765,10.15545 -0.02011,15.3805c-0.36415,1.76541 0.22724,4.0911 -1.11807,5.29086c-2.38374,2.12583 -7.66235,-1.49484 -10.00099,-2.10656c-3.65794,-0.95681 -8.2441,1.44454 -11.75052,2.42404c0,0 -2.40782,0.67261 -3.08043,-1.73521c-0.01147,-0.04106 -0.02204,-0.08161 -0.03175,-0.12166z" fill="#487614" stroke-width="0.5"/><path d="M205.75456,226.53211c-0.72494,1.84589 -1.51157,3.61513 -2.25073,5.21351c0,0 -1.05631,2.26589 -3.32219,1.20958c-2.26588,-1.05631 -1.20957,-3.32219 -1.20957,-3.32219c1.88944,-4.01688 4.32296,-9.633 4.5121,-14.1711c0.20541,-4.92836 0.18644,-9.81422 0.7143,-14.75079c0.35396,-3.31029 1.24502,-6.54407 1.69248,-9.84302c0.23401,-1.72525 -0.56471,-3.43897 -0.72397,-5.17272c-0.8074,-8.78936 0.08338,-17.77021 -0.87285,-26.61145c-0.70102,-9.32892 -2.29487,-18.5238 -2.99159,-27.7954c-0.31664,-4.21374 -0.2569,-7.80991 0.40352,-11.98388c0.19074,-1.2055 -0.01347,-2.5152 0.4851,-3.62922c2.1763,-4.8628 10.93373,-6.60824 15.86573,-6.5324c3.03994,0.04675 4.15534,0.56713 7.1257,1.38087c0.88751,1.90668 2.14949,3.68046 2.66253,5.72004c0.84079,3.34255 -0.33773,5.58019 -0.72661,8.73983c-0.75889,6.16594 -1.89218,12.41726 -2.55243,18.58175c-0.32628,3.04634 -0.27224,5.90183 -0.4336,8.90456c-0.15728,2.92673 -1.17793,5.48727 -1.15028,8.4839c0.09413,10.20119 1.02683,20.35382 0.9994,30.58233c0.11801,6.15087 0.90059,12.43907 1.45731,18.56559c0.40173,4.42093 0.46388,9.76146 -3.24161,12.93282c-2.36279,2.0222 -6.15268,2.57349 -9.05754,3.35186c-2.07275,0.5554 -4.31415,0.69358 -6.4291,0.33064z" fill="#5b8c1c" stroke-width="0.5"/><path d="M202.25498,157.56981c-1.40806,0.39333 -2.51943,0.25995 -3.38721,-0.12576c-3.82242,0.60442 -7.5738,1.9964 -11.28674,3.03358c0,0 -4.81564,1.34522 -6.16086,-3.47042c-1.34522,-4.81564 3.47042,-6.16086 3.47042,-6.16086c5.12988,-1.433 10.17105,-3.19283 15.49016,-3.63064l5.34465,4.19323c0,0 1.34522,4.81564 -3.47042,6.16086z" fill="#020000" stroke-width="0.5"/><path d="M241.68107,153.17902c-1.55195,4.75305 -6.305,3.2011 -6.305,3.2011l-1.36468,-0.48621c-3.17218,-0.69108 -5.58235,0.32059 -8.66508,1.18173c0,0 -4.81564,1.34522 -6.16086,-3.47042c-1.34522,-4.81564 3.47042,-6.16086 3.47042,-6.16086c4.6555,-1.30048 8.40314,-2.23899 13.25636,-1.36813l2.56774,0.79779c0,0 4.75305,1.55195 3.2011,6.305z" fill="#020000" stroke-width="0.5"/><path d="M202.11073,136.33682c1.34522,4.81564 -3.47042,6.16086 -3.47042,6.16086c-0.92085,0.25723 -4.60426,1.28617 -5.52511,1.5434c0,0 -4.81564,1.34522 -6.16086,-3.47042c-1.34522,-4.81564 3.47042,-6.16086 3.47042,-6.16086c0.92085,-0.25723 1.8417,-0.51447 2.76255,-0.7717l2.76255,-0.7717c0,0 4.81564,-1.34522 6.16086,3.47042z" fill="#020000" stroke-width="0.5"/><path d="M241.86912,134.66213c-1.55195,4.75305 -6.305,3.2011 -6.305,3.2011l-1.36468,-0.48621c-4.08416,-0.81488 -7.1935,-0.44096 -11.18381,0.69407c0,0 -4.81564,1.34522 -6.16086,-3.47042c-1.34522,-4.81564 3.47042,-6.16086 3.47042,-6.16086c5.48375,-1.50913 10.15965,-1.94263 15.77509,-0.88048l2.56774,0.79779c0,0 4.75305,1.55195 3.2011,6.305z" fill="#020000" stroke-width="0.5"/><path d="M208.75076,120.92378c-0.53948,4.97081 -5.51029,4.43133 -5.51029,4.43133l-2.12148,-0.321c-2.0684,0.6592 -4.15684,1.25486 -6.24769,1.83893c0,0 -4.81564,1.34522 -6.16086,-3.47042c-1.34522,-4.81564 3.47042,-6.16086 3.47042,-6.16086c2.69793,-0.75365 5.40474,-1.4759 8.11759,-2.17392l4.02099,0.34564c0,0 4.97081,0.53948 4.43133,5.51029z" fill="#020000" stroke-width="0.5"/><path d="M239.9754,117.562c-0.53948,4.97081 -5.51029,4.43133 -5.51029,4.43133l-3.27735,-0.36004c-4.80115,-0.92957 -7.80831,-0.34132 -12.49366,0.9675c0,0 -4.81564,1.34522 -6.16086,-3.47042c-1.34522,-4.81564 3.47042,-6.16086 3.47042,-6.16086c5.91828,-1.65323 10.5709,-2.4063 16.67528,-1.22441l2.86512,0.3066c0,0 4.97081,0.53948 4.43133,5.51029z" fill="#020000" stroke-width="0.5"/><path d="M184.01985,210.02796c-3.31959,-0.15991 -4.30906,-3.70203 -4.30906,-3.70203l-0.32464,-1.52306c-0.64981,-8.67387 -2.0169,-17.53745 -1.09639,-26.21551c0.36432,-3.43465 0.60341,-7.63454 2.71356,-10.55881c2.8432,-3.94015 8.85511,-5.36873 13.44328,-6.12697c3.41792,-0.56484 4.22001,-0.25668 7.59787,0.09479c1.72078,0.58524 3.83172,0.51755 5.16233,1.75571c1.21232,1.12809 2.40623,5.81655 2.96984,7.85593c2.17677,7.8766 2.62505,15.57117 2.17359,23.70587c-0.2266,4.08312 0.58159,5.76809 -1.93829,9.39973c-5.12045,7.37959 -14.7074,4.0233 -21.86723,6.12292c0,0 -2.61096,0.72935 -4.52486,-0.80856z" fill="#fcfa07" stroke-width="0.5"/><path d="M212.03779,163.34499c1.34522,4.81564 -3.47042,6.16086 -3.47042,6.16086l-1.10502,0.30868c-3.91008,1.09225 -8.03013,2.13196 -11.5769,4.18904c-4.35729,2.52717 -7.68363,7.83835 -10.65017,11.7029c0,0 -3.04538,3.96556 -7.01094,0.92018c-3.96556,-3.04538 -0.92018,-7.01094 -0.92018,-7.01094c3.71956,-4.84124 7.77972,-10.73982 13.1415,-14.00313c4.37317,-2.66162 9.44984,-4.06714 14.32625,-5.42934l1.10502,-0.30868c0,0 4.81564,-1.34522 6.16086,3.47042z" fill="#000305" stroke-width="0.5"/><path d="M216.73284,182.2847c1.34522,4.81564 -3.47042,6.16086 -3.47042,6.16086l-0.55251,0.15434c-3.30089,0.92208 -7.23072,1.4587 -10.20054,3.25306c-6.44493,3.89402 -11.29138,10.78494 -17.22035,15.35235c0,0 -3.9716,3.03749 -7.00909,-0.93412c-3.03749,-3.97161 0.93412,-7.00909 0.93412,-7.00909c6.29748,-4.77277 11.25232,-11.88812 18.1092,-15.95922c3.86848,-2.29682 8.4143,-3.13812 12.69623,-4.33425l0.55251,-0.15434c0,0 4.81564,-1.34522 6.16086,3.47042z" fill="#000305" stroke-width="0.5"/><path d="M240.80093,236.16723l-2.51873,-0.48766c-3.00916,-0.61453 -5.72294,-0.14852 -8.7442,-0.20264c-5.33173,-0.0955 -10.32325,0.04389 -15.66215,0.29388c-8.92753,0.41802 -17.84209,-0.10921 -26.59199,2.19915c-0.88789,0.46906 -2.02824,0.71111 -3.39876,0.27479c-0.94449,-0.19143 -1.96296,-0.67143 -2.72015,-1.74371c-0.86097,-0.99088 -1.08445,-2.09439 -1.04531,-3.05729c-0.06582,-0.97194 0.14544,-1.76718 0.49591,-2.41242c-0.33857,-3.87377 3.6874,-4.9984 3.6874,-4.9984c0.00374,-0.00104 0.00747,-0.00209 0.01121,-0.00313c5.09432,-5.02774 11.44799,-6.17605 18.55496,-8.16133c12.10416,-3.38122 25.4836,-6.51534 37.12262,0.14272c2.54588,1.45636 4.44609,3.73166 6.46424,5.78222c0.10675,3.09538 2.18206,6.81096 0.32026,9.28613c-0.16884,0.22447 -0.36101,0.41271 -0.57282,0.56965c-1.5332,3.26718 -5.4025,2.51803 -5.4025,2.51803z" fill="#605a5c" stroke-width="0.5"/><path d="M266.67959,196.74901c-4.10625,-4.23974 -2.0491,-8.65061 0.43452,-12.99996c1.83487,-2.48636 2.19332,-3.78459 5.46349,-4.73448c4.84458,-1.4072 13.46668,0.46336 16.3785,4.68134c3.82598,5.54221 0.8912,15.89408 -5.76183,17.81782c-0.30767,0.08897 -6.04236,0.10525 -6.44659,0.07992c-3.29408,-0.20642 -5.55174,-1.26244 -8.51322,-2.53164c0,0 -1.64444,-0.70475 -1.55488,-2.31301z" fill="#262626" stroke-width="0.5"/><path d="M283.88594,191.93083c0,3.58985 -3.05939,6.5 -6.83334,6.5c-3.77395,0 -6.83333,-2.91015 -6.83333,-6.5c0,-3.58985 3.05938,-6.5 6.83333,-6.5c3.77395,0 6.83334,2.91015 6.83334,6.5z" fill="#ff0000" stroke-width="0"/></g></g></svg>