<svg version="1.1" xmlns="http://www.w3.org/2000/svg" xmlns:xlink="http://www.w3.org/1999/xlink" width="86.04675" height="136.68967" viewBox="0,0,86.04675,136.68967"><defs><linearGradient x1="239.8653" y1="116.83064" x2="239.8653" y2="208.12552" gradientUnits="userSpaceOnUse" id="color-1"><stop offset="0" stop-color="#481604"/><stop offset="1" stop-color="#88441c"/></linearGradient><linearGradient x1="244.99388" y1="202.25696" x2="244.99388" y2="220.36681" gradientUnits="userSpaceOnUse" id="color-2"><stop offset="0" stop-color="#481604"/><stop offset="1" stop-color="#88441c"/></linearGradient></defs><g transform="translate(-196.97664,-112.36621)"><g data-paper-data="{&quot;isPaintingLayer&quot;:true}" fill-rule="nonzero" stroke="none" stroke-linecap="butt" stroke-linejoin="miter" stroke-miterlimit="10" stroke-dasharray="" stroke-dashoffset="0" style="mix-blend-mode: normal"><path d="M228.35286,126.30919c-0.46733,-0.44297 -0.89539,-1.19247 -0.445,-2.31844c0.80823,-2.02057 2.82881,-1.21235 2.82881,-1.21235l1.90747,0.83004c4.1902,2.99671 11.73769,4.82083 15.16324,8.16324c1.66546,1.62501 1.74428,9.07868 -0.09738,10.48277c-0.65518,0.49951 -5.87204,-0.52536 -6.90322,-0.89659c-6.39336,-2.30173 -9.19262,-7.95778 -12.20852,-13.48566c0,0 -0.40794,-0.74788 -0.24542,-1.56301z" fill="#565340" stroke-width="0.5"/><path d="M224.58602,134.54884c0.08282,0.08438 0.12669,0.13702 0.12669,0.13702l2.30349,2.76428c1.2015,1.82263 3.63965,3.28514 3.60446,5.46784c-0.10057,6.2372 -12.34441,11.07259 -16.23556,5.46528c-1.42483,-2.05326 3.05336,-10.80419 3.93454,-13.15573c0,0 1.22138,-3.25703 4.47839,-2.03563c0.89431,0.33534 1.45098,0.82419 1.78799,1.35693z" fill="#f79905" stroke-width="0.25"/><path d="M228.73995,201.67464c0,0 -0.0099,-0.01054 -0.02882,-0.02917c-0.01796,-0.01954 -0.02821,-0.02974 -0.02821,-0.02974l-1.68379,-1.64678c-4.21066,-3.07233 -8.16307,-2.94074 -11.23723,-0.85081c0.05337,-0.44546 0.08434,-0.91063 0.08772,-1.39978c0.01046,-1.51384 0.08055,-3.38141 -1.00666,-4.43488c-1.41883,-1.3748 -6.18775,-0.27055 -8.21911,-1.12341c-2.22297,-0.9333 -3.2789,-4.27343 -4.11551,-6.46119l-0.01114,-0.16753c-0.37174,-1.85832 -1.90364,-6.56544 -0.67399,-8.33568c0.90617,-1.30454 9.41518,-2.36353 10.10285,-2.94986c2.53887,-2.16475 0.21198,-10.89649 0.33507,-13.81501c0.2068,-4.9032 3.15303,-8.55447 5.95571,-12.29109c0,0 0.45135,-0.60207 0.50964,-1.37852c4.24467,-2.17422 10.27693,-1.88944 14.62461,-2.68194c4.04599,-0.73751 12.9426,0.93249 14.76672,-3.91279c0.06841,-0.18174 -1.77235,-6.42648 -1.88557,-7.51177c0.08542,-1.07471 -0.52237,-2.80448 0.37446,-3.40281c2.30489,-1.53772 4.37671,1.72763 7.48474,-1.94944c2.36995,-2.80386 2.43153,-7.58316 5.20229,-10.34439c0.69794,-0.69554 1.09753,1.64372 1.58386,2.50068c0.97122,1.71138 1.67374,3.66123 1.81583,5.62386c0.39159,5.40887 -0.09793,9.41405 6.26868,8.63949c-0.10496,1.46123 -5.85898,7.17798 -6.68509,8.20729c-1.01846,1.26898 -2.53188,2.64035 -2.38573,4.26092c0.09408,1.04325 6.25944,6.34342 7.27657,7.86267c3.23245,4.82823 3.64007,10.768 4.02991,16.43498c-0.23641,0.33778 -0.39715,0.79792 -0.39715,1.41347c0,2.37453 2.19415,2.3151 2.19415,2.3151l0.62148,-0.15024c4.55678,1.86891 6.83641,13.40342 2.26959,16.72336c-3.39992,2.47163 -6.34097,0.03938 -9.90075,1.22315c-3.10649,1.03304 -8.22557,5.50686 -11.07275,7.73207c-4.75893,-5.79699 -12.60075,5.60393 -17.16729,8.12646l-0.71304,0.25423c-2.52827,-2.29507 -6.56907,-4.59285 -8.29202,-6.45088z" data-paper-data="{&quot;noHover&quot;:false,&quot;origItem&quot;:[&quot;Path&quot;,{&quot;applyMatrix&quot;:true,&quot;segments&quot;:[[[170.80025,396.38215],[-2.66186,-2.41635],[0,0]],[[171.54944,396.1144],[0,0],[4.80784,-2.65583]],[[189.58176,387.56569],[-5.01039,-6.1033],[2.99762,-2.34279]],[[201.21079,379.44288],[-3.27063,1.08762],[3.74788,-1.24632]],[[211.62232,378.16821],[-3.57957,2.60223],[4.80813,-3.49536]],[[209.21685,360.5905],[4.79756,1.96767],[0,0]],[208.75136,360.81458],[[206.25136,358.31458],[0,2.5],[0,-0.64808]],[[206.66826,356.8308],[-0.2489,0.35563],[-0.41044,-5.96642]],[[202.42673,339.58165],[3.40326,5.08335],[-1.07087,-1.59953]],[[194.78364,331.33713],[0.09905,1.09838],[-0.15386,-1.7062]],[[197.29931,326.85554],[-1.07228,1.33604],[0.86976,-1.0837]],[[204.34022,318.21729],[-0.1105,1.53844],[-6.70302,0.81549]],[[197.75934,309.13635],[0.41228,5.69468],[-0.1496,-2.06633]],[[195.85577,303.21983],[1.02254,1.80181],[-0.51203,-0.90224]],[[194.19286,300.58914],[0.73482,-0.73229],[-2.91716,2.90713]],[[188.71744,311.48086],[2.49518,-2.95202],[-3.27225,3.87137]],[[180.85482,313.53861],[2.42668,-1.61898],[-0.94422,0.62994]],[[180.50133,316.92541],[0.08994,-1.1315],[0.1192,1.14264]],[[182.43097,325.0257],[0.07203,-0.19134],[-1.9205,5.10131]],[[166.95206,329.14571],[4.25978,-0.77648],[-4.57741,0.83437]],[[151.60155,331.93475],[4.46896,-2.2891],[-0.06137,0.81748]],[[151.0681,333.38167],[0,0],[-2.95078,3.93407]],[[144.81402,346.27441],[0.21773,-5.16229],[-0.1296,3.07273]],[[144.45368,360.7732],[2.67303,-2.27913],[-0.724,0.61731]],[[133.8181,363.88167],[0.95405,-1.37348],[-1.29462,1.86378]],[[134.51955,372.64138],[-0.39138,-1.95651],[0,0]],[[134.5311,372.81749],[0,0],[0.88082,2.30336]],[[138.85375,379.60627],[-2.34044,-0.98262],[2.1387,0.89793]],[[147.49562,380.77804],[-1.4938,-1.44744],[1.14466,1.10914]],[[148.54874,385.44225],[0.01101,-1.59383],[-0.00356,0.51499]],[[148.45503,386.91507],[0.05619,-0.469],[3.2366,-2.20036]],[[160.26355,387.79979],[-4.43315,-3.23467],[0,0]],[162.03132,389.53203],[[162.06094,389.56332],[-0.01891,-0.02058],[0.01992,0.01961]],[[162.09119,389.594],[0,0],[1.81399,1.95622]]],&quot;closed&quot;:true}]}" fill="url(#color-1)" stroke-width="0.5"/><path d="M238.66447,212.46705c-0.34948,0.8451 -0.70844,1.66873 -0.1701,2.22763c1.18391,1.22913 3.63214,0.85297 4.59187,2.26412c0.59837,0.87982 -0.71135,3.9655 0.0193,3.192c4.4101,-4.66866 7.10028,-6.76383 8.40823,-13.26205c0.02987,-0.28602 0.21018,-1.28764 0.27403,-2.26979c-0.22108,-0.67209 -0.37998,-1.33958 -0.23405,-1.9846c-0.03844,-0.05446 -0.08196,-0.09944 -0.13108,-0.13357c-1.20801,-0.83964 -2.41956,1.71166 -3.41793,2.79219c-2.51268,2.71943 -4.65904,4.79801 -7.94895,6.63487zM237.03786,208.03073l0.71158,-0.25431c4.56654,-2.52254 12.36838,-13.91665 17.12731,-8.11966c2.84717,-2.22521 7.9389,-6.6821 11.04539,-7.71514c3.55978,-1.18377 6.48908,1.26093 9.88899,-1.2107c4.56682,-3.31993 2.27204,-14.8266 -2.28474,-16.69551l-0.44213,0.21284c0,0 -2.37453,0 -2.37453,-2.37453c0,-0.61556 0.15957,-1.07153 0.39598,-1.40931c-0.38984,-5.66698 -0.7962,-11.55522 -4.02866,-16.38345c-1.01713,-1.51925 -7.16542,-6.78749 -7.2595,-7.83074c-0.14614,-1.62057 1.37095,-2.98768 2.38941,-4.25667c0.82611,-1.02931 6.58258,-6.74348 6.68754,-8.20471c-6.3666,0.77456 -5.85901,-3.21631 -6.2506,-8.62518c-0.14209,-1.96263 -0.83681,-3.9082 -1.80803,-5.61958c-0.48633,-0.85696 -0.88151,-3.1942 -1.57945,-2.49866c-2.77076,2.76122 -2.83067,7.54122 -5.20061,10.34508c-3.10802,3.67707 -5.16312,0.41675 -7.46801,1.95448c-0.89683,0.59832 -0.25033,2.14211 -0.33575,3.21683c0.11322,1.0853 1.90121,7.51202 1.8328,7.69375c-1.82412,4.84528 -10.65606,3.17572 -14.70205,3.91323c-4.34768,0.7925 -10.33542,0.47485 -14.58009,2.64906c-0.05829,0.77645 -0.50668,1.3743 -0.50668,1.3743c-2.80268,3.73663 -5.7334,7.34247 -5.94019,12.24568c-0.1231,2.91852 2.19662,11.60637 -0.34225,13.77112c-0.68767,0.58633 -9.19563,1.64792 -10.1018,2.95246c-1.22965,1.77024 0.29451,6.46176 0.66625,8.32008l0.01097,0.16727c0.83661,2.18776 1.88273,5.51476 4.10571,6.44806c2.03136,0.85287 6.78932,-0.26183 8.20815,1.11297c1.08721,1.05347 1.01072,2.91628 1.00027,4.43012c-0.00338,0.48915 -0.03564,0.95344 -0.08901,1.3989c3.07416,-2.08993 7.00521,-2.23201 11.21587,0.84032l1.67905,1.6453c0,0 0.01018,0.01018 0.02813,0.02972c0.01892,0.01862 0.02873,0.02914 0.02873,0.02914c1.72295,1.85804 5.74371,4.15239 8.27197,6.44746zM238.99316,219.36717c-0.62416,-1.49706 -3.53134,-0.66067 -4.43134,-2.01003c-0.96489,-1.44663 0.64642,-3.60569 -0.00818,-5.21666c-0.48068,-1.18293 -2.22682,-1.25206 -3.30906,-1.92966c-2.26376,-1.41737 -4.11266,-3.4293 -5.94077,-5.3768l-1.12327,-1.15566c-4.76094,-3.71204 -8.06762,0.2766 -9.34433,5.13639c0,0 -0.10035,0.36793 -0.36805,0.76866l0.02863,0.58394c0,0 0,2.37453 -2.37453,2.37453c-2.37453,0 -2.37453,-2.37453 -2.37453,-2.37453l0.04612,-0.00922c-0.5924,-2.98254 -0.943,-5.39647 -0.21299,-8.40136c0.20923,-0.86121 0.47558,-1.70854 0.76241,-2.54709c0.30569,-0.89368 2.18357,-2.96345 1.37294,-2.4787c-6.57235,3.93017 -11.50368,-4.41396 -13.55896,-9.3889c-0.12281,-0.25398 -0.19216,-0.50615 -0.23134,-0.70996c-0.02571,-0.13325 -0.04712,-0.29048 -0.05335,-0.46204c-1.05616,-5.2635 -2.34745,-11.36533 3.69826,-13.85062c1.4145,-0.58148 3.01439,-0.5331 4.55173,-0.6933v-0.5863c0.02355,-4.36367 -0.79366,-8.28985 0.07057,-12.68474c2.83432,-9.46906 8.80301,-17.52556 19.52204,-18.1813c4.09308,-0.2504 8.19034,-1.23084 12.34524,-1.4246c0.98817,-0.04609 1.97869,-0.02296 2.96773,-0.00296c0.82396,0.01667 3.07907,0.91241 2.44138,0.39035c-2.00733,-1.64334 -1.72519,-4.05859 -1.96645,-6.55344c0.24552,-2.5063 0.10402,-5.42953 2.51369,-7.2311c1.19044,-0.89002 5.37243,0.668 6.30426,-0.89496c1.8927,-3.17462 2.98257,-10.9658 7.62184,-11.97549c4.79459,-1.04349 7.98569,5.23999 9.11041,8.74158c0.01415,0.04407 0.57544,6.26508 0.56952,6.61984c-0.01101,0.6602 -0.97831,2.16237 -0.47581,2.02905c0.36077,-0.44857 0.8612,-0.66356 1.25801,-0.76658c0.00594,-0.00374 0.01187,-0.00745 0.01782,-0.01116c0,0 0.11917,-0.03251 0.31056,-0.0555c0.1907,-0.02817 0.31423,-0.02817 0.31423,-0.02817l0.03239,0.00594c0.29377,-0.00242 0.65219,0.03705 1.002,0.18391l0.59368,0.10897c1.07966,0.83978 2.86339,1.2041 3.23898,2.51933c0.56597,1.98188 -2.92176,8.3512 -4.15309,10.00217c-0.64945,0.87079 -1.46468,1.61342 -2.29543,2.31337c-0.613,0.51649 -1.28113,0.98686 -2.01004,1.3204c1.83355,0.30076 3.03286,2.59424 4.06641,3.96686c4.70826,6.25286 5.71229,12.9474 6.29624,20.44792c7.02843,3.80056 10.4454,18.71034 3.08698,24.45375c-4.66405,3.64039 -7.14608,0.66076 -11.48177,2.11365c-1.97479,0.66175 -4.04154,3.60235 -5.92594,4.76121c-1.39969,0.86077 -5.82587,2.41321 -4.7473,3.46075c2.38238,4.23693 7.30194,9.23368 3.77526,14.42162c-2.95839,4.35197 -8.87376,2.55345 -12.5585,4.9105c-2.85733,1.82777 -5.13272,4.70482 -8.00449,6.60482c-3.22003,2.13042 -6.91299,2.75127 -10.47093,4.04992c0,0 -2.23156,0.81147 -3.04304,-1.4201c-0.81148,-2.23156 1.42009,-3.04304 1.42009,-3.04304c3.15985,-1.1451 6.6377,-1.63948 9.47512,-3.54857c1.17371,-0.7897 2.25633,-1.75957 3.32686,-2.74965c-0.88176,-1.15329 -1.09607,-3.13169 -1.67791,-4.52724zM256.67332,216.31372c0.97411,-1.24209 0.01591,-3.3803 -1.25878,-5.39434c-0.86645,2.98426 -2.05941,5.33425 -4.01698,7.62617c2.13053,-0.3382 4.17105,-0.82321 5.27575,-2.23183z" fill="#481604" stroke-width="0.5"/><path d="M239.96156,211.93973c3.28991,-1.83686 5.57294,-4.0123 8.08561,-6.73172c0.99838,-1.08052 2.22345,-3.6236 3.43146,-2.78396c0.04911,0.03413 0.09393,0.08008 0.13237,0.13455c-0.14593,0.64501 0.02336,1.32161 0.24444,1.9937c-0.06385,0.98215 -0.23319,1.99713 -0.26306,2.28315c-1.30796,6.49821 -4.09667,8.73957 -8.50677,13.40823c-0.73065,0.77349 0.56848,-2.3151 -0.02989,-3.19492c-0.95973,-1.41115 -3.46169,-1.08106 -4.6456,-2.31019c-0.53834,-0.5589 -0.18856,-1.40927 0.16092,-2.25437z" data-paper-data="{&quot;noHover&quot;:false,&quot;origItem&quot;:[&quot;Path&quot;,{&quot;applyMatrix&quot;:true,&quot;segments&quot;:[[[172.51281,401.05289],[0,0],[-0.36795,0.88976]],[[172.33372,403.39822],[-0.56679,-0.58843],[1.24647,1.29407]],[[177.16823,405.78198],[-1.01044,-1.48571],[0.62999,0.92631]],[[177.18855,409.14265],[-0.76926,0.81436],[4.64313,-4.91535]],[[186.04108,395.17983],[-1.37707,6.84158],[0.03145,-0.30114]],[[186.32959,392.7901],[-0.06723,1.03404],[-0.23276,-0.7076]],[[186.08317,390.70064],[-0.15364,0.67909],[-0.04047,-0.05734]],[[185.94517,390.56001],[0.05171,0.03594],[-1.27184,-0.88401]],[[182.34663,393.49974],[1.05113,-1.13762],[-2.64545,2.86312]],[[173.97766,400.48519],[3.46375,-1.93392],[0,0]]],&quot;closed&quot;:true}]}" fill="url(#color-2)" stroke-width="0.5"/><path d="M215.77057,192.94557c-1.4815,-4.17618 -3.57231,-11.45857 -0.69832,-15.63704c5.05215,-7.34527 18.0324,-4.16434 24.25507,-0.781l0.9898,0.88213c0.27462,-0.26245 0.51923,-0.39834 0.51923,-0.39834c5.43007,-3.00369 12.23321,-5.07303 18.43151,-3.29312c7.50135,2.1541 11.54952,10.83337 7.29959,17.77748c-2.20785,3.60749 -5.71134,5.64975 -9.10244,7.90738c-4.46601,2.44037 -9.54425,3.4767 -13.57586,6.51615l-2.8109,1.06541c0,0 -1.74054,0.58017 -2.67171,-0.80937c-7.31736,-3.87408 -17.89106,-4.79833 -22.23801,-12.40023l-0.28559,-0.56617c0,0 -0.02366,-0.04731 -0.05685,-0.13135c-0.03771,-0.08211 -0.05551,-0.13192 -0.05551,-0.13192z" fill="#d07e1d" stroke-width="0.5"/><path d="M269.93787,181.38856c0.02578,-0.10448 0.06185,-0.20626 0.11118,-0.30458c1.55142,-3.09144 5.58365,-3.0869 7.08145,0.13686c0.616,1.32584 -0.33056,5.5601 -1.28811,6.55963c-4.46114,4.65675 -7.03229,-1.0417 -7.03229,-4.82852c0,0 0,-1.27298 1.12777,-1.56339z" fill="#d07e1d" stroke-width="0.5"/><path d="M213.45187,183.42686c0,3.78682 -2.57116,9.48526 -7.0323,4.82852c-0.95755,-0.99953 -1.90411,-5.23379 -1.28811,-6.55963c1.49779,-3.22376 5.53002,-3.2283 7.08145,-0.13685c0.04934,0.09832 0.0854,0.2001 0.11119,0.30457c1.12777,0.29041 1.12777,1.56339 1.12777,1.56339z" data-paper-data="{&quot;index&quot;:null}" fill="#d07e1d" stroke-width="0.5"/><path d="M211.3164,205.72782c-0.08258,-0.15754 -0.15537,-0.33572 -0.21567,-0.53704c-0.68128,-2.2747 1.5934,-2.95598 1.5934,-2.95598l1.88548,-0.50747c4.6746,-0.34604 17.69838,-1.03825 20.2006,3.83312c0.6016,1.17119 -0.20681,7.25518 -0.10372,8.7806c0.65361,9.67033 1.38615,19.54985 -5.11521,27.50754c-5.42929,5.77392 -12.84953,3.72653 -15.29032,-3.76237c-3.43909,-10.55189 -1.77377,-21.42138 -2.94657,-32.15178c0,0 -0.00838,-0.07777 -0.00799,-0.20663z" fill="#696800" stroke-width="0.5"/><path d="M220.9087,246.25526c-2.29548,0.60759 -2.90308,-1.68788 -2.90308,-1.68788l-0.38207,-1.59861c-0.9877,-13.0316 -4.92477,-25.61691 -5.23833,-38.81732c0,0 -0.05639,-2.37386 2.31747,-2.43024c2.37387,-0.05638 2.43024,2.31747 2.43024,2.31747c0.31145,13.11405 4.24429,25.61733 5.2261,38.57117l0.23755,0.74233c0,0 0.60759,2.29548 -1.68789,2.90308z" fill="#929000" stroke-width="0.5"/><path d="M227.93981,243.93346c-2.24699,-0.76775 -1.47924,-3.01473 -1.47924,-3.01473l-0.01589,0.32907c0.27058,-4.18188 -1.45526,-8.37991 -1.50043,-12.63068c-0.08647,-8.13752 1.9443,-16.47142 1.04937,-24.59045c0,0 -0.2545,-2.36085 2.10634,-2.61536c2.36085,-0.25449 2.61535,2.10636 2.61535,2.10636c0.87923,8.32165 -1.13079,16.77094 -1.02202,25.09338c0.0572,4.3767 1.67212,8.52578 1.49428,12.87858l-0.23305,0.96461c0,0 -0.76773,2.24698 -3.01473,1.47923z" fill="#929000" stroke-width="0.5"/><path d="M213.01875,230.11355c-0.27507,0.44906 -0.75897,0.84807 -1.59943,0.99914c-2.33706,0.4201 -2.75717,-1.91698 -2.75717,-1.91698l-0.33487,-2.32136c0.92138,-9.01551 8.42271,-10.11277 15.94122,-11.67651c3.08082,-0.64076 5.58518,-2.09519 8.69145,1.22069c2.30048,2.45571 -1.79944,9.04393 -4.008,9.86608c-2.097,0.78061 -4.49855,-0.2905 -6.71266,0.03264c-2.88898,0.42164 -6.16444,2.0007 -8.59953,3.53008c0,0 -0.24663,0.15319 -0.621,0.26622z" fill="#6a7982" stroke-width="0.5"/><path d="M234.93472,224.55694c2.05278,1.19351 0.85927,3.2463 0.85927,3.2463l-0.43033,0.74014c-1.71454,2.88777 -2.29889,6.17749 -3.82979,9.2003c-1.33885,2.62349 -2.08214,7.82594 -4.31202,9.68578c-4.20026,3.5032 -9.80462,0.8302 -12.29477,-3.12819c-4.45354,-7.07946 -6.51048,-19.42311 -6.10322,-27.64515c0,0 0.12092,-2.37146 2.49237,-2.25054c2.37145,0.12092 2.25053,2.49236 2.25053,2.49236c-0.39403,7.48971 1.84213,15.97598 4.4451,22.95716c0.59063,1.58405 3.61449,6.40073 6.03389,4.04366c1.49094,-1.45252 2.22982,-6.29185 3.25648,-8.31068c1.59414,-3.10859 2.21923,-6.39488 3.95587,-9.43171l0.43033,-0.74015c0,0 1.19351,-2.05278 3.2463,-0.85927z" fill="#2d3d3a" stroke-width="0.5"/><path d="M243.78496,194.79013c-1.99985,-3.2884 -1.7976,-5.0212 -1.3074,-8.87596c3.01445,-4.24078 8.4729,-10.17847 14.31247,-9.57485c6.30369,0.6516 9.15943,7.22559 6.96082,12.75116c-1.57668,3.96251 -5.7172,6.96 -9.69396,8.06159c-2.4293,0.67293 -5.44051,0.54465 -7.94214,0.54711c0,0 -2.37453,0 -2.37453,-2.37453c0,-0.19351 0.01578,-0.37126 0.04475,-0.53453z" fill="#ffffff" stroke-width="0.5"/><path d="M244.69003,191.16923c0,-2.29497 1.86045,-4.15543 4.15542,-4.15543c2.29497,0 4.15543,1.86045 4.15543,4.15543c0,2.29497 -1.86045,4.15543 -4.15543,4.15543c-2.29497,0 -4.15542,-1.86045 -4.15542,-4.15543z" fill="#502c1a" stroke-width="0.5"/><path d="M259.61865,172.90273c-0.03089,2.20741 0.26956,3.44147 -1.21159,5.41221c-3.19052,4.24514 -14.5207,5.7953 -16.28293,-0.41873c-1.64063,-5.78522 9.67735,-10.54323 14.43167,-8.65069c0.79478,0.31637 1.2762,1.11213 1.84003,1.78181c1.2228,0.43506 1.22281,1.8754 1.22281,1.8754z" data-paper-data="{&quot;index&quot;:null}" fill="#481604" stroke-width="0.5"/><path d="M236.06167,196.03701c0,2.37453 -2.37453,2.37453 -2.37453,2.37453c-2.50162,-0.00246 -5.51283,0.12582 -7.94213,-0.54711c-3.97677,-1.10159 -8.11729,-4.09908 -9.69397,-8.06159c-2.19861,-5.52556 0.65713,-12.09956 6.96082,-12.75116c5.83957,-0.60362 11.29802,5.33407 14.31247,9.57485c0.4902,3.85476 0.69245,5.58756 -1.3074,8.87596c0.02897,0.16326 0.04475,0.34101 0.04475,0.53453z" data-paper-data="{&quot;index&quot;:null}" fill="#ffffff" stroke-width="0.5"/><path d="M219.44649,171.50224c0.56384,-0.66968 1.04526,-1.46544 1.84004,-1.78181c4.75433,-1.89255 16.07231,2.86547 14.43168,8.65069c-1.76224,6.21403 -13.09242,4.66387 -16.28294,0.41873c-1.48114,-1.97073 -1.1807,-3.20479 -1.21159,-5.4122c0,0 0.00001,-1.44035 1.22281,-1.87541z" fill="#481604" stroke-width="0.5"/><path d="M227.59342,191.64413c0,-2.29497 1.86045,-4.15543 4.15542,-4.15543c2.29497,0 4.15543,1.86045 4.15543,4.15543c0,2.29497 -1.86045,4.15543 -4.15543,4.15543c-2.29497,0 -4.15542,-1.86045 -4.15542,-4.15543z" fill="#502c1a" stroke-width="0.5"/><path d="M240.30218,200.96652c0,0.47491 -0.47491,0.47491 -0.47491,0.47491l-0.03978,-0.02437c-1.14293,0.36951 -2.24573,0.37038 -3.14546,-0.49465c0,0 -0.3358,-0.33581 0,-0.67161c0.3358,-0.3358 0.67162,0 0.67162,0c0.57921,0.61462 1.41978,0.52626 2.17348,0.2652l0.34014,-0.02437c0,0 0.47491,0 0.47491,0.47491z" fill="#6a2f11" stroke-width="0.5"/><path d="M228.7283,228.98546c-0.05535,-0.04379 -0.11089,-0.0932 -0.16642,-0.14872c-1.00743,-1.00743 0,-2.01485 0,-2.01485l0.72025,-0.64925c0.27553,-0.4785 0.55106,-0.95699 0.82659,-1.43548c1.69257,-2.03107 2.86937,-7.33334 5.39636,-8.30112c3.50225,-1.34127 7.67266,2.80929 6.62162,6.1509c-1.77086,5.63015 -6.70412,6.47758 -11.67843,7.58298c0,0 -1.39079,0.30906 -1.69986,-1.08174c-0.00776,-0.03492 -0.01444,-0.06915 -0.02011,-0.10272z" fill="#d07e1f" stroke-width="0.5"/><path d="M250.10773,218.16899l-0.35713,-1.12981c0.91813,-1.09964 3.04742,-4.76552 4.07087,-5.37995c3.88083,-2.32988 6.72301,3.05765 4.61252,6.01975c-1.43266,2.01075 -4.75114,2.37296 -6.92955,2.80911c0,0 -1.39706,0.27941 -1.67647,-1.11764c-0.11291,-0.56456 0.04796,-0.94661 0.27976,-1.20146z" fill="#d07e1f" stroke-width="0.5"/><path d="M253.09511,121.58199c-1.42472,0 -1.42472,-1.42472 -1.42472,-1.42472l0.011,-0.01325c-0.27925,-2.72123 -2.34486,-2.95251 -4.80245,-3.53916c-5.20881,-1.24339 -10.69396,-1.13845 -14.85872,2.32491c-2.89164,2.89301 -2.37028,5.52711 -4.33441,8.47651c-0.05328,0.08002 -2.53695,1.64954 -2.87569,1.96362c-3.68883,3.42022 -7.1508,7.46992 -7.14299,12.63304c0,0 0.00001,1.42472 -1.42471,1.42472c-1.42472,0 -1.42472,-1.42472 -1.42472,-1.42472c0.00813,-5.95966 3.73834,-10.80086 8.05399,-14.72153c0.70169,-0.63747 1.91642,-0.66755 2.44325,-1.45571c0.61067,-0.91357 0.42758,-3.42276 1.0678,-4.62866c0.88554,-1.66799 2.40133,-3.05724 3.71599,-4.37136c5.40749,-4.51491 23.04064,-6.77882 24.41009,2.96492l0.011,0.36668c0,0 0,1.42472 -1.42472,1.42472z" fill="#2e3c3d" stroke-width="0.5"/><path d="M221.57659,136.73356c-0.37963,0.13171 -0.8911,0.13959 -1.40258,-0.37188c-1.00743,-1.00743 0,-2.01485 0,-2.01485l0.67278,-0.66451c1.57379,-1.88856 5.04051,-7.76336 8.1127,-6.66694c1.83697,0.65559 1.61052,4.80849 3.04287,6.13102c3.31047,3.05666 7.15842,1.87955 10.07963,4.37482l0.50714,-0.43469l1.13461,1.3237c0.21689,0.24999 0.34816,0.57628 0.34816,0.93323c0,0.78685 -0.63787,1.42471 -1.42471,1.42471h-1.5197c-6.24905,0 -15.97293,1.18543 -19.55089,-4.03462z" fill="#fed001" stroke-width="0.5"/><path d="M232.50917,125.3307c3.00489,2.44973 8.92605,4.39504 12.36112,3.46041c5.0936,-1.38589 9.29427,-4.8678 3.85973,-9.32626c-5.06453,-2.49391 -19.63824,-2.20942 -16.22083,5.86585zM229.20804,125.2946c-3.20635,-10.35511 13.94741,-12.07733 21.20578,-8.40433c7.24078,6.08928 3.23492,12.82841 -4.75396,14.87409c-3.84084,0.98351 -9.39575,-0.47536 -13.31288,-2.84261c-0.82139,0.25125 -1.50024,-0.42761 -1.50024,-0.42761l-0.45294,-0.52959c-0.1474,-0.25963 -0.28369,-0.5149 -0.40921,-0.76591c-0.12715,-0.11409 -0.25002,-0.22921 -0.36837,-0.34522c0,0 -0.71141,-0.7114 -0.40817,-1.55885z" fill="#828a84" stroke-width="0.5"/><path d="M232.4601,125.34025c-3.41741,-8.07526 11.2487,-8.39428 16.31323,-5.90037c5.43454,4.45845 1.21683,8.00788 -3.87676,9.39377c-3.43507,0.93463 -9.43158,-1.04367 -12.43648,-3.4934z" data-paper-data="{&quot;noHover&quot;:false,&quot;origItem&quot;:[&quot;Path&quot;,{&quot;applyMatrix&quot;:true,&quot;segments&quot;:[[[232.50917,125.3307],[0,0],[3.00489,2.44973]],[[244.87029,128.79111],[-3.43507,0.93463],[5.0936,-1.38589]],[[248.73002,119.46485],[5.43454,4.45845],[-5.06453,-2.49391]],[[232.50918,125.3307],[-3.41741,-8.07526],[0,0]]],&quot;closed&quot;:true,&quot;fillColor&quot;:[0,0,0,1],&quot;strokeWidth&quot;:0.5}]}" fill="#727272" stroke-width="0.25"/></g></g></svg>