<svg version="1.1" xmlns="http://www.w3.org/2000/svg" xmlns:xlink="http://www.w3.org/1999/xlink" width="136.26913" height="12.56259" viewBox="0,0,136.26913,12.56259"><defs><linearGradient x1="174.27028" y1="168.14908" x2="212.96894" y2="197.54529" gradientUnits="userSpaceOnUse" id="color-1"><stop offset="0" stop-color="#e9e00e"/><stop offset="1" stop-color="#f57403"/></linearGradient><linearGradient x1="189.69955" y1="186.09074" x2="189.61584" y2="176.28946" gradientUnits="userSpaceOnUse" id="color-2"><stop offset="0" stop-color="#ffcc00" stop-opacity="0"/><stop offset="1" stop-color="#ffcc00" stop-opacity="0"/></linearGradient><linearGradient x1="281.33322" y1="178.10973" x2="281.33322" y2="184.10973" gradientUnits="userSpaceOnUse" id="color-3"><stop offset="0" stop-color="#a99e9a"/><stop offset="1" stop-color="#9f9490"/></linearGradient><linearGradient x1="281.33322" y1="178.10973" x2="281.33322" y2="184.10973" gradientUnits="userSpaceOnUse" id="color-4"><stop offset="0" stop-color="#a99e9a"/><stop offset="1" stop-color="#9f9490"/></linearGradient></defs><g transform="translate(-153.18798,-174.6987)"><g data-paper-data="{&quot;isPaintingLayer&quot;:true}" fill-rule="nonzero" stroke-linejoin="miter" stroke-miterlimit="10" stroke-dasharray="" stroke-dashoffset="0" style="mix-blend-mode: normal"><g data-paper-data="{&quot;isHelperItem&quot;:true}"><path d="M246.97609,185.96419l-93.78811,-2.79572c0,0 17.13658,-2.16582 37.45223,-3.40005c2.15042,-0.13064 4.52656,-0.275 7.05497,-0.42861c20.96863,-1.2739 52.40899,-3.18399 52.40899,-3.18399z" data-paper-data="{&quot;index&quot;:null}" fill="url(#color-1)" stroke="url(#color-2)" stroke-width="0" stroke-linecap="round"/><path d="" fill="#6b6768" stroke="none" stroke-width="0" stroke-linecap="butt"/><g data-paper-data="{&quot;isSelectionBound&quot;:true,&quot;isHelperItem&quot;:true}" fill="none" stroke="none" stroke-width="1" stroke-linecap="butt" font-family="sans-serif" font-weight="normal" font-size="12" text-anchor="start"/></g><path d="M244.84626,179.84816l-0.14252,-0.00137c-2.84299,-0.71048 -2.81468,-4.58274 0.31518,-5.14809c2.62124,0 5.55032,0.86986 7.96926,1.90848c0.83364,0.35794 3.08608,1.42005 2.22354,3.01241c-0.33505,0.61854 -1.36154,0.35672 -2.0501,0.50066c-2.41382,0.50457 -5.87078,0.134 -8.31535,-0.27208z" fill="#ff7700" stroke="none" stroke-width="0.5" stroke-linecap="butt"/><path d="M253.69049,181.83975c0.68856,0.14393 1.71506,-0.11788 2.0501,0.50065c0.86255,1.59236 -1.38989,2.65447 -2.22354,3.01241c-2.41894,1.03862 -5.34802,1.90848 -7.96926,1.90848c-3.12986,-0.56535 -3.15817,-4.43761 -0.31518,-5.14809l0.14252,-0.00137c2.44457,-0.40608 5.90152,-0.77665 8.31535,-0.27208z" data-paper-data="{&quot;index&quot;:null}" fill="#ff7700" stroke="none" stroke-width="0.5" stroke-linecap="butt"/><path d="M257.03438,181.40879c-0.24514,1.22573 -1.47087,0.98058 -1.47087,0.98058l-0.75485,-0.17572c-4.1431,0 -8.25495,0.2 -12.4,0.2c0,0 -1.25,0 -1.25,-1.25c0,-1.25 1.25,-1.25 1.25,-1.25c4.14496,0 8.25656,-0.2 12.4,-0.2l1.24514,0.22427c0,0 1.22573,0.24515 0.98058,1.47087z" fill="#ba6023" stroke="none" stroke-width="0.5" stroke-linecap="butt"/><path d="M280.67533,181.20395h-24" fill="none" stroke="#74482d" stroke-width="3" stroke-linecap="round"/><path d="M288.27768,180.99862l-13.77778,3.11111l7.55556,-2.88889l-7.66667,-3.11111z" fill="url(#color-3)" stroke="url(#color-4)" stroke-width="0.5" stroke-linecap="round"/></g></g></svg>