<svg version="1.1" xmlns="http://www.w3.org/2000/svg" xmlns:xlink="http://www.w3.org/1999/xlink" width="12.78629" height="12.84652" viewBox="0,0,12.78629,12.84652"><g transform="translate(-233.59932,-173.62281)"><g data-paper-data="{&quot;isPaintingLayer&quot;:true}" fill-rule="nonzero" stroke-linecap="butt" stroke-linejoin="miter" stroke-miterlimit="10" stroke-dasharray="" stroke-dashoffset="0" style="mix-blend-mode: normal"><path d="M240.15702,177.3991c0,0 -1.98712,-3.85908 -0.06508,-3.77493c2.11611,0.09265 0.06508,3.77493 0.06508,3.77493z" fill="#d30000" stroke="none" stroke-width="0"/><path d="M242.13712,177.72843c0,0 1.61078,-3.27054 2.515,-1.93136c0.99552,1.47441 -2.515,1.93136 -2.515,1.93136z" fill="#d30000" stroke="none" stroke-width="0"/><path d="M243.07856,179.90273c0,0 3.29204,-1.92052 3.30698,-0.23133c0.01644,1.85976 -3.30698,0.23133 -3.30698,0.23133z" fill="#d30000" stroke="none" stroke-width="0"/><path d="M241.93329,182.27513c0,0 3.73008,0.44213 2.73951,1.78023c-1.09057,1.47318 -2.73951,-1.78023 -2.73951,-1.78023z" fill="#d30000" stroke="none" stroke-width="0"/><path d="M240.52494,183.09634c0,0 0.96652,3.79705 -0.70718,3.33381c-1.84268,-0.51002 0.70718,-3.33381 0.70718,-3.33381z" fill="#d30000" stroke="none" stroke-width="0"/><path d="M236.66367,179.91496c0,0 -2.82111,2.20884 -3.05057,0.63744c-0.25262,-1.73005 3.05057,-0.63744 3.05057,-0.63744z" fill="#d30000" stroke="none" stroke-width="0"/><path d="M237.8421,178.24355c0,0 -3.81179,-2.05299 -2.18341,-3.06821c1.79281,-1.11772 2.18341,3.06821 2.18341,3.06821z" fill="#d30000" stroke="none" stroke-width="0"/><path d="M237.96421,182.34205c0,0 -2.33813,2.89397 -2.93746,1.35775c-0.65984,-1.69135 2.93746,-1.35775 2.93746,-1.35775z" fill="#d30000" stroke="none" stroke-width="0"/><path d="M240.04134,183.49327l-0.92225,-2.29235l-2.45192,0.24343l2.05435,-1.72958l-1.14889,-2.11189l2.2803,1.1741l1.65307,-1.49962l-0.69555,2.46465l2.22074,1.17518l-2.44507,0.29069z" fill="#e4eef0" stroke="#caebf0" stroke-width="0.5"/></g></g></svg>