<svg version="1.1" xmlns="http://www.w3.org/2000/svg" xmlns:xlink="http://www.w3.org/1999/xlink" width="157.81043" height="16.23317" viewBox="0,0,157.81043,16.23317"><defs><linearGradient x1="260.59378" y1="177.08671" x2="124.63108" y2="177.08671" gradientUnits="userSpaceOnUse" id="color-1"><stop offset="0" stop-color="#98e67c"/><stop offset="1" stop-color="#98e67c" stop-opacity="0"/></linearGradient><linearGradient x1="250.93051" y1="180.13786" x2="266.64471" y2="180.13786" gradientUnits="userSpaceOnUse" id="color-2"><stop offset="0" stop-color="#313756"/><stop offset="1" stop-color="#3c4665"/></linearGradient></defs><g transform="translate(-131.83301,-171.77927)"><g data-paper-data="{&quot;isPaintingLayer&quot;:true}" fill-rule="nonzero" stroke-linejoin="miter" stroke-miterlimit="10" stroke-dasharray="" stroke-dashoffset="0" style="mix-blend-mode: normal"><path d="M139.60187,186.86586l-7.76886,-7.25194l7.60487,-7.83465l121.1559,4.96984l0.57567,6.94851z" data-paper-data="{&quot;index&quot;:null}" fill="url(#color-1)" stroke="none" stroke-width="0" stroke-linecap="butt"/><path d="M256.75757,180.22601c0,2.29825 -2.68412,4.16132 -5.99512,4.16132c-3.31101,0 -5.99513,-4.16132 -5.99513,-4.16132c0,0 2.68412,-4.16132 5.99513,-4.16132c3.31101,0 5.99512,1.86307 5.99512,4.16132z" fill="#f8fef2" stroke="#9bf072" stroke-width="0.5" stroke-linecap="butt"/><path d="M251.82567,176.48789l-2.25697,-4.23186h13.25982l2.25697,4.23186z" fill="#6fd600" stroke="none" stroke-width="0" stroke-linecap="butt"/><path d="M265.04296,183.78058l-2.257,4.23186h-13.25982l2.25698,-4.23186z" data-paper-data="{&quot;index&quot;:null}" fill="#6fd600" stroke="none" stroke-width="0" stroke-linecap="butt"/><path d="M279.15266,175.0814c0,0 10.38828,0.68207 10.49004,5.762c0.10178,5.07994 -10.29214,4.11574 -10.29214,4.11574l-0.19793,-9.87774z" fill="#81fb00" stroke="#000000" stroke-width="0" stroke-linecap="round"/><path d="M279.02025,180.18318h-3.16657h13.14121" data-paper-data="{&quot;index&quot;:null}" fill="none" stroke="#d9fc00" stroke-width="0.5" stroke-linecap="round"/><path d="M250.93047,185.07674v-9.87774h28.22212v9.87774z" fill="#212633" stroke="#000000" stroke-width="0" stroke-linecap="butt"/><path d="M276.18577,180.18318h3.16657h-13.14122" fill="none" stroke="#3e4861" stroke-width="0.5" stroke-linecap="round"/><path d="M250.93051,185.07673v-9.87774h15.7142v9.87774z" fill="url(#color-2)" stroke="#000000" stroke-width="0" stroke-linecap="butt"/><path d="M263.67791,180.18318h3.16656h-6.01648" fill="none" stroke="#6c89a3" stroke-width="0.5" stroke-linecap="round"/><path d="M250.63509,180.81638v-1.10829h14.40784v1.10829z" fill="#6fd600" stroke="none" stroke-width="0" stroke-linecap="butt"/></g></g></svg>