<svg version="1.1" xmlns="http://www.w3.org/2000/svg" xmlns:xlink="http://www.w3.org/1999/xlink" width="73.78779" height="97.15191" viewBox="0,0,73.78779,97.15191"><defs><linearGradient x1="226.7883" y1="207.03026" x2="236.65581" y2="205.97565" gradientUnits="userSpaceOnUse" id="color-1"><stop offset="0" stop-color="#da951a"/><stop offset="1" stop-color="#f1c424"/></linearGradient><linearGradient x1="229.9259" y1="197.07985" x2="231.6493" y2="213.20473" gradientUnits="userSpaceOnUse" id="color-2"><stop offset="0" stop-color="#3d106e"/><stop offset="1" stop-color="#6a22b2"/></linearGradient><linearGradient x1="252.26671" y1="206.90913" x2="242.40355" y2="205.8149" gradientUnits="userSpaceOnUse" id="color-3"><stop offset="0" stop-color="#da951a"/><stop offset="1" stop-color="#f1c424"/></linearGradient><linearGradient x1="222.2331" y1="197.03856" x2="222.20393" y2="211.58195" gradientUnits="userSpaceOnUse" id="color-4"><stop offset="0" stop-color="#3c0e6e"/><stop offset="1" stop-color="#7223b7"/></linearGradient><linearGradient x1="221.42417" y1="197.52174" x2="221.39403" y2="212.5499" gradientUnits="userSpaceOnUse" id="color-5"><stop offset="0" stop-color="#5a1c9c"/><stop offset="1" stop-color="#904cdf"/></linearGradient><linearGradient x1="249.16908" y1="196.9462" x2="247.38099" y2="213.06404" gradientUnits="userSpaceOnUse" id="color-6"><stop offset="0" stop-color="#3d106e"/><stop offset="1" stop-color="#6a22b2"/></linearGradient><linearGradient x1="259.65272" y1="196.0544" x2="255.92962" y2="210.11322" gradientUnits="userSpaceOnUse" id="color-7"><stop offset="0" stop-color="#3c0e6e"/><stop offset="1" stop-color="#7223b7"/></linearGradient><linearGradient x1="260.30966" y1="196.72989" x2="256.46245" y2="211.25731" gradientUnits="userSpaceOnUse" id="color-8"><stop offset="0" stop-color="#5a1c9c"/><stop offset="1" stop-color="#904cdf"/></linearGradient><linearGradient x1="239.73586" y1="178.19026" x2="239.67827" y2="206.89736" gradientUnits="userSpaceOnUse" id="color-9"><stop offset="0" stop-color="#ce7d14"/><stop offset="1" stop-color="#ce6c11"/></linearGradient><radialGradient cx="240.21146" cy="188.2113" r="26.16931" gradientUnits="userSpaceOnUse" id="color-10"><stop offset="0" stop-color="#754a1b"/><stop offset="1" stop-color="#3f2b10"/></radialGradient></defs><g transform="translate(-202.76278,-126.22005)"><g data-paper-data="{&quot;isPaintingLayer&quot;:true}" fill-rule="nonzero" stroke-linejoin="miter" stroke-miterlimit="10" stroke-dasharray="" stroke-dashoffset="0" style="mix-blend-mode: normal"><path d="M229.90465,203.66982c0,0 5.92328,0.90595 9.80884,1.10956c3.88554,0.20361 8.80159,-1.53343 8.80159,-1.53343l2.58091,12.51734l-3.49201,4.55456l-5.61434,-1.75906l-0.38414,-7.02077l-4.19701,0.1846l-0.02402,5.29404l-5.06317,2.09882l-4.00375,-3.64158l1.5871,-11.80414z" fill="#cf7e16" stroke="#772203" stroke-width="0.5" stroke-linecap="round"/><path d="M230.62021,214.59707l0.12369,1.79505" fill="none" stroke="#b66519" stroke-width="0.25" stroke-linecap="round"/><path d="M234.80439,216.9002l-0.13191,-1.9147" fill="none" stroke="#b66519" stroke-width="0.25" stroke-linecap="round"/><path d="M244.63128,217.98167l-0.14017,-2.03437" fill="none" stroke="#b66519" stroke-width="0.25" stroke-linecap="round"/><path d="M248.27036,217.50779l-0.10717,-1.5557" fill="none" stroke="#b66519" stroke-width="0.25" stroke-linecap="round"/><path d="M235.94847,199.35721l0.67369,16.23707c0,0 -4.63731,-1.9047 -6.35076,-3.10595c-1.4592,-1.02301 -3.29016,-3.65308 -3.29016,-3.65308l-0.78906,-11.35639" fill="url(#color-1)" stroke="#8a2b01" stroke-width="0" stroke-linecap="round"/><path d="M234.40269,199.0787l0.56481,13.77139c0,0 -3.9602,-1.61246 -5.42311,-2.6302c-1.24584,-0.86674 -2.80821,-3.09627 -2.80821,-3.09627l-0.66659,-9.63163" fill="url(#color-2)" stroke="#8a2b01" stroke-width="0" stroke-linecap="round"/><path d="M252.90118,197.3602l-0.83464,11.35313c0,0 -1.84149,2.62273 -3.30479,3.63985c-1.71825,1.19437 -6.36314,3.08045 -6.36314,3.08045l0.73882,-16.23424" data-paper-data="{&quot;index&quot;:null}" fill="url(#color-3)" stroke="#8a2b01" stroke-width="0" stroke-linecap="round"/><path d="M230.53171,203.51898l-6.15936,9.36011l-4.86434,8.23153c0,0 -1.60326,-4.62779 -4.67579,-5.1804c-3.10049,-0.55762 -7.11435,2.08649 -7.11435,2.08649c0,0 -0.64671,-8.19533 -0.30371,-9.69624c0.34301,-1.50091 3.88375,-2.73931 3.88375,-2.73931l8.58454,-10.0016" data-paper-data="{&quot;index&quot;:null}" fill="#b64404" stroke="#6b0000" stroke-width="0.5" stroke-linecap="round"/><path d="M214.3728,208.49598l1.7775,0.00357l-2.75585,4.3575l4.04537,-2.73896l-0.32935,3.0696l3.39736,-1.9323l0.48059,2.10169l2.58645,-0.47961l0.15445,3.55538l-3.24483,6.45724l-1.45531,0.48188c0,0 -1.01128,-4.82232 -4.35167,-5.66452c-3.34039,-0.84223 -7.92328,2.5696 -7.92328,2.5696c0,0 0.59017,-9.4576 1.96313,-11.95402c1.373,-2.49642 5.62989,-3.55038 5.62989,-3.55038z" fill="#cf7d14" stroke="#000000" stroke-width="0" stroke-linecap="round"/><path d="M220.8646,195.43791l11.08298,7.95356l-5.83699,8.87115c0,0 -3.61045,-0.9388 -5.32657,-2.26232c-2.21661,-1.70951 -6.86004,-7.13639 -6.86004,-7.13639z" fill="url(#color-4)" stroke="#000000" stroke-width="0" stroke-linecap="round"/><path d="M219.23622,197.43326c0,0 0.43729,5.24327 2.42837,7.65741c1.99111,2.41417 7.12388,3.04012 7.12388,3.04012l-2.26815,2.91735c0,0 -7.04953,-3.65439 -7.13647,-3.35013c-0.29092,0.89885 6.74669,4.4871 6.74669,4.4871l-0.81009,1.04543c0,0 -4.77461,-1.90578 -6.78567,-3.92489c-2.01106,-2.01915 -4.42307,-6.31762 -4.42307,-6.31762z" fill="url(#color-5)" stroke="#000000" stroke-width="0" stroke-linecap="round"/><path d="M253.02375,197.37384l-0.70523,9.62888c0,0 -1.5713,2.22325 -2.82064,3.08498c-1.46698,1.01184 -5.43361,2.60842 -5.43361,2.60842l0.62004,-13.76901" data-paper-data="{&quot;index&quot;:null}" fill="url(#color-6)" stroke="#8a2b01" stroke-width="0" stroke-linecap="round"/><path d="M262.64653,196.20782l4.04688,9.04031c0,0 2.2156,2.08796 2.30374,3.83001c0.08813,1.74205 -1.43417,13.35985 -1.43417,13.35985l-8.36645,-0.91962l-1.56268,-2.394l-2.63396,2.01383l-3.47868,-0.75066l0.41855,-10.2536l-2.58785,-7.97485" fill="#b64404" stroke="#6b0000" stroke-width="0.5" stroke-linecap="round"/><path d="M266.17813,203.82587c0,0 -5.88608,4.04552 -8.46862,5.12544c-0.89023,0.37223 -6.89187,1.12762 -6.89187,1.12762l-3.08854,-10.11754l13.65869,-5.10049z" data-paper-data="{&quot;index&quot;:null}" fill="url(#color-7)" stroke="#000000" stroke-width="0" stroke-linecap="round"/><path d="M265.96468,203.89738c0,0 -3.43914,3.53093 -5.90295,4.96299c-2.46381,1.4321 -8.96526,2.23263 -8.96526,2.23263l-0.51299,-1.21903c0,0 9.12184,-1.84239 9.0726,-2.78586c-0.00551,-0.31641 -9.15593,1.58682 -9.15593,1.58682l-1.43892,-3.40366c0,0 6.51739,0.52832 9.0638,-1.29058c2.54641,-1.8189 4.32133,-6.77198 4.32133,-6.77198z" data-paper-data="{&quot;index&quot;:null}" fill="url(#color-8)" stroke="#000000" stroke-width="0" stroke-linecap="round"/><path d="M255.54898,212.05377l2.63397,-2.01386l1.9601,2.95265l0.96374,-3.77046l2.27685,3.98933l-1.29197,-4.97035l2.23079,0.37629l1.49362,-3.0256l2.30371,3.83001l-1.61844,12.50938l-6.16064,-1.36695l-2.43811,-3.03326l-2.07726,2.59937l-3.34618,-0.56442l0.04614,-9.98868z" fill="#cf7d14" stroke="#000000" stroke-width="0" stroke-linecap="round"/><path d="M214.71097,166.63667l4.85158,-11.11366c0,0 5.39826,-9.80684 7.28743,-11.26623c1.88917,-1.45939 10.81256,-9.46994 10.81256,-9.46994l0.55271,12.02397c0,0 6.62484,-11.7039 10.32817,-15.37386c2.41206,-2.39033 7.66307,-4.50793 7.66307,-4.50793c0,0 0.7592,6.54748 0.85862,9.87905c0.10181,3.41136 -0.25463,10.35538 -0.25463,10.35538l7.67352,-2.66467l2.09759,7.41707c0,0 0.93413,3.3744 1.03924,6.18918c0.11689,3.12935 0.30399,19.49667 0.30399,19.49667c0,0 6.10566,-1.33673 7.49283,2.62654c1.38717,3.96327 0.47115,11.13243 -2.52157,15.06078c-2.17174,2.85075 -6.15704,1.3059 -6.15704,1.3059c0,0 -7.84514,8.33187 -25.75347,9.85165c-13.53702,1.14886 -26.06232,-6.10409 -26.06232,-6.10409c0,0 -3.41922,0.89465 -5.9496,-0.41305c-3.18349,-1.64519 -6.62839,-8.8458 -5.48764,-15.62437c0.45519,-2.70473 5.41363,-3.35944 5.41363,-3.35944z" fill="none" stroke="#6b0000" stroke-width="1" stroke-linecap="round"/><path d="M214.71097,166.63667l4.85158,-11.11366c0,0 5.39826,-9.80684 7.28743,-11.26623c1.88917,-1.45939 10.81256,-9.46994 10.81256,-9.46994l0.55271,12.02397c0,0 6.62484,-11.7039 10.32817,-15.37386c2.41206,-2.39033 7.66307,-4.50793 7.66307,-4.50793c0,0 0.7592,6.54748 0.85862,9.87905c0.10181,3.41136 -0.25463,10.35538 -0.25463,10.35538l7.67352,-2.66467l2.09759,7.41707c0,0 0.93413,3.3744 1.03924,6.18918c0.11689,3.12935 0.30399,19.49667 0.30399,19.49667c0,0 6.10566,-1.33673 7.49283,2.62654c1.38717,3.96327 0.47115,11.13243 -2.52157,15.06078c-2.17174,2.85075 -6.15704,1.3059 -6.15704,1.3059c0,0 -7.84514,8.33187 -25.75347,9.85165c-13.53702,1.14886 -26.06232,-6.10409 -26.06232,-6.10409c0,0 -3.41922,0.89465 -5.9496,-0.41305c-3.18349,-1.64519 -6.62839,-8.8458 -5.48764,-15.62437c0.45519,-2.70473 5.41363,-3.35944 5.41363,-3.35944z" fill="#b53406" stroke="#6b0000" stroke-width="0" stroke-linecap="round"/><path d="M232.11152,170.52487c0,0 1.55695,-5.45946 3.78116,-8.5545c2.95504,-4.11198 12.38785,-13.94512 12.38785,-13.94512c0,0 -4.84455,10.17571 -5.82742,14.40848c-0.77381,3.33259 0.40597,8.93958 0.40597,8.93958z" fill="#a02802" stroke="#000000" stroke-width="0" stroke-linecap="round"/><path d="M233.11734,141.43159c0,0 -4.91476,9.80955 -6.20948,13.70549c-0.96201,2.89485 -0.86154,7.57212 -0.86154,7.57212l-8.47411,-0.63715c0,0 2.16854,-5.49076 4.41593,-8.47478c2.80832,-3.72881 11.12919,-12.16568 11.12919,-12.16568z" fill="#a02802" stroke="#000000" stroke-width="0" stroke-linecap="round"/><path d="M252.30156,170.15194l5.40821,-16.73317l0.80984,8.47698l3.33151,-11.98284l0.78579,20.46649z" fill="#a02802" stroke="#000000" stroke-width="0" stroke-linecap="round"/><path d="M248.12036,138.32638c-1.36713,2.27878 -2.79613,6.38546 -2.79613,6.38546l1.45946,-6.19856l-5.79883,5.36301c0,0 3.43565,-5.36329 5.69363,-7.75279c2.15668,-2.28229 7.56437,-6.27735 7.56437,-6.27735c0,0 -4.54655,5.8534 -6.1225,8.48023z" fill="#a02802" stroke="#000000" stroke-width="0" stroke-linecap="round"/><path d="M267.18779,192.32671l1.1751,-10.26793c0,0 3.54947,-1.06257 4.0454,0.81289c0.49599,1.87546 0.22273,6.02867 -1.4397,9.0395c-1.66243,3.01087 -3.78083,0.41554 -3.78083,0.41554z" data-paper-data="{&quot;index&quot;:null}" fill="#cd7d10" stroke="#8a2b01" stroke-width="0.25" stroke-linecap="round"/><path d="M212.45939,195.42157c0,0 -1.91961,2.59355 -3.51796,-0.41294c-1.59839,-3.00646 -1.92771,-7.15483 -1.50138,-9.02844c0.42633,-1.87361 3.74122,-0.81428 3.74122,-0.81428l1.27808,10.25564z" data-paper-data="{&quot;index&quot;:null}" fill="#cd7d10" stroke="#8a2b01" stroke-width="0.25" stroke-linecap="round"/><path d="M265.9747,194.96108c0,0 -5.29574,10.91584 -25.41141,11.88792c-18.95446,0.91595 -28.25993,-12.07815 -28.25993,-12.07815l-0.23763,-9.22116c0,0 0.30923,-4.19772 8.82343,-4.64287c15.11781,-1.90051 19.73802,10.81232 19.73802,10.81232c0,0 2.60304,-11.29681 19.37814,-13.40555c4.05208,-0.50938 7.3825,1.57917 7.3825,1.57917z" fill="url(#color-9)" stroke="#8a2b01" stroke-width="0.5" stroke-linecap="round"/><path d="M234.38241,201.25582c-1.76977,3.79747 -6.6176,4.86445 -10.82802,2.38312c-4.21043,-2.48135 -6.18894,-7.57135 -4.41917,-11.36888c1.76977,-3.79747 6.6176,-4.86445 10.82802,-2.38312c4.21043,2.48135 6.18894,7.57135 4.41917,11.36888z" fill="#ffffff" stroke="#954116" stroke-width="0" stroke-linecap="butt"/><path d="M250.21919,188.73617c4.08075,-2.91321 9.10989,-2.36055 11.23295,1.23446c2.12306,3.59495 0.536,8.87091 -3.54478,11.78412c-4.08075,2.91321 -9.10992,2.36055 -11.23295,-1.23443c-2.12306,-3.59495 -0.53599,-8.87094 3.54478,-11.78421z" data-paper-data="{&quot;index&quot;:null}" fill="#ffffff" stroke="#954116" stroke-width="0" stroke-linecap="butt"/><path d="M255.65745,187.21286l-7.55673,2.54832l-1.18776,-5.32066l8.08375,-2.93238z" data-paper-data="{&quot;index&quot;:null}" fill="#8d4f11" stroke="#602a0d" stroke-width="0" stroke-linecap="round"/><path d="M225.71529,182.79309l8.07192,2.96478l-1.2091,5.31588l-7.54647,-2.57865z" data-paper-data="{&quot;index&quot;:null}" fill="#8d4f11" stroke="#602a0d" stroke-width="0" stroke-linecap="round"/><path d="M249.42583,194.11521c1.27399,-0.07214 2.36612,1.41812 2.43938,3.32867c0.07322,1.91052 -0.90017,3.51779 -2.17416,3.58993c-1.27399,0.07214 -2.36612,-1.41812 -2.43938,-3.32867c-0.07322,-1.91052 0.90017,-3.51779 2.17416,-3.58993z" data-paper-data="{&quot;index&quot;:null}" fill="#df6500" stroke="none" stroke-width="0" stroke-linecap="butt"/><path d="M249.42562,194.22352c1.76796,-0.04755 2.04724,1.78862 2.04724,1.78862l-4.02073,0.25844c0,0 0.20569,-2.081 1.97345,-2.04706z" data-paper-data="{&quot;index&quot;:null}" fill="#8b2900" stroke="none" stroke-width="0" stroke-linecap="butt"/><path d="M229.93857,195.68392c1.49191,-0.06959 2.77147,1.37845 2.85801,3.23426c0.08651,1.85581 -1.05274,3.41659 -2.54464,3.48618c-1.49191,0.06959 -2.7715,-1.37841 -2.85804,-3.23423c-0.08651,-1.85581 1.05276,-3.41661 2.54467,-3.48618z" data-paper-data="{&quot;index&quot;:null}" fill="#df6500" stroke="none" stroke-width="0" stroke-linecap="butt"/><path d="M229.93835,195.78913c2.0704,-0.04546 2.3982,1.73819 2.3982,1.73819l-4.70845,0.24944c0,0 0.24005,-2.02126 2.31025,-1.98762z" data-paper-data="{&quot;index&quot;:null}" fill="#8b2900" stroke="none" stroke-width="0" stroke-linecap="butt"/><path d="M212.29376,168.17034l55.6327,0.12934l1.82876,13.21162c0,0 -1.79947,0.33595 -2.99958,1.06073c-1.20011,0.72478 -2.64134,5.28935 -11.15261,6.08125c-6.67156,0.62073 -9.20236,-4.51512 -15.79338,-4.46617c-6.59102,0.04895 -6.44647,5.66912 -17.8187,5.3273c-7.09325,-0.21321 -6.91472,-3.85452 -10.31123,-5.6788c-2.26161,-1.21474 -4.70758,-1.46079 -4.70758,-1.46079z" data-paper-data="{&quot;index&quot;:null}" fill="url(#color-10)" stroke="none" stroke-width="0" stroke-linecap="butt"/><path d="M269.49022,173.67386l-28.91107,0.32604c0,0 -0.03808,-0.64474 -0.03974,-0.97134c-0.03896,-7.67895 6.41459,-13.9368 14.41439,-13.97739c7.9998,-0.04059 14.51655,6.15146 14.55551,13.83041c0.00135,0.26589 -0.01909,0.79228 -0.01909,0.79228z" data-paper-data="{&quot;index&quot;:null}" fill="#d89400" stroke="none" stroke-width="0" stroke-linecap="butt"/><path d="M269.4926,174.74026c0.0269,5.30065 -3.59632,11.98656 -13.76273,13.09056c-8.32852,0.90442 -9.92782,-4.68648 -15.80591,-4.59291c-8.5927,0.13679 -10.21945,7.6413 -19.95582,5.2009c-7.23598,-1.81366 -11.73624,-9.6084 -11.75542,-13.38763c-0.00165,-0.32661 0.06869,-0.97192 0.06869,-0.97192l61.15818,-0.13093c0,0 0.05157,0.52606 0.05292,0.79195z" data-paper-data="{&quot;index&quot;:null}" fill="#efc524" stroke="none" stroke-width="0" stroke-linecap="butt"/><path d="M240.3537,173.28038l29.15689,-0.14793z" data-paper-data="{&quot;index&quot;:null}" fill="none" stroke="#be7e01" stroke-width="0.3" stroke-linecap="round"/><path d="M237.25924,174.44942l-28.91104,0.32604c0,0 -0.03812,-0.64474 -0.03977,-0.97135c-0.03896,-7.67895 6.4146,-13.93683 14.41443,-13.97742c7.9998,-0.04059 14.51652,6.15149 14.55548,13.83044c0.00135,0.26589 -0.01907,0.79228 -0.01907,0.79228z" data-paper-data="{&quot;index&quot;:null}" fill="#d89400" stroke="none" stroke-width="0" stroke-linecap="butt"/><path d="M219.24327,169.8803l-10.11299,-0.41841c0,0 2.33048,-8.09599 14.1647,-9.5515c3.60928,-0.44391 9.43376,4.5762 14.65823,4.48848c7.79476,-0.13089 12.10025,-6.64558 18.90271,-5.33682c9.48579,1.82503 12.07583,10.35487 12.07583,10.35487l-12.14352,0.83668c0,0 -4.15836,-1.15253 -19.49181,-1.01889c-15.33348,0.13364 -18.05309,0.64558 -18.05309,0.64558z" data-paper-data="{&quot;index&quot;:null}" fill="#efc224" stroke="#f6e143" stroke-width="0.125" stroke-linecap="round"/><path d="M213.25083,164.16049l16.03878,22.91442l-2.27608,1.02182l-15.8244,-21.91225z" data-paper-data="{&quot;index&quot;:null}" fill="#f9f65a" stroke="#000000" stroke-width="0" stroke-linecap="round"/><path d="M220.07582,160.25272l14.0301,20.37087l-5.54019,-0.00989l-12.44264,-18.70422z" data-paper-data="{&quot;index&quot;:null}" fill="#f9f65a" stroke="#000000" stroke-width="0" stroke-linecap="round"/><path d="M245.23012,162.62774l8.94867,11.95057l3.66692,12.8059l-1.83751,0.00343l-3.81578,-10.83179l-9.8255,-12.6927z" data-paper-data="{&quot;index&quot;:null}" fill="#f9f65a" stroke="#000000" stroke-width="0" stroke-linecap="round"/><path d="M248.44261,160.45022c0.86175,-0.31515 3.02681,-0.54856 3.02681,-0.54856l16.70572,20.41024c0,0 -1.61406,1.79458 -2.2802,2.64487c-0.62007,0.79152 -2.20795,1.88468 -2.20795,1.88468l-17.33141,-23.06947c0,0 1.24461,-1.01362 2.08703,-1.32176z" data-paper-data="{&quot;index&quot;:null}" fill="#f9f65a" stroke="#000000" stroke-width="0" stroke-linecap="round"/><path d="M264.99401,173.69357c0.02748,5.41662 -4.19016,9.82919 -9.42034,9.85572c-5.23018,0.02653 -9.49238,-4.34301 -9.51986,-9.75962c-0.02748,-5.41662 4.19016,-9.82915 9.42034,-9.85569c5.23018,-0.02653 9.49238,4.34297 9.51986,9.75959z" data-paper-data="{&quot;index&quot;:null}" fill="#c71a6e" stroke="none" stroke-width="0" stroke-linecap="butt"/><path d="M208.12271,174.05597l29.15689,-0.14793z" data-paper-data="{&quot;index&quot;:null}" fill="none" stroke="#be7e01" stroke-width="0.3" stroke-linecap="round"/><path d="M231.52792,174.07941c0.0262,5.16311 -4.14682,9.36988 -9.32066,9.39613c-5.17384,0.02625 -9.38936,-4.13796 -9.41555,-9.30106c-0.0262,-5.16311 4.14682,-9.36992 9.3207,-9.39617c5.17384,-0.02625 9.38932,4.138 9.41552,9.3011z" data-paper-data="{&quot;index&quot;:null}" fill="#c71a6e" stroke="none" stroke-width="0" stroke-linecap="butt"/><path d="M224.16323,165.20522c0,0 7.94239,2.96101 14.62613,2.80701c6.68374,-0.154 14.38691,-3.77741 14.38691,-3.77741l-0.52237,18.73056c0,0 -6.85529,-2.64064 -13.8019,-2.60539c-6.94662,0.03525 -15.41902,3.16525 -15.41902,3.16525z" data-paper-data="{&quot;index&quot;:null}" fill="#c71a6e" stroke="#000000" stroke-width="0" stroke-linecap="round"/><path d="M229.80325,181.6407l-9.55119,-16.62144c0,0 1.59265,-0.44626 2.45696,-0.33918c1.16978,0.14491 3.92689,1.13 3.92689,1.13l9.95337,14.76719z" data-paper-data="{&quot;index&quot;:null}" fill="#ff9fec" stroke="#000000" stroke-width="0" stroke-linecap="round"/><path d="M242.69739,167.5808l9.95651,15.38457l-11.74394,-2.61583l-8.91604,-13.12604z" data-paper-data="{&quot;index&quot;:null}" fill="#ff9fec" stroke="#000000" stroke-width="0" stroke-linecap="round"/><path d="M215.62421,185.82866c0,0 4.93562,1.52726 8.60509,1.22625c4.26388,-0.34976 12.22221,-4.10273 14.42838,-4.43013c1.73711,-0.25781 8.18237,2.40868 13.40291,3.60429c4.52277,1.03582 8.02179,0.60884 8.02179,0.60884c0,0 -2.66898,1.62452 -7.81606,0.86286c-5.114,-0.75675 -7.86082,-4.85416 -13.40075,-4.66544c-5.53994,0.18873 -7.19637,5.3256 -15.40545,5.84059c-6.15966,0.38645 -7.8359,-3.04726 -7.8359,-3.04726z" data-paper-data="{&quot;index&quot;:null}" fill="#da9700" stroke="#000000" stroke-width="0" stroke-linecap="round"/></g></g></svg>