<svg version="1.1" xmlns="http://www.w3.org/2000/svg" xmlns:xlink="http://www.w3.org/1999/xlink" width="18.44475" height="15.19631" viewBox="0,0,18.44475,15.19631"><defs><linearGradient x1="240.00001" y1="172.40185" x2="240.00001" y2="187.59815" gradientUnits="userSpaceOnUse" id="color-1"><stop offset="0" stop-color="#fdf32e"/><stop offset="1" stop-color="#fa7110"/></linearGradient></defs><g transform="translate(-230.77763,-172.40185)"><g data-paper-data="{&quot;isPaintingLayer&quot;:true}" fill-rule="nonzero" stroke="#000000" stroke-width="0" stroke-linecap="round" stroke-linejoin="miter" stroke-miterlimit="10" stroke-dasharray="" stroke-dashoffset="0" style="mix-blend-mode: normal"><path d="M235.02431,172.40185c0,0 2.11437,3.28898 5.62149,3.33323c2.43095,0.03067 4.6204,-2.41729 4.6204,-2.41729c0,0 3.85097,1.98245 3.9552,6.74466c0.07691,5.26251 -4.37153,7.32753 -4.37153,7.32753l-2.08168,0.20817c0,0 -2.63928,-0.81535 -4.53808,-0.83268c-2.76576,-0.02524 -7.46951,0.55317 -7.45243,-6.12015c0.00305,-1.19038 1.05296,-2.86268 1.05296,-2.86268c0,0 0.93984,0.80914 1.53857,0.03893c1.16047,-1.49283 1.6551,-5.41973 1.6551,-5.41973z" fill="url(#color-1)"/><path d="M239.52076,176.35705c0,0 1.46962,2.0557 2.41475,2.24822c0.94512,0.19253 2.08168,-1.33228 2.08168,-1.33228c0,0 2.13197,2.11084 2.04005,4.66297c-0.1234,3.42597 -3.87194,4.87114 -3.87194,4.87114c0,0 -0.41682,-1.15504 -1.08247,-1.49881c-0.8002,-0.41327 -5.42541,-0.01532 -6.86956,-1.16574c-1.44415,-1.15042 -0.33307,-4.74624 -0.33307,-4.74624c0,0 1.54658,2.0627 2.87272,1.49881c0.89897,-0.38225 2.74782,-4.53807 2.74782,-4.53807z" fill="#ffffaf"/></g></g></svg>