<svg version="1.1" xmlns="http://www.w3.org/2000/svg" xmlns:xlink="http://www.w3.org/1999/xlink" width="31.2874" height="32.80144" viewBox="0,0,31.2874,32.80144"><defs><linearGradient x1="244.24615" y1="176.7891" x2="244.24615" y2="171.25969" gradientUnits="userSpaceOnUse" id="color-1"><stop offset="0" stop-color="#df9431"/><stop offset="1" stop-color="#a15a17"/></linearGradient><linearGradient x1="232.67879" y1="180.45944" x2="248.26702" y2="180.45944" gradientUnits="userSpaceOnUse" id="color-2"><stop offset="0" stop-color="#c07901"/><stop offset="1" stop-color="#e29c1c"/></linearGradient><linearGradient x1="222.00399" y1="171.47973" x2="226.43648" y2="171.47973" gradientUnits="userSpaceOnUse" id="color-3"><stop offset="0" stop-color="#a24f1b"/><stop offset="1" stop-color="#9e4a17"/></linearGradient><linearGradient x1="248.2082" y1="180.48885" x2="251.56113" y2="180.48885" gradientUnits="userSpaceOnUse" id="color-4"><stop offset="0" stop-color="#bf7100"/><stop offset="1" stop-color="#c27600"/></linearGradient><linearGradient x1="232.73761" y1="189.51826" x2="248.32585" y2="189.51826" gradientUnits="userSpaceOnUse" id="color-5"><stop offset="0" stop-color="#c07901"/><stop offset="1" stop-color="#e29c1c"/></linearGradient><linearGradient x1="248.2082" y1="189.48885" x2="251.67878" y2="189.48885" gradientUnits="userSpaceOnUse" id="color-6"><stop offset="0" stop-color="#bf7100"/><stop offset="1" stop-color="#c27600"/></linearGradient></defs><g transform="translate(-221.0025,-163.62831)"><g data-paper-data="{&quot;isPaintingLayer&quot;:true}" fill-rule="nonzero" stroke-linejoin="miter" stroke-miterlimit="10" stroke-dasharray="" stroke-dashoffset="0" style="mix-blend-mode: normal"><path d="M239.96139,171.08475l4.91667,0.5l-1.08333,4.58334l-3.91667,0.16666z" fill="none" stroke="#692206" stroke-width="1" stroke-linecap="round"/><path d="M238.26435,167.60312c0,0 1.15997,-1.32771 1.60907,-1.47976c0.35524,-0.12027 3.66029,0.05388 3.44027,1.62205c-0.13648,0.97267 -2.0695,0.14437 -2.68531,0.2502c-0.68021,0.1169 -0.97451,0.84834 -0.97451,0.84834" fill="none" stroke="#692206" stroke-width="1" stroke-linecap="round"/><path d="M240.49511,175.53043l1.48431,2.17115l1.54207,1.89438l-0.68963,1.53971l-0.26175,2.29091l-2.86906,-3.78253l-1.85458,-2.44258" data-paper-data="{&quot;index&quot;:null}" fill="none" stroke="#692206" stroke-width="1" stroke-linecap="round"/><path d="M239.57963,171.13486c0,0 2.56476,-2.83029 3.51648,-3.37989c0.89069,-0.51435 2.80861,-0.6047 2.80861,-0.6047l2.80147,1.0545l-0.10665,2.66749l-2.62742,0.76179l0.07494,1.18807l-1.72574,0.02854l-0.31446,-1.29288l-1.9152,0.27458" fill="none" stroke="#692206" stroke-width="1" stroke-linecap="round"/><path d="M233.39547,180.2934c0,0 -4.74065,-0.54268 -5.37415,-1.20061c-0.71914,-0.74688 -2.76729,-1.59537 -2.11808,-7.49706c0.57862,-4.75082 3.10517,-5.07265 3.66177,-5.52231c1.0592,-0.85568 4.98967,-0.22347 4.98967,-0.22347c0,0 -0.12067,-1.52714 0.88797,-1.73161c1.00865,-0.20447 2.71877,0.25737 3.57267,1.11521c0.61966,0.62252 0.11147,1.53859 0.11147,1.53859c0,0 1.76105,2.18311 1.53202,6.58215c-0.17312,3.32526 -2.35249,6.12429 -2.35249,6.12429c0,0 0.10304,0.8601 -0.29898,1.43082c-0.50578,0.71803 -2.36919,1.31402 -3.97698,0.81066c-0.64153,-0.20085 -0.63491,-1.42666 -0.63491,-1.42666z" fill="none" stroke="#692206" stroke-width="1" stroke-linecap="round"/><path d="M243.12851,171.5538l2.17647,-0.29412l0.17647,1.64706l-0.82353,0.29412l1,1.29412l-0.35294,2.29412h-1.35294l-1.11765,-1.64706" fill="none" stroke="#692206" stroke-width="1" stroke-linecap="round"/><path d="M243.12851,171.55381l2.17647,-0.29412l0.17647,1.64706l-0.82353,0.29412l1,1.29412l-0.35294,2.29412h-1.35294l-1.11765,-1.64706" fill="url(#color-1)" stroke="#692206" stroke-width="0" stroke-linecap="round"/><path d="M238.6343,185.16498c0,4.15748 -1.9099,7.52778 -4.26588,7.52778c-2.35598,0 -6.55159,-3.37031 -6.55159,-7.52778c0,-4.15747 4.19562,-7.52778 6.55159,-7.52778c2.35598,0 4.26588,3.37031 4.26588,7.52778z" fill="none" stroke="#434343" stroke-width="1" stroke-linecap="butt"/><path d="M249.38312,186.1929h-13.26467v-2.48286h13.26467z" fill="none" stroke="#434343" stroke-width="1" stroke-linecap="butt"/><path d="M245.79925,188.16197h-13.75v-6.58333h13.75z" fill="#434343" stroke="none" stroke-width="0" stroke-linecap="butt"/><path d="M236.52967,191.05269h4.04869v3.25029h-4.04869z" fill="none" stroke="#434343" stroke-width="1" stroke-linecap="butt"/><path d="M236.76782,194.30298h-4.70362v-3.25029h4.70362z" fill="none" stroke="#434343" stroke-width="1" stroke-linecap="butt"/><path d="M247.44352,190.77006h4.04869v3.25029h-4.04869z" fill="none" stroke="#434343" stroke-width="1" stroke-linecap="butt"/><path d="M247.68168,194.02035h-4.70362v-3.25029h4.70362z" fill="none" stroke="#434343" stroke-width="1" stroke-linecap="butt"/><path d="M237.08082,195.92975h-1.36423v-0.75075h1.36423z" fill="none" stroke="#434343" stroke-width="1" stroke-linecap="butt"/><path d="M236.4855,194.21466h1.36438v1.1482h-1.36438z" fill="none" stroke="#434343" stroke-width="1" stroke-linecap="butt"/><path d="M236.56577,195.36286h-1.58508v-1.1482h1.58508z" fill="none" stroke="#434343" stroke-width="1" stroke-linecap="butt"/><path d="M247.95065,175.13687h-1.36423v-0.75074h1.36423z" data-paper-data="{&quot;index&quot;:null}" fill="none" stroke="#434343" stroke-width="1" stroke-linecap="butt"/><path d="M247.35535,174.95301h1.36438v1.1482h-1.36438z" data-paper-data="{&quot;index&quot;:null}" fill="none" stroke="#434343" stroke-width="1" stroke-linecap="butt"/><path d="M247.43561,176.10121h-1.58509v-1.1482h1.58509z" data-paper-data="{&quot;index&quot;:null}" fill="none" stroke="#434343" stroke-width="1" stroke-linecap="butt"/><path d="M247.39951,176.01289h4.04869v3.04715h-4.04869z" data-paper-data="{&quot;index&quot;:null}" fill="none" stroke="#434343" stroke-width="1" stroke-linecap="butt"/><path d="M247.63767,179.06003h-4.70362v-3.04715h4.70362z" data-paper-data="{&quot;index&quot;:null}" fill="none" stroke="#434343" stroke-width="1" stroke-linecap="butt"/><path d="M247.99467,195.66478h-1.36423v-0.75074h1.36423z" fill="none" stroke="#434343" stroke-width="1" stroke-linecap="butt"/><path d="M247.39936,193.94969h1.36438v1.1482h-1.36438z" fill="none" stroke="#434343" stroke-width="1" stroke-linecap="butt"/><path d="M247.47962,195.09789h-1.58508v-1.1482h1.58508z" fill="none" stroke="#434343" stroke-width="1" stroke-linecap="butt"/><path d="M248.33661,181.96892h-15.77796v-3.16665h15.77796z" fill="none" stroke="#434343" stroke-width="1" stroke-linecap="butt"/><path d="M251.67082,182.02867h-3.39375v-3.22639h3.39375z" fill="none" stroke="#434343" stroke-width="1" stroke-linecap="butt"/><path d="M248.39615,191.17011h-15.77796v-3.16665h15.77796z" fill="none" stroke="#434343" stroke-width="1" stroke-linecap="butt"/><path d="M251.7899,191.17011h-3.51283v-3.22639h3.51283z" fill="none" stroke="#434343" stroke-width="1" stroke-linecap="butt"/><path d="M239.40745,188.28482h-5.69565v-6.69565h5.69565z" fill="#a66a02" stroke="none" stroke-width="0" stroke-linecap="butt"/><path d="M248.9292,187.80656h-3.56522v-6h3.56522z" fill="#7f4e0c" stroke="none" stroke-width="0" stroke-linecap="butt"/><path d="M249.01615,186.80656h-3.65217v-3.56522h3.65217z" fill="#6c706e" stroke="none" stroke-width="0" stroke-linecap="butt"/><path d="M249.32273,186.17688h-13.10516v-2.44444h13.10516z" fill="#86500c" stroke="none" stroke-width="0" stroke-linecap="butt"/><path d="M236.60206,190.96149h4v3.2h-4z" fill="#5d5d5f" stroke="none" stroke-width="0" stroke-linecap="butt"/><path d="M236.83735,194.16149h-4.64706v-3.2h4.64706z" fill="#71716e" stroke="none" stroke-width="0" stroke-linecap="butt"/><path d="M247.38467,190.68323h4v3.2h-4z" fill="#5d5d5f" stroke="none" stroke-width="0" stroke-linecap="butt"/><path d="M247.61997,193.88323h-4.64706v-3.2h4.64706z" fill="#71716e" stroke="none" stroke-width="0" stroke-linecap="butt"/><path d="M237.14658,195.76308h-1.34783v-0.73913h1.34783z" fill="#434343" stroke="none" stroke-width="0" stroke-linecap="butt"/><path d="M236.55844,194.07454h1.34798v1.13043h-1.34798z" fill="#3f3e3e" stroke="none" stroke-width="0" stroke-linecap="butt"/><path d="M236.63773,195.20497h-1.56602v-1.13043h1.56602z" fill="#5c5c5c" stroke="none" stroke-width="0" stroke-linecap="butt"/><path d="M240.62485,194.16284h-8.39131v-0.74759h8.39131z" fill="#8b8b8b" stroke="none" stroke-width="0" stroke-linecap="butt"/><path d="M247.88571,175.29192h-1.34783v-0.73913h1.34783z" data-paper-data="{&quot;index&quot;:null}" fill="#434343" stroke="none" stroke-width="0" stroke-linecap="butt"/><path d="M247.29757,175.1109h1.34797v1.13043h-1.34797z" data-paper-data="{&quot;index&quot;:null}" fill="#3f3e3e" stroke="none" stroke-width="0" stroke-linecap="butt"/><path d="M247.37685,176.24134h-1.56602v-1.13043h1.56602z" data-paper-data="{&quot;index&quot;:null}" fill="#5c5c5c" stroke="none" stroke-width="0" stroke-linecap="butt"/><path d="M247.34119,176.15438h4v3h-4z" data-paper-data="{&quot;index&quot;:null}" fill="#5d5d5f" stroke="none" stroke-width="0" stroke-linecap="butt"/><path d="M247.57649,179.15438h-4.64706v-3h4.64706z" data-paper-data="{&quot;index&quot;:null}" fill="#71716e" stroke="none" stroke-width="0" stroke-linecap="butt"/><path d="M251.36398,176.90062h-8.3913v-0.74759h8.3913z" data-paper-data="{&quot;index&quot;:null}" fill="#8b8b8b" stroke="none" stroke-width="0" stroke-linecap="butt"/><path d="M247.9292,195.50221h-1.34783v-0.73913h1.34783z" fill="#434343" stroke="none" stroke-width="0" stroke-linecap="butt"/><path d="M247.34105,193.81367h1.34798v1.13043h-1.34798z" fill="#3f3e3e" stroke="none" stroke-width="0" stroke-linecap="butt"/><path d="M247.42033,194.9441h-1.56602v-1.13043h1.56602z" fill="#5c5c5c" stroke="none" stroke-width="0" stroke-linecap="butt"/><path d="M248.26702,182.01826h-15.58823v-3.11765h15.58823z" fill="url(#color-2)" stroke="none" stroke-width="0" stroke-linecap="butt"/><path d="M248.59947,168.34694l-0.29985,2.52126l-2.45806,0.76163l-0.19224,1.02253l-1.09115,0.05584l-0.52054,-2.20821l0.843,-0.38918l-0.6615,-0.67002l0.62338,-0.60201l-0.66213,-0.79003l0.37287,-0.57724c0,0 0.72843,-0.24484 1.25528,-0.13086c0.74487,0.16116 2.79092,1.00627 2.79092,1.00627z" fill="none" stroke="#692206" stroke-width="1" stroke-linecap="round"/><path d="M226.05129,173.22102l-2.55737,-0.08522l1.12172,-0.68419l-2.54023,-1.50111l2.86572,-0.48588l-0.84567,-0.72618l2.34101,0.39351c0,0 -0.01712,0.88513 -0.08948,1.62982c-0.09898,1.01877 -0.29571,1.45926 -0.29571,1.45926z" fill="none" stroke="#692206" stroke-width="0.75" stroke-linecap="round"/><path d="M239.96139,171.08476l4.91667,0.5l-1.08333,4.58334l-3.91667,0.16666z" fill="#a6521b" stroke="#692206" stroke-width="0" stroke-linecap="round"/><path d="M242.1559,172.08477c1.08378,0 1.96236,0.82317 1.96236,1.83862c0,1.01544 -0.87858,1.83862 -1.96236,1.83862c-0.41741,0 -1.06689,-0.74203 -1.06689,-0.74203c0,0 -1.21283,1.34588 -0.89546,-1.09658c0.41715,-3.21034 1.15302,-1.49898 1.15302,-1.49898c0,0 0.52077,-0.33963 0.80934,-0.33963z" fill="#df9431" stroke="none" stroke-width="0" stroke-linecap="butt"/><path d="M238.26435,167.60313c0,0 1.15997,-1.32771 1.60907,-1.47976c0.35524,-0.12027 3.66029,0.05388 3.44027,1.62205c-0.13648,0.97267 -2.0695,0.14437 -2.68531,0.2502c-0.68021,0.1169 -0.97451,0.84834 -0.97451,0.84834" fill="#a6521b" stroke="#692206" stroke-width="0" stroke-linecap="round"/><path d="M240.49511,175.53044l1.48431,2.17115l1.54207,1.89438l-0.68963,1.53971l-0.26175,2.29091l-2.86906,-3.78253l-1.85458,-2.44258" data-paper-data="{&quot;index&quot;:null}" fill="#a6521b" stroke="#692206" stroke-width="0" stroke-linecap="round"/><path d="M239.83816,179.72132l0.24347,-0.49957l0.80705,-0.07034l0.15915,-0.64369l0.72486,-0.00737l0.09723,-0.62234l1.57946,1.56705l-0.45083,1.26919l-0.53851,2.77319z" data-paper-data="{&quot;index&quot;:null}" fill="#df9431" stroke="#692206" stroke-width="0" stroke-linecap="round"/><path d="M239.57963,171.13487c0,0 2.56476,-2.83029 3.51648,-3.37989c0.89069,-0.51435 2.80861,-0.6047 2.80861,-0.6047l2.80147,1.0545l-0.10665,2.66749l-2.62742,0.76179l0.07494,1.18807l-1.72574,0.02854l-0.31446,-1.29288l-1.9152,0.27458" fill="#a6521b" stroke="#692206" stroke-width="0" stroke-linecap="round"/><path d="M248.59947,168.34695l-0.29985,2.52126l-2.45806,0.76163l-0.19224,1.02253l-1.09115,0.05584l-0.52054,-2.20821l0.843,-0.38918l-0.6615,-0.67002l0.62338,-0.60201l-0.66213,-0.79003l0.37287,-0.57724c0,0 0.72843,-0.24484 1.25528,-0.13086c0.74487,0.16116 2.79092,1.00627 2.79092,1.00627z" fill="#df9431" stroke="#692206" stroke-width="0" stroke-linecap="round"/><path d="M233.39547,180.29341c0,0 -4.74065,-0.54268 -5.37415,-1.20061c-0.71914,-0.74688 -2.76729,-1.59537 -2.11808,-7.49706c0.57862,-4.75082 3.10517,-5.07265 3.66177,-5.52231c1.0592,-0.85568 4.98967,-0.22347 4.98967,-0.22347c0,0 -0.12067,-1.52714 0.88797,-1.73161c1.00865,-0.20447 2.71877,0.25737 3.57267,1.11521c0.61966,0.62252 0.11147,1.53859 0.11147,1.53859c0,0 1.76105,2.18311 1.53202,6.58215c-0.17312,3.32526 -2.35249,6.12429 -2.35249,6.12429c0,0 0.10304,0.8601 -0.29898,1.43082c-0.50578,0.71803 -2.36919,1.31402 -3.97698,0.81066c-0.64153,-0.20085 -0.63491,-1.42666 -0.63491,-1.42666z" fill="#a6521b" stroke="#692206" stroke-width="0" stroke-linecap="round"/><path d="M238.10543,166.52065l-2.45389,-0.62822c0,0 -0.13947,-0.89732 0.33247,-0.95511c0.47194,-0.05779 1.47125,0.14724 2.14678,0.65144c0.67554,0.5042 -0.02536,0.9319 -0.02536,0.9319z" data-paper-data="{&quot;index&quot;:null}" fill="#df9431" stroke="#954116" stroke-width="0" stroke-linecap="round"/><path d="M237.02921,179.91249c0,0 0.56563,0.55271 -0.21775,0.8404c-0.78338,0.28769 -1.80163,0.22913 -2.24232,0.06304c-0.44069,-0.16609 -0.07277,-0.93559 -0.07277,-0.93559l2.53283,0.03216z" data-paper-data="{&quot;index&quot;:null}" fill="#df9431" stroke="#954116" stroke-width="0" stroke-linecap="round"/><path d="M235.38562,173.07548c0,0 -3.14619,-2.54493 -2,-5.01649c1.49751,-3.22915 3.47115,-1.6433 5.67778,-0.78034c0.76632,0.29969 1.11313,4.31557 1.11313,4.31557l0.40909,0.24352l-0.3,3.64762l-0.43636,0.0067c0,0 -0.90357,2.96029 -2.0101,4.03936c-0.68858,0.67149 -4.25354,0.45565 -4.25354,0.45565c0,0 -2.17627,-0.77774 -1.7,-2.89841c0.64676,-2.87978 3.5,-4.01319 3.5,-4.01319z" fill="#df9431" stroke="none" stroke-width="0" stroke-linecap="round"/><path d="M235.16406,174.96569c1.13321,-0.7888 2.59538,-0.6474 3.26586,0.31583c0.67048,0.96323 0.29537,2.38353 -0.83784,3.17233c-1.13321,0.7888 -2.59538,0.6474 -3.26586,-0.31583c-0.67048,-0.96323 -0.29537,-2.38353 0.83784,-3.17233z" fill="#ffffff" stroke="none" stroke-width="0" stroke-linecap="butt"/><path d="M234.17909,169.64362l0.59748,2.06894l-1.4495,0.25705l-0.6948,-2.21568z" data-paper-data="{&quot;index&quot;:null}" fill="#773710" stroke="none" stroke-width="0" stroke-linecap="round"/><path d="M231.82345,176.49105l1.32631,-1.90601l1.30606,0.67925l-1.18951,1.79514z" data-paper-data="{&quot;index&quot;:null}" fill="#773710" stroke="none" stroke-width="0" stroke-linecap="round"/><path d="M234.82622,168.86485c0.67048,-0.96323 2.13266,-1.10462 3.26586,-0.31582c1.13321,0.7888 1.50832,2.2091 0.83784,3.17232c-0.67048,0.96323 -2.13266,1.10462 -3.26586,0.31583c-1.13321,-0.7888 -1.50832,-2.2091 -0.83784,-3.17233z" data-paper-data="{&quot;index&quot;:null}" fill="#ffffff" stroke="none" stroke-width="0" stroke-linecap="butt"/><path d="M236.87192,176.46331c-0.51655,0.03623 -0.95891,-0.27104 -0.98804,-0.6863c-0.02913,-0.41527 0.366,-0.78128 0.88256,-0.81751c0.51655,-0.03623 0.95891,0.27103 0.98804,0.6863c0.02913,0.41527 -0.366,0.78128 -0.88256,0.81751z" data-paper-data="{&quot;index&quot;:null}" fill="#3d0a00" stroke="none" stroke-width="0" stroke-linecap="butt"/><path d="M238.25448,171.27701c-0.02912,0.41526 -0.47148,0.72253 -0.98804,0.6863c-0.51656,-0.03623 -0.91169,-0.40224 -0.88256,-0.8175c0.02912,-0.41526 0.47149,-0.72253 0.98804,-0.6863c0.51656,0.03623 0.91168,0.40224 0.88256,0.8175z" data-paper-data="{&quot;index&quot;:null}" fill="#3d0a00" stroke="none" stroke-width="0" stroke-linecap="butt"/><path d="M226.05129,173.22102l-2.70022,-0.08522l0.90743,-0.61277l-2.25451,-1.57255l2.43715,-0.62874l-0.55996,-0.58331l2.5553,0.3935c0,0 -0.01712,0.88514 -0.08948,1.62982c-0.09898,1.01877 -0.29571,1.45926 -0.29571,1.45926z" fill="url(#color-3)" stroke="#692206" stroke-width="0" stroke-linecap="round"/><path d="M251.56113,182.07709h-3.35294v-3.17647h3.35294z" fill="url(#color-4)" stroke="none" stroke-width="0" stroke-linecap="butt"/><path d="M237.02921,179.91248c0,0 0.56563,0.55271 -0.21775,0.8404c-0.78338,0.28769 -1.80163,0.22913 -2.24232,0.06304c-0.44069,-0.16609 -0.07277,-0.93559 -0.07277,-0.93559l2.53283,0.03216z" data-paper-data="{&quot;index&quot;:null}" fill="#df9431" stroke="#954116" stroke-width="0.25" stroke-linecap="round"/><path d="M248.32584,191.07709h-15.58823v-3.11765h15.58823z" fill="url(#color-5)" stroke="none" stroke-width="0" stroke-linecap="butt"/><path d="M251.67878,191.07709h-3.47059v-3.17647h3.47059z" fill="url(#color-6)" stroke="none" stroke-width="0" stroke-linecap="butt"/><path d="M251.40745,193.90197h-8.39131v-0.74759h8.39131z" fill="#8b8b8b" stroke="none" stroke-width="0" stroke-linecap="butt"/><path d="M242.01173,184.85172c0,-0.5113 -0.32983,-1.56372 -0.32983,-1.56372c0,0 1.04536,0.19286 1.28426,0.33872c0.1293,0.07895 0.19998,0.46683 0.19998,0.46683c0,0 0.25972,-0.24816 0.39536,-0.25488c0.17369,-0.00861 0.66009,0.16011 0.66009,0.16011l-0.03299,1.99019c0,0 -0.48592,0.03399 -0.6349,0.06824c-0.11913,0.02738 -0.35458,-0.16301 -0.35458,-0.16301c0,0 -0.18669,0.36705 -0.36669,0.44904c-0.24838,0.11314 -1.15054,0.16698 -1.15054,0.16698c0,0 0.32983,-1.0999 0.32983,-1.65849z" fill="#7c7c7f" stroke="none" stroke-width="0" stroke-linecap="butt"/><path d="M238.70571,185.09355c0,4.15748 -1.9099,7.52778 -4.26587,7.52778c-2.35598,0 -6.55159,-3.3703 -6.55159,-7.52778c0,-4.15748 4.19561,-7.52778 6.55159,-7.52778c2.35598,0 4.26587,3.3703 4.26587,7.52778z" fill="#7f7f7b" stroke="#434343" stroke-width="0" stroke-linecap="butt"/><path d="M238.08538,184.89899c0,3.4978 -1.28096,6.33333 -2.86111,6.33333c-1.58015,0 -2.86111,-2.83553 -2.86111,-6.33333c0,-3.4978 1.28096,-6.33333 2.86111,-6.33333c1.58015,0 2.86111,2.83553 2.86111,6.33333z" fill="#40403e" stroke="#434343" stroke-width="0" stroke-linecap="butt"/></g></g></svg>