<svg version="1.1" xmlns="http://www.w3.org/2000/svg" xmlns:xlink="http://www.w3.org/1999/xlink" width="31.14015" height="41.11209" viewBox="0,0,31.14015,41.11209"><g transform="translate(-224.42992,-159.44396)"><g data-paper-data="{&quot;isPaintingLayer&quot;:true}" fill="#ffffff" fill-rule="nonzero" stroke="#000000" stroke-width="0.5" stroke-linecap="square" stroke-linejoin="miter" stroke-miterlimit="10" stroke-dasharray="" stroke-dashoffset="0" style="mix-blend-mode: normal"><path d="M255.32003,188.07727c0,1.48355 -0.20293,2.81313 -0.60882,3.98878c-0.39888,1.17565 -0.95171,2.21833 -1.65849,3.12805c-0.70678,0.90973 -1.54303,1.68648 -2.50873,2.33029c-0.96571,0.6438 -2.02238,1.17215 -3.17003,1.58502c-1.14765,0.41287 -2.35477,0.71728 -3.62139,0.91322c-1.26661,0.18895 -2.55423,0.28342 -3.86282,0.28342c-1.85443,0 -3.68787,-0.24843 -5.50032,-0.74527c-1.80545,-0.49685 -3.42896,-1.25262 -4.87051,-2.2673c-1.44155,-1.02168 -2.6102,-2.2953 -3.50592,-3.82083c-0.88872,-1.52554 -1.3331,-3.32398 -1.3331,-5.39536c0,-0.84675 0.10147,-1.69698 0.3044,-2.55072c0.20293,-0.85374 0.49686,-1.66549 0.88173,-2.43526c0.38488,-0.77676 0.87122,-1.47655 1.45905,-2.09936c0.58783,-0.62281 1.26661,-1.14765 2.03638,-1.57452c-1.21063,-1.07767 -2.12036,-2.31979 -2.72918,-3.72635c-0.60182,-1.40658 -0.90272,-2.91811 -0.90272,-4.53461c0,-1.88942 0.41638,-3.54442 1.24913,-4.96498c0.83975,-1.42755 1.93491,-2.6242 3.2855,-3.58991c1.35058,-0.96571 2.86913,-1.68998 4.55561,-2.17283c1.69348,-0.48985 3.38346,-0.73478 5.06996,-0.73478c1.11966,0 2.24281,0.11197 3.36947,0.3359c1.13365,0.21693 2.22183,0.53883 3.2645,0.96571c1.04968,0.41987 2.02938,0.95171 2.93911,1.59551c0.90973,0.6368 1.70048,1.38557 2.37227,2.2463c0.67179,0.85374 1.20013,1.80895 1.58502,2.86563c0.38488,1.04968 0.57733,2.20083 0.57733,3.45345c0,1.6165 -0.30441,3.12805 -0.91323,4.53461c-0.60182,1.40658 -1.50805,2.64868 -2.71867,3.72635c1.76346,0.92372 3.03008,2.10985 3.79984,3.55841c0.76977,1.44855 1.15465,3.14903 1.15465,5.10143zM244.46638,173.80163c0,-0.60882 -0.13296,-1.15465 -0.39888,-1.6375c-0.26592,-0.48985 -0.61931,-0.90973 -1.06018,-1.25962c-0.44087,-0.3499 -0.93422,-0.6158 -1.48005,-0.79775c-0.53883,-0.18195 -1.08467,-0.27292 -1.63751,-0.27292c-0.56683,0 -1.12665,0.09097 -1.67948,0.27292c-0.55283,0.18195 -1.04968,0.44785 -1.49055,0.79775c-0.44087,0.3499 -0.79425,0.76977 -1.06018,1.25962c-0.26592,0.48285 -0.39888,1.02868 -0.39888,1.6375c0,0.60882 0.13296,1.15814 0.39888,1.648c0.26592,0.48285 0.61931,0.88873 1.06018,1.21763c0.44087,0.3289 0.93772,0.58782 1.49055,0.77676c0.55283,0.18195 1.11265,0.27292 1.67948,0.27292c0.55283,0 1.09867,-0.09097 1.63751,-0.27292c0.54583,-0.18895 1.03918,-0.44787 1.48005,-0.77676c0.44087,-0.3289 0.79425,-0.73479 1.06018,-1.21763c0.26592,-0.48985 0.39888,-1.03918 0.39888,-1.648zM244.41387,186.75468c0,-0.60882 -0.13296,-1.15465 -0.39888,-1.6375c-0.26592,-0.48985 -0.61231,-0.89922 -1.03918,-1.22812c-0.41987,-0.3359 -0.90272,-0.59482 -1.44855,-0.77676c-0.53883,-0.18195 -1.08467,-0.27292 -1.63751,-0.27292c-0.55283,0 -1.09865,0.09097 -1.6375,0.27292c-0.53883,0.18195 -1.02869,0.44087 -1.46956,0.77676c-0.44087,0.3289 -0.79775,0.73828 -1.07067,1.22812c-0.26592,0.48285 -0.39888,1.02868 -0.39888,1.6375c0,0.58783 0.13296,1.11966 0.39888,1.59551c0.27292,0.47585 0.6298,0.88172 1.07067,1.21762c0.44087,0.3289 0.93073,0.58432 1.46956,0.76627c0.53883,0.18195 1.08466,0.27292 1.6375,0.27292c0.55283,0 1.09867,-0.09097 1.63751,-0.27292c0.54583,-0.18195 1.02868,-0.43737 1.44855,-0.76627c0.42687,-0.3359 0.77325,-0.74177 1.03918,-1.21762c0.26592,-0.47585 0.39888,-1.00769 0.39888,-1.59551z"/></g></g></svg>