<svg version="1.1" xmlns="http://www.w3.org/2000/svg" xmlns:xlink="http://www.w3.org/1999/xlink" width="72.97032" height="84.1378" viewBox="0,0,72.97032,84.1378"><defs><linearGradient x1="240.49278" y1="129.75349" x2="240.47015" y2="165.52027" gradientUnits="userSpaceOnUse" id="color-1"><stop offset="0" stop-color="#f7cc00"/><stop offset="1" stop-color="#fff100"/></linearGradient></defs><g transform="translate(-203.51484,-128.65041)"><g data-paper-data="{&quot;isPaintingLayer&quot;:true}" fill-rule="nonzero" stroke-linejoin="miter" stroke-miterlimit="10" stroke-dasharray="" stroke-dashoffset="0" style="mix-blend-mode: normal"><path d="M226.12909,188.65778l3.46748,1.3028l0.43174,2.81828" fill="none" stroke="#692206" stroke-width="0.5" stroke-linecap="round"/><path d="M231.63818,188.30297c0,0 5.89891,0.99962 9.76792,1.22013c3.86905,0.22052 8.76161,-1.72212 8.76161,-1.72212l3.39881,13.93892l-4.15675,4.46558l-4.90668,-1.33717l-1.20445,-7.82003l-4.17864,0.21235l-0.82995,5.89635l-4.52391,2.14193l-6.04918,-4.45955l3.92118,-12.53642z" fill="#d88e33" stroke="#692206" stroke-width="0.5" stroke-linecap="round"/><path d="M230.30658,201.26646l1.03167,-3.79574" fill="none" stroke="#bd6914" stroke-width="0.25" stroke-linecap="round"/><path d="M234.15718,203.4642l1.10047,-4.0487" fill="none" stroke="#bd6914" stroke-width="0.25" stroke-linecap="round"/><path d="M228.25105,183.03336l23.55381,-0.37336l-1.83328,13.78196l-18.4116,-0.01165z" fill="#f7ce00" stroke="#692206" stroke-width="0" stroke-linecap="butt"/><path d="M237.40758,186.01729l2.88897,0.00183c0,0 -0.69915,3.80527 -0.70023,5.52892c-0.00115,1.81181 0.69352,5.09071 0.69352,5.09071l-2.88898,-0.00183c0,0 -0.69452,-3.48669 -0.69336,-5.33284c0.00106,-1.67759 0.70008,-5.28677 0.70008,-5.28677z" fill="#ff0000" stroke="none" stroke-width="0" stroke-linecap="butt"/><path d="M247.60219,204.45515l-0.95732,-4.3541" fill="none" stroke="#bd6914" stroke-width="0.25" stroke-linecap="round"/><path d="M250.2382,199.42587l0.73206,3.3296" fill="none" stroke="#bd6914" stroke-width="0.25" stroke-linecap="round"/><path d="M261.14705,184.00788l5.30496,9.50844l0.20166,11.67145l-9.28274,4.59218l-3.65009,-4.68431l3.8347,-4.54873l-3.6855,-3.96419l-2.68403,-9.71629" fill="#a6521b" stroke="#692206" stroke-width="0.5" stroke-linecap="round"/><path d="M265.81241,174.23095c0,0 4.95139,2.89252 5.71204,4.23402c0.60167,1.06113 2.06881,11.72536 -3.07521,11.98262c-3.19066,0.15955 -1.72815,-6.52238 -2.44323,-8.42476c-0.78989,-2.10125 -3.3065,-2.59359 -3.3065,-2.59359" fill="#f7ce00" stroke="#692206" stroke-width="0.5" stroke-linecap="round"/><path d="M265.63325,204.70379l-7.91812,3.96758l-2.48571,-3.53104l2.82794,-5.5752l-3.77867,-3.64726l2.82371,0.65434l1.67892,-2.30515l2.42539,0.96015l2.06838,-2.42466l2.15631,0.36088z" fill="#df9431" stroke="#692206" stroke-width="0" stroke-linecap="round"/><path d="M259.88158,183.32654l5.43159,9.7453l-10.60843,2.09821l-3.7551,-9.63714" fill="#f7ce00" stroke="#174752" stroke-width="0" stroke-linecap="round"/><path d="M209.36911,163.91687l0.10339,-22.39814c0,0 6.59557,-11.92458 30.70581,-12.61168c19.43992,-0.32771 26.99701,11.60961 26.99701,11.60961l0.95959,19.98996c0,0 6.07745,-1.33929 7.46408,2.60493c1.38662,3.9443 0.48437,11.08372 -2.49007,14.99921c-2.15846,2.84141 -6.12869,1.3087 -6.12869,1.3087c0,0 -7.79988,8.30662 -25.62885,9.84437c-13.47701,1.16242 -25.95819,-6.04212 -25.95819,-6.04212c0,0 -3.40322,0.89547 -5.92448,-0.40314c-3.172,-1.63372 -6.61188,-8.79855 -5.48531,-15.54944c0.4495,-2.69367 5.38568,-3.35233 5.38568,-3.35233z" fill="#f7ce00" stroke="#692206" stroke-width="0.5" stroke-linecap="round"/><path d="M226.93056,179.17856l-0.72837,10.05379l-1.78087,11.40805l-3.59335,1.64871l-5.47569,-2.11387l-2.08896,-11.48476l3.3392,-10.36354" data-paper-data="{&quot;index&quot;:null}" fill="#a6521b" stroke="#692206" stroke-width="0.5" stroke-linecap="round"/><path d="M214.19497,188.14447l2.0438,-0.77638l2.50331,1.97244l2.19028,-1.41675l2.09801,1.93153l2.27781,-0.98531l-1.76755,11.45874l-3.09765,1.15795l-4.56322,-1.86767z" data-paper-data="{&quot;index&quot;:null}" fill="#df9431" stroke="#692206" stroke-width="0" stroke-linecap="round"/><path d="M226.90106,177.82453l-1.79418,10.18608l-10.81391,0.02091l3.41699,-10.62062" data-paper-data="{&quot;index&quot;:null}" fill="#f7ce00" stroke="#174752" stroke-width="0" stroke-linecap="round"/><path d="M267.42129,175.16906l1.15598,-10.22522c0,0 3.53271,-1.06286 4.02907,0.80382c0.4964,1.86669 0.23003,6.00234 -1.42112,9.00245c-1.65114,3.00014 -3.76394,0.41892 -3.76394,0.41892z" data-paper-data="{&quot;index&quot;:null}" fill="#be5d10" stroke="#9a3d0c" stroke-width="0.25" stroke-linecap="round"/><path d="M212.93336,178.3254c0,0 -1.90778,2.585 -3.50333,-0.40634c-1.59558,-2.99131 -1.92918,-7.12132 -1.50725,-8.98743c0.42193,-1.86611 3.72397,-0.8159 3.72397,-0.8159l1.28657,10.20963z" data-paper-data="{&quot;index&quot;:null}" fill="#be5d10" stroke="#9a3d0c" stroke-width="0.25" stroke-linecap="round"/><path d="M267.60347,162.78852l-1.38642,15.00521c0,0 -5.25797,10.87595 -25.28546,11.87135c-18.87138,0.93793 -28.15444,-11.98737 -28.15444,-11.98737l-0.24921,-9.18104c0,0 0.30214,-4.18004 8.779,-4.6349c8.87433,-0.47617 19.66761,10.73864 19.66761,10.73864c0,0 11.44804,-12.08007 19.2762,-13.3742c2.89425,-0.47851 7.3528,1.56226 7.3528,1.56226z" fill="#df9431" stroke="#954116" stroke-width="0.5" stroke-linecap="round"/><path d="M234.68986,184.10446c-1.97607,3.78336 -7.4042,4.85199 -12.12408,2.38679c-4.71988,-2.46524 -6.94418,-7.53067 -4.96804,-11.3141c1.97607,-3.78336 7.4042,-4.85199 12.12408,-2.38679c4.71989,2.46524 6.94418,7.53068 4.96804,11.31411z" fill="#ffffff" stroke="#954116" stroke-width="0" stroke-linecap="butt"/><path d="M232.81234,181.31248c0.10334,2.15284 -1.21592,3.96541 -2.94659,4.0485c-1.73071,0.08309 -3.21752,-1.5948 -3.32085,-3.74764c-0.10334,-2.15284 1.21588,-3.96541 2.94659,-4.0485c1.73071,-0.08309 3.21751,1.5948 3.32085,3.74763z" fill="#3d0a00" stroke="none" stroke-width="0" stroke-linecap="butt"/><path d="M250.96298,171.61751c4.46203,-2.90596 9.96755,-2.36224 12.29696,1.21445c2.32941,3.57669 0.60056,8.83191 -3.8615,11.73791c-4.46203,2.90596 -9.96759,2.36224 -12.29696,-1.21443c-2.32941,-3.57669 -0.60056,-8.83195 3.86149,-11.73797z" data-paper-data="{&quot;index&quot;:null}" fill="#ffffff" stroke="#954116" stroke-width="0" stroke-linecap="butt"/><path d="M251.64953,176.34797c1.73071,-0.08309 3.21752,1.5948 3.32086,3.74764c0.10334,2.15284 -1.21589,3.96541 -2.9466,4.0485c-1.73071,0.08309 -3.21751,-1.59479 -3.32085,-3.74763c-0.10334,-2.15284 1.21591,-3.96542 2.94658,-4.0485z" data-paper-data="{&quot;index&quot;:null}" fill="#3d0a00" stroke="none" stroke-width="0" stroke-linecap="butt"/><path d="M257.90141,168.18247l-6.83087,1.84157l-0.75959,-4.77632l7.31863,-2.15266z" data-paper-data="{&quot;index&quot;:null}" fill="#773710" stroke="#602a0d" stroke-width="0.25" stroke-linecap="round"/><path d="M223.64528,164.46702l7.3159,2.16192l-0.76563,4.77535l-6.82857,-1.85018z" data-paper-data="{&quot;index&quot;:null}" fill="#773710" stroke="#602a0d" stroke-width="0.25" stroke-linecap="round"/><path d="M240.47015,165.52027c-11.22355,-0.0071 -20.31697,-8.01952 -20.31071,-17.89625c0.00626,-9.87673 9.1098,-17.87763 20.33335,-17.87054c11.22356,0.0071 20.31697,8.01952 20.31071,17.89625c-0.00624,9.87673 -9.1098,17.87764 -20.33335,17.87054z" fill="url(#color-1)" stroke="none" stroke-width="0" stroke-linecap="butt"/><path d="M235.51286,130.24385c0,0 -8.97291,2.1456 -9.07835,6.0894c-0.43577,16.30119 13.7536,25.29063 13.7536,25.29063c0,0 12.53378,-5.42411 14.0122,-26.62745c0.13125,-1.88225 -6.94942,-4.78996 -6.94942,-4.78996c0,0 13.01775,0.7723 13.26872,6.59983c1.09397,25.39896 -19.88534,33.16994 -19.88534,33.16994c0,0 -18.23983,-5.23629 -21.64951,-32.74473c-0.34757,-2.80417 2.91562,-4.63315 6.62788,-5.54877c4.58479,-1.13081 9.90015,-1.43887 9.90015,-1.43887z" fill="#ff0000" stroke="#000000" stroke-width="0" stroke-linecap="round"/><path d="M219.55004,198.8332l0.61138,-5.54041l4.38617,0.48399l-0.61138,5.54041z" fill="#df9431" stroke="none" stroke-width="0" stroke-linecap="butt"/><path d="M224.58818,199.32163l0.9462,-6.43805" fill="none" stroke="#692206" stroke-width="0.5" stroke-linecap="round"/><path d="M221.12548,201.45799l-5.36969,-1.49553l1.18394,-4.25098l5.36967,1.4955z" fill="#df9431" stroke="none" stroke-width="0" stroke-linecap="butt"/><path d="M215.49907,200.28123l5.19751,1.7338" fill="none" stroke="#692206" stroke-width="0.5" stroke-linecap="round"/><path d="M221.63048,199.19722l-2.10547,-2.26332l2.19059,2.02404" fill="none" stroke="#d17921" stroke-width="0.25" stroke-linecap="round"/><path d="M258.07138,199.69887l4.12122,-0.05914l-3.96065,0.35727" fill="none" stroke="#d17921" stroke-width="0.25" stroke-linecap="round"/><g stroke-width="0" stroke-linecap="round"><path d="M225.79672,212.53613c-8.30818,-2.12104 -16.23294,-19.98491 -14.175,-22.35871c3.20324,-3.69487 9.91793,7.87539 17.22807,9.129c7.31015,1.25361 14.61042,-8.33858 18.40421,-4.30869c2.22264,2.36099 -11.42553,20.09939 -21.45729,17.53835z" fill="#a3530d" stroke="#692206"/><path d="M213.24603,198.06711c-0.43734,-1.00572 -1.03826,-2.82946 -1.03826,-2.82946c0,0 0.57582,-1.25115 1.25222,-2.00166c0.84541,-0.938 2.60764,-2.42404 2.60764,-2.42404l5.52792,4.62144c0,0 -3.5775,2.89772 -4.54314,3.95469c-0.91561,1.00221 -1.79161,2.87029 -1.79161,2.87029c0,0 -1.46178,-2.9197 -2.01475,-4.19129z" fill="#671600" stroke="#000000"/><path d="M239.45561,196.25415c0,0 0.8691,1.65826 1.3741,2.75925c0.56781,1.23791 2.58903,4.17871 2.58903,4.17871l-4.88262,4.67484c0,0 -2.41206,-2.93776 -3.14034,-4.44472c-0.6663,-1.37874 -1.54722,-4.55903 -1.54722,-4.55903z" fill="#681300" stroke="#000000"/></g></g></g></svg>