<svg version="1.1" xmlns="http://www.w3.org/2000/svg" xmlns:xlink="http://www.w3.org/1999/xlink" width="110.7163" height="131.11234" viewBox="0,0,110.7163,131.11234"><g transform="translate(-463.91664,-95.21546)"><g data-paper-data="{&quot;isPaintingLayer&quot;:true}" fill-rule="nonzero" stroke-linejoin="miter" stroke-miterlimit="10" stroke-dasharray="" stroke-dashoffset="0" style="mix-blend-mode: normal"><path d="M470.46532,96.9459l98.3125,0.45833l4.125,3.4375l0.22917,119.625l-3.20833,4.35417l-100.83333,-0.91667l-2.52083,-2.75l-1.14583,-120.3125z" fill="#fcf081" stroke="#fcb505" stroke-width="3" stroke-linecap="round"/><path d="M467.68184,170.5751l49.27083,14.20833l54.54167,-12.83333l0.45833,46.0625l-2.75,4.58333l-98.3125,-0.45833l-2.52083,-2.52083z" fill="#fc9005" stroke="#fc9005" stroke-width="3.5" stroke-linecap="round"/><text transform="translate(489.02197,209.46121) scale(0.74599,0.67235)" font-size="40" xml:space="preserve" fill="#ffffff" fill-rule="nonzero" stroke="#161616" stroke-width="6" stroke-linecap="butt" stroke-linejoin="miter" stroke-miterlimit="10" stroke-dasharray="" stroke-dashoffset="0" font-family="&quot;ヒラギノ角ゴ Pro W3&quot;, &quot;Hiragino Kaku Gothic Pro&quot;, Osaka, &quot;メイリオ&quot;, Meiryo, &quot;ＭＳ Ｐゴシック&quot;, &quot;MS PGothic&quot;" font-weight="normal" text-anchor="start" style="mix-blend-mode: normal"><tspan x="0" dy="0">$765</tspan></text><text transform="translate(485.76572,208.82058) scale(0.74599,0.67235)" font-size="40" xml:space="preserve" fill="#ffffff" fill-rule="nonzero" stroke="#ffffff" stroke-width="6" stroke-linecap="butt" stroke-linejoin="miter" stroke-miterlimit="10" stroke-dasharray="" stroke-dashoffset="0" font-family="&quot;ヒラギノ角ゴ Pro W3&quot;, &quot;Hiragino Kaku Gothic Pro&quot;, Osaka, &quot;メイリオ&quot;, Meiryo, &quot;ＭＳ Ｐゴシック&quot;, &quot;MS PGothic&quot;" font-weight="normal" text-anchor="start" style="mix-blend-mode: normal"><tspan x="0" dy="0">$765</tspan></text><g stroke="none" stroke-width="0.5" stroke-linecap="butt"><path d="M521.72424,127.29276c3.06392,0.53393 7.50651,0.43791 5.91712,-4.30798c-0.54253,-1.61997 -4.40163,-2.16993 -5.47208,-1.62811c-0.66871,0.33848 -0.52773,4.04334 -0.44504,5.93608zM522.28227,130.62713c-1.09693,0.95969 -2.15956,-0.10293 -2.15956,-0.10293l-1.57041,-2.23511c0,-1.79532 -0.01614,-3.52719 0.19322,-5.31236c0.1721,-1.46742 0.16067,-3.25095 1.60006,-4.26105c1.33604,-0.93758 3.33936,-1.03227 5.24352,-0.54658c-4.67832,-2.69128 -9.43659,-5.25679 -13.81853,-8.47748c-0.53527,0.11745 -1.1757,0.08334 -1.93099,-0.21877c-2.97991,-1.19196 -1.78795,-4.17188 -1.78795,-4.17188l1.53357,-3.70482c2.69805,-3.02322 3.55364,-4.92465 7.76979,-5.92954c6.44646,-1.53647 14.5214,1.163 20.39006,3.4254c9.19172,5.14544 12.48551,12.6936 11.46619,23.0946c-0.27381,2.79388 -1.28381,8.72836 -5.10399,9.32221c-1.93492,0.30078 -5.53732,-4.49571 -7.1881,-5.84463c-2.19849,-1.79649 -4.52231,-3.38147 -6.90708,-4.86509c0.26537,0.33266 0.48055,0.6863 0.63368,1.05683c1.7101,4.13817 -1.33141,8.86125 -5.53695,8.95489c-0.94347,0.02101 -1.88867,-0.05563 -2.82652,-0.18368z" fill="#ffffff"/><path d="M505.07789,171.3953c-1.53164,0.068 -2.60992,-1.22594 -2.60992,-1.22594l-0.6978,-1.17475c-3.35126,-1.96062 -4.84583,-2.13498 -6.3273,-6.36878c-0.45598,-1.30313 -0.11184,-2.75916 -0.13771,-4.13952c-0.07591,-4.05108 -0.56001,-8.26146 1.30719,-12.03755c0.3463,-0.70033 1.38355,-0.94222 1.63092,-1.68329c0.44294,-1.32694 -1.63769,-2.26965 -2.40302,-3.44065c-0.81637,-1.24909 -1.48175,-2.58689 -2.05347,-3.97159l-0.18922,0.12614l-1.90134,-2.85201c-0.35536,-0.51658 -0.56337,-1.1424 -0.56337,-1.8168c0,-1.77254 1.43693,-3.20947 3.20947,-3.20947c0.23844,0 0.4708,0.026 0.69441,0.07532l3.14448,0.6289l-0.00985,0.04928l0.15712,-0.01621c7.84044,2.35384 14.40472,7.40956 22.1998,9.6425c3.26446,0.93512 10.10274,-0.12003 12.67321,1.32997c0.23595,0.1331 0.46142,0.27931 0.67796,0.43671l0.05767,-0.09063l3.48483,2.21763c0.91904,0.56454 1.53196,1.57905 1.53196,2.73671c0,1.77254 -1.43693,3.20947 -3.20947,3.20947h-3.20947c-1.28379,0 -2.56758,0.00361 -3.85136,0c-1.87202,-0.00526 -4.01359,-1.09601 -5.61465,-0.12593c-0.34294,0.20779 0.4065,0.70895 0.47948,1.10323c0.17948,0.96973 0.15402,1.9669 0.27001,2.94625c0.0841,0.71013 -0.08253,1.53563 0.32998,2.11976c1.08097,1.53067 3.81478,0.71793 5.30891,1.84886c2.36903,1.79316 3.72617,3.59367 3.90489,5.87666c0.99183,0.11241 1.74033,0.67379 1.74033,0.67379c1.53694,1.18351 3.31351,2.08107 5.14676,2.71812c0.53379,-0.15055 0.95123,-0.15055 0.95123,-0.15055h1.92568c4.2279,0.04314 5.69521,-0.08773 6.83528,-4.30711c1.08201,-5.40606 2.51794,-13.96659 7.71983,-16.95603c4.01027,-2.30463 10.28578,-3.6047 11.11256,4.15953c0.38314,3.59803 -6.81514,4.77277 -7.96901,7.81077c-2.24351,5.90693 -3.09068,14.29953 -9.73056,17.39315c-1.42963,0.66609 -3.15126,0.32081 -4.72591,0.23134c-5.15548,-0.29293 -10.57793,-2.53273 -14.73474,-5.48755c-1.70125,2.59654 -4.32456,3.58741 -7.65378,3.89389c-2.05253,0.18895 -4.12714,-1.66926 -6.09358,-1.05143c-1.41455,0.44443 -2.33477,2.12336 -3.80681,2.30097c-3.24012,0.39095 -6.30738,-1.38757 -9.0016,-3.42314z" fill="#ffffff"/><path d="M499.51639,143.1198c-0.3768,0.3768 -0.75362,0.33653 -1.015,0.22541c-0.25235,6.40119 -3.94919,13.65359 -1.6648,20.22872c2.77786,5.55574 10.8968,9.35497 17.08347,9.35497h0.32095c0,-0.96284 0,-1.92568 0,-2.88852v-0.96284c0,0 0,-0.96284 0.96284,-0.96284c0.96284,0 0.96284,0.96284 0.96284,0.96284c0,1.1768 0,3.31645 0,4.49325c0,0 0,0.88897 -0.85419,0.95853c-0.28352,0.32525 -0.75055,0.32525 -0.75055,0.32525h-0.64189c-7.005,0 -15.73078,-4.28016 -18.86257,-10.54372c-1.54354,-4.75859 -0.25556,-11.37854 0.25158,-16.1817c0.20427,-1.93469 1.29215,-3.38348 1.27986,-5.36925c0,0 0,-0.39713 0.25506,-0.6813c-0.87703,-0.5401 -1.69609,-1.01715 -2.49064,-1.80079c-2.54742,-1.9374 -4.18335,-3.90268 -4.18335,-7.14632c0,-0.52251 -0.07236,-2.57309 0.28201,-2.92746c0.5344,-0.5344 2.79868,-0.28201 3.56935,-0.28201c3.77643,0 7.42593,0.97527 11.06642,0.97527c3.2868,1.0569 6.40981,2.79417 9.34716,4.63005c1.27371,0.79609 2.79649,2.42186 4.2574,2.78061c3.02839,0.74365 7.17952,-0.04131 10.31222,-0.04131c4.55757,0 9.83514,0.15409 9.22113,6.20299c-0.06187,0.60948 -0.1989,2.70824 -0.75324,3.36796c-1.77182,2.10865 -7.83007,1.0203 -10.39358,1.0203c-0.8912,-0.00433 -2.44463,-0.10692 -3.26692,0.44423c-1.25011,0.8379 -0.14346,4.47692 0.8846,5.15566c1.32659,0.87583 3.36828,0.52327 4.81682,0.83755c2.86152,0.62084 6.19823,3.77159 6.23107,6.72138c0,1.48438 0.24821,3.18595 -0.01243,4.64748c-1.26071,7.06941 -9.20205,8.51133 -15.07206,8.51133c0,0 -0.61474,0 -0.86182,-0.4912c-0.08861,-0.0604 -0.13996,-0.11175 -0.13996,-0.11175l-0.87449,-1.01825c-0.46923,-1.41978 -1.12906,-2.74528 -1.60473,-4.17231c0,0 -0.30448,-0.91343 0.60895,-1.2179c0.91343,-0.30448 1.2179,0.60895 1.2179,0.60895c0.47605,1.42817 1.12751,2.75122 1.60473,4.17231l0.4093,0.26554c0,0 0.01292,0.01292 0.03342,0.03699c4.75748,-0.0476 11.90376,-1.00269 12.77794,-6.89216c0.20423,-1.37592 -0.01243,-2.9434 -0.01243,-4.33903c0.0322,-2.09431 -2.20205,-3.39544 -3.81821,-4.46553c-1.75971,-1.16515 -4.44468,-0.19992 -6.31639,-1.45531c-2.18126,-1.46301 -3.30578,-6.38836 -1.04108,-8.3241c1.05375,-0.90069 3.19479,-0.83436 4.4358,-0.83956c2.24663,0 4.49325,0 6.73988,0c0.51306,0 1.74252,0.28362 2.12335,-0.26349c0.45844,-0.65861 0.28785,-1.58073 0.36636,-2.37934c0.44931,-4.57026 -3.86924,-4.09705 -7.30391,-4.09705c-3.31735,0 -7.65001,0.77351 -10.87026,-0.04131c-1.66605,-0.42156 -3.29341,-2.09915 -4.72911,-2.99644c-2.72025,-1.70012 -5.61385,-3.30388 -8.62586,-4.35646c-3.24491,0 -6.43243,-0.95041 -9.79512,-0.95041c-0.38331,0 -3.17053,-0.28201 -3.17053,-0.28201c0,0 0.14894,3.17906 0.2407,3.53341c0.2167,0.8369 1.18636,1.25866 1.74876,1.91522c0.55517,0.64813 1.12537,1.30186 1.81193,1.80873c0.95933,0.9745 1.98271,1.42204 3.1127,2.17287l0.78864,0.7622c0,0 0.68083,0.68083 0,1.36166z" fill="#000000"/><path d="M499.13833,151.44637c-0.25369,2.55466 -0.3038,9.3838 -1.76444,11.32597c-3.37884,4.49274 -7.30106,2.42099 -11.22915,5.14307c-1.23675,0.76941 -2.31965,1.87491 -3.71025,2.30821c-3.53315,1.1009 -11.58916,0.54244 -13.26154,-3.60134c-0.70689,-1.7515 0.42169,-3.8361 1.33174,-5.51056c-2.3234,-1.60022 -5.08034,-3.47879 -5.36833,-6.19292c-0.80842,-7.61899 8.27789,-4.61125 11.2885,-5.17469c1.5958,-0.29866 -0.09886,-3.59328 1.02964,-4.76044c1.67621,-1.73363 4.18611,-3.49964 6.55665,-3.05724c2.47432,0.46177 2.46481,5.58249 4.98011,5.67608c2.5761,0.09585 4.99516,-1.27812 7.50446,-1.86876c0,0 3.12415,-0.7351 3.85925,2.38906c0.41994,1.78474 -0.4196,2.78981 -1.21665,3.32356z" fill="#ffd73c"/><path d="M528.71335,169.45742c2.38872,-0.20417 5.05082,0.50117 6.90113,2.02564c2.88516,2.37708 -1.01336,4.39417 2.13496,5.77453c1.35631,0.59467 2.95541,0.46123 4.32053,1.03539c5.41311,2.27675 9.74904,8.05736 4.60947,13.5946c-6.16066,6.63733 -16.12457,0.1554 -21.03185,-3.99172c-1.6669,-1.40869 -5.52921,-4.67141 -6.14698,-6.59594c-0.04093,-0.12751 -0.07818,-0.25569 -0.11205,-0.38448c-0.65283,-0.0923 -1.37491,-0.38986 -1.91386,-1.14508c0.01581,1.48188 -0.1029,2.91349 -0.49677,4.08269c-2.32589,6.90426 -8.68613,7.68056 -14.93289,7.69078c-6.0194,0.00985 -16.98734,2.05609 -18.25556,-6.56582c-1.0853,-7.37837 5.67671,-9.00481 11.15046,-8.1416c1.32878,0.20955 3.27263,2.00352 3.94726,0.83973c0.52624,-0.90781 0.19463,-1.99632 -0.09108,-3.08845c-0.45454,-0.55494 -0.7505,-1.35697 -0.55877,-2.50735c0.52763,-3.1658 3.69343,-2.63817 3.69343,-2.63817l1.88608,0.3146c2.62877,0.41075 5.43145,-0.16137 7.95208,0.69043c1.9029,0.64306 3.46814,2.02734 5.20222,3.04102c0.06751,0.75592 0.1675,1.62598 0.26072,2.55101c0.22659,-0.33494 0.50817,-0.59853 0.77965,-0.80009c0.48022,-1.16738 1.62882,-1.98927 2.96938,-1.98927c0.41426,0 0.81018,0.07848 1.17372,0.2214c2.15498,-1.48667 4.00193,-3.79529 6.55875,-4.01384z" fill="#ffd73c"/><path d="M536.20271,149.49862l1.45691,0.2556c1.99009,1.20438 4.52808,1.78803 5.97029,3.61315c1.05583,1.33617 0.91052,3.33305 0.86374,5.03538c-0.14584,5.30789 -0.36225,8.78129 -6.39426,9.8911c-1.59994,0.29437 -3.20417,-0.6282 -4.738,-1.17025c-5.20407,-1.8391 -12.45113,-6.17076 -14.37854,-11.5969c-0.58457,-1.6457 -0.60005,-3.5992 0,-5.23931c3.14629,-8.59979 11.94351,-4.27488 17.21985,-0.78877z" fill="#ffd73c"/><path d="M527.16278,150.33948c0,1.60473 -1.60473,1.60473 -1.60473,1.60473l-0.7359,-0.01612c-1.35069,0.19062 -2.71423,0.33387 -4.0783,0.33707c0,0 -1.60473,0 -1.60473,-1.60473c0,-1.60473 1.60473,-1.60473 1.60473,-1.60473c1.2124,0.00328 2.42452,-0.13111 3.62442,-0.30482l1.18978,-0.01613c0,0 1.60473,0 1.60473,1.60473z" fill="#ffa93d"/><path d="M525.55804,154.83273c0,1.60473 -1.60473,1.60473 -1.60473,1.60473c-1.1768,0 -2.9955,0 -4.17231,0c0,0 -1.60473,0 -1.60473,-1.60473c0,-1.60473 1.60473,-1.60473 1.60473,-1.60473c1.1768,0 2.35361,0 3.53041,0h0.64189c0,0 1.60473,0 1.60473,1.60473z" fill="#ffa93d"/><path d="M534.70503,148.79072c0.14181,-0.0358 0.30154,-0.05597 0.48142,-0.05597c1.60473,0 1.60473,1.60473 1.60473,1.60473v1.60473c-0.00261,0.58762 -0.00521,1.17524 -0.00781,1.76286c-0.81703,4.17963 -2.28997,7.38979 -5.19882,10.5217c-0.50242,0.54094 -0.76582,1.40951 -1.45748,1.66768c-0.91553,0.34173 -5.78567,0.51724 -6.38901,-1.18353c-0.98345,-2.77227 3.33138,-3.96237 4.68378,-5.04706c3.06901,-2.4615 4.19704,-5.48724 4.19704,-9.32638c0,0 0,-1.60473 1.60473,-1.60473c0.17988,0 0.33961,0.02017 0.48142,0.05597z" fill="#ffa93d"/><path d="M490.8958,167.99155c-1.60473,0 -1.60473,-1.60473 -1.60473,-1.60473l0.03116,-0.95661c1.30804,-6.54023 0.75096,-11.74055 -2.691,-17.47457c0,0 -0.82563,-1.37605 0.55042,-2.20168c1.37605,-0.82563 2.20168,0.55042 2.20168,0.55042c3.84858,6.41711 4.54601,12.45546 3.08604,19.75525l0.03116,0.32718c0,0 0,1.60473 -1.60473,1.60473z" fill="#ffa93d"/><path d="M507.60981,106.55709c0.00867,0.21451 -0.03056,0.45711 -0.13956,0.72961c-0.59599,1.48996 -2.08594,0.89397 -2.08594,0.89397c-1.96988,-0.80164 -3.34513,-0.85098 -5.502,-0.84806c-0.76906,0.00104 -1.87192,-0.93659 -2.28884,-0.29035c-0.45856,0.71078 -0.51807,3.2009 -0.61027,4.00483c-0.51995,4.5336 -0.02134,8.88804 -1.70253,13.23356c-0.38342,0.99106 -1.32435,3.89275 -2.56666,5.12511c2.95444,-0.79778 8.11009,0.34539 10.28783,1.13293c6.43937,2.32867 12.43484,5.69601 19.04681,7.63231c4.18122,1.22446 8.36418,0.96007 12.52456,2.36594c0.61092,0.36365 2.8537,1.6048 3.35269,2.24889c0.16836,0.21732 -0.2322,0.94632 0.01429,0.82461c0.49412,-0.24397 1.9915,-2.98677 2.35518,-3.50526c1.98184,-2.82551 6.74185,-6.19388 6.15317,-10.00282c-0.25124,-1.6256 -1.76561,-2.00694 -2.89294,-2.853c-3.25868,-2.44565 -7.11197,-4.81369 -9.94935,-7.70272c-8.87485,-4.32724 -16.17761,-11.72258 -25.99644,-12.98954zM502.84198,104.22772c0.31078,-1.0674 1.53358,-1.06741 1.53358,-1.06741h0.32095c12.07726,0 20.51576,8.54011 30.78635,13.78267c2.91897,2.87343 6.66034,5.23765 9.94935,7.70272c1.92129,1.43999 3.64686,2.20037 4.16788,4.84972c1.0402,5.2893 -4.78878,9.96029 -7.67377,13.78323c-1.06311,1.40874 -2.32474,3.38219 -4.35848,3.51958c-0.86029,0.05812 -1.254,-1.185 -1.91139,-1.74297c-0.774,-0.65694 -1.55275,-1.07403 -2.42435,-1.60247c-3.95424,-1.29757 -8.00846,-1.02324 -12.01704,-2.18246c-7.17962,-2.07624 -13.53886,-6.62537 -20.77072,-8.31283c-4.50926,-1.05218 -7.70199,0.33206 -12.04313,-2.03824c1.76848,-4.0417 4.69594,-7.62594 5.06996,-12.19069c0.34553,-4.217 -1.07612,-10.9539 2.28103,-14.31508c0.5988,-0.59952 1.68012,-0.23093 2.52536,-0.29035c1.57597,-0.11079 3.08328,-0.09905 4.56441,0.10457z" fill="#b4b195"/><path d="M533.66593,119.523c2.83737,2.88903 6.69492,5.28647 9.9536,7.73212c1.12733,0.84606 2.64087,1.23342 2.89211,2.85901c0.58869,3.80894 -4.18248,7.20323 -6.16431,10.02874c-0.36368,0.5185 -1.86785,3.26921 -2.36197,3.51318c-0.2465,0.12171 0.06274,-0.6975 -0.10562,-0.91482c-0.49899,-0.64408 -2.65093,-1.79454 -3.26185,-2.15819c-4.16038,-1.40586 -8.37623,-1.12448 -12.55745,-2.34894c-6.61196,-1.9363 -12.68021,-5.34672 -19.11958,-7.6754c-2.17774,-0.78754 -7.33578,-1.94056 -10.29021,-1.14278c1.2423,-1.23236 2.18246,-4.14635 2.56589,-5.13741c1.68118,-4.34552 1.1922,-8.73167 1.71214,-13.26527c0.0922,-0.80393 0.15661,-3.30089 0.61517,-4.01167c0.41692,-0.64625 1.52171,0.28913 2.29077,0.28809c2.15687,-0.00292 3.53851,0.04025 5.50839,0.84189c0,0 1.49512,0.59207 2.09111,-0.89789c0.109,-0.2725 0.1495,-0.51595 0.14083,-0.73046c9.81883,1.26696 17.21615,8.69255 26.091,13.01979z" data-paper-data="{&quot;noHover&quot;:false,&quot;origItem&quot;:[&quot;Path&quot;,{&quot;applyMatrix&quot;:true,&quot;segments&quot;:[[[476.41932,278.09995],[15.29666,1.97379],[0.01351,0.33419]],[[476.2019,279.23661],[0.16981,-0.42453],[-0.92848,2.32119]],[[472.95223,280.62932],[0,0],[-3.06886,-1.24886]],[[464.38071,279.30813],[3.36017,-0.00455],[-1.19811,0.00162]],[[460.81495,278.8558],[0.64952,-1.00678],[-0.71439,1.10732]],[[459.86421,285.09489],[0.14364,-1.25244],[-0.81002,7.06286]],[[457.21186,305.71133],[2.6191,-6.76984],[-0.59733,1.54397]],[[453.21329,313.69569],[1.93537,-1.91988],[4.60269,-1.24286]],[[469.2406,315.46067],[-3.39268,-1.2269],[10.03184,3.62782]],[[498.91345,327.35098],[-10.30072,-3.01655],[6.51389,1.90758]],[[518.42535,331.03685],[-6.48142,-2.19018],[0.95175,0.56653]],[[523.64848,334.54037],[-0.77737,-1.00341],[0.26229,0.33856]],[[523.67075,335.82502],[-0.38402,0.18961],[0.76979,-0.38008]],[[527.33986,330.3642],[-0.56657,0.80776],[3.08749,-4.40184]],[[536.92582,314.7809],[0.91711,5.93391],[-0.39141,-2.5325]],[[532.41893,310.33624],[1.75626,1.31807],[-5.07667,-3.81005]],[[516.91893,298.33624],[4.42032,4.5008],[-13.82605,-6.74137]]],&quot;closed&quot;:true}]}" fill="#b4b195"/><path d="M501.4985,131.42881c-0.22618,0.3306 -0.61766,0.61671 -1.29525,0.61671c-1.26169,0 -1.5314,-0.99197 -1.58906,-1.41608c-0.37343,-0.16578 -1.1643,-0.64929 -0.96399,-1.71465c-2.93501,-4.61221 -4.19906,-9.35178 -4.18136,-14.97464c0.20019,-1.21572 0.62885,-4.25874 1.16567,-5.15154c3.61627,-6.0144 13.25582,-0.0461 18.05402,0.81694c3.71128,0.66754 11.06128,0.90363 13.02105,5.03309c1.70352,3.58953 -0.69634,6.22273 -3.80113,7.21787c-2.17205,1.79467 1.23961,6.85553 -1.60473,8.98651c-1.89535,1.41999 -2.4209,-0.9124 -3.90905,-0.47109c-1.11651,0.33111 -0.82053,2.36445 -1.80009,2.99429c-2.70392,1.73856 -7.08263,-1.94797 -9.12174,-3.00778c-0.70443,-0.36612 -1.57603,0.87817 -1.8736,0.96284c-0.74366,0.21161 -1.43065,0.21199 -2.10073,0.10754zM498.89349,130.72649c-0.00431,-0.00123 -0.00863,-0.00246 -0.01295,-0.00368l0.03892,0.03892c-0.00867,-0.01175 -0.01733,-0.02349 -0.02598,-0.03524z" fill="#4a0100"/><path d="M527.24697,140.64372c-1.00247,-1.25309 0.25062,-2.25556 0.25062,-2.25556l1.13955,-0.90859c0.9626,-0.68757 1.92618,-1.37377 2.89098,-2.05826c2.26949,-2.24269 3.00611,-8.01926 5.66008,-9.407c2.20591,-1.15345 5.63583,1.43491 6.6193,3.21377c1.51143,2.73383 0.53575,11.57215 -2.87735,13.15876c-1.04575,0.48613 -2.31001,-0.12582 -3.44262,-0.34284c-2.61086,-0.50024 -4.94173,-1.15911 -7.64009,-1.42665l-0.34492,0.27698c0,0 -1.25309,1.00246 -2.25556,-0.25062z" fill="#5e200c"/><path d="M498.90087,132.27976c-0.68503,-1.41654 0.73151,-2.12482 0.73151,-2.12482l1.08445,-0.35281c5.41469,0 14.13333,2.15669 17.72507,-2.90851c-0.19291,-3.58247 1.26214,-9.84809 4.33168,-12.2879c4.25029,-3.37834 9.97015,2.14347 12.93092,4.77497c1.29032,1.14683 2.63909,2.08224 3.21288,3.81161c1.2302,3.70771 -0.89548,6.69867 -2.46977,9.84921c-1.87231,3.72799 -5.51886,7.76598 -9.93854,8.21877c-4.62521,0.47384 -10.15721,-2.37823 -14.51252,-3.59368c-4.0869,-1.14054 -8.37116,-2.01554 -12.18077,-3.90743c0,0 -0.98628,-0.49313 -0.91491,-1.47941z" fill="#b37a37"/><path d="M512.30279,133.80697c0.16907,-0.33814 0.37797,-0.55679 0.59856,-0.69348c0.32854,-0.47778 0.87949,-0.66143 0.87949,-0.66143c2.67173,-0.85988 4.7348,-0.54581 7.45132,-0.25794c1.28106,0.13575 3.10821,-0.34516 4.23705,0.45897c1.26518,0.90126 2.07854,3.94736 1.16853,5.31356c-2.97696,4.46932 -10.52687,-0.11293 -13.38334,-1.8978l-0.23395,-0.10889c0,0 -1.43531,-0.71766 -0.71766,-2.15298z" fill="#b33b3b"/><path d="M520.62019,123.00628c-0.08113,-0.05446 -0.16292,-0.12145 -0.24475,-0.20285c-0.92584,-0.92102 -0.00482,-1.84686 -0.00482,-1.84686l0.42104,-0.42324c1.52595,-1.53103 3.60265,-3.74743 5.97928,-3.77525c4.54626,-0.05321 6.13451,6.70252 4.77684,9.9087c-1.83159,4.32533 -7.41307,5.05189 -10.0298,1.24887c-1.0702,-1.55537 -1.15345,-3.21266 -0.89778,-4.90937z" fill="#e0e0e0"/><path d="M521.84325,124.25381c-0.4143,-1.23784 -0.81594,-3.67056 0.04018,-4.3851c1.06046,-0.88507 3.28939,0.28322 4.11048,0.8987c0.74131,0.55608 1.59311,0.99458 1.85607,1.96006c1.39157,5.10932 -5.93618,6.74767 -6.01874,1.6295c0,0 -0.00001,-0.0424 0.01201,-0.10317z" fill="#4a0100"/><path d="M521.80336,123.55656c-0.1479,-0.3635 0.16171,-0.67311 0.16171,-0.67311l0.73917,-0.47329c6.92998,0 1.09902,8.51604 -0.90248,1.53145c0,0 -0.05352,-0.18732 0.0016,-0.38505z" fill="#8d0200"/></g></g></g></svg>