<svg version="1.1" xmlns="http://www.w3.org/2000/svg" xmlns:xlink="http://www.w3.org/1999/xlink" width="78.99765" height="152.72206" viewBox="0,0,78.99765,152.72206"><defs><linearGradient x1="210.97636" y1="167.00578" x2="210.97636" y2="198.98737" gradientUnits="userSpaceOnUse" id="color-1"><stop offset="0" stop-color="#8c93c9"/><stop offset="1" stop-color="#7881b5"/></linearGradient><linearGradient x1="240.36484" y1="112.46697" x2="240.36484" y2="254.71108" gradientUnits="userSpaceOnUse" id="color-2"><stop offset="0" stop-color="#89a4c0"/><stop offset="1" stop-color="#7f9dbd"/></linearGradient><linearGradient x1="269.14062" y1="166.60629" x2="269.14062" y2="198.58788" gradientUnits="userSpaceOnUse" id="color-3"><stop offset="0" stop-color="#8c93c9"/><stop offset="1" stop-color="#7881b5"/></linearGradient><linearGradient x1="239.28776" y1="157.75355" x2="239.28776" y2="170.12129" gradientUnits="userSpaceOnUse" id="color-4"><stop offset="0" stop-color="#ae8d2a"/><stop offset="1" stop-color="#f0d876"/></linearGradient><radialGradient cx="233.06797" cy="180.88807" r="1.63007" gradientUnits="userSpaceOnUse" id="color-5"><stop offset="0" stop-color="#2a6ec1"/><stop offset="1" stop-color="#1c4980"/></radialGradient><radialGradient cx="242.73055" cy="180.76814" r="1.58625" gradientUnits="userSpaceOnUse" id="color-6"><stop offset="0" stop-color="#2a6ec1"/><stop offset="1" stop-color="#1c4980"/></radialGradient></defs><g transform="translate(-199.62664,-103.87143)"><g data-paper-data="{&quot;isPaintingLayer&quot;:true}" fill-rule="nonzero" stroke-linejoin="miter" stroke-miterlimit="10" stroke-dasharray="" stroke-dashoffset="0" style="mix-blend-mode: normal"><path d="M219.07559,177.52785l-0.69224,11.21433l-0.69225,5.67638l-2.90741,4.5688l-8.99915,-4.2919l-2.21517,-6.09173l-0.69225,-11.35278l6.50708,-10.24518l8.58381,0.41535z" fill="url(#color-1)" stroke="#192a47" stroke-width="1.5" stroke-linecap="round"/><path d="M214.77581,218.08655l-0.41535,-7.06087l-0.69224,-13.4295l-6.36863,-2.35362l-1.52293,-2.09034l-2.07673,-7.89156l-0.13845,-8.16846l6.09173,-9.1376l5.39949,-0.69224l0.13845,-14.50689l3.59966,-9.4145l7.33777,-0.13845l2.35362,-6.78397h3.73811l0.13845,-3.59966l3.18431,-0.2769v-1.66138l-1.79983,-1.24604l-8.99915,0.13845l-0.55379,-5.26104h-12.46036l-0.13845,-9.69139l12.18346,-2.35362h18.82899l0.13845,9.69139l11.76812,0.69224l0.13845,5.67639l-9.27605,0.13845v4.01501l2.49207,0.69224l0.83069,2.76897h2.21518l3.39182,7.93778l6.64553,0.41535l5.26104,7.75311l0.29842,15.43833h5.81484l4.5688,6.23018l0.2769,11.07588l-3.46121,10.10674l-7.33777,3.18431l0.45828,14.06251l-26.859,42.36523l-19.65968,-31.7047z" fill="url(#color-2)" stroke="#1d3241" stroke-width="2" stroke-linecap="round"/><path d="M221.84798,200.35301l19.33623,26.63292l19.94429,-28.09226l2.55384,1.45934l-23.59264,33.32156l-20.55235,-31.37577z" fill="#769abc" stroke="#769abc" stroke-width="2.5" stroke-linecap="round"/><path d="M225.00672,197.84828l16.14016,22.23078l16.64772,-23.44891l2.13171,1.21813l-19.69303,27.81386l-17.15526,-26.1897z" fill="#e4edf4" stroke="#e4edf4" stroke-width="2.5" stroke-linecap="round"/><path d="M205.21944,193.38631c-0.00291,0.00098 -0.00582,0.00197 -0.00875,0.00295c-1.18586,0.39529 -1.58114,-0.79057 -1.58114,-0.79057l-0.23331,-0.71831c-2.34119,-5.2822 -2.53211,-12.79331 0.58134,-17.82554c0.94799,-2.36998 3.60316,-6.43243 5.25738,-1.70259c0.47264,1.35138 -0.3417,4.7677 -0.40139,6.18931c-0.2254,5.36795 0.88276,9.44279 -2.12749,14.32434c0,0 -0.56515,0.90423 -1.48665,0.52041z" fill="#103e71" stroke="none" stroke-width="0.5" stroke-linecap="butt"/><path d="M204.62376,195.16401c-0.88388,-0.88388 0,-1.76776 0,-1.76776l-0.03767,0.08293c1.39994,-2.20269 1.79732,-4.96166 2.32902,-7.48723c1.15199,-5.47197 2.13184,-9.91782 -0.19612,-15.15573c0,0 -0.50767,-1.14226 0.6346,-1.64993c1.14227,-0.50768 1.64993,0.63459 1.64993,0.63459c2.56074,5.76166 1.61957,10.69344 0.35768,16.68742c-0.59913,2.84588 -1.1138,5.7964 -2.65512,8.29589l-0.31456,0.35984c0,0 -0.88388,0.88388 -1.76776,0z" fill="#d8def6" stroke="none" stroke-width="0.5" stroke-linecap="butt"/><path d="M207.17701,182.35204c0,1.25 -1.25,1.25 -1.25,1.25c-0.06408,0 -0.13015,0 -0.19795,0c-0.33353,1.11674 -0.94452,2.19372 -1.7604,3.16314c0,0 -0.81349,0.94908 -1.76256,0.13559c-0.94907,-0.81349 -0.13558,-1.76256 -0.13558,-1.76256c0.39865,-0.45395 0.75158,-0.97868 1.0135,-1.53617c-0.11862,0 -0.23283,0 -0.34132,0c0,0 -1.25,0 -1.25,-1.25c0,-1.25 1.25,-1.25 1.25,-1.25c0.25707,0 0.51415,0 0.77122,0c-0.08461,-0.51393 -0.29493,-1.01015 -0.66364,-1.46122l-0.71457,-0.6968c0,0 -0.88388,-0.88389 0,-1.76777c0.88388,-0.88388 1.76777,0 1.76777,0l0.94681,0.96457c0.67386,0.94835 1.03553,1.95224 1.13598,2.96406c0.24812,0.0188 1.19075,0.16166 1.19075,1.24715z" fill="#d8def6" stroke="none" stroke-width="0.5" stroke-linecap="butt"/><path d="M262.14896,167.02163l8.58381,-0.41535l6.50708,10.24518l-0.69224,11.35278l-2.21518,6.09173l-8.99915,4.2919l-2.90742,-4.5688l-0.69225,-5.67638l-0.69224,-11.21433z" data-paper-data="{&quot;index&quot;:null}" fill="url(#color-3)" stroke="#192a47" stroke-width="1.5" stroke-linecap="round"/><path d="M273.41087,192.46641c-3.01024,-4.88155 -1.90208,-8.95639 -2.12748,-14.32434c-0.0597,-1.42162 -0.87403,-4.83793 -0.40139,-6.18931c1.65422,-4.72984 4.30939,-0.66739 5.25738,1.70259c3.11345,5.03223 2.92253,12.54334 0.58134,17.82554l-0.2333,0.71831c0,0 -0.39529,1.18586 -1.58114,0.79057c-0.00293,-0.00098 -0.00584,-0.00196 -0.00875,-0.00295c-0.9215,0.38382 -1.48665,-0.52041 -1.48665,-0.52041z" data-paper-data="{&quot;index&quot;:null}" fill="#103e71" stroke="none" stroke-width="0.5" stroke-linecap="butt"/><path d="M273.72544,194.76452l-0.31456,-0.35984c-1.54133,-2.49948 -2.05599,-5.45001 -2.65512,-8.29589c-1.26189,-5.99398 -2.20306,-10.92576 0.35768,-16.68742c0,0 0.50767,-1.14227 1.64994,-0.63459c1.14226,0.50768 0.63459,1.64993 0.63459,1.64993c-2.32796,5.23791 -1.34811,9.68376 -0.19612,15.15573c0.5317,2.52558 0.92908,5.28455 2.32902,7.48723l-0.03767,-0.08293c0,0 0.88388,0.88388 0,1.76776c-0.88388,0.88388 -1.76776,0 -1.76776,0z" data-paper-data="{&quot;index&quot;:null}" fill="#d8def6" stroke="none" stroke-width="0.5" stroke-linecap="butt"/><path d="M274.13072,180.70539c0.10045,-1.01182 0.46212,-2.01571 1.13598,-2.96406l0.94681,-0.96457c0,0 0.88388,-0.88388 1.76777,0c0.88389,0.88388 0,1.76777 0,1.76777l-0.71458,0.6968c-0.3687,0.45107 -0.57903,0.94729 -0.66364,1.46122c0.25707,0 0.51415,0 0.77123,0c0,0 1.25,0 1.25,1.25c0,1.25 -1.25,1.25 -1.25,1.25c-0.10849,0 -0.2227,0 -0.34132,0c0.26192,0.55749 0.61485,1.08222 1.01349,1.53617c0,0 0.81349,0.94907 -0.13558,1.76256c-0.94907,0.81349 -1.76256,-0.13559 -1.76256,-0.13559c-0.81588,-0.96943 -1.42687,-2.04641 -1.7604,-3.16314c-0.0678,0 -0.13387,0 -0.19795,0c0,0 -1.25,0 -1.25,-1.25c0,-1.08549 0.94263,-1.22835 1.19075,-1.24715z" data-paper-data="{&quot;index&quot;:null}" fill="#d8def6" stroke="none" stroke-width="0.5" stroke-linecap="butt"/><path d="M257.4373,171.1047l0.2368,24.39079l-16.81307,24.15399l-15.62905,-23.44358l-4.49927,3.31525l-6.86731,-5.20968l-0.47361,-18.94431l17.55778,-23.91719l18.4707,-0.47361l12.077,14.44503z" fill="#e4edf4" stroke="#e6eafb" stroke-width="0.5" stroke-linecap="round"/><path d="M216.46055,149.53673l3.31525,-5.68329l39.78304,0.71041l6.63051,6.86731v13.49782h-45.22953l-4.97288,-0.2368z" fill="#93aeca" stroke="#93aeca" stroke-width="0.5" stroke-linecap="round"/><path d="M216.25087,145.77499l3.31525,-5.68329l39.78305,0.71041l6.6305,6.86732v13.49782h-45.22953l-4.97288,-0.23681z" fill="#bdcddd" stroke="#bccee0" stroke-width="0.5" stroke-linecap="round"/><path d="M223.22765,142.69654l2.42389,-5.68329l29.08666,0.71041l4.84777,6.86732v13.49782h-33.06876l-3.63583,-0.23681z" fill="#93aeca" stroke="#93aeca" stroke-width="0.5" stroke-linecap="round"/><path d="M224.4008,137.75078l2.15804,-5.68329l25.89651,0.71041l4.31608,6.86732v13.49782h-29.44186l-3.23706,-0.23681z" fill="#bdcddd" stroke="#bccee0" stroke-width="0.5" stroke-linecap="round"/><path d="M225.13834,157.46188l2.15804,-1.21329l25.89651,0.15166l4.31609,1.46606v2.88156h-29.44187l-3.23706,-0.05055z" fill="#1f2f47" stroke="#1e2f4c" stroke-width="0.5" stroke-linecap="round"/><path d="M222.80554,140.40319l0.84653,1.22433l-0.18921,14.87486l-1.04496,2.49705l-2.02685,0.03582l0.09383,-16.90916l0.04587,-1.85975z" fill="#1f2f47" stroke="#1e2f4c" stroke-width="0.5" stroke-linecap="round"/><path d="M260.71768,139.58305l0.04588,1.85975l0.09383,16.90915l-2.02685,-0.03582l-1.04496,-2.49705l-0.18921,-14.87486l0.84653,-1.22433z" data-paper-data="{&quot;index&quot;:null}" fill="#1f2f47" stroke="#1e2f4c" stroke-width="0.5" stroke-linecap="round"/><path d="M229.7943,133.43273l1.40742,-5.02435l16.88903,0.62805l2.81484,6.0711v11.93285h-19.20122l-2.11113,-0.20935z" fill="#aabed1" stroke="#adc3d8" stroke-width="0.5" stroke-linecap="round"/><path d="M228.83113,131.51119l1.48561,-5.02436l17.82731,0.62804l2.97122,6.0711v11.93285h-20.26795l-2.22841,-0.20935z" fill="#e0e5eb" stroke="#dfe7f0" stroke-width="0.5" stroke-linecap="round"/><path d="M237.28745,147.50972l-0.192,5.56809l-4.80008,-1.34402l1.53602,-5.76009z" fill="#1f304a" stroke="#20324a" stroke-width="0.5" stroke-linecap="round"/><path d="M244.30348,146.71123l1.53602,5.76009l-4.80008,1.34402l-0.192,-5.56809z" data-paper-data="{&quot;index&quot;:null}" fill="#1f304a" stroke="#20324a" stroke-width="0.5" stroke-linecap="round"/><path d="M234.30844,139.21683v-19.65472h7.34092v19.65472z" fill="#444f63" stroke="#424959" stroke-width="0.5" stroke-linecap="butt"/><path d="M223.65227,122.68173v-5.68329h31.25811v5.68329z" fill="#444f63" stroke="#424959" stroke-width="0.5" stroke-linecap="butt"/><path d="M233.93464,140.30521v-34.81016h7.57772v34.81016z" fill="#444f63" stroke="#424959" stroke-width="0.5" stroke-linecap="butt"/><path d="M232.2837,104.76789c0.09986,-0.36962 0.38453,-0.89646 1.19604,-0.89646c1.25,0 1.25,1.25 1.25,1.25l-0.01701,0.03131c0.45044,2.74941 -0.05178,4.96486 -0.73026,7.61093c-0.51393,2.00429 0.21906,4.12333 -0.22547,6.10692c-0.28676,1.27958 -1.30891,2.30902 -2.23502,3.23739c-0.71391,0.71566 -1.17518,1.65775 -1.89443,2.36804c-2.56055,2.52862 -6.1478,2.73707 -9.51192,2.7299c-3.92,-0.6436 -8.10493,-2.19418 -12.12209,-1.89332c-1.59809,0.11969 -4.89539,2.22899 -6.34307,1.12774c-0.77607,-0.59036 -0.60309,-4.40036 -0.67458,-5.34995c-0.27982,-3.71676 -3.63319,-9.76142 1.41803,-11.0252c2.31548,-0.77804 4.61633,-2.00238 7.08001,-2.16495c3.34071,-0.22044 6.63364,1.19255 10.01331,1.18105c4.44748,-0.01513 9.35486,-1.47257 12.79644,-4.3134z" fill="#134082" stroke="none" stroke-width="0.5" stroke-linecap="butt"/><path d="M247.70622,116.74185c0.69338,1.04006 -0.34669,1.73344 -0.34669,1.73344l-0.62292,0.40963c-4.44888,3.54627 -11.53225,4.43119 -15.87298,0.1446c0,0 -0.88388,-0.88388 0,-1.76777c0.88388,-0.88388 1.76777,0 1.76777,0c3.37567,3.42937 9.12291,2.4185 12.54348,-0.32901l0.79791,-0.53758c0,0 1.04006,-0.69338 1.73344,0.34669z" fill="#869bb7" stroke="none" stroke-width="0.5" stroke-linecap="butt"/><path d="M216.58975,113.87788c0.05525,0.01598 0.08709,0.02872 0.08709,0.02872c0.51375,0.21022 3.0486,1.36057 3.02908,0.07904c-0.04908,-3.22134 -4.67073,-0.99688 -3.11617,-0.10776zM216.53069,116.52341c-0.09584,0.01971 -0.20153,0.03058 -0.3181,0.03058c-0.67465,0 -0.98518,-0.36412 -1.12811,-0.69931c-0.45261,-0.23341 -0.92884,-0.44676 -1.14366,-0.88203c-2.06668,-4.18744 3.74653,-6.25996 6.55471,-4.23477c1.60641,1.1585 2.59903,3.86313 0.83706,5.47558c-0.59227,0.54201 -1.26926,0.77937 -1.97287,0.82979c0.0263,1.33069 0.23033,2.59958 0.23409,3.94403v0.94722c0,0 0,0.09835 -0.02759,0.23987c1.21533,-0.25513 2.41329,-0.89557 3.57699,-2.07097l0.71041,-0.71041c0,0 0.88388,-0.88388 1.76777,0c0.88388,0.88388 0,1.76777 0,1.76777l-0.71041,0.71041c-4.72932,4.69015 -10.02128,2.95331 -15.02482,-0.04882c0,0 -1.07187,-0.64312 -0.42875,-1.71499c0.64312,-1.07187 1.71499,-0.42875 1.71499,-0.42875c1.95441,1.17265 3.96429,2.23081 5.95795,2.53865c-0.03654,-0.16415 -0.03654,-0.28277 -0.03654,-0.28277v-0.94722c0.00468,-1.44796 -0.23275,-2.81119 -0.2368,-4.26247c0,0 0,-0.03267 0.00528,-0.08743c-0.11173,-0.03687 -0.22235,-0.07503 -0.33161,-0.11397z" fill="#e2efee" stroke="none" stroke-width="0.5" stroke-linecap="butt"/><path d="M230.28031,192.24323c-0.49529,-0.77606 0.12718,-1.43315 0.24719,-1.54862c0.07097,-0.24658 0.33193,-0.91076 1.0895,-0.94124l0.02911,-0.02511c1.9918,-0.99045 3.18405,-1.08423 5.40561,-0.85893c2.26736,0.22994 5.81433,0.04077 7.90539,0.90831c3.00339,1.24605 3.19759,7.42399 1.08702,9.35839c-1.81886,1.66704 -5.35523,1.65663 -6.56158,-0.66021c-0.28894,-0.55492 -0.23614,-1.22879 -0.35421,-1.84318c-0.07312,-0.94141 0.04785,-1.90624 -0.15475,-2.82849c-0.08946,-0.40724 -1.26732,-0.71876 -1.49046,-0.45164c-0.38285,0.45833 -0.00104,1.19438 0.00128,1.79157c0.00985,2.52887 -0.17563,5.7515 -3.72398,5.49568c-3.88315,-0.27995 -3.88493,-5.18868 -3.48013,-8.39654z" fill="#1d232f" stroke="none" stroke-width="0.5" stroke-linecap="butt"/><path d="M223.60124,178.9644c0.33057,-0.60682 1.10268,-0.60682 1.10268,-0.60682l0.70746,0.0894c4.78231,1.9136 10.38195,3.58346 15.52351,4.04667c2.81382,0.01146 5.1802,-1.00044 7.58553,-2.38626c1.89197,-1.09005 3.21485,-2.66621 5.68381,-2.07468c2.02444,0.48502 6.08139,3.26721 6.16574,5.46644c0.11145,2.90571 -3.43583,6.5254 -5.77183,7.4844c-1.02468,0.40393 -2.45995,1.11528 -3.59439,0.73344c-1.01378,-0.34123 -2.23248,-2.53856 -3.04975,-3.2691c-0.2207,-0.19728 -0.6517,-0.43199 -0.94515,-0.66055c-0.09502,0.53146 -0.32308,1.25955 -0.46188,1.62674c-0.66814,1.76753 -1.8746,4.07676 -3.60446,5.02949c-3.79231,2.08863 -9.75003,0.32906 -11.95798,-3.00829c-0.14436,-0.50888 -0.29211,-1.01682 -0.43309,-1.52665c-0.06891,-0.2492 -0.20328,-0.67204 -0.27673,-1.03335c-0.28238,0.26217 -0.67971,0.53832 -0.90505,0.71298c-0.48128,0.37302 -0.89262,0.86195 -1.44571,1.11662c-1.7433,0.80272 -5.4669,0.71292 -6.98509,-0.69173c-3.97446,-3.67723 -0.60005,-8.4933 2.6328,-11.02741c0,0 0.01029,-0.008 0.02958,-0.02132z" fill="#07326c" stroke="none" stroke-width="0.5" stroke-linecap="butt"/><path d="M222.13401,168.27021c2.30462,-0.01204 4.63398,-0.03091 6.91023,0.1274c7.19007,0.0014 14.47772,1.00653 21.62926,0.48924c2.40411,-0.1739 6.28092,-1.36033 8.57953,0.01758c2.55892,1.53395 1.52678,4.09533 1.13776,6.42947c-0.33974,1.78615 -0.81907,3.59813 -2.68052,4.45925c-1.78638,0.8264 -3.75834,-0.32265 -5.59693,0.48766c-2.48476,1.09508 -4.76621,2.95847 -7.37238,3.79964c-4.78595,1.54471 -9.79312,1.0416 -14.63894,0.2632c-1.76572,-0.7876 -3.62576,-1.37739 -5.33385,-2.28132c-1.02435,-0.54209 -1.91205,-1.63967 -2.99968,-1.99603c-1.00093,-0.32796 -2.13629,-0.53556 -2.89516,-1.266c-1.80182,-1.73431 -4.06609,-6.94085 -2.44279,-9.27351c0.92363,-1.32725 3.16351,-1.3419 4.56241,-1.59624c0,0 0.70135,-0.12752 1.14108,0.33968z" fill="#a34812" stroke="none" stroke-width="0.5" stroke-linecap="butt"/><path d="M225.46024,182.05493c-0.39863,-0.18039 -0.56285,-0.54215 -0.6305,-0.8096c-1.70098,-1.6351 -3.84027,-3.27056 -4.28484,-5.70569c-0.78954,-4.32467 3.26823,-6.99967 7.1283,-6.56131c3.78656,0.43001 7.10857,6.05356 11.12428,4.90689c0.99833,-0.28507 1.77254,-1.08213 2.67396,-1.59726c3.05605,-1.69521 6.85892,-3.31864 10.24579,-1.44824c2.29359,1.26663 4.83748,7.69432 1.42542,9.27439c-4.48862,2.0786 -2.64313,-1.32179 -3.59514,-3.384c-0.23946,-0.51871 -1.44215,-0.29763 -1.69006,-0.28024c-2.19925,0.15422 -3.29674,0.82718 -5.1717,1.83887c-1.73856,1.49028 -1.18108,4.02713 -4.01994,4.48159c-3.68894,0.59054 -5.86097,-3.85911 -8.19721,-5.75166c-0.28566,-0.23141 -2.58173,-2.28091 -3.23563,-2.22576c-0.22669,0.01912 0.38127,0.30808 0.42946,0.53041c0.17702,0.81668 0.18198,1.66221 0.22667,2.49665c0.06822,1.27371 0.00128,2.55107 0.00128,3.8266c0,0 0,1.25 -1.25,1.25c-0.77214,0 -1.06732,-0.47696 -1.18016,-0.84163z" fill="#d7c7b8" stroke="none" stroke-width="0.5" stroke-linecap="butt"/><path d="M224.17747,178.40419c-0.15433,0.07082 -0.34408,0.11436 -0.57736,0.11436c-1.25,0 -1.25,-1.25 -1.25,-1.25l0.04405,-0.03594c-0.389,-1.46742 -0.23568,-2.76868 -0.50863,-4.23093c-0.18835,-1.009 -0.60256,-2.01673 -0.50153,-3.03817c0.26022,-2.63093 2.37753,-4.20569 4.80903,-4.62999c4.68388,-0.81733 9.3828,0.30929 14.13719,-0.71102c5.0393,-1.37224 8.95397,-1.4377 13.33298,1.92067c3.05696,2.34446 2.87639,8.03375 -0.51799,10.28562c-3.01949,2.00317 -3.6256,-1.26315 -6.31729,-1.35053c-0.62784,-0.02038 -1.38195,0.89846 -1.73756,1.07702c-1.16922,0.58708 -2.07037,0.52139 -3.3443,0.61682c-1.23169,0.18767 -2.10178,0.47855 -2.99602,1.42763c-0.62437,0.66266 -1.18833,2.56983 -2.05887,2.69975c-0.79443,0.11856 -1.3808,-0.82522 -2.03066,-1.29729c-1.60273,-1.16425 -2.69093,-2.86419 -4.27189,-4.04532c-0.2719,-0.20314 -2.40428,-1.53587 -3.46183,-2.42057c0.01149,0.62258 -0.13669,1.44925 -0.27518,1.90191c-0.33379,1.09106 -0.432,2.51931 -1.3998,3.12361c-0.33345,0.2082 -0.69966,0.06999 -1.07433,-0.15762z" fill="#e2dfcd" stroke="none" stroke-width="0.5" stroke-linecap="butt"/><path d="M227.53472,182.48076l-0.10238,-0.12978c-1.11611,-0.89161 -2.52825,-1.11289 -3.24455,-2.50467c-2.17677,-4.22947 1.03322,-8.24968 5.37775,-8.24576c4.02824,0.36846 6.01567,3.17847 9.52376,4.2268c1.8945,0.56614 3.32942,-0.88753 4.8782,-1.53729c1.0574,-0.44361 2.48114,-0.34172 3.60308,-0.34153c2.64249,0.29487 5.6222,2.88961 3.59304,5.79568c-1.50508,2.1555 -6.04971,3.28227 -8.39018,4.18282c-5.26372,1.06164 -9.88374,1.16634 -14.85189,-0.95442c0,0 -0.35193,-0.15083 -0.38683,-0.49184z" fill="#e7882a" stroke="none" stroke-width="0.5" stroke-linecap="butt"/><path d="M223.54902,161.93357c0.08358,0.16199 0.13615,0.36576 0.13615,0.6221c0,1.25 -1.25,1.25 -1.25,1.25l-0.55338,-0.00765c-2.59237,-0.31624 -4.17943,-1.43459 -5.9482,-3.28305c-1.00192,-4.86738 2.96741,-6.40589 6.90233,-7.85529c7.37557,-2.71674 13.76912,-3.13583 21.57912,-3.11772c4.53447,0.76192 11.02063,0.6705 14.97397,3.38126c1.29352,0.88695 3.15188,2.6737 3.33102,4.37211c0.2869,2.72005 -3.06616,6.20857 -5.61971,6.63403c-2.18179,0.36352 -4.61941,-1.31121 -6.77001,-1.52593c-3.9124,-0.89902 -8.65805,-2.14267 -12.65553,-2.34054c-4.79947,-0.23756 -9.45057,1.00686 -14.12575,1.87067z" fill="#1c4980" stroke="none" stroke-width="0.5" stroke-linecap="butt"/><path d="M224.55657,169.66254c-0.83228,0.65729 -1.62081,-0.13124 -1.62081,-0.13124l-0.20364,-0.20884c-1.56028,-1.94964 -2.32078,-5.88387 -0.14755,-7.84892c1.6812,-1.52014 5.1524,-1.77488 7.28026,-2.09237c3.39557,-0.50665 6.63846,-1.66254 10.05017,-2.22468c4.80765,-0.01376 9.45876,0.854 13.97837,2.57c1.14897,0.43624 3.74718,1.19513 4.51356,2.14864c1.29246,1.60806 0.68454,2.31225 0.0595,3.81875c-1.74731,4.21147 -4.59898,3.95043 -8.49876,4.73038c-7.99014,1.73135 -17.53955,1.92454 -25.4111,-0.76172z" fill="#11366b" stroke="none" stroke-width="0.5" stroke-linecap="butt"/><path d="M238.41676,161.02905c0.04612,0.01334 0.0727,0.02397 0.0727,0.02397c0.42889,0.17549 2.545,1.13582 2.5287,0.06599c-0.04097,-2.68921 -3.89917,-0.83221 -2.60141,-0.08996zM238.36746,163.23756c-0.08001,0.01645 -0.16824,0.02553 -0.26555,0.02553c-0.5632,0 -0.82243,-0.30397 -0.94175,-0.5838c-0.37784,-0.19485 -0.7754,-0.37296 -0.95474,-0.73632c-1.72528,-3.49572 3.12764,-5.22588 5.47194,-3.53523c1.34105,0.96713 2.1697,3.22498 0.69879,4.57106c-0.49444,0.45248 -1.05959,0.65062 -1.64697,0.69272c0.02195,1.11087 0.19228,2.17015 0.19542,3.29251v0.79075c0,0 0,0.0821 -0.02303,0.20025c1.01457,-0.21299 2.01464,-0.74763 2.98611,-1.72887l0.59306,-0.59306c0,0 0.73787,-0.73788 1.47575,0c0.73788,0.73788 0,1.47575 0,1.47575l-0.59306,0.59306c-3.94808,3.91538 -8.36586,2.46545 -12.54287,-0.04076c0,0 -0.89481,-0.53688 -0.35792,-1.43169c0.53688,-0.8948 1.43169,-0.35792 1.43169,-0.35792c1.63156,0.97894 3.30944,1.86231 4.97376,2.11929c-0.0305,-0.13703 -0.0305,-0.23606 -0.0305,-0.23606v-0.79075c0.00391,-1.20877 -0.1943,-2.34681 -0.19769,-3.55835c0,0 0,-0.02727 0.00441,-0.07299c-0.09327,-0.03078 -0.18562,-0.06264 -0.27684,-0.09514z" fill="url(#color-4)" stroke="none" stroke-width="0.5" stroke-linecap="butt"/><path d="M257.73784,167.18389c0.55902,1.11803 -0.55902,1.67705 -0.55902,1.67705l-0.17342,0.08041c-2.83438,1.77027 -5.8226,2.7759 -9.00747,3.73137c-3.25651,1.06646 -6.81534,0.88899 -10.20712,0.88899c-5.83053,0 -10.59,-0.2339 -15.9268,-2.90094c0,0 -1.11803,-0.55902 -0.55902,-1.67705c0.55902,-1.11803 1.67705,-0.55902 1.67705,-0.55902c4.98363,2.49313 9.3631,2.637 14.80876,2.637c3.10326,0 6.48023,0.23932 9.45256,-0.7724c2.98213,-0.89464 5.78553,-1.80957 8.43703,-3.46795l0.38038,-0.19648c0,0 1.11803,-0.55902 1.67705,0.55902z" fill="#73622f" stroke="none" stroke-width="0.5" stroke-linecap="butt"/><path d="M232.94116,171.61946c0,-0.69036 0.55964,-1.25 1.25,-1.25c0.69036,0 1.25,0.55964 1.25,1.25c0,0.69036 -0.55964,1.25 -1.25,1.25c-0.69036,0 -1.25,-0.55964 -1.25,-1.25z" fill="#ba9b38" stroke="none" stroke-width="0.5" stroke-linecap="butt"/><path d="M237.50995,171.89636c0,-0.69036 0.55964,-1.25 1.25,-1.25c0.69036,0 1.25,0.55964 1.25,1.25c0,0.69036 -0.55964,1.25 -1.25,1.25c-0.69036,0 -1.25,-0.55964 -1.25,-1.25z" fill="#ba9b38" stroke="none" stroke-width="0.5" stroke-linecap="butt"/><path d="M242.4941,171.75791c0,-0.69036 0.55964,-1.25 1.25,-1.25c0.69036,0 1.25,0.55964 1.25,1.25c0,0.69036 -0.55964,1.25 -1.25,1.25c-0.69036,0 -1.25,-0.55964 -1.25,-1.25z" fill="#ba9b38" stroke="none" stroke-width="0.5" stroke-linecap="butt"/><path d="M220.49484,186.82387c0.35405,0.10507 0.59333,0.34434 0.59333,0.34434l0.6649,0.66881c1.46905,1.67891 2.24988,2.50356 4.6331,2.03346c0.85917,-0.01837 1.93638,-0.62737 2.5775,-0.05512c1.07675,0.96108 -0.29907,4.98373 -1.22104,5.69821c-0.6609,0.51216 -1.74249,0.26049 -2.37479,0.80756c-1.18952,1.02918 -1.86375,2.69002 -3.71834,2.82688c-2.64244,0.195 -3.90303,-2.73527 -4.47064,-4.79128c-0.34414,-1.24653 -0.38102,-1.98789 -0.14761,-3.25849c0.25599,-1.3935 0.91766,-2.67379 1.5939,-3.89642c0,0 0.60705,-1.0927 1.69975,-0.48564c0.06198,0.03443 0.11849,0.07043 0.16995,0.10769z" fill="#2b283b" stroke="none" stroke-width="0.5" stroke-linecap="butt"/><path d="M252.56322,192.79929c-0.32668,0.062 -1.12809,0.10857 -1.43934,-0.82518c-0.39528,-1.18585 0.79057,-1.58114 0.79057,-1.58114l0.40093,-0.13304c2.24076,-0.67121 3.37847,-1.42295 4.9189,-3.18343c1.05347,-1.03435 1.87926,-3.31391 3.75276,-3.18221c2.70778,0.19035 4.37107,6.05178 3.53048,7.95153c-0.48354,1.09281 -1.61204,2.08893 -2.77337,2.40238c-0.06877,0.01856 -3.1455,-0.20321 -3.31068,0.12612c-0.24432,0.48713 0.0235,1.31475 -0.45835,1.56932c-0.81272,0.42936 -1.89261,0.44737 -2.75453,0.12806c-0.47197,-0.17485 -1.96323,-2.3654 -2.65737,-3.27241z" fill="#2b283b" stroke="none" stroke-width="0.5" stroke-linecap="butt"/><path d="M229.23291,187.75141c0,0.625 -0.625,0.625 -0.625,0.625l-0.5892,-0.0085c-3.12915,-0.53596 -5.96292,-3.30124 -5.99477,-6.57546c0,0 0,-0.625 0.625,-0.625c0.625,0 0.625,0.625 0.625,0.625c-0.03391,2.6453 2.45978,4.94115 4.95027,5.34247l0.3837,-0.0085c0,0 0.625,0 0.625,0.625z" fill="#9e914a" stroke="none" stroke-width="0.5" stroke-linecap="butt"/><path d="M226.78458,189.55897c0.03642,0.01492 0.07298,0.0297 0.10967,0.04436zM226.78375,189.55864c0.00293,0 0.62499,0.00147 0.62499,0.625c0,0.625 -0.625,0.625 -0.625,0.625l-0.35373,-0.0447c-3.22338,-1.29093 -5.50302,-3.51486 -6.10012,-7.04457c0,0 -0.10275,-0.6165 0.51375,-0.71925c0.6165,-0.10275 0.71925,0.51375 0.71925,0.51375c0.50084,3.05729 2.46897,4.91753 5.22087,6.04477z" fill="#9e914a" stroke="none" stroke-width="0.5" stroke-linecap="butt"/><path d="M255.36245,179.82971c0.625,0 0.625,0.625 0.625,0.625v0.60806c0,4.95496 -2.40821,6.31749 -6.59507,7.9986c0,0 -0.5803,0.23212 -0.81242,-0.34818c-0.23212,-0.5803 0.34818,-0.81242 0.34818,-0.81242c3.74547,-1.49303 5.80931,-2.39264 5.80931,-6.83801v-0.60806c0,0 0,-0.625 0.625,-0.625z" fill="#9e914a" stroke="none" stroke-width="0.5" stroke-linecap="butt"/><path d="M256.70018,181.7755c0.625,0 0.625,0.625 0.625,0.625v0.36483c-0.01074,3.94013 -2.64991,6.11717 -6.1431,7.28156c0,0 -0.59293,0.19764 -0.79057,-0.39528c-0.19764,-0.59293 0.39528,-0.79057 0.39528,-0.79057c2.96814,-0.98938 5.29902,-2.70814 5.28838,-6.09571v-0.36483c0,0 0,-0.625 0.625,-0.625z" fill="#9e914a" stroke="none" stroke-width="0.5" stroke-linecap="butt"/><path d="M252.062,191.64297c0,-0.6052 0.58602,-0.62437 0.62316,-0.62498c2.75847,-1.17591 4.35564,-5.04555 5.24627,-7.72063c0,0 0.19764,-0.59293 0.79057,-0.39528c0.59293,0.19764 0.39528,0.79057 0.39528,0.79057c-1.03767,3.10945 -2.87474,7.23937 -6.07655,8.53063l-0.35373,0.0447c0,0 -0.625,0 -0.625,-0.625zM252.63698,191.03821l-0.06049,0.02447c0.02023,-0.00801 0.04039,-0.01617 0.06049,-0.02447z" fill="#c1ccda" stroke="none" stroke-width="0.5" stroke-linecap="butt"/><path d="M226.12664,191.55765c-0.27951,0.55902 -0.83853,0.27951 -0.83853,0.27951l-0.5285,-0.26631c-2.21895,-1.34053 -3.97725,-2.49152 -5.83612,-4.35039c0,0 -0.44194,-0.44194 0,-0.88388c0.44194,-0.44194 0.88388,0 0.88388,0c1.79309,1.79309 3.44806,2.8817 5.59536,4.16241l0.44439,0.22014c0,0 0.55902,0.27951 0.27951,0.83853z" fill="#c1ccda" stroke="none" stroke-width="0.5" stroke-linecap="butt"/><path d="M235.10127,186.85354c0,-0.34518 0.27982,-0.625 0.625,-0.625c0.34518,0 0.625,0.27982 0.625,0.625c0,0.34518 -0.27982,0.625 -0.625,0.625c-0.34518,0 -0.625,-0.27982 -0.625,-0.625z" fill="#e2d06a" stroke="none" stroke-width="0.5" stroke-linecap="butt"/><path d="M240.45218,186.48871c0,-0.34518 0.27982,-0.625 0.625,-0.625c0.34518,0 0.625,0.27982 0.625,0.625c0,0.34518 -0.27982,0.625 -0.625,0.625c-0.34518,0 -0.625,-0.27982 -0.625,-0.625z" fill="#e2d06a" stroke="none" stroke-width="0.5" stroke-linecap="butt"/><path d="M235.3421,189.80411c0,-0.34518 0.27982,-0.625 0.625,-0.625c0.34518,0 0.625,0.27982 0.625,0.625c0,0.34518 -0.27982,0.625 -0.625,0.625c-0.34518,0 -0.625,-0.27982 -0.625,-0.625z" fill="#e2d06a" stroke="none" stroke-width="0.5" stroke-linecap="butt"/><path d="M240.45218,190.01544c0,-0.34518 0.27982,-0.625 0.625,-0.625c0.34518,0 0.625,0.27982 0.625,0.625c0,0.34518 -0.27982,0.625 -0.625,0.625c-0.34518,0 -0.625,-0.27982 -0.625,-0.625z" fill="#e2d06a" stroke="none" stroke-width="0.5" stroke-linecap="butt"/><g stroke="none" stroke-linecap="butt"><path d="M229.41141,182.41812c-0.03458,0.00527 -0.0718,0.00809 -0.11184,0.00809c-0.32772,0 -0.46568,-0.18975 -0.52376,-0.34951c-0.49645,-0.38987 -0.9596,-0.72697 -1.413,-1.19728c-0.38121,-1.26522 -0.52448,-3.22871 -0.14445,-4.52623c0.79239,-2.7054 4.11565,-2.6836 5.89997,-1.07276c0.85748,0.77412 1.30875,1.92131 1.75417,2.96684c0.34074,0.5437 0.89685,1.30215 1.04543,1.9434c0.43051,1.85796 -0.62375,3.13392 -2.45261,3.14114c-1.32012,0.00521 -2.87746,-0.20421 -4.0539,-0.91369z" fill="#ffffff" stroke-width="0.5"/><path d="M234.46146,180.75086c0,0.90026 -0.66898,1.63007 -1.49423,1.63007c-0.82524,0 -1.49424,-0.72981 -1.49424,-1.63007c0,-0.90026 0.66899,-1.63007 1.49424,-1.63007c0.82524,0 1.49423,0.72981 1.49423,1.63007z" fill="url(#color-5)" stroke-width="0"/></g><g data-paper-data="{&quot;index&quot;:null}" stroke="none" stroke-linecap="butt"><path d="M242.34388,183.14617c-1.77969,-0.00703 -2.80559,-1.24868 -2.38666,-3.05668c0.14459,-0.62401 0.68573,-1.36206 1.01731,-1.89114c0.43345,-1.01741 0.87258,-2.13377 1.70701,-2.88708c1.73634,-1.56753 4.97024,-1.58874 5.74132,1.04392c0.36981,1.26263 0.2304,3.17332 -0.14056,4.40452c-0.44121,0.45766 -0.89192,0.78569 -1.37502,1.16509c-0.05651,0.15547 -0.19079,0.34013 -0.50968,0.34013c-0.03897,0 -0.07519,-0.00276 -0.10883,-0.00788c-1.14481,0.6904 -2.66027,0.8942 -3.94489,0.88913z" fill="#ffffff" stroke-width="0.5"/><path d="M242.82857,179.04839c0.80306,0 1.45406,0.71018 1.45406,1.58624c0,0.87606 -0.651,1.58624 -1.45406,1.58624c-0.80306,0 -1.45406,-0.71018 -1.45406,-1.58624c0,-0.87606 0.651,-1.58624 1.45406,-1.58624z" fill="url(#color-6)" stroke-width="0"/></g><path d="M223.32962,172.81924c-0.37016,-0.09641 -0.91055,-0.3779 -0.91055,-1.19978c0,-1.25 1.25,-1.25 1.25,-1.25l0.46781,0.13164c0.67342,-0.1401 1.1735,0.44332 1.1735,0.44332c0.13557,0.1616 0.2761,0.3191 0.42135,0.47253c6.35137,1.96074 12.21841,1.5769 18.80209,0.62683c2.46771,-0.3561 4.65273,-0.96862 6.965,-1.17533l-0.05323,-0.34601l1.7776,-0.27348c0.069,-0.01181 0.13994,-0.01796 0.2123,-0.01796c0.69036,0 1.25,0.55964 1.25,1.25c0,0.31317 -0.11517,0.59945 -0.30547,0.81878l-0.82615,0.96385c-1.40074,1.60213 -3.09767,2.4195 -4.98439,3.36282c-7.15581,3.14711 -18.19862,2.56222 -24.19096,-3.05404c-0.01452,-0.00502 -0.02904,-0.01003 -0.04355,-0.01504c-0.33512,-0.24604 -0.67023,-0.49209 -1.00535,-0.73813z" fill="#20242f" stroke="none" stroke-width="0.5" stroke-linecap="butt"/><path d="M228.77886,175.92429l-0.10545,-0.09615c-0.40586,-3.34703 4.89079,-2.01211 5.98893,-0.08376c0.48409,0.85007 -0.13229,2.2612 -1.06369,2.55396c-1.25241,0.39365 -3.68159,-1.26664 -4.59776,-2.02188c0,0 -0.16717,-0.13931 -0.22203,-0.35217z" fill="#5e290a" stroke="none" stroke-width="0.5" stroke-linecap="butt"/><path d="M246.93651,176.36736c-0.91617,0.75523 -3.34535,2.41553 -4.59776,2.02188c-0.9314,-0.29275 -1.54778,-1.70389 -1.06369,-2.55396c1.09814,-1.92835 6.39478,-3.26326 5.98892,0.08376l-0.10545,0.09614c-0.05486,0.21286 -0.22203,0.35217 -0.22203,0.35217z" data-paper-data="{&quot;index&quot;:null}" fill="#5e290a" stroke="none" stroke-width="0.5" stroke-linecap="butt"/><path d="M238.22218,183.65857l-0.14806,-0.1116c-0.29771,0.01497 -0.62004,-0.0695 -0.86031,0.1116c0,0 -0.20801,0.13867 -0.34669,-0.06934c-0.13868,-0.20801 0.06934,-0.34669 0.06934,-0.34669c0.40876,-0.25372 0.81214,-0.18821 1.28255,-0.17412l0.28052,0.17412c0,0 0.20801,0.13867 0.06933,0.34669c-0.13868,0.20801 -0.34669,0.06934 -0.34669,0.06934z" data-paper-data="{&quot;index&quot;:null}" fill="#1d232f" stroke="none" stroke-width="0.5" stroke-linecap="butt"/><g stroke="none" stroke-width="0.5" stroke-linecap="butt"><path d="M216.05812,198.90684c-0.43944,0.03874 -0.79601,-0.26689 -0.79601,-0.26689l-1.02871,-1.09909c-0.76409,-3.18419 2.78713,-7.17742 5.92695,-5.01686c1.63207,0.90197 5.15959,2.08964 6.16398,3.62895c1.4746,2.25996 -0.73759,5.59344 -3.18985,5.87249c-2.35241,0.2677 -5.03596,-1.47447 -7.07636,-3.11861z" fill="#53788d"/><path d="M217.46488,199.53853l0.02565,0.02141c1.24151,1.00871 4.00439,0.69126 4.53699,2.55383c0.13412,0.46902 -1.41716,2.97543 -1.77379,3.49927c-1.92436,2.82668 -4.58618,5.04597 -6.01486,8.19671c-0.34328,0.56554 -0.49102,1.31276 -1.02984,1.69661c-2.10602,1.50027 -4.85783,-0.88076 -4.68103,-3.01851c0.14447,-1.74694 1.91745,-3.90991 2.93846,-5.24333c1.73856,-2.27052 3.04838,-4.32794 3.7899,-7.01206c-0.1133,-0.26579 -0.14198,-0.62847 0.18738,-1.02369c0.14039,-0.16846 0.2867,-0.27188 0.43019,-0.33017c0.18764,-0.12886 0.44842,-0.20169 0.80635,-0.11909c0.54764,0.12638 0.73143,0.48016 0.78461,0.77901z" fill="#345b74"/><path d="M212.27243,213.18917c-0.01063,0.00921 -0.02128,0.01839 -0.03195,0.02754l0.05116,0.02841l-0.08029,0.14452l0.15628,0.13675l-0.70517,0.80591c-0.1909,0.22049 -0.47287,0.35998 -0.78743,0.35998c-0.57502,0 -1.04116,-0.46614 -1.04116,-1.04116c0,-0.1903 0.05105,-0.36866 0.14021,-0.52215l0.48202,-0.86763c1.91177,-4.20342 4.63289,-7.6344 6.11654,-12.10753c0,0 0.32924,-0.98772 1.31697,-0.65848c0.11649,0.03883 0.21466,0.08681 0.29721,0.14126c0.19693,-0.03655 0.43156,-0.00858 0.70045,0.14507c0.90397,0.51656 0.38742,1.42054 0.38742,1.42054l-0.41637,0.72817c-2.17994,3.62771 -3.33202,8.37961 -6.50685,11.18961c-0.01345,0.02935 -0.02687,0.05872 -0.04024,0.08814z" fill="#4f8aaf"/></g></g></g></svg>