<svg version="1.1" xmlns="http://www.w3.org/2000/svg" xmlns:xlink="http://www.w3.org/1999/xlink" width="28.49853" height="42.47239" viewBox="0,0,28.49853,42.47239"><g transform="translate(-225.74402,-158.7638)"><g data-paper-data="{&quot;isPaintingLayer&quot;:true}" fill="#ffffff" fill-rule="nonzero" stroke="#000000" stroke-width="0.5" stroke-linecap="square" stroke-linejoin="miter" stroke-miterlimit="10" stroke-dasharray="" stroke-dashoffset="0" style="mix-blend-mode: normal"><path d="M253.99252,186.83293c0,2.41245 -0.38711,4.50346 -1.1613,6.27306c-0.76728,1.76959 -1.84217,3.24194 -3.22465,4.41706c-1.37559,1.16821 -3.02074,2.03918 -4.9355,2.61291c-1.91475,0.56682 -4.01613,0.85023 -6.30415,0.85023c-1.03688,0 -2.10139,-0.10023 -3.19356,-0.30069c-1.08525,-0.20046 -2.16361,-0.4735 -3.23503,-0.81912c-1.06452,-0.34563 -2.10139,-0.75346 -3.1106,-1.22351c-1.00923,-0.47005 -1.94932,-0.97811 -2.82028,-1.52419l1.03688,-10.93896c0.69124,0.47005 1.46198,0.91935 2.31221,1.34793c0.85714,0.42857 1.74195,0.81221 2.65438,1.15092c0.91935,0.3318 1.84563,0.59794 2.77881,0.7984c0.93318,0.19354 1.83526,0.29032 2.70623,0.29032c0.51152,0 1.03341,-0.03801 1.56567,-0.11405c0.53225,-0.08295 1.01613,-0.23157 1.45161,-0.44586c0.43549,-0.2212 0.79493,-0.53225 1.07834,-0.93318c0.28341,-0.40092 0.42511,-0.91936 0.42511,-1.5553c0,-0.39401 -0.18318,-0.76382 -0.54954,-1.10945c-0.35945,-0.34563 -0.79493,-0.6394 -1.30645,-0.88134c-0.50461,-0.24885 -1.02995,-0.43894 -1.57604,-0.57028c-0.54609,-0.13825 -0.99886,-0.20738 -1.3583,-0.20738c-0.25576,0 -0.55991,0.01383 -0.91245,0.04148c-0.35253,0.02765 -0.71198,0.06913 -1.07833,0.12443c-0.35945,0.04839 -0.70854,0.12442 -1.04725,0.22811c-0.3318,0.09678 -0.59102,0.21774 -0.77765,0.36291l0.1659,-7.78688c0.31106,0.04148 0.60139,0.07259 0.87097,0.09332c0.26959,0.01383 0.55991,0.02074 0.87097,0.02074c0.63594,0 1.32374,-0.05876 2.06338,-0.17627c0.74654,-0.11751 1.43779,-0.32488 2.07373,-0.62212c0.63594,-0.30415 1.16475,-0.71889 1.58641,-1.24424c0.42857,-0.52534 0.64286,-1.20622 0.64286,-2.04263c0,-0.59447 -0.16244,-1.07834 -0.48733,-1.45162c-0.32488,-0.37327 -0.72927,-0.66014 -1.21314,-0.8606c-0.47696,-0.20046 -0.99885,-0.33526 -1.56567,-0.40437c-0.55991,-0.07604 -1.06797,-0.11405 -1.52419,-0.11405c-1.46544,0 -2.91014,0.25575 -4.33412,0.76727c-1.42396,0.50461 -2.68203,1.24771 -3.77419,2.22927l-2.28111,-9.91246c1.6659,-1.35484 3.56336,-2.39171 5.6924,-3.1106c2.13595,-0.71889 4.28228,-1.07834 6.43896,-1.07834c1.97696,0 3.86753,0.28687 5.67167,0.8606c1.81107,0.57374 3.40439,1.41705 4.77996,2.52996c1.38249,1.1129 2.48157,2.48849 3.29724,4.12673c0.81567,1.63134 1.22351,3.51845 1.22351,5.66131c0,0.61521 -0.08986,1.24079 -0.26959,1.87673c-0.17972,0.63594 -0.42511,1.25461 -0.73617,1.85599c-0.31106,0.59447 -0.67397,1.15093 -1.08871,1.66936c-0.41474,0.51843 -0.8606,0.96774 -1.33756,1.34793c0.76728,0.34563 1.39286,0.80877 1.87674,1.38941c0.49079,0.58064 0.88134,1.22351 1.17166,1.92858c0.29032,0.70507 0.49078,1.45507 0.60139,2.25001c0.1106,0.78802 0.1659,1.56222 0.1659,2.32258z"/></g></g></svg>