<svg version="1.1" xmlns="http://www.w3.org/2000/svg" xmlns:xlink="http://www.w3.org/1999/xlink" width="94.62856" height="112.8234" viewBox="0,0,94.62856,112.8234"><defs><linearGradient x1="237.40271" y1="121.08243" x2="237.40271" y2="195.25877" gradientUnits="userSpaceOnUse" id="color-1"><stop offset="0" stop-color="#cfae7d"/><stop offset="1" stop-color="#be904c"/></linearGradient><linearGradient x1="237.30975" y1="140.70279" x2="237.30975" y2="156.50173" gradientUnits="userSpaceOnUse" id="color-2"><stop offset="0" stop-color="#c0965b" stop-opacity="0"/><stop offset="1" stop-color="#c0965b"/></linearGradient><linearGradient x1="237.03302" y1="121.14045" x2="237.03302" y2="160.57237" gradientUnits="userSpaceOnUse" id="color-3"><stop offset="0" stop-color="#ffffcc"/><stop offset="1" stop-color="#ffffcc" stop-opacity="0"/></linearGradient><radialGradient cx="239.74188" cy="183.76695" r="32.21431" gradientUnits="userSpaceOnUse" id="color-4"><stop offset="0" stop-color="#f7cb07"/><stop offset="1" stop-color="#f7cb07" stop-opacity="0"/></radialGradient><radialGradient cx="239.7539" cy="190.79924" r="30.36907" gradientUnits="userSpaceOnUse" id="color-5"><stop offset="0" stop-color="#deb631"/><stop offset="1" stop-color="#deb631" stop-opacity="0"/></radialGradient><linearGradient x1="240.02447" y1="182.40243" x2="240.02447" y2="233.3025" gradientUnits="userSpaceOnUse" id="color-6"><stop offset="0" stop-color="#d9ba6f"/><stop offset="1" stop-color="#af7a38"/></linearGradient><linearGradient x1="232.27722" y1="204.84252" x2="232.27722" y2="215.31461" gradientUnits="userSpaceOnUse" id="color-7"><stop offset="0" stop-color="#bc8d3c"/><stop offset="1" stop-color="#c69b40"/></linearGradient><linearGradient x1="268.62003" y1="193.73356" x2="270.88788" y2="233.0864" gradientUnits="userSpaceOnUse" id="color-8"><stop offset="0" stop-color="#d3ac43"/><stop offset="1" stop-color="#a56e35"/></linearGradient><linearGradient x1="248.97036" y1="209.68687" x2="247.59509" y2="229.59073" gradientUnits="userSpaceOnUse" id="color-9"><stop offset="0" stop-color="#d3ac43"/><stop offset="1" stop-color="#a56e35"/></linearGradient><linearGradient x1="239.2948" y1="207.01124" x2="239.2948" y2="233.40582" gradientUnits="userSpaceOnUse" id="color-10"><stop offset="0" stop-color="#d3ac43"/><stop offset="1" stop-color="#a56e35"/></linearGradient><linearGradient x1="211.16617" y1="195.65997" x2="211.16617" y2="232.84658" gradientUnits="userSpaceOnUse" id="color-11"><stop offset="0" stop-color="#d3ac43"/><stop offset="1" stop-color="#a56e35"/></linearGradient><radialGradient cx="239.87204" cy="192.31434" r="34.06919" gradientUnits="userSpaceOnUse" id="color-12"><stop offset="0" stop-color="#be8823"/><stop offset="1" stop-color="#bd8b27"/></radialGradient><linearGradient x1="232.27722" y1="206.26246" x2="232.27722" y2="212.29724" gradientUnits="userSpaceOnUse" id="color-13"><stop offset="0" stop-color="#bc8d3c"/><stop offset="1" stop-color="#c69b40"/></linearGradient><linearGradient x1="240.05025" y1="180.94205" x2="240.05025" y2="215.29051" gradientUnits="userSpaceOnUse" id="color-14"><stop offset="0" stop-color="#ffffbc"/><stop offset="1" stop-color="#ffffbc" stop-opacity="0"/></linearGradient><linearGradient x1="237.34337" y1="154.6229" x2="237.34337" y2="169.60303" gradientUnits="userSpaceOnUse" id="color-15"><stop offset="0" stop-color="#c0965b"/><stop offset="1" stop-color="#c0965b" stop-opacity="0"/></linearGradient><radialGradient cx="237.40271" cy="158.1706" r="30.80691" gradientUnits="userSpaceOnUse" id="color-16"><stop offset="0" stop-color="#00f0d2"/><stop offset="1" stop-color="#00a8d6"/></radialGradient><radialGradient cx="240.34202" cy="161.23877" r="24.52215" gradientUnits="userSpaceOnUse" id="color-17"><stop offset="0" stop-color="#9eefff"/><stop offset="1" stop-color="#9eefff" stop-opacity="0"/></radialGradient><radialGradient cx="229.59805" cy="149.38369" r="17.16017" gradientUnits="userSpaceOnUse" id="color-18"><stop offset="0" stop-color="#f3fdff"/><stop offset="1" stop-color="#00ccff"/></radialGradient></defs><g transform="translate(-192.68574,-120.58242)"><g data-paper-data="{&quot;isPaintingLayer&quot;:true}" fill-rule="nonzero" stroke-linejoin="miter" stroke-miterlimit="10" stroke-dasharray="" stroke-dashoffset="0" style="mix-blend-mode: normal"><path d="M225.97071,121.90891c7.413,-2.26215 32.00005,-0.19348 39.96848,10.12302c10.57837,13.6955 12.79014,33.27694 1.91989,49.91699c-6.2363,9.54647 -32.30609,16.21222 -41.88837,12.04291c-9.52106,-4.14268 -25.99688,-21.47887 -26.18024,-36.82686c-0.20628,-17.2668 20.31321,-33.46566 26.18024,-35.25604z" fill="url(#color-1)" stroke="#765636" stroke-width="1" stroke-linecap="round"/><path d="M271.16228,140.70279c0,0 3.14415,9.38486 3.62649,14.00556c0.00909,0.08698 -19.16061,0.82945 -37.30816,1.37483c-18.55689,0.55766 -37.16287,0.83742 -37.67521,0.83742c0.30496,-5.64334 4.99328,-15.56421 4.99328,-15.56421z" fill="url(#color-2)" stroke="#765636" stroke-width="0" stroke-linecap="butt"/><path d="M225.97071,121.90891c7.413,-2.26215 32.29095,0.24287 40.25938,10.55937c9.79438,10.25717 7.89953,27.14674 7.89953,27.14674c0,0 -2.0251,-20.6518 -8.87147,-26.99869c-4.43901,-4.11514 -9.83175,-6.7977 -16.07668,-8.59945c-9.77802,-2.82109 -21.25115,-1.81721 -23.83906,-0.60778c-11.11988,5.19674 -22.93539,19.22463 -24.20404,33.34579c-0.24719,2.75146 -1.05311,3.81751 -1.05311,3.81751c0,0 -0.2813,-2.28033 -0.29478,-3.40742c-0.20628,-17.2668 20.31321,-33.46566 26.18024,-35.25604z" fill="url(#color-3)" stroke="#765636" stroke-width="0" stroke-linecap="round"/><path d="M271.95617,172.97326c0,0 -2.53889,5.58299 -4.31841,8.27753c-6.30463,9.54647 -32.65999,16.21222 -42.34724,12.04291c-5.11141,-2.19992 -17.76295,-15.48793 -17.76295,-15.48793z" fill="url(#color-4)" stroke="#765636" stroke-width="0" stroke-linecap="round"/><path d="M270.12297,190.79924c0,6.50652 -13.5967,11.78112 -30.36907,11.78112c-16.77237,0 -30.36908,-5.27459 -30.36908,-11.78111c0,-6.50652 13.5967,-11.78111 30.36908,-11.78111c16.77237,0 30.36907,5.27459 30.36907,11.78111z" fill="url(#color-5)" stroke="none" stroke-width="0" stroke-linecap="butt"/><g stroke-width="0"><path d="M193.76359,187.64418c0,0 3.49134,-1.44011 5.34156,-1.68532c2.00099,-0.26519 6.24755,0.14941 6.24755,0.14941c0,0 7.18248,15.91766 10.19284,16.89497c3.64171,1.18227 43.96089,0.75647 47.61311,-1.95479c2.65048,-1.96761 11.30986,-18.57052 11.30986,-18.57052c0,0 2.74079,-0.39681 6.46682,0.62871c2.47392,0.6809 5.82043,2.72236 5.82043,2.72236c0,0 0.1366,10.94914 0.21713,17.73349c0.10097,8.50728 -0.21713,29.18149 -0.21713,29.18149l-93.13181,0.55851c0,0 -0.51806,-16.45296 -0.56574,-24.29691c-0.04528,-7.44806 0.70537,-21.36141 0.70537,-21.36141z" fill="url(#color-6)" stroke="#000000" stroke-linecap="round"/><path d="M228.90485,213.89466l6.68558,-0.11834l-0.11834,-8.75633l1.65661,-0.17748l0.29581,9.99878l-10.29459,0.47331l0.05916,-10.23543h1.95242z" fill="url(#color-7)" stroke="#000000" stroke-linecap="round"/><path d="M278.315,231.9879c0,0 0.29989,-27.20149 0.34683,-31.45759c0.01193,-1.08369 -1.1049,-2.07276 -2.16731,-2.1042c-2.83992,-0.08405 -15.64681,-0.46307 -15.64681,-0.46307c0,0 0.82346,12.23585 0.67933,15.32451c-0.05319,1.13958 0.96121,2.40587 1.91362,2.46444c1.71132,0.10522 7.33887,0.61051 10.10172,0.78037c0.93394,0.05742 1.56651,-0.87473 1.61384,-2.28859c0.10932,-3.2654 0.44054,-6.55258 0.49253,-8.10552c0.02617,-0.78179 -0.66926,-1.56845 -1.66469,-1.54611c-1.81736,0.04078 -6.11237,-0.53912 -7.01716,-0.51882c-0.58053,0.01304 -1.22164,0.62346 -1.20737,1.46133c0.02668,1.56637 0.06774,3.97874 0.08388,4.92592c0.01294,0.75871 0.61733,1.68701 1.07617,1.65189c0.58546,-0.04481 2.52517,-0.38249 3.53541,0.07379c0.51014,0.2304 0.78296,2.69955 0.16728,2.87542c-1.50661,0.43035 -4.91347,0.01843 -5.96073,0.07c-0.73007,0.03595 -1.62937,-0.76993 -1.62203,-1.57662c0.01476,-1.62636 0.06864,-7.56515 0.09516,-10.48725c0.00907,-0.99973 0.7198,-1.6262 1.81184,-1.59691c3.31925,0.08906 10.21538,0.26289 11.7672,0.21403c0.7166,-0.02256 1.44043,0.61838 1.42748,1.69851c-0.0491,4.09975 -0.31253,11.84392 -0.34293,14.38224c-0.01351,1.12888 -0.76096,2.27212 -1.54638,2.25362c-2.05066,-0.04827 -11.35778,-0.26735 -15.79147,-0.3717c-1.4371,-0.03383 -2.31934,-1.25263 -2.27536,-2.48165c0.13921,-3.88979 -0.55503,-22.59125 -0.55503,-22.59125c0,0 20.5522,0.89067 23.43528,1.01561c0.65242,0.02828 1.1974,0.69047 1.19406,1.48389c-0.0164,3.90574 -0.1458,34.6987 -0.1458,34.6987" data-paper-data="{&quot;index&quot;:null}" fill="url(#color-8)" stroke="#000000" stroke-linecap="round"/><path d="M241.35873,233.25688c0,0 -0.34004,-19.92548 -0.34433,-21.9013c-0.00088,-0.40136 0.31773,-0.73551 0.69812,-0.7488c1.68095,-0.05872 13.66368,-0.47729 13.66368,-0.47729c0,0 0.3983,10.32654 0.47422,12.29448c0.02398,0.6218 -0.49199,1.23698 -1.32984,1.25186c-2.58488,0.04591 -8.01106,0.14222 -9.20661,0.16345c-0.45792,0.00813 -0.8921,-0.57135 -0.89847,-1.14244c-0.0143,-1.28411 -0.07116,-6.39106 -0.09426,-8.46509c-0.00608,-0.54642 0.41677,-0.86954 0.83449,-0.85701c1.20223,0.03607 6.99342,0.20974 6.99342,0.20974c0,0 0.03921,5.03396 0.04779,6.13819c0.00318,0.40808 -0.52217,0.81434 -0.94775,0.79503c-0.61045,-0.02773 -2.59717,0.17537 -3.47489,-0.04468c-0.35867,-0.08992 -0.1963,-1.33855 0.1014,-1.45432c0.58958,-0.22923 1.71992,-0.0554 2.06117,-0.03182c0.26744,0.01847 0.62106,-0.45018 0.62961,-0.83397c0.01069,-0.47913 0.03788,-1.6994 0.05555,-2.49174c0.00945,-0.42383 -0.36348,-0.73363 -0.7019,-0.74113c-0.52744,-0.01168 -2.11759,-0.0469 -3.17702,-0.07037c-0.58029,-0.01286 -0.98678,0.38401 -0.97258,0.77953c0.02821,0.78565 0.13064,3.63809 0.18997,5.29011c0.02568,0.71532 0.04329,1.20557 0.04329,1.20557c0,0 0.34992,-0.01773 0.89446,-0.04532c1.61092,-0.08164 4.89235,-0.32847 5.89015,-0.37905c0.55531,-0.02814 1.14838,-0.66714 1.11894,-1.2437c-0.07986,-1.56268 -0.41156,-8.61826 -0.41156,-8.61826c0,0 -7.46668,0.17181 -9.12241,0.2099c-0.6194,0.01424 -1.27184,0.51287 -1.26634,1.06109c0.0216,2.1531 0.46591,20.26203 0.46591,20.26203" fill="url(#color-9)" stroke="#000000" stroke-linecap="round"/><path d="M238.62117,233.40582v-26.39458h1.34729v26.39458z" fill="url(#color-10)" stroke="none" stroke-linecap="butt"/><path d="M198.9131,232.41915c0,0 -2.0643,-28.96082 -2.32612,-32.63419c-0.05319,-0.74621 0.49631,-1.40845 1.20192,-1.48203c3.11807,-0.32515 25.34539,-2.64297 25.34539,-2.64297c0,0 2.06736,19.15033 2.46134,22.79985c0.12449,1.15311 -0.7559,2.36328 -2.31192,2.49859c-4.80053,0.41744 -14.87777,1.29372 -17.0981,1.4868c-0.85043,0.07396 -1.73221,-0.94778 -1.81741,-2.00888c-0.19157,-2.38588 -0.95344,-11.87464 -1.26285,-15.72816c-0.08152,-1.01526 0.66321,-1.67038 1.44157,-1.70076c2.24011,-0.08741 13.03073,-0.50853 13.03073,-0.50853c0,0 0.71965,9.35529 0.87749,11.40742c0.05834,0.75841 -0.86633,1.58132 -1.66014,1.60006c-1.13865,0.02689 -4.80669,0.65976 -6.46707,0.36336c-0.67849,-0.12112 -0.53697,-2.46374 0.00172,-2.71724c1.06682,-0.50202 3.19095,-0.324 3.82852,-0.324c0.49968,0 1.09698,-0.91687 1.06358,-1.63159c-0.04169,-0.89227 -0.14788,-3.16478 -0.21685,-4.64037c-0.03687,-0.78931 -0.77012,-1.31744 -1.40035,-1.2879c-0.98226,0.04605 -3.94354,0.18485 -5.9165,0.27734c-1.08066,0.05067 -1.7855,0.84083 -1.70827,1.57446c0.1534,1.45724 0.71032,6.74797 1.03287,9.8122c0.13965,1.32677 0.23538,2.23612 0.23538,2.23612c0,0 0.64835,-0.07793 1.65736,-0.1992c2.98492,-0.35877 9.0548,-1.23936 10.90367,-1.46157c1.02896,-0.12366 2.04964,-1.38805 1.92077,-2.45633c-0.34925,-2.89545 -1.87255,-15.9722 -1.87255,-15.9722c0,0 -13.86175,1.27876 -16.93556,1.56234c-1.1499,0.10609 -2.299,1.11702 -2.21833,2.1357c0.3168,4.00078 2.34154,29.57045 2.34154,29.57045" fill="url(#color-11)" stroke="#000000" stroke-linecap="round"/><path d="M273.94124,181.42337c0,0 -4.96398,11.06028 -7.10924,14.77033c-1.71255,2.96171 -4.75914,5.75498 -4.75914,5.75498c0,0 -13.93609,1.57478 -20.80231,1.75924c-8.41022,0.22594 -25.97303,-0.5026 -25.97303,-0.5026c0,0 -3.27627,-3.64117 -4.545,-6.10401c-1.743,-3.38348 -4.9497,-12.32688 -4.9497,-12.32688c0,0 7.79817,7.23815 10.76249,9.55804c1.91733,1.50053 5.71362,2.72921 5.71362,2.72921l32.11441,-1.11702c0,0 4.494,-5.10569 7.9588,-7.67954c3.46481,-2.57386 11.58911,-6.84178 11.58911,-6.84178z" fill="url(#color-12)" stroke="#000000" stroke-linecap="round"/><path d="M231.68558,206.26246l0.11833,4.37817h2.72154v1.59744l-4.43733,0.05916l-0.05916,-5.44314z" fill="url(#color-13)" stroke="#000000" stroke-linecap="round"/><path d="M287.3143,213.61498l-1.11703,1.39629c0,0 -0.20158,-28.59041 -0.69814,-29.18224c-0.62626,-0.74645 -9.15809,-2.56209 -9.91358,-2.79254c-0.95231,-0.2905 -9.35879,19.40911 -11.58913,19.68753c-2.17632,0.27167 -47.61919,4.11629 -49.5679,1.81517c-1.18732,-1.40205 -8.96033,-15.13062 -10.0532,-17.4535c-0.3331,-0.70798 -8.27534,0.13488 -9.49471,1.67554c-1.7619,2.22612 -0.83776,26.5293 -0.83776,26.5293l-1.25664,-1.39629c0,0 -0.45113,-21.95669 0.55851,-25.97078c0.45729,-1.81811 10.34749,-3.01888 11.86838,-2.09441c0.59688,0.36281 10.75134,16.75535 10.75134,16.75535l46.63572,-0.69814l12.008,-20.94418l12.70613,3.63032z" fill="url(#color-14)" stroke="#000000" stroke-linecap="round"/></g><path d="M274.27715,166.2116l-71.29405,3.39144c0,0 -3.14362,-8.33746 -3.19262,-12.43808c-0.00124,-0.1031 -0.00067,-0.20784 0.0016,-0.31415c1.01781,0 72.84615,-2.19834 75.04838,-2.22788c0.27837,4.17201 -0.56331,11.58868 -0.56331,11.58868z" fill="url(#color-15)" stroke="#765636" stroke-width="0" stroke-linecap="butt"/><path d="M228.03953,128.47109c6.07148,-1.85277 26.20909,-0.15846 32.7355,8.29108c8.66403,11.21707 10.47556,27.25491 1.57245,40.88364c-5.10774,7.81887 -26.45974,13.27835 -34.30796,9.86354c-7.79806,-3.39299 -21.29229,-17.5919 -21.44246,-30.16241c-0.16896,-14.14209 16.63719,-27.40948 21.44246,-28.87585z" fill="url(#color-16)" stroke="#bf7d2f" stroke-width="0.5" stroke-linecap="round"/><path d="M264.86415,161.23877c0,13.38325 -10.97894,24.23253 -24.52216,24.23253c-13.54321,0 -24.52215,-10.84928 -24.52215,-24.23253c0,-13.38325 10.97894,-24.23252 24.52216,-24.23252c13.54321,0 24.52216,10.84927 24.52216,24.23252z" fill="url(#color-17)" stroke="none" stroke-width="0" stroke-linecap="butt"/><path d="M219.41925,137.41799c14.01879,-12.20485 25.33989,-3.4907 25.33989,-3.4907c0,0 -16.4627,-0.00747 -23.14204,5.04211c-6.67935,5.04958 -9.17924,19.39278 -9.17924,19.39278c0,0 -4.0399,-11.34896 6.9814,-20.94418z" fill="#0099bf" stroke="#000000" stroke-width="0" stroke-linecap="round"/><path d="M212.43786,157.7726c0,0 1.42901,-13.71083 9.30853,-18.74634c12.92427,-8.25944 23.27132,-4.39569 23.27132,-4.39569c0,0 2.63297,1.90664 1.42214,2.71498c-3.40904,2.27588 -15.53229,2.86386 -21.33206,8.40354c-5.79976,5.53968 -4.07345,17.5746 -7.49853,19.13419c-1.73583,0.79041 -2.88362,-1.60552 -3.87857,-2.97356c-0.99494,-1.36803 -1.29284,-4.13712 -1.29284,-4.13712z" fill="url(#color-18)" stroke="#000000" stroke-width="0" stroke-linecap="round"/><path d="M228.03953,128.47109c6.07148,-1.85277 26.20909,-0.15846 32.7355,8.29108c4.07693,5.27828 7.13099,18.13839 7.13099,18.13839c0,0 -3.6937,-10.6532 -10.31586,-15.85127c-9.04925,-7.10323 -23.41676,-9.16657 -28.50213,-7.23126c-15.28233,5.81597 -16.51694,14.5017 -17.59226,24.65227c-0.92264,8.70933 1.11223,16.46854 1.11223,16.46854c0,0 -5.94681,-10.2233 -6.01094,-15.5919c-0.16896,-14.14209 16.63719,-27.40948 21.44247,-28.87585z" fill="#0099bf" stroke="#bf7d2f" stroke-width="0" stroke-linecap="round"/><path d="M216.18504,204.44665l-4.87361,0.23409l-0.04221,-4.11379h-2.2411l-0.13815,4.27112h-4.36706l0.3684,-13.71135l4.64336,0.2149l-0.29165,6.99958h2.16434l0.01918,-7.33344l4.44765,0.11896zM227.99763,196.95587c0,0.56795 -0.03965,1.13462 -0.11896,1.70001c-1.11032,0.07163 -2.21551,0.18676 -3.31559,0.34537c-1.09752,0.15861 -2.19633,0.31596 -3.2964,0.47201c0.16885,0.46818 0.43363,0.84297 0.79436,1.12438c0.36073,0.27885 0.79181,0.41828 1.29324,0.41828c0.26095,0 0.54492,-0.04861 0.85192,-0.14583c0.30955,-0.09977 0.61656,-0.22258 0.921,-0.3684c0.307,-0.14583 0.59993,-0.30316 0.87878,-0.47201c0.28142,-0.16885 0.52318,-0.32107 0.72529,-0.45666l-0.46818,4.42462c-0.25583,0.19699 -0.53213,0.36328 -0.82889,0.49887c-0.29421,0.13559 -0.60121,0.2456 -0.921,0.33003c-0.31723,0.08443 -0.63831,0.14582 -0.96321,0.1842c-0.32491,0.04093 -0.64342,0.0614 -0.95553,0.0614c-0.6447,0 -1.23311,-0.08698 -1.76524,-0.26095c-0.53213,-0.17652 -1.01438,-0.42212 -1.44673,-0.7368c-0.43236,-0.31723 -0.81227,-0.68947 -1.13974,-1.11671c-0.32491,-0.4298 -0.59481,-0.89797 -0.80971,-1.40452c-0.21234,-0.50911 -0.3748,-1.04635 -0.48736,-1.61174c-0.11001,-0.56539 -0.16502,-1.13718 -0.16502,-1.71536c0,-0.60377 0.05501,-1.20753 0.16502,-1.8113c0.11256,-0.60632 0.28014,-1.18834 0.50271,-1.74606c0.22513,-0.56027 0.50783,-1.07961 0.84808,-1.55802c0.34282,-0.47841 0.74192,-0.89669 1.19729,-1.25486c0.45538,-0.35817 0.9696,-0.63702 1.54267,-0.83657c0.57563,-0.2021 1.21137,-0.30316 1.90724,-0.30316c0.58074,0 1.10903,0.07931 1.58488,0.23793c0.47841,0.15861 0.90437,0.37991 1.27788,0.66388c0.37607,0.28397 0.70226,0.62167 0.97856,1.01309c0.2763,0.38887 0.50271,0.81611 0.67924,1.28173c0.17908,0.46305 0.31212,0.95297 0.3991,1.46975c0.08954,0.51678 0.13431,1.04124 0.13431,1.57337zM224.0949,196.44932c0,-0.18164 -0.01918,-0.3684 -0.05756,-0.56027c-0.03838,-0.19188 -0.10234,-0.36585 -0.19188,-0.5219c-0.08698,-0.15606 -0.20211,-0.28397 -0.34537,-0.38375c-0.14327,-0.10234 -0.32107,-0.1535 -0.53341,-0.1535c-0.26095,0 -0.4912,0.07035 -0.69075,0.21106c-0.19699,0.14071 -0.36712,0.31723 -0.51038,0.52957c-0.14327,0.20978 -0.26095,0.43875 -0.35305,0.68691c-0.08954,0.2456 -0.15733,0.47201 -0.20338,0.67924l2.88579,-0.27246zM240.06084,195.43622c0,0.50655 -0.04349,0.96705 -0.13047,1.3815c-0.08698,0.41189 -0.22514,0.79053 -0.41445,1.1359c-0.18931,0.34282 -0.43363,0.66133 -0.73296,0.95553c-0.29933,0.29165 -0.66004,0.5705 -1.08217,0.83657l2.32168,4.13681l-4.39008,0.8596l-1.50046,-4.156l-1.20881,0.03838l-0.17652,4.05623h-4.19438c0.03326,-1.48127 0.06396,-2.95615 0.0921,-4.42463c0.0307,-1.47104 0.06524,-2.94719 0.10361,-4.42846c0.01279,-0.74959 0.02559,-1.4915 0.03838,-2.22574c0.01279,-0.73424 0.03965,-1.47487 0.08059,-2.2219c0.45538,-0.16885 0.90309,-0.30828 1.34312,-0.41828c0.44259,-0.11256 0.88646,-0.19955 1.33161,-0.26095c0.44515,-0.0614 0.89669,-0.10361 1.35464,-0.12663c0.4605,-0.02302 0.93123,-0.03454 1.41219,-0.03454c0.74192,0 1.45825,0.10234 2.149,0.307c0.69331,0.20467 1.30603,0.51166 1.83816,0.921c0.53469,0.40933 0.96193,0.91972 1.28172,1.53116c0.32235,0.61144 0.48352,1.32393 0.48352,2.13748zM235.69378,195.74706c0,-0.27118 -0.03837,-0.52062 -0.11512,-0.74831c-0.07419,-0.22769 -0.1842,-0.42468 -0.33003,-0.59097c-0.14583,-0.16629 -0.32747,-0.29676 -0.54493,-0.39142c-0.21746,-0.09466 -0.47329,-0.14198 -0.76749,-0.14198c-0.13047,0 -0.25711,0.00895 -0.37992,0.02686c-0.1228,0.01535 -0.24303,0.03965 -0.36072,0.07291l-0.15734,3.62642h0.23409c0.28142,0 0.56667,-0.03582 0.85576,-0.10745c0.28909,-0.07163 0.54876,-0.18164 0.77901,-0.33002c0.23025,-0.15094 0.41828,-0.34282 0.56411,-0.57562c0.14838,-0.23537 0.22257,-0.5155 0.22257,-0.84041zM252.78981,197.36648c0,0.59097 -0.06907,1.16148 -0.20722,1.71152c-0.13559,0.55004 -0.33258,1.06554 -0.59097,1.5465c-0.25583,0.48096 -0.56795,0.92228 -0.93635,1.32394c-0.36584,0.3991 -0.77773,0.74192 -1.23567,1.02845c-0.45794,0.28397 -0.95681,0.50655 -1.49662,0.66772c-0.53981,0.15861 -1.11159,0.23792 -1.71536,0.23792c-0.58586,0 -1.14357,-0.07419 -1.67315,-0.22257c-0.52957,-0.15094 -1.02589,-0.36073 -1.48895,-0.62935c-0.4605,-0.27118 -0.87879,-0.59609 -1.25486,-0.97472c-0.37351,-0.38119 -0.69202,-0.80459 -0.95553,-1.27021c-0.26095,-0.46562 -0.46562,-0.96449 -0.614,-1.49662c-0.14583,-0.53469 -0.21874,-1.09113 -0.21874,-1.66931c0,-0.56539 0.06779,-1.11927 0.20338,-1.66163c0.13815,-0.54236 0.33515,-1.05403 0.59098,-1.535c0.25839,-0.48096 0.56923,-0.92355 0.93251,-1.32777c0.36328,-0.40421 0.77133,-0.75215 1.22415,-1.0438c0.45282,-0.29165 0.94147,-0.51806 1.46592,-0.67924c0.52702,-0.16373 1.08345,-0.2456 1.66931,-0.2456c0.94402,0 1.80362,0.14583 2.57879,0.43748c0.77773,0.29165 1.44162,0.70993 1.99166,1.25486c0.55004,0.54236 0.976,1.19858 1.27788,1.96863c0.30188,0.77006 0.45282,1.62965 0.45282,2.57879zM248.45729,197.61975c0,-0.27885 -0.04094,-0.55004 -0.1228,-0.81355c-0.07931,-0.26351 -0.19699,-0.49759 -0.35305,-0.70226c-0.15606,-0.20467 -0.34921,-0.36968 -0.57946,-0.49504c-0.23025,-0.12792 -0.49503,-0.19188 -0.79436,-0.19188c-0.307,0 -0.58074,0.055 -0.82122,0.16501c-0.24048,0.11001 -0.44771,0.26095 -0.62168,0.45283c-0.1714,0.19188 -0.30316,0.41701 -0.39526,0.6754c-0.08954,0.25583 -0.13431,0.52702 -0.13431,0.81355c0,0.27374 0.03837,0.54748 0.11512,0.82122c0.07931,0.27118 0.19699,0.51806 0.35305,0.74063c0.15606,0.22001 0.34921,0.39909 0.57946,0.53724c0.23281,0.13559 0.50143,0.20339 0.80587,0.20339c0.307,0 0.58202,-0.06012 0.82506,-0.18036c0.24304,-0.12024 0.44898,-0.2827 0.61783,-0.48736c0.16885,-0.20467 0.29805,-0.44003 0.38759,-0.7061c0.0921,-0.26862 0.13815,-0.5462 0.13815,-0.83273zM264.35679,196.95587c0,0.56795 -0.03965,1.13462 -0.11896,1.70001c-1.11032,0.07163 -2.21551,0.18676 -3.31559,0.34537c-1.09752,0.15861 -2.19633,0.31596 -3.2964,0.47201c0.16885,0.46818 0.43363,0.84297 0.79436,1.12438c0.36073,0.27885 0.79181,0.41828 1.29324,0.41828c0.26095,0 0.54492,-0.04861 0.85192,-0.14583c0.30955,-0.09977 0.61656,-0.22258 0.921,-0.3684c0.307,-0.14583 0.59993,-0.30316 0.87878,-0.47201c0.28141,-0.16885 0.52318,-0.32107 0.72528,-0.45666l-0.46817,4.42462c-0.25583,0.19699 -0.53213,0.36328 -0.8289,0.49887c-0.2942,0.13559 -0.60121,0.2456 -0.921,0.33003c-0.31723,0.08443 -0.63831,0.14582 -0.96321,0.1842c-0.32491,0.04093 -0.64342,0.0614 -0.95553,0.0614c-0.6447,0 -1.23311,-0.08698 -1.76524,-0.26095c-0.53213,-0.17652 -1.01438,-0.42212 -1.44673,-0.7368c-0.43236,-0.31723 -0.81227,-0.68947 -1.13973,-1.11671c-0.32491,-0.4298 -0.59481,-0.89797 -0.80971,-1.40452c-0.21234,-0.50911 -0.3748,-1.04635 -0.48736,-1.61174c-0.11001,-0.56539 -0.16501,-1.13718 -0.16501,-1.71536c0,-0.60377 0.055,-1.20753 0.16501,-1.8113c0.11256,-0.60632 0.28014,-1.18834 0.50271,-1.74606c0.22513,-0.56027 0.50783,-1.07961 0.84808,-1.55802c0.34282,-0.47841 0.74192,-0.89669 1.19729,-1.25486c0.45538,-0.35817 0.96961,-0.63702 1.54267,-0.83657c0.57563,-0.2021 1.21137,-0.30316 1.90723,-0.30316c0.58074,0 1.10904,0.07931 1.58488,0.23793c0.47841,0.15861 0.90437,0.37991 1.27789,0.66388c0.37608,0.28397 0.70226,0.62167 0.97856,1.01309c0.2763,0.38887 0.50271,0.81611 0.67924,1.28173c0.17908,0.46305 0.31212,0.95297 0.3991,1.46975c0.08954,0.51678 0.13431,1.04124 0.13431,1.57337zM260.45407,196.44932c0,-0.18164 -0.01919,-0.3684 -0.05757,-0.56027c-0.03837,-0.19188 -0.10233,-0.36585 -0.19187,-0.5219c-0.08699,-0.15606 -0.20211,-0.28397 -0.34537,-0.38375c-0.14326,-0.10234 -0.32108,-0.1535 -0.53341,-0.1535c-0.26095,0 -0.4912,0.07035 -0.69075,0.21106c-0.19699,0.14071 -0.36712,0.31723 -0.51038,0.52957c-0.14326,0.20978 -0.26095,0.43875 -0.35305,0.68691c-0.08954,0.2456 -0.15734,0.47201 -0.20339,0.67924l2.8858,-0.27246zM274.98862,199.8455c0,0.8903 -0.15478,1.65908 -0.46434,2.30633c-0.30955,0.64726 -0.73296,1.18067 -1.27021,1.60023c-0.53469,0.41957 -1.16148,0.72912 -1.88037,0.92867c-0.71889,0.19699 -1.4915,0.29549 -2.31784,0.29549c-0.31723,0 -0.66644,-0.04221 -1.04763,-0.12664c-0.37863,-0.08443 -0.76366,-0.1906 -1.15509,-0.31851c-0.38887,-0.12792 -0.76495,-0.26478 -1.12822,-0.41061c-0.36073,-0.14583 -0.68052,-0.28398 -0.95938,-0.41445l0.42981,-3.82214c0.5526,0.33258 1.16531,0.58458 1.83815,0.75599c0.67284,0.1714 1.33417,0.25711 1.98398,0.25711c0.12536,0 0.27502,-0.00384 0.44899,-0.01152c0.17653,-0.01023 0.34409,-0.03965 0.50271,-0.08826c0.15861,-0.05116 0.29293,-0.12536 0.40294,-0.22257c0.11257,-0.09722 0.16885,-0.23665 0.16885,-0.41829c0,-0.1228 -0.03965,-0.22769 -0.11896,-0.31467c-0.07675,-0.08954 -0.1778,-0.16118 -0.30316,-0.2149c-0.1228,-0.05629 -0.26223,-0.0985 -0.41829,-0.12664c-0.15605,-0.0307 -0.30956,-0.05245 -0.4605,-0.06524c-0.14838,-0.01279 -0.28781,-0.01919 -0.41829,-0.01919c-0.12791,0 -0.23152,0 -0.31083,0c-0.55771,0 -1.06682,-0.08698 -1.52732,-0.26094c-0.45794,-0.17652 -0.85192,-0.42596 -1.18195,-0.74831c-0.32747,-0.32235 -0.58202,-0.71249 -0.76366,-1.17043c-0.18165,-0.45794 -0.27247,-0.96705 -0.27247,-1.52732c0,-0.7675 0.15479,-1.45441 0.46435,-2.06073c0.30955,-0.60888 0.72273,-1.12567 1.23951,-1.55035c0.51678,-0.42724 1.10903,-0.75471 1.77675,-0.98239c0.67028,-0.22769 1.36359,-0.34154 2.07992,-0.34154c0.31723,0 0.6447,0.01152 0.9824,0.03454c0.34026,0.02302 0.67668,0.06396 1.00926,0.1228c0.33514,0.05884 0.6626,0.13431 0.98239,0.22641c0.31979,0.08954 0.62167,0.20211 0.90564,0.3377l-0.36839,3.96029c-0.44259,-0.14838 -0.90693,-0.27247 -1.39301,-0.37224c-0.48352,-0.10234 -0.95553,-0.15349 -1.41604,-0.15349c-0.08443,0 -0.19315,0.00128 -0.32619,0.00384c-0.13304,0.00256 -0.27375,0.01279 -0.42212,0.0307c-0.14583,0.01535 -0.29421,0.03965 -0.44515,0.07291c-0.14838,0.0307 -0.28141,0.07419 -0.3991,0.13048c-0.11512,0.05629 -0.2085,0.13048 -0.28014,0.22258c-0.07164,0.08954 -0.10489,0.19571 -0.09978,0.31851c0.00768,0.14327 0.0614,0.25455 0.16118,0.33386c0.10233,0.07675 0.23281,0.13304 0.39142,0.16885c0.15861,0.03582 0.33386,0.05372 0.52573,0.05372c0.19187,0 0.38247,-0.00511 0.57179,-0.01535c0.18932,-0.01023 0.36456,-0.01919 0.52574,-0.02687c0.16373,-0.01023 0.29676,-0.01279 0.39909,-0.00768c0.5219,0.03326 0.99008,0.14455 1.40453,0.33387c0.41701,0.18676 0.77006,0.43619 1.05915,0.74831c0.28909,0.31212 0.51038,0.68436 0.66388,1.11671c0.1535,0.43236 0.23025,0.90948 0.23025,1.43138z" fill="#ffffff" stroke="#000000" stroke-width="0.5" stroke-linecap="square"/><g data-paper-data="{&quot;index&quot;:null}" stroke="none" stroke-width="0.5" stroke-linecap="butt"><path d="M236.07422,160.67728c0.08385,-2.03271 0.22681,-6.01153 -0.45128,-6.37504c-1.08544,-0.58188 -4.99866,0.00875 -5.54881,1.74851c-1.61169,5.09683 2.8932,5.19995 6.00009,4.62654zM235.5084,164.25826c-0.951,0.13752 -1.90945,0.21982 -2.86615,0.19726c-4.26452,-0.10055 -7.3487,-5.17291 -5.61461,-9.61708c0.15527,-0.39794 0.37348,-0.77772 0.64257,-1.13499c-2.41821,1.59334 -4.77462,3.29552 -7.00394,5.22485c-1.67393,1.44866 -5.32684,6.59984 -7.2889,6.27682c-3.87377,-0.63776 -4.89792,-7.01109 -5.17557,-10.01157c-1.03362,-11.17014 2.30636,-19.27645 11.62698,-24.8024c5.95096,-2.4297 14.13913,-5.3288 20.676,-3.67871c4.27527,1.07919 5.14285,3.12123 7.87874,6.36801l1.55508,3.97879c0,0 1.20868,3.20027 -1.81303,4.48037c-0.76586,0.32447 -1.41528,0.3611 -1.95806,0.23496c-4.44338,3.45885 -9.26839,6.21407 -14.01232,9.10437c1.93086,-0.52161 3.96228,-0.41991 5.31705,0.587c1.45957,1.08479 1.44799,3.00021 1.6225,4.57615c0.21227,1.91718 0.19592,3.77712 0.19592,5.7052l-1.59243,2.40039c0,0 -1.07755,1.14121 -2.18985,0.11054z" fill="#ffffff"/><path d="M262.32121,175.74699c-0.66905,1.08415 -2.3293,1.98609 -2.48676,3.12728c-0.57722,0.5145 -1.08299,1.06819 -1.44552,1.6724c-1.2504,2.08401 -1.56597,4.00043 -1.33632,5.88868c-7.09852,1.46478 -14.47062,2.11144 -21.12499,1.63639c-0.63692,-0.04547 -1.26534,-0.10889 -1.88584,-0.18914c0.03684,-0.65756 0.06974,-1.3154 0.18271,-1.96187c0.074,-0.42345 0.83394,-0.96165 0.48619,-1.18482c-1.62352,-1.0418 -3.79513,0.1296 -5.6934,0.13525c-1.30177,0.00388 -2.60358,0 -3.90537,0h-1.4987c-1.65833,-0.73182 -3.27607,-1.55602 -4.86954,-2.44106c-0.09151,-0.31819 -0.14073,-0.65588 -0.14073,-1.00576c0,-1.24327 0.6215,-2.3328 1.55344,-2.93909l3.5337,-2.38162l0.05849,0.09734c0.21955,-0.16904 0.44819,-0.32606 0.68745,-0.469c2.60653,-1.55721 9.54071,-0.42404 12.85094,-1.42831c7.90439,-2.39806 14.5607,-7.82763 22.5111,-10.35554l0.15933,0.01741l-0.00998,-0.05292l3.18858,-0.6754c0.22676,-0.05296 0.46237,-0.08088 0.70416,-0.08088c1.7974,0 3.25448,1.54319 3.25448,3.44681c0,0.72426 -0.21092,1.39637 -0.57128,1.95114l-1.928,3.0629l-0.19187,-0.13548c-0.57974,1.4871 -1.25445,2.92382 -2.08227,4.26528z" fill="#ffffff"/><path d="M258.59356,177.67478c-0.69038,-0.73117 0,-1.46235 0,-1.46235l0.79971,-0.81856c1.14584,-0.80635 2.18357,-1.28697 3.15636,-2.33354c0.69619,-0.54435 1.27439,-1.24643 1.83734,-1.94249c0.57027,-0.70512 1.55353,-1.15806 1.77327,-2.05685c0.09305,-0.38055 0.24408,-3.79469 0.24408,-3.79469c0,0 -2.82631,0.30285 -3.21499,0.30285c-3.40986,0 -6.64208,1.02069 -9.93249,1.02069c-3.05426,1.13043 -5.98845,2.85278 -8.74684,4.67862c-1.45587,0.96365 -3.10603,2.76528 -4.79545,3.21802c-3.26541,0.87507 -7.65881,0.04436 -11.02269,0.04436c-3.48285,0 -7.86195,-0.50818 -7.40634,4.40003c0.07961,0.85766 -0.09337,1.84798 0.3715,2.55528c0.38614,0.58756 1.63285,0.28297 2.15311,0.28297c2.27813,0 4.55626,0 6.83439,0c1.25841,0.00558 3.42948,-0.06564 4.498,0.90165c1.3124,1.18805 1.50235,3.42472 1.01133,5.4167c-0.07551,-0.0051 -0.15092,-0.01034 -0.22624,-0.01571c-0.59148,-0.04223 -1.17562,-0.09993 -1.75291,-0.17222c0.44069,-1.38024 0.55302,-3.03837 -0.21743,-3.58529c-0.83381,-0.5919 -2.40902,-0.48174 -3.31272,-0.47708c-2.59947,0 -8.74266,1.16883 -10.53934,-1.09576c-0.56212,-0.70851 -0.70105,-2.96245 -0.7638,-3.61701c-0.62264,-6.49621 4.72895,-6.66169 9.35043,-6.66169c3.17663,0 7.38597,0.84301 10.45683,0.04436c1.48141,-0.38528 3.02554,-2.13129 4.31711,-2.98624c2.97852,-1.97164 6.14534,-3.83739 9.47823,-4.97244c3.69156,0 7.39223,-1.0474 11.22162,-1.0474c0.78147,0 3.07749,-0.27107 3.61939,0.30285c0.35933,0.38058 0.28596,2.58279 0.28596,3.14394c0,3.48349 -1.65888,5.59411 -4.24203,7.67477c-0.80569,0.84156 -1.63624,1.35389 -2.52557,1.93394c0.25864,0.30519 0.25864,0.73169 0.25864,0.73169c-0.00049,0.08353 0.00074,0.16618 0.00355,0.24801c-0.6548,0.45639 -1.30456,0.94206 -1.87519,1.46871c-0.03122,-0.36506 -0.05422,-0.72785 -0.06763,-1.08813c-0.26504,0.11934 -0.64715,0.1626 -1.02924,-0.24207z" fill="#000000"/><path d="" fill="#ffd73c"/><path d="" fill="#ffd73c"/><path d="M238.85406,185.37231c0.30777,0.89093 0.45585,1.86797 0.45033,2.84478c-1.14243,-0.01833 -2.26955,-0.06633 -3.37679,-0.14537c-5.09142,-0.36346 -9.63951,-1.8741 -13.94316,-3.95395c5.39392,-3.65309 13.79414,-7.64844 16.86962,1.25455z" fill="#ffd73c"/><path d="M232.18663,183.70487l1.20646,0.01732c1.21671,0.18656 2.44584,0.33087 3.67524,0.32736c0,0 1.62722,0 1.62722,1.72338c0,1.72338 -1.62722,1.72338 -1.62722,1.72338c-1.38318,-0.00343 -2.76584,-0.15728 -4.13548,-0.36199l-0.74622,0.01731c0,0 -1.62722,0 -1.62722,-1.72338c0,-1.72338 1.62722,-1.72338 1.62722,-1.72338z" fill="#ffa93d"/><path d="" fill="#ffa93d"/><path d="M222.91143,183.76497c0.14378,-0.03845 0.30576,-0.0601 0.48816,-0.0601c1.62722,0 1.62722,1.72338 1.62722,1.72338c0,0.01319 0.00002,0.02636 0.00004,0.03953c-1.17176,-0.47158 -2.3216,-0.99231 -3.45504,-1.55151c0.21728,-0.1289 0.49541,-0.2114 0.85144,-0.2114c0.1824,0 0.34437,0.02165 0.48816,0.0601z" fill="#ffa93d"/><path d="" fill="#ffa93d"/><path d="M250.38665,138.40827c-9.95651,1.36067 -17.36168,9.30287 -26.36099,13.9501c-2.87718,3.10266 -6.78451,5.6458 -10.08888,8.27231c-1.14314,0.90864 -2.67875,1.31818 -2.93351,3.06398c-0.59692,4.09059 4.22983,7.70805 6.23946,10.7425c0.36876,0.55682 1.88715,3.50245 2.3882,3.76446c0.24996,0.1307 -0.15623,-0.65221 0.01449,-0.8856c0.50599,-0.69172 2.78023,-2.02465 3.39971,-2.41519c4.21871,-1.50984 8.46034,-1.22589 12.70018,-2.5409c6.70469,-2.07949 12.78422,-5.69582 19.31391,-8.1967c2.20827,-0.8458 7.43623,-2.07349 10.43209,-1.21672c-1.25974,-1.32349 -2.21387,-4.43976 -2.60266,-5.5041c-1.70476,-4.66686 -1.19917,-9.34331 -1.72641,-14.21215c-0.0935,-0.86338 -0.15384,-3.53763 -0.61883,-4.30097c-0.42277,-0.69402 -1.54109,0.31295 -2.32095,0.31183c-2.18713,-0.00314 -3.58165,0.04984 -5.57916,0.91076c0,0 -1.51083,0.64007 -2.11519,-0.96007c-0.11053,-0.29264 -0.15032,-0.55319 -0.14152,-0.78356zM255.22131,135.90655c1.50189,-0.21866 3.03035,-0.23128 4.62842,-0.11229c0.85711,0.06383 1.95357,-0.33201 2.56077,0.31183c3.40423,3.60973 1.96263,10.8448 2.31301,15.37364c0.37926,4.90231 3.34777,8.75159 5.14106,13.09217c-4.40201,2.54559 -7.63951,1.05899 -12.21201,2.18897c-7.33329,1.81225 -13.78172,6.69778 -21.06201,8.92755c-4.0648,1.24493 -8.17587,0.95032 -12.18556,2.34385c-0.88381,0.56753 -1.67349,1.01545 -2.45834,1.72098c-0.66662,0.59923 -1.06584,1.93427 -1.9382,1.87186c-2.06226,-0.14755 -3.34158,-2.26693 -4.4196,-3.77984c-2.92545,-4.10563 -8.83615,-9.12205 -7.78138,-14.80247c0.52833,-2.84527 2.27809,-3.66188 4.22633,-5.20835c3.33514,-2.64735 7.12898,-5.1864 10.08888,-8.27231c10.41462,-5.63022 18.97145,-14.80186 31.21808,-14.80186h0.32545c0,0 1.23995,0.00002 1.55508,1.14635z" fill="#b4b195"/><path d="M223.96507,152.33298c8.99932,-4.64722 16.50035,-12.62193 26.45688,-13.98257c-0.0088,0.23038 0.03228,0.49183 0.14281,0.78448c0.60434,1.60014 2.12043,0.96428 2.12043,0.96428c1.99751,-0.86091 3.39852,-0.90728 5.58564,-0.90414c0.77986,0.00111 1.90013,-1.00343 2.32289,-0.30939c0.46499,0.76334 0.53031,3.44494 0.6238,4.30832c0.5272,4.86885 0.03138,9.57935 1.73614,14.24621c0.38881,1.06434 1.34216,4.19381 2.60188,5.5173c-2.99587,-0.85678 -8.22625,0.38151 -10.43453,1.22728c-6.52965,2.50088 -12.68299,6.1635 -19.38769,8.24298c-4.23986,1.31501 -8.51483,1.01281 -12.73355,2.52263c-0.61949,0.39055 -2.80159,1.6261 -3.30759,2.31779c-0.1707,0.23338 0.14288,1.11317 -0.10709,0.98246c-0.50106,-0.262 -2.02631,-3.21613 -2.3951,-3.77297c-2.00963,-3.03446 -6.8477,-6.67974 -6.25076,-10.77035c0.25476,-1.7458 1.78953,-2.16181 2.93267,-3.07043c3.30436,-2.62651 7.21603,-5.20124 10.09318,-8.3039z" data-paper-data="{&quot;noHover&quot;:false,&quot;origItem&quot;:[&quot;Path&quot;,{&quot;applyMatrix&quot;:true,&quot;segments&quot;:[[[476.41932,278.09995],[15.29666,1.97379],[0.01351,0.33419]],[[476.2019,279.23661],[0.16981,-0.42453],[-0.92848,2.32119]],[[472.95223,280.62932],[0,0],[-3.06886,-1.24886]],[[464.38071,279.30813],[3.36017,-0.00455],[-1.19811,0.00162]],[[460.81495,278.8558],[0.64952,-1.00678],[-0.71439,1.10732]],[[459.86421,285.09489],[0.14364,-1.25244],[-0.81002,7.06286]],[[457.21186,305.71133],[2.6191,-6.76984],[-0.59733,1.54397]],[[453.21329,313.69569],[1.93537,-1.91988],[4.60269,-1.24286]],[[469.2406,315.46067],[-3.39268,-1.2269],[10.03184,3.62782]],[[498.91345,327.35098],[-10.30072,-3.01655],[6.51389,1.90758]],[[518.42535,331.03685],[-6.48142,-2.19018],[0.95175,0.56653]],[[523.64848,334.54037],[-0.77737,-1.00341],[0.26229,0.33856]],[[523.67075,335.82502],[-0.38402,0.18961],[0.76979,-0.38008]],[[527.33986,330.3642],[-0.56657,0.80776],[3.08749,-4.40184]],[[536.92582,314.7809],[0.91711,5.93391],[-0.39141,-2.5325]],[[532.41893,310.33624],[1.75626,1.31807],[-5.07667,-3.81005]],[[516.91893,298.33624],[4.42032,4.5008],[-13.82605,-6.74137]]],&quot;closed&quot;:true}]}" fill="#b4b195"/><path d="M256.58364,165.11919c-0.67946,0.11219 -1.37611,0.11177 -2.13019,-0.11549c-0.30176,-0.09093 -1.18559,-1.42722 -1.89988,-1.03403c-2.06771,1.13818 -6.50783,5.09731 -9.24966,3.2302c-0.9933,-0.67642 -0.69316,-2.86013 -1.82533,-3.21572c-1.50903,-0.47394 -2.04193,2.03095 -3.96387,0.50594c-2.88421,-2.28854 0.57529,-7.72364 -1.62722,-9.65103c-3.14834,-1.06872 -5.58186,-3.89666 -3.85444,-7.75162c1.98725,-4.43484 9.44032,-4.68838 13.20364,-5.40529c4.8655,-0.92686 14.64021,-7.33651 18.30719,-0.87736c0.54435,0.95882 0.97902,4.22687 1.18202,5.53249c0.01793,6.03867 -1.26384,11.1287 -4.24001,16.08198c0.2031,1.14415 -0.59886,1.66341 -0.97752,1.84145c-0.05848,0.45548 -0.33196,1.52079 -1.61136,1.52079c-0.68708,0 -1.08407,-0.30725 -1.31341,-0.66231zM259.22514,164.36495c-0.00876,0.01261 -0.01754,0.02522 -0.02634,0.03784l0.03947,-0.04181c-0.00438,0.00131 -0.00877,0.00262 -0.01313,0.00395z" fill="#4a0100"/><path d="M230.47411,175.01549c-1.01653,1.34574 -2.2872,0.26914 -2.2872,0.26914l-0.34977,-0.29746c-2.73619,0.28733 -5.09974,0.99492 -7.74722,1.53215c-1.1485,0.23308 -2.43048,0.89027 -3.4909,0.3682c-3.46097,-1.70393 -4.45033,-11.19582 -2.91771,-14.13181c0.99725,-1.91039 4.47526,-4.69017 6.71212,-3.45142c2.69119,1.49036 3.43814,7.69409 5.73946,10.10263c0.97831,0.7351 1.95539,1.47205 2.9315,2.21046l1.15553,0.97578c0,0 1.27066,1.0766 0.25413,2.42236z" fill="#5e200c"/><path d="M259.2177,166.03305c0.07238,1.0592 -0.92775,1.58881 -0.92775,1.58881c-3.86304,2.03176 -8.20737,2.97147 -12.35159,4.19636c-4.4164,1.30533 -10.02596,4.3683 -14.71604,3.85942c-4.48167,-0.48626 -8.17936,-4.82286 -10.07792,-8.82652c-1.59638,-3.3835 -3.75187,-6.59564 -2.50442,-10.57753c0.58184,-1.85726 1.94951,-2.86182 3.25793,-4.09347c3.00229,-2.82608 8.80236,-8.75623 13.11225,-5.12806c3.11259,2.62023 4.58804,9.34918 4.39243,13.19657c3.6421,5.43975 12.48303,3.12358 17.97364,3.12358l1.09967,0.3789c0,0 1.43641,0.76066 0.74177,2.28195z" fill="#b37a37"/><path d="M245.62781,167.67326c0.72771,1.54145 -0.72773,2.31219 -0.72773,2.31219l-0.23723,0.11694c-2.89655,1.91685 -10.55232,6.83796 -13.57103,2.03814c-0.92276,-1.46722 -0.09799,-4.73859 1.18493,-5.70649c1.14468,-0.86361 2.99746,-0.34712 4.29648,-0.49292c2.7546,-0.30916 4.84662,-0.64646 7.55581,0.27701c0,0 0.55867,0.19722 0.89182,0.71034c0.22368,0.14679 0.4355,0.38161 0.60695,0.74475z" fill="#b33b3b"/><path d="M237.19377,156.07385c0.25925,1.82217 0.17483,3.60201 -0.91037,5.2724c-2.65343,4.08425 -8.31317,3.30397 -10.17045,-1.34122c-1.37671,-3.44328 0.2338,-10.69859 4.84382,-10.64144c2.40998,0.02988 4.51578,2.41018 6.06313,4.05442l0.42693,0.45454c0,0 0.93394,0.9943 -0.00489,1.98343c-0.08298,0.08741 -0.16591,0.15935 -0.24818,0.21784z" fill="#e0e0e0"/><path d="M235.95355,157.41357c0.01218,0.06526 0.01217,0.1108 0.01217,0.1108c-0.08373,5.49666 -7.51423,3.73715 -6.10315,-1.74999c0.26665,-1.03688 1.1304,-1.50779 1.8821,-2.105c0.8326,-0.66098 3.09278,-1.91568 4.16812,-0.96515c0.86814,0.76739 0.46086,3.38 0.04075,4.70938z" fill="#4a0100"/><path d="M235.99403,156.66481c0.0559,0.21235 0.00162,0.41352 0.00162,0.41352c-2.02958,7.50108 -7.9423,-1.6447 -0.91514,-1.6447l0.74953,0.50829c0,0 0.31394,0.33251 0.16396,0.72289z" fill="#8d0200"/></g></g></g></svg>