<svg version="1.1" xmlns="http://www.w3.org/2000/svg" xmlns:xlink="http://www.w3.org/1999/xlink" width="96.92607" height="104.11494" viewBox="0,0,96.92607,104.11494"><defs><radialGradient cx="239.67506" cy="158.04954" r="33.31417" gradientUnits="userSpaceOnUse" id="color-1"><stop offset="0" stop-color="#1f1f1f"/><stop offset="1" stop-color="#242424"/></radialGradient><linearGradient x1="205.68536" y1="186.63192" x2="207.44757" y2="225.88961" gradientUnits="userSpaceOnUse" id="color-2"><stop offset="0" stop-color="#1e0d09"/><stop offset="1" stop-color="#361b0c"/></linearGradient></defs><g transform="translate(-191.53696,-124.45132)"><g data-paper-data="{&quot;isPaintingLayer&quot;:true}" fill-rule="nonzero" stroke-linecap="butt" stroke-linejoin="miter" stroke-miterlimit="10" stroke-dasharray="" stroke-dashoffset="0" style="mix-blend-mode: normal"><path d="M205.94054,206.08239c-0.17368,-0.09365 -0.33723,-0.27249 -0.35254,-0.6135c-0.03363,-0.74925 0.71561,-0.78287 0.71561,-0.78287l0.19966,0.14119c0.72943,-0.60002 1.88522,-2.18652 2.69612,-2.49215c1.02702,-0.38708 3.53218,0.43398 4.56272,0.57985c3.36085,0.47573 6.71193,0.64703 10.07307,1.16624c1.73686,0.41429 8.83923,2.25558 8.144,4.81651c-0.18786,0.69198 -1.25465,1.05167 -1.80364,1.31133c-3.11093,1.47149 -5.77805,0.95089 -9.08937,1.10892c-4.93814,0.2011 -11.57264,-0.55544 -14.97084,-4.61752c0,0 -0.23368,-0.28409 -0.17478,-0.618z" fill="#a25121" stroke="none" stroke-width="0.5"/><path d="M229.82047,207.92279l1.21287,-0.63524c0.06909,-0.40963 0.28139,-0.80091 0.73743,-1.14493h-0.00001c1.25999,-0.9505 2.81047,-0.0345 3.40705,1.05949c0.40376,0.74042 0.34906,1.74009 0.32351,2.72215c0.54958,0.2236 1.07756,0.43377 1.5693,0.58306c2.52266,0.7659 5.39301,0.28465 7.90193,-0.30419c3.17428,-0.5579 6.73691,-3.48667 10.05856,-2.28517c6.08553,2.20125 7.14691,10.51818 1.12636,13.19826c-2.16243,1.39801 -5.62837,3.38978 -8.37779,2.76146c-2.90267,-0.66334 -2.71539,-4.75677 -4.16317,-6.59115c-0.98707,-1.25066 -2.25407,0.47387 -2.43033,1.2904c-0.15825,0.73318 -0.32865,1.46764 -0.5818,2.17369c-1.20946,2.62116 -4.00612,3.73195 -7.13305,3.40169c-0.9552,-0.10088 -2.5099,0.74121 -3.33809,0.08383c-1.73814,-1.37966 -3.22735,-4.70923 -3.11754,-7.26611l-0.00001,-0.00001l0.34871,-0.39195c-0.5844,-2.48597 -0.78647,-5.60747 1.53944,-7.12179c0.36804,-0.85645 0.72345,-1.45186 0.91664,-1.53351zM227.21274,217.13878c0,0 -0.16867,0.18454 0.01585,0.35319c0.18453,0.16867 0.35319,-0.01585 0.35319,-0.01585c0.20376,-0.22642 0.43299,-0.43567 0.67365,-0.63776c-0.12617,-0.14289 -0.23008,-0.30865 -0.31402,-0.49346c-0.22761,0.25134 -0.46967,0.5142 -0.72869,0.79388z" fill="#151515" stroke="none" stroke-width="0.5"/><path d="M239.46423,143.56279c-1.135,-3.71793 -6.23809,-9.0329 -3.34656,-13.2475c4.32871,-6.3094 2.83483,3.04464 5.64824,2.91542c0.6582,-0.03023 0.62359,-1.23108 1.17777,-1.58747c3.28349,-2.11165 6.59012,0.41379 7.62488,3.41164c0.04874,0.94889 -0.64404,5.29394 0.93736,5.60666c0.63022,0.12463 0.68203,-1.17691 1.2592,-1.45903c2.31161,-1.12991 4.37083,0.43449 4.82706,2.62585c0.79715,3.82879 -2.51008,3.95012 -4.60804,5.77721c-0.70969,0.61807 -0.93211,1.43899 -1.03216,2.29306c2.76469,2.04586 6.46052,2.71303 9.28602,4.81888c2.67334,1.99902 5.01168,3.81025 7.10725,6.47556c0.85949,1.09318 1.60569,3.3051 2.52923,4.16454c0.64218,0.5976 4.12583,0.06673 5.01301,0.21517c2.74558,0.45936 4.67195,2.15868 6.62647,3.98896c2.44372,2.66318 5.65942,6.78277 4.47885,10.73377c-0.2838,0.94978 -0.83438,1.41609 -1.4686,2.09785c-3.90519,4.19786 -8.1592,0.6137 -9.60201,-3.78637c-0.4047,-0.91883 -0.65847,-1.8782 -1.26832,-2.68935c-1.08323,-1.4408 -4.57147,-3.10576 -5.80204,-0.78184c-1.65634,3.12797 2.43936,5.92884 4.78627,6.76874c1.49456,0.58465 3.45969,1.28608 4.45148,2.64522c2.17107,2.97522 0.20351,8.79881 -1.94441,11.33868c-2.35721,2.78736 -19.95992,15.36586 -23.10507,12.52613c-0.18491,-0.4609 -1.70666,-1.41459 -1.40488,-2.13229c2.12841,-5.06155 16.36584,-15.25804 16.81068,-18.51433c0.19984,-1.46283 0.03483,-3.98846 -1.51318,-4.29921c-1.58448,-0.31808 -4.04645,0.34856 -5.71535,0.40447c-5.60966,0.18794 -9.91575,1.31951 -14.04539,5.23525c-1.2608,1.19548 -1.94284,3.17289 -3.0181,4.53368c-0.41381,0.52372 -0.70016,1.4566 -1.36761,1.46266c-1.01309,0.00918 -1.61315,-1.68509 -1.94134,-2.42604c-0.70956,-1.73351 -3.43278,-0.81778 -4.89741,-1.8772c-3.27748,-2.37073 -6.36572,-5.60577 -9.83454,-6.54177c-2.35824,-0.63632 -3.94055,-1.38453 -6.19744,-0.39411c-0.86164,0.46648 -3.08076,1.42511 -3.56582,2.32003c-1.1305,2.08569 0.38431,7.19017 0.63683,9.44525c0.14317,1.27843 2.58974,5.51168 1.38985,6.5199c-1.07936,0.90695 -6.76795,-0.12267 -8.00451,-0.56681c-4.10809,-2.27725 -8.6268,-9.55067 -6.56146,-14.41296c0.90203,-2.12359 3.31358,-3.32743 5.48658,-3.73601c1.27453,-0.23964 2.32929,-0.69428 2.06815,-0.9211c0.56492,-4.35063 0.11164,-7.43778 0.31506,-11.87887c0.09382,-2.04849 0.68789,-4.29919 1.13039,-6.30649c0.45854,-2.08009 1.2077,-3.5064 2.19803,-5.28973c2.28284,-2.46927 5.39473,-4.64448 8.4489,-6.16642c3.16857,-1.57896 7.56983,-2.15235 10.24833,-4.49479c0,0 0.01751,-0.01499 0.04953,-0.0378c0.01404,-0.10595 0.02806,-0.21191 0.04209,-0.31786c1.7174,-0.03911 3.43922,-0.02178 5.16922,0.05652c-0.14137,-1.44543 0.54943,-3.25313 0.49753,-4.51576z" fill="#a25121" stroke="none" stroke-width="0.5"/><path d="M235.48534,137.7814c-0.38931,-2.26567 -1.55335,-8.06393 0.43566,-9.85809c2.77169,-2.50016 3.22038,0.03402 4.37407,1.96903c0.34062,0.5713 0.22499,1.91352 0.87885,1.79147c0.30791,-0.05748 0.27783,-0.63368 0.56975,-0.74728c0.52553,-0.2045 1.12387,-0.09555 1.68668,-0.13077c0.23488,-0.01469 3.00271,-0.14647 3.16985,-0.10398c3.80311,0.96675 4.00155,4.90082 5.01153,7.94517c1.18378,2.35049 -0.38025,-0.6078 1.9775,-1.04896c1.94573,-0.36408 3.80898,2.46663 4.28525,3.92244c1.3426,4.10402 -2.25435,6.42952 -5.21005,8.12604c-0.23292,0.13369 0.51427,0.15633 0.76574,0.25063c0.7869,0.29511 1.54599,0.65817 2.30818,1.01364c0.00357,-0.00395 0.00711,-0.00794 0.01065,-0.01196c0.21966,0.06581 0.43919,0.13296 0.65863,0.20152c2.5786,1.1073 5.24088,2.06195 7.77666,3.24597c2.51948,2.5656 4.59431,5.10518 6.84889,8.12444c0.57843,0.77462 1.50869,0.65342 2.33492,0.7793c2.03748,0.31041 4.09981,0.48661 5.94964,1.48497c5.40612,2.91773 8.41857,9.81294 9.14533,15.61902c-0.08845,0.86466 0.09661,1.80375 -0.26536,2.59394c-1.15209,2.51499 -4.29277,3.42096 -7.2912,3.12032c1.49349,5.17288 -3.4703,12.40296 -6.98211,15.42973c-0.64008,0.55166 -1.83249,1.47612 -3.01153,2.06981c2.90085,2.60451 5.45157,5.47301 7.20186,9.03635c1.81776,3.70075 3.10072,5.58419 0.04149,9.04881c-2.56191,2.0648 -7.44825,7.05295 -11.0702,5.82515c-1.18248,-0.40085 -1.60903,-2.04488 -2.75726,-2.53536c-2.34461,-1.00152 -4.30597,-0.73411 -5.57819,-3.51381c-0.22039,-0.48156 -0.36822,-1.05622 -0.48194,-1.67145c-0.21958,0.29414 -0.43912,0.58826 -0.6587,0.8824l-0.00007,-0.00014c-2.16568,2.87292 -7.07024,4.36888 -10.61116,3.25899c-1.9215,-0.60228 -2.74452,-2.5393 -3.18691,-4.31918c-0.11883,-0.47806 -0.33786,-1.29417 -0.3889,-1.92901c-0.47419,0.54962 -1.17574,1.12278 -1.66542,0.97422c-0.15738,1.05521 -0.40885,2.37005 -0.84926,3.19717c-2.16272,4.06178 -10.12821,4.52355 -12.74218,1.02456c-1.00604,-1.34669 -1.19676,-3.33799 -1.25387,-4.94126c0,0 -0.00637,-0.18988 0.06954,-0.40628c0.01333,0.02952 0.03477,0.05963 0.06718,0.08927c0.18318,0.16744 0.35062,-0.01574 0.35062,-0.01574c0.21716,-0.24133 0.4635,-0.463 0.72175,-0.67735c0.74779,0.12561 0.7752,0.94362 0.7752,0.94362c0.03748,1.20493 0.1197,2.84352 0.88954,3.85991c1.71229,2.2607 8.08691,2.00933 9.37828,-0.8257c0.36367,-0.79839 0.57455,-2.02788 0.68964,-2.90813l-0.04125,-1.23123c-0.01836,-0.54794 0.41096,-1.00704 0.95891,-1.0254c0.27397,-0.00918 0.52574,0.09357 0.71129,0.2671l0.49466,0.46259c0.075,-0.02077 0.1453,-0.05706 0.20877,-0.11243c0.6685,-0.58311 1.09914,-1.9836 2.48783,-1.39592c1.19239,0.50458 1.0284,4.91052 1.75438,6.07336c1.80432,2.89008 8.03489,0.55762 9.59033,-1.55084c0.23588,-0.31599 0.47177,-0.63198 0.70766,-0.94797l0.30228,-0.49517c0,0 0.34215,-0.55247 0.91979,-0.48657c-0.0953,-0.70242 -0.20373,-1.37981 -0.37655,-1.96221c-0.67003,-2.25812 -1.96321,-3.77437 -3.40956,-5.574c0,0 -1.0883,-1.3541 0.26579,-2.44241c1.3541,-1.08829 2.44241,0.26581 2.44241,0.26581c1.72848,2.15065 3.21544,4.05277 4.02769,6.74686c0.53465,1.77337 0.5187,3.79756 1.05157,5.51755c0.41402,1.3364 2.94804,1.28788 3.83974,1.71628c1.07272,0.51535 1.56996,1.84197 2.58606,2.46152c0.5802,0.35378 1.30129,-0.45676 1.84864,-0.85948c1.85593,-1.36557 3.75632,-2.83504 5.56867,-4.28657c1.84406,-1.75477 0.19788,-2.94212 -0.79797,-4.97194c-1.95773,-3.99039 -5.09169,-6.98904 -8.5129,-9.78786l-1.45743,-1.01865c-0.44148,-0.30151 -0.73834,-0.80205 -0.75761,-1.37733c-0.03212,-0.95891 0.71918,-1.7623 1.67809,-1.79443c0.12899,-0.00431 0.25516,0.00554 0.37703,0.02815l1.82346,0.30158l-0.03269,0.19752c0.39553,-0.06337 0.78891,-0.1376 1.17834,-0.23178c2.78623,-0.67389 5.69293,-4.58152 6.92998,-6.9611c1.90684,-3.66799 1.88003,-7.59894 -1.73553,-8.67882c-2.03605,0.16065 -4.18953,0.3186 -5.59363,-1.59802c-1.44178,-1.96805 -1.72055,-8.37416 0.57025,-9.70611c0.88133,-0.51244 2.05513,-0.21961 3.05822,-0.03746c2.78451,0.50558 3.67177,2.5185 4.51828,4.88618c0.33891,0.94794 0.43923,2.13464 1.04227,2.91554c0.32952,0.09008 0.7271,0.28301 0.97803,0.69526c2.01912,0.79402 5.98284,1.40891 5.93079,-1.51185c-0.56894,-4.57847 -3.09458,-10.33503 -7.33006,-12.66619c-2.17838,-1.19896 -4.87653,-0.54365 -7.0898,-1.52317c-2.45317,-1.08569 -2.57356,-2.81415 -4.01568,-4.7084c-1.94704,-2.55747 -4.32363,-4.37356 -6.63607,-6.52829c-0.86122,-0.72557 -2.02587,-1.15418 -3.24858,-1.51678c-0.52452,0.30579 -1.13689,0.03396 -1.13689,0.03396c-1.03653,-0.46008 -2.09222,-0.87923 -3.10958,-1.38027c-0.55534,-0.27351 -1.31505,-0.35082 -1.63497,-0.88079c-2.71932,-4.50499 6.32251,-4.45732 4.7298,-8.98522c-0.24454,-0.69519 -0.83676,-1.21347 -1.24132,-1.82944c-0.08637,-0.13147 -0.03033,-0.60899 -0.08973,-0.46332c-0.35178,0.86268 -0.80724,2.09687 -1.73401,2.19197c-1.87297,0.19221 -2.43442,-1.39483 -3.11055,-2.54682c-0.60818,-1.79131 -0.80342,-6.02157 -3.26858,-6.52472c-0.77878,-0.15895 -2.75426,-0.09965 -3.50286,0.1492c-0.5884,0.19559 -1.03224,0.99872 -1.6403,0.87733c-0.67515,-0.13479 -2.86832,-2.33494 -3.35768,-3.85073c-0.00316,0.01961 -0.00609,0.03791 -0.00872,0.05471c-0.06636,0.42241 -0.08556,0.852 -0.09077,1.27956c-0.02252,1.84922 0.1148,3.75745 0.42782,5.57707c0.79813,2.67797 2.78266,5.62662 2.29274,8.55919c-0.70108,4.19649 -5.15299,6.14904 -8.92131,6.35226l-0.37998,0.01745c0,0 -0.25074,0.01152 -0.53186,-0.08858c-3.01702,1.00725 -5.7912,2.08229 -8.82782,3.55559c-1.82876,0.88725 -4.26185,2.08193 -5.51306,3.75544c-2.27111,3.03763 -3.60747,7.75477 -4.23076,11.42103c0.11811,3.18716 0.68241,6.40777 0.51525,9.60871c-0.05613,1.07498 -0.45911,2.40045 -1.13553,3.2378c-1.41527,1.75195 -4.2424,0.3842 -5.94359,2.39352c-1.13987,1.34634 -0.8349,4.28604 -0.35938,5.81757c1.27438,4.10449 2.81354,6.58631 6.34407,9.08643c2.23296,0.88903 3.34513,1.19145 5.65781,0.38393l1.41969,-0.12087c0,0 1.73626,-0.05817 1.79443,1.6781c0.01943,0.57986 -0.16128,0.97255 -0.41064,1.23843c0.24985,0.0517 0.5178,0.17457 0.79628,0.40224c0.00187,0.00153 0.00376,0.00306 0.00562,0.0046c-0.71732,-0.06949 -1.44408,-0.09536 -2.18597,-0.05746c-0.16186,0.06103 -0.32131,0.12873 -0.47874,0.20189c-3.17702,1.00391 -5.18499,0.58159 -8.25623,-0.67732c-5.33347,-3.69105 -12.21818,-13.58901 -7.0205,-20.15222c0.79626,-1.00546 2.70684,-2.14066 3.92308,-2.51775c0.6789,-0.21051 1.39977,-0.31698 2.11045,-0.3049c0.27469,0.00468 0.6148,0.5956 0.74454,0.35344c0.15365,-0.28678 -0.41736,-0.53137 -0.47794,-0.85104c-0.12609,-0.66557 -0.04536,-1.35406 -0.06804,-2.03111c-0.08891,-2.65381 -0.36029,-5.27079 -0.44176,-7.92034c0.69368,-4.28775 2.21823,-9.75354 4.92356,-13.28638c3.47493,-4.53787 9.73843,-6.69036 15.35005,-8.38004c2.1188,-0.17915 4.23883,-0.27805 6.36729,-0.288c4.43309,-2.26948 1.79652,-6.58261 0.52213,-10.8244zM272.14605,181.09263l0.91165,-0.02191c0.47477,0.03536 0.86962,0.05366 1.22186,0.07525c-0.54373,-2.06306 -0.93633,-4.43487 -3.18275,-4.57301c-0.58391,-0.03591 0.33997,1.12128 0.45763,1.69435c0.19405,0.94517 -0.09062,1.97541 0.18579,2.89315c0.23388,-0.06202 0.40584,-0.06778 0.40584,-0.06778z" fill="#2e2e2e" stroke="none" stroke-width="0.5"/><path d="M208.91363,179.40027c-0.03158,-0.29512 0.03609,-0.53417 0.03609,-0.53417l0.2325,-0.77522c1.38475,-3.00436 -0.30572,-6.84059 0.2313,-10.12295c0.96103,-5.87387 5.91032,-11.12733 10.54002,-14.51933c2.83551,-1.57884 6.6919,-3.2858 9.84062,-4.00626c2.67042,-0.61101 5.51379,-0.74491 7.32433,-3.11563c1.75923,-2.30355 0.63034,-3.99077 -0.15484,-6.4821c-0.74258,-2.35618 -1.19391,-4.93854 -1.57713,-7.37593c-0.05602,-1.21358 -0.33611,-3.98225 0.75034,-4.66067c1.52016,-0.94922 4.04745,3.43933 5.3365,3.95118c1.9455,0.77251 3.28122,-1.55886 5.10004,-1.30562c2.18427,0.30411 3.94427,3.68356 4.62177,5.43277c0.12337,0.3185 0.52392,2.88479 0.9745,3.06458c0.82593,0.32957 1.75367,-0.61731 2.62835,-0.45691c1.6643,0.3052 2.22155,1.96043 2.92578,3.16717c-0.58024,2.52928 -1.68371,3.58415 -3.26303,5.51234c-0.40252,0.49143 -1.93846,1.87449 -2.01231,2.52956c-0.06452,0.57228 1.14528,0.13224 1.71086,0.24086c0.5467,0.10497 1.09321,0.21152 1.63705,0.33046c1.72044,0.37626 3.24913,0.88221 4.80398,1.71718c5.15728,2.76948 8.39037,5.7519 11.40166,10.65643c1.89303,4.85854 2.37476,10.63654 -0.16818,15.37199c-1.46232,2.72313 -3.68536,5.77472 -6.87408,3.7024c-0.6096,-0.39618 0.28704,1.60751 -0.16789,2.17461c-1.91266,2.38422 -4.74739,1.15539 -7.07761,3.13348c-2.57602,2.18675 -5.86099,-1.48022 -8.25666,-1.57097c-2.99472,-0.11344 -4.0263,7.46104 -7.1776,6.89783c-1.63375,-0.29199 -3.6454,-5.23727 -4.97357,-6.22271c-0.57312,-0.42521 -0.64575,-1.74448 -1.35415,-1.65821c-0.25931,0.03158 -0.12727,0.57646 -0.3593,0.69648c-1.49368,0.7726 -3.10265,0.66096 -4.71102,0.73958c-2.8581,0.13127 -7.07099,1.3337 -9.82911,0.37293c-0.67217,-0.23415 -1.32699,-0.60926 -1.81131,-1.13089c-0.22604,-0.24345 -0.42403,-0.83927 -0.49505,-1.31804c-0.33045,0.24228 -0.8137,0.47304 -1.10196,0.6002c-1.26975,0.56011 -2.58546,1.12953 -3.96665,1.2647c-1.89615,0.18558 -5.8584,-0.9627 -6.2218,-3.23602c-0.16101,-1.00726 0.80063,-2.22692 1.45752,-3.06512z" fill="url(#color-1)" stroke="none" stroke-width="0.5"/><path d="M229.24952,211.56644c-0.21329,2.19101 -0.31877,4.46539 0.09658,6.63397c0,0 0.23209,1.22827 -0.99617,1.46036c-1.22826,0.23209 -1.46035,-0.99618 -1.46035,-0.99618c-0.43914,-2.35213 -0.37043,-4.78799 -0.13921,-7.16338l-0.01102,-0.2326c-7.1336,2.35384 -15.69512,2.22867 -21.57455,-2.84645c-0.29577,-0.17855 -0.59155,-0.35712 -0.88733,-0.53568l-0.91831,-1.49407c0,0 -0.51582,-1.13861 0.6228,-1.65443c1.13861,-0.51582 1.65442,0.62279 1.65442,0.62279l-0.06683,0.38548c0.1471,0.08881 0.2942,0.17761 0.44128,0.26641c0.32172,0.09869 0.54036,0.29856 0.54036,0.29856c0.02953,0.02726 0.05916,0.05436 0.08888,0.08132c0.0374,0.02258 0.07479,0.04515 0.11219,0.06773c0,0 0.21496,0.12977 0.39402,0.36933c6.17786,5.07574 15.78676,3.89882 22.36481,0.6065l0.83641,-0.26897c0,0 1.19787,-0.35724 1.55511,0.84063c0.35725,1.19786 -0.84062,1.5551 -0.84062,1.5551l-0.43412,0.10994c-0.4659,0.23202 -0.94338,0.45352 -1.43085,0.66358z" fill="#2e2e2e" stroke="none" stroke-width="0.5"/><path d="M200.4609,222.76921l13.31403,1.51262l0.44242,2.0904c0,0 -2.33723,0.99813 -4.08108,1.32654c-0.26232,0.0494 -0.51121,0.08365 -0.73671,0.09707c-1.95486,0.11628 -6.30715,-0.7619 -6.30715,-0.7619c0,0 -1.79133,-0.87517 -2.14786,-1.45298c-0.48215,-0.78138 -0.48366,-2.81175 -0.48366,-2.81175z" fill="#000000" stroke="none" stroke-width="0"/><path d="M202.54655,187.74706c0.17246,-0.23884 0.47448,-0.32362 0.47448,-0.32362l0.72581,-0.20281c1.21082,-0.28225 2.36724,-0.6031 3.61547,-0.66398c8.152,-0.36593 9.34399,11.0599 9.57317,16.63488c-0.49293,2.93005 -0.01008,5.96253 -0.12089,8.91252c-0.0838,2.23111 -0.73285,4.35431 -0.92822,6.56372c-0.15777,1.78424 0.04695,3.37682 -0.16997,5.0352l0.21924,0.01921l-0.12185,1.13074c-0.03388,0.37436 -0.36206,0.6774 -0.77531,0.69595c-0.22406,0.01006 -0.43069,-0.06542 -0.58367,-0.19559l-0.72486,-0.61677l0.01122,-0.01145l-0.05222,-0.02602c-2.11823,-2.40149 -5.69227,-3.46437 -9.0368,-2.4455c-1.95639,0.59598 -3.12596,1.72658 -5.26115,1.93907c-3.10669,-6.12937 -3.58839,-13.87355 -2.87194,-20.61176c0.96586,-5.58161 -0.4124,-13.15719 6.02748,-15.83383z" fill="url(#color-2)" stroke="none" stroke-width="0.5"/><g stroke="none" stroke-width="0.5"><path d="M212.82138,205.42984c-0.88762,0.58387 -4.92654,0.05581 -5.64293,-0.99289c-0.7698,-1.12689 0.58083,-1.62482 0.1479,-2.64543c-0.39685,-0.93556 -0.72905,-1.54606 -0.95682,-2.56904c-0.04382,-0.0674 -0.06529,-0.11414 -0.06529,-0.11414l-0.23804,-0.60234c-0.03212,-0.55687 -0.33176,-1.16492 -0.09633,-1.67059c0.31769,-0.6824 1.13191,-2.4689 2.0593,-3.92778c0.19484,-0.01386 0.38973,-0.02034 0.58475,-0.01752c2.82231,1.03197 5.03719,2.90538 7.49232,4.55428c1.12644,0.88395 2.73749,2.13494 3.07406,3.56209l-0.09822,-0.03636c-1.71618,-0.03402 -1.86925,1.44604 -2.59544,2.24677c-0.83907,0.9252 -2.19887,1.24835 -3.66526,2.21297z" data-paper-data="{&quot;index&quot;:null}" fill="#9f4d1e"/><path d="M204.73903,196.51711l0.09404,0.31524c0.12526,0.48353 1.03545,0.24572 1.36282,0.62296c1.00535,1.15843 0.21956,1.59176 0.23091,2.60717c0.00469,0.42089 0.84107,-0.38797 1.2381,-0.24821c0.58972,0.20761 1.06658,0.70768 1.42419,1.22052c0.24887,0.35691 -0.1747,1.36073 0.25296,1.28059c0.13285,-0.0249 0.26512,-0.05281 0.39702,-0.08268l-0.09262,-0.16654l1.08711,-0.60459c0.24724,-0.13945 0.55191,-0.17328 0.83895,-0.067c0.51792,0.19177 0.78233,0.76708 0.59056,1.28501c-0.05131,0.13856 -0.13005,0.25899 -0.22782,0.35738l-0.69599,0.733c-1.7646,1.85693 -3.94194,3.22854 -5.64583,5.11803c-0.76233,0.84537 -1.98578,2.55142 -3.22987,2.68125c-1.49941,0.15646 -2.3834,-1.34289 -3.46497,-2.03887c-1.57768,-0.57727 -3.48373,-0.2925 -4.70526,-1.56213c-1.64193,-1.70658 -1.13185,-4.87716 0.02883,-6.66458c2.00639,-3.08977 6.19306,-4.164 9.09762,-6.13383c0,0 0.82763,-0.56128 1.38891,0.26635c0.3113,0.45902 0.19536,0.83612 0.03034,1.08096z" data-paper-data="{&quot;index&quot;:null}" fill="#060301"/><path d="M210.01442,195.65179c-4.34513,2.34846 -11.61018,3.45857 -14.40298,7.89119c-2.36686,3.7566 2.11264,3.39058 4.29968,4.54289c0.87149,0.45916 1.38862,1.92934 2.36171,1.7763c0.4969,-0.07814 0.821,-0.58135 1.23149,-0.87201c4.44898,-2.02359 8.01636,-5.79709 12.12217,-8.44908l0.96729,-0.94438c0,0 0.62976,-0.58967 1.41896,-0.49878c0.78243,0.82358 1.36628,1.77018 1.20316,2.78032c-0.123,0.17321 -0.22992,0.27333 -0.22992,0.27333l-1.46289,1.3311c-4.24312,2.7305 -7.87819,6.51633 -12.46445,8.64345c-3.55163,1.61086 -3.76029,0.82464 -6.82658,-0.96925c-0.98255,-0.57483 -2.32514,-0.14789 -3.35645,-0.6298c-3.66184,-1.71107 -4.15145,-5.67878 -2.2477,-8.814c3.0492,-5.02158 9.99792,-6.27527 15.00718,-8.76796c0.32613,-0.03831 0.65232,-0.05971 0.97884,-0.05497c0.82515,0.30171 1.59838,0.67535 2.34088,1.09428c0.13049,1.08606 -0.94037,1.66739 -0.94037,1.66739z" data-paper-data="{&quot;index&quot;:null}" fill="#2e2e2e"/><path d="M213.92969,203.07072c-0.84136,2.35417 -3.19554,1.5128 -3.19554,1.5128l-1.06762,-0.38831c-1.71193,-0.7587 -3.37615,-1.63984 -4.95534,-2.64605c0,0 -2.10469,-1.34917 -0.75552,-3.45387c1.34918,-2.1047 3.45386,-0.75552 3.45386,-0.75552c1.35569,0.87516 2.79198,1.63349 4.2709,2.27895l0.73646,0.25646c0,0 2.35417,0.84136 1.51281,3.19554z" fill="#0e0c93"/></g><path d="M234.70127,210.03486c-0.25384,-0.03384 0.14593,-0.19805 -0.03988,-0.59441c-0.42448,-0.90544 -0.19225,-1.17165 -0.19225,-1.17165l1.12594,-0.5053c2.9241,-0.14447 5.75921,0.02571 8.67329,0.09763c1.40896,0.03477 3.47723,-0.33569 4.81555,0.00634c1.68387,0.43035 1.54007,0.94185 2.16327,2.34446c0.05623,1.5049 -0.00735,3.48616 -1.329,4.56061c-1.19702,0.97313 -3.37896,1.6272 -4.7953,1.76478c-0.49424,0.048 -1.2642,0.67979 -1.78192,0.7192c-4.30174,0.32753 -8.87617,-1.652 -8.6397,-7.22166z" data-paper-data="{&quot;index&quot;:null}" fill="#393939" stroke="none" stroke-width="0.5"/><path d="M254.30157,207.03965c-0.08275,-0.10698 -0.15085,-0.24621 -0.19331,-0.42683c-0.22884,-0.97347 0.74462,-1.20231 0.74462,-1.20231l0.8048,-0.18126c2.93199,-1.08771 6.97422,-3.73579 9.82879,-3.86228c2.06739,1.43422 4.23107,2.92728 5.76356,4.96906c0.80102,1.06724 2.1405,2.74148 1.06745,4.27463c-0.42102,0.60155 -1.81391,-0.25545 -2.16838,0.38756c-0.44702,0.8109 -0.75048,1.95263 -1.62684,2.25164c-0.48179,0.16439 -1.23125,-0.73888 -1.67611,-0.06516c-0.44732,0.67745 -0.4538,1.76252 -1.17643,2.13243c-0.99372,0.50869 -2.58983,-1.24663 -3.32437,-0.40598c-0.16792,0.19217 0.26024,0.55483 0.10608,0.75821c-0.05102,0.06731 -0.10494,0.13188 -0.16128,0.19413l0.03638,0.02717l-0.70732,0.94754c-0.17519,0.23892 -0.45433,0.39794 -0.77339,0.40864c-0.50166,0.01681 -0.92937,-0.33886 -1.01706,-0.81821l-0.2041,-1.01396c-1.13004,-2.55793 -2.26126,-6.39026 -4.82995,-7.79069c0,0 -0.36652,-0.20353 -0.49313,-0.58434z" data-paper-data="{&quot;index&quot;:null}" fill="#9f4d1e" stroke="none" stroke-width="0.5"/><path d="M219.23876,202.16407c0.10673,-0.04662 2.98025,2.12879 3.06766,2.11133c1.84008,-0.36736 3.59965,0.91795 5.31383,1.47294c-0.11423,-0.03356 -0.22711,-0.06601 -0.33814,-0.09752c-2.96849,-0.60443 -5.79411,-1.54154 -8.87933,-1.38394c-0.10485,0.03954 -0.20869,0.08184 -0.31163,0.12661c0.24721,-1.09818 0.61023,-1.99472 1.14762,-2.2294z" data-paper-data="{&quot;index&quot;:null}" fill="#9f4d1e" stroke="none" stroke-width="0.5"/><path d="M228.0593,205.87325c1.10092,0.26614 1.99517,0.00475 2.59768,0.51706c0.04489,-0.01754 0.0903,-0.03495 0.13625,-0.05223l-0.00167,-0.04988l1.35549,-0.04541c0.55197,-0.0185 1.01444,0.41396 1.03293,0.96595c0.0185,0.55197 -0.41397,1.01443 -0.96596,1.03293l-0.33392,0.01119c-0.72474,-1.26258 -2.43409,-1.94885 -3.97633,-2.41969c0.05187,0.01417 0.10372,0.02756 0.15552,0.04008z" data-paper-data="{&quot;index&quot;:null}" fill="#9f4d1e" stroke="none" stroke-width="0.5"/><path d="M260.86466,218.52884c-0.64132,-0.32128 -0.4767,-1.08801 -0.4767,-1.08801l0.09566,-0.30335c0.12025,-2.01902 0.63452,-2.95386 2.81752,-2.44259c1.00022,-0.72267 1.89038,-0.42099 2.78777,-0.67567c0.66841,-0.1897 0.06588,-1.58079 0.62953,-1.98708c0.62837,-0.45295 1.63844,0.40984 2.32329,0.04794c0.88433,-0.46731 -0.12003,-2.62099 1.84261,-3.18565c1.35498,-0.38984 3.1047,0.94707 3.90497,1.82551c2.20304,2.4183 3.97674,6.80977 2.39678,9.85781c-1.47341,1.57554 -6.43459,5.10196 -8.75759,4.5914c-1.96396,-0.43165 -1.90451,-2.64635 -3.36989,-3.32519c-0.64081,-0.29686 -1.41905,0.59891 -2.08649,0.36807c-1.3299,-0.45995 -1.8343,-2.17463 -2.10746,-3.68319z" data-paper-data="{&quot;index&quot;:null}" fill="#060301" stroke="none" stroke-width="0.5"/><path d="M227.84119,185.05493c3.61549,0.95271 6.96699,2.9672 10.14277,4.8718c1.04352,0.62582 2.23546,1.51706 2.90136,2.53099c0.29086,0.44287 0.12078,0.62461 0.61622,0.81243c0.25694,0.09741 1.83154,-2.04216 2.01662,-2.28058c5.86328,-6.27909 13.41746,-11.8505 22.49991,-9.15647c3.78965,1.53562 3.27486,4.73255 2.79957,8.07493c-0.82714,5.81679 -2.25484,10.83975 -8.06047,13.24309c-2.61289,1.07687 -5.42498,1.83876 -7.99639,2.96319c-1.20721,0.52788 -1.56021,1.59518 -3.00426,1.93118c-3.71507,0.86442 -8.6175,-0.09895 -12.47668,0.02572c-2.55833,0.33351 -3.76968,-0.8732 -6.13535,-1.30746c-0.44692,-0.08204 -0.90847,-0.16002 -1.38049,-0.23763c-0.80187,-0.37715 -1.68885,-0.65022 -2.48188,-0.8753c-2.10825,-0.42928 -4.14443,-1.02635 -6.25274,-1.2799c-1.56272,-0.71865 -2.94926,-1.70212 -3.98325,-3.10692c-1.00569,-1.36637 -1.22314,-3.08225 -1.67674,-4.67997c-0.39007,-2.67721 -1.21374,-6.15247 -0.38254,-8.79281c1.78703,-5.67662 8.46376,-5.57668 12.51664,-3.07226c0,0 0.19261,0.11927 0.33769,0.33597z" data-paper-data="{&quot;index&quot;:null}" fill="#de8f31" stroke="none" stroke-width="0.5"/><path d="M225.71814,205.81754c-0.51517,-0.10697 -1.02932,-0.22438 -1.53786,-0.35631c0.51173,0.11629 1.0236,0.23758 1.53786,0.35631z" data-paper-data="{&quot;index&quot;:null}" fill="#de8f31" stroke="none" stroke-width="0.5"/><path d="M230.74964,207.08347c0.46168,0.21182 0.72786,0.49616 0.87315,0.79307c-0.23922,-0.29892 -0.53722,-0.56122 -0.87358,-0.79328c0.00015,0.00008 0.00029,0.00014 0.00043,0.0002z" data-paper-data="{&quot;index&quot;:null}" fill="#783b1a" stroke="none" stroke-width="0.5"/><path d="M253.49082,208.93886c-0.05733,0.19138 -0.1042,0.38983 -0.14379,0.59341l0.03587,0.21106c0,0 0.01067,0.31878 -0.16007,0.60231c-0.20637,1.69146 -0.21457,3.54319 -1.60594,4.57505c-0.74018,0.54893 -2.76196,1.1512 -3.46492,0.14617c-0.71014,-1.01526 0.88193,-2.14437 1.13829,-2.92834c0.46897,-1.43403 -0.40676,-3.51971 0.22218,-4.88296c0.52202,-1.13148 2.00771,-2.14919 3.32849,-1.28516c0.79783,0.52193 0.92708,1.22063 0.84502,1.93081c-0.03087,0.26713 -0.09162,0.53587 -0.15794,0.79744c-0.00824,0.14239 -0.03724,0.24021 -0.03724,0.24021z" data-paper-data="{&quot;index&quot;:null}" fill="#151515" stroke="none" stroke-width="0.5"/><path d="M248.82418,194.2085c0.06668,-0.11137 0.1287,-0.17768 0.1287,-0.17768l0.19584,-0.20342c2.63796,-2.34936 5.42961,-4.51805 8.55721,-6.17515c2.56136,-0.43237 6.13783,-0.48592 7.40832,2.38098c1.23347,2.78334 -0.59884,8.44254 -2.38432,10.72142c-1.4735,1.88069 -3.99269,3.1571 -6.03805,4.2669c-2.17247,1.01208 -6.04078,2.20411 -8.34669,0.92116c-2.43828,-1.35662 -3.25624,-7.87731 -1.73314,-10.09543c0.51934,-0.7563 1.36237,-1.24839 2.21213,-1.63876z" data-paper-data="{&quot;index&quot;:null}" fill="#fffeff" stroke="none" stroke-width="0.5"/><path d="M233.38776,197.84085c0.07315,0.04767 0.11558,0.08738 0.11558,0.08738l0.59946,0.72798c0.94686,3.38921 -2.51695,6.98555 -5.4403,3.73605c-2.94537,-3.27398 1.11358,-6.50039 4.41494,-4.82094c0,0 0.17312,0.09138 0.31033,0.26952z" data-paper-data="{&quot;index&quot;:null}" fill="#4d2813" stroke="none" stroke-width="0.5"/><path d="M248.80067,197.9763c3.18155,-1.89667 7.44736,1.05085 4.72773,4.51462c-2.6993,3.43787 -6.39606,0.08143 -5.67817,-3.36354l0.54938,-0.76647c0,0 0.03969,-0.04246 0.10947,-0.09491c0.12498,-0.18693 0.29158,-0.28968 0.29158,-0.28968z" data-paper-data="{&quot;index&quot;:null}" fill="#07064e" stroke="none" stroke-width="0.5"/><path d="M236.78647,196.15828c1.66816,2.11121 1.28848,8.67203 -1.05354,10.1888c-1.384,0.89633 -3.4414,0.86926 -5.33562,0.51191c-0.9445,-0.55755 -2.10594,-0.92172 -3.11519,-1.20818c-0.42899,-0.08735 -0.855,-0.18164 -1.27925,-0.27858c-1.792,-0.83414 -3.69876,-1.82313 -4.96968,-3.23875c-1.93401,-2.15425 -4.14101,-7.67812 -3.0966,-10.53778c1.07576,-2.94551 4.64777,-3.13146 7.23233,-2.87151c3.2315,1.44405 6.16206,3.42102 8.95134,5.58855l0.20901,0.18985c0,0 0.06633,0.06203 0.14031,0.16868c0.87397,0.33263 1.74806,0.76716 2.31686,1.48702z" data-paper-data="{&quot;index&quot;:null}" fill="#fffeff" stroke="none" stroke-width="0.5"/><path d="M246.80058,188.49782c-0.01149,-0.01615 -0.02288,-0.03293 -0.03413,-0.05032c-0.51251,-0.79275 0.28023,-1.30526 0.28023,-1.30526l0.6439,-0.41602c2.56785,-1.57867 5.2724,-3.06925 7.94045,-4.48753c2.02358,1.35333 3.1429,4.41384 1.70087,6.81515c-0.90495,1.50697 -3.25091,2.26728 -4.62703,3.21415c-0.95299,0.65573 -1.78193,2.17825 -3.2151,1.90567c-1.27519,-0.24253 -1.84041,-1.5911 -2.17256,-2.99896c-0.23163,-0.98179 -0.34994,-1.99241 -0.51664,-2.67688z" data-paper-data="{&quot;index&quot;:null}" fill="#713617" stroke="none" stroke-width="0.5"/><path d="M234.24894,194.80183c-1.41172,0.3679 -2.34069,-1.09572 -3.33544,-1.6862c-1.43642,-0.85263 -3.82798,-1.45422 -4.83178,-2.89723c-1.59954,-2.2994 -0.68755,-5.42796 1.24089,-6.9137c2.75699,1.23651 5.55526,2.54271 8.223,3.94599l0.6703,0.37199c0,0 0.82527,0.45831 0.36697,1.28357c-0.01006,0.01811 -0.0203,0.0356 -0.03068,0.0525c-0.29333,1.6894 -0.17122,5.28749 -2.30327,5.8431z" data-paper-data="{&quot;index&quot;:null}" fill="#713617" stroke="none" stroke-width="0.5"/><path d="M234.45073,199.12595c0.07314,0.04769 0.11558,0.08738 0.11558,0.08738l0.59945,0.72798c0.94685,3.3892 -2.51695,6.98556 -5.44029,3.73606c-2.94537,-3.27399 1.11358,-6.50039 4.41494,-4.82094c0,0 0.17312,0.09138 0.31032,0.26952z" data-paper-data="{&quot;index&quot;:null}" fill="#07064e" stroke="none" stroke-width="0.5"/><path d="M211.53785,188.08394c0.60609,0.08542 0.85408,0.72239 0.85408,0.72239l0.33797,0.89916c0.28753,1.23155 0.45622,2.34936 0.60008,3.5987c0.13485,1.17106 0.66321,2.13753 -0.24194,3.28224c-1.38504,1.75162 -3.78279,1.41772 -5.04928,-0.27881c-2.2706,-3.04163 -1.07367,-7.52196 2.53472,-8.41435c0,0 0.55364,-0.12926 0.96437,0.19065z" fill="#de8f31" stroke="none" stroke-width="0.5"/><path d="M271.91148,187.03889c3.66003,0.64885 5.15416,5.03904 3.09224,8.22581c-1.15008,1.77751 -3.52012,2.27115 -5.01929,0.61616c-0.97974,-1.08157 -0.51724,-2.08122 -0.46108,-3.25869c0.05991,-1.25617 0.1534,-2.38277 0.35787,-3.63081l0.27701,-0.91976c0,0 0.2048,-0.65215 0.80382,-0.77794c0.38839,-0.34668 0.94945,-0.25477 0.94945,-0.25477z" data-paper-data="{&quot;index&quot;:null}" fill="#de8f31" stroke="none" stroke-width="0.5"/><path d="M258.87621,214.50188c-0.64215,-2.42505 1.99815,-3.03458 1.99815,-3.03458l0.76849,-0.16427c2.73345,-0.87533 4.50036,-2.25444 6.83293,-3.8332c0,0 2.19693,-1.48696 3.79602,0.52337c1.59909,2.01032 -0.59786,3.49726 -0.59786,3.49726c-2.76475,1.87129 -4.98717,3.41112 -8.22037,4.51487l-1.29492,0.31208c0,0 -1.17645,1.2257 -2.06355,0.89893c-0.61358,-0.226 -0.95637,-1.72295 -1.21892,-2.71447z" fill="#0e0c93" stroke="none" stroke-width="0.5"/><path d="M215.60102,226.9159c-0.25361,0.19183 -0.50722,0.38364 -0.76083,0.57547c-1.17733,0.49141 -2.58171,0.8168 -4.08056,0.97106c-4.34991,0.44769 -9.49555,-0.54588 -12.19658,-3.10459c-0.31973,-0.08963 -0.55802,-0.35938 -0.57279,-0.68837c-0.0009,-0.01993 -0.00096,-0.03973 -0.00021,-0.05936c-0.0539,-0.20758 -0.03031,-0.47955 0.29018,-0.72552c0.05695,-0.04371 0.11296,-0.07868 0.16772,-0.10613l0.17695,-0.24113c0.38296,-0.51939 0.81511,-1.00831 1.27163,-1.47341c5.01171,-3.86354 12.05297,-1.50747 15.53006,2.94143c0.03049,0.01894 0.0609,0.03799 0.09123,0.05716l0.20215,-0.16052c0,0 0.81139,-0.03642 0.8453,0.71927c0.03392,0.7557 -0.77747,0.79211 -0.77747,0.79211l-0.06024,-0.00496zM213.98601,226.20949c0.06396,-0.05 0.12793,-0.10001 0.19189,-0.15002c-2.83043,-1.64756 -6.20619,-2.14424 -9.57183,-1.74397c-1.43302,0.17042 -2.67486,0.55571 -3.95872,0.72779c3.39629,2.26347 9.91507,2.66309 13.33866,1.16619z" fill="#6d3618" stroke="none" stroke-width="0.5"/><path d="M240.03447,144.40024c0.17149,-0.12224 0.3558,0.02298 0.3558,0.02298c0.7891,0.63467 1.38019,1.50283 2.26843,2.05271c0.91561,0.56682 1.97026,0.70402 2.96246,1.03871c1.59396,0.60307 3.59307,0.01843 5.14288,-0.42727c0.2645,-0.07605 1.25965,-0.44566 1.47741,-0.28606c0.16264,0.11921 0.35954,0.57762 0.4083,0.76644c-0.07165,0.97647 1.03304,0.42895 0.32408,1.17403c-0.4064,0.42711 -2.39977,2.23073 -2.9273,2.3496c-0.9116,0.20543 -1.59848,0.18752 -2.54306,0.10192c-1.27774,-0.18285 -2.15903,-0.34346 -3.31268,-0.85592c-0.31662,-0.14064 -1.06105,-0.38478 -1.39027,-0.50156c-0.92642,-0.32862 -1.97312,-1.11248 -2.81532,-1.59529c-0.0781,-0.04586 -1.03539,-0.53211 -1.07207,-0.57063c-0.82145,-0.86275 0.34749,-1.94577 0.55488,-2.87044l0.2648,-0.32289c0,0 0.13456,-0.13404 0.30167,-0.07635z" fill="#0b0981" stroke="#050434" stroke-width="0.5"/><path d="M273.31061,165.04764c-1.68479,1.847 -3.53181,0.16222 -3.53181,0.16222l-1.16396,-1.06923c-4.93504,-5.14339 -9.82966,-9.12401 -16.62929,-11.58778c0,0 -2.34938,-0.85465 -1.49474,-3.20403c0.2621,-0.72049 0.66477,-1.13965 1.09715,-1.37453c-0.80736,-2.13054 1.32927,-3.10116 1.32927,-3.10116c2.37014,-0.98433 3.2664,-1.66757 2.79046,-4.36324c-0.03777,-0.21389 -0.09962,0.45213 -0.26171,0.5967c-0.73921,0.65928 -1.40882,1.62349 -2.38883,1.76727c-1.53968,0.22588 -3.29281,0.08909 -4.60934,-0.74059c-2.19552,-1.38361 -2.3774,-4.38148 -2.96587,-6.52385c-0.2579,-0.93891 0.00388,-2.63659 -0.9622,-2.75802c-0.6635,-0.08339 -1.26267,0.57588 -1.93067,0.54509c-2.02797,-0.09347 -3.0751,-0.46921 -4.21519,-1.12491c0.07398,0.75843 0.12071,1.5809 0.39564,2.38687c1.09122,3.19899 4.01746,8.31417 2.41948,11.84986c-2.34706,5.19313 -10.02735,6.01466 -14.74497,7.11439c-6.67763,1.55664 -10.64924,6.52953 -12.79437,12.72016c-1.29131,5.06681 0.20448,10.13366 -1.019,15.2069l-2.73441,2.12816c-0.40375,0.4675 -0.97898,0.78543 -1.63369,0.85292c-0.73537,0.10494 -1.77833,-0.02182 -2.45132,-1.28456c-0.03126,-0.05692 -0.06038,-0.11521 -0.08724,-0.17478c-0.60246,-1.29248 -0.07858,-2.20126 0.44551,-2.72585c0.43044,-0.46492 1.03676,-0.76747 1.71969,-0.79883c0.02554,-0.00117 0.05101,-0.00196 0.0764,-0.00236c0.98708,-4.78511 -0.32005,-9.72843 0.89297,-14.63177c2.47016,-7.08516 6.48412,-12.33551 13.60399,-15.17614c3.58544,-1.4305 7.19667,-1.64525 10.7751,-3.21488c0.3621,-0.15882 2.98474,-1.09652 3.30096,-1.85022c0.84551,-2.01514 -1.93519,-6.69181 -2.51689,-8.44501c-1.00812,-3.03841 -1.17405,-4.89487 -0.62479,-6.9383l-0.4539,-0.10167l0.61116,-2.72852c0.22044,-1.09947 1.16601,-1.95016 2.33672,-2.00393c0.82745,-0.038 1.57937,0.33071 2.06229,0.92963l1.36803,1.65957c1.31792,0.79966 1.79957,1.28469 3.47726,1.35764c1.18109,0.05136 2.45898,-0.68393 3.54059,-0.20672c4.48324,1.978 2.83241,6.68138 4.95818,9.83053c0.43849,0.64959 1.15681,-1.13712 1.90059,-1.38416c1.49615,-0.49692 3.27032,-1.32302 4.68715,-0.63166c1.43608,0.70077 2.00673,2.58351 2.45561,4.1171c1.33207,4.55088 -0.85059,6.89615 -4.19556,8.70988c6.30025,2.75766 11.22195,6.78241 16.07764,11.8431l0.92569,0.83691c0,0 1.84701,1.68479 0.16222,3.5318z" fill="#000000" stroke="none" stroke-width="0.5"/><path d="M213.16662,165.67707c0.57132,-0.73666 1.53764,-0.35575 1.53764,-0.35575c4.15376,1.68562 7.76537,4.61329 12.23143,5.81314c4.60369,1.23683 9.24954,0.47522 13.88224,0.63035c7.52564,0.5265 15.25618,-4.49832 21.25889,-8.36183c1.02443,-0.65935 4.77258,-3.49375 5.89907,-3.09445c0.84138,0.29825 2.25997,1.99082 2.70721,2.7292c0.93998,4.231 4.92588,0.5028 2.86924,4.56451c-0.78339,1.54717 -3.76339,6.56364 -6.28657,10.10057c-1.27395,1.78579 -2.43144,3.19442 -3.13096,3.58893c-3.60305,2.03199 -6.53785,2.83098 -10.65139,3.67119c-5.64979,0.85227 -9.5906,1.29381 -15.13419,0.59067c-1.5214,-0.19297 -4.98834,-0.27986 -6.53282,-0.35562c-4.34611,-0.21317 -9.78192,-2.2032 -13.96735,-3.17734c-0.38951,-0.09496 -5.06728,-0.93706 -5.27182,-1.05364c-4.58139,-2.61132 -1.00514,-8.69167 -1.30366,-12.87588l0.71139,-1.70615c0,0 0.39973,-0.73966 1.18161,-0.7079z" fill="#0e0c93" stroke="#050434" stroke-width="1"/><path d="M281.67201,174.27436c0.03528,-0.27913 0.18405,-0.57987 0.566,-0.83357c1.04123,-0.69162 1.73284,0.3496 1.73284,0.3496l0.69523,1.05331c0.49788,0.91337 0.8599,1.91518 1.05526,2.93692c0.22688,1.18665 0.55525,2.26818 0.06477,3.48525c-1.79179,4.4461 -6.77767,3.39829 -8.517,-0.2389c-0.29642,-0.61985 -1.13419,-2.94464 -0.92009,-3.39873c0.74723,-1.58481 2.09759,-0.8993 3.21301,-1.35751c0.59391,-0.24397 1.56775,-1.45787 1.88143,-1.80444c0,0 0.08421,-0.09232 0.22855,-0.19195z" fill="#565656" stroke="none" stroke-width="0.5"/></g></g></svg>