<svg version="1.1" xmlns="http://www.w3.org/2000/svg" xmlns:xlink="http://www.w3.org/1999/xlink" width="110.7163" height="130.93387" viewBox="0,0,110.7163,130.93387"><g transform="translate(-463.91664,-95.39394)"><g data-paper-data="{&quot;isPaintingLayer&quot;:true}" fill-rule="nonzero" stroke-linejoin="miter" stroke-miterlimit="10" stroke-dasharray="" stroke-dashoffset="0" style="mix-blend-mode: normal"><path d="M470.46532,96.9459l98.3125,0.45833l4.125,3.4375l0.22917,119.625l-3.20833,4.35417l-100.83333,-0.91667l-2.52083,-2.75l-1.14583,-120.3125z" fill="#5f5f5f" stroke="#060606" stroke-width="3" stroke-linecap="round"/><path d="M467.68184,170.5751l49.27083,14.20833l54.54167,-12.83333l0.45833,46.0625l-2.75,4.58333l-98.3125,-0.45833l-2.52083,-2.52083z" fill="#353535" stroke="#353535" stroke-width="3.5" stroke-linecap="round"/><path d="M481.83256,151.77368c-0.72889,-0.93037 -0.41464,-2.18736 -0.41464,-2.18736l1.27909,-3.2751c1.31151,-1.09849 1.88328,-2.88534 3.09051,-4.09751c0.84282,-0.84627 1.97021,-1.3928 3.08387,-1.82441c0.45609,-0.17676 1.28231,0.51431 1.46615,0.06103c0.31684,-0.78118 -0.50559,-1.63947 -0.48417,-2.48219c0.08217,-3.23158 0.80318,-3.48177 2.17084,-6.20928c0.22982,-0.45833 0.72342,-0.91777 0.60134,-1.41575c-0.21462,-0.87546 -1.42219,-1.35198 -1.5,-2.25c-0.12347,-1.42494 0.62821,-2.79073 0.94232,-4.1861c0.44859,-0.20844 0.9774,-0.29521 1.34578,-0.62533c0.27081,-0.24269 -0.68459,0.44541 -1.03449,0.34636c-0.85796,-0.24287 -1.57971,-0.83077 -2.33739,-1.30089c-2.17581,-1.35002 -4.67909,-3.06916 -6.48386,-4.8845c-2.99735,-3.01491 -7.99007,-11.27313 -3.3206,-15.16597c4.01376,-3.34618 4.35493,-0.13705 7.32872,0.46107c1.54448,0.31064 3.13556,-0.31522 4.69718,-0.52323c5.47252,-0.72893 8.97467,-4.54172 14.09417,-6.16113c3.94828,-1.24892 6.89226,-0.59605 10.57542,0.88915c1.90966,1.08398 3.74225,2.43266 5.12602,4.13764c1.4457,1.78129 2.20261,4.50168 4.33631,5.3445c1.94518,0.76836 4.17702,0.49927 6.17259,1.12521c4.77,1.4962 9.54385,4.65691 11.78395,9.32053c2.72573,5.67467 0.52747,12.92001 0.73943,18.9683c0.03953,1.12791 0.25834,6.7004 2.75216,6.3539c0.92067,-0.12792 1.73593,-0.66523 2.6039,-0.99784c1.37502,0.64736 2.95795,0.96862 4.12505,1.94209c0.8889,0.74142 1.25897,1.94812 1.77887,2.98231c2.54049,5.05362 2.80019,10.35105 -0.41024,15.18366c-2.32967,3.50681 -5.04002,6.12363 -9.08014,7.51908c-0.35458,0.12247 -0.87555,0.26248 -1.4027,0.35375c0.48555,0.51632 0.9005,1.10845 1.26613,1.70951c0.59751,0.98225 0.99395,2.08825 1.2872,3.19993c1.22625,4.64855 1.74454,5.66126 -0.1849,9.73135c-1.8781,3.96178 -5.27996,8.24284 -10.41736,6.32792c-1.2002,-0.44736 -1.46687,-2.10017 -2.20031,-3.15025c-0.82383,-1.23607 -2.66267,-2.89636 -3.43473,-4.61301c-0.26547,0.43435 -0.59014,0.84421 -0.8859,1.24975c-1.59019,2.18039 -3.06293,3.61867 -5.8424,4.27048c-0.94726,0.22214 -1.94817,-0.07159 -2.91136,-0.20905c-0.61897,-0.08834 -1.29363,-0.80784 -1.81699,-0.46575c-0.39106,0.25561 0.22063,0.97161 0.57196,1.27956c0.78515,0.6882 2.36452,0.59935 2.69972,1.58815c1.07273,3.1644 -0.94733,6.21951 -3.45627,7.74014c-3.05241,1.85002 -6.17343,1.35354 -9.53952,1.35824c-6.17099,0.00862 -12.71135,-2.48147 -14.86328,-8.93458c-0.43563,-1.30635 -0.41483,-2.72273 -0.62224,-4.0841c0.3404,-0.60348 1.0563,-1.11846 1.02121,-1.81043c-0.02327,-0.45871 -0.82056,-0.43827 -1.15141,-0.75684c-0.90973,-0.87597 -1.73354,-1.83881 -2.54729,-2.80459c-1.63778,-1.94377 -4.39877,-5.39663 -3.61615,-8.13676c0.00117,-0.00411 5.42386,-2.8613 6.1771,-3.32552c0.31771,-0.19581 0.61272,-0.43102 0.90757,-0.66555c-1.81801,-0.67936 -4.15197,-2.78226 -4.71579,-3.16738c-3.76713,-2.57321 -7.3352,-4.49509 -8.9804,-9.08307c-0.338,-0.94259 -0.3755,-3.04098 -0.37003,-4.65014z" fill="#000000" stroke="none" stroke-width="0.5" stroke-linecap="butt"/></g></g></svg>