<svg version="1.1" xmlns="http://www.w3.org/2000/svg" xmlns:xlink="http://www.w3.org/1999/xlink" width="75.62199" height="106.55374" viewBox="0,0,75.62199,106.55374"><defs><linearGradient x1="221.82174" y1="197.05422" x2="221.47538" y2="211.6193" gradientUnits="userSpaceOnUse" id="color-1"><stop offset="0" stop-color="#3c0e6e"/><stop offset="1" stop-color="#7223b7"/></linearGradient><linearGradient x1="259.32025" y1="196.88455" x2="255.28489" y2="210.88376" gradientUnits="userSpaceOnUse" id="color-2"><stop offset="0" stop-color="#3c0e6e"/><stop offset="1" stop-color="#7223b7"/></linearGradient><linearGradient x1="239.76241" y1="178.55866" x2="239.07873" y2="207.30858" gradientUnits="userSpaceOnUse" id="color-3"><stop offset="0" stop-color="#ce7d14"/><stop offset="1" stop-color="#ce6c11"/></linearGradient><radialGradient cx="239.94568" cy="187.41537" r="24.68676" gradientUnits="userSpaceOnUse" id="color-4"><stop offset="0" stop-color="#754a1b"/><stop offset="1" stop-color="#3f2b10"/></radialGradient><linearGradient x1="252.60869" y1="174.18434" x2="224.4664" y2="173.51511" gradientUnits="userSpaceOnUse" id="color-5"><stop offset="0" stop-color="#7416b2"/><stop offset="1" stop-color="#633fc7"/></linearGradient><linearGradient x1="260.07385" y1="175.36611" x2="215.75195" y2="174.31213" gradientUnits="userSpaceOnUse" id="color-6"><stop offset="0" stop-color="#4997f2"/><stop offset="1" stop-color="#7c8edf"/></linearGradient><linearGradient x1="221.43175" y1="197.12079" x2="220.92288" y2="211.86501" gradientUnits="userSpaceOnUse" id="color-7"><stop offset="0" stop-color="#2f1b11"/><stop offset="1" stop-color="#484e42"/></linearGradient><linearGradient x1="259.40301" y1="197.35616" x2="255.16496" y2="211.48735" gradientUnits="userSpaceOnUse" id="color-8"><stop offset="0" stop-color="#2f1b11"/><stop offset="1" stop-color="#484e42"/></linearGradient><linearGradient x1="239.79854" y1="178.58777" x2="238.7941" y2="207.6913" gradientUnits="userSpaceOnUse" id="color-9"><stop offset="0" stop-color="#ce7d14"/><stop offset="1" stop-color="#ce6c11"/></linearGradient><linearGradient x1="252.85365" y1="174.29801" x2="224.36522" y2="173.3148" gradientUnits="userSpaceOnUse" id="color-10"><stop offset="0" stop-color="#484e42"/><stop offset="1" stop-color="#635e59"/></linearGradient></defs><g transform="translate(-202.01838,-126.46318)"><g data-paper-data="{&quot;isPaintingLayer&quot;:true}" fill-rule="nonzero" stroke-linejoin="miter" stroke-miterlimit="10" stroke-dasharray="" stroke-dashoffset="0" style="mix-blend-mode: normal"><path d="M267.59372,177.42664l3.55962,-6.32464c0,0 1.73036,0.23227 2.57008,0.87931c0.83972,0.64704 1.44735,2.2163 1.44735,2.2163l-0.43478,1.0806c0,0 1.16602,0.42423 1.88213,1.13569c0.71614,0.71147 0.0974,1.63874 0.0974,1.63874l-1.71652,3.36836z" fill="none" stroke="#6b0000" stroke-width="1" stroke-linecap="round"/><path d="M228.43635,206.43026c0,0 5.91261,1.03651 9.7997,1.32516c3.88706,0.28865 8.84855,-1.34385 8.84855,-1.34385l2.31191,12.59283l-3.5967,4.4854l-5.58459,-1.88419l-0.23164,-7.03992l-4.20747,0.09336l-0.1395,5.30164l-5.1167,1.99162l-3.9305,-3.73447l1.84695,-11.78765z" fill="#cf7e16" stroke="#772203" stroke-width="0.5" stroke-linecap="round"/><path d="M244.00772,216.32186c-1.19099,-0.02832 -2.11515,-1.78916 -2.06417,-3.93297c0.05098,-2.14381 1.05779,-3.85873 2.24879,-3.83041c1.19099,0.02832 2.11519,1.78916 2.06421,3.93297c-0.05098,2.14381 -1.05779,3.85874 -2.24882,3.83041z" fill="#7125b9" stroke="none" stroke-width="NaN" stroke-linecap="butt"/><path d="M231.97236,214.30947c-1.19099,-0.02832 -2.11519,-1.78916 -2.06421,-3.93298c0.05098,-2.14381 1.05779,-3.85873 2.24882,-3.83041c1.19099,0.02832 2.11519,1.78916 2.06421,3.93297c-0.05098,2.14381 -1.05779,3.85874 -2.24882,3.83041z" fill="#7125b9" stroke="none" stroke-width="NaN" stroke-linecap="butt"/><path d="M247.63441,205.36058l0.24658,4.14867l-9.2461,4.09556l-8.73286,-2.96955l0.12717,-5.34811z" fill="#3c1171" stroke="#000000" stroke-width="0" stroke-linecap="round"/><path d="M242.02625,209.68312l2.17321,-0.75654l0.57062,2.4382l-2.80146,0.7416z" fill="#c79b28" stroke="#000000" stroke-width="0" stroke-linecap="round"/><path d="M238.99195,212.6642l-4.6606,-0.38021c0,0 -5.44749,-3.63234 -6.26768,-4.54931c-0.82019,-0.91697 0.18366,-3.94689 0.18366,-3.94689c0,0 -0.54928,0.6499 1.99596,2.92111c2.19977,1.96293 8.91738,2.63669 8.91738,2.63669z" fill="#b67200" stroke="#efc124" stroke-width="0" stroke-linecap="round"/><path d="M238.99195,212.6642l-4.6606,-0.38021c0,0 -5.21664,-2.01044 -6.03683,-2.9274c-0.82019,-0.91697 -0.34631,-4.31867 -0.34631,-4.31867c0,0 0.66455,2.47477 3.51531,3.22662c2.85076,0.75186 7.69717,1.08105 7.69717,1.08105z" fill="#744c1c" stroke="#efc124" stroke-width="0" stroke-linecap="round"/><path d="M236.65822,205.06544l4.66701,0.11098l-0.10885,4.57727l-4.667,-0.11098z" fill="#e0a01e" stroke="#efc124" stroke-width="0.25" stroke-linecap="butt"/><path d="M234.71777,208.55513l8.10141,0.19265l-0.06564,2.76029l-8.1014,-0.19265z" fill="#fdfe63" stroke="none" stroke-width="0" stroke-linecap="butt"/><path d="M234.69851,209.07251l8.10842,0.19282l-0.11898,5.00307l-8.10842,-0.19282z" fill="#efc224" stroke="none" stroke-width="0" stroke-linecap="butt"/><path d="M235.00662,210.63339l7.07332,0.16821l-0.06564,2.76032l-7.07332,-0.16821z" fill="#fdfe63" stroke="none" stroke-width="0" stroke-linecap="butt"/><path d="M235.02713,209.77078l7.07332,0.16821l-0.06564,2.76032l-7.07332,-0.16821z" fill="#744c1c" stroke="none" stroke-width="0" stroke-linecap="butt"/><path d="M249.38981,202.13535l0.98107,7.83601l-5.88284,1.92553l-0.16479,-8.17578z" fill="#774b21" stroke="#c79b3c" stroke-width="0.25" stroke-linecap="round"/><path d="M247.06075,207.55783c0.57002,0.01355 1.02113,0.48665 1.00758,1.05667c-0.01355,0.57002 -0.48665,1.02114 -1.05667,1.00759c-0.57002,-0.01355 -1.02114,-0.48665 -1.00759,-1.05667c0.01355,-0.57002 0.48666,-1.02114 1.05668,-1.00758z" fill="#4e3414" stroke="none" stroke-width="0" stroke-linecap="butt"/><path d="M228.99942,219.19038l-0.08473,-1.8005" fill="none" stroke="#b66519" stroke-width="0.25" stroke-linecap="round"/><path d="M233.05507,219.78779l-0.09036,-1.92051" fill="none" stroke="#b66519" stroke-width="0.25" stroke-linecap="round"/><path d="M242.87345,221.08521l-0.09602,-2.04055" fill="none" stroke="#b66519" stroke-width="0.25" stroke-linecap="round"/><path d="M246.52845,220.68997l-0.07341,-1.56043" fill="none" stroke="#b66519" stroke-width="0.25" stroke-linecap="round"/><path d="M229.99177,203.72556l-6.37293,9.24016l-5.05131,8.13809c0,0 -1.5048,-4.66986 -4.57,-5.29032c-3.0931,-0.62609 -7.17077,1.93455 -7.17077,1.93455c0,0 -0.469,-8.222 -0.09274,-9.71774c0.37626,-1.49573 3.94945,-2.65883 3.94945,-2.65883l8.81581,-9.82974" data-paper-data="{&quot;index&quot;:null}" fill="#b64404" stroke="#6b0000" stroke-width="0.5" stroke-linecap="round"/><path d="M213.69952,208.35782l1.78015,0.04234l-2.8551,4.30409l4.11129,-2.65495l-0.39679,3.06714l3.44472,-1.86118l0.43549,2.1154l2.60089,-0.42395l0.07716,3.5642l-3.39062,6.3964l-1.46805,0.45088c0,0 -0.90767,-4.85178 -4.23482,-5.76811c-3.32715,-0.91637 -7.99148,2.40077 -7.99148,2.40077c0,0 0.79731,-9.45926 2.22682,-11.92956c1.42954,-2.4703 5.71595,-3.43306 5.71595,-3.43306z" fill="#cf7d14" stroke="#000000" stroke-width="0" stroke-linecap="round"/><path d="M220.48601,195.42127l10.92655,8.20745l-6.03941,8.75749c0,0 -3.59553,-1.01897 -5.28541,-2.38195c-2.18274,-1.76048 -6.71494,-7.29693 -6.71494,-7.29693z" fill="url(#color-1)" stroke="#000000" stroke-width="0" stroke-linecap="round"/><path d="M215.81263,200.63367l5.54135,6.5186l6.16148,2.21794l-2.48913,3.04792l-6.83925,-2.75188l-4.66647,-7.01569z" fill="#f7e444" stroke="#000000" stroke-width="0" stroke-linecap="round"/><path d="M214.95099,166.44166l5.10137,-11.02493c0,0 5.6204,-9.70418 7.5443,-11.12461c1.92389,-1.42043 11.03566,-9.24869 11.03566,-9.24869l0.29136,12.05448c0,0 6.89023,-11.57739 10.67927,-15.17223c2.46788,-2.3414 7.77314,-4.34775 7.77314,-4.34775c0,0 0.61759,6.57408 0.64452,9.91294c0.02758,3.41882 -0.48084,10.36573 -0.48084,10.36573l7.7434,-2.50143l1.93908,7.47419c0,0 0.86196,3.39995 0.90586,6.22135c0.04883,3.13671 -0.1207,19.53323 -0.1207,19.53323c0,0 6.14419,-1.20565 7.44706,2.79396c1.30287,3.99961 0.22911,11.1598 -2.85387,15.02891c-2.23724,2.80776 -6.19496,1.17364 -6.19496,1.17364c0,0 -8.03887,8.17358 -26.00783,9.30518c-13.58285,0.85543 -25.96921,-6.68179 -25.96921,-6.68179c0,0 -3.44398,0.82146 -5.94972,-0.54342c-3.1525,-1.71714 -6.44567,-9.00392 -5.15535,-15.76802c0.51487,-2.69896 6.83533,-2.43789 6.83533,-2.43789z" fill="none" stroke="#6b0000" stroke-width="1" stroke-linecap="round"/><path d="M214.95099,166.44166l5.10137,-11.02493c0,0 5.6204,-9.70418 7.5443,-11.12461c1.92389,-1.42043 11.03566,-9.24869 11.03566,-9.24869l0.29136,12.05448c0,0 6.89023,-11.57739 10.67927,-15.17223c2.46788,-2.3414 7.77314,-4.34775 7.77314,-4.34775c0,0 0.61759,6.57408 0.64452,9.91294c0.02758,3.41882 -0.48084,10.36573 -0.48084,10.36573l7.7434,-2.50143l1.93908,7.47419c0,0 0.86196,3.39995 0.90586,6.22135c0.04883,3.13671 -0.1207,19.53323 -0.1207,19.53323c0,0 6.14419,-1.20565 7.44706,2.79396c1.30287,3.99961 0.22911,11.1598 -2.85387,15.02891c-2.23724,2.80776 -6.19496,1.17364 -6.19496,1.17364c0,0 -8.03887,8.17358 -26.00783,9.30518c-13.58285,0.85543 -25.96921,-6.68179 -25.96921,-6.68179c0,0 -3.44398,0.82146 -5.94972,-0.54342c-3.1525,-1.71714 -6.44567,-9.00392 -5.15535,-15.76802c0.51487,-2.69896 7.02942,-2.43328 7.02942,-2.43328z" fill="#b53406" stroke="#6b0000" stroke-width="0" stroke-linecap="round"/><path d="M232.29346,170.71528c0,0 1.67839,-5.43389 3.9735,-8.48518c3.04925,-4.05386 12.71096,-13.69639 12.71096,-13.69639c0,0 -5.07388,10.08568 -6.15056,14.30352c-0.84767,3.32083 0.21166,8.96216 0.21166,8.96216z" fill="#a02802" stroke="#000000" stroke-width="0" stroke-linecap="round"/><path d="M233.93526,141.59926c0,0 -5.13622,9.71743 -6.51788,13.59112c-1.02662,2.87831 -1.02799,7.56495 -1.02799,7.56495l-8.47322,-0.82292c0,0 2.29161,-5.4519 4.60752,-8.39149c2.89395,-3.67329 11.41157,-11.94166 11.41157,-11.94166z" fill="#a02802" stroke="#000000" stroke-width="0" stroke-linecap="round"/><path d="M252.52266,170.78206l5.78141,-16.64092l0.62623,8.50766l3.59792,-11.92859l0.3407,20.51504z" fill="#a02802" stroke="#000000" stroke-width="0" stroke-linecap="round"/><path d="M249.02901,138.81647c-1.41892,2.25247 -2.93967,6.33428 -2.93967,6.33428l1.59687,-6.17625l-5.92467,5.24479c0,0 3.55788,-5.29659 5.87143,-7.64052c2.20976,-2.23876 7.71286,-6.12203 7.71286,-6.12203c0,0 -4.68117,5.76323 -6.31682,8.35973z" fill="#a02802" stroke="#000000" stroke-width="0" stroke-linecap="round"/><path d="M266.94818,193.31544l1.40081,-10.25806c0,0 3.57809,-0.98681 4.03388,0.90234c0.45585,1.88915 0.09161,6.04278 -1.63903,9.02199c-1.73064,2.97924 -3.79569,0.33373 -3.79569,0.33373z" data-paper-data="{&quot;index&quot;:null}" fill="#cd7d10" stroke="#8a2b01" stroke-width="0.25" stroke-linecap="round"/><path d="M262.31531,197.10349l3.85595,9.14244c0,0 2.17347,2.13948 2.22375,3.88612c0.05028,1.74665 -1.7277,13.34908 -1.7277,13.34908l-8.35923,-1.10348l-1.51288,-2.43175l-2.68193,1.95949l-3.46764,-0.82767l0.64278,-10.26022l-2.41792,-8.04352" fill="#b64404" stroke="#6b0000" stroke-width="0.5" stroke-linecap="round"/><path d="M254.86132,212.81898l2.68193,-1.95951l1.89873,2.99992l1.04744,-3.75523l2.19334,4.04511l-1.18557,-5.00616l2.22601,0.42551l1.56189,-2.99767l2.22372,3.88612l-1.89371,12.49329l-6.14029,-1.50339l-2.3757,-3.09109l-2.13712,2.55807l-3.33902,-0.63825l0.26404,-10.00301z" fill="#cf7d14" stroke="#000000" stroke-width="0" stroke-linecap="round"/><path d="M265.68618,204.81024c0,0 -5.98333,3.92337 -8.59339,4.94864c-0.89971,0.35339 -6.92704,0.97907 -6.92704,0.97907l-2.87265,-10.20042l13.79088,-4.81047z" data-paper-data="{&quot;index&quot;:null}" fill="url(#color-2)" stroke="#000000" stroke-width="0" stroke-linecap="round"/><path d="M265.74487,205.96391l-7.11668,4.83666l-8.11493,0.32486l-1.2357,-2.2734l9.07259,-1.85567l6.72377,-3.81031z" fill="#f7e444" stroke="#000000" stroke-width="0" stroke-linecap="round"/><path d="M212.06828,195.22162c0,0 -1.97911,2.55567 -3.51435,-0.4903c-1.53528,-3.04594 -1.77464,-7.20785 -1.3068,-9.07504c0.46784,-1.86719 3.76472,-0.73395 3.76472,-0.73395l1.05641,10.29925z" data-paper-data="{&quot;index&quot;:null}" fill="#cd7d10" stroke="#8a2b01" stroke-width="0.25" stroke-linecap="round"/><path d="M265.67578,195.92741c0,0 -5.5419,10.81712 -25.70965,11.35202c-19.00352,0.50403 -28.03992,-12.71294 -28.03992,-12.71294l-0.03691,-9.2405c0,0 0.40124,-4.19743 8.93822,-4.45759c15.18245,-1.57376 19.53254,11.25934 19.53254,11.25934c0,0 2.85338,-11.25738 19.70022,-13.00356c4.06941,-0.42181 7.3594,1.74257 7.3594,1.74257z" fill="url(#color-3)" stroke="#8a2b01" stroke-width="0.5" stroke-linecap="round"/><path d="M233.89773,201.54289c-1.8553,3.7647 -6.73383,4.7276 -10.89661,2.15066c-4.16278,-2.57698 -6.03333,-7.71793 -4.17803,-11.4827c1.8553,-3.7647 6.73384,-4.7276 10.89661,-2.15066c4.16278,2.57698 6.03333,7.71793 4.17803,11.4827z" fill="#ffffff" stroke="#954116" stroke-width="0" stroke-linecap="butt"/><path d="M250.03183,189.34937c4.15054,-2.8287 9.17534,-2.16552 11.22327,1.48131c2.04793,3.64676 0.34338,8.89622 -3.80719,11.72491c-4.15054,2.8287 -9.17538,2.16552 -11.22327,-1.48127c-2.04793,-3.64676 -0.34338,-8.89625 3.8072,-11.72501z" data-paper-data="{&quot;index&quot;:null}" fill="#ffffff" stroke="#954116" stroke-width="0" stroke-linecap="butt"/><path d="M255.51165,187.94232l-7.6239,2.38744l-1.07356,-5.35473l8.16011,-2.76059z" data-paper-data="{&quot;index&quot;:null}" fill="#8d4f11" stroke="#602a0d" stroke-width="0" stroke-linecap="round"/><path d="M225.61991,182.86282l8.01967,3.14535l-1.32688,5.29767l-7.50182,-2.74717z" data-paper-data="{&quot;index&quot;:null}" fill="#8d4f11" stroke="#602a0d" stroke-width="0" stroke-linecap="round"/><path d="M249.11995,194.71937c1.27752,-0.04447 2.33884,1.4719 2.37054,3.38698c0.03167,1.91504 -0.97825,3.50356 -2.25577,3.54803c-1.27752,0.04447 -2.33884,-1.4719 -2.37054,-3.38698c-0.03167,-1.91504 0.97825,-3.50356 2.25578,-3.54803z" data-paper-data="{&quot;index&quot;:null}" fill="#df6500" stroke="none" stroke-width="0" stroke-linecap="butt"/><path d="M249.11738,194.82784c1.7717,-0.00907 2.01138,1.83601 2.01138,1.83601l-4.03254,0.17117c0,0 0.25139,-2.0797 2.02112,-2.00717z" data-paper-data="{&quot;index&quot;:null}" fill="#8b2900" stroke="none" stroke-width="0" stroke-linecap="butt"/><path d="M229.56857,195.86553c1.49571,-0.03717 2.74567,1.441 2.79187,3.30155c0.04618,1.86055 -1.12886,3.39887 -2.62457,3.43604c-1.49571,0.03717 -2.7457,-1.44097 -2.7919,-3.30152c-0.04618,-1.86055 1.12889,-3.3989 2.6246,-3.43604z" data-paper-data="{&quot;index&quot;:null}" fill="#df6500" stroke="none" stroke-width="0" stroke-linecap="butt"/><path d="M229.56606,195.9709c2.07457,-0.00038 2.36398,1.79315 2.36398,1.79315l-4.72113,0.14714c0,0 0.2845,-2.01913 2.35715,-1.94029z" data-paper-data="{&quot;index&quot;:null}" fill="#8b2900" stroke="none" stroke-width="0" stroke-linecap="butt"/><path d="M214.16584,167.75796l52.45564,1.63579l1.36494,12.50773c0,0 -1.70596,0.26782 -2.85733,0.9186c-1.15137,0.65078 -2.63459,4.91575 -10.6819,5.43088c-6.30787,0.40378 -8.55456,-4.50796 -14.77093,-4.64115c-6.21637,-0.13319 -6.23299,5.17031 -16.9472,4.53854c-6.68282,-0.39407 -6.41539,-3.8228 -9.56851,-5.63544c-2.09955,-1.20699 -4.39929,-1.50556 -4.39929,-1.50556z" fill="url(#color-4)" stroke="none" stroke-width="0" stroke-linecap="butt"/><path d="M267.94979,174.50392l-27.27072,-0.47926c0,0 -0.01836,-0.60899 -0.01104,-0.91701c0.17221,-7.24197 6.42792,-12.96723 13.97247,-12.78782c7.54455,0.17941 13.52107,6.19556 13.34886,13.43753c-0.00597,0.25076 -0.03957,0.74657 -0.03957,0.74657z" data-paper-data="{&quot;index&quot;:null}" fill="#d89400" stroke="none" stroke-width="0" stroke-linecap="butt"/><path d="M267.59372,177.42664l3.55962,-6.32464c0,0 1.73036,0.23227 2.57008,0.87931c0.83972,0.64704 1.44735,2.2163 1.44735,2.2163l-0.43478,1.0806c0,0 1.16602,0.42423 1.88213,1.13569c0.71614,0.71147 0.0974,1.63874 0.0974,1.63874l-1.71652,3.36836z" fill="#c79b40" stroke="#000000" stroke-width="0" stroke-linecap="round"/><path d="M270.61996,177.59004c-1.40274,-0.98504 -2.24003,-2.27143 -1.87011,-2.87331c0.36992,-0.60188 1.80701,-0.29123 3.20977,0.6938c1.40274,0.98504 2.24006,2.27143 1.87011,2.87331c-0.36992,0.60188 -1.80703,0.29123 -3.20977,-0.69381z" fill="#9ecef3" stroke="none" stroke-width="0" stroke-linecap="butt"/><path d="M273.09952,179.81936c-1.18897,-0.83491 -1.89865,-1.92527 -1.58506,-2.43539c0.31355,-0.51012 1.53159,-0.24686 2.72055,0.58805c1.18897,0.83491 1.89865,1.92527 1.58506,2.43539c-0.31355,0.51012 -1.53159,0.24686 -2.72055,-0.58805z" fill="#9ecef3" stroke="none" stroke-width="0" stroke-linecap="butt"/><path d="M270.21025,178.48652c-1.40274,-0.98504 -2.24002,-2.27144 -1.8701,-2.87332c0.36992,-0.60188 1.807,-0.29123 3.20977,0.6938c1.40274,0.98504 2.24005,2.27147 1.8701,2.87332c-0.36992,0.60188 -1.80703,0.29123 -3.20977,-0.6938z" fill="#95763f" stroke="none" stroke-width="0" stroke-linecap="butt"/><path d="M272.6898,180.71586c-1.18897,-0.83491 -1.89865,-1.92526 -1.58506,-2.43538c0.31355,-0.51012 1.53159,-0.24686 2.72055,0.58805c1.18897,0.83491 1.89865,1.92524 1.58507,2.43536c-0.31355,0.51012 -1.53159,0.24688 -2.72056,-0.58803z" fill="#95763f" stroke="none" stroke-width="0" stroke-linecap="butt"/><path d="M268.57136,175.97286c0,0 1.40819,0.40177 2.66649,1.36814c0.88975,0.68331 1.1139,2.30093 1.1139,2.30093c0,0 1.06849,0.40441 1.46769,0.66555c0.39379,0.25759 1.15804,1.41449 1.15804,1.41449l-6.64688,11.07536l-7.48982,-4.98816z" fill="#744c20" stroke="#000000" stroke-width="0" stroke-linecap="round"/><path d="M262.69094,190.34777c-1.50313,-0.98742 -2.4015,-2.27527 -2.00655,-2.87655c0.39495,-0.60128 1.93373,-0.28821 3.43686,0.69921c1.50313,0.98742 2.40151,2.27531 2.00656,2.87655c-0.39495,0.60128 -1.93374,0.28821 -3.43687,-0.69921z" fill="#95763f" stroke="none" stroke-width="0" stroke-linecap="butt"/><path d="M265.34875,192.58135c-1.27405,-0.83694 -2.03546,-1.92852 -1.7007,-2.43814c0.33476,-0.50962 1.63896,-0.2443 2.91302,0.59264c1.27405,0.83694 2.03547,1.92849 1.70071,2.43811c-0.33476,0.50962 -1.63897,0.24433 -2.91303,-0.59261z" fill="#95763f" stroke="none" stroke-width="0" stroke-linecap="butt"/><path d="M262.57842,190.91792c-1.3442,-0.88304 -2.1476,-2.03472 -1.7944,-2.57242c0.3532,-0.5377 1.72924,-0.25776 3.07344,0.62528c1.3442,0.88304 2.1476,2.03472 1.7944,2.57242c-0.3532,0.5377 -1.72924,0.25776 -3.07344,-0.62528z" fill="#402c11" stroke="none" stroke-width="0" stroke-linecap="butt"/><path d="M264.95522,192.91533c-1.13932,-0.74844 -1.82027,-1.72461 -1.52091,-2.18036c0.29937,-0.45575 1.4657,-0.21847 2.60502,0.52997c1.13932,0.74844 1.82024,1.72461 1.52087,2.18032c-0.29937,0.45575 -1.46566,0.21846 -2.60502,-0.52998z" fill="#402c11" stroke="none" stroke-width="0" stroke-linecap="butt"/><path d="M267.92302,175.50955c-0.11888,4.999 -3.71733,11.20493 -13.33385,11.96931c-7.87803,0.62619 -9.23396,-4.68929 -14.77929,-4.76101c-8.10626,-0.10484 -9.84441,6.92732 -18.95898,4.3612c-6.77386,-1.90709 -10.8053,-9.37964 -10.72054,-12.94382c0.00733,-0.30802 0.09122,-0.91462 0.09122,-0.91462l57.673,1.54072c0,0 0.03431,0.49746 0.02835,0.74822z" fill="#efc524" stroke="none" stroke-width="0" stroke-linecap="butt"/><path d="M267.98373,173.99395l-27.49768,-0.6539z" fill="none" stroke="#be7e01" stroke-width="0.3" stroke-linecap="round"/><path d="M237.53634,174.3582l-27.2707,-0.47925c0,0 -0.01839,-0.609 -0.01107,-0.91702c0.17221,-7.24197 6.42792,-12.96726 13.9725,-12.78785c7.54456,0.17941 13.52104,6.19559 13.34883,13.43756c-0.00597,0.25076 -0.03954,0.74657 -0.03954,0.74657z" data-paper-data="{&quot;index&quot;:null}" fill="#d89400" stroke="none" stroke-width="0" stroke-linecap="butt"/><path d="M220.67242,169.55949l-9.52471,-0.66972c0,0 2.41783,-7.57074 13.61658,-8.6212c3.41547,-0.32038 8.7711,4.57186 13.69993,4.63131c7.35367,0.08868 11.59083,-5.93723 17.96964,-4.51802c8.89502,1.97904 11.10521,10.09278 11.10521,10.09278l-11.47357,0.45851c0,0 -3.88979,-1.19994 -18.35219,-1.49116c-14.46243,-0.29122 -17.04083,0.11751 -17.04083,0.11751z" fill="#efc224" stroke="#f6e143" stroke-width="0.125" stroke-linecap="round"/><path d="M215.17742,164.0029l14.50033,22.04371l-2.17404,0.9016l-14.32546,-21.09288z" fill="#f9f65a" stroke="#000000" stroke-width="0" stroke-linecap="round"/><path d="M221.71941,160.50376l12.67544,19.59059l-5.22388,-0.16008l-11.22389,-17.97583z" fill="#f9f65a" stroke="#000000" stroke-width="0" stroke-linecap="round"/><path d="M245.37417,163.42777l8.11302,11.51235l3.10928,12.17517l-1.73278,-0.04676l-3.30337,-10.31773l-8.91962,-12.23602z" fill="#f9f65a" stroke="#000000" stroke-width="0" stroke-linecap="round"/><path d="M248.46266,161.46189c0.82117,-0.27372 2.86907,-0.43491 2.86907,-0.43491l15.19736,19.70053c0,0 -1.57081,1.64829 -2.22209,2.43195c-0.60624,0.72949 -2.13329,1.71709 -2.13329,1.71709l-15.715,-22.22509c0,0 1.2012,-0.92193 2.00395,-1.18957z" fill="#f9f65a" stroke="#000000" stroke-width="0" stroke-linecap="round"/><path d="M263.70953,174.40016c-0.12148,5.10837 -4.2186,9.15446 -9.15115,9.03716c-4.93255,-0.1173 -8.83271,-4.35356 -8.71123,-9.46193c0.12148,-5.10837 4.2186,-9.15443 9.15115,-9.03714c4.93255,0.1173 8.83271,4.35353 8.71123,9.46191z" fill="#7416b2" stroke="none" stroke-width="0" stroke-linecap="butt"/><path d="M210.07257,173.19436l27.49768,0.6539z" fill="none" stroke="#be7e01" stroke-width="0.3" stroke-linecap="round"/><path d="M232.142,173.85334c-0.11579,4.86929 -4.16523,8.72254 -9.04465,8.60651c-4.87941,-0.11604 -8.74115,-4.15741 -8.62536,-9.0267c0.11579,-4.86929 4.16523,-8.72257 9.04468,-8.60654c4.87941,0.11604 8.74112,4.15744 8.62533,9.02673z" fill="#633fc7" stroke="none" stroke-width="0" stroke-linecap="butt"/><path d="M225.4389,165.28497c0,0 7.40874,3.00823 13.7154,3.04488c6.30666,0.03665 13.66901,-3.17045 13.66901,-3.17045l-1.00225,17.64786c0,0 -6.39237,-2.67654 -12.94368,-2.83233c-6.55131,-0.15579 -14.62559,2.56512 -14.62559,2.56512z" fill="url(#color-5)" stroke="#000000" stroke-width="0" stroke-linecap="round"/><path d="M216.8258,184.4996c0,0 4.6125,1.57444 8.08085,1.39046c4.03016,-0.21379 11.63664,-3.53611 13.72588,-3.7848c1.64503,-0.19584 7.65006,2.49392 12.54027,3.76338c4.23658,1.09981 7.54763,0.79239 7.54763,0.79239c0,0 -2.56094,1.45923 -7.39369,0.60095c-4.80168,-0.85274 -7.28031,-4.79117 -12.50935,-4.76395c-5.22905,0.02722 -6.93077,4.82599 -14.68559,5.08822c-5.8188,0.19679 -7.30599,-3.08666 -7.30599,-3.08666z" fill="#da9700" stroke="#000000" stroke-width="0" stroke-linecap="round"/><path d="M259.92284,181.71803c0,0 -1.04711,0.78322 -1.64503,1.06465c-0.53846,0.25344 -1.78292,0.54864 -1.78292,0.54864l-19.5734,-8.37449l-1.2299,4.20773l-19.91079,-9.59633c0,0 -0.27376,-0.6747 0.97967,-1.98732c1.08882,-1.14027 2.61496,-1.82066 2.61496,-1.82066l12.767,8.2355l0.383,-4.22785l27.39737,11.9501z" fill="url(#color-6)" stroke="#000000" stroke-width="0" stroke-linecap="round"/><path d="M267.99166,177.74373l3.67299,-6.36541c0,0 1.74957,0.25397 2.59281,0.91826c0.84324,0.66429 1.44146,2.25984 1.44146,2.25984l-0.45197,1.08945c0,0 1.17605,0.44222 1.89343,1.17039c0.71741,0.72818 0.08083,1.66038 0.08083,1.66038l-1.77465,3.39203z" fill="none" stroke="#6b0000" stroke-width="1" stroke-linecap="round"/><path d="M228.02761,206.68639c0,0 5.9756,1.11373 9.90838,1.44821c3.93274,0.33448 8.97425,-1.26465 8.97425,-1.26465l2.20421,12.77607l-3.69057,4.50268l-5.63427,-1.96849l-0.1581,-7.13084l-4.26133,0.04885l-0.19882,5.3667l-5.20259,1.96108l-3.9393,-3.82405l1.99814,-11.91562z" fill="#cf7e16" stroke="#772203" stroke-width="0.5" stroke-linecap="round"/><path d="M227.22953,219.71128c0.19814,6.12411 -4.94017,11.26013 -11.47672,11.4716c-6.53655,0.21147 -11.99607,-4.58173 -12.1942,-10.70584c-0.1981,-6.12414 4.94017,-11.26013 11.47672,-11.4716c6.53655,-0.21147 11.99607,4.5817 12.1942,10.70581z" fill="#d30000" stroke="#caebf0" stroke-width="0.35" stroke-linecap="butt"/><path d="M243.68712,216.87129c-1.20565,-0.04161 -2.12229,-1.8346 -2.04739,-4.00478c0.0749,-2.17018 1.11298,-3.89571 2.31862,-3.8541c1.20565,0.04161 2.12232,1.8346 2.04742,4.00478c-0.0749,2.17018 -1.11298,3.89571 -2.31865,3.8541z" fill="#484e42" stroke="none" stroke-width="NaN" stroke-linecap="butt"/><path d="M231.52247,214.70294c-1.20565,-0.04161 -2.12232,-1.8346 -2.04742,-4.00478c0.0749,-2.17018 1.11298,-3.89571 2.31865,-3.8541c1.20565,0.04161 2.12232,1.8346 2.04742,4.00478c-0.0749,2.17018 -1.11298,3.89571 -2.31865,3.8541z" fill="#484e42" stroke="none" stroke-width="NaN" stroke-linecap="butt"/><path d="M205.20701,215.75121c1.86057,-3.03065 4.13291,-2.05836 4.13291,-2.05836c0,0 -2.22093,0.89844 -3.44772,2.72988c-1.22679,1.83143 -1.54906,5.48049 -1.54906,5.48049c0,0 -1.02267,-3.34808 0.86388,-6.15201z" fill="#860000" stroke="#000000" stroke-width="0" stroke-linecap="round"/><path d="M247.47837,205.81174l0.20462,4.20345l-9.40668,4.0466l-8.81028,-3.10167l0.18685,-5.41389z" fill="#2f1b11" stroke="#000000" stroke-width="0" stroke-linecap="round"/><path d="M213.1344,231.17302c-2.36431,0.07649 -4.34025,-1.69345 -4.41335,-3.95327c-0.07311,-2.25983 1.7843,-4.15378 4.14863,-4.23027c2.36431,-0.07649 4.34025,1.69345 4.41335,3.95327c0.07311,2.25979 -1.7843,4.15378 -4.14863,4.23027z" fill="#96b8c8" stroke="#caebf0" stroke-width="0" stroke-linecap="butt"/><path d="M241.75285,210.12767l2.20871,-0.74245l0.55131,2.47502l-2.84469,0.7205z" fill="#c79b28" stroke="#000000" stroke-width="0" stroke-linecap="round"/><path d="M238.64808,213.11324l-4.715,-0.4356c0,0 -5.47645,-3.73711 -6.29698,-4.67449c-0.82053,-0.93738 0.22882,-3.99446 0.22882,-3.99446c0,0 -0.56324,0.6521 1.9893,2.97946c2.20607,2.01147 9.00073,2.76663 9.00073,2.76663z" fill="#b67200" stroke="#efc124" stroke-width="0" stroke-linecap="round"/><path d="M238.64808,213.11324l-4.715,-0.4356c0,0 -5.26031,-2.09233 -6.08085,-3.02972c-0.82053,-0.93738 -0.30377,-4.37666 -0.30377,-4.37666c0,0 0.64602,2.51307 3.52442,3.30532c2.8784,0.79225 7.7821,1.17821 7.7821,1.17821z" fill="#744c1c" stroke="#efc124" stroke-width="0" stroke-linecap="round"/><path d="M236.36755,205.39371l4.72441,0.16305l-0.15992,4.63356l-4.72441,-0.16305z" fill="#e0a01e" stroke="#efc124" stroke-width="0.25" stroke-linecap="butt"/><path d="M234.36485,208.90615l8.20105,0.28304l-0.09644,2.79424l-8.20105,-0.28304z" fill="#fdfe63" stroke="none" stroke-width="0" stroke-linecap="butt"/><path d="M234.33972,209.42982l8.20816,0.28329l-0.17479,5.06461l-8.20816,-0.28329z" fill="#efc224" stroke="none" stroke-width="0" stroke-linecap="butt"/><path d="M234.63476,211.01365l7.16032,0.24712l-0.09644,2.79427l-7.16032,-0.24712z" fill="#fdfe63" stroke="none" stroke-width="0" stroke-linecap="butt"/><path d="M234.66489,210.14043l7.16032,0.24712l-0.09644,2.79427l-7.16032,-0.24712z" fill="#744c1c" stroke="none" stroke-width="0" stroke-linecap="butt"/><path d="M249.29085,202.56507l0.9083,7.94506l-5.97763,1.88583l-0.07809,-8.28024z" fill="#774b21" stroke="#c79b3c" stroke-width="0.25" stroke-linecap="round"/><path d="M246.87366,208.03036c0.57703,0.01991 1.02868,0.50385 1.00876,1.08088c-0.01991,0.57703 -0.50385,1.02868 -1.08088,1.00876c-0.57703,-0.01991 -1.02868,-0.50385 -1.00876,-1.08088c0.01991,-0.57703 0.50385,-1.02868 1.08088,-1.00876z" fill="#4e3414" stroke="none" stroke-width="0" stroke-linecap="butt"/><path d="M224.3939,217.66873l-4.0552,6.554l-2.19615,-0.15042l5.53501,-7.15555z" fill="#ffffff" stroke="#000000" stroke-width="0" stroke-linecap="round"/><path d="M212.74412,232.83954c-2.34701,0.07592 -4.30851,-1.68108 -4.38109,-3.92437c-0.07258,-2.24328 1.77126,-4.12342 4.1183,-4.19934c2.34701,-0.07592 4.30851,1.68108 4.38109,3.92437c0.07258,2.24328 -1.77126,4.12342 -4.1183,4.19934z" fill="#ae7135" stroke="#caebf0" stroke-width="0.35" stroke-linecap="butt"/><path d="M209.54253,226.88764c0,0 1.38859,-1.76932 3.60985,-1.55286c2.33198,0.12341 2.69085,1.8602 2.69085,1.8602c0,0 -1.33541,-1.07012 -2.78414,-1.20812c-1.44872,-0.13803 -3.51653,0.90075 -3.51653,0.90075z" fill="#72502b" stroke="#000000" stroke-width="0" stroke-linecap="round"/><path d="M228.39296,217.78884l0.06624,1.82404" fill="none" stroke="#b66519" stroke-width="0.25" stroke-linecap="round"/><path d="M232.55929,220.26182l-0.07064,-1.94561" fill="none" stroke="#b66519" stroke-width="0.25" stroke-linecap="round"/><path d="M242.41182,219.61493l0.07507,2.06722" fill="none" stroke="#b66519" stroke-width="0.25" stroke-linecap="round"/><path d="M246.13469,219.7408l0.05739,1.58082" fill="none" stroke="#b66519" stroke-width="0.25" stroke-linecap="round"/><path d="M229.63194,203.96462l-6.5533,9.287l-5.20311,8.18543c0,0 -1.47299,-4.74484 -4.56995,-5.40637c-3.12514,-0.66754 -7.28182,1.88098 -7.28182,1.88098c0,0 -0.38561,-8.33035 0.01162,-9.84078c0.39723,-1.51043 4.02792,-2.64933 4.02792,-2.64933l9.03326,-9.85746" data-paper-data="{&quot;index&quot;:null}" fill="#b64404" stroke="#6b0000" stroke-width="0.5" stroke-linecap="round"/><path d="M213.0848,208.47814l1.80204,0.06219l-2.93769,4.32714l4.19176,-2.64365l-0.43508,3.10134l3.50818,-1.84715l0.41799,2.14669l2.63815,-0.40103l0.03942,3.6098l-3.50265,6.4399l-1.49138,0.44061c0,0 -0.86639,-4.92256 -4.22537,-5.88653c-3.35898,-0.964 -8.1179,2.34414 -8.1179,2.34414c0,0 0.91003,-9.56939 2.38431,-12.05519c1.47432,-2.48581 5.82501,-3.4141 5.82501,-3.4141z" fill="#cf7d14" stroke="#000000" stroke-width="0" stroke-linecap="round"/><path d="M220.09698,195.45282l10.97464,8.42917l-6.21034,8.80188c0,0 -3.62961,-1.07081 -5.32592,-2.46925c-2.19103,-1.80628 -6.72004,-7.46148 -6.72004,-7.46148z" fill="url(#color-7)" stroke="#000000" stroke-width="0" stroke-linecap="round"/><path d="M215.30831,200.67994c0,0 2.87868,3.85461 5.56619,5.90618c2.68752,2.05157 6.592,2.32572 6.592,2.32572l-4.1405,5.27045c0,0 -4.69462,-0.95155 -6.89525,-2.86071c-2.20063,-1.90915 -4.64889,-7.15446 -4.64889,-7.15446z" fill="#e8ba2c" stroke="#000000" stroke-width="0" stroke-linecap="round"/><path d="M213.5488,207.48879c1.23037,-1.4288 2.08609,-3.30848 3.58009,-4.5728c0.64894,0.74775 1.42056,1.58695 2.22805,2.35765c-1.21923,1.95881 -2.5136,3.59804 -3.48109,5.50492c-0.81729,-0.88468 -1.63765,-2.12338 -2.32706,-3.28977z" fill="#fcea5a" stroke="#000000" stroke-width="0" stroke-linecap="butt"/><path d="M214.80712,166.04919l5.28515,-11.10798c0,0 5.79635,-9.76501 7.75983,-11.18239c1.96348,-1.41738 11.27468,-9.245 11.27468,-9.245l0.16413,12.20902c0,0 7.10247,-11.64797 10.97812,-15.24681c2.5243,-2.34401 7.91796,-4.31794 7.91796,-4.31794c0,0 0.55396,6.66334 0.54497,10.04442c-0.0092,3.46205 -0.59943,10.49068 -0.59943,10.49068l7.86781,-2.44876l1.88227,7.58911c0,0 0.83588,3.452 0.84969,6.30931c0.01538,3.17662 -0.33432,19.77721 -0.33432,19.77721c0,0 6.23443,-1.15406 7.51023,2.90991c1.2758,4.06398 0.11081,11.30243 -3.05289,15.18665c-2.29583,2.81873 -6.28551,1.12111 -6.28551,1.12111c0,0 -8.22857,8.18894 -26.43547,9.13963c-13.76272,0.71869 -26.22278,-7.04769 -26.22278,-7.04769c0,0 -3.49614,0.79438 -6.01853,-0.61485c-3.17344,-1.77293 -6.42885,-9.18698 -5.04888,-16.02202c0.55064,-2.72726 6.94764,-2.39428 6.94764,-2.39428z" fill="none" stroke="#6b0000" stroke-width="1" stroke-linecap="round"/><path d="M214.80712,166.04919l5.28515,-11.10798c0,0 5.79635,-9.76501 7.75983,-11.18239c1.96348,-1.41738 11.27468,-9.245 11.27468,-9.245l0.16413,12.20902c0,0 7.10247,-11.64797 10.97812,-15.24681c2.5243,-2.34401 7.91796,-4.31794 7.91796,-4.31794c0,0 0.55396,6.66334 0.54497,10.04442c-0.0092,3.46205 -0.59943,10.49068 -0.59943,10.49068l7.86781,-2.44876l1.88227,7.58911c0,0 0.83588,3.452 0.84969,6.30931c0.01538,3.17662 -0.33432,19.77721 -0.33432,19.77721c0,0 6.23443,-1.15406 7.51023,2.90991c1.2758,4.06398 0.11081,11.30243 -3.05289,15.18665c-2.29583,2.81873 -6.28551,1.12111 -6.28551,1.12111c0,0 -8.22857,8.18894 -26.43547,9.13963c-13.76272,0.71869 -26.22278,-7.04769 -26.22278,-7.04769c0,0 -3.49614,0.79438 -6.01853,-0.61485c-3.17344,-1.77293 -6.42885,-9.18698 -5.04888,-16.02202c0.55064,-2.72726 7.14411,-2.3875 7.14411,-2.3875z" fill="#b53406" stroke="#6b0000" stroke-width="0" stroke-linecap="round"/><path d="M232.32098,170.56479c0,0 1.75847,-5.4839 4.11554,-8.54859c3.13156,-4.07166 13.01931,-13.73037 13.01931,-13.73037c0,0 -5.24712,10.15724 -6.38312,14.41636c-0.89437,3.35332 0.117,9.077 0.117,9.077z" fill="#a02802" stroke="#000000" stroke-width="0" stroke-linecap="round"/><path d="M234.29954,141.10096c0,0 -5.30623,9.78369 -6.74731,13.69102c-1.07076,2.90331 -1.12303,7.64879 -1.12303,7.64879l-8.5707,-0.92526c0,0 2.37958,-5.49548 4.7565,-8.44684c2.97017,-3.688 11.68454,-11.96771 11.68454,-11.96771z" fill="#a02802" stroke="#000000" stroke-width="0" stroke-linecap="round"/><path d="M252.80348,170.85207l6.0347,-16.78712l0.54171,8.62129l3.77263,-12.03932l0.12221,20.77637z" fill="#a02802" stroke="#000000" stroke-width="0" stroke-linecap="round"/><path d="M249.61306,138.44712c-1.4612,2.26535 -3.04536,6.38191 -3.04536,6.38191l1.68399,-6.23647l-6.05603,5.24632c0,0 3.66008,-5.32448 6.02813,-7.67272c2.26182,-2.24288 7.87619,-6.11517 7.87619,-6.11517c0,0 -4.80254,5.78478 -6.48692,8.39612z" fill="#a02802" stroke="#000000" stroke-width="0" stroke-linecap="round"/><path d="M267.16547,193.82506l1.52979,-10.37167c0,0 3.63374,-0.96034 4.07474,0.95748c0.44106,1.91783 0.02714,6.11966 -1.75758,9.11748c-1.78472,2.99786 -3.84698,0.29671 -3.84698,0.29671z" data-paper-data="{&quot;index&quot;:null}" fill="#cd7d10" stroke="#8a2b01" stroke-width="0.25" stroke-linecap="round"/><path d="M262.4333,197.61037l3.8051,9.29911c0,0 2.17754,2.18995 2.20948,3.95907c0.03195,1.76913 -1.89435,13.49795 -1.89435,13.49795l-8.45223,-1.20811l-1.50547,-2.47871l-2.73688,1.95497l-3.50221,-0.87572l0.76227,-10.38208l-2.36095,-8.17079" fill="#b64404" stroke="#6b0000" stroke-width="0.5" stroke-linecap="round"/><path d="M254.71506,213.44228l2.73688,-1.955l1.89,3.05821l1.10137,-3.79102l2.17696,4.11972l-1.1461,-5.0819l2.24934,0.45502l1.61405,-3.01835l2.20945,3.95907l-2.05315,12.62961l-6.20107,-1.58894l-2.37198,-3.1557l-2.19174,2.56698l-3.37401,-0.68252l0.37597,-10.12575z" fill="#cf7d14" stroke="#000000" stroke-width="0" stroke-linecap="round"/><path d="M265.76281,205.4505c0,0 -6.10107,3.90767 -8.75503,4.91747c-0.91485,0.34805 -7.02466,0.91614 -7.02466,0.91614l-2.79797,-10.35971l14.01629,-4.72113z" data-paper-data="{&quot;index&quot;:null}" fill="url(#color-8)" stroke="#000000" stroke-width="0" stroke-linecap="round"/><path d="M266.88932,208.16726c0,0 -4.02649,3.76337 -7.25857,4.82013c-3.23208,1.05676 -8.22036,0.24082 -8.22036,0.24082l-2.6443,-5.00803c0,0 5.24161,-0.47352 8.69936,-1.67208c3.45775,-1.19856 6.26426,-5.06427 6.26426,-5.06427z" fill="#e8ba2c" stroke="#000000" stroke-width="0" stroke-linecap="round"/><path d="M211.57571,195.15927c0,0 -2.03171,2.56628 -3.55316,-0.53461c-1.52149,-3.10085 -1.71866,-7.31764 -1.22467,-9.20319c0.49399,-1.88555 3.81997,-0.70229 3.81997,-0.70229l0.95784,10.44006z" data-paper-data="{&quot;index&quot;:null}" fill="#cd7d10" stroke="#8a2b01" stroke-width="0.25" stroke-linecap="round"/><path d="M265.84874,196.45601c0,0 -5.72895,10.89278 -26.15577,11.21542c-19.24764,0.30401 -28.254,-13.17706 -28.254,-13.17706l0.06297,-9.35694c0,0 0.45185,-4.24578 9.09886,-4.41652c15.3902,-1.42866 19.65557,11.61283 19.65557,11.61283c0,0 3.01145,-11.36777 20.08881,-12.95294c4.12509,-0.38292 7.43289,1.84437 7.43289,1.84437z" fill="url(#color-9)" stroke="#8a2b01" stroke-width="0.5" stroke-linecap="round"/><path d="M233.61065,201.79695c-1.91947,3.79183 -6.86973,4.71385 -11.0568,2.05935c-4.18707,-2.65454 -6.02529,-7.88036 -4.10582,-11.67226c1.91947,-3.79183 6.86973,-4.71385 11.0568,-2.05935c4.18707,2.65454 6.02529,7.88036 4.10582,11.67226z" fill="#ffffff" stroke="#954116" stroke-width="0" stroke-linecap="butt"/><path d="M250.07976,189.6255c4.23338,-2.81915 9.31408,-2.09309 11.34813,1.62177c2.03405,3.7148 0.25109,9.01166 -3.98232,11.83081c-4.23338,2.81915 -9.31411,2.09309 -11.34813,-1.62174c-2.03405,-3.7148 -0.25109,-9.01169 3.98232,-11.83091z" data-paper-data="{&quot;index&quot;:null}" fill="#ffffff" stroke="#954116" stroke-width="0" stroke-linecap="butt"/><path d="M255.64367,188.26028l-7.74556,2.33464l-1.0289,-5.43363l8.29256,-2.70666z" data-paper-data="{&quot;index&quot;:null}" fill="#8d4f11" stroke="#602a0d" stroke-width="0" stroke-linecap="round"/><path d="M225.43172,182.79242l8.08622,3.27193l-1.40107,5.34979l-7.5662,-2.86313z" data-paper-data="{&quot;index&quot;:null}" fill="#8d4f11" stroke="#602a0d" stroke-width="0" stroke-linecap="round"/><path d="M249.09812,195.05303c1.29405,-0.03116 2.35222,1.51578 2.36353,3.45525c0.01128,1.93944 -1.02858,3.53693 -2.32263,3.56809c-1.29405,0.03116 -2.35222,-1.51578 -2.36353,-3.45525c-0.01128,-1.93944 1.02858,-3.53693 2.32263,-3.56809z" data-paper-data="{&quot;index&quot;:null}" fill="#df6500" stroke="none" stroke-width="0" stroke-linecap="butt"/><path d="M249.09433,195.16283c1.79405,0.01005 2.01671,1.8809 2.01671,1.8809l-4.08503,0.12952c0,0 0.27713,-2.10309 2.0683,-2.01043z" data-paper-data="{&quot;index&quot;:null}" fill="#8b2900" stroke="none" stroke-width="0" stroke-linecap="butt"/><path d="M229.28877,196.00129c1.5149,-0.02139 2.7645,1.48891 2.79108,3.37332c0.02655,1.88442 -1.17994,3.4293 -2.69484,3.45069c-1.5149,0.02139 -2.76453,-1.48888 -2.79111,-3.37329c-0.02655,-1.88442 1.17997,-3.42933 2.69487,-3.45069z" data-paper-data="{&quot;index&quot;:null}" fill="#df6500" stroke="none" stroke-width="0" stroke-linecap="butt"/><path d="M229.28509,196.10795c2.10062,0.02214 2.37419,1.84134 2.37419,1.84134l-4.78201,0.09773c0,0 0.30999,-2.0414 2.40782,-1.93907z" data-paper-data="{&quot;index&quot;:null}" fill="#8b2900" stroke="none" stroke-width="0" stroke-linecap="butt"/><path d="M238.67511,188.15486c-20.74537,-0.13587 -28.18914,-3.45761 -27.79068,-15.0029c0.39846,-11.54529 14.36033,-21.23885 29.82801,-20.70502c15.46772,0.53383 27.38799,11.12066 26.98953,22.66595c-0.39846,11.54529 -10.41746,13.16386 -29.02689,13.04197z" fill="#efc224" stroke="#f6e143" stroke-width="0.25" stroke-linecap="butt"/><path d="M239.17371,185.22922c-18.40565,-0.82655 -23.96648,-5.29955 -23.66555,-14.01904c0.26314,-7.6244 8.72809,-13.36625 19.75645,-14.38086c0.61438,-0.05653 1.86604,-0.12507 1.86604,-0.12507l2.48718,3.99509l2.57656,-3.88375c0,0 1.2835,0.12672 1.91254,0.2127c11.39967,1.55834 19.91305,8.00899 19.64254,15.84681c-0.30093,8.71952 -5.89992,13.19278 -24.57576,12.3541z" fill="#54574b" stroke="#f6e143" stroke-width="0.25" stroke-linecap="butt"/><path d="M268.38393,174.78818l-27.60798,-0.78139c0,0 -0.01198,-0.61684 -0.00122,-0.92865c0.25301,-7.33104 6.64944,-13.06028 14.28679,-12.79669c7.63735,0.26359 13.62359,6.42018 13.37058,13.75122c-0.00876,0.25384 -0.04817,0.75551 -0.04817,0.75551z" data-paper-data="{&quot;index&quot;:null}" fill="#d89400" stroke="none" stroke-width="0" stroke-linecap="butt"/><path d="M267.99166,177.74373l3.67299,-6.36541c0,0 1.74957,0.25397 2.59281,0.91826c0.84324,0.66429 1.44146,2.25984 1.44146,2.25984l-0.45197,1.08945c0,0 1.17605,0.44222 1.89343,1.17039c0.71741,0.72818 0.08083,1.66038 0.08083,1.66038l-1.77465,3.39203z" fill="#c79b40" stroke="#000000" stroke-width="0" stroke-linecap="round"/><path d="M271.05412,177.94205c-1.40966,-1.01264 -2.24349,-2.32428 -1.86239,-2.9297c0.3811,-0.60542 1.83285,-0.27527 3.24255,0.73737c1.40966,1.01264 2.24353,2.32428 1.86239,2.9297c-0.3811,0.60542 -1.83289,0.27527 -3.24255,-0.73737z" fill="#9ecef3" stroke="none" stroke-width="0" stroke-linecap="butt"/><path d="M273.54061,180.22628c-1.19483,-0.85831 -1.90159,-1.97006 -1.57853,-2.48318c0.32303,-0.51313 1.5535,-0.23332 2.74833,0.62498c1.19483,0.85831 1.90159,1.97006 1.57853,2.48318c-0.32303,0.51313 -1.5535,0.23332 -2.74833,-0.62498z" fill="#9ecef3" stroke="none" stroke-width="0" stroke-linecap="butt"/><path d="M270.62953,178.84534c-1.40966,-1.01264 -2.24349,-2.32428 -1.86239,-2.9297c0.3811,-0.60542 1.83285,-0.27527 3.24255,0.73737c1.40966,1.01264 2.24352,2.32432 1.86239,2.9297c-0.3811,0.60542 -1.83289,0.27527 -3.24255,-0.73737z" fill="#95763f" stroke="none" stroke-width="0" stroke-linecap="butt"/><path d="M273.11602,181.1296c-1.19483,-0.85831 -1.90159,-1.97006 -1.57853,-2.48318c0.32303,-0.51313 1.5535,-0.23332 2.74833,0.62498c1.19483,0.85831 1.90159,1.97003 1.57853,2.48315c-0.32303,0.51313 -1.5535,0.23335 -2.74833,-0.62495z" fill="#95763f" stroke="none" stroke-width="0" stroke-linecap="butt"/><path d="M268.99736,176.28231c0,0 1.42151,0.42211 2.68512,1.41428c0.89351,0.70156 1.1029,2.34192 1.1029,2.34192c0,0 1.07752,0.4211 1.4789,0.68985c0.39594,0.2651 1.15722,1.44483 1.15722,1.44483l-6.8506,11.14227l-7.52972,-5.13214z" fill="#744c20" stroke="#000000" stroke-width="0" stroke-linecap="round"/><path d="M262.88701,190.77389c-1.51129,-1.01614 -2.40696,-2.32992 -2.00052,-2.93447c0.40644,-0.60454 1.96114,-0.27084 3.47243,0.74531c1.51129,1.01614 2.40696,2.32996 2.00052,2.93447c-0.40644,0.60454 -1.96114,0.27084 -3.47243,-0.74531z" fill="#95763f" stroke="none" stroke-width="0" stroke-linecap="butt"/><path d="M265.55394,193.06438c-1.28097,-0.86128 -2.04009,-1.97484 -1.69559,-2.48722c0.3445,-0.51239 1.6622,-0.22957 2.94317,0.63171c1.28097,0.86128 2.04009,1.97481 1.69559,2.48719c-0.3445,0.51239 -1.66221,0.2296 -2.94317,-0.63168z" fill="#95763f" stroke="none" stroke-width="0" stroke-linecap="butt"/><path d="M262.76688,191.34998c-1.3515,-0.90872 -2.15247,-2.08358 -1.789,-2.62421c0.36348,-0.54062 1.75375,-0.24221 3.10525,0.66651c1.3515,0.90872 2.15247,2.08358 1.789,2.62421c-0.36348,0.54062 -1.75375,0.24221 -3.10525,-0.66651z" fill="#402c11" stroke="none" stroke-width="0" stroke-linecap="butt"/><path d="M265.15183,193.39828c-1.1455,-0.77021 -1.82441,-1.76603 -1.51633,-2.22425c0.30807,-0.45822 1.48647,-0.2053 2.63197,0.56491c1.1455,0.77021 1.82437,1.76603 1.5163,2.22422c-0.30807,0.45822 -1.48644,0.2053 -2.63197,-0.56491z" fill="#402c11" stroke="none" stroke-width="0" stroke-linecap="butt"/><path d="M268.34591,175.80615c-0.17465,5.06049 -3.88569,11.30527 -13.63126,11.97484c-7.98376,0.54852 -9.29901,-4.84844 -14.9132,-4.98127c-8.20692,-0.19417 -10.04326,6.90742 -19.24441,4.2101c-6.83822,-2.0046 -10.83915,-9.61477 -10.71462,-13.22278c0.01076,-0.31181 0.1023,-0.92511 0.1023,-0.92511l58.38052,2.1863c0,0 0.02934,0.50408 0.02058,0.75792z" fill="#efc524" stroke="none" stroke-width="0" stroke-linecap="butt"/><path d="M268.42384,174.27217l-27.83589,-0.96069z" fill="none" stroke="#be7e01" stroke-width="0.3" stroke-linecap="round"/><path d="M237.59013,174.31039l-27.60795,-0.78139c0,0 -0.01201,-0.61684 -0.00125,-0.92865c0.25301,-7.33104 6.64944,-13.06031 14.28682,-12.79672c7.63735,0.26359 13.62356,6.42021 13.37055,13.75125c-0.00876,0.25384 -0.04814,0.75551 -0.04814,0.75551z" data-paper-data="{&quot;index&quot;:null}" fill="#d89400" stroke="none" stroke-width="0" stroke-linecap="butt"/><path d="M220.56654,169.2683l-9.63705,-0.78156c0,0 2.53041,-7.63956 13.88119,-8.58161c3.46184,-0.28731 8.8316,4.72452 13.82168,4.83823c7.44505,0.16964 11.80086,-5.88593 18.24436,-4.37964c8.98523,2.10048 11.13507,10.34011 11.13507,10.34011l-11.62263,0.33968c0,0 -3.9256,-1.25724 -18.56645,-1.70916c-14.64089,-0.45192 -17.2561,-0.06605 -17.2561,-0.06605z" fill="#efc224" stroke="#f6e143" stroke-width="0.125" stroke-linecap="round"/><path d="M215.06287,163.58226l14.44306,22.47798l-2.21114,0.88931l-14.27632,-21.51331z" fill="#f9f65a" stroke="#000000" stroke-width="0" stroke-linecap="round"/><path d="M221.72502,160.11022l12.6219,19.97425l-5.28774,-0.21881l-11.16965,-18.32344z" fill="#f9f65a" stroke="#000000" stroke-width="0" stroke-linecap="round"/><path d="M245.64508,163.3278l8.08989,11.74502l3.01612,12.36183l-1.75403,-0.06617l-3.23282,-10.48317l-8.89877,-12.48652z" fill="#f9f65a" stroke="#000000" stroke-width="0" stroke-linecap="round"/><path d="M248.7937,161.37077c0.83445,-0.26824 2.90982,-0.40922 2.90982,-0.40922l15.17429,20.11294c0,0 -1.60844,1.65193 -2.2764,2.43836c-0.62177,0.73207 -2.17872,1.71549 -2.17872,1.71549l-15.67102,-22.67483c0,0 1.22629,-0.92047 2.04203,-1.18275z" fill="#f9f65a" stroke="#000000" stroke-width="0" stroke-linecap="round"/><path d="M264.09155,174.63708c-0.17847,5.1712 -4.37098,9.22362 -9.36419,9.05129c-4.99322,-0.17233 -8.89636,-4.50414 -8.71789,-9.67535c0.17847,-5.1712 4.37098,-9.22359 9.36419,-9.05126c4.99322,0.17233 8.89636,4.50411 8.71789,9.67532z" fill="#484e42" stroke="none" stroke-width="0" stroke-linecap="butt"/><path d="M237.63,173.79441l-27.83589,-0.96069z" fill="none" stroke="#be7e01" stroke-width="0.3" stroke-linecap="round"/><path d="M232.13354,173.74061c-0.17012,4.92918 -4.31225,8.78685 -9.25168,8.61637c-4.93943,-0.17047 -8.80578,-4.30453 -8.63566,-9.23371c0.17012,-4.92918 4.31225,-8.78688 9.25171,-8.6164c4.93943,0.17047 8.80574,4.30456 8.63563,9.23375z" fill="#635e59" stroke="none" stroke-width="0" stroke-linecap="butt"/><path d="M225.43929,164.99186c0,0 7.46912,3.12644 13.85458,3.23204c6.38546,0.1056 13.87509,-3.06184 13.87509,-3.06184l-1.20647,17.8586c0,0 -6.44358,-2.77956 -13.07547,-3.00845c-6.63189,-0.22888 -14.83711,2.43852 -14.83711,2.43852z" fill="url(#color-10)" stroke="#000000" stroke-width="0" stroke-linecap="round"/><path d="M216.50939,184.35426c0,0 4.65334,1.6443 8.16723,1.49566c4.08309,-0.17271 11.82117,-3.45416 13.93934,-3.68329c1.66781,-0.18044 7.71905,2.60831 12.65688,3.94681c4.27785,1.15962 7.63381,0.8843 7.63381,0.8843c0,0 -2.60894,1.44974 -7.49306,0.52822c-4.85272,-0.91559 -7.31971,-4.93038 -12.61472,-4.9596c-5.29501,-0.02922 -7.07021,4.81133 -14.92526,4.99266c-5.89401,0.13608 -7.36422,-3.20475 -7.36422,-3.20475z" fill="#da9700" stroke="#000000" stroke-width="0" stroke-linecap="round"/><path d="M260.17785,182.00572c0,0 -1.06876,0.78169 -1.67724,1.06016c-0.54798,0.25078 -1.81127,0.53617 -1.81127,0.53617l-19.72826,-8.69219l-1.29103,4.24722l-20.05663,-9.93305c0,0 -0.26987,-0.68614 1.01355,-2.00163c1.11487,-1.14277 2.66757,-1.81513 2.66757,-1.81513l12.8379,8.47755l0.43372,-4.27678l27.61166,12.39765z" fill="#95948b" stroke="#000000" stroke-width="0" stroke-linecap="round"/><path d="M261.37021,204.06302c1.44643,1.7126 2.77937,3.46819 4.07508,5.35036c-1.08658,0.88743 -2.65094,2.0629 -4.2114,2.8799c-1.28353,-1.82919 -2.0676,-4.03201 -3.22595,-5.95662c1.2654,-0.54698 2.42376,-1.41884 3.36223,-2.27364z" fill="#fcea5a" stroke="#000000" stroke-width="0" stroke-linecap="butt"/></g></g></svg>