<svg version="1.1" xmlns="http://www.w3.org/2000/svg" xmlns:xlink="http://www.w3.org/1999/xlink" width="38.68384" height="14.10309" viewBox="0,0,38.68384,14.10309"><defs><radialGradient cx="264.05606" cy="180.62085" r="18.73973" gradientUnits="userSpaceOnUse" id="color-1"><stop offset="0" stop-color="#66ff85"/><stop offset="1" stop-color="#66ff85" stop-opacity="0"/></radialGradient></defs><g transform="translate(-245.31634,-173.56931)"><g data-paper-data="{&quot;isPaintingLayer&quot;:true}" fill-rule="nonzero" stroke="none" stroke-linecap="butt" stroke-linejoin="miter" stroke-miterlimit="10" stroke-dasharray="" stroke-dashoffset="0" style="mix-blend-mode: normal"><path d="M282.79579,180.62085c0,3.89446 -8.39006,7.05155 -18.73973,7.05155c-10.34966,0 -18.73973,-3.15708 -18.73973,-7.05155c0,-3.89446 8.39006,-7.05155 18.73973,-7.05155c10.34966,0 18.73973,3.15708 18.73973,7.05155z" fill="url(#color-1)" stroke-width="0"/><path d="M249.83124,181.47068c-0.03748,-0.14705 -0.03762,-0.27193 -0.01401,-0.37758c-0.04647,-0.03199 -0.09263,-0.06428 -0.13845,-0.09686c0,0 -0.60928,-0.43734 -0.17194,-1.04663c0.43734,-0.60928 1.04664,-0.17194 1.04664,-0.17194c0.28267,0.20526 0.5808,0.39785 0.89243,0.57873c0.17013,-0.00888 0.34024,-0.01777 0.51037,-0.02665c6.16271,-0.32181 12.43723,-1.26417 18.57933,-0.70499c1.46613,-0.06716 3.82592,-0.28203 5.27418,-0.01144c0.50876,0.09505 1.25946,0.05739 1.45736,0.53562c0.41686,1.00744 -1.39775,2.21693 -2.04667,2.61345c-3.2018,1.95642 -5.66278,2.71675 -9.4494,2.28736c-4.43935,-0.50397 -10.40556,-0.96568 -14.61369,-3.15545l-0.41413,0.11791c0,0 -0.72677,0.18524 -0.912,-0.54153z" fill="#040201" stroke-width="0.5"/><path d="M277.94675,180.03738c-0.14371,0.73611 -0.87982,0.59238 -0.87982,0.59238l-0.43578,-0.08732c-0.16359,0.02164 -0.2957,-0.00079 -0.40208,-0.04779c-2.33722,-0.25145 -4.53372,-0.35189 -6.89807,-0.22842c-5.55941,0.2903 -11.61949,1.59259 -17.15568,0.45358l-0.01739,0.15328l-1.47819,-0.16771c-0.36382,-0.03477 -0.65704,-0.33156 -0.67667,-0.7075c-0.0145,-0.27761 0.12387,-0.52782 0.34149,-0.66891l0.6245,-0.42048l0.01009,0.01498l0.033,-0.04191c3.71122,-1.82973 8.08796,-2.32224 12.14197,-2.55806c5.18655,-0.93275 12.368,-4.23392 14.01913,2.79944l0.18112,0.03461c0,0 0.73611,0.14372 0.59239,0.87982z" fill="#323332" stroke-width="0.5"/><path d="M247.07012,182.62424c-0.09895,-0.17962 -0.10842,-0.36109 -0.10842,-0.36109l-0.03402,-0.73941c0.02277,-0.38235 0.04554,-0.76468 0.06831,-1.14703c-0.12277,-2.29353 -1.21798,-7.61431 2.78482,-6.33803c1.24805,0.39794 3.69846,2.58695 3.40657,3.97392c-0.13444,0.63884 -5.04791,3.57782 -4.27139,3.21347c1.05279,0.45943 4.48538,1.42656 4.63998,2.76513c0.18338,1.5876 -4.86771,4.05594 -6.07855,3.28421c-0.61721,-0.39339 -0.51321,-2.83712 -0.40731,-4.65117z" fill="#a0fffa" stroke-width="0.5"/><path d="M283.99914,179.53918c0.0216,0.41366 -0.29622,0.76649 -0.70987,0.78809l-0.78776,0.04113c-0.79609,0.04157 -1.59035,0.03663 -2.38251,0.04026c-0.83402,0.24411 -1.68743,0.44522 -2.21504,0.31829c-0.11984,-0.02883 -0.23579,-0.06446 -0.34643,-0.10654c-0.10033,0.02532 -0.21908,0.02988 -0.35932,0.0025c-0.54842,-0.10708 -0.60847,-0.54296 -0.60345,-0.75827c-0.25617,-0.45768 -0.21148,-1.05744 0.3428,-1.7476c0.24997,-0.31124 0.77478,-0.09223 1.19292,-0.07745c1.04486,-0.29173 2.37467,-0.04405 3.55487,0.34195l0.00907,-0.12548l1.04728,0.07573c0.30993,0.0179 0.57333,0.2257 0.66819,0.51353c0.32235,0.07005 0.57118,0.34858 0.58921,0.69387z" fill="#bbb8bb" stroke-width="0.5"/></g></g></svg>