<svg version="1.1" xmlns="http://www.w3.org/2000/svg" xmlns:xlink="http://www.w3.org/1999/xlink" width="204.18374" height="162.55849" viewBox="0,0,204.18374,162.55849"><defs><radialGradient cx="209.12849" cy="183.63147" r="5.13591" gradientUnits="userSpaceOnUse" id="color-1"><stop offset="0" stop-color="#b34900"/><stop offset="1" stop-color="#a03900"/></radialGradient><linearGradient x1="231.55389" y1="151.90485" x2="231.56589" y2="157.65455" gradientUnits="userSpaceOnUse" id="color-2"><stop offset="0" stop-color="#c74600"/><stop offset="1" stop-color="#e25e00"/></linearGradient><linearGradient x1="147.01132" y1="168.5338" x2="181.10363" y2="168.46271" gradientUnits="userSpaceOnUse" id="color-3"><stop offset="0" stop-color="#4c4540"/><stop offset="1" stop-color="#3f3a35"/></linearGradient><linearGradient x1="148.33793" y1="199.19623" x2="182.43024" y2="199.12513" gradientUnits="userSpaceOnUse" id="color-4"><stop offset="0" stop-color="#4c4540"/><stop offset="1" stop-color="#3f3a35"/></linearGradient><linearGradient x1="139.28694" y1="184.37547" x2="185.28542" y2="184.27954" gradientUnits="userSpaceOnUse" id="color-5"><stop offset="0" stop-color="#4c4540"/><stop offset="1" stop-color="#3f3a35"/></linearGradient><radialGradient cx="313.08401" cy="183.96105" r="17.98095" gradientUnits="userSpaceOnUse" id="color-6"><stop offset="0" stop-color="#ffe0a9"/><stop offset="1" stop-color="#ffe0a9" stop-opacity="0"/></radialGradient><radialGradient cx="312.87986" cy="182.95131" r="13.19949" gradientUnits="userSpaceOnUse" id="color-7"><stop offset="0" stop-color="#fffffd"/><stop offset="1" stop-color="#fffffd" stop-opacity="0"/></radialGradient><radialGradient cx="307.96583" cy="183.97172" r="16.76875" gradientUnits="userSpaceOnUse" id="color-8"><stop offset="0" stop-color="#ff9afa"/><stop offset="1" stop-color="#ff9afa" stop-opacity="0"/></radialGradient><radialGradient cx="307.96583" cy="183.97172" r="16.76875" gradientUnits="userSpaceOnUse" id="color-9"><stop offset="0" stop-color="#ff9afa"/><stop offset="1" stop-color="#ff9afa" stop-opacity="0"/></radialGradient><radialGradient cx="308.90556" cy="182.4882" r="12.72807" gradientUnits="userSpaceOnUse" id="color-10"><stop offset="0" stop-color="#fffffd"/><stop offset="1" stop-color="#fffffd" stop-opacity="0"/></radialGradient><radialGradient cx="311.66907" cy="183.6273" r="13.26684" gradientUnits="userSpaceOnUse" id="color-11"><stop offset="0" stop-color="#fffffd"/><stop offset="1" stop-color="#fffffd" stop-opacity="0"/></radialGradient><radialGradient cx="311.66907" cy="183.6273" r="13.26684" gradientUnits="userSpaceOnUse" id="color-12"><stop offset="0" stop-color="#fffffd"/><stop offset="1" stop-color="#fffffd" stop-opacity="0"/></radialGradient><radialGradient cx="311.66907" cy="183.6273" r="13.26684" gradientUnits="userSpaceOnUse" id="color-13"><stop offset="0" stop-color="#fffffd"/><stop offset="1" stop-color="#fffffd" stop-opacity="0"/></radialGradient><radialGradient cx="311.66907" cy="183.6273" r="13.26684" gradientUnits="userSpaceOnUse" id="color-14"><stop offset="0" stop-color="#fffffd"/><stop offset="1" stop-color="#fffffd" stop-opacity="0"/></radialGradient></defs><g transform="translate(-138.21971,-102.24291)"><g data-paper-data="{&quot;isPaintingLayer&quot;:true}" fill-rule="nonzero" stroke-linejoin="miter" stroke-miterlimit="10" stroke-dasharray="" stroke-dashoffset="0" style="mix-blend-mode: normal"><path d="M270.5281,203.22141l-16.16862,0.03362l-0.08097,-38.93668l16.16862,-0.03362z" fill="#1a1919" stroke="#330d42" stroke-width="1" stroke-linecap="butt"/><path d="M312.35564,140.5712l-22.17876,5.05135l-0.92616,-0.76811l13.85542,-6.18901l-7.16061,-13.58866l12.00763,-5.54349l14.03352,15.88442z" data-paper-data="{&quot;index&quot;:null}" fill="none" stroke="#330d42" stroke-width="1.5" stroke-linecap="round"/><path d="M278.00502,145.4982l-12.29277,8.81933l9.44441,-12.33086z" fill="none" stroke="#330d42" stroke-width="1.5" stroke-linecap="round"/><path d="M275.59905,224.37584l-9.35906,-11.61521l12.46388,8.36183z" fill="none" stroke="#330d42" stroke-width="1.5" stroke-linecap="round"/><path d="M272.29009,194.61949l17.08312,17.68704l-1.07524,3.38443l-20.59916,-17.00328z" fill="none" stroke="#330d42" stroke-width="1.5" stroke-linecap="round"/><path d="M266.0116,168.11623l20.26201,-14.92388l-3.90611,8.26068l-11.20738,10.30522z" fill="none" stroke="#330d42" stroke-width="1.5" stroke-linecap="round"/><path d="M257.33587,159.80932l25.39294,-19.05601l6.7368,10.27332l-23.3953,17.76594z" data-paper-data="{&quot;index&quot;:null}" fill="none" stroke="#330d42" stroke-width="1.5" stroke-linecap="round"/><path d="M266.61622,198.55466l22.22205,16.72932l-6.33817,9.75391l-24.11859,-17.94295z" fill="none" stroke="#330d42" stroke-width="1.5" stroke-linecap="round"/><path d="M284.65424,220.02776l5.54337,-1.63501l14.35452,6.73445l-11.86181,20.85901l-19.77248,-9.83477l-0.14178,-3.11131z" fill="none" stroke="#330d42" stroke-width="1.5" stroke-linecap="round"/><path d="M290.92861,244.55551l-0.94305,1.896l-17.46867,-7.94553l-0.00575,-2.76115z" fill="none" stroke="#330d42" stroke-width="1.5" stroke-linecap="round"/><path d="M272.65291,238.85776l-1.08427,-0.94476l-1.90079,-3.24293l-1.28801,-7.19691l4.80208,5.56614z" fill="none" stroke="#330d42" stroke-width="1.5" stroke-linecap="round"/><path d="M284.81578,220.10892l-2.47186,-5.08198l7.57043,-2.72154l5.82186,2.15247l0.0093,4.46447l-4.87111,-0.36472z" fill="none" stroke="#330d42" stroke-width="1.5" stroke-linecap="round"/><path d="M268.29975,227.3674l14.31362,-12.88216l2.31088,5.2714l-11.74232,13.28267z" fill="none" stroke="#330d42" stroke-width="1.5" stroke-linecap="round"/><path d="M323.90523,228.46902l-14.30544,16.80549l-12.32324,-5.79167l7.27559,-14.35565l-14.21867,-6.46416l0.94532,-0.8137l22.73921,5.2288z" fill="none" stroke="#330d42" stroke-width="1.5" stroke-linecap="round"/><path d="M316.12974,224.29132l0.5912,-2.57169l7.17782,3.6378l0.13884,3.27432z" fill="none" stroke="#330d42" stroke-width="1.5" stroke-linecap="round"/><path d="M272.05215,131.28673l0.12591,-2.952l19.26391,-9.4087l11.66415,19.7394l-13.98696,6.44599l-5.41845,-1.52874z" data-paper-data="{&quot;index&quot;:null}" fill="none" stroke="#330d42" stroke-width="1.5" stroke-linecap="round"/><path d="M271.94584,128.82419l-0.16883,-2.79869l17.02236,-7.60732l0.9283,1.79476z" data-paper-data="{&quot;index&quot;:null}" fill="none" stroke="#330d42" stroke-width="1.5" stroke-linecap="round"/><path d="M272.44837,131.28589l-4.429,5.32818l0.99172,-6.86104l1.84268,-3.08391l1.05474,-0.90057z" data-paper-data="{&quot;index&quot;:null}" fill="none" stroke="#330d42" stroke-width="1.5" stroke-linecap="round"/><path d="M289.77864,144.65759l4.75469,-0.0708l0.00883,4.23505l-5.67509,2.0652l-7.40176,-2.55126l2.63083,-5.16141z" data-paper-data="{&quot;index&quot;:null}" fill="none" stroke="#330d42" stroke-width="1.5" stroke-linecap="round"/><path d="M272.44837,131.28589l11.84305,12.55223l-2.56088,5.01044l-14.02575,-12.16264z" data-paper-data="{&quot;index&quot;:null}" fill="none" stroke="#330d42" stroke-width="1.5" stroke-linecap="round"/><path d="M321.60606,134.84797l-0.02276,2.54429l-6.5834,4.45679l-0.26925,-2.43781z" data-paper-data="{&quot;index&quot;:null}" fill="none" stroke="#330d42" stroke-width="1.5" stroke-linecap="round"/><path d="M262.2954,198.34605l-0.06256,-29.99839l11.05823,-0.02306l0.06256,29.99839z" fill="none" stroke="#330d42" stroke-width="1.5" stroke-linecap="butt"/><path d="M251.26247,198.13209l8.44325,0.63177c0,0 2.11954,3.05765 1.74273,5.29964c-0.37681,2.24199 -3.0205,4.76841 -3.0205,4.76841l-15.58257,1.22303l-1.08104,-51.29877l16.0182,0.07482c0,0 2.64082,2.79083 3.3655,4.97156c0.72469,2.18073 -1.93617,5.74023 -1.93617,5.74023l-7.35938,0.12357z" fill="none" stroke="#330d42" stroke-width="1.5" stroke-linecap="round"/><path d="M250.8026,198.7448l-0.06206,-29.76313l8.3525,-0.01742l0.06207,29.76313z" fill="none" stroke="#330d42" stroke-width="1.5" stroke-linecap="butt"/><path d="M252.21307,198.15366l-0.06084,-29.17493l0.82349,-0.00171l0.06084,29.17493z" fill="none" stroke="#330d42" stroke-width="1.5" stroke-linecap="butt"/><path d="M254.56465,197.56054l-0.05961,-28.58673l0.70585,-0.00148l0.05961,28.58673z" fill="none" stroke="#330d42" stroke-width="1.5" stroke-linecap="butt"/><path d="M257.62479,198.26001l-0.0606,-29.05729l0.70585,-0.00147l0.06059,29.05728z" fill="none" stroke="#330d42" stroke-width="1.5" stroke-linecap="butt"/><path d="M256.2126,198.02767l-0.0601,-28.822l0.70585,-0.00147l0.0601,28.822z" fill="none" stroke="#330d42" stroke-width="1.5" stroke-linecap="butt"/><path d="M230.32613,153.21084l0.61923,5.00434l-8.58987,0.42377l-1.10755,-12.10592z" data-paper-data="{&quot;index&quot;:null}" fill="none" stroke="#330d42" stroke-width="1.5" stroke-linecap="round"/><path d="M221.16155,147.20964l0.98858,10.2798l-9.74052,0.08795z" data-paper-data="{&quot;index&quot;:null}" fill="none" stroke="#330d42" stroke-width="1.5" stroke-linecap="round"/><path d="M225.11405,151.5306l1.42249,0.94404l4.46432,-0.07695l-0.9439,1.49014l-6.0214,-0.5286l0.13063,-2.23252z" data-paper-data="{&quot;index&quot;:null}" fill="none" stroke="#330d42" stroke-width="1.5" stroke-linecap="round"/><path d="M225.58868,152.07077l-1.48533,1.35597l-3.32794,-6.41922z" data-paper-data="{&quot;index&quot;:null}" fill="none" stroke="#330d42" stroke-width="1.5" stroke-linecap="round"/><path d="M226.13096,152.61078l-7.86159,-7.15385l-0.68335,-3.31312l13.41457,10.11859z" data-paper-data="{&quot;index&quot;:null}" fill="none" stroke="#330d42" stroke-width="1.5" stroke-linecap="round"/><path d="M225.08565,148.94458c1.05506,-2.83109 2.67893,-1.58577 3.79519,-0.86967c1.11626,0.71611 1.6427,1.71346 0.24714,3.46298c-0.44264,0.55489 -1.59889,0.50123 -2.71515,-0.21488c-1.11626,-0.71611 -1.57508,-1.71327 -1.32721,-2.3784z" data-paper-data="{&quot;index&quot;:null}" fill="none" stroke="#330d42" stroke-width="1.5" stroke-linecap="butt"/><path d="M225.96234,147.6575c0.38327,-0.59745 1.59892,-0.50123 2.71518,0.21488c1.11626,0.71611 1.71048,1.78099 1.32721,2.3784c-0.38327,0.59745 -1.59892,0.50123 -2.71518,-0.21488c-1.11626,-0.71611 -1.71048,-1.78099 -1.32721,-2.37841z" data-paper-data="{&quot;index&quot;:null}" fill="none" stroke="#330d42" stroke-width="1.5" stroke-linecap="butt"/><path d="M226.52958,149.13897l3.04339,-0.27812" data-paper-data="{&quot;index&quot;:null}" fill="none" stroke="#330d42" stroke-width="1.5" stroke-linecap="round"/><path d="M221.54389,223.57866l1.05704,-12.11044l8.59157,0.38795l-0.59835,5.0069z" fill="none" stroke="#330d42" stroke-width="1.5" stroke-linecap="round"/><path d="M212.6596,212.57125l9.7408,0.04733l-0.94573,10.28383z" fill="none" stroke="#330d42" stroke-width="1.5" stroke-linecap="round"/><path d="M224.44296,218.97284l-0.13994,-2.23195l6.01914,-0.5537l0.95011,1.48618l-4.46461,-0.05834l-1.41854,0.94997z" fill="none" stroke="#330d42" stroke-width="1.5" stroke-linecap="round"/><path d="M221.06939,223.10614l3.30113,-6.43304l1.49097,1.34977z" fill="none" stroke="#330d42" stroke-width="1.5" stroke-linecap="round"/><path d="M231.27255,217.80865l-11.81899,8.95363l-0.40896,-1.48731l7.35691,-7.79438z" fill="none" stroke="#330d42" stroke-width="1.5" stroke-linecap="round"/><path d="M220.69811,147.08842l-10.53491,12.59061l-1.13812,-1.65601l9.13749,-13.02411z" data-paper-data="{&quot;index&quot;:null}" fill="none" stroke="#330d42" stroke-width="1.5" stroke-linecap="round"/><path d="M218.94102,225.29702l-9.19172,-12.98588l1.1312,-1.66075l10.58732,12.54657z" fill="none" stroke="#330d42" stroke-width="1.5" stroke-linecap="round"/><path d="M225.32464,124.87027l-10.96448,9.41306l-10.35652,0.01836l2.65099,-4.30865c0,0 5.06658,-4.8945 8.92469,-6.81453c3.85811,-1.92004 7.40007,-2.14082 7.40007,-2.14082z" data-paper-data="{&quot;index&quot;:null}" fill="none" stroke="#330d42" stroke-width="1.5" stroke-linecap="round"/><path d="M225.04946,124.64361l-9.12952,7.38804l-7.27097,-0.97197l1.84775,-3.64555c0,0 3.51307,-3.40694 6.26597,-4.77695c2.75287,-1.37001 6.30887,-1.67202 6.30887,-1.67202z" data-paper-data="{&quot;index&quot;:null}" fill="none" stroke="#330d42" stroke-width="1.5" stroke-linecap="round"/><path d="M222.25059,249.3302c0,0 -3.50965,-0.52606 -7.18739,-2.77229c-3.67771,-2.24622 -8.30242,-7.56025 -8.30242,-7.56025l-2.26874,-4.52158l10.31617,0.91321l10.11003,10.32535z" fill="none" stroke="#330d42" stroke-width="1.5" stroke-linecap="round"/><path d="M222.39753,249.10296c0,0 -3.51657,-0.6082 -6.14079,-2.21098c-2.62422,-1.60278 -5.82971,-5.30053 -5.82971,-5.30053l-1.52581,-3.79161l7.4829,-0.21548l8.337,8.44877z" fill="none" stroke="#330d42" stroke-width="1.5" stroke-linecap="round"/><path d="M196.51441,214.90995l12.34459,13.78292l-2.05263,0.00429l-11.68873,-12.47806l-3.63662,1.0339l-1.6839,-2.14242z" data-paper-data="{&quot;index&quot;:null}" fill="none" stroke="#330d42" stroke-width="1.5" stroke-linecap="round"/><path d="M206.52586,228.41782c0,0 -5.98497,-2.26441 -9.24658,-4.64581c-3.26161,-2.3814 -6.1717,-6.61154 -6.1717,-6.61154l4.19682,-0.84848z" data-paper-data="{&quot;index&quot;:null}" fill="none" stroke="#330d42" stroke-width="1.5" stroke-linecap="round"/><path d="M246.51602,211.74729c0,0 1.14039,26.69059 -27.01998,30.33645c-21.1408,1.97878 -38.55512,-23.38939 -38.55512,-23.38939l11.37479,-0.42433c0,0 15.96351,16.88549 26.47181,14.86742c18.43101,-3.53959 19.01679,-21.67243 19.01679,-21.67243z" data-paper-data="{&quot;index&quot;:null}" fill="none" stroke="#330d42" stroke-width="1.5" stroke-linecap="round"/><path d="M243.34584,212.01324c0,0 1.55177,26.16781 -24.85173,28.69547c-19.2466,1.84252 -34.8479,-22.22644 -34.8479,-22.22644l11.75423,-0.86424c0,0 8.39266,14.4006 22.69966,13.10821c14.81517,-1.33829 16.84668,-19.62849 16.84668,-19.62849z" data-paper-data="{&quot;index&quot;:null}" fill="none" stroke="#330d42" stroke-width="1.5" stroke-linecap="round"/><path d="M243.60225,211.36847c0,0 1.29539,26.81258 -25.10809,29.34024c-19.24663,1.84252 -34.8479,-22.22644 -34.8479,-22.22644l10.35565,-0.3948c0,0 9.79374,15.14409 24.10074,13.85169c14.81517,-1.33829 17.31202,-20.18926 17.31202,-20.18926z" data-paper-data="{&quot;index&quot;:null}" fill="none" stroke="#330d42" stroke-width="1.5" stroke-linecap="round"/><path d="M192.18489,152.1269l1.67495,-2.14943l3.6409,1.01873l11.63659,-12.5267l2.05263,-0.00428l-12.28697,13.83429z" fill="none" stroke="#330d42" stroke-width="1.5" stroke-linecap="round"/><path d="M197.68716,150.90252l-4.2003,-0.83097c0,0 2.89242,-4.24224 6.14407,-6.63723c3.25165,-2.39499 9.2271,-4.68433 9.2271,-4.68433z" fill="none" stroke="#330d42" stroke-width="1.5" stroke-linecap="round"/><path d="M249.09687,200.12085l0.01451,6.95761l-6.95762,0.01451l-0.01451,-6.95761z" data-paper-data="{&quot;index&quot;:null}" fill="none" stroke="#330d42" stroke-width="1.5" stroke-linecap="butt"/><path d="M247.4337,205.79348l0.01289,6.18454l-5.28263,0.01101l-0.01289,-6.18454z" data-paper-data="{&quot;index&quot;:null}" fill="none" stroke="#330d42" stroke-width="1.5" stroke-linecap="butt"/><path d="M237.22282,156.32487c0,0 -0.6614,-18.13023 -19.10701,-21.59293c-10.51664,-1.97424 -26.40957,14.9777 -26.40957,14.9777l-11.37647,-0.37689c0,0 17.30838,-25.44058 38.45724,-23.54999c28.17534,3.52839 27.14626,30.22351 27.14626,30.22351z" fill="none" stroke="#330d42" stroke-width="1.5" stroke-linecap="round"/><path d="M234.36685,156.70403c0,0 -2.10778,-18.28155 -16.92841,-19.55806c-14.31225,-1.23271 -22.64478,13.20277 -22.64478,13.20277l-11.75773,-0.81521c0,0 15.50079,-24.13382 34.75491,-22.3716c26.41378,2.41752 24.9712,28.59158 24.9712,28.59158z" fill="none" stroke="#330d42" stroke-width="1.5" stroke-linecap="round"/><path d="M234.83198,156.04996c0,0 -2.57543,-18.84041 -17.39606,-20.11689c-14.31225,-1.23271 -24.04276,13.9521 -24.04276,13.9521l-10.3572,-0.3516c0,0 15.50075,-24.13382 34.7549,-22.3716c26.41378,2.41752 25.74617,29.4919 25.74617,29.4919z" fill="none" stroke="#330d42" stroke-width="1.5" stroke-linecap="round"/><path d="M233.14512,212.13672l-0.02445,-11.72488l9.01912,-0.01881l0.02445,11.72489z" fill="none" stroke="#330d42" stroke-width="1.5" stroke-linecap="butt"/><path d="M231.20358,207.88886l-0.01586,-7.60183l3.73649,-0.00779l0.01586,7.60182z" fill="none" stroke="#330d42" stroke-width="1.5" stroke-linecap="butt"/><path d="M242.32951,167.79479l-0.01451,-6.95761l6.95761,-0.01451l0.01452,6.95761z" data-paper-data="{&quot;index&quot;:null}" fill="none" stroke="#330d42" stroke-width="1.5" stroke-linecap="butt"/><path d="M242.31769,162.12563l-0.01316,-6.31341l5.28263,-0.01101l0.01317,6.31341z" data-paper-data="{&quot;index&quot;:null}" fill="none" stroke="#330d42" stroke-width="1.5" stroke-linecap="butt"/><path d="M242.30452,155.81224l0.02445,11.72489l-9.01912,0.0188l-0.02445,-11.72488z" data-paper-data="{&quot;index&quot;:null}" fill="none" stroke="#330d42" stroke-width="1.5" stroke-linecap="butt"/><path d="M235.09808,160.07917l0.01586,7.60182l-3.73649,0.0078l-0.01586,-7.60183z" data-paper-data="{&quot;index&quot;:null}" fill="none" stroke="#330d42" stroke-width="1.5" stroke-linecap="butt"/><path d="M232.87351,201.20743l-0.07195,-34.50284l10.54305,-0.02199l0.07195,34.50285z" fill="none" stroke="#330d42" stroke-width="1.5" stroke-linecap="butt"/><path d="M208.05537,201.26383l-0.07958,-38.16026l24.91147,-0.05195l0.07958,38.16026z" fill="none" stroke="#330d42" stroke-width="1.5" stroke-linecap="butt"/><path d="M206.25243,199.96137l-0.06459,-30.97605l18.92356,-0.03946c0,0 6.41028,10.38191 6.42125,15.64368c0.01054,5.05532 -6.35665,15.33238 -6.35665,15.33238z" fill="none" stroke="#330d42" stroke-width="1.5" stroke-linecap="butt"/><path d="M223.76588,173.70707l-0.74854,-1.02476l4.38516,-0.00915l0.65525,1.02495z" fill="none" stroke="#330d42" stroke-width="1.5" stroke-linecap="butt"/><path d="M228.38183,194.87692l-0.72353,1.02783l-4.87241,0.01016l0.82719,-1.02805z" data-paper-data="{&quot;index&quot;:null}" fill="none" stroke="#330d42" stroke-width="1.5" stroke-linecap="butt"/><path d="M205.34185,197.53743l-0.0574,-27.52391l16.95283,-0.03535c0,0 6.11185,9.22404 6.12161,13.89937c0.00936,4.49196 -6.0642,13.62452 -6.0642,13.62452z" fill="none" stroke="#330d42" stroke-width="1.5" stroke-linecap="butt"/><path d="M210.13092,213.57328l9.09994,10.21563c0,0 -2.55593,0.21105 -3.7769,1.49288c-1.22098,1.28182 -2.28769,3.5148 -2.28769,3.5148l-8.31289,-10.41415c0,0 -0.2793,-1.48714 2.03523,-3.13282c1.46554,-1.04204 3.24232,-1.67633 3.24232,-1.67633z" data-paper-data="{&quot;index&quot;:null}" fill="none" stroke="#330d42" stroke-width="1.5" stroke-linecap="round"/><path d="M217.76319,228.1696c-1.77545,1.45285 -3.80363,1.91091 -4.53005,1.02321c-0.72642,-0.8877 0.12399,-2.7851 1.89944,-4.23795c1.77545,-1.45285 3.80363,-1.91096 4.53005,-1.02323c0.72642,0.8877 -0.12399,2.78512 -1.89944,4.23797z" data-paper-data="{&quot;index&quot;:null}" fill="none" stroke="#330d42" stroke-width="1.5" stroke-linecap="butt"/><path d="M217.47832,228.3188c-1.26945,1.03879 -2.71959,1.36632 -3.23897,0.7316c-0.51937,-0.63472 0.08865,-1.99135 1.35811,-3.03014c1.26945,-1.03879 2.71959,-1.36634 3.23897,-0.7316c0.51937,0.63472 -0.08865,1.99138 -1.35811,3.03014z" data-paper-data="{&quot;index&quot;:null}" fill="none" stroke="#330d42" stroke-width="1.5" stroke-linecap="butt"/><path d="M217.88446,228.85797c-1.26945,1.03879 -2.71959,1.36634 -3.23897,0.7316c-0.51937,-0.63472 0.08865,-1.99138 1.35811,-3.03014c1.26945,-1.03879 2.71959,-1.36632 3.23897,-0.7316c0.51937,0.63472 -0.08866,1.99135 -1.35808,3.03014z" data-paper-data="{&quot;index&quot;:null}" fill="none" stroke="#330d42" stroke-width="1.5" stroke-linecap="butt"/><path d="M214.90296,220.01792c0,0 -2.27396,1.72005 -3.17866,4.45318c-0.90474,2.73313 0.99976,3.32512 0.99976,3.32512l-1.79923,1.71939l-4.65145,-4.48469l7.95261,-5.9566z" data-paper-data="{&quot;index&quot;:null}" fill="none" stroke="#330d42" stroke-width="1.5" stroke-linecap="round"/><path d="M207.49874,225.92557l-5.1501,-5.56786l6.73761,-5.95406l5.2757,5.11902z" data-paper-data="{&quot;index&quot;:null}" fill="none" stroke="#330d42" stroke-width="1.5" stroke-linecap="round"/><path d="M202.41748,152.70355l10.18366,-11.70515c0,0 0.98028,2.03022 2.09747,3.19334c1.1172,1.16312 3.4465,1.3457 3.4465,1.3457l-11.6603,11.33925z" fill="none" stroke="#330d42" stroke-width="1.5" stroke-linecap="round"/><path d="M218.53791,145.40576c-0.6584,0.8115 -2.50785,0.40184 -4.13083,-0.91497c-1.62298,-1.31681 -2.40491,-3.04212 -1.74654,-3.85362c0.6584,-0.8115 2.50785,-0.40187 4.13083,0.91494c1.62298,1.31681 2.40494,3.04215 1.74654,3.85365z" fill="none" stroke="#330d42" stroke-width="1.5" stroke-linecap="butt"/><path d="M217.78005,144.17262c-0.47075,0.58023 -1.7931,0.28732 -2.95353,-0.65421c-1.16043,-0.94151 -1.71952,-2.17514 -1.24876,-2.75534c0.47075,-0.58023 1.79312,-0.28733 2.95355,0.6542c1.16043,0.94151 1.71953,2.17515 1.24877,2.75535z" fill="none" stroke="#330d42" stroke-width="1.5" stroke-linecap="butt"/><path d="M218.14801,143.6799c-0.47075,0.58023 -1.7931,0.28732 -2.95353,-0.65421c-1.16043,-0.94151 -1.71953,-2.17514 -1.24877,-2.75534c0.47075,-0.58023 1.79313,-0.28733 2.95354,0.65421c1.16043,0.94151 1.71952,2.17514 1.24876,2.75534z" fill="none" stroke="#330d42" stroke-width="1.5" stroke-linecap="butt"/><path d="M213.6035,149.85148l-7.26759,-5.39635l4.2614,-3.97942l1.47939,1.68384c0,0 -1.65839,0.1645 -0.82381,2.65097c0.83458,2.48649 2.96377,4.17875 2.96377,4.17875z" fill="none" stroke="#330d42" stroke-width="1.5" stroke-linecap="round"/><path d="M213.72547,149.35926l-4.7868,4.68354l-6.1607,-5.39865l4.62789,-5.17516z" fill="none" stroke="#330d42" stroke-width="1.5" stroke-linecap="round"/><path d="M217.98264,185.59589l-0.00796,-3.81985l1.83035,-0.00382l0.00796,3.81985z" fill="none" stroke="#330d42" stroke-width="1.5" stroke-linecap="butt"/><path d="M217.87853,184.42762l-0.00125,-0.6013l1.95709,-0.00408l0.00126,0.60129z" fill="none" stroke="#330d42" stroke-width="1.5" stroke-linecap="butt"/><path d="M218.22257,186.15245l-0.00132,-0.63666l1.75078,-0.00365l0.00132,0.63666z" fill="none" stroke="#330d42" stroke-width="1.5" stroke-linecap="butt"/><path d="M214.3565,188.74412l-0.01965,-9.41998l3.70787,-0.00773l0.01965,9.41998z" fill="none" stroke="#330d42" stroke-width="1.5" stroke-linecap="butt"/><path d="M218.15767,185.4292l-0.69919,1.10379l-1.10235,0.00229l-0.20375,-1.60298l-1.00212,0.00209" fill="none" stroke="#330d42" stroke-width="1.5" stroke-linecap="round"/><path d="M211.41855,196.26623l0.13527,-3.41808l9.68401,0.12223l-3.97821,4.42292z" fill="none" stroke="#330d42" stroke-width="1.5" stroke-linecap="round"/><path d="M213.39946,190.13855l5.12786,0.55895l2.28388,2.55859l-9.97,-0.69125z" fill="none" stroke="#330d42" stroke-width="1.5" stroke-linecap="round"/><path d="M215.40684,196.68515l0.99151,-2.56541" fill="none" stroke="#330d42" stroke-width="1.5" stroke-linecap="round"/><path d="M228.33481,203.09534l-0.0965,7.77923l-2.59019,1.35828l-20.4067,-0.40839l5.15589,-14.44144l16.24054,2.89738z" fill="none" stroke="#330d42" stroke-width="1.5" stroke-linecap="round"/><path d="M226.64914,205.69185l-0.00446,-2.14203l-1.02194,-3.4928l2.93076,-0.23158l2.70974,1.91092l0.23157,2.93076z" fill="none" stroke="#330d42" stroke-width="1.5" stroke-linecap="round"/><path d="M226.76021,204.90246l4.84756,-0.12285l-0.77507,6.76599l-5.86054,0.91416z" fill="none" stroke="#330d42" stroke-width="1.5" stroke-linecap="round"/><path d="M230.14006,203.76802l-0.00306,-1.4656" fill="none" stroke="#330d42" stroke-width="1.5" stroke-linecap="round"/><path d="M229.13736,209.51984l0.22362,-0.90238" fill="none" stroke="#330d42" stroke-width="1.5" stroke-linecap="round"/><path d="M230.25915,206.81176l-0.11463,-0.90167" fill="none" stroke="#330d42" stroke-width="1.5" stroke-linecap="round"/><path d="M226.99067,207.26954l2.48095,0.33304" fill="none" stroke="#330d42" stroke-width="1.5" stroke-linecap="round"/><path d="M226.43213,209.75098l2.02954,0.10849" fill="none" stroke="#330d42" stroke-width="1.5" stroke-linecap="round"/><path d="M223.83021,205.47229l-1.11353,6.65398l-14.76952,-0.30742l2.46801,-5.86759l9.92102,-0.02069z" fill="none" stroke="#330d42" stroke-width="1.5" stroke-linecap="round"/><path d="M216.27973,206.95365l-1.90645,4.85175l-5.07373,-0.21492l2.13309,-4.28854z" fill="none" stroke="#330d42" stroke-width="1.5" stroke-linecap="round"/><path d="M223.49386,206.37489l-1.11611,5.41383l-6.65206,-0.21163l2.69634,-4.5152z" fill="none" stroke="#330d42" stroke-width="1.5" stroke-linecap="round"/><path d="M211.0015,201.14965l0.30028,7.40458l-6.11283,5.13942l0.26494,-9.54187z" fill="none" stroke="#330d42" stroke-width="1.5" stroke-linecap="round"/><path d="M211.36367,169.96155l-3.00215,-5.54765l-1.3066,-11.95953l4.26926,-1.433l0.30651,10.39516l2.8624,6.82962z" fill="none" stroke="#330d42" stroke-width="1.5" stroke-linecap="round"/><path d="M212.51446,175.47239l-3.00539,-7.11414l6.12379,0.12964l5.28244,6.39734z" fill="none" stroke="#330d42" stroke-width="1.5" stroke-linecap="round"/><path d="M209.94756,173.76884l10.5402,0.97487l-0.99299,1.85337l-7.97155,1.58312z" fill="none" stroke="#330d42" stroke-width="1.5" stroke-linecap="round"/><path d="M216.35499,173.32827l-3.42609,-3.98026" fill="none" stroke="#330d42" stroke-width="1.5" stroke-linecap="round"/><path d="M214.99117,183.73196c0.02428,11.64339 -3.43881,21.08947 -7.73503,21.09842c-4.29622,0.00895 -7.79868,-9.42258 -7.82296,-21.06598c-0.02428,-11.64339 3.43881,-21.08947 7.73504,-21.09842c4.29622,-0.00895 7.79868,9.42259 7.82296,21.06598z" fill="none" stroke="#330d42" stroke-width="1.5" stroke-linecap="butt"/><path d="M211.72126,183.51331c0.01779,8.53019 -2.74392,15.45106 -6.16843,15.4582c-3.42454,0.00714 -6.21509,-6.90215 -6.23287,-15.43234c-0.01779,-8.53019 2.74394,-15.45104 6.16846,-15.45818c3.42454,-0.00714 6.21506,6.90213 6.23284,15.43232z" fill="none" stroke="#330d42" stroke-width="1.5" stroke-linecap="butt"/><path d="M208.02109,193.21663l-0.03996,-19.16567l2.25481,-0.0047l0.03996,19.16567z" fill="none" stroke="#330d42" stroke-width="1.5" stroke-linecap="butt"/><path d="M230.28772,166.45091l-3.38217,0.00705l-11.27624,-1.10386l-2.72478,-9.12622l12.16618,-4.64771l5.63601,-0.4627z" fill="none" stroke="#330d42" stroke-width="1.5" stroke-linecap="round"/><path d="M224.87106,163.98196l-7.78088,-0.88571l-5.41171,-0.10144l-0.57241,-4.17018l0.09771,-7.21552l14.54264,-0.36855l0.02492,11.95033z" fill="none" stroke="#330d42" stroke-width="1.5" stroke-linecap="round"/><path d="M224.53523,165.11007l6.53908,0.09908l-0.21748,3.83361l-1.46585,-0.10969l-4.6277,-2.58335z" fill="none" stroke="#330d42" stroke-width="1.5" stroke-linecap="round"/><path d="M229.0431,164.31149l-0.12048,-3.72016l1.24015,-0.00258l-0.00189,-0.90193l-0.78919,0.00164l-0.00799,-3.83311l0.67666,0.1113l0.22386,-0.78962l-0.78892,0.11437l-0.00799,-3.83311l4.62253,0.10309l-0.10615,3.15691l-1.23874,0.67902l1.46585,0.10969l0.12095,3.94563l-1.91493,0.79318l2.02883,-0.22973l0.12262,4.73482z" fill="none" stroke="#330d42" stroke-width="1.5" stroke-linecap="round"/><path d="M225.6353,152.02992l0.02022,9.69558l-0.89932,1.24203l-4.51216,-1.23074l-0.47093,-9.58187z" fill="none" stroke="#330d42" stroke-width="1.5" stroke-linecap="round"/><path d="M218.64691,152.72097l-0.32059,8.45614l-1.01277,0.90405l-4.51004,-0.21609l-0.6802,-1.8024l-0.13035,-8.4552l5.41289,0.66516z" fill="none" stroke="#330d42" stroke-width="1.5" stroke-linecap="round"/><path d="M231.17131,157.65537l-0.01199,-5.7497l0.78916,-0.00164l0.01199,5.7497z" fill="none" stroke="#330d42" stroke-width="1.5" stroke-linecap="butt"/><path d="M217.88531,198.98336l4.20265,-3.01516l2.10862,1.99986l-2.39925,2.81098z" fill="none" stroke="#330d42" stroke-width="1.5" stroke-linecap="round"/><path d="M221.49209,198.57501l3.59932,-4.01602l2.40949,2.09942l-3.69992,3.81581z" fill="none" stroke="#330d42" stroke-width="1.5" stroke-linecap="round"/><path d="M221.994,198.97482l-1.50505,-0.89879l2.59758,-3.81352l2.2051,0.19582z" fill="none" stroke="#330d42" stroke-width="1.5" stroke-linecap="round"/><path d="M203.9136,228.5166l-2.40618,9.42847" fill="none" stroke="#330d42" stroke-width="1.5" stroke-linecap="round"/><path d="M189.52634,219.49632l-3.53515,4.95235" fill="none" stroke="#330d42" stroke-width="1.5" stroke-linecap="round"/><path d="M216.05077,232.31666l0.02237,10.72966" fill="none" stroke="#330d42" stroke-width="1.5" stroke-linecap="round"/><path d="M225.00303,230.05873l6.92083,7.91624" fill="none" stroke="#330d42" stroke-width="1.5" stroke-linecap="round"/><path d="M243.92823,222.83504l-10.54889,-2.77707" fill="none" stroke="#330d42" stroke-width="1.5" stroke-linecap="round"/><path d="M201.10214,133.07475l-0.84498,-2.51737l3.28537,9.50992" fill="none" stroke="#330d42" stroke-width="1.5" stroke-linecap="round"/><path d="M215.73994,128.00593l-0.00484,-2.33251l0.20896,10.72925" fill="none" stroke="#330d42" stroke-width="1.5" stroke-linecap="round"/><path d="M186.66632,145.51402l-1.31106,-2.32982l4.12005,7.08234" fill="none" stroke="#330d42" stroke-width="1.5" stroke-linecap="round"/><path d="M230.20825,131.14804l1.1163,-1.58846l-6.32463,9.52997" fill="none" stroke="#330d42" stroke-width="1.5" stroke-linecap="round"/><path d="M232.66972,148.21713l11.46987,-3.00959l-1.86468,0.657" fill="none" stroke="#330d42" stroke-width="1.5" stroke-linecap="round"/><path d="M197.48656,153.14841c8.67857,-4.99271 10.4765,6.83271 10.4765,6.83271c0,0 0.38773,17.62028 0.31347,26.14996c-0.07114,8.17074 -0.75005,23.99754 -0.75005,23.99754c0,0 -1.31465,5.66458 -6.11872,6.86732c-3.19282,0.79936 -13.82475,-7.3372 -17.89361,-17.09912c-4.06886,-9.7619 2.86662,-9.36022 2.85453,-15.15816c-0.01209,-5.79794 -5.67494,-12.39588 -3.46486,-18.03109c2.21008,-5.63522 5.90421,-8.56647 14.58278,-13.55916z" fill="none" stroke="#330d42" stroke-width="1.5" stroke-linecap="round"/><path d="M180.71778,156.43025c0,0 17.77926,-1.61604 21.10175,-1.48706c1.4665,0.05693 2.81211,0.29699 3.43402,3.23974c0.60628,2.86889 2.69929,14.49579 2.7584,25.24792c0.05911,10.75213 -1.77643,23.94213 -2.28969,26.52113c-0.51326,2.579 -1.86939,3.53198 -3.78051,3.61554c-2.94554,0.1288 -18.9477,-3.56815 -18.9477,-3.56815l-2.27632,-53.56911z" fill="none" stroke="#330d42" stroke-width="1.5" stroke-linecap="round"/><path d="M203.38218,168.45223c1.06266,2.51817 1.89319,9.18732 1.89319,9.18732l1.85713,0.08363l-0.21857,14.51652l-1.89262,0.77874c0,0 0.62035,5.74667 -0.97736,8.09897c-9.26084,13.63492 -18.79694,3.8242 -19.18771,-3.1061c-0.18722,-3.32046 3.15869,-14.41355 3.15869,-14.41355c0,0 -4.81696,-13.95411 -5.40026,-17.42397c-0.3977,-2.36551 15.16556,-10.99644 20.76755,2.27841z" fill="none" stroke="#330d42" stroke-width="1.5" stroke-linecap="round"/><path d="M193.35289,160.40241c5.68679,-0.01187 10.30793,5.29523 10.32161,11.85372c0.01368,6.5585 -4.58531,11.8848 -10.27209,11.89666c-5.68679,0.01186 -10.30793,-5.29522 -10.32161,-11.85372c-0.01368,-6.5585 4.58531,-11.8848 10.27209,-11.89667z" fill="none" stroke="#330d42" stroke-width="1.5" stroke-linecap="butt"/><path d="M193.10144,184.00308c5.68679,-0.01186 10.30791,5.29526 10.32159,11.85372c0.01368,6.55847 -4.58528,11.8848 -10.27206,11.89666c-5.68679,0.01186 -10.3079,-5.29525 -10.32158,-11.85371c-0.01368,-6.55847 4.58528,-11.88481 10.27206,-11.89667z" fill="none" stroke="#330d42" stroke-width="1.5" stroke-linecap="butt"/><path d="M186.28828,196.64414l-0.04169,-19.99241l13.67903,-0.02852l0.04169,19.99241z" fill="none" stroke="#330d42" stroke-width="1.5" stroke-linecap="butt"/><path d="M190.36098,175.74067c-3.5979,-3.61499 -4.16555,-8.88347 -1.26786,-11.76751c2.89772,-2.88409 8.16345,-2.29159 11.76141,1.32338c3.5979,3.61499 4.16555,8.88347 1.26786,11.76751c-2.89772,2.88409 -8.16347,2.29156 -11.76141,-1.3234z" data-paper-data="{&quot;index&quot;:null}" fill="none" stroke="#330d42" stroke-width="1.5" stroke-linecap="butt"/><path d="M201.90804,192.23382c2.90966,2.87193 2.36406,8.14277 -1.21877,11.7727c-3.58286,3.62993 -8.84607,4.24441 -11.75579,1.37241c-2.90966,-2.87193 -2.36405,-8.14276 1.21877,-11.77269c3.58286,-3.62993 8.84606,-4.24442 11.75578,-1.37242z" fill="none" stroke="#330d42" stroke-width="1.5" stroke-linecap="butt"/><path d="M198.82414,193.16916c2.00044,0.5099 3.28983,2.22694 2.87996,3.83513c-0.4099,1.60823 -2.36389,2.49858 -4.36433,1.98869c-2.00044,-0.5099 -3.28986,-2.2269 -2.87996,-3.83514c0.4099,-1.60823 2.3639,-2.49858 4.36434,-1.98868z" fill="none" stroke="#330d42" stroke-width="1.5" stroke-linecap="butt"/><path d="M194.63469,169.17575c0.71268,-0.73114 2.02773,-0.60518 2.93725,0.28133c0.9095,0.88654 1.06905,2.19792 0.35631,2.9291c-0.71268,0.73114 -2.02776,0.60521 -2.93725,-0.28133c-0.9095,-0.88654 -1.06902,-2.19792 -0.35631,-2.9291z" data-paper-data="{&quot;index&quot;:null}" fill="none" stroke="#330d42" stroke-width="1.5" stroke-linecap="butt"/><path d="M198.62667,193.94402c1.46811,0.3742 2.41439,1.63434 2.1136,2.81457c-0.30083,1.18028 -1.73484,1.8337 -3.20298,1.4595c-1.46811,-0.3742 -2.41439,-1.63432 -2.11359,-2.81457c0.30083,-1.18028 1.73484,-1.83371 3.20297,-1.4595z" fill="none" stroke="#330d42" stroke-width="1.5" stroke-linecap="butt"/><path d="M195.08324,169.61299c0.51858,-0.532 1.47542,-0.44036 2.13721,0.2047c0.66179,0.64505 0.77786,1.5993 0.25927,2.1313c-0.51858,0.532 -1.47545,0.44032 -2.13721,-0.20473c-0.66179,-0.64505 -0.77783,-1.59927 -0.25927,-2.13127z" data-paper-data="{&quot;index&quot;:null}" fill="none" stroke="#330d42" stroke-width="1.5" stroke-linecap="butt"/><path d="M192.69794,165.01621c0,0 2.17298,-0.84286 3.8447,-0.15043c1.67167,0.69244 3.85449,4.54901 3.85449,4.54901" fill="none" stroke="#330d42" stroke-width="1.5" stroke-linecap="round"/><path d="M191.56639,168.72117l-1.56887,-1.13599l1.56174,-2.2818" fill="none" stroke="#330d42" stroke-width="1.5" stroke-linecap="round"/><path d="M192.7006,166.2979l-1.14401,-2.27616" fill="none" stroke="#330d42" stroke-width="1.5" stroke-linecap="round"/><path d="M198.82945,168.84846l1.8513,-0.00386l0.00268,1.28166" fill="none" stroke="#330d42" stroke-width="1.5" stroke-linecap="round"/><path d="M200.11885,172.54838c0,0 0.99091,-0.2708 1.28198,0.13972c0.29107,0.41054 0.60856,1.385 0.43196,2.27765c-0.1766,0.89265 -4.02604,2.33975 -5.97726,1.86376c-1.95124,-0.47598 -4.27965,-3.55127 -4.27965,-3.55127" fill="none" stroke="#330d42" stroke-width="1.5" stroke-linecap="round"/><path d="M199.27481,177.53443l-0.71828,-2.98909" fill="none" stroke="#330d42" stroke-width="1.5" stroke-linecap="round"/><path d="M191.29079,173.13639l-1.00189,-2.41883" fill="none" stroke="#330d42" stroke-width="1.5" stroke-linecap="round"/><path d="M190.29512,173.70811l2.27701,-0.71679" fill="none" stroke="#330d42" stroke-width="1.5" stroke-linecap="round"/><path d="M183.06503,199.39506l3.98053,-8.17888l5.4655,1.83907l-3.51812,7.66702z" fill="none" stroke="#330d42" stroke-width="1.5" stroke-linecap="round"/><path d="M189.19796,167.74709l2.79772,7.95825l-5.61158,1.32835l-3.21107,-8.51044z" data-paper-data="{&quot;index&quot;:null}" fill="none" stroke="#330d42" stroke-width="1.5" stroke-linecap="round"/><path d="M202.24479,153.95168c0,0 -10.27452,4.04831 -13.82436,12.69861c-3.54984,8.6503 1.76742,12.67408 1.75577,18.14205c-0.01165,5.46797 -5.90105,7.72218 -2.97506,15.03817c1.99323,4.98373 15.06142,14.14155 15.06142,14.14155l-2.14136,2.90349c0,0 -11.31483,-7.0024 -14.63687,-16.50462c-3.32205,-9.50222 2.73824,-9.61789 2.65201,-15.46695c-0.08625,-5.84905 -4.53412,-9.86802 -3.56402,-15.06439c2.1595,-11.56732 16.70073,-18.46278 16.70073,-18.46278z" fill="none" stroke="#330d42" stroke-width="1.5" stroke-linecap="round"/><path d="M196.71832,217.24854c0,0 -8.66347,3.93012 -19.66171,0.04101c-9.11609,-3.22356 -19.94959,-8.34766 -26.00305,-13.35329c-5.96033,-4.92862 -12.20057,-11.28335 -11.76883,-21.04441c0.43174,-9.76106 4.66641,-13.95105 13.30546,-20.57429c8.28786,-6.35399 22.40224,-11.33833 27.03088,-12.7674c8.37524,-2.58576 20.02682,2.04772 20.02682,2.04772l-7.20838,3.32338l-7.56083,7.32898l-2.69376,5.75168l0.92115,9.2266l2.89412,3.82468l0.18729,3.30796l-3.05633,4.88184l-1.25034,5.92281l2.36238,8.35301l7.41313,8.34247l5.06198,5.38729z" fill="none" stroke="#330d42" stroke-width="1.5" stroke-linecap="round"/><path d="M146.00856,168.22757c0,0 2.58208,-3.43496 4.7785,-5.60186c2.19645,-2.1669 7.02589,-4.34385 7.02589,-4.34385c0,0 3.80556,-0.76634 9.74443,1.78349c5.93887,2.54983 13.54599,8.2694 13.54599,8.2694l-2.32317,10.46709l-1.81058,-3.24313c0,0 -7.0759,-8.32185 -11.02366,-9.71771c-3.94776,-1.39586 -10.27729,2.18603 -10.27729,2.18603z" fill="none" stroke="#330d42" stroke-width="1.5" stroke-linecap="round"/><path d="M156.99732,199.66688c0,0 6.34442,3.55546 10.28632,2.14315c3.9419,-1.41231 10.98304,-9.76361 10.98304,-9.76361l1.79703,-3.25064l2.3668,10.45729c0,0 -7.58321,5.75124 -13.51139,8.32581c-5.92818,2.57457 -9.7369,1.82412 -9.7369,1.82412c0,0 -4.83848,-2.15678 -7.04395,-4.31451c-2.20544,-2.15773 -6.05369,-5.20347 -6.05369,-5.20347z" data-paper-data="{&quot;index&quot;:null}" fill="none" stroke="#330d42" stroke-width="1.5" stroke-linecap="round"/><path d="M166.55858,200.11254c-6.6297,2.28414 -17.85374,2.02146 -17.85374,2.02146c0,0 -9.24441,-4.53666 -9.4179,-18.1991c-0.11214,-8.83074 7.00107,-16.2491 7.00107,-16.2491c0,0 3.92762,-2.10298 15.3314,-0.57312c14.55828,1.95304 23.66584,17.08709 23.66584,17.08709c0,0 -3.95664,10.82406 -18.72668,15.91278z" fill="none" stroke="#330d42" stroke-width="1.5" stroke-linecap="round"/><path d="M138.97465,185.55904l-0.00339,-1.62345l44.32901,-0.09244l0.00339,1.62345z" fill="none" stroke="#330d42" stroke-width="1.5" stroke-linecap="butt"/><path d="M194.77744,151.53062l7.21568,0.16053c0,0 -11.99596,6.23547 -16.02183,15.48271c-4.02587,9.24723 2.65304,10.61016 2.73942,16.14584c0.08638,5.53565 -5.20717,10.84425 -2.4869,18.43903c2.64346,7.38041 15.54441,15.06578 15.54441,15.06578l-7.75573,0.36728c0,0 -11.20789,-6.54909 -14.46501,-16.47251c-3.25712,-9.92342 3.76318,-11.92833 3.39469,-15.63195c-0.33208,-3.33761 -5.16922,-9.28491 -3.64428,-17.54842c0.94491,-5.12039 15.47958,-16.00824 15.47958,-16.00824z" fill="none" stroke="#330d42" stroke-width="1.5" stroke-linecap="round"/><path d="M185.73283,182.57542c1.6438,-0.00343 2.97825,0.92251 2.98065,2.06818c0.00238,1.14567 -1.32819,2.07719 -2.97199,2.08061c-1.64379,0.00343 -2.97825,-0.92254 -2.98064,-2.06821c-0.00239,-1.14567 1.32819,-2.07716 2.97198,-2.08058z" fill="none" stroke="#330d42" stroke-width="1.5" stroke-linecap="butt"/><path d="M225.37149,221.15112c-0.25064,-0.66409 0.20401,-1.66316 1.31728,-2.38391c1.11327,-0.72075 2.2693,-0.77925 2.71426,-0.2262c1.40283,1.74369 0.88057,2.74322 -0.2327,3.46398c-1.11327,0.72075 -2.73196,1.97284 -3.79881,-0.85383z" fill="none" stroke="#330d42" stroke-width="1.5" stroke-linecap="butt"/><path d="M227.57084,220.05059c1.11327,-0.72075 2.32849,-0.82204 2.71424,-0.2262c0.38575,0.59582 -0.20401,1.66316 -1.31728,2.38391c-1.11327,0.72079 -2.32849,0.82207 -2.71424,0.22623c-0.38575,-0.59584 0.204,-1.66319 1.31728,-2.38394z" fill="none" stroke="#330d42" stroke-width="1.5" stroke-linecap="butt"/><path d="M229.85915,221.21614l-3.04452,-0.26542" fill="none" stroke="#330d42" stroke-width="1.5" stroke-linecap="round"/><path d="M243.59946,194.6149l-0.04568,-21.90361l40.32839,-0.0841l0.04567,21.9036z" fill="none" stroke="#330d42" stroke-width="1.5" stroke-linecap="butt"/><path d="M301.99631,221.73806l-0.05181,-24.84362l18.82074,-0.28523l-2.20775,24.35636z" fill="none" stroke="#330d42" stroke-width="1.5" stroke-linecap="round"/><path d="M318.39951,145.20489l2.56286,25.57631l-19.07323,-0.45219l0.19658,-26.07403z" fill="none" stroke="#330d42" stroke-width="1.5" stroke-linecap="round"/><path d="M309.81847,121.85494l8.83247,23.59539l-17.31708,-0.70179l-5.8211,-23.60171z" fill="none" stroke="#330d42" stroke-width="1.5" stroke-linecap="round"/><path d="M310.07321,244.01289l-13.1246,-0.05711l5.04652,-22.80195l17.06358,-0.52754z" fill="none" stroke="#330d42" stroke-width="1.5" stroke-linecap="round"/><path d="M310.82501,243.51938l-11.25172,19.70166l-12.54646,0.51812l9.99648,-19.94502z" fill="none" stroke="#330d42" stroke-width="1.5" stroke-linecap="round"/><path d="M278.60745,173.17393l10.14154,-17.39491l4.49017,-0.00937l0.11612,55.68127l-4.49047,-0.13304l-10.06313,-16.78316z" fill="none" stroke="#330d42" stroke-width="1.5" stroke-linecap="round"/><path d="M299.49154,103.67417l11.08078,18.67116l-14.30516,-0.46212l-9.57508,-18.67431z" fill="none" stroke="#330d42" stroke-width="1.5" stroke-linecap="round"/><path d="M292.15746,145.42361l-3.64779,-19.23332l-7.55417,-18.3232l6.60464,-4.52334l9.65988,18.92011l5.45849,22.53653l-0.26154,25.62141l-10.20708,0.14126z" fill="none" stroke="#330d42" stroke-width="1.5" stroke-linecap="butt"/><path d="M258.27574,188.82548l-0.02134,-10.23476l14.46983,-0.03017l0.02134,10.23475z" fill="none" stroke="#330d42" stroke-width="1.5" stroke-linecap="butt"/><path d="M258.03778,187.53192l-0.01571,-7.52901l14.82274,-0.0309l0.01571,7.52901z" fill="none" stroke="#330d42" stroke-width="1.5" stroke-linecap="butt"/><path d="M257.47771,184.14336c0.00312,1.49436 -0.91606,2.70767 -2.05308,2.71004c-1.13701,0.00236 -2.06123,-1.2071 -2.06435,-2.70145c-0.00312,-1.49436 0.91606,-2.70766 2.05308,-2.71004c1.13701,-0.00236 2.06123,1.2071 2.06435,2.70144z" fill="none" stroke="#330d42" stroke-width="1.5" stroke-linecap="butt"/><path d="M256.65422,184.14508c0.00312,1.49436 -0.91606,2.70767 -2.05308,2.71004c-1.13701,0.00236 -2.06124,-1.2071 -2.06436,-2.70145c-0.00312,-1.49436 0.91606,-2.70766 2.05308,-2.71003c1.13701,-0.00236 2.06124,1.20709 2.06436,2.70144z" fill="none" stroke="#330d42" stroke-width="1.5" stroke-linecap="butt"/><path d="M272.62818,188.91319l-0.02183,-10.47003l7.06483,3.04396l-0.10881,4.2353z" fill="none" stroke="#330d42" stroke-width="1.5" stroke-linecap="butt"/><path d="M281.87023,258.18466l6.58078,-15.9476l3.86442,-21.05276l-0.04907,-23.5316l10.19582,-0.37209l-0.22572,23.88297l-5.06382,22.55847l-8.97774,19.86091z" fill="none" stroke="#330d42" stroke-width="1.5" stroke-linecap="butt"/><path d="M293.61099,197.4944l-0.05672,-27.19979l16.09204,-0.03355l0.05672,27.19979z" fill="none" stroke="#330d42" stroke-width="1.5" stroke-linecap="butt"/><path d="M296.31079,194.64061l-0.04603,-22.07315l8.82926,-0.01841l0.04603,22.07314z" fill="none" stroke="#330d42" stroke-width="1.5" stroke-linecap="butt"/><path d="M312.35564,140.5712l-22.17876,5.05135l-0.92616,-0.76811l13.85542,-6.18901l-7.16061,-13.58866l12.00763,-5.54349l14.03352,15.88442z" data-paper-data="{&quot;index&quot;:null}" fill="#b61a00" stroke="#000000" stroke-width="0" stroke-linecap="round"/><path d="M278.00502,145.4982l-12.29277,8.81933l9.44441,-12.33086z" fill="#3e3645" stroke="#000000" stroke-width="0" stroke-linecap="round"/><path d="M275.59905,224.37584l-9.35906,-11.61521l12.46388,8.36183z" fill="#3e3645" stroke="#000000" stroke-width="0" stroke-linecap="round"/><path d="M272.29009,194.61949l17.08312,17.68704l-1.07524,3.38443l-20.59916,-17.00328z" fill="#3d3738" stroke="#000000" stroke-width="0" stroke-linecap="round"/><path d="M266.0116,168.11623l20.26201,-14.92388l-3.90611,8.26068l-11.20738,10.30522z" fill="#3d3738" stroke="#000000" stroke-width="0" stroke-linecap="round"/><path d="M257.33587,159.80932l25.39294,-19.05601l6.7368,10.27332l-23.3953,17.76594z" data-paper-data="{&quot;index&quot;:null}" fill="#7f7373" stroke="#938489" stroke-width="0.375" stroke-linecap="round"/><path d="M266.61622,198.55466l22.22205,16.72932l-6.33817,9.75391l-24.11859,-17.94295z" fill="#7f7373" stroke="#938489" stroke-width="0.375" stroke-linecap="round"/><path d="M284.65424,220.02776l5.54337,-1.63501l14.35452,6.73445l-11.86181,20.85901l-19.77248,-9.83477l-0.14178,-3.11131z" fill="#f24500" stroke="#000000" stroke-width="0" stroke-linecap="round"/><path d="M290.92861,244.55551l-0.94305,1.896l-17.46867,-7.94553l-0.00575,-2.76115z" fill="#d4340d" stroke="#000000" stroke-width="0" stroke-linecap="round"/><path d="M272.65291,238.85776l-1.08427,-0.94476l-1.90079,-3.24293l-1.28801,-7.19691l4.80208,5.56614z" fill="#ed6b0a" stroke="#000000" stroke-width="0" stroke-linecap="round"/><path d="M284.81578,220.10892l-2.47186,-5.08198l7.57043,-2.72154l5.82186,2.15247l0.0093,4.46447l-4.87111,-0.36472z" fill="#f36501" stroke="#000000" stroke-width="0" stroke-linecap="round"/><path d="M268.29975,227.3674l14.31362,-12.88216l2.31088,5.2714l-11.74232,13.28267z" fill="#ff8501" stroke="#000000" stroke-width="0" stroke-linecap="round"/><path d="M323.90523,228.46902l-14.30544,16.80549l-12.32324,-5.79167l7.27559,-14.35565l-14.21867,-6.46416l0.94532,-0.8137l22.73921,5.2288z" fill="#b61a00" stroke="#000000" stroke-width="0" stroke-linecap="round"/><path d="M316.12974,224.29132l0.5912,-2.57169l7.17782,3.6378l0.13884,3.27432z" fill="#8f1800" stroke="#000000" stroke-width="0" stroke-linecap="round"/><path d="M272.05215,131.28673l0.12591,-2.952l19.26391,-9.4087l11.66415,19.7394l-13.98696,6.44599l-5.41845,-1.52874z" data-paper-data="{&quot;index&quot;:null}" fill="#f24500" stroke="#000000" stroke-width="0" stroke-linecap="round"/><path d="M271.94584,128.82419l-0.16883,-2.79869l17.02236,-7.60732l0.9283,1.79476z" data-paper-data="{&quot;index&quot;:null}" fill="#d4340d" stroke="#000000" stroke-width="0" stroke-linecap="round"/><path d="M272.44837,131.28589l-4.429,5.32818l0.99172,-6.86104l1.84268,-3.08391l1.05474,-0.90057z" data-paper-data="{&quot;index&quot;:null}" fill="#ed6b0a" stroke="#000000" stroke-width="0" stroke-linecap="round"/><path d="M289.77864,144.65759l4.75469,-0.0708l0.00883,4.23505l-5.67509,2.0652l-7.40176,-2.55126l2.63083,-5.16141z" data-paper-data="{&quot;index&quot;:null}" fill="#f36501" stroke="#000000" stroke-width="0" stroke-linecap="round"/><path d="M272.44837,131.28589l11.84305,12.55223l-2.56088,5.01044l-14.02575,-12.16264z" data-paper-data="{&quot;index&quot;:null}" fill="#ff8501" stroke="#000000" stroke-width="0" stroke-linecap="round"/><path d="M321.60606,134.84797l-0.02276,2.54429l-6.5834,4.45679l-0.26925,-2.43781z" data-paper-data="{&quot;index&quot;:null}" fill="#8f1800" stroke="#000000" stroke-width="0" stroke-linecap="round"/><path d="M262.2954,198.34605l-0.06256,-29.99839l11.05823,-0.02306l0.06256,29.99839z" fill="#24251e" stroke="none" stroke-width="0" stroke-linecap="butt"/><path d="M251.26247,198.13209l8.44325,0.63177c0,0 2.11954,3.05765 1.74273,5.29964c-0.37681,2.24199 -3.0205,4.76841 -3.0205,4.76841l-15.58257,1.22303l-1.08104,-51.29877l16.0182,0.07482c0,0 2.64082,2.79083 3.3655,4.97156c0.72469,2.18073 -1.93617,5.74023 -1.93617,5.74023l-7.35938,0.12357z" fill="#252324" stroke="#000000" stroke-width="0" stroke-linecap="round"/><path d="M250.8026,198.7448l-0.06206,-29.76313l8.3525,-0.01742l0.06207,29.76313z" fill="#211e1f" stroke="none" stroke-width="0" stroke-linecap="butt"/><path d="M252.21307,198.15366l-0.06084,-29.17493l0.82349,-0.00171l0.06084,29.17493z" fill="#1b1919" stroke="none" stroke-width="0" stroke-linecap="butt"/><path d="M254.56465,197.56054l-0.05961,-28.58673l0.70585,-0.00148l0.05961,28.58673z" fill="#1b1919" stroke="none" stroke-width="0" stroke-linecap="butt"/><path d="M257.62479,198.26001l-0.0606,-29.05729l0.70585,-0.00147l0.06059,29.05728z" fill="#1b1919" stroke="none" stroke-width="0" stroke-linecap="butt"/><path d="M256.2126,198.02767l-0.0601,-28.822l0.70585,-0.00147l0.0601,28.822z" fill="#1b1919" stroke="none" stroke-width="0" stroke-linecap="butt"/><path d="M230.32613,153.21084l0.61923,5.00434l-8.58987,0.42377l-1.10755,-12.10592z" data-paper-data="{&quot;index&quot;:null}" fill="#544f51" stroke="#000000" stroke-width="0" stroke-linecap="round"/><path d="M221.16155,147.20964l0.98858,10.2798l-9.74052,0.08795z" data-paper-data="{&quot;index&quot;:null}" fill="#7b7776" stroke="#8c8887" stroke-width="0.25" stroke-linecap="round"/><path d="M225.11405,151.5306l1.42249,0.94404l4.46432,-0.07695l-0.9439,1.49014l-6.0214,-0.5286l0.13063,-2.23252z" data-paper-data="{&quot;index&quot;:null}" fill="#1b1917" stroke="#000000" stroke-width="0" stroke-linecap="round"/><path d="M225.58868,152.07077l-1.48533,1.35597l-3.32794,-6.41922z" data-paper-data="{&quot;index&quot;:null}" fill="#393534" stroke="#000000" stroke-width="0" stroke-linecap="round"/><path d="M226.13096,152.61078l-7.86159,-7.15385l-0.68335,-3.31312l13.41457,10.11859z" data-paper-data="{&quot;index&quot;:null}" fill="#282320" stroke="#000000" stroke-width="0" stroke-linecap="round"/><path d="M225.08565,148.94458c1.05506,-2.83109 2.67893,-1.58577 3.79519,-0.86967c1.11626,0.71611 1.6427,1.71346 0.24714,3.46298c-0.44264,0.55489 -1.59889,0.50123 -2.71515,-0.21488c-1.11626,-0.71611 -1.57508,-1.71327 -1.32721,-2.3784z" data-paper-data="{&quot;index&quot;:null}" fill="#443e42" stroke="none" stroke-width="0" stroke-linecap="butt"/><path d="M225.96234,147.6575c0.38327,-0.59745 1.59892,-0.50123 2.71518,0.21488c1.11626,0.71611 1.71048,1.78099 1.32721,2.3784c-0.38327,0.59745 -1.59892,0.50123 -2.71518,-0.21488c-1.11626,-0.71611 -1.71048,-1.78099 -1.32721,-2.37841z" data-paper-data="{&quot;index&quot;:null}" fill="#7c7080" stroke="none" stroke-width="0" stroke-linecap="butt"/><path d="M226.52958,149.13897l3.04339,-0.27812" data-paper-data="{&quot;index&quot;:null}" fill="none" stroke="#3f393c" stroke-width="0.25" stroke-linecap="round"/><path d="M221.54389,223.57866l1.05704,-12.11044l8.59157,0.38795l-0.59835,5.0069z" fill="#544f51" stroke="#000000" stroke-width="0" stroke-linecap="round"/><path d="M212.6596,212.57125l9.7408,0.04733l-0.94573,10.28383z" fill="#7b7776" stroke="#8c8887" stroke-width="0.25" stroke-linecap="round"/><path d="M224.44296,218.97284l-0.13994,-2.23195l6.01914,-0.5537l0.95011,1.48618l-4.46461,-0.05834l-1.41854,0.94997z" fill="#1b1917" stroke="#000000" stroke-width="0" stroke-linecap="round"/><path d="M221.06939,223.10614l3.30113,-6.43304l1.49097,1.34977z" fill="#393534" stroke="#000000" stroke-width="0" stroke-linecap="round"/><path d="M231.27255,217.80865l-11.81899,8.95363l-0.40896,-1.48731l7.35691,-7.79438z" fill="#282320" stroke="#000000" stroke-width="0" stroke-linecap="round"/><path d="M220.69811,147.08842l-10.53491,12.59061l-1.13812,-1.65601l9.13749,-13.02411z" data-paper-data="{&quot;index&quot;:null}" fill="#393534" stroke="#000000" stroke-width="0" stroke-linecap="round"/><path d="M218.94102,225.29702l-9.19172,-12.98588l1.1312,-1.66075l10.58732,12.54657z" fill="#393534" stroke="#000000" stroke-width="0" stroke-linecap="round"/><path d="M225.32464,124.87027l-10.96448,9.41306l-10.35652,0.01836l2.65099,-4.30865c0,0 5.06658,-4.8945 8.92469,-6.81453c3.85811,-1.92004 7.40007,-2.14082 7.40007,-2.14082z" data-paper-data="{&quot;index&quot;:null}" fill="#d23e28" stroke="#000000" stroke-width="0" stroke-linecap="round"/><path d="M225.04946,124.64359l-9.12952,7.38804l-7.27097,-0.97198l1.84775,-3.64555c0,0 3.51307,-3.40693 6.26597,-4.77694c2.75287,-1.37001 6.30887,-1.67203 6.30887,-1.67203z" data-paper-data="{&quot;index&quot;:null}" fill="#941300" stroke="#000000" stroke-width="0" stroke-linecap="round"/><path d="M222.25059,249.3302c0,0 -3.50965,-0.52606 -7.18739,-2.77229c-3.67771,-2.24622 -8.30242,-7.56025 -8.30242,-7.56025l-2.26874,-4.52158l10.31617,0.91321l10.11003,10.32535z" fill="#d23e28" stroke="#000000" stroke-width="0" stroke-linecap="round"/><path d="M222.39753,249.10296c0,0 -3.51657,-0.6082 -6.14079,-2.21098c-2.62422,-1.60278 -5.82971,-5.30053 -5.82971,-5.30053l-1.52581,-3.79161l7.4829,-0.21548l8.337,8.44877z" fill="#941300" stroke="#000000" stroke-width="0" stroke-linecap="round"/><path d="M196.51441,214.90995l12.34459,13.78292l-2.05263,0.00429l-11.68873,-12.47806l-3.63662,1.0339l-1.6839,-2.14242z" data-paper-data="{&quot;index&quot;:null}" fill="#aa4517" stroke="#000000" stroke-width="0" stroke-linecap="round"/><path d="M206.52586,228.41782c0,0 -5.98497,-2.26441 -9.24658,-4.64581c-3.26161,-2.3814 -6.1717,-6.61154 -6.1717,-6.61154l4.19682,-0.84848z" data-paper-data="{&quot;index&quot;:null}" fill="#fc8200" stroke="#000000" stroke-width="0" stroke-linecap="round"/><path d="M246.51602,211.74729c0,0 1.14039,26.69059 -27.01998,30.33645c-21.1408,1.97878 -38.55512,-23.38939 -38.55512,-23.38939l11.37479,-0.42433c0,0 15.96351,16.88549 26.47181,14.86742c18.43101,-3.53959 19.01679,-21.67243 19.01679,-21.67243z" data-paper-data="{&quot;index&quot;:null}" fill="#f83b2d" stroke="#000000" stroke-width="0" stroke-linecap="round"/><path d="M243.34584,212.01324c0,0 1.55177,26.16781 -24.85173,28.69547c-19.2466,1.84252 -34.8479,-22.22644 -34.8479,-22.22644l11.75423,-0.86424c0,0 8.39266,14.4006 22.69966,13.10821c14.81517,-1.33829 16.84668,-19.62849 16.84668,-19.62849z" data-paper-data="{&quot;index&quot;:null}" fill="#aa0606" stroke="#000000" stroke-width="0" stroke-linecap="round"/><path d="M243.60225,211.36847c0,0 1.29539,26.81258 -25.10809,29.34024c-19.24663,1.84252 -34.8479,-22.22644 -34.8479,-22.22644l10.35565,-0.3948c0,0 9.79374,15.14409 24.10074,13.85169c14.81517,-1.33829 17.31202,-20.18926 17.31202,-20.18926z" data-paper-data="{&quot;index&quot;:null}" fill="#fa0000" stroke="#000000" stroke-width="0" stroke-linecap="round"/><path d="M192.18489,152.1269l1.67495,-2.14943l3.6409,1.01873l11.63659,-12.5267l2.05263,-0.00428l-12.28697,13.83429z" fill="#aa4517" stroke="#000000" stroke-width="0" stroke-linecap="round"/><path d="M197.68716,150.90252l-4.2003,-0.83097c0,0 2.89242,-4.24224 6.14407,-6.63723c3.25165,-2.39499 9.2271,-4.68433 9.2271,-4.68433z" fill="#fc8200" stroke="#000000" stroke-width="0" stroke-linecap="round"/><path d="M249.09687,200.12085l0.01451,6.95761l-6.95762,0.01451l-0.01451,-6.95761z" data-paper-data="{&quot;index&quot;:null}" fill="#514e47" stroke="none" stroke-width="0" stroke-linecap="butt"/><path d="M247.4337,205.79348l0.01289,6.18454l-5.28263,0.01101l-0.01289,-6.18454z" data-paper-data="{&quot;index&quot;:null}" fill="#514e47" stroke="none" stroke-width="0" stroke-linecap="butt"/><path d="M237.22282,156.32487c0,0 -0.6614,-18.13023 -19.10701,-21.59293c-10.51664,-1.97424 -26.40957,14.9777 -26.40957,14.9777l-11.37647,-0.37689c0,0 17.30838,-25.44058 38.45724,-23.54999c28.17534,3.52839 27.14626,30.22351 27.14626,30.22351z" fill="#47a0cc" stroke="#000000" stroke-width="0" stroke-linecap="round"/><path d="M234.36685,156.70403c0,0 -2.10778,-18.28155 -16.92841,-19.55806c-14.31225,-1.23271 -22.64478,13.20277 -22.64478,13.20277l-11.75773,-0.81521c0,0 15.50079,-24.13382 34.75491,-22.3716c26.41378,2.41752 24.9712,28.59158 24.9712,28.59158z" fill="#06527f" stroke="#000000" stroke-width="0" stroke-linecap="round"/><path d="M234.83198,156.04996c0,0 -2.57543,-18.84041 -17.39606,-20.11689c-14.31225,-1.23271 -24.04276,13.9521 -24.04276,13.9521l-10.3572,-0.3516c0,0 15.50075,-24.13382 34.7549,-22.3716c26.41378,2.41752 25.74617,29.4919 25.74617,29.4919z" fill="#0b7bc1" stroke="#000000" stroke-width="0" stroke-linecap="round"/><path d="M233.14512,212.13672l-0.02445,-11.72488l9.01912,-0.01881l0.02445,11.72489z" fill="#6a6461" stroke="none" stroke-width="0" stroke-linecap="butt"/><path d="M231.20358,207.88886l-0.01586,-7.60183l3.73649,-0.00779l0.01586,7.60182z" fill="#6a6461" stroke="none" stroke-width="0" stroke-linecap="butt"/><path d="M242.32951,167.79479l-0.01451,-6.95761l6.95761,-0.01451l0.01452,6.95761z" data-paper-data="{&quot;index&quot;:null}" fill="#514e47" stroke="none" stroke-width="0" stroke-linecap="butt"/><path d="M242.31769,162.12563l-0.01316,-6.31341l5.28263,-0.01101l0.01317,6.31341z" data-paper-data="{&quot;index&quot;:null}" fill="#514e47" stroke="none" stroke-width="0" stroke-linecap="butt"/><path d="M242.30452,155.81224l0.02445,11.72489l-9.01912,0.0188l-0.02445,-11.72488z" data-paper-data="{&quot;index&quot;:null}" fill="#6a6461" stroke="none" stroke-width="0" stroke-linecap="butt"/><path d="M235.09808,160.07917l0.01586,7.60182l-3.73649,0.0078l-0.01586,-7.60183z" data-paper-data="{&quot;index&quot;:null}" fill="#6a6461" stroke="none" stroke-width="0" stroke-linecap="butt"/><path d="M232.87351,201.20743l-0.07195,-34.50284l10.54305,-0.02199l0.07195,34.50285z" fill="#1b1919" stroke="none" stroke-width="0" stroke-linecap="butt"/><path d="M208.05537,201.26383l-0.07958,-38.16026l24.91147,-0.05195l0.07958,38.16026z" fill="#282425" stroke="none" stroke-width="0" stroke-linecap="butt"/><path d="M206.25243,199.96137l-0.06459,-30.97605l18.92356,-0.03946c0,0 6.41028,10.38191 6.42125,15.64368c0.01054,5.05532 -6.35665,15.33238 -6.35665,15.33238z" fill="#f06c00" stroke="none" stroke-width="0" stroke-linecap="butt"/><path d="M223.76588,173.70707l-0.74854,-1.02476l4.38516,-0.00915l0.65525,1.02495z" fill="#8b2500" stroke="none" stroke-width="0" stroke-linecap="butt"/><path d="M228.38183,194.87692l-0.72353,1.02783l-4.87241,0.01016l0.82719,-1.02805z" data-paper-data="{&quot;index&quot;:null}" fill="#8b2500" stroke="none" stroke-width="0" stroke-linecap="butt"/><path d="M205.34185,197.53743l-0.0574,-27.52391l16.95283,-0.03535c0,0 6.11185,9.22404 6.12161,13.89937c0.00936,4.49196 -6.0642,13.62452 -6.0642,13.62452z" fill="#312c29" stroke="none" stroke-width="0" stroke-linecap="butt"/><path d="M210.13092,213.57328l9.09994,10.21563c0,0 -2.55593,0.21105 -3.7769,1.49288c-1.22098,1.28182 -2.28769,3.5148 -2.28769,3.5148l-8.31289,-10.41415c0,0 -0.2793,-1.48714 2.03523,-3.13282c1.46554,-1.04204 3.24232,-1.67633 3.24232,-1.67633z" data-paper-data="{&quot;index&quot;:null}" fill="#f2700b" stroke="#000000" stroke-width="0" stroke-linecap="round"/><path d="M217.76319,228.1696c-1.77545,1.45285 -3.80363,1.91091 -4.53005,1.02321c-0.72642,-0.8877 0.12399,-2.7851 1.89944,-4.23795c1.77545,-1.45285 3.80363,-1.91096 4.53005,-1.02323c0.72642,0.8877 -0.12399,2.78512 -1.89944,4.23797z" data-paper-data="{&quot;index&quot;:null}" fill="#b43507" stroke="#000000" stroke-width="0" stroke-linecap="butt"/><path d="M217.47832,228.3188c-1.26945,1.03879 -2.71959,1.36632 -3.23897,0.7316c-0.51937,-0.63472 0.08865,-1.99135 1.35811,-3.03014c1.26945,-1.03879 2.71959,-1.36634 3.23897,-0.7316c0.51937,0.63472 -0.08865,1.99138 -1.35811,3.03014z" data-paper-data="{&quot;index&quot;:null}" fill="#58515d" stroke="#000000" stroke-width="0" stroke-linecap="butt"/><path d="M217.88446,228.85797c-1.26945,1.03879 -2.71959,1.36634 -3.23897,0.7316c-0.51937,-0.63472 0.08865,-1.99138 1.35811,-3.03014c1.26945,-1.03879 2.71959,-1.36632 3.23897,-0.7316c0.51937,0.63472 -0.08866,1.99135 -1.35808,3.03014z" data-paper-data="{&quot;index&quot;:null}" fill="#6f6675" stroke="#000000" stroke-width="0" stroke-linecap="butt"/><path d="M214.90296,220.01792c0,0 -2.27396,1.72005 -3.17866,4.45318c-0.90474,2.73313 0.99976,3.32512 0.99976,3.32512l-1.79923,1.71939l-4.65145,-4.48469l7.95261,-5.9566z" data-paper-data="{&quot;index&quot;:null}" fill="#5b4e50" stroke="#000000" stroke-width="0" stroke-linecap="round"/><path d="M207.49874,225.92557l-5.1501,-5.56786l6.73761,-5.95406l5.2757,5.11902z" data-paper-data="{&quot;index&quot;:null}" fill="#7a7579" stroke="#847a76" stroke-width="0.25" stroke-linecap="round"/><path d="M202.41748,152.70355l10.18366,-11.70515c0,0 0.98028,2.03022 2.09747,3.19334c1.1172,1.16312 3.4465,1.3457 3.4465,1.3457l-11.6603,11.33925z" fill="#f2700b" stroke="#000000" stroke-width="0" stroke-linecap="round"/><path d="M218.53791,145.40576c-0.6584,0.8115 -2.50785,0.40184 -4.13083,-0.91497c-1.62298,-1.31681 -2.40491,-3.04212 -1.74654,-3.85362c0.6584,-0.8115 2.50785,-0.40187 4.13083,0.91494c1.62298,1.31681 2.40494,3.04215 1.74654,3.85365z" fill="#b43507" stroke="#000000" stroke-width="0" stroke-linecap="butt"/><path d="M217.78005,144.17262c-0.47075,0.58023 -1.7931,0.28732 -2.95353,-0.65421c-1.16043,-0.94151 -1.71952,-2.17514 -1.24876,-2.75534c0.47075,-0.58023 1.79312,-0.28733 2.95355,0.6542c1.16043,0.94151 1.71953,2.17515 1.24877,2.75535z" fill="#58515d" stroke="#000000" stroke-width="0" stroke-linecap="butt"/><path d="M218.14801,143.6799c-0.47075,0.58023 -1.7931,0.28732 -2.95353,-0.65421c-1.16043,-0.94151 -1.71953,-2.17514 -1.24877,-2.75534c0.47075,-0.58023 1.79313,-0.28733 2.95354,0.65421c1.16043,0.94151 1.71952,2.17514 1.24876,2.75534z" fill="#6f6675" stroke="#000000" stroke-width="0" stroke-linecap="butt"/><path d="M213.6035,149.85145l-7.26759,-5.39635l4.2614,-3.97941l1.47939,1.68384c0,0 -1.65839,0.1645 -0.82381,2.65097c0.83458,2.48649 2.96377,4.17876 2.96377,4.17876z" fill="#5b4e50" stroke="#000000" stroke-width="0" stroke-linecap="round"/><path d="M213.72547,149.35926l-4.7868,4.68354l-6.1607,-5.39865l4.62789,-5.17516z" fill="#7a7579" stroke="#847a76" stroke-width="0.25" stroke-linecap="round"/><path d="M217.98264,185.59589l-0.00796,-3.81985l1.83035,-0.00382l0.00796,3.81985z" fill="#62615d" stroke="none" stroke-width="0" stroke-linecap="butt"/><path d="M217.87853,184.42762l-0.00125,-0.6013l1.95709,-0.00408l0.00126,0.60129z" fill="#54534f" stroke="none" stroke-width="0" stroke-linecap="butt"/><path d="M218.22257,186.15245l-0.00132,-0.63666l1.75078,-0.00365l0.00132,0.63666z" fill="#7d7b77" stroke="none" stroke-width="0" stroke-linecap="butt"/><path d="M214.3565,188.74412l-0.01965,-9.41998l3.70787,-0.00773l0.01965,9.41998z" fill="#838481" stroke="#9b9496" stroke-width="0.25" stroke-linecap="butt"/><path d="M218.15767,185.4292l-0.69919,1.10379l-1.10235,0.00229l-0.20375,-1.60298l-1.00212,0.00209" fill="none" stroke="#53524e" stroke-width="0.25" stroke-linecap="round"/><path d="M211.41855,196.26623l0.13527,-3.41808l9.68401,0.12223l-3.97821,4.42292z" fill="#915f3e" stroke="#000000" stroke-width="0" stroke-linecap="round"/><path d="M213.39946,190.13855l5.12786,0.55895l2.28388,2.55859l-9.97,-0.69125z" fill="#653c0a" stroke="#000000" stroke-width="0" stroke-linecap="round"/><path d="M215.40684,196.68515l0.99151,-2.56541" fill="none" stroke="#67360a" stroke-width="0.25" stroke-linecap="round"/><path d="M228.33481,203.09534l-0.0965,7.77923l-2.59019,1.35828l-20.4067,-0.40839l5.15589,-14.44144l16.24054,2.89738z" fill="#1e1f19" stroke="#000000" stroke-width="0" stroke-linecap="round"/><path d="M226.64914,205.69185l-0.00446,-2.14203l-1.02194,-3.4928l2.93076,-0.23158l2.70974,1.91092l0.23157,2.93076z" fill="#b34b00" stroke="#000000" stroke-width="0" stroke-linecap="round"/><path d="M226.76021,204.90246l4.84756,-0.12285l-0.77507,6.76599l-5.86054,0.91416z" fill="#e86b09" stroke="#000000" stroke-width="0" stroke-linecap="round"/><path d="M230.14006,203.76802l-0.00306,-1.4656" fill="none" stroke="#9d3000" stroke-width="0.25" stroke-linecap="round"/><path d="M229.13736,209.51984l0.22362,-0.90238" fill="none" stroke="#9d3000" stroke-width="0.25" stroke-linecap="round"/><path d="M230.25915,206.81176l-0.11463,-0.90167" fill="none" stroke="#9d3000" stroke-width="0.25" stroke-linecap="round"/><path d="M226.99067,207.26954l2.48095,0.33304" fill="none" stroke="#dc5c00" stroke-width="0.25" stroke-linecap="round"/><path d="M228.46167,209.85947l-2.02954,-0.10849" fill="none" stroke="#dc5c00" stroke-width="0.25" stroke-linecap="round"/><path d="M223.83021,205.47229l-1.11353,6.65398l-14.76952,-0.30742l2.46801,-5.86759l9.92102,-0.02069z" fill="#982800" stroke="#000000" stroke-width="0" stroke-linecap="round"/><path d="M216.27973,206.95365l-1.90645,4.85175l-5.07373,-0.21492l2.13309,-4.28854z" fill="#ea6b05" stroke="#000000" stroke-width="0" stroke-linecap="round"/><path d="M223.49386,206.37489l-1.11611,5.41383l-6.65206,-0.21163l2.69634,-4.5152z" fill="#ea6b05" stroke="#000000" stroke-width="0" stroke-linecap="round"/><path d="M211.0015,201.14965l0.30028,7.40458l-6.11283,5.13942l0.26494,-9.54187z" fill="#f0ac12" stroke="#000000" stroke-width="0" stroke-linecap="round"/><path d="M211.36367,169.96155l-3.00215,-5.54765l-1.3066,-11.95953l4.26926,-1.433l0.30651,10.39516l2.8624,6.82962z" fill="#f0ac12" stroke="#000000" stroke-width="0" stroke-linecap="round"/><path d="M212.51446,175.47239l-3.00539,-7.11414l6.12379,0.12964l5.28244,6.39734z" fill="#915f3e" stroke="#000000" stroke-width="0" stroke-linecap="round"/><path d="M209.94756,173.76884l10.5402,0.97487l-0.99299,1.85337l-7.97155,1.58312z" fill="#653c0a" stroke="#000000" stroke-width="0" stroke-linecap="round"/><path d="M212.92889,169.348l3.42609,3.98026" fill="none" stroke="#67360a" stroke-width="0.25" stroke-linecap="round"/><path d="M214.99117,183.73196c0.02428,11.64339 -3.43881,21.08947 -7.73503,21.09842c-4.29622,0.00895 -7.79868,-9.42258 -7.82296,-21.06598c-0.02428,-11.64339 3.43881,-21.08947 7.73504,-21.09842c4.29622,-0.00895 7.79868,9.42259 7.82296,21.06598z" fill="#e56506" stroke="#a55314" stroke-width="0.25" stroke-linecap="butt"/><path d="M211.72126,183.51331c0.01779,8.53019 -2.74392,15.45106 -6.16843,15.4582c-3.42454,0.00714 -6.21509,-6.90215 -6.23287,-15.43234c-0.01779,-8.53019 2.74394,-15.45104 6.16846,-15.45818c3.42454,-0.00714 6.21506,6.90213 6.23284,15.43232z" fill="#921f00" stroke="none" stroke-width="0" stroke-linecap="butt"/><path d="M208.02109,193.21663l-0.03996,-19.16567l2.25481,-0.0047l0.03996,19.16567z" fill="url(#color-1)" stroke="none" stroke-width="0" stroke-linecap="butt"/><path d="M230.28772,166.45091l-3.38217,0.00705l-11.27624,-1.10386l-2.72478,-9.12622l12.16618,-4.64771l5.63601,-0.4627z" fill="#2a1c0c" stroke="#000000" stroke-width="0" stroke-linecap="round"/><path d="M224.87106,163.98196l-7.78088,-0.88571l-5.41171,-0.10144l-0.57241,-4.17018l0.09771,-7.21552l14.54264,-0.36855l0.02492,11.95033z" fill="#8b2300" stroke="#000000" stroke-width="0" stroke-linecap="round"/><path d="M224.53523,165.11007l6.53908,0.09908l-0.21748,3.83361l-1.46585,-0.10969l-4.6277,-2.58335z" fill="#f06900" stroke="#000000" stroke-width="0" stroke-linecap="round"/><path d="M229.0431,164.31149l-0.12048,-3.72016l1.24015,-0.00258l-0.00189,-0.90193l-0.78919,0.00164l-0.00799,-3.83311l0.67666,0.1113l0.22386,-0.78962l-0.78892,0.11437l-0.00799,-3.83311l4.62253,0.10309l-0.10615,3.15691l-1.23874,0.67902l1.46585,0.10969l0.12095,3.94563l-1.91493,0.79318l2.02883,-0.22973l0.12262,4.73482z" fill="#ef6b00" stroke="#000000" stroke-width="0" stroke-linecap="round"/><path d="M225.6353,152.02992l0.02022,9.69558l-0.89932,1.24203l-4.51216,-1.23074l-0.47093,-9.58187z" fill="#f06900" stroke="#000000" stroke-width="0" stroke-linecap="round"/><path d="M218.64691,152.72097l-0.32059,8.45614l-1.01277,0.90405l-4.51004,-0.21609l-0.6802,-1.8024l-0.13035,-8.4552l5.41289,0.66516z" fill="#f06900" stroke="#000000" stroke-width="0" stroke-linecap="round"/><path d="M231.17131,157.65537l-0.01199,-5.7497l0.78916,-0.00164l0.01199,5.7497z" fill="url(#color-2)" stroke="none" stroke-width="0" stroke-linecap="butt"/><path d="M217.88531,198.98336l4.20265,-3.01516l2.10862,1.99986l-2.39925,2.81098z" fill="#1e1f19" stroke="#000000" stroke-width="0" stroke-linecap="round"/><path d="M221.49209,198.57501l3.59932,-4.01602l2.40949,2.09942l-3.69992,3.81581z" fill="#f46901" stroke="#000000" stroke-width="0" stroke-linecap="round"/><path d="M221.994,198.97482l-1.50505,-0.89879l2.59758,-3.81352l2.2051,0.19582z" fill="#b24501" stroke="#000000" stroke-width="0" stroke-linecap="round"/><path d="M203.9136,228.5166l-2.40618,9.42847" fill="none" stroke="#aa0606" stroke-width="0.5" stroke-linecap="round"/><path d="M189.52634,219.49632l-3.53515,4.95235" fill="none" stroke="#aa0606" stroke-width="0.5" stroke-linecap="round"/><path d="M216.07314,243.0463l-0.02237,-10.72966" fill="none" stroke="#aa0606" stroke-width="0.5" stroke-linecap="round"/><path d="M225.00303,230.05873l6.92083,7.91624" fill="none" stroke="#aa0606" stroke-width="0.5" stroke-linecap="round"/><path d="M243.92823,222.83504l-10.54889,-2.77707" fill="none" stroke="#aa0606" stroke-width="0.5" stroke-linecap="round"/><path d="M201.10214,133.07475l-0.84498,-2.51737l3.28537,9.50992" fill="none" stroke="#06527f" stroke-width="0.5" stroke-linecap="round"/><path d="M215.73994,128.00593l-0.00484,-2.33251l0.20896,10.72925" fill="none" stroke="#06527f" stroke-width="0.5" stroke-linecap="round"/><path d="M186.66632,145.51402l-1.31106,-2.32982l4.12005,7.08234" fill="none" stroke="#06527f" stroke-width="0.5" stroke-linecap="round"/><path d="M230.20825,131.14804l1.1163,-1.58846l-6.32463,9.52997" fill="none" stroke="#06527f" stroke-width="0.5" stroke-linecap="round"/><path d="M232.66972,148.21713l11.46987,-3.00959l-1.86468,0.657" fill="none" stroke="#06527f" stroke-width="0.5" stroke-linecap="round"/><path d="M197.48656,153.14841c8.67857,-4.99271 10.4765,6.83271 10.4765,6.83271c0,0 0.38773,17.62028 0.31347,26.14996c-0.07114,8.17074 -0.75005,23.99754 -0.75005,23.99754c0,0 -1.31465,5.66458 -6.11872,6.86732c-3.19282,0.79936 -13.82475,-7.3372 -17.89361,-17.09912c-4.06886,-9.7619 2.86662,-9.36022 2.85453,-15.15816c-0.01209,-5.79794 -5.67494,-12.39588 -3.46486,-18.03109c2.21008,-5.63522 5.90421,-8.56647 14.58278,-13.55916z" fill="#b84400" stroke="#000000" stroke-width="0" stroke-linecap="round"/><path d="M180.71778,156.43025c0,0 17.77926,-1.61604 21.10175,-1.48706c1.4665,0.05693 2.81211,0.29699 3.43402,3.23974c0.60628,2.86889 2.69929,14.49579 2.7584,25.24792c0.05911,10.75213 -1.77643,23.94213 -2.28969,26.52113c-0.51326,2.579 -1.86939,3.53198 -3.78051,3.61554c-2.94554,0.1288 -18.9477,-3.56815 -18.9477,-3.56815l-2.27632,-53.56911z" fill="#7b2200" stroke="#000000" stroke-width="0" stroke-linecap="round"/><path d="M203.38218,168.45223c1.06266,2.51817 1.89319,9.18732 1.89319,9.18732l1.85713,0.08363l-0.21857,14.51652l-1.89262,0.77874c0,0 0.62035,5.74667 -0.97736,8.09897c-9.26084,13.63492 -18.79694,3.8242 -19.18771,-3.1061c-0.18722,-3.32046 3.15869,-14.41355 3.15869,-14.41355c0,0 -4.81696,-13.95411 -5.40026,-17.42397c-0.3977,-2.36551 15.16556,-10.99644 20.76755,2.27841z" fill="#df9431" stroke="#954116" stroke-width="0" stroke-linecap="round"/><path d="M193.35289,160.40241c5.68679,-0.01187 10.30793,5.29523 10.32161,11.85372c0.01368,6.5585 -4.58531,11.8848 -10.27209,11.89666c-5.68679,0.01186 -10.30793,-5.29522 -10.32161,-11.85372c-0.01368,-6.5585 4.58531,-11.8848 10.27209,-11.89667z" fill="#98581e" stroke="none" stroke-width="0" stroke-linecap="butt"/><path d="M193.10144,184.00308c5.68679,-0.01186 10.30791,5.29526 10.32159,11.85372c0.01368,6.55847 -4.58528,11.8848 -10.27206,11.89666c-5.68679,0.01186 -10.3079,-5.29525 -10.32158,-11.85371c-0.01368,-6.55847 4.58528,-11.88481 10.27206,-11.89667z" fill="#98581e" stroke="none" stroke-width="0" stroke-linecap="butt"/><path d="M186.28828,196.64414l-0.04169,-19.99241l13.67903,-0.02852l0.04169,19.99241z" fill="#98581e" stroke="none" stroke-width="0" stroke-linecap="butt"/><path d="M190.36098,175.74067c-3.5979,-3.61499 -4.16555,-8.88347 -1.26786,-11.76751c2.89772,-2.88409 8.16345,-2.29159 11.76141,1.32338c3.5979,3.61499 4.16555,8.88347 1.26786,11.76751c-2.89772,2.88409 -8.16347,2.29156 -11.76141,-1.3234z" data-paper-data="{&quot;index&quot;:null}" fill="#01050a" stroke="#954116" stroke-width="0" stroke-linecap="butt"/><path d="M201.90804,192.23382c2.90966,2.87193 2.36406,8.14277 -1.21877,11.7727c-3.58286,3.62993 -8.84607,4.24441 -11.75579,1.37241c-2.90966,-2.87193 -2.36405,-8.14276 1.21877,-11.77269c3.58286,-3.62993 8.84606,-4.24442 11.75578,-1.37242z" fill="#01050a" stroke="#954116" stroke-width="0" stroke-linecap="butt"/><path d="M198.82414,193.16916c2.00044,0.5099 3.28983,2.22694 2.87996,3.83513c-0.4099,1.60823 -2.36389,2.49858 -4.36433,1.98869c-2.00044,-0.5099 -3.28986,-2.2269 -2.87996,-3.83514c0.4099,-1.60823 2.3639,-2.49858 4.36434,-1.98868z" fill="#5db0c4" stroke="none" stroke-width="0" stroke-linecap="butt"/><path d="M194.63469,169.17575c0.71268,-0.73114 2.02773,-0.60518 2.93725,0.28133c0.9095,0.88654 1.06905,2.19792 0.35631,2.9291c-0.71268,0.73114 -2.02776,0.60521 -2.93725,-0.28133c-0.9095,-0.88654 -1.06902,-2.19792 -0.35631,-2.9291z" data-paper-data="{&quot;index&quot;:null}" fill="#5db0c4" stroke="none" stroke-width="0" stroke-linecap="butt"/><path d="M198.62667,193.94402c1.46811,0.3742 2.41439,1.63434 2.1136,2.81457c-0.30083,1.18028 -1.73484,1.8337 -3.20298,1.4595c-1.46811,-0.3742 -2.41439,-1.63432 -2.11359,-2.81457c0.30083,-1.18028 1.73484,-1.83371 3.20297,-1.4595z" fill="#01050a" stroke="none" stroke-width="0" stroke-linecap="butt"/><path d="M195.08324,169.61299c0.51858,-0.532 1.47542,-0.44036 2.13721,0.2047c0.66179,0.64505 0.77786,1.5993 0.25927,2.1313c-0.51858,0.532 -1.47545,0.44032 -2.13721,-0.20473c-0.66179,-0.64505 -0.77783,-1.59927 -0.25927,-2.13127z" data-paper-data="{&quot;index&quot;:null}" fill="#01050a" stroke="none" stroke-width="0" stroke-linecap="butt"/><path d="M192.69794,165.01621c0,0 2.17298,-0.84286 3.8447,-0.15043c1.67167,0.69244 3.85449,4.54901 3.85449,4.54901" fill="none" stroke="#5db0c4" stroke-width="0.25" stroke-linecap="round"/><path d="M191.56639,168.72117l-1.56887,-1.13599l1.56174,-2.2818" fill="none" stroke="#5db0c4" stroke-width="0.25" stroke-linecap="round"/><path d="M192.7006,166.2979l-1.14401,-2.27616" fill="none" stroke="#5db0c4" stroke-width="0.25" stroke-linecap="round"/><path d="M198.82945,168.84846l1.8513,-0.00386l0.00268,1.28166" fill="none" stroke="#5db0c4" stroke-width="0.25" stroke-linecap="round"/><path d="M200.11885,172.54838c0,0 0.99091,-0.2708 1.28198,0.13972c0.29107,0.41054 0.60856,1.385 0.43196,2.27765c-0.1766,0.89265 -4.02604,2.33975 -5.97726,1.86376c-1.95124,-0.47598 -4.27965,-3.55127 -4.27965,-3.55127" fill="none" stroke="#5db0c4" stroke-width="0.25" stroke-linecap="round"/><path d="M199.27481,177.53443l-0.71828,-2.98909" fill="none" stroke="#5db0c4" stroke-width="0.25" stroke-linecap="round"/><path d="M191.29079,173.13639l-1.00189,-2.41883" fill="none" stroke="#5db0c4" stroke-width="0.25" stroke-linecap="round"/><path d="M190.29512,173.70811l2.27701,-0.71679" fill="none" stroke="#5db0c4" stroke-width="0.25" stroke-linecap="round"/><path d="M183.06503,199.39506l3.98053,-8.17888l5.4655,1.83907l-3.51812,7.66702z" fill="#360e03" stroke="#602a0d" stroke-width="0" stroke-linecap="round"/><path d="M189.19796,167.74709l2.79772,7.95825l-5.61158,1.32835l-3.21107,-8.51044z" data-paper-data="{&quot;index&quot;:null}" fill="#360e03" stroke="#602a0d" stroke-width="0" stroke-linecap="round"/><path d="M202.24479,153.95168c0,0 -10.27452,4.04831 -13.82436,12.69861c-3.54984,8.6503 1.76742,12.67408 1.75577,18.14205c-0.01165,5.46797 -5.90105,7.72218 -2.97506,15.03817c1.99323,4.98373 15.06142,14.14155 15.06142,14.14155l-2.14136,2.90349c0,0 -11.31483,-7.0024 -14.63687,-16.50462c-3.32205,-9.50222 2.73824,-9.61789 2.65201,-15.46695c-0.08625,-5.84905 -4.53412,-9.86802 -3.56402,-15.06439c2.1595,-11.56732 16.70073,-18.46278 16.70073,-18.46278z" fill="#b84400" stroke="#000000" stroke-width="0" stroke-linecap="round"/><path d="M196.71832,217.24854c0,0 -8.66347,3.93012 -19.66171,0.04101c-9.11609,-3.22356 -19.94959,-8.34766 -26.00305,-13.35329c-5.96033,-4.92862 -12.20057,-11.28335 -11.76883,-21.04441c0.43174,-9.76106 4.66641,-13.95105 13.30546,-20.57429c8.28786,-6.35399 22.40224,-11.33833 27.03088,-12.7674c8.37524,-2.58576 20.02682,2.04772 20.02682,2.04772l-7.20838,3.32338l-7.56083,7.32898l-2.69376,5.75168l0.92115,9.2266l2.89412,3.82468l0.18729,3.30796l-3.05633,4.88184l-1.25034,5.92281l2.36238,8.35301l7.41313,8.34247l5.06198,5.38729z" fill="#36322e" stroke="#000000" stroke-width="0" stroke-linecap="round"/><path d="M146.00856,168.22757c0,0 2.58208,-3.43496 4.7785,-5.60186c2.19645,-2.1669 7.02589,-4.34385 7.02589,-4.34385c0,0 3.80556,-0.76634 9.74443,1.78349c5.93887,2.54983 13.54599,8.2694 13.54599,8.2694l-2.32317,10.46709l-1.81058,-3.24313c0,0 -7.0759,-8.32185 -11.02366,-9.71771c-3.94776,-1.39586 -10.27729,2.18603 -10.27729,2.18603z" fill="url(#color-3)" stroke="#000000" stroke-width="0" stroke-linecap="round"/><path d="M156.99732,199.66688c0,0 6.34442,3.55546 10.28632,2.14315c3.9419,-1.41231 10.98304,-9.76361 10.98304,-9.76361l1.79703,-3.25064l2.3668,10.45729c0,0 -7.58321,5.75124 -13.51139,8.32581c-5.92818,2.57457 -9.7369,1.82412 -9.7369,1.82412c0,0 -4.83848,-2.15678 -7.04395,-4.31451c-2.20544,-2.15773 -6.05369,-5.20347 -6.05369,-5.20347z" data-paper-data="{&quot;index&quot;:null}" fill="url(#color-4)" stroke="#000000" stroke-width="0" stroke-linecap="round"/><path d="M166.55858,200.11254c-6.6297,2.28414 -17.85374,2.02146 -17.85374,2.02146c0,0 -9.24441,-4.53666 -9.4179,-18.1991c-0.11214,-8.83074 7.00107,-16.2491 7.00107,-16.2491c0,0 3.92762,-2.10298 15.3314,-0.57312c14.55828,1.95304 23.66584,17.08709 23.66584,17.08709c0,0 -3.95664,10.82406 -18.72668,15.91278z" fill="url(#color-5)" stroke="#000000" stroke-width="0" stroke-linecap="round"/><path d="M138.97465,185.55904l-0.00339,-1.62345l44.32901,-0.09244l0.00339,1.62345z" fill="#34332c" stroke="none" stroke-width="0" stroke-linecap="butt"/><path d="M194.77744,151.53062l7.21568,0.16053c0,0 -11.99596,6.23547 -16.02183,15.48271c-4.02587,9.24723 2.65304,10.61016 2.73942,16.14584c0.08638,5.53565 -5.20717,10.84425 -2.4869,18.43903c2.64346,7.38041 15.54441,15.06578 15.54441,15.06578l-7.75573,0.36728c0,0 -11.20789,-6.54909 -14.46501,-16.47251c-3.25712,-9.92342 3.76318,-11.92833 3.39469,-15.63195c-0.33208,-3.33761 -5.16922,-9.28491 -3.64428,-17.54842c0.94491,-5.12039 15.47958,-16.00824 15.47958,-16.00824z" fill="#f56900" stroke="#000000" stroke-width="0" stroke-linecap="round"/><path d="M185.73283,182.57542c1.6438,-0.00343 2.97825,0.92251 2.98065,2.06818c0.00238,1.14567 -1.32819,2.07719 -2.97199,2.08061c-1.64379,0.00343 -2.97825,-0.92254 -2.98064,-2.06821c-0.00239,-1.14567 1.32819,-2.07716 2.97198,-2.08058z" fill="#ea5e00" stroke="none" stroke-width="0" stroke-linecap="butt"/><path d="M225.37149,221.15112c-0.25064,-0.66409 0.20401,-1.66316 1.31728,-2.38391c1.11327,-0.72075 2.2693,-0.77925 2.71426,-0.2262c1.40283,1.74369 0.88057,2.74322 -0.2327,3.46398c-1.11327,0.72075 -2.73196,1.97284 -3.79881,-0.85383z" fill="#443e42" stroke="none" stroke-width="0" stroke-linecap="butt"/><path d="M227.57084,220.05059c1.11327,-0.72075 2.32849,-0.82204 2.71424,-0.2262c0.38575,0.59582 -0.20401,1.66316 -1.31728,2.38391c-1.11327,0.72079 -2.32849,0.82207 -2.71424,0.22623c-0.38575,-0.59584 0.204,-1.66319 1.31728,-2.38394z" fill="#7c7080" stroke="none" stroke-width="0" stroke-linecap="butt"/><path d="M229.85915,221.21614l-3.04452,-0.26542" fill="none" stroke="#3f393c" stroke-width="0.25" stroke-linecap="round"/><path d="M243.59946,194.6149l-0.04568,-21.90361l40.32839,-0.0841l0.04567,21.9036z" fill="#817c7c" stroke="none" stroke-width="0" stroke-linecap="butt"/><path d="M301.99631,221.73806l-0.05181,-24.84362l18.82074,-0.28523l-2.20775,24.35636z" fill="#fc6900" stroke="#000000" stroke-width="0" stroke-linecap="round"/><path d="M318.39951,145.20489l2.56286,25.57631l-19.07323,-0.45219l0.19658,-26.07403z" fill="#fc6900" stroke="#000000" stroke-width="0" stroke-linecap="round"/><path d="M309.81847,121.85494l8.83247,23.59539l-17.31708,-0.70179l-5.8211,-23.60171z" fill="#ef5200" stroke="#000000" stroke-width="0" stroke-linecap="round"/><path d="M310.07321,244.01289l-13.1246,-0.05711l5.04652,-22.80195l17.06358,-0.52754z" fill="#ef5200" stroke="#000000" stroke-width="0" stroke-linecap="round"/><path d="M310.82501,243.51938l-11.25172,19.70166l-12.54646,0.51812l9.99648,-19.94502z" fill="#e04409" stroke="#000000" stroke-width="0" stroke-linecap="round"/><path d="M278.60745,173.17393l10.14154,-17.39491l4.49017,-0.00937l0.11612,55.68127l-4.49047,-0.13304l-10.06313,-16.78316z" fill="#8d8686" stroke="#999592" stroke-width="0.5" stroke-linecap="round"/><path d="M299.49154,103.67417l11.08078,18.67116l-14.30516,-0.46212l-9.57508,-18.67431z" fill="#e04409" stroke="#000000" stroke-width="0" stroke-linecap="round"/><path d="M292.15746,145.42361l-3.64779,-19.23332l-7.55417,-18.3232l6.60464,-4.52334l9.65988,18.92011l5.45849,22.53653l-0.26154,25.62141l-10.20708,0.14126z" fill="#ff9b0f" stroke="#000000" stroke-width="0" stroke-linecap="butt"/><path d="M258.27574,188.82548l-0.02134,-10.23476l14.46983,-0.03017l0.02134,10.23475z" fill="#f7810e" stroke="none" stroke-width="0" stroke-linecap="butt"/><path d="M258.03778,187.53192l-0.01571,-7.52901l14.82274,-0.0309l0.01571,7.52901z" fill="#ff7500" stroke="none" stroke-width="0" stroke-linecap="butt"/><path d="M257.47771,184.14336c0.00312,1.49436 -0.91606,2.70767 -2.05308,2.71004c-1.13701,0.00236 -2.06123,-1.2071 -2.06435,-2.70145c-0.00312,-1.49436 0.91606,-2.70766 2.05308,-2.71004c1.13701,-0.00236 2.06123,1.2071 2.06435,2.70144z" fill="#8e9084" stroke="#73410d" stroke-width="0.25" stroke-linecap="butt"/><path d="M256.65422,184.14508c0.00312,1.49436 -0.91606,2.70767 -2.05308,2.71004c-1.13701,0.00236 -2.06124,-1.2071 -2.06436,-2.70145c-0.00312,-1.49436 0.91606,-2.70766 2.05308,-2.71003c1.13701,-0.00236 2.06124,1.20709 2.06436,2.70144z" fill="#8e9084" stroke="#a0a49c" stroke-width="0.25" stroke-linecap="butt"/><path d="M272.62818,188.91319l-0.02183,-10.47003l7.06483,3.04396l-0.10881,4.2353z" fill="#f44c00" stroke="none" stroke-width="0" stroke-linecap="butt"/><path d="M281.87023,258.18466l6.58078,-15.9476l3.86442,-21.05276l-0.04907,-23.5316l10.19582,-0.37209l-0.22572,23.88297l-5.06382,22.55847l-8.97774,19.86091z" fill="#ff9b0f" stroke="#000000" stroke-width="0" stroke-linecap="butt"/><path d="M293.61099,197.4944l-0.05672,-27.19979l16.09204,-0.03355l0.05672,27.19979z" fill="#666462" stroke="none" stroke-width="0" stroke-linecap="butt"/><path d="M296.31079,194.64061l-0.04603,-22.07315l8.82926,-0.01841l0.04603,22.07314z" fill="#000000" stroke="none" stroke-width="0" stroke-linecap="butt"/><path d="M266.358,172.01953l11.34396,2.68209l0.11568,-6.31364l6.18644,0.88901l-3.21575,2.5836l0.01908,9.14797l-13.02462,-5.38434l-3.60203,2.71327z" fill="#ffffff" stroke="#bb44c4" stroke-width="0.375" stroke-linecap="round"/><path d="M292.87714,161.01235l-0.11757,5.41175l-13.91845,-1.51712l-2.4854,-17.90432l5.4147,1.53485l-3.86078,2.19843l4.14641,11.20087l8.12097,1.78691l-0.90328,-0.64232l-0.27032,-6.05517l7.60319,0.62838l1.29436,2.8319z" fill="#ffffff" stroke="#bb44c4" stroke-width="0.375" stroke-linecap="round"/><path d="M283.26269,184.48227l-0.237,9.92156l2.45262,2.18524l-6.69939,0.27166l0.50142,-6.70101l-9.79032,0.92232l-1.43127,-6.69697l3.22865,3.60095z" fill="#ffffff" stroke="#bb44c4" stroke-width="0.375" stroke-linecap="round"/><path d="M268.7728,217.88345l-0.00994,-4.76725l5.25523,-13.1532l15.33627,1.77183l-0.37549,5.28344l5.54274,1.14805l0.00537,2.57689l-11.34234,-1.90902l3.34,-4.77425l-9.14717,0.40558l-6.42264,9.41911l4.6481,4.62874z" fill="#ffffff" stroke="#bb44c4" stroke-width="0.375" stroke-linecap="round"/><path d="M324.55373,213.51518l11.72704,1.00631l-5.29875,-7.71966l6.56033,-5.16749l-1.27635,5.80071l5.81949,10.29547l-15.20314,0.2894l-3.08691,2.58333z" fill="#ffffff" stroke="#bb44c4" stroke-width="0.375" stroke-linecap="round"/><path d="M325.46492,156.17715l13.53272,1.90444l-6.94015,8.38942l0.41687,14.55864l-3.21223,4.2586l-1.1991,-18.93775l3.20901,-5.80475l-8.37706,-1.01328l-0.65872,-6.95628z" fill="#ffffff" stroke="#bb44c4" stroke-width="0.375" stroke-linecap="round"/><path d="M326.75486,183.93254c0.02071,9.93055 -6.08316,17.99367 -13.63338,18.00942c-7.5502,0.01575 -13.68767,-8.02182 -13.70838,-17.95239c-0.02071,-9.93055 6.08316,-17.99367 13.63338,-18.00942c7.5502,-0.01575 13.68767,8.02182 13.70838,17.95239z" fill="url(#color-6)" stroke="none" stroke-width="0" stroke-linecap="butt"/><path d="M322.30804,182.93164c0.01521,7.28985 -4.19362,13.20826 -9.40068,13.21912c-5.20703,0.01086 -9.44053,-5.88994 -9.45573,-13.1798c-0.01521,-7.28985 4.19362,-13.20826 9.40068,-13.21913c5.20703,-0.01086 9.44053,5.88994 9.45573,13.1798z" fill="url(#color-7)" stroke="none" stroke-width="0" stroke-linecap="butt"/><path d="M319.21231,183.94827c0.01932,9.26107 -5.00028,16.77921 -11.21152,16.79216c-6.21127,0.01295 -11.26214,-7.48417 -11.28144,-16.74526c-0.01932,-9.26107 5.00028,-16.77921 11.21152,-16.79216c6.21127,-0.01296 11.26214,7.48417 11.28144,16.74526z" fill="url(#color-8)" stroke="none" stroke-width="0" stroke-linecap="butt"/><path d="M319.21231,183.94827c0.01932,9.26107 -5.00028,16.77921 -11.21152,16.79216c-6.21127,0.01295 -11.26214,-7.48417 -11.28144,-16.74526c-0.01932,-9.26107 5.00028,-16.77921 11.21152,-16.79216c6.21127,-0.01296 11.26214,7.48417 11.28144,16.74526z" fill="url(#color-9)" stroke="none" stroke-width="0" stroke-linecap="butt"/><path d="M321.4989,182.46194c0.01466,7.02951 -5.61168,12.7398 -12.56681,12.75431c-6.95512,0.0145 -12.60523,-5.6723 -12.61989,-12.70179c-0.01466,-7.02951 5.61168,-12.7398 12.56681,-12.7543c6.95512,-0.0145 12.60523,5.67229 12.61989,12.70178z" fill="url(#color-10)" stroke="none" stroke-width="0" stroke-linecap="butt"/><path d="M322.04006,183.60567c0.01614,7.73619 -4.61405,14.01729 -10.34178,14.02924c-5.72772,0.01194 -10.38407,-6.24979 -10.4002,-13.98598c-0.01614,-7.73619 4.61405,-14.01726 10.34178,-14.02921c5.72772,-0.01194 10.38407,6.24979 10.4002,13.98595z" fill="url(#color-11)" stroke="none" stroke-width="0" stroke-linecap="butt"/><path d="M322.04006,183.60567c0.01614,7.73619 -4.61405,14.01729 -10.34178,14.02924c-5.72772,0.01194 -10.38407,-6.24979 -10.4002,-13.98598c-0.01614,-7.73619 4.61405,-14.01726 10.34178,-14.02921c5.72772,-0.01194 10.38407,6.24979 10.4002,13.98595z" fill="url(#color-12)" stroke="none" stroke-width="0" stroke-linecap="butt"/><path d="M322.04006,183.60567c0.01614,7.73619 -4.61405,14.01729 -10.34178,14.02924c-5.72772,0.01194 -10.38407,-6.24979 -10.4002,-13.98598c-0.01614,-7.73619 4.61405,-14.01726 10.34178,-14.02921c5.72772,-0.01194 10.38407,6.24979 10.4002,13.98595z" fill="url(#color-13)" stroke="none" stroke-width="0" stroke-linecap="butt"/><path d="M322.04006,183.60567c0.01614,7.73619 -4.61405,14.01729 -10.34178,14.02924c-5.72772,0.01194 -10.38407,-6.24979 -10.4002,-13.98598c-0.01614,-7.73619 4.61405,-14.01726 10.34178,-14.02921c5.72772,-0.01194 10.38407,6.24979 10.4002,13.98595z" fill="url(#color-14)" stroke="none" stroke-width="0" stroke-linecap="butt"/><path d="M305.14209,172.84055l0.00591,2.83459l4.9114,7.33392l-9.41587,-4.87648l0.1138,-7.21555l13.51149,-8.27427l13.53676,3.83712l1.68412,4.37724l-13.02244,-4.35359z" fill="#ffffff" stroke="#bb44c4" stroke-width="0.375" stroke-linecap="round"/><path d="M307.62643,190.22948l-5.53306,3.49035l0.13341,2.19011l9.42286,8.22645l10.0453,-2.21133l1.00445,-12.62892l3.35801,3.85836l-2.167,11.21404l-13.65082,3.24961l-10.71426,-9.64106l0.23835,-9.27736z" fill="#ffffff" stroke="#bb44c4" stroke-width="0.375" stroke-linecap="round"/></g></g></svg>