<svg version="1.1" xmlns="http://www.w3.org/2000/svg" xmlns:xlink="http://www.w3.org/1999/xlink" width="113.55352" height="147.279" viewBox="0,0,113.55352,147.279"><defs><linearGradient x1="291.27853" y1="137.73857" x2="291.27853" y2="155.17729" gradientUnits="userSpaceOnUse" id="color-1"><stop offset="0" stop-color="#db642b"/><stop offset="1" stop-color="#db312c"/></linearGradient><linearGradient x1="291.25019" y1="125.1465" x2="291.25019" y2="146.67219" gradientUnits="userSpaceOnUse" id="color-2"><stop offset="0" stop-color="#db642b"/><stop offset="1" stop-color="#db312c"/></linearGradient><linearGradient x1="219.16044" y1="115.74621" x2="219.16044" y2="157.00674" gradientUnits="userSpaceOnUse" id="color-3"><stop offset="0" stop-color="#dc712b"/><stop offset="1" stop-color="#db2c2c"/></linearGradient><linearGradient x1="273.59607" y1="117.34216" x2="273.59607" y2="157.40178" gradientUnits="userSpaceOnUse" id="color-4"><stop offset="0" stop-color="#dc712b"/><stop offset="1" stop-color="#db2c2c"/></linearGradient></defs><g transform="translate(-187.3891,-107.33287)"><g data-paper-data="{&quot;isPaintingLayer&quot;:true}" fill-rule="nonzero" stroke-linecap="butt" stroke-linejoin="miter" stroke-miterlimit="10" stroke-dasharray="" stroke-dashoffset="0" style="mix-blend-mode: normal"><path d="M296.50172,141.27631c0.97308,0.97308 0,1.94615 0,1.94615l-0.00978,-0.00978c-0.27523,0.36697 -0.55045,0.73393 -0.82568,1.10091c0,0 -0.82568,1.10091 -1.92659,0.27523c-1.10091,-0.82568 -0.27523,-1.92659 -0.27523,-1.92659c0.27523,-0.36697 0.55045,-0.73393 0.82568,-1.10091l0.26544,-0.28501c0,0 0.97308,-0.97308 1.94615,0z" fill="#b9431e" stroke="none" stroke-width="0.5"/><path d="M289.89419,153.97471c0.03859,0.08469 0.06227,0.18866 0.06227,0.31633c0,0.68807 -0.68807,0.68806 -0.68807,0.68806h-0.36697c-0.0279,0 -0.05589,0.00012 -0.08394,0.00033c-0.0927,0.08091 -0.49309,0.38596 -0.90499,0.0266c-0.868,0.03158 -1.76002,0.04643 -2.55252,-0.25314c-2.07734,-0.78526 -2.31247,-2.90259 -1.49787,-4.76183c1.29118,-2.94697 3.81011,-6.00293 6.42336,-7.96287c1.15334,-1.15882 2.17503,-2.78028 3.53472,-3.70809c0.53931,-0.368 1.71066,-0.9274 2.35674,-0.29532c0.64038,0.62651 -0.26517,3.32006 -0.58478,4.05258c-0.06271,0.14372 -0.14631,0.27654 -0.23366,0.40746c0.76065,-0.59242 1.265,-0.98543 1.89683,-1.30414l-0.08409,-0.14014l0.90773,-0.54464c0.10552,-0.06583 0.23017,-0.10387 0.36371,-0.10387c0.38001,0 0.68807,0.30806 0.68807,0.68807c0,0.11557 -0.02849,0.22447 -0.07883,0.32009l-0.36078,0.72156l-0.02015,-0.01008l-0.00998,0.0641c-1.4136,1.8848 -1.87117,4.25374 -3.11925,6.23849c-1.37747,2.1905 -3.67714,3.82007 -5.64755,5.56043z" fill="url(#color-1)" stroke="none" stroke-width="0.5"/><path d="M290.24789,152.90503c2.94671,-2.41475 4.70753,-6.96534 6.26504,-10.04531c0.38893,-1.55573 2.11467,-3.1933 0.21444,-1.29308l-0.55046,0.55045c-0.12451,0.12451 -0.29653,0.20153 -0.48653,0.20153c-0.38001,0 -0.68807,-0.30806 -0.68807,-0.68807v-0.91742h0.16607c-0.02056,-0.48435 0.01913,-0.93256 0.01741,-1.65137c-0.00045,-0.18895 -0.08448,-0.53473 0.01531,-0.77615c-0.20362,0.15964 -0.47849,0.35896 -0.62459,0.44874c-0.99261,0.60994 -1.59831,1.38101 -2.47198,2.13161c-0.99672,0.85633 -2.43206,1.55164 -3.19536,2.63479c-0.67929,0.96393 -1.24281,1.97912 -2.08999,2.83649c-1.34621,1.31088 -2.34771,3.36674 -2.55409,5.2693c-0.04302,0.39659 -0.30958,1.43269 -0.08597,1.79501c0.49199,0.79716 1.86752,0.9162 2.64874,0.61111c0.74034,-0.28913 1.48893,-0.56097 2.20182,-0.91742l0.80578,-0.20569c0,0 0.20257,-0.05064 0.41243,0.01546zM287.02547,155.39114c-1.7509,0.4694 -4.22324,-0.28498 -4.31667,-2.3845c-0.11903,-2.6746 1.32036,-5.78883 3.13729,-7.64246c0.80313,-0.79129 1.3018,-1.77572 1.94669,-2.66805c0.85981,-1.18974 2.31002,-1.92918 3.4101,-2.86976c1.10128,-0.94161 2.21848,-2.62026 3.75337,-2.89557c0.46432,-0.08329 1.04827,-0.13307 1.40415,0.17657c0.41406,0.36026 0.41762,1.62829 0.20165,2.6257c0.68702,-0.68134 1.48477,-1.15244 2.32224,0.14211c0.45834,0.7085 -0.89267,2.70989 -1.0807,3.46199c-2.19076,4.42627 -4.74951,11.0378 -10.01968,12.35533c0,0 -0.52236,0.13059 -0.75843,-0.30136z" fill="#561f0e" stroke="none" stroke-width="0.5"/><path d="M297.69748,129.51334c1.20113,1.20113 0,2.40226 0,2.40226l-0.01207,-0.01207c-0.33973,0.45298 -0.67946,0.90594 -1.01919,1.35892c0,0 -1.01919,1.35892 -2.37811,0.33973c-1.35892,-1.01919 -0.33973,-2.37811 -0.33973,-2.37811c0.33973,-0.45298 0.67946,-0.90594 1.01919,-1.35892l0.32766,-0.3518c0,0 1.20113,-1.20113 2.40225,0z" fill="#b9431e" stroke="none" stroke-width="0.5"/><path d="M289.5414,145.18776c0.04763,0.10453 0.07687,0.23288 0.07687,0.39047c0,0.84933 -0.84933,0.84933 -0.84933,0.84933h-0.45298c-0.03444,0 -0.06899,0.00013 -0.10362,0.0004c-0.11443,0.09987 -0.60865,0.47641 -1.11708,0.03283c-1.07143,0.03898 -2.1725,0.05731 -3.15073,-0.31247c-2.56419,-0.9693 -2.85443,-3.58285 -1.84892,-5.87782c1.59378,-3.63763 4.70306,-7.40979 7.92875,-9.82906c1.42363,-1.43041 2.68477,-3.43187 4.36312,-4.57712c0.6657,-0.45425 2.11157,-1.14475 2.90906,-0.36453c0.79046,0.77334 -0.32731,4.09816 -0.72183,5.00235c-0.07741,0.17741 -0.1806,0.34135 -0.28842,0.50296c0.93892,-0.73125 1.56147,-1.21638 2.34138,-1.60978l-0.10379,-0.17298l1.12046,-0.67228c0.13024,-0.08126 0.28411,-0.12822 0.44895,-0.12822c0.46907,0 0.84933,0.38025 0.84933,0.84933c0,0.14265 -0.03517,0.27709 -0.0973,0.39512l-0.44533,0.89066l-0.02486,-0.01243l-0.01232,0.07912c-1.74489,2.32652 -2.3097,5.25067 -3.85028,7.70056c-1.7003,2.70387 -4.53891,4.71534 -6.97112,6.86357z" fill="url(#color-2)" stroke="none" stroke-width="0.5"/><path d="M289.978,143.86739c3.6373,-2.98067 5.8108,-8.59775 7.73332,-12.39955c0.48009,-1.92033 2.61026,-3.94169 0.2647,-1.59612l-0.67946,0.67946c-0.15369,0.15369 -0.36602,0.24876 -0.60056,0.24876c-0.46907,0 -0.84933,-0.38025 -0.84933,-0.84933v-1.13243h0.20499c-0.02538,-0.59786 0.02361,-1.15112 0.02149,-2.03838c-0.00056,-0.23322 -0.10428,-0.66005 0.0189,-0.95805c-0.25134,0.19706 -0.59064,0.44309 -0.77098,0.5539c-1.22524,0.75289 -1.9729,1.70466 -3.05131,2.63118c-1.23031,1.05702 -3.00204,1.91529 -3.94424,3.25228c-0.83849,1.18984 -1.53408,2.44296 -2.5798,3.50126c-1.6617,1.6181 -2.89792,4.15578 -3.15267,6.50422c-0.05311,0.48953 -0.38213,1.76846 -0.10611,2.21569c0.60729,0.98399 2.3052,1.13092 3.2695,0.75432c0.91385,-0.35689 1.83787,-0.69245 2.71784,-1.13243l0.99462,-0.25389c0,0 0.25005,-0.06251 0.50909,0.01909zM286.00037,146.93616c-2.16124,0.5794 -5.213,-0.35178 -5.32833,-2.94334c-0.14693,-3.30142 1.6298,-7.1455 3.87255,-9.43355c0.99134,-0.97673 1.60689,-2.19188 2.40291,-3.29334c1.06132,-1.46857 2.8514,-2.38131 4.20929,-3.54232c1.35938,-1.16229 2.73841,-3.23435 4.63302,-3.57418c0.57315,-0.10281 1.29393,-0.16427 1.73322,0.21794c0.5111,0.44469 0.5155,2.0099 0.24892,3.24108c0.84803,-0.84102 1.83274,-1.42253 2.86647,0.17541c0.56576,0.87454 -1.10188,3.34499 -1.33397,4.27335c-2.70419,5.46362 -5.86262,13.62463 -12.3679,15.25094c0,0 -0.64479,0.16119 -0.93618,-0.37199z" fill="#561f0e" stroke="none" stroke-width="0.5"/><path d="M291.80883,192.47671c1.20113,1.20113 0,2.40226 0,2.40226l-0.01207,-0.01207c-0.33973,0.45298 -0.67946,0.90594 -1.01919,1.35892c0,0 -1.01919,1.35892 -2.37811,0.33973c-1.35892,-1.01919 -0.33973,-2.37811 -0.33973,-2.37811c0.33973,-0.45298 0.67946,-0.90594 1.01919,-1.35892l0.32766,-0.3518c0,0 1.20113,-1.20113 2.40225,0z" fill="#b9431e" stroke="none" stroke-width="0.5"/><path d="M243.03565,195.54234c0,1.69865 -1.69865,1.69865 -1.69865,1.69865l-1.91745,-0.00328c-3.45672,-0.4263 -6.79135,-0.89514 -10.27171,-0.91281c-1.49761,-0.32764 -3.05351,-0.35583 -4.5419,-0.72309c-2.34654,-0.579 -4.11256,-2.20202 -5.75983,-3.84106c-2.75741,-2.74363 -4.97136,-5.11386 -5.47009,-9.16931c-0.32873,-2.67306 -0.59068,-5.42931 -0.3825,-8.12493c-0.06823,-0.08492 -0.13134,-0.17465 -0.18853,-0.26989c-0.48312,-0.80447 -0.01348,-1.88713 0.15,-2.81117c0.53221,-3.00835 2.15827,-5.14611 4.4194,-7.04433l1.35035,-1.1253c0.29582,-0.25008 0.67831,-0.40085 1.09602,-0.40085c0.93814,0 1.69865,0.76051 1.69865,1.69865c0,0.43136 -0.16079,0.82517 -0.4257,1.12477l-0.36648,0.41883c1.30212,-0.73565 2.74145,-1.2238 4.36543,-1.6114c3.13011,-0.74708 7.24691,-1.64196 10.42883,-0.64137c3.38249,1.06366 6.29819,3.94006 8.75326,6.67524c3.68935,-3.50937 9.19438,-4.5503 14.14365,-5.58816c1.85977,-0.38999 3.80252,-0.73406 5.68236,-0.45646c2.97225,0.43892 5.17689,2.95568 6.56899,5.35093c0,0 0.84277,1.47484 -0.63207,2.31761c-1.47484,0.84277 -2.31762,-0.63208 -2.31762,-0.63208c-3.0964,-5.5388 -9.92583,-3.70883 -14.89134,-1.75279c-2.39085,0.94182 -4.73791,1.69122 -6.44873,3.40556c0.15456,0.4709 0.16407,1.12239 -0.52711,1.72716c-0.37809,0.33084 -0.74222,0.45199 -1.06755,0.45856l-0.22307,0.33775c0,0 -0.94224,1.41337 -2.35561,0.47113c-1.41336,-0.94224 -0.47113,-2.35561 -0.47113,-2.35561l0.38521,-0.57067c-1.48385,-1.62149 -2.94377,-3.02064 -4.8988,-4.32264c-0.23435,-0.15607 -2.25134,-1.68018 -2.75268,-1.83528c-1.50166,-0.46459 -3.42921,-0.10533 -4.93692,0.07181c-2.65098,0.31146 -6.06488,0.72168 -8.25303,2.39992c-1.5465,1.18612 -1.87587,2.99449 -2.90373,4.41239c-0.57124,0.788 -1.32662,1.42074 -2.03274,2.09501c0.06902,1.48183 0.32106,2.94373 0.41705,4.47481c0.10958,1.74788 0.07691,3.35279 0.93624,4.96902c1.23528,2.32335 4.26384,5.08461 6.53545,6.31447c1.59685,0.86455 3.52962,0.77864 5.28698,1.17574c3.42416,-0.02135 6.71642,0.46838 10.11211,0.89909l1.70634,-0.00328c0,0 1.69865,0 1.69865,1.69865z" fill="#c3540b" stroke="none" stroke-width="0.5"/><path d="M215.87788,190.72494c-0.30714,-0.39101 -0.05859,-0.88812 -0.05859,-0.88812l0.22649,-0.45297c0.77031,-1.51961 1.02815,-2.35268 2.46805,-3.43261c1.84155,-1.82611 4.44536,-2.89139 6.82993,-3.77874c2.35836,-0.87759 4.08044,-2.61197 6.2202,-3.79412c2.92412,-1.61548 6.53265,-2.05757 9.27359,-3.93482c2.09058,0.26158 4.08686,0.26612 6.11724,0.92016c3.6592,1.17872 6.95709,3.08445 10.67614,4.14323c5.10299,1.45278 10.3045,1.73972 14.18818,5.6415c2.47397,3.69776 4.48751,7.38642 3.57397,12.02608c-0.35834,1.81995 -1.70313,2.31353 -2.99484,3.42269c-2.13934,1.83699 -4.48948,3.89588 -7.5778,3.12121c-0.80646,-0.2023 -1.44759,-0.81992 -2.1915,-1.19128c-1.45873,-0.7372 -2.91898,-1.85546 -3.9134,-3.1813c-0.55936,-0.74578 -0.46101,-2.33447 -1.38857,-2.42765c-1.70143,-0.17091 -4.07947,0.26568 -5.86903,0.26293c-3.43357,-0.00528 -7.17313,-0.35324 -10.57151,-0.91986c-2.21731,-0.44325 -5.67561,-2.06112 -7.86816,-0.97151c-2.75952,1.37138 -2.78591,5.14787 -3.71921,7.66572c-0.39624,1.06898 -0.58066,2.22383 -1.75019,2.76751c-1.03601,0.48161 -3.29158,0.07815 -4.36164,-0.18253c-2.41111,-0.49422 -4.73941,-1.52381 -7.09289,-2.28435c-1.33373,-0.431 -2.39351,-0.41212 -3.22522,-1.80016c-0.52077,-0.86912 0.17257,-2.63382 0.39451,-3.51824c0.62737,-2.50014 1.77999,-4.80329 2.61426,-7.21277z" fill="#514542" stroke="#151211" stroke-width="1.5"/><path d="M228.70321,218.5801c-0.5051,0.25431 -0.94749,-0.18809 -0.94749,-0.18809l-0.67946,-0.67946c-2.5855,-2.72326 -1.52801,-9.32362 0.0237,-12.42703c0.51532,-2.57663 2.17141,-6.64883 4.05307,-8.47845c1.39255,-1.35404 3.49829,-1.2149 5.19617,-1.59236c2.93265,-0.65197 5.46534,-0.92127 8.54063,-0.92127c3.25684,0.01381 6.43798,0.6026 9.63161,1.27688c1.64878,0.34812 3.3077,0.66851 4.55818,1.91622c1.1324,1.1299 1.40872,2.52475 1.80527,4.00467c1.11656,4.16702 0.67891,8.64949 0.22193,12.91254c-1.99867,4.07244 -6.61346,7.34832 -11.33803,6.72204c-1.74734,-0.23162 -3.34031,-1.62944 -4.70907,-2.65486c-0.97692,-0.73187 -2.72239,-1.97 -3.32569,-3.21644c0.2818,2.47074 -3.21315,5.57729 -5.1821,6.28705c-2.46122,0.88721 -5.60334,-0.84227 -7.84869,-2.96142z" fill="#251e1f" stroke="none" stroke-width="0.5"/><path d="M212.03205,167.92628c-0.4246,-0.42973 -0.4246,-1.01034 -0.4246,-1.01034l0.24207,-1.78722c1.05316,-1.48997 1.22311,-2.88955 1.99986,-4.48451c0.74128,-1.52215 2.07835,-2.84667 3.18937,-4.16038c0.79707,-0.9425 1.29391,-2.07273 2.19374,-2.94389c4.39483,-4.25479 12.3859,-5.3076 18.552,-6.1847c1.45134,0 2.89193,-0.26856 4.34326,-0.26359c4.21488,0.01444 8.28329,1.59341 12.22148,2.65431c6.14057,1.65419 12.97063,4.43818 17.29311,8.72187c3.72315,3.68974 5.49837,8.8256 5.50908,13.62026c0,2.35428 0.09789,4.89663 -0.32216,7.21677c-0.32101,1.77316 -1.23994,3.64954 -1.8553,5.3702c-0.5408,1.51217 -0.69892,2.52844 -1.66678,3.94011c-1.94146,2.83172 -4.84047,3.09869 -8.04672,4.2321c-3.45383,1.22093 -6.43917,3.01218 -10.08458,3.92901c-3.25721,0.81921 -7.08782,0.82494 -10.44003,0.82321c-11.98813,-1.15176 -24.05712,-5.07031 -30.76354,-14.12608c-1.49672,-2.02106 -2.78063,-4.32055 -3.47203,-6.63109c-0.33779,-1.12884 -1.31936,-2.26537 -0.97983,-3.39381c0.05859,-0.19472 0.15196,-0.37298 0.2711,-0.53906l-0.04358,-0.02253l0.88466,-1.27004c0.29341,-0.43834 0.843,-0.73338 1.47259,-0.73338c0.76412,0 1.4104,0.4346 1.62387,1.03249l0.54383,1.40531c0.90216,1.30072 1.36852,2.90055 2.47368,4.07288c2.02775,2.151 4.72909,3.71232 7.5135,5.01682c1.84819,0.86588 3.99252,-0.13917 6.1127,0.44852c2.1504,0.59606 3.25491,2.29942 4.56174,3.72076c2.6869,1.9731 4.95822,1.55342 8.28859,1.37413c2.29906,-0.12377 5.57522,0.31911 7.7001,-0.60076c0.8108,-0.351 0.96868,-1.3225 1.42121,-2.00002c0.93593,-1.40126 1.83819,-2.02431 3.48437,-2.69895c2.80499,-1.14953 6.20227,-1.53026 8.90479,-2.80065c1.50894,-0.70931 2.99405,-2.09525 4.32523,-3.0284c3.19527,-4.66584 -0.08043,-8.68496 -4.93132,-10.95455c-0.23713,-0.11095 -2.50947,-1.33567 -2.87534,-1.41023c-0.93617,-0.19079 -2.49937,0.2367 -3.37256,0.29276c-3.89091,0.24981 -6.55443,1.92867 -9.66436,3.87243c-1.47409,0.92133 -2.62495,1.19215 -3.75595,2.44036c-0.28827,0.46679 1.32759,5.25506 0.95778,5.77906c-0.66047,0.93586 -3.48876,-2.50553 -5.16308,-2.81265c-1.11173,-0.20392 -1.56296,-1.4258 -2.26362,-2.19675c-1.20818,-1.32938 -1.92903,-2.65209 -3.51292,-3.76687c-3.40101,-2.39371 -6.9687,-2.81428 -11.12377,-2.53978c-1.9522,0.12897 -4.63144,-0.01614 -6.42813,0.80768c-1.08876,0.49922 -1.25244,1.83276 -1.79987,2.78481c0,0 -0.75965,1.30871 -2.27898,0.65435c-1.24922,-0.53802 -0.95774,-1.51844 -0.81461,-1.85001z" fill="#c3540b" stroke="none" stroke-width="0.5"/><path d="M244.40062,175.51314c1.39778,-2.37004 3.33362,-3.70373 5.8124,-5.52754c1.80779,-1.3301 4.00705,-2.94571 6.27699,-3.33167c2.53993,-0.43186 4.55113,0.31152 6.82747,1.20443c5.32392,2.08838 10.20166,6.00853 9.83022,12.15834c-0.55503,2.78913 -2.11595,5.1638 -3.8083,7.46322c-0.52451,0.71267 -0.90295,1.58127 -1.61462,2.10714c-3.01712,2.22942 -8.30972,2.66017 -11.84958,3.78617c-1.094,0.34799 -2.36885,0.46598 -3.21044,1.2468c-0.96312,0.89357 -1.66594,2.18678 -2.8786,2.69224c-3.91457,1.63165 -11.1982,-0.27677 -14.54861,-2.43512c-1.43315,-1.14477 -2.78594,-2.40972 -4.47768,-3.16995c-3.29301,-1.47981 -7.03109,-1.80677 -10.12018,-3.79747c-4.73273,-3.04992 -7.64411,-10.94033 -4.47965,-16.03554c0.42978,-0.692 2.08854,-2.00694 2.6692,-2.71452c1.44346,-1.75901 2.74552,-2.98088 4.67674,-4.25676c1.65494,-0.63866 2.73417,-1.22937 4.51373,-1.30322c4.99396,-0.20723 9.89325,3.15145 12.77141,7.05805c1.27507,1.73068 2.13312,3.3217 3.60952,4.8554z" fill="#ffa325" stroke="none" stroke-width="0.5"/><path d="M294.34082,164.03796c0.43281,0.75018 0.27122,1.7129 0.47846,2.55383c0.97122,3.94104 0.76675,6.55228 -1.04667,10.18042c-1.19873,2.39833 -1.94395,4.64867 -4.00497,6.51126c-2.23411,2.01904 -4.58696,1.8223 -7.17277,2.72315l-1.13762,0.08716c0,0 -1.13429,0 -1.54906,-0.9269c-0.94519,0.33739 -1.88331,0.41816 -2.72095,0.02396c-0.9536,-0.44877 -0.52181,-2.04332 -0.72684,-3.07711c-0.55852,-2.81617 -0.15232,-5.60867 -0.29763,-8.37418c-0.10099,-1.92216 -1.63406,-2.88089 -2.81182,-4.05525c-0.52283,-0.52131 -0.86015,-1.21405 -1.40497,-1.71234c-3.76174,-3.44042 -10.51489,-2.86842 -14.99545,-1.74378c-4.51107,1.12748 -9.02265,2.78558 -13.72745,2.44924c-3.7315,-0.26675 -7.21954,-1.2458 -10.81181,-2.14839c-3.94278,-0.99066 -8.37589,-0.83686 -12.36012,-0.55615c-1.96312,0.13831 -3.48021,-0.21094 -5.33285,0.39972c-2.23877,1.75298 -3.87606,6.47826 -3.3382,9.34412c0.49313,2.62754 2.36387,4.28458 -1.35149,6.05456c-0.94056,0.44808 -2.09173,-0.04293 -3.11731,-0.22633c-2.51524,-0.4498 -4.3142,-2.00231 -5.97927,-3.82282c-3.09944,-3.38877 -3.73542,-7.47162 -3.73542,-11.94099c0,-1.36016 -0.10835,-3.62131 0.43987,-4.87764c0.35599,-0.8158 1.09474,-1.40378 1.64209,-2.10567c1.04748,-0.63914 1.7013,-1.13536 2.61219,-1.48398c-0.48635,-4.10108 0.15945,-8.59791 2.09232,-12.27779c1.79941,-5.06009 5.93175,-8.81737 8.24896,-13.54814c-0.09746,-0.82233 -0.31921,-1.64777 -0.3186,-2.47439c0.176,-0.84028 0.10605,-1.77318 0.528,-2.52085c0.38403,-0.68048 1.21867,-0.98391 1.7651,-1.54241c1.48928,-1.52224 2.68043,-3.28089 4.20315,-4.80361c1.86596,-1.86596 4.07281,-4.04695 6.21242,-5.58095c2.53759,-1.81933 5.98969,-2.41688 8.92461,-3.25515c3.17918,-0.90804 6.57493,-2.26749 9.84654,-2.75335c2.02301,-0.30043 3.77466,0.34422 5.79979,-0.01063c1.81733,-0.00541 4.57098,-0.41243 6.29781,0.05584c1.80238,0.48876 2.6923,1.90219 3.98192,3.07334c1.47767,1.34192 3.28137,3.01509 5.042,3.95518c3.69489,1.97288 7.65927,3.08404 10.47552,6.47283c3.27154,3.93664 4.17655,8.86416 6.75512,13.13766c0.99309,1.98473 2.26816,3.77211 3.30702,5.71261c2.18962,4.09001 3.83024,9.11928 4.67087,13.66372c0.38095,2.05941 0.46916,4.17276 0.42633,6.28946c1.73072,0.72823 3.41749,1.78972 4.19119,3.13073z" fill="#3e3d39" stroke="none" stroke-width="0.5"/><path d="M259.43995,164.85171c-2.95713,1.21445 -5.75887,3.09387 -8.86458,3.79432c-4.24459,0.9573 -9.64682,-1.11266 -13.72616,-2.13463c-0.97725,-0.32505 -2.09446,-0.60225 -3.15711,-0.99349c-1.6368,1.31241 -3.49299,0.57292 -5.65019,0.33726c-2.25148,-0.24596 -4.49658,-0.54707 -6.74464,-0.82252c-1.10823,-0.13579 -2.25205,-0.58989 -3.33458,-0.3165c-1.80661,0.45627 -3.14328,3.29547 -3.62691,4.84512c-0.32949,1.05574 -0.23548,2.039 -0.2317,3.12508c0,1.76339 -0.17831,3.5646 0.25014,5.29482c0.56984,2.30122 1.90202,4.48871 2.66495,6.77749l-0.17365,-0.7741c0,0 1.61148,0.53716 1.07432,2.14865c-0.53716,1.61148 -2.14865,1.07432 -2.14865,1.07432l-1.97499,-1.37455c-0.79649,-2.38947 -2.13082,-4.61642 -2.73911,-7.03288c-0.50741,-2.01576 -0.35032,-4.05982 -0.35032,-6.11374c0.0124,-4.15575 1.69896,-9.93063 6.34906,-11.24423c1.12605,-0.31809 3.5394,0.08306 4.65269,0.21821c2.24836,0.27295 4.50072,0.51519 6.74464,0.82252c0.51138,0.07004 1.18053,0.35513 1.78578,0.52848c-0.6205,-1.13794 -0.56708,-2.51376 -0.86811,-3.72588c-0.68939,-2.77593 -0.35032,-4.83305 -0.35032,-7.61487c0,-1.83105 -0.44063,-3.64368 -0.29595,-5.52447c0.27581,-3.58554 1.00877,-7.09955 1.51327,-10.62308c0.42228,-2.94927 0.2001,-5.35538 1.57666,-8.12153c0.92782,-4.73742 2.48974,-9.36766 4.2221,-13.86277c1.19501,-3.10083 2.76804,-5.85675 6.55873,-6.19361c1.36506,-0.12131 2.65591,0.69187 4.00767,0.9174c2.75424,0.45953 6.38987,-0.71269 8.12106,2.35847c0.52248,0.92689 0.24792,2.11673 0.47137,3.15701c0.58705,2.73305 1.89575,5.28715 2.66569,7.96847c2.90254,8.70137 4.75423,18.29034 3.36195,27.4577c-0.10939,0.7203 -0.49032,1.38139 -0.60045,2.10158c-0.31998,2.09248 0.4835,4.50646 0.61427,6.57565c0.0528,0.83533 -0.1984,2.4034 0.00608,3.38816c0.31831,0.14763 0.64563,0.41039 0.80233,0.87811c0.18153,0.0032 0.39868,-0.04669 0.65792,-0.16092c3.04333,0 5.71386,-0.58107 8.65576,0.75007c2.86489,1.29629 6.43915,4.25809 7.73864,7.13819c2.52246,5.59062 0.05579,14.04833 -3.5193,18.58356c0,0 -1.06114,1.32643 -2.38756,0.26529c-1.32642,-1.06114 -0.26528,-2.38756 -0.26528,-2.38756c2.24753,-2.75751 3.54799,-6.80222 3.5307,-10.34743c-0.00795,-1.62999 0.25557,-3.17101 -0.44504,-4.69427c-0.99487,-2.16302 -3.93065,-4.49168 -6.07173,-5.47128c-2.3292,-1.06566 -4.53386,-0.45084 -6.95596,-0.45084c-0.87225,0.05534 -1.85001,0.58557 -2.61672,0.16603c-0.35451,-0.19399 -0.66123,-0.42504 -0.92673,-0.68677z" fill="#595959" stroke="none" stroke-width="0.5"/><path d="M257.24935,115.40657c0.53716,1.61148 -1.07432,2.14864 -1.07432,2.14864l-1.80135,0.60045c-4.76443,1.5746 -10.60078,2.20717 -15.47328,0.60435c-1.23977,-0.40783 -2.37543,-1.09529 -3.61457,-1.50503c0,0 -1.61148,-0.53716 -1.07432,-2.14865c0.53716,-1.61148 2.14864,-1.07432 2.14864,-1.07432c1.2294,0.4127 2.36257,1.08119 3.59084,1.49723c4.13488,1.40056 9.31366,0.76157 13.34836,-0.59655l1.80135,-0.60045c0,0 1.61148,-0.53716 2.14864,1.07432z" fill="#343434" stroke="none" stroke-width="0.5"/><path d="M263.44398,133.65679c1.20112,1.20112 0,2.40225 0,2.40225l-0.62741,0.55568c-2.19092,1.2901 -3.79065,3.20148 -6.16867,4.28982c-8.45795,3.8709 -20.59996,4.85746 -27.73031,-2.14347c0,0 -1.20112,-1.20113 0,-2.40226c1.20112,-1.20112 2.40225,0 2.40225,0c5.94392,6.08649 16.86944,4.63366 23.90847,1.45923c2.2412,-1.01073 3.77334,-2.85793 5.84035,-4.11648l-0.02696,-0.04477c0,0 1.20113,-1.20112 2.40225,0z" fill="#343434" stroke="none" stroke-width="0.5"/><path d="M261.29762,150.19616c0.87395,1.45658 -0.58263,2.33053 -0.58263,2.33053l-1.55767,0.93314c-4.86383,2.4334 -9.84586,4.75788 -15.2687,5.59369c-2.4864,0.38322 -5.61102,0.7899 -8.05207,-0.08464c-1.16736,-0.41822 -2.4509,-1.62509 -3.52465,-2.20203c-1.20463,-0.64726 -2.49348,-1.13724 -3.66758,-1.83836c0,0 -1.45658,-0.87395 -0.58264,-2.33053c0.87395,-1.45658 2.33054,-0.58264 2.33054,-0.58264c1.12838,0.68069 2.37807,1.13862 3.53783,1.76434c1.07758,0.58139 1.93283,1.57395 3.08031,2.00113c1.84075,0.68526 4.4946,0.20156 6.35875,-0.08464c5.02439,-0.77138 9.64675,-2.96264 14.1534,-5.21443l1.44458,-0.86821c0,0 1.45658,-0.87395 2.33053,0.58264z" fill="#343434" stroke="none" stroke-width="0.5"/><path d="M259.3986,121.82972c1.01919,1.35892 -0.33973,2.37811 -0.33973,2.37811l-1.15896,0.86818c-3.97159,3.16504 -9.94219,5.33439 -15.10711,4.55897c-3.43089,-0.51509 -6.57357,-2.06848 -9.74052,-3.42341c0,0 -1.56131,-0.66913 -0.89217,-2.23044c0.66913,-1.56131 2.23044,-0.89218 2.23044,-0.89218c2.88833,1.24012 5.75998,2.68854 8.87346,3.18155c4.22588,0.66915 9.28989,-1.25714 12.51363,-3.84735l1.24285,-0.93317c0,0 1.35892,-1.01919 2.37811,0.33973z" fill="#343434" stroke="none" stroke-width="0.5"/><path d="M217.99767,151.82185c-0.00925,0.13776 -0.02147,0.27382 -0.03715,0.40433c0.04351,-0.01894 0.08497,-0.03238 0.123,-0.03918c-0.03039,-0.12211 -0.05898,-0.24382 -0.08585,-0.36515zM221.22365,116.16361c0.24823,-0.24501 0.59758,-0.4174 1.08921,-0.4174c1.69865,0 1.69865,2.05805 1.69865,2.05805l-0.02311,1.06584c-1.58448,11.5138 -3.24235,23.43437 -2.85026,35.11843c-1.2354,1.09771 -3.86359,4.13505 -5.82301,2.58756c-0.90942,-0.71823 -0.55043,-2.55029 -0.70544,-3.85207c-0.26278,-2.20695 -0.2981,-4.6721 -0.30022,-6.9112c-0.00671,-7.08671 0.30334,-14.59558 2.18484,-21.37004c0.6636,-2.38934 1.93252,-4.75504 2.75611,-7.08546c0,0 0.59534,-1.68306 1.97322,-1.19369z" fill="url(#color-3)" stroke="none" stroke-width="0.5"/><path d="M274.673,152.72233c0.03803,0.0066 0.07949,0.01965 0.123,0.03804c-0.01568,-0.12673 -0.0279,-0.25883 -0.03715,-0.39257c-0.02687,0.1178 -0.05546,0.23597 -0.08585,0.35453zM273.50609,118.90637c0.82359,2.26259 2.09251,4.55943 2.75611,6.87924c1.8815,6.5773 2.19155,13.86762 2.18484,20.74806c-0.00212,2.17394 -0.03744,4.56733 -0.30022,6.71005c-0.155,1.26389 0.20398,3.04262 -0.70544,3.73994c-1.95942,1.50245 -4.58762,-1.44648 -5.82301,-2.51224c0.39209,-11.34398 -1.26578,-22.91761 -2.85026,-34.09629l-0.02311,-1.03481c0,0 0,-1.99816 1.69865,-1.99816c0.49164,0 0.84098,0.16739 1.08921,0.40526c1.37788,-0.47512 1.97322,1.15895 1.97322,1.15895z" data-paper-data="{&quot;index&quot;:null}" fill="url(#color-4)" stroke="none" stroke-width="0.5"/><path d="M207.18009,162.7139l0.97763,0.39195c1.64343,2.84182 2.30098,7.65013 1.39288,10.89063c-0.56221,2.00619 -1.29516,4.38109 -4.32246,3.96928c-2.34907,-0.31955 -2.87045,-2.78216 -3.44097,-4.44203c-0.81494,-2.37099 -2.02661,-6.01267 -0.83325,-8.4506c1.01646,-2.07655 1.96292,-2.39745 3.67236,-3.45058c0,0 1.45658,-0.87395 2.33053,0.58264c0.1071,0.17851 0.17921,0.34826 0.22328,0.50873z" fill="#1c1b19" stroke="none" stroke-width="0.5"/><path d="M284.91377,164.70181c0.87395,-1.45658 2.33053,-0.58264 2.33053,-0.58264c1.70944,1.05313 2.6559,1.37403 3.67237,3.45058c1.19336,2.43793 -0.01831,6.07961 -0.83325,8.4506c-0.57051,1.65987 -1.09189,4.12248 -3.44097,4.44203c-3.02729,0.41182 -3.76026,-1.96308 -4.32246,-3.96928c-0.9081,-3.2405 -0.25055,-8.04881 1.39288,-10.89063l0.97763,-0.39196c0.04407,-0.16047 0.11617,-0.33022 0.22328,-0.50872z" data-paper-data="{&quot;index&quot;:null}" fill="#1c1b19" stroke="none" stroke-width="0.5"/><path d="M251.07819,178.92744l1.01958,-1.53967c1.55553,-1.03299 3.14871,-1.62348 4.77344,-2.48067c3.71698,-1.96104 7.72152,-4.11174 11.59719,-0.91991c1.62033,1.33443 1.75687,2.1192 2.6409,3.94554c0.0257,2.0021 0.25473,2.7199 -0.58531,4.6003c-1.42854,3.19771 -4.85559,4.94923 -7.74132,6.52303c-2.53035,1.37998 -5.27563,2.88967 -8.30416,2.59318c-6.85202,-0.67082 -7.86548,-8.21006 -3.75527,-12.45542c0,0 0.13308,-0.13308 0.35495,-0.26636z" fill="#fbf7f6" stroke="none" stroke-width="0.5"/><path d="M250.089,186.00126c-0.82227,-2.58434 1.71975,-5.20718 4.35231,-3.86572c2.11679,1.07863 2.5573,4.8099 0.40952,6.17181c-1.92175,1.21858 -2.82352,0.12607 -4.23058,-0.77555c0,0 -0.87694,-0.61386 -0.53127,-1.53053z" fill="#3f2012" stroke="none" stroke-width="0.5"/><path d="M250.09181,186.27465c-0.57381,-1.80343 1.20009,-3.63372 3.03717,-2.69762c1.47716,0.7527 1.78456,3.3565 0.28578,4.30687c-1.34105,0.85036 -1.97032,0.08797 -2.95221,-0.5412c0,0 -0.61195,-0.42837 -0.37074,-1.06804z" fill="#633b2b" stroke="none" stroke-width="0.5"/><path d="M236.96349,178.1746c4.11021,4.24537 3.09675,11.7846 -3.75527,12.45542c-3.02853,0.2965 -5.77379,-1.21319 -8.30416,-2.59318c-2.88572,-1.5738 -6.31278,-3.32531 -7.74133,-6.52303c-0.84004,-1.8804 -0.611,-2.59819 -0.58531,-4.6003c0.88402,-1.82634 1.02057,-2.61111 2.64089,-3.94554c3.87568,-3.19183 7.88022,-1.04113 11.5972,0.91991c1.62472,0.85719 3.21791,1.44767 4.77344,2.48067l1.01958,1.53967c0.22187,0.13327 0.35495,0.26636 0.35495,0.26636z" data-paper-data="{&quot;index&quot;:null}" fill="#fbf7f6" stroke="none" stroke-width="0.5"/><path d="M237.72133,172.63009c-0.08478,0.92319 -0.24855,3.68456 -0.77278,4.31885c-0.70167,0.84896 -1.7529,1.53109 -2.84386,1.68227c-0.97532,0.13516 -1.8808,-0.5843 -2.81406,-0.8982c-2.22175,-0.74728 -5.9235,-1.75678 -7.23274,-3.89824c-1.19088,-1.94784 -1.00233,-6.27697 1.41499,-7.37975c1.26101,-0.57527 3.67094,0.42756 4.87748,0.96536c1.67639,0.74725 3.20433,1.7614 4.84517,2.58033l1.27504,0.63752c0,0 0.26072,0.13036 0.51216,0.39109c0.83786,0.50916 0.73861,1.60078 0.73861,1.60078z" data-paper-data="{&quot;index&quot;:null}" fill="#751a00" stroke="none" stroke-width="0.5"/><path d="M250.49316,172.254c0.25144,-0.26072 0.51216,-0.39108 0.51216,-0.39108l1.27503,-0.63752c1.64084,-0.81892 3.16879,-1.83308 4.84518,-2.58033c1.20653,-0.53781 3.61646,-1.54064 4.87747,-0.96536c2.41731,1.10278 2.60587,5.43191 1.41499,7.37975c-1.30925,2.14146 -5.01099,3.15096 -7.23274,3.89824c-0.93327,0.3139 -1.83874,1.03337 -2.81406,0.89821c-1.09097,-0.15118 -2.1422,-0.83331 -2.84386,-1.68227c-0.52424,-0.63428 -0.688,-3.39566 -0.77278,-4.31884c0,0 -0.09924,-1.09162 0.73862,-1.60078z" fill="#751a00" stroke="none" stroke-width="0.5"/><path d="M236.71744,186.34274c-1.40706,0.90162 -2.30881,1.99413 -4.23057,0.77555c-2.14777,-1.3619 -1.70725,-5.09318 0.40953,-6.17181c2.63257,-1.34145 5.17458,1.28138 4.35231,3.86572c0.34567,0.91667 -0.53127,1.53053 -0.53127,1.53053z" data-paper-data="{&quot;index&quot;:null}" fill="#3f2012" stroke="none" stroke-width="0.5"/><path d="M236.93182,186.49337c-0.98189,0.62917 -1.61117,1.39156 -2.95222,0.5412c-1.49878,-0.95038 -1.19137,-3.55417 0.28578,-4.30687c1.83708,-0.9361 3.61098,0.89418 3.03717,2.69762c0.24122,0.63968 -0.37074,1.06804 -0.37074,1.06804z" data-paper-data="{&quot;index&quot;:null}" fill="#633b2b" stroke="none" stroke-width="0.5"/><path d="M244.55001,191.9587c0,0.33973 -0.33973,0.33973 -0.33973,0.33973h-0.33973c-0.56058,0 -0.99496,0.03954 -1.51086,-0.20574c0,0 -0.30386,-0.15193 -0.15193,-0.45579c0.15193,-0.30386 0.4558,-0.15193 0.4558,-0.15193c0.3823,0.20576 0.7754,0.134 1.20699,0.134h0.33973c0,0 0.33973,0 0.33973,0.33973z" fill="#1b0e08" stroke="none" stroke-width="0.5"/><path d="M230.76206,187.16346c0.43213,-0.73118 1.16331,-0.29905 1.16331,-0.29905l0.19497,0.11523c3.51045,2.33146 -0.83064,6.20536 -3.12447,7.69977c-3.84607,2.9635 -8.2718,5.10246 -12.1069,8.05524c-0.65016,0.50059 -1.11485,1.23648 -1.81753,1.66022c-2.01801,1.21694 -4.30905,1.87782 -5.99267,3.60463c-1.30689,1.32436 -2.65051,2.48913 -4.05017,3.7113c-3.11013,2.71577 -7.00394,9.69288 -11.58074,5.13212c-0.57159,-0.56959 -0.99044,-1.29523 -1.30786,-2.03711c-0.37479,-1.46862 -1.12189,-2.74663 -1.70943,-4.11227c-0.4245,-0.98667 -0.29802,-2.06248 -0.63401,-3.07078c-0.63274,-1.89889 -1.17327,-3.65327 -1.2787,-5.67587c-0.17525,-3.36244 1.22629,-6.85931 1.92787,-10.12134c0.52144,-3.36823 2.11539,-6.29824 3.01993,-9.60136c0.64519,-2.35603 1.51657,-4.81101 2.55972,-7.05119c1.00811,-2.16494 2.58698,-3.97295 3.8182,-5.98317c2.29267,-1.53239 4.24912,-3.64637 7.19185,-3.9527c5.06026,-0.52676 10.30957,4.88656 12.24505,8.97665c2.90118,2.77328 5.57178,5.76906 8.43125,8.61126c1.37234,1.36405 3.10427,2.94712 5.01381,1.63752c0,0 0.7135,-0.46073 1.17423,0.25277c0.46073,0.7135 -0.25278,1.17424 -0.25278,1.17424c-2.76359,1.71177 -5.09672,0.13653 -7.1284,-1.85546c-2.96343,-2.90552 -5.70942,-5.89574 -8.62009,-8.83262c-1.69506,-3.46223 -6.24036,-8.80451 -10.70915,-8.27268c-2.52107,0.30004 -4.11664,2.19818 -6.1211,3.43815c-1.05896,1.87505 -2.56964,3.49931 -3.48587,5.48516c-1.00163,2.17096 -1.85191,4.53717 -2.47557,6.81034c-0.8942,3.25928 -2.48005,6.16005 -2.99068,9.47163c-0.66941,3.10705 -2.08391,6.51522 -1.90248,9.71403c0.25323,4.46469 2.45256,8.22839 3.5374,12.41922c1.18334,2.98619 3.55953,2.70646 5.77563,0.92254c1.17071,-0.94241 1.9579,-2.3041 3.01592,-3.37627c1.71687,-1.73981 3.60642,-3.26359 5.3271,-5.00726c1.81467,-1.82084 4.13969,-2.58064 6.30989,-3.8572c1.33793,-0.787 2.53276,-2.03175 3.82048,-2.94861c3.29795,-2.34815 6.8074,-4.23647 10.01582,-6.70863c0.90652,-0.57955 5.21426,-3.96137 3.24017,-4.84994l-0.19497,-0.11523c0,0 -0.73118,-0.43213 -0.29905,-1.16331z" fill="#36382d" stroke="none" stroke-width="0.5"/><path d="M196.96349,211.18943c4.53176,-4.79269 8.70827,-10.48933 14.76525,-13.40781c1.77486,-1.14865 4.07629,-1.65569 5.66972,-3.05126c1.24773,-1.09281 2.30699,-2.41334 3.63102,-3.43618c0.90912,-0.70231 1.78772,-1.00899 2.80211,-1.43719c0.20693,-0.08735 0.43121,-0.31764 0.63979,-0.42685c-0.34642,-0.10665 -0.81475,-0.28056 -1.04833,-0.36927c-0.45113,-0.17136 -0.91397,-0.31638 -1.34942,-0.52437c-1.4207,-0.67859 -2.6246,-1.80599 -3.82786,-2.79471c-1.34396,-1.20297 -3.28596,-3.67622 -5.03812,-4.07095c-1.16003,-0.26134 -3.12842,1.53907 -3.86118,2.28304c-2.77103,2.81342 -5.15009,5.69686 -7.18312,9.07531c-0.55875,1.93146 -1.62926,3.79141 -2.09094,5.70695c-0.52603,2.18249 -0.89327,4.13606 -1.79198,6.20479c-0.52527,1.20913 -1.05264,2.38351 -1.5337,3.62843c-0.1886,0.48807 -0.72094,0.92854 -0.62024,1.442c0.09284,0.47342 0.52604,0.79624 0.83702,1.17806zM195.77218,212.63641c-0.09577,-0.14639 -0.1304,-0.28112 -0.1304,-0.28112l0.02933,-0.06095c-0.1991,-0.30832 -1.19162,-1.8101 -1.22614,-2.04209c-0.25923,-1.74236 1.61889,-4.46884 2.27843,-5.99042c0.86427,-1.9939 1.17265,-3.84276 1.70099,-5.93742c0.50676,-2.00914 1.57002,-3.95923 2.18194,-5.97432c2.16619,-3.71855 4.93328,-7.46182 8.22875,-10.29358c1.12247,-0.96453 3.17392,-2.28723 4.73003,-2.04627c2.06263,0.31939 4.26922,3.08436 5.78652,4.4422c1.08263,0.88961 2.17912,1.95077 3.46269,2.55541c0.26998,0.12718 2.51596,0.93116 2.66084,1.04384c0.45332,0.35258 1.0352,0.78961 1.05303,1.36363c0.04868,1.56742 -2.73919,2.10999 -3.67695,2.72196c-1.6604,1.08357 -2.86798,2.60675 -4.35008,3.88515c-1.70918,1.47429 -4.05508,2.02525 -5.94143,3.2407c-6.31742,3.04396 -10.54092,9.2408 -15.33134,14.09769c0,0 -0.59656,0.60454 -1.2011,0.00797c-0.26288,-0.25941 -0.29864,-0.52032 -0.25511,-0.73238z" fill="#36382d" stroke="none" stroke-width="0.5"/><path d="M199.55339,207.26107c1.13694,-0.75865 2.29793,-1.42597 3.38704,-2.31391c1.78069,-1.4518 3.36258,-3.25884 5.17369,-4.67754c0.90063,-0.70548 2.01585,-1.11368 2.88899,-1.85293c4.06492,-3.44158 7.97881,-8.02619 12.97672,-10.224c-1.31583,-0.85281 -2.52526,-2.24958 -3.91318,-3.07518c-1.76543,-1.05016 -3.38666,-2.28348 -4.83516,-3.71c-0.86674,-0.55656 -1.73736,-1.10779 -2.55634,-1.7312c-0.44695,-0.34023 -0.94408,-0.62657 -1.33017,-1.03455c-0.11324,-0.11965 0.03679,-0.5653 -0.10576,-0.48275c-0.56827,0.32912 -1.07902,0.74351 -1.58528,1.16528c1.3918,1.75904 -0.30217,3.36494 -0.30217,3.36494c-1.90978,1.80922 -4.75234,4.02051 -6.21855,6.24993c-2.19704,3.34066 -2.96037,7.42037 -4.27157,11.14984c-0.79473,2.26046 -1.71795,4.82699 -1.5546,7.22438c0.0195,0.28612 0.09454,0.96519 0.14858,1.67898l0.16611,-0.21485l0.13279,0.10268l0.03058,-0.29372c0.07097,-0.06166 0.14227,-0.12221 0.21387,-0.18177c0.00412,-0.01035 0.0087,-0.02083 0.01378,-0.03145c0.28184,-0.59023 0.87961,-0.88352 1.54066,-1.1122zM229.89562,186.17208c1.13971,-0.49139 2.31783,0.20489 2.31783,0.20489l1.23596,3.32307c-1.79156,3.92388 -5.41665,5.494 -8.64412,8.12254c-4.737,3.85794 -9.99927,7.79932 -15.29126,10.85343c-1.02162,0.5896 -2.10393,1.12875 -3.21871,1.63469l-0.35178,0.59523l-0.08079,-0.04775c-0.02238,0.0935 -0.0469,0.18663 -0.07377,0.27936c-0.23603,0.81466 -1.11359,1.28362 -1.73243,1.86364c-1.97159,1.84787 -6.21129,5.29527 -9.11474,4.07676c-1.13525,-0.47643 -1.69411,-1.81157 -2.33032,-2.86562c-1.23026,-2.03824 -1.07946,-2.97425 -1.5354,-5.08358c-1.69896,-7.85994 -0.88627,-16.27645 2.00446,-23.81395c0.57825,-1.33162 1.05812,-2.70393 1.60404,-4.04913c2.6526,-6.5363 9.77023,-18.24549 18.60743,-13.17466c1.32362,0.7595 2.18989,2.23879 3.17174,3.34245c2.3427,2.63335 4.2747,5.32475 6.49843,8.02583l3.4569,3.5596c0.29032,0.2858 0.50226,0.63254 0.62726,1.00701c0.13417,0.11253 0.26758,0.22751 0.40015,0.34526c0.74034,0.65756 1.99635,0.98116 2.4491,1.80098zM196.99849,189.5247c0.11562,-0.24898 0.23411,-0.49557 0.35561,-0.7395c-0.03304,-0.01613 -0.06588,-0.03303 -0.09848,-0.05072c-0.08833,0.2613 -0.17404,0.52477 -0.25713,0.79022z" fill="#333324" stroke="none" stroke-width="0.5"/><path d="M230.26665,238.10574c-0.01167,0.00139 -0.02308,0.00238 -0.03421,0.00297c-0.07937,0.04872 -0.15957,0.09683 -0.24074,0.14428l-0.28803,-0.06522l0.05466,0.15871l-0.25677,0.08845c0.65878,0.28004 1.27794,0.56887 1.5427,0.67907c2.21845,0.92341 4.94548,0.87187 7.34141,0.8439c3.953,-0.04615 8.06204,0.53894 11.93078,-0.47095c2.58184,-0.67395 5.58781,-2.65739 7.91385,-3.88625c0,0 2.06426,-1.08962 3.28417,0.79272c0.56184,-0.34429 1.11811,-0.69521 1.61207,-1.12794c0.12391,-0.10855 -0.34632,-0.10935 -0.42335,-0.25497c-0.26263,-0.49653 -0.37447,-1.05923 -0.55342,-1.59166c-0.32789,-0.97562 -0.57087,-1.97701 -0.82013,-2.97645c-0.88676,-1.82942 -1.53513,-3.7605 -1.96377,-5.76944c-0.33698,-1.57936 -1.27221,-3.17279 -1.65809,-4.69259c-3.68428,4.02931 -9.28179,6.26655 -13.84502,9.01336c-0.98018,0.59001 -1.7244,1.51546 -2.68143,2.14234c-1.92451,1.26059 -4.14334,2.17956 -6.08945,3.40072c-1.19028,0.7469 -2.19462,1.63261 -3.27777,2.46627c-0.42858,0.55283 -0.89804,1.025 -1.54748,1.10272zM262.43917,217.92202c0.06903,0.16333 0.13517,0.32657 0.19873,0.48973c0.31462,0.23847 0.57509,0.5504 0.75272,0.91703l2.26324,4.41573c1.84545,2.97239 3.77527,5.66535 5.51842,8.7287c0.73057,1.28388 1.854,2.57872 2.14899,4.076c1.96954,9.99651 -11.40359,12.98393 -18.44533,13.40068c-1.44922,0.08577 -2.90294,0.10029 -4.34967,0.22104c-8.06641,0.32129 -16.29912,-1.6076 -23.19932,-5.73706c-1.85177,-1.1082 -2.78672,-1.26548 -4.32286,-3.08433c-0.7944,-0.94059 -1.87985,-1.89803 -1.96714,-3.12611c-0.22323,-3.14086 4.40158,-6.05132 6.78405,-7.32632c0.74782,-0.4002 1.4734,-1.08105 2.32072,-1.0434c0.09645,0.00428 0.19252,0.01091 0.28826,0.01971l-0.01932,-0.09184l0.67659,-0.14235c0.83667,-0.8937 1.69439,-1.74599 2.58043,-2.52462c4.58967,-4.03332 10.01024,-7.75397 15.18336,-11.00386c3.52459,-2.21425 6.17417,-5.14449 10.46532,-5.58332l2.75132,2.23621c0,0 0.28176,1.33917 -0.54913,2.26115c0.63138,0.69172 0.53515,1.98517 0.92062,2.89726zM248.62578,245.11983c-0.00629,-0.03656 -0.01179,-0.07308 -0.01648,-0.10954c-0.27,0.03687 -0.54155,0.07004 -0.81447,0.09973c0.27807,0.00641 0.55512,0.0097 0.83095,0.00982z" data-paper-data="{&quot;index&quot;:null}" fill="#333324" stroke="none" stroke-width="0.5"/><path d="M222.43099,226.29485c1.29769,1.32474 2.19563,3.08646 3.48032,4.43995c1.10118,1.16017 2.23912,2.29517 3.48251,3.30143c0.72206,0.58436 1.95286,0.75844 2.25543,1.63667c0.46983,1.36373 -0.08895,2.88453 -0.20237,4.32246c-0.10308,1.30699 -0.24559,2.3114 -0.48333,3.22054c0.01691,0.00212 0.03377,0.00432 0.0506,0.00663c3.01651,0.41318 5.01393,3.08469 5.90326,5.77325c0.0903,0.27299 -0.30616,0.6676 -0.09055,0.85781c0.17925,0.15814 0.13828,-0.53044 0.35978,-0.62029c0.61137,-0.24799 1.29875,-0.23725 1.95353,-0.31804c3.88226,-0.479 7.46495,-0.78296 11.282,-1.76418c1.19072,-0.30426 2.33671,-0.76861 3.5276,-1.07217c2.61335,-0.66615 5.26179,-0.57216 7.8579,-0.84493c2.12887,-0.22368 4.90718,-1.90602 6.79264,-2.85081c2.39699,-1.20112 4.75742,-3.7667 3.4375,-6.58964c-0.41907,-0.89629 -1.2061,-1.56903 -1.7907,-2.36727c0,0 -1.5055,-2.05564 0.55016,-3.56114c2.05564,-1.5055 3.56114,0.55016 3.56114,0.55016c0.28605,0.39059 2.18354,2.96121 2.28591,3.19907c2.36808,5.50215 -0.74329,10.65798 -5.67527,13.2808c-2.4159,1.28477 -5.72694,3.0191 -8.47011,3.38769c-0.73883,0.09928 -1.48862,-0.16082 -2.23307,-0.1219c-2.92197,0.15279 -5.77655,1.20244 -8.57495,1.92565c-4.02196,1.0339 -7.82959,1.38865 -11.92191,1.88571c-1.09995,0.1336 -4.38415,0.83745 -4.90137,0.58559c-1.72563,-0.84031 -2.5452,-3.61203 -3.4163,-5.20987c-0.05731,-0.10515 -0.59747,-1.08692 -1.03353,-1.06452c-2.26759,0.11646 -5.07186,1.49499 -7.18192,2.29818c-1.11172,0.42317 -2.17572,1.64568 -3.318,1.31374c-1.41749,-0.41191 -2.08089,-2.09491 -3.08705,-3.17501c-1.62698,-1.74657 -2.52005,-3.67026 -3.60631,-5.76611c-1.63948,-2.98627 -1.43146,-5.94578 -2.2673,-9.15383c-0.49937,-1.91662 -1.24894,-3.6579 -1.42491,-5.67169c-0.17723,-2.02821 0.42779,-4.10972 0.24112,-6.08581c-0.14417,-1.52638 -1.64006,-2.40625 -2.55747,-3.38967c-0.97871,-1.04911 -1.84899,-2.19571 -2.82297,-3.24923l-1.11148,-1.17212c0,0 -1.75299,-1.84912 0.09614,-3.60211c0.12036,-0.11409 0.24031,-0.21293 0.35939,-0.29801c0.12588,-0.4557 0.42244,-0.92649 1.00496,-1.35312l0.00002,-0.00003c2.05564,-1.5055 3.56114,0.55016 3.56114,0.55016c2.21267,3.02513 5.45854,6.34101 6.69519,9.92068c0.00916,0.02653 0.0182,0.05305 0.0271,0.07958c2.58765,2.0837 5.14694,4.46003 7.40557,6.76573z" fill="#333324" stroke="none" stroke-width="0.5"/><path d="M216.64665,192.17995c0,-0.5096 0.5096,-0.5096 0.5096,-0.5096l0.64225,0.03646c0.21713,0.08754 0.43428,0.17509 0.65141,0.26263c3.02551,0.63585 6.39173,1.36049 9.29554,2.44746c2.67703,1.00207 5.28569,2.01411 8.20921,2.00968c3.86911,0 7.44724,0.68205 11.01949,2.21391c1.29056,0.55342 2.81173,0.79755 3.83601,1.78562c0,0 0.36034,0.36033 0,0.72067c-0.36034,0.36034 -0.72067,0 -0.72067,0c-0.84285,-0.88791 -2.41794,-1.09901 -3.53345,-1.57681c-3.44326,-1.47484 -6.87626,-2.1242 -10.60137,-2.1242c-3.04665,-0.00427 -5.77096,-1.02404 -8.56211,-2.07273c-2.88295,-1.08317 -6.23398,-1.79026 -9.23836,-2.42825c-0.24475,-0.09723 -0.4895,-0.19446 -0.73425,-0.29169l-0.2637,0.03645c0,0 -0.5096,0 -0.5096,-0.5096z" fill="#000000" stroke="none" stroke-width="0.5"/><path d="M283.65274,208.15112c0.04763,0.10453 0.07687,0.23288 0.07687,0.39047c0,0.84933 -0.84933,0.84933 -0.84933,0.84933h-0.45297c-0.03444,0 -0.06899,0.00013 -0.10362,0.0004c-0.11443,0.09987 -0.60865,0.47641 -1.11708,0.03283c-1.07143,0.03898 -2.1725,0.05731 -3.15073,-0.31247c-2.56419,-0.9693 -2.85443,-3.58285 -1.84892,-5.87782c1.59378,-3.63763 4.70306,-7.40979 7.92875,-9.82906c1.42363,-1.43041 2.68477,-3.43187 4.36312,-4.57712c0.6657,-0.45425 2.11158,-1.14475 2.90907,-0.36453c0.79046,0.77334 -0.32731,4.09816 -0.72183,5.00235c-0.07741,0.17741 -0.1806,0.34135 -0.28842,0.50296c0.93892,-0.73125 1.56147,-1.21638 2.34138,-1.60978l-0.10379,-0.17298l1.12046,-0.67228c0.13024,-0.08126 0.28412,-0.12822 0.44895,-0.12822c0.46907,0 0.84933,0.38025 0.84933,0.84933c0,0.14265 -0.03517,0.27709 -0.09731,0.39512l-0.44533,0.89066l-0.02486,-0.01243l-0.01232,0.07912c-1.74489,2.32652 -2.3097,5.25067 -3.85028,7.70056c-1.7003,2.70387 -4.53891,4.71534 -6.97112,6.86357z" fill="#b9431e" stroke="none" stroke-width="0.5"/><path d="M284.08934,206.83076c3.6373,-2.98067 5.8108,-8.59775 7.73332,-12.39955c0.48009,-1.92033 2.61026,-3.94169 0.2647,-1.59612l-0.67946,0.67946c-0.15369,0.15369 -0.36602,0.24876 -0.60056,0.24876c-0.46907,0 -0.84933,-0.38025 -0.84933,-0.84933v-1.13243h0.20499c-0.02538,-0.59786 0.02361,-1.15112 0.02149,-2.03838c-0.00056,-0.23322 -0.10429,-0.66005 0.01889,-0.95805c-0.25134,0.19706 -0.59063,0.44309 -0.77097,0.5539c-1.22524,0.75289 -1.9729,1.70466 -3.05131,2.63118c-1.23031,1.05702 -3.00204,1.91529 -3.94424,3.25228c-0.83849,1.18984 -1.53408,2.44296 -2.5798,3.50126c-1.6617,1.6181 -2.89792,4.15577 -3.15267,6.50422c-0.05311,0.48953 -0.38213,1.76846 -0.10611,2.21569c0.60729,0.98399 2.3052,1.13092 3.2695,0.75432c0.91385,-0.35689 1.83787,-0.69245 2.71784,-1.13243l0.99462,-0.25389c0,0 0.25004,-0.06251 0.50909,0.01909zM280.1117,209.89952c-2.16124,0.5794 -5.213,-0.35178 -5.32833,-2.94334c-0.14693,-3.30142 1.6298,-7.1455 3.87255,-9.43355c0.99134,-0.97673 1.6069,-2.19188 2.40292,-3.29334c1.06132,-1.46857 2.8514,-2.38131 4.20929,-3.54232c1.35938,-1.16229 2.73841,-3.23435 4.63302,-3.57418c0.57315,-0.10281 1.29393,-0.16427 1.73322,0.21794c0.5111,0.44469 0.5155,2.0099 0.24892,3.24108c0.84803,-0.84102 1.83274,-1.42253 2.86647,0.17541c0.56576,0.87454 -1.10188,3.34499 -1.33397,4.27335c-2.70419,5.46362 -5.86262,13.62463 -12.3679,15.25094c0,0 -0.64479,0.1612 -0.93618,-0.37198z" fill="#561f0e" stroke="none" stroke-width="0.5"/><path d="M191.91333,193.264c-1.5452,-0.70553 -0.83966,-2.25073 -0.83966,-2.25073l0.35259,-0.73964c0.80581,-2.58277 1.30078,-5.14626 2.42061,-7.61986c2.05864,-4.68927 4.5726,-9.52741 8.94785,-12.48763c2.08493,-1.41062 6.34249,-3.57606 7.4483,0.71681c0.43918,1.70498 -2.70065,3.99463 -3.59477,5.19905c-1.24303,1.67445 -2.70715,3.38493 -3.70773,5.25216c2.12934,-1.04675 4.48109,-1.35863 6.78633,-1.07128c0.10025,-0.121 0.2005,-0.242 0.30076,-0.36301c0,0 1.08536,-1.30667 2.39204,-0.22131c0.57145,0.47467 0.68539,0.99165 0.63272,1.42316c0.24772,0.09507 0.49316,0.19692 0.73595,0.30536c0.91102,0.18426 1.68378,0.36699 1.79213,0.41721c1.47037,0.68163 2.442,1.95391 3.33858,3.29474c0.9347,0.91244 2.47279,2.44745 2.65425,2.86954c0.00948,0.02204 0.01882,0.04411 0.02805,0.06623l0.01432,-0.01041l1.14574,1.57619c0.43013,0.56349 0.47586,1.36055 0.05747,1.98076c-0.52465,0.77772 -1.58043,0.98287 -2.35815,0.45822c-0.05375,-0.03626 -0.10476,-0.07506 -0.15299,-0.11611l-1.29562,-1.07618l0.02742,-0.03301l-0.0985,-0.02946c-0.63809,-0.67069 -1.35598,-1.27364 -1.91428,-2.01209c-0.4119,-0.54481 -0.72721,-1.27154 -1.09871,-1.96212c-0.81685,-0.81539 -1.69918,-1.58485 -2.63313,-2.07387c-0.14588,-0.07638 -0.29412,-0.14935 -0.4445,-0.21883c-0.53418,-0.09297 -1.10453,-0.13831 -1.67901,-0.15503l-1.41253,0.65966c-0.52782,0.25777 -1.17499,0.23437 -1.69693,-0.11773c-0.45527,-0.30713 -0.71434,-0.79626 -0.74564,-1.30508c-1.72459,0.18657 -3.38244,0.82982 -4.70522,2.00833c-1.64795,1.46822 -2.37375,4.01853 -3.19713,5.98751l-0.01196,0.01102l0.00603,0.00265l-0.74984,1.70831c-0.04273,0.1025 -0.0962,0.20231 -0.1607,0.29791c-0.52465,0.77772 -1.58043,0.98287 -2.35815,0.45822c-0.63346,-0.42733 -0.88706,-1.20702 -0.67585,-1.90182l0.9013,-3.23493l0.00832,0.00232c0.00182,-0.01656 0.00369,-0.03312 0.00561,-0.04967c0.22685,-1.96333 1.56837,-3.97596 2.2893,-5.78293c1.16121,-2.91052 2.33689,-4.94285 4.19487,-7.50327c0.25864,-0.35643 0.94053,-1.52815 1.71442,-2.55899c-1.03694,0.73434 -1.44829,1.33817 -2.40394,2.3152c-2.42587,2.48015 -3.84215,5.50968 -5.22581,8.66245c-1.07495,2.33144 -1.51634,4.79475 -2.27777,7.24208l-0.50573,1.14018c0,0 -0.70553,1.5452 -2.25074,0.83967z" fill="#333324" stroke="none" stroke-width="0.5"/><path d="M187.86175,202.95761c-0.29058,-0.26853 -0.51237,-0.68693 -0.46666,-1.33775c0.11904,-1.69448 1.81351,-1.57544 1.81351,-1.57544l1.77302,0.48326c2.57346,2.3085 4.78202,4.94668 7.94289,6.43419c1.7154,1.50984 5.6583,4.09331 5.574,6.71816c-0.02928,0.91202 -0.85854,1.61637 -1.38853,2.35919c-1.62066,2.27148 -4.90798,4.47725 -7.79759,3.71827c-2.36219,-0.62045 -3.52503,-2.79269 -4.61594,-4.7015c-2.33521,-4.08605 -2.83606,-7.51841 -2.83472,-12.09836z" fill="#000000" stroke="none" stroke-width="0.5"/><path d="M232.95671,248.21034c-3.46235,-1.36767 -7.01719,-2.52261 -9.94533,-4.93801c-1.3324,-1.09908 -2.84272,-2.4769 -3.05708,-4.36005c-0.31527,-2.76966 2.7009,-6.84754 5.3951,-7.47033c4.0629,-0.93917 7.98685,3.28317 6.89199,7.14434c2.39466,0.46526 5.28282,-0.76573 7.17504,1.57656c0.55097,0.68203 0.15069,1.74709 0.2369,2.61961c0.22399,2.26693 1.24433,5.56695 -1.5761,6.97037c-1.97096,0.98073 -3.5946,-0.44745 -5.12052,-1.54247z" fill="#000000" stroke="none" stroke-width="0.5"/><path d="M245.18498,245.95541c-0.42291,-1.64517 1.22225,-2.06807 1.22225,-2.06807l0.35683,-0.08784c1.71984,-0.56551 3.36633,-0.95331 4.99531,-1.74305c0.19347,-0.09777 0.40408,-0.15775 0.61959,-0.1768c0.50311,-0.06353 1.21369,0.03555 1.65689,0.91145c0.01338,0.02591 0.02608,0.05214 0.03808,0.07865c0.41363,0.89356 0.05175,1.51254 -0.31118,1.86831c-0.15233,0.16172 -0.33235,0.28885 -0.52804,0.37831c-1.77898,0.84385 -3.54308,1.2946 -5.40783,1.90991l-0.57382,0.15139c0,0 -1.64517,0.42291 -2.06807,-1.22225z" fill="#333324" stroke="none" stroke-width="0.5"/><path d="M289.03161,201.66098c0.75376,0.75376 0,1.50753 0,1.50753l-0.00758,-0.00758c-0.21319,0.28426 -0.42639,0.56852 -0.63959,0.85278c0,0 -0.63959,0.85278 -1.49238,0.21319c-0.85278,-0.63959 -0.21319,-1.49238 -0.21319,-1.49238c0.21319,-0.28426 0.42639,-0.56852 0.63959,-0.85278l0.20562,-0.22077c0,0 0.75376,-0.75376 1.50753,0z" fill="#b9431e" stroke="none" stroke-width="0.5"/><path d="M283.9133,211.49737c0.02989,0.0656 0.04823,0.14614 0.04823,0.24503c0,0.53299 -0.53299,0.53299 -0.53299,0.53299h-0.28426c-0.02161,0 -0.04329,0.00009 -0.06503,0.00025c-0.0718,0.06267 -0.38195,0.29897 -0.70101,0.0206c-0.67237,0.02446 -1.36335,0.03597 -1.97723,-0.19609c-1.60915,-0.60827 -1.79128,-2.2484 -1.16028,-3.6886c1.00017,-2.28278 2.95138,-4.64997 4.97565,-6.16817c0.89339,-0.89764 1.68481,-2.15365 2.73805,-2.87234c0.41776,-0.28506 1.32511,-0.71838 1.82557,-0.22876c0.49605,0.48531 -0.2054,2.57178 -0.45298,3.1392c-0.04858,0.11133 -0.11333,0.21421 -0.18099,0.31563c0.58921,-0.45889 0.97989,-0.76333 1.46932,-1.01021l-0.06513,-0.10855l0.70314,-0.42188c0.08174,-0.05099 0.1783,-0.08046 0.28173,-0.08046c0.29436,0 0.53299,0.23863 0.53299,0.53299c0,0.08952 -0.02207,0.17388 -0.06106,0.24795l-0.27947,0.55893l-0.0156,-0.0078l-0.00773,0.04965c-1.095,1.46 -1.44944,3.29503 -2.41622,4.83244c-1.06701,1.6968 -2.84837,2.95908 -4.37469,4.30719z" fill="#b9431e" stroke="none" stroke-width="0.5"/><path d="M284.18728,210.66879c2.28257,-1.87051 3.64654,-5.39547 4.853,-7.78127c0.30127,-1.20509 1.63806,-2.47358 0.16611,-1.00164l-0.42639,0.42639c-0.09645,0.09645 -0.2297,0.15611 -0.37687,0.15611c-0.29436,0 -0.53299,-0.23863 -0.53299,-0.53299v-0.71065h0.12864c-0.01593,-0.37518 0.01482,-0.72238 0.01349,-1.27917c-0.00035,-0.14636 -0.06544,-0.4142 0.01186,-0.60121c-0.15773,0.12366 -0.37065,0.27805 -0.48382,0.3476c-0.76889,0.47247 -1.23808,1.06975 -1.91484,1.65119c-0.77207,0.66333 -1.88391,1.20193 -2.47518,2.04095c-0.52619,0.74667 -0.9627,1.53307 -1.61894,2.1972c-1.0428,1.01543 -1.81858,2.60793 -1.97845,4.08169c-0.03333,0.30721 -0.2398,1.10979 -0.06659,1.39044c0.3811,0.6175 1.44661,0.7097 2.05175,0.47337c0.57348,-0.22397 1.15335,-0.43454 1.70557,-0.71065l0.62417,-0.15933c0,0 0.15692,-0.03922 0.31948,0.01198zM281.69115,212.59457c-1.35628,0.3636 -3.27139,-0.22075 -3.34377,-1.84707c-0.0922,-2.07179 1.02277,-4.48413 2.4302,-5.91998c0.62212,-0.61294 1.00839,-1.37551 1.50793,-2.06672c0.66602,-0.92159 1.78939,-1.49437 2.64152,-2.22296c0.85307,-0.72939 1.71847,-2.0297 2.90743,-2.24296c0.35967,-0.06451 0.812,-0.10309 1.08767,0.13677c0.32074,0.27907 0.3235,1.2613 0.15621,2.03392c0.53217,-0.52778 1.15013,-0.89271 1.79884,0.11007c0.35504,0.54881 -0.69148,2.09913 -0.83713,2.68172c-1.697,3.42867 -3.67905,8.55007 -7.7614,9.57066c0,0 -0.40463,0.10115 -0.5875,-0.23345z" fill="#561f0e" stroke="none" stroke-width="0.5"/><path d="M215.12479,205.71865c-0.36842,0.25839 -0.90138,0.40999 -1.61197,0.08573c-1.54536,-0.70518 -0.84018,-2.25054 -0.84018,-2.25054l0.61707,-1.33091c1.07673,-1.83642 1.8403,-3.92171 4.03681,-4.74216c2.20319,-0.82295 4.38796,0.24789 6.39636,0.96836c0.86024,0.30859 3.15587,0.94904 3.82279,1.40381c0.85448,0.58265 1.88781,1.16755 2.25018,2.13622c0.33412,0.89314 -0.11795,1.92025 -0.39092,2.83393c-1.4114,4.72422 -5.47578,4.96703 -9.42793,3.36563c-1.64172,-0.66521 -3.27303,-1.61569 -4.85219,-2.47008z" fill="#dc6b2b" stroke="none" stroke-width="0.5"/><path d="M261.01075,202.45656c0.56817,-1.33955 2.02978,-0.90107 2.02978,-0.90107l1.54063,0.47034c2.93507,0.29486 4.83765,-0.82449 6.91973,-2.88829c0.63708,-0.63149 0.96327,-1.77476 1.84019,-1.96357c4.90421,-1.05588 4.77409,4.12339 3.46352,6.95195c-1.66402,3.59144 -8.16402,7.1685 -12.0715,5.76402c-2.58795,-0.93019 -3.19849,-3.55423 -3.96203,-5.83055c0,0 -0.30709,-0.92126 0.23968,-1.60284z" fill="#dc6b2b" stroke="none" stroke-width="0.5"/><path d="M211.01242,204.39341c0.42998,-0.88413 1.5291,-0.88413 1.5291,-0.88413l1.14046,0.12149c2.8333,1.13648 5.57259,1.53303 8.58572,1.93039c0.43636,0.05754 2.54462,0.28724 3.03221,0.18702c1.4882,-0.30591 2.98671,-0.67327 4.50597,-0.68644c1.78121,2.77202 3.09489,5.67964 -0.85726,7.50709c-0.1394,0.06446 -2.77546,0.19744 -3.30576,0.55229c-2.58542,1.73005 -3.74206,4.55557 -7.05393,5.44768c-3.56871,0.96129 -8.77127,-1.87129 -9.89267,-5.43338c-0.21644,-0.68751 -0.01398,-3.4168 0.14061,-4.18081c0.35914,-1.77492 0.71383,-2.23055 1.50588,-3.82689c0,0 0.22322,-0.44646 0.66968,-0.73433z" fill="#000000" stroke="none" stroke-width="0.5"/><path d="M261.68451,208.93739c-0.15485,-1.11243 0.95758,-1.66865 0.95758,-1.66865l0.93037,-0.34076c2.69426,-0.26623 5.76362,0.24546 8.39029,-0.45956c1.06839,-0.28677 1.78123,-1.32168 2.74396,-1.86651c0.01296,-0.00733 0.02593,-0.01463 0.03892,-0.02191l-0.00486,-0.00607l1.68809,-1.35047c0.29233,-0.238 0.66535,-0.38068 1.0717,-0.38068c0.93814,0 1.69865,0.76051 1.69865,1.69865c0,0.04663 -0.00188,0.09283 -0.00556,0.13851l-0.16538,2.31519c0.00211,4.55083 -0.27653,9.44976 -5.83761,10.60327c-1.07353,0.22267 -2.22502,-0.47845 -3.2835,-0.19265c-2.52698,0.68229 -4.04038,2.77516 -6.97507,0.92382c-3.00914,-1.8983 -2.44644,-6.81351 -1.24758,-9.39217z" fill="#000000" stroke="none" stroke-width="0.5"/><path d="M194.18057,184.5349c-0.55939,0.17894 -1.09244,-0.18066 -1.09244,-0.18066l-0.75644,-1.24235c0.18727,-3.36359 1.7549,-6.69103 4.33797,-8.95369c0.61393,-0.53777 1.12525,-1.44652 1.94003,-1.49372c0.73405,-0.0425 1.22614,0.8156 1.79847,1.2772c1.25748,1.01422 2.6334,1.97382 3.77444,3.12743c1.88633,1.27552 7.33831,5.37148 7.3294,7.94688c-0.00248,0.71917 -1.03552,0.99827 -1.54977,1.50101c-1.61664,1.58045 -4.22324,5.15892 -6.80302,4.56648c-1.03713,-0.23818 -2.45704,-2.4034 -3.30996,-3.07804c-1.53695,-1.21569 -3.16695,-2.0156 -4.95374,-2.76281c0,0 -0.51877,-0.21693 -0.71493,-0.70774z" fill="#dc6b2b" stroke="none" stroke-width="0.5"/><path d="M253.01232,239.54352l-0.46488,-2.04434c1.17929,-0.74501 4.43599,-2.92993 5.92352,-2.90476c1.67999,0.02843 2.7464,1.92674 3.72593,2.93849c2.01913,2.08554 4.57385,4.08335 7.03759,5.58376c0.36561,0.46077 2.24695,2.78326 2.27549,3.08322c0.12298,1.29256 -1.38984,2.54206 -2.32076,3.09275c-2.08354,1.23253 -8.57044,1.72765 -10.79953,0.7339c-2.28625,-1.01923 -1.74674,-3.60434 -2.47653,-5.55508c-0.59747,-1.59705 -1.77714,-2.90214 -2.69326,-4.3199c0,0 -0.16894,-0.26163 -0.20758,-0.60803z" fill="#dc6b2b" stroke="none" stroke-width="0.5"/></g></g></svg>