<svg version="1.1" xmlns="http://www.w3.org/2000/svg" xmlns:xlink="http://www.w3.org/1999/xlink" width="8.29901" height="15.6224" viewBox="0,0,8.29901,15.6224"><g transform="translate(-235.84761,-172.1888)"><g data-paper-data="{&quot;isPaintingLayer&quot;:true}" fill-rule="nonzero" stroke-width="0" stroke-linecap="round" stroke-linejoin="miter" stroke-miterlimit="10" stroke-dasharray="" stroke-dashoffset="0" style="mix-blend-mode: normal"><path d="M244.12667,180.37855c0.46237,4.42846 -7.2568,8.32317 -8.06477,7.16197c-1.37911,-1.98202 5.32295,-3.96391 5.227,-7.12944c-0.09596,-3.16552 -6.81466,-7.20985 -5.18718,-8.17097c1.04558,-0.61747 7.64202,4.47085 8.02496,8.13844z" data-paper-data="{&quot;index&quot;:null}" fill="#a2510b" stroke="#692206"/><path d="M236.52884,187.8112c0,0 7.22534,-1.65181 6.82686,-7.26689c-0.23352,-3.2904 -3.37317,-6.06208 -3.37317,-6.06208c0,0 2.55448,1.77242 3.56673,4.10937c0.35712,0.82446 0.92392,2.58365 0.33801,3.64367c-2.96717,5.36816 -7.35842,5.57592 -7.35842,5.57592z" data-paper-data="{&quot;index&quot;:null}" fill="#6f2802" stroke="#000000"/><path d="M239.27711,183.49024c0,0 0.44286,0.0019 0.88284,0.36663c0.48089,0.39866 1.3736,1.53556 1.3736,1.53556l-1.81406,1.35219c0,0 -0.91138,-0.99549 -1.30779,-1.31194c-0.35257,-0.28145 -0.62059,-0.494 -0.62059,-0.494z" data-paper-data="{&quot;index&quot;:null}" fill="#e50b00" stroke="#000000"/><path d="M239.32116,186.69248l2.12768,-1.5529l0.26459,0.13863l-2.27115,1.53567z" data-paper-data="{&quot;index&quot;:null}" fill="#9d0d00" stroke="#000000"/><path d="M238.94707,183.885c0,0 0.28217,0.07713 0.71632,0.4607c0.47453,0.41922 1.49198,1.47616 1.49198,1.47616l-0.80732,0.42432c0,0 -0.98191,-0.96302 -1.36887,-1.30006c-0.34418,-0.29976 -0.73292,-0.47153 -0.73292,-0.47153z" data-paper-data="{&quot;index&quot;:null}" fill="#ec8400" stroke="#000000"/><path d="M240.11092,186.22704l0.91837,-0.64231l0.12785,0.12434l-0.96157,0.63843z" data-paper-data="{&quot;index&quot;:null}" fill="#ab4100" stroke="#000000"/><path d="M239.19648,173.73099c0.38738,0.29461 1.26821,1.03687 1.26821,1.03687c0,0 -0.64467,0.14562 -1.01047,0.37644c-0.38579,0.24342 -0.86302,0.89447 -0.86302,0.89447l-1.8368,-1.97674c0,0 0.52486,-0.4452 0.86672,-0.65727c0.27352,-0.16966 0.7048,-0.26348 0.7048,-0.26348c0,0 0.56417,0.3567 0.87055,0.5897z" data-paper-data="{&quot;index&quot;:null}" fill="#e50b00" stroke="#000000"/><path d="M239.82549,174.18448c0,0 -0.54005,0.20872 -0.87912,0.39503c-0.35762,0.1965 -0.96247,0.65107 -0.96247,0.65107l-0.71118,-0.68335c0,0 0.29643,-0.18831 0.61251,-0.36075c0.25289,-0.13799 1.0429,-0.53463 1.0429,-0.53463z" data-paper-data="{&quot;index&quot;:null}" fill="#ed8900" stroke="#000000"/></g></g></svg>