<svg version="1.1" xmlns="http://www.w3.org/2000/svg" xmlns:xlink="http://www.w3.org/1999/xlink" width="75.78367" height="92.35527" viewBox="0,0,75.78367,92.35527"><g transform="translate(-202.10816,-133.82236)"><g data-paper-data="{&quot;isPaintingLayer&quot;:true}" fill-rule="nonzero" stroke="none" stroke-width="0.5" stroke-linecap="butt" stroke-linejoin="miter" stroke-miterlimit="10" stroke-dasharray="" stroke-dashoffset="0" style="mix-blend-mode: normal"><path d="M248.96531,204.13217c-0.06415,-0.08893 -0.11554,-0.20359 -0.14504,-0.3511c-0.159,-0.795 0.63601,-0.95401 0.63601,-0.95401l0.65705,-0.12503c2.4053,-0.80176 5.75258,-2.83774 8.06906,-2.86273c1.63626,1.21827 3.34893,2.48681 4.53527,4.18287c0.62009,0.88653 1.66001,2.27952 0.7489,3.49269c-0.35748,0.47601 -1.46286,-0.25624 -1.76754,0.25517c-0.38423,0.64493 -0.66112,1.56182 -1.37934,1.78033c-0.39486,0.12013 -0.97762,-0.63213 -1.35637,-0.0983c-0.38085,0.53679 -0.41556,1.41583 -1.01114,1.69595c-0.81902,0.38521 -2.06468,-1.08044 -2.6827,-0.41921c-0.14128,0.15116 0.19581,0.45665 0.06537,0.61725c-0.04317,0.05316 -0.08861,0.10401 -0.13596,0.15292l0.02874,0.023l-0.59886,0.74859c-0.14844,0.18884 -0.37894,0.31012 -0.63777,0.31012c-0.40695,0 -0.74386,-0.29981 -0.80191,-0.6906l-0.13785,-0.82714c-0.84622,-2.10335 -1.65881,-5.23938 -3.70217,-6.44387c0,0 -0.29146,-0.17487 -0.38372,-0.48688z" data-paper-data="{&quot;index&quot;:null}" fill="#9f4d1e"/><path d="M225.34742,209.20968c-0.51049,0.6938 -3.72995,1.42932 -4.56985,0.83366c-0.90252,-0.64008 -0.01579,-1.39886 -0.63227,-2.05296c-0.56511,-0.5996 -0.98954,-0.97023 -1.4507,-1.6839c-0.05229,-0.03891 -0.08177,-0.06839 -0.08177,-0.06839l-0.35055,-0.39096c-0.18118,-0.41435 -0.58017,-0.7923 -0.54353,-1.24304c0.08895,-1.09447 0.39385,-5.35927 1.56463,-5.82453c0.08775,-0.03487 2.35708,1.80585 2.42839,1.79408c1.62941,-0.2689 3.12906,1.03771 4.61813,1.45091c0.88484,0.24553 1.61654,0.05802 2.09085,0.4895c0.03685,-0.013 0.07412,-0.02587 0.11182,-0.03862v-0.04046h1.09958c0.44777,0 0.81075,0.36298 0.81075,0.81075c0,0.44777 -0.36298,0.81075 -0.81075,0.81075h-0.78014c-1.31438,0.45726 -1.01412,1.62565 -1.34083,2.43888c-0.37749,0.93965 -1.32038,1.56814 -2.16373,2.71434z" data-paper-data="{&quot;index&quot;:null}" fill="#9f4d1e"/><path d="M226.58615,211.43793l0.2932,-0.30813c-0.46236,-2.31182 -0.50066,-5.2779 2.36224,-6.12912c1.8525,-0.5508 4.00605,0.90767 5.66746,1.47352c2.02329,0.6891 4.36219,0.37705 6.41114,-0.03195c2.58725,-0.36588 5.55353,-2.64233 8.21241,-1.57859c4.8713,1.94887 5.50554,8.71683 0.55436,10.72503c-1.79015,1.07409 -4.65265,2.59391 -6.86344,2.01015c-2.33401,-0.61631 -2.07112,-3.92809 -3.19444,-5.45379c-0.76586,-1.0402 -1.83932,0.32277 -2.00431,0.97963c-0.14814,0.58979 -0.30615,1.18029 -0.53044,1.74553c-1.05117,2.09107 -3.34745,2.91521 -5.87221,2.56272c-0.77125,-0.10768 -2.05388,0.53246 -2.7071,-0.02269c-1.37095,-1.16512 -2.48724,-3.90347 -2.32886,-5.97231z" data-paper-data="{&quot;index&quot;:null}" fill="#d48631"/><path d="M253.97143,213.61996c-0.51093,-0.27774 -0.35673,-0.89455 -0.35673,-0.89455l0.08575,-0.2432c0.15225,-1.63273 0.59433,-2.37626 2.34933,-1.90272c0.83009,-0.55841 1.54319,-0.2898 2.27725,-0.47181c0.54675,-0.13557 0.09631,-1.27912 0.56405,-1.59302c0.52146,-0.34996 1.31648,0.37657 1.88125,0.10192c0.72926,-0.35465 -0.02611,-2.12703 1.57954,-2.53129c1.10852,-0.2791 2.49001,0.85169 3.11461,1.58521c1.71946,2.01934 3.03745,5.62586 1.67447,8.05278c-1.23666,1.23666 -5.3524,3.95939 -7.22085,3.48262c-1.57967,-0.40308 -1.47136,-2.19603 -2.64032,-2.78587c-0.51119,-0.25794 -1.16611,0.44676 -1.70067,0.2416c-1.06513,-0.4088 -1.42729,-1.81188 -1.60766,-3.04167z" data-paper-data="{&quot;index&quot;:null}" fill="#d48631"/><path d="M218.09647,205.15864l0.16024,0.2132c0.23135,0.33237 0.85643,-0.10467 1.21153,0.08999c1.09049,0.59775 0.61503,1.14841 0.9095,1.91723c0.12206,0.31868 0.53025,-0.53175 0.87146,-0.53726c0.50682,-0.00817 1.01014,0.2378 1.42641,0.52703c0.2897,0.20129 0.25024,1.08374 0.55283,0.90242c0.094,-0.05633 0.18671,-0.11479 0.27857,-0.17463l-0.1173,-0.10054l0.65632,-0.76571c0.14872,-0.17562 0.37084,-0.28712 0.619,-0.28712c0.44777,0 0.81075,0.36298 0.81075,0.81075c0,0.11979 -0.02598,0.23352 -0.07261,0.33584l-0.32282,0.75323c-0.81888,1.90858 -2.0882,3.56438 -2.85175,5.48064c-0.34162,0.85735 -0.79154,2.49889 -1.70088,2.94782c-1.09596,0.54106 -2.19015,-0.35005 -3.2084,-0.57473c-1.36203,0.00524 -2.73104,0.75833 -4.01718,0.1369c-1.72879,-0.8353 -2.23355,-3.3895 -1.85425,-5.07522c0.65565,-2.91399 3.5364,-4.90934 5.19021,-7.22468c0,0 0.47124,-0.65974 1.13098,-0.1885c0.3659,0.26136 0.38391,0.58071 0.32737,0.81332z" data-paper-data="{&quot;index&quot;:null}" fill="#d48631"/><path d="M234.0287,155.30086c0.19116,-1.14652 0.03172,-4.3146 1.30743,-4.94897c1.40534,-0.69882 1.79783,0.82993 2.68139,0.7006c0.43544,-0.06374 0.21066,-4.10885 0.23959,-4.22129c0.12755,-0.49585 0.323,-1.06461 0.75677,-1.33661c0.25313,-0.15873 0.53033,0.36546 0.82824,0.34269c0.14885,-0.01137 -0.23007,-0.23999 -0.22183,-0.38904c0.02023,-0.3656 0.2192,-0.69947 0.30178,-1.0562c0.20048,-0.86613 0.40174,-1.45643 0.73288,-2.04785l-0.0912,-0.03648l0.29476,-0.7369c0.11497,-0.30791 0.41177,-0.52717 0.75978,-0.52717c0.3005,0 0.56282,0.16348 0.70286,0.40636l0.44501,0.74169l-0.01431,0.00859l0.04096,0.03944c0.7019,1.64393 1.91596,3.087 2.33049,4.86029c0.09932,0.42488 -0.1929,1.13371 0.21394,1.29139c0.17059,0.06612 0.5494,-0.01249 0.91295,-0.07103c0.35659,-0.05743 0.81432,-1.36959 0.93061,-1.23292c0.07441,0.08746 0.6618,4.17519 0.75824,4.55124c0.53676,2.09294 -0.40791,3.02292 -0.38249,5.15807c0.04299,0.0332 0.06693,0.05714 0.06693,0.05714l0.30177,0.30178c2.21103,2.21782 5.60417,2.79015 8.08104,4.76856c2.11191,1.69237 3.95749,3.22348 5.58315,5.44005c0.66677,0.90912 1.21135,2.72169 1.93637,3.44316c0.50412,0.50167 3.34131,0.16608 4.05616,0.31044c2.21225,0.44675 3.72705,1.87601 5.2611,3.41212c1.90784,2.2243 4.40165,5.64967 3.33778,8.81909c-0.25575,0.7619 -0.71454,1.1248 -1.24695,1.66c-3.27832,3.29548 -6.62801,0.27577 -7.67766,-3.32875c-0.30298,-0.7555 -0.48257,-1.53977 -0.9547,-2.21359c-0.83862,-1.19687 -3.61992,-2.64069 -4.68013,-0.79103c-1.42704,2.4896 1.81564,4.87032 3.69453,5.61461c1.19516,0.51431 2.76845,1.13603 3.53519,2.26425c1.67843,2.46974 -0.07397,7.13515 -1.88337,9.13487c-1.98571,2.19458 -16.59054,11.90898 -19.06194,9.52258c-0.13732,-0.37848 -1.34449,-1.19256 -1.08047,-1.76591c1.86204,-4.04356 13.67535,-11.91918 14.12421,-14.54565c0.20164,-1.1799 0.13651,-3.23087 -1.1094,-3.5247c-1.27527,-0.30076 -3.28826,0.17258 -4.64208,0.17258c-4.55056,0 -8.07049,0.8 -11.52301,3.86078c-1.05407,0.93447 -1.66041,2.51823 -2.56863,3.59168c-0.34954,0.41312 -0.60688,1.16127 -1.14787,1.14805c-0.82116,-0.02007 -1.26138,-1.40921 -1.50719,-2.01851c-0.52789,-1.42391 -2.75936,-0.75584 -3.91737,-1.65404c-2.59136,-2.00997 -5.00591,-4.71513 -7.79126,-5.56773c-1.89359,-0.57963 -3.15541,-1.22885 -5.01105,-0.4876c-0.71085,0.35459 -2.53501,1.07112 -2.95235,1.78309c-0.97266,1.65933 0.11621,5.83658 0.2596,7.6707c0.08129,1.03978 1.94882,4.53638 0.94918,5.32077c-0.89922,0.70559 -5.4807,-0.28314 -6.47061,-0.67659c-3.26693,-1.95677 -6.73095,-7.97304 -4.92542,-11.85685c0.78856,-1.69625 2.7753,-2.60624 4.54717,-2.87832c1.03925,-0.15958 1.90625,-0.49932 1.70081,-0.69021c0.57587,-3.50995 0.29238,-6.02375 0.57777,-9.61681c0.13164,-1.65733 0.67411,-3.46493 1.08716,-5.07942c0.42803,-1.67303 1.07377,-2.80842 1.92465,-4.22656c1.9168,-1.93886 4.4974,-3.61693 7.01349,-4.76724c2.61034,-1.1934 6.19221,-1.53852 8.42617,-3.36387c0,0 0.0146,-0.01168 0.04115,-0.02928c0.03942,-0.23651 0.07884,-0.47302 0.11826,-0.70953z" data-paper-data="{&quot;index&quot;:null}" fill="#a25121"/><path d="M228.1215,185.59975c2.90374,0.87013 5.56475,2.59344 8.08636,4.22294c0.82856,0.53543 1.77019,1.28996 2.28225,2.12962c0.22366,0.36675 0.0809,0.50939 0.47725,0.67504c0.20555,0.08591 1.53952,-1.60503 1.69597,-1.79319c4.92143,-4.92873 11.19379,-9.23812 18.4801,-6.80859c3.02903,1.34719 2.52511,3.92365 2.04925,6.61906c-0.82815,4.69084 -2.12136,8.72216 -6.89087,10.51195c-2.14643,0.80165 -4.44574,1.34266 -6.55987,2.18397c-0.99253,0.39497 -1.30753,1.25021 -2.48676,1.48326c-3.03377,0.59957 -6.98002,-0.31412 -10.11046,-0.31788c-2.08205,0.20079 -3.03084,-0.80988 -4.93594,-1.22599c-3.77615,-0.82479 -8.86926,-1.33105 -11.27449,-4.83916c-0.77782,-1.13446 -0.90743,-2.53072 -1.2316,-3.83767c-0.24339,-2.17991 -0.81646,-5.01826 -0.07126,-7.13515c1.60213,-4.55121 7.00953,-4.28897 10.22556,-2.14962c0,0 0.15283,0.10188 0.26451,0.2814z" data-paper-data="{&quot;index&quot;:null}" fill="#de8f31"/><path d="M251.60633,215.19319c-1.8463,2.28578 -5.89054,3.37273 -8.75043,2.36996c-1.55195,-0.54417 -2.17075,-2.14775 -2.48318,-3.61266c-0.08392,-0.39346 -0.24039,-1.0656 -0.26469,-1.58518c-0.40208,0.43566 -0.99039,0.88431 -1.38604,0.74966c-0.15732,0.857 -0.39854,1.92337 -0.78064,2.58646c-1.87639,3.25627 -8.39083,3.41535 -10.42878,0.48782c-0.78435,-1.12674 -0.88556,-2.75735 -0.88834,-4.06758c0,0 0,-0.81075 0.81075,-0.81075c0.81075,0 0.81075,0.81075 0.81075,0.81075c-0.00237,0.98454 0.01995,2.32429 0.62053,3.17496c1.33583,1.89211 6.54597,1.86127 7.67757,-0.4175c0.31868,-0.64174 0.52444,-1.63953 0.64244,-2.35488v-1.00612v0v0c0,-0.44777 0.36298,-0.81075 0.81075,-0.81075c0.22388,0 0.42657,0.09075 0.57328,0.23747l0.39111,0.39111c0.06179,-0.0149 0.12016,-0.0426 0.17348,-0.08605c0.5616,-0.45768 0.95141,-1.58903 2.06886,-1.07137c0.95948,0.44448 0.70513,4.03632 1.26591,5.00533c1.39373,2.40836 6.5432,0.67489 7.87048,-1.00359c0.20118,-0.25148 0.40237,-0.50295 0.60354,-0.75443l0.26027,-0.39591c0,0 0.29439,-0.44159 0.76408,-0.37201c-0.05858,-0.57595 -0.12856,-1.13183 -0.25369,-1.61194c-0.48516,-1.86151 -1.49923,-3.13451 -2.63061,-4.64301c0,0 -0.85129,-1.13505 0.28376,-1.98633c1.13505,-0.85129 1.98633,0.28376 1.98633,0.28376c1.35204,1.80273 2.51376,3.396 3.10307,5.61725c0.38791,1.46213 0.31953,3.11393 0.70744,4.53244c0.3014,1.10215 2.37111,1.13186 3.08724,1.50592c0.86151,0.44999 1.2311,1.54643 2.04355,2.07993c0.46392,0.30464 1.07466,-0.33723 1.53245,-0.651c1.55224,-1.0639 3.14361,-2.21137 4.66263,-3.3466c1.55319,-1.3819 0.24198,-2.39608 -0.51537,-4.08015c-1.48887,-3.31068 -3.96495,-5.84402 -6.68095,-8.22212l-1.16177,-0.87133c-0.35212,-0.25817 -0.58074,-0.67487 -0.58074,-1.14495c0,-0.78359 0.63522,-1.41881 1.41881,-1.41881c0.10541,0 0.20813,0.0115 0.30698,0.0333l1.48014,0.29603l-0.03207,0.16032c0.32458,-0.0409 0.6477,-0.09073 0.96815,-0.15696c2.29268,-0.47387 4.77213,-3.58398 5.84693,-5.49246c1.65675,-2.94183 1.74239,-6.1512 -1.17927,-7.13152c-1.66631,0.07546 -3.4284,0.14549 -4.52208,-1.45734c-1.12303,-1.64584 -1.17537,-6.88243 0.73091,-7.90699c0.7334,-0.39418 1.6835,-0.12304 2.49729,0.05306c2.25901,0.48883 2.92819,2.15613 3.55441,4.11189c0.25072,0.78302 0.30015,1.75439 0.771,2.4083c0.26651,0.08253 0.58575,0.25089 0.7793,0.59425c1.62639,0.70332 4.84493,1.31364 4.88232,-1.07185c-0.33918,-3.75271 -2.24329,-8.52055 -5.63673,-10.53919c-1.7453,-1.03821 -3.96559,-0.57711 -5.74537,-1.43716c-1.9727,-0.95328 -2.0237,-2.36742 -3.14903,-3.95304c-1.51933,-2.14077 -3.40953,-3.68814 -5.23814,-5.51017c-1.85185,-1.66929 -5.58324,-1.61838 -7.07915,-3.46899c-1.293,-1.59958 -0.87193,-5.04228 -1.05865,-6.93312c-0.09081,-0.91966 -0.76541,-3.42924 -0.83434,-4.3508c-0.01326,-0.17716 0.57934,1.03691 0.41051,1.09226c-0.58815,0.19284 -0.98148,1.2552 -1.55308,1.01777c-0.84906,-0.35268 -1.05835,-1.50594 -1.52675,-2.29706c-0.77836,-1.31462 -1.49158,-2.75771 -2.18536,-4.18036c-0.02639,1.30796 -0.14013,2.5918 -0.59622,3.44258c-0.23414,0.43677 -0.9386,0.42299 -1.2451,0.8124c-0.43945,0.55833 -0.0501,3.07492 -0.0501,3.71986c0,0 0,0.33777 -0.1648,0.6837c0.09728,0.36504 0.06318,0.82987 -0.40164,1.2947c-1.00325,1.00325 -2.0065,0 -2.0065,0l-0.44416,-0.57791c-0.10722,-0.25445 -0.25284,-0.48826 -0.41123,-0.71541c-0.02327,1.59284 -0.52448,3.52536 -0.65264,4.80694c0,0 -0.09349,0.93487 -0.88907,1.20703c-0.31303,0.3533 -0.75293,0.47327 -0.75293,0.47327c-3.57161,0.97226 -6.53772,1.90088 -9.90645,3.3981c-1.51698,0.67421 -3.53565,1.58281 -4.60272,2.91459c-1.93685,2.41735 -3.15665,6.23114 -3.76567,9.20667c0.00924,2.60474 0.38178,5.24898 0.1578,7.85716c-0.07522,0.87592 -0.44039,1.94679 -1.01543,2.61178c-1.20311,1.39132 -3.47336,0.19759 -4.91689,1.79115c-0.96724,1.06777 -0.7987,3.47564 -0.45244,4.73874c0.92797,3.38512 2.11642,5.45298 4.92982,7.59025c1.79834,0.78673 2.69787,1.06399 4.60767,0.46811l1.16212,-0.05983c0,0 1.41881,0 1.41881,1.41881c0,0.47384 -0.15825,0.78944 -0.36905,0.99964c0.20253,0.04903 0.41788,0.15666 0.63897,0.35011c1.06776,0.9343 0.13347,2.00205 0.13347,2.00205c-2.6425,3.00876 -7.85363,5.89798 -8.72918,10.05433c-0.742,3.52246 2.56075,1.98315 4.54795,2.24357c0.79186,0.10377 1.59891,1.07597 2.29567,0.68567c0.35579,-0.19929 0.46055,-0.67312 0.69083,-1.00968c2.81291,-2.79099 4.46292,-6.66427 6.838,-9.83643l0.46958,-0.99031c0,0 0.63451,-1.26902 1.90353,-0.63451c1.26902,0.63451 0.63451,1.90353 0.63451,1.90353l-0.73752,1.42387c-2.45739,3.2705 -4.15538,7.17221 -7.04353,10.08055c-2.24684,2.22458 -2.62681,1.68555 -5.46313,1.18485c-0.90886,-0.16044 -1.80945,0.54211 -2.72922,0.46605c-3.26581,-0.27008 -4.75502,-3.14891 -4.1902,-6.06856c0.94823,-4.90149 6.31901,-7.86175 9.37717,-11.37152c0,0 0.03622,-0.0414 0.10257,-0.10077l-0.13597,-0.02346c-2.70285,0.78604 -4.34377,0.39213 -6.85968,-0.73898c-4.25249,-3.15866 -9.60142,-11.42611 -5.17934,-16.64117c0.67744,-0.79892 2.26799,-1.67327 3.27105,-1.94782c0.55991,-0.15326 1.15122,-0.22045 1.73099,-0.19115c0.22408,0.01133 0.48553,0.50296 0.59806,0.30885c0.13326,-0.22988 -0.32615,-0.44514 -0.36683,-0.70773c-0.08472,-0.54672 0,-1.10649 0,-1.65975c0,-2.16858 -0.14993,-4.31211 -0.14398,-6.47703c0.68348,-3.48088 2.07735,-7.90062 4.38219,-10.71031c3.58615,-4.37167 10.41645,-5.77451 15.5929,-7.16498c0.13142,-1.77866 0.11826,-3.65189 0.38764,-5.37227c0.1433,-0.91519 -0.17979,-2.29138 0.65069,-2.70176c1.09401,-0.54061 2.09144,-0.23833 2.93513,0.41398c0.05408,-0.80341 0.20968,-1.57518 0.58889,-2.21005c0.2326,-0.38942 0.9027,-0.32931 1.16908,-0.69646c0.48642,-0.67043 -0.09936,-1.65671 -0.06132,-2.48415c0.01887,-0.41052 0.25821,-2.75398 0.30735,-3.24549l0.14932,-1.49325c0.06356,-0.72478 0.67206,-1.29324 1.41334,-1.29324c0.47009,0 0.88678,0.22861 1.14495,0.58073l0.89541,1.19388l-0.27132,0.20349c1.06568,1.19177 1.79511,2.49367 2.66481,4.23062c0.55423,1.10689 1.25887,2.17424 1.53791,3.38027c0.05924,0.25603 -0.55989,0.82721 -0.31966,0.72067c0.48663,-0.21583 0.65692,-1.26015 1.16288,-1.09464c0.97722,0.31969 1.63417,1.31255 2.17546,2.18672c1.08448,1.75139 0.58067,4.75498 0.86331,6.7127c0.11216,0.77691 -0.15078,1.6972 0.30711,2.33478c0.45381,0.63188 1.52224,0.34308 2.2521,0.61237c1.76003,0.64941 3.12726,1.33812 4.55028,2.55763c2.74631,2.75695 4.73397,5.29434 6.93023,8.4507c0.45096,0.6481 1.21359,0.57462 1.88455,0.69996c1.6546,0.30909 3.33314,0.5093 4.81576,1.37481c4.33293,2.52943 6.60327,8.24 7.0377,12.99906c-0.09585,0.70335 0.02953,1.47494 -0.28755,2.11004c-1.00916,2.02135 -3.59751,2.67496 -6.03675,2.34755c1.07757,4.26318 -3.1718,10.02897 -6.12109,12.40351c-0.53755,0.43279 -1.53612,1.15477 -2.51475,1.60712c2.29658,2.20527 4.30015,4.6164 5.63137,7.57283c1.38254,3.07043 2.37823,4.64287 -0.2136,7.38719c-2.14762,1.61533 -6.27249,5.55326 -9.19531,4.45202c-0.95424,-0.35953 -1.25745,-1.71313 -2.18126,-2.14488c-1.88639,-0.8816 -3.49466,-0.71697 -4.45708,-3.02068c-0.16673,-0.3991 -0.27167,-0.87219 -0.34767,-1.3775c-0.18727,0.23408 -0.37452,0.46816 -0.56179,0.70224zM264.55301,183.31054l0.74473,0.00704c0.38656,0.04183 0.70835,0.06758 0.99528,0.09483c-0.38739,-1.69883 -0.643,-3.64555 -2.47285,-3.81975c-0.47563,-0.04528 0.24683,0.92454 0.32719,1.39552c0.13254,0.77679 -0.12798,1.60994 0.07254,2.3666c0.1926,-0.04423 0.33313,-0.04423 0.33313,-0.04423z" data-paper-data="{&quot;index&quot;:null}" fill="#783b1a"/><path d="M230.25043,205.02298c-0.22258,-0.76886 -0.38746,-1.61754 0.48268,-2.22933c1.04676,-0.73597 2.27825,0.04834 2.73194,0.951c0.54665,1.08756 -0.10633,2.80134 0.3126,3.9506c0.22902,0.62827 1.54971,1.49996 1.00185,2.34191c-0.54233,0.83345 -2.19691,0.40031 -2.81157,-0.02438c-1.15543,-0.79834 -1.21234,-2.29855 -1.42548,-3.66353c-0.14605,-0.2251 -0.14605,-0.4837 -0.14605,-0.4837l0.02333,-0.17199c-0.0376,-0.16388 -0.08096,-0.32342 -0.13261,-0.47694c0,0 -0.02615,-0.07846 -0.0367,-0.19362z" data-paper-data="{&quot;index&quot;:null}" fill="#98461d"/><path d="M248.25681,205.64908c-0.05164,0.15352 -0.09501,0.31305 -0.13261,0.47694l0.02333,0.17199c0,0 0,0.2586 -0.14605,0.4837c-0.21314,1.36497 -0.27005,2.86519 -1.42548,3.66353c-0.61466,0.42469 -2.26924,0.85782 -2.81157,0.02438c-0.54786,-0.84195 0.77284,-1.71363 1.00185,-2.34191c0.41893,-1.14925 -0.23405,-2.86303 0.3126,-3.9506c0.4537,-0.90266 1.68518,-1.68697 2.73194,-0.951c0.63231,0.44457 0.71807,1.01423 0.6323,1.58746c-0.03226,0.21561 -0.08878,0.43172 -0.14962,0.64187c-0.01054,0.11516 -0.0367,0.19363 -0.0367,0.19363z" data-paper-data="{&quot;index&quot;:null}" fill="#98461d"/><path d="M243.73931,155.65028c-0.18901,-0.10737 -0.36668,-0.30923 -0.36668,-0.68878c0,-0.81075 0.81075,-0.81075 0.81075,-0.81075l0.90365,0.50964c0.40606,1.02544 0.82965,1.98432 1.20094,3.01553c0.232,0.07972 0.51679,0.27544 0.51679,0.75596c0,0.81075 -0.81075,0.81075 -0.81075,0.81075l-0.15814,-0.01035c-0.0453,0.00992 -0.08862,0.01613 -0.13002,0.01906c-3.08409,0.52112 -5.48345,1.88223 -8.74742,1.33824c0,0 -0.79971,-0.13329 -0.66643,-0.933c0.13329,-0.79971 0.933,-0.66643 0.933,-0.66643c2.72657,0.45443 4.8803,-0.57883 7.39119,-1.16561c-0.27678,-0.7366 -0.57553,-1.43952 -0.87689,-2.17426z" data-paper-data="{&quot;index&quot;:null}" fill="#843e18"/><path d="M233.00201,206.02706c-0.20477,-0.03431 0.12362,-0.15651 -0.01618,-0.48273c-0.31937,-0.74519 -0.12397,-0.95461 -0.12397,-0.95461l0.92606,-0.37887c2.3733,-0.03768 4.66595,0.17718 7.02525,0.31456c1.14072,0.06642 2.8267,-0.17761 3.90184,0.13587c1.35275,0.39443 1.22233,0.80498 1.68923,1.95843c0.00472,1.22093 -0.1006,2.82461 -1.20068,3.65935c-0.99636,0.75602 -2.79362,0.30028 -3.945,0.37332c-3.74024,0.23723 -8.64062,0.42368 -8.25654,-4.62533z" data-paper-data="{&quot;index&quot;:null}" fill="#de9a39"/><path d="M244.87537,193.58648c0.05705,-0.08843 0.10911,-0.14048 0.10911,-0.14048l0.16422,-0.15951c2.20129,-1.83205 4.52223,-3.51354 7.10149,-4.77137c2.08719,-0.2808 4.98662,-0.22711 5.93827,2.13042c0.92391,2.28881 -0.71443,6.82468 -2.22306,8.62276c-1.24503,1.4839 -3.32096,2.44978 -5.00843,3.29351c-1.78781,0.76109 -4.95465,1.62198 -6.78827,0.51981c-1.93889,-1.16545 -2.42465,-6.47133 -1.13028,-8.22731c0.44135,-0.59874 1.13781,-0.97457 1.83696,-1.26781z" data-paper-data="{&quot;index&quot;:null}" fill="#fffeff"/><path d="M232.26873,196.11068c0.05797,0.04062 0.09128,0.07394 0.09128,0.07394l0.46597,0.60616c0.67523,2.77195 -2.22911,5.59201 -4.50967,2.87961c-2.29773,-2.73284 1.07881,-5.23699 3.70828,-3.78652c0,0 0.13779,0.07874 0.24413,0.22681z" data-paper-data="{&quot;index&quot;:null}" fill="#4d2813"/><path d="M244.75403,196.63887c2.62947,-1.45048 6.00601,1.05367 3.70828,3.78651c-2.28056,2.71241 -5.18489,-0.10765 -4.50966,-2.87961l0.46597,-0.60616c0,0 0.03332,-0.03332 0.09128,-0.07394c0.10634,-0.14807 0.24413,-0.22681 0.24413,-0.22681z" data-paper-data="{&quot;index&quot;:null}" fill="#4d2813"/><path d="M235.06835,194.83958c1.29438,1.75598 0.80862,7.06186 -1.13028,8.22731c-1.83362,1.10217 -5.00047,0.24128 -6.78828,-0.51981c-1.68747,-0.84373 -3.76339,-1.80961 -5.00843,-3.29351c-1.50863,-1.79807 -3.14698,-6.33395 -2.22307,-8.62276c0.95165,-2.35752 3.85108,-2.41122 5.93827,-2.13042c2.57926,1.25783 4.9002,2.93932 7.10149,4.77137l0.16421,0.15951c0,0 0.05206,0.05206 0.10911,0.14049c0.69915,0.29326 1.39562,0.66908 1.83696,1.26781z" data-paper-data="{&quot;index&quot;:null}" fill="#fffeff"/><path d="M243.39069,188.90422c-0.00888,-0.0134 -0.01764,-0.0273 -0.02628,-0.0417c-0.39376,-0.65627 0.2625,-1.05003 0.2625,-1.05003l0.53304,-0.31962c2.12357,-1.20947 4.35552,-2.34386 6.55592,-3.42064c1.60295,1.15153 2.42684,3.66182 1.19319,5.56844c-0.77419,1.19652 -2.69575,1.7489 -3.83651,2.47878c-0.79001,0.50547 -1.50301,1.71664 -2.65691,1.45687c-1.74267,-0.39233 -1.74141,-3.31116 -2.02495,-4.6721z" data-paper-data="{&quot;index&quot;:null}" fill="#713617"/><path d="M233.04904,193.67156c-1.1539,0.25978 -1.8669,-0.9514 -2.65691,-1.45687c-1.14076,-0.72988 -3.06231,-1.28226 -3.83651,-2.47878c-1.23367,-1.90662 -0.40976,-4.41691 1.19319,-5.56844c2.2004,1.07679 4.43235,2.21116 6.55592,3.42064l0.53304,0.31962c0,0 0.65627,0.39376 0.2625,1.05003c-0.00864,0.0144 -0.01741,0.0283 -0.02628,0.0417c-0.28354,1.36094 -0.28228,4.27977 -2.02495,4.6721z" data-paper-data="{&quot;index&quot;:null}" fill="#713617"/><path d="M233.09516,197.18084c0.05796,0.04063 0.09128,0.07394 0.09128,0.07394l0.46597,0.60616c0.67522,2.77195 -2.22911,5.59201 -4.50966,2.87961c-2.29773,-2.73284 1.07881,-5.23698 3.70828,-3.78651c0,0 0.13779,0.07874 0.24413,0.22681z" data-paper-data="{&quot;index&quot;:null}" fill="#4d2813"/><path d="M245.09375,216.45396c-0.40537,0 -0.40537,-0.40537 -0.40537,-0.40537c0,-0.5405 0,-1.21612 0,-1.75662c0,0 0,-0.40537 0.40537,-0.40537c0.40537,0 0.40537,0.40537 0.40537,0.40537c0,0.5405 0,1.08099 0,1.6215v0.13513c0,0 0,0.40537 -0.40537,0.40537z" data-paper-data="{&quot;index&quot;:null}" fill="#a0531a"/><path d="M246.98549,216.18371c-0.40537,0 -0.40537,-0.40537 -0.40537,-0.40537c0,-0.27025 0,-0.67562 0,-0.94588c0,0 0,-0.40537 0.40537,-0.40537c0.40537,0 0.40537,0.40537 0.40537,0.40537c0,0.27025 0,0.5405 0,0.81075v0.13513c0,0 0,0.40537 -0.40537,0.40537z" data-paper-data="{&quot;index&quot;:null}" fill="#a0531a"/><path d="M248.60699,215.37296c-0.40537,0 -0.40537,-0.40537 -0.40537,-0.40537c0,-0.13513 0,-0.40537 0,-0.5405c0,0 0,-0.40537 0.40537,-0.40537c0.40537,0 0.40537,0.40537 0.40537,0.40537c0,0.13513 0,0.27025 0,0.40537v0.13513c0,0 0,0.40537 -0.40537,0.40537z" data-paper-data="{&quot;index&quot;:null}" fill="#a0531a"/><path d="M233.87841,216.58908c-0.40537,0 -0.40537,-0.40537 -0.40537,-0.40537v-0.40537c0.00354,-0.23066 -0.03822,-0.46479 -0.11432,-0.68256c0,0 -0.12819,-0.38457 0.25638,-0.51277c0.38457,-0.12819 0.51277,0.25638 0.51277,0.25638c0.09712,0.30204 0.1524,0.62169 0.15593,0.93894v0.40537c0,0 0,0.40537 -0.40537,0.40537z" data-paper-data="{&quot;index&quot;:null}" fill="#a0531a"/><path d="M232.39203,216.99446c-0.40537,0 -0.40537,-0.40537 -0.40537,-0.40537c0,-0.13513 0,-0.67562 0,-0.81075c0,0 0,-0.40537 0.40537,-0.40537c0.40537,0 0.40537,0.40537 0.40537,0.40537c0,0.13513 0,0.27025 0,0.40537v0.40537c0,0 0,0.40537 -0.40537,0.40537z" data-paper-data="{&quot;index&quot;:null}" fill="#a0531a"/><path d="M230.23004,216.04858c0,-0.22388 0.18149,-0.40537 0.40537,-0.40537c0.22388,0 0.40537,0.18149 0.40537,0.40537c0,0.22388 -0.18149,0.40537 -0.40537,0.40537c-0.22388,0 -0.40537,-0.18149 -0.40537,-0.40537z" data-paper-data="{&quot;index&quot;:null}" fill="#a0531a"/><g><path d="M222.22658,216.45281l0.17587,0.49738c0.3121,3.63264 -2.3415,4.48348 -4.85704,6.28147c-1.3293,0.95012 -2.37981,2.09411 -4.19517,1.25211c-3.55521,-1.64899 -2.11512,-6.34773 0.62301,-7.74914c0.49932,-0.67523 -1.1354,-2.86316 -1.90197,-3.04674c-0.48077,-0.11513 -0.77105,0.62618 -1.2011,0.87001c-1.13754,0.64501 -2.86015,2.17648 -4.16197,2.31517c-2.40641,0.2564 -4.88377,-4.29894 -4.06523,-6.51774c0.54338,-1.47294 2.57819,-2.27703 3.75818,-3.11782c1.92664,-1.09293 4.20335,-3.1304 6.55529,-3.15296c5.16351,-0.04952 7.42488,7.79208 9.21349,11.58457c0,0 0.1847,0.39166 0.05664,0.78368z" fill="#fdea06"/><path d="M204.84545,209.52451l0.46297,0.50074c0.71253,1.28255 1.64957,2.4711 2.33302,3.75355c1.07243,2.01233 0.73793,6.08501 -2.60569,4.14055c-2.76427,-1.60755 -3.88125,-6.75605 -1.98399,-9.08273c0,0 0.66736,-0.76269 1.43005,-0.09534c0.30154,0.26384 0.37954,0.54259 0.36364,0.78321z" fill="#000000"/><path d="M208.17223,217.81415c-1.01343,0 -1.01343,-1.01343 -1.01343,-1.01343l0.07248,-0.33302c-1.00735,-2.54196 -2.69774,-4.69537 -3.91789,-7.11854c0,0 -0.45322,-0.90644 0.45322,-1.35966c0.90644,-0.45322 1.35966,0.45322 1.35966,0.45322c1.23087,2.48174 2.94129,4.67896 3.98691,7.27223l0.07248,1.08578c0,0 0,1.01343 -1.01343,1.01343z" fill="#494343"/><path d="M209.18567,217.30743c-1.01343,0 -1.01343,-1.01343 -1.01343,-1.01343v-0.10134c0.013,-2.92986 -1.51299,-5.54725 -3.62068,-7.45894c0,0 -0.74988,-0.68171 -0.06817,-1.43159c0.68171,-0.74988 1.43159,-0.06817 1.43159,-0.06817c2.53247,2.30713 4.27113,5.45538 4.28412,8.9587v0.10134c0,0 0,1.01343 -1.01343,1.01343z" fill="#7a7171"/><path d="M213.97686,216.1494c0.18776,-0.87508 1.11107,-0.75966 1.11107,-0.75966l1.03138,0.15454c0.66923,0.24463 2.45014,1.10243 3.15242,0.91428c0.83012,-0.22239 1.19384,-1.67706 2.04634,-1.56833c0.59582,0.076 0.80412,0.89314 1.18313,1.35911c1.42667,1.75398 1.19983,3.25778 0.03477,5.04496c-2.10919,2.10919 -6.8491,6.07916 -10.12371,4.53542c-4.51938,-2.13057 -1.7356,-7.96999 1.56459,-9.6803z" fill="#070707"/></g><g><path d="M224.15317,161.24671c-0.21422,0.35289 -1.08058,1.55007 -2.5991,0.79081c-1.76792,-0.88396 -0.88396,-2.65187 -0.88396,-2.65187l0.86915,-1.15598c1.49132,-0.97595 3.16385,-1.68519 4.86364,-2.22116c0,0 1.88919,-0.58129 2.47048,1.3079c0.58129,1.88919 -1.3079,2.47048 -1.3079,2.47048c-1.18355,0.35306 -2.35789,0.81446 -3.41232,1.45982z" fill="#ad5821"/><path d="M221.45831,152.46112c-0.31801,0.10149 -0.63098,-0.06999 -0.63098,-0.06999l-0.2376,-0.16141c-2.92009,-0.7351 -2.39101,-2.46155 -1.10087,-4.63969c1.46451,-2.4725 3.43198,-4.67036 4.76629,-7.14935c2.11763,-2.61812 4.27878,-4.33331 7.35852,-5.5131c0.97278,-0.37267 1.78891,-0.96303 2.89301,-1.04938c1.78389,-0.13951 3.52451,-0.00406 5.24889,0.25636c0.32829,0.09114 0.65564,0.16783 0.99974,0.28266l0.12364,0.04121c0,0 0.09345,0.03116 0.17527,-0.01165c1.35655,0.37763 2.69529,0.56992 4.09103,0.75916c4.51689,1.99694 9.10658,4.65238 12.67379,8.08698c1.38021,1.3289 2.91272,3.25287 1.96895,5.33593c-0.35455,0.78258 -1.49768,1.88316 -2.08078,2.57551c-1.08883,4.93572 -5.08837,6.92743 -9.26743,8.81617c-2.33792,1.05663 -4.32751,2.89887 -6.82295,3.73306c-1.1883,0.39723 -2.9168,0.22854 -4.15628,0.31836c-1.78876,-0.06565 -3.55566,-0.04187 -5.1713,-0.9272c-1.85724,-1.01772 -3.03653,-2.8714 -4.59537,-4.21286c-2.33842,-2.01232 -4.20382,-4.21961 -6.23554,-6.47079z" fill="#fef53e"/><path d="M217.28304,152.54321c-0.2786,-0.23643 -0.49958,-0.61443 -0.47687,-1.21846c0.0584,-1.55353 1.61193,-1.49512 1.61193,-1.49512l0.98226,0.24189c1.78896,1.11429 3.46382,2.06503 5.11383,3.39563c1.30106,1.17217 2.79734,2.08108 4.08632,3.25792c1.55771,1.42219 2.8213,3.66862 4.83513,4.51407c1.21684,0.51085 3.22456,0.27519 4.47751,0.10132c4.28076,-0.59403 9.10132,-2.05576 12.31844,-5.04354c1.62621,-1.51029 3.45203,-3.41904 4.85692,-5.11634c0.63882,-0.77176 0.86286,-1.96016 1.73405,-2.45488c0.99159,-0.56309 2.26036,-0.30348 3.39053,-0.45522c2.68156,4.79323 4.91605,9.56434 4.43702,15.19524c-0.16167,1.90046 -0.11137,4.09884 -1.40344,5.71688c-1.39886,1.75178 -4.94565,2.89938 -7.004,3.53745c-2.71768,0.84246 -5.53819,1.6403 -8.21957,2.5486c-3.19744,1.08313 -5.26432,2.05178 -8.68519,1.94453c-6.88365,-0.25877 -13.70477,-0.15066 -20.0479,-3.3046c-2.27202,-1.1297 -4.81903,-2.48259 -5.50048,-5.17753c-0.46974,-1.85765 0.22512,-4.38763 0.6496,-6.17013c0.80545,-3.38221 1.83945,-6.68877 2.84392,-10.0177z" fill="#fdea06"/><path d="M230.38843,176.85556c-1.54199,0.19779 -1.73978,-1.3442 -1.73978,-1.3442l-0.15695,-1.24113c-2.26983,-12.45464 0.47602,-25.32538 0.9463,-37.83511c0,0 0.0584,-1.55353 1.61193,-1.49512c1.55353,0.0584 1.49512,1.61194 1.49512,1.61194c-0.46086,12.25927 -3.23962,24.96017 -0.99495,37.15831l0.18254,1.40554c0,0 0.19779,1.54199 -1.3442,1.73978z" fill="#d7c504"/><path d="M248.36559,176.45509c-1.55353,-0.0584 -1.49512,-1.61194 -1.49512,-1.61194l0.03296,-0.87672c0.25976,-6.90972 -0.09005,-13.76759 -0.9577,-20.62102c-0.52901,-4.17862 -2.03637,-8.26081 -2.39804,-12.47873c-0.16099,-1.87747 0.1323,-3.76639 0.20309,-5.64942c0,0 0.00306,-0.08153 0.02646,-0.20653c0.99842,0.15432 2.01407,0.27484 3.07619,0.4327c-0.07418,1.73378 -0.35615,3.47219 -0.20449,5.20034c0.36411,4.14917 1.84388,8.17064 2.37787,12.28396c0.91187,7.02417 1.24995,14.07244 0.98368,21.15551l-0.03296,0.87673c0,0 -0.0584,1.55352 -1.61193,1.49512z" fill="#d7c504"/><path d="M219.94784,175.47125c-0.21377,0.22537 -0.536,0.40158 -1.02114,0.43711c-1.55047,0.11352 -1.66399,-1.43696 -1.66399,-1.43696l-0.09674,-1.79058c0.23525,-0.84712 0.04235,-1.96439 0.70573,-2.54133c0.71694,-0.62351 1.86949,-0.34084 2.80424,-0.51125c3.10081,0.69303 5.73166,2.83243 8.84741,3.43916c3.3493,0.6522 7.89714,0.85485 11.2866,0.42225c4.09212,-0.52228 8.34806,-2.38205 12.35503,-3.41249c2.0033,-0.51517 3.80314,-1.84658 5.86327,-2.03216c0.05768,-0.00521 0.11535,-0.00918 0.17298,-0.01203l-0.00251,-0.01959l1.92751,-0.24724c0.09281,-0.01357 0.18814,-0.01891 0.28525,-0.01527c0.85799,0.03225 1.52738,0.75393 1.49512,1.61193c-0.01336,0.35539 -0.145,0.67843 -0.35563,0.93263l-1.01103,1.2475l-0.01506,-0.0122l-0.02265,0.05699c-2.26273,2.40083 -4.62266,3.96855 -7.30927,5.83154c-2.60605,1.80233 -4.82642,3.84513 -7.81625,5.08503c-1.81432,0.75241 -3.75491,0.63143 -5.6612,0.56082c-7.24802,-0.26845 -14.52052,-3.91081 -20.76768,-7.59387z" fill="#fbbb02"/></g></g></g></svg>