<svg version="1.1" xmlns="http://www.w3.org/2000/svg" xmlns:xlink="http://www.w3.org/1999/xlink" width="508.29865" height="399.42781" viewBox="0,0,508.29865,399.42781"><defs><radialGradient cx="240.00001" cy="179.41336" r="245" gradientUnits="userSpaceOnUse" id="color-1"><stop offset="0" stop-color="#7ed000"/><stop offset="1" stop-color="#549a14"/></radialGradient><radialGradient cx="253.8336" cy="182.51401" r="111.28417" gradientUnits="userSpaceOnUse" id="color-2"><stop offset="0" stop-color="#01aecd"/><stop offset="1" stop-color="#145699"/></radialGradient><radialGradient cx="66.63546" cy="289.97029" r="31.01386" gradientUnits="userSpaceOnUse" id="color-3"><stop offset="0" stop-color="#3f963c"/><stop offset="1" stop-color="#337028"/></radialGradient><linearGradient x1="7.56127" y1="2.94614" x2="25.89461" y2="2.94614" gradientUnits="userSpaceOnUse" id="color-4"><stop offset="0" stop-color="#bec07f"/><stop offset="1" stop-color="#a8ab72"/></linearGradient><linearGradient x1="-1.91968" y1="13.31119" x2="5.64332" y2="4.92312" gradientUnits="userSpaceOnUse" id="color-5"><stop offset="0" stop-color="#bec07f"/><stop offset="1" stop-color="#a8ab72"/></linearGradient><linearGradient x1="13.64589" y1="23.20997" x2="19.24487" y2="17.00019" gradientUnits="userSpaceOnUse" id="color-6"><stop offset="0" stop-color="#bec07f"/><stop offset="1" stop-color="#a8ab72"/></linearGradient><linearGradient x1="26.99685" y1="20.40013" x2="31.48347" y2="28.25767" gradientUnits="userSpaceOnUse" id="color-7"><stop offset="0" stop-color="#bec07f"/><stop offset="1" stop-color="#a8ab72"/></linearGradient><linearGradient x1="34.3503" y1="16.21948" x2="26.01129" y2="6.97076" gradientUnits="userSpaceOnUse" id="color-8"><stop offset="0" stop-color="#bec07f"/><stop offset="1" stop-color="#a8ab72"/></linearGradient><linearGradient x1="41.27543" y1="3.90738" x2="30.18678" y2="-8.39095" gradientUnits="userSpaceOnUse" id="color-9"><stop offset="0" stop-color="#77754d"/><stop offset="1" stop-color="#5f5f43"/></linearGradient><radialGradient cx="91.56128" cy="1.27947" r="25" gradientUnits="userSpaceOnUse" id="color-10"><stop offset="0" stop-color="#3f963c"/><stop offset="1" stop-color="#337028"/></radialGradient><radialGradient cx="23.13547" cy="302.47029" r="31.01386" gradientUnits="userSpaceOnUse" id="color-11"><stop offset="0" stop-color="#3f963c"/><stop offset="1" stop-color="#337028"/></radialGradient><radialGradient cx="46.13547" cy="318.97029" r="31.01386" gradientUnits="userSpaceOnUse" id="color-12"><stop offset="0" stop-color="#3f963c"/><stop offset="1" stop-color="#337028"/></radialGradient><radialGradient cx="423.74585" cy="292.97029" r="31.01387" gradientUnits="userSpaceOnUse" id="color-13"><stop offset="0" stop-color="#3f963c"/><stop offset="1" stop-color="#337028"/></radialGradient><radialGradient cx="460.24585" cy="303.97029" r="31.01387" gradientUnits="userSpaceOnUse" id="color-14"><stop offset="0" stop-color="#3f963c"/><stop offset="1" stop-color="#337028"/></radialGradient><radialGradient cx="437.74585" cy="323.97029" r="31.01387" gradientUnits="userSpaceOnUse" id="color-15"><stop offset="0" stop-color="#3f963c"/><stop offset="1" stop-color="#337028"/></radialGradient><linearGradient x1="3.83778" y1="80.14819" x2="1.12479" y2="62.0167" gradientUnits="userSpaceOnUse" id="color-16"><stop offset="0" stop-color="#bec07f"/><stop offset="1" stop-color="#a8ab72"/></linearGradient><linearGradient x1="15.49171" y1="87.99093" x2="6.07682" y2="81.75247" gradientUnits="userSpaceOnUse" id="color-17"><stop offset="0" stop-color="#bec07f"/><stop offset="1" stop-color="#a8ab72"/></linearGradient><linearGradient x1="22.9781" y1="71.1319" x2="16.00814" y2="66.51349" gradientUnits="userSpaceOnUse" id="color-18"><stop offset="0" stop-color="#bec07f"/><stop offset="1" stop-color="#a8ab72"/></linearGradient><linearGradient x1="18.22349" y1="58.34374" x2="25.3306" y2="52.74374" gradientUnits="userSpaceOnUse" id="color-19"><stop offset="0" stop-color="#bec07f"/><stop offset="1" stop-color="#a8ab72"/></linearGradient><linearGradient x1="13.00071" y1="51.68991" x2="5.08783" y2="61.30575" gradientUnits="userSpaceOnUse" id="color-20"><stop offset="0" stop-color="#bec07f"/><stop offset="1" stop-color="#a8ab72"/></linearGradient><linearGradient x1="-0.20063" y1="46.66297" x2="-10.72264" y2="59.44946" gradientUnits="userSpaceOnUse" id="color-21"><stop offset="0" stop-color="#77754d"/><stop offset="1" stop-color="#5f5f43"/></linearGradient><linearGradient x1="59.65328" y1="54.68828" x2="56.20277" y2="72.69397" gradientUnits="userSpaceOnUse" id="color-22"><stop offset="0" stop-color="#bec07f"/><stop offset="1" stop-color="#a8ab72"/></linearGradient><linearGradient x1="51.25789" y1="43.42597" x2="58.07261" y2="52.43252" gradientUnits="userSpaceOnUse" id="color-23"><stop offset="0" stop-color="#bec07f"/><stop offset="1" stop-color="#a8ab72"/></linearGradient><linearGradient x1="38.60642" y1="56.85031" x2="43.65144" y2="63.51798" gradientUnits="userSpaceOnUse" id="color-24"><stop offset="0" stop-color="#bec07f"/><stop offset="1" stop-color="#a8ab72"/></linearGradient><linearGradient x1="38.85326" y1="70.49151" x2="30.29172" y2="73.41908" gradientUnits="userSpaceOnUse" id="color-25"><stop offset="0" stop-color="#bec07f"/><stop offset="1" stop-color="#a8ab72"/></linearGradient><linearGradient x1="41.57521" y1="78.50038" x2="52.22813" y2="72.0511" gradientUnits="userSpaceOnUse" id="color-26"><stop offset="0" stop-color="#bec07f"/><stop offset="1" stop-color="#a8ab72"/></linearGradient><linearGradient x1="52.3639" y1="87.61902" x2="66.52943" y2="79.0432" gradientUnits="userSpaceOnUse" id="color-27"><stop offset="0" stop-color="#77754d"/><stop offset="1" stop-color="#5f5f43"/></linearGradient><linearGradient x1="454.92571" y1="-5.55386" x2="436.59237" y2="-5.55386" gradientUnits="userSpaceOnUse" id="color-28"><stop offset="0" stop-color="#bec07f"/><stop offset="1" stop-color="#a8ab72"/></linearGradient><linearGradient x1="464.40666" y1="4.81119" x2="456.84365" y2="-3.57688" gradientUnits="userSpaceOnUse" id="color-29"><stop offset="0" stop-color="#bec07f"/><stop offset="1" stop-color="#a8ab72"/></linearGradient><linearGradient x1="448.84109" y1="14.70997" x2="443.24212" y2="8.50019" gradientUnits="userSpaceOnUse" id="color-30"><stop offset="0" stop-color="#bec07f"/><stop offset="1" stop-color="#a8ab72"/></linearGradient><linearGradient x1="435.49014" y1="11.90013" x2="431.00351" y2="19.75766" gradientUnits="userSpaceOnUse" id="color-31"><stop offset="0" stop-color="#bec07f"/><stop offset="1" stop-color="#a8ab72"/></linearGradient><linearGradient x1="428.13669" y1="7.71948" x2="436.4757" y2="-1.52924" gradientUnits="userSpaceOnUse" id="color-32"><stop offset="0" stop-color="#bec07f"/><stop offset="1" stop-color="#a8ab72"/></linearGradient><linearGradient x1="421.21155" y1="-4.59262" x2="432.3002" y2="-16.89095" gradientUnits="userSpaceOnUse" id="color-33"><stop offset="0" stop-color="#77754d"/><stop offset="1" stop-color="#5f5f43"/></linearGradient><linearGradient x1="458.6492" y1="71.64819" x2="461.36219" y2="53.5167" gradientUnits="userSpaceOnUse" id="color-34"><stop offset="0" stop-color="#bec07f"/><stop offset="1" stop-color="#a8ab72"/></linearGradient><linearGradient x1="446.99527" y1="79.49093" x2="456.41016" y2="73.25247" gradientUnits="userSpaceOnUse" id="color-35"><stop offset="0" stop-color="#bec07f"/><stop offset="1" stop-color="#a8ab72"/></linearGradient><linearGradient x1="439.50889" y1="62.6319" x2="446.47884" y2="58.01349" gradientUnits="userSpaceOnUse" id="color-36"><stop offset="0" stop-color="#bec07f"/><stop offset="1" stop-color="#a8ab72"/></linearGradient><linearGradient x1="444.26348" y1="49.84374" x2="437.15639" y2="44.24374" gradientUnits="userSpaceOnUse" id="color-37"><stop offset="0" stop-color="#bec07f"/><stop offset="1" stop-color="#a8ab72"/></linearGradient><linearGradient x1="449.48628" y1="43.18991" x2="457.39915" y2="52.80575" gradientUnits="userSpaceOnUse" id="color-38"><stop offset="0" stop-color="#bec07f"/><stop offset="1" stop-color="#a8ab72"/></linearGradient><linearGradient x1="462.68761" y1="38.16297" x2="473.20962" y2="50.94946" gradientUnits="userSpaceOnUse" id="color-39"><stop offset="0" stop-color="#77754d"/><stop offset="1" stop-color="#5f5f43"/></linearGradient><linearGradient x1="402.83371" y1="46.18828" x2="406.28422" y2="64.19398" gradientUnits="userSpaceOnUse" id="color-40"><stop offset="0" stop-color="#bec07f"/><stop offset="1" stop-color="#a8ab72"/></linearGradient><linearGradient x1="411.2291" y1="34.92596" x2="404.41438" y2="43.93252" gradientUnits="userSpaceOnUse" id="color-41"><stop offset="0" stop-color="#bec07f"/><stop offset="1" stop-color="#a8ab72"/></linearGradient><linearGradient x1="423.88057" y1="48.35031" x2="418.83555" y2="55.01798" gradientUnits="userSpaceOnUse" id="color-42"><stop offset="0" stop-color="#bec07f"/><stop offset="1" stop-color="#a8ab72"/></linearGradient><linearGradient x1="423.63373" y1="61.99151" x2="432.19527" y2="64.91908" gradientUnits="userSpaceOnUse" id="color-43"><stop offset="0" stop-color="#bec07f"/><stop offset="1" stop-color="#a8ab72"/></linearGradient><linearGradient x1="420.91178" y1="70.00038" x2="410.25886" y2="63.5511" gradientUnits="userSpaceOnUse" id="color-44"><stop offset="0" stop-color="#bec07f"/><stop offset="1" stop-color="#a8ab72"/></linearGradient><linearGradient x1="410.12309" y1="79.11902" x2="395.95756" y2="70.5432" gradientUnits="userSpaceOnUse" id="color-45"><stop offset="0" stop-color="#77754d"/><stop offset="1" stop-color="#5f5f43"/></linearGradient><linearGradient x1="74.39898" y1="244.03378" x2="83.56956" y2="228.1589" gradientUnits="userSpaceOnUse" id="color-46"><stop offset="0" stop-color="#bec07f"/><stop offset="1" stop-color="#a8ab72"/></linearGradient><linearGradient x1="78.6316" y1="257.42809" x2="75.15147" y2="246.68345" gradientUnits="userSpaceOnUse" id="color-47"><stop offset="0" stop-color="#bec07f"/><stop offset="1" stop-color="#a8ab72"/></linearGradient><linearGradient x1="94.98908" y1="248.90133" x2="92.4127" y2="240.94694" gradientUnits="userSpaceOnUse" id="color-48"><stop offset="0" stop-color="#bec07f"/><stop offset="1" stop-color="#a8ab72"/></linearGradient><linearGradient x1="99.23435" y1="235.93519" x2="108.28249" y2="235.98065" gradientUnits="userSpaceOnUse" id="color-49"><stop offset="0" stop-color="#bec07f"/><stop offset="1" stop-color="#a8ab72"/></linearGradient><linearGradient x1="99.29261" y1="227.4766" x2="87.11284" y2="230.07104" gradientUnits="userSpaceOnUse" id="color-50"><stop offset="0" stop-color="#bec07f"/><stop offset="1" stop-color="#a8ab72"/></linearGradient><linearGradient x1="92.09558" y1="215.32143" x2="75.89975" y2="218.77134" gradientUnits="userSpaceOnUse" id="color-51"><stop offset="0" stop-color="#77754d"/><stop offset="1" stop-color="#5f5f43"/></linearGradient><linearGradient x1="432.87287" y1="246.42364" x2="451.13955" y2="244.86169" gradientUnits="userSpaceOnUse" id="color-52"><stop offset="0" stop-color="#bec07f"/><stop offset="1" stop-color="#a8ab72"/></linearGradient><linearGradient x1="424.30946" y1="257.55874" x2="431.13032" y2="248.55683" gradientUnits="userSpaceOnUse" id="color-53"><stop offset="0" stop-color="#bec07f"/><stop offset="1" stop-color="#a8ab72"/></linearGradient><linearGradient x1="440.66178" y1="266.09539" x2="445.71135" y2="259.43117" gradientUnits="userSpaceOnUse" id="color-54"><stop offset="0" stop-color="#bec07f"/><stop offset="1" stop-color="#a8ab72"/></linearGradient><linearGradient x1="453.7248" y1="262.15831" x2="458.86455" y2="269.60501" gradientUnits="userSpaceOnUse" id="color-55"><stop offset="0" stop-color="#bec07f"/><stop offset="1" stop-color="#a8ab72"/></linearGradient><linearGradient x1="460.69533" y1="257.36636" x2="451.59868" y2="248.86173" gradientUnits="userSpaceOnUse" id="color-56"><stop offset="0" stop-color="#bec07f"/><stop offset="1" stop-color="#a8ab72"/></linearGradient><linearGradient x1="466.54634" y1="244.50903" x2="454.45022" y2="233.20014" gradientUnits="userSpaceOnUse" id="color-57"><stop offset="0" stop-color="#77754d"/><stop offset="1" stop-color="#5f5f43"/></linearGradient><linearGradient x1="156.55398" y1="178.46336" x2="339.19264" y2="178.46336" gradientUnits="userSpaceOnUse" id="color-58"><stop offset="0" stop-color="#dce094"/><stop offset="1" stop-color="#aca973"/></linearGradient></defs><g transform="translate(14.14932,19.71391)"><g data-paper-data="{&quot;isPaintingLayer&quot;:true}" fill-rule="nonzero" stroke-linejoin="miter" stroke-miterlimit="10" stroke-dasharray="" stroke-dashoffset="0" style="mix-blend-mode: normal"><path d="M-5,365.91336v-373h490v373z" fill="url(#color-1)" stroke="none" stroke-width="0" stroke-linecap="butt"/><path d="M359.6731,185.51401c0,19.81193 5.38261,54.30378 -22.87308,64.76669c-17.42893,6.45383 -62.46262,-6.76669 -85.24254,-6.76669c-33.94249,0 -83.57875,10.60899 -103.40012,-2.51723c-15.04778,-9.96503 -4.7155,-41.65914 -4.7155,-55.48277c0,-23.61285 13.78434,-59.93 51.52962,-68.97924c13.45888,-3.2267 40.89122,10.97924 56.586,10.97924c36.45147,0 84.62247,-12.32264 104.20708,2.50417c12.49665,9.46077 3.90854,43.01816 3.90854,55.49583z" fill="url(#color-2)" stroke="#016e80" stroke-width="2.5" stroke-linecap="butt"/><g stroke-linecap="round"><path d="M49.81348,277.44936l36.48852,27.41439l-5.19805,10.54258l-19.98767,4.41834l3.5394,7.03273l-13.83213,8.08592l2.1566,2.89614l-20.24817,7.87445l2.37575,-12.64779l4.63513,1.68523l0.30362,-43.57854l7.02031,0.07147l2.45667,-8.63408z" data-paper-data="{&quot;index&quot;:null}" fill="#224921" stroke="#3b6305" stroke-width="0"/><path d="M35.62161,293.48519l6.40953,-4.96222l-2.27435,-3.72166l6.40953,-2.48111l-3.10139,-2.06759l5.78925,-0.62028l-1.86083,-1.86083l7.23657,-0.20676l-4.96222,-1.44732l-2.48111,-5.37573l10.13119,2.27435l-5.16898,-7.23657l10.54471,5.78926l-0.20676,-3.72166l10.54471,4.34194l1.65407,-3.30815l5.99602,5.16898l-0.82704,1.44731l3.30815,-5.16897l0.62027,3.92842l1.0338,2.89463l5.16898,-1.0338l-1.65408,4.5487l2.27435,-0.62027l-1.44731,5.99602l2.68786,-0.62028v5.16897l5.16898,-0.82703l-2.89462,4.54869l-0.20676,4.13519l4.13518,2.48111l-10.33796,0.82703l1.0338,3.5149l-4.13519,0.41352l0.41352,3.72167l-6.61629,-0.62028l-4.5487,3.30815l-3.72167,-1.44731l-5.37574,3.5149l-1.24056,-1.86083l-3.72166,1.86083l-3.5149,-3.5149l-7.44333,3.10138v-8.47713l-5.99601,-1.24055l2.27435,-4.34194l-4.13518,-1.65407l2.27436,-4.5487l-5.99601,-0.41352" data-paper-data="{&quot;index&quot;:null}" fill="url(#color-3)" stroke="#1a651a" stroke-width="1"/></g><path d="M10.56127,-6.22053l8,-1l7.33334,9l-2.33334,8.33334l-8.33334,3l-7.66666,-8z" fill="url(#color-4)" stroke="#a5a776" stroke-width="1" stroke-linecap="round"/><path d="M-4.87615,8.1571l2.84269,-4.07278l7.14298,0.35753l2.85019,4.5053l-2.06514,5.05034l-6.82295,0.20751z" fill="url(#color-5)" stroke="#a5a776" stroke-width="1" stroke-linecap="round"/><path d="M11.45721,19.39433l2.10447,-3.01512l5.28803,0.26468l2.11002,3.33533l-1.52885,3.73882l-5.05111,0.15362z" fill="url(#color-6)" stroke="#a5a776" stroke-width="1" stroke-linecap="round"/><path d="M31.31072,18.79777l2.34831,3.11368l-1.71997,5.97864l-3.82531,1.62553l-3.21092,-2.6264l1.24789,-5.80644z" fill="url(#color-7)" stroke="#a5a776" stroke-width="1" stroke-linecap="round"/><path d="M33.25727,17.205l-7.52303,-0.2288l-2.27703,-5.56853l3.14263,-4.96758l7.87589,-0.39421l3.13437,4.49066z" data-paper-data="{&quot;index&quot;:null}" fill="url(#color-8)" stroke="#a5a776" stroke-width="1" stroke-linecap="round"/><path d="M39.82201,5.21786l-10.00362,-0.30425l-3.02784,-7.40466l4.17885,-6.60555l10.47283,-0.52419l4.16786,5.97138z" data-paper-data="{&quot;index&quot;:null}" fill="url(#color-9)" stroke="#4b4e31" stroke-width="1" stroke-linecap="round"/><path d="M41.64461,32.94615c0,1.84095 -1.08198,3.33333 -2.41667,3.33333c-1.33469,0 -2.41666,-1.49238 -2.41666,-3.33333c0,-1.84095 1.08197,-3.33334 2.41666,-3.33334c1.33469,0 2.41667,1.49238 2.41667,3.33334z" fill="#ffffff" stroke="none" stroke-width="0" stroke-linecap="butt"/><path d="M41.64461,39.61281c0,1.84095 -1.08198,3.33334 -2.41667,3.33334c-1.33469,0 -2.41666,-1.49238 -2.41666,-3.33334c0,-1.84095 1.08197,-3.33334 2.41666,-3.33334c1.33469,0 2.41667,1.49238 2.41667,3.33334z" fill="#ffffff" stroke="none" stroke-width="0" stroke-linecap="butt"/><path d="M42.67545,34.36328c2.02437,-0.04999 3.68896,0.86132 3.71795,2.03546c0.02899,1.17414 -1.58859,2.16648 -3.61296,2.21647c-2.02437,0.04999 -3.68895,-0.86132 -3.71794,-2.03546c-0.02899,-1.17414 1.58859,-2.16648 3.61296,-2.21647z" fill="#ffffff" stroke="none" stroke-width="0" stroke-linecap="butt"/><path d="M38.8934,36.74642c-0.02899,1.17414 -1.69358,2.08544 -3.71795,2.03545c-2.02437,-0.04999 -3.64195,-1.04233 -3.61296,-2.21646c0.02899,-1.17414 1.69358,-2.08545 3.71794,-2.03546c2.02437,0.04999 3.64195,1.04233 3.61296,2.21647z" data-paper-data="{&quot;index&quot;:null}" fill="#ffffff" stroke="none" stroke-width="0" stroke-linecap="butt"/><path d="M41.64461,36.02947c0,1.42673 -1.08198,2.58334 -2.41667,2.58334c-1.33469,0 -2.41666,-1.1566 -2.41666,-2.58334c0,-1.42673 1.08197,-2.58333 2.41666,-2.58333c1.33469,0 2.41667,1.15659 2.41667,2.58333z" fill="#d8bd2d" stroke="none" stroke-width="0" stroke-linecap="butt"/><path d="M78.00122,-8.81354l29.41308,22.09849l-4.1901,8.49829l-16.11189,3.56159l2.85308,5.66901l-11.14995,6.51799l1.73842,2.33455l-16.32187,6.34753l1.91506,-10.19528l3.73633,1.35845l0.24474,-35.12828l5.65901,0.05761l1.9803,-6.95985z" fill="#224921" stroke="#3b6305" stroke-width="0" stroke-linecap="round"/><path d="M66.56128,4.11282l5.16666,-4l-1.83333,-3l5.16666,-2l-2.5,-1.66667l4.66666,-0.5l-1.5,-1.5l5.83334,-0.16667l-4,-1.16667l-2,-4.33333l8.16666,1.83333l-4.16666,-5.83333l8.5,4.66667l-0.16666,-3l8.5,3.5l1.33333,-2.66667l4.83334,4.16667l-0.66666,1.16667l2.66666,-4.16667l0.5,3.16667l0.83334,2.33333l4.16666,-0.83333l-1.33334,3.66667l1.83334,-0.5l-1.16666,4.83333l2.16666,-0.5v4.16666l4.16666,-0.66666l-2.33333,3.66666l-0.16667,3.33334l3.33334,2l-8.33334,0.66666l0.83334,2.83334l-3.33334,0.33334l0.33334,3l-5.33334,-0.5l-3.66666,2.66666l-3,-1.16666l-4.33334,2.83333l-1,-1.5l-3,1.5l-2.83333,-2.83333l-6,2.5v-6.83334l-4.83334,-1l1.83334,-3.5l-3.33334,-1.33334l1.83334,-3.66667l-4.83334,-0.33334" fill="url(#color-10)" stroke="#1a651a" stroke-width="1" stroke-linecap="round"/><g stroke-linecap="round"><path d="M6.31347,289.94936l36.48853,27.41439l-5.19805,10.54258l-19.98767,4.41834l3.5394,7.03273l-13.83212,8.08592l2.1566,2.89614l-20.24817,7.87445l2.37575,-12.64779l4.63512,1.68523l0.30361,-43.57854l7.02032,0.07147l2.45667,-8.63408z" data-paper-data="{&quot;index&quot;:null}" fill="#224921" stroke="#3b6305" stroke-width="0"/><path d="M-7.8784,305.98519l6.40953,-4.96222l-2.27434,-3.72166l6.40953,-2.48111l-3.10139,-2.06759l5.78925,-0.62028l-1.86083,-1.86083l7.23657,-0.20676l-4.96222,-1.44732l-2.48111,-5.37573l10.1312,2.27435l-5.16897,-7.23657l10.54472,5.78926l-0.20676,-3.72166l10.54472,4.34194l1.65407,-3.30815l5.99602,5.16898l-0.82703,1.44731l3.30814,-5.16897l0.62027,3.92842l1.0338,2.89463l5.16898,-1.0338l-1.65407,4.5487l2.27435,-0.62027l-1.44731,5.99602l2.68787,-0.62028v5.16897l5.16897,-0.82703l-2.89462,4.54869l-0.20677,4.13519l4.13519,2.48111l-10.33796,0.82703l1.0338,3.5149l-4.13518,0.41352l0.41352,3.72167l-6.6163,-0.62028l-4.5487,3.30815l-3.72166,-1.44731l-5.37574,3.5149l-1.24056,-1.86083l-3.72166,1.86083l-3.5149,-3.5149l-7.44333,3.10138v-8.47713l-5.99602,-1.24055l2.27435,-4.34194l-4.13518,-1.65407l2.27436,-4.5487l-5.99601,-0.41352" data-paper-data="{&quot;index&quot;:null}" fill="url(#color-11)" stroke="#1a651a" stroke-width="1"/></g><g stroke-linecap="round"><path d="M29.31348,306.44936l36.48852,27.41439l-5.19805,10.54258l-19.98768,4.41834l3.5394,7.03273l-13.83212,8.08592l2.1566,2.89614l-20.24817,7.87445l2.37574,-12.64779l4.63513,1.68523l0.30362,-43.57854l7.02032,0.07147l2.45666,-8.63408z" data-paper-data="{&quot;index&quot;:null}" fill="#224921" stroke="#3b6305" stroke-width="0"/><path d="M15.1216,322.48519l6.40953,-4.96222l-2.27435,-3.72166l6.40953,-2.48111l-3.10139,-2.06759l5.78925,-0.62028l-1.86083,-1.86083l7.23657,-0.20676l-4.96222,-1.44732l-2.48111,-5.37573l10.1312,2.27435l-5.16898,-7.23657l10.54472,5.78926l-0.20676,-3.72166l10.54472,4.34194l1.65407,-3.30815l5.99602,5.16898l-0.82703,1.44731l3.30815,-5.16897l0.62027,3.92842l1.0338,2.89463l5.16898,-1.0338l-1.65408,4.5487l2.27435,-0.62027l-1.44731,5.99602l2.68786,-0.62028v5.16897l5.16898,-0.82703l-2.89462,4.54869l-0.20676,4.13519l4.13518,2.48111l-10.33796,0.82703l1.0338,3.5149l-4.13519,0.41352l0.41352,3.72167l-6.6163,-0.62028l-4.5487,3.30815l-3.72166,-1.44731l-5.37574,3.5149l-1.24056,-1.86083l-3.72166,1.86083l-3.5149,-3.5149l-7.44333,3.10138v-8.47713l-5.99601,-1.24055l2.27435,-4.34194l-4.13518,-1.65407l2.27436,-4.5487l-5.99601,-0.41352" data-paper-data="{&quot;index&quot;:null}" fill="url(#color-12)" stroke="#1a651a" stroke-width="1"/></g><g data-paper-data="{&quot;index&quot;:null}" stroke-linecap="round"><path d="M440.85787,285.61019l2.45667,8.63408l7.02031,-0.07147l0.30361,43.57854l4.63513,-1.68523l2.37574,12.64779l-20.24817,-7.87445l2.1566,-2.89614l-13.83213,-8.08591l3.5394,-7.03273l-19.98767,-4.41834l-5.19805,-10.54258l36.48852,-27.41439z" data-paper-data="{&quot;index&quot;:null}" fill="#224921" stroke="#3b6305" stroke-width="0"/><path d="M453.51916,296.07168l-5.99601,0.41352l2.27436,4.5487l-4.13519,1.65407l2.27435,4.34194l-5.99601,1.24055v8.47713l-7.44333,-3.10138l-3.5149,3.5149l-3.72166,-1.86083l-1.24056,1.86083l-5.37574,-3.5149l-3.72167,1.44731l-4.5487,-3.30815l-6.61629,0.62028l0.41352,-3.72167l-4.13519,-0.41352l1.0338,-3.5149l-10.33796,-0.82703l4.13518,-2.48111l-0.20676,-4.13519l-2.89462,-4.54869l5.16897,0.82703v-5.16897l2.68786,0.62028l-1.44731,-5.99601l2.27435,0.62027l-1.65407,-4.5487l5.16897,1.0338l1.0338,-2.89463l0.62027,-3.92842l3.30815,5.16897l-0.82704,-1.44731l5.99602,-5.16898l1.65407,3.30815l10.54471,-4.34194l-0.20676,3.72166l10.54471,-5.78926l-5.16897,7.23657l10.13119,-2.27435l-2.48111,5.37573l-4.96222,1.44732l7.23658,0.20676l-1.86084,1.86083l5.78926,0.62028l-3.10139,2.06759l6.40953,2.48111l-2.27434,3.72166l6.40953,4.96222" data-paper-data="{&quot;index&quot;:null}" fill="url(#color-13)" stroke="#1a651a" stroke-width="1"/></g><g data-paper-data="{&quot;index&quot;:null}" stroke-linecap="round"><path d="M477.35787,296.61019l2.45667,8.63408l7.02031,-0.07147l0.30361,43.57854l4.63513,-1.68523l2.37574,12.64779l-20.24817,-7.87445l2.1566,-2.89614l-13.83213,-8.08591l3.5394,-7.03273l-19.98767,-4.41834l-5.19805,-10.54258l36.48852,-27.41439z" data-paper-data="{&quot;index&quot;:null}" fill="#224921" stroke="#3b6305" stroke-width="0"/><path d="M490.01916,307.07168l-5.99601,0.41352l2.27436,4.5487l-4.13519,1.65407l2.27435,4.34194l-5.99601,1.24055v8.47713l-7.44333,-3.10138l-3.5149,3.5149l-3.72166,-1.86083l-1.24056,1.86083l-5.37574,-3.5149l-3.72167,1.44731l-4.5487,-3.30815l-6.61629,0.62028l0.41352,-3.72167l-4.13519,-0.41352l1.0338,-3.5149l-10.33796,-0.82703l4.13518,-2.48111l-0.20676,-4.13519l-2.89462,-4.54869l5.16897,0.82703v-5.16897l2.68786,0.62028l-1.44731,-5.99601l2.27435,0.62027l-1.65407,-4.5487l5.16897,1.0338l1.0338,-2.89463l0.62027,-3.92842l3.30815,5.16897l-0.82704,-1.44731l5.99602,-5.16898l1.65407,3.30815l10.54471,-4.34194l-0.20676,3.72166l10.54471,-5.78926l-5.16897,7.23657l10.13119,-2.27435l-2.48111,5.37573l-4.96222,1.44732l7.23658,0.20676l-1.86084,1.86083l5.78926,0.62028l-3.10139,2.06759l6.40953,2.48111l-2.27434,3.72166l6.40953,4.96222" data-paper-data="{&quot;index&quot;:null}" fill="url(#color-14)" stroke="#1a651a" stroke-width="1"/></g><g data-paper-data="{&quot;index&quot;:null}" stroke-linecap="round"><path d="M454.85787,316.61019l2.45667,8.63408l7.02031,-0.07147l0.30361,43.57854l4.63513,-1.68523l2.37574,12.64779l-20.24817,-7.87445l2.1566,-2.89614l-13.83213,-8.08591l3.5394,-7.03273l-19.98767,-4.41834l-5.19805,-10.54258l36.48852,-27.41439z" data-paper-data="{&quot;index&quot;:null}" fill="#224921" stroke="#3b6305" stroke-width="0"/><path d="M467.51916,327.07168l-5.99601,0.41352l2.27436,4.5487l-4.13519,1.65407l2.27435,4.34194l-5.99601,1.24055v8.47713l-7.44333,-3.10138l-3.5149,3.5149l-3.72166,-1.86083l-1.24056,1.86083l-5.37574,-3.5149l-3.72167,1.44731l-4.5487,-3.30815l-6.61629,0.62028l0.41352,-3.72167l-4.13519,-0.41352l1.0338,-3.5149l-10.33796,-0.82703l4.13518,-2.48111l-0.20676,-4.13519l-2.89462,-4.54869l5.16897,0.82703v-5.16897l2.68786,0.62028l-1.44731,-5.99601l2.27435,0.62027l-1.65407,-4.5487l5.16897,1.0338l1.0338,-2.89463l0.62027,-3.92842l3.30815,5.16897l-0.82704,-1.44731l5.99602,-5.16898l1.65407,3.30815l10.54471,-4.34194l-0.20676,3.72166l10.54471,-5.78926l-5.16897,7.23657l10.13119,-2.27435l-2.48111,5.37573l-4.96222,1.44732l7.23658,0.20676l-1.86084,1.86083l5.78926,0.62028l-3.10139,2.06759l6.40953,2.48111l-2.27434,3.72166l6.40953,4.96222" data-paper-data="{&quot;index&quot;:null}" fill="url(#color-15)" stroke="#1a651a" stroke-width="1"/></g><path d="M-5.67191,78.53771l-2.17284,-7.76394l7.81572,-8.58443l8.58687,1.07447l4.20015,7.79765l-6.7774,8.7661z" fill="url(#color-16)" stroke="#a5a776" stroke-width="1" stroke-linecap="round"/><path d="M10.83188,91.67754l-4.4486,-2.2087l-0.70344,-7.11724l4.03393,-3.48551l5.30034,1.29505l1.21489,6.71712z" fill="url(#color-17)" stroke="#a5a776" stroke-width="1" stroke-linecap="round"/><path d="M19.52837,73.86112l-3.29335,-1.63512l-0.52076,-5.26898l2.98636,-2.58035l3.92389,0.95874l0.8994,4.97276z" fill="url(#color-18)" stroke="#a5a776" stroke-width="1" stroke-linecap="round"/><path d="M16.00042,54.31447l2.73189,-2.78323l6.16734,0.81631l2.17371,3.54264l-2.12233,3.56423l-5.92718,-0.3749z" fill="url(#color-19)" stroke="#a5a776" stroke-width="1" stroke-linecap="round"/><path d="M14.13712,52.62505l0.88698,7.47406l-5.17026,3.076l-5.37794,-2.37292l-1.55535,-7.73084l3.97739,-3.76438z" data-paper-data="{&quot;index&quot;:null}" fill="url(#color-20)" stroke="#a5a776" stroke-width="1" stroke-linecap="round"/><path d="M1.3105,47.90648l1.17945,9.9385l-6.87506,4.09025l-7.15122,-3.15534l-2.0682,-10.27995l5.28887,-5.00563z" data-paper-data="{&quot;index&quot;:null}" fill="url(#color-21)" stroke="#4b4e31" stroke-width="1" stroke-linecap="round"/><path d="M68.0915,59.35992l-0.52355,8.04524l-10.21937,5.50839l-7.74525,-3.86005l-1.37797,-8.74904l9.29997,-6.02397z" fill="url(#color-22)" stroke="#a5a776" stroke-width="1" stroke-linecap="round"/><path d="M56.87629,41.49239l3.46497,3.55843l-1.6955,6.94804l-4.96122,1.95131l-4.5714,-2.97876l1.08035,-6.74007z" fill="url(#color-23)" stroke="#a5a776" stroke-width="1" stroke-linecap="round"/><path d="M42.76579,55.41889l2.56516,2.63433l-1.25521,5.14371l-3.67285,1.44457l-3.38426,-2.20521l0.79979,-4.98975z" fill="url(#color-24)" stroke="#a5a776" stroke-width="1" stroke-linecap="round"/><path d="M39.61506,75.02988l-3.50001,1.72032l-5.54808,-2.81447l-0.87652,-4.06289l3.18379,-2.65923l5.4678,2.31842z" fill="url(#color-25)" stroke="#a5a776" stroke-width="1" stroke-linecap="round"/><path d="M40.81301,77.24141l1.64062,-7.34553l5.89757,-1.18828l4.28733,4.02141l-1.09516,7.80934l-5.00032,2.23316z" data-paper-data="{&quot;index&quot;:null}" fill="url(#color-26)" stroke="#a5a776" stroke-width="1" stroke-linecap="round"/><path d="M51.35039,85.94492l2.1816,-9.76758l7.84218,-1.5801l5.70101,5.34739l-1.45627,10.38433l-6.6491,2.9695z" data-paper-data="{&quot;index&quot;:null}" fill="url(#color-27)" stroke="#4b4e31" stroke-width="1" stroke-linecap="round"/><g stroke="none" stroke-width="0" stroke-linecap="butt"><path d="M21.14461,97.44615c0,1.84095 -1.08198,3.33333 -2.41667,3.33333c-1.33469,0 -2.41666,-1.49238 -2.41666,-3.33333c0,-1.84095 1.08197,-3.33334 2.41666,-3.33334c1.33469,0 2.41667,1.49238 2.41667,3.33334z" fill="#ffffff"/><path d="M21.14461,104.11281c0,1.84095 -1.08198,3.33334 -2.41667,3.33334c-1.33469,0 -2.41666,-1.49238 -2.41666,-3.33334c0,-1.84095 1.08197,-3.33334 2.41666,-3.33334c1.33469,0 2.41667,1.49238 2.41667,3.33334z" fill="#ffffff"/><path d="M22.17545,98.86328c2.02437,-0.04999 3.68896,0.86132 3.71795,2.03546c0.02899,1.17414 -1.58859,2.16648 -3.61296,2.21647c-2.02437,0.04999 -3.68895,-0.86132 -3.71794,-2.03546c-0.02899,-1.17414 1.58859,-2.16648 3.61296,-2.21647z" fill="#ffffff"/><path d="M18.39339,101.24642c-0.02899,1.17414 -1.69358,2.08544 -3.71794,2.03545c-2.02437,-0.04999 -3.64195,-1.04233 -3.61296,-2.21646c0.02899,-1.17414 1.69357,-2.08545 3.71795,-2.03546c2.02437,0.04999 3.64195,1.04233 3.61296,2.21647z" data-paper-data="{&quot;index&quot;:null}" fill="#ffffff"/><path d="M21.14461,100.52948c0,1.42673 -1.08198,2.58334 -2.41667,2.58334c-1.33469,0 -2.41666,-1.1566 -2.41666,-2.58334c0,-1.42673 1.08197,-2.58333 2.41666,-2.58333c1.33469,0 2.41667,1.15659 2.41667,2.58333z" fill="#d8bd2d"/></g><g stroke="none" stroke-width="0" stroke-linecap="butt"><path d="M43.81288,107.02389c1.0337,1.52334 0.97636,3.36579 -0.12807,4.11522c-1.10442,0.74943 -2.8377,0.12205 -3.8714,-1.40129c-1.0337,-1.52334 -0.97637,-3.36579 0.12805,-4.11522c1.10442,-0.74943 2.83771,-0.12206 3.87141,1.40129z" fill="#ffffff"/><path d="M47.55622,112.54039c1.0337,1.52334 0.97637,3.36579 -0.12806,4.11522c-1.10442,0.74943 -2.8377,0.12205 -3.87141,-1.4013c-1.0337,-1.52334 -0.97637,-3.36579 0.12806,-4.11522c1.10442,-0.74943 2.83771,-0.12205 3.87141,1.4013z" fill="#ffffff"/><path d="M45.46159,107.61772c1.64704,-1.17806 3.53616,-1.35864 4.21943,-0.40335c0.68327,0.9553 -0.09804,2.68471 -1.74508,3.86276c-1.64704,1.17806 -3.53615,1.35863 -4.21942,0.40333c-0.68327,-0.9553 0.09804,-2.6847 1.74508,-3.86276z" fill="#ffffff"/><path d="M43.67017,111.71334c0.63529,0.98785 -0.23042,2.6766 -1.9336,3.77192c-1.70318,1.09532 -3.5989,1.18246 -4.23418,0.19462c-0.63529,-0.98785 0.2304,-2.6766 1.9336,-3.77193c1.70318,-1.09532 3.59889,-1.18246 4.23419,-0.19461z" data-paper-data="{&quot;index&quot;:null}" fill="#ffffff"/><path d="M45.54418,109.57527c0.80111,1.18058 0.55524,2.74519 -0.54919,3.49462c-1.10442,0.74943 -2.64916,0.3999 -3.45028,-0.78069c-0.80111,-1.18058 -0.55524,-2.74517 0.54919,-3.4946c1.10442,-0.74943 2.64916,-0.39992 3.45028,0.78067z" fill="#d8bd2d"/></g><g data-paper-data="{&quot;index&quot;:null}" stroke="none" stroke-width="0" stroke-linecap="butt"><path d="M32.55197,128.5049c-1.02858,1.5268 -2.75975,2.15998 -3.86668,1.41426c-1.10693,-0.74572 -1.17044,-2.58795 -0.14186,-4.11476c1.02858,-1.5268 2.75975,-2.16 3.86668,-1.41428c1.10693,0.74572 1.17045,2.58796 0.14186,4.11477z" fill="#ffffff"/><path d="M28.82714,134.03392c-1.02858,1.5268 -2.75976,2.16 -3.86669,1.41428c-1.10693,-0.74572 -1.17044,-2.58795 -0.14185,-4.11477c1.02858,-1.5268 2.75975,-2.16 3.86668,-1.41428c1.10693,0.74572 1.17045,2.58796 0.14186,4.11477z" fill="#ffffff"/><path d="M32.6151,130.25615c1.70685,1.08961 2.57821,2.77545 1.94624,3.76542c-0.63197,0.98997 -2.52796,0.9092 -4.23481,-0.18041c-1.70685,-1.08961 -2.57821,-2.77544 -1.94623,-3.76541c0.63197,-0.98997 2.52796,-0.9092 4.23481,0.18041z" fill="#ffffff"/><path d="M28.14694,130.1195c-0.68006,0.95758 -2.56977,0.78333 -4.22075,-0.38919c-1.65099,-1.17252 -2.43809,-2.8993 -1.75803,-3.85688c0.68006,-0.95758 2.56976,-0.78334 4.22076,0.38918c1.65099,1.17252 2.43809,2.8993 1.75803,3.85689z" data-paper-data="{&quot;index&quot;:null}" fill="#ffffff"/><path d="M30.82924,131.06206c-0.79715,1.18327 -2.34072,1.53797 -3.44765,0.79225c-1.10693,-0.74572 -1.35805,-2.30947 -0.5609,-3.49274c0.79715,-1.18327 2.34071,-1.53798 3.44764,-0.79226c1.10693,0.74572 1.35806,2.30947 0.56091,3.49275z" fill="#d8bd2d"/></g><path d="M454.92571,-3.38719l-7.66666,8l-8.33334,-3l-2.33334,-8.33334l7.33334,-9l8,1z" data-paper-data="{&quot;index&quot;:null}" fill="url(#color-28)" stroke="#a5a776" stroke-width="1" stroke-linecap="round"/><path d="M463.41535,5.705l-6.82295,-0.20751l-2.06514,-5.05034l2.85019,-4.5053l7.14298,-0.35753l2.84269,4.07278z" data-paper-data="{&quot;index&quot;:null}" fill="url(#color-29)" stroke="#a5a776" stroke-width="1" stroke-linecap="round"/><path d="M448.10721,15.37166l-5.05111,-0.15362l-1.52885,-3.73882l2.11002,-3.33533l5.28803,-0.26468l2.10447,3.01512z" data-paper-data="{&quot;index&quot;:null}" fill="url(#color-30)" stroke="#a5a776" stroke-width="1" stroke-linecap="round"/><path d="M436.33625,12.58278l1.24789,5.80644l-3.21092,2.6264l-3.82531,-1.62553l-1.71997,-5.97864l2.34831,-3.11368z" data-paper-data="{&quot;index&quot;:null}" fill="url(#color-31)" stroke="#a5a776" stroke-width="1" stroke-linecap="round"/><path d="M424.87689,2.03653l3.13437,-4.49066l7.87589,0.39421l3.14263,4.96758l-2.27703,5.56853l-7.52303,0.2288z" data-paper-data="{&quot;index&quot;:null}" fill="url(#color-32)" stroke="#a5a776" stroke-width="1" stroke-linecap="round"/><path d="M416.8769,-12.14941l4.16786,-5.97138l10.47283,0.52419l4.17885,6.60555l-3.02784,7.40466l-10.00362,0.30425z" data-paper-data="{&quot;index&quot;:null}" fill="url(#color-33)" stroke="#4b4e31" stroke-width="1" stroke-linecap="round"/><path d="M423.25904,21.11281c1.33469,0 2.41666,1.49239 2.41666,3.33334c0,1.84095 -1.08197,3.33333 -2.41666,3.33333c-1.33469,0 -2.41667,-1.49238 -2.41667,-3.33333c0,-1.84096 1.08198,-3.33334 2.41667,-3.33334z" data-paper-data="{&quot;index&quot;:null}" fill="#ffffff" stroke="none" stroke-width="0" stroke-linecap="butt"/><path d="M423.25904,27.77947c1.33469,0 2.41666,1.49239 2.41666,3.33334c0,1.84096 -1.08197,3.33334 -2.41666,3.33334c-1.33469,0 -2.41667,-1.49239 -2.41667,-3.33334c0,-1.84096 1.08198,-3.33334 2.41667,-3.33334z" data-paper-data="{&quot;index&quot;:null}" fill="#ffffff" stroke="none" stroke-width="0" stroke-linecap="butt"/><path d="M419.81153,25.86328c2.02437,0.04999 3.64195,1.04233 3.61296,2.21647c-0.02899,1.17414 -1.69357,2.08545 -3.71794,2.03546c-2.02437,-0.04999 -3.64195,-1.04233 -3.61296,-2.21647c0.02899,-1.17414 1.69358,-2.08545 3.71795,-2.03546z" data-paper-data="{&quot;index&quot;:null}" fill="#ffffff" stroke="none" stroke-width="0" stroke-linecap="butt"/><path d="M423.5936,28.24642c-0.02899,-1.17414 1.58859,-2.16648 3.61296,-2.21647c2.02436,-0.04999 3.68895,0.86132 3.71794,2.03546c0.02899,1.17413 -1.58859,2.16647 -3.61296,2.21646c-2.02437,0.04999 -3.68896,-0.86131 -3.71795,-2.03545z" data-paper-data="{&quot;index&quot;:null}" fill="#ffffff" stroke="none" stroke-width="0" stroke-linecap="butt"/><path d="M423.25904,24.94614c1.33469,0 2.41666,1.1566 2.41666,2.58333c0,1.42674 -1.08197,2.58334 -2.41666,2.58334c-1.33469,0 -2.41667,-1.15661 -2.41667,-2.58334c0,-1.42674 1.08198,-2.58333 2.41667,-2.58333z" data-paper-data="{&quot;index&quot;:null}" fill="#d8bd2d" stroke="none" stroke-width="0" stroke-linecap="butt"/><path d="M456.50639,71.32756l-6.7774,-8.7661l4.20015,-7.79765l8.58687,-1.07447l7.81572,8.58443l-2.17284,7.76394z" data-paper-data="{&quot;index&quot;:null}" fill="url(#color-34)" stroke="#a5a776" stroke-width="1" stroke-linecap="round"/><path d="M446.25799,78.37825l1.21489,-6.71712l5.30034,-1.29505l4.03393,3.48551l-0.70344,7.11724l-4.4486,2.2087z" data-paper-data="{&quot;index&quot;:null}" fill="url(#color-35)" stroke="#a5a776" stroke-width="1" stroke-linecap="round"/><path d="M438.96308,61.80817l0.8994,-4.97276l3.92389,-0.95874l2.98636,2.58035l-0.52076,5.26898l-3.29335,1.63512z" data-paper-data="{&quot;index&quot;:null}" fill="url(#color-36)" stroke="#a5a776" stroke-width="1" stroke-linecap="round"/><path d="M443.46313,50.57952l-5.92718,0.3749l-2.12233,-3.56423l2.17371,-3.54264l6.16734,-0.81631l2.73189,2.78323z" data-paper-data="{&quot;index&quot;:null}" fill="url(#color-37)" stroke="#a5a776" stroke-width="1" stroke-linecap="round"/><path d="M455.58904,40.80696l3.97739,3.76438l-1.55535,7.73084l-5.37794,2.37292l-5.17026,-3.076l0.88698,-7.47406z" data-paper-data="{&quot;index&quot;:null}" fill="url(#color-38)" stroke="#a5a776" stroke-width="1" stroke-linecap="round"/><path d="M470.80264,34.99431l5.28887,5.00563l-2.0682,10.27995l-7.15122,3.15534l-6.87506,-4.09025l1.17945,-9.9385z" data-paper-data="{&quot;index&quot;:null}" fill="url(#color-39)" stroke="#4b4e31" stroke-width="1" stroke-linecap="round"/><path d="M404.96165,45.78049l9.29997,6.02397l-1.37797,8.74904l-7.74525,3.86005l-10.21937,-5.50839l-0.52355,-8.04524z" data-paper-data="{&quot;index&quot;:null}" fill="url(#color-40)" stroke="#a5a776" stroke-width="1" stroke-linecap="round"/><path d="M412.2935,35.73134l1.08035,6.74007l-4.5714,2.97876l-4.96122,-1.95131l-1.6955,-6.94804l3.46497,-3.55843z" data-paper-data="{&quot;index&quot;:null}" fill="url(#color-41)" stroke="#a5a776" stroke-width="1" stroke-linecap="round"/><path d="M424.66857,48.94654l0.79979,4.98975l-3.38426,2.20521l-3.67285,-1.44457l-1.25521,-5.14371l2.56516,-2.63433z" data-paper-data="{&quot;index&quot;:null}" fill="url(#color-42)" stroke="#a5a776" stroke-width="1" stroke-linecap="round"/><path d="M424.14494,61.03203l5.4678,-2.31842l3.18379,2.65923l-0.87652,4.06289l-5.54808,2.81447l-3.50001,-1.72032z" data-paper-data="{&quot;index&quot;:null}" fill="url(#color-43)" stroke="#a5a776" stroke-width="1" stroke-linecap="round"/><path d="M415.94393,74.27151l-5.00032,-2.23316l-1.09516,-7.80934l4.28733,-4.02141l5.89757,1.18828l1.64062,7.34553z" data-paper-data="{&quot;index&quot;:null}" fill="url(#color-44)" stroke="#a5a776" stroke-width="1" stroke-linecap="round"/><path d="M403.51718,84.79846l-6.6491,-2.9695l-1.45627,-10.38433l5.70101,-5.34739l7.84218,1.5801l2.1816,9.76758z" data-paper-data="{&quot;index&quot;:null}" fill="url(#color-45)" stroke="#4b4e31" stroke-width="1" stroke-linecap="round"/><g data-paper-data="{&quot;index&quot;:null}" stroke="none" stroke-width="0" stroke-linecap="butt"><path d="M443.75904,85.61281c1.33469,0 2.41666,1.49239 2.41666,3.33334c0,1.84095 -1.08197,3.33333 -2.41666,3.33333c-1.33469,0 -2.41667,-1.49238 -2.41667,-3.33333c0,-1.84096 1.08198,-3.33334 2.41667,-3.33334z" fill="#ffffff"/><path d="M443.75904,92.27947c1.33469,0 2.41666,1.49239 2.41666,3.33334c0,1.84096 -1.08197,3.33334 -2.41666,3.33334c-1.33469,0 -2.41667,-1.49239 -2.41667,-3.33334c0,-1.84096 1.08198,-3.33334 2.41667,-3.33334z" fill="#ffffff"/><path d="M440.31153,90.36328c2.02437,0.04999 3.64195,1.04233 3.61296,2.21647c-0.02899,1.17414 -1.69357,2.08545 -3.71794,2.03546c-2.02437,-0.04999 -3.64195,-1.04233 -3.61296,-2.21647c0.02899,-1.17414 1.69358,-2.08545 3.71795,-2.03546z" fill="#ffffff"/><path d="M444.09358,92.74642c-0.02899,-1.17414 1.58859,-2.16648 3.61296,-2.21647c2.02438,-0.04999 3.68896,0.86132 3.71795,2.03546c0.02899,1.17413 -1.58859,2.16647 -3.61296,2.21646c-2.02436,0.04999 -3.68895,-0.86131 -3.71794,-2.03545z" data-paper-data="{&quot;index&quot;:null}" fill="#ffffff"/><path d="M443.75904,89.44615c1.33469,0 2.41666,1.1566 2.41666,2.58333c0,1.42674 -1.08197,2.58334 -2.41666,2.58334c-1.33469,0 -2.41667,-1.15661 -2.41667,-2.58334c0,-1.42674 1.08198,-2.58333 2.41667,-2.58333z" fill="#d8bd2d"/></g><g data-paper-data="{&quot;index&quot;:null}" stroke="none" stroke-width="0" stroke-linecap="butt"><path d="M422.54551,97.1226c1.10442,0.74943 1.16175,2.59188 0.12805,4.11522c-1.0337,1.52334 -2.76698,2.15072 -3.8714,1.40129c-1.10442,-0.74943 -1.16176,-2.59188 -0.12806,-4.11522c1.0337,-1.52335 2.76699,-2.15072 3.87141,-1.40129z" fill="#ffffff"/><path d="M418.80217,102.6391c1.10442,0.74943 1.16175,2.59187 0.12806,4.11521c-1.0337,1.52335 -2.76698,2.15073 -3.8714,1.4013c-1.10442,-0.74943 -1.16176,-2.59188 -0.12806,-4.11522c1.0337,-1.52335 2.76698,-2.15073 3.87141,-1.4013z" fill="#ffffff"/><path d="M417.02539,99.11772c1.64704,1.17806 2.42835,2.90746 1.74508,3.86276c-0.68327,0.9553 -2.57237,0.77472 -4.21942,-0.40333c-1.64704,-1.17806 -2.42836,-2.90747 -1.74509,-3.86276c0.68327,-0.9553 2.57238,-0.77471 4.21943,0.40335z" fill="#ffffff"/><path d="M418.8168,103.21333c0.63529,-0.98785 2.531,-0.90071 4.23419,0.19461c1.70319,1.09533 2.56889,2.78408 1.9336,3.77193c-0.63529,0.98784 -2.531,0.9007 -4.23419,-0.19462c-1.70318,-1.09531 -2.56889,-2.78406 -1.93359,-3.77191z" data-paper-data="{&quot;index&quot;:null}" fill="#ffffff"/><path d="M420.39309,100.2946c1.10442,0.74943 1.3503,2.31401 0.54919,3.4946c-0.80111,1.18059 -2.34586,1.53012 -3.45028,0.78069c-1.10442,-0.74943 -1.35029,-2.31403 -0.54918,-3.49462c0.80111,-1.18059 2.34585,-1.5301 3.45028,-0.78067z" fill="#d8bd2d"/></g><g data-paper-data="{&quot;index&quot;:null}" stroke="none" stroke-width="0" stroke-linecap="butt"><path d="M430.07688,115.89013c1.10693,-0.74572 2.8381,-0.11252 3.86668,1.41428c1.02858,1.5268 0.96507,3.36903 -0.14186,4.11476c-1.10693,0.74572 -2.8381,0.11254 -3.86668,-1.41426c-1.02859,-1.52681 -0.96507,-3.36905 0.14186,-4.11477z" fill="#ffffff"/><path d="M433.80169,121.41915c1.10693,-0.74572 2.8381,-0.11252 3.86668,1.41428c1.02859,1.52681 0.96508,3.36905 -0.14185,4.11477c-1.10693,0.74572 -2.83811,0.11253 -3.86669,-1.41428c-1.02859,-1.52681 -0.96507,-3.36905 0.14186,-4.11477z" fill="#ffffff"/><path d="M429.87187,121.75616c1.70685,-1.08961 3.60284,-1.17038 4.23481,-0.18041c0.63198,0.98997 -0.23938,2.67581 -1.94623,3.76541c-1.70685,1.08961 -3.60284,1.17038 -4.23482,0.18041c-0.63198,-0.98997 0.23939,-2.67581 1.94624,-3.76542z" fill="#ffffff"/><path d="M434.34004,121.61951c-0.68006,-0.95758 0.10704,-2.68437 1.75803,-3.85689c1.651,-1.17253 3.54069,-1.34677 4.22075,-0.38918c0.68005,0.95757 -0.10705,2.68436 -1.75804,3.85688c-1.65098,1.17252 -3.54068,1.34677 -4.22074,0.38919z" data-paper-data="{&quot;index&quot;:null}" fill="#ffffff"/><path d="M432.21865,119.06933c1.10693,-0.74572 2.65049,-0.39101 3.44763,0.79226c0.79715,1.18328 0.54603,2.74702 -0.5609,3.49274c-1.10693,0.74572 -2.6505,0.39101 -3.44765,-0.79225c-0.79715,-1.18328 -0.54602,-2.74703 0.56091,-3.49275z" fill="#d8bd2d"/></g><g data-paper-data="{&quot;index&quot;:null}" stroke="none" stroke-width="0" stroke-linecap="butt"><path d="M25.55197,246.0049c-1.02858,1.5268 -2.75975,2.15998 -3.86668,1.41426c-1.10693,-0.74572 -1.17044,-2.58795 -0.14186,-4.11476c1.02858,-1.5268 2.75975,-2.16 3.86668,-1.41428c1.10693,0.74572 1.17045,2.58796 0.14186,4.11477z" fill="#ffffff"/><path d="M21.82714,251.53392c-1.02858,1.5268 -2.75976,2.16 -3.86669,1.41428c-1.10693,-0.74572 -1.17044,-2.58795 -0.14185,-4.11477c1.02858,-1.5268 2.75975,-2.16 3.86668,-1.41428c1.10693,0.74572 1.17045,2.58796 0.14186,4.11477z" fill="#ffffff"/><path d="M25.61511,247.75615c1.70685,1.08961 2.57821,2.77545 1.94624,3.76542c-0.63197,0.98997 -2.52796,0.9092 -4.23481,-0.18041c-1.70685,-1.08961 -2.57821,-2.77544 -1.94623,-3.76541c0.63197,-0.98997 2.52796,-0.9092 4.23481,0.18041z" fill="#ffffff"/><path d="M21.14692,247.6195c-0.68006,0.95758 -2.56977,0.78333 -4.22075,-0.38919c-1.65099,-1.17252 -2.43809,-2.8993 -1.75803,-3.85688c0.68006,-0.95758 2.56976,-0.78334 4.22076,0.38918c1.65099,1.17252 2.43809,2.8993 1.75803,3.85689z" data-paper-data="{&quot;index&quot;:null}" fill="#ffffff"/><path d="M23.82924,248.56207c-0.79715,1.18327 -2.34072,1.53797 -3.44765,0.79225c-1.10693,-0.74572 -1.35805,-2.30947 -0.5609,-3.49274c0.79715,-1.18327 2.34071,-1.53798 3.44764,-0.79226c1.10693,0.74572 1.35806,2.30947 0.56091,3.49275z" fill="#d8bd2d"/></g><g data-paper-data="{&quot;index&quot;:null}" stroke="none" stroke-width="0" stroke-linecap="butt"><path d="M43.43207,239.32625c1.81669,-0.29786 3.46447,0.5284 3.68041,1.84551c0.21595,1.3171 -1.08171,2.62628 -2.89841,2.92414c-1.81669,0.29786 -3.46448,-0.52839 -3.68043,-1.84549c-0.21595,-1.3171 1.08171,-2.62629 2.89841,-2.92415z" fill="#ffffff"/><path d="M50.01089,238.24761c1.81669,-0.29786 3.46449,0.5284 3.68044,1.8455c0.21595,1.3171 -1.08171,2.62628 -2.89842,2.92414c-1.81669,0.29786 -3.46448,-0.52839 -3.68043,-1.84549c-0.21595,-1.3171 1.08171,-2.62629 2.89841,-2.92415z" fill="#ffffff"/><path d="M44.66374,238.07972c-0.37686,-1.98961 0.25312,-3.77971 1.40709,-3.99829c1.15397,-0.21858 2.39496,1.21712 2.77182,3.20674c0.37686,1.98961 -0.25311,3.7797 -1.40709,3.99828c-1.15397,0.21858 -2.39496,-1.21712 -2.77182,-3.20674z" fill="#ffffff"/><path d="M47.62739,241.42635c1.16336,-0.16136 2.33199,1.33385 2.61019,3.33963c0.27821,2.00578 -0.43934,3.76261 -1.6027,3.92397c-1.16336,0.16136 -2.33199,-1.33384 -2.6102,-3.33963c-0.27821,-2.00578 0.43934,-3.76261 1.60271,-3.92398z" data-paper-data="{&quot;index&quot;:null}" fill="#ffffff"/><path d="M46.47478,238.82738c1.40794,-0.23084 2.72436,0.64976 2.94031,1.96686c0.21595,1.3171 -0.75035,2.57195 -2.15829,2.80279c-1.40794,0.23084 -2.72436,-0.64974 -2.94031,-1.96684c-0.21595,-1.3171 0.75034,-2.57196 2.15829,-2.80281z" fill="#d8bd2d"/></g><g data-paper-data="{&quot;index&quot;:null}" stroke="none" stroke-width="0" stroke-linecap="butt"><path d="M41.07326,261.82714c-1.83505,0.14729 -3.4092,-0.81182 -3.51599,-2.14223c-0.10678,-1.33041 1.29424,-2.52831 3.1293,-2.6756c1.83505,-0.14729 3.40922,0.81181 3.51601,2.14222c0.10678,1.33041 -1.29425,2.52832 -3.12931,2.67561z" fill="#ffffff"/><path d="M34.42796,262.36051c-1.83505,0.14729 -3.40923,-0.81182 -3.51601,-2.14223c-0.10678,-1.33041 1.29424,-2.52831 3.12931,-2.6756c1.83505,-0.14729 3.40922,0.81181 3.51601,2.14222c0.10678,1.33041 -1.29425,2.52832 -3.12931,2.67561z" fill="#ffffff"/><path d="M39.74314,262.96804c0.21179,2.01389 -0.56342,3.74604 -1.73147,3.86888c-1.16805,0.12284 -2.28663,-1.41016 -2.49842,-3.42404c-0.21179,-2.01389 0.56342,-3.74604 1.73147,-3.86887c1.16805,-0.12284 2.28663,1.41016 2.49842,3.42404z" fill="#ffffff"/><path d="M37.06505,259.38879c-1.17269,0.06504 -2.21426,-1.52131 -2.32639,-3.54318c-0.11213,-2.02188 0.74761,-3.71366 1.9203,-3.77871c1.17269,-0.06504 2.21426,1.52129 2.3264,3.54318c0.11213,2.02188 -0.74761,3.71366 -1.92031,3.77871z" data-paper-data="{&quot;index&quot;:null}" fill="#ffffff"/><path d="M37.9998,262.07382c-1.42216,0.11415 -2.66162,-0.87183 -2.76841,-2.20224c-0.10678,-1.33041 0.95954,-2.50145 2.3817,-2.6156c1.42216,-0.11415 2.66162,0.87182 2.76841,2.20223c0.10678,1.33041 -0.95953,2.50145 -2.3817,2.61561z" fill="#d8bd2d"/></g><g stroke-width="1" stroke-linecap="round"><path d="M67.96218,236.85079l3.1358,-7.42743l11.46135,-1.84804l6.04868,6.18889l-1.57074,8.7165l-10.76218,2.63687z" fill="url(#color-46)" stroke="#a5a776"/><path d="M72.68981,257.40995l-2.10468,-4.49875l3.88259,-6.00629l5.32685,-0.21438l3.34009,4.31446l-3.23325,6.01181z" fill="url(#color-47)" stroke="#a5a776"/><path d="M90.59031,248.88788l-1.55812,-3.33047l2.87433,-4.44652l3.94353,-0.15869l2.4727,3.19404l-2.39361,4.45061z" fill="url(#color-48)" stroke="#a5a776"/><path d="M100.00473,231.39826l3.8708,-0.4759l4.31657,4.47992l-0.50592,4.12546l-3.88035,1.46658l-4.4036,-3.98501z" fill="url(#color-49)" stroke="#a5a776"/><path d="M99.59923,228.91602l-3.96124,6.39976l-5.9608,-0.81377l-2.72945,-5.20606l3.59828,-7.01694l5.45632,-0.46776z" data-paper-data="{&quot;index&quot;:null}" fill="url(#color-50)" stroke="#a5a776"/><path d="M92.50331,217.23548l-5.26739,8.50997l-7.92627,-1.08209l-3.62944,-6.92266l4.78475,-9.33065l7.25545,-0.622z" data-paper-data="{&quot;index&quot;:null}" fill="url(#color-51)" stroke="#4b4e31"/></g><g stroke-width="1" stroke-linecap="round"><path d="M435.08098,237.03471l7.88571,-1.67794l8.07345,8.3425l-1.61488,8.50183l-8.04745,3.69906l-8.32036,-7.31773z" fill="url(#color-52)" stroke="#a5a776"/><path d="M420.92463,252.67528l2.48536,-4.30016l7.14747,-0.25234l3.22367,4.24609l-1.62736,5.20792l-6.78046,0.78805z" fill="url(#color-53)" stroke="#a5a776"/><path d="M438.15598,262.4801l1.83994,-3.18345l5.29135,-0.18681l2.38651,3.14344l-1.20476,3.85548l-5.01966,0.5834z" fill="url(#color-54)" stroke="#a5a776"/><path d="M457.88649,260.19424l2.60505,2.90229l-1.20435,6.10344l-3.67291,1.94552l-3.42301,-2.34329l0.74866,-5.89165z" fill="url(#color-55)" stroke="#a5a776"/><path d="M459.69025,258.44142l-7.51517,0.41297l-2.74317,-5.35429l2.70798,-5.21726l7.81367,-1.06378l3.50555,4.20729z" data-paper-data="{&quot;index&quot;:null}" fill="url(#color-56)" stroke="#a5a776"/><path d="M465.20984,245.93857l-9.99317,0.54914l-3.64769,-7.11977l3.60088,-6.93756l10.39009,-1.41454l4.66145,5.59458z" data-paper-data="{&quot;index&quot;:null}" fill="url(#color-57)" stroke="#4b4e31"/></g><path d="M174.94845,-0.75364c-0.18416,0.21093 -0.473,0.37635 -0.92606,0.37635c-1.25,0 -1.25,-1.25925 -1.25,-1.25925v-2.0148c0,-2.41725 0.28073,-4.35699 1.01101,-6.22128c2.51507,0.01433 4.86404,-0.01646 5.46083,-0.08062c4.58435,-0.49283 9.48013,-2.91313 14.17634,-2.0542c1.03689,0.18965 1.94847,0.92657 3,1c4.33475,0.30269 8.69531,0.33301 13.03538,0.11972c7.47994,-0.36759 14.9097,-2.54329 22.37837,-1.99237c1.53825,0.11347 3.06333,0.41093 4.59089,0.6522c-0.62875,0.53827 -1.17659,1.01855 -1.48885,1.38457c-4.31287,5.05538 -7.90737,10.24473 -11.22488,16.01219c-3.14882,5.47115 -6.40685,11.4936 -8.69438,17.39161c-3.90065,10.05718 -6.52481,20.75782 -10.23687,30.92572c-3.16827,8.67837 -6.57264,19.37373 -3.81749,28.62206c0.41373,1.3888 1.33821,5.3212 2.56187,6.23277c1.21573,0.90567 3.01725,0.32365 4.48277,0.69852c3.2218,0.82413 6.40026,2.10755 9.56016,3.15c16.77107,4.75953 33.59869,9.68977 50.75914,12.83293c13.32924,2.44143 26.014,4.25488 38.42352,10.09267c3.84625,1.80939 8.0581,3.19103 11.09857,6.20784c4.0918,2.77516 8.54589,5.6467 12.05754,9.12661c3.12611,3.09786 4.19867,7.18512 5.34685,11.20555c2.29439,8.03394 4.0988,16.73636 3.92832,25.1486c-0.15514,7.20002 -2.00086,13.11752 -4.14999,19.91864c-2.36039,7.46964 -4.83975,14.44373 -9.77467,20.70321c-2.04726,2.59675 -4.71073,4.89983 -6.92871,7.37111c-6.72412,7.49203 -14.3237,14.52321 -22.78574,20.02852c-2.92024,1.89987 -6.00787,2.94638 -9.0728,4.49369c-3.62596,1.83054 -7.05564,4.32644 -10.49604,6.48863c-10.9201,8.67206 -19.86455,19.64121 -25.84506,32.29532c-1.41216,2.98797 -2.94752,5.83596 -3.79345,9.0392c-1.25244,4.70145 -2.54301,9.49425 -2.04948,14.41958c1.21631,12.13853 6.10117,24.32062 9.89781,35.82812c4.51991,9.69886 8.68797,19.20502 14.97999,27.83284c1.03504,1.41929 2.67875,3.01318 3.01948,4.67309c-0.4396,-0.10964 -0.87687,-0.22835 -1.31095,-0.35947c-4.51137,-1.3626 -8.83411,-3.43047 -13.46246,-4.31791c-1.35853,-0.26049 -7.40239,0.02828 -8.76564,-0.07733c-6.30689,-0.48863 -12.38436,-2.3542 -18.636,-2.97066c-5.81038,-0.57295 -11.10141,0.38441 -16.81018,0.98541c-0.10694,0.01126 -0.21428,0.02165 -0.322,0.03124c-0.79119,-1.07726 -1.56988,-2.17313 -2.46077,-3.13797c-3.98805,-4.34732 -6.73609,-10.04152 -9.14017,-15.40539c-1.7141,-3.82441 -3.78647,-7.52215 -5.41792,-11.37478c-2.95767,-6.98445 -4.34775,-14.47006 -7.13794,-21.49712c-2.53861,-6.39347 -2.23679,-13.05046 -1.62024,-19.89671c0.64518,-7.1641 0.64499,-15.61743 3.01499,-22.45476c1.07653,-3.10573 3.18119,-6.30781 4.89663,-9.09245c3.42576,-5.55654 6.44489,-12.4768 11.1423,-17.06338c2.2506,-2.1975 5.19921,-3.99607 7.65853,-5.97835c5.88429,-4.74294 11.65107,-9.60805 17.85136,-13.92188c11.3475,-7.89475 19.3375,-19.65481 23.61016,-32.84946c1.0218,-3.15546 0.66659,-6.52123 1.60334,-9.75097c0.6076,-5.47186 1.64978,-10.8113 1.89784,-16.23586c0.06383,-1.39573 0.95398,-2.84889 0.48344,-4.16322c-0.51775,-1.44622 -2.14664,-2.19236 -3.11022,-3.38455c-5.23937,-6.48242 -13.0734,-9.34599 -20.50613,-12.35216c-4.65189,-1.13939 -9.19467,-3.06397 -13.85879,-3.99297c-12.43263,-2.47635 -24.63823,-4.10058 -36.37179,-9.20446c-5.33034,-3.80104 -11.37218,-8.1579 -15.38481,-13.43454c-1.44493,-1.90008 -2.47994,-4.4473 -3.63892,-6.53763c-4.11687,-7.42523 -7.32364,-15.089 -9.60195,-23.26174c-0.04494,-8.14352 -0.63326,-16.71865 0.26514,-24.81939c1.0045,-9.05742 3.59448,-18.5673 6.50204,-27.16626c1.87492,-5.54413 4.06388,-10.96626 5.66155,-16.60616c0.41479,-1.46426 0.26135,-3.04907 0.64686,-4.52143c0.62279,-2.37859 2.24885,-4.6192 2.96501,-7.0076c0.88398,-2.94806 1.36701,-5.91857 2.12337,-8.82935z" fill="url(#color-58)" stroke="#9b9d68" stroke-width="3" stroke-linecap="butt"/><path d="" fill="#dce094" stroke="#9b9d68" stroke-width="2" stroke-linecap="butt"/></g></g></svg>