<svg version="1.1" xmlns="http://www.w3.org/2000/svg" xmlns:xlink="http://www.w3.org/1999/xlink" width="30.88442" height="41.24552" viewBox="0,0,30.88442,41.24552"><g transform="translate(-224.55779,-159.37724)"><g data-paper-data="{&quot;isPaintingLayer&quot;:true}" fill="#ffffff" fill-rule="nonzero" stroke="#000000" stroke-width="0.5" stroke-linecap="square" stroke-linejoin="miter" stroke-miterlimit="10" stroke-dasharray="" stroke-dashoffset="0" style="mix-blend-mode: normal"><path d="M255.19221,185.7973c0,2.19282 -0.38718,4.18693 -1.16152,5.98231c-0.77434,1.78852 -1.83992,3.31665 -3.19673,4.58438c-1.35682,1.26773 -2.9706,2.2545 -4.84136,2.96032c-1.87076,0.69896 -3.8957,1.04845 -6.07483,1.04845c-1.78168,0 -3.38861,-0.24327 -4.8208,-0.7298c-1.42533,-0.48654 -2.69992,-1.16151 -3.82375,-2.02494c-1.12383,-0.86343 -2.09347,-1.88789 -2.90893,-3.07339c-0.80861,-1.19235 -1.47673,-2.48064 -2.00438,-3.86486c-0.52765,-1.38422 -0.91825,-2.84724 -1.1718,-4.38908c-0.25355,-1.54869 -0.38032,-3.11451 -0.38032,-4.69746c0,-1.94614 0.14391,-3.84088 0.43171,-5.68422c0.2878,-1.84334 0.73323,-3.57363 1.33625,-5.19084c0.60303,-1.61721 1.3808,-3.10765 2.33331,-4.47131c0.95251,-1.37052 2.08318,-2.54231 3.39203,-3.51539c1.3157,-0.97306 2.82327,-1.7337 4.52271,-2.28191c1.7063,-0.5482 3.61817,-0.82232 5.73562,-0.82232c0.77434,0 1.56582,0.03084 2.37443,0.09251c0.80861,0.06167 1.61721,0.17473 2.42582,0.3392c0.81546,0.16447 1.60351,0.38032 2.36414,0.64757c0.76749,0.26726 1.49387,0.60988 2.17912,1.02789l-0.81203,10.62838c-1.28144,-0.63044 -2.66566,-1.11012 -4.15268,-1.43904c-1.48016,-0.33578 -2.91921,-0.50366 -4.31713,-0.50366c-1.11697,0 -2.07976,0.16788 -2.88836,0.50366c-0.80861,0.32892 -1.49386,0.80176 -2.05578,1.41849c-0.55506,0.60988 -0.9902,1.34311 -1.30542,2.19968c-0.31522,0.84972 -0.51737,1.79538 -0.60646,2.83697c1.1855,-0.68526 2.45323,-1.22319 3.80319,-1.61379c1.34996,-0.39745 2.72733,-0.59617 4.13211,-0.59617c1.58295,0 3.07339,0.24327 4.47132,0.72979c1.40478,0.48654 2.62454,1.18892 3.65928,2.10717c1.03474,0.91139 1.85363,2.02495 2.45666,3.34064c0.60303,1.3157 0.90454,2.79928 0.90454,4.45076zM244.93388,186.60934c0,-0.55506 -0.12335,-1.05187 -0.37004,-1.49044c-0.23984,-0.44542 -0.55164,-0.82574 -0.93538,-1.14096c-0.38375,-0.31522 -0.82916,-0.55849 -1.33625,-0.7298c-0.50025,-0.17131 -1.0039,-0.25697 -1.51099,-0.25697c-0.50025,0 -0.99363,0.08565 -1.48016,0.25697c-0.48654,0.17131 -0.9251,0.41458 -1.3157,0.7298c-0.38375,0.31522 -0.69897,0.69554 -0.94566,1.14096c-0.23984,0.43857 -0.35977,0.93538 -0.35977,1.49044c0,0.54136 0.11993,1.03132 0.35977,1.46988c0.24669,0.43857 0.56191,0.81203 0.94566,1.1204c0.3906,0.30837 0.82917,0.5482 1.3157,0.71953c0.48654,0.16447 0.97992,0.24669 1.48016,0.24669c0.50709,0 1.01075,-0.08223 1.51099,-0.24669c0.50709,-0.17131 0.95251,-0.41116 1.33625,-0.71953c0.38375,-0.30837 0.69555,-0.68183 0.93538,-1.1204c0.24669,-0.43857 0.37004,-0.92853 0.37004,-1.46988z"/></g></g></svg>