<svg version="1.1" xmlns="http://www.w3.org/2000/svg" xmlns:xlink="http://www.w3.org/1999/xlink" width="101.57361" height="121.06711" viewBox="0,0,101.57361,121.06711"><defs><radialGradient cx="48.99763" cy="313.66459" r="32.59794" gradientUnits="userSpaceOnUse" id="color-1"><stop offset="0" stop-color="#deb631"/><stop offset="1" stop-color="#deb631" stop-opacity="0"/></radialGradient><linearGradient x1="49.28806" y1="304.65152" x2="49.28806" y2="359.28728" gradientUnits="userSpaceOnUse" id="color-2"><stop offset="0" stop-color="#d9ba6f"/><stop offset="1" stop-color="#af7a38"/></linearGradient><linearGradient x1="40.97222" y1="328.73855" x2="40.97222" y2="339.97921" gradientUnits="userSpaceOnUse" id="color-3"><stop offset="0" stop-color="#bc8d3c"/><stop offset="1" stop-color="#c69b40"/></linearGradient><linearGradient x1="79.98232" y1="316.81427" x2="82.41661" y2="359.05532" gradientUnits="userSpaceOnUse" id="color-4"><stop offset="0" stop-color="#d3ac43"/><stop offset="1" stop-color="#a56e35"/></linearGradient><linearGradient x1="58.89051" y1="333.93845" x2="57.4143" y2="355.3031" gradientUnits="userSpaceOnUse" id="color-5"><stop offset="0" stop-color="#d3ac43"/><stop offset="1" stop-color="#a56e35"/></linearGradient><linearGradient x1="48.50484" y1="331.06643" x2="48.50484" y2="359.39818" gradientUnits="userSpaceOnUse" id="color-6"><stop offset="0" stop-color="#d3ac43"/><stop offset="1" stop-color="#a56e35"/></linearGradient><linearGradient x1="18.31177" y1="318.88207" x2="18.31177" y2="358.7979" gradientUnits="userSpaceOnUse" id="color-7"><stop offset="0" stop-color="#d3ac43"/><stop offset="1" stop-color="#a56e35"/></linearGradient><radialGradient cx="49.12444" cy="315.29089" r="36.56963" gradientUnits="userSpaceOnUse" id="color-8"><stop offset="0" stop-color="#be8823"/><stop offset="1" stop-color="#bd8b27"/></radialGradient><linearGradient x1="40.97222" y1="330.26271" x2="40.97222" y2="336.74038" gradientUnits="userSpaceOnUse" id="color-9"><stop offset="0" stop-color="#bc8d3c"/><stop offset="1" stop-color="#c69b40"/></linearGradient><linearGradient x1="49.31574" y1="303.08395" x2="49.31574" y2="339.95334" gradientUnits="userSpaceOnUse" id="color-10"><stop offset="0" stop-color="#ffffbc"/><stop offset="1" stop-color="#ffffbc" stop-opacity="0"/></linearGradient><linearGradient x1="46.47388" y1="238.83109" x2="46.47388" y2="318.45142" gradientUnits="userSpaceOnUse" id="color-11"><stop offset="0" stop-color="#cfae7d"/><stop offset="1" stop-color="#be904c"/></linearGradient><radialGradient cx="48.98473" cy="306.11618" r="34.5786" gradientUnits="userSpaceOnUse" id="color-12"><stop offset="0" stop-color="#f7cb07"/><stop offset="1" stop-color="#f7cb07" stop-opacity="0"/></radialGradient><linearGradient x1="46.3741" y1="259.89144" x2="46.3741" y2="276.84988" gradientUnits="userSpaceOnUse" id="color-13"><stop offset="0" stop-color="#c0965b" stop-opacity="0"/><stop offset="1" stop-color="#c0965b"/></linearGradient><linearGradient x1="46.41019" y1="274.83318" x2="46.41019" y2="290.91273" gradientUnits="userSpaceOnUse" id="color-14"><stop offset="0" stop-color="#c0965b"/><stop offset="1" stop-color="#c0965b" stop-opacity="0"/></linearGradient><radialGradient cx="46.47388" cy="278.64125" r="33.06792" gradientUnits="userSpaceOnUse" id="color-15"><stop offset="0" stop-color="#83f000"/><stop offset="1" stop-color="#1ad600"/></radialGradient><radialGradient cx="49.62891" cy="281.9346" r="26.3219" gradientUnits="userSpaceOnUse" id="color-16"><stop offset="0" stop-color="#aeff00"/><stop offset="1" stop-color="#aeff00" stop-opacity="0"/></radialGradient><radialGradient cx="49.14992" cy="279.13455" r="24.4734" gradientUnits="userSpaceOnUse" id="color-17"><stop offset="0" stop-color="#a5e803"/><stop offset="1" stop-color="#a5e803" stop-opacity="0"/></radialGradient><radialGradient cx="49.14993" cy="279.13455" r="23.10748" gradientUnits="userSpaceOnUse" id="color-18"><stop offset="0" stop-color="#78df00" stop-opacity="0"/><stop offset="1" stop-color="#78df00"/></radialGradient><radialGradient cx="38.0964" cy="269.20945" r="18.41961" gradientUnits="userSpaceOnUse" id="color-19"><stop offset="0" stop-color="#99f500"/><stop offset="1" stop-color="#42e800"/></radialGradient><linearGradient x1="46.07705" y1="238.89337" x2="46.07705" y2="281.2193" gradientUnits="userSpaceOnUse" id="color-20"><stop offset="0" stop-color="#ffffcc"/><stop offset="1" stop-color="#ffffcc" stop-opacity="0"/></linearGradient></defs><g transform="translate(1.52499,-238.33107)"><g data-paper-data="{&quot;isPaintingLayer&quot;:true}" fill-rule="nonzero" stroke-linejoin="miter" stroke-miterlimit="10" stroke-dasharray="" stroke-dashoffset="0" style="mix-blend-mode: normal"><path d="M81.59557,313.66459c0,6.98405 -14.5946,12.64576 -32.59794,12.64576c-18.00333,0 -32.59793,-5.6617 -32.59793,-12.64576c0,-6.98405 14.5946,-12.64576 32.59794,-12.64576c18.00334,0 32.59794,5.6617 32.59794,12.64576z" fill="url(#color-1)" stroke="none" stroke-width="0" stroke-linecap="butt"/><g stroke-width="0"><path d="M-0.36803,310.27797c0,0 3.74758,-1.54581 5.7336,-1.80901c2.14785,-0.28465 6.70607,0.16037 6.70607,0.16037c0,0 7.70962,17.08591 10.94092,18.13495c3.90898,1.26905 47.1873,0.812 51.10756,-2.09826c2.84499,-2.11203 12.13993,-19.93346 12.13993,-19.93346c0,0 2.94195,-0.42593 6.94145,0.67487c2.65549,0.73088 6.2476,2.92215 6.2476,2.92215c0,0 0.14662,11.75273 0.23306,19.035c0.10838,9.13166 -0.23306,31.3232 -0.23306,31.3232l-99.967,0.59951c0,0 -0.55608,-17.66048 -0.60727,-26.08013c-0.04861,-7.99469 0.75713,-22.92919 0.75713,-22.92919z" fill="url(#color-2)" stroke="#000000" stroke-linecap="round"/><path d="M37.35235,338.45505l7.17625,-0.12701l-0.12702,-9.39898l1.77819,-0.19052l0.31753,10.73262l-11.05014,0.50805l0.0635,-10.98664h2.09572z" fill="url(#color-3)" stroke="#000000" stroke-linecap="round"/><path d="M90.38883,357.8762c0,0 0.32191,-29.19786 0.37229,-33.76633c0.01282,-1.16322 -1.18598,-2.22489 -2.32637,-2.25864c-3.04834,-0.09022 -16.79517,-0.49705 -16.79517,-0.49705c0,0 0.88389,13.13387 0.72919,16.44922c-0.05709,1.22321 1.03175,2.58245 2.05406,2.64531c1.83691,0.11295 7.87748,0.65532 10.84311,0.83765c1.00249,0.06164 1.68148,-0.93892 1.73229,-2.45655c0.11734,-3.50504 0.47287,-7.0335 0.52868,-8.7004c0.02809,-0.83916 -0.71837,-1.68356 -1.78686,-1.65958c-1.95074,0.04379 -6.56097,-0.57868 -7.53217,-0.55689c-0.62314,0.014 -1.31131,0.66922 -1.29598,1.5686c0.02863,1.68133 0.07271,4.27074 0.09002,5.28744c0.01387,0.8144 0.66265,1.81084 1.15515,1.77313c0.62842,-0.0481 2.71048,-0.41056 3.79488,0.07921c0.54758,0.24731 0.84042,2.89768 0.17957,3.08645c-1.61718,0.46195 -5.2741,0.01977 -6.3982,0.07512c-0.78365,0.03859 -1.74894,-0.82644 -1.74108,-1.69232c0.01584,-1.74572 0.07368,-8.12038 0.10214,-11.25694c0.00973,-1.0731 0.77263,-1.74556 1.94482,-1.71412c3.56286,0.0956 10.96511,0.28219 12.63081,0.22974c0.76918,-0.02422 1.54614,0.66376 1.53225,1.82316c-0.05272,4.40064 -0.33546,12.71318 -0.3681,15.4378c-0.01452,1.21174 -0.81679,2.43888 -1.65986,2.41902c-2.20115,-0.05181 -12.19137,-0.28697 -16.95045,-0.39898c-1.54257,-0.03632 -2.48956,-1.34456 -2.44235,-2.66379c0.14942,-4.17527 -0.59577,-24.24928 -0.59577,-24.24928c0,0 22.06059,0.95603 25.15525,1.09015c0.70031,0.03035 1.28529,0.74115 1.2817,1.5928c-0.01762,4.19239 -0.1565,37.24533 -0.1565,37.24533" data-paper-data="{&quot;index&quot;:null}" fill="url(#color-4)" stroke="#000000" stroke-linecap="round"/><path d="M50.72025,359.23831c0,0 -0.36501,-21.38785 -0.36961,-23.50869c-0.00093,-0.43082 0.34106,-0.78949 0.74936,-0.80375c1.80431,-0.06302 14.6665,-0.51232 14.6665,-0.51232c0,0 0.42753,11.08443 0.50902,13.19681c0.02574,0.66744 -0.5281,1.32776 -1.42744,1.34373c-2.77461,0.04926 -8.59902,0.15266 -9.88231,0.17545c-0.49153,0.00874 -0.95757,-0.61329 -0.9644,-1.22629c-0.01535,-1.37835 -0.07639,-6.86012 -0.10119,-9.08637c-0.00653,-0.58653 0.44735,-0.93336 0.89572,-0.91991c1.29046,0.03871 7.50668,0.22513 7.50668,0.22513c0,0 0.04209,5.40341 0.0513,6.58868c0.00341,0.43804 -0.5605,0.87412 -1.01731,0.85339c-0.65525,-0.02976 -2.78777,0.18824 -3.72992,-0.04796c-0.385,-0.09652 -0.21069,-1.4368 0.10885,-1.56106c0.63285,-0.24606 1.84615,-0.05946 2.21244,-0.03416c0.28707,0.01983 0.66664,-0.48321 0.67582,-0.89517c0.01147,-0.51428 0.04068,-1.82412 0.05963,-2.67462c0.01015,-0.45495 -0.39016,-0.78747 -0.75341,-0.79553c-0.56616,-0.01254 -2.273,-0.05034 -3.41019,-0.07553c-0.62288,-0.0138 -1.0592,0.41219 -1.04396,0.83675c0.03028,0.84332 0.14023,3.90509 0.2039,5.67836c0.02757,0.76781 0.04647,1.29405 0.04647,1.29405c0,0 0.37559,-0.01903 0.9601,-0.04865c1.72915,-0.08763 5.25141,-0.35259 6.32245,-0.40687c0.59607,-0.03021 1.23268,-0.7161 1.20106,-1.33497c-0.08572,-1.67737 -0.44177,-9.25077 -0.44177,-9.25077c0,0 -8.01468,0.18441 -9.79194,0.2253c-0.66486,0.01529 -1.36518,0.55051 -1.35927,1.13897c0.02318,2.31113 0.5001,21.74912 0.5001,21.74912" fill="url(#color-5)" stroke="#000000" stroke-linecap="round"/><path d="M47.78176,359.39818v-28.33173h1.44618v28.33173z" fill="url(#color-6)" stroke="none" stroke-linecap="butt"/><path d="M5.15942,358.3391c0,0 -2.2158,-31.08633 -2.49684,-35.0293c-0.05709,-0.80097 0.53273,-1.51182 1.29012,-1.5908c3.34691,-0.34902 27.20555,-2.83693 27.20555,-2.83693c0,0 2.21909,20.55582 2.64199,24.47319c0.13362,1.23774 -0.81138,2.53672 -2.4816,2.68196c-5.15286,0.44808 -15.96968,1.38867 -18.35297,1.59591c-0.91284,0.07939 -1.85935,-1.01734 -1.9508,-2.15632c-0.20562,-2.56099 -1.02342,-12.74615 -1.35552,-16.8825c-0.0875,-1.08978 0.71189,-1.79298 1.54736,-1.82558c2.40451,-0.09384 13.98709,-0.54585 13.98709,-0.54585c0,0 0.77246,10.0419 0.9419,12.24464c0.06262,0.81407 -0.92991,1.69738 -1.78198,1.7175c-1.22222,0.02886 -5.15948,0.70818 -6.94171,0.39003c-0.72829,-0.13001 -0.57638,-2.64456 0.00185,-2.91667c1.14512,-0.53886 3.42514,-0.34778 4.1095,-0.34778c0.53635,0 1.17749,-0.98416 1.14164,-1.75134c-0.04475,-0.95776 -0.15874,-3.39706 -0.23276,-4.98093c-0.03958,-0.84724 -0.82663,-1.41413 -1.50313,-1.38243c-1.05435,0.04943 -4.23297,0.19842 -6.35073,0.29769c-1.15997,0.05437 -1.91656,0.90254 -1.83366,1.69c0.16466,1.56419 0.76246,7.24324 1.10869,10.53235c0.1499,1.42415 0.25265,2.40023 0.25265,2.40023c0,0 0.69595,-0.08364 1.779,-0.21382c3.20399,-0.38509 9.71937,-1.33033 11.70391,-1.56885c1.10448,-0.13274 2.20008,-1.48991 2.06175,-2.63661c-0.37489,-3.10796 -2.00999,-17.14445 -2.00999,-17.14445c0,0 -14.87909,1.37261 -18.17851,1.67699c-1.2343,0.11386 -2.46773,1.199 -2.38114,2.29246c0.34006,4.29441 2.5134,31.7407 2.5134,31.7407" fill="url(#color-7)" stroke="#000000" stroke-linecap="round"/><path d="M85.69407,303.6006c0,0 -5.3283,11.87202 -7.63101,15.85435c-1.83824,3.17908 -5.10842,6.17735 -5.10842,6.17735c0,0 -14.95889,1.69037 -22.32905,1.88837c-9.02747,0.24253 -27.87927,-0.53948 -27.87927,-0.53948c0,0 -3.51672,-3.90841 -4.87856,-6.552c-1.87092,-3.6318 -5.31296,-13.23158 -5.31296,-13.23158c0,0 8.37049,7.76937 11.55237,10.25953c2.05805,1.61066 6.13296,2.92951 6.13296,2.92951l34.47138,-1.19901c0,0 4.82382,-5.48041 8.54291,-8.24316c3.7191,-2.76276 12.43967,-7.34391 12.43967,-7.34391z" fill="url(#color-8)" stroke="#000000" stroke-linecap="round"/><path d="M40.33715,330.26271l0.12701,4.6995h2.9213v1.71469l-4.763,0.0635l-0.0635,-5.84262z" fill="url(#color-9)" stroke="#000000" stroke-linecap="round"/><path d="M100.04862,338.15484l-1.19901,1.49876c0,0 -0.21637,-30.68873 -0.74938,-31.324c-0.67222,-0.80123 -9.83022,-2.75013 -10.64116,-2.9975c-1.0222,-0.31182 -10.04564,20.8336 -12.43967,21.13246c-2.33604,0.29161 -51.1141,4.41839 -53.20583,1.94839c-1.27446,-1.50495 -9.61795,-16.2411 -10.79103,-18.73446c-0.35754,-0.75995 -8.88269,0.14479 -10.19154,1.79852c-1.89121,2.3895 -0.89925,28.47636 -0.89925,28.47636l-1.34888,-1.49876c0,0 -0.48424,-23.56815 0.5995,-27.87685c0.49086,-1.95154 11.10692,-3.24044 12.73942,-2.24813c0.64069,0.38943 11.54042,17.98507 11.54042,17.98507l50.05844,-0.74937l12.8893,-22.48133l13.63867,3.89677z" fill="url(#color-10)" stroke="#000000" stroke-linecap="round"/></g><g><path d="M34.20286,239.71822c7.95706,-2.42819 34.34862,-0.20768 42.90188,10.86597c11.35475,14.70065 13.72884,35.71921 2.06079,53.58052c-6.69401,10.24711 -34.67711,17.40209 -44.96267,12.92677c-10.21984,-4.44671 -27.90486,-23.05526 -28.10168,-39.52967c-0.22142,-18.53406 21.80405,-35.9218 28.10168,-37.84359z" fill="url(#color-11)" stroke="#765636" stroke-width="1" stroke-linecap="round"/><path d="M83.56332,294.53032c0,0 -2.72523,5.99274 -4.63535,8.88504c-6.76734,10.24711 -35.05699,17.40209 -45.45521,12.92677c-5.48655,-2.36137 -19.06662,-16.62463 -19.06662,-16.62463z" fill="url(#color-12)" stroke="#765636" stroke-width="0" stroke-linecap="round"/><path d="M82.71116,259.89144c0,0 3.37491,10.07364 3.89264,15.03346c0.00975,0.09337 -20.56684,0.89033 -40.0463,1.47573c-19.91883,0.59859 -39.89035,0.89889 -40.44029,0.89889c0.32735,-6.05752 5.35976,-16.70651 5.35976,-16.70651z" fill="url(#color-13)" stroke="#765636" stroke-width="0" stroke-linecap="butt"/><path d="M86.05464,287.2724l-76.52653,3.64034c0,0 -3.37434,-8.94936 -3.42692,-13.35094c-0.00133,-0.11066 -0.00072,-0.22311 0.00172,-0.33722c1.09251,0 78.19253,-2.35969 80.55638,-2.39139c0.29879,4.47821 -0.60465,12.43921 -0.60465,12.43921z" fill="url(#color-14)" stroke="#765636" stroke-width="0" stroke-linecap="butt"/><path d="M36.42351,246.76203c6.51709,-1.98875 28.13265,-0.1701 35.13806,8.89958c9.29991,12.04032 11.24438,29.25521 1.68785,43.8842c-5.48261,8.39272 -28.4017,14.25288 -36.82591,10.58745c-8.37038,-3.642 -22.855,-18.88301 -23.01618,-32.3761c-0.18136,-15.18001 17.85824,-29.42114 23.01619,-30.99513z" fill="url(#color-15)" stroke="#bf7d2f" stroke-width="0.5" stroke-linecap="round"/><path d="M75.9508,281.9346c0,14.36548 -11.78472,26.01101 -26.3219,26.01101c-14.53718,0 -26.32189,-11.64553 -26.32189,-26.01101c0,-14.36548 11.78472,-26.01101 26.3219,-26.01101c14.53718,0 26.3219,11.64553 26.3219,26.01101z" fill="url(#color-16)" stroke="none" stroke-width="0" stroke-linecap="butt"/><path d="M33.86086,258.06579c0.20332,-1.31083 0.35969,-5.13389 5.39242,-2.49894c5.03273,2.63495 6.86017,3.77885 12.2316,7.89136c5.37143,4.11251 12.05111,10.48985 13.02074,11.44247c0.96963,0.95263 3.53192,2.71829 0.39457,6.57613c-3.13734,3.85782 -3.02826,4.13003 -8.94354,9.07507c-5.91528,4.94505 -14.49488,10.75885 -15.91424,11.70553c-1.41936,0.94666 -5.05998,3.16346 -5.91851,-1.57827c-1.54418,-8.52855 -2.18623,-14.05166 -2.23588,-22.0958c-0.04965,-8.04414 1.76952,-19.2067 1.97284,-20.51754z" fill="url(#color-17)" stroke="#000000" stroke-width="0" stroke-linecap="round"/><path d="M39.80564,256.88223c4.75183,2.48788 6.47729,3.56795 11.54893,7.45093c5.07164,3.88298 11.37852,9.90438 12.29402,10.80383c0.91551,0.89946 3.33479,2.5666 0.37254,6.2091c-2.96225,3.64251 -2.85926,3.89952 -8.44438,8.56856c-5.58513,4.66904 -13.6859,10.15838 -15.02603,11.05222c-1.34014,0.89383 -4.77757,2.98689 -5.58819,-1.49019c-1.45799,-8.05253 -2.06421,-13.26741 -2.1111,-20.86258c-0.04689,-7.59519 1.67077,-18.13473 1.86274,-19.37239c0.19197,-1.23767 0.33962,-4.84734 5.09146,-2.35946z" fill="url(#color-18)" stroke="#000000" stroke-width="0" stroke-linecap="round"/><path d="M27.17058,256.36555c15.04766,-13.1006 27.19965,-3.74689 27.19965,-3.74689c0,0 -17.67094,-0.00801 -24.8405,5.41217c-7.16956,5.42018 -9.85293,20.81606 -9.85293,20.81606c0,0 -4.33639,-12.18191 7.49378,-22.48133z" fill="#1fd900" stroke="#000000" stroke-width="0" stroke-linecap="round"/><path d="M19.67679,278.21405c0,0 1.5339,-14.7171 9.99171,-20.12219c13.87282,-8.86562 24.97927,-4.7183 24.97927,-4.7183c0,0 2.8262,2.04658 1.52652,2.91425c-3.65923,2.44292 -16.67224,3.07403 -22.89767,9.02029c-6.22542,5.94626 -4.37241,18.86445 -8.04886,20.5385c-1.86323,0.84841 -3.09526,-1.72336 -4.16322,-3.19179c-1.06796,-1.46843 -1.38773,-4.44076 -1.38773,-4.44076z" fill="url(#color-19)" stroke="#000000" stroke-width="0" stroke-linecap="round"/><path d="M40.9874,260.05848c4.09643,2.14474 5.58389,3.07583 9.95602,6.42324c4.37212,3.3474 9.80911,8.5383 10.59834,9.3137c0.78923,0.7754 2.87482,2.21259 0.32117,5.3527c-2.55367,3.14011 -2.46489,3.36166 -7.27968,7.38672c-4.81477,4.02507 -11.79822,8.75725 -12.95353,9.52781c-1.1553,0.77053 -4.11861,2.57491 -4.81742,-1.28465c-1.2569,-6.94187 -1.77951,-11.43747 -1.81992,-17.98507c-0.04042,-6.5476 1.44032,-15.63346 1.60581,-16.70042c0.16549,-1.06696 0.29279,-4.17877 4.38922,-2.03403z" fill="#ffffff" stroke="#ddfd89" stroke-width="0.5" stroke-linecap="round"/><path d="M34.20286,239.71822c7.95706,-2.42819 34.66086,0.26069 43.21412,11.33434c10.51322,11.00997 8.47931,29.13912 8.47931,29.13912c0,0 -2.17373,-22.16749 -9.52257,-28.9802c-4.7648,-4.41716 -10.55334,-7.29661 -17.2566,-9.23059c-10.49567,-3.02813 -22.81083,-1.95058 -25.58867,-0.65239c-11.93601,5.57815 -24.61868,20.63558 -25.98044,35.79312c-0.26533,2.9534 -1.13041,4.09769 -1.13041,4.09769c0,0 -0.30195,-2.44768 -0.31641,-3.65749c-0.22142,-18.53406 21.80405,-35.9218 28.10168,-37.84359z" fill="url(#color-20)" stroke="#765636" stroke-width="0" stroke-linecap="round"/><path d="M36.42351,246.76203c6.51709,-1.98875 28.13265,-0.1701 35.13806,8.89958c4.37615,5.66566 7.65435,19.46962 7.65435,19.46962c0,0 -3.96478,-11.43507 -11.07296,-17.01464c-9.71339,-7.62455 -25.13539,-9.83933 -30.59399,-7.76197c-16.40395,6.24281 -17.72916,15.56602 -18.8834,26.46156c-0.99035,9.34853 1.19385,17.6772 1.19385,17.6772c0,0 -6.38326,-10.97361 -6.45209,-16.73623c-0.18136,-15.18001 17.85824,-29.42114 23.01619,-30.99514z" fill="#08b701" stroke="#bf7d2f" stroke-width="0" stroke-linecap="round"/></g><g stroke-linecap="round"><path d="M24.29132,307.77927c0,0 12.90279,-3.62714 13.54852,6.10487c0.34763,5.23951 -7.2601,5.43721 -7.2601,5.43721l-0.32573,5.48967l-6.03287,0.19294l0.0702,-17.2247z" fill="#fefefe" stroke="#54361b" stroke-width="1"/><path d="M30.0952,311.64877c0,0 3.07258,0.60825 2.69883,2.37917c-0.29987,1.42086 -2.6175,1.31932 -2.6175,1.31932l-0.08132,-3.69849z" fill="#472d1d" stroke="#54361b" stroke-width="0"/><path d="M44.89243,307.5143l-1.04913,9.29229l6.3697,-0.3747l0.14988,6.89427l-12.51461,0.22481l0.29975,-16.2615z" fill="#fefefe" stroke="#57413b" stroke-width="1"/><path d="M53.66015,324.3753h-6.29477l4.42133,-16.41136l6.5196,-0.29975l4.72108,15.66199l-6.36971,0.44963l-0.59951,-2.69775l-1.64862,0.22481z" fill="#fefefe" stroke="#3d2212" stroke-width="1"/><path d="M60.55442,308.48849l6.06996,-0.14988l1.04913,3.52207l2.17319,-3.44715h6.1449l-5.32059,8.69279l-0.97419,8.16823l-5.84515,-0.3747l0.07494,-8.39303z" fill="#fefefe" stroke="#3d2212" stroke-width="1"/><path d="M55.1589,314.40857l0.67444,2.69776l-1.49876,-0.07494z" fill="#3b1f0f" stroke="#000000" stroke-width="0"/></g></g></g></svg>