<svg version="1.1" xmlns="http://www.w3.org/2000/svg" xmlns:xlink="http://www.w3.org/1999/xlink" width="93.41898" height="119.06248" viewBox="0,0,93.41898,119.06248"><defs><linearGradient x1="233.59039" y1="201.63795" x2="233.32933" y2="208.86757" gradientUnits="userSpaceOnUse" id="color-1"><stop offset="0" stop-color="#d7bba0"/><stop offset="1" stop-color="#edd5b9"/></linearGradient><linearGradient x1="243.21407" y1="202.42419" x2="242.96882" y2="209.21566" gradientUnits="userSpaceOnUse" id="color-2"><stop offset="0" stop-color="#d7bba0"/><stop offset="1" stop-color="#edd5b9"/></linearGradient><linearGradient x1="239.59103" y1="193.40907" x2="239.06099" y2="208.08741" gradientUnits="userSpaceOnUse" id="color-3"><stop offset="0" stop-color="#fffbf7"/><stop offset="1" stop-color="#e8e0be"/></linearGradient><linearGradient x1="262.55269" y1="191.07886" x2="262.06516" y2="204.57971" gradientUnits="userSpaceOnUse" id="color-4"><stop offset="0" stop-color="#970002"/><stop offset="1" stop-color="#c00202"/></linearGradient><linearGradient x1="217.66836" y1="189.45796" x2="217.18083" y2="202.95885" gradientUnits="userSpaceOnUse" id="color-5"><stop offset="0" stop-color="#970002"/><stop offset="1" stop-color="#c00202"/></linearGradient><linearGradient x1="240.59633" y1="121.62965" x2="239.27358" y2="158.25973" gradientUnits="userSpaceOnUse" id="color-6"><stop offset="0" stop-color="#e20202"/><stop offset="1" stop-color="#f20000"/></linearGradient><linearGradient x1="215.77014" y1="174.57727" x2="202.1726" y2="174.08625" gradientUnits="userSpaceOnUse" id="color-7"><stop offset="0" stop-color="#b60202"/><stop offset="1" stop-color="#d40202"/></linearGradient><linearGradient x1="261.55774" y1="176.23071" x2="275.15524" y2="176.72173" gradientUnits="userSpaceOnUse" id="color-8"><stop offset="0" stop-color="#b60202"/><stop offset="1" stop-color="#d40202"/></linearGradient></defs><g transform="translate(-193.29051,-120.34376)"><g data-paper-data="{&quot;isPaintingLayer&quot;:true}" fill-rule="nonzero" stroke-linejoin="miter" stroke-miterlimit="10" stroke-dasharray="" stroke-dashoffset="0" style="mix-blend-mode: normal"><path d="M221.3363,196.45167l4.3799,1.82533l0.42471,3.62757" fill="none" stroke="#692206" stroke-width="0.5" stroke-linecap="round"/><path d="M251.47844,197.08078l4.42997,16.23283l-7.95358,5.42432l-5.69048,-2.95479l-0.78509,-7.58719l-5.33927,-0.4684l-1.90971,9.95409l-6.34415,1.48097l-5.11117,-5.91211l5.00662,-17.68389c0,0 6.1718,2.717 11.1351,2.61668c4.96326,-0.10031 12.56171,-1.10248 12.56171,-1.10248z" data-paper-data="{&quot;index&quot;:null}" fill="#d88e33" stroke="#95210d" stroke-width="0.5" stroke-linecap="round"/><path d="M252.5733,213.73859l-1.14218,-4.9076" data-paper-data="{&quot;index&quot;:null}" fill="none" stroke="#bd6914" stroke-width="0.25" stroke-linecap="round"/><path d="M247.54058,216.37088l-1.21832,-5.23466" data-paper-data="{&quot;index&quot;:null}" fill="none" stroke="#bd6914" stroke-width="0.25" stroke-linecap="round"/><path d="M224.30901,189.32765l30.16982,0.61182l-2.94729,16.8507l-12.2848,2.4899l-11.2852,-3.34104z" fill="#780000" stroke="#692206" stroke-width="0" stroke-linecap="butt"/><path d="M236.80541,203.72836l-0.40894,5.25l-6.27421,-2.42024l0.83918,-5.01511" fill="url(#color-1)" stroke="#000000" stroke-width="0" stroke-linecap="round"/><path d="M246.0621,202.52704l-0.62802,5.24209l-5.31329,1.34368l0.6201,-5.02301" fill="url(#color-2)" stroke="#000000" stroke-width="0" stroke-linecap="round"/><path d="M227.16515,193.46718l-0.13709,3.79613l11.98976,5.09634l12.30585,-3.71222l0.42431,-4.79936l0.75196,0.02716l0.53857,6.81219l-14.17176,4.97991l-13.44684,-5.57258l0.4554,-5.66058z" fill="url(#color-3)" stroke="#000000" stroke-width="0" stroke-linecap="round"/><path d="M230.28244,217.00701l1.43032,-5.52884" data-paper-data="{&quot;index&quot;:null}" fill="none" stroke="#bd6914" stroke-width="0.25" stroke-linecap="round"/><path d="M227.14458,210.44482l-1.09379,4.22793" data-paper-data="{&quot;index&quot;:null}" fill="none" stroke="#bd6914" stroke-width="0.25" stroke-linecap="round"/><path d="M266.37746,192.08932l6.35956,12.41366l-3.22729,19.84575l-5.49939,-0.13974l-1.13008,-6.04238l-2.39985,2.41535l-4.54067,-3.82641l0.55057,-8.89838l-2.99481,-12.56069" fill="#a6521b" stroke="#95210d" stroke-width="0.5" stroke-linecap="round"/><path d="M269.96654,131.87754c0,0 7.00539,2.21011 8.33587,3.67042c1.05241,1.15509 5.9078,14.06163 -0.44546,15.84099c-3.94075,1.10366 -4.00754,-7.65834 -5.44009,-9.83221c-1.58234,-2.40111 -4.86577,-2.3029 -4.86577,-2.3029" fill="#c90202" stroke="#95210d" stroke-width="0.5" stroke-linecap="round"/><path d="M268.79035,223.42527l-4.01371,-0.46216l-1.23205,-6.78292l-3.82229,2.83571l-2.60269,-3.22427l-0.07599,-8.76717l3.58518,0.96593l2.25405,-2.87479l3.06137,1.33934l2.75804,-3.0101l2.74413,0.55994z" fill="#df9431" stroke="#692206" stroke-width="0" stroke-linecap="round"/><path d="M264.78837,191.15959l6.56035,11.35345l-13.66552,1.90847l-4.41848,-11.15387" fill="url(#color-4)" stroke="#174752" stroke-width="0" stroke-linecap="round"/><path d="M226.39775,194.31786l-3.89298,12.31197l-0.09269,8.91495l-4.80483,3.48899l-2.21942,-2.58216l-1.56297,5.94514l-5.49514,-0.25729l-1.78745,-20.02684l7.23836,-11.92262" data-paper-data="{&quot;index&quot;:null}" fill="#a6521b" stroke="#95210d" stroke-width="0.5" stroke-linecap="round"/><path d="M226.77427,192.31097l-4.55426,10.82984l-14.14949,-2.91288l7.36216,-10.8507" data-paper-data="{&quot;index&quot;:null}" fill="url(#color-5)" stroke="#174752" stroke-width="0" stroke-linecap="round"/><path d="M201.00386,164.01716c0,0 -1.58337,-25.46918 1.1497,-28.66941c3.40349,-3.98526 8.98522,-14.96627 39.88236,-14.75086c24.90186,0.46339 32.29193,11.98402 34.03428,16.08879c2.82019,6.11505 0.32056,25.63472 0.32056,25.63472c0,0 7.84119,-1.43854 9.43721,3.67385c1.59601,5.11246 0.11667,14.21138 -3.86904,19.0889c-2.89233,3.53954 -7.90538,1.39704 -7.90538,1.39704c0,0 -10.36268,10.27988 -33.25716,11.43874c-17.30606,0.87602 -32.95724,-8.9141 -32.95724,-8.9141c0,0 -4.39748,0.9918 -7.56621,-0.78517c-3.98659,-2.23556 -8.0649,-11.56422 -6.31605,-20.15553c0.6978,-3.42802 7.04699,-4.04704 7.04699,-4.04704z" fill="#d70303" stroke="#95210d" stroke-width="0.5" stroke-linecap="round"/><path d="M274.81119,181.05884l1.9443,-13.03782c0,0 4.57085,-1.20024 5.12151,1.21205c0.55071,2.41228 0.02186,7.69463 -2.22814,11.46039c-2.25005,3.76579 -4.83763,0.36534 -4.83763,0.36534z" data-paper-data="{&quot;index&quot;:null}" fill="#950100" stroke="#9a3d0c" stroke-width="0" stroke-linecap="round"/><path d="M204.9124,182.62484c0,0 -2.55974,3.22266 -4.4665,-0.67932c-1.9068,-3.90195 -2.1463,-9.20433 -1.52139,-11.57416c0.62491,-2.36983 4.80448,-0.87537 4.80448,-0.87537l1.18336,13.1288z" data-paper-data="{&quot;index&quot;:null}" fill="#950100" stroke="#9a3d0c" stroke-width="0" stroke-linecap="round"/><path d="M275.61015,165.12249l-2.42482,18.27232c0,0 -7.20232,13.05064 -32.88461,13.35661c-24.19974,0.28827 -35.52406,-15.92748 -35.52406,-15.92748l0.07863,-11.22992c0,0 0.56786,-5.09397 11.43962,-5.26447c11.38154,-0.17844 39.89231,-0.2248 49.96996,-1.45028c3.72595,-0.45317 9.34537,2.24322 9.34537,2.24322z" fill="#df7928" stroke="#954116" stroke-width="0" stroke-linecap="round"/><path d="M232.62285,187.68127c-2.7016,4.75371 -9.69922,5.87523 -15.62965,2.50491c-5.93043,-3.37037 -8.5479,-9.95616 -5.84622,-14.70995c2.7016,-4.75371 9.69922,-5.87522 15.62965,-2.5049c5.93043,3.37037 8.5479,9.95615 5.84622,14.70995z" fill="#ffffff" stroke="#954116" stroke-width="0" stroke-linecap="butt"/><path d="M230.28736,185.66914c0.03092,2.47483 -1.55684,4.50125 -3.54638,4.52615c-1.98959,0.02489 -3.62756,-1.96123 -3.65848,-4.43605c-0.03092,-2.47483 1.5568,-4.50122 3.54639,-4.52611c1.98959,-0.02489 3.62755,1.96119 3.65847,4.43601z" fill="#3d0a00" stroke="none" stroke-width="0" stroke-linecap="butt"/><path d="M254.02282,172.43454c5.84426,-3.51755 12.86774,-2.57142 15.6874,2.11325c2.81966,4.68467 0.36772,11.3339 -5.47659,14.85149c-5.84427,3.51755 -12.86775,2.57143 -15.68737,-2.11321c-2.81966,-4.68467 -0.36775,-11.33394 5.47656,-14.85157z" data-paper-data="{&quot;index&quot;:null}" fill="#ffffff" stroke="#954116" stroke-width="0" stroke-linecap="butt"/><path d="M254.19833,181.20659c1.98959,-0.02489 3.62756,1.96118 3.65848,4.436c0.03092,2.47483 -1.5568,4.50126 -3.54639,4.52615c-1.98959,0.02489 -3.62752,-1.96118 -3.65848,-4.43601c-0.03092,-2.47483 1.55685,-4.50126 3.54636,-4.52615z" data-paper-data="{&quot;index&quot;:null}" fill="#3d0a00" stroke="none" stroke-width="0" stroke-linecap="butt"/><path d="M239.27358,158.25973c-20.19738,-0.94142 -23.67272,-9.71158 -26.88145,-19.30964c-1.82458,-5.45765 -1.49655,-10.10235 -1.49655,-10.10235c0,0 13.31428,-6.94309 29.70075,-7.21809c17.68193,-0.29673 28.52882,9.15618 28.52882,9.15618c0,0 -0.21586,5.56449 -1.64733,10.1535c-3.01388,9.66181 -8.28194,18.24904 -28.20419,17.32044z" fill="url(#color-6)" stroke="none" stroke-width="0" stroke-linecap="butt"/><path d="M275.23915,174.39821c0,0 -20.8356,7.04165 -34.43694,7.19598c-13.60138,0.15437 -36.16906,-6.39469 -36.16906,-6.39469l-2.77826,-15.39936l73.90164,0.27155z" fill="#d70303" stroke="#000000" stroke-width="0" stroke-linecap="round"/><path d="M210.8249,188.40667c0,0 18.54646,2.32644 28.28689,2.36217c10.06703,0.03693 31.16782,-2.1442 31.16782,-2.1442c0,0 -15.98671,10.03352 -30.37588,10.15569c-21.90172,0.1859 -29.07879,-10.37366 -29.07879,-10.37366z" fill="#c10202" stroke="#000000" stroke-width="0" stroke-linecap="round"/><path d="M266.56781,191.38415c0,0 -17.33367,2.29046 -25.87997,2.62933c-8.42592,0.33409 -25.04181,-0.61016 -25.04181,-0.61016l-5.91947,-5.35778c0,0 20.78232,1.96017 30.9968,1.9051c10.43913,-0.05624 30.9786,-2.2391 30.9786,-2.2391z" fill="#d70202" stroke="#000000" stroke-width="0" stroke-linecap="round"/><path d="M215.15891,191.50486c0,0 -4.82386,-2.15788 -6.93197,-3.45617c-1.5558,-0.95812 -4.54082,-4.46041 -4.54082,-4.46041c0,0 -1.80819,-3.99191 -1.91069,-6.8058c-0.17132,-4.70399 0.97841,-18.79123 0.97841,-18.79123l2.73399,11.25133l4.11521,6.37151l5.55583,15.89074z" fill="url(#color-7)" stroke="#000000" stroke-width="0" stroke-linecap="round"/><path d="M260.94647,193.15826l7.71738,-13.1885l3.5342,-8.3182l3.53841,-11.02483c0,0 2.24328,9.25289 1.74795,13.79606c-0.41623,3.81768 -4.52406,11.66707 -4.52406,11.66707c0,0 -2.93982,3.35448 -4.87905,4.36357c-2.04933,1.06638 -7.13482,2.70488 -7.13482,2.70488z" data-paper-data="{&quot;index&quot;:null}" fill="url(#color-8)" stroke="#000000" stroke-width="0" stroke-linecap="round"/><path d="M219.12938,218.603l8.4631,-5.02948l-4.89928,11.11144l3.4845,14.72127l-9.10579,-9.34965l-11.19075,3.74003l5.32958,-11.39879l-3.25344,-12.88454zM218.03059,226.5543c1.71179,-0.21535 2.92494,-1.77758 2.70959,-3.48942c-0.21535,-1.71179 -1.77758,-2.92494 -3.48942,-2.70958c-1.71179,0.21535 -2.92494,1.77757 -2.70959,3.48941c0.21535,1.71179 1.77758,2.92494 3.48942,2.70959z" fill="#2d3440" stroke="#000000" stroke-width="0" stroke-linecap="round"/><path d="M205.86148,233.9475l8.08231,-6.34504l2.72415,2.4022" fill="#4c546b" stroke="#000000" stroke-width="0" stroke-linecap="round"/><path d="M226.03403,238.99864l-5.75124,-11.06333l2.3622,-3.04202" fill="#4c546b" stroke="#000000" stroke-width="0" stroke-linecap="round"/><path d="M227.24634,213.98078l-7.04966,5.56929l-0.9547,-1.17162" fill="#4c546b" stroke="#000000" stroke-width="0" stroke-linecap="round"/><path d="M208.20645,208.94862l5.53233,10.60649l-2.60113,2.42625" fill="#4c546b" stroke="#000000" stroke-width="0" stroke-linecap="round"/><path d="M207.86545,201.70885l2.77736,-0.36056l2.53375,3.2012l3.15,-1.11504l2.04083,3.02988l3.64551,-0.70482l-1.3678,14.85727l-3.55448,-1.16604l-0.35528,-2.88321l-8.9224,-7.22589l3.36579,11.68598l-2.06489,0.24266z" data-paper-data="{&quot;index&quot;:null}" fill="#df9431" stroke="#692206" stroke-width="0" stroke-linecap="round"/></g></g></svg>