<svg version="1.1" xmlns="http://www.w3.org/2000/svg" xmlns:xlink="http://www.w3.org/1999/xlink" width="103.89314" height="89.86972" viewBox="0,0,103.89314,89.86972"><defs><linearGradient x1="212.65935" y1="205.28598" x2="223.54993" y2="205.28598" gradientUnits="userSpaceOnUse" id="color-1"><stop offset="0" stop-color="#fff021"/><stop offset="1" stop-color="#ffb81e"/></linearGradient><linearGradient x1="213.28566" y1="155.30247" x2="223.77121" y2="155.30247" gradientUnits="userSpaceOnUse" id="color-2"><stop offset="0" stop-color="#fff021"/><stop offset="1" stop-color="#ffb81e"/></linearGradient><linearGradient x1="209.38333" y1="180.34183" x2="231.02984" y2="180.34183" gradientUnits="userSpaceOnUse" id="color-3"><stop offset="0" stop-color="#ffe71e"/><stop offset="1" stop-color="#ffa31e"/></linearGradient></defs><g transform="translate(-158.1355,-135.06407)"><g data-paper-data="{&quot;isPaintingLayer&quot;:true}" fill-rule="nonzero" stroke-linejoin="miter" stroke-miterlimit="10" stroke-dasharray="" stroke-dashoffset="0" style="mix-blend-mode: normal"><path d="M258.75355,171.56715l1.34004,-0.05361l0.16081,1.12562l-1.44725,3.1625l-10.5059,4.28812l-1.50084,-1.60805z" fill="none" stroke="#a34e00" stroke-width="1.75" stroke-linecap="round"/><path d="M246.69319,180.8402l1.12563,-0.96483l10.50591,2.51928l1.98326,2.73368l-0.80402,0.32162l-0.58962,-1.28644l-1.66165,0.42881l-9.54108,-3.48409l-0.80402,1.01842z" fill="none" stroke="#a34e00" stroke-width="1.75" stroke-linecap="round"/><path d="M258.86074,183.78829l1.98326,2.84088l-4.98495,4.44894l-5.41376,-1.28644l-4.87774,-1.98326l0.80402,-5.84258l1.55444,-1.07203l10.1307,3.16249z" fill="none" stroke="#a34e00" stroke-width="1.75" stroke-linecap="round"/><path d="M246.6396,173.44318l6.70019,-5.46737l1.92965,-0.05361l4.50253,3.2161l-0.0536,1.98326l-0.96482,1.60805l-11.04193,4.71693l-0.91123,-1.07203z" fill="none" stroke="#a34e00" stroke-width="1.75" stroke-linecap="round"/><path d="M256.34147,188.23722l2.03686,0.32161" fill="none" stroke="#a34e00" stroke-width="1.75" stroke-linecap="round"/><path d="M259.98638,186.03955h-2.57288" fill="none" stroke="#a34e00" stroke-width="1.75" stroke-linecap="round"/><path d="M257.1455,173.01438l2.25126,-0.1072" fill="none" stroke="#a34e00" stroke-width="1.75" stroke-linecap="round"/><path d="M255.59106,170.76311l2.09045,-0.69682" fill="none" stroke="#a34e00" stroke-width="1.75" stroke-linecap="round"/><path d="M233.77521,179.12493l3.29071,-16.07371l3.09101,-2.31631l5.51339,8.05409l-2.30368,1.37695l-3.64166,1.18676l3.4305,-0.1608l4.88925,-3.36067l3.39185,3.17423l-0.62281,3.76458l-2.88515,1.35889l-1.61397,-1.96412l0.00331,5.22814l0.00831,7.58693l1.94686,-2.64368l2.95275,1.1778l0.56957,4.5199c0,0 -0.86814,0.86712 -1.66672,1.44663c-0.98992,0.71837 -2.05609,1.4137 -2.05609,1.4137l-5.66759,-4.71062l-2.19765,0.42881l-0.64586,0.47969l6.25799,3.93003l-3.36366,5.82194l-2.85982,0.859c0,0 -1.04155,-0.77955 -1.65624,-1.30735c-0.71943,-0.61773 -2.39576,-2.17188 -2.39576,-2.17188z" fill="none" stroke="#a34e00" stroke-width="1.75" stroke-linecap="round"/><path d="M229.05825,169.26228l9.21947,-7.0754l1.67719,3.15976l0.40169,-0.3878l3.01377,5.31195l-2.31861,1.38894l-4.62202,-0.78226l2.54481,8.94431l-4.76394,5.95059l3.53111,5.09132l1.93275,-1.90776l3.51253,2.43718c0,0 -0.54483,2.51241 -0.87963,3.31142c-0.51918,1.23906 -1.93282,3.40077 -1.93282,3.40077l-0.794,-0.75741l-1.97265,1.17318l-2.23318,-2.35498l-5.51243,-1.9791z" fill="none" stroke="#a34e00" stroke-width="1.75" stroke-linecap="round"/><path d="M250.2309,195.68783l3.6449,1.87606l-7.28982,8.25464l-2.62647,-3.3233z" fill="none" stroke="#a34e00" stroke-width="1.75" stroke-linecap="round"/><path d="M243.04829,159.13157l2.73368,-3.1089l5.73537,7.82583l-3.05529,2.30486z" fill="none" stroke="#a34e00" stroke-width="1.75" stroke-linecap="round"/><path d="M234.87788,182.4023l0.16846,-4.63271l4.04308,-1.76885l3.28502,1.93731l-0.08424,4.63271l-3.5377,2.02154z" fill="none" stroke="#a34e00" stroke-width="1.75" stroke-linecap="round"/><path d="M237.9102,178.27498c1.02342,0 1.85309,0.88621 1.85309,1.97942c0,1.09321 -0.82965,1.97943 -1.85309,1.97943c-1.02342,0 -1.85308,-0.88622 -1.85308,-1.97943c0,-1.09321 0.82965,-1.97942 1.85308,-1.97942z" fill="none" stroke="#a34e00" stroke-width="1.75" stroke-linecap="butt"/><path d="M232.18249,189.30925l0.16845,-4.63271l4.04309,-1.76885l3.28502,1.93732l-0.08424,4.6327l-3.5377,2.02154z" fill="none" stroke="#a34e00" stroke-width="1.75" stroke-linecap="round"/><path d="M235.2148,185.18193c1.02342,0 1.85308,0.88622 1.85308,1.97943c0,1.09321 -0.82967,1.97943 -1.85308,1.97943c-1.02342,0 -1.85308,-0.88622 -1.85308,-1.97943c0,-1.09321 0.82966,-1.97943 1.85308,-1.97943z" fill="none" stroke="#a34e00" stroke-width="1.75" stroke-linecap="butt"/><path d="M232.68787,175.74806l0.16845,-4.6327l4.04309,-1.76886l3.28501,1.93732l-0.08423,4.6327l-3.5377,2.02154z" fill="none" stroke="#a34e00" stroke-width="1.75" stroke-linecap="round"/><path d="M235.72018,171.62074c1.02342,0 1.85308,0.88621 1.85308,1.97942c0,1.09321 -0.82965,1.97943 -1.85308,1.97943c-1.02342,0 -1.85308,-0.88622 -1.85308,-1.97943c0,-1.09321 0.82965,-1.97942 1.85308,-1.97942z" fill="none" stroke="#a34e00" stroke-width="1.75" stroke-linecap="butt"/><path d="M228.81324,168.8411l0.16845,-4.63271l4.04309,-1.76885l3.28501,1.93731l-0.08424,4.63271l-3.5377,2.02154z" fill="none" stroke="#a34e00" stroke-width="1.75" stroke-linecap="round"/><path d="M231.84556,164.71378c1.02342,0 1.85309,0.88622 1.85309,1.97943c0,1.09321 -0.82965,1.97943 -1.85309,1.97943c-1.02342,0 -1.85308,-0.88622 -1.85308,-1.97943c0,-1.09321 0.82964,-1.97943 1.85308,-1.97943z" fill="none" stroke="#a34e00" stroke-width="1.75" stroke-linecap="butt"/><path d="M228.72901,195.45811l0.16846,-4.6327l4.04309,-1.76885l3.28501,1.93732l-0.08423,4.6327l-3.5377,2.02154z" fill="none" stroke="#a34e00" stroke-width="1.75" stroke-linecap="round"/><path d="M231.76133,191.33079c1.02342,0 1.85308,0.88623 1.85308,1.97944c0,1.09321 -0.82967,1.97942 -1.85308,1.97942c-1.02342,0 -1.85308,-0.88621 -1.85308,-1.97942c0,-1.09321 0.82965,-1.97944 1.85308,-1.97944z" fill="none" stroke="#a34e00" stroke-width="1.75" stroke-linecap="butt"/><path d="M206.19065,143.4311l-1.97749,-0.71728l1.27599,-6.36599l1.61163,-0.24504z" data-paper-data="{&quot;index&quot;:null}" fill="none" stroke="#a34e00" stroke-width="1.75" stroke-linecap="round"/><path d="M170.26905,180.33245l2.4427,-13.39273l3.285,-9.43387l4.38002,-6.57002l9.68657,-8.33888l10.27619,-2.19l5.30656,2.52693l7.66502,5.72771l1.17924,62.66788l-4.96964,4.8854l-9.68657,4.54847l-11.03426,-2.61116l-6.99117,-6.14887l-6.48579,-9.18118l-3.36924,-10.61311z" fill="none" stroke="#a34e00" stroke-width="1.75" stroke-linecap="round"/><path d="M224.52106,200.32121l1.24861,5.8268l-2.35847,3.67644l-9.15641,2.21973l-3.81517,-0.69367l-1.45671,-8.46274z" fill="none" stroke="#a34e00" stroke-width="1.75" stroke-linecap="round"/><path d="M210.37025,211.28116l-1.17924,-7.35287l4.99441,-1.10987l1.38733,5.82681l-0.97113,3.19087z" fill="none" stroke="#a34e00" stroke-width="1.75" stroke-linecap="round"/><path d="M223.54992,201.22297c0,0 -0.19702,2.90015 -0.1459,3.96094c0.03155,0.65477 -0.86821,2.2865 -1.74406,2.55335c-0.88244,0.26888 -2.78726,1.00912 -4.39067,1.49766c-1.32092,0.40246 -2.73488,-0.34682 -2.94505,-0.90273c-0.38918,-1.02948 -1.66489,-4.26517 -1.66489,-4.26517z" fill="none" stroke="#a34e00" stroke-width="1.75" stroke-linecap="round"/><path d="M209.74595,157.71486l1.40254,-8.51282l3.67328,-0.69777l8.81589,2.23286l2.27075,3.69819l-1.20215,5.86128z" data-paper-data="{&quot;index&quot;:null}" fill="none" stroke="#a34e00" stroke-width="1.75" stroke-linecap="round"/><path d="M215.1557,148.7136l0.93501,3.20974l-1.33574,5.86129l-4.80867,-1.11644l1.13538,-7.39638z" data-paper-data="{&quot;index&quot;:null}" fill="none" stroke="#a34e00" stroke-width="1.75" stroke-linecap="round"/><path d="M213.28566,156.52865c0,0 1.22825,-3.25484 1.60298,-4.29041c0.20235,-0.5592 1.56372,-1.31294 2.83551,-0.90808c1.54379,0.49143 3.37777,1.23605 4.22739,1.50652c0.84326,0.26844 1.70957,1.90981 1.67919,2.56846c-0.04922,1.06707 0.14048,3.98438 0.14048,3.98438z" data-paper-data="{&quot;index&quot;:null}" fill="none" stroke="#a34e00" stroke-width="1.75" stroke-linecap="round"/><path d="M196.88606,201.1375c-8.22269,-5.24705 -7.49657,-21.22621 -7.49657,-21.22621c0,0 0.87977,-17.53839 8.59156,-20.80507c2.53924,-1.07561 10.65474,-4.21228 10.65474,-4.21228l13.43533,2.94882l7.0754,6.65425l3.28502,8.84426l0.08423,14.06658l-3.62193,9.43387l-7.41234,6.99117l-12.63149,1.83321c0,0 -9.74512,-3.11272 -11.96396,-4.5286z" fill="none" stroke="#a34e00" stroke-width="1.75" stroke-linecap="round"/><path d="M188.29449,217.81523l-6.23309,-5.55925l-1.3477,-1.85308l-5.30655,-7.3281l-2.02155,-6.82271l15.49851,-5.64347l8.00195,11.45542l-6.23309,16.08813z" fill="none" stroke="#a34e00" stroke-width="1.75" stroke-linecap="round"/><path d="M189.89489,143.8604l6.99117,15.41428l-8.00194,11.45543l-15.58274,-4.12732l3.03232,-9.18119l5.39078,-7.41233l5.47502,-4.80117z" data-paper-data="{&quot;index&quot;:null}" fill="none" stroke="#a34e00" stroke-width="1.75" stroke-linecap="round"/><path d="M192.08487,199.11596l-5.13809,-19.03621l6.14887,-17.09889l19.12045,9.5181l8.4231,6.99117l-4.54847,8.76003z" fill="none" stroke="#a34e00" stroke-width="1.75" stroke-linecap="round"/><path d="M228.14508,186.82347c0,0 0.28946,9.19144 -4.85428,12.59953c-5.14373,3.40808 -13.29227,2.11648 -14.25998,-1.27011c-2.24989,-8.54754 8.05277,-17.59442 8.05277,-17.59442c0,0 -9.66042,-7.94422 -7.88003,-17.23078c1.23059,-5.40278 11.68901,-3.86692 14.41564,-1.90784c4.01547,2.88511 4.70287,12.68375 4.70287,12.68375c0,0 1.13978,0.1985 1.68132,0.26874c0.54153,0.07023 1.30939,0.85363 1.41587,1.61238c0.08713,0.62082 -0.02618,8.12152 -0.08849,8.7785c-0.07629,0.80448 -0.56627,1.25303 -1.23889,1.61238c-0.67264,0.35935 -1.94683,0.44788 -1.94683,0.44788z" fill="none" stroke="#a34e00" stroke-width="1.75" stroke-linecap="round"/><path d="M189.65446,161.4648c0,0 2.85463,-3.08532 6.82208,-4.50919c3.96745,-1.42387 9.45741,-1.05568 9.45741,-1.05568l6.4839,0.50529l0.89225,1.29942c0,0 -10.4455,0.15424 -13.05034,0.85464c-2.60484,0.7004 -6.67912,4.30397 -6.67912,4.30397z" data-paper-data="{&quot;index&quot;:null}" fill="none" stroke="#a34e00" stroke-width="1.75" stroke-linecap="round"/><path d="M227.88308,186.39707c0,0 0.51606,9.51418 -4.38001,12.71888c-4.89607,3.2047 -12.89278,1.75257 -13.81389,-1.43194c-2.14156,-7.40382 7.66502,-17.09889 7.66502,-17.09889c0,0 -9.35563,-8.49979 -7.58079,-16.67773c1.17133,-5.39718 9.68303,-4.82423 13.56118,-2.19002c3.87815,2.63421 4.71695,12.71888 4.71695,12.71888c0,0 1.08491,0.18666 1.60037,0.25271c0.51547,0.06605 1.24636,0.80269 1.34772,1.51615c0.08293,0.58378 -0.02493,7.63685 -0.08425,8.25464c-0.07263,0.75648 -0.53901,1.17826 -1.17924,1.51615c-0.64024,0.33791 -1.85308,0.42117 -1.85308,0.42117z" fill="none" stroke="#a34e00" stroke-width="1.75" stroke-linecap="round"/><path d="M205.2926,204.01039l3.97009,-0.19655l0.07862,1.57231l-2.90878,1.80816z" fill="none" stroke="#a34e00" stroke-width="1.75" stroke-linecap="round"/><path d="M189.90706,199.35006l-3.88454,-11.8617l0.48558,-14.15081l4.43947,-13.38778l3.7458,1.80354l-3.81516,11.72298l-0.62431,13.04094l3.46834,11.51488z" fill="none" stroke="#a34e00" stroke-width="1.75" stroke-linecap="round"/><path d="M193.65287,197.96274c0,0 3.99984,3.68602 6.58983,4.43947c2.59,0.75346 12.486,1.10987 12.486,1.10987l-6.8673,1.66479c0,0 -5.49633,0.25599 -9.43387,-1.24859c-3.93754,-1.50458 -6.72857,-4.64758 -6.72857,-4.64758z" fill="none" stroke="#a34e00" stroke-width="1.75" stroke-linecap="round"/><path d="M205.33192,215.13448l1.76885,-6.32856l-1.92608,1.72955l0.07862,-2.63363l3.4984,-0.31446l-1.06131,15.68382l-1.41509,0.15722z" fill="none" stroke="#a34e00" stroke-width="1.75" stroke-linecap="round"/><path d="M206.47185,223.90012l-1.61163,-0.23585l-1.13993,-4.99209l1.88678,-1.25786z" fill="none" stroke="#a34e00" stroke-width="1.75" stroke-linecap="round"/><path d="M204.66487,208.78973l-1.07388,-3.94507l0.70932,-0.12941l0.82142,3.14498z" fill="none" stroke="#a34e00" stroke-width="1.75" stroke-linecap="round"/><path d="M208.90892,205.85783l1.72955,0.11792l-1.76885,1.92608h-2.86947z" fill="none" stroke="#a34e00" stroke-width="1.75" stroke-linecap="round"/><path d="M211.34141,206.00929l-1.87289,2.01164l-1.24861,15.81562l-2.21973,0.13873l-0.69368,-8.74022l0.69368,-0.06937l0.62429,7.83844l0.6243,-0.06937l1.17924,-15.33005l1.6648,-1.38734l-0.83239,0.13873l-3.95391,1.94227l-0.13873,2.01165l-0.55494,0.06936l-0.06936,-2.42783l4.09262,-2.42784l0.06937,-1.66481l3.26023,0.13874z" fill="none" stroke="#a34e00" stroke-width="1.75" stroke-linecap="round"/><path d="M206.74398,153.36931l3.22625,1.96938l-0.07862,1.63362l-3.78866,-1.02059z" data-paper-data="{&quot;index&quot;:null}" fill="none" stroke="#a34e00" stroke-width="1.75" stroke-linecap="round"/><path d="M206.90425,136.59288l1.41508,0.16336l1.06131,16.29537l-3.4984,-0.32672l-0.07862,-2.73633l0.15723,-4.77835z" data-paper-data="{&quot;index&quot;:null}" fill="none" stroke="#a34e00" stroke-width="1.75" stroke-linecap="round"/><path d="M205.75066,152.76814l-0.82142,3.26762l-1.07216,-0.13446l2.20776,-12.80708z" data-paper-data="{&quot;index&quot;:null}" fill="none" stroke="#a34e00" stroke-width="1.75" stroke-linecap="round"/><path d="M206.62907,152.7249h2.86946l1.76886,2.00118l-1.72955,0.12252z" data-paper-data="{&quot;index&quot;:null}" fill="none" stroke="#a34e00" stroke-width="1.75" stroke-linecap="round"/><path d="M212.59462,156.78132l-3.26023,0.14415l-0.06936,-1.72971l-4.09262,-2.52251l0.06936,-2.5225l0.55494,0.02671l0.13874,2.13544l3.95391,2.01801l0.8324,0.14414l-1.66481,-1.44142l-1.17923,-15.92782l-0.6243,-0.07208l-1.44069,13.17851l-0.55761,-0.02672l1.37401,-14.1608l2.21973,0.14414l1.24861,16.43232l1.87289,2.09008z" data-paper-data="{&quot;index&quot;:null}" fill="none" stroke="#a34e00" stroke-width="1.75" stroke-linecap="round"/><path d="M223.11923,184.9166l4.36317,1.06131l0.35377,3.41978l-0.23585,2.53535l-0.94339,2.94809l-2.94808,3.00704l-3.89148,0.94339h-1.82781l-3.30185,-0.70754l-1.47405,-2.06366l0.58962,-4.54005l5.36552,-6.13201z" fill="none" stroke="#a34e00" stroke-width="1.75" stroke-linecap="round"/><path d="M223.35507,184.9166l4.36316,1.06131l0.35377,3.41978l-0.23584,2.53535l-0.94339,2.94809l-2.94809,3.00704l-3.89147,0.94339h-1.82781l-3.30186,-0.70754l-1.47404,-2.06366l0.58962,-4.54005l5.36552,-6.13201z" fill="none" stroke="#a34e00" stroke-width="1.75" stroke-linecap="round"/><path d="M219.16879,175.3648l-5.36552,-6.13201l-0.58962,-4.54005l1.47405,-2.06366l3.30185,-0.70754h1.82781l3.89148,0.94339l2.94808,3.00704l0.94339,2.94809l0.23585,2.53535l-0.35377,3.41978l-4.36317,1.06131z" data-paper-data="{&quot;index&quot;:null}" fill="none" stroke="#a34e00" stroke-width="1.75" stroke-linecap="round"/><path d="M219.40464,175.3648l-5.36552,-6.13201l-0.58962,-4.54005l1.47404,-2.06366l3.30186,-0.70754h1.82781l3.89147,0.94339l2.94809,3.00704l0.94339,2.94809l0.23584,2.53535l-0.35377,3.41978l-4.36316,1.06131z" data-paper-data="{&quot;index&quot;:null}" fill="none" stroke="#a34e00" stroke-width="1.75" stroke-linecap="round"/><path d="M183.84379,176.1816l5.68807,-0.76304l16.23182,3.19087v3.9539l-15.46878,2.84403l-6.4511,-0.69366z" fill="none" stroke="#a34e00" stroke-width="1.75" stroke-linecap="round"/><path d="M183.98253,176.52844l19.63079,3.1215v2.2891l-19.97762,2.01163z" fill="none" stroke="#a34e00" stroke-width="1.75" stroke-linecap="round"/><path d="M183.98253,176.25094l18.52091,2.49721l1.52607,-0.06937l0.97114,-0.34683l1.31796,0.48557l-0.13872,3.74581l-22.19735,1.94227l-0.27748,-0.90176l18.79838,-2.21973l0.06937,-1.45669l-18.79837,-2.77468z" fill="none" stroke="#a34e00" stroke-width="1.75" stroke-linecap="round"/><path d="M160.88341,179.37247l23.09912,-2.84404v7.49161l-23.44596,-2.21974z" fill="none" stroke="#a34e00" stroke-width="1.75" stroke-linecap="round"/><path d="M160.74467,182.28587h-1.73416v-3.3296h1.73416z" fill="none" stroke="#a34e00" stroke-width="1.75" stroke-linecap="butt"/><path d="M161.0915,181.52284l22.96039,1.94227l-0.20809,1.17924l-23.72343,-2.35847l0.06936,-3.19087l24.20898,-3.05213l-0.48557,1.38733l-22.61355,2.49721z" fill="none" stroke="#a34e00" stroke-width="1.75" stroke-linecap="round"/><path d="M199.84136,198.14068l-8.35719,4.6144" fill="none" stroke="#a34e00" stroke-width="1.75" stroke-linecap="round"/><path d="M189.07445,198.6534l2.66609,3.84533l-16.25293,12.15123l-0.71779,-1.07669z" fill="none" stroke="#a34e00" stroke-width="1.75" stroke-linecap="round"/><path d="M190.97147,202.1911l-2.15339,-3.02499l0.66653,-0.76906l7.89574,-1.28178l0.3589,1.5894z" fill="none" stroke="#a34e00" stroke-width="1.75" stroke-linecap="round"/><path d="M190.92021,196.08985c0,0 -7.2192,8.386 -10.16696,11.63415c-2.1904,2.41363 -5.93216,6.10564 -5.93216,6.10564l0.56398,1.23051l-1.28178,0.30763l-1.33305,-1.99957l5.74236,-6.7165l1.53814,0.56398l9.22878,-11.12582h1.64068z" fill="none" stroke="#a34e00" stroke-width="1.75" stroke-linecap="round"/><path d="M197.124,197.16653l-8.61354,1.64067l1.99958,-2.8199l7.53684,-0.3589z" fill="none" stroke="#a34e00" stroke-width="1.75" stroke-linecap="round"/><path d="M189.27952,198.85848l-13.89446,14.76606l0.30763,0.51272l15.58641,-11.63852l0.25635,0.56398l-16.35546,12.30505l-1.0767,-1.69194l14.91989,-15.48387z" fill="none" stroke="#a34e00" stroke-width="1.75" stroke-linecap="round"/><path d="M191.02274,202.80633l-0.41017,-0.66651l6.56269,-3.58898l-0.41017,-0.97414l-7.74192,1.43559l-0.30763,-0.92288l8.20337,-1.23051l1.02542,-1.38431l2.25593,2.51228z" fill="none" stroke="#a34e00" stroke-width="1.75" stroke-linecap="round"/><path d="M192.02844,157.56162l8.35719,4.61439" data-paper-data="{&quot;index&quot;:null}" fill="none" stroke="#a34e00" stroke-width="1.75" stroke-linecap="round"/><path d="M175.31408,146.74342l0.7178,-1.0767l16.25292,12.15124l-2.66609,3.84533z" data-paper-data="{&quot;index&quot;:null}" fill="none" stroke="#a34e00" stroke-width="1.75" stroke-linecap="round"/><path d="M198.28351,161.61203l-0.3589,1.5894l-7.89574,-1.28177l-0.66653,-0.76906l2.15339,-3.025z" data-paper-data="{&quot;index&quot;:null}" fill="none" stroke="#a34e00" stroke-width="1.75" stroke-linecap="round"/><path d="M191.46446,164.22685h-1.64067l-9.22879,-11.12583l-1.53813,0.56399l-5.74235,-6.71651l1.33305,-1.99957l1.28177,0.30763l-0.56399,1.2305c0,0 3.74176,3.692 5.93216,6.10565c2.94776,3.24815 10.16696,11.63415 10.16696,11.63415z" data-paper-data="{&quot;index&quot;:null}" fill="none" stroke="#a34e00" stroke-width="1.75" stroke-linecap="round"/><path d="M198.59114,164.68829l-7.53686,-0.3589l-1.99956,-2.81992l8.61354,1.64068z" data-paper-data="{&quot;index&quot;:null}" fill="none" stroke="#a34e00" stroke-width="1.75" stroke-linecap="round"/><path d="M189.56744,162.12473l-14.91987,-15.48385l1.07669,-1.69195l16.35547,12.30505l-0.25635,0.56398l-15.5864,-11.63852l-0.30763,0.51271l13.89446,14.76606z" data-paper-data="{&quot;index&quot;:null}" fill="none" stroke="#a34e00" stroke-width="1.75" stroke-linecap="round"/><path d="M200.74452,162.32982l-2.25593,2.51228l-1.02541,-1.38431l-8.20337,-1.23051l0.30763,-0.92288l7.74193,1.43559l0.41017,-0.97415l-6.56269,-3.58898l0.41017,-0.66652z" data-paper-data="{&quot;index&quot;:null}" fill="none" stroke="#a34e00" stroke-width="1.75" stroke-linecap="round"/><path d="M241.92266,187.75481l3.59131,-7.77223l-2.78729,-8.25464l2.14406,-1.23284l2.25126,2.84088l0.05361,12.70358l-2.41207,3.3769z" fill="none" stroke="#a34e00" stroke-width="1.75" stroke-linecap="round"/><path d="M244.01311,203.19204l-4.44894,-3.5913l1.01843,-0.91123l0.48241,0.2144l4.60974,-6.05698l4.93134,2.68008l-6.27138,7.55782" fill="none" stroke="#a34e00" stroke-width="1.75" stroke-linecap="round"/><path d="M240.47541,163.7413l-1.12563,-2.68008l3.85931,-2.57287l5.57456,7.61142l-3.48409,2.78728l-4.50252,-5.09215z" fill="none" stroke="#a34e00" stroke-width="1.75" stroke-linecap="round"/><path d="M259.13641,202.37909l1.85308,0.95462l-1.85308,6.45771l-6.51387,2.02155l-3.76233,-3.48155z" fill="none" stroke="#a34e00" stroke-width="1.75" stroke-linecap="round"/><path d="M253.24024,197.54983l2.80771,2.52694l-1.85309,2.30231l-2.13386,6.00848l-2.63923,-0.39308l-2.47078,1.23539l-2.75155,-1.06692z" fill="none" stroke="#a34e00" stroke-width="1.75" stroke-linecap="round"/><path d="M253.07179,202.4914l2.86386,-2.75154l3.5377,2.75154l-2.24615,5.6154l-5.11003,0.22462z" fill="none" stroke="#a34e00" stroke-width="1.75" stroke-linecap="round"/><path d="M253.18409,207.26449l3.36923,0.67385l0.95463,1.34769l0.28076,0.56154" fill="none" stroke="#a34e00" stroke-width="1.75" stroke-linecap="round"/><path d="M255.31793,203.9514l1.9654,0.89847l2.30232,2.80771" fill="none" stroke="#a34e00" stroke-width="1.75" stroke-linecap="round"/><path d="M249.86697,152.42578l3.43944,-1.74204l1.87605,0.04467l4.15413,2.72475l-0.40201,7.37022l-3.39477,1.2507z" fill="none" stroke="#a34e00" stroke-width="1.75" stroke-linecap="round"/><path d="M245.75753,156.35657l-0.98269,-5.67283l3.03743,-0.08934l2.18873,2.18873l5.0028,9.11226l-3.4841,2.14406z" fill="none" stroke="#a34e00" stroke-width="1.75" stroke-linecap="round"/><path d="M252.59173,160.68937l0.22333,-2.72475l-3.08209,-5.31549l3.66277,0.04467l3.26076,1.60805l0.31268,5.53883l-0.22334,1.02737l-3.57343,2.18873z" fill="none" stroke="#a34e00" stroke-width="1.75" stroke-linecap="round"/><path d="M259.24871,155.54665l-2.63924,1.40384l-0.56154,0.61769l-2.07769,0.44923" fill="none" stroke="#a34e00" stroke-width="1.75" stroke-linecap="round"/><path d="M257.95718,152.7951l-1.90922,1.06692l-3.36925,0.39308" fill="none" stroke="#a34e00" stroke-width="1.75" stroke-linecap="round"/><path d="M258.75355,171.56715l1.34004,-0.05361l0.16081,1.12562l-1.44725,3.1625l-10.5059,4.28812l-1.50084,-1.60805z" fill="#e8931b" stroke="#000000" stroke-width="0" stroke-linecap="round"/><path d="M246.69319,180.8402l1.12563,-0.96483l10.50591,2.51928l1.98326,2.73368l-0.80402,0.32162l-0.58962,-1.28644l-1.66165,0.42881l-9.54108,-3.48409l-0.80402,1.01842z" fill="#e9941c" stroke="#000000" stroke-width="0" stroke-linecap="round"/><path d="M258.86074,183.78829l1.98326,2.84088l-4.98495,4.44894l-5.41376,-1.28644l-4.87774,-1.98326l0.80402,-5.84258l1.55444,-1.07203l10.1307,3.16249z" fill="#ffa21e" stroke="#000000" stroke-width="0" stroke-linecap="round"/><path d="M246.6396,173.44318l6.70019,-5.46737l1.92965,-0.05361l4.50253,3.2161l-0.0536,1.98326l-0.96482,1.60805l-11.04193,4.71693l-0.91123,-1.07203z" fill="#ffa21e" stroke="#000000" stroke-width="0" stroke-linecap="round"/><path d="M256.34147,188.23722l2.03686,0.32161" fill="none" stroke="#c57e1b" stroke-width="0.25" stroke-linecap="round"/><path d="M259.98638,186.03955h-2.57288" fill="none" stroke="#c57e1b" stroke-width="0.25" stroke-linecap="round"/><path d="M257.1455,173.01438l2.25126,-0.1072" fill="none" stroke="#c57e1b" stroke-width="0.25" stroke-linecap="round"/><path d="M255.59106,170.76311l2.09045,-0.69682" fill="none" stroke="#c57e1b" stroke-width="0.25" stroke-linecap="round"/><path d="M233.77521,179.12493l3.29071,-16.07371l3.09101,-2.31631l5.51339,8.05409l-2.30368,1.37695l-3.64166,1.18676l3.4305,-0.1608l4.88925,-3.36067l3.39185,3.17423l-0.62281,3.76458l-2.88515,1.35889l-1.61397,-1.96412l0.00331,5.22814l0.00831,7.58693l1.94686,-2.64368l2.95275,1.1778l0.56957,4.5199c0,0 -0.86814,0.86712 -1.66672,1.44663c-0.98992,0.71837 -2.05609,1.4137 -2.05609,1.4137l-5.66759,-4.71062l-2.19765,0.42881l-0.64586,0.47969l6.25799,3.93003l-3.36366,5.82194l-2.85982,0.859c0,0 -1.04155,-0.77955 -1.65624,-1.30735c-0.71943,-0.61773 -2.39576,-2.17188 -2.39576,-2.17188z" fill="#fff7d7" stroke="#000000" stroke-width="0" stroke-linecap="round"/><path d="M229.05825,169.26228l9.21947,-7.0754l1.67719,3.15976l0.40169,-0.3878l3.01377,5.31195l-2.31861,1.38894l-4.62202,-0.78226l2.54481,8.94431l-4.76394,5.95059l3.53111,5.09132l1.93275,-1.90776l3.51253,2.43718c0,0 -0.54483,2.51241 -0.87963,3.31142c-0.51918,1.23906 -1.93282,3.40077 -1.93282,3.40077l-0.794,-0.75741l-1.97265,1.17318l-2.23318,-2.35498l-5.51243,-1.9791z" fill="#ffd56e" stroke="#000000" stroke-width="0" stroke-linecap="round"/><path d="M250.2309,195.68783l3.6449,1.87606l-7.28982,8.25464l-2.62647,-3.3233z" fill="#f48d08" stroke="#000000" stroke-width="0" stroke-linecap="round"/><path d="M243.04829,159.13157l2.73368,-3.1089l5.73537,7.82583l-3.05529,2.30486z" fill="#f48d08" stroke="#000000" stroke-width="0" stroke-linecap="round"/><path d="M234.87788,182.4023l0.16846,-4.63271l4.04308,-1.76885l3.28502,1.93731l-0.08424,4.63271l-3.5377,2.02154z" fill="#f77e00" stroke="#000000" stroke-width="0" stroke-linecap="round"/><path d="M237.9102,178.27498c1.02342,0 1.85309,0.88621 1.85309,1.97942c0,1.09321 -0.82965,1.97943 -1.85309,1.97943c-1.02342,0 -1.85308,-0.88622 -1.85308,-1.97943c0,-1.09321 0.82965,-1.97942 1.85308,-1.97942z" fill="#ffff14" stroke="#000000" stroke-width="0" stroke-linecap="butt"/><path d="M232.18249,189.30925l0.16845,-4.63271l4.04309,-1.76885l3.28502,1.93732l-0.08424,4.6327l-3.5377,2.02154z" fill="#f77e00" stroke="#000000" stroke-width="0" stroke-linecap="round"/><path d="M235.2148,185.18193c1.02342,0 1.85308,0.88622 1.85308,1.97943c0,1.09321 -0.82967,1.97943 -1.85308,1.97943c-1.02342,0 -1.85308,-0.88622 -1.85308,-1.97943c0,-1.09321 0.82966,-1.97943 1.85308,-1.97943z" fill="#ffff14" stroke="#000000" stroke-width="0" stroke-linecap="butt"/><path d="M232.68787,175.74806l0.16845,-4.6327l4.04309,-1.76886l3.28501,1.93732l-0.08423,4.6327l-3.5377,2.02154z" fill="#f77e00" stroke="#000000" stroke-width="0" stroke-linecap="round"/><path d="M235.72018,171.62074c1.02342,0 1.85308,0.88621 1.85308,1.97942c0,1.09321 -0.82965,1.97943 -1.85308,1.97943c-1.02342,0 -1.85308,-0.88622 -1.85308,-1.97943c0,-1.09321 0.82965,-1.97942 1.85308,-1.97942z" fill="#ffff14" stroke="#000000" stroke-width="0" stroke-linecap="butt"/><path d="M228.81324,168.8411l0.16845,-4.63271l4.04309,-1.76885l3.28501,1.93731l-0.08424,4.63271l-3.5377,2.02154z" fill="#f77e00" stroke="#000000" stroke-width="0" stroke-linecap="round"/><path d="M231.84556,164.71378c1.02342,0 1.85309,0.88622 1.85309,1.97943c0,1.09321 -0.82965,1.97943 -1.85309,1.97943c-1.02342,0 -1.85308,-0.88622 -1.85308,-1.97943c0,-1.09321 0.82964,-1.97943 1.85308,-1.97943z" fill="#ffff14" stroke="#000000" stroke-width="0" stroke-linecap="butt"/><path d="M228.72901,195.45811l0.16846,-4.6327l4.04309,-1.76885l3.28501,1.93732l-0.08423,4.6327l-3.5377,2.02154z" fill="#f77e00" stroke="#000000" stroke-width="0" stroke-linecap="round"/><path d="M231.76133,191.33079c1.02342,0 1.85308,0.88623 1.85308,1.97944c0,1.09321 -0.82967,1.97942 -1.85308,1.97942c-1.02342,0 -1.85308,-0.88621 -1.85308,-1.97942c0,-1.09321 0.82965,-1.97944 1.85308,-1.97944z" fill="#ffff14" stroke="#000000" stroke-width="0" stroke-linecap="butt"/><path d="M206.19065,143.4311l-1.97749,-0.71728l1.27599,-6.36599l1.61163,-0.24504z" data-paper-data="{&quot;index&quot;:null}" fill="#ffe300" stroke="#000000" stroke-width="0" stroke-linecap="round"/><path d="M170.26905,180.33245l2.4427,-13.39273l3.285,-9.43387l4.38002,-6.57002l9.68657,-8.33888l10.27619,-2.19l5.30656,2.52693l7.66502,5.72771l1.17924,62.66788l-4.96964,4.8854l-9.68657,4.54847l-11.03426,-2.61116l-6.99117,-6.14887l-6.48579,-9.18118l-3.36924,-10.61311z" fill="#ffc200" stroke="#000000" stroke-width="0" stroke-linecap="round"/><path d="M224.52106,200.32121l1.24861,5.8268l-2.35847,3.67644l-9.15641,2.21973l-3.81517,-0.69367l-1.45671,-8.46274z" fill="#ffec8a" stroke="#000000" stroke-width="0" stroke-linecap="round"/><path d="M210.37025,211.28116l-1.17924,-7.35287l4.99441,-1.10987l1.38733,5.82681l-0.97113,3.19087z" fill="#ffffff" stroke="#000000" stroke-width="0" stroke-linecap="round"/><path d="M223.54992,201.22297c0,0 -0.19702,2.90015 -0.1459,3.96094c0.03155,0.65477 -0.86821,2.2865 -1.74406,2.55335c-0.88244,0.26888 -2.78726,1.00912 -4.39067,1.49766c-1.32092,0.40246 -2.73488,-0.34682 -2.94505,-0.90273c-0.38918,-1.02948 -1.66489,-4.26517 -1.66489,-4.26517z" fill="url(#color-1)" stroke="#ffe000" stroke-width="0.5" stroke-linecap="round"/><path d="M209.74595,157.71486l1.40254,-8.51282l3.67328,-0.69777l8.81589,2.23286l2.27075,3.69819l-1.20215,5.86128z" data-paper-data="{&quot;index&quot;:null}" fill="#ffec8a" stroke="#000000" stroke-width="0" stroke-linecap="round"/><path d="M215.1557,148.7136l0.93501,3.20974l-1.33574,5.86129l-4.80867,-1.11644l1.13538,-7.39638z" data-paper-data="{&quot;index&quot;:null}" fill="#ffffff" stroke="#000000" stroke-width="0" stroke-linecap="round"/><path d="M213.28566,156.52865c0,0 1.22825,-3.25484 1.60298,-4.29041c0.20235,-0.5592 1.56372,-1.31294 2.83551,-0.90808c1.54379,0.49143 3.37777,1.23605 4.22739,1.50652c0.84326,0.26844 1.70957,1.90981 1.67919,2.56846c-0.04922,1.06707 0.14048,3.98438 0.14048,3.98438z" data-paper-data="{&quot;index&quot;:null}" fill="url(#color-2)" stroke="#ffe000" stroke-width="0.5" stroke-linecap="round"/><path d="M196.88606,201.1375c-8.22269,-5.24705 -7.49657,-21.22621 -7.49657,-21.22621c0,0 0.87977,-17.53839 8.59156,-20.80507c2.53924,-1.07561 10.65474,-4.21228 10.65474,-4.21228l13.43533,2.94882l7.0754,6.65425l3.28502,8.84426l0.08423,14.06658l-3.62193,9.43387l-7.41234,6.99117l-12.63149,1.83321c0,0 -9.74512,-3.11272 -11.96396,-4.5286z" fill="#fff7d7" stroke="#000000" stroke-width="0" stroke-linecap="round"/><path d="M188.29449,217.81523l-6.23309,-5.55925l-1.3477,-1.85308l-5.30655,-7.3281l-2.02155,-6.82271l15.49851,-5.64347l8.00195,11.45542l-6.23309,16.08813z" fill="#fffe54" stroke="#000000" stroke-width="0" stroke-linecap="round"/><path d="M189.89489,143.8604l6.99117,15.41428l-8.00194,11.45543l-15.58274,-4.12732l3.03232,-9.18119l5.39078,-7.41233l5.47502,-4.80117z" data-paper-data="{&quot;index&quot;:null}" fill="#fffe54" stroke="#000000" stroke-width="0" stroke-linecap="round"/><path d="M192.08487,199.11596l-5.13809,-19.03621l6.14887,-17.09889l19.12045,9.5181l8.4231,6.99117l-4.54847,8.76003z" fill="#ffffff" stroke="#000000" stroke-width="0" stroke-linecap="round"/><path d="M228.14508,186.82347c0,0 0.28946,9.19144 -4.85428,12.59953c-5.14373,3.40808 -13.29227,2.11648 -14.25998,-1.27011c-2.24989,-8.54754 8.05277,-17.59442 8.05277,-17.59442c0,0 -9.66042,-7.94422 -7.88003,-17.23078c1.23059,-5.40278 11.68901,-3.86692 14.41564,-1.90784c4.01547,2.88511 4.70287,12.68375 4.70287,12.68375c0,0 1.13978,0.1985 1.68132,0.26874c0.54153,0.07023 1.30939,0.85363 1.41587,1.61238c0.08713,0.62082 -0.02618,8.12152 -0.08849,8.7785c-0.07629,0.80448 -0.56627,1.25303 -1.23889,1.61238c-0.67264,0.35935 -1.94683,0.44788 -1.94683,0.44788z" fill="#ffcb63" stroke="#000000" stroke-width="0" stroke-linecap="round"/><path d="M189.65446,161.4648c0,0 2.85463,-3.08532 6.82208,-4.50919c3.96745,-1.42387 9.45741,-1.05568 9.45741,-1.05568l6.4839,0.50529l0.89225,1.29942c0,0 -10.4455,0.15424 -13.05034,0.85464c-2.60484,0.7004 -6.67912,4.30397 -6.67912,4.30397z" data-paper-data="{&quot;index&quot;:null}" fill="#ffe100" stroke="#000000" stroke-width="0" stroke-linecap="round"/><path d="M227.88308,186.39707c0,0 0.51606,9.51418 -4.38001,12.71888c-4.89607,3.2047 -12.89278,1.75257 -13.81389,-1.43194c-2.14156,-7.40382 7.66502,-17.09889 7.66502,-17.09889c0,0 -9.35563,-8.49979 -7.58079,-16.67773c1.17133,-5.39718 9.68303,-4.82423 13.56118,-2.19002c3.87815,2.63421 4.71695,12.71888 4.71695,12.71888c0,0 1.08491,0.18666 1.60037,0.25271c0.51547,0.06605 1.24636,0.80269 1.34772,1.51615c0.08293,0.58378 -0.02493,7.63685 -0.08425,8.25464c-0.07263,0.75648 -0.53901,1.17826 -1.17924,1.51615c-0.64024,0.33791 -1.85308,0.42117 -1.85308,0.42117z" fill="url(#color-3)" stroke="#000000" stroke-width="0" stroke-linecap="round"/><path d="M205.2926,204.01039l3.97009,-0.19655l0.07862,1.57231l-2.90878,1.80816z" fill="#ffc400" stroke="#000000" stroke-width="0" stroke-linecap="round"/><path d="M189.90706,199.35006l-3.88454,-11.8617l0.48558,-14.15081l4.43947,-13.38778l3.7458,1.80354l-3.81516,11.72298l-0.62431,13.04094l3.46834,11.51488z" fill="#ffff29" stroke="#000000" stroke-width="0" stroke-linecap="round"/><path d="M193.65287,197.96274c0,0 3.99984,3.68602 6.58983,4.43947c2.59,0.75346 12.486,1.10987 12.486,1.10987l-6.8673,1.66479c0,0 -5.49633,0.25599 -9.43387,-1.24859c-3.93754,-1.50458 -6.72857,-4.64758 -6.72857,-4.64758z" fill="#ffe100" stroke="#000000" stroke-width="0" stroke-linecap="round"/><path d="M205.33192,215.13448l1.76885,-6.32856l-1.92608,1.72955l0.07862,-2.63363l3.4984,-0.31446l-1.06131,15.68382l-1.41509,0.15722z" fill="#ffd108" stroke="#000000" stroke-width="0" stroke-linecap="round"/><path d="M206.47185,223.90012l-1.61163,-0.23585l-1.13993,-4.99209l1.88678,-1.25786z" fill="#ffe300" stroke="#000000" stroke-width="0" stroke-linecap="round"/><path d="M204.66487,208.78973l-1.07388,-3.94507l0.70932,-0.12941l0.82142,3.14498z" fill="#fff119" stroke="#000000" stroke-width="0" stroke-linecap="round"/><path d="M208.90892,205.85783l1.72955,0.11792l-1.76885,1.92608h-2.86947z" fill="#ffe31b" stroke="#000000" stroke-width="0" stroke-linecap="round"/><path d="M211.34141,206.00929l-1.87289,2.01164l-1.24861,15.81562l-2.21973,0.13873l-0.69368,-8.74022l0.69368,-0.06937l0.62429,7.83844l0.6243,-0.06937l1.17924,-15.33005l1.6648,-1.38734l-0.83239,0.13873l-3.95391,1.94227l-0.13873,2.01165l-0.55494,0.06936l-0.06936,-2.42783l4.09262,-2.42784l0.06937,-1.66481l3.26023,0.13874z" fill="#fffc2a" stroke="#000000" stroke-width="0" stroke-linecap="round"/><path d="M206.74398,153.36931l3.22625,1.96938l-0.07862,1.63362l-3.78866,-1.02059z" data-paper-data="{&quot;index&quot;:null}" fill="#ffc400" stroke="#000000" stroke-width="0" stroke-linecap="round"/><path d="M206.90425,136.59288l1.41508,0.16336l1.06131,16.29537l-3.4984,-0.32672l-0.07862,-2.73633l0.15723,-4.77835z" data-paper-data="{&quot;index&quot;:null}" fill="#ffd108" stroke="#000000" stroke-width="0" stroke-linecap="round"/><path d="M205.75066,152.76814l-0.82142,3.26762l-1.07216,-0.13446l2.20776,-12.80708z" data-paper-data="{&quot;index&quot;:null}" fill="#fff119" stroke="#000000" stroke-width="0" stroke-linecap="round"/><path d="M206.62907,152.7249h2.86946l1.76886,2.00118l-1.72955,0.12252z" data-paper-data="{&quot;index&quot;:null}" fill="#ffe31b" stroke="#000000" stroke-width="0" stroke-linecap="round"/><path d="M212.59462,156.78132l-3.26023,0.14415l-0.06936,-1.72971l-4.09262,-2.52251l0.06936,-2.5225l0.55494,0.02671l0.13874,2.13544l3.95391,2.01801l0.8324,0.14414l-1.66481,-1.44142l-1.17923,-15.92782l-0.6243,-0.07208l-1.44069,13.17851l-0.55761,-0.02672l1.37401,-14.1608l2.21973,0.14414l1.24861,16.43232l1.87289,2.09008z" data-paper-data="{&quot;index&quot;:null}" fill="#fffc2a" stroke="#000000" stroke-width="0" stroke-linecap="round"/><path d="M223.11923,184.9166l4.36317,1.06131l0.35377,3.41978l-0.23585,2.53535l-0.94339,2.94809l-2.94808,3.00704l-3.89148,0.94339h-1.82781l-3.30185,-0.70754l-1.47405,-2.06366l0.58962,-4.54005l5.36552,-6.13201z" fill="#ffc400" stroke="#000000" stroke-width="0" stroke-linecap="round"/><path d="M223.35507,184.9166l4.36316,1.06131l0.35377,3.41978l-0.23584,2.53535l-0.94339,2.94809l-2.94809,3.00704l-3.89147,0.94339h-1.82781l-3.30186,-0.70754l-1.47404,-2.06366l0.58962,-4.54005l5.36552,-6.13201z" fill="#ffffff" stroke="#000000" stroke-width="0" stroke-linecap="round"/><path d="M219.16879,175.3648l-5.36552,-6.13201l-0.58962,-4.54005l1.47405,-2.06366l3.30185,-0.70754h1.82781l3.89148,0.94339l2.94808,3.00704l0.94339,2.94809l0.23585,2.53535l-0.35377,3.41978l-4.36317,1.06131z" data-paper-data="{&quot;index&quot;:null}" fill="#ffc400" stroke="#000000" stroke-width="0" stroke-linecap="round"/><path d="M219.40464,175.3648l-5.36552,-6.13201l-0.58962,-4.54005l1.47404,-2.06366l3.30186,-0.70754h1.82781l3.89147,0.94339l2.94809,3.00704l0.94339,2.94809l0.23584,2.53535l-0.35377,3.41978l-4.36316,1.06131z" data-paper-data="{&quot;index&quot;:null}" fill="#ffffff" stroke="#000000" stroke-width="0" stroke-linecap="round"/><path d="M183.84379,176.1816l5.68807,-0.76304l16.23182,3.19087v3.9539l-15.46878,2.84403l-6.4511,-0.69366z" fill="#ffc400" stroke="#000000" stroke-width="0" stroke-linecap="round"/><path d="M183.98253,176.52844l19.63079,3.1215v2.2891l-19.97762,2.01163z" fill="#ffe31b" stroke="#000000" stroke-width="0" stroke-linecap="round"/><path d="M183.98253,176.25094l18.52091,2.49721l1.52607,-0.06937l0.97114,-0.34683l1.31796,0.48557l-0.13872,3.74581l-22.19735,1.94227l-0.27748,-0.90176l18.79838,-2.21973l0.06937,-1.45669l-18.79837,-2.77468z" fill="#fffc2a" stroke="#000000" stroke-width="0" stroke-linecap="round"/><path d="M160.88341,179.37247l23.09912,-2.84404v7.49161l-23.44596,-2.21974z" fill="#ffd108" stroke="#000000" stroke-width="0" stroke-linecap="round"/><path d="M160.74467,182.28587h-1.73416v-3.3296h1.73416z" fill="#ffe300" stroke="none" stroke-width="0" stroke-linecap="butt"/><path d="M161.0915,181.52284l22.96039,1.94227l-0.20809,1.17924l-23.72343,-2.35847l0.06936,-3.19087l24.20898,-3.05213l-0.48557,1.38733l-22.61355,2.49721z" fill="#fffb2c" stroke="#000000" stroke-width="0" stroke-linecap="round"/><path d="M191.48418,202.75508l8.35719,-4.6144" fill="none" stroke="#ffc500" stroke-width="0.5" stroke-linecap="round"/><path d="M189.07445,198.6534l2.66609,3.84533l-16.25293,12.15123l-0.71779,-1.07669z" fill="#ffd108" stroke="#000000" stroke-width="0" stroke-linecap="round"/><path d="M190.97147,202.1911l-2.15339,-3.02499l0.66653,-0.76906l7.89574,-1.28178l0.3589,1.5894z" fill="#ffe31b" stroke="#ffc500" stroke-width="0" stroke-linecap="round"/><path d="M190.92021,196.08985c0,0 -7.2192,8.386 -10.16696,11.63415c-2.1904,2.41363 -5.93216,6.10564 -5.93216,6.10564l0.56398,1.23051l-1.28178,0.30763l-1.33305,-1.99957l5.74236,-6.7165l1.53814,0.56398l9.22878,-11.12582h1.64068z" fill="#ffe300" stroke="#000000" stroke-width="0" stroke-linecap="round"/><path d="M197.124,197.16653l-8.61354,1.64067l1.99958,-2.8199l7.53684,-0.3589z" fill="#ffc400" stroke="#000000" stroke-width="0" stroke-linecap="round"/><path d="M189.27952,198.85848l-13.89446,14.76606l0.30763,0.51272l15.58641,-11.63852l0.25635,0.56398l-16.35546,12.30505l-1.0767,-1.69194l14.91989,-15.48387z" fill="#fffb2d" stroke="#000000" stroke-width="0" stroke-linecap="round"/><path d="M191.02274,202.80633l-0.41017,-0.66651l6.56269,-3.58898l-0.41017,-0.97414l-7.74192,1.43559l-0.30763,-0.92288l8.20337,-1.23051l1.02542,-1.38431l2.25593,2.51228z" fill="#fffc2a" stroke="#000000" stroke-width="0" stroke-linecap="round"/><path d="M192.02844,157.56162l8.35719,4.61439" data-paper-data="{&quot;index&quot;:null}" fill="none" stroke="#ffc500" stroke-width="0.5" stroke-linecap="round"/><path d="M175.31408,146.74342l0.7178,-1.0767l16.25292,12.15124l-2.66609,3.84533z" data-paper-data="{&quot;index&quot;:null}" fill="#ffd108" stroke="#000000" stroke-width="0" stroke-linecap="round"/><path d="M198.28351,161.61203l-0.3589,1.5894l-7.89574,-1.28177l-0.66653,-0.76906l2.15339,-3.025z" data-paper-data="{&quot;index&quot;:null}" fill="#ffe31b" stroke="#ffc500" stroke-width="0" stroke-linecap="round"/><path d="M191.46446,164.22685h-1.64067l-9.22879,-11.12583l-1.53813,0.56399l-5.74235,-6.71651l1.33305,-1.99957l1.28177,0.30763l-0.56399,1.2305c0,0 3.74176,3.692 5.93216,6.10565c2.94776,3.24815 10.16696,11.63415 10.16696,11.63415z" data-paper-data="{&quot;index&quot;:null}" fill="#ffe300" stroke="#000000" stroke-width="0" stroke-linecap="round"/><path d="M198.59114,164.68829l-7.53686,-0.3589l-1.99956,-2.81992l8.61354,1.64068z" data-paper-data="{&quot;index&quot;:null}" fill="#ffc400" stroke="#000000" stroke-width="0" stroke-linecap="round"/><path d="M189.56744,162.12473l-14.91987,-15.48385l1.07669,-1.69195l16.35547,12.30505l-0.25635,0.56398l-15.5864,-11.63852l-0.30763,0.51271l13.89446,14.76606z" data-paper-data="{&quot;index&quot;:null}" fill="#fffb2d" stroke="#000000" stroke-width="0" stroke-linecap="round"/><path d="M200.74452,162.32982l-2.25593,2.51228l-1.02541,-1.38431l-8.20337,-1.23051l0.30763,-0.92288l7.74193,1.43559l0.41017,-0.97415l-6.56269,-3.58898l0.41017,-0.66652z" data-paper-data="{&quot;index&quot;:null}" fill="#fffc2a" stroke="#000000" stroke-width="0" stroke-linecap="round"/><path d="M241.92266,187.75481l3.59131,-7.77223l-2.78729,-8.25464l2.14406,-1.23284l2.25126,2.84088l0.05361,12.70358l-2.41207,3.3769z" fill="#ffd56e" stroke="#000000" stroke-width="0" stroke-linecap="round"/><path d="M244.01311,203.19204l-4.44894,-3.5913l1.01843,-0.91123l0.48241,0.2144l4.60974,-6.05698l4.93134,2.68008l-6.27138,7.55782" fill="#ffc600" stroke="#000000" stroke-width="0" stroke-linecap="round"/><path d="M240.47541,163.7413l-1.12563,-2.68008l3.85931,-2.57287l5.57456,7.61142l-3.48409,2.78728l-4.50252,-5.09215z" fill="#ffc600" stroke="#000000" stroke-width="0" stroke-linecap="round"/><path d="M259.13641,202.37909l1.85308,0.95462l-1.85308,6.45771l-6.51387,2.02155l-3.76233,-3.48155z" fill="#f7ad14" stroke="#000000" stroke-width="0" stroke-linecap="round"/><path d="M253.24024,197.54983l2.80771,2.52694l-1.85309,2.30231l-2.13386,6.00848l-2.63923,-0.39308l-2.47078,1.23539l-2.75155,-1.06692z" fill="#e8941e" stroke="#000000" stroke-width="0" stroke-linecap="round"/><path d="M253.07179,202.4914l2.86386,-2.75154l3.5377,2.75154l-2.24615,5.6154l-5.11003,0.22462z" fill="#f6a012" stroke="#000000" stroke-width="0" stroke-linecap="round"/><path d="M253.18409,207.26449l3.36923,0.67385l0.95463,1.34769l0.28076,0.56154" fill="none" stroke="#be7e11" stroke-width="0.25" stroke-linecap="round"/><path d="M255.31793,203.9514l1.9654,0.89847l2.30232,2.80771" fill="none" stroke="#be7e11" stroke-width="0.25" stroke-linecap="round"/><path d="M249.86697,152.42578l3.43944,-1.74204l1.87605,0.04467l4.15413,2.72475l-0.40201,7.37022l-3.39477,1.2507z" fill="#f7ad14" stroke="#000000" stroke-width="0" stroke-linecap="round"/><path d="M245.75753,156.35657l-0.98269,-5.67283l3.03743,-0.08934l2.18873,2.18873l5.0028,9.11226l-3.4841,2.14406z" fill="#e8941e" stroke="#000000" stroke-width="0" stroke-linecap="round"/><path d="M252.59173,160.68937l0.22333,-2.72475l-3.08209,-5.31549l3.66277,0.04467l3.26076,1.60805l0.31268,5.53883l-0.22334,1.02737l-3.57343,2.18873z" fill="#f7a111" stroke="#000000" stroke-width="0" stroke-linecap="round"/><path d="M259.24871,155.54665l-2.63924,1.40384l-0.56154,0.61769l-2.07769,0.44923" fill="none" stroke="#be7e11" stroke-width="0.25" stroke-linecap="round"/><path d="M257.95718,152.7951l-1.90922,1.06692l-3.36925,0.39308" fill="none" stroke="#be7e11" stroke-width="0.25" stroke-linecap="round"/></g></g></svg>