<svg version="1.1" xmlns="http://www.w3.org/2000/svg" xmlns:xlink="http://www.w3.org/1999/xlink" width="166.9083" height="202.8969" viewBox="0,0,166.9083,202.8969"><defs><linearGradient x1="283.07849" y1="274.02929" x2="286.20451" y2="273.96563" gradientUnits="userSpaceOnUse" id="color-1"><stop offset="0" stop-color="#d70002" stop-opacity="0"/><stop offset="1" stop-color="#d70002"/></linearGradient><linearGradient x1="283.6608" y1="274.01743" x2="286.20451" y2="273.96563" gradientUnits="userSpaceOnUse" id="color-2"><stop offset="0" stop-color="#d70002" stop-opacity="0"/><stop offset="1" stop-color="#d70002"/></linearGradient><linearGradient x1="199.63736" y1="274.99538" x2="196.51134" y2="275.05905" gradientUnits="userSpaceOnUse" id="color-3"><stop offset="0" stop-color="#d70002" stop-opacity="0"/><stop offset="1" stop-color="#d70002"/></linearGradient><linearGradient x1="199.05505" y1="275.00724" x2="196.51134" y2="275.05905" gradientUnits="userSpaceOnUse" id="color-4"><stop offset="0" stop-color="#d70002" stop-opacity="0"/><stop offset="1" stop-color="#d70002"/></linearGradient><radialGradient cx="239.49744" cy="159.06956" r="59.70598" gradientUnits="userSpaceOnUse" id="color-5"><stop offset="0" stop-color="#393f54"/><stop offset="1" stop-color="#393f54"/></radialGradient><linearGradient x1="236.29382" y1="105.26303" x2="237.41571" y2="160.35172" gradientUnits="userSpaceOnUse" id="color-6"><stop offset="0" stop-color="#515774"/><stop offset="1" stop-color="#494e67"/></linearGradient></defs><g transform="translate(-156.54585,-78.54682)"><g data-paper-data="{&quot;isPaintingLayer&quot;:true}" fill-rule="nonzero" stroke-linejoin="miter" stroke-miterlimit="10" stroke-dasharray="" stroke-dashoffset="0" style="mix-blend-mode: normal"><path d="M230.90055,200.38823c0,0 0.60034,16.66503 -0.96398,20.32384c-0.85506,1.99993 -6.7883,4.97804 -11.50613,4.72068c-3.91315,-0.21346 -6.73273,-3.34581 -7.45926,-4.82488c-0.97859,-1.99203 5.53199,-20.75101 5.53199,-20.75101" data-paper-data="{&quot;index&quot;:null}" fill="#6e6492" stroke="#174752" stroke-width="0" stroke-linecap="round"/><path d="M230.43346,202.28508l-0.56984,12.5756c0,0 -3.75574,-2.07093 -8.7004,-3.07632c-4.50511,-0.91601 -8.98862,1.41558 -8.98862,1.41558l5.15002,-15.06784" data-paper-data="{&quot;index&quot;:null}" fill="#4e4668" stroke="#000000" stroke-width="0" stroke-linecap="round"/><path d="M253.98305,205.81527c0,0 8.82391,19.57356 8.14075,21.74285c-0.49628,1.57564 -3.63051,4.92108 -7.30055,5.38177c-4.60473,0.57803 -9.97011,-2.1247 -11.08678,-4.24025c-2.00671,-3.80166 -3.6515,-21.53728 -3.6515,-21.53728" data-paper-data="{&quot;index&quot;:null}" fill="#6e6492" stroke="#174752" stroke-width="0" stroke-linecap="round"/><path d="M252.81144,203.10966l6.65817,16.41155c0,0 -4.22289,-1.99817 -8.57125,-1.78412c-5.27939,0.25989 -8.06476,3.41317 -8.06476,3.41317l-1.95371,-17.01112" data-paper-data="{&quot;index&quot;:null}" fill="#4e4668" stroke="#000000" stroke-width="0" stroke-linecap="round"/><path d="M254.16524,205.62276c0,0 9.07984,19.88141 8.39681,21.98201c-0.53696,1.65148 -2.60823,4.70918 -8.17238,5.38247c-6.28867,0.76092 -9.07625,-2.35195 -10.11014,-4.26459c-1.98865,-3.6789 -3.59333,-20.84737 -3.59333,-20.84737l-9.84712,0.07675c0,0 0.12042,9.35272 -1.44393,13.01152c-0.81863,1.9147 -4.06226,5.29912 -10.2367,5.0052c-6.39446,-0.30439 -7.96472,-3.55434 -8.72869,-5.10937c-0.97852,-1.99203 5.53203,-20.75101 5.53203,-20.75101" data-paper-data="{&quot;index&quot;:null}" fill="none" stroke="#222433" stroke-width="1" stroke-linecap="round"/><path d="M223.74787,198.3208c2.74979,-0.07341 4.94487,-0.65075 5.31439,4.97906c0.25522,3.88815 -6.11767,7.13204 -8.71435,6.63362c-5.85548,-1.12384 -4.33808,-3.03034 -2.6627,-6.32991c2.56197,-5.04592 3.3129,-5.20933 6.06266,-5.28274z" data-paper-data="{&quot;index&quot;:null}" fill="#ef0209" stroke="none" stroke-width="0" stroke-linecap="butt"/><path d="M240.55258,205.3237c-0.50093,-7.63178 1.58768,-6.98431 4.1072,-7.05153c2.51962,-0.06725 3.22893,0.10815 6.31744,6.77326c2.01965,4.35839 3.68788,6.84349 -1.48689,8.71697c-2.29476,0.83081 -8.59176,-3.16795 -8.93775,-8.4387z" data-paper-data="{&quot;index&quot;:null}" fill="#ef0209" stroke="none" stroke-width="0" stroke-linecap="butt"/><path d="M224.81535,192.33926c2.09429,-0.0559 3.74934,-0.75315 4.21454,6.3341c0.32127,4.89468 -4.43253,8.89106 -6.42876,8.22971c-4.50152,-1.49137 -3.40659,-3.8697 -2.23654,-7.9984c1.78916,-6.31385 2.35644,-6.50948 4.45069,-6.56542z" data-paper-data="{&quot;index&quot;:null}" fill="#0b0b1f" stroke="none" stroke-width="0" stroke-linecap="butt"/><path d="M240.09138,202.16994c-0.4652,-7.08725 1.27537,-6.48065 3.3697,-6.53655c2.09429,-0.0559 2.68519,0.10884 5.2955,6.30527c1.70692,4.05197 3.10971,6.3636 -1.18059,8.08963c-1.90258,0.76539 -7.16349,-2.96363 -7.48476,-7.85834z" data-paper-data="{&quot;index&quot;:null}" fill="#0b0b1f" stroke="none" stroke-width="0" stroke-linecap="butt"/><path d="M244.36812,208.36915l5.44485,-2.27822" data-paper-data="{&quot;index&quot;:null}" fill="none" stroke="#2e2f43" stroke-width="0.25" stroke-linecap="round"/><path d="M267.59045,205.60887l-2.76456,-36.70804c0,0 13.55358,-5.73636 20.54482,4.55584c6.99124,10.2922 3.67682,28.73532 3.67682,28.73532" data-paper-data="{&quot;index&quot;:null}" fill="#1b1f36" stroke="#253253" stroke-width="1" stroke-linecap="round"/><path d="M268.20751,186.03629l16.7738,-9.05797" data-paper-data="{&quot;index&quot;:null}" fill="none" stroke="#2c2c45" stroke-width="0.25" stroke-linecap="round"/><path d="M268.3814,193.48467l19.45426,0.07674" data-paper-data="{&quot;index&quot;:null}" fill="none" stroke="#2c2c45" stroke-width="0.25" stroke-linecap="round"/><path d="M262.02055,234.65119l0.21374,19.9722l-12.01449,-7.08968l3.74338,-15.57888z" data-paper-data="{&quot;index&quot;:null}" fill="none" stroke="#253253" stroke-width="1" stroke-linecap="round"/><path d="M251.38311,232.56572l0.27967,14.74553l10.65809,6.8278l-3.30555,3.54151l-10.86869,-7.69207l-0.4049,-15.14306z" data-paper-data="{&quot;index&quot;:null}" fill="none" stroke="#253253" stroke-width="1" stroke-linecap="round"/><path d="M280.98057,222.89326c20.11185,-0.667 25.9105,9.5492 25.9105,9.5492l1.08941,32.44796l-49.96134,-1.44583l-1.49505,-31.31997c0,0 5.00258,-8.58627 24.45647,-9.23142z" data-paper-data="{&quot;index&quot;:null}" fill="none" stroke="#253253" stroke-width="1" stroke-linecap="round"/><path d="M307.965,265.49328c0.15717,7.71778 -10.93246,14.20273 -24.76932,14.48452c-13.8369,0.28179 -25.18135,-5.74631 -25.33853,-13.46405c-0.15717,-7.71778 10.93246,-14.20273 24.76935,-14.48452c13.8369,-0.28179 25.18133,5.74631 25.3385,13.46406z" data-paper-data="{&quot;index&quot;:null}" fill="none" stroke="#253253" stroke-width="1" stroke-linecap="butt"/><path d="M313.59608,255.00086l0.08024,3.94006l-2.34392,3.00327l-5.07525,0.10336l0.38403,-7.38626z" data-paper-data="{&quot;index&quot;:null}" fill="none" stroke="#253253" stroke-width="1" stroke-linecap="round"/><path d="M306.04759,238.63327l7.52501,2.09235l0.22236,17.47921l-6.94507,0.14144z" data-paper-data="{&quot;index&quot;:null}" fill="none" stroke="#253253" stroke-width="1" stroke-linecap="round"/><path d="M281.94451,195.69149c16.42092,-0.11332 20.9404,7.33077 20.9404,7.33077l-0.15612,27.84974c0,0 -4.63487,-9.1587 -20.07729,-9.33741c-17.41775,-0.2014 -21.98538,12.38206 -21.98538,12.38206l-0.22571,-28.83661c0,0 4.52763,-9.27143 21.50389,-9.38854z" data-paper-data="{&quot;index&quot;:null}" fill="none" stroke="#253253" stroke-width="1" stroke-linecap="round"/><path d="M307.76499,213.94116c0,0 6.44665,-2.78197 4.21357,-7.65973c-2.74153,-5.98843 -8.82445,-4.18985 -8.82445,-4.18985l-14.69557,-6.40072c0,0 29.19196,-14.38107 33.91961,6.30051c4.11821,18.01549 -15.19613,26.23556 -15.19613,26.23556z" data-paper-data="{&quot;index&quot;:null}" fill="none" stroke="#253253" stroke-width="1" stroke-linecap="round"/><path d="M300.78908,200.39185c0,0 11.08562,-4.71855 13.80424,5.54497c2.21134,8.34848 -7.37509,9.76323 -7.37509,9.76323" data-paper-data="{&quot;index&quot;:null}" fill="none" stroke="#bf5a59" stroke-width="0.25" stroke-linecap="round"/><path d="M307.76499,213.94113c0,0 6.44665,-2.78197 4.21357,-7.65973c-2.74153,-5.98843 -8.82445,-4.18985 -8.82445,-4.18985l-14.69557,-6.40072c0,0 29.19196,-14.38107 33.91961,6.30051c4.11821,18.01549 -15.19613,26.23556 -15.19613,26.23556z" data-paper-data="{&quot;index&quot;:null}" fill="#e90b00" stroke="#495785" stroke-width="0" stroke-linecap="round"/><path d="M322.7583,206.35312c0,0 -1.72293,6.89866 -4.73665,10.58342c-3.01375,3.68475 -10.03725,7.77833 -10.03725,7.77833" data-paper-data="{&quot;index&quot;:null}" fill="none" stroke="#bf5a59" stroke-width="0.25" stroke-linecap="round"/><path d="M266.94163,194.76418c0,0 8.20538,-0.0737 12.21585,-0.15537c8.18034,-0.1666 15.34634,0.85403 15.418,4.37301c0.07166,3.51901 -6.9781,8.20378 -15.15848,8.37037c-8.18034,0.1666 -15.27819,-5.50076 -15.27819,-5.50076z" data-paper-data="{&quot;index&quot;:null}" fill="#404763" stroke="none" stroke-width="0" stroke-linecap="butt"/><path d="M297.16964,198.00173c0,0 17.56151,-8.67157 21.25974,6.33384c3.00821,12.20564 -11.09573,15.14908 -11.09573,15.14908" data-paper-data="{&quot;index&quot;:null}" fill="none" stroke="#9a1a1f" stroke-width="0.25" stroke-linecap="round"/><path d="M299.90431,236.71101l-0.53816,-26.42489l9.42913,1.2565l0.38703,19.00419z" data-paper-data="{&quot;index&quot;:null}" fill="#3d3c74" stroke="none" stroke-width="NaN" stroke-linecap="butt"/><path d="M313.59608,255.00082l0.0653,3.2067l-2.32898,3.73667l-5.07525,0.10336l0.38403,-7.38626z" data-paper-data="{&quot;index&quot;:null}" fill="#8d0000" stroke="#000000" stroke-width="0" stroke-linecap="round"/><path d="M306.04756,238.6333l7.52501,2.09235l0.22237,17.47917l-6.94508,0.14144z" data-paper-data="{&quot;index&quot;:null}" fill="#ff1300" stroke="#000000" stroke-width="0" stroke-linecap="round"/><path d="M281.94451,195.69142c16.42085,-0.11332 20.94045,7.33077 20.94045,7.33077l-0.15612,27.84977l-42.06271,3.04468l-0.22571,-28.83661c0,0 4.52763,-9.27143 21.50389,-9.38854z" data-paper-data="{&quot;index&quot;:null}" fill="#697393" stroke="#5b3f88" stroke-width="0" stroke-linecap="round"/><path d="M263.97531,202.01748c0,0 1.2246,-1.45221 2.47013,-2.43955c1.24553,-0.98734 3.32157,-1.3229 3.32157,-1.3229l0.56306,30.13187l-5.81777,-0.09626z" data-paper-data="{&quot;index&quot;:null}" fill="#aeb7cf" stroke="#66706b" stroke-width="0" stroke-linecap="round"/><path d="M280.9805,222.89326c20.11185,-0.667 25.9105,9.5492 25.9105,9.5492l1.08945,32.44796c0,0 -6.0019,-13.93989 -26.62154,-12.89379c-18.28119,0.92751 -23.33984,11.44799 -23.33984,11.44799l-1.49505,-31.31997c0,0 5.00266,-8.58624 24.45655,-9.23138z" data-paper-data="{&quot;index&quot;:null}" fill="#df9d11" stroke="#5b3f88" stroke-width="0" stroke-linecap="round"/><path d="M257.19144,243.02048c0,0 4.52252,-10.28531 23.97952,-10.77811c20.11503,-0.50938 26.12088,8.94185 26.12088,8.94185l0.17577,9.45995c0,0 -4.32682,-8.2568 -24.95419,-7.59405c-18.28811,0.58753 -25.58997,10.342 -25.58997,10.342l0.26806,-10.37174z" data-paper-data="{&quot;index&quot;:null}" fill="#e8be2a" stroke="#5b3f88" stroke-width="0" stroke-linecap="round"/><path d="M255.98441,232.21932c0,0 3.5273,-3.66921 6.10196,-5.07453c2.57466,-1.40532 7.1923,-2.18199 7.1923,-2.18199l-0.03145,33.9109l-11.51229,6.89192l-1.75051,-33.54633z" data-paper-data="{&quot;index&quot;:null}" fill="#d7b336" stroke="#5b3f88" stroke-width="0" stroke-linecap="round"/><path d="M307.1707,232.66957l0.93315,32.496l-6.64263,-6.17857l-1.00274,-31.45486c0,0 2.33588,0.58601 3.66663,1.81469c1.33075,1.22868 3.04558,3.32274 3.04558,3.32274z" data-paper-data="{&quot;index&quot;:null}" fill="#d7b336" stroke="#5b3f88" stroke-width="0" stroke-linecap="round"/><path d="M306.48252,232.33028l-0.38184,28.86034l-2.52519,-3.22053l0.06088,-28.86639c0,0 0.98969,0.70509 1.4735,1.25356c0.4641,0.52612 1.37265,1.97302 1.37265,1.97302z" data-paper-data="{&quot;index&quot;:null}" fill="#dfd572" stroke="#5b3f88" stroke-width="0" stroke-linecap="round"/><path d="M307.4951,252.95857c0,0 -2.2129,-2.94413 -3.26173,-3.97591c-1.10303,-1.08506 -3.21851,-3.18897 -3.21851,-3.18897l-0.1552,-9.88495c0,0 2.76099,2.44728 3.95193,3.77273c0.73709,0.82035 2.61905,3.50156 2.61905,3.50156z" data-paper-data="{&quot;index&quot;:null}" fill="#dfd05a" stroke="#5b3f88" stroke-width="0" stroke-linecap="round"/><path d="M306.2321,251.18805l-2.49649,-2.64346l-0.10206,-9.82441l2.80536,3.00527z" data-paper-data="{&quot;index&quot;:null}" fill="#eff3af" stroke="#5b3f88" stroke-width="0" stroke-linecap="round"/><path d="M257.57579,230.50256c0,0 1.71982,-1.61376 2.61168,-2.20895c0.92969,-0.62046 2.85757,-1.44103 2.85757,-1.44103l1.92599,31.05898l-4.83011,3.62345l-2.56508,-31.03241z" data-paper-data="{&quot;index&quot;:null}" fill="#dfd572" stroke="#5b3f88" stroke-width="0" stroke-linecap="round"/><path d="M256.36512,242.24044c0,0 3.58216,-3.0029 4.9995,-3.93172c2.28999,-1.50075 7.63834,-4.30688 7.63834,-4.30688l0.32645,11.5155c0,0 -4.1012,1.52751 -6.23113,2.76409c-2.02531,1.17583 -6.25041,4.48235 -6.25041,4.48235z" data-paper-data="{&quot;index&quot;:null}" fill="#dfd05a" stroke="#5b3f88" stroke-width="0" stroke-linecap="round"/><path d="M258.25002,240.60993l5.40178,-3.40934l0.41087,10.57831l-4.80893,3.00065z" data-paper-data="{&quot;index&quot;:null}" fill="#eff3af" stroke="#5b3f88" stroke-width="0" stroke-linecap="round"/><path d="M307.96497,265.49332c0.15717,7.71778 -10.93246,14.20272 -24.76932,14.48451c-13.8369,0.28179 -25.18133,-5.74624 -25.3385,-13.46406c-0.15717,-7.71778 10.93242,-14.20273 24.76932,-14.48452c13.8369,-0.28179 25.18133,5.74632 25.3385,13.46406z" data-paper-data="{&quot;index&quot;:null}" fill="#c88f12" stroke="none" stroke-width="0" stroke-linecap="butt"/><path d="M301.13796,266.49364c0.12998,6.38275 -7.97136,11.72413 -18.09487,11.9303c-10.12351,0.20617 -18.43561,-4.80095 -18.56559,-11.1837c-0.12998,-6.38275 7.97139,-11.72413 18.09486,-11.9303c10.12351,-0.20617 18.43561,4.80091 18.56559,11.1837z" data-paper-data="{&quot;index&quot;:null}" fill="#8d0000" stroke="#959fb6" stroke-width="0" stroke-linecap="butt"/><path d="M298.93326,266.38096c0.11404,5.59974 -7.13196,10.28864 -16.18453,10.473c-9.05253,0.18435 -16.48347,-4.20565 -16.59751,-9.80539c-0.11404,-5.59974 7.132,-10.28865 16.18453,-10.473c9.05253,-0.18435 16.48347,4.20565 16.59751,9.80539z" data-paper-data="{&quot;index&quot;:null}" fill="#9b0000" stroke="#959fb6" stroke-width="0" stroke-linecap="butt"/><path d="M286.25481,276.43568l-3.12602,0.06366l-0.1006,-4.94007l3.12602,-0.06366z" data-paper-data="{&quot;index&quot;:null}" fill="url(#color-1)" stroke="none" stroke-width="0" stroke-linecap="butt"/><path d="M286.25481,276.43568l-2.54368,0.0518l-0.10061,-4.94006l2.54368,-0.0518z" data-paper-data="{&quot;index&quot;:null}" fill="url(#color-2)" stroke="none" stroke-width="0" stroke-linecap="butt"/><path d="M298.93326,266.38096c0.86032,7.91495 -13.16096,10.17837 -13.16096,10.17837l-3.43655,-19.98376c0,0 15.99227,4.23729 16.59751,9.80539z" data-paper-data="{&quot;index&quot;:null}" fill="#d70002" stroke="#959fb6" stroke-width="0" stroke-linecap="butt"/><path d="M282.12976,256.79014c15.79209,-0.52341 17.15483,9.42293 17.15483,9.42293c0,0 -6.22125,5.60896 -16.64375,5.34228c-11.04054,-0.28251 -16.59113,-4.54533 -16.59113,-4.54533c0,0 0.1473,-9.69186 16.08003,-10.21992z" data-paper-data="{&quot;index&quot;:null}" fill="#ff0000" stroke="#959fb6" stroke-width="0" stroke-linecap="butt"/><path d="M286.2992,215.3613c-5.56472,0.34694 -14.46986,2.27416 -14.46986,2.27416l-0.30312,-14.88407c0,0 7.41162,-3.79355 15.83401,-2.38546c8.89059,1.48637 13.68305,5.34504 13.68305,5.34504l0.30312,14.88411c0,0 -6.81569,-5.74703 -15.04721,-5.23378z" data-paper-data="{&quot;index&quot;:null}" fill="#ff0300" stroke="#525465" stroke-width="0.25" stroke-linecap="butt"/><path d="M278.29362,201.26484l0.29302,14.38793" data-paper-data="{&quot;index&quot;:null}" fill="none" stroke="#54444e" stroke-width="0.25" stroke-linecap="round"/><path d="M286.37639,200.78731l-0.31448,13.69897" data-paper-data="{&quot;index&quot;:null}" fill="none" stroke="#54444e" stroke-width="0.25" stroke-linecap="round"/><path d="M294.18795,202.88337l-0.33776,12.55571" data-paper-data="{&quot;index&quot;:null}" fill="none" stroke="#54444e" stroke-width="0.25" stroke-linecap="round"/><path d="M286.99532,250.1747l-0.60275,-20.75548l6.53532,-6.24125l0.91717,18.50942z" data-paper-data="{&quot;index&quot;:null}" fill="#ff1300" stroke="#000000" stroke-width="0" stroke-linecap="round"/><path d="M293.31156,250.86052l-6.14454,-1.09649l5.53589,-11.10743l-0.13502,-15.47127l5.61699,1.71806l-0.02839,16.28902z" data-paper-data="{&quot;index&quot;:null}" fill="#8d0000" stroke="#000000" stroke-width="0" stroke-linecap="round"/><path d="M262.02051,234.65119l0.21375,19.97216l-12.0145,-7.08971l1.30789,-16.33598z" data-paper-data="{&quot;index&quot;:null}" fill="#ff1300" stroke="#000000" stroke-width="0" stroke-linecap="round"/><path d="M251.63002,231.48512l0.0328,15.82617l10.65809,6.8278l-3.30554,3.54151l-10.86872,-7.69208l-0.4049,-15.14306z" data-paper-data="{&quot;index&quot;:null}" fill="#8d0000" stroke="#000000" stroke-width="0" stroke-linecap="round"/><path d="M190.7485,203.46067c0,0 -4.06255,-18.29289 2.50386,-28.8612c6.56641,-10.56831 20.3423,-5.38852 20.3423,-5.38852l-1.26775,36.79017" fill="#1b1f36" stroke="#253253" stroke-width="1" stroke-linecap="round"/><path d="M193.7848,178.10235l17.12868,8.36754" fill="none" stroke="#2c2c45" stroke-width="0.25" stroke-linecap="round"/><path d="M211.04299,193.91917l-19.435,0.86872" fill="none" stroke="#2c2c45" stroke-width="0.25" stroke-linecap="round"/><path d="M227.01552,231.77041l4.37455,15.41356l-11.71588,7.57296l-0.59957,-19.96434z" fill="none" stroke="#253253" stroke-width="1" stroke-linecap="round"/><path d="M233.3495,234.40532l0.21195,15.14699l-10.5465,8.1282l-3.44699,-3.40399l10.37127,-7.25607l-0.3209,-14.74469z" fill="none" stroke="#253253" stroke-width="1" stroke-linecap="round"/><path d="M199.6516,223.81626c19.46403,-0.14743 24.81204,8.22805 24.81204,8.22805l-0.21865,31.35487l-49.86105,3.47875l-0.23256,-32.46541c0,0 5.37789,-10.44382 25.50023,-10.59619z" data-paper-data="{&quot;index&quot;:null}" fill="none" stroke="#253253" stroke-width="1" stroke-linecap="round"/><path d="M199.19326,252.99515c13.83689,-0.28179 25.18136,5.74628 25.33854,13.46406c0.15717,7.71774 -10.93246,14.20273 -24.76936,14.48452c-13.83686,0.28179 -25.18132,-5.74628 -25.33849,-13.46406c-0.15717,-7.71774 10.93242,-14.20272 24.76932,-14.48451z" data-paper-data="{&quot;index&quot;:null}" fill="none" stroke="#253253" stroke-width="1" stroke-linecap="butt"/><path d="M175.30566,256.60275l0.68443,7.36451l-5.07526,0.10336l-2.46424,-2.90535l-0.08024,-3.94006z" fill="none" stroke="#253253" stroke-width="1" stroke-linecap="round"/><path d="M175.24714,260.29319l-6.94507,0.14144l-0.48946,-17.47377l7.43359,-2.39699z" fill="none" stroke="#253253" stroke-width="1" stroke-linecap="round"/><path d="M197.58118,196.67636c16.96696,-0.57415 21.8683,8.50526 21.8683,8.50526l0.94853,28.82189c0,0 -5.07616,-12.38707 -22.47127,-11.47669c-15.42234,0.80728 -19.68049,10.14709 -19.68049,10.14709l-1.28986,-27.82029c0,0 4.21266,-7.62192 20.62458,-8.17726z" fill="none" stroke="#253253" stroke-width="1" stroke-linecap="round"/><path d="M173.68904,230.21234c0,0 -19.633,-7.42689 -16.25168,-25.59511c3.88171,-20.85692 33.63497,-7.67628 33.63497,-7.67628l-14.42279,6.99373c0,0 -6.15111,-1.54943 -8.64655,4.54565c-2.03264,4.96463 4.52193,7.48183 4.52193,7.48183z" fill="none" stroke="#253253" stroke-width="1" stroke-linecap="round"/><path d="M173.14284,217.69733c0,0 -9.63608,-1.02329 -7.76647,-9.45488c2.2985,-10.36569 13.56703,-6.10239 13.56703,-6.10239" fill="none" stroke="#bf5a59" stroke-width="0.25" stroke-linecap="round"/><path d="M173.68904,230.2123c0,0 -19.633,-7.42689 -16.25168,-25.59511c3.88171,-20.85691 33.63497,-7.67628 33.63497,-7.67628l-14.42279,6.99373c0,0 -6.15111,-1.54943 -8.64655,4.54565c-2.03264,4.96463 4.52193,7.48183 4.52193,7.48183z" fill="#e90b00" stroke="#495785" stroke-width="0" stroke-linecap="round"/><path d="M172.74432,226.73586c0,0 -7.18434,-3.80423 -10.34561,-7.36323c-3.16124,-3.559 -5.16361,-10.38179 -5.16361,-10.38179" fill="none" stroke="#bf5a59" stroke-width="0.25" stroke-linecap="round"/><path d="M215.6227,202.10626c0,0 -6.86121,5.95163 -15.04156,6.11823c-8.18038,0.1666 -15.41504,-4.22727 -15.4867,-7.74628c-0.07166,-3.51898 7.04684,-4.83051 15.22718,-4.99711c4.01047,-0.08167 12.21205,-0.34211 12.21205,-0.34211z" fill="#404763" stroke="none" stroke-width="0" stroke-linecap="butt"/><path d="M173.1816,221.48348c0,0 -14.21209,-2.36677 -11.7033,-14.68476c3.08423,-15.14353 20.98424,-7.19415 20.98424,-7.19415" fill="none" stroke="#9a1a1f" stroke-width="0.25" stroke-linecap="round"/><path d="M171.78485,232.61173l-0.38703,-19.00419l9.37016,-1.63935l0.53815,26.42489z" fill="#3d3c74" stroke="none" stroke-width="NaN" stroke-linecap="butt"/><path d="M175.30566,256.60275l0.68443,7.36451l-5.07526,0.10336l-2.47918,-3.63875l-0.0653,-3.20669z" fill="#8d0000" stroke="#000000" stroke-width="0" stroke-linecap="round"/><path d="M175.24718,260.29318l-6.94507,0.14144l-0.48946,-17.47373l7.43359,-2.39699z" fill="#ff1300" stroke="#000000" stroke-width="0" stroke-linecap="round"/><path d="M197.58118,196.67636c16.96696,-0.57415 21.8683,8.50526 21.8683,8.50526l0.94853,28.82189l-42.15179,-1.32963l-1.28986,-27.82032c0,0 4.21277,-7.62193 20.62462,-8.17726z" fill="#697393" stroke="#5b3f88" stroke-width="0" stroke-linecap="round"/><path d="M216.32597,228.53877l-5.80903,0.33304l-0.66419,-30.12981c0,0 2.08799,0.25076 3.37269,1.18657c1.28469,0.9358 2.56739,2.33695 2.56739,2.33695z" fill="#aeb7cf" stroke="#66706b" stroke-width="0" stroke-linecap="round"/><path d="M199.6516,223.81633c19.46403,-0.14743 24.81211,8.22801 24.81211,8.22801l-0.21865,31.35488c0,0 -5.48279,-10.3058 -23.78658,-10.48825c-20.64513,-0.20573 -26.0745,13.96696 -26.0745,13.96696l-0.23253,-32.46542c0,0 5.37789,-10.44382 25.50023,-10.59619z" data-paper-data="{&quot;index&quot;:null}" fill="#df9d11" stroke="#5b3f88" stroke-width="0" stroke-linecap="round"/><path d="M224.24039,242.95822l0.69011,10.35223c0,0 -7.69295,-9.4491 -25.98981,-9.29157c-20.63725,0.17762 -24.62432,8.60374 -24.62432,8.60374l-0.20953,-9.45927c0,0 5.61607,-9.68791 25.73516,-9.99791c19.46093,-0.29978 24.39845,9.79288 24.39845,9.79288z" data-paper-data="{&quot;index&quot;:null}" fill="#e8be2a" stroke="#5b3f88" stroke-width="0" stroke-linecap="round"/><path d="M225.00674,232.11694l-0.38326,33.58978l-11.78334,-6.41749l-1.41207,-33.88149c0,0 4.64543,0.58802 7.27517,1.88735c2.62974,1.29933 6.3035,4.82189 6.3035,4.82189z" data-paper-data="{&quot;index&quot;:null}" fill="#d7b336" stroke="#5b3f88" stroke-width="0" stroke-linecap="round"/><path d="M176.78899,231.20685c1.27963,-1.28184 3.5897,-1.96247 3.5897,-1.96247l0.27874,31.46961l-6.38557,6.44389l-0.39065,-32.50704c0,0 1.62814,-2.16215 2.90777,-3.44398z" data-paper-data="{&quot;index&quot;:null}" fill="#d7b336" stroke="#5b3f88" stroke-width="0" stroke-linecap="round"/><path d="M175.8462,232.25653c0.46108,-0.56771 1.42124,-1.31251 1.42124,-1.31251l1.23609,28.83998l-2.39198,3.32068l-1.55653,-28.82088c0,0 0.84889,-1.4827 1.29118,-2.02728z" data-paper-data="{&quot;index&quot;:null}" fill="#dfd572" stroke="#5b3f88" stroke-width="0" stroke-linecap="round"/><path d="M174.04954,245.16617c0,0 1.77123,-2.75562 2.47431,-3.60529c1.13599,-1.37284 3.79505,-3.93051 3.79505,-3.93051l0.24738,9.88307c0,0 -2.02808,2.1883 -3.086,3.31737c-1.00596,1.07362 -3.09715,4.1054 -3.09715,4.1054z" data-paper-data="{&quot;index&quot;:null}" fill="#dfd05a" stroke="#5b3f88" stroke-width="0" stroke-linecap="round"/><path d="M174.9811,243.66941l2.68068,-3.11699l0.29801,9.82041l-2.3868,2.74292z" data-paper-data="{&quot;index&quot;:null}" fill="#eff3af" stroke="#5b3f88" stroke-width="0" stroke-linecap="round"/><path d="M223.34674,230.46647l-1.2995,31.11111l-4.97364,-3.42379l0.65986,-31.11165c0,0 1.9597,0.7414 2.91388,1.3235c0.91535,0.55838 2.69944,2.10079 2.69944,2.10079z" data-paper-data="{&quot;index&quot;:null}" fill="#dfd572" stroke="#5b3f88" stroke-width="0" stroke-linecap="round"/><path d="M224.98043,252.67955c0,0 -4.35623,-3.13176 -6.42773,-4.22416c-2.1785,-1.14884 -6.33849,-2.5081 -6.33849,-2.5081l-0.14266,-11.51925c0,0 5.45817,2.58605 7.80736,3.99233c1.45398,0.87034 5.15543,3.72491 5.15543,3.72491z" data-paper-data="{&quot;index&quot;:null}" fill="#dfd05a" stroke="#5b3f88" stroke-width="0" stroke-linecap="round"/><path d="M222.49576,250.79493l-4.92711,-2.80238l-0.02015,-10.58627l5.53611,3.18659z" data-paper-data="{&quot;index&quot;:null}" fill="#eff3af" stroke="#5b3f88" stroke-width="0" stroke-linecap="round"/><path d="M199.1933,252.99519c13.83689,-0.28179 25.18133,5.74628 25.3385,13.46406c0.15717,7.71781 -10.93242,14.20272 -24.76932,14.48451c-13.83686,0.28179 -25.18133,-5.74627 -25.3385,-13.46405c-0.15717,-7.71774 10.93242,-14.20273 24.76932,-14.48452z" data-paper-data="{&quot;index&quot;:null}" fill="#c88f12" stroke="none" stroke-width="0" stroke-linecap="butt"/><path d="M199.38093,256.27095c10.12347,-0.20616 18.4356,4.80095 18.56559,11.1837c0.12999,6.38275 -7.97136,11.72413 -18.09487,11.9303c-10.1235,0.20617 -18.43561,-4.80095 -18.56559,-11.1837c-0.12999,-6.38279 7.97137,-11.72413 18.09487,-11.9303z" data-paper-data="{&quot;index&quot;:null}" fill="#8d0000" stroke="#959fb6" stroke-width="0" stroke-linecap="butt"/><path d="M199.66887,257.5259c9.05253,-0.18435 16.48346,4.20564 16.5975,9.80538c0.11404,5.59974 -7.132,10.28865 -16.18453,10.473c-9.05256,0.18436 -16.48346,-4.20565 -16.5975,-9.80538c-0.11404,-5.59974 7.132,-10.28864 16.18453,-10.473z" data-paper-data="{&quot;index&quot;:null}" fill="#9b0000" stroke="#959fb6" stroke-width="0" stroke-linecap="butt"/><path d="M196.46104,272.58903l3.12601,-0.06367l0.10061,4.94007l-3.12601,0.06367z" fill="url(#color-3)" stroke="none" stroke-width="0" stroke-linecap="butt"/><path d="M196.46104,272.58903l2.54367,-0.05181l0.10061,4.94007l-2.54367,0.05181z" fill="url(#color-4)" stroke="none" stroke-width="0" stroke-linecap="butt"/><path d="M199.66887,257.5259l-2.62009,20.10709c0,0 -14.1018,-1.69068 -13.56444,-9.6341c0.37804,-5.58812 16.18453,-10.473 16.18453,-10.473z" data-paper-data="{&quot;index&quot;:null}" fill="#d70002" stroke="#959fb6" stroke-width="0" stroke-linecap="butt"/><path d="M199.88346,257.73186c15.94102,-0.12106 16.48278,9.55677 16.48278,9.55677c0,0 -5.37243,4.48526 -16.39231,5.21704c-10.40301,0.6908 -16.84746,-4.66022 -16.84746,-4.66022c0,0 0.95665,-9.99358 16.75696,-10.11356z" data-paper-data="{&quot;index&quot;:null}" fill="#ff0000" stroke="#959fb6" stroke-width="0" stroke-linecap="butt"/><path d="M179.20909,222.34923l-0.30312,-14.88411c0,0 4.63139,-4.05059 13.45409,-5.89769c8.35808,-1.74983 15.918,1.73881 15.918,1.73881l0.30312,14.88407c0,0 -8.97622,-1.56306 -14.55045,-1.68316c-8.24559,-0.17769 -14.82164,5.84207 -14.82164,5.84207z" fill="#ff0300" stroke="#525465" stroke-width="0.25" stroke-linecap="butt"/><path d="M201.45575,202.09646l0.29301,14.38793" fill="none" stroke="#54444e" stroke-width="0.25" stroke-linecap="round"/><path d="M194.23219,215.6232l-0.87195,-13.67481" fill="none" stroke="#54444e" stroke-width="0.25" stroke-linecap="round"/><path d="M185.64049,204.36076l0.84867,12.53154" fill="none" stroke="#54444e" stroke-width="0.25" stroke-linecap="round"/><path d="M187.56296,243.11864l0.16282,-18.53142l6.78401,5.97l0.24278,20.76281z" fill="#ff1300" stroke="#000000" stroke-width="0" stroke-linecap="round"/><path d="M183.23496,242.7996l-0.69155,-16.27435l5.54238,-1.94533l0.49499,15.46394l5.98351,10.87284l-6.09481,1.34575z" fill="#8d0000" stroke="#000000" stroke-width="0" stroke-linecap="round"/><path d="M229.4182,230.91471l1.97191,16.26918l-11.71588,7.573l-0.59958,-19.96431z" fill="#ff1300" stroke="#000000" stroke-width="0" stroke-linecap="round"/><path d="M233.3495,234.40535l0.21196,15.14699l-10.54654,8.1282l-3.44699,-3.40399l10.37127,-7.25607l-0.61157,-15.81438z" fill="#8d0000" stroke="#000000" stroke-width="0" stroke-linecap="round"/><path d="M259.92862,99.42255l15.23979,-18.38997c0,0 5.701,-4.00557 11.18856,-0.63877c4.44725,2.72849 3.72373,12.00464 3.72373,12.00464l-9.76916,20.33309z" fill="none" stroke="#253253" stroke-width="1" stroke-linecap="round"/><path d="M187.56805,152.97023l-0.60447,-36.90256c0,0 10.45305,-19.87279 50.1488,-21.83883c32.01417,-1.21237 44.87682,18.1919 44.87682,18.1919l2.27236,32.89851c0,0 9.96575,-2.41661 12.38654,4.03316c2.42076,6.44988 1.18132,18.24274 -3.58336,24.796c-3.45763,4.75564 -10.05116,2.36798 -10.05116,2.36798c0,0 -12.52013,16.0233 -41.83852,19.17328c-22.16196,2.38115 -43.01496,-11.12487 -43.01496,-11.12487c0,0 -5.57556,1.59295 -9.774,-0.45914c-5.28207,-2.5817 -11.1969,-14.26616 -9.57445,-25.42656c0.64735,-4.45315 8.75643,-5.709 8.75643,-5.709z" fill="url(#color-5)" stroke="#222433" stroke-width="0.5" stroke-linecap="round"/><path d="M283.59301,169.49902l1.55063,-16.88509c0,0 5.78305,-1.87315 6.66534,1.18488c0.88236,3.05803 0.58654,9.8804 -2.02979,14.87992c-2.61633,4.99959 -6.18626,0.82032 -6.18626,0.82032z" data-paper-data="{&quot;index&quot;:null}" fill="#636887" stroke="#5b5176" stroke-width="0" stroke-linecap="round"/><path d="M193.9382,176.58372c0,0 -3.0535,4.32453 -5.78552,-0.54824c-2.73206,-4.8727 -3.42451,-11.66498 -2.79395,-14.75386c0.63053,-3.08884 6.10669,-1.47288 6.10669,-1.47288l2.47271,16.7749z" data-paper-data="{&quot;index&quot;:null}" fill="#636887" stroke="#5b5176" stroke-width="0" stroke-linecap="round"/><path d="M195.42876,169.7358c-0.93181,-8.46087 1.96334,-14.22075 14.94258,-15.19088c13.58782,-1.01552 48.24205,-0.89007 60.19992,-3.1257c4.42111,-0.82664 12.32682,-0.388 12.04162,13.29838c-0.28515,13.68639 -10.91344,27.5811 -41.58097,29.75157c-30.66753,2.17047 -44.65842,-16.15492 -45.60311,-24.73337z" fill="#607d92" stroke="#5b5176" stroke-width="0" stroke-linecap="round"/><path d="M229.92845,180.4034c-2.99518,6.04017 -11.53183,7.90781 -19.06716,4.17127c-7.53536,-3.7366 -11.21595,-11.66218 -8.2207,-17.70246c2.99518,-6.04017 11.53184,-7.9078 19.06716,-4.17127c7.53536,3.7366 11.21595,11.66221 8.2207,17.70245z" fill="#fd0201" stroke="#954116" stroke-width="0" stroke-linecap="butt"/><path d="M256.04541,160.05024c7.04677,-4.80297 15.88036,-4.11748 19.73036,1.53114c3.85003,5.64855 1.25856,14.12119 -5.78827,18.92416c-7.04677,4.80297 -15.88039,4.11751 -19.73039,-1.53104c-3.85003,-5.64855 -1.25857,-14.1213 5.78827,-18.92426z" data-paper-data="{&quot;index&quot;:null}" fill="#fd0201" stroke="#954116" stroke-width="0" stroke-linecap="butt"/><path d="M278.39696,147.40404c0,0 -11.33474,12.22315 -17.88407,17.36492c-6.30683,4.95143 -20.71185,12.93623 -20.71185,12.93623c0,0 -16.37277,-5.22566 -23.74496,-9.00918c-7.10528,-3.64654 -19.71704,-13.2962 -19.71704,-13.2962" fill="#1b1e39" stroke="#000000" stroke-width="0" stroke-linecap="round"/><path d="M278.39692,147.40404l-38.59589,30.30115l-43.46201,-22.30534" fill="#393f54" stroke="#000000" stroke-width="0" stroke-linecap="round"/><path d="M270.61881,132.11974c2.3832,27.51505 -14.53064,27.85171 -33.14716,28.23084c-18.61651,0.37913 -36.30375,-1.45722 -34.26908,-26.85789c1.21206,-15.13187 14.53071,-27.85171 33.14719,-28.23084c18.61651,-0.37913 32.95743,11.71436 34.26905,26.85789z" fill="url(#color-6)" stroke="#174752" stroke-width="0" stroke-linecap="butt"/><path d="M264.835,185.40899l10.60596,-7.16706l6.87877,-14.21752l-2.64734,-13.14562l4.42803,11.69851l-1.62734,19.34441l-16.39036,10.03632l-39.89631,3.4191l-24.10502,-9.41426l-7.09458,-16.46049l1.72216,-12.94297l0.0504,13.43311l7.14904,12.51558l13.76611,6.03352l7.95783,-2.62387l3.51208,6.82155l6.17349,-7.4243l5.20619,7.19254l5.33876,-7.0018l6.0244,5.95947l6.16523,-7.82959z" fill="#1e1f3d" stroke="#7176a3" stroke-width="0" stroke-linecap="round"/><path d="M264.87157,187.20312l12.55585,-4.58989l5.07974,0.98009l-16.6309,11.53533l-41.2379,4.09046l-24.6438,-9.25004l3.71236,-4.04862l14.00411,4.41019l7.94912,-3.05132l3.49676,6.06886l6.18968,-6.62733l5.19002,6.39559l5.35413,-6.24911l6.01084,5.29532l6.18233,-6.98839z" fill="#7276a3" stroke="#7176a3" stroke-width="0" stroke-linecap="round"/><path d="M264.92366,189.76088l12.54966,-4.89378l5.08128,1.05609l-16.6149,12.3204l-41.23326,4.31839l-24.65774,-9.93382l3.70668,-4.32718l14.01082,4.73938l7.945,-3.25391l3.50552,6.49938l6.1804,-7.08318l5.19931,6.85144l5.34536,-6.67964l6.01858,5.67517l6.17252,-7.4695z" fill="#40425d" stroke="#7176a3" stroke-width="0" stroke-linecap="round"/><path d="M264.95171,191.13812l12.54633,-5.05741l6.04357,-34.50609l-0.96145,35.60313l-11.56507,9.41374l-29.13963,9.92994l-21.73453,-3.67906l-20.06305,-8.78228l-7.88056,-34.99222l11.58419,30.515l14.01443,4.91672l7.94277,-3.36303l3.51024,6.73122l6.1754,-7.32865l5.20431,7.09691l5.34063,-6.91148l6.02275,5.87973l6.16725,-7.72863z" fill="#1e1f3d" stroke="#7176a3" stroke-width="0" stroke-linecap="round"/><path d="M193.43484,168.12726l-1.75064,-7.23264l2.04216,-0.49428l1.75064,7.23261z" fill="#000000" stroke="none" stroke-width="0" stroke-linecap="butt"/><path d="M191.84628,161.93627l-0.28835,-1.19125l2.12724,-0.51488l0.28835,1.19125z" fill="#6f7075" stroke="none" stroke-width="0" stroke-linecap="butt"/><path d="M192.3406,163.97843l-0.37072,-1.53162l2.12724,-0.51488l0.37072,1.53162z" fill="#6f7075" stroke="none" stroke-width="0" stroke-linecap="butt"/><path d="M192.81426,165.93551l-0.32954,-1.36142l2.12724,-0.51489l0.32954,1.36142z" fill="#6f7075" stroke="none" stroke-width="0" stroke-linecap="butt"/><path d="M193.24338,167.70822l-0.3021,-1.24798l2.29745,-0.55611l0.30206,1.24798z" fill="#6f7075" stroke="none" stroke-width="0" stroke-linecap="butt"/><path d="M193.38588,168.04901l-1.60645,-6.63699l0.56727,-0.13733l1.60645,6.63699z" fill="#6f7075" stroke="none" stroke-width="0" stroke-linecap="butt"/><path d="M194.83242,167.6989l-1.60645,-6.63698l0.56731,-0.13729l1.60645,6.63699z" fill="#6f7075" stroke="none" stroke-width="0" stroke-linecap="butt"/><path d="M192.55718,161.32956c0.06824,0.28197 -0.05614,0.55405 -0.27786,0.60771c-0.22169,0.05366 -0.45676,-0.13139 -0.525,-0.41336c-0.06824,-0.28197 0.05618,-0.55405 0.27786,-0.60771c0.22169,-0.05366 0.45676,0.13139 0.525,0.41336z" fill="#b2b1b3" stroke="none" stroke-width="0" stroke-linecap="butt"/><path d="M192.97774,163.40671c0.06824,0.28197 -0.05618,0.55405 -0.2779,0.60771c-0.22169,0.05366 -0.45676,-0.13139 -0.525,-0.41336c-0.06824,-0.28197 0.05618,-0.55405 0.2779,-0.60771c0.22169,-0.05366 0.45676,0.13139 0.525,0.41336z" fill="#b2b1b3" stroke="none" stroke-width="0" stroke-linecap="butt"/><path d="M193.58061,165.72761c0.06824,0.28197 -0.05618,0.55405 -0.27787,0.60771c-0.22169,0.05366 -0.45676,-0.13136 -0.525,-0.41333c-0.06824,-0.28197 0.05618,-0.55408 0.2779,-0.60775c0.22169,-0.05366 0.45676,0.13139 0.52501,0.41336z" fill="#b2b1b3" stroke="none" stroke-width="0" stroke-linecap="butt"/><path d="M193.83194,167.10572c0.06824,0.28197 -0.05615,0.55405 -0.27787,0.60771c-0.22169,0.05366 -0.45676,-0.13139 -0.525,-0.41336c-0.06824,-0.28197 0.05618,-0.55405 0.27787,-0.60771c0.22169,-0.05366 0.45676,0.13139 0.525,0.41336z" fill="#b2b1b3" stroke="none" stroke-width="0" stroke-linecap="butt"/><path d="M281.74157,160.16489l0.84051,-7.39384l2.08768,0.23731l-0.84051,7.39388z" data-paper-data="{&quot;index&quot;:null}" fill="#000000" stroke="none" stroke-width="0" stroke-linecap="butt"/><path d="M282.46338,153.81488l0.13845,-1.2178l2.17468,0.24722l-0.13844,1.21784z" data-paper-data="{&quot;index&quot;:null}" fill="#6f7075" stroke="none" stroke-width="0" stroke-linecap="butt"/><path d="M282.22606,155.90256l0.178,-1.56576l2.17468,0.24718l-0.178,1.56576z" data-paper-data="{&quot;index&quot;:null}" fill="#6f7075" stroke="none" stroke-width="0" stroke-linecap="butt"/><path d="M281.99862,157.90328l0.15822,-1.39176l2.17468,0.24722l-0.15822,1.39176z" data-paper-data="{&quot;index&quot;:null}" fill="#6f7075" stroke="none" stroke-width="0" stroke-linecap="butt"/><path d="M281.61865,159.69569l0.14503,-1.27576l2.34864,0.26695l-0.14506,1.27579z" data-paper-data="{&quot;index&quot;:null}" fill="#6f7075" stroke="none" stroke-width="0" stroke-linecap="butt"/><path d="M283.28819,160.25263l0.77129,-6.78496l0.57995,0.0659l-0.77129,6.785z" data-paper-data="{&quot;index&quot;:null}" fill="#6f7075" stroke="none" stroke-width="0" stroke-linecap="butt"/><path d="M281.8094,160.0845l0.77129,-6.78496l0.57994,0.06589l-0.77128,6.78497z" data-paper-data="{&quot;index&quot;:null}" fill="#6f7075" stroke="none" stroke-width="0" stroke-linecap="butt"/><path d="M284.32714,153.07287c0.22663,0.02572 0.38383,0.28033 0.35108,0.56855c-0.03276,0.28825 -0.24306,0.50105 -0.46972,0.47529c-0.22663,-0.02572 -0.38383,-0.28033 -0.35108,-0.56855c0.03276,-0.28825 0.24306,-0.50105 0.46972,-0.47526z" data-paper-data="{&quot;index&quot;:null}" fill="#b2b1b3" stroke="none" stroke-width="0" stroke-linecap="butt"/><path d="M284.16733,155.1862c0.22663,0.02572 0.38383,0.28033 0.35107,0.56858c-0.03276,0.28825 -0.24306,0.50102 -0.46972,0.47522c-0.22663,-0.02572 -0.38383,-0.2803 -0.35107,-0.56855c0.03276,-0.28825 0.24306,-0.50105 0.46972,-0.47529z" data-paper-data="{&quot;index&quot;:null}" fill="#b2b1b3" stroke="none" stroke-width="0" stroke-linecap="butt"/><path d="M283.85682,157.5639c0.22663,0.02572 0.38383,0.28033 0.35108,0.56859c-0.03276,0.28825 -0.24306,0.50101 -0.46972,0.47526c-0.22663,-0.02572 -0.38383,-0.28033 -0.35107,-0.56859c0.03276,-0.28825 0.24305,-0.50101 0.46971,-0.47526z" data-paper-data="{&quot;index&quot;:null}" fill="#b2b1b3" stroke="none" stroke-width="0" stroke-linecap="butt"/><path d="M283.77826,158.96254c0.22663,0.02572 0.38383,0.28033 0.35108,0.56855c-0.03276,0.28825 -0.24306,0.50105 -0.46972,0.47529c-0.22663,-0.02572 -0.3838,-0.28033 -0.35104,-0.56855c0.03276,-0.28825 0.24305,-0.50105 0.46968,-0.47526z" data-paper-data="{&quot;index&quot;:null}" fill="#b2b1b3" stroke="none" stroke-width="0" stroke-linecap="butt"/><path d="M272.69773,109.17184c-1.41499,1.65884 -5.44841,0.54155 -9.00884,-2.49553c-3.56043,-3.03708 -5.29966,-6.84383 -3.88467,-8.50267c1.41499,-1.65884 5.44841,-0.54159 9.00885,2.49545c3.56043,3.03708 5.29969,6.84384 3.88466,8.50271z" fill="#8281b2" stroke="none" stroke-width="0" stroke-linecap="butt"/><path d="M263.34795,106.23498c3.52153,2.64217 8.98426,3.05487 8.98426,3.05487l-3.05363,3.15612c0,0 -6.64739,1.33263 -9.79501,-1.64731c-3.40947,-3.22787 -4.62276,-6.76526 -4.62276,-6.76526l4.88702,-6.16745c0,0 -0.71371,5.13238 3.60016,8.36903z" fill="#3d3c74" stroke="#818102" stroke-width="0" stroke-linecap="round"/><path d="M260.98993,98.94182l14.17847,-17.90931c0,0 5.70101,-4.00557 11.18856,-0.63877c4.44725,2.72849 3.72373,12.00464 3.72373,12.00464l-9.76916,20.33309l-6.4326,-4.96618l-1.70159,-1.32044c0,0 -4.19272,-0.59043 -6.68672,-2.26376c-2.09008,-1.40236 -4.50073,-5.23928 -4.50073,-5.23928z" fill="#ff1300" stroke="#253253" stroke-width="0" stroke-linecap="round"/><path d="M272.35532,108.06409l11.10357,-19.14081l-9.51719,19.20219" fill="#840000" stroke="#840000" stroke-width="0" stroke-linecap="round"/><path d="M274.14334,104.47648l-8.77777,-8.94887" fill="none" stroke="#a10100" stroke-width="0.5" stroke-linecap="round"/><path d="M269.50696,89.47476c0,0 4.25125,0.47794 6.12061,2.19377c1.86935,1.71587 2.50644,5.30537 2.50644,5.30537" fill="none" stroke="#a10100" stroke-width="0.5" stroke-linecap="round"/><path d="M274.47778,82.99156l6.35717,2.70739l2.07592,3.79514" fill="none" stroke="#a10100" stroke-width="0.25" stroke-linecap="round"/><path d="M287.18059,97.38117l-9.04083,2.10973" fill="none" stroke="#a10100" stroke-width="0.25" stroke-linecap="round"/><path d="M284.20654,104.78306l-6.85431,-1.66479" fill="none" stroke="#a10100" stroke-width="0.25" stroke-linecap="round"/><path d="M283.08368,90.1301l3.68729,6.2175" fill="none" stroke="#a10100" stroke-width="0.25" stroke-linecap="round"/><path d="M276.23499,102.93124c0,0 1.92006,0.92894 2.74696,1.4424c2.60165,1.61545 4.37147,4.93733 4.37147,4.93733l-2.97178,3.46609l-6.75752,-4.89066z" fill="#3d3c74" stroke="#818102" stroke-width="0" stroke-linecap="round"/></g></g></svg>