<svg version="1.1" xmlns="http://www.w3.org/2000/svg" xmlns:xlink="http://www.w3.org/1999/xlink" width="91.33026" height="78.26587" viewBox="0,0,91.33026,78.26587"><defs><radialGradient cx="209.45329" cy="151.18498" r="3.85067" gradientUnits="userSpaceOnUse" id="color-1"><stop offset="0" stop-color="#fdd25b"/><stop offset="1" stop-color="#ffb83a"/></radialGradient><radialGradient cx="270.54674" cy="151.06928" r="3.85067" gradientUnits="userSpaceOnUse" id="color-2"><stop offset="0" stop-color="#fdd25b"/><stop offset="1" stop-color="#ffb83a"/></radialGradient><radialGradient cx="270.31532" cy="202.67471" r="3.85067" gradientUnits="userSpaceOnUse" id="color-3"><stop offset="0" stop-color="#fdd25b"/><stop offset="1" stop-color="#ffb83a"/></radialGradient><radialGradient cx="209.45329" cy="202.55902" r="3.85067" gradientUnits="userSpaceOnUse" id="color-4"><stop offset="0" stop-color="#fdd25b"/><stop offset="1" stop-color="#ffb83a"/></radialGradient></defs><g transform="translate(-194.33487,-140.9249)"><g data-paper-data="{&quot;isPaintingLayer&quot;:true}" fill-rule="nonzero" stroke-width="0.5" stroke-linecap="butt" stroke-linejoin="miter" stroke-miterlimit="10" stroke-dasharray="" stroke-dashoffset="0" style="mix-blend-mode: normal"><path d="M194.5849,210.66105c0,-16.57946 0,-53.026 0,-61.89422c0,-3.80856 4.49564,-7.59193 9.0024,-7.59193c10.40093,0 52.82656,0 72.1536,0c5.92112,0 9.6742,3.70649 9.6742,7.45617c0,8.87189 0,45.81268 0,62.30142c0,4.9114 -5.19084,8.00826 -10.21167,8.00826c-11.07018,0 -54.40885,0 -72.55669,0c-4.97901,0 -8.06187,-3.21163 -8.06187,-8.27971z" fill="none" stroke="#756022"/><path d="M194.58488,210.66105c0,-16.57949 0,-53.026 0,-61.89422c0,-3.80856 4.49566,-7.59193 9.00242,-7.59193c10.40093,0 52.82656,0 72.1536,0c5.92112,0 9.67422,3.70649 9.67422,7.4562c0,8.87189 0,45.81267 0,62.30142c0,4.9114 -5.19084,8.00826 -10.2117,8.00826c-11.07018,0 -54.40885,0 -72.55669,0c-4.97901,0 -8.06187,-3.21166 -8.06187,-8.27972z" fill="#fcba0d" stroke="#000000"/><path d="M198.05611,205.16918c0,-15.2967 0,-48.92338 0,-57.10545c0,-3.51389 4.15204,-7.00452 8.31434,-7.00452c9.60595,0 48.78887,0 66.63867,0c5.46855,0 8.93479,3.41971 8.93479,6.87931c0,8.18548 0,42.26814 0,57.48114c0,4.5314 -4.79408,7.38864 -9.43117,7.38864c-10.22403,0 -50.25022,0 -67.01095,0c-4.59845,0 -7.44566,-2.96316 -7.44566,-7.63913z" fill="#fed200" stroke="none"/><path d="M201.18023,203.03418c0,-14.10872 0,-45.1238 0,-52.67042c0,-3.24098 3.81987,-6.46053 7.64918,-6.46053c8.83747,0 44.88574,0 61.30758,0c5.03107,0 8.21999,3.15413 8.21999,6.34501c0,7.54978 0,38.98544 0,53.01694c0,4.17948 -4.41054,6.81482 -8.67667,6.81482c-9.40612,0 -46.2302,0 -61.65008,0c-4.2306,0 -6.85003,-2.73301 -6.85003,-7.04583z" fill="#6a6a69" stroke="none"/><path d="M224.15454,195.19232v-36.76922h9.47514v36.76922z" fill="#ffffff" stroke="none"/><path d="M233.34684,179.91895v-5.93966h14.00058v5.93966z" fill="#ffffff" stroke="none"/><path d="M246.21607,195.19232v-36.76922h9.47514v36.76922z" fill="#ffffff" stroke="none"/><path d="M205.60262,151.18498c0,-1.98098 1.72404,-3.5869 3.8507,-3.5869c2.12666,0 3.85067,1.60592 3.85067,3.5869c0,1.98098 -1.72401,3.58695 -3.85067,3.58695c-2.12666,0 -3.8507,-1.60597 -3.8507,-3.58695z" fill="url(#color-1)" stroke="none"/><path d="M207.65982,151.06928c0,-1.02245 0.82889,-1.85131 1.85133,-1.85131c1.02245,0 1.85131,0.82886 1.85131,1.85131c0,1.02245 -0.82886,1.85131 -1.85131,1.85131c-1.02245,0 -1.85133,-0.82886 -1.85133,-1.85131z" fill="#fdd25b" stroke="none"/><path d="M266.69607,151.06926c0,-1.98098 1.72403,-3.58692 3.85069,-3.58692c2.12666,0 3.85067,1.60592 3.85067,3.58692c0,1.98098 -1.72401,3.58695 -3.85067,3.58695c-2.12666,0 -3.85069,-1.60597 -3.85069,-3.58695z" fill="url(#color-2)" stroke="none"/><path d="M268.75327,150.95356c0,-1.02245 0.82888,-1.85132 1.85133,-1.85132c1.02245,0 1.85131,0.82886 1.85131,1.85132c0,1.02245 -0.82886,1.85131 -1.85131,1.85131c-1.02245,0 -1.85133,-0.82886 -1.85133,-1.85131z" fill="#fdd25b" stroke="none"/><path d="M266.46466,202.67471c0,-1.98098 1.72401,-3.58692 3.85067,-3.58692c2.12666,0 3.85067,1.60592 3.85067,3.58692c0,1.98098 -1.72401,3.58695 -3.85067,3.58695c-2.12666,0 -3.85067,-1.60597 -3.85067,-3.58695z" fill="url(#color-3)" stroke="none"/><path d="M268.52185,202.55902c0,-1.02245 0.82886,-1.85131 1.85131,-1.85131c1.02245,0 1.85131,0.82886 1.85131,1.85131c0,1.02245 -0.82886,1.85132 -1.85131,1.85132c-1.02245,0 -1.85131,-0.82886 -1.85131,-1.85132z" fill="#fdd25b" stroke="none"/><path d="M205.60262,202.55899c0,-1.98098 1.72404,-3.5869 3.8507,-3.5869c2.12666,0 3.85067,1.60592 3.85067,3.5869c0,1.98098 -1.72401,3.58695 -3.85067,3.58695c-2.12666,0 -3.8507,-1.60597 -3.8507,-3.58695z" fill="url(#color-4)" stroke="none"/><path d="M207.65982,202.4433c0,-1.02245 0.82889,-1.85131 1.85133,-1.85131c1.02245,0 1.85131,0.82886 1.85131,1.85131c0,1.02245 -0.82886,1.85131 -1.85131,1.85131c-1.02245,0 -1.85133,-0.82886 -1.85133,-1.85131z" fill="#fdd25b" stroke="none"/><path d="M207.66051,176.68903c0.11643,-15.5282 14.71563,-28.03434 32.60819,-27.9333c17.89257,0.10103 32.30296,12.77106 32.18652,28.29923c-0.11644,15.5282 -14.7156,28.03435 -32.60817,27.93333c-17.89256,-0.10103 -32.30295,-12.77108 -32.18652,-28.29925z" fill="none" stroke="#fed103"/></g></g></svg>