<svg version="1.1" xmlns="http://www.w3.org/2000/svg" xmlns:xlink="http://www.w3.org/1999/xlink" width="87.36257" height="123.91842" viewBox="0,0,87.36257,123.91842"><g transform="translate(-196.09651,-118.04079)"><g data-paper-data="{&quot;isPaintingLayer&quot;:true}" fill-rule="nonzero" stroke="none" stroke-width="0.5" stroke-linecap="butt" stroke-linejoin="miter" stroke-miterlimit="10" stroke-dasharray="" stroke-dashoffset="0" style="mix-blend-mode: normal"><path d="M220.18236,134.16927c-0.05348,-0.14087 -0.08531,-0.30849 -0.08531,-0.50793c0,-1.25 1.25,-1.25 1.25,-1.25l0.28576,0.0894c5.29019,-2.09411 11.04003,-2.74822 16.59107,-3.83332c7.73891,-0.029 16.03089,2.43518 22.92862,5.87411c2.55357,1.27311 4.76406,3.00612 7.32196,4.28867c2.13049,1.4279 4.89013,2.26052 6.59374,4.30774c5.09042,6.1171 11.37491,19.12796 3.42167,25.41245c0.67663,0.28565 1.85214,0.87751 2.17618,1.16664c0.11652,0.10397 0.22953,0.20726 0.33919,0.31032c-0.05921,0.07524 -0.11582,0.15308 -0.1696,0.23375c-0.60495,0.90742 0.1477,2.15088 0.19967,3.26373c-0.00181,0.0028 -0.00361,0.0056 -0.0054,0.0084c-1.78811,2.80988 -1.34064,13.33153 -3.04831,15.23593c-1.40283,1.56445 -3.6916,3.56882 -3.93098,5.96409c-1.01003,-0.49576 -2.31693,-0.6313 -3.1316,-0.21045c-0.74534,0.38504 -1.14436,1.22752 -1.73833,1.81996c-3.17064,2.53652 -5.84131,5.38897 -8.69976,8.20247c-1.00212,0.98636 -1.39401,2.73714 -2.55663,3.55322c-0.80778,0.567 -1.6697,1.25284 -2.65493,1.31048c-0.40364,0.02362 -2.56755,-2.17206 -2.89582,-2.02855c-1.09113,0.47701 -0.27751,2.39983 -2.72264,1.44864c-1.3037,-0.50716 -1.29863,-3.98724 -1.30072,-5.07906c-0.27349,-1.88965 -1.08018,-3.98135 0.33739,-5.69615c1.11014,-1.34291 4.23924,-1.52616 5.7538,-2.07481c1.68508,-0.61042 3.71365,-1.60142 5.20818,-2.60497c4.1287,-2.77233 6.26314,-6.41392 7.21797,-11.18804c0.58182,-3.49322 1.74001,-8.63413 0.10971,-11.9692c-1.97179,-4.03366 -10.79756,-4.55481 -14.16659,-2.52917c-3.4228,2.74176 -7.37153,6.74478 -9.96361,10.22372c-0.8964,1.20309 -2.60091,4.43438 -4.42677,4.23743c-0.71165,-0.07676 -2.06447,-2.20403 -2.50633,-2.77844c-1.73654,-2.25743 -3.73609,-4.92682 -6.21002,-6.38714c-3.77003,-2.26201 -7.74239,-5.21713 -12.10202,-6.09614c-1.10755,-0.22331 -2.94002,-0.64 -3.76271,0.53463c-1.18125,1.68659 -1.24634,4.75656 -1.24214,6.73965c0.00303,1.43253 -0.03732,2.72065 0.24391,4.12682c0.0075,2.30735 -0.35818,4.91572 -0.00599,7.19979c1.58913,10.30617 12.00982,8.97267 19.82109,10.30534c0.53195,0.54656 1.2932,0.93961 1.59584,1.63968c1.40783,3.2567 -1.98384,3.60983 -3.79245,4.56806c-0.84567,0.44805 -1.06887,1.75456 -1.96335,2.09488c-0.70541,0.26838 -1.65829,-0.86678 -2.2326,-0.37708c-1.35335,1.15398 -2.36203,4.95677 -4.77869,4.63886c-0.42313,-0.05566 -2.07423,-4.40414 -2.34746,-4.89543c-0.32143,-0.57797 -2.89753,-0.13564 -3.74062,-0.9889c-0.70171,-0.71016 -0.49017,-1.94008 -0.84324,-2.87392c-0.78693,-1.2143 -1.70139,0.76477 -3.34033,-0.80423c-1.27131,-1.21705 -0.15035,-2.96811 -0.72758,-4.3119c-0.50755,-1.18158 -2.62912,-0.88172 -3.44605,-2.15551c-0.80374,-1.25323 -0.31327,-2.94867 -0.43823,-4.31337c-0.4001,-4.36954 -1.75,-8.90256 -1.75,-13.25c-0.37927,-2.2342 -0.75359,-4.73652 -2.04781,-6.66499c-1.27408,-1.89846 -3.36453,-3.28725 -4.34209,-5.41579c-2.49892,-5.44115 -0.57487,-11.93992 2.95423,-16.35597c5.38391,-5.39781 11.10204,-10.91706 18.76672,-12.15841z" fill="#0054a0"/><path d="M197.47531,157.87802c-2.13186,-4.44361 1.26754,-9.56478 3.50042,-14.03055c1.79432,-3.13895 3.42547,-6.10877 6.00942,-8.68518c5.05764,-5.04289 14.70315,-8.35551 21.60549,-9.34156c2.75515,-0.91384 7.43384,-1.99491 10.33516,-1.83252c3.9775,0.22262 8.1116,2.32623 11.77414,3.67251c5.66933,2.08392 11.07161,3.82732 16.2237,7.10633c2.35792,1.34866 5.59391,3.01208 7.33655,5.09729c0.20057,0.24 1.29944,2.96616 1.64333,3.4585c1.66244,2.38005 3.83162,4.2735 5.10515,6.98183c1.92974,4.10385 2.78192,10.72464 0.33055,14.79287c-0.88972,1.47656 -2.39004,2.2382 -3.67081,3.30798c-2.78098,2.2028 -6.58363,3.60379 -10.14462,2.63059c-1.58424,-0.43297 -3.50255,-3.17754 -5.00979,-3.1596c-7.03306,0.08373 -13.18535,5.68031 -18.28219,9.75778c-0.87858,0.62451 -4.46443,4.81692 -5.01331,4.8516c-1.28322,0.08106 -1.57898,-2.15924 -2.15473,-2.9177c-1.52818,-2.01313 -2.97936,-3.90387 -4.4,-6c-2.60665,-3.84605 -9.37793,-5.68939 -13.53543,-6.73074c-1.50607,-0.50677 -4.42806,-1.63085 -6.01465,-1.02861c-2.05511,0.7801 -3.56182,3.80692 -5.86995,4.06739c-1.74372,0.19678 -2.33281,-0.95056 -3.39957,-1.90753c-2.85939,-2.56511 -3.89418,-5.74234 -6.31542,-8.51792c0,0 -0.69306,-0.80857 -0.05345,-1.57277z" fill="#854413"/><path d="M216.11618,232.38046c-0.97609,-0.78087 -0.19522,-1.75695 -0.19522,-1.75695c2.48096,-3.09393 4.78126,-4.41575 8.42357,-2.00644c1.12966,0.74725 1.86378,1.4418 2.62617,2.64719c0.2394,0.37851 0.46632,0.79077 0.5719,1.22629c1.04907,-1.47904 3.71912,-2.59533 5.03361,-3.0443l1.32569,-0.2676c0,0 0.1967,-0.03934 0.44827,-0.0077c-0.02061,-3.77545 0.02006,-7.53764 1.95717,-10.87898c1.95461,-3.37152 5.77816,-2.94936 7.66971,0.23305c0.92311,1.55306 0.66999,3.16779 0.66999,4.87935c0,0.755 0.00115,1.50432 0.00259,2.25h0.24741c1.89524,0.00445 4.83265,1.0185 6.59433,0.31766c1.36143,-0.54161 5.60106,-3.52511 6.89596,-3.29434c2.4869,0.44318 3.00581,5.82885 3.00362,7.59986c-1.0141,4.16715 -7.56191,6.23924 -11.39443,7.32698c-2.1707,0.61609 -4.167,1.1638 -5.96945,-0.55257c-3.27818,-3.12162 -1.88003,-9.57068 -1.88003,-13.64758c0,-0.92124 0.16421,-1.85334 0.02255,-2.76362c-0.22381,-1.43819 -1.86461,-3.03739 -3.18538,-1.80814c-0.89652,0.8344 -1.64813,3.10565 -1.85331,4.27198c-0.81322,4.62264 0.17114,9.39857 -0.75813,14.04492c-0.35567,1.67098 -1.00627,3.45384 -2.6359,4.35695c-1.20426,0.66738 -3.02287,0.40047 -4.33982,0.39791c-3.42306,-0.00667 -8.91578,-0.59734 -11.59931,-3.08285c-1.67696,-1.55321 -1.29335,-3.95683 -1.63368,-5.96165c0,0 -0.03212,-0.19273 0.00523,-0.4385c-0.01764,-0.01307 -0.03534,-0.0267 -0.05311,-0.04092z" fill="#8f827b"/><path d="M219.60381,228.1371c-0.04679,-0.03736 -0.09372,-0.0793 -0.14064,-0.12622c-0.88388,-0.88388 0,-1.76777 0,-1.76777l0.38388,-0.36612c1.68368,-1.21791 2.02333,-3.67434 4.10472,-4.43585c1.13274,-0.41444 2.83859,0.05186 4.04218,-0.05989c2.24332,-0.20827 4.40421,-0.52309 6.66212,-0.37229c0.47001,0.61384 1.16155,1.10943 1.41002,1.84152c0.17837,0.52555 -0.18147,1.09641 -0.22512,1.64968c-0.13077,1.65768 0.5581,4.35358 -0.08907,5.85518c-0.80855,1.87607 -2.61899,1.80494 -4.19061,2.43224c-1.04429,0.41682 -2.52427,1.13732 -3.67913,0.74974c-0.76578,-0.257 -1.33716,-1.69462 -1.91899,-2.27645c-1.54847,-1.54847 -3.31645,-1.74946 -5.36126,-2.15816c0,0 -0.87283,-0.17457 -0.9981,-0.96562z" fill="#8e613d"/><path d="M258.33379,227.4301c-2.04481,0.40869 -3.81279,0.60969 -5.36126,2.15816c-0.58183,0.58183 -1.15321,2.01944 -1.91899,2.27644c-1.15487,0.38758 -2.63485,-0.33292 -3.67914,-0.74974c-1.57162,-0.6273 -3.38206,-0.55616 -4.19061,-2.43224c-0.64717,-1.50161 0.04171,-4.19751 -0.08906,-5.85519c-0.04364,-0.55327 -0.40349,-1.12414 -0.22512,-1.64968c0.24847,-0.7321 0.94002,-1.22768 1.41002,-1.84152c2.2579,-0.1508 4.41879,0.16403 6.66212,0.3723c1.2036,0.11175 2.90944,-0.35455 4.04218,0.05989c2.08139,0.76152 2.42103,3.21795 4.10471,4.43585l0.38388,0.36612c0,0 0.88388,0.88389 0,1.76777c-0.04692,0.04692 -0.09385,0.08887 -0.14065,0.12622c-0.12527,0.79106 -0.99809,0.96562 -0.99809,0.96562z" data-paper-data="{&quot;index&quot;:null}" fill="#8e613d"/><path d="M265.39352,166.0471c0.14895,0.09297 -1.16259,1.78144 -1.16259,1.78144l0.10675,0.12309c0.00779,0.00715 0.01558,0.01432 0.02336,0.0215c1.03964,0.79654 3.07016,0.70221 3.72508,1.68786c2.78185,4.18667 1.19545,10.81658 0.2091,15.65761c-2.08245,5.25633 -4.72854,9.15912 -9.83577,11.98352c-2.31644,1.28104 -4.99674,1.9067 -7.61241,1.91029c-0.26285,0.00036 -3.03028,-0.28126 -3.3129,0.07725c-0.57509,0.72951 -0.69412,1.75187 -1.27063,2.48026c-3.84722,0.93624 -12.13308,1.87482 -15.30035,-1.17363c-1.30061,-1.25181 -1.34941,-3.21844 -3.13844,-3.99824c-3.56209,-1.55265 -7.11948,-1.40384 -10.42517,-3.84833c-4.45731,-2.67439 -9.09551,-7.74586 -9.54825,-13.18421c-0.41384,-4.97109 2.88027,-12.80578 8.16241,-12.93643c5.07967,0 13.37007,-0.54168 17.6026,2.84808c1.56121,1.25035 3.20506,3.42203 4.46599,4.96599c0.51725,0.63335 1.04886,1.27511 1.44243,1.9907c0.21159,-0.84798 1.11263,-1.60842 1.58415,-2.23696c1.1463,-1.43315 2.27413,-3.45236 3.65099,-4.66272c5.47597,-4.81377 13.5946,-6.69312 19.23364,-1.88707z" fill="#7c829c"/><path d="M222.59249,222.69288c-0.61108,0.10831 -1.09646,-0.37708 -1.09646,-0.37708l-1.15355,-1.86066c0.41288,-2.89016 0.39812,-5.43896 -0.00942,-8.33461c0,-6.20486 3.80713,-8.60382 8.94681,-10.83423c1.47768,-0.64125 2.55174,-1.58745 4.02169,-2.20923c3.8295,-1.61983 8.63827,-1.98486 12.69044,-2.88094c3.04723,-0.24807 6.69998,-0.21049 9.21746,1.91596c2.86343,2.41867 4.67365,9.91613 3.98702,13.60703c-0.28381,1.52557 -2.06748,3.56745 -2.85556,4.78898c-0.4131,0.64031 -2.73421,4.31352 -3.16291,4.62145c-0.51853,0.37246 -1.27457,0.08223 -1.90948,0.14923c-2.68029,0.28283 -4.91969,0.5103 -7.37249,-0.76297c-0.29832,-0.54535 -1.02412,-2.65646 -1.81245,-2.93665c-1.53958,-0.54718 -3.92823,0.00864 -4.88961,1.38365c-0.8847,1.26534 -0.87986,3.21331 -2.47257,3.99574c-0.32859,0.16142 -3.33941,0.12337 -3.74149,0.12337c-2.83092,0 -5.57668,-0.04908 -8.38742,-0.38904z" fill="#004483"/><path d="M263.62621,133.86899c-0.28733,-0.20761 -0.81847,-0.73269 -0.3972,-1.57524c0.10411,-0.20823 0.22762,-0.35828 0.35968,-0.46461c-1.46035,-3.63393 -3.54421,-8.58422 -1.53519,-11.41448c1.41879,-1.99877 3.62126,-2.15008 5.40615,-0.46655c1.89024,1.78289 3.23059,5.80498 3.33818,8.36957c1.22848,-0.37949 2.25004,-0.48083 3.54922,-0.46492c3.30624,0.04049 5.86701,2.61087 4.39114,6.01022c-1.06717,2.458 -3.75608,3.7474 -5.48307,5.5988c-0.53206,0.57039 -1.55629,3.00503 -1.07031,3.77511c0.46652,0.73926 3.695,1.59216 4.54613,2.23199c1.08499,1.43203 2.88578,4.17128 2.33515,6.16039c-0.59854,2.16217 -4.12678,3.33123 -6.11432,2.65935c-2.24461,-0.75878 -3.2722,-3.54321 -4.02312,-5.49163c-0.80397,-2.08608 -1.65624,-3.88834 -2.86891,-5.74674c-0.45742,-0.701 -1.34851,-1.05797 -1.7702,-1.78102c-0.71472,-1.22553 -0.44249,-3.06647 -0.44249,-4.41647c0.00554,-1.02491 -0.15365,-1.98291 -0.22084,-2.98378z" fill="#379a2d"/><path d="M263.56519,141.10385c0.02053,-0.00108 0.03186,-0.00108 0.03186,-0.00108l1.25,0.25c5.89193,4.41895 5.75243,10.84442 1.5,16.5c-0.9099,1.21013 -2.87017,3.97434 -4.56912,3.99809c-0.99167,0.01386 -1.41343,-1.61918 -2.39422,-1.76643c-0.68069,-0.10219 -1.36203,0.25576 -2.05027,0.24579c-0.60796,0.15871 -1.22814,0.67585 -1.82389,0.47613c-0.91881,-0.30802 -1.07521,-1.61253 -1.61328,-2.41849c-0.48737,-0.73002 -1.96493,1.0333 -2.59859,0.42591c-1.17934,-1.13044 0.70215,-4.91662 1.15357,-5.96064c2.16208,-5.00029 7.17131,-6.7018 9.82394,-11.14348c0,0 0.47541,-0.79237 1.29,-0.6058z" fill="#5c492b"/><path d="M216.73635,136.10277c0,1.35 0.27224,3.19093 -0.44249,4.41646c-0.42169,0.72306 -1.31278,1.08003 -1.7702,1.78102c-1.21267,1.85839 -2.06493,3.66065 -2.86891,5.74673c-0.75092,1.94842 -1.7785,4.73284 -4.02312,5.49163c-1.98754,0.67189 -5.51578,-0.49717 -6.11432,-2.65934c-0.55063,-1.98912 1.25016,-4.72836 2.33515,-6.16039c0.85113,-0.63983 4.07962,-1.49273 4.54613,-2.23199c0.48597,-0.77009 -0.53826,-3.20473 -1.07031,-3.77511c-1.72699,-1.85141 -4.4159,-3.14081 -5.48307,-5.59881c-1.47587,-3.39935 1.0849,-5.96972 4.39114,-6.01022c1.29918,-0.01591 2.32074,0.08543 3.54922,0.46492c0.1076,-2.56459 1.44794,-6.58669 3.33818,-8.36957c1.7849,-1.68353 3.98736,-1.53222 5.40615,0.46655c2.00902,2.83026 -0.07484,7.78055 -1.53519,11.41448c0.13206,0.10633 0.25557,0.25638 0.35968,0.46461c0.42127,0.84255 -0.10987,1.36763 -0.3972,1.57524c-0.06719,1.00087 -0.22638,1.95887 -0.22084,2.98378z" data-paper-data="{&quot;index&quot;:null}" fill="#379a2d"/><path d="M218.30822,140.95965c2.65263,4.44167 7.66185,6.14318 9.82394,11.14347c0.45142,1.04402 2.3329,4.8302 1.15357,5.96064c-0.63366,0.60739 -2.11122,-1.15592 -2.59859,-0.42591c-0.53807,0.80596 -0.69448,2.11047 -1.61329,2.41849c-0.59575,0.19972 -1.21592,-0.31742 -1.82389,-0.47613c-0.68824,0.00997 -1.36958,-0.34798 -2.05027,-0.24579c-0.98078,0.14724 -1.40254,1.78029 -2.39422,1.76643c-1.69895,-0.02374 -3.65923,-2.78796 -4.56912,-3.99809c-4.25243,-5.65558 -4.39193,-12.08105 1.5,-16.5l1.25,-0.25c0,0 0.01134,0 0.03186,0.00108c0.81459,-0.18657 1.29,0.6058 1.29,0.6058z" data-paper-data="{&quot;index&quot;:null}" fill="#5c492b"/><path d="M274.03467,173.04583c2.35853,1.82656 3.91212,3.53944 5.47828,6.21585c0.04446,0.20889 0.08694,0.42348 0.12608,0.64245c-0.21993,2.0517 -0.39871,4.19458 -0.68076,5.89159c-0.28377,0.42989 -0.64553,0.82134 -1.10086,1.15885c-1.86034,1.37898 -7.02865,0.96822 -8.34811,-1.12627c-0.56287,-0.8935 0.01425,-2.53644 0.09201,-3.46897c0.23443,-2.81151 1.23091,-5.33105 1.81457,-8.06177c-0.26334,-0.2706 -0.51628,-0.73531 -0.18687,-1.39415c0.35475,-0.70951 0.93463,-0.74363 1.31104,-0.67384c0.14716,-0.02913 0.3169,-0.03273 0.51249,-0.00014c0.62888,0.10481 0.88354,0.47692 0.98213,0.8164z" fill="#7c829c"/><path d="M205.85181,176.47082c0.08251,0.06111 0.12912,0.10772 0.12912,0.10772l1.09184,1.38874c0.48262,2.47103 2.42626,6.00883 1.16541,8.50536c-1.90987,3.78161 -6.18476,1.01315 -7.08931,-1.90403c-0.95582,-3.08253 0.65354,-6.17489 2.44818,-8.60618c0,0 0.75,-1 1.75,-0.25c0.32109,0.24082 0.46176,0.50741 0.50476,0.7584z" fill="#7c829c"/><path d="M203.31691,200.56505c-0.37154,0.08106 -1.00819,0.08416 -1.37516,-0.68033c-0.54093,-1.1269 0.58596,-1.66783 0.58596,-1.66783l1.22028,-0.58308c6.13373,-2.06189 13.24056,-3.14644 19.58615,-1.45574c3.96014,2.72369 4.74433,7.70347 4.34291,12.28858c-0.09807,1.12021 0.12415,2.32866 -0.33018,3.35729c-0.55928,1.26626 -2.08353,1.89469 -2.60424,3.22523c-1.30331,3.33038 -0.45059,8.01829 -5.81788,7.25938c-0.52501,-0.07423 -1.01878,-0.29434 -1.52818,-0.4415c-0.1174,-0.07016 -2.1728,-1.3242 -2.40096,-1.36625c-1.39915,-0.2579 -1.89253,0.69571 -3.3557,-0.00122c-1.86561,-0.88861 -3.34791,-4.02339 -4.3997,-5.63452c-3.09545,-4.74158 -2.81515,-9.1345 -3.9233,-14.3z" fill="#854413"/><path d="M267.56287,221.88788c-1.69968,0.90172 -4.51291,2.92898 -6.5756,2.80476c-1.61773,-0.09742 -1.58853,-1.17071 -2.93795,-1.62146c-0.22005,-0.07351 -2.62556,0.03037 -2.76225,0.03501c-0.51704,-0.11748 -1.0557,-0.16356 -1.55114,-0.35244c-5.06512,-1.93086 -2.052,-5.62206 -1.58255,-9.16743c0.18755,-1.41644 -0.84282,-2.70352 -0.72012,-4.08235c0.09967,-1.12007 0.87849,-2.07043 1.33429,-3.0984c1.8656,-4.2076 4.95983,-8.18739 9.74323,-8.65674c6.37201,1.58828 12.06846,5.9739 16.44056,10.74452l0.77541,1.08529c-0.14244,0.07903 -0.28227,0.16797 -0.41912,0.26755c-0.67168,0.48877 -4.25668,2.89244 -5.46821,4.32609c-1.10656,1.30943 -1.72332,2.8479 -1.93643,4.46417c-1.19536,1.2106 -2.5728,2.31386 -4.34013,3.25146z" data-paper-data="{&quot;index&quot;:null}" fill="#854413"/><path d="M208.92772,222.50219c-0.31969,0.02429 -0.69699,-0.07706 -1.02666,-0.5153c-0.75143,-0.99893 0.24749,-1.75036 0.24749,-1.75036l0.41028,-0.27826c2.04182,-0.97067 5.07149,-1.99443 7.36371,-1.67031c0.61408,0.08683 4.89433,2.33083 5.12554,1.96315c0.70095,-1.11469 0.77396,-3.30144 1.35018,-4.58931c1.11785,-2.49845 3.00526,-4.10268 3.78402,-6.8011c0.50362,-1.66295 -0.4743,-5.4327 2.44604,-5.55235c0.79367,-0.03252 1.25911,0.98803 1.76734,1.59849c1.02786,1.23464 2.02114,3.95768 2.44264,5.45786c1.10233,3.92326 0.39626,8.23618 -0.00522,12.22569c-0.06515,0.64745 -0.19524,4.06323 -0.59876,4.74853c-1.01714,1.72744 -2.6959,1.38696 -4.29718,1.33832c-0.12518,-0.06305 0.68242,1.91465 -0.82128,2.92815c-0.1837,0.12382 -2.74453,-0.35597 -3.29022,-0.39445c-5.97367,-0.42113 -11.24313,-4.11767 -14.89796,-8.70876z" fill="#9cca41"/><path d="M245.08593,228.90864c-0.49627,-0.23018 -2.96983,-1.0484 -3.07077,-1.2456c-0.82619,-1.61423 0.83699,-2.9549 0.69693,-2.96022c-1.42516,-0.73167 -3.05928,-1.24534 -3.11436,-3.24923c-0.02185,-0.79496 1.51586,-3.84781 1.77189,-4.44605c1.57757,-3.68628 3.04488,-7.80293 5.90676,-10.70409c1.09433,-1.10936 3.28042,-3.01266 4.77711,-3.59639c0.74004,-0.28862 1.64092,-0.95689 2.31992,-0.54467c2.49842,1.51676 -0.18033,4.34371 -0.54356,6.04285c-0.62306,2.73856 0.25337,5.05541 0.02382,7.78288c-0.11833,1.40592 -1.11174,3.35536 -1.03714,4.67002c0.0246,0.43364 4.85628,0.53896 5.43578,0.75988c2.16318,0.82462 4.32015,3.18566 5.63809,5.02257l0.2246,0.44194c0,0 0.51106,1.14075 -0.62969,1.65182c-0.50046,0.22421 -0.87974,0.1305 -1.14783,-0.04534c-5.41907,2.25157 -11.81895,2.93939 -17.25154,0.41966z" data-paper-data="{&quot;index&quot;:null}" fill="#9cca41"/><path d="M231.19437,206.71763c-0.29367,-0.02222 -0.6169,-0.16416 -0.88738,-0.56988c-0.69338,-1.04006 0.34669,-1.73344 0.34669,-1.73344l1.44338,-0.70994c3.56669,0 7.10298,0.44634 10.67233,0.25242c1.17714,-0.06396 2.22097,-1.1359 3.39207,-1.00076c2.82831,0.3264 4.18516,6.07378 4.16305,8.23472c-2.4227,6.29533 -11.93915,9.12705 -17.12503,3.88359c-2.13432,-2.15802 -1.66409,-5.53629 -2.0051,-8.35672z" fill="#877a94"/><path d="M247.52828,194.91219c-1.89143,-1.71378 -2.64403,-3.98664 -2.30582,-6.79941c0.88496,-3.56268 2.35763,-7.9012 5.25411,-10.39092c3.7208,-3.19828 10.15179,-6.15537 14.37578,-1.9125c1.15155,1.15669 1.49639,3.15659 1.83195,4.66138c0.93708,8.43797 -7.77002,17.85954 -16.48227,15.95833c-0.45431,0.09839 -0.84434,-0.13818 -1.02592,-0.27714c-0.29521,-0.09536 -0.59,-0.20432 -0.88397,-0.32736c0,0 -0.65472,-0.28059 -0.76387,-0.91238z" fill="#ffffff"/><path d="M253.88394,184.8911l0.60874,1.13037c0.02578,1.13136 0.13839,2.20274 -0.1683,3.31443c-0.99572,3.60923 -5.37958,4.57195 -7.03752,0.79444c-1.93202,-4.40198 1.85724,-10.05053 6.21492,-6.00525c0,0 0.31931,0.31931 0.38217,0.76601z" fill="#467542"/><path d="M252.73203,186.02598l0.43888,0.81496c0.01859,0.81567 0.09977,1.58809 -0.12134,2.38958c-0.71788,2.60211 -3.87847,3.2962 -5.07378,0.57276c-1.39291,-3.17365 1.339,-7.24604 4.48071,-4.32955c0,0 0.23021,0.23021 0.27553,0.55226z" fill="#8ecc81"/><path d="M255.64428,163.28259c1.04144,-1.28502 1.62753,-2.0785 2.78444,-2.60388l-0.13657,-0.31866l1.14127,-0.48911c0.15777,-0.0719 0.33311,-0.11195 0.5178,-0.11195c0.69036,0 1.25,0.55964 1.25,1.25c0,0.05211 -0.00319,0.10348 -0.00938,0.15392l1.7177,-0.78077c0.16388,-0.07892 0.34762,-0.12315 0.54168,-0.12315c0.69036,0 1.25,0.55964 1.25,1.25c0,0.23358 -0.06407,0.4522 -0.17559,0.63923l-0.64387,1.12677c-0.09869,0.19298 -0.18194,0.39564 -0.27426,0.5926c0.15584,-0.06979 0.32858,-0.10861 0.51039,-0.10861c0.69036,0 1.25,0.55964 1.25,1.25c0,0.25027 -0.07355,0.48336 -0.20022,0.67884l-0.82312,1.31699l-0.01817,-0.01135l-0.01714,0.06476c-4.12827,5.31585 -8.07387,9.93106 -13.51125,13.99955c-1.46118,0.81471 -3.50277,2.57738 -5.2691,2.53213c-4.28804,-0.10984 -3.59173,-4.88498 -2.39919,-7.72594c2.1502,-5.12234 6.88674,-9.52527 11.49235,-12.41498c0,0 0.49647,-0.3103 1.02223,-0.16639zM261.25215,161.5377l-0.09323,-0.20512c-0.0006,0.00225 -0.00121,0.0045 -0.00182,0.00675l-0.06815,0.27259c0.05402,-0.02535 0.10843,-0.05008 0.16321,-0.07423z" fill="#001821"/><path d="M232.1056,193.99124c-0.29397,0.12304 -0.58876,0.232 -0.88397,0.32736c-0.18157,0.13896 -0.5716,0.37553 -1.02591,0.27714c-8.71225,1.90121 -17.41936,-7.52036 -16.48227,-15.95833c0.33556,-1.50478 0.6804,-3.50468 1.83195,-4.66138c4.224,-4.24286 10.65498,-1.28578 14.37579,1.91251c2.89648,2.48972 4.36915,6.82823 5.25411,10.39091c0.33821,2.81277 -0.41439,5.08562 -2.30582,6.79941c-0.10915,0.63179 -0.76387,0.91239 -0.76387,0.91239z" data-paper-data="{&quot;index&quot;:null}" fill="#ffffff"/><path d="M222.8013,163.34679c4.6056,2.8897 9.34215,7.29263 11.49235,12.41497c1.19254,2.84096 1.88886,7.6161 -2.39918,7.72594c-1.76633,0.04524 -3.80792,-1.71742 -5.2691,-2.53213c-5.43738,-4.06849 -9.38298,-8.68371 -13.51125,-13.99956l-0.01714,-0.06475l-0.01817,0.01136l-0.82312,-1.31699c-0.12667,-0.19548 -0.20022,-0.42857 -0.20022,-0.67884c0,-0.69036 0.55964,-1.25 1.25,-1.25c0.1818,0 0.35455,0.03881 0.51039,0.1086c-0.09233,-0.19697 -0.17558,-0.39962 -0.27427,-0.5926l-0.64387,-1.12677c-0.11152,-0.18704 -0.17559,-0.40565 -0.17559,-0.63923c0,-0.69036 0.55964,-1.25 1.25,-1.25c0.19407,0 0.3778,0.04422 0.54168,0.12314l1.7177,0.78078c-0.00619,-0.05044 -0.00938,-0.10181 -0.00938,-0.15392c0,-0.69036 0.55964,-1.25 1.25,-1.25c0.18469,0 0.36003,0.04005 0.5178,0.11195l1.14126,0.48911l-0.13657,0.31867c1.15691,0.52538 1.743,1.31885 2.78444,2.60387c0.52576,-0.1439 1.02223,0.16639 1.02223,0.16639zM216.3344,161.50975l-0.06815,-0.27259c-0.00061,-0.00224 -0.00122,-0.0045 -0.00182,-0.00675l-0.09324,0.20512c0.05478,0.02415 0.10919,0.04888 0.16321,0.07423z" data-paper-data="{&quot;index&quot;:null}" fill="#001821"/><path d="M227.30173,184.62509c4.35768,-4.04528 8.14693,1.60327 6.21492,6.00525c-1.65794,3.77751 -6.0418,2.81479 -7.03752,-0.79443c-0.30669,-1.11169 -0.19409,-2.18308 -0.16831,-3.31444l0.60874,-1.13037c0.06286,-0.4467 0.38217,-0.76601 0.38217,-0.76601z" data-paper-data="{&quot;index&quot;:null}" fill="#467542"/><path d="M228.51366,185.80705c3.14172,-2.91648 5.87362,1.1559 4.48071,4.32955c-1.19531,2.72344 -4.3559,2.02936 -5.07378,-0.57276c-0.22111,-0.80149 -0.13993,-1.57391 -0.12134,-2.38958l0.43887,-0.81495c0.04532,-0.32206 0.27553,-0.55226 0.27553,-0.55226z" data-paper-data="{&quot;index&quot;:null}" fill="#8ecc81"/><path d="M209.62991,190.53323c0,1.25 -1.25,1.25 -1.25,1.25h-1c-5.91859,-0.01102 -13.28192,-4.6207 -10.78234,-11.65567c1.18998,-3.34914 4.43082,-5.61611 7.42332,-7.11236c0,0 1.11676,-0.55838 1.67609,0.55711c0.04642,-0.01384 0.09293,-0.0275 0.13952,-0.04098c0,0 1.2019,-0.3434 1.54531,0.8585c0.3434,1.2019 -0.8585,1.54531 -0.8585,1.54531c-1.89264,0.53257 -3.65586,1.38236 -4.64537,3.19545c-1.86144,3.41074 -0.47855,7.7175 3.57964,8.15506l1.32233,-0.00242c0,0 1.25,0 1.25,1.25c0,0.32899 -0.08659,0.5714 -0.21419,0.75h0.56419c0,0 1.25,0 1.25,1.25z" fill="#0054a0"/><path d="M273.33985,192.63985c0.98425,-1.47386 2.32445,-2.92164 3.12932,-4.47999c0.34364,-0.66535 0.32476,-1.8798 0.49971,-2.5363c0.93305,-3.50124 1.86218,-6.85543 2.3736,-10.46712l0.1974,-1.38181c0.03048,-0.24076 0.12945,-0.46018 0.27677,-0.6381c-0.26341,-0.40828 -0.53738,-0.81138 -0.75477,-1.2443l-0.56585,-0.47513c0,0 -0.88388,-0.88388 0,-1.76777c0.88388,-0.88388 1.76777,0 1.76777,0l1.03415,1.12487c3.6703,7.3758 3.49812,22.56785 -7.14126,24.19645c0,0 -1.23744,0.17678 -1.41421,-1.06066c-0.10034,-0.70235 0.25492,-1.06301 0.58092,-1.24359c0.01029,-0.01732 0.01645,-0.02656 0.01645,-0.02656z" fill="#0054a0"/><path d="M226.48853,133.86577c-0.65202,0.17554 -1.18491,-0.35736 -1.18491,-0.35736c-1.30654,-1.34721 -1.91037,-2.67773 -2.54389,-4.46514c-0.4765,-1.34441 -1.83297,-5.58217 0.15372,-6.55358c1.29807,-0.6347 3.3031,1.57466 3.96837,2.31584c1.12427,1.25255 2.04294,2.70162 3.18957,3.93512c0.39692,0.427 1.15606,0.61893 1.28379,1.18776c0.65131,2.90038 -1.66447,3.26236 -3.67253,3.67185l-0.59986,0.21013c0,0 -0.26943,0.08981 -0.59425,0.05539z" fill="#379a2d"/><path d="M250.99818,133.56039l-0.59986,-0.21013c-2.00806,-0.40949 -4.32384,-0.77147 -3.67253,-3.67185c0.12774,-0.56883 0.88687,-0.76076 1.28379,-1.18776c1.14663,-1.2335 2.06529,-2.68257 3.18957,-3.93512c0.66528,-0.74118 2.6703,-2.95054 3.96837,-2.31584c1.98669,0.9714 0.63022,5.20917 0.15372,6.55358c-0.63352,1.78742 -1.23736,3.11794 -2.54389,4.46515c0,0 -0.5329,0.5329 -1.18491,0.35736c-0.32482,0.03442 -0.59426,-0.05539 -0.59426,-0.05539z" data-paper-data="{&quot;index&quot;:null}" fill="#379a2d"/><path d="M207.01509,221.06865c0.30928,0.22964 0.51426,0.84756 0.7108,1.28196c0.34412,0.11232 0.98575,0.44672 0.85647,1.36101c-0.175,1.23768 -1.4127,1.06269 -1.4127,1.06269l-0.87342,-0.13618c-3.45916,-1.03224 -7.58098,-5.97778 -3.31037,-8.76431c3.13184,-2.04348 8.16767,-3.9576 11.90182,-3.78505c0.13721,0.00634 5.39947,0.86081 5.74081,0.5188c0.53108,-0.53214 0.79553,-1.36718 1.45978,-1.71929c1.38378,-2.55886 1.4994,-5.69939 2.89715,-8.26277c1.88828,-3.46301 4.7853,-1.4252 5.53469,1.53899c0.7348,2.90647 -1.30807,4.66831 -1.81994,7.30098c-0.59025,3.03586 -0.35625,7.31929 -3.95539,8.36063c-1.02053,1.22151 -0.00906,4.07515 -1.85494,4.74009c-0.45301,0.16319 -3.77274,-2.06421 -4.43553,-2.34486c-2.48646,-1.05287 -4.91128,-0.65198 -7.50136,-0.84302c-0.90316,-0.06661 -1.78284,-0.41339 -2.68823,-0.39323c-0.28033,0.00624 -0.8394,0.05836 -1.24964,0.08357z" fill="#379a2d"/><path d="M263.38965,225.6745c-0.78277,-0.45542 -1.72045,-0.57722 -2.54323,-0.95559c-2.35956,-1.08513 -4.28826,-2.60849 -6.97382,-2.88912c-0.71585,-0.07481 -4.69872,0.26976 -5.01635,-0.09212c-1.29426,-1.47457 0.97091,-3.48339 0.66822,-5.04607c-2.64694,-2.65178 -0.37099,-6.28806 0.58023,-9.23084c0.82489,-2.55197 -0.11142,-5.08193 1.93711,-7.27078c2.08922,-2.23232 5.61039,-2.61532 5.58884,1.32899c-0.01595,2.91966 -1.43325,5.72457 -1.45923,8.63351c0.41119,0.6294 0.23892,1.48821 0.44648,2.21078c0.13341,0.46443 5.15279,2.26086 5.27598,2.32166c3.35207,1.6545 6.83459,5.7649 8.58794,9.06794c2.39089,4.50406 -3.60835,6.84009 -7.13538,6.07108l-0.83038,-0.3031c0,0 -1.16801,-0.44525 -0.72275,-1.61326c0.32892,-0.86283 1.05224,-0.8453 1.40778,-0.77723c0.38207,-0.2852 0.86028,-0.72698 1.24204,-0.77846c-0.34692,-0.22044 -0.81109,-0.53638 -1.05346,-0.67737z" data-paper-data="{&quot;index&quot;:null}" fill="#379a2d"/><path d="M228.75979,156.19631c-0.55902,-1.11803 0.55902,-1.67705 0.55902,-1.67705l0.78224,-0.3194c0.69566,-0.03457 1.47024,-0.42737 2.08699,-0.1037c1.84191,0.96665 2.21294,4.38575 0.77367,5.82502c-2.32603,2.32603 -6.83382,0.04886 -7.85156,-2.43776c-0.1234,-0.3015 -0.43938,-3.04995 -0.47727,-3.35839c1.15653,-3.2775 7.22356,-6.11438 10.54962,-3.72019c2.11099,1.51956 2.23263,4.28222 2.34425,6.58049c0.21568,4.44089 0.77156,9.49254 -3.06805,12.62803c0,0 -0.97609,0.78087 -1.75695,-0.19522c-0.78087,-0.97609 0.19522,-1.75695 0.19522,-1.75695c3.12719,-2.4328 2.29269,-7.12578 2.13195,-10.57197c-0.06387,-1.36937 0.05341,-3.64436 -1.25575,-4.61951c-1.34945,-1.00515 -6.22955,0.31053 -6.65038,1.87981c0.18105,1.04495 1.84928,6.02575 4.07117,3.80386c0.65355,-0.65355 0.26988,-1.89808 -0.73934,-1.47868l-0.01776,0.0806c0,0 -1.11803,0.55902 -1.67705,-0.55902z" fill="#b75e1a"/><path d="M247.68092,156.95532l-0.01776,-0.0806c-1.00922,-0.4194 -1.39289,0.82513 -0.73934,1.47868c2.22189,2.22189 3.89012,-2.75891 4.07117,-3.80386c-0.42083,-1.56928 -5.30093,-2.88496 -6.65037,-1.87982c-1.30917,0.97514 -1.19188,3.25014 -1.25575,4.61951c-0.16074,3.44619 -0.99524,8.13917 2.13195,10.57197c0,0 0.97609,0.78087 0.19522,1.75695c-0.78087,0.97609 -1.75695,0.19522 -1.75695,0.19522c-3.83962,-3.13549 -3.28374,-8.18715 -3.06805,-12.62804c0.11162,-2.29827 0.23326,-5.06094 2.34425,-6.58049c3.32605,-2.3942 9.3931,0.44268 10.54962,3.72018c-0.03789,0.30844 -0.35387,3.05688 -0.47727,3.35838c-1.01774,2.48662 -5.52553,4.76379 -7.85156,2.43776c-1.43927,-1.43927 -1.06824,-4.85837 0.77367,-5.82502c0.61675,-0.32368 1.39133,0.06913 2.08699,0.1037l0.78224,0.3194c0,0 1.11803,0.55902 0.55902,1.67705c-0.55901,1.11803 -1.67705,0.55902 -1.67705,0.55902z" data-paper-data="{&quot;index&quot;:null}" fill="#b75e1a"/><path d="M237.63685,146.15213c-1.11803,0.55902 -1.67705,-0.55902 -1.67705,-0.55902l-0.06283,-0.38293c-2.93158,-2.34988 -6.33225,-1.67118 -9.33208,-3.74934c-3.79767,-2.63087 -4.11788,-7.80983 -8.57945,-9.67781c0,0 -1.14893,-0.4924 -0.65653,-1.64133c0.4924,-1.14893 1.64133,-0.65653 1.64133,-0.65653c4.83155,2.10919 5.07786,7.19503 9.02055,9.92219c1.77132,1.22522 3.43766,0.87955 5.41398,1.42026c1.57109,0.42984 2.8132,1.4396 4.05394,2.4304l0.73717,1.21707c0,0 0.55902,1.11803 -0.55902,1.67705z" fill="#48e3ff"/><path d="M242.43777,145.52747c-0.69338,-1.04006 0.34669,-1.73344 0.34669,-1.73344l0.17534,0.08105c2.36703,-4.61271 8.24994,-4.60339 12.09546,-7.58219c1.71183,-1.32601 2.46154,-3.85629 3.27364,-5.75119c0,0 0.4924,-1.14893 1.64133,-0.65653c1.14893,0.4924 0.65653,1.64133 0.65653,1.64133c-1.79106,4.17913 -3.56155,6.91818 -7.79547,9.0284c-2.69301,1.34221 -6.20342,1.47 -7.63543,4.43822l-1.02466,0.88105c0,0 -1.04006,0.69338 -1.73344,-0.34669z" fill="#48e3ff"/><path d="M219.7518,201.37377c0.75143,0.99893 -0.24749,1.75036 -0.24749,1.75036l-0.68165,0.43249c-3.18788,4.5758 -7.0592,2.55282 -11.68181,1.90265c0,0 -1.23768,-0.175 -1.06269,-1.4127c0.175,-1.23768 1.4127,-1.06269 1.4127,-1.06269c3.54407,0.50395 6.95766,2.54769 9.27428,-0.84735l1.23629,-1.01026c0,0 0.99893,-0.75143 1.75036,0.24749z" fill="#9cca41"/><path d="M271.10943,210.86499c0.37013,-0.07577 1.02491,-0.07703 1.37842,0.71203c0.51106,1.14075 -0.62969,1.65182 -0.62969,1.65182l-1.00713,0.15106c-1.15343,-0.29928 -2.68667,-0.67293 -3.7063,-1.10271c-4.47257,-1.88523 -4.72531,-5.31909 -6.4704,-9.21431c0,0 -0.51106,-1.14075 0.62969,-1.65182c1.14075,-0.51106 1.65182,0.62969 1.65182,0.62969c1.44482,3.225 1.4796,6.42325 5.15553,7.93089c0.81041,0.33238 2.01549,0.64138 2.99805,0.89337z" fill="#9cca41"/></g></g></svg>