<svg version="1.1" xmlns="http://www.w3.org/2000/svg" xmlns:xlink="http://www.w3.org/1999/xlink" width="162.55671" height="213.24416" viewBox="0,0,162.55671,213.24416"><defs><radialGradient cx="241.04996" cy="152.3509" r="5.13592" gradientUnits="userSpaceOnUse" id="color-1"><stop offset="0" stop-color="#b34900"/><stop offset="1" stop-color="#a03900"/></radialGradient><linearGradient x1="272.55261" y1="175.08985" x2="266.80307" y2="175.04483" gradientUnits="userSpaceOnUse" id="color-2"><stop offset="0" stop-color="#c74600"/><stop offset="1" stop-color="#e25e00"/></linearGradient><linearGradient x1="256.76295" y1="90.38652" x2="256.49592" y2="124.47786" gradientUnits="userSpaceOnUse" id="color-3"><stop offset="0" stop-color="#4c4540"/><stop offset="1" stop-color="#3f3a35"/></linearGradient><linearGradient x1="226.08886" y1="91.40897" x2="225.82185" y2="125.5003" gradientUnits="userSpaceOnUse" id="color-4"><stop offset="0" stop-color="#4c4540"/><stop offset="1" stop-color="#3f3a35"/></linearGradient><linearGradient x1="240.99866" y1="82.50541" x2="240.63839" y2="128.50258" gradientUnits="userSpaceOnUse" id="color-5"><stop offset="0" stop-color="#4c4540"/><stop offset="1" stop-color="#3f3a35"/></linearGradient><radialGradient cx="239.25292" cy="265.68844" r="17.98094" gradientUnits="userSpaceOnUse" id="color-6"><stop offset="0" stop-color="#ffe0a9"/><stop offset="1" stop-color="#ffe0a9" stop-opacity="0"/></radialGradient><radialGradient cx="240.26463" cy="265.49431" r="13.1995" gradientUnits="userSpaceOnUse" id="color-7"><stop offset="0" stop-color="#fffffd"/><stop offset="1" stop-color="#fffffd" stop-opacity="0"/></radialGradient><radialGradient cx="239.293" cy="260.5704" r="16.76875" gradientUnits="userSpaceOnUse" id="color-8"><stop offset="0" stop-color="#ff9afa"/><stop offset="1" stop-color="#ff9afa" stop-opacity="0"/></radialGradient><radialGradient cx="239.293" cy="260.5704" r="16.76875" gradientUnits="userSpaceOnUse" id="color-9"><stop offset="0" stop-color="#ff9afa"/><stop offset="1" stop-color="#ff9afa" stop-opacity="0"/></radialGradient><radialGradient cx="240.76713" cy="261.5248" r="12.72807" gradientUnits="userSpaceOnUse" id="color-10"><stop offset="0" stop-color="#fffffd"/><stop offset="1" stop-color="#fffffd" stop-opacity="0"/></radialGradient><radialGradient cx="239.60067" cy="264.27688" r="13.26684" gradientUnits="userSpaceOnUse" id="color-11"><stop offset="0" stop-color="#fffffd"/><stop offset="1" stop-color="#fffffd" stop-opacity="0"/></radialGradient><radialGradient cx="239.60067" cy="264.27688" r="13.26684" gradientUnits="userSpaceOnUse" id="color-12"><stop offset="0" stop-color="#fffffd"/><stop offset="1" stop-color="#fffffd" stop-opacity="0"/></radialGradient><radialGradient cx="239.60067" cy="264.27688" r="13.26684" gradientUnits="userSpaceOnUse" id="color-13"><stop offset="0" stop-color="#fffffd"/><stop offset="1" stop-color="#fffffd" stop-opacity="0"/></radialGradient><radialGradient cx="239.60067" cy="264.27688" r="13.26684" gradientUnits="userSpaceOnUse" id="color-14"><stop offset="0" stop-color="#fffffd"/><stop offset="1" stop-color="#fffffd" stop-opacity="0"/></radialGradient></defs><g transform="translate(-158.66068,-81.42554)"><g data-paper-data="{&quot;isPaintingLayer&quot;:true}" fill-rule="nonzero" stroke-linejoin="miter" stroke-miterlimit="10" stroke-dasharray="" stroke-dashoffset="0" style="mix-blend-mode: normal"><path d="M223.28333,215.90613v-42.32946h37.69967v42.32946z" fill="#4d4a4a" stroke="none" stroke-width="none" stroke-linecap="butt"/><path d="M282.64786,265.39042l-4.83114,-22.22777l0.77725,-0.9185l6.05131,13.91612l13.659,-7.02549l5.42414,12.06202l-16.02282,13.87529z" data-paper-data="{&quot;index&quot;:null}" fill="none" stroke="#330d42" stroke-width="1.5" stroke-linecap="round"/><path d="M278.06177,230.99263l-8.69699,-12.37964l12.23659,9.56624z" fill="none" stroke="#330d42" stroke-width="1.5" stroke-linecap="round"/><path d="M199.21187,227.8045l11.70746,-9.2434l-8.48503,12.38034z" fill="none" stroke="#330d42" stroke-width="1.5" stroke-linecap="round"/><path d="M228.99957,224.79082l-17.85559,16.90686l-3.3736,-1.10876l17.20674,-20.42952z" fill="none" stroke="#330d42" stroke-width="1.5" stroke-linecap="round"/><path d="M255.56381,218.77548l14.72219,20.40902l-8.22153,-3.98785l-10.19355,-11.30903z" fill="none" stroke="#330d42" stroke-width="1.5" stroke-linecap="round"/><path d="M263.95635,210.18257l18.80324,25.58068l-10.33963,6.63458l-17.53304,-23.57035z" data-paper-data="{&quot;index&quot;:null}" fill="none" stroke="#330d42" stroke-width="1.5" stroke-linecap="round"/><path d="M225.12088,219.0782l-16.94889,22.05504l-9.69057,-6.4346l18.18126,-23.93945z" fill="none" stroke="#330d42" stroke-width="1.5" stroke-linecap="round"/><path d="M203.46993,236.90237l1.57995,5.55931l-6.87647,14.28703l-20.74034,-12.06811l10.03037,-19.67397l3.11256,-0.11092z" fill="none" stroke="#330d42" stroke-width="1.5" stroke-linecap="round"/><path d="M178.88117,242.93317l-1.88656,-0.96181l8.11839,-17.38901l2.76108,0.02163z" fill="none" stroke="#330d42" stroke-width="1.5" stroke-linecap="round"/><path d="M184.75989,224.71488l0.95546,-1.07484l3.26163,-1.86853l7.20932,-1.21657l-5.61348,4.74665z" fill="none" stroke="#330d42" stroke-width="1.5" stroke-linecap="round"/><path d="M203.38718,237.0631l5.10624,-2.42134l2.64633,7.59704l-2.2101,5.80023l-4.46435,-0.03498l0.41302,-4.86725z" fill="none" stroke="#330d42" stroke-width="1.5" stroke-linecap="round"/><path d="M196.29285,220.47589l12.73957,14.44068l-5.29406,2.25848l-13.16556,-11.87347z" fill="none" stroke="#330d42" stroke-width="1.5" stroke-linecap="round"/><path d="M194.63981,276.06771l-16.66279,-14.47141l5.9136,-12.2652l14.28279,7.41761l6.60486,-14.15387l0.80428,0.95335l-5.45406,22.68623z" fill="none" stroke="#330d42" stroke-width="1.5" stroke-linecap="round"/><path d="M198.89442,268.33403l2.5657,0.61668l-3.70881,7.14139l-3.27554,0.10636z" fill="none" stroke="#330d42" stroke-width="1.5" stroke-linecap="round"/><path d="M292.33159,225.18099l2.9506,0.15518l9.21718,19.35628l-19.85411,11.46781l-6.30695,-14.05019l1.58239,-5.40303z" data-paper-data="{&quot;index&quot;:null}" fill="none" stroke="#330d42" stroke-width="1.5" stroke-linecap="round"/><path d="M294.79505,225.09912l2.80023,-0.14106l7.43813,17.09696l-1.80388,0.91047z" data-paper-data="{&quot;index&quot;:null}" fill="none" stroke="#330d42" stroke-width="1.5" stroke-linecap="round"/><path d="M292.32849,225.57721l-5.284,-4.48162l6.85087,1.05971l3.06549,1.87318l0.89006,1.06361z" data-paper-data="{&quot;index&quot;:null}" fill="none" stroke="#330d42" stroke-width="1.5" stroke-linecap="round"/><path d="M278.78557,242.77401l0.02364,4.75516l-4.23494,-0.03318l-2.0088,-5.6953l2.62455,-7.37609l5.13507,2.68188z" data-paper-data="{&quot;index&quot;:null}" fill="none" stroke="#330d42" stroke-width="1.5" stroke-linecap="round"/><path d="M292.32849,225.57721l-12.66907,11.71797l-4.98479,-2.61044l12.30115,-13.90444z" data-paper-data="{&quot;index&quot;:null}" fill="none" stroke="#330d42" stroke-width="1.5" stroke-linecap="round"/><path d="M288.27906,274.69714l-2.54394,-0.04798l-4.39128,-6.62727l2.44035,-0.24506z" data-paper-data="{&quot;index&quot;:null}" fill="none" stroke="#330d42" stroke-width="1.5" stroke-linecap="round"/><path d="M225.37232,214.75966l29.99754,0.23496l-0.0866,11.05792l-29.99754,-0.23496z" fill="none" stroke="#330d42" stroke-width="1.5" stroke-linecap="butt"/><path d="M226.13217,210.87394l-0.71547,8.43657c0,0 -3.07852,2.08912 -5.31666,1.69009c-2.23814,-0.39903 -4.73822,-3.06765 -4.73822,-3.06765l-1.06842,-15.59393l51.30697,-0.57223l-0.23368,16.01667c0,0 -2.81689,2.61301 -5.0047,3.31602c-2.18781,0.70302 -5.72075,-1.99301 -5.72075,-1.99301l-0.05057,-7.36025z" fill="none" stroke="#330d42" stroke-width="1.5" stroke-linecap="round"/><path d="M225.52406,210.40801l29.76229,0.23312l-0.06543,8.35226l-29.76228,-0.23311z" fill="none" stroke="#330d42" stroke-width="1.5" stroke-linecap="butt"/><path d="M226.10119,211.82427l29.1741,0.22851l-0.00645,0.82346l-29.1741,-0.22852z" fill="none" stroke="#330d42" stroke-width="1.5" stroke-linecap="butt"/><path d="M226.67095,214.18162l28.58591,0.22391l-0.00553,0.70583l-28.58591,-0.22391z" fill="none" stroke="#330d42" stroke-width="1.5" stroke-linecap="butt"/><path d="M225.94117,217.23467l29.05646,0.22758l-0.00554,0.70583l-29.05645,-0.22759z" fill="none" stroke="#330d42" stroke-width="1.5" stroke-linecap="butt"/><path d="M226.1875,215.82486l28.82118,0.22575l-0.00554,0.70582l-28.82117,-0.22574z" fill="none" stroke="#330d42" stroke-width="1.5" stroke-linecap="butt"/><path d="M271.25887,173.8492l-5.01024,0.56956l-0.33856,-8.59365l12.11631,-0.98743z" data-paper-data="{&quot;index&quot;:null}" fill="none" stroke="#330d42" stroke-width="1.5" stroke-linecap="round"/><path d="M277.35065,164.74458l-10.28909,0.88658l0.00865,-9.74092z" data-paper-data="{&quot;index&quot;:null}" fill="none" stroke="#330d42" stroke-width="1.5" stroke-linecap="round"/><path d="M272.9907,168.65404l-0.9581,1.41306l0.03267,4.46486l-1.4807,-0.95863l0.5883,-6.01587l2.23111,0.15276z" data-paper-data="{&quot;index&quot;:null}" fill="none" stroke="#330d42" stroke-width="1.5" stroke-linecap="round"/><path d="M272.44586,169.12329l-1.34118,-1.49871l6.45192,-3.26412z" data-paper-data="{&quot;index&quot;:null}" fill="none" stroke="#330d42" stroke-width="1.5" stroke-linecap="round"/><path d="M271.90049,169.66019l7.23147,-7.79026l3.31973,-0.65045l-10.25113,13.31356z" data-paper-data="{&quot;index&quot;:null}" fill="none" stroke="#330d42" stroke-width="1.5" stroke-linecap="round"/><path d="M275.57689,168.65129c2.82049,1.08308 1.55913,2.69452 0.83199,3.80363c-0.72715,1.1091 -1.72966,1.62563 -3.46526,0.21278c-0.55048,-0.44812 -0.48535,-1.60379 0.2418,-2.7129c0.72715,-1.1091 1.72881,-1.55801 2.39145,-1.30355z" data-paper-data="{&quot;index&quot;:null}" fill="none" stroke="#330d42" stroke-width="1.5" stroke-linecap="butt"/><path d="M276.85521,169.5407c0.59362,0.38917 0.48534,1.60382 -0.2418,2.71293c-0.72715,1.1091 -1.79786,1.69273 -2.39145,1.30355c-0.59362,-0.38917 -0.48534,-1.60382 0.2418,-2.71292c0.72715,-1.1091 1.79786,-1.69273 2.39146,-1.30355z" data-paper-data="{&quot;index&quot;:null}" fill="none" stroke="#330d42" stroke-width="1.5" stroke-linecap="butt"/><path d="M275.36819,170.09322l0.24792,3.046" data-paper-data="{&quot;index&quot;:null}" fill="none" stroke="#330d42" stroke-width="1.5" stroke-linecap="round"/><path d="M200.98159,164.36951l12.09936,1.1771l-0.47313,8.58729l-5.00072,-0.64798z" fill="none" stroke="#330d42" stroke-width="1.5" stroke-linecap="round"/><path d="M212.07657,155.59482l-0.14393,9.73986l-10.27394,-1.04768z" fill="none" stroke="#330d42" stroke-width="1.5" stroke-linecap="round"/><path d="M205.55845,167.31411l2.23323,-0.11781l0.49398,6.02434l-1.49553,0.93533l0.10261,-4.46381l-0.93586,-1.42789z" fill="none" stroke="#330d42" stroke-width="1.5" stroke-linecap="round"/><path d="M201.4588,163.89972l6.39998,3.36477l-1.36449,1.47752z" fill="none" stroke="#330d42" stroke-width="1.5" stroke-linecap="round"/><path d="M206.65483,174.15492l-8.83597,-11.90721l1.4913,-0.39418l7.72103,7.43385z" fill="none" stroke="#330d42" stroke-width="1.5" stroke-linecap="round"/><path d="M277.47647,164.28238l-12.48552,-10.65927l1.66721,-1.12163l12.93285,9.26621z" data-paper-data="{&quot;index&quot;:null}" fill="none" stroke="#330d42" stroke-width="1.5" stroke-linecap="round"/><path d="M199.28913,161.74971l13.07641,-9.06248l1.64944,1.14761l-12.65096,10.46237z" fill="none" stroke="#330d42" stroke-width="1.5" stroke-linecap="round"/><path d="M299.64764,169.12903l-9.30385,-11.0573l0.08435,-10.35619l4.28215,2.69358c0,0 4.844,5.11487 6.72568,8.99183c1.88168,3.87696 2.06733,7.42094 2.06733,7.42094z" data-paper-data="{&quot;index&quot;:null}" fill="none" stroke="#330d42" stroke-width="1.5" stroke-linecap="round"/><path d="M299.87701,168.85611l-7.29713,-9.20234l1.04404,-7.26096l3.62705,1.88381c0,0 3.37194,3.54669 4.71456,6.31304c1.34263,2.76632 1.60937,6.32513 1.60937,6.32513z" data-paper-data="{&quot;index&quot;:null}" fill="none" stroke="#330d42" stroke-width="1.5" stroke-linecap="round"/><path d="M175.22431,164.82077c0,0 0.56085,-3.50426 2.84344,-7.15954c2.28259,-3.65525 7.64222,-8.22703 7.64222,-8.22703l4.54387,-2.22379l-1.01548,10.30661l-10.42511,10.00713z" fill="none" stroke="#330d42" stroke-width="1.5" stroke-linecap="round"/><path d="M175.45009,164.96996c0,0 0.64305,-3.51038 2.27176,-6.11857c1.62873,-2.60819 5.35809,-5.77686 5.35809,-5.77686l3.80655,-1.48812l0.14126,7.48467l-8.53104,8.25278z" fill="none" stroke="#330d42" stroke-width="1.5" stroke-linecap="round"/><path d="M209.89811,139.42724l-13.90467,12.20729l0.01608,-2.05256l12.59338,-11.5644l-0.99779,-3.6467l2.15902,-1.66258z" data-paper-data="{&quot;index&quot;:null}" fill="none" stroke="#330d42" stroke-width="1.5" stroke-linecap="round"/><path d="M196.29161,149.30422c0,0 2.32366,-5.96223 4.73729,-9.20005c2.41363,-3.23782 6.67242,-6.10582 6.67242,-6.10582l0.80682,4.20504z" data-paper-data="{&quot;index&quot;:null}" fill="none" stroke="#330d42" stroke-width="1.5" stroke-linecap="round"/><path d="M212.56472,189.45774c0,0 -26.70059,0.87563 -30.06699,-27.31951c-1.76901,-21.15939 23.77062,-38.32126 23.77062,-38.32126l0.3115,11.37844c0,0 -17.04299,15.79525 -15.12923,26.32306c3.35663,18.4652 21.48277,19.2308 21.48277,19.2308z" data-paper-data="{&quot;index&quot;:null}" fill="none" stroke="#330d42" stroke-width="1.5" stroke-linecap="round"/><path d="M212.33022,186.28509c0,0 -26.18192,1.29217 -28.44759,-25.13511c-1.65154,-19.26392 22.57096,-34.62575 22.57096,-34.62575l0.74764,11.76223c0,0 -14.48312,8.24943 -13.33269,22.56854c1.19129,14.82771 19.46044,17.04052 19.46044,17.04052z" data-paper-data="{&quot;index&quot;:null}" fill="none" stroke="#330d42" stroke-width="1.5" stroke-linecap="round"/><path d="M212.97243,186.54787c0,0 -26.82411,1.0294 -29.08978,-25.39784c-1.65154,-19.26396 22.57096,-34.62575 22.57096,-34.62575l0.29208,10.35905c0,0 -15.24048,9.64307 -14.09003,23.96217c1.19129,14.82771 20.01658,17.5114 20.01658,17.5114z" data-paper-data="{&quot;index&quot;:null}" fill="none" stroke="#330d42" stroke-width="1.5" stroke-linecap="round"/><path d="M272.72103,135.72059l2.13271,1.69619l-1.05478,3.63061l12.41068,11.76026l-0.01608,2.05256l-13.71175,-12.42357z" fill="none" stroke="#330d42" stroke-width="1.5" stroke-linecap="round"/><path d="M273.89078,141.23473l0.87258,-4.19186c0,0 4.21335,2.93436 6.57597,6.2096c2.36262,3.27524 4.59258,9.2731 4.59258,9.2731z" fill="none" stroke="#330d42" stroke-width="1.5" stroke-linecap="round"/><path d="M224.16499,192.15378l-6.95741,-0.0545l0.0545,-6.95743l6.95741,0.0545z" data-paper-data="{&quot;index&quot;:null}" fill="none" stroke="#330d42" stroke-width="1.5" stroke-linecap="butt"/><path d="M218.50913,190.43444l-6.18436,-0.04845l0.04138,-5.28248l6.18436,0.04845z" data-paper-data="{&quot;index&quot;:null}" fill="none" stroke="#330d42" stroke-width="1.5" stroke-linecap="butt"/><path d="M268.07659,180.71466c0,0 18.1359,-0.48156 21.78136,-18.89193c2.07844,-10.49654 -14.71504,-26.55681 -14.71504,-26.55681l0.48971,-11.37217c0,0 25.26766,17.55984 23.16742,38.68891c-3.80765,28.13896 -30.49125,26.84518 -30.49125,26.84518z" fill="none" stroke="#330d42" stroke-width="1.5" stroke-linecap="round"/><path d="M267.72577,177.85507c0,0 18.30155,-1.92636 19.72499,-16.7336c1.37459,-14.29933 -12.97753,-22.77462 -12.97753,-22.77462l0.93178,-11.74907c0,0 23.9789,15.73938 22.02581,34.97508c-2.67937,26.38851 -28.83782,24.68641 -28.83782,24.68641z" fill="none" stroke="#330d42" stroke-width="1.5" stroke-linecap="round"/><path d="M268.37521,178.32667c0,0 18.86502,-2.38845 20.28843,-17.19569c1.37459,-14.29933 -13.71296,-24.17995 -13.71296,-24.17995l0.4543,-10.3532c0,0 23.9789,15.73935 22.02581,34.97507c-2.67937,26.38851 -29.74579,25.45242 -29.74579,25.45242z" fill="none" stroke="#330d42" stroke-width="1.5" stroke-linecap="round"/><path d="M212.30792,176.08365l11.72455,0.09183l-0.07063,9.01886l-11.72456,-0.09183z" fill="none" stroke="#330d42" stroke-width="1.5" stroke-linecap="butt"/><path d="M216.57482,174.18432l7.60162,0.05953l-0.02927,3.73638l-7.60161,-0.05953z" fill="none" stroke="#330d42" stroke-width="1.5" stroke-linecap="butt"/><path d="M256.55658,185.70734l6.95742,0.05451l-0.0545,6.95741l-6.95742,-0.05449z" data-paper-data="{&quot;index&quot;:null}" fill="none" stroke="#330d42" stroke-width="1.5" stroke-linecap="butt"/><path d="M262.22559,185.75175l6.31322,0.04946l-0.04138,5.28248l-6.31322,-0.04944z" data-paper-data="{&quot;index&quot;:null}" fill="none" stroke="#330d42" stroke-width="1.5" stroke-linecap="butt"/><path d="M268.53879,185.8012l-11.72456,-0.09183l0.07065,-9.01886l11.72454,0.09183z" data-paper-data="{&quot;index&quot;:null}" fill="none" stroke="#330d42" stroke-width="1.5" stroke-linecap="butt"/><path d="M264.34353,178.5528l-7.60161,-0.05954l0.02926,-3.73638l7.60161,0.05953z" data-paper-data="{&quot;index&quot;:null}" fill="none" stroke="#330d42" stroke-width="1.5" stroke-linecap="butt"/><path d="M223.23937,175.92043l34.50186,0.27024l-0.08257,10.54274l-34.50187,-0.27024z" fill="none" stroke="#330d42" stroke-width="1.5" stroke-linecap="butt"/><path d="M223.42911,151.10296l38.15916,0.29888l-0.19512,24.91075l-38.15916,-0.29888z" fill="none" stroke="#330d42" stroke-width="1.5" stroke-linecap="butt"/><path d="M224.74938,149.31302l30.97518,0.24263l-0.14822,18.92301c0,0 -10.44499,6.307 -15.70661,6.26579c-5.05518,-0.0396 -15.26858,-6.5084 -15.26858,-6.5084z" fill="none" stroke="#330d42" stroke-width="1.5" stroke-linecap="butt"/><path d="M250.8287,167.086l1.03213,-0.73834l-0.03434,4.38503l-1.0314,0.64506z" fill="none" stroke="#330d42" stroke-width="1.5" stroke-linecap="butt"/><path d="M229.61411,171.49177l-1.0206,-0.73368l0.03816,-4.87227l1.01979,0.83734z" data-paper-data="{&quot;index&quot;:null}" fill="none" stroke="#330d42" stroke-width="1.5" stroke-linecap="butt"/><path d="M227.18223,148.42653l27.52312,0.21557l-0.13278,16.95235c0,0 -9.28421,6.02007 -13.95939,5.98345c-4.49183,-0.03519 -13.56371,-6.19903 -13.56371,-6.19903z" fill="none" stroke="#330d42" stroke-width="1.5" stroke-linecap="butt"/><path d="M211.09968,153.05632l-10.30537,8.99818c0,0 -0.18569,-2.55789 -1.45534,-3.79152c-1.26964,-1.23363 -3.49194,-2.32244 -3.49194,-2.32244l10.49608,-8.2092c0,0 1.48983,-0.26454 3.11248,2.0662c1.02745,1.4758 1.64408,3.25879 1.64408,3.25879z" data-paper-data="{&quot;index&quot;:null}" fill="none" stroke="#330d42" stroke-width="1.5" stroke-linecap="round"/><path d="M196.42838,160.54346c-1.43517,-1.78978 -1.87309,-3.8224 -0.97823,-4.53997c0.89487,-0.71758 2.78373,0.1516 4.2189,1.94138c1.43517,1.78978 1.87315,3.8224 0.97826,4.53997c-0.89487,0.71758 -2.78376,-0.1516 -4.21893,-1.94138z" data-paper-data="{&quot;index&quot;:null}" fill="none" stroke="#330d42" stroke-width="1.5" stroke-linecap="butt"/><path d="M196.28202,160.25712c-1.02615,-1.27969 -1.33928,-2.73301 -0.69943,-3.24606c0.63985,-0.51305 1.99036,0.1084 3.01652,1.3881c1.02615,1.27969 1.3393,2.73301 0.69943,3.24606c-0.63985,0.51305 -1.99039,-0.1084 -3.01652,-1.3881z" data-paper-data="{&quot;index&quot;:null}" fill="none" stroke="#330d42" stroke-width="1.5" stroke-linecap="butt"/><path d="M195.73885,160.6579c-1.02615,-1.27969 -1.3393,-2.73301 -0.69943,-3.24606c0.63985,-0.51305 1.9904,0.1084 3.01653,1.38809c1.02615,1.27969 1.33928,2.73301 0.69943,3.24606c-0.63985,0.51305 -1.99037,-0.10841 -3.01653,-1.38807z" data-paper-data="{&quot;index&quot;:null}" fill="none" stroke="#330d42" stroke-width="1.5" stroke-linecap="butt"/><path d="M204.60803,157.76421c0,0 -1.69742,-2.29089 -4.42144,-3.22266c-2.72402,-0.9318 -3.33487,0.96673 -3.33487,0.96673l-1.70146,-1.81619l4.5306,-4.60674l5.87743,8.01129z" data-paper-data="{&quot;index&quot;:null}" fill="none" stroke="#330d42" stroke-width="1.5" stroke-linecap="round"/><path d="M198.7741,150.30176l5.61867,-5.09461l5.88695,6.79633l-5.17109,5.22467z" data-paper-data="{&quot;index&quot;:null}" fill="none" stroke="#330d42" stroke-width="1.5" stroke-linecap="round"/><path d="M272.04291,145.94696l11.60358,10.29925c0,0 -2.03983,0.9601 -3.21398,2.0657c-1.17415,1.10561 -1.37981,3.43297 -1.37981,3.43297l-11.22306,-11.77218z" fill="none" stroke="#330d42" stroke-width="1.5" stroke-linecap="round"/><path d="M279.18047,162.13897c-0.80493,-0.66642 -0.37695,-2.51172 0.9559,-4.12156c1.33285,-1.60985 3.06582,-2.37462 3.87075,-1.70824c0.80493,0.66642 0.37698,2.51172 -0.95587,4.12157c-1.33285,1.60985 -3.06585,2.37465 -3.87078,1.70823z" fill="none" stroke="#330d42" stroke-width="1.5" stroke-linecap="butt"/><path d="M280.42106,161.39337c-0.57553,-0.47648 -0.26952,-1.79586 0.68347,-2.9469c0.95297,-1.15104 2.19209,-1.69785 2.76759,-1.22137c0.57553,0.47648 0.26954,1.79588 -0.68346,2.94691c-0.95297,1.15104 -2.1921,1.69787 -2.7676,1.22138z" fill="none" stroke="#330d42" stroke-width="1.5" stroke-linecap="butt"/><path d="M280.91012,161.76621c-0.57553,-0.47648 -0.26952,-1.79586 0.68347,-2.9469c0.95297,-1.15104 2.19209,-1.69787 2.76759,-1.22138c0.57553,0.47648 0.26954,1.7959 -0.68347,2.94691c-0.95297,1.15104 -2.19209,1.69786 -2.76759,1.22137z" fill="none" stroke="#330d42" stroke-width="1.5" stroke-linecap="butt"/><path d="M274.78391,157.16071l5.46816,-7.21371l3.93696,4.30066l-1.69842,1.46263c0,0 -0.14805,-1.65994 -2.64267,-0.85006c-2.49464,0.80988 -4.20793,2.92217 -4.20793,2.92217z" fill="none" stroke="#330d42" stroke-width="1.5" stroke-linecap="round"/><path d="M275.27489,157.28756l-4.63584,-4.83302l5.45948,-6.10685l5.12901,4.67899z" fill="none" stroke="#330d42" stroke-width="1.5" stroke-linecap="round"/><path d="M238.99782,161.18513l3.81975,0.02992l-0.01433,1.83029l-3.81975,-0.02992z" fill="none" stroke="#330d42" stroke-width="1.5" stroke-linecap="butt"/><path d="M240.16706,161.09262l0.60128,0.00472l-0.01533,1.95703l-0.60127,-0.00471z" fill="none" stroke="#330d42" stroke-width="1.5" stroke-linecap="butt"/><path d="M238.43891,161.41953l0.63664,0.00499l-0.01371,1.75073l-0.63665,-0.00499z" fill="none" stroke="#330d42" stroke-width="1.5" stroke-linecap="butt"/><path d="M235.8857,157.52794l9.41971,0.07378l-0.02905,3.70777l-9.41971,-0.07378z" fill="none" stroke="#330d42" stroke-width="1.5" stroke-linecap="butt"/><path d="M239.16277,161.36181l-1.0968,-0.7101l0.00864,-1.10231l1.60492,-0.18785l0.00785,-1.00209" fill="none" stroke="#330d42" stroke-width="1.5" stroke-linecap="round"/><path d="M228.3931,154.51555l3.41657,0.16917l-0.21828,9.68231l-4.38326,-4.02188z" fill="none" stroke="#330d42" stroke-width="1.5" stroke-linecap="round"/><path d="M234.50084,156.55712l-0.60978,5.12206l-2.58111,2.25839l0.7901,-9.96264z" fill="none" stroke="#330d42" stroke-width="1.5" stroke-linecap="round"/><path d="M227.93465,158.49947l2.55544,1.01691" fill="none" stroke="#330d42" stroke-width="1.5" stroke-linecap="round"/><path d="M221.39656,171.36324l-7.77788,-0.17365l-1.33253,-2.60354l0.61076,-20.40164l14.38959,5.29885l-3.0583,16.21101z" fill="none" stroke="#330d42" stroke-width="1.5" stroke-linecap="round"/><path d="M218.8169,169.65189l2.14196,0.01678l3.50277,-0.98725l0.20251,2.93292l-1.9377,2.69065l-2.93292,0.2025z" fill="none" stroke="#330d42" stroke-width="1.5" stroke-linecap="round"/><path d="M219.60515,169.77079l0.07476,4.84853l-6.75796,-0.84213l-0.85599,-5.86931z" fill="none" stroke="#330d42" stroke-width="1.5" stroke-linecap="round"/><path d="M220.70602,173.16173l1.46555,0.01148" fill="none" stroke="#330d42" stroke-width="1.5" stroke-linecap="round"/><path d="M215.86453,172.33461l-0.90012,-0.23257" fill="none" stroke="#330d42" stroke-width="1.5" stroke-linecap="round"/><path d="M217.66125,173.25063l0.90277,-0.10568" fill="none" stroke="#330d42" stroke-width="1.5" stroke-linecap="round"/><path d="M217.23589,169.97777l-0.35764,2.47752" fill="none" stroke="#330d42" stroke-width="1.5" stroke-linecap="round"/><path d="M214.76012,169.39464l-0.12862,2.02836" fill="none" stroke="#330d42" stroke-width="1.5" stroke-linecap="round"/><path d="M219.0644,166.83528l-6.64261,-1.17946l0.45389,-14.76575l5.84283,2.52609l-0.0777,9.92073z" fill="none" stroke="#330d42" stroke-width="1.5" stroke-linecap="round"/><path d="M217.65799,159.27048l-4.83262,-1.95446l0.26523,-5.07135l4.26717,2.17551z" fill="none" stroke="#330d42" stroke-width="1.5" stroke-linecap="round"/><path d="M218.16518,166.49002l-5.4025,-1.16976l0.27759,-6.64963l4.48824,2.74098z" fill="none" stroke="#330d42" stroke-width="1.5" stroke-linecap="round"/><path d="M223.51406,154.05009l-7.40719,0.22682l-5.07855,-6.16349l9.53877,0.35956z" fill="none" stroke="#330d42" stroke-width="1.5" stroke-linecap="round"/><path d="M254.69704,154.72155l5.57715,-2.94698l11.9719,-1.18793l1.39058,4.28326l-10.39768,0.20339l-6.85767,2.79452z" fill="none" stroke="#330d42" stroke-width="1.5" stroke-linecap="round"/><path d="M249.17506,155.81761l7.14359,-2.93469l-0.19036,6.12221l-6.44942,5.21873z" fill="none" stroke="#330d42" stroke-width="1.5" stroke-linecap="round"/><path d="M250.90397,153.26774l-1.07936,10.53001l-1.84343,-1.01132l-1.50398,-7.98685z" fill="none" stroke="#330d42" stroke-width="1.5" stroke-linecap="round"/><path d="M251.28098,159.67923l4.01406,-3.38646" fill="none" stroke="#330d42" stroke-width="1.5" stroke-linecap="round"/><path d="M240.89133,158.2123c-11.64307,-0.09119 -21.05432,-3.64781 -21.02067,-7.94391c0.03366,-4.2961 9.49947,-7.70484 21.14253,-7.61364c11.64307,0.09119 21.05432,3.64781 21.02067,7.94392c-0.03366,4.2961 -9.49948,7.70484 -21.14253,7.61364z" fill="none" stroke="#330d42" stroke-width="1.5" stroke-linecap="butt"/><path d="M241.1424,154.94471c-8.52994,-0.06681 -15.42308,-2.89702 -15.39626,-6.32144c0.02683,-3.42444 6.96345,-6.14632 15.4934,-6.07952c8.52994,0.06681 15.42307,2.89703 15.39625,6.32146c-0.02682,3.42444 -6.96343,6.1463 -15.49338,6.07949z" fill="none" stroke="#330d42" stroke-width="1.5" stroke-linecap="butt"/><path d="M231.47625,151.14849l19.16512,0.1501l-0.01766,2.25475l-19.16512,-0.15011z" fill="none" stroke="#330d42" stroke-width="1.5" stroke-linecap="butt"/><path d="M258.01982,173.67948l0.0265,-3.38207l1.21564,-11.26474l9.1528,-2.63414l4.52682,12.21168l0.40678,5.64032z" fill="none" stroke="#330d42" stroke-width="1.5" stroke-linecap="round"/><path d="M260.54239,168.28758l0.96284,-7.77171l0.1551,-5.41045l4.17566,-0.53102l7.2142,0.16926l0.22431,14.54558l-11.94999,-0.0936z" fill="none" stroke="#330d42" stroke-width="1.5" stroke-linecap="round"/><path d="M259.41766,167.94056l-0.16393,6.53778l-3.83127,-0.25549l0.12422,-1.46469l2.62913,-4.60186z" fill="none" stroke="#330d42" stroke-width="1.5" stroke-linecap="round"/><path d="M260.17147,172.45614l3.72118,-0.08358l-0.00972,1.24011l0.9019,0.00706l0.00619,-0.78918l3.833,0.03003l-0.11801,0.67553l0.78736,0.23168l-0.10654,-0.79002l3.83301,0.03002l-0.14893,4.62129l-3.15569,-0.13745l-0.6667,-1.24541l-0.12423,1.46469l-3.94664,0.08182l-0.77416,-1.92271l0.20959,2.031l-4.73579,0.07565z" fill="none" stroke="#330d42" stroke-width="1.5" stroke-linecap="round"/><path d="M272.48624,169.17031l-9.69531,-0.07594l-1.23305,-0.9116l1.27544,-4.49974l9.58606,-0.37588z" fill="none" stroke="#330d42" stroke-width="1.5" stroke-linecap="round"/><path d="M271.86455,162.17541l-8.45255,-0.40445l-0.89396,-1.02168l0.26081,-4.50768l1.80906,-0.66228l8.45607,-0.04649l-0.71881,5.40603z" fill="none" stroke="#330d42" stroke-width="1.5" stroke-linecap="round"/><path d="M266.80616,174.65026l5.74954,0.04504l-0.00619,0.78914l-5.74953,-0.04504z" fill="none" stroke="#330d42" stroke-width="1.5" stroke-linecap="butt"/><path d="M225.61197,160.95502l2.97332,4.23236l-2.02067,2.08868l-2.78705,-2.42701z" fill="none" stroke="#330d42" stroke-width="1.5" stroke-linecap="round"/><path d="M225.98453,164.56569l3.98013,3.63897l-2.12322,2.38855l-3.77892,-3.73758z" fill="none" stroke="#330d42" stroke-width="1.5" stroke-linecap="round"/><path d="M225.57977,165.06361l0.91368,-1.49606l3.78758,2.63527l-0.21768,2.20305z" fill="none" stroke="#330d42" stroke-width="1.5" stroke-linecap="round"/><path d="M186.81461,144.19155l9.40415,2.49957" fill="none" stroke="#330d42" stroke-width="1.5" stroke-linecap="round"/><path d="M205.38128,132.39402l-4.91705,-3.5841" fill="none" stroke="#330d42" stroke-width="1.5" stroke-linecap="round"/><path d="M192.29851,158.78999l-10.72935,-0.08404" fill="none" stroke="#330d42" stroke-width="1.5" stroke-linecap="round"/><path d="M194.46755,167.76421l-7.98449,6.84197" fill="none" stroke="#330d42" stroke-width="1.5" stroke-linecap="round"/><path d="M204.38474,176.23929l-2.88156,10.52083" fill="none" stroke="#330d42" stroke-width="1.5" stroke-linecap="round"/><path d="M291.68379,144.82636l2.52562,-0.81996l-9.54203,3.19089" fill="none" stroke="#330d42" stroke-width="1.5" stroke-linecap="round"/><path d="M296.6072,159.51369l2.33245,0.01829l-10.73079,0.10254" fill="none" stroke="#330d42" stroke-width="1.5" stroke-linecap="round"/><path d="M279.3883,130.26787l2.34271,-1.28789l-7.12286,4.0496" fill="none" stroke="#330d42" stroke-width="1.5" stroke-linecap="round"/><path d="M293.32175,173.95013l1.57731,1.132l-9.46678,-6.41883" fill="none" stroke="#330d42" stroke-width="1.5" stroke-linecap="round"/><path d="M276.22909,176.2422l2.89569,11.49915l-0.63847,-1.8711" fill="none" stroke="#330d42" stroke-width="1.5" stroke-linecap="round"/><path d="M271.64698,141.01187c4.90639,8.72766 -6.93628,10.40822 -6.93628,10.40822c0,0 -17.62325,0.21296 -26.15178,0.0541c-8.16963,-0.15217 -23.98892,-0.98801 -23.98892,-0.98801c0,0 -5.65126,-1.37077 -6.8063,-6.18652c-0.76765,-3.20059 7.47394,-13.7513 17.27575,-17.72315c9.80177,-3.97185 9.33133,2.95931 15.1291,3.00472c5.79778,0.04542 12.45154,-5.55172 18.06457,-3.28586c5.61302,2.26586 8.50749,5.98887 13.41386,14.71654z" fill="none" stroke="#330d42" stroke-width="1.5" stroke-linecap="round"/><path d="M268.5316,124.21135c0,0 1.43964,17.79441 1.27771,21.11546c-0.07148,1.46587 -0.32487,2.80903 -3.27364,3.40172c-2.87475,0.5778 -14.52185,2.5554 -25.27404,2.50787c-10.75218,-0.04754 -23.92333,-2.01379 -26.49712,-2.5526c-2.57379,-0.53881 -3.51327,-1.90432 -3.57786,-3.81618c-0.09958,-2.94667 3.75589,-18.91138 3.75589,-18.91138l53.58905,-1.74493z" fill="none" stroke="#330d42" stroke-width="1.5" stroke-linecap="round"/><path d="M256.28544,146.75543c-2.52858,1.03763 -9.20565,1.80198 -9.20565,1.80198l-0.10204,1.85621l-14.51363,-0.36253l-0.75993,-1.90025c0,0 -5.75254,0.56332 -8.08888,-1.05764c-13.5424,-9.3956 -3.63759,-18.83394 3.29624,-19.15596c3.32215,-0.15427 14.38151,3.3015 14.38151,3.3015c0,0 14.0012,-4.67833 17.47667,-5.22719c2.36934,-0.37422 10.84549,15.27387 -2.48426,20.74393z" fill="none" stroke="#330d42" stroke-width="1.5" stroke-linecap="round"/><path d="M264.43433,136.80645c-0.04454,5.68663 -5.3972,10.25491 -11.95551,10.20355c-6.5583,-0.05137 -11.83874,-4.70294 -11.7942,-10.38958c0.04455,-5.68663 5.39719,-10.2549 11.9555,-10.20354c6.55831,0.05137 11.83875,4.70294 11.79422,10.38957z" fill="none" stroke="#330d42" stroke-width="1.5" stroke-linecap="butt"/><path d="M240.83731,136.32095c-0.04455,5.68663 -5.39723,10.25488 -11.9555,10.20352c-6.55828,-0.05137 -11.83874,-4.70291 -11.7942,-10.38954c0.04455,-5.68663 5.39722,-10.25487 11.9555,-10.20351c6.55828,0.05137 11.83875,4.70292 11.79421,10.38955z" fill="none" stroke="#330d42" stroke-width="1.5" stroke-linecap="butt"/><path d="M228.26445,129.38276l19.99184,0.15659l-0.10714,13.67864l-19.99184,-0.15659z" fill="none" stroke="#330d42" stroke-width="1.5" stroke-linecap="butt"/><path d="M249.1265,133.66257c3.65049,-3.56187 8.92434,-4.07725 11.7795,-1.15109c2.85521,2.92618 2.21051,8.18578 -1.43995,11.7477c-3.65049,3.56187 -8.92434,4.07724 -11.7795,1.15108c-2.85521,-2.92618 -2.21049,-8.1858 1.43998,-11.74769z" data-paper-data="{&quot;index&quot;:null}" fill="none" stroke="#330d42" stroke-width="1.5" stroke-linecap="butt"/><path d="M232.51964,145.04549c-2.90064,2.88103 -8.16582,2.28318 -11.76004,-1.33547c-3.59422,-3.61868 -4.15648,-8.88773 -1.25575,-11.76882c2.90064,-2.88103 8.16581,-2.28317 11.76003,1.33546c3.59422,3.61868 4.15648,8.88772 1.25576,11.76881z" fill="none" stroke="#330d42" stroke-width="1.5" stroke-linecap="butt"/><path d="M231.61493,141.95246c-0.52972,1.99529 -2.25946,3.26758 -3.8635,2.84178c-1.60408,-0.42583 -2.47501,-2.38856 -1.9453,-4.38386c0.52972,-1.99529 2.25942,-3.26761 3.86351,-2.84178c1.60408,0.42583 2.47501,2.38856 1.94529,4.38386z" fill="none" stroke="#330d42" stroke-width="1.5" stroke-linecap="butt"/><path d="M255.64871,138.00117c0.72404,0.7199 0.58504,2.03363 -0.31045,2.93431c-0.89552,0.90066 -2.20842,1.04719 -2.93249,0.32724c-0.72404,-0.7199 -0.58507,-2.03366 0.31045,-2.93431c0.89552,-0.90066 2.20842,-1.04717 2.93249,-0.32724z" data-paper-data="{&quot;index&quot;:null}" fill="none" stroke="#330d42" stroke-width="1.5" stroke-linecap="butt"/><path d="M230.84207,141.74731c-0.38874,1.46433 -1.65821,2.39806 -2.83539,2.08557c-1.17723,-0.31251 -1.81641,-1.75294 -1.42766,-3.21729c0.38874,-1.46433 1.6582,-2.39806 2.8354,-2.08557c1.17723,0.31251 1.81642,1.75294 1.42766,3.21729z" fill="none" stroke="#330d42" stroke-width="1.5" stroke-linecap="butt"/><path d="M255.20704,138.44536c0.52683,0.52383 0.42571,1.47971 -0.22588,2.13508c-0.65158,0.65536 -1.60694,0.76197 -2.13377,0.23812c-0.52683,-0.52383 -0.42567,-1.47974 0.22591,-2.13508c0.65158,-0.65536 1.6069,-0.76194 2.13374,-0.23812z" data-paper-data="{&quot;index&quot;:null}" fill="none" stroke="#330d42" stroke-width="1.5" stroke-linecap="butt"/><path d="M259.82725,136.10578c0,0 0.82127,2.18125 0.1123,3.84601c-0.70898,1.66473 -4.58702,3.80918 -4.58702,3.80918" fill="none" stroke="#330d42" stroke-width="1.5" stroke-linecap="round"/><path d="M256.13369,134.93755l1.1515,-1.55752l2.2662,1.58428" fill="none" stroke="#330d42" stroke-width="1.5" stroke-linecap="round"/><path d="M258.5456,136.09572l2.28739,-1.12138" fill="none" stroke="#330d42" stroke-width="1.5" stroke-linecap="round"/><path d="M255.93439,142.19897l-0.0145,1.85125l-1.28163,-0.01004" fill="none" stroke="#330d42" stroke-width="1.5" stroke-linecap="round"/><path d="M252.22186,143.45163c0,0 0.26096,0.99354 -0.15243,1.28053c-0.41341,0.28699 -1.39097,0.5948 -2.28181,0.40935c-0.89085,-0.18544 -2.2997,-4.04906 -1.80438,-5.99545c0.49532,-1.94643 3.59354,-4.24422 3.59354,-4.24422" fill="none" stroke="#330d42" stroke-width="1.5" stroke-linecap="round"/><path d="M250.24049,141.86957l-2.99608,0.6886" fill="none" stroke="#330d42" stroke-width="1.5" stroke-linecap="round"/><path d="M251.72142,134.61817l2.42865,-0.97786" fill="none" stroke="#330d42" stroke-width="1.5" stroke-linecap="round"/><path d="M251.85378,135.90089l-0.69417,-2.28401" fill="none" stroke="#330d42" stroke-width="1.5" stroke-linecap="round"/><path d="M225.54564,126.13238l8.139,4.06145l-1.89318,5.44699l-7.63175,-3.594z" fill="none" stroke="#330d42" stroke-width="1.5" stroke-linecap="round"/><path d="M257.13121,132.57889l-7.98561,2.71866l-1.27263,-5.62449l8.54188,-3.12651z" data-paper-data="{&quot;index&quot;:null}" fill="none" stroke="#330d42" stroke-width="1.5" stroke-linecap="round"/><path d="M270.79656,145.76188c0,0 -3.94621,-10.31417 -12.56088,-13.94962c-8.61467,-3.63546 -12.69099,1.64163 -18.15857,1.57575c-5.46759,-0.06588 -7.66327,-5.97734 -15.00792,-3.12404c-5.00324,1.9437 -14.29023,14.92042 -14.29023,14.92042l-2.88211,-2.17005c0,0 7.11428,-11.24482 16.64898,-14.47247c9.5347,-3.22764 9.59026,2.83349 15.43989,2.80527c5.84963,-0.02823 9.91251,-4.43603 15.099,-3.41445c11.54533,2.27412 18.29623,16.88302 18.29623,16.88302z" fill="none" stroke="#330d42" stroke-width="1.5" stroke-linecap="round"/><path d="M207.55761,139.60795c0,0 -3.84401,-8.70202 0.15399,-19.66115c3.31381,-9.08367 8.54511,-19.86581 13.61052,-25.86934c4.98749,-5.91116 11.4038,-12.08806 21.1601,-11.55953c9.75629,0.52853 13.9041,4.80454 20.44132,13.50885c6.27148,8.35046 11.1156,22.5136 12.49869,27.15618c2.50257,8.40047 -2.24624,20.00553 -2.24624,20.00553l-3.25172,-7.24099l-7.25363,-7.63315l-5.72469,-2.75066l-9.23529,0.82959l-3.85318,2.85605l-3.30965,0.15447l-4.85128,-3.10458l-5.91012,-1.30902l-8.37602,2.27944l-8.41558,7.33002l-5.43722,5.00831z" fill="none" stroke="#330d42" stroke-width="1.5" stroke-linecap="round"/><path d="M257.07911,89.38684c0,0 3.40918,2.61602 5.55419,4.83382c2.14501,2.21783 4.27396,7.06863 4.27396,7.06863c0,0 0.72855,3.81298 -1.88004,9.72627c-2.60859,5.91329 -8.40334,13.46331 -8.40334,13.46331l-10.44353,-2.42687l3.26092,-1.77833c0,0 8.39162,-6.99302 9.82656,-10.92674c1.43495,-3.93372 -2.08399,-10.29847 -2.08399,-10.29847z" fill="none" stroke="#330d42" stroke-width="1.5" stroke-linecap="round"/><path d="M225.53235,100.06325c0,0 -3.61822,6.30884 -2.24507,10.26455c1.37315,3.95571 9.6542,11.07934 9.6542,11.07934l3.23266,1.82919l-10.48025,2.26298c0,0 -5.67574,-7.63987 -8.1914,-13.5933c-2.51566,-5.95342 -1.72746,-9.75451 -1.72746,-9.75451c0,0 2.20467,-4.81685 4.38415,-7.00081c2.1795,-2.18393 5.26326,-6.00178 5.26326,-6.00178z" data-paper-data="{&quot;index&quot;:null}" fill="none" stroke="#330d42" stroke-width="1.5" stroke-linecap="round"/><path d="M224.99189,109.61962c-2.21828,-6.65202 -1.84429,-17.8729 -1.84429,-17.8729c0,0 4.62811,-9.19897 18.2916,-9.23695c8.83141,-0.02456 16.17888,7.16188 16.17888,7.16188c0,0 2.06393,3.94828 0.42105,15.33633c-2.09733,14.5382 -17.32096,23.49521 -17.32096,23.49521c0,0 -10.78429,-4.06381 -15.72627,-18.88358z" fill="none" stroke="#330d42" stroke-width="1.5" stroke-linecap="round"/><path d="M239.81824,82.18139l1.6234,0.01271l-0.34721,44.32776l-1.6234,-0.01272z" fill="none" stroke="#330d42" stroke-width="1.5" stroke-linecap="butt"/><path d="M273.29157,138.31892l-0.23208,7.21373c0,0 -6.11619,-12.05721 -15.32305,-16.1746c-9.20685,-4.11738 -10.63595,2.54769 -16.17221,2.57916c-5.53624,0.03148 -10.79208,-5.31446 -18.41346,-2.66965c-7.40626,2.57013 -15.2192,15.39423 -15.2192,15.39423l-0.29033,-7.75899c0,0 6.65992,-11.14239 16.61515,-14.30093c9.95523,-3.15855 11.89042,3.88129 15.59752,3.54955c3.34073,-0.29896 9.33572,-5.07688 17.5837,-3.47006c5.11076,0.99565 15.85393,15.63759 15.85393,15.63759z" fill="none" stroke="#330d42" stroke-width="1.5" stroke-linecap="round"/><path d="M242.33798,128.96686c-0.01287,1.64375 -0.952,2.96896 -2.09763,2.95999c-1.14564,-0.00898 -2.06391,-1.34873 -2.05104,-2.99248c0.01287,-1.64374 0.95203,-2.96896 2.09766,-2.95998c1.14564,0.00897 2.06388,1.34873 2.05101,2.99247z" fill="none" stroke="#330d42" stroke-width="1.5" stroke-linecap="butt"/><path d="M203.37106,168.221c0.66655,-0.24404 1.66105,0.22049 2.37072,1.34085c0.70968,1.12037 0.75672,2.27693 0.19928,2.71636c-1.75752,1.38547 -2.75182,0.85332 -3.4615,-0.26704c-0.70968,-1.12037 -1.94565,-2.7514 0.89146,-3.79015z" fill="none" stroke="#330d42" stroke-width="1.5" stroke-linecap="butt"/><path d="M204.44972,170.43115c0.70968,1.12037 0.7989,2.33653 0.19926,2.71635c-0.59962,0.37982 -1.66106,-0.22049 -2.37073,-1.34086c-0.70971,-1.12037 -0.79894,-2.33652 -0.1993,-2.71634c0.59964,-0.37982 1.66109,0.22048 2.37077,1.34085z" fill="none" stroke="#330d42" stroke-width="1.5" stroke-linecap="butt"/><path d="M203.26154,172.70778l0.2956,-3.04173" fill="none" stroke="#330d42" stroke-width="1.5" stroke-linecap="round"/><path d="M229.28871,196.10165l21.90299,0.17155l-0.31588,40.32724l-21.90298,-0.17156z" fill="none" stroke="#330d42" stroke-width="1.5" stroke-linecap="butt"/><path d="M201.58773,254.22662l24.84291,0.19458l0.09856,18.82264l-24.33327,-2.4492z" fill="none" stroke="#330d42" stroke-width="1.5" stroke-linecap="round"/><path d="M277.95445,271.38805l-25.60047,2.30907l0.64133,-19.06781l26.0708,0.45516z" fill="none" stroke="#330d42" stroke-width="1.5" stroke-linecap="round"/><path d="M301.38835,263.03901l-23.68184,8.59802l0.87351,-17.30926l23.65828,-5.58675z" fill="none" stroke="#330d42" stroke-width="1.5" stroke-linecap="round"/><path d="M179.23389,262.08221l0.18727,-13.12338l22.75079,5.2724l0.35829,17.06797z" fill="none" stroke="#330d42" stroke-width="1.5" stroke-linecap="round"/><path d="M179.71991,262.83887l-19.5891,-11.44656l-0.39366,-12.55098l19.8449,10.19379z" fill="none" stroke="#330d42" stroke-width="1.5" stroke-linecap="round"/><path d="M250.38144,231.32055l17.29348,10.31356l-0.03517,4.49004l-55.67968,-0.43612l0.17757,-4.48892l16.88214,-9.89619z" fill="none" stroke="#330d42" stroke-width="1.5" stroke-linecap="round"/><path d="M319.67065,252.8929l-18.78013,10.89506l0.60397,-14.29988l18.76835,-9.3894z" fill="none" stroke="#330d42" stroke-width="1.5" stroke-linecap="round"/><path d="M277.996,245.14511l19.26855,-3.45686l18.39722,-7.37207l4.45763,6.64917l-19.01499,9.47177l-22.58956,5.23472l-25.61755,-0.51564l-0.04001,-10.20798z" fill="none" stroke="#330d42" stroke-width="1.5" stroke-linecap="butt"/><path d="M234.9323,210.83462l10.23446,0.08017l-0.11334,14.46942l-10.23445,-0.08017z" fill="none" stroke="#330d42" stroke-width="1.5" stroke-linecap="butt"/><path d="M236.22815,210.6095l7.5288,0.05896l-0.1161,14.82232l-7.5288,-0.05897z" fill="none" stroke="#330d42" stroke-width="1.5" stroke-linecap="butt"/><path d="M240.05858,217.22759c-1.49432,-0.0117 -2.69845,-0.94287 -2.68954,-2.07985c0.00892,-1.13698 1.22748,-2.04915 2.72179,-2.03745c1.49432,0.0117 2.69844,0.94287 2.68954,2.07985c-0.00892,1.13698 -1.22748,2.04916 -2.72178,2.03746z" fill="none" stroke="#330d42" stroke-width="1.5" stroke-linecap="butt"/><path d="M240.06502,216.40413c-1.49432,-0.0117 -2.69845,-0.94287 -2.68954,-2.07985c0.00892,-1.13698 1.22747,-2.04917 2.72179,-2.03747c1.49432,0.0117 2.69845,0.94287 2.68953,2.07985c-0.00892,1.13698 -1.22747,2.04917 -2.72178,2.03747z" fill="none" stroke="#330d42" stroke-width="1.5" stroke-linecap="butt"/><path d="M234.70224,225.18548l10.46973,0.08201l-3.11388,7.0343l-4.23401,-0.15081z" fill="none" stroke="#330d42" stroke-width="1.5" stroke-linecap="butt"/><path d="M165.34253,233.74007l15.88155,6.73861l21.01341,4.07303l23.53093,0.18431l0.27096,10.19901l-23.87956,-0.46257l-22.50714,-5.28729l-19.77089,-9.17427z" fill="none" stroke="#330d42" stroke-width="1.5" stroke-linecap="butt"/><path d="M225.91335,246.08215l27.19902,0.21303l-0.12604,16.09157l-27.19902,-0.21304z" fill="none" stroke="#330d42" stroke-width="1.5" stroke-linecap="butt"/><path d="M228.74023,248.81012l22.07253,0.17289l-0.06916,8.82901l-22.07252,-0.17289z" fill="none" stroke="#330d42" stroke-width="1.5" stroke-linecap="butt"/><path d="M282.64786,265.39042l-4.83114,-22.22777l0.77725,-0.9185l6.05131,13.91612l13.659,-7.02549l5.42414,12.06202l-16.02282,13.87529z" data-paper-data="{&quot;index&quot;:null}" fill="#b61a00" stroke="#000000" stroke-width="0" stroke-linecap="round"/><path d="M278.06177,230.99263l-8.69699,-12.37964l12.23659,9.56624z" fill="#3e3645" stroke="#000000" stroke-width="0" stroke-linecap="round"/><path d="M199.21187,227.8045l11.70746,-9.2434l-8.48503,12.38034z" fill="#3e3645" stroke="#000000" stroke-width="0" stroke-linecap="round"/><path d="M228.99957,224.79082l-17.85559,16.90686l-3.3736,-1.10876l17.20674,-20.42952z" fill="#3d3738" stroke="#000000" stroke-width="0" stroke-linecap="round"/><path d="M255.56381,218.77548l14.72219,20.40902l-8.22153,-3.98785l-10.19355,-11.30903z" fill="#3d3738" stroke="#000000" stroke-width="0" stroke-linecap="round"/><path d="M263.95635,210.18257l18.80324,25.58068l-10.33963,6.63458l-17.53304,-23.57035z" data-paper-data="{&quot;index&quot;:null}" fill="#7f7373" stroke="#938489" stroke-width="0.375" stroke-linecap="round"/><path d="M225.12088,219.0782l-16.94889,22.05504l-9.69057,-6.4346l18.18126,-23.93945z" fill="#7f7373" stroke="#938489" stroke-width="0.375" stroke-linecap="round"/><path d="M203.46993,236.90237l1.57995,5.55931l-6.87647,14.28703l-20.74034,-12.06811l10.03037,-19.67397l3.11256,-0.11092z" fill="#f24500" stroke="#000000" stroke-width="0" stroke-linecap="round"/><path d="M178.88117,242.93317l-1.88656,-0.96181l8.11839,-17.38901l2.76108,0.02163z" fill="#d4340d" stroke="#000000" stroke-width="0" stroke-linecap="round"/><path d="M184.75989,224.71488l0.95546,-1.07484l3.26163,-1.86853l7.20932,-1.21657l-5.61348,4.74665z" fill="#ed6b0a" stroke="#000000" stroke-width="0" stroke-linecap="round"/><path d="M203.38718,237.0631l5.10624,-2.42134l2.64633,7.59704l-2.2101,5.80023l-4.46435,-0.03498l0.41302,-4.86725z" fill="#f36501" stroke="#000000" stroke-width="0" stroke-linecap="round"/><path d="M196.29285,220.47589l12.73957,14.44068l-5.29406,2.25848l-13.16556,-11.87347z" fill="#ff8501" stroke="#000000" stroke-width="0" stroke-linecap="round"/><path d="M194.63981,276.06771l-16.66279,-14.47141l5.9136,-12.2652l14.28279,7.41761l6.60486,-14.15387l0.80428,0.95335l-5.45406,22.68623z" fill="#b61a00" stroke="#000000" stroke-width="0" stroke-linecap="round"/><path d="M198.89442,268.33403l2.5657,0.61668l-3.70881,7.14139l-3.27554,0.10636z" fill="#8f1800" stroke="#000000" stroke-width="0" stroke-linecap="round"/><path d="M292.33159,225.18099l2.9506,0.15518l9.21718,19.35628l-19.85411,11.46781l-6.30695,-14.05019l1.58239,-5.40303z" data-paper-data="{&quot;index&quot;:null}" fill="#f24500" stroke="#000000" stroke-width="0" stroke-linecap="round"/><path d="M294.79505,225.09912l2.80023,-0.14106l7.43813,17.09696l-1.80388,0.91047z" data-paper-data="{&quot;index&quot;:null}" fill="#d4340d" stroke="#000000" stroke-width="0" stroke-linecap="round"/><path d="M292.32849,225.57721l-5.284,-4.48162l6.85087,1.05971l3.06549,1.87318l0.89006,1.06361z" data-paper-data="{&quot;index&quot;:null}" fill="#ed6b0a" stroke="#000000" stroke-width="0" stroke-linecap="round"/><path d="M278.78557,242.77401l0.02364,4.75516l-4.23494,-0.03318l-2.0088,-5.6953l2.62455,-7.37609l5.13507,2.68188z" data-paper-data="{&quot;index&quot;:null}" fill="#f36501" stroke="#000000" stroke-width="0" stroke-linecap="round"/><path d="M292.32849,225.57721l-12.66907,11.71797l-4.98479,-2.61044l12.30115,-13.90444z" data-paper-data="{&quot;index&quot;:null}" fill="#ff8501" stroke="#000000" stroke-width="0" stroke-linecap="round"/><path d="M288.27906,274.69714l-2.54394,-0.04798l-4.39128,-6.62727l2.44035,-0.24506z" data-paper-data="{&quot;index&quot;:null}" fill="#8f1800" stroke="#000000" stroke-width="0" stroke-linecap="round"/><path d="M225.37232,214.75966l29.99754,0.23496l-0.0866,11.05792l-29.99754,-0.23496z" fill="#24251e" stroke="none" stroke-width="0" stroke-linecap="butt"/><path d="M226.13217,210.87394l-0.71547,8.43657c0,0 -3.07852,2.08912 -5.31666,1.69009c-2.23814,-0.39903 -4.73822,-3.06765 -4.73822,-3.06765l-1.06842,-15.59393l51.30697,-0.57223l-0.23368,16.01667c0,0 -2.81689,2.61301 -5.0047,3.31602c-2.18781,0.70302 -5.72075,-1.99301 -5.72075,-1.99301l-0.05057,-7.36025z" fill="#252324" stroke="#000000" stroke-width="0" stroke-linecap="round"/><path d="M225.52406,210.40801l29.76229,0.23312l-0.06543,8.35226l-29.76228,-0.23311z" fill="#211e1f" stroke="none" stroke-width="0" stroke-linecap="butt"/><path d="M226.10119,211.82427l29.1741,0.22851l-0.00645,0.82346l-29.1741,-0.22852z" fill="#1b1919" stroke="none" stroke-width="0" stroke-linecap="butt"/><path d="M226.67095,214.18162l28.58591,0.22391l-0.00553,0.70583l-28.58591,-0.22391z" fill="#1b1919" stroke="none" stroke-width="0" stroke-linecap="butt"/><path d="M225.94117,217.23467l29.05646,0.22758l-0.00554,0.70583l-29.05645,-0.22759z" fill="#1b1919" stroke="none" stroke-width="0" stroke-linecap="butt"/><path d="M226.1875,215.82486l28.82118,0.22575l-0.00554,0.70582l-28.82117,-0.22574z" fill="#1b1919" stroke="none" stroke-width="0" stroke-linecap="butt"/><path d="M271.25887,173.8492l-5.01024,0.56956l-0.33856,-8.59365l12.11631,-0.98743z" data-paper-data="{&quot;index&quot;:null}" fill="#544f51" stroke="#000000" stroke-width="0" stroke-linecap="round"/><path d="M277.35065,164.74458l-10.28909,0.88658l0.00865,-9.74092z" data-paper-data="{&quot;index&quot;:null}" fill="#7b7776" stroke="#8c8887" stroke-width="0.25" stroke-linecap="round"/><path d="M272.9907,168.65404l-0.9581,1.41306l0.03267,4.46486l-1.4807,-0.95863l0.5883,-6.01587l2.23111,0.15276z" data-paper-data="{&quot;index&quot;:null}" fill="#1b1917" stroke="#000000" stroke-width="0" stroke-linecap="round"/><path d="M272.44586,169.12329l-1.34118,-1.49871l6.45192,-3.26412z" data-paper-data="{&quot;index&quot;:null}" fill="#393534" stroke="#000000" stroke-width="0" stroke-linecap="round"/><path d="M271.90049,169.66019l7.23147,-7.79026l3.31973,-0.65045l-10.25113,13.31356z" data-paper-data="{&quot;index&quot;:null}" fill="#282320" stroke="#000000" stroke-width="0" stroke-linecap="round"/><path d="M275.57689,168.65129c2.82049,1.08308 1.55913,2.69452 0.83199,3.80363c-0.72715,1.1091 -1.72966,1.62563 -3.46526,0.21278c-0.55048,-0.44812 -0.48535,-1.60379 0.2418,-2.7129c0.72715,-1.1091 1.72881,-1.55801 2.39145,-1.30355z" data-paper-data="{&quot;index&quot;:null}" fill="#443e42" stroke="none" stroke-width="0" stroke-linecap="butt"/><path d="M276.85521,169.5407c0.59362,0.38917 0.48534,1.60382 -0.2418,2.71293c-0.72715,1.1091 -1.79786,1.69273 -2.39145,1.30355c-0.59362,-0.38917 -0.48534,-1.60382 0.2418,-2.71292c0.72715,-1.1091 1.79786,-1.69273 2.39146,-1.30355z" data-paper-data="{&quot;index&quot;:null}" fill="#7c7080" stroke="none" stroke-width="0" stroke-linecap="butt"/><path d="M275.36819,170.09322l0.24792,3.046" data-paper-data="{&quot;index&quot;:null}" fill="none" stroke="#3f393c" stroke-width="0.25" stroke-linecap="round"/><path d="M200.98159,164.36951l12.09936,1.1771l-0.47313,8.58729l-5.00072,-0.64798z" fill="#544f51" stroke="#000000" stroke-width="0" stroke-linecap="round"/><path d="M212.07657,155.59482l-0.14393,9.73986l-10.27394,-1.04768z" fill="#7b7776" stroke="#8c8887" stroke-width="0.25" stroke-linecap="round"/><path d="M205.55845,167.31411l2.23323,-0.11781l0.49398,6.02434l-1.49553,0.93533l0.10261,-4.46381l-0.93586,-1.42789z" fill="#1b1917" stroke="#000000" stroke-width="0" stroke-linecap="round"/><path d="M201.4588,163.89972l6.39998,3.36477l-1.36449,1.47752z" fill="#393534" stroke="#000000" stroke-width="0" stroke-linecap="round"/><path d="M206.65483,174.15492l-8.83597,-11.90721l1.4913,-0.39418l7.72103,7.43385z" fill="#282320" stroke="#000000" stroke-width="0" stroke-linecap="round"/><path d="M277.47647,164.28238l-12.48552,-10.65927l1.66721,-1.12163l12.93285,9.26621z" data-paper-data="{&quot;index&quot;:null}" fill="#393534" stroke="#000000" stroke-width="0" stroke-linecap="round"/><path d="M199.28913,161.74971l13.07641,-9.06248l1.64944,1.14761l-12.65096,10.46237z" fill="#393534" stroke="#000000" stroke-width="0" stroke-linecap="round"/><path d="M299.64764,169.12903l-9.30385,-11.0573l0.08435,-10.35619l4.28215,2.69358c0,0 4.844,5.11487 6.72568,8.99183c1.88168,3.87696 2.06733,7.42094 2.06733,7.42094z" data-paper-data="{&quot;index&quot;:null}" fill="#d23e28" stroke="#000000" stroke-width="0" stroke-linecap="round"/><path d="M299.87703,168.85611l-7.29713,-9.20234l1.04405,-7.26096l3.62704,1.88381c0,0 3.37193,3.54669 4.71456,6.31304c1.34263,2.76632 1.60938,6.32513 1.60938,6.32513z" data-paper-data="{&quot;index&quot;:null}" fill="#941300" stroke="#000000" stroke-width="0" stroke-linecap="round"/><path d="M175.22431,164.82077c0,0 0.56085,-3.50426 2.84344,-7.15954c2.28259,-3.65525 7.64222,-8.22703 7.64222,-8.22703l4.54387,-2.22379l-1.01548,10.30661l-10.42511,10.00713z" fill="#d23e28" stroke="#000000" stroke-width="0" stroke-linecap="round"/><path d="M175.45009,164.96996c0,0 0.64305,-3.51038 2.27176,-6.11857c1.62873,-2.60819 5.35809,-5.77686 5.35809,-5.77686l3.80655,-1.48812l0.14126,7.48467l-8.53104,8.25278z" fill="#941300" stroke="#000000" stroke-width="0" stroke-linecap="round"/><path d="M209.89811,139.42724l-13.90467,12.20729l0.01608,-2.05256l12.59338,-11.5644l-0.99779,-3.6467l2.15902,-1.66258z" data-paper-data="{&quot;index&quot;:null}" fill="#aa4517" stroke="#000000" stroke-width="0" stroke-linecap="round"/><path d="M196.29161,149.30422c0,0 2.32366,-5.96223 4.73729,-9.20005c2.41363,-3.23782 6.67242,-6.10582 6.67242,-6.10582l0.80682,4.20504z" data-paper-data="{&quot;index&quot;:null}" fill="#fc8200" stroke="#000000" stroke-width="0" stroke-linecap="round"/><path d="M212.56472,189.45774c0,0 -26.70059,0.87563 -30.06699,-27.31951c-1.76901,-21.15939 23.77062,-38.32126 23.77062,-38.32126l0.3115,11.37844c0,0 -17.04299,15.79525 -15.12923,26.32306c3.35663,18.4652 21.48277,19.2308 21.48277,19.2308z" data-paper-data="{&quot;index&quot;:null}" fill="#f83b2d" stroke="#000000" stroke-width="0" stroke-linecap="round"/><path d="M212.33022,186.28509c0,0 -26.18192,1.29217 -28.44759,-25.13511c-1.65154,-19.26392 22.57096,-34.62575 22.57096,-34.62575l0.74764,11.76223c0,0 -14.48312,8.24943 -13.33269,22.56854c1.19129,14.82771 19.46044,17.04052 19.46044,17.04052z" data-paper-data="{&quot;index&quot;:null}" fill="#aa0606" stroke="#000000" stroke-width="0" stroke-linecap="round"/><path d="M212.97243,186.54787c0,0 -26.82411,1.0294 -29.08978,-25.39784c-1.65154,-19.26396 22.57096,-34.62575 22.57096,-34.62575l0.29208,10.35905c0,0 -15.24048,9.64307 -14.09003,23.96217c1.19129,14.82771 20.01658,17.5114 20.01658,17.5114z" data-paper-data="{&quot;index&quot;:null}" fill="#fa0000" stroke="#000000" stroke-width="0" stroke-linecap="round"/><path d="M272.72103,135.72059l2.13271,1.69619l-1.05478,3.63061l12.41068,11.76026l-0.01608,2.05256l-13.71175,-12.42357z" fill="#aa4517" stroke="#000000" stroke-width="0" stroke-linecap="round"/><path d="M273.89078,141.23473l0.87258,-4.19186c0,0 4.21335,2.93436 6.57597,6.2096c2.36262,3.27524 4.59258,9.2731 4.59258,9.2731z" fill="#fc8200" stroke="#000000" stroke-width="0" stroke-linecap="round"/><path d="M224.16499,192.15378l-6.95741,-0.0545l0.0545,-6.95743l6.95741,0.0545z" data-paper-data="{&quot;index&quot;:null}" fill="#514e47" stroke="none" stroke-width="0" stroke-linecap="butt"/><path d="M218.50913,190.43444l-6.18436,-0.04845l0.04138,-5.28248l6.18436,0.04845z" data-paper-data="{&quot;index&quot;:null}" fill="#514e47" stroke="none" stroke-width="0" stroke-linecap="butt"/><path d="M268.07659,180.71466c0,0 18.1359,-0.48156 21.78136,-18.89193c2.07844,-10.49654 -14.71504,-26.55681 -14.71504,-26.55681l0.48971,-11.37217c0,0 25.26766,17.55984 23.16742,38.68891c-3.80765,28.13896 -30.49125,26.84518 -30.49125,26.84518z" fill="#47a0cc" stroke="#000000" stroke-width="0" stroke-linecap="round"/><path d="M267.72577,177.85507c0,0 18.30155,-1.92636 19.72499,-16.7336c1.37459,-14.29933 -12.97753,-22.77462 -12.97753,-22.77462l0.93178,-11.74907c0,0 23.9789,15.73938 22.02581,34.97508c-2.67937,26.38851 -28.83782,24.68641 -28.83782,24.68641z" fill="#06527f" stroke="#000000" stroke-width="0" stroke-linecap="round"/><path d="M268.37521,178.32667c0,0 18.86502,-2.38845 20.28843,-17.19569c1.37459,-14.29933 -13.71296,-24.17995 -13.71296,-24.17995l0.4543,-10.3532c0,0 23.9789,15.73935 22.02581,34.97507c-2.67937,26.38851 -29.74579,25.45242 -29.74579,25.45242z" fill="#0b7bc1" stroke="#000000" stroke-width="0" stroke-linecap="round"/><path d="M212.30792,176.08365l11.72455,0.09183l-0.07063,9.01886l-11.72456,-0.09183z" fill="#6a6461" stroke="none" stroke-width="0" stroke-linecap="butt"/><path d="M216.57482,174.18432l7.60162,0.05953l-0.02927,3.73638l-7.60161,-0.05953z" fill="#6a6461" stroke="none" stroke-width="0" stroke-linecap="butt"/><path d="M256.55658,185.70734l6.95742,0.05451l-0.0545,6.95741l-6.95742,-0.05449z" data-paper-data="{&quot;index&quot;:null}" fill="#514e47" stroke="none" stroke-width="0" stroke-linecap="butt"/><path d="M262.22559,185.75175l6.31322,0.04946l-0.04138,5.28248l-6.31322,-0.04944z" data-paper-data="{&quot;index&quot;:null}" fill="#514e47" stroke="none" stroke-width="0" stroke-linecap="butt"/><path d="M268.53879,185.8012l-11.72456,-0.09183l0.07065,-9.01886l11.72454,0.09183z" data-paper-data="{&quot;index&quot;:null}" fill="#6a6461" stroke="none" stroke-width="0" stroke-linecap="butt"/><path d="M264.34353,178.5528l-7.60161,-0.05954l0.02926,-3.73638l7.60161,0.05953z" data-paper-data="{&quot;index&quot;:null}" fill="#6a6461" stroke="none" stroke-width="0" stroke-linecap="butt"/><path d="M223.23937,175.92043l34.50186,0.27024l-0.08257,10.54274l-34.50187,-0.27024z" fill="#1b1919" stroke="none" stroke-width="0" stroke-linecap="butt"/><path d="M223.42911,151.10296l38.15916,0.29888l-0.19512,24.91075l-38.15916,-0.29888z" fill="#282425" stroke="none" stroke-width="0" stroke-linecap="butt"/><path d="M224.74938,149.31302l30.97518,0.24263l-0.14822,18.92301c0,0 -10.44499,6.307 -15.70661,6.26579c-5.05518,-0.0396 -15.26858,-6.5084 -15.26858,-6.5084z" fill="#f06c00" stroke="none" stroke-width="0" stroke-linecap="butt"/><path d="M250.8287,167.086l1.03213,-0.73834l-0.03434,4.38503l-1.0314,0.64506z" fill="#8b2500" stroke="none" stroke-width="0" stroke-linecap="butt"/><path d="M229.61411,171.49177l-1.0206,-0.73368l0.03816,-4.87227l1.01979,0.83734z" data-paper-data="{&quot;index&quot;:null}" fill="#8b2500" stroke="none" stroke-width="0" stroke-linecap="butt"/><path d="M227.18223,148.42653l27.52312,0.21557l-0.13278,16.95235c0,0 -9.28421,6.02007 -13.95939,5.98345c-4.49183,-0.03519 -13.56371,-6.19903 -13.56371,-6.19903z" fill="#312c29" stroke="none" stroke-width="0" stroke-linecap="butt"/><path d="M211.09968,153.05632l-10.30537,8.99818c0,0 -0.18569,-2.55789 -1.45534,-3.79152c-1.26964,-1.23363 -3.49194,-2.32244 -3.49194,-2.32244l10.49608,-8.2092c0,0 1.48983,-0.26454 3.11248,2.0662c1.02745,1.4758 1.64408,3.25879 1.64408,3.25879z" data-paper-data="{&quot;index&quot;:null}" fill="#f2700b" stroke="#000000" stroke-width="0" stroke-linecap="round"/><path d="M196.42838,160.54346c-1.43517,-1.78978 -1.87309,-3.8224 -0.97823,-4.53997c0.89487,-0.71758 2.78373,0.1516 4.2189,1.94138c1.43517,1.78978 1.87315,3.8224 0.97826,4.53997c-0.89487,0.71758 -2.78376,-0.1516 -4.21893,-1.94138z" data-paper-data="{&quot;index&quot;:null}" fill="#b43507" stroke="#000000" stroke-width="0" stroke-linecap="butt"/><path d="M196.28202,160.25712c-1.02615,-1.27969 -1.33928,-2.73301 -0.69943,-3.24606c0.63985,-0.51305 1.99036,0.1084 3.01652,1.3881c1.02615,1.27969 1.3393,2.73301 0.69943,3.24606c-0.63985,0.51305 -1.99039,-0.1084 -3.01652,-1.3881z" data-paper-data="{&quot;index&quot;:null}" fill="#58515d" stroke="#000000" stroke-width="0" stroke-linecap="butt"/><path d="M195.73885,160.6579c-1.02615,-1.27969 -1.3393,-2.73301 -0.69943,-3.24606c0.63985,-0.51305 1.9904,0.1084 3.01653,1.38809c1.02615,1.27969 1.33928,2.73301 0.69943,3.24606c-0.63985,0.51305 -1.99037,-0.10841 -3.01653,-1.38807z" data-paper-data="{&quot;index&quot;:null}" fill="#6f6675" stroke="#000000" stroke-width="0" stroke-linecap="butt"/><path d="M204.60803,157.76421c0,0 -1.69742,-2.29089 -4.42144,-3.22266c-2.72402,-0.9318 -3.33487,0.96673 -3.33487,0.96673l-1.70146,-1.81619l4.5306,-4.60674l5.87743,8.01129z" data-paper-data="{&quot;index&quot;:null}" fill="#5b4e50" stroke="#000000" stroke-width="0" stroke-linecap="round"/><path d="M198.7741,150.30176l5.61867,-5.09461l5.88695,6.79633l-5.17109,5.22467z" data-paper-data="{&quot;index&quot;:null}" fill="#7a7579" stroke="#847a76" stroke-width="0.25" stroke-linecap="round"/><path d="M272.04291,145.94696l11.60358,10.29925c0,0 -2.03983,0.9601 -3.21398,2.0657c-1.17415,1.10561 -1.37981,3.43297 -1.37981,3.43297l-11.22306,-11.77218z" fill="#f2700b" stroke="#000000" stroke-width="0" stroke-linecap="round"/><path d="M279.18047,162.13897c-0.80493,-0.66642 -0.37695,-2.51172 0.9559,-4.12156c1.33285,-1.60985 3.06582,-2.37462 3.87075,-1.70824c0.80493,0.66642 0.37698,2.51172 -0.95587,4.12157c-1.33285,1.60985 -3.06585,2.37465 -3.87078,1.70823z" fill="#b43507" stroke="#000000" stroke-width="0" stroke-linecap="butt"/><path d="M280.42106,161.39337c-0.57553,-0.47648 -0.26952,-1.79586 0.68347,-2.9469c0.95297,-1.15104 2.19209,-1.69785 2.76759,-1.22137c0.57553,0.47648 0.26954,1.79588 -0.68346,2.94691c-0.95297,1.15104 -2.1921,1.69787 -2.7676,1.22138z" fill="#58515d" stroke="#000000" stroke-width="0" stroke-linecap="butt"/><path d="M280.91012,161.76621c-0.57553,-0.47648 -0.26952,-1.79586 0.68347,-2.9469c0.95297,-1.15104 2.19209,-1.69787 2.76759,-1.22138c0.57553,0.47648 0.26954,1.7959 -0.68347,2.94691c-0.95297,1.15104 -2.19209,1.69786 -2.76759,1.22137z" fill="#6f6675" stroke="#000000" stroke-width="0" stroke-linecap="butt"/><path d="M274.78394,157.16071l5.46816,-7.21371l3.93696,4.30066l-1.69842,1.46263c0,0 -0.14805,-1.65994 -2.64267,-0.85006c-2.49464,0.80988 -4.20794,2.92217 -4.20794,2.92217z" fill="#5b4e50" stroke="#000000" stroke-width="0" stroke-linecap="round"/><path d="M275.27489,157.28756l-4.63584,-4.83302l5.45948,-6.10685l5.12901,4.67899z" fill="#7a7579" stroke="#847a76" stroke-width="0.25" stroke-linecap="round"/><path d="M238.99782,161.18513l3.81975,0.02992l-0.01433,1.83029l-3.81975,-0.02992z" fill="#62615d" stroke="none" stroke-width="0" stroke-linecap="butt"/><path d="M240.16706,161.09262l0.60128,0.00472l-0.01533,1.95703l-0.60127,-0.00471z" fill="#54534f" stroke="none" stroke-width="0" stroke-linecap="butt"/><path d="M238.43891,161.41953l0.63664,0.00499l-0.01371,1.75073l-0.63665,-0.00499z" fill="#7d7b77" stroke="none" stroke-width="0" stroke-linecap="butt"/><path d="M235.8857,157.52794l9.41971,0.07378l-0.02905,3.70777l-9.41971,-0.07378z" fill="#838481" stroke="#9b9496" stroke-width="0.25" stroke-linecap="butt"/><path d="M239.16277,161.36181l-1.0968,-0.7101l0.00864,-1.10231l1.60492,-0.18785l0.00785,-1.00209" fill="none" stroke="#53524e" stroke-width="0.25" stroke-linecap="round"/><path d="M228.3931,154.51555l3.41657,0.16917l-0.21828,9.68231l-4.38326,-4.02188z" fill="#915f3e" stroke="#000000" stroke-width="0" stroke-linecap="round"/><path d="M234.50084,156.55712l-0.60978,5.12206l-2.58111,2.25839l0.7901,-9.96264z" fill="#653c0a" stroke="#000000" stroke-width="0" stroke-linecap="round"/><path d="M227.93465,158.49947l2.55544,1.01691" fill="none" stroke="#67360a" stroke-width="0.25" stroke-linecap="round"/><path d="M221.39656,171.36324l-7.77788,-0.17365l-1.33253,-2.60354l0.61076,-20.40164l14.38959,5.29885l-3.0583,16.21101z" fill="#1e1f19" stroke="#000000" stroke-width="0" stroke-linecap="round"/><path d="M218.8169,169.65189l2.14196,0.01678l3.50277,-0.98725l0.20251,2.93292l-1.9377,2.69065l-2.93292,0.2025z" fill="#b34b00" stroke="#000000" stroke-width="0" stroke-linecap="round"/><path d="M219.60515,169.77079l0.07476,4.84853l-6.75796,-0.84213l-0.85599,-5.86931z" fill="#e86b09" stroke="#000000" stroke-width="0" stroke-linecap="round"/><path d="M220.70602,173.16173l1.46555,0.01148" fill="none" stroke="#9d3000" stroke-width="0.25" stroke-linecap="round"/><path d="M215.86453,172.33461l-0.90012,-0.23257" fill="none" stroke="#9d3000" stroke-width="0.25" stroke-linecap="round"/><path d="M217.66125,173.25063l0.90277,-0.10568" fill="none" stroke="#9d3000" stroke-width="0.25" stroke-linecap="round"/><path d="M217.23589,169.97777l-0.35764,2.47752" fill="none" stroke="#dc5c00" stroke-width="0.25" stroke-linecap="round"/><path d="M214.76012,169.39464l-0.12862,2.02836" fill="none" stroke="#dc5c00" stroke-width="0.25" stroke-linecap="round"/><path d="M219.0644,166.83528l-6.64261,-1.17946l0.45389,-14.76575l5.84283,2.52609l-0.0777,9.92073z" fill="#982800" stroke="#000000" stroke-width="0" stroke-linecap="round"/><path d="M217.65799,159.27048l-4.83262,-1.95446l0.26523,-5.07135l4.26717,2.17551z" fill="#ea6b05" stroke="#000000" stroke-width="0" stroke-linecap="round"/><path d="M218.16518,166.49002l-5.4025,-1.16976l0.27759,-6.64963l4.48824,2.74098z" fill="#ea6b05" stroke="#000000" stroke-width="0" stroke-linecap="round"/><path d="M223.51406,154.05009l-7.40719,0.22682l-5.07855,-6.16349l9.53877,0.35956z" fill="#f0ac12" stroke="#000000" stroke-width="0" stroke-linecap="round"/><path d="M254.69704,154.72155l5.57715,-2.94698l11.9719,-1.18793l1.39058,4.28326l-10.39768,0.20339l-6.85767,2.79452z" fill="#f0ac12" stroke="#000000" stroke-width="0" stroke-linecap="round"/><path d="M249.17506,155.81761l7.14359,-2.93469l-0.19036,6.12221l-6.44942,5.21873z" fill="#915f3e" stroke="#000000" stroke-width="0" stroke-linecap="round"/><path d="M250.90397,153.26774l-1.07936,10.53001l-1.84343,-1.01132l-1.50398,-7.98685z" fill="#653c0a" stroke="#000000" stroke-width="0" stroke-linecap="round"/><path d="M251.28098,159.67923l4.01406,-3.38646" fill="none" stroke="#67360a" stroke-width="0.25" stroke-linecap="round"/><path d="M240.89133,158.2123c-11.64307,-0.09119 -21.05432,-3.64781 -21.02067,-7.94391c0.03366,-4.2961 9.49947,-7.70484 21.14253,-7.61364c11.64307,0.09119 21.05432,3.64781 21.02067,7.94392c-0.03366,4.2961 -9.49948,7.70484 -21.14253,7.61364z" fill="#e56506" stroke="#a55314" stroke-width="0.25" stroke-linecap="butt"/><path d="M241.1424,154.94471c-8.52994,-0.06681 -15.42308,-2.89702 -15.39626,-6.32144c0.02683,-3.42444 6.96345,-6.14632 15.4934,-6.07952c8.52994,0.06681 15.42307,2.89703 15.39625,6.32146c-0.02682,3.42444 -6.96343,6.1463 -15.49338,6.07949z" fill="#921f00" stroke="none" stroke-width="0" stroke-linecap="butt"/><path d="M231.47625,151.14849l19.16512,0.1501l-0.01766,2.25475l-19.16512,-0.15011z" fill="url(#color-1)" stroke="none" stroke-width="0" stroke-linecap="butt"/><path d="M258.01982,173.67948l0.0265,-3.38207l1.21564,-11.26474l9.1528,-2.63414l4.52682,12.21168l0.40678,5.64032z" fill="#2a1c0c" stroke="#000000" stroke-width="0" stroke-linecap="round"/><path d="M260.54239,168.28758l0.96284,-7.77171l0.1551,-5.41045l4.17566,-0.53102l7.2142,0.16926l0.22431,14.54558l-11.94999,-0.0936z" fill="#8b2300" stroke="#000000" stroke-width="0" stroke-linecap="round"/><path d="M259.41766,167.94056l-0.16393,6.53778l-3.83127,-0.25549l0.12422,-1.46469l2.62913,-4.60186z" fill="#f06900" stroke="#000000" stroke-width="0" stroke-linecap="round"/><path d="M260.17147,172.45614l3.72118,-0.08358l-0.00972,1.24011l0.9019,0.00706l0.00619,-0.78918l3.833,0.03003l-0.11801,0.67553l0.78736,0.23168l-0.10654,-0.79002l3.83301,0.03002l-0.14893,4.62129l-3.15569,-0.13745l-0.6667,-1.24541l-0.12423,1.46469l-3.94664,0.08182l-0.77416,-1.92271l0.20959,2.031l-4.73579,0.07565z" fill="#ef6b00" stroke="#000000" stroke-width="0" stroke-linecap="round"/><path d="M272.48624,169.17031l-9.69531,-0.07594l-1.23305,-0.9116l1.27544,-4.49974l9.58606,-0.37588z" fill="#f06900" stroke="#000000" stroke-width="0" stroke-linecap="round"/><path d="M271.86455,162.17541l-8.45255,-0.40445l-0.89396,-1.02168l0.26081,-4.50768l1.80906,-0.66228l8.45607,-0.04649l-0.71881,5.40603z" fill="#f06900" stroke="#000000" stroke-width="0" stroke-linecap="round"/><path d="M266.80616,174.65026l5.74954,0.04504l-0.00619,0.78914l-5.74953,-0.04504z" fill="url(#color-2)" stroke="none" stroke-width="0" stroke-linecap="butt"/><path d="M225.61197,160.95502l2.97332,4.23236l-2.02067,2.08868l-2.78705,-2.42701z" fill="#1e1f19" stroke="#000000" stroke-width="0" stroke-linecap="round"/><path d="M225.98453,164.56569l3.98013,3.63897l-2.12322,2.38855l-3.77892,-3.73758z" fill="#f46901" stroke="#000000" stroke-width="0" stroke-linecap="round"/><path d="M225.57977,165.06361l0.91368,-1.49606l3.78758,2.63527l-0.21768,2.20305z" fill="#b24501" stroke="#000000" stroke-width="0" stroke-linecap="round"/><path d="M186.81461,144.19155l9.40415,2.49957" fill="none" stroke="#aa0606" stroke-width="0.5" stroke-linecap="round"/><path d="M205.38128,132.39402l-4.91705,-3.5841" fill="none" stroke="#aa0606" stroke-width="0.5" stroke-linecap="round"/><path d="M192.29852,158.78999l-10.72935,-0.08404" fill="none" stroke="#aa0606" stroke-width="0.5" stroke-linecap="round"/><path d="M194.46755,167.76421l-7.98449,6.84197" fill="none" stroke="#aa0606" stroke-width="0.5" stroke-linecap="round"/><path d="M204.38474,176.23929l-2.88156,10.52083" fill="none" stroke="#aa0606" stroke-width="0.5" stroke-linecap="round"/><path d="M291.68379,144.82636l2.52562,-0.81996l-9.54203,3.19089" fill="none" stroke="#06527f" stroke-width="0.5" stroke-linecap="round"/><path d="M296.6072,159.51369l2.33245,0.01829l-10.73079,0.10254" fill="none" stroke="#06527f" stroke-width="0.5" stroke-linecap="round"/><path d="M279.3883,130.26787l2.34271,-1.28789l-7.12286,4.0496" fill="none" stroke="#06527f" stroke-width="0.5" stroke-linecap="round"/><path d="M293.32175,173.95013l1.57731,1.132l-9.46678,-6.41883" fill="none" stroke="#06527f" stroke-width="0.5" stroke-linecap="round"/><path d="M276.22909,176.2422l2.89569,11.49915l-0.63847,-1.8711" fill="none" stroke="#06527f" stroke-width="0.5" stroke-linecap="round"/><path d="M271.64698,141.01187c4.90639,8.72766 -6.93628,10.40822 -6.93628,10.40822c0,0 -17.62325,0.21296 -26.15178,0.0541c-8.16963,-0.15217 -23.98892,-0.98801 -23.98892,-0.98801c0,0 -5.65126,-1.37077 -6.8063,-6.18652c-0.76765,-3.20059 7.47394,-13.7513 17.27575,-17.72315c9.80177,-3.97185 9.33133,2.95931 15.1291,3.00472c5.79778,0.04542 12.45154,-5.55172 18.06457,-3.28586c5.61302,2.26586 8.50749,5.98887 13.41386,14.71654z" fill="#b84400" stroke="#000000" stroke-width="0" stroke-linecap="round"/><path d="M268.5316,124.21135c0,0 1.43964,17.79441 1.27771,21.11546c-0.07148,1.46587 -0.32487,2.80903 -3.27364,3.40172c-2.87475,0.5778 -14.52185,2.5554 -25.27404,2.50787c-10.75218,-0.04754 -23.92333,-2.01379 -26.49712,-2.5526c-2.57379,-0.53881 -3.51327,-1.90432 -3.57786,-3.81618c-0.09958,-2.94667 3.75589,-18.91138 3.75589,-18.91138l53.58905,-1.74493z" fill="#7b2200" stroke="#000000" stroke-width="0" stroke-linecap="round"/><path d="M256.28544,146.75543c-2.52858,1.03763 -9.20565,1.80198 -9.20565,1.80198l-0.10204,1.85621l-14.51363,-0.36253l-0.75993,-1.90025c0,0 -5.75254,0.56332 -8.08888,-1.05764c-13.5424,-9.3956 -3.63759,-18.83394 3.29624,-19.15596c3.32215,-0.15427 14.38151,3.3015 14.38151,3.3015c0,0 14.0012,-4.67833 17.47667,-5.22719c2.36934,-0.37422 10.84549,15.27387 -2.48426,20.74393z" fill="#df9431" stroke="#954116" stroke-width="0" stroke-linecap="round"/><path d="M264.43433,136.80645c-0.04454,5.68663 -5.3972,10.25491 -11.95551,10.20355c-6.5583,-0.05137 -11.83874,-4.70294 -11.7942,-10.38958c0.04455,-5.68663 5.39719,-10.2549 11.9555,-10.20354c6.55831,0.05137 11.83875,4.70294 11.79422,10.38957z" fill="#98581e" stroke="none" stroke-width="0" stroke-linecap="butt"/><path d="M240.83731,136.32095c-0.04455,5.68663 -5.39723,10.25488 -11.9555,10.20352c-6.55828,-0.05137 -11.83874,-4.70291 -11.7942,-10.38954c0.04455,-5.68663 5.39722,-10.25487 11.9555,-10.20351c6.55828,0.05137 11.83875,4.70292 11.79421,10.38955z" fill="#98581e" stroke="none" stroke-width="0" stroke-linecap="butt"/><path d="M228.26445,129.38276l19.99184,0.15659l-0.10714,13.67864l-19.99184,-0.15659z" fill="#98581e" stroke="none" stroke-width="0" stroke-linecap="butt"/><path d="M249.1265,133.66257c3.65049,-3.56187 8.92434,-4.07725 11.7795,-1.15109c2.85521,2.92618 2.21051,8.18578 -1.43995,11.7477c-3.65049,3.56187 -8.92434,4.07724 -11.7795,1.15108c-2.85521,-2.92618 -2.21049,-8.1858 1.43998,-11.74769z" data-paper-data="{&quot;index&quot;:null}" fill="#01050a" stroke="#954116" stroke-width="0" stroke-linecap="butt"/><path d="M232.51964,145.04549c-2.90064,2.88103 -8.16582,2.28318 -11.76004,-1.33547c-3.59422,-3.61868 -4.15648,-8.88773 -1.25575,-11.76882c2.90064,-2.88103 8.16581,-2.28317 11.76003,1.33546c3.59422,3.61868 4.15648,8.88772 1.25576,11.76881z" fill="#01050a" stroke="#954116" stroke-width="0" stroke-linecap="butt"/><path d="M231.61493,141.95246c-0.52972,1.99529 -2.25946,3.26758 -3.8635,2.84178c-1.60408,-0.42583 -2.47501,-2.38856 -1.9453,-4.38386c0.52972,-1.99529 2.25942,-3.26761 3.86351,-2.84178c1.60408,0.42583 2.47501,2.38856 1.94529,4.38386z" fill="#5db0c4" stroke="none" stroke-width="0" stroke-linecap="butt"/><path d="M255.64871,138.00117c0.72404,0.7199 0.58504,2.03363 -0.31045,2.93431c-0.89552,0.90066 -2.20842,1.04719 -2.93249,0.32724c-0.72404,-0.7199 -0.58507,-2.03366 0.31045,-2.93431c0.89552,-0.90066 2.20842,-1.04717 2.93249,-0.32724z" data-paper-data="{&quot;index&quot;:null}" fill="#5db0c4" stroke="none" stroke-width="0" stroke-linecap="butt"/><path d="M230.84207,141.74731c-0.38874,1.46433 -1.65821,2.39806 -2.83539,2.08557c-1.17723,-0.31251 -1.81641,-1.75294 -1.42766,-3.21729c0.38874,-1.46433 1.6582,-2.39806 2.8354,-2.08557c1.17723,0.31251 1.81642,1.75294 1.42766,3.21729z" fill="#01050a" stroke="none" stroke-width="0" stroke-linecap="butt"/><path d="M255.20704,138.44536c0.52683,0.52383 0.42571,1.47971 -0.22588,2.13508c-0.65158,0.65536 -1.60694,0.76197 -2.13377,0.23812c-0.52683,-0.52383 -0.42567,-1.47974 0.22591,-2.13508c0.65158,-0.65536 1.6069,-0.76194 2.13374,-0.23812z" data-paper-data="{&quot;index&quot;:null}" fill="#01050a" stroke="none" stroke-width="0" stroke-linecap="butt"/><path d="M259.82725,136.10578c0,0 0.82127,2.18125 0.1123,3.84601c-0.70898,1.66473 -4.58702,3.80918 -4.58702,3.80918" fill="none" stroke="#5db0c4" stroke-width="0.25" stroke-linecap="round"/><path d="M256.13369,134.93755l1.1515,-1.55752l2.2662,1.58428" fill="none" stroke="#5db0c4" stroke-width="0.25" stroke-linecap="round"/><path d="M258.5456,136.09572l2.28739,-1.12138" fill="none" stroke="#5db0c4" stroke-width="0.25" stroke-linecap="round"/><path d="M255.93439,142.19897l-0.0145,1.85125l-1.28163,-0.01004" fill="none" stroke="#5db0c4" stroke-width="0.25" stroke-linecap="round"/><path d="M252.22186,143.45163c0,0 0.26096,0.99354 -0.15243,1.28053c-0.41341,0.28699 -1.39097,0.5948 -2.28181,0.40935c-0.89085,-0.18544 -2.2997,-4.04906 -1.80438,-5.99545c0.49532,-1.94643 3.59354,-4.24422 3.59354,-4.24422" fill="none" stroke="#5db0c4" stroke-width="0.25" stroke-linecap="round"/><path d="M250.24049,141.86957l-2.99608,0.6886" fill="none" stroke="#5db0c4" stroke-width="0.25" stroke-linecap="round"/><path d="M251.72142,134.61817l2.42865,-0.97786" fill="none" stroke="#5db0c4" stroke-width="0.25" stroke-linecap="round"/><path d="M251.85378,135.90089l-0.69417,-2.28401" fill="none" stroke="#5db0c4" stroke-width="0.25" stroke-linecap="round"/><path d="M225.54564,126.13238l8.139,4.06145l-1.89318,5.44699l-7.63175,-3.594z" fill="#360e03" stroke="#602a0d" stroke-width="0" stroke-linecap="round"/><path d="M257.13121,132.57889l-7.98561,2.71866l-1.27263,-5.62449l8.54188,-3.12651z" data-paper-data="{&quot;index&quot;:null}" fill="#360e03" stroke="#602a0d" stroke-width="0" stroke-linecap="round"/><path d="M270.79656,145.76188c0,0 -3.94621,-10.31417 -12.56088,-13.94962c-8.61467,-3.63546 -12.69099,1.64163 -18.15857,1.57575c-5.46759,-0.06588 -7.66327,-5.97734 -15.00792,-3.12404c-5.00324,1.9437 -14.29023,14.92042 -14.29023,14.92042l-2.88211,-2.17005c0,0 7.11428,-11.24482 16.64898,-14.47247c9.5347,-3.22764 9.59026,2.83349 15.43989,2.80527c5.84963,-0.02823 9.91251,-4.43603 15.099,-3.41445c11.54533,2.27412 18.29623,16.88302 18.29623,16.88302z" fill="#b84400" stroke="#000000" stroke-width="0" stroke-linecap="round"/><path d="M207.55761,139.60795c0,0 -3.84401,-8.70202 0.15399,-19.66115c3.31381,-9.08367 8.54511,-19.86581 13.61052,-25.86934c4.98749,-5.91116 11.4038,-12.08806 21.1601,-11.55953c9.75629,0.52853 13.9041,4.80454 20.44132,13.50885c6.27148,8.35046 11.1156,22.5136 12.49869,27.15618c2.50257,8.40047 -2.24624,20.00553 -2.24624,20.00553l-3.25172,-7.24099l-7.25363,-7.63315l-5.72469,-2.75066l-9.23529,0.82959l-3.85318,2.85605l-3.30965,0.15447l-4.85128,-3.10458l-5.91012,-1.30902l-8.37602,2.27944l-8.41558,7.33002l-5.43722,5.00831z" fill="#36322e" stroke="#000000" stroke-width="0" stroke-linecap="round"/><path d="M257.07911,89.38684c0,0 3.40918,2.61602 5.55419,4.83382c2.14501,2.21783 4.27396,7.06863 4.27396,7.06863c0,0 0.72855,3.81298 -1.88004,9.72627c-2.60859,5.91329 -8.40334,13.46331 -8.40334,13.46331l-10.44353,-2.42687l3.26092,-1.77833c0,0 8.39162,-6.99302 9.82656,-10.92674c1.43495,-3.93372 -2.08399,-10.29847 -2.08399,-10.29847z" fill="url(#color-3)" stroke="#000000" stroke-width="0" stroke-linecap="round"/><path d="M225.53235,100.06325c0,0 -3.61822,6.30884 -2.24507,10.26455c1.37315,3.95571 9.6542,11.07934 9.6542,11.07934l3.23266,1.82919l-10.48025,2.26298c0,0 -5.67574,-7.63987 -8.1914,-13.5933c-2.51566,-5.95342 -1.72746,-9.75451 -1.72746,-9.75451c0,0 2.20467,-4.81685 4.38415,-7.00081c2.1795,-2.18393 5.26326,-6.00178 5.26326,-6.00178z" data-paper-data="{&quot;index&quot;:null}" fill="url(#color-4)" stroke="#000000" stroke-width="0" stroke-linecap="round"/><path d="M224.99189,109.61962c-2.21828,-6.65202 -1.84429,-17.8729 -1.84429,-17.8729c0,0 4.62811,-9.19897 18.2916,-9.23695c8.83141,-0.02456 16.17888,7.16188 16.17888,7.16188c0,0 2.06393,3.94828 0.42105,15.33633c-2.09733,14.5382 -17.32096,23.49521 -17.32096,23.49521c0,0 -10.78429,-4.06381 -15.72627,-18.88358z" fill="url(#color-5)" stroke="#000000" stroke-width="0" stroke-linecap="round"/><path d="M239.81824,82.18139l1.6234,0.01271l-0.34721,44.32776l-1.6234,-0.01272z" fill="#34332c" stroke="none" stroke-width="0" stroke-linecap="butt"/><path d="M273.29157,138.31892l-0.23208,7.21373c0,0 -6.11619,-12.05721 -15.32305,-16.1746c-9.20685,-4.11738 -10.63595,2.54769 -16.17221,2.57916c-5.53624,0.03148 -10.79208,-5.31446 -18.41346,-2.66965c-7.40626,2.57013 -15.2192,15.39423 -15.2192,15.39423l-0.29033,-7.75899c0,0 6.65992,-11.14239 16.61515,-14.30093c9.95523,-3.15855 11.89042,3.88129 15.59752,3.54955c3.34073,-0.29896 9.33572,-5.07688 17.5837,-3.47006c5.11076,0.99565 15.85393,15.63759 15.85393,15.63759z" fill="#f56900" stroke="#000000" stroke-width="0" stroke-linecap="round"/><path d="M242.33798,128.96686c-0.01287,1.64375 -0.952,2.96896 -2.09763,2.95999c-1.14564,-0.00898 -2.06391,-1.34873 -2.05104,-2.99248c0.01287,-1.64374 0.95203,-2.96896 2.09766,-2.95998c1.14564,0.00897 2.06388,1.34873 2.05101,2.99247z" fill="#ea5e00" stroke="none" stroke-width="0" stroke-linecap="butt"/><path d="M203.37106,168.221c0.66655,-0.24404 1.66105,0.22049 2.37072,1.34085c0.70968,1.12037 0.75672,2.27693 0.19928,2.71636c-1.75752,1.38547 -2.75182,0.85332 -3.4615,-0.26704c-0.70968,-1.12037 -1.94565,-2.7514 0.89146,-3.79015z" fill="#443e42" stroke="none" stroke-width="0" stroke-linecap="butt"/><path d="M204.44972,170.43115c0.70968,1.12037 0.7989,2.33653 0.19926,2.71635c-0.59962,0.37982 -1.66106,-0.22049 -2.37073,-1.34086c-0.70971,-1.12037 -0.79894,-2.33652 -0.1993,-2.71634c0.59964,-0.37982 1.66109,0.22048 2.37077,1.34085z" fill="#7c7080" stroke="none" stroke-width="0" stroke-linecap="butt"/><path d="M203.26154,172.70778l0.2956,-3.04173" fill="none" stroke="#3f393c" stroke-width="0.25" stroke-linecap="round"/><path d="M229.28871,196.10165l21.90299,0.17155l-0.31588,40.32724l-21.90298,-0.17156z" fill="#817c7c" stroke="none" stroke-width="0" stroke-linecap="butt"/><path d="M201.58773,254.22662l24.84291,0.19458l0.09856,18.82264l-24.33327,-2.4492z" fill="#fc6900" stroke="#000000" stroke-width="0" stroke-linecap="round"/><path d="M277.95445,271.38805l-25.60047,2.30907l0.64133,-19.06781l26.0708,0.45516z" fill="#fc6900" stroke="#000000" stroke-width="0" stroke-linecap="round"/><path d="M301.38835,263.03901l-23.68184,8.59802l0.87351,-17.30926l23.65828,-5.58675z" fill="#ef5200" stroke="#000000" stroke-width="0" stroke-linecap="round"/><path d="M179.23389,262.08221l0.18727,-13.12338l22.75079,5.2724l0.35829,17.06797z" fill="#ef5200" stroke="#000000" stroke-width="0" stroke-linecap="round"/><path d="M179.71991,262.83887l-19.5891,-11.44656l-0.39366,-12.55098l19.8449,10.19379z" fill="#e04409" stroke="#000000" stroke-width="0" stroke-linecap="round"/><path d="M250.38144,231.32055l17.29348,10.31356l-0.03517,4.49004l-55.67968,-0.43612l0.17757,-4.48892l16.88214,-9.89619z" fill="#8d8686" stroke="#999592" stroke-width="0.5" stroke-linecap="round"/><path d="M319.67065,252.8929l-18.78013,10.89506l0.60397,-14.29988l18.76835,-9.3894z" fill="#e04409" stroke="#000000" stroke-width="0" stroke-linecap="round"/><path d="M277.996,245.14511l19.26855,-3.45686l18.39722,-7.37207l4.45763,6.64917l-19.01499,9.47177l-22.58956,5.23472l-25.61755,-0.51564l-0.04001,-10.20798z" fill="#ff9b0f" stroke="#000000" stroke-width="0" stroke-linecap="butt"/><path d="M234.9323,210.83462l10.23446,0.08017l-0.11334,14.46942l-10.23445,-0.08017z" fill="#f7810e" stroke="none" stroke-width="0" stroke-linecap="butt"/><path d="M236.22815,210.6095l7.5288,0.05896l-0.1161,14.82232l-7.5288,-0.05897z" fill="#ff7500" stroke="none" stroke-width="0" stroke-linecap="butt"/><path d="M240.05858,217.22759c-1.49432,-0.0117 -2.69845,-0.94287 -2.68954,-2.07985c0.00892,-1.13698 1.22748,-2.04915 2.72179,-2.03745c1.49432,0.0117 2.69844,0.94287 2.68954,2.07985c-0.00892,1.13698 -1.22748,2.04916 -2.72178,2.03746z" fill="#8e9084" stroke="#73410d" stroke-width="0.25" stroke-linecap="butt"/><path d="M240.06502,216.40413c-1.49432,-0.0117 -2.69845,-0.94287 -2.68954,-2.07985c0.00892,-1.13698 1.22747,-2.04917 2.72179,-2.03747c1.49432,0.0117 2.69845,0.94287 2.68953,2.07985c-0.00892,1.13698 -1.22747,2.04917 -2.72178,2.03747z" fill="#8e9084" stroke="#a0a49c" stroke-width="0.25" stroke-linecap="butt"/><path d="M234.70224,225.18548l10.46973,0.08201l-3.11388,7.0343l-4.23401,-0.15081z" fill="#f44c00" stroke="none" stroke-width="0" stroke-linecap="butt"/><path d="M165.34253,233.74007l15.88155,6.73861l21.01341,4.07303l23.53093,0.18431l0.27096,10.19901l-23.87956,-0.46257l-22.50714,-5.28729l-19.77089,-9.17427z" fill="#ff9b0f" stroke="#000000" stroke-width="0" stroke-linecap="butt"/><path d="M225.91335,246.08215l27.19902,0.21303l-0.12604,16.09157l-27.19902,-0.21304z" fill="#666462" stroke="none" stroke-width="0" stroke-linecap="butt"/><path d="M228.74023,248.81012l22.07253,0.17289l-0.06916,8.82901l-22.07252,-0.17289z" fill="#000000" stroke="none" stroke-width="0" stroke-linecap="butt"/><path d="M251.65726,219.08316l-2.79446,11.3168l6.31219,0.17829l-0.95032,6.17732l-2.55158,-3.24122l-9.14771,-0.07164l5.51324,-12.97058l-2.6774,-3.62876z" fill="#ffffff" stroke="#bb44c4" stroke-width="0.375" stroke-linecap="round"/><path d="M262.4009,245.71016l-5.41031,-0.17122l1.65508,-13.90273l17.92809,-2.3077l-1.58848,5.39921l-2.16004,-3.88238l-11.24144,4.03512l-1.86736,8.10286l0.65125,-0.89687l6.05755,-0.21026l-0.70376,7.59659l-2.8446,1.26622z" fill="#ffffff" stroke="#bb44c4" stroke-width="0.375" stroke-linecap="round"/><path d="M239.02748,235.86341l-9.91873,-0.33538l-2.20946,2.43082l-0.2052,-6.70176l6.6957,0.56785l-0.82518,-9.79899l6.71083,-1.36478l-3.63279,3.19278z" fill="#ffffff" stroke="#bb44c4" stroke-width="0.375" stroke-linecap="round"/><path d="M205.77165,221.04297l4.76711,0.03734l13.10043,5.38542l-1.92384,15.31794l-5.27946,-0.42788l-1.20296,5.53108l-2.57682,-0.02019l2.02141,-11.32285l4.74088,3.38718l-0.31484,-9.15074l-9.35495,-6.51573l-4.67461,4.60196z" fill="#ffffff" stroke="#bb44c4" stroke-width="0.375" stroke-linecap="round"/><path d="M209.58648,276.86447l-1.12257,11.71648l7.77183,-5.22192l5.10217,6.61126l-5.78776,-1.33382l-10.35267,5.71709l-0.13861,-15.20525l-2.5526,-3.11239z" fill="#ffffff" stroke="#bb44c4" stroke-width="0.375" stroke-linecap="round"/><path d="M266.91265,278.34429l-2.03856,13.51316l-8.32018,-7.02301l-14.56206,0.27247l-4.22653,-3.2543l18.9487,-1.01123l5.77263,3.26642l1.09632,-8.3666l6.96247,-0.58969z" fill="#ffffff" stroke="#bb44c4" stroke-width="0.375" stroke-linecap="round"/><path d="M239.14584,279.35889c-9.93026,-0.07777 -17.93246,-6.26131 -17.87332,-13.81133c0.05913,-7.54998 8.15718,-13.60743 18.08746,-13.52966c9.93026,0.07778 17.93245,6.26131 17.87332,13.81132c-0.05913,7.54998 -8.15718,13.60744 -18.08746,13.52966z" fill="url(#color-6)" stroke="none" stroke-width="0" stroke-linecap="butt"/><path d="M240.19079,274.92221c-7.28964,-0.05709 -13.16602,-4.32442 -13.12524,-9.53133c0.04078,-5.20688 5.98328,-9.38164 13.27292,-9.32454c7.28964,0.05709 13.16603,4.32441 13.12525,9.53133c-0.04078,5.20688 -5.98328,9.38165 -13.27292,9.32455z" fill="url(#color-7)" stroke="none" stroke-width="0" stroke-linecap="butt"/><path d="M239.20491,271.81657c-9.26081,-0.07254 -16.7288,-5.16645 -16.68014,-11.37751c0.04865,-6.21108 7.59549,-11.18736 16.85632,-11.11482c9.26081,0.07253 16.7288,5.16645 16.68014,11.37751c-0.04865,6.21109 -7.59549,11.18736 -16.85633,11.11483z" fill="url(#color-8)" stroke="none" stroke-width="0" stroke-linecap="butt"/><path d="M239.20491,271.81657c-9.26081,-0.07254 -16.7288,-5.16645 -16.68014,-11.37751c0.04865,-6.21108 7.59549,-11.18736 16.85632,-11.11482c9.26081,0.07253 16.7288,5.16645 16.68014,11.37751c-0.04865,6.21109 -7.59549,11.18736 -16.85633,11.11483z" fill="url(#color-9)" stroke="none" stroke-width="0" stroke-linecap="butt"/><path d="M240.66849,274.11778c-7.02932,-0.05507 -12.68351,-5.73775 -12.62905,-12.69268c0.05448,-6.95493 5.79703,-12.54836 12.82631,-12.4933c7.02932,0.05507 12.68352,5.73775 12.62904,12.69268c-0.05448,6.95493 -5.79703,12.54835 -12.82631,12.4933z" fill="url(#color-10)" stroke="none" stroke-width="0" stroke-linecap="butt"/><path d="M239.51944,274.64756c-7.73597,-0.0606 -13.97084,-4.75284 -13.92598,-10.4804c0.04486,-5.72755 6.35247,-10.32158 14.08844,-10.26097c7.73597,0.0606 13.97081,4.75285 13.92595,10.48041c-0.04486,5.72755 -6.35247,10.32157 -14.08841,10.26097z" fill="url(#color-11)" stroke="none" stroke-width="0" stroke-linecap="butt"/><path d="M239.51944,274.64756c-7.73597,-0.0606 -13.97084,-4.75284 -13.92598,-10.4804c0.04486,-5.72755 6.35247,-10.32158 14.08844,-10.26097c7.73597,0.0606 13.97081,4.75285 13.92595,10.48041c-0.04486,5.72755 -6.35247,10.32157 -14.08841,10.26097z" fill="url(#color-12)" stroke="none" stroke-width="0" stroke-linecap="butt"/><path d="M239.51944,274.64756c-7.73597,-0.0606 -13.97084,-4.75284 -13.92598,-10.4804c0.04486,-5.72755 6.35247,-10.32158 14.08844,-10.26097c7.73597,0.0606 13.97081,4.75285 13.92595,10.48041c-0.04486,5.72755 -6.35247,10.32157 -14.08841,10.26097z" fill="url(#color-13)" stroke="none" stroke-width="0" stroke-linecap="butt"/><path d="M239.51944,274.64756c-7.73597,-0.0606 -13.97084,-4.75284 -13.92598,-10.4804c0.04486,-5.72755 6.35247,-10.32158 14.08844,-10.26097c7.73597,0.0606 13.97081,4.75285 13.92595,10.48041c-0.04486,5.72755 -6.35247,10.32157 -14.08841,10.26097z" fill="url(#color-14)" stroke="none" stroke-width="0" stroke-linecap="butt"/><path d="M250.45164,257.85719l-2.83452,-0.0222l-7.38227,4.83842l4.96962,-9.36704l7.21407,0.18535l8.13987,13.59288l-3.97117,13.49804l-4.39373,1.64063l4.48254,-12.97862z" fill="#ffffff" stroke="#bb44c4" stroke-width="0.375" stroke-linecap="round"/><path d="M233.03892,260.16896l-3.43531,-5.56741l-2.19132,0.11168l-8.31951,9.3408l2.1116,10.06675l12.61833,1.12965l-3.89146,3.31957l-11.192,-2.2781l-3.11407,-13.68238l9.74686,-10.61812l9.27453,0.33035z" fill="#ffffff" stroke="#bb44c4" stroke-width="0.375" stroke-linecap="round"/></g></g></svg>