<svg version="1.1" xmlns="http://www.w3.org/2000/svg" xmlns:xlink="http://www.w3.org/1999/xlink" width="74.58189" height="105.71878" viewBox="0,0,74.58189,105.71878"><defs><linearGradient x1="221.82173" y1="197.05422" x2="221.47537" y2="211.6193" gradientUnits="userSpaceOnUse" id="color-1"><stop offset="0" stop-color="#3c0e6e"/><stop offset="1" stop-color="#7223b7"/></linearGradient><linearGradient x1="259.32025" y1="196.88455" x2="255.28488" y2="210.88375" gradientUnits="userSpaceOnUse" id="color-2"><stop offset="0" stop-color="#3c0e6e"/><stop offset="1" stop-color="#7223b7"/></linearGradient><linearGradient x1="239.7624" y1="178.55866" x2="239.07872" y2="207.30857" gradientUnits="userSpaceOnUse" id="color-3"><stop offset="0" stop-color="#ce7d14"/><stop offset="1" stop-color="#ce6c11"/></linearGradient><radialGradient cx="239.94568" cy="187.41537" r="24.68676" gradientUnits="userSpaceOnUse" id="color-4"><stop offset="0" stop-color="#754a1b"/><stop offset="1" stop-color="#3f2b10"/></radialGradient><linearGradient x1="252.60869" y1="174.18434" x2="224.4664" y2="173.51511" gradientUnits="userSpaceOnUse" id="color-5"><stop offset="0" stop-color="#7416b2"/><stop offset="1" stop-color="#633fc7"/></linearGradient><linearGradient x1="260.07385" y1="175.36611" x2="215.75194" y2="174.31213" gradientUnits="userSpaceOnUse" id="color-6"><stop offset="0" stop-color="#4997f2"/><stop offset="1" stop-color="#7c8edf"/></linearGradient></defs><g transform="translate(-202.53623,-126.8783)"><g data-paper-data="{&quot;isPaintingLayer&quot;:true}" fill-rule="nonzero" stroke-linejoin="miter" stroke-miterlimit="10" stroke-dasharray="" stroke-dashoffset="0" style="mix-blend-mode: normal"><path d="M267.59372,177.42663l3.55962,-6.32464c0,0 1.73036,0.23226 2.57008,0.87931c0.83972,0.64704 1.44735,2.2163 1.44735,2.2163l-0.43478,1.0806c0,0 1.16602,0.42423 1.88213,1.13569c0.71614,0.71147 0.0974,1.63874 0.0974,1.63874l-1.71652,3.36836z" fill="none" stroke="#6b0000" stroke-width="1" stroke-linecap="round"/><path d="M228.43634,206.43025c0,0 5.91261,1.03651 9.7997,1.32515c3.88706,0.28865 8.84855,-1.34385 8.84855,-1.34385l2.31191,12.59283l-3.5967,4.48541l-5.5846,-1.88419l-0.23164,-7.03991l-4.20747,0.09336l-0.1395,5.30165l-5.1167,1.99162l-3.9305,-3.73448l1.84695,-11.78765z" fill="#cf7e16" stroke="#772203" stroke-width="0.5" stroke-linecap="round"/><path d="M227.78617,219.30058c0.2605,6.04537 -4.7591,11.17152 -11.21161,11.44956c-6.45251,0.27804 -11.89445,-4.39736 -12.15495,-10.44272c-0.26048,-6.0454 4.7591,-11.17151 11.2116,-11.44956c6.45251,-0.27804 11.89445,4.39732 12.15496,10.44268z" fill="#d30000" stroke="#caebf0" stroke-width="0.35" stroke-linecap="butt"/><path d="M244.00771,216.32185c-1.19099,-0.02832 -2.11516,-1.78916 -2.06418,-3.93297c0.05098,-2.14381 1.0578,-3.85873 2.24879,-3.83041c1.19099,0.02832 2.11518,1.78916 2.0642,3.93297c-0.05098,2.14381 -1.05779,3.85874 -2.24882,3.83041z" fill="#7125b9" stroke="none" stroke-width="NaN" stroke-linecap="butt"/><path d="M231.97235,214.30946c-1.19099,-0.02832 -2.11519,-1.78917 -2.06421,-3.93298c0.05098,-2.14381 1.05779,-3.85873 2.24882,-3.83041c1.19099,0.02832 2.11519,1.78916 2.06421,3.93297c-0.05098,2.14381 -1.05779,3.85874 -2.24882,3.83042z" fill="#7125b9" stroke="none" stroke-width="NaN" stroke-linecap="butt"/><path d="M205.99734,215.62328c1.80518,-3.01242 4.05938,-2.07636 4.05938,-2.07636c0,0 -2.18362,0.91072 -3.37566,2.73222c-1.19205,1.82151 -1.47163,5.4283 -1.47163,5.4283c0,0 -1.04532,-3.29534 0.78791,-6.08416z" fill="#860000" stroke="#000000" stroke-width="0" stroke-linecap="round"/><path d="M247.6344,205.36057l0.24658,4.14867l-9.2461,4.09556l-8.73286,-2.96955l0.12718,-5.34811z" fill="#3c1171" stroke="#000000" stroke-width="0" stroke-linecap="round"/><path d="M213.98883,230.76813c-2.3339,0.10057 -4.30385,-1.62629 -4.39998,-3.85706c-0.09613,-2.23077 1.71798,-4.12069 4.05192,-4.22126c2.3339,-0.10057 4.30385,1.62629 4.39998,3.85707c0.09613,2.23074 -1.71798,4.12069 -4.05192,4.22126z" fill="#96b8c8" stroke="#caebf0" stroke-width="0" stroke-linecap="butt"/><path d="M242.02624,209.68312l2.17321,-0.75654l0.57062,2.4382l-2.80146,0.74161z" fill="#c79b28" stroke="#000000" stroke-width="0" stroke-linecap="round"/><path d="M238.99194,212.6642l-4.66061,-0.38021c0,0 -5.44748,-3.63234 -6.26767,-4.54931c-0.82019,-0.91697 0.18366,-3.94689 0.18366,-3.94689c0,0 -0.54928,0.6499 1.99596,2.92111c2.19977,1.96293 8.91738,2.63669 8.91738,2.63669z" fill="#b67200" stroke="#efc124" stroke-width="0" stroke-linecap="round"/><path d="M238.99194,212.6642l-4.66061,-0.38021c0,0 -5.21663,-2.01044 -6.03682,-2.9274c-0.82019,-0.91697 -0.34631,-4.31867 -0.34631,-4.31867c0,0 0.66455,2.47477 3.51531,3.22662c2.85076,0.75186 7.69717,1.08106 7.69717,1.08106z" fill="#744c1c" stroke="#efc124" stroke-width="0" stroke-linecap="round"/><path d="M236.65821,205.06544l4.66701,0.11098l-0.10885,4.57727l-4.66701,-0.11098z" fill="#e0a01e" stroke="#efc124" stroke-width="0.25" stroke-linecap="butt"/><path d="M234.71777,208.55513l8.10141,0.19265l-0.06564,2.76029l-8.1014,-0.19265z" fill="#fdfe63" stroke="none" stroke-width="0" stroke-linecap="butt"/><path d="M234.6985,209.0725l8.10843,0.19282l-0.11898,5.00307l-8.10842,-0.19282z" fill="#efc224" stroke="none" stroke-width="0" stroke-linecap="butt"/><path d="M235.00662,210.63338l7.07332,0.16821l-0.06564,2.76032l-7.07332,-0.16821z" fill="#fdfe63" stroke="none" stroke-width="0" stroke-linecap="butt"/><path d="M235.02713,209.77078l7.07332,0.16821l-0.06564,2.76032l-7.07332,-0.16821z" fill="#744c1c" stroke="none" stroke-width="0" stroke-linecap="butt"/><path d="M249.38981,202.13534l0.98107,7.83601l-5.88284,1.92552l-0.16479,-8.17578z" fill="#774b21" stroke="#c79b3c" stroke-width="0.25" stroke-linecap="round"/><path d="M247.06075,207.55783c0.57002,0.01355 1.02114,0.48665 1.00758,1.05667c-0.01355,0.57002 -0.48665,1.02114 -1.05667,1.00759c-0.57002,-0.01355 -1.02114,-0.48665 -1.00759,-1.05667c0.01355,-0.57002 0.48665,-1.02114 1.05667,-1.00758z" fill="#4e3414" stroke="none" stroke-width="0" stroke-linecap="butt"/><path d="M224.96441,217.31362l-3.93504,6.51491l-2.17026,-0.12528l5.38997,-7.12461z" fill="#ffffff" stroke="#000000" stroke-width="0" stroke-linecap="round"/><path d="M213.62109,232.41793c-2.31683,0.09983 -4.27239,-1.61442 -4.36781,-3.82886c-0.09543,-2.21444 1.70542,-4.09057 4.02228,-4.19039c2.31683,-0.09983 4.27239,1.61442 4.36781,3.82886c0.09543,2.21444 -1.70542,4.09057 -4.02228,4.19039z" fill="#ae7135" stroke="#caebf0" stroke-width="0.35" stroke-linecap="butt"/><path d="M210.39653,226.57442c0,0 1.35248,-1.76189 3.54823,-1.57165c2.3041,0.09717 2.67687,1.80842 2.67687,1.80842c0,0 -1.33003,-1.04259 -2.76208,-1.16352c-1.43205,-0.12096 -3.46297,0.92672 -3.46297,0.92672z" fill="#72502b" stroke="#000000" stroke-width="0" stroke-linecap="round"/><path d="M228.91469,217.38988l0.08473,1.8005" fill="none" stroke="#b66519" stroke-width="0.25" stroke-linecap="round"/><path d="M232.9647,217.86728l0.09036,1.92051" fill="none" stroke="#b66519" stroke-width="0.25" stroke-linecap="round"/><path d="M242.77742,219.04466l0.09602,2.04055" fill="none" stroke="#b66519" stroke-width="0.25" stroke-linecap="round"/><path d="M246.52845,220.68996l-0.07342,-1.56043" fill="none" stroke="#b66519" stroke-width="0.25" stroke-linecap="round"/><path d="M229.99176,203.72556l-6.37293,9.24016l-5.05131,8.13809c0,0 -1.50481,-4.66986 -4.57001,-5.29031c-3.0931,-0.62609 -7.17077,1.93454 -7.17077,1.93454c0,0 -0.469,-8.222 -0.09274,-9.71774c0.37626,-1.49573 3.94945,-2.65883 3.94945,-2.65883l8.81582,-9.82975" data-paper-data="{&quot;index&quot;:null}" fill="#b64404" stroke="#6b0000" stroke-width="0.5" stroke-linecap="round"/><path d="M213.69952,208.35782l1.78014,0.04234l-2.85509,4.30409l4.11129,-2.65495l-0.39679,3.06714l3.44472,-1.86118l0.43549,2.11539l2.60089,-0.42395l0.07715,3.5642l-3.39062,6.3964l-1.46805,0.45088c0,0 -0.90767,-4.85178 -4.23482,-5.76811c-3.32715,-0.91637 -7.99148,2.40077 -7.99148,2.40077c0,0 0.7973,-9.45926 2.22681,-11.92956c1.42954,-2.4703 5.71595,-3.43306 5.71595,-3.43306z" fill="#cf7d14" stroke="#000000" stroke-width="0" stroke-linecap="round"/><path d="M220.48601,195.42126l10.92655,8.20746l-6.0394,8.75749c0,0 -3.59553,-1.01898 -5.28541,-2.38195c-2.18274,-1.76048 -6.71494,-7.29693 -6.71494,-7.29693z" fill="url(#color-1)" stroke="#000000" stroke-width="0" stroke-linecap="round"/><path d="M215.81262,200.63367l5.54135,6.5186l6.16148,2.21794l-2.48913,3.04792l-6.83925,-2.75188l-4.66646,-7.01569z" fill="#f7e444" stroke="#000000" stroke-width="0" stroke-linecap="round"/><path d="M214.95098,166.44166l5.10137,-11.02492c0,0 5.6204,-9.70418 7.5443,-11.12462c1.92389,-1.42043 11.03566,-9.24868 11.03566,-9.24868l0.29136,12.05447c0,0 6.89023,-11.57739 10.67927,-15.17223c2.46789,-2.3414 7.77314,-4.34775 7.77314,-4.34775c0,0 0.61759,6.57408 0.64451,9.91294c0.02758,3.41882 -0.48084,10.36573 -0.48084,10.36573l7.7434,-2.50143l1.93908,7.47419c0,0 0.86197,3.39995 0.90586,6.22135c0.04882,3.13671 -0.1207,19.53323 -0.1207,19.53323c0,0 6.14418,-1.20565 7.44705,2.79396c1.30287,3.99961 0.22911,11.1598 -2.85386,15.02891c-2.23724,2.80776 -6.19497,1.17364 -6.19497,1.17364c0,0 -8.03886,8.17359 -26.00782,9.30518c-13.58285,0.85543 -25.96921,-6.6818 -25.96921,-6.6818c0,0 -3.44398,0.82146 -5.94972,-0.54342c-3.1525,-1.71714 -6.44567,-9.00392 -5.15535,-15.76802c0.51487,-2.69896 6.83533,-2.43789 6.83533,-2.43789z" fill="none" stroke="#6b0000" stroke-width="1" stroke-linecap="round"/><path d="M214.95098,166.44166l5.10137,-11.02492c0,0 5.6204,-9.70418 7.5443,-11.12462c1.92389,-1.42043 11.03566,-9.24868 11.03566,-9.24868l0.29136,12.05447c0,0 6.89023,-11.57739 10.67927,-15.17223c2.46789,-2.3414 7.77314,-4.34775 7.77314,-4.34775c0,0 0.61759,6.57408 0.64451,9.91294c0.02758,3.41882 -0.48084,10.36573 -0.48084,10.36573l7.7434,-2.50143l1.93908,7.47419c0,0 0.86197,3.39995 0.90586,6.22135c0.04882,3.13671 -0.1207,19.53323 -0.1207,19.53323c0,0 6.14418,-1.20565 7.44705,2.79396c1.30287,3.99961 0.22911,11.1598 -2.85386,15.02891c-2.23724,2.80776 -6.19497,1.17364 -6.19497,1.17364c0,0 -8.03886,8.17359 -26.00782,9.30518c-13.58285,0.85543 -25.96921,-6.6818 -25.96921,-6.6818c0,0 -3.44398,0.82146 -5.94972,-0.54342c-3.1525,-1.71714 -6.44567,-9.00392 -5.15535,-15.76802c0.51487,-2.69896 7.02942,-2.43328 7.02942,-2.43328z" fill="#b53406" stroke="#6b0000" stroke-width="0" stroke-linecap="round"/><path d="M232.29346,170.71527c0,0 1.6784,-5.43389 3.97351,-8.48518c3.04925,-4.05386 12.71096,-13.69639 12.71096,-13.69639c0,0 -5.07388,10.08568 -6.15056,14.30352c-0.84767,3.32083 0.21166,8.96215 0.21166,8.96215z" fill="#a02802" stroke="#000000" stroke-width="0" stroke-linecap="round"/><path d="M233.93525,141.59925c0,0 -5.13622,9.71744 -6.51788,13.59112c-1.02662,2.87831 -1.02799,7.56495 -1.02799,7.56495l-8.47322,-0.82292c0,0 2.29161,-5.4519 4.60752,-8.39149c2.89395,-3.67329 11.41157,-11.94166 11.41157,-11.94166z" fill="#a02802" stroke="#000000" stroke-width="0" stroke-linecap="round"/><path d="M252.52265,170.78205l5.78141,-16.64092l0.62623,8.50766l3.59792,-11.92859l0.34069,20.51504z" fill="#a02802" stroke="#000000" stroke-width="0" stroke-linecap="round"/><path d="M249.02901,138.81646c-1.41892,2.25247 -2.93967,6.33429 -2.93967,6.33429l1.59687,-6.17625l-5.92468,5.24479c0,0 3.55788,-5.29659 5.87144,-7.64052c2.20976,-2.23876 7.71286,-6.12203 7.71286,-6.12203c0,0 -4.68117,5.76323 -6.31682,8.35973z" fill="#a02802" stroke="#000000" stroke-width="0" stroke-linecap="round"/><path d="M266.94817,193.31544l1.40081,-10.25806c0,0 3.5781,-0.98681 4.03388,0.90234c0.45585,1.88915 0.09161,6.04278 -1.63903,9.02199c-1.73064,2.97924 -3.7957,0.33373 -3.7957,0.33373z" data-paper-data="{&quot;index&quot;:null}" fill="#cd7d10" stroke="#8a2b01" stroke-width="0.25" stroke-linecap="round"/><path d="M262.31531,197.10348l3.85595,9.14244c0,0 2.17347,2.13948 2.22375,3.88612c0.05028,1.74665 -1.7277,13.34908 -1.7277,13.34908l-8.35923,-1.10348l-1.51288,-2.43175l-2.68192,1.95949l-3.46765,-0.82767l0.64279,-10.26022l-2.41792,-8.04352" fill="#b64404" stroke="#6b0000" stroke-width="0.5" stroke-linecap="round"/><path d="M254.86132,212.81898l2.68193,-1.95951l1.89873,2.99992l1.04744,-3.75524l2.19334,4.04511l-1.18557,-5.00616l2.22601,0.42551l1.56189,-2.99767l2.22372,3.88613l-1.89371,12.49328l-6.14029,-1.50339l-2.3757,-3.09109l-2.13713,2.55807l-3.33901,-0.63825l0.26403,-10.00301z" fill="#cf7d14" stroke="#000000" stroke-width="0" stroke-linecap="round"/><path d="M265.68617,204.81023c0,0 -5.98333,3.92338 -8.59339,4.94864c-0.89971,0.35339 -6.92704,0.97906 -6.92704,0.97906l-2.87265,-10.20042l13.79088,-4.81047z" data-paper-data="{&quot;index&quot;:null}" fill="url(#color-2)" stroke="#000000" stroke-width="0" stroke-linecap="round"/><path d="M265.74487,205.9639l-7.11668,4.83666l-8.11493,0.32486l-1.2357,-2.2734l9.07259,-1.85567l6.72377,-3.81031z" fill="#f7e444" stroke="#000000" stroke-width="0" stroke-linecap="round"/><path d="M212.06828,195.22162c0,0 -1.97911,2.55567 -3.51435,-0.4903c-1.53528,-3.04593 -1.77464,-7.20785 -1.3068,-9.07504c0.46784,-1.86719 3.76472,-0.73395 3.76472,-0.73395l1.05641,10.29925z" data-paper-data="{&quot;index&quot;:null}" fill="#cd7d10" stroke="#8a2b01" stroke-width="0.25" stroke-linecap="round"/><path d="M265.67578,195.92741c0,0 -5.5419,10.81712 -25.70965,11.35202c-19.00352,0.50403 -28.03992,-12.71294 -28.03992,-12.71294l-0.03691,-9.2405c0,0 0.40124,-4.19743 8.93822,-4.45759c15.18245,-1.57376 19.53254,11.25934 19.53254,11.25934c0,0 2.85338,-11.25738 19.70021,-13.00356c4.06941,-0.42181 7.3594,1.74257 7.3594,1.74257z" fill="url(#color-3)" stroke="#8a2b01" stroke-width="0.5" stroke-linecap="round"/><path d="M233.89773,201.54288c-1.8553,3.7647 -6.73383,4.7276 -10.89661,2.15066c-4.16278,-2.57698 -6.03333,-7.71793 -4.17803,-11.4827c1.8553,-3.7647 6.73384,-4.7276 10.89661,-2.15066c4.16278,2.57698 6.03333,7.71793 4.17803,11.4827z" fill="#ffffff" stroke="#954116" stroke-width="0" stroke-linecap="butt"/><path d="M250.03182,189.34937c4.15054,-2.8287 9.17534,-2.16552 11.22327,1.48131c2.04793,3.64676 0.34338,8.89622 -3.80719,11.72491c-4.15054,2.8287 -9.17538,2.16552 -11.22327,-1.48127c-2.04793,-3.64676 -0.34338,-8.89625 3.8072,-11.72501z" data-paper-data="{&quot;index&quot;:null}" fill="#ffffff" stroke="#954116" stroke-width="0" stroke-linecap="butt"/><path d="M255.51165,187.94231l-7.6239,2.38744l-1.07356,-5.35473l8.16011,-2.76059z" data-paper-data="{&quot;index&quot;:null}" fill="#8d4f11" stroke="#602a0d" stroke-width="0" stroke-linecap="round"/><path d="M225.61991,182.86282l8.01966,3.14535l-1.32688,5.29767l-7.50182,-2.74717z" data-paper-data="{&quot;index&quot;:null}" fill="#8d4f11" stroke="#602a0d" stroke-width="0" stroke-linecap="round"/><path d="M249.11995,194.71936c1.27752,-0.04447 2.33883,1.4719 2.37053,3.38698c0.03167,1.91504 -0.97825,3.50356 -2.25577,3.54803c-1.27752,0.04447 -2.33884,-1.47191 -2.37054,-3.38698c-0.03167,-1.91504 0.97825,-3.50356 2.25578,-3.54803z" data-paper-data="{&quot;index&quot;:null}" fill="#df6500" stroke="none" stroke-width="0" stroke-linecap="butt"/><path d="M249.11737,194.82783c1.7717,-0.00907 2.01138,1.83601 2.01138,1.83601l-4.03253,0.17117c0,0 0.25138,-2.0797 2.02112,-2.00717z" data-paper-data="{&quot;index&quot;:null}" fill="#8b2900" stroke="none" stroke-width="0" stroke-linecap="butt"/><path d="M229.56856,195.86553c1.49571,-0.03717 2.74567,1.441 2.79187,3.30155c0.04618,1.86055 -1.12886,3.39887 -2.62457,3.43604c-1.49571,0.03717 -2.7457,-1.44097 -2.7919,-3.30152c-0.04618,-1.86055 1.12889,-3.3989 2.6246,-3.43604z" data-paper-data="{&quot;index&quot;:null}" fill="#df6500" stroke="none" stroke-width="0" stroke-linecap="butt"/><path d="M229.56606,195.97089c2.07457,-0.00038 2.36398,1.79315 2.36398,1.79315l-4.72113,0.14714c0,0 0.2845,-2.01913 2.35715,-1.94029z" data-paper-data="{&quot;index&quot;:null}" fill="#8b2900" stroke="none" stroke-width="0" stroke-linecap="butt"/><path d="M214.16583,167.75796l52.45563,1.63579l1.36494,12.50773c0,0 -1.70596,0.26782 -2.85734,0.9186c-1.15137,0.65078 -2.63459,4.91575 -10.68189,5.43088c-6.30788,0.40378 -8.55456,-4.50796 -14.77093,-4.64115c-6.21637,-0.13319 -6.23299,5.17031 -16.9472,4.53854c-6.68282,-0.39407 -6.41538,-3.8228 -9.5685,-5.63544c-2.09955,-1.20699 -4.39929,-1.50555 -4.39929,-1.50555z" fill="url(#color-4)" stroke="none" stroke-width="0" stroke-linecap="butt"/><path d="M267.94979,174.50391l-27.27072,-0.47926c0,0 -0.01836,-0.60899 -0.01103,-0.91701c0.17221,-7.24197 6.42792,-12.96723 13.97247,-12.78782c7.54455,0.17941 13.52107,6.19556 13.34886,13.43753c-0.00596,0.25076 -0.03957,0.74657 -0.03957,0.74657z" data-paper-data="{&quot;index&quot;:null}" fill="#d89400" stroke="none" stroke-width="0" stroke-linecap="butt"/><path d="M267.59372,177.42663l3.55962,-6.32464c0,0 1.73036,0.23226 2.57008,0.87931c0.83972,0.64704 1.44735,2.2163 1.44735,2.2163l-0.43478,1.0806c0,0 1.16602,0.42423 1.88213,1.13569c0.71614,0.71147 0.0974,1.63874 0.0974,1.63874l-1.71652,3.36836z" fill="#c79b40" stroke="#000000" stroke-width="0" stroke-linecap="round"/><path d="M270.61995,177.59004c-1.40274,-0.98504 -2.24003,-2.27143 -1.87011,-2.87331c0.36992,-0.60188 1.80701,-0.29123 3.20977,0.6938c1.40274,0.98504 2.24006,2.27143 1.87011,2.87331c-0.36992,0.60188 -1.80703,0.29123 -3.20977,-0.6938z" fill="#9ecef3" stroke="none" stroke-width="0" stroke-linecap="butt"/><path d="M273.09951,179.81935c-1.18897,-0.83491 -1.89865,-1.92526 -1.58506,-2.43539c0.31355,-0.51012 1.53159,-0.24686 2.72055,0.58805c1.18897,0.83491 1.89865,1.92526 1.58506,2.43539c-0.31355,0.51012 -1.53159,0.24686 -2.72055,-0.58805z" fill="#9ecef3" stroke="none" stroke-width="0" stroke-linecap="butt"/><path d="M270.21024,178.48652c-1.40274,-0.98504 -2.24002,-2.27144 -1.8701,-2.87332c0.36992,-0.60188 1.807,-0.29123 3.20977,0.6938c1.40274,0.98504 2.24005,2.27147 1.8701,2.87332c-0.36992,0.60188 -1.80703,0.29123 -3.20977,-0.6938z" fill="#95763f" stroke="none" stroke-width="0" stroke-linecap="butt"/><path d="M272.6898,180.71586c-1.18897,-0.83491 -1.89865,-1.92526 -1.58506,-2.43538c0.31355,-0.51012 1.53159,-0.24686 2.72055,0.58805c1.18897,0.83491 1.89865,1.92524 1.58506,2.43536c-0.31355,0.51012 -1.53159,0.24688 -2.72055,-0.58803z" fill="#95763f" stroke="none" stroke-width="0" stroke-linecap="butt"/><path d="M268.57136,175.97285c0,0 1.40819,0.40177 2.66649,1.36814c0.88975,0.68331 1.1139,2.30093 1.1139,2.30093c0,0 1.06849,0.40441 1.46769,0.66555c0.39379,0.25759 1.15804,1.41449 1.15804,1.41449l-6.64688,11.07536l-7.48982,-4.98817z" fill="#744c20" stroke="#000000" stroke-width="0" stroke-linecap="round"/><path d="M262.69094,190.34776c-1.50313,-0.98742 -2.4015,-2.27527 -2.00655,-2.87655c0.39495,-0.60128 1.93373,-0.28821 3.43686,0.69921c1.50313,0.98742 2.40151,2.27531 2.00656,2.87655c-0.39495,0.60128 -1.93374,0.28821 -3.43687,-0.69921z" fill="#95763f" stroke="none" stroke-width="0" stroke-linecap="butt"/><path d="M265.34875,192.58135c-1.27405,-0.83694 -2.03547,-1.92852 -1.70071,-2.43814c0.33476,-0.50962 1.63897,-0.2443 2.91302,0.59264c1.27405,0.83694 2.03547,1.92849 1.70071,2.43811c-0.33476,0.50962 -1.63897,0.24433 -2.91303,-0.5926z" fill="#95763f" stroke="none" stroke-width="0" stroke-linecap="butt"/><path d="M262.57842,190.91792c-1.3442,-0.88304 -2.1476,-2.03472 -1.7944,-2.57242c0.3532,-0.5377 1.72924,-0.25776 3.07344,0.62528c1.3442,0.88304 2.1476,2.03472 1.7944,2.57242c-0.3532,0.5377 -1.72924,0.25776 -3.07344,-0.62528z" fill="#402c11" stroke="none" stroke-width="0" stroke-linecap="butt"/><path d="M264.95521,192.91533c-1.13932,-0.74844 -1.82027,-1.72461 -1.52091,-2.18036c0.29937,-0.45575 1.4657,-0.21847 2.60502,0.52997c1.13932,0.74844 1.82024,1.72461 1.52087,2.18032c-0.29937,0.45575 -1.46566,0.21847 -2.60502,-0.52997z" fill="#402c11" stroke="none" stroke-width="0" stroke-linecap="butt"/><path d="M267.92302,175.50954c-0.11888,4.999 -3.71733,11.20493 -13.33385,11.96931c-7.87803,0.62619 -9.23396,-4.68929 -14.77929,-4.76101c-8.10626,-0.10484 -9.84441,6.92732 -18.95898,4.3612c-6.77386,-1.90709 -10.8053,-9.37964 -10.72055,-12.94382c0.00733,-0.30802 0.09123,-0.91462 0.09123,-0.91462l57.673,1.54072c0,0 0.03431,0.49745 0.02834,0.74821z" fill="#efc524" stroke="none" stroke-width="0" stroke-linecap="butt"/><path d="M240.48605,173.34004l27.49768,0.6539z" fill="none" stroke="#be7e01" stroke-width="0.3" stroke-linecap="round"/><path d="M237.53634,174.35819l-27.2707,-0.47925c0,0 -0.01839,-0.609 -0.01107,-0.91702c0.17221,-7.24197 6.42791,-12.96726 13.9725,-12.78785c7.54456,0.17941 13.52105,6.19559 13.34883,13.43756c-0.00597,0.25076 -0.03954,0.74657 -0.03954,0.74657z" data-paper-data="{&quot;index&quot;:null}" fill="#d89400" stroke="none" stroke-width="0" stroke-linecap="butt"/><path d="M220.67241,169.55948l-9.52471,-0.66972c0,0 2.41783,-7.57074 13.61658,-8.6212c3.41547,-0.32038 8.77109,4.57186 13.69992,4.63131c7.35367,0.08868 11.59084,-5.93722 17.96964,-4.51802c8.89502,1.97904 11.1052,10.09278 11.1052,10.09278l-11.47357,0.45851c0,0 -3.88979,-1.19994 -18.35219,-1.49116c-14.46243,-0.29122 -17.04083,0.11751 -17.04083,0.11751z" fill="#efc224" stroke="#f6e143" stroke-width="0.125" stroke-linecap="round"/><path d="M215.17741,164.00289l14.50033,22.04371l-2.17405,0.9016l-14.32545,-21.09288z" fill="#f9f65a" stroke="#000000" stroke-width="0" stroke-linecap="round"/><path d="M221.71941,160.50375l12.67545,19.59059l-5.22388,-0.16008l-11.22389,-17.97583z" fill="#f9f65a" stroke="#000000" stroke-width="0" stroke-linecap="round"/><path d="M245.37417,163.42777l8.11302,11.51235l3.10928,12.17517l-1.73278,-0.04676l-3.30337,-10.31773l-8.91962,-12.23602z" fill="#f9f65a" stroke="#000000" stroke-width="0" stroke-linecap="round"/><path d="M248.46265,161.46189c0.82117,-0.27372 2.86908,-0.43491 2.86908,-0.43491l15.19736,19.70053c0,0 -1.57081,1.64829 -2.22209,2.43195c-0.60624,0.72949 -2.13329,1.71709 -2.13329,1.71709l-15.715,-22.22509c0,0 1.20119,-0.92193 2.00394,-1.18957z" fill="#f9f65a" stroke="#000000" stroke-width="0" stroke-linecap="round"/><path d="M263.70953,174.40016c-0.12148,5.10837 -4.2186,9.15446 -9.15115,9.03717c-4.93255,-0.1173 -8.83271,-4.35356 -8.71123,-9.46194c0.12148,-5.10837 4.21859,-9.15443 9.15114,-9.03714c4.93255,0.1173 8.83271,4.35353 8.71123,9.46191z" fill="#7416b2" stroke="none" stroke-width="0" stroke-linecap="butt"/><path d="M210.07256,173.19435l27.49768,0.6539z" fill="none" stroke="#be7e01" stroke-width="0.3" stroke-linecap="round"/><path d="M232.142,173.85333c-0.11579,4.86929 -4.16523,8.72254 -9.04465,8.6065c-4.87941,-0.11604 -8.74115,-4.15741 -8.62536,-9.0267c0.11579,-4.86929 4.16523,-8.72257 9.04468,-8.60654c4.87941,0.11604 8.74112,4.15744 8.62533,9.02673z" fill="#633fc7" stroke="none" stroke-width="0" stroke-linecap="butt"/><path d="M225.43889,165.28497c0,0 7.40874,3.00822 13.7154,3.04488c6.30666,0.03665 13.66901,-3.17045 13.66901,-3.17045l-1.00225,17.64786c0,0 -6.39237,-2.67654 -12.94368,-2.83233c-6.55131,-0.15579 -14.62559,2.56512 -14.62559,2.56512z" fill="url(#color-5)" stroke="#000000" stroke-width="0" stroke-linecap="round"/><path d="M216.8258,184.4996c0,0 4.6125,1.57444 8.08085,1.39046c4.03016,-0.21379 11.63664,-3.53611 13.72588,-3.78481c1.64503,-0.19584 7.65006,2.49392 12.54026,3.76338c4.23659,1.09981 7.54763,0.79239 7.54763,0.79239c0,0 -2.56094,1.45923 -7.39369,0.60095c-4.80168,-0.85274 -7.28031,-4.79117 -12.50935,-4.76395c-5.22905,0.02722 -6.93077,4.82598 -14.68559,5.08822c-5.8188,0.19679 -7.30599,-3.08665 -7.30599,-3.08665z" fill="#da9700" stroke="#000000" stroke-width="0" stroke-linecap="round"/><path d="M259.92284,181.71802c0,0 -1.04711,0.78322 -1.64503,1.06465c-0.53846,0.25344 -1.78292,0.54864 -1.78292,0.54864l-19.5734,-8.37449l-1.2299,4.20773l-19.91079,-9.59633c0,0 -0.27376,-0.67469 0.97967,-1.98731c1.08882,-1.14027 2.61496,-1.82067 2.61496,-1.82067l12.767,8.2355l0.383,-4.22785l27.39737,11.9501z" fill="url(#color-6)" stroke="#000000" stroke-width="0" stroke-linecap="round"/></g></g></svg>