<svg version="1.1" xmlns="http://www.w3.org/2000/svg" xmlns:xlink="http://www.w3.org/1999/xlink" width="110.7163" height="130.8843" viewBox="0,0,110.7163,130.8843"><g transform="translate(-463.91664,-95.44351)"><g data-paper-data="{&quot;isPaintingLayer&quot;:true}" fill-rule="nonzero" stroke-linejoin="miter" stroke-miterlimit="10" stroke-dasharray="" stroke-dashoffset="0" style="mix-blend-mode: normal"><path d="M470.46532,96.9459l98.3125,0.45833l4.125,3.4375l0.22917,119.625l-3.20833,4.35417l-100.83333,-0.91667l-2.52083,-2.75l-1.14583,-120.3125z" fill="#585754" stroke="#353432" stroke-width="3" stroke-linecap="round"/><path d="M467.68184,170.5751l49.27083,14.20833l54.54167,-12.83333l0.45833,46.0625l-2.75,4.58333l-98.3125,-0.45833l-2.52083,-2.52083z" fill="#2c210f" stroke="#2c210f" stroke-width="3.5" stroke-linecap="round"/><path d="M494.27802,121.3044c0.40486,-0.75817 0.89746,-1.56485 1.7237,-2.40752c2.15927,-2.20218 5.01362,-3.46851 7.59388,-5.01462c5.67651,-3.4014 13.0072,-6.7252 19.81543,-5.91206c4.21177,0.50303 6.32108,2.91046 7.0181,6.79043c0.1777,-1.00498 0.55456,-1.99231 1.03131,-2.8513c0.73051,-1.31621 3.5698,-0.84707 3.8737,-2.32142c0.52284,-2.53653 -1.4602,-4.79885 0.2899,-7.36287c0.82886,-1.21433 2.55671,-1.50586 3.96177,-1.93875c1.52762,-0.47065 7.52924,-0.58904 8.52669,0.09713c1.28597,0.88464 1.51569,2.76545 1.90815,4.27617c0.34071,1.31152 0.70578,2.77859 0.25667,4.05706c-0.5091,1.44923 -1.65711,2.69761 -2.93101,3.55588c-1.07714,0.72569 -4.71126,-0.04606 -3.79661,0.87604c0.48246,0.48639 1.42126,0.56985 1.65981,1.21206c0.53366,1.43665 0.32575,3.04777 0.48863,4.57165c1.25786,3.70992 3.12145,7.54857 4.00279,11.36033c0.75793,3.27799 -0.10468,6.65439 0.62224,9.91478c0.5789,2.59649 1.65115,5.10125 1.9095,7.74891c0.37383,3.83115 0.9443,8.89519 0.28107,12.7544c-0.16305,0.94877 -0.63031,1.81989 -0.98405,2.71522c-0.20379,0.51581 -0.93091,1.01694 -0.68735,1.51521c0.31396,0.6423 1.38207,0.49584 1.90741,0.98074c0.34121,0.31494 2.65028,3.75955 3.48586,4.23289c1.87825,1.064 4.59435,1.30413 5.6318,3.19717c0.3512,0.64084 0.27466,5.77663 0.27326,6.85095c-0.25365,2.16877 -1.06236,4.23602 -1.61806,6.34768c-0.85232,3.23885 0.71706,4.48193 -2.72724,7.53804c-1.06876,0.94831 -2.75143,0.77448 -4.14068,1.10845c-5.05338,1.21478 -9.98999,2.11964 -15.16074,2.51924c-7.76288,0.59993 -15.43367,3.56051 -23.22833,3.09765c-5.4612,-0.3243 -10.4812,-3.40381 -15.78854,-4.64122c-3.27535,0.23019 -4.21349,2.91435 -7.56325,3.38543c-1.19442,0.16797 -2.3662,-0.50185 -3.56832,-0.60071c-1.64345,-0.13514 -3.49466,0.6834 -4.94599,-0.09944c-1.10882,-0.5981 -0.86421,-2.39971 -1.59275,-3.42755c-0.42965,-0.60615 -1.11822,-1.00639 -1.78393,-1.33633c-1.35067,-0.66942 -3.68511,-0.22614 -4.21562,-1.63716c-0.70809,-1.88333 0.18314,-4.26492 1.39178,-5.8735c1.804,-2.40094 8.0635,-0.87469 10.64181,-1.50853c1.066,-0.26206 2.65402,-0.1864 3.06514,-1.20424c0.68786,-1.70298 -1.61103,-3.8939 -0.66711,-5.46944c1.24412,-2.07662 8.23917,-4.86666 10.7971,-5.12774c3.21051,-0.32769 3.78452,1.55214 3.20558,0.01205c-0.33942,-0.69893 -0.74755,-1.36848 -1.01825,-2.09678c-0.16248,-0.43713 0.10922,-1.10281 -0.27123,-1.37251c-0.85262,-0.60443 -2.06671,0.40484 -3.02695,0.81744c-2.21563,0.95201 -4.53611,2.1413 -6.94488,2.02651c-5.61098,-0.2674 -12.0449,-5.75505 -13.70133,-11.08762c-0.59783,-1.92461 -0.24505,-4.06535 -0.86036,-5.98445c-0.41449,-1.29276 -1.69214,-2.52445 -1.35704,-3.84002c0.54825,-2.15238 3.49156,-3.15103 4.03123,-5.30558c0.40524,-1.61787 -1.78095,-3.08224 -1.60134,-4.7404c0.18136,-1.67422 1.32047,-3.1743 2.46426,-4.41028c0.46315,-0.50049 1.55087,0.09381 2.00281,-0.41683c0.31578,-0.3568 -0.2843,-0.90954 -0.42645,-1.3643c-1.52533,-5.9214 -2.1431,-10.87353 -0.64593,-16.80016l-1.54849,-0.68822c-0.90256,-0.37715 -1.53681,-1.26836 -1.53681,-2.30771c0,-1.18975 0.83109,-2.18539 1.9444,-2.43804l2.42427,-0.60607l0.02149,0.08597c0.19045,-0.06529 0.38513,-0.11953 0.58485,-0.16062c1.32559,-0.27275 2.80771,0.29725 3.91512,1.07521c1.15181,0.80914 1.66308,2.27157 2.48036,3.41762c1.06018,1.48666 2.12097,2.82939 3.10679,4.21567zM530.71006,117.8727c-0.00387,0.53042 -0.04516,1.05836 -0.14395,1.57691c-0.1476,0.77477 -1.40578,1.3623 -1.10589,2.09177c0.29008,0.70559 1.47344,0.3962 2.21016,0.5943c0.24616,0.13445 3.61013,2.02236 3.52094,-0.17352c-0.04302,-1.05912 -0.75614,-2.08632 -1.57009,-2.76535c-0.79249,-0.66113 -2.32933,-0.58358 -2.91118,-1.3241zM540.32564,109.58292c0.13706,-0.1608 0.28048,-0.31418 0.42953,-0.45901c1.21995,-1.18534 4.43717,-0.20695 4.74398,-1.88002c0.44956,-2.45149 -0.30028,-2.62822 -2.127,-2.33548c-0.87607,0.1404 -1.7639,0.20699 -2.65024,0.24709c-0.33022,0.01494 -0.88123,-0.39526 -0.98823,-0.0825c-0.18646,0.54502 0.41849,1.09435 0.44519,1.66976c0.04327,0.93274 0.1731,1.90099 0.14677,2.84015z" fill="#11100f" stroke="none" stroke-width="0.5" stroke-linecap="butt"/><path d="M540.12967,106.73386c-0.02669,-0.57541 -0.62295,-1.14515 -0.43649,-1.69017c0.107,-0.31276 0.66403,0.09055 0.99425,0.07561c0.88634,-0.04009 1.8235,-0.11823 2.69956,-0.25863c1.82672,-0.29275 2.61171,-0.06736 2.16215,2.38413c-0.30681,1.67307 -3.60915,0.72936 -4.8291,1.9147c-0.14906,0.14483 -0.29229,0.29839 -0.42935,0.45918c0.02633,-0.93916 -0.11775,-1.95208 -0.16102,-2.88482z" data-paper-data="{&quot;noHover&quot;:false,&quot;origItem&quot;:[&quot;Path&quot;,{&quot;applyMatrix&quot;:true,&quot;segments&quot;:[[[540.32564,109.58292],[0.02633,-0.93916],[0.13706,-0.1608]],[[540.75517,109.12392],[-0.14906,0.14483],[1.21995,-1.18534]],[[545.49915,107.2439],[-0.30681,1.67307],[0.44956,-2.45149]],[[543.37215,104.90842],[1.82672,-0.29275],[-0.87607,0.1404]],[[540.72191,105.15551],[0.88634,-0.04009],[-0.33022,0.01494]],[[539.73368,105.07301],[0.107,-0.31276],[-0.18646,0.54502]],[[540.17886,106.74277],[-0.02669,-0.57541],[0.04327,0.93274]]],&quot;closed&quot;:true}]}" fill="#070707" stroke="none" stroke-width="0.5" stroke-linecap="butt"/></g></g></svg>