<svg version="1.1" xmlns="http://www.w3.org/2000/svg" xmlns:xlink="http://www.w3.org/1999/xlink" width="145.24531" height="169.39262" viewBox="0,0,145.24531,169.39262"><defs><radialGradient cx="251.11932" cy="144.71491" r="36.84069" gradientUnits="userSpaceOnUse" id="color-1"><stop offset="0" stop-color="#fecf2c"/><stop offset="1" stop-color="#c69211"/></radialGradient></defs><g transform="translate(-166.29201,-87.90212)"><g data-paper-data="{&quot;isPaintingLayer&quot;:true}" fill-rule="nonzero" stroke-linecap="butt" stroke-linejoin="miter" stroke-miterlimit="10" stroke-dasharray="" stroke-dashoffset="0" style="mix-blend-mode: normal"><path d="M198.62645,173.73132c-0.00713,-0.08633 -0.00713,-0.13663 -0.00713,-0.13663l0.61856,-1.89626c0.82876,-0.85868 1.4346,-2.012 2.48628,-2.57603c0.96246,-0.51618 2.1661,-0.28978 3.23889,-0.49447c3.84564,-0.73376 7.22425,-0.78323 11.15627,-0.78323c10.80192,0 21.48545,1.25 32.25,1.25c12.15902,0 24.32882,0.12136 36.48417,-0.18721c4.01772,-0.10199 12.60998,-2.44088 16.08476,0.22213c0.91614,0.70212 0.63882,6.49479 0.67948,7.62596c0.36332,10.10765 0.53619,20.184 -0.5336,30.2571c-0.9044,3.84608 -1.48222,8.49081 -4.96097,11.07913c-2.99579,2.22897 -3.80725,1.5819 -6.87931,1.74978c-5.44249,0.29743 -10.93926,0.95928 -16.3639,1.48948c-18.44474,1.80278 -36.98438,1.27137 -55.52372,1.22396c-5.00984,-0.01304 -10.06105,-0.00568 -15.06373,-0.31227c-2.09354,-0.1283 -4.4157,0.4407 -6.26909,-0.54129c-3.10119,-1.64312 -4.20209,-9.35992 -4.3998,-12.21048c-0.84676,-12.20816 1.70206,-24.7673 7.00285,-35.75967z" fill="#cfe3e8" stroke="none" stroke-width="0.5"/><path d="M273.29328,131.79232c-0.92396,-0.72709 -0.92396,-2.01459 -0.92396,-2.01459l0.00901,-0.28471c-0.03205,-0.25574 -0.03548,-0.54779 0.02684,-0.84737l0.03878,-1.22426c0.74849,-2.82765 0.65913,-4.25082 3.03217,-6.27779c3.90258,-3.33347 10.32578,-2.07749 14.02906,0.99365c2.60584,2.16103 3.4854,5.86429 4.3224,8.93563c0.83169,8.05739 1.18904,16.24465 0.53791,24.34311c-0.2283,2.83951 -0.07183,9.18925 -5.49884,8.8107c-0.83645,-0.05835 -3.97508,-6.10516 -4.46621,-7.04717c-4.25698,-8.16514 -7.21864,-17.02044 -11.10716,-25.38718z" fill="#84bedd" stroke="none" stroke-width="0.5"/><path d="M205.69587,255.79474v-37h87.25v37z" fill="#68616e" stroke="#4e4b4e" stroke-width="3"/><path d="M192.02809,197.85677c0.16807,-1.61167 0.4222,-3.16788 1.00153,-4.9537c1.17175,-5.90017 4.11227,-10.80805 6.35083,-16.30111c1.13603,-2.78763 0.44832,-4.99487 4.53526,-6.00036c4.50865,-1.10924 9.9099,5.90315 12.51297,8.39109c5.69078,5.43908 16.32338,12.52986 11.75327,21.67008c-1.43788,2.87577 -4.34193,4.52034 -6.7743,6.41008c-2.46357,1.64451 -5.35093,3.01729 -7.71945,4.72762c-2.33422,1.68556 -3.91581,4.34766 -6.30409,6.03913c-0.39136,0.27717 -4.08752,2.25369 -4.63674,2.58964c-1.48278,0.90698 -4.75802,3.56927 -6.4883,3.01931c-2.70574,-0.86002 -3.0725,-4.50948 -3.51465,-6.66352c-1.19678,-5.83035 -1.54855,-11.01032 -1.54855,-16.99029c0,0 0,-1.2008 0.83222,-1.93797z" fill="#cee3e8" stroke="none" stroke-width="0.5"/><path d="M176.8135,186.99887c-0.24922,0.51375 -0.73226,0.99515 -1.63957,1.22197c-2.42535,0.60634 -3.03169,-1.81902 -3.03169,-1.81902l-0.17413,-0.75198c-1.30211,-3.65802 -4.13289,-6.75665 -4.62402,-10.74133c-1.10982,-9.00439 -0.24603,-18.75559 3.48669,-26.97959c3.84105,-7.03788 9.89143,-11.53393 16.27157,-16.15905c2.98718,-2.16548 4.96191,-3.41789 8.55271,-4.38501c4.21437,-1.13506 8.20592,-1.5352 12.07888,0.69936c1.17574,0.67836 2.77154,0.97724 3.46028,2.14693c2.26963,3.85448 -2.20538,10.97043 -5.22794,13.13644c-0.59425,0.42585 -5.12126,1.60255 -5.9909,1.8398c-7.29173,1.97686 -15.19722,6.08558 -19.62275,12.29019c-0.52558,0.73686 -2.56886,3.51359 -2.89304,4.52476c-0.69452,2.16628 -0.142,5.85863 -0.142,8.02314c0,4.81337 -0.16145,9.54901 0.70968,14.30279c0,0 0.34151,1.87834 -1.21377,2.6506z" fill="#2d73cf" stroke="none" stroke-width="0.5"/><path d="M206.48805,145.4198c1.07953,0.69743 1.07954,2.12568 1.07954,2.12568v0.5c-0.15598,3.58062 0.46272,5.07241 -3.67943,7.50917c-1.13901,0.67006 -2.63914,0.14444 -3.95729,0.23826c-2.96538,0.21105 -8.73912,1.15371 -9.74158,4.79314c-0.56401,2.04764 0.65208,7.24334 0.82937,8.96725c0.85065,2.82786 2.01437,5.89555 4.3839,7.80882c2.77623,2.24166 5.40147,2.34161 6.58509,6.30626c0.71324,2.38906 -0.16011,5.88123 -0.17007,8.3771c-0.00481,1.20436 0.27621,2.44732 -0.0265,3.61303c-0.40157,1.54641 -0.63902,3.56692 -2.03825,4.33814c-1.91908,1.05775 -5.67714,-1.07235 -7.29547,-2.1036c-5.46805,-3.48444 -11.73678,-6.97911 -15.7144,-12.2026c-2.60029,-4.57455 -1.84226,-8.04474 -1.41686,-13.10117c0.64883,-7.71214 3.96945,-15.93133 9.79871,-21.38351c4.78095,-4.47168 12.18516,-5.94561 18.29861,-7.57588c0,0 2.41559,-0.64415 3.05974,1.77143c0.00164,0.00617 0.00327,0.01233 0.00487,0.01847z" fill="#2d9fed" stroke="none" stroke-width="0.5"/><path d="M196.30788,159.74694c-2.45145,0.49029 -2.94174,-1.96116 -2.94174,-1.96116l-0.11974,-0.81181c-1.2818,-3.22295 -3.32721,-5.98603 -4.70521,-9.14503c-1.57278,-3.60554 -2.47002,-7.09676 -4.77168,-10.34979c0,0 -1.43366,-2.04809 0.61442,-3.48174c2.04808,-1.43365 3.48174,0.61443 3.48174,0.61443c2.4479,3.52875 3.54579,7.25996 5.22831,11.15021c1.39522,3.22596 3.47258,6.06617 4.7948,9.35497l0.38026,1.68819c0,0 0.49029,2.45146 -1.96116,2.94174z" fill="#1f6da1" stroke="none" stroke-width="0.5"/><path d="M191.80366,164.66351c-1.11803,2.23607 -3.3541,1.11804 -3.3541,1.11804l-0.13073,-0.24848c-3.30059,-0.3344 -7.13206,-0.70524 -10.41941,-0.25971c-2.80751,0.38049 -5.68701,1.68724 -8.42404,2.43403c0,0 -2.41191,0.65779 -3.0697,-1.75412c-0.65779,-2.41191 1.75412,-3.0697 1.75412,-3.0697c2.95957,-0.80679 6.0373,-2.14964 9.07596,-2.56597c3.66632,-0.50233 7.90386,-0.12302 11.58059,0.24029l1.86927,0.75153c0,0 2.23607,1.11803 1.11803,3.3541z" fill="#1f6da1" stroke="none" stroke-width="0.5"/><path d="M187.06759,195.29548c-2.5,0 -2.5,-2.5 -2.5,-2.5v-2.5c0.02482,-6.62387 2.56654,-11.46082 6.86856,-16.39626c0,0 1.64626,-1.88144 3.5277,-0.23518c1.88144,1.64626 0.23518,3.5277 0.23518,3.5277c-3.50321,3.98639 -5.65515,7.73892 -5.63144,13.10374v2.5c0,0 0,2.5 -2.5,2.5z" fill="#1f6da1" stroke="none" stroke-width="0.5"/><path d="M285.72181,234.28777c-0.13291,0.03271 -0.2756,0.05812 -0.42878,0.07514c-2.48471,0.27608 -2.76079,-2.20863 -2.76079,-2.20863l-0.21674,-3.01637c0.96141,-4.80029 1.93331,-12.4937 7.36099,-14.61419c2.06116,-0.80526 5.04622,0.51877 6.8646,1.32388c4.22562,1.87097 6.96017,3.97221 9.62374,7.7513c3.07867,6.12257 6.3833,12.19401 5.08092,19.35414c-0.29439,1.61848 -0.53995,3.31674 -1.35574,4.74525c-2.51441,4.40295 -12.6463,6.09745 -16.53701,2.79573c-1.24118,-1.05328 -1.86737,-4.44475 -2.44032,-6.02473c-1.3225,-3.64702 -3.20792,-6.91281 -5.19087,-10.18151z" fill="#3274d3" stroke="none" stroke-width="0.5"/><path d="M184.54008,250.7231c-0.35388,0.2424 -0.82896,0.4051 -1.46674,0.4051c-2.5,0 -2.5,-2.5 -2.5,-2.5l0.04855,-0.74029c2.09006,-10.24923 8.79454,-19.21268 15.87583,-26.71767c2.13923,-2.26722 6.67534,-6.88747 10.00284,-6.78575c1.61666,0.04943 2.6901,1.79653 4.03514,2.69479c2.61583,5.46134 5.53691,12.62192 0.84133,18.03001c-2.03383,2.34244 -3.8602,2.27421 -5.29673,5.34414c-1.87403,4.0049 -2.42145,11.03223 -6.97392,13.20135c-1.10263,0.52537 -2.43622,0.23064 -3.65758,0.22031c-3.98067,-0.03364 -7.36739,-1.65317 -10.90873,-3.15201z" fill="#3274d3" stroke="none" stroke-width="0.5"/><path d="M217.09655,224.71187c-0.11129,0.69564 -0.5704,2.13052 -2.46439,2.13052c-2.5,0 -2.5,-2.5 -2.5,-2.5l0.08809,-0.5922c-0.49197,-1.80751 -0.931,-3.63085 -1.29904,-5.46761c-0.55892,-3.53744 -1.63266,-7.43645 -1.28596,-11.06472c0.12069,-1.26303 -0.05927,-2.7025 0.65805,-3.74904c2.79325,-4.07523 10.01754,-3.1284 14.08885,-3.12643c3.74371,0.00181 6.77608,0.83418 10.49634,1.26217c3.14178,0.36144 6.58259,-0.01217 9.75366,-0.01217c7.83685,0 15.6714,-0.24755 23.5,-0.25c5.23618,0.00365 10.50535,0.56884 15.58184,1.77212c1.65518,0.39233 3.96058,-0.27915 4.98833,1.07631c0.93909,1.23853 -0.42492,3.07971 -0.67381,4.61394c-0.66506,4.09973 -1.24588,12.16627 -4.79898,14.89347c-1.02266,0.78494 -2.56069,0.31426 -3.84738,0.39416c-2.40229,0.14918 -8.3432,0.57167 -10.08971,-1.05722c-0.98023,-0.91422 -0.58033,-2.62969 -0.65019,-3.96826c-0.01953,-0.37423 0.68745,-0.82979 0.38803,-1.05513c-0.3128,-0.23541 -0.63266,0.54349 -1.02266,0.57752c-0.02211,0.00193 -5.00467,-0.49738 -5.11302,-0.50821c-6.51369,-0.59849 -13.07793,-0.00029 -19.60839,-0.24053c-3.44517,-0.12673 -7.79306,0.41124 -11.15406,-0.24816c-0.46885,-0.09198 -0.75444,-0.73223 -1.23223,-0.73223c-0.34518,0 0.69825,0.38873 0.73223,0.73223c0.12113,1.22453 0.35987,2.63839 -0.29581,3.67965c-2.49938,3.96912 -9.78366,3.01999 -14.23979,3.43984z" fill="#cbe4e8" stroke="none" stroke-width="0.5"/><path d="M228.05752,199.19872c-0.60634,2.42535 -3.03169,1.81902 -3.03169,1.81902l-1.64242,-0.43777c-5.69146,-0.62342 -9.57022,-3.30134 -13.16646,-7.63075c-0.04549,-0.05477 -0.20081,-0.26794 -0.42413,-0.58156c-0.07178,2.90503 -0.16065,5.81107 -0.16065,8.72472c0,0 0,2.5 -2.5,2.5c-2.5,0 -2.5,-2.5 -2.5,-2.5c0,-4.84256 0.25471,-9.66987 0.25,-14.5v-3v0c0,-1.38071 1.11929,-2.5 2.5,-2.5c0.99801,0 1.85943,0.58479 2.26029,1.43041l1.17359,2.34718c4.24662,4.73306 5.87702,10.10788 13.06488,10.73482l2.35758,0.56223c0,0 2.42536,0.60634 1.81902,3.0317z" fill="#d4e8ed" stroke="none" stroke-width="0.5"/><path d="M291.63216,205.59238c-2.5,0 -2.5,-2.5 -2.5,-2.5v-2.25c0,-3.56707 -0.02777,-7.13565 -0.00743,-10.70284c-0.46031,0.49098 -0.93285,0.94186 -1.29774,1.29066c-4.75865,4.54888 -9.89816,8.42373 -15.8268,11.39826c0,0 -2.23606,1.11804 -3.3541,-1.11803c-1.11804,-2.23607 1.11803,-3.3541 1.11803,-3.3541c5.53512,-2.75712 10.21799,-6.3984 14.6732,-10.60174c0.98579,-0.93006 5.38343,-6.31332 6.48197,-6.14565c1.81626,0.27723 2.44293,2.82241 3.16775,4.51069c0.39097,0.91065 0.03792,1.98175 0.04511,2.97276c0.02839,3.91613 0,7.83373 0,11.75v2.25c0,0 0,2.5 -2.5,2.5z" fill="#d4e8ed" stroke="none" stroke-width="0.5"/><path d="M204.07874,163.03605c-0.00229,-0.52606 0.19297,-1.11875 0.78565,-1.71143c1.76776,-1.76776 3.53554,0 3.53554,0l0.25,0.25c5.22986,5.25179 7.38084,11.8656 11.33064,17.90884c2.5086,3.83819 7.54341,5.99612 10.97226,8.92914c-0.18961,1.58857 -0.02379,3.26158 -0.56883,4.76573c-0.86114,2.3765 -5.19384,6.57304 -7.75183,6.66406c-1.29093,0.04593 -2.39135,-0.9894 -3.52872,-1.60177c-4.99682,-2.69036 -11.5445,-7.79925 -14.56886,-12.53801c-4.09125,-6.41046 -1.12631,-13.87619 -1.15243,-20.86022c0,0 0,-1.0665 0.69658,-1.80633z" fill="#ffffff" stroke="none" stroke-width="0.5"/><path d="M270.45963,195.00622c-0.51001,0.19375 -1.15851,0.21573 -1.94551,-0.17777c-2.23607,-1.11803 -1.11803,-3.3541 -1.11803,-3.3541l0.5,-1c1.63857,-3.22434 3.50167,-4.67274 5.86374,-7.28859c1.31662,-1.45808 1.95633,-3.42921 3.2041,-4.94663c3.08724,-3.75439 5.90885,-6.14615 7.84359,-10.81657c0.99878,-2.54586 1.98263,-7.42017 5.99265,-7.57883c1.70754,-0.06756 3.15597,1.50323 4.32953,2.7454c0.82773,0.87611 1.07071,2.17308 1.40998,3.32962c1.11761,3.80977 0.7709,8.56142 0.5915,12.493c-0.07954,1.74312 0.13953,3.55457 -0.37733,5.2212c-1.46638,4.72841 -8.05189,5.6241 -11.72341,8.03181c-4.13277,2.71018 -7.39148,6.70044 -12.91872,4.45988c-0.61814,-0.25057 -1.13598,-0.68294 -1.65211,-1.11842z" fill="#ffffff" stroke="none" stroke-width="0.5"/><path d="M213.74139,227.45393c-0.57471,-0.3341 -1.10923,-0.95557 -1.10923,-2.11155c0,-2.5 2.5,-2.5 2.5,-2.5l0.25124,0.01241c3.90906,-0.37607 7.30097,-2.5845 11.12702,-2.98462c1.42879,-0.14942 2.86759,0.17868 4.30139,0.26802c0.89134,1.20381 2.05319,2.24828 2.67403,3.61144c0.21598,0.47422 0.52814,5.0527 0.6235,5.75564c0.40508,2.98621 1.48177,5.85911 1.76273,8.8626c0.15664,1.67454 -0.00992,6.29847 -1.05405,7.32057c-1.00917,0.98788 -2.78035,0.51647 -4.18585,0.65394c-2.5935,0.25367 -5.65505,0.20754 -8.25,0c-1.45264,-0.11618 -3.19378,0.33965 -4.33497,-0.56664c-1.09499,-0.8696 -0.99466,-2.61781 -1.37069,-3.96458c-1.29948,-4.65428 -2.1386,-9.58769 -2.93511,-14.35722z" fill="#b3cccf" stroke="none" stroke-width="0.5"/><path d="M265.61259,227.8647c-1.46298,-0.98037 -0.85214,-2.81288 -0.85214,-2.81288l1.73496,-3.53956c3.43465,-2.13772 5.36468,-2.03287 9.31543,-1.63285c1.70144,0.42491 6.0861,1.24456 7.14149,2.8114c1.31131,1.94678 0.21635,5.31814 -0.46589,7.24265c-1.8162,5.12323 -3.05417,11.56402 -7.97805,14.74603c-2.68623,1.73595 -8.96182,2.60438 -11.36299,-0.31962c-0.90819,-1.10594 -0.50676,-2.83278 -0.50107,-4.26383c0.00766,-1.9248 0.69063,-3.78721 1.02494,-5.68277c0.40598,-2.30197 1.1311,-4.42719 1.94333,-6.54857z" fill="#b3cccf" stroke="none" stroke-width="0.5"/><path d="M233.53713,249.10843c-1.94619,0.02539 -2.35642,-2.02576 -2.35642,-2.02576l-0.19311,-1.02192c-0.90087,-3.04563 -2.42463,-5.58791 -3.06301,-8.75978c-0.71972,-3.57602 -0.29442,-7.58163 -0.29242,-11.20859c0.00151,-2.72896 -0.24189,-6.54534 1.43752,-8.91285c2.79189,-3.9358 8.95821,-4.78959 13.23447,-5.08593c7.04818,-0.00304 13.91082,0.28764 20.9413,0.75135c3.22618,0.21279 5.31244,-0.62883 7.83889,3.06404c0.42334,0.61879 -0.1454,6.33185 -0.20751,7.34788c-0.34062,5.57269 -1.41487,10.80056 -2.82112,16.19905c-0.13629,0.52321 -1.92156,6.4048 -2.29043,6.78081c-1.70418,1.73715 -6.76738,3.41492 -8.98675,1.28316c-0.45927,-0.44115 -0.39472,-5.41869 -0.39637,-6.67751c0,-2.74798 0.15033,-5.54919 0.04201,-8.2936c-0.0218,-0.55245 0.19675,-1.26829 -0.20736,-1.64561c-0.2851,-0.26621 -0.69712,0.39483 -1.08466,0.43922c-2.72525,0.31215 -5.75756,0.0077 -8.5,0c-0.90571,-0.00254 -1.81506,0.06536 -2.71711,-0.01605c-0.49421,-0.0446 -1.05301,-0.66437 -1.44458,-0.35956c-0.31108,0.24216 0.69102,0.46173 0.84975,0.82259c0.39876,0.90652 0.607,1.89231 0.77388,2.8685c0.47394,2.77235 0.75022,6.83775 0.28077,9.62515c-0.28462,1.68995 -0.16042,3.73769 -1.36489,4.95678c-0.76187,0.77111 -6.52996,0.60259 -7.62783,0.60259c0,0 -1.10431,0 -1.84503,-0.73395z" fill="#849195" stroke="none" stroke-width="0.5"/><path d="M211.89505,153.27951c1.25316,0.37321 1.63618,1.77762 1.63618,1.77762c3.56561,13.31871 17.69176,20.73246 30.46823,22.68686c5.08222,0.77742 9.5985,1.47649 14.6454,0.0782c5.63632,-1.88028 11.0355,-4.1327 16.51292,-6.41496c3.84249,-1.60103 7.79045,-2.99057 9.36504,-7.30483c1.31585,-3.60534 0.71075,-8.75562 0.00287,-12.33309c-0.65868,-3.32881 -1.32046,-4.05166 -2.89245,-7.18636c-1.63916,-3.26863 -2.85109,-7.16917 -4.83006,-10.15c-1.27781,-0.92476 -2.53237,-1.88174 -3.77503,-2.85323l-2.0793,-1.15516c-0.7909,-0.41981 -1.32954,-1.25183 -1.32954,-2.20965c0,-1.03176 0.625,-1.91752 1.51707,-2.29936l2.13252,-0.96932c0.35591,-0.75648 -0.3018,-1.82053 -0.61404,-2.32104c-1.07966,-1.73068 -2.3179,-3.35868 -3.40514,-5.08461c-0.96068,-1.52502 -2.22396,-2.8435 -3.19851,-4.3597c-0.18733,-0.29144 -0.04044,-1.09097 -0.3661,-0.97276c-0.79977,0.29031 -1.19839,1.20995 -1.83681,1.77238c-1.70577,1.50275 -3.54875,2.89109 -5.56265,3.94567c-3.94043,2.06339 -7.67369,1.88493 -11.92605,2.7402c-1.33762,0.26903 -2.9176,-0.16876 -4.05017,0.59208c-0.57497,0.38626 -0.88282,2.80653 -0.96039,3.28386l-0.23939,2.39386c-0.11199,1.27707 -1.18419,2.27874 -2.49034,2.27874c-0.69036,0 -1.31536,-0.27982 -1.76777,-0.73223l-0.87762,-0.87763c-0.61318,1.41733 -1.97076,2.40582 -3.0149,3.55263c-3.70564,4.07002 -6.63228,5.54667 -12.08971,5.55722c-0.11553,0.00023 -0.31596,0.01068 -0.56755,0.02134c0.50978,0.34662 0.97165,0.75031 1.32707,1.24144c1.04246,1.44053 1.76037,5.46546 1.13321,7.21168c-1.34232,3.73746 -2.68791,4.01403 -6.14638,4.51337c-0.90606,0.13082 -1.8338,0.08514 -2.74635,0.01216c-0.43131,-0.03449 -0.88834,-0.56212 -1.25485,-0.33214c-1.15404,0.72413 -0.95675,2.32967 -0.71942,3.89674zM209.7483,159.46265c-0.04224,0.00151 -0.08523,0.00227 -0.12898,0.00227c-2.5,0 -2.5,-2.5 -2.5,-2.5v-1.75c0.06144,-4.00874 -0.8861,-7.33722 3.00485,-10.16786c2.05413,-1.49436 5.28876,0.68993 7.35405,-0.40936c0.87414,-0.46528 0.59874,-3.11474 0.13157,-3.68556c-2.63896,-3.22454 -9.82802,-2.85382 -3.0083,-8.8919c0.94428,-0.83605 2.50852,-0.27595 3.76782,-0.34533c2.11885,-0.11674 4.77234,0.49157 6.81359,-0.318c2.35709,-0.93483 4.52385,-3.44108 6.36894,-6.05105l-0.02335,-0.00876l1.47951,-3.94535c0.34031,-0.9763 1.269,-1.67684 2.36131,-1.67684c0.69452,0 1.32289,0.28321 1.77593,0.74044c0.38462,-1.19469 1.00683,-2.28924 2.28394,-3.28398c0.46376,-0.36123 5.00531,-1.22 5.94984,-1.40791c4.52668,-0.90055 8.65513,-0.53744 12.57679,-3.36059c2.17789,-1.56784 5.24183,-5.11611 8.09769,-5.18116c1.47505,-0.0336 2.53614,1.54142 3.6339,2.52724c2.19811,1.97398 3.43243,4.94992 5.02947,7.35574c0.73375,1.10535 1.78195,2.00912 2.36688,3.19995c0.65019,1.32369 1.35585,2.76067 1.28447,4.2337c-0.06477,1.33671 -0.52471,2.75888 -1.37623,3.80315c1.14691,0.8863 2.29469,1.77147 3.44344,2.65538c1.18448,1.7728 1.96161,3.794 2.74928,5.77526c1.33705,3.36311 3.67562,6.39383 5.01232,9.78083c3.00167,7.60584 3.46272,18.3333 -2.50964,24.6279c-2.42197,2.55265 -5.44398,3.52399 -8.60656,4.84174c-5.6327,2.34696 -11.19009,4.65416 -16.98708,6.58504c-5.81758,1.56634 -10.99433,0.9847 -16.8546,0.0782c-13.81135,-2.1364 -28.15698,-9.86249 -33.49087,-23.2232z" fill="#fecf2c" stroke="none" stroke-width="0.5"/><path d="M212.56478,149.38828c0.36651,-0.22997 0.92285,0.28599 1.35416,0.32048c0.91254,0.07298 1.74112,0.13149 2.64718,0.00067c3.45847,-0.49935 4.80362,-0.78301 6.14594,-4.52047c0.62716,-1.74622 -0.08894,-5.78405 -1.1314,-7.22458c-0.35541,-0.49113 -0.81689,-0.89619 -1.32667,-1.24281c0.25159,-0.01066 0.45212,-0.02143 0.56765,-0.02166c5.45743,-0.01055 8.3949,-1.50598 12.10054,-5.576c1.04414,-1.14682 2.40981,-2.1424 3.02299,-3.55973l0.87804,0.87732c0.45241,0.45241 1.07971,0.73074 1.77007,0.73074c1.30615,0 2.38582,-1.00541 2.49781,-2.28248l0.24175,-2.39474c0.07756,-0.47732 0.38922,-2.89873 0.96419,-3.28499c1.13257,-0.76085 2.72065,-0.32444 4.05827,-0.59347c4.25236,-0.85527 8.00671,-0.67411 11.94714,-2.7375c2.0139,-1.05457 3.86205,-2.44074 5.56782,-3.94349c0.63842,-0.56243 1.03808,-1.48155 1.83785,-1.77186c0.32567,-0.11821 0.1797,0.6818 0.36703,0.97325c0.97456,1.5162 2.24378,2.83849 3.20446,4.36351c1.08724,1.72593 2.33199,3.35972 3.41165,5.0904c0.31224,0.50052 0.97212,1.56703 0.61621,2.32351l-2.20895,1.03381c-0.89206,0.38183 -1.44041,1.20339 -1.44041,2.23515c0,0.95782 0.54145,1.79364 1.33236,2.21346l2.08126,1.15837c1.24266,0.97149 2.50028,1.93496 3.77809,2.85971c1.97897,2.98083 3.19428,6.8982 4.83344,10.16683c1.57198,3.13469 2.23302,3.86749 2.8917,7.1963c0.70788,3.57747 1.30812,8.74209 -0.00773,12.34743c-1.57459,4.31426 -5.53114,5.71567 -9.37363,7.31671c-5.47742,2.28226 -10.89747,4.54749 -16.53379,6.42777c-5.0469,1.39829 -9.585,0.70103 -14.66723,-0.07639c-12.77648,-1.9544 -26.94392,-9.40438 -30.50953,-22.72309c0,0 -0.3837,-1.4072 -1.63687,-1.78041c-0.23732,-1.56707 -0.43543,-3.1776 0.71861,-3.90174z" data-paper-data="{&quot;noHover&quot;:false,&quot;origItem&quot;:[&quot;Path&quot;,{&quot;applyMatrix&quot;:true,&quot;segments&quot;:[[[423.7901,306.55901],[-0.47465,-3.13414],[2.50632,0.74643]],[[427.06246,310.11425],[0,0],[7.13121,26.63742]],[[487.99892,355.48797],[-25.55295,-3.90879],[10.16444,1.55484]],[[517.28972,355.64437],[-10.0938,2.79658],[11.27264,-3.76056]],[[550.31556,342.81445],[-10.95484,4.56452],[7.68497,-3.20207]],[[569.04564,328.20479],[-3.14918,8.62852],[2.63171,-7.21069]],[[569.05139,303.53862],[1.41576,7.15494],[-1.31736,-6.65762]],[[563.2665,289.1659],[3.14397,6.26939],[-3.27831,-6.53727]],[[553.60637,268.86591],[3.95795,5.96166],[-2.55562,-1.84951]],[[546.05631,263.15945],[2.48532,1.94298],[0,0]],[[541.89772,260.84912],[0,0],[-1.5818,-0.83963]],[[539.23864,256.42983],[0,1.91564],[0,-2.06351]],[[542.27277,251.83111],[-1.78412,0.76367],[0,0]],[[546.53782,249.89246],[0,0],[0.71182,-1.51296]],[[545.30974,245.25037],[0.62448,1.00103],[-2.15932,-3.46135]],[[538.49947,235.08115],[2.17447,3.45185],[-1.92136,-3.05005]],[[532.10244,226.36175],[1.94911,3.0324],[-0.37466,-0.58289]],[[531.37024,224.41624],[0.65133,-0.23642],[-1.59954,0.58061]],[[527.69662,227.961],[1.27684,-1.12487],[-3.41154,3.00551]],[[516.57133,235.85234],[4.0278,-2.10915],[-7.88086,4.12678]],[[492.71922,241.33274],[8.50472,-1.71053],[-2.67524,0.53806]],[[484.61888,242.51691],[2.26514,-1.52169],[-1.14994,0.77251]],[[482.6981,249.08462],[0.15513,-0.95465],[0,0]],[[482.21932,253.87234],[0,0],[-0.22398,2.55415]],[[477.23864,258.42983],[2.61231,0],[-1.38071,0]],[[473.7031,256.96537],[0.90482,0.90482],[0,0]],[[471.94786,255.21012],[0,0],[-1.22636,2.83466]],[[465.91805,262.31538],[2.08829,-2.29363],[-7.41128,8.14005]],[[441.73864,273.42983],[10.91485,-0.0211],[-0.23107,0.00045]],[[440.60354,273.47252],[0.50318,-0.02132],[1.01956,0.69323]],[[443.25768,275.9554],[-0.71083,-0.98226],[2.08493,2.88105]],[[445.5241,290.37875],[1.25432,-3.49243],[-2.68464,7.47492]],[[433.23133,299.4055],[6.91695,-0.9987],[-1.81212,0.26164]],[[427.73864,299.42983],[1.82509,0.14595],[-0.86262,-0.06898]],[[425.22894,298.76554],[0.73302,-0.45995],[-2.30808,1.44827]]],&quot;closed&quot;:true}]}" fill="url(#color-1)" stroke="none" stroke-width="0.5"/><path d="M211.4776,127.88692c0.66037,-1.03796 1.37201,-2.04868 2.04332,-3.0755c1.3949,-2.13361 2.07258,-4.71941 3.65707,-6.71626c2.93157,-3.69448 8.49614,-5.3176 13.0007,-5.66754c2.57161,-0.19977 7.27986,-0.54193 9.81773,0.07265c0.701,0.16975 1.09626,1.23342 1.81535,1.17749c1.34264,-0.10443 2.43905,-1.15245 3.70672,-1.60699c6.32056,-2.26629 12.37719,-4.14608 19.10084,-4.15043c4.84044,0.12186 8.1454,2.46353 11.68433,5.65256c5.51073,4.96587 8.01953,11.17741 9.81869,17.85212c0.21657,-3.16233 0.40213,-6.66448 -0.19636,-9.22543c-0.85848,-3.67348 -3.40729,-7.3122 -5.2286,-10.54125c-1.20382,-2.13429 -1.99585,-4.54063 -3.54226,-6.44142c-3.12707,-3.84368 -9.06203,-8.36465 -13.4124,-10.81482c-2.51157,-1.41454 -6.07251,-1.2305 -8.87747,-1.23177c-3.07072,0.00001 -6.79044,-0.66696 -9.77318,-0.0451c-3.96798,0.82727 -9.70645,3.56233 -13.1261,5.6514c-1.6738,1.02253 -2.46476,2.55425 -3.67962,3.99836c-2.95787,3.51604 -5.89523,7.00777 -8.67951,10.66182c-2.68703,3.52642 -5.13185,7.23251 -7.66291,10.87849c-0.59519,0.85738 -1.99938,1.86498 -1.47013,2.76456c0.21882,0.37193 0.61992,0.58183 1.00379,0.80703zM210.08183,133.45898c-0.56915,-0.29498 -0.91468,-0.72689 -0.91468,-0.72689l-0.8156,-1.04397c-0.86224,-0.97576 -2.17434,-1.69218 -2.58672,-2.9273c-0.43635,-1.30691 -0.14074,-2.80038 0.23144,-4.12699c0.97986,-3.49272 5.59314,-8.80562 7.58943,-11.66756c3.28061,-4.70319 7.17803,-9.02468 10.86658,-13.40058c1.82005,-2.15921 2.21485,-3.34518 4.82038,-5.00163c3.78467,-2.40609 10.44798,-5.4383 14.8739,-6.3486c3.29487,-0.67767 7.34765,-0.04511 10.72683,-0.0451c3.59987,0.02039 7.85501,0.02681 11.12253,1.76823c4.95686,2.64175 11.58706,7.87369 15.0876,12.18518c1.1313,1.39338 3.36582,6.00912 3.95775,7.05858c2.06988,3.6698 4.83824,7.76923 5.77139,11.95875c0.07106,0.31904 0.05667,5.07756 0.05667,5.77925c0,0.89154 0.00152,8.82892 -0.00629,8.92723c-0.1189,1.49695 0.15664,3.24956 -0.75764,4.44081c-0.16231,0.21148 -0.33989,0.40651 -0.52985,0.58819l0.06155,0.06154l-2.25,2.25c-0.45241,0.45241 -1.07741,0.73223 -1.76776,0.73223c-1.30615,0 -2.37835,-1.00167 -2.49034,-2.27875l-0.23534,-2.35334c-1.89269,-8.15063 -3.43278,-16.13362 -9.95864,-22.02047c-2.45726,-2.21664 -4.8702,-4.49165 -8.31567,-4.34745c-6.26312,-0.00435 -11.55817,2.01963 -17.51574,3.89253c-1.89858,0.59686 -3.69047,1.72474 -5.67671,1.85006c-0.9956,0.06282 -1.71883,-1.07288 -2.68466,-1.32251c-2.05112,-0.53014 -6.1226,-0.07106 -8.18227,0.07265c-2.99493,0.20897 -7.57536,1.24533 -9.49929,3.83246c-1.91069,2.56933 -1.60926,3.61914 -3.34293,6.28374c-1.14221,1.75554 -2.50288,3.41202 -3.29072,5.3526c0,0 -0.96154,2.3077 -3.26923,1.34616c-0.49532,-0.20639 -0.84002,-0.47478 -1.07595,-0.76907z" fill="#4580c0" stroke="none" stroke-width="0.5"/><path d="M210.4273,127.09823c-0.52925,-0.89958 0.87403,-1.90967 1.46923,-2.76705c2.53106,-3.64598 4.97335,-7.36567 7.66038,-10.89209c2.78428,-3.65405 5.72629,-7.16919 8.68416,-10.68523c1.21486,-1.44411 2.01239,-2.98629 3.68619,-4.00883c3.41965,-2.08908 9.18843,-4.84181 13.15641,-5.66908c2.98273,-0.62186 6.72714,0.04711 9.79785,0.04711c2.80495,0.00127 6.38242,-0.17324 8.89399,1.2413c4.35037,2.45017 10.30117,6.99721 13.42823,10.84089c1.54641,1.90079 2.33981,4.31806 3.54363,6.45235c1.82131,3.22905 4.36844,6.88143 5.22692,10.55492c0.59848,2.56094 0.32009,6.02745 0.10352,9.18977c-1.79916,-6.67471 -4.31336,-12.86607 -9.82409,-17.83194c-3.53893,-3.18903 -6.84235,-5.51559 -11.68279,-5.63745c-6.72364,0.00435 -12.68189,1.87286 -19.00245,4.13914c-1.26766,0.45454 -2.46274,1.51273 -3.80538,1.61716c-0.71909,0.05593 -1.11562,-1.01704 -1.81662,-1.18679c-2.53787,-0.61458 -7.14617,-0.27535 -9.71778,-0.07558c-4.50457,0.34993 -10.07003,1.96446 -13.00159,5.65894c-1.5845,1.99685 -2.26429,4.57493 -3.65919,6.70854c-0.67131,1.02682 -1.38395,2.03499 -2.04433,3.07295c-0.38387,-0.2252 -0.87747,-0.39711 -1.09628,-0.76905z" data-paper-data="{&quot;noHover&quot;:false,&quot;origItem&quot;:[&quot;Path&quot;,{&quot;applyMatrix&quot;:true,&quot;segments&quot;:[[[422.95519,255.77383],[-0.76775,-0.4504],[1.32075,-2.07592]],[[427.04183,249.62284],[-1.34262,2.05364],[2.7898,-4.26721]],[[434.35597,236.19033],[-3.16899,3.9937],[5.86313,-7.38897]],[[460.35738,224.85526],[-9.00913,0.69986],[5.14322,-0.39954]],[[479.99284,225.00056],[-5.07574,-1.22916],[1.402,0.33951]],[[483.62353,227.35554],[-1.43818,0.11186],[2.68527,-0.20886]],[[491.03697,224.14156],[-2.53533,0.90907],[12.64111,-4.53258]],[[529.23864,215.8407],[-13.44729,0.0087],[9.68088,0.24373]],[[552.60729,227.14582],[-7.07786,-6.37806],[11.02146,9.93174]],[[572.24467,262.85005],[-3.59832,-13.34942],[0.43315,-6.32465]],[[571.85196,244.3992],[1.19697,5.12188],[-1.71696,-7.34697]],[[561.39475,223.31671],[3.64262,6.4581],[-2.40765,-4.26858]],[[554.31024,210.43387],[3.09282,3.80158],[-6.25413,-7.68736]],[[527.48545,188.80424],[8.70074,4.90034],[-5.02314,-2.82908]],[[509.73052,186.3407],[5.60991,0.00254],[-6.14144,0.00001]],[[490.18417,186.25049],[5.96547,-1.24372],[-7.93596,1.65454]],[[463.93197,197.5533],[6.8393,-4.17816],[-3.3476,2.04506]],[[456.57272,205.55003],[2.42972,-2.88823],[-5.91574,7.03207]],[[439.2137,226.87367],[5.56855,-7.3081],[-5.37405,7.05284]],[[423.88788,248.63065],[5.06212,-7.29196],[-1.19039,1.71475]],[[420.94761,254.15977],[-1.05849,-1.79916],[0.43763,0.74386]]],&quot;closed&quot;:true}]}" fill="#4580c0" stroke="none" stroke-width="0.5"/><path d="M216.03524,128.14692c0.77453,-1.52547 1.57496,-3.03797 2.394,-4.53996c1.32421,-2.38287 2.94441,-6.40042 5.32554,-7.88913c3.50422,-2.19088 11.48744,-1.67021 14.42261,1.36822c4.36564,4.51924 0.73381,16.1331 -4.66083,18.30998c-2.07422,0.837 -7.24719,0.73195 -9.45269,0.39783c-2.28251,-0.3458 -4.47493,-1.26973 -6.50114,-2.43077c-0.46107,0.03627 -0.99299,-0.07894 -1.58015,-0.47038c-1.00003,-0.66669 -1.19879,-1.49364 -1.13556,-2.17266c-0.09408,-0.50773 -0.01137,-1.11388 0.44218,-1.79421c0.23344,-0.35017 0.48653,-0.60209 0.74604,-0.77892z" fill="#ffffff" stroke="none" stroke-width="0.5"/><path d="M208.03617,149.6906c-0.34829,0.22398 -0.80857,0.37199 -1.41685,0.37199c-2.5,0 -2.5,-2.5 -2.5,-2.5l0.10543,-2.46837c0.61588,-2.03645 1.35131,-4.95629 2.67609,-6.57277c3.76839,-4.59815 11.14803,-3.57551 13.52818,2.08443c2.35584,5.60215 -2.08671,11.34099 -7.84259,10.69065c-1.59351,-0.18005 -3.12715,-0.79074 -4.55026,-1.60593z" fill="#ffffff" stroke="none" stroke-width="0.5"/><path d="M210.63709,159.61214l0.98223,1.01776c2.85912,3.8295 4.46509,6.90986 8.5655,9.6241c10.78215,6.16858 21.42638,11.73454 34.20998,10.636c6.84557,-0.58827 13.04166,-3.84581 19.46995,-5.89351c2.20168,-0.70134 4.2215,-2.27878 6.53179,-2.32148c0.1585,-0.00293 0.31606,0.0019 0.47277,0.01347v-0.05858h2.5c1.38071,0 2.5,1.11929 2.5,2.5c0,0.63486 -0.23665,1.21445 -0.62653,1.65538l-1.74203,1.99088l-0.01933,-0.01692l-0.0365,0.07862c-1.98215,1.98256 -4.11273,3.75817 -5.91719,5.90694c-0.7226,0.86048 -3.64182,4.56448 -4.56268,5.30957c-5.04354,4.08087 -14.37864,4.32078 -20.59574,4.32553c-6.70469,0 -14.99046,1.27626 -21.39226,-1.16464c-3.85497,-1.46984 -7.00941,-4.52277 -10.02179,-7.21963c-5.12933,-4.5921 -9.06811,-9.82 -11.87858,-16.11881c-0.77022,-1.72619 -1.9148,-3.34921 -2.23329,-5.21242l-1.22779,-2.70114c-0.15784,-0.32776 -0.24629,-0.69524 -0.24629,-1.08337c0,-1.38071 1.11929,-2.5 2.5,-2.5c0.58202,0 1.11758,0.19889 1.54244,0.53241c0.7293,0.2038 1.22533,0.69983 1.22533,0.69983z" fill="#85a8b9" stroke="none" stroke-width="0.5"/><path d="M206.79467,207.02511c-0.60634,2.42536 -3.0317,1.81902 -3.0317,1.81902l-0.89663,-0.22647c-4.33638,-0.89641 -8.15311,-2.23945 -12.11506,-4.21281c0,0 -2.23607,-1.11803 -1.11803,-3.3541c1.11803,-2.23607 3.3541,-1.11803 3.3541,-1.11803c3.56909,1.79206 6.97081,2.98897 10.88494,3.78719l1.10337,0.27353c0,0 2.42536,0.60634 1.81902,3.0317z" fill="#849195" stroke="none" stroke-width="0.5"/><path d="M202.61932,213.91877c0,2.5 -2.5,2.5 -2.5,2.5c-1.83333,0 -4.16667,0 -6,0c0,0 -2.5,0 -2.5,-2.5c0,-2.5 2.5,-2.5 2.5,-2.5c1.83333,0 3.66667,0 5.5,0h0.5c0,0 2.5,0 2.5,2.5z" fill="#849195" stroke="none" stroke-width="0.5"/><path d="M298.60539,207.80074c1.11803,2.23607 -1.11803,3.3541 -1.11803,3.3541l-1.89966,0.9085c-0.83333,0.25 -1.66667,0.5 -2.5,0.75c0,0 -2.39457,0.71837 -3.11294,-1.6762c-0.71837,-2.39457 1.6762,-3.11294 1.6762,-3.11294c0.83333,-0.25 1.66667,-0.5 2.5,-0.75l1.10034,-0.5915c0,0 2.23607,-1.11803 3.3541,1.11803z" fill="#849195" stroke="none" stroke-width="0.5"/><path d="M307.13709,192.401c1.76777,1.76777 0,3.53553 0,3.53553l-1.74349,1.71379c-3.05643,2.35064 -6.20292,4.56145 -9.21254,6.97061c0,0 -1.95217,1.56174 -3.51391,-0.39043c-1.56174,-1.95217 0.39043,-3.51391 0.39043,-3.51391c3.03614,-2.4275 6.20619,-4.6587 9.28746,-7.02939l1.25651,-1.28621c0,0 1.76777,-1.76777 3.53553,0z" fill="#849195" stroke="none" stroke-width="0.5"/><path d="M251.80646,181.3259c3.47534,-0.03023 13.18843,-5.28781 15.0895,-4.65412c0.04415,0.01471 0.08782,0.02948 0.13102,0.0443c1.40705,-0.18818 2.52835,0.21154 3.17865,1.51213c0.46415,0.9283 0.36689,1.898 -0.08887,2.86274c-0.08108,0.39803 -0.20166,0.831 -0.35927,1.30387c-0.22055,0.66162 -1.11218,1.33838 -2.39059,1.99012c-0.42716,0.37356 -0.87565,0.73667 -1.33046,1.0859c0.04005,0.55389 0.00063,1.19833 -0.1066,1.94891c-0.20781,1.45462 -3.9358,3.38914 -5.00732,4.1778c-5.78228,4.25589 -12.51999,8.41026 -20.06891,8.49742c-3.62855,0.04189 -9.07424,2.64541 -10.87462,-0.50525c-1.07767,-0.63602 -1.80061,-1.80912 -1.80061,-3.15107c0,-1.05286 0.44501,-2.00179 1.15721,-2.66893c-2.31703,-0.2882 -4.95474,-0.66359 -6.58378,-1.00015c-0.39477,-0.0329 -0.77172,-0.12852 -1.12086,-0.27685c-1.30944,-0.55634 -2.22773,-1.85428 -2.22773,-3.36669c0,-2.01932 1.63699,-3.65632 3.65632,-3.65632c0.46644,0 0.9125,0.08734 1.32267,0.24656c1.22016,-0.15908 2.53628,-0.0642 3.90071,0.13757c-0.06832,-0.27934 -0.10454,-0.57125 -0.10454,-0.87165c0,-1.68692 1.14241,-3.10702 2.69577,-3.52884c4.06543,-3.5354 8.77362,-0.02168 20.9323,-0.12747z" fill="#ffcc2d" stroke="none" stroke-width="0.5"/><path d="M272.78542,191.31983c-6.06488,7.25893 -14.16229,10.84957 -23.64417,10.96895c-3.27624,0.04125 -15.96482,0.69971 -8.65327,-6.61184c1.154,-1.154 7.12391,-0.64949 8.47092,-0.70079c5.95325,-0.22673 10.55193,-1.73553 15.39088,-5.15916c0.79361,-0.56149 3.7854,-3.70083 3.80432,-4.39922c0.06485,-2.39383 -1.57394,-5.97822 0.50524,-7.16633c0.63602,-1.07767 1.80912,-1.80061 3.15107,-1.80061c2.01932,0 3.65632,1.63699 3.65632,3.65632c0,0.1654 -0.01097,0.32824 -0.03226,0.48782c1.2372,3.40607 -0.03642,7.59788 -2.64905,10.72487z" fill="#cf9704" stroke="none" stroke-width="0.5"/><path d="M239.87859,185.22596c0,0.86139 -0.38234,1.61256 -1.00803,2.24225c3.13958,-0.42436 6.57353,-0.44492 6.368,3.35951c-0.06106,1.13031 -0.647,2.32417 -1.53102,3.03115c-2.65467,2.12299 -12.34045,2.54422 -15.00403,2.75321c-0.0224,0.00175 -5.40342,0.67409 -6.03714,-0.43491l-1.80061,-3.15107c0.52875,-0.92531 0.71034,-2.20013 1.44843,-2.91468c0.11256,-0.10897 0.23808,-0.20491 0.37973,-0.2846c0.19695,-0.11079 0.41873,-0.19782 0.658,-0.26578c0.36028,-0.12162 0.7457,-0.18864 1.14642,-0.19118c1.32616,-0.10644 2.81055,0.06932 3.63692,-0.00008c0.44588,-0.03744 0.88445,-0.09345 1.31775,-0.16232c-0.41694,-0.21202 -0.7408,-0.48789 -0.93655,-0.83043c-1.07767,-0.63602 -1.80061,-1.80912 -1.80061,-3.15107c0,-2.01932 1.63699,-3.65632 3.65632,-3.65632c0.32662,0 0.64323,0.04282 0.94454,0.12317c3.87755,-1.55941 8.56188,-1.25899 8.56188,3.53315z" fill="#cf9704" stroke="none" stroke-width="0.5"/></g></g></svg>