<svg version="1.1" xmlns="http://www.w3.org/2000/svg" xmlns:xlink="http://www.w3.org/1999/xlink" width="160.26032" height="186.74885" viewBox="0,0,160.26032,186.74885"><defs><radialGradient cx="253.46633" cy="150.0615" r="40.64917" gradientUnits="userSpaceOnUse" id="color-1"><stop offset="0" stop-color="#fecf2c"/><stop offset="1" stop-color="#c69211"/></radialGradient></defs><g transform="translate(-159.86983,-87.37557)"><g data-paper-data="{&quot;isPaintingLayer&quot;:true}" fill-rule="nonzero" stroke-linecap="butt" stroke-linejoin="miter" stroke-miterlimit="10" stroke-dasharray="" stroke-dashoffset="0" style="mix-blend-mode: normal"><path d="M195.54691,182.07754c-0.00787,-0.09525 -0.00787,-0.15075 -0.00787,-0.15075l0.6825,-2.09229c0.91443,-0.94745 1.5829,-2.21999 2.7433,-2.84233c1.06196,-0.56954 2.39002,-0.31974 3.57372,-0.54559c4.24319,-0.80961 7.97107,-0.8642 12.30957,-0.8642c11.91859,0 23.70655,1.37922 35.58391,1.37922c13.41598,0 26.84386,0.13391 40.25579,-0.20656c4.43306,-0.11253 13.91356,-2.69321 17.74755,0.24509c1.01085,0.7747 0.70486,7.1662 0.74972,8.41431c0.40088,11.15255 0.59162,22.27056 -0.58876,33.38499c-0.99789,4.24368 -1.63545,9.36856 -5.47382,12.22446c-3.30549,2.45939 -4.20083,1.74543 -7.59047,1.93067c-6.00512,0.32818 -12.07013,1.05845 -18.05555,1.64346c-20.3515,1.98915 -40.80771,1.4028 -61.26359,1.35049c-5.52774,-0.01439 -11.10113,-0.00627 -16.62097,-0.34455c-2.30996,-0.14156 -4.87218,0.48626 -6.91717,-0.59725c-3.42178,-1.81298 -4.63649,-10.32752 -4.85464,-13.47276c-0.9343,-13.4702 1.87801,-27.32767 7.72678,-39.4564z" fill="#cfe3e8" stroke="none" stroke-width="0.5"/><path d="M277.93257,135.80301c-1.01948,-0.80225 -1.01948,-2.22285 -1.01948,-2.22285l0.00994,-0.31414c-0.03536,-0.28218 -0.03915,-0.60442 0.02961,-0.93497l0.04279,-1.35082c0.82587,-3.11996 0.72727,-4.69026 3.34563,-6.92677c4.30602,-3.67807 11.39323,-2.29225 15.47934,1.09637c2.87522,2.38443 3.84571,6.47052 4.76924,9.85937c0.91767,8.89034 1.31196,17.92397 0.59352,26.85963c-0.2519,3.13305 -0.07926,10.13921 -6.06729,9.72152c-0.92292,-0.06438 -4.38601,-6.73629 -4.92791,-7.77568c-4.69705,-9.00923 -7.96488,-18.77996 -12.25538,-28.01163z" fill="#84bedd" stroke="none" stroke-width="0.5"/><path d="M203.34714,272.62442v-40.82495h96.26964v40.82495z" fill="#68616e" stroke="#4e4b4e" stroke-width="3"/><path d="M188.26643,208.697c0.18544,-1.77828 0.46585,-3.49537 1.10507,-5.4658c1.29288,-6.51011 4.53738,-11.92535 7.00736,-17.98627c1.25347,-3.07581 0.49467,-5.51122 5.0041,-6.62066c4.97474,-1.22391 10.93436,6.5134 13.80652,9.25854c6.27908,6.00136 18.01084,13.82516 12.96829,23.91027c-1.58652,3.17306 -4.79079,4.98764 -7.47461,7.07273c-2.71825,1.81451 -5.90409,3.32921 -8.51746,5.21635c-2.57552,1.85981 -4.32061,4.79711 -6.95579,6.66344c-0.43182,0.30582 -4.51008,2.48667 -5.11607,2.85735c-1.63607,1.00074 -5.24989,3.93825 -7.15904,3.33144c-2.98545,-0.94893 -3.39013,-4.97566 -3.87798,-7.35237c-1.3205,-6.43307 -1.70863,-12.14853 -1.70863,-18.74669c0,0 0,-1.32494 0.91825,-2.13831z" fill="#cee3e8" stroke="none" stroke-width="0.5"/><path d="M171.479,196.71665c-0.27498,0.56686 -0.80796,1.09803 -1.80906,1.34829c-2.67608,0.66902 -3.3451,-2.00706 -3.3451,-2.00706l-0.19213,-0.82972c-1.43672,-4.03617 -4.56014,-7.45513 -5.10204,-11.85174c-1.22455,-9.93524 -0.27146,-20.69449 3.84713,-29.76866c4.23813,-7.76543 10.91398,-12.72627 17.95368,-17.82952c3.29599,-2.38934 5.47486,-3.77122 9.43686,-4.83832c4.65004,-1.2524 9.05422,-1.6939 13.32756,0.77166c1.29728,0.74849 3.05805,1.07826 3.81799,2.36887c2.50426,4.25294 -2.43337,12.10452 -5.76839,14.49444c-0.65568,0.46987 -5.65068,1.76822 -6.61022,2.02999c-8.04553,2.18122 -16.76826,6.71469 -21.65129,13.56071c-0.57991,0.81303 -2.83442,3.87681 -3.19211,4.99252c-0.76632,2.39022 -0.15668,6.46428 -0.15668,8.85255c0,5.31096 -0.17814,10.53616 0.78304,15.78137c0,0 0.37681,2.07252 -1.33925,2.92461z" fill="#2d73cf" stroke="none" stroke-width="0.5"/><path d="M204.22122,150.83926c1.19113,0.76953 1.19114,2.34543 1.19114,2.34543v0.55169c-0.1721,3.95077 0.51055,5.59678 -4.0598,8.28544c-1.25676,0.73933 -2.91197,0.15937 -4.36638,0.26289c-3.27193,0.23287 -9.64254,1.27298 -10.74863,5.28864c-0.62232,2.25932 0.71949,7.99213 0.91511,9.89426c0.93859,3.1202 2.22261,6.50501 4.83709,8.61607c3.06323,2.4734 5.95986,2.58368 7.26584,6.95818c0.78697,2.63603 -0.17666,6.48921 -0.18765,9.2431c-0.00531,1.32886 0.30476,2.70032 -0.02924,3.98653c-0.44308,1.70627 -0.70508,3.93566 -2.24896,4.7866c-2.11747,1.1671 -6.26403,-1.18321 -8.04965,-2.32106c-6.03332,-3.84465 -12.95009,-7.70059 -17.33891,-13.46407c-2.8691,-5.04745 -2.03271,-8.87638 -1.56333,-14.45553c0.7159,-8.5094 4.3798,-17.57826 10.81167,-23.59407c5.27519,-4.93395 13.44482,-6.56025 20.19026,-8.35905c0,0 2.66531,-0.71074 3.37605,1.95456c0.00181,0.00681 0.00361,0.0136 0.00537,0.02038z" fill="#2d9fed" stroke="none" stroke-width="0.5"/><path d="M192.98865,166.6475c-2.70487,0.54097 -3.24585,-2.1639 -3.24585,-2.1639l-0.13212,-0.89573c-1.41431,-3.55613 -3.67117,-6.60485 -5.19162,-10.09042c-1.73537,-3.97827 -2.72536,-7.8304 -5.26496,-11.41972c0,0 -1.58187,-2.25982 0.67794,-3.84167c2.2598,-1.58186 3.84167,0.67795 3.84167,0.67795c2.70096,3.89354 3.91234,8.01047 5.7688,12.30288c1.53945,3.55945 3.83156,6.69327 5.29047,10.32206l0.41957,1.86271c0,0 0.54097,2.70488 -2.1639,3.24585z" fill="#1f6da1" stroke="none" stroke-width="0.5"/><path d="M188.0188,172.07233c-1.23361,2.46723 -3.70084,1.23362 -3.70084,1.23362l-0.14424,-0.27417c-3.64179,-0.36897 -7.86935,-0.77815 -11.49654,-0.28656c-3.09774,0.41982 -6.27492,1.86166 -9.29489,2.68565c0,0 -2.66125,0.72579 -3.38704,-1.93546c-0.72579,-2.66125 1.93546,-3.38704 1.93546,-3.38704c3.26552,-0.89019 6.66142,-2.37186 10.0142,-2.83123c4.04533,-0.55426 8.72094,-0.13574 12.77776,0.26513l2.06251,0.82922c0,0 2.46723,1.23361 1.23361,3.70084z" fill="#1f6da1" stroke="none" stroke-width="0.5"/><path d="M182.79313,205.87094c-2.75844,0 -2.75844,-2.75844 -2.75844,-2.75844v-2.75844c0.02739,-7.30863 2.83186,-12.6456 7.57861,-18.09126c0,0 1.81645,-2.07594 3.89238,-0.25949c2.07594,1.81645 0.25949,3.89238 0.25949,3.89238c-3.86536,4.39849 -6.23976,8.53895 -6.2136,14.45836v2.75844c0,0 0,2.75844 -2.75844,2.75844z" fill="#1f6da1" stroke="none" stroke-width="0.5"/><path d="M291.64592,248.89413c-0.14665,0.03609 -0.30409,0.06413 -0.47311,0.08291c-2.74157,0.30462 -3.04619,-2.43695 -3.04619,-2.43695l-0.23915,-3.32819c1.0608,-5.29653 2.13317,-13.78526 8.12195,-16.12496c2.27424,-0.88851 5.56788,0.5724 7.57424,1.46074c4.66245,2.06439 7.67969,4.38284 10.61861,8.55261c3.39693,6.7555 7.04319,13.45459 5.60617,21.35491c-0.32482,1.78579 -0.59577,3.65961 -1.49589,5.2358c-2.77434,4.85811 -13.95364,6.72779 -18.24656,3.08474c-1.36949,-1.16216 -2.06041,-4.90423 -2.69259,-6.64755c-1.45922,-4.02404 -3.53954,-7.62744 -5.72749,-11.23404z" fill="#3274d3" stroke="none" stroke-width="0.5"/><path d="M180.00433,267.02849c-0.39046,0.26746 -0.91466,0.44698 -1.61837,0.44698c-2.75844,0 -2.75844,-2.75844 -2.75844,-2.75844l0.05357,-0.81682c2.30612,-11.30876 9.70369,-21.19883 17.51702,-29.47966c2.36038,-2.5016 7.36542,-7.59948 11.0369,-7.48724c1.78379,0.05454 2.96819,1.98225 4.45228,2.97337c2.88625,6.02592 6.1093,13.92674 0.9283,19.8939c-2.24408,2.58459 -4.25926,2.50931 -5.84429,5.8966c-2.06776,4.41891 -2.67177,12.17271 -7.69486,14.56607c-1.21662,0.57968 -2.68807,0.25448 -4.03569,0.24308c-4.39218,-0.03712 -8.12901,-1.82407 -12.03644,-3.47786z" fill="#3274d3" stroke="none" stroke-width="0.5"/><path d="M215.92639,238.3283c-0.12279,0.76755 -0.62937,2.35077 -2.71915,2.35077c-2.75844,0 -2.75844,-2.75844 -2.75844,-2.75844l0.0972,-0.65342c-0.54283,-1.99436 -1.02724,-4.0062 -1.43333,-6.03283c-0.6167,-3.90313 -1.80144,-8.20521 -1.4189,-12.20856c0.13317,-1.3936 -0.0654,-2.98188 0.72608,-4.1366c3.08201,-4.49651 11.05312,-3.4518 15.54531,-3.44963c4.13072,0.002 7.47657,0.92041 11.58142,1.39265c3.46657,0.3988 7.26308,-0.01343 10.76196,-0.01343c8.647,0 17.29146,-0.27314 25.92936,-0.27584c5.77748,0.00403 11.59136,0.62764 17.19264,1.95532c1.82629,0.43289 4.37001,-0.30801 5.50401,1.18758c1.03617,1.36657 -0.46885,3.39808 -0.74347,5.09091c-0.73381,4.52355 -1.37468,13.42398 -5.29508,16.43311c-1.12838,0.86608 -2.82541,0.34675 -4.24511,0.43491c-2.65063,0.1646 -9.20569,0.63077 -11.13275,-1.16651c-1.08156,-1.00873 -0.64032,-2.90154 -0.7174,-4.37849c-0.02155,-0.41292 0.75852,-0.91557 0.42814,-1.16421c-0.34514,-0.25975 -0.69806,0.59967 -1.12838,0.63722c-0.0244,0.00213 -5.52204,-0.5488 -5.64159,-0.56075c-7.18706,-0.66036 -14.42989,-0.00032 -21.63545,-0.2654c-3.80132,-0.13983 -8.59868,0.45375 -12.30713,-0.27381c-0.51732,-0.10149 -0.83243,-0.80793 -1.35961,-0.80793c-0.38086,0 0.77043,0.42892 0.80793,0.80793c0.13365,1.35112 0.39707,2.91114 -0.32639,4.06004c-2.75776,4.37944 -10.79506,3.33219 -15.71186,3.79544z" fill="#cbe4e8" stroke="none" stroke-width="0.5"/><path d="M228.02047,210.17768c-0.66902,2.67608 -3.3451,2.00706 -3.3451,2.00706l-1.81221,-0.48303c-6.27983,-0.68787 -10.55956,-3.64262 -14.52757,-8.41959c-0.05019,-0.06043 -0.22157,-0.29564 -0.46798,-0.64168c-0.0792,3.20534 -0.17726,6.4118 -0.17726,9.62665c0,0 0,2.75844 -2.75844,2.75844c-2.75844,0 -2.75844,-2.75844 -2.75844,-2.75844c0,-5.34317 0.28104,-10.66951 0.27584,-15.99897v-3.31013v0c0,-1.52344 1.235,-2.75844 2.75844,-2.75844c1.10118,0 2.05165,0.64524 2.49395,1.57828l1.29491,2.58982c4.68562,5.22235 6.48457,11.1528 14.41549,11.84455l2.6013,0.62035c0,0 2.67609,0.66902 2.00706,3.34511z" fill="#d4e8ed" stroke="none" stroke-width="0.5"/><path d="M298.16726,217.2323c-2.75844,0 -2.75844,-2.75844 -2.75844,-2.75844v-2.4826c0,-3.93582 -0.03064,-7.87331 -0.0082,-11.80927c-0.5079,0.54174 -1.02929,1.03923 -1.4319,1.42408c-5.25058,5.01913 -10.9214,9.29455 -17.46293,12.57658c0,0 -2.46722,1.23362 -3.70084,-1.23361c-1.23362,-2.46723 1.23361,-3.70084 1.23361,-3.70084c6.10732,-3.04214 11.27429,-7.05985 16.19007,-11.69772c1.0877,-1.02621 5.93995,-6.96597 7.15206,-6.78097c2.00402,0.30589 2.69547,3.11418 3.49522,4.97699c0.43139,1.00479 0.04184,2.18662 0.04977,3.28007c0.03132,4.32097 0,8.64356 0,12.96468v2.4826c0,0 0,2.75844 -2.75844,2.75844z" fill="#d4e8ed" stroke="none" stroke-width="0.5"/><path d="M201.56284,170.27662c-0.00253,-0.58044 0.21292,-1.2344 0.86687,-1.88835c1.95051,-1.95051 3.90103,0 3.90103,0l0.27584,0.27584c5.77051,5.7947 8.14385,13.09223 12.50197,19.7602c2.76793,4.23497 8.32322,6.61598 12.10654,9.85221c-0.20921,1.75279 -0.02625,3.59875 -0.62763,5.2584c-0.95016,2.62218 -5.73076,7.25254 -8.55319,7.35297c-1.42438,0.05068 -2.63856,-1.09168 -3.89351,-1.76736c-5.51338,-2.96848 -12.73794,-8.60551 -16.07494,-13.83415c-4.51419,-7.07315 -1.24274,-15.31067 -1.27156,-23.01669c0,0 0,-1.17675 0.76859,-1.99306z" fill="#ffffff" stroke="none" stroke-width="0.5"/><path d="M274.80598,205.55177c-0.56273,0.21378 -1.27827,0.23803 -2.14663,-0.19615c-2.46723,-1.23361 -1.23361,-3.70084 -1.23361,-3.70084l0.55169,-1.10338c1.80796,-3.55766 3.86366,-5.15579 6.46992,-8.04206c1.45273,-1.60881 2.15857,-3.78371 3.53533,-5.458c3.40639,-4.14251 6.51969,-6.78152 8.65444,-11.93475c1.10203,-2.80904 2.18759,-8.18724 6.61215,-8.36231c1.88406,-0.07454 3.48222,1.65863 4.7771,3.02921c0.9133,0.96668 1.1814,2.39773 1.55574,3.67383c1.23315,4.20361 0.85059,9.44647 0.65265,13.78449c-0.08776,1.92332 0.15395,3.92203 -0.41634,5.76095c-1.61797,5.21722 -8.88427,6.2055 -12.93534,8.86211c-4.56,2.99035 -8.15559,7.39311 -14.25422,4.92093c-0.68204,-0.27647 -1.25341,-0.75354 -1.8229,-1.23404z" fill="#ffffff" stroke="none" stroke-width="0.5"/><path d="M212.22439,241.35383c-0.63412,-0.36864 -1.2239,-1.05435 -1.2239,-2.32984c0,-2.75844 2.75844,-2.75844 2.75844,-2.75844l0.27721,0.01369c4.31317,-0.41495 8.05572,-2.85168 12.2773,-3.29316c1.57649,-0.16487 3.16403,0.19715 4.74605,0.29573c0.98348,1.32826 2.26544,2.4807 2.95046,3.98478c0.23831,0.52324 0.58274,5.57503 0.68796,6.35064c0.44696,3.29492 1.63495,6.46481 1.94496,9.77879c0.17283,1.84765 -0.01095,6.94959 -1.16301,8.07735c-1.11349,1.09 -3.06777,0.56986 -4.61857,0.72154c-2.86161,0.27989 -6.23965,0.22899 -9.10286,0c-1.60281,-0.12819 -3.52394,0.37476 -4.78311,-0.62522c-1.20819,-0.9595 -1.09748,-2.88843 -1.51239,-4.37443c-1.43382,-5.13543 -2.35968,-10.57884 -3.23853,-15.84143z" fill="#b3cccf" stroke="none" stroke-width="0.5"/><path d="M269.45787,241.80706c-1.61422,-1.08172 -0.94023,-3.10367 -0.94023,-3.10367l1.91431,-3.90547c3.78971,-2.35871 5.91926,-2.24302 10.27843,-1.80165c1.87733,0.46884 6.71526,1.37322 7.87976,3.10203c1.44687,2.14803 0.23872,5.86791 -0.51405,7.99137c-2.00395,5.65285 -3.3699,12.75947 -8.8028,16.27043c-2.96392,1.91541 -9.88827,2.87361 -12.53766,-0.35266c-1.00208,-1.22027 -0.55915,-3.12562 -0.55287,-4.70461c0.00845,-2.12378 0.76203,-4.17872 1.1309,-6.27024c0.44795,-2.53994 1.24803,-4.88486 2.14423,-7.22554z" fill="#b3cccf" stroke="none" stroke-width="0.5"/><path d="M234.06655,265.2469c-2.14738,0.02801 -2.60002,-2.23518 -2.60002,-2.23518l-0.21307,-1.12756c-0.994,-3.36048 -2.67528,-6.16557 -3.37965,-9.66534c-0.79412,-3.9457 -0.32486,-8.3654 -0.32265,-12.3673c0.00167,-3.01107 -0.2669,-7.22198 1.58613,-9.83423c3.08051,-4.34267 9.88428,-5.28472 14.60261,-5.6117c7.7768,-0.00335 15.34888,0.31738 23.10615,0.82902c3.55969,0.23479 5.86162,-0.69384 8.64925,3.38079c0.4671,0.68276 -0.16043,6.98642 -0.22896,8.10748c-0.37583,6.14878 -1.56113,11.91709 -3.11276,17.87366c-0.15038,0.5773 -2.1202,7.06691 -2.52721,7.48179c-1.88035,1.91673 -7.46697,3.76794 -9.91577,1.41581c-0.50675,-0.48675 -0.43552,-5.97886 -0.43735,-7.36781c0,-3.03206 0.16587,-6.12285 0.04635,-9.15097c-0.02405,-0.60956 0.21709,-1.3994 -0.2288,-1.81573c-0.31457,-0.29373 -0.76919,0.43565 -1.19679,0.48463c-3.00698,0.34442 -6.35276,0.0085 -9.3787,0c-0.99934,-0.0028 -2.0027,0.07212 -2.998,-0.01771c-0.5453,-0.04921 -1.16187,-0.73305 -1.59392,-0.39673c-0.34324,0.26719 0.76246,0.50946 0.93759,0.90763c0.43998,1.00023 0.66975,2.08793 0.85388,3.16504c0.52293,3.05895 0.82778,7.54462 0.3098,10.62017c-0.31404,1.86465 -0.177,4.12408 -1.50599,5.4692c-0.84063,0.85082 -7.20501,0.66488 -8.41637,0.66488c0,0 -1.21847,0 -2.03576,-0.80982z" fill="#849195" stroke="none" stroke-width="0.5"/><path d="M210.18718,159.51147c1.38271,0.41179 1.80532,1.96138 1.80532,1.96138c3.93421,14.69556 19.52068,22.87572 33.61794,25.03216c5.6076,0.85779 10.59076,1.62913 16.1594,0.08628c6.21899,-2.07466 12.17632,-4.55993 18.21998,-7.07812c4.23971,-1.76654 8.5958,-3.29973 10.33317,-8.05998c1.45188,-3.97805 0.78423,-9.66075 0.00317,-13.60805c-0.72677,-3.67293 -1.45697,-4.47051 -3.19146,-7.92926c-1.80861,-3.60653 -3.14583,-7.9103 -5.32938,-11.19928c-1.40991,-1.02036 -2.79416,-2.07627 -4.16528,-3.14819l-2.29425,-1.27458c-0.87266,-0.46321 -1.46698,-1.38124 -1.46698,-2.43808c0,-1.13842 0.68961,-2.11575 1.6739,-2.53706l2.35297,-1.06953c0.3927,-0.83468 -0.333,-2.00873 -0.67752,-2.56098c-1.19127,-1.90959 -2.55752,-3.70589 -3.75715,-5.61024c-1.05999,-1.68267 -2.45387,-3.13745 -3.52916,-4.81039c-0.2067,-0.32157 -0.04462,-1.20375 -0.40395,-1.07332c-0.88245,0.32032 -1.32228,1.33503 -2.02669,1.9556c-1.88211,1.6581 -3.91561,3.18996 -6.1377,4.35356c-4.34778,2.2767 -8.46697,2.07979 -13.15893,3.02347c-1.4759,0.29684 -3.21921,-0.18621 -4.46886,0.65329c-0.63441,0.42619 -0.97408,3.09666 -1.05967,3.62334l-0.26414,2.64133c-0.12357,1.40909 -1.30661,2.51431 -2.74778,2.51431c-0.76173,0 -1.45134,-0.30875 -1.95052,-0.80793l-0.96835,-0.96836c-0.67657,1.56385 -2.17449,2.65453 -3.32657,3.91989c-4.08872,4.49077 -7.3179,6.12007 -13.33951,6.13171c-0.12747,0.00025 -0.34862,0.01178 -0.62622,0.02355c0.56248,0.38245 1.0721,0.82787 1.46426,1.36978c1.15023,1.58945 1.94235,6.03046 1.25036,7.9572c-1.48108,4.12383 -2.96578,4.42899 -6.78177,4.97995c-0.99973,0.14434 -2.02337,0.09394 -3.03026,0.01342c-0.4759,-0.03806 -0.98017,-0.62023 -1.38457,-0.36648c-1.27334,0.79899 -1.05566,2.5705 -0.79379,4.29957zM207.8185,166.33381c-0.04661,0.00167 -0.09404,0.0025 -0.14231,0.0025c-2.75844,0 -2.75844,-2.75844 -2.75844,-2.75844v-1.93091c0.06779,-4.42315 -0.9777,-8.09572 3.31548,-11.21898c2.26648,-1.64884 5.8355,0.76125 8.11429,-0.45168c0.96451,-0.51338 0.66064,-3.43673 0.14517,-4.06656c-2.91177,-3.55788 -10.84401,-3.14884 -3.31929,-9.81112c1.0419,-0.92248 2.76784,-0.30448 4.15733,-0.38103c2.33789,-0.12881 5.26569,0.54239 7.51796,-0.35087c2.60076,-1.03147 4.99151,-3.79681 7.02734,-6.67659l-0.02576,-0.00967l1.63246,-4.35321c0.37549,-1.07723 1.40019,-1.85019 2.60541,-1.85019c0.76632,0 1.45965,0.31249 1.95952,0.81698c0.42438,-1.31819 1.11091,-2.52589 2.52005,-3.62347c0.5117,-0.39857 5.52274,-1.34612 6.56492,-1.55346c4.99463,-0.99365 9.54987,-0.593 13.87694,-3.708c2.40303,-1.72992 5.78371,-5.645 8.9348,-5.71677c1.62754,-0.03707 2.79832,1.70077 4.00956,2.7885c2.42534,2.17804 3.78726,5.46163 5.5494,8.11615c0.8096,1.21962 1.96616,2.21682 2.61156,3.53075c0.7174,1.46053 1.49601,3.04606 1.41725,4.67137c-0.07147,1.47489 -0.57895,3.04408 -1.5185,4.19631c1.26547,0.97792 2.53191,1.9546 3.79941,2.92989c1.30693,1.95607 2.1644,4.18621 3.03349,6.37229c1.47527,3.71078 4.05559,7.0548 5.53048,10.79194c3.31197,8.39211 3.82069,20.22854 -2.76908,27.17386c-2.67235,2.81654 -6.00676,3.88829 -9.49628,5.34226c-6.21499,2.58958 -12.34689,5.13529 -18.74315,7.26578c-6.41898,1.72826 -12.13089,1.0865 -18.59698,0.08628c-15.23913,-2.35725 -31.06776,-10.88204 -36.95305,-25.62394z" fill="#fecf2c" stroke="none" stroke-width="0.5"/><path d="M210.92614,155.21799c0.4044,-0.25374 1.01825,0.31555 1.49415,0.35361c1.00688,0.08052 1.92111,0.14508 2.92084,0.00074c3.816,-0.55097 5.3002,-0.86396 6.78129,-4.98778c0.69199,-1.92674 -0.09813,-6.38199 -1.24836,-7.97143c-0.39215,-0.5419 -0.90134,-0.98884 -1.46382,-1.37129c0.2776,-0.01176 0.49886,-0.02365 0.62633,-0.0239c6.0216,-0.01164 9.26274,-1.66166 13.35146,-6.15243c1.15208,-1.26537 2.65893,-2.36387 3.3355,-3.92772l0.96881,0.96801c0.49918,0.49918 1.19133,0.80628 1.95305,0.80628c1.44118,0 2.63246,-1.10935 2.75603,-2.51844l0.26674,-2.6423c0.08558,-0.52666 0.42946,-3.19839 1.06387,-3.62458c1.24965,-0.8395 3.0019,-0.35798 4.4778,-0.65482c4.69196,-0.94369 8.83442,-0.7438 13.1822,-3.02049c2.22209,-1.16359 4.2613,-2.69306 6.1434,-4.35116c0.70442,-0.62057 1.14539,-1.63471 2.02784,-1.95503c0.35934,-0.13043 0.19828,0.75228 0.40497,1.07386c1.07531,1.67294 2.47574,3.13192 3.53573,4.8146c1.19964,1.90435 2.57306,3.70704 3.76434,5.61663c0.34452,0.55226 1.07261,1.72902 0.67991,2.56371l-2.4373,1.14068c-0.98428,0.4213 -1.58932,1.32779 -1.58932,2.46621c0,1.05684 0.59742,1.97906 1.4701,2.44228l2.29641,1.27812c1.37112,1.07192 2.75875,2.13499 4.16866,3.15534c2.18355,3.28898 3.52449,7.61131 5.33311,11.21785c1.73449,3.45874 2.46386,4.2673 3.19064,7.94023c0.78106,3.9473 1.44335,9.64582 -0.00853,13.62387c-1.73737,4.76025 -6.10293,6.30654 -10.34265,8.07309c-6.04366,2.51819 -12.02402,5.0176 -18.243,7.09225c-5.56863,1.54284 -10.57587,0.7735 -16.18348,-0.08429c-14.09727,-2.15644 -29.7293,-10.37658 -33.66351,-25.07213c0,0 -0.42337,-1.55267 -1.80608,-1.96446c-0.26185,-1.72907 -0.48044,-3.50609 0.7929,-4.30509z" data-paper-data="{&quot;noHover&quot;:false,&quot;origItem&quot;:[&quot;Path&quot;,{&quot;applyMatrix&quot;:true,&quot;segments&quot;:[[[423.7901,306.55901],[-0.47465,-3.13414],[2.50632,0.74643]],[[427.06246,310.11425],[0,0],[7.13121,26.63742]],[[487.99892,355.48797],[-25.55295,-3.90879],[10.16444,1.55484]],[[517.28972,355.64437],[-10.0938,2.79658],[11.27264,-3.76056]],[[550.31556,342.81445],[-10.95484,4.56452],[7.68497,-3.20207]],[[569.04564,328.20479],[-3.14918,8.62852],[2.63171,-7.21069]],[[569.05139,303.53862],[1.41576,7.15494],[-1.31736,-6.65762]],[[563.2665,289.1659],[3.14397,6.26939],[-3.27831,-6.53727]],[[553.60637,268.86591],[3.95795,5.96166],[-2.55562,-1.84951]],[[546.05631,263.15945],[2.48532,1.94298],[0,0]],[[541.89772,260.84912],[0,0],[-1.5818,-0.83963]],[[539.23864,256.42983],[0,1.91564],[0,-2.06351]],[[542.27277,251.83111],[-1.78412,0.76367],[0,0]],[[546.53782,249.89246],[0,0],[0.71182,-1.51296]],[[545.30974,245.25037],[0.62448,1.00103],[-2.15932,-3.46135]],[[538.49947,235.08115],[2.17447,3.45185],[-1.92136,-3.05005]],[[532.10244,226.36175],[1.94911,3.0324],[-0.37466,-0.58289]],[[531.37024,224.41624],[0.65133,-0.23642],[-1.59954,0.58061]],[[527.69662,227.961],[1.27684,-1.12487],[-3.41154,3.00551]],[[516.57133,235.85234],[4.0278,-2.10915],[-7.88086,4.12678]],[[492.71922,241.33274],[8.50472,-1.71053],[-2.67524,0.53806]],[[484.61888,242.51691],[2.26514,-1.52169],[-1.14994,0.77251]],[[482.6981,249.08462],[0.15513,-0.95465],[0,0]],[[482.21932,253.87234],[0,0],[-0.22398,2.55415]],[[477.23864,258.42983],[2.61231,0],[-1.38071,0]],[[473.7031,256.96537],[0.90482,0.90482],[0,0]],[[471.94786,255.21012],[0,0],[-1.22636,2.83466]],[[465.91805,262.31538],[2.08829,-2.29363],[-7.41128,8.14005]],[[441.73864,273.42983],[10.91485,-0.0211],[-0.23107,0.00045]],[[440.60354,273.47252],[0.50318,-0.02132],[1.01956,0.69323]],[[443.25768,275.9554],[-0.71083,-0.98226],[2.08493,2.88105]],[[445.5241,290.37875],[1.25432,-3.49243],[-2.68464,7.47492]],[[433.23133,299.4055],[6.91695,-0.9987],[-1.81212,0.26164]],[[427.73864,299.42983],[1.82509,0.14595],[-0.86262,-0.06898]],[[425.22894,298.76554],[0.73302,-0.45995],[-2.30808,1.44827]]],&quot;closed&quot;:true}]}" fill="url(#color-1)" stroke="none" stroke-width="0.5"/><path d="M209.72657,131.49389c0.72864,-1.14526 1.51384,-2.26047 2.25455,-3.39344c1.5391,-2.35418 2.28684,-5.20729 4.03513,-7.41057c3.23463,-4.0764 9.37444,-5.86732 14.34467,-6.25343c2.83746,-0.22042 8.03243,-0.59795 10.83266,0.08016c0.77347,0.1873 1.20959,1.36093 2.00302,1.29922c1.48144,-0.11523 2.69119,-1.27159 4.08991,-1.77312c6.97396,-2.50057 13.65671,-4.57469 21.07543,-4.57949c5.34083,0.13446 8.98745,2.7182 12.89222,6.2369c6.08041,5.47923 8.84856,12.3329 10.83372,19.69762c0.23896,-3.48924 0.4437,-7.35343 -0.21666,-10.17913c-0.94723,-4.05323 -3.75953,-8.06811 -5.76912,-11.63097c-1.32827,-2.35493 -2.20217,-5.01003 -3.90845,-7.10731c-3.45034,-4.24103 -9.99883,-9.22936 -14.79893,-11.93282c-2.77121,-1.56077 -6.70027,-1.35771 -9.7952,-1.35911c-3.38816,0.00001 -7.49241,-0.73591 -10.7835,-0.04976c-4.37818,0.91279 -10.70987,3.93059 -14.48304,6.23562c-1.84683,1.12824 -2.71956,2.8183 -4.06001,4.4117c-3.26365,3.87952 -6.50466,7.73221 -9.57677,11.76401c-2.96481,3.89097 -5.66236,7.98018 -8.45508,12.00307c-0.65672,0.94601 -2.20607,2.05778 -1.62211,3.05035c0.24144,0.41038 0.68401,0.64198 1.10756,0.89046zM208.18651,137.64197c-0.62799,-0.32547 -1.00924,-0.80203 -1.00924,-0.80203l-0.89991,-1.15189c-0.95138,-1.07663 -2.39912,-1.86711 -2.85413,-3.22992c-0.48146,-1.44201 -0.15529,-3.08987 0.25537,-4.55363c1.08115,-3.85379 6.17134,-9.71592 8.374,-12.87372c3.61975,-5.18939 7.92007,-9.95762 11.98993,-14.78589c2.0082,-2.38242 2.44381,-3.69099 5.3187,-5.51868c4.17592,-2.65482 11.52806,-6.00049 16.41152,-7.0049c3.63548,-0.74773 8.10723,-0.04977 11.83574,-0.04976c3.97201,0.0225 8.66704,0.02958 12.27234,1.95102c5.46929,2.91485 12.78489,8.68765 16.64731,13.44485c1.24825,1.53742 3.71377,6.63032 4.36689,7.78827c2.28386,4.04917 5.3384,8.57239 6.36802,13.19501c0.07841,0.35202 0.06253,5.60246 0.06253,6.37669c0,0.9837 0.00168,9.74163 -0.00694,9.8501c-0.13119,1.6517 0.17283,3.58549 -0.83596,4.89989c-0.17909,0.23334 -0.37503,0.44853 -0.58462,0.649l0.06791,0.0679l-2.4826,2.4826c-0.49918,0.49918 -1.18879,0.80793 -1.95051,0.80793c-1.44118,0 -2.62422,-1.10522 -2.74778,-2.51432l-0.25967,-2.59662c-2.08835,-8.99322 -3.78765,-17.80146 -10.98813,-24.29688c-2.71128,-2.44579 -5.37367,-4.95598 -9.17532,-4.79688c-6.91058,-0.0048 -12.75302,2.22841 -19.32646,4.29493c-2.09485,0.65856 -4.07198,1.90304 -6.26355,2.04131c-1.09852,0.06931 -1.89652,-1.18379 -2.96219,-1.45923c-2.26316,-0.58494 -6.75554,-0.07841 -9.02813,0.08016c-3.30454,0.23057 -8.35848,1.37407 -10.4813,4.22865c-2.10821,2.83494 -1.77562,3.99328 -3.68851,6.93333c-1.26029,1.93702 -2.76162,3.76474 -3.6309,5.90594c0,0 -1.06094,2.54626 -3.60719,1.48532c-0.54652,-0.22773 -0.92686,-0.52386 -1.18718,-0.84857z" fill="#4580c0" stroke="none" stroke-width="0.5"/><path d="M208.56769,130.62366c-0.58396,-0.99258 0.96438,-2.10709 1.62111,-3.0531c2.79271,-4.02289 5.48748,-8.12711 8.45229,-12.01808c3.07211,-4.03179 6.31826,-7.91032 9.5819,-11.78984c1.34045,-1.5934 2.22042,-3.295 4.06726,-4.42325c3.77316,-2.30504 10.1383,-5.34234 14.51648,-6.25513c3.29108,-0.68615 7.42257,0.05198 10.81072,0.05198c3.09492,0.0014 7.04222,-0.19115 9.81342,1.36962c4.8001,2.70346 11.36607,7.72056 14.8164,11.96159c1.70627,2.09729 2.58169,4.76445 3.90996,7.11937c2.00959,3.56286 4.82004,7.59281 5.76726,11.64606c0.66035,2.82568 0.35318,6.65055 0.11422,10.13978c-1.98515,-7.36472 -4.75926,-14.19612 -10.83967,-19.67535c-3.90477,-3.5187 -7.54969,-6.08577 -12.89052,-6.22023c-7.41871,0.0048 -13.9929,2.06647 -20.96687,4.56703c-1.39871,0.50153 -2.71733,1.66911 -4.19877,1.78434c-0.79343,0.06171 -1.23095,-1.12218 -2.00442,-1.30948c-2.80023,-0.67811 -7.88492,-0.30381 -10.72237,-0.08339c-4.97024,0.3861 -11.11104,2.16754 -14.34565,6.24394c-1.7483,2.20328 -2.49837,5.04787 -4.03747,7.40205c-0.74071,1.13297 -1.52702,2.24536 -2.25567,3.39062c-0.42355,-0.24848 -0.96818,-0.43816 -1.20961,-0.84855z" data-paper-data="{&quot;noHover&quot;:false,&quot;origItem&quot;:[&quot;Path&quot;,{&quot;applyMatrix&quot;:true,&quot;segments&quot;:[[[422.95519,255.77383],[-0.76775,-0.4504],[1.32075,-2.07592]],[[427.04183,249.62284],[-1.34262,2.05364],[2.7898,-4.26721]],[[434.35597,236.19033],[-3.16899,3.9937],[5.86313,-7.38897]],[[460.35738,224.85526],[-9.00913,0.69986],[5.14322,-0.39954]],[[479.99284,225.00056],[-5.07574,-1.22916],[1.402,0.33951]],[[483.62353,227.35554],[-1.43818,0.11186],[2.68527,-0.20886]],[[491.03697,224.14156],[-2.53533,0.90907],[12.64111,-4.53258]],[[529.23864,215.8407],[-13.44729,0.0087],[9.68088,0.24373]],[[552.60729,227.14582],[-7.07786,-6.37806],[11.02146,9.93174]],[[572.24467,262.85005],[-3.59832,-13.34942],[0.43315,-6.32465]],[[571.85196,244.3992],[1.19697,5.12188],[-1.71696,-7.34697]],[[561.39475,223.31671],[3.64262,6.4581],[-2.40765,-4.26858]],[[554.31024,210.43387],[3.09282,3.80158],[-6.25413,-7.68736]],[[527.48545,188.80424],[8.70074,4.90034],[-5.02314,-2.82908]],[[509.73052,186.3407],[5.60991,0.00254],[-6.14144,0.00001]],[[490.18417,186.25049],[5.96547,-1.24372],[-7.93596,1.65454]],[[463.93197,197.5533],[6.8393,-4.17816],[-3.3476,2.04506]],[[456.57272,205.55003],[2.42972,-2.88823],[-5.91574,7.03207]],[[439.2137,226.87367],[5.56855,-7.3081],[-5.37405,7.05284]],[[423.88788,248.63065],[5.06212,-7.29196],[-1.19039,1.71475]],[[420.94761,254.15977],[-1.05849,-1.79916],[0.43763,0.74386]]],&quot;closed&quot;:true}]}" fill="#4580c0" stroke="none" stroke-width="0.5"/><path d="M214.75537,131.78076c0.8546,-1.68317 1.73777,-3.35203 2.64148,-5.00929c1.4611,-2.6292 3.24879,-7.06208 5.87608,-8.70468c3.86648,-2.41737 12.67498,-1.84287 15.91358,1.50966c4.81695,4.98643 0.80967,17.80089 -5.14265,20.20281c-2.28865,0.92353 -7.99638,0.80762 -10.42988,0.43896c-2.51847,-0.38155 -4.93753,-1.40099 -7.17321,-2.68206c-0.50873,0.04002 -1.09564,-0.0871 -1.7435,-0.51901c-1.10341,-0.73561 -1.32272,-1.64805 -1.25295,-2.39726c-0.10381,-0.56022 -0.01255,-1.22903 0.48789,-1.97969c0.25757,-0.38637 0.53683,-0.66433 0.82316,-0.85944z" fill="#ffffff" stroke="none" stroke-width="0.5"/><path d="M205.92938,155.55156c-0.3843,0.24713 -0.89216,0.41045 -1.56332,0.41045c-2.75844,0 -2.75844,-2.75844 -2.75844,-2.75844l0.11633,-2.72354c0.67955,-2.24697 1.491,-5.46866 2.95274,-7.25224c4.15795,-5.07349 12.30048,-3.94514 14.92668,2.29991c2.59938,6.18128 -2.30243,12.51339 -8.65333,11.79582c-1.75824,-0.19866 -3.45043,-0.87248 -5.02065,-1.77195z" fill="#ffffff" stroke="none" stroke-width="0.5"/><path d="M208.79917,166.49875l1.08377,1.12297c3.15469,4.22538 4.92668,7.62418 9.45098,10.61901c11.89678,6.80627 23.64137,12.94762 37.7465,11.73552c7.55324,-0.64908 14.38987,-4.24338 21.48269,-6.50276c2.42928,-0.77384 4.65791,-2.51435 7.20703,-2.56147c0.17489,-0.00323 0.34873,0.0021 0.52164,0.01486v-0.06464h2.75844c1.52344,0 2.75844,1.235 2.75844,2.75844c0,0.70049 -0.26111,1.34 -0.6913,1.82651l-1.92212,2.19669l-0.02133,-0.01867l-0.04027,0.08675c-2.18706,2.18751 -4.53789,4.14668 -6.52889,6.51758c-0.7973,0.94943 -4.0183,5.03634 -5.03436,5.85846c-5.56493,4.50274 -15.86506,4.76745 -22.72486,4.77269c-7.3978,0 -16.54013,1.4082 -23.60373,-1.28504c-4.25348,-1.62179 -7.73402,-4.99032 -11.05781,-7.96597c-5.65958,-5.06682 -10.00554,-10.83516 -13.10655,-17.78512c-0.84984,-1.90464 -2.11275,-3.69544 -2.46416,-5.75126l-1.35472,-2.98038c-0.17416,-0.36164 -0.27175,-0.76711 -0.27175,-1.19537c0,-1.52344 1.235,-2.75844 2.75844,-2.75844c0.64219,0 1.23311,0.21945 1.70189,0.58745c0.80469,0.22487 1.352,0.77218 1.352,0.77218z" fill="#85a8b9" stroke="none" stroke-width="0.5"/><path d="M204.55953,218.81314c-0.66902,2.67609 -3.34511,2.00706 -3.34511,2.00706l-0.98932,-0.24988c-4.78466,-0.98908 -8.99595,-2.47096 -13.36748,-4.64832c0,0 -2.46723,-1.23361 -1.23361,-3.70084c1.23361,-2.46723 3.70084,-1.23361 3.70084,-1.23361c3.93805,1.97732 7.69143,3.29796 12.01019,4.1787l1.21743,0.30181c0,0 2.67609,0.66902 2.00706,3.34511z" fill="#849195" stroke="none" stroke-width="0.5"/><path d="M199.95255,226.41944c0,2.75844 -2.75844,2.75844 -2.75844,2.75844c-2.02285,0 -4.59741,0 -6.62026,0c0,0 -2.75844,0 -2.75844,-2.75844c0,-2.75844 2.75844,-2.75844 2.75844,-2.75844c2.02285,0 4.04572,0 6.06857,0h0.55169c0,0 2.75844,0 2.75844,2.75844z" fill="#849195" stroke="none" stroke-width="0.5"/><path d="M305.86137,219.66895c1.23361,2.46723 -1.23361,3.70084 -1.23361,3.70084l-2.09604,1.00242c-0.91948,0.27584 -1.83897,0.55169 -2.75844,0.82753c0,0 -2.64211,0.79263 -3.43475,-1.84948c-0.79263,-2.64211 1.84948,-3.43475 1.84948,-3.43475c0.91948,-0.27584 1.83897,-0.55169 2.75844,-0.82753l1.21409,-0.65265c0,0 2.46723,-1.23361 3.70084,1.23361z" fill="#849195" stroke="none" stroke-width="0.5"/><path d="M315.27505,202.67723c1.95052,1.95052 0,3.90102 0,3.90102l-1.92373,1.89096c-3.37239,2.59364 -6.84416,5.033 -10.1649,7.69121c0,0 -2.15398,1.72319 -3.87717,-0.43079c-1.72319,-2.15398 0.43079,-3.87717 0.43079,-3.87717c3.35001,-2.67845 6.84777,-5.1403 10.24757,-7.75607l1.3864,-1.41917c0,0 1.95052,-1.95052 3.90102,0z" fill="#849195" stroke="none" stroke-width="0.5"/><path d="M254.22451,190.45723c3.83461,-0.03336 14.55181,-5.83445 16.64941,-5.13525c0.04871,0.01623 0.0969,0.03253 0.14456,0.04888c1.55251,-0.20763 2.78972,0.23341 3.50725,1.66845c0.51213,1.02426 0.40482,2.09421 -0.09806,3.15868c-0.08946,0.43918 -0.22251,0.91691 -0.39641,1.43866c-0.24335,0.73002 -1.22715,1.47674 -2.63772,2.19585c-0.47132,0.41218 -0.96617,0.81282 -1.468,1.19816c0.04419,0.61115 0.0007,1.32221 -0.11762,2.15038c-0.22929,1.60499 -4.34267,3.7395 -5.52496,4.60969c-6.38003,4.69585 -13.81427,9.27969 -22.14357,9.37586c-4.00366,0.04622 -10.01231,2.91888 -11.9988,-0.55748c-1.18908,-0.70177 -1.98675,-1.99614 -1.98675,-3.47682c0,-1.1617 0.49101,-2.20873 1.27684,-2.94484c-2.55656,-0.31799 -5.46695,-0.73219 -7.26439,-1.10354c-0.43558,-0.0363 -0.8515,-0.14181 -1.23673,-0.30547c-1.44481,-0.61385 -2.45803,-2.04597 -2.45803,-3.71473c0,-2.22807 1.80622,-4.0343 4.0343,-4.0343c0.51466,0 1.00683,0.09637 1.4594,0.27205c1.3463,-0.17553 2.79847,-0.07084 4.30395,0.15179c-0.07538,-0.30822 -0.11535,-0.6303 -0.11535,-0.96176c0,-1.86131 1.26051,-3.42821 2.97445,-3.89364c4.4857,-3.90088 9.68061,-0.02392 23.09622,-0.14065z" fill="#ffcc2d" stroke="none" stroke-width="0.5"/><path d="M277.37221,201.48431c-6.69185,8.00934 -15.62634,11.97117 -26.08843,12.10289c-3.61493,0.04551 -17.61521,0.77204 -9.54782,-7.29535c1.2733,-1.2733 7.86036,-0.71663 9.34662,-0.77324c6.56868,-0.25017 11.64276,-1.91494 16.98194,-5.6925c0.87565,-0.61954 4.17672,-4.08341 4.1976,-4.854c0.07155,-2.6413 -1.73665,-6.59623 0.55747,-7.90716c0.70177,-1.18908 1.99614,-1.98675 3.47682,-1.98675c2.22807,0 4.0343,1.80622 4.0343,4.0343c0,0.1825 -0.0121,0.36217 -0.03559,0.53825c1.3651,3.75818 -0.04018,8.38333 -2.9229,11.83357z" fill="#cf9704" stroke="none" stroke-width="0.5"/><path d="M241.06357,194.76047c0,0.95044 -0.42187,1.77926 -1.11224,2.47405c3.46414,-0.46823 7.25308,-0.49091 7.0263,3.70681c-0.06737,1.24716 -0.71388,2.56444 -1.68929,3.3445c-2.9291,2.34246 -13.61617,2.80723 -16.5551,3.03783c-0.02472,0.00193 -5.96201,0.74378 -6.66124,-0.47987l-1.98675,-3.47682c0.58341,-1.02097 0.78377,-2.42757 1.59816,-3.21599c0.1242,-0.12023 0.26269,-0.22609 0.41899,-0.31402c0.21731,-0.12224 0.46202,-0.21827 0.72602,-0.29326c0.39752,-0.13419 0.82279,-0.20814 1.26493,-0.21094c1.46325,-0.11744 3.1011,0.07649 4.01289,-0.00009c0.49197,-0.04131 0.97588,-0.10311 1.45397,-0.1791c-0.46004,-0.23394 -0.81738,-0.53833 -1.03337,-0.91628c-1.18908,-0.70177 -1.98675,-1.99614 -1.98675,-3.47682c0,-2.22807 1.80622,-4.0343 4.0343,-4.0343c0.36038,0 0.70973,0.04725 1.04218,0.1359c4.2784,-1.72062 9.44698,-1.38914 9.44698,3.8984z" fill="#cf9704" stroke="none" stroke-width="0.5"/></g></g></svg>