<svg version="1.1" xmlns="http://www.w3.org/2000/svg" xmlns:xlink="http://www.w3.org/1999/xlink" width="92.74991" height="58.55079" viewBox="0,0,92.74991,58.55079"><g transform="translate(-190.45272,-145.98693)"><g data-paper-data="{&quot;isPaintingLayer&quot;:true}" fill="#ffffff" fill-rule="nonzero" stroke="#000000" stroke-width="0.5" stroke-linecap="square" stroke-linejoin="miter" stroke-miterlimit="10" stroke-dasharray="" stroke-dashoffset="0" style="mix-blend-mode: normal"><path d="M238.80235,146.58181l-1.01164,19.05546l-7.35951,0.67442l-3.93414,-10.20511l-0.62118,10.40034h-6.32421l0.50878,-19.92511l7.0223,-0.33721l4.86296,10.11637l0.22481,-9.55435l6.63184,-0.22481zM257.12718,156.81058c0,0.85191 -0.0986,1.67423 -0.2958,2.46697c-0.1972,0.79274 -0.48117,1.53619 -0.85191,2.23034c-0.37074,0.6902 -0.82035,1.32321 -1.34885,1.89904c-0.5285,0.57583 -1.12404,1.0708 -1.78663,1.48492c-0.65865,0.41018 -1.37646,0.73161 -2.15343,0.96431c-0.77697,0.22875 -1.60127,0.34313 -2.47289,0.34313c-0.84402,0 -1.64859,-0.10846 -2.41373,-0.32538c-0.76119,-0.21692 -1.47506,-0.51864 -2.14159,-0.90515c-0.66259,-0.39046 -1.26405,-0.85979 -1.80438,-1.40801c-0.53638,-0.54822 -0.99586,-1.15559 -1.37843,-1.82213c-0.37862,-0.67048 -0.67442,-1.39026 -0.8874,-2.15934c-0.20903,-0.76908 -0.31355,-1.56971 -0.31355,-2.4019c0,-0.81641 0.0986,-1.61507 0.2958,-2.39598c0.1972,-0.78091 0.48117,-1.51844 0.85191,-2.21259c0.37074,-0.69415 0.81838,-1.3311 1.34293,-1.91087c0.52455,-0.57977 1.11221,-1.08066 1.76297,-1.50267c0.65076,-0.42201 1.35476,-0.74936 2.11201,-0.98206c0.76119,-0.23664 1.56183,-0.35496 2.4019,-0.35496c1.36068,0 2.5991,0.211 3.71525,0.63301c1.1201,0.42201 2.07652,1.02544 2.86926,1.8103c0.79274,0.78091 1.40604,1.7255 1.83988,2.83377c0.43778,1.10827 0.65668,2.34668 0.65668,3.71525zM250.88579,157.17738c0,-0.40229 -0.05916,-0.79274 -0.17748,-1.17137c-0.11438,-0.38257 -0.28397,-0.71978 -0.50878,-1.01164c-0.22481,-0.2958 -0.50483,-0.53441 -0.84007,-0.71584c-0.3313,-0.18537 -0.71189,-0.27805 -1.14179,-0.27805c-0.44173,0 -0.83613,0.08085 -1.1832,0.24256c-0.34313,0.15776 -0.63893,0.37468 -0.8874,0.65076c-0.24847,0.27608 -0.43976,0.59949 -0.57385,0.97023c-0.13015,0.37074 -0.19523,0.76119 -0.19523,1.17137c0,0.3944 0.05522,0.7888 0.16565,1.1832c0.11438,0.39046 0.28397,0.74542 0.50878,1.06488c0.22481,0.31946 0.50286,0.5778 0.83416,0.775c0.33524,0.1972 0.72175,0.2958 1.15954,0.2958c0.44173,0 0.8381,-0.08677 1.18912,-0.2603c0.35102,-0.17354 0.64879,-0.4082 0.89332,-0.704c0.24453,-0.2958 0.43187,-0.63499 0.56202,-1.01755c0.13015,-0.38651 0.19523,-0.78486 0.19523,-1.19503z"/><path d="M202.13582,177.62017c0,0.63793 -0.09527,1.20268 -0.28583,1.69425c-0.19055,0.49157 -0.45152,0.921 -0.78292,1.2883c-0.33139,0.3673 -0.72078,0.67936 -1.16816,0.93619c-0.44462,0.25407 -0.921,0.46119 -1.42914,0.62136c-0.50814,0.16017 -1.03423,0.27892 -1.57826,0.35625c-0.54404,0.07456 -1.07841,0.11461 -1.60312,0.12013v4.58567h-4.58567c0,-1.50232 0.00276,-2.99774 0.00828,-4.48625c0.00828,-1.48851 0.01933,-2.99083 0.03314,-4.50696c0.01381,-0.79811 0.01657,-1.5976 0.00828,-2.39846c-0.00552,-0.80087 0.01105,-1.60726 0.04971,-2.41918c0.83953,-0.25131 1.67906,-0.4391 2.5186,-0.56337c0.83953,-0.12427 1.7053,-0.18641 2.5973,-0.18641c0.50538,0 1.01075,0.04142 1.51613,0.12427c0.50538,0.08285 0.98866,0.21264 1.44985,0.38939c0.46395,0.17674 0.89338,0.39767 1.2883,0.66279c0.39767,0.26512 0.74011,0.58132 1.02732,0.94862c0.28997,0.3673 0.5178,0.78568 0.6835,1.25516c0.16846,0.46947 0.25269,0.99556 0.25269,1.57827zM197.7697,177.95571c0,-0.42529 -0.1298,-0.75806 -0.38939,-0.99832c-0.25959,-0.24026 -0.59651,-0.36039 -1.01075,-0.36039c-0.13808,0 -0.2803,0.01243 -0.42667,0.03728c-0.14636,0.02209 -0.28583,0.04971 -0.41838,0.08285l-0.11599,2.8707c0.09113,0.01381 0.1795,0.02071 0.26512,0.02071c0.08561,0 0.17398,0 0.26512,0c0.23474,0 0.46119,-0.03866 0.67936,-0.11599c0.22093,-0.08009 0.41701,-0.19331 0.58822,-0.33968c0.17122,-0.14913 0.30792,-0.32311 0.4101,-0.52195c0.10218,-0.2016 0.15327,-0.42667 0.15327,-0.67521zM214.44504,176.14547c0,0.48604 -0.02347,1.02042 -0.07042,1.60312c-0.04695,0.5827 -0.12289,1.18612 -0.22783,1.81024c-0.10494,0.62413 -0.24164,1.25654 -0.4101,1.89723c-0.1657,0.63793 -0.37282,1.25239 -0.62136,1.84338c-0.24855,0.58822 -0.53852,1.14055 -0.86991,1.65697c-0.33139,0.51366 -0.7125,0.96242 -1.14331,1.34629c-0.42805,0.38387 -0.90857,0.68488 -1.44156,0.90305c-0.53023,0.22093 -1.11984,0.33139 -1.76881,0.33139c-0.7622,0 -1.42361,-0.12289 -1.98422,-0.36867c-0.56061,-0.24578 -1.04113,-0.57718 -1.44156,-0.99418c-0.39767,-0.41701 -0.72492,-0.90167 -0.98175,-1.45399c-0.25683,-0.55509 -0.45705,-1.14193 -0.60065,-1.76053c-0.14361,-0.62136 -0.2444,-1.25515 -0.3024,-1.90137c-0.05523,-0.64622 -0.08285,-1.26758 -0.08285,-1.86409c0,-0.91686 0.04557,-1.83233 0.1367,-2.74643c0.0939,-0.91686 0.22645,-1.83095 0.39767,-2.74229l4.60223,0.17813c-0.17674,1.03008 -0.33001,2.06431 -0.45981,3.10268c-0.12704,1.03837 -0.19055,2.08226 -0.19055,3.13167c0,0.11323 0.00552,0.2803 0.01657,0.50123c0.01105,0.21817 0.029,0.46395 0.05385,0.73735c0.02762,0.27064 0.0649,0.54956 0.11185,0.83677c0.04971,0.28445 0.11737,0.54542 0.20298,0.78292c0.08561,0.23474 0.18917,0.42805 0.31068,0.57994c0.12151,0.14913 0.26373,0.22369 0.42667,0.22369c0.19055,0 0.36039,-0.08975 0.50952,-0.26926c0.15189,-0.18227 0.28445,-0.42391 0.39767,-0.72492c0.11599,-0.30102 0.21679,-0.6476 0.3024,-1.03975c0.08561,-0.39491 0.15741,-0.80501 0.21541,-1.2303c0.06076,-0.42805 0.10908,-0.85472 0.14499,-1.28001c0.0359,-0.42805 0.0649,-0.82572 0.08699,-1.19302c0.02485,-0.3673 0.04004,-0.69178 0.04557,-0.97347c0.00552,-0.28169 0.00828,-0.49157 0.00828,-0.62965c0,-0.5109 -0.00828,-1.02042 -0.02485,-1.52855c-0.01381,-0.50814 -0.03728,-1.01489 -0.07042,-1.52027h4.60224c0.08009,0.90581 0.12013,1.82405 0.12013,2.75471zM226.76254,177.59946c0,0.51366 -0.04419,0.97899 -0.13256,1.396c-0.08837,0.41424 -0.22783,0.79535 -0.41838,1.14331c-0.19055,0.34796 -0.43772,0.66969 -0.74149,0.96519c-0.30102,0.29549 -0.66417,0.57718 -1.08946,0.84506l2.34047,4.17142l-4.42825,0.86577l-1.51198,-4.19214l-1.22201,0.04142l-0.17812,4.09272h-4.22942c0.03314,-1.4968 0.06352,-2.98531 0.09113,-4.46554c0.03038,-1.48299 0.06628,-2.97288 0.1077,-4.46968c0.01105,-0.75392 0.02347,-1.50094 0.03728,-2.24105c0.01381,-0.74011 0.04004,-1.48851 0.07871,-2.2452c0.45843,-0.16846 0.90995,-0.30792 1.35457,-0.41838c0.44738,-0.11323 0.89615,-0.20022 1.34629,-0.26097c0.45014,-0.06352 0.90581,-0.10632 1.367,-0.12841c0.46395,-0.02485 0.93757,-0.03728 1.42085,-0.03728c0.7484,0 1.47194,0.10356 2.17063,0.31068c0.69869,0.20712 1.31729,0.5178 1.85581,0.93205c0.53852,0.41148 0.96933,0.92652 1.29244,1.54513c0.32587,0.61584 0.48881,1.33248 0.48881,2.14992zM222.355,177.91429c0,-0.2734 -0.03866,-0.52471 -0.11599,-0.75392c-0.07456,-0.23198 -0.18641,-0.43081 -0.33554,-0.59651c-0.14636,-0.16846 -0.33001,-0.29964 -0.55094,-0.39353c-0.21817,-0.09666 -0.475,-0.14498 -0.77049,-0.14498c-0.1298,0 -0.25821,0.00828 -0.38524,0.02485c-0.12427,0.01657 -0.2444,0.04142 -0.36039,0.07456l-0.15741,3.66191h0.23612c0.28169,0 0.56751,-0.0359 0.85748,-0.1077c0.29273,-0.07456 0.55509,-0.18641 0.78706,-0.33554c0.23474,-0.15189 0.42529,-0.3452 0.57165,-0.57994c0.14913,-0.2375 0.22369,-0.52056 0.22369,-0.8492zM237.08236,173.25405l-0.55094,4.15071c-0.19055,-0.05247 -0.3811,-0.08837 -0.57165,-0.1077c-0.19055,-0.01933 -0.3811,-0.029 -0.57165,-0.029c-0.48328,0 -0.94585,0.06352 -1.38771,0.19055c-0.4391,0.12704 -0.8271,0.32173 -1.16402,0.58408c-0.33692,0.26235 -0.60618,0.59099 -0.80777,0.9859c-0.19884,0.39215 -0.29825,0.85472 -0.29825,1.38771c0,0.33968 0.05385,0.63517 0.16156,0.88648c0.1077,0.24855 0.25959,0.45429 0.45567,0.61722c0.19884,0.16293 0.43219,0.28445 0.70007,0.36453c0.26788,0.07733 0.56337,0.11599 0.88648,0.11599c0.24302,0 0.49571,-0.02624 0.75807,-0.0787c0.26235,-0.05247 0.52056,-0.12013 0.77464,-0.20298c0.25683,-0.08561 0.50676,-0.18365 0.74978,-0.29411c0.24302,-0.11323 0.46533,-0.22921 0.66693,-0.34796l-0.39353,4.62295c-0.25407,0.13256 -0.53023,0.24993 -0.82849,0.35211c-0.29825,0.10218 -0.60479,0.19055 -0.91962,0.26512c-0.31482,0.07456 -0.62965,0.13256 -0.94447,0.17398c-0.31482,0.03866 -0.61722,0.05799 -0.90719,0.05799c-0.83401,0 -1.6114,-0.15465 -2.33218,-0.46395c-0.72078,-0.3093 -1.34767,-0.73183 -1.88066,-1.26758c-0.53023,-0.53852 -0.94861,-1.17369 -1.25515,-1.90552c-0.30378,-0.73183 -0.45567,-1.52027 -0.45567,-2.36532c0,-1.12122 0.16017,-2.17892 0.48052,-3.1731c0.32311,-0.99418 0.79535,-1.86409 1.41671,-2.60973c0.62413,-0.7484 1.39738,-1.33938 2.31976,-1.77296c0.92238,-0.43357 1.98284,-0.65036 3.18138,-0.65036c0.4529,0 0.91686,0.0359 1.39186,0.1077c0.47776,0.0718 0.91962,0.20712 1.32558,0.40596zM249.37812,187.08562l-4.91706,0.23612l-0.04142,-4.54424h-2.26176l-0.1367,4.30812h-4.40755l0.37282,-13.83156l4.68509,0.21541l-0.29825,7.06284h2.1872l0.01657,-7.59307l4.48625,0.11599zM262.71984,186.24056l-4.87978,0.62965l-0.58822,-2.22448h-2.2452l-0.49295,2.22448l-5.01648,-0.49295l3.91459,-13.10664l5.47215,-0.2734zM256.89559,181.63418l-0.74564,-3.42164l-0.72907,3.42164zM273.00031,181.84959c0,0.90029 -0.15603,1.68735 -0.46809,2.36118c-0.3093,0.67107 -0.73459,1.2303 -1.27587,1.67768c-0.54128,0.44462 -1.17507,0.77878 -1.90137,1.00247c-0.72354,0.22093 -1.50232,0.33139 -2.33633,0.33139c-0.32035,0 -0.67245,-0.04281 -1.05632,-0.12841c-0.38387,-0.08561 -0.77325,-0.19193 -1.16816,-0.31897c-0.39215,-0.12704 -0.77049,-0.26373 -1.13502,-0.4101c-0.36453,-0.14913 -0.68764,-0.28997 -0.96933,-0.42253l0.43496,-4.05129c0.55785,0.33416 1.17507,0.58822 1.85167,0.76221c0.67936,0.17398 1.34767,0.26097 2.00493,0.26097c0.12427,0 0.27478,-0.00414 0.45153,-0.01243c0.17674,-0.01105 0.3452,-0.04142 0.50538,-0.09113c0.16017,-0.04971 0.29549,-0.12289 0.40596,-0.21955c0.11323,-0.09942 0.16984,-0.24164 0.16984,-0.42667c0,-0.12427 -0.04004,-0.23059 -0.12013,-0.31897c-0.07733,-0.08837 -0.17812,-0.16017 -0.3024,-0.21541c-0.12427,-0.05523 -0.26512,-0.09804 -0.42253,-0.12841c-0.15741,-0.03038 -0.31206,-0.05109 -0.46395,-0.06214c-0.14913,-0.01381 -0.28997,-0.02071 -0.42253,-0.02071c-0.1298,0 -0.23474,0 -0.31482,0c-0.56337,0 -1.07703,-0.09804 -1.54098,-0.29411c-0.46119,-0.19884 -0.85748,-0.47362 -1.18888,-0.82434c-0.33139,-0.35073 -0.58961,-0.76635 -0.77463,-1.24687c-0.18227,-0.48328 -0.2734,-1.00661 -0.2734,-1.56998c0,-0.77325 0.15603,-1.46642 0.4681,-2.0795c0.31206,-0.61308 0.72769,-1.13502 1.24687,-1.56584c0.52195,-0.43081 1.12122,-0.76083 1.79781,-0.99004c0.6766,-0.22921 1.37529,-0.34382 2.09607,-0.34382c0.32035,0 0.65036,0.01243 0.99004,0.03728c0.34244,0.02209 0.68212,0.06352 1.01904,0.12427c0.33968,0.05799 0.66969,0.13256 0.99004,0.22369c0.32311,0.09113 0.62827,0.20574 0.91548,0.34382l-0.37282,3.9933c-0.44738,-0.14913 -0.91547,-0.27478 -1.40428,-0.37696c-0.48604,-0.10218 -0.96242,-0.15327 -1.42914,-0.15327c-0.08561,0 -0.19607,0.00138 -0.33139,0.00414c-0.13256,0.00276 -0.2734,0.01243 -0.42253,0.029c-0.14636,0.01657 -0.29549,0.04142 -0.44738,0.07456c-0.14913,0.03314 -0.28307,0.07733 -0.40181,0.13256c-0.11875,0.05523 -0.21402,0.1298 -0.28583,0.22369c-0.0718,0.09113 -0.10494,0.19884 -0.09942,0.32311c0.00828,0.14361 0.06214,0.25959 0.16156,0.34796c0.10218,0.08837 0.23336,0.15741 0.39353,0.20712c0.16293,0.04971 0.34106,0.08423 0.53437,0.10356c0.19331,0.01933 0.38387,0.03176 0.57165,0.03728c0.19055,0.00276 0.3673,0.00276 0.53023,0c0.1657,-0.00552 0.30102,-0.00138 0.40596,0.01243c0.52471,0.03314 0.99694,0.14499 1.41671,0.33554c0.41977,0.19055 0.77601,0.44324 1.06875,0.75807c0.29273,0.31482 0.51504,0.69041 0.66693,1.12674c0.15465,0.43357 0.23198,0.91272 0.23198,1.43742zM282.93644,172.89781c-0.03866,0.61584 -0.07456,1.22616 -0.1077,1.83095c-0.03314,0.60203 -0.07594,1.21235 -0.12841,1.83095l-4.17142,0.21541l-0.09527,1.23859h2.9287l-0.21541,3.04883l-2.94941,0.09942l-0.09942,1.43742h2.43989h1.73153c-0.03866,0.72078 -0.08009,1.43742 -0.12427,2.14992c-0.04142,0.7125 -0.0787,1.42499 -0.11184,2.13749l-8.47955,0.19884l0.31482,-14.18781z"/><path d="M205.16038,203.36279l-4.17461,0.53866l-0.50322,-1.90303h-1.92075l-0.42171,1.90303l-4.29156,-0.42171l3.3489,-11.21262l4.68137,-0.23389zM200.17779,199.42207l-0.63789,-2.92719l-0.62371,2.92719zM214.70563,192.28484l-3.07957,11.71584l-4.17461,0.23744l-3.78833,-11.83633l3.99033,-0.36856l1.61598,6.8998l1.56282,-6.8998l3.87339,0.25161zM224.72044,203.36279l-4.17461,0.53866l-0.50322,-1.90303h-1.92075l-0.42171,1.90303l-4.29156,-0.42171l3.3489,-11.21262l4.68137,-0.23389zM219.73785,199.42207l-0.63789,-2.92719l-0.62371,2.92719zM229.44346,192.23523l-0.92848,11.46423l-3.5509,0.18428v-11.41461zM237.4219,199.28741l-0.35438,3.73872l-7.08762,0.55283c0.03544,-1.95618 0.07324,-3.90173 0.1134,-5.83665c0.04253,-1.93728 0.0945,-3.8852 0.15593,-5.84374h4.37661c-0.12758,1.22852 -0.25043,2.45586 -0.36856,3.68202c-0.11813,1.22616 -0.202,2.46177 -0.25161,3.70683c0.26224,0.01181 0.52212,0.01772 0.77964,0.01772c0.25988,0 0.52094,0 0.78318,0c0.31422,0 0.62253,-0.00236 0.92494,-0.00709c0.30477,-0.00709 0.61426,-0.01063 0.92848,-0.01063zM248.42987,203.36279l-4.17461,0.53866l-0.50322,-1.90303h-1.92075l-0.42171,1.90303l-4.29156,-0.42171l3.3489,-11.21262l4.68137,-0.23389zM243.44727,199.42207l-0.63789,-2.92719l-0.62371,2.92719zM258.40481,201.08766c0,0.46778 -0.08623,0.8706 -0.2587,1.20844c-0.1701,0.33548 -0.39809,0.62135 -0.68395,0.8576c-0.28587,0.23389 -0.61544,0.42526 -0.98872,0.5741c-0.37328,0.14884 -0.76192,0.26579 -1.16591,0.35084c-0.40399,0.08269 -0.81035,0.13821 -1.21907,0.16656c-0.40636,0.02835 -0.78554,0.04253 -1.13756,0.04253c-0.34966,0 -0.71113,-0.01299 -1.08441,-0.03898c-0.37092,-0.02363 -0.74184,-0.06733 -1.11276,-0.13112c-0.37092,-0.06143 -0.73593,-0.14412 -1.09504,-0.24807c-0.35911,-0.10395 -0.69813,-0.23389 -1.01707,-0.38982l-0.01772,-10.84051c0.31422,-0.12994 0.64734,-0.24689 0.99935,-0.35084c0.35438,-0.10395 0.71467,-0.19018 1.08086,-0.2587c0.36856,-0.07088 0.73475,-0.12403 1.09858,-0.15947c0.36619,-0.0378 0.72057,-0.0567 1.06314,-0.0567c0.39927,0 0.80208,0.02599 1.20844,0.07796c0.40636,0.04961 0.79736,0.13348 1.173,0.25161c0.37564,0.11813 0.72648,0.27169 1.05251,0.4607c0.32603,0.18664 0.61072,0.41817 0.85406,0.69459c0.24334,0.27405 0.43353,0.593 0.57055,0.95683c0.13939,0.36383 0.20909,0.78436 0.20909,1.2616c0,0.31422 -0.04489,0.60954 -0.13466,0.88595c-0.08978,0.27405 -0.21972,0.52094 -0.38982,0.74066c-0.16774,0.21735 -0.3721,0.40399 -0.61308,0.55992c-0.24098,0.15356 -0.51267,0.26697 -0.81508,0.34021c0.36383,0.0945 0.69577,0.23507 0.99581,0.42171c0.30004,0.18428 0.5552,0.40872 0.76546,0.67332c0.21027,0.26224 0.37328,0.55874 0.48905,0.8895c0.11577,0.33075 0.17365,0.68396 0.17365,1.0596zM254.12743,196.29289c0,-0.16302 -0.03426,-0.3024 -0.10277,-0.41817c-0.06615,-0.11577 -0.14884,-0.20908 -0.24807,-0.27996c-0.09686,-0.07324 -0.20318,-0.1264 -0.31894,-0.15947c-0.1134,-0.03544 -0.21499,-0.05316 -0.30477,-0.05316c-0.1134,0 -0.22326,0.01772 -0.32957,0.05316c-0.10631,0.03307 -0.21027,0.07206 -0.31186,0.11695l-0.04961,1.86759c0.12994,0 0.28941,-0.01063 0.47842,-0.03189c0.19137,-0.02363 0.37564,-0.07324 0.55283,-0.14884c0.17719,-0.0756 0.32721,-0.18782 0.45007,-0.33666c0.12285,-0.14884 0.18428,-0.35202 0.18428,-0.60954zM252.93316,199.0358c-0.16302,0 -0.32012,0.01654 -0.47133,0.04961l-0.03544,1.92075c0.08505,0.01654 0.16774,0.0319 0.24807,0.04607c0.08269,0.01418 0.16302,0.02126 0.24098,0.02126c0.11813,0 0.24689,-0.01299 0.38628,-0.03898c0.14175,-0.02599 0.27405,-0.07678 0.39691,-0.15238c0.12285,-0.0756 0.22444,-0.17719 0.30477,-0.30477c0.08269,-0.12994 0.12403,-0.30122 0.12403,-0.51385c0,-0.21499 -0.04134,-0.38982 -0.12403,-0.52448c-0.08033,-0.13466 -0.17955,-0.2398 -0.29768,-0.3154c-0.11577,-0.0756 -0.24452,-0.12521 -0.38627,-0.14884c-0.13939,-0.02599 -0.26815,-0.03898 -0.38627,-0.03898zM266.24859,199.28741l-0.35438,3.73872l-7.08762,0.55283c0.03544,-1.95618 0.07324,-3.90173 0.1134,-5.83665c0.04253,-1.93728 0.0945,-3.8852 0.15593,-5.84374h4.37661c-0.12758,1.22852 -0.25043,2.45586 -0.36856,3.68202c-0.11813,1.22616 -0.202,2.46177 -0.25161,3.70683c0.26224,0.01181 0.52212,0.01772 0.77964,0.01772c0.25988,0 0.52094,0 0.78318,0c0.31422,0 0.62253,-0.00236 0.92494,-0.00709c0.30477,-0.00709 0.61426,-0.01063 0.92848,-0.01063zM274.61287,191.94818c-0.03307,0.52685 -0.06379,1.04897 -0.09214,1.56636c-0.02835,0.51503 -0.06497,1.03716 -0.10986,1.56636l-3.56862,0.18428l-0.08151,1.0596h2.50548l-0.18428,2.60824l-2.52319,0.08505l-0.08505,1.2297h2.08731h1.48131c-0.03307,0.61662 -0.06851,1.2297 -0.10631,1.83924c-0.03544,0.60954 -0.06733,1.21907 -0.09568,1.82861l-7.25418,0.1701l0.26933,-12.13755z"/></g></g></svg>