<svg version="1.1" xmlns="http://www.w3.org/2000/svg" xmlns:xlink="http://www.w3.org/1999/xlink" width="92.47357" height="93.70488" viewBox="0,0,92.47357,93.70488"><g transform="translate(-193.76322,-133.14753)"><g data-paper-data="{&quot;isPaintingLayer&quot;:true}" fill="#ffffff" fill-rule="nonzero" stroke="#000000" stroke-width="0" stroke-linecap="butt" stroke-linejoin="miter" stroke-miterlimit="10" stroke-dasharray="" stroke-dashoffset="0" style="mix-blend-mode: normal"><path d="M255.41393,163.47529c9.49519,8.73977 30.82287,15.87981 30.82287,15.87981c0,0 -13.2253,6.89953 -19.23667,19.70337c-5.25356,11.18949 -0.59444,27.79394 -0.59444,27.79394c0,0 -13.86055,-15.5835 -26.02139,-15.05162c-12.79505,0.55957 -24.0211,9.99568 -24.0211,9.99568c0,0 6.17925,-14.72256 -0.57743,-28.3885c-8.0802,-16.34285 -22.02254,-21.54354 -22.02254,-21.54354c0,0 20.50399,-5.05721 27.28894,-12.328c7.69236,-8.2431 15.44157,-26.3889 15.44157,-26.3889c0,0 8.90635,21.1105 18.92027,30.32785zM219.98254,176.83158c0,0 6.29553,6.3137 8.15941,9.65544c1.57598,2.82552 -0.00821,11.93569 -0.00821,11.93569c0,0 9.50549,-6.64869 13.04099,-6.49909c3.62899,0.15354 11.54516,7.66598 11.54516,7.66598c0,0 -0.83344,-8.89504 0.20599,-11.3863c1.09859,-2.6331 8.27477,-7.09569 8.27477,-7.09569c0,0 -11.48079,-3.21042 -14.6263,-6.04126c-3.7155,-3.34382 -8.29964,-13.7686 -8.29964,-13.7686c0,0 -3.8651,9.48667 -6.84928,11.95721c-2.84993,2.35943 -11.44288,3.57665 -11.44288,3.57665z"/></g></g></svg>