<svg version="1.1" xmlns="http://www.w3.org/2000/svg" xmlns:xlink="http://www.w3.org/1999/xlink" width="82.10594" height="100.05524" viewBox="0,0,82.10594,100.05524"><g transform="translate(-198.94703,-129.97238)"><g data-paper-data="{&quot;isPaintingLayer&quot;:true}" fill-rule="nonzero" stroke="none" stroke-width="0.5" stroke-linecap="butt" stroke-linejoin="miter" stroke-miterlimit="10" stroke-dasharray="" stroke-dashoffset="0" style="mix-blend-mode: normal"><path d="M247.75873,207.82137c-0.07199,-0.10235 -0.12904,-0.23389 -0.16068,-0.40262c-0.1705,-0.90931 0.73881,-1.07981 0.73881,-1.07981l0.75143,-0.13363c2.75554,-0.8818 6.60286,-3.15892 9.24636,-3.15562c1.85028,1.41256 3.78707,2.88353 5.11742,4.83508c0.69536,1.02008 1.86281,2.6238 0.80654,3.99555c-0.41443,0.53823 -1.66566,-0.31247 -2.02033,0.26687c-0.44728,0.7306 -0.77582,1.773 -1.59833,2.01246c-0.4522,0.13164 -1.1068,-0.73472 -1.5463,-0.13079c-0.44194,0.60726 -0.49363,1.60981 -1.17705,1.92125c-0.93982,0.42829 -2.34102,-1.26119 -3.05528,-0.51519c-0.16328,0.17053 0.21715,0.52374 0.06611,0.70521c-0.05,0.06006 -0.10254,0.11746 -0.15724,0.17262l0.03248,0.02664l-0.6936,0.84593c-0.17198,0.21342 -0.43665,0.34865 -0.73197,0.34509c-0.46434,-0.0056 -0.84466,-0.35231 -0.90551,-0.79902l-0.14592,-0.94569c-0.93666,-2.41161 -1.82078,-6.00108 -4.13577,-7.40351c0,0 -0.33017,-0.20353 -0.43114,-0.56081z" data-paper-data="{&quot;index&quot;:null}" fill="#9f4d1e"/><path d="M220.74026,213.29051c-0.59202,0.78463 -4.27562,1.57966 -5.22579,0.88845c-1.02101,-0.74274 0.00119,-1.59636 -0.69324,-2.35117c-0.63657,-0.69191 -1.11577,-1.12067 -1.63216,-1.94131c-0.05913,-0.04511 -0.09236,-0.07916 -0.09236,-0.07916l-0.39462,-0.45091c-0.20104,-0.47528 -0.65111,-0.912 -0.60312,-1.42581c0.11653,-1.24761 0.52302,-6.10967 1.86531,-6.62447c0.1006,-0.03859 2.66469,2.0929 2.74622,2.08045c1.8629,-0.28445 3.55609,1.22705 5.24949,1.71898c1.00626,0.29232 1.84372,0.08841 2.37899,0.58725c0.04222,-0.01432 0.08493,-0.0285 0.12812,-0.04254l0.00056,-0.04617l1.25466,0.01511c0.51092,0.00615 0.9201,0.42531 0.91395,0.93622c-0.00615,0.51092 -0.42531,0.92011 -0.93622,0.91395l-0.89017,-0.01072c-1.50604,0.50369 -1.17948,1.84097 -1.56343,2.76442c-0.44364,1.06698 -1.52813,1.77115 -2.50617,3.06742z" data-paper-data="{&quot;index&quot;:null}" fill="#9f4d1e"/><path d="M222.12307,215.85004l0.33879,-0.34756c-0.49581,-2.64421 -0.49877,-6.02912 2.77958,-6.96105c2.12132,-0.60303 4.55856,1.09072 6.44649,1.75919c2.29918,0.81407 4.97221,0.49016 7.31574,0.05161c2.95715,-0.38194 6.37305,-2.93869 9.3923,-1.6884c5.53154,2.29064 6.16223,10.02179 0.48522,12.24521c-2.05737,1.20097 -5.34445,2.89582 -7.859,2.19935c-2.65471,-0.73529 -2.30925,-4.51052 -3.57003,-6.26682c-0.85959,-1.19742 -2.10315,0.34303 -2.30043,1.09025c-0.17714,0.67094 -0.36554,1.34254 -0.62923,1.98441c-1.22814,2.37154 -3.85958,3.28036 -6.73558,2.84346c-0.87854,-0.13345 -2.35085,0.57934 -3.08857,-0.06308c-1.54829,-1.34827 -2.7844,-4.48814 -2.57525,-6.84657z" data-paper-data="{&quot;index&quot;:null}" fill="#d48631"/><path d="M253.34052,218.71599c-0.57918,-0.32392 -0.39475,-1.02561 -0.39475,-1.02561l0.10118,-0.27633c0.19615,-1.86091 0.7108,-2.70323 2.7068,-2.13878c0.95482,-0.62576 1.7648,-0.30947 2.60489,-0.50706c0.62573,-0.14717 0.12746,-1.45819 0.66549,-1.80994c0.59981,-0.39215 1.49698,0.44777 2.14516,0.14214c0.83698,-0.39464 -0.00056,-2.42736 1.83708,-2.86658c1.26868,-0.30324 2.82947,1.006 3.53208,1.85157c1.93421,2.32775 3.38854,6.46101 1.8,9.21147c-1.42805,1.39407 -6.16165,4.44426 -8.28705,3.87458c-1.79691,-0.48163 -1.6487,-2.52595 -2.97441,-3.21502c-0.57974,-0.30134 -1.3367,0.49375 -1.94384,0.25232c-1.20972,-0.48108 -1.60369,-2.08702 -1.79261,-3.49273z" data-paper-data="{&quot;index&quot;:null}" fill="#d48631"/><path d="M212.52237,208.56854l0.17991,0.24547c0.25941,0.38242 0.97865,-0.10767 1.38115,0.11933c1.23607,0.69703 0.68598,1.31882 1.01143,2.20012c0.1349,0.36531 0.61234,-0.59946 1.00175,-0.60105c0.57841,-0.00236 1.14934,0.28522 1.62034,0.62096c0.32778,0.23367 0.27064,1.24002 0.61839,1.03728c0.10802,-0.06298 0.21461,-0.12841 0.32026,-0.19543l-0.13246,-0.11634l0.7594,-0.86469c0.17211,-0.19834 0.42709,-0.32252 0.71024,-0.3191c0.51092,0.00615 0.9201,0.42531 0.91395,0.93623c-0.00165,0.13668 -0.03284,0.26609 -0.08746,0.38221l-0.37868,0.85503c-0.96058,2.1665 -2.43167,4.03837 -3.32922,6.21439c-0.40157,0.97357 -0.93751,2.84044 -1.98125,3.34019c-1.25796,0.60231 -2.49423,-0.4295 -3.65299,-0.69986c-1.55419,-0.01274 -3.12661,0.82776 -4.5856,0.10103c-1.96112,-0.97685 -2.50198,-3.8982 -2.04603,-5.81646c0.78815,-3.31595 4.10258,-5.55312 6.02143,-8.17227c0,0 0.54676,-0.7463 1.29307,-0.19955c0.41391,0.30325 0.43009,0.66788 0.36236,0.93251z" data-paper-data="{&quot;index&quot;:null}" fill="#d48631"/><path d="M231.38644,151.89819c0.23387,-1.30559 0.09547,-4.92265 1.5598,-5.62896c1.61314,-0.77807 2.03997,0.97167 3.04991,0.83625c0.49772,-0.06675 0.29683,-4.68543 0.33137,-4.81332c0.15235,-0.56402 0.38318,-1.21031 0.88186,-1.51471c0.29102,-0.17764 0.6001,0.42429 0.94035,0.4024c0.17,-0.01094 -0.25922,-0.277 -0.24777,-0.44695c0.0281,-0.41688 0.25973,-0.79511 0.35884,-1.20102c0.24066,-0.98552 0.47842,-1.6563 0.86437,-2.32659l-0.10356,-0.04289l0.34645,-0.83677c0.13541,-0.34975 0.47709,-0.59587 0.87417,-0.59109c0.34288,0.00413 0.63995,0.19426 0.79641,0.47333l0.49759,0.8524l-0.01645,0.0096l0.04619,0.04556c0.77831,1.88542 2.14376,3.54868 2.5924,5.57777c0.10748,0.48617 -0.23568,1.29095 0.22638,1.47646c0.19375,0.07779 0.62705,-0.00671 1.04268,-0.06851c0.40768,-0.06063 0.94798,-1.55155 1.07879,-1.39402c0.08371,0.10081 0.69777,4.77311 0.80265,5.20351c0.58371,2.39548 -0.50698,3.44364 -0.5073,5.88027c0.04859,0.03848 0.07558,0.06612 0.07558,0.06612l0.34019,0.34849c2.49238,2.56098 6.3562,3.26063 9.1552,5.55208c2.38651,1.96005 4.47132,3.73245 6.29581,6.28396c0.74831,1.0465 1.3448,3.12217 2.16214,3.95535c0.56833,0.57934 3.81026,0.23541 4.62393,0.40995c2.51811,0.54015 4.2269,2.19178 5.95619,3.96561c2.14634,2.5642 4.9448,6.50692 3.68735,10.10869c-0.30228,0.86583 -0.83075,1.27361 -1.4456,1.87698c-3.78593,3.71521 -7.56654,0.22361 -8.71471,-3.90368c-0.33533,-0.86622 -0.52947,-1.76355 -1.05893,-2.53889c-0.94045,-1.37718 -4.09415,-3.06283 -5.3293,-0.96689c-1.66249,2.82111 2.00479,5.58213 4.13843,6.45719c1.35665,0.60326 3.14328,1.33428 4.00265,2.63214c1.88121,2.8411 -0.18243,8.14039 -2.27447,10.39727c-2.2959,2.47681 -19.09391,13.36059 -21.88107,10.60369c-0.15149,-0.43375 -1.51772,-1.37921 -1.20859,-2.02981c2.18019,-4.58825 15.76773,-13.41227 16.31597,-16.40299c0.24629,-1.34353 0.20014,-3.68465 -1.21745,-4.03703c-1.45098,-0.36069 -3.75438,0.15174 -5.29913,0.13315c-5.19233,-0.06251 -9.21966,0.80194 -13.20114,4.24697c-1.21557,1.05178 -1.92917,2.85057 -2.98022,4.06293c-0.40451,0.46658 -0.70842,1.31671 -1.32552,1.2942c-0.93669,-0.03418 -1.41991,-1.62527 -1.69202,-2.32389c-0.58278,-1.63198 -3.13811,-0.90033 -4.44712,-1.94112c-2.92921,-2.32903 -5.64712,-5.44887 -8.81358,-6.45998c-2.15268,-0.68739 -3.58353,-1.44551 -5.71104,-0.6252c-0.81597,0.39484 -2.90724,1.18735 -3.39322,1.994c-1.13264,1.87999 0.05242,6.66131 0.19084,8.75607c0.07848,1.18755 2.16134,5.20292 1.00994,6.0842c-1.03574,0.79275 -6.24974,-0.39835 -7.37386,-0.8609c-3.70079,-2.27761 -7.57069,-9.18995 -5.45717,-13.59668c0.92307,-1.92464 3.20251,-2.93566 5.22799,-3.22178c1.188,-0.16781 2.18196,-0.54356 1.95016,-0.76419c0.7053,-3.99705 0.41637,-6.86926 0.79137,-10.96513c0.17297,-1.88925 0.81678,-3.94433 1.31027,-5.78084c0.51137,-1.9031 1.26378,-3.18974 2.25414,-4.7962c2.21377,-2.18596 5.18136,-4.06524 8.0681,-5.3432c2.99487,-1.32584 7.08663,-1.67044 9.66073,-3.72253c0,0 0.01682,-0.01313 0.04737,-0.03285c0.04823,-0.26932 0.09646,-0.53865 0.14468,-0.80798z" data-paper-data="{&quot;index&quot;:null}" fill="#a25121"/><path d="M224.22992,186.38898c3.3013,1.03273 6.31391,3.03564 9.16876,4.92959c0.93806,0.62232 2.00212,1.4962 2.57485,2.46131c0.25017,0.42155 0.08532,0.58234 0.53529,0.7768c0.23336,0.10084 1.77869,-1.81024 1.95978,-2.02279c5.68321,-5.55622 12.89935,-10.38719 21.17989,-7.51494c3.43771,1.57879 2.82733,4.5117 2.24733,7.5807c-1.00938,5.34102 -2.54035,9.92311 -8.00709,11.89979c-2.46015,0.88522 -5.09118,1.47094 -7.51501,2.40186c-1.13793,0.43703 -1.5091,1.40858 -2.85785,1.65828c-3.46986,0.64246 -7.96009,-0.45431 -11.53198,-0.5016c-2.37843,0.2005 -3.44715,-0.96574 -5.61521,-1.46669c-4.29738,-0.99298 -10.10181,-1.64061 -12.79806,-5.67651c-0.87192,-1.30514 -1.00064,-2.9001 -1.35257,-4.39582c-0.24777,-2.49069 -0.86267,-5.7372 0.01671,-8.1424c1.8906,-5.17106 8.057,-4.79756 11.69719,-2.31231c0,0 0.17298,0.11834 0.29794,0.32472z" data-paper-data="{&quot;index&quot;:null}" fill="#de8f31"/><path d="M250.62027,220.4786c-2.13809,2.58278 -6.76761,3.76747 -10.01706,2.58398c-1.76334,-0.64222 -2.44739,-2.48047 -2.78375,-4.15627c-0.09035,-0.45012 -0.25965,-1.21918 -0.28025,-1.81237c-0.46478,0.49158 -1.14222,0.99541 -1.59181,0.83634c-0.19128,0.9757 -0.48116,2.18915 -0.92626,2.94049c-2.18575,3.68972 -9.62111,3.78174 -11.90625,0.41336c-0.87949,-1.29642 -0.97258,-3.15839 -0.95774,-4.65343c0,0 0.01115,-0.92509 0.93623,-0.91395c0.92509,0.01114 0.91395,0.93623 0.91395,0.93623c-0.01623,1.12336 -0.00917,2.65235 0.66443,3.63125c1.49823,2.17731 7.44357,2.21368 8.76607,-0.37091c0.37244,-0.72787 0.62092,-1.86356 0.7654,-2.67816l0.01383,-1.14801v0v0c0.00615,-0.51092 0.42531,-0.9201 0.93622,-0.91395c0.25545,0.00308 0.48547,0.1094 0.65087,0.27883l0.4409,0.45164c0.0707,-0.01615 0.13769,-0.04696 0.19913,-0.09581c0.64709,-0.51452 1.10742,-1.80007 2.37534,-1.19404c1.08868,0.52034 0.74913,4.61523 1.37569,5.72862c1.55721,2.76716 7.45672,0.85996 8.99424,-1.03701c0.23301,-0.28418 0.46602,-0.56835 0.69903,-0.85253l0.30242,-0.44817c0,0 0.34197,-0.49982 0.87694,-0.41398c-0.05893,-0.65798 -0.13114,-1.29321 -0.26732,-1.84276c-0.528,-2.1307 -1.66761,-3.59717 -2.93782,-5.33395c0,0 -0.95575,-1.30682 0.35106,-2.26257c1.30682,-0.95575 2.26257,0.35106 2.26257,0.35106c1.51796,2.07554 2.82162,3.90946 3.46353,6.45208c0.42253,1.67367 0.32181,3.55748 0.74494,5.18137c0.32877,1.26173 2.68996,1.32406 3.50194,1.76071c0.97682,0.52528 1.38348,1.78143 2.30318,2.40133c0.52515,0.35397 1.23085,-0.37002 1.75751,-0.72175c1.78577,-1.19261 3.61734,-2.48005 5.36617,-3.75453c1.79122,-1.55544 0.30903,-2.73068 -0.532,-4.66266c-1.65336,-3.79804 -4.44385,-6.72267 -7.51022,-9.47346l-1.31364,-1.01018c-0.39822,-0.29943 -0.65336,-0.77802 -0.64691,-1.3144c0.01077,-0.8941 0.7443,-1.61018 1.6384,-1.59942c0.12027,0.00145 0.23732,0.01598 0.34982,0.04221l1.68482,0.35811l-0.03879,0.18249c0.37092,-0.04221 0.74029,-0.09462 1.10684,-0.1658c2.62253,-0.50921 5.49438,-4.02386 6.74699,-6.18674c1.93083,-3.33396 2.07261,-6.99476 -1.24762,-8.15348c-1.90235,0.06322 -3.91391,0.1189 -5.13981,-1.725c-1.2588,-1.89338 -1.24659,-7.86921 0.94261,-9.01206c0.84225,-0.4397 1.92261,-0.11726 2.84875,0.09485c2.57088,0.58881 3.31153,2.50044 3.9992,4.74061c0.27532,0.89689 0.31837,2.00594 0.84666,2.75853c0.30296,0.09784 0.66491,0.29432 0.88104,0.68876c1.8461,0.82486 5.51017,1.56546 5.58561,-1.15594c-0.33546,-4.28661 -2.44262,-9.75302 -6.28691,-12.10296c-1.97718,-1.20861 -4.51693,-0.71297 -6.53589,-1.71877c-2.23781,-1.11482 -2.27657,-2.7291 -3.53883,-4.55379c-1.70419,-2.46356 -3.83971,-4.25512 -5.90117,-6.35923c-2.09008,-1.93015 -6.34842,-1.92333 -8.02987,-4.05547c-1.45338,-1.84294 -0.92564,-5.76536 -1.11271,-7.92544c-0.09099,-1.05061 -0.82625,-3.92339 -0.89224,-4.97585c-0.01269,-0.20233 0.64679,1.1911 0.4534,1.25194c-0.67374,0.21195 -1.13714,1.41873 -1.78608,1.13998c-0.96396,-0.41408 -1.18692,-1.73287 -1.71051,-2.64199c-0.87007,-1.51071 -1.66406,-3.16711 -2.43614,-4.79993c-0.04808,1.49205 -0.19549,2.9554 -0.7276,3.9199c-0.27315,0.49514 -1.07679,0.46976 -1.43185,0.90987c-0.50909,0.63103 -0.09941,3.50789 -0.10828,4.24379c0,0 -0.00464,0.3854 -0.19744,0.77786c0.10599,0.41786 0.06069,0.94777 -0.47608,1.47177c-1.15852,1.13096 -2.28947,-0.02757 -2.28947,-0.02757l-0.49886,-0.66551c-0.11885,-0.29181 -0.28178,-0.56061 -0.45939,-0.82196c-0.04843,1.81717 -0.64688,4.01534 -0.81071,5.4759c0,0 -0.11951,1.06543 -1.03103,1.36504c-0.36203,0.39882 -0.86563,0.52968 -0.86563,0.52968c-4.08867,1.06031 -7.48585,2.07914 -11.35024,3.74124c-1.74018,0.74846 -4.05603,1.75747 -5.29187,3.26241c-2.24322,2.73166 -3.68744,7.06655 -4.42322,10.45335c-0.02524,2.97221 0.36351,5.99449 0.07211,8.96743c-0.09785,0.99842 -0.52924,2.21529 -1.19451,2.96617c-1.39189,1.571 -3.96592,0.17774 -5.63492,1.97622c-1.11832,1.20507 -0.95909,3.95483 -0.58135,5.40083c1.01234,3.87528 2.33999,6.25109 5.52081,8.72843c2.04115,0.92238 3.06373,1.2511 5.25107,0.59743l1.32684,-0.0523c0,0 1.61891,0.01949 1.59942,1.6384c-0.0065,0.54066 -0.19141,0.8986 -0.43483,1.13554c0.23043,0.05874 0.47467,0.1845 0.72428,0.40826c1.20552,1.08074 0.12479,2.28623 0.12479,2.28623c-3.05651,3.39678 -9.04226,6.62188 -10.09838,11.35238c-0.89503,4.00905 2.89464,2.29801 5.15851,2.62246c0.9021,0.12928 1.80962,1.24967 2.61001,0.8139c0.40871,-0.22251 0.53476,-0.76173 0.80213,-1.14258c3.24796,-3.14596 5.18386,-7.54282 7.93749,-11.12973l0.54941,-1.12353c0,0 0.74143,-1.43927 2.1807,-0.69783c1.43927,0.74143 0.69784,2.1807 0.69784,2.1807l-0.86109,1.61455c-2.84888,3.69798 -4.83995,8.12661 -8.17535,11.40545c-2.59427,2.50744 -3.02042,1.88719 -6.24987,1.27691c-1.03483,-0.19555 -2.07209,0.59371 -3.12053,0.49428c-3.72267,-0.35303 -5.38237,-3.65832 -4.69778,-6.98197c1.1493,-5.57972 7.31818,-8.88368 10.85586,-12.84642c0,0 0.04191,-0.04674 0.11841,-0.11356l-0.15482,-0.02863c-3.09483,0.85976 -4.96175,0.38776 -7.81694,-0.93744c-4.80882,-3.66255 -10.79854,-13.16944 -5.68118,-19.05922c0.78396,-0.90228 2.61082,-1.87809 3.75912,-2.17759c0.64097,-0.16718 1.31661,-0.23572 1.97773,-0.19433c0.25553,0.01601 0.5471,0.58057 0.67817,0.36063c0.15521,-0.26047 -0.36602,-0.51241 -0.40884,-0.81258c-0.08916,-0.62499 0.01519,-1.26254 0.0228,-1.89382c0.02979,-2.47442 -0.11183,-4.9223 -0.0753,-7.39246c0.82769,-3.9624 2.47887,-8.9863 5.14734,-12.16058c4.15195,-4.93895 11.96481,-6.44579 17.8904,-7.96125c0.17439,-2.0277 0.18511,-4.1653 0.51613,-6.1246c0.17608,-1.04229 -0.17367,-2.61701 0.77957,-3.07384c1.25573,-0.60182 2.38966,-0.2432 3.34339,0.51269c0.07275,-0.91598 0.26088,-1.79444 0.70231,-2.51364c0.27076,-0.44115 1.03453,-0.36335 1.34353,-0.77862c0.56422,-0.7583 -0.09062,-1.89172 -0.03584,-2.83533c0.02717,-0.46816 0.33245,-3.13883 0.39529,-3.69898l0.1909,-1.70179c0.08249,-0.82612 0.78461,-1.4664 1.63043,-1.4562c0.53638,0.00646 1.0087,0.27303 1.29845,0.67836l1.00528,1.37456l-0.31237,0.22847c1.1996,1.37449 2.01402,2.87 2.98251,4.86387c0.61719,1.27061 1.40655,2.49818 1.70836,3.87812c0.06409,0.29296 -0.65022,0.93618 -0.37464,0.81791c0.55822,-0.23959 0.76687,-1.42885 1.34191,-1.23305c1.11065,0.37819 1.84661,1.52011 2.45222,2.52499c1.21337,2.01327 0.59724,5.43354 0.89284,7.67125c0.1173,0.88802 -0.19536,1.93449 0.31835,2.66827c0.50913,0.72723 1.73221,0.41237 2.56131,0.72967c1.99933,0.76517 3.54991,1.5698 5.15687,2.98085c3.09575,3.18348 5.32887,6.10605 7.7915,9.7377c0.50566,0.7457 1.37685,0.67233 2.14071,0.82455c1.8837,0.37541 3.79621,0.62692 5.47604,1.63486c4.90925,2.94567 7.42132,9.4928 7.85165,14.929c-0.11902,0.80122 0.01343,1.68336 -0.35709,2.40367c-1.17926,2.29255 -4.1416,3.00278 -6.92036,2.5957c1.17098,4.87922 -3.7569,11.39977 -7.15474,14.06869c-0.61931,0.48645 -1.76864,1.29652 -2.89149,1.79923c2.59017,2.54782 4.84318,5.32652 6.32153,8.71818c1.53534,3.52245 2.64986,5.33032 -0.34521,8.42608c-2.47269,1.81363 -7.23339,6.25026 -10.55329,4.95356c-1.08387,-0.42334 -1.41125,-1.972 -2.45942,-2.47734c-2.14032,-1.03185 -3.97766,-0.86609 -5.04416,-3.50792c-0.18476,-0.45767 -0.298,-0.99894 -0.37779,-1.57654c-0.21689,0.26452 -0.43378,0.52903 -0.65067,0.79356zM265.8308,184.2774l0.84966,0.01826c0.4405,0.05305 0.80733,0.08684 1.13434,0.12187c-0.41869,-1.94374 -0.68361,-4.16851 -2.76913,-4.39241c-0.54209,-0.05819 0.26894,1.05831 0.35417,1.59683c0.14056,0.88817 -0.16815,1.83524 0.05026,2.70136c0.22036,-0.04782 0.38072,-0.04589 0.38072,-0.04589z" data-paper-data="{&quot;index&quot;:null}" fill="#783b1a"/><path d="M226.39225,208.58072c-0.24341,-0.88036 -0.41988,-1.85098 0.58139,-2.53711c1.2045,-0.8254 2.59889,0.08646 3.10416,1.12265c0.6088,1.24845 -0.1598,3.19496 0.30241,4.51204c0.25269,0.72003 1.74766,1.7328 1.11097,2.68595c-0.63027,0.94354 -2.51224,0.42659 -3.20775,-0.06644c-1.30742,-0.9268 -1.35174,-2.63937 -1.57619,-4.19979c-0.16355,-0.25886 -0.16001,-0.55393 -0.16001,-0.55393l0.02899,-0.19593c-0.04065,-0.1875 -0.08794,-0.37014 -0.14477,-0.54602c0,0 -0.02876,-0.08989 -0.03922,-0.22144z" data-paper-data="{&quot;index&quot;:null}" fill="#98461d"/><path d="M246.92947,209.54248c-0.06103,0.17446 -0.11271,0.3559 -0.15787,0.54237l0.02427,0.19657c0,0 -0.00355,0.29507 -0.17329,0.5499c-0.26195,1.55455 -0.34751,3.26556 -1.67685,4.16061c-0.70719,0.47614 -2.60106,0.94763 -3.20842,-0.01081c-0.61356,-0.96821 0.90537,-1.94468 1.17531,-2.65843c0.4938,-1.30558 -0.22773,-3.27001 0.41095,-4.50345c0.53009,-1.02373 1.94602,-1.90174 3.13029,-1.04758c0.71538,0.51596 0.8054,1.16713 0.69967,1.82003c-0.03977,0.24557 -0.10724,0.49139 -0.17954,0.73034c-0.01361,0.13125 -0.04454,0.22044 -0.04454,0.22044z" data-paper-data="{&quot;index&quot;:null}" fill="#98461d"/><path d="M242.46174,152.4303c-0.21419,-0.1251 -0.41415,-0.35788 -0.40894,-0.79096c0.01114,-0.92509 0.93623,-0.91395 0.93623,-0.91395l1.02408,0.59393c0.44925,1.17564 0.91939,2.27557 1.32889,3.45731c0.26362,0.09415 0.58589,0.32139 0.57929,0.86966c-0.01114,0.92509 -0.93622,0.91395 -0.93622,0.91395l-0.18029,-0.01399c-0.05184,0.01069 -0.10134,0.01718 -0.14862,0.01996c-3.5262,0.55224 -6.28264,2.07236 -9.99945,1.4068c0,0 -0.91067,-0.16307 -0.7476,-1.07373c0.16307,-0.91067 1.07373,-0.7476 1.07373,-0.7476c3.10486,0.55598 5.57652,-0.59341 8.44958,-1.22847c-0.30569,-0.84429 -0.63691,-1.65044 -0.97069,-2.49294z" data-paper-data="{&quot;index&quot;:null}" fill="#843e18"/><path d="M229.5181,209.7642c-0.23318,-0.04197 0.1432,-0.17688 -0.01183,-0.55103c-0.35418,-0.85468 -0.12835,-1.09093 -0.12835,-1.09093l1.06187,-0.41959c2.70853,-0.01039 5.32155,0.26627 8.0117,0.45544c1.30068,0.09147 3.22779,-0.16383 4.45024,0.20864c1.53811,0.46864 1.38366,0.9353 1.90056,2.25783c-0.01139,1.39318 -0.15359,3.22158 -1.4203,4.15894c-1.14727,0.84895 -3.19173,0.30425 -4.50649,0.37176c-4.27098,0.2193 -9.86502,0.36473 -9.35742,-5.39106z" data-paper-data="{&quot;index&quot;:null}" fill="#de9a39"/><path d="M243.23686,195.73223c0.06632,-0.10011 0.12643,-0.15879 0.12643,-0.15879l0.18956,-0.17975c2.53691,-2.06019 5.20827,-3.94693 8.16857,-5.34673c2.3854,-0.29174 5.693,-0.19063 6.74648,2.51245c1.02277,2.62429 -0.90895,7.77735 -2.65504,9.80828c-1.441,1.67607 -3.82297,2.74965 -5.76001,3.68919c-2.05041,0.84387 -5.67567,1.78266 -7.75276,0.49986c-2.19632,-1.35644 -2.6777,-7.4173 -1.17666,-9.40314c0.51181,-0.67711 1.31166,-1.09638 2.11344,-1.42138z" data-paper-data="{&quot;index&quot;:null}" fill="#fffeff"/><path d="M228.81763,198.43924c0.06558,0.04715 0.10315,0.08561 0.10315,0.08561l0.52335,0.69804c0.73237,3.17216 -2.62031,6.35003 -5.18523,3.22377c-2.58423,-3.14982 1.3029,-5.96074 4.28328,-4.26959c0,0 0.15615,0.09175 0.27545,0.26215z" data-paper-data="{&quot;index&quot;:null}" fill="#4d2813"/><path d="M243.05648,199.21344c3.02024,-1.61892 6.83856,1.28478 4.17924,4.37147c-2.63945,3.0636 -5.91464,-0.19406 -5.1061,-3.34766l0.54001,-0.68524c0,0 0.03848,-0.03756 0.10517,-0.08311c0.12337,-0.1675 0.28168,-0.25544 0.28168,-0.25544z" data-paper-data="{&quot;index&quot;:null}" fill="#4d2813"/><path d="M232.02955,197.02733c1.45281,2.02141 0.82564,8.0689 -1.4027,9.37208c-2.10736,1.23243 -5.70899,0.20661 -7.73848,-0.68637c-1.91386,-0.9859 -4.26927,-2.11651 -5.66952,-3.8268c-1.69669,-2.07238 -3.50378,-7.27045 -2.41813,-9.86936c1.11825,-2.67693 4.42732,-2.69838 6.805,-2.3493c2.92573,1.47066 5.5509,3.42117 8.03747,5.54184l0.18517,0.18425c0,0 0.05869,0.06013 0.12256,0.1618c0.79372,0.34422 1.58325,0.78261 2.07861,1.47185z" data-paper-data="{&quot;index&quot;:null}" fill="#fffeff"/><path d="M241.60712,190.36925c-0.00995,-0.0154 -0.01975,-0.0314 -0.02941,-0.04794c-0.44027,-0.75423 0.31395,-1.19451 0.31395,-1.19451l0.61261,-0.35738c2.43967,-1.35087 5.00197,-2.61458 7.52748,-3.813c1.81319,1.33595 2.71879,4.21159 1.28497,6.37015c-0.89981,1.35463 -3.09995,1.95852 -4.41163,2.77566c-0.90836,0.5659 -1.73857,1.93809 -3.05162,1.62583c-1.98305,-0.4716 -1.94151,-3.80205 -2.24634,-5.35882z" data-paper-data="{&quot;index&quot;:null}" fill="#713617"/><path d="M229.74149,195.66686c-1.3202,0.28056 -2.11711,-1.11122 -3.0116,-1.69882c-1.29162,-0.84849 -3.47657,-1.50516 -4.34352,-2.88107c-1.38146,-2.19246 -0.40687,-5.04544 1.43796,-6.33736c2.49594,1.25888 5.02707,2.58388 7.43351,3.99311l0.60383,0.37202c0,0 0.74342,0.45831 0.2851,1.20173c-0.01006,0.01631 -0.02025,0.03204 -0.03056,0.04722c-0.34222,1.54898 -0.38089,4.87946 -2.37471,5.30318z" data-paper-data="{&quot;index&quot;:null}" fill="#713617"/><path d="M229.74591,199.67168c0.06557,0.04716 0.10315,0.08562 0.10315,0.08562l0.52335,0.69804c0.73236,3.17215 -2.6203,6.35003 -5.18521,3.22377c-2.58423,-3.14983 1.30289,-5.96073 4.28327,-4.26958c0,0 0.15615,0.09174 0.27545,0.26215z" data-paper-data="{&quot;index&quot;:null}" fill="#4d2813"/><path d="M243.1719,221.82771c-0.46254,-0.00557 -0.45697,-0.46811 -0.45697,-0.46811c0.00743,-0.61673 0.01671,-1.38763 0.02414,-2.00436c0,0 0.00557,-0.46255 0.46811,-0.45697c0.46254,0.00557 0.45697,0.46811 0.45697,0.46811c-0.00743,0.61673 -0.01485,1.23344 -0.02228,1.85018l-0.00185,0.15418c0,0 -0.00557,0.46255 -0.46811,0.45697z" data-paper-data="{&quot;index&quot;:null}" fill="#a0531a"/><path d="M245.33415,221.54534c-0.46254,-0.00557 -0.45697,-0.46811 -0.45697,-0.46811c0.00371,-0.30836 0.00928,-0.7709 0.013,-1.07927c0,0 0.00557,-0.46255 0.46811,-0.45697c0.46254,0.00557 0.45697,0.46811 0.45697,0.46811c-0.00371,0.30836 -0.00743,0.61673 -0.01115,0.92509l-0.00185,0.15419c0,0 -0.00557,0.46254 -0.46811,0.45697z" data-paper-data="{&quot;index&quot;:null}" fill="#a0531a"/><path d="M247.19545,220.64253c-0.46254,-0.00557 -0.45697,-0.46811 -0.45697,-0.46811c0.00185,-0.15419 0.00557,-0.46254 0.00743,-0.61673c0,0 0.00557,-0.46254 0.46811,-0.45697c0.46254,0.00557 0.45697,0.46811 0.45697,0.46811c-0.00185,0.15419 -0.00371,0.30836 -0.00557,0.46255l-0.00185,0.15419c0,0 -0.00557,0.46254 -0.46811,0.45697z" data-paper-data="{&quot;index&quot;:null}" fill="#a0531a"/><path d="M230.37301,221.82782c-0.46254,-0.00557 -0.45697,-0.46811 -0.45697,-0.46811l0.00557,-0.46254c0.00721,-0.26314 -0.03722,-0.53086 -0.12107,-0.7804c0,0 -0.14098,-0.44057 0.29958,-0.58155c0.44057,-0.14098 0.58155,0.29958 0.58155,0.29958c0.10667,0.34597 0.16535,0.71146 0.16502,1.07349l-0.00557,0.46254c0,0 -0.00557,0.46255 -0.46811,0.45697z" data-paper-data="{&quot;index&quot;:null}" fill="#a0531a"/><path d="M228.67143,222.26995c-0.46254,-0.00557 -0.45697,-0.46811 -0.45697,-0.46811c0.00185,-0.15419 0.00928,-0.7709 0.01114,-0.92509c0,0 0.00557,-0.46254 0.46811,-0.45697c0.46254,0.00557 0.45697,0.46811 0.45697,0.46811c-0.00185,0.15419 -0.00371,0.30836 -0.00557,0.46255l-0.00557,0.46254c0,0 -0.00557,0.46254 -0.46811,0.45697z" data-paper-data="{&quot;index&quot;:null}" fill="#a0531a"/><path d="M226.21753,221.16098c0.00308,-0.25545 0.21266,-0.46005 0.46811,-0.45697c0.25545,0.00308 0.46005,0.21267 0.45697,0.46811c-0.00308,0.25545 -0.21267,0.46005 -0.46811,0.45697c-0.25545,-0.00308 -0.46005,-0.21266 -0.45697,-0.46811z" data-paper-data="{&quot;index&quot;:null}" fill="#a0531a"/><g data-paper-data="{&quot;index&quot;:null}"><path d="M210.7878,204.85497c0.02513,0.0738 0.02436,0.13656 0.02436,0.13656l-0.00219,0.1827c-0.02458,2.04205 -0.18156,4.44666 0.19462,6.45284c-0.02473,2.93447 -0.3417,5.76393 -0.37718,8.71061c-0.0158,1.31261 0.06374,2.60766 0.04406,3.92897c-0.00467,0.3131 0.0726,1.10446 -0.37443,1.26126c-0.82825,0.29054 -2.88879,-2.24895 -3.05466,-2.91159c-1.40816,-2.87522 -0.95378,-6.73539 -0.17096,-9.71038c0.63782,-3.00411 1.76509,-5.83237 3.14738,-8.54178c0,0 0.16734,-0.32483 0.49217,-0.15751c0.32484,0.16734 0.15751,0.49217 0.15751,0.49217c-0.02701,0.05198 -0.05389,0.10403 -0.08067,0.15613z" fill="#080808"/><path d="M211.13759,224.96939c0.04257,0.05387 0.07203,0.1292 0.07076,0.23452c-0.0044,0.36538 -0.36977,0.36099 -0.36977,0.36099l-0.41573,-0.20701c-0.37577,-0.81554 -0.10851,-1.55206 -0.09828,-2.40189c0.25377,-0.99169 -0.44801,-1.44168 -0.38792,-2.43073c0.10931,-1.79887 0.82626,-4.13895 0.8545,-5.97076c-0.5355,-2.25714 -0.4868,-5.324 -0.459,-7.63301c0.01,-0.83072 -0.18508,-1.39424 0.0284,-2.00745l-0.14745,-0.07596l0.18347,-0.35615c0.06007,-0.12289 0.18701,-0.20684 0.33287,-0.20509c0.14586,0.00175 0.27074,0.08874 0.32783,0.21304l0.17484,0.36047c0.13445,0.27771 0.25467,0.56245 0.36596,0.85023c1.44741,3.49286 1.87718,7.29821 1.81108,11.08875c0.6223,3.3187 0.06776,5.82888 -2.27156,8.18004z" fill="#636163"/><path d="M212.28868,207.93771c-0.05478,0.05561 -0.13753,0.09737 -0.26252,0.09586c-0.36538,-0.0044 -0.36099,-0.36977 -0.36099,-0.36977l0.00954,-0.20229c-0.08458,-0.45107 -0.1414,-0.87223 -0.32486,-1.29626c-0.12704,-0.29363 -0.33822,-0.5474 -0.45411,-0.84564c-1.28473,-3.30638 -0.59434,4.05166 -2.73515,2.50709c-1.37119,-0.70636 -2.89264,-3.27848 -2.4585,-4.88663c0.54579,-2.02166 2.05835,-1.20132 2.66099,0.08505c0.61079,0.67368 1.78681,-1.48799 3.0898,-1.10974c1.30271,0.37816 1.05621,3.39873 2.13808,1.30186c0.60022,-0.92722 1.72953,-1.01516 2.20922,0.15395c0.85762,2.0902 -1.82241,3.83902 -3.24369,4.53881c0,0 -0.13107,0.06357 -0.26783,0.02768z" fill="#ffe900"/><path d="M209.34794,225.56782c-0.00172,-0.1964 -0.02825,-0.39364 -0.07501,-0.58414c-0.21279,-1.15569 0.80148,-2.45595 1.90986,-1.32053c1.04704,1.07257 0.2206,4.46332 -0.85518,5.84275l0.14354,0.14704l-0.27734,0.27074c-0.06693,0.06533 -0.15875,0.10513 -0.25965,0.10391c-0.2018,-0.00243 -0.36341,-0.16799 -0.36099,-0.36977l0.00399,-0.33136c-0.30219,-1.23693 -0.24925,-2.49091 -0.22924,-3.75863z" fill="#a5aaa5"/></g><path d="M209.03489,188.50187c0.55655,0.10446 0.75892,0.7036 0.75892,0.7036l0.27449,0.84523c0.21387,1.1503 0.32271,2.19048 0.40305,3.35117c0.07531,1.08797 0.52293,2.00342 -0.36181,3.02325c-1.35382,1.56052 -3.55574,1.15097 -4.65479,-0.47029c-1.97041,-2.90667 -0.67555,-6.99697 2.69689,-7.66977c0,0 0.51712,-0.09614 0.88324,0.21681z" fill="#de8f31"/><path d="M264.87592,190.07828c3.35527,0.75379 4.55127,4.87408 2.51145,7.73247c-1.13775,1.59434 -3.34891,1.95075 -4.66475,0.3581c-0.85992,-1.04083 -0.3904,-1.94523 -0.28892,-3.03108c0.10826,-1.15842 0.24211,-2.19569 0.48362,-3.3405l0.29474,-0.83837c0,0 0.21675,-0.59409 0.77565,-0.68512c0.37354,-0.30404 0.8882,-0.19548 0.8882,-0.19548z" data-paper-data="{&quot;index&quot;:null}" fill="#de8f31"/></g></g></svg>