<svg version="1.1" xmlns="http://www.w3.org/2000/svg" xmlns:xlink="http://www.w3.org/1999/xlink" width="28.86373" height="40.74276" viewBox="0,0,28.86373,40.74276"><g transform="translate(-225.55978,-159.62533)"><g data-paper-data="{&quot;isPaintingLayer&quot;:true}" fill="#ff0000" fill-rule="nonzero" stroke="#8c0000" stroke-width="0.5" stroke-linecap="square" stroke-linejoin="miter" stroke-miterlimit="10" stroke-dasharray="" stroke-dashoffset="0" style="mix-blend-mode: normal"><path d="M254.1735,186.21456c0,2.36052 -0.42226,4.41301 -1.26679,6.15742c-0.84452,1.74444 -1.99364,3.19121 -3.44733,4.34032c-1.4537,1.14219 -3.16351,1.9971 -5.12946,2.56473c-1.95903,0.56071 -4.0565,0.84107 -6.29241,0.84107c-1.07296,0 -2.12861,-0.07615 -3.16697,-0.22844c-1.03144,-0.15922 -2.05248,-0.37035 -3.06315,-0.6334c-1.00374,-0.26305 -2.00055,-0.56763 -2.99045,-0.91375c-0.98989,-0.34611 -1.98671,-0.71992 -2.99045,-1.12142l1.03835,-10.8404c0.65762,0.35996 1.35678,0.69569 2.09747,1.0072c0.74761,0.30459 1.516,0.56764 2.30515,0.78915c0.78915,0.21459 1.58868,0.38765 2.3986,0.51917c0.80992,0.1246 1.5956,0.1869 2.35706,0.1869c0.45687,0 1.01066,-0.03807 1.66136,-0.11422c0.65762,-0.08307 1.28411,-0.23882 1.87941,-0.46726c0.60225,-0.22844 1.11449,-0.53649 1.53675,-0.92414c0.42918,-0.39458 0.64378,-0.91029 0.64378,-1.54714c0,-0.59532 -0.16959,-1.11104 -0.50879,-1.54714c-0.33227,-0.4361 -0.76838,-0.79607 -1.30831,-1.07988c-0.53301,-0.28381 -1.13526,-0.50534 -1.80674,-0.66454c-0.67146,-0.16615 -1.34986,-0.2942 -2.03517,-0.3842c-0.6784,-0.08999 -1.32217,-0.14537 -1.93134,-0.16614c-0.60917,-0.02076 -1.11104,-0.03116 -1.50561,-0.03116c-0.82376,0 -1.6579,0.03807 -2.50242,0.11422c-0.84452,0.06922 -1.66482,0.2146 -2.4609,0.43611l1.09027,-22.02348l22.07536,-0.60225l0.60225,11.39073l-13.68549,-0.758l-0.26997,4.84913c0.81684,-0.20075 1.63368,-0.34959 2.45051,-0.4465c0.81684,-0.10384 1.63367,-0.15575 2.45051,-0.15575c1.65444,0 3.19467,0.26997 4.62067,0.80992c1.426,0.53301 2.66856,1.3014 3.72768,2.30515c1.06604,0.99682 1.90365,2.20131 2.51281,3.61347c0.60917,1.40525 0.91375,2.98008 0.91375,4.72451z"/></g></g></svg>