<svg version="1.1" xmlns="http://www.w3.org/2000/svg" xmlns:xlink="http://www.w3.org/1999/xlink" width="23.9772" height="24.29646" viewBox="0,0,23.9772,24.29646"><g transform="translate(-228.0114,-167.85177)"><g data-paper-data="{&quot;isPaintingLayer&quot;:true}" fill="#ffffff" fill-rule="nonzero" stroke="#000000" stroke-width="0" stroke-linecap="butt" stroke-linejoin="miter" stroke-miterlimit="10" stroke-dasharray="" stroke-dashoffset="0" style="mix-blend-mode: normal"><path d="M243.99663,175.71536c2.46198,2.26611 7.99197,4.11743 7.99197,4.11743c0,0 -3.42915,1.78896 -4.98782,5.10883c-1.36218,2.90129 -0.15413,7.20661 -0.15413,7.20661c0,0 -3.59386,-4.0406 -6.74701,-3.90269c-3.31759,0.14509 -6.22836,2.59175 -6.22836,2.59175c0,0 1.6022,-3.81737 -0.14972,-7.36077c-2.09509,-4.23749 -5.71016,-5.58596 -5.71016,-5.58596c0,0 5.31642,-1.31127 7.07567,-3.19649c1.99453,-2.13733 4.0038,-6.8423 4.0038,-6.8423c0,0 2.3093,5.47368 4.90578,7.86362zM234.80973,179.17847c0,0 1.63235,1.63706 2.11563,2.50353c0.40863,0.73262 -0.00213,3.09477 -0.00213,3.09477c0,0 2.46465,-1.72392 3.38136,-1.68513c0.94095,0.03981 2.99351,1.98769 2.99351,1.98769c0,0 -0.2161,-2.30637 0.05341,-2.95232c0.28485,-0.68273 2.14554,-1.83982 2.14554,-1.83982c0,0 -2.97682,-0.83242 -3.79241,-1.56642c-0.96338,-0.86701 -2.15199,-3.57002 -2.15199,-3.57002c0,0 -1.00217,2.45977 -1.77593,3.10035c-0.73895,0.61177 -2.96699,0.92738 -2.96699,0.92738z"/></g></g></svg>