<svg version="1.1" xmlns="http://www.w3.org/2000/svg" xmlns:xlink="http://www.w3.org/1999/xlink" width="163.36193" height="134.14504" viewBox="0,0,163.36193,134.14504"><defs><linearGradient x1="240.00307" y1="133.71452" x2="240.00307" y2="226.28561" gradientUnits="userSpaceOnUse" id="color-1"><stop offset="0" stop-color="#76de30"/><stop offset="1" stop-color="#3bd214"/></linearGradient><linearGradient x1="240.00309" y1="130.5711" x2="240.00309" y2="229.42885" gradientUnits="userSpaceOnUse" id="color-2"><stop offset="0" stop-color="#75de30"/><stop offset="1" stop-color="#3cd214"/></linearGradient></defs><g transform="translate(-155.97007,-128.1147)"><g data-paper-data="{&quot;isPaintingLayer&quot;:true}" fill-rule="nonzero" stroke-linejoin="miter" stroke-miterlimit="10" stroke-dasharray="" stroke-dashoffset="0" style="mix-blend-mode: normal"><path d="M194.11557,148.58648c0,-7.16474 10.72821,-14.87201 14.00725,-14.87201c9.87664,0 47.69419,0.28692 65.34597,0.28692c3.82441,0 12.42161,8.76983 12.42161,16.99812c0,10.05142 0,41.94736 0,59.24121c0,10.10629 -4.991,14.61037 -8.75308,14.61037c-9.913,0 -50.539,1.43454 -69.75282,1.43454c-5.34563,0 -13.26901,-8.45636 -13.26901,-19.17335c0,-10.71693 0,-48.79133 0,-58.52582z" fill="url(#color-1)" stroke="#085001" stroke-width="0" stroke-linecap="butt"/><path d="M220.38865,135.07355c0,0 -4.96767,-0.17534 -10.41621,1.01166c-3.74392,0.81566 -7.71488,2.10771 -10.45716,5.21243c-2.85899,3.2369 -2.88329,7.8272 -3.4175,12.42551c-0.73382,6.31688 -1.30817,12.36577 -1.30817,12.36577c0,0 -0.72684,-6.39868 -0.38126,-13.51985c0.21678,-4.46659 -0.10324,-9.02383 3.42523,-13.06694c3.24754,-3.72108 7.71602,-4.81111 11.27982,-5.49752c6.20933,-1.19596 11.27532,1.06891 11.27532,1.06891z" fill="#bcff84" stroke="#dbffff" stroke-width="0" stroke-linecap="butt"/><path d="M190.0634,142.46147c0,-9.54893 3.29658,-11.8904 6.92186,-11.8904c10.91955,0 66.68709,0 86.20271,0c4.2282,0 6.75482,4.90465 6.75482,15.87109c0,13.39619 0,47.11128 0,70.15998c0,13.46934 -3.93202,12.82172 -8.0913,12.82172c-10.95974,0 -60.9506,0 -82.19322,0c-5.91002,0 -9.59484,-0.0313 -9.59484,-14.31453c0,-14.28316 -0.00003,-59.67416 -0.00003,-72.64792z" fill="none" stroke="#056300" stroke-width="2.5" stroke-linecap="butt"/><path d="M190.0634,142.46147c0,-9.54893 3.29658,-11.8904 6.92186,-11.8904c10.91955,0 66.68709,0 86.20271,0c4.2282,0 6.75482,4.90465 6.75482,15.87109c0,13.39619 0,47.11128 0,70.15998c0,13.46934 -3.93202,12.82172 -8.0913,12.82172c-10.95974,0 -60.9506,0 -82.19322,0c-5.91002,0 -9.59484,-0.0313 -9.59484,-14.31453c0,-14.28316 -0.00003,-59.67416 -0.00003,-72.64792z" fill="url(#color-2)" stroke="#3bbf1d" stroke-width="1.5" stroke-linecap="butt"/><path d="M213.28308,148.82846c6.65647,3.48509 9.07352,4.99807 16.17798,10.43741c7.10445,5.43934 15.93925,13.87427 17.22171,15.13424c1.28246,1.26 4.67143,3.59534 0.52188,8.69786c-4.14958,5.10252 -4.00531,5.46252 -11.82906,12.00303c-7.82375,6.5405 -19.17146,14.23007 -21.04878,15.48217c-1.87729,1.25209 -6.69252,4.18412 -7.82805,-2.08748c-2.04241,-11.28016 -2.89158,-18.58526 -2.95725,-29.22474c-0.0657,-10.63948 2.34042,-25.40349 2.60935,-27.13727c0.26894,-1.73378 0.47576,-6.79027 7.13224,-3.30521z" fill="#ffffff" stroke="#68b623" stroke-width="0.5" stroke-linecap="round"/><path d="M207.07196,133.78767c-2.25985,0.07583 -7.05181,0.92221 -9.86315,4.10516c-2.931,3.31843 -3.33707,9.73943 -3.88473,14.45364c-0.75231,6.47604 -1.34115,12.67738 -1.34115,12.67738c0,0 -0.74515,-6.55993 -0.39085,-13.86053c0.22224,-4.57915 -1.29684,-13.06231 2.32057,-17.20728c3.32937,-3.81485 7.77396,-2.37954 12.99319,-2.30133c5.45567,0.08175 11.08304,0.61944 11.08304,0.61944c0,0 -8.16488,1.42119 -10.91693,1.51355z" fill="#bcff84" stroke="#dbffff" stroke-width="0" stroke-linecap="butt"/><path d="M188.37523,145.33307c0,-3.77815 1.49629,-8.91721 4.76961,-11.9813c3.60046,-3.37026 9.0892,-4.48707 11.02605,-4.48707c11.13771,0 53.78367,0.31769 73.68921,0.31769c2.59799,0 7.77255,2.91161 10.98085,7.70564c2.11766,3.1643 3.02672,7.49429 3.02672,11.11706c0,11.1303 0,46.45006 0,65.6002c0,5.10853 0.07441,8.92444 -1.60403,11.5633c-1.99842,3.142 -5.96085,4.61538 -8.26662,4.61538c-11.17866,0 -56.99167,1.5885 -78.65875,1.5885c-3.01904,0 -9.26159,-1.73639 -12.25126,-5.57208c-2.97983,-3.82301 -2.7118,-9.73547 -2.7118,-15.65928c0,-11.86731 -0.00006,-54.02864 -0.00006,-64.80805z" fill="none" stroke="#ffffff" stroke-width="1.5" stroke-linecap="butt"/><path d="M245.5437,149.11027c6.65647,3.48509 9.07352,4.99807 16.17798,10.43741c7.10445,5.43934 15.93925,13.87427 17.22171,15.13424c1.28246,1.26 4.67143,3.59534 0.52188,8.69786c-4.14958,5.10252 -4.00531,5.46252 -11.82906,12.00303c-7.82375,6.5405 -19.17146,14.23007 -21.04878,15.48217c-1.87729,1.25209 -6.69252,4.18412 -7.82805,-2.08748c-2.04241,-11.28016 -2.89158,-18.58526 -2.95725,-29.22474c-0.0657,-10.63948 2.34042,-25.40349 2.60935,-27.13727c0.26894,-1.73378 0.47576,-6.79027 7.13224,-3.30521z" fill="#ffffff" stroke="#68b623" stroke-width="0.5" stroke-linecap="round"/><path d="M173.86239,234.61103c-0.07513,1.15511 -0.14322,2.30083 -0.20426,3.43716c-0.06104,1.13163 -0.14087,2.27736 -0.23947,3.43716l-7.83927,0.40852v2.33136h6.8039l-0.3733,5.72626l-6.46581,0.19017l0.03522,10.9454l-9.3536,0.18313l0.59164,-26.65916zM196.46984,243.44341c0,0.96259 -0.08217,1.83597 -0.24652,2.62013c-0.16435,0.78416 -0.4273,1.50259 -0.78886,2.15527c-0.35686,0.65268 -0.81938,1.25607 -1.38754,1.81015c-0.56347,0.55408 -1.24668,1.08468 -2.04962,1.5918l4.40211,7.83927l-8.31822,1.62702l-2.85257,-7.88153l-2.28909,0.07748l-0.33104,7.69136h-7.95197c0.06104,-2.81265 0.11974,-5.61122 0.17608,-8.3957c0.05635,-2.78448 0.11974,-5.58304 0.19017,-8.3957c0.02817,-1.41337 0.054,-2.81735 0.07748,-4.21194c0.02348,-1.39459 0.07278,-2.80091 0.14791,-4.21898c0.86399,-0.3193 1.71389,-0.58225 2.5497,-0.78886c0.84051,-0.2113 1.68102,-0.37565 2.52153,-0.49304c0.8452,-0.11739 1.70215,-0.19721 2.57083,-0.23947c0.86868,-0.04226 1.76084,-0.06339 2.67648,-0.06339c1.40398,0 2.761,0.19487 4.07107,0.5846c1.31476,0.38504 2.47692,0.96729 3.48647,1.74676c1.01425,0.77477 1.82423,1.74206 2.42996,2.90187c0.61042,1.15511 0.91564,2.50275 0.91564,4.04289zM188.18684,244.03506c0,-0.51651 -0.07043,-0.99077 -0.2113,-1.42276c-0.14087,-0.43199 -0.34982,-0.80294 -0.62686,-1.11285c-0.27704,-0.3146 -0.62217,-0.56112 -1.03538,-0.73955c-0.41321,-0.18313 -0.89686,-0.27469 -1.45093,-0.27469c-0.24886,0 -0.49068,0.01644 -0.72546,0.0493c-0.23008,0.03287 -0.45782,0.07983 -0.68321,0.14087l-0.29582,6.87433h0.44373c0.5306,0 1.07059,-0.06809 1.61997,-0.20426c0.54938,-0.13617 1.04242,-0.34513 1.47911,-0.62686c0.43669,-0.28173 0.79355,-0.6433 1.07059,-1.08468c0.27704,-0.44608 0.41556,-0.97903 0.41556,-1.59885zM215.25892,234.61103c-0.07513,1.15511 -0.14322,2.30083 -0.20426,3.43716c-0.06104,1.13163 -0.14087,2.27736 -0.23947,3.43716l-7.83927,0.40852l-0.18313,2.33136h5.50792l-0.40852,5.72626l-5.54313,0.19017l-0.19017,2.69761h4.58523h3.25404c-0.07043,1.35702 -0.14791,2.70465 -0.23243,4.04289c-0.07983,1.33355 -0.15026,2.67179 -0.2113,4.01472l-15.9321,0.3733l0.59164,-26.65916zM233.39648,234.61103c-0.07513,1.15511 -0.14322,2.30083 -0.20426,3.43716c-0.06104,1.13163 -0.14087,2.27736 -0.23947,3.43716l-7.83927,0.40852l-0.18313,2.33136h5.50792l-0.40852,5.72626l-5.54313,0.19017l-0.19017,2.69761h4.58523h3.25404c-0.07043,1.35702 -0.14791,2.70465 -0.23243,4.04289c-0.07983,1.33355 -0.15026,2.67179 -0.2113,4.01472l-15.9321,0.3733l0.59164,-26.65916zM255.56285,243.48567c0,1.19268 -0.17843,2.25153 -0.5353,3.17656c-0.35686,0.92503 -0.84755,1.73267 -1.47206,2.42292c-0.61982,0.69025 -1.34998,1.2772 -2.19049,1.76084c-0.83581,0.47895 -1.73267,0.86868 -2.69057,1.1692c-0.9532,0.30052 -1.94162,0.52356 -2.96526,0.66912c-1.02364,0.14087 -2.02849,0.216 -3.01456,0.22539v8.62109h-8.61404c0,-2.82204 0.00469,-5.63235 0.01409,-8.43091c0.01409,-2.79857 0.03287,-5.62296 0.05635,-8.47318c0.02817,-1.50259 0.03522,-3.00517 0.02113,-4.50776c-0.01409,-1.50259 0.01644,-3.01926 0.09156,-4.55002c1.57772,-0.46956 3.15543,-0.81938 4.73315,-1.04946c1.57772,-0.23478 3.20473,-0.35217 4.88106,-0.35217c0.94851,0 1.89702,0.07748 2.84552,0.23243c0.94851,0.15026 1.8571,0.39208 2.72578,0.72547c0.87338,0.33339 1.68102,0.75129 2.42292,1.25372c0.7466,0.49773 1.38989,1.09172 1.92988,1.78197c0.54469,0.69025 0.97433,1.47676 1.28894,2.35953c0.3146,0.87807 0.47191,1.86649 0.47191,2.96526zM247.35732,244.11253c0,-0.80294 -0.24417,-1.42746 -0.73251,-1.87354c-0.48834,-0.45078 -1.1199,-0.67616 -1.89467,-0.67616c-0.25826,0 -0.5259,0.02113 -0.80294,0.06339c-0.27704,0.04226 -0.53999,0.09391 -0.78886,0.15495l-0.21834,5.40227c0.16904,0.02348 0.33339,0.03522 0.49304,0.03522c0.16435,0 0.33104,0 0.50008,0c0.44608,0 0.87573,-0.07278 1.28894,-0.21834c0.41321,-0.15026 0.77947,-0.36391 1.09877,-0.64095c0.3193,-0.27704 0.57521,-0.60338 0.76773,-0.97903c0.19252,-0.37565 0.28878,-0.79825 0.28878,-1.26781zM272.82967,250.7333l-0.77477,8.20553l-15.56585,1.2185c0.07513,-4.30115 0.1573,-8.57648 0.24652,-12.82598c0.09391,-4.2542 0.20895,-8.53187 0.34513,-12.83302h9.6142c-0.28643,2.69996 -0.55877,5.39757 -0.81703,8.09283c-0.25826,2.69057 -0.44138,5.40461 -0.54938,8.14214c0.57756,0.02348 1.14807,0.03522 1.71154,0.03522c0.56816,0 1.14337,0 1.72563,0c0.69025,0 1.36641,-0.00469 2.02849,-0.01409c0.66677,-0.01409 1.34528,-0.02113 2.03553,-0.02113zM297.01485,259.67838l-9.17047,1.18329l-1.10581,-4.17672h-4.21898l-0.92268,4.17672l-9.43107,-0.92268l7.36032,-24.63067l10.27628,-0.51417zM286.06945,251.02912l-1.40163,-6.43764l-1.37346,6.43764zM318.86867,236.23804l-10.17063,14.19944l-0.47895,11.57226h-8.76195l0.21834,-11.50182l-5.28253,-13.72049l9.42403,-1.18329l1.47911,7.98718l4.69793,-7.98718z" fill="#ffffff" stroke="#000000" stroke-width="0.5" stroke-linecap="square"/></g></g></svg>