<svg version="1.1" xmlns="http://www.w3.org/2000/svg" xmlns:xlink="http://www.w3.org/1999/xlink" width="178.27072" height="105.01622" viewBox="0,0,178.27072,105.01622"><defs><linearGradient x1="273.84592" y1="194.35084" x2="293.53308" y2="194.33563" gradientUnits="userSpaceOnUse" id="color-1"><stop offset="0" stop-color="#a94c21"/><stop offset="1" stop-color="#e5914c"/></linearGradient><linearGradient x1="277.00016" y1="179.89983" x2="285.1866" y2="179.89352" gradientUnits="userSpaceOnUse" id="color-2"><stop offset="0" stop-color="#a94c21"/><stop offset="1" stop-color="#dc9243"/></linearGradient><linearGradient x1="273.74436" y1="165.68773" x2="293.21324" y2="165.67268" gradientUnits="userSpaceOnUse" id="color-3"><stop offset="0" stop-color="#a94c21"/><stop offset="1" stop-color="#e5914c"/></linearGradient><linearGradient x1="216.49621" y1="181.16254" x2="277.69629" y2="181.11525" gradientUnits="userSpaceOnUse" id="color-4"><stop offset="0" stop-color="#70474e"/><stop offset="1" stop-color="#533642"/></linearGradient><linearGradient x1="154.0655" y1="230.06473" x2="200.90942" y2="182.72816" gradientUnits="userSpaceOnUse" id="color-5"><stop offset="0" stop-color="#595959"/><stop offset="1" stop-color="#595959" stop-opacity="0"/></linearGradient><linearGradient x1="206.65151" y1="176.92566" x2="253.49542" y2="129.58909" gradientUnits="userSpaceOnUse" id="color-6"><stop offset="0" stop-color="#595959" stop-opacity="0"/><stop offset="1" stop-color="#595959"/></linearGradient><linearGradient x1="153.54263" y1="130.11195" x2="200.87921" y2="176.95586" gradientUnits="userSpaceOnUse" id="color-7"><stop offset="0" stop-color="#595959"/><stop offset="1" stop-color="#595959" stop-opacity="0"/></linearGradient><linearGradient x1="206.68171" y1="182.69796" x2="254.01829" y2="229.54187" gradientUnits="userSpaceOnUse" id="color-8"><stop offset="0" stop-color="#595959" stop-opacity="0"/><stop offset="1" stop-color="#595959"/></linearGradient><linearGradient x1="156.82172" y1="227.12897" x2="198.76433" y2="186.61727" gradientUnits="userSpaceOnUse" id="color-9"><stop offset="0" stop-color="#5d5e5c"/><stop offset="1" stop-color="#4c4848"/></linearGradient><linearGradient x1="250.58866" y1="132.37587" x2="210.51798" y2="174.74001" gradientUnits="userSpaceOnUse" id="color-10"><stop offset="0" stop-color="#5d5e5c"/><stop offset="1" stop-color="#4c4848"/></linearGradient><linearGradient x1="156.47842" y1="132.86814" x2="196.99015" y2="174.81075" gradientUnits="userSpaceOnUse" id="color-11"><stop offset="0" stop-color="#5d5e5c"/><stop offset="1" stop-color="#4c4848"/></linearGradient><linearGradient x1="251.23155" y1="226.63509" x2="208.86742" y2="186.5644" gradientUnits="userSpaceOnUse" id="color-12"><stop offset="0" stop-color="#5d5e5c"/><stop offset="1" stop-color="#4c4848"/></linearGradient></defs><g transform="translate(-151.06108,-127.56089)"><g data-paper-data="{&quot;isPaintingLayer&quot;:true}" fill-rule="nonzero" stroke-linejoin="miter" stroke-miterlimit="10" stroke-dasharray="" stroke-dashoffset="0" style="mix-blend-mode: normal"><path d="M312.02621,224.0975l-27.88137,-0.02155l0.01036,-13.40678l27.88137,0.02155z" data-paper-data="{&quot;index&quot;:null}" fill="#757371" stroke="#3d3d3d" stroke-width="1" stroke-linecap="butt"/><path d="M308.65121,217.31036c0.00283,-3.6672 1.51674,-6.63892 3.38145,-6.63748c1.86471,0.00144 3.37406,2.97551 3.37122,6.64271c-0.00283,3.66724 -1.51677,6.63899 -3.38148,6.63755c-1.86472,-0.00144 -3.37404,-2.97557 -3.3712,-6.64277z" data-paper-data="{&quot;index&quot;:null}" fill="#6d7071" stroke="#3d3d3d" stroke-width="1" stroke-linecap="butt"/><path d="M312.02621,224.0975l-27.88137,-0.02155l0.01036,-13.40678l27.88137,0.02155z" data-paper-data="{&quot;index&quot;:null}" fill="#757371" stroke="none" stroke-width="0" stroke-linecap="butt"/><path d="M306.56824,219.49184c-0.00088,1.15544 -0.93827,2.09139 -2.09371,2.09049c-1.15543,-0.00088 -2.09138,-0.93827 -2.09048,-2.09371c0.00088,-1.15544 0.93826,-2.09138 2.0937,-2.09048c1.15544,0.00089 2.09139,0.93827 2.09049,2.09371z" data-paper-data="{&quot;index&quot;:null}" fill="#1e1c1b" stroke="none" stroke-width="0" stroke-linecap="butt"/><path d="M296.74977,212.66216c0.0007,-0.90423 0.97863,-1.63653 2.1843,-1.6356c1.20566,0.00093 2.18249,0.73472 2.18179,1.63897c-0.0007,0.90423 -0.97866,1.63653 -2.18433,1.6356c-1.20568,-0.00093 -2.18247,-0.73472 -2.18177,-1.63897z" data-paper-data="{&quot;index&quot;:null}" fill="#1e1c1b" stroke="none" stroke-width="0" stroke-linecap="butt"/><path d="M301.83441,224.49096c-1.00471,-0.00077 -1.81889,-0.40867 -1.81849,-0.91102c0.00039,-0.50235 0.81515,-0.90894 1.81989,-0.90817c1.0047,0.00077 1.81889,0.40864 1.81849,0.91099c-0.0004,0.50235 -0.81516,0.90898 -1.8199,0.90821z" data-paper-data="{&quot;index&quot;:null}" fill="#1e1c1b" stroke="none" stroke-width="0" stroke-linecap="butt"/><path d="M308.65121,217.31036c0.00283,-3.6672 1.51674,-6.63892 3.38145,-6.63748c1.86471,0.00144 3.37406,2.97551 3.37122,6.64271c-0.00283,3.66724 -1.51677,6.63899 -3.38148,6.63755c-1.86472,-0.00144 -3.37404,-2.97557 -3.3712,-6.64277z" data-paper-data="{&quot;index&quot;:null}" fill="#6d7071" stroke="none" stroke-width="0" stroke-linecap="butt"/><path d="M309.29871,217.31096c0.0023,-2.96391 1.22587,-5.36572 2.73296,-5.36456c1.50709,0.00117 2.72698,2.40487 2.72469,5.36879c-0.0023,2.96391 -1.22589,5.36572 -2.73298,5.36456c-1.50709,-0.00117 -2.72695,-2.40487 -2.72466,-5.36879z" data-paper-data="{&quot;index&quot;:null}" fill="#000000" stroke="none" stroke-width="0" stroke-linecap="butt"/><path d="M299.04452,204.92026l-0.18723,19.71737h-30.33025l0.18722,-15.30068z" data-paper-data="{&quot;index&quot;:null}" fill="#343434" stroke="none" stroke-width="NaN" stroke-linecap="butt"/><path d="M295.54231,205.97384l-0.18723,18.79596h-30.33025l0.18722,-14.58567z" data-paper-data="{&quot;index&quot;:null}" fill="#545454" stroke="none" stroke-width="NaN" stroke-linecap="butt"/><path d="M264.20853,145.3889l-0.18722,-15.30067h30.33025l0.18723,19.71736z" fill="#343434" stroke="none" stroke-width="NaN" stroke-linecap="butt"/><path d="M188.05676,194.79362l-8.86061,0.00684l-0.00864,-11.17211l8.86061,-0.00684z" fill="none" stroke="#4f4f4f" stroke-width="1" stroke-linecap="butt"/><path d="M325.43549,167.93161l-27.88137,0.02155l-0.01036,-13.40678l27.88137,-0.02155z" data-paper-data="{&quot;index&quot;:null}" fill="#757371" stroke="#3d3d3d" stroke-width="1" stroke-linecap="butt"/><path d="M325.46459,205.63291l-27.88137,0.02155l-0.01036,-13.40678l27.88137,-0.02156z" fill="#757371" stroke="#3d3d3d" stroke-width="1" stroke-linecap="butt"/><path d="M211.17899,190.1583c0,0 -33.98663,0.57223 -34.02768,-10.88899c-0.04243,-11.84544 34.55514,-12.76115 34.55514,-12.76115z" fill="none" stroke="#343434" stroke-width="1" stroke-linecap="round"/><path d="M181.33719,181.44919l-20.01131,0.01547l-0.00351,-4.54803l20.01131,-0.01546z" fill="none" stroke="#343434" stroke-width="1" stroke-linecap="butt"/><path d="M274.52619,142.76506c20.92696,-0.01617 37.90435,16.51645 37.92012,36.92669c0.01578,20.41022 -16.93606,36.96906 -37.863,36.98523c-20.92695,0.01617 -37.90435,-16.51645 -37.92013,-36.92667c-0.01577,-20.41022 16.93606,-36.9691 37.863,-36.98526z" fill="none" stroke="#343434" stroke-width="1" stroke-linecap="butt"/><path d="M263.64865,141.13617c10.70332,-0.00827 22.82578,2.9121 30.31273,8.90276c8.96774,7.1755 12.3015,18.45006 12.31062,30.24234c0.00883,11.43356 -2.73446,22.427 -11.22181,29.59569c-7.5745,6.39767 -20.24773,9.60667 -31.34102,9.61524c-23.52353,0.01818 -42.60662,-17.5077 -42.62334,-39.1451c-0.01673,-21.6374 19.0393,-39.19275 42.56279,-39.21093z" fill="none" stroke="#343434" stroke-width="1" stroke-linecap="butt"/><path d="M255.26036,145.55351c19.08631,-0.01476 23.11215,18.55746 23.12487,35.01504c0.01272,16.45757 2.38307,35.3687 -16.70325,35.38346c-12.7497,0.00985 -33.87714,-5.58541 -45.37277,-16.19998c-5.71335,-5.27545 -7.81436,-11.41032 -7.76957,-19.46714c0.05623,-10.1165 1.71452,-14.63703 8.17667,-20.07649c9.78198,-8.2339 27.0505,-14.646 38.54402,-14.65489z" fill="none" stroke="#2b770b" stroke-width="1" stroke-linecap="butt"/><path d="M203.66067,196.7077l-39.6802,0.03066l-0.00253,-3.27459l39.6802,-0.03066z" fill="none" stroke="#4f4f4f" stroke-width="1" stroke-linecap="butt"/><path d="M187.28866,197.87615c0,0 -1.45609,0.66209 -4.2371,0.77375c-2.2277,0.08945 -3.27517,-0.76795 -3.27517,-0.76795l-0.00223,-2.88932l7.51227,-0.00581z" fill="none" stroke="#4f4f4f" stroke-width="1" stroke-linecap="butt"/><path d="M322.05012,161.31196c-0.00284,-3.6672 1.50648,-6.64133 3.3712,-6.64277c1.86471,-0.00144 3.37865,2.97031 3.38148,6.63755c0.00284,3.6672 -1.50651,6.64127 -3.37122,6.64271c-1.86471,0.00144 -3.37862,-2.97028 -3.38145,-6.63748z" data-paper-data="{&quot;index&quot;:null}" fill="#6d7071" stroke="#3d3d3d" stroke-width="1" stroke-linecap="butt"/><path d="M325.45032,192.20826c1.86468,-0.00144 3.37865,2.97028 3.38148,6.63748c0.00284,3.66723 -1.50651,6.64133 -3.37121,6.64278c-1.86468,0.00144 -3.37863,-2.97032 -3.38145,-6.63756c-0.00284,-3.66723 1.50651,-6.64126 3.3712,-6.6427z" fill="#6d7071" stroke="#3d3d3d" stroke-width="1" stroke-linecap="butt"/><path d="M325.43549,167.93161l-27.88137,0.02155l-0.01036,-13.40678l27.88137,-0.02155z" data-paper-data="{&quot;index&quot;:null}" fill="#757371" stroke="none" stroke-width="0" stroke-linecap="butt"/><path d="M319.96715,159.13048c0.0009,1.15544 -0.93505,2.09282 -2.09049,2.09371c-1.15544,0.0009 -2.09282,-0.93504 -2.0937,-2.09048c-0.0009,-1.15544 0.93505,-2.09283 2.09048,-2.09371c1.15544,-0.0009 2.09283,0.93505 2.09371,2.09049z" data-paper-data="{&quot;index&quot;:null}" fill="#1e1c1b" stroke="none" stroke-width="0" stroke-linecap="butt"/><path d="M310.14867,165.96017c-0.0007,-0.90425 0.97609,-1.63804 2.18177,-1.63897c1.20567,-0.00093 2.18363,0.73137 2.18433,1.6356c0.0007,0.90425 -0.97613,1.63804 -2.18179,1.63897c-1.20567,0.00093 -2.1836,-0.73137 -2.1843,-1.6356z" data-paper-data="{&quot;index&quot;:null}" fill="#1e1c1b" stroke="none" stroke-width="0" stroke-linecap="butt"/><path d="M307.0503,158.59476c0.00081,1.05498 -0.85374,1.91082 -1.90872,1.91163c-1.05498,0.00081 -1.91082,-0.85371 -1.91163,-1.90868c-0.00081,-1.05498 0.85371,-1.91085 1.90868,-1.91168c1.05498,-0.00081 1.91086,0.85374 1.91168,1.90872z" data-paper-data="{&quot;index&quot;:null}" fill="#1e1c1b" stroke="none" stroke-width="0" stroke-linecap="butt"/><path d="M315.2333,154.13136c1.00474,-0.00077 1.8195,0.40586 1.8199,0.90821c0.0004,0.50235 -0.81379,0.91022 -1.81849,0.91099c-1.00474,0.00077 -1.8195,-0.40582 -1.81989,-0.90817c-0.0004,-0.50235 0.81378,-0.91025 1.81849,-0.91102z" data-paper-data="{&quot;index&quot;:null}" fill="#1e1c1b" stroke="none" stroke-width="0" stroke-linecap="butt"/><path d="M322.05012,161.31196c-0.00284,-3.6672 1.50648,-6.64133 3.3712,-6.64277c1.86471,-0.00144 3.37865,2.97031 3.38148,6.63755c0.00284,3.6672 -1.50651,6.64127 -3.37122,6.64271c-1.86471,0.00144 -3.37862,-2.97028 -3.38145,-6.63748z" data-paper-data="{&quot;index&quot;:null}" fill="#6d7071" stroke="none" stroke-width="0" stroke-linecap="butt"/><path d="M322.69763,161.31137c-0.00229,-2.96392 1.21757,-5.36762 2.72466,-5.36879c1.50709,-0.00116 2.73068,2.40065 2.73298,5.36456c0.00229,2.96392 -1.2176,5.36762 -2.72469,5.36879c-1.50709,0.00116 -2.73066,-2.40065 -2.73296,-5.36456z" data-paper-data="{&quot;index&quot;:null}" fill="#000000" stroke="none" stroke-width="0" stroke-linecap="butt"/><path d="M325.46459,205.63291l-27.88137,0.02155l-0.01036,-13.40678l27.88137,-0.02156z" fill="#757371" stroke="none" stroke-width="0" stroke-linecap="butt"/><path d="M317.90904,203.12927c-1.15544,0.0009 -2.09282,-0.93504 -2.0937,-2.09048c-0.0009,-1.15544 0.93505,-2.09283 2.09048,-2.09371c1.15544,-0.0009 2.09283,0.93505 2.09371,2.09049c0.0009,1.15544 -0.93505,2.09282 -2.09049,2.09371z" fill="#1e1c1b" stroke="none" stroke-width="0" stroke-linecap="butt"/><path d="M312.35228,192.58212c1.20567,-0.00093 2.18363,0.73137 2.18433,1.6356c0.0007,0.90425 -0.97613,1.63804 -2.18179,1.63897c-1.20567,0.00093 -2.18363,-0.73137 -2.18433,-1.6356c-0.0007,-0.90425 0.97613,-1.63804 2.18179,-1.63897z" fill="#1e1c1b" stroke="none" stroke-width="0" stroke-linecap="butt"/><path d="M305.17485,203.50299c-1.05498,0.00081 -1.91082,-0.85375 -1.91163,-1.90868c-0.00081,-1.05498 0.85375,-1.91082 1.90868,-1.91163c1.05498,-0.00081 1.91082,0.85375 1.91163,1.90869c0.00081,1.05498 -0.85375,1.91081 -1.90868,1.91163z" fill="#1e1c1b" stroke="none" stroke-width="0" stroke-linecap="butt"/><path d="M313.45349,205.13384c-0.0004,-0.50235 0.81382,-0.91025 1.81852,-0.91102c1.00474,-0.00077 1.81953,0.40586 1.81993,0.90821c0.0004,0.50235 -0.81382,0.91025 -1.81852,0.91102c-1.00474,0.00077 -1.81953,-0.40586 -1.81993,-0.90821z" fill="#1e1c1b" stroke="none" stroke-width="0" stroke-linecap="butt"/><path d="M188.05676,194.79362l-8.86061,0.00684l-0.00864,-11.17211l8.86061,-0.00684z" fill="#545254" stroke="none" stroke-width="0" stroke-linecap="butt"/><path d="M203.66067,196.7077l-39.6802,0.03066l-0.00253,-3.27459l39.6802,-0.03066z" fill="#54524e" stroke="none" stroke-width="0" stroke-linecap="butt"/><path d="M187.28866,197.87615c0,0 -1.45609,0.66209 -4.2371,0.77375c-2.2277,0.08945 -3.27517,-0.76795 -3.27517,-0.76795l-0.00223,-2.88932l7.51227,-0.00581z" fill="#76797a" stroke="none" stroke-width="0" stroke-linecap="butt"/><path d="M211.17895,190.1583c0,0 -33.98662,0.57223 -34.02767,-10.88899c-0.04243,-11.84544 34.55514,-12.76115 34.55514,-12.76115z" fill="#545454" stroke="#000000" stroke-width="0" stroke-linecap="round"/><path d="M181.33715,181.44919l-20.01132,0.01547l-0.00351,-4.54803l20.01132,-0.01546z" fill="#545454" stroke="#000000" stroke-width="0" stroke-linecap="butt"/><path d="M274.52617,142.76506c20.92696,-0.01617 37.90435,16.51645 37.92012,36.92669c0.01578,20.41022 -16.93606,36.96906 -37.863,36.98523c-20.92695,0.01617 -37.90435,-16.51645 -37.92013,-36.92667c-0.01577,-20.41022 16.93606,-36.9691 37.863,-36.98526z" fill="#343434" stroke="none" stroke-width="0" stroke-linecap="butt"/><path d="M263.6486,141.13617c10.70332,-0.00827 22.82578,2.9121 30.31273,8.90276c8.96774,7.1755 12.30151,18.45006 12.31062,30.24235c0.00883,11.43356 -2.73446,22.427 -11.22181,29.59569c-7.5745,6.39767 -20.24773,9.60667 -31.34102,9.61524c-23.52353,0.01818 -42.60662,-17.5077 -42.62335,-39.1451c-0.01673,-21.6374 19.03931,-39.19275 42.5628,-39.21093z" fill="#545454" stroke="none" stroke-width="0" stroke-linecap="butt"/><path d="M255.26033,145.55351c19.08632,-0.01476 23.11215,18.55746 23.12487,35.01504c0.01272,16.45757 2.38307,35.3687 -16.70324,35.38346c-12.74971,0.00985 -33.87714,-5.58541 -45.37277,-16.19998c-5.71335,-5.27545 -7.81437,-11.41032 -7.76958,-19.46714c0.05623,-10.1165 1.71453,-14.63703 8.17667,-20.07649c9.78198,-8.2339 27.05051,-14.646 38.54402,-14.65489z" fill="#545454" stroke="none" stroke-width="0" stroke-linecap="butt"/><path d="M271.60766,149.55028c15.95355,-0.01233 28.89712,13.74836 28.91025,30.73534c0.01313,16.98698 -12.90915,30.76766 -28.8627,30.77999c-15.95355,0.01233 -28.89707,-13.74836 -28.9102,-30.73534c-0.01313,-16.98698 12.90912,-30.76766 28.86267,-30.77999z" fill="#191d1a" stroke="none" stroke-width="0" stroke-linecap="butt"/><path d="M270.67299,150.72055c15.43683,-0.01193 27.9611,13.22549 27.97372,29.56656c0.01263,16.34111 -12.49117,29.59781 -27.928,29.60974c-15.43682,0.01193 -27.96109,-13.22548 -27.97372,-29.56655c-0.01263,-16.3411 12.49117,-29.59782 27.928,-29.60975z" fill="#020000" stroke="none" stroke-width="0" stroke-linecap="butt"/><path d="M221.93154,184.90738l-22.45425,0.01735l-0.00722,-9.35593l22.45424,-0.01735z" fill="#363835" stroke="none" stroke-width="0" stroke-linecap="butt"/><path d="M199.47729,184.92473c-1.93767,0.00149 -3.5101,-2.09167 -3.51209,-4.67526c-0.002,-2.58358 1.56717,-4.67918 3.50486,-4.68067c1.93767,-0.00149 3.5101,2.09168 3.51209,4.67526c0.002,2.58358 -1.56717,4.67918 -3.50486,4.68067z" fill="#5e6265" stroke="none" stroke-width="0" stroke-linecap="butt"/><path d="M274.4892,191.49776l16.29801,-0.51969l2.74446,1.51922l0.00088,1.141l-3.547,4.05964l-16.13781,-1.00177z" fill="url(#color-1)" stroke="#000000" stroke-width="0" stroke-linecap="round"/><path d="M284.89645,189.64301c2.30174,-0.00178 4.1691,1.8627 4.17088,4.16443c0.00178,2.30174 -1.86271,4.1691 -4.16444,4.17088c-2.30174,0.00178 -4.1691,-1.8627 -4.17088,-4.16443c-0.00178,-2.30174 1.86271,-4.1691 4.16444,-4.17088z" fill="#a80d03" stroke="none" stroke-width="0" stroke-linecap="butt"/><path d="M282.44166,191.13341c0.78095,-0.00061 1.41477,0.9652 1.4157,2.15715c0.00092,1.19198 -0.63141,2.15873 -1.41236,2.15933c-0.78095,0.00061 -1.41477,-0.9652 -1.4157,-2.15715c-0.00092,-1.19198 0.63141,-2.15873 1.41236,-2.15933z" fill="#e92218" stroke="none" stroke-width="0" stroke-linecap="butt"/><path d="M276.99496,173.12742l4.52868,-0.0035l3.66306,6.84403l-4.17514,6.70122l-3.48372,-0.14614z" fill="url(#color-2)" stroke="#000000" stroke-width="0" stroke-linecap="round"/><path d="M273.74251,163.29781l15.95727,-1.04582l3.51397,4.13124l0.00089,1.16268l-2.71166,1.55231l-16.11807,-0.50428z" data-paper-data="{&quot;index&quot;:null}" fill="url(#color-3)" stroke="#000000" stroke-width="0" stroke-linecap="round"/><path d="M279.81781,166.42725c-0.00178,-2.30174 1.8627,-4.16907 4.16444,-4.17084c2.30174,-0.00178 4.1691,1.86266 4.17088,4.1644c0.00178,2.30174 -1.8627,4.1691 -4.16444,4.17088c-2.30174,0.00178 -4.1691,-1.8627 -4.17088,-4.16444z" data-paper-data="{&quot;index&quot;:null}" fill="#a80d03" stroke="none" stroke-width="0" stroke-linecap="butt"/><path d="M280.1159,166.94797c-0.00092,-1.19195 0.63141,-2.15872 1.41236,-2.15933c0.78092,-0.00061 1.41477,0.9652 1.4157,2.15715c0.00092,1.19195 -0.63141,2.15873 -1.41236,2.15933c-0.78092,0.00061 -1.41477,-0.96521 -1.4157,-2.15716z" data-paper-data="{&quot;index&quot;:null}" fill="#e92218" stroke="none" stroke-width="0" stroke-linecap="butt"/><path d="M216.49771,180.77185c-0.12318,-32.18592 32.33194,-31.30051 32.33194,-31.30051l20.57876,8.2792c0,0 7.74324,5.84903 8.25994,21.94943c0.56804,17.70148 -7.64595,24.01091 -7.64595,24.01091l-20.31406,8.3108c0,0 -32.85874,-1.59847 -33.21062,-31.24982z" fill="url(#color-4)" stroke="#000000" stroke-width="0" stroke-linecap="round"/><path d="M257.39321,154.39035c10.80615,0.42864 19.59637,11.77951 19.60761,26.32895c0.01124,14.54944 -8.75248,26.12616 -19.56689,26.35925c-15.69968,0.33838 -14.6529,-11.94644 -14.66414,-26.49587c-0.01124,-14.54944 -1.51119,-26.83236 14.62343,-26.19234z" fill="#241d1f" stroke="none" stroke-width="0" stroke-linecap="butt"/><path d="M261.64878,156.46865c8.4593,0.3922 15.34156,10.75053 15.35182,24.02655c0.01026,13.27603 -6.84899,23.83863 -15.31467,24.05023c-12.28993,0.3072 -11.47171,-10.90233 -11.48198,-24.17836c-0.01026,-13.27603 -1.18569,-24.48401 11.44483,-23.89838z" fill="#a94c21" stroke="none" stroke-width="0" stroke-linecap="butt"/><path d="M276.41026,186.97044l-2.53002,0.44851c0,0 1.26736,6.18497 -1.18338,9.52696c-2.45073,3.34196 -6.06015,6.66465 -11.15827,6.55775c-5.09812,-0.10691 -8.45564,-1.3384 -8.48874,-5.94719c-0.0331,-4.60879 8.32254,-16.5282 8.32254,-16.5282c0,0 -8.59476,-11.2885 -8.64692,-18.00351c-0.036,-4.63415 5.19319,-5.33489 9.81983,-5.06832c4.67189,0.26919 4.85884,0.32769 8.63645,4.45868c3.7776,4.13098 2.53888,11.01252 2.53888,11.01252l2.38162,0.14702z" fill="#dc9438" stroke="#000000" stroke-width="0" stroke-linecap="round"/><path d="M229.20632,160.81027c6.82298,-0.00527 12.3609,8.78692 12.36929,19.63792c0.00839,10.85101 -5.51595,19.65175 -12.33892,19.65702c-6.82297,0.00527 -12.3609,-8.78692 -12.36929,-19.63792c-0.00839,-10.85101 5.51595,-19.65175 12.33892,-19.65702z" fill="#8a5964" stroke="none" stroke-width="0" stroke-linecap="butt"/><path d="M238.15308,181.64158l-21.43363,0.01657l-0.00196,-2.53034l21.43363,-0.01656z" fill="#623d3b" stroke="none" stroke-width="0" stroke-linecap="butt"/><path d="M270.1368,185.31606c3.20974,2.41365 3.37088,7.61636 0.35982,11.62058c-3.01106,4.00429 -8.05403,5.29373 -11.26381,2.88009c-3.20974,-2.41365 -3.37088,-7.61633 -0.35982,-11.62062c3.01106,-4.00429 8.05397,-5.29375 11.26378,-2.88008z" fill="#ffffff" stroke="#954116" stroke-width="0" stroke-linecap="butt"/><path d="M266.78234,186.95689c2.02773,0.01753 3.65466,0.96747 3.63387,2.12171c-0.02078,1.15428 -1.68144,2.07578 -3.70917,2.05826c-2.02773,-0.01753 -3.65462,-0.96748 -3.63386,-2.12171c0.02078,-1.15428 1.68142,-2.07578 3.70912,-2.05826z" fill="#3d0a00" stroke="none" stroke-width="0" stroke-linecap="butt"/><path d="M270.13136,203.02922c0,0 4.45054,7.01645 1.46326,10.18645c-2.98727,3.16997 -12.38299,5.6706 -15.09536,5.28741c-7.62896,-1.07782 -7.64732,-8.54441 -7.64732,-8.54441" fill="#533642" stroke="#000000" stroke-width="0" stroke-linecap="round"/><path d="M248.44314,151.7836c0,0 0.0068,-7.46661 7.6341,-8.55622c2.71177,-0.38738 12.11135,2.09868 15.10352,5.26407c2.99217,3.16536 -1.44751,10.1887 -1.44751,10.1887" data-paper-data="{&quot;index&quot;:null}" fill="#533642" stroke="#000000" stroke-width="0" stroke-linecap="round"/><path d="M259.20516,171.95524c-3.01725,-3.99964 -2.86416,-9.20257 0.34185,-11.62116c3.20603,-2.4186 8.25101,-1.13696 11.26825,2.86268c3.01725,3.9996 2.86415,9.20257 -0.34186,11.62116c-3.20608,2.41862 -8.25097,1.13696 -11.26821,-2.86268z" data-paper-data="{&quot;index&quot;:null}" fill="#ffffff" stroke="#954116" stroke-width="0" stroke-linecap="butt"/><path d="M267.11636,173.18214c-2.02767,0.02066 -3.68973,-0.89831 -3.71231,-2.05256c-0.02254,-1.15425 1.60289,-2.10666 3.63058,-2.12732c2.0277,-0.02066 3.68977,0.89828 3.71233,2.05253c0.02256,1.15425 -1.60289,2.10667 -3.63058,2.12736z" data-paper-data="{&quot;index&quot;:null}" fill="#3d0a00" stroke="none" stroke-width="0" stroke-linecap="butt"/><path d="M244.67947,152.16917l9.22812,-0.30868c0,0 -10.36732,6.74009 -9.2061,28.80565c1.31051,24.90237 8.20858,28.64143 8.20858,28.64143l-9.82326,0.6107c0,0 -7.61202,-7.66783 -7.76308,-29.99876c-0.15516,-22.93702 9.35574,-27.75033 9.35574,-27.75033z" fill="#906836" stroke="#000000" stroke-width="0" stroke-linecap="round"/><path d="M237.98669,205.90328c0,0 -2.81515,-6.43699 -3.67569,-9.50124c-0.8721,-3.10546 -1.52277,-9.00956 -1.52277,-9.00956c0,0 3.81987,-2.41197 6.0405,-3.16497c1.93579,-0.65642 6.54629,-1.10319 6.54629,-1.10319c0,0 2.69553,5.50935 3.52264,8.32941c1.04135,3.55058 2.23211,11.29185 2.23211,11.29185c0,0 -4.36343,1.98203 -6.37672,2.46574c-2.32324,0.55814 -6.76635,0.69191 -6.76635,0.69191z" fill="#a70a0d" stroke="#000000" stroke-width="0" stroke-linecap="round"/><path d="M235.75401,205.9051c0,0 -2.81516,-6.43699 -3.67569,-9.50124c-0.8721,-3.10546 -1.52276,-9.00956 -1.52276,-9.00956c0,0 3.8199,-2.41193 6.0405,-3.16493c1.93575,-0.65642 6.54624,-1.10319 6.54624,-1.10319c0,0 2.69554,5.50936 3.52265,8.32942c1.04135,3.55061 2.2321,11.29184 2.2321,11.29184c0,0 -4.36342,1.98203 -6.37671,2.46574c-2.32322,0.55818 -6.76636,0.69191 -6.76636,0.69191z" fill="#cb0c0f" stroke="#000000" stroke-width="0" stroke-linecap="round"/><path d="M236.7515,203.04474c0,0 -2.10813,-4.82042 -2.75258,-7.11512c-0.65311,-2.32556 -1.14035,-6.74692 -1.14035,-6.74692c0,0 2.86059,-1.80621 4.52351,-2.37013c1.44957,-0.49158 4.90227,-0.82613 4.90227,-0.82613c0,0 2.0186,4.12576 2.63795,6.23758c0.77983,2.65892 1.67157,8.456 1.67157,8.456c0,0 -3.26765,1.48427 -4.77528,1.84652c-1.73979,0.41797 -5.06704,0.51816 -5.06704,0.51816z" fill="#3ba9e8" stroke="#000000" stroke-width="0" stroke-linecap="round"/><path d="M244.26836,155.8292c2.01405,0.48059 6.38048,2.45588 6.38048,2.45588c0,0 -1.17879,7.7431 -2.21464,11.29527c-0.82276,2.82133 -3.50977,8.33485 -3.50977,8.33485c0,0 -4.61118,-0.43969 -6.54794,-1.09307c-2.22176,-0.74957 -6.04539,-3.15559 -6.04539,-3.15559c0,0 0.64154,-5.90509 1.50884,-9.0119c0.8558,-3.06561 3.661,-9.50691 3.661,-9.50691c0,0 4.44335,0.12686 6.76742,0.68145z" data-paper-data="{&quot;index&quot;:null}" fill="#a70a0d" stroke="#000000" stroke-width="0" stroke-linecap="round"/><path d="M235.26824,155.14937c0,0 4.44334,0.12686 6.76742,0.68145c2.01405,0.48059 6.38053,2.45588 6.38053,2.45588c0,0 -1.1788,7.74307 -2.21465,11.29528c-0.82276,2.82133 -3.50977,8.33485 -3.50977,8.33485c0,0 -4.61118,-0.43965 -6.54794,-1.09306c-2.22176,-0.74957 -6.04538,-3.15559 -6.04538,-3.15559c0,0 0.64154,-5.90509 1.50884,-9.0119c0.8558,-3.06557 3.661,-9.50691 3.661,-9.50691z" data-paper-data="{&quot;index&quot;:null}" fill="#cb0c0f" stroke="#000000" stroke-width="0" stroke-linecap="round"/><path d="M236.25915,157.97683c0,0 3.33975,0.0954 5.0866,0.51221c1.51379,0.36122 4.79581,1.84595 4.79581,1.84595c0,0 -0.88602,5.81991 -1.66466,8.48988c-0.61837,2.12061 -2.63804,6.26475 -2.63804,6.26475c0,0 -3.46598,-0.33044 -4.92171,-0.82158c-1.66995,-0.56341 -4.54391,-2.3719 -4.54391,-2.3719c0,0 0.48219,-4.43847 1.1341,-6.77365c0.64328,-2.3042 2.75174,-7.14572 2.75174,-7.14572z" data-paper-data="{&quot;index&quot;:null}" fill="#3ba9e8" stroke="#000000" stroke-width="0" stroke-linecap="round"/><path d="M257.31165,186.68882l-1.64436,8.27056l-5.06255,0.05945l1.6107,-8.88761z" fill="#733619" stroke="#000000" stroke-width="0" stroke-linecap="round"/><path d="M252.50378,174.03025l-1.62445,-8.88511l5.06264,0.05163l1.65714,8.26802z" data-paper-data="{&quot;index&quot;:null}" fill="#733619" stroke="#000000" stroke-width="0" stroke-linecap="round"/><path d="M325.45032,192.20826c1.86468,-0.00144 3.37865,2.97028 3.38148,6.63748c0.00284,3.66723 -1.50651,6.64133 -3.37121,6.64278c-1.86468,0.00144 -3.37863,-2.97032 -3.38145,-6.63756c-0.00284,-3.66723 1.50651,-6.64126 3.3712,-6.6427z" fill="#6d7071" stroke="none" stroke-width="0" stroke-linecap="butt"/><path d="M325.4513,193.48171c1.50709,-0.00116 2.73069,2.40065 2.73299,5.36456c0.00229,2.96392 -1.2176,5.36762 -2.72469,5.36879c-1.50709,0.00116 -2.73066,-2.40065 -2.73296,-5.36456c-0.00229,-2.96392 1.21757,-5.36762 2.72466,-5.36879z" fill="#000000" stroke="none" stroke-width="0" stroke-linecap="butt"/><g stroke-linecap="butt"><path d="M156.06908,231.87653c-0.39394,-0.40785 -2.87239,-2.64375 -3.54752,-3.3427c-0.72827,-0.75401 -0.69151,-2.06632 0.16616,-2.89474c4.03267,-3.89507 36.95853,-37.86433 43.57871,-44.69702c0.74507,-0.76897 1.6148,-0.78074 2.27038,-0.18874c1.34948,1.21864 3.53668,3.19374 4.29244,3.87622c0.50824,0.45896 0.63318,1.48674 -0.21866,2.36091c-7.12324,7.30951 -40.65462,41.70643 -44.17455,45.10629c-0.63931,0.61749 -1.85366,0.31119 -2.36692,-0.22021z" fill="none" stroke="url(#color-5)" stroke-width="1.25"/><path d="M255.32809,131.57363c0.53674,0.50768 0.85573,1.71877 0.24496,2.36449c-3.36285,3.55531 -37.40709,37.44469 -44.64167,44.64402c-0.8652,0.86094 -1.89424,0.74677 -2.35848,0.24336c-0.69035,-0.74858 -2.68823,-2.915 -3.92092,-4.25165c-0.59883,-0.64936 -0.59616,-1.51916 0.16497,-2.27223c6.76306,-6.6913 40.38599,-39.97074 44.23866,-44.04394c0.8194,-0.8663 2.13125,-0.91679 2.89284,-0.19644c0.70597,0.66778 2.9677,3.12271 3.37963,3.51236z" data-paper-data="{&quot;index&quot;:null}" fill="none" stroke="url(#color-6)" stroke-width="1.25"/><path d="M151.73084,132.1155c0.40785,-0.39394 2.64375,-2.87239 3.3427,-3.54752c0.75401,-0.72827 2.06632,-0.69151 2.89474,0.16616c3.89507,4.03267 37.86433,36.95853 44.69702,43.57871c0.76897,0.74507 0.78074,1.6148 0.18874,2.27038c-1.21864,1.34948 -3.19375,3.53668 -3.87623,4.29244c-0.45896,0.50824 -1.48674,0.63318 -2.36091,-0.21866c-7.30951,-7.12324 -41.70642,-40.65462 -45.10628,-44.17455c-0.61749,-0.63931 -0.31119,-1.85366 0.22021,-2.36692z" fill="none" stroke="url(#color-7)" stroke-width="1.25"/><path d="M252.03376,231.37452c-0.50768,0.53674 -1.71876,0.85573 -2.36449,0.24496c-3.55531,-3.36285 -37.44469,-37.40709 -44.64402,-44.64167c-0.86094,-0.8652 -0.74677,-1.89424 -0.24336,-2.35848c0.74858,-0.69035 2.915,-2.68823 4.25165,-3.92092c0.64936,-0.59883 1.51917,-0.59616 2.27224,0.16498c6.6913,6.76306 39.97073,40.38599 44.04393,44.23866c0.8663,0.8194 0.91679,2.13125 0.19644,2.89284c-0.66778,0.70597 -3.12271,2.9677 -3.51235,3.37963z" data-paper-data="{&quot;index&quot;:null}" fill="none" stroke="url(#color-8)" stroke-width="1.25"/><path d="M156.06908,231.87653c-0.39394,-0.40785 -2.87239,-2.64375 -3.54752,-3.3427c-0.72827,-0.75401 -0.69151,-2.06632 0.16616,-2.89474c4.03267,-3.89507 36.95853,-37.86433 43.57871,-44.69702c0.74507,-0.76897 1.6148,-0.78074 2.27038,-0.18874c1.34948,1.21864 3.53668,3.19374 4.29244,3.87622c0.50824,0.45896 0.63318,1.48674 -0.21866,2.36091c-7.12324,7.30951 -40.65462,41.70643 -44.17455,45.10629c-0.63931,0.61749 -1.85366,0.31119 -2.36692,-0.22021z" fill="#747379" stroke="none" stroke-width="0"/><path d="M156.21888,229.65278c-0.38014,-0.39355 -1.10646,-1.14553 -1.75793,-1.81999c-0.70277,-0.72759 -0.6673,-1.99391 0.16033,-2.79327c3.92996,-3.7959 36.4241,-36.92228 42.3852,-43.00116c0.60574,-0.61768 1.35483,-0.57877 1.91047,-0.07636c0.85013,0.76866 2.02401,1.83005 2.52248,2.28073c0.4511,0.40786 0.66198,1.33946 -0.03617,2.05172c-6.43438,6.56425 -39.46983,40.2573 -42.90038,43.57086c-0.61688,0.59584 -1.78874,0.30032 -2.28402,-0.21248z" fill="url(#color-9)" stroke="none" stroke-width="0"/><path d="M160.96804,229.51496l-6.07557,-6.01234l1.22701,-1.23992l6.07558,6.01234z" fill="#860000" stroke="none" stroke-width="0"/><path d="M164.52638,225.9192l-6.07558,-6.01234l1.22702,-1.23992l6.07557,6.01234z" fill="#860000" stroke="none" stroke-width="0"/><path d="M255.32811,131.57365c0.53674,0.50768 0.85573,1.71876 0.24497,2.36449c-3.36285,3.55531 -37.40709,37.44469 -44.64167,44.64403c-0.8652,0.86094 -1.89424,0.74677 -2.35848,0.24336c-0.69035,-0.74858 -2.68823,-2.915 -3.92092,-4.25165c-0.59883,-0.64936 -0.59615,-1.51916 0.16498,-2.27223c6.76306,-6.6913 40.38599,-39.97074 44.23866,-44.04394c0.8194,-0.8663 2.13125,-0.91679 2.89284,-0.19644c0.70597,0.66778 2.96769,3.12271 3.37963,3.51236z" data-paper-data="{&quot;index&quot;:null}" fill="#747379" stroke="none" stroke-width="0"/><path d="M253.10606,131.74665c0.51795,0.48988 0.82572,1.65858 0.23637,2.28167c-3.27748,3.46503 -36.62309,36.85117 -43.11965,43.35386c-0.70491,0.70556 -1.63867,0.50444 -2.05122,0.05764c-0.45587,-0.49373 -1.52949,-1.65643 -2.307,-2.49848c-0.5082,-0.55036 -0.55495,-1.29901 0.05637,-1.91118c6.01618,-6.02436 38.8008,-38.86329 42.55538,-42.83275c0.79066,-0.83595 2.05654,-0.88467 2.79145,-0.18955c0.68124,0.64437 1.44076,1.3628 1.83828,1.73879z" data-paper-data="{&quot;index&quot;:null}" fill="url(#color-10)" stroke="none" stroke-width="0"/><path d="M251.79092,137.73697l-6.07558,-6.01234l1.22701,-1.23992l6.07558,6.01234z" data-paper-data="{&quot;index&quot;:null}" fill="#860000" stroke="none" stroke-width="0"/><path d="M248.23259,141.33272l-6.07558,-6.01234l1.22702,-1.23991l6.07557,6.01233z" data-paper-data="{&quot;index&quot;:null}" fill="#860000" stroke="none" stroke-width="0"/><path d="M151.73084,132.11552c0.40785,-0.39394 2.64375,-2.87239 3.3427,-3.54752c0.75401,-0.72827 2.06632,-0.69152 2.89473,0.16616c3.89507,4.03267 37.86433,36.95853 44.69703,43.57871c0.76897,0.74507 0.78074,1.61481 0.18874,2.27039c-1.21864,1.34948 -3.19374,3.53668 -3.87622,4.29244c-0.45896,0.50824 -1.48674,0.63317 -2.36091,-0.21867c-7.30951,-7.12324 -41.70643,-40.65462 -45.10629,-44.17454c-0.61749,-0.63931 -0.31119,-1.85366 0.2202,-2.36693z" fill="#747379" stroke="none" stroke-width="0"/><path d="M153.95464,132.2653c0.39355,-0.38014 1.14553,-1.10646 1.81999,-1.75793c0.72759,-0.70277 1.99391,-0.6673 2.79327,0.16033c3.7959,3.92996 36.92228,36.4241 43.00116,42.3852c0.61768,0.60574 0.57878,1.35483 0.07637,1.91047c-0.76866,0.85013 -1.83005,2.02401 -2.28073,2.52248c-0.40786,0.4511 -1.33947,0.66198 -2.05172,-0.03617c-6.56424,-6.43438 -40.2573,-39.46983 -43.57086,-42.90038c-0.59584,-0.61688 -0.30031,-1.78874 0.21249,-2.28402z" fill="url(#color-11)" stroke="none" stroke-width="0"/><path d="M154.09244,137.0145l6.01234,-6.07558l1.23992,1.22701l-6.01234,6.07558z" fill="#860000" stroke="none" stroke-width="0"/><path d="M157.68818,140.57282l6.01234,-6.07558l1.23992,1.22701l-6.01234,6.07558z" fill="#860000" stroke="none" stroke-width="0"/><path d="M252.03377,231.37453c-0.50768,0.53674 -1.71876,0.85574 -2.36449,0.24497c-3.55531,-3.36285 -37.44469,-37.40709 -44.64402,-44.64167c-0.86094,-0.8652 -0.74677,-1.89424 -0.24336,-2.35849c0.74858,-0.69035 2.915,-2.68823 4.25165,-3.92092c0.64936,-0.59883 1.51916,-0.59615 2.27224,0.16498c6.6913,6.76306 39.97074,40.38599 44.04394,44.23866c0.8663,0.8194 0.91678,2.13125 0.19644,2.89284c-0.66778,0.70597 -3.12271,2.96769 -3.51235,3.37963z" data-paper-data="{&quot;index&quot;:null}" fill="#747379" stroke="none" stroke-width="0"/><path d="M251.86078,229.15249c-0.48988,0.51795 -1.65858,0.82572 -2.28167,0.23637c-3.46503,-3.27748 -36.85117,-36.62309 -43.35386,-43.11965c-0.70556,-0.70491 -0.50444,-1.63867 -0.05764,-2.05122c0.49373,-0.45587 1.65644,-1.52949 2.49849,-2.307c0.55036,-0.5082 1.299,-0.55495 1.91117,0.05637c6.02436,6.01618 38.86329,38.80081 42.83275,42.55538c0.83595,0.79066 0.88467,2.05654 0.18955,2.79144c-0.64437,0.68124 -1.36279,1.44076 -1.73879,1.83828z" data-paper-data="{&quot;index&quot;:null}" fill="url(#color-12)" stroke="none" stroke-width="0"/><path d="M245.87046,227.83735l6.01234,-6.07558l1.23992,1.22702l-6.01234,6.07557z" data-paper-data="{&quot;index&quot;:null}" fill="#860000" stroke="none" stroke-width="0"/><path d="M242.2747,224.27902l6.01234,-6.07558l1.23992,1.22702l-6.01234,6.07558z" data-paper-data="{&quot;index&quot;:null}" fill="#860000" stroke="none" stroke-width="0"/></g><path d="M309.37366,144.26548l-27.88137,0.02155l-0.01036,-13.40678l27.88137,-0.02155z" data-paper-data="{&quot;index&quot;:null}" fill="#757371" stroke="#3d3d3d" stroke-width="1" stroke-linecap="butt"/><path d="M305.98829,137.64583c-0.00284,-3.6672 1.50648,-6.64133 3.3712,-6.64277c1.86471,-0.00144 3.37865,2.97031 3.38148,6.63755c0.00284,3.6672 -1.50651,6.64127 -3.37122,6.64271c-1.86471,0.00144 -3.37862,-2.97028 -3.38145,-6.63748z" data-paper-data="{&quot;index&quot;:null}" fill="#6d7071" stroke="#3d3d3d" stroke-width="1" stroke-linecap="butt"/><path d="M309.37366,144.26548l-27.88137,0.02155l-0.01036,-13.40678l27.88137,-0.02155z" data-paper-data="{&quot;index&quot;:null}" fill="#757371" stroke="none" stroke-width="0" stroke-linecap="butt"/><path d="M303.90531,135.46435c0.0009,1.15544 -0.93505,2.09282 -2.09049,2.09371c-1.15544,0.0009 -2.09282,-0.93504 -2.0937,-2.09048c-0.0009,-1.15544 0.93505,-2.09283 2.09048,-2.09371c1.15544,-0.0009 2.09283,0.93505 2.09371,2.09049z" data-paper-data="{&quot;index&quot;:null}" fill="#1e1c1b" stroke="none" stroke-width="0" stroke-linecap="butt"/><path d="M294.08684,142.29404c-0.0007,-0.90425 0.97609,-1.63804 2.18177,-1.63897c1.20567,-0.00093 2.18363,0.73137 2.18433,1.6356c0.0007,0.90425 -0.97613,1.63804 -2.18179,1.63897c-1.20567,0.00093 -2.1836,-0.73137 -2.1843,-1.6356z" data-paper-data="{&quot;index&quot;:null}" fill="#1e1c1b" stroke="none" stroke-width="0" stroke-linecap="butt"/><path d="M299.17148,130.46523c1.00474,-0.00077 1.8195,0.40586 1.8199,0.90821c0.0004,0.50235 -0.81379,0.91022 -1.81849,0.91099c-1.00474,0.00077 -1.8195,-0.40582 -1.81989,-0.90817c-0.0004,-0.50235 0.81378,-0.91025 1.81849,-0.91102z" data-paper-data="{&quot;index&quot;:null}" fill="#1e1c1b" stroke="none" stroke-width="0" stroke-linecap="butt"/><path d="M305.98829,137.64583c-0.00284,-3.6672 1.50648,-6.64133 3.3712,-6.64277c1.86471,-0.00144 3.37865,2.97031 3.38148,6.63755c0.00284,3.6672 -1.50651,6.64127 -3.37122,6.64271c-1.86471,0.00144 -3.37862,-2.97028 -3.38145,-6.63748z" data-paper-data="{&quot;index&quot;:null}" fill="#6d7071" stroke="none" stroke-width="0" stroke-linecap="butt"/><path d="M306.63579,137.64524c-0.00229,-2.96392 1.21757,-5.36762 2.72466,-5.36879c1.50709,-0.00116 2.73068,2.40065 2.73298,5.36456c0.00229,2.96392 -1.2176,5.36762 -2.72469,5.36879c-1.50709,0.00116 -2.73066,-2.40065 -2.73296,-5.36456z" data-paper-data="{&quot;index&quot;:null}" fill="#000000" stroke="none" stroke-width="0" stroke-linecap="butt"/><path d="M260.70633,144.54171l-0.18722,-14.58566h30.33026l0.18722,18.79596z" fill="#545454" stroke="none" stroke-width="NaN" stroke-linecap="butt"/></g></g></svg>