<svg version="1.1" xmlns="http://www.w3.org/2000/svg" xmlns:xlink="http://www.w3.org/1999/xlink" width="31.68802" height="38.01442" viewBox="0,0,31.68802,38.01442"><g transform="translate(-224.15599,-160.99279)"><g data-paper-data="{&quot;isPaintingLayer&quot;:true}" fill-rule="nonzero" stroke-linejoin="miter" stroke-miterlimit="10" stroke-dasharray="" stroke-dashoffset="0" style="mix-blend-mode: normal"><path d="M252.48099,184.34817c1.07235,0.55386 0.05187,2.16508 -0.75995,3.7369c-0.81182,1.57181 -3.18117,1.98388 -3.18117,1.98388c0,0 -0.07563,-2.29974 0.30558,-3.03781c0.81182,-1.57181 2.56319,-3.23682 3.63554,-2.68296z" fill="none" stroke="#292929" stroke-width="2" stroke-linecap="butt"/><path d="M232.75906,191.87762l-3.66923,-3.20411l0.15504,-1.44701c0,0 1.50553,-1.01078 3.35915,0.46511c1.41836,1.12933 2.11885,4.13434 2.11885,4.13434z" fill="none" stroke="#292929" stroke-width="2" stroke-linecap="round"/><path d="M228.57888,187.25017l-4.03099,-0.55986l1.84753,-3.30317z" fill="#dad9da" stroke="#000000" stroke-width="0" stroke-linecap="round"/><path d="M227.17888,185.43235c-1.64575,-3.37077 -2.28544,-6.69538 -1.25113,-10.12998c1.0945,-3.63446 3.8419,-6.54793 7.41238,-8.2912c4.94687,-2.41528 11.9084,-1.05947 15.3481,1.11507c1.7984,1.13693 2.49704,3.81545 3.47145,5.8112c3.38727,6.93767 0.50344,15.31043 -6.4412,18.70111c-3.01302,1.47108 -6.89026,1.77261 -9.84335,0.40397c-1.35965,-0.63014 -7.45521,-5.06834 -8.69624,-7.61018z" fill="#2e2e2e" stroke="#434343" stroke-width="0" stroke-linecap="butt"/><path d="M243.45459,181.68179c4.22605,-7.93905 8.36817,-4.62442 8.36817,-4.62442c0,0 3.44362,3.45851 0.80755,8.64686c-3.51257,6.91355 -8.25319,5.83351 -8.25319,5.83351c0,0 -5.36554,-1.50932 -0.92254,-9.85594z" fill="#474747" stroke="none" stroke-width="0" stroke-linecap="butt"/><path d="M238.28438,166.09064c0,0 -1.81848,-1.2063 -7.90419,6.48507c-0.76831,1.16077 -1.71088,5.23379 -1.48516,8.1169c0.34769,4.44081 2.2377,7.90271 2.2377,7.90271c0,0 -4.99062,-1.604 -5.53219,-7.33684c-0.20768,-2.19853 -0.15563,-5.2553 1.19414,-7.74652c0.67224,-1.24071 1.66767,-2.43879 2.61263,-3.34788c1.45002,-1.80996 3.1621,-3.09815 4.47407,-3.71884c2.34228,-1.10812 4.40301,-0.35458 4.40301,-0.35458z" fill="#1e1e20" stroke="#000000" stroke-width="0" stroke-linecap="round"/><path d="M232.72144,174.04984c1.92065,0.72026 2.73839,3.27546 1.82646,5.70727c-0.91192,2.43179 -3.20818,3.81928 -5.12882,3.09904c-1.92065,-0.72026 -2.73839,-3.27546 -1.82646,-5.70727c0.91192,-2.43179 3.20818,-3.81928 5.12882,-3.09904z" fill="#ff8108" stroke="none" stroke-width="0" stroke-linecap="butt"/><path d="M242.12747,179.58009c2.50454,0 4.53485,2.23085 4.53485,4.98274c0,2.7519 -2.03033,4.98274 -4.53485,4.98274c-2.50454,0 -4.53485,-2.23085 -4.53485,-4.98274c0,-2.7519 2.03033,-4.98274 4.53485,-4.98274z" fill="#ff8108" stroke="none" stroke-width="0" stroke-linecap="butt"/><path d="M238.50428,165.03442c2.57075,-0.23233 4.76045,0.6524 4.8908,1.97609c0.13036,1.32369 -1.84799,2.58508 -4.41874,2.81742c-2.57075,0.23233 -4.76045,-0.6524 -4.8908,-1.97609c-0.13036,-1.32369 1.84799,-2.58509 4.41874,-2.81742z" fill="#ff8108" stroke="none" stroke-width="0" stroke-linecap="butt"/><path d="M252.481,184.34817c1.07235,0.55386 0.05187,2.16508 -0.75995,3.7369c-0.81182,1.57181 -3.18117,1.98388 -3.18117,1.98388c0,0 -0.07563,-2.29974 0.30558,-3.03781c0.81182,-1.57181 2.56319,-3.23682 3.63554,-2.68296z" fill="#ff8108" stroke="none" stroke-width="0" stroke-linecap="butt"/><path d="M247.58138,170.80203c1.31841,-0.7146 4.09832,1.26546 5.09036,3.36157c0.99205,2.09611 0.69743,4.31539 -0.65805,4.95691c-1.35548,0.64152 -3.59446,-0.64961 -4.5865,-2.74573c-0.99205,-2.09611 -1.64919,-4.59532 0.15418,-5.57276z" fill="#ff8108" stroke="none" stroke-width="0" stroke-linecap="butt"/><path d="M232.74036,187.85283c0.945,0.84505 1.20147,2.09997 0.57283,2.80297c-0.62864,0.70299 -1.90431,0.58782 -2.84932,-0.25723c-0.945,-0.84505 -1.20147,-2.09997 -0.57283,-2.80297c0.62864,-0.70299 1.90431,-0.58782 2.84932,0.25723z" fill="#ff8108" stroke="none" stroke-width="0" stroke-linecap="butt"/><path d="M246.66232,173.75757l-6.21443,0.05598l-0.61585,-4.31092" fill="none" stroke="#ff8108" stroke-width="1" stroke-linecap="round"/><path d="M232.4419,174.20546c0,0 0.64233,-1.79443 1.23168,-2.85527c0.58937,-1.06085 1.56761,-2.18345 1.56761,-2.18345" fill="none" stroke="#f74c00" stroke-width="0.75" stroke-linecap="round"/><path d="M230.42641,187.08222l-1.11971,-4.36691" fill="none" stroke="#f74c00" stroke-width="0.5" stroke-linecap="round"/><path d="M227.96304,176.05299l-0.44789,-3.86303" fill="none" stroke="#ff8108" stroke-width="0.5" stroke-linecap="round"/><path d="M234.4574,191.4491l3.58309,2.23944" fill="none" stroke="#f74c00" stroke-width="0.5" stroke-linecap="round"/><path d="M244.75879,192.90474l-3.47112,6.10247l-3.63909,-5.48662c0,0 1.2971,0.1785 2.23953,0.11326c1.34047,-0.0928 4.87068,-0.7291 4.87068,-0.7291z" fill="#a3a3a3" stroke="#000000" stroke-width="0" stroke-linecap="round"/><path d="M245.31866,166.81532l5.93451,-2.51937l-0.44789,6.88626c0,0 -1.12549,-2.24746 -2.05533,-2.98754c-0.89791,-0.71467 -3.43128,-1.37936 -3.43128,-1.37936z" fill="#a3a3a3" stroke="#000000" stroke-width="0" stroke-linecap="round"/><path d="M226.5074,173.47764l-2.35141,-6.83028l6.94225,1.39964c0,0 -0.03016,0.72866 -0.4544,1.21854c-0.37776,0.43623 -1.25453,1.17754 -2.10409,2.04516c-1.03642,1.05847 -2.03237,2.16693 -2.03237,2.16693z" fill="#a3a3a3" stroke="#000000" stroke-width="0" stroke-linecap="round"/><path d="M241.34366,198.78326l0.27993,-5.37465l2.79929,-0.3919z" fill="#dad9da" stroke="#000000" stroke-width="0" stroke-linecap="round"/><path d="M248.34189,168.04701c0,0 -0.64749,-0.53473 -1.03927,-0.72279c-0.50985,-0.24472 -2.03996,-0.56489 -2.03996,-0.56489l6.04648,-2.18345z" fill="#dad9da" stroke="#000000" stroke-width="0" stroke-linecap="round"/><path d="M229.3067,170.4544l-4.87077,-3.47113l6.66232,1.06372l-0.27993,1.11971z" fill="#dad9da" stroke="#000000" stroke-width="0" stroke-linecap="round"/><path d="M232.75907,191.87762l-3.66923,-3.20411l0.15504,-1.44701c0,0 1.50553,-1.01078 3.35915,0.46511c1.41836,1.12933 2.11885,4.13434 2.11885,4.13434z" fill="#ff4600" stroke="#000000" stroke-width="0" stroke-linecap="round"/><path d="M230.55815,188.9775l0.31616,-2.01549c0,0 1.14117,0.3108 1.65981,0.75087c0.51865,0.44007 0.94847,1.46222 0.94847,1.46222l-1.73886,1.14605z" fill="#ff8108" stroke="#000000" stroke-width="0" stroke-linecap="round"/><path d="M234.47057,175.61993l-2.41069,1.14605l-0.94847,3.47771l0.59279,2.6478c0,0 -1.47727,0.65272 -2.33164,0.31616c-0.85438,-0.33656 -1.58078,-1.85742 -1.58078,-1.85742l1.89693,-1.54125l0.67184,-3.39869l-0.55327,-1.77837c0,0 1.62458,-1.18199 2.72684,-0.94847c1.10226,0.23354 1.93646,1.93646 1.93646,1.93646z" fill="#ff4600" stroke="#000000" stroke-width="0" stroke-linecap="round"/><path d="M245.25938,188.06855l-1.65982,-2.72685l-1.85743,-0.31616l-2.25261,3.75434c0,0 -2.16711,-1.99521 -2.09454,-4.11002c0.078,-2.27272 1.69933,-3.43819 1.69933,-3.43819l2.56876,2.48973l1.34366,0.1976l2.17356,-3.20107c0,0 1.72193,2.10157 1.73886,3.67531c0.01692,1.57372 -1.65981,3.67532 -1.65981,3.67532z" fill="#ff4600" stroke="#000000" stroke-width="0" stroke-linecap="round"/><path d="M248.46045,188.74038c0,0 0.35341,-1.4822 0.86942,-2.33164c0.51604,-0.84945 1.69934,-1.89693 1.69934,-1.89693l0.03952,3.35915z" fill="#ff8108" stroke="#000000" stroke-width="0" stroke-linecap="round"/><path d="M248.1443,177.43782l2.37117,-2.09452l-3.59627,-4.11002c0,0 0.98852,-0.74269 1.65982,-0.59279c0.6713,0.1499 2.41069,1.50174 2.41069,1.50174l1.26461,4.8609l0.59279,1.58078c0,0 -1.32587,1.17431 -2.25261,0.94847c-0.92674,-0.22584 -2.4502,-2.09454 -2.4502,-2.09454z" fill="#ff4600" stroke="#000000" stroke-width="0" stroke-linecap="round"/><path d="M243.40196,167.8346l-4.22858,-1.34366l-1.77837,3.28011c0,0 -1.685,-0.19147 -2.30986,-0.51398c-0.59918,-0.30925 -1.36545,-1.38295 -1.36545,-1.38295l7.07398,-2.52924l2.60828,0.75087z" fill="#ff4600" stroke="#000000" stroke-width="0" stroke-linecap="round"/><path d="M233.50564,192.6808l-6.38238,2.23944l1.45563,-6.94225c0,0 2.19268,0.68379 3.03351,1.49721c0.87472,0.84621 1.89324,3.20559 1.89324,3.20559z" fill="#a3a3a3" stroke="#000000" stroke-width="0" stroke-linecap="round"/><path d="M227.23523,194.75228l4.25493,-5.26267l1.95951,3.07922z" fill="#dad9da" stroke="#000000" stroke-width="0" stroke-linecap="round"/><path d="M242.74331,182.32341c1.79338,0 3.24718,1.42874 3.24718,3.19119c0,1.76245 -1.45382,3.19119 -3.24718,3.19119c-1.79338,0 -3.24718,-1.42874 -3.24718,-3.19119c0,-1.76245 1.45382,-3.19119 3.24718,-3.19119z" fill="#dad9da" stroke="none" stroke-width="0" stroke-linecap="butt"/><path d="M244.3669,188.36989l-0.27993,-0.80931l0.50388,-2.44354l0.61585,-1.50594c0,0 0.97275,0.87995 0.61585,2.53c-0.23005,1.06358 -1.45563,2.2288 -1.45563,2.2288z" fill="#a3a3a3" stroke="#000000" stroke-width="0" stroke-linecap="round"/><path d="M249.01373,191.05721c0,0 0.2319,-2.19019 1.42354,-3.71905c0.9715,-1.24642 2.88736,-2.0475 2.88736,-2.0475l2.51937,6.3264z" fill="#a3a3a3" stroke="#000000" stroke-width="0" stroke-linecap="round"/><path d="M248.94823,175.51149c-1.14521,-2.26104 0.06551,-3.88136 0.06551,-3.88136l6.21443,0.61585l-2.91126,5.5426c0,0 -2.24792,0.29569 -3.36867,-2.27707z" fill="#a3a3a3" stroke="#000000" stroke-width="0" stroke-linecap="round"/><path d="M251.02923,186.69032c0.56853,-0.54533 1.67958,-1.11971 1.67958,-1.11971l3.1352,6.04648l-5.87852,-3.41513c0,0 0.4952,-0.96629 1.06373,-1.51162z" fill="#dad9da" stroke="#000000" stroke-width="0" stroke-linecap="round"/><path d="M248.90176,175.38115c-0.32301,-0.76142 -0.44789,-2.07148 -0.44789,-2.07148l6.66231,-0.72782l-5.09471,4.42288c0,0 -0.7967,-0.86217 -1.11971,-1.62359z" fill="#dad9da" stroke="#000000" stroke-width="0" stroke-linecap="round"/><path d="M240.78381,187.922c0,0 -1.38109,-1.11455 -1.11971,-2.79929c0.28074,-1.80963 1.95951,-2.63133 1.95951,-2.63133l2.07148,4.47886l-0.16796,0.3919l-2.7433,0.55986z" fill="#a3a3a3" stroke="#000000" stroke-width="0" stroke-linecap="round"/><path d="M232.66585,178.18045c-0.50769,3.02157 -3.24718,2.91126 -3.24718,2.91126l-3.35915,-3.91902l4.64682,-2.68732c0,0 2.47292,0.63948 1.9595,3.69507z" fill="#a3a3a3" stroke="#000000" stroke-width="0" stroke-linecap="round"/><path d="M232.77782,177.50862l-6.49436,-0.44789l4.42288,-2.57536c0,0 1.13582,0.48394 1.51162,1.06372c0.37579,0.5798 0.55986,1.95951 0.55986,1.95951z" fill="#dad9da" stroke="#000000" stroke-width="0" stroke-linecap="round"/><path d="M235.18522,166.42342l3.30317,-5.43063l3.80704,5.1507c0,0 -1.94749,1.68059 -3.23919,1.73972c-2.92625,0.13395 -3.87101,-1.45978 -3.87101,-1.45978z" fill="#dad9da" stroke="#000000" stroke-width="0" stroke-linecap="round"/><path d="M236.41691,167.43116l2.07148,-6.15844l2.96725,5.37465c0,0 -1.36459,1.06947 -2.4074,1.23168c-1.0428,0.16221 -2.63133,-0.44789 -2.63133,-0.44789z" fill="#a3a3a3" stroke="#000000" stroke-width="0" stroke-linecap="round"/></g></g></svg>