<svg version="1.1" xmlns="http://www.w3.org/2000/svg" xmlns:xlink="http://www.w3.org/1999/xlink" width="22.83857" height="23.6244" viewBox="0,0,22.83857,23.6244"><g transform="translate(-228.78656,-168.02551)"><g data-paper-data="{&quot;isPaintingLayer&quot;:true}" fill-rule="nonzero" stroke-linejoin="miter" stroke-miterlimit="10" stroke-dasharray="" stroke-dashoffset="0" style="mix-blend-mode: normal"><path d="M236.90253,170.73832c5.93427,-1.94724 12.22394,0.98138 14.0483,6.54128c1.82439,5.55988 -1.50735,11.64558 -7.44165,13.59283c-5.9343,1.94725 -12.22397,-0.98138 -14.04833,-6.54127c-1.82436,-5.55986 1.50738,-11.64559 7.44168,-13.59284z" fill="#d30000" stroke="#caebf0" stroke-width="0.35" stroke-linecap="butt"/><path d="M250.70769,182.05318c-0.89232,3.27681 -3.23583,2.99522 -3.23583,2.99522c0,0 1.79453,-1.41925 2.42766,-3.42692c0.63313,-2.00767 -0.05032,-5.43861 -0.05032,-5.43861c0,0 1.83547,2.79431 0.8585,5.87031z" fill="#860000" stroke="#000000" stroke-width="0" stroke-linecap="round"/><path d="M236.6374,175.035c-0.6732,-2.05158 0.52113,-4.28575 2.6676,-4.99008c2.1465,-0.70434 4.43232,0.38787 5.10552,2.43948c0.6732,2.05161 -0.52117,4.28576 -2.66764,4.99009c-2.1465,0.70434 -4.43228,-0.38785 -5.10548,-2.43947z" fill="#96b8c8" stroke="#caebf0" stroke-width="0" stroke-linecap="butt"/><path d="M232.60771,185.44253l1.95862,-7.09481l2.05322,-0.45125l-3.1536,8.04315z" fill="#ffffff" stroke="#000000" stroke-width="0" stroke-linecap="round"/><path d="M239.21567,168.41282c2.13079,-0.69917 4.39991,0.38505 5.0682,2.42165c0.66828,2.0366 -0.51734,4.25439 -2.64813,4.95357c-2.13079,0.69917 -4.39991,-0.38502 -5.06819,-2.42161c-0.66828,-2.0366 0.51733,-4.25443 2.64812,-4.9536z" fill="#ae7135" stroke="#caebf0" stroke-width="0.35" stroke-linecap="butt"/><path d="M240.85461,175.40078c-2.17047,0.51241 -2.96528,-0.98317 -2.96528,-0.98317c0,0 1.51099,0.6226 2.87585,0.36045c1.36484,-0.26211 2.98142,-1.76888 2.98142,-1.76888c0,0 -0.79808,1.99415 -2.89199,2.3916z" fill="#72502b" stroke="#000000" stroke-width="0" stroke-linecap="round"/></g></g></svg>