<svg version="1.1" xmlns="http://www.w3.org/2000/svg" xmlns:xlink="http://www.w3.org/1999/xlink" width="179.58048" height="186.35922" viewBox="0,0,179.58048,186.35922"><g transform="translate(-149.47098,-85.32531)"><g data-paper-data="{&quot;isPaintingLayer&quot;:true}" fill="none" fill-rule="nonzero" stroke-width="2" stroke-linecap="butt" stroke-linejoin="miter" stroke-miterlimit="10" stroke-dasharray="" stroke-dashoffset="0" style="mix-blend-mode: normal"><g><path d="M208.19499,118.24589c0,-17.62925 14.29133,-31.92058 31.92057,-31.92058c17.62925,0 31.92057,14.29133 31.92057,31.92058c0,17.62925 -14.29133,31.92056 -31.92057,31.92056c-17.62925,0 -31.92057,-14.29131 -31.92057,-31.92056z" stroke="#f27f21"/><path d="M209.89632,118.24589c0,-16.68964 13.52961,-30.21926 30.21925,-30.21926c16.68964,0 30.21924,13.52964 30.21924,30.21926c0,16.68964 -13.5296,30.21923 -30.21924,30.21923c-16.68964,0 -30.21924,-13.52962 -30.21924,-30.21923z" stroke="#feb133"/><path d="M211.77673,118.24589c0,-15.6511 12.68772,-28.33883 28.33882,-28.33883c15.65111,0 28.33883,12.68774 28.33883,28.33883c0,15.65111 -12.68771,28.33882 -28.33883,28.33882c-15.6511,0 -28.33882,-12.68774 -28.33882,-28.33882z" stroke="#ffed6e"/></g><g><path d="M264.21033,147.12541c0,-17.62925 14.29133,-31.92058 31.92057,-31.92058c17.62925,0 31.92057,14.29133 31.92057,31.92058c0,17.62925 -14.29133,31.92056 -31.92057,31.92056c-17.62925,0 -31.92057,-14.29131 -31.92057,-31.92056z" stroke="#f27f21"/><path d="M265.91166,147.12541c0,-16.68964 13.52961,-30.21926 30.21924,-30.21926c16.68964,0 30.21925,13.52964 30.21925,30.21926c0,16.68964 -13.5296,30.21923 -30.21924,30.21923c-16.68964,0 -30.21924,-13.52962 -30.21924,-30.21923z" stroke="#feb133"/><path d="M267.79207,147.12541c0,-15.6511 12.68772,-28.33883 28.33882,-28.33883c15.6511,0 28.33883,12.68774 28.33883,28.33883c0,15.65111 -12.68771,28.33882 -28.33883,28.33882c-15.65111,0 -28.33882,-12.68774 -28.33882,-28.33882z" stroke="#ffed6e"/></g><g><path d="M150.47098,144.64293c0,-17.62925 14.29133,-31.92058 31.92057,-31.92058c17.62925,0 31.92056,14.29133 31.92056,31.92058c0,17.62925 -14.29133,31.92056 -31.92056,31.92056c-17.62925,0 -31.92057,-14.29131 -31.92057,-31.92056z" stroke="#f27f21"/><path d="M152.17231,144.64293c0,-16.68964 13.52961,-30.21926 30.21924,-30.21926c16.68964,0 30.21924,13.52964 30.21924,30.21926c0,16.68964 -13.5296,30.21923 -30.21924,30.21923c-16.68964,0 -30.21924,-13.52962 -30.21924,-30.21923z" stroke="#feb133"/><path d="M154.05272,144.64293c0,-15.6511 12.68772,-28.33883 28.33882,-28.33883c15.6511,0 28.33883,12.68774 28.33883,28.33883c0,15.65111 -12.68771,28.33882 -28.33883,28.33882c-15.65111,0 -28.33882,-12.68774 -28.33882,-28.33882z" stroke="#ffed6e"/></g><g><path d="M151.12925,207.71359c0,-17.62925 14.29133,-31.92058 31.92057,-31.92058c17.62925,0 31.92056,14.29133 31.92056,31.92058c0,17.62925 -14.29133,31.92056 -31.92056,31.92056c-17.62925,0 -31.92057,-14.29131 -31.92057,-31.92056z" stroke="#f27f21"/><path d="M152.83058,207.71359c0,-16.68964 13.52961,-30.21926 30.21924,-30.21926c16.68964,0 30.21924,13.52964 30.21924,30.21926c0,16.68964 -13.5296,30.21923 -30.21924,30.21923c-16.68964,0 -30.21924,-13.52962 -30.21924,-30.21923z" stroke="#feb133"/><path d="M154.71099,207.71359c0,-15.6511 12.68772,-28.33883 28.33882,-28.33883c15.65111,0 28.33883,12.68774 28.33883,28.33883c0,15.65111 -12.68771,28.33882 -28.33883,28.33882c-15.65111,0 -28.33882,-12.68774 -28.33882,-28.33882z" stroke="#ffed6e"/></g><g><path d="M206.60188,238.76398c0,-17.62925 14.29133,-31.92058 31.92057,-31.92058c17.62925,0 31.92057,14.29133 31.92057,31.92058c0,17.62925 -14.29133,31.92056 -31.92057,31.92056c-17.62925,0 -31.92057,-14.29131 -31.92057,-31.92056z" stroke="#f27f21"/><path d="M208.30321,238.76398c0,-16.68964 13.52961,-30.21926 30.21924,-30.21926c16.68964,0 30.21925,13.52964 30.21925,30.21926c0,16.68964 -13.5296,30.21924 -30.21924,30.21924c-16.68964,0 -30.21924,-13.52962 -30.21924,-30.21924z" stroke="#feb133"/><path d="M210.18362,238.76398c0,-15.6511 12.68772,-28.33883 28.33882,-28.33883c15.6511,0 28.33883,12.68774 28.33883,28.33883c0,15.6511 -12.68771,28.33883 -28.33883,28.33883c-15.65111,0 -28.33882,-12.68774 -28.33882,-28.33883z" stroke="#ffed6e"/></g><g><path d="M262.69774,209.11064c0,-17.62925 14.29133,-31.92058 31.92057,-31.92058c17.62925,0 31.92057,14.29133 31.92057,31.92058c0,17.62925 -14.29133,31.92056 -31.92057,31.92056c-17.62925,0 -31.92057,-14.29131 -31.92057,-31.92056z" stroke="#f27f21"/><path d="M264.39907,209.11064c0,-16.68964 13.52961,-30.21926 30.21925,-30.21926c16.68964,0 30.21924,13.52964 30.21924,30.21926c0,16.68964 -13.5296,30.21923 -30.21924,30.21923c-16.68964,0 -30.21924,-13.52962 -30.21924,-30.21923z" stroke="#feb133"/><path d="M266.27948,209.11064c0,-15.6511 12.68772,-28.33883 28.33881,-28.33883c15.65111,0 28.33884,12.68774 28.33884,28.33883c0,15.65111 -12.68771,28.33882 -28.33884,28.33882c-15.6511,0 -28.33881,-12.68774 -28.33881,-28.33882z" stroke="#ffed6e"/></g></g></g></svg>