<svg version="1.1" xmlns="http://www.w3.org/2000/svg" xmlns:xlink="http://www.w3.org/1999/xlink" width="37.76288" height="57.04948" viewBox="0,0,37.76288,57.04948"><g transform="translate(-246.42167,-144.35587)"><g data-paper-data="{&quot;isPaintingLayer&quot;:true}" fill-rule="nonzero" stroke="none" stroke-linecap="butt" stroke-linejoin="miter" stroke-miterlimit="10" stroke-dasharray="" stroke-dashoffset="0" style="mix-blend-mode: normal"><path d="M284.18455,182.66223c0,10.35154 -8.45351,18.74311 -18.88144,18.74311c-10.42793,0 -18.88144,-8.39158 -18.88144,-18.74311c0,-10.35154 8.45351,-18.74311 18.88144,-18.74311c10.42793,0 18.88144,8.39158 18.88144,18.74311z" fill="#cc0105" stroke-width="0"/><path d="M280.84142,181.69395c0,7.37213 -5.90914,13.34842 -13.19844,13.34842c-7.2893,0 -13.19844,-5.97629 -13.19844,-13.34842c0,-7.37213 5.90914,-13.34842 13.19844,-13.34842c7.2893,0 13.19844,5.97629 13.19844,13.34842z" fill="#ff0104" stroke-width="0"/><path d="M278.09822,179.41158c0,2.59743 -1.88888,4.70307 -4.21893,4.70307c-2.33005,0 -4.21893,-2.10564 -4.21893,-4.70307c0,-2.59743 1.88888,-4.70307 4.21893,-4.70307c2.33005,0 4.21893,2.10564 4.21893,4.70307z" fill="#ffcdce" stroke-width="0"/><path d="M263.70332,164.80129c-0.50923,-0.1694 -1.02781,-0.34114 -1.57546,-0.49043c0.11471,0.22289 0.26102,0.38742 0.45679,0.45562c0.35659,0.12423 0.73546,0.09131 1.11867,0.03481zM260.15889,164.89047c-0.55371,-1.03088 -0.87521,-2.2611 -0.79358,-3.1206c0.07541,-0.79393 -0.1631,-1.91066 0.51064,-2.33739c0.63182,-0.40019 1.48581,0.30334 2.14602,0.65471c1.08965,0.57992 2.01472,1.80117 3.23356,2.43191c1.22965,0.13554 2.97837,0.3815 4.19116,0.11658c0.78759,-0.17203 2.1423,-1.43332 2.94346,-0.98998c1.19576,0.6617 0.64694,5.23577 0.15356,5.8211c-0.25442,0.30184 -2.98682,0.2659 -3.3623,0.24609c-2.87669,-0.15182 -5.64627,-0.61752 -8.50156,-0.97424c0,0 -1.02127,-0.12766 -0.89361,-1.14893c0.04405,-0.35238 0.19447,-0.56797 0.37264,-0.69922z" fill="#cd0000" stroke-width="0.5"/><path d="M269.05211,161.05888c0.00839,-0.05504 -0.08125,-0.14284 -0.31231,-0.27594zM268.7285,161.13821c-0.20278,-0.14719 -0.37401,-0.39576 -0.37401,-0.81555c0,-1.02922 1.02922,-1.02922 1.02922,-1.02922l1.19721,0.56894c0.19972,0.6403 0.82545,1.28949 0.59916,1.92089c-0.79827,2.22728 -5.64544,1.12558 -6.98337,0.41602c-1.11016,-0.58877 -1.20159,-1.36151 -2.42091,-1.26238c0,0 -1.02922,0 -1.02922,-1.02922c0,-1.02922 1.02922,-1.02922 1.02922,-1.02922c2.16083,0.09118 3.19222,1.82346 5.36868,2.08103c0.37158,0.04398 1.14443,0.17421 1.58402,0.17872z" fill="#ff0006" stroke-width="0.5"/><path d="M266.52642,155.37453c0.30536,0.17104 0.45804,0.4764 0.45804,0.4764l0.24698,0.73693c-0.00219,0.34997 -0.06057,0.69476 -0.15753,1.03286c0.0837,-0.04896 0.14646,-0.10687 0.17781,-0.17154c0.00371,-0.00766 0.00722,-0.01564 0.01054,-0.02395c-0.00844,-0.09035 -0.01437,-0.14496 -0.01437,-0.14574c0.0002,-0.2299 -0.00451,-0.48903 -0.00403,-0.75761c-0.12261,-0.67177 -0.39245,-1.47428 -0.54544,-1.78598c-0.09641,-0.19644 -0.16726,0.41479 -0.17189,0.63356c-0.00003,0.00168 -0.00008,0.00338 -0.00011,0.00506zM263.97809,153.76046c0.04988,-0.11904 0.1056,-0.21962 0.16796,-0.29584c1.04785,-1.28068 4.20076,-1.4143 5.27002,-0.06681c0.37218,0.46902 0.04418,1.19785 0.02063,1.79614c-0.04239,1.07704 0.26681,3.85473 -0.22755,4.73531c-0.86736,1.54501 -4.85911,1.77729 -6.03138,0.33517c-0.7461,-0.91784 -0.21798,-4.31288 -0.21798,-5.47479c0,0 0,-1.02192 1.0183,-1.02918z" fill="#b16c10" stroke-width="0.5"/><path d="M275.93761,149.83368c0.52953,0.88255 -0.35302,1.41207 -0.35302,1.41207l-0.67568,0.4052l-1.09315,0.68322c-0.16096,0.10429 -0.35287,0.16485 -0.55894,0.16485c-0.56842,0 -1.02922,-0.46079 -1.02922,-1.02922c0,-0.04352 0.0027,-0.08642 0.00795,-0.12852l0.0224,-0.20157c-0.32827,0.11887 -0.72839,0.11438 -1.07601,0.11438c0,0 -1.02922,0 -1.02922,-1.02922c0,-1.02922 1.02922,-1.02922 1.02922,-1.02922c0.99992,0 1.99652,0.16283 2.98011,0.34281l-0.06776,0.20105l0.43124,-0.25886c0,0 0.88255,-0.52953 1.41208,0.35302z" fill="#ff0000" stroke-width="0.5"/><path d="M269.73775,157.00284c0,-1.02922 1.02922,-1.02922 1.02922,-1.02922h0.13302c0.28474,-0.89552 1.22321,-0.6609 1.22321,-0.6609l1.08572,0.27143c0.45833,0.10401 0.80048,0.51391 0.80048,1.00371c0,0.43283 -0.26717,0.80325 -0.64559,0.95535l-0.94648,0.40563l-0.1182,-0.27579c-0.44489,0.21281 -0.91201,0.3513 -1.39384,0.35901h-0.13832c0,0 -1.02922,0 -1.02922,-1.02922z" fill="#ff0000" stroke-width="0.5"/><path d="M262.54201,153.81842c0.18308,0.07887 0.36208,0.1544 0.53534,0.22161c0.21552,0.01788 0.9726,0.14353 0.9726,1.02625c0,1.02922 -1.02922,1.02922 -1.02922,1.02922l-0.49005,-0.06197c-1.54665,-0.56243 -2.72381,-0.8579 -3.92073,-1.42131l-0.12122,0.30306l-1.361,-0.5444c-0.39088,-0.14596 -0.66924,-0.52273 -0.66924,-0.96452c0,-0.52419 0.39188,-0.95685 0.89865,-1.02101l1.92158,-0.27451l0.00296,0.02074l0.06963,-0.0285c0.81762,-0.00066 1.63666,-0.04325 2.44916,-0.13461c0,0 1.02293,-0.11366 1.13658,0.90927c0.0555,0.49947 -0.15998,0.78216 -0.39505,0.94068z" fill="#ff0000" stroke-width="0.5"/><path d="M270.16595,149.85522c-0.46028,0.92056 -1.38084,0.46028 -1.38084,0.46028l-0.59781,-0.38908c-0.84911,-0.99185 -2.03808,-1.90634 -2.83533,-2.93137c-0.08208,0.23476 -0.19423,0.48711 -0.24926,0.65358c-0.38819,1.17448 -0.52181,2.425 -0.64288,3.64695c0,0 -0.10241,1.02411 -1.12652,0.9217c-1.02411,-0.10241 -0.9217,-1.12652 -0.9217,-1.12652c0.16275,-1.6136 0.26718,-3.79542 1.20941,-5.19777c0.37118,-0.55244 0.63839,-1.39643 1.29192,-1.52237c0.63846,-0.12304 1.1879,0.55255 1.70669,0.94451c1.12395,0.84917 2.20601,2.19429 3.13056,3.27168l-0.04451,-0.11242c0,0 0.92056,0.46028 0.46029,1.38084z" fill="#ff0000" stroke-width="0.5"/><path d="M267.18669,150.97457c-0.39928,-0.05356 -0.80479,-0.02609 -1.2667,0.19588c0.23616,-0.06022 0.69985,-0.1603 0.90991,-0.17456c0.12067,-0.00819 0.23951,-0.01538 0.35679,-0.02132zM263.58054,151.97375c-0.00235,-0.00599 -0.00469,-0.01201 -0.00698,-0.01805c-0.27227,-0.71527 0.51626,-1.44097 0.77438,-2.16146c0.4635,-0.27414 0.87963,-0.65212 1.39049,-0.82241c0.88619,-0.2954 1.87197,0.15121 2.77514,0.3897c2.03012,0.53607 3.88461,-0.95781 4.78003,2.0249c0.47312,1.57601 -1.69365,5.69394 -3.72939,5.19248c-1.46724,-0.36142 -0.34477,-1.79198 -0.96199,-2.50279c-0.90084,-1.03745 -3.73763,-0.06271 -4.88985,-0.0555c0,0 -1.02922,0 -1.02922,-1.02922c0,-0.79865 0.61973,-0.97757 0.8974,-1.01765z" fill="#e4c200" stroke-width="0.5"/></g></g></svg>