<svg version="1.1" xmlns="http://www.w3.org/2000/svg" xmlns:xlink="http://www.w3.org/1999/xlink" width="170.43756" height="186.76633" viewBox="0,0,170.43756,186.76633"><defs><linearGradient x1="182.99007" y1="161.34575" x2="175.48444" y2="197.40686" gradientUnits="userSpaceOnUse" id="color-1"><stop offset="0" stop-color="#e4e1e8"/><stop offset="1" stop-color="#ccd2d9"/></linearGradient><linearGradient x1="181.99345" y1="166.31566" x2="176.53851" y2="192.52413" gradientUnits="userSpaceOnUse" id="color-2"><stop offset="0" stop-color="#e4e1e8"/><stop offset="1" stop-color="#ccd2d9"/></linearGradient></defs><g transform="translate(-147.80351,-84.90062)"><g data-paper-data="{&quot;isPaintingLayer&quot;:true}" fill-rule="nonzero" stroke-linejoin="miter" stroke-miterlimit="10" stroke-dasharray="" stroke-dashoffset="0" style="mix-blend-mode: normal"><path d="M190.83509,234.92226c-0.79979,0.11745 -2.14378,0.02918 -2.81086,-1.63851c-0.98611,-2.46525 1.47916,-3.45135 1.47916,-3.45135l2.49201,-0.88477c3.15743,-0.31289 6.77144,0.17913 9.83635,-0.62879c1.73289,-0.45679 3.19675,-1.75675 4.70597,-2.58525c3.70485,-2.03379 8.18359,-4.37968 12.26996,-5.55255c2.58126,-0.74086 4.28637,-0.30012 6.9189,-0.446c7.64658,-0.42375 15.34008,-0.62673 22.96371,-1.43462c11.99805,-0.74839 23.28292,0.94589 35.13826,2.14764c4.55892,0.46212 8.94997,0.01151 13.50465,1.12961c5.77022,1.41649 16.51173,3.774 16.5196,11.33562c0.00243,2.33135 -2.18311,4.13599 -2.98466,6.32521c-2.23189,6.09586 -5.02394,11.85577 -7.95067,17.70219c-2.03433,3.39409 -3.74438,8.02857 -7.49775,9.94026c-3.32331,1.69264 -6.75803,0.82058 -10.21766,0.63662c-3.32037,-0.17656 -6.96704,-0.18681 -10.29065,0c-9.38295,0.52738 -18.86943,-0.59514 -28.26765,0.35011c-5.72833,0.57614 -11.3931,1.73955 -17.11286,2.44823c-3.26077,0.72461 -6.81603,1.76292 -10.14331,0.61075c-5.25551,-1.81987 -8.14891,-8.40169 -10.67813,-12.89817c-4.92349,-8.75305 -10.18821,-16.61992 -17.87439,-23.10623z" fill="#64789f" stroke="none" stroke-width="0.5" stroke-linecap="butt"/><path d="M298.81985,235.63897v-108.8614h14.76101c0.51312,0.63834 1.09853,1.21611 1.74379,1.72089v107.14051z" fill="#64789f" stroke="none" stroke-width="0" stroke-linecap="butt"/><path d="M212.08477,260.42043v-37.88023h92.75345v37.88023z" fill="#64789f" stroke="none" stroke-width="0" stroke-linecap="butt"/><path d="M173.14246,234.93094v-8.85053h140.19225v8.85053z" fill="#64789f" stroke="none" stroke-width="0" stroke-linecap="butt"/><path d="M161.45978,229.97465v-80.71675h153.64504v80.71675z" fill="#64789f" stroke="none" stroke-width="0" stroke-linecap="butt"/><path d="M307.18672,123.56564l8.55115,8.88005l-0.32889,103.92947l-17.10232,32.77954l-81.56489,-0.65777l-22.61058,-31.71914l-31.57351,-6.24893l-1.64445,-80.95193" fill="none" stroke="#c70000" stroke-width="5" stroke-linecap="round"/><path d="M274.77008,178.29636c-0.33602,0.1634 -0.75377,0.26496 -1.27306,0.26496c-2.65516,0 -2.65516,-2.65516 -2.65516,-2.65516v-1.22451c0,-3.05594 0.0026,-6.11157 0.01586,-9.16749c2.99756,-13.71821 3.192,-28.66953 2.10603,-42.64139c-0.40514,-5.21254 -0.22963,-9.57998 0.02376,-14.74165c0.11271,-2.29612 -1.2289,-4.86265 -0.1543,-6.89491c0.95948,-1.81456 3.01622,-2.78486 4.52435,-4.17728c8.0188,2.88974 14.19872,6.91357 20.55548,12.57402c2.75366,2.45203 5.78852,4.87645 6.90668,8.58106c1.49637,4.95764 0.37762,11.51798 0.41478,16.65224c0.07084,9.78982 0.66868,19.44271 -0.94354,29.15974c-0.80187,7.23783 0.31598,14.53575 -0.60749,21.69901c-0.32691,2.5358 -0.95083,8.43089 -4.53918,9.05052c-1.75653,0.30331 -4.85041,-4.4573 -5.98314,-5.8811c-4.37254,-5.49621 -11.80659,-8.58246 -18.39104,-10.59802z" fill="#647390" stroke="none" stroke-width="0.5" stroke-linecap="butt"/><path d="M211.14524,190.70445c-0.20968,0.71923 -0.88322,2.1676 -2.87713,1.91836c-2.63465,-0.32932 -2.30531,-2.96398 -2.30531,-2.96398l0.28562,-2.11971c0,-4.19054 0.14889,-8.0318 0.96995,-12.15366c0.6047,-2.95399 0.39652,-5.52061 0.56476,-8.50388c0.2427,-4.30365 1.01204,-8.52379 1.22375,-12.84289c0.19202,-3.91749 -0.43724,-7.80224 -0.6136,-11.70491c-0.50033,-11.07178 0.6103,-22.10751 0.6103,-33.16393c0.05497,-1.42954 -0.31135,-2.93963 0.16493,-4.28863c2.10623,-5.96576 10.09004,-8.02916 15.39248,-9.07229c2.46905,-0.48573 8.2982,-1.8533 10.88569,-0.19637c3.89887,2.4967 3.0497,9.96665 3.05149,13.86341c0.00285,6.18314 -0.19758,12.40062 -0.00169,18.57928c0.17986,5.67317 0.87284,11.07473 0.30452,16.75793c-0.00194,6.98298 -0.85306,13.85756 -1.22451,20.81684c-0.21282,3.98736 1.2318,9.90969 -2.35313,13.06317c-1.00504,0.88409 -2.66613,0.25836 -3.9887,0.46455c-2.0412,0.31823 -3.06588,0.74642 -5.01849,1.61962c-5.75547,2.57378 -10.15388,6.20202 -15.07093,9.92709z" fill="#647390" stroke="none" stroke-width="0.5" stroke-linecap="butt"/><path d="M304.92524,130.46194c-1.69979,2.03975 -3.73953,0.33996 -3.73953,0.33996l-1.32441,-1.19555c-11.8643,-5.93215 -23.91851,-10.93272 -36.9018,-13.83759c-7.07507,-0.78668 -13.68174,1.46272 -20.62399,2.45907c-10.94806,1.57128 -21.00558,2.69775 -31.01997,7.70496c0,0 -2.37485,1.18743 -3.56228,-1.18742c-1.18742,-2.37485 1.18742,-3.56227 1.18742,-3.56227c4.66342,-2.3317 9.59833,-4.65127 14.73916,-5.73716c5.827,-1.23084 12.01663,-1.63797 17.91591,-2.47663c7.5466,-1.07287 14.52827,-3.29474 22.23422,-2.43901c13.51122,2.98399 26.06805,8.15731 38.40619,14.32638l2.34915,1.86575c0,0 2.03974,1.69978 0.33995,3.73953z" fill="#434d62" stroke="none" stroke-width="0.5" stroke-linecap="butt"/><path d="M304.76294,166.76298c-1.87747,1.87747 -3.75495,0 -3.75495,0l-0.1566,-0.16766c-8.57788,-7.35247 -19.91213,-11.3429 -30.27205,-15.70122c-5.24406,-1.02811 -10.36865,-1.06282 -15.66915,-1.42416c-15.12495,-1.0311 -29.75302,-0.76337 -43.59469,6.15747c0,0 -2.37485,1.18743 -3.56228,-1.18742c-1.18742,-2.37485 1.18742,-3.56227 1.18742,-3.56227c14.74714,-7.37357 30.29188,-7.79795 46.40754,-6.7c5.69416,0.38794 11.15595,0.49477 16.78063,1.63714c11.0605,4.57045 23.04401,8.91902 32.17847,16.74857l0.45566,0.4446c0,0 1.87747,1.87748 0,3.75495z" fill="#434d62" stroke="none" stroke-width="0.5" stroke-linecap="butt"/><path d="M303.46066,195.73044c-2.37485,1.18742 -3.56227,-1.18742 -3.56227,-1.18742l-0.18285,-0.39246c-2.00491,-3.34571 -4.83342,-4.1978 -8.0221,-6.1896c-2.94186,-1.83762 -5.64034,-4.22266 -8.85437,-5.64347c-5.8008,-2.56433 -12.67717,-3.05096 -18.85473,-4.08271c-6.34303,-0.5287 -13.3738,-1.54773 -19.67773,-0.334c-6.99536,1.34684 -14.3225,3.28458 -20.74823,6.50403c-5.09875,2.5546 -9.63338,5.84924 -14.51325,8.77854c0,0 -2.27677,1.36606 -3.64285,-0.91071c-1.36606,-2.27677 0.91071,-3.64285 0.91071,-3.64285c4.99837,-2.99757 9.64642,-6.36758 14.87522,-8.97701c6.85294,-3.41996 14.64179,-5.55722 22.10998,-6.9657c6.8945,-1.30028 14.40691,-0.29971 21.3437,0.27825c6.70539,1.11528 14.02702,1.72658 20.3299,4.48893c3.4589,1.51594 6.35569,4.01468 9.51344,5.98947c3.9538,2.47263 7.1065,3.81135 9.73343,7.89237l0.4294,0.83207c0,0 1.18743,2.37484 -1.18742,3.56227z" fill="#434d62" stroke="none" stroke-width="0.5" stroke-linecap="butt"/><path d="M236.24916,171.0965c0,-4.64913 0,-9.29826 0,-13.94739c0,-6.89865 1.4965,-13.76943 0.92351,-20.65185c-0.59501,-7.14699 -1.25994,-14.21545 -1.83274,-21.37364c-0.30764,-3.8445 -0.95828,-8.06504 -0.62027,-11.93138c0.20064,-2.29518 -0.271,-4.88694 0.9387,-6.84775c0.77964,-1.26373 2.77871,-1.0549 4.20063,-1.48267c2.86374,-0.86154 5.42674,-1.09038 8.18752,-2.3326c8.5316,-2.81992 15.24068,-2.19734 23.53498,0.56885c1.65931,0.55339 6.19951,1.92606 7.0898,3.05395c0.91796,1.16293 0.73889,2.88551 0.84832,4.36303c0.2243,3.02819 -0.33601,6.71266 -0.62428,9.74233c-1.02444,10.76671 -1.18111,21.50871 -1.81451,32.26173c-0.47493,7.79537 -1.59975,15.45577 -1.84795,23.27143c-0.07384,2.32555 0.4805,7.07912 -1.69929,8.80835c-1.81985,1.4437 -7.86538,-0.47935 -10.12593,-0.7289c-7.46683,-0.82427 -14.80187,-0.65092 -22.13882,0.74549c-0.31695,0.6912 -0.9795,1.41366 -2.3645,1.41366c-1.93764,0 -2.46126,-1.41401 -2.60276,-2.17825c-0.1232,-0.22985 -0.22449,-0.50064 -0.2953,-0.8193c-0.18683,-0.84077 -0.04034,-1.46943 0.2429,-1.9351z" fill="#798cb2" stroke="none" stroke-width="0.5" stroke-linecap="butt"/><path d="M305.66268,202.43564c-2.46525,0.98609 -3.45135,-1.47915 -3.45135,-1.47915l-0.52185,-1.32932c-3.43366,-7.02452 -10.14426,-10.85469 -16.67949,-14.48424c-7.95375,-4.41736 -16.75404,-7.99694 -25.90485,-8.85774c-18.5072,-1.87165 -33.29881,10.51184 -46.37639,21.72146c0,0 -2.01594,1.72795 -3.74389,-0.28798c-1.72795,-2.01594 0.28798,-3.74389 0.28798,-3.74389c3.74429,-3.2093 7.60575,-6.45211 11.62794,-9.45425c0.07449,-1.39974 1.23304,-2.51177 2.65135,-2.51177c0.24418,0 0.48066,0.03297 0.70524,0.09468c10.44185,-7.23126 21.99643,-12.42628 35.37617,-11.10219c9.90282,1.03882 19.33696,4.71015 27.97403,9.51007c7.56447,4.20384 14.76256,8.74373 18.8316,16.74102l0.70267,1.73197c0,0 0.98609,2.46525 -1.47916,3.45135z" fill="#8d9ab0" stroke="none" stroke-width="0.5" stroke-linecap="butt"/><path d="M279.86921,180.8443c2.61607,0.37708 5.2334,0.75766 7.823,1.36242c4.78158,2.91423 9.69261,5.91191 13.89715,9.63521c1.74477,1.54508 4.74138,4.52928 5.14026,6.95002c0.27423,1.66423 0.14337,3.61692 -0.8354,4.99057c-0.84246,1.18235 -2.62968,1.23575 -3.98037,1.76805c-2.96688,1.16923 -7.04344,2.14677 -10.16264,0.83496c-2.81227,-1.18274 -5.13096,-4.63544 -7.57505,-6.43281c-5.98411,-4.40066 -12.3971,-7.80863 -19.23794,-10.65939c-0.78394,-0.26114 -5.38458,-1.856 -6.46237,-1.99781c-4.86186,-0.63969 -10.40631,0.84529 -15.18524,1.52665c-4.9974,0.71251 -10.52705,1.31589 -14.86161,4.19616c-3.62092,2.40608 -5.88739,7.42398 -9.56222,9.53492c-2.10806,1.21094 -4.59861,0.97878 -6.87641,0.99064c0,0 -2.65516,0 -2.65516,-2.65516c0,-0.30564 0.03518,-0.5761 0.09746,-0.81541c-0.0635,-0.22755 -0.09746,-0.46743 -0.09746,-0.71525c0,-0.81271 0.36515,-1.54013 0.94032,-2.02718l2.12981,-1.82555l0.00388,0.00452c0.00084,-0.00334 0.00169,-0.00667 0.00256,-0.01002c0.45208,-1.74651 2.69821,-2.4011 4.13602,-3.49076c1.45355,-1.10158 3.07693,-1.90632 4.6798,-2.75213c5.88476,-4.9789 12.39361,-8.6903 19.70786,-10.74974c5.43249,-2.13921 11.08697,-3.48711 16.49186,-3.23024c3.9202,0.18629 8.10074,1.12965 12.0335,1.58097c3.15246,0.93533 6.11355,1.90411 9.11976,3.23665l0.72132,0.35759c0,0 0.26135,0.13069 0.56731,0.39204zM243.33508,183.373c-0.1074,0.0407 -0.21464,0.08165 -0.32172,0.12283c2.15625,-0.32283 4.41564,-0.74811 6.69553,-1.08553c-1.06396,-0.01024 -2.15099,0.06799 -3.28277,0.27746c-1.0496,0.19425 -2.07956,0.42298 -3.09104,0.68524z" fill="#4b5b71" stroke="none" stroke-width="0.5" stroke-linecap="butt"/><path d="M311.86804,228.74599c1.87747,1.87747 0,3.75497 0,3.75497l-0.47484,0.33036c-3.89395,7.00459 -8.02501,13.35925 -12.70625,19.8384c-2.04701,2.83319 -3.53815,6.98873 -6.96649,8.57076c-2.68332,1.23824 -7.25794,-0.331 -9.98065,-0.74551c-3.77403,-0.57457 -7.45844,0.02492 -11.24001,0.02923c-6.83716,0 -13.70242,0.0164 -20.49611,-0.00004c-3.97429,-0.00962 -7.97654,1.21746 -11.95367,1.22456c-1.8927,0.00338 -3.77982,-0.41495 -5.66963,-0.3102c-4.43799,0.246 -10.7417,1.42183 -15.08613,0.25236c-4.98491,-1.34188 -4.70293,-3.82256 -6.66271,-7.72726c-3.79717,-6.06085 -7.07049,-12.04175 -11.42535,-17.74638c-1.96588,-2.5752 -3.21721,-4.53942 -6.30803,-5.91855c-6.89479,-3.07644 -16.40783,-1.30589 -23.7274,-1.30589c0,0 -2.65516,0 -2.65516,-2.65516c0,-2.65516 2.65516,-2.65516 2.65516,-2.65516c8.20372,0 18.13051,-1.67301 25.86567,1.75542c3.90636,1.7314 5.89368,4.29703 8.38622,7.55118c4.51624,5.8962 7.92642,12.10052 11.84053,18.37697c0.7506,1.50576 0.79326,3.36494 1.79291,4.71824c0.51393,0.69575 3.78533,0.35485 3.85065,0.35412c3.75097,-0.04121 7.44385,-0.11488 11.17998,-0.30207c1.98782,-0.09959 3.973,0.29792 5.9633,0.30207c3.96192,0.00827 7.95617,-1.21571 11.92449,-1.22447c6.80092,-0.01503 13.67968,-0.00004 20.5253,-0.00004c4.06223,0.0051 7.96082,-0.57217 12.02587,0.02923c1.25889,0.18624 5.83024,1.74826 7.16263,1.09126c2.01195,-0.99208 3.42773,-5.01996 4.66646,-6.73574c4.56945,-6.32923 8.59482,-12.49876 12.3964,-19.34625l1.36194,-1.50642c0,0 1.87747,-1.87747 3.75495,0z" fill="#64789f" stroke="none" stroke-width="0.5" stroke-linecap="butt"/><path d="M291.65054,255.58506c-2.65516,0 -2.65516,-2.65516 -2.65516,-2.65516l0.01318,-1.67281c1.48482,-14.66725 -0.25135,-29.6337 -0.29491,-44.24781c0,0 0,-2.65516 2.65516,-2.65516c2.65516,0 2.65516,2.65516 2.65516,2.65516c-0.01427,4.10079 0.66355,8.17105 0.84288,12.28541c0.1645,3.77398 -0.27943,7.59066 -0.27943,11.37921c0,7.00457 0.39457,14.13857 -0.29491,21.1116l0.01318,1.14442c0,0 0,2.65516 -2.65516,2.65516z" fill="#e4e4f6" stroke="none" stroke-width="0.5" stroke-linecap="butt"/><path d="M255.02675,254.17645c-2.65516,0 -2.65516,-2.65516 -2.65516,-2.65516l0.00916,-1.75156c-0.16212,-1.97738 -0.41057,-3.95279 -0.80277,-5.89765c0,0 -0.52072,-2.60359 2.08287,-3.12431c2.60359,-0.52072 3.12431,2.08287 3.12431,2.08287c0.42567,2.14429 0.70334,4.31973 0.88755,6.49809l0.00918,2.19255c0,0 0,2.65516 -2.65516,2.65516z" fill="#e4e4f6" stroke="none" stroke-width="0.5" stroke-linecap="butt"/><path d="M255.87191,234.73767c-2.65516,0 -2.65516,-2.65516 -2.65516,-2.65516l0.01318,-1.70786c-0.37769,-3.81986 -0.1145,-7.56336 -0.81552,-11.33982c0,0 -0.47496,-2.61232 2.13736,-3.08729c2.61233,-0.47496 3.0873,2.13736 3.0873,2.13736c0.70388,3.94224 0.47304,7.79266 0.87481,11.76135l0.01318,2.23625c0,0 0,2.65516 -2.65516,2.65516z" fill="#e4e4f6" stroke="none" stroke-width="0.5" stroke-linecap="butt"/><path d="M255.60772,210.77815c-2.64197,-0.2642 -2.37778,-2.90617 -2.37778,-2.90617l0.27184,-2.68528c-0.00409,-3.33656 -0.0033,-6.67314 -0.0033,-10.00971c0,0 0,-2.65516 2.65516,-2.65516c2.65516,0 2.65516,2.65516 2.65516,2.65516c0,3.42476 0.00053,6.8495 -0.0033,10.27424l-0.2916,2.94914c0,0 -0.2642,2.64197 -2.90617,2.37778z" fill="#e4e4f6" stroke="none" stroke-width="0.5" stroke-linecap="butt"/><path d="M164.56046,99.99609c-2.03133,-1.02658 -1.19339,-3.26106 -1.19339,-3.26106l2.81054,-3.92507c8.86193,-1.76266 18.18427,-2.03695 27.19078,-2.01693c5.69062,0.81295 11.46748,0.64663 17.20887,1.12869c2.6376,0.22146 6.01899,0.05986 8.14501,2.1778c3.51205,3.4987 1.78006,9.35414 1.62011,13.54838c-0.2151,5.64042 0.41251,11.35792 -0.005,16.98544c-0.25417,3.42586 -1.6063,6.11725 -2.30477,9.36796c-0.5902,2.74678 -0.28496,5.91096 -0.5158,8.70212c-0.42783,4.22801 -0.0015,8.46997 -0.56438,12.68741c-0.17737,1.32897 0.09634,2.86568 -0.66956,3.96614c-2.20935,3.17446 -4.95452,2.87286 -8.15166,2.32457c-3.05007,-0.52306 -5.69307,-2.42882 -8.5488,-3.48982c-4.33923,-1.61218 -9.96632,-2.07923 -14.57218,-2.08836c-2.93466,-0.00581 -6.26324,0.66925 -9.04334,1.56153c-1.89757,0.60902 -5.15174,2.46367 -7.11979,2.07253c-1.59943,-0.31789 -2.74823,-1.75615 -4.12234,-2.63423c-1.30551,-8.05759 -0.39984,-16.86016 -0.39984,-25.06583c0,-10.5861 -0.7373,-21.4982 0.23557,-32.04126z" fill="#8092bd" stroke="none" stroke-width="0.5" stroke-linecap="butt"/><path d="M157.72846,148.89293c0.58998,-0.66042 1.16744,-1.33962 1.95477,-1.70447c2.52456,-1.16991 6.76332,-0.5375 9.50031,-0.53603c8.14156,-0.53269 16.22023,0.30352 24.39329,-0.27529c3.22539,-0.22842 7.44267,-1.06424 10.02303,2.02332c1.11817,1.33796 -0.20678,8.13177 -0.12195,10.10055c0.26393,6.12471 3.61646,18.39279 -5.58715,19.37349c-1.27537,0.13589 -2.55533,-0.3241 -3.78664,-0.6831c-1.12828,-0.32897 -4.64842,-2.14813 -5.68146,-2.66465c-6.09749,-2.71255 -14.26231,-4.92495 -21.01898,-4.00002c-3.71544,0.50861 -10.15308,6.07354 -13.81363,2.91284c-1.2919,-1.1155 -0.38684,-3.39321 -0.49322,-5.09673c-0.2098,-3.35915 -0.55094,-9.1353 0.30611,-12.37217c0.61381,-2.31819 0.85823,-5.10423 2.66318,-6.68312c0.45993,-0.40233 1.03677,-0.46857 1.66234,-0.39464z" fill="#6f7488" stroke="none" stroke-width="0.5" stroke-linecap="butt"/><path d="M186.46452,126.83474c-2.65516,0 -2.65516,-2.65516 -2.65516,-2.65516l0.03087,-1.56831c-1.7216,-11.33955 -0.87603,-23.56166 -0.87603,-35.05549c0,0 0,-2.65516 2.65516,-2.65516c2.65516,0 2.65516,2.65516 2.65516,2.65516c0,11.20389 -0.90959,23.20498 0.81429,34.24801l0.03087,2.37579c0,0 0,2.65516 -2.65516,2.65516z" fill="#5d6676" stroke="none" stroke-width="0.5" stroke-linecap="butt"/><path d="M184.88408,90.28237c2.61081,0.38393 2.23686,3.00162 2.23686,3.00162l-0.26593,1.83694c-0.32766,3.55838 -0.28722,10.64128 -2.52687,13.51197c-0.89547,1.14777 -2.48718,1.51356 -3.73077,2.27034c-2.89826,0.55677 -5.79978,0.86584 -8.48746,2.15165c-0.53662,0.25672 -5.31649,3.02227 -5.42951,3.02697c-1.90392,0.07896 -4.10928,-0.12319 -5.54997,-1.37041c-1.10246,-0.9544 -0.67711,-2.83739 -0.96241,-4.26739c-0.5476,-2.74472 -1.92755,-8.87136 -0.43958,-11.37591c0.76612,-1.28954 4.92892,-2.56008 6.49593,-3.05655c2.22735,-0.70569 5.52982,-1.18502 7.50967,-2.50252c0.76031,-0.50595 1.17329,-1.43355 1.93051,-1.9441c0.86748,-0.58488 4.84534,-2.1204 5.86979,-2.53035c0,0 2.30631,-0.92252 3.34976,1.24773z" fill="#f6861f" stroke="none" stroke-width="0.5" stroke-linecap="butt"/><path d="M182.76369,92.40827c-1.88495,0.41565 -3.77637,0.8038 -5.47701,1.71807c-2.50544,1.3469 -4.52779,3.24804 -7.09385,4.53385c-2.02678,1.01559 -5.87428,1.53212 -7.6693,2.77109c-1.65053,1.13924 -0.28252,7.36775 -0.17942,8.97339c0.06124,0.95376 -0.44023,2.67027 0.50326,2.82266c1.6152,0.2609 4.89899,-2.31087 6.13723,-2.99626c3.02829,-1.21714 7.62653,-2.05448 10.27029,-3.96533c3.71069,-2.68199 3.66504,-9.0067 3.50879,-13.85748zM183.90095,86.66225c0.36122,-0.21418 0.82953,-0.35301 1.43667,-0.35301c2.65516,0 2.65516,2.65516 2.65516,2.65516v0.28172c0,6.9931 0.73425,16.45708 -5.58752,21.29451c-2.8649,2.19224 -7.79245,3.15429 -11.14053,4.48632c-2.77373,1.54707 -6.74443,4.55957 -10.20262,3.20161c-1.49885,-0.58857 -2.71105,-1.93379 -3.4839,-3.34646c-0.64103,-1.1717 -0.36473,-2.64635 -0.52038,-3.97284c-0.49934,-4.2555 -1.48716,-10.27971 2.07435,-13.56433c1.66717,-1.53755 6.54713,-2.36778 8.67055,-3.42678c2.5216,-1.25757 4.50224,-3.17808 6.99223,-4.48124c2.86558,-1.49975 5.87823,-1.81212 8.93456,-2.73396c0,0 0.06273,-0.01882 0.17144,-0.0407z" fill="#0091ff" stroke="none" stroke-width="0.5" stroke-linecap="butt"/><path d="M182.79917,92.37304c0.15625,4.85078 0.21127,11.23278 -3.49942,13.91477c-2.64376,1.91085 -7.30712,2.77183 -10.33541,3.98897c-1.23824,0.68539 -4.53534,3.24851 -6.15054,2.98761c-0.94349,-0.15239 -0.44819,-1.87561 -0.50943,-2.82937c-0.1031,-1.60564 -1.48087,-7.87159 0.16966,-9.01083c1.79502,-1.23897 5.66975,-1.79318 7.69653,-2.80877c2.56606,-1.28581 4.63567,-3.18549 7.14111,-4.53239c1.70064,-0.91427 3.60256,-1.29434 5.48751,-1.70999z" data-paper-data="{&quot;noHover&quot;:false,&quot;origItem&quot;:[&quot;Path&quot;,{&quot;applyMatrix&quot;:true,&quot;segments&quot;:[[[190.993,94.23701],[0,0],[-1.88495,0.41565]],[[185.51599,95.95508],[1.70064,-0.91427],[-2.50544,1.3469]],[[178.42214,100.48893],[2.56606,-1.28581],[-2.02678,1.01559]],[[170.75284,103.26002],[1.79502,-1.23897],[-1.65053,1.13924]],[[170.57342,112.23341],[-0.1031,-1.60564],[0.06124,0.95376]],[[171.07668,115.05607],[-0.94349,-0.15239],[1.6152,0.2609]],[[177.21391,112.05981],[-1.23824,0.68539],[3.02829,-1.21714]],[[187.4842,108.09448],[-2.64376,1.91085],[3.71069,-2.68199]],[[190.99299,94.237],[0.15625,4.85078],[0,0]]],&quot;closed&quot;:true,&quot;fillColor&quot;:[0,0,0,1]}]}" fill="#52b3ff" stroke="none" stroke-width="0.5" stroke-linecap="butt"/><path d="M165.41018,207.17695c2.65516,0 2.65516,2.65516 2.65516,2.65516v0.83361c0,3.83353 0.25441,7.36477 0.7841,11.16022c0.10155,0.72757 -0.11691,1.578 0.29912,2.18347c0.90544,1.31776 3.01341,1.0823 4.46452,1.75356c3.04268,1.40749 5.9675,2.23902 9.21566,3.19502c7.65101,2.25186 14.18395,4.98532 19.88765,10.67407c4.33961,4.34733 8.59941,9.43298 11.98912,14.55646c1.35711,2.05124 1.60132,4.72803 3.03873,6.7238c0.34981,0.48569 1.12378,0.43071 1.71188,0.54214c3.01936,0.57212 6.04544,0.53115 9.08037,0.74787c8.65906,0.61835 18.08432,1.23312 26.71611,0c8.76464,-0.01662 17.18228,-0.18461 25.92481,0.84524c2.30886,0.27199 4.64316,0.24836 6.96269,0.40518c0.5686,0.03844 3.53083,0.77028 4.45967,0.27363c1.6973,-0.9075 3.0296,-3.90118 3.81428,-5.48151c2.63099,-5.29878 5.23323,-10.59396 7.5998,-16.016c1.33778,-1.69983 4.10954,-4.23282 4.71309,-6.40255c0.49771,-1.78918 -0.08895,-3.71352 -0.08895,-5.57064c0,-5.94481 0.00525,-11.82633 -0.41013,-17.73454c-0.75124,-10.68535 -0.00562,-21.38592 0,-32.05388c0.90938,-6.36568 -0.40997,-12.26918 -0.42348,-18.56816c-0.0134,-6.23844 0.83361,-12.49013 0.83361,-18.75638c0,-1.74192 0.46032,-3.52742 0.07103,-5.22529c-0.68523,-2.98856 -3.45835,-6.20992 -5.32452,-8.53796c0,0 -1.65866,-2.07332 0.41466,-3.73199c2.07332,-1.65866 3.73199,0.41466 3.73199,0.41466c2.36668,2.96379 5.4673,6.84267 6.34612,10.63523c0.0906,0.39101 0.07103,5.74933 0.07103,6.44535c0,6.2714 -0.81808,12.51554 -0.83361,18.75638c-0.01595,6.40799 1.3367,12.45859 0.41013,18.9446c0.00558,10.41423 -0.75759,20.86974 0,31.301c0.43823,6.03398 0.42348,12.0411 0.42348,18.11099c0,0.54352 0.02747,6.53246 -0.08895,6.93363c-0.85265,2.93828 -3.40004,5.45602 -5.29031,7.76895c-2.23284,5.32635 -4.80919,10.50171 -7.40532,15.66145c-1.33314,2.64957 -3.35184,6.48033 -6.18913,7.85636c-3.63548,1.76313 -10.57033,0.29749 -14.41976,-0.1548c-8.42712,-0.99016 -16.48314,-0.80407 -24.92582,-0.82198c-9.76939,1.39563 -20.55579,0.66216 -30.36342,0.00155c-3.1948,-0.2152 -8.95852,-0.31114 -11.32184,-2.87962c-1.87002,-2.03234 -2.08879,-5.15609 -3.6302,-7.44768c-3.25516,-4.83938 -7.22102,-9.66334 -11.35216,-13.78652c-6.10189,-6.11963 -13.6844,-8.18715 -21.7932,-10.58316c-3.01431,-0.89068 -5.89709,-2.0416 -8.70711,-3.47391c-1.1852,-0.60411 -2.66083,-0.93038 -3.45484,-1.99772c-2.9138,-3.91683 -2.25126,-12.06746 -2.25126,-16.66651v-0.83361c0,0 0,-2.65516 2.65516,-2.65516z" fill="#ffffff" stroke="none" stroke-width="0.5" stroke-linecap="butt"/><g stroke="none" stroke-linecap="butt"><path d="M172.53515,214.05716c0.03992,-0.08805 0.11239,-0.17495 0.23495,-0.24973c0.48292,-0.29466 0.77759,0.18825 0.77759,0.18825c0.87123,1.42821 1.54974,3.22119 2.56635,4.53633c0.51933,0.67183 1.58948,1.45541 1.70624,2.3721c0.06878,0.53999 -0.31309,1.04273 -0.46334,1.56594c-0.38479,1.33997 0.44781,2.26746 -1.57175,2.43957c-0.66192,0.60058 -0.41853,1.53895 -1.32938,2.03566c-0.46853,0.2555 -1.13625,-0.01433 -1.50932,0.48043c-0.37589,0.4985 -0.87714,1.78177 -1.76755,1.62805c-0.39401,-0.06802 -1.28164,-1.57817 -1.4901,-1.95375c-0.96298,-1.73497 -1.81417,-3.53334 -2.84888,-5.22911c-0.24167,-0.61542 -0.18326,-1.50123 0.29085,-1.96204c0.78073,-0.75885 1.85498,-0.97209 2.54057,-1.95147c0.88234,-1.26043 1.46921,-2.56245 2.57752,-3.65658l0.28623,-0.24365z" data-paper-data="{&quot;index&quot;:null}" fill="#9c4d1e" stroke-width="0.5"/><path d="M178.83623,221.09079c0.69026,0.18964 1.4472,0.38179 1.98876,0.72302c1.34525,0.84761 2.06201,3.47704 0.18247,4.04491c-0.302,0.09124 0.5897,0.22898 0.86724,0.37899c0.46536,0.25151 0.99604,0.42874 1.27094,0.94613c0.54752,1.0305 -0.02377,1.78097 -0.63759,2.53832c-1.38496,1.07472 -3.44301,3.28638 -5.24385,3.55439c-1.57662,0.23464 -5.4766,-2.84467 -5.55167,-4.45015c-0.02871,-0.61402 0.55117,-1.57749 0.82659,-2.08804c1.39012,-0.89502 3.14984,-1.81521 4.19197,-3.13745c0.71139,-0.90261 -0.04976,-1.99182 1.0729,-2.93598l0.20592,-0.11355c0,0 0.50761,-0.24973 0.75735,0.25788c0.05157,0.10481 0.07084,0.19863 0.06897,0.28153z" data-paper-data="{&quot;index&quot;:null}" fill="#d68a31" stroke-width="0.5"/><path d="M205.38565,205.98303c0.7494,7.44759 -4.87243,16.89744 -14.68733,19.18237c-1.42438,0.3316 -3.5476,-2.64612 -5.11186,-2.48872c-1.49312,0.15024 -2.18558,3.12097 -3.64177,3.09565c-10.58155,-0.18392 -20.5028,-7.79486 -21.25715,-15.29161c-0.85816,-8.52842 8.45218,-16.44891 20.79523,-17.69091c12.34304,-1.242 23.04473,4.66481 23.90289,13.19322z" fill="#a65321" stroke-width="0"/><path d="M200.64993,215.26542c-0.43807,-0.35797 -0.0801,-0.79603 -0.0801,-0.79603l-0.0072,0.05622c0.23447,-1.69263 1.24672,-3.83079 1.86564,-5.45239c0.33629,-1.44225 1.32202,-4.80154 -0.43774,-5.9572c-1.31598,-0.86423 -4.01066,-1.18634 -5.5924,-1.02718c-4.27699,0.43037 -7.7259,3.33442 -10.38348,6.58667c-0.40025,0.66287 -1.49305,2.89092 -2.14632,3.22093c-1.18426,0.59825 -1.88548,-0.67968 -2.5654,-1.39405c-1.51371,-1.5904 -3.23852,-3.79469 -5.12235,-4.91163c-3.65404,-3.02181 -8.32512,-1.57029 -11.46571,1.46418c-1.48131,2.50402 0.55582,6.53602 0.73251,9.50364c1.40022,1.18592 1.37892,3.21928 -0.62798,3.57594c-7.47492,1.3284 -15.19779,-6.62859 -12.01192,-14.38631c0.40137,-0.97735 2.83713,-3.12265 4.686,-3.64869c-0.50869,-4.61124 -1.50518,-10.25296 0.66051,-14.50701c1.21576,-2.38811 3.23642,-3.39889 5.24528,-4.93855c3.4479,-2.6426 5.89629,-6.17092 10.042,-7.70363l0.49089,-0.07889c-0.2429,-1.74027 -0.98287,-4.42648 -0.55692,-5.9544c0.55685,-1.99744 1.68962,-1.96606 2.74845,-1.27753c0.06614,-0.53704 0.19094,-1.11158 0.3477,-1.69747c0.26509,0.08671 0.53768,0.15964 0.81713,0.21781c2.49629,0.51957 4.96109,-0.25968 6.69242,-1.87763c0.25849,0.79751 0.50412,1.5577 0.7689,2.18441c0.12047,0.28511 0.58016,-0.22023 0.88074,-0.29409c0.45078,-0.11075 0.92505,-0.07832 1.38758,-0.11748c0.49351,0.2649 1.13494,0.35391 1.48052,0.7947c0.20189,0.25751 0.45206,3.27022 0.45616,3.31092c0.14409,1.43194 0.28817,2.86388 0.43226,4.29583c0.08272,0.02561 0.13029,0.04567 0.13029,0.04567c4.63905,1.95623 9.10597,4.56365 12.43975,8.44779c0.80034,0.93246 1.19054,2.17082 1.99367,3.10087c0.59135,0.68481 1.70788,0.17084 2.32459,0.12889c1.26645,-0.08616 3.67742,-0.1067 4.82996,0.39748c3.8232,1.67245 4.88166,6.64081 6.14985,10.19407c0.21803,1.16199 0.96264,4.36214 0.38531,5.33669c-1.01413,1.71188 -3.05076,2.20645 -4.97163,1.94937c2.23078,4.33511 -1.31479,9.87221 -5.49031,12.49598c-0.77755,0.48859 -5.43652,0.97884 -5.49413,-0.85357c-0.10099,-0.16409 -0.17782,-0.3455 -0.22503,-0.53978l-0.01344,0.02533c0,0 -0.35797,0.43806 -0.79603,0.0801z" fill="#a35024" stroke-width="0.5"/><path d="M161.03057,207.48709c0.38836,-0.05442 0.56503,0.33903 0.56503,0.33903l0.1947,0.50448c0.15217,1.51225 0.31701,3.02379 0.44639,4.53817c-0.58687,1.54127 -2.62841,1.47116 -3.89807,0.45724c-1.40897,-1.12517 -1.64725,-4.66308 0.1838,-5.64835c0.58785,-0.31631 1.37569,-0.29903 2.02317,-0.36418c0,0 0.30107,-0.03029 0.48499,0.17362z" fill="#d58d2c" stroke-width="0.5"/><path d="M204.5607,205.31535c0.07861,-0.3731 0.49762,-0.41527 0.49762,-0.41527l0.2251,-0.0116c1.16902,0.13731 1.76144,0.75997 2.53749,1.60585c0.27876,1.9454 -0.18125,3.63217 -2.00705,4.69373c-0.44299,0.25757 -1.59451,0.72709 -2.05528,0.46406c-0.4062,-0.23188 -0.30192,-1.3296 -0.23038,-1.71595c0.25914,-1.39937 0.34815,-2.88663 0.73656,-4.25455c0,0 0.07376,-0.25626 0.29592,-0.36627z" fill="#d58d2c" stroke-width="0.5"/><path d="M165.99336,215.95749c0.04984,0.06103 0.07466,0.11126 0.07466,0.11126c2.29723,4.68215 6.63252,3.04004 10.86925,3.97157c0.7958,0.38208 1.29691,1.06022 1.985,1.48729c0.69997,0.43443 1.4226,0.14515 2.17592,0.25152c2.9925,0.42254 6.01685,0.05356 8.99908,-0.44542c1.66572,-3.13534 5.48944,-3.39213 8.31856,-5.05198c1.11099,-0.65181 1.57579,-1.80321 2.15148,-2.8918c0.97644,-2.07084 1.64199,-4.99472 1.57384,-7.27024c-0.02355,-0.78602 0.22824,-2.52485 -0.59334,-3.04461c-0.32707,-0.20692 -1.25789,-0.15181 -1.64196,-0.23725c-1.01721,-0.24363 -3.76276,-0.30925 -4.70981,0.13028c-0.40448,0.18773 0.33875,3.3656 0.10125,3.86925c-0.49534,1.05042 -2.61276,1.81655 -3.561,2.40537c-0.94565,0.26428 -2.3802,1.28287 -3.39024,0.92375c-0.61542,-0.21881 -1.15207,-1.79083 -1.52139,-1.60996c-1.83383,0.8981 -2.32052,5.45364 -5.01154,3.11793c-0.02597,-0.02253 -0.91578,-0.93547 -0.93682,-0.95704c-0.22522,-0.30548 -0.48451,-0.59552 -0.79204,-0.81793c-1.86013,-1.34527 0.12533,0.64718 -1.11777,1.75353c-1.62869,1.44951 -6.53112,-1.41159 -7.24283,-2.89325c-0.20785,-0.7566 -0.24465,-3.01192 -0.64689,-3.41999c-0.47496,-0.48184 -1.35401,-0.33264 -1.96349,-0.27131c-2.44343,0.24587 -3.61619,1.96662 -4.11194,4.16839c-0.15869,2.49718 0.73759,4.19201 0.98403,6.64119zM165.30882,217.0749c-0.34943,-0.0919 -0.38965,-0.49157 -0.38965,-0.49157l-0.05957,-0.59203c-0.25309,-2.51523 -1.1506,-4.31496 -0.97814,-6.91589c0.61028,-2.71042 2.13148,-4.83216 5.11853,-5.13273c0.99309,-0.09993 2.17084,-0.19616 2.91173,0.63352c0.66931,0.74952 0.59193,2.73985 0.8772,3.80225c0.36952,0.94882 4.38472,3.03717 5.45036,2.40776c0.28842,-0.17036 -0.26201,-1.86448 0.09186,-2.23373c1.07008,-1.11654 2.80166,0.62855 3.40478,1.42925c0.34594,0.35168 0.76524,0.9623 1.20904,1.19243c0.58229,0.30194 0.98638,-0.76257 1.1821,-1.06495c0.49857,-0.77026 1.34066,-2.43897 2.35425,-2.63077c0.42152,-0.07976 0.9027,-0.10944 1.28404,0.08707c0.48676,0.25084 0.35204,1.35683 0.90685,1.51755c0.67025,0.19416 1.96092,-0.70552 2.60822,-0.87589c0.65399,-0.42293 2.65806,-1.13767 2.98856,-1.84181c0.57316,-1.22109 -1.17643,-3.22565 0.27382,-4.32109c0.97855,-0.73914 4.48566,-0.55177 5.61158,-0.31027c0.59232,0.13522 1.4907,0.06726 2.00949,0.39203c1.02266,0.64022 1.11109,2.19709 1.13741,3.25981c0.06747,2.72466 -0.55551,6.03047 -1.72211,8.51034c-0.68479,1.28674 -1.27494,2.60064 -2.60091,3.36729c-3.02104,1.74669 -6.11058,2.03218 -8.21359,4.98387c-3.27026,1.03673 -7.83956,1.31528 -11.17723,0.66154c-1.41006,-0.27618 -1.82777,-1.25733 -3.01767,-1.79848c-3.14362,-0.73517 -7.16354,0.55659 -9.84254,-1.93062c-0.54158,-0.5028 -1.03565,-1.36448 -1.41841,-2.10491z" fill="#d58d2c" stroke-width="0.5"/><path d="M165.94817,215.88431c-0.24645,-2.44918 -1.14261,-4.15723 -0.98393,-6.6544c0.49575,-2.20177 1.67207,-3.9329 4.11549,-4.17877c0.60948,-0.06133 1.55477,-0.17447 2.02973,0.30738c0.40225,0.40808 0.44216,2.65637 0.65002,3.41297c0.71171,1.48167 5.54151,4.32274 7.1702,2.87323c1.2431,-1.10634 -0.73612,-3.11261 1.12401,-1.76734c0.30753,0.22241 0.62903,0.55508 0.85424,0.86056c0.02105,0.02157 0.84542,0.89724 0.87138,0.91978c2.69102,2.33571 3.23179,-2.23486 5.06562,-3.13297c0.36931,-0.18087 0.91766,1.40297 1.53308,1.62178c1.01004,0.35912 2.37845,-0.6235 3.3241,-0.88778c0.94824,-0.58881 3.06655,-1.35316 3.56189,-2.40359c0.2375,-0.50365 -0.50066,-3.67425 -0.09619,-3.86197c0.94705,-0.43954 3.75269,-0.41909 4.7699,-0.17546c0.38407,0.08544 1.31594,0.03208 1.64301,0.239c0.82158,0.51976 0.57223,2.26384 0.59577,3.04987c0.06816,2.27552 -0.59506,5.21384 -1.57151,7.28468c-0.57569,1.08858 -1.04153,2.24755 -2.15251,2.89937c-2.82913,1.65985 -6.6678,1.93861 -8.33353,5.07394c-2.98222,0.49899 -6.04027,0.87287 -9.03277,0.45033c-0.75332,-0.10637 -1.48323,0.17957 -2.1832,-0.25487c-0.6881,-0.42706 -1.19648,-1.11084 -1.99228,-1.49293c-4.23673,-0.93153 -8.58256,0.69049 -10.87979,-3.99165c0,0 -0.02487,-0.05047 -0.07471,-0.1115z" data-paper-data="{&quot;noHover&quot;:false,&quot;origItem&quot;:[&quot;Path&quot;,{&quot;applyMatrix&quot;:true,&quot;segments&quot;:[[[426.1672,392.05483],[0,0],[0.11527,0.17424]],[[426.33464,392.36817],[0,0],[4.8175,12.96202]],[[453.95503,405.73114],[-10.92984,-3.5822],[1.99801,1.21925]],[[458.79694,410.18177],[-1.70194,-1.30933],[1.7313,1.33191]],[[464.47058,411.42293],[-1.95914,-0.48059],[7.7825,1.90911]],[[488.32973,412.63673],[-8.00001,0.52475],[5.22673,-7.8293]],[[511.61644,401.51711],[-7.90428,3.62792],[3.10397,-1.42466]],[[518.06001,394.45924],[-1.80771,2.71902],[3.12573,-5.20397]],[[524.14199,375.69707],[-0.42427,6.02126],[0.14655,-2.07991]],[[523.3849,367.50744],[2.02949,1.5893],[-0.80792,-0.63269]],[[519.11613,366.44567],[0.99056,0.32735],[-2.61887,-0.91275]],[[506.65636,365.53911],[2.61513,-0.90816],[-1.11692,0.38788]],[[505.89634,375.77365],[0.76026,-1.26566],[-1.58562,2.63968]],[[495.86336,381.17406],[2.65789,-1.30165],[-2.56492,0.44618]],[[486.67417,382.71108],[2.5693,1.21553],[-1.56548,-0.74062]],[[483.08792,378.0599],[1.02231,-0.37912],[-5.07633,1.88253]],[[469.03905,384.9551],[6.47928,6.8763],[-0.06252,-0.06635]],[[466.82163,382.18158],[0.0498,0.06249],[-0.51305,-0.86568]],[[464.94924,379.8135],[0.75227,0.66838],[-4.55018,-4.04279]],[[461.5349,384.14283],[3.57318,-2.58871],[-4.68152,3.39169]],[[443.19528,374.58731],[1.48427,4.09778],[-0.34751,-2.05119]],[[442.39655,365.39312],[0.95286,1.18335],[-1.12509,-1.39725]],[[437.28858,364.15614],[1.62418,0],[-6.5114,0]],[[425.33413,374.06142],[1.89233,-5.67699],[-1.08154,6.5458]],[[426.1672,391.84307],[0,-6.52672],[0,0]]],&quot;closed&quot;:true}]}" fill="#de9234" stroke-width="0.5"/><path d="M172.49634,208.50011c-0.42178,-0.04842 -0.46783,-0.50612 -0.46783,-0.50612l-0.00993,-0.09867c-0.1187,-1.17968 -0.77168,-3.60033 0.56183,-4.28579c1.14337,-0.58772 3.33932,1.34383 4.33602,1.81034c0.57183,0.27389 1.6005,0.82682 1.88685,1.41989c0.39847,0.82526 0.1475,3.85719 -0.74686,4.28244c-1.51412,0.71992 -4.36055,-1.63633 -5.56007,-2.62209z" fill="#6c3411" stroke-width="0.5"/><path d="M188.59079,209.25947c-0.04708,0.15976 -0.16914,0.34467 -0.4793,0.37588c-0.56288,0.05664 -0.61952,-0.50624 -0.61952,-0.50624l-0.04964,-0.49336c-0.07669,-0.79006 -0.47255,-1.71182 -0.33166,-2.5105c0.32211,-1.82591 2.90081,-3.5951 4.53167,-4.05451c0.74078,-0.20138 1.72605,-0.67144 2.43843,-0.02691c0.68595,0.62062 0.50736,3.79213 -0.00452,4.43271c-0.87488,1.09482 -4.04447,2.3783 -5.48545,2.78294z" fill="#6c3411" stroke-width="0.5"/><path d="M167.08385,216.56622c-0.28501,-0.12269 -0.31971,-0.46755 -0.31971,-0.46755l-0.03214,-0.37618c0.00964,-0.22016 0.01928,-0.44034 0.02892,-0.6605c-0.32163,-3.11615 -0.59375,-6.35361 3.27787,-6.73866c0.44365,-0.04412 1.17485,-0.15291 1.5793,0.01562c1.08335,0.45143 2.16443,1.80105 3.28473,2.39532c1.32828,0.8878 3.42129,1.15884 4.65405,2.16492c0.82342,0.672 0.47614,1.32073 0.50198,2.20105c0.08342,2.84226 0.87358,4.71674 -2.55797,5.56841c-3.42386,0.34452 -9.30858,-0.23196 -10.41705,-4.10242z" fill="#ffffff" stroke-width="0.5"/><path d="M175.05565,217.98298c-0.33749,-0.09822 -0.37671,-0.48798 -0.37671,-0.48798l-0.00993,-0.09868c-0.05025,-0.49942 -0.31232,-1.49888 -0.16573,-1.96559c0.49884,-1.58825 3.18165,-1.72699 4.01832,-0.33406c1.64226,2.7341 -1.7673,5.14611 -3.46595,2.8863z" fill="#542f22" stroke-width="0.5"/><path d="M191.20659,219.29258c-3.53243,-0.15093 -3.13156,-2.14526 -3.61608,-4.94716c-0.15006,-0.86781 -0.61963,-1.43435 0.0534,-2.25693c1.00761,-1.23151 3.00466,-1.9141 4.12944,-3.04874c0.97945,-0.80556 1.76996,-2.3435 2.74166,-3.00172c0.36276,-0.24573 1.10099,-0.28481 1.54453,-0.32996c3.87072,-0.39401 4.24906,2.83276 4.5547,5.95051c0.05331,0.21383 0.10662,0.42767 0.15993,0.6415l0.04345,0.37504c0,0 0.0347,0.34486 -0.22015,0.52188c-0.31514,4.0137 -5.96702,5.75104 -9.39089,6.09556z" data-paper-data="{&quot;index&quot;:null}" fill="#ffffff" stroke-width="0.5"/><path d="M188.85312,216.39836c-0.33749,-0.09822 -0.37671,-0.48798 -0.37671,-0.48798l-0.00993,-0.09868c-0.05025,-0.49942 -0.31233,-1.49888 -0.16574,-1.96559c0.49884,-1.58825 3.18164,-1.72699 4.01833,-0.33405c1.64226,2.7341 -1.76731,5.14611 -3.46596,2.8863z" fill="#542f22" stroke-width="0.5"/><path d="M193.56643,219.54761l0.30202,-0.22378c1.31624,-0.83244 2.71719,-1.10997 4.14438,-1.68471c1.10895,-0.44659 1.55938,-1.44488 2.47501,-2.03397c0.55602,-0.35773 1.43212,-0.21449 1.97702,0.15997c1.41814,1.39109 2.97769,2.62658 4.45023,3.95665c0.31877,0.28793 1.58933,1.4938 1.56657,1.89299c-0.05143,0.90211 -1.41477,1.10047 -1.98531,1.35401c-0.56626,0.25164 -0.45427,0.96306 -0.80902,1.36174c-0.68965,0.77507 -1.54878,0.32597 -2.28337,0.83508c-0.62395,1.92845 -1.33934,0.90783 -2.7316,0.97992c-0.54363,0.02815 -1.11965,0.28655 -1.63014,0.09755c-0.86662,-0.32086 -1.38814,-1.54038 -1.92527,-2.19806c-1.05145,-1.28747 -2.64476,-2.35353 -3.8392,-3.52491c0,0 -0.40385,-0.39616 -0.0077,-0.80001c0.10054,-0.10249 0.20157,-0.15346 0.29636,-0.17245z" fill="#9c4d1e" stroke-width="0.5"/><path d="M198.99453,227.27492c-0.08117,-0.0169 -0.16822,-0.05688 -0.25866,-0.1308c-0.43807,-0.35797 -0.0801,-0.79603 -0.0801,-0.79603l0.15714,-0.17494c1.1734,-0.88031 2.06247,0.10725 3.10247,-0.38181c1.52351,-0.71644 2.81749,-2.22275 4.00344,-3.37471c0.55957,-0.15294 1.62916,-0.50015 2.22081,-0.33345c1.547,0.43587 3.66554,4.93073 3.08075,6.41357c-0.66795,1.69372 -3.28741,3.19886 -4.64725,4.30519c-0.87645,0.42683 -1.73659,0.81379 -2.61674,0.0476c-0.4419,-0.38469 -0.49465,-0.94168 -0.63451,-1.45184c-0.08342,-0.30426 -0.01613,-1.20402 -0.17325,-0.93044c-0.97785,1.70264 -3.37734,0.41033 -3.89909,-1.09164c-0.21005,-0.60465 -0.22621,-1.38543 -0.25499,-2.10069z" fill="#d68a31" stroke-width="0.5"/><path d="M177.87549,223.94018c-0.08278,-0.0162 -0.17176,-0.0563 -0.26431,-0.13193c-0.43807,-0.35797 -0.0801,-0.79603 -0.0801,-0.79603l0.45987,-0.30089c0.43603,-0.04387 0.87206,-0.08775 1.30809,-0.13163c2.95507,-0.28242 5.83055,0.39367 8.80365,-0.26531c0.70004,-0.15516 2.7183,-0.96558 3.28038,-0.20548c0.64932,0.87807 -1.26565,2.95285 -1.74753,3.44436c-2.86104,2.4946 -10.0716,2.18284 -11.76003,-1.61307z" fill="#de9d3f" stroke-width="0.5"/><path d="M174.67874,223.16911c0.12427,-0.55191 0.67618,-0.42764 0.67618,-0.42764l0.24631,0.05601c0.58421,0.10634 1.15124,0.29927 1.70865,0.50395c0.35988,0.58808 0.81801,1.33501 1.33021,1.80738c0.88012,0.81166 2.53747,0.57091 3.44856,1.29843c0.76035,0.60715 1.43758,4.37139 0.86904,5.25993c-0.43254,0.67598 -2.86291,1.36444 -3.61429,1.72589c-0.52879,0.05651 -1.07378,0.07287 -1.59508,-0.03226c-2.78797,-0.56227 -3.7655,-2.86665 -3.03374,-5.55289c0.14331,-0.52607 0.63732,-1.04882 0.6984,-1.58039c0.08252,-0.71825 -0.14947,-1.6167 -0.25008,-2.36961l-0.05651,-0.01262c0,0 -0.55191,-0.12426 -0.42764,-0.67617z" fill="#d68e31" stroke-width="0.5"/><path d="M188.7618,225.77062c0.44032,-0.69429 1.38831,-0.87377 2.3853,-1.15456c0.99163,-0.88959 -0.73471,-2.64567 0.96671,-3.62567c1.22082,-0.70318 2.01952,0.18373 2.69149,1.10501c1.7717,2.42901 2.75581,4.22122 1.98552,7.18382c-0.97119,2.48494 -4.99854,3.44459 -7.15957,1.78968c-0.99101,-0.75891 -1.22612,-2.28834 -1.34951,-3.60851c-0.00598,-0.00869 -0.01191,-0.01766 -0.01777,-0.02693c-0.14653,-0.23169 -0.10979,-0.42211 -0.03298,-0.55686c-0.01423,-0.16834 -0.02819,-0.33 -0.04354,-0.48252c0,0 -0.05664,-0.56288 0.50624,-0.61952c0.02359,-0.00238 0.04629,-0.00366 0.06813,-0.00395z" fill="#d68e31" stroke-width="0.5"/><path d="M185.19141,220.21038c0.20675,0.31543 -0.10868,0.52218 -0.10868,0.52218l-0.31624,0.19852c-0.82584,0.30131 -1.08204,-0.19721 -1.77196,-0.30411c0,0 -0.36924,-0.07685 -0.29238,-0.44609c0.07685,-0.36924 0.44609,-0.29238 0.44609,-0.29238c0.52393,0.12577 0.8194,0.58769 1.33651,0.34288l0.18449,-0.12968c0,0 0.31543,-0.20675 0.52218,0.10868z" fill="#000000" stroke-width="0.5"/><path d="M150.70953,186.76901c-2.08189,0.1894 -2.57174,-1.72499 -2.64405,-2.07757c-0.27062,-0.50918 -0.40222,-1.18464 -0.04222,-1.9944l-0.03565,-2.16788c3.41075,-5.83302 7.10904,-9.2479 13.7268,-10.96509c1.9386,-0.99338 3.71673,-2.36713 5.7944,-3.02157c2.63993,-0.83156 5.58553,-0.72032 8.42498,-0.79922c0.42992,0.17785 0.88253,0.31829 1.35472,0.41657c2.80216,0.58323 5.56464,-0.47014 7.29451,-2.50931c0.33936,-0.10974 0.68223,-0.2059 1.03036,-0.28141c4.44187,-0.9635 9.21044,0.47528 13.51354,1.40517c1.02283,0.22102 2.11582,0.24593 3.06179,0.69335c4.17265,1.97357 9.24721,9.86686 7.87338,14.72946c-1.00987,3.57439 -5.39702,5.27936 -8.34863,6.67018c-3.65198,1.69723 -7.29875,1.97903 -11.02714,3.22173c-4.7418,1.58047 -9.45313,3.0029 -14.41436,4.05871c-3.96579,0.84395 -8.20582,2.11209 -12.20746,0.81905c-1.98082,-0.64006 -3.54019,-2.19174 -5.28319,-3.32984c-2.57453,-1.68108 -5.37192,-3.25664 -8.07177,-4.86798zM152.86687,182.18921c2.86969,1.73558 5.85249,3.40472 8.62675,5.19835c1.39456,0.90162 2.55496,2.26067 4.13053,2.78536c2.87047,0.95589 6.8148,-0.36568 9.55687,-0.94694c4.81764,-1.02125 9.3416,-2.41717 13.94071,-3.92923c3.55738,-1.16956 7.0034,-1.36166 10.45224,-2.99415c1.18985,-0.55432 5.27148,-1.90261 5.63788,-3.47998c0.11477,-0.4941 -1.12242,-3.54443 -1.13715,-3.57623c-2.37925,-5.13292 -4.67124,-5.26195 -9.95831,-6.36563c-2.35394,-0.4914 -5.0283,-1.15178 -7.44576,-0.58244c-2.34166,0.55148 -4.49443,1.84026 -6.87257,2.20345c-3.39865,0.51902 -7.44416,-0.21805 -10.75145,0.84176c-1.98892,0.63734 -3.67176,1.9929 -5.53747,2.93157c-5.22402,1.40378 -7.93546,3.51816 -10.64223,7.91414z" fill="url(#color-1)" stroke-width="0.5"/><path d="M163.46119,174.25942c1.8657,-0.93868 3.55693,-2.30984 5.54584,-2.94718c3.30729,-1.05981 7.39535,-0.34178 10.79401,-0.86081c2.37815,-0.36319 4.55584,-1.6436 6.8975,-2.19509c2.41746,-0.56933 5.105,0.10384 7.45893,0.59522c5.28708,1.10368 7.58766,1.25352 9.96691,6.38645c0.01474,0.0318 1.25262,3.08933 1.13785,3.58343c-0.3664,1.57737 -4.44851,2.93393 -5.63836,3.48823c-3.44883,1.63248 -6.90147,1.84331 -10.45885,3.01288c-4.59911,1.51206 -9.18576,2.92868 -14.00339,3.94993c-2.74207,0.58127 -6.70661,1.8875 -9.57708,0.93163c-1.57557,-0.52467 -2.74238,-1.89432 -4.13693,-2.79593c-2.77426,-1.79363 -5.7612,-3.47814 -8.63089,-5.21371c2.70678,-4.39597 5.42042,-6.53126 10.64446,-7.93505z" data-paper-data="{&quot;noHover&quot;:false,&quot;origItem&quot;:[&quot;Path&quot;,{&quot;applyMatrix&quot;:true,&quot;segments&quot;:[[[328.92163,363.40317],[3.47973,-9.63114],[6.2745,2.21058]],[[347.77611,370.01149],[-6.11267,-2.36189],[3.0727,1.18727]],[[356.92351,373.75111],[-3.27186,-0.38208],[5.96088,0.69609]],[[375.10035,368.0492],[-5.09019,2.2372],[8.94312,-3.9306]],[[400.58522,354.78369],[-8.32035,4.79542],[6.43574,-3.70923]],[[419.67338,344.74418],[-6.03782,4.56433],[2.08666,-1.55743]],[[429.2156,335.70713],[-0.07396,3.21138],[0.02317,-1.00594]],[[425.56169,329.22168],[0.04148,0.0558],[-6.6953,-9.00652]],[[403.64947,320.8847],[10.71371,0.00631],[-4.77001,-0.00281]],[[388.95425,322.7632],[4.46463,-2.08281],[-4.32462,2.0175]],[[376.49825,329.82025],[4.4716,-1.66656],[-6.39044,2.38171]],[[355.95901,335.80072],[5.99443,-3.39497],[-3.60489,2.04165]],[[346.39009,343.73215],[3.24381,-2.57706],[-9.57773,4.83775]]],&quot;closed&quot;:true}]}" fill="url(#color-2)" stroke-width="0.5"/><path d="M158.70715,192.6769c0.67397,-2.03768 2.88124,-1.57826 2.88124,-1.57826l1.14695,0.25447c7.16743,0.6797 12.655,-0.85834 19.68235,-1.98876c1.82967,-0.29432 3.72248,-0.27963 5.50232,-0.79585c4.65691,-1.35065 10.08922,-5.31966 15.30354,-3.32681c5.6685,2.16643 4.74937,8.49248 3.28039,12.92272c-6.41094,7.57234 -14.81092,9.3666 -24.32794,9.99315c-5.86141,0.38589 -10.69758,0.35318 -15.85534,-3.09989c-3.34162,-2.23717 -5.65277,-6.01893 -7.81621,-9.31518c0,0 -1.12431,-1.71535 0.20271,-3.06558z" fill="#4b6277" stroke-width="0.5"/><path d="M195.04229,193.04201c0.63929,0.22901 2.05933,0.96401 1.65786,2.8929c-0.51363,2.46774 -2.98137,1.95412 -2.98137,1.95412l-1.24251,-0.48051c-1.06168,-0.77122 -1.88289,-2.25343 -3.19424,-2.30089c-0.72612,-0.02629 -3.78643,4.17214 -4.13497,4.5368c0,0 -1.74345,1.82041 -3.56387,0.07697c-1.82041,-1.74345 -0.07697,-3.56387 -0.07697,-3.56387c2.09297,-2.18063 4.10517,-5.88381 7.57535,-6.08715c1.9144,-0.11216 4.36144,1.79769 5.9607,2.97165z" fill="#eec257" stroke-width="0.5"/><path d="M206.76258,184.67114c-0.51363,2.46774 -2.98137,1.95412 -2.98137,1.95412l-0.02148,-0.06579c-5.67155,0.04707 -10.67331,3.16456 -16.06737,4.7278c-4.69956,1.36197 -9.44424,2.09648 -14.25722,2.8133c-5.40242,0.8046 -10.23536,1.95523 -15.20514,-0.76169c0,0 -2.17869,-1.26764 -0.91105,-3.44632c1.26764,-2.17869 3.44632,-0.91104 3.44632,-0.91104c3.44569,2.21252 8.05853,0.7085 11.91835,0.13413c4.59656,-0.68399 9.10956,-1.37138 13.60005,-2.66879c5.93756,-1.71551 11.13417,-4.81685 17.4082,-4.92816l1.11661,0.17109c0,0 2.46774,0.51363 1.95411,2.98137z" fill="#2d3a47" stroke-width="0.5"/></g><path d="M156.7378,159.21064v-7.99481h9.91356v7.99481z" fill="#23242a" stroke="none" stroke-width="0" stroke-linecap="butt"/><path d="M171.97115,158.77417v-7.9948h9.91356v7.9948z" fill="#23242a" stroke="none" stroke-width="0" stroke-linecap="butt"/><path d="M186.24513,158.3377v-7.9948h9.91356v7.9948z" fill="#23242a" stroke="none" stroke-width="0" stroke-linecap="butt"/></g></g></svg>