<svg version="1.1" xmlns="http://www.w3.org/2000/svg" xmlns:xlink="http://www.w3.org/1999/xlink" width="122.21415" height="212.36129" viewBox="0,0,122.21415,212.36129"><defs><linearGradient x1="291.63318" y1="217.77328" x2="262.03609" y2="217.85268" gradientUnits="userSpaceOnUse" id="color-1"><stop offset="0" stop-color="#07a7f7"/><stop offset="1" stop-color="#23d0fe"/></linearGradient><radialGradient cx="265.92584" cy="212.34301" r="18.76295" gradientUnits="userSpaceOnUse" id="color-2"><stop offset="0" stop-color="#2cdbff"/><stop offset="1" stop-color="#0caff7"/></radialGradient><linearGradient x1="248.71225" y1="164.68001" x2="262.66065" y2="189.92433" gradientUnits="userSpaceOnUse" id="color-3"><stop offset="0" stop-color="#1c8bc0"/><stop offset="1" stop-color="#289dd5"/></linearGradient><linearGradient x1="261.41123" y1="149.97254" x2="261.52941" y2="194.02878" gradientUnits="userSpaceOnUse" id="color-4"><stop offset="0" stop-color="#2b98dd"/><stop offset="1" stop-color="#2790bc"/></linearGradient><linearGradient x1="245.50938" y1="172.79544" x2="245.53568" y2="182.60125" gradientUnits="userSpaceOnUse" id="color-5"><stop offset="0" stop-color="#459ece"/><stop offset="1" stop-color="#2dc9f4"/></linearGradient><linearGradient x1="276.35595" y1="171.94137" x2="276.38226" y2="181.74727" gradientUnits="userSpaceOnUse" id="color-6"><stop offset="0" stop-color="#459ece"/><stop offset="1" stop-color="#2dc9f4"/></linearGradient><linearGradient x1="261.62562" y1="101.5974" x2="261.80616" y2="168.89839" gradientUnits="userSpaceOnUse" id="color-7"><stop offset="0" stop-color="#009ae4"/><stop offset="1" stop-color="#00ccff"/></linearGradient><linearGradient x1="188.80253" y1="174.66629" x2="208.30414" y2="209.96102" gradientUnits="userSpaceOnUse" id="color-8"><stop offset="0" stop-color="#6be5fe"/><stop offset="1" stop-color="#00a0e7"/></linearGradient><linearGradient x1="212.35315" y1="232.56792" x2="243.08605" y2="288.18949" gradientUnits="userSpaceOnUse" id="color-9"><stop offset="0" stop-color="#85e8ff"/><stop offset="1" stop-color="#4adafc"/></linearGradient><linearGradient x1="237.45835" y1="243.29927" x2="223.0448" y2="251.26328" gradientUnits="userSpaceOnUse" id="color-10"><stop offset="0" stop-color="#cbf6ff"/><stop offset="1" stop-color="#1fd6fd"/></linearGradient><linearGradient x1="260.88421" y1="244.22488" x2="242.0357" y2="254.63936" gradientUnits="userSpaceOnUse" id="color-11"><stop offset="0" stop-color="#cbf6ff"/><stop offset="1" stop-color="#1fd6fd"/></linearGradient><linearGradient x1="214.99738" y1="246.30279" x2="198.36638" y2="255.49201" gradientUnits="userSpaceOnUse" id="color-12"><stop offset="0" stop-color="#cbf6ff"/><stop offset="1" stop-color="#1fd6fd"/></linearGradient><linearGradient x1="203.96613" y1="250.34769" x2="194.54187" y2="255.55493" gradientUnits="userSpaceOnUse" id="color-13"><stop offset="0" stop-color="#cbf6ff"/><stop offset="1" stop-color="#1fd6fd"/></linearGradient><linearGradient x1="273.02356" y1="248.73352" x2="258.24042" y2="256.90174" gradientUnits="userSpaceOnUse" id="color-14"><stop offset="0" stop-color="#cbf6ff"/><stop offset="1" stop-color="#1fd6fd"/></linearGradient></defs><g transform="translate(-187.61889,-73.1293)"><g data-paper-data="{&quot;isPaintingLayer&quot;:true}" fill-rule="nonzero" stroke-linejoin="miter" stroke-miterlimit="10" stroke-dasharray="" stroke-dashoffset="0" style="mix-blend-mode: normal"><path d="M273.78344,200.94148l16.92299,16.14058l0.93734,4.62205l-4.58979,12.96111l-14.79915,-0.19153l-10.22672,-19.62698z" fill="none" stroke="#0c60a7" stroke-width="1.25" stroke-linecap="round"/><path d="M273.05774,197.88226c0,0 8.10997,21.65452 1.04043,30.38495c-4.62795,5.07931 -11.3325,5.7247 -11.3325,5.7247l-7.80582,-19.30949l6.07347,-21.07271z" fill="none" stroke="#0c60a7" stroke-width="1.25" stroke-linecap="round"/><path d="M267.06594,192.35932l8.30434,0.91757l-0.92051,7.20785l2.35126,0.62029l-1.08556,4.0755l-1.87921,0.16165l2.35336,1.40344l-0.3032,3.76019l-10.17973,0.65385l1.07799,-6.89497l3.59884,-1.41944l2.02914,-2.66829l-0.63411,-2.81784l-2.65993,1.10363l-0.61604,3.91759l-2.9728,1.26112l-0.75504,10.4968l-2.8107,3.29689l-4.87382,-6.72236z" fill="none" stroke="#0c60a7" stroke-width="1.25" stroke-linecap="round"/><path d="M248.42994,178.19516l1.00021,14.24119l-39.98081,1.74925l2.06786,-20.16329z" fill="none" stroke="#0c60a7" stroke-width="1.25" stroke-linecap="round"/><path d="M222.93816,118.16867c12.04059,-12.71844 40.27975,-16.57559 40.27975,-16.57559c0,0 28.55236,6.30266 37.41194,16.15597c8.85958,9.85331 8.54111,35.86781 8.54111,35.86781c0,0 -14.88693,-1.83076 -23.64259,1.11902c-8.7557,2.94978 -20.01349,14.15251 -20.01349,14.15251l-4.43913,-0.15285c0,0 -18.76616,-11.09251 -25.79231,-13.23148c-7.02614,-2.13897 -20.26758,0.05437 -20.26758,0.05437c0,0 -4.11825,-24.67141 7.92234,-37.38976z" fill="none" stroke="#0c60a7" stroke-width="1.25" stroke-linecap="round"/><path d="M250.96528,192.60388l20.33453,0.12529c0,0 18.55915,-7.37197 22.95301,-12.47081c10.36824,-12.03177 7.35256,-27.53592 7.35256,-27.53592l7.60267,-0.20023c0,0 0.03153,15.16949 -9.82849,27.36272c-9.86002,12.19323 -28.25082,15.00287 -28.25082,15.00287l-19.97989,0.23344c0,0 -18.60974,-6.38585 -27.15644,-17.01237c-8.54669,-10.62652 -9.37899,-24.25382 -9.37899,-24.25382l6.1896,0.34307c0,0 2.09161,17.74395 7.31566,24.61904c5.22405,6.87509 22.84655,13.78671 22.84655,13.78671z" fill="none" stroke="#0c60a7" stroke-width="1.25" stroke-linecap="round"/><path d="M248.31858,107.49484c0.18063,-7.02699 11.90847,-32.88002 11.90847,-32.88002c0,0 11.68904,24.6629 12.36732,31.67233c0.5963,6.16279 -4.0523,35.59084 -11.9008,35.73636c-7.27113,0.1349 -12.541,-28.0707 -12.37498,-34.52867z" fill="none" stroke="#0c60a7" stroke-width="1.25" stroke-linecap="round"/><path d="M195.61732,211.66443l-6.53754,-37.15134l12.80303,5.70972l10.32742,12.14287l-5.66149,18.56531z" fill="none" stroke="#0c60a7" stroke-width="1.25" stroke-linecap="round"/><path d="M198.50095,277.12607l-0.75383,-64.22633l5.77965,27.92193l3.18761,31.52501l7.10903,2.82576l7.60079,-5.88817l2.65967,2.6309l3.92445,-3.37439l4.05532,2.10098l8.92814,-3.48588l2.79566,5.93269l5.52429,-3.53478l1.73574,3.14141l4.84336,-1.71131l-3.00552,5.03753l1.33233,0.22866l6.51146,-4.80383l1.59048,-4.97926l7.6878,0.8175l-6.97378,9.64219l-6.55032,3.86051l-1.18637,-1.27414l-42.27155,3.81895z" fill="none" stroke="#0c60a7" stroke-width="1.25" stroke-linecap="round"/><path d="M233.45757,275.67946c11.19853,-0.40347 20.35082,1.32585 20.44222,3.86257c0.09135,2.53664 -8.91272,4.9201 -20.11125,5.32357c-11.19856,0.40344 -20.35083,-1.32586 -20.44222,-3.86258c-0.09137,-2.53668 8.9127,-4.92013 20.11124,-5.32361z" fill="none" stroke="#0c60a7" stroke-width="1.25" stroke-linecap="butt"/><path d="M245.38697,210.93862l11.66679,-17.30054l-3.96964,22.93697l17.27408,40.86723l-7.21267,7.18937c0,0 -6.20784,-10.9857 -9.82649,-9.93186c-3.15028,0.91747 -5.12238,11.18585 -7.99604,11.04773c-5.88087,-0.28272 -7.28088,-10.47076 -11.28161,-9.73018c-3.00801,0.55681 -5.26656,8.29857 -9.07961,9.14292c-4.59091,1.01663 -10.75125,-4.7646 -14.14783,-2.83372c-3.77169,2.14404 -5.44635,7.14614 -5.44635,7.14614l-8.70987,-55.48865l1.97949,-4.71179l6.56902,5.77736l17.20048,-16.01639z" fill="none" stroke="#0c60a7" stroke-width="1.25" stroke-linecap="round"/><path d="M226.70504,202.44709l28.00761,19.25819l6.79471,-20.87981l9.38006,67.1786l-9.51131,-1.49841l-2.93584,-16.22698l-13.18265,-1.15827l-24.43837,-19.7832z" fill="none" stroke="#0c60a7" stroke-width="1.25" stroke-linecap="round"/><path d="M275.40683,206.90436l-5.02626,-5.15561l8.91617,-4.56641l-3.73615,8.62515" fill="#00b5ef" stroke="#000000" stroke-width="0" stroke-linecap="round"/><path d="M273.7834,200.94148l16.92299,16.14058l0.93734,4.62205l-4.58979,12.96111l-14.79915,-0.19153l-10.22671,-19.62698z" fill="url(#color-1)" stroke="#000000" stroke-width="0" stroke-linecap="round"/><path d="M291.17256,218.46823l0.24115,3.69898l-4.82412,11.80557l-12.25317,0.72659" fill="none" stroke="#19c2fb" stroke-width="0.25" stroke-linecap="round"/><path d="M273.05774,197.88226c0,0 8.10997,21.65452 1.04043,30.38495c-4.62795,5.07931 -11.3325,5.7247 -11.3325,5.7247l-7.80582,-19.30949l6.07347,-21.07271z" fill="url(#color-2)" stroke="#000000" stroke-width="0" stroke-linecap="round"/><path d="M270.57953,169.98011c4.06376,7.35475 0.59902,15.23778 -7.41422,19.66538c-2.88929,1.59644 -3.67156,8.42643 -6.62742,8.61728c-5.242,0.33843 -12.37823,-7.5461 -14.97674,-12.24898c-4.06376,-7.35475 -0.86217,-16.90623 7.15107,-21.33383c8.01321,-4.42758 17.8035,-2.05469 21.8673,5.30014z" fill="url(#color-3)" stroke="none" stroke-width="0" stroke-linecap="butt"/><path d="M267.06594,192.35932l8.30434,0.91757l-0.92051,7.20785l2.35126,0.62029l-1.08556,4.0755l-1.87921,0.16165l2.35336,1.40344l-0.3032,3.76019l-10.17973,0.65385l1.07799,-6.89497l3.59884,-1.41944l2.02914,-2.66829l-0.63411,-2.81784l-2.65993,1.10363l-0.61604,3.91759l-2.9728,1.26112l-0.75504,10.4968l-2.8107,3.29689l-4.87382,-6.72236z" fill="#eff7ff" stroke="#000000" stroke-width="0" stroke-linecap="round"/><path d="M263.21385,216.17869l-1.24637,2.50959l-2.51,-1.40301l-1.88934,-3.59758l-5.95476,-0.92387l3.43303,-4.865l3.91591,-0.01051z" fill="#a1dffe" stroke="#25d1fe" stroke-width="0" stroke-linecap="round"/><path d="M285.11461,149.95666c4.99043,0.34156 16.64627,2.30208 16.64627,2.30208c0,0 -1.82,9.94528 -2.90648,16.55609c-2.85134,17.34882 -23.46891,19.92203 -23.46891,19.92203c0,0 -1.68347,3.44447 -3.65089,4.63712c-1.55045,0.93989 -15.916,0.71501 -18.12311,0.24143c-2.20711,-0.47358 -4.25412,-4.61591 -4.25412,-4.61591c0,0 -21.03963,-0.07391 -25.31481,-21.33358c-0.81342,-4.04503 -1.96756,-12.97671 -1.96756,-12.97671c0,0 9.23242,-5.03536 16.18804,-4.60683c14.51461,0.89433 35.01721,0.2917 46.85151,-0.12568z" fill="url(#color-4)" stroke="#347db1" stroke-width="0" stroke-linecap="round"/><path d="M248.42994,178.19516l1.00021,14.24119l-39.98081,1.74925l2.06786,-20.16329z" fill="#9eedff" stroke="#000000" stroke-width="0" stroke-linecap="round"/><path d="M249.32761,165.18554c5.35368,5.84357 5.74039,14.20268 0.8637,18.67052c-4.87664,4.46785 -13.16997,3.35256 -18.5237,-2.49105c-5.35369,-5.84357 -5.7404,-14.20267 -0.86371,-18.67052c4.87664,-4.46785 13.16997,-3.35256 18.52371,2.49105z" fill="#fafaf9" stroke="#549bb6" stroke-width="0.125" stroke-linecap="butt"/><path d="M290.81416,161.76228c4.90054,4.44162 4.55873,12.80263 -0.76352,18.67489c-5.32225,5.87221 -13.60954,7.03197 -18.51008,2.5904c-4.90054,-4.44162 -4.55872,-12.80263 0.76353,-18.67488c5.32225,-5.87221 13.60953,-7.03198 18.51007,-2.5904z" data-paper-data="{&quot;index&quot;:null}" fill="#fafaf9" stroke="#549bb6" stroke-width="0.125" stroke-linecap="butt"/><path d="M248.87774,177.34209c0.28665,2.70018 -0.98317,5.04852 -2.8362,5.24526c-1.85304,0.1967 -3.58761,-1.83271 -3.87426,-4.53284c-0.28665,-2.70018 0.98316,-5.04853 2.8362,-5.24526c1.85304,-0.1967 3.58761,1.83272 3.87427,4.53289z" fill="url(#color-5)" stroke="none" stroke-width="0" stroke-linecap="butt"/><path d="M276.86197,171.95256c1.85406,0.18675 3.1365,2.52829 2.8643,5.22997c-0.27216,2.70167 -1.99583,4.7404 -3.84989,4.55356c-1.85406,-0.18675 -3.1365,-2.5283 -2.8643,-5.22997c0.27216,-2.70167 1.99583,-4.7404 3.84989,-4.55361z" data-paper-data="{&quot;index&quot;:null}" fill="url(#color-6)" stroke="none" stroke-width="0" stroke-linecap="butt"/><path d="M223.36912,153.33742c0,0 1.09955,17.39977 6.57337,25.04428c5.47377,7.64442 17.66383,8.71953 18.87861,9.94656c1.68381,1.70077 2.29198,2.56463 2.29198,2.56463l19.70792,-0.3385c0,0 2.67399,-2.28433 4.56097,-3.43986c1.88698,-1.15553 12.45304,-3.05129 15.97323,-8.32627c7.87188,-11.79608 7.40752,-26.79554 7.40752,-26.79554l5.66033,0.1964c0,0 0.57264,16.10521 -6.21422,26.00949c-6.78681,9.90428 -24.8072,16.06212 -24.8072,16.06212l-25.13651,-0.2182c0,0 -24.29488,-14.16416 -24.99762,-19.4408c-0.71371,-5.35911 -2.91249,-20.93877 -2.91249,-20.93877z" fill="#007ad7" stroke="#000000" stroke-width="0" stroke-linecap="round"/><path d="M222.93816,118.16867c12.04059,-12.71844 40.27975,-16.57559 40.27975,-16.57559c0,0 28.55236,6.30266 37.41194,16.15597c8.85958,9.85331 8.54111,35.86781 8.54111,35.86781c0,0 -14.88693,-1.83076 -23.64259,1.11902c-8.7557,2.94978 -20.01349,14.15251 -20.01349,14.15251l-4.43913,-0.15285c0,0 -18.76616,-11.09251 -25.79231,-13.23148c-7.02614,-2.13897 -20.26758,0.05437 -20.26758,0.05437c0,0 -4.11825,-24.67141 7.92234,-37.38976z" fill="url(#color-7)" stroke="#000000" stroke-width="0" stroke-linecap="round"/><path d="M250.96528,192.60388l20.33453,0.12529c0,0 18.55915,-7.37197 22.95301,-12.47081c10.36824,-12.03177 7.35256,-27.53592 7.35256,-27.53592l7.60267,-0.20023c0,0 0.03153,15.16949 -9.82849,27.36272c-9.86002,12.19323 -28.25082,15.00287 -28.25082,15.00287l-19.97989,0.23344c0,0 -18.60974,-6.38585 -27.15644,-17.01237c-8.54669,-10.62652 -9.37899,-24.25382 -9.37899,-24.25382l6.1896,0.34307c0,0 2.09161,17.74395 7.31566,24.61904c5.22405,6.87509 22.84655,13.78671 22.84655,13.78671z" fill="#00c2fa" stroke="#000000" stroke-width="0" stroke-linecap="round"/><path d="M223.16742,124.92392l3.36773,-3.80923l10.12072,-4.88294l43.70073,-0.53943l18.5967,6.70597l-5.8791,12.04972l-9.9368,-5.25142l-10.11171,8.26091l-14.77161,2.57309l-11.8329,-3.76845l-3.83302,-12.23481l-12.42947,9.95607z" fill="#019bf5" stroke="#000000" stroke-width="0" stroke-linecap="round"/><path d="M254.40125,120.38799l-14.0173,12.93466l-8.48931,-7.29194l6.31766,-12.91401l13.4584,-6.00338z" fill="#0090df" stroke="#000000" stroke-width="0" stroke-linecap="round"/><path d="M268.48993,105.16808l14.37568,6.32031l6.80588,13.72505l-9.00451,7.81886l-15.01089,-13.70303z" data-paper-data="{&quot;index&quot;:null}" fill="#0090df" stroke="#000000" stroke-width="0" stroke-linecap="round"/><path d="M257.26853,165.79018l-19.81603,-12.35607" fill="none" stroke="#95e3fb" stroke-width="0.25" stroke-linecap="round"/><path d="M266.08808,168.46417l8.78485,-10.27471l8.61795,-5.41842" fill="none" stroke="#95e3fb" stroke-width="0.25" stroke-linecap="round"/><path d="M248.31858,107.49484c0.18063,-7.02699 11.90847,-32.88002 11.90847,-32.88002c0,0 11.68904,24.6629 12.36732,31.67233c0.5963,6.16279 -4.0523,35.59084 -11.9008,35.73636c-7.27113,0.1349 -12.541,-28.0707 -12.37498,-34.52867z" fill="#00b4f4" stroke="#000000" stroke-width="0" stroke-linecap="round"/><path d="M260.32283,110.31896l-0.49157,29.7074" fill="none" stroke="#abeafb" stroke-width="0.25" stroke-linecap="round"/><path d="M251.7278,100.6304l6.53203,-14.01362" fill="none" stroke="#abeafb" stroke-width="0.25" stroke-linecap="round"/><path d="M261.68823,86.89321l5.75096,14.26635" fill="none" stroke="#abeafb" stroke-width="0.25" stroke-linecap="round"/><path d="M259.68261,84.61353l0.55287,-6.85673" fill="none" stroke="#abeafb" stroke-width="0.25" stroke-linecap="round"/><path d="M259.53977,84.61392c1.02537,-0.00275 1.85885,0.82621 1.8616,1.85163c0.00275,1.02537 -0.82621,1.85885 -1.85163,1.8616c-1.02537,0.00275 -1.8589,-0.82622 -1.86165,-1.85164c-0.00275,-1.02537 0.82626,-1.85884 1.85168,-1.86159z" fill="#fdffff" stroke="none" stroke-width="0" stroke-linecap="butt"/><path d="M260.31747,108.31955c0.63101,-0.00169 1.14394,0.50844 1.14563,1.1395c0.00169,0.63102 -0.50844,1.14389 -1.1395,1.14558c-0.63101,0.00169 -1.14389,-0.50844 -1.14558,-1.13945c-0.00169,-0.63102 0.50844,-1.14393 1.13945,-1.14563z" fill="#fdffff" stroke="none" stroke-width="0" stroke-linecap="butt"/><path d="M277.87126,133.6443l-6.3557,-8.2167" fill="none" stroke="#38adf0" stroke-width="0.25" stroke-linecap="round"/><path d="M289.88189,124.95609l-8.63157,9.10135" fill="none" stroke="#38adf0" stroke-width="0.25" stroke-linecap="round"/><path d="M249.5597,125.69765l-7.58052,7.40959" fill="none" stroke="#38adf0" stroke-width="0.25" stroke-linecap="round"/><path d="M231.1985,128.06923l9.09115,4.83139" fill="none" stroke="#38adf0" stroke-width="0.25" stroke-linecap="round"/><path d="M239.87193,134.59072l4.01019,-0.433" fill="none" stroke="#5fc3f3" stroke-width="0.25" stroke-linecap="round"/><path d="M276.81912,134.91385l2.95569,-0.00793" fill="none" stroke="#5fc3f3" stroke-width="0.25" stroke-linecap="round"/><path d="M274.42537,108.31901l8.66781,4.41029l6.99528,10.5373" fill="none" stroke="#28a2ef" stroke-width="0.25" stroke-linecap="round"/><path d="M231.19393,126.38026l4.82574,-11.2024l12.4351,-7.8449" fill="none" stroke="#28a2ef" stroke-width="0.25" stroke-linecap="round"/><path d="M226.77283,131.03685l-8.42954,5.72289l0.01926,7.1781l-0.25305,-15.62232l6.30586,-10.36192" fill="none" stroke="#7ed7fa" stroke-width="0.25" stroke-linecap="round"/><path d="M269.49156,157.9458l-5.08502,-6.74227" fill="none" stroke="#54e2ff" stroke-width="0.25" stroke-linecap="round"/><path d="M250.49758,160.53023l2.31155,-4.01755" fill="none" stroke="#a3edff" stroke-width="0.25" stroke-linecap="round"/><path d="M253.65074,155.45479l4.20878,-5.07822" fill="none" stroke="#60dcff" stroke-width="0.25" stroke-linecap="round"/><path d="M269.07677,160.69148l5.06689,-0.0136" fill="none" stroke="#dff7ff" stroke-width="0.25" stroke-linecap="round"/><path d="M269.07337,159.42476l1.27522,3.16339l-5.47555,5.08162" fill="none" stroke="#98e9fc" stroke-width="0.25" stroke-linecap="round"/><path d="M235.0632,152.12673l5.07369,2.51986" fill="none" stroke="#fcffff" stroke-width="0.25" stroke-linecap="round"/><path d="M247.53959,159.69367l3.59469,2.10162" fill="none" stroke="#fcffff" stroke-width="0.25" stroke-linecap="round"/><path d="M237.1585,146.2097l0.64867,5.69853" fill="none" stroke="#cdf5fe" stroke-width="0.25" stroke-linecap="round"/><path d="M239.2555,140.92604l-2.10106,3.80584" fill="none" stroke="#5ed5fa" stroke-width="0.25" stroke-linecap="round"/><path d="M284.66681,148.40462l0.01302,4.85575" fill="none" stroke="#d5f7fe" stroke-width="0.25" stroke-linecap="round"/><path d="M281.4801,141.02387l2.9715,5.90345" fill="none" stroke="#8ee6fa" stroke-width="0.25" stroke-linecap="round"/><path d="M284.46525,151.99421l18.36804,0.16187" fill="none" stroke="#b8e1f9" stroke-width="0.25" stroke-linecap="round"/><path d="M301.09731,134.63758l2.11687,2.10558" fill="none" stroke="#e6f7fe" stroke-width="0.25" stroke-linecap="round"/><path d="M291.36764,127.90781l8.45955,5.46644" fill="none" stroke="#81cef7" stroke-width="0.25" stroke-linecap="round"/><path d="M287.32632,116.72925l7.60147,0.40181" fill="none" stroke="#ace2f9" stroke-width="0.25" stroke-linecap="round"/><path d="M303.81302,123.86313l-6.1423,-7.37277" fill="none" stroke="#ace2f9" stroke-width="0.25" stroke-linecap="round"/><path d="M299.93309,172.85375l1.04539,-3.80296" fill="none" stroke="#b4ffff" stroke-width="0.25" stroke-linecap="round"/><path d="M226.90366,179.80557c0,0 -4.94629,-6.13371 -6.27667,-10.83639c-1.33038,-4.70267 -1.18332,-15.53385 -1.18332,-15.53385" fill="none" stroke="#7bd7f6" stroke-width="0.25" stroke-linecap="round"/><path d="M237.62598,284.05426c-19.1997,3.12492 -36.10017,-2.55049 -37.74827,-12.67634c-1.64811,-10.12585 12.58033,-20.86775 31.78002,-23.99267c19.1997,-3.12492 36.10015,2.55045 37.74825,12.6763c0.73885,4.53963 1.91293,13.42492 1.91293,13.42492c0,0 -8.91739,5.16456 -18.52528,8.2283c-5.37621,1.71431 -11.36726,1.72088 -15.16764,2.33943z" fill="#008ce4" stroke="none" stroke-width="0" stroke-linecap="butt"/><path d="M219.44027,152.16869l13.72395,0.38539" fill="none" stroke="#9ef0fc" stroke-width="0.25" stroke-linecap="round"/><path d="M195.61732,211.66443l-6.53754,-37.15134l12.80303,5.70972l10.32742,12.14287l-5.66149,18.56531z" fill="url(#color-8)" stroke="#000000" stroke-width="0" stroke-linecap="round"/><path d="M219.20648,143.72439l-0.40299,7.17924" fill="none" stroke="#7ed7fa" stroke-width="0.25" stroke-linecap="round"/><path d="M225.89829,119.84975l6.9562,-4.03001" fill="none" stroke="#07abeb" stroke-width="0.25" stroke-linecap="round"/><path d="M198.50095,277.12607l-0.75383,-64.22633l5.77965,27.92193l3.18761,31.52501l7.10903,2.82576l7.60079,-5.88817l2.65967,2.6309l3.92445,-3.37439l4.05532,2.10098l8.92814,-3.48588l2.79566,5.93269l5.52429,-3.53478l1.73574,3.14141l4.84336,-1.71131l-3.00552,5.03753l1.33233,0.22866l6.51146,-4.80383l1.59048,-4.97926l7.6878,0.8175l-6.97378,9.64219l-6.55032,3.86051l-1.18637,-1.27414l-42.27155,3.81895z" fill="url(#color-9)" stroke="#000000" stroke-width="0" stroke-linecap="round"/><path d="M196.02066,214.57726l3.14275,-20.06799l3.42332,0.52055l3.18962,4.02654l1.02172,-7.31828l4.16749,-2.06145l34.75849,-0.3913l9.50122,5.84567l7.00257,-4.35158l-5.92029,32.93939l-50.78274,-6.19592z" fill="#0090ea" stroke="#000000" stroke-width="0" stroke-linecap="round"/><path d="M300.71864,150.89502l0.82749,-6.33588" fill="none" stroke="#a3e8fd" stroke-width="0.25" stroke-linecap="round"/><path d="M298.67657,176.65736l-3.15829,3.17529" fill="none" stroke="#5aa2e2" stroke-width="0.25" stroke-linecap="round"/><path d="M302.20561,154.26894l-0.17716,12.66781" fill="none" stroke="#76beed" stroke-width="0.25" stroke-linecap="round"/><path d="M233.45753,275.67948c11.19853,-0.40347 20.35082,1.32585 20.44222,3.86257c0.09135,2.53664 -8.91272,4.9201 -20.11125,5.32357c-11.19856,0.40344 -20.35083,-1.32586 -20.44222,-3.86258c-0.09137,-2.53668 8.9127,-4.92013 20.11124,-5.32361z" fill="#fcfeff" stroke="none" stroke-width="0" stroke-linecap="butt"/><path d="M245.38693,210.93864l11.66679,-17.30054l-3.96964,22.93697l17.27408,40.86723l-7.21267,7.18937c0,0 -6.20785,-10.9857 -9.8265,-9.93186c-3.15028,0.91747 -5.12237,11.18585 -7.99603,11.04772c-5.88087,-0.28272 -7.28089,-10.47075 -11.28161,-9.73018c-3.00801,0.55681 -5.26656,8.29857 -9.07961,9.14292c-4.59091,1.01663 -10.75124,-4.76461 -14.14782,-2.83372c-3.77169,2.14404 -5.44636,7.14614 -5.44636,7.14614l-8.70987,-55.48865l1.97949,-4.71179l6.56902,5.77736l17.20048,-16.01639z" fill="#00a9f7" stroke="#e9f4fd" stroke-width="0" stroke-linecap="round"/><path d="M226.70501,202.44711l28.00761,19.25819l6.7947,-20.87981l9.38006,67.1786l-9.51131,-1.49841l-2.93584,-16.22698l-13.18265,-1.15827l-24.43837,-19.7832z" fill="#00cdff" stroke="#000000" stroke-width="0" stroke-linecap="round"/><path d="M246.46642,276.19119l-1.58542,2.80564l-2.60649,0.95777l-1.11813,-4.20629l-11.27649,-0.76426l-0.93397,4.85775l-4.32785,0.46165l-6.5985,-1.90179l-2.84949,-0.35519l14.81692,-5.05124l16.05159,1.98513z" fill="#a4feff" stroke="#000000" stroke-width="0" stroke-linecap="round"/><path d="M209.70445,211.84058l12.16897,31.62777l1.01533,13.18767l-0.75426,6.92928" fill="none" stroke="#50ebfd" stroke-width="0.5" stroke-linecap="round"/><path d="M225.71382,258.71312l0.2136,5.18849l-4.23077,2.82001" fill="none" stroke="#fdffff" stroke-width="0.5" stroke-linecap="round"/><path d="M245.267,253.93939l0.66419,-38.95973l7.57568,4.97992l8.22915,-20.46645l1.38491,12.98347l-6.94062,21.92531l-4.95987,-1.11878l-1.50413,20.85106z" fill="#5ff9ff" stroke="#5ff9ff" stroke-width="0" stroke-linecap="round"/><path d="M233.75759,247.5149l-6.32233,11.69429l4.1012,-26.62771l9.62644,22.6608z" fill="url(#color-10)" stroke="#000000" stroke-width="0" stroke-linecap="round"/><path d="M254.55973,252.42288l-5.73421,14.50497l1.75788,-33.0515l5.14464,1.01669l2.76045,21.14799z" fill="url(#color-11)" stroke="#000000" stroke-width="0" stroke-linecap="round"/><path d="M208.667,234.84582l11.13857,24.96093l-9.67595,-10.09072l-5.22868,17.60248l1.0381,-32.17141z" fill="url(#color-12)" stroke="#000000" stroke-width="0" stroke-linecap="round"/><path d="M201.36248,245.63553l-2.78757,17.21854l-1.96811,-17.96779z" fill="url(#color-13)" stroke="#000000" stroke-width="0" stroke-linecap="round"/><path d="M268.57786,264.69732l-6.45756,-0.77361l5.18549,-25.5384z" fill="url(#color-14)" stroke="#000000" stroke-width="0" stroke-linecap="round"/><path d="M220.98966,226.58988l7.41737,-24.11833" fill="none" stroke="#58f2ff" stroke-width="0.25" stroke-linecap="round"/><path d="M250.03033,215.85038l5.75425,-23.19945" fill="none" stroke="#0eb9f5" stroke-width="0.5" stroke-linecap="round"/><path d="M207.70124,209.08809l-7.0069,-2.64094" fill="none" stroke="#00b7f3" stroke-width="0.5" stroke-linecap="round"/><path d="M191.96997,186.71784l0.00906,3.37793" fill="none" stroke="#b6cee4" stroke-width="0.5" stroke-linecap="round"/><path d="M193.65945,186.92445l0.22304,4.43299" fill="none" stroke="#50bef0" stroke-width="0.5" stroke-linecap="round"/><path d="M197.69246,227.64339l-0.85498,-11.58781" fill="none" stroke="#33c2e4" stroke-width="0.5" stroke-linecap="round"/><path d="M198.85008,223.62688l-1.04042,-2.31959" fill="none" stroke="#60fcff" stroke-width="0.5" stroke-linecap="round"/><path d="M250.02744,190.52551l-10.65383,-4.00277l-7.46925,2.19738l-14.6315,-4.21702l-9.36104,4.44866l-7.17668,-9.0597l-12.86625,-4.95114" fill="none" stroke="#e9f4fd" stroke-width="0.5" stroke-linecap="round"/><path d="M248.43758,186.33863l-10.22602,-2.79193l-7.08023,2.46485l-11.4951,-3.77917l-10.98028,4.13736l-6.17504,-7.6835l-6.26776,-3.04936l-7.70222,-3.46276" fill="none" stroke="#b8f1ff" stroke-width="0.5" stroke-linecap="round"/><path d="M251.4863,189.23698l-12.54053,-3.92513l-7.09967,1.99319l-13.93618,-3.3952l-9.64787,4.36596l-6.48133,-8.23782l-13.68314,-6.42948" fill="none" stroke="#7fdcfb" stroke-width="0.5" stroke-linecap="round"/><path d="M252.00577,266.13548l-11.1111,-1.33811" fill="none" stroke="#cce3f9" stroke-width="0.5" stroke-linecap="round"/><path d="M253.0232,212.75999l4.69995,0.30069l1.73438,4.22459l3.76389,1.71294" fill="none" stroke="#25d1fe" stroke-width="0.3" stroke-linecap="round"/></g></g></svg>