<svg version="1.1" xmlns="http://www.w3.org/2000/svg" xmlns:xlink="http://www.w3.org/1999/xlink" width="27.87827" height="41.69269" viewBox="0,0,27.87827,41.69269"><g transform="translate(-225.75738,-158.70123)"><g data-paper-data="{&quot;isPaintingLayer&quot;:true}" fill="#ffffff" fill-rule="nonzero" stroke="#000000" stroke-width="0.5" stroke-linecap="square" stroke-linejoin="miter" stroke-miterlimit="10" stroke-dasharray="" stroke-dashoffset="0" style="mix-blend-mode: normal"><path d="M253.38565,174.48191c0,1.49026 -0.26966,2.91311 -0.80899,4.26854c-0.53933,1.34833 -1.25253,2.61506 -2.1396,3.80017c-0.88705,1.17802 -1.89476,2.26732 -3.02311,3.26793c-1.12124,0.9935 -2.26023,1.89121 -3.41697,2.69312h8.83514l-0.67061,11.62405l-26.15413,-0.89416v-10.17637c0.9864,-0.33354 2.02251,-0.73804 3.10827,-1.21351c1.09286,-0.47547 2.16443,-1.01834 3.21471,-1.62864c1.05029,-0.6174 2.04733,-1.30576 2.99117,-2.06508c0.94384,-0.76642 1.77413,-1.60025 2.49087,-2.5015c0.71674,-0.90835 1.28447,-1.89122 1.70316,-2.94859c0.41869,-1.06448 0.62804,-2.21055 0.62804,-3.43825c0,-0.70965 -0.12774,-1.33414 -0.38321,-1.87348c-0.24837,-0.53933 -0.5961,-0.98995 -1.04318,-1.35188c-0.44708,-0.36902 -0.96512,-0.64222 -1.55414,-0.81965c-0.58192,-0.17741 -1.20996,-0.26612 -1.88412,-0.26612c-0.56062,0 -1.12834,0.06386 -1.70316,0.1916c-0.57482,0.12064 -1.14254,0.2945 -1.70316,0.52159c-0.56062,0.21999 -1.08932,0.49321 -1.58607,0.81964c-0.48966,0.31934 -0.92963,0.68482 -1.31995,1.09641l-2.45894,-10.95344c0.68836,-0.68836 1.47962,-1.26318 2.37377,-1.72445c0.89416,-0.46838 1.83444,-0.84804 2.82086,-1.13899c0.9864,-0.29095 1.99057,-0.5003 3.01246,-0.62804c1.029,-0.12774 2.03669,-0.1916 3.02311,-0.1916c2.19991,0 4.24724,0.39741 6.14201,1.19221c1.90187,0.78771 3.55534,1.87702 4.96045,3.26793c1.4122,1.38381 2.5228,3.02666 3.3318,4.92852c0.80899,1.89477 1.21351,3.9421 1.21351,6.14202z"/></g></g></svg>