<svg version="1.1" xmlns="http://www.w3.org/2000/svg" xmlns:xlink="http://www.w3.org/1999/xlink" width="100.15302" height="113.79209" viewBox="0,0,100.15302,113.79209"><defs><linearGradient x1="205.41144" y1="183.13236" x2="207.3085" y2="230.62509" gradientUnits="userSpaceOnUse" id="color-1"><stop offset="0" stop-color="#1e0d09"/><stop offset="1" stop-color="#361b0c"/></linearGradient><radialGradient cx="241.30448" cy="153.69419" r="33.31417" gradientUnits="userSpaceOnUse" id="color-2"><stop offset="0" stop-color="#1f1f1f"/><stop offset="1" stop-color="#242424"/></radialGradient></defs><g transform="translate(-189.82878,-120.07824)"><g data-paper-data="{&quot;isPaintingLayer&quot;:true}" fill-rule="nonzero" stroke-linecap="butt" stroke-linejoin="miter" stroke-miterlimit="10" stroke-dasharray="" stroke-dashoffset="0" style="mix-blend-mode: normal"><path d="M212.32087,153.39759c0.11767,-0.08631 0.26489,-0.16011 0.44846,-0.21408c1.19925,-0.35258 1.55182,0.84667 1.55182,0.84667l0.34114,1.16186c0.25167,0.95356 0.43746,1.9256 0.57612,2.90202c0.28965,7.10395 -1.40474,14.63959 -3.48459,21.35539c-1.62779,5.25612 -2.08957,9.11178 -6.73898,12.58508c-3.22061,0.88981 -7.02631,5.04635 -10.19327,5.08504c-2.11809,0.02587 -3.5917,-4.13542 -3.99279,-5.6681c-1.67763,-6.41095 -0.48696,-14.53909 1.1775,-20.85759c0.63136,-2.16966 0.75247,-4.41848 1.84101,-6.46057c3.63565,-6.8204 10.39815,-12.53087 18.47359,-10.73572z" fill="#6b6b6b" stroke="#3b3b3b" stroke-width="2"/><path d="M198.87674,226.80926l16.09431,1.90899l0.52263,2.53098c0,0 -2.83285,1.19329 -4.94399,1.58009c-0.31757,0.05818 -0.61881,0.09811 -0.89162,0.113c-2.36509,0.12896 -7.62395,-0.95916 -7.62395,-0.95916c0,0 -2.16139,-1.06921 -2.58917,-1.7702c-0.5785,-0.94795 -0.5682,-3.4037 -0.5682,-3.4037z" fill="#000000" stroke="none" stroke-width="0"/><path d="M201.60838,184.46239c0.21001,-0.28785 0.57582,-0.38858 0.57582,-0.38858l0.87908,-0.24097c1.46618,-0.33415 2.86678,-0.71533 4.37687,-0.7815c9.86203,-0.39393 11.23555,13.43273 11.47947,20.17704c-0.61368,3.54096 -0.04778,7.21163 -0.19941,10.77898c-0.11468,2.69802 -0.91238,5.26217 -1.16186,7.93329c-0.20147,2.1571 0.03664,4.08455 -0.23563,6.08907l0.26506,0.02455l-0.15412,1.36691c-0.04321,0.45259 -0.44196,0.81714 -0.94189,0.83711c-0.27106,0.01083 -0.52053,-0.08169 -0.70478,-0.24005l-0.87304,-0.75032l0.01365,-0.01378l-0.063,-0.03179c-2.54767,-2.91725 -6.86413,-4.22413 -10.91542,-3.01177c-2.36982,0.70916 -3.79116,2.06965 -6.37494,2.3139c-3.72095,-7.43202 -4.25734,-16.80149 -3.35057,-24.94708c1.20153,-6.7452 -0.42026,-15.91609 7.38474,-19.11505z" fill="url(#color-1)" stroke="none" stroke-width="0.5"/><path d="M217.16398,231.91507c-0.30789,0.2305 -0.61576,0.46099 -0.92366,0.6915c-1.42691,0.58734 -3.12746,0.97252 -4.94125,1.15014c-5.26389,0.51551 -11.48162,-0.71692 -14.73324,-3.8278c-0.38618,-0.11032 -0.67278,-0.43801 -0.68867,-0.83601c-0.00097,-0.02411 -0.00093,-0.04805 0.0001,-0.07178c-0.06396,-0.25139 -0.03379,-0.5802 0.35531,-0.87579c0.06914,-0.05253 0.1371,-0.09448 0.20349,-0.12736l0.21546,-0.2906c0.46628,-0.62591 0.9919,-1.21469 1.54683,-1.7745c6.08473,-4.64303 14.58708,-1.75134 18.76606,3.65036c0.03677,0.02309 0.07343,0.04632 0.11,0.06968l0.24545,-0.19293c0,0 0.98159,-0.03921 1.0181,0.87499c0.03651,0.91422 -0.94507,0.95342 -0.94507,0.95342l-0.07283,-0.00636zM215.21484,231.05101c0.07766,-0.0601 0.15533,-0.1202 0.23298,-0.1803c-3.41358,-2.00961 -7.49359,-2.6305 -11.56673,-2.16646c-1.73425,0.19757 -3.23855,0.65616 -4.79242,0.85664c4.09431,2.75795 11.97639,3.28019 16.12616,1.49013z" fill="#6d3618" stroke="none" stroke-width="0.5"/><path d="M207.33333,201.55997c-0.17322,-0.09451 -0.33588,-0.27415 -0.34951,-0.61522c-0.02993,-0.7494 0.71947,-0.77934 0.71947,-0.77934l0.19896,0.14217c0.73238,-0.59641 1.89598,-2.1772 2.70838,-2.47882c1.02892,-0.38201 3.53,0.45141 4.5598,0.60236c3.35847,0.49231 6.70865,0.68015 10.06719,1.21593c1.7348,0.42285 8.82799,2.29917 8.12013,4.85664c-0.19127,0.69104 -1.25982,1.04547 -1.81008,1.30242c-3.11816,1.45611 -5.78268,0.92236 -9.09473,1.06406c-4.93908,0.17672 -11.56976,-0.61254 -14.94787,-4.69135c0,0 -0.23228,-0.28524 -0.17173,-0.61886z" fill="#a25121" stroke="none" stroke-width="0.5"/><path d="M231.20388,203.5182l1.21599,-0.62924c0.07111,-0.40929 0.28534,-0.79952 0.74308,-1.14128h-0.00001c1.26466,-0.94427 2.81061,-0.02064 3.40178,1.07629c0.40011,0.74241 0.34047,1.74179 0.31008,2.72372c0.54847,0.22631 1.0754,0.43908 1.5664,0.5908c2.51885,0.77834 5.39154,0.31126 7.90334,-0.26519c3.177,-0.54223 6.75403,-3.45338 10.06971,-2.23551c6.0746,2.23126 7.09492,10.55332 1.06121,13.20366c-2.1693,1.38732 -5.64503,3.36196 -8.39132,2.72009c-2.89936,-0.67766 -2.69188,-4.7701 -4.13059,-6.61161c-0.98089,-1.25551 -2.25638,0.46273 -2.43667,1.27839c-0.16187,0.73239 -0.33589,1.46599 -0.59252,2.17079c-1.22238,2.61516 -4.02449,3.71213 -7.14976,3.36645c-0.95469,-0.10559 -2.51352,0.72881 -3.33846,0.06736c-1.73131,-1.38822 -3.20407,-4.72509 -3.08164,-7.2814l-0.00001,-0.00001l0.35064,-0.39023c-0.57212,-2.48883 -0.75879,-5.61127 1.57457,-7.1141c0.37226,-0.85462 0.7306,-1.44827 0.9242,-1.52897zM228.55071,212.72121c0,0 -0.16958,0.1837 0.01411,0.35327c0.18369,0.16958 0.35327,-0.01411 0.35327,-0.01411c0.20487,-0.22541 0.43513,-0.43352 0.6768,-0.63443c-0.12546,-0.14351 -0.22856,-0.30979 -0.31158,-0.49501c-0.22885,0.25021 -0.4722,0.51188 -0.7326,0.79027z" fill="#151515" stroke="none" stroke-width="0.5"/><path d="M241.16514,139.20657c-1.11664,-3.72349 -6.19343,-9.06357 -3.28115,-13.26385c4.3598,-6.28797 2.81977,3.05859 5.63378,2.94326c0.65834,-0.02698 0.62966,-1.22799 1.18559,-1.58164c3.29387,-2.09542 6.58799,0.44631 7.60795,3.44923c0.04405,0.94912 -0.67016,5.2907 0.90968,5.61122c0.6296,0.12773 0.68783,-1.17353 1.26638,-1.4528c2.31716,-1.11849 4.36863,0.45605 4.81405,2.64964c0.77825,3.83267 -2.52955,3.93769 -4.6365,5.7544c-0.71273,0.61455 -0.9392,1.43436 -1.04346,2.28793c2.75456,2.05948 6.44706,2.74489 9.26212,4.86465c2.66344,2.01219 4.99282,3.83494 7.0752,6.51056c0.85409,1.0974 1.58936,3.31298 2.50865,4.17697c0.63922,0.60077 4.12545,0.08709 5.01188,0.23991c2.74328,0.47291 4.66124,2.18172 6.6067,4.02162c2.43055,2.67521 5.62588,6.81061 4.42583,10.75574c-0.28848,0.94837 -0.84135,1.41196 -1.47893,2.09058c-3.92587,4.17854 -8.16213,0.57342 -9.58322,-3.83372c-0.40016,-0.92082 -0.64919,-1.88143 -1.25503,-2.69558c-1.0761,-1.44613 -4.55609,-3.12829 -5.79811,-0.81046c-1.67175,3.11976 2.41008,5.94081 4.75281,6.79228c1.49166,0.59202 3.4533,1.30314 4.43837,2.66715c2.15637,2.9859 0.16008,8.79972 -2.00035,11.32895c-2.37094,2.77569 -20.03551,15.26717 -23.16661,12.41195c-0.18263,-0.46181 -1.69965,-1.42299 -1.39433,-2.13919c2.15336,-5.05099 16.44094,-15.17708 16.90185,-18.43114c0.20706,-1.46183 0.05451,-3.98824 -1.49194,-4.30663c-1.58289,-0.3259 -4.04811,0.32858 -5.71727,0.37626c-5.61051,0.16025 -9.92214,1.27056 -14.07106,5.16587c-1.26668,1.18925 -1.95847,3.16327 -3.04044,4.51873c-0.4164,0.52167 -0.70734,1.45313 -1.37481,1.45589c-1.01313,0.00418 -1.60481,-1.69303 -1.92934,-2.43559c-0.701,-1.73699 -3.4287,-0.83471 -4.88808,-1.90135c-3.26574,-2.38688 -6.33797,-5.63711 -9.80213,-6.59022c-2.35507,-0.64795 -3.93366,-1.40396 -6.19542,-0.42469c-0.86393,0.46222 -3.08776,1.40989 -3.57723,2.3024c-1.14078,2.08009 0.34883,7.19198 0.59022,9.44828c0.13686,1.27912 2.56251,5.5244 1.35766,6.52669c-1.08383,0.90161 -6.76726,-0.15607 -8.00161,-0.60631c-4.0968,-2.2975 -8.57956,-9.59312 -6.49026,-14.44516c0.91249,-2.11912 3.32996,-3.31103 5.50495,-3.70889c1.27569,-0.23335 2.33269,-0.68277 2.07267,-0.91088c0.58638,-4.34779 0.14834,-7.43713 0.37368,-11.87717c0.10393,-2.048 0.7091,-4.29574 1.16151,-6.30084c0.4688,-2.0778 1.22498,-3.50039 2.2241,-5.27882c2.295,-2.45798 5.41758,-4.6178 8.47923,-6.12465c3.17633,-1.5633 7.58036,-2.11496 10.27039,-4.44416c0,0 0.01758,-0.01491 0.04971,-0.03756c0.01456,-0.10588 0.02911,-0.21177 0.04366,-0.31765c1.71757,-0.03063 3.43929,-0.00481 5.16888,0.08204c-0.13423,-1.44611 0.56548,-3.25038 0.51981,-4.51325z" fill="#a25121" stroke="none" stroke-width="0.5"/><path d="M237.21483,133.40562c-0.37812,-2.26756 -1.51354,-8.0715 0.48431,-9.85582c2.784,-2.48644 3.22018,0.04991 4.3643,1.99059c0.3378,0.57298 0.21555,1.91461 0.87,1.79579c0.30819,-0.05596 0.28095,-0.63231 0.57342,-0.74446c0.52653,-0.2019 1.12433,-0.09001 1.6873,-0.12245c0.23495,-0.01353 3.0034,-0.13164 3.17033,-0.08833c3.79829,0.9855 3.97732,4.92051 4.97226,7.9698c1.17217,2.3563 -0.37724,-0.60967 1.98265,-1.03919c1.9475,-0.35447 3.79677,2.4854 4.26584,3.94354c1.32232,4.1106 -2.28605,6.41832 -5.25009,8.10023c-0.23358,0.13254 0.5135,0.15886 0.76449,0.25441c0.78543,0.29899 1.54272,0.66579 2.30315,1.02502c0.00358,-0.00393 0.00714,-0.0079 0.0107,-0.01191c0.21933,0.06689 0.43853,0.13512 0.65763,0.20476c2.5731,1.12002 5.23064,2.08779 7.76054,3.28431c2.50679,2.578 4.56906,5.12779 6.80872,8.15815c0.5746,0.77747 1.50545,0.66086 2.33104,0.79081c2.03592,0.32045 4.09735,0.50683 5.94224,1.51432c5.39165,2.94437 8.37004,9.85436 9.06814,15.66396c-0.09272,0.86421 0.08771,1.80421 -0.27816,2.59261c-1.16449,2.50927 -4.3096,3.39974 -7.30651,3.0843c1.46794,5.18018 -3.53146,12.38568 -7.05817,15.39508c-0.6428,0.54849 -1.83974,1.46706 -3.0217,2.05493c2.88797,2.6188 5.42449,5.49984 7.15718,9.07178c1.79948,3.70968 3.07312,5.59942 -0.00317,9.0489c-2.57207,2.05213 -7.48297,7.01611 -11.09881,5.77045c-1.18049,-0.40668 -1.59893,-2.0528 -2.74472,-2.54894c-2.33964,-1.01308 -4.30229,-0.75535 -5.56078,-3.5413c-0.21802,-0.48265 -0.363,-1.05802 -0.47369,-1.67381c-0.22102,0.29305 -0.44201,0.58608 -0.66304,0.87914l-0.00008,-0.00014c-2.17984,2.8622 -7.09172,4.33393 -10.62711,3.20659c-1.91851,-0.61176 -2.73195,-2.55281 -3.16555,-4.33485c-0.11647,-0.47864 -0.33147,-1.29582 -0.37938,-1.9309c-0.4769,0.54728 -1.18126,1.11696 -1.67021,0.96599c-0.16259,1.05442 -0.42054,2.36801 -0.86503,3.19294c-2.18274,4.05105 -10.15042,4.47352 -12.74708,0.96167c-0.99938,-1.35164 -1.18028,-3.34386 -1.22947,-4.94739c0,0 -0.00543,-0.18991 0.07155,-0.40593c0.01318,0.02958 0.03448,0.05981 0.06675,0.0896c0.18235,0.16834 0.35069,-0.01401 0.35069,-0.01401c0.21835,-0.24025 0.46577,-0.46071 0.72509,-0.67378c0.74716,0.1293 0.77054,0.94744 0.77054,0.94744c0.03153,1.2051 0.10567,2.84408 0.87049,3.86425c1.70111,2.26912 8.0769,2.04922 9.38224,-0.77941c0.36761,-0.79659 0.58455,-2.02502 0.70398,-2.90469l-0.03518,-1.23142c-0.01566,-0.54803 0.41592,-1.005 0.96396,-1.02065c0.27401,-0.00783 0.52527,0.09616 0.70997,0.2706l0.49238,0.46503c0.0751,-0.0204 0.14557,-0.05635 0.20932,-0.1114c0.67137,-0.57981 1.10891,-1.97815 2.49469,-1.38362c1.18988,0.51046 1.00415,4.91553 1.72438,6.08195c1.79004,2.89895 8.03204,0.59727 9.59786,-1.50349c0.23744,-0.31483 0.47488,-0.62965 0.71233,-0.94446l0.30472,-0.49367c0,0 0.34487,-0.55078 0.92218,-0.48203c-0.09183,-0.70288 -0.19692,-1.38079 -0.36686,-1.96404c-0.65888,-2.26139 -1.94456,-3.78402 -3.38202,-5.59076c0,0 -1.0816,-1.35945 0.27785,-2.44107c1.35945,-1.0816 2.44107,0.27786 2.44107,0.27786c1.71784,2.15915 3.19541,4.06859 3.99435,6.76665c0.52589,1.77599 0.49995,3.80007 1.02432,5.52268c0.40742,1.33843 2.94165,1.30242 3.83122,1.73521c1.07016,0.52064 1.56086,1.84969 2.57388,2.47425c0.57845,0.35664 1.30353,-0.45033 1.85285,-0.85034c1.86265,-1.3564 3.77026,-2.81647 5.58975,-4.25904c1.8527,-1.74566 0.2124,-2.94111 -0.77343,-4.97582c-1.93801,-4 -5.05714,-7.01408 -8.46449,-9.82975l-1.45239,-1.02583c-0.43999,-0.30369 -0.73438,-0.80568 -0.75081,-1.38105c-0.02739,-0.95906 0.72787,-1.75873 1.68693,-1.78613c0.12901,-0.00368 0.25513,0.0068 0.3769,0.03001l1.82195,0.31057l-0.03366,0.19735c0.39584,-0.06141 0.78958,-0.1337 1.17947,-0.22596c2.78952,-0.66014 5.71547,-4.55338 6.96425,-6.92682c1.92491,-3.65854 1.91751,-7.58957 -1.69268,-8.68728c-2.03682,0.15061 -4.19106,0.29792 -5.58568,-1.6256c-1.43206,-1.97514 -1.6792,-8.38255 0.61815,-9.70317c0.88385,-0.50808 2.05619,-0.20946 3.05837,-0.02237c2.78198,0.51932 3.6593,2.53659 4.49411,4.90842c0.33423,0.9496 0.42869,2.13678 1.02787,2.92065c0.32907,0.0917 0.7257,0.28659 0.97459,0.70008c2.01518,0.80397 5.97581,1.43842 5.93818,-1.48256c-0.54634,-4.58122 -3.04354,-10.35017 -7.26746,-12.70221c-2.17243,-1.20969 -4.8738,-0.56771 -7.0822,-1.55814c-2.44778,-1.09778 -2.55964,-2.82682 -3.99239,-4.72816c-1.9344,-2.56705 -4.30199,-4.39484 -6.60377,-6.56096c-0.85764,-0.72981 -2.02015,-1.16416 -3.24105,-1.5328c-0.52602,0.3032 -1.13704,0.02835 -1.13704,0.02835c-1.03425,-0.4652 -2.08786,-0.88955 -3.10273,-1.3956c-0.55399,-0.27625 -1.3133,-0.3573 -1.63061,-0.88884c-2.69706,-4.51835 6.34443,-4.42607 4.77409,-8.96176c-0.2411,-0.69639 -0.83077,-1.21758 -1.23228,-1.83555c-0.08571,-0.1319 -0.02733,-0.60913 -0.08744,-0.46376c-0.35603,0.86093 -0.81758,2.09287 -1.74481,2.18339c-1.8739,0.18296 -2.42751,-1.40683 -3.09794,-2.56214c-0.59933,-1.79429 -0.77369,-6.02546 -3.23634,-6.54077c-0.77799,-0.1628 -2.75374,-0.11324 -3.50356,0.13192c-0.58936,0.19269 -1.03715,0.99362 -1.6446,0.86923c-0.67448,-0.13812 -2.85676,-2.34906 -3.33863,-3.86725c-0.00326,0.01959 -0.00627,0.03788 -0.00899,0.05466c-0.06844,0.42208 -0.08977,0.85157 -0.09709,1.2791c-0.03164,1.84909 0.09626,3.75797 0.4003,5.57911c0.78491,2.68188 2.75486,5.64029 2.25048,8.5704c-0.72178,4.19299 -5.18328,6.12353 -8.95255,6.30815l-0.38006,0.01558c0,0 -0.2508,0.01028 -0.53142,-0.0912c-3.02196,0.99236 -5.80141,2.05368 -8.84526,3.51197c-1.83311,0.87822 -4.27208,2.06087 -5.53153,3.72818c-2.28607,3.02639 -3.64569,7.73688 -4.28707,11.40002c0.10238,3.1877 0.65078,6.41106 0.46782,9.61113c-0.06143,1.0747 -0.47095,2.39815 -1.15149,3.23216c-1.4239,1.74494 -4.24424,0.36326 -5.95533,2.36416c-1.1465,1.3407 -0.85604,4.28187 -0.38808,5.81572c1.25411,4.11073 2.781,6.60011 6.29914,9.11763c2.22855,0.90003 3.33921,1.20794 5.65585,0.41184l1.42027,-0.11386c0,0 1.73653,-0.0496 1.78613,1.68693c0.01657,0.57995 -0.16608,0.97175 -0.41675,1.23639c0.2496,0.05293 0.51694,0.17713 0.79429,0.40616c0.00186,0.00154 0.00374,0.00308 0.00559,0.00462c-0.71697,-0.07303 -1.44359,-0.10248 -2.18566,-0.06824c-0.16216,0.06023 -0.32194,0.12714 -0.47973,0.19952c-3.18194,0.98821 -5.18779,0.556 -8.25278,-0.71805c-5.31519,-3.71732 -12.15098,-13.64914 -6.92097,-20.18662c0.80121,-1.00151 2.71737,-2.12728 3.93546,-2.49836c0.67994,-0.20716 1.40132,-0.31007 2.11193,-0.29448c0.27466,0.00604 0.61185,0.59863 0.74278,0.35711c0.15506,-0.28602 -0.41473,-0.53342 -0.47372,-0.85339c-0.1228,-0.66619 -0.03868,-1.35426 -0.05802,-2.03142c-0.07582,-2.65421 -0.33427,-5.2725 -0.40266,-7.92243c0.71483,-4.28427 2.26633,-9.74247 4.98907,-13.26192c3.49728,-4.52066 9.77133,-6.64222 15.39122,-8.30419c2.11966,-0.16868 4.24016,-0.25714 6.36864,-0.25658c4.44424,-2.24757 1.82898,-6.57365 0.57555,-10.82169zM273.66136,176.89725l0.91175,-0.01741c0.47459,0.0377 0.86934,0.05795 1.22147,0.08128c-0.53354,-2.06572 -0.91444,-4.43943 -3.16014,-4.58866c-0.58373,-0.03879 0.33443,1.12294 0.44925,1.69659c0.18938,0.94612 -0.10036,1.97495 0.17152,2.89403c0.23418,-0.06086 0.40617,-0.06578 0.40617,-0.06578z" fill="#2e2e2e" stroke="none" stroke-width="0.5"/><path d="M210.43806,174.89286c-0.03012,-0.29527 0.03873,-0.53398 0.03873,-0.53398l0.23632,-0.77406c1.39955,-2.99749 -0.27196,-6.84201 0.28126,-10.12169c0.99,-5.86906 5.96516,-11.09802 10.61155,-14.46714c2.84327,-1.56483 6.70803,-3.25273 9.86027,-3.95764c2.6734,-0.59782 5.5174,-0.71769 7.33961,-3.07945c1.77058,-2.29483 0.65003,-3.98761 -0.12284,-6.48279c-0.73094,-2.35982 -1.16952,-4.94437 -1.54071,-7.38363c-0.05003,-1.21384 -0.31646,-3.98386 0.77333,-4.65691c1.52482,-0.94171 4.03042,3.45926 5.31693,3.97747c1.94167,0.7821 3.28888,-1.54265 5.10643,-1.28044c2.18274,0.31489 3.92605,3.70298 4.59491,5.45552c0.12179,0.31911 0.50968,2.88734 0.95937,3.06936c0.82429,0.33364 1.7567,-0.60865 2.63058,-0.44394c1.66278,0.31341 2.21185,1.97138 2.91011,3.18158c-0.59271,2.52638 -1.70137,3.5758 -3.29019,5.49617c-0.40495,0.48944 -1.94768,1.8649 -2.02477,2.5196c-0.06734,0.57196 1.14462,0.13789 1.70965,0.2493c0.54618,0.10767 1.09216,0.21692 1.6354,0.33853c1.71857,0.38474 3.24473,0.89824 4.79544,1.74087c5.14355,2.7949 8.36189,5.79324 11.34894,10.71257c1.86903,4.86782 2.32224,10.64812 -0.24404,15.37097c-1.47574,2.71588 -3.71382,5.75647 -6.89226,3.66844c-0.60764,-0.39918 0.2791,1.60891 -0.17862,2.17376c-1.9244,2.37476 -4.75303,1.13195 -7.09299,3.09852c-2.58678,2.17401 -5.85361,-1.50913 -8.2488,-1.6117c-2.99412,-0.12821 -4.06306,7.44108 -7.21156,6.86233c-1.63229,-0.30005 -3.61951,-5.2552 -4.94281,-6.24719c-0.57101,-0.42804 -0.63713,-1.74764 -1.34595,-1.66487c-0.25947,0.0303 -0.13012,0.57582 -0.36274,0.6947c-1.49748,0.76523 -3.10587,0.64564 -4.71461,0.71632c-2.85872,0.11717 -7.07749,1.29878 -9.83083,0.32441c-0.67101,-0.23747 -1.32397,-0.61581 -1.8057,-1.13981c-0.22483,-0.24456 -0.41988,-0.84135 -0.48853,-1.32046c-0.33164,0.24064 -0.81603,0.46902 -1.10491,0.59476c-1.2725,0.55384 -2.591,1.11675 -3.97284,1.24511c-1.89705,0.17621 -5.85357,-0.9916 -6.20575,-3.26669c-0.15604,-1.00805 0.81161,-2.22294 1.47263,-3.05789z" fill="url(#color-2)" stroke="none" stroke-width="0.5"/><path d="M230.61496,207.15899c-0.2241,2.18993 -0.3408,4.46376 0.06384,6.63437c0,0 0.22603,1.2294 -1.00337,1.45542c-1.2294,0.22603 -1.45542,-1.00337 -1.45542,-1.00337c-0.42753,-2.35427 -0.3468,-4.78976 -0.10385,-7.16398l-0.00988,-0.23265c-7.14513,2.31861 -15.70593,2.15119 -21.56024,-2.95288c-0.29489,-0.18001 -0.58978,-0.36004 -0.88467,-0.54005l-0.91092,-1.49858c0,0 -0.51019,-1.14114 0.63095,-1.65133c1.14114,-0.51019 1.65132,0.63095 1.65132,0.63095l-0.06874,0.38515c0.14666,0.08953 0.29332,0.17906 0.43997,0.26859c0.32123,0.10028 0.53888,0.30122 0.53888,0.30122c0.0294,0.02741 0.05889,0.05465 0.08847,0.08176c0.03728,0.02276 0.07457,0.04552 0.11185,0.06829c0,0 0.21432,0.13082 0.39219,0.37127c6.15274,5.10616 15.76733,3.97668 22.36154,0.71686l0.83773,-0.26484c0,0 1.19961,-0.35133 1.55094,0.84829c0.35133,1.19961 -0.84828,1.55094 -0.84828,1.55094l-0.43466,0.1078c-0.46704,0.22972 -0.9456,0.44886 -1.43411,0.65651z" fill="#2e2e2e" stroke="none" stroke-width="0.5"/><g stroke="none" stroke-width="0.5"><path d="M214.2173,200.94139c-0.89049,0.57948 -4.92675,0.03149 -5.63796,-1.02072c-0.76423,-1.13068 0.58884,-1.62192 0.16095,-2.64466c-0.39223,-0.93751 -0.72142,-1.54964 -0.94413,-2.57374c-0.04349,-0.06762 -0.06472,-0.11446 -0.06472,-0.11446l-0.23506,-0.60351c-0.02937,-0.55702 -0.326,-1.16654 -0.08809,-1.67104c0.32106,-0.68082 1.14407,-2.46328 2.07865,-3.91757c0.19491,-0.01289 0.38983,-0.01842 0.58483,-0.01463c2.81718,1.04588 5.02279,2.93021 7.46975,4.5912c1.12207,0.8895 2.72692,2.14842 3.05644,3.57722l-0.09803,-0.03685c-1.71599,-0.04248 -1.87637,1.4368 -2.60649,2.23393c-0.84362,0.92105 -2.205,1.23749 -3.67613,2.19485z" data-paper-data="{&quot;index&quot;:null}" fill="#9f4d1e"/><path d="M206.17904,191.98888l0.09249,0.3157c0.12287,0.48414 1.03422,0.25083 1.35973,0.62969c0.99962,1.16338 0.2117,1.59282 0.21804,2.60827c0.00262,0.42091 0.84298,-0.38381 1.23932,-0.24209c0.58869,0.21052 1.06307,0.71293 1.41815,1.22753c0.2471,0.35813 -0.18141,1.35985 0.24664,1.28182c0.13297,-0.02425 0.26537,-0.0515 0.39742,-0.08072l-0.0918,-0.16699l1.09008,-0.59922c0.24793,-0.13823 0.55276,-0.17056 0.83927,-0.06286c0.51697,0.19432 0.77853,0.77092 0.58421,1.28791c-0.05199,0.13831 -0.13133,0.25834 -0.22958,0.35625l-0.6996,0.72955c-1.77374,1.8482 -3.95782,3.20905 -5.67102,5.09011c-0.76649,0.8416 -1.99835,2.5416 -3.24306,2.66528c-1.50016,0.14906 -2.37675,-1.35464 -3.45487,-2.05595c-1.57481,-0.58505 -3.48224,-0.30969 -4.69749,-1.58533c-1.63349,-1.71466 -1.10777,-4.88269 0.06172,-6.66436c2.02161,-3.07983 6.21354,-4.13338 9.12779,-6.08885c0,0 0.83039,-0.55719 1.38758,0.2732c0.30903,0.46055 0.19123,0.83707 0.025,1.08109z" data-paper-data="{&quot;index&quot;:null}" fill="#060301"/><path d="M211.45864,191.14961c-4.35667,2.32698 -11.62711,3.40123 -14.44175,7.82001c-2.38537,3.74488 2.09588,3.40097 4.2772,4.56406c0.86921,0.46345 1.37909,1.93617 2.35291,1.78793c0.49728,-0.07569 0.82386,-0.57729 1.23579,-0.86592c4.45891,-2.00161 8.04487,-5.75746 12.16372,-8.38916l0.97194,-0.93959c0,0 0.63266,-0.58656 1.4214,-0.49177c0.77836,0.82743 1.35753,1.77691 1.18943,2.78622c-0.12386,0.17261 -0.23126,0.27219 -0.23126,0.27219l-1.46945,1.32387c-4.25654,2.70952 -7.91025,6.47737 -12.50695,8.58183c-3.55954,1.59332 -3.76431,0.80607 -6.82171,-1.00292c-0.9797,-0.57967 -2.32439,-0.15937 -3.3533,-0.64636c-3.65335,-1.72912 -4.12338,-5.6992 -2.20418,-8.82499c3.07395,-5.00647 10.02876,-6.22586 15.05027,-8.69379c0.32632,-0.03669 0.65261,-0.05648 0.9791,-0.05014c0.82365,0.30578 1.59503,0.68323 2.33544,1.10582c0.12513,1.0867 -0.94858,1.66273 -0.94858,1.66273z" data-paper-data="{&quot;index&quot;:null}" fill="#2e2e2e"/><path d="M215.33725,198.58776c-0.85297,2.34999 -3.20296,1.49701 -3.20296,1.49701l-1.06569,-0.39357c-1.70816,-0.76714 -3.36801,-1.65648 -4.94222,-2.67047c0,0 -2.09801,-1.35954 -0.73846,-3.45756c1.35954,-2.09802 3.45755,-0.73846 3.45755,-0.73846c1.35136,0.88184 2.78389,1.64725 4.2596,2.3l0.73518,0.26009c0,0 2.34999,0.85297 1.49702,3.20296z" fill="#8e0000"/></g><path d="M236.0742,205.65433c-0.25367,-0.03509 0.1469,-0.19732 -0.03695,-0.5946c-0.42001,-0.90752 -0.18647,-1.17259 -0.18647,-1.17259l1.12842,-0.49974c2.92478,-0.13004 5.75901,0.05413 8.6727,0.14043c1.40877,0.04172 3.47885,-0.31853 4.81546,0.0301c1.68172,0.43866 1.5354,0.94944 2.15167,2.35511c0.04881,1.50515 -0.02455,3.48608 -1.35149,4.554c-1.20181,0.96721 -3.38695,1.6105 -4.80395,1.74109c-0.49447,0.04557 -1.26754,0.67354 -1.78545,0.7104c-4.3033,0.30629 -8.8679,-1.69579 -8.60396,-7.26421z" data-paper-data="{&quot;index&quot;:null}" fill="#393939" stroke="none" stroke-width="0.5"/><path d="M255.68905,202.75588c-0.08223,-0.10738 -0.14963,-0.24695 -0.1912,-0.42778c-0.22403,-0.97458 0.75054,-1.19862 0.75054,-1.19862l0.80569,-0.17729c2.93732,-1.07323 6.99257,-3.70132 9.84773,-3.81372c2.06029,1.44441 4.21657,2.94812 5.73897,4.99744c0.79574,1.07118 2.12695,2.75202 1.04634,4.27985c-0.42399,0.59947 -1.81263,-0.2644 -2.17027,0.37685c-0.45101,0.80869 -0.76011,1.9489 -1.63793,2.24359c-0.4826,0.16201 -1.22759,-0.74494 -1.67576,-0.07343c-0.45066,0.67523 -0.46249,1.76026 -1.18694,2.1266c-0.99623,0.50378 -2.58365,-1.25939 -3.32233,-0.42238c-0.16887,0.19135 0.2575,0.55611 0.10234,0.75873c-0.05136,0.06706 -0.10559,0.13135 -0.16224,0.19333l0.03625,0.02735l-0.71199,0.94404c-0.17637,0.23805 -0.45629,0.3957 -0.7754,0.40481c-0.50173,0.01433 -0.92768,-0.34345 -1.01301,-0.82323l-0.19909,-1.01495c-1.1174,-2.56347 -2.22971,-6.40135 -4.79145,-7.81444c0,0 -0.36552,-0.20533 -0.49024,-0.58677z" data-paper-data="{&quot;index&quot;:null}" fill="#9f4d1e" stroke="none" stroke-width="0.5"/><path d="M220.65073,197.70733c0.10695,-0.04609 2.96971,2.14347 3.05721,2.12645c1.84187,-0.35827 3.59507,0.9357 5.30649,1.49914c-0.11406,-0.03412 -0.22678,-0.06713 -0.33766,-0.09919c-2.96547,-0.61908 -5.78643,-1.57012 -8.87239,-1.42775c-0.10504,0.03902 -0.2091,0.08081 -0.31226,0.12507c0.25262,-1.09695 0.62008,-1.99169 1.15861,-2.22371z" data-paper-data="{&quot;index&quot;:null}" fill="#9f4d1e" stroke="none" stroke-width="0.5"/><path d="M229.45285,201.46c1.09959,0.27157 1.99512,0.0146 2.5951,0.52987c0.04498,-0.01732 0.09047,-0.0345 0.1365,-0.05156l-0.00142,-0.04988l1.3557,-0.03872c0.55206,-0.01577 1.01238,0.41897 1.02815,0.97104c0.01577,0.55206 -0.41897,1.01238 -0.97104,1.02815l-0.33397,0.00953c-0.71849,-1.26614 -2.42444,-1.96083 -3.96434,-2.43928c0.0518,0.01443 0.10359,0.02807 0.15532,0.04084z" data-paper-data="{&quot;index&quot;:null}" fill="#9f4d1e" stroke="none" stroke-width="0.5"/><path d="M262.19535,214.27732c-0.63973,-0.32443 -0.47133,-1.09034 -0.47133,-1.09034l0.09716,-0.30287c0.13021,-2.01841 0.64908,-2.95069 2.82954,-2.42865c1.00377,-0.71772 1.89243,-0.41165 2.79107,-0.6619c0.66934,-0.1864 0.07369,-1.58045 0.63933,-1.98395c0.6306,-0.44984 1.6364,0.41792 2.32303,0.05941c0.88663,-0.46294 -0.1071,-2.62155 1.85831,-3.17653c1.35689,-0.38315 3.09999,0.96238 3.89591,1.84476c2.19107,2.42914 3.94309,6.8293 2.3481,9.86951c-1.48116,1.56825 -6.45968,5.07014 -8.78013,4.54813c-1.96181,-0.44133 -1.89142,-2.65572 -3.35343,-3.34178c-0.63934,-0.30002 -1.42199,0.5919 -2.08829,0.35777c-1.32762,-0.4665 -1.82354,-2.18365 -2.08925,-3.69355z" data-paper-data="{&quot;index&quot;:null}" fill="#060301" stroke="none" stroke-width="0.5"/><path d="M229.33749,180.64085c3.61074,0.97054 6.95226,3.00154 10.1186,4.9218c1.04041,0.63096 2.22795,1.52807 2.88884,2.54528c0.28868,0.4443 0.11769,0.62519 0.6122,0.81546c0.25646,0.09867 1.8416,-2.0331 2.02785,-2.2706c5.89419,-6.25008 13.47578,-11.78414 22.54482,-9.04532c3.78202,1.5543 3.25146,4.74865 2.75969,8.08864c-0.85584,5.81263 -2.30831,10.82849 -8.12573,13.20315c-2.61817,1.06396 -5.43399,1.81197 -8.01092,2.92369c-1.2098,0.52192 -1.56806,1.58747 -3.01375,1.91634c-3.71929,0.84607 -8.61691,-0.14147 -12.47665,-0.03585c-2.55995,0.32088 -3.76532,-0.89179 -6.12882,-1.33772c-0.44651,-0.08425 -0.90767,-0.16451 -1.37931,-0.24444c-0.8,-0.38111 -1.68561,-0.65854 -2.47752,-0.88754c-2.1061,-0.43968 -4.13932,-1.0468 -6.24635,-1.31074c-1.55915,-0.72635 -2.94083,-1.71666 -3.96787,-3.12654c-0.99894,-1.37131 -1.20792,-3.08824 -1.65363,-4.68818c-0.37686,-2.6791 -1.18337,-6.1584 -0.33915,-8.7946c1.81502,-5.66773 8.49118,-5.53484 12.53165,-3.01045c0,0 0.19201,0.12022 0.33603,0.33763z" data-paper-data="{&quot;index&quot;:null}" fill="#de8f31" stroke="none" stroke-width="0.5"/><path d="M227.11199,201.39273c-0.51464,-0.10951 -1.0282,-0.22946 -1.53608,-0.3639c0.51114,0.11881 1.02241,0.24263 1.53608,0.3639z" data-paper-data="{&quot;index&quot;:null}" fill="#de8f31" stroke="none" stroke-width="0.5"/><path d="M232.13718,202.68348c0.46062,0.2141 0.7254,0.49974 0.86922,0.79737c-0.23774,-0.3001 -0.53444,-0.56386 -0.86965,-0.79759c0.00014,0.00007 0.00029,0.00014 0.00043,0.0002z" data-paper-data="{&quot;index&quot;:null}" fill="#783b1a" stroke="none" stroke-width="0.5"/><path d="M254.86893,204.65107c-0.05827,0.1911 -0.10612,0.38931 -0.14671,0.5927l0.03483,0.21123c0,0 0.0091,0.31883 -0.16303,0.60151c-0.21471,1.69042 -0.23205,3.54208 -1.6285,4.56707c-0.74288,0.54527 -2.76761,1.13755 -3.4656,0.12907c-0.70512,-1.01876 0.8925,-2.13999 1.15273,-2.92269c0.47604,-1.43171 -0.38938,-3.52167 0.24628,-4.8818c0.52759,-1.12889 2.0183,-2.13926 3.33479,-1.26872c0.79525,0.52585 0.92105,1.22519 0.83548,1.93496c-0.03218,0.26697 -0.09426,0.53541 -0.16187,0.79665c-0.00894,0.14235 -0.03843,0.24003 -0.03843,0.24003z" data-paper-data="{&quot;index&quot;:null}" fill="#151515" stroke="none" stroke-width="0.5"/><path d="M250.27505,189.89786c0.06723,-0.11104 0.12958,-0.17704 0.12958,-0.17704l0.19684,-0.20245c2.64952,-2.33631 5.45184,-4.4912 8.58758,-6.13285c2.56346,-0.41972 6.14014,-0.45562 7.39648,2.41751c1.21972,2.7894 -0.64049,8.43949 -2.4372,10.70952c-1.48277,1.87339 -4.00822,3.13735 -6.05903,4.23704c-2.17744,1.00134 -6.05159,2.17428 -8.35113,0.87996c-2.43156,-1.36863 -3.21732,-7.89329 -1.6833,-10.10386c0.52306,-0.75373 1.36851,-1.24164 2.22019,-1.62782z" data-paper-data="{&quot;index&quot;:null}" fill="#fffeff" stroke="none" stroke-width="0.5"/><path d="M234.82088,193.45398c0.07291,0.04803 0.11515,0.08795 0.11515,0.08795l0.59585,0.73093c0.93012,3.39384 -2.55139,6.97304 -5.45867,3.70916c-2.92918,-3.28847 1.14565,-6.49482 4.43868,-4.7991c0,0 0.17267,0.09224 0.30899,0.27104z" data-paper-data="{&quot;index&quot;:null}" fill="#4d2813" stroke="none" stroke-width="0.5"/><path d="M250.23294,193.6655c3.19087,-1.88094 7.44208,1.08759 4.70539,4.53789c-2.71623,3.42451 -6.39638,0.04987 -5.6615,-3.39152l0.55316,-0.76375c0,0 0.0399,-0.04226 0.10994,-0.09437c0.1259,-0.18631 0.29301,-0.28824 0.29301,-0.28824z" data-paper-data="{&quot;index&quot;:null}" fill="#07064e" stroke="none" stroke-width="0.5"/><path d="M238.22786,191.78821c1.65772,2.11941 1.24566,8.67828 -1.10381,10.18348c-1.38841,0.88949 -3.44565,0.85226 -5.33808,0.48557c-0.94174,-0.56221 -2.10136,-0.9321 -3.10919,-1.22353c-0.42855,-0.08947 -0.8541,-0.18586 -1.27786,-0.2849c-1.78786,-0.84297 -3.68972,-1.84135 -4.95364,-3.26324c-1.92335,-2.16376 -4.10307,-7.69846 -3.04456,-10.55293c1.09029,-2.94017 4.66317,-3.10848 7.24641,-2.83578c3.22433,1.45998 6.1451,3.45138 8.92365,5.63266l0.20807,0.19088c0,0 0.06602,0.06236 0.13947,0.16937c0.87232,0.33694 1.74426,0.77577 2.30949,1.49843z" data-paper-data="{&quot;index&quot;:null}" fill="#fffeff" stroke="none" stroke-width="0.5"/><path d="M248.27965,184.17726c-0.01141,-0.01621 -0.02271,-0.03304 -0.03388,-0.05049c-0.50858,-0.79527 0.28667,-1.30386 0.28667,-1.30386l0.64595,-0.41284c2.57561,-1.56598 5.28748,-3.04319 7.9625,-4.44829c2.01687,1.3633 3.12108,4.42929 1.66722,6.82346c-0.91238,1.50248 -3.26207,2.25121 -4.64284,3.19127c-0.95622,0.65102 -1.79265,2.16943 -3.22447,1.88978c-1.27398,-0.24882 -1.83254,-1.60017 -2.15774,-3.00965c-0.22678,-0.98292 -0.3401,-1.99411 -0.50342,-2.67939z" data-paper-data="{&quot;index&quot;:null}" fill="#713617" stroke="none" stroke-width="0.5"/><path d="M235.69705,190.41926c-1.41353,0.36093 -2.33525,-1.10726 -3.32708,-1.70264c-1.43219,-0.85971 -3.82076,-1.47309 -4.81742,-2.92104c-1.58817,-2.30727 -0.66075,-5.43129 1.275,-6.9075c2.75086,1.25011 5.54264,2.5701 8.20343,3.98652l0.66846,0.3753c0,0 0.823,0.46237 0.36063,1.28537c-0.01015,0.01806 -0.02047,0.0355 -0.03093,0.05234c-0.30166,1.68793 -0.19731,5.28657 -2.33207,5.83166z" data-paper-data="{&quot;index&quot;:null}" fill="#713617" stroke="none" stroke-width="0.5"/><path d="M235.8775,194.74431c0.0729,0.04804 0.11515,0.08795 0.11515,0.08795l0.59585,0.73093c0.93011,3.39383 -2.55139,6.97304 -5.45866,3.70916c-2.92918,-3.28848 1.14565,-6.49481 4.43868,-4.79909c0,0 0.17267,0.09224 0.30899,0.27104z" data-paper-data="{&quot;index&quot;:null}" fill="#07064e" stroke="none" stroke-width="0.5"/><path d="M213.01939,183.58936c0.60566,0.08841 0.85051,0.7266 0.85051,0.7266l0.33353,0.90082c0.28145,1.23296 0.44462,2.35158 0.58231,3.60161c0.12906,1.17172 0.65266,2.14078 -0.25813,3.281c-1.39367,1.74477 -3.78974,1.39903 -5.04784,-0.30373c-2.25557,-3.05279 -1.03654,-7.52717 2.57621,-8.40174c0,0 0.55427,-0.12652 0.96342,0.19541z" fill="#de8f31" stroke="none" stroke-width="0.5"/><path d="M273.39745,182.84227c3.65679,0.66691 5.12923,5.06441 3.0516,8.24097c-1.15884,1.77181 -3.53129,2.25375 -5.02226,0.59139c-0.97439,-1.08639 -0.50696,-2.08375 -0.44499,-3.26093c0.06611,-1.25586 0.16516,-2.38198 0.37578,-3.62899l0.28155,-0.91838c0,0 0.20802,-0.65113 0.80765,-0.77396c0.39009,-0.34475 0.9507,-0.25008 0.9507,-0.25008z" data-paper-data="{&quot;index&quot;:null}" fill="#de8f31" stroke="none" stroke-width="0.5"/><path d="M260.2268,210.2406c-0.63018,-2.42819 2.0131,-3.02469 2.0131,-3.02469l0.76929,-0.16048c2.73774,-0.86183 4.51143,-2.2322 6.85176,-3.79944c0,0 2.20424,-1.4761 3.79339,0.5421c1.58915,2.01818 -0.61511,3.49427 -0.61511,3.49427c-2.77395,1.85762 -5.00395,3.38647 -8.24255,4.47425l-1.29645,0.30569c0,0 -1.18248,1.21988 -2.06796,0.88874c-0.61245,-0.22903 -0.94786,-1.72765 -1.20551,-2.72045z" fill="#8e0000" stroke="none" stroke-width="0.5"/><path d="M206.55903,179.7769c-1.91777,2.07775 -3.04924,4.42945 -2.73648,7.36523c0.13792,1.29464 1.05299,2.59213 0.69425,3.84369c-0.42876,1.49585 -5.04138,3.4449 -6.44453,3.05755c-0.69096,-0.19074 -1.11683,-0.91822 -1.55443,-1.48596c-2.57894,-3.34591 -3.49948,-7.78467 -3.66824,-11.90223c-0.39911,-10.5537 6.63403,-21.80676 17.27187,-23.69066c0.22375,-0.2312 0.57474,-0.40675 1.11447,-0.29509c0.28173,0.05829 0.48521,0.168 0.63152,0.30239c2.54978,-5.34221 6.34055,-9.3453 12.26576,-11.67548c3.59246,-1.41278 7.2047,-1.60972 10.79084,-3.16167c0.36287,-0.15703 2.99011,-1.08178 3.31006,-1.8339c0.85545,-2.01095 -1.90214,-6.70128 -2.47518,-8.45733c-0.99311,-3.04335 -1.14988,-4.9006 -0.59054,-6.9413l-0.4534,-0.10391l0.62462,-2.72548c0.22586,-1.09837 1.17562,-1.94437 2.34658,-1.99237c0.82763,-0.03392 1.57773,0.3385 2.05767,0.93979l1.35982,1.6663c1.31396,0.80615 1.79321,1.29356 3.47052,1.37479c1.18082,0.05718 2.46232,-0.67179 3.54157,-0.18925c4.47342,2.0001 2.79941,6.69528 4.90961,9.85488c0.43527,0.65174 1.1624,-1.1314 1.90739,-1.37476c1.49858,-0.48953 3.27681,-1.30687 4.6902,-0.60852c1.4326,0.70785 1.99396,2.59338 2.43527,4.12917c1.30959,4.5574 -0.88461,6.89187 -4.23849,8.68907c6.28657,2.78871 11.18834,6.83771 16.01899,11.9223l0.92155,0.84147c0,0 1.83867,1.69388 0.14479,3.53256l-0.00003,0.00001c-1.69388,1.83867 -3.53256,0.14479 -3.53256,0.14479l-1.15867,-1.07496c-4.90959,-5.16768 -9.78451,-9.1724 -16.57189,-11.66971c0,0 -2.34514,-0.86624 -1.47891,-3.21137c0.26565,-0.71919 0.67039,-1.13636 1.10392,-1.3691c-0.79683,-2.1345 1.34456,-3.09456 1.34456,-3.09456c2.37496,-0.97261 3.27459,-1.65143 2.81195,-4.34941c-0.03671,-0.21407 -0.10185,0.45164 -0.26465,0.59541c-0.74245,0.65562 -1.41682,1.61652 -2.39752,1.75545c-1.54077,0.21828 -3.29321,0.07283 -4.60562,-0.76333c-2.18866,-1.39443 -2.35575,-4.39315 -2.93364,-6.53841c-0.25326,-0.94017 0.01688,-2.63654 -0.94858,-2.76273c-0.66308,-0.08667 -1.26549,0.56964 -1.93333,0.53555c-2.02749,-0.10348 -3.07274,-0.48438 -4.20959,-1.1457c0.07024,0.75879 0.11291,1.58147 0.38386,2.38878c1.07541,3.20434 3.97638,8.33389 2.36097,11.86166c-2.37266,5.18148 -10.05692,5.9651 -14.7799,7.04154c-6.68523,1.52367 -10.68133,6.47689 -12.85699,12.65686c-1.3163,5.06038 0.15446,10.13455 -1.09404,15.20168l-2.74487,2.11464c-0.40606,0.46551 -0.98284,0.78058 -1.63788,0.84485c-0.68001,0.09362 -1.6217,-0.01191 -2.28689,-1.02749c-0.34833,0.24873 -0.66275,0.507 -0.91578,0.78425z" fill="#000000" stroke="none" stroke-width="0.5"/><path d="M214.75872,161.1908c0.57495,-0.73383 1.53938,-0.34816 1.53938,-0.34816c4.14539,1.70609 7.7425,4.65155 12.20259,5.87343c4.59753,1.25953 9.24708,0.52086 13.87896,0.69885c7.52295,0.56364 15.27819,-4.42298 21.2999,-8.25681c1.02768,-0.65428 4.78977,-3.47016 5.91427,-3.0653c0.8399,0.3024 2.25011,2.00194 2.6937,2.74253c0.91909,4.23558 4.92335,0.5271 2.84668,4.57861c-0.79101,1.54328 -3.79573,6.54498 -6.33634,10.06942c-1.28274,1.77948 -2.44718,3.18239 -3.14863,3.57344c-3.61303,2.01419 -6.55174,2.79868 -10.66937,3.61858c-5.65392,0.82438 -9.59687,1.24647 -15.13692,0.51597c-1.52044,-0.20047 -4.98689,-0.30447 -6.53098,-0.38785c-4.34501,-0.23461 -9.77094,-2.25144 -13.9515,-3.24623c-0.38904,-0.09688 -5.06259,-0.96207 -5.26655,-1.07965c-4.56844,-2.6339 -0.96223,-8.69652 -1.24009,-12.88215l0.7198,-1.70263c0,0 0.40338,-0.73768 1.18509,-0.70206z" fill="#0e0c93" stroke="#050434" stroke-width="1"/><path d="M283.22085,170.12607c0.03666,-0.27896 0.18691,-0.57896 0.57011,-0.83077c1.04463,-0.68648 1.7311,0.35815 1.7311,0.35815l0.69002,1.05673c0.49337,0.91581 0.85045,1.91939 1.04076,2.94209c0.22102,1.18776 0.54404,2.2709 0.04757,3.48554c-1.81371,4.4372 -6.79436,3.3648 -8.51572,-0.28092c-0.29336,-0.62131 -1.11964,-2.9502 -0.90331,-3.40323c0.75503,-1.58111 2.102,-0.88895 3.21967,-1.34164c0.59511,-0.24103 1.57493,-1.45011 1.89031,-1.79513c0,0 0.08467,-0.0919 0.2295,-0.19082z" fill="#1b1b1b" stroke="none" stroke-width="0.5"/><path d="M217.53066,208.54522c0.33132,0.09989 0.52928,0.31953 0.64742,0.5399c0.05903,0.0859 0.11157,0.18409 0.1482,0.29402c2.01367,2.12435 0.98458,4.56638 0.25437,7.2788c-0.3633,1.34951 -0.1232,2.90663 -0.3896,4.27635c-0.3343,1.71887 -0.45665,3.49563 -3.0585,3.09714c-1.42639,-0.21846 -3.00362,-3.84259 -3.84271,-4.88681c-1.37969,-1.717 -3.62331,-2.25545 -5.67419,-2.688c-1.0509,0.04989 -4.28413,0.56571 -5.07415,-0.0886c-1.18561,-0.98192 -0.88494,-5.05349 -1.08432,-6.51598c-0.13668,-1.00265 -0.7111,-2.06346 -0.36376,-3.01389c0.45274,-1.23883 4.36396,-1.7026 5.29116,-1.82612c5.17241,-0.68911 8.79489,1.06438 13.14606,3.5332z" fill="#522319" stroke="none" stroke-width="0.5"/><path d="M238.17972,145.39218c-0.00597,-0.04649 -0.00709,-0.07388 -0.00709,-0.07388l0.32143,-1.09796c2.35128,-2.37742 3.58449,-1.47645 6.23626,-0.28978c1.81762,0.81756 3.067,1.35025 5.09687,1.26036c0.75284,-0.03334 3.27548,-0.20408 3.69578,0.21495c2.63846,2.63041 -1.39456,5.47144 -3.47308,5.86895c-4.32827,0.82778 -9.40639,-0.72377 -11.99783,-4.25678c0,0 -0.65872,-0.90542 0.12765,-1.62585z" fill="#520f00" stroke="none" stroke-width="0.5"/><path d="M241.73125,140.04683c0.17209,-0.1214 0.35568,0.02474 0.35568,0.02474c0.78596,0.63856 1.37275,1.50962 2.25826,2.06388c0.9128,0.57134 1.96676,0.71374 2.9573,1.05332c1.59096,0.61093 3.59293,0.03616 5.14493,-0.40188c0.26487,-0.07475 1.26183,-0.43944 1.4788,-0.27876c0.16205,0.12001 0.35669,0.57938 0.40452,0.76844c-0.07647,0.97611 1.03091,0.43405 0.31828,1.17561c-0.4085,0.4251 -2.41075,2.21886 -2.93886,2.33513c-0.9126,0.20093 -1.59939,0.17964 -2.54353,0.08938c-1.27682,-0.18915 -2.15731,-0.35411 -3.30842,-0.87226c-0.31592,-0.1422 -1.05913,-0.39001 -1.38777,-0.50842c-0.92479,-0.33319 -1.96761,-1.1222 -2.80741,-1.60916c-0.07788,-0.04625 -1.03276,-0.53721 -1.06924,-0.57591c-0.81718,-0.86679 0.35709,-1.94403 0.56904,-2.86767l0.26639,-0.32158c0,0 0.13522,-0.13338 0.30204,-0.07486z" fill="#0b0981" stroke="#050434" stroke-width="0.5"/><path d="M234.81067,149.36277c-0.00698,-0.05436 0.15059,-1.09373 0.15059,-1.09373l0.19238,-0.87594c2.74925,-2.77982 2.88246,0.52914 5.98306,1.91666c2.12526,0.95594 3.5861,1.57879 5.95955,1.47368c0.88026,-0.03898 3.82987,-0.23862 4.32132,0.25134c0.61278,0.61092 3.75147,-2.88796 3.82776,-2.28193c0.30777,2.44499 -3.46613,5.66781 -5.41372,6.04028c-2.95129,0.56443 -5.54984,-0.2483 -8.29727,-1.65611c-1.96385,-1.00629 -6.72369,-2.90792 -7.98674,-4.62988c0,0 -0.98969,3.35401 -0.07022,2.51165z" fill="#005f2b" stroke="none" stroke-width="0.5"/><g fill="#fff200" stroke="none" stroke-width="0.5"><path d="M202.91961,210.66526c-0.05643,-0.19612 0.08369,-0.37267 0.08369,-0.37267c1.08766,-1.36745 1.63168,-3.09346 2.62997,-4.53624c0.18765,-0.27119 0.77688,-1.41085 1.0402,-1.44305c0.30773,-0.03762 0.5915,0.26839 0.76971,0.52208c0.11531,0.16413 0.01249,0.40097 0.0196,0.60143c0.02461,0.6947 0.1236,1.34424 0.26854,2.02324c0.3329,1.02158 0.47932,1.95096 0.95833,2.91749c0.14984,0.30235 0.49992,1.03689 0.26503,1.37827c-0.36166,0.52563 -0.87057,0.20664 -1.27626,0.14771c-1.34134,-0.19485 -2.71783,-0.30921 -4.04206,-0.64905l-0.41324,-0.10668c0,0 -0.3864,-0.09974 -0.3035,-0.48254z"/><path d="M206.27999,210.11793c0.20834,-0.07047 0.41867,0.05726 0.41867,0.05726c1.62941,0.99182 3.58714,1.41368 5.2885,2.31065c0.3198,0.1686 1.63991,0.6775 1.70664,0.9389c0.07799,0.30549 -0.22373,0.61144 -0.48064,0.80798c-0.16622,0.12716 -0.43823,0.04107 -0.6572,0.06246c-0.75889,0.07412 -1.45937,0.21952 -2.18668,0.41301c-1.08055,0.40613 -2.08226,0.61894 -3.08501,1.16748c-0.31367,0.17159 -1.07741,0.57448 -1.47981,0.36358c-0.61959,-0.32474 -0.33053,-0.85709 -0.31432,-1.26756c0.05357,-1.35712 0.01466,-2.74372 0.22928,-4.09403l0.06765,-0.42142c0,0 0.06326,-0.39405 0.49294,-0.33829z"/><path d="M206.2642,210.48186l0.01039,0.42665c0.03135,1.36677 -0.16877,2.73343 -0.28253,4.08408c-0.03441,0.40851 0.16114,0.9764 -0.4327,1.20973c-0.38568,0.15154 -1.02194,-0.3557 -1.28253,-0.57007c-0.83305,-0.68531 -1.70519,-1.03825 -2.62493,-1.5937c-0.62859,-0.29484 -1.23887,-0.53826 -1.90997,-0.71944c-0.19365,-0.05228 -0.44762,-0.00573 -0.58139,-0.15519c-0.20676,-0.231 -0.44062,-0.57666 -0.33434,-0.86789c0.09095,-0.2492 1.33438,-0.56524 1.64101,-0.68664c1.63127,-0.64588 3.43561,-0.78518 5.01373,-1.53517c0,0 0.20368,-0.09652 0.38194,0.00282c0.39162,0.00587 0.40133,0.40482 0.40133,0.40482z" data-paper-data="{&quot;index&quot;:null}"/><path d="M203.07003,214.37574l0.42569,-0.03057c1.36376,-0.09599 2.73836,0.03923 4.09287,0.08894c0.40968,0.01504 0.96769,-0.20717 1.22885,0.37496c0.16962,0.37808 -0.30693,1.03763 -0.50874,1.30807c-0.64513,0.86455 -0.95639,1.75242 -1.4677,2.69741c-0.26476,0.64183 -0.47902,1.26296 -0.62824,1.94189c-0.04305,0.19591 0.01545,0.44738 -0.1275,0.58808c-0.22096,0.21746 -0.55515,0.46742 -0.8511,0.37504c-0.25323,-0.07905 -0.62774,-1.30614 -0.76353,-1.60667c-0.72236,-1.59887 -0.94689,-3.3946 -1.77071,-4.93546c0,0 -0.10605,-0.19888 -0.01526,-0.38165c-0.01267,-0.39146 0.38537,-0.42004 0.38537,-0.42004z" data-paper-data="{&quot;index&quot;:null}"/><path d="M205.46766,215.51742l0.00929,-0.42672c0.03189,-1.36688 0.31969,-2.72385 0.51121,-4.06846c0.05792,-0.40668 -0.13062,-0.98237 0.5373,-1.1903c0.43379,-0.13505 1.11255,0.3987 1.39023,0.62393c0.88767,0.72002 1.83472,1.10962 2.82455,1.70357c0.68062,0.32122 1.3435,0.5903 2.07666,0.79978c0.21155,0.06045 0.49461,0.02471 0.63524,0.17971c0.21735,0.23956 0.45908,0.59482 0.32739,0.88129c-0.11269,0.24512 -1.50283,0.50816 -1.84775,0.61646c-1.835,0.57615 -3.83668,0.63882 -5.61798,1.32123c0,0 -0.22989,0.08781 -0.42214,-0.01901c-0.4327,-0.02247 -0.42402,-0.42148 -0.42402,-0.42148z" data-paper-data="{&quot;index&quot;:null}"/><path d="M205.47399,215.90406c-0.19323,0.06565 -0.37622,-0.06596 -0.37622,-0.06596c-1.41739,-1.02173 -3.16722,-1.48345 -4.65561,-2.41235c-0.27977,-0.1746 -1.44604,-0.70924 -1.49065,-0.97074c-0.05214,-0.3056 0.24011,-0.60353 0.48506,-0.79355c0.15849,-0.12294 0.39993,-0.03145 0.59983,-0.04803c0.69276,-0.05746 1.33688,-0.18708 2.00827,-0.36399c1.00469,-0.38087 1.92609,-0.57111 2.86887,-1.09532c0.29491,-0.16398 1.01207,-0.54844 1.36418,-0.32996c0.54216,0.33638 0.24761,0.85981 0.20793,1.26785c-0.13115,1.34906 -0.18025,2.72942 -0.45703,4.06824l-0.08699,0.41782c0,0 -0.08135,0.39069 -0.46763,0.32598z" data-paper-data="{&quot;index&quot;:null}"/></g></g></g></svg>