<svg version="1.1" xmlns="http://www.w3.org/2000/svg" xmlns:xlink="http://www.w3.org/1999/xlink" width="6.37978" height="10.93264" viewBox="0,0,6.37978,10.93264"><g transform="translate(-236.81011,-174.53368)"><g data-paper-data="{&quot;isPaintingLayer&quot;:true}" fill-rule="nonzero" stroke-width="0" stroke-linecap="round" stroke-linejoin="miter" stroke-miterlimit="10" stroke-dasharray="" stroke-dashoffset="0" style="mix-blend-mode: normal"><path d="M243.17995,180.19163c-0.23486,2.54615 -5.12377,5.71791 -5.91936,5.22324c-1.23836,-0.76998 1.85393,-3.29015 1.88017,-5.50169c0.02624,-2.21155 -3.141,-3.9114 -2.13223,-5.21766c0.59101,-0.7653 6.45499,2.42176 6.17141,5.49613z" fill="#e81604" stroke="#692206"/><path d="M237.3559,174.53369c0,0 3.30673,0.40667 5.61698,4.34319c0.4562,0.77732 0.0553,1.97581 -0.20141,2.53206c-0.72763,1.57667 -2.62374,2.66624 -2.62374,2.66624c0,0 1.92555,-1.5131 2.05346,-3.80395c0.21829,-3.90932 -4.84531,-5.73756 -4.84531,-5.73756z" fill="#be0601" stroke="#000000"/><path d="M239.5078,184.5664c-0.27565,0.17597 -0.78453,0.43849 -0.78453,0.43849c0,0 -0.39546,-0.11087 -0.6482,-0.27486c-0.31589,-0.20496 -0.83617,-0.6542 -0.83617,-0.6542l1.10163,-1.8447c0,0 1.02117,0.91759 1.37773,1.15237c0.33809,0.22262 0.92931,0.39296 0.92931,0.39296c0,0 -0.79124,0.56744 -1.13976,0.78994z" fill="#e87d03" stroke="#000000"/><path d="M237.74974,176.92312c0,0 0.45075,-0.33963 0.75329,-0.54371c0.34017,-0.22947 1.11773,-0.97443 1.11773,-0.97443l1.60378,1.22217c0,0 -0.75892,0.86099 -1.17133,1.15135c-0.37733,0.26565 -1.27749,0.6834 -1.27749,0.6834z" fill="#e87d03" stroke="#000000"/><path d="M239.64874,175.41235l1.55917,1.2507l-0.28018,0.23552l-1.48197,-1.33702z" fill="#c35502" stroke="#000000"/></g></g></svg>