<svg version="1.1" xmlns="http://www.w3.org/2000/svg" xmlns:xlink="http://www.w3.org/1999/xlink" width="72.97376" height="87.54266" viewBox="0,0,72.97376,87.54266"><g transform="translate(-203.51312,-136.22867)"><g data-paper-data="{&quot;isPaintingLayer&quot;:true}" fill-rule="nonzero" stroke-linejoin="miter" stroke-miterlimit="10" stroke-dasharray="" stroke-dashoffset="0" style="mix-blend-mode: normal"><path d="M268.74223,190.01332c2.4695,1.27547 0.11945,4.98592 -1.75007,8.60564c-1.86952,3.61968 -7.32586,4.56864 -7.32586,4.56864c0,0 -0.17418,-5.29602 0.70371,-6.99571c1.86952,-3.61968 5.90272,-7.45402 8.37221,-6.17853z" fill="none" stroke="#292929" stroke-width="2" stroke-linecap="butt"/><path d="M223.32498,207.35273l-8.44979,-7.37867l0.35704,-3.33229c0,0 3.46705,-2.32771 7.73572,1.0711c3.26631,2.60071 4.87945,9.52089 4.87945,9.52089z" fill="none" stroke="#292929" stroke-width="2" stroke-linecap="round"/><path d="M213.69853,196.69628l-9.28288,-1.28929l4.25465,-7.60681z" fill="#f4d4f7" stroke="#000000" stroke-width="0" stroke-linecap="round"/><path d="M210.47448,192.51006c-3.78997,-7.76248 -5.26309,-15.41865 -2.8812,-23.32814c2.52051,-8.36973 8.84743,-15.0791 17.06982,-19.09363c11.39206,-5.5621 27.42362,-2.43984 35.34485,2.56788c4.1415,2.61821 5.75039,8.78653 7.99434,13.3825c7.80049,15.97663 1.15937,35.2581 -14.83332,43.06643c-6.93863,3.38771 -15.86744,4.08211 -22.66806,0.93029c-3.13111,-1.45114 -17.16846,-11.67178 -20.0264,-17.52533z" fill="#ecb2f8" stroke="#434343" stroke-width="0" stroke-linecap="butt"/><path d="M247.95552,183.87297c9.73209,-18.28269 19.27089,-10.64948 19.27089,-10.64948c0,0 7.93024,7.96453 1.8597,19.91268c-8.08903,15.92108 -19.00612,13.43387 -19.00612,13.43387c0,0 -12.3562,-3.47578 -2.12449,-22.69705z" fill="#da94f3" stroke="none" stroke-width="0" stroke-linecap="butt"/><path d="M236.04913,147.9684c0,0 -4.18774,-2.77797 -18.20241,14.93434c-1.76933,2.67312 -3.93996,12.0528 -3.42015,18.69225c0.80068,10.22665 5.15316,18.19899 5.15316,18.19899c0,0 -11.49281,-3.69382 -12.73996,-16.89586c-0.47826,-5.06296 -0.35839,-12.10232 2.74996,-17.83931c1.5481,-2.85721 3.84045,-5.61624 6.01656,-7.70977c3.33922,-4.16812 7.28194,-7.13467 10.30324,-8.56404c5.39398,-2.55187 10.13961,-0.81655 10.13961,-0.81655z" fill="#f8deff" stroke="#000000" stroke-width="0" stroke-linecap="round"/><path d="M223.23836,166.29751c4.42303,1.65867 6.30619,7.54299 4.20612,13.14316c-2.10005,5.60012 -7.38806,8.79535 -11.81106,7.13672c-4.42303,-1.65867 -6.30619,-7.54299 -4.20612,-13.14315c2.10005,-5.60012 7.38806,-8.79535 11.81105,-7.13672z" fill="#e83dfb" stroke="#e83dfb" stroke-width="0" stroke-linecap="butt"/><path d="M244.89932,179.03299c5.76765,0 10.44322,5.13738 10.44322,11.47466c0,6.3373 -4.67561,11.47466 -10.44322,11.47466c-5.76765,0 -10.44322,-5.13739 -10.44322,-11.47466c0,-6.3373 4.67561,-11.47466 10.44322,-11.47466z" fill="#e83dfb" stroke="#e83dfb" stroke-width="0" stroke-linecap="butt"/><path d="M236.55554,145.53605c5.92012,-0.53503 10.96274,1.5024 11.26293,4.55069c0.30021,3.04831 -4.2557,5.95312 -10.17583,6.48817c-5.92012,0.53503 -10.96274,-1.5024 -11.26293,-4.55069c-0.30021,-3.04831 4.2557,-5.95315 10.17583,-6.48817z" fill="#e83dfb" stroke="#e83dfb" stroke-width="0" stroke-linecap="butt"/><path d="M268.74223,190.01332c2.4695,1.27547 0.11945,4.98592 -1.75007,8.60564c-1.86952,3.61968 -7.32586,4.56864 -7.32586,4.56864c0,0 -0.17418,-5.29602 0.70371,-6.99571c1.86952,-3.61968 5.90272,-7.45402 8.37221,-6.17853z" fill="#e83dfb" stroke="#e83dfb" stroke-width="0" stroke-linecap="butt"/><path d="M257.45901,158.81817c3.03613,-1.64563 9.43794,2.91421 11.7225,7.7413c2.28458,4.8271 1.60609,9.93783 -1.51542,11.41517c-3.12151,1.47734 -8.27761,-1.49598 -10.56216,-6.3231c-2.28458,-4.8271 -3.7979,-10.58246 0.35505,-12.83339z" fill="#e83dfb" stroke="#e83dfb" stroke-width="0" stroke-linecap="butt"/><path d="M223.28193,198.08413c2.17623,1.94605 2.76685,4.83599 1.31915,6.45489c-1.44769,1.61891 -4.38539,1.35368 -6.56164,-0.59237c-2.17623,-1.94605 -2.76685,-4.83599 -1.31915,-6.45489c1.44769,-1.61891 4.38539,-1.35367 6.56164,0.59237z" fill="#ff8108" stroke="none" stroke-width="0" stroke-linecap="butt"/><path d="M255.34254,165.62442l-14.3111,0.12892l-1.41823,-9.92753" fill="none" stroke="#e83dfb" stroke-width="1" stroke-linecap="round"/><path d="M222.5946,166.65588c0,0 1.47922,-4.13235 2.83641,-6.57535c1.35725,-2.44302 3.61003,-5.02822 3.61003,-5.02822" fill="#6318e8" stroke="#6318e8" stroke-width="0.75" stroke-linecap="round"/><path d="M217.95316,196.3095l-2.57856,-10.05647" fill="#6318e8" stroke="#6318e8" stroke-width="0.5" stroke-linecap="round"/><path d="M211.24889,162.0144l1.03143,8.8961" fill="#e83dfb" stroke="#e83dfb" stroke-width="0.5" stroke-linecap="round"/><path d="M235.48748,211.52308l-8.25143,-5.15716" fill="#6318e8" stroke="#6318e8" stroke-width="0.5" stroke-linecap="round"/><path d="M250.95892,209.71807l-7.99357,14.05326l-8.38038,-12.63503c0,0 2.98706,0.41105 5.15737,0.26081c3.08693,-0.21372 11.21658,-1.67902 11.21658,-1.67902z" fill="#bf81c0" stroke="#000000" stroke-width="0" stroke-linecap="round"/><path d="M252.24824,149.63726l13.66647,-5.80181l-1.03143,15.85823c0,0 -2.59187,-5.17563 -4.73317,-6.87996c-2.06777,-1.6458 -7.90182,-3.1765 -7.90182,-3.1765z" fill="#bf81c0" stroke="#000000" stroke-width="0" stroke-linecap="round"/><path d="M208.92814,164.97979l-5.41502,-15.72933l15.98717,3.22319c0,0 -0.06946,1.67802 -1.04644,2.80615c-0.86994,1.00458 -2.88903,2.71173 -4.84547,4.70975c-2.38675,2.43754 -4.68031,4.99017 -4.68031,4.99017z" fill="#bf81c0" stroke="#000000" stroke-width="0" stroke-linecap="round"/><path d="M243.09428,223.25562l0.64466,-12.37717l6.44643,-0.90249z" fill="#f4d4f7" stroke="#000000" stroke-width="0" stroke-linecap="round"/><path d="M259.21038,152.4737c0,0 -1.49108,-1.23142 -2.39332,-1.66449c-1.17412,-0.56356 -4.69778,-1.30088 -4.69778,-1.30088l13.92432,-5.02822z" fill="#f4d4f7" stroke="#000000" stroke-width="0" stroke-linecap="round"/><path d="M215.37462,158.01763l-11.21681,-7.99359l15.34253,2.44962l-0.64466,2.57856z" fill="#f4d4f7" stroke="#000000" stroke-width="0" stroke-linecap="round"/><path d="M223.32501,207.35273l-8.44979,-7.37867l0.35704,-3.33229c0,0 3.46705,-2.32771 7.73572,1.0711c3.26631,2.60071 4.87946,9.52089 4.87946,9.52089z" fill="#6318e8" stroke="#6318e8" stroke-width="0" stroke-linecap="round"/><path d="M218.25654,200.67412l0.72808,-4.64144c0,0 2.62798,0.71574 3.82234,1.72917c1.1944,1.01343 2.18421,3.36732 2.18421,3.36732l-4.00438,2.63922z" fill="#e83dfb" stroke="#e83dfb" stroke-width="0" stroke-linecap="round"/><path d="M227.26639,169.91323l-5.55153,2.63922l-2.18421,8.00874l1.36512,6.09756c0,0 -3.40197,1.50313 -5.36949,0.72808c-1.96753,-0.77505 -3.64035,-4.27741 -3.64035,-4.27741l4.36841,-3.54931l1.54717,-7.82678l-1.27412,-4.09536c0,0 3.74121,-2.72198 6.27959,-2.18421c2.53838,0.53783 4.45943,4.45943 4.45943,4.45943z" fill="#6318e8" stroke="#6318e8" stroke-width="0" stroke-linecap="round"/><path d="M252.11173,198.58091l-3.82237,-6.27961l-4.27744,-0.72808l-5.18749,8.6458c0,0 -4.9906,-4.59472 -4.82349,-9.46489c0.17963,-5.23381 3.91336,-7.91774 3.91336,-7.91774l5.91554,5.73355l3.09429,0.45505l5.00545,-7.37168c0,0 3.9654,4.83966 4.00438,8.46379c0.03896,3.62408 -3.82234,8.46381 -3.82234,8.46381z" fill="#6318e8" stroke="#6318e8" stroke-width="0" stroke-linecap="round"/><path d="M259.48341,200.12806c0,0 0.81386,-3.41333 2.00216,-5.36949c1.18838,-1.95618 3.91338,-4.36841 3.91338,-4.36841l0.09101,7.73572z" fill="#e83dfb" stroke="#e83dfb" stroke-width="0" stroke-linecap="round"/><path d="M258.75535,174.09961l5.46052,-4.82343l-8.28177,-9.46489c0,0 2.27645,-1.71033 3.82237,-1.36513c1.54592,0.34521 5.55153,3.45833 5.55153,3.45833l2.91225,11.19408l1.36512,3.64035c0,0 -3.05333,2.7043 -5.1875,2.18421c-2.13417,-0.52008 -5.64251,-4.82349 -5.64251,-4.82349z" fill="#6318e8" stroke="#6318e8" stroke-width="0" stroke-linecap="round"/><path d="M247.83432,151.98454l-9.73792,-3.09429l-4.09536,7.55371c0,0 -3.88035,-0.44094 -5.31934,-1.18363c-1.37984,-0.71216 -3.14446,-3.18477 -3.14446,-3.18477l16.29053,-5.82454l6.00656,1.72917z" fill="#6318e8" stroke="#6318e8" stroke-width="0" stroke-linecap="round"/><path d="M225.04427,209.20238l-14.69786,5.15716l3.35213,-15.98717c0,0 5.04949,1.5747 6.98582,3.4479c2.01437,1.94873 4.3599,7.38208 4.3599,7.38208z" fill="#bf81c0" stroke="#000000" stroke-width="0" stroke-linecap="round"/><path d="M210.60426,213.97274l9.7986,-12.1193l4.51252,7.09108z" fill="#f4d4f7" stroke="#000000" stroke-width="0" stroke-linecap="round"/><path d="M246.31752,185.35054c4.12994,0 7.47788,3.29021 7.47788,7.34894c0,4.05871 -3.34797,7.34894 -7.47788,7.34894c-4.12994,0 -7.47788,-3.29021 -7.47788,-7.34894c0,-4.05871 3.34797,-7.34894 7.47788,-7.34894z" fill="#f4d4f7" stroke="none" stroke-width="0" stroke-linecap="butt"/><path d="M250.05644,199.27486l-0.64466,-1.86375l1.16037,-5.62718l1.41823,-3.468c0,0 2.24012,2.02642 1.41823,5.82628c-0.52977,2.4493 -3.35213,5.13266 -3.35213,5.13266z" fill="#bf81c0" stroke="#000000" stroke-width="0" stroke-linecap="round"/><path d="M260.75755,205.46344c0,0 0.53404,-5.04375 3.27824,-8.56453c2.23725,-2.87035 6.64924,-4.71515 6.64924,-4.71515l5.80181,14.56893z" fill="#bf81c0" stroke="#000000" stroke-width="0" stroke-linecap="round"/><path d="M260.60671,169.66349c-2.63729,-5.2069 0.15086,-8.93831 0.15086,-8.93831l14.3111,1.41823l-6.70428,12.76395c0,0 -5.17669,0.68095 -7.75764,-5.24381z" fill="#bf81c0" stroke="#000000" stroke-width="0" stroke-linecap="round"/><path d="M265.39901,195.40701c1.30926,-1.25583 3.86787,-2.57856 3.86787,-2.57856l7.22,13.92432l-13.53752,-7.86463c0,0 1.14038,-2.22525 2.44964,-3.48109z" fill="#f4d4f7" stroke="#000000" stroke-width="0" stroke-linecap="round"/><path d="M260.49967,169.36334c-0.74385,-1.75345 -1.03143,-4.77037 -1.03143,-4.77037l15.34251,-1.67608l-11.7325,10.18537c0,0 -1.8347,-1.98547 -2.57856,-3.73893z" fill="#f4d4f7" stroke="#000000" stroke-width="0" stroke-linecap="round"/><path d="M241.80503,198.24343c0,0 -3.18048,-2.56668 -2.57856,-6.44643c0.64652,-4.16737 4.51252,-6.05963 4.51252,-6.05963l4.77038,10.31427l-0.3868,0.90249l-6.31749,1.28929z" fill="#bf81c0" stroke="#000000" stroke-width="0" stroke-linecap="round"/><path d="M223.11033,175.8098c-1.16915,6.95831 -7.47788,6.70428 -7.47788,6.70428l-7.73572,-9.02504l10.70107,-6.18857c0,0 5.69483,1.47265 4.5125,8.50931z" fill="#bf81c0" stroke="#000000" stroke-width="0" stroke-linecap="round"/><path d="M223.36817,174.26265l-14.95573,-1.03143l10.18537,-5.93074c0,0 2.61566,1.11445 3.48109,2.44962c0.8654,1.3352 1.28929,4.51252 1.28929,4.51252z" fill="#f4d4f7" stroke="#000000" stroke-width="0" stroke-linecap="round"/><path d="M228.91214,148.73477l7.60681,-12.5061l8.76716,11.86144c0,0 -4.48484,3.8702 -7.45947,4.00637c-6.7388,0.30846 -8.91447,-3.3617 -8.91447,-3.3617z" fill="#f4d4f7" stroke="#000000" stroke-width="0" stroke-linecap="round"/><path d="M231.74856,151.05547l4.77038,-14.18216l6.83322,12.37717c0,0 -3.14249,2.46286 -5.54395,2.83641c-2.40144,0.37355 -6.05963,-1.03143 -6.05963,-1.03143z" fill="#bf81c0" stroke="#000000" stroke-width="0" stroke-linecap="round"/></g></g></svg>