<svg version="1.1" xmlns="http://www.w3.org/2000/svg" xmlns:xlink="http://www.w3.org/1999/xlink" width="93.24983" height="114.91629" viewBox="0,0,93.24983,114.91629"><defs><radialGradient cx="239.97212" cy="224.57683" r="6.04595" gradientUnits="userSpaceOnUse" id="color-1"><stop offset="0" stop-color="#985db6"/><stop offset="1" stop-color="#58147b"/></radialGradient><radialGradient cx="239.48088" cy="212.52138" r="11.53377" gradientUnits="userSpaceOnUse" id="color-2"><stop offset="0" stop-color="#7e7c7e"/><stop offset="1" stop-color="#434343"/></radialGradient></defs><g transform="translate(-193.37508,-116.62308)"><g data-paper-data="{&quot;isPaintingLayer&quot;:true}" fill-rule="nonzero" stroke-linejoin="miter" stroke-miterlimit="10" stroke-dasharray="" stroke-dashoffset="0" style="mix-blend-mode: normal"><path d="M222.00028,205.40261l0.1283,-12.3733l32.33558,0.33528l-0.1283,12.37331z" fill="#020202" stroke="none" stroke-width="0" stroke-linecap="butt"/><path d="M205.70011,153.23859c1.16483,-5.27759 2.90553,-9.26226 3.92928,-9.15422c5.8518,0.61744 6.55453,4.59469 5.3897,9.87228c-1.16479,5.27758 -1.43414,9.8026 -9.60784,9.23958c-1.02702,-0.07074 -0.87593,-4.68005 0.28889,-9.95764z" fill="#120e0b" stroke="#2e2e2e" stroke-width="0" stroke-linecap="butt"/><path d="M205.43333,140.60526c4.90636,3.12968 2.73152,6.29088 2.73152,6.29088c0,0 -1.46153,3.03259 -6.82778,-0.64628c-5.07886,-3.48183 -2.73153,-6.29085 -2.73153,-6.29085c0,0 1.53442,-2.73026 6.82779,0.64628z" fill="#ffec00" stroke="none" stroke-width="0" stroke-linecap="butt"/><path d="M197.91046,140.4947l0.95106,-1.31054l10.65564,7.73273l-0.95106,1.31054z" fill="#5e6b6c" stroke="none" stroke-width="0" stroke-linecap="butt"/><path d="M207.2787,148.03864l1.53538,-2.11572l9.36257,7.0857l-1.18922,1.63869z" fill="#6b6768" stroke="none" stroke-width="0" stroke-linecap="butt"/><path d="M201.63727,143.13897l0.88848,-1.22436l2.38509,1.73086l-0.88851,1.22432z" fill="#4d4b4b" stroke="none" stroke-width="0" stroke-linecap="butt"/><path d="M197.91046,140.4947l0.95106,-1.31054l10.65564,7.73273l-0.95106,1.31054z" fill="#5e6b6c" stroke="none" stroke-width="0" stroke-linecap="butt"/><path d="M200.6371,151.0936c5.57887,1.65635 4.35944,5.29447 4.35944,5.29447c0,0 -0.5692,3.31791 -6.74148,1.2604c-5.84172,-1.94733 -4.35943,-5.29447 -4.35943,-5.29447c0,0 0.72255,-3.04737 6.74147,-1.26039z" fill="#ffec00" stroke="none" stroke-width="0" stroke-linecap="butt"/><path d="M193.37509,153.06052l0.55307,-1.5219l12.37406,4.49676l-0.55307,1.5219z" fill="#5e6b6c" stroke="none" stroke-width="0" stroke-linecap="butt"/><path d="M204.45955,157.73053l0.89284,-2.45691l10.95275,4.2311l-0.69155,1.903z" fill="#6b6768" stroke="none" stroke-width="0" stroke-linecap="butt"/><path d="M197.6863,154.57533l0.51667,-1.42179l2.76972,1.00652l-0.51667,1.42179z" fill="#4d4b4b" stroke="none" stroke-width="0" stroke-linecap="butt"/><path d="M193.37509,153.06052l0.55307,-1.5219l12.37406,4.49676l-0.55307,1.5219z" fill="#5e6b6c" stroke="none" stroke-width="0" stroke-linecap="butt"/><path d="M250.67965,200.75382c-0.07799,-0.1105 -0.1399,-0.25258 -0.1744,-0.43489c-0.18594,-0.98256 0.79663,-1.1685 0.79663,-1.1685l0.81198,-0.1458c2.97687,-0.9581 7.1313,-3.42639 9.98869,-3.42759c2.00252,1.52349 4.09865,3.10997 5.54014,5.21699c0.75347,1.10134 2.01826,2.83271 0.87901,4.31733c-0.44699,0.58252 -1.80097,-0.33474 -2.18329,0.29211c-0.48214,0.79052 -0.83537,1.91784 -1.724,2.17815c-0.48854,0.14311 -1.19767,-0.79215 -1.67165,-0.13858c-0.47659,0.65718 -0.53064,1.74092 -1.2688,2.0788c-1.01508,0.46463 -2.53269,-1.35898 -3.30338,-0.55135c-0.17618,0.18463 0.23567,0.56571 0.07273,0.76214c-0.05392,0.06501 -0.11062,0.12715 -0.16965,0.18687l0.03516,0.02873l-0.74819,0.91563c-0.1855,0.23102 -0.47135,0.37765 -0.79056,0.37433c-0.50191,-0.0052 -0.91361,-0.3793 -0.98021,-0.86202l-0.15944,-1.02193c-1.01679,-2.60501 -1.97892,-6.48326 -4.48372,-7.99497c0,0 -0.35725,-0.2194 -0.46704,-0.60541z" fill="#9f4d1e" stroke="none" stroke-width="0.5" stroke-linecap="butt"/><path d="M221.48529,206.71419c-0.63849,0.84918 -4.61867,1.71518 -5.64695,0.96976c-1.10495,-0.80099 -0.00161,-1.72552 -0.75358,-2.54013c-0.68931,-0.74675 -1.20806,-1.20931 -1.7677,-2.09541c-0.06399,-0.04865 -0.09999,-0.0854 -0.09999,-0.0854l-0.42736,-0.48668c-0.21816,-0.51335 -0.70543,-0.98461 -0.65448,-1.54007c0.12371,-1.34874 0.5543,-6.60489 2.00424,-7.16375c0.10868,-0.04189 2.88404,2.25742 2.97214,2.24382c2.01308,-0.31081 3.84601,1.31988 5.67729,1.84856c1.08819,0.31414 1.99304,0.09223 2.57251,0.63046c0.04561,-0.01556 0.09175,-0.03096 0.13841,-0.0462l0.00052,-0.0499l1.35619,0.01407c0.55226,0.00573 0.99531,0.45806 0.98959,1.01032c-0.00573,0.55226 -0.45806,0.99531 -1.01032,0.98958l-0.96219,-0.00997c-1.62696,0.54716 -1.27158,1.99204 -1.68492,2.99086c-0.47761,1.1541 -1.64856,1.9172 -2.70339,3.3201z" fill="#9f4d1e" stroke="none" stroke-width="0.5" stroke-linecap="butt"/><path d="M222.98459,209.47827l0.36557,-0.37629c-0.54069,-2.85723 -0.55,-6.51597 2.99187,-7.52921c2.29185,-0.65564 4.9293,1.17072 6.97118,1.88986c2.48665,0.87578 5.37534,0.52083 7.90768,0.04258c3.1957,-0.41818 6.88331,-3.18793 10.14907,-1.84194c5.98316,2.46596 6.67885,10.82142 0.54658,13.23495c-2.22163,1.30184 -5.77159,3.13973 -8.49082,2.39147c-2.8708,-0.78998 -2.50421,-4.87125 -3.87016,-6.76735c-0.93129,-1.29273 -2.27267,0.37457 -2.48458,1.1826c-0.19026,0.72554 -0.39269,1.45181 -0.67655,2.14609c-1.32323,2.56561 -4.1659,3.55272 -7.27534,3.08566c-0.94985,-0.14267 -2.53999,0.63045 -3.33855,-0.06261c-1.67598,-1.45454 -3.01776,-4.8462 -2.79595,-7.3958z" fill="#000000" stroke="none" stroke-width="0.5" stroke-linecap="butt"/><path d="M256.73266,212.51973c-0.62661,-0.34909 -0.42854,-1.10786 -0.42854,-1.10786l0.10888,-0.29886c0.20866,-2.0118 0.76341,-2.92319 2.9219,-2.3167c1.03094,-0.67811 1.90702,-0.33769 2.81471,-0.55279c0.67608,-0.16021 0.13515,-1.57638 0.71606,-1.95756c0.64763,-0.42496 1.61888,0.48128 2.31895,0.14976c0.90398,-0.42808 -0.00499,-2.62373 1.98052,-3.10181c1.37077,-0.33005 3.06019,1.08229 3.82117,1.99498c2.09489,2.51256 3.67433,6.97758 1.96225,9.95342c-1.54107,1.50943 -6.65209,4.81493 -8.95047,4.203c-1.94315,-0.51735 -1.78663,-2.72732 -3.22085,-3.46975c-0.62718,-0.32467 -1.44394,0.5361 -2.10064,0.27623c-1.30846,-0.51782 -1.7372,-2.25297 -1.94394,-3.77205z" fill="#000000" stroke="none" stroke-width="0.5" stroke-linecap="butt"/><path d="M212.59405,201.62506l0.19492,0.265c0.28109,0.41289 1.05761,-0.11814 1.49311,0.12649c1.33732,0.75119 0.74386,1.42427 1.09723,2.37627c0.14647,0.39461 0.6608,-0.64907 1.0817,-0.65149c0.62519,-0.00359 1.24282,0.30622 1.75253,0.66827c0.35473,0.25197 0.29478,1.33985 0.67031,1.12008c0.11665,-0.06827 0.23175,-0.13918 0.34582,-0.21182l-0.14338,-0.1255l0.81928,-0.93601c0.18568,-0.21471 0.46105,-0.34938 0.76712,-0.3462c0.55226,0.00573 0.99531,0.45806 0.98958,1.01032c-0.00153,0.14774 -0.03502,0.28768 -0.09385,0.41329l-0.40778,0.92488c-1.03438,2.3435 -2.6211,4.36947 -3.58734,6.72315c-0.43231,1.05306 -1.00822,3.07192 -2.1355,3.61399c-1.35863,0.65331 -2.69678,-0.45975 -3.94978,-0.74988c-1.67995,-0.01096 -3.37805,0.90038 -4.95639,0.11748c-2.12154,-1.05233 -2.71143,-4.20905 -2.22206,-6.2833c0.84592,-3.58562 4.42445,-6.00977 6.49381,-8.84428c0,0 0.58964,-0.80766 1.39731,-0.21802c0.44794,0.32703 0.46608,0.72113 0.39337,1.0073z" fill="#000000" stroke="none" stroke-width="0.5" stroke-linecap="butt"/><path d="M232.88188,140.33607c0.25043,-1.41163 0.09431,-5.32107 1.67583,-6.08716c1.74223,-0.84393 2.20676,1.04659 3.29816,0.89838c0.53787,-0.07305 0.31238,-5.06499 0.34949,-5.20331c0.16365,-0.60993 0.41199,-1.30892 0.95046,-1.63885c0.31424,-0.19253 0.64942,0.45753 1.01714,0.43326c0.18373,-0.01212 -0.28069,-0.29894 -0.26862,-0.48266c0.02963,-0.45066 0.27931,-0.85991 0.38571,-1.29883c0.25834,-1.06569 0.51411,-1.79116 0.9301,-2.51637l-0.11202,-0.04617l0.37296,-0.90509c0.14575,-0.3783 0.51461,-0.64494 0.94382,-0.64048c0.37062,0.00384 0.69206,0.20882 0.86168,0.51018l0.53938,0.92047l-0.01775,0.01041l0.05002,0.04917c0.84468,2.03654 2.32359,3.8319 2.81218,6.02432c0.11705,0.52531 -0.25241,1.3958 0.24735,1.59549c0.20955,0.08372 0.67777,-0.00837 1.1269,-0.07592c0.44054,-0.06626 1.02186,-1.67879 1.16354,-1.50874c0.09066,0.10881 0.76284,5.15798 0.87698,5.62302c0.63524,2.58821 -0.54176,3.72315 -0.53773,6.35689c0.05259,0.0415 0.08182,0.07134 0.08182,0.07134l0.36833,0.37606c2.69863,2.76367 6.87629,3.51293 9.90587,5.98471c2.5831,2.11432 4.83979,4.02632 6.81648,6.78096c0.81074,1.1298 1.45923,3.37232 2.3442,4.27143c0.61534,0.62518 4.11892,0.24757 4.99874,0.43476c2.7228,0.57931 4.57281,2.36146 6.4452,4.27567c2.32461,2.76778 5.35659,7.02439 4.00391,10.91982c-0.32518,0.93643 -0.89567,1.37814 -1.55917,2.03143c-4.0855,4.02259 -8.17827,0.25536 -9.42677,-4.20374c-0.36404,-0.93569 -0.57548,-1.90527 -1.14917,-2.74237c-1.01902,-1.48691 -4.4309,-3.30322 -5.76218,-1.03548c-1.79189,3.05233 2.17705,6.03009 4.48489,6.97209c1.46749,0.64962 3.39998,1.43654 4.33122,2.83785c2.03853,3.06755 -0.18249,8.79928 -2.4397,11.24252c-2.47717,2.68132 -20.61446,14.47591 -23.63207,11.50101c-0.16453,-0.46856 -1.64299,-1.48806 -1.31002,-2.19183c2.34829,-4.96337 17.0191,-14.52578 17.60629,-17.75943c0.26379,-1.45267 0.20968,-3.98309 -1.32322,-4.36142c-1.56903,-0.38727 -4.05783,0.1708 -5.72758,0.15349c-5.6125,-0.05819 -9.96408,0.88348 -14.26143,4.61438c-1.312,1.13906 -2.0801,3.08465 -3.21398,4.397c-0.4364,0.50506 -0.76335,1.4245 -1.43043,1.40129c-1.01253,-0.03525 -1.53771,-1.7542 -1.83309,-2.50883c-0.63287,-1.76295 -3.39362,-0.96752 -4.81038,-2.09013c-3.17038,-2.51216 -6.1138,-5.87948 -9.53825,-6.96667c-2.32807,-0.73911 -3.87603,-1.55597 -6.1742,-0.66547c-0.88127,0.42825 -3.14029,1.28866 -3.66414,2.16144c-1.22087,2.03412 0.06869,7.20011 0.22209,9.46408c0.08696,1.28347 2.34559,5.61993 1.10264,6.57458c-1.1181,0.85874 -6.75606,-0.4193 -7.97196,-0.91724c-4.00429,-2.4552 -8.19973,-9.91972 -5.9232,-14.68678c0.99427,-2.08201 3.45628,-3.17895 5.64512,-3.49186c1.28382,-0.18354 2.35748,-0.59147 2.10654,-0.82953c0.75513,-4.32167 0.43765,-7.42574 0.83559,-11.85363c0.18356,-2.04241 0.87574,-4.26489 1.40582,-6.25087c0.54931,-2.05797 1.36027,-3.45007 2.42785,-5.18827c2.3889,-2.3668 5.59317,-4.40348 8.71113,-5.79004c3.23476,-1.43851 7.65691,-1.81836 10.43555,-4.04112c0,0 0.01816,-0.01422 0.05113,-0.03559c0.05165,-0.2912 0.10328,-0.5824 0.15492,-0.8736z" fill="#a25121" stroke="none" stroke-width="0.5" stroke-linecap="butt"/><path d="M225.20866,177.63005c3.57023,1.11032 6.83018,3.26981 9.91941,5.31183c1.01507,0.67097 2.1668,1.61363 2.78761,2.65578c0.27116,0.4552 0.09327,0.62931 0.57999,0.83867c0.25242,0.10859 1.91931,-1.95989 2.11469,-2.18997c6.13294,-6.01597 13.92415,-11.25081 22.87974,-8.16113c3.71868,1.7003 3.0642,4.87159 2.44282,8.18991c-1.08139,5.77492 -2.72796,10.73046 -8.63338,12.87693c-2.65758,0.96127 -5.50039,1.59913 -8.11863,2.60974c-1.2292,0.47446 -1.62864,1.52525 -3.08604,1.7976c-3.74941,0.70069 -8.60488,-0.47669 -12.46581,-0.52135c-2.57049,0.22102 -3.72778,-1.03765 -6.07212,-1.57522c-4.64683,-1.06556 -10.922,-1.75509 -13.84365,-6.11262c-0.94482,-1.40915 -1.08683,-3.1329 -1.46993,-4.74899c-0.27232,-2.69174 -0.94282,-6.19978 0.00335,-8.80114c2.03421,-5.5928 8.70015,-5.20021 12.63931,-2.52049c0,0 0.18719,0.1276 0.32264,0.35045z" fill="#de8f31" stroke="none" stroke-width="0.5" stroke-linecap="butt"/><path d="M253.79553,214.42984c-2.30639,2.79559 -7.3083,4.08447 -10.82277,2.81112c-1.90716,-0.691 -2.64986,-2.67672 -3.01646,-4.48748c-0.09848,-0.48636 -0.28286,-1.31735 -0.30618,-1.95849c-0.50149,0.53219 -1.23283,1.07801 -1.71908,0.90688c-0.20498,1.05498 -0.51614,2.36711 -0.99589,3.18005c-2.35592,3.99217 -10.39262,4.10505 -12.8687,0.46829c-0.95298,-1.39971 -1.05696,-3.41214 -1.04362,-5.02816c0,0 0.01036,-0.99995 1.01032,-0.98959c0.99994,0.01037 0.98958,1.01032 0.98958,1.01032c-0.01551,1.21427 -0.00511,2.86695 0.72473,3.92381c1.62336,2.35074 8.04975,2.37934 9.47457,-0.41675c0.40125,-0.78742 0.66779,-2.01543 0.82249,-2.89621l0.01287,-1.24091v0v0c0.00573,-0.55226 0.45806,-0.99531 1.01032,-0.98958c0.27613,0.00286 0.52496,0.11738 0.70402,0.30021l0.47738,0.48738c0.07639,-0.01758 0.14874,-0.05101 0.21506,-0.10392c0.69851,-0.55731 1.19376,-1.94769 2.56536,-1.29493c1.17771,0.56047 0.81806,4.98726 1.49732,6.18957c1.68818,2.9882 8.0615,0.91606 9.71999,-1.13715c0.25134,-0.30759 0.5027,-0.61517 0.75404,-0.92276l0.32608,-0.48497c0,0 0.36873,-0.54089 0.94715,-0.44906c-0.06489,-0.7111 -0.14408,-1.39759 -0.29227,-1.99135c-0.57457,-2.30212 -1.80901,-3.88517 -3.18512,-5.76015c0,0 -1.03543,-1.4108 0.37538,-2.44624c1.41081,-1.03543 2.44625,0.37538 2.44625,0.37538c1.64451,2.24071 3.05693,4.22065 3.75537,6.9678c0.45974,1.80831 0.35428,3.84469 0.81457,5.59918c0.35764,1.36321 2.90996,1.42632 3.78843,1.89682c1.0568,0.56602 1.49862,1.92305 2.49385,2.59145c0.56828,0.38166 1.32976,-0.40218 1.89839,-0.78331c1.92808,-1.29232 3.90547,-2.68723 5.7935,-4.06796c1.93332,-1.68452 0.3291,-2.95213 -0.58345,-5.03889c-1.79397,-4.10232 -4.81549,-7.2585 -8.13488,-10.22629l-1.42175,-1.08952c-0.43099,-0.32292 -0.70763,-0.83978 -0.70162,-1.41957c0.01002,-0.96644 0.8016,-1.74178 1.76805,-1.73176c0.13,0.00134 0.25654,0.01684 0.37819,0.045l1.82177,0.38404l-0.04158,0.19732c0.40085,-0.04629 0.80001,-0.10362 1.19609,-0.1812c2.83377,-0.55514 5.9316,-4.35932 7.28163,-6.69942c2.081,-3.60716 2.22766,-7.56438 -1.36326,-8.81083c-2.05613,0.07177 -4.23034,0.13559 -5.55874,-1.85527c-1.36406,-2.04428 -1.36164,-8.50356 1.0026,-9.74283c0.9096,-0.47678 2.07795,-0.13023 3.07939,0.09737c2.77993,0.6318 3.58396,2.69674 4.33129,5.11691c0.29922,0.96896 0.34776,2.16764 0.92014,2.98017c0.32765,0.1052 0.71924,0.31692 0.95357,0.74289c1.99694,0.88825 5.95876,1.68215 6.03539,-1.25954c-0.37034,-4.63279 -2.65783,-10.53762 -6.81736,-13.07074c-2.13932,-1.30281 -4.88364,-0.76249 -7.06775,-1.84602c-2.42086,-1.20096 -2.46568,-2.94578 -3.83333,-4.9158c-1.8465,-2.65978 -4.15803,-4.59241 -6.39006,-6.86303c-2.26265,-2.08252 -6.86546,-2.06746 -8.68679,-4.36905c-1.57429,-1.98941 -1.01092,-6.2301 -1.21703,-8.56458c-0.10025,-1.13543 -0.90017,-4.23929 -0.9734,-5.37678c-0.01408,-0.21868 0.70127,1.28628 0.49234,1.3524c-0.72787,0.23031 -1.22656,1.53557 -1.92853,1.23542c-1.04269,-0.44584 -1.28606,-1.8709 -1.85366,-2.85263c-0.94318,-1.63136 -1.80439,-3.42033 -2.64188,-5.18385c-0.04928,1.61285 -0.20597,3.19483 -0.77938,4.23833c-0.29436,0.5357 -1.16305,0.50969 -1.54605,0.98606c-0.54914,0.683 -0.10112,3.79186 -0.10937,4.58731c0,0 -0.00432,0.41658 -0.21201,0.84113c0.11532,0.45147 0.06731,1.02434 -0.51193,1.5917c-1.2502,1.22455 -2.47473,-0.02566 -2.47473,-0.02566l-0.54042,-0.71845c-0.12899,-0.3152 -0.30559,-0.60543 -0.49804,-0.88762c-0.04907,1.96426 -0.69196,4.34134 -0.86641,5.92036c0,0 -0.12727,1.15184 -1.11198,1.47733c-0.39059,0.43175 -0.93469,0.57408 -0.93469,0.57408c-4.41753,1.15347 -8.08769,2.26086 -12.26171,4.06439c-1.87962,0.81214 -4.38099,1.90696 -5.7141,3.53588c-2.41976,2.9567 -3.97299,7.64489 -4.76218,11.30701c-0.02191,3.2127 0.40374,6.47879 0.09413,9.69276c-0.10397,1.07935 -0.56806,2.39546 -1.2858,3.20829c-1.50166,1.70061 -4.28643,0.19928 -6.08721,2.14626c-1.20661,1.30458 -1.02954,4.27651 -0.61862,5.8388c1.10123,4.18695 2.54059,6.75257 5.98319,9.42458c2.20794,0.99332 3.31384,1.34679 5.67694,0.63628l1.43408,-0.05893c0,0 1.74991,0.01814 1.73176,1.76805c-0.00607,0.58442 -0.20527,0.97164 -0.46795,1.22819c0.24917,0.06306 0.5134,0.19857 0.7836,0.43998c1.30499,1.16598 0.13902,2.47096 0.13902,2.47096c-3.29764,3.6771 -9.76181,7.1739 -10.89482,12.28901c-0.96021,4.33499 3.13297,2.47869 5.58058,2.8253c0.97532,0.1381 1.95827,1.34751 2.82262,0.87505c0.44136,-0.24125 0.57664,-0.82432 0.86496,-1.23647c3.50504,-3.40633 5.58962,-8.16238 8.55953,-12.04444l0.59183,-1.21541c0,0 0.79881,-1.55705 2.35586,-0.75823c1.55705,0.7988 0.75823,2.35585 0.75823,2.35585l-0.92784,1.74672c-3.07268,4.00229 -5.21682,8.79279 -8.81615,12.34291c-2.79962,2.71498 -3.26136,2.0453 -6.75316,1.39148c-1.1189,-0.2095 -2.23865,0.64549 -3.37208,0.53991c-4.02446,-0.37487 -5.82439,-3.94456 -5.09042,-7.53832c1.2322,-6.03319 7.89417,-9.61558 11.71088,-13.90528c0,0 0.0452,-0.0506 0.12779,-0.12297l-0.16741,-0.03068c-3.34364,0.9349 -5.36246,0.42809 -8.45103,-0.99916c-5.20446,-3.95015 -11.69591,-14.21534 -6.17518,-20.59083c0.84575,-0.9767 2.81865,-2.03475 4.0593,-2.36054c0.69253,-0.18186 1.4227,-0.25717 2.13738,-0.21362c0.27624,0.01683 0.5924,0.62654 0.73368,0.38858c0.1673,-0.28182 -0.39656,-0.5532 -0.44338,-0.87758c-0.09749,-0.67539 0.01414,-1.36471 0.02122,-2.04707c0.02774,-2.67464 -0.12977,-5.32031 -0.09474,-7.99037c0.88749,-4.28445 2.66316,-9.71776 5.5418,-13.15366c4.47893,-5.34599 12.92112,-6.98885 19.32334,-8.63761c0.18483,-2.19205 0.19257,-4.5026 0.54681,-6.62101c0.18845,-1.12693 -0.19244,-2.82841 0.83709,-3.32393c1.35622,-0.65277 2.58255,-0.2672 3.6148,0.54812c0.07698,-0.99021 0.27875,-1.94009 0.75458,-2.71827c0.29187,-0.47732 1.11757,-0.39461 1.45081,-0.84404c0.60851,-0.82066 -0.10136,-2.0446 -0.04385,-3.06464c0.02853,-0.50608 0.35368,-3.39336 0.42058,-3.99894l0.20327,-1.8398c0.08766,-0.8931 0.84543,-1.58644 1.7597,-1.57697c0.57979,0.00602 1.09079,0.29331 1.40472,0.7309l1.0891,1.48394l-0.33723,0.24751c1.29913,1.48352 2.18214,3.09855 3.23258,5.25197c0.66941,1.37228 1.52484,2.69772 1.85356,4.18877c0.06978,0.31654 -0.70112,1.01309 -0.40346,0.88476c0.60295,-0.25997 0.82633,-1.54582 1.44826,-1.33522c1.20118,0.40679 1.99873,1.63975 2.65516,2.72484c1.31517,2.17397 0.65537,5.87204 0.97893,8.29023c0.1284,0.95964 -0.20767,2.09134 0.34893,2.88356c0.55163,0.78515 1.8731,0.44261 2.76984,0.78408c2.16246,0.82346 3.83992,1.69039 5.57943,3.21269c3.35195,3.43544 5.77099,6.59038 8.43943,10.5114c0.54791,0.80512 1.48945,0.72423 2.31539,0.88741c2.03677,0.40238 4.10446,0.67078 5.92201,1.75723c5.31173,3.17512 8.03884,10.24736 8.51379,16.12257c-0.12721,0.86626 0.01756,1.81951 -0.38163,2.59877c-1.27051,2.48014 -4.47124,3.25318 -7.47552,2.81818c1.27452,5.27183 -4.04023,12.32879 -7.70814,15.21975c-0.66853,0.52691 -1.90938,1.40461 -3.12217,1.95c2.80431,2.74926 5.24461,5.74869 6.84868,9.41207c1.66591,3.80464 2.87385,5.75677 -0.35791,9.10836c-2.66946,1.96481 -7.80727,6.76896 -11.3981,5.37336c-1.17233,-0.45563 -1.52899,-2.12899 -2.66285,-2.67331c-2.31534,-1.11146 -4.301,-0.92898 -5.45855,-3.78259c-0.20053,-0.49437 -0.32391,-1.07921 -0.41119,-1.70341c-0.23396,0.28631 -0.46791,0.57262 -0.70187,0.85893zM270.17121,175.27254l0.91843,0.0182c0.47623,0.05654 0.8728,0.0924 1.22634,0.12968c-0.45607,-2.10023 -0.74644,-4.50451 -3.00108,-4.74276c-0.58605,-0.06193 0.29262,1.14345 0.38571,1.72536c0.15353,0.95976 -0.17845,1.984 0.0592,2.9198c0.23811,-0.05209 0.41144,-0.05029 0.41144,-0.05029z" fill="#783b1a" stroke="none" stroke-width="0.5" stroke-linecap="butt"/><path d="M230.96687,202.88676c-0.25212,-0.04494 0.15447,-0.19146 -0.01378,-0.59558c-0.38437,-0.92317 -0.14069,-1.17896 -0.14069,-1.17896l1.14701,-0.45543c2.92763,-0.01613 5.75254,0.2782 8.66067,0.47782c1.40607,0.09651 3.48863,-0.18291 4.81064,0.21748c1.66339,0.50377 1.49729,1.00847 2.05839,2.43706c-0.0098,1.50591 -0.1602,3.48248 -1.52768,4.49795c-1.23854,0.91971 -3.44938,0.33463 -4.87038,0.40999c-4.61611,0.24477 -10.66244,0.41205 -10.12417,-5.8103z" fill="#020202" stroke="none" stroke-width="0.5" stroke-linecap="butt"/><path d="M245.74703,215.90154c-0.49998,-0.00519 -0.49479,-0.50516 -0.49479,-0.50516c0.00691,-0.66663 0.01555,-1.49992 0.02247,-2.16655c0,0 0.00518,-0.49997 0.50516,-0.49478c0.49998,0.00519 0.49479,0.50516 0.49479,0.50516c-0.00691,0.66663 -0.01382,1.33326 -0.02074,1.99989l-0.00172,0.16666c0,0 -0.00519,0.49997 -0.50516,0.49478z" fill="#000000" stroke="none" stroke-width="0.5" stroke-linecap="butt"/><path d="M248.08369,215.59242c-0.49998,-0.00519 -0.49479,-0.50516 -0.49479,-0.50516c0.00346,-0.33331 0.00865,-0.83328 0.01209,-1.1666c0,0 0.00519,-0.49997 0.50516,-0.49479c0.49998,0.00519 0.49478,0.50516 0.49478,0.50516c-0.00346,0.33331 -0.00691,0.66663 -0.01036,0.99995l-0.00173,0.16666c0,0 -0.00518,0.49997 -0.50516,0.49479z" fill="#000000" stroke="none" stroke-width="0.5" stroke-linecap="butt"/><path d="M250.09394,214.61322c-0.49998,-0.00519 -0.49479,-0.50516 -0.49479,-0.50516c0.00173,-0.16666 0.00518,-0.49997 0.00691,-0.66663c0,0 0.00518,-0.49998 0.50516,-0.49479c0.49998,0.00519 0.49479,0.50516 0.49479,0.50516c-0.00173,0.16666 -0.00346,0.33331 -0.00519,0.49997l-0.00173,0.16666c0,0 -0.00518,0.49998 -0.50516,0.49479z" fill="#000000" stroke="none" stroke-width="0.5" stroke-linecap="butt"/><path d="M231.91271,215.92477c-0.49998,-0.00519 -0.49479,-0.50516 -0.49479,-0.50516l0.00519,-0.49997c0.00732,-0.28444 -0.04119,-0.57375 -0.13227,-0.84331c0,0 -0.15318,-0.47595 0.32277,-0.62915c0.47595,-0.15318 0.62914,0.32277 0.62914,0.32277c0.11592,0.37376 0.18002,0.76872 0.18031,1.16004l-0.00519,0.49997c0,0 -0.00518,0.49997 -0.50516,0.49479z" fill="#000000" stroke="none" stroke-width="0.5" stroke-linecap="butt"/><path d="M230.07428,216.40574c-0.49998,-0.00519 -0.49479,-0.50516 -0.49479,-0.50516c0.00173,-0.16666 0.00865,-0.83329 0.01037,-0.99995c0,0 0.00518,-0.49997 0.50516,-0.49478c0.49998,0.00519 0.49479,0.50516 0.49479,0.50516c-0.00173,0.16666 -0.00345,0.33331 -0.00518,0.49997l-0.00519,0.49998c0,0 -0.00518,0.49997 -0.50516,0.49479z" fill="#000000" stroke="none" stroke-width="0.5" stroke-linecap="butt"/><path d="M227.41987,215.21148c0.00286,-0.27613 0.22903,-0.49765 0.50516,-0.49479c0.27613,0.00286 0.49765,0.22903 0.49479,0.50516c-0.00286,0.27613 -0.22903,0.49765 -0.50516,0.49479c-0.27613,-0.00286 -0.49765,-0.22903 -0.49479,-0.50516z" fill="#000000" stroke="none" stroke-width="0.5" stroke-linecap="butt"/><path d="M256.96797,209.89745c-0.16172,-0.06331 -0.2637,-0.13284 -0.2637,-0.13284l-1.13784,-1.27981c-0.18917,-2.41246 0.3683,-2.98594 2.22859,-4.44412c2.08549,-1.01585 4.10687,-2.28048 6.15909,-3.40833c1.0507,-0.57743 2.43899,-1.59095 3.79343,-1.09297c3.24749,1.19399 1.65493,3.52339 0.04836,4.97071c-2.87981,2.59432 -5.90204,4.41786 -9.60201,5.61811c0,0 -0.72559,0.23354 -1.22591,-0.23074z" fill="#313131" stroke="none" stroke-width="0.5" stroke-linecap="butt"/><path d="M221.54749,209.03401c-3.0389,-1.05592 -5.50669,-2.61563 -7.84349,-4.81024c-1.30364,-1.22433 -2.58058,-3.1778 0.12524,-4.10941c1.12852,-0.38854 2.25911,0.47333 3.11802,0.96883c1.67764,0.9678 3.32742,2.04818 5.03448,2.92394c1.51325,1.23766 1.96438,1.72143 1.76658,3.71303l-0.96282,1.03875c0,0 -0.08553,0.05574 -0.22034,0.10532c-0.42168,0.37533 -1.01766,0.16978 -1.01766,0.16978z" data-paper-data="{&quot;index&quot;:null}" fill="#313131" stroke="none" stroke-width="0.5" stroke-linecap="butt"/><path d="M212.62692,178.02765c0.5961,-0.69068 1.48066,-0.23688 1.48066,-0.23688c3.79861,1.9988 6.99023,5.19441 11.12101,6.73283c4.25806,1.58583 8.70791,1.18242 13.07565,1.69203c7.07433,1.10149 14.76444,-3.316 20.73285,-6.70804c1.01857,-0.57889 4.77738,-3.11764 5.81194,-2.63323c0.77272,0.36182 0.73329,1.54089 1.09995,2.31133c0.56693,4.29033 1.36589,11.12083 -0.88717,15.01279c-1.29154,2.23102 -3.37887,2.28934 -5.4393,3.30195c-3.56063,1.74986 -6.39579,2.32161 -10.34841,2.84414c-5.40583,0.41687 -9.16484,0.55517 -14.352,-0.57058c-1.42359,-0.30895 -4.69444,-0.6612 -6.14877,-0.85505c-4.09239,-0.5455 -9.07983,-2.94602 -12.96246,-4.23791c-0.36102,-0.12451 -2.55295,-0.86637 -2.73744,-0.99827c-4.13247,-2.95451 -2.45553,-9.19877 -2.41961,-13.39331l0.80224,-1.64655c0,0 0.43412,-0.70681 1.17086,-0.61525z" fill="#630e6b" stroke="none" stroke-width="0.5" stroke-linecap="butt"/><path d="M233.33351,189.28964c1.43002,1.98271 0.82405,7.92259 -1.36212,9.206c-2.06748,1.21374 -5.60609,0.21226 -7.60058,-0.66135c-1.88109,-0.96505 -4.19606,-2.07148 -5.57393,-3.74874c-1.6696,-2.03235 -3.45276,-7.13409 -2.39087,-9.68809c1.09376,-2.63067 4.34334,-2.65714 6.67889,-2.31824c2.87557,1.43945 5.45678,3.35058 7.90215,5.42908l0.18215,0.18064c0,0 0.05773,0.05894 0.12064,0.15869c0.78003,0.33673 1.55607,0.76596 2.04368,1.442z" data-paper-data="{&quot;index&quot;:null}" fill="#fffeff" stroke="none" stroke-width="0.5" stroke-linecap="butt"/><path d="M231.08636,192.08599c0.06447,0.04619 0.10142,0.0839 0.10142,0.0839l0.5151,0.68465c0.72441,3.11396 -2.56282,6.24025 -5.08677,3.17435c-2.54297,-3.08899 1.26971,-5.85578 4.19931,-4.19989c0,0 0.15349,0.08984 0.27093,0.25699z" data-paper-data="{&quot;index&quot;:null}" fill="#4d2813" stroke="none" stroke-width="0.5" stroke-linecap="butt"/><path d="M244.51967,189.95438c0.50151,-0.66578 1.28629,-1.07883 2.07314,-1.3993c0.06495,-0.09843 0.12391,-0.15615 0.12391,-0.15615l0.18586,-0.17683c2.48794,-2.02733 5.10823,-3.88455 8.01303,-5.26406c2.34207,-0.2904 5.59039,-0.19655 6.62937,2.45623c1.00871,2.57546 -0.87986,7.63912 -2.59125,9.63643c-1.41237,1.64832 -3.74977,2.70651 -5.65045,3.63234c-2.01218,0.83207 -5.5708,1.75994 -7.61266,0.5036c-2.15909,-1.32847 -2.64177,-7.27964 -1.17094,-9.23227z" data-paper-data="{&quot;index&quot;:null}" fill="#fffeff" stroke="none" stroke-width="0.5" stroke-linecap="butt"/><path d="M245.90536,192.18137c0.12088,-0.16469 0.2762,-0.25132 0.2762,-0.25132c2.96331,-1.59477 6.7178,1.25047 4.11133,4.28607c-2.587,3.0129 -5.80868,-0.18088 -5.01985,-3.27915l0.52919,-0.67381c0,0 0.03773,-0.03695 0.10314,-0.08179z" data-paper-data="{&quot;index&quot;:null}" fill="#4d2813" stroke="none" stroke-width="0.5" stroke-linecap="butt"/><path d="M243.99887,181.90094c-0.01077,-0.01665 -0.0214,-0.0339 -0.03188,-0.05177c-0.47726,-0.81446 0.33719,-1.29172 0.33719,-1.29172l0.66152,-0.38739c2.6346,-1.46456 5.40191,-2.83513 8.12958,-4.13505c1.96229,1.44075 2.94636,4.54739 1.40042,6.88317c-0.97016,1.46585 -3.34721,2.12255 -4.76351,3.00817c-0.98083,0.61333 -1.87572,2.09802 -3.29557,1.76286c-2.14433,-0.50618 -2.10544,-4.10612 -2.43775,-5.78829z" fill="#713617" stroke="none" stroke-width="0.5" stroke-linecap="butt"/><path d="M231.18288,187.64854c-1.4265,0.30565 -2.29039,-1.1973 -3.25829,-1.83082c-1.39764,-0.9148 -3.76054,-1.62065 -4.70011,-3.1063c-1.49717,-2.36733 -0.4489,-5.45289 1.54284,-6.85266c2.70013,1.3562 5.43842,2.78385 8.04208,4.30274l0.65336,0.40103c0,0 0.80438,0.49404 0.31033,1.29843c-0.01084,0.01764 -0.02183,0.03467 -0.03295,0.05109c-0.36711,1.6749 -0.40289,5.2749 -2.55726,5.7365z" data-paper-data="{&quot;index&quot;:null}" fill="#713617" stroke="none" stroke-width="0.5" stroke-linecap="butt"/><path d="M246.15336,213.56674l-0.10653,-2.36015" fill="none" stroke="#c5832b" stroke-width="0" stroke-linecap="round"/><path d="M259.14063,214.87255l-0.12072,-2.67482" fill="none" stroke="#c5832b" stroke-width="0" stroke-linecap="round"/><path d="M262.42348,214.2514l-0.09231,-2.04546" fill="none" stroke="#c5832b" stroke-width="0" stroke-linecap="round"/><path d="M241.10442,222.66098c11.98746,-0.20101 27.86047,-6.8225 27.86047,-6.8225l1.2559,3.53376c0,0 -17.00981,10.76929 -29.36212,10.92013c-12.35236,0.15086 -31.20199,-10.18048 -31.20199,-10.18048l1.93709,-3.31146c0,0 17.52315,6.06155 29.51061,5.86054z" fill="#434343" stroke="#2e2e2e" stroke-width="0" stroke-linecap="round"/><path d="M233.48568,214.45475l11.25283,-0.47074l2.36299,17.55165l-13.96602,0.00371z" fill="#434343" stroke="#2e2e2e" stroke-width="0" stroke-linecap="butt"/><path d="M245.08605,222.1712l2.35221,-0.28536l0.94528,7.79168l-2.3522,0.28535z" fill="#121212" stroke="none" stroke-width="0" stroke-linecap="butt"/><path d="M233.05917,229.94123l-2.34055,-0.36895l1.22208,-7.75307l2.34055,0.36895z" data-paper-data="{&quot;index&quot;:null}" fill="#121212" stroke="none" stroke-width="0" stroke-linecap="butt"/><path d="M246.01392,224.35308c0.02322,0.62638 -2.66302,1.23433 -5.99979,1.35786c-3.33679,0.12355 -6.06057,-0.28405 -6.08379,-0.9104c-0.02322,-0.62638 2.663,-1.23435 5.99978,-1.35792c3.33679,-0.12355 6.06062,0.28405 6.08381,0.9104z" fill="url(#color-1)" stroke="#3e3e3e" stroke-width="0" stroke-linecap="butt"/><path d="M234.33067,224.2538l-0.85365,-23.05175l11.15408,-0.41306l0.85363,23.05175z" fill="url(#color-2)" stroke="#2e2e2e" stroke-width="0" stroke-linecap="butt"/><path d="M234.68871,218.84199l10.22458,-0.37863" fill="none" stroke="#3e3e3e" stroke-width="0" stroke-linecap="round"/><path d="M268.54748,217.12742l0.92028,2.05118l-4.82864,2.4914l-1.60146,-2.45706z" data-paper-data="{&quot;index&quot;:null}" fill="#121212" stroke="#000000" stroke-width="0" stroke-linecap="round"/><path d="M245.42827,155.76498c-0.664,0.65037 -1.31437,-0.01363 -1.31437,-0.01363l-0.45157,-0.68411c-0.13607,-0.99809 -1.89454,-2.42761 -3.24269,-3.77955c0.13798,0.71024 0.19576,1.39129 0.15749,2.13396l0.24032,0.00249l-0.01696,1.6356c-0.00532,0.51329 -0.42574,0.92508 -0.93903,0.91976c-0.30793,-0.00319 -0.57933,-0.15578 -0.74606,-0.38818l-0.59208,-0.80675c-1.06991,-1.36786 -2.44403,-2.22342 -3.61687,-3.38881c-0.00272,0.57319 -0.02267,2.41359 -0.02441,2.58024c0,0 -0.00964,0.9294 -0.93904,0.91976c-0.92939,-0.00964 -0.91975,-0.93903 -0.91975,-0.93903c0.00548,-0.5287 -0.21587,-4.12446 0.08893,-4.3124c1.76625,-1.08903 3.92491,0.66091 5.45111,2.30691c-0.27646,-1.02328 -0.45729,-2.13197 -0.75247,-3.01709l0.007,-0.06587l-0.02094,0.00396l-0.19028,-1.00552c-0.01361,-0.0649 -0.02044,-0.13227 -0.01972,-0.20132c0.00532,-0.51329 0.42574,-0.92509 0.93903,-0.91976c0.2126,0.00221 0.4078,0.07563 0.56316,0.19737l0.80399,0.61613l-0.19142,0.24979c2.4029,1.64532 5.31119,4.75794 5.7872,6.91267l-0.04692,-0.27098c0,0 0.65036,0.664 -0.01363,1.31437z" fill="#843e18" stroke="none" stroke-width="0.5" stroke-linecap="butt"/><path d="M267.18316,167.38718c-0.36518,-0.40607 -0.02979,-0.89801 -0.02979,-0.89801l0.22091,-0.22374c0.46819,-2.16977 -0.13067,-4.2446 -0.10901,-6.372c0.0053,-0.52065 -0.09101,-1.23353 0.34088,-1.52437c0.49277,-0.33183 1.73436,0.41739 2.27809,0.58574c2.23414,0.69168 4.66913,0.86178 6.69763,2.09642c3.97532,1.6287 5.89082,6.73726 6.56609,10.68456c0.25151,1.47013 1.03674,4.315 -0.59167,5.38656c-0.5613,0.36936 -2.40165,0.07157 -3.08401,0.06172c-1.22373,-0.25288 -2.71145,-0.28174 -3.6048,-1.27141c-3.0784,-3.41033 -2.34504,-7.69637 -7.94236,-7.75441c0,0 -0.74996,-0.00778 -0.74218,-0.75774c0.00005,-0.00447 0.00013,-0.00892 0.00022,-0.01333z" fill="#000000" stroke="none" stroke-width="0.5" stroke-linecap="butt"/><path d="M208.19968,178.97146c0.60177,0.11191 0.82159,0.75914 0.82159,0.75914l0.29821,0.91311c0.23326,1.24298 0.35278,2.3671 0.44171,3.62155c0.08336,1.17586 0.56885,2.16456 -0.38562,3.26848c-1.46051,1.68921 -3.84131,1.25048 -5.0322,-0.49994c-2.13506,-3.13825 -0.74284,-7.5618 2.90121,-8.29512c0,0 0.55877,-0.10486 0.95507,0.23275z" fill="#de8f31" stroke="none" stroke-width="0.5" stroke-linecap="butt"/><path d="M269.56306,180.38494c3.62806,0.80871 4.92827,5.26016 2.72859,8.35348c-1.22692,1.72537 -3.61632,2.11462 -5.04149,0.39549c-0.93138,-1.12347 -0.4255,-2.1019 -0.31776,-3.27577c0.11493,-1.25234 0.25774,-2.37375 0.51672,-3.61162l0.31707,-0.90672c0,0 0.23319,-0.64254 0.83716,-0.74195c0.40321,-0.32932 0.95971,-0.2129 0.95971,-0.2129z" data-paper-data="{&quot;index&quot;:null}" fill="#de8f31" stroke="none" stroke-width="0.5" stroke-linecap="butt"/></g></g></svg>