<svg version="1.1" xmlns="http://www.w3.org/2000/svg" xmlns:xlink="http://www.w3.org/1999/xlink" width="128.10118" height="106.46874" viewBox="0,0,128.10118,106.46874"><defs><linearGradient x1="252.20228" y1="168.93672" x2="268.69174" y2="168.21343" gradientUnits="userSpaceOnUse" id="color-1"><stop offset="0" stop-color="#ffe500"/><stop offset="1" stop-color="#eeb902"/></linearGradient><linearGradient x1="266.55993" y1="174.85136" x2="266.8221" y2="189.55685" gradientUnits="userSpaceOnUse" id="color-2"><stop offset="0" stop-color="#2a2b2a"/><stop offset="1" stop-color="#5a585a"/></linearGradient><radialGradient cx="283.44947" cy="181.06869" r="8.42082" gradientUnits="userSpaceOnUse" id="color-3"><stop offset="0" stop-color="#ffff8d"/><stop offset="1" stop-color="#e6cd11"/></radialGradient><linearGradient x1="266.55993" y1="174.85136" x2="266.8221" y2="189.55685" gradientUnits="userSpaceOnUse" id="color-4"><stop offset="0" stop-color="#9d8f10"/><stop offset="1" stop-color="#c2b74d"/></linearGradient><linearGradient x1="266.55994" y1="174.8514" x2="266.8221" y2="189.55689" gradientUnits="userSpaceOnUse" id="color-5"><stop offset="0" stop-color="#2a2b2a"/><stop offset="1" stop-color="#5a585a"/></linearGradient><linearGradient x1="236.62557" y1="170.9122" x2="245.22468" y2="170.7589" gradientUnits="userSpaceOnUse" id="color-6"><stop offset="0" stop-color="#ffd030"/><stop offset="1" stop-color="#e8ba00"/></linearGradient><linearGradient x1="175.74395" y1="171.87212" x2="247.06453" y2="170.60063" gradientUnits="userSpaceOnUse" id="color-7"><stop offset="0" stop-color="#2d2d2d"/><stop offset="1" stop-color="#1b1b1b"/></linearGradient></defs><g transform="translate(-175.71466,-127.70888)"><g data-paper-data="{&quot;isPaintingLayer&quot;:true}" fill-rule="nonzero" stroke-width="0" stroke-linejoin="miter" stroke-miterlimit="10" stroke-dasharray="" stroke-dashoffset="0" style="mix-blend-mode: normal"><path d="M281.37329,177.39698c0,0 -0.14464,-0.85362 -0.21909,-1.27825c-2.20226,-12.56076 -8.13516,-22.82951 -8.13516,-22.82951l3.92669,-3.26817c0,0 5.71836,11.34561 9.61305,24.35037c0.23319,0.77863 0.67835,2.35161 0.67835,2.35161z" data-paper-data="{&quot;index&quot;:null}" fill="#eeb902" stroke="#2e2e2e" stroke-linecap="round"/><path d="M288.89173,183.46677c0,0 -0.20029,1.62243 -0.31208,2.42752c-1.86733,13.44638 -5.78984,25.531 -5.78984,25.531l-4.37886,-2.63161c0,0 4.29866,-11.05293 4.56099,-23.80264c0.00885,-0.43099 0.02175,-1.29665 0.02175,-1.29665z" data-paper-data="{&quot;index&quot;:null}" fill="#eeb902" stroke="#2e2e2e" stroke-linecap="round"/><path d="M253.81565,185.08581l-0.23288,-2.73816l43.10966,-4.05435l0.23287,2.73815z" fill="#b6b3b6" stroke="none" stroke-linecap="butt"/><path d="M303.81584,179.06485l-7.70866,2.94691l-0.40046,-4.47942z" fill="#c1bdc1" stroke="none" stroke-linecap="butt"/><path d="M296.01155,181.36419l6.70935,-1.94228" fill="none" stroke="#87756d" stroke-linecap="round"/><path d="M253.71546,179.79536c0,0 0.64155,-6.83551 0.72893,-11.31264c0.08737,-4.47713 -1.50459,-10.10663 -1.50459,-10.10663l10.62691,-3.19089l3.50983,4.74235l-0.92116,5.69306l-5.9841,0.56534l0.25089,4.82889l4.51928,-0.06514l1.73692,5.20035l-3.28987,7.05914l-9.67309,-3.41378z" fill="#121213" stroke="#222222" stroke-linecap="round"/><path d="M213.73095,210.66935c-7.21013,-2.16297 -12.56494,-4.99228 -12.30915,-6.40308c1.46197,-8.0642 7.05885,-8.62951 14.26895,-6.46655c7.21014,2.16293 13.46741,3.00437 11.84122,14.29928c-0.20432,1.41918 -6.59093,0.73327 -13.80107,-1.42965z" fill="#0e0c09" stroke="#2e2e2e" stroke-linecap="butt"/><path d="M203.4937,212.72186c0,0 2.10563,5.11217 -1.60283,9.41686c-5.36069,6.6948 -9.01992,3.1443 -9.01992,3.1443c0,0 -3.51459,-2.32568 1.60284,-9.41685c2.91982,-4.04597 9.01992,-3.1443 9.01992,-3.1443z" fill="#ffec00" stroke="none" stroke-linecap="butt"/><path d="M193.97915,227.18532l-2.7801,-2.35112l21.81871,-25.38716l2.15329,1.821z" fill="#636563" stroke="none" stroke-linecap="butt"/><path d="M208.54641,223.6112c2.43984,-4.51834 7.80409,-5.50835 7.80409,-5.50835c0,0 3.68734,3.88265 1.05441,9.49389c-3.84939,8.20363 -7.80409,5.50835 -7.80409,5.50835c0,0 -5.20941,-1.79918 -1.05441,-9.49389z" fill="#ffec00" stroke="none" stroke-linecap="butt"/><path d="M211.49285,234.17761l-3.32036,-1.49388l13.67487,-29.96631l2.57179,1.15708z" fill="#636563" stroke="none" stroke-linecap="butt"/><path d="M255.20183,175.96091l2.20757,-0.14687l-0.30794,1.43154l-2.39491,0.36088" fill="#222222" stroke="#a6521b" stroke-linecap="round"/><path d="M254.49331,162.12044l2.42165,0.0405l0.49484,1.37813l-2.20757,0.14687" data-paper-data="{&quot;index&quot;:null}" fill="#222222" stroke="#a6521b" stroke-linecap="round"/><path d="M256.74167,162.42707l1.27708,6.91723l-0.85293,6.4754" fill="none" stroke="#222222" stroke-linecap="round"/><path d="M214.63347,135.93845c0,0 4.57603,-6.74596 6.5515,-7.69654c1.56256,-0.75185 16.8281,-1.81281 16.70099,5.50764c-0.07886,4.54062 -9.4161,1.82729 -12.18259,2.65957c-3.05581,0.91931 -3.99473,4.44162 -3.99473,4.44162" fill="#0b0b0b" stroke="#292929" stroke-linecap="round"/><path d="M243.09612,184.00646l11.39894,-2.44442l12.8243,-2.59635l2.83688,11.10272l-12.07622,6.03567l-12.58765,-0.35429" data-paper-data="{&quot;index&quot;:null}" fill="#0c0c0c" stroke="#2a2a2a" stroke-linecap="round"/><path d="M248.54486,157.49533l28.95027,14.3587l-5.34185,10.13824l-11.86856,-5.5084l-10.51756,-5.02908" fill="#0c0c0c" stroke="#2a2a2a" stroke-linecap="round"/><path d="M252.41654,173.82132l4.16939,-13.35316l12.00308,5.40326l-7.24492,10.94058z" fill="url(#color-1)" stroke="#000000" stroke-linecap="round"/><path d="M270.4307,168.31863l9.2717,1.88288l-4.08427,14.80904l-4.52688,-2.24248l0.7008,-4.19051l-0.39278,-0.65383l-0.84366,4.50227l-7.13882,-5.44125z" fill="#d88e33" stroke="#2a2a2a" stroke-linecap="round"/><path d="M231.9744,131.79361l15.52102,8.1675c0,0 8.42706,7.7833 9.59642,28.43666c1.10257,19.475 -7.86722,31.77093 -7.86722,31.77093l-17.82262,9.0084z" fill="#070907" stroke="#47455a" stroke-linecap="round"/><path d="M219.6213,137.8651l21.89434,0.93147c0,0 9.77178,8.84199 11.93051,29.42546c1.63185,15.55918 -6.4326,30.14546 -6.4326,30.14546l-22.19442,7.37805z" fill="#a6521b" stroke="#692206" stroke-linecap="round"/><path d="M270.16141,168.25142l9.89094,2.25447l-6.58595,2.05786l-4.10839,4.99354l-6.03768,-0.3415z" fill="#282828" stroke="#000000" stroke-linecap="round"/><path d="M239.63598,138.81346c0,0 5.00724,5.08909 6.63631,8.24043c1.50492,2.91122 5.37722,14.32222 5.37722,14.32222l0.64166,0.87497l0.78091,13.89986l-0.93287,1.30926c0,0 -1.35008,12.99247 -3.24326,16.18941c-1.80555,3.04883 -8.23725,7.86133 -8.23725,7.86133l-10.61109,0.48416c0,0 -4.83999,-0.26014 -5.54693,-10.05254c-0.74004,-10.25157 11.99769,-22.97168 11.99769,-22.97168c0,0 -14.21305,-12.97995 -15.87661,-22.00433c-0.6151,-3.33652 0.74521,-8.74471 0.74521,-8.74471z" fill="#df9431" stroke="#954116" stroke-linecap="round"/><path d="M276.43601,150.30215l1.93457,-2.23593c0,0 12.1673,14.27619 12.99014,31.46209c0.82288,17.18606 -6.74567,33.62402 -6.74567,33.62402l-1.60134,-2.22276c0,0 1.50894,-14.37655 0.63434,-31.05221c-0.8746,-16.67566 -7.21204,-29.57528 -7.21204,-29.57528z" fill="#181718" stroke="#2e2e2e" stroke-linecap="round"/><path d="M269.68179,190.57681l-1.21359,-15.63972l24.31327,-4.15994l0.69814,19.43943z" fill="#070707" stroke="#282828" stroke-linecap="butt"/><path d="M282.70985,191.80844l-0.72827,-20.40118l8.36548,-1.0605l0.37358,20.95428z" fill="#070707" stroke="#282828" stroke-linecap="butt"/><path d="M283.23952,186.68008l-32.05134,1.91463l-1.04017,-10.55642l32.04857,-2.06972z" fill="url(#color-2)" stroke="#2e2e2e" stroke-linecap="butt"/><path d="M282.8606,173.92279c0.87085,-0.05628 1.84045,3.09747 2.16563,7.04404c0.32519,3.94656 -0.1171,7.19144 -0.98792,7.24776c-0.87085,0.05628 -1.84049,-3.09751 -2.16572,-7.04404c-0.32519,-3.94656 0.11711,-7.19153 0.98792,-7.24773z" fill="url(#color-3)" stroke="#3e3e3e" stroke-linecap="butt"/><path d="M273.93569,186.22548l-7.83384,0.55228l-0.83583,-9.31917l7.83107,-0.70729z" fill="url(#color-4)" stroke="#2e2e2e" stroke-linecap="butt"/><path d="M283.25888,187.7655l-10.74367,0.91432l-1.08716,-13.19243l10.74367,-0.91436z" fill="url(#color-5)" stroke="#2e2e2e" stroke-linecap="butt"/><path d="M196.01527,220.01389l1.7584,1.59055" fill="none" stroke="#414241" stroke-linecap="round"/><path d="M200.52816,218.41972l-1.8684,-1.69673" fill="none" stroke="#414241" stroke-linecap="round"/><path d="M212.83498,223.39034l2.28148,0.60807" fill="none" stroke="#414241" stroke-linecap="round"/><path d="M211.06486,227.20629l2.50347,0.92849" fill="none" stroke="#414241" stroke-linecap="round"/><path d="M227.10999,203.83219l6.58878,-21.67181l-0.77658,-25.69172l-6.69579,-15.08068l17.75894,-0.25266l5.43948,16.80449l1.39583,23.20493l-4.34928,17.06014z" fill="#1b1e1b" stroke="#a71717" stroke-linecap="butt"/><path d="M231.39221,143.68165l5.35076,10.49838l1.29755,29.84256l-3.70225,14.78149" fill="none" stroke="#494749" stroke-linecap="round"/><path d="M236.89456,144.13157l3.83062,0.16691l4.51274,9.79925l1.31867,31.02717l-2.85993,11.34215l-3.80546,1.24399" fill="none" stroke="#494749" stroke-linecap="round"/><path d="M238.90081,196.93258l3.26512,-11.95443l-0.76443,-29.38007l-5.83596,-10.35738l3.78323,-0.00351l4.85316,9.77128l1.25029,28.50921l-3.03869,12.1418z" fill="url(#color-6)" stroke="#a71717" stroke-linecap="butt"/><path d="M224.64522,153.55196c-0.2147,2.15593 5.83343,17.08548 5.83343,17.08548c0,0 -5.86657,13.07957 -5.43734,17.05969c2.6987,17.24451 25.10612,10.34137 25.10612,10.34137c0,0 -2.72667,7.61619 -5.69384,8.69715c-4.60409,1.66192 -10.30399,1.30924 -19.66349,2.26217c-28.57997,2.9098 -49.07543,-38.76634 -49.07543,-38.76634c0,0 16.2617,-35.90466 44.29178,-38.32193c9.58984,-0.82702 18.26307,0.48098 23.12047,3.19513c5.18337,2.89631 6.22865,7.24025 6.22865,7.24025c0,0 -22.94345,-4.85976 -24.71033,11.207z" fill="url(#color-7)" stroke="#060606" stroke-linecap="round"/><path d="M176.35172,166.89648l52.31924,0.0054l-0.19109,0.46493l-52.07263,1.61762z" fill="#050605" stroke="#687178" stroke-linecap="round"/><path d="M176.41236,170.29782l52.31924,0.0054l-0.19109,0.46493l-52.07263,1.61761z" fill="#050605" stroke="#687178" stroke-linecap="round"/></g></g></svg>