<svg version="1.1" xmlns="http://www.w3.org/2000/svg" xmlns:xlink="http://www.w3.org/1999/xlink" width="88.74836" height="98.46976" viewBox="0,0,88.74836,98.46976"><defs><linearGradient x1="227.06573" y1="147.79895" x2="227.06573" y2="159.07824" gradientUnits="userSpaceOnUse" id="color-1"><stop offset="0" stop-color="#6f0000"/><stop offset="1" stop-color="#b90000"/></linearGradient><linearGradient x1="246.66573" y1="147.19895" x2="246.66573" y2="158.47824" gradientUnits="userSpaceOnUse" id="color-2"><stop offset="0" stop-color="#6f0000"/><stop offset="1" stop-color="#b90000"/></linearGradient></defs><g transform="translate(-195.62582,-134.22871)"><g data-paper-data="{&quot;isPaintingLayer&quot;:true}" fill-rule="nonzero" stroke-linejoin="miter" stroke-miterlimit="10" stroke-dasharray="" stroke-dashoffset="0" style="mix-blend-mode: normal"><path d="M220.67682,220.12674l0.3662,-0.37568c-0.53592,-2.85813 -0.53912,-6.51688 3.00445,-7.5242c2.29294,-0.65182 4.92735,1.17896 6.96802,1.90151c2.48518,0.87993 5.37446,0.52981 7.90759,0.05579c3.19639,-0.41284 6.88863,-3.17643 10.15214,-1.82499c5.97904,2.47595 6.66076,10.83256 0.52447,13.23585c-2.22381,1.29813 -5.77682,3.13009 -8.4948,2.37728c-2.86948,-0.79477 -2.49607,-4.87542 -3.85885,-6.77381c-0.92913,-1.29429 -2.2733,0.37078 -2.48654,1.17845c-0.19147,0.72522 -0.39511,1.45115 -0.68013,2.14495c-1.3275,2.5634 -4.17182,3.54574 -7.28049,3.0735c-0.94961,-0.14425 -2.54103,0.62621 -3.33844,-0.06818c-1.67355,-1.45735 -3.00966,-4.85123 -2.78359,-7.40046z" data-paper-data="{&quot;index&quot;:null}" fill="#e5b175" stroke="none" stroke-width="0.5" stroke-linecap="butt"/><path d="M221.33198,219.7242l-1.04315,-0.45503c-4.01376,-2.87434 -8.67469,-3.03662 -13.18641,-4.81948c-1.12084,-0.44291 -3.72294,-1.18408 -3.48928,-3.05531c0.08276,-0.66277 3.85812,-1.82014 4.26901,-2.00119c3.37251,-1.48601 5.22433,-3.63248 7.28323,-6.57448c1.70841,-2.47054 3.876,-2.2008 6.65573,-2.9233c3.32985,-0.86549 6.61031,-2.37478 9.40809,-4.39978c3.50179,-2.53456 7.28979,-4.96261 10.6718,-7.67038c0.64341,-0.51513 3.62541,-3.97726 4.71119,-3.64438c0.81473,0.24978 2.28485,3.80964 2.59835,4.49454c4.0802,7.1458 7.86783,14.13768 13.37936,20.30881c1.23695,1.38499 9.83238,-0.04275 10.17343,2.21874c0.07743,0.51345 -5.89439,4.56094 -6.10058,5.08483c-0.40899,1.03914 -2.91021,1.13203 -3.89242,1.29579c-3.76677,0.62802 -7.2735,1.92032 -11.09442,1.91735c-6.17017,0.51692 -12.21729,0.3622 -18.41206,0.64019c-3.76303,0.16887 -7.34392,0.46417 -11.12146,-0.00774c0,0 -0.48485,-0.06061 -0.81038,-0.40917z" fill="#000000" stroke="none" stroke-width="0.5" stroke-linecap="butt"/><path d="M248.38642,211.44855c-0.07781,-0.11063 -0.13948,-0.25281 -0.17368,-0.43519c-0.18429,-0.98287 0.79858,-1.16717 0.79858,-1.16717l0.81222,-0.14444c2.97846,-0.95314 7.13703,-3.41448 9.9944,-3.41091c1.99997,1.52684 4.09345,3.11681 5.53142,5.22624c0.75162,1.1026 2.01351,2.83607 0.87179,4.31879c-0.44796,0.58177 -1.80041,-0.33775 -2.18378,0.28846c-0.48346,0.78971 -0.83858,1.91644 -1.72764,2.17527c-0.48878,0.14229 -1.19634,-0.79416 -1.6714,-0.14137c-0.47769,0.65639 -0.53356,1.74004 -1.27227,2.07668c-1.01585,0.46294 -2.53041,-1.36322 -3.30245,-0.55687c-0.17649,0.18433 0.23472,0.56611 0.07146,0.76226c-0.05404,0.06492 -0.11084,0.12696 -0.16996,0.18658l0.03511,0.02879l-0.74971,0.91437c-0.18589,0.23069 -0.47198,0.37686 -0.79119,0.37301c-0.5019,-0.00605 -0.91299,-0.38081 -0.97877,-0.86366l-0.15773,-1.0222c-1.01244,-2.60671 -1.96808,-6.48657 -4.47036,-8.00246c0,0 -0.35688,-0.22 -0.46602,-0.60618z" data-paper-data="{&quot;index&quot;:null}" fill="#383838" stroke="none" stroke-width="0.5" stroke-linecap="butt"/><path d="M219.18214,217.36015c-0.63991,0.84811 -4.62152,1.70745 -5.64856,0.96033c-1.10361,-0.80283 0.00129,-1.72551 -0.74932,-2.54138c-0.68807,-0.74789 -1.20604,-1.21133 -1.7642,-2.09836c-0.06391,-0.04876 -0.09983,-0.08556 -0.09983,-0.08556l-0.42654,-0.48739c-0.2173,-0.51373 -0.70379,-0.98578 -0.65191,-1.54116c0.12596,-1.34854 0.56533,-6.60395 2.01621,-7.16039c0.10874,-0.04171 2.88027,2.26222 2.96839,2.24876c2.01361,-0.30746 3.84378,1.32632 5.67418,1.85805c1.08767,0.31597 1.99288,0.09556 2.57145,0.63476c0.04564,-0.01548 0.0918,-0.03081 0.13848,-0.04598l0.0006,-0.0499l1.35616,0.01633c0.55225,0.00665 0.99454,0.45972 0.98789,1.01196c-0.00665,0.55225 -0.45972,0.99455 -1.01196,0.98789l-0.96218,-0.01159c-1.62788,0.54444 -1.2749,1.98991 -1.68991,2.98806c-0.47953,1.1533 -1.65176,1.91444 -2.70892,3.31558z" data-paper-data="{&quot;index&quot;:null}" fill="#383838" stroke="none" stroke-width="0.5" stroke-linecap="butt"/><path d="M254.41978,223.22455c-0.62604,-0.35013 -0.42669,-1.10858 -0.42669,-1.10858l0.10937,-0.29868c0.21202,-2.01146 0.7683,-2.92192 2.92578,-2.31181c1.03207,-0.67638 1.90757,-0.33451 2.81563,-0.54808c0.67635,-0.15908 0.13777,-1.57616 0.71933,-1.95637c0.64833,-0.42387 1.61809,0.48399 2.31871,0.15364c0.90469,-0.42657 -0.00061,-2.62374 1.9857,-3.09849c1.37132,-0.32777 3.05838,1.08739 3.81783,2.00136c2.09069,2.51607 3.66268,6.98371 1.94562,9.95668c-1.54358,1.50685 -6.66013,4.8038 -8.95748,4.18804c-1.94228,-0.52059 -1.78208,-2.7303 -3.21504,-3.47512c-0.62664,-0.32572 -1.44484,0.5337 -2.1011,0.27273c-1.30759,-0.52 -1.73343,-2.25586 -1.93763,-3.77529z" data-paper-data="{&quot;index&quot;:null}" fill="#e5b175" stroke="none" stroke-width="0.5" stroke-linecap="butt"/><path d="M210.29941,212.25617l0.19447,0.26533c0.2804,0.41336 1.05782,-0.11638 1.49289,0.12898c1.33607,0.75342 0.74148,1.42551 1.09326,2.37811c0.14581,0.39486 0.66188,-0.64796 1.08279,-0.64968c0.6252,-0.00255 1.24232,0.30829 1.75143,0.6712c0.3543,0.25257 0.29253,1.34034 0.66842,1.1212c0.11676,-0.06808 0.23197,-0.1388 0.34617,-0.21124l-0.14318,-0.12575l0.82084,-0.93464c0.18603,-0.21439 0.46164,-0.34861 0.7677,-0.34492c0.55225,0.00665 0.99454,0.45972 0.98789,1.01197c-0.00178,0.14774 -0.0355,0.28762 -0.09454,0.41313l-0.40932,0.9242c-1.03829,2.34177 -2.62839,4.36508 -3.59856,6.71714c-0.43406,1.05233 -1.01335,3.07023 -2.14153,3.61041c-1.35973,0.65104 -2.69601,-0.46425 -3.94852,-0.75648c-1.67992,-0.01377 -3.37955,0.89473 -4.95658,0.1092c-2.11978,-1.05588 -2.70439,-4.21357 -2.21156,-6.28701c0.85191,-3.58421 4.43448,-6.00237 6.50857,-8.83341c0,0 0.59099,-0.80668 1.39768,-0.21569c0.4474,0.32778 0.46488,0.72191 0.39168,1.00795z" data-paper-data="{&quot;index&quot;:null}" fill="#e5b175" stroke="none" stroke-width="0.5" stroke-linecap="butt"/><path d="M247.80121,153.49514c2.69402,2.76816 6.87042,3.52442 9.89586,6.00125c2.57958,2.11862 4.83305,4.03441 6.80514,6.79234c0.80885,1.13116 1.4536,3.37476 2.33706,4.27534c0.61431,0.62621 4.11851,0.25445 4.99801,0.44311c2.72183,0.58385 4.56886,2.3691 6.43805,4.28643c2.31998,2.77165 5.34484,7.03333 3.98566,10.92649c-0.32674,0.93588 -0.89796,1.37665 -1.56255,2.02883c-4.09221,4.01577 -8.17868,0.2417 -9.41973,-4.21949c-0.36246,-0.9363 -0.5723,-1.90622 -1.1446,-2.74429c-1.01653,-1.4886 -4.42537,-3.31062 -5.76044,-1.04511c-1.79699,3.04934 2.16698,6.03373 4.47323,6.97958c1.4664,0.65206 3.39757,1.44222 4.32647,2.84508c2.0334,3.07095 -0.19719,8.79895 -2.45848,11.23842c-2.48164,2.67718 -20.63862,14.44147 -23.65126,11.46153c-0.16375,-0.46884 -1.6405,-1.49079 -1.30637,-2.19402c2.35657,-4.95944 17.04335,-14.49733 17.63594,-17.73c0.26622,-1.45222 0.21633,-3.98274 -1.31594,-4.36363c-1.56837,-0.38987 -4.05811,0.16402 -5.72783,0.14392c-5.61239,-0.06757 -9.96554,0.86682 -14.26912,4.59055c-1.31391,1.13687 -2.08524,3.08118 -3.22132,4.39162c-0.43723,0.50433 -0.76573,1.42323 -1.43276,1.3989c-1.01247,-0.03694 -1.53478,-1.75676 -1.8289,-2.51189c-0.62993,-1.76401 -3.39199,-0.97317 -4.80689,-2.09816c-3.16618,-2.51745 -6.10397,-5.88969 -9.5266,-6.9826c-2.32683,-0.743 -3.87344,-1.56245 -6.17307,-0.67578c-0.88198,0.42678 -3.14244,1.28341 -3.66773,2.15532c-1.22427,2.03208 0.05666,7.20021 0.20628,9.46444c0.08483,1.28362 2.33619,5.62384 1.09165,6.57641c-1.11953,0.85688 -6.75535,-0.43058 -7.97041,-0.93055c-4.00019,-2.46187 -8.18316,-9.93342 -5.89866,-14.69666c0.99775,-2.08034 3.46159,-3.17316 5.65094,-3.48242c1.28411,-0.18139 2.35848,-0.58753 2.10793,-0.82601c0.76236,-4.32041 0.45005,-7.42499 0.85539,-11.85222c0.18696,-2.04209 0.88286,-4.26343 1.41627,-6.24851c0.55274,-2.05706 1.36602,-3.44779 2.4365,-5.18421c2.39286,-2.36281 5.60053,-4.39412 8.72081,-5.77547c2.56129,-1.13389 5.86481,-1.60381 8.51075,-2.84927c1.93498,0.40312 3.99929,0.52998 5.11275,0.60055c5.63856,0.35738 7.76334,-0.00424 13.98623,-0.33265c0.0039,-0.00021 0.0078,-0.00041 0.0117,-0.00062z" data-paper-data="{&quot;index&quot;:null}" fill="#201f21" stroke="none" stroke-width="0.5" stroke-linecap="butt"/><path d="M222.95411,188.28227c3.56838,1.11628 6.82471,3.28122 9.91052,5.3284c1.01395,0.67267 2.16409,1.61724 2.78316,2.66043c0.27041,0.45565 0.09222,0.62945 0.5786,0.83964c0.25224,0.109 1.92259,-1.95669 2.11833,-2.18643c6.14299,-6.00572 13.94292,-11.22752 22.89335,-8.1229c3.71582,1.70652 3.05606,4.8767 2.42914,8.19398c-1.09104,5.77311 -2.74587,10.72589 -8.65487,12.86249c-2.65918,0.95683 -5.50306,1.58994 -8.12298,2.59617c-1.22999,0.47239 -1.63119,1.52253 -3.08905,1.79244c-3.75057,0.69443 -8.60407,-0.49106 -12.46492,-0.54218c-2.57085,0.21672 -3.72603,-1.04387 -6.06948,-1.58535c-4.64504,-1.07331 -10.91905,-1.77334 -13.83343,-6.13574c-0.94246,-1.41073 -1.08159,-3.13472 -1.46199,-4.75144c-0.26782,-2.69219 -0.93246,-6.20134 0.01806,-8.80112c2.04355,-5.5894 8.70882,-5.18568 12.6435,-2.49938c0,0 0.18697,0.12791 0.32204,0.35099z" data-paper-data="{&quot;index&quot;:null}" fill="#e5b175" stroke="none" stroke-width="0.5" stroke-linecap="butt"/><path d="M251.47945,225.12976c-2.31106,2.79173 -7.31511,4.07226 -10.82745,2.79303c-1.906,-0.69418 -2.64539,-2.68114 -3.00896,-4.49251c-0.09766,-0.48653 -0.28066,-1.31781 -0.30292,-1.95899c-0.50238,0.53135 -1.23463,1.07594 -1.72059,0.904c-0.20675,1.05464 -0.52009,2.36625 -1.0012,3.17838c-2.36258,3.98822 -10.39946,4.08769 -12.86947,0.4468c-0.95064,-1.4013 -1.05126,-3.41391 -1.03522,-5.0299c0,0 0.01205,-0.99993 1.01197,-0.98789c0.99993,0.01204 0.98789,1.01197 0.98789,1.01197c-0.01754,1.21424 -0.00991,2.86693 0.71818,3.92502c1.61944,2.35346 8.04576,2.39277 9.47525,-0.40092c0.40257,-0.78675 0.67115,-2.01432 0.82732,-2.89483l0.01495,-1.24089c0.00665,-0.55225 0.45972,-0.99454 1.01196,-0.98789c0.27612,0.00333 0.52475,0.11825 0.70353,0.30139l0.47657,0.48818c0.07642,-0.01746 0.14883,-0.05076 0.21524,-0.10356c0.69944,-0.55614 1.19701,-1.9457 2.56751,-1.29064c1.17676,0.56244 0.80973,4.98861 1.48698,6.19207c1.68319,2.99102 8.05997,0.92953 9.72188,-1.1209c0.25186,-0.30717 0.50372,-0.61433 0.75558,-0.9215l0.32689,-0.48443c0,0 0.36964,-0.54026 0.94789,-0.44747c-0.0637,-0.71121 -0.14175,-1.39783 -0.28895,-1.99184c-0.57072,-2.30307 -1.80252,-3.88818 -3.17549,-5.76547c0,0 -1.03307,-1.41254 0.37946,-2.44561c1.41254,-1.03307 2.44561,0.37946 2.44561,0.37946c1.64076,2.24345 3.04989,4.22574 3.74373,6.97406c0.45671,1.80907 0.34785,3.84528 0.80521,5.60055c0.35537,1.36381 2.90758,1.43118 3.78525,1.90315c1.05585,0.56778 1.4954,1.92555 2.48951,2.5956c0.56764,0.38261 1.33043,-0.39996 1.89969,-0.78014c1.93024,-1.28909 3.90998,-2.68069 5.8003,-4.05827c1.93613,-1.68128 0.33403,-2.95159 -0.57504,-5.03987c-1.78712,-4.1053 -4.80336,-7.26654 -8.1178,-10.23987l-1.41991,-1.0919c-0.43044,-0.32365 -0.70622,-0.84096 -0.69925,-1.42074c0.01164,-0.96643 0.80451,-1.74044 1.77095,-1.72881c0.13,0.00157 0.25652,0.01727 0.37812,0.04562l1.82112,0.38708l-0.04193,0.19725c0.40093,-0.04563 0.80018,-0.10228 1.19638,-0.17921c2.83469,-0.5504 5.93888,-4.34939 7.29282,-6.68725c2.08703,-3.60368 2.24029,-7.56064 -1.34855,-8.8131c-2.05625,0.06833 -4.23055,0.12852 -5.55562,-1.86455c-1.36064,-2.04656 -1.34744,-8.50583 1.01887,-9.74114c0.91039,-0.47527 2.07815,-0.12675 3.07922,0.10252c2.77887,0.63644 3.57944,2.70273 4.32274,5.12413c0.29759,0.96945 0.34413,2.16822 0.91515,2.9817c0.32747,0.10575 0.7187,0.31813 0.95232,0.74448c1.99545,0.89159 5.95595,1.69211 6.03749,-1.24946c-0.3626,-4.6334 -2.64023,-10.54205 -6.79552,-13.0821c-2.13714,-1.30639 -4.88235,-0.77065 -7.06465,-1.85782c-2.41885,-1.20501 -2.46075,-2.94989 -3.82512,-4.92219c-1.84206,-2.66286 -4.15035,-4.59936 -6.37858,-6.8737c-2.25917,-2.0863 -6.86201,-2.07893 -8.67949,-4.38356c-0.32007,-0.40586 -0.55125,-0.90503 -0.71819,-1.46238c0.07814,-0.0042 0.15693,-0.0084 0.23639,-0.0126c1.44705,-0.07637 2.78447,-0.12541 4.03362,-0.19394c0.61634,0.14777 1.38749,0.07871 1.97537,0.30369c2.16108,0.82707 3.8371,1.6968 5.57406,3.222c3.3462,3.44103 5.75998,6.60003 8.42184,10.52549c0.54657,0.80603 1.48824,0.72672 2.3139,0.89126c2.03609,0.40578 4.10333,0.67764 5.91906,1.76712c5.30641,3.18398 8.02171,10.26077 8.48685,16.13676c-0.12865,0.86604 0.01452,1.81955 -0.38598,2.59813c-1.27466,2.47802 -4.47666,3.24571 -7.48022,2.80569c1.26571,5.27395 -4.06083,12.32202 -7.73356,15.20685c-0.66941,0.5258 -1.91172,1.40141 -3.12541,1.94479c2.79972,2.75394 5.235,5.75744 6.83294,9.42349c1.65955,3.80742 2.86423,5.76155 -0.37314,9.10776c-2.67273,1.96035 -7.81857,6.75591 -11.40706,5.35431c-1.17156,-0.45759 -1.52542,-2.13154 -2.65839,-2.67776c-2.31347,-1.11533 -4.29945,-0.93616 -5.45224,-3.79171c-0.19971,-0.4947 -0.32211,-1.07975 -0.40835,-1.70408c-0.23444,0.28592 -0.46887,0.57183 -0.70331,0.85776zM267.92053,185.99986l0.9184,0.01974c0.47614,0.05734 0.87264,0.09387 1.22611,0.13173c-0.45256,-2.10099 -0.73891,-4.50575 -2.99315,-4.74776c-0.58595,-0.0629 0.2907,1.14393 0.38282,1.72601c0.15193,0.96002 -0.18175,1.98371 0.05433,2.9199c0.23819,-0.05169 0.41152,-0.0496 0.41152,-0.0496z" data-paper-data="{&quot;index&quot;:null}" fill="#040404" stroke="none" stroke-width="0.5" stroke-linecap="butt"/><path d="M230.42546,153.99224c-4.41945,1.14609 -8.09146,2.24734 -12.26848,4.04391c-1.88096,0.80901 -4.38417,1.89965 -5.71999,3.52634c-2.4247,2.95265 -3.98576,7.63824 -4.78106,11.29903c-0.02728,3.21266 0.39292,6.47945 0.07794,9.6929c-0.10577,1.07919 -0.57206,2.39451 -1.29115,3.20614c-1.5045,1.6981 -4.28676,0.19212 -6.09079,2.1361c-1.20879,1.30256 -1.03668,4.27478 -0.62838,5.83776c1.09424,4.18879 2.5293,6.75681 5.96745,9.43457c2.20628,0.997 3.31159,1.35232 5.67588,0.64576l1.43418,-0.05653c0,0 1.74988,0.02107 1.72881,1.77095c-0.00703,0.5844 -0.2069,0.9713 -0.47001,1.22741c0.24907,0.06349 0.51307,0.19943 0.78287,0.44129c1.30305,1.16817 0.13489,2.47119 0.13489,2.47119c-3.30378,3.67158 -9.77378,7.15759 -10.91534,12.27079c-0.96744,4.33338 3.12882,2.48392 5.57584,2.83462c0.97508,0.13974 1.95602,1.35077 2.82116,0.87975c0.44177,-0.24051 0.57802,-0.82335 0.86702,-1.23501c3.51072,-3.40047 5.60324,-8.15304 8.57964,-12.03013l0.59386,-1.21442c0,0 0.80141,-1.55571 2.35712,-0.75429c1.55571,0.80141 0.7543,2.35712 0.7543,2.35712l-0.93075,1.74517c-3.07936,3.99715 -5.2315,8.78406 -8.83674,12.32816c-2.80415,2.71029 -3.26477,2.03986 -6.75549,1.38021c-1.11855,-0.21137 -2.23972,0.64174 -3.37298,0.53427c-4.02384,-0.38159 -5.81781,-3.95428 -5.07783,-7.54682c1.24228,-6.03112 7.91022,-9.60237 11.7341,-13.8857c0,0 0.0453,-0.05052 0.12799,-0.12275l-0.16735,-0.03095c-3.3452,0.92932 -5.36316,0.41913 -8.44934,-1.01328c-5.19786,-3.95885 -11.67215,-14.23485 -6.14079,-20.60112c0.84738,-0.97528 2.82204,-2.03003 4.06324,-2.35376c0.69283,-0.1807 1.42312,-0.25479 2.13773,-0.21005c0.2762,0.0173 0.59136,0.62754 0.73303,0.38981c0.16777,-0.28154 -0.39563,-0.55386 -0.44192,-0.87832c-0.09637,-0.67555 0.01642,-1.36468 0.02464,-2.04703c0.0322,-2.6746 -0.12088,-5.32052 -0.08139,-7.99051c0.89465,-4.28296 2.67941,-9.7133 5.56376,-13.14438c3.58739,-4.26738 9.70324,-6.16432 15.28447,-7.59041c1.43534,1.06754 4.11773,1.53173 6.26151,1.75619c-0.3824,0.37149 -0.86166,0.49602 -0.86166,0.49602z" data-paper-data="{&quot;index&quot;:null}" fill="#040404" stroke="none" stroke-width="0.5" stroke-linecap="butt"/><path d="M225.29137,212.26933c-0.2631,-0.95158 -0.45385,-2.00073 0.62842,-2.74236c1.30194,-0.89217 2.80914,0.09345 3.35529,1.21347c0.65805,1.34945 -0.17273,3.45343 0.32688,4.87707c0.27313,0.77828 1.88905,1.87298 1.20085,2.90325c-0.68126,1.01987 -2.71548,0.4611 -3.46726,-0.07181c-1.41319,-1.00178 -1.4611,-2.8529 -1.7037,-4.53955c-0.17678,-0.2798 -0.17295,-0.59874 -0.17295,-0.59874l0.03133,-0.21178c-0.04394,-0.20267 -0.09505,-0.40008 -0.15648,-0.59019c0,0 -0.03109,-0.09716 -0.04239,-0.23935z" data-paper-data="{&quot;index&quot;:null}" fill="#383838" stroke="none" stroke-width="0.5" stroke-linecap="butt"/><path d="M247.49007,213.3089c-0.06597,0.18857 -0.12183,0.38469 -0.17064,0.58625l0.02623,0.21247c0,0 -0.00384,0.31894 -0.18731,0.59439c-0.28314,1.68031 -0.37562,3.52975 -1.81251,4.49721c-0.7644,0.51466 -2.81149,1.02429 -3.46798,-0.01168c-0.6632,-1.04654 0.97861,-2.10201 1.27039,-2.8735c0.53375,-1.4112 -0.24615,-3.53456 0.4442,-4.86778c0.57297,-1.10655 2.10345,-2.05559 3.38353,-1.13233c0.77325,0.5577 0.87056,1.26155 0.75627,1.96727c-0.04299,0.26544 -0.11592,0.53114 -0.19407,0.78942c-0.01471,0.14187 -0.04814,0.23827 -0.04814,0.23827z" data-paper-data="{&quot;index&quot;:null}" fill="#383838" stroke="none" stroke-width="0.5" stroke-linecap="butt"/><path d="M228.67011,213.54855c-0.25204,-0.04536 0.15479,-0.19119 -0.01279,-0.59561c-0.38283,-0.92382 -0.13873,-1.17919 -0.13873,-1.17919l1.14778,-0.45353c2.92765,-0.01123 5.75207,0.28781 8.65985,0.49229c1.40591,0.09887 3.48892,-0.17708 4.81027,0.22552c1.66254,0.50655 1.4956,1.01097 2.05432,2.44049c-0.01231,1.50589 -0.16602,3.48221 -1.5352,4.4954c-1.24008,0.91763 -3.44994,0.32886 -4.87107,0.40184c-4.61651,0.23704 -10.66311,0.39424 -10.11444,-5.8272z" data-paper-data="{&quot;index&quot;:null}" fill="#e5b175" stroke="none" stroke-width="0.5" stroke-linecap="butt"/><path d="M243.49872,198.38139c0.07168,-0.10821 0.13666,-0.17164 0.13666,-0.17164l0.2049,-0.19429c2.74215,-2.22686 5.62962,-4.26624 8.82941,-5.77928c2.57838,-0.31534 6.15357,-0.20605 7.29227,2.71571c1.10551,2.8366 -0.98248,8.40654 -2.86983,10.60178c-1.55758,1.81167 -4.13225,2.9721 -6.226,3.98765c-2.21629,0.91214 -6.13484,1.92688 -8.37996,0.5403c-2.374,-1.46618 -2.89433,-8.01736 -1.27185,-10.16386c0.55322,-0.73189 1.41777,-1.18508 2.28442,-1.53637z" data-paper-data="{&quot;index&quot;:null}" fill="#fffeff" stroke="none" stroke-width="0.5" stroke-linecap="butt"/><path d="M227.91297,201.3074c0.07089,0.05096 0.11149,0.09254 0.11149,0.09254l0.56569,0.75451c0.79162,3.42879 -2.83229,6.86375 -5.60472,3.48457c-2.7933,-3.40464 1.4083,-6.44297 4.6298,-4.615c0,0 0.16878,0.09917 0.29773,0.28336z" data-paper-data="{&quot;index&quot;:null}" fill="#4d2813" stroke="none" stroke-width="0.5" stroke-linecap="butt"/><path d="M243.30375,202.14423c3.26458,-1.74989 7.3918,1.38872 4.51734,4.72512c-2.85298,3.31145 -6.39314,-0.20976 -5.51919,-3.61849l0.5837,-0.74068c0,0 0.04159,-0.0406 0.11368,-0.08983c0.13335,-0.18105 0.30447,-0.27611 0.30447,-0.27611z" data-paper-data="{&quot;index&quot;:null}" fill="#a00404" stroke="none" stroke-width="0.5" stroke-linecap="butt"/><path d="M231.38473,199.78126c1.57034,2.18494 0.89244,8.72168 -1.51618,10.13029c-2.27785,1.33213 -6.17085,0.22333 -8.36453,-0.7419c-2.06869,-1.06566 -4.61466,-2.28774 -6.12819,-4.13639c-1.83395,-2.24004 -3.78724,-7.85863 -2.61376,-10.6678c1.20872,-2.8935 4.78549,-2.91668 7.35553,-2.53936c3.16242,1.58964 5.99997,3.69794 8.68771,5.99018l0.20015,0.19916c0,0 0.06344,0.06499 0.13248,0.17489c0.85793,0.37207 1.71134,0.84592 2.24677,1.59092z" data-paper-data="{&quot;index&quot;:null}" fill="#fffeff" stroke="none" stroke-width="0.5" stroke-linecap="butt"/><path d="M241.73714,192.58454c-0.01075,-0.01665 -0.02135,-0.03394 -0.03179,-0.05182c-0.47589,-0.81525 0.33935,-1.29115 0.33935,-1.29115l0.66217,-0.38629c2.63704,-1.46016 5.40663,-2.8261 8.13646,-4.12147c1.95988,1.44403 2.93874,4.55231 1.38892,6.8855c-0.97261,1.46422 -3.35074,2.11696 -4.76853,3.00021c-0.98185,0.61168 -1.87922,2.09488 -3.2985,1.75736c-2.14348,-0.50975 -2.09858,-4.10964 -2.42807,-5.79235z" data-paper-data="{&quot;index&quot;:null}" fill="#713617" stroke="none" stroke-width="0.5" stroke-linecap="butt"/><path d="M228.91157,198.31073c-1.427,0.30326 -2.28839,-1.20112 -3.25524,-1.83626c-1.39611,-0.91713 -3.75783,-1.62693 -4.69491,-3.11415c-1.49322,-2.36983 -0.43979,-5.45362 1.55429,-6.85006c2.69786,1.36072 5.43376,2.79292 8.03488,4.31616l0.65268,0.40212c0,0 0.80356,0.49539 0.30817,1.29895c-0.01087,0.01763 -0.02189,0.03463 -0.03303,0.05104c-0.36991,1.67429 -0.4117,5.27421 -2.56683,5.73221z" data-paper-data="{&quot;index&quot;:null}" fill="#713617" stroke="none" stroke-width="0.5" stroke-linecap="butt"/><path d="M228.91635,202.63954c0.07088,0.05097 0.11149,0.09255 0.11149,0.09255l0.56569,0.75451c0.79161,3.42878 -2.83228,6.86375 -5.6047,3.48457c-2.7933,-3.40465 1.40829,-6.44296 4.62979,-4.61499c0,0 0.16878,0.09916 0.29773,0.28336z" data-paper-data="{&quot;index&quot;:null}" fill="#a00404" stroke="none" stroke-width="0.5" stroke-linecap="butt"/><path d="M243.42851,226.58801c-0.49996,-0.00602 -0.49394,-0.50598 -0.49394,-0.50598c0.00803,-0.66662 0.01806,-1.49989 0.02609,-2.16651c0,0 0.00602,-0.49997 0.50598,-0.49394c0.49996,0.00602 0.49394,0.50598 0.49394,0.50598c-0.00803,0.66662 -0.01605,1.33323 -0.02408,1.99986l-0.002,0.16665c0,0 -0.00602,0.49997 -0.50598,0.49394z" data-paper-data="{&quot;index&quot;:null}" fill="#a0531a" stroke="none" stroke-width="0.5" stroke-linecap="butt"/><path d="M245.76568,226.2828c-0.49996,-0.00602 -0.49394,-0.50598 -0.49394,-0.50598c0.00401,-0.33331 0.01003,-0.83327 0.01405,-1.16658c0,0 0.00602,-0.49997 0.50598,-0.49394c0.49996,0.00602 0.49394,0.50598 0.49394,0.50598c-0.00401,0.33331 -0.00803,0.66662 -0.01205,0.99993l-0.002,0.16666c0,0 -0.00602,0.49996 -0.50598,0.49394z" data-paper-data="{&quot;index&quot;:null}" fill="#a0531a" stroke="none" stroke-width="0.5" stroke-linecap="butt"/><path d="M247.77757,225.30695c-0.49996,-0.00602 -0.49394,-0.50598 -0.49394,-0.50598c0.002,-0.16666 0.00602,-0.49996 0.00803,-0.66662c0,0 0.00602,-0.49996 0.50598,-0.49394c0.49996,0.00602 0.49394,0.50598 0.49394,0.50598c-0.002,0.16666 -0.00401,0.33331 -0.00602,0.49997l-0.002,0.16666c0,0 -0.00602,0.49996 -0.50598,0.49394z" data-paper-data="{&quot;index&quot;:null}" fill="#a0531a" stroke="none" stroke-width="0.5" stroke-linecap="butt"/><path d="M229.59418,226.58813c-0.49996,-0.00602 -0.49394,-0.50598 -0.49394,-0.50598l0.00602,-0.49996c0.00779,-0.28443 -0.04023,-0.57381 -0.13086,-0.84353c0,0 -0.15239,-0.47621 0.32382,-0.6286c0.47621,-0.15239 0.6286,0.32382 0.6286,0.32382c0.1153,0.37396 0.17873,0.76902 0.17837,1.16034l-0.00602,0.49996c0,0 -0.00602,0.49997 -0.50598,0.49394z" data-paper-data="{&quot;index&quot;:null}" fill="#a0531a" stroke="none" stroke-width="0.5" stroke-linecap="butt"/><path d="M227.75494,227.06603c-0.49996,-0.00602 -0.49394,-0.50598 -0.49394,-0.50598c0.002,-0.16666 0.01003,-0.83327 0.01204,-0.99993c0,0 0.00602,-0.49996 0.50598,-0.49394c0.49996,0.00602 0.49394,0.50598 0.49394,0.50598c-0.002,0.16666 -0.00401,0.33331 -0.00602,0.49997l-0.00602,0.49996c0,0 -0.00602,0.49996 -0.50598,0.49394z" data-paper-data="{&quot;index&quot;:null}" fill="#a0531a" stroke="none" stroke-width="0.5" stroke-linecap="butt"/><path d="M225.10252,225.86734c0.00333,-0.27612 0.22986,-0.49727 0.50598,-0.49394c0.27612,0.00333 0.49727,0.22987 0.49394,0.50598c-0.00333,0.27612 -0.22987,0.49727 -0.50598,0.49394c-0.27612,-0.00333 -0.49727,-0.22986 -0.49394,-0.50598z" data-paper-data="{&quot;index&quot;:null}" fill="#a0531a" stroke="none" stroke-width="0.5" stroke-linecap="butt"/><path d="M206.52979,190.56609c0.60157,0.11291 0.82032,0.76052 0.82032,0.76052l0.2967,0.91361c0.23117,1.24336 0.34882,2.36769 0.43566,3.62228c0.0814,1.17599 0.56523,2.1655 -0.39108,3.26783c-1.46334,1.68677 -3.8434,1.24408 -5.03136,-0.50834c-2.12982,-3.14182 -0.7302,-7.56303 2.91507,-8.29026c0,0 0.55895,-0.10392 0.95469,0.23435z" fill="#e5b175" stroke="none" stroke-width="0.5" stroke-linecap="butt"/><path d="M266.88839,192.27003c3.62671,0.81477 4.91947,5.2684 2.71463,8.35803c-1.2298,1.72332 -3.61984,2.10857 -5.04213,0.38707c-0.92949,-1.12503 -0.42198,-2.1026 -0.31229,-3.2763c0.11702,-1.25214 0.2617,-2.37332 0.52275,-3.61075l0.31859,-0.9062c0,0 0.23428,-0.64215 0.8384,-0.74055c0.40376,-0.32864 0.96006,-0.21129 0.96006,-0.21129z" data-paper-data="{&quot;index&quot;:null}" fill="#e5b175" stroke="none" stroke-width="0.5" stroke-linecap="butt"/><path d="M224.89137,211.12269c-0.00564,-0.05509 -0.0086,-0.11299 -0.0086,-0.17387c0,-1.25 1.25,-1.25 1.25,-1.25h0.96152c3.58079,0.00564 6.83891,2.23608 10.41638,2.23238c3.0054,-0.00311 6.3305,-2.24313 9.33487,-2.21623c0.81954,0.47581 2.15195,0.53077 2.45862,1.42743c0.26313,0.76934 -0.79941,1.41821 -1.25506,2.09164c-1.4764,2.18205 -3.89724,3.3746 -6.35852,4.04756c-5.61802,1.53608 -13.04887,-0.4415 -16.55782,-5.10201c0,0 -0.37448,-0.4993 -0.2414,-1.05689z" fill="#880808" stroke="none" stroke-width="0.5" stroke-linecap="butt"/><path d="M265.31545,170.42682l-5.5,3.5l-37.16667,1.33333l-14,-3.5l-0.5,2.66667l0.33333,5l7,2.16666l46,-0.5l7.33334,-6.66666z" fill="#000000" stroke="#000000" stroke-width="1.5" stroke-linecap="round"/><path d="M263.33285,161.85381c-0.69338,1.28162 -1.73344,0.42721 -1.73344,0.42721l-0.0834,-0.24969c-5.05985,-0.89093 -8.75206,2.92074 -13.49235,2.97052c-5.02935,-0.68235 -10.07631,-1.97092 -15.1463,-1.96936c-6.86834,0.00211 -13.52076,0.20273 -20.36135,-1.00116c0,0 -0.00225,-0.0004 -0.00654,-0.00127c-0.0677,0.01093 -0.13983,0.01675 -0.21668,0.01675c-1.25,0 -1.25,-1.54031 -1.25,-1.54031v-0.73935c0.00903,-4.63831 -1.67288,-9.99496 -4.10377,-13.54492c-1.06527,-1.55568 -2.08118,-2.53295 -3.03815,-3.78061l-0.18894,0.29103l-0.99098,-0.97691c-0.29115,-0.28201 -0.47815,-0.71993 -0.47815,-1.21167c0,-0.85069 0.55964,-1.54031 1.25,-1.54031c0.0674,0 0.13355,0.00657 0.19806,0.01923l1.37871,0.2427l-0.00335,0.02892l0.06687,-0.01568c4.01073,1.23335 7.5763,3.82023 11.49721,5.20393c4.52721,1.59765 9.7937,1.66794 14.4625,1.66794c2.20654,0 4.18765,-0.57515 6.3356,-0.7373c4.81355,-0.3634 9.26869,1.23774 14.11491,-0.43352c3.26914,-1.12739 6.22714,-4.37484 9.27579,-6.22627c1.57421,-1.57121 5.76848,-7.16706 7.61399,-3.03029c0.42516,0.953 -1.23438,5.02602 -1.5719,6.10739c-1.87833,6.0179 -4.28434,10.96561 -4.50242,17.47337l0.62739,0.41361c0,0 1.04006,0.85441 0.34669,2.13603z" fill="#040404" stroke="none" stroke-width="0.5" stroke-linecap="butt"/><path d="M219.46526,150.78477l-0.17185,-0.97863c0.16067,-0.56312 0.03453,-1.31162 0.482,-1.68936c0.83445,-0.70442 3.18823,-0.03923 4.15577,0.10701c3.15967,0.47757 5.06099,1.68464 7.54646,3.61864c1.15335,1.01828 3.89152,3.62929 3.26972,5.56803c-0.6074,1.89382 -3.70868,1.71039 -5.19737,1.61146c-5.45348,-0.36238 -8.6786,-2.15225 -10.08141,-7.75057c0,0 -0.05679,-0.22715 -0.00333,-0.48658z" fill="url(#color-1)" stroke="none" stroke-width="0.5" stroke-linecap="butt"/><path d="M254.26287,150.67135c-1.40281,5.59832 -4.62793,7.38819 -10.08141,7.75057c-1.48869,0.09893 -4.58997,0.28236 -5.19737,-1.61146c-0.6218,-1.93875 2.11637,-4.54976 3.26972,-5.56803c2.48547,-1.934 4.38679,-3.14107 7.54646,-3.61864c0.96753,-0.14624 3.32132,-0.81142 4.15578,-0.107c0.44747,0.37774 0.32134,1.12624 0.482,1.68936l-0.17185,0.97863c0.05346,0.25942 -0.00332,0.48657 -0.00332,0.48657z" data-paper-data="{&quot;index&quot;:null}" fill="url(#color-2)" stroke="none" stroke-width="0.5" stroke-linecap="butt"/></g></g></svg>