<svg version="1.1" xmlns="http://www.w3.org/2000/svg" xmlns:xlink="http://www.w3.org/1999/xlink" width="110.7163" height="130.8843" viewBox="0,0,110.7163,130.8843"><g transform="translate(-463.91663,-95.44351)"><g data-paper-data="{&quot;isPaintingLayer&quot;:true}" fill-rule="nonzero" stroke-linejoin="miter" stroke-miterlimit="10" stroke-dasharray="" stroke-dashoffset="0" style="mix-blend-mode: normal"><path d="M470.46532,96.9459l98.3125,0.45833l4.125,3.4375l0.22917,119.625l-3.20833,4.35417l-100.83333,-0.91667l-2.52083,-2.75l-1.14583,-120.3125z" fill="#4d4d4a" stroke="#2a2a2a" stroke-width="3" stroke-linecap="round"/><path d="M467.68184,170.5751l49.27083,14.20833l54.54167,-12.83333l0.45833,46.0625l-2.75,4.58333l-98.3125,-0.45833l-2.52083,-2.52083z" fill="#383531" stroke="#383531" stroke-width="3.5" stroke-linecap="round"/><path d="M478.51762,178.27971c-1.15081,0.11744 -2.04327,-0.77502 -2.04327,-0.77502l-0.29564,-0.29564c-0.77192,-0.86163 -1.88237,-1.51229 -2.31575,-2.58488c-0.45235,-1.11955 -0.15657,-2.41043 -0.1903,-3.61743c-0.15787,-5.64901 0.95632,-11.62914 6.35033,-14.62313c0.58507,-0.32475 4.58848,-1.71053 5.29729,-1.89824c0.47819,-0.12664 1.21749,0.21226 1.46851,-0.214c0.27814,-0.47233 -0.35539,-1.04808 -0.40377,-1.59408c-0.08434,-0.95192 -0.09511,-1.91692 0.00852,-2.86693c0.42106,-3.86006 0.36253,-4.25685 2.65339,-7.02682c1.64961,-1.99462 2.55298,-2.47737 4.77648,-3.78947c1.50554,-0.88842 3.92377,-1.26126 3.34319,-3.23391c-1.87213,-2.83306 -2.89094,-5.02732 -3.36783,-8.46611c-0.44083,-3.17877 -0.43948,-6.68313 0.71252,-9.74701c3.14292,-8.35896 12.9098,-11.53399 21.13839,-12.007c2.56524,-0.14746 6.04499,-0.39761 8.56649,0.03629c0.91018,0.15663 1.76249,0.56521 2.60531,0.94283c0.24121,0.10807 0.45522,0.40734 0.67046,0.60429l0.52187,-1.04374c0.40086,-0.84561 1.26228,-1.43041 2.26029,-1.43041c1.03935,0 1.93056,0.63424 2.30771,1.53681l1.11743,2.51423c1.6163,2.76522 3.36016,5.22666 4.65808,8.14696c0.67485,0.95879 1.08135,2.17658 2.0194,2.87997c0.1507,0.113 0.01925,-0.38139 0.08145,-0.55919c0.26049,-0.74465 0.53738,-1.4866 0.88239,-2.19606c1.34491,-2.76553 3.82945,-5.79538 3.58409,-9.09649c-0.06998,-0.94148 -0.64035,-1.8261 -0.59478,-2.76908c0.06996,-1.44757 0.17094,-3.01411 0.93384,-4.24632c0.79621,-1.28601 2.05582,-2.42012 3.49037,-2.89954c4.98546,-1.66612 12.02433,4.28848 10.1719,9.47677c-0.51634,1.44617 -1.75891,2.5752 -2.96479,3.52592c-1.26184,0.99483 -3.5675,0.61746 -4.38591,2.00026c-0.90139,1.523 -0.8256,6.10267 -1.12494,7.74679c-0.13025,0.46602 -1.36843,4.09227 -0.98026,5.08361c0.28456,0.72673 1.23262,1.01897 1.6046,1.70507c0.57049,1.05223 0.93057,2.22325 1.16194,3.39761c0.34873,1.77 0.44374,6.48984 0.34128,8.31966c-0.1836,3.27901 -1.63669,6.78793 -3.7523,9.34942c-0.11486,0.13906 -0.31653,0.2969 -0.55383,0.45234c2.89571,-0.4329 7.78388,1.1427 9.19481,2.48277c1.18469,1.12518 0.64188,3.61219 2.0406,4.45664c0.70208,0.42387 1.73387,-0.00745 2.42047,0.44107c1.24278,0.81183 2.42549,1.86588 3.11969,3.178c0.99553,1.88166 0.42799,4.81438 0.21715,6.78797c-1.37502,6.8236 -4.90589,12.55229 -10.36645,16.93964c-2.38158,1.91351 -5.04485,3.12166 -7.54145,4.84193c-3.31721,2.2857 -6.4388,4.65392 -9.94688,6.62263c-3.40326,1.90989 -6.91421,5.87071 -10.71927,6.76107c-4.35778,1.01969 -8.98033,-1.72672 -12.54264,-3.71585c-3.64669,-1.36173 -10.25677,-4.1823 -11.90376,-8.11227c-0.10242,-0.24439 0.3453,-6.24671 -0.41138,-6.67274c-0.47711,-0.26862 -1.09736,-0.03245 -1.63853,-0.11569c-1.99027,-0.30613 -3.20263,-0.92642 -5.24596,-0.57749c-1.90639,0.32555 -3.66899,1.60934 -5.60067,1.51498c-4.15795,-0.20312 -7.78342,-2.78814 -10.82988,-5.57098z" fill="#000000" stroke="none" stroke-width="0.5" stroke-linecap="butt"/></g></g></svg>