<svg version="1.1" xmlns="http://www.w3.org/2000/svg" xmlns:xlink="http://www.w3.org/1999/xlink" width="104.80556" height="127.94675" viewBox="0,0,104.80556,127.94675"><defs><radialGradient cx="241.1653" cy="172.88232" r="52.11366" gradientUnits="userSpaceOnUse" id="color-1"><stop offset="0" stop-color="#126cdf"/><stop offset="1" stop-color="#0053f8"/></radialGradient><linearGradient x1="208.98957" y1="218.61247" x2="191.28739" y2="218.13886" gradientUnits="userSpaceOnUse" id="color-2"><stop offset="0" stop-color="#575b5b"/><stop offset="1" stop-color="#575b5b" stop-opacity="0"/></linearGradient></defs><g transform="translate(-187.59723,-116.00162)"><g data-paper-data="{&quot;isPaintingLayer&quot;:true}" fill-rule="nonzero" stroke-linejoin="miter" stroke-miterlimit="10" stroke-dasharray="" stroke-dashoffset="0" style="mix-blend-mode: normal"><path d="M221.46378,201.90338l19.89036,0.53215l-0.1004,3.75289c0,0 -4.62306,0.81521 -7.34324,0.74244c-3.63884,-0.09735 -12.54711,-1.27459 -12.54711,-1.27459z" fill="#ed0000" stroke="none" stroke-width="0" stroke-linecap="butt"/><path d="M251.74072,200.07534c0,0 5.37843,16.60238 4.69343,18.37128c-1.12176,2.8968 -2.62476,4.77938 -6.61025,4.82382c-3.98549,0.04443 -6.38214,-1.42773 -7.65265,-4.66482c-1.27051,-3.23709 -1.24651,-18.00872 -1.24651,-18.00872" data-paper-data="{&quot;index&quot;:null}" fill="#ed0000" stroke="#174752" stroke-width="0" stroke-linecap="round"/><path d="M245.9586,198.26012c1.70091,0.0455 2.16811,0.17374 3.84718,4.23712c1.09797,2.65709 2.07202,4.18962 -1.52575,5.12686c-1.59547,0.41564 -5.59581,-2.17291 -5.51174,-5.31514c0.12172,-4.54976 1.48936,-4.09434 3.19027,-4.04883z" data-paper-data="{&quot;index&quot;:null}" fill="#126ddd" stroke="none" stroke-width="0" stroke-linecap="butt"/><path d="M233.77103,206.6133c0,0 -0.7879,15.57521 -2.23446,18.91833c-1.44656,3.34312 -3.92059,4.76349 -7.89778,4.49756c-3.97719,-0.26589 -5.37451,-2.33335 -6.33541,-5.44913c-0.58673,-1.90264 5.69625,-19.11113 5.69625,-19.11113" data-paper-data="{&quot;index&quot;:null}" fill="#ed0000" stroke="#174752" stroke-width="0" stroke-linecap="round"/><path d="M231.17301,206.90728c-0.11608,4.33909 -4.3446,7.65266 -5.93825,6.97717c-3.59363,-1.52327 -2.50623,-3.57446 -1.22078,-7.1687c1.96574,-5.49648 2.4484,-5.64341 4.17869,-5.59712c1.73029,0.04629 3.14843,-0.49411 2.98034,5.78865z" fill="#126ddd" stroke="none" stroke-width="0" stroke-linecap="butt"/><path d="M251.74072,200.07534c0,0 5.37844,16.60238 4.69347,18.37127c-1.12173,2.8968 -2.6248,4.77939 -6.61026,4.82382c-3.98546,0.04443 -6.3821,-1.42768 -7.65265,-4.66482c-1.27055,-3.2371 -1.41994,-11.52646 -1.41994,-11.52646l-7.4089,-0.03342c0,0 -0.76663,15.22129 -2.16806,18.48872c-1.40143,3.26743 -3.79715,4.65611 -7.64788,4.39721c-3.85073,-0.2589 -5.20321,-2.279 -6.13277,-5.32369c-0.56763,-1.85924 5.51989,-18.67794 5.51989,-18.67794l-4.91505,-1.55726" fill="none" stroke="#174752" stroke-width="0.5" stroke-linecap="round"/><path d="M195.1471,165.59045c0,0 -5.49205,-12.63856 -5.78364,-16.42502c-0.36942,-4.79783 1.42301,-10.21601 7.14577,-10.7005c5.28754,-0.44765 81.63193,-5.72962 86.564,-5.55025c4.93208,0.17934 8.68162,6.15229 8.22287,9.83426c-1.29273,10.37537 -9.58337,25.15753 -9.58337,25.15753" fill="#e3000a" stroke="#930f00" stroke-width="0.5" stroke-linecap="round"/><path d="M221.67261,200.92578l-5.82541,13.27578l-6.70897,14.82408l-13.2625,-5.21417l2.69563,-16.57101l9.51307,-12.43916" data-paper-data="{&quot;index&quot;:null}" fill="#a6521b" stroke="#174752" stroke-width="0.5" stroke-linecap="round"/><path d="M251.86724,202.52902l-14.7417,3.54895l-15.10435,-3.95314" fill="#445e67" stroke="#ffa549" stroke-width="0.5" stroke-linecap="round"/><path d="M223.29644,199.40478l-6.92057,13.12717l-16.35141,-7.98448l8.32978,-12.35397" data-paper-data="{&quot;index&quot;:null}" fill="#0256f6" stroke="#174752" stroke-width="0.5" stroke-linecap="round"/><path d="M200.12418,207.33764l3.14369,-0.0687l2.44362,3.878l3.65037,-0.86611l1.91402,3.62758l3.38266,-1.12234l-5.45423,14.2725l-11.62413,-4.20161z" data-paper-data="{&quot;index&quot;:null}" fill="#df9431" stroke="#692206" stroke-width="0" stroke-linecap="round"/><path d="M270.48717,195.88376l10.04746,12.01167l3.45521,15.01131l-13.06019,7.21472l-2.41194,-4.76365l1.3018,-4.24925l-4.20174,-1.61853l-2.0383,-3.88539l-6.39993,-13.00861" fill="#a6521b" stroke="#174752" stroke-width="0.5" stroke-linecap="round"/><path d="M269.25779,193.03384l9.04878,11.83745l-15.84836,8.94148l-7.68797,-12.693" fill="#0256f6" stroke="#174752" stroke-width="0.5" stroke-linecap="round"/><path d="M196.14035,165.42996l0.98982,-32.19906c0,0 9.93057,-16.89684 44.62089,-16.97928c27.96201,0.25892 38.37897,17.7056 38.37897,17.7056l0.6289,28.77659c0,0 8.78816,-1.69734 10.63367,4.02555c1.84546,5.72296 0.28009,15.95383 -4.14343,21.47161c-3.21008,4.00418 -8.86061,1.65141 -8.86061,1.65141c0,0 -11.52622,11.64991 -37.21753,13.19119c-19.42022,1.16511 -37.09444,-9.6619 -37.09444,-9.6619c0,0 -4.92662,1.15966 -8.50277,-0.80208c-4.49916,-2.46803 -9.17581,-12.89845 -7.30255,-22.56218c0.74747,-3.85595 7.86914,-4.61756 7.86914,-4.61756z" fill="url(#color-1)" stroke="#174752" stroke-width="0.5" stroke-linecap="round"/><path d="M279.18221,183.78795l2.04602,-14.65788c0,0 5.11907,-1.39542 5.76261,1.30703c0.64361,2.70245 0.10525,8.63851 -2.38133,12.88992c-2.48658,4.25144 -5.42733,0.46093 -5.42733,0.46093z" data-paper-data="{&quot;index&quot;:null}" fill="#df9431" stroke="#1743af" stroke-width="0.25" stroke-linecap="round"/><path d="M200.72371,186.2797c0,0 -2.84001,3.64492 -5.02169,-0.71579c-2.18171,-4.36067 -2.50624,-10.31111 -1.82953,-12.97828c0.6767,-2.66714 5.38477,-1.03316 5.38477,-1.03316l1.46635,14.72716z" data-paper-data="{&quot;index&quot;:null}" fill="#df9431" stroke="#1743af" stroke-width="0.25" stroke-linecap="round"/><path d="M277.35225,187.51637c0,0 -7.96807,15.43941 -36.79999,16.11843c-27.16756,0.6398 -40.02886,-18.29218 -40.02886,-18.29218l-0.01351,-13.20937c0,0 0.59141,-5.99853 12.79606,-6.33415c12.77693,-0.35132 27.8738,16.17813 27.8738,16.17813c0,0 16.91309,-16.93819 28.21656,-18.50481c4.1792,-0.57927 10.51284,2.52227 10.51284,2.52227z" fill="#df9431" stroke="#34418a" stroke-width="0.5" stroke-linecap="round"/><path d="M197.21189,197.94026c1.5772,-3.41318 6.43413,3.04323 6.43413,3.04323c0,0 4.83255,-6.01183 5.99943,-3.60435c5.2553,6.16897 -6.16857,9.10733 -6.16857,9.10733c0,0 -9.15286,-1.84454 -6.26496,-8.54613z" fill="#fec200" stroke="#8a8a8a" stroke-width="0" stroke-linecap="round"/><path d="M204.18295,235.62491l0.17755,8.12346" fill="none" stroke="#8a8a8a" stroke-width="0.4" stroke-linecap="round"/><path d="M209.19912,226.76269c-0.07591,8.20102 -4.55408,10.93607 -4.55408,10.93607c0,0 -4.51532,-0.14232 -5.23582,-10.72208c-1.00457,-14.75249 4.37996,-28.43731 4.37996,-28.43731c0,0 5.51078,17.32841 5.40993,28.22332z" fill="#020102" stroke="#602a0d" stroke-width="0" stroke-linecap="round"/><path d="M204.17896,236.47569l-0.28597,-36.09345c0,0 4.47977,15.52356 4.56052,25.71572c0.08075,10.19216 -4.27455,10.37772 -4.27455,10.37772z" fill="url(#color-2)" stroke="#000000" stroke-width="0" stroke-linecap="round"/><path d="M231.7871,195.40556c-2.98319,5.3653 -10.82763,6.69789 -17.52102,2.97631c-6.69339,-3.72165 -9.70115,-11.08801 -6.71788,-16.45341c2.98319,-5.3653 10.82762,-6.69789 17.52101,-2.97631c6.69339,3.72165 9.70116,11.08804 6.71789,16.45341z" fill="#ffffff" stroke="#954116" stroke-width="0" stroke-linecap="butt"/><path d="M229.19255,191.32094c0.06772,3.09912 -1.89706,5.65559 -4.3885,5.71006c-2.49146,0.05444 -4.56611,-2.41373 -4.63383,-5.51286c-0.06772,-3.09912 1.89704,-5.65559 4.3885,-5.71003c2.49146,-0.05444 4.56611,2.41373 4.63383,5.51286z" fill="#3d0a00" stroke="none" stroke-width="0" stroke-linecap="butt"/><path d="M255.65267,178.06365c6.52442,-4.01048 14.41957,-3.02197 17.63431,2.20791c3.21478,5.22985 0.53178,12.72064 -5.99268,16.73112c-6.52442,4.01048 -14.4196,3.02201 -17.63434,-2.20784c-3.21478,-5.22985 -0.53178,-12.72071 5.99267,-16.73122z" data-paper-data="{&quot;index&quot;:null}" fill="#ffffff" stroke="#954116" stroke-width="0" stroke-linecap="butt"/><path d="M256.46212,184.89068c2.49146,-0.05444 4.56611,2.41373 4.63383,5.51286c0.06772,3.09912 -1.89707,5.6556 -4.38853,5.71007c-2.49146,0.05444 -4.56611,-2.41374 -4.63383,-5.51286c-0.06772,-3.09912 1.89711,-5.65558 4.38853,-5.71002z" data-paper-data="{&quot;index&quot;:null}" fill="#3d0a00" stroke="none" stroke-width="0" stroke-linecap="butt"/><path d="M282.24521,222.02741l-11.46762,6.13155l-0.80633,-2.92391l1.01711,-4.26885l-4.41913,-2.30115l-1.86423,-4.52661l3.42848,0.97348l1.75366,-3.7077l3.68475,0.70582l2.27184,-3.98111l3.14369,-0.0687z" fill="#df9431" stroke="#692206" stroke-width="0" stroke-linecap="round"/><path d="M211.0232,221.22699l-2.39667,3.28601l-2.10709,-1.07933l1.91591,-7.7029" data-paper-data="{&quot;index&quot;:null}" fill="#df9431" stroke="#c5832b" stroke-width="0" stroke-linecap="round"/><path d="M200.95698,214.19208l5.98962,0.16025" fill="none" stroke="#000000" stroke-width="0.4" stroke-linecap="round"/><path d="M205.82717,208.18576l-2.9948,-0.08012" fill="none" stroke="#000000" stroke-width="0.4" stroke-linecap="round"/></g></g></svg>