<svg version="1.1" xmlns="http://www.w3.org/2000/svg" xmlns:xlink="http://www.w3.org/1999/xlink" width="129.31482" height="292.05863" viewBox="0,0,129.31482,292.05863"><defs><linearGradient x1="291.31885" y1="195.54594" x2="265.50111" y2="201.88137" gradientUnits="userSpaceOnUse" id="color-1"><stop offset="0" stop-color="#07a9f7"/><stop offset="1" stop-color="#24cdfd"/></linearGradient><linearGradient x1="247.35361" y1="212.05511" x2="257.55633" y2="253.63253" gradientUnits="userSpaceOnUse" id="color-2"><stop offset="0" stop-color="#24d1fd"/><stop offset="1" stop-color="#04a7f7"/></linearGradient><linearGradient x1="215.54553" y1="170.90442" x2="208.22309" y2="169.98194" gradientUnits="userSpaceOnUse" id="color-3"><stop offset="0" stop-color="#00c5ff" stop-opacity="0"/><stop offset="1" stop-color="#00c5ff"/></linearGradient><linearGradient x1="187.4523" y1="161.79065" x2="200.2538" y2="213.9585" gradientUnits="userSpaceOnUse" id="color-4"><stop offset="0" stop-color="#0cbdf7"/><stop offset="1" stop-color="#007edf"/></linearGradient><linearGradient x1="257.94021" y1="141.72188" x2="259.29319" y2="180.254" gradientUnits="userSpaceOnUse" id="color-5"><stop offset="0" stop-color="#008add"/><stop offset="1" stop-color="#2d9ade"/></linearGradient><linearGradient x1="245.75285" y1="159.6146" x2="246.05398" y2="168.1909" gradientUnits="userSpaceOnUse" id="color-6"><stop offset="0" stop-color="#459ece"/><stop offset="1" stop-color="#2dc9f4"/></linearGradient><linearGradient x1="274.56802" y1="158.66545" x2="274.86915" y2="167.24183" gradientUnits="userSpaceOnUse" id="color-7"><stop offset="0" stop-color="#459ece"/><stop offset="1" stop-color="#2dc9f4"/></linearGradient><linearGradient x1="249.22202" y1="101.9609" x2="261.15218" y2="150.57788" gradientUnits="userSpaceOnUse" id="color-8"><stop offset="0" stop-color="#00a1ee"/><stop offset="1" stop-color="#00c8fd"/></linearGradient><linearGradient x1="281.69102" y1="89.17091" x2="273.3909" y2="88.54986" gradientUnits="userSpaceOnUse" id="color-9"><stop offset="0" stop-color="#93eaff"/><stop offset="1" stop-color="#93eaff" stop-opacity="0"/></linearGradient><linearGradient x1="302.62283" y1="108.78789" x2="294.45565" y2="108.1768" gradientUnits="userSpaceOnUse" id="color-10"><stop offset="0" stop-color="#93eaff"/><stop offset="1" stop-color="#93eaff" stop-opacity="0"/></linearGradient><linearGradient x1="270.65754" y1="89.05655" x2="262.35745" y2="88.4355" gradientUnits="userSpaceOnUse" id="color-11"><stop offset="0" stop-color="#93eaff"/><stop offset="1" stop-color="#93eaff" stop-opacity="0"/></linearGradient><linearGradient x1="295.98348" y1="107.03087" x2="287.8163" y2="106.41974" gradientUnits="userSpaceOnUse" id="color-12"><stop offset="0" stop-color="#93eaff"/><stop offset="1" stop-color="#93eaff" stop-opacity="0"/></linearGradient><linearGradient x1="212.73384" y1="285.51562" x2="217.76301" y2="306.01011" gradientUnits="userSpaceOnUse" id="color-13"><stop offset="0" stop-color="#0085e0"/><stop offset="1" stop-color="#16bdf7"/></linearGradient><linearGradient x1="201.59034" y1="212.33044" x2="182.95897" y2="216.90242" gradientUnits="userSpaceOnUse" id="color-14"><stop offset="0" stop-color="#c7f3ff"/><stop offset="1" stop-color="#00a0ee"/></linearGradient><linearGradient x1="215.36063" y1="241.48641" x2="222.14235" y2="269.12293" gradientUnits="userSpaceOnUse" id="color-15"><stop offset="0" stop-color="#32ccfc"/><stop offset="1" stop-color="#0087e2"/></linearGradient><linearGradient x1="193.9517" y1="242.78929" x2="200.88585" y2="271.04685" gradientUnits="userSpaceOnUse" id="color-16"><stop offset="0" stop-color="#32ccfc"/><stop offset="1" stop-color="#0087e2"/></linearGradient><linearGradient x1="234.11293" y1="244.7861" x2="241.19947" y2="273.66471" gradientUnits="userSpaceOnUse" id="color-17"><stop offset="0" stop-color="#32ccfc"/><stop offset="1" stop-color="#0087e2"/></linearGradient><linearGradient x1="185.47133" y1="249.15016" x2="192.3293" y2="277.09722" gradientUnits="userSpaceOnUse" id="color-18"><stop offset="0" stop-color="#32ccfc"/><stop offset="1" stop-color="#0087e2"/></linearGradient><linearGradient x1="218.38505" y1="240.74425" x2="220.3252" y2="248.65057" gradientUnits="userSpaceOnUse" id="color-19"><stop offset="0" stop-color="#fcfcfc"/><stop offset="1" stop-color="#fcfcfc" stop-opacity="0"/></linearGradient><linearGradient x1="198.33114" y1="241.71464" x2="200.55684" y2="250.78463" gradientUnits="userSpaceOnUse" id="color-20"><stop offset="0" stop-color="#fcfcfc"/><stop offset="1" stop-color="#fcfcfc" stop-opacity="0"/></linearGradient><linearGradient x1="238.24892" y1="243.77116" x2="239.15252" y2="247.45326" gradientUnits="userSpaceOnUse" id="color-21"><stop offset="0" stop-color="#fcfcfc"/><stop offset="1" stop-color="#fcfcfc" stop-opacity="0"/></linearGradient><linearGradient x1="187.99839" y1="248.53004" x2="189.54703" y2="254.84096" gradientUnits="userSpaceOnUse" id="color-22"><stop offset="0" stop-color="#fcfcfc"/><stop offset="1" stop-color="#fcfcfc" stop-opacity="0"/></linearGradient><linearGradient x1="291.31885" y1="195.54594" x2="265.50111" y2="201.88137" gradientUnits="userSpaceOnUse" id="color-23"><stop offset="0" stop-color="#07a9f7"/><stop offset="1" stop-color="#24cdfd"/></linearGradient><linearGradient x1="247.35361" y1="212.05511" x2="257.55633" y2="253.63253" gradientUnits="userSpaceOnUse" id="color-24"><stop offset="0" stop-color="#24d1fd"/><stop offset="1" stop-color="#04a7f7"/></linearGradient><linearGradient x1="215.54553" y1="170.90442" x2="208.22309" y2="169.9819" gradientUnits="userSpaceOnUse" id="color-25"><stop offset="0" stop-color="#00c5ff" stop-opacity="0"/><stop offset="1" stop-color="#00c5ff"/></linearGradient><linearGradient x1="187.45233" y1="161.79062" x2="200.2538" y2="213.9585" gradientUnits="userSpaceOnUse" id="color-26"><stop offset="0" stop-color="#0cbdf7"/><stop offset="1" stop-color="#007edf"/></linearGradient><linearGradient x1="257.94021" y1="141.72188" x2="259.29319" y2="180.254" gradientUnits="userSpaceOnUse" id="color-27"><stop offset="0" stop-color="#008add"/><stop offset="1" stop-color="#2d9ade"/></linearGradient><linearGradient x1="245.75285" y1="159.6146" x2="246.05402" y2="168.19086" gradientUnits="userSpaceOnUse" id="color-28"><stop offset="0" stop-color="#459ece"/><stop offset="1" stop-color="#2dc9f4"/></linearGradient><linearGradient x1="274.56802" y1="158.66541" x2="274.86915" y2="167.24183" gradientUnits="userSpaceOnUse" id="color-29"><stop offset="0" stop-color="#459ece"/><stop offset="1" stop-color="#2dc9f4"/></linearGradient><linearGradient x1="249.22207" y1="101.9609" x2="261.15218" y2="150.57788" gradientUnits="userSpaceOnUse" id="color-30"><stop offset="0" stop-color="#00a1ee"/><stop offset="1" stop-color="#00c8fd"/></linearGradient><linearGradient x1="281.69102" y1="89.17091" x2="273.3909" y2="88.54986" gradientUnits="userSpaceOnUse" id="color-31"><stop offset="0" stop-color="#93eaff"/><stop offset="1" stop-color="#93eaff" stop-opacity="0"/></linearGradient><linearGradient x1="302.62283" y1="108.78789" x2="294.45565" y2="108.1768" gradientUnits="userSpaceOnUse" id="color-32"><stop offset="0" stop-color="#93eaff"/><stop offset="1" stop-color="#93eaff" stop-opacity="0"/></linearGradient><linearGradient x1="270.65754" y1="89.05655" x2="262.35745" y2="88.4355" gradientUnits="userSpaceOnUse" id="color-33"><stop offset="0" stop-color="#93eaff"/><stop offset="1" stop-color="#93eaff" stop-opacity="0"/></linearGradient><linearGradient x1="295.98348" y1="107.03083" x2="287.8163" y2="106.41974" gradientUnits="userSpaceOnUse" id="color-34"><stop offset="0" stop-color="#93eaff"/><stop offset="1" stop-color="#93eaff" stop-opacity="0"/></linearGradient><linearGradient x1="212.73384" y1="285.51562" x2="217.76301" y2="306.01015" gradientUnits="userSpaceOnUse" id="color-35"><stop offset="0" stop-color="#0085e0"/><stop offset="1" stop-color="#16bdf7"/></linearGradient><linearGradient x1="201.59034" y1="212.33044" x2="182.95897" y2="216.90238" gradientUnits="userSpaceOnUse" id="color-36"><stop offset="0" stop-color="#c7f3ff"/><stop offset="1" stop-color="#00a0ee"/></linearGradient><linearGradient x1="215.36063" y1="241.48641" x2="222.14239" y2="269.1229" gradientUnits="userSpaceOnUse" id="color-37"><stop offset="0" stop-color="#32ccfc"/><stop offset="1" stop-color="#0087e2"/></linearGradient><linearGradient x1="193.95174" y1="242.78929" x2="200.88585" y2="271.04685" gradientUnits="userSpaceOnUse" id="color-38"><stop offset="0" stop-color="#32ccfc"/><stop offset="1" stop-color="#0087e2"/></linearGradient><linearGradient x1="234.11293" y1="244.7861" x2="241.19947" y2="273.66471" gradientUnits="userSpaceOnUse" id="color-39"><stop offset="0" stop-color="#32ccfc"/><stop offset="1" stop-color="#0087e2"/></linearGradient><linearGradient x1="185.47137" y1="249.15016" x2="192.3293" y2="277.09722" gradientUnits="userSpaceOnUse" id="color-40"><stop offset="0" stop-color="#32ccfc"/><stop offset="1" stop-color="#0087e2"/></linearGradient><linearGradient x1="218.38505" y1="240.74421" x2="220.3252" y2="248.65057" gradientUnits="userSpaceOnUse" id="color-41"><stop offset="0" stop-color="#fcfcfc"/><stop offset="1" stop-color="#fcfcfc" stop-opacity="0"/></linearGradient><linearGradient x1="198.33114" y1="241.7146" x2="200.55684" y2="250.78463" gradientUnits="userSpaceOnUse" id="color-42"><stop offset="0" stop-color="#fcfcfc"/><stop offset="1" stop-color="#fcfcfc" stop-opacity="0"/></linearGradient><linearGradient x1="238.24896" y1="243.77112" x2="239.15252" y2="247.45326" gradientUnits="userSpaceOnUse" id="color-43"><stop offset="0" stop-color="#fcfcfc"/><stop offset="1" stop-color="#fcfcfc" stop-opacity="0"/></linearGradient><linearGradient x1="187.99839" y1="248.53004" x2="189.54703" y2="254.84092" gradientUnits="userSpaceOnUse" id="color-44"><stop offset="0" stop-color="#fcfcfc"/><stop offset="1" stop-color="#fcfcfc" stop-opacity="0"/></linearGradient></defs><g transform="translate(-175.7516,-56.34214)"><g data-paper-data="{&quot;isPaintingLayer&quot;:true}" fill-rule="nonzero" stroke-linejoin="miter" stroke-miterlimit="10" stroke-dasharray="" stroke-dashoffset="0" style="mix-blend-mode: normal"><path d="M275.875,193.19841c0,7.35573 -13.38626,-0.48197 -17.24818,4.35391c-3.89455,4.87675 1.71022,22.39609 -4.25182,22.39609c-11.87412,0 -21.5,-11.97638 -21.5,-26.75c0,-14.77362 9.62588,-26.75 21.5,-26.75c11.87412,0 21.5,11.97638 21.5,26.75z" fill="#c7f3ff" stroke="none" stroke-width="0" stroke-linecap="butt"/><path d="M276.58941,185.54476l14.45189,8.87001l-1.76121,15.24716l-13.80041,1.83441l-10.15816,-10.34692l-1.10686,-15.19467z" fill="url(#color-1)" stroke="#0c60a7" stroke-width="1.25" stroke-linecap="round"/><path d="M272.36247,176.21697l2.4517,9.41611l-4.10266,3.40534l-5.29136,-6.03849z" fill="#d7ecff" stroke="#0c60a7" stroke-width="1.25" stroke-linecap="round"/><path d="M276.06523,177.66979l-0.14067,8.09393l-5.87311,4.11189l-4.55767,-3.50391l1.61021,-3.06583l2.38223,3.01054l3.10389,-1.58339l0.44429,-6.58207z" fill="#01adf2" stroke="#0c60a7" stroke-width="1.25" stroke-linecap="round"/><path d="M274.63777,177.7735l-0.60331,7.57622l-4.07647,2.69217l-2.60017,-2.32268" fill="none" stroke="#0c60a7" stroke-width="1.25" stroke-linecap="round"/><path d="M269.71649,196.59662l-1.38061,4.14838l-10.52324,4.83983l-7.43463,5.35177l-3.04199,-11.24658l6.1789,-7.01895z" fill="#1d8cc1" stroke="#0c60a7" stroke-width="1.25" stroke-linecap="round"/><path d="M250.61081,216.51086c-2.35194,0.57715 -4.79957,-1.15956 -5.4669,-3.87896c-0.66733,-2.71944 0.69828,-5.39186 3.05029,-5.969c2.35194,-0.57715 4.79962,1.15948 5.46695,3.87896c0.66733,2.71944 -0.69833,5.39186 -3.0503,5.96901z" fill="#28d4ff" stroke="#0c60a7" stroke-width="1.25" stroke-linecap="butt"/><path d="M245.49678,256.17597l-1.28106,-43.35084l17.94062,7.86537l1.68441,6.86418l-11.42441,25.46776l-4.07765,2.87196z" fill="url(#color-2)" stroke="#0c60a7" stroke-width="1.25" stroke-linecap="round"/><path d="M249.71499,213.14771l10.1358,-16.1934l7.45916,-1.80184l-14.8855,25.01178z" fill="#d4ebff" stroke="#0c60a7" stroke-width="1.25" stroke-linecap="round"/><path d="M266.53972,195.46355l-3.93442,25.36535l-10.25057,-0.94875z" fill="#eff7ff" stroke="#0c60a7" stroke-width="1.25" stroke-linecap="round"/><path d="M247.58089,227.38612l11.04279,6.02326l-7.65843,15.39471l-4.98839,-1.68688z" fill="#18bffd" stroke="#0c60a7" stroke-width="1.25" stroke-linecap="round"/><path d="M245.6186,172.16704l3.63227,103.39497l-58.1094,-6.19233l4.85491,-39.01805l-7.35938,-13.8653l9.30793,-1.79479l10.00175,-80.38179l5.54864,-7.28756l10.5959,-6.2686l6.31763,-0.70374z" fill="#00a9f7" stroke="#0c60a7" stroke-width="1.25" stroke-linecap="round"/><path d="M218.41565,125.32032l-8.26006,88.36732l-6.0103,1.72624l9.39292,-87.62109z" fill="url(#color-3)" stroke="#0c60a7" stroke-width="1.25" stroke-linecap="round"/><path d="M242.18798,226.62806l-0.34428,-20.72236l3.97013,0.07928l2.07402,22.40488z" fill="#0092e8" stroke="#0c60a7" stroke-width="1.25" stroke-linecap="round"/><path d="M252.43584,195.4052l0.90527,5.83552l-2.9719,-1.37772l0.2255,5.21218l1.72519,2.73718l-12.53829,1.49651l-1.10784,-16.32089z" fill="#eef6ff" stroke="#0c60a7" stroke-width="1.25" stroke-linecap="round"/><path d="M248.42127,275.88892l-0.07513,1.99374l-9.64715,2.08513l-43.53136,-1.45202l-7.30232,-2.15875l0.03436,-7.90976l20.49453,-5.02912l13.16765,-1.53809l12.08343,3.24305z" fill="#0085e3" stroke="#0c60a7" stroke-width="1.25" stroke-linecap="round"/><path d="M193.44414,273.79266l-4.98198,-0.75277l3.13849,-3.30984l9.98355,-3.01425l8.24124,0.23522l8.84373,-0.75923l7.18151,-0.63353l6.37319,1.82239l5.64003,2.28445l4.89701,5.0065l-29.22612,71.79331z" fill="#fdffff" stroke="#0c60a7" stroke-width="1.25" stroke-linecap="round"/><path d="M210.3295,334.55282l-13.01862,-63.40216l4.65537,-0.57804l13.89222,61.21251z" fill="#a3feff" stroke="#0c60a7" stroke-width="1.25" stroke-linecap="round"/><path d="M224.7759,314.07642l-4.0525,-46.41345l1.72759,0.14046l4.99142,44.48992z" fill="#a3feff" stroke="#0c60a7" stroke-width="1.25" stroke-linecap="round"/><path d="M237.93072,284.88689l-2.33169,-14.10169l1.72759,0.14042l1.67363,12.57005z" fill="#a3feff" stroke="#0c60a7" stroke-width="1.25" stroke-linecap="round"/><path d="M204.77855,212.84823l-14.26328,-6.37659l-13.4222,-31.69787l4.2375,-11.48084l15.66434,5.18615l13.94463,33.82719z" fill="url(#color-4)" stroke="#0c60a7" stroke-width="1.25" stroke-linecap="round"/><path d="M239.57314,193.80783l0.37034,37.15816" fill="none" stroke="#0c60a7" stroke-width="1.25" stroke-linecap="round"/><path d="M205.09564,208.81976l-12.13396,-6.89909l-3.22491,-7.39217l-4.7109,-1.94813l-1.56753,-6.38788l2.06887,-1.91866l8.91063,14.46262l11.73723,6.43207z" fill="#01d0ff" stroke="#0c60a7" stroke-width="1.25" stroke-linecap="round"/><path d="M197.8544,175.34563l-14.95074,-5.31001l-0.49059,15.56389l-5.96444,-9.67005l4.44749,-11.1476l15.20641,4.88814z" fill="#c7f3ff" stroke="#0c60a7" stroke-width="1.25" stroke-linecap="round"/><path d="M197.20492,202.5725l-5.65474,1.10543l-2.29087,-8.18571l6.17229,2.15383z" fill="#ffffff" stroke="#0c60a7" stroke-width="1.25" stroke-linecap="round"/><path d="M278.67281,141.03569c4.37474,0.15717 19.24345,-1.67102 19.24345,-1.67102c0,0 -5.92764,11.96307 -6.69048,17.7763c-2.00197,15.25565 -19.96294,18.09122 -19.96294,18.09122c0,0 -1.37479,3.06056 -3.06187,4.15957c-1.3295,0.86606 -13.90125,1.07687 -15.84523,0.72522c-1.94398,-0.35164 -3.85193,-3.91681 -3.85193,-3.91681c0,0 -18.40518,0.53211 -22.74765,-17.94222c-0.8262,-3.51505 -3.83245,-15.85729 -3.83245,-15.85729c0,0 9.67606,-0.10373 15.77221,0.07385c12.7211,0.37061 30.63738,-0.73805 40.97689,-1.43877z" fill="url(#color-5)" stroke="#0c60a7" stroke-width="1.25" stroke-linecap="round"/><path d="M248.87678,152.85005c4.84855,4.95944 5.42392,12.26009 1.28506,16.30635c-4.13883,4.0463 -11.42459,3.30601 -16.27318,-1.65351c-4.84856,-4.95944 -5.42384,-12.26012 -1.28498,-16.30634c4.13883,-4.0463 11.42451,-3.30601 16.2731,1.65355z" fill="#fafaf9" stroke="#0c60a7" stroke-width="1.25" stroke-linecap="butt"/><path d="M286.92571,149.35188c4.41242,3.746 4.35057,11.06901 -0.13818,16.35634c-4.48876,5.28729 -11.70464,6.53681 -16.11706,2.79077c-4.41242,-3.746 -4.35062,-11.06901 0.13814,-16.3563c4.48876,-5.28729 11.70464,-6.53681 16.1171,-2.79081z" data-paper-data="{&quot;index&quot;:null}" fill="#fafaf9" stroke="#0c60a7" stroke-width="1.25" stroke-linecap="butt"/><path d="M248.82807,163.49602c0.32733,2.35368 -0.71677,4.44376 -2.33203,4.66842c-1.61527,0.22462 -3.18999,-1.50132 -3.51736,-3.85495c-0.32733,-2.35368 0.7168,-4.44371 2.33203,-4.66837c1.61527,-0.22462 3.18999,1.50132 3.51732,3.85495z" fill="url(#color-6)" stroke="#0c60a7" stroke-width="1.25" stroke-linecap="butt"/><path d="M275.01094,158.66089c1.62705,0.11079 2.81516,2.12256 2.65369,4.49337c-0.16147,2.37085 -1.61125,4.20299 -3.23829,4.09216c-1.62705,-0.11079 -2.8152,-2.12252 -2.65373,-4.49337c0.16147,-2.37085 1.61129,-4.20302 3.23834,-4.0922z" data-paper-data="{&quot;index&quot;:null}" fill="url(#color-7)" stroke="#0c60a7" stroke-width="1.25" stroke-linecap="butt"/><path d="M226.77818,143.38073l-0.21307,15.23116l4.55996,10.1092l19.66122,6.40353l1.35474,3.82613l17.63635,-1.00091l-0.30446,-3.89265l19.03448,-7.16606l3.82144,-11.54214l0.4284,-8.42227l-0.16358,-7.44533l3.72267,-0.08181l0.12739,15.77143l-6.18207,13.78481l-17.7615,7.26953l-1.19113,3.61919l-21.03593,1.21135l-0.67017,-3.57827l-19.36157,-7.7246l-7.63531,-12.4735l2.36315,-14.09529z" fill="#0077d7" stroke="#0c60a7" stroke-width="1.25" stroke-linecap="round"/><path d="M272.52092,180.47532l-23.28562,0.93169l-18.60667,-6.69457l-9.73384,-10.50303l-4.13849,-17.69816l-0.91263,-7.88529l9.30324,2.91533l-2.22443,15.93262l7.46735,12.09887l19.52145,7.89327l0.81854,2.50225l20.14279,-1.29711l1.06197,-3.17166l16.79589,-7.2728l7.81585,-13.97783l-1.00601,-14.93199l5.20677,-0.446l-0.82486,12.47025l-1.9311,6.29588l-5.11409,9.15626l-3.52095,3.983l-4.58192,4.65915l-11.61999,3.47519z" fill="#00c5fa" stroke="#0c60a7" stroke-width="1.25" stroke-linecap="round"/><path d="M216.75821,124.69015l2.09725,-9.24763l5.26519,-5.65852l5.10632,-2.91651l3.81526,1.14308l18.37355,1.17004l22.60551,-6.17096l9.98404,1.70861l12.98999,12.37479l3.48317,9.95761l1.74768,11.9926l-5.73194,0.36693l-14.65367,2.14033l-11.44114,6.75824l-17.84593,1.88406l-13.43715,-7.30707l-24.97817,-0.10852z" fill="url(#color-8)" stroke="#0c60a7" stroke-width="1.25" stroke-linecap="round"/><path d="M264.84324,124.65222l-3.53744,14.56367l-12.32931,-18.04467l6.33242,-1.02716l4.60859,10.19434l2.0758,-6.56705z" fill="#51e0fc" stroke="#0c60a7" stroke-width="1.25" stroke-linecap="round"/><path d="M282.89032,120.91909l-11.02803,10.87085l-0.80302,-15.07881l3.22484,0.26215l-1.53175,9.85745l6.73934,-9.02832z" fill="#3becff" stroke="#0c60a7" stroke-width="1.25" stroke-linecap="round"/><path d="M237.89969,116.7858c1.02155,-0.9757 3.39211,-0.15188 5.29483,1.84015c1.90272,1.99203 2.61706,4.39789 1.59551,5.37363c-1.02155,0.97574 -3.39215,0.15187 -5.29487,-1.84011c-1.90272,-1.99203 -2.61706,-4.39789 -1.59552,-5.37363z" fill="#0292e0" stroke="#0c60a7" stroke-width="1.25" stroke-linecap="butt"/><path d="M238.88059,109.2772l6.52582,11.56749l-11.76555,-5.01416z" fill="#4bdaf9" stroke="#0c60a7" stroke-width="1.25" stroke-linecap="round"/><path d="M283.43739,82.70952l-3.76891,26.03978l-12.97174,2.33656l-14.10811,-11.49405l2.54911,-20.66103l17.04266,-21.39568z" fill="#008de5" stroke="#0c60a7" stroke-width="1.25" stroke-linecap="round"/><path d="M300.36722,87.30298l4.03967,18.76198l-7.37099,13.66073l-15.63491,-11.96595l3.56957,-10.75258z" fill="#008de5" stroke="#0c60a7" stroke-width="1.25" stroke-linecap="round"/><path d="M278.2397,82.29426l-6.31763,0.70374l-14.41353,-2.38902" fill="none" stroke="#0c60a7" stroke-width="1.25" stroke-linecap="round"/><path d="M286.60822,99.14746l9.09524,2.56533l5.90614,2.21913" fill="none" stroke="#0c60a7" stroke-width="1.25" stroke-linecap="round"/><path d="M282.21477,82.17107l-2.76334,20.07066l-7.21087,1.68288l5.59914,-30.50263z" fill="url(#color-9)" stroke="#0c60a7" stroke-width="1.25" stroke-linecap="round"/><path d="M301.85339,98.97177l1.05786,5.96099l-4.90287,13.26844l-4.11032,-2.57175z" fill="url(#color-10)" stroke="#0c60a7" stroke-width="1.25" stroke-linecap="round"/><path d="M271.18127,82.05666l-2.76329,20.07066l-7.21088,1.68288l5.59915,-30.50263z" fill="url(#color-11)" stroke="#0c60a7" stroke-width="1.25" stroke-linecap="round"/><path d="M295.21404,97.21471l1.05787,5.96103l-4.90287,13.2684l-4.11032,-2.57175z" fill="url(#color-12)" stroke="#0c60a7" stroke-width="1.25" stroke-linecap="round"/><path d="M232.16784,116.0361l-7.2954,-20.07007l3.42783,-32.18305l25.68433,28.46308l-0.91755,11.28703l-12.5185,11.23663z" fill="#3dffff" stroke="#0c60a7" stroke-width="1.25" stroke-linecap="round"/><path d="M248.34396,119.70459l-0.17514,-16.81321l8.55295,-12.3705l11.12387,9.91241l2.50532,23.08916z" fill="#3dffff" stroke="#0c60a7" stroke-width="1.25" stroke-linecap="round"/><path d="M273.96909,106.04184l12.9924,-6.08539l3.61036,11.49282l-4.70478,11.95296l-15.53444,-8.5667z" fill="#3dffff" stroke="#0c60a7" stroke-width="1.25" stroke-linecap="round"/><path d="M250.95651,150.08008l10.39321,-13.57067l7.83146,12.42537l-7.88822,11.91631z" fill="#3dffff" stroke="#0c60a7" stroke-width="1.25" stroke-linecap="round"/><path d="M221.51467,130.77116l3.60363,-6.4984l5.79822,-4.33384" fill="none" stroke="#0c60a7" stroke-width="1.25" stroke-linecap="round"/><path d="M229.72789,170.47642l-7.43558,-13.35422l1.86203,-13.89924l-3.66117,-14.07252l-0.40781,-7.59327l2.8263,-7.97111l5.10635,-2.91647" fill="none" stroke="#0c60a7" stroke-width="1.25" stroke-linecap="round"/><path d="M241.01412,131.73505l-1.87941,4.20393l-0.02532,5.82823l-15.18303,-0.01695" fill="none" stroke="#0c60a7" stroke-width="1.25" stroke-linecap="round"/><path d="M239.15753,141.96337l13.87753,7.40691l2.68672,1.62793l5.33972,-0.27063l6.41659,-0.11907l12.73961,-9.36406l5.199,-1.69162l5.03692,0.36276l6.71258,-0.60754l-0.71352,6.41297l1.83239,6.6199l-7.61026,15.59089" fill="none" stroke="#0c60a7" stroke-width="1.25" stroke-linecap="round"/><path d="M296.75365,121.52731l1.007,4.95109l-0.58366,10.33178" fill="none" stroke="#0c60a7" stroke-width="1.25" stroke-linecap="round"/><path d="M297.41652,126.77077l-5.26269,-6.19405" fill="none" stroke="#0c60a7" stroke-width="1.25" stroke-linecap="round"/><path d="M281.79299,140.49747l-0.16354,-7.44533" fill="none" stroke="#0c60a7" stroke-width="1.25" stroke-linecap="round"/><path d="M256.1728,141.58616l-4.24366,7.27925" fill="none" stroke="#0c60a7" stroke-width="1.25" stroke-linecap="round"/><path d="M265.09087,140.64537l5.35533,7.41886" fill="none" stroke="#0c60a7" stroke-width="1.25" stroke-linecap="round"/><path d="M261.29434,137.97851l-0.35021,12.97758" fill="none" stroke="#0c60a7" stroke-width="1.25" stroke-linecap="round"/><path d="M249.39422,105.03727l12.66017,-0.99968l5.82638,1.20403" fill="none" stroke="#0c60a7" stroke-width="1.25" stroke-linecap="round"/><path d="M232.13827,301.91818c0,0 -0.84418,-7.58154 -16.17095,-7.9172c-12.59749,-0.27588 -20.58555,7.62465 -20.58555,7.62465l-8.48284,-5.81968l9.1998,-6.20819c0,0 3.65423,-2.51673 5.91845,-2.74742c2.3227,-0.23668 7.84683,1.34486 7.84683,1.34486c0,0 7.56533,-2.3132 10.86076,-2.10777c2.69771,0.16816 7.55014,2.38714 7.55014,2.38714c0,0 4.47305,1.20429 6.83981,1.84145c2.5541,0.68761 7.89542,3.00833 7.89542,3.00833l-2.22405,7.03613l-8.64785,1.55773z" fill="url(#color-13)" stroke="#0c60a7" stroke-width="1.25" stroke-linecap="round"/><path d="M236.49616,117.94731l-3.57689,-4.9166" fill="none" stroke="#0c60a7" stroke-width="1.25" stroke-linecap="round"/><path d="M240.55929,110.89253l4.41057,-1.34571l6.44653,15.53759" fill="none" stroke="#0c60a7" stroke-width="1.25" stroke-linecap="round"/><path d="M277.11944,106.3985l11.32508,6.43914" fill="none" stroke="#0c60a7" stroke-width="1.25" stroke-linecap="round"/><path d="M284.37221,122.00161c-1.37198,0.33665 -2.94816,-1.28116 -3.5205,-3.61353c-0.57234,-2.33237 0.07594,-4.49605 1.44792,-4.83269c1.37198,-0.33665 2.94815,1.28117 3.52049,3.6135c0.57234,2.33237 -0.07594,4.49608 -1.44791,4.83273z" fill="#ffffff" stroke="#0c60a7" stroke-width="1.25" stroke-linecap="butt"/><path d="M291.39804,118.43386c-0.96039,0.23565 -2.03916,-0.79672 -2.40951,-2.30592c-0.37035,-1.5092 0.10796,-2.92366 1.06839,-3.15931c0.96039,-0.23565 2.03915,0.79669 2.4095,2.30585c0.37035,1.5092 -0.10796,2.9237 -1.06839,3.15935z" fill="#ffffff" stroke="#0c60a7" stroke-width="1.25" stroke-linecap="butt"/><path d="M245.26092,113.95284c-2.33237,0.57234 -4.55064,-0.29833 -4.95465,-1.9447c-0.40401,-1.64638 1.15925,-3.44498 3.49162,-4.01736c2.33237,-0.57233 4.5506,0.29832 4.95461,1.9447c0.40401,1.64638 -1.1592,3.44499 -3.49157,4.01736z" fill="#ffffff" stroke="#0c60a7" stroke-width="1.25" stroke-linecap="butt"/><path d="M236.82162,119.01074c-0.84372,0.51577 -2.36393,-0.43409 -3.39545,-2.12152c-1.03152,-1.68743 -1.18377,-3.47349 -0.34006,-3.98923c0.84372,-0.51578 2.36393,0.43404 3.39545,2.12148c1.03152,1.68743 1.18377,3.47353 0.34006,3.98927z" fill="#ffffff" stroke="#0c60a7" stroke-width="1.25" stroke-linecap="butt"/><path d="M239.66504,94.90537c-1.85216,0.45449 -3.64023,-0.34483 -3.99373,-1.78543c-0.3535,-1.44061 0.86144,-2.97684 2.71359,-3.43133c1.85216,-0.45449 3.64019,0.34486 3.99368,1.78547c0.3535,1.44061 -0.86139,2.97684 -2.71355,3.43133z" fill="#ffffff" stroke="#0c60a7" stroke-width="1.25" stroke-linecap="butt"/><path d="M230.281,70.08027l-1.40668,-4.659" fill="none" stroke="#0c60a7" stroke-width="1.25" stroke-linecap="round"/><path d="M240.27691,96.86224l-4.09342,-14.53476" fill="none" stroke="#0c60a7" stroke-width="1.25" stroke-linecap="round"/><path d="M242.73364,102.58046l2.87423,9.56638" fill="none" stroke="#0c60a7" stroke-width="1.25" stroke-linecap="round"/><path d="M238.46929,113.10847l-3.66531,1.1628" fill="none" stroke="#0c60a7" stroke-width="1.25" stroke-linecap="round"/><path d="M253.21686,94.54738l-5.8736,-4.61632l-19.13737,6.80313l-0.84349,-11.7153" fill="none" stroke="#0c60a7" stroke-width="1.25" stroke-linecap="round"/><path d="M255.10193,89.6306l1.40983,-10.35428l14.16758,-19.54262l0.58809,21.71598l-3.06805,20.76958" fill="none" stroke="#0c60a7" stroke-width="1.25" stroke-linecap="round"/><path d="M275.41219,123.9076l4.50357,-8.4797" fill="none" stroke="#0c60a7" stroke-width="1.25" stroke-linecap="round"/><path d="M282.4838,109.79348l3.36969,-4.51414" fill="none" stroke="#0c60a7" stroke-width="1.25" stroke-linecap="round"/><path d="M270.59777,118.24119l-0.42671,-1.73895l7.56802,1.35687l5.55695,4.90399l-2.30593,2.4095" fill="none" stroke="#0c60a7" stroke-width="1.25" stroke-linecap="round"/><path d="M258.6957,112.53493l1.30451,13.90225" fill="none" stroke="#0c60a7" stroke-width="1.25" stroke-linecap="round"/><path d="M257.97792,106.39004l0.1494,-5.83096" fill="none" stroke="#0c60a7" stroke-width="1.25" stroke-linecap="round"/><path d="M285.13667,100.26278l2.43239,-2.96728l11.45015,-8.07727l-3.09697,13.13866l-3.57999,10.09676" fill="none" stroke="#0c60a7" stroke-width="1.25" stroke-linecap="round"/><path d="M194.48797,224.30447l3.22492,7.39213l3.50582,3.93691l2.90323,4.93136l2.38075,2.80209l1.8941,7.71873l-1.13978,2.25502l-2.1342,1.65246l-5.39347,2.17009l-1.91707,12.88682l-10.50115,-0.24506l-5.67553,-55.32743l7.64848,-1.03026l3.70666,3.60547z" fill="#00cdff" stroke="#0c60a7" stroke-width="1.25" stroke-linecap="round"/><path d="M180.34468,209.71496l10.75257,3.56958l3.74255,10.65143l-6.11685,0.37225l-2.28291,20.59568z" fill="#60fbff" stroke="#0c60a7" stroke-width="1.25" stroke-linecap="round"/><path d="M200.67589,208.60419l1.49241,8.38162l-1.80764,2.98331l-19.09988,-9.98697z" fill="url(#color-14)" stroke="#0c60a7" stroke-width="1.25" stroke-linecap="round"/><path d="M212.42867,211.4992l10.41433,35.54005l-3.72625,0.91437l-11.4137,-35.01263z" fill="#62fbff" stroke="#0c60a7" stroke-width="1.25" stroke-linecap="round"/><path d="M242.85475,222.69613l-4.71766,30.22322l-9.31232,-13.79968l-3.57111,-4.2031l-2.39547,0.58784l-1.6623,0.1257l8.30349,-29.41003z" fill="#00cdff" stroke="#0c60a7" stroke-width="1.25" stroke-linecap="round"/><path d="M248.27081,228.33021l-3.86859,33.68335l-7.96033,-3.6904l4.81243,-36.73683z" fill="#60fbff" stroke="#0c60a7" stroke-width="1.25" stroke-linecap="round"/><path d="M222.37828,229.41402l7.14411,-22.63514" fill="none" stroke="#0c60a7" stroke-width="1.25" stroke-linecap="round"/><path d="M217.84476,240.87679l2.7947,-0.68579l6.78176,27.63653l-10.86257,1.3487z" fill="url(#color-15)" stroke="#0c60a7" stroke-width="1.25" stroke-linecap="round"/><path d="M206.47526,269.67527l-8.14983,1.6707l-5.25594,-3.97779l2.33181,-1.23065l5.0714,-24.94844l4.46712,24.91233z" fill="url(#color-16)" stroke="#0c60a7" stroke-width="1.25" stroke-linecap="round"/><path d="M237.68393,243.90974l2.17363,-0.53336l5.31106,27.00977l-3.50339,3.16425l-7.20108,-2.51281z" fill="url(#color-17)" stroke="#0c60a7" stroke-width="1.25" stroke-linecap="round"/><path d="M189.04237,248.27388l1.05713,24.43221l6.43331,0.72586l-0.32201,2.71278l-6.12848,0.51622l-3.25189,-1.17733z" fill="url(#color-18)" stroke="#0c60a7" stroke-width="1.25" stroke-linecap="round"/><path d="M217.84479,240.87683l2.79471,-0.6858l1.94015,7.90633c-1.6628,-0.17491 -3.31589,-0.56501 -5.01884,-0.97164z" fill="url(#color-19)" stroke="#0c60a7" stroke-width="1.25" stroke-linecap="round"/><path d="M200.4727,241.18909l1.12268,6.26107c-1.33974,0.86296 -2.19844,2.4326 -3.18001,3.85999z" fill="url(#color-20)" stroke="#0c60a7" stroke-width="1.25" stroke-linecap="round"/><path d="M237.68393,243.90978l2.17366,-0.53336l0.73231,3.72419c-1.02767,-0.12957 -2.1294,-0.17069 -3.26662,-0.15186z" fill="url(#color-21)" stroke="#0c60a7" stroke-width="1.25" stroke-linecap="round"/><path d="M189.04232,248.27388l0.28642,6.6206c-0.28619,0.04531 -0.56617,0.09638 -0.83728,0.15554z" fill="url(#color-22)" stroke="#0c60a7" stroke-width="1.25" stroke-linecap="round"/><path d="M189.94106,284.05395l7.9898,-3.08938l8.25104,-2.02471l18.55136,-1.44825l18.58721,5.59771l-0.50626,9.43652l-17.99452,-4.33223l-21.33869,0.43905l-16.11507,6.77643z" fill="#00a9f7" stroke="#0c60a7" stroke-width="1.25" stroke-linecap="round"/><path d="M224.66302,278.35553l17.79362,4.66363l-1.63625,9.43156l-16.79429,-5.1911z" fill="#00cdff" stroke="#0c60a7" stroke-width="1.25" stroke-linecap="round"/><path d="M217.54688,279.2551l7.18639,-1.76344l-0.56667,8.04038l-10.03412,-0.6418z" fill="#60fbff" stroke="#0c60a7" stroke-width="1.25" stroke-linecap="round"/><path d="M214.40351,283.69496l-5.76576,-3.94679l8.51232,-0.96009z" fill="#00cdff" stroke="#0c60a7" stroke-width="1.25" stroke-linecap="round"/><path d="M213.58537,288.41074l7.31209,-0.10118l5.44899,0.35604" fill="none" stroke="#0c60a7" stroke-width="1.25" stroke-linecap="round"/><path d="M197.89156,290.00433l5.12243,-0.97481" fill="none" stroke="#0c60a7" stroke-width="1.25" stroke-linecap="round"/><path d="M199.90013,286.68957l0.71354,4.05777" fill="none" stroke="#0c60a7" stroke-width="1.25" stroke-linecap="round"/><path d="M187.90316,294.14857l1.788,1.53656" fill="none" stroke="#0c60a7" stroke-width="1.25" stroke-linecap="round"/><path d="M240.28321,293.71133l1.3357,-1.45655" fill="none" stroke="#0c60a7" stroke-width="1.25" stroke-linecap="round"/><path d="M239.1287,299.35627l2.66163,-0.65313" fill="none" stroke="#0c60a7" stroke-width="1.25" stroke-linecap="round"/><path d="M191.48404,296.09178l6.55931,4.88072" fill="none" stroke="#0c60a7" stroke-width="1.25" stroke-linecap="round"/><path d="M238.81686,294.63552l-5.46367,3.03388" fill="none" stroke="#0c60a7" stroke-width="1.25" stroke-linecap="round"/><path d="M224.27759,290.58418l-3.20866,4.17368" fill="none" stroke="#0c60a7" stroke-width="1.25" stroke-linecap="round"/><path d="M205.04858,295.02065l-2.64199,-3.8667" fill="none" stroke="#0c60a7" stroke-width="1.25" stroke-linecap="round"/><path d="M289.85409,199.92655l-2.49758,8.79638l-11.3119,2.77584" fill="none" stroke="#0c60a7" stroke-width="1.25" stroke-linecap="round"/><path d="M281.60248,171.47496l0.60256,-0.99445" fill="none" stroke="#0c60a7" stroke-width="1.25" stroke-linecap="round"/><path d="M276.58941,185.54472l14.45185,8.87001l-1.76122,15.24716l-13.80041,1.83442l-10.15817,-10.34693l-1.10685,-15.19467z" fill="url(#color-23)" stroke="#000000" stroke-width="0" stroke-linecap="round"/><path d="M272.36247,176.21697l2.4517,9.41611l-4.10269,3.40537l-5.29136,-6.03849z" fill="#d7ecff" stroke="#000000" stroke-width="0" stroke-linecap="round"/><path d="M276.06523,177.66975l-0.14067,8.09388l-5.87311,4.11189l-4.55767,-3.50391l1.61021,-3.06583l2.38223,3.01058l3.10389,-1.5834l0.44429,-6.58211z" fill="#01adf2" stroke="#000000" stroke-width="0" stroke-linecap="round"/><path d="M274.63777,177.7735l-0.60331,7.57622l-4.07647,2.69217l-2.60017,-2.32264" fill="none" stroke="#24d1fd" stroke-width="0.5" stroke-linecap="round"/><path d="M269.71649,196.59662l-1.38061,4.14838l-10.52324,4.83983l-7.43463,5.35177l-3.04199,-11.24658l6.17894,-7.01895z" fill="#1d8cc1" stroke="#000000" stroke-width="0" stroke-linecap="round"/><path d="M250.61085,216.51086c-2.35194,0.57715 -4.79958,-1.15956 -5.4669,-3.879c-0.66733,-2.71944 0.69833,-5.39187 3.0503,-5.96905c2.35194,-0.57715 4.79958,1.15953 5.4669,3.87901c0.66733,2.71944 -0.69833,5.39186 -3.0503,5.96904z" fill="#28d4ff" stroke="none" stroke-width="0" stroke-linecap="butt"/><path d="M245.49678,256.17597l-1.28106,-43.35081l17.94065,7.86536l1.68442,6.86422l-11.42445,25.46776l-4.07765,2.87196z" fill="url(#color-24)" stroke="#000000" stroke-width="0" stroke-linecap="round"/><path d="M249.71499,213.14768l10.1358,-16.19336l7.45916,-1.80184l-14.8855,25.01178z" fill="#d4ebff" stroke="#000000" stroke-width="0" stroke-linecap="round"/><path d="M266.53975,195.46355l-3.93442,25.36538l-10.25057,-0.94879z" fill="#eff7ff" stroke="#000000" stroke-width="0" stroke-linecap="round"/><path d="M247.58089,227.38612l11.04279,6.02326l-7.65843,15.39471l-4.98839,-1.68688z" fill="#18bffd" stroke="#000000" stroke-width="0" stroke-linecap="round"/><path d="M245.6186,172.16704l3.63231,103.39497l-58.10939,-6.19233l4.85494,-39.01805l-7.35938,-13.8653l9.30794,-1.79479l10.00171,-80.38179l5.54864,-7.28756l10.59591,-6.2686l6.31763,-0.70374z" fill="#00a9f7" stroke="#000000" stroke-width="0" stroke-linecap="round"/><path d="M218.41565,125.32032l-8.26006,88.36732l-6.01027,1.72624l9.39293,-87.62113z" fill="url(#color-25)" stroke="#000000" stroke-width="0" stroke-linecap="round"/><path d="M242.18798,226.62806l-0.34428,-20.72232l3.97013,0.07928l2.07402,22.40488z" fill="#0092e8" stroke="#000000" stroke-width="0" stroke-linecap="round"/><path d="M252.43589,195.4052l0.90523,5.83552l-2.97186,-1.37772l0.2255,5.21218l1.72519,2.73718l-12.53829,1.49651l-1.10784,-16.32089z" fill="#eef6ff" stroke="#000000" stroke-width="0" stroke-linecap="round"/><path d="M248.42127,275.88892l-0.07509,1.99374l-9.64718,2.08513l-43.53136,-1.45198l-7.30232,-2.15875l0.03436,-7.90976l20.49453,-5.02916l13.16769,-1.53809l12.08343,3.24301z" fill="#0085e3" stroke="#000000" stroke-width="0" stroke-linecap="round"/><path d="M193.44414,273.79266l-4.98198,-0.75281l3.13844,-3.30984l9.98355,-3.01424l8.24124,0.23522l8.84376,-0.75923l7.18151,-0.63353l6.37319,1.82239l5.64003,2.28445l4.89701,5.00649l-29.22612,71.79327z" fill="#fdffff" stroke="#000000" stroke-width="0" stroke-linecap="round"/><path d="M210.3295,334.55282l-13.01862,-63.40216l4.65537,-0.57804l13.89222,61.21251z" fill="#a3feff" stroke="#000000" stroke-width="0" stroke-linecap="round"/><path d="M224.7759,314.07642l-4.0525,-46.41345l1.72759,0.14046l4.99142,44.48992z" fill="#a3feff" stroke="#000000" stroke-width="0" stroke-linecap="round"/><path d="M237.93072,284.88689l-2.33169,-14.10169l1.72759,0.14042l1.67363,12.57001z" fill="#a3feff" stroke="#000000" stroke-width="0" stroke-linecap="round"/><path d="M204.77855,212.84819l-14.26328,-6.37658l-13.4222,-31.69791l4.23746,-11.48084l15.66434,5.18619l13.94467,33.82719z" fill="url(#color-26)" stroke="#000000" stroke-width="0" stroke-linecap="round"/><path d="M239.57315,193.80783l0.37037,37.15816" fill="none" stroke="#02c8fe" stroke-width="0.5" stroke-linecap="round"/><path d="M205.09564,208.81973l-12.13396,-6.89909l-3.22495,-7.39213l-4.7109,-1.94809l-1.56753,-6.38788l2.06888,-1.91866l8.91062,14.46261l11.73723,6.43211z" fill="#01d0ff" stroke="#000000" stroke-width="0" stroke-linecap="round"/><path d="M197.8544,174.34559l-14.95074,-5.31002l-0.49059,15.56385l-5.96444,-9.67005l4.44749,-11.14764l15.20641,4.8881z" fill="#c7f3ff" stroke="#c7f3ff" stroke-width="0" stroke-linecap="round"/><path d="M197.20496,202.5725l-5.65474,1.10543l-2.29087,-8.18571l6.17233,2.15383z" fill="#ffffff" stroke="#000000" stroke-width="0" stroke-linecap="round"/><path d="M278.67285,141.03564c4.37474,0.15721 19.24345,-1.67103 19.24345,-1.67103c0,0 -5.92768,11.96312 -6.69049,17.77631c-2.00197,15.25565 -19.9629,18.09117 -19.9629,18.09117c0,0 -1.37482,3.06057 -3.06187,4.15961c-1.3295,0.86606 -13.90121,1.07686 -15.84519,0.72522c-1.94398,-0.35164 -3.85193,-3.9168 -3.85193,-3.9168c0,0 -18.40522,0.53211 -22.74765,-17.94222c-0.8262,-3.51505 -3.83245,-15.85729 -3.83245,-15.85729c0,0 9.67607,-0.10373 15.77222,0.07384c12.7211,0.37056 30.63738,-0.73805 40.9769,-1.43877z" fill="url(#color-27)" stroke="#347db1" stroke-width="0" stroke-linecap="round"/><path d="M248.87681,152.85005c4.84855,4.95944 5.42389,12.26009 1.28502,16.30635c-4.13883,4.0463 -11.42455,3.30601 -16.27314,-1.65351c-4.84856,-4.95944 -5.42384,-12.26009 -1.28498,-16.30634c4.13883,-4.0463 11.42454,-3.30602 16.2731,1.65351z" fill="#fafaf9" stroke="#549bb6" stroke-width="0.125" stroke-linecap="butt"/><path d="M286.92574,149.35184c4.41242,3.746 4.35057,11.06905 -0.13818,16.35634c-4.48876,5.28729 -11.70464,6.5368 -16.11706,2.79077c-4.41242,-3.746 -4.35062,-11.06901 0.13814,-16.35634c4.48876,-5.28729 11.70465,-6.53681 16.11706,-2.79081z" data-paper-data="{&quot;index&quot;:null}" fill="#fafaf9" stroke="#549bb6" stroke-width="0.125" stroke-linecap="butt"/><path d="M248.82811,163.49597c0.32733,2.35368 -0.71676,4.4438 -2.33203,4.66842c-1.61527,0.22458 -3.19003,-1.50132 -3.51732,-3.85495c-0.32733,-2.35368 0.71677,-4.44376 2.33204,-4.66838c1.61527,-0.22458 3.19002,1.50132 3.51732,3.85495z" fill="url(#color-28)" stroke="none" stroke-width="0" stroke-linecap="butt"/><path d="M275.01094,158.66089c1.62705,0.11079 2.81516,2.12252 2.65369,4.49337c-0.16147,2.37081 -1.61125,4.20299 -3.23829,4.09216c-1.62705,-0.11079 -2.8152,-2.12252 -2.65373,-4.49333c0.16147,-2.37081 1.61125,-4.20299 3.23829,-4.0922z" data-paper-data="{&quot;index&quot;:null}" fill="url(#color-29)" stroke="none" stroke-width="0" stroke-linecap="butt"/><path d="M226.77822,143.38073l-0.21306,15.23116l4.55999,10.10924l19.66122,6.40353l1.35475,3.82613l17.63634,-1.00091l-0.30442,-3.89268l19.03448,-7.16602l3.82139,-11.54214l0.4284,-8.42228l-0.16358,-7.44533l3.72267,-0.08181l0.12743,15.77142l-6.18207,13.78486l-17.7615,7.26949l-1.19116,3.6192l-21.03594,1.21135l-0.67017,-3.57827l-19.3616,-7.7246l-7.63531,-12.4735l2.36314,-14.09529z" fill="#0077d7" stroke="#000000" stroke-width="0" stroke-linecap="round"/><path d="M272.52096,180.47532l-23.28562,0.93169l-18.60667,-6.69457l-9.73384,-10.50299l-4.13849,-17.69815l-0.91263,-7.8853l9.3032,2.9153l-2.22443,15.93262l7.46731,12.09887l19.52149,7.89327l0.81851,2.50225l20.14278,-1.29715l1.06198,-3.17162l16.79585,-7.2728l7.81589,-13.97783l-1.006,-14.93199l5.20681,-0.446l-0.82486,12.47028l-1.93106,6.29588l-5.11413,9.15627l-3.52095,3.98296l-4.58192,4.65915l-11.61996,3.47519z" fill="#00c5fa" stroke="#000000" stroke-width="0" stroke-linecap="round"/><path d="M216.75821,124.69015l2.09725,-9.24767l5.26519,-5.65852l5.10632,-2.91651l3.81526,1.14307l18.37355,1.17004l22.60555,-6.171l9.98404,1.70862l12.99003,12.37478l3.48316,9.95761l1.74768,11.9926l-5.73197,0.36693l-14.65363,2.14037l-11.44114,6.7582l-17.84593,1.88407l-13.43715,-7.30707l-24.97817,-0.10848z" fill="url(#color-30)" stroke="#000000" stroke-width="0" stroke-linecap="round"/><path d="M264.84324,124.65222l-3.5374,14.56367l-12.32931,-18.04467l6.33238,-1.02716l4.60859,10.19434l2.0758,-6.56705z" fill="#51e0fc" stroke="#000000" stroke-width="0" stroke-linecap="round"/><path d="M282.89035,120.91909l-11.02802,10.8709l-0.80302,-15.07885l3.22488,0.26219l-1.53175,9.85745l6.73934,-9.02829z" fill="#3becff" stroke="#000000" stroke-width="0" stroke-linecap="round"/><path d="M237.89969,116.7858c1.02159,-0.9757 3.39215,-0.15188 5.29487,1.84015c1.90272,1.99207 2.61706,4.39789 1.59551,5.37363c-1.02159,0.97574 -3.39215,0.15187 -5.29487,-1.84011c-1.90272,-1.99203 -2.61706,-4.39789 -1.59551,-5.37363z" fill="#0292e0" stroke="#8dd0f0" stroke-width="0.25" stroke-linecap="butt"/><path d="M238.88063,109.2772l6.52582,11.56749l-11.76555,-5.01416z" fill="#4bdaf9" stroke="#000000" stroke-width="0" stroke-linecap="round"/><path d="M283.43742,82.70952l-3.76894,26.03978l-12.97174,2.33656l-14.10811,-11.49405l2.54911,-20.66099l17.04269,-21.39568z" fill="#008de5" stroke="#000000" stroke-width="0" stroke-linecap="round"/><path d="M300.36726,87.30298l4.03967,18.76198l-7.37099,13.66073l-15.63491,-11.96599l3.56962,-10.75258z" fill="#008de5" stroke="#000000" stroke-width="0" stroke-linecap="round"/><path d="M278.2397,82.29426l-6.31763,0.70374l-14.41353,-2.38905" fill="none" stroke="#00cdff" stroke-width="0.75" stroke-linecap="round"/><path d="M286.60822,99.14742l9.0952,2.56533l5.90614,2.21917" fill="none" stroke="#00cdff" stroke-width="0.5" stroke-linecap="round"/><path d="M282.21477,82.17107l-2.7633,20.07066l-7.21091,1.68288l5.59918,-30.50267z" fill="url(#color-31)" stroke="#000000" stroke-width="0" stroke-linecap="round"/><path d="M301.85339,98.97177l1.05786,5.96099l-4.90287,13.26844l-4.11036,-2.57171z" fill="url(#color-32)" stroke="#000000" stroke-width="0" stroke-linecap="round"/><path d="M271.18127,82.05666l-2.76329,20.07066l-7.21091,1.68288l5.59918,-30.50267z" fill="url(#color-33)" stroke="#000000" stroke-width="0" stroke-linecap="round"/><path d="M295.21404,97.21471l1.05787,5.96099l-4.90287,13.26844l-4.11036,-2.57171z" fill="url(#color-34)" stroke="#000000" stroke-width="0" stroke-linecap="round"/><path d="M232.16784,116.0361l-7.2954,-20.07007l3.42783,-32.18305l25.68433,28.46308l-0.91755,11.287l-12.5185,11.23663z" fill="#3dffff" stroke="#000000" stroke-width="0" stroke-linecap="round"/><path d="M248.34396,119.70455l-0.17514,-16.81317l8.55299,-12.37054l11.12387,9.91241l2.50532,23.08915z" fill="#3dffff" stroke="#000000" stroke-width="0" stroke-linecap="round"/><path d="M273.96909,106.04184l12.99244,-6.08539l3.61035,11.49282l-4.70477,11.95296l-15.53444,-8.5667z" fill="#3dffff" stroke="#000000" stroke-width="0" stroke-linecap="round"/><path d="M250.95651,150.08004l10.39321,-13.57067l7.83146,12.42537l-7.88822,11.91631z" fill="#3dffff" stroke="#000000" stroke-width="0" stroke-linecap="round"/><path d="M221.51467,130.77116l3.60359,-6.49836l5.79821,-4.33384" fill="none" stroke="#fefeff" stroke-width="0.375" stroke-linecap="round"/><path d="M229.72793,170.47639l-7.43559,-13.35426l1.86207,-13.8992l-3.6612,-14.07252l-0.40782,-7.59327l2.82634,-7.9711l5.10632,-2.91647" fill="none" stroke="#fefeff" stroke-width="0.375" stroke-linecap="round"/><path d="M241.01416,131.73505l-1.87941,4.20393l-0.02535,5.82828l-15.18303,-0.01696" fill="none" stroke="#fefeff" stroke-width="0.375" stroke-linecap="round"/><path d="M239.15753,141.96333l13.87753,7.40691l2.68672,1.62793l5.33972,-0.27067l6.41659,-0.11907l12.73961,-9.36406l5.199,-1.69162l5.03696,0.36276l6.71258,-0.60755l-0.71356,6.41301l1.83243,6.61991l-7.61026,15.59085" fill="none" stroke="#fefeff" stroke-width="0.375" stroke-linecap="round"/><path d="M296.75365,121.52727l1.00704,4.95113l-0.58365,10.33178" fill="none" stroke="#fefeff" stroke-width="0.375" stroke-linecap="round"/><path d="M297.41656,126.77077l-5.26269,-6.19405" fill="none" stroke="#fefeff" stroke-width="0.375" stroke-linecap="round"/><path d="M281.62944,133.0521l0.16354,7.44533" fill="none" stroke="#fefeff" stroke-width="0.375" stroke-linecap="round"/><path d="M256.1728,141.58616l-4.24366,7.27925" fill="none" stroke="#fefeff" stroke-width="0.375" stroke-linecap="round"/><path d="M270.44624,148.06423l-5.35533,-7.41886" fill="none" stroke="#fefeff" stroke-width="0.375" stroke-linecap="round"/><path d="M261.29434,137.97851l-0.35021,12.97758" fill="none" stroke="#fefeff" stroke-width="0.375" stroke-linecap="round"/><path d="M249.39422,105.03727l12.66013,-0.99968l5.82638,1.20403" fill="none" stroke="#ffffff" stroke-width="0.5" stroke-linecap="round"/><path d="M232.13831,301.91818c0,0 -0.84418,-7.58154 -16.17096,-7.9172c-12.59749,-0.27588 -20.58556,7.62465 -20.58556,7.62465l-8.48288,-5.81971l9.1998,-6.20819c0,0 3.65422,-2.51673 5.91849,-2.74739c2.3227,-0.23665 7.84688,1.34486 7.84688,1.34486c0,0 7.56532,-2.3132 10.86075,-2.10777c2.69771,0.16816 7.55018,2.38714 7.55018,2.38714c0,0 4.47305,1.20429 6.83981,1.84145c2.5541,0.68761 7.89538,3.00833 7.89538,3.00833l-2.22408,7.03609l-8.64785,1.55773z" fill="url(#color-35)" stroke="#000000" stroke-width="0" stroke-linecap="round"/><path d="M236.49619,117.94727l-3.57689,-4.91657" fill="none" stroke="#ffffff" stroke-width="0.5" stroke-linecap="round"/><path d="M240.55929,110.89253l4.41057,-1.34571l6.44653,15.53759" fill="none" stroke="#ffffff" stroke-width="0.5" stroke-linecap="round"/><path d="M288.44452,112.8376l-11.32508,-6.43918" fill="none" stroke="#ffffff" stroke-width="0.5" stroke-linecap="round"/><path d="M284.37221,122.00157c-1.37198,0.33668 -2.94815,-1.28117 -3.52053,-3.61354c-0.57234,-2.33237 0.0759,-4.49605 1.44788,-4.83269c1.37198,-0.33669 2.94816,1.28117 3.52049,3.6135c0.57234,2.33237 -0.0759,4.49604 -1.44788,4.83273z" fill="#ffffff" stroke="none" stroke-width="0" stroke-linecap="butt"/><path d="M291.39804,118.43386c-0.96039,0.23565 -2.03916,-0.79672 -2.40951,-2.30593c-0.37035,-1.5092 0.108,-2.92362 1.06839,-3.15931c0.96039,-0.23565 2.03915,0.79668 2.4095,2.30588c0.37035,1.5092 -0.10796,2.92366 -1.06839,3.15935z" fill="#ffffff" stroke="none" stroke-width="0" stroke-linecap="butt"/><path d="M245.26093,113.95284c-2.33237,0.57234 -4.55064,-0.29833 -4.95465,-1.9447c-0.40401,-1.64638 1.15925,-3.44499 3.49161,-4.01732c2.33237,-0.57233 4.5506,0.29833 4.95461,1.9447c0.40401,1.64638 -1.15924,3.44499 -3.49157,4.01732z" fill="#ffffff" stroke="none" stroke-width="0" stroke-linecap="butt"/><path d="M236.82166,119.01074c-0.84372,0.51577 -2.36393,-0.43409 -3.39545,-2.12152c-1.03152,-1.68743 -1.18377,-3.47345 -0.34005,-3.98923c0.84372,-0.51578 2.36393,0.43404 3.39544,2.12148c1.03152,1.68743 1.18377,3.4735 0.34006,3.98927z" fill="#ffffff" stroke="none" stroke-width="0" stroke-linecap="butt"/><path d="M239.66507,94.90537c-1.85216,0.45449 -3.64023,-0.34486 -3.99372,-1.78543c-0.3535,-1.44057 0.86143,-2.97684 2.71359,-3.43133c1.85216,-0.45449 3.64023,0.34486 3.99373,1.78543c0.3535,1.44057 -0.86144,2.97684 -2.71359,3.43134z" fill="#ffffff" stroke="none" stroke-width="0" stroke-linecap="butt"/><path d="M230.281,70.08027l-1.40668,-4.659" fill="none" stroke="#ffffff" stroke-width="0.25" stroke-linecap="round"/><path d="M240.27691,96.86224l-4.09342,-14.53476" fill="none" stroke="#ffffff" stroke-width="0.25" stroke-linecap="round"/><path d="M242.73363,102.58042l2.87423,9.56639" fill="none" stroke="#ffffff" stroke-width="0.25" stroke-linecap="round"/><path d="M234.80398,114.27127l3.66531,-1.16283" fill="none" stroke="#ffffff" stroke-width="0.25" stroke-linecap="round"/><path d="M253.21686,94.54734l-5.8736,-4.61632l-19.1374,6.80313l-0.8435,-11.7153" fill="none" stroke="#ffffff" stroke-width="0.25" stroke-linecap="round"/><path d="M255.10193,89.6306l1.40983,-10.35428l14.16758,-19.54262l0.58809,21.71598l-3.06805,20.76955" fill="none" stroke="#ffffff" stroke-width="0.25" stroke-linecap="round"/><path d="M279.91576,115.42786l-4.50357,8.47965" fill="none" stroke="#ffffff" stroke-width="0.25" stroke-linecap="round"/><path d="M282.4838,109.79348l3.36969,-4.51414" fill="none" stroke="#ffffff" stroke-width="0.25" stroke-linecap="round"/><path d="M270.59781,118.24115l-0.42671,-1.73895l7.56802,1.35688l5.55695,4.90399l-2.30593,2.4095" fill="none" stroke="#ffffff" stroke-width="0.25" stroke-linecap="round"/><path d="M260.00017,126.43718l-1.30447,-13.90225" fill="none" stroke="#ffffff" stroke-width="0.25" stroke-linecap="round"/><path d="M258.12732,100.55903l-0.1494,5.83097" fill="none" stroke="#ffffff" stroke-width="0.25" stroke-linecap="round"/><path d="M285.13667,100.26278l2.43239,-2.96728l11.45015,-8.07727l-3.09697,13.13869l-3.58004,10.09672" fill="none" stroke="#ffffff" stroke-width="0.25" stroke-linecap="round"/><path d="M194.48797,224.30447l3.22492,7.39217l3.50579,3.93691l2.90323,4.93136l2.38076,2.80208l1.89409,7.71873l-1.13978,2.25501l-2.13424,1.65247l-5.39347,2.17009l-1.91711,12.88682l-10.50118,-0.24502l-5.67553,-55.32743l7.64848,-1.03026l3.70665,3.60547z" fill="#00cdff" stroke="#000000" stroke-width="0" stroke-linecap="round"/><path d="M180.34471,209.71492l10.75258,3.56958l3.74255,10.65143l-6.11685,0.37222l-2.28295,20.59571z" fill="#60fbff" stroke="#000000" stroke-width="0" stroke-linecap="round"/><path d="M200.67593,208.60419l1.4924,8.38162l-1.80763,2.98331l-19.09988,-9.98697z" fill="url(#color-36)" stroke="#000000" stroke-width="0" stroke-linecap="round"/><path d="M212.4287,211.4992l10.41433,35.54005l-3.72628,0.9144l-11.4137,-35.01263z" fill="#62fbff" stroke="#000000" stroke-width="0" stroke-linecap="round"/><path d="M242.85475,222.69613l-4.71766,30.22322l-9.31228,-13.79968l-3.57111,-4.20307l-2.39548,0.58784l-1.6623,0.1257l8.30349,-29.41003z" fill="#00cdff" stroke="#000000" stroke-width="0" stroke-linecap="round"/><path d="M248.27085,228.33021l-3.86859,33.68331l-7.96033,-3.6904l4.81243,-36.73684z" fill="#60fbff" stroke="#000000" stroke-width="0" stroke-linecap="round"/><path d="M229.5224,206.77888l-7.14411,22.63514" fill="none" stroke="#51f0fe" stroke-width="0.5" stroke-linecap="round"/><path d="M217.84479,240.87676l2.79471,-0.6858l6.78176,27.63657l-10.86258,1.3487z" fill="url(#color-37)" stroke="#000000" stroke-width="0" stroke-linecap="round"/><path d="M206.47526,269.67527l-8.1498,1.67066l-5.25598,-3.97775l2.33181,-1.23065l5.0714,-24.94844l4.46712,24.91228z" fill="url(#color-38)" stroke="#000000" stroke-width="0" stroke-linecap="round"/><path d="M237.68393,243.90974l2.17366,-0.5334l5.31106,27.00978l-3.50339,3.16424l-7.20108,-2.51281z" fill="url(#color-39)" stroke="#000000" stroke-width="0" stroke-linecap="round"/><path d="M189.0424,248.27384l1.05713,24.43221l6.43331,0.72586l-0.32197,2.71278l-6.12852,0.51622l-3.25189,-1.17733z" fill="url(#color-40)" stroke="#000000" stroke-width="0" stroke-linecap="round"/><path d="M217.84479,240.87679l2.79471,-0.68579l1.94015,7.90632c-1.6628,-0.17491 -3.31593,-0.56501 -5.01884,-0.97168z" fill="url(#color-41)" stroke="#000000" stroke-width="0" stroke-linecap="round"/><path d="M200.4727,241.18909l1.12268,6.26107c-1.33974,0.86296 -2.19848,2.4326 -3.18006,3.85999z" fill="url(#color-42)" stroke="#000000" stroke-width="0" stroke-linecap="round"/><path d="M237.68393,243.90978l2.17366,-0.5334l0.73231,3.72419c-1.02767,-0.12957 -2.12936,-0.17069 -3.26662,-0.15185z" fill="url(#color-43)" stroke="#000000" stroke-width="0" stroke-linecap="round"/><path d="M189.04237,248.27388l0.28642,6.6206c-0.28619,0.04531 -0.56618,0.09638 -0.83729,0.15557z" fill="url(#color-44)" stroke="#000000" stroke-width="0" stroke-linecap="round"/><path d="M189.9411,284.05395l7.98981,-3.08938l8.251,-2.02471l18.55136,-1.44825l18.58721,5.59771l-0.50626,9.43652l-17.99449,-4.33223l-21.33868,0.43909l-16.11511,6.77639z" fill="#00a9f7" stroke="#000000" stroke-width="0" stroke-linecap="round"/><path d="M224.66302,278.35549l17.79362,4.66368l-1.63625,9.43156l-16.79429,-5.1911z" fill="#00cdff" stroke="#000000" stroke-width="0" stroke-linecap="round"/><path d="M217.54688,279.2551l7.18639,-1.76348l-0.5667,8.04038l-10.03412,-0.64179z" fill="#60fbff" stroke="#000000" stroke-width="0" stroke-linecap="round"/><path d="M214.40351,283.69496l-5.76576,-3.94679l8.51232,-0.96009z" fill="#00cdff" stroke="#000000" stroke-width="0" stroke-linecap="round"/><path d="M188.27388,285.30969l5.05711,-1.24097l-4.42849,9.55242z" fill="#00cdff" stroke="#000000" stroke-width="0" stroke-linecap="round"/><path d="M213.58542,288.41074l7.31208,-0.10118l5.44896,0.35604" fill="none" stroke="#ffffff" stroke-width="0.25" stroke-linecap="round"/><path d="M203.01402,289.02952l-5.12243,0.97481" fill="none" stroke="#ffffff" stroke-width="0.25" stroke-linecap="round"/><path d="M199.90013,286.68957l0.71354,4.05777" fill="none" stroke="#ffffff" stroke-width="0.25" stroke-linecap="round"/><path d="M189.6912,295.68509l-1.78799,-1.53656" fill="none" stroke="#ffffff" stroke-width="0.25" stroke-linecap="round"/><path d="M241.61891,292.25478l-1.3357,1.45655" fill="none" stroke="#ffffff" stroke-width="0.25" stroke-linecap="round"/><path d="M241.79033,298.7031l-2.66163,0.65313" fill="none" stroke="#ffffff" stroke-width="0.25" stroke-linecap="round"/><path d="M191.48408,296.09174l6.55931,4.88076" fill="none" stroke="#01cefd" stroke-width="0.25" stroke-linecap="round"/><path d="M238.81687,294.63554l-5.46372,3.03388" fill="none" stroke="#01cefd" stroke-width="0.25" stroke-linecap="round"/><path d="M224.27759,290.58418l-3.20866,4.17368" fill="none" stroke="#01cefd" stroke-width="0.5" stroke-linecap="round"/><path d="M275.75071,210.301l-7.6117,-7.44443l-2.30728,3.24697l-4.18348,-0.94876l4.99274,-17.02778l3.10655,4.03494l-0.94384,3.05352l7.82556,11.7659l9.47898,-1.62056z" fill="#0eb3fa" stroke="#000000" stroke-width="0" stroke-linecap="round"/><path d="M205.04858,295.02065l-2.64199,-3.8667" fill="none" stroke="#01cefd" stroke-width="0.5" stroke-linecap="round"/><path d="M289.85409,199.92655l-2.49758,8.79638l-11.3119,2.77584" fill="none" stroke="#1bc3fb" stroke-width="0.25" stroke-linecap="round"/><path d="M281.60248,171.47492l0.60256,-0.99445" fill="none" stroke="#000000" stroke-width="0.25" stroke-linecap="round"/></g></g></svg>