<svg version="1.1" xmlns="http://www.w3.org/2000/svg" xmlns:xlink="http://www.w3.org/1999/xlink" width="128.20005" height="172.83755" viewBox="0,0,128.20005,172.83755"><defs><radialGradient cx="244.06748" cy="180.65431" r="63.5" gradientUnits="userSpaceOnUse" id="color-1"><stop offset="0" stop-color="#d8cae6"/><stop offset="1" stop-color="#d8cae6" stop-opacity="0"/></radialGradient><radialGradient cx="296.30919" cy="217.94708" r="16.625" gradientUnits="userSpaceOnUse" id="color-2"><stop offset="0" stop-color="#05040a"/><stop offset="1" stop-color="#05040a" stop-opacity="0"/></radialGradient><radialGradient cx="299.42144" cy="213.39699" r="19.4844" gradientUnits="userSpaceOnUse" id="color-3"><stop offset="0" stop-color="#d8cae6"/><stop offset="1" stop-color="#673fa0"/></radialGradient><radialGradient cx="244.30619" cy="127.97328" r="58.875" gradientUnits="userSpaceOnUse" id="color-4"><stop offset="0" stop-color="#625ad2"/><stop offset="1" stop-color="#625ad2" stop-opacity="0"/></radialGradient><radialGradient cx="227.21859" cy="99.65123" r="36.2293" gradientUnits="userSpaceOnUse" id="color-5"><stop offset="0" stop-color="#acc4fa"/><stop offset="1" stop-color="#8391fd"/></radialGradient><radialGradient cx="267.55192" cy="101.98456" r="36.2293" gradientUnits="userSpaceOnUse" id="color-6"><stop offset="0" stop-color="#dfe7fa"/><stop offset="1" stop-color="#bac2fc"/></radialGradient><radialGradient cx="261.56161" cy="212.75357" r="17.77755" gradientUnits="userSpaceOnUse" id="color-7"><stop offset="0" stop-color="#d8cae6"/><stop offset="1" stop-color="#955ae8"/></radialGradient><radialGradient cx="219.48725" cy="213.85607" r="17.77756" gradientUnits="userSpaceOnUse" id="color-8"><stop offset="0" stop-color="#d8cae6"/><stop offset="1" stop-color="#955ae8"/></radialGradient><radialGradient cx="227.55192" cy="110.98456" r="47.22931" gradientUnits="userSpaceOnUse" id="color-9"><stop offset="0" stop-color="#fafafa"/><stop offset="1" stop-color="#b0b9fc"/></radialGradient><radialGradient cx="243.21859" cy="124.65123" r="58.3972" gradientUnits="userSpaceOnUse" id="color-10"><stop offset="0" stop-color="#acc4fa"/><stop offset="1" stop-color="#8391fd"/></radialGradient><radialGradient cx="240.6548" cy="213.09536" r="15.44208" gradientUnits="userSpaceOnUse" id="color-11"><stop offset="0" stop-color="#d8cae6"/><stop offset="1" stop-color="#955ae8"/></radialGradient><radialGradient cx="232.60147" cy="146.94293" r="47.33825" gradientUnits="userSpaceOnUse" id="color-12"><stop offset="0" stop-color="#d8cae6"/><stop offset="1" stop-color="#955ae8"/></radialGradient><radialGradient cx="263.75456" cy="166.36449" r="18.00306" gradientUnits="userSpaceOnUse" id="color-13"><stop offset="0" stop-color="#d8cae6"/><stop offset="1" stop-color="#673fa0"/></radialGradient><radialGradient cx="219.25679" cy="163.88926" r="15.61485" gradientUnits="userSpaceOnUse" id="color-14"><stop offset="0" stop-color="#d8cae6"/><stop offset="1" stop-color="#673fa0"/></radialGradient><radialGradient cx="262.42123" cy="156.03115" r="14.66276" gradientUnits="userSpaceOnUse" id="color-15"><stop offset="0" stop-color="#e6e6e6"/><stop offset="1" stop-color="#673fa0"/></radialGradient><radialGradient cx="221.19658" cy="154.60361" r="14.2473" gradientUnits="userSpaceOnUse" id="color-16"><stop offset="0" stop-color="#e6e6e6"/><stop offset="1" stop-color="#673fa0"/></radialGradient><radialGradient cx="238.9348" cy="183.6096" r="35.00086" gradientUnits="userSpaceOnUse" id="color-17"><stop offset="0" stop-color="#d8cae6"/><stop offset="1" stop-color="#955ae8"/></radialGradient><linearGradient x1="222.71825" y1="183.30745" x2="222.71825" y2="202.73733" gradientUnits="userSpaceOnUse" id="color-18"><stop offset="0" stop-color="#f0b4fc" stop-opacity="0"/><stop offset="1" stop-color="#f0b4fc"/></linearGradient><linearGradient x1="253.71825" y1="182.97411" x2="253.71825" y2="202.404" gradientUnits="userSpaceOnUse" id="color-19"><stop offset="0" stop-color="#efa9fc" stop-opacity="0"/><stop offset="1" stop-color="#efa9fc"/></linearGradient><radialGradient cx="227.08789" cy="149.69782" r="21.2566" gradientUnits="userSpaceOnUse" id="color-20"><stop offset="0" stop-color="#e6e6e6"/><stop offset="1" stop-color="#673fa0"/></radialGradient><radialGradient cx="241.08789" cy="144.36449" r="8.24395" gradientUnits="userSpaceOnUse" id="color-21"><stop offset="0" stop-color="#e6e6e6"/><stop offset="1" stop-color="#673fa0"/></radialGradient><radialGradient cx="241.08789" cy="142.69782" r="5.43329" gradientUnits="userSpaceOnUse" id="color-22"><stop offset="0" stop-color="#e6e6e6"/><stop offset="1" stop-color="#673fa0"/></radialGradient><radialGradient cx="241.08789" cy="161.69782" r="16.09708" gradientUnits="userSpaceOnUse" id="color-23"><stop offset="0" stop-color="#d8cae6"/><stop offset="1" stop-color="#673fa0"/></radialGradient></defs><g transform="translate(-184.73414,-71.31676)"><g data-paper-data="{&quot;isPaintingLayer&quot;:true}" fill-rule="nonzero" stroke-linecap="butt" stroke-linejoin="miter" stroke-miterlimit="10" stroke-dasharray="" stroke-dashoffset="0" style="mix-blend-mode: normal"><path d="M303.40081,180.65431c0,35.07008 -26.56444,63.5 -59.33333,63.5c-32.76889,0 -59.33334,-28.42992 -59.33334,-63.5c0,-35.07008 26.56444,-63.5 59.33334,-63.5c32.76889,0 59.33333,28.42992 59.33333,63.5z" fill="url(#color-1)" stroke="none" stroke-width="0"/><path d="M312.93419,217.94708c0,8.69848 -7.44327,15.75 -16.625,15.75c-9.18173,0 -16.625,-7.05152 -16.625,-15.75c0,-8.69848 7.44327,-15.75 16.625,-15.75c9.18173,0 16.625,7.05152 16.625,15.75z" fill="url(#color-2)" stroke="none" stroke-width="0"/><path d="M273.93704,206.69023c0.04734,0.22706 0.02361,0.49901 -0.13482,0.81586c-0.55902,1.11803 -1.67705,0.55902 -1.67705,0.55902l-1.51285,-0.97491c-3.47848,-6.14483 3.62327,-10.37206 9.0864,-10.39304c2.5927,-0.00996 5.25267,0.84842 7.85378,0.75687c1.06196,-0.03738 2.39662,-1.3224 3.23857,-1.82882c3.53612,-2.00173 9.74086,-0.9127 13.24463,0.97611c1.39863,0.75397 3.05084,1.51701 3.76805,3.03981c2.221,4.71565 -0.20078,10.20678 -3.60551,13.53683c-1.28289,2.28435 1.49881,2.61422 2.54926,4.36195c0.81129,1.3498 1.53074,4.61736 0.51481,6.03973c-2.35225,3.29334 -5.14737,0.32626 -6.61195,-1.92992c-0.6649,-1.02428 -0.31288,-1.46388 -1.26595,-1.71879c-0.20752,-0.0555 -0.0006,0.43277 0.04369,0.64297c0.14496,0.68797 0.45411,2.16066 0.50182,2.77007c0.16491,2.10617 -0.75497,3.70898 -1.8175,5.44027c-2.72053,1.94982 -5.8613,1.51309 -6.6621,-2.13695c-0.27585,-1.25731 0.05105,-2.576 -0.013,-3.86162c-0.02453,-0.49238 -0.09382,-0.98367 -0.19629,-1.4659c-0.07792,-0.36669 -0.3644,-1.39972 -0.44383,-1.03335c-0.63119,2.91121 -3.043,7.64592 -7.01235,5.22876c-4.51992,-2.75243 1.49071,-4.74967 1.68834,-7.01875c-2.84362,-0.66141 -4.16037,-3.74467 -1.50397,-5.82472c0.92487,-0.7242 2.47031,-0.8206 3.58813,-0.71857c2.56309,0.23394 4.42945,1.34236 7.07205,0.12377c2.96629,-1.36785 4.89689,-7.16039 1.72111,-9.17521c-2.76703,-0.09978 -4.02558,4.57963 -7.51411,4.29153c-2.57768,-0.21288 -3.38362,-2.56376 -5.45768,-3.62636c-3.18542,-1.63198 -7.21953,0.37676 -9.21846,2.91106c0,0 -0.08092,0.10116 -0.22324,0.21229z" fill="url(#color-3)" stroke="none" stroke-width="0.5"/><path d="M303.18119,127.97328c0,31.29053 -26.35924,56.65652 -58.875,56.65652c-32.51576,0 -58.875,-25.36599 -58.875,-56.65652c0,-31.29053 26.35924,-56.65652 58.875,-56.65652c32.51576,0 58.875,25.36599 58.875,56.65652z" fill="url(#color-4)" stroke="none" stroke-width="0"/><path d="M216.39004,102.65142c-0.85573,-0.55933 -0.42739,-1.67611 -0.42739,-1.67611c0.91737,-2.3846 2.52073,-6.34581 2.45651,-9.15753c-0.07751,-3.39361 -0.74511,-7.33912 -1.49671,-10.60063c-0.1167,-0.50639 -0.86184,-3.08414 -0.80313,-3.76745c0.36024,-4.19256 2.71968,-4.97713 5.12653,-3.23395c4.04682,5.47918 0.15204,13.51551 2.78254,19.32809c1.25601,2.77538 5.90145,5.70461 7.92078,2.83817c1.39937,-2.44246 3.44322,-6.84633 6.34999,-5.71897c0.70525,0.27353 2.55258,2.0361 3.02302,2.7154c0.79311,1.14524 1.37461,3.233 2.9436,2.03576c3.70503,-2.82716 2.27937,-8.64519 2.27937,-13.21319c0.06227,-6.84862 7.10548,-9.01797 9.71991,-2.94921c2.00918,4.6638 -0.77412,9.93052 -2.28195,13.85161c-0.89691,2.3324 -1.40721,4.77008 -1.94894,7.26351c0.00102,1.02599 -0.56195,2.82866 -0.29641,3.77214c0.9876,3.50894 4.23367,4.66407 6.61682,5.9071c0.88389,0.46103 1.7056,1.25064 2.73683,0.93829c3.41699,-1.03497 6.68054,-8.50264 7.85463,-12.35465c0.61414,-2.94364 1.46295,-5.92905 1.61896,-8.99171c0.08487,-1.6662 -0.78405,-3.56713 -0.13467,-5.00651c1.53311,-3.39821 6.01465,-1.80375 7.99447,-0.65336c3.45457,2.00732 8.13526,5.77641 9.59395,10.73104c0.64832,2.20211 0.04981,4.58985 -0.10632,6.82832c-0.26215,1.70409 -0.36772,4.38193 -1.31754,5.79769c-1.82897,2.72619 -5.51441,1.91124 -7.88804,1.07319c-0.01362,-0.00481 -3.13125,-1.11048 -3.26919,-1.35955c-0.3007,-0.54296 -0.49868,-1.435 -0.5288,-2.34421c-0.14324,0.60723 -0.2706,1.2218 -0.40025,1.83312c-0.52394,2.4705 -1.70999,4.35519 -2.89711,6.322c-0.77922,0.41948 -1.38703,1.2643 -2.14258,1.75185c-3.13413,2.02245 -6.90356,1.70761 -10.1734,3.11614c-3.05807,1.31731 -6.00722,3.03694 -9.1605,3.98132c-3.93398,1.1782 -8.10593,1.32063 -12.12315,1.40787c-4.24326,-0.45751 -8.87987,-1.57399 -12.85843,-3.63254c-1.71091,-0.88524 -3.69095,-1.60768 -4.96399,-3.46089c-1.62241,-2.3618 -1.18802,-5.03785 -1.9672,-7.72222c-0.55206,-1.9019 -1.40935,-3.20385 -1.82081,-5.13052z" data-paper-data="{&quot;index&quot;:null}" fill="url(#color-5)" stroke="#6552f3" stroke-width="0"/><path d="M274.51805,101.67083c-0.41146,1.92667 -1.26875,3.22862 -1.82081,5.13052c-0.77918,2.68437 -0.34479,5.36042 -1.9672,7.72222c-1.27304,1.85321 -3.25308,2.57565 -4.96399,3.46089c-3.97856,2.05855 -8.61517,3.17503 -12.85843,3.63254c-4.01722,-0.08724 -8.18917,-0.22967 -12.12315,-1.40787c-3.15328,-0.94438 -6.10243,-2.66401 -9.1605,-3.98132c-3.26984,-1.40853 -7.03927,-1.09369 -10.1734,-3.11614c-0.75555,-0.48755 -1.36336,-1.33237 -2.14258,-1.75185c-1.18712,-1.96681 -2.37317,-3.8515 -2.89711,-6.322c-0.12965,-0.61132 -0.25701,-1.22589 -0.40025,-1.83312c-0.03012,0.90921 -0.2281,1.80125 -0.5288,2.34421c-0.13794,0.24907 -3.25557,1.35474 -3.26919,1.35955c-2.37363,0.83805 -6.05907,1.653 -7.88804,-1.07319c-0.94982,-1.41576 -1.05539,-4.0936 -1.31754,-5.79769c-0.15613,-2.23847 -0.75464,-4.62621 -0.10632,-6.82832c1.45869,-4.95463 6.13938,-8.72372 9.59395,-10.73104c1.97982,-1.15039 6.46136,-2.74485 7.99447,0.65336c0.64938,1.43938 -0.21954,3.34031 -0.13467,5.00651c0.15601,3.06266 1.00482,6.04807 1.61896,8.99171c1.17409,3.85201 4.43764,11.31968 7.85463,12.35465c1.03123,0.31235 1.85294,-0.47726 2.73683,-0.93829c2.38315,-1.24303 5.62922,-2.39816 6.61682,-5.9071c0.26554,-0.94348 -0.29743,-2.74615 -0.29641,-3.77214c-0.54173,-2.49343 -1.05203,-4.93111 -1.94894,-7.26351c-1.50783,-3.92109 -4.29113,-9.18781 -2.28195,-13.85161c2.61443,-6.06876 9.65764,-3.89941 9.71991,2.94921c0,4.568 -1.42566,10.38603 2.27937,13.21319c1.56899,1.19724 2.15049,-0.89052 2.9436,-2.03576c0.47044,-0.6793 2.31777,-2.44187 3.02302,-2.7154c2.90677,-1.12736 4.95062,3.27651 6.34999,5.71897c2.01933,2.86644 6.66477,-0.06279 7.92078,-2.83817c2.6305,-5.81258 -1.26428,-13.84891 2.78254,-19.32809c2.40685,-1.74318 4.76629,-0.95861 5.12653,3.23395c0.05871,0.68331 -0.68643,3.26106 -0.80313,3.76745c-0.7516,3.26151 -1.4192,7.20702 -1.49671,10.60063c-0.06422,2.81172 1.53914,6.77293 2.45651,9.15753c0,0 0.42834,1.11678 -0.42739,1.67611z" data-paper-data="{&quot;index&quot;:null}" fill="url(#color-6)" stroke="#6552f3" stroke-width="0"/><path d="M269.21318,193.50582c0,0 -0.07266,-1.24789 1.17523,-1.32055c1.24789,-0.07266 1.32055,1.17523 1.32055,1.17523c0.02573,0.44639 0.04082,0.89281 0.04786,1.33927c0.27647,0.22851 0.52594,0.61881 0.35545,1.25054c-0.07961,0.29498 -0.21185,0.4984 -0.36625,0.63739c-0.07482,3.20706 -0.37388,6.41709 0.07273,9.63525c0.69017,4.97333 3.70326,10.81933 0.52214,15.54073c-0.16923,0.25116 -2.73554,2.46034 -3.04642,2.73083c-1.70539,0.98054 -3.0912,1.07624 -4.8826,1.55229c-0.57689,0.15332 -1.02863,0.81019 -1.62313,0.75646c-4.00532,-0.36189 -4.4549,-5.14842 -6.30249,-7.65643c-0.91076,-1.23631 -2.35602,-2.58109 -2.76729,-4.14266c-0.58946,-2.23817 -0.46841,-3.69445 0.35577,-5.8481c0.27423,-0.71659 1.00477,-1.27839 1.059,-2.04375c0.15881,-2.24117 -0.4309,-4.1379 0.15169,-6.38111c0.09769,-0.36198 0.81173,-3.06312 0.9278,-3.23213c2.88621,-4.20237 9.09042,-1.46758 13.02579,-3.47525c-0.00711,-0.17276 -0.01567,-0.34544 -0.02583,-0.51804z" data-paper-data="{&quot;index&quot;:null}" fill="url(#color-7)" stroke="#6552f3" stroke-width="1"/><path d="M213.67011,194.53522c3.62169,2.53006 10.1432,0.67494 12.42372,5.23448c0.09171,0.18337 0.4273,2.95706 0.47425,3.32905c0.26839,2.30203 -0.57669,4.09957 -0.72776,6.34128c-0.05159,0.76554 0.5947,1.42252 0.76772,2.17002c0.52001,2.24658 0.43953,3.70565 -0.45229,5.84142c-0.62221,1.49013 -2.23876,2.62326 -3.31097,3.72249c-2.17511,2.22994 -3.27901,6.90908 -7.29603,6.71642c-0.59624,-0.0286 -0.9533,-0.74139 -1.5036,-0.97261c-1.70886,-0.71802 -3.06832,-1.00348 -4.62257,-2.20935c-0.27071,-0.3107 -2.50865,-2.85198 -2.6417,-3.12404c-2.50121,-5.1142 1.28758,-10.49001 2.6555,-15.32107c0.88516,-3.12611 1.03063,-6.34675 1.3978,-9.53359c-0.13381,-0.15892 -0.23681,-0.37861 -0.27507,-0.68172c-0.08194,-0.6492 0.21885,-1.00145 0.52414,-1.18975c0.0684,-0.44124 0.14476,-0.88134 0.23168,-1.31994c0,0 0.24367,-1.22602 1.46969,-0.98235c1.22602,0.24367 0.98235,1.46969 0.98235,1.46969c-0.0338,0.16956 -0.06604,0.33942 -0.09686,0.50956z" fill="url(#color-8)" stroke="#6552f3" stroke-width="1"/><path d="M207.30233,109.81809c-1.11554,-0.55933 -0.55715,-1.67611 -0.55715,-1.67611c1.1959,-2.3846 3.28608,-6.34581 3.20236,-9.15753c-0.10104,-3.39361 -0.97134,-7.33912 -1.95114,-10.60063c-0.15213,-0.50639 -1.12352,-3.08414 -1.04698,-3.76745c0.46962,-4.19256 3.54544,-4.97713 6.68306,-3.23395c5.27552,5.47918 0.1982,13.51551 3.62738,19.32809c1.63736,2.77538 7.69326,5.70461 10.3257,2.83817c1.82425,-2.44246 4.48866,-6.84633 8.27799,-5.71897c0.91939,0.27353 3.32761,2.0361 3.94088,2.7154c1.03392,1.14524 1.79197,3.233 3.83734,2.03576c4.82996,-2.82716 2.97144,-8.64519 2.97144,-13.21319c0.08117,-6.84862 9.26285,-9.01797 12.67108,-2.94921c2.61921,4.6638 -1.00916,9.93052 -2.9748,13.85161c-1.16923,2.3324 -1.83447,4.77008 -2.54068,7.26351c0.00132,1.02599 -0.73258,2.82866 -0.38641,3.77214c1.28746,3.50894 5.51911,4.66407 8.62583,5.9071c1.15226,0.46103 2.22345,1.25064 3.56779,0.93829c4.45447,-1.03497 8.7089,-8.50264 10.23947,-12.35465c0.8006,-2.94364 1.90713,-5.92905 2.11051,-8.99171c0.11064,-1.6662 -1.0221,-3.56713 -0.17556,-5.00651c1.99859,-3.39821 7.84083,-1.80375 10.42176,-0.65336c4.50345,2.00732 10.6053,5.77641 12.50688,10.73104c0.84517,2.20211 0.06493,4.58985 -0.1386,6.82832c-0.34175,1.70409 -0.47938,4.38193 -1.71758,5.79769c-2.38428,2.72619 -7.18871,1.91124 -10.28302,1.07319c-0.01776,-0.00481 -4.08197,-1.11048 -4.26179,-1.35955c-0.392,-0.54296 -0.65009,-1.435 -0.68935,-2.34421c-0.18673,0.60723 -0.35275,1.2218 -0.52177,1.83312c-0.68302,2.4705 -2.22919,4.35519 -3.77674,6.322c-1.01581,0.41948 -1.80816,1.2643 -2.79311,1.75185c-4.08573,2.02245 -8.99963,1.70761 -13.26227,3.11614c-3.98656,1.31731 -7.83114,3.03694 -11.94182,3.98132c-5.12842,1.1782 -10.56707,1.32063 -15.804,1.40787c-5.53161,-0.45751 -11.57599,-1.57399 -16.76253,-3.63254c-2.23039,-0.88524 -4.81161,-1.60768 -6.47117,-3.46089c-2.115,-2.3618 -1.54872,-5.03785 -2.56448,-7.72222c-0.71968,-1.9019 -1.83726,-3.20385 -2.37365,-5.13052z" fill="url(#color-9)" stroke="#6552f3" stroke-width="0"/><path d="M264.78384,148.16137c-0.18946,0.0636 -0.33267,0.0636 -0.33267,0.0636l-1.88388,-0.48043c-0.68601,-0.95526 -2.24001,-2.4862 -3.09447,-2.92504c-0.46561,-0.23913 -1.04191,0.26295 -1.5,0c-0.9081,-0.52126 -1.24399,-2.14961 -2.13752,-2.71255c-8.95363,-5.64086 -18.76056,-4.85744 -28.03464,-1.82088c-4.00214,1.74162 -7.66882,4.94067 -11.19232,7.69392c-2.52193,1.97062 -4.05728,4.45196 -7.31433,1.96837c-3.00188,-2.28902 -4.30915,-7.35307 -5.92397,-11.06999c-0.5753,-1.32419 -1.73997,-4.83655 -2.26402,-3.47621c0.15276,2.15237 0.32189,4.72189 0.07901,6.85238c-0.73172,6.41849 -4.93202,9.74194 -9.34974,6.41363c-4.85058,-3.65443 -5.59658,-14.14968 -1.67918,-19.09622c0.44004,-0.55565 3.84176,-2.23499 3.91047,-2.26337c2.37853,-0.98239 3.30719,-0.05839 5.58481,-0.05839c2.73573,1.18625 5.09198,4.42596 8.14704,3.92785c2.17192,-0.35412 6.42481,-4.86815 2.64704,-6.71375c-6.12361,-2.99163 -13.07929,-1.20532 -18.7868,-6.13667c-4.76203,-6.82672 4.43062,-14.66254 9.0222,-15.99249c7.75338,-2.24577 14.98852,5.5833 18.20739,14.29453c1.65788,1.38133 1.99382,2.09428 3.91239,2.79128c1.6936,0.61527 2.06077,0.77245 3.75523,0.01876c1.07372,-0.47759 2.25737,-0.53961 3.27941,-1.18351c4.75036,-2.99277 2.82993,-11.97678 2.86587,-16.94405c0.02341,-3.23517 1.84816,-7.33016 2.77934,-10.21925c4.6007,-4.03384 9.31026,-0.10596 11.13691,6.34829c0.5257,1.85749 0.36162,3.99249 0.96832,5.80696c0.49409,1.47769 1.40652,2.76876 1.5993,4.36249c0.54542,4.50886 0.64143,10.16978 2.32945,13.8351c1.05248,2.28531 0.98045,4.25455 3.13691,5.14835c2.89322,-0.04715 5.51847,0.28114 7.97252,-2.23507c1.33207,-1.36582 0.90818,-4.03919 1.14899,-5.85626c0.15046,-1.13531 1.18421,-5.71993 1.55536,-6.75717c2.17244,-6.07125 9.6447,-7.19534 13.41538,-3.17235c1.70751,1.82176 1.91213,4.11392 2.4202,6.7758c0.82083,4.38732 0.8497,9.29441 2.41021,13.45575c0.3362,0.89653 1.34869,3.10202 2.3771,3.0171c1.29555,-0.10697 2.29644,-1.29349 3.20752,-2.2527c2.82275,-2.97191 6.00241,-5.63564 9.64197,-4.24312c0.6515,0.24927 1.37219,0.3831 1.90926,0.92745c0.55034,0.55781 0.76941,1.52379 1.20793,2.232c0.70815,1.14365 1.34506,2.41243 1.71918,3.80184c0.65315,2.65111 1.61543,10.73442 -0.45497,13.0035c-0.52256,0.57271 -1.36266,0.11574 -2.03066,0.28844c-1.34722,0.3483 -2.88049,1.25571 -3.73355,2.70143c-1.93883,3.28582 -5.59507,8.64626 -9.32891,7.09122c-3.52553,-1.46829 -6.33451,-8.27276 -7.81012,-12.15492c-0.54681,-2.92499 -1.68959,-5.03426 -2.50137,-7.87838c-0.44819,-1.57027 -0.76919,-3.61136 -2.1885,-4.24326c-1.56599,-0.69721 -3.31503,1.64841 -4.25388,2.87056c-2.83281,3.68761 -4.18213,11.45753 -4.13389,16.55546c0,0 0,1.6403 -1.25,1.6403c-1.25,0 -1.25,-1.6403 -1.25,-1.6403c0.00547,-0.75662 0.03274,-1.54716 0.08267,-2.36004z" data-paper-data="{&quot;index&quot;:null}" fill="url(#color-10)" stroke="#6552f3" stroke-width="0"/><path d="M239.89175,217.51692c-1.2438,-0.12438 -1.36818,1.11942 -1.36818,1.11942c-0.15185,1.58769 -0.01489,2.9205 0.29397,4.30338c-0.33667,1.80561 -1.38444,3.42821 -3.37098,4.38509c-0.77129,0.37152 -2.25687,0.30262 -3.59392,0.15862c-0.21604,0.03895 -0.36301,0.03895 -0.36301,0.03895l-2.12994,-0.13324c-1.04669,-0.49999 -2.47669,-0.54841 -3.14007,-1.49998c-2.21972,-3.18403 0.50974,-5.97201 1.63638,-8.72801c0.21234,-0.51944 0.33303,-1.10995 0.51611,-1.65556c-0.92838,-0.57778 -0.92838,-1.79505 -0.92838,-1.79505v-1.39514c0,-0.8735 -0.05397,-4.96422 0.23193,-5.42201c0.72747,-1.16485 2.20025,-1.64417 3.30038,-2.46625c4.37346,0.33316 8.17628,-0.01726 12.49925,-0.60165c1.96753,-0.26598 5.37497,-0.84459 6.96349,1.06345c0.7841,0.94181 0.40901,2.42501 0.43918,3.65013c0.03661,1.48668 -0.12389,2.88036 -0.50185,4.16175c3.26472,1.36513 5.04801,5.76746 5.4928,8.99629c0.15311,1.11145 0.6806,2.35825 0.17764,3.36113c-2.55655,5.0976 -9.24053,3.93909 -12.25505,0.2642c-0.13441,-0.16386 -0.29647,-0.43176 -0.47223,-0.76096c-0.3226,-1.75382 -0.8358,-3.43053 -1.35462,-5.15994c0,0 -0.23874,-0.79579 -0.97573,-0.89517c-0.06778,-0.37685 -0.30494,-0.91021 -1.09717,-0.98944z" fill="url(#color-11)" stroke="#6552f3" stroke-width="1"/><path d="M276.97364,172.0471c0.06484,0.19849 0.13718,0.32898 0.21783,0.35969c0.577,0.21965 1.26877,0.0237 1.83112,0.27854c0.3115,0.14117 3.47363,2.54556 3.86529,2.84074c0.29144,0.29022 3.58201,3.54644 3.72425,3.77725c2.63068,4.26872 0.41817,11.33667 -3.28391,14.43293c-2.63696,2.20544 -8.5485,3.79996 -12.06268,3.03199c-1.25941,-0.27523 -2.93326,-0.25416 -3.62772,-1.34024c-1.48413,-2.32107 1.35953,-5.64894 1.78188,-7.84934c0.92638,-4.82638 0.23819,-7.98542 -1.26924,-12.64768c0.3179,-2.44612 -2.12019,-2.65972 -4.41864,-2.85664c-3.51268,-0.30095 -7.42535,0.31758 -10.68966,1.5156c-3.13248,1.14964 -5.45308,6.10759 -7.444,8.43137c-0.92683,1.08179 -1.58118,3.03797 -3.00571,3.03797c-1.42453,0 -2.07824,-1.95674 -3.00571,-3.03797c-0.70533,-0.82227 -1.14433,-1.85507 -1.87645,-2.65358c-2.15986,-2.35573 -5.37197,-4.11908 -8.06158,-5.77051c-2.4123,-0.58922 -4.83982,-1.80839 -7.35855,-1.52288c-2.35164,0.26657 -5.35392,1.02218 -7.09726,2.74556c-3.3207,3.28268 -3.1285,9.58782 -2.74251,13.83364c0.3032,3.33515 3.45137,7.98207 -0.07527,10.69486c-1.34328,1.03329 -6.47382,0.3598 -8.28842,0.3598c-2.80582,-0.04257 -5.42176,-0.52355 -7.4136,-2.78384c-3.74504,-4.24976 -5.13707,-13.57313 -1.32901,-18.20321c1.2386,-1.50597 5.94324,-4.24388 8.27589,-2.77333c-0.05526,-0.72745 0.20948,-1.48695 0.08595,-2.21194c-0.11664,-0.68454 -0.61864,-1.25356 -0.79744,-1.92456c-1.29476,-4.85901 -0.00762,-8.84639 1.32057,-13.46023c1.98812,-4.00035 4.13679,-7.36207 7.08767,-10.68199c1.75156,-1.97062 3.19003,-4.11286 5.55655,-5.45116c2.13207,-1.20572 4.63058,-1.99913 6.86464,-3.01449c3.46238,-1.57362 6.84426,-3.16165 10.69606,-3.5218c4.4255,-0.41379 9.17332,0.96766 13.52501,1.69245c7.2775,1.21371 13.98463,3.37133 19.81704,7.97959c2.72839,2.15573 4.1905,5.64502 5.60479,8.71336c0.60174,1.30551 1.52529,2.44978 2.0941,3.76997c1.52748,3.54524 1.83938,9.14471 1.85643,12.99186c0,0 0,0.64452 -0.35769,1.2182z" fill="url(#color-12)" stroke="#6552f3" stroke-width="1"/><path d="M269.05872,145.72305c1.51074,0.29604 1.51074,1.95479 1.51074,1.95479v0.39995c-0.0203,4.58204 -1.40102,8.25634 -3.51402,11.90175c1.14315,-0.61331 2.30302,-1.18749 3.47253,-1.71751c1.06474,-0.48254 2.07077,-1.30058 3.23892,-1.34461c0.13475,-0.00508 0.26874,-0.003 0.40208,0.00524v-0.04609h1.99972c1.10442,0 1.99973,0.89531 1.99973,1.99973c0,0.45747 -0.15361,0.87905 -0.41206,1.21599l-1.18772,1.58362l-0.03578,-0.02683l-0.0533,0.13721c-6.40098,6.42783 -13.54225,9.73994 -22.01994,12.56583c-2.7525,1.1021 -8.93966,5.0477 -11.83296,2.1897c-0.92887,-0.91754 -0.22384,-2.64099 0.05492,-3.91651c0.22723,-1.03968 0.82325,-1.97932 1.42539,-2.85682c4.4031,-6.4167 12.96202,-7.85177 17.68731,-13.72263c2.0661,-2.567 2.72602,-6.75344 3.66694,-9.76438c0,0 0.59647,-1.90869 2.50516,-1.31223c0.54316,0.16974 0.88346,0.44575 1.09235,0.75379z" fill="url(#color-13)" stroke="#6552f3" stroke-width="0"/><path d="M212.92376,146.20958c1.6555,-0.51734 2.17284,1.13816 2.17284,1.13816c0.8161,2.61152 1.38847,6.2426 3.1805,8.46907c4.09845,5.09206 11.52198,6.33677 15.34098,11.90225c0.52226,0.7611 1.03922,1.57609 1.2363,2.47785c0.24178,1.10631 0.8533,2.60114 0.04764,3.39696c-2.50949,2.47887 -7.87589,-0.94332 -10.26325,-1.89923c-7.35308,-2.45102 -13.54702,-5.32376 -19.09887,-10.8989l-0.04622,-0.11902l-0.03104,0.02328l-1.03016,-1.37355c-0.22416,-0.29225 -0.3574,-0.65791 -0.3574,-1.05469c0,-0.95791 0.77654,-1.73444 1.73445,-1.73444h1.73445v0.03997c0.11565,-0.00715 0.23186,-0.00895 0.34874,-0.00454c1.01318,0.03819 1.88576,0.74771 2.80926,1.16624c1.01436,0.45971 2.02036,0.95773 3.01187,1.48968c-1.8327,-3.16183 -3.03025,-6.3487 -3.04786,-10.32291v-0.34689c0,0 0.00001,-1.43871 1.31034,-1.69548c0.18118,-0.26718 0.47633,-0.50658 0.94744,-0.6538z" data-paper-data="{&quot;index&quot;:null}" fill="url(#color-14)" stroke="#6552f3" stroke-width="0"/><path d="M264.36927,146.36996c0.05696,-0.51041 0.36913,-1.90912 2.08,-1.90912c2.09271,0 2.0927,2.09271 2.0927,2.09271l-0.29823,1.49522c-2.00457,3.33599 -3.22295,8.58348 -6.38108,11.04785c-0.66888,0.52194 -1.59904,0.58785 -2.3404,1.00041c-1.21909,0.6784 -2.13124,1.82925 -3.34833,2.51125c-4.48416,2.51272 -9.49506,4.42109 -11.17763,9.71948c0,0 -0.66178,1.98531 -2.64709,1.32354c-1.98531,-0.66177 -1.32354,-2.64709 -1.32354,-2.64709c2.22376,-6.43899 7.50306,-8.9684 13.09772,-12.04463c1.22251,-0.6722 2.12827,-1.83458 3.34833,-2.51125c0.57256,-0.31755 1.30946,-0.2971 1.84501,-0.67375c1.37592,-0.9677 2.0653,-3.63604 2.71224,-5.05584c0.99015,-2.173 1.30508,-2.63452 2.3403,-4.34879z" fill="url(#color-15)" stroke="#6552f3" stroke-width="0"/><path d="M236.73288,172.92161c-2.0927,0 -2.0927,-2.0927 -2.0927,-2.0927l0.41854,-0.41854c-1.76192,-2.34922 -3.2313,-4.31413 -5.9524,-5.659c-2.14308,-1.05919 -4.97452,-1.68408 -6.91875,-3.05745c-2.48639,-1.75635 -3.35178,-4.05733 -5.10142,-6.31877c-1.20278,-1.55461 -2.28701,-1.74284 -3.44592,-3.48418c-0.14777,-0.22205 -1.69223,-4.11551 -1.87011,-4.56021c0,0 -0.77721,-1.94303 1.16582,-2.72024c1.94303,-0.77721 2.72024,1.16582 2.72024,1.16582c0.50599,1.26498 0.72117,2.67787 1.47822,3.8106c0.8465,1.26658 2.31285,2.01197 3.25073,3.21246c1.39417,1.78455 2.14649,4.04613 4.10648,5.40037c1.82139,1.25848 4.48173,1.79594 6.47456,2.80212c3.30697,1.6697 5.28083,4.01714 7.4409,6.89723l0.41854,2.92978c0,0 0.00001,2.0927 -2.0927,2.0927z" fill="url(#color-16)" stroke="#6552f3" stroke-width="0"/><path d="M212.4183,199.34445l-1.47661,-1.23288c-0.279,-0.27851 -3.52885,-3.50684 -3.66218,-3.70887c-4.92408,-7.46108 -2.32686,-18.10252 4.60512,-23.09847c2.35788,-1.02495 4.60775,-2.21552 7.21558,-2.48866c4.92228,-0.51557 10.32854,1.61921 14.44283,4.20642c1.39154,0.87505 3.39397,2.49732 4.44389,3.82567c0.06381,0.08073 1.62363,3.05639 2.25614,3.19578c0.32119,0.07079 -0.23962,-0.66786 -0.13028,-0.97805c0.52606,-1.49237 2.05719,-3.1899 3.07178,-4.29c3.5444,-3.84312 8.55093,-6.14341 13.68263,-6.80536c3.38834,-0.00104 5.73577,0.33555 8.94682,1.52068c3.18279,1.1747 7.16632,3.38416 8.48422,6.79578c0.42917,1.11098 0.48382,4.27442 0.41507,5.58616c-0.30525,5.82433 -2.45717,9.93146 -5.29606,14.8948c-1.70112,2.97413 -3.60699,5.89183 -6.44929,7.9115c-2.58024,1.83346 -5.20842,2.43635 -8.22628,3.17224c-1.42935,0.00901 -2.93823,-0.58328 -4.28674,-0.10932c-1.39227,0.48934 -2.37124,1.88677 -3.79243,2.28437c-2.5224,0.70568 -5.32895,0.45302 -7.90506,0.7669c-1.47992,0.18032 -2.92655,0.6999 -4.41742,0.70033c-1.94344,0.00057 -4.24598,-0.9615 -5.75276,-2.16231c-1.45818,-1.16209 -0.93472,-1.90857 -2.66578,-2.40877c-5.22493,-1.50975 -9.79553,-3.36294 -13.50319,-7.57795z" fill="url(#color-17)" stroke="#6552f3" stroke-width="0"/><path d="M212.78422,193.94517c-1.70918,-4.52429 0.16951,-9.78926 5.30408,-10.56302c2.84584,-0.42885 5.55537,1.07519 7.9958,2.30513c1.71666,1.32606 3.95067,2.78893 5.0415,4.73327c1.47395,2.62726 1.91678,6.79755 1.92769,9.74036v0.68547c0,0 0.85683,1.62798 -0.85683,1.62798c-0.68309,0 -1.86503,0.24182 -2.11208,-0.08567c-6.47205,1.45416 -14.75034,-1.69401 -17.30016,-8.44353z" data-paper-data="{&quot;index&quot;:null}" fill="url(#color-18)" stroke="#6552f3" stroke-width="0"/><path d="M263.65227,193.61183c-2.54982,6.74952 -10.82811,9.89768 -17.30016,8.44352c-0.24705,0.32749 -1.42899,0.08568 -2.11208,0.08568c-1.71366,0 -0.85683,-1.62798 -0.85683,-1.62798v-0.68547c0.01092,-2.94281 0.45373,-7.1131 1.92769,-9.74036c1.09082,-1.94434 3.32485,-3.4072 5.0415,-4.73327c2.44043,-1.22994 5.14995,-2.73399 7.9958,-2.30513c5.13457,0.77375 7.01326,6.03873 5.30408,10.56302z" data-paper-data="{&quot;index&quot;:null}" fill="url(#color-19)" stroke="#6552f3" stroke-width="0"/><path d="M259.2066,142.79628c0.05593,-0.3482 0.28596,-1.06426 1.23203,-1.06426c1.25,0 1.25,1.25 1.25,1.25l-0.25,1c-2.90057,3.83187 -6.00645,8.65051 -11.29977,9.48386c-2.47671,0.38992 -4.56784,-0.13381 -7.02028,0.68987c-1.05307,0.40723 -1.87077,1.61575 -2.99908,1.57435c-0.78261,-0.02872 -2.28718,-1.82971 -3.40623,-2.01856c-1.80517,-0.30464 -3.70737,0.0955 -5.47487,-0.24566c-4.8372,-0.93366 -9.50097,-6.89938 -11.87164,-10.84074c0,0 -0.64311,-1.07186 0.42875,-1.71498c1.07187,-0.64312 1.71499,0.42874 1.71499,0.42874c1.60543,2.68295 3.70807,4.89366 6.06886,6.93111c1.13624,0.98062 2.50362,2.47201 4.05949,2.72815c1.81561,0.2989 3.6748,-0.10001 5.52513,0.25434c1.34516,0.25761 1.84578,0.23348 2.84365,1.2852c0.16973,0.17889 0.00698,0.73739 0.25012,0.69623c0.80747,-0.13667 1.24309,-1.11521 2.00093,-1.42565c2.63387,-0.87234 4.85283,-0.4184 7.47972,-0.81013c4.38284,-0.65357 7.10425,-4.9777 9.46819,-8.20189z" fill="url(#color-20)" stroke="#6552f3" stroke-width="0"/><path d="M236.19631,141.83976c3.3827,1.50347 7.78268,3.20577 10.49115,-0.60608c-0.01194,-0.01038 -0.02409,-0.02071 -0.03642,-0.03099c-1.37798,-1.14808 -4.56651,-0.86754 -6.24709,-1.22115c-1.84982,0.28126 -3.70531,-0.11131 -4.48333,1.77627c0.16622,0.0333 0.27568,0.08194 0.27568,0.08194zM244.1873,146.00755c0.45722,-0.09157 0.99417,-0.37685 1.49236,-0.77537c-2.23696,1.06498 -4.74787,0.86439 -7.24314,0.12237c1.57285,0.91499 3.53616,1.0965 5.75078,0.653zM233.43897,142.76912c-0.501,-0.58084 -0.11836,-1.34611 -0.11836,-1.34611l0.20743,-0.40523c1.41862,-3.28126 3.81295,-3.1128 6.94528,-3.53528c2.18322,0.41691 5.98924,0.16719 7.75291,1.77885c2.61764,2.39202 1.38444,6.64137 -1.39512,8.29292c-4.80203,2.85327 -10.91144,0.65191 -13.2605,-4.01324c0,0 -0.17952,-0.35904 -0.13164,-0.77192z" fill="url(#color-21)" stroke="#6552f3" stroke-width="0"/><path d="M236.1463,141.84047c0,0 -0.10947,-0.04944 -0.27569,-0.08274c0.77802,-1.88758 2.66099,-1.53958 4.51081,-1.82084c1.68058,0.35361 4.94135,0.11247 6.31933,1.26055c0.01233,0.01028 0.02451,0.02093 0.03645,0.03131c-2.70847,3.81185 -7.2082,2.11519 -10.5909,0.61172z" data-paper-data="{&quot;noHover&quot;:false,&quot;origItem&quot;:[&quot;Path&quot;,{&quot;applyMatrix&quot;:true,&quot;segments&quot;:[[[236.19631,141.83976],[0,0],[3.3827,1.50347]],[[246.68746,141.23368],[-2.70847,3.81185],[-0.01194,-0.01038]],[[246.65104,141.20269],[0.01233,0.01028],[-1.37798,-1.14808]],[[240.40395,139.98154],[1.68058,0.35361],[-1.84982,0.28126]],[[235.92062,141.75781],[0.77802,-1.88758],[0.16622,0.0333]],[236.1963,141.83975]],&quot;closed&quot;:true,&quot;fillColor&quot;:[0,0,0,1]}]}" fill="url(#color-22)" stroke="none" stroke-width="0.5"/><path d="M237.43722,171.36044c-0.04524,0.00369 -0.09234,0.00561 -0.14135,0.00561c-1.25,0 -1.25,-1.25 -1.25,-1.25l0.00242,-1.25566c-0.13855,-1.67291 -1.9706,-4.49677 -3.34449,-5.58429c-2.41955,-1.91523 -6.23805,-1.89519 -6.96573,-5.74205c-0.34442,-1.82075 1.01559,-6.45468 3.30612,-6.6651c1.61772,-0.14862 3.74435,2.31107 5.57646,2.49713c1.45763,-0.1857 2.1556,-0.38763 3.24887,-1.42262c0.54219,-0.51329 0.86056,-1.4657 1.60025,-1.5672c2.00244,-0.27476 2.43124,2.9313 4.69021,1.49696c1.53387,-0.97394 2.3739,-4.6838 4.56511,-4.50349c2.83057,0.23293 2.19603,4.54284 3.55646,5.96867c0.45647,0.47841 1.59217,0.00566 2.65392,-0.60602l-0.09987,-0.08322l0.82722,-0.99267c0.22925,-0.27908 0.57703,-0.4571 0.96639,-0.4571c0.69036,0 1.25,0.55964 1.25,1.25c0,0.05925 -0.00412,0.11755 -0.0121,0.1746l-0.16422,1.31377l-0.02784,-0.00348l0.01624,0.07796c-0.609,2.43561 -1.41085,5.27085 -3.46452,6.92631c-1.32467,1.06781 -3.0931,1.16162 -4.58213,1.81628c-1.37209,0.60325 -2.88571,1.75731 -4.07058,2.67277c-2.10373,1.62541 -1.81798,5.35328 -4.00556,6.61508c-1.2262,0.70727 -2.61131,-0.02552 -3.71153,-0.42289c0,0 -0.21068,-0.079 -0.41975,-0.25936z" fill="url(#color-23)" stroke="none" stroke-width="0.5"/></g></g></svg>