<svg version="1.1" xmlns="http://www.w3.org/2000/svg" xmlns:xlink="http://www.w3.org/1999/xlink" width="50.98647" height="57.5756" viewBox="0,0,50.98647,57.5756"><defs><radialGradient cx="240.00001" cy="180" r="28.2878" gradientUnits="userSpaceOnUse" id="color-1"><stop offset="0" stop-color="#ede500"/><stop offset="1" stop-color="#784f00"/></radialGradient></defs><g transform="translate(-214.50677,-151.2122)"><g data-paper-data="{&quot;isPaintingLayer&quot;:true}" fill-rule="nonzero" stroke-linecap="butt" stroke-linejoin="miter" stroke-miterlimit="10" stroke-dasharray="" stroke-dashoffset="0" style="mix-blend-mode: normal"><path d="M215.00677,208.2878v-56.5756h49.98647v56.5756z" fill="url(#color-1)" stroke="#ac7f1f" stroke-width="1"/><g stroke="none" stroke-width="0.5"><path d="M242.52381,170.81527c1.45184,0.253 3.55695,0.2075 2.80382,-2.04133c-0.25708,-0.76762 -2.08571,-1.02822 -2.59294,-0.77148c-0.31687,0.16039 -0.25006,1.91593 -0.21088,2.81281zM242.78823,172.39525c-0.51978,0.45475 -1.02331,-0.04877 -1.02331,-0.04877l-0.74414,-1.0591c0,-0.85071 -0.00765,-1.67136 0.09156,-2.51726c0.08155,-0.69534 0.07613,-1.54046 0.75819,-2.01909c0.63308,-0.44427 1.58235,-0.48914 2.48464,-0.259c-2.21682,-1.27526 -4.47152,-2.49092 -6.5479,-4.01705c-0.25364,0.05565 -0.5571,0.03949 -0.915,-0.10366c-1.41203,-0.56481 -0.84722,-1.97684 -0.84722,-1.97684l0.72668,-1.75553c1.27847,-1.43255 1.68389,-2.33354 3.68171,-2.80971c3.05465,-0.72805 6.88095,0.55109 9.66181,1.62312c4.35549,2.43816 5.91625,6.01485 5.43324,10.94335c-0.12974,1.32388 -0.60833,4.13593 -2.41852,4.41732c-0.91686,0.14252 -2.62385,-2.13029 -3.40607,-2.76947c-1.04175,-0.85127 -2.14289,-1.60231 -3.27291,-2.30532c0.12575,0.15763 0.22771,0.3252 0.30027,0.50078c0.81033,1.96087 -0.63089,4.19889 -2.62368,4.24327c-0.44706,0.00996 -0.89494,-0.02636 -1.33934,-0.08704z" fill="#ffffff"/><path d="M234.63595,191.71321c-0.72577,0.03222 -1.23671,-0.58091 -1.23671,-0.58091l-0.33065,-0.55665c-1.58799,-0.92904 -2.29619,-1.01166 -2.99819,-3.01784c-0.21607,-0.61749 -0.053,-1.30743 -0.06525,-1.96151c-0.03597,-1.9196 -0.26536,-3.91468 0.61941,-5.70398c0.16409,-0.33185 0.65559,-0.44647 0.77281,-0.79763c0.20989,-0.62877 -0.77602,-1.07547 -1.13867,-1.63035c-0.38684,-0.59188 -0.70213,-1.2258 -0.97303,-1.88193l-0.08966,0.05977l-0.90095,-1.35142c-0.16839,-0.24478 -0.26695,-0.54133 -0.26695,-0.86089c0,-0.83992 0.68089,-1.5208 1.5208,-1.5208c0.11298,0 0.22309,0.01232 0.32905,0.03569l1.49001,0.298l-0.00467,0.02335l0.07445,-0.00768c3.71519,1.11536 6.82566,3.51101 10.51935,4.56909c1.54686,0.44311 4.78717,-0.05688 6.00519,0.63021c0.1118,0.06307 0.21864,0.13235 0.32125,0.20693l0.02733,-0.04294l1.65128,1.05082c0.43549,0.26751 0.72592,0.74823 0.72592,1.29679c0,0.83992 -0.68089,1.5208 -1.5208,1.5208h-1.5208c-0.60832,0 -1.21665,0.00171 -1.82496,0c-0.88705,-0.00249 -1.90184,-0.51934 -2.6605,-0.05967c-0.1625,0.09846 0.19262,0.33594 0.2272,0.52276c0.08505,0.45951 0.07298,0.93201 0.12794,1.39608c0.03985,0.33649 -0.03911,0.72766 0.15636,1.00445c0.51222,0.72531 1.80763,0.34019 2.51562,0.87608c1.12256,0.84969 1.76564,1.70286 1.85033,2.78465c0.46998,0.05327 0.82465,0.31927 0.82465,0.31927c0.72828,0.56081 1.5701,0.98611 2.43879,1.28798c0.25294,-0.07134 0.45074,-0.07134 0.45074,-0.07134h0.91248c2.00339,0.02044 2.69867,-0.04157 3.23889,-2.04092c0.51271,-2.56166 1.19312,-6.61806 3.65803,-8.0346c1.90026,-1.09205 4.87391,-1.70808 5.26568,1.97099c0.18155,1.70492 -3.22935,2.26157 -3.77611,3.70113c-1.06309,2.79899 -1.46452,6.77582 -4.61082,8.24173c-0.67743,0.31563 -1.49322,0.15202 -2.23937,0.10962c-2.44292,-0.1388 -5.01234,-1.20013 -6.98204,-2.60027c-0.80614,1.23037 -2.04919,1.69989 -3.62674,1.84512c-0.97259,0.08953 -1.95564,-0.79098 -2.88744,-0.49822c-0.67028,0.21059 -1.10633,1.00615 -1.80385,1.09031c-1.53533,0.18525 -2.98875,-0.6575 -4.2654,-1.62205z" fill="#ffffff"/><path d="M232.00064,178.31489c-0.17855,0.17855 -0.3571,0.15946 -0.48096,0.10681c-0.11958,3.0332 -1.87132,6.46974 -0.78886,9.58536c1.31629,2.63258 5.16344,4.43284 8.09499,4.43284h0.15208c0,-0.45624 0,-0.91248 0,-1.36872v-0.45624c0,0 0,-0.45624 0.45624,-0.45624c0.45624,0 0.45624,0.45624 0.45624,0.45624c0,0.55763 0,1.5715 0,2.12912c0,0 0,0.42124 -0.40476,0.4542c-0.13435,0.15412 -0.35565,0.15412 -0.35565,0.15412h-0.30416c-3.31931,0 -7.45402,-2.02815 -8.93801,-4.99613c-0.7314,-2.25485 -0.1211,-5.39171 0.11921,-7.66768c0.09679,-0.91675 0.61228,-1.60326 0.60646,-2.54421c0,0 0,-0.18818 0.12086,-0.32283c-0.41558,-0.25593 -0.80369,-0.48198 -1.18019,-0.8533c-1.20709,-0.91804 -1.98228,-1.84928 -1.98228,-3.38628c0,-0.24759 -0.03429,-1.21926 0.13363,-1.38717c0.25322,-0.25322 1.32615,-0.13363 1.69133,-0.13363c1.78946,0 3.51877,0.46213 5.24381,0.46213c1.55745,0.50081 3.03728,1.32401 4.42914,2.19394c0.60355,0.37723 1.32511,1.1476 2.01736,1.31759c1.435,0.35238 3.40201,-0.01957 4.88644,-0.01957c2.1596,0 4.66037,0.07302 4.36942,2.93928c-0.02932,0.2888 -0.09425,1.2833 -0.35692,1.5959c-0.83958,0.99918 -3.71027,0.48347 -4.92499,0.48347c-0.42229,-0.00205 -1.15839,-0.05066 -1.54803,0.2105c-0.59236,0.39704 -0.06798,2.12138 0.41917,2.443c0.6286,0.41501 1.59606,0.24795 2.28245,0.39687c1.35593,0.29418 2.93703,1.78716 2.95259,3.18492c0,0.70337 0.11761,1.50966 -0.00589,2.2022c-0.59739,3.34983 -4.36038,4.03309 -7.14188,4.03309c0,0 -0.29129,0 -0.40837,-0.23275c-0.04199,-0.02862 -0.06632,-0.05295 -0.06632,-0.05295l-0.41438,-0.4825c-0.22234,-0.67276 -0.535,-1.30085 -0.7604,-1.97705c0,0 -0.14428,-0.43283 0.28855,-0.5771c0.43283,-0.14428 0.5771,0.28855 0.5771,0.28855c0.22558,0.67674 0.53427,1.30366 0.7604,1.97705l0.19395,0.12583c0,0 0.00612,0.00612 0.01584,0.01753c2.25433,-0.02256 5.64059,-0.47512 6.05481,-3.26584c0.09677,-0.65198 -0.00589,-1.39473 -0.00589,-2.05605c0.01526,-0.99239 -1.04344,-1.60893 -1.80926,-2.11599c-0.83384,-0.55211 -2.10611,-0.09473 -2.99302,-0.6896c-1.03359,-0.69325 -1.56644,-3.02712 -0.49331,-3.94437c0.49932,-0.42679 1.51385,-0.39536 2.1019,-0.39782c1.06456,0 2.12912,0 3.19369,0c0.24311,0 0.82569,0.13439 1.00615,-0.12485c0.21723,-0.31208 0.1364,-0.74903 0.1736,-1.12745c0.21291,-2.16561 -1.83344,-1.94138 -3.46095,-1.94138c-1.57192,0 -3.62495,0.36653 -5.15086,-0.01957c-0.78946,-0.19976 -1.56058,-0.99468 -2.24088,-1.41986c-1.28899,-0.8056 -2.66012,-1.56554 -4.08736,-2.0643c-1.5376,0 -3.048,-0.45035 -4.64141,-0.45035c-0.18163,0 -1.50235,-0.13363 -1.50235,-0.13363c0,0 0.07058,1.50639 0.11406,1.6743c0.10268,0.39656 0.56216,0.59641 0.82865,0.90753c0.26307,0.30712 0.53326,0.61689 0.85858,0.85706c0.45458,0.46177 0.93951,0.67383 1.47495,1.02961l0.3737,0.36117c0,0 0.32261,0.32261 0,0.64522z" fill="#000000"/><path d="M231.8215,182.26043c-0.12021,1.21052 -0.14396,4.4465 -0.83608,5.3668c-1.60106,2.12888 -3.4596,1.14718 -5.32092,2.43704c-0.58603,0.36458 -1.09916,0.88842 -1.7581,1.09374c-1.67418,0.52166 -5.49151,0.25703 -6.28397,-1.70649c-0.33496,-0.82995 0.19982,-1.81773 0.63104,-2.61117c-1.10094,-0.75826 -2.40731,-1.64842 -2.54378,-2.93451c-0.38307,-3.61025 3.92247,-2.18504 5.34905,-2.45202c0.75617,-0.14152 -0.04684,-1.70267 0.48789,-2.25573c0.79427,-0.82148 1.98358,-1.6583 3.10686,-1.44867c1.17245,0.21881 1.16795,2.64526 2.35982,2.68961c1.22068,0.04542 2.36695,-0.60564 3.55598,-0.88551c0,0 1.48038,-0.34833 1.8287,1.13205c0.19899,0.8457 -0.19883,1.32195 -0.57651,1.57487z" fill="#ffd73c"/><path d="M245.83559,190.79495c1.13189,-0.09675 2.39333,0.23748 3.27009,0.95985c1.36713,1.12638 -0.48018,2.08217 1.01165,2.73626c0.64269,0.28178 1.40042,0.21855 2.04728,0.49062c2.565,1.07884 4.61957,3.81797 2.18419,6.44179c-2.91922,3.14509 -7.64061,0.07364 -9.96592,-1.89147c-0.78986,-0.66751 -2.62001,-2.21354 -2.91274,-3.12548c-0.01939,-0.06042 -0.03705,-0.12116 -0.05309,-0.18219c-0.30934,-0.04374 -0.6515,-0.18473 -0.90688,-0.5426c0.00749,0.70219 -0.04876,1.38055 -0.23539,1.93458c-1.10212,3.27158 -4.11591,3.63943 -7.07594,3.64427c-2.85229,0.00467 -8.04943,0.97428 -8.65038,-3.11121c-0.51427,-3.49623 2.6899,-4.26692 5.28363,-3.85789c0.62964,0.0993 1.55073,0.94937 1.87041,0.39791c0.24936,-0.43016 0.09223,-0.94595 -0.04316,-1.46346c-0.21538,-0.26296 -0.35562,-0.643 -0.26477,-1.18811c0.25002,-1.50011 1.75013,-1.25009 1.75013,-1.25009l0.89372,0.14907c1.24564,0.19463 2.57369,-0.07647 3.76809,0.32716c0.90169,0.30471 1.64337,0.96065 2.46507,1.44098c0.03199,0.35819 0.07937,0.77047 0.12354,1.20879c0.10737,-0.15871 0.2408,-0.28361 0.36944,-0.37912c0.22755,-0.55316 0.77181,-0.94261 1.40704,-0.94261c0.1963,0 0.3839,0.03719 0.55617,0.10491c1.02114,-0.70446 1.89631,-1.79839 3.10786,-1.90195z" fill="#ffd73c"/><path d="M249.38442,181.33749l0.69036,0.12112c0.943,0.57069 2.14563,0.84726 2.82902,1.71209c0.5003,0.63314 0.43145,1.57936 0.40928,2.38601c-0.06911,2.51514 -0.17165,4.16101 -3.02991,4.68689c-0.75813,0.13949 -1.51829,-0.29767 -2.2451,-0.55452c-2.46594,-0.87146 -5.89996,-2.92401 -6.81326,-5.49518c-0.277,-0.77981 -0.28433,-1.70548 0,-2.48264c1.49087,-4.075 5.65942,-2.02565 8.15961,-0.37376z" fill="#ffd73c"/><path d="M245.10086,181.73593c0,0.7604 -0.7604,0.7604 -0.7604,0.7604l-0.34871,-0.00764c-0.64002,0.09033 -1.28614,0.1582 -1.9325,0.15972c0,0 -0.7604,0 -0.7604,-0.7604c0,-0.7604 0.7604,-0.7604 0.7604,-0.7604c0.57449,0.00155 1.14886,-0.06213 1.71743,-0.14444l0.56378,-0.00764c0,0 0.7604,0 0.7604,0.7604z" fill="#ffa93d"/><path d="M244.34045,183.86505c0,0.7604 -0.7604,0.7604 -0.7604,0.7604c-0.55763,0 -1.41941,0 -1.97705,0c0,0 -0.7604,0 -0.7604,-0.7604c0,-0.7604 0.7604,-0.7604 0.7604,-0.7604c0.55763,0 1.11526,0 1.67288,0h0.30416c0,0 0.7604,0 0.7604,0.7604z" fill="#ffa93d"/><path d="M248.67475,181.00205c0.0672,-0.01696 0.14288,-0.02652 0.22812,-0.02652c0.7604,0 0.7604,0.7604 0.7604,0.7604v0.7604c-0.00124,0.27844 -0.00247,0.55689 -0.0037,0.83533c-0.38715,1.98051 -1.0851,3.50164 -2.46346,4.9857c-0.23807,0.25632 -0.36288,0.66789 -0.69063,0.79023c-0.43382,0.16193 -2.74153,0.24509 -3.02743,-0.56081c-0.46601,-1.31364 1.57857,-1.87757 2.2194,-2.39154c1.45425,-1.16638 1.98876,-2.60012 1.98876,-4.4193c0,0 0,-0.7604 0.7604,-0.7604c0.08524,0 0.16092,0.00956 0.22812,0.02652z" fill="#ffa93d"/><path d="M227.91578,190.10035c-0.7604,0 -0.7604,-0.7604 -0.7604,-0.7604l0.01477,-0.45329c0.61981,-3.09908 0.35584,-5.56325 -1.27513,-8.28031c0,0 -0.39122,-0.65204 0.26082,-1.04326c0.65204,-0.39122 1.04326,0.26082 1.04326,0.26082c1.82365,3.04074 2.15412,5.90201 1.46232,9.36101l0.01477,0.15503c0,0 0,0.7604 -0.7604,0.7604z" fill="#ffa93d"/><path d="M235.8357,160.98969c0.00411,0.10165 -0.01448,0.2166 -0.06613,0.34573c-0.28241,0.70602 -0.98842,0.42361 -0.98842,0.42361c-0.93343,-0.37986 -1.58509,-0.40324 -2.60712,-0.40185c-0.36442,0.00049 -0.88701,-0.4438 -1.08456,-0.13758c-0.21729,0.3368 -0.24549,1.51674 -0.28918,1.89768c-0.24638,2.14824 -0.01011,4.21159 -0.80674,6.27071c-0.18168,0.46961 -0.62754,1.84458 -1.21621,2.42853c1.39996,-0.37803 3.84296,0.16366 4.87488,0.53684c3.05129,1.10344 5.89224,2.69905 9.02531,3.61656c1.98127,0.58021 3.96336,0.45493 5.93475,1.1211c0.28948,0.17232 1.35222,0.76043 1.58867,1.06563c0.07978,0.10298 -0.11003,0.44841 0.00677,0.39074c0.23414,-0.1156 0.94367,-1.41528 1.116,-1.66096c0.93909,-1.33887 3.19462,-2.93496 2.91567,-4.73983c-0.11905,-0.77029 -0.83663,-0.95099 -1.37082,-1.35189c-1.54412,-1.15887 -3.37,-2.28096 -4.71449,-3.64993c-4.20534,-2.05046 -7.66575,-5.55473 -12.31839,-6.15508zM233.57647,159.88592c0.14726,-0.50579 0.72669,-0.50579 0.72669,-0.50579h0.15208c5.7228,0 9.72137,4.04672 14.58808,6.53091c1.38315,1.36157 3.156,2.48186 4.71449,3.64993c0.9104,0.68234 1.72806,1.04264 1.97495,2.29804c0.4929,2.50633 -2.26916,4.71967 -3.63621,6.53117c-0.50375,0.66753 -1.10158,1.60265 -2.06526,1.66775c-0.40765,0.02754 -0.59421,-0.56151 -0.90571,-0.8259c-0.36676,-0.31129 -0.73577,-0.50893 -1.14878,-0.75933c-1.87371,-0.61485 -3.7948,-0.48486 -5.69426,-1.03416c-3.40206,-0.98382 -6.41538,-3.13943 -9.84219,-3.93903c-2.13671,-0.49857 -3.64958,0.15735 -5.70663,-0.96582c0.83799,-1.91516 2.22517,-3.61354 2.4024,-5.77655c0.16373,-1.99822 -0.50992,-5.1905 1.08086,-6.78319c0.28374,-0.28408 0.79612,-0.10943 1.19664,-0.13758c0.74677,-0.0525 1.46101,-0.04693 2.16284,0.04955z" fill="#b4b195"/><path d="M248.18237,167.13357c1.34449,1.36896 3.17238,2.50499 4.7165,3.66386c0.53418,0.4009 1.25137,0.58445 1.37042,1.35474c0.27895,1.80486 -1.98186,3.41324 -2.92095,4.75211c-0.17233,0.24569 -0.88508,1.54911 -1.11922,1.66472c-0.1168,0.05767 0.02973,-0.33051 -0.05005,-0.43349c-0.23645,-0.3052 -1.25614,-0.85034 -1.54562,-1.02266c-1.97139,-0.66617 -3.96907,-0.53283 -5.95034,-1.11304c-3.13307,-0.91751 -6.00851,-2.53354 -9.05979,-3.63698c-1.03192,-0.37318 -3.47605,-0.91953 -4.87601,-0.54151c0.58866,-0.58395 1.03416,-1.96474 1.21584,-2.43436c0.79663,-2.05912 0.56492,-4.13749 0.8113,-6.28574c0.04369,-0.38094 0.07421,-1.56412 0.2915,-1.90093c0.19756,-0.30622 0.72106,0.137 1.08548,0.13651c1.02203,-0.00138 1.67672,0.01907 2.61015,0.39893c0,0 0.70846,0.28055 0.99087,-0.42546c0.05165,-0.12912 0.07084,-0.24448 0.06673,-0.34613c4.65264,0.60035 8.15786,4.11896 12.3632,6.16942z" data-paper-data="{&quot;noHover&quot;:false,&quot;origItem&quot;:[&quot;Path&quot;,{&quot;applyMatrix&quot;:true,&quot;segments&quot;:[[[476.41932,278.09995],[15.29666,1.97379],[0.01351,0.33419]],[[476.2019,279.23661],[0.16981,-0.42453],[-0.92848,2.32119]],[[472.95223,280.62932],[0,0],[-3.06886,-1.24886]],[[464.38071,279.30813],[3.36017,-0.00455],[-1.19811,0.00162]],[[460.81495,278.8558],[0.64952,-1.00678],[-0.71439,1.10732]],[[459.86421,285.09489],[0.14364,-1.25244],[-0.81002,7.06286]],[[457.21186,305.71133],[2.6191,-6.76984],[-0.59733,1.54397]],[[453.21329,313.69569],[1.93537,-1.91988],[4.60269,-1.24286]],[[469.2406,315.46067],[-3.39268,-1.2269],[10.03184,3.62782]],[[498.91345,327.35098],[-10.30072,-3.01655],[6.51389,1.90758]],[[518.42535,331.03685],[-6.48142,-2.19018],[0.95175,0.56653]],[[523.64848,334.54037],[-0.77737,-1.00341],[0.26229,0.33856]],[[523.67075,335.82502],[-0.38402,0.18961],[0.76979,-0.38008]],[[527.33986,330.3642],[-0.56657,0.80776],[3.08749,-4.40184]],[[536.92582,314.7809],[0.91711,5.93391],[-0.39141,-2.5325]],[[532.41893,310.33624],[1.75626,1.31807],[-5.07667,-3.81005]],[[516.91893,298.33624],[4.42032,4.5008],[-13.82605,-6.74137]]],&quot;closed&quot;:true}]}" fill="#b4b195"/><path d="M232.93986,172.77512c-0.10718,0.15665 -0.29268,0.29223 -0.61375,0.29223c-0.59785,0 -0.72565,-0.47004 -0.75297,-0.67101c-0.17695,-0.07855 -0.5517,-0.30767 -0.45679,-0.81249c-1.39075,-2.18549 -1.98972,-4.43133 -1.98133,-7.09572c0.09486,-0.57607 0.29798,-2.018 0.55235,-2.44105c1.71357,-2.84992 6.28126,-0.02184 8.55488,0.38711c1.75859,0.31631 5.24138,0.42818 6.17001,2.38492c0.80721,1.7009 -0.32996,2.94863 -1.80116,3.42018c-1.02922,0.8504 0.58739,3.24849 -0.7604,4.25825c-0.89811,0.67286 -1.14714,-0.43234 -1.8523,-0.22323c-0.52906,0.1569 -0.38881,1.12039 -0.85297,1.41884c-1.28125,0.82382 -3.3561,-0.92304 -4.32233,-1.42523c-0.33379,-0.17349 -0.7468,0.41612 -0.8878,0.45624c-0.35238,0.10027 -0.67791,0.10045 -0.99543,0.05096zM231.70548,172.44234c-0.00204,-0.00058 -0.00409,-0.00117 -0.00614,-0.00174l0.01844,0.01844c-0.00411,-0.00557 -0.00821,-0.01113 -0.01231,-0.0167z" fill="#4a0100"/><path d="M245.14075,177.1416c-0.47502,-0.59378 0.11876,-1.06879 0.11876,-1.06879l0.53997,-0.43053c0.45613,-0.3258 0.91272,-0.65096 1.36989,-0.9753c1.0754,-1.0627 1.42444,-3.79992 2.68202,-4.4575c1.04527,-0.54656 2.67053,0.67993 3.13655,1.52284c0.71619,1.29542 0.25386,5.48345 -1.36343,6.23527c-0.49553,0.23035 -1.0946,-0.05962 -1.63128,-0.16245c-1.23715,-0.23704 -2.34163,-0.54924 -3.62025,-0.67602l-0.16344,0.13125c0,0 -0.59378,0.47501 -1.06879,-0.11876z" fill="#5e200c"/><path d="M231.70898,173.17835c-0.3246,-0.67123 0.34663,-1.00684 0.34663,-1.00684l0.51387,-0.16718c2.56575,0 6.69707,1.02195 8.39901,-1.37819c-0.09141,-1.69755 0.59806,-4.66651 2.05256,-5.82261c2.014,-1.60082 4.72435,1.01568 6.1273,2.26262c0.61142,0.54342 1.25053,0.98667 1.52242,1.80613c0.58293,1.75689 -0.42432,3.17416 -1.1703,4.66704c-0.88719,1.7665 -2.61511,3.6799 -4.70937,3.89446c-2.19165,0.22453 -4.81298,-1.12692 -6.87674,-1.70286c-1.93657,-0.54044 -3.96667,-0.95506 -5.77185,-1.85153c0,0 -0.46735,-0.23367 -0.43353,-0.70102z" fill="#b37a37"/><path d="M238.05947,173.90202c0.08011,-0.16023 0.1791,-0.26383 0.28363,-0.3286c0.15568,-0.2264 0.41675,-0.31342 0.41675,-0.31342c1.266,-0.40745 2.24358,-0.25863 3.5308,-0.12222c0.60703,0.06433 1.47282,-0.16355 2.00772,0.21748c0.5995,0.42706 0.98491,1.87045 0.55371,2.51783c-1.41063,2.11778 -4.98815,-0.05351 -6.34168,-0.89927l-0.11086,-0.0516c0,0 -0.68012,-0.34006 -0.34006,-1.02019z" fill="#b33b3b"/><path d="M242.00066,168.78412c-0.03844,-0.02581 -0.0772,-0.05755 -0.11597,-0.09612c-0.43871,-0.43642 -0.00228,-0.87513 -0.00228,-0.87513l0.19951,-0.20055c0.72307,-0.72548 1.70711,-1.77572 2.83328,-1.7889c2.15424,-0.02521 2.90683,3.17598 2.2635,4.69523c-0.8679,2.04955 -3.51268,2.39383 -4.75261,0.59178c-0.50711,-0.73701 -0.54656,-1.52232 -0.42541,-2.3263z" fill="#e0e0e0"/><path d="M242.5802,169.37526c-0.19632,-0.58655 -0.38663,-1.73929 0.01904,-2.07788c0.5025,-0.41939 1.55867,0.1342 1.94775,0.42585c0.35127,0.2635 0.75489,0.47128 0.8795,0.92877c0.65939,2.42105 -2.81285,3.19738 -2.85197,0.77214c0,0 0,-0.02009 0.00569,-0.04889z" fill="#4a0100"/><path d="M242.5613,169.04487c-0.07008,-0.17224 0.07663,-0.31895 0.07663,-0.31895l0.35026,-0.22427c3.28376,0 0.52077,4.03532 -0.42764,0.72568c0,0 -0.02536,-0.08876 0.00076,-0.18246z" fill="#8d0200"/></g></g></g></svg>