<svg version="1.1" xmlns="http://www.w3.org/2000/svg" xmlns:xlink="http://www.w3.org/1999/xlink" width="148.36512" height="344.56137" viewBox="0,0,148.36512,344.56137"><defs><linearGradient x1="213.239" y1="250.8695" x2="213.239" y2="313.12348" gradientUnits="userSpaceOnUse" id="color-1"><stop offset="0" stop-color="#2c2837"/><stop offset="1" stop-color="#414f69"/></linearGradient><linearGradient x1="223.12049" y1="316.335" x2="242.88365" y2="316.335" gradientUnits="userSpaceOnUse" id="color-2"><stop offset="0" stop-color="#2d3047"/><stop offset="1" stop-color="#353d56"/></linearGradient></defs><g transform="translate(-165.81743,-7.59431)"><g data-paper-data="{&quot;isPaintingLayer&quot;:true}" fill-rule="nonzero" stroke-linejoin="miter" stroke-miterlimit="10" stroke-dasharray="" stroke-dashoffset="0" style="mix-blend-mode: normal"><path d="M274.5048,212.33136c0,0 22.56862,-5.34678 8.88456,21.48865c-11.28866,22.13783 -22.22471,4.20344 -22.22471,4.20344" fill="#984a19" stroke="#000000" stroke-width="0" stroke-linecap="round"/><path d="M184.08825,236.04714c0,0 -13.64838,8.06346 -16.70637,-3.64095c-7.0982,-27.16801 12.25968,-23.53339 12.25968,-23.53339" fill="#984a19" stroke="#000000" stroke-width="0" stroke-linecap="round"/><path d="M228.06129,153.5359l2.47038,-18.77502l6.91711,6.42304l12.84608,-13.83418l4.9408,14.32832l6.45262,0.73814l-0.02962,19.51912z" fill="#9a481f" stroke="#000000" stroke-width="0" stroke-linecap="round"/><path d="M236.95471,254.32808l20.75129,26.68026l12.4418,27.17437l-23.80564,-1.97628l-17.78684,-31.12699z" fill="#954b1f" stroke="#000000" stroke-width="0" stroke-linecap="round"/><path d="M239.69962,295.43539l32.0864,18.00689c0,0 10.34764,6.51554 19.85953,-1.51398c16.91261,-12.0416 -6.15674,-22.92274 -0.1848,-27.48387c15.97516,-12.20129 21.18152,8.45928 22.41325,16.23721c2.16278,8.92509 -7.45435,23.50827 -16.03516,28.3871c-9.9035,5.63087 -28.15381,-1.65527 -28.15381,-1.65527l-32.7742,-17.64976" fill="#934520" stroke="#000000" stroke-width="0" stroke-linecap="round"/><path d="M210.76852,272.609l-14.32829,51.87835l-19.26905,-1.97635l-1.48224,-8.89342l-3.95262,-5.43487l9.38749,-19.76315l20.75133,-25.19805z" fill="#9e4e23" stroke="#000000" stroke-width="0" stroke-linecap="round"/><path d="M180.02116,291.40645l2.69498,-0.33683l2.69498,3.03187h4.71624l1.01061,2.35808l3.70559,1.68436l2.35808,2.69498h2.35808l-3.03184,23.58108l-19.53856,-2.35808l-1.34751,-9.09558l-4.37934,-5.05306z" fill="#cf8333" stroke="#000000" stroke-width="0" stroke-linecap="round"/><path d="M252.44858,302.18638l3.70562,4.37931l3.0318,-2.35812l5.05313,2.35812l2.35808,-3.3687l7.41121,10.44302l-2.35808,13.81175l-9.4324,7.74804l-11.1168,-0.33683v-7.07432l-6.06367,-1.34747l1.01061,-22.57046z" fill="#d98b39" stroke="#000000" stroke-width="0" stroke-linecap="round"/><path d="M236.32587,249.88136l5.43487,55.33684l-23.22171,8.89342l-19.76319,-10.37563l3.95262,-55.83091z" fill="#873515" stroke="#000000" stroke-width="0" stroke-linecap="round"/><path d="M207.03828,260.07737l19.87545,4.7162l2.69498,43.45653l-11.1168,4.71617l-18.52798,-10.77991z" fill="#ce893e" stroke="#000000" stroke-width="0" stroke-linecap="round"/><path d="M271.86367,220.85057c0,0 10.12161,-2.39795 3.98456,9.63727c-5.06276,9.92845 -9.96741,1.88518 -9.96741,1.88518" fill="#cd7b38" stroke="#000000" stroke-width="0" stroke-linecap="round"/><path d="M184.08829,230.61501c0,0 -7.06783,4.17565 -8.65144,-1.88552c-3.67583,-14.06901 6.3487,-12.18677 6.3487,-12.18677" fill="#c7732b" stroke="#000000" stroke-width="0" stroke-linecap="round"/><path d="M243.87189,152.81496c38.60117,2.11038 38.0441,50.39611 38.0441,50.39611c0,0 -2.76969,51.89979 -67.19475,49.90197c-46.8885,-1.45392 -39.03227,-42.49076 -39.03227,-42.49076c0,0 -16.92699,-62.46025 68.18292,-57.80726z" fill="#a15322" stroke="#000000" stroke-width="0" stroke-linecap="round"/><path d="M220.15601,310.65308l4.9408,31.62106l-28.65658,3.95262l-5.92894,-11.36384l18.28095,-5.43487l-7.90528,-10.37566l-0.98814,-16.7987z" fill="#9e4616" stroke="#000000" stroke-width="0" stroke-linecap="round"/><path d="M221.50351,325.47542l3.59333,16.7987l-28.65658,3.95262l-5.92894,-11.36384l18.28091,-5.43483l-1.16786,-2.62759z" fill="#c47a2a" stroke="#000000" stroke-width="0" stroke-linecap="round"/><path d="M233.00209,325.96949l11.85787,18.77502l0.49407,7.41118l-20.75133,-0.49407l-4.9408,-25.69212z" fill="#cd8132" stroke="#000000" stroke-width="0" stroke-linecap="round"/><path d="M200.39292,250.8695l29.15071,55.33691l-6.42301,6.91708l-26.18623,-57.80726z" fill="url(#color-1)" stroke="#000000" stroke-width="0" stroke-linecap="round"/><path d="M227.07315,305.71233l-7.41115,-11.36384l-3.95262,-12.35194l10.37566,-6.42304l8.39935,4.94076l6.91711,21.24543z" fill="#dcd6ae" stroke="#000000" stroke-width="0" stroke-linecap="round"/><path d="M228.53075,241.54939l-0.33689,8.0849l-28.6341,-1.34747l-0.33689,-6.40057c0,0 -18.61623,-5.55586 -20.88606,-14.14861c-2.26983,-8.59278 -9.23857,-32.22522 4.71617,-39.41405c13.95474,-7.18882 28.29728,22.57046 28.29728,22.57046c0,0 13.13451,-24.54403 26.94981,-22.57046c13.81526,1.97364 28.52953,17.12162 26.27602,33.35034c-3.96848,28.57949 -36.04532,19.87545 -36.04532,19.87545z" fill="#dc8d2f" stroke="#000000" stroke-width="0" stroke-linecap="round"/><path d="M202.17788,218.28203c1.70664,9.50939 -2.1282,18.31452 -8.56546,19.66688c-6.43719,1.35232 -13.03914,-5.2602 -14.74578,-14.76955c-1.70664,-9.50939 2.12824,-18.31452 8.56542,-19.66688c6.43719,-1.35232 13.03907,5.2602 14.74574,14.76952z" fill="#ffffff" stroke="#000000" stroke-width="0" stroke-linecap="butt"/><path d="M254.25849,222.45995c0,10.50559 -7.63163,19.02208 -17.04574,19.02208c-9.41411,0 -17.04574,-8.5165 -17.04574,-19.02208c0,-10.50559 7.63166,-19.02205 17.04574,-19.02205c9.41411,0 17.04574,8.51646 17.04574,19.02205z" fill="#ffffff" stroke="#000000" stroke-width="0" stroke-linecap="butt"/><path d="M237.7742,220.97775c0,5.04811 -2.21208,9.14049 -4.9408,9.14049c-2.72872,0 -4.94076,-4.09234 -4.94076,-9.14049c0,-5.04811 2.21204,-9.14046 4.94076,-9.14046c2.72872,0 4.9408,4.09231 4.9408,9.14046z" fill="#53382f" stroke="#000000" stroke-width="0" stroke-linecap="butt"/><path d="M201.36721,220.23661c0,4.08071 -1.62216,7.38871 -3.62322,7.38871c-2.00106,0 -3.62322,-3.30803 -3.62322,-7.38871c0,-4.08071 1.62216,-7.38874 3.62322,-7.38874c2.00106,0 3.62322,3.30803 3.62322,7.38874z" fill="#53382f" stroke="#000000" stroke-width="0" stroke-linecap="butt"/><path d="M226.69275,280.41355l-6.06367,3.36873" fill="none" stroke="#c7c19d" stroke-width="0.5" stroke-linecap="round"/><path d="M223.40829,289.17717l6.06367,-3.3687" fill="none" stroke="#c7c19d" stroke-width="0.5" stroke-linecap="round"/><path d="M232.41465,291.85731l-6.06371,3.3687" fill="none" stroke="#c7c19d" stroke-width="0.5" stroke-linecap="round"/><path d="M229.29362,301.43833l6.06367,-3.3687" fill="none" stroke="#c7c19d" stroke-width="0.5" stroke-linecap="round"/><path d="M242.38958,302.25372l1.38342,26.82848l-22.72761,-1.65514l-1.92692,-24.72867z" fill="url(#color-2)" stroke="#000000" stroke-width="0" stroke-linecap="round"/><path d="M183.10015,184.66289l19.26905,-2.96445l2.96448,10.37566l-20.75133,2.47042z" fill="#672e09" stroke="#000000" stroke-width="0" stroke-linecap="round"/><path d="M238.93106,184.16882l-0.49407,10.86977l-22.72764,-1.97635l2.96448,-12.35198z" fill="#672e09" stroke="#000000" stroke-width="0" stroke-linecap="round"/><path d="M246.47798,119.29009c0,7.52104 -7.96344,13.61805 -17.78684,13.61805c-9.82341,0 -17.78684,-6.09702 -17.78684,-13.61805c0,-7.52104 7.96344,-13.61805 17.78684,-13.61805c9.82341,0 17.78684,6.09702 17.78684,13.61805z" fill="#ffe51a" stroke="#faffc5" stroke-width="0.5" stroke-linecap="butt"/><path d="M262.04147,27.57662c0,4.52465 -1.90277,19.82847 -4.34777,34.93588c-3.44394,21.27964 -9.6046,43.2634 -27.33506,43.71533c-20.52208,0.52313 -21.65974,-23.66495 -21.02836,-45.59209c0.42752,-14.84791 0.4623,-28.65912 0.4623,-33.05913c0,-10.89786 11.69632,-19.73229 26.12446,-19.73229c14.42811,0 26.12443,8.83443 26.12443,19.73229z" fill="#ffe51a" stroke="#faffc5" stroke-width="0.5" stroke-linecap="butt"/><path d="M216.46089,242.50369c0,0 -4.00861,1.10649 -5.84085,0.96553c-1.78964,-0.13765 -5.02775,-1.80158 -5.02775,-1.80158" fill="none" stroke="#c47a2a" stroke-width="2.5" stroke-linecap="round"/></g></g></svg>