<svg version="1.1" xmlns="http://www.w3.org/2000/svg" xmlns:xlink="http://www.w3.org/1999/xlink" width="25.51202" height="7.59419" viewBox="0,0,25.51202,7.59419"><g transform="translate(-242.24887,-176.50442)"><g data-paper-data="{&quot;isPaintingLayer&quot;:true}" fill-rule="nonzero" stroke-linecap="round" stroke-linejoin="miter" stroke-miterlimit="10" stroke-dasharray="" stroke-dashoffset="0" style="mix-blend-mode: normal"><path d="M242.82949,183.79755c-1.80044,-0.83779 1.61626,-3.39389 1.61626,-3.39389c0,0 -3.16832,-2.56073 -1.89521,-3.1736c3.26547,-2.7669 4.80133,3.27066 4.80133,3.27066c0,0 -0.98703,4.83145 -4.52239,3.29682z" fill="#920000" stroke="#8a8a8a" stroke-width="0"/><path d="M267.56089,180.08628l-4.81866,0.08236" fill="none" stroke="#282723" stroke-width="0.4"/><path d="M258.06872,177.50695c4.33123,0.05161 5.76945,2.42055 5.76945,2.42055c0,0 -0.08149,2.38456 -5.67015,2.75021c-7.79286,0.50987 -15.01288,-2.35315 -15.01288,-2.35315c0,0 9.15964,-2.88618 14.91359,-2.81764z" fill="#282723" stroke="#602a0d" stroke-width="0"/><path d="M263.57675,180.13573c0,0 -4.56461,-0.64963 -7.25932,-0.59788c-3.27786,0.06295 -11.74265,0.20923 -11.74265,0.20923c0,0 8.73891,-1.25433 13.05407,-1.60887c4.31513,-0.35454 5.9479,1.99751 5.9479,1.99751z" fill="#44423e" stroke="#000000" stroke-width="0"/></g></g></svg>