<svg version="1.1" xmlns="http://www.w3.org/2000/svg" xmlns:xlink="http://www.w3.org/1999/xlink" width="103.35106" height="116.95729" viewBox="0,0,103.35106,116.95729"><defs><radialGradient cx="244.23011" cy="194.84721" r="14.52373" gradientUnits="userSpaceOnUse" id="color-1"><stop offset="0" stop-color="#333344"/><stop offset="1" stop-color="#2d2d40"/></radialGradient><linearGradient x1="258.76016" y1="199.32435" x2="274.82648" y2="194.58856" gradientUnits="userSpaceOnUse" id="color-2"><stop offset="0" stop-color="#566183"/><stop offset="1" stop-color="#7a8dd0"/></linearGradient><linearGradient x1="244.73122" y1="121.10987" x2="244.7496" y2="165.21925" gradientUnits="userSpaceOnUse" id="color-3"><stop offset="0" stop-color="#333342"/><stop offset="1" stop-color="#63636c"/></linearGradient><linearGradient x1="209.3621" y1="172.83878" x2="241.3367" y2="172.82545" gradientUnits="userSpaceOnUse" id="color-4"><stop offset="0" stop-color="#22292d"/><stop offset="1" stop-color="#414456"/></linearGradient><radialGradient cx="224.8752" cy="184.74376" r="9.22432" gradientUnits="userSpaceOnUse" id="color-5"><stop offset="0" stop-color="#38ff00"/><stop offset="1" stop-color="#209600"/></radialGradient></defs><g transform="translate(-185.75828,-119.80719)"><g data-paper-data="{&quot;isPaintingLayer&quot;:true}" fill-rule="nonzero" stroke-linejoin="miter" stroke-miterlimit="10" stroke-dasharray="" stroke-dashoffset="0" style="mix-blend-mode: normal"><g><path d="M256.11471,193.31812l4.83245,15.46157l-7.46133,5.49813l-5.57854,-2.64275l-1.02195,-7.27189l-5.15325,-0.26298l-1.48748,9.64373l-6.05152,1.64776l-5.12512,-5.50829l4.1953,-17.18925c0,0 6.03324,2.39708 10.80479,2.12614c4.77151,-0.27094 12.04661,-1.50213 12.04661,-1.50213z" data-paper-data="{&quot;index&quot;:null}" fill="#d88e33" stroke="#3f4053" stroke-width="0.5" stroke-linecap="round"/><path d="M210.59199,210.93241l-11.86958,3.09189c0,0 -10.26759,-11.67296 -12.25404,-21.2018c-3.35493,-16.09336 12.73858,-23.00575 12.73858,-23.00575l6.69867,7.64886c0,0 -10.84381,8.55958 -8.63507,15.14932c2.18762,6.52679 13.51119,10.76805 13.51119,10.76805z" fill="#00b701" stroke="#3f4053" stroke-width="0.5" stroke-linecap="round"/><path d="M237.60454,207.86413l-1.18177,5.36944" data-paper-data="{&quot;index&quot;:null}" fill="none" stroke="#bd6914" stroke-width="0.25" stroke-linecap="round"/><path d="M233.17328,207.0305l-0.90369,4.10604" data-paper-data="{&quot;index&quot;:null}" fill="none" stroke="#bd6914" stroke-width="0.25" stroke-linecap="round"/><path d="M199.74464,211.47045c0,0 -9.70383,-8.8712 -11.57859,-18.75269c-1.98981,-10.4881 7.10354,-18.72539 7.10354,-18.72539" fill="none" stroke="#00eb02" stroke-width="0.25" stroke-linecap="round"/><path d="M190.01744,179.16675l6.57231,2.41301" fill="none" stroke="#006e00" stroke-width="0.25" stroke-linecap="round"/><path d="M198.22603,186.85352l-9.72036,-0.31798" fill="none" stroke="#006e00" stroke-width="0.25" stroke-linecap="round"/><path d="M188.27077,194.41549l7.67496,-1.99594" fill="none" stroke="#006e00" stroke-width="0.25" stroke-linecap="round"/><path d="M200.7851,196.46192l-11.47952,5.16526" fill="none" stroke="#006e00" stroke-width="0.25" stroke-linecap="round"/><path d="M195.68705,217.81106l7.12073,-10.49719" fill="none" stroke="#006e00" stroke-width="0.25" stroke-linecap="round"/><path d="M234.03253,185.7679l-1.41316,22.87868l6.51131,2.49455l1.07466,8.93431l-4.16963,2.77065c0,0 -2.76021,4.99425 -4.22171,7.22856c-1.51487,2.3159 -4.71301,6.43095 -4.71301,6.43095l-21.25053,-1.5195c0,0 -2.25178,-4.90964 -3.1521,-7.33135c-0.80703,-2.17057 -2.0008,-6.5282 -2.0008,-6.5282l-5.77625,-0.69716l4.97028,-36.36063z" fill="#727898" stroke="#3f4053" stroke-width="0.5" stroke-linecap="round"/><path d="M230.99441,183.6803l-1.56803,35.81984l-14.80867,3.09214l-14.7533,-4.11454l4.48186,-35.8101z" fill="#636480" stroke="#3f4053" stroke-width="0" stroke-linecap="round"/><path d="M228.89444,222.4459l-5.55226,10.07264l-16.84191,0.78639l-4.79105,-11.96431l13.30493,2.64972z" fill="#636381" stroke="#3f4053" stroke-width="0" stroke-linecap="round"/><path d="M204.08136,216.22239c0,0 -1.75561,-0.03764 -1.43361,-2.34746c0.29297,-2.10142 1.43807,-2.26309 1.43807,-2.26309l10.52247,4.37287l10.12715,-4.0379c0,0 1.07538,-0.31712 1.59417,1.7688c0.58121,2.33707 -1.59866,2.84171 -1.59866,2.84171l-10.37878,4.03388z" fill="#32df00" stroke="#585672" stroke-width="0.25" stroke-linecap="butt"/><path d="M232.25769,220.58056c0,0 -3.33328,4.20197 -4.36377,6.38112c-0.91607,1.93703 -4.35449,5.37165 -4.35449,5.37165l-17.77098,-0.10303" fill="none" stroke="#7a82a2" stroke-width="0.25" stroke-linecap="round"/><path d="M237.91953,212.98846l0.38376,6.09936l-4.6415,2.52022l-0.84865,-11.11168" fill="none" stroke="#636480" stroke-width="0.5" stroke-linecap="round"/><path d="M234.38413,221.38086l-4.21139,7.15533l-3.74784,5.41871" fill="none" stroke="#636480" stroke-width="1" stroke-linecap="round"/><path d="M221.81309,235.2579l-1.02245,-3.25076" fill="none" stroke="#475066" stroke-width="0.25" stroke-linecap="round"/><path d="M215.55523,234.71227l-0.79523,-2.52842" fill="none" stroke="#475066" stroke-width="0.25" stroke-linecap="round"/><path d="M209.29347,232.05087l0.68163,2.16717" fill="none" stroke="#475066" stroke-width="0.25" stroke-linecap="round"/><path d="M204.05975,210.53991c0,0 -1.75565,-0.0376 -1.43362,-2.34747c0.29297,-2.10142 1.43811,-2.26309 1.43811,-2.26309l10.52247,4.37287l10.12715,-4.0379c0,0 1.07538,-0.31711 1.59417,1.7688c0.58121,2.33707 -1.59866,2.84171 -1.59866,2.84171l-10.37878,4.03388z" fill="#32df00" stroke="#585672" stroke-width="0.25" stroke-linecap="butt"/><path d="M204.27285,204.97983c0,0 -1.75561,-0.03764 -1.43361,-2.34746c0.29297,-2.10142 1.4381,-2.26313 1.4381,-2.26313l10.52247,4.37287l10.12712,-4.03791c0,0 1.07542,-0.31715 1.59421,1.76881c0.58121,2.33707 -1.5987,2.84171 -1.5987,2.84171l-10.37877,4.03387z" fill="#32df00" stroke="#585672" stroke-width="0.25" stroke-linecap="butt"/><path d="M257.75346,209.30572l-1.27131,-4.68136" data-paper-data="{&quot;index&quot;:null}" fill="none" stroke="#bd6914" stroke-width="0.25" stroke-linecap="round"/><path d="M251.64801,207.02172l1.35608,4.99334" data-paper-data="{&quot;index&quot;:null}" fill="none" stroke="#bd6914" stroke-width="0.25" stroke-linecap="round"/><path d="M229.70312,186.83306l29.04722,-0.49094l-2.24305,16.99896l-22.7061,0.00947z" data-paper-data="{&quot;index&quot;:null}" fill="url(#color-1)" stroke="#692206" stroke-width="0" stroke-linecap="butt"/><path d="M241.07516,190.50111l4.7531,-0.00198c0,0 -1.14436,4.69387 -1.14348,6.81955c0.00093,2.23442 1.14894,6.27709 1.14894,6.27709l-4.7531,0.00198c0,0 -1.14812,-4.29894 -1.14907,-6.5757c-0.00087,-2.06888 1.14361,-6.52093 1.14361,-6.52093z" data-paper-data="{&quot;index&quot;:null}" fill="#ffd400" stroke="none" stroke-width="0" stroke-linecap="butt"/><path d="M197.32614,152.54437l-0.00161,-3.86578l14.06712,-0.00587l0.00161,3.86578z" fill="#3f4053" stroke="none" stroke-width="0" stroke-linecap="butt"/><path d="M197.44695,184.86655l-0.00169,-4.08055l16.64431,-0.00694l0.0017,4.08056z" fill="#3f4053" stroke="none" stroke-width="0" stroke-linecap="butt"/><path d="M197.01606,181.53784l0.02743,-6.42711l-1.28378,-0.17282l-0.13792,-6.39202l-1.41966,-0.13106l0.03572,-3.20352l1.29826,-0.29187l0.26673,-6.36253l1.311,0.0515l-0.11014,-6.60084l21.6913,-0.00904l0.01232,29.53026z" fill="#51576b" stroke="#3f4053" stroke-width="0.5" stroke-linecap="butt"/><path d="M198.05677,180.19849l-0.01147,-27.49449l4.01275,-0.00168l0.01146,27.49449z" fill="#6e7a96" stroke="#585c77" stroke-width="0" stroke-linecap="butt"/><path d="M202.18173,158.01885l-0.00233,-5.58388l7.06616,-0.00295l0.00233,5.58389z" fill="#6b738e" stroke="none" stroke-width="0" stroke-linecap="butt"/><path d="M196.58352,174.34342l-0.0064,-15.35576" fill="none" stroke="#3f4053" stroke-width="0.5" stroke-linecap="round"/><path d="M195.39971,168.11571l0.10613,-3.00679" fill="none" stroke="#3f4053" stroke-width="0.5" stroke-linecap="round"/><path d="M227.09345,193.77211l4.27796,1.60219l0.53609,3.47508" data-paper-data="{&quot;index&quot;:null}" fill="none" stroke="#3f4053" stroke-width="0.5" stroke-linecap="round"/><path d="M270.27328,187.9923l6.55464,11.71942l0.2638,14.39353l-5.67601,9.68285l-6.51168,-3.76639l1.30025,-4.85253l-1.97224,3.96938l-3.62729,-5.22902l0.71048,-10.39992l-3.32266,-11.97912" data-paper-data="{&quot;index&quot;:null}" fill="#a6521b" stroke="#3f4053" stroke-width="0.5" stroke-linecap="round"/><path d="M276.01418,175.92888c0,0 6.11003,3.56077 7.04985,5.2142c0.74338,1.30785 2.56654,14.45762 -3.77697,14.78154c-3.93467,0.2009 -2.13969,-8.04149 -3.02402,-10.38666c-0.97686,-2.59034 -4.08109,-3.19426 -4.08109,-3.19426" data-paper-data="{&quot;index&quot;:null}" fill="#2e2e40" stroke="#3f4053" stroke-width="0.5" stroke-linecap="round"/><path d="M275.83268,213.50971l-4.65348,9.36616l-5.29347,-3.32108l1.18757,-5.90405l-3.05583,3.04434l-2.26794,-2.88369l0.06878,-11.12225l3.48317,0.8033l2.06755,-2.845l2.99235,1.18097l2.54767,-2.99289l2.65974,0.44227z" data-paper-data="{&quot;index&quot;:null}" fill="#df9431" stroke="#692206" stroke-width="0" stroke-linecap="round"/><path d="M268.71178,187.15367l6.71112,12.01136l-14.17374,2.60178l-3.54982,-11.88058" data-paper-data="{&quot;index&quot;:null}" fill="#323240" stroke="#174752" stroke-width="0" stroke-linecap="round"/><path d="M260.38557,202.63488l-3.11682,-6.66054l15.93232,-4.69631l3.11689,6.66054z" fill="url(#color-2)" stroke="#000000" stroke-width="0" stroke-linecap="butt"/><path d="M259.28399,200.39106l-0.91358,-2.17292l15.93232,-4.69631l0.91357,2.17293z" fill="#4a5466" stroke="#000000" stroke-width="0" stroke-linecap="butt"/><path d="M206.49076,135.6595c0,0 8.11854,-14.7145 37.85157,-15.59308c23.97383,-0.42932 33.30906,14.2826 33.30906,14.2826l1.20929,24.65135c0,0 7.49329,-1.65955 9.20845,3.20287c1.71515,4.8625 0.61168,13.66836 -3.05147,18.50099c-2.65825,3.50696 -7.5565,1.62189 -7.5565,1.62189c0,0 -9.60844,10.25422 -31.594,12.17372c-16.61901,1.45099 -32.02072,-7.41784 -32.02072,-7.41784l-7.45422,-23.79996z" data-paper-data="{&quot;index&quot;:null}" fill="#2d2e40" stroke="#3f4053" stroke-width="0.5" stroke-linecap="round"/><path d="M244.7496,165.21925c-13.84144,0.00577 -25.06625,-9.86375 -25.07133,-22.04424c-0.00508,-12.18049 11.21151,-22.05936 25.05295,-22.06513c13.84144,-0.00577 25.06625,9.86376 25.07134,22.04424c0.00508,12.18049 -11.21152,22.05936 -25.05295,22.06513z" data-paper-data="{&quot;index&quot;:null}" fill="url(#color-3)" stroke="none" stroke-width="0" stroke-linecap="butt"/><path d="M277.99955,177.08372l1.41237,-12.61175c0,0 4.35533,-1.31535 4.9699,0.9861c0.6146,2.30146 0.29144,7.40207 -1.74094,11.1041c-2.03238,3.70207 -4.64133,0.5215 -4.64133,0.5215z" data-paper-data="{&quot;index&quot;:null}" fill="#be5d10" stroke="#9a3d0c" stroke-width="0.25" stroke-linecap="round"/><path d="M227.04334,122.90656c0,0 3.33931,-0.90146 5.13241,-1.15151c1.59923,-0.22302 5.11129,-0.63317 5.11129,-0.63317l-0.5509,52.67288l-9.67397,-5.74462z" data-paper-data="{&quot;index&quot;:null}" fill="#face00" stroke="none" stroke-width="0" stroke-linecap="butt"/><path d="M262.13007,168.03552l-9.66919,5.75273l-0.59482,-52.67241c0,0 3.5124,0.40719 5.11182,0.62887c1.79331,0.24855 5.13336,1.14723 5.13336,1.14723z" data-paper-data="{&quot;index&quot;:null}" fill="#face00" stroke="none" stroke-width="0" stroke-linecap="butt"/><path d="M278.20819,161.81521l-1.69038,18.50696c0,0 -6.4703,13.41956 -31.1679,14.67306c-23.27189,1.18113 -34.73695,-14.74696 -34.73695,-14.74696l-0.31922,-11.32218c0,0 0.36721,-5.15542 10.82069,-5.72734c10.94365,-0.59871 24.26896,13.21797 24.26896,13.21797c0,0 14.10265,-14.91257 23.75503,-16.51868c3.56872,-0.59387 9.06985,1.91715 9.06985,1.91715z" data-paper-data="{&quot;index&quot;:null}" fill="#df9431" stroke="#954116" stroke-width="0.5" stroke-linecap="round"/><path d="M257.69775,172.72507c5.49902,-3.58954 12.28942,-2.92612 15.16679,1.48181c2.87736,4.40794 0.75207,10.89118 -4.74698,14.48076c-5.49902,3.58954 -12.28946,2.92612 -15.16679,-1.48177c-2.87736,-4.40794 -0.75207,-10.89122 4.74698,-14.48084z" data-paper-data="{&quot;index&quot;:null}" fill="#ffffff" stroke="#954116" stroke-width="0" stroke-linecap="butt"/><path d="M205.14636,158.77016l7.58541,8.45289l-0.52904,13.44744l-6.62511,0.00277z" fill="#51576b" stroke="none" stroke-width="0" stroke-linecap="butt"/><path d="M258.55061,178.55802c2.13429,-0.10471 3.97006,1.96261 4.10028,4.61747c0.13022,2.65485 -1.49435,4.89191 -3.62864,4.99662c-2.13429,0.10471 -3.97006,-1.96261 -4.10028,-4.61746c-0.13022,-2.65485 1.49439,-4.89192 3.62864,-4.99662z" data-paper-data="{&quot;index&quot;:null}" fill="#3d0a00" stroke="none" stroke-width="0" stroke-linecap="butt"/><path d="M262.91401,169.86133l-7.02772,5.17066l-3.00852,-5.15008l7.44924,-5.74626z" data-paper-data="{&quot;index&quot;:null}" fill="#773710" stroke="#602a0d" stroke-width="0.25" stroke-linecap="round"/><path d="M266.33232,214.76585l1.82319,-4.74477l-1.40826,4.69776" data-paper-data="{&quot;index&quot;:null}" fill="none" stroke="#d17921" stroke-width="0.25" stroke-linecap="round"/><path d="M231.13388,166.28643l7.45403,5.74006l-3.00422,5.15258l-7.03203,-5.16476z" data-paper-data="{&quot;index&quot;:null}" fill="#773710" stroke="#602a0d" stroke-width="0.25" stroke-linecap="round"/><path d="M243.91884,167.0859c0.00545,13.08232 -8.34958,23.6911 -18.66142,23.6954c-10.31185,0.0043 -18.67572,-10.59751 -18.68117,-23.67983c-0.00545,-13.08232 8.34958,-23.69114 18.66142,-23.69544c10.31185,-0.0043 18.67573,10.59755 18.68117,23.67987z" fill="#5a6378" stroke="#5e6586" stroke-width="0.25" stroke-linecap="butt"/><path d="M223.5922,156.62774l12.37082,2.63904" fill="none" stroke="#22292d" stroke-width="0.75" stroke-linecap="round"/><path d="M236.0167,164.04549l-13.42505,-2.78998" fill="none" stroke="#22292d" stroke-width="0.75" stroke-linecap="round"/><path d="M204.4724,177.90686c0,0 1.29201,-13.07199 2.0079,-16.2442c0.7572,-3.3552 6.13989,-11.39028 6.13989,-11.39028l11.21123,20.26756z" fill="#50566a" stroke="#000000" stroke-width="0" stroke-linecap="round"/><path d="M210.11364,172.07124c0,0 6.02221,-6.83486 14.89265,-5.10946c13.11105,2.55027 13.0759,14.32224 13.0759,14.32224" fill="none" stroke="url(#color-4)" stroke-width="1" stroke-linecap="round"/><path d="M238.78682,182.14887c0.00334,8.00918 -6.48521,14.50463 -14.49254,14.50796c-8.00734,0.00333 -17.33658,-6.98863 -17.5123,-14.99586c-0.25547,-11.6398 7.52639,-15.57885 14.4206,-15.58172c13.66099,-0.0057 17.5809,8.06044 17.58424,16.06962z" fill="#51566b" stroke="none" stroke-width="0" stroke-linecap="butt"/><path d="M215.59217,178.84556l-0.00497,-11.91952c0,0 3.85865,-0.64588 5.691,-0.64665c1.92176,-0.0008 5.58424,0.74934 5.58424,0.74934l0.00492,11.81213z" fill="#6b7390" stroke="none" stroke-width="0" stroke-linecap="butt"/><path d="M224.28334,170.33729c8.00734,-0.00333 14.50105,5.88581 14.50408,13.15367c0.00303,7.26794 -6.48576,13.1625 -14.4931,13.16583c-8.00734,0.00333 -14.50101,-5.88581 -14.50404,-13.15375c-0.00303,-7.26794 6.48573,-13.16242 14.49307,-13.16575z" fill="#7984a2" stroke="none" stroke-width="0" stroke-linecap="butt"/><path d="M224.98212,172.26991c7.91839,-0.0033 14.33991,5.74164 14.34287,12.83162c0.00295,7.09002 -6.41378,12.84031 -14.33217,12.8436c-7.91839,0.0033 -14.33991,-5.7416 -14.34286,-12.83166c-0.00295,-7.09002 6.41377,-12.84027 14.33216,-12.84357z" fill="#414458" stroke="none" stroke-width="0" stroke-linecap="butt"/><path d="M236.68862,186.49071c0.00219,5.25154 -5.41432,9.511 -12.09809,9.51378c-6.68377,0.00278 -12.10382,-4.25215 -12.10601,-9.50369c-0.00219,-5.25154 5.41431,-9.511 12.09808,-9.51379c6.68377,-0.00278 12.10382,4.25215 12.10601,9.50369z" fill="#67748d" stroke="none" stroke-width="NaN" stroke-linecap="butt"/><path d="M224.87168,176.3192c6.73791,-0.00281 12.20173,4.12479 12.20386,9.21922c0.00213,5.09444 -5.4583,9.22659 -12.19616,9.2294c-6.73791,0.00281 -12.20173,-4.1248 -12.20386,-9.21923c-0.00213,-5.09444 5.45825,-9.22658 12.19616,-9.22939z" fill="#247919" stroke="#22362a" stroke-width="0" stroke-linecap="butt"/><path d="M224.87102,174.71381c6.73791,-0.00281 12.20173,4.1248 12.20386,9.21923c0.00213,5.09444 -5.4583,9.22658 -12.19617,9.22939c-6.73791,0.00281 -12.20173,-4.12478 -12.20386,-9.21922c-0.00213,-5.09444 5.45826,-9.2266 12.19617,-9.22941z" fill="#22362a" stroke="#22362a" stroke-width="0" stroke-linecap="butt"/><path d="M224.87135,175.51946c6.73791,-0.00281 12.20173,4.12479 12.20386,9.21922c0.00213,5.09444 -5.4583,9.22659 -12.19617,9.2294c-6.73791,0.00281 -12.20173,-4.12479 -12.20386,-9.21922c-0.00213,-5.09444 5.45826,-9.22658 12.19617,-9.2294z" fill="url(#color-5)" stroke="#22362a" stroke-width="0" stroke-linecap="butt"/><path d="M224.50263,179.63658c3.16488,-0.00132 5.73152,2.29483 5.7327,5.12866c0.00118,2.83379 -2.56355,5.13211 -5.72843,5.13343c-3.16488,0.00132 -5.73148,-2.29486 -5.73267,-5.12865c-0.00118,-2.83379 2.56347,-5.13212 5.7284,-5.13344z" fill="#38ff00" stroke="none" stroke-width="0" stroke-linecap="butt"/><path d="M220.31175,178.26668c1.61862,-0.00068 2.9312,1.17365 2.9318,2.62292c0.00061,1.44923 -1.311,2.62473 -2.92961,2.62541c-1.61862,0.00068 -2.93124,-1.17365 -2.93184,-2.62296c-0.00061,-1.44923 1.31104,-2.6247 2.92965,-2.62537z" fill="#ffffff" stroke="none" stroke-width="0" stroke-linecap="butt"/><path d="M198.40774,158.02042l-0.00233,-5.58388l3.76385,-0.00157l0.00233,5.58388z" fill="#7b86a3" stroke="none" stroke-width="0" stroke-linecap="butt"/></g></g></g></svg>