<svg version="1.1" xmlns="http://www.w3.org/2000/svg" xmlns:xlink="http://www.w3.org/1999/xlink" width="110.7163" height="130.8843" viewBox="0,0,110.7163,130.8843"><g transform="translate(-463.91664,-95.44351)"><g data-paper-data="{&quot;isPaintingLayer&quot;:true}" fill-rule="nonzero" stroke-linejoin="miter" stroke-miterlimit="10" stroke-dasharray="" stroke-dashoffset="0" style="mix-blend-mode: normal"><path d="M470.46532,96.9459l98.3125,0.45833l4.125,3.4375l0.22917,119.625l-3.20833,4.35417l-100.83333,-0.91667l-2.52083,-2.75l-1.14583,-120.3125z" fill="#545454" stroke="#181818" stroke-width="3" stroke-linecap="round"/><path d="M467.68184,170.5751l49.27083,14.20833l54.54167,-12.83333l0.45833,46.0625l-2.75,4.58333l-98.3125,-0.45833l-2.52083,-2.52083z" fill="#191919" stroke="#191919" stroke-width="3.5" stroke-linecap="round"/><path d="M487.60792,114.48167c3.58383,-2.97549 7.94815,-6.40959 12.64233,-6.78616c4.1842,-0.33567 7.93118,1.33195 11.98317,1.83301c3.90417,0.48277 7.88399,0.72481 11.79976,1.13332c1.99705,0.20834 4.02542,-0.0154 6.01972,0.21777c0.44985,0.05259 0.86906,0.71685 1.26478,0.49653c0.43441,-0.24186 0.14693,-1.01437 0.41615,-1.43238c0.75437,-1.17129 1.73949,-2.17672 2.60924,-3.26508c6.81258,-1.34602 15.37865,-0.68704 22.09841,1.33728c2.38566,0.71868 4.62542,1.29731 6.16881,3.54018c0.67277,0.97768 0.67597,3.65836 1.66402,4.7995c0.64207,0.74155 1.83041,1.00397 2.25832,1.8866c0.64074,1.32158 1.01084,2.8928 0.76049,4.34002c-0.58759,3.3968 -4.49183,4.71034 -6.05957,7.23079c-1.41675,2.27771 -1.46064,6.831 -1.87741,9.32618c-0.07157,0.42851 -0.42023,0.90774 -0.20773,1.28667c0.78846,1.40595 2.62558,1.87079 3.94222,2.80075c4.16689,4.71848 4.9123,8.92924 3.77243,15.04077c-0.22643,1.21403 -0.14031,2.56444 -0.77732,3.62243c-1.36994,2.27532 -5.17608,2.31636 -6.25594,4.30784c-0.45887,0.84625 0.31587,1.94645 0.81183,2.77151c2.0675,3.43946 4.29595,3.77328 5.07975,8.35371c1.25772,7.34995 -3.2058,16.36758 -10.64222,18.76568c-1.28353,0.41391 -2.69718,-0.0187 -4.04576,-0.02805c-0.93379,-0.66922 -1.91237,-1.27998 -2.80136,-2.00765c-0.58191,-0.47632 -0.85211,-1.49341 -1.59749,-1.59296c-2.96499,-0.39598 -5.84444,1.33741 -8.81722,1.66989c-0.92154,0.10307 -1.99141,-0.43165 -2.78133,0.05403c-0.48753,0.29976 0.15907,1.20138 -0.09476,1.71433c-1.79342,3.62418 -7.22136,7.07901 -10.80305,2.8186c-0.85843,-1.02109 -1.2438,-2.01516 -1.31064,-2.98591c-0.4525,1.56642 -1.08878,3.24234 -2.20298,3.90891c-3.25867,1.9495 -6.23049,0.32678 -8.25178,-2.23221c-0.26121,-0.33069 -0.06767,-1.33113 0.04223,-1.78614c-1.44182,4.82592 -8.24904,3.69072 -12.21252,3.06608c-1.25935,-0.19847 -2.79105,-0.05215 -3.70786,-0.93804c-3.88279,-3.75182 -2.16204,-5.51483 0.87418,-8.3059c0.43226,-0.39736 1.28083,-0.16959 1.64482,-0.6303c0.34192,-0.4328 -0.6733,-2.25069 -0.28623,-3.2429c-2.05042,4.237 -9.94424,8.26117 -14.43245,8.56227c-4.04217,0.27118 -9.45904,-2.72906 -9.78289,-7.28859c-0.21878,-3.08026 2.81008,-6.95278 6.17217,-7.94749c-3.16776,-1.89353 -5.77741,-4.60608 -6.76189,-8.21545c-0.39325,-1.44174 -0.51986,-2.95457 -0.55673,-4.44852c-0.01099,-0.44513 0.62852,-0.87846 0.41559,-1.26951c-0.18344,-0.33691 -0.77122,-0.00576 -1.14831,-0.07619c-1.41913,-0.26505 -3.60162,0.37121 -4.23032,-0.92836c-0.91333,-1.8879 -0.00327,-4.29212 0.75969,-6.24564c0.5841,-1.49555 3.25632,-1.90503 3.29851,-3.51004c0.03878,-1.47503 -1.17669,-2.72104 -1.53126,-4.15335c-0.41059,-1.6586 0.22488,-3.57506 -0.55376,-5.09601c-0.45015,-0.87929 -1.5585,-1.30036 -2.00672,-2.18064c-1.22601,-2.40782 -1.74235,-6.5975 -2.53576,-9.22013c0.36579,-1.64658 1.05494,-5.80916 2.32764,-7.11181c0.85675,-0.87691 2.24086,-0.99554 3.36954,-1.47415c1.6079,-0.68182 3.14797,-1.58792 4.47878,-2.71892c0.60305,-0.51251 1.99831,-1.13707 1.55596,-1.79332c-1.23462,-1.83161 -3.34588,-2.97631 -4.51503,-4.85039c-1.48767,-2.38464 -3.39172,-7.39128 -3.10819,-10.31267c0.17092,-1.76113 -0.20456,-4.21141 1.29707,-5.14729c1.64548,-1.02554 3.93865,0.10376 5.76901,0.7434c1.82761,0.63868 3.63637,3.12434 4.74368,4.6158c2.11367,2.84696 4.02521,5.93648 5.85619,8.97836zM486.08611,181.24479c0.23071,1.27514 -0.10162,2.87918 0.03732,4.17145c0.06374,0.59282 1.23408,-0.15077 1.71744,-0.49985c0.46139,-0.33321 1.45293,-1.82252 2.45514,-2.86695c-0.23619,-0.00815 -0.47222,-0.01506 -0.70642,-0.00794c-1.13783,-0.17665 -2.3199,-0.44119 -3.50348,-0.79671zM523.77666,192.17687c1.06315,-1.99385 2.71365,-3.89973 3.36873,-5.75568c0.3608,-1.02221 0.49284,-2.11383 0.82575,-3.14546c0.2695,-0.83515 1.28328,-1.62149 0.97806,-2.44426c-0.32119,-0.86583 -1.64257,-0.85599 -2.39891,-1.38586c-1.14981,-0.80551 -2.12532,-1.90033 -2.84432,-3.10613c-0.1025,-0.1719 0.06086,0.39678 0.06518,0.59687c0.01613,0.74822 -0.00313,1.49679 -0.0039,2.24518c-0.00086,0.84525 -0.00065,1.69049 -0.00098,2.53574c0.3443,3.74346 0.77972,6.92285 0.01039,10.4596zM483.01515,189.02339c-1.47468,-0.98061 -2.22219,-2.64711 -1.27381,-4.94661c-0.56663,0.36291 -2.40449,1.2901 -2.24897,2.32382c0.27234,1.81015 1.8769,2.53222 3.52278,2.62279z" fill="#000000" stroke="none" stroke-width="0.5" stroke-linecap="butt"/></g></g></svg>