<svg version="1.1" xmlns="http://www.w3.org/2000/svg" xmlns:xlink="http://www.w3.org/1999/xlink" width="36.74928" height="42.72764" viewBox="0,0,36.74928,42.72764"><g transform="translate(-221.62536,-158.63621)"><g data-paper-data="{&quot;isPaintingLayer&quot;:true}" fill="#ffffff" fill-rule="nonzero" stroke-width="0.5" stroke-linejoin="miter" stroke-miterlimit="10" stroke-dasharray="" stroke-dashoffset="0" style="mix-blend-mode: normal"><path d="M258.12464,180.02232c0,1.71765 -0.18961,3.42789 -0.56883,5.13067c-0.37922,1.69535 -0.93318,3.32379 -1.66189,4.8853c-0.72126,1.56151 -1.60613,3.01519 -2.65456,4.36107c-1.041,1.34588 -2.23446,2.517 -3.58032,3.5134c-1.34588,0.99639 -2.82558,1.78085 -4.43914,2.35342c-1.60613,0.56512 -3.33493,0.84767 -5.18644,0.84767c-1.87382,0 -3.62121,-0.28256 -5.2422,-0.84767c-1.62099,-0.57255 -3.1007,-1.35703 -4.43915,-2.35342c-1.33844,-0.99639 -2.53559,-2.16752 -3.59147,-3.5134c-1.04844,-1.34588 -1.9333,-2.79956 -2.65456,-4.36107c-0.72126,-1.56151 -1.27522,-3.19367 -1.66189,-4.89645c-0.37923,-1.71023 -0.56883,-3.41674 -0.56883,-5.11951c0,-1.69535 0.18961,-3.40186 0.56883,-5.11951c0.38667,-1.71765 0.94062,-3.35724 1.66189,-4.91875c0.72126,-1.56151 1.60613,-3.01892 2.65456,-4.37222c1.05587,-1.36074 2.25303,-2.53931 3.59147,-3.5357c1.33844,-0.99639 2.82187,-1.77715 4.4503,-2.34227c1.62843,-0.56512 3.37211,-0.84767 5.23105,-0.84767c1.8515,0 3.58032,0.28256 5.18644,0.84767c1.61357,0.56512 3.09326,1.34588 4.43914,2.34227c1.34588,0.99639 2.53932,2.17495 3.58032,3.5357c1.04844,1.35331 1.9333,2.81071 2.65456,4.37222c0.72871,1.56151 1.28266,3.20109 1.66189,4.91875c0.37922,1.71765 0.56883,3.42416 0.56883,5.11951zM245.76643,180.90345c0,-0.85511 -0.11897,-1.81061 -0.35692,-2.86648c-0.23051,-1.05587 -0.59113,-2.04112 -1.08191,-2.95572c-0.48332,-0.92204 -1.10792,-1.69535 -1.87381,-2.31995c-0.75845,-0.6246 -1.6656,-0.9369 -2.72149,-0.9369c-1.07075,0 -1.98907,0.3123 -2.75495,0.9369c-0.75845,0.6246 -1.38677,1.39791 -1.88496,2.31995c-0.4982,0.91459 -0.86627,1.89984 -1.10421,2.95572c-0.23051,1.05587 -0.34576,2.01136 -0.34576,2.86648c0,0.86254 0.11525,1.82176 0.34576,2.87764c0.23795,1.04844 0.60601,2.03368 1.10421,2.95572c0.4982,0.91459 1.12652,1.6842 1.88496,2.3088c0.76589,0.6246 1.68421,0.9369 2.75495,0.9369c1.05587,0 1.96304,-0.3123 2.72149,-0.9369c0.76589,-0.6246 1.39049,-1.3942 1.87381,-2.3088c0.49076,-0.92204 0.85139,-1.90728 1.08191,-2.95572c0.23795,-1.05587 0.35692,-2.01509 0.35692,-2.87764zM240.05341,200.78681c0.10853,0 0.19652,-0.08799 0.19652,-0.19652c0,-0.10853 -0.08799,-0.19652 -0.19652,-0.19652c-0.10853,0 -0.19652,0.08799 -0.19652,0.19652c0,0.10853 0.08799,0.19652 0.19652,0.19652z" stroke="#000000" stroke-linecap="square"/><path d="M237.65124,198.39006c0,-1.38071 1.11929,-2.5 2.5,-2.5c1.38071,0 2.5,1.11929 2.5,2.5c0,1.38071 -1.11929,2.5 -2.5,2.5c-1.38071,0 -2.5,-1.11929 -2.5,-2.5z" stroke="none" stroke-linecap="butt"/></g></g></svg>