<svg version="1.1" xmlns="http://www.w3.org/2000/svg" xmlns:xlink="http://www.w3.org/1999/xlink" width="44.98044" height="29.79486" viewBox="0,0,44.98044,29.79486"><defs><linearGradient x1="245.49568" y1="184.46085" x2="245.14918" y2="181.27924" gradientUnits="userSpaceOnUse" id="color-1"><stop offset="0" stop-color="#da951a"/><stop offset="1" stop-color="#f1c424"/></linearGradient><linearGradient x1="242.28461" y1="183.45542" x2="247.48382" y2="182.88918" gradientUnits="userSpaceOnUse" id="color-2"><stop offset="0" stop-color="#f14d01"/><stop offset="1" stop-color="#ff5500"/></linearGradient><linearGradient x1="245.44013" y1="176.24406" x2="245.09362" y2="179.42569" gradientUnits="userSpaceOnUse" id="color-3"><stop offset="0" stop-color="#da951a"/><stop offset="1" stop-color="#f1c424"/></linearGradient><linearGradient x1="242.27627" y1="185.93639" x2="246.96658" y2="185.93639" gradientUnits="userSpaceOnUse" id="color-4"><stop offset="0" stop-color="#ff4200"/><stop offset="1" stop-color="#ff5d00"/></linearGradient><linearGradient x1="242.43262" y1="186.19695" x2="247.27927" y2="186.19695" gradientUnits="userSpaceOnUse" id="color-5"><stop offset="0" stop-color="#fb6800"/><stop offset="1" stop-color="#ff7600"/></linearGradient><linearGradient x1="242.22906" y1="177.24951" x2="247.42827" y2="177.81575" gradientUnits="userSpaceOnUse" id="color-6"><stop offset="0" stop-color="#f14d01"/><stop offset="1" stop-color="#ff5500"/></linearGradient><linearGradient x1="241.93467" y1="173.86909" x2="246.47109" y2="175.06069" gradientUnits="userSpaceOnUse" id="color-7"><stop offset="0" stop-color="#ff4200"/><stop offset="1" stop-color="#ff5d00"/></linearGradient><linearGradient x1="242.15209" y1="173.65679" x2="246.83972" y2="174.88812" gradientUnits="userSpaceOnUse" id="color-8"><stop offset="0" stop-color="#fb6800"/><stop offset="1" stop-color="#ff7600"/></linearGradient><linearGradient x1="236.18631" y1="180.30388" x2="245.44448" y2="180.30388" gradientUnits="userSpaceOnUse" id="color-9"><stop offset="0" stop-color="#ce7d14"/><stop offset="1" stop-color="#ce6c11"/></linearGradient><radialGradient cx="239.03537" cy="180.17712" r="7.94749" gradientUnits="userSpaceOnUse" id="color-10"><stop offset="0" stop-color="#754a1b"/><stop offset="1" stop-color="#3f2b10"/></radialGradient><linearGradient x1="231.68608" y1="175.50457" x2="237.64322" y2="175.50457" gradientUnits="userSpaceOnUse" id="color-11"><stop offset="0" stop-color="#ff6900"/><stop offset="1" stop-color="#ff9004"/></linearGradient><linearGradient x1="231.89109" y1="185.63754" x2="237.56941" y2="185.63754" gradientUnits="userSpaceOnUse" id="color-12"><stop offset="0" stop-color="#ff6900"/><stop offset="1" stop-color="#ff9004"/></linearGradient></defs><g transform="translate(-216.10773,-168.29508)"><g data-paper-data="{&quot;isPaintingLayer&quot;:true}" fill-rule="nonzero" stroke-linejoin="miter" stroke-miterlimit="10" stroke-dasharray="" stroke-dashoffset="0" style="mix-blend-mode: normal"><path d="M232.47643,188.38198l-3.58733,-1.55746c0,0 -3.16623,-1.73461 -3.63811,-2.34293c-0.47188,-0.60832 -3.06108,-3.48096 -3.06108,-3.48096l3.87741,-0.18603c0,0 -3.77883,-2.12896 -4.9648,-3.32092c-0.77245,-0.77635 -1.45878,-2.46845 -1.45878,-2.46845c0,0 2.11109,-0.24908 3.18547,-0.2833c1.10011,-0.03504 3.33981,0.07542 3.33981,0.07542l-0.86433,-2.47301l2.39067,-0.68128c0,0 1.08765,-0.30344 1.99536,-0.33916c1.00915,-0.03972 6.28754,-0.11065 6.28754,-0.11065c0,0 -0.43505,-1.96823 0.84222,-2.41816c1.27727,-0.44993 3.58994,-0.15915 4.85878,0.80347c0.92078,0.69855 0.42514,1.98482 0.42514,1.98482c0,0 2.69213,2.52469 3.19385,8.2992c0.37927,4.36499 -1.95173,8.40913 -1.95173,8.40913c0,0 0.29074,1.10213 -0.12936,1.91903c-0.52852,1.02775 -2.84851,2.1434 -5.03536,1.77989c-0.87258,-0.14505 -1.08693,-1.74374 -1.08693,-1.74374z" fill="none" stroke="#6b0000" stroke-width="1" stroke-linecap="round"/><path d="M241.75579,194.05002c0,1.92791 -1.26879,3.49078 -2.83391,3.49078c-0.51907,0 -3.3007,-0.24678 -3.3007,-0.24678c0,0 0.46679,-1.95547 0.46679,-3.244c0,-1.56882 -0.06795,-3.89889 -0.06795,-3.89889c0,0 2.72295,0.67086 3.01447,0.67086c1.56512,0 2.72131,1.30013 2.72131,3.22804z" fill="none" stroke="#6b0000" stroke-width="1" stroke-linecap="butt"/><path d="M239.01572,193.67466c0,2.05229 -1.35282,3.71599 -3.02159,3.71599c-1.66878,0 -3.02158,-1.66371 -3.02158,-3.71599c0,-2.05229 1.35281,-3.71599 3.02158,-3.71599c1.66878,0 3.02159,1.6637 3.02159,3.71599z" fill="none" stroke="#6b0000" stroke-width="1" stroke-linecap="butt"/><path d="M232.30991,189.52746c0,0 -0.16529,2.21237 0.16983,3.43057c0.33512,1.2182 1.14603,2.5348 1.52796,2.92817c0.38194,0.39337 1.44259,0.02491 1.44259,0.02491l0.04994,1.29088c0,0 -0.45893,0.8002 -1.30395,0.10216c-0.84502,-0.69803 -1.18092,-0.99358 -1.75345,-1.93161c-0.57253,-0.93803 -0.91524,-1.95986 -1.1263,-3.03083c-0.21106,-1.07097 -0.02242,-2.69905 -0.02242,-2.69905z" fill="none" stroke="#6b0000" stroke-width="1" stroke-linecap="round"/><path d="M233.01403,189.70683l-1.62251,0.59492l-1.3521,-0.16225l0.16225,-0.97351l2.81236,-0.27042z" fill="none" stroke="#6b0000" stroke-width="1" stroke-linecap="round"/><path d="M226.46988,186.24546l7.73398,-0.70309l-1.73067,3.29912l-1.18985,0.97351l-2.6501,1.02759l-2.48785,-0.86534z" fill="none" stroke="#6b0000" stroke-width="1" stroke-linecap="round"/><path d="M223.44119,170.56116c0,0 1.60728,-0.97699 3.73179,-0.81125c2.12451,0.16574 4.38079,1.35209 4.38079,1.35209l0.81125,15.79247l-1.6766,2.16335c0,0 -1.14509,0.54016 -2.43376,0.86534c-1.28867,0.32518 -3.3532,0.59493 -3.3532,0.59493l-2.75827,-1.6766" fill="none" stroke="#6b0000" stroke-width="1" stroke-linecap="round"/><path d="M222.41361,171.37241c0,0 1.40283,-0.69081 4.11037,-0.75717c2.70753,-0.06636 2.65011,0.3245 2.65011,0.3245c0,0 2.36036,5.15422 2.54812,8.59309c0.14154,2.5926 0.3724,5.73912 0.3724,5.73912c0,0 -0.48298,2.96042 -3.89403,4.00221c-3.1078,0.95731 -5.51655,-0.3245 -5.51655,-0.3245z" fill="none" stroke="#6b0000" stroke-width="1" stroke-linecap="round"/><path d="M231.33205,180.02301c0,5.0069 -3.29615,9.0658 -7.36216,9.0658c-4.066,0 -7.36216,-4.0589 -7.36216,-9.0658c0,-5.0069 3.29615,-9.0658 7.36216,-9.0658c4.066,0 7.36216,4.0589 7.36216,9.0658z" fill="none" stroke="#6b0000" stroke-width="1" stroke-linecap="butt"/><path d="M232.30991,189.52749c0,0 -0.16529,2.21237 0.16983,3.43057c0.33512,1.2182 1.14603,2.5348 1.52796,2.92817c0.38193,0.39337 1.44258,0.02491 1.44258,0.02491l0.04995,1.29088c0,0 -0.45893,0.8002 -1.30395,0.10216c-0.84502,-0.69804 -1.18092,-0.99359 -1.75345,-1.93162c-0.57253,-0.93803 -0.91524,-1.95986 -1.1263,-3.03083c-0.21106,-1.07098 -0.02242,-2.69906 -0.02242,-2.69906z" fill="#955d07" stroke="#000000" stroke-width="0" stroke-linecap="round"/><path d="M231.30048,191.89804l1.05334,0.65163l-0.42315,-0.22047z" fill="none" stroke="#693e0d" stroke-width="0.5" stroke-linecap="round"/><path d="M232.49367,194.24731l0.57449,0.06623l-1.1508,-0.09226z" fill="none" stroke="#693e0d" stroke-width="0.5" stroke-linecap="round"/><path d="M233.01403,189.70684l-1.62251,0.59492l-1.3521,-0.16225l0.16225,-0.97351l2.81236,-0.27042z" fill="#a05200" stroke="#000000" stroke-width="0" stroke-linecap="round"/><path d="M226.46988,186.24547l7.73398,-0.70309l-1.73067,3.29912l-1.18985,0.97351l-2.6501,1.02759l-2.48785,-0.86534z" fill="#565e61" stroke="#000000" stroke-width="0" stroke-linecap="round"/><path d="M223.44119,170.56116c0,0 1.60728,-0.97699 3.73179,-0.81125c2.12451,0.16574 4.38079,1.35209 4.38079,1.35209l0.81125,15.79247l-1.6766,2.16335c0,0 -1.14509,0.54016 -2.43376,0.86534c-1.28867,0.32518 -3.3532,0.59493 -3.3532,0.59493l-2.75827,-1.6766" fill="#a7b3be" stroke="#000000" stroke-width="0" stroke-linecap="round"/><path d="M222.41361,171.37242c0,0 1.40283,-0.69081 4.11037,-0.75717c2.70753,-0.06636 2.65011,0.3245 2.65011,0.3245c0,0 2.36036,5.15422 2.54812,8.59309c0.14154,2.5926 0.3724,5.73912 0.3724,5.73912c0,0 -0.48298,2.96042 -3.89403,4.00221c-3.1078,0.95731 -5.51655,-0.3245 -5.51655,-0.3245z" fill="#a05200" stroke="#000000" stroke-width="0" stroke-linecap="round"/><path d="M231.33205,180.02302c0,5.0069 -3.29615,9.0658 -7.36216,9.0658c-4.066,0 -7.36216,-4.0589 -7.36216,-9.0658c0,-5.0069 3.29615,-9.0658 7.36216,-9.0658c4.066,0 7.36216,4.0589 7.36216,9.0658z" fill="#b35e00" stroke="none" stroke-width="0" stroke-linecap="butt"/><path d="M231.41401,187.24841l-1.60832,1.0135l-2.42852,-0.2936l-1.76448,-7.09347" fill="none" stroke="#441000" stroke-width="0.5" stroke-linecap="round"/><path d="M226.28197,180.50977l-9.64139,-0.48675l1.89264,0.05449" fill="none" stroke="#441000" stroke-width="0.5" stroke-linecap="round"/><path d="M220.38546,183.04972l-2.69277,1.79776l6.58142,-4.5811" fill="none" stroke="#441000" stroke-width="0.5" stroke-linecap="round"/><path d="M220.98852,178.68443l-3.34644,-3.22475l1.75265,1.6456" fill="none" stroke="#441000" stroke-width="0.5" stroke-linecap="round"/><path d="M229.44627,187.63551l1.06451,0.35484l-0.67742,-0.19355" fill="none" stroke="#a05200" stroke-width="0.5" stroke-linecap="round"/><path d="M222.87469,176.4332l-2.591,-4.27686l2.21248,3.44131" fill="none" stroke="#441000" stroke-width="0.5" stroke-linecap="round"/><path d="M220.98853,186.58191l-0.64399,1.34332l2.89522,-6.13774" fill="none" stroke="#441000" stroke-width="0.5" stroke-linecap="round"/><path d="M224.33496,181.78749l-0.40061,7.32932l0.11255,-2.8795" fill="none" stroke="#441000" stroke-width="0.5" stroke-linecap="round"/><path d="M230.40862,180.16629c0,4.44285 -2.87086,8.04448 -6.41226,8.04448c-3.5414,0 -6.41227,-3.60164 -6.41227,-8.04448c0,-4.44285 2.87087,-8.04448 6.41227,-8.04448c3.5414,0 6.41226,3.60164 6.41226,8.04448z" fill="#f69602" stroke="#633102" stroke-width="0" stroke-linecap="butt"/><path d="M226.52534,187.14179c0,0 -1.31627,-0.73695 -2.73799,-2.19039c-2.50332,-2.5592 -1.23923,-4.33183 -2.19039,-5.96274c-0.95115,-1.63091 -2.92052,-2.55546 -2.92052,-2.55546" fill="none" stroke="#df7200" stroke-width="0.5" stroke-linecap="round"/><path d="M227.80308,186.16829c0,0 -2.55707,-2.32146 -3.77235,-4.13741c-1.21528,-1.81594 -1.52111,-3.77235 -1.52111,-3.77235" fill="none" stroke="#df7200" stroke-width="0.5" stroke-linecap="round"/><path d="M224.3958,176.0073l0.48676,3.52896" fill="none" stroke="#df7200" stroke-width="0.5" stroke-linecap="round"/><path d="M220.31922,185.07308c0,0 -0.55724,0.02868 -0.73013,-0.5476c-0.17288,-0.57628 -0.5486,-1.57745 0.42591,-1.15604c0.97451,0.42141 1.23752,1.37007 1.52111,1.94702c0.28359,0.57695 -0.12168,1.39942 -0.12168,1.39942" fill="none" stroke="#df7200" stroke-width="0.5" stroke-linecap="round"/><path d="M218.37221,181.90918l2.43377,1.46026" fill="none" stroke="#df7200" stroke-width="0.5" stroke-linecap="round"/><path d="M219.52825,181.11822c0,0 1.21113,0.93075 2.08897,2.06689c0.69015,0.89322 1.05809,1.98311 1.25747,2.37474c0.45297,0.88977 0.06085,2.25124 0.06085,2.25124" fill="none" stroke="#df7200" stroke-width="0.5" stroke-linecap="round"/><path d="M218.31137,177.71093c0,0 1.22762,0.4642 1.70363,1.09519c0.47601,0.63099 0.91267,2.37293 0.91267,2.37293" fill="none" stroke="#df7200" stroke-width="0.5" stroke-linecap="round"/><path d="M222.44878,175.27716c0,0 -0.42449,-0.59122 0,-0.79098c0.42449,-0.19976 0.85426,-0.27609 1.03436,0.30423c0.1801,0.58032 -0.1664,1.15447 -0.48676,1.46026c-0.32036,0.30579 -0.06104,0.64682 -0.85182,-0.18254c-0.79078,-0.82936 -1.6428,-2.43377 -1.6428,-2.43377" fill="none" stroke="#df7200" stroke-width="0.5" stroke-linecap="round"/><path d="M219.71079,175.58137l1.39942,0.91267" fill="none" stroke="#df7200" stroke-width="0.5" stroke-linecap="round"/><path d="M217.82462,178.80613l6.75371,9.30918" fill="none" stroke="#872b00" stroke-width="0.5" stroke-linecap="round"/><path d="M228.229,185.98577l-8.63989,-11.56042" fill="none" stroke="#872b00" stroke-width="0.5" stroke-linecap="round"/><path d="M230.40862,180.16629c0,4.44285 -2.87086,8.04448 -6.41226,8.04448c-3.5414,0 -6.41227,-3.60164 -6.41227,-8.04448c0,-4.44285 2.87087,-8.04448 6.41227,-8.04448c3.5414,0 6.41226,3.60164 6.41226,8.04448z" fill="none" stroke="#633102" stroke-width="0.5" stroke-linecap="butt"/><path d="M234.40469,195.32599l0.52282,-0.21633l-0.84732,0.3245l0.649,-0.30647" fill="none" stroke="#693e0d" stroke-width="0.5" stroke-linecap="round"/><path d="M258.93378,177.49563c-1.76828,0.5314 -2.86671,-0.50817 -3.72128,-2.2515c-0.85458,-1.74332 -0.9133,-3.41604 0.85498,-3.94744c1.76828,-0.5314 3.32822,-0.3509 4.52069,1.85179c0.98507,1.81959 0.11388,3.81575 -1.65439,4.34715z" fill="none" stroke="#6b0000" stroke-width="1" stroke-linecap="butt"/><path d="M258.59118,177.72403c-1.76828,0.5314 -3.09511,-0.50817 -3.94969,-2.25149c-0.85458,-1.74332 -0.62779,-3.58734 1.14048,-4.11874c1.76828,-0.5314 3.49481,0.45106 4.3494,2.19438c0.85458,1.74332 0.22808,3.64445 -1.54019,4.17585z" fill="none" stroke="#6b0000" stroke-width="1" stroke-linecap="butt"/><path d="M247.4358,174.08298l7.25179,0.54459v0.77799l-6.90919,-0.38899z" fill="none" stroke="#6b0000" stroke-width="1" stroke-linecap="round"/><path d="M241.98221,172.90348l2.91291,-1.31098c0,0 0.67194,-0.71589 1.2337,-0.74544c0.56176,-0.02955 4.30952,0.45388 4.30952,0.45388l-0.29117,2.6988l-0.77106,0.50552l0.65117,0.84816l-0.23984,1.12237l-3.30709,-0.12835l-2.57024,0.83975" fill="#b64404" stroke="#6b0000" stroke-width="0.5" stroke-linecap="round"/><path d="M258.93378,177.49562c-1.76827,0.5314 -2.86671,-0.50817 -3.72128,-2.25149c-0.85458,-1.74332 -0.91329,-3.41604 0.85498,-3.94744c1.76827,-0.5314 3.32822,-0.3509 4.52069,1.85178c0.98508,1.81959 0.11388,3.81575 -1.65439,4.34715z" fill="#873e00" stroke="none" stroke-width="0" stroke-linecap="butt"/><path d="M258.59118,177.72403c-1.76827,0.5314 -3.09511,-0.50817 -3.94969,-2.25149c-0.85458,-1.74332 -0.62779,-3.58735 1.14049,-4.11874c1.76827,-0.5314 3.49481,0.45106 4.34939,2.19439c0.85458,1.74332 0.22808,3.64445 -1.54019,4.17585z" fill="#a6641b" stroke="none" stroke-width="0" stroke-linecap="butt"/><path d="M258.36525,177.15071c-1.45023,0.43582 -2.53842,-0.41677 -3.2393,-1.84654c-0.70087,-1.42977 -0.51487,-2.94213 0.93536,-3.37795c1.45023,-0.43582 2.86624,0.36994 3.56711,1.79971c0.70087,1.42977 0.18706,2.98896 -1.26318,3.42478z" fill="#8a3c00" stroke="none" stroke-width="0" stroke-linecap="butt"/><path d="M247.43579,174.083l7.25179,0.54459v0.77799l-6.90918,-0.389z" fill="#a6641b" stroke="#000000" stroke-width="0" stroke-linecap="round"/><path d="M244.40991,183.458c0,0 0.28834,-1.91086 0.35149,-3.1641c0.06315,-1.25323 -0.50023,-2.83755 -0.50023,-2.83755l4.03521,-0.84045l1.47112,1.12324l-0.56367,1.81178l-2.26397,0.12843l0.06225,1.35343l1.70736,0.00432l0.68015,1.63153l-1.17183,1.29358l-3.8079,-0.50421z" fill="#cf7e16" stroke="#772203" stroke-width="0.5" stroke-linecap="round"/><path d="M249.39044,183.84653c1.94366,-0.13011 3.63189,1.44618 3.77076,3.52074c0.13887,2.07456 -1.32422,3.86179 -3.26788,3.9919c-1.94367,0.1301 -3.63189,-1.44618 -3.77076,-3.52074c-0.13887,-2.07456 1.32421,-3.86179 3.26787,-3.9919z" fill="#d30000" stroke="#caebf0" stroke-width="0.35" stroke-linecap="butt"/><path d="M248.77255,184.76989l2.12689,1.2166l-0.02371,0.69944l-2.33425,-1.68019z" fill="#ffffff" stroke="#000000" stroke-width="0" stroke-linecap="round"/><path d="M253.28988,188.20263c0,1.04084 -0.76628,1.88462 -1.71154,1.88462c-0.94526,0 -1.71154,-0.84377 -1.71154,-1.88462c0,-1.04084 0.76628,-1.88462 1.71154,-1.88462c0.94526,0 1.71154,0.84377 1.71154,1.88462z" fill="#6b4720" stroke="none" stroke-width="0" stroke-linecap="butt"/><path d="M253.28989,188.28755c0,0.90898 -0.66921,1.64585 -1.49471,1.64585c-0.8255,0 -1.4947,-0.73687 -1.4947,-1.64585c0,-0.90898 0.6692,-1.64585 1.4947,-1.64585c0.8255,0 1.49471,0.73687 1.49471,1.64585z" fill="#9d672e" stroke="none" stroke-width="0" stroke-linecap="butt"/><path d="M248.37369,190.88723c-0.98334,-0.55793 -0.69933,-1.29059 -0.69933,-1.29059c0,0 0.30982,0.69581 0.90518,1.06552c0.59536,0.36971 1.75832,0.43209 1.75832,0.43209c0,0 -1.05258,0.36165 -1.96417,-0.20702z" fill="#860000" stroke="#000000" stroke-width="0" stroke-linecap="round"/><path d="M253.18678,188.19933c0.05023,0.75038 -0.49047,1.39761 -1.20769,1.44562c-0.71722,0.04801 -1.33936,-0.52138 -1.38959,-1.27177c-0.05023,-0.75038 0.49047,-1.39761 1.20769,-1.44562c0.71721,-0.04801 1.33936,0.52138 1.38959,1.27177z" fill="#96b8c8" stroke="#caebf0" stroke-width="0" stroke-linecap="butt"/><path d="M241.75579,194.05003c0,1.92791 -1.26879,3.49078 -2.83391,3.49078c-0.51907,0 -3.3007,-0.24678 -3.3007,-0.24678c0,0 0.46679,-1.95547 0.46679,-3.244c0,-1.56882 -0.06795,-3.89889 -0.06795,-3.89889c0,0 2.72295,0.67086 3.01447,0.67086c1.56512,0 2.72131,1.30013 2.72131,3.22804z" fill="#8a4500" stroke="none" stroke-width="0" stroke-linecap="butt"/><path d="M239.01572,193.67467c0,2.05229 -1.35282,3.71599 -3.02159,3.71599c-1.66878,0 -3.02158,-1.66371 -3.02158,-3.71599c0,-2.05229 1.35281,-3.71599 3.02158,-3.71599c1.66878,0 3.02159,1.6637 3.02159,3.71599z" fill="#f79702" stroke="none" stroke-width="0" stroke-linecap="butt"/><path d="M233.19775,194.15007l1.61402,2.06444" fill="none" stroke="#872900" stroke-width="0.25" stroke-linecap="round"/><path d="M238.07734,191.94806l0.90085,0.97591" fill="none" stroke="#872900" stroke-width="0.25" stroke-linecap="round"/><path d="M234.58655,191.23489l1.95184,2.13951" fill="none" stroke="#872900" stroke-width="0.25" stroke-linecap="round"/><path d="M237.10142,192.02313c0.68552,0.5865 0.98507,1.14414 0.82578,2.06444c-0.15929,0.9203 -0.73482,1.68261 -1.50141,1.83923c-0.76659,0.15661 -1.11867,-0.35825 -1.57648,-1.23866c-0.45782,-0.88041 -0.38989,-2.04956 -0.37535,-2.51487c0.01454,-0.46531 0.48796,-1.08852 0.48796,-1.08852c0,0 1.45399,0.35188 2.13951,0.93838zM235.75015,193.88113c-0.45727,0.03473 -0.55542,0.36206 -0.5131,0.80939c0.0328,0.34674 0.2389,0.51522 0.55064,0.46681c0.31175,-0.04841 0.43994,-0.32066 0.43165,-0.61933c-0.0083,-0.29866 -0.01192,-0.6916 -0.46919,-0.65687z" fill="#6be000" stroke="#000000" stroke-width="0" stroke-linecap="butt"/><path d="M239.50368,190.78447c0,0 0.99541,1.221 0.71317,3.44155c-0.27975,2.20104 -2.13951,3.16466 -2.13951,3.16466l-0.60057,-0.07912c0,0 2.0859,-1.50685 2.36473,-3.24377c0.26826,-1.67109 -0.86332,-3.20421 -0.86332,-3.20421z" fill="#4d2100" stroke="#000000" stroke-width="0" stroke-linecap="round"/><path d="M253.72057,188.30506c0.04986,0.74489 -0.48689,1.38739 -1.19886,1.43505c-0.71197,0.04766 -1.32957,-0.51757 -1.37943,-1.26247c-0.04986,-0.74489 0.48689,-1.38739 1.19886,-1.43505c0.71197,-0.04766 1.32957,0.51757 1.37943,1.26247z" fill="#ae7135" stroke="#caebf0" stroke-width="0.35" stroke-linecap="butt"/><path d="M251.86456,189.38757c0,0 -0.5774,-0.4218 -0.53298,-1.12994c0.01364,-0.7423 0.56154,-0.87537 0.56154,-0.87537c0,0 -0.32537,0.43604 -0.35333,0.89786c-0.02797,0.46182 0.32476,1.10744 0.32476,1.10744z" fill="#72502b" stroke="#000000" stroke-width="0" stroke-linecap="round"/><path d="M248.51235,183.1791l-0.57883,0.04105" fill="none" stroke="#b66519" stroke-width="0.25" stroke-linecap="round"/><path d="M248.05617,181.91303l0.61741,-0.04378" fill="none" stroke="#b66519" stroke-width="0.25" stroke-linecap="round"/><path d="M249.016,178.69936l-0.656,0.04652" fill="none" stroke="#b66519" stroke-width="0.25" stroke-linecap="round"/><path d="M248.86082,177.52605l-0.50165,0.03557" fill="none" stroke="#b66519" stroke-width="0.25" stroke-linecap="round"/><path d="M243.01517,181.51165l5.23607,-0.22777c0,0 -0.61127,1.49678 -0.99757,2.05015c-0.32898,0.47126 -1.176,1.06345 -1.176,1.06345l-3.66196,0.26182" fill="url(#color-1)" stroke="#8a2b01" stroke-width="0" stroke-linecap="round"/><path d="M242.92635,182.01034l4.44095,-0.19106c0,0 -0.51746,1.27822 -0.84474,1.75067c-0.27872,0.40235 -0.99674,0.90766 -0.99674,0.90766l-3.1058,0.22121" fill="url(#color-2)" stroke="#8a2b01" stroke-width="0" stroke-linecap="round"/><path d="M232.47643,188.38198l-3.58733,-1.55746c0,0 -3.16623,-1.73461 -3.63811,-2.34293c-0.47188,-0.60832 -3.06108,-3.48096 -3.06108,-3.48096l3.87741,-0.18603c0,0 -3.77883,-2.12896 -4.9648,-3.32092c-0.77245,-0.77635 -1.45878,-2.46845 -1.45878,-2.46845c0,0 2.11109,-0.24908 3.18547,-0.2833c1.10011,-0.03504 3.33981,0.07542 3.33981,0.07542l-0.86433,-2.47301l2.39067,-0.68128c0,0 1.08765,-0.30344 1.99536,-0.33916c1.00915,-0.03972 6.28754,-0.11065 6.28754,-0.11065c0,0 -0.43505,-1.96823 0.84222,-2.41816c1.27727,-0.44993 3.58994,-0.15915 4.85878,0.80347c0.92078,0.69855 0.42514,1.98482 0.42514,1.98482c0,0 2.69213,2.52469 3.19385,8.2992c0.37927,4.36499 -1.95173,8.40913 -1.95173,8.40913c0,0 0.29074,1.10213 -0.12936,1.91903c-0.52852,1.02775 -2.84851,2.1434 -5.03536,1.77989c-0.87258,-0.14505 -1.08693,-1.74374 -1.08693,-1.74374z" fill="#b53406" stroke="#6b0000" stroke-width="0" stroke-linecap="round"/><path d="M242.36016,176.04563l3.66196,0.26183c0,0 0.84703,0.59219 1.176,1.06345c0.3863,0.55337 0.99757,2.05014 0.99757,2.05014l-5.23607,-0.22777" data-paper-data="{&quot;index&quot;:null}" fill="url(#color-3)" stroke="#8a2b01" stroke-width="0" stroke-linecap="round"/><path d="M244.36086,183.25587l3.02265,1.98036l2.65784,1.56344c0,0 -1.49144,0.52005 -1.66767,1.51131c-0.17783,1.00028 0.6775,2.29305 0.6775,2.29305c0,0 -2.6426,0.21387 -3.12687,0.10422c-0.48427,-0.10965 -0.88595,-1.25075 -0.88595,-1.25075l-3.2311,-2.76207" data-paper-data="{&quot;index&quot;:null}" fill="#b64404" stroke="#6b0000" stroke-width="0.5" stroke-linecap="round"/><path d="M245.97641,188.46395v-0.57325l1.40709,0.88595l-0.88594,-1.30287l0.99017,0.10423l-0.62537,-1.09441l0.67749,-0.15635l-0.15635,-0.83383l1.14652,-0.05211l2.08458,1.04229l0.15635,0.46903c0,0 -1.55456,0.32926 -1.82401,1.40709c-0.26946,1.07783 0.83383,2.55362 0.83383,2.55362c0,0 -3.05049,-0.18421 -3.85648,-0.62538c-0.80599,-0.44118 -1.14865,-1.81336 -1.14865,-1.81336z" fill="#cf7d14" stroke="#000000" stroke-width="0" stroke-linecap="round"/><path d="M241.76094,186.37878l2.55788,-3.57944l2.86475,1.87671c0,0 -0.30043,1.16499 -0.72616,1.7193c-0.54989,0.71597 -2.29707,2.217 -2.29707,2.217z" fill="url(#color-4)" stroke="#000000" stroke-width="0" stroke-linecap="round"/><path d="M242.4055,186.90263c0,0 1.69069,-0.14442 2.46797,-0.78811c0.77729,-0.6437 0.97584,-2.29944 0.97584,-2.29944l0.94232,0.7296c0,0 -1.17399,2.27586 -1.07581,2.3037c0.29007,0.09324 1.44274,-2.17873 1.44274,-2.17873l0.33768,0.26058c0,0 -0.61153,1.54106 -1.2614,2.19094c-0.64988,0.64988 -2.03459,1.43054 -2.03459,1.43054z" fill="url(#color-5)" stroke="#000000" stroke-width="0" stroke-linecap="round"/><path d="M242.36448,176.0061l3.1058,0.22121c0,0 0.71802,0.50531 0.99674,0.90767c0.32727,0.47245 0.84474,1.75067 0.84474,1.75067l-4.44095,-0.19106" data-paper-data="{&quot;index&quot;:null}" fill="url(#color-6)" stroke="#8a2b01" stroke-width="0" stroke-linecap="round"/><path d="M240.7276,171.4414l-3.3122,-0.37233c0,0 -0.34498,-1.14403 0.25954,-1.30518c0.60452,-0.16117 1.94412,-0.07573 2.9162,0.45846c0.97209,0.53419 0.13646,1.21906 0.13646,1.21906z" data-paper-data="{&quot;index&quot;:null}" fill="#cd7d10" stroke="#8a2b01" stroke-width="0.25" stroke-linecap="round"/><path d="M247.09717,175.18219l-0.65118,-0.84816l0.95097,-0.63405l-1.21661,-0.30837l1.2851,-0.73687l-1.60212,0.41988l0.11991,-0.71968l-0.97673,-0.47974l1.2337,-0.74543l4.03536,0.51386l-0.43686,1.98771l-0.97666,0.78826l0.83965,0.66824l-0.17986,1.07952l-3.22141,-0.00842z" fill="#cf7d14" stroke="#000000" stroke-width="0" stroke-linecap="round"/><path d="M244.43677,171.7596c0,0 1.3085,1.89566 1.65845,2.72784c0.12062,0.28686 0.36812,2.22192 0.36812,2.22192l-3.26094,1.00261l-1.65376,-4.40167z" data-paper-data="{&quot;index&quot;:null}" fill="url(#color-7)" stroke="#000000" stroke-width="0" stroke-linecap="round"/><path d="M244.45997,171.82838c0,0 1.14096,1.10685 1.6044,1.90051c0.46345,0.79366 0.72583,2.88988 0.72583,2.88988l-0.39281,0.16623c0,0 -0.60008,-2.94063 -0.90432,-2.92414c-0.10204,0.00198 0.51768,2.95179 0.51768,2.95179l-1.09676,0.46626c0,0 0.16617,-2.10222 -0.42208,-2.92227c-0.58825,-0.82005 -2.18678,-1.38926 -2.18678,-1.38926z" data-paper-data="{&quot;index&quot;:null}" fill="url(#color-8)" stroke="#000000" stroke-width="0" stroke-linecap="round"/><path d="M241.76111,189.08949c0,0 0.83767,0.6174 -0.1309,1.13482c-0.96856,0.51743 -2.30621,0.62632 -2.91073,0.49004c-0.60452,-0.13628 -0.26503,-1.20603 -0.26503,-1.20603l3.30665,-0.41882z" data-paper-data="{&quot;index&quot;:null}" fill="#cd7d10" stroke="#8a2b01" stroke-width="0.25" stroke-linecap="round"/><path d="M241.57798,171.83092c0,0 3.52382,1.70083 3.85033,8.18757c0.30766,6.11228 -3.87696,9.12173 -3.87696,9.12173l-2.9737,0.0826c0,0 -1.35398,-0.09701 -1.50305,-2.84258c-0.6227,-4.87431 3.47424,-6.37257 3.47424,-6.37257c0,0 -3.64494,-0.83218 -4.33587,-6.24084c-0.1669,-1.30648 0.50451,-2.3819 0.50451,-2.3819z" fill="url(#color-9)" stroke="#8a2b01" stroke-width="0.5" stroke-linecap="round"/><path d="M243.62849,182.01546c1.22584,0.5683 1.57308,2.13105 0.77557,3.49053c-0.79752,1.35948 -2.43778,2.00085 -3.66364,1.43255c-1.22584,-0.5683 -1.57308,-2.13105 -0.77557,-3.49053c0.79752,-1.35948 2.43778,-2.00085 3.66364,-1.43255z" fill="#ffffff" stroke="#954116" stroke-width="0" stroke-linecap="butt"/><path d="M239.58062,176.91615c-0.94216,-1.31417 -0.76718,-2.93644 0.39085,-3.62346c1.15801,-0.68702 2.86055,-0.1786 3.80271,1.13558c0.94216,1.31417 0.76718,2.93645 -0.39084,3.62346c-1.15801,0.68702 -2.86056,0.1786 -3.80274,-1.13558z" data-paper-data="{&quot;index&quot;:null}" fill="#ffffff" stroke="#954116" stroke-width="0" stroke-linecap="butt"/><path d="M239.08583,175.16328l0.82673,2.43542l-1.71516,0.3865l-0.95093,-2.60514z" data-paper-data="{&quot;index&quot;:null}" fill="#8d4f11" stroke="#602a0d" stroke-width="0" stroke-linecap="round"/><path d="M237.67981,184.82258l0.95093,-2.60514l1.71517,0.3865l-0.82674,2.43543z" data-paper-data="{&quot;index&quot;:null}" fill="#8d4f11" stroke="#602a0d" stroke-width="0" stroke-linecap="round"/><path d="M241.31589,177.16854c-0.02409,-0.41082 0.45582,-0.764 1.07193,-0.78886c0.6161,-0.02485 1.13508,0.28803 1.15917,0.69885c0.02409,0.41082 -0.45582,0.764 -1.07193,0.78886c-0.6161,0.02485 -1.13508,-0.28803 -1.15917,-0.69885z" data-paper-data="{&quot;index&quot;:null}" fill="#df6500" stroke="none" stroke-width="0" stroke-linecap="butt"/><path d="M241.35082,177.16854c-0.01648,-0.57014 0.57551,-0.6614 0.57551,-0.6614l0.08595,1.29653c0,0 -0.67126,-0.06499 -0.66146,-0.63512z" data-paper-data="{&quot;index&quot;:null}" fill="#8b2900" stroke="none" stroke-width="0" stroke-linecap="butt"/><path d="M241.83441,183.45223c-0.02341,-0.4811 0.44276,-0.8947 1.04121,-0.92381c0.59845,-0.0291 1.10254,0.3373 1.12595,0.8184c0.02341,0.4811 -0.44275,0.89471 -1.0412,0.92382c-0.59845,0.0291 -1.10255,-0.33731 -1.12595,-0.81841z" data-paper-data="{&quot;index&quot;:null}" fill="#df6500" stroke="none" stroke-width="0" stroke-linecap="butt"/><path d="M241.86834,183.45223c-0.016,-0.66768 0.55902,-0.77455 0.55902,-0.77455l0.08349,1.51833c0,0 -0.65202,-0.07611 -0.64251,-0.74378z" data-paper-data="{&quot;index&quot;:null}" fill="#8b2900" stroke="none" stroke-width="0" stroke-linecap="butt"/><path d="M233.71913,182.76773c0,0 -1.7617,-0.49859 -2.7613,-1.2139c-1.32804,-0.95035 -4.50536,-3.9861 -4.50536,-3.9861c0,0 3.28483,1.5558 4.65055,1.87004c1.07527,0.2474 2.88278,-0.13671 2.88278,-0.13671z" fill="#a02802" stroke="#000000" stroke-width="0" stroke-linecap="round"/><path d="M224.25247,182.87882c0,0 3.16679,1.57868 4.42408,1.99371c0.93422,0.30838 2.44259,0.27295 2.44259,0.27295l-0.2,2.73334c0,0 -1.77219,-0.69581 -2.736,-1.41867c-1.20437,-0.90328 -3.93067,-3.58133 -3.93067,-3.58133z" fill="#a02802" stroke="#000000" stroke-width="0" stroke-linecap="round"/><path d="M233.5858,176.2566l-5.4,-1.73334l2.73333,-0.26666l-3.86666,-1.06667l6.6,-0.26666z" fill="#a02802" stroke="#000000" stroke-width="0" stroke-linecap="round"/><path d="M223.32466,177.62565c0.7358,0.43943 2.06114,0.89763 2.06114,0.89763l-2,-0.46667l1.73334,1.86667c0,0 -1.7319,-1.10454 -2.50398,-1.8312c-0.73744,-0.69406 -2.02936,-2.43547 -2.02936,-2.43547c0,0 1.89068,1.46249 2.73886,1.96904z" fill="#a02802" stroke="#000000" stroke-width="0" stroke-linecap="round"/><path d="M237.33667,189.76263l-4.36808,-1.63803v-15.89496l3.64007,-0.91002c0,0 0.53675,0.422 0.75501,0.78758c0.21827,0.36559 1.8188,0.24099 1.89214,3.64632c0.07518,3.49083 -3.19317,4.72693 -3.19317,4.72693c0,0 3.33673,1.27897 3.2154,4.73209c-0.07568,2.15383 -1.30624,2.344 -1.86549,3.37268c-0.37239,0.68496 -0.07588,1.1774 -0.07588,1.1774z" fill="url(#color-10)" stroke="none" stroke-width="0" stroke-linecap="butt"/><path d="M234.66559,171.26302l0.05447,8.78054c0,0 -0.19586,0.01057 -0.29505,0.01057c-2.33209,0 -4.2226,-1.96953 -4.2226,-4.39906c0,-2.42953 1.89051,-4.39907 4.2226,-4.39907c0.08075,0 0.24058,0.00702 0.24058,0.00702z" data-paper-data="{&quot;index&quot;:null}" fill="#d89400" stroke="none" stroke-width="0" stroke-linecap="butt"/><path d="M234.80357,171.28698c2.33209,0 4.2226,1.96953 4.2226,4.39907c0,2.42953 -1.89052,4.39906 -4.2226,4.39906c-0.09919,0 -0.29505,-0.01057 -0.29505,-0.01057l0.05447,-8.78053c0,0 0.15983,-0.00702 0.24058,-0.00702z" fill="#efc524" stroke="none" stroke-width="0" stroke-linecap="butt"/><path d="M231.74947,175.45391c-0.01696,2.16725 1.7365,2.62795 1.7365,2.62795l-0.15448,1.7177c0,0 -3.07324,-0.77057 -2.98712,-4.19118c0.07955,-3.15975 2.86818,-4.13548 2.86818,-4.13548l0.14265,1.42902c0,0 -1.59117,0.69206 -1.60573,2.55199z" data-paper-data="{&quot;index&quot;:null}" fill="#efc224" stroke="#f6e143" stroke-width="0.125" stroke-linecap="round"/><path d="M234.98945,181.07643c2.33209,0 4.2226,1.96953 4.2226,4.39907c0,2.42953 -1.89051,4.39906 -4.2226,4.39906c-0.09919,0 -0.29506,-0.01057 -0.29506,-0.01057l0.05447,-8.78053c0,0 0.15984,-0.00702 0.24059,-0.00702z" fill="#efc524" stroke="none" stroke-width="0" stroke-linecap="butt"/><path d="M234.5012,180.11091v-8.85492z" fill="none" stroke="#be7e01" stroke-width="0.3" stroke-linecap="round"/><path d="M234.85146,181.05248l0.05447,8.78053c0,0 -0.19586,0.01058 -0.29505,0.01058c-2.33209,0 -4.22261,-1.96953 -4.22261,-4.39907c0,-2.42953 1.89052,-4.39906 4.22261,-4.39906c0.08075,0 0.24058,0.00701 0.24058,0.00701z" data-paper-data="{&quot;index&quot;:null}" fill="#d89400" stroke="none" stroke-width="0" stroke-linecap="butt"/><path d="M231.83036,185.68441c0.01456,1.82344 1.60574,2.50192 1.60574,2.50192l-0.14265,1.40098c0,0 -2.78863,-0.95659 -2.86818,-4.05435c-0.08612,-3.3535 2.94667,-4.23189 2.94667,-4.23189l0.23538,1.68322c0,0 -1.79392,0.57538 -1.77696,2.70011z" fill="#efc224" stroke="#f6e143" stroke-width="0.125" stroke-linecap="round"/><path d="M232.73881,189.39449c0,0 -0.43625,-0.23915 -0.61822,-0.39481c-0.2063,-0.17647 -0.55578,-0.60942 -0.55578,-0.60942l6.85862,-5.46053c0,0 0.39852,0.47853 0.48792,0.70557c0.07117,0.18075 0.00639,0.54973 0.00639,0.54973l-6.17894,5.20947z" fill="#f9f65a" stroke="#000000" stroke-width="0" stroke-linecap="round"/><path d="M231.13562,188.01451c0,0 -0.27721,-0.33908 -0.37302,-0.5954c-0.098,-0.26219 -0.24903,-0.92005 -0.24903,-0.92005l6.33307,-4.85443c0,0 0.69311,0.30543 0.96018,0.50905c0.2486,0.18954 0.59078,0.67344 0.59078,0.67344l-7.26198,5.1874z" fill="#f9f65a" stroke="#000000" stroke-width="0" stroke-linecap="round"/><path d="M232.45686,179.61001c0,0 -0.44032,-0.27836 -0.62373,-0.43282c-0.20792,-0.17509 -0.55953,-0.56361 -0.55953,-0.56361l6.91275,-5.4181c0,0 0.40167,0.4748 0.49177,0.70008c0.07174,0.17935 0.00644,0.54546 0.00644,0.54546l-6.2277,5.169z" fill="#f9f65a" stroke="#000000" stroke-width="0" stroke-linecap="round"/><path d="M230.61726,177.63462c-0.09438,-0.26219 -0.16193,-0.92006 -0.16193,-0.92006l6.09915,-4.85443c0,0 0.66751,0.30544 0.92471,0.50905c0.23942,0.18953 0.56896,0.67344 0.56896,0.67344l-7.0327,5.22785c0,0 -0.30591,-0.37954 -0.39819,-0.63585z" fill="#f9f65a" stroke="#000000" stroke-width="0" stroke-linecap="round"/><path d="M234.66465,172.62851c1.64502,0 2.97858,1.28766 2.97858,2.87606c0,1.5884 -1.33356,2.87606 -2.97858,2.87606c-1.64502,0 -2.97857,-1.28766 -2.97857,-2.87606c0,-1.5884 1.33355,-2.87606 2.97857,-2.87606z" fill="url(#color-11)" stroke="none" stroke-width="0" stroke-linecap="butt"/><path d="M234.68708,189.90038v-8.85492z" fill="none" stroke="#be7e01" stroke-width="0.3" stroke-linecap="round"/><path d="M234.73026,182.79246c1.56803,0 2.83916,1.27379 2.83916,2.84508c0,1.57129 -1.27113,2.84509 -2.83916,2.84509c-1.56803,0 -2.83917,-1.27379 -2.83917,-2.84509c0,-1.57129 1.27114,-2.84508 2.83917,-2.84508z" fill="url(#color-12)" stroke="none" stroke-width="0" stroke-linecap="butt"/><path d="M238.57232,187.76376c0,0 0.41889,-2.98029 -0.46593,-4.54997c-0.88482,-1.56968 -3.08677,-2.14711 -3.08677,-2.14711c0,0 2.3397,-0.04093 3.49446,1.7879c1.48768,2.35609 0.05824,4.90918 0.05824,4.90918z" fill="#d59200" stroke="#000000" stroke-width="0" stroke-linecap="round"/><path d="M238.33936,178.25686c-1.15476,1.86064 -3.49447,1.819 -3.49447,1.819c0,0 2.20196,-0.58748 3.08678,-2.18446c0.88482,-1.59698 0.46592,-4.62911 0.46592,-4.62911c0,0 1.42945,2.59749 -0.05823,4.99456z" data-paper-data="{&quot;index&quot;:null}" fill="#d59200" stroke="#000000" stroke-width="0" stroke-linecap="round"/></g></g></svg>