<svg version="1.1" xmlns="http://www.w3.org/2000/svg" xmlns:xlink="http://www.w3.org/1999/xlink" width="325.64721" height="525.29602" viewBox="0,0,325.64721,525.29602"><defs><linearGradient x1="126.91841" y1="353.7421" x2="243.59198" y2="353.0446" gradientUnits="userSpaceOnUse" id="color-1"><stop offset="0" stop-color="#ddf629"/><stop offset="1" stop-color="#b2e01d"/></linearGradient><linearGradient x1="237.17927" y1="351.07385" x2="353.85314" y2="350.37635" gradientUnits="userSpaceOnUse" id="color-2"><stop offset="0" stop-color="#a5da1a"/><stop offset="1" stop-color="#dcf528"/></linearGradient><radialGradient cx="240.61456" cy="145.53944" r="227.69799" gradientUnits="userSpaceOnUse" id="color-3"><stop offset="0" stop-color="#525252"/><stop offset="1" stop-color="#5d5d5d"/></radialGradient><linearGradient x1="243.63574" y1="442.14175" x2="242.64048" y2="290.68776" gradientUnits="userSpaceOnUse" id="color-4"><stop offset="0" stop-color="#def529"/><stop offset="1" stop-color="#afdf1b"/></linearGradient><radialGradient cx="356.31219" cy="305.00757" r="54.83768" gradientUnits="userSpaceOnUse" id="color-5"><stop offset="0" stop-color="#8e8e8c"/><stop offset="1" stop-color="#585858"/></radialGradient><radialGradient cx="356.2359" cy="346.90464" r="29.48236" gradientUnits="userSpaceOnUse" id="color-6"><stop offset="0" stop-color="#e7f32d"/><stop offset="1" stop-color="#c6ec25"/></radialGradient><linearGradient x1="357.33051" y1="283.07727" x2="357.11452" y2="250.20879" gradientUnits="userSpaceOnUse" id="color-7"><stop offset="0" stop-color="#c1e126"/><stop offset="1" stop-color="#ebf932"/></linearGradient><radialGradient cx="356.69695" cy="335.97295" r="33.04067" gradientUnits="userSpaceOnUse" id="color-8"><stop offset="0" stop-color="#e7f32d"/><stop offset="1" stop-color="#c6ec25"/></radialGradient><radialGradient cx="122.85858" cy="307.64403" r="54.83768" gradientUnits="userSpaceOnUse" id="color-9"><stop offset="0" stop-color="#8e8e8c"/><stop offset="1" stop-color="#585858"/></radialGradient><linearGradient x1="122.78296" y1="285.36374" x2="122.56697" y2="252.49523" gradientUnits="userSpaceOnUse" id="color-10"><stop offset="0" stop-color="#c1e126"/><stop offset="1" stop-color="#ebf932"/></linearGradient><radialGradient cx="123.48551" cy="349.53687" r="29.48236" gradientUnits="userSpaceOnUse" id="color-11"><stop offset="0" stop-color="#e7f32d"/><stop offset="1" stop-color="#c6ec25"/></radialGradient><radialGradient cx="122.8808" cy="338.61124" r="33.04066" gradientUnits="userSpaceOnUse" id="color-12"><stop offset="0" stop-color="#e7f32d"/><stop offset="1" stop-color="#c6ec25"/></radialGradient></defs><g transform="translate(-77.1764,82.64054)"><g data-paper-data="{&quot;isPaintingLayer&quot;:true}" fill-rule="nonzero" stroke-linejoin="miter" stroke-miterlimit="10" stroke-dasharray="" stroke-dashoffset="0" style="mix-blend-mode: normal"><g><path d="M337.24201,322.17906l-184.5863,1.10349l-0.16805,-25.57258l184.5863,-1.1035z" fill="#585858" stroke="#404040" stroke-width="1" stroke-linecap="butt"/><path d="M243.73151,374.27863c0,0 -78.97978,26.60073 -112.44772,16.97285c-22.46295,-6.46216 53.48767,-77.60122 53.48767,-77.60122z" data-paper-data="{&quot;index&quot;:null}" fill="url(#color-1)" stroke="#404040" stroke-width="1" stroke-linecap="round"/><path d="M295.47782,310.97934c0,0 76.8792,70.22542 54.50333,76.95563c-33.33877,10.02727 -112.66233,-15.62673 -112.66233,-15.62673z" data-paper-data="{&quot;index&quot;:null}" fill="url(#color-2)" stroke="#404040" stroke-width="1" stroke-linecap="round"/><path d="M235.68361,-82.06102c22.35638,-2.98176 126.54807,78.15309 125.72588,198.86935c0.00333,110.55226 -120.42575,256.43093 -120.42575,256.43093c0,0 -124.15393,-130.20103 -121.45302,-251.19555c2.70089,-120.99452 78.98293,-204.79152 116.15288,-204.10466z" fill="url(#color-3)" stroke="#404040" stroke-width="1" stroke-linecap="butt"/><path d="M313.99334,-8.81915c0,0 -33.13276,24.3363 -81.52678,24.62561c-48.39402,0.28931 -74.19369,-20.02947 -74.19369,-20.02947" fill="none" stroke="#b6f900" stroke-width="3" stroke-linecap="round"/><path d="M298.04098,-30.33278c0.06599,10.0416 -28.13592,25.56178 -66.22826,25.78951c-38.09244,0.22773 -63.33026,-11.09903 -63.39625,-21.14072c-0.06599,-10.0416 38.23539,-53.73955 66.31022,-54.69035c26.91855,-0.91173 63.24836,40.00003 63.31435,50.0416z" fill="#b6f900" stroke="none" stroke-width="0" stroke-linecap="butt"/><path d="M148.33144,237.29087c0,0 58.13423,12.10026 88.48104,12.06248c29.51651,-0.03679 91.17776,-12.2863 91.17776,-12.2863l-16.51465,27.30623c0,0 -48.30013,11.68532 -72.6805,11.6901c-24.63912,0.00486 -74.38629,-11.66115 -74.38629,-11.66115z" fill="#b6f900" stroke="none" stroke-width="0" stroke-linecap="round"/><path d="M128.29279,180.46639c0,0 71.87913,7.16896 108.63592,6.80835c37.19426,-0.36488 113.23279,-8.98499 113.23279,-8.98499l-9.41249,28.96423c0,0 -70.06192,7.18732 -104.16208,7.67698c-33.53337,0.48147 -98.7669,-4.76335 -98.7669,-4.76335z" fill="#b6f900" stroke="none" stroke-width="0" stroke-linecap="round"/><path d="M238.07489,-81.94549l-0.85865,455.96524" fill="none" stroke="#3e3e3c" stroke-width="0.5" stroke-linecap="round"/><path d="M180.55741,147.89371c14.25856,-159.52095 35.27353,-233.22004 56.34701,-229.90262c33.60781,5.29052 66.63686,170.59463 67.14887,225.19955c0.83307,88.84512 -62.63895,221.41781 -62.63895,221.41781c0,0 -67.81362,-138.88058 -60.8569,-216.71473z" fill="none" stroke="#3e3e3c" stroke-width="0.5" stroke-linecap="round"/><path d="M192.658,326.80974c0,0 -54.73291,-117.6513 -56.19174,-190.82911c-1.45844,-73.17778 54.43781,-193.33934 54.43781,-193.33934" fill="none" stroke="#3e3e3c" stroke-width="0.5" stroke-linecap="round"/><path d="M285.95989,-52.63677c0,0 51.27724,119.32876 50.78026,192.51827c-0.49659,73.18947 -47.77562,177.85666 -47.77562,177.85666" data-paper-data="{&quot;index&quot;:null}" fill="none" stroke="#3e3e3c" stroke-width="0.5" stroke-linecap="round"/><path d="M243.93048,442.13987c-27.89465,0.3424 -11.50003,-129.89858 -7.70683,-150.52142c0.33214,-1.80566 13.09368,-3.72361 13.96618,0.91165c5.6803,30.17629 19.31902,149.29564 -6.25939,149.60979z" data-paper-data="{&quot;index&quot;:null}" fill="url(#color-4)" stroke="#404040" stroke-width="1" stroke-linecap="butt"/><path d="M184.96257,27.60022l-22.84386,51.96517c0,0 -28.73033,-11.28363 -19.18659,-34.4159c10.98573,-26.62742 42.03052,-17.5493 42.03052,-17.5493z" fill="#252525" stroke="none" stroke-width="0" stroke-linecap="round"/><path d="M182.38826,31.52002l-18.16945,43.1671c0,0 -22.86893,-9.38034 -15.27856,-28.59637c8.73761,-22.11947 33.44801,-14.5707 33.44801,-14.5707z" fill="#ffffff" stroke="#252525" stroke-width="0.5" stroke-linecap="round"/><path d="M336.13304,36.48001c10.0531,23.39715 -19.12719,35.21677 -19.12719,35.21677l-24.01753,-52.54336c0,0 31.57271,-9.60588 43.14474,17.32659z" fill="#252525" stroke="none" stroke-width="0" stroke-linecap="round"/><path d="M329.25637,38.07003c7.84268,19.1238 -14.90153,28.77679 -14.90153,28.77679l-18.73534,-42.94681c0,0 24.60925,-7.84324 33.63687,14.17003z" fill="#ffffff" stroke="#252525" stroke-width="0.5" stroke-linecap="round"/><path d="M356.62226,250.1674c37.71581,-0.22547 51.66808,7.81133 40.93537,61.43295c-10.75173,53.71578 -20.40012,44.63349 -41.32773,47.82707c-14.38922,1.26071 -36.27182,3.70943 -43.07875,-49.67221c-7.10878,-55.74937 5.75561,-59.36271 43.47107,-59.58818z" fill="url(#color-5)" stroke="#404040" stroke-width="1" stroke-linecap="butt"/><path d="M387.13239,344.68658c0,0 -20.78232,4.1909 -31.41603,4.25447c-9.92393,0.05932 -30.40371,-3.8849 -30.40371,-3.8849" fill="none" stroke="url(#color-6)" stroke-width="1" stroke-linecap="round"/><path d="M357.71665,250.20793c53.50211,-0.00626 43.94473,29.08186 43.94473,29.08186c0,0 -27.95614,3.38991 -42.89099,3.75593c-14.36726,0.35213 -45.08143,-1.59985 -45.08143,-1.59985c0,0 -13.94222,-31.2312 44.02772,-31.23793z" data-paper-data="{&quot;index&quot;:null}" fill="url(#color-7)" stroke="#252525" stroke-width="1" stroke-linecap="butt"/><path d="M391.31906,332.9702c0,0 -23.25691,5.73058 -35.1366,5.8016c-11.16992,0.06678 -34.14433,-5.38742 -34.14433,-5.38742" fill="none" stroke="url(#color-8)" stroke-width="1" stroke-linecap="round"/><path d="M355.4598,254.43901c14.35895,-0.08584 26.01309,1.96027 26.03024,4.57009c0.01715,2.60988 -11.60919,4.7951 -25.96814,4.88095c-14.35895,0.08584 -26.01309,-1.96027 -26.03024,-4.57009c-0.01715,-2.60988 11.60919,-4.7951 25.96814,-4.88094z" fill="#000000" stroke="none" stroke-width="0" stroke-linecap="butt"/><path d="M166.0786,311.87527c-6.10522,53.45846 -28.01787,51.27193 -42.42256,50.18336c-20.9679,-2.94312 -30.49655,6.25382 -41.95303,-47.3292c-11.43658,-53.48906 2.40897,-61.69242 40.12439,-61.91789c37.71581,-0.22547 50.62667,3.23381 44.25117,59.06375z" fill="url(#color-9)" stroke="#404040" stroke-width="1" stroke-linecap="butt"/><path d="M166.39967,283.21065c0,0 -30.68611,2.31904 -45.05689,2.13872c-14.93852,-0.18743 -42.93698,-3.24283 -42.93698,-3.24283c0,0 -9.93888,-28.97151 43.55907,-29.60497c57.96553,-0.68636 44.4348,30.70909 44.4348,30.70909z" fill="url(#color-10)" stroke="#252525" stroke-width="1" stroke-linecap="butt"/><path d="M154.382,347.31884c0,0 -20.42634,4.18877 -30.35026,4.2481c-10.6337,0.06357 -31.46948,-3.87853 -31.46948,-3.87853" fill="none" stroke="url(#color-11)" stroke-width="1" stroke-linecap="round"/><path d="M157.50291,335.60849c0,0 -22.90089,5.72845 -34.07084,5.79522c-11.88008,0.07102 -35.21009,-5.38105 -35.21009,-5.38105" fill="none" stroke="url(#color-12)" stroke-width="1" stroke-linecap="round"/><path d="M149.07645,261.63923c0.01715,2.60979 -11.60919,4.79516 -25.96814,4.881c-14.35895,0.08584 -26.01309,-1.96027 -26.03024,-4.57015c-0.01715,-2.60979 11.60919,-4.79517 25.96813,-4.88101c14.35895,-0.08584 26.01309,1.96027 26.03025,4.57015z" fill="#000000" stroke="none" stroke-width="0" stroke-linecap="butt"/><path d="M255.82201,77.30294c0,0 25.03093,-0.11515 34.35735,10.28749c9.32642,10.4027 14.03714,21.78169 13.45785,43.04571c-0.57933,21.26399 1.94788,37.35223 -13.91577,51.92663c-15.86365,14.5744 -34.65876,16.64151 -58.71285,14.79911c-24.05405,-1.84237 -39.71276,-5.95598 -54.50908,-23.47111c-14.79622,-17.51511 -9.89381,-30.34508 -8.35437,-50.94355c1.53948,-20.59853 3.84787,-20.98084 18.79137,-34.4482c14.94349,-13.46739 29.66738,-9.22383 29.66738,-9.22383l1.41432,-14.81351l11.85725,-0.15438l-1.69754,14.57028l2.31895,-0.44571l1.21189,-13.64893l9.28951,0.30533l0.97705,13.34312l1.87383,-0.78445l-1.28609,-12.28791l12.51463,1.56722zM178.83641,109.81503c0.82144,9.0863 6.15816,19.12883 10.55516,20.49763c14.11402,4.39373 35.3275,-11.25901 33.84128,-24.28636c-1.21925,-10.68778 -7.33783,-19.79201 -25.59116,-19.53094c-5.20779,0.07448 -19.51343,15.48639 -18.80531,23.31964zM283.45506,87.42638c-2.76417,-1.63671 -6.02995,-2.57354 -9.52361,-2.55265c-2.24809,0.01344 -4.39662,0.42226 -6.37354,1.15696c-5.85234,1.86241 -10.64212,6.5183 -11.30524,14.27998c-0.0552,0.56351 -0.08163,1.13497 -0.07783,1.71298c0.01366,2.07776 0.41656,4.06642 1.14243,5.90335c8.58742,31.91102 43.31409,17.39181 33.5605,-12.03323c-1.26015,-3.8016 -4.00317,-6.65145 -7.42268,-8.46735zM230.9069,90.28157c0,0 2.25405,8.84131 3.2155,13.76259c1.08494,5.55337 1.46981,16.47942 1.46981,16.47942l2.78181,-0.20959c0,0 1.28901,-12.68691 2.08559,-16.31748c1.083,-4.93612 3.57107,-13.69124 3.57107,-13.69124z" fill="#ffffff" stroke="none" stroke-width="0" stroke-linecap="butt"/><path d="M271.13371,91.95705c6.12005,-0.03659 11.1163,5.25731 11.15946,11.82427c0.04315,6.56692 -4.8832,11.92012 -11.00318,11.95671c-6.12005,0.03659 -11.1163,-5.25731 -11.15946,-11.82421c-0.04315,-6.56692 4.8831,-11.92018 11.00318,-11.95677z" fill="#bddc5b" stroke="none" stroke-width="0" stroke-linecap="butt"/><path d="M208.97114,94.18762c6.60423,2.02988 10.01709,9.42026 7.62286,16.5067c-2.3943,7.0865 -9.68898,11.18563 -16.29328,9.15573c-6.60423,-2.02988 -10.01709,-9.42016 -7.62279,-16.50666c2.3943,-7.0865 9.68895,-11.18569 16.29322,-9.15573z" fill="#bddc5b" stroke="none" stroke-width="0" stroke-linecap="butt"/></g></g></g></svg>