<svg version="1.1" xmlns="http://www.w3.org/2000/svg" xmlns:xlink="http://www.w3.org/1999/xlink" width="103.42315" height="155.28612" viewBox="0,0,103.42315,155.28612"><defs><linearGradient x1="240.42452" y1="135.60587" x2="240.42452" y2="199.9239" gradientUnits="userSpaceOnUse" id="color-1"><stop offset="0" stop-color="#fff5d7"/><stop offset="1" stop-color="#eeefee"/></linearGradient><linearGradient x1="253.21292" y1="195.81671" x2="253.21292" y2="202.9319" gradientUnits="userSpaceOnUse" id="color-2"><stop offset="0" stop-color="#b053a5"/><stop offset="1" stop-color="#e4d8b3"/></linearGradient><linearGradient x1="227.05412" y1="195.39817" x2="227.05412" y2="202.51336" gradientUnits="userSpaceOnUse" id="color-3"><stop offset="0" stop-color="#b053a5"/><stop offset="1" stop-color="#e4d8b3"/></linearGradient></defs><g transform="translate(-187.34507,-89.21398)"><g data-paper-data="{&quot;isPaintingLayer&quot;:true}" fill-rule="nonzero" stroke="none" stroke-linecap="butt" stroke-linejoin="miter" stroke-miterlimit="10" stroke-dasharray="" stroke-dashoffset="0" style="mix-blend-mode: normal"><path d="M281.34032,222.35387c-5.2153,-1.4779 -8.28593,3.21422 -13.47351,3.55202c-2.61097,0.17001 -4.6908,-1.01874 -7.179,-1.44015c-1.09851,-0.18604 -2.38476,0.20657 -3.31826,-0.40165c-3.08739,-2.01153 -2.17882,-4.94944 -2.19466,-7.93943c-0.02866,-5.41098 0.82004,-10.44693 1.91081,-15.71598c0.42693,-1.37603 1.51618,-6.41757 3.55065,-7.02581c1.3793,-0.41237 2.97633,0.36221 4.14998,1.1959c0.81947,0.5821 0.94516,1.7772 1.33804,2.70242c1.17724,2.7724 1.95406,5.4293 3.70131,7.94304c3.5022,5.03858 10.69491,5.22612 13.90584,10.21069c0.5374,0.83424 0.70649,1.85468 1.05973,2.78202l0.51325,2.21298c0,0 0.4583,2.04191 -1.58361,2.5002c-0.94258,0.21155 -1.5477,-0.10964 -1.92607,-0.51684c-0.27096,-0.0116 -0.4545,-0.05943 -0.4545,-0.05943z" data-paper-data="{&quot;index&quot;:null}" fill="#f0eeed" stroke-width="0.5"/><path d="M272.16367,225.11335c-0.64356,0.23435 -5.53671,2.37594 -6.27205,2.14884c-1.9748,-0.60992 -3.7552,-4.04216 -3.65635,-6.0015c0.3311,-6.56294 9.88034,-6.13229 14.49108,-6.83489c2.0618,-0.31418 3.30535,-0.91196 5.45022,-0.23863c1.00239,0.31468 1.83221,1.02871 2.74832,1.54307c0.71448,1.01599 1.93896,1.82286 2.14346,3.04797c0.19098,1.14415 -0.72178,2.20482 -1.08266,3.30724l-2.27042,1.28019c0,0 -0.36899,0.00863 -0.80067,-0.13631c-3.52735,1.06492 -7.24817,0.60855 -10.75094,1.88404z" data-paper-data="{&quot;index&quot;:null}" fill="#fac924" stroke-width="0.5"/><path d="M290.23692,230.24271c-0.82466,1.67632 -3.34179,1.67215 -5.03411,2.46344c-0.63044,0.29477 -0.96017,2.73133 -0.99405,2.8374c-0.75665,2.3687 -1.11614,3.25397 -3.24389,4.88099c-4.44477,3.39878 -12.69124,4.43704 -16.37365,-0.57982c-1.43522,-1.95532 -2.03843,-4.93744 -2.48146,-7.237c-0.03795,-1.96084 -0.34781,-4.08596 0.79866,-5.89168c1.56937,-2.4718 4.4361,-2.78309 6.86431,-3.73136c2.44944,-0.95656 4.57683,-2.079 7.2899,-2.26702c2.17296,-0.15059 4.61357,0.29367 6.79051,0.44034l1.82157,0.15895c0,0 1.54995,0.13559 1.86004,1.50938c2.06216,1.93087 4.27147,4.22639 2.70218,7.41639z" data-paper-data="{&quot;index&quot;:null}" fill="#ef0606" stroke-width="0.5"/><path d="M263.10697,224.0241c0,0 2.07802,0.24742 1.83061,2.32544c-0.24742,2.07802 -2.32544,1.83062 -2.32544,1.83062c-2.24235,-0.28967 -2.25886,-0.55594 -4.27016,0.04352c-3.31514,0.98805 -4.16303,4.65043 -8.25201,0.91857c-1.53236,-1.39853 -1.30534,-7.12852 -1.49667,-9.05468c-0.53947,-5.4311 0.64735,-12.33468 2.71405,-17.43003c0.42701,-1.0528 2.6586,-4.76926 3.71197,-5.00088c1.49887,-0.32958 2.97569,0.75255 4.46353,1.12882c0.25595,1.20309 0.76439,2.37926 0.76785,3.60929c0.0064,2.28164 -0.93162,4.48771 -1.02785,6.76733c-0.10825,2.56434 0.12767,5.15565 -0.23984,7.71756c-0.35604,2.48196 -1.15337,4.7962 -1.54629,7.24831c2.54957,-0.73074 2.84384,-0.41771 5.67024,-0.10386z" data-paper-data="{&quot;index&quot;:null}" fill="#ffe52a" stroke-width="0.5"/><path d="M196.6431,225.30818c-0.30525,0.46454 -0.84841,0.88204 -1.81306,0.83046c-2.08971,-0.11175 -1.97797,-2.20147 -1.97797,-2.20147l0.13744,-2.26756c0.19383,-0.97323 0.19056,-2.00758 0.58148,-2.91969c2.33573,-5.4498 9.3967,-6.8329 12.01063,-12.38448c1.30409,-2.76966 1.62746,-5.51886 2.32643,-8.44862c0.23327,-0.97774 0.15811,-2.17708 0.86917,-2.88756c1.01837,-1.01755 2.46406,-2.04734 3.89278,-1.8705c2.10737,0.26084 4.02124,5.0505 4.67142,6.33618c1.95326,5.01372 3.62898,9.83794 4.5021,15.17807c0.48247,2.95086 1.86774,5.69636 -0.84142,8.1941c-0.81914,0.75522 -2.15282,0.58235 -3.205,0.94879c-2.38324,0.83001 -4.23599,2.34862 -6.83879,2.61592c-5.17137,0.53109 -8.98071,-3.58398 -13.87695,-1.25795c0,0 -0.17301,0.07773 -0.43825,0.13431z" fill="#f0eeed" stroke-width="0.5"/><path d="M195.6749,226.29933c-0.40149,0.21483 -0.76677,0.26779 -0.76677,0.26779l-2.45194,-0.8841c-0.53949,-1.02689 -1.61618,-1.9207 -1.61847,-3.08068c-0.00245,-1.24207 1.07051,-2.24162 1.60577,-3.36243c0.81763,-0.65977 1.5169,-1.50206 2.45287,-1.97933c2.00274,-1.02122 3.32848,-0.63895 5.41382,-0.67261c4.66336,-0.07527 14.00742,-2.09066 15.42717,4.32544c0.42387,1.9155 -0.75992,5.59636 -2.60552,6.52673c-0.68723,0.34643 -5.86876,-0.95012 -6.54237,-1.074c-3.66629,-0.67418 -7.2591,0.39564 -10.91457,-0.0668z" fill="#fac924" stroke-width="0.5"/><path d="M191.05219,226.67161c0.07692,-1.40625 1.58261,-1.79815 1.58261,-1.79815l1.76964,-0.46016c2.1221,-0.50724 4.45459,-1.35188 6.62228,-1.56536c2.70648,-0.26655 4.99112,0.48582 7.56568,1.02098c2.55225,0.53052 5.43078,0.35991 7.38997,2.53575c1.43124,1.58951 1.47973,3.73655 1.76894,5.67631c-0.05377,2.34124 -0.1518,5.38217 -1.24125,7.54925c-2.79524,5.56019 -11.09943,5.91014 -16.04827,3.29927c-2.36905,-1.24985 -2.871,-2.06287 -4.01165,-4.27242c-0.05108,-0.09895 -0.78209,-2.44653 -1.45282,-2.63216c-1.80049,-0.49832 -4.28177,-0.07489 -5.37414,-1.59042c-2.07876,-2.88401 -0.28271,-5.51549 1.42899,-7.7629z" fill="#ef0606" stroke-width="0.5"/><path d="M220.94649,222.94128c-0.79592,-2.35239 -1.96761,-4.50149 -2.73212,-6.88945c-0.78915,-2.4649 -0.98819,-5.0593 -1.5221,-7.56978c-0.47463,-2.23173 -1.76702,-4.25072 -2.14079,-6.50155c-0.2015,-1.21341 0.10392,-2.45785 0.15587,-3.68677c1.40437,-0.61886 2.6803,-1.93187 4.21313,-1.85658c1.07724,0.05291 3.89674,3.3457 4.49316,4.31266c2.8866,4.67988 5.20686,11.28929 5.57965,16.73437c0.13221,1.93112 1.31058,7.54323 0.03259,9.17749c-3.41018,4.36087 -4.85631,0.89091 -8.28971,0.46891c-2.08306,-0.25603 -2.05499,0.00926 -4.21775,0.66841c0,0 -2.00777,0.59012 -2.5979,-1.41766c-0.59012,-2.00777 1.41765,-2.59789 1.41765,-2.59789c2.73463,-0.7803 2.97264,-1.13797 5.60832,-0.84215z" fill="#ffe52a" stroke-width="0.5"/><path d="M273.96093,200.65289c0.44392,1.00659 1.31001,1.91984 1.33177,3.01975c0.13696,6.92153 -9.01658,8.38243 -14.0856,8.37965c-2.26903,-0.00125 -6.36271,0.0641 -8.41109,-1.3089c-1.2418,-0.83236 -3.28845,-1.68746 -3.16523,-3.17732c0.31277,-3.78188 3.84153,-4.31222 6.27539,-5.3843c1.64882,-0.72628 3.34638,-1.37567 5.09915,-1.79263c2.48874,-0.59205 4.78902,-1.16298 7.34075,-1.44791c0.78265,-0.00107 1.5653,-0.00213 2.34795,-0.0032h1.11611c0,0 1.69015,-0.00001 2.03262,1.51891c0.07878,0.11716 0.11818,0.19595 0.11818,0.19595z" data-paper-data="{&quot;index&quot;:null}" fill="#fdd50f" stroke-width="0.5"/><path d="M249.15844,205.97617l1.94827,0.70159c5.35779,4.57198 11.96336,2.09471 17.7275,-0.0694c1.93957,-0.7282 3.82298,-1.60086 5.76436,-2.32422c0.22884,-0.08527 0.66091,0.2359 0.73264,0.00245c0.06871,-0.22362 -0.46532,-0.10836 -0.66046,-0.2374c-0.50272,-0.33244 -0.94004,-0.75453 -1.41006,-1.13179c0,0 -1.60766,-1.33972 -0.26794,-2.94738c1.33972,-1.60766 2.94738,-0.26794 2.94738,-0.26794c0.64609,0.55283 1.47043,0.94842 1.93826,1.65848c0.73201,1.11103 1.78396,2.35551 1.57176,3.66897c-0.54156,3.3521 -6.63636,4.55757 -9.12852,5.491c-7.37881,2.7637 -15.11927,4.91769 -21.89435,-0.62746l-0.28395,0.14353c0,0 -2.03021,-0.50755 -1.52266,-2.53777c0.50755,-2.03022 2.53778,-1.52267 2.53778,-1.52267z" data-paper-data="{&quot;index&quot;:null}" fill="#fb8d17" stroke-width="0.5"/><path d="M200.27528,198.78277c0.34247,-1.51892 2.03262,-1.51892 2.03262,-1.51892h1.11611c0.78265,0.00107 1.56529,0.00214 2.34794,0.0032c2.55174,0.28493 4.85201,0.85587 7.34076,1.44791c1.75278,0.41697 3.45033,1.06635 5.09915,1.79263c2.43385,1.07208 5.96262,1.60241 6.27539,5.3843c0.12322,1.48987 -1.92342,2.34497 -3.16522,3.17732c-2.04838,1.373 -6.14205,1.30766 -8.41109,1.30891c-5.06902,0.00278 -14.22257,-1.45812 -14.08561,-8.37965c0.02176,-1.09991 0.88785,-2.01317 1.33178,-3.01976c0,0 0.03939,-0.07879 0.11818,-0.19595z" fill="#fdd50f" stroke-width="0.5"/><path d="M227.49737,205.82468c0.50755,2.03022 -1.52266,2.53777 -1.52266,2.53777l-0.28394,-0.14353c-6.77508,5.54515 -14.51554,3.39117 -21.89435,0.62746c-2.49216,-0.93343 -8.58697,-2.1389 -9.12852,-5.491c-0.2122,-1.31346 0.83976,-2.55795 1.57176,-3.66898c0.46783,-0.71006 1.29217,-1.10565 1.93826,-1.65848c0,0 1.60766,-1.33972 2.94737,0.26794c1.33972,1.60766 -0.26794,2.94738 -0.26794,2.94738c-0.47002,0.37726 -0.90734,0.79934 -1.41006,1.13178c-0.19513,0.12904 -0.72916,0.01378 -0.66046,0.2374c0.07172,0.23344 0.50379,-0.08773 0.73264,-0.00246c1.94138,0.72336 3.82479,1.59602 5.76436,2.32422c5.76415,2.16411 12.36971,4.64138 17.72751,0.0694l1.94827,-0.70158c0,0 2.03022,-0.50755 2.53777,1.52267z" fill="#fb8d17" stroke-width="0.5"/><path d="M193.83298,148.93453c0.21903,-0.12588 0.38405,-0.18088 0.38405,-0.18088c2.69261,-0.89123 6.35104,-2.00802 8.58179,-3.84958c7.46563,-6.16313 7.0381,-17.52256 12.56495,-25.10512c2.12181,-2.91103 5.64843,-4.45721 8.66694,-6.18998c1.88996,-2.33911 0.69674,-6.26007 0.99321,-9.11569c0.50987,-4.91124 3.20096,-9.78386 6.88087,-12.9927c0.95491,-0.83267 1.77348,-2.35936 3.0382,-2.2839c6.26333,0.37372 3.75309,8.00457 6.37626,11.27429c2.53434,3.159 6.31082,3.54369 9.73352,5.2619c3.61194,1.8132 5.43023,3.51084 7.62215,6.76171c0.98248,2.45358 2.27463,4.87524 2.33222,7.60304c0.1111,5.2618 -2.31794,10.70277 -5.45975,14.74279c-1.22109,1.5702 -3.51294,5.4294 -5.45744,6.09282c-2.52596,0.86179 -6.24841,-0.09922 -8.96545,0.14911c-6.69691,0.61208 -13.59734,1.51799 -19.99491,3.64937c-5.42126,2.15057 -10.82487,4.80943 -15.90076,7.70919c-3.82136,2.18306 -8.31844,5.3882 -12.75767,2.53638c-0.66483,-0.4271 -1.08751,-1.14121 -1.60153,-1.74707h-1.43186c-1.15577,0 -2.0927,-0.93694 -2.0927,-2.0927c0,-1.0504 0.77389,-1.92004 1.7826,-2.06988l2.47732,-0.41288l0.01622,0.09731c0.119,-0.04529 0.23946,-0.08725 0.36156,-0.12551c0.5997,-0.18791 1.22668,0.07866 1.85022,0.288z" fill="#ffdf83" stroke-width="0.5"/><path d="M245.57979,140.27879c-0.59866,0.83373 -1.73173,0.83374 -1.73173,0.83374h-1.25562c-4.15313,-0.01125 -8.66959,1.05685 -12.34587,3.06733c-1.46971,0.80375 -2.56811,2.24068 -4.11377,2.88643c-0.01548,0.00646 -0.03098,0.01289 -0.04649,0.01927l0.00411,0.00685l-2.06321,1.23793c-0.32093,0.20023 -0.70004,0.31592 -1.10618,0.31592c-1.15577,0 -2.0927,-0.93693 -2.0927,-2.0927c0,-0.15547 0.01695,-0.30699 0.04911,-0.45279l0.41007,-2.05033c1.03702,-5.18509 2.76962,-9.08498 6.33069,-13.09841c2.07688,-2.3407 4.26167,-4.52478 6.18489,-6.99967c0.86749,-1.11633 1.57416,-1.43088 1.26792,-3.12184c-0.18032,-0.99565 -0.75105,-1.87918 -1.12657,-2.81876c-0.79008,-2.11844 -5.10862,-5.69939 -4.07914,-8.02161c0.62314,-1.40564 2.96387,-1.15362 4.4964,-1.02931c2.69428,0.21854 4.23471,3.55816 6.15267,4.95763c3.59321,2.62185 9.72276,2.99537 11.17857,8.1165c1.89695,6.67293 -4.31325,11.14986 -5.37428,16.97673c0,0 -0.15293,0.76468 -0.73888,1.26709z" fill="#ffc517" stroke-width="0.5"/><path d="M276.97364,172.04711c0.06484,0.19849 0.13718,0.32898 0.21783,0.35969c0.577,0.21965 1.26877,0.0237 1.83112,0.27854c0.3115,0.14117 3.47363,2.54556 3.86529,2.84074c0.29144,0.29022 3.58201,3.54644 3.72425,3.77725c2.63068,4.26872 0.41817,11.33667 -3.28391,14.43293c-2.63696,2.20544 -8.5485,3.79996 -12.06268,3.03199c-1.25941,-0.27523 -2.93326,-0.25416 -3.62772,-1.34024c-1.48413,-2.32107 1.35953,-5.64894 1.78188,-7.84934c0.92638,-4.82638 0.23819,-7.98542 -1.26924,-12.64768c0.3179,-2.44612 -2.12019,-2.65972 -4.41864,-2.85664c-3.51268,-0.30095 -7.42535,0.31758 -10.68966,1.5156c-3.13248,1.14964 -5.45308,6.10759 -7.444,8.43137c-0.92683,1.08179 -1.58118,3.03797 -3.00571,3.03797c-1.42453,0 -2.07824,-1.95674 -3.00571,-3.03797c-0.70533,-0.82227 -1.14433,-1.85507 -1.87645,-2.65358c-2.15986,-2.35573 -5.37197,-4.11908 -8.06158,-5.77051c-2.4123,-0.58922 -4.83982,-1.80839 -7.35855,-1.52288c-2.35164,0.26657 -5.35392,1.02218 -7.09726,2.74556c-3.3207,3.28268 -3.1285,9.58782 -2.74251,13.83364c0.3032,3.33515 3.45137,7.98207 -0.07527,10.69486c-1.34328,1.03329 -6.47382,0.3598 -8.28842,0.3598c-2.80582,-0.04257 -5.42176,-0.52355 -7.4136,-2.78384c-3.74504,-4.24976 -5.13707,-13.57313 -1.32901,-18.20321c1.2386,-1.50597 5.94324,-4.24388 8.27589,-2.77333c-0.05526,-0.72745 0.20948,-1.48695 0.08595,-2.21194c-0.11664,-0.68454 -0.61864,-1.25356 -0.79744,-1.92456c-1.29476,-4.85901 -0.00762,-8.84639 1.32057,-13.46023c1.98812,-4.00035 4.13679,-7.36207 7.08767,-10.68199c1.75156,-1.97062 3.19003,-4.11286 5.55655,-5.45116c2.13207,-1.20572 4.63058,-1.99913 6.86464,-3.01449c3.46238,-1.57362 6.84426,-3.16165 10.69606,-3.5218c4.4255,-0.41379 9.17332,0.96766 13.52501,1.69245c7.2775,1.21371 13.98463,3.37133 19.81704,7.97959c2.72839,2.15573 4.1905,5.64502 5.60479,8.71336c0.60174,1.30551 1.52529,2.44978 2.0941,3.76997c1.52748,3.54524 1.83938,9.14471 1.85643,12.99186c0,0 0,0.64452 -0.35769,1.2182z" fill="url(#color-1)" stroke-width="0.5"/><path d="M269.05872,145.72307c1.51074,0.29604 1.51074,1.95479 1.51074,1.95479v0.39995c-0.0203,4.58204 -1.40102,8.25634 -3.51402,11.90175c1.14315,-0.61331 2.30302,-1.18749 3.47253,-1.71751c1.06474,-0.48254 2.07077,-1.30058 3.23892,-1.34461c0.13475,-0.00508 0.26874,-0.003 0.40208,0.00524v-0.04609h1.99972c1.10442,0 1.99973,0.89531 1.99973,1.99973c0,0.45747 -0.15361,0.87905 -0.41206,1.21599l-1.18772,1.58362l-0.03578,-0.02683l-0.0533,0.13721c-6.40098,6.42783 -13.54225,9.73994 -22.01994,12.56583c-2.7525,1.1021 -8.93966,5.0477 -11.83296,2.1897c-0.92887,-0.91754 -0.22384,-2.64099 0.05492,-3.91651c0.22723,-1.03968 0.82325,-1.97932 1.42539,-2.85682c4.4031,-6.4167 12.96202,-7.85177 17.68731,-13.72263c2.0661,-2.567 2.72602,-6.75344 3.66694,-9.76438c0,0 0.59647,-1.90869 2.50516,-1.31223c0.54316,0.16974 0.88346,0.44575 1.09235,0.75379z" fill="#fec428" stroke-width="0.5"/><path d="M212.92376,146.20959c1.6555,-0.51734 2.17284,1.13816 2.17284,1.13816c0.8161,2.61152 1.38847,6.2426 3.1805,8.46907c4.09845,5.09206 11.52198,6.33677 15.34098,11.90225c0.52226,0.7611 1.03922,1.57609 1.2363,2.47785c0.24178,1.10631 0.8533,2.60114 0.04764,3.39696c-2.50949,2.47887 -7.87589,-0.94332 -10.26325,-1.89923c-7.35308,-2.45102 -13.54702,-5.32376 -19.09887,-10.8989l-0.04622,-0.11902l-0.03104,0.02328l-1.03016,-1.37355c-0.22416,-0.29225 -0.3574,-0.65791 -0.3574,-1.05469c0,-0.95791 0.77654,-1.73444 1.73445,-1.73444h1.73445v0.03997c0.11565,-0.00715 0.23186,-0.00895 0.34874,-0.00454c1.01318,0.03819 1.88576,0.74771 2.80926,1.16624c1.01436,0.45971 2.02036,0.95773 3.01187,1.48968c-1.8327,-3.16183 -3.03025,-6.3487 -3.04786,-10.32291v-0.34689c0,0 0.00001,-1.43871 1.31034,-1.69548c0.18118,-0.26718 0.47633,-0.50658 0.94744,-0.6538z" data-paper-data="{&quot;index&quot;:null}" fill="#fec428" stroke-width="0.5"/><path d="M264.36927,146.36997c0.05696,-0.51041 0.36913,-1.90912 2.08,-1.90912c2.09271,0 2.0927,2.09271 2.0927,2.09271l-0.29823,1.49522c-2.00457,3.33599 -3.22295,8.58348 -6.38108,11.04785c-0.66888,0.52194 -1.59904,0.58785 -2.3404,1.00041c-1.21909,0.6784 -2.13124,1.82925 -3.34833,2.51125c-4.48416,2.51272 -9.49506,4.42109 -11.17763,9.71948c0,0 -0.66178,1.98531 -2.64709,1.32354c-1.98531,-0.66177 -1.32354,-2.64709 -1.32354,-2.64709c2.22376,-6.43899 7.50306,-8.9684 13.09772,-12.04463c1.22251,-0.6722 2.12827,-1.83458 3.34833,-2.51125c0.57256,-0.31755 1.30946,-0.2971 1.84501,-0.67375c1.37592,-0.9677 2.0653,-3.63604 2.71224,-5.05584c0.99015,-2.173 1.30508,-2.63452 2.3403,-4.34879z" fill="#feec70" stroke-width="0.5"/><path d="M236.73288,172.92162c-2.0927,0 -2.0927,-2.0927 -2.0927,-2.0927l0.41854,-0.41854c-1.76192,-2.34922 -3.2313,-4.31413 -5.9524,-5.659c-2.14308,-1.05919 -4.97452,-1.68408 -6.91875,-3.05745c-2.48639,-1.75635 -3.35178,-4.05733 -5.10142,-6.31877c-1.20278,-1.55461 -2.28701,-1.74284 -3.44592,-3.48418c-0.14777,-0.22205 -1.69223,-4.11551 -1.87011,-4.56021c0,0 -0.77721,-1.94303 1.16582,-2.72024c1.94303,-0.77721 2.72024,1.16582 2.72024,1.16582c0.50599,1.26498 0.72117,2.67787 1.47822,3.8106c0.8465,1.26658 2.31285,2.01197 3.25073,3.21246c1.39417,1.78455 2.14649,4.04613 4.10648,5.40037c1.82139,1.25848 4.48173,1.79594 6.47456,2.80212c3.30697,1.6697 5.28083,4.01714 7.4409,6.89723l0.41854,2.92978c0,0 0.00001,2.0927 -2.0927,2.0927z" fill="#feec70" stroke-width="0.5"/><path d="M212.4183,199.34446l-1.47661,-1.23288c-0.279,-0.27851 -3.52885,-3.50684 -3.66218,-3.70887c-4.92408,-7.46108 -2.32686,-18.10252 4.60512,-23.09847c2.35788,-1.02495 4.60775,-2.21552 7.21558,-2.48866c4.92228,-0.51557 10.32854,1.61921 14.44283,4.20642c1.39154,0.87505 3.39397,2.49732 4.44389,3.82567c0.06381,0.08073 1.62363,3.05639 2.25614,3.19578c0.32119,0.07079 -0.23962,-0.66786 -0.13028,-0.97805c0.52606,-1.49237 2.05719,-3.1899 3.07178,-4.29c3.5444,-3.84312 8.55093,-6.14341 13.68263,-6.80536c3.38834,-0.00104 5.73577,0.33555 8.94682,1.52068c3.18279,1.1747 7.16632,3.38416 8.48422,6.79578c0.42917,1.11098 0.48382,4.27442 0.41507,5.58616c-0.30525,5.82433 -2.45717,9.93146 -5.29606,14.8948c-1.70112,2.97413 -3.60699,5.89183 -6.44929,7.9115c-2.58024,1.83346 -5.20842,2.43635 -8.22628,3.17224c-1.42935,0.00901 -2.93823,-0.58328 -4.28674,-0.10932c-1.39227,0.48934 -2.37124,1.88677 -3.79243,2.28437c-2.5224,0.70568 -5.32895,0.45302 -7.90506,0.7669c-1.47992,0.18032 -2.92655,0.6999 -4.41742,0.70033c-1.94344,0.00057 -4.24598,-0.9615 -5.75276,-2.16231c-1.45818,-1.16209 -0.93472,-1.90857 -2.66578,-2.40877c-5.22493,-1.50975 -9.79553,-3.36294 -13.50319,-7.57795z" fill="#ffcb82" stroke-width="0.5"/><path d="M241.3319,225.13451c-0.23509,0.04662 -0.50485,0.05522 -0.81421,0.01102c-2.07167,-0.29595 -1.77571,-2.36762 -1.77571,-2.36762l0.00056,-0.00288c-0.32324,-0.03611 -0.64387,-0.08911 -0.96185,-0.1574c0.55408,2.86234 -0.28212,5.90376 -3.33412,7.37385c-0.77129,0.37152 -2.25687,0.30262 -3.59392,0.15862c-0.21604,0.03895 -0.36301,0.03895 -0.36301,0.03895l-2.12994,-0.13324c-1.04669,-0.49999 -2.47669,-0.54841 -3.14007,-1.49998c-2.21972,-3.18403 0.50974,-5.97201 1.63638,-8.72801c0.21234,-0.51944 0.33303,-1.10995 0.51611,-1.65556c-0.92838,-0.57778 -0.92838,-1.79505 -0.92838,-1.79505v-1.39514c0,-0.8735 -0.05397,-4.96422 0.23193,-5.42201c0.72747,-1.16485 2.20025,-1.64417 3.30038,-2.46625c4.37346,0.33316 8.17628,-0.01726 12.49925,-0.60165c1.96753,-0.26598 5.37497,-0.84459 6.96349,1.06345c0.7841,0.94181 0.40901,2.42501 0.43918,3.65013c0.03661,1.48668 -0.12389,2.88036 -0.50185,4.16175c3.26472,1.36513 5.04801,5.76746 5.4928,8.99629c0.15311,1.11145 0.6806,2.35825 0.17764,3.36113c-2.55655,5.0976 -9.24053,3.93909 -12.25505,0.2642c-0.37303,-0.45475 -0.95907,-1.71091 -1.45962,-2.85458z" fill="#ffca85" stroke-width="0.5"/><path d="M245.95645,205.12925c-0.30169,0.39993 -1.43116,-0.10465 -2.26533,-0.10465c-2.0927,0 -1.46489,-1.25562 -1.46489,-1.25562v-0.83708c0.01333,-3.59372 0.5541,-8.68641 2.35407,-11.89478c1.3321,-2.3744 4.06025,-4.16083 6.1566,-5.7802c2.98021,-1.50198 6.28905,-3.33871 9.76436,-2.815c6.27026,0.9449 8.56449,7.3744 6.47726,12.8994c-2.39909,6.3505 -8.88872,9.77974 -15.3563,10.20723c-1.92679,0.12735 -3.85162,-0.0117 -5.66575,-0.41931z" fill="#feffff" stroke-width="0.5"/><path d="M245.42228,199.74541c-0.21247,0.59292 -0.72138,1.30305 -1.94044,1.30305c-2.0927,0 -2.0927,-2.0927 -2.0927,-2.0927l0.01038,-0.83604c0.33648,-3.32666 0.97825,-6.09872 2.59754,-9.04277c3.41075,-5.10383 8.25135,-7.42826 14.46528,-7.69809c3.02064,-0.13117 8.98881,0.09131 8.08479,5.41359c-0.21413,1.26066 -2.36612,0.97079 -3.55638,1.43813c-1.41247,0.5546 -2.82201,1.11998 -4.20329,1.74825c-5.34927,2.43309 -8.9212,5.82007 -13.28749,9.70395c0,0 -0.02723,0.0242 -0.07769,0.06262z" fill="#ffab51" stroke-width="0.5"/><path d="M256.03807,199.3743c0,1.96481 -1.26487,3.55759 -2.82515,3.55759c-1.56028,0 -2.82515,-1.59279 -2.82515,-3.55759c0,-1.96481 1.26487,-3.55759 2.82515,-3.55759c1.56028,0 2.82515,1.59279 2.82515,3.55759z" fill="url(#color-2)" stroke-width="0"/><path d="M241.41383,185.87548c-0.35066,-1.18667 0.68996,-2.09721 0.68996,-2.09721l1.67416,-1.46489c0.75039,-0.65658 3.99983,-3.56941 4.51488,-3.6141c4.06232,-0.35253 5.67779,1.95968 5.41531,5.52991c-0.22896,3.11417 -5.94147,8.58427 -9.14907,7.73372c-1.23049,-0.32629 -1.92748,-1.72626 -2.56913,-2.82575c-0.43642,-0.74783 -0.37344,-1.69098 -0.56016,-2.53647c0,0 -0.06324,-0.31621 -0.01595,-0.72521z" fill="#fffceb" stroke-width="0.5"/><path d="M211.58697,193.66716c-2.08723,-5.525 0.207,-11.9545 6.47726,-12.8994c3.4753,-0.52371 6.78414,1.31301 9.76435,2.81499c2.09635,1.61937 4.8245,3.4058 6.1566,5.7802c1.79997,3.20837 2.34074,8.30106 2.35407,11.89478v0.83708c0,0 1.04635,1.98807 -1.04635,1.98807c-0.83417,0 -2.27755,0.2953 -2.57924,-0.10463c-7.90357,1.77579 -18.01289,-2.06869 -21.12669,-10.3111z" data-paper-data="{&quot;index&quot;:null}" fill="#feffff" stroke-width="0.5"/><path d="M233.23065,199.26425c-4.36629,-3.88388 -7.93822,-7.27087 -13.28749,-9.70396c-1.38128,-0.62827 -2.79082,-1.19365 -4.20329,-1.74824c-1.19026,-0.46734 -3.34224,-0.17748 -3.55638,-1.43814c-0.90403,-5.32228 5.06415,-5.54476 8.08479,-5.41359c6.21393,0.26983 11.05453,2.59427 14.46528,7.69809c1.61929,2.94404 2.26106,5.7161 2.59753,9.04277l0.01038,0.83604c0,0 0.00001,2.0927 -2.0927,2.0927c-1.21905,0 -1.72798,-0.71013 -1.94044,-1.30305c-0.05046,-0.03842 -0.07769,-0.06262 -0.07769,-0.06262z" data-paper-data="{&quot;index&quot;:null}" fill="#ffab51" stroke-width="0.5"/><path d="M229.87927,198.95576c0,1.96481 -1.26486,3.55759 -2.82515,3.55759c-1.56028,0 -2.82515,-1.59279 -2.82515,-3.55759c0,-1.96481 1.26487,-3.55759 2.82515,-3.55759c1.56028,0 2.82515,1.59279 2.82515,3.55759z" fill="url(#color-3)" stroke-width="0"/><path d="M237.53351,186.80995c-0.18672,0.84549 -0.12374,1.78864 -0.56016,2.53647c-0.64165,1.09949 -1.33863,2.49946 -2.56913,2.82575c-3.2076,0.85056 -8.92011,-4.61954 -9.14907,-7.73372c-0.26248,-3.57023 1.35299,-5.88244 5.41531,-5.52991c0.51505,0.04469 3.76448,2.95753 4.51487,3.6141l1.67417,1.46489c0,0 1.04062,0.91054 0.68995,2.09721c0.04729,0.409 -0.01595,0.72521 -0.01595,0.72521z" data-paper-data="{&quot;index&quot;:null}" fill="#fffceb" stroke-width="0.5"/><path d="M260.41054,157.48209c-0.53033,0.53033 -1.06066,0 -1.06066,0l-0.18578,-0.18578c-3.05727,-3.14722 -9.34471,-4.20908 -13.50888,-4.8038c0,0 -0.74246,-0.10607 -0.6364,-0.84853c0.10607,-0.74246 0.84853,-0.6364 0.84853,-0.6364c4.59015,0.65592 10.92387,1.86697 14.35741,5.22807l0.18578,0.18578c0,0 0.53033,0.53033 0,1.06066z" fill="#feec70" stroke-width="0.5"/><path d="M222.56637,159.15407c-0.53033,-0.53033 0,-1.06066 0,-1.06066l0.55733,-0.55733c2.58719,-2.58719 4.94082,-4.09253 8.18326,-5.71375c0,0 0.67082,-0.33541 1.00623,0.33541c0.33541,0.67082 -0.33541,1.00623 -0.33541,1.00623c-3.12685,1.56342 -5.29877,2.93812 -7.79342,5.43277l-0.55733,0.55733c0,0 -0.53033,0.53033 -1.06066,0z" fill="#feec70" stroke-width="0.5"/><path d="M230.59589,151.09482l-0.78565,-1.3804c0.48123,-1.17439 0.4831,-2.69371 1.4437,-3.52318c2.99322,-2.5846 12.63602,-1.89196 14.24139,2.25031c2.08284,5.37423 -5.45791,11.34803 -10.27917,9.28319c-1.2707,-0.54421 -3.34116,-3.90825 -4.16773,-5.14526c0,0 -0.44013,-0.66019 -0.45255,-1.48466z" fill="#ef0606" stroke-width="0.5"/></g></g></svg>