<svg version="1.1" xmlns="http://www.w3.org/2000/svg" xmlns:xlink="http://www.w3.org/1999/xlink" width="111.8181" height="205.37878" viewBox="0,0,111.8181,205.37878"><defs><radialGradient cx="241.9106" cy="214.12243" r="60.44459" gradientUnits="userSpaceOnUse" id="color-1"><stop offset="0" stop-color="#4d4d3f"/><stop offset="1" stop-color="#3a3a2c"/></radialGradient><linearGradient x1="239.3548" y1="140.55127" x2="239.3548" y2="190.81387" gradientUnits="userSpaceOnUse" id="color-2"><stop offset="0" stop-color="#963d18"/><stop offset="1" stop-color="#571805"/></linearGradient><linearGradient x1="205.64607" y1="156.84324" x2="224.67872" y2="156.84324" gradientUnits="userSpaceOnUse" id="color-3"><stop offset="0" stop-color="#adff22"/><stop offset="1" stop-color="#d0fe88"/></linearGradient><linearGradient x1="212.42003" y1="160.54886" x2="230.23684" y2="160.54886" gradientUnits="userSpaceOnUse" id="color-4"><stop offset="0" stop-color="#adff22"/><stop offset="1" stop-color="#d0fe88"/></linearGradient><linearGradient x1="269.49109" y1="157.48873" x2="248.37414" y2="157.48873" gradientUnits="userSpaceOnUse" id="color-5"><stop offset="0" stop-color="#adff22"/><stop offset="1" stop-color="#d0fe88"/></linearGradient><linearGradient x1="260.45914" y1="161.79055" x2="244.72663" y2="161.79055" gradientUnits="userSpaceOnUse" id="color-6"><stop offset="0" stop-color="#adff22"/><stop offset="1" stop-color="#d0fe88"/></linearGradient></defs><g transform="translate(-184.09115,-77.55429)"><g data-paper-data="{&quot;isPaintingLayer&quot;:true}" fill-rule="nonzero" stroke-linejoin="miter" stroke-miterlimit="10" stroke-dasharray="" stroke-dashoffset="0" style="mix-blend-mode: normal"><path d="M188.41367,273.16014v-73.64514h103.17266v73.64514z" fill="#4e5a3f" stroke="#757d6b" stroke-width="4" stroke-linecap="butt"/><path d="M185.98199,171.74174l6.94765,-0.34738l86.49829,-9.85558l8.68457,1.04215v9.72671h7.29503l-0.34738,101.43575l-31.61183,0.34739l-5.21074,-6.94765l-5.9055,1.04215l0.34739,9.72672l-6.25289,4.16859l-12.50577,0.34739l-6.60028,-5.55813l-1.73691,-10.44652l-7.64242,2.08429v4.51598h-32.65398l-0.69476,-99.69884z" fill="url(#color-1)" stroke="#14210b" stroke-width="1" stroke-linecap="round"/><path d="M261.40621,272.80314v-19.45344h33.00136v19.45344z" fill="#363636" stroke="none" stroke-width="0" stroke-linecap="butt"/><path d="M185.32939,272.10839v-18.41128h33.00136v18.41128z" data-paper-data="{&quot;index&quot;:null}" fill="#363636" stroke="none" stroke-width="0" stroke-linecap="butt"/><path d="M209.20753,171.18817v-41.43779h61.7845v41.43779z" fill="#4a6039" stroke="#212b19" stroke-width="1.5" stroke-linecap="butt"/><path d="M194.24426,252.47753v-90.3195h92.34589v90.31951z" fill="#4b6d27" stroke="#5c8723" stroke-width="1" stroke-linecap="butt"/><path d="M200.72875,248.13524v-65.13425h76.59787v65.13426z" fill="#3c5621" stroke="#2e451a" stroke-width="1" stroke-linecap="butt"/><path d="M200.32346,229.60818v-65.13425h77.00316v65.13426z" fill="#4b6d27" stroke="#5c8723" stroke-width="1" stroke-linecap="butt"/><path d="M219.5089,236.13996v-6.25289h37.86471v6.25289z" fill="#4b6d27" stroke="#5c8723" stroke-width="1" stroke-linecap="butt"/><path d="M267.94793,192.10696c0,13.8135 -12.28675,25.01156 -27.44323,25.01156c-15.15648,0 -27.44323,-11.19806 -27.44323,-25.01156c0,-13.8135 12.28676,-25.01155 27.44323,-25.01155c15.15648,0 27.44323,11.19805 27.44323,25.01155z" fill="#6a9b39" stroke="#2d441a" stroke-width="2.5" stroke-linecap="butt"/><path d="M229.79507,256.60322c-0.09532,0.01487 -0.19672,0.02275 -0.30469,0.02275c-1.78871,0 -1.78871,-2.17114 -1.78871,-2.17114l0.01094,-0.00838c-0.23949,-2.61605 -0.92131,-5.56977 0.24397,-8.05634c2.27384,-4.85204 8.06706,-5.76397 12.09014,-5.23388c2.76876,0.9098 9.24027,2.39116 10.96639,5.39621c1.40356,2.4435 0.50261,9.19206 -2.24078,10.04855c-0.64316,0.20081 -4.54802,-3.15602 -5.64417,-3.52434c-4.51591,-1.5174 -7.80122,0.138 -11.338,3.3632c0,0 -1.02817,0.93599 -1.9951,0.16334z" fill="#cbc4ba" stroke="none" stroke-width="0.5" stroke-linecap="butt"/><path d="M214.6302,223.01475c0,-1.19909 0.97205,-2.17114 2.17115,-2.17114c1.19909,0 2.17114,0.97205 2.17114,2.17114c0,1.19909 -0.97204,2.17114 -2.17114,2.17114c-1.19909,0 -2.17115,-0.97204 -2.17115,-2.17114z" fill="#2f471e" stroke="none" stroke-width="0.5" stroke-linecap="butt"/><path d="M261.81916,222.58052c0,-1.19909 0.97206,-2.17114 2.17114,-2.17114c1.19908,0 2.17115,0.97205 2.17115,2.17114c0,1.19909 -0.97207,2.17114 -2.17115,2.17114c-1.19908,0 -2.17114,-0.97205 -2.17114,-2.17114z" fill="#2f471e" stroke="none" stroke-width="0.5" stroke-linecap="butt"/><path d="M230.03036,142.36923c-0.32551,0.27891 -0.6358,0.40821 -0.6358,0.40821c-8.26304,3.43693 -17.16832,5.50367 -22.24166,13.86613c-2.18575,3.60281 -1.57137,9.66064 -2.12975,13.72887c0.3496,4.91132 -0.60983,10.61141 3.05263,14.41366c1.61765,1.67938 4.14872,2.75758 5.97705,4.12779c-0.00408,-0.13831 -0.00288,-0.26566 0.00348,-0.37545c0.19943,-3.44552 -0.35254,-4.48325 3.96725,-5.45207c3.71942,-0.83417 10.62371,0.67556 14.53088,0.67556c5.8748,0.00344 11.47862,-0.7525 17.316,-1.37765c2.16797,-0.23218 5.2809,-1.32009 7.42864,-1.05254c4.09519,0.51016 4.26252,0.99454 4.86484,4.97669c0.00083,0.0055 0.03406,2.9271 -0.34717,4.44183c1.07739,-0.90198 2.92081,-2.21072 3.01978,-2.29613c1.69266,-1.46071 3.38284,-2.8825 5.13475,-4.2739c4.86749,-5.26672 3.78819,-15.76174 3.15038,-22.35262c-0.19458,-2.01079 -0.20454,-5.00372 -1.15246,-6.84728c-2.46082,-4.78589 -11.26874,-8.40044 -15.98012,-10.07041c-8.75357,-2.91939 -16.35337,-1.80795 -25.33808,-2.49294zM226.52284,139.26064c0.50249,-1.47768 2.20319,-1.34686 2.20319,-1.34686l2.25798,0.17369c9.35076,0.72619 17.27983,-0.32793 26.42193,2.7178c5.91679,2.12699 15.31335,6.24523 18.41076,12.16209c1.23951,2.36778 1.37359,5.8231 1.6266,8.43756c0.81244,8.39496 1.42731,19.2466 -4.49204,25.93358c-2.91753,2.34844 -10.39937,10.8518 -14.72355,7.52978c-2.95427,-2.26961 1.26344,-7.23029 -0.29841,-9.32271c-0.16616,-0.2226 -4.7457,0.77508 -4.91816,0.79968c-6.81145,0.97115 -13.58967,1.75517 -20.45676,1.75895c-3.08887,0 -6.19691,0.11837 -9.28304,-0.00139c-0.88334,-0.03428 -1.77118,-0.05857 -2.64509,-0.19188c-0.85623,-0.13061 -2.40238,-1.34218 -2.55198,-0.48906c-0.35877,2.04615 1.91292,5.98949 -1.0496,7.57446c-0.74562,0.39891 -4.84663,-1.68321 -5.97133,-2.27564c-9.55492,-5.03297 -9.76864,-12.92217 -10.37014,-22.49148c0.55675,-4.28861 0.42806,-9.02326 1.64288,-13.19474c3.06325,-10.5188 15.20363,-14.16064 24.19675,-17.77383z" fill="#963d18" stroke="none" stroke-width="0.5" stroke-linecap="butt"/><path d="M230.62152,140.60004c8.9847,0.7095 16.66688,-0.42842 25.42046,2.59546c4.71138,1.72974 13.54824,5.51489 16.00906,10.47209c0.94794,1.90954 0.96204,5.02722 1.15663,7.10998c0.63781,6.82678 1.70637,17.75482 -3.16111,23.21007c-1.75191,1.4412 -3.45149,2.92763 -5.14417,4.44062c-0.09897,0.08846 -1.94918,1.45133 -3.02657,2.3856c0.38123,-1.56892 0.22326,-4.71989 0.22242,-4.7256c-0.60231,-4.1247 -0.63694,-4.51033 -4.73213,-5.03875c-2.14774,-0.27714 -5.27966,0.86745 -7.44762,1.10794c-5.83738,0.64754 -11.52119,1.43924 -17.39599,1.43569c-3.90717,0 -10.84817,-1.59234 -14.5676,-0.72831c-4.31979,1.00352 -3.63361,1.96429 -3.83303,5.53313c-0.00636,0.11372 -0.13821,0.36418 -0.13411,0.50746c-1.82833,-1.41926 -4.36935,-2.55032 -5.987,-4.28982c-3.66245,-3.93833 -2.71429,-9.87783 -3.0639,-14.96493c0.55838,-4.21384 -0.05268,-10.52491 2.13307,-14.25667c5.07333,-8.66179 14.02808,-10.85901 22.29109,-14.41896c0,0 0.3126,-0.13487 0.63811,-0.42379z" data-paper-data="{&quot;noHover&quot;:false,&quot;origItem&quot;:[&quot;Path&quot;,{&quot;applyMatrix&quot;:true,&quot;segments&quot;:[[[217.92027,486.23867],[0,0],[-0.37482,0.32116]],[[217.18817,486.7087],[0,0],[-9.51461,3.95751]],[[191.57761,502.67511],[5.84178,-9.62911],[-2.51682,4.14852]],[[189.12527,518.48347],[0.64297,-4.68443],[0.40256,5.65522]],[[192.64026,535.08032],[-4.2172,-4.37814],[1.86268,1.93376]],[[199.52264,539.83333],[-2.10525,-1.57775],[-0.00471,-0.15927]],[[199.52664,539.40101],[-0.00732,0.12642],[0.22965,-3.9674]],[[204.0948,533.12313],[-4.97411,1.11557],[4.2828,-0.96053]],[[220.82664,533.90101],[-4.49899,0],[6.76464,0.00396]],[[240.76546,532.31469],[-6.72156,0.71983],[2.49634,-0.26734]],[[249.3193,531.10273],[-2.47306,-0.30808],[4.71548,0.58744]],[[254.921,536.83323],[-0.69354,-4.58532],[0.00096,0.00635]],[[254.52124,541.94784],[0.43898,-1.74415],[1.24058,-1.03861]],[[257.99843,539.30392],[-0.11396,0.09835],[1.94904,-1.68197]],[[263.91094,534.38266],[-2.01726,1.60216],[5.60477,-6.06446]],[[267.53851,508.64434],[0.73441,7.58917],[-0.22406,-2.31536]],[[266.21148,500.75992],[1.09151,2.1228],[-2.83356,-5.5108]],[[247.81088,489.16417],[5.425,1.9229],[-10.07946,-3.36159]],[[218.63489,486.29364],[10.3456,0.78873],[0,0]]],&quot;closed&quot;:true}]}" fill="url(#color-2)" stroke="none" stroke-width="0.5" stroke-linecap="butt"/><path d="M208.97954,169.03344c4.75659,-0.3731 9.68889,-0.91271 14.33541,-1.73848c1.13033,-0.20089 4.43866,-0.52185 5.25477,-1.61043c1.67908,-2.23967 -0.22936,-9.70476 -0.5963,-12.27211c-0.20565,-1.43894 0.13716,-3.80302 -1.29497,-4.44518c-4.91817,0.62628 -14.24099,1.48072 -17.57486,5.79153c-1.70225,2.20105 -0.70543,7.34209 -0.60701,9.9006c0.07464,1.94063 -0.17545,2.97898 0.48298,4.37405zM205.07101,170.78012c-0.83263,-1.91813 -0.81773,-3.46327 -0.91354,-5.95411c-0.1483,-3.85569 -0.99026,-9.34255 1.47728,-12.67928c4.24481,-5.74001 15.52206,-7.12567 22.02677,-7.40902c1.11991,0.68966 2.5614,1.02378 3.35971,2.069c0.59486,0.77885 1.0764,4.77028 1.2508,5.99162c0.58498,4.09656 2.45449,11.91451 -0.2489,15.51852c-1.16679,1.55551 -3.59939,2.23235 -5.34808,2.69548c-5.57994,1.4778 -11.92355,1.96309 -17.76649,2.38395c-0.42442,0.1668 -0.85605,0.14962 -1.19194,0.08579c-0.12243,0.00884 -0.24459,0.01766 -0.36647,0.0265c0,0 -2.16562,0.15471 -2.32031,-2.01093c-0.01923,-0.26903 -0.00263,-0.50702 0.04116,-0.71756z" fill="#60361a" stroke="none" stroke-width="0.5" stroke-linecap="butt"/><path d="M248.87507,148.876c-0.40081,4.2104 -0.22733,8.41804 -0.08212,12.65694c0.04645,1.35598 -0.1909,3.92025 1.37044,4.64293c2.67363,1.23752 6.1866,1.58542 9.03278,2.38235c2.52421,0.70678 6.71218,2.44839 8.91416,0.5106c0.5897,-2.12865 0.48555,-4.20762 0.48505,-6.41041c-0.00061,-2.57819 0.96645,-7.40253 -0.88218,-9.54769c-3.78353,-4.39043 -13.4317,-3.9252 -18.83811,-4.23472zM247.88245,144.51102l0.80625,0.00215c6.6599,0.47963 17.56869,0.06349 22.35208,5.80781c3.7633,4.51931 2.43788,16.20438 0.64501,21.21187c-5.68694,4.5519 -11.64332,1.77207 -18.00801,-0.01049c-3.1852,-0.89208 -6.38203,-0.90801 -8.26677,-4.17888c-2.6295,-4.56333 -1.57439,-14.02429 -0.78875,-19.72752c-0.10601,-0.25573 -0.16997,-0.56445 -0.16997,-0.93717c0,-1.15632 0.61582,-1.69677 1.19152,-1.9494c0.36621,-0.29161 0.88965,-0.47995 1.63406,-0.37359c0.22811,0.03258 0.42853,0.08592 0.6046,0.15523z" fill="#60361a" stroke="none" stroke-width="0.5" stroke-linecap="butt"/><path d="M234.71713,163.82956c2.12897,0.4258 1.70318,2.55477 1.70318,2.55477l-0.60098,2.40511c-5.37564,9.01814 -18.67583,7.85113 -27.92908,7.85113c0,0 -2.17114,-0.00001 -2.17114,-2.17114c0,-2.17114 2.17114,-2.17114 2.17114,-2.17114c7.13861,0 20.09799,1.50364 24.17832,-5.6968l0.0938,-1.06874c0,0 0.4258,-2.12897 2.55479,-1.70318z" fill="#431907" stroke="none" stroke-width="0.5" stroke-linecap="butt"/><path d="M268.36762,170.80712c0.31243,-0.418 0.83388,-0.76684 1.70412,-0.76684c2.17114,0 2.17114,2.17114 2.17114,2.17114l-1.13148,2.07973c-8.49119,4.58133 -27.35185,2.67835 -29.91108,-8.22509c0,0 -0.45493,-2.12294 1.66803,-2.57786c2.12296,-0.45491 2.57788,1.66803 2.57788,1.66803c1.39167,7.56666 16.78353,8.3668 22.92139,5.65089z" fill="#431907" stroke="none" stroke-width="0.5" stroke-linecap="butt"/><path d="M235.20905,164.13491c-0.24805,0.58249 -0.78736,1.21572 -1.95988,1.21572c-2.17114,0 -2.17115,-2.17114 -2.17115,-2.17114l0.0064,-0.70194c-0.20756,-2.80477 -2.35225,-8.71721 -0.06524,-11.08107c0.59018,-0.61001 4.79448,-0.93818 5.96788,-0.98168c6.51438,-0.24157 9.04871,1.33473 9.02343,8.10173c-0.00538,1.44044 0.58243,3.10407 -0.19462,4.31696c-1.83578,2.86549 -7.83318,1.31791 -10.60682,1.30145z" fill="#5d3619" stroke="none" stroke-width="0.5" stroke-linecap="butt"/><path d="M245.49441,165.61115c0,2.17114 -2.17114,2.17114 -2.17114,2.17114h-0.17369c-0.84294,-0.00054 -1.68395,0.02128 -2.52389,0.05776c-0.38763,0.59275 -1.05728,0.98439 -1.81839,0.98439c-0.66491,0 -1.26,-0.29888 -1.65825,-0.76962c-1.07385,0.07977 -2.14793,0.16615 -3.22411,0.24302c0,0 -2.16562,0.15471 -2.3203,-2.01093c-0.15469,-2.16563 2.01092,-2.32031 2.01092,-2.32031c3.18149,-0.22724 6.34305,-0.5247 9.53402,-0.5266h0.17369c0,0 2.17114,0 2.17114,2.17114z" fill="#250e05" stroke="none" stroke-width="0.5" stroke-linecap="butt"/><path d="M206.91113,154.4055c-0.14724,-1.59362 1.50398,-2.14401 1.50398,-2.14401l1.41475,-0.46548c6.1002,-2.53732 11.93637,-4.92174 18.36342,-2.64391c1.41253,4.05949 4.88373,11.99448 1.69587,16.0957c-2.75767,3.54776 -11.67122,3.7097 -15.70318,4.08643c-2.06458,0.1929 -4.56706,0.58176 -6.28987,-1.16368c-2.66592,-2.70095 -1.61453,-10.00073 -1.114,-13.31102c0,0 0.02966,-0.19287 0.12903,-0.45405z" fill="#3a9f00" stroke="none" stroke-width="0.5" stroke-linecap="butt"/><path d="M206.30408,164.84265c-1.69701,-2.12126 0.42426,-3.81827 0.42426,-3.81827l0.66237,-0.44505c3.78171,-4.72715 8.09176,-8.38379 12.8117,-12.15973c0,0 2.12126,-1.69702 3.81828,0.42426c1.69701,2.12126 -0.42426,3.81828 -0.42426,3.81828c-4.40754,3.52602 -8.43659,6.90296 -11.9632,11.31123l-1.51087,1.29355c0,0 -2.12126,1.69702 -3.81828,-0.42426z" fill="url(#color-3)" stroke="none" stroke-width="0.5" stroke-linecap="butt"/><path d="M213.03601,168.03725c-1.58861,-1.98576 0.39714,-3.57436 0.39714,-3.57436l0.62006,-0.41662c3.54012,-4.42517 7.57484,-7.8482 11.99327,-11.38294c0,0 1.98576,-1.58862 3.57435,0.39714c1.58862,1.98576 -0.39716,3.57436 -0.39716,3.57436c-4.12599,3.30078 -7.89765,6.462 -11.19896,10.58864l-1.41436,1.2109c0,0 -1.98575,1.58861 -3.57436,-0.39714z" fill="url(#color-4)" stroke="none" stroke-width="0.5" stroke-linecap="butt"/><path d="M268.95099,154.16478c0.50055,3.31029 1.55192,10.6101 -1.11401,13.31103c-1.72281,1.74544 -4.22528,1.35658 -6.28986,1.16368c-4.03195,-0.37673 -12.94553,-0.53868 -15.70317,-4.08644c-3.18786,-4.10122 0.28334,-12.03622 1.69587,-16.0957c6.42705,-2.27783 12.26322,0.10658 18.36342,2.64391l1.41473,0.46547c0,0 1.6512,0.55039 1.50397,2.14401c0.09937,0.26118 0.12904,0.45405 0.12904,0.45405z" data-paper-data="{&quot;index&quot;:null}" fill="#3a9f00" stroke="none" stroke-width="0.5" stroke-linecap="butt"/><path d="M264.52459,166.83487l-1.67635,-1.43521c-3.91282,-4.89101 -8.38309,-8.63776 -13.2733,-12.54993c0,0 -2.35358,-1.88287 -0.47072,-4.23644c1.88287,-2.35357 4.23644,-0.4707 4.23644,-0.4707c5.23683,4.18947 10.01888,8.24655 14.21473,13.49137l0.7349,0.49377c0,0 2.35357,1.88287 0.47071,4.23644c-1.88287,2.35357 -4.23642,0.47071 -4.23642,0.47071z" data-paper-data="{&quot;index&quot;:null}" fill="url(#color-5)" stroke="none" stroke-width="0.5" stroke-linecap="butt"/><path d="M256.75901,168.75359l-1.24891,-1.06926c-2.91512,-3.6439 -6.24555,-6.43528 -9.88886,-9.34992c0,0 -1.75346,-1.40277 -0.3507,-3.15622c1.40277,-1.75345 3.15622,-0.35068 3.15622,-0.35068c3.90154,3.12123 7.46424,6.14383 10.59023,10.05131l0.54751,0.36788c0,0 1.75345,1.40277 0.35068,3.15622c-1.40276,1.75345 -3.15621,0.35068 -3.15621,0.35068z" data-paper-data="{&quot;index&quot;:null}" fill="url(#color-6)" stroke="none" stroke-width="0.5" stroke-linecap="butt"/><path d="M214.24283,194.23189l-0.03333,-0.09997l-0.02677,-0.348l-0.08464,-0.33859v-1.23985l-0.03333,-0.09997l-0.02676,-0.348l-0.08464,-0.33859v-2.75011l0.05246,-0.20978l-0.01029,-0.216l0.14474,-0.72372l0.10258,-0.21656v-0.37085l0.08464,-0.33859l0.02676,-0.34799l0.10199,-0.306l0.11823,-0.59117l0.05873,-0.12398l0.01053,-0.1368l0.14473,-0.43423l0.1557,-0.24466l0.09752,-0.27309l0.12821,-0.19231l0.0528,-0.15839l0.08389,-0.13183l0.01005,-0.04523l-0.00042,-0.00155l0.00122,-0.00203l0.02305,-0.10375l0.14473,-0.28949l0.22714,-0.26499l0.17956,-0.29927l0.10448,-0.10448l0.01235,-0.0144l0.04615,-0.12921l0.28949,-0.43422l0.16001,-0.14547l0.11127,-0.18543l1.44742,-1.44743l0.29927,-0.17956l0.26498,-0.22714l0.16859,-0.08429l0.32176,-0.21451l0.27309,-0.09752l0.24466,-0.1557l0.72207,-0.24068l0.15148,-0.07575l0.15255,-0.03391l0.13183,-0.08389l0.43423,-0.14474l0.34799,-0.02677l0.3386,-0.08464h0.51612l0.09998,-0.03333l0.34799,-0.02676l0.33859,-0.08464h0.31169l0.31968,-0.07991h0.05294l0.04785,-0.02267l0.4386,-0.08771l0.02943,-0.01472l0.487,-0.10822l0.48397,-0.121h0.0605l0.06088,-0.01353l0.02029,0.01353h6.21748l0.86045,-0.12292l0.15544,0.01608l0.1516,-0.0379h0.27761l0.10687,-0.02375l0.48397,-0.12099h0.0605l0.06088,-0.01353l0.02029,0.01353h0.29256l0.09739,0.02436l0.09918,-0.01543l1.4941,0.13583h0.91471l0.09739,0.02435l0.09918,-0.01542l1.4941,0.13583h0.9892l0.51291,-0.10258l0.216,0.01028l0.20979,-0.05245h2.46063l0.09739,0.02435l0.09918,-0.01542l1.49409,0.13583h3.80957l0.09739,0.02435l0.09918,-0.01542l1.49409,0.13582h4.38853l0.20979,0.05246l0.216,-0.01029l0.51291,0.10259h0.21925l0.37663,0.09416l0.38572,0.04408l1.15795,0.43423l0.03304,0.02278l0.03969,0.006l1.73691,0.72372l0.12861,0.09572l0.15337,0.04667l0.72372,0.43423l0.01435,0.01434l0.01932,0.00627l1.15795,0.72372l0.02275,0.02361l0.03088,0.01103l0.43423,0.28949l0.14547,0.16l0.18543,0.11127l0.28949,0.28949l0.17957,0.29927l0.22713,0.26499l0.14474,0.28949l0.02305,0.10375l0.00122,0.00203l-0.00042,0.00155l0.01006,0.04523l0.08389,0.13183l0.12457,0.37369l0.23225,0.58064l0.24909,0.4982l0.03391,0.15255l0.08389,0.13184l0.14474,0.43422l0.02676,0.34799l0.08464,0.33859v0.31169l0.01162,0.04646l0.00648,0.0037l0.01513,0.0605l0.02706,0.0541l0.10823,0.487l0.12099,0.48398v0.06049l0.01353,0.06088l-0.01353,0.02028v0.25762l0.1152,0.69121l-0.01446,0.18088l0.04401,0.17605v1.15795l-0.05246,0.20978l0.01029,0.216l-0.14474,0.72372l-0.02267,0.04785v0.05294l-0.28949,1.15794l-0.1511,0.28331l-0.09348,0.30715l-0.39132,0.65221l-0.2522,0.5044l-0.08928,0.10416l-0.04615,0.12921l-0.504,0.75599l-0.37379,0.74755l-0.0554,0.06463l-0.02479,0.08144l-0.43423,0.72372l-0.18899,0.18899l-0.13751,0.22919l-0.14418,0.14418l-0.05504,0.16511l-0.1557,0.24466l-0.09753,0.2731l-0.57897,0.86846l-0.31542,0.28674l-0.28675,0.31543l-0.56783,0.37856l-0.07047,0.07752l-0.36552,0.42645l-0.03323,0.00184l-0.66572,0.44382l-0.71644,0.71644l-0.29927,0.17956l-0.17524,0.15019l-1.2283,1.2283l-0.00061,0.00432l-0.01339,0.00967l-0.16485,0.16485l-0.37466,0.22481l-0.35421,0.25583l-0.21647,0.08659l-0.01417,0.00849l-0.00421,-0.00115l-0.19014,0.07606l-0.47248,0.37799l-0.08733,0.04003l-0.06463,0.07109l-0.35584,0.23723l-0.65014,0.52011l-0.08733,0.04004l-0.06463,0.07109l-0.43423,0.28949l-0.12921,0.04615l-0.10416,0.08928l-0.28949,0.14474l-0.15256,0.03391l-0.13183,0.08389l-0.72207,0.24068l-1.01994,0.50997l-0.08993,0.01999l-0.07469,0.05394l-1.36358,0.54543l-0.20871,0.10435l-0.15256,0.03391l-0.13183,0.08389l-0.43423,0.14474l-0.08488,0.00653l-0.07512,0.04005l-1.15795,0.28949h-0.05294l-0.04785,0.02267l-1.44742,0.28949l-0.216,-0.01029l-0.20979,0.05246h-2.60537l-0.14175,-0.03543l-0.14519,0.01639l-2.02829,-0.27043h-0.8691l-0.07676,-0.01919l-0.07793,0.01367l-1.94915,-0.13923h-1.36999l-0.20979,-0.05246l-0.216,0.01028l-0.51291,-0.10258h-0.50872l-0.33859,-0.08464l-0.34799,-0.02676l-0.35513,-0.11837l-0.49808,-0.12452l-0.21098,-0.11252l-0.23341,-0.05187l-2.23512,-1.11755l-0.63986,-0.25595l-0.03406,-0.0246l-0.04139,-0.00724l-1.30268,-0.57897l-0.12185,-0.09518l-0.14709,-0.0477l-1.07046,-0.66904l-3.0113,-1.50564l-0.40503,-0.162l-0.0042,0.00115l-0.01417,-0.0085l-0.21647,-0.08659l-0.35421,-0.25583l-0.37467,-0.2248l-0.16485,-0.16485l-0.01339,-0.00967l-0.00061,-0.00433l-0.00153,-0.00153l-0.29892,-0.22419l-0.11438,-0.05719l-0.26498,-0.22714l-0.29927,-0.17956l-0.24921,-0.24921l-0.17523,-0.15019l-0.29927,-0.17956l-0.42695,-0.42695l-0.21236,-0.14157l-0.67941,-0.40766l-0.0806,-0.08059l-0.10505,-0.04422l-0.57897,-0.43423l-0.09853,-0.12129l-0.134,-0.0804l-0.18038,-0.18038l-0.45554,-0.34165l-0.09854,-0.12129l-0.13401,-0.0804l-0.39395,-0.39395l-0.17523,-0.15019l-0.29927,-0.17956l-0.28949,-0.28949l-0.40917,-0.68195l-0.1001,-0.0572l-0.04699,-0.18793l-0.01947,-0.03244l0.00592,-0.02173l-0.21087,-0.84348z" fill="#863007" stroke="none" stroke-width="0.5" stroke-linecap="butt"/><path d="M257.03294,199.4011c-2.16666,0.92939 -4.2504,2.0245 -6.42658,2.95275c-5.04443,2.86317 -12.01728,5.97896 -18.33172,4.07426c-1.88278,-0.56793 -1.4939,-2.46039 -3.04472,-2.98476c-2.13824,-0.72299 -3.08513,-0.49374 -4.29184,-1.16723l-0.22288,0.39006l-1.19388,-0.68223c-0.4042,-0.22115 -0.67834,-0.65037 -0.67834,-1.1436c0,-0.71947 0.58324,-1.30268 1.30268,-1.30268h1.38953v0.06411l0.15918,-0.05435c1.4465,0.36163 2.78934,0.3499 4.23984,0.70554c3.38002,0.42364 5.15435,-4.58581 2.21533,-6.29173c-3.71336,-2.15539 -9.71256,-3.33538 -13.87794,-4.36287c0,0 -0.35263,-0.08817 -0.63877,-0.3576c-0.52167,-0.37215 -0.52167,-1.07989 -0.52167,-1.07989l0.30195,-2.0498c3.10782,-3.27593 10.19006,-0.31773 14.33221,0.05893c4.63048,0.52047 10.57174,0.60634 15.13845,-0.16648c2.90836,-0.49217 7.15884,-2.33395 10.02817,-2.09667c6.17541,0.51069 0.70704,5.43199 -1.72552,6.51069c-3.16902,1.05912 -7.11138,1.38813 -9.98135,3.15941c-1.10824,0.684 -1.85224,3.58395 -0.52543,4.44966c2.32547,1.5173 6.82922,0.07637 10.4978,-0.65425c0.22495,-0.10026 0.45057,-0.19912 0.67703,-0.29619l0.1936,-0.11062l-0.08544,-0.34177l1.36118,-0.3403c0.10967,-0.02998 0.2251,-0.04599 0.34429,-0.04599c0.71945,0 1.30268,0.58322 1.30268,1.30268c0,0.49323 -0.27412,0.92244 -0.67831,1.1436l-1.19389,0.68222l-0.01603,-0.02805z" fill="#de9227" stroke="none" stroke-width="0.5" stroke-linecap="butt"/><path d="M259.55825,185.79863c0.74566,0.05978 1.05627,0.8363 1.05627,0.8363l0.44055,1.35226c-0.01508,8.80608 -3.7319,12.91873 -12.33797,13.97964c-5.8076,0 -7.47285,-5.81705 -3.64111,-10.00247c3.31864,-3.62498 9.11091,-3.81826 13.16166,-6.15034c0,0 0.70558,-0.4032 1.32062,-0.01537z" fill="#ffffff" stroke="none" stroke-width="0.5" stroke-linecap="butt"/><path d="M244.58125,197.74229c-0.01226,-0.08225 -0.01228,-0.13561 -0.01228,-0.13561v-0.53895c0.01977,-3.13798 3.68756,-6.38734 5.5754,-2.2887c1.76628,3.83469 -2.46451,7.7671 -5.38718,3.81921c0,0 -0.29206,-0.40888 -0.17595,-0.85595z" fill="#223f00" stroke="none" stroke-width="0.5" stroke-linecap="butt"/><path d="M244.57355,197.92592c-0.0088,-0.05902 -0.00883,-0.09735 -0.00883,-0.09735v-0.38688c0.01419,-2.25248 2.64699,-4.58493 4.00211,-1.64286c1.26786,2.75261 -1.76905,5.57533 -3.867,2.74149c0,0 -0.20963,-0.2935 -0.12629,-0.61441z" fill="#6db100" stroke="none" stroke-width="0.5" stroke-linecap="butt"/><path d="M244.3769,186.80531c-0.05656,-0.7994 0.74282,-1.19909 0.74282,-1.19909l0.76419,-0.37958c2.15945,-0.92114 4.6963,-3.58105 6.95276,-3.88291c3.54457,-0.47416 4.22634,3.66533 2.86582,6.22821c-0.80854,1.52306 -6.90319,5.64769 -8.68333,5.16829c-2.27527,-0.61275 -2.36578,-3.20801 -2.76224,-4.99149c0,0 -0.11123,-0.5006 0.11996,-0.94343z" fill="#49280e" stroke="none" stroke-width="0.5" stroke-linecap="butt"/><path d="M219.60142,187.20354c4.05074,2.3321 9.84302,2.52538 13.16165,6.15035c3.83172,4.18543 2.16648,10.00247 -3.64111,10.00247c-8.60608,-1.0609 -12.32291,-5.17355 -12.33797,-13.97964l0.44055,-1.35225c0,0 0.31061,-0.77652 1.05626,-0.83631c0.61504,-0.38782 1.32063,0.01538 1.32063,0.01538z" data-paper-data="{&quot;index&quot;:null}" fill="#ffffff" stroke="none" stroke-width="0.5" stroke-linecap="butt"/><path d="M233.33671,199.11932c-2.92267,3.94787 -7.15345,0.01548 -5.38718,-3.81921c1.88785,-4.09864 5.55563,-0.84928 5.57541,2.2887v0.53895c0,0 0,0.05337 -0.01228,0.13562c0.11612,0.44707 -0.17595,0.85595 -0.17595,0.85595z" data-paper-data="{&quot;index&quot;:null}" fill="#223f00" stroke="none" stroke-width="0.5" stroke-linecap="butt"/><path d="M233.78308,199.06141c-2.09795,2.83384 -5.13486,0.0111 -3.867,-2.74149c1.35513,-2.94207 3.98792,-0.60962 4.00211,1.64286v0.38688c0,0 0,0.03832 -0.0088,0.09735c0.08334,0.32091 -0.12631,0.61442 -0.12631,0.61442z" data-paper-data="{&quot;index&quot;:null}" fill="#6db100" stroke="none" stroke-width="0.5" stroke-linecap="butt"/><path d="M235.31122,187.40134c-0.39645,1.78348 -0.48696,4.37874 -2.76223,4.99149c-1.78013,0.47941 -7.8748,-3.64523 -8.68333,-5.1683c-1.36053,-2.56288 -0.67873,-6.70236 2.86584,-6.22818c2.25646,0.30186 4.79329,2.96177 6.95276,3.8829l0.76419,0.37956c0,0 0.7994,0.39972 0.74284,1.19912c0.23119,0.44283 0.11993,0.94341 0.11993,0.94341z" data-paper-data="{&quot;index&quot;:null}" fill="#49280e" stroke="none" stroke-width="0.5" stroke-linecap="butt"/><path d="M242.82462,196.35042c0.38837,0.1942 0.19421,0.58258 0.19421,0.58258l-0.42476,0.56514c-1.1915,0.36326 -2.18197,1.47999 -3.47383,1.9106c0,0 -0.41196,0.13732 -0.54926,-0.27462c-0.13731,-0.41195 0.27464,-0.54926 0.27464,-0.54926c1.32429,-0.44142 2.23488,-1.47285 3.47383,-1.91061l-0.07738,-0.12963c0,0 0.19419,-0.38839 0.58258,-0.1942z" fill="#974300" stroke="none" stroke-width="0.5" stroke-linecap="butt"/><path d="M237.63015,203.41243c0,0.43423 -0.43423,0.43422 -0.43423,0.43422l-0.48469,-0.02228c-0.40404,-0.13753 -0.78925,-0.33696 -1.1457,-0.57172c0,0 -0.3613,-0.24085 -0.12044,-0.60217c0.24086,-0.3613 0.60217,-0.12044 0.60217,-0.12044c0.28987,0.19608 0.60575,0.36236 0.93861,0.47043l0.21006,-0.02229c0,0 0.43423,0 0.43423,0.43423z" fill="#974300" stroke="none" stroke-width="0.5" stroke-linecap="butt"/><path d="M257.95563,131.70877v-40.19713h4.96262v40.19713z" fill="#14210d" stroke="none" stroke-width="0" stroke-linecap="butt"/><path d="M253.42726,84.06771c0,-3.59727 2.91616,-6.51342 6.51343,-6.51342c3.59727,0 6.51343,2.91615 6.51343,6.51342c0,3.59727 -2.91616,6.51343 -6.51343,6.51343c-3.59727,0 -6.51343,-2.91616 -6.51343,-6.51343z" fill="#fe0000" stroke="none" stroke-width="0.5" stroke-linecap="butt"/></g></g></svg>