<svg version="1.1" xmlns="http://www.w3.org/2000/svg" xmlns:xlink="http://www.w3.org/1999/xlink" width="161.13798" height="132.38065" viewBox="0,0,161.13798,132.38065"><defs><radialGradient cx="202.98212" cy="195.77237" r="39.1394" gradientUnits="userSpaceOnUse" id="color-1"><stop offset="0" stop-color="#fbd409"/><stop offset="1" stop-color="#fab30a"/></radialGradient><radialGradient cx="266.79462" cy="187.05362" r="10.25" gradientUnits="userSpaceOnUse" id="color-2"><stop offset="0" stop-color="#20c700"/><stop offset="1" stop-color="#006a0e"/></radialGradient><radialGradient cx="286.79462" cy="186.55362" r="10.25" gradientUnits="userSpaceOnUse" id="color-3"><stop offset="0" stop-color="#20c700"/><stop offset="1" stop-color="#006a0e"/></radialGradient><radialGradient cx="204.59929" cy="146.95968" r="27.3525" gradientUnits="userSpaceOnUse" id="color-4"><stop offset="0" stop-color="#e8c307"/><stop offset="1" stop-color="#e86807"/></radialGradient></defs><g transform="translate(-158.43102,-112.28252)"><g data-paper-data="{&quot;isPaintingLayer&quot;:true}" fill-rule="nonzero" stroke-linejoin="miter" stroke-miterlimit="10" stroke-dasharray="" stroke-dashoffset="0" style="mix-blend-mode: normal"><path d="M268.94633,238.86406v-22.23655h18.78604v22.23655z" fill="#384038" stroke="none" stroke-width="0" stroke-linecap="butt"/><path d="M271.69633,235.60386v-15.72634h13.28604v15.72634z" fill="#6a796a" stroke="none" stroke-width="0" stroke-linecap="butt"/><path d="M275.96745,231.80784v-20.60691h4.06716v20.60691z" fill="#4e708e" stroke="none" stroke-width="0" stroke-linecap="butt"/><path d="M158.43102,244.66315v-75.39288h92.20932v75.3929z" fill="#cfa313" stroke="none" stroke-width="0" stroke-linecap="butt"/><path d="M158.43102,239.01718v-75.3929h92.20932v75.3929z" fill="#fac517" stroke="none" stroke-width="0" stroke-linecap="butt"/><path d="M163.13599,234.78272v-67.86495h83.00226v67.86495z" fill="#f9c926" stroke="none" stroke-width="0" stroke-linecap="butt"/><path d="M245.24058,227.40629c0,2.59848 -2.84375,4.70496 -6.3517,4.70496c-3.50795,0 -6.3517,-2.10649 -6.3517,-4.70496c0,-2.59848 2.84376,-4.70497 6.3517,-4.70497c3.50795,0 6.3517,2.10649 6.3517,4.70497z" fill="#caa21e" stroke="none" stroke-width="0" stroke-linecap="butt"/><path d="M176.78335,227.64154c0,2.59848 -2.84376,4.70497 -6.3517,4.70497c-3.50795,0 -6.3517,-2.10649 -6.3517,-4.70497c0,-2.59848 2.84375,-4.70496 6.3517,-4.70496c3.50795,0 6.3517,2.10649 6.3517,4.70496z" fill="#caa21e" stroke="none" stroke-width="0" stroke-linecap="butt"/><path d="M176.78335,229.75877c0,1.42916 -2.84376,2.58774 -6.3517,2.58774c-3.50795,0 -6.3517,-1.15857 -6.3517,-2.58774c0,-1.42916 2.84375,-2.58772 6.3517,-2.58772c3.50795,0 6.3517,1.15857 6.3517,2.58772z" fill="#9c7d17" stroke="none" stroke-width="0" stroke-linecap="butt"/><path d="M245.47583,229.75877c0,1.42916 -2.84375,2.58774 -6.3517,2.58774c-3.50795,0 -6.3517,-1.15857 -6.3517,-2.58774c0,-1.42916 2.84375,-2.58772 6.3517,-2.58772c3.50795,0 6.3517,1.15857 6.3517,2.58772z" fill="#9c7d17" stroke="none" stroke-width="0" stroke-linecap="butt"/><path d="M166.97579,213.94605v-67.81913h74.34519v67.81914c0,0 -24.68781,10.45966 -37.13475,10.45966c-12.33376,0 -37.21044,-10.45966 -37.21044,-10.45966z" fill="url(#color-1)" stroke="none" stroke-width="0" stroke-linecap="butt"/><path d="M242.87905,146.93051c0,19.13556 -17.52331,34.648 -39.13939,34.648c-21.6161,0 -39.13939,-15.51243 -39.13939,-34.648c0,-19.13556 17.5233,-34.64799 39.13939,-34.64799c21.6161,0 39.13939,15.51243 39.13939,34.64799z" fill="#cca41f" stroke="none" stroke-width="0" stroke-linecap="butt"/><path d="M239.35417,146.91363c0,17.59702 -16.11438,31.86223 -35.99252,31.86223c-19.87811,0 -35.99252,-14.26521 -35.99252,-31.86223c0,-17.59702 16.11438,-31.86222 35.99252,-31.86222c19.87811,0 35.99252,14.2652 35.99252,31.86222z" fill="#f9c926" stroke="none" stroke-width="0" stroke-linecap="butt"/><path d="M230.29151,147.14331c0,13.38741 -11.97572,24.24005 -26.74853,24.24005c-14.77281,0 -26.74853,-10.85265 -26.74853,-24.24005c0,-13.38741 11.97572,-24.24005 26.74853,-24.24005c14.77281,0 26.74853,10.85265 26.74853,24.24005z" fill="#434343" stroke="none" stroke-width="0" stroke-linecap="butt"/><path d="M288.22714,196.34693c-0.06777,-0.09635 -0.12148,-0.22016 -0.15127,-0.379c-0.1605,-0.85599 0.69549,-1.01649 0.69549,-1.01649l0.70736,-0.1258c2.59395,-0.83009 6.21566,-2.97367 8.70415,-2.97056c0.43854,0.3348 0.88225,0.67308 1.3207,1.02119c-2.86181,0.03965 -4.69778,0.55867 -7.45877,1.48928c-1.38407,0.0922 -2.3834,1.60021 -3.29597,2.58223c-0.03818,-0.02496 -0.0768,-0.04927 -0.11584,-0.07292c0,0 -0.31081,-0.1916 -0.40586,-0.52792z" data-paper-data="{&quot;index&quot;:null}" fill="#9f4d1e" stroke="none" stroke-width="0.5" stroke-linecap="butt"/><path d="M256.74775,194.21378c0.0947,-0.03633 7.00843,-0.36315 7.08518,-0.37487c1.75366,-0.26777 2.51423,1.98842 4.10833,2.45151c0.94725,0.27518 -1.93107,1.58322 -1.42719,2.05281c0.03975,-0.01349 0.07995,-0.02684 0.12061,-0.04004l0.00052,-0.04345l1.18109,0.01422c0.48095,0.00579 0.86614,0.40037 0.86036,0.88132c-0.00579,0.48095 -0.40037,0.86615 -0.88132,0.86035l-0.83796,-0.01009c-1.13247,0.37876 -1.16419,1.25821 -1.31532,2.03985c-0.25878,-0.61587 -0.62821,-1.17152 -1.1053,-1.58863c-0.82414,-0.72053 -1.26376,1.36332 -2.08087,0.63748c-1.98534,-0.14666 -4.84791,1.43072 -6.82042,0.7435c0.24824,-1.68416 0.31325,-7.3175 1.11231,-7.62395z" data-paper-data="{&quot;index&quot;:null}" fill="#414141" stroke="none" stroke-width="0.5" stroke-linecap="butt"/><path d="M267.03028,197.02478c1.99693,-0.56768 4.29125,1.02676 6.06847,1.65602c2.16435,0.76633 4.68063,0.46141 6.88674,0.04859c2.72166,-0.35153 5.85611,-2.66002 8.65081,-1.66286c-0.06556,0.06769 -0.13074,0.13222 -0.19565,0.19282c-0.09815,0.09166 -0.8428,0.64666 -0.84857,0.76515c-0.02326,0.47747 0.91629,1.13464 1.09174,1.50916c1.97877,1.9949 2.67698,4.4286 2.67698,7.18123c0,0.21776 -0.00638,0.43234 -0.01652,0.64512c-0.54771,0.53454 -1.23291,0.983 -2.0605,1.30713c-1.93672,1.13055 -5.03105,2.72601 -7.39814,2.07038c-2.49904,-0.69217 -2.17383,-4.24601 -3.36068,-5.89933c-0.80918,-1.1272 -1.97983,0.32291 -2.16553,1.02631c-0.16676,0.6316 -0.34411,1.26381 -0.59233,1.86804c-1.15612,2.23247 -3.63325,3.088 -6.3406,2.67672c-0.82702,-0.12563 -2.213,0.54537 -2.90746,-0.05938c-0.95431,-0.83103 -1.78262,-2.38506 -2.18556,-3.98226c0.47852,-1.60864 0.86544,-3.31 1.27186,-4.83774c0.2805,-1.05475 0.17212,-2.38426 -0.30679,-3.50856c0.42189,-0.43854 0.98683,-0.78482 1.73173,-0.99657z" data-paper-data="{&quot;index&quot;:null}" fill="#414141" stroke="none" stroke-width="0.5" stroke-linecap="butt"/><path d="M291.7675,206.7149c0,-2.80868 -0.7091,-5.39202 -2.75375,-7.41904c-0.14173,-0.26908 -1.01182,-0.96233 -1.02022,-1.2062c-0.00191,-0.0556 0.6384,-0.54795 1.02993,-0.86491c4.01938,1.80446 5.15099,6.72126 2.74257,9.67433c0.00096,-0.06115 0.00146,-0.12253 0.00146,-0.18418z" data-paper-data="{&quot;index&quot;:null}" fill="#d48631" stroke="none" stroke-width="0.5" stroke-linecap="butt"/><path d="M272.81492,143.70313c0.02604,-0.14536 0.04717,-0.32116 0.06648,-0.51927c2.11716,0.21578 4.18783,0.65224 6.32998,0.70486c2.73354,0.04298 5.4867,0.14665 8.24926,0.17263c-0.07864,0.42523 -0.13448,0.88887 -0.13455,1.42351c0.04574,0.03622 0.07115,0.06224 0.07115,0.06224l0.32024,0.32806c2.34623,2.4108 5.98347,3.06943 8.61834,5.22651c2.24656,1.84511 4.20912,3.51358 5.92662,5.91547c0.70443,0.98513 1.26594,2.93908 2.03535,3.7234c0.53501,0.54537 3.58682,0.2216 4.35278,0.38591c2.37045,0.50848 3.97904,2.06325 5.60692,3.73306c2.02047,2.41384 4.65483,6.12535 3.47112,9.51592c-0.28456,0.81506 -0.78203,1.19892 -1.36083,1.7669c-3.56392,3.49734 -7.12284,0.21051 -8.20367,-3.67475c-0.31567,-0.81543 -0.49842,-1.66013 -0.99684,-2.39001c-0.8853,-1.29642 -3.85406,-2.88323 -5.01678,-0.91019c-1.565,2.65568 1.88723,5.2548 3.89575,6.07854c1.27709,0.56788 2.95895,1.25603 3.76793,2.47779c1.77089,2.6745 -0.17173,7.66302 -2.1411,9.78757c-0.87962,0.94893 -4.02056,3.20877 -7.61332,5.3803c-0.16937,-0.01048 -0.33633,-0.01595 -0.50033,-0.016c-2.89386,0.03365 -4.73569,0.55335 -7.5146,1.48999c-1.54136,0.10268 -2.60557,1.96125 -3.60417,2.89381c-0.07054,0.06588 -0.47503,0.37109 -0.69914,0.58157c-0.27235,-0.06608 -0.49689,-0.18014 -0.66639,-0.34779c-0.14261,-0.40831 -1.42872,-1.29833 -1.13772,-1.91078c2.05235,-4.31919 14.8431,-12.62577 15.35919,-15.44111c0.03885,-0.21191 0.08119,-0.35473 0.1185,-0.44723c-0.12823,0.08933 -0.38903,0.16513 -0.86455,0.04693c-1.3659,-0.33954 -4.93422,5.54284 -6.38838,5.52534c-4.88785,-0.05885 -7.67902,-8.04508 -11.42702,-4.80208c-1.14429,0.9901 -1.81604,2.6834 -2.80545,3.82467c-0.38079,0.43922 -0.66688,1.2395 -1.24779,1.21831c-0.88176,-0.03217 -1.33664,-0.12997 -1.59279,-0.78761c-0.54861,-1.53628 -2.9541,-2.24754 -4.18634,-3.2273c-0.65677,-0.5222 -1.30225,-1.08663 -1.94484,-1.65641c4.10617,5.07746 13.22432,15.28848 12.87772,15.86379c-1.06622,1.76975 -16.95065,-0.92932 -16.82035,1.0426c0.07388,1.11791 -8.76541,-6.90218 -9.84928,-6.07258c-0.97501,0.74626 -5.88326,-0.37499 -6.94146,-0.81042c-3.48378,-2.14405 -7.12674,-8.65105 -5.13716,-12.79937c0.86894,-1.81178 3.01471,-2.76351 4.92142,-3.03284c1.11834,-0.15797 2.05401,-0.51168 1.8358,-0.71938c0.66395,-3.76266 0.39194,-6.46645 0.74496,-10.32214c0.16282,-1.77846 0.76889,-3.71303 1.23343,-5.44184c0.48138,-1.7915 1.18967,-3.00269 2.12196,-4.51494c2.08395,-2.05777 4.87752,-3.82685 7.59497,-5.02987c2.81925,-1.24809 6.67106,-1.57249 9.09422,-3.50423c0,0 0.01583,-0.01236 0.04459,-0.03093c0.0454,-0.25353 0.0908,-0.50707 0.1362,-0.76061z" data-paper-data="{&quot;index&quot;:null}" fill="#414141" stroke="none" stroke-width="0.5" stroke-linecap="butt"/><path d="M289.30295,200.98484c0.70305,-0.75751 -3.32838,-4.47663 -2.12914,-4.54093c1.30059,-0.42958 3.70516,-3.52862 7.02938,-4.55479c3.60055,-1.11147 8.1357,-0.13747 9.58675,-0.13476c-1.67022,0.9891 -5.43637,9.3623 -7.14854,10.43266c-2.61554,1.63509 -7.05702,-0.19469 -8.46084,-0.28254c0.33356,-0.28317 1.00712,-0.79543 1.12239,-0.91963z" data-paper-data="{&quot;index&quot;:null}" fill="#414141" stroke="none" stroke-width="0.5" stroke-linecap="butt"/><path d="M297.50149,192.14818c0.01013,-0.84167 0.70065,-1.51575 1.54233,-1.50563c0.11322,0.00136 0.22341,0.01504 0.32931,0.03973l1.58602,0.33711l-0.03652,0.17178c0.34917,-0.03974 0.69688,-0.08907 1.04194,-0.15607c2.46874,-0.47934 5.17219,-3.7879 6.35134,-5.82395c1.8176,-3.13845 1.95108,-6.58458 -1.17446,-7.67535c-1.7908,0.05951 -3.6844,0.11193 -4.8384,-1.62384c-1.18498,-1.78235 -1.17349,-7.40775 0.88734,-8.48359c0.79287,-0.41392 1.80987,-0.11039 2.6817,0.08928c2.42013,0.55427 3.11735,2.35381 3.76468,4.46261c0.25917,0.84429 0.2997,1.88831 0.79701,2.59677c0.28519,0.0921 0.62592,0.27706 0.82938,0.64837c1.73784,0.77649 5.18705,1.47367 5.25807,-1.08816c-0.31579,-4.03524 -2.29939,-9.1811 -5.91824,-11.39324c-1.86124,-1.13774 -4.25205,-0.67116 -6.15262,-1.61798c-2.10658,-1.04945 -2.14308,-2.56907 -3.33131,-4.28675c-1.60426,-2.31909 -3.61454,-4.00561 -5.55512,-5.98633c-1.96752,-1.81697 -5.97615,-1.81054 -7.55899,-3.81766c-0.57863,-0.73373 -12.65702,0.18241 -12.76047,-0.97802c0.77347,0.0092 13.38104,-1.98718 14.15583,-1.9922c0.23916,-0.00923 0.47853,-0.01887 0.71806,-0.0288c0.00638,0.40872 0.0618,0.79846 0.28911,1.12316c0.47927,0.68458 1.63063,0.38819 2.41111,0.68688c1.88209,0.72029 3.34174,1.47775 4.85447,2.80605c2.91422,2.9968 5.01639,5.74799 7.33461,9.16668c0.47601,0.70198 1.29611,0.6329 2.01518,0.7762c1.77324,0.3534 3.5736,0.59016 5.15492,1.53899c4.62137,2.77293 6.98613,8.93614 7.39123,14.05355c-0.11204,0.75424 0.01264,1.58465 -0.33615,2.26272c-1.1101,2.15812 -3.89873,2.8267 -6.51454,2.44349c1.10231,4.5931 -3.53659,10.73129 -6.73518,13.2437c-0.51675,0.40589 -1.42551,1.05113 -2.36144,1.52208c-1.35843,-0.46175 -2.79833,-0.78384 -4.06225,-0.78423c-0.65552,0.00762 -1.25706,0.04018 -1.82774,0.09688c-0.1491,-0.23886 -0.23382,-0.5218 -0.23019,-0.82426zM305.23945,174.18361l0.79984,0.0172c0.41467,0.04994 0.75998,0.08175 1.06782,0.11472c-0.39414,-1.82976 -0.64352,-3.92407 -2.60674,-4.13484c-0.51031,-0.05478 0.25317,0.99625 0.3334,1.50319c0.13232,0.83608 -0.15829,1.72762 0.04731,2.54295c0.20744,-0.04502 0.3584,-0.0432 0.3584,-0.0432z" data-paper-data="{&quot;index&quot;:null}" fill="#1e1e1e" stroke="none" stroke-width="0.5" stroke-linecap="butt"/><path d="M274.37032,144.52446c0,0 14.55417,-1.16372 13.69611,-0.88168c-0.3408,0.37544 -3.6482,1.49863 -3.6482,1.49863c-3.84891,0.99813 -18.88021,3.12388 -22.51798,4.68852c-1.63813,0.70457 -3.81819,1.65441 -4.98156,3.0711c-2.11168,2.57147 -3.47121,6.65216 -4.16384,9.84035c-0.02375,2.79791 0.3422,5.64298 0.06788,8.44158c-0.09212,0.93987 -0.49822,2.08539 -1.12447,2.79224c-1.31027,1.47888 -3.73335,0.16732 -5.30448,1.86034c-1.05274,1.1344 -0.90285,3.72291 -0.54726,5.08412c0.95298,3.64803 2.20278,5.88453 5.19708,8.2166c1.92146,0.86829 2.88407,1.17774 4.94314,0.56239l1.24903,-0.04923c0,0 1.52398,0.01835 1.50563,1.54233c-0.00612,0.50895 -0.18019,0.8459 -0.40933,1.06895c0.21692,0.0553 0.44683,0.17368 0.6818,0.38432c0.95833,0.85913 0.38188,1.802 0.17939,2.07452c-1.29414,-0.03743 -2.64087,-0.10291 -3.83772,-0.43631c0.53678,-0.49991 1.04519,-1.00438 1.50616,-1.52072c0,0 0.03945,-0.04399 0.11146,-0.1069l-0.14574,-0.02695c-2.91335,0.80935 -4.6708,0.36502 -7.35856,-0.88247c-4.52683,-3.44778 -10.1653,-12.39718 -5.34803,-17.94157c0.73799,-0.84937 2.45773,-1.76796 3.53869,-2.04989c0.60339,-0.15737 1.2394,-0.2219 1.86175,-0.18294c0.24054,0.01506 0.51502,0.54653 0.6384,0.33949c0.14612,-0.24519 -0.34455,-0.48235 -0.38487,-0.76493c-0.08393,-0.58834 0.0143,-1.18851 0.02146,-1.78277c0.02804,-2.32932 -0.10528,-4.63366 -0.07089,-6.95896c0.77916,-3.73004 2.33351,-8.45934 4.84549,-11.44748c3.90849,-4.64933 11.26319,-6.0678 16.84129,-7.49439c0.01098,-0.12762 0.02126,-0.25571 0.031,-0.38417c1.04729,0.0419 17.41048,2.00226 18.43666,2.14395c-0.07446,0.41043 -15.47122,-1.03913 -15.50948,-0.69807z" data-paper-data="{&quot;index&quot;:null}" fill="#1e1e1e" stroke="none" stroke-width="0.5" stroke-linecap="butt"/><path d="M265.16521,197.16605l0.5172,-1.05764c0,0 0.69795,-1.35487 2.05282,-0.65691c1.35487,0.69795 0.65692,2.05282 0.65692,2.05282l-0.8106,1.51988c-0.75687,0.98245 -1.44942,2.01969 -2.12426,3.07191c0.04919,-0.191 0.09847,-0.3799 0.14803,-0.56622c0.33395,-1.25575 0.11668,-2.90095 -0.62081,-4.12563c0.05983,-0.0798 0.12005,-0.15922 0.18069,-0.23821z" data-paper-data="{&quot;index&quot;:null}" fill="#414141" stroke="none" stroke-width="0.5" stroke-linecap="butt"/><path d="M290.92087,208.26195c-2.01271,2.43132 -6.37076,3.54654 -9.42966,2.43246c-1.65994,-0.60456 -2.30387,-2.33501 -2.62051,-3.91254c-0.08505,-0.42372 -0.24443,-1.14768 -0.26382,-1.70609c-0.43752,0.46275 -1.07524,0.93704 -1.49847,0.7873c-0.18006,0.91849 -0.45295,2.06077 -0.87195,2.76806c-2.05758,3.47335 -9.05692,3.55998 -11.20806,0.38912c-0.44958,-0.6627 -0.68086,-1.48238 -0.79613,-2.3185c0.294,-0.95318 0.5525,-1.94612 0.79925,-2.92191c0.84728,0.02564 0.83699,0.88083 0.83699,0.88083c-0.01528,1.05749 -0.00864,2.49681 0.62546,3.41831c1.41037,2.04963 7.00707,2.08387 8.25203,-0.34916c0.3506,-0.68518 0.5845,-1.75427 0.72051,-2.52111l0.01301,-1.0807c0.00579,-0.48095 0.40037,-0.86614 0.88132,-0.86035c0.24048,0.0029 0.45701,0.10298 0.61271,0.26248l0.41505,0.42516c0.06655,-0.01521 0.12961,-0.04421 0.18745,-0.0902c0.60915,-0.48434 1.04248,-1.69451 2.23606,-1.12402c1.02485,0.48983 0.7052,4.34459 1.29502,5.39269c1.46589,2.60488 7.01945,0.80954 8.46681,-0.97619c0.21934,-0.26752 0.43869,-0.53502 0.65804,-0.80254l0.28469,-0.42189c0,0 0.31041,-0.45369 0.79844,-0.39355c0.03105,0.38484 0.04568,0.77672 0.04568,1.1753c0,0.35996 -0.01744,0.71122 -0.04045,1.06c-0.13315,0.1624 -0.2663,0.32479 -0.39946,0.48719z" data-paper-data="{&quot;index&quot;:null}" fill="#1e1e1e" stroke="none" stroke-width="0.5" stroke-linecap="butt"/><path d="M264.12683,204.6397c0,0 0.00684,-0.56753 0.46762,-0.78076c-0.14558,0.57641 -0.29589,1.15792 -0.45602,1.73211c-0.0129,-0.32734 -0.01462,-0.64739 -0.0116,-0.95135z" data-paper-data="{&quot;index&quot;:null}" fill="#783b1a" stroke="none" stroke-width="0.5" stroke-linecap="butt"/><path d="M288.65547,196.65769c0.21365,-0.15625 0.41734,-0.24826 0.60807,-0.29363c-0.28423,0.33046 -0.5559,0.64597 -0.82289,0.8953c-0.0455,0.0425 -0.23,0.18462 -0.41539,0.33663c0.05183,-0.31155 0.22611,-0.64275 0.63021,-0.9383z" data-paper-data="{&quot;index&quot;:null}" fill="#783b1a" stroke="none" stroke-width="0.5" stroke-linecap="butt"/><path d="M268.11359,197.06176c-0.22913,-0.82873 -0.39525,-1.74244 0.5473,-2.38833c1.13386,-0.77699 2.44648,0.08139 2.92213,1.05682c0.5731,1.17524 -0.15043,3.00761 0.28468,4.24746c0.23787,0.67781 1.64518,1.63118 1.04582,2.52845c-0.59331,0.88821 -2.36492,0.40157 -3.01965,-0.06254c-1.23075,-0.87246 -1.27248,-2.4846 -1.48376,-3.95351c-0.15396,-0.24368 -0.15062,-0.52144 -0.15062,-0.52144l0.02729,-0.18444c-0.03827,-0.1765 -0.08278,-0.34843 -0.13628,-0.51399c0,0 -0.02707,-0.08462 -0.03692,-0.20845z" data-paper-data="{&quot;index&quot;:null}" fill="#1e1e1e" stroke="none" stroke-width="0.5" stroke-linecap="butt"/><path d="M287.4465,197.96713c-0.05746,0.16423 -0.1061,0.33503 -0.14861,0.51057l0.02285,0.18503c0,0 -0.00335,0.27777 -0.16313,0.51766c-0.24659,1.46338 -0.32713,3.07406 -1.57852,3.91662c-0.66572,0.44822 -2.44853,0.89206 -3.02027,-0.01017c-0.57758,-0.91144 0.85228,-1.83065 1.10639,-2.50254c0.46485,-1.22902 -0.21437,-3.07826 0.38685,-4.23936c0.49901,-0.9637 1.8319,-1.79022 2.94673,-0.98615c0.67343,0.4857 0.75817,1.09869 0.65864,1.7133c-0.03744,0.23118 -0.10096,0.46257 -0.16902,0.68751c-0.01281,0.12356 -0.04192,0.20752 -0.04192,0.20752z" data-paper-data="{&quot;index&quot;:null}" fill="#414141" stroke="none" stroke-width="0.5" stroke-linecap="butt"/><path d="M271.05615,197.57584c-0.21951,-0.0395 0.1348,-0.16651 -0.01114,-0.51872c-0.33341,-0.80455 -0.12082,-1.02697 -0.12082,-1.02697l0.9996,-0.39498c2.5497,-0.00978 5.0095,0.25065 7.54189,0.42873c1.22442,0.08611 3.0385,-0.15421 4.18928,0.19641c1.44791,0.44116 1.30253,0.88046 1.78911,2.12543c-0.01072,1.31148 -0.14459,3.03267 -1.33701,3.91505c-1.07999,0.79916 -3.00455,0.28641 -4.24222,0.34996c-4.02053,0.20644 -9.28654,0.34334 -8.8087,-5.07493z" data-paper-data="{&quot;index&quot;:null}" fill="#414141" stroke="none" stroke-width="0.5" stroke-linecap="butt"/><path d="M270.39675,187.51499c0.06174,0.04438 0.0971,0.08059 0.0971,0.08059l0.49266,0.6571c0.68943,2.98614 -2.46665,5.97766 -4.88117,3.03473c-2.43269,-2.96511 1.22649,-5.6112 4.03211,-4.01922c0,0 0.14699,0.08637 0.25929,0.24678z" data-paper-data="{&quot;index&quot;:null}" fill="#4d2813" stroke="none" stroke-width="0.5" stroke-linecap="butt"/><path d="M283.80062,188.24378c2.84313,-1.52399 6.43754,1.20944 3.93417,4.11512c-2.48467,2.88395 -5.56781,-0.18268 -4.80668,-3.15135l0.50835,-0.64506c0,0 0.03622,-0.03535 0.099,-0.07823c0.11613,-0.15768 0.26517,-0.24047 0.26517,-0.24047z" data-paper-data="{&quot;index&quot;:null}" fill="#4d2813" stroke="none" stroke-width="0.5" stroke-linecap="butt"/><path d="M271.2706,188.67515c0.06173,0.04439 0.0971,0.08061 0.0971,0.08061l0.49266,0.65711c0.68941,2.98613 -2.46665,5.97765 -4.88115,3.03472c-2.43269,-2.96512 1.22648,-5.6112 4.0321,-4.01921c0,0 0.147,0.08636 0.2593,0.24678z" data-paper-data="{&quot;index&quot;:null}" fill="#4d2813" stroke="none" stroke-width="0.5" stroke-linecap="butt"/><path d="M283.90928,209.53194c-0.43541,-0.00525 -0.43018,-0.44066 -0.43018,-0.44066c0.00699,-0.58056 0.01573,-1.30626 0.02272,-1.88682c0,0 0.00525,-0.43542 0.44066,-0.43017c0.43541,0.00525 0.43018,0.44066 0.43018,0.44066c-0.00699,0.58056 -0.01398,1.16111 -0.02097,1.74168l-0.00174,0.14513c0,0 -0.00525,0.43543 -0.44066,0.43018z" data-paper-data="{&quot;index&quot;:null}" fill="#414141" stroke="none" stroke-width="0.5" stroke-linecap="butt"/><path d="M287.69688,208.41627c-0.43541,-0.00525 -0.43018,-0.44067 -0.43018,-0.44067c0.00174,-0.14515 0.00525,-0.43541 0.007,-0.58055c0,0 0.00524,-0.43543 0.44065,-0.43019c0.43541,0.00525 0.43018,0.44067 0.43018,0.44067c-0.00174,0.14515 -0.00349,0.29028 -0.00525,0.43543l-0.00174,0.14514c0,0 -0.00525,0.43542 -0.44066,0.43017z" data-paper-data="{&quot;index&quot;:null}" fill="#a0531a" stroke="none" stroke-width="0.5" stroke-linecap="butt"/><path d="M254.55254,216.89457v-5.69402h45.82327v5.69402z" fill="#909893" stroke="none" stroke-width="0" stroke-linecap="butt"/><path d="M300.47723,204.65965c0.21717,1.14167 0.62267,2.96444 -0.80425,3.75188c-0.55987,0.30897 -1.32047,-0.89524 -1.84419,-0.52835c-0.66046,0.4627 -1.33551,1.23914 -2.13544,1.13696c-0.43977,-0.05618 -0.67949,-1.04985 -1.28567,-0.69358c-0.60953,0.35823 -1.03065,1.20423 -1.73754,1.21642c-0.9721,0.01677 -1.54717,-1.9678 -2.44387,-1.59207c-0.20499,0.08589 -0.00923,0.53364 -0.20776,0.63357c-0.06572,0.03307 -0.13263,0.06289 -0.20056,0.08996l0.01804,0.03519l-0.9164,0.46974c-0.2286,0.11965 -0.50786,0.13699 -0.76144,0.02301c-0.39871,-0.1792 -0.59681,-0.62132 -0.48159,-1.02978l0.22917,-0.87113c0.09026,-2.26198 0.60189,-5.38539 -0.50838,-7.48486c0.13683,-0.03851 0.24269,-0.07067 0.28906,-0.09095c0.94687,-0.41415 2.34533,-1.33051 3.47066,-0.91106c2.89233,0.26489 4.78305,0.43425 7.41134,1.60743c0.13951,0.06074 0.27957,0.12698 0.41984,0.19822c0.65469,1.28679 1.21968,2.6238 1.48897,4.03941z" data-paper-data="{&quot;index&quot;:null}" fill="#414141" stroke="none" stroke-width="0.5" stroke-linecap="butt"/><path d="M287.68135,210.37871c-0.37831,-0.49712 0.0444,-1.03355 0.0444,-1.03355l0.19111,-0.20054c0.86816,-1.53269 1.62872,-2.06652 3.13972,-0.82972c1.05921,-0.18159 1.63961,0.3956 2.43899,0.54053c0.59541,0.10794 0.65763,-1.21087 1.25416,-1.31245c0.66502,-0.11326 1.12406,0.94869 1.79835,0.92828c0.87069,-0.02634 0.91107,-2.09553 2.66228,-1.78457c1.20902,0.21467 2.06464,1.93095 2.35361,2.9247c0.79548,2.7357 0.4987,6.84973 -1.90544,8.6274c-1.75622,0.66709 -6.98776,1.52242 -8.6085,0.23252c-1.37025,-1.09054 -0.4746,-2.79957 -1.36019,-3.89223c-0.38727,-0.47783 -1.33927,-0.07575 -1.7727,-0.51217c-0.86359,-0.86956 -0.60057,-2.40378 -0.23576,-3.68815z" data-paper-data="{&quot;index&quot;:null}" fill="#394354" stroke="none" stroke-width="0.5" stroke-linecap="butt"/><path d="M289.04444,200.32007c0.53088,2.36167 0.96751,4.43431 0.56678,6.87019c-0.26379,1.6034 -1.05815,3.19171 -1.30273,4.75237c-0.19002,1.2126 1.82477,2.15312 2.3617,2.83496c0.64594,0.82026 0.52524,2.05729 1.08635,2.93777c0.32039,0.50277 1.20144,0.14282 1.78814,0.03699c1.98936,-0.35886 4.05386,-0.78238 6.04209,-1.22577c2.13032,-0.67001 1.29222,-2.24109 1.29176,-4.22464c-0.0009,-3.89939 -1.31139,-7.4719 -2.9253,-10.99793l-0.75458,-1.36531c-0.01443,-0.02546 -0.02812,-0.05132 -0.04106,-0.07753c0.45202,0.15654 0.02772,-3.22202 0.52007,-3.00225c1.11205,0.48417 1.11304,-1.1002 2.13592,-0.17283c1.22271,3.08789 4.11076,12.22975 4.11313,15.61583c0.00252,3.61719 0.28566,5.5963 -3.46227,7.14384c-2.81553,0.63697 -8.59112,2.67891 -10.96994,0.31285c-0.77663,-0.77246 -0.47765,-2.23222 -1.19267,-3.06206c-1.46004,-1.69447 -3.1083,-2.24137 -3.03683,-4.92233c0.00578,-0.21657 0.03179,-0.44299 0.07293,-0.67657c0.25133,-0.47839 0.50393,-0.95403 0.72689,-1.46652c1.12046,-2.57551 1.50079,-5.22727 0.43451,-7.90168c-0.0184,-0.24674 -0.36685,-0.9432 -0.44792,-1.31655c0.00855,-0.07235 0.02191,-0.14812 0.04181,-0.22519c0.25212,-0.10538 1.40625,-0.38028 1.59323,-0.46206c0.22577,-0.09875 0.4772,-0.22605 0.74449,-0.35698c0.47882,0.35215 0.61353,0.95141 0.61353,0.95141z" data-paper-data="{&quot;index&quot;:null}" fill="#1e1e1e" stroke="none" stroke-width="0.5" stroke-linecap="butt"/><path d="M255.04116,201.09046c0.14028,-0.07123 0.28033,-0.13747 0.41984,-0.19822c2.6283,-1.17318 4.51902,-1.34253 7.41135,-1.60743c1.12533,-0.41945 2.52378,0.4969 3.47066,0.91106c0.04637,0.02029 0.15223,0.05244 0.28906,0.09095c-1.11028,2.09948 -0.59865,5.22288 -0.50838,7.48486l0.22917,0.87113c0.11522,0.40846 -0.08287,0.85056 -0.48159,1.02978c-0.25359,0.11398 -0.53284,0.09664 -0.76144,-0.02301l-0.9164,-0.46974l0.01804,-0.03519c-0.06792,-0.02707 -0.13484,-0.05688 -0.20056,-0.08996c-0.19853,-0.09993 -0.00278,-0.54768 -0.20776,-0.63357c-0.8967,-0.37573 -1.47177,1.60886 -2.44387,1.59208c-0.70689,-0.01219 -1.12801,-0.8582 -1.73754,-1.21643c-0.60618,-0.35627 -0.84589,0.63741 -1.28566,0.69359c-0.79993,0.10218 -1.47499,-0.67425 -2.13544,-1.13695c-0.52373,-0.3669 -1.28433,0.8373 -1.84419,0.52833c-1.42692,-0.78744 -1.02142,-2.61021 -0.80425,-3.75188c0.26929,-1.41561 0.83428,-2.75262 1.48897,-4.03941z" data-paper-data="{&quot;index&quot;:null}" fill="#414141" stroke="none" stroke-width="0.5" stroke-linecap="butt"/><path d="M266.34806,210.6823c0.36481,1.28437 0.62782,2.81858 -0.23576,3.68814c-0.43343,0.43642 -1.38543,0.03434 -1.7727,0.51218c-0.88559,1.09267 0.01005,2.80169 -1.36019,3.89223c-1.62074,1.28991 -6.85228,0.43458 -8.60851,-0.23252c-2.40414,-1.77767 -2.70093,-5.89169 -1.90544,-8.6274c0.28896,-0.99375 1.14459,-2.71004 2.3536,-2.92471c1.75122,-0.31096 1.79159,1.75824 2.66228,1.78458c0.67429,0.02041 1.13333,-1.04154 1.79835,-0.92828c0.59653,0.10159 0.65875,1.42039 1.25416,1.31245c0.79938,-0.14493 1.37978,-0.72212 2.43899,-0.54053c1.511,-1.2368 2.27157,-0.70297 3.13972,0.82972l0.19111,0.20053c0,0 0.42271,0.53644 0.0444,1.03356z" data-paper-data="{&quot;index&quot;:null}" fill="#394354" stroke="none" stroke-width="0.5" stroke-linecap="butt"/><path d="M265.59851,199.83889c0.26729,0.13093 0.51872,0.25823 0.74449,0.35698c0.18698,0.08178 1.34111,0.35668 1.59323,0.46206c0.0199,0.07707 0.03326,0.15284 0.04181,0.22519c-0.08107,0.37336 -0.42952,1.06982 -0.44793,1.31655c-1.06628,2.67441 -0.68594,5.32617 0.43452,7.90168c0.22296,0.5125 0.47555,0.98814 0.72688,1.46652c0.04114,0.23358 0.06716,0.46 0.07294,0.67657c0.07147,2.68096 -1.57679,3.22786 -3.03683,4.92233c-0.71502,0.82984 -0.41604,2.2896 -1.19267,3.06206c-2.37883,2.36606 -8.15441,0.32412 -10.96994,-0.31285c-3.74794,-1.54755 -3.46479,-3.52666 -3.46227,-7.14384c0.00236,-3.38608 3.52668,-12.90971 4.74939,-15.99759c1.02287,-0.92737 0.51485,0.52974 1.6269,0.04557c0.49236,-0.21977 -0.0592,3.66781 0.39282,3.51127c-0.01293,0.02621 -0.02663,0.05206 -0.04106,0.07753l-0.75458,1.36531c-1.61391,3.52604 -2.9244,7.09853 -2.9253,10.99793c-0.00046,1.98354 -0.83856,3.55463 1.29176,4.22464c1.98823,0.4434 4.05273,0.86692 6.04208,1.22577c0.5867,0.10584 1.46775,0.46578 1.78814,-0.03699c0.5611,-0.88048 0.44041,-2.11751 1.08635,-2.93777c0.53693,-0.68184 2.55173,-1.62235 2.3617,-2.83496c-0.24458,-1.56066 -1.03894,-3.14897 -1.30273,-4.75237c-0.40073,-2.43588 0.0359,-4.50851 0.56678,-6.87018c0,0 0.1347,-0.59926 0.61353,-0.95141z" data-paper-data="{&quot;index&quot;:null}" fill="#1e1e1e" stroke="none" stroke-width="0.5" stroke-linecap="butt"/><path d="M295.39378,183.08273c-0.11365,-0.06786 -0.21851,-0.18004 -0.29026,-0.36087c-0.05932,-0.12493 -0.10184,-0.28945 -0.05485,-0.46933c0.03841,-0.18191 0.15002,-0.31005 0.25895,-0.39525c0.13687,-0.12234 0.27276,-0.17683 0.39856,-0.19087c2.05685,-0.71713 3.22965,-1.80105 4.46439,-3.65381c0.20652,-0.3099 1.52173,-2.55226 1.70173,-2.56392c1.40133,-0.09077 1.32629,1.07117 1.95265,1.69961c2.28622,2.29385 0.41699,3.63717 -1.5,5.56066c-1.32731,1.32731 -2.4008,2.71873 -3.9694,3.73035l-0.43044,0.64567c-0.13354,0.20677 -0.36603,0.34365 -0.63049,0.34365c-0.35692,0 -0.65562,-0.24933 -0.73142,-0.58332l-0.2462,-0.98478l0.19035,-0.04758c-0.21555,-0.70566 -0.34752,-1.38938 -0.60073,-2.24002z" fill="#656d63" stroke="none" stroke-width="0.5" stroke-linecap="butt"/><path d="M258.75032,181.57292c-0.2532,0.85064 -0.38518,1.53436 -0.60073,2.24002l0.19035,0.04758l-0.2462,0.98478c-0.0758,0.33399 -0.37449,0.58332 -0.73142,0.58332c-0.26446,0 -0.49695,-0.13688 -0.63049,-0.34365l-0.43044,-0.64567c-1.5686,-1.01162 -2.64209,-2.40304 -3.9694,-3.73035c-1.91699,-1.92349 -3.78622,-3.26681 -1.5,-5.56066c0.62635,-0.62844 0.55132,-1.79038 1.95265,-1.69961c0.18,0.01166 1.4952,2.25402 1.70173,2.56392c1.23474,1.85276 2.40754,2.93668 4.46439,3.65381c0.1258,0.01404 0.2617,0.06852 0.39856,0.19087c0.10893,0.08521 0.22053,0.21335 0.25895,0.39525c0.04699,0.17988 0.00447,0.3444 -0.05485,0.46933c-0.07175,0.18083 -0.1766,0.29301 -0.29026,0.36087z" data-paper-data="{&quot;index&quot;:null}" fill="#656d63" stroke="none" stroke-width="0.5" stroke-linecap="butt"/><path d="M271.05633,148.48119c-0.15195,-0.03222 -0.31091,-0.12499 -0.44746,-0.32982c-0.41603,-0.62404 0.20801,-1.04006 0.20801,-1.04006l0.63748,-0.40565c0.58546,-0.23198 1.19289,-0.41583 1.81,-0.54135c3.34403,-0.54952 7.76824,-2.83864 10.79483,-0.32753c1.15402,0.95747 0.59038,1.71716 0.59038,2.89857c0,2.37899 0.66272,4.77013 0.66667,7.16667c0,6.20797 -0.47318,12.32667 -0.66696,18.52081c-0.09886,3.16019 0.53054,6.41578 0.11395,9.50952c-3.13274,0.40541 -5.98872,-0.23196 -9.07693,-0.44845c-1.1113,-0.0779 -2.71083,0.4504 -3.31626,-0.96961c-0.33107,-0.77652 0.32218,-3.3016 0.26244,-4.25238c-0.18659,-2.96931 -0.81005,-5.88451 -0.81624,-8.85989c0.01405,-7.04919 0.18761,-13.93606 -0.75991,-20.92082z" fill="#f9c926" stroke="none" stroke-width="0.5" stroke-linecap="butt"/><path d="M277.04462,187.05362c0,5.31574 -4.58908,9.625 -10.25,9.625c-5.66092,0 -10.25,-4.30926 -10.25,-9.625c0,-5.31574 4.58908,-9.625 10.25,-9.625c5.66092,0 10.25,4.30926 10.25,9.625z" fill="url(#color-2)" stroke="none" stroke-width="0" stroke-linecap="butt"/><path d="M297.04462,186.55362c0,5.31574 -4.58908,9.625 -10.25,9.625c-5.66092,0 -10.25,-4.30926 -10.25,-9.625c0,-5.31574 4.58908,-9.625 10.25,-9.625c5.66092,0 10.25,4.30926 10.25,9.625z" fill="url(#color-3)" stroke="none" stroke-width="0" stroke-linecap="butt"/><path d="M212.94467,182.56684l-3.26563,11.5c0,0 -3.56017,-3.41648 -5.33783,-3.37477c-1.77442,0.04162 -5.31842,3.62477 -5.31842,3.62477l-2.57813,-11z" fill="#030304" stroke="#000000" stroke-width="0.5" stroke-linecap="round"/><path d="M185.68486,202.23546l10.98854,-4.70812c0,0 -0.41068,4.91716 0.74153,6.27149c1.15012,1.35187 6.16545,1.84711 6.16545,1.84711l-6.91898,8.93165z" fill="#030304" stroke="#000000" stroke-width="0.5" stroke-linecap="round"/><path d="M212.35385,214.32759l-6.91899,-8.93165c0,0 5.01534,-0.49524 6.16546,-1.84711c1.15221,-1.35433 0.74153,-6.27149 0.74153,-6.27149l10.98853,4.70812z" data-paper-data="{&quot;index&quot;:null}" fill="#030304" stroke="#000000" stroke-width="0.5" stroke-linecap="round"/><path d="M210.19466,198.44184c0,2.69239 -2.57437,4.875 -5.75,4.875c-3.17563,0 -5.75,-2.18261 -5.75,-4.875c0,-2.69239 2.57437,-4.875 5.75,-4.875c3.17564,0 5.75,2.18261 5.75,4.875z" fill="#030304" stroke="#000000" stroke-width="0.5" stroke-linecap="butt"/><path d="M231.01007,147.75091c0,13.68969 -12.24613,24.78737 -27.35249,24.78737c-15.10637,0 -27.3525,-11.09769 -27.3525,-24.78737c0,-13.68969 12.24613,-24.78736 27.3525,-24.78736c15.10637,0 27.35249,11.09768 27.35249,24.78736z" fill="url(#color-4)" stroke="none" stroke-width="0" stroke-linecap="butt"/></g></g></svg>