<svg version="1.1" xmlns="http://www.w3.org/2000/svg" xmlns:xlink="http://www.w3.org/1999/xlink" width="112.80303" height="207.06956" viewBox="0,0,112.80303,207.06956"><defs><radialGradient cx="241.92758" cy="214.29559" r="60.98182" gradientUnits="userSpaceOnUse" id="color-1"><stop offset="0" stop-color="#4d4d3f"/><stop offset="1" stop-color="#3a3a2c"/></radialGradient><linearGradient x1="227.24441" y1="259.24711" x2="253.27933" y2="259.24711" gradientUnits="userSpaceOnUse" id="color-2"><stop offset="0" stop-color="#42641f"/><stop offset="1" stop-color="#578322"/></linearGradient><linearGradient x1="239.34907" y1="140.20066" x2="239.34907" y2="190.90997" gradientUnits="userSpaceOnUse" id="color-3"><stop offset="0" stop-color="#963d18"/><stop offset="1" stop-color="#571805"/></linearGradient><linearGradient x1="205.34074" y1="156.63744" x2="224.54254" y2="156.63744" gradientUnits="userSpaceOnUse" id="color-4"><stop offset="0" stop-color="#adff22"/><stop offset="1" stop-color="#d0fe88"/></linearGradient><linearGradient x1="212.17491" y1="160.37599" x2="230.15007" y2="160.37599" gradientUnits="userSpaceOnUse" id="color-5"><stop offset="0" stop-color="#adff22"/><stop offset="1" stop-color="#d0fe88"/></linearGradient><linearGradient x1="269.7532" y1="157.28866" x2="248.44857" y2="157.28866" gradientUnits="userSpaceOnUse" id="color-6"><stop offset="0" stop-color="#adff22"/><stop offset="1" stop-color="#d0fe88"/></linearGradient><linearGradient x1="260.64098" y1="161.62871" x2="244.76864" y2="161.62871" gradientUnits="userSpaceOnUse" id="color-7"><stop offset="0" stop-color="#adff22"/><stop offset="1" stop-color="#d0fe88"/></linearGradient></defs><g transform="translate(-183.59869,-76.64375)"><g data-paper-data="{&quot;isPaintingLayer&quot;:true}" fill-rule="nonzero" stroke-linejoin="miter" stroke-miterlimit="10" stroke-dasharray="" stroke-dashoffset="0" style="mix-blend-mode: normal"><g><path d="M249.68409,155.90084c-0.40437,4.24782 -0.22934,8.49285 -0.08285,12.76943c0.04686,1.36803 -0.19261,3.95509 1.38262,4.68419c2.6974,1.24851 6.24159,1.59951 9.11307,2.40353c2.54664,0.71307 6.77184,2.47015 8.99339,0.51514c0.59494,-2.14758 0.48987,-4.24502 0.48936,-6.46739c-0.00062,-2.6011 0.97504,-7.46832 -0.89002,-9.63255c-3.81716,-4.42945 -13.55109,-3.96008 -19.00554,-4.27235zM248.68264,151.49706l0.81342,0.00217c6.71909,0.48389 17.72484,0.06405 22.55075,5.85943c3.79675,4.55947 2.45954,16.3484 0.65073,21.40039c-5.73748,4.59235 -11.74679,1.78782 -18.16806,-0.01058c-3.21352,-0.90001 -6.43875,-0.91607 -8.34025,-4.21601c-2.65286,-4.60388 -1.58838,-14.14894 -0.79576,-19.90286c-0.10694,-0.258 -0.17148,-0.56947 -0.17148,-0.9455c0,-1.1666 0.6213,-1.71185 1.20211,-1.96673c0.36946,-0.2942 0.89755,-0.48421 1.64858,-0.37692c0.23013,0.03287 0.43234,0.08669 0.60997,0.15661z" fill="#60361a" stroke="none" stroke-width="0.5" stroke-linecap="butt"/><path d="M246.27338,172.78472c0,2.19044 -2.19044,2.19044 -2.19044,2.19044h-0.17523c-0.85044,-0.00055 -1.69893,0.02147 -2.54632,0.05827c-0.39107,0.59803 -1.06668,0.99314 -1.83455,0.99314c-0.67082,0 -1.27119,-0.30155 -1.67299,-0.77647c-1.08339,0.08048 -2.16703,0.16763 -3.25277,0.24519c0,0 -2.18487,0.15608 -2.34093,-2.0288c-0.15607,-2.18488 2.02881,-2.34093 2.02881,-2.34093c3.20977,-0.22926 6.39943,-0.52937 9.61876,-0.53128h0.17523c0,0 2.19044,0 2.19044,2.19044z" fill="#250e05" stroke="none" stroke-width="0.5" stroke-linecap="butt"/><path d="M258.11523,131.27955v-40.5544h5.00673v40.5544z" fill="#14210d" stroke="none" stroke-width="0" stroke-linecap="butt"/><path d="M208.93385,171.10986v-41.80609h62.33362v41.80609z" fill="#4a6039" stroke="#212b19" stroke-width="1.5" stroke-linecap="butt"/><path d="M187.95517,273.98815v-74.29968h104.08966v74.29969z" fill="#4e5a3f" stroke="#757d6b" stroke-width="4" stroke-linecap="butt"/><path d="M185.50188,171.53823l7.00941,-0.35047l87.26708,-9.94317l8.76176,1.05141v9.81316h7.35987l-0.35047,102.3373l-31.89279,0.35047l-5.25705,-7.0094l-5.95799,1.05141l0.35047,9.81316l-6.30847,4.20565l-12.61693,0.35047l-6.65893,-5.60753l-1.75235,-10.53938l-7.71035,2.10282v4.55612h-32.9442l-0.70094,-100.58495z" fill="url(#color-1)" stroke="#14210b" stroke-width="1" stroke-linecap="round"/><path d="M193.83759,253.12171v-91.12225h93.16666v91.12226z" fill="#4b6d27" stroke="#5c8723" stroke-width="1" stroke-linecap="butt"/><path d="M200.37971,248.74084v-65.71317h77.27866v65.71317z" fill="#3c5621" stroke="#2e451a" stroke-width="1" stroke-linecap="butt"/><path d="M199.97081,230.0491v-65.71316h77.68756v65.71317z" fill="#4b6d27" stroke="#5c8723" stroke-width="1" stroke-linecap="butt"/><path d="M219.32678,236.63894v-6.30847h38.20126v6.30847z" fill="#4b6d27" stroke="#5c8723" stroke-width="1" stroke-linecap="butt"/><path d="M268.19633,192.21458c0,13.93627 -12.39596,25.23385 -27.68715,25.23385c-15.29119,0 -27.68715,-11.29758 -27.68715,-25.23385c0,-13.93627 12.39596,-25.23386 27.68715,-25.23386c15.29119,0 27.68715,11.29759 27.68715,25.23386z" fill="#6a9b39" stroke="#2d441a" stroke-width="2.5" stroke-linecap="butt"/><path d="M261.59646,273.62799v-19.62633h33.29467v19.62633z" fill="#363636" stroke="none" stroke-width="0" stroke-linecap="butt"/><path d="M184.84349,272.92703v-18.57493h33.29467v18.57493z" data-paper-data="{&quot;index&quot;:null}" fill="#363636" stroke="none" stroke-width="0" stroke-linecap="butt"/><path d="M229.2471,238.59439l4.00537,-1.50201l6.75908,-1.25169l6.50872,1.25169l5.00671,4.75639l1.25169,26.78593l0.50066,4.25571l-1.50201,4.75639l-6.75907,5.00671l-11.76579,-0.50066l-6.00806,-5.5074l0.50066,-34.79668z" fill="url(#color-2)" stroke="#101f07" stroke-width="0.5" stroke-linecap="round"/><path d="M229.70438,257.28405c-0.09617,0.015 -0.19848,0.02296 -0.3074,0.02296c-1.80461,0 -1.80461,-2.19044 -1.80461,-2.19044l0.01104,-0.00844c-0.24161,-2.63931 -0.9295,-5.61928 0.24613,-8.12795c2.29406,-4.89516 8.13876,-5.81519 12.19759,-5.28039c2.79337,0.91788 9.32241,2.41241 11.06385,5.44417c1.41604,2.46523 0.50708,9.27376 -2.26069,10.13786c-0.64888,0.20259 -4.58845,-3.18407 -5.69434,-3.55566c-4.55605,-1.53089 -7.87056,0.13922 -11.43877,3.39309c0,0 -1.03731,0.94431 -2.01284,0.16479z" fill="#cbc4ba" stroke="none" stroke-width="0.5" stroke-linecap="butt"/><path d="M227.04005,270.90923c-0.97573,-1.40982 0.32557,-2.71113 0.32557,-2.71113l0.65246,-0.59228c3.25696,-2.15868 6.26968,-2.95588 10.07955,-3.70263c1.48948,-0.00496 4.01094,-0.08262 5.51102,0.1779c7.05384,1.22496 11.17567,7.25547 5.89799,13.33658c-4.21723,4.85922 -13.05385,5.24364 -18.07638,1.4147c-2.48824,-1.89694 -3.17607,-4.25573 -4.24159,-7.02463c0,0 -0.15072,-0.39189 -0.14861,-0.8985z" fill="#050505" stroke="none" stroke-width="0.5" stroke-linecap="butt"/><path d="M252.09734,267.99891c2.03826,0.168 1.88148,2.35199 1.88148,2.35199l-0.1632,2.21275c-1.53785,10.40071 -15.52196,13.4532 -23.29293,8.42022c-3.08835,-2.0002 -4.07711,-6.68071 -4.11722,-10.16376c0,0 0,-2.19044 2.0443,-2.19044c2.0443,0 2.04429,2.19044 2.04429,2.19044c-0.16817,10.40874 18.19432,10.74438 19.2741,1.12398l0.13414,-1.92918c0,0 0.15679,-2.18399 2.19505,-2.01599z" fill="#12200a" stroke="none" stroke-width="0.5" stroke-linecap="butt"/><path d="M227.90662,269.63608c-1.7671,-1.31427 -0.44179,-3.06661 -0.44179,-3.06661l1.71986,-2.2373c7.6828,-5.61563 16.14007,-4.71327 23.21212,1.40242c0,0 1.66235,1.44242 0.2078,3.09089c-1.45455,1.64847 -3.11693,0.20606 -3.11693,0.20606c-5.01451,-4.36739 -11.50856,-5.95873 -17.17912,-1.60162l-1.30948,1.76807c0,0 -1.32534,1.75235 -3.09244,0.43809z" fill="#c7bdb8" stroke="none" stroke-width="0.5" stroke-linecap="butt"/><path d="M214.40472,223.39707c0,-1.20976 0.98068,-2.19044 2.19043,-2.19044c1.20976,0 2.19044,0.98069 2.19044,2.19044c0,1.20976 -0.98069,2.19044 -2.19044,2.19044c-1.20976,0 -2.19043,-0.98068 -2.19043,-2.19044z" fill="#2f471e" stroke="none" stroke-width="0.5" stroke-linecap="butt"/><path d="M262.01309,222.95898c0,-1.20976 0.9807,-2.19043 2.19044,-2.19043c1.20973,0 2.19044,0.98068 2.19044,2.19043c0,1.20976 -0.98071,2.19044 -2.19044,2.19044c-1.20973,0 -2.19044,-0.98068 -2.19044,-2.19044z" fill="#2f471e" stroke="none" stroke-width="0.5" stroke-linecap="butt"/><path d="M229.94175,142.03478c-0.32841,0.2814 -0.64145,0.41184 -0.64145,0.41184c-8.33648,3.46748 -17.32092,5.55259 -22.43935,13.98937c-2.20517,3.63483 -1.58534,9.74651 -2.14868,13.8509c0.35271,4.95497 -0.61525,10.70573 3.07976,14.54176c1.63204,1.69432 4.1856,2.78208 6.03017,4.16448c-0.00412,-0.13954 -0.00291,-0.26802 0.00351,-0.37879c0.2012,-3.47614 -0.35567,-4.5231 4.00251,-5.50052c3.75249,-0.84158 10.71813,0.68156 14.66003,0.68156c5.92701,0.00347 11.58064,-0.75919 17.46991,-1.38989c2.18723,-0.23423 5.32783,-1.33182 7.49466,-1.06189c4.13159,0.5147 4.30041,1.00338 4.90807,5.02092c0.00084,0.00556 0.03437,2.95311 -0.35026,4.4813c1.08696,-0.90999 2.94677,-2.23037 3.04662,-2.31654c1.7077,-1.47369 3.41292,-2.90811 5.18039,-4.31189c4.91075,-5.31353 3.82185,-15.90183 3.17837,-22.55129c-0.19631,-2.02866 -0.20636,-5.04819 -1.1627,-6.90813c-2.4827,-4.82843 -11.3689,-8.47511 -16.12215,-10.15993c-8.83138,-2.94533 -16.49872,-1.82402 -25.56328,-2.5151zM226.40305,138.89856c0.50696,-1.49081 2.22277,-1.35882 2.22277,-1.35882l2.27805,0.17524c9.43387,0.73264 17.4334,-0.33085 26.65676,2.74195c5.96938,2.1459 15.44944,6.30073 18.5744,12.27019c1.25053,2.38882 1.3858,5.87486 1.64106,8.51255c0.81966,8.46957 1.43999,19.41767 -4.53197,26.16407c-2.94346,2.36932 -10.4918,10.94825 -14.85442,7.59671c-2.98052,-2.28978 1.27468,-7.29455 -0.30105,-9.40557c-0.16763,-0.22458 -4.78788,0.78196 -4.96187,0.80678c-6.87198,0.97978 -13.71045,1.77077 -20.63858,1.77459c-3.11633,0 -6.25198,0.11942 -9.36554,-0.0014c-0.8912,-0.03459 -1.78692,-0.05909 -2.6686,-0.19358c-0.86384,-0.13178 -2.42373,-1.35411 -2.57466,-0.49341c-0.36196,2.06434 1.92992,6.04272 -1.05893,7.64177c-0.75225,0.40246 -4.88971,-1.69817 -6.02441,-2.29586c-9.63984,-5.0777 -9.85547,-13.03701 -10.46231,-22.69138c0.5617,-4.32673 0.43187,-9.10346 1.65748,-13.31202c3.09048,-10.61229 15.33876,-14.2865 24.41181,-17.93181z" fill="#963d18" stroke="none" stroke-width="0.5" stroke-linecap="butt"/><path d="M230.53816,140.24987c9.06456,0.7158 16.81502,-0.43224 25.6464,2.61852c4.75325,1.74511 13.66866,5.56391 16.15135,10.56515c0.95637,1.92652 0.97059,5.0719 1.1669,7.17318c0.64348,6.88746 1.72154,17.91262 -3.18921,23.41633c-1.76747,1.45401 -3.48216,2.95366 -5.18988,4.4801c-0.09985,0.08925 -1.96651,1.46424 -3.05347,2.40681c0.38462,-1.58286 0.22525,-4.76184 0.2244,-4.76761c-0.60766,-4.16136 -0.6426,-4.55042 -4.77419,-5.08353c-2.16683,-0.27961 -5.32659,0.87516 -7.51382,1.11779c-5.88926,0.65329 -11.6236,1.45203 -17.55061,1.44844c-3.94189,0 -10.94458,-1.60649 -14.69707,-0.73478c-4.35818,1.01244 -3.66591,1.98175 -3.86711,5.58233c-0.00642,0.11473 -0.13943,0.3674 -0.1353,0.51195c-1.84457,-1.43188 -4.40818,-2.57298 -6.04021,-4.32794c-3.69501,-3.97334 -2.73842,-9.96562 -3.09113,-15.09793c0.56334,-4.25129 -0.05315,-10.61845 2.15202,-14.3834c5.11843,-8.73878 14.15276,-10.95553 22.48922,-14.54713c0,0 0.31537,-0.13607 0.64378,-0.42756z" data-paper-data="{&quot;noHover&quot;:false,&quot;origItem&quot;:[&quot;Path&quot;,{&quot;applyMatrix&quot;:true,&quot;segments&quot;:[[[217.92027,486.23867],[0,0],[-0.37482,0.32116]],[[217.18817,486.7087],[0,0],[-9.51461,3.95751]],[[191.57761,502.67511],[5.84178,-9.62911],[-2.51682,4.14852]],[[189.12527,518.48347],[0.64297,-4.68443],[0.40256,5.65522]],[[192.64026,535.08032],[-4.2172,-4.37814],[1.86268,1.93376]],[[199.52264,539.83333],[-2.10525,-1.57775],[-0.00471,-0.15927]],[[199.52664,539.40101],[-0.00732,0.12642],[0.22965,-3.9674]],[[204.0948,533.12313],[-4.97411,1.11557],[4.2828,-0.96053]],[[220.82664,533.90101],[-4.49899,0],[6.76464,0.00396]],[[240.76546,532.31469],[-6.72156,0.71983],[2.49634,-0.26734]],[[249.3193,531.10273],[-2.47306,-0.30808],[4.71548,0.58744]],[[254.921,536.83323],[-0.69354,-4.58532],[0.00096,0.00635]],[[254.52124,541.94784],[0.43898,-1.74415],[1.24058,-1.03861]],[[257.99843,539.30392],[-0.11396,0.09835],[1.94904,-1.68197]],[[263.91094,534.38266],[-2.01726,1.60216],[5.60477,-6.06446]],[[267.53851,508.64434],[0.73441,7.58917],[-0.22406,-2.31536]],[[266.21148,500.75992],[1.09151,2.1228],[-2.83356,-5.5108]],[[247.81088,489.16417],[5.425,1.9229],[-10.07946,-3.36159]],[[218.63489,486.29364],[10.3456,0.78873],[0,0]]],&quot;closed&quot;:true}]}" fill="url(#color-3)" stroke="none" stroke-width="0.5" stroke-linecap="butt"/><path d="M208.70383,168.93598c4.79887,-0.37642 9.775,-0.92082 14.46282,-1.75393c1.14038,-0.20267 4.47811,-0.5265 5.30147,-1.62475c1.694,-2.25957 -0.2314,-9.79101 -0.6016,-12.38118c-0.20748,-1.45173 0.13838,-3.83682 -1.30649,-4.48468c-4.96188,0.63184 -14.36756,1.49388 -17.73106,5.843c-1.71738,2.22062 -0.7117,7.40734 -0.61241,9.98859c0.0753,1.95789 -0.177,3.00546 0.48728,4.41293zM204.76057,170.69818c-0.84002,-1.93518 -0.825,-3.49404 -0.92166,-6.00702c-0.14962,-3.88996 -0.99907,-9.42558 1.49041,-12.79197c4.28253,-5.79103 15.66002,-7.189 22.22254,-7.47486c1.12986,0.69579 2.58415,1.03287 3.38957,2.08738c0.60014,0.78577 1.08597,4.81267 1.26193,6.04487c0.59017,4.13298 2.47629,12.02042 -0.25111,15.65646c-1.17716,1.56933 -3.63138,2.25219 -5.39561,2.71944c-5.62954,1.49093 -12.02952,1.98055 -17.9244,2.40514c-0.42819,0.16828 -0.86367,0.15095 -1.20254,0.08655c-0.12353,0.00892 -0.24677,0.01782 -0.36973,0.02674c0,0 -2.18486,0.15608 -2.34093,-2.0288c-0.0194,-0.27142 -0.00265,-0.51153 0.04153,-0.72393z" fill="#60361a" stroke="none" stroke-width="0.5" stroke-linecap="butt"/><path d="M248.95395,148.59939c-0.40437,4.24782 -0.22934,8.49285 -0.08285,12.76943c0.04686,1.36803 -0.1926,3.95509 1.38262,4.68419c2.6974,1.24851 6.24159,1.59951 9.11307,2.40353c2.54664,0.71307 6.77184,2.47015 8.99338,0.51514c0.59494,-2.14758 0.48987,-4.24502 0.48936,-6.46738c-0.00062,-2.6011 0.97504,-7.46833 -0.89002,-9.63256c-3.81716,-4.42945 -13.55109,-3.96008 -19.00555,-4.27235zM247.9525,144.1956l0.81342,0.00218c6.71909,0.48389 17.72484,0.06405 22.55075,5.85943c3.79675,4.55947 2.45954,16.3484 0.65073,21.4004c-5.73748,4.59235 -11.74679,1.78782 -18.16806,-0.01059c-3.21352,-0.90001 -6.43875,-0.91607 -8.34025,-4.21601c-2.65286,-4.60388 -1.58838,-14.14894 -0.79576,-19.90286c-0.10694,-0.258 -0.17148,-0.56947 -0.17148,-0.9455c0,-1.1666 0.6213,-1.71185 1.20211,-1.96673c0.36946,-0.2942 0.89755,-0.4842 1.64857,-0.37691c0.23013,0.03287 0.43234,0.08668 0.60997,0.1566z" fill="#60361a" stroke="none" stroke-width="0.5" stroke-linecap="butt"/><path d="M234.67017,163.68584c2.14789,0.42959 1.71832,2.57748 1.71832,2.57748l-0.60631,2.42648c-5.42342,9.09829 -18.84182,7.9209 -28.17731,7.9209c0,0 -2.19044,0 -2.19044,-2.19044c0,-2.19044 2.19044,-2.19044 2.19044,-2.19044c7.20206,0 20.27662,1.51701 24.39322,-5.74743l0.09463,-1.07824c0,0 0.42959,-2.14789 2.5775,-1.71832z" fill="#431907" stroke="none" stroke-width="0.5" stroke-linecap="butt"/><path d="M268.61975,170.72543c0.31521,-0.42172 0.84128,-0.77366 1.71927,-0.77366c2.19044,0 2.19044,2.19043 2.19044,2.19043l-1.14154,2.09821c-8.56666,4.62206 -27.59495,2.70216 -30.17692,-8.29819c0,0 -0.45898,-2.14181 1.68285,-2.60077c2.14183,-0.45896 2.60079,1.68285 2.60079,1.68285c1.40403,7.6339 16.9327,8.44116 23.12511,5.70112z" fill="#431907" stroke="none" stroke-width="0.5" stroke-linecap="butt"/><path d="M235.16647,163.99391c-0.25026,0.58767 -0.79436,1.22653 -1.9773,1.22653c-2.19044,0 -2.19044,-2.19044 -2.19044,-2.19044l0.00645,-0.70818c-0.20941,-2.8297 -2.37316,-8.79468 -0.06582,-11.17956c0.59543,-0.61543 4.83709,-0.94651 6.02092,-0.99041c6.57228,-0.24372 9.12914,1.34659 9.10364,8.17373c-0.00543,1.45324 0.5876,3.13167 -0.19635,4.35533c-1.85209,2.89096 -7.90281,1.32962 -10.7011,1.31301z" fill="#5d3619" stroke="none" stroke-width="0.5" stroke-linecap="butt"/><path d="M245.54325,165.48327c0,2.19044 -2.19044,2.19044 -2.19044,2.19044h-0.17523c-0.85044,-0.00055 -1.69893,0.02147 -2.54633,0.05827c-0.39107,0.59803 -1.06668,0.99314 -1.83455,0.99314c-0.67082,0 -1.27119,-0.30155 -1.67298,-0.77647c-1.08339,0.08048 -2.16703,0.16763 -3.25277,0.24519c0,0 -2.18487,0.15608 -2.34094,-2.0288c-0.15607,-2.18488 2.02881,-2.34094 2.02881,-2.34094c3.20977,-0.22926 6.39943,-0.52936 9.61876,-0.53127h0.17523c0,0 2.19044,0 2.19044,2.19044z" fill="#250e05" stroke="none" stroke-width="0.5" stroke-linecap="butt"/><path d="M206.61704,154.17803c-0.14855,-1.60778 1.51734,-2.16307 1.51734,-2.16307l1.42732,-0.46961c6.15442,-2.55987 12.04246,-4.96549 18.52663,-2.66741c1.42508,4.09557 4.92714,12.10109 1.71094,16.23876c-2.78217,3.5793 -11.77496,3.74267 -15.84274,4.12275c-2.08293,0.19461 -4.60765,0.58693 -6.34577,-1.17402c-2.68962,-2.72496 -1.62888,-10.08962 -1.12391,-13.42934c0,0 0.02993,-0.19458 0.13018,-0.45808z" fill="#3a9f00" stroke="none" stroke-width="0.5" stroke-linecap="butt"/><path d="M206.0046,164.70794c-1.7121,-2.14011 0.42803,-3.85221 0.42803,-3.85221l0.66826,-0.449c3.81533,-4.76917 8.16368,-8.45831 12.92557,-12.26781c0,0 2.14011,-1.7121 3.85221,0.42803c1.7121,2.14011 -0.42803,3.85222 -0.42803,3.85222c-4.44672,3.55736 -8.51157,6.96431 -12.06953,11.41177l-1.5243,1.30504c0,0 -2.14011,1.7121 -3.85221,-0.42803z" fill="url(#color-4)" stroke="none" stroke-width="0.5" stroke-linecap="butt"/><path d="M212.79635,167.93094c-1.60273,-2.00341 0.40068,-3.60613 0.40068,-3.60613l0.62557,-0.42032c3.57159,-4.4645 7.64216,-7.91797 12.09986,-11.48412c0,0 2.00341,-1.60274 3.60613,0.40067c1.60273,2.00341 -0.4007,3.60613 -0.4007,3.60613c-4.16266,3.33012 -7.96783,6.51943 -11.29849,10.68276l-1.42694,1.22167c0,0 -2.0034,1.60273 -3.60613,-0.40068z" fill="url(#color-5)" stroke="none" stroke-width="0.5" stroke-linecap="butt"/><path d="M269.20831,153.93517c0.505,3.33972 1.56571,10.70439 -1.12391,13.42934c-1.73812,1.76095 -4.26284,1.36863 -6.34577,1.17402c-4.06778,-0.38008 -13.06059,-0.54345 -15.84275,-4.12275c-3.21619,-4.13767 0.28587,-12.1432 1.71095,-16.23876c6.48417,-2.29807 12.37221,0.10753 18.52662,2.66741l1.42731,0.46961c0,0 1.66587,0.55529 1.51734,2.16307c0.10025,0.2635 0.13018,0.45808 0.13018,0.45808z" data-paper-data="{&quot;index&quot;:null}" fill="#3a9f00" stroke="none" stroke-width="0.5" stroke-linecap="butt"/><path d="M264.74257,166.71787l-1.69125,-1.44797c-3.94759,-4.93448 -8.4576,-8.71453 -13.39128,-12.66147c0,0 -2.3745,-1.8996 -0.4749,-4.27409c1.8996,-2.37449 4.27409,-0.47489 4.27409,-0.47489c5.28338,4.22671 10.10793,8.31985 14.34107,13.61128l0.74144,0.49816c0,0 2.37448,1.8996 0.47489,4.27408c-1.8996,2.37449 -4.27407,0.47489 -4.27407,0.47489z" data-paper-data="{&quot;index&quot;:null}" fill="url(#color-6)" stroke="none" stroke-width="0.5" stroke-linecap="butt"/><path d="M256.90796,168.65364l-1.26001,-1.07877c-2.94102,-3.67629 -6.30107,-6.49248 -9.97675,-9.43303c0,0 -1.76905,-1.41523 -0.35381,-3.18426c1.41523,-1.76904 3.18426,-0.3538 3.18426,-0.3538c3.93622,3.14898 7.53059,6.19843 10.68437,10.14064l0.55237,0.37114c0,0 1.76904,1.41523 0.3538,3.18427c-1.41523,1.76904 -3.18427,0.3538 -3.18427,0.3538z" data-paper-data="{&quot;index&quot;:null}" fill="url(#color-7)" stroke="none" stroke-width="0.5" stroke-linecap="butt"/><path d="M214.01389,194.35837l-0.03363,-0.10086l-0.02701,-0.35108l-0.0854,-0.34161v-1.25086l-0.03363,-0.10086l-0.02701,-0.35108l-0.08539,-0.34161v-2.77455l0.05292,-0.21165l-0.01038,-0.21792l0.14603,-0.73015l0.10349,-0.21849v-0.37414l0.08539,-0.34161l0.02701,-0.35108l0.10289,-0.30871l0.11928,-0.59643l0.05925,-0.12508l0.01062,-0.13801l0.14602,-0.43809l0.15708,-0.24683l0.0984,-0.27552l0.12934,-0.19403l0.05327,-0.15979l0.08464,-0.13301l0.01014,-0.04563l-0.00042,-0.00156l0.00123,-0.00205l0.02325,-0.10466l0.14603,-0.29206l0.22915,-0.26734l0.18116,-0.30193l0.1054,-0.10541l0.01246,-0.01452l0.04656,-0.13036l0.29207,-0.43809l0.16142,-0.14676l0.11226,-0.18708l1.46028,-1.46029l0.30193,-0.18116l0.26734,-0.22915l0.17008,-0.08505l0.32462,-0.21641l0.27552,-0.09839l0.24684,-0.15708l0.72849,-0.24282l0.15283,-0.07642l0.1539,-0.03421l0.133,-0.08464l0.43809,-0.14602l0.35108,-0.02701l0.3416,-0.08539h0.52071l0.10086,-0.03363l0.35109,-0.027l0.3416,-0.0854h0.31446l0.32252,-0.08062h0.05341l0.04827,-0.02287l0.44251,-0.08849l0.02969,-0.01484l0.49132,-0.10919l0.48828,-0.12207h0.06104l0.06142,-0.01365l0.02047,0.01365h6.27273l0.8681,-0.12401l0.15682,0.01623l0.15295,-0.03824h0.28008l0.10782,-0.02396l0.48827,-0.12207h0.06104l0.06142,-0.01365l0.02047,0.01365h0.29517l0.09825,0.02457l0.10005,-0.01556l1.50737,0.13703h0.92284l0.09825,0.02457l0.10006,-0.01556l1.50737,0.13703h0.998l0.51747,-0.10349l0.21792,0.01037l0.21165,-0.05292h2.48251l0.09825,0.02457l0.10006,-0.01556l1.50737,0.13703h3.84343l0.09825,0.02457l0.10006,-0.01556l1.50738,0.13704h4.42754l0.21165,0.05292l0.21792,-0.01037l0.51747,0.1035h0.2212l0.37998,0.09499l0.38915,0.04447l1.16824,0.43809l0.03333,0.023l0.04004,0.00605l1.75235,0.73015l0.12977,0.09658l0.15473,0.04708l0.73015,0.43809l0.01448,0.01448l0.01948,0.00633l1.16824,0.73015l0.02295,0.02381l0.03115,0.01112l0.43809,0.29207l0.14676,0.16142l0.18708,0.11226l0.29207,0.29206l0.18115,0.30193l0.22916,0.26734l0.14602,0.29207l0.02326,0.10467l0.00123,0.00205l-0.00042,0.00156l0.01014,0.04563l0.08464,0.133l0.12568,0.37702l0.23431,0.5858l0.25131,0.50262l0.0342,0.15391l0.08464,0.13301l0.14603,0.43809l0.027,0.35108l0.0854,0.34161v0.31446l0.01172,0.04688l0.00654,0.00373l0.01526,0.06104l0.0273,0.05459l0.10918,0.49133l0.12207,0.48828v0.06103l0.01365,0.06142l-0.01365,0.02046v0.25991l0.11623,0.69735l-0.0146,0.18249l0.04441,0.17762v1.16824l-0.05292,0.21165l0.01038,0.21792l-0.14603,0.73015l-0.02286,0.04828v0.05342l-0.29207,1.16824l-0.15244,0.28583l-0.09431,0.30988l-0.39481,0.65801l-0.25444,0.50888l-0.09007,0.10509l-0.04656,0.13036l-0.50848,0.76272l-0.37711,0.75419l-0.0559,0.06521l-0.02501,0.08217l-0.43809,0.73015l-0.19067,0.19067l-0.13873,0.23122l-0.14546,0.14546l-0.05554,0.16658l-0.15708,0.24683l-0.0984,0.27553l-0.58411,0.87618l-0.31822,0.28929l-0.2893,0.31822l-0.57288,0.38193l-0.07109,0.07821l-0.36877,0.43023l-0.03352,0.00186l-0.67164,0.44776l-0.72281,0.72281l-0.30193,0.18115l-0.17679,0.15153l-1.23921,1.23922l-0.00061,0.00436l-0.01351,0.00976l-0.16631,0.16632l-0.378,0.22681l-0.35736,0.2581l-0.21839,0.08735l-0.0143,0.00857l-0.00424,-0.00115l-0.19183,0.07673l-0.47668,0.38134l-0.08811,0.0404l-0.0652,0.07172l-0.359,0.23934l-0.65592,0.52474l-0.08811,0.04039l-0.0652,0.07173l-0.43809,0.29207l-0.13036,0.04656l-0.10509,0.09007l-0.29207,0.14602l-0.15391,0.03421l-0.133,0.08464l-0.72849,0.24282l-1.029,0.51451l-0.09074,0.02017l-0.07535,0.05442l-1.3757,0.55027l-0.21057,0.10528l-0.15391,0.03421l-0.133,0.08464l-0.43809,0.14602l-0.08563,0.00659l-0.07579,0.04041l-1.16824,0.29206h-0.05341l-0.04828,0.02287l-1.46028,0.29207l-0.21793,-0.01038l-0.21165,0.05292h-2.62853l-0.14301,-0.03574l-0.14648,0.01654l-2.04632,-0.27284h-0.87682l-0.07744,-0.01937l-0.07863,0.01379l-1.96647,-0.14047h-1.38217l-0.21165,-0.05292l-0.21792,0.01037l-0.51747,-0.10349h-0.51324l-0.34161,-0.08539l-0.35108,-0.02701l-0.35829,-0.11942l-0.5025,-0.12562l-0.21286,-0.11352l-0.23548,-0.05232l-2.25498,-1.12748l-0.64555,-0.25822l-0.03436,-0.02482l-0.04176,-0.00731l-1.31427,-0.58411l-0.12293,-0.09602l-0.14839,-0.04812l-1.07997,-0.67499l-3.03806,-1.51902l-0.40864,-0.16344l-0.00424,0.00115l-0.0143,-0.00857l-0.2184,-0.08736l-0.35735,-0.2581l-0.378,-0.22681l-0.16631,-0.16631l-0.01351,-0.00976l-0.00061,-0.00436l-0.00154,-0.00154l-0.30158,-0.22617l-0.1154,-0.0577l-0.26734,-0.22916l-0.30193,-0.18116l-0.25143,-0.25143l-0.17679,-0.15153l-0.30193,-0.18116l-0.43075,-0.43075l-0.21424,-0.14283l-0.68545,-0.41128l-0.08131,-0.08131l-0.10599,-0.04461l-0.58411,-0.43809l-0.09941,-0.12237l-0.1352,-0.08111l-0.18198,-0.18198l-0.45959,-0.34468l-0.09941,-0.12237l-0.1352,-0.08111l-0.39745,-0.39745l-0.17679,-0.15153l-0.30193,-0.18116l-0.29207,-0.29207l-0.4128,-0.688l-0.10099,-0.0577l-0.0474,-0.18961l-0.01964,-0.03274l0.00597,-0.02192l-0.21273,-0.85098z" fill="#863007" stroke="none" stroke-width="0.5" stroke-linecap="butt"/><path d="M257.18432,199.57353c-2.18592,0.93765 -4.28819,2.04248 -6.48369,2.97899c-5.08927,2.88861 -12.1241,6.03211 -18.49465,4.11048c-1.8995,-0.57299 -1.50718,-2.48226 -3.07178,-3.0113c-2.15723,-0.72942 -3.11254,-0.49812 -4.32999,-1.17759l-0.22486,0.39352l-1.2045,-0.68829c-0.40779,-0.22311 -0.68437,-0.65615 -0.68437,-1.15377c0,-0.72586 0.58843,-1.31426 1.31427,-1.31426h1.40188v0.06466l0.16058,-0.05483c1.45936,0.36484 2.81413,0.35301 4.27752,0.7118c3.41006,0.4274 5.20015,-4.62655 2.23502,-6.34764c-3.74637,-2.17454 -9.79888,-3.36504 -14.00128,-4.40166c0,0 -0.35576,-0.08894 -0.64444,-0.36078c-0.5263,-0.37546 -0.5263,-1.08949 -0.5263,-1.08949l0.30461,-2.06802c3.13545,-3.30504 10.28061,-0.32055 14.45958,0.05946c4.67163,0.52509 10.6657,0.61173 15.273,-0.16796c2.9342,-0.49654 7.22248,-2.35469 10.11731,-2.11528c6.23029,0.51523 0.71332,5.48025 -1.74086,6.56853c-3.19718,1.06853 -7.17458,1.40046 -10.07006,3.18751c-1.11809,0.69007 -1.86871,3.6158 -0.5301,4.48921c2.34614,1.53078 6.88991,0.07705 10.59111,-0.66006c0.22695,-0.10115 0.45458,-0.20089 0.68306,-0.29881l0.19532,-0.11161l-0.0862,-0.34481l1.37328,-0.34332c0.11065,-0.03024 0.2271,-0.0464 0.34735,-0.0464c0.72584,0 1.31427,0.5884 1.31427,1.31426c0,0.49761 -0.27656,0.93064 -0.68435,1.15377l-1.2045,0.68829l-0.01618,-0.02832z" fill="#de9227" stroke="none" stroke-width="0.5" stroke-linecap="butt"/><path d="M259.73209,185.85018c0.75229,0.06032 1.06565,0.84374 1.06565,0.84374l0.44447,1.36428c-0.01521,8.88435 -3.76508,13.03355 -12.44765,14.10388c-5.85923,0 -7.53927,-5.86875 -3.67349,-10.09139c3.34813,-3.65719 9.19189,-3.85219 13.27864,-6.205c0,0 0.71185,-0.40677 1.33236,-0.0155z" fill="#ffffff" stroke="none" stroke-width="0.5" stroke-linecap="butt"/><path d="M244.62195,197.89998c-0.01237,-0.08298 -0.01239,-0.13683 -0.01239,-0.13683v-0.54373c0.01996,-3.16587 3.72033,-6.44413 5.62496,-2.30906c1.78197,3.86877 -2.48639,7.83613 -5.43504,3.85317c0,0 -0.29466,-0.41252 -0.17751,-0.86356z" fill="#223f00" stroke="none" stroke-width="0.5" stroke-linecap="butt"/><path d="M244.61418,198.08524c-0.00888,-0.05954 -0.0089,-0.0982 -0.0089,-0.0982v-0.39032c0.01432,-2.2725 2.67049,-4.62568 4.03768,-1.65746c1.27913,2.77707 -1.78479,5.62489 -3.90136,2.76586c0,0 -0.2115,-0.29611 -0.12742,-0.61987z" fill="#6db100" stroke="none" stroke-width="0.5" stroke-linecap="butt"/><path d="M244.41578,186.86579c-0.05707,-0.8065 0.74945,-1.20976 0.74945,-1.20976l0.77098,-0.38294c2.17864,-0.92933 4.73804,-3.61288 7.01456,-3.91742c3.57606,-0.47837 4.26393,3.69788 2.89131,6.28355c-0.81572,1.5366 -6.96455,5.69789 -8.76051,5.21422c-2.29549,-0.6182 -2.38679,-3.23653 -2.78678,-5.03585c0,0 -0.11224,-0.50505 0.121,-0.95181z" fill="#49280e" stroke="none" stroke-width="0.5" stroke-linecap="butt"/><path d="M219.4201,187.26757c4.08675,2.35283 9.93051,2.54782 13.27864,6.20501c3.86579,4.22262 2.18574,10.09139 -3.67347,10.09139c-8.68257,-1.07033 -12.43244,-5.21954 -12.44765,-14.10389l0.44447,-1.36427c0,0 0.31338,-0.78343 1.06566,-0.84374c0.62051,-0.39127 1.33236,0.01551 1.33236,0.01551z" data-paper-data="{&quot;index&quot;:null}" fill="#ffffff" stroke="none" stroke-width="0.5" stroke-linecap="butt"/><path d="M233.27749,199.28924c-2.94864,3.98296 -7.21702,0.01561 -5.43506,-3.85318c1.90463,-4.13508 5.605,-0.85683 5.62496,2.30904v0.54373c0,0 0,0.05385 -0.01237,0.13683c0.11714,0.45104 -0.17751,0.86355 -0.17751,0.86355z" data-paper-data="{&quot;index&quot;:null}" fill="#223f00" stroke="none" stroke-width="0.5" stroke-linecap="butt"/><path d="M233.72781,199.23082c-2.11658,2.85903 -5.1805,0.0112 -3.90136,-2.76586c1.36719,-2.96822 4.02336,-0.61504 4.03768,1.65746v0.39032c0,0 -0.00001,0.03865 -0.0089,0.0982c0.08408,0.32376 -0.12742,0.61988 -0.12742,0.61988z" data-paper-data="{&quot;index&quot;:null}" fill="#6db100" stroke="none" stroke-width="0.5" stroke-linecap="butt"/><path d="M235.26954,187.46713c-0.39999,1.79933 -0.49129,4.41764 -2.78678,5.03585c-1.79595,0.48367 -7.94477,-3.67763 -8.76051,-5.21422c-1.37261,-2.58567 -0.68477,-6.76194 2.89131,-6.28355c2.27651,0.30454 4.83589,2.98809 7.01456,3.91742l0.77098,0.38296c0,0 0.8065,0.40325 0.74945,1.20975c0.23324,0.44676 0.121,0.95181 0.121,0.95181z" data-paper-data="{&quot;index&quot;:null}" fill="#49280e" stroke="none" stroke-width="0.5" stroke-linecap="butt"/><path d="M253.5466,83.21507c0,-3.62924 2.94207,-6.57132 6.57131,-6.57132c3.62924,0 6.57131,2.94208 6.57131,6.57132c0,3.62924 -2.94207,6.57131 -6.57131,6.57131c-3.62924,0 -6.57131,-2.94207 -6.57131,-6.57131z" fill="#fe0000" stroke="none" stroke-width="0.5" stroke-linecap="butt"/><path d="M242.84972,196.49575c0.39184,0.19593 0.19593,0.58776 0.19593,0.58776l-0.42854,0.57016c-1.2021,0.36648 -2.20137,1.49314 -3.5047,1.92759c0,0 -0.41563,0.13852 -0.55415,-0.27708c-0.13852,-0.4156 0.27707,-0.55414 0.27707,-0.55414c1.33606,-0.44535 2.25475,-1.48592 3.50471,-1.92759l-0.07807,-0.13078c0,0 0.19591,-0.39184 0.58775,-0.19593z" fill="#974300" stroke="none" stroke-width="0.5" stroke-linecap="butt"/><path d="M237.60907,203.62051c0,0.43809 -0.43809,0.43809 -0.43809,0.43809l-0.489,-0.02248c-0.40763,-0.13875 -0.79627,-0.33996 -1.15588,-0.57679c0,0 -0.36451,-0.24302 -0.12149,-0.60752c0.24302,-0.3645 0.60751,-0.12151 0.60751,-0.12151c0.29243,0.19782 0.61111,0.36558 0.94695,0.47461l0.21193,-0.02249c0,0 0.43809,0 0.43809,0.43809z" fill="#974300" stroke="none" stroke-width="0.5" stroke-linecap="butt"/></g></g></g></svg>