<svg version="1.1" xmlns="http://www.w3.org/2000/svg" xmlns:xlink="http://www.w3.org/1999/xlink" width="468.83816" height="395.79355" viewBox="0,0,468.83816,395.79355"><defs><linearGradient x1="237.5" y1="60.77954" x2="237.5" y2="336.1371" gradientUnits="userSpaceOnUse" id="color-1"><stop offset="0" stop-color="#6798d3"/><stop offset="1" stop-color="#5686ce"/></linearGradient><linearGradient x1="237.5" y1="60.77954" x2="237.5" y2="336.1371" gradientUnits="userSpaceOnUse" id="color-2"><stop offset="0" stop-color="#6798d3"/><stop offset="1" stop-color="#5686ce"/></linearGradient><linearGradient x1="114.45183" y1="310.93367" x2="114.45183" y2="403.50477" gradientUnits="userSpaceOnUse" id="color-3"><stop offset="0" stop-color="#76de30"/><stop offset="1" stop-color="#3bd214"/></linearGradient><linearGradient x1="114.58117" y1="307.98371" x2="114.58117" y2="406.84146" gradientUnits="userSpaceOnUse" id="color-4"><stop offset="0" stop-color="#00ddff"/><stop offset="1" stop-color="#00c1ff"/></linearGradient><linearGradient x1="235.00307" y1="309.71452" x2="235.00307" y2="402.28563" gradientUnits="userSpaceOnUse" id="color-5"><stop offset="0" stop-color="#76de30"/><stop offset="1" stop-color="#3bd214"/></linearGradient><linearGradient x1="235.13241" y1="306.76455" x2="235.13241" y2="405.62232" gradientUnits="userSpaceOnUse" id="color-6"><stop offset="0" stop-color="#00ddff"/><stop offset="1" stop-color="#00c1ff"/></linearGradient><linearGradient x1="228.7171" y1="32.91756" x2="228.7171" y2="105.93374" gradientUnits="userSpaceOnUse" id="color-7"><stop offset="0" stop-color="#ff4700"/><stop offset="1" stop-color="#ff0000"/></linearGradient><linearGradient x1="354.00307" y1="308.71452" x2="354.00307" y2="401.28562" gradientUnits="userSpaceOnUse" id="color-8"><stop offset="0" stop-color="#76de30"/><stop offset="1" stop-color="#3bd214"/></linearGradient><linearGradient x1="354.13241" y1="305.76455" x2="354.13241" y2="404.62231" gradientUnits="userSpaceOnUse" id="color-9"><stop offset="0" stop-color="#ffdd00"/><stop offset="1" stop-color="#ffc200"/></linearGradient></defs><g transform="translate(-3.08092,-32.91756)"><g data-paper-data="{&quot;isPaintingLayer&quot;:true}" fill-rule="nonzero" stroke-linejoin="miter" stroke-miterlimit="10" stroke-dasharray="" stroke-dashoffset="0" style="mix-blend-mode: normal"><path d="M3.33092,336.1371v-275.35756h468.33816v275.35756z" data-paper-data="{&quot;index&quot;:null}" fill="url(#color-1)" stroke="#3a567d" stroke-width="0.5" stroke-linecap="butt"/><path d="M3.33092,336.1371v-275.35756h468.33816v275.35756z" data-paper-data="{&quot;index&quot;:null}" fill="url(#color-2)" stroke="#3a567d" stroke-width="0.5" stroke-linecap="butt"/><path d="M68.56435,325.80562c0,-7.16474 10.72821,-14.87201 14.00725,-14.87201c9.87664,0 47.69419,0.28692 65.34597,0.28692c3.82441,0 12.42161,8.76983 12.42161,16.99812c0,10.05142 0,41.94736 0,59.24121c0,10.10629 -4.991,14.61037 -8.75308,14.61037c-9.913,0 -50.539,1.43454 -69.75282,1.43454c-5.34563,0 -13.26901,-8.45636 -13.26901,-19.17335c0,-10.71693 0,-48.79133 0,-58.52582z" fill="url(#color-3)" stroke="#085001" stroke-width="0" stroke-linecap="butt"/><path d="M94.83741,312.29269c0,0 -4.96767,-0.17534 -10.41621,1.01166c-3.74392,0.81566 -7.71488,2.10771 -10.45716,5.21243c-2.85899,3.2369 -2.88329,7.8272 -3.4175,12.42551c-0.73382,6.31688 -1.30817,12.36577 -1.30817,12.36577c0,0 -0.72684,-6.39868 -0.38126,-13.51985c0.21678,-4.46659 -0.10324,-9.02383 3.42523,-13.06694c3.24754,-3.72108 7.71602,-4.81111 11.27982,-5.49752c6.20933,-1.19596 11.27532,1.06891 11.27532,1.06891z" fill="#bcff84" stroke="#dbffff" stroke-width="0" stroke-linecap="butt"/><path d="M64.51216,319.68062c0,-9.54893 3.29658,-11.8904 6.92186,-11.8904c10.91955,0 66.68709,0 86.20271,0c4.2282,0 6.75482,4.90465 6.75482,15.87109c0,13.39619 0,47.11128 0,70.15998c0,13.46934 -3.93202,12.82172 -8.0913,12.82172c-10.95974,0 -60.9506,0 -82.19322,0c-5.91002,0 -9.59484,-0.0313 -9.59484,-14.31453c0,-14.28316 -0.00003,-59.67416 -0.00003,-72.64792z" fill="none" stroke="#056300" stroke-width="2.5" stroke-linecap="butt"/><path d="M64.64148,319.87406c0,-9.54893 3.29658,-11.8904 6.92186,-11.8904c10.91955,0 66.68709,0 86.20271,0c4.2282,0 6.75482,4.90465 6.75482,15.87109c0,13.39619 0,47.11128 0,70.15998c0,13.46934 -3.93202,12.82172 -8.0913,12.82172c-10.95974,0 -60.9506,0 -82.19322,0c-5.91002,0 -9.59484,-0.0313 -9.59484,-14.31453c0,-14.28316 -0.00003,-59.67416 -0.00003,-72.64792z" fill="url(#color-4)" stroke="#0087d7" stroke-width="1.5" stroke-linecap="butt"/><path d="M81.52073,311.00681c-2.25985,0.07583 -7.05181,0.92221 -9.86315,4.10516c-2.931,3.31843 -3.33707,9.73943 -3.88473,14.45364c-0.75231,6.47604 -1.34115,12.67738 -1.34115,12.67738c0,0 -0.74515,-6.55993 -0.39085,-13.86053c0.22224,-4.57915 -1.29684,-13.06231 2.32057,-17.20728c3.32937,-3.81485 7.77396,-2.37954 12.99319,-2.30133c5.45567,0.08175 11.08304,0.61944 11.08304,0.61944c0,0 -8.16488,1.42119 -10.91693,1.51355z" fill="#ffffff" stroke="#dbffff" stroke-width="0" stroke-linecap="butt"/><path d="M62.82399,322.55223c0,-3.77815 1.49629,-8.91721 4.76961,-11.9813c3.60046,-3.37026 9.0892,-4.48707 11.02605,-4.48707c11.13771,0 53.78367,0.31769 73.68921,0.31769c2.59799,0 7.77255,2.91161 10.98085,7.70564c2.11766,3.1643 3.02672,7.49429 3.02672,11.11706c0,11.1303 0,46.45006 0,65.6002c0,5.10853 0.07441,8.92444 -1.60403,11.5633c-1.99842,3.142 -5.96085,4.61538 -8.26662,4.61538c-11.17866,0 -56.99167,1.5885 -78.65875,1.5885c-3.01904,0 -9.26159,-1.73639 -12.25126,-5.57208c-2.97983,-3.82301 -2.7118,-9.73547 -2.7118,-15.65928c0,-11.86731 -0.00006,-54.02864 -0.00006,-64.80805z" fill="none" stroke="#ffffff" stroke-width="1.5" stroke-linecap="butt"/><g stroke-width="0.5"><path d="M87.71768,393.35056l0.85955,-40.82865l50.49859,-2.14888l1.07444,42.97753z" fill="#ffffff" stroke="#00c0de" stroke-linecap="butt"/><path d="M113.26817,317.25314l36.24121,45.35938l-68.33011,-0.86731z" fill="#ffffff" stroke="#00c0de" stroke-linecap="round"/><path d="M136.26129,360.38342c1.78019,0 3.22331,1.44313 3.22331,3.22331c0,1.78019 -1.44313,3.22331 -3.22331,3.22331c-0.42996,0 -0.84026,-0.08418 -1.21531,-0.23697c-2.00628,0.73454 -4.93758,0.26073 -6.30576,0.23697c-7.90125,-0.1372 -15.922,0.23134 -24.03445,0c-0.93185,-0.02657 -10.18418,0.25994 -10.62932,-1.96576c-0.04523,-0.05188 -0.08882,-0.10522 -0.1307,-0.15994c-0.5723,0.51968 -1.33227,0.83638 -2.16621,0.83638c-1.78019,0 -3.22331,-1.44313 -3.22331,-3.22331c0,-1.78019 1.44313,-3.22331 3.22331,-3.22331c1.04411,0 1.97227,0.49644 2.56132,1.26616c0.32684,-0.2968 0.7149,-0.52738 1.14299,-0.67058c0.11957,-0.05792 0.24777,-0.1014 0.38616,-0.1278c4.90289,-0.93537 13.15817,1.63673 18.58334,1.25133c4.13246,-0.29357 8.66603,-2.00637 12.73932,-0.92465c1.8325,0.48665 5.57966,-0.19301 7.91004,0.70936c0.35955,-0.13854 0.75019,-0.21448 1.15858,-0.21448z" fill="#ffffff" stroke="none" stroke-linecap="butt"/><path d="M106.63712,384.44051v-17.4059h14.61236v17.4059z" fill="#00cfff" stroke="#00c0de" stroke-linecap="butt"/></g><path d="M102.36858,428.08751l-6.02035,0.28886l-0.04586,-5.56183h-2.76945l-0.16965,5.27296h-5.39218l0.45852,-16.92394l5.73149,0.26594l-0.36223,8.64308h2.67317l0.02293,-9.29417l5.48847,0.14673zM118.38579,419.59116c0,0.73057 -0.08406,1.43516 -0.25218,2.11377c-0.16813,0.67555 -0.41114,1.31137 -0.72904,1.90744c-0.31485,0.59301 -0.70001,1.13713 -1.15547,1.63233c-0.4524,0.49214 -0.96137,0.91551 -1.52687,1.2701c-0.56551,0.35154 -1.18145,0.62511 -1.84783,0.82074c-0.66638,0.19563 -1.3725,0.29345 -2.11835,0.29345c-0.72141,0 -1.40918,-0.0917 -2.06334,-0.27511c-0.65416,-0.18646 -1.26704,-0.44476 -1.83866,-0.7749c-0.56856,-0.33319 -1.08363,-0.73516 -1.5452,-1.2059c-0.46157,-0.47075 -0.85437,-0.99193 -1.17839,-1.56355c-0.32402,-0.57468 -0.5762,-1.19062 -0.75656,-1.84783c-0.18035,-0.65721 -0.27053,-1.34346 -0.27053,-2.05876c0,-0.69695 0.08406,-1.38014 0.25218,-2.04958c0.16813,-0.67249 0.40961,-1.30525 0.72446,-1.89827c0.3179,-0.59301 0.70153,-1.13865 1.15088,-1.63691c0.44935,-0.49825 0.95219,-0.92774 1.50853,-1.28844c0.55939,-0.3607 1.16311,-0.6404 1.81115,-0.83909c0.65109,-0.20175 1.33887,-0.30262 2.06334,-0.30262c1.16159,0 2.22229,0.18034 3.18212,0.54105c0.95983,0.3607 1.77752,0.87577 2.45307,1.54521c0.67861,0.66944 1.20437,1.47949 1.5773,2.43015c0.37293,0.95066 0.55939,2.0129 0.55939,3.18671zM113.04404,419.90295c0,-0.34542 -0.05043,-0.68014 -0.15131,-1.00416c-0.10088,-0.32707 -0.2476,-0.61594 -0.44018,-0.8666c-0.19258,-0.25371 -0.43101,-0.45852 -0.71529,-0.61442c-0.28428,-0.1559 -0.61136,-0.23384 -0.98123,-0.23384c-0.37598,0 -0.71223,0.06878 -1.00874,0.20633c-0.29651,0.1345 -0.55175,0.32097 -0.76573,0.55939c-0.21398,0.23537 -0.37752,0.51202 -0.49062,0.82992c-0.11004,0.31485 -0.16507,0.64956 -0.16507,1.00415c0,0.33625 0.04739,0.67249 0.14214,1.00874c0.09782,0.33625 0.24301,0.64193 0.43559,0.91703c0.19258,0.27206 0.43101,0.49215 0.71529,0.66027c0.28428,0.16812 0.61594,0.25218 0.99498,0.25218c0.37599,0 0.71377,-0.07336 1.01333,-0.22009c0.30262,-0.14978 0.55786,-0.35 0.76572,-0.60066c0.20786,-0.25371 0.36835,-0.54564 0.48145,-0.87577c0.1131,-0.33013 0.16965,-0.67096 0.16965,-1.0225zM137.8373,410.54l-1.10503,17.66673l-5.48847,0.24302l0.04586,-9.31711l-2.48059,7.51054h-2.11835l-1.89827,-6.71731l-0.02751,7.7994l-5.55725,0.16966l0.23843,-16.63507l6.18542,-0.23843l2.45767,7.96447l3.27382,-8.44592zM150.11587,410.73257c-0.0489,0.75198 -0.09323,1.49783 -0.13297,2.23757c-0.03974,0.73669 -0.0917,1.48255 -0.1559,2.23757l-5.10332,0.26594l-0.11921,1.5177h3.58561l-0.26594,3.72776l-3.60854,0.12379l-0.1238,1.75613h2.98495h2.11836c-0.04585,0.88342 -0.09629,1.76071 -0.15132,2.6319c-0.05196,0.86813 -0.09781,1.73931 -0.13755,2.61356l-10.3717,0.24302l0.38515,-17.35494z" fill="#ffffff" stroke="#000000" stroke-width="0.5" stroke-linecap="square"/><path d="M189.11559,324.5865c0,-7.16474 10.72821,-14.87201 14.00725,-14.87201c9.87664,0 47.69419,0.28692 65.34597,0.28692c3.82441,0 12.42161,8.76983 12.42161,16.99812c0,10.05142 0,41.94736 0,59.24121c0,10.10629 -4.991,14.61037 -8.75308,14.61037c-9.913,0 -50.539,1.43454 -69.75282,1.43454c-5.34563,0 -13.26901,-8.45636 -13.26901,-19.17335c0,-10.71693 0,-48.79133 0,-58.52582z" fill="url(#color-5)" stroke="#085001" stroke-width="0" stroke-linecap="butt"/><path d="M215.38865,311.07357c0,0 -4.96767,-0.17534 -10.41621,1.01166c-3.74392,0.81566 -7.71488,2.10771 -10.45716,5.21243c-2.85899,3.2369 -2.88329,7.8272 -3.4175,12.42551c-0.73382,6.31688 -1.30817,12.36577 -1.30817,12.36577c0,0 -0.72684,-6.39868 -0.38126,-13.51985c0.21678,-4.46659 -0.10324,-9.02383 3.42523,-13.06694c3.24754,-3.72108 7.71602,-4.81111 11.27982,-5.49752c6.20933,-1.19596 11.27532,1.06891 11.27532,1.06891z" fill="#bcff84" stroke="#dbffff" stroke-width="0" stroke-linecap="butt"/><path d="M185.0634,318.46146c0,-9.54893 3.29658,-11.8904 6.92186,-11.8904c10.91955,0 66.68709,0 86.20271,0c4.2282,0 6.75482,4.90465 6.75482,15.87109c0,13.39619 0,47.11128 0,70.15998c0,13.46934 -3.93202,12.82172 -8.0913,12.82172c-10.95974,0 -60.9506,0 -82.19322,0c-5.91002,0 -9.59484,-0.0313 -9.59484,-14.31453c0,-14.28316 -0.00003,-59.67416 -0.00003,-72.64792z" fill="none" stroke="#056300" stroke-width="2.5" stroke-linecap="butt"/><path d="M185.19272,318.65494c0,-9.54893 3.29658,-11.8904 6.92186,-11.8904c10.91955,0 66.68709,0 86.20271,0c4.2282,0 6.75482,4.90465 6.75482,15.87109c0,13.39619 0,47.11128 0,70.15998c0,13.46934 -3.93202,12.82172 -8.0913,12.82172c-10.95974,0 -60.9506,0 -82.19322,0c-5.91002,0 -9.59484,-0.0313 -9.59484,-14.31453c0,-14.28316 -0.00003,-59.67416 -0.00003,-72.64792z" fill="url(#color-6)" stroke="#0087d7" stroke-width="1.5" stroke-linecap="butt"/><path d="M202.07197,309.78768c-2.25985,0.07583 -7.05181,0.92221 -9.86315,4.10516c-2.931,3.31843 -3.33707,9.73943 -3.88473,14.45364c-0.75231,6.47604 -1.34115,12.67738 -1.34115,12.67738c0,0 -0.74515,-6.55993 -0.39085,-13.86053c0.22224,-4.57915 -1.29684,-13.06231 2.32057,-17.20728c3.32937,-3.81485 7.77396,-2.37954 12.99319,-2.30133c5.45567,0.08175 11.08304,0.61944 11.08304,0.61944c0,0 -8.16488,1.42119 -10.91693,1.51355z" fill="#ffffff" stroke="#dbffff" stroke-width="0" stroke-linecap="butt"/><path d="M183.37523,321.33307c0,-3.77815 1.49629,-8.91721 4.76961,-11.9813c3.60046,-3.37026 9.0892,-4.48707 11.02605,-4.48707c11.13771,0 53.78367,0.31769 73.68921,0.31769c2.59799,0 7.77255,2.91161 10.98085,7.70564c2.11766,3.1643 3.02672,7.49429 3.02672,11.11706c0,11.1303 0,46.45006 0,65.6002c0,5.10853 0.07441,8.92444 -1.60403,11.5633c-1.99842,3.142 -5.96085,4.61538 -8.26662,4.61538c-11.17866,0 -56.99167,1.5885 -78.65875,1.5885c-3.01904,0 -9.26159,-1.73639 -12.25126,-5.57208c-2.97983,-3.82301 -2.7118,-9.73547 -2.7118,-15.65928c0,-11.86731 -0.00006,-54.02864 -0.00006,-64.80805z" fill="none" stroke="#ffffff" stroke-width="1.5" stroke-linecap="butt"/><g stroke-width="0.5" stroke-linecap="butt"><path d="M261.6772,370.83875c7.97501,12.74695 9.46672,26.1919 3.33183,30.03014c-6.13489,3.83824 -17.57323,-3.38369 -25.54825,-16.13064c-7.97501,-12.74695 -9.46672,-26.1919 -3.33183,-30.03014c6.13489,-3.83824 17.57323,3.38369 25.54825,16.13064z" fill="#ffffff" stroke="#00bede"/><path d="M263.21584,345.75812c0,17.76998 -14.73133,32.1754 -32.90335,32.1754c-18.17202,0 -32.90335,-14.40542 -32.90335,-32.1754c0,-17.76998 14.73133,-32.1754 32.90335,-32.1754c18.17202,0 32.90335,14.40542 32.90335,32.1754z" fill="#ffffff" stroke="#00bede"/><path d="M252.90154,346.17703c0,11.71273 -10.14586,21.20778 -22.66142,21.20778c-12.51556,0 -22.66142,-9.49505 -22.66142,-21.20778c0,-11.71273 10.14586,-21.20778 22.66142,-21.20778c12.51556,0 22.66142,9.49505 22.66142,21.20778z" fill="#00daff" stroke="#00bede"/><path d="M240.10116,373.88762c2.34628,-1.79235 6.48388,-2.65662 8.41817,-4.58116c0.6971,-0.69358 2.70857,-3.1732 3.63147,-3.44947c0.3561,-0.1066 0.67098,-0.18464 0.95203,-0.2298c0.15222,-1.05737 1.06195,-1.86992 2.16145,-1.86992c1.20611,0 2.18385,0.97774 2.18385,2.18385c0,1.08728 -0.79458,1.98898 -1.83475,2.1561c-0.15062,0.91826 -1.36948,1.79415 -1.81802,2.30357c-2.19773,2.49599 -5.82116,4.73285 -8.84611,6.12407c-0.70309,0.32336 -3.63227,2.14862 -4.39408,1.64075l-0.91893,-0.98446c-0.21362,0.98203 -1.0879,1.71749 -2.13394,1.71749c-1.20611,0 -2.18385,-0.97774 -2.18385,-2.18385c0,-1.20611 0.97774,-2.18385 2.18385,-2.18385c0.55455,0 1.06083,0.2067 1.44599,0.54726c0.29319,-0.44364 0.68785,-0.83533 1.15288,-1.19058z" fill="#ffffff" stroke="none"/></g><path d="M186.63841,416.05665c0,0.56023 -0.04782,1.06855 -0.14347,1.52494c-0.09565,0.45639 -0.24869,0.87452 -0.45912,1.25439c-0.2077,0.37987 -0.47689,0.73104 -0.80756,1.05352c-0.32794,0.32247 -0.72556,0.63129 -1.19289,0.92644l2.56206,4.56251l-4.84126,0.94693l-1.66021,-4.5871l-1.33227,0.0451l-0.19267,4.47643h-4.6281c0.03553,-1.63698 0.06969,-3.26577 0.10249,-4.88635c0.03279,-1.62059 0.06969,-3.24937 0.11068,-4.88636c0.01639,-0.82259 0.03143,-1.63972 0.0451,-2.45137c0.01367,-0.81167 0.04236,-1.63015 0.08608,-2.45547c0.50285,-0.18583 0.9975,-0.33887 1.48395,-0.45912c0.48918,-0.12297 0.97836,-0.21863 1.46755,-0.28696c0.49192,-0.06832 0.99066,-0.11478 1.49624,-0.13938c0.50557,-0.02459 1.02482,-0.03689 1.55773,-0.03689c0.81713,0 1.60693,0.11341 2.36939,0.34024c0.76521,0.22409 1.44158,0.56297 2.02915,1.01662c0.5903,0.45092 1.06172,1.01389 1.41425,1.68891c0.35527,0.67228 0.5329,1.45661 0.5329,2.353zM181.81765,416.40098c0,-0.30061 -0.041,-0.57664 -0.12297,-0.82805c-0.08199,-0.25142 -0.2036,-0.46732 -0.36483,-0.64769c-0.16124,-0.1831 -0.3621,-0.32657 -0.60259,-0.43042c-0.24049,-0.10658 -0.52197,-0.15987 -0.84446,-0.15987c-0.14484,0 -0.28558,0.00957 -0.42223,0.0287c-0.13391,0.01913 -0.26645,0.04646 -0.39763,0.08199l-0.17217,4.0009h0.25826c0.30882,0 0.62308,-0.03964 0.94283,-0.11889c0.31975,-0.07925 0.6067,-0.20086 0.86086,-0.36483c0.25415,-0.16397 0.46185,-0.3744 0.62309,-0.63129c0.16124,-0.25963 0.24185,-0.5698 0.24185,-0.93054zM197.57378,410.91614c-0.04372,0.67228 -0.08335,1.3391 -0.11888,2.00045c-0.03553,0.65861 -0.08199,1.32544 -0.13938,2.00046l-4.56251,0.23776l-0.10658,1.35686h3.20565l-0.23776,3.33272l-3.22615,0.11068l-0.11068,1.57003h2.66864h1.89387c-0.041,0.7898 -0.08608,1.57413 -0.13527,2.35299c-0.04646,0.77614 -0.08746,1.555 -0.12297,2.33659l-9.27259,0.21726l0.34434,-15.51582zM211.09785,411.34657l-3.93532,14.97881l-5.33728,0.29925l-4.84536,-15.13048l5.10362,-0.47142l2.06604,8.82167l2.00046,-8.82167zM217.25243,411.28098l-1.18059,14.65496l-4.54201,0.23776v-14.59348zM228.1878,410.91614c-0.04372,0.67228 -0.08335,1.3391 -0.11888,2.00045c-0.03553,0.65861 -0.08199,1.32544 -0.13938,2.00046l-4.56251,0.23776l-0.10658,1.35686h3.20565l-0.23776,3.33272l-3.22615,0.11068l-0.11067,1.57003h2.66864h1.89387c-0.041,0.7898 -0.08608,1.57413 -0.13527,2.35299c-0.04646,0.77614 -0.08746,1.555 -0.12297,2.33659l-9.27259,0.21726l0.34434,-15.51582zM247.96328,411.49414l-2.51696,14.91731l-6.11204,0.12707l-1.31177,-7.72716l-1.31177,7.16966l-6.11204,0.21316l-2.54156,-14.70006l5.33728,-0.47141l1.07812,8.93235l1.43885,-8.93234h4.19768l1.68071,9.03894l0.86086,-9.03894zM269.49634,410.74397l-0.98793,15.79458l-4.90685,0.21726l0.041,-8.32975l-2.21772,6.71464h-1.89387l-1.69711,-6.00546l-0.02459,6.9729l-4.96834,0.15168l0.21316,-14.87223l5.52994,-0.21316l2.19721,7.12047l2.92689,-7.55089zM283.66861,425.50551l-5.33728,0.68868l-0.64359,-2.43088h-2.45547l-0.53701,2.43088l-5.48895,-0.537l4.28377,-14.33522l5.98086,-0.29925zM277.29832,420.47159l-0.81576,-3.74675l-0.79936,3.74675zM296.43073,416.08125c0,0.69414 -0.10385,1.31041 -0.31155,1.84878c-0.2077,0.53837 -0.49328,1.00843 -0.85675,1.41016c-0.36074,0.40173 -0.78569,0.74333 -1.27488,1.02482c-0.48645,0.27875 -1.00842,0.50558 -1.56592,0.68049c-0.55477,0.17491 -1.13004,0.30471 -1.7258,0.38943c-0.59576,0.08199 -1.1806,0.12571 -1.7545,0.13118v5.01753h-5.01344c0,-1.64245 0.00273,-3.27807 0.0082,-4.90685c0.0082,-1.62878 0.01913,-3.27259 0.0328,-4.93144c0.01639,-0.87451 0.02049,-1.74904 0.0123,-2.62355c-0.0082,-0.87451 0.00957,-1.75723 0.05329,-2.64814c0.91824,-0.27328 1.83648,-0.47688 2.75473,-0.61079c0.91824,-0.13664 1.86517,-0.20496 2.8408,-0.20496c0.55204,0 1.10408,0.0451 1.65611,0.13527c0.55204,0.08745 1.08085,0.2282 1.58643,0.42223c0.50831,0.19403 0.97836,0.43725 1.41016,0.72967c0.43453,0.28969 0.80892,0.63539 1.1232,1.03713c0.31702,0.40173 0.56706,0.85948 0.75016,1.37327c0.1831,0.51105 0.27466,1.08631 0.27466,1.7258zM291.65506,416.44608c0,-0.46731 -0.14211,-0.83079 -0.42633,-1.09041c-0.28422,-0.26235 -0.65179,-0.39353 -1.10271,-0.39353c-0.15031,0 -0.30608,0.0123 -0.46731,0.03689c-0.16124,0.02459 -0.31428,0.05466 -0.45912,0.09019l-0.12708,3.14415c0.09838,0.01367 0.19403,0.0205 0.28696,0.0205c0.09565,0 0.19268,0 0.29105,0c0.25963,0 0.50967,-0.04235 0.75016,-0.12707c0.24049,-0.08745 0.45365,-0.2118 0.63949,-0.37304c0.18583,-0.16124 0.33478,-0.35117 0.44683,-0.5698c0.11205,-0.21863 0.16807,-0.46459 0.16807,-0.73787z" fill="#fdfdfd" stroke="#000000" stroke-width="0.5" stroke-linecap="square"/><text transform="translate(56.2211,181.18053) scale(0.61731,0.61731)" font-size="40" xml:space="preserve" fill="#ffffff" fill-rule="nonzero" stroke="none" stroke-width="1" stroke-linecap="butt" stroke-linejoin="miter" stroke-miterlimit="10" stroke-dasharray="" stroke-dashoffset="0" font-family="&quot;ヒラギノ角ゴ Pro W3&quot;, &quot;Hiragino Kaku Gothic Pro&quot;, Osaka, &quot;メイリオ&quot;, Meiryo, &quot;ＭＳ Ｐゴシック&quot;, &quot;MS PGothic&quot;" font-weight="normal" text-anchor="start" style="mix-blend-mode: normal"><tspan x="0" dy="0">The bloons have defeated you!</tspan></text><g stroke="none" stroke-width="0" stroke-linecap="square"><path d="M123.87904,72.36435c0,4.95927 -0.63208,9.43882 -1.89623,13.43868c-1.25085,3.98634 -3.00736,7.53349 -5.26954,10.64149c-2.24887,3.09447 -4.9302,5.76329 -8.04401,8.00646c-3.1005,2.22965 -6.50042,4.06742 -10.19973,5.5133c-3.69931,1.43238 -7.63817,2.49315 -11.81653,3.18232c-4.17836,0.68916 -8.46319,1.03375 -12.85447,1.03375c-1.65006,0 -3.26018,-0.04054 -4.83041,-0.12162c-1.57021,-0.0946 -3.17369,-0.22971 -4.81046,-0.40539l1.45711,-71.4094c3.8457,-1.24319 7.79785,-2.12154 11.85646,-2.63504c4.07191,-0.51349 8.11721,-0.77024 12.1359,-0.77024c5.00341,0 9.60094,0.76348 13.79261,2.29045c4.19168,1.52696 7.80451,3.72959 10.83849,6.60785c3.03398,2.86475 5.39595,6.37138 7.08592,10.51987c1.70328,4.14849 2.55492,8.85101 2.55492,14.10756zM102.4017,75.76963c0.02661,-1.91885 -0.17964,-3.76337 -0.61877,-5.53356c-0.42582,-1.78372 -1.13774,-3.35798 -2.13576,-4.72279c-0.99802,-1.36481 -2.26882,-2.45936 -3.81242,-3.28365c-1.5303,-0.8378 -3.35999,-1.29049 -5.4891,-1.35804l-2.09583,32.97846c2.10248,-0.31079 4.00539,-1.00672 5.70866,-2.08775c1.71659,-1.09455 3.19366,-2.42558 4.4312,-3.99308c1.23755,-1.58102 2.19563,-3.33772 2.87429,-5.27007c0.69197,-1.93235 1.0712,-3.93227 1.13775,-5.99977zM176.64673,37.88596c-0.21291,3.3242 -0.40587,6.62137 -0.57884,9.89151c-0.17299,3.25663 -0.3992,6.55379 -0.67866,9.89151l-22.21587,1.17563l-0.51897,6.7092h15.60901l-1.1577,16.4791l-15.7088,0.54728l-0.53892,7.76322h12.99419h9.22169c-0.1996,3.90526 -0.41917,7.78348 -0.65868,11.63468c-0.22622,3.83769 -0.42582,7.68889 -0.59881,11.5536l-45.15032,1.07429l1.67667,-76.72zM228.04715,37.88596c-0.21291,3.3242 -0.40587,6.62137 -0.57884,9.89151c-0.17299,3.25663 -0.3992,6.55379 -0.67866,9.89151l-22.21587,1.17563v6.7092h19.2817l-1.0579,16.4791l-18.32361,0.54728l0.09981,31.49878l-26.50736,0.52701l1.67667,-76.72zM280.3383,37.88596c-0.21291,3.3242 -0.40587,6.62137 -0.57884,9.89151c-0.17299,3.25663 -0.3992,6.55379 -0.67866,9.89151l-22.21587,1.17563l-0.51897,6.7092h15.60901l-1.1577,16.4791l-15.7088,0.54728l-0.53892,7.76322h12.99419h9.22169c-0.1996,3.90526 -0.41917,7.78348 -0.65868,11.63468c-0.22622,3.83769 -0.42582,7.68889 -0.59881,11.5536l-45.15033,1.07429l1.67667,-76.72zM348.18606,110.02505l-25.98839,3.40528l-3.13377,-12.0198h-11.95625l-2.6148,12.01981l-26.72691,-2.6553l20.85858,-70.88239l29.12217,-1.47967zM317.16767,85.13413l-3.9721,-18.52631l-3.89226,18.52631zM398.49614,38.51431l-0.53892,22.55995l-15.60901,0.64862l-3.9721,50.43048l-22.11608,1.17563l0.09981,-50.45075l-15.60901,0.85132l0.61878,-25.11388z" fill="#510b00"/><path d="M124.87285,65.7314c0,4.71985 -0.61088,8.98314 -1.83263,12.78989c-1.2089,3.79389 -2.9065,7.16979 -5.0928,10.12774c-2.17345,2.94509 -4.76485,5.48505 -7.77424,7.61992c-2.99652,2.122 -6.28241,3.87105 -9.85766,5.24713c-3.57525,1.36323 -7.382,2.37279 -11.42023,3.02868c-4.03823,0.65589 -8.17935,0.98384 -12.42336,0.98384c-1.59472,0 -3.15085,-0.03858 -4.6684,-0.11575c-1.51756,-0.09003 -3.06725,-0.21863 -4.64912,-0.38582l1.40824,-67.96192c3.71672,-1.18317 7.53633,-2.01912 11.45881,-2.50782c3.93535,-0.4887 7.84498,-0.73306 11.72888,-0.73306c4.8356,0 9.27894,0.72662 13.33003,2.17988c4.05109,1.45325 7.54276,3.54953 10.47498,6.28884c2.93222,2.72645 5.21498,6.06378 6.84827,10.012c1.64615,3.94821 2.46924,8.42371 2.46924,13.42648zM104.11582,68.97231c0.02572,-1.82621 -0.17361,-3.58168 -0.59801,-5.26642c-0.41154,-1.6976 -1.09958,-3.19586 -2.06412,-4.49478c-0.96455,-1.29892 -2.19273,-2.34063 -3.68456,-3.12513c-1.47897,-0.79735 -3.24731,-1.22819 -5.30501,-1.29249l-2.02554,31.38634c2.03197,-0.29579 3.87105,-0.95811 5.5172,-1.98696c1.65902,-1.04171 3.08655,-2.30848 4.28259,-3.80031c1.19604,-1.50469 2.122,-3.17658 2.77789,-5.01564c0.66876,-1.83906 1.03528,-3.74244 1.09959,-5.71011zM175.87081,32.91756c-0.20577,3.16371 -0.39225,6.30171 -0.55943,9.41397c-0.16719,3.09941 -0.38582,6.23739 -0.65589,9.41397l-21.47079,1.11887l-0.50156,6.3853h15.0855l-1.11887,15.68353l-15.18195,0.52086l-0.52085,7.38843h12.5584h8.91241c-0.19291,3.71672 -0.4051,7.40771 -0.63659,11.07299c-0.21863,3.65241 -0.41154,7.31769 -0.57873,10.99583l-43.63606,1.02243l1.62044,-73.01614zM225.54737,32.91756c-0.20577,3.16371 -0.39225,6.30171 -0.55943,9.41397c-0.16719,3.09941 -0.38582,6.23739 -0.65589,9.41397l-21.47079,1.11887v6.3853h18.63503l-1.02241,15.68353l-17.70907,0.52086l0.09646,29.9781l-25.61835,0.50156l1.62044,-73.01614zM276.08476,32.91756c-0.20577,3.16371 -0.39225,6.30171 -0.55943,9.41397c-0.16719,3.09941 -0.38582,6.23739 -0.65589,9.41397l-21.47079,1.11887l-0.50156,6.3853h15.0855l-1.11887,15.68353l-15.18195,0.52086l-0.52085,7.38843h12.5584h8.91241c-0.19291,3.71672 -0.4051,7.40771 -0.63659,11.07299c-0.21863,3.65241 -0.41154,7.31769 -0.57873,10.99583l-43.63607,1.02243l1.62044,-73.01614zM341.65702,101.57395l-25.11678,3.24088l-3.02867,-11.43951h-11.55526l-2.5271,11.43952l-25.83054,-2.5271l20.15902,-67.46036l28.14546,-1.40823zM311.67892,77.88469l-3.83889,-17.6319l-3.76172,17.6319zM390.27979,33.51557l-0.52085,21.4708l-15.0855,0.61731l-3.83889,47.99582l-21.37434,1.11887l0.09646,-48.0151l-15.0855,0.81022l0.59802,-23.90145z" fill="url(#color-7)"/></g><path d="M308.11559,323.58649c0,-7.16474 10.72821,-14.87201 14.00725,-14.87201c9.87664,0 47.69419,0.28692 65.34597,0.28692c3.82441,0 12.42161,8.76983 12.42161,16.99812c0,10.05142 0,41.94736 0,59.24121c0,10.10629 -4.991,14.61037 -8.75308,14.61037c-9.913,0 -50.539,1.43454 -69.75282,1.43454c-5.34563,0 -13.26901,-8.45636 -13.26901,-19.17335c0,-10.71693 0,-48.79133 0,-58.52582z" fill="url(#color-8)" stroke="#085001" stroke-width="0" stroke-linecap="butt"/><path d="M334.38865,310.07356c0,0 -4.96767,-0.17534 -10.41621,1.01166c-3.74392,0.81566 -7.71488,2.10771 -10.45716,5.21243c-2.85899,3.2369 -2.88329,7.8272 -3.4175,12.42551c-0.73382,6.31688 -1.30817,12.36577 -1.30817,12.36577c0,0 -0.72684,-6.39868 -0.38126,-13.51985c0.21678,-4.46659 -0.10324,-9.02383 3.42523,-13.06694c3.24754,-3.72108 7.71602,-4.81111 11.27982,-5.49752c6.20933,-1.19596 11.27532,1.06891 11.27532,1.06891z" fill="#bcff84" stroke="#dbffff" stroke-width="0" stroke-linecap="butt"/><path d="M304.0634,317.46146c0,-9.54893 3.29658,-11.8904 6.92186,-11.8904c10.91955,0 66.68709,0 86.20271,0c4.2282,0 6.75482,4.90465 6.75482,15.87109c0,13.39619 0,47.11128 0,70.15998c0,13.46934 -3.93202,12.82172 -8.0913,12.82172c-10.95974,0 -60.9506,0 -82.19322,0c-5.91002,0 -9.59484,-0.0313 -9.59484,-14.31453c0,-14.28316 -0.00003,-59.67416 -0.00003,-72.64792z" fill="none" stroke="#056300" stroke-width="2.5" stroke-linecap="butt"/><path d="M304.19272,317.65491c0,-9.54893 3.29658,-11.8904 6.92186,-11.8904c10.91955,0 66.68709,0 86.20271,0c4.2282,0 6.75482,4.90465 6.75482,15.87109c0,13.39619 0,47.11128 0,70.15998c0,13.46934 -3.93202,12.82172 -8.0913,12.82172c-10.95974,0 -60.9506,0 -82.19322,0c-5.91002,0 -9.59484,-0.0313 -9.59484,-14.31453c0,-14.28316 -0.00003,-59.67416 -0.00003,-72.64792z" fill="url(#color-9)" stroke="#ff6000" stroke-width="1.5" stroke-linecap="butt"/><path d="M321.07197,308.78768c-2.25985,0.07583 -7.05181,0.92221 -9.86315,4.10516c-2.931,3.31843 -3.33707,9.73943 -3.88473,14.45364c-0.75231,6.47604 -1.34115,12.67738 -1.34115,12.67738c0,0 -0.74515,-6.55993 -0.39085,-13.86053c0.22224,-4.57915 -1.29684,-13.06231 2.32057,-17.20728c3.32937,-3.81485 7.77396,-2.37954 12.99319,-2.30133c5.45567,0.08175 11.08304,0.61944 11.08304,0.61944c0,0 -8.16488,1.42119 -10.91693,1.51355z" fill="#ffffff" stroke="#dbffff" stroke-width="0" stroke-linecap="butt"/><path d="M302.37523,320.33307c0,-3.77815 1.49629,-8.91721 4.76961,-11.9813c3.60046,-3.37026 9.0892,-4.48707 11.02605,-4.48707c11.13771,0 53.78367,0.31769 73.68921,0.31769c2.59799,0 7.77255,2.91161 10.98085,7.70564c2.11766,3.1643 3.02672,7.49429 3.02672,11.11706c0,11.1303 0,46.45006 0,65.6002c0,5.10853 0.07441,8.92444 -1.60403,11.5633c-1.99842,3.142 -5.96085,4.61538 -8.26662,4.61538c-11.17866,0 -56.99167,1.5885 -78.65875,1.5885c-3.01904,0 -9.26159,-1.73639 -12.25126,-5.57208c-2.97983,-3.82301 -2.7118,-9.73547 -2.7118,-15.65928c0,-11.86731 -0.00006,-54.02864 -0.00006,-64.80805z" fill="none" stroke="#ffffff" stroke-width="1.5" stroke-linecap="butt"/><path d="M336.53439,392.43051l-13.75704,-64.20946l12.38558,-2.65365l13.75704,64.20947z" fill="#ffffff" stroke="#debf00" stroke-width="1.5" stroke-linecap="butt"/><path d="M328.92306,356.51415l-5.16651,-28.19725l52.13213,-9.55203l5.1665,28.19725z" fill="#ffffff" stroke="#debf00" stroke-width="1.5" stroke-linecap="butt"/><path d="M340.78391,355.18084c0,1.56472 -5.04894,4.61811 -6.83125,3.36144c-0.27469,-0.01972 -0.5365,-0.08907 -0.77748,-0.19965c-0.37597,0.2667 -0.82832,0.42228 -1.31504,0.42228c-1.30549,0 -2.36379,-1.11929 -2.36379,-2.5c0,-1.38071 1.0583,-2.5 2.36379,-2.5c0.33403,0 0.65188,0.07328 0.93996,0.20547c0.37597,-0.2667 0.82832,-0.42228 1.31503,-0.42228c0.06007,0 0.1196,0.00237 0.17854,0.00702c2.6909,-1.31423 6.49023,-1.34893 6.49023,1.62572z" fill="#ffffff" stroke="none" stroke-width="0.5" stroke-linecap="butt"/><path d="M308.88847,419.72241c0,0.946 -0.16424,1.77244 -0.49271,2.47931c-0.32585,0.70687 -0.77388,1.29549 -1.34411,1.76587c-0.57023,0.46775 -1.23637,0.81987 -1.99842,1.05636c-0.76206,0.23387 -1.5806,0.35081 -2.45566,0.35081c-0.33899,0 -0.71081,-0.04598 -1.11549,-0.13796c-0.40205,-0.08934 -0.81067,-0.20102 -1.22586,-0.33504c-0.41256,-0.13401 -0.81067,-0.27854 -1.19432,-0.43359c-0.38103,-0.15504 -0.72001,-0.3022 -1.01695,-0.44147l0.4533,-4.26094c0.58862,0.35212 1.239,0.62015 1.95113,0.8041c0.71475,0.18132 1.41637,0.27198 2.10485,0.27198c0.13139,0 0.29037,-0.00526 0.47694,-0.01577c0.18657,-0.01051 0.36395,-0.04073 0.53212,-0.09066c0.1708,-0.05255 0.31402,-0.13008 0.42964,-0.23256c0.11825,-0.10511 0.17738,-0.25489 0.17738,-0.44935c0,-0.12876 -0.04205,-0.23913 -0.12613,-0.3311c-0.08146,-0.0946 -0.18789,-0.1708 -0.31928,-0.22861c-0.13139,-0.06044 -0.27986,-0.10642 -0.44541,-0.13796c-0.16555,-0.03153 -0.32847,-0.05387 -0.48876,-0.06701c-0.15767,-0.01314 -0.30614,-0.01971 -0.44541,-0.01971c-0.13665,0 -0.2457,0 -0.32716,0c-0.59388,0 -1.13389,-0.1038 -1.62002,-0.31139c-0.48614,-0.2076 -0.90395,-0.49533 -1.25345,-0.86323c-0.34687,-0.36789 -0.61753,-0.80541 -0.81198,-1.31257c-0.19183,-0.50716 -0.28774,-1.05768 -0.28774,-1.65156c0,-0.81461 0.16292,-1.54382 0.48876,-2.18762c0.32847,-0.64643 0.76731,-1.19564 1.31652,-1.64762c0.5492,-0.45198 1.17856,-0.79753 1.88806,-1.03665c0.7095,-0.24175 1.44397,-0.36263 2.20339,-0.36263c0.33899,0 0.68717,0.01183 1.04454,0.03548c0.36,0.02365 0.71738,0.06701 1.07214,0.13008c0.35475,0.06044 0.7003,0.13927 1.03666,0.2365c0.33899,0.09723 0.66089,0.21811 0.96571,0.36263l-0.39417,4.20181c-0.46775,-0.16029 -0.95914,-0.293 -1.47418,-0.39811c-0.51242,-0.10774 -1.01432,-0.16161 -1.50571,-0.16161c-0.08934,0 -0.20497,0.00263 -0.34687,0.00788c-0.1419,0.00263 -0.29037,0.01314 -0.44541,0.03153c-0.15504,0.01577 -0.31139,0.04073 -0.46905,0.0749c-0.15767,0.03416 -0.29957,0.08146 -0.4257,0.1419c-0.12351,0.05781 -0.22336,0.13533 -0.29957,0.23256c-0.0762,0.0946 -0.11037,0.2076 -0.10248,0.33899c0.00788,0.15241 0.06438,0.27592 0.1695,0.37052c0.10774,0.09197 0.2457,0.16424 0.41388,0.21679c0.1708,0.04993 0.35738,0.0854 0.55972,0.10643c0.20234,0.02102 0.40337,0.03285 0.60307,0.03548c0.20234,0.00263 0.38891,0.00263 0.55972,0c0.17343,-0.00263 0.31533,0.00263 0.4257,0.01577c0.55183,0.03416 1.04848,0.1511 1.48995,0.35081c0.44147,0.19971 0.81593,0.46512 1.12338,0.79622c0.30745,0.3311 0.54132,0.72658 0.70162,1.18645c0.16292,0.45723 0.24439,0.96176 0.24439,1.5136zM321.91321,413.72319c0,0.50979 -0.02365,1.07214 -0.07095,1.68703c-0.0473,0.61227 -0.12613,1.24688 -0.2365,1.90382c-0.11037,0.65432 -0.25358,1.31783 -0.42964,1.99054c-0.17606,0.67271 -0.39548,1.32046 -0.65825,1.94324c-0.26278,0.62015 -0.56891,1.20089 -0.91841,1.74222c-0.34687,0.54132 -0.74629,1.01432 -1.19827,1.419c-0.45198,0.40205 -0.95783,0.7187 -1.51754,0.94994c-0.55709,0.23125 -1.17724,0.34687 -1.86047,0.34687c-0.79884,0 -1.49389,-0.13008 -2.08514,-0.39023c-0.58862,-0.25752 -1.09315,-0.6057 -1.5136,-1.04454c-0.42045,-0.43884 -0.76599,-0.94863 -1.03665,-1.52937c-0.26803,-0.58336 -0.47826,-1.20089 -0.63067,-1.85258c-0.15241,-0.65169 -0.25752,-1.31652 -0.31533,-1.99449c-0.05781,-0.6806 -0.08672,-1.33491 -0.08672,-1.96295c0,-0.96702 0.0473,-1.93142 0.1419,-2.89318c0.09723,-0.96176 0.23518,-1.92222 0.41388,-2.88135l4.84431,0.18526c-0.18657,1.08264 -0.34687,2.17055 -0.48088,3.2637c-0.13401,1.09315 -0.20102,2.19157 -0.20102,3.29524c0,0.11825 0.00526,0.293 0.01577,0.52424c0.01051,0.23125 0.02891,0.49008 0.05518,0.77651c0.02891,0.28643 0.06832,0.57943 0.11825,0.87899c0.05255,0.29957 0.12351,0.57417 0.21285,0.82381c0.08934,0.24701 0.19708,0.45066 0.32321,0.61096c0.12876,0.15767 0.27986,0.2365 0.4533,0.2365c0.19971,0 0.3784,-0.0946 0.53607,-0.2838c0.16029,-0.1892 0.30088,-0.44278 0.42176,-0.76074c0.12088,-0.31796 0.22599,-0.68322 0.31533,-1.09578c0.08934,-0.41519 0.16424,-0.84615 0.22468,-1.29287c0.06307,-0.44935 0.113,-0.89738 0.14979,-1.34411c0.03941,-0.44935 0.07095,-0.86716 0.0946,-1.25345c0.02365,-0.38628 0.03941,-0.72789 0.0473,-1.02483c0.00788,-0.29694 0.01183,-0.51767 0.01183,-0.6622c0,-0.53869 -0.0092,-1.07476 -0.02759,-1.6082c-0.01577,-0.53607 -0.04205,-1.0695 -0.07883,-1.60031h4.84431c0.08146,0.95126 0.12219,1.91696 0.12219,2.89713zM334.86749,415.25255c0,0.53869 -0.04598,1.02746 -0.13796,1.4663c-0.09197,0.43884 -0.23913,0.84089 -0.44147,1.20615c-0.19971,0.36526 -0.45855,0.70293 -0.77651,1.01301c-0.31533,0.31008 -0.69767,0.60702 -1.14703,0.89082l2.46354,4.38708l-4.65511,0.91053l-1.59638,-4.41072l-1.28104,0.04336l-0.18526,4.3043h-4.45014c0.03416,-1.57404 0.06701,-3.14019 0.09854,-4.69847c0.03153,-1.55827 0.06701,-3.12443 0.10643,-4.69847c0.01577,-0.79096 0.03022,-1.57667 0.04336,-2.35711c0.01314,-0.78045 0.04073,-1.56747 0.08278,-2.36106c0.48351,-0.17869 0.95914,-0.32585 1.42688,-0.44147c0.47037,-0.11825 0.94075,-0.21022 1.41112,-0.27592c0.473,-0.06569 0.95257,-0.11037 1.43871,-0.13401c0.48614,-0.02365 0.98542,-0.03548 1.49783,-0.03548c0.7857,0 1.54514,0.10905 2.27829,0.32716c0.73578,0.21548 1.38615,0.54132 1.95113,0.97754c0.5676,0.43359 1.02089,0.9749 1.35987,1.62397c0.34161,0.64643 0.51242,1.40061 0.51242,2.26251zM330.23209,415.58366c0,-0.28906 -0.03941,-0.55446 -0.11825,-0.79622c-0.07883,-0.24175 -0.19577,-0.44935 -0.35081,-0.62279c-0.15504,-0.17606 -0.34818,-0.31402 -0.57943,-0.41388c-0.23125,-0.10248 -0.5019,-0.15372 -0.81198,-0.15372c-0.13927,0 -0.2746,0.0092 -0.40599,0.02759c-0.12876,0.0184 -0.25621,0.04467 -0.38234,0.07883l-0.16555,3.84707h0.24832c0.29694,0 0.59913,-0.0381 0.90658,-0.11431c0.30745,-0.0762 0.58336,-0.19314 0.82775,-0.35081c0.24439,-0.15767 0.44409,-0.36 0.59913,-0.60702c0.15504,-0.24964 0.23256,-0.54789 0.23256,-0.89476zM347.70796,415.25255c0,0.53869 -0.04598,1.02746 -0.13796,1.4663c-0.09197,0.43884 -0.23913,0.84089 -0.44147,1.20615c-0.19971,0.36526 -0.45855,0.70293 -0.77651,1.01301c-0.31533,0.31008 -0.69767,0.60702 -1.14703,0.89082l2.46354,4.38708l-4.65511,0.91053l-1.59638,-4.41072l-1.28104,0.04336l-0.18526,4.3043h-4.45014c0.03416,-1.57404 0.06701,-3.14019 0.09854,-4.69847c0.03153,-1.55827 0.06701,-3.12443 0.10643,-4.69847c0.01577,-0.79096 0.03022,-1.57667 0.04336,-2.35711c0.01314,-0.78045 0.04073,-1.56747 0.08278,-2.36106c0.48351,-0.17869 0.95914,-0.32585 1.42688,-0.44147c0.47037,-0.11825 0.94075,-0.21022 1.41112,-0.27592c0.473,-0.06569 0.95257,-0.11037 1.43871,-0.13401c0.48614,-0.02365 0.98542,-0.03548 1.49783,-0.03548c0.7857,0 1.54514,0.10905 2.27829,0.32716c0.73578,0.21548 1.38615,0.54132 1.95113,0.97754c0.5676,0.43359 1.02089,0.9749 1.35987,1.62397c0.34161,0.64643 0.51242,1.40061 0.51242,2.26251zM343.07256,415.58366c0,-0.28906 -0.03941,-0.55446 -0.11825,-0.79622c-0.07883,-0.24175 -0.19577,-0.44935 -0.35081,-0.62279c-0.15504,-0.17606 -0.34818,-0.31402 -0.57943,-0.41388c-0.23125,-0.10248 -0.5019,-0.15372 -0.81198,-0.15372c-0.13927,0 -0.2746,0.0092 -0.40599,0.02759c-0.12876,0.0184 -0.25621,0.04467 -0.38234,0.07883l-0.16555,3.84707h0.24832c0.29694,0 0.59913,-0.0381 0.90658,-0.11431c0.30745,-0.0762 0.58336,-0.19314 0.82775,-0.35081c0.24439,-0.15767 0.44409,-0.36 0.59913,-0.60702c0.15504,-0.24964 0.23256,-0.54789 0.23256,-0.89476zM358.22285,410.30971c-0.04205,0.64643 -0.08015,1.28761 -0.11431,1.92353c-0.03416,0.63329 -0.07883,1.27447 -0.13401,1.92353l-4.38708,0.22861l-0.10248,1.30469h3.08238l-0.22861,3.20457l-3.10209,0.10643l-0.10642,1.50966h2.56602h1.82105c-0.03941,0.75943 -0.08277,1.5136 -0.13008,2.26251c-0.04467,0.74629 -0.08409,1.49521 -0.11825,2.24675l-8.91605,0.20891l0.3311,-14.9192zM372.6459,410.39249l-0.74497,14.02839l-5.42374,0.49665l-2.89713,-7.51282l-0.45329,7.65866h-4.65511l0.37052,-14.67088l5.17541,-0.24832l3.57904,7.44975l0.16555,-7.03587zM385.20651,417.01448c0,0.9644 -0.12482,1.8355 -0.37445,2.61333c-0.24701,0.7752 -0.59388,1.46499 -1.0406,2.06938c-0.44409,0.60176 -0.97359,1.12075 -1.58849,1.55696c-0.61227,0.43359 -1.28367,0.79096 -2.01419,1.07214c-0.73052,0.27854 -1.50835,0.48483 -2.33347,0.61884c-0.82512,0.13401 -1.67127,0.20103 -2.53843,0.20103c-0.32585,0 -0.6438,-0.00788 -0.95388,-0.02365c-0.31008,-0.0184 -0.62672,-0.04467 -0.94994,-0.07883l0.28774,-13.88649c0.75943,-0.24175 1.53988,-0.41256 2.34135,-0.51242c0.8041,-0.09986 1.60295,-0.14979 2.39653,-0.14979c0.98804,0 1.89594,0.14847 2.72369,0.44541c0.82775,0.29694 1.54119,0.72527 2.14033,1.28498c0.59913,0.55709 1.06557,1.239 1.39929,2.04573c0.33635,0.80673 0.50453,1.72119 0.50453,2.7434zM380.96528,417.67668c0.00526,-0.37314 -0.03548,-0.73184 -0.12219,-1.07607c-0.08409,-0.34687 -0.22468,-0.653 -0.42176,-0.91841c-0.19708,-0.2654 -0.44804,-0.47826 -0.75285,-0.63855c-0.3022,-0.16292 -0.66351,-0.25095 -1.08396,-0.26409l-0.41388,6.41309c0.41519,-0.06044 0.79096,-0.19577 1.12732,-0.40599c0.33899,-0.21285 0.63067,-0.47169 0.87505,-0.77651c0.24439,-0.30745 0.43359,-0.64906 0.5676,-1.02483c0.13665,-0.37577 0.21154,-0.76468 0.22468,-1.16674zM395.6268,410.30971c-0.04205,0.64643 -0.08015,1.28761 -0.11431,1.92353c-0.03416,0.63329 -0.07883,1.27447 -0.13401,1.92353l-4.38708,0.22861l-0.10248,1.30469h3.08238l-0.22861,3.20457l-3.10209,0.10643l-0.10642,1.50966h2.56602h1.82105c-0.03941,0.75943 -0.08277,1.5136 -0.13008,2.26251c-0.04467,0.74629 -0.08409,1.49521 -0.11825,2.24675l-8.91605,0.20891l0.3311,-14.9192zM408.10267,415.25255c0,0.53869 -0.04598,1.02746 -0.13796,1.4663c-0.09197,0.43884 -0.23913,0.84089 -0.44147,1.20615c-0.19971,0.36526 -0.45855,0.70293 -0.77651,1.01301c-0.31533,0.31008 -0.69767,0.60702 -1.14703,0.89082l2.46354,4.38708l-4.65511,0.91053l-1.59638,-4.41072l-1.28104,0.04336l-0.18526,4.3043h-4.45014c0.03416,-1.57404 0.06701,-3.14019 0.09854,-4.69847c0.03153,-1.55827 0.06701,-3.12443 0.10643,-4.69847c0.01577,-0.79096 0.03022,-1.57667 0.04336,-2.35711c0.01314,-0.78045 0.04073,-1.56747 0.08278,-2.36106c0.48351,-0.17869 0.95914,-0.32585 1.42688,-0.44147c0.47037,-0.11825 0.94075,-0.21022 1.41112,-0.27592c0.473,-0.06569 0.95257,-0.11037 1.43871,-0.13401c0.48614,-0.02365 0.98542,-0.03548 1.49783,-0.03548c0.7857,0 1.54514,0.10905 2.27829,0.32716c0.73578,0.21548 1.38615,0.54132 1.95113,0.97754c0.5676,0.43359 1.02089,0.9749 1.35987,1.62397c0.34161,0.64643 0.51242,1.40061 0.51242,2.26251zM403.46727,415.58366c0,-0.28906 -0.03941,-0.55446 -0.11825,-0.79622c-0.07883,-0.24175 -0.19577,-0.44935 -0.35081,-0.62279c-0.15504,-0.17606 -0.34818,-0.31402 -0.57943,-0.41388c-0.23125,-0.10248 -0.5019,-0.15372 -0.81198,-0.15372c-0.13927,0 -0.2746,0.0092 -0.40599,0.02759c-0.12876,0.0184 -0.25621,0.04467 -0.38234,0.07883l-0.16555,3.84707h0.24832c0.29694,0 0.59913,-0.0381 0.90658,-0.11431c0.30745,-0.0762 0.58336,-0.19314 0.82775,-0.35081c0.24439,-0.15767 0.44409,-0.36 0.59913,-0.60702c0.15504,-0.24964 0.23256,-0.54789 0.23256,-0.89476z" fill="#ffffff" stroke="#000000" stroke-width="0.5" stroke-linecap="square"/></g></g></svg>