<svg version="1.1" xmlns="http://www.w3.org/2000/svg" xmlns:xlink="http://www.w3.org/1999/xlink" width="110.7163" height="130.8843" viewBox="0,0,110.7163,130.8843"><g transform="translate(-463.91664,-95.44352)"><g data-paper-data="{&quot;isPaintingLayer&quot;:true}" fill-rule="nonzero" stroke-linejoin="miter" stroke-miterlimit="10" stroke-dasharray="" stroke-dashoffset="0" style="mix-blend-mode: normal"><path d="M470.46532,96.94591l98.3125,0.45833l4.125,3.4375l0.22917,119.625l-3.20833,4.35417l-100.83333,-0.91667l-2.52083,-2.75l-1.14583,-120.3125z" fill="#767676" stroke="#3d3d3d" stroke-width="3" stroke-linecap="round"/><path d="M467.68184,170.57511l49.27083,14.20833l54.54167,-12.83333l0.45833,46.0625l-2.75,4.58333l-98.3125,-0.45833l-2.52083,-2.52083z" fill="#3d3d3d" stroke="#3d3d3d" stroke-width="3.5" stroke-linecap="round"/><g fill="#000f0f" stroke-linecap="butt"><path d="M524.75314,115.1859c0,4.7338 -6.75505,8.5713 -15.08783,8.5713c-8.33278,0 -15.08783,-3.8375 -15.08783,-8.5713c0,-4.7338 6.75505,-8.5713 15.08783,-8.5713c8.33278,0 15.08783,3.8375 15.08783,8.5713z" stroke="none" stroke-width="0"/><path d="M526.39694,133.92452c0,10.53756 -9.59375,19.07995 -21.42825,19.07995c-11.83449,0 -21.42825,-8.54238 -21.42825,-19.07995c0,-10.53756 9.59375,-19.07995 21.42825,-19.07995c11.83449,0 21.42825,8.54238 21.42825,19.07995z" stroke="#000000" stroke-width="0"/><path d="M517.12019,119.61003c-0.37436,-0.12115 -0.37436,-0.55608 -0.37436,-0.55608v-0.11742c0.01375,-0.90585 0.35311,-1.65836 0.61141,-2.51559c0.19931,-0.66143 0.18151,-1.47082 0.46499,-2.09687c0.23368,-0.51608 0.30954,-1.25185 0.82561,-1.48555c0.34749,-0.15735 1.07888,0.91473 1.28571,1.19123c0.22585,0.37642 0.51665,0.71254 0.7291,1.09669c0.19738,0.35691 0.22136,0.7995 0.44798,1.13859c0.36139,0.54073 1.08725,0.85387 1.41826,1.42352c0.37825,0.65095 0.31853,0.93386 0.32251,1.60021c0.00398,0.66583 0.19867,1.91687 -0.59064,2.30083c-0.29798,0.14495 -1.23826,-0.33454 -1.59532,-0.45376c-1.07898,-0.36024 -2.03771,-0.84998 -3.14158,-1.16518c0,0 -0.30736,-0.08782 -0.40368,-0.36065z" stroke="none" stroke-width="0.5"/><path d="M497.2068,121.33767c-0.54509,0.21804 -0.76312,-0.32705 -0.76312,-0.32705l-0.25248,-0.63782c-0.04345,-0.21308 -0.0869,-0.42615 -0.13035,-0.63923c0,0 -0.00023,-0.00113 -0.00061,-0.0033l-0.12821,-0.5815c0,-0.70275 -0.02433,-1.41136 0,-2.11347c0.01118,-0.32281 -0.07338,-0.67376 0.06198,-0.96704c0.119,-0.25782 0.42234,-0.38003 0.64251,-0.55936c0.59495,-0.48457 1.28093,-0.73898 1.94838,-1.10171c1.46206,-0.79458 2.5873,-2.09142 4.01175,-2.94621c0.96455,-0.53514 2.21693,-1.35371 3.32205,-1.57741c0.93258,-0.18877 2.09751,-0.01059 3.0464,-0.01059c2.03566,0 4.20753,-0.20289 6.15545,0.37659c0.73311,0.21809 1.46725,0.39934 2.17085,0.72484c0.35596,0.16467 0.79977,0.22534 1.05313,0.52473c0.22398,0.26468 0.1641,0.67377 0.24615,1.01065c-0.57177,1.56065 -0.58462,3.11846 -0.58462,4.76034c0,0.13384 0.0305,1.68691 -0.08768,1.83504c-0.66729,0.83639 -1.12433,0.64175 -1.90609,0.50186c-0.7766,-0.13896 -1.49463,-0.52724 -2.29102,-0.57853c-1.50423,-0.09688 -3.03254,0.16462 -4.51906,-0.12596c-0.58708,-0.11742 -1.17415,-0.23483 -1.76123,-0.35225c-0.3368,-0.06736 -0.66388,-0.26294 -1.00534,-0.22589c-0.63115,0.06848 -1.40404,0.61653 -2.00207,0.80068c-1.149,0.3538 -2.37762,0.53758 -3.54601,0.82828c-1.14648,0.28525 -2.1555,0.78005 -3.31269,0.91929c-0.0132,0.1639 -0.09459,0.35562 -0.36807,0.46501z" stroke="none" stroke-width="0.5"/><path d="M485.3044,112.95301c-0.00321,-0.44667 -0.00402,-1.09565 0.14938,-1.398c0.35581,-0.70128 1.6637,-1.31952 2.28624,-1.76303c1.33777,-0.95305 2.40902,-2.16294 3.74279,-3.12023c0.83317,-0.69218 1.74927,-1.25663 2.54603,-2.00402c0.86727,-0.81352 1.60206,-1.81005 2.54196,-2.53603c2.34366,-1.81025 5.37262,-2.96415 8.30653,-3.3306c1.99517,-0.00252 3.99034,-0.00113 5.98551,-0.00113c1.20569,0 2.52464,-0.14688 3.71071,0.08867c2.25228,0.44729 4.99809,1.58979 6.64556,3.21435c1.08669,1.14459 0.92317,2.78934 1.25384,4.27988c0.21688,0.9776 0.49404,1.92594 0.7048,2.89765c0.32727,1.50889 0.09195,3.29155 0.09195,4.82254c0,1.05285 0.22231,2.54327 -0.00113,3.55893c-0.00263,0.01196 -0.0054,0.02386 -0.0083,0.03572l0.0049,0.00061l-0.07731,0.61849c-0.03239,0.2936 -0.28128,0.52198 -0.58351,0.52198c-0.19977,0 -0.37623,-0.09978 -0.48227,-0.25221l-0.38684,-0.54157l0.01757,-0.01255l-0.05148,-0.04077c-0.48581,-1.12981 -0.82779,-2.42432 -1.06545,-3.6325c-0.83241,-1.85687 -2.48661,-2.60896 -4.23909,-3.48633c-1.32344,-0.66258 -2.91276,-1.33392 -4.38537,-1.59308c-1.74503,-0.3071 -3.77584,-0.09332 -5.52348,0.08107c-1.31706,0.26438 -2.60603,0.55297 -3.82948,1.12496c-0.59103,0.27632 -1.25738,0.74056 -1.89316,0.8954c-0.33604,0.08184 -0.69462,0.01746 -1.03428,0.08263c-0.79671,0.15287 -1.73675,0.74605 -2.44926,1.12329c-0.74224,0.39298 -1.53589,0.65785 -2.28763,1.02651c-0.7678,0.37654 -1.47805,0.85613 -2.2438,1.23888c-0.84319,0.50592 -1.73472,0.91806 -2.48098,1.57269c-0.5663,0.49676 -1.06686,1.04842 -1.66968,1.50843c-0.38456,0.29346 -1.13398,0.8842 -1.67269,0.70661c-0.46384,-0.15291 -0.54466,-0.8132 -0.85918,-1.18685c-0.21893,-0.26008 -0.74585,-0.87105 -0.86794,-1.15434c-0.46028,-1.06793 -0.13105,-2.25083 0.10456,-3.34606z" stroke="none" stroke-width="0.5"/><path d="M522.79291,119.25901c-0.05609,0.01598 -0.12017,0.02511 -0.19339,0.02511c-0.58708,0 -0.58708,-0.58708 -0.58708,-0.58708l0.01753,-0.22066c0.10619,-0.42223 0.23477,-0.83979 0.38995,-1.24657c0.21654,-2.06117 0.06218,-4.20876 0.06218,-6.28216c0,-1.29017 0.15941,-2.69312 -0.06902,-3.96655c-0.11297,-0.62979 -0.37453,-1.22873 -0.51251,-1.8361c-0.1041,-0.45822 -0.53067,-1.04725 -0.213,-1.39349c0.97364,-1.06122 1.6234,0.3856 1.89921,0.81354c0.46477,0.93305 0.76683,1.90146 1.19204,2.85436c0.38814,0.86982 0.85765,1.76497 1.06506,2.70081c0.39633,1.78826 0.10233,3.6771 0.00339,5.475c-0.05786,1.0513 -0.25284,2.08542 -0.31328,3.13429c-0.01825,0.31668 0.0508,1.13565 -0.10751,1.40561c-0.01951,0.03327 -0.04027,0.0656 -0.06212,0.09711l0.0149,0.00851l-0.30745,0.53804c-0.09966,0.18216 -0.29309,0.3057 -0.51538,0.3057c-0.24689,0 -0.45818,-0.1524 -0.54494,-0.36825l-0.20391,-0.47579c-0.30981,-0.36214 -0.65569,-0.67605 -1.01468,-0.98143z" stroke="none" stroke-width="0.5"/><path d="M524.26877,139.94823c-0.08164,0.02916 -0.18117,0.04073 -0.30236,0.02342c-0.58117,-0.08303 -0.49815,-0.6642 -0.49815,-0.6642l0.08636,-0.59227c0.26308,-1.17697 0.3318,-2.36841 0.00857,-3.54705c-0.10635,-0.38778 -0.43248,-0.69683 -0.51678,-1.09c-0.00364,-0.01699 -0.00719,-0.034 -0.01063,-0.05103l-0.00888,0.00317l-0.3868,-1.08303c-0.02506,-0.06529 -0.03879,-0.13619 -0.03879,-0.2103c0,-0.32423 0.26284,-0.58708 0.58708,-0.58708c0.14436,0 0.27655,0.05211 0.3788,0.13854l0.4667,0.38892l-0.01944,0.02333l0.07389,0.0283c0.52138,0.72069 1.10608,1.38446 1.62325,2.10823c0.41574,0.67001 0.62558,1.44605 1.07792,2.0881c0.55168,0.78306 1.8391,1.22198 2.18353,2.15683c0.46734,1.26847 -0.50539,2.23471 -1.45436,2.90171c-0.4081,0.28683 -1.25999,0.74495 -1.77321,0.51571c-0.6895,-0.30798 -0.5942,-1.57068 -0.87621,-2.11532c-0.09887,-0.19095 -0.3721,-0.33242 -0.60049,-0.43599z" stroke="none" stroke-width="0.5"/><path d="M480.23227,120.5102c0.52432,-0.99579 1.39512,-1.85685 2.00833,-2.74336c0.65794,-0.95118 0.8187,-1.99399 1.2712,-3.02578c0.27437,-0.62562 0.6786,-1.09586 0.91388,-1.73197l0.1476,-0.59042c0.05933,-0.26144 0.29313,-0.4566 0.57253,-0.4566c0.24689,0 0.45818,0.1524 0.54493,0.36825l0.2295,0.5355l-0.02195,0.00941c0.02042,0.03376 0.03962,0.06833 0.05743,0.10381c0.1069,0.21305 -0.00287,0.47706 0.01126,0.71501c0.05494,0.92509 0.19486,1.85501 0.3093,2.77439c0.03188,0.25609 0.09267,1.72684 0.63227,1.6789c0.57908,-0.05145 1.05539,-0.92574 1.45332,-1.26682c1.3971,-1.19752 3.08316,-2.16549 4.61076,-3.18365c1.92708,-1.15446 3.5769,-2.33944 5.86808,-2.6684c0.26136,-0.03753 1.86077,-0.19797 1.93046,-0.04248c0.24508,0.54678 -0.07554,1.23472 -0.36274,1.7606c-0.2105,0.38543 -0.69815,0.53313 -1.04031,0.80844c-0.52816,0.42495 -1.04029,0.85096 -1.57876,1.26273c-1.34593,1.02925 -2.4567,2.20515 -3.75262,3.28406c-1.18334,0.8448 -1.87942,2.0449 -2.93741,3.02162c-0.9591,0.88542 -2.05578,1.53989 -2.92689,2.53427c-1.95367,2.23015 -2.60743,4.89766 -3.23804,7.73445c-0.08083,0.31333 -0.35573,1.01992 -0.01207,1.31662c0.42102,0.36349 1.41471,-0.27185 1.35734,0.9386c-0.02339,0.49347 -0.64716,0.76122 -1.05293,1.04303c-0.47409,0.32926 -1.27996,0.27971 -1.81333,0.59227c-0.24211,0.14188 -0.43003,0.4105 -0.70668,0.45755c-0.36046,0.06131 -0.77125,0.03306 -1.08624,-0.15259c-0.34424,-0.20288 -0.69464,-1.09378 -0.90058,-1.46006c-0.59299,-1.05468 -1.36607,-2.15654 -1.76534,-3.30599c-0.27883,-0.80272 -0.26564,-1.70621 -0.2666,-2.53883c0,-1.80935 -0.35203,-4.01988 0.26866,-5.75407c0.25099,-0.70125 0.72154,-1.3846 1.27562,-2.01849z" stroke="none" stroke-width="0.5"/><path d="M532.94595,114.2457c0,-1.46806 -0.17035,-3.07062 0.0044,-4.5335c0.04746,-0.39734 0.31229,-1.11094 0.40542,-1.48322c0.17523,-0.70047 0.1872,-1.21604 0.51579,-1.84377c0.34198,-0.65333 0.85357,-1.26509 1.32394,-1.83028c0.49706,-0.58256 0.612,-0.83713 1.46844,-1.12926c0.61515,-0.20982 1.69942,-0.0213 2.34846,-0.0213c1.63635,0 3.25916,0.07125 4.77644,0.75419c0.78602,0.35379 1.17113,0.80002 1.75083,1.38136c0.8083,0.81057 1.76409,1.45176 2.57656,2.26335c0,0 0.05055,0.05055 0.09873,0.13402l0.00636,0.0019c1.29385,1.07821 2.64723,2.13268 3.91512,3.21042c0.66984,0.56938 1.24844,1.52884 1.75764,2.2415c0.71028,1.18369 1.30075,2.46957 2.16143,3.55866c0.55852,0.70674 1.51958,1.29735 2.00331,2.02494c0.15252,0.22941 0.10479,0.54359 0.20184,0.80141c0.08188,0.21753 0.88935,1.64466 0.91639,1.68753c0.70519,1.11814 1.60111,2.1411 1.99027,3.43219c0.43033,1.42767 0.26483,3.01639 0.25566,4.48672c0.26622,1.17488 0.23877,2.30976 0.23834,3.50823c-0.00101,2.79814 -0.56278,5.5079 -3.1954,7.00859c-1.64456,0.93746 -3.56031,0.70408 -5.36935,0.69726c-0.7014,-0.17639 -1.19513,-0.49131 -1.85899,-0.73841c-1.13026,-0.42071 -2.26595,-0.82559 -3.30353,-1.45478c-0.80997,-0.49118 -1.35804,-1.26389 -2.09654,-1.84283c-2.00086,-1.56857 -4.07036,-3.04372 -5.86843,-4.84683c-0.77447,-0.99575 -1.7308,-1.86283 -2.45476,-2.89419c-0.82267,-1.172 -1.29433,-2.38288 -1.86762,-3.67252c-0.83717,-1.88324 -1.72158,-3.72294 -2.22574,-5.73403c0,0 -0.01729,-0.06916 -0.01572,-0.1653c-0.47948,-1.62576 -0.4593,-3.25833 -0.4593,-5.00205zM544.69628,106.35682c-0.47986,-0.4786 -0.72611,-0.83727 -1.38024,-1.1235c-1.37695,-0.60252 -2.82285,-0.65479 -4.30365,-0.65479c-1.19042,0 -2.11047,-0.26938 -2.91489,0.72808c-0.417,0.4997 -0.8719,1.03857 -1.18092,1.6139c-0.23932,0.44557 -0.31702,1.17405 -0.42353,1.60041c-0.01556,0.06227 -0.35499,1.14092 -0.37735,1.33474c-0.16345,1.41686 0.0044,2.96812 0.0044,4.39004c0,1.91901 -0.08104,3.73633 0.71946,5.52729l0.29906,0.52186c0,0 0.19847,0.34732 -0.01895,0.63239c0.46604,1.27106 1.04557,2.49531 1.59815,3.73885c0.54174,1.21916 0.9767,2.36015 1.75054,3.46908c0.69726,0.99918 1.63153,1.83802 2.38096,2.80158c1.75288,1.7475 3.7745,3.17388 5.71652,4.70292c0.54769,0.43122 0.97647,0.97217 1.50257,1.42151c0.99592,0.85063 2.38555,1.24616 3.58645,1.69956c0.56232,0.21231 1.00215,0.5262 1.58518,0.67057c1.53877,-0.00661 3.24667,0.24934 4.65007,-0.55516c2.24755,-1.28843 2.59796,-3.61795 2.59708,-5.98534c-0.00043,-1.16229 0.01742,-2.24051 -0.23132,-3.38011c-0.00706,-1.39119 0.18924,-2.92826 -0.214,-4.28027c-0.35095,-1.17668 -1.21859,-2.12421 -1.85828,-3.14096c-0.11516,-0.18304 -0.91392,-1.60969 -1.02753,-1.91529c-0.07174,-0.19299 0.00324,-0.43646 -0.11127,-0.60757c-0.16501,-0.24657 -0.46102,-0.37414 -0.6798,-0.57453c-0.33928,-0.31074 -0.96575,-0.97842 -1.23073,-1.31436c-0.88307,-1.11956 -1.49278,-2.4272 -2.22206,-3.64279c-0.43619,-0.61088 -0.94761,-1.51239 -1.52998,-1.98544c-1.24993,-1.0153 -2.52569,-2.05427 -3.77887,-3.09696c-0.14802,-0.03952 -0.35107,-0.1421 -0.40788,-0.40839c-0.79588,-0.77546 -1.71295,-1.40315 -2.49917,-2.1873z" stroke="none" stroke-width="0.5"/><path d="M533.80699,113.40061c0,-0.12747 0.02768,-0.22726 0.07101,-0.30538c0.0223,-0.14074 0.10063,-0.25295 0.15562,-0.31679c0.47307,-1.59985 1.25066,-2.96523 2.23102,-4.33738c0.39006,-0.54594 0.83305,-1.24286 1.35302,-1.67423c0.7835,-0.64998 1.79152,-0.87519 2.76722,-0.99706c1.14407,-0.00196 2.39924,-0.15874 3.50419,0.18372c1.08778,0.33715 1.96012,1.13932 2.92914,1.69286c0.77257,0.44131 1.61976,0.68547 2.40171,1.08245c0.6617,0.33593 1.23029,0.95506 1.74505,1.46952c0.95929,0.95875 1.78808,1.89512 2.54368,3.02767c1.82735,2.61021 3.96201,5.01918 5.4571,7.8498c0.5732,1.08524 0.84319,2.22877 1.32969,3.3657c0.41785,0.97649 1.07334,2.1289 1.28837,3.16862c0.21458,1.03753 0.01173,2.44062 -0.00209,3.50291c-0.07239,1.30111 -0.00596,2.79174 -0.4985,4.03256c-0.28767,0.7247 -0.77318,1.23191 -1.30377,1.76178c-0.46973,0.46908 -0.93966,0.9086 -1.51734,1.25958c-2.02153,1.22821 -4.56344,0.6662 -6.74737,0.39102c-0.95701,-0.21187 -1.75875,-0.18027 -2.11102,-1.28882c-0.59278,-1.86541 1.74079,-3.37753 2.02495,-5.10859c0.10031,-0.61106 -0.00942,-1.38788 -0.00942,-2.00872c0,-1.63123 -0.1229,-3.17593 -0.73657,-4.70316c-0.18974,-0.4299 -0.28333,-0.89776 -0.46911,-1.32939c-0.26304,-0.61113 -0.8481,-1.2338 -1.25131,-1.74463c-0.64983,-0.82327 -1.24623,-1.67691 -1.8824,-2.50967c-0.30395,-0.39787 -0.80683,-0.6348 -1.05388,-1.07029c-0.44201,-0.77917 -0.08129,-1.56548 0.3843,-2.26393c-0.36313,0.12976 -0.76258,0.14371 -1.14143,0.22336c-0.53656,-0.84821 -1.10517,-1.64965 -1.65912,-2.4832c-0.24241,-0.36475 -0.47659,-0.77076 -0.84703,-1.00438c-2.26108,-1.42601 -5.56314,-1.4823 -7.69336,0.16905c-0.00931,0.03566 -0.01846,0.07147 -0.02745,0.1074l-0.64782,0.44469c0,0 -0.58708,0 -0.58708,-0.58708z" stroke="none" stroke-width="0.5"/><path d="M535.18656,118.77568l0.01753,-0.249c-0.2674,-1.07676 -0.37707,-2.16412 -0.82963,-3.19534c-0.12819,-0.29211 -0.73853,-1.39787 -0.74903,-1.57192c-0.02465,-0.40856 0.0595,-0.86905 0.31868,-1.18585c0.40231,-0.49175 1.89032,-0.48953 2.45574,-0.49055c1.71513,-0.0031 3.33516,0.10318 5.02237,0.4163c0.36373,0.15348 0.70601,0.36854 1.08821,0.46741c0.37562,0.09717 0.7958,0.0405 1.14487,0.20985c0.28832,0.13987 1.01039,1.27206 1.15736,1.4406c0.64304,0.73749 1.49908,1.17707 1.9121,2.12855c0.3744,0.8625 -0.1466,1.99043 0.35161,2.74078c0.67944,1.02329 1.52932,1.94778 2.24762,2.94065c0.39881,0.55125 0.57174,1.2139 0.90841,1.80102c0.45267,1.05187 1.1563,2.23219 1.38027,3.353c0.12431,0.62211 0.01199,1.43992 0.01199,2.07496c0,2.68129 -0.25497,5.33661 -2.01471,7.49902c0,0 -0.37584,0.451 -0.82684,0.07517c-0.15054,-0.12545 -0.20896,-0.25928 -0.21998,-0.38192c-0.05746,-0.04556 -0.09002,-0.08464 -0.09002,-0.08464l-0.39138,-0.46966c-0.56418,-0.67718 -1.14335,-1.24809 -1.7968,-1.81871c-0.05044,-0.00081 -0.1052,-0.00792 -0.16461,-0.02277c-0.56955,-0.14239 -0.42716,-0.71193 -0.42716,-0.71193c0.18792,-0.69517 0.47289,-1.07558 0.85505,-1.59923c-0.01758,-0.20653 0.01974,-0.4449 -0.01041,-0.64227c-0.1259,-0.82441 -0.30905,-1.89882 -0.01271,-2.74216c-0.0623,-0.00984 -0.12458,-0.02471 -0.18679,-0.04505c-0.29613,-0.09684 -0.36635,-0.5042 -0.55782,-0.74998c-0.61302,-0.7869 -1.26961,-1.54178 -1.91874,-2.29911c-0.71869,-0.82363 -2.40646,-2.14672 -2.16503,-3.40404c0.05715,-0.29763 0.73458,-1.03114 0.97444,-1.33627c0.7957,-1.01219 1.45113,-2.15438 2.14508,-3.22644c-0.0189,0.01645 -0.03775,0.03288 -0.05633,0.04949c-0.31383,0.28047 -0.61076,0.57984 -0.9305,0.85355c-0.77815,0.66613 -1.62616,1.35323 -2.49088,1.8917c-0.35271,0.09537 -0.69275,0.28547 -1.05813,0.28612c-0.26704,0.00047 -0.50242,-0.18162 -0.74951,-0.28291c-0.73795,-0.3025 -1.81357,-0.63718 -2.19244,-1.42503c-0.20592,-0.42821 0.07135,-0.95067 0.04099,-1.42485c-0.04163,-0.65018 -0.22479,-1.19072 -0.43557,-1.7931c-0.00348,-0.00994 -0.00716,-0.02014 -0.01102,-0.03058c-0.15879,1.03224 -0.33732,1.97481 -0.33732,3.03962c0,0 0,0.58708 -0.58708,0.58708c-0.14623,0 -0.25604,-0.03642 -0.3385,-0.09113c-0.4834,-0.06469 -0.4834,-0.58044 -0.4834,-0.58044zM549.58066,134.78021c0.43393,-0.81515 0.65149,-1.61262 0.76053,-2.43118l-0.08994,0.04467c-0.46599,0.19052 -0.98027,0.27854 -1.48369,0.2823c-0.22339,0.00167 -0.70405,0.00959 -1.14892,-0.0115c-0.24279,0.32851 -0.4617,0.56678 -0.61735,0.87781c0.72206,0.62688 1.36328,1.25732 1.98244,2.00013l0.15499,0.18598c0.14794,-0.30329 0.26739,-0.62032 0.44193,-0.94821zM550.45052,129.65614c0,-0.55143 0.12056,-1.2967 0.01199,-1.83888c-0.06065,-0.30287 -0.163,-0.61299 -0.28763,-0.92457l-0.00902,-0.00338c-0.0108,0.03614 -0.02334,0.07189 -0.03785,0.10718c-0.23493,0.57137 -1.42358,1.51925 -2.01185,1.8468c-0.13,0.07238 -0.31393,0.04042 -0.4235,0.14109c-0.33916,0.31158 -0.0848,1.41537 -0.06124,1.81566c0.01236,0.21 0.10043,0.41702 0.07828,0.62621c-0.00533,0.05033 -0.07345,0.10617 -0.12717,0.15254c0.04046,0.02303 0.07562,0.04774 0.10609,0.07368c0.09675,-0.04617 0.19133,-0.13593 0.29618,-0.15061c0.69912,-0.09784 1.15426,0.11056 1.80393,-0.18736l0.28182,-0.14204c0,0 0.1706,-0.0853 0.36593,-0.06142c0.01547,-0.47039 0.01403,-0.95315 0.01403,-1.45489zM549.18137,124.75157c-0.30007,-0.52688 -0.45203,-1.15802 -0.81367,-1.64315c-0.73844,-0.99059 -1.66617,-1.93856 -2.29242,-3.00838c-0.33935,-0.57971 -0.27247,-1.17782 -0.26061,-1.76796c-0.08666,0.10912 -0.17524,0.21845 -0.25568,0.3314c-0.53945,0.75748 -0.93418,1.59333 -1.48394,2.34382c-0.26415,0.36059 -1.07937,1.07473 -1.23055,1.49909c-0.11268,0.31631 0.3573,0.5718 0.57705,0.82569c0.44741,0.51693 0.87877,1.04765 1.3283,1.56274c0.53527,0.62447 1.05814,1.25243 1.57623,1.89137c0.13793,0.1701 0.31015,0.31602 0.41887,0.50612c0.05835,0.10202 -0.02488,0.27438 0.06839,0.34589c0.0644,0.04938 0.13737,-0.08771 0.19811,-0.14155c0.23375,-0.20718 0.44422,-0.44031 0.68408,-0.64038c0.34079,-0.28425 0.82925,-0.57174 1.20446,-0.8059l0.60648,-0.45486c0.01664,-0.01277 0.03399,-0.02466 0.05197,-0.03562c-0.13522,-0.2766 -0.26579,-0.5475 -0.37706,-0.80834zM543.95548,115.41961c-0.24578,-0.28001 -0.44327,-0.599 -0.66078,-0.90149c-0.07514,-0.10449 -0.09682,-0.27343 -0.21706,-0.31931c-0.27913,-0.10651 -0.59985,-0.03336 -0.89032,-0.10326c-0.06574,-0.01582 -0.97872,-0.41738 -1.10353,-0.47191c-1.57515,-0.27924 -3.08565,-0.36338 -4.68394,-0.36647c-0.42729,-0.00083 -0.85111,0.08042 -1.2741,0.14085c-0.11239,0.01606 -0.24539,-0.0671 -0.34055,-0.00519c-0.06236,0.04057 -0.02303,0.15445 0.00557,0.22313c0.18066,0.4339 0.472,0.81525 0.65995,1.24605c0.11113,0.25472 0.20331,0.51206 0.28294,0.77137c0.09231,-0.79901 0.26529,-1.9258 1.15771,-1.89993c0.41771,0.01211 0.66325,0.52953 0.89665,0.87616c0.16385,0.24333 0.16126,0.56452 0.25955,0.84091c0.2504,0.70415 0.45726,1.36178 0.50375,2.12074c0.01425,0.23262 0.0248,0.46744 0,0.69917c-0.01412,0.13191 -0.16784,0.25891 -0.11557,0.38083c0.07143,0.16661 0.74426,0.40353 0.86035,0.45361c0.72429,0.31247 0.84096,0.57578 1.55826,0.31632c0.76173,-0.47868 1.51945,-1.11998 2.20573,-1.70903c0.38589,-0.33122 1.08104,-1.26432 1.59378,-1.36093c0.08682,-0.01636 0.18085,-0.03414 0.27764,-0.04892c-0.32862,-0.29364 -0.69099,-0.55796 -0.97603,-0.88271z" stroke="none" stroke-width="0.5"/><path d="M549.14186,135.73974l-0.15573,-0.1858c-0.61916,-0.74281 -1.27403,-1.38808 -1.99608,-2.01497c0.15565,-0.31103 0.37868,-0.55527 0.62147,-0.88378c0.44486,0.02109 0.93349,0.01078 1.15688,0.00911c0.50342,-0.00376 1.025,-0.08854 1.49099,-0.27905l0.09006,-0.04456c-0.10904,0.81856 -0.32576,1.6318 -0.75968,2.44695c-0.17454,0.32789 -0.29996,0.64881 -0.4479,0.9521z" data-paper-data="{&quot;noHover&quot;:false,&quot;origItem&quot;:[&quot;Path&quot;,{&quot;applyMatrix&quot;:true,&quot;segments&quot;:[[[365.15045,156.61079],[-0.74328,1.39629],[1.84783,-3.47123]],[[368.38909,146.25787],[-0.46432,3.48577],[0,0]],[[368.0061,146.4481],[0,0],[-1.98438,0.8113]],[[361.68797,147.65024],[2.14377,-0.01601],[-0.95128,0.0071]],[[356.79543,147.60126],[1.89439,0.08983],[-1.03391,1.39894]],[[354.1665,151.33931],[0.66282,-1.32448],[3.07481,2.66952]],[[362.60852,159.85664],[-2.63662,-3.16317],[0,0]],[[363.26852,160.64863],[0,0],[0.63,-1.29152]]],&quot;closed&quot;:true}]}" stroke="none" stroke-width="0.5"/><path d="M550.44367,131.12032c-0.19534,-0.02388 -0.36741,0.06239 -0.36741,0.06239l-0.28336,0.14276c-0.64967,0.29792 -1.1139,0.08921 -1.81302,0.18705c-0.10485,0.01467 -0.20023,0.10403 -0.29697,0.1502c-0.03047,-0.02594 -0.06611,-0.05093 -0.10657,-0.07396c0.05372,-0.04637 0.12195,-0.10214 0.12728,-0.15248c0.02215,-0.20919 -0.06771,-0.41755 -0.08007,-0.62755c-0.02356,-0.40029 -0.28152,-1.51528 0.05763,-1.82687c0.10957,-0.10066 0.29438,-0.07127 0.42438,-0.14365c0.58827,-0.32754 1.79268,-1.28091 2.02761,-1.85228c0.01451,-0.03529 0.01676,-0.04992 0.02756,-0.08607l0.01929,-0.01773c0.12462,0.31158 0.23011,0.62394 0.29077,0.92681c0.10858,0.54218 -0.00894,1.2988 -0.00894,1.85023c0,0.50174 -0.00272,0.99076 -0.01819,1.46114z" data-paper-data="{&quot;noHover&quot;:false,&quot;origItem&quot;:[&quot;Path&quot;,{&quot;applyMatrix&quot;:true,&quot;segments&quot;:[[[368.85464,134.79044],[0,2.13661],[0,-2.3482]],[[368.90569,126.95977],[0.46236,2.30881],[-0.25828,-1.28972]],[[367.68085,123.02257],[0.5307,1.32684],[0,0]],[[367.64243,123.00816],[0,0],[-0.046,0.15391]],[[367.48126,123.46457],[0.06179,-0.15028],[-1.00043,2.43314]],[[358.91402,131.32896],[2.50508,-1.3948],[-0.5536,0.30824]],[[357.11058,131.92975],[0.46661,-0.42867],[-1.44427,1.32685]],[[356.84981,139.66156],[-0.10033,-1.7046],[0.05264,0.89426]],[[357.18314,142.32823],[0.09434,-0.89082],[-0.0227,0.21434]],[[356.6416,142.97782],[0.22875,-0.19748],[0.17229,0.09806]],[[357.09338,143.29158],[-0.12976,-0.11047],[0.41198,-0.19662]],[[358.35464,142.65024],[-0.44649,0.06248],[2.97712,-0.41664]],[[366.03651,141.85238],[-2.76656,1.26868],[0,0]],[367.2366,141.24751],[[368.79489,140.98596],[-0.83182,-0.10169],[0.06586,-2.0031]]],&quot;closed&quot;:true}]}" stroke="none" stroke-width="0.5"/><path d="M549.56776,125.56703c-0.01798,0.01095 -0.03543,0.02298 -0.05207,0.03575l-0.60793,0.4564c-0.37521,0.23416 -0.8672,0.5238 -1.20798,0.80805c-0.23986,0.20007 -0.45249,0.43381 -0.68624,0.64099c-0.06074,0.05383 -0.13425,0.19102 -0.19865,0.14163c-0.09327,-0.07152 -0.0101,-0.24386 -0.06845,-0.34588c-0.10871,-0.1901 -0.28202,-0.33594 -0.41995,-0.50604c-0.5181,-0.63894 -1.04847,-1.26928 -1.58373,-1.89375c-0.44953,-0.51509 -0.88545,-1.05373 -1.33286,-1.57066c-0.21975,-0.25389 -0.68971,-0.5125 -0.57702,-0.82881c0.15118,-0.42437 0.96945,-1.14485 1.2336,-1.50544c0.54977,-0.75049 0.95136,-1.58993 1.49081,-2.34741c0.08044,-0.11295 0.16977,-0.22236 0.25643,-0.33149c-0.01185,0.59014 -0.07826,1.18823 0.26109,1.76793c0.62625,1.06982 1.56619,2.03016 2.30462,3.02075c0.36164,0.48513 0.512,1.1216 0.81207,1.64848c0.11126,0.26084 0.24105,0.5329 0.37628,0.8095z" data-paper-data="{&quot;noHover&quot;:false,&quot;origItem&quot;:[&quot;Path&quot;,{&quot;applyMatrix&quot;:true,&quot;segments&quot;:[[[363.45008,113.90483],[0.4738,1.11074],[-1.2778,-2.24365]],[[359.98514,106.90763],[1.54001,2.06587],[-3.14456,-4.21832]],[[350.22308,94.09676],[2.66684,4.5557],[-1.44509,-2.46862]],[[349.11328,86.56808],[-0.05047,2.51306],[-0.36905,0.46469]],[[348.02449,87.97931],[0.34253,-0.48098],[-2.29719,3.22566]],[[341.70527,97.96022],[2.34113,-3.19589],[-1.12484,1.53552]],[[336.46511,104.34396],[0.64378,-1.80713],[-0.47985,1.34698]],[[338.92244,107.8601],[-0.93578,-1.08117],[1.90527,2.20128]],[[344.57887,114.51486],[-1.91427,-2.19345],[2.27938,2.65923]],[[351.2911,122.56906],[-2.20626,-2.72087],[0.58734,0.72434]],[[353.07479,124.72434],[-0.46295,-0.80952],[0.24846,0.43446]],[[353.36602,126.19729],[-0.39717,-0.30454],[0.27426,0.2103]],[[354.20964,125.59452],[-0.25864,0.22924],[0.99539,-0.88226]],[[357.12274,122.86754],[-1.02143,0.85197],[1.45121,-1.21045]],[[362.2518,119.4357],[-1.59779,0.99716],[0,0]],[[364.83443,117.49873],[0,0],[0.07087,-0.05436]],[[365.05575,117.34706],[-0.07657,0.04665],[-0.57583,-1.17787]]],&quot;closed&quot;:true}]}" stroke="none" stroke-width="0.5"/><path d="M544.94326,116.30211c-0.09679,0.01478 -0.19082,0.03267 -0.27764,0.04903c-0.51274,0.09661 -1.20877,1.03426 -1.59466,1.36549c-0.68627,0.58905 -1.45114,1.23702 -2.21287,1.71571c-0.7173,0.25946 -0.84002,-0.00347 -1.5643,-0.31594c-0.1161,-0.05009 -0.79281,-0.28855 -0.86424,-0.45516c-0.05228,-0.12193 0.10101,-0.24922 0.11512,-0.38112c0.0248,-0.23174 0.01223,-0.46831 -0.00202,-0.70093c-0.0465,-0.75896 -0.25508,-1.42997 -0.50548,-2.13411c-0.09829,-0.2764 -0.09417,-0.59982 -0.25802,-0.84316c-0.2334,-0.34663 -0.46135,-0.84849 -0.87906,-0.8606c-0.89242,-0.02588 -1.06257,1.09519 -1.15488,1.8942c-0.07963,-0.25931 -0.19444,-0.52264 -0.30557,-0.77737c-0.18795,-0.43079 -0.47849,-0.81394 -0.65915,-1.24784c-0.0286,-0.06869 -0.06775,-0.18289 -0.00538,-0.22347c0.09516,-0.06191 0.22834,0.02094 0.34073,0.00488c0.42299,-0.06042 0.84804,-0.14329 1.27533,-0.14246c1.5983,0.00309 3.12229,0.08442 4.69743,0.36366c0.12482,0.05453 1.04138,0.45859 1.10712,0.47441c0.29047,0.0699 0.61252,-0.00163 0.89165,0.10488c0.12024,0.04588 0.14253,0.21581 0.21766,0.3203c0.21751,0.30249 0.41611,0.62438 0.66189,0.90439c0.28504,0.32475 0.64772,0.59157 0.97634,0.8852z" data-paper-data="{&quot;noHover&quot;:false,&quot;origItem&quot;:[&quot;Path&quot;,{&quot;applyMatrix&quot;:true,&quot;segments&quot;:[[[341.19622,74.16564],[1.21381,1.38291],[-1.04661,-1.19241]],[[338.38237,70.32672],[0.92625,1.28813],[-0.31996,-0.44497]],[[337.45804,68.96696],[0.51204,0.19539],[-1.18865,-0.45358]],[[333.6667,68.52726],[1.23694,0.29767],[-0.27994,-0.06737]],[[328.96741,66.51768],[0.53153,0.23222],[-6.7076,-1.18912]],[[309.0213,64.9571],[6.80618,0.01315],[-1.81955,-0.00352]],[[303.59569,65.55689],[1.80127,-0.25731],[-0.47859,0.06837]],[[302.1455,65.5348],[0.40523,-0.26365],[-0.26556,0.17278]],[[302.16924,66.48498],[-0.12178,-0.29249],[0.76934,1.84771]],[[304.97957,71.79114],[-0.80038,-1.83448],[0.47325,1.08471]],[[306.18442,75.07595],[-0.3391,-1.10424],[0.39311,-3.40251]],[[311.11439,66.98531],[-3.80028,-0.1102],[1.77876,0.05158]],[[314.93268,70.71634],[-0.99392,-1.47607],[0.69773,1.0362]],[[316.03796,74.29729],[-0.41855,-1.17701],[1.0663,2.99854]],[[318.18314,83.32823],[-0.198,-3.23197],[0.06069,0.99059]],[[318.18314,86.30558],[0.1056,-0.98682],[-0.06011,0.56172]],[[317.69101,87.92732],[-0.22261,-0.51921],[0.30419,0.70948]],[[321.35473,89.85899],[-0.49438,-0.21329],[3.0843,1.33062]],[[327.99044,91.20601],[-3.05455,1.10489],[3.24374,-2.03843]],[[337.3833,83.92827],[-2.92243,2.50843],[1.64327,-1.41048]],[[344.17024,78.1329],[-2.18343,0.41139],[0.36971,-0.06966]],[[345.35255,77.92456],[-0.41217,0.06295],[-1.39939,-1.25042]]],&quot;closed&quot;:true}]}" stroke="none" stroke-width="0.5"/><path d="M545.94418,126.08681c0.39433,-0.13338 0.80971,-0.23739 1.16118,-0.46013l0.4442,-0.37017c0.10224,-0.08643 0.23443,-0.13854 0.3788,-0.13854c0.32423,0 0.58708,0.26284 0.58708,0.58708c0,0.14709 -0.05409,0.28154 -0.14346,0.38455l-0.46753,0.54545l-0.00865,-0.00741c-0.00717,0.01356 -0.01449,0.02705 -0.02197,0.04047c-0.12074,0.21669 -0.38195,0.31697 -0.56417,0.48529c-0.45403,0.41938 -0.8945,0.85312 -1.34845,1.27216c0.14446,0.24002 0.28628,0.48429 0.43261,0.73016c0.15262,0.25644 0.36762,0.48566 0.45506,0.77098c0.43014,1.40348 -0.29116,3.31481 -1.00796,4.44507c-0.37124,-0.03862 -0.78103,0.05333 -1.11373,-0.11587c-0.40853,-0.20776 -0.67541,-0.62084 -0.99011,-0.95404c-0.76875,-0.81393 -1.46994,-1.73338 -2.14694,-2.62333c-1.68211,-2.21121 -3.60054,-4.40269 -5.04164,-6.77831c-0.67329,-1.10991 -1.02108,-2.51079 -1.44449,-3.78389c-0.13139,-0.00944 -0.27574,-0.07133 -0.40442,-0.2429c-0.35225,-0.46966 0.11742,-0.82191 0.11742,-0.82191l0.01515,-0.01113c0.0339,-0.14246 0.13004,-0.29136 0.36118,-0.38026c0.10098,-0.03884 0.19051,-0.05191 0.26938,-0.04739c0.4277,-0.27643 0.71661,-0.56114 0.97957,-0.91209l0.10828,-0.48727c0.05387,-0.26864 0.2911,-0.47101 0.5756,-0.47101c0.23436,0 0.43665,0.13733 0.53078,0.3359l0.30742,0.61484l-0.0154,0.0077l0.03603,0.03843c0.09568,0.31645 0.29806,1.48079 0.56421,1.74875c0.22067,0.22218 1.2774,0.0857 1.51499,0.07348c1.11798,-0.05751 2.42181,-0.86737 3.25774,-1.5841c0.20764,-0.17803 0.33186,-0.47059 0.58414,-0.57625c0.02909,-0.01218 0.05839,-0.02366 0.08788,-0.03451l-0.00716,-0.01432l0.7722,-0.3861c0.08158,-0.04295 0.17451,-0.06726 0.27311,-0.06726c0.32423,0 0.58708,0.26284 0.58708,0.58708c0,0.1097 -0.03009,0.21238 -0.08247,0.30022l-0.30799,0.53898l-0.00942,-0.00538l-0.00595,0.03077c-0.60032,0.83762 -1.15086,1.73464 -1.67321,2.62491c-0.41128,0.41545 -1.35669,1.10237 -1.65791,1.61797c-0.20658,0.35359 0.06436,1.01108 0.26619,1.28948c0.72738,1.0033 1.51568,1.88171 2.42152,2.72205c0.03528,0.03273 0.06994,0.06577 0.10403,0.09912c0.41284,-0.22105 0.81103,-0.462 1.27019,-0.61731zM537.09117,118.91408c-0.00074,0.00069 -0.00147,0.00138 -0.00221,0.00207c0.10384,0.38044 0.23255,0.79186 0.40178,1.09363c-0.16829,-0.30408 -0.29632,-0.71611 -0.39957,-1.0957zM545.3192,133.31988c0.00007,-0.00101 0.00015,-0.00202 0.00022,-0.00304c-0.01116,-0.02414 -0.02554,-0.05051 -0.04273,-0.07879c0.01757,0.02961 0.03189,0.05701 0.04251,0.08182zM542.97238,119.64468c-0.00175,0.0011 -0.00351,0.0022 -0.00526,0.0033c-0.05632,0.09407 -0.11355,0.19281 -0.17041,0.2918c0.05811,-0.09849 0.11666,-0.19688 0.17568,-0.2951z" stroke="none" stroke-width="0.5"/><path d="M533.23319,112.98949c-0.02928,-0.03917 -0.05178,-0.08058 -0.06906,-0.1211c0.0869,0.51206 0.18017,1.02302 0.31638,1.52082c0.12095,0.44204 0.3247,0.86255 0.4058,1.31361c0.12323,0.68546 0.16328,1.37109 0.37409,2.04277c0.58374,1.85983 1.21517,3.70431 1.80305,5.56653c1.09208,4.01352 3.42863,7.65286 6.41214,10.53824c0.95705,0.92557 2.12811,1.43796 3.19032,2.19668c0.93448,0.46724 2.96922,1.52652 1.50762,2.79343c-0.24038,0.20836 -0.63183,0.07834 -0.94939,0.09696c-0.67996,0.03986 -1.3814,0.00466 -2.0614,-0.02549c-2.07457,-0.09201 -4.10156,-0.3125 -5.97219,-1.30031c-1.71175,-0.90391 -3.12677,-2.67697 -4.33076,-4.14912c-0.98743,-1.3828 -2.24375,-2.85908 -2.89405,-4.43724c-0.1297,-0.31475 -0.1547,-0.66351 -0.25297,-0.98944c-0.37627,-1.24793 -1.02162,-2.43852 -1.33722,-3.70151c-0.41589,-1.66433 -0.48969,-3.37862 -0.48969,-5.08347c0,0 0,-0.0484 0.0139,-0.11742h-0.00001c-0.0139,-0.06901 -0.0139,-0.11742 -0.0139,-0.11742l0.00453,-0.30765c0.22397,-1.79075 0.82722,-3.3921 1.48661,-5.075c0.11764,-0.30024 0.49658,-1.3844 0.77075,-1.75561l0.53909,-1.02918c0.09617,-0.193 0.29549,-0.32559 0.52577,-0.32559c0.27939,0 0.5132,0.19516 0.57253,0.4566l0.15357,0.6143l-0.0044,0.0011l0.00763,0.01249c0.06106,0.30511 0.11347,0.61343 0.16528,0.92233l0.0025,-0.56502c0.32991,-1.68771 0.71525,-3.33052 1.6072,-4.82339c0.57005,-0.94377 1.09124,-2.25677 2.05887,-2.88861c0.68942,-0.45017 1.43166,-0.33179 2.20182,-0.33179c1.91574,0 3.7241,-0.04442 5.44877,0.89435c0.19331,0.10522 0.37185,0.23625 0.56544,0.34095c0.25444,0.1376 0.64371,0.12889 0.77754,0.38533c0.89127,1.70785 -0.47145,1.54958 -1.50808,1.54958c-2.42231,0 -5.72194,-0.45427 -7.54755,1.56654c-0.44952,0.49759 -0.67918,1.14599 -0.96141,1.7345c-0.47183,0.98387 -1.00015,1.87324 -1.39304,2.89788c0,0 -0.21075,0.54794 -0.75869,0.3372c-0.3859,-0.14842 -0.39549,-0.4641 -0.36742,-0.63782z" stroke="none" stroke-width="0.5"/><path d="M526.82398,120.91612c0.34137,-0.9779 1.07041,-1.68366 1.95122,-2.28474l-0.0305,-0.0305l0.54794,-0.54794l0.15333,0.15333c0.15983,-0.09509 0.32237,-0.18835 0.48646,-0.28059l0.16821,0.54239h0.1942v0.62621c0,2.05229 0.13902,4.06109 0.46227,6.09097c0.05226,0.32821 0.13415,0.65261 0.16195,0.98379c0.01836,0.21872 -0.10221,0.45291 -0.02412,0.65803c0.11796,0.30982 0.38784,0.53776 0.58176,0.80664c0.94096,1.56918 1.67713,3.21189 2.64116,4.76705c0.52899,0.85335 0.49442,1.32551 1.28955,1.97696c1.07696,0.88236 2.34441,1.70276 3.62008,2.26254c0.88566,0.38863 1.87473,0.66513 2.78697,1.00479c0.33488,0.12469 0.7327,0.12742 1.01407,0.34771c0.02794,0.02188 0.0553,0.04437 0.08212,0.06742l0.00625,-0.00764l0.85724,0.70138c0.13362,0.10761 0.21912,0.27256 0.21912,0.45748c0,0.27939 -0.19516,0.5132 -0.4566,0.57253l-0.6143,0.15357l-0.00097,-0.00386l-0.01262,0.00709c-0.95349,0.1907 -1.89552,0.43704 -2.79073,0.82656c-0.67182,0.29232 -0.89811,0.60936 -1.61682,0.74385c-0.97972,0.18334 -1.8642,-0.23611 -2.74342,-0.57817c-2.33249,-0.90744 -4.7741,-2.17565 -6.25294,-4.25955c-0.66888,-1.68366 -1.88079,-3.09128 -2.60722,-4.74649c-1.4469,-3.29679 -1.14511,-7.42469 -0.18094,-10.80219c0,0 0.02946,-0.10313 0.10728,-0.20863z" stroke="none" stroke-width="0.5"/><path d="M523.76773,132.72586l-0.18929,-0.06597c-0.18847,-0.19851 -0.43322,-0.35584 -0.56541,-0.59553c-0.42122,-0.76377 -0.43133,-2.45983 0.17403,-3.13095c0.16304,-0.18075 0.44899,-0.19268 0.6563,-0.32026c0.4845,-0.29815 0.81883,-0.88039 1.19173,-1.29049c0.11645,-0.12806 0.29345,-0.21185 0.36479,-0.36956c0.43038,-0.95142 -1.52797,-1.44911 -1.85105,-1.83967c-0.22225,-0.26867 -0.25081,-0.6507 -0.37621,-0.97605c0.26548,-1.20683 0.71302,-2.67985 1.853,-3.35678c0.74248,-0.44089 2.04713,-0.58491 2.60679,0.28904c0.2085,0.32558 0.02083,1.36489 0.0003,1.73289c-0.10797,1.93527 -0.68847,3.83409 -0.94339,5.75984c-0.11798,0.8913 -0.26288,1.03817 0.17807,1.77689c0.72766,1.69787 1.99391,3.06089 3.07966,4.5338c0.6191,0.83986 1.14532,1.81009 1.9957,2.4628c0.36213,0.27795 0.80488,0.43174 1.19636,0.66657c0.84172,0.50493 1.6407,1.07935 2.53591,1.4929c0.75095,0.3469 1.80088,0.42266 2.50733,0.8002c0.01527,0.00816 0.03046,0.01643 0.0456,0.02481l0.00294,-0.00705l0.92676,0.38615c0.21881,0.08534 0.37384,0.29814 0.37384,0.54715c0,0.24689 -0.1524,0.45818 -0.36825,0.54494l-0.5355,0.2295l-0.0063,-0.01471l-0.03753,0.03146c-1.34982,0.32896 -2.38879,1.47951 -3.76168,1.74339c-0.08787,0.01689 -1.55923,0.00599 -1.57779,0.00592c-0.7157,-0.15578 -1.58682,-0.26852 -2.2436,-0.61149c-1.79423,-0.93693 -3.21287,-2.59437 -4.08945,-4.40867c-0.46503,-0.96249 -0.75997,-2.01335 -1.2472,-2.96418c-0.5532,-1.07959 -1.34679,-2.00116 -1.89646,-3.07688z" stroke="none" stroke-width="0.5"/><path d="M487.40065,127.65612c-0.09272,0.15543 -0.18544,0.31087 -0.27816,0.4663c-0.01556,0.14201 -0.10213,0.53697 -0.58366,0.53697c-0.58708,0 -0.58708,-0.58708 -0.58708,-0.58708l0.08366,-0.41946c0.10991,-0.18197 0.21982,-0.36393 0.32973,-0.5459c0.25481,-0.63702 0.63529,-1.15354 0.93932,-1.76123c0.39331,-0.78613 0.55338,-1.69768 0.94523,-2.47731c0.94571,-1.88159 2.95853,-3.63809 4.5653,-4.91987c0.90917,-0.72528 1.39995,-1.98093 2.84379,-1.70131c0.37624,0.07286 1.02768,1.36806 1.15416,1.58954c0.3303,0.85464 0.58804,2.39188 0.09039,3.26078c-0.43909,0.76667 -2.0378,1.25081 -2.7624,1.71207c-1.19122,0.75829 -2.13994,1.74657 -3.27005,2.57112c-0.97175,0.70901 -1.86815,1.15461 -2.55203,2.19532c0,0 -0.32565,0.48848 -0.81413,0.16283c-0.03993,-0.02662 -0.07442,-0.05433 -0.10409,-0.08277z" stroke="none" stroke-width="0.5"/><path d="M523.23606,121.54582c0.15566,0.48555 0.65268,0.98177 0.46699,1.45664c-0.14288,0.3654 -0.75315,0.24526 -1.14432,0.27557c-0.61216,0.04743 -1.37046,-0.27738 -2.05226,-0.58416c-0.24272,0.00009 -0.45432,-0.00006 -0.47303,-0.00006c-0.94485,0 -1.93663,0.08641 -2.87581,-0.00286c-0.69337,-0.0659 -1.29113,-0.41853 -1.98663,-0.4688c-1.86157,-0.13456 -3.75345,-0.1281 -5.6196,-0.23371c-1.16982,-0.0662 -2.32333,-0.23773 -3.49035,-0.23395c-1.05674,0 -2.11347,0 -3.17021,0c-0.04763,0 -0.10561,-0.00201 -0.17177,-0.00539c-1.37125,0.39094 -2.72682,0.86079 -4.09033,1.26479c-0.8106,0.39696 -1.67648,0.78721 -2.5147,1.06924c-0.3409,0.0673 -0.87849,0.18199 -1.373,0.15302c-0.31619,0.0624 -0.64843,0.1003 -1.00858,0.10147c0,0 -0.58708,0 -0.58708,-0.58708c0,-0.48224 0.39612,-0.56835 0.53759,-0.58373c0.10154,-0.20271 0.29021,-0.40096 0.40173,-0.59042c0.12894,-0.21907 0.26731,-0.4524 0.47864,-0.59367c0.16061,-0.10737 0.29808,-0.17582 0.42456,-0.22193c0.22699,-0.27897 0.91077,-0.80508 1.08557,-0.94006c0.84365,-0.65146 1.97432,-1.08435 2.95512,-1.48821c4.31,-1.7747 9.02442,-1.80497 13.6077,-1.80497c1.63871,0 3.1859,-0.02619 4.79572,0.24326c0.63235,0.10584 1.15619,0.09754 1.73592,0.4315c0.19185,0.11051 0.27989,0.35562 0.46966,0.46966c0.20051,0.1205 0.45907,0.10959 0.66831,0.21421c0.79145,0.39573 1.52182,0.98331 2.286,1.44182l0.01724,0.02743l0.00743,-0.00991l0.46419,0.34815c0.1457,0.10683 0.2403,0.27925 0.2403,0.47376c0,0.13694 -0.04689,0.26293 -0.12549,0.3628c0.0135,0.0052 0.02699,0.0104 0.04048,0.0156zM501.84918,120.58034c0.00439,0 0.00879,0 0.01319,0c0.40556,-0.06228 0.81184,-0.10808 1.21936,-0.14175c0.25137,-0.06605 0.50335,-0.12896 0.75607,-0.18795c0.03981,-0.24503 0.2313,-0.43918 0.47498,-0.48294l0.57641,-0.11528l0.00084,0.00419l0.00846,-0.00598c0.62284,-0.10124 1.21236,-0.29222 1.81215,-0.46887c-1.27488,0.06617 -2.23186,0.43987 -3.50044,0.89309c-0.45628,0.16301 -0.90945,0.33254 -1.36101,0.50548zM513.71197,118.70085c-0.19162,-0.00039 -0.3841,-0.00011 -0.57772,0.00023c0.10794,0.00039 0.21593,0.00062 0.32396,0.00062c0.08445,0 0.16904,-0.00033 0.25376,-0.00085z" stroke="none" stroke-width="0.5"/><path d="M491.45439,125.16263c0.70294,-1.04469 1.91147,-1.35231 3.00724,-2.01668c1.18294,-0.87476 2.67299,-1.05689 4.07317,-1.37709c0.94442,-0.21597 1.79766,-0.73262 2.7718,-0.83342c0.71435,-0.07392 1.3995,0.05131 2.10233,0.11656c1.14544,0.10634 2.34993,0.06072 3.50063,0.11602c1.47383,0.07083 2.80447,-0.03357 4.24421,0.37423c0.86081,0.24648 1.65881,0.29886 2.51589,0.45465c1.0675,0.19404 1.98994,0.52521 3.10541,0.58022c1.01511,0.05006 2.12791,-0.12468 3.13457,0.00987c0.69403,0.09276 1.5579,0.43116 2.24866,0.59078c1.32037,0.30512 3.25203,0.36078 3.7246,1.94246c0.0822,0.27514 0.0142,0.57413 0.0213,0.8612c-0.0071,0.3262 0.08334,0.66957 -0.0213,0.97862c-0.48808,1.44147 -1.81871,1.07695 -2.94734,0.76294c-1.59379,-0.44343 -2.93326,-1.62289 -4.45073,-2.27886c-3.568,-1.54238 -7.37371,-1.70914 -11.16909,-1.07269c-0.77293,0.12877 -1.58361,0.18597 -2.3453,0.31246c-1.61787,0.26866 -3.17246,0.92127 -4.80778,1.17322c-2.63805,0.40644 -5.28476,0.46826 -7.94564,0.47567c-0.08163,0.12516 -0.22584,0.23572 -0.4806,0.23572c-0.30011,0 -0.44681,-0.15341 -0.51851,-0.30339c-0.14998,-0.07171 -0.30339,-0.2184 -0.30339,-0.51851c0,-0.48485 0.40042,-0.56927 0.53987,-0.58398z" stroke="none" stroke-width="0.5"/><path d="M494.25984,126.39755c0.09988,-0.05811 0.23312,-0.08778 0.40968,-0.05247c0.57567,0.11513 0.46054,0.69081 0.46054,0.69081l-0.14551,0.68364c-0.13214,0.22581 -0.26427,0.45162 -0.39641,0.67743c-0.45074,0.74768 -1.06007,1.73791 -1.21548,2.60995c-0.09063,0.50854 0.00758,1.14987 0.00758,1.66719c0,1.64426 0.335,3.19156 0.79757,4.76415c0.29755,1.01157 1.66389,2.1298 1.29691,3.25203c0.80498,0.20888 1.57733,0.61978 2.29755,0.97981c0.36475,0.21855 0.68373,0.53427 1.08807,0.66588c0.7777,0.25315 1.7534,0.31374 2.54698,0.53081c1.46711,0.40131 2.83017,1.04847 4.35935,1.19944c0.60623,0.05985 1.21376,0.06326 1.82079,0.11456c0.45349,0.03832 0.99372,-0.10553 1.35444,0.17195c0.26403,0.2031 0.14138,1.16966 0.16909,1.53143c0.07899,1.03128 0.78101,1.23667 1.64667,1.232c0.88996,0 1.96976,0.1702 2.84134,0.00758c1.08569,-0.20257 2.15965,-0.72356 3.21438,-1.03998c0.54219,-0.16266 1.21151,-0.22463 1.67684,-0.5983c0.51283,-0.41181 0.58653,-1.18729 1.01069,-1.60239c0.20023,-0.19595 0.50938,-0.2335 0.7617,-0.35526c0.17129,-0.08266 1.20235,-0.63231 1.42104,-0.628c0.0372,0.00073 0.0742,0.00297 0.11102,0.00651v-0.01711h0.58708c0.32423,0 0.58708,0.26284 0.58708,0.58708c0,0.1343 -0.0451,0.25807 -0.12097,0.35699l-0.34869,0.46492l-0.0105,-0.00788l-0.01565,0.04029c-1.02208,1.02208 -1.58649,2.04135 -3.0006,2.60699c-0.57613,0.34799 -1.16535,0.78497 -1.77679,1.06417c-0.48851,0.22307 -1.02451,0.33544 -1.50444,0.57642c-0.60272,0.30263 -0.67533,0.50933 -1.37728,0.74008c-1.06239,0.34922 -2.37544,0.14619 -3.46917,0.14619c-2.24162,0 -4.49074,0.05489 -6.73098,-0.02091c-0.98171,-0.08168 -1.99597,-0.11002 -2.97431,-0.21903c-2.16756,-0.24152 -4.33569,-0.94174 -6.42443,-1.54388c-0.82868,-0.23889 -1.47377,-0.57788 -2.2292,-0.9862c-0.40724,-0.22011 -0.8954,-0.60635 -1.39999,-0.63596c-0.21085,-0.01237 -0.41258,0.09657 -0.62287,0.11635c-0.83787,0.0788 -1.73091,0.0023 -2.57199,-0.00086c-0.24698,-0.05135 -0.50671,-0.06035 -0.74092,-0.15405c-1.43171,-0.57279 -1.76929,-2.04036 -2.69753,-3.0983c-0.87071,-0.99238 -2.19969,-2.20063 -2.58798,-3.51556c-0.32169,-1.0894 0.11888,-3.0819 0.81954,-3.93791c0.49214,-0.60126 1.17618,-0.59041 1.83409,-0.85446c0.49788,-0.29939 1.04803,-0.51463 1.51839,-0.85563c0.66665,-0.4833 0.49531,-1.23715 0.63129,-1.89946c0.01177,-0.05734 0.49613,-1.28285 0.53435,-1.35075c1.15635,-2.05419 3.92955,-3.51951 6.10384,-4.15156c0,0 0.24158,-0.06902 0.45382,0.04128zM491.8825,141.76702c-0.01312,-0.19072 0.01053,-0.40642 -0.02581,-0.58119c-0.17676,-0.85018 -0.46185,-1.61969 -0.78277,-2.42295c-0.12788,-0.32008 -0.35047,-1.30792 -0.76786,-1.40883c-0.30813,-0.07449 -0.60934,0.17803 -0.92022,0.24007c-0.90534,0.18068 -3.14877,0.36531 -2.61098,1.82181c0.06242,0.16907 0.22336,0.2829 0.33503,0.42435c0.15215,0.82676 0.37974,2.08277 1.23463,2.51678c0.38418,0.19504 1.10616,0.06144 1.51326,0.06248c0.51676,0.00132 1.00736,-0.01277 1.4736,-0.27696c0.18953,-0.1074 0.3714,-0.23727 0.55112,-0.37556z" stroke="none" stroke-width="0.5"/><path d="M512.65382,127.86678c0.08575,-0.67329 -0.33912,-1.49475 -0.78489,-1.93988c-0.15632,-0.1561 -0.43355,-0.20718 -0.52051,-0.41026c-0.17554,-0.40995 -0.47211,-0.95163 -0.2202,-1.31962c0.30434,-0.44458 1.63719,0.06662 1.99864,0.15713c0.85542,0.2142 1.70195,0.63963 2.55583,0.81597c0.50613,0.10453 0.52146,-0.15789 1.06313,-0.01059h0.58708c0.32423,0 0.58708,0.26284 0.58708,0.58708c0,0.252 -0.15877,0.46691 -0.38174,0.55016l-0.57438,0.22975c-1.21337,0.32628 0.04678,1.27388 0.2215,1.8524c0.08519,0.28207 0.06505,0.59263 0.01953,0.88375c-0.13844,0.88547 -0.87653,2.66414 -1.94198,2.70227c-0.31365,0.01122 -0.45409,-0.43391 -0.69343,-0.63694c-0.63313,-0.53708 -1.22575,-1.09526 -1.78635,-1.69523c-0.08611,0.00144 -0.18343,-0.01917 -0.29196,-0.07344c-0.32998,-0.16499 -0.34891,-0.43367 -0.31742,-0.61056c-0.03541,-0.04171 -0.0707,-0.08363 -0.10587,-0.12578c0,0 -0.37584,-0.451 0.07517,-0.82684c0.19148,-0.15956 0.3694,-0.17009 0.51077,-0.12937z" stroke="none" stroke-width="0.5"/><path d="M487.15384,133.2121c-0.00216,0.01525 -0.00481,0.03084 -0.00801,0.04678c-0.11513,0.57567 -0.69081,0.46054 -0.69081,0.46054l-0.58708,-0.11742c-0.33912,-0.06787 -1.49525,-0.28022 -1.62438,-0.43103c-0.42259,-0.49355 -0.03674,-1.40044 0.13153,-1.87296c0.47397,-1.33103 1.09909,-2.79738 1.9658,-3.91489c0.22917,-0.29549 0.75047,-0.97757 1.07429,-1.18333c1.04817,-0.66603 2.20674,-0.5706 3.38192,-0.5706c0.85121,0 1.58654,-0.00325 2.3483,0.08909v-0.08909h0.70449c0.32423,0 0.58708,0.26284 0.58708,0.58708c0,0.1343 -0.0451,0.25807 -0.12097,0.35699l-0.34869,0.46492l-0.03928,-0.02946l-0.05421,0.12795c-1.25687,0.65532 -2.35549,1.42749 -3.39488,2.33962c-0.36903,0.32384 -0.56784,0.80736 -0.91646,1.15308c-0.87629,0.86899 -1.699,1.56264 -2.40864,2.58275z" stroke="none" stroke-width="0.5"/><path d="M501.18112,127.12869c-0.16304,0.04837 -0.50012,0.09015 -0.69401,-0.29763c-0.26255,-0.5251 0.26255,-0.78765 0.26255,-0.78765l0.51417,-0.25482c1.25994,-0.4993 2.48296,-1.05046 3.76668,-1.53006c0.5328,-0.19906 1.11265,-0.25727 1.64075,-0.46849c0.47976,-0.19188 0.86723,-0.60246 1.36838,-0.72828c0.01865,-0.00468 1.35514,-0.0285 1.4843,-0.01285c1.1053,0.13396 1.5424,0.84007 2.32286,1.54969c0.93938,0.85412 2.40035,1.65986 1.93352,3.21229c-0.07132,0.23719 -0.28134,0.40773 -0.42201,0.61159c-0.44361,0.73106 -1.18735,1.8133 -1.86208,2.34535c-0.275,0.21685 -0.57916,0.45073 -0.92651,0.4954c-0.29029,0.03733 -0.5577,-0.17783 -0.83589,-0.26877c-0.93813,-0.30671 -1.6766,-0.77504 -2.53625,-1.20539c-0.47904,-0.23981 -1.01436,-0.35041 -1.50094,-0.57451c-1.51716,-0.69876 -2.97394,-1.42315 -4.51551,-2.08587z" stroke="none" stroke-width="0.5"/><path d="M517.33498,129.9823c-0.199,-0.00967 -0.35434,-0.12617 -0.35434,-0.12617l-0.56814,-0.44574c-0.15763,-0.31526 -0.38673,-0.604 -0.47289,-0.94578c-0.07744,-0.30719 -0.0593,-0.63826 -0.00511,-0.95039c0.36915,-2.12633 2.62592,-2.3547 4.33376,-2.3547c0.06772,0 1.33139,-0.00356 1.40259,0.01059c0.09576,0.01904 1.22341,0.48076 1.33644,0.52657c0.52246,0.34656 1.21056,0.49557 1.60222,0.98513c0.2305,0.28812 0.33667,1.4646 0.17596,1.79305c-0.1533,0.3133 -0.97786,0.76532 -1.27978,0.94536c-0.5965,0.35569 -1.14126,0.81465 -1.69107,1.24216c-0.21896,0.17025 -0.35878,0.45731 -0.61719,0.55804c-0.77101,0.30052 -2.51313,0.05557 -3.16491,-0.42866c-0.25566,-0.18994 -0.48419,-0.48529 -0.69753,-0.80946z" stroke="none" stroke-width="0.5"/><path d="M488.20412,137.30952c-0.02934,-0.36372 0.33438,-0.54558 0.33438,-0.54558l0.49738,-0.1794c0.75433,0 1.99514,-0.21469 2.66131,0.20782c0.4387,0.27825 0.66121,0.89793 0.82532,1.35148c0.52864,1.46104 0.28025,3.21376 0.26307,4.75774c-0.26204,0.76474 -0.23379,1.1216 -0.97534,1.57951c-1.33694,0.82556 -3.36103,0.32965 -4.45058,-0.64296c-0.55374,-0.49431 -1.10462,-1.09366 -1.35498,-1.81216c-0.22667,-0.65052 -0.03643,-1.37908 0.00639,-2.06663c0.02894,-0.46462 -0.02645,-0.95569 0.14315,-1.38921c0.27677,-0.70746 1.1878,-1.01039 2.04991,-1.2606z" stroke="none" stroke-width="0.5"/><path d="M516.4363,130.70215c0.03914,-0.19569 0.07828,-0.39138 0.11742,-0.58708c0,0 0.11514,-0.57567 0.69081,-0.46054c0.57567,0.11513 0.46054,0.69081 0.46054,0.69081c-0.01396,0.06977 -0.02791,0.13954 -0.04186,0.20932c1.2837,-0.12079 2.67529,0.31827 3.87809,-0.1827l0.05706,0.01161l-0.00491,-0.02455l0.57519,-0.11504c0.0409,-0.00902 0.08341,-0.01378 0.12702,-0.01378c0.32423,0 0.58708,0.26284 0.58708,0.58708c0,0.24407 -0.14894,0.45335 -0.36089,0.54192l-1.04449,0.46422l-0.00399,-0.00898c-0.0187,0.0109 -0.03755,0.02157 -0.05658,0.03199c-0.92698,0.50797 -1.82338,0.06863 -2.58071,0.79496c-0.10629,0.10194 -0.28332,0.1443 -0.3424,0.2792c-0.05433,0.12407 0.05139,0.26883 0.04321,0.40403c-0.06815,1.12585 -0.11594,2.22863 -0.11594,3.36342c0,0.29348 0.02544,1.39082 -0.12434,1.53544c-0.33724,0.32563 -0.8718,0.35863 -1.33033,0.45621c-0.60499,0.12875 -0.94993,-0.06124 -1.52913,-0.11502c-0.59387,-0.05514 -1.23458,0.002 -1.83022,0.002c-0.38663,0 -0.71397,-0.0676 -1.01936,-0.01278c-0.07925,0.06941 -0.1903,0.12094 -0.34592,0.12908c-0.05388,0.03255 -0.10751,0.07167 -0.16112,0.11854l-0.46966,0.11742c0,0 -0.58708,0 -0.58708,-0.58708c0,-0.46949 0.37546,-0.56352 0.52586,-0.58236c0.02057,-0.01246 0.04097,-0.0245 0.06122,-0.03613c0,-0.96799 0,-1.93598 0,-2.90396c0,-0.19431 0.14393,-1.17985 -0.06288,-1.3461c-0.3124,-0.25113 -0.75257,-0.29347 -1.08661,-0.51502c-1.3143,-0.87172 -3.15683,-1.24271 -4.70297,-1.55235c-1.7188,-0.24788 -3.45982,-0.72996 -4.97578,-1.57912c-0.40081,-0.22451 -0.87978,-0.35523 -1.03197,-0.68987c-0.19183,0.31001 -0.37664,0.6316 -0.61194,0.90084c-0.26114,0.2988 -0.56403,0.57702 -0.73948,0.93296c-0.61192,1.24137 -0.52593,2.51066 -0.52593,3.84865c0,0.46387 -0.1433,0.94554 -0.01571,1.39151c0.15493,0.54149 0.56355,1.20195 0.85513,1.68594c0.92839,1.24135 2.23376,2.17637 3.69546,2.70766c0.85788,0.31182 1.85243,0.20306 2.74485,0.20306c0.43267,0 0.87268,0.09021 1.29796,0.01059c0.40027,-0.07494 0.76525,-0.30694 1.17004,-0.35144c0.33071,-0.03636 0.72938,-0.24733 0.99688,-0.04951c0.97605,0.7218 0.32339,2.30961 0.12386,3.21311c-0.20855,0.25171 -0.33969,0.59675 -0.62564,0.75513c-0.13761,0.07622 -1.19085,0.06198 -1.4367,0.06198c-1.23135,0 -2.23663,-0.07143 -3.42914,-0.36956c-1.20894,-0.30224 -2.45066,-0.52682 -3.64018,-0.92291c-0.52442,-0.17462 -1.00936,-0.46298 -1.54276,-0.60789c-0.52296,-0.14208 -1.10491,-0.23517 -1.51527,-0.58913c-0.9561,-0.82472 -1.75748,-1.96988 -2.15655,-3.1566c-1.24296,-2.51422 -0.98401,-5.59484 -0.98401,-8.3263c0,-1.27968 -0.16943,-2.71706 0.87644,-3.70275c0.79505,-0.7493 1.8508,-0.52539 2.83922,-0.52272c1.13006,-0.16331 2.00976,-0.67241 3.15397,-0.70311c0.31338,-0.00841 0.69171,-0.23289 0.93959,-0.04096c0.3395,0.26286 0.44351,0.75442 0.5261,1.17578c0.0515,0.26275 -0.06959,0.53269 -0.14062,0.79084c-0.02597,0.0944 -0.06057,0.18593 -0.09824,0.27642c0.28512,0.00744 0.5442,0.02596 0.70966,0.02596c0.13412,0 1.44472,-0.00305 1.52,0.01059c0.90929,0.16478 1.80491,0.70078 2.61557,1.10729c0.67456,0.33826 1.39919,0.58247 2.07726,0.92286c0.80341,0.27017 1.43878,0.69397 2.2989,0.78008c0.30457,0.03049 0.59188,0.02363 0.8783,0.02618c0.09527,-0.11325 0.20381,-0.22076 0.29254,-0.32674c0.14339,-0.17128 0.35503,-0.27119 0.53254,-0.40678l0.5395,-0.1079c0.27015,-0.07741 0.51724,0.1079 0.51724,0.1079c0.43583,0.33291 0.67117,0.43873 0.93932,0.93932c0.09258,0.17283 0.24737,0.35438 0.35205,0.53759c0.27561,0.04558 0.56488,0.06731 0.88166,0.05234c0.30207,-0.01428 0.51098,-0.31761 0.76936,-0.48038z" stroke="none" stroke-width="0.5"/><path d="M520.11931,147.20086c-0.41512,-0.41512 0,-0.83025 0,-0.83025l0.1803,-0.17195c0.69224,-0.91848 1.62064,-1.73957 2.18876,-2.75334c0.36753,-0.65584 0.3052,-1.91018 0.86275,-2.41195c0.23489,-0.21139 0.62476,-0.10843 0.94061,-0.11838c0.83413,-0.02628 1.10984,-0.02199 1.49627,0.87109c0.05092,0.11769 -0.12317,0.23073 -0.14182,0.3576c-0.00989,0.06727 0.0523,-0.14074 0.1141,-0.16909c0.12457,-0.05714 0.2702,-0.04609 0.4053,-0.06914c0.51536,-0.41276 0.9489,-0.76955 1.59874,-0.96611c2.11495,-0.63975 5.40151,0.25419 5.09586,2.96889c-0.13893,1.23398 -1.16463,1.9879 -1.89143,2.89748c-0.7145,0.89419 -1.42397,1.78037 -2.24139,2.59558c-0.24358,0.32477 -0.55255,0.5962 -0.80268,0.91596c-0.68124,0.87089 -1.52456,2.87891 -2.94493,1.37682c-0.18556,-0.19624 -0.02903,-0.54216 -0.09034,-0.80519c-0.23821,-1.02189 -0.85722,-1.87018 -1.16041,-2.87911c-0.07656,-0.25478 -0.05265,-0.68089 -0.28756,-0.89448c-0.17965,-0.16334 -0.61666,-0.0963 -0.79351,-0.09471c-0.50768,0.00456 -1.0154,0.00002 -1.5231,0l-0.17524,0.18029c0,0 -0.41513,0.41512 -0.83025,0z" stroke="none" stroke-width="0.5"/><path d="M509.1394,145.39763c-0.08331,0.0577 -0.19547,0.09654 -0.34648,0.09654c-0.58708,0 -0.58708,-0.58708 -0.58708,-0.58708l0.04199,-0.33545c0.2767,-0.69174 0.50097,-1.2411 0.95187,-1.8409c0.10913,-0.08336 1.0075,-0.77775 1.11482,-0.82531c0.80433,-0.35642 1.88961,-0.36065 2.72872,-0.51321c1.77102,-0.322 3.3813,-0.54368 5.20074,-0.35697c0.7637,0.07837 1.58197,-0.12919 2.33887,-0.00086c0.36449,0.0618 0.80978,0.02595 1.07119,0.28736c0.33931,0.33931 0.28789,1.23812 0.28937,1.70669c-0.01004,0.25758 0.05575,0.52968 -0.03013,0.77272c-0.45543,1.28891 -1.92156,1.54424 -3.06726,1.68846c-1.4265,0.17957 -2.86315,0.12195 -4.29976,0.12195c-1.82684,0 -3.5982,0.02542 -5.40686,-0.21395z" stroke="none" stroke-width="0.5"/><path d="M509.3823,140.09092c0.0701,-0.08634 0.14171,-0.13408 0.14171,-0.13408l0.45986,-0.29144c1.85231,-0.73405 3.80754,-1.79554 5.85396,-1.80321c1.92232,0 4.23024,-0.34069 5.6988,1.22869c0.90511,0.96724 0.77224,3.25422 -0.54271,3.89289c-0.58325,0.28328 -1.74981,0.01351 -2.27351,-0.26543c-0.05972,-0.03181 -0.99746,-0.75179 -1.05665,-0.77181c-0.34171,-0.11556 -0.7217,0.0179 -1.08214,0.00389c-0.29606,0.1816 -0.42404,0.55491 -0.68091,0.78867c-0.58128,0.52898 -0.90844,0.5807 -1.63089,0.52272c-0.34111,-0.02738 -0.69529,-0.03806 -1.0134,-0.1642c-0.49245,-0.19527 -1.10708,-0.9635 -1.75808,-0.42508c-0.74165,0.61338 -0.84608,2.12014 -2.26347,1.46811c-1.2223,-0.56229 -0.59241,-2.6056 -0.43395,-3.55699c0,0 0.08585,-0.51507 0.58139,-0.49272z" stroke="none" stroke-width="0.5"/><path d="M499.35686,129.32455c-0.00045,-0.01118 -0.00068,-0.02258 -0.00068,-0.03422c0,-0.58708 0.58708,-0.58708 0.58708,-0.58708l0.46738,0.0114c2.5197,0.51382 4.7087,2.24925 7.33044,2.45632c1.11336,0.08793 1.86747,0.00851 2.91467,0.52964c0.5061,0.25186 1.26469,0.56195 1.55815,1.09269c0.22535,0.40755 0.05794,1.66019 0.05794,2.13295c0,0.93039 0.20588,2.38313 -0.19472,3.22656c-0.47029,0.99015 -2.29634,0.91363 -3.15753,1.39476c-0.74571,0.41661 -1.3848,1.12898 -2.1894,1.44477c-0.51736,0.20305 -0.96451,0.15586 -1.50326,0.15691c-1.43289,0.00279 -2.72327,-0.13117 -4.13363,-0.36956c-0.82292,-0.28815 -1.48527,-0.66746 -1.99241,-1.42073c-0.2434,-0.36153 -0.34134,-0.80782 -0.58414,-1.16975c-0.42061,-0.62696 -0.9698,-1.44264 -1.14092,-2.18876c-0.02084,-0.09088 -0.01571,-1.79511 -0.01571,-1.89611c0,-0.71535 -0.09516,-1.51053 0.15357,-2.1989c0.33713,-0.93302 1.22028,-1.79064 1.84317,-2.5809z" stroke="none" stroke-width="0.5"/><path d="M518.14259,139.38802c-0.58708,0 -0.58708,-0.58708 -0.58708,-0.58708c0,-0.27397 0,-1.0176 0,-1.29157v0v-0.46966c0.00402,-1.27575 0.16997,-3.44632 1.11127,-4.40723c0.2303,-0.2351 1.15111,-0.66841 1.44414,-0.81446c1.07194,-0.53429 2.34874,-1.60506 3.62835,-0.79348c1.05191,0.66717 0.97855,2.26112 0.97855,3.31463c0,1.21325 0.00466,2.42662 0,3.63987c-0.00384,0.99841 0.1076,1.14055 -0.28854,2.00654c-0.23466,0.51298 -0.6994,1.18894 -1.27836,1.3654c-1.37456,0.41896 -1.73006,-0.78586 -2.49452,-1.55437c-0.45934,-0.46177 -1.22853,-1.01054 -1.92674,-1.1798v0.18413c0,0 0,0.58708 -0.58708,0.58708z" stroke="none" stroke-width="0.5"/><path d="M505.54004,136.1004c0,-1.83732 1.48944,-3.32676 3.32676,-3.32676c1.83732,0 3.32676,1.48944 3.32676,3.32676c0,1.83732 -1.48944,3.32676 -3.32676,3.32676c-1.83732,0 -3.32676,-1.48944 -3.32676,-3.32676z" stroke="none" stroke-width="0.5"/><path d="M518.10345,135.98298c0,-1.51309 1.2266,-2.73969 2.73969,-2.73969c1.51309,0 2.73968,1.2266 2.73968,2.73969c0,1.51309 -1.2266,2.73969 -2.73968,2.73969c-1.51309,0 -2.73969,-1.2266 -2.73969,-2.73969z" stroke="none" stroke-width="0.5"/><path d="M506.83161,136.68747c0,-1.44824 1.17403,-2.62227 2.62227,-2.62227c1.44824,0 2.62227,1.17403 2.62227,2.62227c0,1.44824 -1.17403,2.62227 -2.62227,2.62227c-1.44824,0 -2.62227,-1.17403 -2.62227,-2.62227z" stroke="none" stroke-width="0.5"/><path d="M519.39501,136.57006c0,-1.12401 0.91119,-2.03519 2.03519,-2.03519c1.12401,0 2.03519,0.91119 2.03519,2.03519c0,1.12401 -0.91119,2.03519 -2.03519,2.03519c-1.12401,0 -2.03519,-0.91119 -2.03519,-2.03519z" stroke="none" stroke-width="0.5"/><path d="M516.20973,172.9025c0.18667,0.6501 0.58029,1.93141 0.22707,2.62243c-0.24941,0.48794 -1.79409,1.35632 -2.25305,1.47901c-0.35107,0.09385 -0.72663,0.0154 -1.09,0.01967c-1.37608,0.01614 -2.80993,0.1107 -4.1503,-0.25654c-0.99308,-0.27209 -1.97569,-0.78174 -2.91399,-1.26383c-0.09001,0.01254 -0.19496,0.00177 -0.31606,-0.04667c-0.17395,-0.06958 -0.27018,-0.17246 -0.32059,-0.28031c-0.11848,-0.07584 -0.43789,-0.33034 -0.22131,-0.7635c0.12225,-0.24451 0.30143,-0.31823 0.45801,-0.32721c0.25321,-0.63236 0.51438,-1.31735 0.83907,-1.91309c0.83286,-1.52812 2.1321,-2.83484 1.82076,-4.6697c-0.08275,-0.44903 -0.33323,-0.85161 -0.53829,-1.25955c-0.84278,-1.67655 -1.84963,-3.09424 -2.99067,-4.59552c-0.54096,-0.71174 -1.45112,-1.741 -1.02972,-2.77289c0.14101,-0.34529 0.38206,-0.72134 0.73415,-0.84438c0.55558,-0.19416 1.85105,0.51538 2.36163,0.70956c0.34629,0.1317 0.74664,0.08639 1.10104,0.08564c1.01759,-0.00215 2.0352,0 3.05279,0c1.11451,0.00189 2.19162,-0.23908 3.25001,-0.57495c-1.82826,0.38826 -3.85051,0.3803 -5.56407,0.09959c-2.71275,-0.27218 -5.38463,-0.76619 -7.28175,-2.89039c-0.47914,-0.53648 -1.05228,-1.19363 -1.19577,-1.92432c-0.06704,-0.34138 -0.08633,-0.71504 -0.08388,-1.09799c-0.16155,-0.17364 -0.16155,-0.42201 -0.16155,-0.42201v-0.11742c0,-0.62984 -0.17099,-1.63883 0.20782,-2.19165c0.63441,-0.92584 1.90091,-0.62631 2.84497,-0.62631c2.73969,0 5.47937,0 8.21905,0c1.06537,0.00398 2.31334,-0.02876 3.31075,-0.43016c0.8496,-0.34191 1.53275,-1.06112 2.46596,-1.20607c1.30842,-0.20322 1.51941,0.71312 2.27039,1.45593c1.35969,1.34491 3.08261,2.31997 3.10619,4.44372c-0.06921,0.53852 -0.083,1.51481 -0.56275,1.94126c-0.21954,0.19514 -0.56244,0.17041 -0.84737,0.24175c-0.7793,0.19513 -1.48162,0.3281 -2.22294,0.66437c-0.66408,0.30123 -1.25526,0.74266 -1.88355,1.10657c0.40763,-0.15331 0.81478,-0.30223 1.22257,-0.43785c0.70137,-0.23326 1.31602,-0.53544 2.03102,-0.71495c0.30125,-0.07563 0.59035,-0.3037 0.89679,-0.25302c1.80253,0.29811 1.14564,1.50128 1.30539,2.67135c0.02929,0.21456 0.43257,0.03305 0.64905,0.02772c0.43039,-0.0106 0.86104,0 1.29157,0c1.46405,0.00549 2.83736,0.4693 4.19404,0.97514c0.26872,0.10019 0.56593,0.13807 0.8112,0.28669c0.96721,0.58605 1.68614,1.82895 1.00993,2.92588c-0.37469,0.60782 -1.28884,0.85786 -1.87961,1.15224c-1.39187,0.69356 -2.69989,1.4688 -3.64839,2.73703c-0.1931,0.32183 -0.66367,1.20549 -1.03316,1.29443c-0.93944,0.22611 -1.54655,-0.91316 -2.30525,-1.17201c-0.52565,-0.17934 -1.44839,-0.04065 -2.02235,0.01681c-1.05432,0.10554 -2.48841,0.33714 -3.36257,0.95453c-0.71956,0.5082 -1.17017,1.22077 -1.86155,1.74888c0,0 -0.04327,0.03245 -0.11339,0.06452c0.9693,0.58643 1.57784,2.42086 2.17264,3.32758z" stroke="none" stroke-width="0.5"/><path d="M522.19758,154.0648c0.41513,0.41513 0,0.83025 0,0.83025l-0.34689,0.25924c-1.50777,0.48953 -2.96638,1.58505 -4.33348,2.40485c-1.10256,0.7347 -1.96347,1.07552 -3.23185,1.36685c-0.53639,0.1232 -1.03683,0.39011 -1.57985,0.47969c-0.84083,0.13871 -1.80861,0.00567 -2.66456,0.00567c-2.09166,0 -4.0497,-0.18538 -6.0564,-0.85203c0,0 -0.55695,-0.18565 -0.3713,-0.7426c0.18565,-0.55695 0.7426,-0.3713 0.7426,-0.3713c1.88445,0.63044 3.72071,0.79178 5.6851,0.79178c0.79838,0 1.72012,0.13764 2.5017,0.00567c1.57079,-0.26522 3.02664,-0.79547 4.34668,-1.67591c1.46174,-0.87752 2.9828,-1.9795 4.59006,-2.52658l-0.11206,0.02441c0,0 0.41513,-0.41513 0.83025,0z" stroke="none" stroke-width="0.5"/><path d="M505.1114,163.75775c0.89046,0.22261 2.13063,0.65236 2.41914,1.41711c0.41202,1.09214 -0.79368,1.81214 -1.36429,2.57297c-1.59232,2.1231 -3.38224,4.28651 -5.71404,5.61462c-2.36128,0.0514 -4.86851,0.09212 -7.17843,-0.49055c-1.55081,-0.39119 -3.23155,-1.34294 -4.49225,-2.31167c-1.54711,-1.18881 -3.30864,-2.21676 -3.62499,-4.36217c-0.05025,-0.34078 -0.00505,-0.68891 -0.00758,-1.03336c0,-1.87187 0.06343,-3.70833 1.60452,-5.01663c0.24881,-0.21123 0.47798,-0.47349 0.78428,-0.58619c0.10446,-0.03843 1.24515,-0.03431 1.48589,-0.03309c0.6387,0.00322 1.50479,-0.10399 2.00266,0.47864c0.44044,0.51543 0.01196,1.75013 -0.14835,2.27178c-0.30026,0.977 -0.30274,2.44364 0.54679,3.0782c1.63502,0.63676 3.12267,0.51179 4.87864,0.51179c1.09615,0 2.12978,-0.10288 3.2188,-0.23078c0.86976,-0.10215 1.94769,-0.12815 2.74894,-0.53272c0.44943,-0.22693 0.83752,-0.50316 1.21392,-0.80292c-0.02929,-0.09087 -0.03561,-0.20199 -0.00181,-0.33719c0.14239,-0.56955 0.71193,-0.42716 0.71193,-0.42716l0.18312,0.04606c0.15803,-0.08105 0.4532,-0.1636 0.71258,0.14765c0.00714,0.00857 0.01399,0.01711 0.02054,0.02563z" stroke="none" stroke-width="0.5"/><path d="M488.00399,147.46131c-0.01227,-0.0082 -0.02463,-0.01695 -0.03707,-0.02628c-0.46966,-0.35225 -0.11742,-0.82191 -0.11742,-0.82191l0.35225,-0.46966c0.18645,-0.21417 0.30538,-0.51552 0.55936,-0.64251c0.41568,-0.20784 1.85066,-0.09222 2.30022,-0.0605c0.74276,0.0524 1.62535,0.06215 2.34746,0.25507c1.18328,0.31612 2.37344,0.87375 3.50772,1.331c1.10015,0.65674 2.23972,1.34228 3.47303,1.70766c0.32301,0.0957 0.79491,-0.03167 0.97917,0.25036c0.27516,0.42116 -0.1389,1.00023 -0.13389,1.50328c0.01289,1.29324 -0.1799,2.71627 0.10311,3.98073c0.06102,0.27263 0.09234,0.55487 0.19215,0.81581c0.29425,0.76927 1.52723,0.90722 1.96746,1.5909c0.24735,0.38414 0.20106,1.04396 0.20299,1.47937c-0.00461,1.2411 0.61292,2.60984 0.34657,3.83871c-0.09141,0.42176 -0.13759,0.92536 -0.4627,1.20917c-0.31196,0.27233 -1.76732,0.11879 -2.23218,0.11838c-1.53004,-0.00134 -3.32516,-0.10421 -4.77585,-0.621c-0.97417,-0.34703 -1.60511,-0.95091 -2.46028,-1.46274c-0.6576,-0.39358 -1.32911,-0.64484 -1.94939,-1.10812c-1.04632,-0.996 -2.32246,-1.95787 -3.14966,-3.15754c-0.29253,-0.42424 -0.39811,-0.95066 -0.60089,-1.4244c-0.26847,-0.62724 -0.72749,-1.17751 -0.9032,-1.83678c-0.16178,-0.60699 -0.01571,-1.50276 -0.01571,-2.13094c0,-0.73542 -0.10593,-1.57437 0.0044,-2.30262c0.09923,-0.655 0.30609,-1.34814 0.50233,-2.01546z" stroke="none" stroke-width="0.5"/><path d="M525.18687,166.82049c0.9521,-2.01353 3.20362,-3.09053 4.29506,-5.09931c0.5616,-1.03362 0.86003,-2.80707 2.04985,-3.31922c0.95594,-0.41147 2.3798,-0.16475 3.40116,-0.16475c0.90971,0 1.805,-0.14688 2.63592,0.31011c1.32849,0.73064 1.35802,2.1099 1.35619,3.44717c-0.00079,0.57603 0.04653,1.1709 -0.15357,1.72924c-0.31879,0.88948 -1.10304,1.72382 -1.56268,2.54538c-1.06464,1.90291 -1.95621,3.98121 -3.32836,5.69994c-0.53193,0.7979 -1.18633,1.89412 -2.11291,2.30289c-0.91583,0.40403 -2.45503,0.228 -3.39826,0.04151c-0.28918,-0.05718 -0.60531,-0.03772 -0.86729,-0.17286c-0.26228,-0.1353 -0.44621,-0.38846 -0.64453,-0.60701c-0.30903,-0.34056 -0.48837,-0.78244 -0.67912,-1.20089c-0.54915,-1.20468 -0.92386,-2.4659 -1.22018,-3.7533c-0.37909,-0.24546 -0.19834,-0.69735 -0.19834,-0.69735l0.02988,-0.07462c-0.02049,-0.09879 -0.04063,-0.19769 -0.06047,-0.2967c0,0 -0.11475,-0.57374 0.45764,-0.69022z" stroke="none" stroke-width="0.5"/><path d="M504.70075,175.99644c0.07135,-0.20142 0.14731,-0.39878 0.31447,-0.5157c0.17495,-0.12237 1.20496,-0.10094 1.50328,-0.10094c2.43315,0 4.84988,-0.11742 7.27973,-0.11742c0.70449,0 1.40908,-0.0116 2.11347,0c0.29684,0.00489 0.61433,-0.07972 0.89014,0.03013c1.08407,0.43176 0.87109,1.16532 0.87109,2.08334c0,1.88249 -0.16846,3.42096 -1.41144,4.93326c-1.35873,0.5757 -2.65702,0.46783 -4.10707,0.46783c-1.12984,0 -2.53217,0.17532 -3.6109,-0.27211c-2.16744,-0.899 -3.55934,-3.31317 -3.95105,-5.54675c-0.07003,-0.14446 -0.07003,-0.28673 -0.07003,-0.28673l0.01225,-0.09785c-0.00301,-0.02408 -0.00589,-0.04814 -0.00866,-0.07215c0,0 -0.03465,-0.31187 0.17472,-0.50493z" stroke="none" stroke-width="0.5"/><path d="M518.93359,149.28544c-0.05857,0.0179 -0.12608,0.02822 -0.20392,0.02822c-0.58708,0 -0.58708,-0.58708 -0.58708,-0.58708l0.0059,-0.55268c0.06447,-0.346 0.01319,-0.73569 0.19343,-1.03799c0.43454,-0.72884 0.88996,-0.62728 1.5619,-0.64021c1.58551,-0.0305 3.02589,0.53378 4.33119,1.39939c0.56216,0.43197 0.89064,0.58515 1.16213,1.36586c0.21147,0.60812 0.02554,1.28751 0.02519,1.93135c-0.00063,1.18033 -0.02021,2.33911 -1.01309,3.13406c-0.34188,0.27372 -0.64806,0.71626 -1.08534,0.74045c-1.20911,0.06689 -0.98865,-1.19462 -1.34873,-1.82566c-0.82914,-1.45304 -1.96851,-2.68146 -3.04156,-3.95572z" stroke="none" stroke-width="0.5"/><path d="M550.42472,137.8568c0.24697,0.05135 0.50539,0.06374 0.74092,0.15405c0.19554,0.07497 0.32835,0.28559 0.53209,0.33405c0.25388,0.06039 0.52166,-0.01807 0.78261,-0.0213c0.76206,-0.00943 1.78345,0.16361 2.52641,-0.091c0.86757,-0.29731 1.89501,-0.75408 2.68345,-1.23031c0.35188,-0.21254 0.71837,-0.39988 1.07776,-0.59947c0.17605,-0.09778 0.28859,-0.31523 0.48482,-0.36047c0.0308,-0.0071 0.06171,-0.01351 0.0927,-0.01928l-0.00588,-0.01765l0.69149,-0.2305c0.06204,-0.02231 0.12893,-0.03446 0.19865,-0.03446c0.32423,0 0.58708,0.26284 0.58708,0.58708c0,0.11393 -0.03246,0.22029 -0.08863,0.31032l-0.34728,0.5788l-0.00851,-0.00511l-0.00772,0.03064c-0.66718,0.88762 -1.4445,1.83262 -2.40441,2.43621c-0.09579,0.10046 -0.19805,0.1908 -0.32383,0.24431c-0.08436,0.03589 -0.18218,0.06124 -0.28929,0.07854c-0.88786,0.37055 -1.79715,0.31839 -2.75333,0.31839c-0.94097,0 -1.93059,0.09325 -2.85215,-0.13733c-1.29125,-0.32307 -2.62507,-1.23101 -3.55114,-2.14809c0,0 -0.41512,-0.41513 0,-0.83025c0.41512,-0.41512 0.83025,0 0.83025,0c0.2176,0.22014 0.46596,0.44085 0.73479,0.65045c0.00804,-0.00033 0.01612,-0.00049 0.02424,-0.00049h0.58708v0.02527z" stroke="none" stroke-width="0.5"/></g></g></g></svg>