<svg version="1.1" xmlns="http://www.w3.org/2000/svg" xmlns:xlink="http://www.w3.org/1999/xlink" width="110.7163" height="131.36974" viewBox="0,0,110.7163,131.36974"><g transform="translate(-463.91663,-94.95807)"><g data-paper-data="{&quot;isPaintingLayer&quot;:true}" fill-rule="nonzero" stroke-linejoin="miter" stroke-miterlimit="10" stroke-dasharray="" stroke-dashoffset="0" style="mix-blend-mode: normal"><path d="M470.46532,96.94591l98.3125,0.45833l4.125,3.4375l0.22917,119.625l-3.20833,4.35417l-100.83333,-0.91667l-2.52083,-2.75l-1.14583,-120.3125z" fill="#555553" stroke="#030303" stroke-width="3" stroke-linecap="round"/><path d="M467.68184,170.57511l49.27083,14.20833l54.54167,-12.83333l0.45833,46.0625l-2.75,4.58333l-98.3125,-0.45833l-2.52083,-2.52083z" fill="#2d2d2d" stroke="#2d2d2d" stroke-width="3.5" stroke-linecap="round"/><path d="M476.66365,172.92567c-0.14965,-0.03064 -0.2389,-0.0604 -0.2389,-0.0604l-1.44978,-0.53443c-0.98627,-0.61333 -2.20589,-0.95567 -2.9588,-1.83999c-0.82903,-0.97371 -1.05542,-2.32975 -1.58313,-3.49462c-0.06477,-4.53602 0.00635,-9.88451 3.8814,-13.11684c0.12514,-0.10438 0.63492,-0.4769 1.27521,-0.81622c-0.01287,-0.01228 -0.02563,-0.02466 -0.03828,-0.03712c-0.91609,-0.90223 -1.51063,-2.10912 -2.00119,-3.29766c-1.23291,-2.98714 -0.96814,-6.28988 -1.16336,-9.41281c-0.15685,-2.50917 -0.85095,-3.96583 -0.28711,-6.65801c0.80056,-3.8224 3.86552,-5.72798 7.31749,-6.86651c0.70055,-0.23106 1.53047,-0.06765 2.16967,-0.43587c2.33686,-1.34617 1.68957,-5.01517 2.25927,-7.32641c2.17048,-5.09902 4.91055,-12.26714 8.89906,-16.26656c7.23123,-7.25101 19.13288,-8.62144 28.78021,-7.41602c4.57682,0.57187 10.60868,1.7639 13.24245,5.99032c3.76694,-4.07257 13.39853,-3.40387 17.40487,0.25641c4.0949,3.7412 2.05696,9.20256 0.80905,13.80834c-0.16199,0.59787 -0.70121,1.13615 -0.62324,1.75065c0.07404,0.58351 0.71684,0.9351 1.02739,1.43462c0.91221,1.46728 1.14209,3.3119 2.14586,4.71813c0.58539,0.82009 3.58487,1.75919 4.0851,2.11872c0.98339,0.70679 1.83719,1.60027 2.58519,2.55268c2.96754,3.77845 3.29696,8.07993 2.80715,12.62636c-1.02261,4.11244 -2.20863,10.34983 -5.4633,13.42361c-1.085,1.0247 -3.20989,0.86146 -3.91129,2.17876c-1.13493,2.13151 -1.01857,4.75832 -2.01106,6.95978c-0.16038,0.35573 -1.0251,0.33067 -0.9312,0.70941c0.08856,0.3572 0.61437,-0.48733 0.98198,-0.50459c0.89482,-0.042 1.78722,0.16289 2.66667,0.33333c3.23409,0.62679 8.06206,2.07084 8.978,5.90002c0.39701,1.65971 -1.46746,6.52288 -2.66929,7.65857c-0.94575,0.89372 -2.15536,1.60428 -3.42857,1.91601c0.42475,2.31829 -0.67143,4.34414 -1.44746,6.45598c-3.94215,5.92636 -8.45357,10.84814 -15.61727,12.61857c-2.25316,0.55684 -5.61958,0.73276 -7.68145,-0.69183c-1.15154,-0.79563 -1.895,-2.10405 -2.52936,-3.35171c-0.2952,-0.58059 0.19119,-1.40155 -0.16475,-1.94701c-0.5714,-0.87564 -2.09576,0.08955 -3.12459,0.27597c-0.80074,0.14509 -0.82185,1.43011 -1.01356,2.22098c-0.69535,2.86847 -1.9179,4.85949 -4.29106,6.75766c-4.51634,3.6124 -10.74767,2.84739 -15.87417,1.6996c-5.46927,-2.18423 -11.06411,-5.25906 -12.98825,-11.33085c-0.58007,-1.83046 0.06971,-3.87726 -0.35685,-5.74946c-0.50279,-2.20674 -3.41062,-4.84787 -4.46589,-6.81669c-0.92892,-1.73309 -2.01464,-3.39337 -2.76477,-5.21101c-0.45251,-1.09647 -0.13292,-2.84366 -1.21878,-3.7536c-1.00625,-0.84323 -1.71073,1.3126 -2.06608,1.54313c-3.03443,1.96853 -3.4278,1.40109 -6.71166,1.07719c0,0 -0.09335,-0.01167 -0.24158,-0.04859z" fill="#000000" stroke="none" stroke-width="0.5" stroke-linecap="butt"/></g></g></svg>