<svg version="1.1" xmlns="http://www.w3.org/2000/svg" xmlns:xlink="http://www.w3.org/1999/xlink" width="239.60777" height="341.44192" viewBox="0,0,239.60777,341.44192"><defs><linearGradient x1="276.41658" y1="197.92484" x2="359.2496" y2="197.68424" gradientUnits="userSpaceOnUse" id="color-1"><stop offset="0" stop-color="#2b2b29"/><stop offset="1" stop-color="#414141"/></linearGradient><linearGradient x1="120.64189" y1="198.37728" x2="203.475" y2="198.13668" gradientUnits="userSpaceOnUse" id="color-2"><stop offset="0" stop-color="#414141"/><stop offset="1" stop-color="#2b2b29"/></linearGradient><linearGradient x1="173.76815" y1="291.3307" x2="246.02812" y2="291.12081" gradientUnits="userSpaceOnUse" id="color-3"><stop offset="0" stop-color="#424242"/><stop offset="1" stop-color="#252525"/></linearGradient><linearGradient x1="232.82499" y1="285.5503" x2="305.08517" y2="285.34041" gradientUnits="userSpaceOnUse" id="color-4"><stop offset="0" stop-color="#252525"/><stop offset="1" stop-color="#424242"/></linearGradient><radialGradient cx="238.49202" cy="157.62441" r="147.85014" gradientUnits="userSpaceOnUse" id="color-5"><stop offset="0" stop-color="#363636"/><stop offset="1" stop-color="#202020"/></radialGradient><radialGradient cx="238.91868" cy="280.61232" r="29.8443" gradientUnits="userSpaceOnUse" id="color-6"><stop offset="0" stop-color="#999999"/><stop offset="1" stop-color="#5d5d5d"/></radialGradient><radialGradient cx="234.26939" cy="35.53448" r="40.14852" gradientUnits="userSpaceOnUse" id="color-7"><stop offset="0" stop-color="#999999"/><stop offset="1" stop-color="#61615f"/></radialGradient><radialGradient cx="239.74928" cy="300.4635" r="49.7577" gradientUnits="userSpaceOnUse" id="color-8"><stop offset="0" stop-color="#505050"/><stop offset="1" stop-color="#272727"/></radialGradient><radialGradient cx="239.3504" cy="145.98195" r="78.64022" gradientUnits="userSpaceOnUse" id="color-9"><stop offset="0" stop-color="#828282"/><stop offset="1" stop-color="#616161"/></radialGradient></defs><g transform="translate(-120.19612,-9.27887)"><g data-paper-data="{&quot;isPaintingLayer&quot;:true}" fill-rule="nonzero" stroke-linejoin="miter" stroke-miterlimit="10" stroke-dasharray="" stroke-dashoffset="0" style="mix-blend-mode: normal"><g><path d="M309.33009,170.11847c0,0 62.47804,42.12277 47.71691,49.7342c-21.99358,11.34001 -80.56059,2.10947 -80.56059,2.10947z" data-paper-data="{&quot;index&quot;:null}" fill="url(#color-1)" stroke="#000000" stroke-width="1" stroke-linecap="round"/><path d="M203.54482,222.17401c0,0 -58.51271,9.57063 -80.57149,-1.64174c-14.8054,-7.52525 47.42687,-50.01025 47.42687,-50.01025z" data-paper-data="{&quot;index&quot;:null}" fill="url(#color-2)" stroke="#000000" stroke-width="1" stroke-linecap="round"/><path d="M246.06817,304.90896c0,0 -48.97208,17.10779 -69.67831,10.78645c-13.89781,-4.24244 33.29558,-50.27666 33.29558,-50.27666z" data-paper-data="{&quot;index&quot;:null}" fill="url(#color-3)" stroke="#000000" stroke-width="1" stroke-linecap="round"/><path d="M269.01805,259.63755c0,0 47.4597,45.75897 33.58709,50.08239c-20.66947,6.44152 -69.7401,-10.38148 -69.7401,-10.38148z" data-paper-data="{&quot;index&quot;:null}" fill="url(#color-4)" stroke="#000000" stroke-width="1" stroke-linecap="round"/><path d="M235.9349,9.8279c13.85263,-1.88957 78.20331,51.01042 77.43084,129.39247c-0.23945,71.78411 -75.14242,166.25557 -75.14242,166.25557c0,0 -76.60708,-84.80103 -74.66988,-163.35987c1.93689,-78.55883 49.36313,-132.81162 72.38146,-132.28817z" fill="url(#color-5)" stroke="#000000" stroke-width="1" stroke-linecap="butt"/><path d="M237.8833,298.92234c-13.7903,-0.36302 -28.50626,-31.8194 -28.52889,-31.88297c-2.41128,-6.85503 8.66129,-1.78564 32.25315,-1.85416c23.59187,-0.06853 30.0423,-6.60218 25.96201,-0.06987c-3.45446,5.53035 -13.01031,34.24619 -29.68627,33.80701z" data-paper-data="{&quot;index&quot;:null}" fill="url(#color-6)" stroke="#000000" stroke-width="0.5" stroke-linecap="butt"/><path d="M274.44136,43.54628c0.01894,6.52009 -17.48106,16.53915 -41.07292,16.60768c-23.59187,0.06853 -39.19754,-7.33879 -39.21648,-13.85919c-0.01894,-6.5204 23.79747,-34.81465 41.1869,-35.37368c16.67313,-0.53605 39.08356,26.1048 39.1025,32.6252z" fill="url(#color-7)" stroke="#000000" stroke-width="0.5" stroke-linecap="butt"/><path d="M264.1353,269.0235c0,0 -18.54061,4.98078 -25.98586,5.09311c-7.81541,0.11801 -26.27902,-4.38203 -26.27902,-4.38203" fill="none" stroke="#5a5a5a" stroke-width="0.5" stroke-linecap="round"/><path d="M244.72164,251.98316c4.16362,19.71004 14.61794,98.05271 -4.82371,98.23764c-20.2455,0.19242 -8.24401,-82.91053 -4.95033,-98.60903c0.35141,-1.67494 9.14324,-2.61475 9.77405,0.37142z" data-paper-data="{&quot;index&quot;:null}" fill="url(#color-8)" stroke="#000000" stroke-width="1" stroke-linecap="butt"/><path d="M270.38575,34.55001c0,0 -16.9375,8.70244 -36.44681,9.36971c-18.39121,0.62897 -33.92114,-7.7987 -33.92114,-7.7987" fill="none" stroke="#5a5a5a" stroke-width="0.5" stroke-linecap="round"/><path d="M314.56505,160.58085c0,0 -50.21548,10.73606 -75.48325,10.80946c-25.46239,0.07396 -76.71216,-10.36738 -76.71216,-10.36738c0,0 -1.55649,-11.80626 -1.66463,-18.44539c-0.11035,-6.7664 1.00914,-21.77765 1.00914,-21.77765c0,0 51.99126,14.85452 77.99491,14.93609c25.80503,0.08123 77.43577,-14.44799 77.43577,-14.44799c0,0 1.04661,13.88275 0.78524,20.85284c-0.23602,6.28286 -3.365,18.44002 -3.365,18.44002z" fill="url(#color-9)" stroke="#000000" stroke-width="0.5" stroke-linecap="butt"/><path d="M314.90619,154.92519c0,0 -46.02966,10.89454 -76.31871,10.98252c-30.28905,0.08798 -76.89375,-10.53749 -76.89375,-10.53749" fill="none" stroke="#5a5a5a" stroke-width="0.5" stroke-linecap="round"/><path d="M315.85383,128.27644c0,0 -43.67403,14.78866 -75.28357,14.56656c-31.60985,-0.2224 -79.47092,-15.65431 -79.47092,-15.65431" fill="none" stroke="#5a5a5a" stroke-width="0.5" stroke-linecap="round"/><path d="M214.94178,140.35514l0.06995,24.08348" fill="none" stroke="#5a5a5a" stroke-width="0.5" stroke-linecap="round"/><path d="M288.78634,159.61285l-0.06698,-23.05875" fill="none" stroke="#5a5a5a" stroke-width="0.5" stroke-linecap="round"/><path d="M219.5423,147.48359c-1.32665,0.00385 -2.40482,-1.03129 -2.40854,-2.31212c-0.00372,-1.28083 1.06842,-2.32221 2.39506,-2.32607c1.32665,-0.00385 2.40512,1.03128 2.40884,2.31212c0.00372,1.28083 -1.06873,2.32222 -2.39537,2.32608z" fill="none" stroke="#5a5a5a" stroke-width="0.5" stroke-linecap="butt"/><path d="M284.14029,158.82543c-1.32664,0.00385 -2.40481,-1.03129 -2.40853,-2.31212c-0.00372,-1.28083 1.06842,-2.32221 2.39506,-2.32607c1.32664,-0.00385 2.40512,1.03128 2.40884,2.31212c0.00372,1.28083 -1.06873,2.32222 -2.39537,2.32607z" fill="none" stroke="#5a5a5a" stroke-width="0.5" stroke-linecap="butt"/><path d="M299.55543,140.3335c-0.84918,0.00247 -1.5405,-1.1168 -1.54452,-2.50002c-0.00402,-1.38322 0.6808,-2.5068 1.52997,-2.50926c0.84887,-0.00247 1.5405,1.11711 1.54453,2.50033c0.00402,1.38322 -0.68111,2.50648 -1.52998,2.50895z" fill="none" stroke="#5a5a5a" stroke-width="0.5" stroke-linecap="butt"/><path d="M209.68716,161.53974c-1.06132,0.00308 -1.92458,-1.03268 -1.9283,-2.31352c-0.00372,-1.28083 0.85351,-2.32159 1.91483,-2.32467c1.06101,-0.00308 1.92458,1.03268 1.9283,2.31351c0.00372,1.28083 -0.85381,2.3216 -1.91483,2.32468z" fill="none" stroke="#5a5a5a" stroke-width="0.5" stroke-linecap="butt"/></g></g></g></svg>