<svg version="1.1" xmlns="http://www.w3.org/2000/svg" xmlns:xlink="http://www.w3.org/1999/xlink" width="31.56657" height="31.42662" viewBox="0,0,31.56657,31.42662"><g transform="translate(-243.40422,-160.65545)"><g data-paper-data="{&quot;isPaintingLayer&quot;:true}" fill-rule="nonzero" stroke="none" stroke-width="0" stroke-linecap="butt" stroke-linejoin="miter" stroke-miterlimit="10" stroke-dasharray="" stroke-dashoffset="0" style="mix-blend-mode: normal"><path d="M243.54519,192.02981l6.61664,-15.65147l-6.61664,-15.72279l15.62149,6.62342l15.75277,-6.62342l-6.71193,15.72279l6.71193,15.65147l-15.68333,-6.62342zM259.16596,181.07542c2.8186,0.07989 4.71176,-2.06736 4.79736,-4.70885c0.0885,-2.73137 -2.50858,-4.97437 -4.70886,-4.97437c-2.20028,0 -4.53184,2.42007 -4.53184,4.97437c0,2.11177 1.7116,4.63146 4.44333,4.70886z" fill="#dfe1e1"/><path d="M263.90193,172.01434l11.01736,-11.35884l-6.71193,15.7228z" fill="#b7b8b8"/><path d="M263.61195,181.06472l11.35884,11.01735l-15.72279,-6.71193z" fill="#b7b8b8"/><path d="M254.47297,180.72318l-11.01736,11.35884l6.71193,-15.72279z" fill="#b7b8b8"/><path d="M254.76307,171.67281l-11.35884,-11.01736l15.72279,6.71193z" fill="#b7b8b8"/></g></g></svg>