<svg version="1.1" xmlns="http://www.w3.org/2000/svg" xmlns:xlink="http://www.w3.org/1999/xlink" width="40.375" height="36.25" viewBox="0,0,40.375,36.25"><defs><radialGradient cx="240" cy="180" r="20.1875" gradientUnits="userSpaceOnUse" id="color-1"><stop offset="0" stop-color="#00ffaf"/><stop offset="1" stop-color="#00ffaf" stop-opacity="0"/></radialGradient><linearGradient x1="253.9375" y1="180.1875" x2="226.6875" y2="180.1875" gradientUnits="userSpaceOnUse" id="color-2"><stop offset="0" stop-color="#00ffaf" stop-opacity="0"/><stop offset="1" stop-color="#00ffaf"/></linearGradient></defs><g transform="translate(-219.8125,-161.875)"><g data-paper-data="{&quot;isPaintingLayer&quot;:true}" fill-rule="nonzero" stroke-width="2.5" stroke-linecap="butt" stroke-linejoin="miter" stroke-miterlimit="10" stroke-dasharray="" stroke-dashoffset="0" style="mix-blend-mode: normal"><path d="M260.1875,180c0,10.01016 -9.03825,18.125 -20.1875,18.125c-11.14925,0 -20.1875,-8.11484 -20.1875,-18.125c0,-10.01016 9.03825,-18.125 20.1875,-18.125c11.14925,0 20.1875,8.11484 20.1875,18.125z" fill="url(#color-1)" stroke="none"/><path d="M240.3125,166.5c7.52488,0 13.625,6.1281 13.625,13.6875c0,7.5594 -6.10012,13.6875 -13.625,13.6875c-7.52488,0 -13.625,-6.1281 -13.625,-13.6875c0,-7.5594 6.10012,-13.6875 13.625,-13.6875z" data-paper-data="{&quot;index&quot;:null}" fill="#ffffff" stroke="url(#color-2)"/></g></g></svg>