<svg version="1.1" xmlns="http://www.w3.org/2000/svg" xmlns:xlink="http://www.w3.org/1999/xlink" width="160.42474" height="230.27097" viewBox="0,0,160.42474,230.27097"><defs><linearGradient x1="240.51347" y1="48.91118" x2="240.51347" y2="92.73644" gradientTransform="translate(-218.95166,-86.11825) scale(1.05304,1.05304)" gradientUnits="userSpaceOnUse" id="color-1"><stop offset="0" stop-color="#ff6900"/><stop offset="1" stop-color="#fff100"/></linearGradient><linearGradient x1="241.1782" y1="48.91118" x2="241.1782" y2="92.73644" gradientTransform="translate(-218.95166,-86.11825) scale(1.05304,1.05304)" gradientUnits="userSpaceOnUse" id="color-2"><stop offset="0" stop-color="#000000"/><stop offset="1" stop-color="#000000"/></linearGradient><linearGradient x1="237.29817" y1="44.85842" x2="237.29817" y2="88.6837" gradientTransform="translate(-215.56582,-81.85052) scale(1.05304,1.05304)" gradientUnits="userSpaceOnUse" id="color-3"><stop offset="0" stop-color="#ff6900"/><stop offset="1" stop-color="#fff100"/></linearGradient><linearGradient x1="237.96293" y1="44.85842" x2="237.96293" y2="88.6837" gradientTransform="translate(-215.56582,-81.85052) scale(1.05304,1.05304)" gradientUnits="userSpaceOnUse" id="color-4"><stop offset="0" stop-color="#ff8800"/><stop offset="1" stop-color="#fff900"/></linearGradient><radialGradient cx="207.17725" cy="113.56475" r="46.61885" gradientUnits="userSpaceOnUse" id="color-5"><stop offset="0" stop-color="#399300"/><stop offset="1" stop-color="#30a900"/></radialGradient><radialGradient cx="209.39717" cy="138.9793" r="48.3795" gradientUnits="userSpaceOnUse" id="color-6"><stop offset="0" stop-color="#4ca400"/><stop offset="1" stop-color="#4bc200"/></radialGradient><radialGradient cx="271.27561" cy="120.45285" r="46.61885" gradientUnits="userSpaceOnUse" id="color-7"><stop offset="0" stop-color="#399300"/><stop offset="1" stop-color="#30a900"/></radialGradient><radialGradient cx="269.05572" cy="145.86739" r="48.37953" gradientUnits="userSpaceOnUse" id="color-8"><stop offset="0" stop-color="#4ca400"/><stop offset="1" stop-color="#4bc200"/></radialGradient><radialGradient cx="260.90432" cy="159.94452" r="46.61885" gradientUnits="userSpaceOnUse" id="color-9"><stop offset="0" stop-color="#399300"/><stop offset="1" stop-color="#30a900"/></radialGradient><radialGradient cx="263.12424" cy="185.35906" r="48.37953" gradientUnits="userSpaceOnUse" id="color-10"><stop offset="0" stop-color="#4ca400"/><stop offset="1" stop-color="#4bc200"/></radialGradient><radialGradient cx="217.54857" cy="157.18929" r="46.61882" gradientUnits="userSpaceOnUse" id="color-11"><stop offset="0" stop-color="#399300"/><stop offset="1" stop-color="#30a900"/></radialGradient><radialGradient cx="215.32865" cy="182.60384" r="48.37952" gradientUnits="userSpaceOnUse" id="color-12"><stop offset="0" stop-color="#4ca400"/><stop offset="1" stop-color="#4bc200"/></radialGradient></defs><g transform="translate(-159.84433,-40.21733)"><g data-paper-data="{&quot;isPaintingLayer&quot;:true}" fill-rule="nonzero" stroke-linejoin="miter" stroke-miterlimit="10" stroke-dasharray="" stroke-dashoffset="0" style="mix-blend-mode: normal"><text transform="translate(207.92307,81.78047) scale(0.94963,0.94963)" font-size="40" xml:space="preserve" fill="url(#color-1)" fill-rule="nonzero" stroke="url(#color-2)" stroke-width="5" stroke-linecap="butt" stroke-linejoin="miter" stroke-miterlimit="10" stroke-dasharray="" stroke-dashoffset="0" font-family="Handwriting" font-weight="normal" text-anchor="start" style="mix-blend-mode: normal"><tspan x="0" dy="0">$25</tspan></text><text transform="translate(204.70777,77.72771) scale(0.94963,0.94963)" font-size="40" xml:space="preserve" fill="url(#color-3)" fill-rule="nonzero" stroke="url(#color-4)" stroke-width="5" stroke-linecap="butt" stroke-linejoin="miter" stroke-miterlimit="10" stroke-dasharray="" stroke-dashoffset="0" font-family="Handwriting" font-weight="normal" text-anchor="start" style="mix-blend-mode: normal"><tspan x="0" dy="0">$25</tspan></text><path d="M238.78142,191.10028c0.28406,-10.38775 22.96496,-12.55419 22.96496,-12.55419c0,0 -6.44955,13.95166 -7.655,22.81188c-1.20544,8.86019 1.83718,24.18975 1.83718,24.18975c0,0 -17.60035,-17.87424 -17.14714,-34.44744z" data-paper-data="{&quot;index&quot;:null}" fill="none" stroke="#166700" stroke-width="1" stroke-linecap="round"/><path d="M222.52433,222.79252c0,0 3.04266,-15.32956 1.83718,-24.18974c-1.20544,-8.86019 -7.65499,-22.81188 -7.65499,-22.81188c0,0 22.68089,2.1664 22.96495,12.55415c0.4532,16.5732 -17.14714,34.44747 -17.14714,34.44747z" data-paper-data="{&quot;index&quot;:null}" fill="none" stroke="#166700" stroke-width="1" stroke-linecap="round"/><path d="M199.55942,147.16124c-9.38697,-6.91844 -27.86415,-6.2771 -27.86415,-6.2771c0,0 10.59827,-7.71192 24.34282,-7.19568c18.78229,0.70548 24.80217,19.13745 24.80217,19.13745c0,0 14.37577,-10.50977 26.18003,-3.06201c14.54299,9.17575 17.14714,31.38546 17.14714,31.38546c0,0 -11.40011,-15.31069 -19.59673,-17.75955c-12.11201,-3.61859 -29.39515,9.95148 -29.39515,9.95148c0,0 -6.2292,-19.26162 -15.61616,-26.18006z" data-paper-data="{&quot;index&quot;:null}" fill="none" stroke="#166700" stroke-width="1" stroke-linecap="round"/><path d="M225.16644,103.53673c-9.38697,6.91844 -15.61616,26.18006 -15.61616,26.18006c0,0 -17.28314,-13.57007 -29.39514,-9.95148c-8.19663,2.44885 -19.59677,17.75955 -19.59677,17.75955c0,0 2.60414,-22.20972 17.14713,-31.38546c11.80423,-7.44776 26.18004,3.06198 26.18004,3.06198c0,0 6.01987,-18.43198 24.80216,-19.13746c13.74455,-0.51624 24.34282,7.19568 24.34282,7.19568c0,0 -18.47714,-0.64135 -27.86414,6.27709z" fill="none" stroke="#166700" stroke-width="1" stroke-linecap="round"/><path d="M207.8662,132.77877c0,0 -14.74345,-0.04005 -22.63344,0.83948c-7.66885,0.85488 -24.06197,4.36592 -24.06197,4.36592c0,0 9.74152,-16.69898 21.12777,-18.52507c11.38625,-1.82609 27.55793,9.95148 27.55793,9.95148c0,0 5.42314,-19.37599 14.69757,-25.87385c10.9351,-7.66136 28.47656,-6.12399 28.47656,-6.12399c0,0 -10.88233,8.35513 -17.30027,14.23826c-6.41791,5.8831 -15.76927,16.07547 -15.76927,16.07547c0,0 7.87287,-3.31916 30.31374,12.55419c10.44066,7.38508 7.65499,11.48249 7.65499,11.48249l-13.31967,-0.30621l-26.02693,-9.33907c0,0 -2.99566,4.42014 -3.8275,7.65497c-0.83184,3.23485 -0.17261,12.14586 -3.06198,19.13748c-2.8894,6.9916 -9.3391,10.87007 -9.3391,10.87007c0,0 -3.56372,-19.8048 -1.0717,-34.60054c2.24384,-13.32211 6.5833,-12.40105 6.5833,-12.40105z" fill="none" stroke="#166700" stroke-width="1" stroke-linecap="round"/><path d="M216.85962,176.40334c0,0 4.33946,-0.92106 6.5833,12.40105c2.49203,14.79574 -1.07166,34.60052 -1.07166,34.60052c0,0 -6.4497,-3.87848 -9.33907,-10.87008c-2.8894,-6.9916 -2.23018,-15.90264 -3.06198,-19.13748c-0.83184,-3.23485 -3.82749,-7.65497 -3.82749,-7.65497l-26.02693,9.33907l-13.3197,0.30621c0,0 -2.78566,-4.09741 7.655,-11.48249c22.44087,-15.87332 30.31374,-12.55418 30.31374,-12.55418c0,0 -9.35132,-10.19237 -15.76924,-16.07548c-6.41795,-5.88313 -17.30027,-14.23826 -17.30027,-14.23826c0,0 17.54149,-1.53737 28.47656,6.12399c9.27439,6.49786 14.69758,25.87385 14.69758,25.87385c0,0 16.17168,-11.77757 27.5579,-9.95148c11.38622,1.82609 21.12777,18.52504 21.12777,18.52504c0,0 -16.39313,-3.51103 -24.06194,-4.36592c-7.89,-0.87954 -22.63344,-0.83948 -22.63344,-0.83948z" data-paper-data="{&quot;index&quot;:null}" fill="none" stroke="#166700" stroke-width="1" stroke-linecap="round"/><path d="M165.57122,194.77525c0,0 -4.46283,-9.84168 8.72665,-26.63935c4.39398,-5.59599 15.9224,-8.87979 15.9224,-8.87979l14.08516,11.32939c0,0 -23.26453,8.92396 -29.70132,12.86036c-4.5125,2.75963 -9.03289,11.32939 -9.03289,11.32939z" data-paper-data="{&quot;index&quot;:null}" fill="none" stroke="#166700" stroke-width="1" stroke-linecap="round"/><path d="M312.88164,197.53047c0,0 -4.5204,-8.56976 -9.03289,-11.32939c-6.43676,-3.9364 -29.70132,-12.86036 -29.70132,-12.86036l14.08516,-11.32939c0,0 11.52843,3.2838 15.92241,8.87979c13.18948,16.79766 8.72665,26.63935 8.72665,26.63935z" data-paper-data="{&quot;index&quot;:null}" fill="none" stroke="#166700" stroke-width="1" stroke-linecap="round"/><path d="M278.89348,149.91646c-9.38696,6.91844 -15.61617,26.18007 -15.61617,26.18007c0,0 -17.28314,-13.57008 -29.39515,-9.95149c-8.19663,2.44886 -19.59673,17.75955 -19.59673,17.75955c0,0 2.60414,-22.20972 17.14713,-31.38543c11.80426,-7.44776 26.18003,3.06197 26.18003,3.06197c0,0 6.01987,-18.43197 24.80216,-19.13745c13.74455,-0.51624 24.34282,7.19565 24.34282,7.19565c0,0 -18.47714,-0.64135 -27.86414,6.27709z" data-paper-data="{&quot;index&quot;:null}" fill="none" stroke="#166700" stroke-width="1" stroke-linecap="round"/><path d="M261.59324,179.15854c0,0 -14.74347,-0.04009 -22.63344,0.83945c-7.66885,0.85488 -24.06197,4.36592 -24.06197,4.36592c0,0 9.74152,-16.69895 21.12777,-18.52507c11.38622,-1.82609 27.5579,9.95148 27.5579,9.95148c0,0 5.42318,-19.37599 14.69758,-25.87385c10.93511,-7.66136 28.47655,-6.12396 28.47655,-6.12396c0,0 -10.88232,8.35514 -17.30027,14.23827c-6.41791,5.8831 -15.76926,16.07548 -15.76926,16.07548c0,0 7.87286,-3.31917 30.31374,12.55415c10.44066,7.38508 7.65499,11.48249 7.65499,11.48249l-13.3197,-0.30621l-26.02693,-9.33907c0,0 -2.9957,4.42015 -3.82749,7.655c-0.83184,3.23485 -0.17262,12.14588 -3.06201,19.13748c-2.88939,6.9916 -9.3391,10.87005 -9.3391,10.87005c0,0 -3.56369,-19.80478 -1.07166,-34.60051c2.24384,-13.32211 6.5833,-12.40105 6.5833,-12.40105z" data-paper-data="{&quot;index&quot;:null}" fill="none" stroke="#166700" stroke-width="1" stroke-linecap="round"/><path d="M270.58666,139.6669c0,0 4.33946,-0.92107 6.5833,12.40105c2.49203,14.79574 -1.07166,34.60052 -1.07166,34.60052c0,0 -6.44971,-3.87844 -9.33911,-10.87005c-2.88939,-6.9916 -2.23018,-15.90264 -3.06198,-19.13748c-0.8318,-3.23485 -3.8275,-7.655 -3.8275,-7.655l-26.02696,9.33908l-13.31967,0.30621c0,0 -2.78567,-4.09741 7.65499,-11.48249c22.44087,-15.87332 30.31373,-12.55416 30.31373,-12.55416c0,0 -9.35132,-10.19237 -15.76923,-16.07547c-6.41795,-5.88313 -17.30027,-14.23826 -17.30027,-14.23826c0,0 17.54148,-1.53738 28.47655,6.12398c9.2744,6.49786 14.69757,25.87386 14.69757,25.87386c0,0 16.17168,-11.77757 27.5579,-9.95148c11.38622,1.82609 21.12777,18.52507 21.12777,18.52507c0,0 -16.39312,-3.51103 -24.06194,-4.36592c-7.88997,-0.87954 -22.63344,-0.83948 -22.63344,-0.83948z" data-paper-data="{&quot;index&quot;:null}" fill="none" stroke="#166700" stroke-width="1" stroke-linecap="round"/><path d="M253.28649,110.42479c-9.38697,-6.91844 -27.86411,-6.27709 -27.86411,-6.27709c0,0 10.59827,-7.71192 24.34282,-7.19568c18.78229,0.70548 24.80216,19.13746 24.80216,19.13746c0,0 14.37578,-10.50974 26.18003,-3.06198c14.54299,9.17575 17.14713,31.38543 17.14713,31.38543c0,0 -11.4001,-15.3107 -19.59673,-17.75955c-12.11201,-3.61859 -29.39515,9.95148 -29.39515,9.95148c0,0 -6.22916,-19.26162 -15.61616,-26.18006z" data-paper-data="{&quot;index&quot;:null}" fill="none" stroke="#166700" stroke-width="1" stroke-linecap="round"/><path d="M271.22974,256.07213c0,0 29.67314,-2.24882 34.19736,-2.20948c3.75302,0.03262 5.21362,2.91363 5.21362,2.91363c0,0 -0.68419,6.87887 -4.94306,8.17506c-4.25887,1.29619 -13.49833,-2.85179 -13.49833,-2.85179c0,0 -6.67224,4.64065 -11.59715,5.13317c-4.92491,0.49252 -7.781,-2.16486 -7.781,-2.16486" data-paper-data="{&quot;index&quot;:null}" fill="none" stroke="#633400" stroke-width="1" stroke-linecap="round"/><path d="M177.71669,214.25105c7.50433,-0.35693 6.43142,10.38068 6.43142,10.38068l-13.89904,1.24784c0,0 -4.93519,-10.88962 7.46762,-11.62852z" fill="none" stroke="#633400" stroke-width="1" stroke-linecap="round"/><path d="M164.80332,197.47946c0,0 7.92938,-3.28587 11.97247,-3.64296c3.89182,-0.34372 11.84948,1.53901 11.84948,1.53901c0,0 0.12302,9.1247 -4.00892,11.39181c-4.13197,2.26711 -9.61263,1.52252 -15.22085,-1.10648c-5.60823,-2.629 -4.59218,-8.18139 -4.59218,-8.18139z" fill="none" stroke="#633400" stroke-width="1" stroke-linecap="round"/><path d="M175.58568,166.31241c3.28149,-0.31045 12.38006,2.39592 12.38006,2.39592l-3.10685,8.28496l-12.16849,-0.51782l-4.2564,-7.44609c0,0 4.05791,-2.42433 7.15168,-2.71697z" fill="none" stroke="#633400" stroke-width="1" stroke-linecap="round"/><path d="M170.87803,152.13847c0,0 4.99383,-4.67479 7.64516,-4.79006c3.19975,-0.13912 10.21925,4.01335 10.21925,4.01335l-2.84796,10.61508l-14.23971,-1.29452z" fill="none" stroke="#633400" stroke-width="1" stroke-linecap="round"/><path d="M187.36557,139.96996l21.77388,-0.25889l-3.37873,6.21371l-20.64763,0.7767z" fill="none" stroke="#535750" stroke-width="1" stroke-linecap="round"/><path d="M298.35443,241.97829c0,0 5.2666,-0.29666 7.63118,-0.13073c2.54182,0.17837 7.91128,1.16636 7.91128,1.16636l-2.58907,10.61511c0,0 -2.95937,-1.88 -4.43406,-2.35998c-1.46803,-0.47779 -5.7677,-0.51344 -5.7677,-0.51344l-2.75166,-8.77729z" fill="none" stroke="#633400" stroke-width="1" stroke-linecap="round"/><path d="M302.764,228.63413c0,0 3.57896,-0.40904 5.18149,-0.59217c1.38674,-0.1585 5.44995,0.4733 5.44995,0.4733l-0.95861,6.51933c0,0 -2.67438,1.11107 -4.31876,1.23052c-2.1898,0.15905 -7.35319,-0.36043 -7.35319,-0.36043z" fill="none" stroke="#633400" stroke-width="1" stroke-linecap="round"/><path d="M300.24285,219.33903l-1.5923,-3.93055c0,0 5.01495,-4.49337 7.69669,-5.35037c2.38325,-0.76159 10.17759,2.73192 10.17759,2.73192l-1.2867,6.85459c0,0 -5.40723,2.6415 -7.70919,2.58926c-2.18058,-0.04947 -7.28608,-2.89486 -7.28608,-2.89486z" fill="none" stroke="#633400" stroke-width="1" stroke-linecap="butt"/><path d="M301.6816,157.31655l-1.65666,-9.90922c0,0 4.78122,-2.5091 6.69169,-2.5091c2.04962,0 7.37637,1.13554 7.37637,1.13554c0,0 4.18822,0.92212 4.18822,2.00131c0,1.71895 -5.60682,8.36471 -5.60682,8.36471z" fill="none" stroke="#633400" stroke-width="1" stroke-linecap="butt"/><path d="M164.24642,199.83134c0,0 1.2112,-19.06474 11.26185,-22.00264c10.05065,-2.9379 13.14043,20.16909 13.14043,20.16909c0,0 -7.2087,-4.64879 -11.61252,-3.3615c-4.40378,1.28725 -12.78981,5.19505 -12.78981,5.19505z" fill="none" stroke="#633400" stroke-width="1" stroke-linecap="round"/><path d="M168.47643,220.61159c0,0 1.80192,-15.74616 7.96743,-16.04841c6.16548,-0.30226 7.62102,15.28421 7.62102,15.28421c0,0 -2.8451,-5.93173 -6.92821,-5.73157c-4.08314,0.20016 -8.66028,6.49577 -8.66028,6.49577z" fill="none" stroke="#633400" stroke-width="1" stroke-linecap="round"/><path d="M170.31323,251.78204c0,0 -3.56427,-13.63928 7.0286,-12.8349c4.66216,0.35401 7.33422,8.55658 7.33422,8.55658c0,0 -5.63986,0.09348 -7.9541,0.78281c-2.46397,0.73396 -6.40872,3.49547 -6.40872,3.49547z" fill="none" stroke="#633400" stroke-width="1" stroke-linecap="round"/><path d="M298.05077,242.91986c0,0 0.31016,-3.05808 2.36885,-4.60857c1.50497,-1.13348 4.51348,-0.89211 6.18769,-0.89211c1.63512,0 4.95065,-1.50902 6.12766,-0.40946c1.67672,1.56643 0.90098,5.9101 0.90098,5.9101c0,0 -2.82967,-0.91676 -6.41744,-0.91676c-3.58776,0 -9.16774,0.91676 -9.16774,0.91676z" fill="none" stroke="#633400" stroke-width="1" stroke-linecap="round"/><path d="M302.32906,228.86261c0,0 -0.75793,-2.56143 1.00988,-4.42211c0.59114,-0.62219 3.63604,-1.4374 4.18523,-1.68973c2.1916,-1.00698 6.11181,0.91679 6.11181,0.91679l-0.61116,5.50065c0,0 -0.90203,-1.14341 -3.66712,-1.22239c-2.76509,-0.07901 -7.02863,0.91676 -7.02863,0.91676z" fill="none" stroke="#633400" stroke-width="1" stroke-linecap="round"/><path d="M298.05077,215.41658c0,0 -1.7567,-17.35013 9.16774,-18.33555c8.47377,-0.76433 9.77897,15.89081 9.77897,15.89081c0,0 -5.87271,-3.2938 -10.08456,-2.75034c-4.21185,0.54346 -8.86214,5.19504 -8.86214,5.19504z" fill="none" stroke="#633400" stroke-width="1" stroke-linecap="round"/><path d="M299.35155,198.81081l-1.09049,-11.49814c0,0 5.15145,-1.50044 6.51274,-1.50044c2.23947,0 9.60272,1.33853 9.60272,1.33853l-1.93969,10.53472c0,0 -4.85885,-0.75019 -7.05183,-0.75019c-1.77337,0 -6.03344,1.87553 -6.03344,1.87553z" fill="none" stroke="#633400" stroke-width="1" stroke-linecap="butt"/><path d="M297.74517,188.06192c0,0 -4.25058,-16.73662 7.94539,-16.50482c8.20042,0.15583 8.84999,10.04316 8.71145,14.61123c-0.04172,1.37553 -0.1549,2.26872 -0.1549,2.26872c0,0 -4.28375,-1.72008 -7.63979,-1.87553c-3.35604,-0.15545 -8.86214,1.50043 -8.86214,1.50043z" fill="none" stroke="#633400" stroke-width="1" stroke-linecap="round"/><path d="M299.05624,175.78186v-8.55574c0,0 5.19868,-1.74114 8.00704,-1.74114c2.88544,0 9.08066,1.74114 9.08066,1.74114c0,0 -0.2371,5.36097 -2.44474,6.46635c-2.20767,1.10538 -14.64296,2.08938 -14.64296,2.08938z" fill="none" stroke="#633400" stroke-width="1" stroke-linecap="butt"/><path d="M298.50667,168.54079c0,0 0.25311,-10.62479 11.00132,-11.49152c6.80809,-0.54899 7.02863,10.09861 7.02863,10.09861c0,0 -4.82947,-0.28313 -8.55658,0c-3.72711,0.28313 -9.47334,1.39291 -9.47334,1.39291z" fill="none" stroke="#633400" stroke-width="1" stroke-linecap="round"/><path d="M299.57865,148.18619c0,0 -12.95287,-15.96866 5.80628,-15.89078c11.25626,0.04674 14.36282,11.91812 14.36282,11.91812l-1.52795,4.58389c0,0 -5.56888,-2.62231 -9.47337,-2.75034c-3.90452,-0.12803 -9.16778,2.13915 -9.16778,2.13915z" fill="none" stroke="#633400" stroke-width="1" stroke-linecap="round"/><path d="M176.11947,162.54907c2.73732,0.08422 11.89793,2.30026 11.89793,2.30026l-0.90355,5.74523c0,0 -5.58535,-2.73099 -9.4664,-2.8504c-3.88105,-0.11942 -9.77897,1.83355 -9.77897,1.83355c0,0 3.02228,-7.18952 8.25098,-7.02863z" fill="none" stroke="#633400" stroke-width="1" stroke-linecap="round"/><path d="M188.34318,151.54776c0,0 -5.64893,-1.94708 -8.73055,-1.84766c-3.22726,0.10412 -10.21616,2.45885 -10.21616,2.45885l-0.61116,-6.41744c0,0 4.2059,-3.93438 6.78874,-5.3018c2.6119,-1.38276 8.79644,-2.94922 8.79644,-2.94922c0,0 3.4993,4.20176 4.16842,6.56938c0.65482,2.317 -0.19573,7.48784 -0.19573,7.48784z" fill="none" stroke="#633400" stroke-width="1" stroke-linecap="round"/><path d="M181.8035,136.26815l29.33686,-1.52795l0.30557,5.80624c0,0 -7.35357,-1.16019 -11.91808,-0.91676c-4.5645,0.24343 -11.00132,2.13915 -11.00132,2.13915z" fill="none" stroke="#633400" stroke-width="1" stroke-linecap="round"/><path d="M186.90115,138.49656c28.47093,0 95.34943,0 110.4598,0c5.93822,0 11.64392,8.57898 11.64392,14.76064c0,10.44413 0,42.13494 0,42.13494h-135.00645c0,0 0,-32.54587 0,-42.94005c0,-5.92556 4.95484,-13.95552 12.90273,-13.95552z" data-paper-data="{&quot;index&quot;:null}" fill="none" stroke="#662900" stroke-width="1" stroke-linecap="butt"/><path d="M173.99842,246.17117c0,-12.09716 0,-49.97543 0,-49.97543h135.00645c0,0 0,36.88305 0,49.03839c0,7.19449 -5.70569,17.17909 -11.64392,17.17909c-15.11037,0 -81.98891,0 -110.45984,0c-7.94789,0 -12.90272,-9.3456 -12.90272,-16.24202z" fill="none" stroke="#662900" stroke-width="1" stroke-linecap="butt"/><path d="M186.90111,138.49656c28.47093,0 95.34947,0 110.45984,0c5.93822,0 11.64392,8.57898 11.64392,14.76064c0,10.44413 0,42.13494 0,42.13494h-135.00645c0,0 0,-32.54587 0,-42.94005c0,-5.92556 4.95484,-13.95552 12.90269,-13.95552z" data-paper-data="{&quot;index&quot;:null}" fill="#542d03" stroke="none" stroke-width="0" stroke-linecap="butt"/><path d="M173.99842,246.17117c0,-12.09716 0,-49.97543 0,-49.97543h135.00645c0,0 0,36.88305 0,49.03839c0,7.19446 -5.70569,17.17906 -11.64392,17.17906c-15.11037,0 -81.98891,0 -110.45984,0c-7.94789,0 -12.90272,-9.34557 -12.90272,-16.24202z" fill="#7c500e" stroke="none" stroke-width="0" stroke-linecap="butt"/><path d="M174.40019,195.71357h133.2385z" fill="none" stroke="#6b3c00" stroke-width="0.5" stroke-linecap="round"/><path d="M272.13242,223.70408l-17.41156,6.16102l-9.64332,1.87508l-0.26786,-42.05557l60.80649,-1.07147l-1.07146,39.10902l-24.37616,-2.41083z" fill="#542d03" stroke="#000000" stroke-width="0" stroke-linecap="round"/><path d="M178.91371,222.63261v-31.07293h58.93138v31.07293z" fill="#542d03" stroke="none" stroke-width="0" stroke-linecap="butt"/><path d="M180.38699,190.97613h123.35411v10.44693h-123.35411z" fill="#448fdd" stroke="none" stroke-width="0" stroke-linecap="butt"/><path d="M300.84247,236.2959c0,1.31879 -3.00678,2.38788 -6.71586,2.38788c-3.70907,0 -6.7159,-1.06909 -6.7159,-2.38788c0,-1.31879 3.00682,-2.38784 6.7159,-2.38784c3.70907,0 6.71586,1.06909 6.71586,2.38784z" fill="#673f04" stroke="none" stroke-width="0" stroke-linecap="butt"/><path d="M273.23272,257.82689c0,1.03029 -2.34904,1.86553 -5.24676,1.86553c-2.89772,0 -5.24677,-0.83524 -5.24677,-1.86553c0,-1.03029 2.34908,-1.8655 5.24677,-1.8655c2.89772,0 5.24676,0.83521 5.24676,1.8655z" fill="#673f04" stroke="none" stroke-width="0" stroke-linecap="butt"/><path d="M170.67234,251.29888c0,0 3.03626,-2.49138 4.81134,-3.21299c2.01558,-0.81936 8.22241,-1.4473 8.22241,-1.4473l1.92953,5.69589c0,0 -6.00782,0.46519 -8.48316,1.37944c-2.20996,0.81625 -5.66323,3.84534 -5.66323,3.84534z" fill="#8d927e" stroke="#000000" stroke-width="0" stroke-linecap="round"/><path d="M170.24907,225.87951c0,0 -4.93516,-10.88962 7.46766,-11.62853c7.5043,-0.3569 6.43138,10.38071 6.43138,10.38071l-13.89904,1.24784z" fill="#ef9a00" stroke="#000000" stroke-width="0" stroke-linecap="round"/><path d="M164.80329,197.47946c0,0 7.92937,-3.28587 11.97247,-3.64296c3.89182,-0.34372 11.84948,1.53901 11.84948,1.53901c0,0 0.12302,9.12467 -4.00892,11.39178c-4.13197,2.26711 -9.61262,1.52252 -15.22089,-1.10647c-5.60823,-2.62903 -4.59218,-8.18139 -4.59218,-8.18139z" fill="#ef9a00" stroke="#000000" stroke-width="0" stroke-linecap="round"/><path d="M175.58565,166.31241c3.28146,-0.31042 12.38005,2.39592 12.38005,2.39592l-3.10685,8.28496l-12.16851,-0.51782l-4.25637,-7.44609c0,0 4.05791,-2.42433 7.15168,-2.71697z" fill="#ef9a00" stroke="#000000" stroke-width="0" stroke-linecap="round"/><path d="M170.87803,152.13847c0,0 4.99383,-4.67479 7.64516,-4.79006c3.19975,-0.13912 10.21925,4.01335 10.21925,4.01335l-2.84796,10.61508l-14.23974,-1.29452z" fill="#ef9a00" stroke="#000000" stroke-width="0" stroke-linecap="round"/><path d="M187.3655,139.96996l21.77388,-0.25889l-3.3787,6.21371l-20.64763,0.7767z" fill="#ef9a00" stroke="#000000" stroke-width="0" stroke-linecap="round"/><path d="M305.98561,241.84756c2.54182,0.17837 7.91125,1.16636 7.91125,1.16636l-2.58904,10.61511c0,0 -2.95937,-1.88 -4.43406,-2.35998c-1.46803,-0.47782 -5.7677,-0.51344 -5.7677,-0.51344l-2.75163,-8.77729c0,0 5.26664,-0.29669 7.63118,-0.13076z" fill="#ef9a00" stroke="#000000" stroke-width="0" stroke-linecap="round"/><path d="M302.764,228.63413c0,0 3.57899,-0.40901 5.18149,-0.59217c1.38674,-0.15847 5.44995,0.47333 5.44995,0.47333l-0.95861,6.5193c0,0 -2.67438,1.11107 -4.31876,1.23052c-2.18977,0.15905 -7.35319,-0.36043 -7.35319,-0.36043z" fill="#ef9a00" stroke="#000000" stroke-width="0" stroke-linecap="round"/><path d="M300.24285,219.33903l-1.5923,-3.93055c0,0 5.01491,-4.4934 7.69665,-5.35037c2.38322,-0.76159 10.17762,2.73192 10.17762,2.73192l-1.2867,6.85459c0,0 -5.40724,2.6415 -7.70916,2.58926c-2.18058,-0.04947 -7.28607,-2.89486 -7.28607,-2.89486z" fill="#ef9a00" stroke="#000000" stroke-width="0" stroke-linecap="butt"/><path d="M301.6816,157.31655l-1.65663,-9.90922c0,0 4.78122,-2.50906 6.69169,-2.50906c2.04962,0 7.37637,1.13553 7.37637,1.13553c0,0 4.18822,0.92213 4.18822,2.00128c0,1.71899 -5.60681,8.36471 -5.60681,8.36471z" fill="#ef9a00" stroke="#000000" stroke-width="0" stroke-linecap="butt"/><path d="M164.24642,199.83134c0,0 1.2112,-19.06474 11.26185,-22.00264c10.05065,-2.9379 13.14047,20.16909 13.14047,20.16909c0,0 -7.2087,-4.64879 -11.61252,-3.36154c-4.40378,1.28725 -12.78984,5.19509 -12.78984,5.19509z" fill="#fbba1f" stroke="#000000" stroke-width="0" stroke-linecap="round"/><path d="M168.47637,220.61162c0,0 1.80192,-15.74618 7.96744,-16.04844c6.16552,-0.30229 7.62105,15.28421 7.62105,15.28421c0,0 -2.84507,-5.93173 -6.92821,-5.73157c-4.08311,0.20016 -8.66025,6.49577 -8.66025,6.49577z" fill="#fbba1f" stroke="#000000" stroke-width="0" stroke-linecap="round"/><path d="M177.34185,238.94711c4.66219,0.35401 7.33423,8.55658 7.33423,8.55658c0,0 -5.63986,0.09348 -7.95409,0.78281c-2.464,0.73396 -6.40876,3.49548 -6.40876,3.49548c0,0 -3.56424,-13.63922 7.02863,-12.83487z" fill="#fbba1f" stroke="#000000" stroke-width="0" stroke-linecap="round"/><path d="M298.0508,242.91977c0,0 0.31013,-3.05805 2.36885,-4.60854c1.505,-1.13344 4.51352,-0.89211 6.18773,-0.89211c1.63509,0 4.95063,-1.50901 6.12763,-0.40942c1.67672,1.56643 0.90097,5.9101 0.90097,5.9101c0,0 -2.82967,-0.91676 -6.41743,-0.91676c-3.58776,0 -9.16778,0.91676 -9.16778,0.91676z" fill="#fbba1f" stroke="#000000" stroke-width="0" stroke-linecap="round"/><path d="M302.32909,228.86261c0,0 -0.75797,-2.56143 1.00985,-4.42211c0.59111,-0.62215 3.63601,-1.4374 4.1852,-1.68973c2.19164,-1.00698 6.11184,0.91679 6.11184,0.91679l-0.61116,5.50065c0,0 -0.902,-1.14337 -3.66712,-1.22239c-2.76513,-0.07901 -7.02863,0.91676 -7.02863,0.91676z" fill="#fbba1f" stroke="#000000" stroke-width="0" stroke-linecap="round"/><path d="M307.21851,197.081c8.47375,-0.76436 9.77893,15.89081 9.77893,15.89081c0,0 -5.87271,-3.2938 -10.08456,-2.75034c-4.21185,0.54346 -8.86214,5.19508 -8.86214,5.19508c0,0 -1.75666,-17.35012 9.16778,-18.33554z" fill="#fbba1f" stroke="#000000" stroke-width="0" stroke-linecap="round"/><path d="M299.35155,198.81081l-1.09049,-11.49818c0,0 5.15145,-1.50044 6.51274,-1.50044c2.23944,0 9.60272,1.33853 9.60272,1.33853l-1.93969,10.53471c0,0 -4.85885,-0.75019 -7.05183,-0.75019c-1.77337,0 -6.03344,1.87553 -6.03344,1.87553z" fill="#ef9a00" stroke="#000000" stroke-width="0" stroke-linecap="butt"/><path d="M297.74517,188.06192c0,0 -4.25058,-16.73662 7.94539,-16.50482c8.20042,0.15587 8.84999,10.04316 8.71145,14.61123c-0.04172,1.37553 -0.1549,2.26872 -0.1549,2.26872c0,0 -4.28375,-1.72008 -7.63979,-1.87553c-3.35604,-0.15545 -8.86214,1.50043 -8.86214,1.50043z" fill="#fbba1f" stroke="#000000" stroke-width="0" stroke-linecap="round"/><path d="M299.05621,175.78186v-8.55574c0,0 5.19868,-1.74114 8.00704,-1.74114c2.88544,0 9.08066,1.74114 9.08066,1.74114c0,0 -0.23707,5.36101 -2.44474,6.46639c-2.20767,1.10538 -14.64296,2.08938 -14.64296,2.08938z" fill="#ef9a00" stroke="#000000" stroke-width="0" stroke-linecap="butt"/><path d="M298.50667,168.54079c0,0 0.25311,-10.62475 11.00132,-11.49149c6.80809,-0.54903 7.02863,10.09858 7.02863,10.09858c0,0 -4.82947,-0.28313 -8.55658,0c-3.72711,0.28313 -9.47334,1.39291 -9.47334,1.39291z" fill="#fbba1f" stroke="#000000" stroke-width="0" stroke-linecap="round"/><path d="M305.38499,132.29542c11.25629,0.04671 14.36282,11.91812 14.36282,11.91812l-1.52795,4.58389c0,0 -5.56888,-2.62234 -9.47337,-2.75034c-3.90452,-0.128 -9.16778,2.13915 -9.16778,2.13915c0,0 -12.95287,-15.96867 5.80628,-15.89081z" fill="#fbba1f" stroke="#000000" stroke-width="0" stroke-linecap="round"/><path d="M176.11947,162.54907c2.73732,0.08422 11.89793,2.30029 11.89793,2.30029l-0.90355,5.7452c0,0 -5.58537,-2.73099 -9.4664,-2.8504c-3.88102,-0.11942 -9.77897,1.83355 -9.77897,1.83355c0,0 3.02225,-7.18952 8.25098,-7.02863z" fill="#fbba1f" stroke="#000000" stroke-width="0" stroke-linecap="round"/><path d="M188.34318,151.54776c0,0 -5.64896,-1.94705 -8.73055,-1.84766c-3.22724,0.10412 -10.21616,2.45885 -10.21616,2.45885l-0.6112,-6.41744c0,0 4.20591,-3.93438 6.78877,-5.30177c2.6119,-1.38276 8.79644,-2.94921 8.79644,-2.94921c0,0 3.4993,4.20175 4.16842,6.56938c0.65482,2.317 -0.19573,7.48784 -0.19573,7.48784z" fill="#fbba1f" stroke="#000000" stroke-width="0" stroke-linecap="round"/><path d="M181.80346,136.26815l29.33687,-1.52795l0.30559,5.80624c0,0 -7.35357,-1.16019 -11.91808,-0.91676c-4.5645,0.24343 -11.00132,2.13915 -11.00132,2.13915z" fill="#fbba1f" stroke="#000000" stroke-width="0" stroke-linecap="round"/><path d="M236.96594,252.52776c0,2.96265 -4.50317,5.36438 -10.05814,5.36438c-5.55497,0 -10.05818,-2.40173 -10.05818,-5.36438c0,-2.96265 4.50321,-5.36435 10.05818,-5.36435c5.55497,0 10.05814,2.4017 10.05814,5.36435z" fill="#673f04" stroke="none" stroke-width="0" stroke-linecap="butt"/><path d="M273.25844,255.91581c0,0 27.84315,-2.09077 32.16863,-2.05316c3.75302,0.03262 5.21363,2.91363 5.21363,2.91363c0,0 -0.68419,6.87887 -4.94307,8.17506c-4.25887,1.29619 -13.49833,-2.85179 -13.49833,-2.85179c0,0 -6.67224,4.64065 -11.59715,5.13317c-3.08525,0.30856 -7.67878,-1.9565 -7.67878,-1.9565z" fill="#ef9a00" stroke="#000000" stroke-width="0" stroke-linecap="butt"/><path d="M309.86052,258.10384c0,0 -4.80903,-3.46449 -7.42552,-3.25234c-5.62703,0.4562 -7.50964,5.09586 -7.50964,5.09586c0,0 -4.82166,-1.36826 -7.7677,-0.61448c-2.946,0.75376 -11.93665,5.656 -11.93665,5.656l-2.19993,-2.14744l-2.7703,-9.59915l3.19534,-1.8286c0,0 7.27788,-3.85016 8.91785,-3.85797c4.14531,-0.01984 10.95217,4.88193 10.95217,4.88193c0,0 5.23253,-2.2675 8.77256,-2.37987c3.54,-0.11237 9.29304,1.84345 9.29304,1.84345z" fill="#fbba1f" stroke="#000000" stroke-width="0" stroke-linecap="butt"/><path d="M208.60395,264.45349c0,0 -7.88226,3.0027 -11.34749,3.94775c-3.25257,0.88705 -8.8464,1.55965 -8.8464,1.55965l-3.67163,-4.07958l-13.66657,-2.44777l-1.33409,-8.15911c0,0 3.68329,-2.31086 9.94544,-1.67642c6.9682,0.70593 27.87369,4.07176 27.87369,4.07176" fill="none" stroke="#633400" stroke-width="1" stroke-linecap="round"/><path d="M169.03208,255.27447c0,0 4.38899,-2.31086 10.65114,-1.67643c7.02152,0.71135 28.13027,4.0977 28.13027,4.0977l0.79047,6.75775c0,0 -7.88226,3.0027 -11.34749,3.94775c-3.25257,0.88705 -8.8464,1.55965 -8.8464,1.55965l-3.67163,-4.07958l-13.66657,-2.44777z" fill="#ef9a00" stroke="#000000" stroke-width="0" stroke-linecap="butt"/><path d="M209.02996,262.28644c0,0 -8.79747,-3.33611 -14.61724,-3.04514c-5.81977,0.291 -8.40322,4.19613 -8.40322,4.19613c0,0 0.64218,-8.65401 -7.19385,-8.63267c-7.4249,0.02025 -8.05715,6.33061 -8.05715,6.33061l-1.64888,-7.7694c0,0 3.74777,-4.26736 9.35633,-4.6988c5.60855,-0.43144 8.40682,3.25999 8.40682,3.25999c0,0 3.11456,-4.18774 8.04259,-4.85541c3.0993,-0.4199 9.77074,3.57654 9.77074,3.57654z" fill="#fbba1f" stroke="#000000" stroke-width="0" stroke-linecap="butt"/><path d="M170.01046,245.6756l13.00279,-1.3852l-0.1758,5.03426l-13.19363,3.97237z" fill="#ef9a00" stroke="#000000" stroke-width="0" stroke-linecap="round"/><path d="M236.43877,262.69831v-123.3541h10.44693v123.35411z" fill="#448fdd" stroke="none" stroke-width="0" stroke-linecap="butt"/><path d="M185.05435,144.72054c0.28406,-10.38775 22.96496,-12.55419 22.96496,-12.55419c0,0 -6.44952,13.95166 -7.655,22.81185c-1.20548,8.86019 1.83718,24.18975 1.83718,24.18975c0,0 -17.60038,-17.87425 -17.14714,-34.44745z" fill="none" stroke="#166700" stroke-width="1" stroke-linecap="round"/><path d="M259.15457,151.15074c0,0 -4.5204,-8.56976 -9.03289,-11.32939c-6.43679,-3.93643 -29.70132,-12.86039 -29.70132,-12.86039l14.08519,-11.32939c0,0 11.52839,3.28381 15.92237,8.8798c13.18949,16.79767 8.72669,26.63934 8.72669,26.63934z" fill="none" stroke="#166700" stroke-width="1" stroke-linecap="round"/><path d="M228.60901,183.08375c0,6.87912 -6.32573,12.45576 -14.12891,12.45576c-7.80318,0 -14.12891,-5.57664 -14.12891,-12.45576c0,-6.87912 6.32573,-12.45576 14.12891,-12.45576c7.80318,0 14.12891,5.57664 14.12891,12.45576z" fill="#542d03" stroke="none" stroke-width="0" stroke-linecap="butt"/><path d="M225.80162,165.7334l0.44111,18.3071c0,0 -1.53544,8.61235 -10.14612,8.16098c-12.55991,-0.65835 -12.79289,-7.27871 -12.79289,-7.27871l-2.20568,-19.63048z" fill="#c96e00" stroke="#000000" stroke-width="0" stroke-linecap="round"/><path d="M224.17723,171.83045l-17.97097,4.70963z" fill="none" stroke="#a85400" stroke-width="0.5" stroke-linecap="round"/><path d="M224.79694,176.16827l-18.34281,-3.71814z" fill="none" stroke="#a85400" stroke-width="0.5" stroke-linecap="round"/><path d="M224.67303,186.57907c0,0 -4.10763,2.06258 -9.29536,0c-5.18772,-2.06261 -11.27835,-8.17991 -11.27835,-8.17991" fill="none" stroke="#a35400" stroke-width="0.5" stroke-linecap="round"/><path d="M224.92089,181.00186c0,0 -5.30212,4.27636 -9.17141,6.19689c-3.86928,1.92053 -7.8081,2.23089 -7.8081,2.23089" fill="none" stroke="#a35400" stroke-width="0.5" stroke-linecap="round"/><path d="M207.81747,166.749v-7.43625h17.47524v7.43625z" fill="#9b4300" stroke="none" stroke-width="0" stroke-linecap="butt"/><path d="M242.35334,158.60496c0,0 -9.01396,6.22033 -16.44957,0.79943c-9.59983,-6.9987 -9.75319,-15.06556 -9.75319,-15.06556l5.2208,0.37185l9.30027,10.13481z" fill="#ffba00" stroke="#000000" stroke-width="0" stroke-linecap="round"/><path d="M247.79121,149.46654c0,0 -8.52848,8.68927 -17.05819,5.237c-11.01238,-4.45711 -13.12073,-12.24511 -13.12073,-12.24511l5.15478,-0.9075l11.48364,7.57202z" fill="#ffba00" stroke="#000000" stroke-width="0" stroke-linecap="round"/><path d="M247.75588,149.41041c0,0 -6.70139,6.00757 -15.23104,2.55532c-11.01238,-4.45708 -10.45918,-14.06588 -10.45918,-14.06588c0,0 3.80416,7.95715 13.08682,9.63081c7.77274,1.40147 12.6034,1.87971 12.6034,1.87971z" fill="#ffda00" stroke="#000000" stroke-width="0" stroke-linecap="round"/><path d="M241.70293,159.23297c0,0 -8.18473,1.65023 -13.25895,-2.04914c-9.59983,-6.9987 -6.72905,-16.18525 -6.72905,-16.18525c0,0 1.75731,8.64285 10.35535,12.52137c4.67241,2.10768 10.16412,4.28093 10.16412,4.28093z" fill="#ffda00" stroke="#000000" stroke-width="0" stroke-linecap="round"/><path d="M231.03852,165.0248c0,0 -10.47586,3.08769 -15.85754,-4.3763c-6.94805,-9.63656 -4.58568,-17.35131 -4.58568,-17.35131l4.84641,1.97665l5.68831,12.5241z" fill="#ffba00" stroke="#000000" stroke-width="0" stroke-linecap="round"/><path d="M230.58865,165.35879c0,0 -8.5604,-0.70232 -12.43319,-6.07359c-6.94807,-9.63656 -1.36331,-17.47523 -1.36331,-17.47523c0,0 -1.01702,8.76089 5.94903,15.1204c3.60921,3.29496 8.09705,7.03888 8.09705,7.03888z" fill="#ffda00" stroke="#000000" stroke-width="0" stroke-linecap="round"/><path d="M186.73483,141.37174l13.02867,-4.41169l4.75602,2.18528c0,0 -4.01478,6.99857 -15.79753,8.51675c-7.02008,0.90448 -14.24237,-7.97788 -14.24237,-7.97788l0.40756,-1.09989z" data-paper-data="{&quot;index&quot;:null}" fill="#ffba00" stroke="#000000" stroke-width="0" stroke-linecap="round"/><path d="M186.26639,139.6028c9.40362,0.73549 15.10163,-5.99657 15.10163,-5.99657c0,0 -1.90205,9.43485 -13.6848,10.953c-6.78555,0.87429 -13.11954,-5.12593 -13.11954,-5.12593l0.61541,-0.98227c0,0 5.87803,0.7443 11.08738,1.15174z" data-paper-data="{&quot;index&quot;:null}" fill="#ffda00" stroke="#000000" stroke-width="0" stroke-linecap="round"/><path d="M187.55117,147.74475l11.01608,-8.23745l5.19938,0.6013c0,0 -1.64441,7.899 -12.37414,12.99912c-8.31077,3.95032 -15.96798,-3.53482 -15.96798,-3.53482z" data-paper-data="{&quot;index&quot;:null}" fill="#ffba00" stroke="#000000" stroke-width="0" stroke-linecap="round"/><path d="M186.55685,146.20857c9.16748,-2.21938 12.49475,-10.38739 12.49475,-10.38739c0,0 1.12011,9.55926 -9.60963,14.65935c-6.17375,2.93453 -14.0563,-0.79731 -14.0563,-0.79731l0.3335,-1.13936c0,0 5.80911,-1.11795 10.83765,-2.33532z" data-paper-data="{&quot;index&quot;:null}" fill="#ffda00" stroke="#000000" stroke-width="0" stroke-linecap="round"/><path d="M190.27962,153.13083l9.57295,-9.87768l5.22899,-0.22944c0,0 -0.3731,8.05972 -10.16003,14.79426c-8.67638,5.49023 -16.55443,-1.14762 -16.55443,-1.14762z" data-paper-data="{&quot;index&quot;:null}" fill="#ffba00" stroke="#000000" stroke-width="0" stroke-linecap="round"/><path d="M189.05463,151.77141c8.70049,-3.6428 10.69264,-12.2346 10.69264,-12.2346c0,0 2.61941,9.26134 -7.16753,15.99588c-5.43192,3.73782 -13.71752,1.54544 -13.71752,1.54544l-0.00534,-1.33242c0,0 5.53307,-2.02124 10.19778,-3.9743z" data-paper-data="{&quot;index&quot;:null}" fill="#ffda00" stroke="#000000" stroke-width="0" stroke-linecap="round"/><path d="M225.16647,103.53673c-9.38697,6.91844 -15.61616,26.18006 -15.61616,26.18006c0,0 -17.28314,-13.57007 -29.39515,-9.95148c-8.19663,2.44885 -19.59677,17.75955 -19.59677,17.75955c0,0 2.60415,-22.20972 17.14714,-31.38546c11.80423,-7.44776 26.18003,3.06198 26.18003,3.06198c0,0 6.01987,-18.43198 24.80216,-19.13746c13.74455,-0.51624 24.34282,7.19568 24.34282,7.19568c0,0 -18.47715,-0.64135 -27.86415,6.27709z" fill="url(#color-5)" stroke="#000000" stroke-width="0" stroke-linecap="round"/><path d="M207.7131,132.77877c0,0 -14.74345,-0.04005 -22.63345,0.83948c-7.66885,0.85488 -24.82746,4.51902 -24.82746,4.51902c0,0 10.50703,-16.85208 21.89325,-18.67817c11.38625,-1.82609 27.55794,9.95148 27.55794,9.95148c0,0 5.42315,-19.37599 14.69758,-25.87385c10.9351,-7.66136 28.47655,-6.12399 28.47655,-6.12399c0,0 -10.88233,8.35513 -17.30027,14.23826c-6.41791,5.8831 -15.76926,16.07547 -15.76926,16.07547c0,0 7.87286,-3.31916 30.31373,12.55419c10.44066,7.38508 8.57362,11.48249 8.57362,11.48249l-14.2383,-0.30621l-26.02693,-9.33907c0,0 -2.99566,4.42014 -3.82749,7.65497c-0.83184,3.23485 -0.17262,12.14586 -3.06198,19.13748c-2.8894,6.9916 -9.33911,10.87007 -9.33911,10.87007c0,0 -3.56372,-19.8048 -1.07169,-34.60054c2.24384,-13.32211 6.5833,-12.40105 6.5833,-12.40105z" fill="url(#color-6)" stroke="#000000" stroke-width="0" stroke-linecap="round"/><path d="M185.05439,144.72054c0.28406,-10.38775 22.96495,-12.55419 22.96495,-12.55419c0,0 -6.44952,13.95166 -7.655,22.81185c-1.20548,8.86019 1.83718,24.18975 1.83718,24.18975c0,0 -17.60037,-17.87425 -17.14713,-34.44745z" fill="#37a000" stroke="#000000" stroke-width="0" stroke-linecap="round"/><path d="M258.8484,151.76316c0,0 -4.21419,-9.18214 -8.72669,-11.94177c-6.43679,-3.93643 -29.70132,-12.86039 -29.70132,-12.86039l12.45849,-11.32939c0,0 13.15509,3.28381 17.54907,8.87979c13.18949,16.79766 8.72669,26.63935 8.72669,26.63935z" fill="#32a400" stroke="#000000" stroke-width="0" stroke-linecap="round"/><path d="M161.7832,134.46285c0,0 4.10551,-18.00478 13.01343,-24.95523c11.04035,-8.61424 21.28085,-4.74609 21.28085,-4.74609" fill="none" stroke="#5db900" stroke-width="0.5" stroke-linecap="round"/><path d="M207.8662,102.00573c0,0 2.19328,-10.87888 22.35254,-11.78867c9.96582,-0.44976 21.28084,6.43017 21.28084,6.43017" fill="none" stroke="#64c400" stroke-width="0.5" stroke-linecap="round"/><path d="M201.74218,132.62567l-39.04043,4.13367" fill="none" stroke="#64ca00" stroke-width="0.5" stroke-linecap="round"/><path d="M202.3546,179.01485c0,0 -11.25584,-15.58084 -14.43698,-22.59632c-5.48293,-12.09163 1.57661,-18.12815 1.57661,-18.12815" fill="none" stroke="#7ab302" stroke-width="0.5" stroke-linecap="round"/><path d="M218.43007,142.88333c0,0 -2.94889,3.33273 -3.6744,5.97089c-0.72547,2.63816 -0.67279,11.59632 -3.06198,18.52507c-2.38923,6.92875 -8.72669,11.63559 -8.72669,11.63559" fill="none" stroke="#6ace00" stroke-width="0.5" stroke-linecap="round"/><path d="M257.31736,151.30385c0,0 -9.24721,0.01128 -15.3736,-1.57116c-7.44496,-1.92304 -23.66679,-8.07412 -23.66679,-8.07412" fill="none" stroke="#62be00" stroke-width="0.5" stroke-linecap="round"/><path d="M201.89532,147.93566c-1.23271,12.86901 0.61241,32.76334 0.61241,32.76334c0,0 -4.82401,-20.80285 -3.8275,-33.06951c0.66076,-8.13366 8.42048,-12.55418 8.42048,-12.55418c0,0 -4.29008,3.30518 -5.20539,12.86039z" fill="#90dc00" stroke="#000000" stroke-width="0" stroke-linecap="round"/><path d="M251.49961,139.51514c4.38112,3.5163 7.50189,12.55419 7.50189,12.55419c0,0 -5.57574,-8.17679 -9.49215,-10.41076c-11.58194,-6.60651 -30.16064,-14.69758 -30.16064,-14.69758c0,0 18.67805,1.74074 32.15092,12.55419z" fill="#8cdf00" stroke="#000000" stroke-width="0" stroke-linecap="round"/><path d="M213.2247,120.837c0,0 1.13119,-14.22868 11.4825,-19.59677c11.97819,-6.21184 27.40483,-3.67439 27.40483,-3.67439c0,0 -18.23751,1.92323 -25.56768,6.12399c-7.33017,4.20076 -13.31964,17.14713 -13.31964,17.14713z" fill="#85dd00" stroke="#000000" stroke-width="0" stroke-linecap="round"/><path d="M180.00206,118.99976c17.99578,-5.19042 24.64906,2.14339 24.64906,2.14339c0,0 -13.2711,-3.20477 -24.03668,0.76552c-10.76555,3.97029 -17.60645,14.08519 -17.60645,14.08519c0,0 9.38311,-14.7989 16.99407,-16.9941z" fill="#8dde00" stroke="#000000" stroke-width="0" stroke-linecap="round"/><path d="M176.02146,106.59871l-1.2248,7.5019l-4.59298,-3.06198z" fill="#166700" stroke="#000000" stroke-width="0" stroke-linecap="round"/><path d="M208.47862,99.09685l1.83718,8.42048l-4.89919,-1.3779l-0.45932,6.43019l-5.2054,-5.35851l-3.52129,4.59299l-0.30621,-7.96117l7.04258,1.83718z" fill="#166700" stroke="#000000" stroke-width="0" stroke-linecap="round"/><path d="M227.00365,120.837l-4.2868,3.36819l-1.99028,-7.04258z" fill="#166700" stroke="#000000" stroke-width="0" stroke-linecap="round"/><path d="M175.10287,132.16639l0.61238,4.59298l-2.29649,0.30621z" fill="#166700" stroke="#000000" stroke-width="0" stroke-linecap="round"/><path d="M200.82362,126.65479l4.59302,5.51157l-5.0523,1.07173z" fill="#166700" stroke="#000000" stroke-width="0" stroke-linecap="round"/><path d="M217.66458,140.73994l-0.30621,2.14339l-7.04258,-1.68411l5.05226,-0.61241l-3.21508,-2.14338l6.7364,-4.43988z" fill="#166700" stroke="#000000" stroke-width="0" stroke-linecap="round"/><path d="M188.26944,158.6526l5.51161,3.82749l-2.6027,3.21511z" fill="#166700" stroke="#000000" stroke-width="0" stroke-linecap="round"/><path d="M211.69373,168.45098l-3.36819,-4.59301l4.28681,1.07172z" fill="#166700" stroke="#000000" stroke-width="0" stroke-linecap="round"/><path d="M276.25137,186.05608c0,0 3.04265,-15.32957 1.83721,-24.18975c-1.20544,-8.86019 -7.65499,-22.81188 -7.65499,-22.81188c0,0 22.68089,2.1664 22.96495,12.55416c0.45321,16.5732 -17.14717,34.44747 -17.14717,34.44747z" data-paper-data="{&quot;index&quot;:null}" fill="none" stroke="#166700" stroke-width="1" stroke-linecap="round"/><path d="M263.97279,177.51605c7.80318,0 14.12891,5.57664 14.12891,12.45576c0,6.87912 -6.32576,12.45576 -14.12891,12.45576c-7.80318,0 -14.1289,-5.57664 -14.1289,-12.45576c0,-6.87912 6.32572,-12.45576 14.1289,-12.45576z" data-paper-data="{&quot;index&quot;:null}" fill="#542d03" stroke="none" stroke-width="0" stroke-linecap="butt"/><path d="M277.35482,172.18034l-2.20565,19.63048c0,0 -0.23302,6.62036 -12.79292,7.27871c-8.61068,0.45134 -10.14612,-8.16098 -10.14612,-8.16098l0.44115,-18.30709z" data-paper-data="{&quot;index&quot;:null}" fill="#c96e00" stroke="#000000" stroke-width="0" stroke-linecap="round"/><path d="M254.27563,178.71858l17.971,4.70961z" data-paper-data="{&quot;index&quot;:null}" fill="none" stroke="#a85400" stroke-width="0.5" stroke-linecap="round"/><path d="M271.99873,179.33822l-18.34281,3.71814z" data-paper-data="{&quot;index&quot;:null}" fill="none" stroke="#a85400" stroke-width="0.5" stroke-linecap="round"/><path d="M274.35353,185.28725c0,0 -6.09062,6.11727 -11.27834,8.17991c-5.18772,2.06258 -9.29536,0 -9.29536,0" data-paper-data="{&quot;index&quot;:null}" fill="none" stroke="#a35400" stroke-width="0.5" stroke-linecap="round"/><path d="M270.51148,196.3177c0,0 -3.93882,-0.31035 -7.8081,-2.23088c-3.86928,-1.92053 -9.17137,-6.1969 -9.17137,-6.1969" data-paper-data="{&quot;index&quot;:null}" fill="none" stroke="#a35400" stroke-width="0.5" stroke-linecap="round"/><path d="M253.16016,173.63709v-7.43625h17.47523v7.43625z" data-paper-data="{&quot;index&quot;:null}" fill="#9b4300" stroke="none" stroke-width="0" stroke-linecap="butt"/><path d="M247.78124,161.73361l9.30028,-10.1348l5.22079,-0.37185c0,0 -0.15336,8.06689 -9.75318,15.0656c-7.43561,5.42086 -16.44958,-0.79946 -16.44958,-0.79946z" data-paper-data="{&quot;index&quot;:null}" fill="#ffba00" stroke="#000000" stroke-width="0" stroke-linecap="round"/><path d="M244.20219,156.01107l11.48364,-7.57206l5.15474,0.90753c0,0 -2.10832,7.78797 -13.12073,12.24508c-8.52971,3.45225 -17.05819,-5.23703 -17.05819,-5.23703z" data-paper-data="{&quot;index&quot;:null}" fill="#ffba00" stroke="#000000" stroke-width="0" stroke-linecap="round"/><path d="M243.30038,154.41877c9.28266,-1.6737 13.08682,-9.63085 13.08682,-9.63085c0,0 0.5532,9.6088 -10.45918,14.06588c-8.52967,3.45225 -15.23104,-2.55532 -15.23104,-2.55532c0,0 4.83066,-0.47824 12.6034,-1.87974z" data-paper-data="{&quot;index&quot;:null}" fill="#ffda00" stroke="#000000" stroke-width="0" stroke-linecap="round"/><path d="M236.21852,164.689c0,0 5.49167,-2.17329 10.16409,-4.28093c8.59805,-3.87848 10.35535,-12.52133 10.35535,-12.52133c0,0 2.87078,9.18654 -6.72905,16.18525c-5.07425,3.69937 -13.25895,2.04911 -13.25895,2.04911z" data-paper-data="{&quot;index&quot;:null}" fill="#ffda00" stroke="#000000" stroke-width="0" stroke-linecap="round"/><path d="M257.32289,164.68601l5.68828,-12.52407l4.84644,-1.97666c0,0 2.36236,7.71475 -4.58569,17.35132c-5.38168,7.46399 -15.85754,4.3763 -15.85754,4.3763z" data-paper-data="{&quot;index&quot;:null}" fill="#ffba00" stroke="#000000" stroke-width="0" stroke-linecap="round"/><path d="M247.6147,170.85731c0,0 4.48784,-3.74393 8.09705,-7.03889c6.96601,-6.35951 5.94903,-15.1204 5.94903,-15.1204c0,0 5.58477,7.83867 -1.36331,17.47523c-3.87279,5.37126 -12.43319,6.07362 -12.43319,6.07362z" data-paper-data="{&quot;index&quot;:null}" fill="#ffda00" stroke="#000000" stroke-width="0" stroke-linecap="round"/><path d="M303.56572,145.4724l0.40756,1.09986c0,0 -7.2223,8.88236 -14.24238,7.97788c-11.78275,-1.51818 -15.79752,-8.51675 -15.79752,-8.51675l4.75602,-2.18528l13.02866,4.41173z" data-paper-data="{&quot;index&quot;:null}" fill="#ffba00" stroke="#000000" stroke-width="0" stroke-linecap="round"/><path d="M292.18644,146.4909c5.20935,-0.40743 11.08737,-1.15174 11.08737,-1.15174l0.6154,0.98227c0,0 -6.33402,6.00024 -13.11954,5.12594c-11.78275,-1.51818 -13.6848,-10.95301 -13.6848,-10.95301c0,0 5.69798,6.73206 15.10159,5.99657z" data-paper-data="{&quot;index&quot;:null}" fill="#ffda00" stroke="#000000" stroke-width="0" stroke-linecap="round"/><path d="M303.02842,156.461c0,0 -7.65722,7.48514 -15.96798,3.53482c-10.72974,-5.10016 -12.37414,-12.99913 -12.37414,-12.99913l5.19939,-0.60129l11.01605,8.23745z" data-paper-data="{&quot;index&quot;:null}" fill="#ffba00" stroke="#000000" stroke-width="0" stroke-linecap="round"/><path d="M291.89601,153.09663c5.02854,1.21734 10.83764,2.33532 10.83764,2.33532l0.3335,1.13936c0,0 -7.88255,3.73187 -14.0563,0.79731c-10.72974,-5.1001 -9.60963,-14.65935 -9.60963,-14.65935c0,0 3.32727,8.16802 12.49475,10.38739z" data-paper-data="{&quot;index&quot;:null}" fill="#ffda00" stroke="#000000" stroke-width="0" stroke-linecap="round"/><path d="M300.08576,163.55841c0,0 -7.87804,6.63785 -16.55442,1.14762c-9.78694,-6.73454 -10.16001,-14.79426 -10.16001,-14.79426l5.22899,0.22944l9.57292,9.87768z" data-paper-data="{&quot;index&quot;:null}" fill="#ffba00" stroke="#000000" stroke-width="0" stroke-linecap="round"/><path d="M289.39826,158.65954c4.6647,1.95303 10.19774,3.97427 10.19774,3.97427l-0.00534,1.33241c0,0 -8.2856,2.19241 -13.71752,-1.54541c-9.78694,-6.73454 -7.16753,-15.99591 -7.16753,-15.99591c0,0 1.99212,8.59181 10.69261,12.23461z" data-paper-data="{&quot;index&quot;:null}" fill="#ffda00" stroke="#000000" stroke-width="0" stroke-linecap="round"/><path d="M253.28645,110.42479c-9.38697,-6.91844 -27.86414,-6.27709 -27.86414,-6.27709c0,0 10.59826,-7.71192 24.34282,-7.19568c18.78229,0.70548 24.80216,19.13746 24.80216,19.13746c0,0 14.37581,-10.50974 26.18003,-3.06198c14.54299,9.17575 17.14713,31.38543 17.14713,31.38543c0,0 -11.4001,-15.3107 -19.59673,-17.75955c-12.11201,-3.61859 -29.39515,9.95148 -29.39515,9.95148c0,0 -6.22916,-19.26162 -15.61616,-26.18006z" data-paper-data="{&quot;index&quot;:null}" fill="url(#color-7)" stroke="#000000" stroke-width="0" stroke-linecap="round"/><path d="M270.73976,139.6669c0,0 4.33949,-0.92107 6.58333,12.40105c2.49203,14.79574 -1.0717,34.60052 -1.0717,34.60052c0,0 -6.4497,-3.87844 -9.33907,-10.87005c-2.88939,-6.9916 -2.23018,-15.90264 -3.06198,-19.13748c-0.83184,-3.23485 -3.82749,-7.655 -3.82749,-7.655l-26.02696,9.33908l-14.23829,0.30621c0,0 -1.86707,-4.09741 8.57359,-11.48249c22.44087,-15.87332 30.31377,-12.55416 30.31377,-12.55416c0,0 -9.35132,-10.19237 -15.76927,-16.07547c-6.41795,-5.88313 -17.30027,-14.23826 -17.30027,-14.23826c0,0 17.54145,-1.53738 28.47656,6.12398c9.27439,6.49786 14.69758,25.87386 14.69758,25.87386c0,0 16.17168,-11.77757 27.55793,-9.95148c11.38622,1.82609 21.89326,18.67818 21.89326,18.67818c0,0 -17.15865,-3.66415 -24.82746,-4.51906c-7.88997,-0.87954 -22.63345,-0.83948 -22.63345,-0.83948z" data-paper-data="{&quot;index&quot;:null}" fill="url(#color-8)" stroke="#000000" stroke-width="0" stroke-linecap="round"/><path d="M276.25134,186.05608c0,0 3.04266,-15.32957 1.83722,-24.18975c-1.20544,-8.86019 -7.65499,-22.81188 -7.65499,-22.81188c0,0 22.68089,2.1664 22.96495,12.55416c0.45321,16.5732 -17.14713,34.44747 -17.14713,34.44747z" data-paper-data="{&quot;index&quot;:null}" fill="#37a000" stroke="#000000" stroke-width="0" stroke-linecap="round"/><path d="M219.29826,158.03884c0,0 -4.46279,-9.84168 8.72669,-26.63935c4.39398,-5.59598 17.54904,-8.87979 17.54904,-8.87979l12.45853,11.32936c0,0 -23.26457,8.92399 -29.70136,12.86039c-4.5125,2.75963 -8.72666,11.94177 -8.72666,11.94177z" data-paper-data="{&quot;index&quot;:null}" fill="#32a400" stroke="#000000" stroke-width="0" stroke-linecap="round"/><path d="M282.37539,111.64962c0,0 10.2405,-3.86816 21.28088,4.74609c8.90795,6.95042 13.01343,24.95524 13.01343,24.95524" data-paper-data="{&quot;index&quot;:null}" fill="none" stroke="#5db900" stroke-width="0.5" stroke-linecap="round"/><path d="M226.95332,103.53532c0,0 11.31502,-6.87993 21.28084,-6.43017c20.15926,0.90981 22.35253,11.78867 22.35253,11.78867" data-paper-data="{&quot;index&quot;:null}" fill="none" stroke="#64c400" stroke-width="0.5" stroke-linecap="round"/><path d="M276.71072,139.51373l39.04039,4.1337" data-paper-data="{&quot;index&quot;:null}" fill="none" stroke="#64ca00" stroke-width="0.5" stroke-linecap="round"/><path d="M288.95866,145.17844c0,0 7.05955,6.03652 1.57662,18.12815c-3.18114,7.01548 -14.43701,22.59635 -14.43701,22.59635" data-paper-data="{&quot;index&quot;:null}" fill="none" stroke="#7ab302" stroke-width="0.5" stroke-linecap="round"/><path d="M275.48591,185.90298c0,0 -6.33746,-4.70681 -8.72669,-11.63556c-2.38923,-6.92875 -2.33651,-15.88691 -3.06201,-18.52507c-0.7255,-2.63818 -3.67439,-5.97089 -3.67439,-5.97089" data-paper-data="{&quot;index&quot;:null}" fill="none" stroke="#6ace00" stroke-width="0.5" stroke-linecap="round"/><path d="M260.17593,148.54663c0,0 -16.22183,6.15108 -23.66679,8.07412c-6.12637,1.58244 -15.3736,1.57116 -15.3736,1.57116" data-paper-data="{&quot;index&quot;:null}" fill="none" stroke="#62be00" stroke-width="0.5" stroke-linecap="round"/><path d="M271.35218,141.96336c0,0 7.75972,4.42049 8.42045,12.55415c0.99651,12.26668 -3.82747,33.06951 -3.82747,33.06951c0,0 1.84512,-19.89432 0.61239,-32.7633c-0.91528,-9.55521 -5.20537,-12.86036 -5.20537,-12.86036z" data-paper-data="{&quot;index&quot;:null}" fill="#90dc00" stroke="#000000" stroke-width="0" stroke-linecap="round"/><path d="M259.1042,133.84905c0,0 -18.57869,8.09106 -30.16066,14.69758c-3.91644,2.234 -9.49214,10.41076 -9.49214,10.41076c0,0 3.12074,-9.03788 7.50186,-12.55416c13.47287,-10.8134 32.15095,-12.55415 32.15095,-12.55415z" data-paper-data="{&quot;index&quot;:null}" fill="#8cdf00" stroke="#000000" stroke-width="0" stroke-linecap="round"/><path d="M265.22819,127.72507c0,0 -5.98946,-12.94641 -13.31964,-17.14717c-7.33017,-4.20076 -25.56768,-6.12399 -25.56768,-6.12399c0,0 15.42664,-2.53745 27.40483,3.67439c10.3513,5.36808 11.48249,19.59677 11.48249,19.59677z" data-paper-data="{&quot;index&quot;:null}" fill="#85dd00" stroke="#000000" stroke-width="0" stroke-linecap="round"/><path d="M315.4449,142.88195c0,0 -6.84087,-10.11491 -17.60645,-14.08519c-10.76558,-3.97025 -24.03668,-0.76551 -24.03668,-0.76551c0,0 6.65328,-7.33381 24.64906,-2.14339c7.61095,2.19521 16.99407,16.99406 16.99407,16.99406z" data-paper-data="{&quot;index&quot;:null}" fill="#8dde00" stroke="#000000" stroke-width="0" stroke-linecap="round"/><path d="M308.24915,117.92672l-4.59295,3.06198l-1.2248,-7.50192z" data-paper-data="{&quot;index&quot;:null}" fill="#166700" stroke="#000000" stroke-width="0" stroke-linecap="round"/><path d="M275.48589,112.56818l7.04257,-1.83718l-0.3062,7.96117l-3.52129,-4.59295l-5.20536,5.3585l-0.45932,-6.4302l-4.89919,1.3779l1.83722,-8.42048z" data-paper-data="{&quot;index&quot;:null}" fill="#166700" stroke="#000000" stroke-width="0" stroke-linecap="round"/><path d="M257.7263,124.0507l-1.99028,7.04258l-4.28681,-3.36818z" data-paper-data="{&quot;index&quot;:null}" fill="#166700" stroke="#000000" stroke-width="0" stroke-linecap="round"/><path d="M305.0341,143.95364l-2.29649,-0.30621l0.61241,-4.59295z" data-paper-data="{&quot;index&quot;:null}" fill="#166700" stroke="#000000" stroke-width="0" stroke-linecap="round"/><path d="M278.08858,140.12615l-5.05229,-1.0717l4.59302,-5.51157z" data-paper-data="{&quot;index&quot;:null}" fill="#166700" stroke="#000000" stroke-width="0" stroke-linecap="round"/><path d="M259.56351,140.89163l6.73638,4.43988l-3.21509,2.14342l5.05227,0.61241l-7.04258,1.68411l-0.30621,-2.14339z" data-paper-data="{&quot;index&quot;:null}" fill="#166700" stroke="#000000" stroke-width="0" stroke-linecap="round"/><path d="M287.27455,172.5833l-2.6027,-3.21511l5.51157,-3.8275z" data-paper-data="{&quot;index&quot;:null}" fill="#166700" stroke="#000000" stroke-width="0" stroke-linecap="round"/><path d="M265.84057,171.81779l4.28678,-1.07169l-3.36819,4.59301z" data-paper-data="{&quot;index&quot;:null}" fill="#166700" stroke="#000000" stroke-width="0" stroke-linecap="round"/><path d="M282.33605,229.46348c0,6.87912 -6.32573,12.45576 -14.12891,12.45576c-7.80318,0 -14.12891,-5.57664 -14.12891,-12.45576c0,-6.87912 6.32576,-12.45576 14.12891,-12.45576c7.80318,0 14.12891,5.57664 14.12891,12.45576z" data-paper-data="{&quot;index&quot;:null}" fill="#542d03" stroke="none" stroke-width="0" stroke-linecap="butt"/><path d="M279.52869,212.11313l0.44115,18.3071c0,0 -1.53544,8.61232 -10.14612,8.16098c-12.55991,-0.65835 -12.79292,-7.27871 -12.79292,-7.27871l-2.20569,-19.63048z" data-paper-data="{&quot;index&quot;:null}" fill="#c96e00" stroke="#000000" stroke-width="0" stroke-linecap="round"/><path d="M277.9043,218.21021l-17.971,4.70964z" data-paper-data="{&quot;index&quot;:null}" fill="none" stroke="#a85400" stroke-width="0.5" stroke-linecap="round"/><path d="M260.1812,218.82989l18.34281,3.71814z" data-paper-data="{&quot;index&quot;:null}" fill="none" stroke="#a85400" stroke-width="0.5" stroke-linecap="round"/><path d="M278.40006,232.95883c0,0 -4.1076,2.06258 -9.29535,0c-5.18772,-2.06261 -11.27834,-8.17991 -11.27834,-8.17991" data-paper-data="{&quot;index&quot;:null}" fill="none" stroke="#a35400" stroke-width="0.5" stroke-linecap="round"/><path d="M278.64796,227.38162c0,0 -5.30209,4.27636 -9.17138,6.19689c-3.86928,1.92053 -7.8081,2.23089 -7.8081,2.23089" data-paper-data="{&quot;index&quot;:null}" fill="none" stroke="#a35400" stroke-width="0.5" stroke-linecap="round"/><path d="M261.54454,213.12876v-7.43625h17.47523v7.43625z" data-paper-data="{&quot;index&quot;:null}" fill="#9b4300" stroke="none" stroke-width="0" stroke-linecap="butt"/><path d="M296.08038,204.98472c0,0 -9.01396,6.22029 -16.44957,0.79946c-9.59983,-6.9987 -9.75319,-15.06557 -9.75319,-15.06557l5.2208,0.37185l9.30027,10.13483z" data-paper-data="{&quot;index&quot;:null}" fill="#ffba00" stroke="#000000" stroke-width="0" stroke-linecap="round"/><path d="M301.51828,195.8463c0,0 -8.52849,8.68928 -17.05819,5.23703c-11.01238,-4.45711 -13.12073,-12.24508 -13.12073,-12.24508l5.15474,-0.90754l11.48362,7.57207z" data-paper-data="{&quot;index&quot;:null}" fill="#ffba00" stroke="#000000" stroke-width="0" stroke-linecap="round"/><path d="M301.48295,195.79017c0,0 -6.70137,6.00757 -15.23104,2.55532c-11.01241,-4.45708 -10.45918,-14.06587 -10.45918,-14.06587c0,0 3.80412,7.95715 13.08682,9.63084c7.77274,1.40147 12.6034,1.87974 12.6034,1.87974z" data-paper-data="{&quot;index&quot;:null}" fill="#ffda00" stroke="#000000" stroke-width="0" stroke-linecap="round"/><path d="M295.42997,205.61273c0,0 -8.18471,1.65023 -13.25896,-2.04914c-9.59983,-6.9987 -6.72908,-16.18524 -6.72908,-16.18524c0,0 1.7573,8.64285 10.35535,12.52133c4.67241,2.10768 10.16409,4.28096 10.16409,4.28096z" data-paper-data="{&quot;index&quot;:null}" fill="#ffda00" stroke="#000000" stroke-width="0" stroke-linecap="round"/><path d="M284.76555,211.40457c0,0 -10.47589,3.08772 -15.85754,-4.3763c-6.94804,-9.63654 -4.58568,-17.35128 -4.58568,-17.35128l4.84641,1.97662l5.6883,12.52407z" data-paper-data="{&quot;index&quot;:null}" fill="#ffba00" stroke="#000000" stroke-width="0" stroke-linecap="round"/><path d="M284.31572,211.73855c0,0 -8.5604,-0.70236 -12.43319,-6.07362c-6.94808,-9.63654 -1.36331,-17.47523 -1.36331,-17.47523c0,0 -1.01702,8.76089 5.94903,15.1204c3.6092,3.29496 8.09701,7.03889 8.09701,7.03889z" data-paper-data="{&quot;index&quot;:null}" fill="#ffda00" stroke="#000000" stroke-width="0" stroke-linecap="round"/><path d="M240.4619,187.7515l13.0287,-4.41172l4.75602,2.18528c0,0 -4.01478,6.99857 -15.79753,8.51675c-7.02008,0.90451 -14.24238,-7.97789 -14.24238,-7.97789l0.40756,-1.09985z" data-paper-data="{&quot;index&quot;:null}" fill="#ffba00" stroke="#000000" stroke-width="0" stroke-linecap="round"/><path d="M239.99343,185.98257c9.40362,0.73549 15.10163,-5.99657 15.10163,-5.99657c0,0 -1.90205,9.43486 -13.6848,10.95301c-6.78552,0.87429 -13.11954,-5.12594 -13.11954,-5.12594l0.6154,-0.98224c0,0 5.87802,0.7443 11.08737,1.1517z" data-paper-data="{&quot;index&quot;:null}" fill="#ffda00" stroke="#000000" stroke-width="0" stroke-linecap="round"/><path d="M241.27824,194.12452l11.01604,-8.23745l5.19935,0.60129c0,0 -1.6444,7.899 -12.37414,12.99913c-8.31077,3.95032 -15.96802,-3.53482 -15.96802,-3.53482z" data-paper-data="{&quot;index&quot;:null}" fill="#ffba00" stroke="#000000" stroke-width="0" stroke-linecap="round"/><path d="M240.28389,192.58834c9.16748,-2.21938 12.49475,-10.3874 12.49475,-10.3874c0,0 1.1201,9.55926 -9.6096,14.65936c-6.17375,2.93456 -14.0563,-0.79731 -14.0563,-0.79731l0.3335,-1.13936c0,0 5.80911,-1.11798 10.83765,-2.33532z" data-paper-data="{&quot;index&quot;:null}" fill="#ffda00" stroke="#000000" stroke-width="0" stroke-linecap="round"/><path d="M244.00669,199.5106l9.57296,-9.87765l5.22899,-0.22948c0,0 -0.37309,8.05972 -10.16003,14.79426c-8.67638,5.49023 -16.55443,-1.14762 -16.55443,-1.14762z" data-paper-data="{&quot;index&quot;:null}" fill="#ffba00" stroke="#000000" stroke-width="0" stroke-linecap="round"/><path d="M242.78167,198.15118c8.70049,-3.64276 10.6926,-12.2346 10.6926,-12.2346c0,0 2.61942,9.26135 -7.16752,15.99592c-5.43192,3.73782 -13.71752,1.54541 -13.71752,1.54541l-0.00534,-1.33241c0,0 5.53308,-2.02124 10.19778,-3.97427z" data-paper-data="{&quot;index&quot;:null}" fill="#ffda00" stroke="#000000" stroke-width="0" stroke-linecap="round"/><path d="M278.89351,149.91646c-9.38696,6.91844 -15.61616,26.18007 -15.61616,26.18007c0,0 -17.28314,-13.57008 -29.39515,-9.95149c-8.19663,2.44886 -19.59674,17.75955 -19.59674,17.75955c0,0 2.60415,-22.20972 17.14714,-31.38543c11.80426,-7.44776 26.18006,3.06197 26.18006,3.06197c0,0 6.01987,-18.43197 24.80216,-19.13745c13.74455,-0.51624 24.34282,7.19565 24.34282,7.19565c0,0 -18.47718,-0.64135 -27.86414,6.27709z" data-paper-data="{&quot;index&quot;:null}" fill="url(#color-9)" stroke="#000000" stroke-width="0" stroke-linecap="round"/><path d="M261.44016,179.15854c0,0 -14.74347,-0.04009 -22.63344,0.83945c-7.66885,0.85488 -24.82746,4.51905 -24.82746,4.51905c0,0 10.50703,-16.85208 21.89325,-18.67817c11.38625,-1.82609 27.55794,9.95149 27.55794,9.95149c0,0 5.42314,-19.376 14.69757,-25.87386c10.93511,-7.66136 28.47656,-6.12396 28.47656,-6.12396c0,0 -10.88232,8.35513 -17.30027,14.23826c-6.41791,5.8831 -15.76927,16.07547 -15.76927,16.07547c0,0 7.8729,-3.31916 30.31377,12.55416c10.44066,7.38508 8.57358,11.48249 8.57358,11.48249l-14.23829,-0.3062l-26.02696,-9.33907c0,0 -2.9957,4.42014 -3.8275,7.65499c-0.83184,3.23485 -0.17262,12.14588 -3.06198,19.13748c-2.88939,6.9916 -9.3391,10.87005 -9.3391,10.87005c0,0 -3.56372,-19.80477 -1.0717,-34.60051c2.24384,-13.32211 6.5833,-12.40105 6.5833,-12.40105z" data-paper-data="{&quot;index&quot;:null}" fill="url(#color-10)" stroke="#000000" stroke-width="0" stroke-linecap="round"/><path d="M238.78146,191.10028c0.28406,-10.38775 22.96495,-12.55419 22.96495,-12.55419c0,0 -6.44955,13.95166 -7.65499,22.81188c-1.20544,8.86019 1.83718,24.18975 1.83718,24.18975c0,0 -17.60038,-17.87424 -17.14717,-34.44744z" data-paper-data="{&quot;index&quot;:null}" fill="#37a000" stroke="#000000" stroke-width="0" stroke-linecap="round"/><path d="M312.57544,198.14289c0,0 -4.2142,-9.18214 -8.72666,-11.94177c-6.43678,-3.9364 -29.70135,-12.86039 -29.70135,-12.86039l12.45849,-11.32935c0,0 13.15506,3.28377 17.54907,8.87979c13.18948,16.79766 8.72669,26.63934 8.72669,26.63934z" data-paper-data="{&quot;index&quot;:null}" fill="#32a400" stroke="#000000" stroke-width="0" stroke-linecap="round"/><path d="M215.51027,180.84261c0,0 4.10551,-18.00478 13.01343,-24.95524c11.04035,-8.61425 21.28088,-4.74608 21.28088,-4.74608" data-paper-data="{&quot;index&quot;:null}" fill="none" stroke="#5db900" stroke-width="0.5" stroke-linecap="round"/><path d="M261.59324,148.38548c0,0 2.19331,-10.87885 22.35257,-11.78866c9.96582,-0.44977 21.28084,6.43016 21.28084,6.43016" data-paper-data="{&quot;index&quot;:null}" fill="none" stroke="#64c400" stroke-width="0.5" stroke-linecap="round"/><path d="M216.42882,183.13911l39.04043,-4.1337" data-paper-data="{&quot;index&quot;:null}" fill="none" stroke="#64ca00" stroke-width="0.5" stroke-linecap="round"/><path d="M256.08167,225.39461c0,0 -11.25587,-15.58087 -14.43701,-22.59635c-5.48293,-12.09163 1.57662,-18.12815 1.57662,-18.12815" data-paper-data="{&quot;index&quot;:null}" fill="none" stroke="#7ab302" stroke-width="0.5" stroke-linecap="round"/><path d="M272.15711,189.26309c0,0 -2.94889,3.33273 -3.6744,5.97088c-0.7255,2.63816 -0.67275,11.59632 -3.06201,18.52508c-2.38923,6.92875 -8.72669,11.63556 -8.72669,11.63556" data-paper-data="{&quot;index&quot;:null}" fill="none" stroke="#6ace00" stroke-width="0.5" stroke-linecap="round"/><path d="M311.04443,197.68361c0,0 -9.2472,0.01128 -15.37357,-1.57116c-7.44497,-1.92304 -23.66679,-8.07413 -23.66679,-8.07413" data-paper-data="{&quot;index&quot;:null}" fill="none" stroke="#62be00" stroke-width="0.5" stroke-linecap="round"/><path d="M255.62239,194.31539c-1.23271,12.86898 0.61241,32.76331 0.61241,32.76331c0,0 -4.82401,-20.80283 -3.82747,-33.06951c0.66076,-8.13366 8.42045,-12.55415 8.42045,-12.55415c0,0 -4.29009,3.30518 -5.2054,12.86036z" data-paper-data="{&quot;index&quot;:null}" fill="#90dc00" stroke="#000000" stroke-width="0" stroke-linecap="round"/><path d="M305.22668,185.89491c4.38112,3.5163 7.50186,12.55416 7.50186,12.55416c0,0 -5.57574,-8.17676 -9.49218,-10.41076c-11.58195,-6.60651 -30.16063,-14.69757 -30.16063,-14.69757c0,0 18.67807,1.74075 32.15092,12.55416z" data-paper-data="{&quot;index&quot;:null}" fill="#8cdf00" stroke="#000000" stroke-width="0" stroke-linecap="round"/><path d="M266.95177,167.21677c0,0 1.13123,-14.22869 11.48249,-19.59677c11.97822,-6.21184 27.40483,-3.6744 27.40483,-3.6744c0,0 -18.23751,1.92323 -25.56768,6.12399c-7.33017,4.20076 -13.31964,17.14717 -13.31964,17.14717z" data-paper-data="{&quot;index&quot;:null}" fill="#85dd00" stroke="#000000" stroke-width="0" stroke-linecap="round"/><path d="M233.72913,165.37952c17.99578,-5.19042 24.64903,2.14338 24.64903,2.14338c0,0 -13.2711,-3.20473 -24.03664,0.76552c-10.76558,3.97028 -17.60645,14.08519 -17.60645,14.08519c0,0 9.38311,-14.79889 16.99407,-16.99407z" data-paper-data="{&quot;index&quot;:null}" fill="#8dde00" stroke="#000000" stroke-width="0" stroke-linecap="round"/><path d="M229.74853,152.97847l-1.2248,7.50189l-4.59295,-3.06198z" data-paper-data="{&quot;index&quot;:null}" fill="#166700" stroke="#000000" stroke-width="0" stroke-linecap="round"/><path d="M262.20565,145.47658l1.83718,8.42048l-4.89916,-1.3779l-0.45931,6.43019l-5.20537,-5.35851l-3.52129,4.59296l-0.30621,-7.96117l7.04258,1.83718z" data-paper-data="{&quot;index&quot;:null}" fill="#166700" stroke="#000000" stroke-width="0" stroke-linecap="round"/><path d="M280.73072,167.21673l-4.28678,3.36819l-1.99028,-7.04258z" data-paper-data="{&quot;index&quot;:null}" fill="#166700" stroke="#000000" stroke-width="0" stroke-linecap="round"/><path d="M228.82994,178.54615l0.61241,4.59295l-2.29649,0.30621z" data-paper-data="{&quot;index&quot;:null}" fill="#166700" stroke="#000000" stroke-width="0" stroke-linecap="round"/><path d="M254.55066,173.03455l4.59301,5.51157l-5.05229,1.0717z" data-paper-data="{&quot;index&quot;:null}" fill="#166700" stroke="#000000" stroke-width="0" stroke-linecap="round"/><path d="M271.39165,187.11971l-0.30621,2.14338l-7.04258,-1.68411l5.0523,-0.61241l-3.21509,-2.14342l6.73641,-4.43988z" data-paper-data="{&quot;index&quot;:null}" fill="#166700" stroke="#000000" stroke-width="0" stroke-linecap="round"/><path d="M241.99651,205.03236l5.5116,3.82749l-2.6027,3.21511z" data-paper-data="{&quot;index&quot;:null}" fill="#166700" stroke="#000000" stroke-width="0" stroke-linecap="round"/><path d="M265.42077,214.83074l-3.36822,-4.59301l4.28681,1.07169z" data-paper-data="{&quot;index&quot;:null}" fill="#166700" stroke="#000000" stroke-width="0" stroke-linecap="round"/><path d="M210.24575,214.2525c7.80318,0 14.12891,5.57664 14.12891,12.45576c0,6.87912 -6.32576,12.45576 -14.12891,12.45576c-7.80318,0 -14.1289,-5.57664 -14.1289,-12.45576c0,-6.87912 6.32572,-12.45576 14.1289,-12.45576z" data-paper-data="{&quot;index&quot;:null}" fill="#542d03" stroke="none" stroke-width="0" stroke-linecap="butt"/><path d="M223.62775,208.91679l-2.20568,19.63048c0,0 -0.23299,6.62036 -12.79289,7.27871c-8.61068,0.45134 -10.14609,-8.16098 -10.14609,-8.16098l0.44111,-18.3071z" data-paper-data="{&quot;index&quot;:null}" fill="#c96e00" stroke="#000000" stroke-width="0" stroke-linecap="round"/><path d="M200.54859,215.45499l17.97097,4.70964z" data-paper-data="{&quot;index&quot;:null}" fill="none" stroke="#a85400" stroke-width="0.5" stroke-linecap="round"/><path d="M218.27169,216.07467l-18.34281,3.71814z" data-paper-data="{&quot;index&quot;:null}" fill="none" stroke="#a85400" stroke-width="0.5" stroke-linecap="round"/><path d="M220.6265,222.0237c0,0 -6.09062,6.11727 -11.27835,8.17991c-5.18772,2.06258 -9.29532,0 -9.29532,0" data-paper-data="{&quot;index&quot;:null}" fill="none" stroke="#a35400" stroke-width="0.5" stroke-linecap="round"/><path d="M216.78444,233.05414c0,0 -3.93881,-0.31032 -7.8081,-2.23085c-3.86928,-1.92053 -9.17141,-6.1969 -9.17141,-6.1969" data-paper-data="{&quot;index&quot;:null}" fill="none" stroke="#a35400" stroke-width="0.5" stroke-linecap="round"/><path d="M199.43312,210.37354v-7.43625h17.47527v7.43625z" data-paper-data="{&quot;index&quot;:null}" fill="#9b4300" stroke="none" stroke-width="0" stroke-linecap="butt"/><path d="M194.05417,198.47005l9.30031,-10.13484l5.22079,-0.37184c0,0 -0.15336,8.06689 -9.75319,15.0656c-7.43561,5.42086 -16.44957,-0.79947 -16.44957,-0.79947z" data-paper-data="{&quot;index&quot;:null}" fill="#ffba00" stroke="#000000" stroke-width="0" stroke-linecap="round"/><path d="M190.47515,192.74751l11.48365,-7.57206l5.15474,0.9075c0,0 -2.10832,7.78797 -13.12073,12.24508c-8.52971,3.45225 -17.05819,-5.237 -17.05819,-5.237z" data-paper-data="{&quot;index&quot;:null}" fill="#ffba00" stroke="#000000" stroke-width="0" stroke-linecap="round"/><path d="M189.57334,191.15521c9.28266,-1.6737 13.08682,-9.63084 13.08682,-9.63084c0,0 0.55324,9.60877 -10.45917,14.06588c-8.52967,3.45225 -15.23104,-2.55532 -15.23104,-2.55532c0,0 4.83066,-0.47825 12.6034,-1.87971z" data-paper-data="{&quot;index&quot;:null}" fill="#ffda00" stroke="#000000" stroke-width="0" stroke-linecap="round"/><path d="M182.49145,201.42544c0,0 5.49168,-2.17328 10.16409,-4.28092c8.59805,-3.87848 10.35535,-12.52133 10.35535,-12.52133c0,0 2.87075,9.18655 -6.72907,16.18525c-5.07425,3.69937 -13.25895,2.04911 -13.25895,2.04911z" data-paper-data="{&quot;index&quot;:null}" fill="#ffda00" stroke="#000000" stroke-width="0" stroke-linecap="round"/><path d="M203.59585,201.42245l5.6883,-12.5241l4.84641,-1.97662c0,0 2.36236,7.71475 -4.58569,17.35132c-5.38168,7.46399 -15.85753,4.3763 -15.85753,4.3763z" data-paper-data="{&quot;index&quot;:null}" fill="#ffba00" stroke="#000000" stroke-width="0" stroke-linecap="round"/><path d="M193.88763,207.59376c0,0 4.48781,-3.74392 8.09705,-7.03888c6.96601,-6.35951 5.94902,-15.1204 5.94902,-15.1204c0,0 5.58477,7.8387 -1.3633,17.47523c-3.87279,5.37126 -12.43319,6.07362 -12.43319,6.07362z" data-paper-data="{&quot;index&quot;:null}" fill="#ffda00" stroke="#000000" stroke-width="0" stroke-linecap="round"/><path d="M249.83868,182.20885l0.40756,1.09985c0,0 -7.2223,8.88239 -14.24241,7.97788c-11.78275,-1.51818 -15.79752,-8.51675 -15.79752,-8.51675l4.75599,-2.18528l13.02867,4.41172z" data-paper-data="{&quot;index&quot;:null}" fill="#ffba00" stroke="#000000" stroke-width="0" stroke-linecap="round"/><path d="M238.4594,183.22734c5.20935,-0.40743 11.08737,-1.1517 11.08737,-1.1517l0.6154,0.98227c0,0 -6.33402,6.00023 -13.11954,5.12594c-11.78275,-1.51818 -13.6848,-10.95301 -13.6848,-10.95301c0,0 5.69801,6.73203 15.10163,5.99653z" data-paper-data="{&quot;index&quot;:null}" fill="#ffda00" stroke="#000000" stroke-width="0" stroke-linecap="round"/><path d="M249.30138,193.19744c0,0 -7.65725,7.48514 -15.96802,3.53482c-10.72974,-5.10016 -12.37414,-12.99913 -12.37414,-12.99913l5.19936,-0.60129l11.01604,8.23745z" data-paper-data="{&quot;index&quot;:null}" fill="#ffba00" stroke="#000000" stroke-width="0" stroke-linecap="round"/><path d="M238.16901,189.83308c5.02854,1.21734 10.83765,2.33532 10.83765,2.33532l0.3335,1.13935c0,0 -7.88254,3.73187 -14.0563,0.79731c-10.72974,-5.1001 -9.60963,-14.65936 -9.60963,-14.65936c0,0 3.32726,8.16803 12.49478,10.3874z" data-paper-data="{&quot;index&quot;:null}" fill="#ffda00" stroke="#000000" stroke-width="0" stroke-linecap="round"/><path d="M246.35873,200.29486c0,0 -7.87805,6.63785 -16.55443,1.14762c-9.78694,-6.73454 -10.16,-14.79426 -10.16,-14.79426l5.22899,0.22944l9.57292,9.87768z" data-paper-data="{&quot;index&quot;:null}" fill="#ffba00" stroke="#000000" stroke-width="0" stroke-linecap="round"/><path d="M235.67123,195.39599c4.6647,1.95303 10.19778,3.9743 10.19778,3.9743l-0.00533,1.33242c0,0 -8.28561,2.19241 -13.71753,-1.54541c-9.78694,-6.73454 -7.16752,-15.99591 -7.16752,-15.99591c0,0 1.99215,8.59181 10.69264,12.2346z" data-paper-data="{&quot;index&quot;:null}" fill="#ffda00" stroke="#000000" stroke-width="0" stroke-linecap="round"/><path d="M199.55942,147.16124c-9.38697,-6.91844 -27.86415,-6.2771 -27.86415,-6.2771c0,0 10.59827,-7.71192 24.34282,-7.19568c18.78229,0.70548 24.80217,19.13745 24.80217,19.13745c0,0 14.37581,-10.50977 26.18006,-3.06201c14.54299,9.17575 17.14714,31.38546 17.14714,31.38546c0,0 -11.4001,-15.31069 -19.59673,-17.75955c-12.11201,-3.61859 -29.39515,9.95148 -29.39515,9.95148c0,0 -6.2292,-19.26162 -15.61616,-26.18006z" data-paper-data="{&quot;index&quot;:null}" fill="url(#color-11)" stroke="#000000" stroke-width="0" stroke-linecap="round"/><path d="M217.0127,176.40334c0,0 4.33949,-0.92106 6.58333,12.40105c2.49203,14.79574 -1.0717,34.60052 -1.0717,34.60052c0,0 -6.4497,-3.87848 -9.3391,-10.87008c-2.8894,-6.9916 -2.23018,-15.90264 -3.06198,-19.13748c-0.83184,-3.23485 -3.8275,-7.65497 -3.8275,-7.65497l-26.02693,9.33907l-14.23829,0.30621c0,0 -1.86704,-4.09741 8.57359,-11.48249c22.44087,-15.87332 30.31377,-12.55418 30.31377,-12.55418c0,0 -9.35132,-10.19237 -15.76927,-16.07548c-6.41791,-5.88313 -17.30024,-14.23826 -17.30024,-14.23826c0,0 17.54146,-1.53737 28.47653,6.12399c9.27443,6.49786 14.69757,25.87385 14.69757,25.87385c0,0 16.17171,-11.77757 27.55793,-9.95148c11.38625,1.82609 21.89326,18.67817 21.89326,18.67817c0,0 -17.15864,-3.66414 -24.82746,-4.51905c-7.88997,-0.87954 -22.63345,-0.83948 -22.63345,-0.83948z" data-paper-data="{&quot;index&quot;:null}" fill="url(#color-12)" stroke="#000000" stroke-width="0" stroke-linecap="round"/><path d="M222.5243,222.79252c0,0 3.04266,-15.32956 1.83718,-24.18974c-1.20544,-8.86019 -7.655,-22.81188 -7.655,-22.81188c0,0 22.68089,2.1664 22.96495,12.55415c0.4532,16.5732 -17.14717,34.44747 -17.14717,34.44747z" data-paper-data="{&quot;index&quot;:null}" fill="#37a000" stroke="#000000" stroke-width="0" stroke-linecap="round"/><path d="M165.57119,194.77528c0,0 -4.46279,-9.84168 8.72669,-26.63934c4.39398,-5.59599 17.54907,-8.8798 17.54907,-8.8798l12.45849,11.32939c0,0 -23.26457,8.92399 -29.70135,12.86039c-4.5125,2.75963 -8.72666,11.94177 -8.72666,11.94177z" data-paper-data="{&quot;index&quot;:null}" fill="#32a400" stroke="#000000" stroke-width="0" stroke-linecap="round"/><path d="M228.64832,148.38607c0,0 10.24053,-3.86816 21.28087,4.74608c8.90792,6.95042 13.01343,24.95524 13.01343,24.95524" data-paper-data="{&quot;index&quot;:null}" fill="none" stroke="#5db900" stroke-width="0.5" stroke-linecap="round"/><path d="M173.22625,140.27176c0,0 11.31502,-6.87993 21.28084,-6.43016c20.15926,0.90982 22.35257,11.78866 22.35257,11.78866" data-paper-data="{&quot;index&quot;:null}" fill="none" stroke="#64c400" stroke-width="0.5" stroke-linecap="round"/><path d="M222.98364,176.25018l39.0404,4.13367" data-paper-data="{&quot;index&quot;:null}" fill="none" stroke="#64ca00" stroke-width="0.5" stroke-linecap="round"/><path d="M235.23162,181.91489c0,0 7.05956,6.03652 1.57662,18.12815c-3.18114,7.01548 -14.43701,22.59635 -14.43701,22.59635" data-paper-data="{&quot;index&quot;:null}" fill="none" stroke="#7ab302" stroke-width="0.5" stroke-linecap="round"/><path d="M221.75885,222.63942c0,0 -6.33746,-4.70684 -8.72669,-11.63559c-2.38923,-6.92875 -2.33651,-15.88691 -3.06197,-18.52507c-0.7255,-2.63818 -3.6744,-5.97089 -3.6744,-5.97089" data-paper-data="{&quot;index&quot;:null}" fill="none" stroke="#6ace00" stroke-width="0.5" stroke-linecap="round"/><path d="M206.44886,185.28307c0,0 -16.22186,6.15108 -23.66682,8.07412c-6.12637,1.58244 -15.3736,1.57119 -15.3736,1.57119" data-paper-data="{&quot;index&quot;:null}" fill="none" stroke="#62be00" stroke-width="0.5" stroke-linecap="round"/><path d="M217.62511,178.6998c0,0 7.75972,4.42053 8.42045,12.55418c0.99654,12.26668 -3.82749,33.06951 -3.82749,33.06951c0,0 1.84512,-19.89433 0.61241,-32.7633c-0.91528,-9.55521 -5.20537,-12.86039 -5.20537,-12.86039z" data-paper-data="{&quot;index&quot;:null}" fill="#90dc00" stroke="#000000" stroke-width="0" stroke-linecap="round"/><path d="M205.37716,170.5855c0,0 -18.57872,8.09104 -30.16066,14.69758c-3.91644,2.234 -9.49214,10.41076 -9.49214,10.41076c0,0 3.12073,-9.03788 7.50186,-12.55416c13.47287,-10.8134 32.15095,-12.55415 32.15095,-12.55415z" data-paper-data="{&quot;index&quot;:null}" fill="#8cdf00" stroke="#000000" stroke-width="0" stroke-linecap="round"/><path d="M211.50112,164.4615c0,0 -5.98946,-12.94641 -13.31964,-17.14713c-7.33017,-4.20076 -25.56768,-6.12399 -25.56768,-6.12399c0,0 15.42664,-2.53744 27.40483,3.6744c10.3513,5.36808 11.48249,19.59677 11.48249,19.59677z" data-paper-data="{&quot;index&quot;:null}" fill="#85dd00" stroke="#000000" stroke-width="0" stroke-linecap="round"/><path d="M261.71783,179.61839c0,0 -6.84087,-10.11491 -17.60645,-14.08519c-10.76558,-3.97025 -24.03668,-0.76548 -24.03668,-0.76548c0,0 6.65328,-7.33381 24.64902,-2.14339c7.61095,2.1952 16.99407,16.9941 16.99407,16.9941z" data-paper-data="{&quot;index&quot;:null}" fill="#8dde00" stroke="#000000" stroke-width="0" stroke-linecap="round"/><path d="M254.52215,154.66315l-4.59295,3.06202l-1.2248,-7.50192z" data-paper-data="{&quot;index&quot;:null}" fill="#166700" stroke="#000000" stroke-width="0" stroke-linecap="round"/><path d="M221.75882,149.30462l7.04257,-1.83718l-0.30621,7.96117l-3.52129,-4.59295l-5.2054,5.3585l-0.45931,-6.43019l-4.89916,1.3779l1.83718,-8.42048z" data-paper-data="{&quot;index&quot;:null}" fill="#166700" stroke="#000000" stroke-width="0" stroke-linecap="round"/><path d="M203.99926,160.78715l-1.99028,7.04258l-4.28678,-3.36822z" data-paper-data="{&quot;index&quot;:null}" fill="#166700" stroke="#000000" stroke-width="0" stroke-linecap="round"/><path d="M251.30707,180.69009l-2.29649,-0.30621l0.61241,-4.59296z" data-paper-data="{&quot;index&quot;:null}" fill="#166700" stroke="#000000" stroke-width="0" stroke-linecap="round"/><path d="M224.36151,176.86259l-5.0523,-1.0717l4.59302,-5.51157z" data-paper-data="{&quot;index&quot;:null}" fill="#166700" stroke="#000000" stroke-width="0" stroke-linecap="round"/><path d="M205.83644,177.62808l6.73637,4.43988l-3.21508,2.14339l5.05227,0.61241l-7.04258,1.68411l-0.30621,-2.14343z" data-paper-data="{&quot;index&quot;:null}" fill="#166700" stroke="#000000" stroke-width="0" stroke-linecap="round"/><path d="M233.54748,209.31975l-2.6027,-3.21512l5.51161,-3.82749z" data-paper-data="{&quot;index&quot;:null}" fill="#166700" stroke="#000000" stroke-width="0" stroke-linecap="round"/><path d="M212.11354,208.55423l4.2868,-1.07169l-3.36819,4.59301z" data-paper-data="{&quot;index&quot;:null}" fill="#166700" stroke="#000000" stroke-width="0" stroke-linecap="round"/></g></g></svg>