<svg version="1.1" xmlns="http://www.w3.org/2000/svg" xmlns:xlink="http://www.w3.org/1999/xlink" width="53.8994" height="37.2704" viewBox="0,0,53.8994,37.2704"><g transform="translate(-213.11358,-161.87096)"><g data-paper-data="{&quot;isPaintingLayer&quot;:true}" fill-rule="nonzero" stroke="none" stroke-width="0.5" stroke-linecap="butt" stroke-linejoin="miter" stroke-miterlimit="10" stroke-dasharray="" stroke-dashoffset="0" style="mix-blend-mode: normal"><path d="M222.24933,186.55435c-0.09882,0.05988 -0.23684,0.08888 -0.41407,0.00026c-0.40061,-0.20031 -0.20031,-0.60092 -0.20031,-0.60092l0.17084,-0.33394c0.46628,-0.69942 1.36809,-2.64922 2.37329,-2.62877c0.77842,0.01584 1.03978,0.87969 1.27121,1.41971c0.77283,1.80334 1.23064,3.81466 1.84627,5.69067c1.05995,1.58992 2.83287,3.48715 2.61199,5.55588c-0.12042,1.12784 -1.78719,4.26241 -3.18815,3.103c-0.34678,-0.28699 -0.54035,-1.47154 -0.68493,-1.9063c-0.90304,-3.60383 -2.82232,-6.74554 -3.78614,-10.29959z" fill="#faffff"/><path d="M229.91512,195.72375c-0.06286,0.13952 -0.11876,0.28335 -0.16667,0.43209c0,0 -0.14164,0.42491 -0.56655,0.28328c-0.42491,-0.14163 -0.28327,-0.56655 -0.28327,-0.56655c0.10537,-0.30815 0.23668,-0.59799 0.38775,-0.8736c-0.68792,-2.66748 -2.01177,-4.94996 -3.48768,-7.18048c-0.76847,-1.16138 -2.19675,-2.26123 -1.36473,-3.69602c1.39328,-0.95816 2.65011,-2.10032 3.85834,-3.28673c0.32719,-0.32128 0.76566,-0.91501 1.37443,-0.65551c0.30466,0.12987 0.54588,1.22279 0.65331,1.54509c0.54593,1.63778 1.15053,3.26278 1.99079,4.77033c0.57474,1.03915 1.99403,3.15044 1.40884,4.44254c-0.73179,1.61581 -2.54868,2.66943 -3.5231,4.25652l0.00356,0.10498c0,0 0,0.33136 -0.28501,0.42406z" fill="#c7d2d8"/><path d="M217.06439,185.20334c-0.47012,-1.64652 -0.68255,-3.1174 -0.22535,-4.98246c0.40339,-1.21303 1.06161,-2.76189 2.44376,-3.16148c2.28494,-0.6606 4.81007,2.11129 5.97535,-1.21498c-0.01304,-1.12663 0.10567,-2.30918 0,-3.42905c-0.07342,-0.7781 -1.18256,-1.5711 -0.80793,-2.4308c0.11876,-0.27253 1.24889,-0.55763 1.55352,-0.6432c2.16456,-0.60809 3.51797,0.63466 4.65676,2.34874c2.02323,4.05024 -0.78132,8.55214 -3.01565,11.90538c-1.09269,1.63787 -3.31657,4.82552 -5.59192,4.4802c-1.22656,-0.18615 -2.5244,-0.91776 -3.7153,-1.57979c-0.13133,0.15706 -0.35406,0.15705 -0.35406,0.15705l-0.56781,-0.30625c-0.04572,-0.14191 -0.09035,-0.28185 -0.13369,-0.42009c-0.02354,-0.01193 -0.04701,-0.02376 -0.0704,-0.03545c0,0 -0.40061,-0.20031 -0.20031,-0.60092c0.01644,-0.03287 0.03422,-0.0617 0.05302,-0.08692z" fill="#6b4a20"/><path d="M217.34835,178.56403c-0.00528,-0.00528 -0.01038,-0.01055 -0.01531,-0.01583l-0.25877,-0.15797c0,-1.09591 -0.29211,-1.97071 -0.55824,-3.03521c-0.28238,-1.15506 -0.38587,-2.23929 -0.83875,-3.37192c-0.07927,-0.19826 -0.61647,-1.49278 -0.56955,-1.62386c0.18028,-0.50359 1.0525,-0.41939 1.41412,-0.41939c1.41762,0 2.75383,0.71984 4.14414,0.7145c0.61879,-0.00238 1.39075,0.48132 1.57571,-0.26534c0.23143,-0.69058 0.37276,-1.4137 0.56387,-2.11774c0.11985,-0.44152 0.31114,-1.76105 1.00426,-1.76105c0.41829,0 1.18037,1.57336 1.3877,1.9379c1.16078,2.04096 -0.08359,4.11337 1.1845,6.09688c0.03053,1.11422 -0.15785,2.85803 -0.97882,3.74241c-0.40504,0.43633 -1.55499,0.3267 -2.07681,0.26156c-1.60695,-0.2006 -2.98086,-0.52181 -4.59707,-0.56369c-0.13837,0.15159 -0.2987,0.28652 -0.47357,0.39326c0.00007,0.00387 0.0001,0.00776 0.0001,0.0117c0,0.4479 -0.4479,0.4479 -0.4479,0.4479l-0.23169,-0.14144c-0.07288,-0.01556 -0.1504,-0.05513 -0.22792,-0.13265z" fill="#124977"/><path d="M213.27076,169.25278l0.01888,-0.23369c0.78544,-2.35631 1.52537,-5.72523 3.72475,-7.14632c2.08922,-0.0363 4.22677,0.48261 6.3132,0.69696c0.84203,0.08651 2.15416,-0.15733 2.40331,0.94139c0.1243,0.54815 -0.29463,0.91218 -0.44638,1.36501c-0.4337,1.29417 -0.68022,2.57489 -1.21063,3.85685c-0.37005,0.89438 -0.75915,2.70476 -1.75675,3.12796c-0.94425,0.40057 -2.18331,-0.57828 -3.10118,-0.68619c-1.78553,-0.20992 -4.34855,-0.2193 -5.89276,-1.21265c0,0 -0.37267,-0.24845 -0.12422,-0.62112c0.02299,-0.0345 0.04706,-0.06366 0.07178,-0.0882z" fill="#6c4a1d"/><path d="M253.96453,196.98187c-0.14458,0.43476 -0.33815,1.61931 -0.68493,1.9063c-1.40096,1.15941 -3.06773,-1.97515 -3.18815,-3.10299c-0.22088,-2.06873 1.55204,-3.96596 2.61199,-5.55589c0.61563,-1.87602 1.07344,-3.88734 1.84627,-5.69068c0.23143,-0.54001 0.49279,-1.40386 1.27121,-1.4197c1.0052,-0.02045 1.90702,1.92936 2.37329,2.62877l0.17084,0.33394c0,0 0.2003,0.40061 -0.20031,0.60092c-0.17723,0.08861 -0.31525,0.05962 -0.41407,-0.00026c-0.96382,3.55405 -2.88311,6.69577 -3.78615,10.29959z" data-paper-data="{&quot;index&quot;:null}" fill="#faffff"/><path d="M249.79987,195.42764l0.00356,-0.10498c-0.97442,-1.5871 -2.79131,-2.64071 -3.5231,-4.25652c-0.58519,-1.29211 0.8341,-3.4034 1.40884,-4.44254c0.84025,-1.50755 1.44486,-3.13255 1.99079,-4.77033c0.10743,-0.32229 0.34864,-1.41522 0.65331,-1.54509c0.60877,-0.25951 1.04723,0.33423 1.37442,0.65551c1.20823,1.18641 2.46507,2.32857 3.85835,3.28673c0.83202,1.43478 -0.59626,2.53463 -1.36473,3.69601c-1.47591,2.23052 -2.79976,4.513 -3.48768,7.18048c0.15108,0.27561 0.28237,0.56546 0.38775,0.8736c0,0 0.14164,0.42491 -0.28327,0.56655c-0.42491,0.14163 -0.56655,-0.28328 -0.56655,-0.28328c-0.04791,-0.14874 -0.10382,-0.29256 -0.16668,-0.43209c-0.28501,-0.0927 -0.28501,-0.42405 -0.28501,-0.42405z" data-paper-data="{&quot;index&quot;:null}" fill="#c7d2d8"/><path d="M262.98863,185.4182c0.20031,0.40061 -0.20031,0.60092 -0.20031,0.60092c-0.02339,0.0117 -0.04686,0.02352 -0.0704,0.03545c-0.04334,0.13824 -0.08798,0.27817 -0.1337,0.42009l-0.56781,0.30625c0,0 -0.22273,0.00001 -0.35406,-0.15705c-1.1909,0.66202 -2.48873,1.39364 -3.7153,1.57979c-2.27534,0.34532 -4.49923,-2.84233 -5.59192,-4.4802c-2.23433,-3.35325 -5.03887,-7.85514 -3.01565,-11.90538c1.13878,-1.71408 2.49219,-2.95684 4.65676,-2.34875c0.30462,0.08558 1.43475,0.37069 1.55352,0.64321c0.37463,0.8597 -0.73451,1.65269 -0.80793,2.4308c-0.10567,1.11987 0.01304,2.30242 0,3.42905c1.16528,3.32628 3.6904,0.55438 5.97535,1.21498c1.38215,0.39959 2.04037,1.94845 2.44376,3.16148c0.4572,1.86505 0.24477,3.33594 -0.22535,4.98246c0.0188,0.02522 0.03659,0.05405 0.05302,0.08692z" data-paper-data="{&quot;index&quot;:null}" fill="#6b4a20"/><path d="M262.04411,178.82462l-0.23169,0.14144c0,0 -0.44789,0 -0.44789,-0.4479c0,-0.00393 0.00003,-0.00783 0.0001,-0.0117c-0.17487,-0.10675 -0.3352,-0.24167 -0.47357,-0.39326c-1.61621,0.04188 -2.99012,0.36308 -4.59707,0.56369c-0.52182,0.06514 -1.67177,0.17477 -2.07682,-0.26157c-0.82097,-0.88438 -1.00934,-2.62819 -0.97881,-3.7424c1.26809,-1.98351 0.02372,-4.05592 1.1845,-6.09688c0.20733,-0.36454 0.96942,-1.9379 1.3877,-1.9379c0.69312,0 0.88441,1.31953 1.00426,1.76105c0.19111,0.70404 0.33243,1.42716 0.56386,2.11774c0.18496,0.74667 0.95692,0.26297 1.57571,0.26534c1.39031,0.00534 2.72652,-0.71451 4.14414,-0.71451c0.36161,0 1.23383,-0.0842 1.41411,0.41939c0.04692,0.13108 -0.49027,1.4256 -0.56955,1.62386c-0.45288,1.13263 -0.55637,2.21686 -0.83874,3.37192c-0.26612,1.0645 -0.55824,1.9393 -0.55824,3.0352l-0.25877,0.15797c-0.00493,0.00528 -0.01004,0.01055 -0.01532,0.01583c-0.07752,0.07752 -0.15504,0.11709 -0.22792,0.13265z" data-paper-data="{&quot;index&quot;:null}" fill="#7d3232"/><path d="M266.92757,169.46893c0.24845,0.37268 -0.12423,0.62112 -0.12423,0.62112c-1.54421,0.99335 -4.10723,1.00272 -5.89276,1.21265c-0.91787,0.10792 -2.15693,1.08677 -3.10118,0.6862c-0.99759,-0.4232 -1.38669,-2.23358 -1.75675,-3.12795c-0.53041,-1.28196 -0.77693,-2.56268 -1.21063,-3.85686c-0.15175,-0.45283 -0.57068,-0.81686 -0.44637,-1.36501c0.24916,-1.09871 1.56127,-0.85488 2.4033,-0.94139c2.08643,-0.21435 4.22398,-0.73326 6.3132,-0.69696c2.19938,1.42108 2.93931,4.79 3.72475,7.14632l0.01888,0.23368c0.02473,0.02454 0.04879,0.05371 0.07178,0.08821z" data-paper-data="{&quot;index&quot;:null}" fill="#6c4a1d"/></g></g></svg>