<svg version="1.1" xmlns="http://www.w3.org/2000/svg" xmlns:xlink="http://www.w3.org/1999/xlink" width="187.10255" height="222.67263" viewBox="0,0,187.10255,222.67263"><defs><linearGradient x1="165.39959" y1="136.15041" x2="204.55377" y2="134.95426" gradientUnits="userSpaceOnUse" id="color-1"><stop offset="0" stop-color="#0f59c7"/><stop offset="1" stop-color="#52f8fc"/></linearGradient><linearGradient x1="171.05771" y1="219.30612" x2="210.21189" y2="218.10997" gradientUnits="userSpaceOnUse" id="color-2"><stop offset="0" stop-color="#0f59c7"/><stop offset="1" stop-color="#52f8fc"/></linearGradient><linearGradient x1="285.8474" y1="181.56431" x2="305.40025" y2="180.96697" gradientUnits="userSpaceOnUse" id="color-3"><stop offset="0" stop-color="#2275e8"/><stop offset="1" stop-color="#05d7fe"/></linearGradient></defs><g transform="translate(-164.44873,-67.66369)"><g data-paper-data="{&quot;isPaintingLayer&quot;:true}" fill-rule="nonzero" stroke-linejoin="miter" stroke-miterlimit="10" stroke-dasharray="" stroke-dashoffset="0" style="mix-blend-mode: normal"><path d="M180.6175,258.49878l-1.43207,-22.55475l18.58539,-24.00326l-25.31446,-26.01004l22.01606,-33.31484l-19.01817,-14.48467l-0.20286,-30.9621l110.09074,76.98697l-95.15095,71.53928z" fill="#1e231d" stroke="none" stroke-width="0" stroke-linecap="round"/><path d="M190.59174,150.20853c-0.69602,0.02126 -1.06033,-0.31009 -1.25086,-0.65251c-7.26887,-0.86936 -13.04258,-2.42181 -19.3099,-6.32969c-1.55504,-0.96962 -3.79118,-1.53309 -4.38473,-3.56289c-1.0141,-3.46793 2.64321,-6.91754 4.30609,-9.34154c3.25103,-2.98263 6.47894,-5.25416 10.23928,-7.58583c1.5799,-0.97964 2.94405,-2.69419 5.10665,-1.65865c1.25155,0.5993 2.27801,3.44944 3.3003,4.40995c2.1189,1.99086 5.77628,4.58023 8.37061,6.01265c1.58898,0.87733 4.92731,1.17653 6.17577,2.46181c0.68887,0.7092 1.58939,1.62132 1.43213,2.59742c-0.13696,0.85004 -1.39616,1.008 -2.09423,1.51199c-3.84561,2.57734 -9.00906,6.18002 -10.62103,10.6408l0.1025,0.03741c0,0 0.04325,1.41583 -1.37258,1.45909z" fill="url(#color-1)" stroke="none" stroke-width="0.5" stroke-linecap="butt"/><path d="M196.24986,233.36424c-0.69602,0.02126 -1.06033,-0.31009 -1.25086,-0.65251c-7.26887,-0.86936 -13.04258,-2.42181 -19.3099,-6.32969c-1.55504,-0.96962 -3.79118,-1.53309 -4.38473,-3.56289c-1.0141,-3.46793 2.64322,-6.91754 4.30609,-9.34154c3.25103,-2.98263 6.47895,-5.25416 10.2393,-7.58583c1.5799,-0.97964 2.94405,-2.69419 5.10665,-1.65865c1.25156,0.5993 2.27801,3.44944 3.30029,4.40995c2.1189,1.99085 5.77629,4.58023 8.37061,6.01265c1.58898,0.87733 4.92731,1.17653 6.17577,2.46181c0.68888,0.7092 1.58939,1.62132 1.43213,2.59742c-0.13696,0.85004 -1.39616,1.00799 -2.09423,1.51198c-3.8456,2.57734 -7.56043,6.18002 -9.79324,10.6408l-0.72529,0.03741c0,0 0.04325,1.41583 -1.37258,1.45909z" fill="url(#color-2)" stroke="none" stroke-width="0.5" stroke-linecap="butt"/><path d="M177.56257,290.33632l-2.24537,-33.18438l30.93902,-35.42974l-41.80749,-38.13372l36.67774,-49.15256l-31.4377,-21.20824l-0.16037,-45.56399l182.02288,112.67206l-158.10572,105.82058z" fill="#6a6c68" stroke="none" stroke-width="0" stroke-linecap="round"/><path d="M183.49566,281.65217l-1.91522,-26.39501l27.70772,-36.74765l-37.66553,-35.12844l32.9931,-45.22308l-29.62417,-25.1706l1.13321,-36.31373l163.95658,103.82849l-142.28777,97.31204z" fill="#3d3d3d" stroke="none" stroke-width="0" stroke-linecap="round"/><path d="M253.81701,160.45643c21.94354,-0.67037 55.48115,19.14104 55.48115,19.14104c0,0 -32.15349,25.49518 -54.09705,26.16555c-21.94354,0.67037 -40.04215,-8.92842 -40.42436,-21.43949c-0.38221,-12.51107 17.09671,-23.19674 39.04025,-23.8671z" fill="#2a2a2a" stroke="none" stroke-width="0" stroke-linecap="butt"/><path d="M251.33135,171.86958c21.94354,-0.67037 55.15523,8.47256 55.15523,8.47256c0,0 -32.53694,12.94403 -54.48048,13.6144c-21.94354,0.67037 -39.88336,-3.73053 -40.06968,-9.82967c-0.18632,-6.09915 17.45139,-11.58693 39.39493,-12.25729z" fill="#5a5a5a" stroke="none" stroke-width="0" stroke-linecap="butt"/><g stroke-width="0.5"><path d="M291.09585,201.16239c2.90459,0.00587 6.54803,-0.04859 8.34128,-1.0196c0.9349,-0.50623 1.55764,-2.56113 2.03611,-3.3094c2.24957,-3.5181 3.3379,-6.63377 4.04304,-10.53419c-0.22024,-6.2558 -0.24663,-12.77495 -3.04397,-18.66873c-0.54839,-1.15542 -3.01439,-5.19178 -4.66624,-5.49955c-1.53714,-0.2864 -3.60968,0.03037 -5.26787,-0.00792c-1.881,0.05738 -5.75172,-0.65337 -7.26461,-0.27185c-0.14153,0.03569 1.77332,2.10903 1.80218,2.14792c1.14667,1.54503 2.3108,3.11777 3.31239,4.72913c2.98712,4.80565 3.52289,9.18197 3.6855,14.50479c-0.50597,2.31797 -0.04263,4.78582 -0.9874,7.07451c-0.82955,2.00958 -1.93039,3.88039 -2.98684,5.84475c-0.77475,1.44058 -1.39751,4.15545 -2.88706,5.2027c-0.28793,0.20243 0.65782,-0.34982 1.0345,-0.39947c0.51277,-0.06761 1.03679,-0.03534 1.55518,-0.05301l0.28316,-0.00865c0,0 0.58367,-0.01784 1.01065,0.2686zM287.93899,203.36999c-1.3735,0.16173 -2.68475,0.15291 -3.43447,-1.32136c-0.57718,-1.135 1.88899,-4.53344 2.45165,-5.59594c1.2021,-2.26997 2.44598,-4.48963 3.42928,-6.79709c0.89453,-2.09916 0.39734,-4.42367 0.86353,-6.55932c-0.08169,-2.67399 0.15526,-6.29189 -0.80292,-8.86904c-1.1034,-2.96778 -3.44895,-5.32781 -5.2398,-7.98255c-1.11882,-1.65853 -4.04183,-4.05638 -1.81568,-6.06266c0.53183,-0.47929 1.56311,-0.2768 2.35657,-0.3398c2.23593,-0.17755 4.56299,0.08728 6.81627,0.01835c1.82868,0.04063 4.36534,-0.33747 6.0726,0.09821c2.29656,0.58607 3.28012,2.73141 4.53926,4.15026c5.37529,6.05713 4.97808,15.12455 5.16872,22.29038c-0.73313,4.21881 -1.92192,7.63896 -4.35526,11.446c-0.79205,1.23918 -1.35773,3.20992 -2.83987,4.08078c-2.93273,1.72318 -9.23904,1.39626 -12.68668,1.5063c0,0 -0.23911,0.0073 -0.52321,-0.06254z" fill="#00122a" stroke="none" stroke-linecap="butt"/><path d="M290.07275,200.93806l-0.28377,0.00854c-0.51839,0.01768 -1.04561,-0.01525 -1.55839,0.05236c-0.37669,0.04966 -1.28809,0.51531 -1.00017,0.31288c1.48955,-1.04724 2.11043,-3.76257 2.88518,-5.20315c1.05645,-1.96437 2.15355,-3.83591 2.9831,-5.8455c0.94477,-2.28869 0.43845,-4.67381 0.94444,-6.99179c-0.16261,-5.32283 -0.65005,-9.69482 -3.63717,-14.50047c-1.00159,-1.61135 -2.16283,-3.18496 -3.3095,-4.73c-0.02885,-0.03889 -1.98641,-2.19556 -1.84489,-2.23125c1.51289,-0.38151 5.39847,0.32589 7.27946,0.2685c1.65819,0.03829 3.74308,-0.27879 5.28021,0.00761c1.65185,0.30777 4.13386,4.34705 4.68225,5.50246c2.79734,5.89378 2.85012,12.47915 3.07037,18.73495c-0.70513,3.90042 -1.82477,7.03523 -4.07433,10.55333c-0.47847,0.74827 -1.10845,2.80458 -2.04335,3.31081c-1.79325,0.97102 -5.45589,1.02553 -8.36048,1.01966c-0.42698,-0.28644 -1.01298,-0.26896 -1.01298,-0.26896z" data-paper-data="{&quot;noHover&quot;:false,&quot;origItem&quot;:[&quot;Path&quot;,{&quot;applyMatrix&quot;:true,&quot;segments&quot;:[[[482.20203,501.22122],[0.66172,-0.73779],[-0.20903,5.12367]],[[483.89186,515.99104],[-2.02447,-3.21581],[1.05544,1.67654]],[[491.06677,519.7613],[-1.62107,-0.88439],[7.62166,4.15806]],[[514.06995,527.46134],[-8.57067,-1.45413],[13.83754,-0.05139]],[[555.52539,523.09758],[-13.21157,4.61716],[2.59,-0.90515]],[[567.99204,515.16225],[-0.79156,2.89745],[0.73658,-2.69622]],[[568.36514,505.86962],[-0.19655,2.92316],[0.00017,-3.32136]],[[569.4562,493.06876],[0.74085,2.68945],[-0.0693,-0.25159]],[[564.58856,496.13223],[0.08786,-0.04881],[-3.49126,1.93957]],[[553.91562,501.72076],[3.628,-1.68007],[-10.82008,5.0106]],[[521.61741,507.44065],[11.77216,0],[-5.08759,-1.01752]],[[506.05241,505.3175],[4.99325,1.79001],[-4.38431,-1.57172]],[[493.33961,499.73342],[4.26911,1.96956],[-3.13076,-1.44438]],[[482.03875,494.35997],[2.21342,2.68414],[-0.42785,-0.51884]],[[482.85158,496.20647],[-0.08431,-0.66719],[0.11477,0.90823]],[[482.86375,498.95282],[-0.00406,-0.91545],[0,0]],[482.86375,499.45282]],&quot;closed&quot;:true}]}" fill="url(#color-3)" stroke="none" stroke-linecap="butt"/><path d="M290.96065,193.58276l12.74248,-0.38928" fill="none" stroke="#000000" stroke-linecap="round"/><path d="M307.46027,186.29007l-13.88896,-0.02827" fill="none" stroke="#000000" stroke-linecap="round"/><path d="M292.01045,172.27964l13.30881,-0.40658" fill="none" stroke="#000000" stroke-linecap="round"/><path d="M288.99922,166.48815l14.42076,-1.11941" fill="none" stroke="#000000" stroke-linecap="round"/></g><path d="M178.10751,119.08745l-4.77293,-3.27834l10.51169,-38.05568l8.15362,2.60819z" fill="#ff1414" stroke="none" stroke-width="0" stroke-linecap="butt"/><path d="M186.76686,124.20808l-4.77293,-3.27834l12.82026,-36.70905l5.84504,1.26157z" fill="#ff1414" stroke="none" stroke-width="0" stroke-linecap="butt"/><path d="M198.47919,282.54913l-6.53059,3.92884l-11.57341,-33.82498l3.32224,-6.25387z" data-paper-data="{&quot;index&quot;:null}" fill="#ff1414" stroke="none" stroke-width="0" stroke-linecap="butt"/><path d="M209.57911,275.40694l-6.82059,3.91594l-13.97371,-38.15795l4.56391,-3.56357z" data-paper-data="{&quot;index&quot;:null}" fill="#ff1414" stroke="none" stroke-width="0" stroke-linecap="butt"/><path d="M236.87254,150.77058c10.16915,-0.31066 25.60732,5.4685 25.60732,5.4685c0,0 -15.02294,7.81282 -25.19209,8.12348c-10.16915,0.31066 -18.50582,-2.48016 -18.62048,-6.23348c-0.11466,-3.75333 8.03611,-7.04783 18.20526,-7.35849z" fill="#5d5d5d" stroke="none" stroke-width="0" stroke-linecap="butt"/><path d="M239.99755,203.58213c10.16915,-0.31066 25.60733,5.4685 25.60733,5.4685c0,0 -15.02294,7.81282 -25.19209,8.12348c-10.16915,0.31066 -18.50582,-2.48016 -18.62048,-6.23348c-0.11466,-3.75333 8.03611,-7.04783 18.20526,-7.35849z" fill="#5d5d5d" stroke="none" stroke-width="0" stroke-linecap="butt"/><path d="M249.57568,204.4088c8.76756,-0.26785 22.07794,4.71479 22.07794,4.71479c0,0 -12.95237,6.736 -21.71994,7.00384c-8.76756,0.26785 -15.95522,-2.13833 -16.05408,-5.37433c-0.09886,-3.23602 6.92851,-6.07645 15.69608,-6.34429z" fill="#3a3a3a" stroke="none" stroke-width="0" stroke-linecap="butt"/><path d="M246.80516,150.8306c8.76756,-0.26785 22.07794,4.71478 22.07794,4.71478c0,0 -12.95237,6.73601 -21.71995,7.00384c-8.76756,0.26785 -15.95522,-2.13833 -16.05408,-5.37435c-0.09886,-3.23602 6.92851,-6.07644 15.69608,-6.34429z" fill="#3a3a3a" stroke="none" stroke-width="0" stroke-linecap="butt"/></g></g></svg>