<svg version="1.1" xmlns="http://www.w3.org/2000/svg" xmlns:xlink="http://www.w3.org/1999/xlink" width="107.16636" height="130.56434" viewBox="0,0,107.16636,130.56434"><defs><radialGradient cx="239.81688" cy="165.89969" r="63.73558" gradientUnits="userSpaceOnUse" id="color-1"><stop offset="0" stop-color="#f5f5f5"/><stop offset="1" stop-color="#f5b34a"/></radialGradient><linearGradient x1="224.21171" y1="170.65314" x2="244.07086" y2="194.35279" gradientUnits="userSpaceOnUse" id="color-2"><stop offset="0" stop-color="#393939"/><stop offset="1" stop-color="#171717"/></linearGradient><linearGradient x1="226.96837" y1="169.48196" x2="230.84688" y2="200.15795" gradientUnits="userSpaceOnUse" id="color-3"><stop offset="0" stop-color="#393939"/><stop offset="1" stop-color="#171717"/></linearGradient><linearGradient x1="224.21171" y1="170.65314" x2="244.07086" y2="194.35279" gradientUnits="userSpaceOnUse" id="color-4"><stop offset="0" stop-color="#393939"/><stop offset="1" stop-color="#171717"/></linearGradient><linearGradient x1="263.47549" y1="170.95358" x2="272.34182" y2="176.752" gradientUnits="userSpaceOnUse" id="color-5"><stop offset="0" stop-color="#d4310f"/><stop offset="1" stop-color="#000000"/></linearGradient><radialGradient cx="272.77803" cy="173.4006" r="16.5079" gradientUnits="userSpaceOnUse" id="color-6"><stop offset="0" stop-color="#fff738"/><stop offset="1" stop-color="#fff738" stop-opacity="0"/></radialGradient></defs><g transform="translate(-186.41682,-113.67134)"><g data-paper-data="{&quot;isPaintingLayer&quot;:true}" fill-rule="nonzero" stroke-linejoin="miter" stroke-miterlimit="10" stroke-dasharray="" stroke-dashoffset="0" style="mix-blend-mode: normal"><path d="M186.91682,243.73568v-127.47115h106.16636v127.47115z" fill="url(#color-1)" stroke="#e98a13" stroke-width="1" stroke-linecap="butt"/><path d="M187.74839,188.56584l51.98759,18.55065l52.41372,-21.13911l-0.42613,57.37758l-103.97518,-0.43141z" fill="#e98a13" stroke="#08648a" stroke-width="0" stroke-linecap="round"/><g data-paper-data="{&quot;index&quot;:null}" stroke-linecap="butt"><path d="M240.76445,188.26085c0.21007,-0.03466 0.36706,-0.01936 0.36706,-0.01936l0.63914,0.09347c1.56834,0.52382 2.75412,1.30068 4.14631,2.18452c0.49305,0.54288 1.24181,0.93473 1.47916,1.62861c0.75307,2.20158 -0.95065,3.22009 -1.84097,4.7863c-0.54853,0.96496 -0.59853,2.1458 -0.78032,3.19579c-0.57193,3.30323 0.39484,6.97397 -0.73189,10.12909c-1.22577,3.43246 -4.93044,6.7612 -8.63816,7.04491c-1.83073,0.14009 -3.41481,-0.38922 -5.03527,-1.13704c-1.00474,-0.53723 -3.53212,-1.49242 -3.52074,-3.14206c0.00863,-1.25161 1.95314,-2.23074 2.82901,-2.76609c2.47651,-1.51372 4.88262,-2.87339 6.47284,-5.41562c0.65101,-1.04075 1.42757,-2.05954 1.73669,-3.24757c0.811,-3.11694 -0.15613,-6.28632 0.38691,-9.37866c0.20842,-1.18688 0.81168,-2.16192 1.34554,-3.2179c0,0 0.38487,-0.75743 1.14468,-0.73841z" fill="#4c4c4c" stroke="none" stroke-width="0.5"/><path d="M257.12557,180.74294c-3.62623,-0.48068 -6.92302,-1.39011 -9.74151,-3.92869c-1.14103,-1.02771 -2.00211,-1.81025 -2.38005,-3.36404c-0.16121,-0.66277 -0.04946,-1.36327 -0.07419,-2.04491c0.33003,-1.63286 0.22245,-2.00997 1.1957,-3.37773c2.2795,-3.20353 6.33706,-3.22571 9.8457,-3.29766c1.03094,-0.02114 2.06323,-0.31804 3.08722,-0.19664c1.9537,0.23164 3.61525,0.94594 5.62311,1.07159c2.50757,0.15692 5.6006,-0.42959 7.85279,0.88749c1.43816,0.84104 1.46198,1.19374 2.37002,2.52916c2.18941,4.732 0.35906,11.7901 -4.86952,13.83174c-3.96069,1.54656 -9.49534,0.13879 -12.87029,-2.08223c0,0 -0.01447,-0.00954 -0.03898,-0.0281z" fill="#2f170b" stroke="none" stroke-width="0.5"/><path d="M244.70045,174.19739c1.39578,1.05167 3.23229,1.60822 4.91881,1.96706c0.66558,0.14162 1.4306,0.00862 2.00785,0.36896c0.72592,0.45315 1.53177,1.09469 1.68543,1.93654c0.12846,0.70381 -0.63941,1.28047 -0.98381,1.90756c-0.40609,0.73941 -0.84468,1.46051 -1.26703,2.19076c-0.9372,0.41547 -1.78657,1.26215 -2.81162,1.24642c-0.58294,-0.00895 -0.74673,-0.89799 -1.16177,-1.30742c-0.49822,-0.49148 -1.64873,1.44929 -1.75787,1.89424c-0.0999,0.4073 0.43904,0.7288 0.75017,1.01c1.40874,1.27324 2.63164,2.31478 2.19438,4.49553c-0.17038,0.84973 -1.72292,1.88172 -2.33754,2.45465c-0.59963,0.55896 -0.95301,1.52107 -1.74489,1.73301c-0.77349,0.20702 -1.6177,-0.25044 -2.31343,-0.64683c-1.18439,-0.67481 -2.17683,-2.64724 -3.11577,-3.65344c-1.42288,-1.52481 -3.16132,-2.52205 -4.52142,-4.1307c-1.37211,-1.63746 -2.67299,-2.78477 -4.29595,-4.14691c-0.19157,-0.16079 -0.3348,-0.3741 -0.47443,-0.58996c0.14943,-0.15463 0.29252,-0.30817 0.42855,-0.46008c2.19414,-2.46371 5.1126,-4.91683 7.88808,-6.70124c1.44384,-0.92828 2.75717,-1.67029 4.16274,-2.17451c0.8504,0.88904 1.78377,1.87868 2.74953,2.60637z" fill="url(#color-2)" stroke="none" stroke-width="0.5"/><path d="M213.95558,176.974c1.29094,-1.54955 3.22739,-2.49764 4.56701,-4.0175c0.81917,-0.92938 1.60762,-2.07068 2.78238,-2.46401c1.39156,-0.46592 3.2982,-0.27448 4.75157,-0.45844c2.90299,-0.36745 5.71812,-1.04977 8.6314,-1.4181c1.44728,-0.18299 4.64821,-1.06438 6.11661,-0.21877c2.33911,1.34702 1.48415,3.01537 1.54023,5.10549c0.03868,1.44183 0.34914,2.96366 -0.12691,4.32519c-0.15753,0.45055 -0.75906,0.62164 -0.97822,1.04565c-0.07104,0.13745 -0.03141,0.2978 0.01614,0.4569c-1.41973,-0.3018 -2.89422,-0.38484 -4.55358,-0.38535c-3.35124,-0.00103 -7.15862,0.50334 -10.39246,1.38574c-0.15913,0.04384 -0.32304,0.08608 -0.4912,0.12667c-0.01691,-0.17852 -0.05372,-0.35104 -0.13414,-0.51101c-0.05031,-0.10008 -0.1522,0.16443 -0.23036,0.24467c-0.1268,0.13016 -0.2418,0.27236 -0.34582,0.42307c-2.83,0.56998 -6.55232,0.71224 -9.13437,0.24619c-1.2743,-0.22649 -2.40309,-0.6995 -3.53712,-1.11882c0.35995,-1.02015 0.85333,-1.96873 1.51884,-2.76757z" fill="url(#color-3)" stroke="none" stroke-width="0.5"/><path d="M220.13727,192.78784c-0.98656,-1.49626 -1.95295,-3.30623 -2.47457,-5.1756c1.20386,-0.267 2.43661,-0.47382 3.65161,-0.9799c2.36365,-0.99137 5.28601,-2.99065 7.38983,-4.95313c0.02055,0.15976 0.04934,0.31812 0.08463,0.47339c0.35981,1.58319 1.16002,3.67068 0.5696,5.29395c-0.1424,0.39151 -1.99207,2.22841 -2.30626,2.54978c-1.30708,1.33689 -2.58518,2.4057 -4.15278,3.29241c-0.08474,0.24645 -0.26945,0.49308 -0.62769,0.68881c-0.85359,0.46639 -1.4182,-0.05243 -1.64967,-0.34559c-0.13111,-0.11156 -0.25306,-0.26601 -0.35551,-0.47679c-0.0631,-0.12981 -0.10484,-0.25223 -0.12917,-0.36731z" fill="url(#color-4)" stroke="none" stroke-width="0.5"/><path d="M211.87536,148.51709c0.47894,0.08763 0.80273,0.46147 0.80273,0.46147l-0.10368,0.20285c0.03281,0.07648 0.05525,0.15347 0.06954,0.22939c3.6411,-0.04848 6.3699,-1.36231 9.71259,-2.84373c1.63501,-0.67587 3.41848,-1.28168 4.94005,-2.19491c0.81971,-0.49199 1.55305,-1.14643 2.43493,-1.51559c1.23958,-0.5189 2.61164,-0.64376 3.93576,-0.87286c3.7595,-0.65049 7.33016,-1.56066 11.1438,-1.89746c2.44837,-0.21623 5.05507,-0.94077 7.49245,-0.18727c1.87357,0.57921 2.14114,0.9266 2.88125,2.64911c0.55339,1.28794 0.0301,2.54147 1.46007,3.10847c0.50866,0.23844 1.12689,0.31996 1.52598,0.71533c1.58293,1.56818 1.32848,4.59171 1.4757,6.62886c0.29492,4.08084 -1.00745,7.58967 -4.57208,9.85544c-1.24257,0.78981 -2.7546,1.18783 -3.98001,1.9642c-2.55282,1.61736 -4.22766,3.77865 -7.16986,4.92708c-5.08015,1.82258 -11.46364,3.39508 -16.8874,2.43768c-2.23609,-0.39471 -4.58571,-0.74055 -6.78381,-1.2958c-0.61922,-0.15641 -1.2545,-0.26567 -1.8518,-0.49178c-0.79423,-0.30067 -1.38058,-1.10818 -2.21696,-1.25531c-0.90447,-0.1591 -1.81387,0.29108 -2.7251,0.4052c-1.56493,0.0116 -2.18197,0.18926 -3.68552,-0.57979c-1.81206,-0.92686 -1.89059,-2.26857 -2.75799,-3.83912c-0.65083,-1.17843 -1.9448,-2.13256 -2.54848,-3.29287c-0.59516,-1.14393 -1.09256,-3.66264 -0.78387,-4.93314c0.44723,-1.84069 2.19247,-4.14455 3.7023,-5.23456c1.28073,-0.92461 2.05855,-1.10209 2.81794,-2.57484c0,0 0.58469,-1.08444 1.67149,-0.57604z" fill="#8f3f1a" stroke="none" stroke-width="0.5"/><path d="M241.93024,141.45014c0.97199,-1.15049 0.85536,-1.38819 2.25211,-2.1738c1.45818,-0.82016 3.21104,-0.98928 4.83226,-1.19333c0.58778,0.01673 1.20526,-0.13503 1.76334,0.0502c2.57487,0.85466 3.1671,3.30975 3.90573,5.51759c0.72862,2.17789 0.95773,3.93558 1.13749,6.22983c0.17159,2.18988 0.67782,4.4659 0.29362,6.65333c-0.51365,2.92442 -1.97445,5.40635 -3.76189,7.71329c0,0 -0.59938,0.77289 -1.42921,0.46028c-1.16636,0.64443 -2.48839,1.49723 -3.71042,1.86039c-0.59137,0.17574 -1.21823,0.2663 -1.83472,0.2432c-0.25096,-0.0094 -0.45116,-0.45348 -0.67374,-0.33718c-0.20483,0.10703 0.08555,0.48185 -0.00776,0.69328c-0.23225,0.52627 -1.82137,2.67832 -2.17783,2.94933c-2.39445,1.82044 -7.0595,1.06217 -9.85445,1.04161c-0.7602,-0.28265 -1.6669,-0.31771 -2.28063,-0.84794c-0.5467,-0.47233 -0.03152,-1.87466 -0.73506,-2.039c-0.82126,-0.19184 -1.6617,0.35003 -2.50505,0.35519c-2.51573,0.01539 -6.02542,-0.51141 -8.22176,-1.8347c-2.02758,-1.22161 -2.78993,-3.30912 -3.46799,-5.42961c-0.28748,-0.89903 -0.82189,-1.70362 -1.13665,-2.59347c-0.87749,-2.48074 -1.01413,-5.45081 -0.42429,-7.97597c0.24131,-0.58599 1.06333,-2.66707 1.3915,-3.04053c1.46715,-1.66961 3.97218,-1.60691 5.93483,-2.2166c2.895,-0.89931 6.30847,-1.80168 9.38707,-1.32386c3.02863,0.47007 5.56244,2.83097 7.16979,5.38456c0.8468,-3.04108 2.03687,-5.64056 4.15368,-8.1461z" fill="#de9331" stroke="none" stroke-width="0.5"/><path d="M210.08652,149.45308c-0.42836,-0.33485 -0.79352,-0.62364 -0.82602,-0.66026c-2.40909,-2.71447 -1.63898,-6.59481 -0.65183,-9.77175c0.45359,-1.45979 1.07265,-2.05509 1.08421,-3.60437c-0.42407,-1.3663 -1.22106,-2.28556 -1.77269,-3.55704c-0.3357,-0.77377 -0.97605,-1.6091 -0.74148,-2.41928c0.20492,-0.70774 1.2257,-0.82002 1.80953,-1.26951c0.36714,-0.28266 1.09687,-0.69926 0.8561,-1.09514c-0.22825,-0.37531 -0.84529,-0.44476 -1.003,-0.85474c-0.2882,-0.74921 -0.43525,-1.61504 -0.24727,-2.39545c0.13298,-0.55207 0.85309,-0.77874 1.1311,-1.27389c0.11804,-0.21024 0.22929,-1.96592 0.20541,-2.13564c-0.1921,-1.36545 -1.41133,-3.06176 0.0628,-4.4301c0.61863,-0.57424 1.69058,-0.04042 2.53207,0.02537c1.59389,0.12462 3.33516,0.49153 4.75813,1.2261c1.29894,0.67054 1.61945,1.26783 3.06803,1.08468c0.73306,-0.5904 0.88153,-2.03363 1.81366,-2.16428c1.29475,-0.18148 4.58017,2.52142 5.0075,3.74563c0.09856,0.28236 -0.47731,3.39265 0.25375,3.56052c0.74906,0.172 1.49602,-0.39976 2.2636,-0.43832c1.02123,-0.05131 2.04224,-0.10785 3.06388,-0.15024c1.23319,-0.05116 2.44812,0.32229 3.6639,0.53503c1.4909,0.26088 2.99497,0.25069 4.48608,0.66552c2.24811,0.62543 3.89115,1.8329 5.68567,3.2435c1.5005,1.89041 3.1614,3.82886 4.77012,5.60297c0.87917,0.96956 2.08152,1.89051 2.30237,3.18054c0.16053,0.93767 0.22667,2.05967 -0.32385,2.83549c-0.37919,0.53437 -3.82635,1.02506 -4.64272,1.34379c-1.70859,0.66707 -3.85147,1.21513 -5.38416,2.24591c-1.82115,1.22479 -3.33877,3.91209 -5.89695,3.68247c-1.14882,-0.10312 -2.08781,-1.0097 -3.19891,-1.31936c-2.65268,-0.76214 -5.0661,-0.76388 -7.76219,-1.08541c-2.36605,-0.28217 -3.97271,-0.90344 -6.19011,0.46406c-1.39528,0.86048 -2.70738,2.50072 -3.54792,3.88227c-0.49888,0.81998 -1.11323,2.68262 -1.93878,3.20486c-1.21185,0.7666 -2.59925,0.3011 -3.82118,0.07108c0,0 -1.27828,-0.25378 -1.0245,-1.53206c0.0347,-0.17476 0.08854,-0.32089 0.15565,-0.44294z" fill="#202020" stroke="none" stroke-width="0.5"/><path d="M250.36831,132.17612l1.51247,0.33106c0.52862,0.42147 1.05724,0.84294 1.58586,1.26441c0.404,1.21618 1.00696,2.59363 0.83188,3.92942c-0.28511,2.17527 -2.60874,4.03005 -4.15987,5.31676c-4.10148,3.40233 -9.8824,5.71253 -15.23951,5.92022c-2.6649,0.10332 -5.09669,-0.53974 -7.81473,-0.1952c-3.88561,0.05871 -7.64648,-0.09629 -11.54161,-0.21471c-1.39221,-0.04232 -4.01881,-0.13726 -4.97486,-0.81987c-0.57285,-0.40901 -0.33775,-1.3668 -0.52383,-2.04564c-0.56454,-2.05937 -1.38112,-4.26841 -1.28986,-6.44128c0.03677,-0.87552 -0.20097,-1.92916 0.35748,-2.60446c0.50534,-0.61108 1.51475,-0.49622 2.2997,-0.6087c2.33774,-0.33499 5.11348,-0.07526 7.47657,0.01785c2.59601,0.10245 5.1613,-0.02378 7.73409,-0.04076c3.44383,-0.02273 6.89212,1.23472 10.29574,1.06662c4.30136,-0.21244 8.34436,-2.49709 11.63155,-5.08104c0,0 1.01527,-0.79807 1.81894,0.2053z" fill="#0e0c93" stroke="none" stroke-width="0.5"/><path d="M212.21387,132.53597c-0.25327,0.24578 -0.91534,0.7336 -1.71776,0.11131c-1.02983,-0.79865 -0.23118,-1.82849 -0.23118,-1.82849l0.2039,-0.26292c0.96683,-1.22997 2.01144,-2.04132 3.23703,-3.00337c1.65301,-1.10538 3.16886,-2.37306 4.82199,-3.47881c0.88611,-0.5927 1.90234,-0.99756 2.72151,-1.67979c0.96225,-0.8014 0.6733,-1.78272 2.25169,-2.12289c0.94628,-0.20394 2.41184,-0.65325 2.89818,0.18371c1.39577,2.40199 -0.58762,3.91236 -1.97615,4.9629c-3.46355,2.62047 -6.9398,5.44847 -10.98206,7.19152c0,0 -0.67399,0.2882 -1.22716,-0.07317z" fill="#0e0c93" stroke="none" stroke-width="0.5"/><path d="M222.09817,191.82846c-0.09016,-1.16235 -0.0953,-2.32194 1.20826,-3.15184c0.44064,-0.28053 1.00933,-0.2004 1.55583,-0.06879c-0.11724,-0.29765 -0.18254,-0.61447 -0.17045,-0.92492c0.03839,-0.98581 -0.11845,-2.34727 0.71735,-2.87141c0.75361,-0.4726 2.81497,1.17313 3.51408,1.68175c2.60565,1.89567 5.15774,3.65497 7.71979,5.61918c0.2797,0.65137 0.77109,1.2485 0.83911,1.95411c0.10726,1.11278 0.009,2.27204 -0.32903,3.33764c-0.28575,0.90079 -1.4055,1.3937 -1.6476,2.30718c-0.6364,2.40129 -0.61741,5.16487 -3.84879,5.54318c-0.98755,0.11563 -2.38396,-0.41671 -3.29913,-0.78734c-4.54712,-1.84152 -6.13769,-6.6094 -7.35639,-10.99239c0,0 -0.34866,-1.25572 0.90708,-1.60439c0.06576,-0.01826 0.12903,-0.03212 0.1899,-0.04198z" fill="#060301" stroke="none" stroke-width="0.5"/><path d="M242.99536,193.42283c-0.11028,-0.41601 -0.07955,-0.96713 0.51845,-1.46824c0.41215,-0.34536 0.80054,-0.42126 1.12993,-0.3757c1.00584,-0.63264 1.70438,-1.9559 2.87909,-2.10195c0.87914,-0.10931 1.15682,2.48572 1.8636,3.01983c1.16408,0.8797 2.69617,0.32833 3.84047,1.21889c0.7975,0.62066 1.99786,1.0542 2.24893,2.03307c0.19618,0.76487 -0.87597,1.3218 -1.20424,2.03997c-0.67879,1.48503 -0.00181,4.95166 -1.42036,5.98491c-0.79902,0.582 -1.99378,0.29991 -2.96356,0.10838c-2.9408,-0.58077 -3.73185,-3.81146 -4.83477,-6.03882c-0.44152,-0.89165 -1.3691,-1.87045 -1.96439,-2.57873c0,0 -0.79089,-0.94384 -0.09316,-1.84159z" fill="#151515" stroke="none" stroke-width="0.5"/><path d="M249.40522,186.05057c-0.08578,-0.25221 -0.08636,-0.46353 -0.08636,-0.46353l0.03807,-1.59597c0.15596,-0.54991 0.20381,-1.14278 0.46785,-1.64975c0.20124,-0.38639 0.68378,-0.57339 0.8899,-0.95719c0.54774,-1.01994 0.8644,-2.4105 1.91458,-2.89776c0.50659,-0.23505 1.12131,0.11867 1.67479,0.04429c0.87101,-0.11706 1.67145,-0.54979 2.52545,-0.75724c1.93978,-0.47118 2.97246,-1.40421 4.18702,1.13231c0.46241,0.96571 -0.21308,2.64426 -0.58126,3.54933c-1.68353,4.13853 -5.72186,4.88821 -9.76723,4.78371c0,0 -1.19905,-0.035 -1.26283,-1.18822z" fill="#151515" stroke="none" stroke-width="0.5"/><path d="M253.34784,178.07747c0.94391,0.48479 0.20561,1.52869 0.20561,1.52869l-0.45353,0.60594c-1.55267,1.56653 -2.01526,2.81282 -2.07849,4.70163c0,0 -0.0419,1.12937 -1.23952,1.3513c-1.19761,0.22192 -1.15571,-0.90745 -1.15571,-0.90745c0.10184,-2.53223 0.86978,-4.39911 2.91215,-6.50569l0.12729,-0.21531c0,0 0.73829,-1.0439 1.6822,-0.55912z" fill="#2e2e2e" stroke="none" stroke-width="0.5"/><path d="M244.43218,196.82106c-0.35573,-0.02981 -0.49945,-0.29645 -0.49945,-0.29645l-0.40222,-0.75123c-0.32651,-1.02245 -1.01829,-1.95395 -0.33413,-3.42943c0.7689,-1.65823 3.11558,-3.56443 4.77533,-3.39844c0.48126,0.04814 0.5808,0.56076 0.88218,0.831c0.49275,0.44182 1.33279,0.89241 1.21775,1.79093c-0.08503,0.66418 -1.19739,2.07283 -1.72219,2.74187c-0.73762,0.94034 -1.93674,2.62064 -3.27186,2.83691c-0.32315,0.05235 -0.5054,-0.1074 -0.64542,-0.32514z" fill="#2e2e2e" stroke="none" stroke-width="0.5"/><path d="M235.21708,157.1912c0.61766,4.88524 -2.51788,9.30527 -7.00342,9.8724c-4.48555,0.56713 -8.62251,-2.9334 -9.24017,-7.81865c-0.61766,-4.88524 -2.56576,-6.86513 1.91978,-7.43226c4.48555,-0.56713 13.70615,0.49327 14.32381,5.37851z" fill="#ffffff" stroke="none" stroke-width="0"/><path d="M239.8403,175.58217c0.21245,-1.77288 0.18666,-3.71292 1.33935,-5.2095c0.89945,-1.16779 2.52779,-1.66519 3.83616,-2.21681c0.07899,-0.21098 0.21157,-0.39801 0.38319,-0.54233l1.26715,-1.09748l0.01925,0.02223c0.04636,-0.04843 0.09395,-0.09581 0.1429,-0.14203c1.12784,-1.06508 3.11631,-0.93563 4.37749,-1.91085c1.05542,-0.81612 1.75029,-2.78947 2.93475,-3.34091c0.82674,-0.38489 1.94735,0.38847 2.7349,-0.07132c1.35812,-0.7929 1.52024,-3.31245 1.74744,-4.61272c0.54024,-3.09191 0.9162,-6.53153 -1.44299,-8.87457c-0.89318,-0.39592 -2.17766,-0.01028 -2.83872,-0.72968c-0.58379,-0.63532 -0.50443,-1.65736 -0.6263,-2.51153c-0.27969,-1.96021 -0.03904,-3.71414 -0.89493,-5.60162c-1.04541,-2.30544 -2.69999,-4.10576 -4.36385,-5.94488c-1.64454,-1.81777 -2.7217,-4.12736 -4.7726,-5.5723c-1.66603,-1.17379 -3.91975,-1.44288 -5.79276,-2.10331c-2.72825,-0.41296 -5.70887,-0.61213 -8.43133,-0.03483c-0.95345,0.20218 -2.9984,1.17611 -3.81014,0.57575c-0.6552,-0.48458 -0.3196,-1.59865 -0.44702,-2.40355c-0.17695,-1.11771 -0.01084,-2.30959 -0.40383,-3.37078c-0.03486,-0.09412 -1.37498,-2.24679 -1.50376,-2.38879c-0.09986,-0.11011 -0.52706,-0.30125 -0.80022,-0.56772c-0.03166,0.27534 -0.09739,0.54826 -0.17695,0.81287c-0.23416,0.77874 -0.14777,1.86825 -0.84361,2.28905c-1.75535,1.06153 -3.94538,-1.03571 -5.37931,-1.67281c-1.03426,-0.20023 -2.0425,-0.51775 -3.06927,-0.75338c-0.65778,-0.15096 -1.38755,-0.63529 -1.9955,-0.34227c-0.46535,0.22429 0.40716,0.95225 0.55199,1.44811c0.23747,0.81306 0.90159,4.85494 0.40286,5.5143c-0.92648,1.22487 -1.77638,1.32394 -2.57312,0.95135c0.06506,0.08849 0.11687,0.1841 0.14795,0.28985c0.226,0.76904 0.44102,1.63993 0.18034,2.39792c-0.2191,0.63706 -0.9307,0.98589 -1.4788,1.3776c-0.16974,0.12131 -0.52858,-0.07161 -0.61457,0.11848c-0.0711,0.15718 0.30078,0.17293 0.43218,0.28472c0.37231,0.31677 1.37725,1.31144 1.81031,1.73805c0.26634,-0.292 0.74066,-0.59164 1.45341,-0.27791c1.19279,0.52503 0.66775,1.71782 0.66775,1.71782c-0.06613,0.14768 -0.13637,0.29414 -0.20958,0.43975c0.0002,0.21008 -0.06073,0.44713 -0.22026,0.70793c-0.12417,0.20299 -0.26273,0.34624 -0.40628,0.44481c-0.55496,0.9863 -1.10497,1.97784 -1.27774,3.09246c-0.12641,0.81554 0.25389,1.63114 0.35741,2.4499c0.29511,2.33413 0.59023,4.66826 0.88534,7.00239c0.06212,0.49135 0.40648,3.02045 0.31828,3.30818c-0.5727,1.86813 -1.39458,1.63359 -2.72536,2.45817c-1.15743,0.71718 -2.25411,1.62952 -3.19294,2.60747c-2.92038,2.86476 0.12791,6.62564 1.79145,9.34462c0.45381,0.74175 0.95706,1.49567 1.65083,2.0199c0.47639,0.35997 1.43808,1.18067 2.01243,1.41767c1.77543,0.73261 3.74175,-0.74249 5.53041,-0.28466c0.56842,0.1455 0.95756,0.6788 1.44842,1.00025c2.06054,1.34944 4.51837,1.51451 2.85726,4.79824c-0.30534,0.60361 -1.08689,0.8056 -1.63033,1.2084c-1.583,1.2462 -3.50335,2.60439 -4.4583,4.44884c-0.18945,0.36591 -0.36737,0.73281 -0.53445,1.1009c-0.78072,-0.26382 -1.52911,-0.57273 -2.2901,-0.83723c1.3998,-2.94512 3.1667,-4.7927 5.7519,-6.82201c0.33119,-0.18207 0.66823,-0.35388 0.99356,-0.54621c0.07462,-0.04411 0.28265,-0.12581 0.20372,-0.16164c-0.30299,-0.13752 -0.67526,-0.05666 -0.97982,-0.19064c-0.77215,-0.33969 -1.23495,-1.26491 -2.04936,-1.4848c-0.96482,-0.26051 -2.86013,0.63376 -3.90342,0.57656c-1.62749,-0.08923 -2.1362,-0.43141 -3.43934,-1.30585c-4.62259,-3.10189 -9.35161,-11.27101 -4.82552,-16.09738c1.09584,-1.11954 2.34311,-2.18189 3.68605,-3.00516c0.5236,-0.32098 1.51021,-0.32389 1.58877,-0.933c0.09919,-0.76918 -0.29272,-1.5243 -0.39,-2.29373c-0.29511,-2.33413 -0.59023,-4.66826 -0.88534,-7.00239c-0.04923,-0.38937 -0.38177,-2.91875 -0.35086,-3.15201c0.16599,-1.25241 0.73684,-2.3517 1.32743,-3.43788l-0.25959,-0.16052c-1.16867,-1.12297 -3.6174,-2.79455 -3.277,-4.76459c0.16569,-0.95894 1.66288,-1.09774 2.22075,-1.8951c0.38243,-0.54661 -1.08106,-1.01357 -1.08659,-1.68066c-0.00831,-1.00221 0.09049,-2.25609 0.87835,-2.87558c0.63219,-0.49708 1.60216,0.15983 2.39352,0.30295c0.11127,0.02012 0.31545,0.29103 0.28645,0.18174c-0.26825,-1.01096 -0.42215,-2.29666 -0.71857,-3.35539c-0.48783,-1.74237 -1.79154,-2.24156 0.31054,-4.21283c0.55554,-0.52097 1.47578,-0.43435 2.23672,-0.46629c1.71144,-0.07184 3.5846,0.76604 5.24914,1.10382c0.49309,0.21563 1.00651,0.38971 1.47927,0.64687c0.49674,0.27021 0.97887,0.57468 1.41901,0.92971c0.12563,0.10134 0.26025,0.57648 0.24867,0.41549c-0.09992,-1.39012 -0.29061,-3.75727 1.95609,-4.18031c0.74836,-0.14091 1.37013,0.67182 2.01382,1.0787c2.02524,1.2802 3.20518,3.64995 3.50718,5.93975c0.09201,0.69767 0.30315,1.39414 0.31569,2.09391c0.76268,-0.27485 2.01018,-0.38134 2.60908,-0.45729c2.68934,-0.34108 5.42494,-0.16435 8.09661,0.25139c2.20648,0.77257 4.68138,1.11528 6.64518,2.48985c2.25918,1.58132 3.42288,3.98782 5.22388,5.96959c0.99806,1.09824 2.05019,2.09663 2.88534,3.34425c1.58144,2.36247 2.86551,4.99955 3.0355,7.88447c0.03719,0.63118 0.05268,1.26653 0.00268,1.89682c-0.02071,0.26109 -0.41769,0.59268 -0.21314,0.75626c0.22898,0.18312 0.55454,-0.30851 0.84244,-0.25299c0.60403,0.11648 1.12668,0.49424 1.69001,0.74136c0.96999,0.92784 1.94952,1.66612 2.45157,2.98592c0.9622,2.52948 0.55391,5.91444 0.10292,8.50278c-0.23257,1.3348 -0.27874,2.51359 -0.87511,3.77888c-0.14067,0.29846 -1.96791,2.54824 -2.14768,2.64586c-0.59174,0.32134 -1.3178,0.30804 -1.99002,0.34712c-0.317,0.01843 -0.63986,-0.29153 -0.93602,-0.17699c-0.64787,0.25058 -0.7203,1.18878 -1.15959,1.73176c0.34913,-0.05934 0.70431,-0.09576 1.07015,-0.09416l0.00001,-0.00001c3.25673,0.01424 5.5153,3.12851 2.78219,5.79598c-0.83512,0.81507 -2.92898,1.3607 -3.97604,2.0624c-2.18898,1.46697 -4.04859,3.73284 -6.46005,4.82066c-1.14627,0.51708 -2.48715,0.60072 -3.75543,0.61685c-0.04846,0.23032 -0.08377,0.45871 -0.10469,0.68447c-0.23454,-0.08743 -0.4699,-0.1732 -0.70629,-0.25684c0.08161,0.14315 0.15293,0.28052 0.21075,0.40011c0.11889,0.24592 0.23291,0.49449 0.34174,0.74544c-1.17672,-0.48106 -2.34346,-0.75609 -3.57775,-0.9063c-0.61419,-0.8244 -1.23107,-1.74897 -0.8834,-2.44838c0.20033,-0.40301 0.46476,-0.66854 0.76816,-0.83303z" fill="#2e2e2e" stroke="none" stroke-width="0.5"/><path d="M227.97716,182.18069c0.11944,-0.48323 0.177,-0.98806 0.30358,-1.46881c-0.36131,0.1379 -0.78042,0.23224 -1.08315,0.32013c-1.14864,0.33346 -3.07514,0.29751 -4.1239,0.94046c-0.33217,0.20364 -0.85076,1.77281 -0.87461,1.81788c-0.83459,1.57715 -1.84373,2.8619 -2.5289,4.52913c0.70571,3.25455 2.05736,6.21821 3.79091,9.2115c0.654,1.12925 0.70757,2.70507 1.54317,3.64555c1.24287,1.39887 2.97749,2.09548 4.51856,3.07491c1.89506,0.45379 4.79035,-1.66414 5.16405,-3.62705c0.14185,-0.74509 0.04074,-2.25321 0.30693,-2.88446c0.60001,-1.42294 2.47307,-2.44234 2.18742,-4.28453c-0.30166,-1.94549 -2.23642,-1.79012 -3.59813,-2.62512c-2.17018,-1.33076 -3.74806,-3.64081 -5.35281,-5.55589c-0.53822,-0.66955 -1.00356,-1.3591 -1.29051,-2.08978c0.35688,-0.28036 0.70379,-0.56572 1.03638,-0.85278zM217.30719,187.49418c0.79884,-1.99264 2.50521,-6.30332 4.30471,-7.54981c0.55474,-0.38426 1.49918,-0.72989 2.52018,-1.01749c0.05144,-0.03703 0.10427,-0.07354 0.1585,-0.10952c0.75995,-0.50422 1.6213,-1.41039 2.49023,-1.1334c0.28823,0.09188 0.5235,0.27326 0.71958,0.50746c0.12924,-0.02111 0.25059,-0.04001 0.36262,-0.0566c0.92459,-0.13689 2.06444,-0.69312 2.8015,-0.11836c0.3011,0.23479 0.41714,0.66963 0.42737,1.18361c0.06799,-0.06863 0.13643,-0.13717 0.20531,-0.20559c0.30351,0.3999 0.31433,1.01324 0.55816,1.46974c0.37303,0.6984 1.12208,1.76491 1.71292,2.36533c1.71707,1.7449 3.51764,3.38615 5.22533,5.13691c1.11918,1.14739 2.41395,1.94999 3.35919,3.27801c0.77917,1.09468 1.87704,2.75656 2.34101,4.0107c0.30036,0.81189 0.3428,1.70551 0.65404,2.51331c1.39356,1.61656 2.6772,3.31958 4.83742,3.91199c0.56122,0.1539 1.33969,0.72552 1.72208,0.28686c0.77334,-0.88714 1.21861,-2.80923 1.60845,-3.88457c0.19899,-0.54891 0.42233,-1.09188 0.69841,-1.60635c0.21839,-0.40698 1.13335,-0.97287 0.72189,-1.18271c-1.44797,-0.73846 -4.09771,0.20219 -5.45323,-0.74364c-1.88696,-1.31663 -1.18197,-3.95592 -2.59493,-5.57105c-1.03048,-0.87669 -3.49269,-2.47006 -3.60502,-3.94566c-0.11518,-1.51298 2.42992,-4.57534 3.96267,-4.65266c2.47579,-0.12489 2.78722,1.26535 3.09166,3.18542c0.10436,0.65821 -0.48547,2.41159 0.32521,2.98077c0.78991,0.55461 2.58234,-0.08438 3.3262,-0.31782c3.22713,-1.01274 5.83205,-1.95837 6.52393,-5.46976c0.06205,-0.70382 0.40648,-1.44112 0.18379,-2.11166c-0.35762,-1.07686 -3.35415,-0.0542 -4.04089,0.28471c-0.48191,0.23783 -0.75306,0.86175 -1.27606,0.98534c-0.72265,0.17076 -1.51813,0.07785 -2.22198,-0.15873c-0.50117,-0.16847 -0.77229,-0.73686 -1.22997,-1.0016c-1.68485,-0.97457 -4.15759,-1.25137 -5.73049,-2.39161c-0.86302,-0.62562 -1.26375,-1.74239 -2.0771,-2.43136c-0.68934,-0.58393 -1.42562,-1.11593 -2.19346,-1.59196c-0.19474,-0.12073 -0.46497,-0.23401 -0.76976,-0.35017c1.07941,-0.48296 2.18291,-0.82679 3.41844,-1.00653c0.2051,0.19038 0.43053,0.35901 0.67766,0.50319c0.1936,0.15384 0.38402,0.31152 0.57094,0.47298c0.73643,0.6362 1.06539,1.6838 1.8517,2.25721c0.7371,0.53753 1.73367,0.58182 2.55895,0.97067c0.98375,0.4635 2.04828,0.76153 2.98945,1.30632c0.47937,0.27748 0.89261,1.21003 1.37351,0.9352c0.35135,-0.2008 0.52296,-0.65308 0.8879,-0.82796c0.86937,-0.4166 4.47029,-1.42848 5.39083,-1.02795c2.80909,1.22223 2.42662,3.17038 2.21629,5.556c-0.28606,1.39925 -0.31985,2.16479 -1.11086,3.42951c-1.63222,2.60969 -5.99879,4.00866 -8.88402,4.55535c-1.13352,0.21478 -2.08809,0.4036 -3.10596,0.00851c0.21775,0.46645 0.3934,0.95063 0.51673,1.44473c0.14644,0.58666 -0.16945,1.49616 0.36623,1.77664c0.22107,0.11575 0.49491,-0.08453 0.74441,-0.07937c1.32247,0.02736 4.45276,0.18898 5.31501,1.35282c0.49543,0.66871 0.57689,1.61937 0.49361,2.44744c-0.06169,0.61337 -0.62503,1.06375 -0.90214,1.61442c-0.74307,1.4766 -1.0523,2.94145 -1.90417,4.37659c-0.39732,0.66937 -0.55471,1.55071 -1.17889,2.0158c-1.08514,0.80854 -2.80586,0.42274 -3.94158,0.12152c-2.85528,-0.75726 -4.60745,-2.91814 -6.39301,-5.09452c-0.91177,-2.27864 -1.43956,-4.28164 -2.88395,-6.35286c-0.17677,-0.25349 -0.37278,-0.48674 -0.58156,-0.70677c0.75397,2.01921 0.01004,4.14772 -1.26305,5.88455c-0.22402,0.30563 -0.62539,0.47972 -0.78267,0.82448c-0.56611,1.24089 0.0309,2.7205 -0.75283,4.09104c-1.01776,1.77978 -3.9313,4.05876 -6.00614,4.21809c-0.69949,0.05371 -1.37971,-0.25514 -2.06957,-0.38272c-1.89833,-1.13815 -4.12619,-2.04952 -5.56145,-3.82609c-0.67144,-0.83111 -0.81228,-1.97744 -1.16855,-2.98474c-0.60933,-1.72272 -2.15892,-3.15673 -2.87264,-4.85031c-0.44097,-1.04638 -0.4778,-2.23104 -0.89726,-3.28624c-0.18229,-0.45858 -0.58184,-0.8138 -0.74412,-1.27983c-0.29694,-0.85278 -0.21497,-1.78687 -0.27296,-2.6939c0.06545,-0.01635 0.131,-0.03233 0.19666,-0.048c0.02644,-0.13041 0.05962,-0.21335 0.05962,-0.21335zM230.46779,183.58342c0,0 0,0.1109 -0.03303,0.26663c1.3476,1.64688 2.71092,3.6457 4.5305,4.7704c0.53856,0.33288 1.03835,0.52214 1.50688,0.69203l-0.00001,-0.00001c-0.81971,-0.86767 -1.60316,-1.76935 -2.44231,-2.6186c-1.11661,-1.13004 -2.4054,-1.954 -3.35423,-3.26728c-0.07094,-0.09818 -0.14161,-0.19671 -0.21167,-0.29573zM247.59853,186.29753c-0.06679,-1.07065 0.23108,-2.20898 -0.09278,-3.29704c-0.06956,-0.23369 -0.50489,0.13839 -0.65099,0.33361c-0.23456,0.31343 -0.34225,0.71071 -0.5824,1.01989c-0.15674,0.20178 -0.57453,0.23436 -0.58995,0.4894c-0.01224,0.20223 0.38322,0.14785 0.54392,0.27121c0.47917,0.36785 0.92659,0.77424 1.3722,1.18294z" fill="#2e2e2e" stroke="none" stroke-width="0.5"/><path d="M227.97843,182.38178c-0.33259,0.28705 -0.67384,0.57183 -1.03072,0.85219c0.28695,0.73068 0.7429,1.32089 1.28111,1.99044c1.60475,1.91508 3.23161,4.25956 5.40179,5.59032c1.36171,0.83501 3.29866,0.70054 3.60032,2.64603c0.28565,1.84219 -1.59804,2.8874 -2.19805,4.31035c-0.2662,0.63125 -0.17366,2.14781 -0.31552,2.8929c-0.3737,1.96291 -3.2949,4.09101 -5.18996,3.63722c-1.54107,-0.97943 -3.29872,-1.67935 -4.54159,-3.07822c-0.8356,-0.94048 -0.90596,-2.52729 -1.55996,-3.65653c-1.73355,-2.99329 -3.09509,-6.014 -3.8008,-9.26856c0.68517,-1.66723 1.71032,-2.97108 2.54491,-4.54823c0.02385,-0.04508 0.54885,-1.61814 0.88102,-1.82178c1.04876,-0.64295 2.99256,-0.61215 4.1412,-0.94561c0.30274,-0.08789 0.72655,-0.18252 1.08786,-0.32042c-0.12657,0.48074 -0.18122,1.08552 -0.30066,1.56875z" data-paper-data="{&quot;noHover&quot;:false,&quot;origItem&quot;:[&quot;Path&quot;,{&quot;applyMatrix&quot;:true,&quot;segments&quot;:[[[227.97714,182.18069],[0,0],[0.11944,-0.48323]],[[228.28071,180.71188],[-0.12657,0.48074],[-0.36131,0.1379]],[[227.19756,181.03201],[0.30274,-0.08789],[-1.14864,0.33346]],[[223.07366,181.97247],[1.04876,-0.64295],[-0.33217,0.20364]],[[222.19905,183.79035],[0.02385,-0.04508],[-0.83459,1.57715]],[[219.67015,188.31949],[0.68517,-1.66723],[0.70571,3.25455]],[[223.46106,197.53098],[-1.73355,-2.99329],[0.654,1.12925]],[[225.00423,201.17653],[-0.8356,-0.94048],[1.24287,1.39887]],[[229.5228,204.25144],[-1.54107,-0.97943],[1.89506,0.45379]],[[234.68684,200.62439],[-0.3737,1.96291],[0.14185,-0.74509]],[[234.99378,197.73993],[-0.2662,0.63125],[0.60001,-1.42294]],[[237.1812,193.4554],[0.28565,1.84219],[-0.30166,-1.94549]],[[233.58307,190.83028],[1.36171,0.83501],[-2.17018,-1.33076]],[[228.23026,185.27439],[1.60475,1.91508],[-0.53822,-0.66955]],[[226.93975,183.1846],[0.28695,0.73068],[0.35688,-0.28036]],[[227.97613,182.33183],[-0.33259,0.28705],[0,0]]],&quot;closed&quot;:true}]}" fill="#060301" stroke="none" stroke-width="0.5"/><path d="M229.47385,185.87757c-0.23152,1.2825 -1.51402,1.05098 -1.51402,1.05098l-1.34076,-0.24572c-0.21938,-0.12 -0.41032,-0.39334 -0.65814,-0.35999c-0.17105,0.02301 -0.12399,0.32294 -0.20383,0.47596c-0.16156,0.30963 -0.40174,0.58113 -0.51936,0.90998c-0.79096,2.21172 -1.22055,3.74219 -2.73588,5.64105c0,0 -0.81535,1.01667 -1.83202,0.20132c-1.01667,-0.81535 -0.20132,-1.83202 -0.20132,-1.83202c0.75949,-0.94172 1.06602,-1.18746 1.55042,-2.22849c0.48978,-1.05257 0.69516,-2.61035 1.28358,-3.84899c0.9245,-0.5248 1.87379,-1.14436 2.78331,-1.80968c0.39425,0.09321 0.79349,0.26242 1.1859,0.32744l1.15116,0.20414c0,0 1.2825,0.23152 1.05098,1.51402z" fill="#0e0c93" stroke="none" stroke-width="0.5"/><path d="M220.69992,181.10679c0.01029,0.00292 0.02051,0.00597 0.03065,0.00915c-0.55901,0.0221 -1.11609,0.02874 -1.66057,0.01898c0.51076,-0.15916 1.05147,-0.1923 1.62992,-0.02814z" fill="#0e0c93" stroke="none" stroke-width="0.5"/><path d="M247.51491,178.035c-0.01475,-0.11668 -0.01764,-0.22417 -0.01069,-0.32317c-0.15103,-0.32699 -0.19956,-0.77678 0.19246,-1.28227c0.50188,-0.64716 1.09505,-0.57225 1.46659,-0.42722c1.39109,-1.92084 2.69308,-4.11192 3.50798,-6.27563c0.49764,-1.32133 0.46477,-3.98131 1.63447,-4.94222c0.96894,-0.79599 3.90446,-0.65273 5.12757,-0.6528c2.36188,0.41068 6.2733,1.88703 4.79199,5.27351c-1.10631,2.52917 -3.92945,1.27311 -5.3934,3.09064c-1.20853,1.50042 -0.90875,3.60359 -1.76896,5.23904c-1.92318,3.65645 -5.14981,3.10115 -7.92811,1.36725l-0.1635,0.06234c0,0 -1.29294,0.16347 -1.45641,-1.12946z" fill="#060301" stroke="none" stroke-width="0.5"/><path d="M246.81688,176.58654c-0.72443,-1.08333 0.3589,-1.80776 0.3589,-1.80776l0.44255,-0.27675c2.24216,-2.05787 4.75869,-5.70854 4.71487,-8.84045c0,0 -0.00184,-1.30323 1.30139,-1.30507c1.30323,-0.00184 1.30507,1.30139 1.30507,1.30139c-0.03122,3.91964 -2.73595,8.14003 -5.55227,10.75831l-0.76274,0.52923c0,0 -1.08333,0.72443 -1.80776,-0.3589z" fill="#0e0c93" stroke="none" stroke-width="0.5"/><path d="M219.56959,150.57449c-0.11066,-0.33174 -0.07409,-0.637 -0.07409,-0.637l0.15705,-1.31025c0.24925,-2.44453 0.61803,-3.14953 2.64136,-4.60141c2.5239,0.17905 5.04262,0.62818 7.54193,1.04729c1.6066,0.26941 2.33554,0.03314 3.68682,1.52329c2.1913,2.41651 1.18305,7.60951 -2.07157,8.36125c-1.3838,0.31962 -2.12373,-0.13432 -3.41532,-0.48068c-2.58082,-0.69208 -5.07295,-1.62482 -7.59696,-2.51164c0,0 -1.047,-0.36787 -0.86922,-1.39084z" fill="#5d2911" stroke="none" stroke-width="0.5"/><path d="M255.87639,153.77499c0.61766,4.88524 -1.68982,9.20057 -5.1539,9.63855c-3.46409,0.43798 -6.77299,-3.16725 -7.39066,-8.05249c-0.61766,-4.88524 1.68982,-9.20057 5.1539,-9.63855c3.46409,-0.43798 6.77299,3.16724 7.39065,8.05249z" fill="#ffffff" stroke="none" stroke-width="0"/><path d="M252.73941,144.96009c-1.53425,1.79467 -3.02382,3.61029 -4.68768,5.28144c-0.83269,0.83634 -1.19656,1.51055 -2.39455,1.87928c-2.81759,0.86725 -5.88679,-2.65086 -5.2839,-5.46603c0.37178,-1.736 1.0329,-1.87839 2.14016,-2.79547c1.72249,-1.42666 3.44651,-2.88484 5.29408,-4.13912c2.18758,0.21249 2.7813,0.58742 4.05403,2.34331l0.70008,0.93076c0,0 0.16308,0.21685 0.2255,0.51913c0.5887,0.70225 -0.04773,1.44672 -0.04773,1.44672z" data-paper-data="{&quot;index&quot;:null}" fill="#5d2911" stroke="none" stroke-width="0.5"/><path d="M233.27784,159.29783c0.26953,2.13175 -0.84407,4.02829 -2.48729,4.23604c-1.64322,0.20776 -3.1938,-1.35194 -3.46333,-3.48368c-0.26953,-2.13175 0.84407,-4.02829 2.48729,-4.23604c1.64322,-0.20776 3.1938,1.35194 3.46333,3.48368z" fill="#07064e" stroke="none" stroke-width="0"/><path d="M252.32888,156.08496c0.26953,2.13174 -0.84407,4.02829 -2.48729,4.23604c-1.64322,0.20776 -3.1938,-1.35194 -3.46333,-3.48368c-0.26953,-2.13174 0.84407,-4.02829 2.48729,-4.23604c1.64322,-0.20776 3.1938,1.35194 3.46333,3.48368z" fill="#07064e" stroke="none" stroke-width="0"/><path d="M276.29972,172.22312c1.21521,4.77768 -0.20202,9.60581 -3.1655,10.78392c-2.96347,1.17811 -6.35096,-1.73992 -7.56618,-6.5176c-1.21521,-4.77768 0.20202,-9.60581 3.1655,-10.78392c2.96347,-1.17811 6.35096,1.73992 7.56618,6.5176z" fill="#6d3618" stroke="none" stroke-width="0"/><path d="M275.28639,173.88768c0.4829,3.81937 -0.70974,7.11588 -2.66384,7.36294c-1.9541,0.24706 -3.92968,-2.64887 -4.41258,-6.46824c-0.4829,-3.81937 0.70974,-7.11587 2.66384,-7.36294c1.9541,-0.24706 3.92968,2.64886 4.41258,6.46824z" fill="#000000" stroke="none" stroke-width="0"/><path d="M236.5861,168.01283c-0.0465,0.3882 -0.43469,0.3417 -0.43469,0.3417l-0.31223,-0.03865c-0.16992,-0.0067 -0.33983,-0.01339 -0.50975,-0.02008c0,0 -0.39067,-0.01539 -0.37527,-0.40606c0.01539,-0.39067 0.40606,-0.37527 0.40606,-0.37527c0.16992,0.0067 0.33983,0.01339 0.50975,0.02008l0.37444,0.0436c0,0 0.3882,0.0465 0.3417,0.43469z" fill="#b27627" stroke="none" stroke-width="0.5"/><g><path d="M266.46693,170.92003l0.18814,-0.03815c0.45021,-0.13727 0.93966,-0.30313 1.4198,-0.23733c0.23705,0.03248 0.43422,0.36266 0.65976,0.2828c0.50915,-0.1803 0.57877,-0.76184 1.35346,-0.62658c0.21929,0.03829 0.42242,0.15988 0.59877,0.29572c0.13371,0.103 0.22658,0.25417 0.30742,0.40232c0.02731,0.05005 -0.04465,0.19825 0.00542,0.17098c0.20452,-0.11138 0.27849,-0.42161 0.50246,-0.48542c1.31535,-0.37474 1.73305,0.89493 1.44427,1.87732c1.41548,-0.49945 1.22716,1.53611 0.69175,2.19825c-0.24513,0.30315 -0.77988,0.42968 -0.95402,0.80473c-0.27783,0.59837 -0.44269,1.05885 -1.18759,1.28083c-0.22462,0.06694 -0.47048,0.07903 -0.70191,0.04193c-0.24302,-0.03896 -0.4297,-0.46164 -0.64958,-0.35106c-0.12437,0.06255 -0.13779,0.25746 -0.25718,0.32906c-0.5517,0.33086 -1.37136,0.29269 -1.87088,-0.10967c-0.08469,-0.06822 -0.16613,-0.1804 -0.21069,-0.2975c-0.40412,0.32442 -0.90218,0.68809 -1.44724,0.63208c-0.22196,-0.02281 -0.4466,-0.10163 -0.62812,-0.23138c-0.06772,-0.04841 0.04282,-0.24297 -0.04036,-0.24646c-0.08155,-0.00342 0.06059,0.18795 0.00208,0.24485c-0.158,0.15368 -0.37739,0.23081 -0.58011,0.31735c-0.69376,0.29618 -1.20207,0.02091 -1.84209,-0.26907c-0.60475,-0.46672 -1.61726,-1.30345 -1.16573,-2.22792c0.04801,-0.09829 0.28063,-0.00616 0.30847,-0.11194c0.02313,-0.08789 -0.21215,-0.02436 -0.25097,-0.10654c-0.0969,-0.20514 -0.11959,-0.4438 -0.11615,-0.67065c0.01499,-0.99082 0.90206,-2.22743 1.88468,-2.56065c0.20718,-0.07026 0.44276,0.02968 0.64761,0.10644c0.06765,0.02535 0.0507,0.20357 0.1193,0.18092c0.06809,-0.02249 -0.05247,-0.15148 -0.01801,-0.21436c0.10238,-0.18683 0.237,-0.36387 0.40596,-0.49362c0.54738,-0.42034 1.00408,-0.27123 1.38127,0.11272z" data-paper-data="{&quot;index&quot;:null}" fill="url(#color-5)" stroke="none" stroke-width="0.5"/><g data-paper-data="{&quot;index&quot;:null}" fill="none" stroke-width="2"><path d="M275.29952,181.52598c-4.61271,0.5832 -8.82483,-2.68335 -9.40804,-7.29606c-0.5832,-4.61271 2.68335,-8.82483 7.29607,-9.40804c4.61271,-0.5832 8.82483,2.68335 9.40804,7.29607c0.5832,4.61271 -2.68335,8.82483 -7.29607,9.40803z" stroke="#f27f21"/><path d="M275.24323,181.08083c-4.36686,0.55212 -8.35448,-2.54033 -8.9066,-6.90719c-0.55212,-4.36686 2.54033,-8.35448 6.9072,-8.90661c4.36686,-0.55212 8.35448,2.54034 8.9066,6.9072c0.55212,4.36686 -2.54034,8.35448 -6.9072,8.9066z" stroke="#feb133"/><path d="M275.18104,180.58882c-4.09513,0.51776 -7.83462,-2.38226 -8.35238,-6.47739c-0.51776,-4.09512 2.38226,-7.83462 6.47739,-8.35238c4.09512,-0.51776 7.83461,2.38226 8.35238,6.47739c0.51776,4.09512 -2.38226,7.83462 -6.47739,8.35238z" stroke="#ffed6e"/><path d="M278.92184,176.61819c-3.31888,0.41962 -6.34954,-1.93069 -6.76916,-5.24958c-0.41962,-3.31888 1.9307,-6.34954 5.24958,-6.76916c3.31888,-0.41962 6.34954,1.9307 6.76916,5.24958c0.41962,3.31888 -1.9307,6.34954 -5.24958,6.76916z" stroke="#f27f21"/><path d="M278.88136,176.2979c-3.14199,0.39726 -6.01112,-1.82779 -6.40837,-4.96978c-0.39726,-3.14199 1.82779,-6.01112 4.96978,-6.40838c3.14199,-0.39726 6.01112,1.82779 6.40838,4.96979c0.39726,3.14199 -1.82779,6.01112 -4.96979,6.40837z" stroke="#feb133"/><path d="M278.8366,175.9439c-2.94648,0.37254 -5.63707,-1.71406 -6.00961,-4.66054c-0.37254,-2.94648 1.71406,-5.63707 4.66054,-6.00961c2.94648,-0.37254 5.63707,1.71406 6.00961,4.66054c0.37254,2.94648 -1.71406,5.63707 -4.66054,6.00961z" stroke="#ffed6e"/><path d="M269.22332,180.12106c-3.31888,0.41962 -6.34954,-1.93069 -6.76916,-5.24958c-0.41962,-3.31888 1.9307,-6.34954 5.24958,-6.76916c3.31889,-0.41962 6.34955,1.9307 6.76917,5.24958c0.41962,3.31888 -1.9307,6.34954 -5.24958,6.76916z" stroke="#f27f21"/><path d="M269.18282,179.80077c-3.14199,0.39726 -6.01112,-1.82779 -6.40837,-4.96978c-0.39726,-3.14199 1.82779,-6.01113 4.96978,-6.40838c3.14199,-0.39726 6.01112,1.8278 6.40838,4.96979c0.39726,3.14199 -1.82779,6.01112 -4.96979,6.40837z" stroke="#feb133"/><path d="M269.13807,179.44676c-2.94648,0.37254 -5.63707,-1.71406 -6.00961,-4.66054c-0.37254,-2.94648 1.71406,-5.63707 4.66054,-6.00961c2.94648,-0.37254 5.63707,1.71406 6.00961,4.66054c0.37254,2.94648 -1.71406,5.63707 -4.66054,6.00961z" stroke="#ffed6e"/><path d="M277.82133,181.82804c-3.31888,0.41962 -6.34954,-1.93069 -6.76916,-5.24958c-0.41962,-3.31888 1.9307,-6.34954 5.24958,-6.76916c3.31888,-0.41962 6.34954,1.9307 6.76916,5.24958c0.41962,3.31888 -1.9307,6.34954 -5.24958,6.76916z" stroke="#f27f21"/><path d="M277.78083,181.50775c-3.14199,0.39726 -6.01112,-1.82779 -6.40837,-4.96978c-0.39726,-3.14199 1.82779,-6.01113 4.96978,-6.40838c3.14199,-0.39726 6.01112,1.8278 6.40838,4.96979c0.39726,3.14199 -1.82779,6.01112 -4.96979,6.40837z" stroke="#feb133"/><path d="M277.73607,181.15374c-2.94648,0.37254 -5.63707,-1.71406 -6.00961,-4.66054c-0.37254,-2.94648 1.71406,-5.63707 4.66054,-6.00961c2.94648,-0.37254 5.63707,1.71406 6.00961,4.66054c0.37254,2.94648 -1.71406,5.63707 -4.66054,6.00961z" stroke="#ffed6e"/></g></g><path d="M288.46027,171.41783c1.1436,9.04505 -4.9505,17.26523 -13.61156,18.36029c-8.66106,1.09506 -16.60932,-5.34969 -17.75292,-14.39474c-1.1436,-9.04505 4.9505,-17.26523 13.61156,-18.36029c8.66106,-1.09506 16.60932,5.34969 17.75292,14.39474z" fill="url(#color-6)" stroke="none" stroke-width="0"/></g><g fill="#ffffff" stroke="#000000" stroke-width="0.75" stroke-linecap="square"><path d="M240.17913,219.9251l-1.48699,0.03569l-0.2974,7.28027l-7.62528,0.67806l0.40447,-7.79179l-8.99331,0.20223l2.49814,-14.79851h6.36432l-1.85576,10.31376l2.22453,-0.05948l0.64238,-12.77621h7.31599l-0.51153,12.50259l1.32045,-0.07138zM257.77105,212.14517c0,0.89616 -0.16258,1.75266 -0.48773,2.56952c-0.32515,0.80893 -0.75737,1.57025 -1.29666,2.28401c-0.53135,0.71376 -1.13804,1.372 -1.82007,1.97472c-0.6741,0.60272 -1.3601,1.14597 -2.05798,1.62974h5.32936l-0.40446,7.00667l-15.77397,-0.53532v-6.13827c0.59479,-0.19826 1.21735,-0.44014 1.86765,-0.72565c0.65824,-0.29343 1.30459,-0.62255 1.93903,-0.98736c0.64238,-0.37273 1.2451,-0.78909 1.80818,-1.24907c0.57101,-0.45998 1.07063,-0.96357 1.49888,-1.51078c0.43618,-0.54721 0.7772,-1.13804 1.02305,-1.77249c0.25377,-0.64238 0.38067,-1.3363 0.38067,-2.08178c0,-0.42825 -0.07534,-0.80497 -0.22602,-1.13012c-0.15067,-0.32515 -0.36085,-0.5948 -0.63049,-0.80893c-0.26963,-0.22206 -0.5829,-0.38463 -0.93978,-0.48773c-0.34895,-0.11103 -0.72565,-0.16654 -1.13011,-0.16654c-0.34102,0 -0.68599,0.03965 -1.03494,0.11896c-0.34102,0.07138 -0.68203,0.17447 -1.02305,0.30929c-0.33309,0.13482 -0.65031,0.30137 -0.95168,0.49963c-0.29343,0.19033 -0.5591,0.40842 -0.79702,0.65428l-1.48699,-6.60223c0.42032,-0.41239 0.90012,-0.75738 1.43941,-1.03494c0.53928,-0.2855 1.10632,-0.51549 1.7011,-0.68997c0.5948,-0.17448 1.20149,-0.30136 1.82007,-0.38067c0.61859,-0.07931 1.22528,-0.11895 1.82007,-0.11895c1.32441,0 2.55762,0.23792 3.69963,0.71376c1.14993,0.47583 2.14919,1.13407 2.99777,1.97472c0.84857,0.84064 1.51474,1.83594 1.99851,2.98587c0.49169,1.14201 0.73754,2.37522 0.73754,3.69963zM276.32167,219.52064c0,1.45923 -0.26171,2.72813 -0.78513,3.8067c-0.52342,1.07855 -1.23321,1.9747 -2.12937,2.68845c-0.89616,0.70582 -1.95093,1.23321 -3.16431,1.58215c-1.21338,0.34102 -2.514,0.51153 -3.90185,0.51153c-0.65824,0 -1.30856,-0.04759 -1.95094,-0.14275c-0.64238,-0.09517 -1.27682,-0.22206 -1.90335,-0.38067c-0.61859,-0.16655 -1.23321,-0.35291 -1.84387,-0.5591c-0.61065,-0.21413 -1.22528,-0.44809 -1.84386,-0.70187l0.64238,-6.69737c0.40447,0.22206 0.83667,0.42825 1.29665,0.61859c0.45998,0.19033 0.93185,0.35291 1.41562,0.48773c0.4917,0.13482 0.98736,0.24188 1.48699,0.32118c0.49963,0.07931 0.98736,0.11896 1.4632,0.11896c0.27758,0 0.61859,-0.02379 1.02305,-0.07138c0.40446,-0.05551 0.78909,-0.15067 1.1539,-0.2855c0.37274,-0.14275 0.68997,-0.33309 0.95168,-0.57101c0.26963,-0.24585 0.40446,-0.56703 0.40446,-0.96356c0,-0.36481 -0.1031,-0.68203 -0.30929,-0.95168c-0.20619,-0.26965 -0.47583,-0.49169 -0.80893,-0.66617c-0.33309,-0.17448 -0.70979,-0.31326 -1.13011,-0.41636c-0.41239,-0.1031 -0.82875,-0.1824 -1.24907,-0.23792c-0.42032,-0.05551 -0.82082,-0.08723 -1.20149,-0.09517c-0.37274,-0.01586 -0.68202,-0.02379 -0.92788,-0.02379c-0.50755,0 -1.02305,0.02379 -1.54647,0.07138c-0.52342,0.03966 -1.03098,0.12689 -1.52267,0.26171l0.67806,-13.60891l13.64461,-0.36877l0.36877,7.04238l-8.45799,-0.47583l-0.16655,2.99776c0.50757,-0.11896 1.01115,-0.21015 1.51078,-0.27361c0.50757,-0.06344 1.01511,-0.09517 1.52267,-0.09517c1.02305,0 1.97472,0.16654 2.85502,0.49962c0.8803,0.33309 1.64957,0.80892 2.30781,1.42751c0.65824,0.61859 1.17373,1.36407 1.54647,2.23643c0.38067,0.86443 0.571,1.83593 0.571,2.9145z"/><path d="M209.76365,230.14953l0.18888,-7.52841c-0.40475,-0.07196 -0.8185,-0.1619 -1.24124,-0.26984c-0.42274,-0.10793 -0.83649,-0.22037 -1.24124,-0.33729c-0.39576,-0.12592 -0.77802,-0.25185 -1.1468,-0.37777c-0.36878,-0.12592 -0.70157,-0.25634 -0.99839,-0.39126l0.6611,-4.69514c0.80051,0.40475 1.69547,0.71057 2.68486,0.91744c0.99839,0.20688 1.98779,0.31031 2.96819,0.31031c0.17989,0 0.40025,-0.0045 0.6611,-0.01349c0.26084,-0.01799 0.51269,-0.05397 0.75554,-0.10793c0.24285,-0.06296 0.44973,-0.1574 0.62062,-0.28333c0.17089,-0.12592 0.25634,-0.29682 0.25634,-0.51269c0,-0.23386 -0.12592,-0.40925 -0.37777,-0.52618c-0.24285,-0.12592 -0.53517,-0.21587 -0.87697,-0.26984c-0.3328,-0.06296 -0.67459,-0.09894 -1.02538,-0.10793c-0.34179,-0.00899 -0.60263,-0.01349 -0.78252,-0.01349c-0.8275,0 -1.57854,-0.10793 -2.25313,-0.3238c-0.67459,-0.22486 -1.25923,-0.53517 -1.75393,-0.93093c-0.4857,-0.40475 -0.86347,-0.88596 -1.13331,-1.44362c-0.26984,-0.55766 -0.40475,-1.18728 -0.40475,-1.88885c0,-0.6566 0.11243,-1.26373 0.33729,-1.82139c0.22486,-0.55766 0.53517,-1.06585 0.93093,-1.52457c0.40475,-0.45872 0.88146,-0.86347 1.43013,-1.21426c0.55766,-0.35079 1.16479,-0.64311 1.82139,-0.87697l-0.31031,-8.05459l2.06424,0.18888v7.40699c0.17989,-0.03598 0.35079,-0.06296 0.51269,-0.08095c0.17089,-0.01799 0.34629,-0.04048 0.52618,-0.06746l-0.04048,-7.44746l2.06424,0.02698l-0.26984,7.42048c0.83649,0.02698 1.68197,0.10793 2.53645,0.24285c0.85448,0.13492 1.637,0.34629 2.34757,0.63411l-0.4857,4.85704c-0.67459,-0.17989 -1.37166,-0.3328 -2.09123,-0.45872c-0.71057,-0.12592 -1.38965,-0.18888 -2.03726,-0.18888c-0.20688,0 -0.48121,0.00899 -0.823,0.02698c-0.3328,0.00899 -0.6611,0.04497 -0.9849,0.10793c-0.3238,0.06296 -0.60713,0.1574 -0.84998,0.28333c-0.23386,0.12592 -0.34179,0.30581 -0.3238,0.53967c0.00899,0.18889 0.08994,0.3328 0.24285,0.43174c0.15291,0.08994 0.34629,0.1574 0.58015,0.20238c0.24285,0.04497 0.50819,0.06746 0.79602,0.06746c0.29682,0 0.58015,-0.0045 0.84998,-0.01349c0.27883,-0.01799 0.53517,-0.03148 0.76903,-0.04048c0.24285,-0.01799 0.43624,-0.01799 0.58015,0c0.76453,0.03598 1.45261,0.17089 2.06424,0.40475c0.61163,0.22486 1.13331,0.53068 1.56505,0.91744c0.43174,0.38676 0.76004,0.84998 0.9849,1.38965c0.23386,0.53068 0.35079,1.11532 0.35079,1.75393c0,0.89046 -0.14841,1.68197 -0.44523,2.37455c-0.29682,0.68358 -0.71506,1.27722 -1.25474,1.78091c-0.53068,0.50369 -1.16929,0.92194 -1.91583,1.25474c-0.74655,0.3238 -1.56505,0.56216 -2.4555,0.71506l0.29682,7.52841l-1.86187,0.18888l-0.08095,-7.52841c-0.17989,0.02698 -0.35978,0.04048 -0.53967,0.04048c-0.17089,0 -0.34629,0 -0.52618,0h-0.08095l0.04048,7.44746z"/></g></g></g></svg>