<svg version="1.1" xmlns="http://www.w3.org/2000/svg" xmlns:xlink="http://www.w3.org/1999/xlink" width="100.6929" height="88.8463" viewBox="0,0,100.6929,88.8463"><g transform="translate(-197.98689,-135.57685)"><g data-paper-data="{&quot;isPaintingLayer&quot;:true}" fill-rule="nonzero" stroke="none" stroke-width="0" stroke-linecap="butt" stroke-linejoin="miter" stroke-miterlimit="10" stroke-dasharray="" stroke-dashoffset="0" style="mix-blend-mode: normal"><path d="M224.38881,210.51948l8.35024,-20.55411l-34.75216,-12.34765l36.13285,-7.51806l-8.22898,-29.29374l27.49161,19.7725l12.69802,-25.00157l-2.24272,30.1323l29.59855,-14.25604l-19.11283,25.02777l24.3564,5.05918l-24.34317,6.05278l8.5104,26.5202l-24.24578,-15.40829l-8.59637,25.7184l-5.57938,-30.31186z" fill="#94e677"/><path d="M217.24305,166.62838c0.22623,-6.08008 5.89131,-10.80495 12.65322,-10.55333c6.76195,0.25162 12.06016,5.38444 11.83392,11.46449c-0.22624,6.08008 -5.89124,10.80497 -12.6532,10.55336c-6.76193,-0.25162 -12.06018,-5.38444 -11.83395,-11.46451z" data-paper-data="{&quot;index&quot;:null}" fill="#b9e6a9"/><path d="M236.95886,159.74647c-3.38639,-6.57083 -2.03413,-14.00918 3.02035,-16.61412c5.05449,-2.6049 11.89714,0.6101 15.2835,7.18091c3.38636,6.57083 2.03413,14.00918 -3.02035,16.61412c-5.05449,2.6049 -11.89714,-0.6101 -15.2835,-7.18091z" data-paper-data="{&quot;index&quot;:null}" fill="#b9e6a9"/><path d="M243.16684,154.48834c-2.71803,-5.57021 -0.98592,-12.00616 3.86886,-14.37514c4.85478,-2.36894 10.99381,0.22618 13.71184,5.79641c2.71803,5.57021 0.9859,12.00616 -3.86888,14.37514c-4.85478,2.36894 -10.99377,-0.22621 -13.71182,-5.79642z" data-paper-data="{&quot;index&quot;:null}" fill="#b9e6a9"/><path d="M253.02004,152.09306c0.22624,-6.08008 4.22553,-10.86693 8.93269,-10.69177c4.70716,0.17516 8.33962,5.24599 8.11337,11.32605c-0.22624,6.08008 -4.22551,10.86696 -8.93267,10.6918c-4.70716,-0.17516 -8.33965,-5.246 -8.11342,-11.32608z" data-paper-data="{&quot;index&quot;:null}" fill="#b9e6a9"/><path d="M263.46206,157.1906c-2.87846,-4.70498 -2.10558,-10.41957 1.72631,-12.7639c3.83188,-2.34433 9.2717,-0.43063 12.15017,4.27434c2.87848,4.70498 2.10558,10.41954 -1.72631,12.76388c-3.83188,2.34433 -9.2717,0.43063 -12.15016,-4.27432z" data-paper-data="{&quot;index&quot;:null}" fill="#b9e6a9"/><path d="M228.16666,196.94726c-1.52842,-7.01064 1.08727,-13.53425 5.84231,-14.57091c4.75503,-1.03667 9.84878,3.8062 11.3772,10.81683c1.52842,7.01064 -1.08731,13.53425 -5.84234,14.57091c-4.75503,1.03667 -9.84875,-3.80621 -11.37717,-10.81683z" data-paper-data="{&quot;index&quot;:null}" fill="#b9e6a9"/><path d="M235.92447,201.7354c0.20932,-5.6255 4.43267,-10.035 9.43308,-9.84893c5.00044,0.18606 8.88439,4.89724 8.67504,10.52272c-0.20932,5.6255 -4.43265,10.035 -9.43308,9.84894c-5.00044,-0.18606 -8.88439,-4.89723 -8.67508,-10.52272z" data-paper-data="{&quot;index&quot;:null}" fill="#b9e6a9"/><path d="M239.55183,203.93098c0.2051,-5.51184 5.20811,-9.80007 11.1745,-9.57807c5.96641,0.222 10.6369,4.8702 10.43182,10.38206c-0.2051,5.51184 -5.20812,9.80007 -11.17452,9.57807c-5.96641,-0.222 -10.63687,-4.8702 -10.4318,-10.38204z" data-paper-data="{&quot;index&quot;:null}" fill="#b9e6a9"/><path d="M253.31576,205.0613c0.21355,-5.73912 3.56508,-10.27336 7.48589,-10.12746c3.92081,0.1459 6.9261,4.91665 6.71255,10.65577c-0.21355,5.73912 -3.56508,10.27333 -7.48587,10.12745c-3.92081,-0.1459 -6.9261,-4.91662 -6.71255,-10.65575z" data-paper-data="{&quot;index&quot;:null}" fill="#b9e6a9"/><path d="M258.40254,206.20146c-2.60871,-6.69532 -1.20285,-13.49467 3.14004,-15.18679c4.34289,-1.69212 9.97828,2.36374 12.58697,9.05902c2.60871,6.69532 1.20285,13.49467 -3.14004,15.18679c-4.34289,1.69212 -9.97828,-2.36374 -12.58697,-9.05902z" data-paper-data="{&quot;index&quot;:null}" fill="#b9e6a9"/><path d="M274.14204,199.13934c0.15647,-4.20491 3.04714,-7.51082 6.45654,-7.38396c3.40939,0.12686 6.04639,3.63845 5.88992,7.84336c-0.15647,4.20491 -3.04713,7.5108 -6.45652,7.38393c-3.40939,-0.12686 -6.0464,-3.63842 -5.88994,-7.84335z" data-paper-data="{&quot;index&quot;:null}" fill="#b9e6a9"/><path d="M265.63735,195.11376c0.17336,-4.65948 4.18329,-8.29275 8.95643,-8.11516c4.77314,0.17761 8.50198,4.09883 8.32861,8.75833c-0.17336,4.65948 -4.18332,8.29276 -8.95644,8.11517c-4.77314,-0.17761 -8.50195,-4.09885 -8.32858,-8.75834z" data-paper-data="{&quot;index&quot;:null}" fill="#b9e6a9"/><path d="M278.55519,196.83081c0.10995,-2.95479 2.91685,-5.24902 6.26942,-5.12428c3.35257,0.12474 5.98122,2.62123 5.87128,5.57602c-0.10995,2.95479 -2.91687,5.24899 -6.26942,5.12423c-3.35257,-0.12474 -5.98122,-2.62121 -5.87128,-5.576z" data-paper-data="{&quot;index&quot;:null}" fill="#b9e6a9"/><path d="M268.15161,199.53462c0.68186,0.02536 1.23294,0.092 1.23082,0.14883c-0.00212,0.05681 -0.55661,0.08233 -1.23847,0.05695c-0.68186,-0.02536 -1.23294,-0.09202 -1.23082,-0.14883c0.00212,-0.05681 0.55659,-0.0823 1.23847,-0.05694z" data-paper-data="{&quot;index&quot;:null}" fill="#b9e6a9"/><path d="M272.54657,192.17696c0.15012,-4.03443 4.50971,-7.14731 9.73744,-6.95279c5.22772,0.19452 9.34394,3.62275 9.19381,7.65721c-0.15012,4.03443 -4.50973,7.14729 -9.73745,6.95277c-5.22772,-0.19452 -9.34394,-3.62275 -9.19381,-7.65721z" data-paper-data="{&quot;index&quot;:null}" fill="#b9e6a9"/><path d="M276.6745,186.45787c0.18182,-4.88676 4.15255,-8.70603 8.86888,-8.53053c4.71632,0.17551 8.39224,4.27927 8.21042,9.16603c-0.18182,4.88676 -4.15257,8.70603 -8.8689,8.53054c-4.71632,-0.17551 -8.39223,-4.27927 -8.21039,-9.16606z" data-paper-data="{&quot;index&quot;:null}" fill="#b9e6a9"/><path d="M280.55935,176.19642c0.15435,-4.14808 3.36579,-7.39594 7.17291,-7.25428c3.80712,0.14165 6.76832,3.6192 6.61397,7.76729c-0.15435,4.14808 -3.36579,7.39592 -7.17291,7.25425c-3.80712,-0.14165 -6.76832,-3.6192 -6.61396,-7.76727z" data-paper-data="{&quot;index&quot;:null}" fill="#b9e6a9"/><path d="M274.84936,163.51736c0.18606,-5.00044 4.02205,-8.91692 8.56788,-8.74778c4.54584,0.16915 8.08012,4.3599 7.89407,9.36031c-0.18606,5.00044 -4.02202,8.91694 -8.56785,8.7478c-4.54584,-0.16915 -8.08014,-4.35993 -7.89408,-9.36033z" data-paper-data="{&quot;index&quot;:null}" fill="#b9e6a9"/><path d="M287.48131,189.63318c-0.22624,6.08008 -5.89131,10.80495 -12.65322,10.55333c-6.76193,-0.2516 -12.06016,-5.38444 -11.83393,-11.46451c0.22624,-6.08008 5.89126,-10.80498 12.6532,-10.55336c6.76193,0.2516 12.06018,5.38444 11.83395,11.46451z" fill="#b9e6a9"/><path d="M267.76549,196.51506c3.38639,6.57083 2.03413,14.0092 -3.02035,16.61412c-5.0545,2.60492 -11.89714,-0.6101 -15.28351,-7.18091c-3.38636,-6.57083 -2.03413,-14.0092 3.02035,-16.61412c5.0545,-2.60492 11.89714,0.6101 15.28351,7.18091z" fill="#b9e6a9"/><path d="M261.55752,201.77321c2.71805,5.57023 0.98592,12.00616 -3.86886,14.37514c-4.85478,2.36896 -10.99379,-0.2262 -13.71184,-5.79641c-2.71805,-5.57023 -0.9859,-12.00618 3.86888,-14.37515c4.85478,-2.36896 10.99377,0.22621 13.71182,5.79642z" fill="#b9e6a9"/><path d="M251.70433,204.16847c-0.22624,6.08008 -4.22553,10.86693 -8.93267,10.69179c-4.70715,-0.17514 -8.33963,-5.246 -8.11339,-11.32607c0.22624,-6.08008 4.22551,-10.86696 8.93267,-10.6918c4.70715,0.17514 8.33965,5.246 8.11341,11.32608z" fill="#b9e6a9"/><path d="M241.2623,199.07096c2.87846,4.70498 2.10558,10.41957 -1.72631,12.7639c-3.83188,2.34433 -9.2717,0.43063 -12.15017,-4.27434c-2.87846,-4.70498 -2.10558,-10.41954 1.72629,-12.76387c3.83188,-2.34433 9.2717,-0.43063 12.15017,4.27432z" fill="#b9e6a9"/><path d="M276.55769,159.31431c1.52842,7.01064 -1.08729,13.53425 -5.84234,14.5709c-4.75503,1.03667 -9.84878,-3.80618 -11.3772,-10.81683c-1.52842,-7.01064 1.08732,-13.53426 5.84234,-14.57091c4.75503,-1.03667 9.84875,3.80621 11.37718,10.81685z" fill="#b9e6a9"/><path d="M268.7999,154.52614c-0.20932,5.6255 -4.43267,10.035 -9.43308,9.84893c-5.00043,-0.18607 -8.88439,-4.89724 -8.67508,-10.52272c0.20932,-5.6255 4.43267,-10.035 9.43308,-9.84893c5.00043,0.18607 8.88439,4.89723 8.67508,10.52272z" fill="#b9e6a9"/><path d="M265.17254,152.33056c-0.2051,5.51184 -5.20809,9.80009 -11.1745,9.57807c-5.96641,-0.22201 -10.63692,-4.8702 -10.43182,-10.38202c0.2051,-5.51184 5.20811,-9.80007 11.17452,-9.57807c5.96641,0.22201 10.63689,4.87018 10.43179,10.38202z" fill="#b9e6a9"/><path d="M251.40861,151.20024c-0.21355,5.73912 -3.56508,10.27336 -7.48589,10.12746c-3.92081,-0.1459 -6.9261,-4.91665 -6.71255,-10.65577c0.21355,-5.73912 3.56508,-10.27333 7.48589,-10.12745c3.92081,0.1459 6.9261,4.91664 6.71255,10.65575z" fill="#b9e6a9"/><path d="M246.32181,150.06007c2.60871,6.6953 1.20285,13.49467 -3.14004,15.18679c-4.34289,1.69212 -9.97828,-2.36374 -12.58696,-9.05902c-2.60871,-6.6953 -1.20285,-13.49467 3.14004,-15.18679c4.34289,-1.69212 9.97828,2.36374 12.58696,9.05902z" fill="#b9e6a9"/><path d="M230.58233,157.1222c-0.15647,4.20491 -3.04714,7.51082 -6.45654,7.38396c-3.40939,-0.12686 -6.04639,-3.63845 -5.88992,-7.84336c0.15647,-4.20491 3.04713,-7.5108 6.45652,-7.38393c3.40939,0.12686 6.0464,3.63844 5.88994,7.84335z" fill="#b9e6a9"/><path d="M239.08702,161.14779c-0.17336,4.65948 -4.18331,8.29276 -8.95644,8.11516c-4.77314,-0.17759 -8.50198,-4.09883 -8.32861,-8.75833c0.17336,-4.65948 4.18332,-8.29278 8.95644,-8.11517c4.77314,0.17759 8.50195,4.09885 8.32859,8.75834z" fill="#b9e6a9"/><path d="M226.16918,159.43074c-0.10995,2.95479 -2.91687,5.24902 -6.26942,5.12427c-3.35257,-0.12474 -5.98122,-2.62123 -5.87128,-5.57602c0.10995,-2.95479 2.91687,-5.24901 6.26942,-5.12423c3.35257,0.12474 5.98122,2.62121 5.87128,5.576z" fill="#b9e6a9"/><path d="M236.57276,156.72693c-0.68188,-0.02537 -1.23294,-0.092 -1.23082,-0.14881c0.00212,-0.05681 0.55661,-0.08233 1.23847,-0.05695c0.68188,0.02537 1.23294,0.09202 1.23082,0.14883c-0.00212,0.05681 -0.55659,0.0823 -1.23847,0.05694z" fill="#b9e6a9"/><path d="M232.17779,164.08459c-0.15012,4.03443 -4.50973,7.14729 -9.73744,6.95279c-5.22772,-0.19452 -9.34394,-3.62275 -9.19381,-7.65721c0.15012,-4.03443 4.50973,-7.14729 9.73744,-6.95279c5.22772,0.19452 9.34392,3.62278 9.19381,7.65721z" fill="#b9e6a9"/><path d="M228.04987,169.80368c-0.18184,4.88677 -4.15254,8.70602 -8.86888,8.53053c-4.71631,-0.17549 -8.39224,-4.27927 -8.21042,-9.16603c0.18184,-4.88677 4.15257,-8.70603 8.8689,-8.53054c4.71631,0.17549 8.39221,4.27927 8.21039,9.16606z" fill="#b9e6a9"/><path d="M224.16502,180.06512c-0.15435,4.14808 -3.36577,7.39594 -7.17291,7.25428c-3.80714,-0.14165 -6.76831,-3.6192 -6.61397,-7.76729c0.15435,-4.14808 3.36576,-7.39592 7.17291,-7.25425c3.80714,0.14165 6.76831,3.61919 6.61396,7.76727z" fill="#b9e6a9"/><path d="M229.87501,192.74418c-0.18607,5.00043 -4.02204,8.91691 -8.56788,8.74776c-4.54584,-0.16915 -8.08012,-4.35991 -7.89407,-9.36031c0.18607,-5.00043 4.02202,-8.91694 8.56786,-8.7478c4.54584,0.16915 8.08014,4.35993 7.89408,9.36033z" fill="#b9e6a9"/><path d="M291.10963,159.92785c3.84465,4.82263 2.61337,12.19836 -2.75011,16.47418c-5.36347,4.27582 -12.82814,3.83254 -16.67277,-0.99009c-3.84465,-4.82263 -2.61338,-12.19838 2.75011,-16.4742c5.36347,-4.27582 12.82814,-3.83254 16.67279,0.9901z" fill="#ffffff"/><path d="M280.50465,178.24808c6.94565,2.81212 10.82258,9.42296 8.65942,14.76577c-2.16317,5.34279 -9.54729,7.39432 -16.49292,4.5822c-6.94563,-2.81212 -10.82258,-9.42296 -8.65942,-14.76577c2.16317,-5.34279 9.54729,-7.39432 16.49292,-4.5822z" fill="#ffffff"/><path d="M279.20853,186.39251c5.77063,2.48477 8.69307,8.57623 6.52743,13.60571c-2.16564,5.02945 -8.59924,7.09231 -14.36987,4.60754c-5.77063,-2.48477 -8.69305,-8.57626 -6.52745,-13.60571c2.16564,-5.02945 8.59925,-7.09231 14.36989,-4.60752z" fill="#ffffff"/><path d="M273.21854,194.74583c3.84465,4.82263 3.93462,11.14505 0.20096,14.12156c-3.73365,2.97649 -9.87705,1.47991 -13.72169,-3.34272c-3.84465,-4.82263 -3.93463,-11.14505 -0.20098,-14.12156c3.73365,-2.97649 9.87707,-1.47991 13.7217,3.34272z" fill="#ffffff"/><path d="M261.82373,197.7294c5.32206,1.71373 8.50499,6.61676 7.10927,10.95122c-1.39572,4.33446 -6.84154,6.45897 -12.1636,4.74523c-5.32206,-1.71373 -8.50498,-6.61674 -7.10926,-10.9512c1.39572,-4.33446 6.84154,-6.45897 12.16359,-4.74525z" fill="#ffffff"/><path d="M262.67502,143.84473c5.80829,4.37815 8.10957,11.12097 5.14003,15.06052c-2.96952,3.93953 -10.08537,3.58398 -15.89366,-0.79417c-5.80829,-4.37815 -8.10957,-11.12097 -5.14003,-15.06052c2.96952,-3.93953 10.08537,-3.58398 15.89366,0.79417z" fill="#ffffff"/><path d="M253.54775,145.29201c3.55719,4.46207 3.22555,10.64253 -0.74071,13.80448c-3.96628,3.16194 -10.06524,2.108 -13.62243,-2.35405c-3.55719,-4.46207 -3.22555,-10.64253 0.74071,-13.80448c3.96628,-3.16194 10.06524,-2.10802 13.62243,2.35405z" fill="#ffffff"/><path d="M249.30865,146.00195c3.48533,4.37191 2.47431,10.97448 -2.25817,14.74725c-4.73249,3.77277 -11.39433,3.28709 -14.87966,-1.08482c-3.48533,-4.37191 -2.47429,-10.97449 2.25818,-14.74727c4.73249,-3.77277 11.39432,-3.28709 14.87965,1.08484z" fill="#ffffff"/><path d="M237.98274,154.23023c3.62905,4.55221 4.04989,10.25232 0.93997,12.73157c-3.10992,2.47925 -8.57292,0.79879 -12.20197,-3.75341c-3.62905,-4.55221 -4.04991,-10.25232 -0.93999,-12.73157c3.10992,-2.47925 8.57294,-0.79881 12.20199,3.7534z" fill="#ffffff"/><path d="M233.31949,156.71595c6.43019,3.42179 9.84358,9.5769 7.62404,13.74783c-2.21952,4.17093 -9.23153,4.77823 -15.66169,1.35646c-6.43019,-3.42179 -9.84358,-9.5769 -7.62404,-13.74783c2.21952,-4.17093 9.23153,-4.77823 15.66169,-1.35646z" fill="#ffffff"/><path d="M225.8898,172.54662c2.65892,3.33527 2.62213,7.78673 -0.08214,9.9426c-2.70427,2.15587 -7.052,1.19978 -9.7109,-2.13549c-2.65892,-3.33527 -2.62213,-7.78673 0.08214,-9.9426c2.70427,-2.15587 7.052,-1.19978 9.7109,2.13549z" fill="#ffffff"/><path d="M235.08709,170.01959c2.94636,3.69585 2.26571,9.13867 -1.52029,12.15689c-3.78598,3.01822 -9.24363,2.46891 -12.18999,-1.22694c-2.94636,-3.69585 -2.26571,-9.13867 1.52029,-12.15689c3.78598,-3.01822 9.24363,-2.4689 12.18999,1.22694z" fill="#ffffff"/><path d="M224.02367,177.23775c1.86843,2.34369 1.22735,5.96221 -1.43183,8.08216c-2.6592,2.11993 -6.32958,1.93854 -8.19799,-0.40516c-1.86843,-2.34369 -1.22737,-5.96221 1.43183,-8.08216c2.6592,-2.11993 6.32958,-1.93854 8.19799,0.40516z" fill="#ffffff"/><path d="M230.23276,168.28353c-0.54086,0.43118 -1.00843,0.74416 -1.04435,0.69911c-0.03592,-0.04507 0.3734,-0.43115 0.91425,-0.86232c0.54086,-0.43118 1.00844,-0.74418 1.04437,-0.69911c0.03592,0.04507 -0.3734,0.43115 -0.91426,0.86232z" fill="#ffffff"/><path d="M231.71774,176.84338c2.55112,3.20006 1.25777,8.47398 -2.8888,11.77967c-4.14656,3.30567 -9.57609,3.39129 -12.1272,0.19123c-2.55112,-3.20006 -1.25777,-8.47398 2.8888,-11.77967c4.14656,-3.30567 9.57609,-3.39129 12.1272,-0.19123z" fill="#ffffff"/><path d="M232.32499,183.9673c3.09008,3.87612 2.56247,9.43597 -1.17845,12.41827c-3.74091,2.98228 -9.27854,2.25769 -12.36862,-1.61843c-3.09008,-3.87612 -2.56247,-9.43599 1.17843,-12.41827c3.74091,-2.98228 9.27854,-2.25769 12.36864,1.61845z" fill="#ffffff"/><path d="M236.12126,194.42182c2.62298,3.2902 2.30131,7.90902 -0.71845,10.31641c-3.01977,2.40738 -7.59413,1.69174 -10.21711,-1.59848c-2.62298,-3.2902 -2.30131,-7.90902 0.71845,-10.31641c3.01977,-2.40738 7.59413,-1.69174 10.21711,1.59848z" fill="#ffffff"/><path d="M248.88995,200.39293c3.16194,3.96628 2.80219,9.51181 -0.8035,12.3863c-3.60571,2.8745 -9.09196,1.98943 -12.25389,-1.97683c-3.16194,-3.96628 -2.80221,-9.5118 0.80349,-12.38628c3.60571,-2.8745 9.09197,-1.98943 12.2539,1.97681z" fill="#ffffff"/><path d="M246.23353,184.39965c6.43019,3.42179 9.84358,9.5769 7.62404,13.74783c-2.21952,4.17093 -9.23153,4.77823 -15.66169,1.35646c-6.43019,-3.42179 -9.84358,-9.5769 -7.62404,-13.74783c2.21952,-4.17093 9.23153,-4.77823 15.66169,-1.35646z" fill="#ffffff"/><path d="M259.88174,178.75126c6.94565,2.81212 10.82258,9.42296 8.65942,14.76577c-2.16317,5.34279 -9.54729,7.39432 -16.49292,4.5822c-6.94563,-2.81212 -10.82258,-9.42296 -8.65942,-14.76577c2.16317,-5.34279 9.54729,-7.39432 16.49292,-4.5822z" fill="#ffffff"/><path d="M254.21776,157.4632c3.84465,4.82263 2.61337,12.19836 -2.75011,16.47418c-5.36347,4.27582 -12.82814,3.83254 -16.67277,-0.99009c-3.84465,-4.82263 -2.61338,-12.19838 2.75011,-16.4742c5.36347,-4.27582 12.82814,-3.83254 16.67279,0.9901z" fill="#ffffff"/><path d="M279.06021,170.2985c2.55112,3.20006 1.25777,8.47398 -2.8888,11.77967c-4.14656,3.30567 -9.57609,3.39129 -12.1272,0.19123c-2.55112,-3.20006 -1.25777,-8.47398 2.8888,-11.77967c4.14656,-3.30567 9.57609,-3.39129 12.1272,-0.19123z" fill="#ffffff"/></g></g></svg>