<svg version="1.1" xmlns="http://www.w3.org/2000/svg" xmlns:xlink="http://www.w3.org/1999/xlink" width="42.72843" height="42.72843" viewBox="0,0,42.72843,42.72843"><defs><radialGradient cx="240" cy="180" r="21.36421" gradientUnits="userSpaceOnUse" id="color-1"><stop offset="0" stop-color="#d6edff" stop-opacity="0.49804"/><stop offset="1" stop-color="#d6edff" stop-opacity="0"/></radialGradient><radialGradient cx="240.00002" cy="180.00002" r="8.67801" gradientUnits="userSpaceOnUse" id="color-2"><stop offset="0" stop-color="#ffffff"/><stop offset="1" stop-color="#f6feff"/></radialGradient><radialGradient cx="240.00002" cy="180.00002" r="8.67801" gradientUnits="userSpaceOnUse" id="color-3"><stop offset="0" stop-color="#ffffff"/><stop offset="1" stop-color="#4dd7ef"/></radialGradient></defs><g transform="translate(-218.63579,-158.63579)"><g data-paper-data="{&quot;isPaintingLayer&quot;:true}" fill-rule="nonzero" stroke-linecap="butt" stroke-linejoin="miter" stroke-miterlimit="10" stroke-dasharray="" stroke-dashoffset="0" style="mix-blend-mode: normal"><path d="M218.63579,180c0,-11.79913 9.56509,-21.36421 21.36421,-21.36421c11.79913,0 21.36421,9.56509 21.36421,21.36421c0,11.79913 -9.56509,21.36421 -21.36421,21.36421c-11.79913,0 -21.36421,-9.56509 -21.36421,-21.36421z" fill="url(#color-1)" stroke="none" stroke-width="0"/><path d="M231.32201,180.00002c0,-4.79273 3.88528,-8.67801 8.67801,-8.67801c4.79273,0 8.67801,3.88528 8.67801,8.67801c0,4.79273 -3.88528,8.67801 -8.67801,8.67801c-4.79273,0 -8.67801,-3.88528 -8.67801,-8.67801z" fill="url(#color-2)" stroke="url(#color-3)" stroke-width="1.5"/></g></g></svg>