<svg width="1367" height="392" xmlns="http://www.w3.org/2000/svg"><g fill="#9E9E9E" fill-rule="evenodd"><path d="M1343.486 185.528c-12.659-6.212-23.244-14.26-31.155-21.346 14.851 4.098 33.748 8.884 25.036 4.093-11.347-6.231-20.8-14.324-27.79-21.372 12.788 4.058 29.202 8.843 21.66 4.12-9.953-6.242-18.225-14.368-24.294-21.367 10.715 4.01 24.505 8.759 18.176 4.114-8.492-6.235-15.542-14.37-20.66-21.303 8.623 3.951 19.629 8.593 14.541 4.05-6.94-6.19-12.698-14.272-16.864-21.11 6.51 3.86 14.561 8.25 10.746 3.857C1301.615 86.31 1294.345 65 1294.345 65s-6.169 21.652-16.754 35.164c-3.595 4.582 4.226-.212 10.525-4.4-3.806 7.04-9.153 15.406-15.763 21.942-4.847 4.797 5.909-.4 14.32-4.785-4.766 7.185-11.386 15.668-19.547 22.327-6.09 4.962 7.44-.483 17.936-5.035-5.699 7.3-13.55 15.837-23.174 22.579-7.28 5.101 8.863-.515 21.431-5.22-6.63 7.396-15.653 15.96-26.658 22.762-8.463 5.228 10.164-.515 24.785-5.365-7.53 7.48-17.705 16.058-30.023 22.907-15.162 8.43 45.786-10.952 45.786-10.952s61.849 16.25 46.277 8.604"/><path d="M1304.486 170.529c-12.658-6.213-23.254-14.262-31.155-21.347 14.841 4.098 33.749 8.884 25.026 4.094-11.336-6.231-20.79-14.325-27.79-21.373 12.798 4.057 29.212 8.844 21.671 4.12-9.954-6.241-18.236-14.368-24.295-21.368 10.716 4.011 24.506 8.76 18.176 4.115-8.492-6.235-15.542-14.37-20.67-21.303 8.633 3.951 19.639 8.593 14.552 4.05-6.94-6.19-12.699-14.272-16.865-21.11 6.51 3.861 14.561 8.25 10.736 3.857C1262.606 71.31 1255.345 50 1255.345 50s-6.169 21.653-16.764 35.165c-3.585 4.58 4.236-.213 10.525-4.4-3.805 7.04-9.143 15.406-15.752 21.942-4.857 4.796 5.898-.4 14.31-4.786-4.757 7.186-11.376 15.669-19.548 22.328-6.079 4.961 7.45-.484 17.946-5.035-5.698 7.3-13.55 15.836-23.173 22.577-7.291 5.102 8.862-.514 21.43-5.218-6.63 7.395-15.652 15.96-26.668 22.76-8.462 5.229 10.175-.514 24.796-5.363-7.541 7.479-17.706 16.057-30.024 22.906-15.161 8.43 45.776-10.952 45.776-10.952s61.86 16.25 46.287 8.605"/><path d="M1277.486 185.528c-12.658-6.212-23.254-14.26-31.155-21.346 14.841 4.098 33.749 8.884 25.026 4.093-11.336-6.231-20.79-14.324-27.79-21.372 12.798 4.058 29.202 8.843 21.671 4.12-9.954-6.242-18.236-14.368-24.295-21.367 10.716 4.01 24.506 8.759 18.176 4.114-8.492-6.235-15.542-14.37-20.67-21.303 8.633 3.951 19.639 8.593 14.542 4.05-6.93-6.19-12.689-14.272-16.855-21.11 6.5 3.86 14.561 8.25 10.736 3.857C1235.606 86.31 1228.345 65 1228.345 65s-6.169 21.652-16.764 35.164c-3.585 4.582 4.226-.212 10.525-4.4-3.805 7.04-9.143 15.406-15.752 21.942-4.857 4.797 5.898-.4 14.31-4.785-4.757 7.185-11.386 15.668-19.548 22.327-6.079 4.962 7.44-.483 17.946-5.035-5.698 7.3-13.55 15.837-23.173 22.579-7.291 5.101 8.862-.515 21.43-5.22-6.63 7.396-15.662 15.96-26.668 22.762-8.462 5.228 10.175-.515 24.796-5.365-7.541 7.48-17.706 16.058-30.024 22.907-15.161 8.43 45.776-10.952 45.776-10.952s61.86 16.25 46.287 8.604"/><path d="M1268.486 172.529c-12.658-6.213-23.244-14.262-31.155-21.346 14.841 4.098 33.749 8.883 25.036 4.093-11.346-6.231-20.8-14.325-27.79-21.372 12.788 4.057 29.202 8.843 21.661 4.118-9.954-6.24-18.226-14.367-24.295-21.367 10.716 4.011 24.506 8.76 18.176 4.115-8.492-6.235-15.542-14.368-20.66-21.303 8.623 3.951 19.629 8.593 14.542 4.05-6.94-6.19-12.699-14.272-16.865-21.11 6.51 3.861 14.561 8.25 10.746 3.857C1226.606 73.311 1219.345 52 1219.345 52s-6.169 21.653-16.764 35.165c-3.585 4.582 4.236-.213 10.535-4.4-3.815 7.04-9.153 15.406-15.762 21.942-4.857 4.796 5.908-.4 14.32-4.785-4.767 7.185-11.386 15.668-19.548 22.327-6.089 4.961 7.44-.483 17.936-5.035-5.698 7.3-13.55 15.837-23.173 22.577-7.281 5.103 8.862-.514 21.43-5.218-6.63 7.395-15.652 15.96-26.658 22.76-8.472 5.23 10.165-.514 24.786-5.363-7.541 7.479-17.706 16.057-30.024 22.906-15.161 8.43 45.776-10.952 45.776-10.952s61.86 16.25 46.287 8.605"/><path d="M1239.486 187.528c-12.658-6.212-23.244-14.26-31.155-21.346 14.841 4.098 33.749 8.884 25.026 4.093-11.336-6.231-20.79-14.324-27.79-21.372 12.798 4.058 29.212 8.843 21.671 4.12-9.954-6.242-18.226-14.368-24.295-21.367 10.716 4.01 24.506 8.759 18.176 4.114-8.492-6.235-15.542-14.37-20.66-21.304 8.623 3.952 19.629 8.594 14.542 4.05-6.94-6.19-12.699-14.271-16.865-21.11 6.51 3.861 14.561 8.25 10.736 3.858C1197.606 88.31 1190.345 67 1190.345 67s-6.169 21.652-16.764 35.164c-3.585 4.582 4.236-.212 10.525-4.4-3.805 7.04-9.143 15.406-15.752 21.942-4.857 4.797 5.898-.4 14.31-4.785-4.757 7.185-11.376 15.668-19.548 22.327-6.079 4.962 7.45-.483 17.946-5.035-5.698 7.3-13.55 15.837-23.173 22.579-7.291 5.101 8.862-.516 21.43-5.22-6.63 7.396-15.652 15.96-26.668 22.762-8.462 5.228 10.175-.515 24.796-5.365-7.541 7.479-17.706 16.058-30.024 22.907-15.161 8.43 45.776-10.952 45.776-10.952s61.86 16.25 46.287 8.604"/><path d="M1219.486 211.528c-12.659-6.212-23.244-14.26-31.155-21.346 14.851 4.098 33.748 8.884 25.036 4.093-11.347-6.231-20.8-14.324-27.79-21.372 12.788 4.058 29.202 8.843 21.66 4.12-9.953-6.242-18.225-14.368-24.294-21.367 10.715 4.01 24.505 8.759 18.176 4.114-8.492-6.235-15.542-14.37-20.66-21.304 8.623 3.952 19.629 8.594 14.541 4.05-6.94-6.19-12.698-14.271-16.864-21.11 6.51 3.861 14.561 8.25 10.746 3.858C1177.615 112.31 1170.345 91 1170.345 91s-6.169 21.652-16.754 35.164c-3.595 4.582 4.226-.212 10.525-4.4-3.816 7.04-9.153 15.406-15.763 21.942-4.847 4.797 5.909-.4 14.32-4.785-4.766 7.185-11.386 15.668-19.547 22.327-6.09 4.962 7.44-.483 17.936-5.035-5.699 7.3-13.55 15.837-23.174 22.579-7.28 5.101 8.863-.516 21.431-5.22-6.63 7.396-15.653 15.96-26.658 22.762-8.463 5.228 10.164-.515 24.785-5.365-7.53 7.479-17.705 16.058-30.023 22.907-15.162 8.43 45.786-10.952 45.786-10.952s61.849 16.25 46.277 8.604"/><path d="M1209.486 191.529c-12.649-6.213-23.244-14.262-31.155-21.347 14.851 4.098 33.748 8.884 25.036 4.094-11.347-6.231-20.8-14.325-27.79-21.373 12.788 4.057 29.202 8.844 21.67 4.12-9.963-6.241-18.235-14.368-24.304-21.368 10.725 4.011 24.505 8.76 18.176 4.114-8.492-6.234-15.542-14.368-20.66-21.302 8.623 3.951 19.629 8.593 14.541 4.05-6.94-6.19-12.698-14.272-16.854-21.11 6.5 3.861 14.551 8.25 10.736 3.857C1167.615 92.31 1160.345 71 1160.345 71s-6.169 21.653-16.754 35.165c-3.595 4.58 4.226-.213 10.525-4.4-3.806 7.04-9.143 15.406-15.763 21.942-4.847 4.796 5.909-.4 14.32-4.786-4.766 7.186-11.386 15.668-19.547 22.328-6.09 4.961 7.44-.484 17.946-5.035-5.709 7.3-13.56 15.836-23.184 22.577-7.28 5.102 8.863-.514 21.431-5.218-6.62 7.395-15.653 15.96-26.658 22.76-8.463 5.229 10.174-.514 24.785-5.363-7.53 7.479-17.695 16.057-30.023 22.906-15.162 8.43 45.786-10.952 45.786-10.952s61.849 16.25 46.277 8.605"/><path d="M1180.486 204.528c-12.659-6.212-23.244-14.261-31.155-21.346 14.851 4.098 33.748 8.884 25.036 4.094-11.347-6.232-20.8-14.325-27.79-21.373 12.788 4.057 29.202 8.844 21.66 4.12-9.953-6.242-18.225-14.368-24.294-21.368 10.715 4.011 24.505 8.76 18.176 4.114-8.492-6.235-15.542-14.368-20.66-21.302 8.623 3.951 19.629 8.592 14.541 4.05-6.94-6.19-12.698-14.272-16.864-21.11 6.51 3.861 14.561 8.25 10.746 3.857C1138.615 105.31 1131.345 84 1131.345 84s-6.169 21.653-16.754 35.164c-3.595 4.582 4.226-.213 10.525-4.4-3.816 7.04-9.153 15.406-15.763 21.943-4.847 4.796 5.909-.401 14.32-4.786-4.766 7.185-11.386 15.668-19.547 22.328-6.09 4.96 7.44-.484 17.936-5.036-5.699 7.3-13.55 15.837-23.174 22.578-7.28 5.102 8.863-.514 21.431-5.22-6.63 7.396-15.653 15.961-26.658 22.763-8.463 5.228 10.164-.516 24.785-5.365-7.53 7.48-17.705 16.058-30.023 22.907-15.162 8.43 45.786-10.952 45.786-10.952s61.849 16.25 46.277 8.604"/><path d="M1147.486 199.529c-12.659-6.213-23.244-14.262-31.155-21.347 14.851 4.098 33.748 8.884 25.036 4.094-11.347-6.231-20.8-14.325-27.79-21.373 12.788 4.057 29.202 8.844 21.67 4.12-9.963-6.241-18.235-14.368-24.304-21.368 10.725 4.011 24.505 8.76 18.176 4.114-8.492-6.234-15.542-14.368-20.66-21.302 8.623 3.951 19.629 8.593 14.541 4.05-6.94-6.19-12.698-14.272-16.854-21.11 6.5 3.861 14.551 8.25 10.736 3.857C1105.615 100.31 1098.345 79 1098.345 79s-6.169 21.653-16.754 35.165c-3.595 4.58 4.226-.213 10.525-4.4-3.806 7.04-9.153 15.406-15.763 21.942-4.847 4.796 5.909-.4 14.32-4.786-4.766 7.186-11.386 15.668-19.547 22.328-6.09 4.961 7.44-.484 17.946-5.035-5.709 7.3-13.56 15.836-23.184 22.577-7.28 5.102 8.863-.514 21.431-5.218-6.62 7.395-15.653 15.96-26.658 22.76-8.463 5.229 10.174-.514 24.785-5.363-7.53 7.479-17.695 16.057-30.023 22.906-15.162 8.43 45.786-10.952 45.786-10.952s61.849 16.25 46.277 8.605"/><path d="M1124.485 204.528c-12.649-6.212-23.245-14.261-31.157-21.346 14.853 4.098 33.761 8.884 25.038 4.094-11.337-6.232-20.791-14.325-27.792-21.373 12.79 4.057 29.204 8.844 21.673 4.12-9.955-6.242-18.238-14.368-24.307-21.368 10.726 4.011 24.507 8.76 18.178 4.114-8.493-6.235-15.534-14.368-20.662-21.302 8.623 3.951 19.64 8.592 14.542 4.05-6.93-6.19-12.699-14.272-16.855-21.11 6.5 3.861 14.552 8.25 10.736 3.857C1082.612 105.31 1075.341 84 1075.341 84s-6.17 21.653-16.755 35.164c-3.596 4.582 4.226-.213 10.526-4.4-3.806 7.04-9.144 15.406-15.764 21.943-4.847 4.796 5.909-.401 14.322-4.786-4.758 7.185-11.388 15.668-19.55 22.328-6.08 4.96 7.441-.484 17.947-5.036-5.709 7.3-13.55 15.837-23.185 22.578-7.28 5.102 8.863-.514 21.432-5.22-6.62 7.396-15.653 15.961-26.66 22.763-8.463 5.228 10.176-.516 24.788-5.365-7.532 7.48-17.697 16.058-30.016 22.907-15.173 8.43 45.78-10.952 45.78-10.952s61.853 16.25 46.28 8.604"/><path d="M1104.486 203.528c-12.649-6.212-23.244-14.261-31.155-21.346 14.851 4.098 33.758 8.884 25.036 4.094-11.337-6.232-20.8-14.325-27.79-21.373 12.788 4.057 29.202 8.844 21.67 4.12-9.963-6.241-18.235-14.368-24.304-21.368 10.725 4.011 24.505 8.76 18.176 4.114-8.492-6.234-15.542-14.368-20.66-21.302 8.623 3.951 19.639 8.592 14.541 4.05-6.94-6.19-12.698-14.272-16.854-21.11 6.5 3.861 14.551 8.25 10.736 3.857C1062.615 104.31 1055.345 83 1055.345 83s-6.169 21.653-16.754 35.165c-3.595 4.58 4.226-.213 10.525-4.4-3.806 7.04-9.143 15.406-15.763 21.942-4.847 4.796 5.909-.4 14.32-4.786-4.756 7.186-11.386 15.668-19.547 22.328-6.079 4.961 7.44-.484 17.946-5.035-5.709 7.3-13.55 15.836-23.184 22.577-7.28 5.102 8.863-.514 21.431-5.22-6.62 7.397-15.653 15.961-26.658 22.763-8.463 5.228 10.174-.515 24.785-5.365-7.53 7.48-17.695 16.058-30.023 22.907-15.162 8.43 45.786-10.952 45.786-10.952s61.849 16.25 46.277 8.604"/><path d="M1067.483 214.529c-12.649-6.213-23.245-14.262-31.146-21.347 14.842 4.098 33.75 8.885 25.027 4.093-11.337-6.23-20.79-14.323-27.791-21.372 12.799 4.058 29.203 8.843 21.672 4.12-9.955-6.242-18.237-14.368-24.306-21.368 10.726 4.01 24.506 8.76 18.187 4.115-8.493-6.235-15.543-14.369-20.67-21.303 8.632 3.95 19.638 8.593 14.54 4.05-6.93-6.191-12.688-14.273-16.854-21.11 6.5 3.86 14.561 8.25 10.736 3.856C1025.61 115.31 1018.35 94 1018.35 94s-6.169 21.652-16.764 35.164c-3.596 4.582 4.226-.212 10.525-4.4-3.806 7.041-9.143 15.406-15.753 21.942-4.856 4.797 5.899-.4 14.311-4.785-4.757 7.185-11.387 15.668-19.548 22.328-6.082 4.961 7.44-.484 17.946-5.036-5.699 7.3-13.55 15.838-23.179 22.578-7.284 5.102 8.867-.514 21.436-5.218-6.63 7.395-15.66 15.96-26.668 22.76-8.463 5.23 10.173-.514 24.795-5.363-7.54 7.478-17.707 16.057-30.027 22.906-15.164 8.43 45.78-10.952 45.78-10.952s61.862 16.25 46.279 8.605"/><path d="M1034.485 220.528c-12.648-6.212-23.244-14.262-31.156-21.346 14.852 4.098 33.76 8.884 25.037 4.093-11.336-6.231-20.79-14.324-27.79-21.372 12.788 4.058 29.202 8.843 21.671 4.12-9.954-6.242-18.237-14.368-24.306-21.368 10.726 4.01 24.507 8.759 18.177 4.115-8.492-6.235-15.533-14.37-20.66-21.304 8.622 3.951 19.639 8.594 14.541 4.05-6.93-6.19-12.699-14.272-16.855-21.11 6.5 3.861 14.552 8.25 10.736 3.858C992.613 121.31 985.347 100 985.347 100s-6.17 21.652-16.76 35.164c-3.592 4.582 4.229-.212 10.526-4.4-3.807 7.04-9.147 15.406-15.759 21.942-4.852 4.796 5.904-.4 14.317-4.785-4.76 7.185-11.386 15.668-19.55 22.327-6.082 4.962 7.444-.483 17.945-5.035-5.702 7.3-13.552 15.837-23.177 22.578-7.284 5.102 8.863-.515 21.431-5.219-6.627 7.396-15.655 15.96-26.663 22.76-8.464 5.23 10.172-.513 24.79-5.363-7.536 7.479-17.703 16.058-30.023 22.907-15.165 8.43 45.782-10.952 45.782-10.952s61.853 16.25 46.28 8.604"/><path d="M996.483 235.528c-12.65-6.212-23.243-14.26-31.15-21.346 14.847 4.098 33.754 8.884 25.033 4.094-11.342-6.232-20.796-14.325-27.792-21.373 12.793 4.058 29.206 8.844 21.67 4.12-9.957-6.242-18.233-14.368-24.3-21.367 10.72 4.01 24.505 8.759 18.178 4.114-8.494-6.235-15.542-14.37-20.665-21.303 8.627 3.951 19.634 8.593 14.544 4.05-6.938-6.19-12.698-14.272-16.86-21.11 6.503 3.861 14.558 8.25 10.738 3.857C954.612 136.31 947.345 115 947.345 115s-6.168 21.653-16.758 35.164c-3.592 4.582 4.229-.212 10.525-4.4-3.807 7.04-9.146 15.406-15.758 21.943-4.852 4.796 5.904-.401 14.317-4.786-4.761 7.185-11.386 15.668-19.55 22.328-6.082 4.96 7.443-.484 17.945-5.036-5.702 7.3-13.552 15.837-23.178 22.579-7.284 5.101 8.862-.515 21.432-5.22-6.627 7.396-15.656 15.96-26.664 22.762-8.463 5.228 10.173-.515 24.791-5.365-7.536 7.48-17.703 16.058-30.023 22.907-15.164 8.43 45.781-10.952 45.781-10.952s61.86 16.25 46.278 8.604"/><path d="M963.485 220.528c-12.654-6.212-23.245-14.262-31.154-21.346 14.847 4.098 33.752 8.884 25.032 4.093-11.34-6.231-20.795-14.324-27.79-21.372 12.793 4.058 29.204 8.843 21.67 4.12-9.957-6.242-18.234-14.368-24.3-21.368 10.72 4.01 24.505 8.759 18.178 4.115-8.494-6.235-15.543-14.37-20.664-21.304 8.626 3.951 19.633 8.594 14.542 4.05-6.937-6.19-12.697-14.272-16.859-21.11 6.504 3.861 14.558 8.25 10.738 3.858C921.61 121.31 914.345 100 914.345 100s-6.168 21.652-16.76 35.164c-3.59 4.582 4.23-.212 10.527-4.4-3.807 7.04-9.146 15.406-15.758 21.942-4.852 4.796 5.904-.4 14.316-4.785-4.761 7.185-11.385 15.668-19.549 22.327-6.081 4.962 7.443-.483 17.944-5.035-5.7 7.3-13.551 15.837-23.176 22.578-7.285 5.102 8.862-.515 21.43-5.219-6.627 7.396-15.655 15.96-26.663 22.76-8.463 5.23 10.173-.513 24.791-5.363-7.537 7.479-17.703 16.058-30.023 22.907-15.163 8.43 45.781-10.952 45.781-10.952s61.854 16.25 46.28 8.604"/><path d="M963.485 220.528c-12.654-6.212-23.245-14.262-31.154-21.346 14.847 4.098 33.752 8.884 25.032 4.093-11.34-6.231-20.795-14.324-27.79-21.372 12.793 4.058 29.204 8.843 21.67 4.12-9.957-6.242-18.234-14.368-24.3-21.368 10.72 4.01 24.505 8.759 18.178 4.115-8.494-6.235-15.543-14.37-20.664-21.304 8.626 3.951 19.633 8.594 14.542 4.05-6.937-6.19-12.697-14.272-16.859-21.11 6.504 3.861 14.558 8.25 10.738 3.858C921.61 121.31 914.345 100 914.345 100s-6.168 21.652-16.76 35.164c-3.59 4.582 4.23-.212 10.527-4.4-3.807 7.04-9.146 15.406-15.758 21.942-4.852 4.796 5.904-.4 14.316-4.785-4.761 7.185-11.385 15.668-19.549 22.327-6.081 4.962 7.443-.483 17.944-5.035-5.7 7.3-13.551 15.837-23.176 22.578-7.285 5.102 8.862-.515 21.43-5.219-6.627 7.396-15.655 15.96-26.663 22.76-8.463 5.23 10.173-.513 24.791-5.363-7.537 7.479-17.703 16.058-30.023 22.907-15.163 8.43 45.781-10.952 45.781-10.952s61.854 16.25 46.28 8.604"/><path d="M937.485 253.528c-12.654-6.212-23.245-14.262-31.154-21.346 14.847 4.098 33.751 8.884 25.032 4.093-11.34-6.231-20.795-14.324-27.79-21.372 12.793 4.058 29.205 8.843 21.669 4.12-9.957-6.242-18.233-14.368-24.3-21.368 10.72 4.01 24.506 8.76 18.179 4.115-8.494-6.235-15.543-14.37-20.664-21.304 8.625 3.951 19.633 8.594 14.542 4.05-6.937-6.19-12.697-14.272-16.859-21.11 6.503 3.861 14.558 8.25 10.738 3.858C895.61 154.31 888.345 133 888.345 133s-6.169 21.652-16.76 35.164c-3.59 4.582 4.23-.212 10.527-4.4-3.807 7.04-9.146 15.406-15.759 21.942-4.852 4.796 5.904-.4 14.317-4.785-4.761 7.185-11.386 15.668-19.549 22.327-6.081 4.962 7.443-.483 17.944-5.035-5.702 7.3-13.551 15.837-23.176 22.578-7.285 5.102 8.862-.515 21.431-5.219-6.628 7.396-15.656 15.96-26.664 22.76-8.463 5.23 10.173-.513 24.791-5.363-7.537 7.479-17.702 16.058-30.023 22.907-15.163 8.43 45.78-10.952 45.78-10.952s61.855 16.25 46.281 8.604"/><path d="M888.485 267.529c-12.654-6.213-23.245-14.262-31.153-21.346 14.846 4.098 33.75 8.883 25.032 4.093-11.341-6.231-20.795-14.325-27.791-21.372 12.792 4.056 29.205 8.843 21.67 4.118-9.957-6.24-18.233-14.367-24.3-21.367 10.72 4.011 24.505 8.76 18.177 4.115-8.492-6.235-15.541-14.368-20.664-21.303 8.627 3.951 19.634 8.593 14.543 4.05-6.937-6.19-12.697-14.272-16.858-21.11 6.502 3.861 14.557 8.25 10.736 3.857C846.611 168.311 839.344 147 839.344 147s-6.168 21.653-16.758 35.165c-3.591 4.582 4.23-.213 10.525-4.4-3.806 7.04-9.146 15.406-15.758 21.942-4.852 4.796 5.904-.4 14.317-4.786-4.76 7.186-11.385 15.669-19.55 22.328-6.081 4.961 7.444-.483 17.945-5.035-5.701 7.3-13.552 15.837-23.177 22.577-7.284 5.103 8.862-.514 21.431-5.218-6.626 7.395-15.655 15.96-26.663 22.76-8.463 5.23 10.172-.514 24.79-5.363-7.535 7.479-17.702 16.057-30.022 22.906-15.164 8.43 45.78-10.952 45.78-10.952s61.856 16.25 46.281 8.605"/><path d="M909.485 276.529c-12.654-6.213-23.245-14.262-31.153-21.346 14.846 4.098 33.75 8.883 25.032 4.093-11.341-6.231-20.795-14.325-27.791-21.372 12.792 4.056 29.205 8.843 21.67 4.118-9.957-6.24-18.233-14.367-24.3-21.367 10.72 4.011 24.505 8.76 18.177 4.115-8.492-6.235-15.541-14.368-20.664-21.303 8.627 3.951 19.634 8.593 14.543 4.05-6.937-6.19-12.697-14.272-16.858-21.11 6.502 3.861 14.557 8.25 10.736 3.857C867.611 177.311 860.344 156 860.344 156s-6.168 21.653-16.758 35.165c-3.591 4.582 4.23-.213 10.525-4.4-3.806 7.04-9.146 15.406-15.758 21.942-4.852 4.796 5.904-.4 14.317-4.786-4.76 7.186-11.385 15.669-19.55 22.328-6.081 4.961 7.444-.483 17.945-5.035-5.701 7.3-13.552 15.837-23.177 22.577-7.284 5.103 8.862-.514 21.431-5.218-6.626 7.395-15.655 15.96-26.663 22.76-8.463 5.23 10.172-.514 24.79-5.363-7.535 7.479-17.702 16.057-30.022 22.906-15.164 8.43 45.78-10.952 45.78-10.952s61.856 16.25 46.281 8.605"/><path d="M868.485 253.528c-12.654-6.212-23.245-14.262-31.153-21.346 14.846 4.098 33.75 8.884 25.032 4.093-11.341-6.231-20.795-14.324-27.791-21.372 12.792 4.058 29.205 8.843 21.67 4.12-9.957-6.242-18.233-14.368-24.3-21.368 10.72 4.01 24.506 8.76 18.177 4.115-8.492-6.235-15.541-14.37-20.663-21.304 8.626 3.951 19.633 8.594 14.542 4.05-6.937-6.19-12.697-14.272-16.858-21.11 6.502 3.861 14.557 8.25 10.736 3.858C826.611 154.31 819.344 133 819.344 133s-6.168 21.652-16.758 35.164c-3.591 4.582 4.23-.212 10.526-4.4-3.807 7.04-9.147 15.406-15.759 21.942-4.852 4.796 5.904-.4 14.317-4.785-4.76 7.185-11.385 15.668-19.55 22.327-6.081 4.962 7.444-.483 17.945-5.035-5.701 7.3-13.552 15.837-23.177 22.578-7.284 5.102 8.862-.515 21.431-5.219-6.626 7.396-15.655 15.96-26.662 22.76-8.464 5.23 10.171-.513 24.79-5.363-7.536 7.479-17.703 16.058-30.023 22.907-15.164 8.43 45.78-10.952 45.78-10.952s61.856 16.25 46.281 8.604"/><path d="M826.485 249.529c-12.653-6.213-23.245-14.262-31.153-21.347 14.846 4.098 33.75 8.884 25.032 4.094-11.34-6.231-20.795-14.325-27.791-21.373 12.793 4.057 29.205 8.844 21.67 4.12-9.957-6.241-18.233-14.368-24.3-21.368 10.72 4.011 24.506 8.76 18.178 4.115-8.493-6.235-15.542-14.37-20.664-21.303 8.626 3.951 19.633 8.593 14.542 4.05-6.937-6.19-12.697-14.272-16.858-21.11 6.502 3.861 14.558 8.25 10.736 3.857C784.611 150.31 777.345 129 777.345 129s-6.169 21.653-16.759 35.165c-3.591 4.58 4.23-.213 10.526-4.4-3.807 7.04-9.147 15.406-15.759 21.942-4.852 4.796 5.904-.4 14.317-4.786-4.76 7.186-11.385 15.669-19.55 22.328-6.081 4.961 7.445-.484 17.945-5.035-5.701 7.3-13.552 15.836-23.176 22.577-7.284 5.102 8.862-.514 21.43-5.218-6.626 7.395-15.654 15.96-26.662 22.76-8.464 5.229 10.171-.514 24.79-5.363-7.536 7.479-17.703 16.057-30.023 22.906-15.164 8.43 45.78-10.952 45.78-10.952s61.856 16.25 46.281 8.605"/><path d="M810.485 232.528c-12.654-6.212-23.245-14.262-31.154-21.346 14.847 4.098 33.751 8.884 25.032 4.093-11.34-6.231-20.795-14.324-27.79-21.372 12.793 4.058 29.205 8.843 21.669 4.12-9.957-6.242-18.233-14.368-24.3-21.367 10.72 4.01 24.506 8.759 18.179 4.114-8.494-6.235-15.543-14.37-20.664-21.304 8.625 3.951 19.633 8.594 14.542 4.05-6.937-6.19-12.697-14.271-16.859-21.11 6.504 3.861 14.558 8.25 10.738 3.858C768.61 133.31 761.345 112 761.345 112s-6.169 21.652-16.76 35.164c-3.59 4.582 4.23-.212 10.527-4.4-3.807 7.04-9.146 15.406-15.759 21.942-4.852 4.796 5.905-.4 14.317-4.785-4.761 7.185-11.386 15.668-19.549 22.327-6.081 4.962 7.443-.483 17.944-5.035-5.7 7.3-13.551 15.837-23.176 22.578-7.285 5.102 8.862-.515 21.431-5.219-6.628 7.396-15.656 15.96-26.664 22.762-8.463 5.228 10.173-.515 24.791-5.365-7.537 7.479-17.702 16.058-30.023 22.907-15.163 8.43 45.78-10.952 45.78-10.952s61.855 16.25 46.281 8.604"/><path d="M774.485 267.529c-12.654-6.213-23.245-14.262-31.154-21.346 14.847 4.098 33.751 8.883 25.032 4.093-11.34-6.231-20.795-14.325-27.79-21.372 12.793 4.056 29.205 8.843 21.67 4.118-9.958-6.24-18.234-14.367-24.3-21.367 10.72 4.011 24.505 8.76 18.178 4.115-8.494-6.235-15.543-14.368-20.664-21.303 8.625 3.951 19.633 8.593 14.542 4.05-6.937-6.19-12.697-14.272-16.859-21.11 6.504 3.861 14.558 8.25 10.738 3.857C732.61 168.311 725.345 147 725.345 147s-6.169 21.653-16.76 35.165c-3.59 4.582 4.23-.213 10.527-4.4-3.807 7.04-9.146 15.406-15.759 21.942-4.852 4.796 5.905-.4 14.317-4.786-4.761 7.186-11.386 15.669-19.549 22.328-6.081 4.961 7.443-.483 17.944-5.035-5.7 7.3-13.551 15.837-23.176 22.577-7.285 5.103 8.862-.514 21.431-5.218-6.628 7.395-15.656 15.96-26.664 22.76-8.463 5.23 10.173-.514 24.791-5.363-7.537 7.479-17.702 16.057-30.023 22.906-15.163 8.43 45.78-10.952 45.78-10.952s61.855 16.25 46.281 8.605"/><path d="M722.485 273.529c-12.654-6.213-23.245-14.262-31.154-21.347 14.847 4.098 33.751 8.884 25.032 4.094-11.34-6.231-20.795-14.325-27.79-21.373 12.793 4.057 29.205 8.844 21.669 4.12-9.957-6.241-18.233-14.368-24.3-21.368 10.72 4.011 24.506 8.76 18.179 4.115-8.494-6.235-15.543-14.37-20.664-21.303 8.625 3.951 19.632 8.593 14.542 4.05-6.937-6.19-12.698-14.272-16.859-21.11 6.503 3.861 14.558 8.25 10.738 3.857C680.61 174.31 673.345 153 673.345 153s-6.169 21.653-16.76 35.165c-3.59 4.58 4.23-.213 10.527-4.4-3.807 7.04-9.147 15.406-15.759 21.942-4.852 4.796 5.904-.4 14.317-4.786-4.761 7.186-11.386 15.669-19.55 22.328-6.081 4.961 7.444-.484 17.945-5.035-5.702 7.3-13.551 15.836-23.176 22.577-7.285 5.102 8.862-.514 21.43-5.218-6.627 7.395-15.655 15.96-26.663 22.76-8.463 5.229 10.173-.514 24.79-5.363-7.536 7.479-17.701 16.057-30.022 22.906-15.163 8.43 45.78-10.952 45.78-10.952s61.855 16.25 46.281 8.605"/><path d="M742.485 273.529c-12.654-6.213-23.245-14.262-31.154-21.347 14.847 4.098 33.751 8.884 25.032 4.094-11.34-6.231-20.795-14.325-27.79-21.373 12.793 4.057 29.205 8.844 21.669 4.12-9.957-6.241-18.233-14.368-24.3-21.368 10.72 4.011 24.506 8.76 18.179 4.115-8.494-6.235-15.543-14.37-20.664-21.303 8.625 3.951 19.632 8.593 14.542 4.05-6.937-6.19-12.698-14.272-16.859-21.11 6.503 3.861 14.558 8.25 10.738 3.857C700.61 174.31 693.345 153 693.345 153s-6.169 21.653-16.76 35.165c-3.59 4.58 4.23-.213 10.527-4.4-3.807 7.04-9.147 15.406-15.759 21.942-4.852 4.796 5.904-.4 14.317-4.786-4.761 7.186-11.386 15.669-19.55 22.328-6.081 4.961 7.444-.484 17.945-5.035-5.702 7.3-13.551 15.836-23.176 22.577-7.285 5.102 8.862-.514 21.43-5.218-6.627 7.395-15.655 15.96-26.663 22.76-8.463 5.229 10.173-.514 24.79-5.363-7.536 7.479-17.701 16.057-30.022 22.906-15.163 8.43 45.78-10.952 45.78-10.952s61.855 16.25 46.281 8.605"/><path d="M689.485 257.528c-12.653-6.212-23.245-14.261-31.153-21.346 14.846 4.098 33.75 8.884 25.032 4.094-11.34-6.232-20.795-14.325-27.791-21.373 12.792 4.057 29.205 8.844 21.67 4.12-9.957-6.241-18.233-14.368-24.3-21.368 10.72 4.011 24.506 8.76 18.178 4.114-8.493-6.234-15.542-14.368-20.664-21.302 8.626 3.951 19.633 8.593 14.542 4.05-6.937-6.19-12.697-14.272-16.858-21.11 6.502 3.861 14.558 8.25 10.736 3.857C647.611 158.31 640.345 137 640.345 137s-6.169 21.653-16.759 35.165c-3.591 4.58 4.23-.213 10.526-4.4-3.807 7.04-9.147 15.406-15.759 21.942-4.852 4.796 5.904-.4 14.317-4.786-4.76 7.186-11.385 15.668-19.55 22.328-6.081 4.961 7.445-.484 17.945-5.035-5.701 7.3-13.552 15.836-23.176 22.577-7.284 5.102 8.862-.514 21.43-5.22-6.626 7.397-15.654 15.961-26.662 22.763-8.464 5.228 10.171-.515 24.79-5.364-7.536 7.479-17.703 16.057-30.023 22.906-15.164 8.43 45.78-10.952 45.78-10.952s61.856 16.25 46.281 8.604"/><path d="M636.485 277.528c-12.654-6.212-23.245-14.261-31.154-21.346 14.847 4.098 33.751 8.884 25.032 4.094-11.34-6.232-20.795-14.325-27.79-21.373 12.793 4.057 29.204 8.844 21.67 4.12-9.958-6.241-18.234-14.368-24.3-21.368 10.72 4.011 24.505 8.76 18.178 4.114-8.494-6.234-15.543-14.368-20.664-21.302 8.625 3.951 19.633 8.593 14.542 4.05-6.937-6.19-12.697-14.272-16.859-21.11 6.504 3.861 14.558 8.25 10.738 3.857C594.61 178.31 587.345 157 587.345 157s-6.168 21.653-16.76 35.165c-3.59 4.58 4.23-.213 10.527-4.4-3.807 7.04-9.146 15.406-15.759 21.942-4.852 4.796 5.905-.4 14.317-4.786-4.761 7.186-11.385 15.668-19.549 22.328-6.081 4.961 7.443-.484 17.944-5.035-5.7 7.3-13.551 15.836-23.176 22.577-7.285 5.102 8.862-.514 21.43-5.22-6.627 7.397-15.655 15.961-26.663 22.763-8.463 5.228 10.173-.515 24.791-5.364-7.537 7.479-17.703 16.057-30.023 22.906-15.163 8.43 45.781-10.952 45.781-10.952s61.854 16.25 46.28 8.604"/><path d="M640.485 232.528c-12.654-6.212-23.246-14.262-31.154-21.346 14.847 4.098 33.752 8.884 25.032 4.093-11.34-6.231-20.794-14.324-27.79-21.372 12.792 4.058 29.204 8.843 21.67 4.12-9.957-6.242-18.233-14.368-24.3-21.367 10.72 4.01 24.505 8.759 18.177 4.114-8.493-6.235-15.541-14.37-20.664-21.304 8.627 3.951 19.634 8.594 14.544 4.05-6.937-6.19-12.698-14.271-16.859-21.11 6.503 3.861 14.557 8.25 10.737 3.858C598.61 133.31 591.345 112 591.345 112s-6.168 21.652-16.758 35.164c-3.593 4.582 4.228-.212 10.525-4.4-3.807 7.04-9.146 15.406-15.758 21.942-4.852 4.796 5.903-.4 14.317-4.785-4.761 7.185-11.386 15.668-19.55 22.327-6.081 4.962 7.443-.483 17.944-5.035-5.7 7.3-13.551 15.837-23.176 22.578-7.285 5.102 8.862-.515 21.43-5.219-6.626 7.396-15.655 15.96-26.663 22.762-8.462 5.228 10.173-.515 24.791-5.365-7.536 7.479-17.703 16.058-30.023 22.907-15.163 8.43 45.781-10.952 45.781-10.952s61.855 16.25 46.28 8.604"/><path d="M592.485 257.528c-12.654-6.212-23.245-14.261-31.154-21.346 14.847 4.098 33.751 8.884 25.032 4.094-11.34-6.232-20.795-14.325-27.79-21.373 12.793 4.057 29.205 8.844 21.669 4.12-9.957-6.241-18.233-14.368-24.3-21.368 10.72 4.011 24.506 8.76 18.179 4.114-8.494-6.234-15.543-14.368-20.664-21.302 8.625 3.951 19.632 8.593 14.542 4.05-6.937-6.19-12.697-14.272-16.859-21.11 6.503 3.861 14.558 8.25 10.738 3.857C550.61 158.31 543.345 137 543.345 137s-6.169 21.653-16.76 35.165c-3.59 4.58 4.23-.213 10.527-4.4-3.807 7.04-9.146 15.406-15.759 21.942-4.852 4.796 5.904-.4 14.317-4.786-4.761 7.186-11.386 15.668-19.55 22.328-6.081 4.961 7.444-.484 17.945-5.035-5.702 7.3-13.551 15.836-23.176 22.577-7.285 5.102 8.862-.514 21.43-5.22-6.627 7.397-15.655 15.961-26.663 22.763-8.463 5.228 10.173-.515 24.79-5.364-7.536 7.479-17.701 16.057-30.022 22.906-15.163 8.43 45.78-10.952 45.78-10.952s61.855 16.25 46.281 8.604"/><path d="M557.485 235.528c-12.654-6.212-23.245-14.26-31.154-21.346 14.847 4.098 33.751 8.884 25.032 4.094-11.34-6.232-20.795-14.325-27.79-21.373 12.793 4.058 29.205 8.844 21.669 4.12-9.957-6.242-18.233-14.368-24.3-21.367 10.72 4.01 24.506 8.759 18.179 4.114-8.494-6.235-15.543-14.37-20.664-21.303 8.625 3.951 19.632 8.593 14.542 4.05-6.937-6.19-12.697-14.272-16.859-21.11 6.503 3.861 14.558 8.25 10.738 3.857C515.61 136.31 508.345 115 508.345 115s-6.169 21.653-16.76 35.164c-3.59 4.582 4.23-.212 10.527-4.4-3.807 7.04-9.146 15.406-15.759 21.943-4.852 4.796 5.904-.401 14.317-4.786-4.761 7.185-11.386 15.668-19.55 22.328-6.081 4.96 7.444-.484 17.945-5.036-5.702 7.3-13.551 15.837-23.176 22.579-7.285 5.101 8.862-.515 21.43-5.22-6.627 7.396-15.655 15.96-26.663 22.762-8.463 5.228 10.173-.515 24.79-5.365-7.536 7.48-17.701 16.058-30.022 22.907-15.163 8.43 45.78-10.952 45.78-10.952s61.855 16.25 46.281 8.604"/><path d="M524.485 257.528c-12.654-6.212-23.245-14.261-31.153-21.346 14.846 4.098 33.75 8.884 25.032 4.094-11.341-6.232-20.795-14.325-27.791-21.373 12.792 4.057 29.205 8.844 21.67 4.12-9.957-6.241-18.233-14.368-24.3-21.368 10.72 4.011 24.505 8.76 18.177 4.114-8.493-6.234-15.541-14.368-20.664-21.302 8.627 3.951 19.634 8.593 14.543 4.05-6.937-6.19-12.697-14.272-16.858-21.11 6.502 3.861 14.557 8.25 10.736 3.857C482.611 158.31 475.344 137 475.344 137s-6.168 21.653-16.758 35.165c-3.591 4.58 4.23-.213 10.525-4.4-3.806 7.04-9.146 15.406-15.758 21.942-4.852 4.796 5.904-.4 14.317-4.786-4.76 7.186-11.385 15.668-19.55 22.328-6.081 4.961 7.444-.484 17.945-5.035-5.701 7.3-13.552 15.836-23.177 22.577-7.284 5.102 8.862-.514 21.431-5.22-6.626 7.397-15.655 15.961-26.663 22.763-8.463 5.228 10.172-.515 24.79-5.364-7.535 7.479-17.702 16.057-30.022 22.906-15.164 8.43 45.78-10.952 45.78-10.952s61.856 16.25 46.281 8.604"/><path d="M499.485 232.528c-12.654-6.212-23.245-14.262-31.154-21.346 14.847 4.098 33.751 8.884 25.032 4.093-11.34-6.231-20.795-14.324-27.79-21.372 12.793 4.058 29.205 8.843 21.669 4.12-9.957-6.242-18.233-14.368-24.3-21.367 10.72 4.01 24.506 8.759 18.179 4.114-8.494-6.235-15.543-14.37-20.664-21.304 8.625 3.951 19.633 8.594 14.542 4.05-6.937-6.19-12.697-14.271-16.859-21.11 6.504 3.861 14.558 8.25 10.738 3.858C457.61 133.31 450.345 112 450.345 112s-6.169 21.652-16.76 35.164c-3.59 4.582 4.23-.212 10.527-4.4-3.807 7.04-9.146 15.406-15.759 21.942-4.852 4.796 5.905-.4 14.317-4.785-4.761 7.185-11.385 15.668-19.549 22.327-6.081 4.962 7.443-.483 17.944-5.035-5.7 7.3-13.551 15.837-23.176 22.578-7.285 5.102 8.862-.515 21.431-5.219-6.628 7.396-15.656 15.96-26.664 22.762-8.463 5.228 10.173-.515 24.791-5.365-7.537 7.479-17.702 16.058-30.023 22.907-15.163 8.43 45.78-10.952 45.78-10.952s61.855 16.25 46.281 8.604"/><path d="M461.485 247.529c-12.653-6.213-23.245-14.262-31.153-21.347 14.846 4.098 33.75 8.884 25.032 4.094-11.341-6.231-20.795-14.325-27.791-21.373 12.792 4.057 29.205 8.844 21.67 4.12-9.957-6.241-18.233-14.368-24.3-21.368 10.72 4.011 24.506 8.76 18.178 4.115-8.493-6.235-15.542-14.368-20.664-21.303 8.626 3.951 19.633 8.593 14.542 4.05-6.937-6.19-12.697-14.272-16.858-21.11 6.502 3.861 14.557 8.25 10.736 3.857C419.611 148.31 412.344 127 412.344 127s-6.168 21.653-16.758 35.165c-3.591 4.58 4.23-.213 10.526-4.4-3.807 7.04-9.147 15.406-15.759 21.942-4.852 4.796 5.904-.4 14.317-4.786-4.76 7.186-11.385 15.669-19.55 22.328-6.081 4.961 7.445-.484 17.945-5.035-5.701 7.3-13.552 15.836-23.177 22.577-7.284 5.102 8.863-.514 21.431-5.218-6.626 7.395-15.655 15.96-26.662 22.76-8.464 5.23 10.171-.514 24.79-5.363-7.536 7.479-17.703 16.057-30.023 22.906-15.164 8.43 45.78-10.952 45.78-10.952s61.856 16.25 46.281 8.605"/><path d="M423.485 232.528c-12.654-6.212-23.246-14.262-31.154-21.346 14.847 4.098 33.752 8.884 25.032 4.093-11.34-6.231-20.794-14.324-27.79-21.372 12.792 4.058 29.205 8.843 21.67 4.12-9.957-6.242-18.233-14.368-24.3-21.367 10.72 4.01 24.505 8.759 18.177 4.114-8.493-6.235-15.541-14.37-20.664-21.304 8.627 3.951 19.634 8.594 14.543 4.05-6.937-6.19-12.697-14.271-16.858-21.11 6.502 3.861 14.557 8.25 10.736 3.858C381.611 133.31 374.344 112 374.344 112s-6.168 21.652-16.758 35.164c-3.592 4.582 4.228-.212 10.525-4.4-3.806 7.04-9.146 15.406-15.758 21.942-4.852 4.796 5.904-.4 14.317-4.785-4.76 7.185-11.385 15.668-19.55 22.327-6.081 4.962 7.444-.483 17.945-5.035-5.701 7.3-13.552 15.837-23.177 22.578-7.284 5.102 8.862-.515 21.431-5.219-6.626 7.396-15.655 15.96-26.663 22.762-8.463 5.228 10.172-.515 24.79-5.365-7.535 7.479-17.702 16.058-30.022 22.907-15.164 8.43 45.78-10.952 45.78-10.952s61.856 16.25 46.281 8.604"/><path d="M390.485 235.528c-12.654-6.212-23.245-14.26-31.154-21.346 14.848 4.098 33.752 8.884 25.032 4.094-11.34-6.232-20.794-14.325-27.79-21.373 12.793 4.058 29.204 8.844 21.67 4.12-9.957-6.242-18.234-14.368-24.3-21.367 10.72 4.01 24.505 8.759 18.178 4.114-8.494-6.235-15.543-14.37-20.664-21.303 8.626 3.951 19.633 8.593 14.543 4.05-6.937-6.19-12.698-14.272-16.859-21.11 6.503 3.861 14.557 8.25 10.737 3.857C348.61 136.31 341.345 115 341.345 115s-6.168 21.653-16.76 35.164c-3.59 4.582 4.23-.212 10.527-4.4-3.807 7.04-9.146 15.406-15.758 21.943-4.852 4.796 5.904-.401 14.316-4.786-4.761 7.185-11.385 15.668-19.549 22.328-6.081 4.96 7.443-.484 17.944-5.036-5.7 7.3-13.551 15.837-23.176 22.579-7.285 5.101 8.862-.515 21.43-5.22-6.627 7.396-15.655 15.96-26.663 22.762-8.462 5.228 10.173-.515 24.791-5.365-7.537 7.48-17.703 16.058-30.023 22.907-15.163 8.43 45.781-10.952 45.781-10.952s61.854 16.25 46.28 8.604"/><path d="M366.485 204.528c-12.654-6.212-23.245-14.261-31.153-21.346 14.846 4.098 33.75 8.884 25.032 4.094-11.341-6.232-20.795-14.325-27.791-21.373 12.792 4.057 29.205 8.844 21.67 4.12-9.957-6.242-18.233-14.368-24.3-21.368 10.72 4.011 24.506 8.76 18.177 4.114-8.492-6.235-15.541-14.368-20.663-21.302 8.626 3.951 19.633 8.592 14.542 4.05-6.937-6.19-12.697-14.272-16.858-21.11 6.502 3.861 14.557 8.25 10.736 3.857C324.611 105.31 317.344 84 317.344 84s-6.168 21.653-16.758 35.164c-3.591 4.582 4.23-.213 10.526-4.4-3.807 7.04-9.147 15.406-15.759 21.943-4.852 4.796 5.904-.401 14.317-4.786-4.76 7.185-11.385 15.668-19.55 22.328-6.081 4.96 7.445-.484 17.945-5.036-5.701 7.3-13.552 15.837-23.177 22.578-7.284 5.102 8.862-.514 21.431-5.22-6.626 7.396-15.655 15.961-26.662 22.763-8.464 5.228 10.171-.516 24.79-5.365-7.536 7.48-17.703 16.058-30.023 22.907-15.164 8.43 45.78-10.952 45.78-10.952s61.856 16.25 46.281 8.604"/><path d="M342.485 215.528c-12.653-6.212-23.245-14.262-31.153-21.346 14.846 4.098 33.75 8.884 25.032 4.093-11.34-6.231-20.795-14.324-27.791-21.372 12.792 4.058 29.205 8.843 21.67 4.12-9.957-6.242-18.233-14.368-24.3-21.367 10.72 4.01 24.506 8.759 18.178 4.114-8.493-6.235-15.542-14.37-20.664-21.304 8.626 3.951 19.633 8.594 14.542 4.05-6.937-6.19-12.697-14.271-16.858-21.11 6.502 3.861 14.558 8.25 10.736 3.858C300.611 116.31 293.345 95 293.345 95s-6.169 21.652-16.759 35.164c-3.591 4.582 4.23-.212 10.526-4.4-3.807 7.04-9.147 15.406-15.759 21.942-4.852 4.796 5.904-.4 14.317-4.785-4.76 7.185-11.385 15.668-19.55 22.327-6.081 4.962 7.445-.483 17.945-5.035-5.701 7.3-13.552 15.837-23.176 22.578-7.284 5.102 8.862-.515 21.43-5.219-6.626 7.396-15.654 15.96-26.662 22.762-8.464 5.228 10.171-.515 24.79-5.365-7.536 7.479-17.703 16.058-30.023 22.907-15.164 8.43 45.78-10.952 45.78-10.952s61.856 16.25 46.281 8.604"/><path d="M273.332 166.182c14.846 4.098 33.75 8.884 25.032 4.093-11.341-6.231-20.795-14.324-27.791-21.372 12.792 4.058 29.205 8.843 21.67 4.12-9.957-6.242-18.233-14.368-24.3-21.368 10.72 4.01 24.505 8.759 18.177 4.115-8.493-6.235-15.541-14.37-20.664-21.304 8.627 3.951 19.634 8.594 14.543 4.05-6.937-6.19-12.697-14.272-16.858-21.11 6.502 3.861 14.557 8.25 10.736 3.858C262.611 88.31 255.344 67 255.344 67s-6.168 21.652-16.758 35.164c-3.591 4.582 4.228-.212 10.525-4.4-3.806 7.04-9.146 15.406-15.758 21.942-4.852 4.796 5.904-.4 14.317-4.785-4.76 7.185-11.385 15.668-19.55 22.327-6.081 4.962 7.444-.483 17.945-5.035-5.701 7.3-13.552 15.837-23.177 22.578-7.284 5.102 8.862-.515 21.431-5.219-6.626 7.396-15.655 15.96-26.663 22.76-8.463 5.23 10.172-.513 24.79-5.363-7.535 7.479-17.702 16.058-30.022 22.907-15.164 8.43 45.78-10.952 45.78-10.952s61.856 16.25 46.281 8.604c-12.654-6.212-23.246-14.262-31.153-21.346z"/><path d="M263.485 176.529c-12.654-6.213-23.245-14.262-31.154-21.347 14.847 4.099 33.752 8.884 25.032 4.094-11.34-6.231-20.795-14.325-27.79-21.372 12.793 4.056 29.204 8.843 21.67 4.118-9.957-6.24-18.234-14.367-24.3-21.367 10.72 4.011 24.505 8.76 18.178 4.115-8.494-6.235-15.543-14.368-20.664-21.303 8.626 3.951 19.633 8.593 14.542 4.05-6.937-6.19-12.697-14.272-16.859-21.11 6.504 3.861 14.558 8.25 10.738 3.857C221.61 77.311 214.345 56 214.345 56s-6.168 21.653-16.76 35.165c-3.59 4.582 4.23-.213 10.527-4.4-3.807 7.04-9.146 15.406-15.758 21.942-4.852 4.796 5.904-.4 14.316-4.786-4.761 7.186-11.385 15.669-19.549 22.328-6.081 4.961 7.443-.483 17.944-5.035-5.7 7.3-13.551 15.837-23.176 22.577-7.285 5.103 8.862-.514 21.43-5.218-6.627 7.395-15.655 15.96-26.663 22.76-8.463 5.23 10.173-.514 24.791-5.363-7.537 7.479-17.703 16.057-30.023 22.906-15.163 8.43 45.781-10.952 45.781-10.952s61.854 16.25 46.28 8.605"/><path d="M276.485 215.528c-12.654-6.212-23.245-14.262-31.154-21.346 14.847 4.098 33.752 8.884 25.032 4.093-11.34-6.231-20.794-14.324-27.79-21.372 12.793 4.058 29.204 8.843 21.67 4.12-9.957-6.242-18.234-14.368-24.3-21.367 10.72 4.01 24.505 8.759 18.178 4.114-8.494-6.235-15.543-14.37-20.664-21.304 8.626 3.951 19.633 8.594 14.542 4.05-6.936-6.19-12.697-14.271-16.859-21.11 6.504 3.861 14.558 8.25 10.738 3.858C234.61 116.31 227.345 95 227.345 95s-6.168 21.652-16.76 35.164c-3.59 4.582 4.23-.212 10.527-4.4-3.807 7.04-9.146 15.406-15.758 21.942-4.852 4.796 5.904-.4 14.316-4.785-4.761 7.185-11.385 15.668-19.549 22.327-6.081 4.962 7.443-.483 17.944-5.035-5.7 7.3-13.551 15.837-23.176 22.578-7.285 5.102 8.862-.515 21.43-5.219-6.627 7.396-15.655 15.96-26.663 22.762-8.463 5.228 10.173-.515 24.791-5.365-7.537 7.479-17.703 16.058-30.023 22.907-15.163 8.43 45.781-10.952 45.781-10.952s61.854 16.25 46.28 8.604"/><path d="M227.485 177.528c-12.654-6.212-23.246-14.261-31.154-21.346 14.847 4.098 33.752 8.884 25.032 4.094-11.34-6.232-20.794-14.325-27.79-21.373 12.792 4.057 29.204 8.844 21.67 4.12-9.957-6.241-18.233-14.368-24.3-21.368 10.72 4.011 24.505 8.76 18.177 4.114-8.493-6.234-15.541-14.368-20.664-21.302 8.627 3.951 19.634 8.592 14.544 4.05-6.937-6.19-12.698-14.272-16.859-21.11 6.503 3.861 14.557 8.25 10.737 3.857C185.61 78.31 178.345 57 178.345 57s-6.168 21.653-16.758 35.165c-3.593 4.58 4.228-.213 10.525-4.4-3.807 7.04-9.146 15.406-15.758 21.942-4.852 4.796 5.903-.4 14.317-4.786-4.761 7.186-11.386 15.668-19.55 22.328-6.081 4.961 7.443-.484 17.944-5.035-5.7 7.3-13.551 15.836-23.176 22.577-7.285 5.102 8.862-.514 21.43-5.22-6.626 7.396-15.655 15.961-26.663 22.763-8.462 5.228 10.173-.515 24.791-5.365-7.536 7.48-17.703 16.058-30.023 22.907-15.163 8.43 45.781-10.952 45.781-10.952s61.855 16.25 46.28 8.604"/><path d="M212.485 160.528c-12.654-6.212-23.245-14.261-31.154-21.346 14.847 4.098 33.752 8.884 25.032 4.094-11.34-6.232-20.795-14.325-27.79-21.373 12.793 4.057 29.204 8.844 21.67 4.12-9.957-6.241-18.234-14.368-24.3-21.368 10.72 4.011 24.505 8.76 18.178 4.114-8.494-6.234-15.543-14.368-20.664-21.302 8.626 3.951 19.633 8.593 14.542 4.05-6.937-6.19-12.697-14.272-16.859-21.11 6.504 3.861 14.558 8.25 10.738 3.857C170.61 61.31 163.345 40 163.345 40s-6.168 21.653-16.76 35.165c-3.59 4.58 4.23-.213 10.527-4.4-3.807 7.04-9.146 15.406-15.758 21.942-4.852 4.796 5.904-.4 14.316-4.786-4.761 7.186-11.385 15.668-19.549 22.328-6.081 4.961 7.443-.484 17.944-5.035-5.7 7.3-13.551 15.836-23.176 22.577-7.285 5.102 8.862-.514 21.43-5.218-6.627 7.395-15.655 15.96-26.663 22.76-8.463 5.229 10.173-.514 24.791-5.363-7.537 7.479-17.703 16.057-30.023 22.906-15.163 8.43 45.781-10.952 45.781-10.952s61.854 16.25 46.28 8.604"/><path d="M164.485 177.528c-12.653-6.212-23.245-14.261-31.153-21.346 14.846 4.098 33.75 8.884 25.032 4.094-11.341-6.232-20.795-14.325-27.791-21.373 12.792 4.057 29.205 8.844 21.67 4.12-9.957-6.241-18.233-14.368-24.3-21.368 10.72 4.011 24.506 8.76 18.178 4.114-8.493-6.234-15.542-14.368-20.664-21.302 8.626 3.951 19.633 8.592 14.542 4.05-6.937-6.19-12.697-14.272-16.858-21.11 6.502 3.861 14.558 8.25 10.736 3.857C122.611 78.31 115.344 57 115.344 57s-6.168 21.653-16.758 35.165c-3.591 4.58 4.23-.213 10.526-4.4-3.807 7.04-9.147 15.406-15.759 21.942-4.852 4.796 5.904-.4 14.317-4.786-4.76 7.186-11.385 15.668-19.55 22.328-6.081 4.961 7.445-.484 17.945-5.035-5.701 7.3-13.552 15.836-23.176 22.577-7.285 5.102 8.862-.514 21.43-5.22-6.626 7.396-15.654 15.961-26.662 22.763-8.464 5.228 10.171-.515 24.79-5.365-7.536 7.48-17.703 16.058-30.023 22.907-15.164 8.43 45.78-10.952 45.78-10.952s61.856 16.25 46.281 8.604"/><path d="M129.485 189.528c-12.654-6.212-23.245-14.26-31.153-21.346 14.846 4.098 33.75 8.884 25.032 4.093-11.341-6.231-20.795-14.324-27.791-21.372 12.792 4.058 29.205 8.843 21.67 4.12-9.957-6.242-18.233-14.368-24.3-21.367 10.72 4.01 24.505 8.759 18.177 4.114-8.493-6.235-15.541-14.37-20.664-21.303 8.627 3.951 19.634 8.593 14.543 4.05-6.937-6.19-12.697-14.272-16.858-21.11 6.502 3.86 14.557 8.25 10.736 3.857C87.611 90.31 80.344 69 80.344 69s-6.168 21.652-16.758 35.164c-3.591 4.582 4.23-.212 10.525-4.4-3.806 7.04-9.146 15.406-15.758 21.942-4.852 4.797 5.904-.4 14.317-4.785-4.76 7.185-11.385 15.668-19.55 22.327-6.081 4.962 7.444-.483 17.945-5.035-5.701 7.3-13.552 15.837-23.177 22.579-7.284 5.101 8.862-.515 21.431-5.22-6.626 7.396-15.655 15.96-26.663 22.762-8.463 5.228 10.172-.515 24.79-5.365-7.535 7.48-17.702 16.058-30.022 22.907-15.164 8.43 45.78-10.952 45.78-10.952s61.856 16.25 46.281 8.604"/><path d="M103.485 160.528c-12.654-6.212-23.246-14.261-31.154-21.346 14.847 4.098 33.752 8.884 25.032 4.094-11.34-6.232-20.794-14.325-27.79-21.373 12.792 4.057 29.205 8.844 21.67 4.12-9.957-6.241-18.233-14.368-24.3-21.368 10.72 4.011 24.505 8.76 18.177 4.114-8.493-6.234-15.541-14.368-20.664-21.302C73.083 91.418 84.09 96.06 79 91.517c-6.937-6.19-12.697-14.272-16.858-21.11 6.502 3.861 14.557 8.25 10.736 3.857C61.611 61.31 54.344 40 54.344 40s-6.168 21.653-16.758 35.165c-3.592 4.58 4.228-.213 10.525-4.4-3.806 7.04-9.146 15.406-15.758 21.942-4.852 4.796 5.904-.4 14.317-4.786-4.76 7.186-11.385 15.668-19.55 22.328-6.081 4.961 7.444-.484 17.945-5.035-5.701 7.3-13.552 15.836-23.177 22.577-7.284 5.102 8.862-.514 21.431-5.218-6.626 7.395-15.655 15.96-26.663 22.76-8.463 5.229 10.172-.514 24.79-5.363-7.535 7.479-17.702 16.057-30.022 22.906-15.164 8.43 45.78-10.952 45.78-10.952s61.856 16.25 46.281 8.604"/><path d="M1374 157.255s-366.765 49.826-489.05 58.347c-117.043 8.156-349.964 1.767-465.784-10.43C311.21 193.805-5 133-5 133v259h1379V157.255"/><path d="M1375 180.239c-7.13-4.592-13.315-9.52-18.403-14.057 6.195 1.703 13.083 3.522 18.403 4.726v-4.661c-8.427-5.468-15.587-11.736-21.179-17.344 7.784 2.457 16.885 5.176 21.179 5.895v-2.16c-9.735-6.19-17.84-14.122-23.814-20.982 10.76 4.01 24.608 8.759 18.253 4.114-8.528-6.235-15.608-14.37-20.747-21.304 8.659 3.952 19.711 8.594 14.602 4.05-6.969-6.19-12.751-14.271-16.935-21.11 6.537 3.861 14.622 8.25 10.78 3.858C1345.827 88.31 1338.536 67 1338.536 67s-6.194 21.652-16.834 35.164c-3.6 4.582 4.254-.212 10.58-4.4-3.832 7.04-9.192 15.406-15.83 21.942-4.877 4.796 5.924-.4 14.381-4.785-4.787 7.185-11.434 15.668-19.63 22.327-6.114 4.962 7.472-.483 18.011-5.035-5.722 7.3-13.606 15.837-23.27 22.578-7.311 5.102 8.9-.515 21.52-5.219-6.657 7.396-15.718 15.96-26.77 22.762-8.508 5.228 10.207-.515 24.89-5.365-7.573 7.479-17.78 16.058-30.15 22.907-15.225 8.43 45.969-10.952 45.969-10.952s19.237 5.03 33.598 8.177v-6.862M75.487 172.947c-12.647-6.234-23.233-14.31-31.137-21.42 14.838 4.112 33.732 8.914 25.018 4.107-11.334-6.252-20.782-14.374-27.775-21.446 12.786 4.071 29.189 8.874 21.657 4.133-9.95-6.262-18.222-14.417-24.285-21.44 10.713 4.024 24.491 8.789 18.168 4.128-8.489-6.256-15.534-14.418-20.653-21.377 8.621 3.965 19.622 8.623 14.534 4.064-6.933-6.212-12.689-14.322-16.849-21.183 6.5 3.874 14.55 8.279 10.73 3.87C33.637 73.385 26.376 52 26.376 52s-6.166 21.728-16.75 35.287c-3.59 4.598 4.227-.213 10.52-4.416-3.804 7.066-9.14 15.46-15.75 22.019-4.849 4.813 5.901-.402 14.309-4.802-4.758 7.21-11.38 15.723-19.537 22.405-6.08 4.979 7.438-.485 17.933-5.053-5.483 7.049-12.973 15.232-22.1 21.867v2.449c4.377-1.04 12.98-4.124 20.355-6.896-5.308 5.947-12.18 12.634-20.355 18.575v4.677c5.282-1.479 12.246-3.717 18.483-5.795C8.451 157.332 2.238 162.837-5 167.991v6.57c14.228-3.86 34.233-10.248 34.233-10.248s61.818 16.307 46.254 8.634"/><path d="M48.487 172.947c-12.647-6.234-23.233-14.31-31.137-21.42 14.838 4.112 33.732 8.914 25.018 4.107-11.334-6.252-20.782-14.374-27.775-21.446 12.786 4.071 29.189 8.874 21.657 4.133-9.95-6.262-18.222-14.417-24.285-21.44 10.713 4.024 24.491 8.789 18.168 4.128-8.489-6.256-15.534-14.418-20.653-21.377 8.621 3.965 19.622 8.623 14.534 4.064-6.933-6.212-12.689-14.322-16.849-21.183 6.5 3.874 14.55 8.279 10.73 3.87C6.637 73.385-.624 52-.624 52s-6.166 21.728-16.75 35.287c-3.59 4.598 4.227-.213 10.52-4.416-3.804 7.066-9.14 15.46-15.75 22.019-4.849 4.813 5.901-.402 14.309-4.802-4.758 7.21-11.38 15.723-19.537 22.405-6.08 4.979 7.438-.485 17.933-5.053-5.483 7.049-12.973 15.232-22.1 21.867v2.449c4.377-1.04 12.98-4.124 20.355-6.896-5.308 5.947-12.18 12.634-20.355 18.575v4.677c5.282-1.479 12.246-3.717 18.483-5.795-5.032 5.015-11.245 10.52-18.483 15.674v6.57c14.228-3.86 34.233-10.248 34.233-10.248s61.818 16.307 46.254 8.634M1234.515 197.528c12.654-6.212 23.245-14.26 31.153-21.346-14.846 4.098-33.75 8.884-25.032 4.093 11.341-6.231 20.795-14.324 27.791-21.372-12.792 4.058-29.205 8.843-21.67 4.12 9.957-6.242 18.233-14.368 24.3-21.367-10.72 4.01-24.505 8.759-18.177 4.114 8.493-6.235 15.541-14.37 20.664-21.303-8.627 3.951-19.634 8.593-14.543 4.05 6.937-6.19 12.697-14.272 16.858-21.11-6.502 3.86-14.557 8.25-10.736 3.857C1276.389 98.31 1283.656 77 1283.656 77s6.168 21.652 16.758 35.164c3.591 4.582-4.23-.212-10.525-4.4 3.806 7.04 9.146 15.406 15.758 21.942 4.852 4.797-5.904-.4-14.317-4.785 4.76 7.185 11.385 15.668 19.55 22.327 6.081 4.962-7.444-.483-17.945-5.035 5.701 7.3 13.552 15.837 23.177 22.579 7.284 5.101-8.862-.515-21.431-5.22 6.626 7.396 15.655 15.96 26.663 22.762 8.463 5.228-10.172-.515-24.79-5.365 7.535 7.48 17.702 16.058 30.022 22.907 15.164 8.43-45.78-10.952-45.78-10.952s-61.856 16.25-46.281 8.604"/><path d="M1136.515 185.528c12.654-6.212 23.246-14.261 31.154-21.346-14.847 4.098-33.752 8.884-25.032 4.094 11.34-6.232 20.794-14.325 27.79-21.373-12.792 4.057-29.204 8.844-21.67 4.12 9.957-6.241 18.233-14.368 24.3-21.368-10.72 4.011-24.505 8.76-18.177 4.114 8.493-6.234 15.541-14.368 20.664-21.302-8.627 3.951-19.634 8.592-14.544 4.05 6.937-6.19 12.698-14.272 16.859-21.11-6.503 3.861-14.557 8.25-10.737 3.857C1178.39 86.31 1185.655 65 1185.655 65s6.168 21.653 16.758 35.165c3.593 4.58-4.228-.213-10.525-4.4 3.807 7.04 9.146 15.406 15.758 21.942 4.852 4.796-5.903-.4-14.317-4.786 4.761 7.186 11.386 15.668 19.55 22.328 6.081 4.961-7.443-.484-17.944-5.035 5.7 7.3 13.551 15.836 23.176 22.577 7.285 5.102-8.862-.514-21.43-5.22 6.626 7.396 15.655 15.961 26.663 22.763 8.462 5.228-10.173-.515-24.791-5.365 7.536 7.48 17.703 16.058 30.023 22.907 15.163 8.43-45.781-10.952-45.781-10.952s-61.855 16.25-46.28 8.604"/><path d="M1151.515 168.528c12.654-6.212 23.245-14.261 31.154-21.346-14.847 4.098-33.752 8.884-25.032 4.094 11.34-6.232 20.795-14.325 27.79-21.373-12.793 4.057-29.204 8.844-21.67 4.12 9.957-6.241 18.234-14.368 24.3-21.368-10.72 4.011-24.505 8.76-18.178 4.114 8.494-6.234 15.543-14.368 20.664-21.302-8.626 3.951-19.633 8.593-14.542 4.05 6.937-6.19 12.697-14.272 16.859-21.11-6.504 3.861-14.558 8.25-10.738 3.857C1193.39 69.31 1200.655 48 1200.655 48s6.168 21.653 16.76 35.165c3.59 4.58-4.23-.213-10.527-4.4 3.807 7.04 9.146 15.406 15.758 21.942 4.852 4.796-5.904-.4-14.316-4.786 4.761 7.186 11.385 15.668 19.549 22.328 6.081 4.961-7.443-.484-17.944-5.035 5.7 7.3 13.551 15.836 23.176 22.577 7.285 5.102-8.862-.514-21.43-5.218 6.627 7.395 15.655 15.96 26.663 22.76 8.463 5.229-10.173-.514-24.791-5.363 7.537 7.479 17.703 16.057 30.023 22.906 15.163 8.43-45.781-10.952-45.781-10.952s-61.854 16.25-46.28 8.604"/><path d="M1199.515 185.528c12.653-6.212 23.245-14.261 31.153-21.346-14.846 4.098-33.75 8.884-25.032 4.094 11.341-6.232 20.795-14.325 27.791-21.373-12.792 4.057-29.205 8.844-21.67 4.12 9.957-6.241 18.233-14.368 24.3-21.368-10.72 4.011-24.506 8.76-18.178 4.114 8.493-6.234 15.542-14.368 20.664-21.302-8.626 3.951-19.633 8.592-14.542 4.05 6.937-6.19 12.697-14.272 16.858-21.11-6.502 3.861-14.558 8.25-10.736 3.857C1241.389 86.31 1248.656 65 1248.656 65s6.168 21.653 16.758 35.165c3.591 4.58-4.23-.213-10.526-4.4 3.807 7.04 9.147 15.406 15.759 21.942 4.852 4.796-5.904-.4-14.317-4.786 4.76 7.186 11.385 15.668 19.55 22.328 6.081 4.961-7.445-.484-17.945-5.035 5.701 7.3 13.552 15.836 23.176 22.577 7.285 5.102-8.862-.514-21.43-5.22 6.626 7.396 15.654 15.961 26.662 22.763 8.464 5.228-10.171-.515-24.79-5.365 7.536 7.48 17.703 16.058 30.023 22.907 15.164 8.43-45.78-10.952-45.78-10.952s-61.856 16.25-46.281 8.604"/><path d="M1260.515 168.528c12.654-6.212 23.246-14.261 31.154-21.346-14.847 4.098-33.752 8.884-25.032 4.094 11.34-6.232 20.794-14.325 27.79-21.373-12.792 4.057-29.205 8.844-21.67 4.12 9.957-6.241 18.233-14.368 24.3-21.368-10.72 4.011-24.505 8.76-18.177 4.114 8.493-6.234 15.541-14.368 20.664-21.302-8.627 3.951-19.634 8.593-14.543 4.05 6.937-6.19 12.697-14.272 16.858-21.11-6.502 3.861-14.557 8.25-10.736 3.857C1302.389 69.31 1309.656 48 1309.656 48s6.168 21.653 16.758 35.165c3.592 4.58-4.228-.213-10.525-4.4 3.806 7.04 9.146 15.406 15.758 21.942 4.852 4.796-5.904-.4-14.317-4.786 4.76 7.186 11.385 15.668 19.55 22.328 6.081 4.961-7.444-.484-17.945-5.035 5.701 7.3 13.552 15.836 23.177 22.577 7.284 5.102-8.862-.514-21.431-5.218 6.626 7.395 15.655 15.96 26.663 22.76 8.463 5.229-10.172-.514-24.79-5.363 7.535 7.479 17.702 16.057 30.022 22.906 15.164 8.43-45.78-10.952-45.78-10.952s-61.856 16.25-46.281 8.604"/><path d="M1315.506 180.947c12.607-6.234 23.158-14.31 31.037-21.42-14.791 4.112-33.626 8.914-24.94 4.107 11.3-6.252 20.718-14.374 27.688-21.446-12.744 4.071-29.096 8.874-21.588 4.133 9.92-6.262 18.164-14.417 24.209-21.44-10.68 4.024-24.415 8.789-18.111 4.128 8.462-6.256 15.485-14.418 20.587-21.377-8.593 3.965-19.56 8.623-14.488 4.064 6.911-6.212 12.65-14.322 16.796-21.183-6.478 3.874-14.504 8.279-10.697 3.87C1357.224 81.385 1364.463 60 1364.463 60s1.232 4.354 3.537 10.375v103.953c-3.874-1.21-6.386-2.015-6.386-2.015s-61.625 16.307-46.108 8.634"/><path d="M1288.513 180.947c12.647-6.234 23.233-14.31 31.137-21.42-14.838 4.112-33.732 8.914-25.018 4.107 11.334-6.252 20.782-14.374 27.775-21.446-12.786 4.071-29.189 8.874-21.657 4.133 9.95-6.262 18.222-14.417 24.285-21.44-10.713 4.024-24.491 8.789-18.168 4.128 8.489-6.256 15.534-14.418 20.653-21.377-8.621 3.965-19.622 8.623-14.534 4.064 6.933-6.212 12.689-14.322 16.849-21.183-6.5 3.874-14.55 8.279-10.73 3.87 11.259-12.998 18.52-34.383 18.52-34.383s6.166 21.728 16.75 35.287c3.59 4.598-4.227-.213-10.52-4.416 3.804 7.066 9.14 15.46 15.75 22.019 4.849 4.813-5.901-.402-14.309-4.802 4.758 7.21 11.38 15.723 19.537 22.405 6.08 4.979-7.438-.485-17.933-5.053 5.483 7.049 12.973 15.232 22.1 21.867v2.449c-4.377-1.04-12.98-4.124-20.355-6.896 5.308 5.947 12.18 12.634 20.355 18.575v4.677c-5.282-1.479-12.246-3.717-18.483-5.795 5.032 5.015 11.245 10.52 18.483 15.674v6.57c-14.228-3.86-34.233-10.248-34.233-10.248s-61.818 16.307-46.254 8.634"/><path d="M1416.487 172.947c-12.647-6.234-23.233-14.31-31.137-21.42 14.838 4.112 33.732 8.914 25.018 4.107-11.334-6.252-20.782-14.374-27.775-21.446 12.786 4.071 29.189 8.874 21.657 4.133-9.95-6.262-18.222-14.417-24.285-21.44 10.713 4.024 24.491 8.789 18.168 4.128-8.489-6.256-15.534-14.418-20.653-21.377 8.621 3.965 19.622 8.623 14.534 4.064-6.933-6.212-12.689-14.322-16.849-21.183 6.5 3.874 14.55 8.279 10.73 3.87-11.259-12.998-18.52-34.383-18.52-34.383s-6.166 21.728-16.75 35.287c-3.59 4.598 4.227-.213 10.52-4.416-3.804 7.066-9.14 15.46-15.75 22.019-4.849 4.813 5.901-.402 14.309-4.802-4.758 7.21-11.38 15.723-19.537 22.405-6.08 4.979 7.438-.485 17.933-5.053-5.483 7.049-12.973 15.232-22.1 21.867v2.449c4.377-1.04 12.98-4.124 20.355-6.896-5.308 5.947-12.18 12.634-20.355 18.575v4.677c5.282-1.479 12.246-3.717 18.483-5.795-5.032 5.015-11.245 10.52-18.483 15.674v6.57c14.228-3.86 34.233-10.248 34.233-10.248s61.818 16.307 46.254 8.634"/></g></svg>