<svg width="36" height="25" xmlns="http://www.w3.org/2000/svg"><g fill="none" fill-rule="evenodd"><path d="M35.462 12.963a2.698 2.698 0 0 0-.247-.358.56.56 0 0 0 .468-.275c.23-.377-.222-.391-.478-.474a.607.607 0 0 0 .168-.205 2.21 2.21 0 0 0 .162-.575c.064-.4.117-.927-.02-1.314-.01-.028-.037-.086-.077-.063-.234.134-.219.478-.379.68.073-.313.137-.674.008-.953l-.054-.03c-.13.042-.184.248-.264.375.22-.824-.047-1.621-.422-2.385-.124-.255-.247-.51-.392-.752-.061-.102-.15-.303-.288-.295-.098.004-.141.14-.162.302a6.732 6.732 0 0 0-.151-.549c-.125-.374-.345-.71-.546-1.042-.204-.337-.461-.632-.719-.924-.166-.188-.398-.586-.644-.667-.09-.03-.128.077-.136.152a.729.729 0 0 0 .005.182c-.069-.11-.146-.219-.246-.279-.073-.043-.114.083-.118.133a.655.655 0 0 0 .016.2 1.693 1.693 0 0 0-.1-.16c-.162-.228-.315-.462-.49-.682-.178-.223-.396-.364-.592-.562-.115-.115-.25-.247-.4-.303-.097-.035-.128.13-.107.196.04.127.125.226.19.34a3.816 3.816 0 0 0-.34-.323c-.324-.27-.734-.398-1.104-.584-.635-.32-1.418-.445-2.211-.45-2.436-.206-10.336-.804-13.047-.133-3.222.798-3.896 4.78-3.855 5.086L9.8 24.34s2.495.394 5.953.304c2.186-.058 8.966-.41 10.868-.715.91-.09 1.777-.453 2.613-.82.886-.386 1.688-1.06 2.386-1.734.697-.673 1.38-1.43 1.809-2.317.096-.2.197-.397.292-.595.094-.128.172-.26.237-.416.049-.116.08-.233.106-.355.025.082.051.163.09.24.017.036.042.05.08.044.3-.054.364-.402.456-.657.04-.108.073-.22.102-.33.118-.355.159-.759.197-1.086a2.6 2.6 0 0 0-.114-1.078c.086.17.165.344.248.508.035.068.094.04.121-.017.155-.32.168-.701.147-1.05a1.54 1.54 0 0 0-.216-.66c.176.154.323.343.465.539.043.059.11.002.13-.047.127-.334-.153-.862-.308-1.134" fill="#D2762E"/><path d="M23.591 5.695c-.14-.334-.218-.693-.381-1.017a.035.035 0 0 0-.029-.02.038.038 0 0 0-.04.042c.028.301.037.603.005.903-.188-.571-.564-1.015-1.094-1.266-.85-1.067-1.973-1.922-3.408-2.473-.944-.362-2.031-.708-3.038-.814l-.014-.001c-.455-.047-.92-.08-1.386-.079 3.41-.29 9.5.173 11.586.35.233 0 .465.012.693.036.547.058 1.07.187 1.518.413.37.186.78.313 1.105.584.12.102.233.21.34.323-.066-.114-.15-.213-.19-.34a.195.195 0 0 1-.006-.077c.007-.062.036-.13.092-.123.006 0 .012.002.02.004.15.056.285.188.4.303.108.11.224.202.335.3.056.126.101.258.132.399.119.535-.005 1.09-.252 1.569.046-.423.032-.948-.25-1.249a.04.04 0 0 0-.025-.012c-.02-.002-.04.008-.039.032.009.497-.016.993-.061 1.488-.156-.437-.392-.876-.773-1.129a.04.04 0 0 0-.018-.006.037.037 0 0 0-.04.043c.037.228.043.458.057.688-.181-.191-.314-.422-.463-.641a.03.03 0 0 0-.022-.014c-.022-.002-.046.018-.042.044.064.397.094.85.242 1.239-.48-.246-.872-.702-1.13-1.185a.04.04 0 0 0-.032-.02c-.018-.002-.037.008-.037.032.007.354-.043.737-.228 1.043-.18-.295-.017-.727-.14-1.05-.006-.014-.016-.021-.027-.022a.041.041 0 0 0-.043.044c.03.377-.085.768-.235 1.11-.113.26-.287.541-.527.701.098-.57.09-1.154-.107-1.704-.005-.014-.015-.021-.026-.022a.04.04 0 0 0-.043.033c-.054.33-.083.661-.19.977-.046-.288-.066-.582-.168-.857-.005-.013-.017-.02-.03-.02-.019-.003-.04.009-.04.032.007.46.149.941.056 1.399-.458-.465-.679-1.175-.792-1.815a.034.034 0 0 0-.03-.03c-.022-.002-.046.014-.041.043a1.07 1.07 0 0 1-.096.671c-.109-.135-.192-.29-.307-.422a.036.036 0 0 0-.024-.012c-.023-.002-.046.014-.04.042.093.43.157 1.092-.131 1.475l.005-.08c.045-.278.042-.548-.113-.788a3.024 3.024 0 0 0-.039-.11.032.032 0 0 0-.027-.02c-.016-.002-.034.007-.04.022l-.026.023c-.143.323-.198.676-.306 1.011" fill="#E18C32"/><path d="M35.462 12.963a2.698 2.698 0 0 0-.247-.358.56.56 0 0 0 .468-.275c.23-.377-.222-.391-.478-.474a.607.607 0 0 0 .168-.205 2.21 2.21 0 0 0 .162-.575c.064-.4.117-.927-.02-1.314-.01-.028-.037-.086-.077-.063-.234.134-.219.478-.379.68.073-.313.137-.674.008-.953l-.054-.03c-.13.042-.184.248-.264.375.22-.824-.047-1.621-.422-2.385-.07-.142-.138-.284-.21-.424.016.103.03.206.042.31.113 1.027.005 2.062-.156 3.08-.007.04-.066.045-.072.002-.062-.43-.233-.833-.534-1.133.147.583.304 1.167.282 1.778l-.05.031a2.645 2.645 0 0 1-.721-.55c.053.713-.145 1.476-.63 1.951-.026.025-.06-.003-.06-.033.006-.447-.142-.87-.353-1.253.032.451.106.898.197 1.34l-.04.044c-.447-.093-.85-.513-.996-.984-.134.638-.498 1.237-.948 1.677-.023.023-.065 0-.059-.033a2.75 2.75 0 0 0-.013-1.156c-.161.476-.495.857-.804 1.241-.021.027-.072.014-.065-.026.044-.248.068-.498.068-.748-.343.649-.901 1.165-1.616 1.342l-.04-.051c.172-.357.375-.696.464-1.082-.306.479-.69.983-1.259 1.083-.029.005-.046-.024-.04-.051.057-.213.14-.418.222-.622-.417.51-.97.897-1.638.9l-.032-.042c.107-.9.69-1.69.564-2.613-.171.404-.283.83-.457 1.234-.017.04-.072.025-.07-.018.032-.607.089-1.214.055-1.821-.064.288-.144.57-.284.831-.019.035-.07.01-.065-.025.11-1.103-.006-2.334-.639-3.255.055.352.076.723-.118 1.035l-.063-.006c-.38-.777-.647-1.609-1.042-2.378a6.45 6.45 0 0 0-1.642-2.028c-1.676-1.388-3.807-2.21-5.921-2.528-1.08-.162-2.182-.223-3.265-.032-.704.124-1.394.32-2.084.507C9.142 4.304 8.863 6.072 8.89 6.272L9.8 24.34s2.495.394 5.953.304c2.186-.058 8.966-.41 10.868-.715.91-.09 1.777-.453 2.613-.82.886-.386 1.688-1.06 2.386-1.734.697-.673 1.38-1.43 1.809-2.317.096-.2.197-.397.292-.595.094-.128.172-.26.237-.416.049-.116.08-.233.106-.355.025.082.051.163.09.24.017.036.042.05.08.044.3-.054.364-.402.456-.657.04-.108.073-.22.102-.33.118-.355.159-.759.197-1.086a2.6 2.6 0 0 0-.114-1.078c.086.17.165.344.248.508.035.068.094.04.121-.017.155-.32.168-.701.147-1.05a1.54 1.54 0 0 0-.216-.66c.176.154.323.343.465.539.043.059.11.002.13-.047.127-.334-.153-.862-.308-1.134" fill="#A94E2D"/><path d="M24.755 13.75c-.511-.724-.482-1.76-.492-2.613-.046-4.162-1.69-7.949-5.69-9.466-.97-.368-2.092-.72-3.127-.827-1.072-.11-2.2-.147-3.25.136-.236.064-.472.122-.707.185a2.098 2.098 0 0 0-.517.101 2.024 2.024 0 0 0-.372.172 1.67 1.67 0 0 0 .132-.257c.016-.042.01-.074-.024-.103-.267-.222-.6-.02-.88.089a4.046 4.046 0 0 0-.347.155c-.38.16-.742.424-1.04.633a2.814 2.814 0 0 0-.802.899c.076-.201.16-.399.234-.594.03-.08-.037-.11-.104-.093-.378.102-.701.373-.973.65-.188.19-.298.427-.382.677a3.727 3.727 0 0 1 .097-.805c.017-.082-.08-.099-.134-.078-.37.136-.597.771-.705 1.108-.05.157-.086.319-.111.483a.623.623 0 0 0-.575-.205c-.481.077-.157.483-.035.768a.652.652 0 0 0-.294.005 2.333 2.333 0 0 0-.593.285c-.376.24-.85.585-1.067.991-.015.03-.043.097.006.115.284.104.556-.163.842-.174-.312.17-.658.381-.79.7l.015.07c.13.082.34-.023.504-.047-.842.418-1.3 1.243-1.65 2.136-.117.299-.236.594-.328.902-.038.129-.138.355-.03.47.077.082.22.02.37-.083a7.413 7.413 0 0 0-.34.54c-.215.386-.328.828-.452 1.25-.126.427-.178.871-.227 1.313-.032.285-.188.783-.071 1.058.042.1.158.055.225.006a.788.788 0 0 0 .147-.139c-.04.142-.072.29-.047.422.018.096.152.038.196.005a.698.698 0 0 0 .154-.163 1.853 1.853 0 0 0-.058.206c-.068.311-.147.619-.197.934-.052.322-.007.617-.024.935-.01.185-.018.402.048.574.043.111.2.016.24-.052.074-.129.093-.277.14-.419-.016.178-.021.357-.014.537.017.485.217.938.338 1.399 1.11 4.242 5.838 6.14 9.764 5.891 1.582-.1 3.212-.37 4.71-.92.384-.141.746-.35 1.122-.516 1.267-.556 2.175-1.432 3.124-2.424.265-.277.496-.617.694-.945a4.51 4.51 0 0 0 .434-1.044c.05-.169.071-.341.087-.516l.012-.141c.028.144.05.29.105.39.024.044.098.02.13.003.312-.164.38-.576.37-.984.012.035.024.07.034.105.046.158.073.33.164.469.051.078.18-.006.221-.05.321-.327.473-.908.628-1.33.215-.582.22-1.222.318-1.831.03-.186.04-.372.032-.557.12.067.245.123.372.163.171.055.418.032.546-.107.154-.164-.01-.311-.106-.446" fill="#F1B231"/><path d="M3.447 17.798l-.055-.014c-.269-.53-.379-1.153-.406-1.753a3.18 3.18 0 0 0-.093.33c-.305-1.514-.372-3.44.236-5.673.805-2.954 2.36-5.231 4.498-6.586 1.718-1.088 3.787-1.555 5.884-1.334.2.02.401.048.602.081 2.492.418 4.659 2.066 5.946 4.523.495.946.839 1.957 1.028 2.988a1.43 1.43 0 0 1-.214.463 10.264 10.264 0 0 0-1.066-3.307c-1.244-2.377-3.337-3.97-5.742-4.373a9.559 9.559 0 0 0-.58-.079C11.448 2.85 9.44 3.3 7.774 4.356 5.7 5.67 4.189 7.887 3.404 10.766c-.804 2.955-.398 5.355.154 6.947-.035.03-.072.058-.11.085m2.142-5.163a4.141 4.141 0 0 1 .577-2.148c-.222.231-.422.48-.566.773C6.23 9.23 7.6 7.67 9.394 6.953a6.582 6.582 0 0 1 3.122-.453c1.108.117 2.144.536 2.98 1.24.9.76 1.5 1.793 1.76 2.989a5.356 5.356 0 0 1-.394-.532c.036.138.065.28.085.425a4.973 4.973 0 0 0-1.632-2.65c-.792-.668-1.777-1.065-2.83-1.176a6.308 6.308 0 0 0-2.99.434c-1.8.719-3.151 2.329-3.708 4.418a7.986 7.986 0 0 0-.197.987" fill="#E1942E"/><path d="M7.29 24.167c-2.48-.857-4.635-2.623-5.333-5.352-.119-.466-.317-.924-.333-1.415a4.67 4.67 0 0 1 .014-.542c-.046.143-.065.293-.14.423-.027.049-.113.111-.176.104-.026-.002-.049-.017-.061-.05-.066-.174-.057-.394-.047-.581.016-.29-.019-.56.012-.847.003-.033.008-.066.013-.099.05-.319.13-.63.198-.946.015-.07.036-.14.058-.208a.705.705 0 0 1-.153.165c-.028.022-.092.053-.14.048-.027-.002-.049-.017-.055-.052a.62.62 0 0 1-.004-.178c.008-.082.029-.167.052-.249a.794.794 0 0 1-.147.14c-.04.03-.1.06-.15.054-.03-.003-.058-.02-.074-.059-.047-.115-.049-.268-.032-.428.024-.229.086-.473.105-.642.05-.447.102-.896.228-1.33.124-.427.237-.874.452-1.264.104-.19.22-.37.338-.547-.108.076-.213.13-.292.122a.114.114 0 0 1-.075-.037c-.045-.05-.054-.117-.046-.19.011-.101.054-.21.076-.286.092-.312.211-.61.328-.913.35-.904.807-1.74 1.644-2.164-.13.02-.287.09-.412.077a.201.201 0 0 1-.089-.03l-.016-.068c.133-.324.477-.539.787-.71-.252.01-.494.225-.743.199a.38.38 0 0 1-.094-.022c-.023-.01-.029-.03-.026-.052a.19.19 0 0 1 .021-.064c.217-.412.688-.762 1.063-1.006.188-.123.376-.222.59-.288a.527.527 0 0 1 .216-.016l.076.01c-.077-.183-.235-.415-.217-.58.01-.096.078-.168.253-.197a.624.624 0 0 1 .57.206c.026-.166.061-.33.112-.488.108-.341.335-.985.702-1.123a.136.136 0 0 1 .061-.008c.042.005.08.028.074.077l-.001.01a5.317 5.317 0 0 0-.083.503 2.507 2.507 0 0 0-.015.312c.083-.253.194-.493.38-.687.271-.28.593-.555.969-.658a.133.133 0 0 1 .049-.005c.037.004.065.027.061.07a.107.107 0 0 1-.007.028c-.074.198-.158.398-.234.601.205-.349.452-.662.8-.91.296-.212.657-.48 1.034-.643.113-.057.228-.11.346-.158.202-.08.434-.211.647-.189a.41.41 0 0 1 .227.098c.025.021.034.044.031.072a.126.126 0 0 1-.008.032 1.709 1.709 0 0 1-.13.26c.118-.07.237-.13.369-.174.175-.06.34-.09.514-.103.233-.065.468-.124.703-.188 1.044-.289 2.165-.254 3.23-.145l.014.002c1.026.108 2.133.46 3.093.83 3.734 1.435 5.395 4.902 5.613 8.81-.078-1.39-.338-2.722-.81-3.927.135.579.21 1.176.235 1.78.039.93-.017 1.861-.033 2.792-.008.449-.024.898.069 1.339.086.41.239.795.421 1.169l-.028.054a.81.81 0 0 1-.218.005c-.246-.026-.497-.15-.689-.289a1.87 1.87 0 0 1-.372-.36c.01.464-.035.935-.201 1.37l-.064.01c-.152-.24-.22-.518-.31-.786.08.56-.017 1.192-.315 1.64a.034.034 0 0 1-.033.016.038.038 0 0 1-.034-.032c-.024-.152-.045-.305-.067-.459.257-1.306.26-2.67.016-4.001a3.37 3.37 0 0 0 .103-.756c.235.294.493.565.804.767a.043.043 0 0 0 .018.006c.02.002.04-.01.041-.034.035-1.577-.868-3.09-1.785-4.27l-.193-.248a9.693 9.693 0 0 0-1.087-1.328c-1.226-1.249-2.754-2.01-4.425-2.381a8.82 8.82 0 0 0-.998-.163 10.602 10.602 0 0 0-2.912.12c-.453.079-.91.157-1.35.3l-.135.047c.062-.148.128-.294.201-.436l-.04-.052c-1.152.24-2.37 1.104-2.81 2.281.017-.259.04-.518-.015-.772l-.06-.024c-.378.27-.543.746-.641 1.198-.071-.288-.081-.588-.148-.877l-.06-.023a1.778 1.778 0 0 0-.413 1.62c-.181-.039-.355-.136-.526-.197a.983.983 0 0 0-.236-.056.806.806 0 0 0-.377.049l-.014.059c.247.275.516.527.672.87a1.472 1.472 0 0 0-.367-.09c-.224-.023-.45.01-.653.128-.027.016-.03.059.001.07.256.1.478.232.633.465-.89.021-1.783.48-2.352 1.193-.022.027 0 .057.028.06.005 0 .011 0 .016-.003.131-.048.3-.095.465-.103a6.14 6.14 0 0 0-.891 1.523c-.011.027.008.049.031.051.006 0 .012 0 .018-.002.307-.11.584-.292.883-.42-.603.753-1.232 1.553-1.42 2.534-.006.023.012.038.031.04a.04.04 0 0 0 .028-.007c.262-.197.496-.43.739-.65-.453.806-.967 1.656-.971 2.61 0 .02.016.04.035.043.008 0 .017-.002.025-.01.274-.287.559-.562.837-.845-.349.686-.436 1.517-.425 2.274.01.84.154 1.762.612 2.468l.063-.01c.094-.262.138-.538.2-.808.15.743.356 1.39.568 1.93.532 1.355 1.179 2.255 1.492 2.645-.544-.452-1.031-.958-1.304-1.642.019.39.103.765.22 1.139.008.025-.013.059-.037.056a.03.03 0 0 1-.018-.01c-.438-.425-.634-.99-.832-1.56.02.458.133.923.384 1.298.02.03-.004.066-.033.063a.038.038 0 0 1-.018-.007 5.405 5.405 0 0 1-.698-.619c.99 1.867 2.76 3.13 4.738 3.813m-1.8-2.065a.031.031 0 0 1-.017-.006 36.113 36.113 0 0 1-.258-.198.144.144 0 0 0 .069-.04.158.158 0 0 0 .004-.218c-.01-.01-.93-1.008-1.623-2.78-.05-.127-.1-.261-.149-.402.555-.48.642-1.398.665-2.09a9.71 9.71 0 0 0-.01-.865c.13.25.286.49.465.699a.04.04 0 0 0 .025.013.037.037 0 0 0 .04-.034c.058-.61-.034-1.223-.134-1.826.086.178.204.336.371.454a.039.039 0 0 0 .018.007c.02.002.04-.011.04-.034.05-.531-.051-1.055-.139-1.575-.098-.578-.146-1.144-.07-1.73.023-.164.053-.325.09-.485.048.18.105.358.17.528l.058.014c.247-.261.37-.62.456-.967.057-.232.095-.471.112-.712.026.14.057.28.097.417l.007.014c-.134.5-.226 1.01-.246 1.536 0 .024.015.04.033.041.015.002.03-.005.038-.023l.028-.058a8.745 8.745 0 0 0 1.403 7.846A5.988 5.988 0 0 0 8.678 21.1c.039.04.078.08.118.118.025.024.014.074-.026.07-.515-.06-1.086-.263-1.446-.668.19.396.428.764.647 1.144.018.031-.016.056-.042.053h-.005c-.74-.186-1.348-.805-1.69-1.523.097.269.21.533.25.82l-.051.043c-.23-.109-.42-.306-.587-.499-.201-.233-.381-.486-.541-.751.006.285.015.57.026.854.001.024-.018.048-.04.046a.033.033 0 0 1-.018-.008 1.83 1.83 0 0 1-.52-.818c.123.731.43 1.416.774 2.068.015.028-.013.056-.04.053m4.226-1.304c-.482-.05-.956-.24-1.365-.492a4.54 4.54 0 0 1-.564-.408c.056.099.115.196.176.292a5.587 5.587 0 0 1-.698-.755 8.434 8.434 0 0 1-1.646-6.231c.001.139.008.278.022.418.002.02.015.03.03.031.02.002.04-.01.043-.033.06-.464.331-.853.646-1.176-.304.897-.534 1.925-.023 2.777l.064-.01c.207-.546.396-1.099.596-1.647-.03.356.029.713.225 1.015l.06-.002c.558-.706 1.017-1.59 1.202-2.512.074.258.185.502.34.71a.035.035 0 0 0 .024.014c.017.002.034-.007.039-.024.16-.586.335-1.168.497-1.753-.014.388.013.776.088 1.157.004.019.018.03.034.031a.036.036 0 0 0 .037-.023 4.73 4.73 0 0 1 1.631-2.088c-.069.21-.133.424-.212.63-.01.028.008.05.03.052.01 0 .02-.001.028-.008.547-.38 1.236-.485 1.884-.475a6.585 6.585 0 0 0-.783.46c-.032.022-.007.064.023.067h.006c.163-.01.325-.007.485.01a2.638 2.638 0 0 1 1.462.627c.552.477.842 1.2.856 1.94 0 .022.017.04.036.043.01.001.021-.004.03-.017.253-.374.485-.834.605-1.31.129.554.22 1.118-.003 1.654-.011.027.008.047.03.05a.038.038 0 0 0 .034-.014c.44-.538.903-1.18 1.023-1.894.033.348 0 .7-.037 1.05a.036.036 0 0 0 .032.04.04.04 0 0 0 .028-.006c.618-.43.732-1.165.635-1.867.21.844.241 1.782.084 2.783a6.389 6.389 0 0 1-.018.11c-.4.901-1.06 1.632-1.823 2.22a.037.037 0 0 1-.026.007c-.023-.003-.045-.025-.031-.05.172-.337.383-.699.398-1.086-.225.536-.584 1.1-1.15 1.247l-.042-.042c.075-.322.217-.622.278-.947-.302.28-.55.625-.878.873-.359.27-.77.36-1.205.315h-.003c-.94-.1-1.335-.953-1.518-1.817-.006-.03.018-.046.04-.044a.037.037 0 0 1 .03.021c.085.176.209.31.366.408-.1-.302-.078-.615-.045-.935a.038.038 0 0 1 .042-.033.034.034 0 0 1 .028.021c.105.255.185.517.237.789.667-.521.657-1.839.03-2.382-.112.264-.096.537-.033.815.007.03-.017.046-.04.043a.037.037 0 0 1-.033-.03c-.113-.532-.53-.794-.974-.993.196.235.362.49.435.8l-.05.042c-.235-.114-.456-.256-.693-.365-.05.715-.202 1.424-.042 2.135.006.027-.02.047-.043.045a.03.03 0 0 1-.022-.014c-.183-.28-.267-.6-.325-.926-.078.325-.13.655-.144.99a5.96 5.96 0 0 0 .198 1.687l-.05.042a1.136 1.136 0 0 1-.496-.404c.01.061.023.122.037.183.1.238.2.477.28.722.045.076.093.149.145.22-.885-.649-1.22-1.657-1.202-2.539.02-1.061.432-2.545 1.524-3.232.432-.272 1.087-.481 1.678-.42.36.039.697.177.944.465.395.458.591 1.093.539 1.744-.05.613-.31 1.148-.734 1.505a.159.159 0 0 0-.023.217.144.144 0 0 0 .208.021c.488-.41.787-1.022.843-1.72.06-.734-.163-1.453-.612-1.974-.298-.345-.705-.52-1.145-.567-.624-.066-1.314.129-1.85.466-.783.493-1.633 1.67-1.668 3.492-.02 1.003.32 1.866.983 2.497.301.286.665.518 1.073.689.21.222.42.446.596.7.02.027 0 .062-.033.061a2.436 2.436 0 0 1-.194-.012c-.286-.03-.573-.117-.79-.307.1.245.185.495.192.767 0 .023-.019.049-.04.047a.031.031 0 0 1-.019-.01l-.01-.01c.132.265.204.549.165.844l-.06.027a2.659 2.659 0 0 1-.183-.165c.093.148.177.3.24.466l-.019.052a2.11 2.11 0 0 1-.997.123m8.282-3.2l-.064-.007c-.145-.379-.09-.813.011-1.198.065-.243.15-.481.253-.71a2.51 2.51 0 0 1-.703.561.034.034 0 0 1-.02.005c-.024-.002-.039-.037-.024-.062.166-.286.355-.558.517-.847a2.57 2.57 0 0 1-.498.51.036.036 0 0 1-.027.008c-.021-.003-.038-.026-.03-.052.14-.484.26-.973.347-1.467a4.15 4.15 0 0 0 .016-.625 7.301 7.301 0 0 0-.09-2.482c.284.749.343 1.561.292 2.362-.001.024.014.04.032.041a.04.04 0 0 0 .035-.014c.286-.33.469-.741.575-1.18.07.132.146.26.23.383l.059-.002c.283-.426.277-1.002.275-1.526.044.398-.004.806.062 1.204.003.02.017.03.032.032a.04.04 0 0 0 .035-.015c.387-.49.534-1.142.554-1.787.138.227.307.426.527.56a.043.043 0 0 0 .018.007c.019.002.036-.01.04-.033.117-.545.082-1.103.04-1.655.219.67.33 1.367.324 2.08l.043.041a1.09 1.09 0 0 0 .568-.401c.129.9.141 1.81.036 2.701a2.452 2.452 0 0 0-.097-.257c.013.344.01.7-.028 1.048a9.74 9.74 0 0 1-.302 1.147 2.21 2.21 0 0 1-.776.91.044.044 0 0 1-.028.007.034.034 0 0 1-.031-.03c-.063-.413-.052-.83-.073-1.246-.044.247-.134.49-.27.68-.163.228-.367.321-.582.298-.013 0-.025-.003-.037-.005l-.006.017c-.16.407-.425.83-.875.9l-.043-.041c.023-.188.07-.368.124-.548-.12.246-.265.477-.441.688" fill="#EC942F"/><path d="M5.213 20.973c-.108-.08-.214-.162-.319-.245-.306-.363-.94-1.201-1.463-2.459a10.352 10.352 0 0 1-.56-1.794 2.92 2.92 0 0 1 .091-.317c.03.577.144 1.176.417 1.685l.056.013c.039-.025.076-.052.11-.081.049.13.098.255.147.374.682 1.645 1.582 2.576 1.59 2.585a.142.142 0 0 1-.002.202.14.14 0 0 1-.067.037m3.364-.724a5.823 5.823 0 0 1-1.609-1.373c-1.59-1.975-2.147-4.586-1.488-6.985.027-.1.057-.2.088-.297.144-.28.343-.519.565-.74a3.807 3.807 0 0 0-.57 2.058 7.613 7.613 0 0 0 1.63 5.787c.205.254.433.489.682.702.204.302.436.586.702.848m2.112-2.665a3.493 3.493 0 0 1-1.046-.644c-.647-.588-.982-1.39-.968-2.32.026-1.69.847-2.777 1.605-3.23.52-.31 1.19-.488 1.796-.424.428.045.824.21 1.116.532.438.484.658 1.152.604 1.833-.052.647-.34 1.212-.812 1.591a.143.143 0 1 1-.181-.222c.41-.329.66-.823.706-1.392a2.162 2.162 0 0 0-.531-1.62c-.242-.268-.57-.398-.92-.435-.575-.06-1.21.131-1.629.381-1.058.632-1.451 2.006-1.466 2.99-.013.818.317 1.754 1.18 2.36.163.214.355.407.546.6m9.871-2.035c.119-.348.215-.703.288-1.062a3.167 3.167 0 0 1-.288 1.062m.576-1.033a4.594 4.594 0 0 0-.17-.763 9.259 9.259 0 0 0-.047-2.505 1.33 1.33 0 0 0 .213-.443c.244 1.235.247 2.5.004 3.711m-4.087-.796l.017-.102c.147-.928.112-1.798-.095-2.582a3.548 3.548 0 0 0-.087-.408 5.016 5.016 0 0 0-.172-.513 5.136 5.136 0 0 1 .57 1.025c.168.716.204 1.492.1 2.303a2.955 2.955 0 0 0-.022-.219 6.093 6.093 0 0 0-.05-.304 3.96 3.96 0 0 1-.261.8" fill="#DC7A2D"/><path d="M9.787 24.637c-.6-.063-1.18-.415-1.712-1.072.531.656 1.112 1.009 1.712 1.072.057.006.114.01.172.01h.001c-.058 0-.115-.004-.173-.01" fill="#F8D17B"/><path d="M10.258 23.986h-.002c.526.043 1.048.048 1.557.013 1.497-.102 3.04-.368 4.459-.907.364-.139.707-.343 1.063-.505 1.201-.544 2.063-1.399 2.963-2.366.252-.27.472-.6.66-.92a4.48 4.48 0 0 1 0 0c-.188.32-.408.65-.66.92-.9.967-1.762 1.822-2.963 2.366-.356.162-.699.366-1.063.505-1.419.539-2.962.805-4.459.907-.508.035-1.03.03-1.555-.013m13.425-12.949" fill="#A5432C"/><path d="M9.515 24.286a11.043 11.043 0 0 1-2.421-.532l-.008-.003a.274.274 0 0 1-.008-.003c-1.937-.669-3.671-1.904-4.64-3.73.211.222.44.426.683.605a.037.037 0 0 0 .018.007c.028.003.051-.033.032-.061-.246-.367-.356-.822-.376-1.27.194.557.386 1.11.814 1.527a.03.03 0 0 0 .018.009c.024.002.045-.03.037-.055a4.41 4.41 0 0 1-.216-1.114c.267.668.744 1.163 1.278 1.606.106.132.173.204.182.215a.14.14 0 0 0 .137.041l.253.194a.03.03 0 0 0 .016.006c.026.003.053-.024.039-.052-.337-.637-.637-1.307-.758-2.023.103.307.265.59.509.8a.032.032 0 0 0 .018.008c.02.002.04-.021.04-.045-.012-.278-.021-.556-.027-.835.157.259.333.507.53.735.163.189.35.381.575.487l.05-.041c-.039-.281-.15-.54-.245-.802.335.702.931 1.307 1.655 1.489h.005c.026.003.06-.02.042-.051-.215-.372-.449-.732-.635-1.12.354.397.912.596 1.416.654.04.004.05-.044.026-.068a5.163 5.163 0 0 1-.116-.116c.859.522 1.867.851 2.963.966.71.075 1.457.06 2.224-.05 3.138-.453 5.795-2.43 6.932-5.158.25-.601.439-1.227.564-1.867.022.15.042.3.066.448.003.018.018.03.033.031a.033.033 0 0 0 .032-.015c.292-.439.387-1.057.309-1.604.088.262.154.534.304.768l.062-.01c.163-.425.207-.885.196-1.34.105.135.228.253.365.353.188.136.434.257.675.283a.795.795 0 0 0 .213-.005l.028-.053a4.912 4.912 0 0 1-.413-1.143c-.09-.431-.075-.871-.067-1.31.015-.91.07-1.821.032-2.73a9.493 9.493 0 0 0-.23-1.742c.461 1.18.716 2.483.792 3.84v.004l.001.005c.013.242.021.485.023.73.008.843-.022 1.869.475 2.585.069.1.175.205.163.32a.211.211 0 0 1-.06.122c-.1.108-.27.145-.42.13a.564.564 0 0 1-.113-.023 1.97 1.97 0 0 1-.36-.161 2.937 2.937 0 0 1-.034.55c-.096.604-.102 1.237-.312 1.813-.152.418-.3.993-.614 1.318-.03.031-.107.086-.164.08a.066.066 0 0 1-.05-.031c-.09-.138-.115-.307-.16-.464l-.032-.104c.002.104-.001.208-.012.309-.03.289-.125.545-.35.666a.171.171 0 0 1-.087.02c-.017-.001-.031-.008-.04-.023-.053-.098-.074-.243-.101-.386l-.013.14a5.322 5.322 0 0 1-.009.096c-.014.14-.036.278-.075.414a4.52 4.52 0 0 1-.425 1.034 5.392 5.392 0 0 1-.677.936c-.925.983-1.81 1.851-3.045 2.404-.366.164-.718.372-1.093.512-1.458.547-3.045.816-4.585.918a10.727 10.727 0 0 1-1.834-.038m1.917-2.871c-1.445-.152-2.728-.688-3.697-1.557a6.548 6.548 0 0 1-.173-.285c.176.149.363.283.553.399.4.246.865.432 1.337.481.328.035.66.003.977-.12l.018-.05a2.594 2.594 0 0 0-.235-.457c.058.057.117.111.18.162l.057-.026a1.42 1.42 0 0 0-.16-.825l.01.01a.03.03 0 0 0 .017.008c.021.002.04-.023.04-.045-.008-.267-.09-.511-.188-.751.212.186.493.271.773.3.064.007.127.011.19.013a.038.038 0 0 0 .032-.061 5.867 5.867 0 0 0-.583-.684 4.27 4.27 0 0 0 1.197.3l.08.008c2.33.2 4.952-1.273 5.454-4.477l.033-.233c.011.204.004.408-.016.611-.085.484-.203.963-.34 1.435-.007.026.01.049.03.051a.036.036 0 0 0 .027-.008c.185-.14.346-.31.487-.498-.158.282-.343.549-.506.828-.014.024 0 .058.024.061.006 0 .013 0 .02-.004.262-.142.492-.327.687-.55-.1.224-.183.457-.247.695-.1.377-.153.801-.01 1.172l.062.006c.172-.206.313-.432.431-.672a3.181 3.181 0 0 0-.12.535l.041.04c.441-.067.7-.481.857-.88l.006-.016.036.005c.21.022.41-.068.57-.292.133-.186.221-.423.264-.665.021.406.01.815.072 1.218a.033.033 0 0 0 .03.03c.01 0 .02-.001.028-.007.35-.234.594-.54.76-.89a9.13 9.13 0 0 1-.245.658c-1.098 2.632-3.666 4.54-6.705 4.977a8.713 8.713 0 0 1-2.155.05m.36-3.488c-.742-.078-1.32-.31-1.76-.63a2.836 2.836 0 0 1-.14-.215c-.08-.24-.178-.473-.275-.707a3.04 3.04 0 0 1-.036-.178c.124.172.28.312.485.395l.05-.041a5.823 5.823 0 0 1-.194-1.65c.012-.328.064-.65.14-.968.057.32.139.632.318.905a.03.03 0 0 0 .022.014c.022.002.048-.018.042-.044-.157-.695-.008-1.388.04-2.088.233.106.45.245.68.357l.049-.041c-.071-.303-.234-.553-.427-.782.435.194.844.45.955.97a.037.037 0 0 0 .033.03c.021.003.045-.013.038-.042-.062-.272-.077-.54.033-.797.613.531.623 1.82-.03 2.33a4.013 4.013 0 0 0-.232-.772.033.033 0 0 0-.028-.021.037.037 0 0 0-.04.033c-.033.313-.054.618.044.914a.941.941 0 0 1-.358-.399.036.036 0 0 0-.03-.02c-.021-.002-.045.014-.04.042.18.845.568 1.68 1.487 1.777h.003c.427.045.829-.043 1.18-.307.321-.242.565-.58.86-.854-.06.318-.199.611-.273.926l.042.042c.554-.145.905-.696 1.126-1.22-.014.379-.22.732-.39 1.061-.013.026.008.047.031.05a.036.036 0 0 0 .026-.007c.746-.575 1.393-1.29 1.784-2.17-.514 2.948-2.953 4.302-5.123 4.115a4.65 4.65 0 0 1-.093-.008m9.041-3.318c.037-.34.04-.688.028-1.025.036.082.067.166.094.251a9.86 9.86 0 0 1-.122.774" fill="#E7792B"/><path d="M4.83 20.822a.143.143 0 0 1-.09-.046 4.106 4.106 0 0 1-.188-.22c.108.09.217.176.328.262a.143.143 0 0 1-.05.004m6.563.189c-1.123-.118-2.156-.455-3.036-.988a5.879 5.879 0 0 1-.72-.91c.992.888 2.307 1.437 3.788 1.592a8.96 8.96 0 0 0 2.208-.05c3.114-.446 5.746-2.392 6.87-5.08.091-.22.175-.444.25-.67a3.55 3.55 0 0 0 .302-1.146c.052-.261.094-.525.125-.79.085.264.131.542.172.82a9.9 9.9 0 0 1-.578 1.907c-1.164 2.786-3.886 4.803-7.102 5.264a9.261 9.261 0 0 1-2.279.05m.384-3.56a4.39 4.39 0 0 1-1.226-.307c-.197-.207-.394-.414-.561-.644.45.328 1.042.564 1.802.644l.095.01c2.224.191 4.722-1.192 5.249-4.202a3.927 3.927 0 0 0 .272-.862c.02.109.037.217.051.327.01.078.017.156.021.235l-.033.237c-.513 3.273-3.2 4.776-5.587 4.57l-.083-.008" fill="#D7662C"/></g></svg>