<svg width="130" height="120" xmlns="http://www.w3.org/2000/svg"><g fill="none" fill-rule="evenodd"><path d="M66.634 34.73c.045-.586.075-1.174.104-1.76l.389-7.834a83.02 83.02 0 0 0 4.367 15.544c1.137 2.921 3.126 5.38 5.999 6.713 2.139.994 6.493 2.162 8.759 1.316a312.426 312.426 0 0 0 32.939-14.502c-4.51 2.587-9.02 5.174-13.526 7.766-4.698 2.702-10.94 5.916-12.871 11.376-2.573 7.276 6.156 11.106 11.677 13.37 4.537 1.86 9.315 3.046 14.074 4.227-7.64-2.339-15.592-3.874-23.57-4.398-6.331-.416-8.432 5.961-9.468 11.188-1.166 5.882-1.194 11.201-.114 17.131 1.04 5.713 2.527 11.414 2.402 17.22-2.407-6.548-5.071-13-7.985-19.338-2.26-4.917-4.694-11.81-10.26-13.88-6.374-2.372-13.78 2.177-18.5 6.046A136.93 136.93 0 0 0 29.347 107.3l12.04-15.68c3.352-4.366 7.912-9 8.1-14.866.153-4.758-4.475-7.17-8.157-9.064-5.045-2.594-11.647-2.065-17.11-1.803l-9.488.455a137.872 137.872 0 0 1 18.37-3.046c5.014-.484 8.647-3.129 10.449-8.096 1.093-3.014.854-6.988-.871-9.739-1.07-1.707-2.588-3.077-4.086-4.424L27.007 30.62a220.574 220.574 0 0 0 15.225 10.794c4.49 2.907 8.942 5.801 14.559 4.762 4.18-.774 7.963-3.823 9.23-7.88.36-1.156.52-2.356.613-3.565" fill="#AC2A2C"/><path d="M69.157 45.405c.122-.619.209-1.244.214-1.878a5.165 5.165 0 0 0-.214 1.878M85.634 63.408c-1.151-.155-2.216-.694-3.19-1.325-1.107-.717-2.166-1.609-2.7-2.815-1.45-3.283 2.782-6.363 5.79-6.072-2.423-.235-4.872-.165-7.29-.473-2.415-.307-4.863-1.037-6.695-2.643-1.348-1.182-2.281-2.916-2.392-4.675-.59 2.99-2.466 5.718-5.017 7.373-3.734 2.422-7.845 1.097-11.863.006 2.419.791 3.04 4.196 1.834 6.435-1.208 2.24-3.572 3.564-5.813 4.77 1.392-.644 2.822-1.297 4.352-1.41 1.529-.115 3.203.423 4.03 1.714.534.831.655 1.855.717 2.84a32.322 32.322 0 0 1-.39 7.43c1.956-3.609 4.724-7.59 8.826-7.743 2.78-.104 5.349 1.726 6.894 4.042 1.125 1.686 1.802 3.608 2.354 5.57-1.066-4.01-1.861-8.024 2.37-10.749.144-.092.289-.18.436-.265 1.717-.987 3.676-1.454 5.663-1.748l1.033.422-.781-.457a58.317 58.317 0 0 1 1.832-.227" fill="#F4DA47"/><path d="M80.258 66.063c-1.336-1.3-3.173-3.115-1.737-4.879 1.132-1.392 3.21-1.976 4.875-2.382a150.48 150.48 0 0 1 18.906-3.348L79.797 56.73c-1.1.062-4.088.563-4.915-.32-.988-1.056.158-2.876.81-3.773 1.682-2.31 3.24-4.438 4.576-6.932 1.24-2.315 3.6-3.908 4.697-6.296-4.885 4.9-9.727 9.774-14.915 14.356-.451.4-.932.811-1.522.933-1.226.255-2.3-.802-3.08-1.78a64.95 64.95 0 0 1-6.41-9.708c.54 1.004.693 2.711 1.075 3.834.669 1.97 2.632 6.184-.161 7.485-.732.341-1.576.314-2.382.26-7.678-.512-15.263-2.773-22.937-2.205a103.385 103.385 0 0 1 18.41 5.071c.82.31 2.107.564 2.796 1.103.49.384.56.943.944 1.368 1.74 1.928-5.01 8.434-6.317 9.854a278.588 278.588 0 0 1-12.012 12.27c1.658-.508 3.039-1.642 4.373-2.75l11.629-9.658c1.435-1.192 2.878-2.389 4.482-3.342 1.24-.736 2.91-1.29 4.04-.396.517.407.798 1.037 1.035 1.65.719 1.855.943 3.863 1.683 5.694.66 1.636 1.109 2.948 1.172 4.775.078 2.24-.152 4.834 1.497 6.353a140.27 140.27 0 0 1-.97-18.118c.012-1.028.056-2.124.642-2.969.82-1.18 2.495-1.495 3.883-1.125 1.388.37 2.557 1.281 3.684 2.171L91.938 77.43l-11.68-11.367" fill="#F7E188"/><path d="M102.097 14.57l-2.657 4.131a26.052 26.052 0 0 1 6.178-13.63c.362.234.364.757.3 1.184-.454 3.041-2.157 5.73-3.821 8.315M127.864 87.018a32.247 32.247 0 0 0-6.516.611 26.939 26.939 0 0 0 5.714 1.393c.547.071 1.13.12 1.626-.125.494-.245.829-.892.549-1.368-.26-.44-.861-.507-1.373-.51M31.346.448c.686-.677 1.884-.53 2.647.06.762.59 1.194 1.5 1.599 2.374l5.572 12.035c-3.661-3.323-7.391-6.746-9.696-11.12-.56-1.063-.977-2.506-.122-3.349M13.245 79.322c-3.957-.609-7.767 1.518-11.19 3.593-1.098.665-2.36 1.725-1.99 2.954 2.012.216 3.955-.762 5.634-1.89 1.679-1.128 3.277-2.455 5.197-3.09.937-.31 2.108-.61 2.349-1.567M65.798 119.486a29.38 29.38 0 0 0-2.05-11.795c-.648 2.496-1.3 5.013-1.44 7.588-.06 1.12-.005 2.308.598 3.252.604.944 1.919 1.512 2.892.955" fill="#AC2A2C"/><path d="M15.153 47.808c.126.526.752.73 1.284.83 2.969.557 6.024.657 9.024.296 1.155-.139 2.355-.343 3.459.022a583.02 583.02 0 0 0-8.48-2c-1.271-.29-2.572-.578-3.865-.425-.718.085-1.591.575-1.422 1.277M51.888 30.104c-.75-1.586-1.415-3.2-1.458-4.99-.005-.232 0-.472.103-.678.102-.207.329-.369.556-.325a.763.763 0 0 1 .316.176c2.962 2.425 3.913 7.417 3.536 11.031.054-.516-1.215-1.996-1.501-2.467-.53-.868-1.064-1.722-1.498-2.635l-.054-.112" fill="#F7E188"/><path d="M118.434 53.708a140.748 140.748 0 0 1-11.122-.84 20.57 20.57 0 0 1 10.96-1.11c.408.07.832.162 1.153.424.32.262.497.747.286 1.104-.241.406-.805.44-1.277.422" fill="#F4DA47"/><path d="M27.985 90.238a46.035 46.035 0 0 1 5.28-5.63l-3.878 1.683c-1.273.553-2.571 1.121-3.6 2.052-1.028.932-1.757 2.308-1.558 3.681.65.398 1.52.25 2.165-.158.645-.407 1.117-1.03 1.59-1.628M100.047 85.231a51.222 51.222 0 0 1 3.804 4.94c.895 1.321 1.958 2.828 3.548 2.947.345-.777-.23-1.636-.796-2.27a32.283 32.283 0 0 0-6.556-5.617" fill="#F7E188"/><path d="M94.125 59.932c-.13-1.886-.841-3.756-2.132-5.137-1.291-1.38-3.18-2.23-5.067-2.113a6.77 6.77 0 0 0-.02-5.617 6.77 6.77 0 0 0-4.3-3.612c-1.112-.3-2.282-.309-3.432-.235-.947.06-1.92.185-2.748.651-.807.455-1.428 1.277-1.423 2.228.467-2.758-1.505-6.389-3.836-7.752-2.15-1.258-4.814-1.419-7.246-.88-2.172.481-4.562 1.687-6.198 3.208-.666.618-2.275 4.062-1.716 5.517-1.507-1.187-3.384-1.925-5.452-1.925a8.854 8.854 0 0 0-8.854 8.853c0 .312.06.607.092.91-.242 1.743.27 3.38 1.847 4.558.195.246.379.501.598.724-2.507.87-4.261 3.597-3.918 6.24.37 2.861 2.91 4.864 5.678 5.097-.228 1.45-1.082 2.533-1.106 4.068-.028 1.8.522 3.654 1.548 5.132 2.822 4.063 7.907 4.532 12.148 2.832-.662 2.194.235 4.334 1.982 5.74a8.842 8.842 0 0 0 7.314 3.871c3.578 0 6.643-2.134 8.039-5.189l.092-.17.036-.077c.076-.175.11-.302.156-.393a7.235 7.235 0 0 0 3.918 1.16 7.292 7.292 0 0 0 7.292-7.292c0-1.209-.322-2.332-.843-3.335 1.074-.024 2.143-.382 2.984-1.053 1.203-.959 2.233-3.036 2.426-4.567.132-1.047-.946-4.927-2.47-4.849 1.493-.077 2.863-1.022 3.656-2.288.794-1.266 1.056-2.814.955-4.305" fill="#F4EED5"/><path d="M94.125 59.931c-.13-1.887-.841-3.757-2.132-5.138-1.291-1.38-3.18-2.23-5.067-2.113a6.77 6.77 0 0 0-.02-5.617 6.77 6.77 0 0 0-4.3-3.612c-1.112-.3-2.282-.309-3.432-.235-.947.06-1.92.185-2.748.651-.807.455-1.428 1.277-1.423 2.23.467-2.76-1.505-6.39-3.836-7.754-2.15-1.258-4.814-1.419-7.246-.88-2.172.481-4.562 1.687-6.198 3.207-.666.62-2.275 4.063-1.716 5.52-1.507-1.189-3.384-1.927-5.452-1.927a8.854 8.854 0 0 0-8.854 8.854c0 .312.06.606.092.91-.185 1.335.078 2.606.918 3.66a13.004 13.004 0 0 1 2.49-1.399c.099-.043.268-.992.32-1.142.13-.362.283-.716.463-1.055a7.019 7.019 0 0 1 1.27-1.717c.995-.982 2.273-1.622 3.623-1.95.836-.204 1.753-.37 2.607-.37-.294.34-.415.798-.466 1.246a5.041 5.041 0 0 0 .655 3.092c.105-1.205.85-2.245 1.57-3.218 1.008-1.36 1.642-2.984 3.343-3.577 1.799-.628 3.769-.447 5.655-.18-1.6-1.486-3.954-2.112-6.08-1.616.899-1.319 2.294-2.253 3.805-2.767 1.51-.513 3.135-.627 4.728-.529 1.402.087 2.83.35 4.026 1.085.723.445 1.348 1.083 1.734 1.843.168.332.364.765.369 1.145.009.547-.055.455-.586.48-1.548.073-3.241.484-4.188 1.82 3.602-.912 7.652.236 10.24 2.901.463-1.846-.693-3.949-2.498-4.55.756.242 2.05-.177 2.866-.173 4.318.02 6.736 2.891 7.47 6.362 2.218.877 4.18 2.54 5.189 4.701 1.319 2.828 1.068 5.501-.063 7.878a5.08 5.08 0 0 0 1.917-1.76c.794-1.267 1.056-2.815.955-4.306" fill="#FFFEF8"/><path d="M86.024 74.595c-.37.132-.755.232-1.138.336l.045.094c1.06 2.544.527 5.705-1.421 7.688-2.517 2.562-5.845 2.85-9.156 1.946-.146-.04-.274-.097-.411-.145-.903 1.343-2.412 2.255-4.124 2.255h-.214c-1.214 0-2.324-.468-3.198-1.208a4.745 4.745 0 0 1-3.001-.285c-1.911-.703-3.31-2.683-3.31-4.726 0-.595.116-1.144.304-1.654-2.75.944-5.902.801-8.184-.846-2.653-1.915-3.871-4.972-3.55-8.084-2.108.02-4.201-.76-5.761-2.247a7.286 7.286 0 0 1-2.223-4.358l-.125-.145c-.236.753-.34 1.545-.237 2.334.37 2.861 2.91 4.864 5.678 5.097-.228 1.45-1.082 2.533-1.106 4.068-.028 1.8.522 3.654 1.548 5.132 2.822 4.063 7.907 4.532 12.148 2.832-.662 2.194.235 4.334 1.982 5.74a8.842 8.842 0 0 0 7.314 3.871c3.578 0 6.643-2.134 8.039-5.189l.092-.17.036-.077c.076-.175.11-.302.156-.393a7.235 7.235 0 0 0 3.918 1.16 7.292 7.292 0 0 0 7.292-7.292c0-1.209-.322-2.332-.843-3.335 1.074-.024 2.143-.382 2.984-1.053.61-.485 1.173-1.259 1.607-2.102-1.604.607-3.36.878-5.141.756" fill="#80B0B6"/><path d="M61.752 77.915c-1.166-.259-2.24-.924-2.958-1.918a5.13 5.13 0 0 1-.928-3.563c-.093.792-.467 1.453-.392 2.271.08.875.503 1.736.972 2.471.153.24.32.472.52.674.289.291.639.513.992.721.709.417 1.514.803 2.358.786.765-.015 1.335-.45 2.007-.81.769-.41 1.298-1.264 2.008-1.646-.7.376-1.405.755-2.171.964a5.021 5.021 0 0 1-2.408.05M47.499 68.305c-.02.416.01.847.196 1.22.198.396.553.691.926.931a5.999 5.999 0 0 0 5.13.62c-.588.14-1.198-.07-1.766-.278-1.073-.395-2.19-.835-2.928-1.709a3.443 3.443 0 0 1-.758-2.714c-.557.453-.765 1.213-.8 1.93M78.616 75.92c1.702.227 3.548-.247 5.037-1.067 1.682-.926 2.413-2.265 2.469-4.128.044-1.445-.105-3.435-1.373-4.38.756.563 1.492 1.207 1.897 2.06.6 1.263 1.012 3.397.767 4.771-.346 1.945-2.02 3.4-3.888 3.831-2.022.466-4.337.12-5.811-1.34.664.194.219.358.902.252" fill="#80B0B6"/><path d="M71.682 55.184a5.13 5.13 0 0 0-.673.155c-1.032.31-2.02 1.008-2.346 2.034-1.34-3.625-5.862-3.543-8.797-2.102.766-.376 2.823.427 3.524.766 1.117.541 2.229 1.36 3.025 2.312.834 1 1.362 2.315 1.177 3.603a6.27 6.27 0 0 1 3.717-3.883c1.955-.728 5.67-.535 6.45 1.812.335-1.606-1.285-3.375-2.581-4.094a5.469 5.469 0 0 0-3.496-.603" fill="#FFFEF8"/></g></svg>