<svg width="22" height="27" xmlns="http://www.w3.org/2000/svg"><g fill="none" fill-rule="evenodd"><path fill="none" d="M-4 27h30V-4H-4z"/><path d="M15.195 2.645c.083.05.153.113.211.19.223.306.338.663.344 1.071l.077.813a8.885 8.885 0 0 1 1.87 1.847c.103.134.18.279.232.434.257.805.384 1.636.38 2.49.367.212.723.455 1.069.73.24.182.438.399.596.649.017.028.025.06.025.095a3.268 3.268 0 0 1-.678 2.09 8.387 8.387 0 0 1-.986 1.103c-.432.408-.869.806-1.31 1.193a49.356 49.356 0 0 0-1.675 1.54 7.143 7.143 0 0 0-1.388 1.832c-.242.458-.49.914-.745 1.368-.147.27-.324.517-.534.739-.232.25-.47.496-.714.738-.507.507-1.055.965-1.644 1.373-.034.02-.068.04-.103.058a.674.674 0 0 1-.601-.264 4.412 4.412 0 0 1-.57-.918 8.264 8.264 0 0 0-.33-.64 2.096 2.096 0 0 0-.18-.274 12.835 12.835 0 0 0-1.124-1.309 2.383 2.383 0 0 1-.663-1.219c-.476-.33-.95-.674-1.423-1.03a19.914 19.914 0 0 0-1.66-1.14 6.691 6.691 0 0 1-1.449-1.192 1.37 1.37 0 0 1-.241-.364 10.55 10.55 0 0 1-.632-1.9 24.83 24.83 0 0 1-.329-1.763 1.959 1.959 0 0 1 .046-.787 4.255 4.255 0 0 1 .894-1.715c.377-.437.724-.89 1.043-1.362.38-.552.807-1.064 1.28-1.536a3.04 3.04 0 0 1 .693-.533 11.35 11.35 0 0 1 1.783-.776.688.688 0 0 0 .257-.164c.466-.485.966-.936 1.5-1.35.22-.173.465-.314.735-.423.62-.24 1.26-.352 1.921-.338.463.01.924.04 1.382.09.607.032 1.205.109 1.794.232.305.056.587.164.847.322" fill="#5C5C5C"/><path d="M14.702 2.026c.28.257.545.528.797.813.214.243.305.537.274.883.052.211.185.356.398.434.042.014.08.038.114.07.408.374.646.843.714 1.407.3.018.587.091.859.22a1.7 1.7 0 0 1 .533.428c.172.2.279.433.32.7.073.465.078.941.016 1.43a.569.569 0 0 0 .031.284c.162.417.178.85.047 1.3a5.863 5.863 0 0 1 1.008-.128c.266-.022.528.012.787.101a.473.473 0 0 1 .31.268c.07.146.098.307.088.482-.01.17-.017.347-.02.53a4.265 4.265 0 0 1-.13.995.558.558 0 0 1-.104.203 6.586 6.586 0 0 1-1.143 1.033c-.114.086-.22.179-.32.278-.152.143-.309.22-.471.23a.591.591 0 0 1 .026-.449.656.656 0 0 0 .062-.268c.004-.46-.001-.92-.016-1.38a.502.502 0 0 1-.103-.054 2.525 2.525 0 0 1-.373-.326.486.486 0 0 0-.533-.156c-.5.129-.96.36-1.38.69a.272.272 0 0 1-.25.06.113.113 0 0 1-.077-.07 4.704 4.704 0 0 0-.114-.251l-.92.808-.088-.011-.057-.15a.296.296 0 0 1-.067-.144 2.092 2.092 0 0 1-.026-.482 2.791 2.791 0 0 0-.068-.781 3.2 3.2 0 0 0-.977-1.66c-.193.05-.388.092-.585.124a.205.205 0 0 1-.233-.08 1.194 1.194 0 0 1-.201-.525c-.069-.5-.307-.882-.714-1.146l-1.185-.042a5.272 5.272 0 0 0-.29.267c-.347.357-.696.714-1.045 1.07a8.182 8.182 0 0 1-1.991 1.467 2.277 2.277 0 0 1-1.795.177 1.6 1.6 0 0 1-.797-.509 4.189 4.189 0 0 1-.962-2.055 4.119 4.119 0 0 1-.016-1.343c.077-.518.274-.99.595-1.418a.888.888 0 0 1 .378-.295.45.45 0 0 1 .274-.01 3.36 3.36 0 0 1 .497.026.986.986 0 0 1 .32-.032c.197 0 .336-.102.414-.305a6.4 6.4 0 0 1 .807-1.466c.342-.46.794-.701 1.356-.723.3-.021.51.1.63.364.263-.232.513-.467.75-.706.122-.115.248-.223.378-.327.243-.2.497-.378.766-.535.238-.146.49-.241.755-.284a2.529 2.529 0 0 1 1.81.29 5 5 0 0 1 .937.679zM3.404 7.747c.11 0 .194.05.248.15.197.353.225.719.083 1.097 0 .09.002.179.005.268a5.671 5.671 0 0 0 1.454 3.612c.1.118.209.229.326.332.304.25.559.54.766.873-.397.16-.79.338-1.18.535-.151.078-.28.185-.383.32-.234.318-.42.673-.558 1.066a.984.984 0 0 1-.647-.343 8.892 8.892 0 0 1-.476-.572 4.423 4.423 0 0 1-.667-1.3 7.894 7.894 0 0 1-.362-1.954 8.788 8.788 0 0 1 .14-2.109 3.643 3.643 0 0 1 .858-1.777.521.521 0 0 1 .393-.198z" fill="#424242"/><path d="M15.632 1.465c.37-.1.738-.073 1.107.082.068.024.132.054.195.088.292.175.574.37.843.583.145.114.28.23.406.351.194.179.327.396.4.65a.31.31 0 0 1 0 .181 20.117 20.117 0 0 1-.653 1.698l.316.268c.345.282.601.625.77 1.027l.18-.144c.217-.186.435-.365.653-.537.26-.203.532-.408.816-.614.17-.128.342-.172.517-.134a.237.237 0 0 1-.005.19 4.838 4.838 0 0 1-.137.315c-.06.12-.117.243-.174.367-.165.358-.338.717-.517 1.078a30.48 30.48 0 0 1-1.154 2.152 5.22 5.22 0 0 1 1.391.062c.25.035.474.126.67.274.141.103.247.24.321.413.155.364.284.734.385 1.11.018.071.03.14.037.206a.36.36 0 0 1-.021.155c-.09.223-.222.418-.39.583-.411.42-.847.803-1.307 1.15l-.11-.072a.586.586 0 0 1 .058-.222c.056-.113.12-.23.189-.35.078-.124.152-.24.221-.346a.46.46 0 0 0 .048-.356 82.506 82.506 0 0 1-1.935 1.636c-.54.443-1.088.844-1.644 1.202.004-.038.026-.072.069-.103l.817-.702a1.82 1.82 0 0 0 .247-.248c.342-.395.658-.819.949-1.27.152-.23.287-.472.406-.727.116-.248.168-.51.158-.784a.824.824 0 0 0-.085-.336.931.931 0 0 0-.22-.32 2.015 2.015 0 0 0-.148.14c-.193.199-.381.399-.564.598a204.35 204.35 0 0 1-2.43 2.627c-.006.003-.021.003-.042 0-.038-.017-.056-.043-.053-.077a1.04 1.04 0 0 1 .053-.274c.116-.354.241-.709.374-1.063.07-.196.113-.4.127-.614.035-.534.11-1.058.226-1.574.134-.578.255-1.158.364-1.74a8.399 8.399 0 0 0 .068-.454 5.65 5.65 0 0 1 .048-.433c.042-.268.078-.533.105-.795l-.168.165c-.257.248-.527.5-.812.754-.105.1-.21.19-.316.273-.14.12-.27.243-.39.367a8.9 8.9 0 0 0-.564.64 7.922 7.922 0 0 1-.664.758l-.085-.02.459-2.013-.97 1.347a.188.188 0 0 1-.079-.15c-.01-.271.002-.536.037-.794.046-.31.087-.622.121-.935.06-.509.118-1.016.174-1.522.05-.454.105-.905.164-1.352a.888.888 0 0 0-.09-.552.6.6 0 0 0-.242-.243 1.575 1.575 0 0 0-.443-.16 6.26 6.26 0 0 0-1.391-.124 5.488 5.488 0 0 0-1.028.119l-.3.403-.153.185-.533.697c-.056.08-.108.16-.158.243a2.004 2.004 0 0 1-.627.619l-.121-.047.095-1.207c-.095.086-.188.168-.28.248-.217.182-.433.363-.648.541a3.69 3.69 0 0 0-.933 1.13c-.119.217-.24.427-.363.63a2.514 2.514 0 0 1-.158.238l-.248-.676-.996 2.43c-.045 0-.082-.022-.11-.067a2.262 2.262 0 0 1-.201-.335 1.61 1.61 0 0 1-.09-.202c-.087-.237-.179-.474-.274-.712a5.638 5.638 0 0 0-.284-.609 4.698 4.698 0 0 0-.064 2.333 15.068 15.068 0 0 0 .475 1.626c.074.192.147.381.221.567.092.224.187.447.285.671.05.11.044.212-.016.305a1.807 1.807 0 0 1-.648-.475 18.29 18.29 0 0 0-.575-.599 2.397 2.397 0 0 0-.28-.227 2.518 2.518 0 0 1-.732-.8c-.137-.234-.28-.464-.432-.691l-.031.124c-.017.072-.03.142-.037.211a2.232 2.232 0 0 1-.069.361.306.306 0 0 1-.147.186l-.48-.15-.074.398a.964.964 0 0 0-.005.263c.025.196.058.389.1.578.053.22.113.444.18.67.035.121.014.22-.064.295a.21.21 0 0 0-.047.005.372.372 0 0 1-.137-.093.991.991 0 0 1-.153-.165 39.775 39.775 0 0 0-.285-.423c.022.08.035.16.043.243.028.423.049.846.063 1.27a1.741 1.741 0 0 0 .722 1.326c.168.123.339.26.51.412.106.097.216.196.328.3.292.258.583.51.874.758.159.134.296.29.411.465l-.026.093a.24.24 0 0 1-.18.02 7.159 7.159 0 0 1-1.675-.748 28.523 28.523 0 0 0-1.586-.898.777.777 0 0 1-.232-.196.391.391 0 0 1-.105-.207l-.116-.758a.81.81 0 0 1-.006-.243c.053-.406.2-.774.443-1.104a36.27 36.27 0 0 0-.527-.671 6.964 6.964 0 0 1-.754-1.146.575.575 0 0 1-.073-.258A7.477 7.477 0 0 1 .133 8.34c.095-.489.155-.982.18-1.481.017-.317.09-.614.215-.893.085-.193.204-.351.359-.475a.963.963 0 0 1 .274-.16c.429.058.826.212 1.19.46a.523.523 0 0 1-.005-.068c-.003-.485-.003-.97 0-1.455a.886.886 0 0 1 .164-.496c.137-.192.31-.35.522-.474a3.947 3.947 0 0 1 1.57-.516c.327.027.647.082.96.165.263.058.49.09.68.098.15-.29.283-.583.394-.883a1.37 1.37 0 0 1 .28-.459 3.34 3.34 0 0 1 .922-.67C8.38.772 8.918.52 9.456.271c.197-.096.4-.165.606-.206A3.676 3.676 0 0 1 11.79.15a35 35 0 0 1 1.886.598c.608.22 1.174.513 1.697.878l.18-.124a.62.62 0 0 1 .078-.036zm-2.34 3.715a.6.6 0 0 0 .217-.051.478.478 0 0 1 .247-.026c.211.048.342.182.39.403l-1.981 6.383a.725.725 0 0 1 .374-.283c.084-.018.15.006.195.072.2.265.353.566.458.903.137-.155.277-.31.417-.465a15.51 15.51 0 0 0 1.017-1.259 17.675 17.675 0 0 0 1.65-2.756c.025-.048.056-.069.094-.062.01.018.018.038.021.062.036.169.053.329.053.48 0 .104-.011.207-.037.31a35.85 35.85 0 0 1-.98 3.313 2.85 2.85 0 0 0 .137-.222c.1-.172.23-.273.395-.304a.225.225 0 0 1 .058.232 71.058 71.058 0 0 1-1.776 5.527c.257-.416.542-.815.854-1.197a8.15 8.15 0 0 0 .174-.227c.116-.165.257-.246.421-.243a.24.24 0 0 1 .043.227 6.867 6.867 0 0 1-.59 1.363 15.818 15.818 0 0 0-1.487 3.607c-.08.3-.132.602-.153.908-.02.324-.09.639-.21.945-.148.375-.357.72-.628 1.037a1.25 1.25 0 0 0-.279.563c-.18.853-.322 1.713-.432 2.58H9.245a9.877 9.877 0 0 0-.364-2.854 1.15 1.15 0 0 0-.079-.201 7.558 7.558 0 0 0-.864-1.28 3.75 3.75 0 0 1-.643-1.135 1.035 1.035 0 0 1-.058-.393c.021-.502.015-1.025-.021-1.568a2.276 2.276 0 0 0-.18-.744 1.517 1.517 0 0 0-.358-.531 31.842 31.842 0 0 1-1.607-1.595l.032-.119a.523.523 0 0 1 .432.047c.45.251.921.39 1.412.418a5.145 5.145 0 0 1-.321-.846 20.083 20.083 0 0 1-.548-2.54 15.278 15.278 0 0 0-.174-.954c-.046-.21-.05-.41-.016-.599a.392.392 0 0 1 .163.165c.538.991 1.085 1.972 1.64 2.942l-.928-2.544 1.802 1.341c.211-1.107.338-2.23.38-3.364a4.416 4.416 0 0 0-.037-.785.598.598 0 0 1 .074-.387l.463.692c.026-.165.045-.324.058-.475.015-.127.018-.256.01-.387a33.387 33.387 0 0 1 0-2.906 4.588 4.588 0 0 0 0-.34.836.836 0 0 1 .19-.594c.022.014.037.03.048.047.137.23.241.48.31.748.198.723.435 1.436.712 2.142l.19-.47a.285.285 0 0 1 .048.16c.004.595.093 1.182.268 1.76.124-.361.248-.724.375-1.089.236-.685.418-1.387.548-2.106a.728.728 0 0 0 0-.253 4.031 4.031 0 0 0-.064-.31.61.61 0 0 0-.29-.407c-.333.1-.584.308-.753.625a.989.989 0 0 1-.39.402c-.063-.055-.085-.13-.069-.227.103-.585.16-1.168.174-1.75.036-.1.103-.15.2-.15.226 0 .437.063.633.187a2.883 2.883 0 0 0 1.65.407zm-7.73 6.39c-.043-.097-.044-.097-.006 0h.005z" fill="#919191"/><path d="M11.782 15.428c.205-.117.375-.075.506.126.178.276.313.568.407.877.14.454.196.921.168 1.401-.007.121-.027.24-.058.358-.17.592-.295 1.191-.376 1.8a.312.312 0 0 0-.057.025l-.037-.036a1.254 1.254 0 0 1-.151-.78 4.036 4.036 0 0 0-.006-1.145.315.315 0 0 0-.276-.287c-.34-.024-.61.09-.804.343a.886.886 0 0 0-.157.312 4.402 4.402 0 0 0-.162 1.462l-.089.005a.34.34 0 0 1-.11-.131.563.563 0 0 0-.674-.373c-.294.07-.427.258-.396.564.036.32.198.573.486.761l.522-.363c0-.003.002-.005.005-.005a.565.565 0 0 1 .47.414l.136-.106c.209-.05.42-.07.632-.056a.48.48 0 0 1 .14.06.652.652 0 0 1 .304.545l1.002-2.117.763-2.605c.038.114.04.232.005.353l-.22.79a83.765 83.765 0 0 0-1.232 4.88.61.61 0 0 0-.01.221c.031.262.108.522.23.781.028.054.028.104 0 .151l-.413.716c.088.141.098.274.031.398l-.34.65c-.11.222-.164.456-.161.701 0 .181-.073.31-.22.383a.314.314 0 0 1-.03-.045.838.838 0 0 1-.079-.237.611.611 0 0 0-.277-.459.311.311 0 0 0-.318.126c-.24.333-.35.704-.33 1.114h-.47a8.12 8.12 0 0 1-.422-.812.741.741 0 0 1-.063-.236 7.953 7.953 0 0 0-.162-1.114.506.506 0 0 0-.172-.292.686.686 0 0 1-.256-.464 2.559 2.559 0 0 1 .068-.927c.146-.558.229-1.131.245-1.72a.058.058 0 0 0-.01-.034 2.264 2.264 0 0 0-.61-.792.343.343 0 0 0-.105.026c-.199.077-.283.223-.256.438a.87.87 0 0 0 .083.106c.032.04.055.09.068.151.021.098-.013.158-.104.181a.367.367 0 0 1-.178-.241 9.766 9.766 0 0 1-.26-1.573.53.53 0 0 1 .01-.14c.062-.421.286-.75.668-.989a1.373 1.373 0 0 1 .026-.312l.105-.544c.059-.333.242-.476.548-.429.01-.05.023-.1.036-.151.015-.06.05-.11.105-.146a.163.163 0 0 1 .099-.036c.3.081.532.256.694.525.029-.135.063-.266.105-.393.101-.316.162-.646.183-.988.02-.397.14-.761.36-1.094l-.104 1.416c.132-.174.266-.348.402-.519a1.85 1.85 0 0 1 .543-.469" fill="#CFCFCF"/></g></svg>