<svg width="86" height="72" xmlns="http://www.w3.org/2000/svg"><g fill="none" fill-rule="evenodd"><path d="M29.42 10.96l-.422-1.265c-.078-.233-.156-.47-.161-.717-.004-.246.078-.506.27-.66.223-.177.55-.175.812-.064.263.111.476.313.677.515.85.853 1.618 1.786 2.384 2.717-.746-1.103-1.511-2.253-1.714-3.569-.037-.235-.052-.487.053-.7a.814.814 0 0 1 .28-.31c.334-.226.783-.235 1.157-.088s.679.434.915.76a5.096 5.096 0 0 1-1.035-2.108c-.153-.668-.16-1.414.218-1.985l-2.912.381c-.562.074-1.125.148-1.676.28a4.553 4.553 0 0 0-.984.341 3.116 3.116 0 0 0-1.43 1.507c-.251.567-.311 1.267.038 1.778.243.354.64.563 1 .796.98.63 1.772 1.508 2.53 2.39" fill="#85242C"/><path d="M42.392 14.13c.036-.468.059-.936.082-1.403l.31-6.24a66.277 66.277 0 0 0 3.48 12.383c4.11 10.558 17.17 5.193 25.379 3.36-2.141.79-4.275 1.73-5.978 3.247-1.703 1.52-2.933 3.71-2.821 5.988.19 3.853 3.862 6.47 7.155 8.481-4.34-1.192-9.571-1.212-13.126 1.998-2.931 2.645-2.554 7.77-2.183 11.343.43 4.143 1.006 8.104.922 12.28.01-.516-.61-1.42-.821-1.898-.27-.614-.545-1.227-.827-1.836a73.489 73.489 0 0 0-1.846-3.734c-.512-.962-2.577-5.294-3.227-6.486-.757-1.388-1.828-2.649-3.232-3.378-.826-.43-1.743-.663-2.665-.79-7.108-.99-12.822 4.848-17.094 9.785-.81.936-1.651 1.762-2.546 2.61-.625.592-.875 1.34-1.268 2.101 1.399-2.499 2.778-5.008 4.167-7.512 1.184-2.136 2.399-4.377 2.477-6.819.143-4.45-3.511-5.216-6.626-6.95-2.981-1.66-6.411-2.352-9.812-2.625 4.98.358 10.006-2.902 11.709-7.597 1.677-4.627.007-10.358-4.011-13.245a42.82 42.82 0 0 1 3.018 2.04c2.735 2.023 5.543 4.081 8.8 5.061.94.282 1.906.471 2.88.587.964.115 1.965.155 2.883-.16 1.867-.645 2.94-2.569 3.708-4.389.816-1.935.953-4.127 1.113-6.202" fill="#AC2A2C"/><path d="M44.402 22.634c.097-.493.167-.99.17-1.496a4.091 4.091 0 0 0-.17 1.496" fill="#F4DA47"/><path d="M57.497 37.77c.209.008.416.016.62.022 2.518.077 5.028.322 7.532.6a56.103 56.103 0 0 0-7.756-2.195c-1.666-.344-4.273-.748-5.055-2.518-1.261-2.853 2.564-4.328 4.537-5.266 2.607-1.24 5.357-2.142 8.096-3.038-2.721.451-5.341 1.365-8.013 2.051-2.802.721-5.908 1.354-8.724.357-1.004-.356-1.94-.579-2.551-1.49-.801-1.192-1.262-2.637-1.531-4.036-.356-1.844-.381-3.734-.405-5.612l-.53 4.365c-.336 2.772-.797 5.867-3.312 7.5-1.181.765-2.656 1.176-4.068 1.083-1.39-.09-2.88-.934-4.157-1.505a57.587 57.587 0 0 1-8.392-4.62c2.498 1.48 4.75 3.335 6.992 5.182 1.637 1.35 2.784 2.857 1.634 4.99-1.23 2.282-3.701 2.791-5.952 3.687l-7.59 3.021c2.497-.994 5.355-1.544 7.97-2.14a57.875 57.875 0 0 1 4.128-.798c1.095-.167 2.796-.813 3.492.273.425.662.52 1.477.57 2.262.084 1.325.236 2.713-.258 3.948a141.703 141.703 0 0 1-1.776 4.216 160.778 160.778 0 0 1-3.906 8.273l5.259-8.652c.61-1.007 1.225-2.015 1.933-2.957.792-1.054 1.698-2.016 2.652-2.925.77-.733 1.79-2.027 2.849-2.17 1.316-.179 2.597.456 3.606 1.245 1.143.893 1.578 2.288 2.222 3.563l4.506 8.914a50.749 50.749 0 0 1-2.413-10.414c-.191-1.556-.142-3.264 1.304-4.196.114-.073.23-.144.347-.21 1.795-1.033 4.078-.895 6.14-.81" fill="#F4DA47"/><path d="M34.714 3.795a2.024 2.024 0 0 0-.112-.809c-.175-.5-.514-.929-.888-1.305-.401-.403-.867-.768-1.416-.916-.55-.149-1.194-.043-1.577.377-.124-.577-.676-.992-1.255-1.107-.487-.096-.907.025-1.381.103-.43.07-.743.137-1.121.381-.212.137-.426.283-.575.488-.15.204-.224.48-.132.715-.758-.559-1.821-.5-2.704-.174-.425.157-.834.372-1.164.682-.444.416-.73 1.084-.781 1.69-.023.283.033.57.126.837.179.515.495.885.95 1.173.343.217.109.251-.04.556a1.277 1.277 0 0 0-.106.793c.094.487.452.898.89 1.13.439.231.949.3 1.444.276.604-.028 1.22-.196 1.682-.588.46-.39.736-1.033.585-1.619-.028.118.095.214.205.265a2.47 2.47 0 0 0 1.898.075c.31-.117.61-.31.77-.602.162-.29.152-.692-.085-.926a1.537 1.537 0 0 0 1.73.028c.189-.13.356-.325.363-.554-.005.181.37.38.508.418.206.058.47.017.684.01.498-.019 1-.24 1.274-.673.138-.217.21-.467.228-.724" fill="#AC2A2C"/><path d="M71.05 9.434c-.091-.592-.532-1.135-1.117-1.257 1.106-.363 1.12-2.024.062-2.465-.432-.18-.93-.105-1.373.046.564-.629.553-1.626.169-2.378a2.082 2.082 0 0 0-.457-.615c-.272-.243-.621-.386-.976-.469a3.493 3.493 0 0 0-2.068.168c-.241.096-.638.45-.88.42-.123-.017-.294-.212-.434-.257a1.632 1.632 0 0 0-.416-.064 2.795 2.795 0 0 0-2.295 1.041 2.794 2.794 0 0 0-.478 2.474c.158.537.472.886.763 1.328.259.396-.111.878-.366 1.194-.343.43-.687.857-1.031 1.285a4.394 4.394 0 0 1 2.629-.829c.169.003.362.027.462.164.09.125.072.296.04.448a5.223 5.223 0 0 1-.782 1.874c.458-.574.97-1.184 1.686-1.349.148-.034.318-.043.438.05.222.17.12.52-.005.77a24.95 24.95 0 0 1-.947 1.718c.94-.882 2.129-1.615 3.417-1.588.574.012.87.415 1.365.551.512.141 1.229-.12 1.654-.394.56-.36.965-.993.957-1.66l-.017-.206M48.34 67.202c-.125-.62-.483-1.17-.917-1.63l-.177-.18a2.458 2.458 0 0 0-.43-.464c-.105-.118-.214-.234-.297-.37-.611-1.002-.258-2.288.11-3.4-.271.86-.63 1.695-1.066 2.486-.133.241-.374.494-.612.537l-.1-.007-.174-.05c-.101-.076-.151-.2-.196-.319a13.326 13.326 0 0 1-.84-4.325l-.18 3.504c-.016.325-.04.67-.225.935-.186.267-.597.404-.843.192-.137-.118-.187-.306-.226-.482a14.323 14.323 0 0 1-.348-3.237 21.94 21.94 0 0 1-.67 3.455c-.135.492-.264.887-.546 1.291l-.008.01-.001.002c-1.231 1.01-2.38 2.572-1.181 4.126.736.954 2.272 1.187 3.218.442-.114.404.133.844.489 1.067.356.222.794.268 1.214.264.526-.004 1.08-.088 1.493-.416.413-.327.62-.957.336-1.4.53.342 1.29.191 1.729-.264.439-.456.574-1.148.449-1.767M76.69 51.558a2.46 2.46 0 0 1-.312-.05 14.293 14.293 0 0 1-2.948-.974c.744.317 1.5.641 2.122 1.161 1.163.973.639 2.486 1.63 3.532.447.471 1.229.675 1.762.304.22.775 1.249 1.265 2.01 1.161.849-.115 1.61-.769 1.823-1.603.053-.207.072-.436-.02-.63.043.09.714-.062.802-.084a2.83 2.83 0 0 0 .778-.326c.407-.247.739-.708.892-1.158a2.13 2.13 0 0 0-.42-2.063c-.298-.334-.707-.539-1.16-.523.775-1.31-.191-3.1-1.698-3.029-.454.022-.931.107-1.276.403-1.241 1.061-3.238-.194-4.506-.796.854.364 1.662.838 2.396 1.406.18.14.363.293.447.504.083.212.03.495-.174.597-.12.06-.262.046-.395.03a26.24 26.24 0 0 1-4.563-.977c1.096.391 2.218.798 3.102 1.554.41.352.762 1.008.375 1.386-.172.168-.418.197-.666.175" fill="#85242C"/><path d="M83.99 54.291c.864-.396 1.517-1.306 1.45-2.254-.067-.948-.972-1.804-1.914-1.675a2.035 2.035 0 0 0 .312-1.855 2.035 2.035 0 0 0-1.368-1.292c-.564-.155-1.178-.052-1.71.193-.388.18-.751.442-.971.808-.221.367-.277.848-.074 1.224-.871-.065-1.752.487-2.075 1.3-.195.49-.155 1.131.269 1.446-.975.16-1.677 1.265-1.406 2.215.272.95 1.452 1.518 2.363 1.14-.021.258.196.47.41.618.74.511 1.719.737 2.56.42.843-.318 1.458-1.257 1.249-2.132l-.34.158c.428-.045.855-.134 1.246-.314" fill="#AC2A2C"/><path d="M53.246 39.093c-1.064-1.036-2.527-2.48-1.383-3.888.9-1.108 2.558-1.574 3.883-1.897 4.958-1.208 9.993-2.1 15.063-2.668-5.976.34-11.953.678-17.93 1.017-.876.05-3.257.45-3.916-.255-.787-.84.126-2.29.646-3.006 1.339-1.84 2.58-3.536 3.645-5.522.989-1.845 2.869-3.114 3.742-5.016-3.892 3.903-7.75 7.786-11.882 11.437-.36.317-.743.646-1.213.744-2.194.455-4.371-4.284-5.213-5.798-.671-1.209-1.31-2.437-2.01-3.63-.628-1.073-1.77-2.166-2.245-3.278 1.09 2.553 2.24 5.086 3.157 7.7.516 1.471 1.36 3.994-.522 4.871-.583.272-1.256.25-1.898.207-7.285-.486-14.412-2.237-21.725-2.557 2.404.456 4.746 1.383 7.137 1.8 2.1.365 4.108.753 6.179 1.393a82.119 82.119 0 0 1 4.803 1.647c.654.247 1.678.45 2.227.88.39.305.447.751.752 1.09 1.386 1.535-3.991 6.718-5.033 7.85-4.171 4.531-8.445 9.104-12.99 13.263 5.437-4.43 10.763-8.882 16.169-13.373 1.144-.95 2.293-1.904 3.57-2.663.769-.455 1.954-.947 2.867-.63.83.29 1.273 1.396 1.629 2.141.962 2.013 1.374 4.246 1.626 6.447.353 3.083.434 6.237 1.424 9.178-.368-1.083.152-2.656-.054-3.815-.25-1.397-.382-2.805-.483-4.232a111.93 111.93 0 0 1-.27-9.122c.009-.82.044-1.693.512-2.366.652-.94 1.988-1.19 3.093-.896 1.106.294 2.038 1.021 2.936 1.73L62.552 48.15l-9.306-9.057" fill="#F7E188"/><path d="M5.512 52.95a1.617 1.617 0 0 0 1.459-.208c-.485.228-1.013.502-1.2 1.004-.204.55.079 1.181-.084 1.744-.305 1.055-1.532 1.271-2.458 1.206-.431-.03-.89-.135-1.178-.457-.288-.322-.293-.913.082-1.127-.55.016-1.117-.13-1.54-.48-.423-.353-.676-.927-.568-1.466.107-.539.615-.993 1.164-.966-.61-.097-1.04-.776-.92-1.383.119-.607.715-1.063 1.332-1.084-.146-.243-.015-.576.21-.747.228-.17.52-.22.8-.265l1.276-.204c-.255.262-.59.43-.86.675-.27.246-.478.624-.36.97.176.507.867.561 1.4.5a18.427 18.427 0 0 0 3.154-.653c-.577.173-1.143.398-1.696.636-.46.198-1.14.306-1.452.72-.065.085-.12.196-.081.296l.177.158c.567.26 1.222-.035 1.774-.326l1.77-.932c-.48.287-.964.578-1.371.962-.408.384-.738.874-.83 1.426" fill="#85242C"/><path d="M24.102 2.271c-.703.037-1.334.635-1.41 1.336-.015.154-.007.313.048.458.115.303.42.5.737.572.316.071.646.038.968.004-.36.084-.666.37-.774.724-.108.354-.015.762.237 1.033.435.47 1.205.45 1.788.185.574-.26 1.08-.779 1.116-1.408.07.312.444.458.764.448.835-.026 1.552-.862 1.45-1.69.139.3.519.388.848.425.345.04.712.058 1.02-.1.309-.158.52-.555.36-.863.355.45 1.105.51 1.525.12.42-.389.419-1.142-.003-1.529-.246-.226-.585-.32-.917-.353a3.088 3.088 0 0 0-2.012.506c.173-.483-.098-1.059-.551-1.299-.454-.24-1.034-.168-1.463.114a1.778 1.778 0 0 0-.745 1.803c-1.032-.88-2.663-.965-3.781-.196l.795-.29" fill="#E8912E"/><path d="M23.852 3.543a.586.586 0 0 0 .277.182c.36.126.767.061 1.112-.104.163-.077.32-.182.415-.336a.75.75 0 0 0 .1-.324c.008-.109-.007-.229-.085-.304l-.197-.09c-.494-.126-1.07-.11-1.453.225a.74.74 0 0 0-.233.347.466.466 0 0 0 .064.404M29.015 1.343a.532.532 0 0 0-.288-.092 1.134 1.134 0 0 0-1.135.791c-.041.142-.05.305.028.431.094.151.283.208.457.25a.88.88 0 0 0 .318.033.684.684 0 0 0 .278-.114c.279-.183.478-.49.507-.823.016-.174-.025-.37-.165-.476M25.438 5.09c.198.051.406.102.604.053l.249-.104c.282-.146.565-.319.733-.588.169-.268.187-.655-.037-.879-.142-.142-.35-.194-.55-.213l-.208.006-.197.091c-.234.138-.47.277-.66.47-.19.193-.33.45-.327.72 0 .117.033.242.12.323a.62.62 0 0 0 .273.121" fill="#F5DD53"/><path d="M29.464 2.023c-.281-.028-.58-.003-.82.145-.241.148-.407.441-.342.716.043.181.178.33.339.422.16.092.347.133.532.153.262.028.538.015.775-.1.237-.117.427-.353.433-.617a.465.465 0 0 0-.072-.267l-.2-.174c-.33-.193-.265-.24-.645-.278M27.032 3.03a.72.72 0 0 0-.511.35.719.719 0 0 0-.042.616l.068.123c.09.12.238.181.383.22.168.046.343.067.518.063.275-.006.565-.085.747-.29a.898.898 0 0 0 .17-.308c.09-.268.07-.605-.15-.784-.165-.135-.398-.146-.611-.138-.305.012-.627.06-.865.251l.293-.103" fill="#F5DD53"/><path d="M44.539 65.3c-.508-.194-1.096-.257-1.588-.024s-.835.821-.665 1.338c-.056-.639-.207-1.406-.81-1.626-.273-.099-.58-.052-.854.044-1.033.36-1.31 1.197-1.703 2.094-.172.392-.348.798-.346 1.226.003.825.694 1.53 1.48 1.775.789.244 1.645.114 2.438-.112-.113.338.139.711.463.86.776.353 2.108.473 2.863.05.544-.305.89-1.04.574-1.578.304.315.82.364 1.217.18.397-.184.679-.56.83-.972.342-.926.006-2.077-.82-2.62-.825-.542-2.065-.36-2.651.434.226-.099.278-.423.158-.64-.12-.216-.354-.342-.586-.43" fill="#AC2A2C"/><path d="M42.153 67.26c-.345-.334-.438-.849-.847-1.137-.41-.288-1.002-.149-1.374.143a1.54 1.54 0 0 0-.561 1.321c.02.247.098.487.194.716.117.281.27.561.52.731.356.24.697.164 1.085.13.144-.013 1.2.022 1.21-.223-.011.25.155.472.345.634.618.526 1.587.59 2.268.147.313-.204.579-.55.528-.92.48.11 1.026.036 1.398-.289.372-.326.509-.929.229-1.336-.193-.282-.535-.426-.871-.489a2.639 2.639 0 0 0-1.328.094c-.26.087-.517.226-.665.456.032-.279.057-.584-.098-.818-.126-.188-.353-.293-.58-.307a1.31 1.31 0 0 0-.651.157c-.395.198-.74.553-.802.99" fill="#E8912E"/><path d="M40.224 66.978l-.08.085c-.056.091-.06.204-.061.311-.006.365.196.706.498.916.324.226.784.238.958-.182a.915.915 0 0 0 .045-.426 1.234 1.234 0 0 0-.046-.277.821.821 0 0 0-.462-.498.963.963 0 0 0-.685-.015l-.167.086M43.554 68.362l-.04.007c-.383.074-.753.512-.365.856l.19.112c.4.172 1.358.267 1.47-.355a.417.417 0 0 0-.117-.348.82.82 0 0 0-.322-.196 1.607 1.607 0 0 0-.816-.076M45.635 67.32a1.349 1.349 0 0 0-.926.136.76.76 0 0 0-.274.238.405.405 0 0 0-.054.35c.04.115.144.2.258.24a.891.891 0 0 0 .36.035 2.027 2.027 0 0 0 1.168-.483l.097-.12-.086-.237-.25-.094a3.528 3.528 0 0 0-.8-.064l.507-.002" fill="#F4DA47"/><path d="M43.404 66.574a1.004 1.004 0 0 0-.985 1.017l.019.132.074.114a.754.754 0 1 0 1.304-.446c.03-.25.14-.663-.176-.787l-.134-.027-.102-.003" fill="#F4DA47"/><path d="M69.964 8.262c.562-.076 1.013-.607 1.038-1.174.025-.566-.347-1.117-.866-1.346-.518-.229-1.15-.147-1.62.17.397-.133.65-.547.693-.964.04-.416-.097-.83-.282-1.206-.408-.822-1.103-1.546-1.99-1.783-.887-.237-1.955.125-2.354.952-.32-.334-.817-.454-1.276-.398-.46.055-.884.267-1.273.517l-.043.032c-.933.43-1.675 1.296-1.855 2.312-.046.256-.06.523.015.772.096.32.325.58.554.821.312.327.652.651 1.079.796.428.145.965.062 1.226-.307.13-.183.215-.445.436-.485a2.212 2.212 0 0 0 .979 2.264c.744.46 1.774.402 2.462-.138a2.185 2.185 0 0 0 .496 1.981c.479.523 1.23.782 1.93.667.783-.129 1.479-.747 1.642-1.523.163-.777-.26-1.653-.991-1.96" fill="#AC2A2C"/><path d="M61.132 4.877c-.027.153-.024.312.009.464.126.578.675.997 1.255 1.107.58.11 1.182-.04 1.725-.274-.2.532-.041 1.256.367 1.647.33.316.794.471 1.25.484.458.012.91-.108 1.333-.284-.15.217-.01.51.132.732.229.357.492.728.889.877.295.111.629.081.927-.025.303-.106.602-.323.659-.639.059-.326-.157-.636-.388-.873a.886.886 0 0 0 .515-.613.884.884 0 0 0-.203-.774c-.317-.35-.851-.387-1.323-.357-.218.014-.445.04-.632.155.212-.132.312-.667.344-.89.047-.33.02-.67-.08-.989-.185-.6-.555-1.252-1.124-1.556a1.98 1.98 0 0 0-1.8-.016c-.121.062-.237.137-.367.18-.347.112-.722 0-1.081.061a5.304 5.304 0 0 0-1.241.393c-.398.177-.801.407-1.02.784a1.198 1.198 0 0 0-.146.406" fill="#E8912E"/><path d="M63.073 4.043c-.156-.024-.31.038-.454.1-.201.086-.407.181-.557.34-.15.16-.234.401-.15.603.094.224.353.328.592.365a2.044 2.044 0 0 0 1.67-.509c.092-.084.18-.188.185-.312.005-.115-.066-.222-.16-.29a.953.953 0 0 0-.313-.134c-.445-.127-.948-.203-1.348.028l.535-.19M65.064 7.071c.11.174.303.28.499.341.339.106.727.1 1.03-.085.303-.185.493-.569.39-.909-.087-.295-.358-.494-.627-.64-.194-.107-.401-.199-.621-.218-.22-.02-.456.044-.604.208-.17.19-.191.468-.19.724.003.2.016.41.123.58M67.498 7.98c-.081.335-.01.722.246.954.255.231.703.246.926-.017a.796.796 0 0 0 .149-.308c.118-.436-.052-.987-.48-1.132a.649.649 0 0 0-.727.23.812.812 0 0 0-.114.273" fill="#F5DD53"/><path d="M83.07 53.607c.556-.462 1.078-1.152.877-1.846-.167-.578-.79-.913-1.385-1 .453-.297.43-1.042.03-1.406-.892-.81-2.407.037-2.336 1.182-.354-.026-.692-.056-1.024.11-.316.155-.563.474-.571.826-.007.33.184.626.384.887-.353.066-.701.2-.973.436-.271.236-.458.584-.45.943.01.36.24.718.583.828.109.035.225.046.34.047a2.36 2.36 0 0 0 1.025-.22c.368-.172.416-.31.608.084.229.472.756.806 1.29.704.636-.122 1.08-.852.898-1.473.158.216.499.07.705-.102" fill="#E8912E"/><path d="M81.416 49.951a.76.76 0 0 0-.362.255c-.217.266-.272.737-.103 1.045.109.198.355.28.58.284l.229-.03c.463-.16.519-1.05.248-1.38l-.127-.118a.56.56 0 0 0-.465-.056M78.443 53.635l.093.055a1.566 1.566 0 0 0 1.635-.386c.089-.095.17-.216.154-.345-.02-.153-.17-.258-.32-.294-.27-.063-.546.03-.807.121-.18.063-.363.128-.516.243-.153.115-.273.29-.275.481l.036.125M82.058 52.831a.815.815 0 0 0 .796.116.905.905 0 0 0 .53-.616.856.856 0 0 0-.165-.759.702.702 0 0 0-.73-.215l-.238.131c-.25.195-.407.503-.418.82a.682.682 0 0 0 .045.29.607.607 0 0 0 .18.233M80.876 52.861c-.196.137-.404.316-.407.555a.76.76 0 0 0 .097.328l.149.241c.152.166.406.217.623.157a.74.74 0 0 0 .505-.5.713.713 0 0 0-.178-.686.688.688 0 0 0-.688-.162c-.113.038.019.06-.101.067M79.663 52.001a.641.641 0 0 0 .516.04.645.645 0 0 0 .372-.362l.04-.22-.023-.127c-.041-.092-.138-.145-.23-.185-.208-.092-.464-.15-.652-.024-.115.078-.18.21-.227.341l-.04.171c-.003.154.108.292.244.366" fill="#F4DA47"/><path d="M5.202 53.96a1.655 1.655 0 0 0-.454-1.083c-.282-.284-.7-.44-1.093-.374.257-.155.344-.515.237-.796-.107-.28-.37-.482-.655-.576-.286-.094-.594-.095-.894-.075.314-.108.567-.399.595-.729.027-.33-.197-.676-.52-.752.226.034.467.016.664-.1.197-.117.337-.345.304-.57l-.107-.21c-.1-.084-.243-.079-.372-.069-.274.02-.555.042-.807.153-.252.11-.475.327-.515.6-.04.272.16.58.436.586a.873.873 0 0 0-.686-.183 1.444 1.444 0 0 0-.662.295c-.303.231-.554.574-.552.955 0 .381.336.765.714.715-.423.188-.7.622-.795 1.076-.101.481-.012 1.013.297 1.397.308.384.847.588 1.317.445-.165.516.17 1.07.59 1.413.34.278.753.48 1.19.52.438.038.899-.097 1.21-.407.19-.188.32-.443.322-.71.002-.267-.141-.539-.38-.657.2.021.396-.107.499-.28.103-.173.127-.382.117-.584" fill="#AC2A2C"/><path d="M2.648 52.956c.243-.036.367-.443.426-.629.084-.262.003-.43-.183-.639a.95.95 0 0 0-.378-.278.499.499 0 0 0-.444.053c.034-.19-.026-.263-.05-.433-.028-.213.138-.233.203-.376.05-.11-.08-.213-.123-.326l.03-.266.178-.209.15-.172.012-.218-.221-.095-.228.11c-.101.076-.197.183-.188.31.007.1.08.2.044.293l-.163.108-.206-.005c-.306-.006-.588.268-.701.54a.948.948 0 0 0 .07.823c.143.247.382.431.648.536a1.025 1.025 0 0 0-.831.525c-.262.483-.075 1.203.523 1.301.21.034.426-.008.636-.05a2.07 2.07 0 0 0 .823 1.404c.14.103.3.19.473.202a.617.617 0 0 0 .616-.435.617.617 0 0 0-.301-.692c.315.116.678-.177.7-.512.025-.334-.221-.646-.526-.784-.306-.139-.657-.135-.99-.086" fill="#E8912E"/><path d="M1.592 52.298a.585.585 0 0 0-.275.212c-.198.29.006.771.339.85a.61.61 0 0 0 .474-.097l.108-.109c.072-.125.056-.445.032-.582a.4.4 0 0 0-.18-.28.473.473 0 0 0-.298-.045l-.2.051M3.189 54.6a.4.4 0 0 0 .09-.31.724.724 0 0 0-.115-.309.903.903 0 0 0-.357-.342.582.582 0 0 0-.486-.023l-.091.065-.032.065a.579.579 0 0 0 .035.461l.099.143c.106.133.227.262.385.326.157.064.358.05.472-.077" fill="#F5DD53"/><path d="M1.634 51.198l.042-.145c.067-.133.258-.332.006-.42l-.205.01-.192.154c-.055.102-.034.207-.007.313a.429.429 0 0 1 .019.217c-.014.132-.031.21.02.345.082.216.25.481.445.612l.24.097.232-.095c.222-.317-.251-.748-.463-.917l-.137-.17M2.324 53.19c-.107.035-.211.11-.241.218-.03.107.022.223.103.298a.843.843 0 0 0 .294.157c.114.043.228.086.348.112.172.036.365.031.509-.07l.119-.178c.012-.115-.08-.213-.173-.28a1.397 1.397 0 0 0-.971-.257l-.106.022.118-.023" fill="#F5DD53"/></g></svg>