<svg width="46" height="28" xmlns="http://www.w3.org/2000/svg"><g fill="none" fill-rule="evenodd"><path fill="#A9572E" d="M28.018 16H5l2.24 11h30.52L40 16H28.018"/><path d="M7.1 27h-.116c.712-.5 1.445-.941 2.22-1.31h.326c-.836.37-1.643.79-2.43 1.31m3.244-1.651h-.359c.61-.246 1.233-.464 1.834-.736.23-.105 2.625-1.31 1.846-1.943-.396-.322-.928-.402-1.456-.402-.357 0-.711.036-1.023.06-.747.055-1.491.132-2.235.232-.984.133-1.957.323-2.931.514L6 22.976c1.461-.322 2.92-.637 4.411-.787.387-.04 1.177-.189 1.917-.189.82 0 1.58.184 1.669.905.047.381-.456.84-.685 1.02-.608.479-1.282.79-1.99 1.05-.331.122-.657.245-.978.374" fill="#C97436"/><path d="M6.417 27l-.017-.089-.01-.057c.333-.19.681-.359 1.034-.517h.373c-.464.201-.932.415-1.38.663m2.136-.986h-.38c.704-.296 1.406-.586 2.042-.963.51-.468.552-.716.13-.745a3.353 3.353 0 0 0-.22-.037 1.82 1.82 0 0 0-.3-.022c-.091 0-.183.005-.272.01-.585.034-1.17.11-1.749.216-.606.11-1.2.25-1.783.44l-.02-.106L6 24.804c.846-.303 1.72-.495 2.604-.624.288-.042.865-.18 1.387-.18.43 0 .822.094.983.412.29.576-1.947 1.396-2.146 1.484-.09.04-.183.079-.275.118" fill="#C97436"/><path d="M6.28 26l-.032-.183v-.001l.003.02h.237c-.068.055-.138.11-.208.164m.971-.734h-.288c.244-.208.475-.431.684-.675-.081-.199-.184-.298-.311-.298-.013 0-.025 0-.038.003-.279.003-.555.039-.828.108a8.759 8.759 0 0 0-.45.123L6 24.416C6.622 24.181 7.232 24 7.611 24c.244 0 .392.074.389.256-.006.395-.39.743-.749 1.01" fill="#C97436"/><path fill="#CB9C80" d="M6 22.003v-.006.006"/><path d="M15.393 27h-.523c.567-.16 1.133-.324 1.689-.517.477-.166.957-.342 1.432-.535h.34A28.19 28.19 0 0 1 15.393 27m3.562-1.326h-.32c.529-.237 1.045-.499 1.535-.793.275-.166 2.095-1.208 1.503-1.692-.487-.398-1.02-.474-1.625-.603-1.375-.295-2.794-.398-4.215-.398-1.189 0-2.38.072-3.547.165-2.06.163-4.222.295-6.272.732l-.001-.006L6 23.021a27.416 27.416 0 0 1 2.336-.379c1.431-.179 2.86-.378 4.302-.475 1.22-.081 2.482-.167 3.743-.167 1.524 0 3.046.126 4.487.54.692.2 1.604.698.847 1.402-.79.734-1.776 1.282-2.76 1.732" fill="#C97436"/><path d="M15.112 27h-.378c.766-.356 1.534-.7 2.294-1.075l.438-.217h.299c-.883.422-1.762.88-2.653 1.292m-4.879 0H10a22.449 22.449 0 0 0 2.738-1.292h.227l-.012.007c-.847.493-1.742.88-2.635 1.252l-.085.033m8.2-1.63h-.303a14.45 14.45 0 0 0 1.732-1.039c.364-.26 1.53-1.06.81-1.704a1.43 1.43 0 0 0-.946-.4 5.921 5.921 0 0 0-.318-.009c-.41 0-.823.045-1.219.151-1.808.483-3.137 1.95-4.69 3.002h-.195c.366-.23.724-.48 1.07-.75.987-.778 1.908-1.712 3.066-2.156.546-.21 1.329-.465 2.04-.465.371 0 .724.07 1.01.253 1.54.979-.781 2.438-2.056 3.118" fill="#C97436"/><path d="M13.555 27h-.256l.083-.03a64.9 64.9 0 0 0 2.597-.99h.203l-.181.075c-.805.336-1.621.65-2.446.945m-2.29 0H11c.233-.067.459-.136.665-.218a70.56 70.56 0 0 0 1.93-.802h.17l-.302.13c-.726.31-1.452.621-2.199.89m5.552-1.286h-.198c.369-.16.732-.329 1.082-.513.293-.154.613-.303.864-.51.35-.196.258-.38-.279-.553-.213.036-.422.09-.625.161-1.133.407-2.21.922-3.298 1.415h-.16l.548-.246c.33-.15 2.784-1.468 3.81-1.468.219 0 .373.06.427.204.09.237-.311.51-.481.627-.512.352-1.098.629-1.69.883M6.016 22L6 21.905c.98-.101 1.958-.24 2.934-.395h.909a63.597 63.597 0 0 1-3.827.49m7.521-1.01h-1.46c2.397-.38 4.78-.483 7.19-.673 1.415-.11 2.869-.288 4.193-.964 1.115-.569 2.168-1.338 3.164-2.182l.2-.171H27c-.18.155-.363.308-.546.457-1.02.828-2.073 1.67-3.225 2.18-1.057.47-2.162.7-3.278.812-2.143.213-4.278.312-6.414.54" fill="#C97436"/><path d="M6.029 21L6 20.864a23.703 23.703 0 0 1 2.75-.136c.703 0 1.408.016 2.119.03.73.014 1.472.025 2.218.025 1.969 0 3.968-.075 5.879-.364 1.23-.185 2.472-.305 3.692-.562 1.335-.28 2.834-.582 3.853-1.585l.275-.272H27c-.797.752-1.54 1.283-2.618 1.606-1.271.381-2.553.567-3.856.784-2.73.455-5.552.535-8.314.548h-.152c-.629 0-1.258-.017-1.887-.035-.628-.017-1.257-.034-1.886-.034-.214 0-.429.001-.643.006-.548.012-1.084.057-1.615.125M18.25 19c-.793 0-1.604-.147-2.381-.207-1.153-.088-2.303-.225-3.456-.306-1.084-.077-2.177-.167-3.263-.167-.083 0-.166 0-.249.002a9.75 9.75 0 0 0-1.874.226l-.022-.13-.005-.03c.48-.114.966-.196 1.463-.217.226-.01.45-.014.676-.014.786 0 1.57.048 2.356.08 2.039.08 4.072.264 6.107.45.261.023.525.035.79.035 1.832 0 3.72-.57 5.323-1.694l.04-.028H24c-1.583 1.15-3.303 1.744-5.125 1.964a5.148 5.148 0 0 1-.626.036" fill="#C97436"/><path d="M6.294 18c-.092 0-.185 0-.277-.002L6 17.87c1.566 0 3.14-.203 4.7-.262.522-.02 1.047-.024 1.572-.024h.432l.435.001c1.25 0 2.5-.02 3.738-.234A12.33 12.33 0 0 0 18.388 17H19c-.61.237-1.24.398-1.9.509-2.06.344-4.129.194-6.195.262-1.53.05-3.074.229-4.611.229M32 27h-.36a14.77 14.77 0 0 1-1.718-1.174h.267c.575.435 1.17.83 1.811 1.174m-2.206-1.48h-.258c-.318-.256-.635-.522-.96-.793-1.2-1.003-2.583-1.585-3.883-2.407-.75-.474-1.454-.835-2.337-.97-.387-.059-1.046.016-1.343-.272-.03-.028-.003-.07.026-.098h.436c-.085.043-.12.08-.03.094.665.106 1.35.14 1.99.38.725.271 1.349.736 2.025 1.114 1.112.621 2.273 1.174 3.246 2.033.36.319.721.626 1.088.92m-7.107-5h-.552c.731-.254 1.49-.455 2.203-.72 1.302-.487 2.429-1.355 3.615-2.074.385-.233.762-.476 1.131-.727h.299c-.447.312-.907.607-1.38.885-1.14.672-2.207 1.556-3.453 2.02-.61.228-1.26.372-1.863.615M30 27h-.38c-.65-.259-1.316-.495-1.93-.822a9.597 9.597 0 0 1-.134-.074h.344c.458.254.95.456 1.445.658.089.036.364.126.655.238m-10.913 0H19a10.353 10.353 0 0 1 1.471-.896h.17c-.188.09-.374.185-.554.288-.315.181-.68.376-1 .608m8.426-1.13h-.349c-.693-.438-1.342-.959-2.038-1.385a2.431 2.431 0 0 0-.757-.312.87.87 0 0 0-.168-.016c-.444 0-.812.335-1.109.567-.405.317-.828.58-1.293.826-.214.114-.434.218-.656.32h-.203l.174-.085c.764-.369 1.414-.756 2.077-1.257.252-.191.585-.528.965-.528.038 0 .076.004.115.01 1.12.208 2.148 1.048 2.995 1.687.081.06.163.118.247.173" fill="#C97436"/><path d="M29 27h-.408l-.328-.272a11.066 11.066 0 0 0-.988-.766h.357c.078.057.156.117.233.178.361.29.751.57 1.134.86m-7.83 0H21c.486-.329.998-.63 1.478-.928a5.43 5.43 0 0 1 .184-.11h.2c-.191.11-.373.224-.542.332-.37.238-.765.466-1.15.706m6.055-1.309h-.392a4.021 4.021 0 0 0-1.38-.476 2.265 2.265 0 0 0-.31-.02c-.59 0-1.208.216-1.776.496h-.183c.337-.162.68-.312 1.013-.482.25-.129.514-.209.795-.209.04 0 .082.002.124.005a4.8 4.8 0 0 1 2.11.686" fill="#C97436"/><path d="M27 27h-.14c-.427-1.016-1.056-1.765-1.699-2h.725c.07.073.136.159.194.254.309.515.656 1.08.92 1.746m-4.805 0H22c.556-.875 1.2-1.57 1.863-2h.475c-.03.012-.061.026-.091.041-.73.371-1.43 1.063-2.052 1.959M25 28h-.304c-.326-.423-.688-.74-1.029-.753h-.031c-.385 0-1.013.264-1.487.753H22c.407-.522.94-.897 1.29-.975a.988.988 0 0 1 .222-.025c.52 0 1.062.389 1.488 1M37.962 25a21.327 21.327 0 0 1-2.505-.212h1.635c.302.02.605.034.908.045l-.038.167m-3.186-.482h-.761c-.607-.14-1.201-.312-1.777-.52-1.257-.453-2.543-.839-3.813-1.257-1.01-.332-2.018-.789-2.784-1.536-.257-.251-.478-.473-.586-.693h.222c.318.37.614.7 1.02.996.96.7 2.045 1.061 3.171 1.431 1.11.365 2.218.736 3.33 1.093.65.21 1.31.367 1.978.486m-9.591-4.412H25c.038-.156.15-.32.36-.5.4-.343 1.027-.518 1.487-.777.49-.275.965-.57 1.433-.879.482-.316.967-.63 1.448-.95h.182l-.206.138c-.922.615-1.843 1.264-2.821 1.793-.274.148-1.478.683-1.698 1.175M32.02 27h-.337c-.518-.36-1.355-.955-1.622-1.54h.277c.098.117.2.227.302.341.407.452.892.86 1.38 1.199m5.96-.647c-1.05-.21-2.127-.358-3.176-.368-1.323-.014-2.625-.13-3.914-.526h1.044c.78.187 1.563.336 2.386.346a18.39 18.39 0 0 1 3.68.428l-.02.12m-7.653-1.295H30c.02-.032.05-.058.077-.058l.009.001.24.057" fill="#C97436"/><path d="M39.426 24c-.545 0-1.09-.02-1.628-.042-1.296-.054-2.617-.125-3.885-.374-1.363-.268-2.595-.79-3.897-1.207a21.667 21.667 0 0 0-1.77-.509c-.278-.064-.889-.074-1.12-.28a.458.458 0 0 1-.126-.172h.214a.393.393 0 0 0 .197.107c1.091.307 2.194.522 3.27.89 1.188.408 2.336.872 3.604 1.074 1.542.245 3.17.39 4.78.39.312 0 .625-.005.935-.016l-.034.132c-.18.005-.36.007-.54.007m-12.143-2.979h-.227c.48-.84 2.97-1.89 3.387-2.114.537-.287 1.1-.588 1.648-.907h.146a69.39 69.39 0 0 1-2.457 1.387c-.442.24-.904.455-1.343.7-.108.061-.862.537-1.154.934" fill="#C97436"/><path d="M35.32 24c-.622 0-1.244-.03-1.86-.112-.965-.127-1.94-.385-2.8-.897-.488-.292-.923-.685-1.424-.956a2.72 2.72 0 0 0-.255-.117h.353c.483.294.936.63 1.444.908.944.519 1.96.83 3.013.937a21.23 21.23 0 0 0 2.144.111c.69 0 1.381-.036 2.065-.116l-.023.11c-.417.04-.834.066-1.238.088-.47.026-.945.044-1.419.044m-6.867-2.535h-.404c-.456-.66 2.394-2.118 2.683-2.337.452-.34.88-.719 1.276-1.128h.178c-.55.575-1.152 1.12-1.812 1.53-.38.237-.763.464-1.142.698-.278.17-1.49.936-.779 1.237" fill="#C97436"/><path fill="#CB9C80" d="M40 22.003v-.006.006"/><path d="M36.625 22c-.64 0-1.266-.043-1.89-.292-.754-.3-1.557-.462-2.276-.86a1.293 1.293 0 0 1-.157-.101h.363c.548.33 1.22.402 1.8.655.887.385 1.697.431 2.639.431h.026c.964 0 1.941-.011 2.87-.296l-.001.006-.028.133a9.683 9.683 0 0 1-2.411.312c-.316.002-.627.012-.935.012m-4.435-1.686h-.18c-.154-.85 1.56-1.987 2.052-2.33A7.55 7.55 0 0 0 35.233 17h.216c-.402.428-.867.766-1.35 1.102-.315.22-2.242 1.494-1.91 2.212M37.105 21c-.519 0-1.044-.063-1.437-.255a3.66 3.66 0 0 0 .194-.189c.486.175 1.099.266 1.673.266.242 0 .476-.016.692-.05.597-.09 1.184-.224 1.773-.356l-.034.152c-.423.099-.846.193-1.272.274a9.024 9.024 0 0 1-1.589.158m-1.687-.41a.987.987 0 0 1-.361-.55c-.187-.749.112-1.419.512-2.04.016.087.031.174.045.262l-.051.093c-.304.563-.61 1.533-.039 2.014a7.237 7.237 0 0 1-.106.221" fill="#C97436"/><path d="M38.408 21a.78.78 0 0 1-.25-.041c-.2-.068-.407-.154-.594-.34a.524.524 0 0 0 .12-.236l.014-.075a.684.684 0 0 0 .164.126c.19.103.374.15.553.15.568 0 1.085-.477 1.585-1.184l-.03.322C39.5 20.434 38.952 21 38.409 21m-.947-.497a1.791 1.791 0 0 1-.249-.445c-.055-.138-.135-.335-.212-.557.028-.165.055-.332.08-.501.112.35.234.693.378.962.002.138.003.277.003.415v.126" fill="#C97436"/><path d="M38.082 20c-.393 0-.783-.117-1.082-.41l.085-.331c.139.22.351.372.66.425.143.024.286.037.429.037.39 0 .777-.096 1.146-.308.228-.132.454-.269.68-.413l-.045.285c-.301.18-.603.34-.899.485-.285.14-.63.23-.974.23M38.866 18a.698.698 0 0 1-.163-.02c-.42-.103-.66-.467-.703-.98h.16c.007.417.142.754.542.754a.772.772 0 0 0 .082-.005c.466-.047.855-.32 1.216-.68l-.043.292c-.343.356-.724.639-1.09.639" fill="#C97436"/><path d="M37.938 26.308h-.941A6.744 6.744 0 0 1 34.625 25H38l-.062 1.308m-2.616 0h-3.004c-.483-.414-.965-.886-1.457-1.308h2.984c.486.53.98.964 1.477 1.308m-3.95 0h-.5c-.05-.212-.097-.43-.143-.664.092.466.483.486.623.642.007.008.013.016.02.022m-.752 0h-1.553c-.128-.428-.255-.864-.381-1.308h1.879a1.354 1.354 0 0 0-.022.24c.003.352.03.71.077 1.068m-1.812 0h-1.414A27.75 27.75 0 0 1 26.977 25h1.459c.124.442.248.878.372 1.308m-1.784 0h-.954c-.13-.468-.262-.904-.397-1.308h.93c.138.454.278.892.42 1.308m-1.3 0h-.791c-.301-.712-.694-1.016-1.053-1.016a.713.713 0 0 0-.47.188 4.216 4.216 0 0 0-.705.828H21.42c.158-.452.323-.894.492-1.308h3.379c.148.402.291.842.432 1.308m-1.59 0h-.905c.144-.132.292-.196.442-.196.154 0 .31.068.464.196m-2.91 0h-1.641c.179-.446.359-.876.54-1.308h1.61c-.173.412-.343.84-.509 1.308m-1.824 0h-1.547c.186-.372.372-.756.556-1.15l.074-.158h1.42c-.168.43-.337.864-.503 1.308m-1.89 0h-1.462l.025-.048c.121-.234.343-.672.615-1.26h1.472c-.215.454-.432.89-.65 1.308m-1.748 0h-.78c.2-.43.402-.862.602-1.308h.814c-.21.444-.423.878-.636 1.308m-.97 0h-2.1c.19-.43.378-.868.566-1.308h2.139c-.2.448-.403.882-.606 1.308m-2.26 0h-1.077c.173-.41.343-.85.51-1.308h1.143c-.191.44-.383.876-.575 1.308m-1.295 0H8.79c.245-.454.493-.888.743-1.308h2.244c-.178.454-.359.888-.541 1.308m-2.744 0h-.896c.26-.448.518-.878.77-1.308h.84a20.147 20.147 0 0 0-.714 1.308m-1.277 0H6.21l.158-.47c.071-.214.19-.498.313-.838h1.3c-.255.426-.51.858-.764 1.308M6.06 26.26L6 25h.501c-.14.446-.289.864-.44 1.26" fill="#411A15"/><path d="M9.572 25.142H9a38.438 38.438 0 0 1 1.37-.284H11c-.481.091-.957.186-1.428.284M8.66 25.142H8c.44-.098.883-.192 1.327-.284H10c-.44.093-.888.187-1.34.284M7.24 25.142h-.236L7 25.132c.245-.086.485-.177.712-.274H8c-.198.074-.39.135-.504.182l-.256.102M17.705 25.142H17c.448-.09.895-.186 1.336-.284H19c-.051.01-.101.023-.152.034-.38.086-.76.17-1.143.25" fill="#501F18"/><path d="M17.413 26.308h-.262c.195-.43.39-.864.582-1.308H18a34.25 34.25 0 0 1-.564 1.26l-.023.048m-4.214 0H13c.167-.42.333-.854.497-1.308h.17c-.153.458-.309.898-.468 1.308" fill="#501F18"/><path d="M15.409 26.308h-.189c.2-.426.399-.86.595-1.308H16c-.197.446-.395.878-.591 1.308m-2.252 0H13c.189-.432.377-.868.565-1.308h.149c-.185.44-.37.878-.557 1.308M31 25.142h-.41a54.033 54.033 0 0 1-.59-.284h.396c.2.096.401.191.604.284M29 26.308h-.37A40.889 40.889 0 0 1 28.207 25h.375c.135.464.275.898.417 1.308m-7.817 0H21c.167-.444.335-.878.504-1.308h.22c-.181.432-.362.862-.54 1.308M27 26.308h-.359A22.822 22.822 0 0 0 26.196 25h.394c.14.404.276.84.41 1.308m-4.798 0H22c.17-.468.347-.896.525-1.308h.184a26.63 26.63 0 0 0-.507 1.308M26 25.11h-.717a2.12 2.12 0 0 0-.416-.042c-.134 0-.267.014-.397.043H24a4.79 4.79 0 0 1 .633-.18c.126-.027.27-.042.421-.042.323 0 .676.067.946.222M38 25.142h-1.594c-.473-.075-.943-.169-1.406-.284h.743c.745.142 1.499.23 2.257.284M34 25.142h-1.067c-.007 0-.014-.003-.021-.004-.158-.034-.6-.039-.703-.14.052.05.106.098.16.144h-.283A.466.466 0 0 1 32 24.91c0-.017.009-.036.024-.052h.334c.554.091 1.098.194 1.642.284" fill="#501F18"/><path d="M39.91 21.964h-7.54c-.139-.382-.27-.838-.39-1.402a5.267 5.267 0 0 1-.087-.562H40l-.09 1.964m-7.905 0h-1.07c-.273-.73-.555-1.402-.86-1.938-.006-.008-.01-.018-.015-.026h1.652c.028.708.12 1.374.293 1.964m-1.421 0h-2.841c-.08-.504-.04-1.204.063-1.964h1.853c.032.204.08.39.148.556.239.584.515.94.777 1.408m-3.035 0h-1.243l-.046-.264a6.483 6.483 0 0 1-.045-1.7H27.6c-.073.69-.095 1.352-.051 1.964m-1.463 0h-3.9c.154-.352.482-.796.515-.836.2-.242.395-.704.586-1.064l.035-.064h2.709a13.01 13.01 0 0 0 .055 1.964m-4.308 0h-10.78c.574-.332 1.147-.672 1.72-1.006A14.844 14.844 0 0 1 14.686 20h8.119c-.34.538-.673 1.13-.99 1.838a.797.797 0 0 0-.037.126m-11.688 0h-3L7 20h6.23c-.069.042-.137.082-.205.126-.975.608-1.954 1.25-2.935 1.838" fill="#411A15"/><path d="M9.987 21.214H9c1.067-.128 2.132-.268 3.193-.4l.222-.028H14c-.713.058-1.427.125-2.141.209-.623.072-1.247.147-1.872.219M20.53 21.214H20a.21.21 0 0 1 .047-.028c.412-.154.843-.283 1.283-.4H22l-.045.014c-.248.078-.5.18-.76.232a6.26 6.26 0 0 0-.665.182M25.148 21.214h-.224a.639.639 0 0 1-.056-.428h.187c-.055.129-.05.254.046.37l.047.058M27.078 21.214h-.197c-.045-.133-.022-.278.051-.428h.21c-.103.166-.144.318-.064.428M30 21.214h-.55c-.41-.102-.843-.18-1.218-.307a.687.687 0 0 1-.232-.12h.629c.007 0 .014.003.022.005.48.117.921.263 1.349.422M32 21.214h-.554c-.265-.129-.403-.274-.446-.428h.274c.031.043.075.084.132.123.182.122.382.222.594.305" fill="#501F18"/><path d="M40.83 18H38.9a11.01 11.01 0 0 1 .155-1.754c.195.28.379.444.54.444.182 0 .335-.208.442-.69H41l-.17 2m-2.097 0H38c.05-.664.086-1.334.101-2h.798l.01.016A7.634 7.634 0 0 0 38.733 18" fill="#411A15"/><path d="M38.009 18h-.137a2.393 2.393 0 0 1 .143-1c.04.042.08.08.12.116a3.51 3.51 0 0 0-.126.884" fill="#501F18"/><path d="M35 18h-.905a20.608 20.608 0 0 0 .523-2h.227A75.112 75.112 0 0 1 35 18m-1.128 0h-1.227c.081-.245.161-.49.24-.738.13-.406.256-.827.379-1.262h1.165a27.501 27.501 0 0 1-.557 2m-1.41 0H31.13c.2-.43.398-.863.596-1.303.103-.231.205-.462.307-.697h1.054c-.2.692-.407 1.359-.623 2m-1.47 0h-1.306c.302-.654.6-1.32.896-2h1.308c-.29.692-.592 1.357-.899 2M29.5 18h-1.17c.308-.643.61-1.31.904-2h1.184c-.303.68-.61 1.342-.918 2m-1.459 0h-1.226c.302-.647.6-1.314.893-2h1.266a57.77 57.77 0 0 1-.933 2m-1.408 0H25.57l.16-.46c.171-.502.339-1.016.503-1.54h1.311c-.3.68-.605 1.346-.911 2m-1.274 0H24l.03-.189c.1-.62.21-1.217.32-1.811h1.667a196.01 196.01 0 0 1-.658 2" fill="#411A15"/><path d="M27.339 18H27c.57-.327 1.137-.66 1.696-1H29c-.546.343-1.1.677-1.661 1M25.484 18H25c.506-.332 1.01-.664 1.505-1H27a33.606 33.606 0 0 1-1.516 1M28.485 18H28a41.029 41.029 0 0 0 1.564-1H30c-.495.345-1 .679-1.515 1M30.344 18H30c.57-.329 1.135-.66 1.694-1H32c-.546.34-1.098.673-1.656 1M32.264 18H32c.59-.321 1.171-.654 1.73-1H34a40.33 40.33 0 0 1-.591.349c-.38.22-.762.436-1.145.651" fill="#501F18"/><path d="M33.227 18H33c.27-.32.53-.654.779-1H34c-.153.217-.31.428-.472.631-.1.124-.199.247-.3.369M34.3 18H34c.269-.312.517-.643.748-1H35a6.62 6.62 0 0 1-.7 1" fill="#501F18"/><path d="M24 18h-.476c.124-.221.247-.451.369-.689.037.227.073.457.107.689m-.733 0H18.73c.648-.485 1.273-1.133 1.888-2h3.038c.062.313.12.63.177.952-.185.366-.373.715-.565 1.048m-5.155 0H8c.11-.304.17-.68.306-1.096.1-.309.202-.61.306-.904h.758c-.042.398-.08.803-.116 1.217a.956.956 0 0 0-.004.087c0 .119.027.166.06.166.024 0 .052-.027.074-.072.216-.451.423-.925.63-1.398h10.31c-.713.917-1.447 1.548-2.212 2" fill="#411A15"/><path d="M23.41 17.168H23c.306-.107.607-.219.902-.336.034.038.066.077.098.115-.195.076-.392.15-.59.22M18.739 18H18a11.199 11.199 0 0 0 2.648-1H21c-.737.433-1.486.757-2.261 1" fill="#501F18"/><path d="M7 18H5.117L5 17h1.961c-.006.123-.01.245-.01.363 0 .239.014.46.049.637" fill="#411A15"/><path fill="#8E4B29" d="M3 16h38v-3H3z"/><path d="M39 15.614h-.396c-.008-.324-.017-.662-.028-1.008.14.356.281.692.424 1.008M3 15.54v-.634c.072-.304.144-.606.217-.906-.074.508-.147 1.022-.217 1.54" fill="#D47F3E"/><path d="M46 10.163c-1.05-1.967-3.184-2.969-5.336-3.324.27-.103.542-.202.817-.292.852-.279 1.664-.365 2.536-.458.062-.007.18-.127.121-.194-.56-.632-1.88-.58-2.619-.712-.833-.149-1.664-.122-2.488-.019.655-.198 1.318-.358 1.98-.547.061-.017.165-.1.135-.181-.107-.288-.826-.276-1.241-.265-.098.003-.18.006-.232.005-.19-.005-.38-.006-.57-.004.126-.052.252-.103.38-.152.365-.14.775-.172 1.106-.385l.05-.128c-.218-.215-.56-.255-.838-.348-.516-.17-1.054-.287-1.58-.42-1.095-.277-2.24-.368-3.365-.374-1.073-.006-2.157-.034-3.226.074-.307.032-.614.075-.918.129.504-.235 1.014-.448 1.562-.558.239-.048.614-.039.791-.24.039-.043.084-.106.045-.164-.183-.28-.655-.336-.94-.397a17.476 17.476 0 0 0-2.224-.327c-1.66-.141-3.288-.075-4.944.066-1.47.126-2.97.491-4.346 1.052-.051.021-.103.045-.154.068.465-.674.989-1.236 1.582-1.813.064-.062.115-.236-.03-.21-1.668.302-3.295 1.149-4.441 2.445.032-.337.137-.676.205-1 .098-.467.166-.921.375-1.352.083-.17-.102-.163-.19-.085-.57.499-.949 1.179-1.286 1.861-.101.203-.186.415-.259.63a8.974 8.974 0 0 0-.21-.305c-.331-.465-1.267-1.281-1.85-1.16-.087.019-.193.125-.168.224.09.355.342.686.51 1.005.024.044.044.087.063.131-.358-.144-.794-.2-1.14-.255-1.087-.17-2.19-.13-3.278-.012A13.15 13.15 0 0 0 7.22 2.9c-.454.17-1.339.443-1.595.914-.025.046-.019.106.039.115.477.064.992.041 1.497.025a1.613 1.613 0 0 0-.224.063c-.562.205-1.082.494-1.6.796a7.677 7.677 0 0 0-1.22.916c-.251.223-.599.476-.75.79-.017.034-.03.097.017.114.401.154.879-.066 1.345-.212A16.61 16.61 0 0 0 3.074 7.69c-.81.7-1.519 1.528-2.115 2.431-.271.41-.507.847-.69 1.307-.107.269-.331.662-.253.963.018.068.11.065.157.038.58-.329 1.006-1.023 1.5-1.485.515-.481 1.057-.836 1.64-1.155-.159.156-.312.32-.449.516-.333.476-.721.885-.962 1.426-.034.077-.037.177.063.188.401.044.79-.541 1.08-.753.463-.34 1.008-.493 1.543-.668-.815.636-1.526 1.564-2.054 2.368-.794 1.21-1.479 2.722-1.348 4.232.013.154.168.13.262.065.245-.172.322-.379.49-.634.288-.433.658-.843 1.004-1.225.383-.42.803-.827 1.23-1.223-.307.473-.59.96-.805 1.487-.035.086-.02.205.099.173.435-.117.793-.481 1.163-.735.213-.146.43-.31.649-.474-.475.547-.92 1.129-1.421 1.646-.065.067-.137.217-.003.245.479.1 1.017-.212 1.475-.315.765-.172 1.532-.303 2.292-.499.109-.027.214-.058.318-.09-.11.29-.2.59-.314.893-.146.389-.29 1.19-.11 1.565.025.051.08.055.127.03.215-.11.265-.273.449-.459a9.77 9.77 0 0 1 1.448-1.2l.027-.019-.027.045c-.223.407-.364.828-.486 1.279-.026.098.076.098.132.06.588-.401 1.11-.855 1.734-1.211.754-.43 1.547-.788 2.338-1.136.58-.255 1.17-.453 1.766-.622l.068-.017-.164.193c-.258.313-.702.845-.717 1.285 0 .043.026.063.063.07.313.056.744-.193 1.057-.266.494-.115 1.004-.222 1.49-.38-.195.203-.37.454-.492.668-.021.037-.02.108.036.107.62-.012 1.312-.578 1.839-.877a4.57 4.57 0 0 0 1.031-.78c.118.54.33 1.05.593 1.558.084.164.564.958.808.574.164-.26.163-.776.082-1.176.114.128.268.225.38.35.238.266.536.479.84.652.06.034.155-.05.177-.103.136-.343.087-.795.128-1.166l.013-.137c.34.369.683.873.77.99.485.652.945 1.336 1.2 2.123.022.07.105.035.146.01.2-.119.297-.366.395-.572.26-.548.598-1.036.815-1.61.022-.059.057-.184.094-.346.013.361.015.725.12 1.065.017.056.09.031.121.009.41-.292.519-.968.569-1.542.097.524-.076 1.306-.13 1.697-.007.042.04.064.073.054.79-.234 1.738-1.032 2.327-1.79a6.77 6.77 0 0 0-.036.811c.001.042.033.061.07.052.431-.102.743-.626.928-1.109.022.658-.276 1.285-.623 1.83-.027.041-.058.133.02.138.906.06 2.135-.813 2.772-1.414.085-.08.242-.286.408-.546.192.298.42.573.645.832.221.253.457.492.733.68.213.145.587.474.851.482.192.005.405-.115.366-.354-.063-.382-.11-.766-.166-1.149.345.542.591 1.12.764 1.831a9.95 9.95 0 0 1 .263 1.971c.02.591-.164.935-.391 1.427-.075.163.094.154.18.08.757-.642 1.313-1.742 1.5-2.853a6.07 6.07 0 0 1 .204 1.587c-.002.161.218.02.249-.055.366-.901.69-1.97.603-2.974.607.663 1.316 1.138 1.599.57.372-.747.284-1.874.206-2.675a8.113 8.113 0 0 0-.039-.331c.226.129.458.245.69.353.35.16.704.306 1.055.46.366.162.526.434.772.71.076.084.2-.062.224-.129.198-.569.049-1.327-.254-1.948.097.083.192.17.284.263.275.277.32.751.6.994.057.049.14-.011.176-.061.497-.686.277-2.156-.409-2.72.38-.015.752-.017 1.132.084.309.082.502.324.825.298.083-.007.229-.11.19-.217-.202-.552-.681-.878-1.188-1.088.57-.069 1.14-.033 1.702-.106.073-.01.178-.125.125-.203-.18-.268-.495-.432-.757-.61l.153-.004c.087 0 .172.012.255.024.175.026.34.053.508-.045l.056-.11" fill="#F1B231"/><path d="M1 11c.123-.132.246-.26.374-.372.522-.458 1.071-.796 1.66-1.1-.589.304-1.138.642-1.66 1.1-.128.113-.251.24-.374.372m29-9.954" fill="#EEC89B"/><path d="M35.364 21c-.04 0-.071-.017-.071-.057a.15.15 0 0 1 .019-.066c.216-.44.395-.753.394-1.26l-.001-.083a9.204 9.204 0 0 0-.149-1.336 7.945 7.945 0 0 0-.115-.518 5.352 5.352 0 0 0-.768-1.723c.056.36.103.722.167 1.081a.311.311 0 0 1 .004.052c0 .186-.186.281-.36.281h-.011c-.266-.007-.641-.316-.855-.453a3.849 3.849 0 0 1-.736-.64 7.025 7.025 0 0 1-.648-.782 3.299 3.299 0 0 1-.41.513c-.62.547-1.795 1.333-2.694 1.333-.03 0-.06 0-.09-.003-.037-.002-.05-.023-.05-.048 0-.028.015-.062.03-.082.336-.495.626-1.06.627-1.656 0-.021 0-.043-.002-.065-.185.455-.499.947-.931 1.044a.084.084 0 0 1-.018.002c-.03 0-.052-.018-.053-.052a3.79 3.79 0 0 1-.002-.121c0-.209.017-.425.038-.642-.591.714-1.545 1.464-2.337 1.684a.059.059 0 0 1-.017.002c-.028 0-.058-.017-.058-.046v-.007c.044-.289.161-.806.161-1.254 0-.12-.009-.237-.03-.342-.05.54-.159 1.176-.57 1.45a.149.149 0 0 1-.074.024c-.021 0-.04-.008-.048-.032-.106-.32-.107-.662-.12-1.002-.038.153-.073.27-.096.326-.135.337-.318.642-.5.949-.11.185-.22.371-.318.565l-.03.06c-.089.18-.186.378-.366.48a.21.21 0 0 1-.091.028c-.025 0-.047-.01-.057-.039a4.634 4.634 0 0 0-.366-.797 9.49 9.49 0 0 0-.838-1.2c-.087-.11-.432-.585-.774-.931l-.013.129c-.041.348.009.773-.129 1.096-.018.042-.087.105-.145.105a.068.068 0 0 1-.032-.008 3.316 3.316 0 0 1-.843-.613c-.113-.118-.268-.209-.382-.33.033.157.053.332.053.5 0 .238-.04.464-.136.607-.047.07-.102.098-.162.098-.253 0-.581-.514-.65-.638-.263-.478-.477-.958-.595-1.465-.303.293-.66.533-1.036.733-.528.281-1.223.814-1.846.825h-.001c-.035 0-.049-.025-.049-.053 0-.017.005-.034.013-.048.123-.201.298-.437.495-.628-.49.149-1.002.249-1.497.357-.283.062-.662.258-.964.258a.616.616 0 0 1-.098-.007c-.036-.006-.063-.025-.063-.064v-.002c.015-.414.461-.915.72-1.208.055-.062.109-.122.165-.182l-.069.015c-.598.16-1.19.346-1.774.586-.794.327-1.59.664-2.347 1.068-.393.21-.746.456-1.099.703-.21.147-.422.295-.643.436a.146.146 0 0 1-.075.023c-.034 0-.062-.015-.062-.052 0-.008.001-.017.004-.027.123-.424.264-.82.489-1.203l.026-.042-.026.017a9.939 9.939 0 0 0-1.456 1.13c-.137.13-.2.247-.312.342a.673.673 0 0 1-.139.09.13.13 0 0 1-.055.013.077.077 0 0 1-.07-.042 1.032 1.032 0 0 1-.086-.458c0-.355.098-.77.195-1.014.114-.285.204-.567.315-.84-.104.03-.21.059-.319.085-.764.183-1.534.307-2.302.469-.398.084-.856.315-1.284.315a1.03 1.03 0 0 1-.198-.019c-.055-.01-.076-.041-.076-.078 0-.052.04-.116.079-.152.502-.487.95-1.034 1.427-1.548-.22.153-.438.308-.652.445-.224.144-.443.326-.678.472a1.742 1.742 0 0 1-.49.22.15.15 0 0 1-.036.005c-.057 0-.08-.042-.08-.092 0-.025.006-.052.017-.076.216-.495.5-.955.808-1.4l-.22.193c-.352.311-.696.63-1.015.959-.348.359-.72.744-1.008 1.152-.17.24-.247.434-.493.596a.284.284 0 0 1-.146.048c-.06 0-.11-.03-.117-.109a3.958 3.958 0 0 1-.016-.358c.002-1.3.64-2.58 1.37-3.623.53-.757 1.245-1.63 2.063-2.228-.537.165-1.084.309-1.55.628-.28.192-.653.711-1.04.711-.015 0-.03 0-.044-.002-.063-.007-.086-.046-.086-.091a.21.21 0 0 1 .022-.086c.242-.509.632-.894.967-1.341.138-.184.291-.34.45-.486-.584.3-1.129.634-1.647 1.087-.127.11-.249.237-.371.367-.346.37-.686.78-1.106 1.013.356-1.085 1.251-1.969 2.113-2.69.84-.702 1.798-1.33 2.815-1.774-.656.608-1.191 1.33-1.634 2.1-.03.053.014.104.063.104a.073.073 0 0 0 .048-.02C4.82 9.394 6.586 8.526 8.46 7.999c-.61.414-1.192.87-1.747 1.348a23.676 23.676 0 0 0-2.106 2.052c-.641.707-1.227 1.499-1.51 2.414-.013.045.028.09.07.09a.067.067 0 0 0 .035-.011c.772-.497 1.494-1.065 2.292-1.524.903-.52 1.891-.928 2.861-1.31.296-.117.595-.227.895-.333-1.133.765-2.211 1.595-3.115 2.641a.07.07 0 0 0 .05.119.077.077 0 0 0 .036-.01c.554-.283 1.04-.705 1.624-.922-.72.654-1.45 1.322-1.822 2.232-.018.044.026.088.07.088.006 0 .011-.001.017-.003 1.142-.347 2.326-.515 3.452-.92a37.718 37.718 0 0 0 3.405-1.435c.072-.034.144-.07.216-.106-.487.411-.936.86-1.303 1.388-.031.045.014.106.063.106a.058.058 0 0 0 .034-.011c2-1.443 4.18-2.6 6.439-3.59-1.017.81-2 1.657-2.892 2.601a.07.07 0 0 0 .05.12h.04c1.893 0 3.568-1.038 5.135-2.056a8.65 8.65 0 0 0-.932.965c-.04.048-.01.118.05.118.006 0 .012 0 .019-.002 1.025-.22 1.955-.841 2.758-1.48.142-.111.284-.23.425-.353a10.798 10.798 0 0 1-.904 3.998c-.02.045.012.108.06.108a.066.066 0 0 0 .037-.013c1.077-.754 1.988-1.741 2.41-2.916.065.545.027 1.116.078 1.653.004.04.042.07.079.07.02 0 .041-.01.053-.035.576-1.203.61-2.442.41-3.706a5.606 5.606 0 0 1 1.111 4.393c-.006.041.027.091.069.091a.06.06 0 0 0 .035-.013c1.046-.752 1.552-1.986 1.795-3.207.058.74-.076 1.482-.156 2.222-.003.038.036.07.074.07a.054.054 0 0 0 .033-.01c.672-.487 1.012-1.238 1.126-2.058.474 1.354.673 2.784.844 4.22.004.037.038.07.074.07a.063.063 0 0 0 .046-.022c.806-.872 1.424-1.954 1.699-3.094.236.547.409 1.12.636 1.676.012.03.045.05.075.05a.06.06 0 0 0 .055-.034c.315-.618.466-1.355.446-2.082.62.98.92 2.09 1.217 3.222.009.033.038.05.068.05a.074.074 0 0 0 .05-.019c1.444-1.33 1.446-3.077.902-4.732.465.202.845.58 1.169.984a.056.056 0 0 0 .044.024c.04 0 .08-.05.074-.092-.211-1.516-1.064-2.75-2.234-3.608.971-.28 2.019-.34 3.015-.376.075-.002.09-.089.035-.13-1.019-.754-2.335-.998-3.58-1.109a13.742 13.742 0 0 0-1.226-.057c-.285 0-.57.01-.854.032-.253.02-.505.048-.758.076.896-.344 1.825-.623 2.78-.623.085 0 .169.002.253.006h.004c.067 0 .091-.098.032-.129-1.352-.712-2.97-.701-4.463-.747a29.095 29.095 0 0 0-.864-.014c-1.329 0-2.686.116-3.924.575.58-.504 1.293-.864 2.016-1.122.074-.026.063-.133-.02-.136a5.462 5.462 0 0 0-.22-.004c-1.358 0-2.632.486-3.833 1.088.67-.467 1.343-.93 2.05-1.346 1.02-.6 2.187-1.174 3.403-1.174.037 0 .074 0 .11.002h.003c.09 0 .086-.132-.003-.14a43.164 43.164 0 0 0-1.796-.12c.416-.017.83-.026 1.246-.026a25.168 25.168 0 0 1 1.925.073c.752.06 1.495.16 2.234.308.286.058.76.111.944.374.01.014.015.03.015.045 0 .04-.032.08-.06.109-.178.19-.555.18-.795.226-.55.104-1.063.304-1.568.524.305-.05.613-.09.922-.12a21.285 21.285 0 0 1 2.016-.077c.409 0 .817.005 1.224.007 1.13.006 2.28.091 3.38.352.528.125 1.069.234 1.587.395.28.088.622.125.842.327l-.05.12c-.334.201-.746.23-1.112.363-.128.046-.255.094-.38.143l.19-.001c.127 0 .254.001.381.005h.03c.05 0 .121-.003.203-.005.082-.002.176-.004.274-.004.403 0 .886.036.973.253a.076.076 0 0 1 .005.028c0 .066-.087.128-.142.143-.664.177-1.33.328-1.988.514.42-.049.843-.08 1.267-.08.41 0 .82.03 1.232.098.743.124 2.067.075 2.63.67a.06.06 0 0 1 .017.04c0 .063-.087.137-.137.143-.876.087-1.692.168-2.548.43-.276.085-.549.178-.82.275 2.16.334 4.304 1.276 5.359 3.127l-.057.104a.545.545 0 0 1-.271.065c-.078 0-.157-.012-.238-.023a1.765 1.765 0 0 0-.25-.023h-.007c-.052 0-.103.003-.154.004.264.167.58.321.762.574.01.014.013.029.013.044 0 .066-.08.139-.14.146-.564.07-1.137.036-1.709.1.509.198.99.505 1.193 1.024a.103.103 0 0 1 .006.035c0 .087-.123.163-.197.169a.657.657 0 0 1-.05.002c-.294 0-.484-.21-.778-.283a3.326 3.326 0 0 0-.806-.085c-.11 0-.22.003-.331.007.433.334.681 1.004.682 1.617 0 .361-.086.702-.271.942-.027.034-.08.074-.128.074a.077.077 0 0 1-.049-.017c-.281-.228-.326-.675-.603-.935a5.123 5.123 0 0 0-.285-.247c.21.401.345.864.345 1.288 0 .192-.028.377-.09.544-.019.05-.1.146-.171.146a.071.071 0 0 1-.054-.024c-.243-.256-.403-.508-.758-.66l-.017-.008c-.353-.146-.709-.282-1.06-.433a8.402 8.402 0 0 1-.694-.332 10.557 10.557 0 0 1 .108 1.4c.001.51-.062 1.027-.275 1.428l-.013.023a.4.4 0 0 1-.362.215.96.96 0 0 1-.442-.139 2.194 2.194 0 0 1-.12-.071 4.046 4.046 0 0 1-.669-.564 3.52 3.52 0 0 1 .007.559 4.673 4.673 0 0 1-.083.624 6.779 6.779 0 0 1-.313 1.077c-.064.172-.132.34-.202.503l-.015.034c-.015.035-.076.085-.134.108a.156.156 0 0 1-.058.013c-.034 0-.058-.018-.058-.068v-.001-.054c0-.492-.076-.972-.204-1.439a4.893 4.893 0 0 1-.311 1.04c-.212.5-.504.962-.854 1.33a3.485 3.485 0 0 1-.342.314.223.223 0 0 1-.13.048" fill="#E28C2E"/><path d="M6 4c1.527-.666 3.225-1 4.914-1 1.047 0 2.09.128 3.086.385-.186-.01-.373-.015-.559-.02-.532-.011-1.063-.03-1.594-.03-.338 0-.677.008-1.017.029-.86.054-1.723.111-2.582.193C7.488 3.631 6.75 3.87 6 4M5 7l.026-.041C6.237 5.629 8.25 5.155 9.949 5h.01c.042 0 .047.027.036.058C8.277 5.562 6.573 6.125 5 7M5 11l.017-.045C6.45 8.573 8.59 6.785 11 6c-.37.199-.734.417-1.093.64-.646.403-1.282.813-1.886 1.295-.557.445-1.063.959-1.58 1.462C5.93 9.894 5.42 10.4 5 11M6 13c1.088-1.321 2.975-2.335 4.916-3H11c-.663.489-1.544.847-2.261 1.291-.923.571-1.73 1.21-2.739 1.709M14 11l.007-.01a12.376 12.376 0 0 1 4.943-2.985.077.077 0 0 1 .025-.005c.018 0 .026.011.025.028-.825.516-1.681.976-2.518 1.471-.448.266-.879.55-1.301.856l-.046.033-.538.358c-.19.11-.387.2-.597.254M18 3c.35-.438.659-.812 1.136-1.169.467-.347 1.141-.623 1.722-.816a.26.26 0 0 1 .08-.015c.03 0 .05.009.062.023-.257.152-.508.313-.755.478C19.511 1.993 18.831 2.614 18 3M19 5a.389.389 0 0 1 .065-.145C20.548 2.8 22.898 2.303 25 2a21.48 21.48 0 0 0-2.646.87c-.6.243-1.18.52-1.74.901-.552.376-1.077.817-1.614 1.229M16 11l.044-.045C16.97 10.237 17.985 9.62 19 9c-.267.486-.837.824-1.314 1.158-.506.354-1.104.587-1.686.842M20.003 10c-.01-.044.005-.1.056-.163C20.611 9.157 21.414 8.662 22 8c-.043.876-1.059 1.573-1.997 2M22.047 13c-.049-.013-.068-.046-.015-.103.578-.616.697-1.223.948-1.91.351-.957.475-1.959.25-2.934L23.25 8c.847.633.844 1.62.63 2.385-.265.943-.96 1.824-1.833 2.615M26.69 11c-.064-.002-.106-.019-.096-.062C26.799 9.972 26.037 8.87 25 8l.259.101c.35.171.682.35.985.54.164.13.301.266.416.408.492.603.404 1.322.03 1.951M28.632 11c.02-.679-.118-1.408-.632-2 1.237.313 1.172 1.27.632 2" fill="#FAD847"/></g></svg>